<?xml version="1.0" encoding="utf-8" standalone="no"?>
<!DOCTYPE svg PUBLIC "-//W3C//DTD SVG 1.1//EN"
  "http://www.w3.org/Graphics/SVG/1.1/DTD/svg11.dtd">
<!-- Created with matplotlib (http://matplotlib.org/) -->
<svg height="345.6pt" version="1.1" viewBox="0 0 460.8 345.6" width="460.8pt" xmlns="http://www.w3.org/2000/svg" xmlns:xlink="http://www.w3.org/1999/xlink">
 <defs>
  <style type="text/css">
*{stroke-linecap:butt;stroke-linejoin:round;}
  </style>
 </defs>
 <g id="figure_1">
  <g id="patch_1">
   <path d="M 0 345.6 
L 460.8 345.6 
L 460.8 0 
L 0 0 
z
" style="fill:#ffffff;"/>
  </g>
  <g id="axes_1">
   <g id="patch_2">
    <path d="M 56.12 294.88 
L 333.168 294.88 
L 333.168 24.84 
L 56.12 24.84 
z
" style="fill:#ffffff;"/>
   </g>
   <g id="line2d_1">
    <path d="M 100.643147 294.88 
L 100.643147 289.637523 
L 102.667676 289.637523 
L 102.667676 284.395046 
L 103.415125 284.395046 
L 103.415125 279.152568 
L 103.777005 279.152568 
L 103.777005 273.910091 
L 106.426644 273.910091 
L 106.426644 268.667614 
L 108.988361 268.667614 
L 108.988361 263.425137 
L 112.341186 263.425137 
L 112.341186 258.18266 
L 115.691256 258.18266 
L 115.691256 252.940182 
L 117.55589 252.940182 
L 117.55589 247.697705 
L 120.769881 247.697705 
L 120.769881 242.455228 
L 125.310285 242.455228 
L 125.310285 237.212751 
L 128.647561 237.212751 
L 128.647561 231.970274 
L 130.709498 231.970274 
L 130.709498 226.727797 
L 135.616951 226.727797 
L 135.616951 221.485319 
L 136.599426 221.485319 
L 136.599426 216.242842 
L 137.326546 216.242842 
L 137.326546 211.000365 
L 138.121538 211.000365 
L 138.121538 205.757888 
L 138.834862 205.757888 
L 138.834862 200.515411 
L 139.519758 200.515411 
L 139.519758 195.272933 
L 139.96165 195.272933 
L 139.96165 190.030456 
L 140.26435 190.030456 
L 140.26435 184.787979 
L 140.729508 184.787979 
L 140.729508 179.545502 
L 140.978022 179.545502 
L 140.978022 174.303025 
L 141.263487 174.303025 
L 141.263487 169.060547 
L 141.742087 169.060547 
L 141.742087 163.81807 
L 142.053908 163.81807 
L 142.053908 158.575593 
L 143.814623 158.575593 
L 143.814623 153.333116 
L 146.814308 153.333116 
L 146.814308 148.090639 
L 147.190823 148.090639 
L 147.190823 142.848162 
L 147.559266 142.848162 
L 147.559266 137.605684 
L 147.864973 137.605684 
L 147.864973 132.363207 
L 148.165338 132.363207 
L 148.165338 127.12073 
L 148.672099 127.12073 
L 148.672099 121.878253 
L 149.010418 121.878253 
L 149.010418 116.635776 
L 149.392686 116.635776 
L 149.392686 111.393298 
L 149.741959 111.393298 
L 149.741959 106.150821 
L 149.987165 106.150821 
L 149.987165 100.908344 
L 150.204899 100.908344 
L 150.204899 95.665867 
L 150.467326 95.665867 
L 150.467326 90.42339 
L 150.749113 90.42339 
L 150.749113 85.180912 
L 150.957462 85.180912 
L 150.957462 79.938435 
L 151.117784 79.938435 
L 151.117784 74.695958 
L 151.456376 74.695958 
L 151.456376 69.453481 
L 151.589967 69.453481 
L 151.589967 64.211004 
L 151.766488 64.211004 
L 151.766488 58.968526 
L 151.919472 58.968526 
L 151.919472 53.726049 
L 152.092658 53.726049 
L 152.092658 48.483572 
L 152.20002 48.483572 
L 152.20002 43.241095 
L 152.370417 43.241095 
L 152.370417 37.998618 
L 152.497115 37.998618 
L 152.497115 32.756141 
L 152.622886 32.756141 
L 152.622886 27.513663 
L 333.168 27.513663 
" style="fill:none;stroke:#f5deb3;stroke-linecap:square;stroke-width:4;"/>
   </g>
   <g id="line2d_2">
    <defs>
     <path d="M -0 7.778175 
L 7.778175 0 
L 0 -7.778175 
L -7.778175 -0 
z
" id="mb8b1dddfea" style="stroke:#f5deb3;stroke-linejoin:miter;stroke-width:1.5;"/>
    </defs>
    <g>
     <use style="fill:#f5deb3;stroke:#f5deb3;stroke-linejoin:miter;stroke-width:1.5;" x="125.310285" xlink:href="#mb8b1dddfea" y="242.455228"/>
     <use style="fill:#f5deb3;stroke:#f5deb3;stroke-linejoin:miter;stroke-width:1.5;" x="148.165338" xlink:href="#mb8b1dddfea" y="127.12073"/>
     <use style="fill:#f5deb3;stroke:#f5deb3;stroke-linejoin:miter;stroke-width:1.5;" x="152.622886" xlink:href="#mb8b1dddfea" y="32.756141"/>
     <use style="fill:#f5deb3;stroke:#f5deb3;stroke-linejoin:miter;stroke-width:1.5;" x="152.622886" xlink:href="#mb8b1dddfea" y="27.513663"/>
     <use style="fill:#f5deb3;stroke:#f5deb3;stroke-linejoin:miter;stroke-width:1.5;" x="333.168" xlink:href="#mb8b1dddfea" y="27.513663"/>
    </g>
   </g>
   <g id="line2d_3">
    <path style="fill:none;stroke:#f5deb3;stroke-linecap:square;stroke-width:4;"/>
    <g/>
   </g>
   <g id="line2d_4">
    <path d="M 333.168 27.513663 
L 363.64328 32.86099 
" style="fill:none;stroke:#f5deb3;stroke-linecap:square;stroke-width:4;"/>
    <g>
     <use style="fill:#f5deb3;stroke:#f5deb3;stroke-linejoin:miter;stroke-width:1.5;" x="333.168" xlink:href="#mb8b1dddfea" y="27.513663"/>
     <use style="fill:#f5deb3;stroke:#f5deb3;stroke-linejoin:miter;stroke-width:1.5;" x="363.64328" xlink:href="#mb8b1dddfea" y="32.86099"/>
    </g>
   </g>
   <g id="matplotlib.axis_1">
    <g id="xtick_1">
     <g id="line2d_5">
      <path clip-path="url(#pe6e07e1094)" d="M 56.12 294.88 
L 56.12 24.84 
" style="fill:none;stroke:#b0b0b0;stroke-linecap:square;stroke-width:0.8;"/>
     </g>
     <g id="line2d_6">
      <defs>
       <path d="M 0 0 
L 0 3.5 
" id="made87fc4dc" style="stroke:#000000;stroke-width:0.8;"/>
      </defs>
      <g>
       <use style="stroke:#000000;stroke-width:0.8;" x="56.12" xlink:href="#made87fc4dc" y="294.88"/>
      </g>
     </g>
     <g id="text_1">
      <!-- 0 -->
      <defs>
       <path d="M 31.78125 66.40625 
Q 24.171875 66.40625 20.328125 58.90625 
Q 16.5 51.421875 16.5 36.375 
Q 16.5 21.390625 20.328125 13.890625 
Q 24.171875 6.390625 31.78125 6.390625 
Q 39.453125 6.390625 43.28125 13.890625 
Q 47.125 21.390625 47.125 36.375 
Q 47.125 51.421875 43.28125 58.90625 
Q 39.453125 66.40625 31.78125 66.40625 
z
M 31.78125 74.21875 
Q 44.046875 74.21875 50.515625 64.515625 
Q 56.984375 54.828125 56.984375 36.375 
Q 56.984375 17.96875 50.515625 8.265625 
Q 44.046875 -1.421875 31.78125 -1.421875 
Q 19.53125 -1.421875 13.0625 8.265625 
Q 6.59375 17.96875 6.59375 36.375 
Q 6.59375 54.828125 13.0625 64.515625 
Q 19.53125 74.21875 31.78125 74.21875 
z
" id="DejaVuSans-30"/>
      </defs>
      <g transform="translate(49.7575 317.076875)scale(0.2 -0.2)">
       <use xlink:href="#DejaVuSans-30"/>
      </g>
     </g>
    </g>
    <g id="xtick_2">
     <g id="line2d_7">
      <path clip-path="url(#pe6e07e1094)" d="M 135.276571 294.88 
L 135.276571 24.84 
" style="fill:none;stroke:#b0b0b0;stroke-linecap:square;stroke-width:0.8;"/>
     </g>
     <g id="line2d_8">
      <g>
       <use style="stroke:#000000;stroke-width:0.8;" x="135.276571" xlink:href="#made87fc4dc" y="294.88"/>
      </g>
     </g>
     <g id="text_2">
      <!-- 2 -->
      <defs>
       <path d="M 19.1875 8.296875 
L 53.609375 8.296875 
L 53.609375 0 
L 7.328125 0 
L 7.328125 8.296875 
Q 12.9375 14.109375 22.625 23.890625 
Q 32.328125 33.6875 34.8125 36.53125 
Q 39.546875 41.84375 41.421875 45.53125 
Q 43.3125 49.21875 43.3125 52.78125 
Q 43.3125 58.59375 39.234375 62.25 
Q 35.15625 65.921875 28.609375 65.921875 
Q 23.96875 65.921875 18.8125 64.3125 
Q 13.671875 62.703125 7.8125 59.421875 
L 7.8125 69.390625 
Q 13.765625 71.78125 18.9375 73 
Q 24.125 74.21875 28.421875 74.21875 
Q 39.75 74.21875 46.484375 68.546875 
Q 53.21875 62.890625 53.21875 53.421875 
Q 53.21875 48.921875 51.53125 44.890625 
Q 49.859375 40.875 45.40625 35.40625 
Q 44.1875 33.984375 37.640625 27.21875 
Q 31.109375 20.453125 19.1875 8.296875 
z
" id="DejaVuSans-32"/>
      </defs>
      <g transform="translate(128.914071 317.076875)scale(0.2 -0.2)">
       <use xlink:href="#DejaVuSans-32"/>
      </g>
     </g>
    </g>
    <g id="xtick_3">
     <g id="line2d_9">
      <path clip-path="url(#pe6e07e1094)" d="M 214.433143 294.88 
L 214.433143 24.84 
" style="fill:none;stroke:#b0b0b0;stroke-linecap:square;stroke-width:0.8;"/>
     </g>
     <g id="line2d_10">
      <g>
       <use style="stroke:#000000;stroke-width:0.8;" x="214.433143" xlink:href="#made87fc4dc" y="294.88"/>
      </g>
     </g>
     <g id="text_3">
      <!-- 4 -->
      <defs>
       <path d="M 37.796875 64.3125 
L 12.890625 25.390625 
L 37.796875 25.390625 
z
M 35.203125 72.90625 
L 47.609375 72.90625 
L 47.609375 25.390625 
L 58.015625 25.390625 
L 58.015625 17.1875 
L 47.609375 17.1875 
L 47.609375 0 
L 37.796875 0 
L 37.796875 17.1875 
L 4.890625 17.1875 
L 4.890625 26.703125 
z
" id="DejaVuSans-34"/>
      </defs>
      <g transform="translate(208.070643 317.076875)scale(0.2 -0.2)">
       <use xlink:href="#DejaVuSans-34"/>
      </g>
     </g>
    </g>
    <g id="xtick_4">
     <g id="line2d_11">
      <path clip-path="url(#pe6e07e1094)" d="M 293.589714 294.88 
L 293.589714 24.84 
" style="fill:none;stroke:#b0b0b0;stroke-linecap:square;stroke-width:0.8;"/>
     </g>
     <g id="line2d_12">
      <g>
       <use style="stroke:#000000;stroke-width:0.8;" x="293.589714" xlink:href="#made87fc4dc" y="294.88"/>
      </g>
     </g>
     <g id="text_4">
      <!-- 6 -->
      <defs>
       <path d="M 33.015625 40.375 
Q 26.375 40.375 22.484375 35.828125 
Q 18.609375 31.296875 18.609375 23.390625 
Q 18.609375 15.53125 22.484375 10.953125 
Q 26.375 6.390625 33.015625 6.390625 
Q 39.65625 6.390625 43.53125 10.953125 
Q 47.40625 15.53125 47.40625 23.390625 
Q 47.40625 31.296875 43.53125 35.828125 
Q 39.65625 40.375 33.015625 40.375 
z
M 52.59375 71.296875 
L 52.59375 62.3125 
Q 48.875 64.0625 45.09375 64.984375 
Q 41.3125 65.921875 37.59375 65.921875 
Q 27.828125 65.921875 22.671875 59.328125 
Q 17.53125 52.734375 16.796875 39.40625 
Q 19.671875 43.65625 24.015625 45.921875 
Q 28.375 48.1875 33.59375 48.1875 
Q 44.578125 48.1875 50.953125 41.515625 
Q 57.328125 34.859375 57.328125 23.390625 
Q 57.328125 12.15625 50.6875 5.359375 
Q 44.046875 -1.421875 33.015625 -1.421875 
Q 20.359375 -1.421875 13.671875 8.265625 
Q 6.984375 17.96875 6.984375 36.375 
Q 6.984375 53.65625 15.1875 63.9375 
Q 23.390625 74.21875 37.203125 74.21875 
Q 40.921875 74.21875 44.703125 73.484375 
Q 48.484375 72.75 52.59375 71.296875 
z
" id="DejaVuSans-36"/>
      </defs>
      <g transform="translate(287.227214 317.076875)scale(0.2 -0.2)">
       <use xlink:href="#DejaVuSans-36"/>
      </g>
     </g>
    </g>
    <g id="xtick_5">
     <g id="line2d_13">
      <path clip-path="url(#pe6e07e1094)" d="M 56.12 294.88 
L 56.12 24.84 
" style="fill:none;stroke:#b0b0b0;stroke-linecap:square;stroke-width:0.8;"/>
     </g>
     <g id="line2d_14">
      <defs>
       <path d="M 0 0 
L 0 2 
" id="m0520a8e7dd" style="stroke:#000000;stroke-width:0.6;"/>
      </defs>
      <g>
       <use style="stroke:#000000;stroke-width:0.6;" x="56.12" xlink:href="#m0520a8e7dd" y="294.88"/>
      </g>
     </g>
    </g>
    <g id="xtick_6">
     <g id="line2d_15">
      <path clip-path="url(#pe6e07e1094)" d="M 95.698286 294.88 
L 95.698286 24.84 
" style="fill:none;stroke:#b0b0b0;stroke-linecap:square;stroke-width:0.8;"/>
     </g>
     <g id="line2d_16">
      <g>
       <use style="stroke:#000000;stroke-width:0.6;" x="95.698286" xlink:href="#m0520a8e7dd" y="294.88"/>
      </g>
     </g>
    </g>
    <g id="xtick_7">
     <g id="line2d_17">
      <path clip-path="url(#pe6e07e1094)" d="M 135.276571 294.88 
L 135.276571 24.84 
" style="fill:none;stroke:#b0b0b0;stroke-linecap:square;stroke-width:0.8;"/>
     </g>
     <g id="line2d_18">
      <g>
       <use style="stroke:#000000;stroke-width:0.6;" x="135.276571" xlink:href="#m0520a8e7dd" y="294.88"/>
      </g>
     </g>
    </g>
    <g id="xtick_8">
     <g id="line2d_19">
      <path clip-path="url(#pe6e07e1094)" d="M 174.854857 294.88 
L 174.854857 24.84 
" style="fill:none;stroke:#b0b0b0;stroke-linecap:square;stroke-width:0.8;"/>
     </g>
     <g id="line2d_20">
      <g>
       <use style="stroke:#000000;stroke-width:0.6;" x="174.854857" xlink:href="#m0520a8e7dd" y="294.88"/>
      </g>
     </g>
    </g>
    <g id="xtick_9">
     <g id="line2d_21">
      <path clip-path="url(#pe6e07e1094)" d="M 214.433143 294.88 
L 214.433143 24.84 
" style="fill:none;stroke:#b0b0b0;stroke-linecap:square;stroke-width:0.8;"/>
     </g>
     <g id="line2d_22">
      <g>
       <use style="stroke:#000000;stroke-width:0.6;" x="214.433143" xlink:href="#m0520a8e7dd" y="294.88"/>
      </g>
     </g>
    </g>
    <g id="xtick_10">
     <g id="line2d_23">
      <path clip-path="url(#pe6e07e1094)" d="M 254.011429 294.88 
L 254.011429 24.84 
" style="fill:none;stroke:#b0b0b0;stroke-linecap:square;stroke-width:0.8;"/>
     </g>
     <g id="line2d_24">
      <g>
       <use style="stroke:#000000;stroke-width:0.6;" x="254.011429" xlink:href="#m0520a8e7dd" y="294.88"/>
      </g>
     </g>
    </g>
    <g id="xtick_11">
     <g id="line2d_25">
      <path clip-path="url(#pe6e07e1094)" d="M 293.589714 294.88 
L 293.589714 24.84 
" style="fill:none;stroke:#b0b0b0;stroke-linecap:square;stroke-width:0.8;"/>
     </g>
     <g id="line2d_26">
      <g>
       <use style="stroke:#000000;stroke-width:0.6;" x="293.589714" xlink:href="#m0520a8e7dd" y="294.88"/>
      </g>
     </g>
    </g>
    <g id="xtick_12">
     <g id="line2d_27">
      <path clip-path="url(#pe6e07e1094)" d="M 333.168 294.88 
L 333.168 24.84 
" style="fill:none;stroke:#b0b0b0;stroke-linecap:square;stroke-width:0.8;"/>
     </g>
     <g id="line2d_28">
      <g>
       <use style="stroke:#000000;stroke-width:0.6;" x="333.168" xlink:href="#m0520a8e7dd" y="294.88"/>
      </g>
     </g>
    </g>
    <g id="text_5">
     <!-- log10(# f-evals / dimension) -->
     <defs>
      <path d="M 9.421875 75.984375 
L 18.40625 75.984375 
L 18.40625 0 
L 9.421875 0 
z
" id="DejaVuSans-6c"/>
      <path d="M 30.609375 48.390625 
Q 23.390625 48.390625 19.1875 42.75 
Q 14.984375 37.109375 14.984375 27.296875 
Q 14.984375 17.484375 19.15625 11.84375 
Q 23.34375 6.203125 30.609375 6.203125 
Q 37.796875 6.203125 41.984375 11.859375 
Q 46.1875 17.53125 46.1875 27.296875 
Q 46.1875 37.015625 41.984375 42.703125 
Q 37.796875 48.390625 30.609375 48.390625 
z
M 30.609375 56 
Q 42.328125 56 49.015625 48.375 
Q 55.71875 40.765625 55.71875 27.296875 
Q 55.71875 13.875 49.015625 6.21875 
Q 42.328125 -1.421875 30.609375 -1.421875 
Q 18.84375 -1.421875 12.171875 6.21875 
Q 5.515625 13.875 5.515625 27.296875 
Q 5.515625 40.765625 12.171875 48.375 
Q 18.84375 56 30.609375 56 
z
" id="DejaVuSans-6f"/>
      <path d="M 45.40625 27.984375 
Q 45.40625 37.75 41.375 43.109375 
Q 37.359375 48.484375 30.078125 48.484375 
Q 22.859375 48.484375 18.828125 43.109375 
Q 14.796875 37.75 14.796875 27.984375 
Q 14.796875 18.265625 18.828125 12.890625 
Q 22.859375 7.515625 30.078125 7.515625 
Q 37.359375 7.515625 41.375 12.890625 
Q 45.40625 18.265625 45.40625 27.984375 
z
M 54.390625 6.78125 
Q 54.390625 -7.171875 48.1875 -13.984375 
Q 42 -20.796875 29.203125 -20.796875 
Q 24.46875 -20.796875 20.265625 -20.09375 
Q 16.0625 -19.390625 12.109375 -17.921875 
L 12.109375 -9.1875 
Q 16.0625 -11.328125 19.921875 -12.34375 
Q 23.78125 -13.375 27.78125 -13.375 
Q 36.625 -13.375 41.015625 -8.765625 
Q 45.40625 -4.15625 45.40625 5.171875 
L 45.40625 9.625 
Q 42.625 4.78125 38.28125 2.390625 
Q 33.9375 0 27.875 0 
Q 17.828125 0 11.671875 7.65625 
Q 5.515625 15.328125 5.515625 27.984375 
Q 5.515625 40.671875 11.671875 48.328125 
Q 17.828125 56 27.875 56 
Q 33.9375 56 38.28125 53.609375 
Q 42.625 51.21875 45.40625 46.390625 
L 45.40625 54.6875 
L 54.390625 54.6875 
z
" id="DejaVuSans-67"/>
      <path d="M 12.40625 8.296875 
L 28.515625 8.296875 
L 28.515625 63.921875 
L 10.984375 60.40625 
L 10.984375 69.390625 
L 28.421875 72.90625 
L 38.28125 72.90625 
L 38.28125 8.296875 
L 54.390625 8.296875 
L 54.390625 0 
L 12.40625 0 
z
" id="DejaVuSans-31"/>
      <path d="M 31 75.875 
Q 24.46875 64.65625 21.28125 53.65625 
Q 18.109375 42.671875 18.109375 31.390625 
Q 18.109375 20.125 21.3125 9.0625 
Q 24.515625 -2 31 -13.1875 
L 23.1875 -13.1875 
Q 15.875 -1.703125 12.234375 9.375 
Q 8.59375 20.453125 8.59375 31.390625 
Q 8.59375 42.28125 12.203125 53.3125 
Q 15.828125 64.359375 23.1875 75.875 
z
" id="DejaVuSans-28"/>
      <path d="M 51.125 44 
L 36.921875 44 
L 32.8125 27.6875 
L 47.125 27.6875 
z
M 43.796875 71.78125 
L 38.71875 51.515625 
L 52.984375 51.515625 
L 58.109375 71.78125 
L 65.921875 71.78125 
L 60.890625 51.515625 
L 76.125 51.515625 
L 76.125 44 
L 58.984375 44 
L 54.984375 27.6875 
L 70.515625 27.6875 
L 70.515625 20.21875 
L 53.078125 20.21875 
L 48 0 
L 40.1875 0 
L 45.21875 20.21875 
L 30.90625 20.21875 
L 25.875 0 
L 18.015625 0 
L 23.09375 20.21875 
L 7.71875 20.21875 
L 7.71875 27.6875 
L 24.90625 27.6875 
L 29 44 
L 13.28125 44 
L 13.28125 51.515625 
L 30.90625 51.515625 
L 35.890625 71.78125 
z
" id="DejaVuSans-23"/>
      <path id="DejaVuSans-20"/>
      <path d="M 37.109375 75.984375 
L 37.109375 68.5 
L 28.515625 68.5 
Q 23.6875 68.5 21.796875 66.546875 
Q 19.921875 64.59375 19.921875 59.515625 
L 19.921875 54.6875 
L 34.71875 54.6875 
L 34.71875 47.703125 
L 19.921875 47.703125 
L 19.921875 0 
L 10.890625 0 
L 10.890625 47.703125 
L 2.296875 47.703125 
L 2.296875 54.6875 
L 10.890625 54.6875 
L 10.890625 58.5 
Q 10.890625 67.625 15.140625 71.796875 
Q 19.390625 75.984375 28.609375 75.984375 
z
" id="DejaVuSans-66"/>
      <path d="M 4.890625 31.390625 
L 31.203125 31.390625 
L 31.203125 23.390625 
L 4.890625 23.390625 
z
" id="DejaVuSans-2d"/>
      <path d="M 56.203125 29.59375 
L 56.203125 25.203125 
L 14.890625 25.203125 
Q 15.484375 15.921875 20.484375 11.0625 
Q 25.484375 6.203125 34.421875 6.203125 
Q 39.59375 6.203125 44.453125 7.46875 
Q 49.3125 8.734375 54.109375 11.28125 
L 54.109375 2.78125 
Q 49.265625 0.734375 44.1875 -0.34375 
Q 39.109375 -1.421875 33.890625 -1.421875 
Q 20.796875 -1.421875 13.15625 6.1875 
Q 5.515625 13.8125 5.515625 26.8125 
Q 5.515625 40.234375 12.765625 48.109375 
Q 20.015625 56 32.328125 56 
Q 43.359375 56 49.78125 48.890625 
Q 56.203125 41.796875 56.203125 29.59375 
z
M 47.21875 32.234375 
Q 47.125 39.59375 43.09375 43.984375 
Q 39.0625 48.390625 32.421875 48.390625 
Q 24.90625 48.390625 20.390625 44.140625 
Q 15.875 39.890625 15.1875 32.171875 
z
" id="DejaVuSans-65"/>
      <path d="M 2.984375 54.6875 
L 12.5 54.6875 
L 29.59375 8.796875 
L 46.6875 54.6875 
L 56.203125 54.6875 
L 35.6875 0 
L 23.484375 0 
z
" id="DejaVuSans-76"/>
      <path d="M 34.28125 27.484375 
Q 23.390625 27.484375 19.1875 25 
Q 14.984375 22.515625 14.984375 16.5 
Q 14.984375 11.71875 18.140625 8.90625 
Q 21.296875 6.109375 26.703125 6.109375 
Q 34.1875 6.109375 38.703125 11.40625 
Q 43.21875 16.703125 43.21875 25.484375 
L 43.21875 27.484375 
z
M 52.203125 31.203125 
L 52.203125 0 
L 43.21875 0 
L 43.21875 8.296875 
Q 40.140625 3.328125 35.546875 0.953125 
Q 30.953125 -1.421875 24.3125 -1.421875 
Q 15.921875 -1.421875 10.953125 3.296875 
Q 6 8.015625 6 15.921875 
Q 6 25.140625 12.171875 29.828125 
Q 18.359375 34.515625 30.609375 34.515625 
L 43.21875 34.515625 
L 43.21875 35.40625 
Q 43.21875 41.609375 39.140625 45 
Q 35.0625 48.390625 27.6875 48.390625 
Q 23 48.390625 18.546875 47.265625 
Q 14.109375 46.140625 10.015625 43.890625 
L 10.015625 52.203125 
Q 14.9375 54.109375 19.578125 55.046875 
Q 24.21875 56 28.609375 56 
Q 40.484375 56 46.34375 49.84375 
Q 52.203125 43.703125 52.203125 31.203125 
z
" id="DejaVuSans-61"/>
      <path d="M 44.28125 53.078125 
L 44.28125 44.578125 
Q 40.484375 46.53125 36.375 47.5 
Q 32.28125 48.484375 27.875 48.484375 
Q 21.1875 48.484375 17.84375 46.4375 
Q 14.5 44.390625 14.5 40.28125 
Q 14.5 37.15625 16.890625 35.375 
Q 19.28125 33.59375 26.515625 31.984375 
L 29.59375 31.296875 
Q 39.15625 29.25 43.1875 25.515625 
Q 47.21875 21.78125 47.21875 15.09375 
Q 47.21875 7.46875 41.1875 3.015625 
Q 35.15625 -1.421875 24.609375 -1.421875 
Q 20.21875 -1.421875 15.453125 -0.5625 
Q 10.6875 0.296875 5.421875 2 
L 5.421875 11.28125 
Q 10.40625 8.6875 15.234375 7.390625 
Q 20.0625 6.109375 24.8125 6.109375 
Q 31.15625 6.109375 34.5625 8.28125 
Q 37.984375 10.453125 37.984375 14.40625 
Q 37.984375 18.0625 35.515625 20.015625 
Q 33.0625 21.96875 24.703125 23.78125 
L 21.578125 24.515625 
Q 13.234375 26.265625 9.515625 29.90625 
Q 5.8125 33.546875 5.8125 39.890625 
Q 5.8125 47.609375 11.28125 51.796875 
Q 16.75 56 26.8125 56 
Q 31.78125 56 36.171875 55.265625 
Q 40.578125 54.546875 44.28125 53.078125 
z
" id="DejaVuSans-73"/>
      <path d="M 25.390625 72.90625 
L 33.6875 72.90625 
L 8.296875 -9.28125 
L 0 -9.28125 
z
" id="DejaVuSans-2f"/>
      <path d="M 45.40625 46.390625 
L 45.40625 75.984375 
L 54.390625 75.984375 
L 54.390625 0 
L 45.40625 0 
L 45.40625 8.203125 
Q 42.578125 3.328125 38.25 0.953125 
Q 33.9375 -1.421875 27.875 -1.421875 
Q 17.96875 -1.421875 11.734375 6.484375 
Q 5.515625 14.40625 5.515625 27.296875 
Q 5.515625 40.1875 11.734375 48.09375 
Q 17.96875 56 27.875 56 
Q 33.9375 56 38.25 53.625 
Q 42.578125 51.265625 45.40625 46.390625 
z
M 14.796875 27.296875 
Q 14.796875 17.390625 18.875 11.75 
Q 22.953125 6.109375 30.078125 6.109375 
Q 37.203125 6.109375 41.296875 11.75 
Q 45.40625 17.390625 45.40625 27.296875 
Q 45.40625 37.203125 41.296875 42.84375 
Q 37.203125 48.484375 30.078125 48.484375 
Q 22.953125 48.484375 18.875 42.84375 
Q 14.796875 37.203125 14.796875 27.296875 
z
" id="DejaVuSans-64"/>
      <path d="M 9.421875 54.6875 
L 18.40625 54.6875 
L 18.40625 0 
L 9.421875 0 
z
M 9.421875 75.984375 
L 18.40625 75.984375 
L 18.40625 64.59375 
L 9.421875 64.59375 
z
" id="DejaVuSans-69"/>
      <path d="M 52 44.1875 
Q 55.375 50.25 60.0625 53.125 
Q 64.75 56 71.09375 56 
Q 79.640625 56 84.28125 50.015625 
Q 88.921875 44.046875 88.921875 33.015625 
L 88.921875 0 
L 79.890625 0 
L 79.890625 32.71875 
Q 79.890625 40.578125 77.09375 44.375 
Q 74.3125 48.1875 68.609375 48.1875 
Q 61.625 48.1875 57.5625 43.546875 
Q 53.515625 38.921875 53.515625 30.90625 
L 53.515625 0 
L 44.484375 0 
L 44.484375 32.71875 
Q 44.484375 40.625 41.703125 44.40625 
Q 38.921875 48.1875 33.109375 48.1875 
Q 26.21875 48.1875 22.15625 43.53125 
Q 18.109375 38.875 18.109375 30.90625 
L 18.109375 0 
L 9.078125 0 
L 9.078125 54.6875 
L 18.109375 54.6875 
L 18.109375 46.1875 
Q 21.1875 51.21875 25.484375 53.609375 
Q 29.78125 56 35.6875 56 
Q 41.65625 56 45.828125 52.96875 
Q 50 49.953125 52 44.1875 
z
" id="DejaVuSans-6d"/>
      <path d="M 54.890625 33.015625 
L 54.890625 0 
L 45.90625 0 
L 45.90625 32.71875 
Q 45.90625 40.484375 42.875 44.328125 
Q 39.84375 48.1875 33.796875 48.1875 
Q 26.515625 48.1875 22.3125 43.546875 
Q 18.109375 38.921875 18.109375 30.90625 
L 18.109375 0 
L 9.078125 0 
L 9.078125 54.6875 
L 18.109375 54.6875 
L 18.109375 46.1875 
Q 21.34375 51.125 25.703125 53.5625 
Q 30.078125 56 35.796875 56 
Q 45.21875 56 50.046875 50.171875 
Q 54.890625 44.34375 54.890625 33.015625 
z
" id="DejaVuSans-6e"/>
      <path d="M 8.015625 75.875 
L 15.828125 75.875 
Q 23.140625 64.359375 26.78125 53.3125 
Q 30.421875 42.28125 30.421875 31.390625 
Q 30.421875 20.453125 26.78125 9.375 
Q 23.140625 -1.703125 15.828125 -13.1875 
L 8.015625 -13.1875 
Q 14.5 -2 17.703125 9.0625 
Q 20.90625 20.125 20.90625 31.390625 
Q 20.90625 42.671875 17.703125 53.65625 
Q 14.5 64.65625 8.015625 75.875 
z
" id="DejaVuSans-29"/>
     </defs>
     <g transform="translate(73.803219 338.153594)scale(0.17 -0.17)">
      <use xlink:href="#DejaVuSans-6c"/>
      <use x="27.783203" xlink:href="#DejaVuSans-6f"/>
      <use x="88.964844" xlink:href="#DejaVuSans-67"/>
      <use x="152.441406" xlink:href="#DejaVuSans-31"/>
      <use x="216.064453" xlink:href="#DejaVuSans-30"/>
      <use x="279.6875" xlink:href="#DejaVuSans-28"/>
      <use x="318.701172" xlink:href="#DejaVuSans-23"/>
      <use x="402.490234" xlink:href="#DejaVuSans-20"/>
      <use x="434.277344" xlink:href="#DejaVuSans-66"/>
      <use x="469.404297" xlink:href="#DejaVuSans-2d"/>
      <use x="505.488281" xlink:href="#DejaVuSans-65"/>
      <use x="567.011719" xlink:href="#DejaVuSans-76"/>
      <use x="626.191406" xlink:href="#DejaVuSans-61"/>
      <use x="687.470703" xlink:href="#DejaVuSans-6c"/>
      <use x="715.253906" xlink:href="#DejaVuSans-73"/>
      <use x="767.353516" xlink:href="#DejaVuSans-20"/>
      <use x="799.140625" xlink:href="#DejaVuSans-2f"/>
      <use x="832.832031" xlink:href="#DejaVuSans-20"/>
      <use x="864.619141" xlink:href="#DejaVuSans-64"/>
      <use x="928.095703" xlink:href="#DejaVuSans-69"/>
      <use x="955.878906" xlink:href="#DejaVuSans-6d"/>
      <use x="1053.291016" xlink:href="#DejaVuSans-65"/>
      <use x="1114.814453" xlink:href="#DejaVuSans-6e"/>
      <use x="1178.193359" xlink:href="#DejaVuSans-73"/>
      <use x="1230.292969" xlink:href="#DejaVuSans-69"/>
      <use x="1258.076172" xlink:href="#DejaVuSans-6f"/>
      <use x="1319.257812" xlink:href="#DejaVuSans-6e"/>
      <use x="1382.636719" xlink:href="#DejaVuSans-29"/>
     </g>
    </g>
   </g>
   <g id="matplotlib.axis_2">
    <g id="ytick_1">
     <g id="line2d_29">
      <path clip-path="url(#pe6e07e1094)" d="M 56.12 294.88 
L 333.168 294.88 
" style="fill:none;stroke:#b0b0b0;stroke-linecap:square;stroke-width:0.8;"/>
     </g>
     <g id="line2d_30">
      <defs>
       <path d="M 0 0 
L -3.5 0 
" id="m16d8f8377b" style="stroke:#000000;stroke-width:0.8;"/>
      </defs>
      <g>
       <use style="stroke:#000000;stroke-width:0.8;" x="56.12" xlink:href="#m16d8f8377b" y="294.88"/>
      </g>
     </g>
     <g id="text_6">
      <!-- 0.0 -->
      <defs>
       <path d="M 10.6875 12.40625 
L 21 12.40625 
L 21 0 
L 10.6875 0 
z
" id="DejaVuSans-2e"/>
      </defs>
      <g transform="translate(23.675 300.95875)scale(0.16 -0.16)">
       <use xlink:href="#DejaVuSans-30"/>
       <use x="63.623047" xlink:href="#DejaVuSans-2e"/>
       <use x="95.410156" xlink:href="#DejaVuSans-30"/>
      </g>
     </g>
    </g>
    <g id="ytick_2">
     <g id="line2d_31">
      <path clip-path="url(#pe6e07e1094)" d="M 56.12 241.406733 
L 333.168 241.406733 
" style="fill:none;stroke:#b0b0b0;stroke-linecap:square;stroke-width:0.8;"/>
     </g>
     <g id="line2d_32">
      <g>
       <use style="stroke:#000000;stroke-width:0.8;" x="56.12" xlink:href="#m16d8f8377b" y="241.406733"/>
      </g>
     </g>
     <g id="text_7">
      <!-- 0.2 -->
      <g transform="translate(23.675 247.485483)scale(0.16 -0.16)">
       <use xlink:href="#DejaVuSans-30"/>
       <use x="63.623047" xlink:href="#DejaVuSans-2e"/>
       <use x="95.410156" xlink:href="#DejaVuSans-32"/>
      </g>
     </g>
    </g>
    <g id="ytick_3">
     <g id="line2d_33">
      <path clip-path="url(#pe6e07e1094)" d="M 56.12 187.933465 
L 333.168 187.933465 
" style="fill:none;stroke:#b0b0b0;stroke-linecap:square;stroke-width:0.8;"/>
     </g>
     <g id="line2d_34">
      <g>
       <use style="stroke:#000000;stroke-width:0.8;" x="56.12" xlink:href="#m16d8f8377b" y="187.933465"/>
      </g>
     </g>
     <g id="text_8">
      <!-- 0.4 -->
      <g transform="translate(23.675 194.012215)scale(0.16 -0.16)">
       <use xlink:href="#DejaVuSans-30"/>
       <use x="63.623047" xlink:href="#DejaVuSans-2e"/>
       <use x="95.410156" xlink:href="#DejaVuSans-34"/>
      </g>
     </g>
    </g>
    <g id="ytick_4">
     <g id="line2d_35">
      <path clip-path="url(#pe6e07e1094)" d="M 56.12 134.460198 
L 333.168 134.460198 
" style="fill:none;stroke:#b0b0b0;stroke-linecap:square;stroke-width:0.8;"/>
     </g>
     <g id="line2d_36">
      <g>
       <use style="stroke:#000000;stroke-width:0.8;" x="56.12" xlink:href="#m16d8f8377b" y="134.460198"/>
      </g>
     </g>
     <g id="text_9">
      <!-- 0.6 -->
      <g transform="translate(23.675 140.538948)scale(0.16 -0.16)">
       <use xlink:href="#DejaVuSans-30"/>
       <use x="63.623047" xlink:href="#DejaVuSans-2e"/>
       <use x="95.410156" xlink:href="#DejaVuSans-36"/>
      </g>
     </g>
    </g>
    <g id="ytick_5">
     <g id="line2d_37">
      <path clip-path="url(#pe6e07e1094)" d="M 56.12 80.986931 
L 333.168 80.986931 
" style="fill:none;stroke:#b0b0b0;stroke-linecap:square;stroke-width:0.8;"/>
     </g>
     <g id="line2d_38">
      <g>
       <use style="stroke:#000000;stroke-width:0.8;" x="56.12" xlink:href="#m16d8f8377b" y="80.986931"/>
      </g>
     </g>
     <g id="text_10">
      <!-- 0.8 -->
      <defs>
       <path d="M 31.78125 34.625 
Q 24.75 34.625 20.71875 30.859375 
Q 16.703125 27.09375 16.703125 20.515625 
Q 16.703125 13.921875 20.71875 10.15625 
Q 24.75 6.390625 31.78125 6.390625 
Q 38.8125 6.390625 42.859375 10.171875 
Q 46.921875 13.96875 46.921875 20.515625 
Q 46.921875 27.09375 42.890625 30.859375 
Q 38.875 34.625 31.78125 34.625 
z
M 21.921875 38.8125 
Q 15.578125 40.375 12.03125 44.71875 
Q 8.5 49.078125 8.5 55.328125 
Q 8.5 64.0625 14.71875 69.140625 
Q 20.953125 74.21875 31.78125 74.21875 
Q 42.671875 74.21875 48.875 69.140625 
Q 55.078125 64.0625 55.078125 55.328125 
Q 55.078125 49.078125 51.53125 44.71875 
Q 48 40.375 41.703125 38.8125 
Q 48.828125 37.15625 52.796875 32.3125 
Q 56.78125 27.484375 56.78125 20.515625 
Q 56.78125 9.90625 50.3125 4.234375 
Q 43.84375 -1.421875 31.78125 -1.421875 
Q 19.734375 -1.421875 13.25 4.234375 
Q 6.78125 9.90625 6.78125 20.515625 
Q 6.78125 27.484375 10.78125 32.3125 
Q 14.796875 37.15625 21.921875 38.8125 
z
M 18.3125 54.390625 
Q 18.3125 48.734375 21.84375 45.5625 
Q 25.390625 42.390625 31.78125 42.390625 
Q 38.140625 42.390625 41.71875 45.5625 
Q 45.3125 48.734375 45.3125 54.390625 
Q 45.3125 60.0625 41.71875 63.234375 
Q 38.140625 66.40625 31.78125 66.40625 
Q 25.390625 66.40625 21.84375 63.234375 
Q 18.3125 60.0625 18.3125 54.390625 
z
" id="DejaVuSans-38"/>
      </defs>
      <g transform="translate(23.675 87.065681)scale(0.16 -0.16)">
       <use xlink:href="#DejaVuSans-30"/>
       <use x="63.623047" xlink:href="#DejaVuSans-2e"/>
       <use x="95.410156" xlink:href="#DejaVuSans-38"/>
      </g>
     </g>
    </g>
    <g id="ytick_6">
     <g id="line2d_39">
      <path clip-path="url(#pe6e07e1094)" d="M 56.12 27.513663 
L 333.168 27.513663 
" style="fill:none;stroke:#b0b0b0;stroke-linecap:square;stroke-width:0.8;"/>
     </g>
     <g id="line2d_40">
      <g>
       <use style="stroke:#000000;stroke-width:0.8;" x="56.12" xlink:href="#m16d8f8377b" y="27.513663"/>
      </g>
     </g>
     <g id="text_11">
      <!-- 1.0 -->
      <g transform="translate(23.675 33.592413)scale(0.16 -0.16)">
       <use xlink:href="#DejaVuSans-31"/>
       <use x="63.623047" xlink:href="#DejaVuSans-2e"/>
       <use x="95.410156" xlink:href="#DejaVuSans-30"/>
      </g>
     </g>
    </g>
    <g id="text_12">
     <!-- Fraction of function,target pairs -->
     <defs>
      <path d="M 9.8125 72.90625 
L 51.703125 72.90625 
L 51.703125 64.59375 
L 19.671875 64.59375 
L 19.671875 43.109375 
L 48.578125 43.109375 
L 48.578125 34.8125 
L 19.671875 34.8125 
L 19.671875 0 
L 9.8125 0 
z
" id="DejaVuSans-46"/>
      <path d="M 41.109375 46.296875 
Q 39.59375 47.171875 37.8125 47.578125 
Q 36.03125 48 33.890625 48 
Q 26.265625 48 22.1875 43.046875 
Q 18.109375 38.09375 18.109375 28.8125 
L 18.109375 0 
L 9.078125 0 
L 9.078125 54.6875 
L 18.109375 54.6875 
L 18.109375 46.1875 
Q 20.953125 51.171875 25.484375 53.578125 
Q 30.03125 56 36.53125 56 
Q 37.453125 56 38.578125 55.875 
Q 39.703125 55.765625 41.0625 55.515625 
z
" id="DejaVuSans-72"/>
      <path d="M 48.78125 52.59375 
L 48.78125 44.1875 
Q 44.96875 46.296875 41.140625 47.34375 
Q 37.3125 48.390625 33.40625 48.390625 
Q 24.65625 48.390625 19.8125 42.84375 
Q 14.984375 37.3125 14.984375 27.296875 
Q 14.984375 17.28125 19.8125 11.734375 
Q 24.65625 6.203125 33.40625 6.203125 
Q 37.3125 6.203125 41.140625 7.25 
Q 44.96875 8.296875 48.78125 10.40625 
L 48.78125 2.09375 
Q 45.015625 0.34375 40.984375 -0.53125 
Q 36.96875 -1.421875 32.421875 -1.421875 
Q 20.0625 -1.421875 12.78125 6.34375 
Q 5.515625 14.109375 5.515625 27.296875 
Q 5.515625 40.671875 12.859375 48.328125 
Q 20.21875 56 33.015625 56 
Q 37.15625 56 41.109375 55.140625 
Q 45.0625 54.296875 48.78125 52.59375 
z
" id="DejaVuSans-63"/>
      <path d="M 18.3125 70.21875 
L 18.3125 54.6875 
L 36.8125 54.6875 
L 36.8125 47.703125 
L 18.3125 47.703125 
L 18.3125 18.015625 
Q 18.3125 11.328125 20.140625 9.421875 
Q 21.96875 7.515625 27.59375 7.515625 
L 36.8125 7.515625 
L 36.8125 0 
L 27.59375 0 
Q 17.1875 0 13.234375 3.875 
Q 9.28125 7.765625 9.28125 18.015625 
L 9.28125 47.703125 
L 2.6875 47.703125 
L 2.6875 54.6875 
L 9.28125 54.6875 
L 9.28125 70.21875 
z
" id="DejaVuSans-74"/>
      <path d="M 8.5 21.578125 
L 8.5 54.6875 
L 17.484375 54.6875 
L 17.484375 21.921875 
Q 17.484375 14.15625 20.5 10.265625 
Q 23.53125 6.390625 29.59375 6.390625 
Q 36.859375 6.390625 41.078125 11.03125 
Q 45.3125 15.671875 45.3125 23.6875 
L 45.3125 54.6875 
L 54.296875 54.6875 
L 54.296875 0 
L 45.3125 0 
L 45.3125 8.40625 
Q 42.046875 3.421875 37.71875 1 
Q 33.40625 -1.421875 27.6875 -1.421875 
Q 18.265625 -1.421875 13.375 4.4375 
Q 8.5 10.296875 8.5 21.578125 
z
M 31.109375 56 
z
" id="DejaVuSans-75"/>
      <path d="M 11.71875 12.40625 
L 22.015625 12.40625 
L 22.015625 4 
L 14.015625 -11.625 
L 7.71875 -11.625 
L 11.71875 4 
z
" id="DejaVuSans-2c"/>
      <path d="M 18.109375 8.203125 
L 18.109375 -20.796875 
L 9.078125 -20.796875 
L 9.078125 54.6875 
L 18.109375 54.6875 
L 18.109375 46.390625 
Q 20.953125 51.265625 25.265625 53.625 
Q 29.59375 56 35.59375 56 
Q 45.5625 56 51.78125 48.09375 
Q 58.015625 40.1875 58.015625 27.296875 
Q 58.015625 14.40625 51.78125 6.484375 
Q 45.5625 -1.421875 35.59375 -1.421875 
Q 29.59375 -1.421875 25.265625 0.953125 
Q 20.953125 3.328125 18.109375 8.203125 
z
M 48.6875 27.296875 
Q 48.6875 37.203125 44.609375 42.84375 
Q 40.53125 48.484375 33.40625 48.484375 
Q 26.265625 48.484375 22.1875 42.84375 
Q 18.109375 37.203125 18.109375 27.296875 
Q 18.109375 17.390625 22.1875 11.75 
Q 26.265625 6.109375 33.40625 6.109375 
Q 40.53125 6.109375 44.609375 11.75 
Q 48.6875 17.390625 48.6875 27.296875 
z
" id="DejaVuSans-70"/>
     </defs>
     <g transform="translate(16.139531 294.999375)rotate(-90)scale(0.17 -0.17)">
      <use xlink:href="#DejaVuSans-46"/>
      <use x="57.410156" xlink:href="#DejaVuSans-72"/>
      <use x="98.523438" xlink:href="#DejaVuSans-61"/>
      <use x="159.802734" xlink:href="#DejaVuSans-63"/>
      <use x="214.783203" xlink:href="#DejaVuSans-74"/>
      <use x="253.992188" xlink:href="#DejaVuSans-69"/>
      <use x="281.775391" xlink:href="#DejaVuSans-6f"/>
      <use x="342.957031" xlink:href="#DejaVuSans-6e"/>
      <use x="406.335938" xlink:href="#DejaVuSans-20"/>
      <use x="438.123047" xlink:href="#DejaVuSans-6f"/>
      <use x="499.304688" xlink:href="#DejaVuSans-66"/>
      <use x="534.509766" xlink:href="#DejaVuSans-20"/>
      <use x="566.296875" xlink:href="#DejaVuSans-66"/>
      <use x="601.501953" xlink:href="#DejaVuSans-75"/>
      <use x="664.880859" xlink:href="#DejaVuSans-6e"/>
      <use x="728.259766" xlink:href="#DejaVuSans-63"/>
      <use x="783.240234" xlink:href="#DejaVuSans-74"/>
      <use x="822.449219" xlink:href="#DejaVuSans-69"/>
      <use x="850.232422" xlink:href="#DejaVuSans-6f"/>
      <use x="911.414062" xlink:href="#DejaVuSans-6e"/>
      <use x="974.792969" xlink:href="#DejaVuSans-2c"/>
      <use x="1006.580078" xlink:href="#DejaVuSans-74"/>
      <use x="1045.789062" xlink:href="#DejaVuSans-61"/>
      <use x="1107.068359" xlink:href="#DejaVuSans-72"/>
      <use x="1148.166016" xlink:href="#DejaVuSans-67"/>
      <use x="1211.642578" xlink:href="#DejaVuSans-65"/>
      <use x="1273.166016" xlink:href="#DejaVuSans-74"/>
      <use x="1312.375" xlink:href="#DejaVuSans-20"/>
      <use x="1344.162109" xlink:href="#DejaVuSans-70"/>
      <use x="1407.638672" xlink:href="#DejaVuSans-61"/>
      <use x="1468.917969" xlink:href="#DejaVuSans-69"/>
      <use x="1496.701172" xlink:href="#DejaVuSans-72"/>
      <use x="1537.814453" xlink:href="#DejaVuSans-73"/>
     </g>
    </g>
   </g>
   <g id="line2d_41">
    <defs>
     <path d="M 0 1.5 
C 0.397805 1.5 0.77937 1.341951 1.06066 1.06066 
C 1.341951 0.77937 1.5 0.397805 1.5 0 
C 1.5 -0.397805 1.341951 -0.77937 1.06066 -1.06066 
C 0.77937 -1.341951 0.397805 -1.5 0 -1.5 
C -0.397805 -1.5 -0.77937 -1.341951 -1.06066 -1.06066 
C -1.341951 -0.77937 -1.5 -0.397805 -1.5 0 
C -1.5 0.397805 -1.341951 0.77937 -1.06066 1.06066 
C -0.77937 1.341951 -0.397805 1.5 0 1.5 
z
" id="ma29452bf62" style="stroke:#f5deb3;"/>
    </defs>
    <g>
     <use style="fill:#f5deb3;stroke:#f5deb3;" x="152.622886" xlink:href="#ma29452bf62" y="27.513663"/>
     <use style="fill:#f5deb3;stroke:#f5deb3;" x="152.622886" xlink:href="#ma29452bf62" y="27.513663"/>
    </g>
   </g>
   <g id="line2d_42">
    <defs>
     <path d="M 0 1.5 
C 0.397805 1.5 0.77937 1.341951 1.06066 1.06066 
C 1.341951 0.77937 1.5 0.397805 1.5 0 
C 1.5 -0.397805 1.341951 -0.77937 1.06066 -1.06066 
C 0.77937 -1.341951 0.397805 -1.5 0 -1.5 
C -0.397805 -1.5 -0.77937 -1.341951 -1.06066 -1.06066 
C -1.341951 -0.77937 -1.5 -0.397805 -1.5 0 
C -1.5 0.397805 -1.341951 0.77937 -1.06066 1.06066 
C -0.77937 1.341951 -0.397805 1.5 0 1.5 
z
" id="m2c88c033fb" style="stroke:#000080;"/>
    </defs>
    <g>
     <use style="fill:#000080;stroke:#000080;" x="261.491786" xlink:href="#m2c88c033fb" y="27.513663"/>
     <use style="fill:#000080;stroke:#000080;" x="261.491786" xlink:href="#m2c88c033fb" y="27.513663"/>
    </g>
   </g>
   <g id="line2d_43">
    <path d="M 158.117543 294.88 
L 158.117543 294.355752 
L 158.283618 294.355752 
L 158.283618 293.307257 
L 160.860123 293.307257 
L 160.860123 292.258761 
L 161.65621 292.258761 
L 161.65621 291.734514 
L 162.155172 291.734514 
L 162.155172 288.589027 
L 162.417054 288.589027 
L 162.417054 287.540532 
L 162.883215 287.540532 
L 162.883215 287.016284 
L 163.224722 287.016284 
L 163.224722 286.492036 
L 163.702678 286.492036 
L 163.735533 283.870798 
L 164.071407 283.870798 
L 164.071407 282.822302 
L 164.220967 282.822302 
L 164.220967 281.249559 
L 164.369237 281.249559 
L 164.369237 280.725312 
L 164.59968 280.725312 
L 164.59968 279.676816 
L 165.442279 279.676816 
L 165.442279 278.104073 
L 165.57059 278.104073 
L 165.57059 277.055578 
L 166.330379 277.055578 
L 166.330379 276.53133 
L 166.452251 276.53133 
L 166.452251 275.482834 
L 166.638076 275.482834 
L 166.638076 273.910091 
L 166.922192 273.910091 
L 166.922192 273.385844 
L 167.112024 273.385844 
L 167.112024 270.240357 
L 167.264176 270.240357 
L 167.264176 269.716109 
L 167.590748 269.716109 
L 167.590748 269.191862 
L 168.724103 269.191862 
L 168.724103 268.667614 
L 168.88703 268.667614 
L 168.919431 265.522128 
L 169.311462 265.522128 
L 169.366744 264.473632 
L 169.917634 264.473632 
L 169.917634 262.900889 
L 170.354912 262.900889 
L 170.354912 261.852394 
L 170.569449 261.852394 
L 170.569449 260.279651 
L 171.775915 260.279651 
L 171.775915 259.755403 
L 171.892032 259.755403 
L 171.905641 258.706907 
L 174.419679 258.706907 
L 174.419679 258.18266 
L 174.92918 258.18266 
L 174.951984 255.561421 
L 176.617665 255.561421 
L 176.617665 255.037173 
L 180.886203 255.037173 
L 180.886203 253.988678 
L 181.543123 253.988678 
L 181.543123 253.46443 
L 183.02643 253.46443 
L 183.02643 252.940182 
L 183.382446 252.940182 
L 183.382446 252.415935 
L 183.642124 252.415935 
L 183.666162 250.318944 
L 183.935139 250.318944 
L 183.935139 249.794696 
L 184.31601 249.794696 
L 184.319314 248.221953 
L 184.431271 248.221953 
L 184.529455 246.64921 
L 184.64654 246.64921 
L 184.6595 243.503724 
L 184.775705 243.503724 
L 184.775705 242.979476 
L 184.967652 242.979476 
L 185.047001 241.406733 
L 185.110218 241.406733 
L 185.144888 238.785494 
L 185.285998 238.785494 
L 185.373219 236.688503 
L 185.558643 236.688503 
L 185.558643 234.067265 
L 185.732962 234.067265 
L 185.732962 233.543017 
L 185.980676 233.543017 
L 185.980676 233.018769 
L 186.248509 233.018769 
L 186.301579 231.970274 
L 186.619491 231.970274 
L 186.619491 231.446026 
L 186.940141 231.446026 
L 186.940141 229.873283 
L 187.324401 229.873283 
L 187.324401 228.30054 
L 187.564035 228.30054 
L 187.624107 226.203549 
L 187.683969 226.203549 
L 187.683969 225.679301 
L 187.889177 225.679301 
L 187.96951 223.058063 
L 188.144933 223.058063 
L 188.247757 222.009567 
L 188.459368 222.009567 
L 188.524157 220.436824 
L 188.711957 220.436824 
L 188.711957 219.912576 
L 188.928073 219.912576 
L 188.948274 218.339833 
L 189.186365 218.339833 
L 189.275734 215.718594 
L 189.307892 215.718594 
L 189.381875 214.670099 
L 189.553273 214.670099 
L 189.631061 212.04886 
L 189.672243 212.04886 
L 189.672243 211.524613 
L 189.859941 211.524613 
L 189.953027 208.379126 
L 189.988695 208.379126 
L 189.988695 204.185145 
L 190.161233 204.185145 
L 190.266735 201.039658 
L 190.290093 201.039658 
L 190.290093 200.515411 
L 190.441146 200.515411 
L 190.441146 199.466915 
L 190.616096 199.466915 
L 190.616096 197.894172 
L 191.123838 197.894172 
L 191.123838 197.369924 
L 191.344774 197.369924 
L 191.344774 196.321429 
L 191.586733 196.321429 
L 191.586733 195.797181 
L 191.731149 195.797181 
L 191.731149 195.272933 
L 191.925373 195.272933 
L 192.005833 193.70019 
L 192.20326 193.70019 
L 192.242892 192.127447 
L 192.350892 192.127447 
L 192.350892 191.603199 
L 192.705394 191.603199 
L 192.707422 190.030456 
L 192.826655 190.030456 
L 192.826655 189.506209 
L 192.957063 189.506209 
L 192.957063 188.457713 
L 193.167627 188.457713 
L 193.201158 186.88497 
L 193.480655 186.88497 
L 193.565747 181.642493 
L 193.654259 181.642493 
L 193.654259 181.118245 
L 193.801408 181.118245 
L 193.801408 180.593997 
L 193.941647 180.593997 
L 193.962396 179.021254 
L 194.146153 179.021254 
L 194.146153 178.497006 
L 194.407139 178.497006 
L 194.504224 177.448511 
L 194.740061 177.448511 
L 194.815568 175.875768 
L 194.876451 175.875768 
L 194.919298 174.303025 
L 195.063122 174.303025 
L 195.137226 171.157538 
L 195.235537 171.157538 
L 195.235537 170.633291 
L 195.380222 170.633291 
L 195.43395 169.584795 
L 195.58899 169.584795 
L 195.58899 169.060547 
L 199.018121 169.060547 
L 199.018121 168.5363 
L 199.300948 168.5363 
L 199.300948 168.012052 
L 200.209258 168.012052 
L 200.2145 166.963557 
L 200.61213 166.963557 
L 200.61213 165.915061 
L 202.863765 165.915061 
L 202.916472 164.866566 
L 203.088048 164.866566 
L 203.148912 163.81807 
L 203.229364 163.81807 
L 203.229364 163.293823 
L 203.446786 163.293823 
L 203.476074 161.721079 
L 203.68078 161.721079 
L 203.68078 161.196832 
L 204.036924 161.196832 
L 204.059988 159.624089 
L 204.165475 159.624089 
L 204.262038 157.527098 
L 204.297205 157.527098 
L 204.385839 154.905859 
L 204.411518 154.905859 
L 204.411518 154.381611 
L 204.827286 154.381611 
L 204.888294 151.760373 
L 204.954059 151.760373 
L 205.007681 149.663382 
L 205.079904 149.663382 
L 205.079904 149.139134 
L 205.272331 149.139134 
L 205.272331 148.614886 
L 205.556991 148.614886 
L 205.556991 148.090639 
L 205.706142 148.090639 
L 205.706142 147.042143 
L 205.818108 147.042143 
L 205.860616 144.420905 
L 206.037075 144.420905 
L 206.037075 143.896657 
L 206.195094 143.896657 
L 206.249598 141.275418 
L 206.333326 141.275418 
L 206.422128 140.226923 
L 206.553118 140.226923 
L 206.63358 138.65418 
L 206.891401 138.65418 
L 206.991513 136.557189 
L 207.239706 136.557189 
L 207.239706 136.032941 
L 207.569993 136.032941 
L 207.569993 134.984446 
L 210.025999 134.984446 
L 210.028961 133.93595 
L 211.791332 133.93595 
L 211.836706 132.363207 
L 211.911179 132.363207 
L 212.011736 130.266216 
L 212.145777 130.266216 
L 212.145777 129.741969 
L 212.265786 129.741969 
L 212.291764 128.693473 
L 212.388835 128.693473 
L 212.453246 127.12073 
L 212.509088 127.12073 
L 212.524461 125.547987 
L 212.713569 125.547987 
L 212.713569 125.023739 
L 212.89874 125.023739 
L 213.008021 120.30551 
L 213.097426 120.30551 
L 213.097426 119.781262 
L 213.279142 119.781262 
L 213.34336 118.208519 
L 213.437114 118.208519 
L 213.511025 115.58728 
L 213.658501 115.58728 
L 213.732662 114.014537 
L 213.868194 114.014537 
L 213.969734 111.917546 
L 214.178594 111.917546 
L 214.209386 110.869051 
L 214.328548 110.869051 
L 214.328548 110.344803 
L 214.45719 110.344803 
L 214.561577 109.296308 
L 217.583227 109.296308 
L 217.686428 107.723564 
L 217.785242 107.723564 
L 217.845011 106.675069 
L 217.946189 106.675069 
L 217.962062 105.626573 
L 218.088051 105.626573 
L 218.088051 105.102326 
L 218.279672 105.102326 
L 218.366486 103.005335 
L 218.431991 103.005335 
L 218.431991 101.956839 
L 218.61265 101.956839 
L 218.6817 100.384096 
L 218.736206 100.384096 
L 218.736206 98.287105 
L 218.911505 98.287105 
L 219.000465 97.23861 
L 219.030308 97.23861 
L 219.12738 95.665867 
L 219.182232 95.665867 
L 219.182232 95.141619 
L 219.310406 95.141619 
L 219.396472 92.520381 
L 219.517523 92.520381 
L 219.517523 91.996133 
L 220.435824 91.996133 
L 220.435824 91.471885 
L 221.707676 91.471885 
L 221.711428 90.42339 
L 221.8772 90.42339 
L 221.8772 89.899142 
L 222.114838 89.899142 
L 222.114838 89.374894 
L 222.276057 89.374894 
L 222.382461 86.229408 
L 222.40878 86.229408 
L 222.40878 84.656665 
L 222.55978 84.656665 
L 222.55978 84.132417 
L 222.942581 84.132417 
L 223.007417 82.559674 
L 223.15258 82.559674 
L 223.208723 81.511178 
L 223.328999 81.511178 
L 223.359704 80.462683 
L 225.011677 80.462683 
L 225.011677 79.938435 
L 225.168559 79.938435 
L 225.168559 79.414188 
L 225.438269 79.414188 
L 225.438269 78.88994 
L 225.643332 78.88994 
L 225.709462 77.841444 
L 225.935118 77.841444 
L 225.935118 77.317197 
L 226.089065 77.317197 
L 226.192285 75.220206 
L 226.214529 75.220206 
L 226.275337 73.647463 
L 226.335931 73.647463 
L 226.445946 72.074719 
L 227.355172 72.074719 
L 227.355172 71.550472 
L 227.948102 71.550472 
L 227.948102 71.026224 
L 228.280005 71.026224 
L 228.280005 70.501976 
L 228.412872 70.501976 
L 228.477278 67.35649 
L 228.676065 67.35649 
L 228.678567 65.783747 
L 228.800951 65.783747 
L 228.90816 61.589765 
L 228.948838 61.589765 
L 229.043135 60.017022 
L 230.478085 60.017022 
L 230.478085 59.492774 
L 230.844511 59.492774 
L 230.88306 57.395783 
L 231.002344 57.395783 
L 231.062548 54.774545 
L 231.14271 54.774545 
L 231.14271 54.250297 
L 231.44839 54.250297 
L 231.44839 53.201802 
L 232.903726 53.201802 
L 232.953344 52.153306 
L 233.132261 52.153306 
L 233.132261 51.629058 
L 233.26016 51.629058 
L 233.286391 50.580563 
L 234.774215 50.580563 
L 234.818724 49.532068 
L 235.043183 49.532068 
L 235.043183 49.00782 
L 235.184074 49.00782 
L 235.184074 48.483572 
L 236.48975 48.483572 
L 236.54033 47.435077 
L 236.694793 47.435077 
L 236.805683 45.862334 
L 236.881905 45.862334 
L 236.881905 45.338086 
L 238.167135 45.338086 
L 238.220199 44.28959 
L 238.423315 44.28959 
L 238.423315 43.765343 
L 239.431029 43.765343 
L 239.440795 42.716847 
L 239.546128 42.716847 
L 239.616037 41.668352 
L 239.697657 41.668352 
L 239.697657 41.144104 
L 240.835734 41.144104 
L 240.835734 40.619856 
L 242.108289 40.619856 
L 242.108289 40.095609 
L 243.221647 40.095609 
L 243.221647 39.571361 
L 244.314056 39.571361 
L 244.314056 39.047113 
L 245.226069 39.047113 
L 245.322559 36.950122 
L 247.845853 36.950122 
L 247.845853 36.425875 
L 248.738554 36.425875 
L 248.738554 35.901627 
L 249.507612 35.901627 
L 249.53789 34.853131 
L 250.167157 34.853131 
L 250.167157 34.328884 
L 251.00382 34.328884 
L 251.00382 33.804636 
L 251.601628 33.804636 
L 251.601628 32.756141 
L 252.305717 32.756141 
L 252.305717 32.231893 
L 254.700667 32.231893 
L 254.700667 31.707645 
L 255.247858 31.707645 
L 255.247858 31.183397 
L 256.261564 31.183397 
L 256.261564 30.65915 
L 257.248158 30.65915 
L 257.267464 29.610654 
L 257.702752 29.610654 
L 257.702752 29.086407 
L 259.492128 29.086407 
L 259.492128 28.562159 
L 259.932903 28.562159 
L 259.932903 28.037911 
L 261.491786 28.037911 
L 261.491786 27.513663 
L 333.168 27.513663 
L 333.168 27.513663 
" style="fill:none;stroke:#000080;stroke-linecap:square;stroke-width:1.5;"/>
   </g>
   <g id="line2d_44">
    <defs>
     <path d="M 0 6 
C 1.591219 6 3.117479 5.367802 4.242641 4.242641 
C 5.367802 3.117479 6 1.591219 6 0 
C 6 -1.591219 5.367802 -3.117479 4.242641 -4.242641 
C 3.117479 -5.367802 1.591219 -6 0 -6 
C -1.591219 -6 -3.117479 -5.367802 -4.242641 -4.242641 
C -5.367802 -3.117479 -6 -1.591219 -6 0 
C -6 1.591219 -5.367802 3.117479 -4.242641 4.242641 
C -3.117479 5.367802 -1.591219 6 0 6 
z
" id="m89f8c8ff79" style="stroke:#000080;stroke-width:1.5;"/>
    </defs>
    <g>
     <use style="fill-opacity:0;stroke:#000080;stroke-width:1.5;" x="219.517523" xlink:href="#m89f8c8ff79" y="92.520381"/>
     <use style="fill-opacity:0;stroke:#000080;stroke-width:1.5;" x="261.491786" xlink:href="#m89f8c8ff79" y="27.513663"/>
     <use style="fill-opacity:0;stroke:#000080;stroke-width:1.5;" x="261.491786" xlink:href="#m89f8c8ff79" y="27.513663"/>
     <use style="fill-opacity:0;stroke:#000080;stroke-width:1.5;" x="333.168" xlink:href="#m89f8c8ff79" y="27.513663"/>
    </g>
   </g>
   <g id="line2d_45">
    <path style="fill:none;stroke:#000080;stroke-linecap:square;stroke-width:1.5;"/>
    <g/>
   </g>
   <g id="line2d_46">
    <path clip-path="url(#pe6e07e1094)" d="M 195.722236 169.060547 
" style="fill:none;stroke:#000080;stroke-linecap:square;stroke-width:1.5;"/>
    <defs>
     <path d="M -12 12 
L 12 -12 
M -12 -12 
L 12 12 
" id="m58a37c79b6" style="stroke:#000080;"/>
    </defs>
    <g clip-path="url(#pe6e07e1094)">
     <use style="fill:#000080;stroke:#000080;" x="195.722236" xlink:href="#m58a37c79b6" y="169.060547"/>
    </g>
   </g>
   <g id="line2d_47">
    <defs>
     <path d="M 0 1.5 
C 0.397805 1.5 0.77937 1.341951 1.06066 1.06066 
C 1.341951 0.77937 1.5 0.397805 1.5 0 
C 1.5 -0.397805 1.341951 -0.77937 1.06066 -1.06066 
C 0.77937 -1.341951 0.397805 -1.5 0 -1.5 
C -0.397805 -1.5 -0.77937 -1.341951 -1.06066 -1.06066 
C -1.341951 -0.77937 -1.5 -0.397805 -1.5 0 
C -1.5 0.397805 -1.341951 0.77937 -1.06066 1.06066 
C -0.77937 1.341951 -0.397805 1.5 0 1.5 
z
" id="m78af836acb" style="stroke:#ff00ff;"/>
    </defs>
    <g>
     <use style="fill:#ff00ff;stroke:#ff00ff;" x="266.640165" xlink:href="#m78af836acb" y="100.908344"/>
     <use style="fill:#ff00ff;stroke:#ff00ff;" x="266.640165" xlink:href="#m78af836acb" y="100.908344"/>
    </g>
   </g>
   <g id="line2d_48">
    <path d="M 154.575326 294.88 
L 154.575326 294.355752 
L 155.919572 294.355752 
L 155.919572 293.831505 
L 156.395648 293.831505 
L 156.395648 291.734514 
L 156.529282 291.734514 
L 156.529282 291.210266 
L 156.711349 291.210266 
L 156.711349 290.686018 
L 156.907793 290.686018 
L 156.956555 289.113275 
L 159.018915 289.113275 
L 159.018915 288.589027 
L 159.3186 288.589027 
L 159.3186 287.540532 
L 159.613149 287.540532 
L 159.613149 287.016284 
L 159.834228 287.016284 
L 159.834228 280.725312 
L 160.066049 280.725312 
L 160.160604 277.055578 
L 160.374795 277.055578 
L 160.374795 275.482834 
L 160.560048 275.482834 
L 160.625729 274.434339 
L 161.901416 274.434339 
L 161.901416 273.385844 
L 162.226991 273.385844 
L 162.226991 272.861596 
L 162.952061 272.861596 
L 163.054817 269.191862 
L 163.066196 269.191862 
L 163.066196 268.667614 
L 163.415273 268.667614 
L 163.415273 267.619119 
L 163.537454 267.619119 
L 163.537454 267.094871 
L 163.658773 267.094871 
L 163.658773 266.570623 
L 164.017676 266.570623 
L 164.082133 263.949385 
L 164.55801 263.949385 
L 164.578857 262.376641 
L 165.212894 262.376641 
L 165.263022 260.279651 
L 166.730241 260.279651 
L 166.730241 259.231155 
L 166.994756 259.231155 
L 166.994756 258.706907 
L 167.121011 258.706907 
L 167.138972 257.134164 
L 167.945522 257.134164 
L 167.996832 256.085669 
L 168.200551 256.085669 
L 168.200551 255.037173 
L 168.781303 255.037173 
L 168.862689 253.988678 
L 169.327275 253.988678 
L 169.327275 253.46443 
L 170.759542 253.46443 
L 170.759542 251.891687 
L 175.446171 251.891687 
L 175.446171 251.367439 
L 175.627888 251.367439 
L 175.627888 250.843192 
L 179.70924 250.843192 
L 179.70924 250.318944 
L 180.548082 250.318944 
L 180.548082 249.794696 
L 182.597278 249.794696 
L 182.597278 249.270448 
L 182.965775 249.270448 
L 182.965775 248.746201 
L 183.305524 248.746201 
L 183.305524 247.697705 
L 183.989106 247.697705 
L 183.989106 247.173458 
L 184.64654 247.173458 
L 184.64654 246.64921 
L 184.96447 246.64921 
L 184.980372 245.076467 
L 185.351455 245.076467 
L 185.351455 244.552219 
L 186.263267 244.552219 
L 186.263267 244.027971 
L 186.809168 244.027971 
L 186.809168 243.503724 
L 187.6132 243.503724 
L 187.6132 242.979476 
L 188.632457 242.979476 
L 188.734969 241.93098 
L 189.354785 241.93098 
L 189.354785 241.406733 
L 189.686754 241.406733 
L 189.698838 240.358237 
L 190.151824 240.358237 
L 190.151824 239.83399 
L 190.378562 239.83399 
L 190.378562 238.785494 
L 190.659556 238.785494 
L 190.659556 238.261246 
L 191.077078 238.261246 
L 191.077078 237.212751 
L 192.961059 237.212751 
L 192.961059 236.688503 
L 193.242489 236.688503 
L 193.242489 235.640008 
L 193.550307 235.640008 
L 193.550307 235.11576 
L 193.935984 235.11576 
L 193.935984 234.591512 
L 194.311349 234.591512 
L 194.311349 234.067265 
L 194.495088 234.067265 
L 194.495088 233.543017 
L 194.680501 233.543017 
L 194.767066 230.921778 
L 197.730686 230.921778 
L 197.766984 228.30054 
L 198.103602 228.30054 
L 198.130248 227.252044 
L 198.400294 227.252044 
L 198.420668 224.106558 
L 198.734848 224.106558 
L 198.734848 223.58231 
L 198.879901 223.58231 
L 198.978743 222.533815 
L 200.329422 222.533815 
L 200.329422 222.009567 
L 202.064898 222.009567 
L 202.064898 221.485319 
L 202.415449 221.485319 
L 202.523475 220.436824 
L 202.974598 220.436824 
L 202.974598 219.912576 
L 203.221666 219.912576 
L 203.221666 219.388328 
L 204.16131 219.388328 
L 204.16131 218.339833 
L 204.454575 218.339833 
L 204.454575 217.815585 
L 205.29087 217.815585 
L 205.29087 217.291338 
L 205.68042 217.291338 
L 205.68042 216.76709 
L 205.860616 216.76709 
L 205.860616 216.242842 
L 206.441293 216.242842 
L 206.441293 215.718594 
L 206.584805 215.718594 
L 206.584805 215.194347 
L 206.945516 215.194347 
L 207.033862 214.145851 
L 207.165536 214.145851 
L 207.165536 212.573108 
L 208.900818 212.573108 
L 208.900818 212.04886 
L 209.287728 212.04886 
L 209.39406 211.000365 
L 209.538628 211.000365 
L 209.538628 210.476117 
L 211.773283 210.476117 
L 211.773283 209.95187 
L 212.115643 209.95187 
L 212.115643 209.427622 
L 212.576881 209.427622 
L 212.576881 208.903374 
L 212.819625 208.903374 
L 212.819625 207.854879 
L 212.941911 207.854879 
L 213.002418 204.709392 
L 213.078218 204.709392 
L 213.078218 204.185145 
L 213.192528 204.185145 
L 213.192528 203.660897 
L 213.442577 203.660897 
L 213.442577 202.612401 
L 214.030841 202.612401 
L 214.030841 202.088154 
L 214.206484 202.088154 
L 214.206484 201.563906 
L 214.321629 201.563906 
L 214.321629 201.039658 
L 215.314833 201.039658 
L 215.314833 200.515411 
L 215.436868 200.515411 
L 215.459012 198.942667 
L 215.551064 198.942667 
L 215.551064 198.41842 
L 215.724137 198.41842 
L 215.797328 197.369924 
L 216.282605 197.369924 
L 216.282605 196.321429 
L 217.510089 196.321429 
L 217.510089 195.797181 
L 217.628483 195.797181 
L 217.628483 194.224438 
L 218.033305 194.224438 
L 218.033305 193.70019 
L 218.228751 193.70019 
L 218.318107 191.603199 
L 218.362384 191.603199 
L 218.362384 191.078952 
L 218.501769 191.078952 
L 218.600515 189.506209 
L 219.252067 189.506209 
L 219.337994 187.409218 
L 220.386457 187.409218 
L 220.39618 186.360722 
L 221.519399 186.360722 
L 221.519399 185.836474 
L 221.743288 185.836474 
L 221.743288 185.312227 
L 222.44225 185.312227 
L 222.44225 184.263731 
L 222.918118 184.263731 
L 222.973287 183.215236 
L 223.113206 183.215236 
L 223.218348 180.06975 
L 224.011198 180.06975 
L 224.065918 179.021254 
L 224.245557 179.021254 
L 224.245557 178.497006 
L 225.122475 178.497006 
L 225.170707 177.448511 
L 225.379574 177.448511 
L 225.379574 175.875768 
L 225.708273 175.875768 
L 225.773265 174.827272 
L 225.827976 174.827272 
L 225.892518 172.206034 
L 226.130892 172.206034 
L 226.235015 170.633291 
L 226.321592 170.633291 
L 226.378592 168.5363 
L 228.012449 168.5363 
L 228.012449 168.012052 
L 228.476266 168.012052 
L 228.500799 166.963557 
L 228.633231 166.963557 
L 228.633231 166.439309 
L 228.975165 166.439309 
L 228.975165 165.390813 
L 229.628632 165.390813 
L 229.628632 164.866566 
L 230.462984 164.866566 
L 230.462984 164.342318 
L 230.907906 164.342318 
L 230.907906 163.81807 
L 231.037925 163.81807 
L 231.037925 163.293823 
L 231.173891 163.293823 
L 231.173891 162.769575 
L 231.338173 162.769575 
L 231.358946 161.721079 
L 231.96062 161.721079 
L 231.96062 161.196832 
L 232.537347 161.196832 
L 232.601776 159.624089 
L 232.6616 159.624089 
L 232.6616 159.099841 
L 232.914482 159.099841 
L 232.914482 158.575593 
L 233.261309 158.575593 
L 233.299969 157.00285 
L 233.376839 157.00285 
L 233.385972 155.430107 
L 234.716568 155.430107 
L 234.716568 154.905859 
L 234.834992 154.905859 
L 234.888584 153.857364 
L 234.959723 153.857364 
L 234.959723 152.808868 
L 235.130022 152.808868 
L 235.164532 151.760373 
L 236.211368 151.760373 
L 236.211368 151.236125 
L 236.356964 151.236125 
L 236.408734 150.18763 
L 236.516089 150.18763 
L 236.599284 148.614886 
L 236.752282 148.614886 
L 236.862648 144.945152 
L 237.334691 144.945152 
L 237.334691 144.420905 
L 237.873561 144.420905 
L 237.873561 143.896657 
L 237.985131 143.896657 
L 237.985131 143.372409 
L 238.263507 143.372409 
L 238.363757 141.275418 
L 239.357406 141.275418 
L 239.41416 139.702675 
L 239.469526 139.702675 
L 239.469526 139.178427 
L 239.679201 139.178427 
L 239.732274 137.605684 
L 240.145802 137.605684 
L 240.145802 137.081437 
L 240.668943 137.081437 
L 240.668943 135.508693 
L 241.024235 135.508693 
L 241.024235 134.984446 
L 242.021611 134.984446 
L 242.021611 134.460198 
L 242.179371 134.460198 
L 242.21412 132.363207 
L 243.058153 132.363207 
L 243.058153 131.838959 
L 243.234308 131.838959 
L 243.315949 129.741969 
L 243.95703 129.741969 
L 243.95703 129.217721 
L 244.119262 129.217721 
L 244.119262 128.693473 
L 244.284921 128.693473 
L 244.284921 128.169225 
L 244.678516 128.169225 
L 244.678516 127.644978 
L 245.105579 127.644978 
L 245.158403 126.596482 
L 245.309256 126.596482 
L 245.357289 125.547987 
L 245.963118 125.547987 
L 246.063122 124.499491 
L 246.100747 124.499491 
L 246.211144 122.4025 
L 246.284141 122.4025 
L 246.28908 120.829757 
L 246.946635 120.829757 
L 246.946635 120.30551 
L 247.943095 120.30551 
L 247.943095 119.781262 
L 248.635385 119.781262 
L 248.635385 119.257014 
L 248.807017 119.257014 
L 248.807017 118.732766 
L 249.416232 118.732766 
L 249.416232 118.208519 
L 250.309874 118.208519 
L 250.309874 117.160023 
L 250.914795 117.160023 
L 251.016851 116.111528 
L 251.546894 116.111528 
L 251.581643 115.063032 
L 251.659078 115.063032 
L 251.659078 114.538785 
L 252.196032 114.538785 
L 252.196032 114.014537 
L 252.807171 114.014537 
L 252.840937 112.966042 
L 252.955919 112.966042 
L 252.955919 112.441794 
L 254.00587 112.441794 
L 254.00587 111.917546 
L 254.153164 111.917546 
L 254.153164 111.393298 
L 254.575263 111.393298 
L 254.615967 108.77206 
L 255.113128 108.77206 
L 255.113128 108.247812 
L 255.267042 108.247812 
L 255.267042 107.723564 
L 255.709995 107.723564 
L 255.709995 107.199317 
L 256.165845 107.199317 
L 256.165845 106.675069 
L 256.464638 106.675069 
L 256.464638 106.150821 
L 257.176055 106.150821 
L 257.176055 105.626573 
L 258.202658 105.626573 
L 258.202658 105.102326 
L 259.830412 105.102326 
L 259.830412 104.578078 
L 260.293462 104.578078 
L 260.344552 103.529583 
L 263.286709 103.529583 
L 263.286709 103.005335 
L 263.573691 103.005335 
L 263.573691 102.481087 
L 263.865426 102.481087 
L 263.865426 101.956839 
L 264.271742 101.956839 
L 264.271742 101.432592 
L 266.640165 101.432592 
L 266.640165 100.908344 
L 333.168 100.908344 
L 333.168 100.908344 
" style="fill:none;stroke:#ff00ff;stroke-linecap:square;stroke-width:1.5;"/>
   </g>
   <g id="line2d_49">
    <defs>
     <path d="M -0 8.485281 
L 5.091169 0 
L 0 -8.485281 
L -5.091169 -0 
z
" id="m6cca613f0b" style="stroke:#ff00ff;stroke-linejoin:miter;stroke-width:1.5;"/>
    </defs>
    <g>
     <use style="fill-opacity:0;stroke:#ff00ff;stroke-linejoin:miter;stroke-width:1.5;" x="225.170707" xlink:href="#m6cca613f0b" y="177.448511"/>
     <use style="fill-opacity:0;stroke:#ff00ff;stroke-linejoin:miter;stroke-width:1.5;" x="266.640165" xlink:href="#m6cca613f0b" y="101.432592"/>
     <use style="fill-opacity:0;stroke:#ff00ff;stroke-linejoin:miter;stroke-width:1.5;" x="266.640165" xlink:href="#m6cca613f0b" y="100.908344"/>
     <use style="fill-opacity:0;stroke:#ff00ff;stroke-linejoin:miter;stroke-width:1.5;" x="333.168" xlink:href="#m6cca613f0b" y="100.908344"/>
    </g>
   </g>
   <g id="line2d_50">
    <path style="fill:none;stroke:#ff00ff;stroke-linecap:square;stroke-width:1.5;"/>
    <g/>
   </g>
   <g id="line2d_51">
    <path clip-path="url(#pe6e07e1094)" d="M 195.722236 230.921778 
" style="fill:none;stroke:#ff00ff;stroke-linecap:square;stroke-width:1.5;"/>
    <defs>
     <path d="M -12 12 
L 12 -12 
M -12 -12 
L 12 12 
" id="m49d312f47a" style="stroke:#ff00ff;"/>
    </defs>
    <g clip-path="url(#pe6e07e1094)">
     <use style="fill:#ff00ff;stroke:#ff00ff;" x="195.722236" xlink:href="#m49d312f47a" y="230.921778"/>
    </g>
   </g>
   <g id="line2d_52">
    <path d="M 333.168 100.908344 
L 363.64328 289.532673 
" style="fill:none;stroke:#ff00ff;stroke-linecap:square;stroke-width:1.5;"/>
    <g>
     <use style="fill-opacity:0;stroke:#ff00ff;stroke-linejoin:miter;stroke-width:1.5;" x="333.168" xlink:href="#m6cca613f0b" y="100.908344"/>
     <use style="fill-opacity:0;stroke:#ff00ff;stroke-linejoin:miter;stroke-width:1.5;" x="363.64328" xlink:href="#m6cca613f0b" y="289.532673"/>
    </g>
   </g>
   <g id="line2d_53">
    <path d="M 333.168 27.513663 
L 363.64328 161.196832 
" style="fill:none;stroke:#000080;stroke-linecap:square;stroke-width:1.5;"/>
    <g>
     <use style="fill-opacity:0;stroke:#000080;stroke-width:1.5;" x="333.168" xlink:href="#m89f8c8ff79" y="27.513663"/>
     <use style="fill-opacity:0;stroke:#000080;stroke-width:1.5;" x="363.64328" xlink:href="#m89f8c8ff79" y="161.196832"/>
    </g>
   </g>
   <g id="line2d_54">
    <path d="M 333.168 294.88 
L 333.168 27.513663 
" style="fill:none;stroke:#000000;stroke-linecap:square;stroke-width:1.5;"/>
   </g>
   <g id="patch_3">
    <path d="M 56.12 294.88 
L 56.12 24.84 
" style="fill:none;stroke:#000000;stroke-linecap:square;stroke-linejoin:miter;stroke-width:0.8;"/>
   </g>
   <g id="patch_4">
    <path d="M 333.168 294.88 
L 333.168 24.84 
" style="fill:none;stroke:#000000;stroke-linecap:square;stroke-linejoin:miter;stroke-width:0.8;"/>
   </g>
   <g id="patch_5">
    <path d="M 56.12 294.88 
L 333.168 294.88 
" style="fill:none;stroke:#000000;stroke-linecap:square;stroke-linejoin:miter;stroke-width:0.8;"/>
   </g>
   <g id="patch_6">
    <path d="M 56.12 24.84 
L 333.168 24.84 
" style="fill:none;stroke:#000000;stroke-linecap:square;stroke-linejoin:miter;stroke-width:0.8;"/>
   </g>
   <g id="text_13">
    <!-- PSO2 -->
    <defs>
     <path d="M 19.671875 64.796875 
L 19.671875 37.40625 
L 32.078125 37.40625 
Q 38.96875 37.40625 42.71875 40.96875 
Q 46.484375 44.53125 46.484375 51.125 
Q 46.484375 57.671875 42.71875 61.234375 
Q 38.96875 64.796875 32.078125 64.796875 
z
M 9.8125 72.90625 
L 32.078125 72.90625 
Q 44.34375 72.90625 50.609375 67.359375 
Q 56.890625 61.8125 56.890625 51.125 
Q 56.890625 40.328125 50.609375 34.8125 
Q 44.34375 29.296875 32.078125 29.296875 
L 19.671875 29.296875 
L 19.671875 0 
L 9.8125 0 
z
" id="DejaVuSans-50"/>
     <path d="M 53.515625 70.515625 
L 53.515625 60.890625 
Q 47.90625 63.578125 42.921875 64.890625 
Q 37.9375 66.21875 33.296875 66.21875 
Q 25.25 66.21875 20.875 63.09375 
Q 16.5 59.96875 16.5 54.203125 
Q 16.5 49.359375 19.40625 46.890625 
Q 22.3125 44.4375 30.421875 42.921875 
L 36.375 41.703125 
Q 47.40625 39.59375 52.65625 34.296875 
Q 57.90625 29 57.90625 20.125 
Q 57.90625 9.515625 50.796875 4.046875 
Q 43.703125 -1.421875 29.984375 -1.421875 
Q 24.8125 -1.421875 18.96875 -0.25 
Q 13.140625 0.921875 6.890625 3.21875 
L 6.890625 13.375 
Q 12.890625 10.015625 18.65625 8.296875 
Q 24.421875 6.59375 29.984375 6.59375 
Q 38.421875 6.59375 43.015625 9.90625 
Q 47.609375 13.234375 47.609375 19.390625 
Q 47.609375 24.75 44.3125 27.78125 
Q 41.015625 30.8125 33.5 32.328125 
L 27.484375 33.5 
Q 16.453125 35.6875 11.515625 40.375 
Q 6.59375 45.0625 6.59375 53.421875 
Q 6.59375 63.09375 13.40625 68.65625 
Q 20.21875 74.21875 32.171875 74.21875 
Q 37.3125 74.21875 42.625 73.28125 
Q 47.953125 72.359375 53.515625 70.515625 
z
" id="DejaVuSans-53"/>
     <path d="M 39.40625 66.21875 
Q 28.65625 66.21875 22.328125 58.203125 
Q 16.015625 50.203125 16.015625 36.375 
Q 16.015625 22.609375 22.328125 14.59375 
Q 28.65625 6.59375 39.40625 6.59375 
Q 50.140625 6.59375 56.421875 14.59375 
Q 62.703125 22.609375 62.703125 36.375 
Q 62.703125 50.203125 56.421875 58.203125 
Q 50.140625 66.21875 39.40625 66.21875 
z
M 39.40625 74.21875 
Q 54.734375 74.21875 63.90625 63.9375 
Q 73.09375 53.65625 73.09375 36.375 
Q 73.09375 19.140625 63.90625 8.859375 
Q 54.734375 -1.421875 39.40625 -1.421875 
Q 24.03125 -1.421875 14.8125 8.828125 
Q 5.609375 19.09375 5.609375 36.375 
Q 5.609375 53.65625 14.8125 63.9375 
Q 24.03125 74.21875 39.40625 74.21875 
z
" id="DejaVuSans-4f"/>
    </defs>
    <g transform="translate(369.18424 294.223611)scale(0.17 -0.17)">
     <use xlink:href="#DejaVuSans-50"/>
     <use x="60.302734" xlink:href="#DejaVuSans-53"/>
     <use x="123.779297" xlink:href="#DejaVuSans-4f"/>
     <use x="202.490234" xlink:href="#DejaVuSans-32"/>
    </g>
   </g>
   <g id="text_14">
    <!-- PSO1 -->
    <g transform="translate(369.18424 165.887769)scale(0.17 -0.17)">
     <use xlink:href="#DejaVuSans-50"/>
     <use x="60.302734" xlink:href="#DejaVuSans-53"/>
     <use x="123.779297" xlink:href="#DejaVuSans-4f"/>
     <use x="202.490234" xlink:href="#DejaVuSans-31"/>
    </g>
   </g>
   <g id="text_15">
    <!-- best 2009 -->
    <defs>
     <path d="M 48.6875 27.296875 
Q 48.6875 37.203125 44.609375 42.84375 
Q 40.53125 48.484375 33.40625 48.484375 
Q 26.265625 48.484375 22.1875 42.84375 
Q 18.109375 37.203125 18.109375 27.296875 
Q 18.109375 17.390625 22.1875 11.75 
Q 26.265625 6.109375 33.40625 6.109375 
Q 40.53125 6.109375 44.609375 11.75 
Q 48.6875 17.390625 48.6875 27.296875 
z
M 18.109375 46.390625 
Q 20.953125 51.265625 25.265625 53.625 
Q 29.59375 56 35.59375 56 
Q 45.5625 56 51.78125 48.09375 
Q 58.015625 40.1875 58.015625 27.296875 
Q 58.015625 14.40625 51.78125 6.484375 
Q 45.5625 -1.421875 35.59375 -1.421875 
Q 29.59375 -1.421875 25.265625 0.953125 
Q 20.953125 3.328125 18.109375 8.203125 
L 18.109375 0 
L 9.078125 0 
L 9.078125 75.984375 
L 18.109375 75.984375 
z
" id="DejaVuSans-62"/>
     <path d="M 10.984375 1.515625 
L 10.984375 10.5 
Q 14.703125 8.734375 18.5 7.8125 
Q 22.3125 6.890625 25.984375 6.890625 
Q 35.75 6.890625 40.890625 13.453125 
Q 46.046875 20.015625 46.78125 33.40625 
Q 43.953125 29.203125 39.59375 26.953125 
Q 35.25 24.703125 29.984375 24.703125 
Q 19.046875 24.703125 12.671875 31.3125 
Q 6.296875 37.9375 6.296875 49.421875 
Q 6.296875 60.640625 12.9375 67.421875 
Q 19.578125 74.21875 30.609375 74.21875 
Q 43.265625 74.21875 49.921875 64.515625 
Q 56.59375 54.828125 56.59375 36.375 
Q 56.59375 19.140625 48.40625 8.859375 
Q 40.234375 -1.421875 26.421875 -1.421875 
Q 22.703125 -1.421875 18.890625 -0.6875 
Q 15.09375 0.046875 10.984375 1.515625 
z
M 30.609375 32.421875 
Q 37.25 32.421875 41.125 36.953125 
Q 45.015625 41.5 45.015625 49.421875 
Q 45.015625 57.28125 41.125 61.84375 
Q 37.25 66.40625 30.609375 66.40625 
Q 23.96875 66.40625 20.09375 61.84375 
Q 16.21875 57.28125 16.21875 49.421875 
Q 16.21875 41.5 20.09375 36.953125 
Q 23.96875 32.421875 30.609375 32.421875 
z
" id="DejaVuSans-39"/>
    </defs>
    <g transform="translate(369.18424 37.551928)scale(0.17 -0.17)">
     <use xlink:href="#DejaVuSans-62"/>
     <use x="63.476562" xlink:href="#DejaVuSans-65"/>
     <use x="125" xlink:href="#DejaVuSans-73"/>
     <use x="177.099609" xlink:href="#DejaVuSans-74"/>
     <use x="216.308594" xlink:href="#DejaVuSans-20"/>
     <use x="248.095703" xlink:href="#DejaVuSans-32"/>
     <use x="311.71875" xlink:href="#DejaVuSans-30"/>
     <use x="375.341797" xlink:href="#DejaVuSans-30"/>
     <use x="438.964844" xlink:href="#DejaVuSans-39"/>
    </g>
   </g>
   <g id="text_16">
    <!-- bbob f12, 3-D -->
    <defs>
     <path d="M 40.578125 39.3125 
Q 47.65625 37.796875 51.625 33 
Q 55.609375 28.21875 55.609375 21.1875 
Q 55.609375 10.40625 48.1875 4.484375 
Q 40.765625 -1.421875 27.09375 -1.421875 
Q 22.515625 -1.421875 17.65625 -0.515625 
Q 12.796875 0.390625 7.625 2.203125 
L 7.625 11.71875 
Q 11.71875 9.328125 16.59375 8.109375 
Q 21.484375 6.890625 26.8125 6.890625 
Q 36.078125 6.890625 40.9375 10.546875 
Q 45.796875 14.203125 45.796875 21.1875 
Q 45.796875 27.640625 41.28125 31.265625 
Q 36.765625 34.90625 28.71875 34.90625 
L 20.21875 34.90625 
L 20.21875 43.015625 
L 29.109375 43.015625 
Q 36.375 43.015625 40.234375 45.921875 
Q 44.09375 48.828125 44.09375 54.296875 
Q 44.09375 59.90625 40.109375 62.90625 
Q 36.140625 65.921875 28.71875 65.921875 
Q 24.65625 65.921875 20.015625 65.03125 
Q 15.375 64.15625 9.8125 62.3125 
L 9.8125 71.09375 
Q 15.4375 72.65625 20.34375 73.4375 
Q 25.25 74.21875 29.59375 74.21875 
Q 40.828125 74.21875 47.359375 69.109375 
Q 53.90625 64.015625 53.90625 55.328125 
Q 53.90625 49.265625 50.4375 45.09375 
Q 46.96875 40.921875 40.578125 39.3125 
z
" id="DejaVuSans-33"/>
     <path d="M 19.671875 64.796875 
L 19.671875 8.109375 
L 31.59375 8.109375 
Q 46.6875 8.109375 53.6875 14.9375 
Q 60.6875 21.78125 60.6875 36.53125 
Q 60.6875 51.171875 53.6875 57.984375 
Q 46.6875 64.796875 31.59375 64.796875 
z
M 9.8125 72.90625 
L 30.078125 72.90625 
Q 51.265625 72.90625 61.171875 64.09375 
Q 71.09375 55.28125 71.09375 36.53125 
Q 71.09375 17.671875 61.125 8.828125 
Q 51.171875 0 30.078125 0 
L 9.8125 0 
z
" id="DejaVuSans-44"/>
    </defs>
    <g transform="translate(58.89048 35.290806)scale(0.102 -0.102)">
     <use xlink:href="#DejaVuSans-62"/>
     <use x="63.476562" xlink:href="#DejaVuSans-62"/>
     <use x="126.953125" xlink:href="#DejaVuSans-6f"/>
     <use x="188.134766" xlink:href="#DejaVuSans-62"/>
     <use x="251.611328" xlink:href="#DejaVuSans-20"/>
     <use x="283.398438" xlink:href="#DejaVuSans-66"/>
     <use x="318.603516" xlink:href="#DejaVuSans-31"/>
     <use x="382.226562" xlink:href="#DejaVuSans-32"/>
     <use x="445.849609" xlink:href="#DejaVuSans-2c"/>
     <use x="477.636719" xlink:href="#DejaVuSans-20"/>
     <use x="509.423828" xlink:href="#DejaVuSans-33"/>
     <use x="573.046875" xlink:href="#DejaVuSans-2d"/>
     <use x="609.130859" xlink:href="#DejaVuSans-44"/>
    </g>
    <!-- 51 targets: 100..1e-08 -->
    <defs>
     <path d="M 10.796875 72.90625 
L 49.515625 72.90625 
L 49.515625 64.59375 
L 19.828125 64.59375 
L 19.828125 46.734375 
Q 21.96875 47.46875 24.109375 47.828125 
Q 26.265625 48.1875 28.421875 48.1875 
Q 40.625 48.1875 47.75 41.5 
Q 54.890625 34.8125 54.890625 23.390625 
Q 54.890625 11.625 47.5625 5.09375 
Q 40.234375 -1.421875 26.90625 -1.421875 
Q 22.3125 -1.421875 17.546875 -0.640625 
Q 12.796875 0.140625 7.71875 1.703125 
L 7.71875 11.625 
Q 12.109375 9.234375 16.796875 8.0625 
Q 21.484375 6.890625 26.703125 6.890625 
Q 35.15625 6.890625 40.078125 11.328125 
Q 45.015625 15.765625 45.015625 23.390625 
Q 45.015625 31 40.078125 35.4375 
Q 35.15625 39.890625 26.703125 39.890625 
Q 22.75 39.890625 18.8125 39.015625 
Q 14.890625 38.140625 10.796875 36.28125 
z
" id="DejaVuSans-35"/>
     <path d="M 11.71875 12.40625 
L 22.015625 12.40625 
L 22.015625 0 
L 11.71875 0 
z
M 11.71875 51.703125 
L 22.015625 51.703125 
L 22.015625 39.3125 
L 11.71875 39.3125 
z
" id="DejaVuSans-3a"/>
    </defs>
    <g transform="translate(58.89048 46.712575)scale(0.102 -0.102)">
     <use xlink:href="#DejaVuSans-35"/>
     <use x="63.623047" xlink:href="#DejaVuSans-31"/>
     <use x="127.246094" xlink:href="#DejaVuSans-20"/>
     <use x="159.033203" xlink:href="#DejaVuSans-74"/>
     <use x="198.242188" xlink:href="#DejaVuSans-61"/>
     <use x="259.521484" xlink:href="#DejaVuSans-72"/>
     <use x="300.619141" xlink:href="#DejaVuSans-67"/>
     <use x="364.095703" xlink:href="#DejaVuSans-65"/>
     <use x="425.619141" xlink:href="#DejaVuSans-74"/>
     <use x="464.828125" xlink:href="#DejaVuSans-73"/>
     <use x="516.927734" xlink:href="#DejaVuSans-3a"/>
     <use x="550.619141" xlink:href="#DejaVuSans-20"/>
     <use x="582.40625" xlink:href="#DejaVuSans-31"/>
     <use x="646.029297" xlink:href="#DejaVuSans-30"/>
     <use x="709.652344" xlink:href="#DejaVuSans-30"/>
     <use x="773.275391" xlink:href="#DejaVuSans-2e"/>
     <use x="805.0625" xlink:href="#DejaVuSans-2e"/>
     <use x="836.849609" xlink:href="#DejaVuSans-31"/>
     <use x="900.472656" xlink:href="#DejaVuSans-65"/>
     <use x="961.996094" xlink:href="#DejaVuSans-2d"/>
     <use x="998.080078" xlink:href="#DejaVuSans-30"/>
     <use x="1061.703125" xlink:href="#DejaVuSans-38"/>
    </g>
    <!-- 15 instances -->
    <g transform="translate(58.89048 58.134344)scale(0.102 -0.102)">
     <use xlink:href="#DejaVuSans-31"/>
     <use x="63.623047" xlink:href="#DejaVuSans-35"/>
     <use x="127.246094" xlink:href="#DejaVuSans-20"/>
     <use x="159.033203" xlink:href="#DejaVuSans-69"/>
     <use x="186.816406" xlink:href="#DejaVuSans-6e"/>
     <use x="250.195312" xlink:href="#DejaVuSans-73"/>
     <use x="302.294922" xlink:href="#DejaVuSans-74"/>
     <use x="341.503906" xlink:href="#DejaVuSans-61"/>
     <use x="402.783203" xlink:href="#DejaVuSans-6e"/>
     <use x="466.162109" xlink:href="#DejaVuSans-63"/>
     <use x="521.142578" xlink:href="#DejaVuSans-65"/>
     <use x="582.666016" xlink:href="#DejaVuSans-73"/>
    </g>
   </g>
   <g id="text_17">
    <!-- v0.0.0 -->
    <g style="fill:#808080;" transform="translate(178.96275 290.099912)scale(0.1 -0.1)">
     <use xlink:href="#DejaVuSans-76"/>
     <use x="59.179688" xlink:href="#DejaVuSans-30"/>
     <use x="122.802734" xlink:href="#DejaVuSans-2e"/>
     <use x="154.589844" xlink:href="#DejaVuSans-30"/>
     <use x="218.212891" xlink:href="#DejaVuSans-2e"/>
     <use x="250" xlink:href="#DejaVuSans-30"/>
    </g>
   </g>
   <g id="text_18">
    <!-- 12 Bent cigar -->
    <defs>
     <path d="M 19.671875 34.8125 
L 19.671875 8.109375 
L 35.5 8.109375 
Q 43.453125 8.109375 47.28125 11.40625 
Q 51.125 14.703125 51.125 21.484375 
Q 51.125 28.328125 47.28125 31.5625 
Q 43.453125 34.8125 35.5 34.8125 
z
M 19.671875 64.796875 
L 19.671875 42.828125 
L 34.28125 42.828125 
Q 41.5 42.828125 45.03125 45.53125 
Q 48.578125 48.25 48.578125 53.8125 
Q 48.578125 59.328125 45.03125 62.0625 
Q 41.5 64.796875 34.28125 64.796875 
z
M 9.8125 72.90625 
L 35.015625 72.90625 
Q 46.296875 72.90625 52.390625 68.21875 
Q 58.5 63.53125 58.5 54.890625 
Q 58.5 48.1875 55.375 44.234375 
Q 52.25 40.28125 46.1875 39.3125 
Q 53.46875 37.75 57.5 32.78125 
Q 61.53125 27.828125 61.53125 20.40625 
Q 61.53125 10.640625 54.890625 5.3125 
Q 48.25 0 35.984375 0 
L 9.8125 0 
z
" id="DejaVuSans-42"/>
    </defs>
    <g transform="translate(127.426812 18.84)scale(0.2 -0.2)">
     <use xlink:href="#DejaVuSans-31"/>
     <use x="63.623047" xlink:href="#DejaVuSans-32"/>
     <use x="127.246094" xlink:href="#DejaVuSans-20"/>
     <use x="159.033203" xlink:href="#DejaVuSans-42"/>
     <use x="227.636719" xlink:href="#DejaVuSans-65"/>
     <use x="289.160156" xlink:href="#DejaVuSans-6e"/>
     <use x="352.539062" xlink:href="#DejaVuSans-74"/>
     <use x="391.748047" xlink:href="#DejaVuSans-20"/>
     <use x="423.535156" xlink:href="#DejaVuSans-63"/>
     <use x="478.515625" xlink:href="#DejaVuSans-69"/>
     <use x="506.298828" xlink:href="#DejaVuSans-67"/>
     <use x="569.775391" xlink:href="#DejaVuSans-61"/>
     <use x="631.054688" xlink:href="#DejaVuSans-72"/>
    </g>
   </g>
  </g>
 </g>
 <defs>
  <clipPath id="pe6e07e1094">
   <rect height="270.04" width="277.048" x="56.12" y="24.84"/>
  </clipPath>
 </defs>
</svg>
