<?xml version="1.0" encoding="utf-8" standalone="no"?>
<!DOCTYPE svg PUBLIC "-//W3C//DTD SVG 1.1//EN"
  "http://www.w3.org/Graphics/SVG/1.1/DTD/svg11.dtd">
<!-- Created with matplotlib (http://matplotlib.org/) -->
<svg height="345.6pt" version="1.1" viewBox="0 0 460.8 345.6" width="460.8pt" xmlns="http://www.w3.org/2000/svg" xmlns:xlink="http://www.w3.org/1999/xlink">
 <defs>
  <style type="text/css">
*{stroke-linecap:butt;stroke-linejoin:round;}
  </style>
 </defs>
 <g id="figure_1">
  <g id="patch_1">
   <path d="M 0 345.6 
L 460.8 345.6 
L 460.8 0 
L 0 0 
z
" style="fill:#ffffff;"/>
  </g>
  <g id="axes_1">
   <g id="patch_2">
    <path d="M 56.12 294.88 
L 333.168 294.88 
L 333.168 24.84 
L 56.12 24.84 
z
" style="fill:#ffffff;"/>
   </g>
   <g id="line2d_1">
    <path d="M 76.11297 294.88 
L 76.11297 289.637523 
L 83.784035 289.637523 
L 83.784035 284.395046 
L 89.567532 284.395046 
L 89.567532 279.152568 
L 97.021141 279.152568 
L 97.021141 273.910091 
L 101.966002 273.910091 
L 101.966002 268.667614 
L 109.864733 268.667614 
L 109.864733 263.425137 
L 114.466953 263.425137 
L 114.466953 258.18266 
L 116.529892 258.18266 
L 116.529892 252.940182 
L 118.186736 252.940182 
L 118.186736 247.697705 
L 119.354037 247.697705 
L 119.354037 242.455228 
L 120.689748 242.455228 
L 120.689748 237.212751 
L 121.627542 237.212751 
L 121.627542 231.970274 
L 122.588877 231.970274 
L 122.588877 226.727797 
L 123.635161 226.727797 
L 123.635161 221.485319 
L 124.233665 221.485319 
L 124.233665 216.242842 
L 125.371564 216.242842 
L 125.371564 211.000365 
L 126.836558 211.000365 
L 126.836558 205.757888 
L 127.7659 205.757888 
L 127.7659 200.515411 
L 128.546153 200.515411 
L 128.546153 195.272933 
L 130.377486 195.272933 
L 130.377486 190.030456 
L 131.612072 190.030456 
L 131.612072 184.787979 
L 133.234845 184.787979 
L 133.234845 179.545502 
L 134.503128 179.545502 
L 134.503128 174.303025 
L 135.379395 174.303025 
L 135.379395 169.060547 
L 136.342875 169.060547 
L 136.342875 163.81807 
L 137.827708 163.81807 
L 137.827708 158.575593 
L 138.862788 158.575593 
L 138.862788 153.333116 
L 139.839061 153.333116 
L 139.839061 148.090639 
L 140.762851 148.090639 
L 140.762851 142.848162 
L 141.206772 142.848162 
L 141.206772 137.605684 
L 142.154044 137.605684 
L 142.154044 132.363207 
L 143.462385 132.363207 
L 143.462385 127.12073 
L 145.013063 127.12073 
L 145.013063 121.878253 
L 146.471234 121.878253 
L 146.471234 116.635776 
L 147.156411 116.635776 
L 147.156411 111.393298 
L 147.831886 111.393298 
L 147.831886 106.150821 
L 148.497755 106.150821 
L 148.497755 100.908344 
L 148.875888 100.908344 
L 148.875888 95.665867 
L 149.321972 95.665867 
L 149.321972 90.42339 
L 149.741959 90.42339 
L 149.741959 85.180912 
L 149.918859 85.180912 
L 149.918859 79.938435 
L 150.424656 79.938435 
L 150.424656 74.695958 
L 150.957462 74.695958 
L 150.957462 69.453481 
L 151.326243 69.453481 
L 151.326243 64.211004 
L 151.674041 64.211004 
L 151.674041 58.968526 
L 152.118486 58.968526 
L 152.118486 53.726049 
L 152.400064 53.726049 
L 152.400064 48.483572 
L 152.851103 48.483572 
L 152.851103 43.241095 
L 153.206025 43.241095 
L 153.206025 37.998618 
L 153.553767 37.998618 
L 153.553767 32.756141 
L 153.871321 32.756141 
L 153.871321 27.513663 
L 333.168 27.513663 
" style="fill:none;stroke:#f5deb3;stroke-linecap:square;stroke-width:4;"/>
   </g>
   <g id="line2d_2">
    <defs>
     <path d="M -0 7.778175 
L 7.778175 0 
L 0 -7.778175 
L -7.778175 -0 
z
" id="m43599314f9" style="stroke:#f5deb3;stroke-linejoin:miter;stroke-width:1.5;"/>
    </defs>
    <g>
     <use style="fill:#f5deb3;stroke:#f5deb3;stroke-linejoin:miter;stroke-width:1.5;" x="123.635161" xlink:href="#m43599314f9" y="226.727797"/>
     <use style="fill:#f5deb3;stroke:#f5deb3;stroke-linejoin:miter;stroke-width:1.5;" x="149.918859" xlink:href="#m43599314f9" y="79.938435"/>
     <use style="fill:#f5deb3;stroke:#f5deb3;stroke-linejoin:miter;stroke-width:1.5;" x="153.871321" xlink:href="#m43599314f9" y="32.756141"/>
     <use style="fill:#f5deb3;stroke:#f5deb3;stroke-linejoin:miter;stroke-width:1.5;" x="153.871321" xlink:href="#m43599314f9" y="27.513663"/>
     <use style="fill:#f5deb3;stroke:#f5deb3;stroke-linejoin:miter;stroke-width:1.5;" x="333.168" xlink:href="#m43599314f9" y="27.513663"/>
    </g>
   </g>
   <g id="line2d_3">
    <path style="fill:none;stroke:#f5deb3;stroke-linecap:square;stroke-width:4;"/>
    <g/>
   </g>
   <g id="line2d_4">
    <path d="M 333.168 27.513663 
L 363.64328 32.86099 
" style="fill:none;stroke:#f5deb3;stroke-linecap:square;stroke-width:4;"/>
    <g>
     <use style="fill:#f5deb3;stroke:#f5deb3;stroke-linejoin:miter;stroke-width:1.5;" x="333.168" xlink:href="#m43599314f9" y="27.513663"/>
     <use style="fill:#f5deb3;stroke:#f5deb3;stroke-linejoin:miter;stroke-width:1.5;" x="363.64328" xlink:href="#m43599314f9" y="32.86099"/>
    </g>
   </g>
   <g id="matplotlib.axis_1">
    <g id="xtick_1">
     <g id="line2d_5">
      <path clip-path="url(#p34767e3146)" d="M 56.12 294.88 
L 56.12 24.84 
" style="fill:none;stroke:#b0b0b0;stroke-linecap:square;stroke-width:0.8;"/>
     </g>
     <g id="line2d_6">
      <defs>
       <path d="M 0 0 
L 0 3.5 
" id="m116d313dd1" style="stroke:#000000;stroke-width:0.8;"/>
      </defs>
      <g>
       <use style="stroke:#000000;stroke-width:0.8;" x="56.12" xlink:href="#m116d313dd1" y="294.88"/>
      </g>
     </g>
     <g id="text_1">
      <!-- 0 -->
      <defs>
       <path d="M 31.78125 66.40625 
Q 24.171875 66.40625 20.328125 58.90625 
Q 16.5 51.421875 16.5 36.375 
Q 16.5 21.390625 20.328125 13.890625 
Q 24.171875 6.390625 31.78125 6.390625 
Q 39.453125 6.390625 43.28125 13.890625 
Q 47.125 21.390625 47.125 36.375 
Q 47.125 51.421875 43.28125 58.90625 
Q 39.453125 66.40625 31.78125 66.40625 
z
M 31.78125 74.21875 
Q 44.046875 74.21875 50.515625 64.515625 
Q 56.984375 54.828125 56.984375 36.375 
Q 56.984375 17.96875 50.515625 8.265625 
Q 44.046875 -1.421875 31.78125 -1.421875 
Q 19.53125 -1.421875 13.0625 8.265625 
Q 6.59375 17.96875 6.59375 36.375 
Q 6.59375 54.828125 13.0625 64.515625 
Q 19.53125 74.21875 31.78125 74.21875 
z
" id="DejaVuSans-30"/>
      </defs>
      <g transform="translate(49.7575 317.076875)scale(0.2 -0.2)">
       <use xlink:href="#DejaVuSans-30"/>
      </g>
     </g>
    </g>
    <g id="xtick_2">
     <g id="line2d_7">
      <path clip-path="url(#p34767e3146)" d="M 135.276571 294.88 
L 135.276571 24.84 
" style="fill:none;stroke:#b0b0b0;stroke-linecap:square;stroke-width:0.8;"/>
     </g>
     <g id="line2d_8">
      <g>
       <use style="stroke:#000000;stroke-width:0.8;" x="135.276571" xlink:href="#m116d313dd1" y="294.88"/>
      </g>
     </g>
     <g id="text_2">
      <!-- 2 -->
      <defs>
       <path d="M 19.1875 8.296875 
L 53.609375 8.296875 
L 53.609375 0 
L 7.328125 0 
L 7.328125 8.296875 
Q 12.9375 14.109375 22.625 23.890625 
Q 32.328125 33.6875 34.8125 36.53125 
Q 39.546875 41.84375 41.421875 45.53125 
Q 43.3125 49.21875 43.3125 52.78125 
Q 43.3125 58.59375 39.234375 62.25 
Q 35.15625 65.921875 28.609375 65.921875 
Q 23.96875 65.921875 18.8125 64.3125 
Q 13.671875 62.703125 7.8125 59.421875 
L 7.8125 69.390625 
Q 13.765625 71.78125 18.9375 73 
Q 24.125 74.21875 28.421875 74.21875 
Q 39.75 74.21875 46.484375 68.546875 
Q 53.21875 62.890625 53.21875 53.421875 
Q 53.21875 48.921875 51.53125 44.890625 
Q 49.859375 40.875 45.40625 35.40625 
Q 44.1875 33.984375 37.640625 27.21875 
Q 31.109375 20.453125 19.1875 8.296875 
z
" id="DejaVuSans-32"/>
      </defs>
      <g transform="translate(128.914071 317.076875)scale(0.2 -0.2)">
       <use xlink:href="#DejaVuSans-32"/>
      </g>
     </g>
    </g>
    <g id="xtick_3">
     <g id="line2d_9">
      <path clip-path="url(#p34767e3146)" d="M 214.433143 294.88 
L 214.433143 24.84 
" style="fill:none;stroke:#b0b0b0;stroke-linecap:square;stroke-width:0.8;"/>
     </g>
     <g id="line2d_10">
      <g>
       <use style="stroke:#000000;stroke-width:0.8;" x="214.433143" xlink:href="#m116d313dd1" y="294.88"/>
      </g>
     </g>
     <g id="text_3">
      <!-- 4 -->
      <defs>
       <path d="M 37.796875 64.3125 
L 12.890625 25.390625 
L 37.796875 25.390625 
z
M 35.203125 72.90625 
L 47.609375 72.90625 
L 47.609375 25.390625 
L 58.015625 25.390625 
L 58.015625 17.1875 
L 47.609375 17.1875 
L 47.609375 0 
L 37.796875 0 
L 37.796875 17.1875 
L 4.890625 17.1875 
L 4.890625 26.703125 
z
" id="DejaVuSans-34"/>
      </defs>
      <g transform="translate(208.070643 317.076875)scale(0.2 -0.2)">
       <use xlink:href="#DejaVuSans-34"/>
      </g>
     </g>
    </g>
    <g id="xtick_4">
     <g id="line2d_11">
      <path clip-path="url(#p34767e3146)" d="M 293.589714 294.88 
L 293.589714 24.84 
" style="fill:none;stroke:#b0b0b0;stroke-linecap:square;stroke-width:0.8;"/>
     </g>
     <g id="line2d_12">
      <g>
       <use style="stroke:#000000;stroke-width:0.8;" x="293.589714" xlink:href="#m116d313dd1" y="294.88"/>
      </g>
     </g>
     <g id="text_4">
      <!-- 6 -->
      <defs>
       <path d="M 33.015625 40.375 
Q 26.375 40.375 22.484375 35.828125 
Q 18.609375 31.296875 18.609375 23.390625 
Q 18.609375 15.53125 22.484375 10.953125 
Q 26.375 6.390625 33.015625 6.390625 
Q 39.65625 6.390625 43.53125 10.953125 
Q 47.40625 15.53125 47.40625 23.390625 
Q 47.40625 31.296875 43.53125 35.828125 
Q 39.65625 40.375 33.015625 40.375 
z
M 52.59375 71.296875 
L 52.59375 62.3125 
Q 48.875 64.0625 45.09375 64.984375 
Q 41.3125 65.921875 37.59375 65.921875 
Q 27.828125 65.921875 22.671875 59.328125 
Q 17.53125 52.734375 16.796875 39.40625 
Q 19.671875 43.65625 24.015625 45.921875 
Q 28.375 48.1875 33.59375 48.1875 
Q 44.578125 48.1875 50.953125 41.515625 
Q 57.328125 34.859375 57.328125 23.390625 
Q 57.328125 12.15625 50.6875 5.359375 
Q 44.046875 -1.421875 33.015625 -1.421875 
Q 20.359375 -1.421875 13.671875 8.265625 
Q 6.984375 17.96875 6.984375 36.375 
Q 6.984375 53.65625 15.1875 63.9375 
Q 23.390625 74.21875 37.203125 74.21875 
Q 40.921875 74.21875 44.703125 73.484375 
Q 48.484375 72.75 52.59375 71.296875 
z
" id="DejaVuSans-36"/>
      </defs>
      <g transform="translate(287.227214 317.076875)scale(0.2 -0.2)">
       <use xlink:href="#DejaVuSans-36"/>
      </g>
     </g>
    </g>
    <g id="xtick_5">
     <g id="line2d_13">
      <path clip-path="url(#p34767e3146)" d="M 56.12 294.88 
L 56.12 24.84 
" style="fill:none;stroke:#b0b0b0;stroke-linecap:square;stroke-width:0.8;"/>
     </g>
     <g id="line2d_14">
      <defs>
       <path d="M 0 0 
L 0 2 
" id="mbed4d65f77" style="stroke:#000000;stroke-width:0.6;"/>
      </defs>
      <g>
       <use style="stroke:#000000;stroke-width:0.6;" x="56.12" xlink:href="#mbed4d65f77" y="294.88"/>
      </g>
     </g>
    </g>
    <g id="xtick_6">
     <g id="line2d_15">
      <path clip-path="url(#p34767e3146)" d="M 95.698286 294.88 
L 95.698286 24.84 
" style="fill:none;stroke:#b0b0b0;stroke-linecap:square;stroke-width:0.8;"/>
     </g>
     <g id="line2d_16">
      <g>
       <use style="stroke:#000000;stroke-width:0.6;" x="95.698286" xlink:href="#mbed4d65f77" y="294.88"/>
      </g>
     </g>
    </g>
    <g id="xtick_7">
     <g id="line2d_17">
      <path clip-path="url(#p34767e3146)" d="M 135.276571 294.88 
L 135.276571 24.84 
" style="fill:none;stroke:#b0b0b0;stroke-linecap:square;stroke-width:0.8;"/>
     </g>
     <g id="line2d_18">
      <g>
       <use style="stroke:#000000;stroke-width:0.6;" x="135.276571" xlink:href="#mbed4d65f77" y="294.88"/>
      </g>
     </g>
    </g>
    <g id="xtick_8">
     <g id="line2d_19">
      <path clip-path="url(#p34767e3146)" d="M 174.854857 294.88 
L 174.854857 24.84 
" style="fill:none;stroke:#b0b0b0;stroke-linecap:square;stroke-width:0.8;"/>
     </g>
     <g id="line2d_20">
      <g>
       <use style="stroke:#000000;stroke-width:0.6;" x="174.854857" xlink:href="#mbed4d65f77" y="294.88"/>
      </g>
     </g>
    </g>
    <g id="xtick_9">
     <g id="line2d_21">
      <path clip-path="url(#p34767e3146)" d="M 214.433143 294.88 
L 214.433143 24.84 
" style="fill:none;stroke:#b0b0b0;stroke-linecap:square;stroke-width:0.8;"/>
     </g>
     <g id="line2d_22">
      <g>
       <use style="stroke:#000000;stroke-width:0.6;" x="214.433143" xlink:href="#mbed4d65f77" y="294.88"/>
      </g>
     </g>
    </g>
    <g id="xtick_10">
     <g id="line2d_23">
      <path clip-path="url(#p34767e3146)" d="M 254.011429 294.88 
L 254.011429 24.84 
" style="fill:none;stroke:#b0b0b0;stroke-linecap:square;stroke-width:0.8;"/>
     </g>
     <g id="line2d_24">
      <g>
       <use style="stroke:#000000;stroke-width:0.6;" x="254.011429" xlink:href="#mbed4d65f77" y="294.88"/>
      </g>
     </g>
    </g>
    <g id="xtick_11">
     <g id="line2d_25">
      <path clip-path="url(#p34767e3146)" d="M 293.589714 294.88 
L 293.589714 24.84 
" style="fill:none;stroke:#b0b0b0;stroke-linecap:square;stroke-width:0.8;"/>
     </g>
     <g id="line2d_26">
      <g>
       <use style="stroke:#000000;stroke-width:0.6;" x="293.589714" xlink:href="#mbed4d65f77" y="294.88"/>
      </g>
     </g>
    </g>
    <g id="xtick_12">
     <g id="line2d_27">
      <path clip-path="url(#p34767e3146)" d="M 333.168 294.88 
L 333.168 24.84 
" style="fill:none;stroke:#b0b0b0;stroke-linecap:square;stroke-width:0.8;"/>
     </g>
     <g id="line2d_28">
      <g>
       <use style="stroke:#000000;stroke-width:0.6;" x="333.168" xlink:href="#mbed4d65f77" y="294.88"/>
      </g>
     </g>
    </g>
    <g id="text_5">
     <!-- log10(# f-evals / dimension) -->
     <defs>
      <path d="M 9.421875 75.984375 
L 18.40625 75.984375 
L 18.40625 0 
L 9.421875 0 
z
" id="DejaVuSans-6c"/>
      <path d="M 30.609375 48.390625 
Q 23.390625 48.390625 19.1875 42.75 
Q 14.984375 37.109375 14.984375 27.296875 
Q 14.984375 17.484375 19.15625 11.84375 
Q 23.34375 6.203125 30.609375 6.203125 
Q 37.796875 6.203125 41.984375 11.859375 
Q 46.1875 17.53125 46.1875 27.296875 
Q 46.1875 37.015625 41.984375 42.703125 
Q 37.796875 48.390625 30.609375 48.390625 
z
M 30.609375 56 
Q 42.328125 56 49.015625 48.375 
Q 55.71875 40.765625 55.71875 27.296875 
Q 55.71875 13.875 49.015625 6.21875 
Q 42.328125 -1.421875 30.609375 -1.421875 
Q 18.84375 -1.421875 12.171875 6.21875 
Q 5.515625 13.875 5.515625 27.296875 
Q 5.515625 40.765625 12.171875 48.375 
Q 18.84375 56 30.609375 56 
z
" id="DejaVuSans-6f"/>
      <path d="M 45.40625 27.984375 
Q 45.40625 37.75 41.375 43.109375 
Q 37.359375 48.484375 30.078125 48.484375 
Q 22.859375 48.484375 18.828125 43.109375 
Q 14.796875 37.75 14.796875 27.984375 
Q 14.796875 18.265625 18.828125 12.890625 
Q 22.859375 7.515625 30.078125 7.515625 
Q 37.359375 7.515625 41.375 12.890625 
Q 45.40625 18.265625 45.40625 27.984375 
z
M 54.390625 6.78125 
Q 54.390625 -7.171875 48.1875 -13.984375 
Q 42 -20.796875 29.203125 -20.796875 
Q 24.46875 -20.796875 20.265625 -20.09375 
Q 16.0625 -19.390625 12.109375 -17.921875 
L 12.109375 -9.1875 
Q 16.0625 -11.328125 19.921875 -12.34375 
Q 23.78125 -13.375 27.78125 -13.375 
Q 36.625 -13.375 41.015625 -8.765625 
Q 45.40625 -4.15625 45.40625 5.171875 
L 45.40625 9.625 
Q 42.625 4.78125 38.28125 2.390625 
Q 33.9375 0 27.875 0 
Q 17.828125 0 11.671875 7.65625 
Q 5.515625 15.328125 5.515625 27.984375 
Q 5.515625 40.671875 11.671875 48.328125 
Q 17.828125 56 27.875 56 
Q 33.9375 56 38.28125 53.609375 
Q 42.625 51.21875 45.40625 46.390625 
L 45.40625 54.6875 
L 54.390625 54.6875 
z
" id="DejaVuSans-67"/>
      <path d="M 12.40625 8.296875 
L 28.515625 8.296875 
L 28.515625 63.921875 
L 10.984375 60.40625 
L 10.984375 69.390625 
L 28.421875 72.90625 
L 38.28125 72.90625 
L 38.28125 8.296875 
L 54.390625 8.296875 
L 54.390625 0 
L 12.40625 0 
z
" id="DejaVuSans-31"/>
      <path d="M 31 75.875 
Q 24.46875 64.65625 21.28125 53.65625 
Q 18.109375 42.671875 18.109375 31.390625 
Q 18.109375 20.125 21.3125 9.0625 
Q 24.515625 -2 31 -13.1875 
L 23.1875 -13.1875 
Q 15.875 -1.703125 12.234375 9.375 
Q 8.59375 20.453125 8.59375 31.390625 
Q 8.59375 42.28125 12.203125 53.3125 
Q 15.828125 64.359375 23.1875 75.875 
z
" id="DejaVuSans-28"/>
      <path d="M 51.125 44 
L 36.921875 44 
L 32.8125 27.6875 
L 47.125 27.6875 
z
M 43.796875 71.78125 
L 38.71875 51.515625 
L 52.984375 51.515625 
L 58.109375 71.78125 
L 65.921875 71.78125 
L 60.890625 51.515625 
L 76.125 51.515625 
L 76.125 44 
L 58.984375 44 
L 54.984375 27.6875 
L 70.515625 27.6875 
L 70.515625 20.21875 
L 53.078125 20.21875 
L 48 0 
L 40.1875 0 
L 45.21875 20.21875 
L 30.90625 20.21875 
L 25.875 0 
L 18.015625 0 
L 23.09375 20.21875 
L 7.71875 20.21875 
L 7.71875 27.6875 
L 24.90625 27.6875 
L 29 44 
L 13.28125 44 
L 13.28125 51.515625 
L 30.90625 51.515625 
L 35.890625 71.78125 
z
" id="DejaVuSans-23"/>
      <path id="DejaVuSans-20"/>
      <path d="M 37.109375 75.984375 
L 37.109375 68.5 
L 28.515625 68.5 
Q 23.6875 68.5 21.796875 66.546875 
Q 19.921875 64.59375 19.921875 59.515625 
L 19.921875 54.6875 
L 34.71875 54.6875 
L 34.71875 47.703125 
L 19.921875 47.703125 
L 19.921875 0 
L 10.890625 0 
L 10.890625 47.703125 
L 2.296875 47.703125 
L 2.296875 54.6875 
L 10.890625 54.6875 
L 10.890625 58.5 
Q 10.890625 67.625 15.140625 71.796875 
Q 19.390625 75.984375 28.609375 75.984375 
z
" id="DejaVuSans-66"/>
      <path d="M 4.890625 31.390625 
L 31.203125 31.390625 
L 31.203125 23.390625 
L 4.890625 23.390625 
z
" id="DejaVuSans-2d"/>
      <path d="M 56.203125 29.59375 
L 56.203125 25.203125 
L 14.890625 25.203125 
Q 15.484375 15.921875 20.484375 11.0625 
Q 25.484375 6.203125 34.421875 6.203125 
Q 39.59375 6.203125 44.453125 7.46875 
Q 49.3125 8.734375 54.109375 11.28125 
L 54.109375 2.78125 
Q 49.265625 0.734375 44.1875 -0.34375 
Q 39.109375 -1.421875 33.890625 -1.421875 
Q 20.796875 -1.421875 13.15625 6.1875 
Q 5.515625 13.8125 5.515625 26.8125 
Q 5.515625 40.234375 12.765625 48.109375 
Q 20.015625 56 32.328125 56 
Q 43.359375 56 49.78125 48.890625 
Q 56.203125 41.796875 56.203125 29.59375 
z
M 47.21875 32.234375 
Q 47.125 39.59375 43.09375 43.984375 
Q 39.0625 48.390625 32.421875 48.390625 
Q 24.90625 48.390625 20.390625 44.140625 
Q 15.875 39.890625 15.1875 32.171875 
z
" id="DejaVuSans-65"/>
      <path d="M 2.984375 54.6875 
L 12.5 54.6875 
L 29.59375 8.796875 
L 46.6875 54.6875 
L 56.203125 54.6875 
L 35.6875 0 
L 23.484375 0 
z
" id="DejaVuSans-76"/>
      <path d="M 34.28125 27.484375 
Q 23.390625 27.484375 19.1875 25 
Q 14.984375 22.515625 14.984375 16.5 
Q 14.984375 11.71875 18.140625 8.90625 
Q 21.296875 6.109375 26.703125 6.109375 
Q 34.1875 6.109375 38.703125 11.40625 
Q 43.21875 16.703125 43.21875 25.484375 
L 43.21875 27.484375 
z
M 52.203125 31.203125 
L 52.203125 0 
L 43.21875 0 
L 43.21875 8.296875 
Q 40.140625 3.328125 35.546875 0.953125 
Q 30.953125 -1.421875 24.3125 -1.421875 
Q 15.921875 -1.421875 10.953125 3.296875 
Q 6 8.015625 6 15.921875 
Q 6 25.140625 12.171875 29.828125 
Q 18.359375 34.515625 30.609375 34.515625 
L 43.21875 34.515625 
L 43.21875 35.40625 
Q 43.21875 41.609375 39.140625 45 
Q 35.0625 48.390625 27.6875 48.390625 
Q 23 48.390625 18.546875 47.265625 
Q 14.109375 46.140625 10.015625 43.890625 
L 10.015625 52.203125 
Q 14.9375 54.109375 19.578125 55.046875 
Q 24.21875 56 28.609375 56 
Q 40.484375 56 46.34375 49.84375 
Q 52.203125 43.703125 52.203125 31.203125 
z
" id="DejaVuSans-61"/>
      <path d="M 44.28125 53.078125 
L 44.28125 44.578125 
Q 40.484375 46.53125 36.375 47.5 
Q 32.28125 48.484375 27.875 48.484375 
Q 21.1875 48.484375 17.84375 46.4375 
Q 14.5 44.390625 14.5 40.28125 
Q 14.5 37.15625 16.890625 35.375 
Q 19.28125 33.59375 26.515625 31.984375 
L 29.59375 31.296875 
Q 39.15625 29.25 43.1875 25.515625 
Q 47.21875 21.78125 47.21875 15.09375 
Q 47.21875 7.46875 41.1875 3.015625 
Q 35.15625 -1.421875 24.609375 -1.421875 
Q 20.21875 -1.421875 15.453125 -0.5625 
Q 10.6875 0.296875 5.421875 2 
L 5.421875 11.28125 
Q 10.40625 8.6875 15.234375 7.390625 
Q 20.0625 6.109375 24.8125 6.109375 
Q 31.15625 6.109375 34.5625 8.28125 
Q 37.984375 10.453125 37.984375 14.40625 
Q 37.984375 18.0625 35.515625 20.015625 
Q 33.0625 21.96875 24.703125 23.78125 
L 21.578125 24.515625 
Q 13.234375 26.265625 9.515625 29.90625 
Q 5.8125 33.546875 5.8125 39.890625 
Q 5.8125 47.609375 11.28125 51.796875 
Q 16.75 56 26.8125 56 
Q 31.78125 56 36.171875 55.265625 
Q 40.578125 54.546875 44.28125 53.078125 
z
" id="DejaVuSans-73"/>
      <path d="M 25.390625 72.90625 
L 33.6875 72.90625 
L 8.296875 -9.28125 
L 0 -9.28125 
z
" id="DejaVuSans-2f"/>
      <path d="M 45.40625 46.390625 
L 45.40625 75.984375 
L 54.390625 75.984375 
L 54.390625 0 
L 45.40625 0 
L 45.40625 8.203125 
Q 42.578125 3.328125 38.25 0.953125 
Q 33.9375 -1.421875 27.875 -1.421875 
Q 17.96875 -1.421875 11.734375 6.484375 
Q 5.515625 14.40625 5.515625 27.296875 
Q 5.515625 40.1875 11.734375 48.09375 
Q 17.96875 56 27.875 56 
Q 33.9375 56 38.25 53.625 
Q 42.578125 51.265625 45.40625 46.390625 
z
M 14.796875 27.296875 
Q 14.796875 17.390625 18.875 11.75 
Q 22.953125 6.109375 30.078125 6.109375 
Q 37.203125 6.109375 41.296875 11.75 
Q 45.40625 17.390625 45.40625 27.296875 
Q 45.40625 37.203125 41.296875 42.84375 
Q 37.203125 48.484375 30.078125 48.484375 
Q 22.953125 48.484375 18.875 42.84375 
Q 14.796875 37.203125 14.796875 27.296875 
z
" id="DejaVuSans-64"/>
      <path d="M 9.421875 54.6875 
L 18.40625 54.6875 
L 18.40625 0 
L 9.421875 0 
z
M 9.421875 75.984375 
L 18.40625 75.984375 
L 18.40625 64.59375 
L 9.421875 64.59375 
z
" id="DejaVuSans-69"/>
      <path d="M 52 44.1875 
Q 55.375 50.25 60.0625 53.125 
Q 64.75 56 71.09375 56 
Q 79.640625 56 84.28125 50.015625 
Q 88.921875 44.046875 88.921875 33.015625 
L 88.921875 0 
L 79.890625 0 
L 79.890625 32.71875 
Q 79.890625 40.578125 77.09375 44.375 
Q 74.3125 48.1875 68.609375 48.1875 
Q 61.625 48.1875 57.5625 43.546875 
Q 53.515625 38.921875 53.515625 30.90625 
L 53.515625 0 
L 44.484375 0 
L 44.484375 32.71875 
Q 44.484375 40.625 41.703125 44.40625 
Q 38.921875 48.1875 33.109375 48.1875 
Q 26.21875 48.1875 22.15625 43.53125 
Q 18.109375 38.875 18.109375 30.90625 
L 18.109375 0 
L 9.078125 0 
L 9.078125 54.6875 
L 18.109375 54.6875 
L 18.109375 46.1875 
Q 21.1875 51.21875 25.484375 53.609375 
Q 29.78125 56 35.6875 56 
Q 41.65625 56 45.828125 52.96875 
Q 50 49.953125 52 44.1875 
z
" id="DejaVuSans-6d"/>
      <path d="M 54.890625 33.015625 
L 54.890625 0 
L 45.90625 0 
L 45.90625 32.71875 
Q 45.90625 40.484375 42.875 44.328125 
Q 39.84375 48.1875 33.796875 48.1875 
Q 26.515625 48.1875 22.3125 43.546875 
Q 18.109375 38.921875 18.109375 30.90625 
L 18.109375 0 
L 9.078125 0 
L 9.078125 54.6875 
L 18.109375 54.6875 
L 18.109375 46.1875 
Q 21.34375 51.125 25.703125 53.5625 
Q 30.078125 56 35.796875 56 
Q 45.21875 56 50.046875 50.171875 
Q 54.890625 44.34375 54.890625 33.015625 
z
" id="DejaVuSans-6e"/>
      <path d="M 8.015625 75.875 
L 15.828125 75.875 
Q 23.140625 64.359375 26.78125 53.3125 
Q 30.421875 42.28125 30.421875 31.390625 
Q 30.421875 20.453125 26.78125 9.375 
Q 23.140625 -1.703125 15.828125 -13.1875 
L 8.015625 -13.1875 
Q 14.5 -2 17.703125 9.0625 
Q 20.90625 20.125 20.90625 31.390625 
Q 20.90625 42.671875 17.703125 53.65625 
Q 14.5 64.65625 8.015625 75.875 
z
" id="DejaVuSans-29"/>
     </defs>
     <g transform="translate(73.803219 338.153594)scale(0.17 -0.17)">
      <use xlink:href="#DejaVuSans-6c"/>
      <use x="27.783203" xlink:href="#DejaVuSans-6f"/>
      <use x="88.964844" xlink:href="#DejaVuSans-67"/>
      <use x="152.441406" xlink:href="#DejaVuSans-31"/>
      <use x="216.064453" xlink:href="#DejaVuSans-30"/>
      <use x="279.6875" xlink:href="#DejaVuSans-28"/>
      <use x="318.701172" xlink:href="#DejaVuSans-23"/>
      <use x="402.490234" xlink:href="#DejaVuSans-20"/>
      <use x="434.277344" xlink:href="#DejaVuSans-66"/>
      <use x="469.404297" xlink:href="#DejaVuSans-2d"/>
      <use x="505.488281" xlink:href="#DejaVuSans-65"/>
      <use x="567.011719" xlink:href="#DejaVuSans-76"/>
      <use x="626.191406" xlink:href="#DejaVuSans-61"/>
      <use x="687.470703" xlink:href="#DejaVuSans-6c"/>
      <use x="715.253906" xlink:href="#DejaVuSans-73"/>
      <use x="767.353516" xlink:href="#DejaVuSans-20"/>
      <use x="799.140625" xlink:href="#DejaVuSans-2f"/>
      <use x="832.832031" xlink:href="#DejaVuSans-20"/>
      <use x="864.619141" xlink:href="#DejaVuSans-64"/>
      <use x="928.095703" xlink:href="#DejaVuSans-69"/>
      <use x="955.878906" xlink:href="#DejaVuSans-6d"/>
      <use x="1053.291016" xlink:href="#DejaVuSans-65"/>
      <use x="1114.814453" xlink:href="#DejaVuSans-6e"/>
      <use x="1178.193359" xlink:href="#DejaVuSans-73"/>
      <use x="1230.292969" xlink:href="#DejaVuSans-69"/>
      <use x="1258.076172" xlink:href="#DejaVuSans-6f"/>
      <use x="1319.257812" xlink:href="#DejaVuSans-6e"/>
      <use x="1382.636719" xlink:href="#DejaVuSans-29"/>
     </g>
    </g>
   </g>
   <g id="matplotlib.axis_2">
    <g id="ytick_1">
     <g id="line2d_29">
      <path clip-path="url(#p34767e3146)" d="M 56.12 294.88 
L 333.168 294.88 
" style="fill:none;stroke:#b0b0b0;stroke-linecap:square;stroke-width:0.8;"/>
     </g>
     <g id="line2d_30">
      <defs>
       <path d="M 0 0 
L -3.5 0 
" id="mf4266b520d" style="stroke:#000000;stroke-width:0.8;"/>
      </defs>
      <g>
       <use style="stroke:#000000;stroke-width:0.8;" x="56.12" xlink:href="#mf4266b520d" y="294.88"/>
      </g>
     </g>
     <g id="text_6">
      <!-- 0.0 -->
      <defs>
       <path d="M 10.6875 12.40625 
L 21 12.40625 
L 21 0 
L 10.6875 0 
z
" id="DejaVuSans-2e"/>
      </defs>
      <g transform="translate(23.675 300.95875)scale(0.16 -0.16)">
       <use xlink:href="#DejaVuSans-30"/>
       <use x="63.623047" xlink:href="#DejaVuSans-2e"/>
       <use x="95.410156" xlink:href="#DejaVuSans-30"/>
      </g>
     </g>
    </g>
    <g id="ytick_2">
     <g id="line2d_31">
      <path clip-path="url(#p34767e3146)" d="M 56.12 241.406733 
L 333.168 241.406733 
" style="fill:none;stroke:#b0b0b0;stroke-linecap:square;stroke-width:0.8;"/>
     </g>
     <g id="line2d_32">
      <g>
       <use style="stroke:#000000;stroke-width:0.8;" x="56.12" xlink:href="#mf4266b520d" y="241.406733"/>
      </g>
     </g>
     <g id="text_7">
      <!-- 0.2 -->
      <g transform="translate(23.675 247.485483)scale(0.16 -0.16)">
       <use xlink:href="#DejaVuSans-30"/>
       <use x="63.623047" xlink:href="#DejaVuSans-2e"/>
       <use x="95.410156" xlink:href="#DejaVuSans-32"/>
      </g>
     </g>
    </g>
    <g id="ytick_3">
     <g id="line2d_33">
      <path clip-path="url(#p34767e3146)" d="M 56.12 187.933465 
L 333.168 187.933465 
" style="fill:none;stroke:#b0b0b0;stroke-linecap:square;stroke-width:0.8;"/>
     </g>
     <g id="line2d_34">
      <g>
       <use style="stroke:#000000;stroke-width:0.8;" x="56.12" xlink:href="#mf4266b520d" y="187.933465"/>
      </g>
     </g>
     <g id="text_8">
      <!-- 0.4 -->
      <g transform="translate(23.675 194.012215)scale(0.16 -0.16)">
       <use xlink:href="#DejaVuSans-30"/>
       <use x="63.623047" xlink:href="#DejaVuSans-2e"/>
       <use x="95.410156" xlink:href="#DejaVuSans-34"/>
      </g>
     </g>
    </g>
    <g id="ytick_4">
     <g id="line2d_35">
      <path clip-path="url(#p34767e3146)" d="M 56.12 134.460198 
L 333.168 134.460198 
" style="fill:none;stroke:#b0b0b0;stroke-linecap:square;stroke-width:0.8;"/>
     </g>
     <g id="line2d_36">
      <g>
       <use style="stroke:#000000;stroke-width:0.8;" x="56.12" xlink:href="#mf4266b520d" y="134.460198"/>
      </g>
     </g>
     <g id="text_9">
      <!-- 0.6 -->
      <g transform="translate(23.675 140.538948)scale(0.16 -0.16)">
       <use xlink:href="#DejaVuSans-30"/>
       <use x="63.623047" xlink:href="#DejaVuSans-2e"/>
       <use x="95.410156" xlink:href="#DejaVuSans-36"/>
      </g>
     </g>
    </g>
    <g id="ytick_5">
     <g id="line2d_37">
      <path clip-path="url(#p34767e3146)" d="M 56.12 80.986931 
L 333.168 80.986931 
" style="fill:none;stroke:#b0b0b0;stroke-linecap:square;stroke-width:0.8;"/>
     </g>
     <g id="line2d_38">
      <g>
       <use style="stroke:#000000;stroke-width:0.8;" x="56.12" xlink:href="#mf4266b520d" y="80.986931"/>
      </g>
     </g>
     <g id="text_10">
      <!-- 0.8 -->
      <defs>
       <path d="M 31.78125 34.625 
Q 24.75 34.625 20.71875 30.859375 
Q 16.703125 27.09375 16.703125 20.515625 
Q 16.703125 13.921875 20.71875 10.15625 
Q 24.75 6.390625 31.78125 6.390625 
Q 38.8125 6.390625 42.859375 10.171875 
Q 46.921875 13.96875 46.921875 20.515625 
Q 46.921875 27.09375 42.890625 30.859375 
Q 38.875 34.625 31.78125 34.625 
z
M 21.921875 38.8125 
Q 15.578125 40.375 12.03125 44.71875 
Q 8.5 49.078125 8.5 55.328125 
Q 8.5 64.0625 14.71875 69.140625 
Q 20.953125 74.21875 31.78125 74.21875 
Q 42.671875 74.21875 48.875 69.140625 
Q 55.078125 64.0625 55.078125 55.328125 
Q 55.078125 49.078125 51.53125 44.71875 
Q 48 40.375 41.703125 38.8125 
Q 48.828125 37.15625 52.796875 32.3125 
Q 56.78125 27.484375 56.78125 20.515625 
Q 56.78125 9.90625 50.3125 4.234375 
Q 43.84375 -1.421875 31.78125 -1.421875 
Q 19.734375 -1.421875 13.25 4.234375 
Q 6.78125 9.90625 6.78125 20.515625 
Q 6.78125 27.484375 10.78125 32.3125 
Q 14.796875 37.15625 21.921875 38.8125 
z
M 18.3125 54.390625 
Q 18.3125 48.734375 21.84375 45.5625 
Q 25.390625 42.390625 31.78125 42.390625 
Q 38.140625 42.390625 41.71875 45.5625 
Q 45.3125 48.734375 45.3125 54.390625 
Q 45.3125 60.0625 41.71875 63.234375 
Q 38.140625 66.40625 31.78125 66.40625 
Q 25.390625 66.40625 21.84375 63.234375 
Q 18.3125 60.0625 18.3125 54.390625 
z
" id="DejaVuSans-38"/>
      </defs>
      <g transform="translate(23.675 87.065681)scale(0.16 -0.16)">
       <use xlink:href="#DejaVuSans-30"/>
       <use x="63.623047" xlink:href="#DejaVuSans-2e"/>
       <use x="95.410156" xlink:href="#DejaVuSans-38"/>
      </g>
     </g>
    </g>
    <g id="ytick_6">
     <g id="line2d_39">
      <path clip-path="url(#p34767e3146)" d="M 56.12 27.513663 
L 333.168 27.513663 
" style="fill:none;stroke:#b0b0b0;stroke-linecap:square;stroke-width:0.8;"/>
     </g>
     <g id="line2d_40">
      <g>
       <use style="stroke:#000000;stroke-width:0.8;" x="56.12" xlink:href="#mf4266b520d" y="27.513663"/>
      </g>
     </g>
     <g id="text_11">
      <!-- 1.0 -->
      <g transform="translate(23.675 33.592413)scale(0.16 -0.16)">
       <use xlink:href="#DejaVuSans-31"/>
       <use x="63.623047" xlink:href="#DejaVuSans-2e"/>
       <use x="95.410156" xlink:href="#DejaVuSans-30"/>
      </g>
     </g>
    </g>
    <g id="text_12">
     <!-- Fraction of function,target pairs -->
     <defs>
      <path d="M 9.8125 72.90625 
L 51.703125 72.90625 
L 51.703125 64.59375 
L 19.671875 64.59375 
L 19.671875 43.109375 
L 48.578125 43.109375 
L 48.578125 34.8125 
L 19.671875 34.8125 
L 19.671875 0 
L 9.8125 0 
z
" id="DejaVuSans-46"/>
      <path d="M 41.109375 46.296875 
Q 39.59375 47.171875 37.8125 47.578125 
Q 36.03125 48 33.890625 48 
Q 26.265625 48 22.1875 43.046875 
Q 18.109375 38.09375 18.109375 28.8125 
L 18.109375 0 
L 9.078125 0 
L 9.078125 54.6875 
L 18.109375 54.6875 
L 18.109375 46.1875 
Q 20.953125 51.171875 25.484375 53.578125 
Q 30.03125 56 36.53125 56 
Q 37.453125 56 38.578125 55.875 
Q 39.703125 55.765625 41.0625 55.515625 
z
" id="DejaVuSans-72"/>
      <path d="M 48.78125 52.59375 
L 48.78125 44.1875 
Q 44.96875 46.296875 41.140625 47.34375 
Q 37.3125 48.390625 33.40625 48.390625 
Q 24.65625 48.390625 19.8125 42.84375 
Q 14.984375 37.3125 14.984375 27.296875 
Q 14.984375 17.28125 19.8125 11.734375 
Q 24.65625 6.203125 33.40625 6.203125 
Q 37.3125 6.203125 41.140625 7.25 
Q 44.96875 8.296875 48.78125 10.40625 
L 48.78125 2.09375 
Q 45.015625 0.34375 40.984375 -0.53125 
Q 36.96875 -1.421875 32.421875 -1.421875 
Q 20.0625 -1.421875 12.78125 6.34375 
Q 5.515625 14.109375 5.515625 27.296875 
Q 5.515625 40.671875 12.859375 48.328125 
Q 20.21875 56 33.015625 56 
Q 37.15625 56 41.109375 55.140625 
Q 45.0625 54.296875 48.78125 52.59375 
z
" id="DejaVuSans-63"/>
      <path d="M 18.3125 70.21875 
L 18.3125 54.6875 
L 36.8125 54.6875 
L 36.8125 47.703125 
L 18.3125 47.703125 
L 18.3125 18.015625 
Q 18.3125 11.328125 20.140625 9.421875 
Q 21.96875 7.515625 27.59375 7.515625 
L 36.8125 7.515625 
L 36.8125 0 
L 27.59375 0 
Q 17.1875 0 13.234375 3.875 
Q 9.28125 7.765625 9.28125 18.015625 
L 9.28125 47.703125 
L 2.6875 47.703125 
L 2.6875 54.6875 
L 9.28125 54.6875 
L 9.28125 70.21875 
z
" id="DejaVuSans-74"/>
      <path d="M 8.5 21.578125 
L 8.5 54.6875 
L 17.484375 54.6875 
L 17.484375 21.921875 
Q 17.484375 14.15625 20.5 10.265625 
Q 23.53125 6.390625 29.59375 6.390625 
Q 36.859375 6.390625 41.078125 11.03125 
Q 45.3125 15.671875 45.3125 23.6875 
L 45.3125 54.6875 
L 54.296875 54.6875 
L 54.296875 0 
L 45.3125 0 
L 45.3125 8.40625 
Q 42.046875 3.421875 37.71875 1 
Q 33.40625 -1.421875 27.6875 -1.421875 
Q 18.265625 -1.421875 13.375 4.4375 
Q 8.5 10.296875 8.5 21.578125 
z
M 31.109375 56 
z
" id="DejaVuSans-75"/>
      <path d="M 11.71875 12.40625 
L 22.015625 12.40625 
L 22.015625 4 
L 14.015625 -11.625 
L 7.71875 -11.625 
L 11.71875 4 
z
" id="DejaVuSans-2c"/>
      <path d="M 18.109375 8.203125 
L 18.109375 -20.796875 
L 9.078125 -20.796875 
L 9.078125 54.6875 
L 18.109375 54.6875 
L 18.109375 46.390625 
Q 20.953125 51.265625 25.265625 53.625 
Q 29.59375 56 35.59375 56 
Q 45.5625 56 51.78125 48.09375 
Q 58.015625 40.1875 58.015625 27.296875 
Q 58.015625 14.40625 51.78125 6.484375 
Q 45.5625 -1.421875 35.59375 -1.421875 
Q 29.59375 -1.421875 25.265625 0.953125 
Q 20.953125 3.328125 18.109375 8.203125 
z
M 48.6875 27.296875 
Q 48.6875 37.203125 44.609375 42.84375 
Q 40.53125 48.484375 33.40625 48.484375 
Q 26.265625 48.484375 22.1875 42.84375 
Q 18.109375 37.203125 18.109375 27.296875 
Q 18.109375 17.390625 22.1875 11.75 
Q 26.265625 6.109375 33.40625 6.109375 
Q 40.53125 6.109375 44.609375 11.75 
Q 48.6875 17.390625 48.6875 27.296875 
z
" id="DejaVuSans-70"/>
     </defs>
     <g transform="translate(16.139531 294.999375)rotate(-90)scale(0.17 -0.17)">
      <use xlink:href="#DejaVuSans-46"/>
      <use x="57.410156" xlink:href="#DejaVuSans-72"/>
      <use x="98.523438" xlink:href="#DejaVuSans-61"/>
      <use x="159.802734" xlink:href="#DejaVuSans-63"/>
      <use x="214.783203" xlink:href="#DejaVuSans-74"/>
      <use x="253.992188" xlink:href="#DejaVuSans-69"/>
      <use x="281.775391" xlink:href="#DejaVuSans-6f"/>
      <use x="342.957031" xlink:href="#DejaVuSans-6e"/>
      <use x="406.335938" xlink:href="#DejaVuSans-20"/>
      <use x="438.123047" xlink:href="#DejaVuSans-6f"/>
      <use x="499.304688" xlink:href="#DejaVuSans-66"/>
      <use x="534.509766" xlink:href="#DejaVuSans-20"/>
      <use x="566.296875" xlink:href="#DejaVuSans-66"/>
      <use x="601.501953" xlink:href="#DejaVuSans-75"/>
      <use x="664.880859" xlink:href="#DejaVuSans-6e"/>
      <use x="728.259766" xlink:href="#DejaVuSans-63"/>
      <use x="783.240234" xlink:href="#DejaVuSans-74"/>
      <use x="822.449219" xlink:href="#DejaVuSans-69"/>
      <use x="850.232422" xlink:href="#DejaVuSans-6f"/>
      <use x="911.414062" xlink:href="#DejaVuSans-6e"/>
      <use x="974.792969" xlink:href="#DejaVuSans-2c"/>
      <use x="1006.580078" xlink:href="#DejaVuSans-74"/>
      <use x="1045.789062" xlink:href="#DejaVuSans-61"/>
      <use x="1107.068359" xlink:href="#DejaVuSans-72"/>
      <use x="1148.166016" xlink:href="#DejaVuSans-67"/>
      <use x="1211.642578" xlink:href="#DejaVuSans-65"/>
      <use x="1273.166016" xlink:href="#DejaVuSans-74"/>
      <use x="1312.375" xlink:href="#DejaVuSans-20"/>
      <use x="1344.162109" xlink:href="#DejaVuSans-70"/>
      <use x="1407.638672" xlink:href="#DejaVuSans-61"/>
      <use x="1468.917969" xlink:href="#DejaVuSans-69"/>
      <use x="1496.701172" xlink:href="#DejaVuSans-72"/>
      <use x="1537.814453" xlink:href="#DejaVuSans-73"/>
     </g>
    </g>
   </g>
   <g id="line2d_41">
    <defs>
     <path d="M 0 1.5 
C 0.397805 1.5 0.77937 1.341951 1.06066 1.06066 
C 1.341951 0.77937 1.5 0.397805 1.5 0 
C 1.5 -0.397805 1.341951 -0.77937 1.06066 -1.06066 
C 0.77937 -1.341951 0.397805 -1.5 0 -1.5 
C -0.397805 -1.5 -0.77937 -1.341951 -1.06066 -1.06066 
C -1.341951 -0.77937 -1.5 -0.397805 -1.5 0 
C -1.5 0.397805 -1.341951 0.77937 -1.06066 1.06066 
C -0.77937 1.341951 -0.397805 1.5 0 1.5 
z
" id="mf99676c57b" style="stroke:#f5deb3;"/>
    </defs>
    <g>
     <use style="fill:#f5deb3;stroke:#f5deb3;" x="153.871321" xlink:href="#mf99676c57b" y="27.513663"/>
     <use style="fill:#f5deb3;stroke:#f5deb3;" x="153.871321" xlink:href="#mf99676c57b" y="27.513663"/>
    </g>
   </g>
   <g id="line2d_42">
    <defs>
     <path d="M 0 1.5 
C 0.397805 1.5 0.77937 1.341951 1.06066 1.06066 
C 1.341951 0.77937 1.5 0.397805 1.5 0 
C 1.5 -0.397805 1.341951 -0.77937 1.06066 -1.06066 
C 0.77937 -1.341951 0.397805 -1.5 0 -1.5 
C -0.397805 -1.5 -0.77937 -1.341951 -1.06066 -1.06066 
C -1.341951 -0.77937 -1.5 -0.397805 -1.5 0 
C -1.5 0.397805 -1.341951 0.77937 -1.06066 1.06066 
C -0.77937 1.341951 -0.397805 1.5 0 1.5 
z
" id="m5b53908f95" style="stroke:#000080;"/>
    </defs>
    <g>
     <use style="fill:#000080;stroke:#000080;" x="250.342674" xlink:href="#m5b53908f95" y="58.968526"/>
     <use style="fill:#000080;stroke:#000080;" x="250.342674" xlink:href="#m5b53908f95" y="58.968526"/>
    </g>
   </g>
   <g id="line2d_43">
    <path d="M 98.543252 294.88 
L 98.543252 293.307257 
L 100.470395 293.307257 
L 100.470395 291.210266 
L 100.728876 291.210266 
L 100.728876 287.540532 
L 104.615641 287.540532 
L 104.615641 286.492036 
L 109.093814 286.492036 
L 109.093814 285.443541 
L 109.560502 285.443541 
L 109.560502 284.919293 
L 112.514373 284.919293 
L 112.514373 284.395046 
L 116.631902 284.395046 
L 116.631902 283.870798 
L 120.609239 283.870798 
L 120.609239 281.773807 
L 121.320594 281.773807 
L 121.320594 281.249559 
L 122.660646 281.249559 
L 122.660646 279.676816 
L 125.125128 279.676816 
L 125.125128 279.152568 
L 127.7659 279.152568 
L 127.7659 278.628321 
L 129.772681 278.628321 
L 129.772681 277.579825 
L 131.612072 277.579825 
L 131.612072 276.007082 
L 132.402015 276.007082 
L 132.402015 274.434339 
L 132.922316 274.434339 
L 132.922316 273.910091 
L 133.992176 273.910091 
L 133.992176 272.337348 
L 135.207679 272.337348 
L 135.207679 271.288853 
L 135.481607 271.288853 
L 135.481607 270.240357 
L 136.72628 270.240357 
L 136.72628 269.191862 
L 136.883542 269.191862 
L 136.883542 268.667614 
L 137.285815 268.667614 
L 137.285815 268.143366 
L 138.004608 268.143366 
L 138.004608 267.619119 
L 138.121538 267.619119 
L 138.121538 266.570623 
L 138.638097 266.570623 
L 138.638097 265.522128 
L 139.680151 265.522128 
L 139.680151 264.99788 
L 139.812678 264.99788 
L 139.891706 259.231155 
L 140.637478 259.231155 
L 140.637478 258.706907 
L 141.520398 258.706907 
L 141.520398 258.18266 
L 142.200064 258.18266 
L 142.200064 257.134164 
L 142.69832 257.134164 
L 142.69832 256.609917 
L 143.69567 256.609917 
L 143.69567 256.085669 
L 144.152952 256.085669 
L 144.152952 254.512926 
L 146.542779 254.512926 
L 146.614027 252.940182 
L 147.25944 252.940182 
L 147.25944 252.415935 
L 148.013081 252.415935 
L 148.013081 251.891687 
L 148.257126 251.891687 
L 148.257126 251.367439 
L 148.608906 251.367439 
L 148.608906 250.843192 
L 149.771569 250.843192 
L 149.801129 248.746201 
L 149.948166 248.746201 
L 149.948166 248.221953 
L 150.137454 248.221953 
L 150.137454 247.697705 
L 150.267289 247.697705 
L 150.267289 246.64921 
L 150.888293 246.64921 
L 150.888293 246.124962 
L 151.136011 246.124962 
L 151.136011 245.600714 
L 151.380211 245.600714 
L 151.380211 245.076467 
L 152.31097 245.076467 
L 152.31097 244.552219 
L 152.564308 244.552219 
L 152.564308 242.979476 
L 153.02336 242.979476 
L 153.02336 241.406733 
L 153.964296 241.406733 
L 153.964296 240.882485 
L 154.365249 240.882485 
L 154.365249 240.358237 
L 154.889367 240.358237 
L 154.889367 239.83399 
L 156.976021 239.83399 
L 157.04398 238.785494 
L 157.198312 238.785494 
L 157.198312 238.261246 
L 157.341751 238.261246 
L 157.341751 237.736999 
L 157.502881 237.736999 
L 157.559391 236.688503 
L 158.421295 236.688503 
L 158.492691 234.591512 
L 158.625765 234.591512 
L 158.625765 234.067265 
L 158.810355 234.067265 
L 158.810355 233.543017 
L 159.173691 233.543017 
L 159.25056 231.970274 
L 159.902736 231.970274 
L 159.902736 231.446026 
L 160.155215 231.446026 
L 160.155215 230.921778 
L 160.99924 230.921778 
L 160.99924 229.873283 
L 161.327088 229.873283 
L 161.35727 228.824787 
L 161.796406 228.824787 
L 161.796406 228.30054 
L 162.06618 228.30054 
L 162.06618 227.776292 
L 162.508953 227.776292 
L 162.593349 225.155053 
L 162.823324 225.155053 
L 162.823324 224.630806 
L 163.186357 224.630806 
L 163.220213 223.058063 
L 163.455355 223.058063 
L 163.455355 222.533815 
L 163.948654 222.533815 
L 163.948654 222.009567 
L 164.288907 222.009567 
L 164.301615 220.436824 
L 165.004814 220.436824 
L 165.108159 218.864081 
L 165.126332 218.864081 
L 165.126332 218.339833 
L 165.686233 218.339833 
L 165.686233 217.815585 
L 165.803044 217.815585 
L 165.803044 217.291338 
L 166.454119 217.291338 
L 166.454119 216.242842 
L 166.621434 216.242842 
L 166.721046 211.000365 
L 167.386705 211.000365 
L 167.386705 210.476117 
L 167.623939 210.476117 
L 167.72313 209.427622 
L 168.321634 209.427622 
L 168.431882 207.854879 
L 168.958231 207.854879 
L 168.958231 207.330631 
L 169.07411 207.330631 
L 169.093347 205.757888 
L 169.464237 205.757888 
L 169.506521 204.185145 
L 169.669979 204.185145 
L 169.669979 203.660897 
L 170.535597 203.660897 
L 170.601767 201.563906 
L 170.768265 201.563906 
L 170.768265 200.515411 
L 170.954746 200.515411 
L 170.954746 199.991163 
L 171.105054 199.991163 
L 171.105054 199.466915 
L 171.585709 199.466915 
L 171.585709 198.942667 
L 172.178268 198.942667 
L 172.178268 198.41842 
L 172.598879 198.41842 
L 172.692699 195.797181 
L 172.78601 195.797181 
L 172.78601 194.224438 
L 173.429113 194.224438 
L 173.462696 192.651695 
L 173.684918 192.651695 
L 173.684918 192.127447 
L 174.281617 192.127447 
L 174.306479 191.078952 
L 174.412625 191.078952 
L 174.521626 190.030456 
L 174.619488 190.030456 
L 174.619488 188.981961 
L 174.89949 188.981961 
L 174.967929 187.409218 
L 175.097219 187.409218 
L 175.097219 186.88497 
L 175.225543 186.88497 
L 175.225543 185.312227 
L 175.535617 185.312227 
L 175.558731 183.739484 
L 175.70004 183.739484 
L 175.70004 183.215236 
L 175.875868 183.215236 
L 175.892057 182.16674 
L 175.988877 182.16674 
L 175.988877 181.642493 
L 176.238084 181.642493 
L 176.34244 180.06975 
L 176.546155 180.06975 
L 176.561726 179.021254 
L 176.701232 179.021254 
L 176.799752 177.972759 
L 176.857983 177.972759 
L 176.900763 176.400016 
L 177.137183 176.400016 
L 177.203281 175.35152 
L 177.459255 175.35152 
L 177.459255 174.827272 
L 178.037347 174.827272 
L 178.077294 173.778777 
L 178.300986 173.778777 
L 178.334711 172.206034 
L 178.474525 172.206034 
L 178.499572 171.157538 
L 178.679385 171.157538 
L 178.679385 169.584795 
L 178.797313 169.584795 
L 178.895425 167.487804 
L 178.933429 167.487804 
L 178.933429 166.963557 
L 179.052326 166.963557 
L 179.148997 164.866566 
L 179.250453 164.866566 
L 179.282367 163.81807 
L 179.443689 163.81807 
L 179.443689 162.769575 
L 179.566962 162.769575 
L 179.566962 161.721079 
L 179.70492 161.721079 
L 179.723058 159.099841 
L 180.122395 159.099841 
L 180.165357 157.00285 
L 180.343635 157.00285 
L 180.396013 154.905859 
L 180.670246 154.905859 
L 180.72164 151.236125 
L 180.92569 151.236125 
L 180.959465 149.663382 
L 181.198798 149.663382 
L 181.198798 149.139134 
L 181.314866 149.139134 
L 181.314866 148.614886 
L 181.42781 148.614886 
L 181.47699 146.517896 
L 181.623694 146.517896 
L 181.623694 145.993648 
L 181.801314 145.993648 
L 181.895147 143.896657 
L 181.915676 143.896657 
L 181.915676 143.372409 
L 182.049653 143.372409 
L 182.135393 140.226923 
L 182.193812 140.226923 
L 182.193812 139.702675 
L 182.385641 139.702675 
L 182.385641 139.178427 
L 182.734761 139.178427 
L 182.843098 134.984446 
L 182.94861 134.984446 
L 182.94861 134.460198 
L 183.202187 134.460198 
L 183.202187 133.411703 
L 183.320236 133.411703 
L 183.427043 131.314712 
L 183.456247 131.314712 
L 183.456247 130.790464 
L 183.570499 130.790464 
L 183.620118 128.169225 
L 183.955397 128.169225 
L 184.058341 127.12073 
L 184.182664 127.12073 
L 184.24449 122.926748 
L 184.373408 122.926748 
L 184.373408 121.878253 
L 184.495481 121.878253 
L 184.605001 120.30551 
L 184.661443 120.30551 
L 184.661443 118.732766 
L 184.775705 118.732766 
L 184.775705 117.684271 
L 185.00769 117.684271 
L 185.00769 117.160023 
L 185.13859 117.160023 
L 185.182003 114.014537 
L 185.363895 114.014537 
L 185.363895 112.966042 
L 185.488417 112.966042 
L 185.488417 112.441794 
L 185.722004 112.441794 
L 185.722004 111.393298 
L 185.903723 111.393298 
L 185.903723 110.869051 
L 186.054896 110.869051 
L 186.054896 110.344803 
L 186.181645 110.344803 
L 186.291567 109.296308 
L 186.427112 109.296308 
L 186.427112 108.77206 
L 186.61371 108.77206 
L 186.679494 107.723564 
L 186.734697 107.723564 
L 186.734697 107.199317 
L 186.904365 107.199317 
L 186.904365 106.675069 
L 192.540323 106.675069 
L 192.613884 105.626573 
L 193.61083 105.626573 
L 193.708679 104.578078 
L 195.449517 104.578078 
L 195.449517 104.05383 
L 195.799658 104.05383 
L 195.892915 103.005335 
L 196.123867 103.005335 
L 196.123867 102.481087 
L 196.614513 102.481087 
L 196.68513 101.432592 
L 196.928605 101.432592 
L 196.97518 100.384096 
L 197.188378 100.384096 
L 197.275348 98.811353 
L 197.37765 98.811353 
L 197.42765 97.23861 
L 197.554769 97.23861 
L 197.554769 96.714362 
L 197.753684 96.714362 
L 197.753684 96.190115 
L 197.916208 96.190115 
L 197.998686 94.617371 
L 198.0781 94.617371 
L 198.0781 93.568876 
L 198.410484 93.568876 
L 198.459313 92.520381 
L 198.534031 92.520381 
L 198.600655 90.947637 
L 198.645503 90.947637 
L 198.752833 87.802151 
L 198.786183 87.802151 
L 198.839069 86.753656 
L 202.962765 86.753656 
L 202.962765 86.229408 
L 203.537958 86.229408 
L 203.537958 85.70516 
L 204.688263 85.70516 
L 204.730632 84.132417 
L 204.886497 84.132417 
L 204.886497 83.608169 
L 205.048084 83.608169 
L 205.098455 82.559674 
L 205.184043 82.559674 
L 205.184043 81.511178 
L 205.575802 81.511178 
L 205.679657 79.938435 
L 205.814136 79.938435 
L 205.814136 79.414188 
L 210.291522 79.414188 
L 210.38575 78.365692 
L 210.552862 78.365692 
L 210.661091 76.268701 
L 210.688897 76.268701 
L 210.718792 74.17171 
L 214.048662 74.17171 
L 214.048662 73.647463 
L 214.223892 73.647463 
L 214.298892 72.074719 
L 214.432112 72.074719 
L 214.432112 71.550472 
L 217.223544 71.550472 
L 217.223544 71.026224 
L 217.699983 71.026224 
L 217.699983 69.977729 
L 220.117397 69.977729 
L 220.117397 68.929233 
L 222.400636 68.929233 
L 222.400636 67.880738 
L 222.654791 67.880738 
L 222.654791 66.832242 
L 224.456949 66.832242 
L 224.456949 66.307995 
L 226.348082 66.307995 
L 226.348082 65.783747 
L 228.002045 65.783747 
L 228.002045 65.259499 
L 235.507857 65.259499 
L 235.55118 64.211004 
L 236.621486 64.211004 
L 236.621486 63.686756 
L 238.358146 63.686756 
L 238.358146 63.162508 
L 241.489354 63.162508 
L 241.489354 62.638261 
L 242.26038 62.638261 
L 242.26038 62.114013 
L 242.885451 62.114013 
L 242.885451 61.589765 
L 244.163459 61.589765 
L 244.163459 61.065517 
L 247.0348 61.065517 
L 247.0348 60.54127 
L 247.51035 60.54127 
L 247.51035 60.017022 
L 249.460699 60.017022 
L 249.460699 59.492774 
L 250.342674 59.492774 
L 250.342674 58.968526 
L 333.168 58.968526 
L 333.168 58.968526 
" style="fill:none;stroke:#000080;stroke-linecap:square;stroke-width:1.5;"/>
   </g>
   <g id="line2d_44">
    <defs>
     <path d="M 0 6 
C 1.591219 6 3.117479 5.367802 4.242641 4.242641 
C 5.367802 3.117479 6 1.591219 6 0 
C 6 -1.591219 5.367802 -3.117479 4.242641 -4.242641 
C 3.117479 -5.367802 1.591219 -6 0 -6 
C -1.591219 -6 -3.117479 -5.367802 -4.242641 -4.242641 
C -5.367802 -3.117479 -6 -1.591219 -6 0 
C -6 1.591219 -5.367802 3.117479 -4.242641 4.242641 
C -3.117479 5.367802 -1.591219 6 0 6 
z
" id="m8e6fcc2e8a" style="stroke:#000080;stroke-width:1.5;"/>
    </defs>
    <g>
     <use style="fill-opacity:0;stroke:#000080;stroke-width:1.5;" x="148.608906" xlink:href="#m8e6fcc2e8a" y="251.367439"/>
     <use style="fill-opacity:0;stroke:#000080;stroke-width:1.5;" x="192.613884" xlink:href="#m8e6fcc2e8a" y="106.150821"/>
     <use style="fill-opacity:0;stroke:#000080;stroke-width:1.5;" x="250.342674" xlink:href="#m8e6fcc2e8a" y="59.492774"/>
     <use style="fill-opacity:0;stroke:#000080;stroke-width:1.5;" x="250.342674" xlink:href="#m8e6fcc2e8a" y="58.968526"/>
     <use style="fill-opacity:0;stroke:#000080;stroke-width:1.5;" x="333.168" xlink:href="#m8e6fcc2e8a" y="58.968526"/>
    </g>
   </g>
   <g id="line2d_45">
    <path style="fill:none;stroke:#000080;stroke-linecap:square;stroke-width:1.5;"/>
    <g/>
   </g>
   <g id="line2d_46">
    <path clip-path="url(#p34767e3146)" d="M 186.941843 106.675069 
" style="fill:none;stroke:#000080;stroke-linecap:square;stroke-width:1.5;"/>
    <defs>
     <path d="M -12 12 
L 12 -12 
M -12 -12 
L 12 12 
" id="mb0ae7989d3" style="stroke:#000080;"/>
    </defs>
    <g clip-path="url(#p34767e3146)">
     <use style="fill:#000080;stroke:#000080;" x="186.941843" xlink:href="#mb0ae7989d3" y="106.675069"/>
    </g>
   </g>
   <g id="line2d_47">
    <defs>
     <path d="M 0 1.5 
C 0.397805 1.5 0.77937 1.341951 1.06066 1.06066 
C 1.341951 0.77937 1.5 0.397805 1.5 0 
C 1.5 -0.397805 1.341951 -0.77937 1.06066 -1.06066 
C 0.77937 -1.341951 0.397805 -1.5 0 -1.5 
C -0.397805 -1.5 -0.77937 -1.341951 -1.06066 -1.06066 
C -1.341951 -0.77937 -1.5 -0.397805 -1.5 0 
C -1.5 0.397805 -1.341951 0.77937 -1.06066 1.06066 
C -0.77937 1.341951 -0.397805 1.5 0 1.5 
z
" id="m1b97fdf14d" style="stroke:#ff00ff;"/>
    </defs>
    <g>
     <use style="fill:#ff00ff;stroke:#ff00ff;" x="240.584411" xlink:href="#m1b97fdf14d" y="27.513663"/>
     <use style="fill:#ff00ff;stroke:#ff00ff;" x="240.584411" xlink:href="#m1b97fdf14d" y="27.513663"/>
    </g>
   </g>
   <g id="line2d_48">
    <path d="M 52.284468 294.88 
L 52.284468 294.355752 
L 77.155024 294.355752 
L 77.155024 293.831505 
L 81.586754 293.831505 
L 81.586754 292.258761 
L 83.784035 292.258761 
L 83.784035 291.734514 
L 107.088985 291.734514 
L 107.088985 291.210266 
L 108.120612 291.210266 
L 108.120612 288.589027 
L 109.406343 288.589027 
L 109.406343 285.443541 
L 114.351204 285.443541 
L 114.351204 284.395046 
L 116.934349 284.395046 
L 116.934349 283.870798 
L 121.086731 283.870798 
L 121.086731 282.298055 
L 122.077925 282.298055 
L 122.151854 281.249559 
L 123.085078 281.249559 
L 123.085078 280.201064 
L 125.187069 280.201064 
L 125.187069 279.676816 
L 126.323427 279.676816 
L 126.323427 278.628321 
L 128.186438 278.628321 
L 128.186438 278.104073 
L 128.444143 278.104073 
L 128.444143 277.055578 
L 130.007824 277.055578 
L 130.007824 276.53133 
L 131.526768 276.53133 
L 131.526768 274.958587 
L 131.696954 274.958587 
L 131.696954 274.434339 
L 131.907344 274.434339 
L 131.907344 273.385844 
L 132.279675 273.385844 
L 132.279675 272.861596 
L 133.427329 272.861596 
L 133.427329 272.337348 
L 134.213018 272.337348 
L 134.213018 271.288853 
L 134.681992 271.288853 
L 134.788423 269.716109 
L 135.345189 269.716109 
L 135.345189 268.667614 
L 135.684226 268.667614 
L 135.684226 267.619119 
L 135.917635 267.619119 
L 136.016705 264.99788 
L 136.049602 264.99788 
L 136.049602 264.473632 
L 136.245672 264.473632 
L 136.245672 263.949385 
L 139.384945 263.949385 
L 139.384945 262.900889 
L 139.573389 262.900889 
L 139.573389 261.328146 
L 139.733284 261.328146 
L 139.733284 260.803898 
L 139.865404 260.803898 
L 139.865404 260.279651 
L 143.073681 260.279651 
L 143.095508 258.706907 
L 143.312265 258.706907 
L 143.312265 257.658412 
L 143.716722 257.658412 
L 143.821595 256.609917 
L 143.967351 256.609917 
L 143.967351 255.561421 
L 144.558363 255.561421 
L 144.558363 255.037173 
L 145.36071 255.037173 
L 145.43702 253.46443 
L 145.813566 253.46443 
L 145.813566 252.940182 
L 145.943432 252.940182 
L 145.943432 252.415935 
L 146.453301 252.415935 
L 146.453301 251.367439 
L 146.808451 251.367439 
L 146.808451 250.843192 
L 147.242311 250.843192 
L 147.242311 249.270448 
L 147.378865 249.270448 
L 147.378865 248.746201 
L 147.564873 248.746201 
L 147.564873 248.221953 
L 147.782136 248.221953 
L 147.848437 246.64921 
L 147.947413 246.64921 
L 147.947413 246.124962 
L 148.353782 246.124962 
L 148.353782 245.076467 
L 149.07729 245.076467 
L 149.123434 244.027971 
L 150.021216 244.027971 
L 150.079434 240.358237 
L 150.252912 240.358237 
L 150.252912 238.261246 
L 150.367599 238.261246 
L 150.396151 236.688503 
L 150.651012 236.688503 
L 150.651012 235.640008 
L 151.190579 235.640008 
L 151.190579 235.11576 
L 152.07973 235.11576 
L 152.07973 234.067265 
L 152.298205 234.067265 
L 152.298205 233.018769 
L 153.589342 233.018769 
L 153.589342 231.970274 
L 153.719157 231.970274 
L 153.812956 230.921778 
L 153.882971 230.921778 
L 153.882971 230.397531 
L 154.38788 230.397531 
L 154.38788 229.349035 
L 155.344578 229.349035 
L 155.419288 227.252044 
L 155.609922 227.252044 
L 155.68349 225.155053 
L 156.462595 225.155053 
L 156.502638 224.106558 
L 157.034288 224.106558 
L 157.034288 223.58231 
L 157.207912 223.58231 
L 157.294071 221.485319 
L 157.370295 221.485319 
L 157.427243 219.912576 
L 157.634451 219.912576 
L 157.64381 218.339833 
L 157.746429 218.339833 
L 157.746429 217.815585 
L 158.41235 217.815585 
L 158.41235 216.76709 
L 159.087877 216.76709 
L 159.087877 216.242842 
L 159.233507 216.242842 
L 159.233507 215.718594 
L 159.403273 215.718594 
L 159.495934 214.145851 
L 159.886319 214.145851 
L 159.886319 213.621604 
L 160.025366 213.621604 
L 160.130943 211.524613 
L 160.324166 211.524613 
L 160.388094 208.903374 
L 160.633594 208.903374 
L 160.633594 208.379126 
L 160.968422 208.379126 
L 161.014628 207.330631 
L 161.099018 207.330631 
L 161.099018 206.806383 
L 161.552172 206.806383 
L 161.6117 204.709392 
L 162.402872 204.709392 
L 162.480729 203.136649 
L 162.558234 203.136649 
L 162.558234 202.612401 
L 162.809473 202.612401 
L 162.89241 201.039658 
L 163.029755 201.039658 
L 163.029755 199.991163 
L 163.186357 199.991163 
L 163.186357 198.942667 
L 163.64778 198.942667 
L 163.687324 197.894172 
L 163.831547 197.894172 
L 163.909707 196.321429 
L 164.276189 196.321429 
L 164.276189 195.797181 
L 164.603841 195.797181 
L 164.666141 193.175943 
L 164.913109 193.175943 
L 164.913109 192.127447 
L 165.21691 192.127447 
L 165.21691 191.603199 
L 165.390685 191.603199 
L 165.390685 191.078952 
L 165.562721 191.078952 
L 165.568623 190.030456 
L 165.849547 190.030456 
L 165.849547 189.506209 
L 166.114524 189.506209 
L 166.114524 188.981961 
L 166.476522 188.981961 
L 166.476522 188.457713 
L 166.770637 188.457713 
L 166.880329 187.409218 
L 167.103032 187.409218 
L 167.194532 185.836474 
L 167.354825 185.836474 
L 167.407926 183.739484 
L 167.560996 183.739484 
L 167.560996 182.16674 
L 167.837271 182.16674 
L 167.852778 181.118245 
L 168.053096 181.118245 
L 168.124439 180.06975 
L 168.600887 180.06975 
L 168.600887 179.021254 
L 168.782935 179.021254 
L 168.782935 177.972759 
L 168.943691 177.972759 
L 168.958231 176.400016 
L 169.246477 176.400016 
L 169.246477 175.875768 
L 169.417132 175.875768 
L 169.417132 175.35152 
L 169.813469 175.35152 
L 169.813469 173.778777 
L 170.178325 173.778777 
L 170.196366 171.681786 
L 170.597363 171.681786 
L 170.676452 169.584795 
L 171.117877 169.584795 
L 171.164811 168.012052 
L 171.351277 168.012052 
L 171.351277 167.487804 
L 171.577392 167.487804 
L 171.577392 166.963557 
L 171.726499 166.963557 
L 171.726499 166.439309 
L 171.874323 166.439309 
L 171.874323 165.915061 
L 172.2784 165.915061 
L 172.338201 164.342318 
L 173.391722 164.342318 
L 173.421641 163.293823 
L 173.607466 163.293823 
L 173.607466 162.769575 
L 173.831485 162.769575 
L 173.831485 162.245327 
L 174.167501 162.245327 
L 174.167501 161.721079 
L 174.281617 161.721079 
L 174.281617 160.672584 
L 174.528635 160.672584 
L 174.528635 160.148336 
L 174.926898 160.148336 
L 174.926898 159.624089 
L 175.296051 159.624089 
L 175.342895 157.527098 
L 175.581814 157.527098 
L 175.611447 155.954354 
L 175.830455 155.954354 
L 175.875868 154.905859 
L 176.004961 154.905859 
L 176.004961 153.333116 
L 176.126707 153.333116 
L 176.228566 150.18763 
L 176.348745 150.18763 
L 176.348745 149.663382 
L 176.508728 149.663382 
L 176.508728 148.614886 
L 176.728998 148.614886 
L 176.728998 147.566391 
L 176.992079 147.566391 
L 176.992079 147.042143 
L 177.143202 147.042143 
L 177.143202 146.517896 
L 177.417844 146.517896 
L 177.429686 145.4694 
L 177.653147 145.4694 
L 177.763798 143.372409 
L 177.772503 143.372409 
L 177.772503 142.848162 
L 177.994444 142.848162 
L 178.008757 141.799666 
L 178.385176 141.799666 
L 178.446653 140.226923 
L 178.585563 140.226923 
L 178.585563 139.702675 
L 178.862783 139.702675 
L 178.938851 138.129932 
L 179.269077 138.129932 
L 179.269077 137.605684 
L 179.665987 137.605684 
L 179.720468 136.032941 
L 179.777358 136.032941 
L 179.777358 135.508693 
L 179.911083 135.508693 
L 179.926446 134.460198 
L 180.303621 134.460198 
L 180.348631 132.887455 
L 180.645719 132.887455 
L 180.645719 131.838959 
L 181.158345 131.838959 
L 181.158345 131.314712 
L 181.37143 131.314712 
L 181.472313 129.741969 
L 181.635283 129.741969 
L 181.635283 129.217721 
L 181.837993 129.217721 
L 181.837993 128.693473 
L 182.312285 128.693473 
L 182.312285 127.644978 
L 182.713012 127.644978 
L 182.789015 126.596482 
L 183.042806 126.596482 
L 183.042806 126.072235 
L 183.389422 126.072235 
L 183.389422 125.547987 
L 185.894683 125.547987 
L 185.894683 125.023739 
L 186.309231 125.023739 
L 186.309231 123.975244 
L 190.572984 123.975244 
L 190.572984 122.926748 
L 190.939627 122.926748 
L 191.016323 121.878253 
L 191.085994 121.878253 
L 191.085994 121.354005 
L 191.295971 121.354005 
L 191.297292 120.30551 
L 191.729003 120.30551 
L 191.729003 119.781262 
L 192.605318 119.781262 
L 192.605318 119.257014 
L 192.770981 119.257014 
L 192.87974 116.635776 
L 193.383055 116.635776 
L 193.476389 115.063032 
L 193.629291 115.063032 
L 193.641972 114.014537 
L 193.97408 114.014537 
L 193.97408 113.490289 
L 194.097966 113.490289 
L 194.108063 112.441794 
L 194.220967 112.441794 
L 194.285468 110.344803 
L 194.419259 110.344803 
L 194.419259 109.820555 
L 194.566218 109.820555 
L 194.665307 108.247812 
L 194.831705 108.247812 
L 194.875736 106.150821 
L 194.963461 106.150821 
L 195.033745 105.102326 
L 195.082561 105.102326 
L 195.104801 104.05383 
L 195.609557 104.05383 
L 195.695669 103.005335 
L 195.912111 103.005335 
L 195.994715 100.384096 
L 196.043887 100.384096 
L 196.043887 98.811353 
L 196.33009 98.811353 
L 196.337972 97.762858 
L 196.871402 97.762858 
L 196.871402 97.23861 
L 201.245606 97.23861 
L 201.245606 96.714362 
L 201.767729 96.714362 
L 201.767729 96.190115 
L 201.964834 96.190115 
L 202.016591 95.141619 
L 202.080187 95.141619 
L 202.080187 94.617371 
L 202.247239 94.617371 
L 202.323902 92.520381 
L 202.372511 92.520381 
L 202.46242 89.899142 
L 202.716453 89.899142 
L 202.809994 88.850646 
L 202.882848 88.850646 
L 202.929903 87.277903 
L 202.99824 87.277903 
L 202.99824 86.753656 
L 203.224746 86.753656 
L 203.269559 84.656665 
L 203.37389 84.656665 
L 203.432014 83.083922 
L 203.550265 83.083922 
L 203.656773 81.511178 
L 203.688276 81.511178 
L 203.752389 79.414188 
L 203.884347 79.414188 
L 203.884347 78.365692 
L 204.286663 78.365692 
L 204.286663 77.841444 
L 204.528135 77.841444 
L 204.621471 76.268701 
L 204.871514 76.268701 
L 204.897876 75.220206 
L 207.48471 75.220206 
L 207.48471 74.695958 
L 208.15888 74.695958 
L 208.171751 73.123215 
L 208.490431 73.123215 
L 208.513732 71.550472 
L 208.611927 71.550472 
L 208.699969 69.977729 
L 208.793768 69.977729 
L 208.793768 69.453481 
L 209.136347 69.453481 
L 209.192863 68.404985 
L 209.363614 68.404985 
L 209.42169 67.35649 
L 209.806628 67.35649 
L 209.806628 66.832242 
L 210.079374 66.832242 
L 210.079374 66.307995 
L 212.591555 66.307995 
L 212.591555 65.783747 
L 212.901371 65.783747 
L 212.901371 65.259499 
L 213.152822 65.259499 
L 213.177248 63.686756 
L 213.311342 63.686756 
L 213.413419 60.54127 
L 213.474231 60.54127 
L 213.535552 57.395783 
L 213.69921 57.395783 
L 213.806148 55.82304 
L 216.01693 55.82304 
L 216.01693 55.298792 
L 216.387552 55.298792 
L 216.387552 54.774545 
L 216.500095 54.774545 
L 216.584627 53.726049 
L 216.638837 53.726049 
L 216.749451 52.153306 
L 216.751854 52.153306 
L 216.751854 51.629058 
L 217.269367 51.629058 
L 217.269367 51.104811 
L 218.92351 51.104811 
L 218.92351 50.580563 
L 219.207596 50.580563 
L 219.287871 49.532068 
L 219.342989 49.532068 
L 219.450131 47.959324 
L 219.49321 47.959324 
L 219.599677 44.813838 
L 221.470922 44.813838 
L 221.470922 43.765343 
L 221.650769 43.765343 
L 221.650769 43.241095 
L 221.770079 43.241095 
L 221.770079 42.716847 
L 221.995618 42.716847 
L 221.995618 42.192599 
L 222.169647 42.192599 
L 222.209491 41.144104 
L 223.733956 41.144104 
L 223.733956 40.619856 
L 223.977559 40.619856 
L 223.977559 40.095609 
L 224.097099 40.095609 
L 224.097099 39.047113 
L 224.211336 39.047113 
L 224.211336 38.522865 
L 225.507297 38.522865 
L 225.507297 37.998618 
L 225.828803 37.998618 
L 225.906397 36.950122 
L 226.10941 36.950122 
L 226.10941 36.425875 
L 227.284297 36.425875 
L 227.284297 35.901627 
L 227.659264 35.901627 
L 227.659264 35.377379 
L 227.903413 35.377379 
L 227.903413 34.853131 
L 229.045339 34.853131 
L 229.045339 34.328884 
L 230.647156 34.328884 
L 230.647156 33.804636 
L 231.761696 33.804636 
L 231.761696 33.280388 
L 232.033747 33.280388 
L 232.033747 32.756141 
L 234.089705 32.756141 
L 234.089705 32.231893 
L 234.204678 32.231893 
L 234.217841 31.183397 
L 234.362936 31.183397 
L 234.362936 30.65915 
L 235.297867 30.65915 
L 235.297867 30.134902 
L 235.418958 30.134902 
L 235.418958 29.610654 
L 239.804234 29.610654 
L 239.804234 29.086407 
L 240.531097 29.086407 
L 240.584411 27.513663 
L 333.168 27.513663 
L 333.168 27.513663 
" style="fill:none;stroke:#ff00ff;stroke-linecap:square;stroke-width:1.5;"/>
   </g>
   <g id="line2d_49">
    <defs>
     <path d="M -0 8.485281 
L 5.091169 0 
L 0 -8.485281 
L -5.091169 -0 
z
" id="m25a54689fe" style="stroke:#ff00ff;stroke-linejoin:miter;stroke-width:1.5;"/>
    </defs>
    <g>
     <use style="fill-opacity:0;stroke:#ff00ff;stroke-linejoin:miter;stroke-width:1.5;" x="155.641489" xlink:href="#m25a54689fe" y="226.203549"/>
     <use style="fill-opacity:0;stroke:#ff00ff;stroke-linejoin:miter;stroke-width:1.5;" x="194.285468" xlink:href="#m25a54689fe" y="110.344803"/>
     <use style="fill-opacity:0;stroke:#ff00ff;stroke-linejoin:miter;stroke-width:1.5;" x="234.089705" xlink:href="#m25a54689fe" y="32.756141"/>
     <use style="fill-opacity:0;stroke:#ff00ff;stroke-linejoin:miter;stroke-width:1.5;" x="240.584411" xlink:href="#m25a54689fe" y="27.513663"/>
     <use style="fill-opacity:0;stroke:#ff00ff;stroke-linejoin:miter;stroke-width:1.5;" x="240.584411" xlink:href="#m25a54689fe" y="27.513663"/>
     <use style="fill-opacity:0;stroke:#ff00ff;stroke-linejoin:miter;stroke-width:1.5;" x="333.168" xlink:href="#m25a54689fe" y="27.513663"/>
    </g>
   </g>
   <g id="line2d_50">
    <path style="fill:none;stroke:#ff00ff;stroke-linecap:square;stroke-width:1.5;"/>
    <g/>
   </g>
   <g id="line2d_51">
    <path clip-path="url(#p34767e3146)" d="M 186.941843 123.975244 
" style="fill:none;stroke:#ff00ff;stroke-linecap:square;stroke-width:1.5;"/>
    <defs>
     <path d="M -12 12 
L 12 -12 
M -12 -12 
L 12 12 
" id="m6570581e8a" style="stroke:#ff00ff;"/>
    </defs>
    <g clip-path="url(#p34767e3146)">
     <use style="fill:#ff00ff;stroke:#ff00ff;" x="186.941843" xlink:href="#m6570581e8a" y="123.975244"/>
    </g>
   </g>
   <g id="line2d_52">
    <path d="M 333.168 58.968526 
L 363.64328 289.532673 
" style="fill:none;stroke:#000080;stroke-linecap:square;stroke-width:1.5;"/>
    <g>
     <use style="fill-opacity:0;stroke:#000080;stroke-width:1.5;" x="333.168" xlink:href="#m8e6fcc2e8a" y="58.968526"/>
     <use style="fill-opacity:0;stroke:#000080;stroke-width:1.5;" x="363.64328" xlink:href="#m8e6fcc2e8a" y="289.532673"/>
    </g>
   </g>
   <g id="line2d_53">
    <path d="M 333.168 27.513663 
L 363.64328 161.196832 
" style="fill:none;stroke:#ff00ff;stroke-linecap:square;stroke-width:1.5;"/>
    <g>
     <use style="fill-opacity:0;stroke:#ff00ff;stroke-linejoin:miter;stroke-width:1.5;" x="333.168" xlink:href="#m25a54689fe" y="27.513663"/>
     <use style="fill-opacity:0;stroke:#ff00ff;stroke-linejoin:miter;stroke-width:1.5;" x="363.64328" xlink:href="#m25a54689fe" y="161.196832"/>
    </g>
   </g>
   <g id="line2d_54">
    <path d="M 333.168 294.88 
L 333.168 27.513663 
" style="fill:none;stroke:#000000;stroke-linecap:square;stroke-width:1.5;"/>
   </g>
   <g id="patch_3">
    <path d="M 56.12 294.88 
L 56.12 24.84 
" style="fill:none;stroke:#000000;stroke-linecap:square;stroke-linejoin:miter;stroke-width:0.8;"/>
   </g>
   <g id="patch_4">
    <path d="M 333.168 294.88 
L 333.168 24.84 
" style="fill:none;stroke:#000000;stroke-linecap:square;stroke-linejoin:miter;stroke-width:0.8;"/>
   </g>
   <g id="patch_5">
    <path d="M 56.12 294.88 
L 333.168 294.88 
" style="fill:none;stroke:#000000;stroke-linecap:square;stroke-linejoin:miter;stroke-width:0.8;"/>
   </g>
   <g id="patch_6">
    <path d="M 56.12 24.84 
L 333.168 24.84 
" style="fill:none;stroke:#000000;stroke-linecap:square;stroke-linejoin:miter;stroke-width:0.8;"/>
   </g>
   <g id="text_13">
    <!-- PSO1 -->
    <defs>
     <path d="M 19.671875 64.796875 
L 19.671875 37.40625 
L 32.078125 37.40625 
Q 38.96875 37.40625 42.71875 40.96875 
Q 46.484375 44.53125 46.484375 51.125 
Q 46.484375 57.671875 42.71875 61.234375 
Q 38.96875 64.796875 32.078125 64.796875 
z
M 9.8125 72.90625 
L 32.078125 72.90625 
Q 44.34375 72.90625 50.609375 67.359375 
Q 56.890625 61.8125 56.890625 51.125 
Q 56.890625 40.328125 50.609375 34.8125 
Q 44.34375 29.296875 32.078125 29.296875 
L 19.671875 29.296875 
L 19.671875 0 
L 9.8125 0 
z
" id="DejaVuSans-50"/>
     <path d="M 53.515625 70.515625 
L 53.515625 60.890625 
Q 47.90625 63.578125 42.921875 64.890625 
Q 37.9375 66.21875 33.296875 66.21875 
Q 25.25 66.21875 20.875 63.09375 
Q 16.5 59.96875 16.5 54.203125 
Q 16.5 49.359375 19.40625 46.890625 
Q 22.3125 44.4375 30.421875 42.921875 
L 36.375 41.703125 
Q 47.40625 39.59375 52.65625 34.296875 
Q 57.90625 29 57.90625 20.125 
Q 57.90625 9.515625 50.796875 4.046875 
Q 43.703125 -1.421875 29.984375 -1.421875 
Q 24.8125 -1.421875 18.96875 -0.25 
Q 13.140625 0.921875 6.890625 3.21875 
L 6.890625 13.375 
Q 12.890625 10.015625 18.65625 8.296875 
Q 24.421875 6.59375 29.984375 6.59375 
Q 38.421875 6.59375 43.015625 9.90625 
Q 47.609375 13.234375 47.609375 19.390625 
Q 47.609375 24.75 44.3125 27.78125 
Q 41.015625 30.8125 33.5 32.328125 
L 27.484375 33.5 
Q 16.453125 35.6875 11.515625 40.375 
Q 6.59375 45.0625 6.59375 53.421875 
Q 6.59375 63.09375 13.40625 68.65625 
Q 20.21875 74.21875 32.171875 74.21875 
Q 37.3125 74.21875 42.625 73.28125 
Q 47.953125 72.359375 53.515625 70.515625 
z
" id="DejaVuSans-53"/>
     <path d="M 39.40625 66.21875 
Q 28.65625 66.21875 22.328125 58.203125 
Q 16.015625 50.203125 16.015625 36.375 
Q 16.015625 22.609375 22.328125 14.59375 
Q 28.65625 6.59375 39.40625 6.59375 
Q 50.140625 6.59375 56.421875 14.59375 
Q 62.703125 22.609375 62.703125 36.375 
Q 62.703125 50.203125 56.421875 58.203125 
Q 50.140625 66.21875 39.40625 66.21875 
z
M 39.40625 74.21875 
Q 54.734375 74.21875 63.90625 63.9375 
Q 73.09375 53.65625 73.09375 36.375 
Q 73.09375 19.140625 63.90625 8.859375 
Q 54.734375 -1.421875 39.40625 -1.421875 
Q 24.03125 -1.421875 14.8125 8.828125 
Q 5.609375 19.09375 5.609375 36.375 
Q 5.609375 53.65625 14.8125 63.9375 
Q 24.03125 74.21875 39.40625 74.21875 
z
" id="DejaVuSans-4f"/>
    </defs>
    <g transform="translate(369.18424 294.223611)scale(0.17 -0.17)">
     <use xlink:href="#DejaVuSans-50"/>
     <use x="60.302734" xlink:href="#DejaVuSans-53"/>
     <use x="123.779297" xlink:href="#DejaVuSans-4f"/>
     <use x="202.490234" xlink:href="#DejaVuSans-31"/>
    </g>
   </g>
   <g id="text_14">
    <!-- PSO2 -->
    <g transform="translate(369.18424 165.887769)scale(0.17 -0.17)">
     <use xlink:href="#DejaVuSans-50"/>
     <use x="60.302734" xlink:href="#DejaVuSans-53"/>
     <use x="123.779297" xlink:href="#DejaVuSans-4f"/>
     <use x="202.490234" xlink:href="#DejaVuSans-32"/>
    </g>
   </g>
   <g id="text_15">
    <!-- best 2009 -->
    <defs>
     <path d="M 48.6875 27.296875 
Q 48.6875 37.203125 44.609375 42.84375 
Q 40.53125 48.484375 33.40625 48.484375 
Q 26.265625 48.484375 22.1875 42.84375 
Q 18.109375 37.203125 18.109375 27.296875 
Q 18.109375 17.390625 22.1875 11.75 
Q 26.265625 6.109375 33.40625 6.109375 
Q 40.53125 6.109375 44.609375 11.75 
Q 48.6875 17.390625 48.6875 27.296875 
z
M 18.109375 46.390625 
Q 20.953125 51.265625 25.265625 53.625 
Q 29.59375 56 35.59375 56 
Q 45.5625 56 51.78125 48.09375 
Q 58.015625 40.1875 58.015625 27.296875 
Q 58.015625 14.40625 51.78125 6.484375 
Q 45.5625 -1.421875 35.59375 -1.421875 
Q 29.59375 -1.421875 25.265625 0.953125 
Q 20.953125 3.328125 18.109375 8.203125 
L 18.109375 0 
L 9.078125 0 
L 9.078125 75.984375 
L 18.109375 75.984375 
z
" id="DejaVuSans-62"/>
     <path d="M 10.984375 1.515625 
L 10.984375 10.5 
Q 14.703125 8.734375 18.5 7.8125 
Q 22.3125 6.890625 25.984375 6.890625 
Q 35.75 6.890625 40.890625 13.453125 
Q 46.046875 20.015625 46.78125 33.40625 
Q 43.953125 29.203125 39.59375 26.953125 
Q 35.25 24.703125 29.984375 24.703125 
Q 19.046875 24.703125 12.671875 31.3125 
Q 6.296875 37.9375 6.296875 49.421875 
Q 6.296875 60.640625 12.9375 67.421875 
Q 19.578125 74.21875 30.609375 74.21875 
Q 43.265625 74.21875 49.921875 64.515625 
Q 56.59375 54.828125 56.59375 36.375 
Q 56.59375 19.140625 48.40625 8.859375 
Q 40.234375 -1.421875 26.421875 -1.421875 
Q 22.703125 -1.421875 18.890625 -0.6875 
Q 15.09375 0.046875 10.984375 1.515625 
z
M 30.609375 32.421875 
Q 37.25 32.421875 41.125 36.953125 
Q 45.015625 41.5 45.015625 49.421875 
Q 45.015625 57.28125 41.125 61.84375 
Q 37.25 66.40625 30.609375 66.40625 
Q 23.96875 66.40625 20.09375 61.84375 
Q 16.21875 57.28125 16.21875 49.421875 
Q 16.21875 41.5 20.09375 36.953125 
Q 23.96875 32.421875 30.609375 32.421875 
z
" id="DejaVuSans-39"/>
    </defs>
    <g transform="translate(369.18424 37.551928)scale(0.17 -0.17)">
     <use xlink:href="#DejaVuSans-62"/>
     <use x="63.476562" xlink:href="#DejaVuSans-65"/>
     <use x="125" xlink:href="#DejaVuSans-73"/>
     <use x="177.099609" xlink:href="#DejaVuSans-74"/>
     <use x="216.308594" xlink:href="#DejaVuSans-20"/>
     <use x="248.095703" xlink:href="#DejaVuSans-32"/>
     <use x="311.71875" xlink:href="#DejaVuSans-30"/>
     <use x="375.341797" xlink:href="#DejaVuSans-30"/>
     <use x="438.964844" xlink:href="#DejaVuSans-39"/>
    </g>
   </g>
   <g id="text_16">
    <!-- bbob f6, 5-D -->
    <defs>
     <path d="M 10.796875 72.90625 
L 49.515625 72.90625 
L 49.515625 64.59375 
L 19.828125 64.59375 
L 19.828125 46.734375 
Q 21.96875 47.46875 24.109375 47.828125 
Q 26.265625 48.1875 28.421875 48.1875 
Q 40.625 48.1875 47.75 41.5 
Q 54.890625 34.8125 54.890625 23.390625 
Q 54.890625 11.625 47.5625 5.09375 
Q 40.234375 -1.421875 26.90625 -1.421875 
Q 22.3125 -1.421875 17.546875 -0.640625 
Q 12.796875 0.140625 7.71875 1.703125 
L 7.71875 11.625 
Q 12.109375 9.234375 16.796875 8.0625 
Q 21.484375 6.890625 26.703125 6.890625 
Q 35.15625 6.890625 40.078125 11.328125 
Q 45.015625 15.765625 45.015625 23.390625 
Q 45.015625 31 40.078125 35.4375 
Q 35.15625 39.890625 26.703125 39.890625 
Q 22.75 39.890625 18.8125 39.015625 
Q 14.890625 38.140625 10.796875 36.28125 
z
" id="DejaVuSans-35"/>
     <path d="M 19.671875 64.796875 
L 19.671875 8.109375 
L 31.59375 8.109375 
Q 46.6875 8.109375 53.6875 14.9375 
Q 60.6875 21.78125 60.6875 36.53125 
Q 60.6875 51.171875 53.6875 57.984375 
Q 46.6875 64.796875 31.59375 64.796875 
z
M 9.8125 72.90625 
L 30.078125 72.90625 
Q 51.265625 72.90625 61.171875 64.09375 
Q 71.09375 55.28125 71.09375 36.53125 
Q 71.09375 17.671875 61.125 8.828125 
Q 51.171875 0 30.078125 0 
L 9.8125 0 
z
" id="DejaVuSans-44"/>
    </defs>
    <g transform="translate(58.89048 35.290806)scale(0.102 -0.102)">
     <use xlink:href="#DejaVuSans-62"/>
     <use x="63.476562" xlink:href="#DejaVuSans-62"/>
     <use x="126.953125" xlink:href="#DejaVuSans-6f"/>
     <use x="188.134766" xlink:href="#DejaVuSans-62"/>
     <use x="251.611328" xlink:href="#DejaVuSans-20"/>
     <use x="283.398438" xlink:href="#DejaVuSans-66"/>
     <use x="318.603516" xlink:href="#DejaVuSans-36"/>
     <use x="382.226562" xlink:href="#DejaVuSans-2c"/>
     <use x="414.013672" xlink:href="#DejaVuSans-20"/>
     <use x="445.800781" xlink:href="#DejaVuSans-35"/>
     <use x="509.423828" xlink:href="#DejaVuSans-2d"/>
     <use x="545.507812" xlink:href="#DejaVuSans-44"/>
    </g>
    <!-- 51 targets: 100..1e-08 -->
    <defs>
     <path d="M 11.71875 12.40625 
L 22.015625 12.40625 
L 22.015625 0 
L 11.71875 0 
z
M 11.71875 51.703125 
L 22.015625 51.703125 
L 22.015625 39.3125 
L 11.71875 39.3125 
z
" id="DejaVuSans-3a"/>
    </defs>
    <g transform="translate(58.89048 46.712575)scale(0.102 -0.102)">
     <use xlink:href="#DejaVuSans-35"/>
     <use x="63.623047" xlink:href="#DejaVuSans-31"/>
     <use x="127.246094" xlink:href="#DejaVuSans-20"/>
     <use x="159.033203" xlink:href="#DejaVuSans-74"/>
     <use x="198.242188" xlink:href="#DejaVuSans-61"/>
     <use x="259.521484" xlink:href="#DejaVuSans-72"/>
     <use x="300.619141" xlink:href="#DejaVuSans-67"/>
     <use x="364.095703" xlink:href="#DejaVuSans-65"/>
     <use x="425.619141" xlink:href="#DejaVuSans-74"/>
     <use x="464.828125" xlink:href="#DejaVuSans-73"/>
     <use x="516.927734" xlink:href="#DejaVuSans-3a"/>
     <use x="550.619141" xlink:href="#DejaVuSans-20"/>
     <use x="582.40625" xlink:href="#DejaVuSans-31"/>
     <use x="646.029297" xlink:href="#DejaVuSans-30"/>
     <use x="709.652344" xlink:href="#DejaVuSans-30"/>
     <use x="773.275391" xlink:href="#DejaVuSans-2e"/>
     <use x="805.0625" xlink:href="#DejaVuSans-2e"/>
     <use x="836.849609" xlink:href="#DejaVuSans-31"/>
     <use x="900.472656" xlink:href="#DejaVuSans-65"/>
     <use x="961.996094" xlink:href="#DejaVuSans-2d"/>
     <use x="998.080078" xlink:href="#DejaVuSans-30"/>
     <use x="1061.703125" xlink:href="#DejaVuSans-38"/>
    </g>
    <!-- 15 instances -->
    <g transform="translate(58.89048 58.134344)scale(0.102 -0.102)">
     <use xlink:href="#DejaVuSans-31"/>
     <use x="63.623047" xlink:href="#DejaVuSans-35"/>
     <use x="127.246094" xlink:href="#DejaVuSans-20"/>
     <use x="159.033203" xlink:href="#DejaVuSans-69"/>
     <use x="186.816406" xlink:href="#DejaVuSans-6e"/>
     <use x="250.195312" xlink:href="#DejaVuSans-73"/>
     <use x="302.294922" xlink:href="#DejaVuSans-74"/>
     <use x="341.503906" xlink:href="#DejaVuSans-61"/>
     <use x="402.783203" xlink:href="#DejaVuSans-6e"/>
     <use x="466.162109" xlink:href="#DejaVuSans-63"/>
     <use x="521.142578" xlink:href="#DejaVuSans-65"/>
     <use x="582.666016" xlink:href="#DejaVuSans-73"/>
    </g>
   </g>
   <g id="text_17">
    <!-- v0.0.0 -->
    <g style="fill:#808080;" transform="translate(178.96275 290.099912)scale(0.1 -0.1)">
     <use xlink:href="#DejaVuSans-76"/>
     <use x="59.179688" xlink:href="#DejaVuSans-30"/>
     <use x="122.802734" xlink:href="#DejaVuSans-2e"/>
     <use x="154.589844" xlink:href="#DejaVuSans-30"/>
     <use x="218.212891" xlink:href="#DejaVuSans-2e"/>
     <use x="250" xlink:href="#DejaVuSans-30"/>
    </g>
   </g>
   <g id="text_18">
    <!-- 6 Attractive sector -->
    <defs>
     <path d="M 34.1875 63.1875 
L 20.796875 26.90625 
L 47.609375 26.90625 
z
M 28.609375 72.90625 
L 39.796875 72.90625 
L 67.578125 0 
L 57.328125 0 
L 50.6875 18.703125 
L 17.828125 18.703125 
L 11.1875 0 
L 0.78125 0 
z
" id="DejaVuSans-41"/>
    </defs>
    <g transform="translate(101.726812 18.84)scale(0.2 -0.2)">
     <use xlink:href="#DejaVuSans-36"/>
     <use x="63.623047" xlink:href="#DejaVuSans-20"/>
     <use x="95.410156" xlink:href="#DejaVuSans-41"/>
     <use x="163.802734" xlink:href="#DejaVuSans-74"/>
     <use x="203.011719" xlink:href="#DejaVuSans-74"/>
     <use x="242.220703" xlink:href="#DejaVuSans-72"/>
     <use x="283.333984" xlink:href="#DejaVuSans-61"/>
     <use x="344.613281" xlink:href="#DejaVuSans-63"/>
     <use x="399.59375" xlink:href="#DejaVuSans-74"/>
     <use x="438.802734" xlink:href="#DejaVuSans-69"/>
     <use x="466.585938" xlink:href="#DejaVuSans-76"/>
     <use x="525.765625" xlink:href="#DejaVuSans-65"/>
     <use x="587.289062" xlink:href="#DejaVuSans-20"/>
     <use x="619.076172" xlink:href="#DejaVuSans-73"/>
     <use x="671.175781" xlink:href="#DejaVuSans-65"/>
     <use x="732.699219" xlink:href="#DejaVuSans-63"/>
     <use x="787.679688" xlink:href="#DejaVuSans-74"/>
     <use x="826.888672" xlink:href="#DejaVuSans-6f"/>
     <use x="888.070312" xlink:href="#DejaVuSans-72"/>
    </g>
   </g>
  </g>
 </g>
 <defs>
  <clipPath id="p34767e3146">
   <rect height="270.04" width="277.048" x="56.12" y="24.84"/>
  </clipPath>
 </defs>
</svg>
