<?xml version="1.0" encoding="utf-8" standalone="no"?>
<!DOCTYPE svg PUBLIC "-//W3C//DTD SVG 1.1//EN"
  "http://www.w3.org/Graphics/SVG/1.1/DTD/svg11.dtd">
<!-- Created with matplotlib (http://matplotlib.org/) -->
<svg height="345.6pt" version="1.1" viewBox="0 0 460.8 345.6" width="460.8pt" xmlns="http://www.w3.org/2000/svg" xmlns:xlink="http://www.w3.org/1999/xlink">
 <defs>
  <style type="text/css">
*{stroke-linecap:butt;stroke-linejoin:round;}
  </style>
 </defs>
 <g id="figure_1">
  <g id="patch_1">
   <path d="M 0 345.6 
L 460.8 345.6 
L 460.8 0 
L 0 0 
z
" style="fill:#ffffff;"/>
  </g>
  <g id="axes_1">
   <g id="patch_2">
    <path d="M 76.302324 291.28 
L 450.672 291.28 
L 450.672 5.52 
L 76.302324 5.52 
z
" style="fill:#ffffff;"/>
   </g>
   <g id="matplotlib.axis_1">
    <g id="xtick_1">
     <g id="line2d_1">
      <path clip-path="url(#ped9a01158a)" d="M 164.002524 291.28 
L 164.002524 5.52 
" style="fill:none;stroke:#b0b0b0;stroke-linecap:square;stroke-width:0.8;"/>
     </g>
     <g id="line2d_2">
      <defs>
       <path d="M 0 0 
L 0 3.5 
" id="m45696619cf" style="stroke:#000000;stroke-width:0.8;"/>
      </defs>
      <g>
       <use style="stroke:#000000;stroke-width:0.8;" x="164.002524" xlink:href="#m45696619cf" y="291.28"/>
      </g>
     </g>
     <g id="text_1">
      <!-- -1 -->
      <defs>
       <path d="M 4.890625 31.390625 
L 31.203125 31.390625 
L 31.203125 23.390625 
L 4.890625 23.390625 
z
" id="DejaVuSans-2d"/>
       <path d="M 12.40625 8.296875 
L 28.515625 8.296875 
L 28.515625 63.921875 
L 10.984375 60.40625 
L 10.984375 69.390625 
L 28.421875 72.90625 
L 38.28125 72.90625 
L 38.28125 8.296875 
L 54.390625 8.296875 
L 54.390625 0 
L 12.40625 0 
z
" id="DejaVuSans-31"/>
      </defs>
      <g transform="translate(154.032211 313.476875)scale(0.2 -0.2)">
       <use xlink:href="#DejaVuSans-2d"/>
       <use x="36.083984" xlink:href="#DejaVuSans-31"/>
      </g>
     </g>
    </g>
    <g id="xtick_2">
     <g id="line2d_3">
      <path clip-path="url(#ped9a01158a)" d="M 263.487162 291.28 
L 263.487162 5.52 
" style="fill:none;stroke:#b0b0b0;stroke-linecap:square;stroke-width:0.8;"/>
     </g>
     <g id="line2d_4">
      <g>
       <use style="stroke:#000000;stroke-width:0.8;" x="263.487162" xlink:href="#m45696619cf" y="291.28"/>
      </g>
     </g>
     <g id="text_2">
      <!-- 0 -->
      <defs>
       <path d="M 31.78125 66.40625 
Q 24.171875 66.40625 20.328125 58.90625 
Q 16.5 51.421875 16.5 36.375 
Q 16.5 21.390625 20.328125 13.890625 
Q 24.171875 6.390625 31.78125 6.390625 
Q 39.453125 6.390625 43.28125 13.890625 
Q 47.125 21.390625 47.125 36.375 
Q 47.125 51.421875 43.28125 58.90625 
Q 39.453125 66.40625 31.78125 66.40625 
z
M 31.78125 74.21875 
Q 44.046875 74.21875 50.515625 64.515625 
Q 56.984375 54.828125 56.984375 36.375 
Q 56.984375 17.96875 50.515625 8.265625 
Q 44.046875 -1.421875 31.78125 -1.421875 
Q 19.53125 -1.421875 13.0625 8.265625 
Q 6.59375 17.96875 6.59375 36.375 
Q 6.59375 54.828125 13.0625 64.515625 
Q 19.53125 74.21875 31.78125 74.21875 
z
" id="DejaVuSans-30"/>
      </defs>
      <g transform="translate(257.124662 313.476875)scale(0.2 -0.2)">
       <use xlink:href="#DejaVuSans-30"/>
      </g>
     </g>
    </g>
    <g id="xtick_3">
     <g id="line2d_5">
      <path clip-path="url(#ped9a01158a)" d="M 362.971801 291.28 
L 362.971801 5.52 
" style="fill:none;stroke:#b0b0b0;stroke-linecap:square;stroke-width:0.8;"/>
     </g>
     <g id="line2d_6">
      <g>
       <use style="stroke:#000000;stroke-width:0.8;" x="362.971801" xlink:href="#m45696619cf" y="291.28"/>
      </g>
     </g>
     <g id="text_3">
      <!-- 1 -->
      <g transform="translate(356.609301 313.476875)scale(0.2 -0.2)">
       <use xlink:href="#DejaVuSans-31"/>
      </g>
     </g>
    </g>
    <g id="xtick_4">
     <g id="line2d_7">
      <defs>
       <path d="M 0 0 
L 0 2 
" id="mdd5a35f0b2" style="stroke:#000000;stroke-width:0.6;"/>
      </defs>
      <g>
       <use style="stroke:#000000;stroke-width:0.6;" x="79.92825" xlink:href="#mdd5a35f0b2" y="291.28"/>
      </g>
     </g>
     <g id="text_4">
      <!-- $\mathdefault{1.42857\times10^{-2}}$ -->
      <defs>
       <path d="M 10.6875 12.40625 
L 21 12.40625 
L 21 0 
L 10.6875 0 
z
" id="DejaVuSans-2e"/>
       <path d="M 37.796875 64.3125 
L 12.890625 25.390625 
L 37.796875 25.390625 
z
M 35.203125 72.90625 
L 47.609375 72.90625 
L 47.609375 25.390625 
L 58.015625 25.390625 
L 58.015625 17.1875 
L 47.609375 17.1875 
L 47.609375 0 
L 37.796875 0 
L 37.796875 17.1875 
L 4.890625 17.1875 
L 4.890625 26.703125 
z
" id="DejaVuSans-34"/>
       <path d="M 19.1875 8.296875 
L 53.609375 8.296875 
L 53.609375 0 
L 7.328125 0 
L 7.328125 8.296875 
Q 12.9375 14.109375 22.625 23.890625 
Q 32.328125 33.6875 34.8125 36.53125 
Q 39.546875 41.84375 41.421875 45.53125 
Q 43.3125 49.21875 43.3125 52.78125 
Q 43.3125 58.59375 39.234375 62.25 
Q 35.15625 65.921875 28.609375 65.921875 
Q 23.96875 65.921875 18.8125 64.3125 
Q 13.671875 62.703125 7.8125 59.421875 
L 7.8125 69.390625 
Q 13.765625 71.78125 18.9375 73 
Q 24.125 74.21875 28.421875 74.21875 
Q 39.75 74.21875 46.484375 68.546875 
Q 53.21875 62.890625 53.21875 53.421875 
Q 53.21875 48.921875 51.53125 44.890625 
Q 49.859375 40.875 45.40625 35.40625 
Q 44.1875 33.984375 37.640625 27.21875 
Q 31.109375 20.453125 19.1875 8.296875 
z
" id="DejaVuSans-32"/>
       <path d="M 31.78125 34.625 
Q 24.75 34.625 20.71875 30.859375 
Q 16.703125 27.09375 16.703125 20.515625 
Q 16.703125 13.921875 20.71875 10.15625 
Q 24.75 6.390625 31.78125 6.390625 
Q 38.8125 6.390625 42.859375 10.171875 
Q 46.921875 13.96875 46.921875 20.515625 
Q 46.921875 27.09375 42.890625 30.859375 
Q 38.875 34.625 31.78125 34.625 
z
M 21.921875 38.8125 
Q 15.578125 40.375 12.03125 44.71875 
Q 8.5 49.078125 8.5 55.328125 
Q 8.5 64.0625 14.71875 69.140625 
Q 20.953125 74.21875 31.78125 74.21875 
Q 42.671875 74.21875 48.875 69.140625 
Q 55.078125 64.0625 55.078125 55.328125 
Q 55.078125 49.078125 51.53125 44.71875 
Q 48 40.375 41.703125 38.8125 
Q 48.828125 37.15625 52.796875 32.3125 
Q 56.78125 27.484375 56.78125 20.515625 
Q 56.78125 9.90625 50.3125 4.234375 
Q 43.84375 -1.421875 31.78125 -1.421875 
Q 19.734375 -1.421875 13.25 4.234375 
Q 6.78125 9.90625 6.78125 20.515625 
Q 6.78125 27.484375 10.78125 32.3125 
Q 14.796875 37.15625 21.921875 38.8125 
z
M 18.3125 54.390625 
Q 18.3125 48.734375 21.84375 45.5625 
Q 25.390625 42.390625 31.78125 42.390625 
Q 38.140625 42.390625 41.71875 45.5625 
Q 45.3125 48.734375 45.3125 54.390625 
Q 45.3125 60.0625 41.71875 63.234375 
Q 38.140625 66.40625 31.78125 66.40625 
Q 25.390625 66.40625 21.84375 63.234375 
Q 18.3125 60.0625 18.3125 54.390625 
z
" id="DejaVuSans-38"/>
       <path d="M 10.796875 72.90625 
L 49.515625 72.90625 
L 49.515625 64.59375 
L 19.828125 64.59375 
L 19.828125 46.734375 
Q 21.96875 47.46875 24.109375 47.828125 
Q 26.265625 48.1875 28.421875 48.1875 
Q 40.625 48.1875 47.75 41.5 
Q 54.890625 34.8125 54.890625 23.390625 
Q 54.890625 11.625 47.5625 5.09375 
Q 40.234375 -1.421875 26.90625 -1.421875 
Q 22.3125 -1.421875 17.546875 -0.640625 
Q 12.796875 0.140625 7.71875 1.703125 
L 7.71875 11.625 
Q 12.109375 9.234375 16.796875 8.0625 
Q 21.484375 6.890625 26.703125 6.890625 
Q 35.15625 6.890625 40.078125 11.328125 
Q 45.015625 15.765625 45.015625 23.390625 
Q 45.015625 31 40.078125 35.4375 
Q 35.15625 39.890625 26.703125 39.890625 
Q 22.75 39.890625 18.8125 39.015625 
Q 14.890625 38.140625 10.796875 36.28125 
z
" id="DejaVuSans-35"/>
       <path d="M 8.203125 72.90625 
L 55.078125 72.90625 
L 55.078125 68.703125 
L 28.609375 0 
L 18.3125 0 
L 43.21875 64.59375 
L 8.203125 64.59375 
z
" id="DejaVuSans-37"/>
       <path d="M 70.125 53.71875 
L 47.796875 31.296875 
L 70.125 8.984375 
L 64.3125 3.078125 
L 41.890625 25.484375 
L 19.484375 3.078125 
L 13.71875 8.984375 
L 35.984375 31.296875 
L 13.71875 53.71875 
L 19.484375 59.625 
L 41.890625 37.203125 
L 64.3125 59.625 
z
" id="DejaVuSans-d7"/>
       <path d="M 10.59375 35.5 
L 73.1875 35.5 
L 73.1875 27.203125 
L 10.59375 27.203125 
z
" id="DejaVuSans-2212"/>
      </defs>
      <g transform="translate(2.82825 311.876875)scale(0.2 -0.2)">
       <use transform="translate(0 0.765625)" xlink:href="#DejaVuSans-31"/>
       <use transform="translate(63.623047 0.765625)" xlink:href="#DejaVuSans-2e"/>
       <use transform="translate(95.410156 0.765625)" xlink:href="#DejaVuSans-34"/>
       <use transform="translate(159.033203 0.765625)" xlink:href="#DejaVuSans-32"/>
       <use transform="translate(222.65625 0.765625)" xlink:href="#DejaVuSans-38"/>
       <use transform="translate(286.279297 0.765625)" xlink:href="#DejaVuSans-35"/>
       <use transform="translate(349.792969 0.765625)" xlink:href="#DejaVuSans-37"/>
       <use transform="translate(432.898438 0.765625)" xlink:href="#DejaVuSans-d7"/>
       <use transform="translate(536.169922 0.765625)" xlink:href="#DejaVuSans-31"/>
       <use transform="translate(599.792969 0.765625)" xlink:href="#DejaVuSans-30"/>
       <use transform="translate(664.373047 39.046875)scale(0.7)" xlink:href="#DejaVuSans-2212"/>
       <use transform="translate(723.025391 39.046875)scale(0.7)" xlink:href="#DejaVuSans-32"/>
      </g>
     </g>
    </g>
    <g id="xtick_5">
     <g id="line2d_8">
      <g>
       <use style="stroke:#000000;stroke-width:0.6;" x="86.588428" xlink:href="#mdd5a35f0b2" y="291.28"/>
      </g>
     </g>
    </g>
    <g id="xtick_6">
     <g id="line2d_9">
      <g>
       <use style="stroke:#000000;stroke-width:0.6;" x="94.465745" xlink:href="#mdd5a35f0b2" y="291.28"/>
      </g>
     </g>
    </g>
    <g id="xtick_7">
     <g id="line2d_10">
      <g>
       <use style="stroke:#000000;stroke-width:0.6;" x="104.106803" xlink:href="#mdd5a35f0b2" y="291.28"/>
      </g>
     </g>
    </g>
    <g id="xtick_8">
     <g id="line2d_11">
      <g>
       <use style="stroke:#000000;stroke-width:0.6;" x="116.536288" xlink:href="#mdd5a35f0b2" y="291.28"/>
      </g>
     </g>
    </g>
    <g id="xtick_9">
     <g id="line2d_12">
      <g>
       <use style="stroke:#000000;stroke-width:0.6;" x="134.054663" xlink:href="#mdd5a35f0b2" y="291.28"/>
      </g>
     </g>
    </g>
    <g id="xtick_10">
     <g id="line2d_13">
      <g>
       <use style="stroke:#000000;stroke-width:0.6;" x="168.554691" xlink:href="#mdd5a35f0b2" y="291.28"/>
      </g>
     </g>
     <g id="text_5">
      <!-- $\mathdefault{1.11111\times10^{-1}}$ -->
      <g transform="translate(91.454691 311.876875)scale(0.2 -0.2)">
       <use transform="translate(0 0.684375)" xlink:href="#DejaVuSans-31"/>
       <use transform="translate(63.623047 0.684375)" xlink:href="#DejaVuSans-2e"/>
       <use transform="translate(95.410156 0.684375)" xlink:href="#DejaVuSans-31"/>
       <use transform="translate(159.033203 0.684375)" xlink:href="#DejaVuSans-31"/>
       <use transform="translate(222.65625 0.684375)" xlink:href="#DejaVuSans-31"/>
       <use transform="translate(286.279297 0.684375)" xlink:href="#DejaVuSans-31"/>
       <use transform="translate(349.902344 0.684375)" xlink:href="#DejaVuSans-31"/>
       <use transform="translate(433.007812 0.684375)" xlink:href="#DejaVuSans-d7"/>
       <use transform="translate(536.279297 0.684375)" xlink:href="#DejaVuSans-31"/>
       <use transform="translate(599.902344 0.684375)" xlink:href="#DejaVuSans-30"/>
       <use transform="translate(664.482422 38.965625)scale(0.7)" xlink:href="#DejaVuSans-2212"/>
       <use transform="translate(723.134766 38.965625)scale(0.7)" xlink:href="#DejaVuSans-31"/>
      </g>
     </g>
    </g>
    <g id="xtick_11">
     <g id="line2d_14">
      <g>
       <use style="stroke:#000000;stroke-width:0.6;" x="173.643581" xlink:href="#mdd5a35f0b2" y="291.28"/>
      </g>
     </g>
     <g id="text_6">
      <!-- $\mathdefault{1.25\times10^{-1}}$ -->
      <g transform="translate(115.643581 311.876875)scale(0.2 -0.2)">
       <use transform="translate(0 0.684375)" xlink:href="#DejaVuSans-31"/>
       <use transform="translate(63.623047 0.684375)" xlink:href="#DejaVuSans-2e"/>
       <use transform="translate(95.332031 0.684375)" xlink:href="#DejaVuSans-32"/>
       <use transform="translate(158.955078 0.684375)" xlink:href="#DejaVuSans-35"/>
       <use transform="translate(242.060547 0.684375)" xlink:href="#DejaVuSans-d7"/>
       <use transform="translate(345.332031 0.684375)" xlink:href="#DejaVuSans-31"/>
       <use transform="translate(408.955078 0.684375)" xlink:href="#DejaVuSans-30"/>
       <use transform="translate(473.535156 38.965625)scale(0.7)" xlink:href="#DejaVuSans-2212"/>
       <use transform="translate(532.1875 38.965625)scale(0.7)" xlink:href="#DejaVuSans-31"/>
      </g>
     </g>
    </g>
    <g id="xtick_12">
     <g id="line2d_15">
      <g>
       <use style="stroke:#000000;stroke-width:0.6;" x="179.412889" xlink:href="#mdd5a35f0b2" y="291.28"/>
      </g>
     </g>
     <g id="text_7">
      <!-- $\mathdefault{1.42857\times10^{-1}}$ -->
      <g transform="translate(102.312889 311.876875)scale(0.2 -0.2)">
       <use transform="translate(0 0.684375)" xlink:href="#DejaVuSans-31"/>
       <use transform="translate(63.623047 0.684375)" xlink:href="#DejaVuSans-2e"/>
       <use transform="translate(95.410156 0.684375)" xlink:href="#DejaVuSans-34"/>
       <use transform="translate(159.033203 0.684375)" xlink:href="#DejaVuSans-32"/>
       <use transform="translate(222.65625 0.684375)" xlink:href="#DejaVuSans-38"/>
       <use transform="translate(286.279297 0.684375)" xlink:href="#DejaVuSans-35"/>
       <use transform="translate(349.792969 0.684375)" xlink:href="#DejaVuSans-37"/>
       <use transform="translate(432.898438 0.684375)" xlink:href="#DejaVuSans-d7"/>
       <use transform="translate(536.169922 0.684375)" xlink:href="#DejaVuSans-31"/>
       <use transform="translate(599.792969 0.684375)" xlink:href="#DejaVuSans-30"/>
       <use transform="translate(664.373047 38.965625)scale(0.7)" xlink:href="#DejaVuSans-2212"/>
       <use transform="translate(723.025391 38.965625)scale(0.7)" xlink:href="#DejaVuSans-31"/>
      </g>
     </g>
    </g>
    <g id="xtick_13">
     <g id="line2d_16">
      <g>
       <use style="stroke:#000000;stroke-width:0.6;" x="186.073066" xlink:href="#mdd5a35f0b2" y="291.28"/>
      </g>
     </g>
    </g>
    <g id="xtick_14">
     <g id="line2d_17">
      <g>
       <use style="stroke:#000000;stroke-width:0.6;" x="193.950384" xlink:href="#mdd5a35f0b2" y="291.28"/>
      </g>
     </g>
    </g>
    <g id="xtick_15">
     <g id="line2d_18">
      <g>
       <use style="stroke:#000000;stroke-width:0.6;" x="203.591441" xlink:href="#mdd5a35f0b2" y="291.28"/>
      </g>
     </g>
    </g>
    <g id="xtick_16">
     <g id="line2d_19">
      <g>
       <use style="stroke:#000000;stroke-width:0.6;" x="216.020927" xlink:href="#mdd5a35f0b2" y="291.28"/>
      </g>
     </g>
    </g>
    <g id="xtick_17">
     <g id="line2d_20">
      <g>
       <use style="stroke:#000000;stroke-width:0.6;" x="233.539302" xlink:href="#mdd5a35f0b2" y="291.28"/>
      </g>
     </g>
    </g>
    <g id="xtick_18">
     <g id="line2d_21">
      <g>
       <use style="stroke:#000000;stroke-width:0.6;" x="293.435023" xlink:href="#mdd5a35f0b2" y="291.28"/>
      </g>
     </g>
    </g>
    <g id="xtick_19">
     <g id="line2d_22">
      <g>
       <use style="stroke:#000000;stroke-width:0.6;" x="310.953398" xlink:href="#mdd5a35f0b2" y="291.28"/>
      </g>
     </g>
    </g>
    <g id="xtick_20">
     <g id="line2d_23">
      <g>
       <use style="stroke:#000000;stroke-width:0.6;" x="323.382883" xlink:href="#mdd5a35f0b2" y="291.28"/>
      </g>
     </g>
    </g>
    <g id="xtick_21">
     <g id="line2d_24">
      <g>
       <use style="stroke:#000000;stroke-width:0.6;" x="333.023941" xlink:href="#mdd5a35f0b2" y="291.28"/>
      </g>
     </g>
    </g>
    <g id="xtick_22">
     <g id="line2d_25">
      <g>
       <use style="stroke:#000000;stroke-width:0.6;" x="340.901258" xlink:href="#mdd5a35f0b2" y="291.28"/>
      </g>
     </g>
    </g>
    <g id="xtick_23">
     <g id="line2d_26">
      <g>
       <use style="stroke:#000000;stroke-width:0.6;" x="347.561435" xlink:href="#mdd5a35f0b2" y="291.28"/>
      </g>
     </g>
    </g>
    <g id="xtick_24">
     <g id="line2d_27">
      <g>
       <use style="stroke:#000000;stroke-width:0.6;" x="353.330743" xlink:href="#mdd5a35f0b2" y="291.28"/>
      </g>
     </g>
    </g>
    <g id="xtick_25">
     <g id="line2d_28">
      <g>
       <use style="stroke:#000000;stroke-width:0.6;" x="358.419633" xlink:href="#mdd5a35f0b2" y="291.28"/>
      </g>
     </g>
    </g>
    <g id="xtick_26">
     <g id="line2d_29">
      <g>
       <use style="stroke:#000000;stroke-width:0.6;" x="392.919661" xlink:href="#mdd5a35f0b2" y="291.28"/>
      </g>
     </g>
    </g>
    <g id="xtick_27">
     <g id="line2d_30">
      <g>
       <use style="stroke:#000000;stroke-width:0.6;" x="410.438036" xlink:href="#mdd5a35f0b2" y="291.28"/>
      </g>
     </g>
    </g>
    <g id="xtick_28">
     <g id="line2d_31">
      <g>
       <use style="stroke:#000000;stroke-width:0.6;" x="422.867522" xlink:href="#mdd5a35f0b2" y="291.28"/>
      </g>
     </g>
    </g>
    <g id="xtick_29">
     <g id="line2d_32">
      <g>
       <use style="stroke:#000000;stroke-width:0.6;" x="432.508579" xlink:href="#mdd5a35f0b2" y="291.28"/>
      </g>
     </g>
    </g>
    <g id="xtick_30">
     <g id="line2d_33">
      <g>
       <use style="stroke:#000000;stroke-width:0.6;" x="440.385897" xlink:href="#mdd5a35f0b2" y="291.28"/>
      </g>
     </g>
    </g>
    <g id="xtick_31">
     <g id="line2d_34">
      <g>
       <use style="stroke:#000000;stroke-width:0.6;" x="447.046074" xlink:href="#mdd5a35f0b2" y="291.28"/>
      </g>
     </g>
    </g>
    <g id="text_8">
     <!-- log10 of FEvals ratio -->
     <defs>
      <path d="M 9.421875 75.984375 
L 18.40625 75.984375 
L 18.40625 0 
L 9.421875 0 
z
" id="DejaVuSans-6c"/>
      <path d="M 30.609375 48.390625 
Q 23.390625 48.390625 19.1875 42.75 
Q 14.984375 37.109375 14.984375 27.296875 
Q 14.984375 17.484375 19.15625 11.84375 
Q 23.34375 6.203125 30.609375 6.203125 
Q 37.796875 6.203125 41.984375 11.859375 
Q 46.1875 17.53125 46.1875 27.296875 
Q 46.1875 37.015625 41.984375 42.703125 
Q 37.796875 48.390625 30.609375 48.390625 
z
M 30.609375 56 
Q 42.328125 56 49.015625 48.375 
Q 55.71875 40.765625 55.71875 27.296875 
Q 55.71875 13.875 49.015625 6.21875 
Q 42.328125 -1.421875 30.609375 -1.421875 
Q 18.84375 -1.421875 12.171875 6.21875 
Q 5.515625 13.875 5.515625 27.296875 
Q 5.515625 40.765625 12.171875 48.375 
Q 18.84375 56 30.609375 56 
z
" id="DejaVuSans-6f"/>
      <path d="M 45.40625 27.984375 
Q 45.40625 37.75 41.375 43.109375 
Q 37.359375 48.484375 30.078125 48.484375 
Q 22.859375 48.484375 18.828125 43.109375 
Q 14.796875 37.75 14.796875 27.984375 
Q 14.796875 18.265625 18.828125 12.890625 
Q 22.859375 7.515625 30.078125 7.515625 
Q 37.359375 7.515625 41.375 12.890625 
Q 45.40625 18.265625 45.40625 27.984375 
z
M 54.390625 6.78125 
Q 54.390625 -7.171875 48.1875 -13.984375 
Q 42 -20.796875 29.203125 -20.796875 
Q 24.46875 -20.796875 20.265625 -20.09375 
Q 16.0625 -19.390625 12.109375 -17.921875 
L 12.109375 -9.1875 
Q 16.0625 -11.328125 19.921875 -12.34375 
Q 23.78125 -13.375 27.78125 -13.375 
Q 36.625 -13.375 41.015625 -8.765625 
Q 45.40625 -4.15625 45.40625 5.171875 
L 45.40625 9.625 
Q 42.625 4.78125 38.28125 2.390625 
Q 33.9375 0 27.875 0 
Q 17.828125 0 11.671875 7.65625 
Q 5.515625 15.328125 5.515625 27.984375 
Q 5.515625 40.671875 11.671875 48.328125 
Q 17.828125 56 27.875 56 
Q 33.9375 56 38.28125 53.609375 
Q 42.625 51.21875 45.40625 46.390625 
L 45.40625 54.6875 
L 54.390625 54.6875 
z
" id="DejaVuSans-67"/>
      <path id="DejaVuSans-20"/>
      <path d="M 37.109375 75.984375 
L 37.109375 68.5 
L 28.515625 68.5 
Q 23.6875 68.5 21.796875 66.546875 
Q 19.921875 64.59375 19.921875 59.515625 
L 19.921875 54.6875 
L 34.71875 54.6875 
L 34.71875 47.703125 
L 19.921875 47.703125 
L 19.921875 0 
L 10.890625 0 
L 10.890625 47.703125 
L 2.296875 47.703125 
L 2.296875 54.6875 
L 10.890625 54.6875 
L 10.890625 58.5 
Q 10.890625 67.625 15.140625 71.796875 
Q 19.390625 75.984375 28.609375 75.984375 
z
" id="DejaVuSans-66"/>
      <path d="M 9.8125 72.90625 
L 51.703125 72.90625 
L 51.703125 64.59375 
L 19.671875 64.59375 
L 19.671875 43.109375 
L 48.578125 43.109375 
L 48.578125 34.8125 
L 19.671875 34.8125 
L 19.671875 0 
L 9.8125 0 
z
" id="DejaVuSans-46"/>
      <path d="M 9.8125 72.90625 
L 55.90625 72.90625 
L 55.90625 64.59375 
L 19.671875 64.59375 
L 19.671875 43.015625 
L 54.390625 43.015625 
L 54.390625 34.71875 
L 19.671875 34.71875 
L 19.671875 8.296875 
L 56.78125 8.296875 
L 56.78125 0 
L 9.8125 0 
z
" id="DejaVuSans-45"/>
      <path d="M 2.984375 54.6875 
L 12.5 54.6875 
L 29.59375 8.796875 
L 46.6875 54.6875 
L 56.203125 54.6875 
L 35.6875 0 
L 23.484375 0 
z
" id="DejaVuSans-76"/>
      <path d="M 34.28125 27.484375 
Q 23.390625 27.484375 19.1875 25 
Q 14.984375 22.515625 14.984375 16.5 
Q 14.984375 11.71875 18.140625 8.90625 
Q 21.296875 6.109375 26.703125 6.109375 
Q 34.1875 6.109375 38.703125 11.40625 
Q 43.21875 16.703125 43.21875 25.484375 
L 43.21875 27.484375 
z
M 52.203125 31.203125 
L 52.203125 0 
L 43.21875 0 
L 43.21875 8.296875 
Q 40.140625 3.328125 35.546875 0.953125 
Q 30.953125 -1.421875 24.3125 -1.421875 
Q 15.921875 -1.421875 10.953125 3.296875 
Q 6 8.015625 6 15.921875 
Q 6 25.140625 12.171875 29.828125 
Q 18.359375 34.515625 30.609375 34.515625 
L 43.21875 34.515625 
L 43.21875 35.40625 
Q 43.21875 41.609375 39.140625 45 
Q 35.0625 48.390625 27.6875 48.390625 
Q 23 48.390625 18.546875 47.265625 
Q 14.109375 46.140625 10.015625 43.890625 
L 10.015625 52.203125 
Q 14.9375 54.109375 19.578125 55.046875 
Q 24.21875 56 28.609375 56 
Q 40.484375 56 46.34375 49.84375 
Q 52.203125 43.703125 52.203125 31.203125 
z
" id="DejaVuSans-61"/>
      <path d="M 44.28125 53.078125 
L 44.28125 44.578125 
Q 40.484375 46.53125 36.375 47.5 
Q 32.28125 48.484375 27.875 48.484375 
Q 21.1875 48.484375 17.84375 46.4375 
Q 14.5 44.390625 14.5 40.28125 
Q 14.5 37.15625 16.890625 35.375 
Q 19.28125 33.59375 26.515625 31.984375 
L 29.59375 31.296875 
Q 39.15625 29.25 43.1875 25.515625 
Q 47.21875 21.78125 47.21875 15.09375 
Q 47.21875 7.46875 41.1875 3.015625 
Q 35.15625 -1.421875 24.609375 -1.421875 
Q 20.21875 -1.421875 15.453125 -0.5625 
Q 10.6875 0.296875 5.421875 2 
L 5.421875 11.28125 
Q 10.40625 8.6875 15.234375 7.390625 
Q 20.0625 6.109375 24.8125 6.109375 
Q 31.15625 6.109375 34.5625 8.28125 
Q 37.984375 10.453125 37.984375 14.40625 
Q 37.984375 18.0625 35.515625 20.015625 
Q 33.0625 21.96875 24.703125 23.78125 
L 21.578125 24.515625 
Q 13.234375 26.265625 9.515625 29.90625 
Q 5.8125 33.546875 5.8125 39.890625 
Q 5.8125 47.609375 11.28125 51.796875 
Q 16.75 56 26.8125 56 
Q 31.78125 56 36.171875 55.265625 
Q 40.578125 54.546875 44.28125 53.078125 
z
" id="DejaVuSans-73"/>
      <path d="M 41.109375 46.296875 
Q 39.59375 47.171875 37.8125 47.578125 
Q 36.03125 48 33.890625 48 
Q 26.265625 48 22.1875 43.046875 
Q 18.109375 38.09375 18.109375 28.8125 
L 18.109375 0 
L 9.078125 0 
L 9.078125 54.6875 
L 18.109375 54.6875 
L 18.109375 46.1875 
Q 20.953125 51.171875 25.484375 53.578125 
Q 30.03125 56 36.53125 56 
Q 37.453125 56 38.578125 55.875 
Q 39.703125 55.765625 41.0625 55.515625 
z
" id="DejaVuSans-72"/>
      <path d="M 18.3125 70.21875 
L 18.3125 54.6875 
L 36.8125 54.6875 
L 36.8125 47.703125 
L 18.3125 47.703125 
L 18.3125 18.015625 
Q 18.3125 11.328125 20.140625 9.421875 
Q 21.96875 7.515625 27.59375 7.515625 
L 36.8125 7.515625 
L 36.8125 0 
L 27.59375 0 
Q 17.1875 0 13.234375 3.875 
Q 9.28125 7.765625 9.28125 18.015625 
L 9.28125 47.703125 
L 2.6875 47.703125 
L 2.6875 54.6875 
L 9.28125 54.6875 
L 9.28125 70.21875 
z
" id="DejaVuSans-74"/>
      <path d="M 9.421875 54.6875 
L 18.40625 54.6875 
L 18.40625 0 
L 9.421875 0 
z
M 9.421875 75.984375 
L 18.40625 75.984375 
L 18.40625 64.59375 
L 9.421875 64.59375 
z
" id="DejaVuSans-69"/>
     </defs>
     <g transform="translate(161.182475 336.833125)scale(0.2 -0.2)">
      <use xlink:href="#DejaVuSans-6c"/>
      <use x="27.783203" xlink:href="#DejaVuSans-6f"/>
      <use x="88.964844" xlink:href="#DejaVuSans-67"/>
      <use x="152.441406" xlink:href="#DejaVuSans-31"/>
      <use x="216.064453" xlink:href="#DejaVuSans-30"/>
      <use x="279.6875" xlink:href="#DejaVuSans-20"/>
      <use x="311.474609" xlink:href="#DejaVuSans-6f"/>
      <use x="372.65625" xlink:href="#DejaVuSans-66"/>
      <use x="407.861328" xlink:href="#DejaVuSans-20"/>
      <use x="439.648438" xlink:href="#DejaVuSans-46"/>
      <use x="497.167969" xlink:href="#DejaVuSans-45"/>
      <use x="560.351562" xlink:href="#DejaVuSans-76"/>
      <use x="619.53125" xlink:href="#DejaVuSans-61"/>
      <use x="680.810547" xlink:href="#DejaVuSans-6c"/>
      <use x="708.59375" xlink:href="#DejaVuSans-73"/>
      <use x="760.693359" xlink:href="#DejaVuSans-20"/>
      <use x="792.480469" xlink:href="#DejaVuSans-72"/>
      <use x="833.59375" xlink:href="#DejaVuSans-61"/>
      <use x="894.873047" xlink:href="#DejaVuSans-74"/>
      <use x="934.082031" xlink:href="#DejaVuSans-69"/>
      <use x="961.865234" xlink:href="#DejaVuSans-6f"/>
     </g>
    </g>
   </g>
   <g id="matplotlib.axis_2">
    <g id="ytick_1">
     <g id="line2d_35">
      <path clip-path="url(#ped9a01158a)" d="M 76.302324 288.478431 
L 450.672 288.478431 
" style="fill:none;stroke:#b0b0b0;stroke-linecap:square;stroke-width:0.8;"/>
     </g>
     <g id="line2d_36">
      <defs>
       <path d="M 0 0 
L -3.5 0 
" id="mb2f7e779a6" style="stroke:#000000;stroke-width:0.8;"/>
      </defs>
      <g>
       <use style="stroke:#000000;stroke-width:0.8;" x="76.302324" xlink:href="#mb2f7e779a6" y="288.478431"/>
      </g>
     </g>
    </g>
    <g id="ytick_2">
     <g id="line2d_37">
      <path clip-path="url(#ped9a01158a)" d="M 76.302324 218.439216 
L 450.672 218.439216 
" style="fill:none;stroke:#b0b0b0;stroke-linecap:square;stroke-width:0.8;"/>
     </g>
     <g id="line2d_38">
      <g>
       <use style="stroke:#000000;stroke-width:0.8;" x="76.302324" xlink:href="#mb2f7e779a6" y="218.439216"/>
      </g>
     </g>
    </g>
    <g id="ytick_3">
     <g id="line2d_39">
      <path clip-path="url(#ped9a01158a)" d="M 76.302324 148.4 
L 450.672 148.4 
" style="fill:none;stroke:#b0b0b0;stroke-linecap:square;stroke-width:0.8;"/>
     </g>
     <g id="line2d_40">
      <g>
       <use style="stroke:#000000;stroke-width:0.8;" x="76.302324" xlink:href="#mb2f7e779a6" y="148.4"/>
      </g>
     </g>
    </g>
    <g id="ytick_4">
     <g id="line2d_41">
      <path clip-path="url(#ped9a01158a)" d="M 76.302324 78.360784 
L 450.672 78.360784 
" style="fill:none;stroke:#b0b0b0;stroke-linecap:square;stroke-width:0.8;"/>
     </g>
     <g id="line2d_42">
      <g>
       <use style="stroke:#000000;stroke-width:0.8;" x="76.302324" xlink:href="#mb2f7e779a6" y="78.360784"/>
      </g>
     </g>
    </g>
    <g id="ytick_5">
     <g id="line2d_43">
      <path clip-path="url(#ped9a01158a)" d="M 76.302324 8.321569 
L 450.672 8.321569 
" style="fill:none;stroke:#b0b0b0;stroke-linecap:square;stroke-width:0.8;"/>
     </g>
     <g id="line2d_44">
      <g>
       <use style="stroke:#000000;stroke-width:0.8;" x="76.302324" xlink:href="#mb2f7e779a6" y="8.321569"/>
      </g>
     </g>
    </g>
    <g id="text_9">
     <!-- proportion of trials -->
     <defs>
      <path d="M 18.109375 8.203125 
L 18.109375 -20.796875 
L 9.078125 -20.796875 
L 9.078125 54.6875 
L 18.109375 54.6875 
L 18.109375 46.390625 
Q 20.953125 51.265625 25.265625 53.625 
Q 29.59375 56 35.59375 56 
Q 45.5625 56 51.78125 48.09375 
Q 58.015625 40.1875 58.015625 27.296875 
Q 58.015625 14.40625 51.78125 6.484375 
Q 45.5625 -1.421875 35.59375 -1.421875 
Q 29.59375 -1.421875 25.265625 0.953125 
Q 20.953125 3.328125 18.109375 8.203125 
z
M 48.6875 27.296875 
Q 48.6875 37.203125 44.609375 42.84375 
Q 40.53125 48.484375 33.40625 48.484375 
Q 26.265625 48.484375 22.1875 42.84375 
Q 18.109375 37.203125 18.109375 27.296875 
Q 18.109375 17.390625 22.1875 11.75 
Q 26.265625 6.109375 33.40625 6.109375 
Q 40.53125 6.109375 44.609375 11.75 
Q 48.6875 17.390625 48.6875 27.296875 
z
" id="DejaVuSans-70"/>
      <path d="M 54.890625 33.015625 
L 54.890625 0 
L 45.90625 0 
L 45.90625 32.71875 
Q 45.90625 40.484375 42.875 44.328125 
Q 39.84375 48.1875 33.796875 48.1875 
Q 26.515625 48.1875 22.3125 43.546875 
Q 18.109375 38.921875 18.109375 30.90625 
L 18.109375 0 
L 9.078125 0 
L 9.078125 54.6875 
L 18.109375 54.6875 
L 18.109375 46.1875 
Q 21.34375 51.125 25.703125 53.5625 
Q 30.078125 56 35.796875 56 
Q 45.21875 56 50.046875 50.171875 
Q 54.890625 44.34375 54.890625 33.015625 
z
" id="DejaVuSans-6e"/>
     </defs>
     <g transform="translate(61.142949 241.628125)rotate(-90)scale(0.2 -0.2)">
      <use xlink:href="#DejaVuSans-70"/>
      <use x="63.476562" xlink:href="#DejaVuSans-72"/>
      <use x="104.558594" xlink:href="#DejaVuSans-6f"/>
      <use x="165.740234" xlink:href="#DejaVuSans-70"/>
      <use x="229.216797" xlink:href="#DejaVuSans-6f"/>
      <use x="290.398438" xlink:href="#DejaVuSans-72"/>
      <use x="331.511719" xlink:href="#DejaVuSans-74"/>
      <use x="370.720703" xlink:href="#DejaVuSans-69"/>
      <use x="398.503906" xlink:href="#DejaVuSans-6f"/>
      <use x="459.685547" xlink:href="#DejaVuSans-6e"/>
      <use x="523.064453" xlink:href="#DejaVuSans-20"/>
      <use x="554.851562" xlink:href="#DejaVuSans-6f"/>
      <use x="616.033203" xlink:href="#DejaVuSans-66"/>
      <use x="651.238281" xlink:href="#DejaVuSans-20"/>
      <use x="683.025391" xlink:href="#DejaVuSans-74"/>
      <use x="722.234375" xlink:href="#DejaVuSans-72"/>
      <use x="763.347656" xlink:href="#DejaVuSans-69"/>
      <use x="791.130859" xlink:href="#DejaVuSans-61"/>
      <use x="852.410156" xlink:href="#DejaVuSans-6c"/>
      <use x="880.193359" xlink:href="#DejaVuSans-73"/>
     </g>
    </g>
   </g>
   <g id="line2d_45">
    <path clip-path="url(#ped9a01158a)" d="M 76.302324 265.792207 
L 92.213549 265.792207 
L 92.213549 265.672174 
L 94.460023 265.672174 
L 94.460023 265.552141 
L 97.420065 265.552141 
L 97.420065 265.432108 
L 106.405868 265.432108 
L 106.405868 265.312076 
L 114.42692 265.312076 
L 114.42692 265.192043 
L 116.673394 265.192043 
L 116.673394 265.07201 
L 119.633436 265.07201 
L 119.633436 264.951977 
L 122.912068 264.951977 
L 122.912068 264.831944 
L 128.61924 264.831944 
L 128.61924 264.711911 
L 131.457739 264.711911 
L 131.457739 264.591878 
L 133.704213 264.591878 
L 133.704213 264.471845 
L 136.664255 264.471845 
L 136.664255 264.351812 
L 139.63207 264.351812 
L 139.63207 264.111746 
L 141.878544 264.111746 
L 141.878544 263.87168 
L 144.838586 263.87168 
L 144.838586 263.631614 
L 145.125439 263.631614 
L 145.125439 263.511582 
L 145.43823 263.511582 
L 145.43823 263.391549 
L 145.650059 263.391549 
L 145.650059 263.271516 
L 145.763878 263.271516 
L 145.763878 263.151483 
L 148.010352 263.151483 
L 148.010352 263.03145 
L 149.465029 263.03145 
L 149.465029 262.791384 
L 150.269907 262.791384 
L 150.269907 262.671351 
L 150.970394 262.671351 
L 150.970394 262.551318 
L 152.66691 262.551318 
L 152.66691 262.311252 
L 153.824389 262.311252 
L 153.824389 262.071186 
L 156.208741 262.071186 
L 156.208741 261.951153 
L 157.860691 261.951153 
L 157.860691 261.831121 
L 158.973343 261.831121 
L 158.973343 261.711088 
L 159.938872 261.711088 
L 159.956198 261.471022 
L 160.107165 261.471022 
L 160.107165 261.350989 
L 161.219818 261.350989 
L 161.219818 261.230956 
L 161.980794 261.230956 
L 161.980794 261.110923 
L 162.156258 261.110923 
L 162.185347 260.870857 
L 163.067206 260.870857 
L 163.067206 260.750824 
L 164.002524 260.750824 
L 164.002524 260.510758 
L 164.179859 260.510758 
L 164.179859 260.390725 
L 165.10245 260.390725 
L 165.145388 260.150659 
L 165.397536 260.150659 
L 165.397536 260.030627 
L 167.651601 260.030627 
L 167.651601 259.910594 
L 168.554691 259.910594 
L 168.554691 259.430462 
L 169.412513 259.430462 
L 169.412513 259.310429 
L 170.330589 259.310429 
L 170.330589 259.070363 
L 171.658987 259.070363 
L 171.658987 258.95033 
L 172.05301 258.95033 
L 172.05301 258.830297 
L 173.165663 258.830297 
L 173.165663 258.710264 
L 173.643581 258.710264 
L 173.643581 258.470198 
L 174.131192 258.470198 
L 174.131192 258.350165 
L 174.619028 258.350165 
L 174.619028 258.230133 
L 176.462397 258.230133 
L 176.471372 257.990067 
L 177.376958 257.990067 
L 177.396023 257.750001 
L 178.302261 257.750001 
L 178.302261 257.629968 
L 178.422112 257.629968 
L 178.422112 257.509935 
L 178.717846 257.509935 
L 178.749173 257.269869 
L 179.412889 257.269869 
L 179.412889 256.669704 
L 180.061123 256.669704 
L 180.129417 256.429639 
L 180.175898 256.429639 
L 180.175898 256.309606 
L 181.343925 256.309606 
L 181.343925 256.189573 
L 181.677888 256.189573 
L 181.728608 255.949507 
L 182.097332 255.949507 
L 182.097332 255.829474 
L 182.584259 255.829474 
L 182.614771 255.349342 
L 183.441164 255.349342 
L 183.441164 255.229309 
L 183.604832 255.229309 
L 183.604832 255.109276 
L 183.793196 255.109276 
L 183.793196 254.989243 
L 183.951063 254.989243 
L 183.951063 254.86921 
L 184.404037 254.86921 
L 184.404037 254.749178 
L 184.68242 254.749178 
L 184.68242 254.629145 
L 184.794313 254.629145 
L 184.794313 254.509112 
L 185.007704 254.509112 
L 185.007704 254.389079 
L 185.761111 254.389079 
L 185.761111 254.269046 
L 186.106263 254.269046 
L 186.106263 254.149013 
L 186.48416 254.149013 
L 186.48416 254.02898 
L 186.668658 254.02898 
L 186.668658 253.908947 
L 187.693721 253.908947 
L 187.693721 253.788914 
L 187.846118 253.788914 
L 187.846118 253.668881 
L 188.104835 253.668881 
L 188.104835 253.548848 
L 188.55921 253.548848 
L 188.55921 253.428815 
L 189.025037 253.428815 
L 189.025037 253.308782 
L 189.671862 253.308782 
L 189.671862 253.188749 
L 190.124781 253.188749 
L 190.124781 253.068717 
L 190.30246 253.068717 
L 190.30246 252.948684 
L 190.637392 252.948684 
L 190.663692 252.708618 
L 191.3575 252.708618 
L 191.3575 252.588585 
L 191.483055 252.588585 
L 191.483055 252.468552 
L 191.611364 252.468552 
L 191.611364 252.348519 
L 192.309467 252.348519 
L 192.371255 252.108453 
L 192.548934 252.108453 
L 192.548934 251.98842 
L 192.683081 251.98842 
L 192.704489 251.628321 
L 192.856751 251.628321 
L 192.856751 251.388255 
L 193.053493 251.388255 
L 193.053493 251.268223 
L 193.729529 251.268223 
L 193.729529 251.14819 
L 193.888411 251.14819 
L 193.950384 250.427992 
L 194.057638 250.427992 
L 194.057638 250.307959 
L 195.331297 250.307959 
L 195.369588 250.067893 
L 195.452932 250.067893 
L 195.508976 249.827827 
L 195.973246 249.827827 
L 195.973246 249.707794 
L 196.346861 249.707794 
L 196.346861 249.587761 
L 196.689571 249.587761 
L 196.717272 249.347696 
L 196.931264 249.347696 
L 196.931264 249.10763 
L 197.55219 249.10763 
L 197.55219 248.987597 
L 198.087708 248.987597 
L 198.087708 248.867564 
L 198.267221 248.867564 
L 198.356114 248.507465 
L 198.502551 248.507465 
L 198.502551 247.787268 
L 198.988559 247.787268 
L 198.988559 247.667235 
L 199.211765 247.667235 
L 199.211765 247.547202 
L 199.59033 247.547202 
L 199.59033 247.427169 
L 199.946685 247.427169 
L 199.946685 247.307136 
L 200.111032 247.307136 
L 200.206179 246.827004 
L 200.566926 246.827004 
L 200.647023 246.466905 
L 200.802336 246.466905 
L 200.802336 246.346872 
L 200.919514 246.346872 
L 200.919514 246.226839 
L 201.06183 246.226839 
L 201.06183 246.106806 
L 201.751487 246.106806 
L 201.751487 245.986774 
L 201.920075 245.986774 
L 201.920075 245.866741 
L 202.16914 245.866741 
L 202.16914 245.746708 
L 202.428634 245.746708 
L 202.428634 245.626675 
L 203.232025 245.626675 
L 203.296164 245.386609 
L 203.591441 245.386609 
L 203.627262 244.426345 
L 204.317101 244.426345 
L 204.317101 244.306312 
L 204.49478 244.306312 
L 204.49478 244.18628 
L 204.886735 244.18628 
L 204.886735 244.066247 
L 205.146229 244.066247 
L 205.146229 243.946214 
L 205.578407 243.946214 
L 205.675375 243.706148 
L 205.709106 243.706148 
L 205.794831 243.466082 
L 205.937208 243.466082 
L 205.937208 243.346049 
L 206.287053 243.346049 
L 206.287053 243.226016 
L 206.434058 243.226016 
L 206.434058 243.105983 
L 207.169891 243.105983 
L 207.169891 242.98595 
L 207.658776 242.98595 
L 207.658776 242.865917 
L 207.800861 242.865917 
L 207.800861 242.745884 
L 208.696518 242.745884 
L 208.696518 242.625851 
L 209.314367 242.625851 
L 209.360749 242.025687 
L 209.656385 242.025687 
L 209.75907 241.785621 
L 210.049668 241.785621 
L 210.049668 241.665588 
L 210.518457 241.665588 
L 210.518457 241.545555 
L 211.085372 241.545555 
L 211.195027 241.305489 
L 211.361618 241.305489 
L 211.468759 240.94539 
L 211.973038 240.94539 
L 211.973038 240.825357 
L 212.198024 240.825357 
L 212.198024 240.705325 
L 212.562631 240.705325 
L 212.562631 240.585292 
L 212.680753 240.585292 
L 212.680753 240.465259 
L 212.828689 240.465259 
L 212.828689 240.345226 
L 213.055789 240.345226 
L 213.163553 240.10516 
L 213.824735 240.10516 
L 213.824735 239.985127 
L 214.108655 239.985127 
L 214.195493 239.745061 
L 216.020927 239.745061 
L 216.020927 238.784798 
L 216.621149 238.784798 
L 216.621149 238.664765 
L 216.913088 238.664765 
L 216.913088 238.544732 
L 219.443471 238.544732 
L 219.443471 238.424699 
L 220.046047 238.424699 
L 220.046047 238.304666 
L 220.295011 238.304666 
L 220.298713 238.0646 
L 220.8233 238.0646 
L 220.8233 237.944567 
L 221.000979 237.944567 
L 221.109817 237.584468 
L 221.64816 237.584468 
L 221.662562 237.344402 
L 221.855883 237.344402 
L 221.855883 237.22437 
L 222.181574 237.22437 
L 222.181574 237.104337 
L 222.637194 237.104337 
L 222.637194 236.984304 
L 222.96011 236.984304 
L 223.063165 236.624205 
L 223.898244 236.624205 
L 223.934065 236.02404 
L 224.795479 236.02404 
L 224.795479 235.783974 
L 225.804813 235.783974 
L 225.847019 235.543908 
L 226.010976 235.543908 
L 226.010976 235.423876 
L 226.879125 235.423876 
L 226.879125 235.063777 
L 227.573812 235.063777 
L 227.584163 234.823711 
L 228.136257 234.823711 
L 228.136257 234.703678 
L 228.450412 234.703678 
L 228.450412 234.463612 
L 229.067849 234.463612 
L 229.067849 234.343579 
L 229.250103 234.343579 
L 229.250103 234.223546 
L 229.377256 234.223546 
L 229.377256 234.103513 
L 229.696053 234.103513 
L 229.696053 233.98348 
L 229.918077 233.98348 
L 229.964956 233.743414 
L 230.081006 233.743414 
L 230.081006 233.623382 
L 230.382731 233.623382 
L 230.382731 233.503349 
L 230.855554 233.503349 
L 230.927288 233.14325 
L 231.250893 233.14325 
L 231.250893 233.023217 
L 231.691749 233.023217 
L 231.691749 232.903184 
L 233.342773 232.903184 
L 233.407705 232.663118 
L 233.539302 232.663118 
L 233.539302 231.582822 
L 233.965817 231.582822 
L 233.965817 231.462789 
L 234.180664 231.462789 
L 234.279686 231.222723 
L 234.549768 231.222723 
L 234.549768 231.10269 
L 235.094873 231.10269 
L 235.094873 230.982657 
L 235.240883 230.982657 
L 235.240883 230.862624 
L 235.479032 230.862624 
L 235.479032 230.742591 
L 235.590728 230.742591 
L 235.590728 230.622558 
L 236.092276 230.622558 
L 236.092276 230.502525 
L 236.322026 230.502525 
L 236.322026 230.382492 
L 236.575327 230.382492 
L 236.575327 230.262459 
L 236.741183 230.262459 
L 236.741183 230.142427 
L 236.917174 230.142427 
L 236.962451 229.902361 
L 237.100507 229.902361 
L 237.100507 229.782328 
L 237.267019 229.782328 
L 237.364747 229.542262 
L 237.559155 229.542262 
L 237.559155 229.422229 
L 237.725198 229.422229 
L 237.725198 229.302196 
L 237.859055 229.302196 
L 237.950734 229.06213 
L 238.618042 229.06213 
L 238.638742 228.822064 
L 238.921113 228.822064 
L 239.029885 228.461965 
L 239.17983 228.461965 
L 239.17983 228.341933 
L 239.30861 228.341933 
L 239.35882 227.981834 
L 239.442204 227.981834 
L 239.442204 227.861801 
L 239.708665 227.861801 
L 239.708665 227.741768 
L 240.294332 227.741768 
L 240.294332 227.621735 
L 240.466565 227.621735 
L 240.466565 227.501702 
L 241.080387 227.501702 
L 241.080387 227.381669 
L 241.416619 227.381669 
L 241.416619 227.02157 
L 241.656842 227.02157 
L 241.656842 226.901537 
L 241.915289 226.901537 
L 241.998474 226.421406 
L 242.213321 226.421406 
L 242.296602 226.18134 
L 242.328577 226.18134 
L 242.332443 225.941274 
L 242.510491 225.941274 
L 242.510491 225.821241 
L 242.735978 225.821241 
L 242.835632 225.581175 
L 243.0241 225.581175 
L 243.12753 225.221076 
L 243.349462 225.221076 
L 243.349462 225.101043 
L 243.527141 225.101043 
L 243.574739 224.860978 
L 243.668324 224.860978 
L 243.668324 224.740945 
L 243.789426 224.740945 
L 243.8713 224.500879 
L 244.136753 224.500879 
L 244.20608 224.260813 
L 244.3975 224.260813 
L 244.3975 224.14078 
L 244.657619 224.14078 
L 244.721527 223.780681 
L 245.102282 223.780681 
L 245.161693 223.420582 
L 245.225728 223.420582 
L 245.323915 223.180516 
L 245.757793 223.180516 
L 245.757856 222.940451 
L 245.968787 222.940451 
L 245.968787 221.980187 
L 246.531735 221.980187 
L 246.608021 221.740121 
L 246.70422 221.740121 
L 246.70422 221.620088 
L 246.816503 221.620088 
L 246.896348 221.25999 
L 246.947993 221.25999 
L 247.004179 221.019924 
L 247.086607 221.019924 
L 247.111789 220.779858 
L 247.474862 220.779858 
L 247.474862 220.659825 
L 247.599382 220.659825 
L 247.599382 220.539792 
L 247.746575 220.539792 
L 247.791492 220.299726 
L 248.076797 220.299726 
L 248.076797 220.179693 
L 248.331698 220.179693 
L 248.43422 219.939627 
L 248.769268 219.939627 
L 248.842994 219.699561 
L 248.984115 219.699561 
L 248.984115 219.579529 
L 249.342216 219.579529 
L 249.353426 219.21943 
L 249.602388 219.21943 
L 249.602388 219.099397 
L 249.748824 219.099397 
L 249.835618 218.859331 
L 249.898323 218.859331 
L 249.898323 218.739298 
L 250.203653 218.739298 
L 250.203653 218.619265 
L 250.337567 218.619265 
L 250.337567 218.499232 
L 250.514342 218.499232 
L 250.514342 218.379199 
L 250.655761 218.379199 
L 250.655761 218.259166 
L 250.870608 218.259166 
L 250.966237 218.0191 
L 251.009962 218.0191 
L 251.057677 217.298903 
L 251.128217 217.298903 
L 251.128217 217.17887 
L 251.278678 217.17887 
L 251.278678 217.058837 
L 251.593956 217.058837 
L 251.607397 216.818771 
L 251.722018 216.818771 
L 251.822084 216.338639 
L 251.8763 216.338639 
L 251.8763 216.218606 
L 251.994509 216.218606 
L 252.067844 215.858508 
L 252.135017 215.858508 
L 252.135017 215.738475 
L 252.327228 215.738475 
L 252.327228 215.618442 
L 252.528649 215.618442 
L 252.628964 215.258343 
L 252.642527 215.258343 
L 252.642527 215.13831 
L 252.808464 215.13831 
L 252.834946 214.778211 
L 252.923371 214.778211 
L 253.015387 214.418112 
L 253.067604 214.418112 
L 253.177456 214.058014 
L 253.1886 214.058014 
L 253.202833 213.817948 
L 253.352845 213.817948 
L 253.352845 213.697915 
L 253.467659 213.697915 
L 253.561871 213.457849 
L 253.720324 213.457849 
L 253.720324 213.337816 
L 253.846105 213.337816 
L 253.865615 212.977717 
L 254.015871 212.977717 
L 254.119973 212.617618 
L 254.198806 212.617618 
L 254.297653 212.137487 
L 254.415143 212.137487 
L 254.466241 211.897421 
L 254.548651 211.897421 
L 254.616889 211.417289 
L 254.793404 211.417289 
L 254.793404 211.297256 
L 255.052898 211.297256 
L 255.150694 210.577059 
L 255.380449 210.577059 
L 255.478248 210.336993 
L 255.553697 210.336993 
L 255.553697 210.21696 
L 255.820091 210.21696 
L 255.920373 209.856861 
L 255.984659 209.856861 
L 256.091268 209.496762 
L 256.132149 209.496762 
L 256.132149 209.376729 
L 256.269485 209.376729 
L 256.308261 209.136663 
L 256.46543 209.136663 
L 256.528396 208.896598 
L 256.784101 208.896598 
L 256.887838 208.056367 
L 256.973434 208.056367 
L 257.041696 207.816301 
L 257.141771 207.816301 
L 257.225196 207.576235 
L 257.258505 207.576235 
L 257.348798 207.216137 
L 257.430425 207.216137 
L 257.440043 206.976071 
L 257.575964 206.976071 
L 257.67211 206.736005 
L 257.717854 206.736005 
L 257.823662 206.495939 
L 257.89901 206.495939 
L 257.983409 206.13584 
L 258.010775 206.13584 
L 258.09009 205.895774 
L 258.128202 205.895774 
L 258.236755 205.655708 
L 258.260646 205.655708 
L 258.371158 205.29561 
L 258.37819 205.29561 
L 258.477043 204.815478 
L 258.564129 204.815478 
L 258.592877 204.575412 
L 258.687661 204.575412 
L 258.687661 204.455379 
L 258.834776 204.455379 
L 258.934995 204.215313 
L 259.042411 204.215313 
L 259.042411 204.09528 
L 259.15826 204.09528 
L 259.268631 203.735182 
L 259.33207 203.735182 
L 259.336687 203.495116 
L 259.469541 203.495116 
L 259.544074 203.135017 
L 259.68171 203.135017 
L 259.785504 202.774918 
L 259.959393 202.774918 
L 260.028867 202.534852 
L 260.110392 202.534852 
L 260.134283 202.294786 
L 260.264684 202.294786 
L 260.264684 202.174753 
L 260.425125 202.174753 
L 260.489576 201.814655 
L 260.600054 201.814655 
L 260.600054 201.694622 
L 260.715775 201.694622 
L 260.799041 201.334523 
L 260.843169 201.334523 
L 260.949899 200.854391 
L 260.984578 200.854391 
L 261.03486 200.494292 
L 261.403238 200.494292 
L 261.403238 200.374259 
L 261.527176 200.374259 
L 261.634782 199.894128 
L 261.672737 199.894128 
L 261.672737 199.774095 
L 261.845887 199.774095 
L 261.890058 199.17393 
L 262.029799 199.17393 
L 262.086249 198.933864 
L 262.212369 198.933864 
L 262.321622 198.453733 
L 262.34681 198.453733 
L 262.451006 198.213667 
L 262.624034 198.213667 
L 262.721644 197.613502 
L 262.826605 197.613502 
L 262.91912 197.373436 
L 262.984441 197.373436 
L 263.000458 197.13337 
L 263.13797 197.13337 
L 263.13797 197.013337 
L 263.325646 197.013337 
L 263.433256 196.29314 
L 263.443805 196.29314 
L 263.487162 166.765039 
L 263.593711 166.765039 
L 263.703299 166.524973 
L 263.755748 166.524973 
L 263.860316 165.924808 
L 263.891735 165.924808 
L 263.977212 165.564709 
L 264.075003 165.564709 
L 264.157976 165.20461 
L 264.195467 165.20461 
L 264.195467 165.084578 
L 264.338532 165.084578 
L 264.413033 164.724479 
L 264.451921 164.724479 
L 264.545312 164.36438 
L 264.677206 164.36438 
L 264.748433 164.124314 
L 264.915105 164.124314 
L 265.011607 163.764215 
L 265.097496 163.764215 
L 265.201712 163.164051 
L 265.20873 163.164051 
L 265.306893 162.923985 
L 265.35295 162.923985 
L 265.447341 162.563886 
L 265.552649 162.563886 
L 265.630783 162.32382 
L 265.85965 162.32382 
L 265.917035 161.963721 
L 265.974504 161.963721 
L 265.974504 161.843688 
L 266.157085 161.843688 
L 266.199857 161.603622 
L 266.272197 161.603622 
L 266.364339 161.243524 
L 266.399949 161.243524 
L 266.442545 160.763392 
L 266.571765 160.763392 
L 266.571765 160.643359 
L 266.819064 160.643359 
L 266.86432 159.683096 
L 267.038097 159.683096 
L 267.048806 159.322997 
L 267.15085 159.322997 
L 267.16273 159.082931 
L 267.274493 159.082931 
L 267.372184 158.722832 
L 267.414365 158.722832 
L 267.522278 158.122667 
L 267.53173 158.122667 
L 267.605099 157.642536 
L 267.658984 157.642536 
L 267.736965 157.40247 
L 267.780612 157.40247 
L 267.885982 157.042371 
L 267.922231 157.042371 
L 268.030722 156.802305 
L 268.03933 156.802305 
L 268.06322 156.442206 
L 268.167772 156.442206 
L 268.217317 156.202141 
L 268.307645 156.202141 
L 268.415322 155.722009 
L 268.474654 155.722009 
L 268.576052 155.121844 
L 268.641297 155.121844 
L 268.746239 154.761745 
L 268.770503 154.761745 
L 268.872418 153.921515 
L 268.907272 153.921515 
L 268.907272 153.801482 
L 269.075527 153.801482 
L 269.156412 153.32135 
L 269.238583 153.32135 
L 269.25647 152.961251 
L 269.42034 152.961251 
L 269.505242 152.48112 
L 269.535033 152.48112 
L 269.552247 152.241054 
L 269.732876 152.241054 
L 269.825014 151.880955 
L 269.924159 151.880955 
L 269.947198 151.640889 
L 270.082453 151.640889 
L 270.118077 151.28079 
L 270.231808 151.28079 
L 270.274076 150.920692 
L 270.345986 150.920692 
L 270.367486 150.560593 
L 270.458173 150.560593 
L 270.528008 149.960428 
L 270.593276 149.960428 
L 270.659043 149.720362 
L 270.774345 149.720362 
L 270.811627 149.480296 
L 271.001145 149.480296 
L 271.034145 149.120198 
L 271.202762 149.120198 
L 271.306834 148.520033 
L 271.316765 148.520033 
L 271.36448 147.919868 
L 271.43502 147.919868 
L 271.51742 147.319704 
L 271.575755 147.319704 
L 271.615156 147.079638 
L 271.695011 147.079638 
L 271.795616 146.839572 
L 271.839645 146.839572 
L 271.9256 146.479473 
L 272.133398 146.479473 
L 272.21424 145.999341 
L 272.258862 145.999341 
L 272.317337 145.759276 
L 272.412735 145.759276 
L 272.516894 145.399177 
L 272.549163 145.399177 
L 272.616905 145.159111 
L 272.681827 145.159111 
L 272.787355 144.799012 
L 272.793333 144.799012 
L 272.869503 144.438913 
L 272.940544 144.438913 
L 272.998797 143.718716 
L 273.052827 143.718716 
L 273.12822 143.358617 
L 273.179321 143.358617 
L 273.23583 143.118551 
L 273.297322 143.118551 
L 273.34636 142.878485 
L 273.467089 142.878485 
L 273.495235 142.638419 
L 273.657211 142.638419 
L 273.76416 142.27832 
L 273.868604 142.27832 
L 273.913006 142.038255 
L 274.087877 142.038255 
L 274.108617 141.798189 
L 274.247172 141.798189 
L 274.355853 141.077991 
L 274.475406 141.077991 
L 274.475406 140.957958 
L 274.625092 140.957958 
L 274.708893 140.597859 
L 274.798509 140.597859 
L 274.902466 140.357794 
L 274.952913 140.357794 
L 275.05766 139.637596 
L 275.095477 139.637596 
L 275.185189 139.037431 
L 275.210682 139.037431 
L 275.317154 138.437267 
L 275.46587 138.437267 
L 275.561878 137.957135 
L 275.700942 137.957135 
L 275.790499 137.717069 
L 275.828502 137.717069 
L 275.916647 136.876839 
L 275.947586 136.876839 
L 276.007895 136.51674 
L 276.071784 136.51674 
L 276.144405 136.036608 
L 276.195199 136.036608 
L 276.195199 135.916575 
L 276.325407 135.916575 
L 276.42735 135.676509 
L 276.445399 135.676509 
L 276.543331 135.076345 
L 276.646465 135.076345 
L 276.710936 134.716246 
L 276.815811 134.716246 
L 276.915467 134.47618 
L 277.005008 134.47618 
L 277.073448 134.236114 
L 277.246156 134.236114 
L 277.338312 133.755982 
L 277.418252 133.755982 
L 277.43507 133.395884 
L 277.56256 133.395884 
L 277.665258 132.915752 
L 277.684185 132.915752 
L 277.787852 132.43562 
L 277.820696 132.43562 
L 277.876269 132.075521 
L 277.947112 132.075521 
L 278.024657 131.59539 
L 278.118877 131.59539 
L 278.226553 130.995225 
L 278.260337 130.995225 
L 278.316017 130.635126 
L 278.379906 130.635126 
L 278.425054 130.39506 
L 278.514511 130.39506 
L 278.564428 129.794896 
L 278.644757 129.794896 
L 278.753521 129.434797 
L 278.807003 129.434797 
L 278.897528 129.074698 
L 278.958987 129.074698 
L 278.990095 128.834632 
L 279.123933 128.834632 
L 279.212515 128.234467 
L 279.337159 128.234467 
L 279.337159 128.114435 
L 279.459001 128.114435 
L 279.528126 127.634303 
L 279.71178 127.634303 
L 279.755796 127.034138 
L 279.842035 127.034138 
L 279.921569 126.674039 
L 279.958851 126.674039 
L 279.996014 126.433973 
L 280.085395 126.433973 
L 280.162736 125.953842 
L 280.24229 125.953842 
L 280.283297 125.353677 
L 280.396139 125.353677 
L 280.488099 124.993578 
L 280.509865 124.993578 
L 280.605408 124.513447 
L 280.652115 124.513447 
L 280.718579 124.153348 
L 280.790405 124.153348 
L 280.900286 123.313117 
L 280.967252 123.313117 
L 281.067437 122.112788 
L 281.230861 122.112788 
L 281.313052 121.632656 
L 281.360938 121.632656 
L 281.360938 121.512623 
L 281.50845 121.512623 
L 281.607018 121.032492 
L 281.625995 121.032492 
L 281.625995 120.912459 
L 281.758097 120.912459 
L 281.850025 120.312294 
L 281.88023 120.312294 
L 281.956592 119.952195 
L 282.016814 119.952195 
L 282.099409 119.712129 
L 282.13241 119.712129 
L 282.233084 119.111965 
L 282.247009 119.111965 
L 282.247009 118.991932 
L 282.392873 118.991932 
L 282.392873 118.871899 
L 282.522475 118.871899 
L 282.619079 118.5118 
L 282.713768 118.5118 
L 282.713768 118.391767 
L 282.831032 118.391767 
L 282.937712 117.791602 
L 282.980409 117.791602 
L 283.015464 117.431504 
L 283.10293 117.431504 
L 283.10293 117.311471 
L 283.238728 117.311471 
L 283.336294 116.711306 
L 283.354803 116.711306 
L 283.463392 116.111141 
L 283.516114 116.111141 
L 283.516114 115.991108 
L 283.631863 115.991108 
L 283.687939 115.751043 
L 283.793965 115.751043 
L 283.793965 115.63101 
L 283.969943 115.63101 
L 283.988519 115.270911 
L 284.105278 115.270911 
L 284.158148 114.910812 
L 284.226916 114.910812 
L 284.235594 114.670746 
L 284.342366 114.670746 
L 284.342366 114.550713 
L 284.479581 114.550713 
L 284.59023 114.310647 
L 284.601084 114.310647 
L 284.68612 113.830516 
L 284.727942 113.830516 
L 284.819686 113.350384 
L 284.917859 113.350384 
L 285.007307 112.750219 
L 285.08029 112.750219 
L 285.186755 112.030022 
L 285.362141 112.030022 
L 285.465022 111.669923 
L 285.482732 111.669923 
L 285.577796 110.949725 
L 285.643601 110.949725 
L 285.753217 110.109495 
L 285.755223 110.109495 
L 285.86522 109.50933 
L 285.90474 109.50933 
L 286.005276 109.029198 
L 286.050509 109.029198 
L 286.122045 108.309001 
L 286.171311 108.309001 
L 286.277992 107.828869 
L 286.319275 107.828869 
L 286.348391 107.46877 
L 286.527673 107.46877 
L 286.527673 107.348737 
L 286.661742 107.348737 
L 286.758682 106.988639 
L 286.774845 106.988639 
L 286.849274 106.508507 
L 286.90665 106.508507 
L 286.994275 106.148408 
L 287.018316 106.148408 
L 287.089682 105.548243 
L 287.168794 105.548243 
L 287.25226 105.188145 
L 287.285154 105.188145 
L 287.3499 104.708013 
L 287.415804 104.708013 
L 287.521935 104.107848 
L 287.576169 104.107848 
L 287.674227 103.267618 
L 287.781714 103.267618 
L 287.849265 103.027552 
L 287.970549 103.027552 
L 288.002052 102.787486 
L 288.223214 102.787486 
L 288.223214 102.667453 
L 288.344164 102.667453 
L 288.442688 102.067288 
L 288.501848 102.067288 
L 288.602844 101.587157 
L 288.652802 101.587157 
L 288.714576 101.347091 
L 288.774338 101.347091 
L 288.882855 100.866959 
L 288.939742 100.866959 
L 289.005598 100.626893 
L 289.121373 100.626893 
L 289.200288 100.026728 
L 289.260973 100.026728 
L 289.346669 99.786663 
L 289.4431 99.786663 
L 289.549493 99.186498 
L 289.59088 99.186498 
L 289.700275 98.706366 
L 289.703045 98.706366 
L 289.759726 98.226235 
L 289.866544 98.226235 
L 289.866544 98.106202 
L 290.027888 98.106202 
L 290.133703 97.746103 
L 290.154251 97.746103 
L 290.157195 97.506037 
L 290.332808 97.506037 
L 290.407889 97.145938 
L 290.507318 97.145938 
L 290.617253 96.785839 
L 290.63054 96.785839 
L 290.732491 96.185675 
L 290.818216 96.185675 
L 290.925827 95.345444 
L 290.962999 95.345444 
L 291.073848 94.865312 
L 291.129521 94.865312 
L 291.178597 94.505214 
L 291.250248 94.505214 
L 291.341607 93.905049 
L 291.384386 93.905049 
L 291.485566 93.54495 
L 291.501175 93.54495 
L 291.501175 93.424917 
L 291.649846 93.424917 
L 291.712647 93.184851 
L 291.765032 93.184851 
L 291.826197 92.70472 
L 292.099536 92.70472 
L 292.1792 91.984522 
L 292.279178 91.984522 
L 292.377695 91.50439 
L 292.521901 91.50439 
L 292.615248 90.904226 
L 292.639139 90.904226 
L 292.726718 90.424094 
L 292.887958 90.424094 
L 292.887958 90.184028 
L 293.157568 90.184028 
L 293.256446 89.343798 
L 293.274506 89.343798 
L 293.274506 89.223765 
L 293.435023 89.223765 
L 293.493686 87.543304 
L 293.563931 87.543304 
L 293.649656 87.303238 
L 293.686387 87.303238 
L 293.74879 87.063172 
L 293.997488 87.063172 
L 294.086194 86.58304 
L 294.145824 86.58304 
L 294.145824 86.463007 
L 294.492094 86.463007 
L 294.587762 86.102908 
L 294.67977 86.102908 
L 294.78738 85.382711 
L 294.831493 85.382711 
L 294.831493 85.262678 
L 294.964585 85.262678 
L 295.029988 84.662513 
L 295.102328 84.662513 
L 295.205903 84.422447 
L 295.218714 84.422447 
L 295.328859 84.062349 
L 295.409009 84.062349 
L 295.474142 83.822283 
L 295.526628 83.822283 
L 295.603502 83.582217 
L 295.688829 83.582217 
L 295.78406 83.102085 
L 295.911944 83.102085 
L 295.911944 82.982052 
L 296.030736 82.982052 
L 296.120901 82.621953 
L 296.218412 82.621953 
L 296.326022 82.381888 
L 296.376856 82.381888 
L 296.478475 82.021789 
L 296.497367 82.021789 
L 296.563258 81.301591 
L 296.642434 81.301591 
L 296.648983 81.061525 
L 296.934422 81.061525 
L 297.019343 80.581394 
L 297.055345 80.581394 
L 297.143272 80.341328 
L 297.167765 80.341328 
L 297.167765 80.221295 
L 297.344432 80.221295 
L 297.452272 79.62113 
L 297.511209 79.62113 
L 297.572692 79.140998 
L 297.685972 79.140998 
L 297.714844 78.660867 
L 297.811749 78.660867 
L 297.872259 78.180735 
L 297.98719 78.180735 
L 298.066942 77.340504 
L 298.160412 77.340504 
L 298.245807 76.980406 
L 298.297961 76.980406 
L 298.366478 76.74034 
L 298.444771 76.74034 
L 298.554026 76.260208 
L 298.616218 76.260208 
L 298.67993 75.900109 
L 298.73278 75.900109 
L 298.73278 75.780076 
L 298.883646 75.780076 
L 298.986009 75.299945 
L 299.049851 75.299945 
L 299.148189 74.819813 
L 299.173634 74.819813 
L 299.173634 74.69978 
L 299.311807 74.69978 
L 299.38398 74.339681 
L 299.451136 74.339681 
L 299.542953 74.099615 
L 299.621085 74.099615 
L 299.706811 73.859549 
L 299.81958 73.859549 
L 299.905305 73.619484 
L 300.016728 73.619484 
L 300.0952 73.259385 
L 300.174132 73.259385 
L 300.267349 72.899286 
L 300.424596 72.899286 
L 300.535578 72.419154 
L 300.589155 72.419154 
L 300.678323 72.059055 
L 300.901959 72.059055 
L 301.00864 71.698957 
L 301.119792 71.698957 
L 301.119792 71.578924 
L 301.31234 71.578924 
L 301.367065 71.098792 
L 301.493407 71.098792 
L 301.553652 70.61866 
L 301.607348 70.61866 
L 301.680353 70.258561 
L 301.863819 70.258561 
L 301.863819 70.138528 
L 302.039924 70.138528 
L 302.049179 69.898463 
L 302.205355 69.898463 
L 302.29108 69.418331 
L 302.350528 69.418331 
L 302.361921 69.178265 
L 302.608988 69.178265 
L 302.698736 68.938199 
L 302.749058 68.938199 
L 302.851939 68.458067 
L 302.860948 68.458067 
L 302.958426 67.977936 
L 303.07608 67.977936 
L 303.07608 67.857903 
L 303.195929 67.857903 
L 303.195929 67.73787 
L 303.410776 67.73787 
L 303.497602 67.497804 
L 303.534905 67.497804 
L 303.568364 67.257738 
L 303.650433 67.257738 
L 303.701294 66.897639 
L 303.766859 66.897639 
L 303.790239 66.657573 
L 303.984459 66.657573 
L 304.04116 66.417508 
L 304.183978 66.417508 
L 304.293221 65.817343 
L 304.324985 65.817343 
L 304.390684 65.577277 
L 304.962478 65.577277 
L 304.962478 65.457244 
L 305.098989 65.457244 
L 305.107006 65.217178 
L 305.301497 65.217178 
L 305.372476 64.857079 
L 305.745155 64.857079 
L 305.745155 64.737047 
L 305.864508 64.737047 
L 305.900983 64.136882 
L 306.001018 64.136882 
L 306.080613 63.896816 
L 306.143286 63.896816 
L 306.184866 63.536717 
L 306.39694 63.536717 
L 306.482666 63.296651 
L 306.516292 63.296651 
L 306.592733 63.056586 
L 306.791227 63.056586 
L 306.898033 62.576454 
L 306.926157 62.576454 
L 306.955311 62.336388 
L 307.076526 62.336388 
L 307.076526 62.216355 
L 307.194016 62.216355 
L 307.194016 62.096322 
L 307.31202 62.096322 
L 307.31202 61.976289 
L 307.464318 61.976289 
L 307.464318 61.856256 
L 307.691275 61.856256 
L 307.694941 61.61619 
L 307.917861 61.61619 
L 307.917861 61.496157 
L 308.054372 61.496157 
L 308.088762 61.256092 
L 308.656906 61.256092 
L 308.76317 60.77596 
L 308.845388 60.77596 
L 308.845388 60.655927 
L 308.959605 60.655927 
L 309.030521 60.295828 
L 309.171184 60.295828 
L 309.277252 59.935729 
L 309.400933 59.935729 
L 309.470752 59.455598 
L 309.554339 59.455598 
L 309.592478 59.215532 
L 310.033519 59.215532 
L 310.13927 58.975466 
L 310.23585 58.975466 
L 310.344219 58.615367 
L 310.885089 58.615367 
L 310.953398 57.415038 
L 311.021599 57.415038 
L 311.021599 57.295005 
L 311.200464 57.295005 
L 311.200464 57.174972 
L 311.515513 57.174972 
L 311.614721 56.934906 
L 311.650278 56.934906 
L 311.662672 56.69484 
L 311.882861 56.69484 
L 311.950255 56.454774 
L 312.019887 56.454774 
L 312.019887 56.334741 
L 312.197566 56.334741 
L 312.197566 56.214708 
L 312.325672 56.214708 
L 312.358583 55.85461 
L 312.479277 55.85461 
L 312.479277 55.734577 
L 312.804852 55.734577 
L 312.804852 55.614544 
L 312.994043 55.614544 
L 313.019539 55.374478 
L 313.148492 55.374478 
L 313.148492 55.254445 
L 313.260612 55.254445 
L 313.368588 54.894346 
L 313.378161 54.894346 
L 313.378161 54.774313 
L 313.545386 54.774313 
L 313.545386 54.65428 
L 314.281012 54.65428 
L 314.386055 54.414214 
L 314.416407 54.414214 
L 314.435147 54.174149 
L 314.648307 54.174149 
L 314.648307 54.054116 
L 315.301765 54.054116 
L 315.313966 53.81405 
L 315.59805 53.81405 
L 315.59805 53.694017 
L 316.218354 53.694017 
L 316.316719 53.453951 
L 316.331588 53.453951 
L 316.331588 53.333918 
L 316.481419 53.333918 
L 316.481419 53.213885 
L 316.673356 53.213885 
L 316.673356 53.093852 
L 316.956429 53.093852 
L 316.956429 52.973819 
L 317.116029 52.973819 
L 317.22271 52.733753 
L 317.354703 52.733753 
L 317.354703 52.61372 
L 317.532382 52.61372 
L 317.613575 52.253622 
L 317.910145 52.253622 
L 317.910145 52.133589 
L 318.281193 52.133589 
L 318.288302 51.893523 
L 318.460865 51.893523 
L 318.460865 51.77349 
L 318.712977 51.77349 
L 318.712977 51.653457 
L 318.924743 51.653457 
L 318.924743 51.533424 
L 319.623502 51.533424 
L 319.623502 51.293358 
L 319.73887 51.293358 
L 319.73887 51.173325 
L 320.317239 51.173325 
L 320.317239 51.053292 
L 320.58475 51.053292 
L 320.58475 50.933259 
L 321.075669 50.933259 
L 321.075669 50.813226 
L 321.265561 50.813226 
L 321.265561 50.693194 
L 321.959225 50.693194 
L 321.959225 50.573161 
L 322.673748 50.573161 
L 322.673748 50.453128 
L 322.89834 50.453128 
L 322.89834 50.333095 
L 323.290596 50.333095 
L 323.382883 49.372831 
L 323.847002 49.372831 
L 323.847002 49.252798 
L 325.882947 49.252798 
L 325.882947 49.132765 
L 326.296726 49.132765 
L 326.296726 49.012732 
L 326.547071 49.012732 
L 326.547071 48.8927 
L 326.980117 48.8927 
L 326.980117 48.772667 
L 327.534072 48.772667 
L 327.534072 48.652634 
L 327.816846 48.652634 
L 327.907914 48.412568 
L 328.471773 48.412568 
L 328.471773 48.172502 
L 328.710225 48.172502 
L 328.710225 48.052469 
L 329.276756 48.052469 
L 329.276756 47.932436 
L 329.861141 47.932436 
L 329.915962 47.69237 
L 331.548741 47.69237 
L 331.548741 47.572337 
L 332.632475 47.572337 
L 332.632475 47.452304 
L 333.023941 47.452304 
L 333.023941 47.332271 
L 333.61386 47.332271 
L 333.61386 47.212239 
L 335.547339 47.212239 
L 335.630518 46.972173 
L 336.212972 46.972173 
L 336.212972 46.85214 
L 336.448714 46.85214 
L 336.448714 46.732107 
L 337.141877 46.732107 
L 337.233124 46.372008 
L 338.270346 46.372008 
L 338.270346 46.251975 
L 338.679295 46.251975 
L 338.679295 46.131942 
L 338.912057 46.131942 
L 338.912057 46.011909 
L 339.26549 46.011909 
L 339.26549 45.891876 
L 339.51415 45.891876 
L 339.51415 45.771843 
L 339.696314 45.771843 
L 339.696314 45.65181 
L 340.004457 45.65181 
L 340.004457 45.531777 
L 340.898269 45.531777 
L 340.937024 44.81158 
L 341.529817 44.81158 
L 341.529817 44.691547 
L 342.057815 44.691547 
L 342.057815 44.571514 
L 342.276166 44.571514 
L 342.276166 44.451481 
L 343.084728 44.451481 
L 343.162596 44.211415 
L 344.159775 44.211415 
L 344.159775 44.091382 
L 344.980046 44.091382 
L 344.980046 43.971349 
L 345.453426 43.971349 
L 345.453426 43.731283 
L 345.792554 43.731283 
L 345.792554 43.611251 
L 346.005989 43.611251 
L 346.018658 43.371185 
L 346.698719 43.371185 
L 346.698719 43.251152 
L 347.233428 43.251152 
L 347.244373 43.011086 
L 347.561435 43.011086 
L 347.561435 42.77102 
L 348.510751 42.77102 
L 348.557884 42.530954 
L 348.857451 42.530954 
L 348.857451 42.410921 
L 349.874331 42.410921 
L 349.874331 42.290888 
L 350.031363 42.290888 
L 350.031363 42.170855 
L 350.818873 42.170855 
L 350.833039 41.810757 
L 351.708405 41.810757 
L 351.708405 41.690724 
L 352.150747 41.690724 
L 352.150747 41.570691 
L 352.99983 41.570691 
L 352.99983 41.450658 
L 353.330743 41.450658 
L 353.330743 41.210592 
L 353.711389 41.210592 
L 353.803107 40.970526 
L 354.355594 40.970526 
L 354.447031 40.610427 
L 354.573945 40.610427 
L 354.632609 40.250328 
L 355.366179 40.250328 
L 355.366179 40.130296 
L 356.293527 40.130296 
L 356.306195 39.89023 
L 356.593095 39.89023 
L 356.663716 39.530131 
L 356.882067 39.530131 
L 356.882067 39.410098 
L 357.847564 39.410098 
L 357.847564 39.290065 
L 357.99559 39.290065 
L 357.99559 39.170032 
L 358.21394 39.170032 
L 358.21394 39.049999 
L 358.419633 39.049999 
L 358.52577 38.6899 
L 358.714386 38.6899 
L 358.714386 38.569867 
L 359.703939 38.569867 
L 359.703939 38.449835 
L 360.409516 38.449835 
L 360.409516 38.329802 
L 361.53875 38.329802 
L 361.551419 38.089736 
L 362.139762 38.089736 
L 362.139762 37.969703 
L 362.274921 37.969703 
L 362.274921 37.84967 
L 362.57267 37.84967 
L 362.624766 37.609604 
L 362.971801 37.609604 
L 362.971801 37.369538 
L 363.1392 37.369538 
L 363.1392 37.249505 
L 363.996488 37.249505 
L 363.998927 37.009439 
L 364.298494 37.009439 
L 364.298494 36.889406 
L 365.583208 36.889406 
L 365.652079 36.529308 
L 366.254359 36.529308 
L 366.254359 36.409275 
L 366.472709 36.409275 
L 366.472709 36.289242 
L 367.089737 36.289242 
L 367.089737 36.049176 
L 367.203546 36.049176 
L 367.203546 35.929143 
L 367.439582 35.929143 
L 367.452251 35.689077 
L 368.417513 35.689077 
L 368.417513 35.569044 
L 368.635864 35.569044 
L 368.635864 35.449011 
L 368.984043 35.449011 
L 368.984043 35.328978 
L 369.202394 35.328978 
L 369.24415 35.088912 
L 369.409784 35.088912 
L 369.409784 34.968879 
L 370.311158 34.968879 
L 370.311158 34.848847 
L 370.849119 34.848847 
L 370.849119 34.608781 
L 372.355949 34.608781 
L 372.355949 34.488748 
L 373.288607 34.488748 
L 373.288607 34.368715 
L 373.558758 34.368715 
L 373.558758 34.248682 
L 373.988728 34.248682 
L 373.988728 34.128649 
L 374.939189 34.128649 
L 374.951858 33.888583 
L 375.144982 33.888583 
L 375.254627 33.648517 
L 375.472977 33.648517 
L 375.472977 33.528484 
L 376.156001 33.528484 
L 376.156001 33.408451 
L 376.374352 33.408451 
L 376.38376 33.168386 
L 376.636425 33.168386 
L 376.636425 33.048353 
L 378.000274 33.048353 
L 378.070505 32.808287 
L 379.403602 32.808287 
L 379.403602 32.688254 
L 379.621952 32.688254 
L 379.621952 32.568221 
L 381.095872 32.568221 
L 381.095872 32.448188 
L 382.184732 32.448188 
L 382.184732 32.328155 
L 382.644589 32.328155 
L 382.644589 32.208122 
L 383.921875 32.208122 
L 383.921875 32.088089 
L 386.302668 32.088089 
L 386.302668 31.968056 
L 386.940716 31.968056 
L 386.940716 31.848023 
L 387.159066 31.848023 
L 387.159066 31.72799 
L 392.919661 31.72799 
L 392.919661 31.487924 
L 394.196768 31.487924 
L 394.196768 31.367892 
L 403.041932 31.367892 
L 403.041932 31.247859 
L 403.178443 31.247859 
L 403.178443 31.127826 
L 410.438036 31.127826 
L 410.438036 31.007793 
L 450.672 31.007793 
L 450.672 31.007793 
" style="fill:none;stroke:#000000;stroke-linecap:square;stroke-width:3;"/>
   </g>
   <g id="line2d_46">
    <path clip-path="url(#ped9a01158a)" style="fill:none;stroke:#000000;stroke-linecap:square;stroke-width:3;"/>
   </g>
   <g id="line2d_47">
    <path clip-path="url(#ped9a01158a)" d="M 76.302324 101.70719 
L 107.64232 101.70719 
L 107.64232 100.462048 
L 118.233489 100.462048 
L 118.233489 99.216906 
L 126.177346 99.216906 
L 126.177346 97.971765 
L 136.768514 97.971765 
L 136.768514 96.726623 
L 147.054528 96.726623 
L 147.054528 95.481481 
L 148.576776 95.481481 
L 148.576776 94.23634 
L 152.613049 94.23634 
L 152.613049 92.991198 
L 157.153538 92.991198 
L 157.153538 91.746057 
L 157.645696 91.746057 
L 157.645696 90.500915 
L 159.167944 90.500915 
L 159.167944 89.255773 
L 163.204218 89.255773 
L 163.204218 88.010632 
L 166.944058 88.010632 
L 166.944058 86.76549 
L 167.744706 86.76549 
L 167.744706 85.520349 
L 176.197513 85.520349 
L 176.197513 84.275207 
L 179.870977 84.275207 
L 179.870977 83.030065 
L 185.479083 83.030065 
L 185.479083 81.784924 
L 190.462146 81.784924 
L 190.462146 80.539782 
L 191.653566 80.539782 
L 191.653566 79.294641 
L 192.712733 79.294641 
L 192.712733 78.049499 
L 194.150279 78.049499 
L 194.150279 76.804357 
L 194.732539 76.804357 
L 194.732539 75.559216 
L 199.744892 75.559216 
L 199.744892 74.314074 
L 201.771345 74.314074 
L 201.771345 73.068932 
L 202.244734 73.068932 
L 202.244734 71.823791 
L 203.303901 71.823791 
L 203.303901 70.578649 
L 204.741448 70.578649 
L 204.741448 69.333508 
L 205.840483 69.333508 
L 205.840483 68.088366 
L 206.04439 68.088366 
L 206.04439 66.843224 
L 206.356266 66.843224 
L 206.356266 65.598083 
L 207.878514 65.598083 
L 207.878514 64.352941 
L 211.914787 64.352941 
L 211.914787 63.1078 
L 212.362514 63.1078 
L 212.362514 61.862658 
L 215.609721 61.862658 
L 215.609721 60.617516 
L 216.431651 60.617516 
L 216.455276 58.127233 
L 216.635559 58.127233 
L 216.635559 56.882092 
L 217.131969 56.882092 
L 217.131969 55.63695 
L 218.279917 55.63695 
L 218.279917 54.391808 
L 221.168242 54.391808 
L 221.168242 53.146667 
L 225.708731 53.146667 
L 225.708731 51.901525 
L 239.157099 51.901525 
L 239.172715 49.411242 
L 240.679348 49.411242 
L 240.679348 48.1661 
L 244.715621 48.1661 
L 244.715621 46.920959 
L 248.42617 46.920959 
L 248.42617 45.675817 
L 249.256109 45.675817 
L 249.256109 44.430675 
L 250.552342 44.430675 
L 250.552342 43.185534 
L 250.955303 43.185534 
L 250.955303 41.940392 
L 251.351729 41.940392 
L 251.351729 40.695251 
L 252.014471 40.695251 
L 252.014471 39.450109 
L 253.452017 39.450109 
L 253.452017 38.204967 
L 260.208759 38.204967 
L 260.208759 36.959826 
L 261.073083 36.959826 
L 261.143511 34.469542 
L 261.267926 34.469542 
L 261.267926 33.224401 
L 261.942898 33.224401 
L 261.942898 31.979259 
L 262.705472 31.979259 
L 262.705472 30.734118 
L 265.142221 30.734118 
L 265.142221 29.488976 
L 265.346128 29.488976 
L 265.346128 28.243834 
L 270.326538 28.243834 
L 270.326538 26.998693 
L 271.973549 26.998693 
L 271.973549 25.753551 
L 274.395676 25.753551 
L 274.395676 24.50841 
L 274.599583 24.50841 
L 274.599583 23.263268 
L 283.756137 23.263268 
L 283.756137 22.018126 
L 284.815304 22.018126 
L 284.815304 20.772985 
L 286.252851 20.772985 
L 286.252851 19.527843 
L 293.873917 19.527843 
L 293.873917 18.282702 
L 297.943054 18.282702 
L 297.943054 17.03756 
L 298.146962 17.03756 
L 298.146962 15.792418 
L 309.85408 15.792418 
L 309.85408 14.547277 
L 310.653467 14.547277 
L 310.653467 13.302135 
L 319.107535 13.302135 
L 319.107535 12.056993 
L 319.906922 12.056993 
L 319.906922 10.811852 
L 342.654914 10.811852 
L 342.654914 9.56671 
L 343.454301 9.56671 
L 343.454301 8.321569 
L 450.672 8.321569 
L 450.672 8.321569 
" style="fill:none;stroke:#00bfbf;stroke-linecap:square;stroke-width:3;"/>
   </g>
   <g id="line2d_48">
    <path clip-path="url(#ped9a01158a)" style="fill:none;stroke:#00bfbf;stroke-linecap:square;stroke-width:3;"/>
   </g>
   <g id="line2d_49">
    <path clip-path="url(#ped9a01158a)" d="M 76.302324 83.030065 
L 107.344308 83.030065 
L 107.344308 81.784924 
L 118.214387 81.784924 
L 118.214387 80.539782 
L 125.879333 80.539782 
L 125.879333 79.294641 
L 136.749413 79.294641 
L 136.749413 78.049499 
L 146.756516 78.049499 
L 146.756516 76.804357 
L 148.278764 76.804357 
L 148.278764 75.559216 
L 152.315037 75.559216 
L 152.315037 74.314074 
L 156.855526 74.314074 
L 156.855526 73.068932 
L 157.626595 73.068932 
L 157.626595 71.823791 
L 159.148843 71.823791 
L 159.148843 70.578649 
L 163.185116 70.578649 
L 163.185116 69.333508 
L 167.725605 69.333508 
L 167.725605 68.088366 
L 175.530344 68.088366 
L 175.530344 66.843224 
L 179.572965 66.843224 
L 179.572965 65.598083 
L 190.443044 65.598083 
L 190.443044 64.352941 
L 192.198769 64.352941 
L 192.198769 63.1078 
L 192.414721 63.1078 
L 192.414721 61.862658 
L 193.852267 61.862658 
L 193.852267 60.617516 
L 194.065369 60.617516 
L 194.065369 59.372375 
L 197.629681 59.372375 
L 197.629681 58.127233 
L 201.473333 58.127233 
L 201.473333 56.882092 
L 203.068848 56.882092 
L 203.068848 55.63695 
L 203.2848 55.63695 
L 203.2848 54.391808 
L 204.722346 54.391808 
L 204.722346 53.146667 
L 205.542471 53.146667 
L 205.542471 51.901525 
L 205.814134 51.901525 
L 205.814134 50.656383 
L 212.343412 50.656383 
L 212.343412 49.411242 
L 214.942551 49.411242 
L 214.942551 48.1661 
L 216.164706 48.1661 
L 216.164706 46.920959 
L 216.41255 46.920959 
L 216.41255 45.675817 
L 216.464799 45.675817 
L 216.464799 44.430675 
L 216.684213 44.430675 
L 216.684213 43.185534 
L 220.501073 43.185534 
L 220.501073 41.940392 
L 225.041561 41.940392 
L 225.041561 40.695251 
L 237.041888 40.695251 
L 237.041888 39.450109 
L 238.564136 39.450109 
L 238.564136 38.204967 
L 242.600409 38.204967 
L 242.600409 36.959826 
L 247.140898 36.959826 
L 247.140898 35.714684 
L 247.759001 35.714684 
L 247.759001 34.469542 
L 250.25433 34.469542 
L 250.25433 33.224401 
L 251.053717 33.224401 
L 251.053717 31.979259 
L 260.384805 31.979259 
L 260.384805 30.734118 
L 260.600756 30.734118 
L 260.600756 29.488976 
L 261.124409 29.488976 
L 261.124409 28.243834 
L 261.923796 28.243834 
L 261.923796 26.998693 
L 262.038303 26.998693 
L 262.038303 25.753551 
L 269.659369 25.753551 
L 269.659369 24.50841 
L 269.858337 24.50841 
L 269.858337 23.263268 
L 273.728506 23.263268 
L 273.728506 22.018126 
L 274.000169 22.018126 
L 274.000169 20.772985 
L 282.484142 20.772985 
L 282.484142 19.527843 
L 282.700093 19.527843 
L 282.700093 18.282702 
L 284.137639 18.282702 
L 284.137639 17.03756 
L 291.758705 17.03756 
L 291.758705 15.792418 
L 295.827843 15.792418 
L 295.827843 14.547277 
L 296.099506 14.547277 
L 296.099506 13.302135 
L 318.440366 13.302135 
L 318.440366 12.056993 
L 319.239753 12.056993 
L 319.239753 10.811852 
L 340.539703 10.811852 
L 340.539703 9.56671 
L 341.33909 9.56671 
L 341.33909 8.321569 
L 450.672 8.321569 
" style="fill:none;stroke:#bf00bf;stroke-linecap:square;stroke-width:3;"/>
   </g>
   <g id="line2d_50">
    <path clip-path="url(#ped9a01158a)" style="fill:none;stroke:#bf00bf;stroke-linecap:square;stroke-width:3;"/>
   </g>
   <g id="line2d_51">
    <path clip-path="url(#ped9a01158a)" d="M 76.302324 83.030065 
L 107.344308 83.030065 
L 107.344308 81.784924 
L 118.214387 81.784924 
L 118.214387 80.539782 
L 125.879333 80.539782 
L 125.879333 79.294641 
L 136.749413 79.294641 
L 136.749413 78.049499 
L 146.756516 78.049499 
L 146.756516 76.804357 
L 148.278764 76.804357 
L 148.278764 75.559216 
L 152.315037 75.559216 
L 152.315037 74.314074 
L 156.855526 74.314074 
L 156.855526 73.068932 
L 157.626595 73.068932 
L 157.626595 71.823791 
L 159.148843 71.823791 
L 159.148843 70.578649 
L 163.185116 70.578649 
L 163.185116 69.333508 
L 167.725605 69.333508 
L 167.725605 68.088366 
L 175.530344 68.088366 
L 175.530344 66.843224 
L 179.572965 66.843224 
L 179.572965 65.598083 
L 190.443044 65.598083 
L 190.443044 64.352941 
L 192.198769 64.352941 
L 192.198769 63.1078 
L 192.414721 63.1078 
L 192.414721 61.862658 
L 193.852267 61.862658 
L 193.852267 60.617516 
L 194.065369 60.617516 
L 194.065369 59.372375 
L 197.629681 59.372375 
L 197.629681 58.127233 
L 201.473333 58.127233 
L 201.473333 56.882092 
L 203.068848 56.882092 
L 203.068848 55.63695 
L 203.2848 55.63695 
L 203.2848 54.391808 
L 204.722346 54.391808 
L 204.722346 53.146667 
L 205.542471 53.146667 
L 205.542471 51.901525 
L 205.814134 51.901525 
L 205.814134 50.656383 
L 212.343412 50.656383 
L 212.343412 49.411242 
L 214.942551 49.411242 
L 214.942551 48.1661 
L 216.164706 48.1661 
L 216.164706 46.920959 
L 216.41255 46.920959 
L 216.41255 45.675817 
L 216.464799 45.675817 
L 216.464799 44.430675 
L 216.684213 44.430675 
L 216.684213 43.185534 
L 220.501073 43.185534 
L 220.501073 41.940392 
L 225.041561 41.940392 
L 225.041561 40.695251 
L 237.041888 40.695251 
L 237.041888 39.450109 
L 238.564136 39.450109 
L 238.564136 38.204967 
L 242.600409 38.204967 
L 242.600409 36.959826 
L 247.140898 36.959826 
L 247.140898 35.714684 
L 247.759001 35.714684 
L 247.759001 34.469542 
L 250.25433 34.469542 
L 250.25433 33.224401 
L 251.053717 33.224401 
L 251.053717 31.979259 
L 260.384805 31.979259 
L 260.384805 30.734118 
L 260.600756 30.734118 
L 260.600756 29.488976 
L 261.124409 29.488976 
L 261.124409 28.243834 
L 261.923796 28.243834 
L 261.923796 26.998693 
L 262.038303 26.998693 
L 262.038303 25.753551 
L 269.659369 25.753551 
L 269.659369 24.50841 
L 269.858337 24.50841 
L 269.858337 23.263268 
L 273.728506 23.263268 
L 273.728506 22.018126 
L 274.000169 22.018126 
L 274.000169 20.772985 
L 282.484142 20.772985 
L 282.484142 19.527843 
L 282.700093 19.527843 
L 282.700093 18.282702 
L 284.137639 18.282702 
L 284.137639 17.03756 
L 291.758705 17.03756 
L 291.758705 15.792418 
L 295.827843 15.792418 
L 295.827843 14.547277 
L 296.099506 14.547277 
L 296.099506 13.302135 
L 318.440366 13.302135 
L 318.440366 12.056993 
L 319.239753 12.056993 
L 319.239753 10.811852 
L 340.539703 10.811852 
L 340.539703 9.56671 
L 341.33909 9.56671 
L 341.33909 8.321569 
L 450.672 8.321569 
" style="fill:none;stroke:#ff0000;stroke-linecap:square;stroke-width:3;"/>
   </g>
   <g id="line2d_52">
    <path clip-path="url(#ped9a01158a)" style="fill:none;stroke:#ff0000;stroke-linecap:square;stroke-width:3;"/>
   </g>
   <g id="line2d_53">
    <path clip-path="url(#ped9a01158a)" d="M 263.487162 291.28 
L 263.487162 5.52 
" style="fill:none;stroke:#000000;stroke-linecap:square;stroke-width:1.5;"/>
   </g>
   <g id="line2d_54">
    <path clip-path="url(#ped9a01158a)" d="M 76.302324 148.4 
L 450.672 148.4 
" style="fill:none;stroke:#000000;stroke-dasharray:2,3.3;stroke-dashoffset:0;stroke-width:2;"/>
   </g>
   <g id="patch_3">
    <path d="M 76.302324 291.28 
L 76.302324 5.52 
" style="fill:none;stroke:#000000;stroke-linecap:square;stroke-linejoin:miter;stroke-width:0.8;"/>
   </g>
   <g id="patch_4">
    <path d="M 450.672 291.28 
L 450.672 5.52 
" style="fill:none;stroke:#000000;stroke-linecap:square;stroke-linejoin:miter;stroke-width:0.8;"/>
   </g>
   <g id="patch_5">
    <path d="M 76.302324 291.28 
L 450.672 291.28 
" style="fill:none;stroke:#000000;stroke-linecap:square;stroke-linejoin:miter;stroke-width:0.8;"/>
   </g>
   <g id="patch_6">
    <path d="M 76.302324 5.52 
L 450.672 5.52 
" style="fill:none;stroke:#000000;stroke-linecap:square;stroke-linejoin:miter;stroke-width:0.8;"/>
   </g>
   <g id="text_10">
    <!-- f1-f24,20-D -->
    <defs>
     <path d="M 11.71875 12.40625 
L 22.015625 12.40625 
L 22.015625 4 
L 14.015625 -11.625 
L 7.71875 -11.625 
L 11.71875 4 
z
" id="DejaVuSans-2c"/>
     <path d="M 19.671875 64.796875 
L 19.671875 8.109375 
L 31.59375 8.109375 
Q 46.6875 8.109375 53.6875 14.9375 
Q 60.6875 21.78125 60.6875 36.53125 
Q 60.6875 51.171875 53.6875 57.984375 
Q 46.6875 64.796875 31.59375 64.796875 
z
M 9.8125 72.90625 
L 30.078125 72.90625 
Q 51.265625 72.90625 61.171875 64.09375 
Q 71.09375 55.28125 71.09375 36.53125 
Q 71.09375 17.671875 61.125 8.828125 
Q 51.171875 0 30.078125 0 
L 9.8125 0 
z
" id="DejaVuSans-44"/>
    </defs>
    <g transform="translate(329.290856 285.5648)scale(0.2 -0.2)">
     <use xlink:href="#DejaVuSans-66"/>
     <use x="35.205078" xlink:href="#DejaVuSans-31"/>
     <use x="98.828125" xlink:href="#DejaVuSans-2d"/>
     <use x="134.912109" xlink:href="#DejaVuSans-66"/>
     <use x="170.117188" xlink:href="#DejaVuSans-32"/>
     <use x="233.740234" xlink:href="#DejaVuSans-34"/>
     <use x="297.363281" xlink:href="#DejaVuSans-2c"/>
     <use x="329.150391" xlink:href="#DejaVuSans-32"/>
     <use x="392.773438" xlink:href="#DejaVuSans-30"/>
     <use x="456.396484" xlink:href="#DejaVuSans-2d"/>
     <use x="492.480469" xlink:href="#DejaVuSans-44"/>
    </g>
   </g>
   <g id="text_11">
    <!-- v0.0.0 -->
    <g style="fill:#808080;" transform="translate(247.805912 286.342713)scale(0.1 -0.1)">
     <use xlink:href="#DejaVuSans-76"/>
     <use x="59.179688" xlink:href="#DejaVuSans-30"/>
     <use x="122.802734" xlink:href="#DejaVuSans-2e"/>
     <use x="154.589844" xlink:href="#DejaVuSans-30"/>
     <use x="218.212891" xlink:href="#DejaVuSans-2e"/>
     <use x="250" xlink:href="#DejaVuSans-30"/>
    </g>
   </g>
   <g id="legend_1">
    <g id="patch_7">
     <path d="M 289.21575 281.28 
L 436.672 281.28 
Q 440.672 281.28 440.672 277.28 
L 440.672 161.855 
Q 440.672 157.855 436.672 157.855 
L 289.21575 157.855 
Q 285.21575 157.855 285.21575 161.855 
L 285.21575 277.28 
Q 285.21575 281.28 289.21575 281.28 
z
" style="fill:#ffffff;opacity:0.2;stroke:#cccccc;stroke-linejoin:miter;"/>
    </g>
    <g id="line2d_55">
     <path d="M 293.21575 174.051875 
L 333.21575 174.051875 
" style="fill:none;stroke:#000000;stroke-linecap:square;stroke-width:3;"/>
    </g>
    <g id="line2d_56"/>
    <g id="text_12">
     <!-- 1: 11/11 -->
     <defs>
      <path d="M 11.71875 12.40625 
L 22.015625 12.40625 
L 22.015625 0 
L 11.71875 0 
z
M 11.71875 51.703125 
L 22.015625 51.703125 
L 22.015625 39.3125 
L 11.71875 39.3125 
z
" id="DejaVuSans-3a"/>
      <path d="M 25.390625 72.90625 
L 33.6875 72.90625 
L 8.296875 -9.28125 
L 0 -9.28125 
z
" id="DejaVuSans-2f"/>
     </defs>
     <g transform="translate(349.21575 181.051875)scale(0.2 -0.2)">
      <use xlink:href="#DejaVuSans-31"/>
      <use x="63.623047" xlink:href="#DejaVuSans-3a"/>
      <use x="97.314453" xlink:href="#DejaVuSans-20"/>
      <use x="129.101562" xlink:href="#DejaVuSans-31"/>
      <use x="192.724609" xlink:href="#DejaVuSans-31"/>
      <use x="256.347656" xlink:href="#DejaVuSans-2f"/>
      <use x="290.039062" xlink:href="#DejaVuSans-31"/>
      <use x="353.662109" xlink:href="#DejaVuSans-31"/>
     </g>
    </g>
    <g id="line2d_57">
     <path d="M 293.21575 203.408125 
L 333.21575 203.408125 
" style="fill:none;stroke:#00bfbf;stroke-linecap:square;stroke-width:3;"/>
    </g>
    <g id="line2d_58"/>
    <g id="text_13">
     <!-- -1: 1/1 -->
     <g transform="translate(349.21575 210.408125)scale(0.2 -0.2)">
      <use xlink:href="#DejaVuSans-2d"/>
      <use x="36.083984" xlink:href="#DejaVuSans-31"/>
      <use x="99.707031" xlink:href="#DejaVuSans-3a"/>
      <use x="133.398438" xlink:href="#DejaVuSans-20"/>
      <use x="165.185547" xlink:href="#DejaVuSans-31"/>
      <use x="228.808594" xlink:href="#DejaVuSans-2f"/>
      <use x="262.5" xlink:href="#DejaVuSans-31"/>
     </g>
    </g>
    <g id="line2d_59">
     <path d="M 293.21575 232.764375 
L 333.21575 232.764375 
" style="fill:none;stroke:#bf00bf;stroke-linecap:square;stroke-width:3;"/>
    </g>
    <g id="line2d_60"/>
    <g id="text_14">
     <!-- -4: 1/1 -->
     <g transform="translate(349.21575 239.764375)scale(0.2 -0.2)">
      <use xlink:href="#DejaVuSans-2d"/>
      <use x="36.083984" xlink:href="#DejaVuSans-34"/>
      <use x="99.707031" xlink:href="#DejaVuSans-3a"/>
      <use x="133.398438" xlink:href="#DejaVuSans-20"/>
      <use x="165.185547" xlink:href="#DejaVuSans-31"/>
      <use x="228.808594" xlink:href="#DejaVuSans-2f"/>
      <use x="262.5" xlink:href="#DejaVuSans-31"/>
     </g>
    </g>
    <g id="line2d_61">
     <path d="M 293.21575 262.120625 
L 333.21575 262.120625 
" style="fill:none;stroke:#ff0000;stroke-linecap:square;stroke-width:3;"/>
    </g>
    <g id="line2d_62"/>
    <g id="text_15">
     <!-- -8: 1/1 -->
     <g transform="translate(349.21575 269.120625)scale(0.2 -0.2)">
      <use xlink:href="#DejaVuSans-2d"/>
      <use x="36.083984" xlink:href="#DejaVuSans-38"/>
      <use x="99.707031" xlink:href="#DejaVuSans-3a"/>
      <use x="133.398438" xlink:href="#DejaVuSans-20"/>
      <use x="165.185547" xlink:href="#DejaVuSans-31"/>
      <use x="228.808594" xlink:href="#DejaVuSans-2f"/>
      <use x="262.5" xlink:href="#DejaVuSans-31"/>
     </g>
    </g>
   </g>
  </g>
 </g>
 <defs>
  <clipPath id="ped9a01158a">
   <rect height="285.76" width="374.369676" x="76.302324" y="5.52"/>
  </clipPath>
 </defs>
</svg>
