<?xml version="1.0" encoding="utf-8" standalone="no"?>
<!DOCTYPE svg PUBLIC "-//W3C//DTD SVG 1.1//EN"
  "http://www.w3.org/Graphics/SVG/1.1/DTD/svg11.dtd">
<!-- Created with matplotlib (http://matplotlib.org/) -->
<svg height="345.6pt" version="1.1" viewBox="0 0 460.8 345.6" width="460.8pt" xmlns="http://www.w3.org/2000/svg" xmlns:xlink="http://www.w3.org/1999/xlink">
 <defs>
  <style type="text/css">
*{stroke-linecap:butt;stroke-linejoin:round;}
  </style>
 </defs>
 <g id="figure_1">
  <g id="patch_1">
   <path d="M 0 345.6 
L 460.8 345.6 
L 460.8 0 
L 0 0 
z
" style="fill:#ffffff;"/>
  </g>
  <g id="axes_1">
   <g id="patch_2">
    <path d="M 78.916617 291.28 
L 450.672 291.28 
L 450.672 5.52 
L 78.916617 5.52 
z
" style="fill:#ffffff;"/>
   </g>
   <g id="matplotlib.axis_1">
    <g id="xtick_1">
     <g id="line2d_1">
      <path clip-path="url(#pb88db7c8ac)" d="M 164.529438 291.28 
L 164.529438 5.52 
" style="fill:none;stroke:#b0b0b0;stroke-linecap:square;stroke-width:0.8;"/>
     </g>
     <g id="line2d_2">
      <defs>
       <path d="M 0 0 
L 0 3.5 
" id="m9ad5af05c0" style="stroke:#000000;stroke-width:0.8;"/>
      </defs>
      <g>
       <use style="stroke:#000000;stroke-width:0.8;" x="164.529438" xlink:href="#m9ad5af05c0" y="291.28"/>
      </g>
     </g>
     <g id="text_1">
      <!-- -1 -->
      <defs>
       <path d="M 4.890625 31.390625 
L 31.203125 31.390625 
L 31.203125 23.390625 
L 4.890625 23.390625 
z
" id="DejaVuSans-2d"/>
       <path d="M 12.40625 8.296875 
L 28.515625 8.296875 
L 28.515625 63.921875 
L 10.984375 60.40625 
L 10.984375 69.390625 
L 28.421875 72.90625 
L 38.28125 72.90625 
L 38.28125 8.296875 
L 54.390625 8.296875 
L 54.390625 0 
L 12.40625 0 
z
" id="DejaVuSans-31"/>
      </defs>
      <g transform="translate(154.559125 313.476875)scale(0.2 -0.2)">
       <use xlink:href="#DejaVuSans-2d"/>
       <use x="36.083984" xlink:href="#DejaVuSans-31"/>
      </g>
     </g>
    </g>
    <g id="xtick_2">
     <g id="line2d_3">
      <path clip-path="url(#pb88db7c8ac)" d="M 264.794309 291.28 
L 264.794309 5.52 
" style="fill:none;stroke:#b0b0b0;stroke-linecap:square;stroke-width:0.8;"/>
     </g>
     <g id="line2d_4">
      <g>
       <use style="stroke:#000000;stroke-width:0.8;" x="264.794309" xlink:href="#m9ad5af05c0" y="291.28"/>
      </g>
     </g>
     <g id="text_2">
      <!-- 0 -->
      <defs>
       <path d="M 31.78125 66.40625 
Q 24.171875 66.40625 20.328125 58.90625 
Q 16.5 51.421875 16.5 36.375 
Q 16.5 21.390625 20.328125 13.890625 
Q 24.171875 6.390625 31.78125 6.390625 
Q 39.453125 6.390625 43.28125 13.890625 
Q 47.125 21.390625 47.125 36.375 
Q 47.125 51.421875 43.28125 58.90625 
Q 39.453125 66.40625 31.78125 66.40625 
z
M 31.78125 74.21875 
Q 44.046875 74.21875 50.515625 64.515625 
Q 56.984375 54.828125 56.984375 36.375 
Q 56.984375 17.96875 50.515625 8.265625 
Q 44.046875 -1.421875 31.78125 -1.421875 
Q 19.53125 -1.421875 13.0625 8.265625 
Q 6.59375 17.96875 6.59375 36.375 
Q 6.59375 54.828125 13.0625 64.515625 
Q 19.53125 74.21875 31.78125 74.21875 
z
" id="DejaVuSans-30"/>
      </defs>
      <g transform="translate(258.431809 313.476875)scale(0.2 -0.2)">
       <use xlink:href="#DejaVuSans-30"/>
      </g>
     </g>
    </g>
    <g id="xtick_3">
     <g id="line2d_5">
      <path clip-path="url(#pb88db7c8ac)" d="M 365.05918 291.28 
L 365.05918 5.52 
" style="fill:none;stroke:#b0b0b0;stroke-linecap:square;stroke-width:0.8;"/>
     </g>
     <g id="line2d_6">
      <g>
       <use style="stroke:#000000;stroke-width:0.8;" x="365.05918" xlink:href="#m9ad5af05c0" y="291.28"/>
      </g>
     </g>
     <g id="text_3">
      <!-- 1 -->
      <g transform="translate(358.69668 313.476875)scale(0.2 -0.2)">
       <use xlink:href="#DejaVuSans-31"/>
      </g>
     </g>
    </g>
    <g id="xtick_4">
     <g id="line2d_7">
      <defs>
       <path d="M 0 0 
L 0 2 
" id="m833a63a93c" style="stroke:#000000;stroke-width:0.6;"/>
      </defs>
      <g>
       <use style="stroke:#000000;stroke-width:0.6;" x="79.795792" xlink:href="#m833a63a93c" y="291.28"/>
      </g>
     </g>
     <g id="text_4">
      <!-- $\mathdefault{1.42857\times10^{-2}}$ -->
      <defs>
       <path d="M 10.6875 12.40625 
L 21 12.40625 
L 21 0 
L 10.6875 0 
z
" id="DejaVuSans-2e"/>
       <path d="M 37.796875 64.3125 
L 12.890625 25.390625 
L 37.796875 25.390625 
z
M 35.203125 72.90625 
L 47.609375 72.90625 
L 47.609375 25.390625 
L 58.015625 25.390625 
L 58.015625 17.1875 
L 47.609375 17.1875 
L 47.609375 0 
L 37.796875 0 
L 37.796875 17.1875 
L 4.890625 17.1875 
L 4.890625 26.703125 
z
" id="DejaVuSans-34"/>
       <path d="M 19.1875 8.296875 
L 53.609375 8.296875 
L 53.609375 0 
L 7.328125 0 
L 7.328125 8.296875 
Q 12.9375 14.109375 22.625 23.890625 
Q 32.328125 33.6875 34.8125 36.53125 
Q 39.546875 41.84375 41.421875 45.53125 
Q 43.3125 49.21875 43.3125 52.78125 
Q 43.3125 58.59375 39.234375 62.25 
Q 35.15625 65.921875 28.609375 65.921875 
Q 23.96875 65.921875 18.8125 64.3125 
Q 13.671875 62.703125 7.8125 59.421875 
L 7.8125 69.390625 
Q 13.765625 71.78125 18.9375 73 
Q 24.125 74.21875 28.421875 74.21875 
Q 39.75 74.21875 46.484375 68.546875 
Q 53.21875 62.890625 53.21875 53.421875 
Q 53.21875 48.921875 51.53125 44.890625 
Q 49.859375 40.875 45.40625 35.40625 
Q 44.1875 33.984375 37.640625 27.21875 
Q 31.109375 20.453125 19.1875 8.296875 
z
" id="DejaVuSans-32"/>
       <path d="M 31.78125 34.625 
Q 24.75 34.625 20.71875 30.859375 
Q 16.703125 27.09375 16.703125 20.515625 
Q 16.703125 13.921875 20.71875 10.15625 
Q 24.75 6.390625 31.78125 6.390625 
Q 38.8125 6.390625 42.859375 10.171875 
Q 46.921875 13.96875 46.921875 20.515625 
Q 46.921875 27.09375 42.890625 30.859375 
Q 38.875 34.625 31.78125 34.625 
z
M 21.921875 38.8125 
Q 15.578125 40.375 12.03125 44.71875 
Q 8.5 49.078125 8.5 55.328125 
Q 8.5 64.0625 14.71875 69.140625 
Q 20.953125 74.21875 31.78125 74.21875 
Q 42.671875 74.21875 48.875 69.140625 
Q 55.078125 64.0625 55.078125 55.328125 
Q 55.078125 49.078125 51.53125 44.71875 
Q 48 40.375 41.703125 38.8125 
Q 48.828125 37.15625 52.796875 32.3125 
Q 56.78125 27.484375 56.78125 20.515625 
Q 56.78125 9.90625 50.3125 4.234375 
Q 43.84375 -1.421875 31.78125 -1.421875 
Q 19.734375 -1.421875 13.25 4.234375 
Q 6.78125 9.90625 6.78125 20.515625 
Q 6.78125 27.484375 10.78125 32.3125 
Q 14.796875 37.15625 21.921875 38.8125 
z
M 18.3125 54.390625 
Q 18.3125 48.734375 21.84375 45.5625 
Q 25.390625 42.390625 31.78125 42.390625 
Q 38.140625 42.390625 41.71875 45.5625 
Q 45.3125 48.734375 45.3125 54.390625 
Q 45.3125 60.0625 41.71875 63.234375 
Q 38.140625 66.40625 31.78125 66.40625 
Q 25.390625 66.40625 21.84375 63.234375 
Q 18.3125 60.0625 18.3125 54.390625 
z
" id="DejaVuSans-38"/>
       <path d="M 10.796875 72.90625 
L 49.515625 72.90625 
L 49.515625 64.59375 
L 19.828125 64.59375 
L 19.828125 46.734375 
Q 21.96875 47.46875 24.109375 47.828125 
Q 26.265625 48.1875 28.421875 48.1875 
Q 40.625 48.1875 47.75 41.5 
Q 54.890625 34.8125 54.890625 23.390625 
Q 54.890625 11.625 47.5625 5.09375 
Q 40.234375 -1.421875 26.90625 -1.421875 
Q 22.3125 -1.421875 17.546875 -0.640625 
Q 12.796875 0.140625 7.71875 1.703125 
L 7.71875 11.625 
Q 12.109375 9.234375 16.796875 8.0625 
Q 21.484375 6.890625 26.703125 6.890625 
Q 35.15625 6.890625 40.078125 11.328125 
Q 45.015625 15.765625 45.015625 23.390625 
Q 45.015625 31 40.078125 35.4375 
Q 35.15625 39.890625 26.703125 39.890625 
Q 22.75 39.890625 18.8125 39.015625 
Q 14.890625 38.140625 10.796875 36.28125 
z
" id="DejaVuSans-35"/>
       <path d="M 8.203125 72.90625 
L 55.078125 72.90625 
L 55.078125 68.703125 
L 28.609375 0 
L 18.3125 0 
L 43.21875 64.59375 
L 8.203125 64.59375 
z
" id="DejaVuSans-37"/>
       <path d="M 70.125 53.71875 
L 47.796875 31.296875 
L 70.125 8.984375 
L 64.3125 3.078125 
L 41.890625 25.484375 
L 19.484375 3.078125 
L 13.71875 8.984375 
L 35.984375 31.296875 
L 13.71875 53.71875 
L 19.484375 59.625 
L 41.890625 37.203125 
L 64.3125 59.625 
z
" id="DejaVuSans-d7"/>
       <path d="M 10.59375 35.5 
L 73.1875 35.5 
L 73.1875 27.203125 
L 10.59375 27.203125 
z
" id="DejaVuSans-2212"/>
      </defs>
      <g transform="translate(2.695792 311.876875)scale(0.2 -0.2)">
       <use transform="translate(0 0.765625)" xlink:href="#DejaVuSans-31"/>
       <use transform="translate(63.623047 0.765625)" xlink:href="#DejaVuSans-2e"/>
       <use transform="translate(95.410156 0.765625)" xlink:href="#DejaVuSans-34"/>
       <use transform="translate(159.033203 0.765625)" xlink:href="#DejaVuSans-32"/>
       <use transform="translate(222.65625 0.765625)" xlink:href="#DejaVuSans-38"/>
       <use transform="translate(286.279297 0.765625)" xlink:href="#DejaVuSans-35"/>
       <use transform="translate(349.792969 0.765625)" xlink:href="#DejaVuSans-37"/>
       <use transform="translate(432.898438 0.765625)" xlink:href="#DejaVuSans-d7"/>
       <use transform="translate(536.169922 0.765625)" xlink:href="#DejaVuSans-31"/>
       <use transform="translate(599.792969 0.765625)" xlink:href="#DejaVuSans-30"/>
       <use transform="translate(664.373047 39.046875)scale(0.7)" xlink:href="#DejaVuSans-2212"/>
       <use transform="translate(723.025391 39.046875)scale(0.7)" xlink:href="#DejaVuSans-32"/>
      </g>
     </g>
    </g>
    <g id="xtick_5">
     <g id="line2d_8">
      <g>
       <use style="stroke:#000000;stroke-width:0.6;" x="86.508203" xlink:href="#m833a63a93c" y="291.28"/>
      </g>
     </g>
    </g>
    <g id="xtick_6">
     <g id="line2d_9">
      <g>
       <use style="stroke:#000000;stroke-width:0.6;" x="94.4473" xlink:href="#m833a63a93c" y="291.28"/>
      </g>
     </g>
    </g>
    <g id="xtick_7">
     <g id="line2d_10">
      <g>
       <use style="stroke:#000000;stroke-width:0.6;" x="104.16397" xlink:href="#m833a63a93c" y="291.28"/>
      </g>
     </g>
    </g>
    <g id="xtick_8">
     <g id="line2d_11">
      <g>
       <use style="stroke:#000000;stroke-width:0.6;" x="116.690937" xlink:href="#m833a63a93c" y="291.28"/>
      </g>
     </g>
    </g>
    <g id="xtick_9">
     <g id="line2d_12">
      <g>
       <use style="stroke:#000000;stroke-width:0.6;" x="134.346704" xlink:href="#m833a63a93c" y="291.28"/>
      </g>
     </g>
    </g>
    <g id="xtick_10">
     <g id="line2d_13">
      <g>
       <use style="stroke:#000000;stroke-width:0.6;" x="169.117306" xlink:href="#m833a63a93c" y="291.28"/>
      </g>
     </g>
     <g id="text_5">
      <!-- $\mathdefault{1.11111\times10^{-1}}$ -->
      <g transform="translate(92.017306 311.876875)scale(0.2 -0.2)">
       <use transform="translate(0 0.684375)" xlink:href="#DejaVuSans-31"/>
       <use transform="translate(63.623047 0.684375)" xlink:href="#DejaVuSans-2e"/>
       <use transform="translate(95.410156 0.684375)" xlink:href="#DejaVuSans-31"/>
       <use transform="translate(159.033203 0.684375)" xlink:href="#DejaVuSans-31"/>
       <use transform="translate(222.65625 0.684375)" xlink:href="#DejaVuSans-31"/>
       <use transform="translate(286.279297 0.684375)" xlink:href="#DejaVuSans-31"/>
       <use transform="translate(349.902344 0.684375)" xlink:href="#DejaVuSans-31"/>
       <use transform="translate(433.007812 0.684375)" xlink:href="#DejaVuSans-d7"/>
       <use transform="translate(536.279297 0.684375)" xlink:href="#DejaVuSans-31"/>
       <use transform="translate(599.902344 0.684375)" xlink:href="#DejaVuSans-30"/>
       <use transform="translate(664.482422 38.965625)scale(0.7)" xlink:href="#DejaVuSans-2212"/>
       <use transform="translate(723.134766 38.965625)scale(0.7)" xlink:href="#DejaVuSans-31"/>
      </g>
     </g>
    </g>
    <g id="xtick_11">
     <g id="line2d_14">
      <g>
       <use style="stroke:#000000;stroke-width:0.6;" x="174.246108" xlink:href="#m833a63a93c" y="291.28"/>
      </g>
     </g>
     <g id="text_6">
      <!-- $\mathdefault{1.25\times10^{-1}}$ -->
      <g transform="translate(116.246108 311.876875)scale(0.2 -0.2)">
       <use transform="translate(0 0.684375)" xlink:href="#DejaVuSans-31"/>
       <use transform="translate(63.623047 0.684375)" xlink:href="#DejaVuSans-2e"/>
       <use transform="translate(95.332031 0.684375)" xlink:href="#DejaVuSans-32"/>
       <use transform="translate(158.955078 0.684375)" xlink:href="#DejaVuSans-35"/>
       <use transform="translate(242.060547 0.684375)" xlink:href="#DejaVuSans-d7"/>
       <use transform="translate(345.332031 0.684375)" xlink:href="#DejaVuSans-31"/>
       <use transform="translate(408.955078 0.684375)" xlink:href="#DejaVuSans-30"/>
       <use transform="translate(473.535156 38.965625)scale(0.7)" xlink:href="#DejaVuSans-2212"/>
       <use transform="translate(532.1875 38.965625)scale(0.7)" xlink:href="#DejaVuSans-31"/>
      </g>
     </g>
    </g>
    <g id="xtick_12">
     <g id="line2d_15">
      <g>
       <use style="stroke:#000000;stroke-width:0.6;" x="180.060663" xlink:href="#m833a63a93c" y="291.28"/>
      </g>
     </g>
     <g id="text_7">
      <!-- $\mathdefault{1.42857\times10^{-1}}$ -->
      <g transform="translate(102.960663 311.876875)scale(0.2 -0.2)">
       <use transform="translate(0 0.684375)" xlink:href="#DejaVuSans-31"/>
       <use transform="translate(63.623047 0.684375)" xlink:href="#DejaVuSans-2e"/>
       <use transform="translate(95.410156 0.684375)" xlink:href="#DejaVuSans-34"/>
       <use transform="translate(159.033203 0.684375)" xlink:href="#DejaVuSans-32"/>
       <use transform="translate(222.65625 0.684375)" xlink:href="#DejaVuSans-38"/>
       <use transform="translate(286.279297 0.684375)" xlink:href="#DejaVuSans-35"/>
       <use transform="translate(349.792969 0.684375)" xlink:href="#DejaVuSans-37"/>
       <use transform="translate(432.898438 0.684375)" xlink:href="#DejaVuSans-d7"/>
       <use transform="translate(536.169922 0.684375)" xlink:href="#DejaVuSans-31"/>
       <use transform="translate(599.792969 0.684375)" xlink:href="#DejaVuSans-30"/>
       <use transform="translate(664.373047 38.965625)scale(0.7)" xlink:href="#DejaVuSans-2212"/>
       <use transform="translate(723.025391 38.965625)scale(0.7)" xlink:href="#DejaVuSans-31"/>
      </g>
     </g>
    </g>
    <g id="xtick_13">
     <g id="line2d_16">
      <g>
       <use style="stroke:#000000;stroke-width:0.6;" x="186.773074" xlink:href="#m833a63a93c" y="291.28"/>
      </g>
     </g>
    </g>
    <g id="xtick_14">
     <g id="line2d_17">
      <g>
       <use style="stroke:#000000;stroke-width:0.6;" x="194.712171" xlink:href="#m833a63a93c" y="291.28"/>
      </g>
     </g>
    </g>
    <g id="xtick_15">
     <g id="line2d_18">
      <g>
       <use style="stroke:#000000;stroke-width:0.6;" x="204.428841" xlink:href="#m833a63a93c" y="291.28"/>
      </g>
     </g>
    </g>
    <g id="xtick_16">
     <g id="line2d_19">
      <g>
       <use style="stroke:#000000;stroke-width:0.6;" x="216.955808" xlink:href="#m833a63a93c" y="291.28"/>
      </g>
     </g>
    </g>
    <g id="xtick_17">
     <g id="line2d_20">
      <g>
       <use style="stroke:#000000;stroke-width:0.6;" x="234.611575" xlink:href="#m833a63a93c" y="291.28"/>
      </g>
     </g>
    </g>
    <g id="xtick_18">
     <g id="line2d_21">
      <g>
       <use style="stroke:#000000;stroke-width:0.6;" x="294.977042" xlink:href="#m833a63a93c" y="291.28"/>
      </g>
     </g>
    </g>
    <g id="xtick_19">
     <g id="line2d_22">
      <g>
       <use style="stroke:#000000;stroke-width:0.6;" x="312.63281" xlink:href="#m833a63a93c" y="291.28"/>
      </g>
     </g>
    </g>
    <g id="xtick_20">
     <g id="line2d_23">
      <g>
       <use style="stroke:#000000;stroke-width:0.6;" x="325.159776" xlink:href="#m833a63a93c" y="291.28"/>
      </g>
     </g>
    </g>
    <g id="xtick_21">
     <g id="line2d_24">
      <g>
       <use style="stroke:#000000;stroke-width:0.6;" x="334.876446" xlink:href="#m833a63a93c" y="291.28"/>
      </g>
     </g>
    </g>
    <g id="xtick_22">
     <g id="line2d_25">
      <g>
       <use style="stroke:#000000;stroke-width:0.6;" x="342.815543" xlink:href="#m833a63a93c" y="291.28"/>
      </g>
     </g>
    </g>
    <g id="xtick_23">
     <g id="line2d_26">
      <g>
       <use style="stroke:#000000;stroke-width:0.6;" x="349.527954" xlink:href="#m833a63a93c" y="291.28"/>
      </g>
     </g>
    </g>
    <g id="xtick_24">
     <g id="line2d_27">
      <g>
       <use style="stroke:#000000;stroke-width:0.6;" x="355.34251" xlink:href="#m833a63a93c" y="291.28"/>
      </g>
     </g>
    </g>
    <g id="xtick_25">
     <g id="line2d_28">
      <g>
       <use style="stroke:#000000;stroke-width:0.6;" x="360.471311" xlink:href="#m833a63a93c" y="291.28"/>
      </g>
     </g>
    </g>
    <g id="xtick_26">
     <g id="line2d_29">
      <g>
       <use style="stroke:#000000;stroke-width:0.6;" x="395.241913" xlink:href="#m833a63a93c" y="291.28"/>
      </g>
     </g>
    </g>
    <g id="xtick_27">
     <g id="line2d_30">
      <g>
       <use style="stroke:#000000;stroke-width:0.6;" x="412.897681" xlink:href="#m833a63a93c" y="291.28"/>
      </g>
     </g>
    </g>
    <g id="xtick_28">
     <g id="line2d_31">
      <g>
       <use style="stroke:#000000;stroke-width:0.6;" x="425.424647" xlink:href="#m833a63a93c" y="291.28"/>
      </g>
     </g>
    </g>
    <g id="xtick_29">
     <g id="line2d_32">
      <g>
       <use style="stroke:#000000;stroke-width:0.6;" x="435.141317" xlink:href="#m833a63a93c" y="291.28"/>
      </g>
     </g>
    </g>
    <g id="xtick_30">
     <g id="line2d_33">
      <g>
       <use style="stroke:#000000;stroke-width:0.6;" x="443.080414" xlink:href="#m833a63a93c" y="291.28"/>
      </g>
     </g>
    </g>
    <g id="xtick_31">
     <g id="line2d_34">
      <g>
       <use style="stroke:#000000;stroke-width:0.6;" x="449.792825" xlink:href="#m833a63a93c" y="291.28"/>
      </g>
     </g>
    </g>
    <g id="text_8">
     <!-- log10 of FEvals ratio -->
     <defs>
      <path d="M 9.421875 75.984375 
L 18.40625 75.984375 
L 18.40625 0 
L 9.421875 0 
z
" id="DejaVuSans-6c"/>
      <path d="M 30.609375 48.390625 
Q 23.390625 48.390625 19.1875 42.75 
Q 14.984375 37.109375 14.984375 27.296875 
Q 14.984375 17.484375 19.15625 11.84375 
Q 23.34375 6.203125 30.609375 6.203125 
Q 37.796875 6.203125 41.984375 11.859375 
Q 46.1875 17.53125 46.1875 27.296875 
Q 46.1875 37.015625 41.984375 42.703125 
Q 37.796875 48.390625 30.609375 48.390625 
z
M 30.609375 56 
Q 42.328125 56 49.015625 48.375 
Q 55.71875 40.765625 55.71875 27.296875 
Q 55.71875 13.875 49.015625 6.21875 
Q 42.328125 -1.421875 30.609375 -1.421875 
Q 18.84375 -1.421875 12.171875 6.21875 
Q 5.515625 13.875 5.515625 27.296875 
Q 5.515625 40.765625 12.171875 48.375 
Q 18.84375 56 30.609375 56 
z
" id="DejaVuSans-6f"/>
      <path d="M 45.40625 27.984375 
Q 45.40625 37.75 41.375 43.109375 
Q 37.359375 48.484375 30.078125 48.484375 
Q 22.859375 48.484375 18.828125 43.109375 
Q 14.796875 37.75 14.796875 27.984375 
Q 14.796875 18.265625 18.828125 12.890625 
Q 22.859375 7.515625 30.078125 7.515625 
Q 37.359375 7.515625 41.375 12.890625 
Q 45.40625 18.265625 45.40625 27.984375 
z
M 54.390625 6.78125 
Q 54.390625 -7.171875 48.1875 -13.984375 
Q 42 -20.796875 29.203125 -20.796875 
Q 24.46875 -20.796875 20.265625 -20.09375 
Q 16.0625 -19.390625 12.109375 -17.921875 
L 12.109375 -9.1875 
Q 16.0625 -11.328125 19.921875 -12.34375 
Q 23.78125 -13.375 27.78125 -13.375 
Q 36.625 -13.375 41.015625 -8.765625 
Q 45.40625 -4.15625 45.40625 5.171875 
L 45.40625 9.625 
Q 42.625 4.78125 38.28125 2.390625 
Q 33.9375 0 27.875 0 
Q 17.828125 0 11.671875 7.65625 
Q 5.515625 15.328125 5.515625 27.984375 
Q 5.515625 40.671875 11.671875 48.328125 
Q 17.828125 56 27.875 56 
Q 33.9375 56 38.28125 53.609375 
Q 42.625 51.21875 45.40625 46.390625 
L 45.40625 54.6875 
L 54.390625 54.6875 
z
" id="DejaVuSans-67"/>
      <path id="DejaVuSans-20"/>
      <path d="M 37.109375 75.984375 
L 37.109375 68.5 
L 28.515625 68.5 
Q 23.6875 68.5 21.796875 66.546875 
Q 19.921875 64.59375 19.921875 59.515625 
L 19.921875 54.6875 
L 34.71875 54.6875 
L 34.71875 47.703125 
L 19.921875 47.703125 
L 19.921875 0 
L 10.890625 0 
L 10.890625 47.703125 
L 2.296875 47.703125 
L 2.296875 54.6875 
L 10.890625 54.6875 
L 10.890625 58.5 
Q 10.890625 67.625 15.140625 71.796875 
Q 19.390625 75.984375 28.609375 75.984375 
z
" id="DejaVuSans-66"/>
      <path d="M 9.8125 72.90625 
L 51.703125 72.90625 
L 51.703125 64.59375 
L 19.671875 64.59375 
L 19.671875 43.109375 
L 48.578125 43.109375 
L 48.578125 34.8125 
L 19.671875 34.8125 
L 19.671875 0 
L 9.8125 0 
z
" id="DejaVuSans-46"/>
      <path d="M 9.8125 72.90625 
L 55.90625 72.90625 
L 55.90625 64.59375 
L 19.671875 64.59375 
L 19.671875 43.015625 
L 54.390625 43.015625 
L 54.390625 34.71875 
L 19.671875 34.71875 
L 19.671875 8.296875 
L 56.78125 8.296875 
L 56.78125 0 
L 9.8125 0 
z
" id="DejaVuSans-45"/>
      <path d="M 2.984375 54.6875 
L 12.5 54.6875 
L 29.59375 8.796875 
L 46.6875 54.6875 
L 56.203125 54.6875 
L 35.6875 0 
L 23.484375 0 
z
" id="DejaVuSans-76"/>
      <path d="M 34.28125 27.484375 
Q 23.390625 27.484375 19.1875 25 
Q 14.984375 22.515625 14.984375 16.5 
Q 14.984375 11.71875 18.140625 8.90625 
Q 21.296875 6.109375 26.703125 6.109375 
Q 34.1875 6.109375 38.703125 11.40625 
Q 43.21875 16.703125 43.21875 25.484375 
L 43.21875 27.484375 
z
M 52.203125 31.203125 
L 52.203125 0 
L 43.21875 0 
L 43.21875 8.296875 
Q 40.140625 3.328125 35.546875 0.953125 
Q 30.953125 -1.421875 24.3125 -1.421875 
Q 15.921875 -1.421875 10.953125 3.296875 
Q 6 8.015625 6 15.921875 
Q 6 25.140625 12.171875 29.828125 
Q 18.359375 34.515625 30.609375 34.515625 
L 43.21875 34.515625 
L 43.21875 35.40625 
Q 43.21875 41.609375 39.140625 45 
Q 35.0625 48.390625 27.6875 48.390625 
Q 23 48.390625 18.546875 47.265625 
Q 14.109375 46.140625 10.015625 43.890625 
L 10.015625 52.203125 
Q 14.9375 54.109375 19.578125 55.046875 
Q 24.21875 56 28.609375 56 
Q 40.484375 56 46.34375 49.84375 
Q 52.203125 43.703125 52.203125 31.203125 
z
" id="DejaVuSans-61"/>
      <path d="M 44.28125 53.078125 
L 44.28125 44.578125 
Q 40.484375 46.53125 36.375 47.5 
Q 32.28125 48.484375 27.875 48.484375 
Q 21.1875 48.484375 17.84375 46.4375 
Q 14.5 44.390625 14.5 40.28125 
Q 14.5 37.15625 16.890625 35.375 
Q 19.28125 33.59375 26.515625 31.984375 
L 29.59375 31.296875 
Q 39.15625 29.25 43.1875 25.515625 
Q 47.21875 21.78125 47.21875 15.09375 
Q 47.21875 7.46875 41.1875 3.015625 
Q 35.15625 -1.421875 24.609375 -1.421875 
Q 20.21875 -1.421875 15.453125 -0.5625 
Q 10.6875 0.296875 5.421875 2 
L 5.421875 11.28125 
Q 10.40625 8.6875 15.234375 7.390625 
Q 20.0625 6.109375 24.8125 6.109375 
Q 31.15625 6.109375 34.5625 8.28125 
Q 37.984375 10.453125 37.984375 14.40625 
Q 37.984375 18.0625 35.515625 20.015625 
Q 33.0625 21.96875 24.703125 23.78125 
L 21.578125 24.515625 
Q 13.234375 26.265625 9.515625 29.90625 
Q 5.8125 33.546875 5.8125 39.890625 
Q 5.8125 47.609375 11.28125 51.796875 
Q 16.75 56 26.8125 56 
Q 31.78125 56 36.171875 55.265625 
Q 40.578125 54.546875 44.28125 53.078125 
z
" id="DejaVuSans-73"/>
      <path d="M 41.109375 46.296875 
Q 39.59375 47.171875 37.8125 47.578125 
Q 36.03125 48 33.890625 48 
Q 26.265625 48 22.1875 43.046875 
Q 18.109375 38.09375 18.109375 28.8125 
L 18.109375 0 
L 9.078125 0 
L 9.078125 54.6875 
L 18.109375 54.6875 
L 18.109375 46.1875 
Q 20.953125 51.171875 25.484375 53.578125 
Q 30.03125 56 36.53125 56 
Q 37.453125 56 38.578125 55.875 
Q 39.703125 55.765625 41.0625 55.515625 
z
" id="DejaVuSans-72"/>
      <path d="M 18.3125 70.21875 
L 18.3125 54.6875 
L 36.8125 54.6875 
L 36.8125 47.703125 
L 18.3125 47.703125 
L 18.3125 18.015625 
Q 18.3125 11.328125 20.140625 9.421875 
Q 21.96875 7.515625 27.59375 7.515625 
L 36.8125 7.515625 
L 36.8125 0 
L 27.59375 0 
Q 17.1875 0 13.234375 3.875 
Q 9.28125 7.765625 9.28125 18.015625 
L 9.28125 47.703125 
L 2.6875 47.703125 
L 2.6875 54.6875 
L 9.28125 54.6875 
L 9.28125 70.21875 
z
" id="DejaVuSans-74"/>
      <path d="M 9.421875 54.6875 
L 18.40625 54.6875 
L 18.40625 0 
L 9.421875 0 
z
M 9.421875 75.984375 
L 18.40625 75.984375 
L 18.40625 64.59375 
L 9.421875 64.59375 
z
" id="DejaVuSans-69"/>
     </defs>
     <g transform="translate(162.489621 336.833125)scale(0.2 -0.2)">
      <use xlink:href="#DejaVuSans-6c"/>
      <use x="27.783203" xlink:href="#DejaVuSans-6f"/>
      <use x="88.964844" xlink:href="#DejaVuSans-67"/>
      <use x="152.441406" xlink:href="#DejaVuSans-31"/>
      <use x="216.064453" xlink:href="#DejaVuSans-30"/>
      <use x="279.6875" xlink:href="#DejaVuSans-20"/>
      <use x="311.474609" xlink:href="#DejaVuSans-6f"/>
      <use x="372.65625" xlink:href="#DejaVuSans-66"/>
      <use x="407.861328" xlink:href="#DejaVuSans-20"/>
      <use x="439.648438" xlink:href="#DejaVuSans-46"/>
      <use x="497.167969" xlink:href="#DejaVuSans-45"/>
      <use x="560.351562" xlink:href="#DejaVuSans-76"/>
      <use x="619.53125" xlink:href="#DejaVuSans-61"/>
      <use x="680.810547" xlink:href="#DejaVuSans-6c"/>
      <use x="708.59375" xlink:href="#DejaVuSans-73"/>
      <use x="760.693359" xlink:href="#DejaVuSans-20"/>
      <use x="792.480469" xlink:href="#DejaVuSans-72"/>
      <use x="833.59375" xlink:href="#DejaVuSans-61"/>
      <use x="894.873047" xlink:href="#DejaVuSans-74"/>
      <use x="934.082031" xlink:href="#DejaVuSans-69"/>
      <use x="961.865234" xlink:href="#DejaVuSans-6f"/>
     </g>
    </g>
   </g>
   <g id="matplotlib.axis_2">
    <g id="ytick_1">
     <g id="line2d_35">
      <path clip-path="url(#pb88db7c8ac)" d="M 78.916617 288.478431 
L 450.672 288.478431 
" style="fill:none;stroke:#b0b0b0;stroke-linecap:square;stroke-width:0.8;"/>
     </g>
     <g id="line2d_36">
      <defs>
       <path d="M 0 0 
L -3.5 0 
" id="m68aeb4722f" style="stroke:#000000;stroke-width:0.8;"/>
      </defs>
      <g>
       <use style="stroke:#000000;stroke-width:0.8;" x="78.916617" xlink:href="#m68aeb4722f" y="288.478431"/>
      </g>
     </g>
    </g>
    <g id="ytick_2">
     <g id="line2d_37">
      <path clip-path="url(#pb88db7c8ac)" d="M 78.916617 218.439216 
L 450.672 218.439216 
" style="fill:none;stroke:#b0b0b0;stroke-linecap:square;stroke-width:0.8;"/>
     </g>
     <g id="line2d_38">
      <g>
       <use style="stroke:#000000;stroke-width:0.8;" x="78.916617" xlink:href="#m68aeb4722f" y="218.439216"/>
      </g>
     </g>
    </g>
    <g id="ytick_3">
     <g id="line2d_39">
      <path clip-path="url(#pb88db7c8ac)" d="M 78.916617 148.4 
L 450.672 148.4 
" style="fill:none;stroke:#b0b0b0;stroke-linecap:square;stroke-width:0.8;"/>
     </g>
     <g id="line2d_40">
      <g>
       <use style="stroke:#000000;stroke-width:0.8;" x="78.916617" xlink:href="#m68aeb4722f" y="148.4"/>
      </g>
     </g>
    </g>
    <g id="ytick_4">
     <g id="line2d_41">
      <path clip-path="url(#pb88db7c8ac)" d="M 78.916617 78.360784 
L 450.672 78.360784 
" style="fill:none;stroke:#b0b0b0;stroke-linecap:square;stroke-width:0.8;"/>
     </g>
     <g id="line2d_42">
      <g>
       <use style="stroke:#000000;stroke-width:0.8;" x="78.916617" xlink:href="#m68aeb4722f" y="78.360784"/>
      </g>
     </g>
    </g>
    <g id="ytick_5">
     <g id="line2d_43">
      <path clip-path="url(#pb88db7c8ac)" d="M 78.916617 8.321569 
L 450.672 8.321569 
" style="fill:none;stroke:#b0b0b0;stroke-linecap:square;stroke-width:0.8;"/>
     </g>
     <g id="line2d_44">
      <g>
       <use style="stroke:#000000;stroke-width:0.8;" x="78.916617" xlink:href="#m68aeb4722f" y="8.321569"/>
      </g>
     </g>
    </g>
    <g id="text_9">
     <!-- proportion of trials -->
     <defs>
      <path d="M 18.109375 8.203125 
L 18.109375 -20.796875 
L 9.078125 -20.796875 
L 9.078125 54.6875 
L 18.109375 54.6875 
L 18.109375 46.390625 
Q 20.953125 51.265625 25.265625 53.625 
Q 29.59375 56 35.59375 56 
Q 45.5625 56 51.78125 48.09375 
Q 58.015625 40.1875 58.015625 27.296875 
Q 58.015625 14.40625 51.78125 6.484375 
Q 45.5625 -1.421875 35.59375 -1.421875 
Q 29.59375 -1.421875 25.265625 0.953125 
Q 20.953125 3.328125 18.109375 8.203125 
z
M 48.6875 27.296875 
Q 48.6875 37.203125 44.609375 42.84375 
Q 40.53125 48.484375 33.40625 48.484375 
Q 26.265625 48.484375 22.1875 42.84375 
Q 18.109375 37.203125 18.109375 27.296875 
Q 18.109375 17.390625 22.1875 11.75 
Q 26.265625 6.109375 33.40625 6.109375 
Q 40.53125 6.109375 44.609375 11.75 
Q 48.6875 17.390625 48.6875 27.296875 
z
" id="DejaVuSans-70"/>
      <path d="M 54.890625 33.015625 
L 54.890625 0 
L 45.90625 0 
L 45.90625 32.71875 
Q 45.90625 40.484375 42.875 44.328125 
Q 39.84375 48.1875 33.796875 48.1875 
Q 26.515625 48.1875 22.3125 43.546875 
Q 18.109375 38.921875 18.109375 30.90625 
L 18.109375 0 
L 9.078125 0 
L 9.078125 54.6875 
L 18.109375 54.6875 
L 18.109375 46.1875 
Q 21.34375 51.125 25.703125 53.5625 
Q 30.078125 56 35.796875 56 
Q 45.21875 56 50.046875 50.171875 
Q 54.890625 44.34375 54.890625 33.015625 
z
" id="DejaVuSans-6e"/>
     </defs>
     <g transform="translate(63.757242 241.628125)rotate(-90)scale(0.2 -0.2)">
      <use xlink:href="#DejaVuSans-70"/>
      <use x="63.476562" xlink:href="#DejaVuSans-72"/>
      <use x="104.558594" xlink:href="#DejaVuSans-6f"/>
      <use x="165.740234" xlink:href="#DejaVuSans-70"/>
      <use x="229.216797" xlink:href="#DejaVuSans-6f"/>
      <use x="290.398438" xlink:href="#DejaVuSans-72"/>
      <use x="331.511719" xlink:href="#DejaVuSans-74"/>
      <use x="370.720703" xlink:href="#DejaVuSans-69"/>
      <use x="398.503906" xlink:href="#DejaVuSans-6f"/>
      <use x="459.685547" xlink:href="#DejaVuSans-6e"/>
      <use x="523.064453" xlink:href="#DejaVuSans-20"/>
      <use x="554.851562" xlink:href="#DejaVuSans-6f"/>
      <use x="616.033203" xlink:href="#DejaVuSans-66"/>
      <use x="651.238281" xlink:href="#DejaVuSans-20"/>
      <use x="683.025391" xlink:href="#DejaVuSans-74"/>
      <use x="722.234375" xlink:href="#DejaVuSans-72"/>
      <use x="763.347656" xlink:href="#DejaVuSans-69"/>
      <use x="791.130859" xlink:href="#DejaVuSans-61"/>
      <use x="852.410156" xlink:href="#DejaVuSans-6c"/>
      <use x="880.193359" xlink:href="#DejaVuSans-73"/>
     </g>
    </g>
   </g>
   <g id="line2d_45">
    <path clip-path="url(#pb88db7c8ac)" d="M 78.916617 260.462745 
L 92.177441 260.462745 
L 92.177441 259.840174 
L 94.441533 259.840174 
L 94.441533 259.217603 
L 97.42479 259.217603 
L 97.42479 258.595033 
L 106.481067 258.595033 
L 106.481067 257.972462 
L 114.565026 257.972462 
L 114.565026 257.349891 
L 116.829118 257.349891 
L 116.829118 256.72732 
L 119.812375 256.72732 
L 119.812375 256.104749 
L 123.11672 256.104749 
L 123.11672 255.482179 
L 128.868652 255.482179 
L 128.868652 254.859608 
L 131.729413 254.859608 
L 131.729413 254.237037 
L 133.993506 254.237037 
L 133.993506 253.614466 
L 136.976762 253.614466 
L 136.976762 252.991895 
L 139.967853 252.991895 
L 139.967853 251.746754 
L 142.231945 251.746754 
L 142.231945 250.501612 
L 145.215202 250.501612 
L 145.215202 249.256471 
L 145.504305 249.256471 
L 145.504305 248.6339 
L 145.819549 248.6339 
L 145.819549 248.011329 
L 146.033039 248.011329 
L 146.033039 247.388758 
L 146.147751 247.388758 
L 146.147751 246.766187 
L 148.411844 246.766187 
L 148.411844 246.143617 
L 151.3951 246.143617 
L 151.3951 245.521046 
L 154.271479 245.521046 
L 154.271479 244.275904 
L 156.674531 244.275904 
L 156.674531 243.653333 
L 158.339436 243.653333 
L 158.339436 243.030763 
L 159.460815 243.030763 
L 159.460815 242.408192 
L 160.433916 242.408192 
L 160.451378 241.16305 
L 160.603529 241.16305 
L 160.603529 240.540479 
L 161.724908 240.540479 
L 161.724908 239.917908 
L 162.491852 239.917908 
L 162.491852 239.295338 
L 162.668693 239.295338 
L 162.698009 238.050196 
L 163.586785 238.050196 
L 163.586785 237.427625 
L 164.708164 237.427625 
L 164.708164 236.805054 
L 165.681266 236.805054 
L 165.681266 236.182484 
L 168.207134 236.182484 
L 168.207134 235.559913 
L 169.981856 235.559913 
L 169.981856 234.937342 
L 170.907132 234.937342 
L 170.907132 233.6922 
L 172.245948 233.6922 
L 172.245948 233.06963 
L 172.643062 233.06963 
L 172.643062 232.447059 
L 173.764441 232.447059 
L 173.764441 231.824488 
L 174.737543 231.824488 
L 174.737543 231.201917 
L 175.229205 231.201917 
L 175.229205 230.579346 
L 177.087031 230.579346 
L 177.096076 229.334205 
L 178.008765 229.334205 
L 178.008765 228.711634 
L 178.941324 228.711634 
L 178.941324 228.089063 
L 179.062116 228.089063 
L 179.062116 227.466492 
L 179.360169 227.466492 
L 179.360169 226.843922 
L 180.829655 226.843922 
L 180.829655 226.221351 
L 182.343425 226.221351 
L 182.343425 225.59878 
L 184.285482 225.59878 
L 184.285482 224.976209 
L 185.090955 224.976209 
L 185.090955 224.353638 
L 185.371521 224.353638 
L 185.371521 223.731068 
L 187.187392 223.731068 
L 187.187392 223.108497 
L 188.560031 223.108497 
L 188.560031 222.485926 
L 188.820777 222.485926 
L 188.820777 221.863355 
L 189.278716 221.863355 
L 189.278716 221.240784 
L 190.400095 221.240784 
L 190.400095 220.618214 
L 190.856565 220.618214 
L 190.856565 219.995643 
L 191.035638 219.995643 
L 191.035638 219.373072 
L 191.373196 219.373072 
L 191.399703 218.12793 
L 192.225492 218.12793 
L 192.225492 217.505359 
L 192.354807 217.505359 
L 192.354807 216.882789 
L 193.120658 216.882789 
L 193.120658 216.260218 
L 193.299731 216.260218 
L 193.299731 215.637647 
L 193.609961 215.637647 
L 193.609961 214.392505 
L 194.489585 214.392505 
L 194.489585 213.769935 
L 196.103914 213.769935 
L 196.103914 213.147364 
L 196.226503 213.147364 
L 196.282987 211.902222 
L 197.472841 211.902222 
L 197.472841 211.279651 
L 199.062864 211.279651 
L 199.062864 210.657081 
L 199.789859 210.657081 
L 199.789859 210.03451 
L 200.39635 210.03451 
L 200.39635 209.411939 
L 200.921135 209.411939 
L 200.921135 208.789368 
L 201.461331 208.789368 
L 201.461331 208.166797 
L 201.735958 208.166797 
L 201.735958 207.544227 
L 204.428841 207.544227 
L 204.464943 205.676514 
L 205.160192 205.676514 
L 205.160192 205.053943 
L 205.339264 205.053943 
L 205.339264 204.431373 
L 206.529118 204.431373 
L 206.563114 203.186231 
L 206.649512 203.186231 
L 206.649512 202.56366 
L 208.035356 202.56366 
L 208.035356 201.941089 
L 210.54135 201.941089 
L 210.644841 200.695948 
L 211.981544 200.695948 
L 212.092059 199.450806 
L 213.102923 199.450806 
L 213.102923 198.828235 
L 213.589438 198.828235 
L 213.589438 198.205664 
L 213.967415 198.205664 
L 214.076025 196.960523 
L 214.742392 196.960523 
L 214.742392 196.337952 
L 215.028538 196.337952 
L 215.028538 195.715381 
L 217.560737 195.715381 
L 217.560737 195.09281 
L 220.405194 195.09281 
L 220.405194 194.47024 
L 221.795845 194.47024 
L 221.795845 193.847669 
L 221.974918 193.847669 
L 221.974918 193.225098 
L 222.836526 193.225098 
L 222.836526 192.602527 
L 223.164772 192.602527 
L 223.164772 191.979956 
L 223.623964 191.979956 
L 223.623964 191.357386 
L 223.957905 191.357386 
L 223.957905 190.734815 
L 224.931006 190.734815 
L 224.931006 190.112244 
L 225.799177 190.112244 
L 225.799177 188.867102 
L 226.816426 188.867102 
L 226.816426 188.244532 
L 227.024206 188.244532 
L 227.024206 187.621961 
L 229.166155 187.621961 
L 229.166155 186.99939 
L 230.416887 186.99939 
L 230.416887 186.376819 
L 230.738185 186.376819 
L 230.738185 185.754248 
L 231.430248 185.754248 
L 231.430248 185.131678 
L 231.906779 185.131678 
L 231.979075 183.886536 
L 232.305218 183.886536 
L 232.305218 183.263965 
L 234.413504 183.263965 
L 234.478946 182.018824 
L 236.566518 182.018824 
L 236.566518 181.396253 
L 237.416123 181.396253 
L 237.416123 180.773682 
L 238.662955 180.773682 
L 238.662955 180.151111 
L 240.035594 180.151111 
L 240.145219 178.283399 
L 240.29634 178.283399 
L 240.29634 177.660828 
L 241.593166 177.660828 
L 241.593166 177.038257 
L 242.792779 177.038257 
L 242.792779 176.415686 
L 243.053252 176.415686 
L 243.07733 175.170545 
L 243.469782 175.170545 
L 243.473678 173.925403 
L 243.980814 173.925403 
L 243.980814 173.302832 
L 244.17076 173.302832 
L 244.17076 172.680261 
L 244.498674 172.680261 
L 244.498674 172.057691 
L 244.677746 172.057691 
L 244.677746 171.43512 
L 245.292139 171.43512 
L 245.36201 170.189978 
L 245.8676 170.189978 
L 245.8676 169.567407 
L 246.265241 169.567407 
L 246.325117 168.322266 
L 247.992905 168.322266 
L 247.992905 167.699695 
L 248.182053 167.699695 
L 248.290508 166.454553 
L 249.62331 166.454553 
L 249.62331 165.831983 
L 250.03529 165.831983 
L 250.03529 165.209412 
L 250.538427 165.209412 
L 250.538427 164.586841 
L 251.035699 164.586841 
L 251.035699 163.96427 
L 251.719746 163.96427 
L 251.719746 163.341699 
L 252.219253 163.341699 
L 252.219253 162.096558 
L 252.936894 162.096558 
L 252.936894 161.473987 
L 253.092386 161.473987 
L 253.092386 160.851416 
L 253.211521 160.851416 
L 253.211521 160.228845 
L 253.353132 160.228845 
L 253.353132 159.606275 
L 254.058549 159.606275 
L 254.058549 158.983704 
L 254.580511 158.983704 
L 254.580511 158.361133 
L 255.353655 158.361133 
L 255.353655 157.738562 
L 255.532728 157.738562 
L 255.532728 157.115991 
L 255.81318 157.115991 
L 255.81318 156.49342 
L 256.722582 156.49342 
L 256.722582 155.87085 
L 257.140358 155.87085 
L 257.140358 155.248279 
L 257.34041 155.248279 
L 257.34041 154.625708 
L 258.038677 154.625708 
L 258.125075 153.380566 
L 258.399152 153.380566 
L 258.399152 152.757996 
L 258.516802 152.757996 
L 258.516802 152.135425 
L 259.502724 152.135425 
L 259.526802 150.890283 
L 259.638181 150.890283 
L 259.744896 149.645142 
L 259.957166 149.645142 
L 259.957166 149.022571 
L 260.105435 149.022571 
L 260.105435 148.4 
L 260.611283 148.4 
L 260.611283 147.777429 
L 261.391056 147.777429 
L 261.415133 146.532288 
L 262.016913 146.532288 
L 262.016913 145.909717 
L 262.81895 145.909717 
L 262.927401 144.042004 
L 263.567622 144.042004 
L 263.595219 142.796863 
L 263.969355 142.796863 
L 263.969355 142.174292 
L 264.442377 142.174292 
L 264.442377 141.551721 
L 264.631525 141.551721 
L 264.73998 140.30658 
L 265.065001 140.30658 
L 265.065001 139.684009 
L 265.652356 139.684009 
L 265.676433 138.438867 
L 265.993685 138.438867 
L 265.993685 137.816296 
L 266.268313 137.816296 
L 266.330709 136.571155 
L 266.484762 136.571155 
L 266.519857 135.326013 
L 266.628311 135.326013 
L 266.628311 134.703442 
L 267.485171 134.703442 
L 267.485171 134.080871 
L 267.748792 134.080871 
L 267.77287 132.83573 
L 268.195606 132.83573 
L 268.195606 131.590588 
L 268.373093 131.590588 
L 268.373093 130.968017 
L 268.998849 130.968017 
L 268.998849 130.345447 
L 269.121431 130.345447 
L 269.145509 129.100305 
L 269.373502 129.100305 
L 269.406255 127.232593 
L 270.159222 127.232593 
L 270.159222 126.610022 
L 270.508021 126.610022 
L 270.592009 124.742309 
L 270.781157 124.742309 
L 270.889611 123.497168 
L 271.095469 123.497168 
L 271.181866 122.252026 
L 271.712216 122.252026 
L 271.712216 121.629455 
L 272.396353 121.629455 
L 272.396353 121.006885 
L 272.634393 121.006885 
L 272.688445 119.139172 
L 272.877593 119.139172 
L 272.986048 117.894031 
L 273.58983 117.894031 
L 273.634802 116.648889 
L 273.789882 116.648889 
L 273.789882 116.026318 
L 274.061084 116.026318 
L 274.061084 115.403747 
L 274.250232 115.403747 
L 274.358687 113.536035 
L 274.375504 113.536035 
L 274.375504 112.913464 
L 274.510979 112.913464 
L 274.619433 111.668322 
L 274.730829 111.668322 
L 274.730829 111.045752 
L 275.073705 111.045752 
L 275.073705 110.423181 
L 275.478162 110.423181 
L 275.478162 109.80061 
L 275.678213 109.80061 
L 275.731239 108.555468 
L 276.103469 108.555468 
L 276.194368 107.310327 
L 276.364215 107.310327 
L 276.364215 106.687756 
L 276.624414 106.687756 
L 276.687889 104.820044 
L 276.866962 104.820044 
L 276.866962 104.197473 
L 277.103878 104.197473 
L 277.103878 103.574902 
L 277.273443 103.574902 
L 277.364624 102.32976 
L 278.056816 102.32976 
L 278.121793 100.462048 
L 278.754089 100.462048 
L 278.754089 99.839477 
L 279.624264 99.839477 
L 279.648342 98.594336 
L 279.739462 98.594336 
L 279.739462 97.971765 
L 279.939513 97.971765 
L 279.939513 97.349194 
L 280.126728 97.349194 
L 280.126728 96.726623 
L 280.387475 96.726623 
L 280.418827 95.481481 
L 281.190533 95.481481 
L 281.190533 94.858911 
L 281.835898 94.858911 
L 281.835898 94.23634 
L 282.022731 94.23634 
L 282.046809 92.368627 
L 282.233256 92.368627 
L 282.343999 88.633203 
L 282.808264 88.633203 
L 282.808264 88.010632 
L 283.208537 88.010632 
L 283.285014 86.76549 
L 283.408589 86.76549 
L 283.469284 85.520349 
L 283.669335 85.520349 
L 283.669335 84.897778 
L 284.440436 84.897778 
L 284.440436 84.275207 
L 284.563918 84.275207 
L 284.563918 83.652636 
L 284.753065 83.652636 
L 284.86152 82.407495 
L 285.813075 82.407495 
L 285.813075 81.784924 
L 286.073821 81.784924 
L 286.073821 81.162353 
L 286.567189 81.162353 
L 286.606302 79.294641 
L 286.962384 79.294641 
L 286.962384 78.67207 
L 287.124514 78.67207 
L 287.23499 75.559216 
L 287.237012 75.559216 
L 287.259987 74.314074 
L 287.42616 74.314074 
L 287.534614 73.068932 
L 287.606711 73.068932 
L 287.688568 71.823791 
L 288.66167 71.823791 
L 288.664894 70.578649 
L 289.004768 70.578649 
L 289.004768 69.956078 
L 289.279396 69.956078 
L 289.347477 68.710937 
L 290.005178 68.710937 
L 290.037534 67.465795 
L 290.279805 67.465795 
L 290.29828 66.220654 
L 290.629561 66.220654 
L 290.629561 65.598083 
L 291.033931 65.598083 
L 291.126828 63.73037 
L 291.213004 63.73037 
L 291.213004 63.1078 
L 292.064168 63.1078 
L 292.150565 61.862658 
L 292.253315 61.862658 
L 292.36177 59.994946 
L 292.402858 59.994946 
L 292.448168 58.749804 
L 292.65346 58.749804 
L 292.677537 57.504662 
L 292.832953 57.504662 
L 292.832953 56.882092 
L 293.028028 56.882092 
L 293.028028 56.259521 
L 293.302656 56.259521 
L 293.302656 55.63695 
L 293.663245 55.63695 
L 293.71137 54.391808 
L 293.911422 54.391808 
L 293.911422 53.769237 
L 294.106552 53.769237 
L 294.19295 51.278954 
L 295.106961 51.278954 
L 295.193359 50.033813 
L 296.042404 50.033813 
L 296.109837 48.788671 
L 296.231552 48.788671 
L 296.340006 46.298388 
L 296.384465 46.298388 
L 296.384465 45.675817 
L 296.584516 45.675817 
L 296.584516 45.053246 
L 297.593113 45.053246 
L 297.593113 44.430675 
L 297.782261 44.430675 
L 297.890715 43.185534 
L 298.084788 43.185534 
L 298.129811 41.940392 
L 298.209609 41.940392 
L 298.216209 40.695251 
L 298.714375 40.695251 
L 298.714375 40.07268 
L 298.989002 40.07268 
L 299.090492 38.204967 
L 299.27964 38.204967 
L 299.388094 36.959826 
L 299.635497 36.959826 
L 299.635497 36.337255 
L 299.947174 36.337255 
L 299.947174 35.714684 
L 300.540367 35.714684 
L 300.635907 34.469542 
L 301.132876 34.469542 
L 301.21162 33.224401 
L 301.298018 33.224401 
L 301.298018 32.60183 
L 301.411672 32.60183 
L 301.49807 31.356688 
L 302.108048 31.356688 
L 302.133286 30.111547 
L 302.938833 30.111547 
L 302.938833 29.488976 
L 303.107966 29.488976 
L 303.213461 28.243834 
L 303.287039 28.243834 
L 303.287039 27.621264 
L 303.658757 27.621264 
L 303.658757 26.998693 
L 303.816158 26.998693 
L 303.902556 25.753551 
L 304.476893 25.753551 
L 304.476893 25.13098 
L 305.156136 25.13098 
L 305.189857 23.885839 
L 305.32383 23.885839 
L 305.389908 22.640697 
L 306.740566 22.640697 
L 306.740566 22.018126 
L 306.940617 22.018126 
L 306.940617 21.395556 
L 307.794394 21.395556 
L 307.794394 20.772985 
L 308.040617 20.772985 
L 308.127015 19.527843 
L 308.237945 19.527843 
L 308.237945 18.905272 
L 308.437996 18.905272 
L 308.437996 18.282702 
L 309.345103 18.282702 
L 309.345103 17.660131 
L 310.842482 17.660131 
L 310.842482 17.03756 
L 312.018853 17.03756 
L 312.018853 16.414989 
L 313.569562 16.414989 
L 313.569562 15.792418 
L 313.707663 15.792418 
L 313.707663 15.169847 
L 313.886736 15.169847 
L 313.886736 14.547277 
L 314.99748 14.547277 
L 315.07659 12.679564 
L 319.084318 12.679564 
L 319.084318 12.056993 
L 319.263391 12.056993 
L 319.263391 11.434423 
L 320.453245 11.434423 
L 320.453245 10.811852 
L 329.343522 10.811852 
L 329.343522 10.189281 
L 341.417556 10.189281 
L 341.417556 9.56671 
L 352.017253 9.56671 
L 352.017253 8.944139 
L 357.393909 8.944139 
L 357.393909 8.321569 
L 450.672 8.321569 
L 450.672 8.321569 
" style="fill:none;stroke:#000000;stroke-linecap:square;stroke-width:3;"/>
   </g>
   <g id="line2d_46">
    <path clip-path="url(#pb88db7c8ac)" style="fill:none;stroke:#000000;stroke-linecap:square;stroke-width:3;"/>
   </g>
   <g id="line2d_47">
    <path clip-path="url(#pb88db7c8ac)" d="M 78.916617 101.70719 
L 107.727216 101.70719 
L 107.727216 100.462048 
L 118.401448 100.462048 
L 118.401448 99.216906 
L 126.407607 99.216906 
L 126.407607 97.971765 
L 137.081839 97.971765 
L 137.081839 96.726623 
L 147.448523 96.726623 
L 147.448523 95.481481 
L 148.98271 95.481481 
L 148.98271 94.23634 
L 153.050639 94.23634 
L 153.050639 92.991198 
L 157.626737 92.991198 
L 157.626737 91.746057 
L 158.122756 91.746057 
L 158.122756 90.500915 
L 159.656942 90.500915 
L 159.656942 89.255773 
L 163.724871 89.255773 
L 163.724871 88.010632 
L 167.494042 88.010632 
L 167.494042 86.76549 
L 168.300969 86.76549 
L 168.300969 85.520349 
L 176.82007 85.520349 
L 176.82007 84.275207 
L 180.522343 84.275207 
L 180.522343 83.030065 
L 186.174433 83.030065 
L 186.174433 81.784924 
L 191.196576 81.784924 
L 191.196576 80.539782 
L 192.39734 80.539782 
L 192.39734 79.294641 
L 193.464814 79.294641 
L 193.464814 78.049499 
L 194.913634 78.049499 
L 194.913634 76.804357 
L 195.50046 76.804357 
L 195.50046 75.559216 
L 200.552124 75.559216 
L 200.552124 74.314074 
L 202.59447 74.314074 
L 202.59447 73.068932 
L 203.071572 73.068932 
L 203.071572 71.823791 
L 204.139046 71.823791 
L 204.139046 70.578649 
L 205.587867 70.578649 
L 205.587867 69.333508 
L 206.695521 69.333508 
L 206.695521 68.088366 
L 206.901028 68.088366 
L 206.901028 66.843224 
L 207.215349 66.843224 
L 207.215349 65.598083 
L 208.749536 65.598083 
L 208.749536 64.352941 
L 212.817465 64.352941 
L 212.817465 63.1078 
L 213.268703 63.1078 
L 213.268703 61.862658 
L 216.541377 61.862658 
L 216.541377 60.617516 
L 217.369753 60.617516 
L 217.393563 58.127233 
L 217.57526 58.127233 
L 217.57526 56.882092 
L 218.075564 56.882092 
L 218.075564 55.63695 
L 219.232515 55.63695 
L 219.232515 54.391808 
L 222.143492 54.391808 
L 222.143492 53.146667 
L 226.719591 53.146667 
L 226.719591 51.901525 
L 240.273431 51.901525 
L 240.289169 49.411242 
L 241.807618 49.411242 
L 241.807618 48.1661 
L 245.875547 48.1661 
L 245.875547 46.920959 
L 249.615197 46.920959 
L 249.615197 45.675817 
L 250.451645 45.675817 
L 250.451645 44.430675 
L 251.758044 44.430675 
L 251.758044 43.185534 
L 252.164166 43.185534 
L 252.164166 41.940392 
L 252.563701 41.940392 
L 252.563701 40.695251 
L 253.23164 40.695251 
L 253.23164 39.450109 
L 254.68046 39.450109 
L 254.68046 38.204967 
L 261.490193 38.204967 
L 261.490193 36.959826 
L 262.361296 36.959826 
L 262.432277 34.469542 
L 262.557667 34.469542 
L 262.557667 33.224401 
L 263.237933 33.224401 
L 263.237933 31.979259 
L 264.006488 31.979259 
L 264.006488 30.734118 
L 266.462347 30.734118 
L 266.462347 29.488976 
L 266.667854 29.488976 
L 266.667854 28.243834 
L 271.687324 28.243834 
L 271.687324 26.998693 
L 273.347252 26.998693 
L 273.347252 25.753551 
L 275.788375 25.753551 
L 275.788375 24.50841 
L 275.993881 24.50841 
L 275.993881 23.263268 
L 285.222248 23.263268 
L 285.222248 22.018126 
L 286.289722 22.018126 
L 286.289722 20.772985 
L 287.738542 20.772985 
L 287.738542 19.527843 
L 295.419379 19.527843 
L 295.419379 18.282702 
L 299.520429 18.282702 
L 299.520429 17.03756 
L 299.725936 17.03756 
L 299.725936 15.792418 
L 311.52487 15.792418 
L 311.52487 14.547277 
L 312.330527 14.547277 
L 312.330527 13.302135 
L 320.850898 13.302135 
L 320.850898 12.056993 
L 321.656554 12.056993 
L 321.656554 10.811852 
L 344.582953 10.811852 
L 344.582953 9.56671 
L 345.388609 9.56671 
L 345.388609 8.321569 
L 450.672 8.321569 
L 450.672 8.321569 
" style="fill:none;stroke:#00bfbf;stroke-linecap:square;stroke-width:3;"/>
   </g>
   <g id="line2d_48">
    <path clip-path="url(#pb88db7c8ac)" style="fill:none;stroke:#00bfbf;stroke-linecap:square;stroke-width:3;"/>
   </g>
   <g id="line2d_49">
    <path clip-path="url(#pb88db7c8ac)" d="M 78.916617 83.030065 
L 107.426867 83.030065 
L 107.426867 81.784924 
L 118.382197 81.784924 
L 118.382197 80.539782 
L 126.107257 80.539782 
L 126.107257 79.294641 
L 137.062588 79.294641 
L 137.062588 78.049499 
L 147.148174 78.049499 
L 147.148174 76.804357 
L 148.682361 76.804357 
L 148.682361 75.559216 
L 152.750289 75.559216 
L 152.750289 74.314074 
L 157.326388 74.314074 
L 157.326388 73.068932 
L 158.103504 73.068932 
L 158.103504 71.823791 
L 159.637691 71.823791 
L 159.637691 70.578649 
L 163.70562 70.578649 
L 163.70562 69.333508 
L 168.281718 69.333508 
L 168.281718 68.088366 
L 176.147668 68.088366 
L 176.147668 66.843224 
L 180.221994 66.843224 
L 180.221994 65.598083 
L 191.177324 65.598083 
L 191.177324 64.352941 
L 192.946819 64.352941 
L 192.946819 63.1078 
L 193.164464 63.1078 
L 193.164464 61.862658 
L 194.613285 61.862658 
L 194.613285 60.617516 
L 194.828058 60.617516 
L 194.828058 59.372375 
L 198.420324 59.372375 
L 198.420324 58.127233 
L 202.294121 58.127233 
L 202.294121 56.882092 
L 203.90215 56.882092 
L 203.90215 55.63695 
L 204.119795 55.63695 
L 204.119795 54.391808 
L 205.568615 54.391808 
L 205.568615 53.146667 
L 206.395172 53.146667 
L 206.395172 51.901525 
L 206.668966 51.901525 
L 206.668966 50.656383 
L 213.249451 50.656383 
L 213.249451 49.411242 
L 215.868975 49.411242 
L 215.868975 48.1661 
L 217.100714 48.1661 
L 217.100714 46.920959 
L 217.350502 46.920959 
L 217.350502 45.675817 
L 217.403162 45.675817 
L 217.403162 44.430675 
L 217.624296 44.430675 
L 217.624296 43.185534 
L 221.47109 43.185534 
L 221.47109 41.940392 
L 226.047189 41.940392 
L 226.047189 40.695251 
L 238.141631 40.695251 
L 238.141631 39.450109 
L 239.675818 39.450109 
L 239.675818 38.204967 
L 243.743746 38.204967 
L 243.743746 36.959826 
L 248.319845 36.959826 
L 248.319845 35.714684 
L 248.942795 35.714684 
L 248.942795 34.469542 
L 251.457695 34.469542 
L 251.457695 33.224401 
L 252.263351 33.224401 
L 252.263351 31.979259 
L 261.66762 31.979259 
L 261.66762 30.734118 
L 261.885265 30.734118 
L 261.885265 29.488976 
L 262.413025 29.488976 
L 262.413025 28.243834 
L 263.218682 28.243834 
L 263.218682 26.998693 
L 263.334086 26.998693 
L 263.334086 25.753551 
L 271.014922 25.753551 
L 271.014922 24.50841 
L 271.215451 24.50841 
L 271.215451 23.263268 
L 275.115973 23.263268 
L 275.115973 22.018126 
L 275.389767 22.018126 
L 275.389767 20.772985 
L 283.940276 20.772985 
L 283.940276 19.527843 
L 284.157921 19.527843 
L 284.157921 18.282702 
L 285.606742 18.282702 
L 285.606742 17.03756 
L 293.287578 17.03756 
L 293.287578 15.792418 
L 297.388629 15.792418 
L 297.388629 14.547277 
L 297.662423 14.547277 
L 297.662423 13.302135 
L 320.178496 13.302135 
L 320.178496 12.056993 
L 320.984152 12.056993 
L 320.984152 10.811852 
L 342.451152 10.811852 
L 342.451152 9.56671 
L 343.256808 9.56671 
L 343.256808 8.321569 
L 450.672 8.321569 
" style="fill:none;stroke:#bf00bf;stroke-linecap:square;stroke-width:3;"/>
   </g>
   <g id="line2d_50">
    <path clip-path="url(#pb88db7c8ac)" style="fill:none;stroke:#bf00bf;stroke-linecap:square;stroke-width:3;"/>
   </g>
   <g id="line2d_51">
    <path clip-path="url(#pb88db7c8ac)" d="M 78.916617 83.030065 
L 107.426867 83.030065 
L 107.426867 81.784924 
L 118.382197 81.784924 
L 118.382197 80.539782 
L 126.107257 80.539782 
L 126.107257 79.294641 
L 137.062588 79.294641 
L 137.062588 78.049499 
L 147.148174 78.049499 
L 147.148174 76.804357 
L 148.682361 76.804357 
L 148.682361 75.559216 
L 152.750289 75.559216 
L 152.750289 74.314074 
L 157.326388 74.314074 
L 157.326388 73.068932 
L 158.103504 73.068932 
L 158.103504 71.823791 
L 159.637691 71.823791 
L 159.637691 70.578649 
L 163.70562 70.578649 
L 163.70562 69.333508 
L 168.281718 69.333508 
L 168.281718 68.088366 
L 176.147668 68.088366 
L 176.147668 66.843224 
L 180.221994 66.843224 
L 180.221994 65.598083 
L 191.177324 65.598083 
L 191.177324 64.352941 
L 192.946819 64.352941 
L 192.946819 63.1078 
L 193.164464 63.1078 
L 193.164464 61.862658 
L 194.613285 61.862658 
L 194.613285 60.617516 
L 194.828058 60.617516 
L 194.828058 59.372375 
L 198.420324 59.372375 
L 198.420324 58.127233 
L 202.294121 58.127233 
L 202.294121 56.882092 
L 203.90215 56.882092 
L 203.90215 55.63695 
L 204.119795 55.63695 
L 204.119795 54.391808 
L 205.568615 54.391808 
L 205.568615 53.146667 
L 206.395172 53.146667 
L 206.395172 51.901525 
L 206.668966 51.901525 
L 206.668966 50.656383 
L 213.249451 50.656383 
L 213.249451 49.411242 
L 215.868975 49.411242 
L 215.868975 48.1661 
L 217.100714 48.1661 
L 217.100714 46.920959 
L 217.350502 46.920959 
L 217.350502 45.675817 
L 217.403162 45.675817 
L 217.403162 44.430675 
L 217.624296 44.430675 
L 217.624296 43.185534 
L 221.47109 43.185534 
L 221.47109 41.940392 
L 226.047189 41.940392 
L 226.047189 40.695251 
L 238.141631 40.695251 
L 238.141631 39.450109 
L 239.675818 39.450109 
L 239.675818 38.204967 
L 243.743746 38.204967 
L 243.743746 36.959826 
L 248.319845 36.959826 
L 248.319845 35.714684 
L 248.942795 35.714684 
L 248.942795 34.469542 
L 251.457695 34.469542 
L 251.457695 33.224401 
L 252.263351 33.224401 
L 252.263351 31.979259 
L 261.66762 31.979259 
L 261.66762 30.734118 
L 261.885265 30.734118 
L 261.885265 29.488976 
L 262.413025 29.488976 
L 262.413025 28.243834 
L 263.218682 28.243834 
L 263.218682 26.998693 
L 263.334086 26.998693 
L 263.334086 25.753551 
L 271.014922 25.753551 
L 271.014922 24.50841 
L 271.215451 24.50841 
L 271.215451 23.263268 
L 275.115973 23.263268 
L 275.115973 22.018126 
L 275.389767 22.018126 
L 275.389767 20.772985 
L 283.940276 20.772985 
L 283.940276 19.527843 
L 284.157921 19.527843 
L 284.157921 18.282702 
L 285.606742 18.282702 
L 285.606742 17.03756 
L 293.287578 17.03756 
L 293.287578 15.792418 
L 297.388629 15.792418 
L 297.388629 14.547277 
L 297.662423 14.547277 
L 297.662423 13.302135 
L 320.178496 13.302135 
L 320.178496 12.056993 
L 320.984152 12.056993 
L 320.984152 10.811852 
L 342.451152 10.811852 
L 342.451152 9.56671 
L 343.256808 9.56671 
L 343.256808 8.321569 
L 450.672 8.321569 
" style="fill:none;stroke:#ff0000;stroke-linecap:square;stroke-width:3;"/>
   </g>
   <g id="line2d_52">
    <path clip-path="url(#pb88db7c8ac)" style="fill:none;stroke:#ff0000;stroke-linecap:square;stroke-width:3;"/>
   </g>
   <g id="line2d_53">
    <path clip-path="url(#pb88db7c8ac)" d="M 264.794309 291.28 
L 264.794309 5.52 
" style="fill:none;stroke:#000000;stroke-linecap:square;stroke-width:1.5;"/>
   </g>
   <g id="line2d_54">
    <path clip-path="url(#pb88db7c8ac)" d="M 78.916617 148.4 
L 450.672 148.4 
" style="fill:none;stroke:#000000;stroke-dasharray:2,3.3;stroke-dashoffset:0;stroke-width:2;"/>
   </g>
   <g id="patch_3">
    <path d="M 78.916617 291.28 
L 78.916617 5.52 
" style="fill:none;stroke:#000000;stroke-linecap:square;stroke-linejoin:miter;stroke-width:0.8;"/>
   </g>
   <g id="patch_4">
    <path d="M 450.672 291.28 
L 450.672 5.52 
" style="fill:none;stroke:#000000;stroke-linecap:square;stroke-linejoin:miter;stroke-width:0.8;"/>
   </g>
   <g id="patch_5">
    <path d="M 78.916617 291.28 
L 450.672 291.28 
" style="fill:none;stroke:#000000;stroke-linecap:square;stroke-linejoin:miter;stroke-width:0.8;"/>
   </g>
   <g id="patch_6">
    <path d="M 78.916617 5.52 
L 450.672 5.52 
" style="fill:none;stroke:#000000;stroke-linecap:square;stroke-linejoin:miter;stroke-width:0.8;"/>
   </g>
   <g id="text_10">
    <!-- f1-f5,20-D -->
    <defs>
     <path d="M 11.71875 12.40625 
L 22.015625 12.40625 
L 22.015625 4 
L 14.015625 -11.625 
L 7.71875 -11.625 
L 11.71875 4 
z
" id="DejaVuSans-2c"/>
     <path d="M 19.671875 64.796875 
L 19.671875 8.109375 
L 31.59375 8.109375 
Q 46.6875 8.109375 53.6875 14.9375 
Q 60.6875 21.78125 60.6875 36.53125 
Q 60.6875 51.171875 53.6875 57.984375 
Q 46.6875 64.796875 31.59375 64.796875 
z
M 9.8125 72.90625 
L 30.078125 72.90625 
Q 51.265625 72.90625 61.171875 64.09375 
Q 71.09375 55.28125 71.09375 36.53125 
Q 71.09375 17.671875 61.125 8.828125 
Q 51.171875 0 30.078125 0 
L 9.8125 0 
z
" id="DejaVuSans-44"/>
    </defs>
    <g transform="translate(342.068142 285.5648)scale(0.2 -0.2)">
     <use xlink:href="#DejaVuSans-66"/>
     <use x="35.205078" xlink:href="#DejaVuSans-31"/>
     <use x="98.828125" xlink:href="#DejaVuSans-2d"/>
     <use x="134.912109" xlink:href="#DejaVuSans-66"/>
     <use x="170.117188" xlink:href="#DejaVuSans-35"/>
     <use x="233.740234" xlink:href="#DejaVuSans-2c"/>
     <use x="265.527344" xlink:href="#DejaVuSans-32"/>
     <use x="329.150391" xlink:href="#DejaVuSans-30"/>
     <use x="392.773438" xlink:href="#DejaVuSans-2d"/>
     <use x="428.857422" xlink:href="#DejaVuSans-44"/>
    </g>
   </g>
   <g id="text_11">
    <!-- v0.0.0 -->
    <g style="fill:#808080;" transform="translate(249.113059 286.342713)scale(0.1 -0.1)">
     <use xlink:href="#DejaVuSans-76"/>
     <use x="59.179688" xlink:href="#DejaVuSans-30"/>
     <use x="122.802734" xlink:href="#DejaVuSans-2e"/>
     <use x="154.589844" xlink:href="#DejaVuSans-30"/>
     <use x="218.212891" xlink:href="#DejaVuSans-2e"/>
     <use x="250" xlink:href="#DejaVuSans-30"/>
    </g>
   </g>
   <g id="legend_1">
    <g id="patch_7">
     <path d="M 307.450125 281.28 
L 436.672 281.28 
Q 440.672 281.28 440.672 277.28 
L 440.672 161.855 
Q 440.672 157.855 436.672 157.855 
L 307.450125 157.855 
Q 303.450125 157.855 303.450125 161.855 
L 303.450125 277.28 
Q 303.450125 281.28 307.450125 281.28 
z
" style="fill:#ffffff;opacity:0.2;stroke:#cccccc;stroke-linejoin:miter;"/>
    </g>
    <g id="line2d_55">
     <path d="M 311.450125 174.051875 
L 351.450125 174.051875 
" style="fill:none;stroke:#000000;stroke-linecap:square;stroke-width:3;"/>
    </g>
    <g id="line2d_56"/>
    <g id="text_12">
     <!-- 1: 2/2 -->
     <defs>
      <path d="M 11.71875 12.40625 
L 22.015625 12.40625 
L 22.015625 0 
L 11.71875 0 
z
M 11.71875 51.703125 
L 22.015625 51.703125 
L 22.015625 39.3125 
L 11.71875 39.3125 
z
" id="DejaVuSans-3a"/>
      <path d="M 25.390625 72.90625 
L 33.6875 72.90625 
L 8.296875 -9.28125 
L 0 -9.28125 
z
" id="DejaVuSans-2f"/>
     </defs>
     <g transform="translate(367.450125 181.051875)scale(0.2 -0.2)">
      <use xlink:href="#DejaVuSans-31"/>
      <use x="63.623047" xlink:href="#DejaVuSans-3a"/>
      <use x="97.314453" xlink:href="#DejaVuSans-20"/>
      <use x="129.101562" xlink:href="#DejaVuSans-32"/>
      <use x="192.724609" xlink:href="#DejaVuSans-2f"/>
      <use x="226.416016" xlink:href="#DejaVuSans-32"/>
     </g>
    </g>
    <g id="line2d_57">
     <path d="M 311.450125 203.408125 
L 351.450125 203.408125 
" style="fill:none;stroke:#00bfbf;stroke-linecap:square;stroke-width:3;"/>
    </g>
    <g id="line2d_58"/>
    <g id="text_13">
     <!-- -1: 1/1 -->
     <g transform="translate(367.450125 210.408125)scale(0.2 -0.2)">
      <use xlink:href="#DejaVuSans-2d"/>
      <use x="36.083984" xlink:href="#DejaVuSans-31"/>
      <use x="99.707031" xlink:href="#DejaVuSans-3a"/>
      <use x="133.398438" xlink:href="#DejaVuSans-20"/>
      <use x="165.185547" xlink:href="#DejaVuSans-31"/>
      <use x="228.808594" xlink:href="#DejaVuSans-2f"/>
      <use x="262.5" xlink:href="#DejaVuSans-31"/>
     </g>
    </g>
    <g id="line2d_59">
     <path d="M 311.450125 232.764375 
L 351.450125 232.764375 
" style="fill:none;stroke:#bf00bf;stroke-linecap:square;stroke-width:3;"/>
    </g>
    <g id="line2d_60"/>
    <g id="text_14">
     <!-- -4: 1/1 -->
     <g transform="translate(367.450125 239.764375)scale(0.2 -0.2)">
      <use xlink:href="#DejaVuSans-2d"/>
      <use x="36.083984" xlink:href="#DejaVuSans-34"/>
      <use x="99.707031" xlink:href="#DejaVuSans-3a"/>
      <use x="133.398438" xlink:href="#DejaVuSans-20"/>
      <use x="165.185547" xlink:href="#DejaVuSans-31"/>
      <use x="228.808594" xlink:href="#DejaVuSans-2f"/>
      <use x="262.5" xlink:href="#DejaVuSans-31"/>
     </g>
    </g>
    <g id="line2d_61">
     <path d="M 311.450125 262.120625 
L 351.450125 262.120625 
" style="fill:none;stroke:#ff0000;stroke-linecap:square;stroke-width:3;"/>
    </g>
    <g id="line2d_62"/>
    <g id="text_15">
     <!-- -8: 1/1 -->
     <g transform="translate(367.450125 269.120625)scale(0.2 -0.2)">
      <use xlink:href="#DejaVuSans-2d"/>
      <use x="36.083984" xlink:href="#DejaVuSans-38"/>
      <use x="99.707031" xlink:href="#DejaVuSans-3a"/>
      <use x="133.398438" xlink:href="#DejaVuSans-20"/>
      <use x="165.185547" xlink:href="#DejaVuSans-31"/>
      <use x="228.808594" xlink:href="#DejaVuSans-2f"/>
      <use x="262.5" xlink:href="#DejaVuSans-31"/>
     </g>
    </g>
   </g>
  </g>
 </g>
 <defs>
  <clipPath id="pb88db7c8ac">
   <rect height="285.76" width="371.755383" x="78.916617" y="5.52"/>
  </clipPath>
 </defs>
</svg>
