<?xml version="1.0" encoding="utf-8" standalone="no"?>
<!DOCTYPE svg PUBLIC "-//W3C//DTD SVG 1.1//EN"
  "http://www.w3.org/Graphics/SVG/1.1/DTD/svg11.dtd">
<!-- Created with matplotlib (http://matplotlib.org/) -->
<svg height="345.6pt" version="1.1" viewBox="0 0 460.8 345.6" width="460.8pt" xmlns="http://www.w3.org/2000/svg" xmlns:xlink="http://www.w3.org/1999/xlink">
 <defs>
  <style type="text/css">
*{stroke-linecap:butt;stroke-linejoin:round;}
  </style>
 </defs>
 <g id="figure_1">
  <g id="patch_1">
   <path d="M 0 345.6 
L 460.8 345.6 
L 460.8 0 
L 0 0 
z
" style="fill:#ffffff;"/>
  </g>
  <g id="axes_1">
   <g id="patch_2">
    <path d="M 56.12 294.88 
L 333.168 294.88 
L 333.168 6.845228 
L 56.12 6.845228 
z
" style="fill:#ffffff;"/>
   </g>
   <g id="line2d_1">
    <path d="M 44.205749 294.88 
L 44.205749 286.492266 
L 56.12 286.492266 
L 56.12 279.502488 
L 63.08939 279.502488 
L 63.08939 272.51271 
L 71.869783 272.51271 
L 71.869783 262.727021 
L 75.003641 262.727021 
L 75.003641 261.329066 
L 77.653281 261.329066 
L 77.653281 259.93111 
L 83.784035 259.93111 
L 83.784035 258.533154 
L 86.917893 258.533154 
L 86.917893 252.941332 
L 88.293717 252.941332 
L 88.293717 250.145421 
L 89.567532 250.145421 
L 89.567532 247.34951 
L 90.753425 247.34951 
L 90.753425 244.553598 
L 91.862754 244.553598 
L 91.862754 243.155643 
L 92.904808 243.155643 
L 92.904808 241.757687 
L 93.887283 241.757687 
L 93.887283 236.165865 
L 94.816624 236.165865 
L 94.816624 233.369954 
L 95.698286 233.369954 
L 95.698286 230.574042 
L 96.536922 230.574042 
L 96.536922 226.380175 
L 98.100602 226.380175 
L 98.100602 224.98222 
L 100.856673 224.98222 
L 100.856673 222.186309 
L 102.667676 222.186309 
L 102.667676 220.788353 
L 103.231288 220.788353 
L 103.231288 219.390397 
L 103.777005 219.390397 
L 103.777005 217.992442 
L 105.317315 217.992442 
L 105.317315 215.196531 
L 106.272485 215.196531 
L 106.272485 213.798575 
L 106.730875 213.798575 
L 106.730875 211.002664 
L 107.177358 211.002664 
L 107.177358 209.604708 
L 108.036969 209.604708 
L 108.036969 206.808797 
L 108.451173 206.808797 
L 108.451173 205.410841 
L 108.85563 205.410841 
L 108.85563 202.61493 
L 109.250788 202.61493 
L 109.250788 197.023108 
L 109.637066 197.023108 
L 109.637066 195.625152 
L 110.014853 195.625152 
L 110.014853 190.03333 
L 110.384516 190.03333 
L 110.384516 185.839463 
L 111.100812 185.839463 
L 111.100812 184.441507 
L 111.448069 184.441507 
L 111.448069 181.645596 
L 112.122219 181.645596 
L 112.122219 180.247641 
L 112.770924 180.247641 
L 112.770924 178.849685 
L 114.293036 178.849685 
L 114.293036 177.451729 
L 114.581927 177.451729 
L 114.581927 176.053774 
L 114.866043 176.053774 
L 114.866043 174.655818 
L 115.420563 174.655818 
L 115.420563 173.257863 
L 115.957752 173.257863 
L 115.957752 171.859907 
L 116.220179 171.859907 
L 116.220179 170.461951 
L 116.478659 170.461951 
L 116.478659 169.063996 
L 116.73331 169.063996 
L 116.73331 167.66604 
L 116.984244 167.66604 
L 116.984244 166.268085 
L 117.715785 166.268085 
L 117.715785 163.472173 
L 117.952873 163.472173 
L 117.952873 160.676262 
L 118.645127 160.676262 
L 118.645127 159.278307 
L 118.869818 159.278307 
L 118.869818 156.482395 
L 119.09161 156.482395 
L 119.09161 153.686484 
L 119.526788 153.686484 
L 119.526788 146.696706 
L 119.740314 146.696706 
L 119.740314 141.104884 
L 119.95122 141.104884 
L 119.95122 138.308973 
L 120.365424 138.308973 
L 120.365424 136.911017 
L 120.568842 136.911017 
L 120.568842 135.513061 
L 120.769881 135.513061 
L 120.769881 131.319195 
L 121.16504 131.319195 
L 121.16504 129.921239 
L 121.359263 129.921239 
L 121.359263 122.931461 
L 121.551317 122.931461 
L 121.551317 118.737594 
L 121.741249 118.737594 
L 121.741249 115.941683 
L 121.929105 115.941683 
L 121.929105 108.951905 
L 122.114929 108.951905 
L 122.114929 104.758038 
L 122.298767 104.758038 
L 122.298767 97.76826 
L 122.480659 97.76826 
L 122.480659 94.972349 
L 122.660646 94.972349 
L 122.660646 92.176438 
L 123.015063 92.176438 
L 123.015063 90.778482 
L 123.36232 90.778482 
L 123.36232 87.982571 
L 123.870396 87.982571 
L 123.870396 85.18666 
L 124.363883 85.18666 
L 124.363883 82.390748 
L 124.52528 82.390748 
L 124.52528 79.594837 
L 125.000572 79.594837 
L 125.000572 76.798926 
L 125.310285 76.798926 
L 125.310285 71.207104 
L 125.614517 71.207104 
L 125.614517 67.013237 
L 125.913457 67.013237 
L 125.913457 65.615281 
L 126.207287 65.615281 
L 126.207287 64.217326 
L 126.638823 64.217326 
L 126.638823 62.81937 
L 127.05979 62.81937 
L 127.05979 61.421414 
L 127.197852 61.421414 
L 127.197852 60.023459 
L 127.334814 60.023459 
L 127.334814 58.625503 
L 127.872003 58.625503 
L 127.872003 57.227548 
L 128.264156 57.227548 
L 128.264156 55.829592 
L 128.647561 55.829592 
L 128.647561 54.431636 
L 134.213018 54.431636 
L 134.213018 53.033681 
L 134.664189 53.033681 
L 134.664189 51.635725 
L 135.784647 51.635725 
L 135.784647 50.23777 
L 136.519665 50.23777 
L 136.519665 48.839814 
L 136.67882 48.839814 
L 136.67882 22.278658 
L 137.14763 22.278658 
L 137.14763 20.880702 
L 137.603992 20.880702 
L 137.603992 19.482746 
L 138.04855 19.482746 
L 138.04855 18.084791 
L 138.4819 18.084791 
L 138.4819 16.686835 
L 138.623956 16.686835 
L 138.623956 15.28888 
L 139.112104 15.28888 
L 139.112104 13.890924 
L 139.317139 13.890924 
L 139.317139 12.492968 
L 139.519758 12.492968 
L 139.519758 11.095013 
L 139.653523 11.095013 
L 139.653523 9.697057 
L 333.168 9.697057 
L 333.168 9.697057 
" style="fill:none;stroke:#f5deb3;stroke-linecap:square;stroke-width:4;"/>
   </g>
   <g id="line2d_2">
    <defs>
     <path d="M -0 7.778175 
L 7.778175 0 
L 0 -7.778175 
L -7.778175 -0 
z
" id="mefbfc71efc" style="stroke:#f5deb3;stroke-linejoin:miter;stroke-width:1.5;"/>
    </defs>
    <g>
     <use style="fill:#f5deb3;stroke:#f5deb3;stroke-linejoin:miter;stroke-width:1.5;" x="108.85563" xlink:href="#mefbfc71efc" y="202.61493"/>
     <use style="fill:#f5deb3;stroke:#f5deb3;stroke-linejoin:miter;stroke-width:1.5;" x="125.310285" xlink:href="#mefbfc71efc" y="71.207104"/>
     <use style="fill:#f5deb3;stroke:#f5deb3;stroke-linejoin:miter;stroke-width:1.5;" x="139.653523" xlink:href="#mefbfc71efc" y="11.095013"/>
     <use style="fill:#f5deb3;stroke:#f5deb3;stroke-linejoin:miter;stroke-width:1.5;" x="139.653523" xlink:href="#mefbfc71efc" y="9.697057"/>
     <use style="fill:#f5deb3;stroke:#f5deb3;stroke-linejoin:miter;stroke-width:1.5;" x="139.653523" xlink:href="#mefbfc71efc" y="9.697057"/>
     <use style="fill:#f5deb3;stroke:#f5deb3;stroke-linejoin:miter;stroke-width:1.5;" x="333.168" xlink:href="#mefbfc71efc" y="9.697057"/>
    </g>
   </g>
   <g id="line2d_3">
    <path style="fill:none;stroke:#f5deb3;stroke-linecap:square;stroke-width:4;"/>
    <g/>
   </g>
   <g id="line2d_4">
    <path d="M 333.168 9.697057 
L 363.64328 15.400716 
" style="fill:none;stroke:#f5deb3;stroke-linecap:square;stroke-width:4;"/>
    <g>
     <use style="fill:#f5deb3;stroke:#f5deb3;stroke-linejoin:miter;stroke-width:1.5;" x="333.168" xlink:href="#mefbfc71efc" y="9.697057"/>
     <use style="fill:#f5deb3;stroke:#f5deb3;stroke-linejoin:miter;stroke-width:1.5;" x="363.64328" xlink:href="#mefbfc71efc" y="15.400716"/>
    </g>
   </g>
   <g id="matplotlib.axis_1">
    <g id="xtick_1">
     <g id="line2d_5">
      <path clip-path="url(#pab32f09fe7)" d="M 56.12 294.88 
L 56.12 6.845228 
" style="fill:none;stroke:#b0b0b0;stroke-linecap:square;stroke-width:0.8;"/>
     </g>
     <g id="line2d_6">
      <defs>
       <path d="M 0 0 
L 0 3.5 
" id="m5ea4419bfe" style="stroke:#000000;stroke-width:0.8;"/>
      </defs>
      <g>
       <use style="stroke:#000000;stroke-width:0.8;" x="56.12" xlink:href="#m5ea4419bfe" y="294.88"/>
      </g>
     </g>
     <g id="text_1">
      <!-- 0 -->
      <defs>
       <path d="M 31.78125 66.40625 
Q 24.171875 66.40625 20.328125 58.90625 
Q 16.5 51.421875 16.5 36.375 
Q 16.5 21.390625 20.328125 13.890625 
Q 24.171875 6.390625 31.78125 6.390625 
Q 39.453125 6.390625 43.28125 13.890625 
Q 47.125 21.390625 47.125 36.375 
Q 47.125 51.421875 43.28125 58.90625 
Q 39.453125 66.40625 31.78125 66.40625 
z
M 31.78125 74.21875 
Q 44.046875 74.21875 50.515625 64.515625 
Q 56.984375 54.828125 56.984375 36.375 
Q 56.984375 17.96875 50.515625 8.265625 
Q 44.046875 -1.421875 31.78125 -1.421875 
Q 19.53125 -1.421875 13.0625 8.265625 
Q 6.59375 17.96875 6.59375 36.375 
Q 6.59375 54.828125 13.0625 64.515625 
Q 19.53125 74.21875 31.78125 74.21875 
z
" id="DejaVuSans-30"/>
      </defs>
      <g transform="translate(49.7575 317.076875)scale(0.2 -0.2)">
       <use xlink:href="#DejaVuSans-30"/>
      </g>
     </g>
    </g>
    <g id="xtick_2">
     <g id="line2d_7">
      <path clip-path="url(#pab32f09fe7)" d="M 135.276571 294.88 
L 135.276571 6.845228 
" style="fill:none;stroke:#b0b0b0;stroke-linecap:square;stroke-width:0.8;"/>
     </g>
     <g id="line2d_8">
      <g>
       <use style="stroke:#000000;stroke-width:0.8;" x="135.276571" xlink:href="#m5ea4419bfe" y="294.88"/>
      </g>
     </g>
     <g id="text_2">
      <!-- 2 -->
      <defs>
       <path d="M 19.1875 8.296875 
L 53.609375 8.296875 
L 53.609375 0 
L 7.328125 0 
L 7.328125 8.296875 
Q 12.9375 14.109375 22.625 23.890625 
Q 32.328125 33.6875 34.8125 36.53125 
Q 39.546875 41.84375 41.421875 45.53125 
Q 43.3125 49.21875 43.3125 52.78125 
Q 43.3125 58.59375 39.234375 62.25 
Q 35.15625 65.921875 28.609375 65.921875 
Q 23.96875 65.921875 18.8125 64.3125 
Q 13.671875 62.703125 7.8125 59.421875 
L 7.8125 69.390625 
Q 13.765625 71.78125 18.9375 73 
Q 24.125 74.21875 28.421875 74.21875 
Q 39.75 74.21875 46.484375 68.546875 
Q 53.21875 62.890625 53.21875 53.421875 
Q 53.21875 48.921875 51.53125 44.890625 
Q 49.859375 40.875 45.40625 35.40625 
Q 44.1875 33.984375 37.640625 27.21875 
Q 31.109375 20.453125 19.1875 8.296875 
z
" id="DejaVuSans-32"/>
      </defs>
      <g transform="translate(128.914071 317.076875)scale(0.2 -0.2)">
       <use xlink:href="#DejaVuSans-32"/>
      </g>
     </g>
    </g>
    <g id="xtick_3">
     <g id="line2d_9">
      <path clip-path="url(#pab32f09fe7)" d="M 214.433143 294.88 
L 214.433143 6.845228 
" style="fill:none;stroke:#b0b0b0;stroke-linecap:square;stroke-width:0.8;"/>
     </g>
     <g id="line2d_10">
      <g>
       <use style="stroke:#000000;stroke-width:0.8;" x="214.433143" xlink:href="#m5ea4419bfe" y="294.88"/>
      </g>
     </g>
     <g id="text_3">
      <!-- 4 -->
      <defs>
       <path d="M 37.796875 64.3125 
L 12.890625 25.390625 
L 37.796875 25.390625 
z
M 35.203125 72.90625 
L 47.609375 72.90625 
L 47.609375 25.390625 
L 58.015625 25.390625 
L 58.015625 17.1875 
L 47.609375 17.1875 
L 47.609375 0 
L 37.796875 0 
L 37.796875 17.1875 
L 4.890625 17.1875 
L 4.890625 26.703125 
z
" id="DejaVuSans-34"/>
      </defs>
      <g transform="translate(208.070643 317.076875)scale(0.2 -0.2)">
       <use xlink:href="#DejaVuSans-34"/>
      </g>
     </g>
    </g>
    <g id="xtick_4">
     <g id="line2d_11">
      <path clip-path="url(#pab32f09fe7)" d="M 293.589714 294.88 
L 293.589714 6.845228 
" style="fill:none;stroke:#b0b0b0;stroke-linecap:square;stroke-width:0.8;"/>
     </g>
     <g id="line2d_12">
      <g>
       <use style="stroke:#000000;stroke-width:0.8;" x="293.589714" xlink:href="#m5ea4419bfe" y="294.88"/>
      </g>
     </g>
     <g id="text_4">
      <!-- 6 -->
      <defs>
       <path d="M 33.015625 40.375 
Q 26.375 40.375 22.484375 35.828125 
Q 18.609375 31.296875 18.609375 23.390625 
Q 18.609375 15.53125 22.484375 10.953125 
Q 26.375 6.390625 33.015625 6.390625 
Q 39.65625 6.390625 43.53125 10.953125 
Q 47.40625 15.53125 47.40625 23.390625 
Q 47.40625 31.296875 43.53125 35.828125 
Q 39.65625 40.375 33.015625 40.375 
z
M 52.59375 71.296875 
L 52.59375 62.3125 
Q 48.875 64.0625 45.09375 64.984375 
Q 41.3125 65.921875 37.59375 65.921875 
Q 27.828125 65.921875 22.671875 59.328125 
Q 17.53125 52.734375 16.796875 39.40625 
Q 19.671875 43.65625 24.015625 45.921875 
Q 28.375 48.1875 33.59375 48.1875 
Q 44.578125 48.1875 50.953125 41.515625 
Q 57.328125 34.859375 57.328125 23.390625 
Q 57.328125 12.15625 50.6875 5.359375 
Q 44.046875 -1.421875 33.015625 -1.421875 
Q 20.359375 -1.421875 13.671875 8.265625 
Q 6.984375 17.96875 6.984375 36.375 
Q 6.984375 53.65625 15.1875 63.9375 
Q 23.390625 74.21875 37.203125 74.21875 
Q 40.921875 74.21875 44.703125 73.484375 
Q 48.484375 72.75 52.59375 71.296875 
z
" id="DejaVuSans-36"/>
      </defs>
      <g transform="translate(287.227214 317.076875)scale(0.2 -0.2)">
       <use xlink:href="#DejaVuSans-36"/>
      </g>
     </g>
    </g>
    <g id="xtick_5">
     <g id="line2d_13">
      <path clip-path="url(#pab32f09fe7)" d="M 56.12 294.88 
L 56.12 6.845228 
" style="fill:none;stroke:#b0b0b0;stroke-linecap:square;stroke-width:0.8;"/>
     </g>
     <g id="line2d_14">
      <defs>
       <path d="M 0 0 
L 0 2 
" id="m84c97188f8" style="stroke:#000000;stroke-width:0.6;"/>
      </defs>
      <g>
       <use style="stroke:#000000;stroke-width:0.6;" x="56.12" xlink:href="#m84c97188f8" y="294.88"/>
      </g>
     </g>
    </g>
    <g id="xtick_6">
     <g id="line2d_15">
      <path clip-path="url(#pab32f09fe7)" d="M 95.698286 294.88 
L 95.698286 6.845228 
" style="fill:none;stroke:#b0b0b0;stroke-linecap:square;stroke-width:0.8;"/>
     </g>
     <g id="line2d_16">
      <g>
       <use style="stroke:#000000;stroke-width:0.6;" x="95.698286" xlink:href="#m84c97188f8" y="294.88"/>
      </g>
     </g>
    </g>
    <g id="xtick_7">
     <g id="line2d_17">
      <path clip-path="url(#pab32f09fe7)" d="M 135.276571 294.88 
L 135.276571 6.845228 
" style="fill:none;stroke:#b0b0b0;stroke-linecap:square;stroke-width:0.8;"/>
     </g>
     <g id="line2d_18">
      <g>
       <use style="stroke:#000000;stroke-width:0.6;" x="135.276571" xlink:href="#m84c97188f8" y="294.88"/>
      </g>
     </g>
    </g>
    <g id="xtick_8">
     <g id="line2d_19">
      <path clip-path="url(#pab32f09fe7)" d="M 174.854857 294.88 
L 174.854857 6.845228 
" style="fill:none;stroke:#b0b0b0;stroke-linecap:square;stroke-width:0.8;"/>
     </g>
     <g id="line2d_20">
      <g>
       <use style="stroke:#000000;stroke-width:0.6;" x="174.854857" xlink:href="#m84c97188f8" y="294.88"/>
      </g>
     </g>
    </g>
    <g id="xtick_9">
     <g id="line2d_21">
      <path clip-path="url(#pab32f09fe7)" d="M 214.433143 294.88 
L 214.433143 6.845228 
" style="fill:none;stroke:#b0b0b0;stroke-linecap:square;stroke-width:0.8;"/>
     </g>
     <g id="line2d_22">
      <g>
       <use style="stroke:#000000;stroke-width:0.6;" x="214.433143" xlink:href="#m84c97188f8" y="294.88"/>
      </g>
     </g>
    </g>
    <g id="xtick_10">
     <g id="line2d_23">
      <path clip-path="url(#pab32f09fe7)" d="M 254.011429 294.88 
L 254.011429 6.845228 
" style="fill:none;stroke:#b0b0b0;stroke-linecap:square;stroke-width:0.8;"/>
     </g>
     <g id="line2d_24">
      <g>
       <use style="stroke:#000000;stroke-width:0.6;" x="254.011429" xlink:href="#m84c97188f8" y="294.88"/>
      </g>
     </g>
    </g>
    <g id="xtick_11">
     <g id="line2d_25">
      <path clip-path="url(#pab32f09fe7)" d="M 293.589714 294.88 
L 293.589714 6.845228 
" style="fill:none;stroke:#b0b0b0;stroke-linecap:square;stroke-width:0.8;"/>
     </g>
     <g id="line2d_26">
      <g>
       <use style="stroke:#000000;stroke-width:0.6;" x="293.589714" xlink:href="#m84c97188f8" y="294.88"/>
      </g>
     </g>
    </g>
    <g id="xtick_12">
     <g id="line2d_27">
      <path clip-path="url(#pab32f09fe7)" d="M 333.168 294.88 
L 333.168 6.845228 
" style="fill:none;stroke:#b0b0b0;stroke-linecap:square;stroke-width:0.8;"/>
     </g>
     <g id="line2d_28">
      <g>
       <use style="stroke:#000000;stroke-width:0.6;" x="333.168" xlink:href="#m84c97188f8" y="294.88"/>
      </g>
     </g>
    </g>
    <g id="text_5">
     <!-- log10(# f-evals / dimension) -->
     <defs>
      <path d="M 9.421875 75.984375 
L 18.40625 75.984375 
L 18.40625 0 
L 9.421875 0 
z
" id="DejaVuSans-6c"/>
      <path d="M 30.609375 48.390625 
Q 23.390625 48.390625 19.1875 42.75 
Q 14.984375 37.109375 14.984375 27.296875 
Q 14.984375 17.484375 19.15625 11.84375 
Q 23.34375 6.203125 30.609375 6.203125 
Q 37.796875 6.203125 41.984375 11.859375 
Q 46.1875 17.53125 46.1875 27.296875 
Q 46.1875 37.015625 41.984375 42.703125 
Q 37.796875 48.390625 30.609375 48.390625 
z
M 30.609375 56 
Q 42.328125 56 49.015625 48.375 
Q 55.71875 40.765625 55.71875 27.296875 
Q 55.71875 13.875 49.015625 6.21875 
Q 42.328125 -1.421875 30.609375 -1.421875 
Q 18.84375 -1.421875 12.171875 6.21875 
Q 5.515625 13.875 5.515625 27.296875 
Q 5.515625 40.765625 12.171875 48.375 
Q 18.84375 56 30.609375 56 
z
" id="DejaVuSans-6f"/>
      <path d="M 45.40625 27.984375 
Q 45.40625 37.75 41.375 43.109375 
Q 37.359375 48.484375 30.078125 48.484375 
Q 22.859375 48.484375 18.828125 43.109375 
Q 14.796875 37.75 14.796875 27.984375 
Q 14.796875 18.265625 18.828125 12.890625 
Q 22.859375 7.515625 30.078125 7.515625 
Q 37.359375 7.515625 41.375 12.890625 
Q 45.40625 18.265625 45.40625 27.984375 
z
M 54.390625 6.78125 
Q 54.390625 -7.171875 48.1875 -13.984375 
Q 42 -20.796875 29.203125 -20.796875 
Q 24.46875 -20.796875 20.265625 -20.09375 
Q 16.0625 -19.390625 12.109375 -17.921875 
L 12.109375 -9.1875 
Q 16.0625 -11.328125 19.921875 -12.34375 
Q 23.78125 -13.375 27.78125 -13.375 
Q 36.625 -13.375 41.015625 -8.765625 
Q 45.40625 -4.15625 45.40625 5.171875 
L 45.40625 9.625 
Q 42.625 4.78125 38.28125 2.390625 
Q 33.9375 0 27.875 0 
Q 17.828125 0 11.671875 7.65625 
Q 5.515625 15.328125 5.515625 27.984375 
Q 5.515625 40.671875 11.671875 48.328125 
Q 17.828125 56 27.875 56 
Q 33.9375 56 38.28125 53.609375 
Q 42.625 51.21875 45.40625 46.390625 
L 45.40625 54.6875 
L 54.390625 54.6875 
z
" id="DejaVuSans-67"/>
      <path d="M 12.40625 8.296875 
L 28.515625 8.296875 
L 28.515625 63.921875 
L 10.984375 60.40625 
L 10.984375 69.390625 
L 28.421875 72.90625 
L 38.28125 72.90625 
L 38.28125 8.296875 
L 54.390625 8.296875 
L 54.390625 0 
L 12.40625 0 
z
" id="DejaVuSans-31"/>
      <path d="M 31 75.875 
Q 24.46875 64.65625 21.28125 53.65625 
Q 18.109375 42.671875 18.109375 31.390625 
Q 18.109375 20.125 21.3125 9.0625 
Q 24.515625 -2 31 -13.1875 
L 23.1875 -13.1875 
Q 15.875 -1.703125 12.234375 9.375 
Q 8.59375 20.453125 8.59375 31.390625 
Q 8.59375 42.28125 12.203125 53.3125 
Q 15.828125 64.359375 23.1875 75.875 
z
" id="DejaVuSans-28"/>
      <path d="M 51.125 44 
L 36.921875 44 
L 32.8125 27.6875 
L 47.125 27.6875 
z
M 43.796875 71.78125 
L 38.71875 51.515625 
L 52.984375 51.515625 
L 58.109375 71.78125 
L 65.921875 71.78125 
L 60.890625 51.515625 
L 76.125 51.515625 
L 76.125 44 
L 58.984375 44 
L 54.984375 27.6875 
L 70.515625 27.6875 
L 70.515625 20.21875 
L 53.078125 20.21875 
L 48 0 
L 40.1875 0 
L 45.21875 20.21875 
L 30.90625 20.21875 
L 25.875 0 
L 18.015625 0 
L 23.09375 20.21875 
L 7.71875 20.21875 
L 7.71875 27.6875 
L 24.90625 27.6875 
L 29 44 
L 13.28125 44 
L 13.28125 51.515625 
L 30.90625 51.515625 
L 35.890625 71.78125 
z
" id="DejaVuSans-23"/>
      <path id="DejaVuSans-20"/>
      <path d="M 37.109375 75.984375 
L 37.109375 68.5 
L 28.515625 68.5 
Q 23.6875 68.5 21.796875 66.546875 
Q 19.921875 64.59375 19.921875 59.515625 
L 19.921875 54.6875 
L 34.71875 54.6875 
L 34.71875 47.703125 
L 19.921875 47.703125 
L 19.921875 0 
L 10.890625 0 
L 10.890625 47.703125 
L 2.296875 47.703125 
L 2.296875 54.6875 
L 10.890625 54.6875 
L 10.890625 58.5 
Q 10.890625 67.625 15.140625 71.796875 
Q 19.390625 75.984375 28.609375 75.984375 
z
" id="DejaVuSans-66"/>
      <path d="M 4.890625 31.390625 
L 31.203125 31.390625 
L 31.203125 23.390625 
L 4.890625 23.390625 
z
" id="DejaVuSans-2d"/>
      <path d="M 56.203125 29.59375 
L 56.203125 25.203125 
L 14.890625 25.203125 
Q 15.484375 15.921875 20.484375 11.0625 
Q 25.484375 6.203125 34.421875 6.203125 
Q 39.59375 6.203125 44.453125 7.46875 
Q 49.3125 8.734375 54.109375 11.28125 
L 54.109375 2.78125 
Q 49.265625 0.734375 44.1875 -0.34375 
Q 39.109375 -1.421875 33.890625 -1.421875 
Q 20.796875 -1.421875 13.15625 6.1875 
Q 5.515625 13.8125 5.515625 26.8125 
Q 5.515625 40.234375 12.765625 48.109375 
Q 20.015625 56 32.328125 56 
Q 43.359375 56 49.78125 48.890625 
Q 56.203125 41.796875 56.203125 29.59375 
z
M 47.21875 32.234375 
Q 47.125 39.59375 43.09375 43.984375 
Q 39.0625 48.390625 32.421875 48.390625 
Q 24.90625 48.390625 20.390625 44.140625 
Q 15.875 39.890625 15.1875 32.171875 
z
" id="DejaVuSans-65"/>
      <path d="M 2.984375 54.6875 
L 12.5 54.6875 
L 29.59375 8.796875 
L 46.6875 54.6875 
L 56.203125 54.6875 
L 35.6875 0 
L 23.484375 0 
z
" id="DejaVuSans-76"/>
      <path d="M 34.28125 27.484375 
Q 23.390625 27.484375 19.1875 25 
Q 14.984375 22.515625 14.984375 16.5 
Q 14.984375 11.71875 18.140625 8.90625 
Q 21.296875 6.109375 26.703125 6.109375 
Q 34.1875 6.109375 38.703125 11.40625 
Q 43.21875 16.703125 43.21875 25.484375 
L 43.21875 27.484375 
z
M 52.203125 31.203125 
L 52.203125 0 
L 43.21875 0 
L 43.21875 8.296875 
Q 40.140625 3.328125 35.546875 0.953125 
Q 30.953125 -1.421875 24.3125 -1.421875 
Q 15.921875 -1.421875 10.953125 3.296875 
Q 6 8.015625 6 15.921875 
Q 6 25.140625 12.171875 29.828125 
Q 18.359375 34.515625 30.609375 34.515625 
L 43.21875 34.515625 
L 43.21875 35.40625 
Q 43.21875 41.609375 39.140625 45 
Q 35.0625 48.390625 27.6875 48.390625 
Q 23 48.390625 18.546875 47.265625 
Q 14.109375 46.140625 10.015625 43.890625 
L 10.015625 52.203125 
Q 14.9375 54.109375 19.578125 55.046875 
Q 24.21875 56 28.609375 56 
Q 40.484375 56 46.34375 49.84375 
Q 52.203125 43.703125 52.203125 31.203125 
z
" id="DejaVuSans-61"/>
      <path d="M 44.28125 53.078125 
L 44.28125 44.578125 
Q 40.484375 46.53125 36.375 47.5 
Q 32.28125 48.484375 27.875 48.484375 
Q 21.1875 48.484375 17.84375 46.4375 
Q 14.5 44.390625 14.5 40.28125 
Q 14.5 37.15625 16.890625 35.375 
Q 19.28125 33.59375 26.515625 31.984375 
L 29.59375 31.296875 
Q 39.15625 29.25 43.1875 25.515625 
Q 47.21875 21.78125 47.21875 15.09375 
Q 47.21875 7.46875 41.1875 3.015625 
Q 35.15625 -1.421875 24.609375 -1.421875 
Q 20.21875 -1.421875 15.453125 -0.5625 
Q 10.6875 0.296875 5.421875 2 
L 5.421875 11.28125 
Q 10.40625 8.6875 15.234375 7.390625 
Q 20.0625 6.109375 24.8125 6.109375 
Q 31.15625 6.109375 34.5625 8.28125 
Q 37.984375 10.453125 37.984375 14.40625 
Q 37.984375 18.0625 35.515625 20.015625 
Q 33.0625 21.96875 24.703125 23.78125 
L 21.578125 24.515625 
Q 13.234375 26.265625 9.515625 29.90625 
Q 5.8125 33.546875 5.8125 39.890625 
Q 5.8125 47.609375 11.28125 51.796875 
Q 16.75 56 26.8125 56 
Q 31.78125 56 36.171875 55.265625 
Q 40.578125 54.546875 44.28125 53.078125 
z
" id="DejaVuSans-73"/>
      <path d="M 25.390625 72.90625 
L 33.6875 72.90625 
L 8.296875 -9.28125 
L 0 -9.28125 
z
" id="DejaVuSans-2f"/>
      <path d="M 45.40625 46.390625 
L 45.40625 75.984375 
L 54.390625 75.984375 
L 54.390625 0 
L 45.40625 0 
L 45.40625 8.203125 
Q 42.578125 3.328125 38.25 0.953125 
Q 33.9375 -1.421875 27.875 -1.421875 
Q 17.96875 -1.421875 11.734375 6.484375 
Q 5.515625 14.40625 5.515625 27.296875 
Q 5.515625 40.1875 11.734375 48.09375 
Q 17.96875 56 27.875 56 
Q 33.9375 56 38.25 53.625 
Q 42.578125 51.265625 45.40625 46.390625 
z
M 14.796875 27.296875 
Q 14.796875 17.390625 18.875 11.75 
Q 22.953125 6.109375 30.078125 6.109375 
Q 37.203125 6.109375 41.296875 11.75 
Q 45.40625 17.390625 45.40625 27.296875 
Q 45.40625 37.203125 41.296875 42.84375 
Q 37.203125 48.484375 30.078125 48.484375 
Q 22.953125 48.484375 18.875 42.84375 
Q 14.796875 37.203125 14.796875 27.296875 
z
" id="DejaVuSans-64"/>
      <path d="M 9.421875 54.6875 
L 18.40625 54.6875 
L 18.40625 0 
L 9.421875 0 
z
M 9.421875 75.984375 
L 18.40625 75.984375 
L 18.40625 64.59375 
L 9.421875 64.59375 
z
" id="DejaVuSans-69"/>
      <path d="M 52 44.1875 
Q 55.375 50.25 60.0625 53.125 
Q 64.75 56 71.09375 56 
Q 79.640625 56 84.28125 50.015625 
Q 88.921875 44.046875 88.921875 33.015625 
L 88.921875 0 
L 79.890625 0 
L 79.890625 32.71875 
Q 79.890625 40.578125 77.09375 44.375 
Q 74.3125 48.1875 68.609375 48.1875 
Q 61.625 48.1875 57.5625 43.546875 
Q 53.515625 38.921875 53.515625 30.90625 
L 53.515625 0 
L 44.484375 0 
L 44.484375 32.71875 
Q 44.484375 40.625 41.703125 44.40625 
Q 38.921875 48.1875 33.109375 48.1875 
Q 26.21875 48.1875 22.15625 43.53125 
Q 18.109375 38.875 18.109375 30.90625 
L 18.109375 0 
L 9.078125 0 
L 9.078125 54.6875 
L 18.109375 54.6875 
L 18.109375 46.1875 
Q 21.1875 51.21875 25.484375 53.609375 
Q 29.78125 56 35.6875 56 
Q 41.65625 56 45.828125 52.96875 
Q 50 49.953125 52 44.1875 
z
" id="DejaVuSans-6d"/>
      <path d="M 54.890625 33.015625 
L 54.890625 0 
L 45.90625 0 
L 45.90625 32.71875 
Q 45.90625 40.484375 42.875 44.328125 
Q 39.84375 48.1875 33.796875 48.1875 
Q 26.515625 48.1875 22.3125 43.546875 
Q 18.109375 38.921875 18.109375 30.90625 
L 18.109375 0 
L 9.078125 0 
L 9.078125 54.6875 
L 18.109375 54.6875 
L 18.109375 46.1875 
Q 21.34375 51.125 25.703125 53.5625 
Q 30.078125 56 35.796875 56 
Q 45.21875 56 50.046875 50.171875 
Q 54.890625 44.34375 54.890625 33.015625 
z
" id="DejaVuSans-6e"/>
      <path d="M 8.015625 75.875 
L 15.828125 75.875 
Q 23.140625 64.359375 26.78125 53.3125 
Q 30.421875 42.28125 30.421875 31.390625 
Q 30.421875 20.453125 26.78125 9.375 
Q 23.140625 -1.703125 15.828125 -13.1875 
L 8.015625 -13.1875 
Q 14.5 -2 17.703125 9.0625 
Q 20.90625 20.125 20.90625 31.390625 
Q 20.90625 42.671875 17.703125 53.65625 
Q 14.5 64.65625 8.015625 75.875 
z
" id="DejaVuSans-29"/>
     </defs>
     <g transform="translate(73.803219 338.153594)scale(0.17 -0.17)">
      <use xlink:href="#DejaVuSans-6c"/>
      <use x="27.783203" xlink:href="#DejaVuSans-6f"/>
      <use x="88.964844" xlink:href="#DejaVuSans-67"/>
      <use x="152.441406" xlink:href="#DejaVuSans-31"/>
      <use x="216.064453" xlink:href="#DejaVuSans-30"/>
      <use x="279.6875" xlink:href="#DejaVuSans-28"/>
      <use x="318.701172" xlink:href="#DejaVuSans-23"/>
      <use x="402.490234" xlink:href="#DejaVuSans-20"/>
      <use x="434.277344" xlink:href="#DejaVuSans-66"/>
      <use x="469.404297" xlink:href="#DejaVuSans-2d"/>
      <use x="505.488281" xlink:href="#DejaVuSans-65"/>
      <use x="567.011719" xlink:href="#DejaVuSans-76"/>
      <use x="626.191406" xlink:href="#DejaVuSans-61"/>
      <use x="687.470703" xlink:href="#DejaVuSans-6c"/>
      <use x="715.253906" xlink:href="#DejaVuSans-73"/>
      <use x="767.353516" xlink:href="#DejaVuSans-20"/>
      <use x="799.140625" xlink:href="#DejaVuSans-2f"/>
      <use x="832.832031" xlink:href="#DejaVuSans-20"/>
      <use x="864.619141" xlink:href="#DejaVuSans-64"/>
      <use x="928.095703" xlink:href="#DejaVuSans-69"/>
      <use x="955.878906" xlink:href="#DejaVuSans-6d"/>
      <use x="1053.291016" xlink:href="#DejaVuSans-65"/>
      <use x="1114.814453" xlink:href="#DejaVuSans-6e"/>
      <use x="1178.193359" xlink:href="#DejaVuSans-73"/>
      <use x="1230.292969" xlink:href="#DejaVuSans-69"/>
      <use x="1258.076172" xlink:href="#DejaVuSans-6f"/>
      <use x="1319.257812" xlink:href="#DejaVuSans-6e"/>
      <use x="1382.636719" xlink:href="#DejaVuSans-29"/>
     </g>
    </g>
   </g>
   <g id="matplotlib.axis_2">
    <g id="ytick_1">
     <g id="line2d_29">
      <path clip-path="url(#pab32f09fe7)" d="M 56.12 294.88 
L 333.168 294.88 
" style="fill:none;stroke:#b0b0b0;stroke-linecap:square;stroke-width:0.8;"/>
     </g>
     <g id="line2d_30">
      <defs>
       <path d="M 0 0 
L -3.5 0 
" id="m767df576de" style="stroke:#000000;stroke-width:0.8;"/>
      </defs>
      <g>
       <use style="stroke:#000000;stroke-width:0.8;" x="56.12" xlink:href="#m767df576de" y="294.88"/>
      </g>
     </g>
     <g id="text_6">
      <!-- 0.0 -->
      <defs>
       <path d="M 10.6875 12.40625 
L 21 12.40625 
L 21 0 
L 10.6875 0 
z
" id="DejaVuSans-2e"/>
      </defs>
      <g transform="translate(23.675 300.95875)scale(0.16 -0.16)">
       <use xlink:href="#DejaVuSans-30"/>
       <use x="63.623047" xlink:href="#DejaVuSans-2e"/>
       <use x="95.410156" xlink:href="#DejaVuSans-30"/>
      </g>
     </g>
    </g>
    <g id="ytick_2">
     <g id="line2d_31">
      <path clip-path="url(#pab32f09fe7)" d="M 56.12 237.843411 
L 333.168 237.843411 
" style="fill:none;stroke:#b0b0b0;stroke-linecap:square;stroke-width:0.8;"/>
     </g>
     <g id="line2d_32">
      <g>
       <use style="stroke:#000000;stroke-width:0.8;" x="56.12" xlink:href="#m767df576de" y="237.843411"/>
      </g>
     </g>
     <g id="text_7">
      <!-- 0.2 -->
      <g transform="translate(23.675 243.922161)scale(0.16 -0.16)">
       <use xlink:href="#DejaVuSans-30"/>
       <use x="63.623047" xlink:href="#DejaVuSans-2e"/>
       <use x="95.410156" xlink:href="#DejaVuSans-32"/>
      </g>
     </g>
    </g>
    <g id="ytick_3">
     <g id="line2d_33">
      <path clip-path="url(#pab32f09fe7)" d="M 56.12 180.806823 
L 333.168 180.806823 
" style="fill:none;stroke:#b0b0b0;stroke-linecap:square;stroke-width:0.8;"/>
     </g>
     <g id="line2d_34">
      <g>
       <use style="stroke:#000000;stroke-width:0.8;" x="56.12" xlink:href="#m767df576de" y="180.806823"/>
      </g>
     </g>
     <g id="text_8">
      <!-- 0.4 -->
      <g transform="translate(23.675 186.885573)scale(0.16 -0.16)">
       <use xlink:href="#DejaVuSans-30"/>
       <use x="63.623047" xlink:href="#DejaVuSans-2e"/>
       <use x="95.410156" xlink:href="#DejaVuSans-34"/>
      </g>
     </g>
    </g>
    <g id="ytick_4">
     <g id="line2d_35">
      <path clip-path="url(#pab32f09fe7)" d="M 56.12 123.770234 
L 333.168 123.770234 
" style="fill:none;stroke:#b0b0b0;stroke-linecap:square;stroke-width:0.8;"/>
     </g>
     <g id="line2d_36">
      <g>
       <use style="stroke:#000000;stroke-width:0.8;" x="56.12" xlink:href="#m767df576de" y="123.770234"/>
      </g>
     </g>
     <g id="text_9">
      <!-- 0.6 -->
      <g transform="translate(23.675 129.848984)scale(0.16 -0.16)">
       <use xlink:href="#DejaVuSans-30"/>
       <use x="63.623047" xlink:href="#DejaVuSans-2e"/>
       <use x="95.410156" xlink:href="#DejaVuSans-36"/>
      </g>
     </g>
    </g>
    <g id="ytick_5">
     <g id="line2d_37">
      <path clip-path="url(#pab32f09fe7)" d="M 56.12 66.733646 
L 333.168 66.733646 
" style="fill:none;stroke:#b0b0b0;stroke-linecap:square;stroke-width:0.8;"/>
     </g>
     <g id="line2d_38">
      <g>
       <use style="stroke:#000000;stroke-width:0.8;" x="56.12" xlink:href="#m767df576de" y="66.733646"/>
      </g>
     </g>
     <g id="text_10">
      <!-- 0.8 -->
      <defs>
       <path d="M 31.78125 34.625 
Q 24.75 34.625 20.71875 30.859375 
Q 16.703125 27.09375 16.703125 20.515625 
Q 16.703125 13.921875 20.71875 10.15625 
Q 24.75 6.390625 31.78125 6.390625 
Q 38.8125 6.390625 42.859375 10.171875 
Q 46.921875 13.96875 46.921875 20.515625 
Q 46.921875 27.09375 42.890625 30.859375 
Q 38.875 34.625 31.78125 34.625 
z
M 21.921875 38.8125 
Q 15.578125 40.375 12.03125 44.71875 
Q 8.5 49.078125 8.5 55.328125 
Q 8.5 64.0625 14.71875 69.140625 
Q 20.953125 74.21875 31.78125 74.21875 
Q 42.671875 74.21875 48.875 69.140625 
Q 55.078125 64.0625 55.078125 55.328125 
Q 55.078125 49.078125 51.53125 44.71875 
Q 48 40.375 41.703125 38.8125 
Q 48.828125 37.15625 52.796875 32.3125 
Q 56.78125 27.484375 56.78125 20.515625 
Q 56.78125 9.90625 50.3125 4.234375 
Q 43.84375 -1.421875 31.78125 -1.421875 
Q 19.734375 -1.421875 13.25 4.234375 
Q 6.78125 9.90625 6.78125 20.515625 
Q 6.78125 27.484375 10.78125 32.3125 
Q 14.796875 37.15625 21.921875 38.8125 
z
M 18.3125 54.390625 
Q 18.3125 48.734375 21.84375 45.5625 
Q 25.390625 42.390625 31.78125 42.390625 
Q 38.140625 42.390625 41.71875 45.5625 
Q 45.3125 48.734375 45.3125 54.390625 
Q 45.3125 60.0625 41.71875 63.234375 
Q 38.140625 66.40625 31.78125 66.40625 
Q 25.390625 66.40625 21.84375 63.234375 
Q 18.3125 60.0625 18.3125 54.390625 
z
" id="DejaVuSans-38"/>
      </defs>
      <g transform="translate(23.675 72.812396)scale(0.16 -0.16)">
       <use xlink:href="#DejaVuSans-30"/>
       <use x="63.623047" xlink:href="#DejaVuSans-2e"/>
       <use x="95.410156" xlink:href="#DejaVuSans-38"/>
      </g>
     </g>
    </g>
    <g id="ytick_6">
     <g id="line2d_39">
      <path clip-path="url(#pab32f09fe7)" d="M 56.12 9.697057 
L 333.168 9.697057 
" style="fill:none;stroke:#b0b0b0;stroke-linecap:square;stroke-width:0.8;"/>
     </g>
     <g id="line2d_40">
      <g>
       <use style="stroke:#000000;stroke-width:0.8;" x="56.12" xlink:href="#m767df576de" y="9.697057"/>
      </g>
     </g>
     <g id="text_11">
      <!-- 1.0 -->
      <g transform="translate(23.675 15.775807)scale(0.16 -0.16)">
       <use xlink:href="#DejaVuSans-31"/>
       <use x="63.623047" xlink:href="#DejaVuSans-2e"/>
       <use x="95.410156" xlink:href="#DejaVuSans-30"/>
      </g>
     </g>
    </g>
    <g id="text_12">
     <!-- Fraction of function,target pairs -->
     <defs>
      <path d="M 9.8125 72.90625 
L 51.703125 72.90625 
L 51.703125 64.59375 
L 19.671875 64.59375 
L 19.671875 43.109375 
L 48.578125 43.109375 
L 48.578125 34.8125 
L 19.671875 34.8125 
L 19.671875 0 
L 9.8125 0 
z
" id="DejaVuSans-46"/>
      <path d="M 41.109375 46.296875 
Q 39.59375 47.171875 37.8125 47.578125 
Q 36.03125 48 33.890625 48 
Q 26.265625 48 22.1875 43.046875 
Q 18.109375 38.09375 18.109375 28.8125 
L 18.109375 0 
L 9.078125 0 
L 9.078125 54.6875 
L 18.109375 54.6875 
L 18.109375 46.1875 
Q 20.953125 51.171875 25.484375 53.578125 
Q 30.03125 56 36.53125 56 
Q 37.453125 56 38.578125 55.875 
Q 39.703125 55.765625 41.0625 55.515625 
z
" id="DejaVuSans-72"/>
      <path d="M 48.78125 52.59375 
L 48.78125 44.1875 
Q 44.96875 46.296875 41.140625 47.34375 
Q 37.3125 48.390625 33.40625 48.390625 
Q 24.65625 48.390625 19.8125 42.84375 
Q 14.984375 37.3125 14.984375 27.296875 
Q 14.984375 17.28125 19.8125 11.734375 
Q 24.65625 6.203125 33.40625 6.203125 
Q 37.3125 6.203125 41.140625 7.25 
Q 44.96875 8.296875 48.78125 10.40625 
L 48.78125 2.09375 
Q 45.015625 0.34375 40.984375 -0.53125 
Q 36.96875 -1.421875 32.421875 -1.421875 
Q 20.0625 -1.421875 12.78125 6.34375 
Q 5.515625 14.109375 5.515625 27.296875 
Q 5.515625 40.671875 12.859375 48.328125 
Q 20.21875 56 33.015625 56 
Q 37.15625 56 41.109375 55.140625 
Q 45.0625 54.296875 48.78125 52.59375 
z
" id="DejaVuSans-63"/>
      <path d="M 18.3125 70.21875 
L 18.3125 54.6875 
L 36.8125 54.6875 
L 36.8125 47.703125 
L 18.3125 47.703125 
L 18.3125 18.015625 
Q 18.3125 11.328125 20.140625 9.421875 
Q 21.96875 7.515625 27.59375 7.515625 
L 36.8125 7.515625 
L 36.8125 0 
L 27.59375 0 
Q 17.1875 0 13.234375 3.875 
Q 9.28125 7.765625 9.28125 18.015625 
L 9.28125 47.703125 
L 2.6875 47.703125 
L 2.6875 54.6875 
L 9.28125 54.6875 
L 9.28125 70.21875 
z
" id="DejaVuSans-74"/>
      <path d="M 8.5 21.578125 
L 8.5 54.6875 
L 17.484375 54.6875 
L 17.484375 21.921875 
Q 17.484375 14.15625 20.5 10.265625 
Q 23.53125 6.390625 29.59375 6.390625 
Q 36.859375 6.390625 41.078125 11.03125 
Q 45.3125 15.671875 45.3125 23.6875 
L 45.3125 54.6875 
L 54.296875 54.6875 
L 54.296875 0 
L 45.3125 0 
L 45.3125 8.40625 
Q 42.046875 3.421875 37.71875 1 
Q 33.40625 -1.421875 27.6875 -1.421875 
Q 18.265625 -1.421875 13.375 4.4375 
Q 8.5 10.296875 8.5 21.578125 
z
M 31.109375 56 
z
" id="DejaVuSans-75"/>
      <path d="M 11.71875 12.40625 
L 22.015625 12.40625 
L 22.015625 4 
L 14.015625 -11.625 
L 7.71875 -11.625 
L 11.71875 4 
z
" id="DejaVuSans-2c"/>
      <path d="M 18.109375 8.203125 
L 18.109375 -20.796875 
L 9.078125 -20.796875 
L 9.078125 54.6875 
L 18.109375 54.6875 
L 18.109375 46.390625 
Q 20.953125 51.265625 25.265625 53.625 
Q 29.59375 56 35.59375 56 
Q 45.5625 56 51.78125 48.09375 
Q 58.015625 40.1875 58.015625 27.296875 
Q 58.015625 14.40625 51.78125 6.484375 
Q 45.5625 -1.421875 35.59375 -1.421875 
Q 29.59375 -1.421875 25.265625 0.953125 
Q 20.953125 3.328125 18.109375 8.203125 
z
M 48.6875 27.296875 
Q 48.6875 37.203125 44.609375 42.84375 
Q 40.53125 48.484375 33.40625 48.484375 
Q 26.265625 48.484375 22.1875 42.84375 
Q 18.109375 37.203125 18.109375 27.296875 
Q 18.109375 17.390625 22.1875 11.75 
Q 26.265625 6.109375 33.40625 6.109375 
Q 40.53125 6.109375 44.609375 11.75 
Q 48.6875 17.390625 48.6875 27.296875 
z
" id="DejaVuSans-70"/>
     </defs>
     <g transform="translate(16.139531 286.001989)rotate(-90)scale(0.17 -0.17)">
      <use xlink:href="#DejaVuSans-46"/>
      <use x="57.410156" xlink:href="#DejaVuSans-72"/>
      <use x="98.523438" xlink:href="#DejaVuSans-61"/>
      <use x="159.802734" xlink:href="#DejaVuSans-63"/>
      <use x="214.783203" xlink:href="#DejaVuSans-74"/>
      <use x="253.992188" xlink:href="#DejaVuSans-69"/>
      <use x="281.775391" xlink:href="#DejaVuSans-6f"/>
      <use x="342.957031" xlink:href="#DejaVuSans-6e"/>
      <use x="406.335938" xlink:href="#DejaVuSans-20"/>
      <use x="438.123047" xlink:href="#DejaVuSans-6f"/>
      <use x="499.304688" xlink:href="#DejaVuSans-66"/>
      <use x="534.509766" xlink:href="#DejaVuSans-20"/>
      <use x="566.296875" xlink:href="#DejaVuSans-66"/>
      <use x="601.501953" xlink:href="#DejaVuSans-75"/>
      <use x="664.880859" xlink:href="#DejaVuSans-6e"/>
      <use x="728.259766" xlink:href="#DejaVuSans-63"/>
      <use x="783.240234" xlink:href="#DejaVuSans-74"/>
      <use x="822.449219" xlink:href="#DejaVuSans-69"/>
      <use x="850.232422" xlink:href="#DejaVuSans-6f"/>
      <use x="911.414062" xlink:href="#DejaVuSans-6e"/>
      <use x="974.792969" xlink:href="#DejaVuSans-2c"/>
      <use x="1006.580078" xlink:href="#DejaVuSans-74"/>
      <use x="1045.789062" xlink:href="#DejaVuSans-61"/>
      <use x="1107.068359" xlink:href="#DejaVuSans-72"/>
      <use x="1148.166016" xlink:href="#DejaVuSans-67"/>
      <use x="1211.642578" xlink:href="#DejaVuSans-65"/>
      <use x="1273.166016" xlink:href="#DejaVuSans-74"/>
      <use x="1312.375" xlink:href="#DejaVuSans-20"/>
      <use x="1344.162109" xlink:href="#DejaVuSans-70"/>
      <use x="1407.638672" xlink:href="#DejaVuSans-61"/>
      <use x="1468.917969" xlink:href="#DejaVuSans-69"/>
      <use x="1496.701172" xlink:href="#DejaVuSans-72"/>
      <use x="1537.814453" xlink:href="#DejaVuSans-73"/>
     </g>
    </g>
   </g>
   <g id="line2d_41">
    <defs>
     <path d="M 0 1.5 
C 0.397805 1.5 0.77937 1.341951 1.06066 1.06066 
C 1.341951 0.77937 1.5 0.397805 1.5 0 
C 1.5 -0.397805 1.341951 -0.77937 1.06066 -1.06066 
C 0.77937 -1.341951 0.397805 -1.5 0 -1.5 
C -0.397805 -1.5 -0.77937 -1.341951 -1.06066 -1.06066 
C -1.341951 -0.77937 -1.5 -0.397805 -1.5 0 
C -1.5 0.397805 -1.341951 0.77937 -1.06066 1.06066 
C -0.77937 1.341951 -0.397805 1.5 0 1.5 
z
" id="m4d275f5218" style="stroke:#f5deb3;"/>
    </defs>
    <g>
     <use style="fill:#f5deb3;stroke:#f5deb3;" x="139.653523" xlink:href="#m4d275f5218" y="9.697057"/>
     <use style="fill:#f5deb3;stroke:#f5deb3;" x="139.653523" xlink:href="#m4d275f5218" y="9.697057"/>
    </g>
   </g>
   <g id="line2d_42">
    <defs>
     <path d="M 0 1.5 
C 0.397805 1.5 0.77937 1.341951 1.06066 1.06066 
C 1.341951 0.77937 1.5 0.397805 1.5 0 
C 1.5 -0.397805 1.341951 -0.77937 1.06066 -1.06066 
C 0.77937 -1.341951 0.397805 -1.5 0 -1.5 
C -0.397805 -1.5 -0.77937 -1.341951 -1.06066 -1.06066 
C -1.341951 -0.77937 -1.5 -0.397805 -1.5 0 
C -1.5 0.397805 -1.341951 0.77937 -1.06066 1.06066 
C -0.77937 1.341951 -0.397805 1.5 0 1.5 
z
" id="m710951e9ef" style="stroke:#000080;"/>
    </defs>
    <g>
     <use style="fill:#000080;stroke:#000080;" x="193.61487" xlink:href="#m710951e9ef" y="9.697057"/>
     <use style="fill:#000080;stroke:#000080;" x="193.61487" xlink:href="#m710951e9ef" y="9.697057"/>
    </g>
   </g>
   <g id="line2d_43">
    <path d="M 44.205749 294.88 
L 44.205749 279.782079 
L 56.12 279.782079 
L 56.12 275.448417 
L 63.08939 275.448417 
L 63.08939 275.02903 
L 68.034251 275.02903 
L 68.034251 274.190257 
L 71.869783 274.190257 
L 71.869783 273.631075 
L 75.003641 273.631075 
L 75.003641 272.51271 
L 77.653281 272.51271 
L 77.653281 272.233119 
L 79.948502 272.233119 
L 79.948502 271.25455 
L 81.973032 271.25455 
L 81.973032 269.716799 
L 83.784035 269.716799 
L 83.784035 269.437208 
L 85.422286 269.437208 
L 85.422286 269.297412 
L 86.917893 269.297412 
L 86.917893 269.157617 
L 88.293717 269.157617 
L 88.293717 267.48007 
L 89.567532 267.48007 
L 89.567532 265.942319 
L 90.753425 265.942319 
L 90.753425 264.124977 
L 91.862754 264.124977 
L 91.862754 263.985181 
L 92.904808 263.985181 
L 92.904808 263.70559 
L 94.816624 263.70559 
L 94.816624 263.565795 
L 96.536922 263.565795 
L 96.536922 263.425999 
L 97.336537 263.425999 
L 97.336537 262.727021 
L 98.100602 262.727021 
L 98.100602 262.028043 
L 99.533818 262.028043 
L 99.533818 261.468861 
L 100.207968 261.468861 
L 100.207968 260.070906 
L 100.856673 260.070906 
L 100.856673 259.791314 
L 101.481783 259.791314 
L 101.481783 259.511723 
L 102.084955 259.511723 
L 102.084955 256.715812 
L 103.231288 256.715812 
L 103.231288 255.317856 
L 103.777005 255.317856 
L 103.777005 255.038265 
L 104.305927 255.038265 
L 104.305927 253.780105 
L 104.819059 253.780105 
L 104.819059 253.220923 
L 105.801534 253.220923 
L 105.801534 252.801536 
L 108.451173 252.801536 
L 108.451173 251.403581 
L 108.85563 251.403581 
L 108.85563 250.145421 
L 109.250788 250.145421 
L 109.250788 249.586238 
L 110.014853 249.586238 
L 110.014853 248.467874 
L 110.384516 248.467874 
L 110.384516 248.188283 
L 110.746395 248.188283 
L 110.746395 248.048487 
L 111.100812 248.048487 
L 111.100812 247.629101 
L 112.122219 247.629101 
L 112.122219 247.209714 
L 113.396034 247.209714 
L 113.396034 246.930123 
L 113.700266 246.930123 
L 113.700266 246.510736 
L 114.581927 246.510736 
L 114.581927 245.392372 
L 114.866043 245.392372 
L 114.866043 244.274007 
L 115.691256 244.274007 
L 115.691256 244.134212 
L 116.220179 244.134212 
L 116.220179 243.295438 
L 116.73331 243.295438 
L 116.73331 243.155643 
L 116.984244 243.155643 
L 116.984244 241.757687 
L 117.231566 241.757687 
L 117.231566 241.3383 
L 117.475381 241.3383 
L 117.475381 240.639323 
L 118.417459 240.639323 
L 118.417459 240.359732 
L 118.645127 240.359732 
L 118.645127 240.219936 
L 119.09161 240.219936 
L 119.09161 240.08014 
L 119.526788 240.08014 
L 119.526788 239.940345 
L 120.568842 239.940345 
L 120.568842 238.961776 
L 120.769881 238.961776 
L 120.769881 238.82198 
L 121.929105 238.82198 
L 121.929105 237.703616 
L 122.480659 237.703616 
L 122.480659 237.144434 
L 123.015063 237.144434 
L 123.015063 236.864843 
L 123.189569 236.864843 
L 123.189569 236.585251 
L 123.7027 236.585251 
L 123.7027 235.606682 
L 123.870396 235.606682 
L 123.870396 235.327091 
L 124.52528 235.327091 
L 124.52528 235.187296 
L 125.000572 235.187296 
L 125.000572 235.0475 
L 125.156126 235.0475 
L 125.156126 234.767909 
L 126.207287 234.767909 
L 126.207287 234.628114 
L 126.352339 234.628114 
L 126.352339 234.348522 
L 127.334814 234.348522 
L 127.334814 234.068931 
L 129.268157 234.068931 
L 129.268157 233.929136 
L 131.224827 233.929136 
L 131.333273 233.509749 
L 131.969962 233.509749 
L 132.073821 232.810771 
L 132.684132 232.810771 
L 132.684132 232.53118 
L 134.213018 232.53118 
L 134.213018 231.971998 
L 135.447604 231.971998 
L 135.532486 231.552611 
L 135.867885 231.552611 
L 135.950722 230.853633 
L 136.278134 230.853633 
L 136.278134 230.574042 
L 136.519665 230.574042 
L 136.519665 230.434247 
L 136.67882 230.434247 
L 136.757848 229.875064 
L 137.301101 229.875064 
L 137.301101 228.896496 
L 137.603992 228.896496 
L 137.603992 228.7567 
L 137.753459 228.7567 
L 137.753459 228.337313 
L 138.121538 228.337313 
L 138.121538 228.197518 
L 138.33866 228.197518 
L 138.410429 227.778131 
L 138.553074 227.778131 
L 138.623956 226.380175 
L 138.694545 226.380175 
L 138.694545 226.24038 
L 139.786254 226.24038 
L 139.786254 226.100584 
L 140.178407 226.100584 
L 140.178407 225.960789 
L 140.561812 225.960789 
L 140.561812 225.681198 
L 142.754037 225.681198 
L 142.754037 225.401607 
L 142.975116 225.401607 
L 142.975116 225.261811 
L 143.139078 225.261811 
L 143.139078 224.842424 
L 143.674593 224.842424 
L 143.674593 224.562833 
L 144.648278 224.562833 
L 144.648278 224.283242 
L 144.84642 224.283242 
L 144.84642 223.164878 
L 145.139415 223.164878 
L 145.139415 223.025082 
L 145.569751 223.025082 
L 145.569751 222.326104 
L 145.989576 222.326104 
L 146.035596 221.906718 
L 146.309161 221.906718 
L 146.309161 221.347535 
L 146.622913 221.347535 
L 146.622913 220.928149 
L 146.843566 220.928149 
L 146.843566 220.788353 
L 147.446737 220.788353 
L 147.446737 220.648558 
L 147.782136 220.648558 
L 147.823604 218.971011 
L 147.947413 218.971011 
L 148.029459 218.411829 
L 148.313575 218.411829 
L 148.313575 217.43326 
L 148.789965 217.43326 
L 148.789965 217.013873 
L 148.945872 217.013873 
L 149.023298 215.895508 
L 149.443019 215.895508 
L 149.480672 214.91694 
L 149.630465 214.91694 
L 149.630465 214.777144 
L 149.852735 214.777144 
L 149.852735 214.497553 
L 150.608797 214.497553 
L 150.608797 213.938371 
L 150.853603 213.938371 
L 150.853603 213.798575 
L 151.094972 213.798575 
L 151.094972 213.518984 
L 151.366735 213.518984 
L 151.366735 213.099597 
L 151.501022 213.099597 
L 151.501022 212.820006 
L 151.832219 212.820006 
L 151.930347 212.260824 
L 151.995456 212.260824 
L 152.060318 210.723073 
L 152.189314 210.723073 
L 152.189314 210.443482 
L 152.476064 210.443482 
L 152.476064 209.604708 
L 152.726997 209.604708 
L 152.758108 209.325117 
L 152.88199 209.325117 
L 152.943598 208.066957 
L 153.248369 208.066957 
L 153.248369 207.787366 
L 153.398752 207.787366 
L 153.458539 207.228184 
L 153.636661 207.228184 
L 153.666169 206.529206 
L 153.90043 206.529206 
L 153.90043 206.38941 
L 154.074054 206.38941 
L 154.074054 206.249615 
L 154.274423 206.249615 
L 154.359586 204.711864 
L 154.696079 204.711864 
L 154.696079 204.572068 
L 154.834363 204.572068 
L 154.944195 204.012886 
L 154.998849 204.012886 
L 155.080505 203.453704 
L 155.746298 203.453704 
L 155.746298 203.174112 
L 156.210188 203.174112 
L 156.210188 203.034317 
L 156.5376 203.034317 
L 156.5376 202.894521 
L 156.760671 202.894521 
L 156.858892 202.195544 
L 156.88336 202.195544 
L 156.88336 202.055748 
L 157.198312 202.055748 
L 157.222302 201.077179 
L 157.365541 201.077179 
L 157.365541 200.937384 
L 157.507597 200.937384 
L 157.554689 200.517997 
L 157.718503 200.517997 
L 157.765022 199.958815 
L 158.155428 199.958815 
L 158.200781 198.141472 
L 158.358579 198.141472 
L 158.358579 195.205766 
L 158.514942 195.205766 
L 158.603658 193.80781 
L 158.888862 193.80781 
L 158.888862 193.668014 
L 159.062048 193.668014 
L 159.147992 191.990468 
L 159.25482 191.990468 
L 159.25482 191.571081 
L 159.445454 191.571081 
L 159.445454 191.011899 
L 159.613149 191.011899 
L 159.613149 190.03333 
L 159.737856 190.03333 
L 159.820493 188.77517 
L 159.861664 188.77517 
L 159.96416 188.076192 
L 160.106637 188.076192 
L 160.187524 187.656805 
L 160.427929 187.656805 
L 160.527113 186.398645 
L 160.665017 186.398645 
L 160.665017 184.721099 
L 160.821278 184.721099 
L 160.821278 184.581303 
L 160.995391 184.581303 
L 160.995391 183.882325 
L 161.262775 183.882325 
L 161.281716 183.462939 
L 161.432494 183.462939 
L 161.526063 183.183347 
L 161.581961 183.183347 
L 161.581961 182.48437 
L 161.693215 182.48437 
L 161.803753 182.204778 
L 162.077028 182.204778 
L 162.167163 179.688458 
L 162.505428 179.688458 
L 162.505428 179.548663 
L 162.715689 179.548663 
L 162.767854 178.570094 
L 162.957786 178.570094 
L 163.026335 175.494592 
L 163.077568 175.494592 
L 163.179578 174.516023 
L 163.431985 174.516023 
L 163.531919 173.677249 
L 163.713637 173.677249 
L 163.713637 170.601747 
L 164.103566 170.601747 
L 164.103566 170.322156 
L 164.421883 170.322156 
L 164.421883 170.18236 
L 164.610081 170.18236 
L 164.610081 170.042565 
L 164.734412 170.042565 
L 164.827073 166.547676 
L 164.873217 166.547676 
L 164.94985 165.708902 
L 164.995666 165.708902 
L 165.01091 165.289516 
L 165.192802 165.289516 
L 165.192802 164.310947 
L 165.491743 164.310947 
L 165.58042 163.751765 
L 165.668643 163.751765 
L 165.712585 159.278307 
L 165.901712 159.278307 
L 165.945063 156.901782 
L 166.117382 156.901782 
L 166.131664 153.546689 
L 166.273837 153.546689 
L 166.28799 153.267097 
L 166.428881 153.267097 
L 166.470924 151.869142 
L 166.61033 151.869142 
L 166.61033 151.449755 
L 166.762382 151.449755 
L 166.762382 151.30996 
L 166.899453 151.30996 
L 166.967581 148.374253 
L 167.634407 148.374253 
L 167.647483 147.675275 
L 167.945522 147.675275 
L 167.945522 147.116093 
L 168.263721 147.116093 
L 168.364314 143.341613 
L 168.401884 143.341613 
L 168.489231 141.803862 
L 168.576137 141.803862 
L 168.687231 140.825293 
L 168.748641 140.825293 
L 168.846443 139.986519 
L 168.870806 139.986519 
L 168.980018 139.147746 
L 169.148535 139.147746 
L 169.256002 138.728359 
L 169.44541 138.728359 
L 169.457179 138.448768 
L 169.562739 138.448768 
L 169.644396 136.631426 
L 169.725666 136.631426 
L 169.737245 136.072244 
L 169.921451 136.072244 
L 170.001425 134.394697 
L 170.035586 134.394697 
L 170.103705 132.157968 
L 170.148968 132.157968 
L 170.227893 131.179399 
L 170.261607 131.179399 
L 170.35119 130.760012 
L 170.462515 130.760012 
L 170.462515 130.480421 
L 170.606169 130.480421 
L 170.704923 130.061035 
L 170.726792 130.061035 
L 170.781341 127.404919 
L 170.911559 127.404919 
L 170.997826 126.845737 
L 171.137092 126.845737 
L 171.243458 126.42635 
L 171.264652 126.42635 
L 171.27524 126.146759 
L 171.391273 126.146759 
L 171.391273 125.867168 
L 171.537827 125.867168 
L 171.537827 125.727372 
L 171.765632 125.727372 
L 171.837486 125.447781 
L 171.939617 125.447781 
L 171.939617 125.028394 
L 172.061379 125.028394 
L 172.172241 124.049825 
L 172.182285 124.049825 
L 172.292372 123.350848 
L 172.312313 123.350848 
L 172.322274 122.791665 
L 172.461133 122.791665 
L 172.559635 122.232483 
L 172.608676 122.232483 
L 172.716074 121.114119 
L 172.784071 121.114119 
L 172.871103 119.576367 
L 172.96729 119.576367 
L 173.072478 117.339639 
L 173.091534 117.339639 
L 173.195967 115.382501 
L 173.243227 115.382501 
L 173.280942 114.403932 
L 173.37487 114.403932 
L 173.393594 113.704954 
L 173.551929 113.704954 
L 173.570462 113.005976 
L 173.672033 113.005976 
L 173.745528 111.747816 
L 173.891582 111.747816 
L 173.909752 111.468225 
L 174.018369 111.468225 
L 174.108362 110.769247 
L 174.171078 110.769247 
L 174.242475 109.790678 
L 174.322443 109.790678 
L 174.410862 108.812109 
L 174.472486 108.812109 
L 174.542643 107.83354 
L 174.682106 107.83354 
L 174.682106 107.553949 
L 174.880621 107.553949 
L 174.957681 106.435585 
L 175.051398 106.435585 
L 175.076869 105.736607 
L 175.186809 105.736607 
L 175.186809 105.177425 
L 175.346236 105.177425 
L 175.454472 104.897834 
L 175.487639 104.897834 
L 175.553781 103.779469 
L 175.611447 103.779469 
L 175.611447 103.639674 
L 175.742534 103.639674 
L 175.783294 103.080491 
L 176.041896 103.080491 
L 176.041896 102.661105 
L 176.161789 102.661105 
L 176.265025 101.962127 
L 176.27294 101.962127 
L 176.27294 101.822331 
L 176.430491 101.822331 
L 176.430491 101.263149 
L 176.58661 101.263149 
L 176.58661 101.123354 
L 176.779786 101.123354 
L 176.887024 99.865193 
L 176.970815 99.865193 
L 177.069318 98.886625 
L 177.084422 98.886625 
L 177.17477 97.209078 
L 177.227254 97.209078 
L 177.287041 95.671327 
L 177.361483 95.671327 
L 177.435604 94.552962 
L 177.553537 94.552962 
L 177.656068 93.714189 
L 177.670666 93.714189 
L 177.670666 93.574393 
L 177.866529 93.574393 
L 177.94569 92.176438 
L 178.003033 92.176438 
L 178.074444 91.617255 
L 178.14556 91.617255 
L 178.14556 91.47746 
L 178.272831 91.47746 
L 178.272831 91.197869 
L 178.413147 91.197869 
L 178.461989 90.2193 
L 178.524581 90.2193 
L 178.607685 89.520322 
L 178.717869 89.520322 
L 178.813704 88.122366 
L 178.840988 88.122366 
L 178.915795 87.423389 
L 178.96323 87.423389 
L 179.06444 85.18666 
L 179.118175 85.18666 
L 179.171743 83.788704 
L 179.245128 83.788704 
L 179.245128 83.369317 
L 179.410755 83.369317 
L 179.437107 82.390748 
L 179.685465 82.390748 
L 179.75023 82.111157 
L 179.814752 82.111157 
L 179.904677 81.691771 
L 179.981384 81.691771 
L 179.981384 81.41218 
L 180.10214 81.41218 
L 180.127455 80.014224 
L 180.247193 80.014224 
L 180.341137 78.336677 
L 180.366102 78.336677 
L 180.453197 77.078517 
L 180.508954 77.078517 
L 180.527499 76.65913 
L 180.626072 76.65913 
L 180.717974 74.701993 
L 180.791143 74.701993 
L 180.845816 73.583628 
L 180.930519 73.583628 
L 181.032815 71.62649 
L 181.056796 71.62649 
L 181.07476 70.787717 
L 181.217801 70.787717 
L 181.324306 70.228535 
L 181.353774 70.228535 
L 181.430155 69.389761 
L 181.465293 69.389761 
L 181.57028 67.712215 
L 181.587716 67.712215 
L 181.628331 67.292828 
L 181.703504 67.292828 
L 181.812784 66.314259 
L 181.864307 66.314259 
L 181.955524 65.33569 
L 182.000952 65.33569 
L 182.085806 64.217326 
L 182.209506 64.217326 
L 182.287764 63.518348 
L 182.393403 63.518348 
L 182.47083 63.238757 
L 182.580837 63.238757 
L 182.673793 61.840801 
L 182.760825 61.840801 
L 182.787932 60.442846 
L 182.92283 60.442846 
L 182.92283 60.163254 
L 183.056678 60.163254 
L 183.109926 59.04489 
L 183.194782 59.04489 
L 183.284485 56.109183 
L 183.399881 56.109183 
L 183.452078 55.27041 
L 183.530079 55.27041 
L 183.530079 54.990819 
L 183.654147 54.990819 
L 183.736365 54.01225 
L 183.823293 54.01225 
L 183.823293 53.453068 
L 184.091515 53.453068 
L 184.161673 51.076543 
L 184.216596 51.076543 
L 184.261404 50.23777 
L 184.459147 50.23777 
L 184.547395 49.538792 
L 184.654641 49.538792 
L 184.746728 48.001041 
L 184.794997 48.001041 
L 184.905504 45.205129 
L 184.938996 45.205129 
L 185.048585 44.366356 
L 185.053333 44.366356 
L 185.129138 43.807174 
L 185.199902 43.807174 
L 185.251611 42.129627 
L 185.321874 42.129627 
L 185.321874 41.989832 
L 185.452268 41.989832 
L 185.558643 40.731672 
L 185.668944 40.731672 
L 185.764881 39.473511 
L 185.783094 39.473511 
L 185.89197 38.634738 
L 185.910049 38.634738 
L 185.968674 35.000054 
L 186.058479 35.000054 
L 186.07191 34.580667 
L 186.17008 34.580667 
L 186.258841 33.741894 
L 186.474389 33.741894 
L 186.58333 31.64496 
L 186.626714 31.64496 
L 186.717465 30.247005 
L 186.871932 30.247005 
L 186.871932 30.107209 
L 187.050406 30.107209 
L 187.147363 28.289867 
L 187.218676 28.289867 
L 187.327175 26.332729 
L 187.364573 26.332729 
L 187.364573 25.913342 
L 187.521586 25.913342 
L 187.628195 24.655182 
L 187.636368 24.655182 
L 187.636368 24.375591 
L 187.831373 24.375591 
L 187.89991 23.257226 
L 187.988201 23.257226 
L 188.04814 22.138862 
L 188.135675 22.138862 
L 188.210916 21.160293 
L 188.395636 21.160293 
L 188.469751 20.32152 
L 188.528037 20.32152 
L 188.597721 19.342951 
L 188.64402 19.342951 
L 188.701719 18.643973 
L 188.92681 18.643973 
L 189.017535 18.084791 
L 189.089021 18.084791 
L 189.19383 17.246017 
L 189.416292 17.246017 
L 189.504476 16.407244 
L 189.639548 16.407244 
L 189.639548 15.987857 
L 189.755516 15.987857 
L 189.78078 15.708266 
L 189.928015 15.708266 
L 190.017177 14.869493 
L 190.066906 14.869493 
L 190.066906 14.589902 
L 190.274914 14.589902 
L 190.369271 13.890924 
L 190.456179 13.890924 
L 190.456179 13.611333 
L 190.590884 13.611333 
L 190.590884 13.331742 
L 190.704047 13.331742 
L 190.796083 12.912355 
L 190.830046 12.912355 
L 190.830046 12.772559 
L 190.961864 12.772559 
L 190.982054 12.353173 
L 191.456368 12.353173 
L 191.531449 11.654195 
L 191.580239 11.654195 
L 191.580239 11.374604 
L 191.987868 11.374604 
L 192.098528 10.955217 
L 192.123722 10.955217 
L 192.123722 10.675626 
L 192.314622 10.675626 
L 192.386054 10.116444 
L 192.73579 10.116444 
L 192.73579 9.976648 
L 193.61487 9.976648 
L 193.61487 9.697057 
L 333.168 9.697057 
L 333.168 9.697057 
" style="fill:none;stroke:#000080;stroke-linecap:square;stroke-width:1.5;"/>
   </g>
   <g id="line2d_44">
    <defs>
     <path d="M 0 6 
C 1.591219 6 3.117479 5.367802 4.242641 4.242641 
C 5.367802 3.117479 6 1.591219 6 0 
C 6 -1.591219 5.367802 -3.117479 4.242641 -4.242641 
C 3.117479 -5.367802 1.591219 -6 0 -6 
C -1.591219 -6 -3.117479 -5.367802 -4.242641 -4.242641 
C -5.367802 -3.117479 -6 -1.591219 -6 0 
C -6 1.591219 -5.367802 3.117479 -4.242641 4.242641 
C -3.117479 5.367802 -1.591219 6 0 6 
z
" id="ma7ac4f9583" style="stroke:#000080;stroke-width:1.5;"/>
    </defs>
    <g>
     <use style="fill-opacity:0;stroke:#000080;stroke-width:1.5;" x="94.816624" xlink:href="#ma7ac4f9583" y="263.565795"/>
     <use style="fill-opacity:0;stroke:#000080;stroke-width:1.5;" x="151.995456" xlink:href="#ma7ac4f9583" y="212.260824"/>
     <use style="fill-opacity:0;stroke:#000080;stroke-width:1.5;" x="187.054633" xlink:href="#ma7ac4f9583" y="29.827618"/>
     <use style="fill-opacity:0;stroke:#000080;stroke-width:1.5;" x="193.61487" xlink:href="#ma7ac4f9583" y="9.697057"/>
     <use style="fill-opacity:0;stroke:#000080;stroke-width:1.5;" x="193.61487" xlink:href="#ma7ac4f9583" y="9.697057"/>
     <use style="fill-opacity:0;stroke:#000080;stroke-width:1.5;" x="333.168" xlink:href="#ma7ac4f9583" y="9.697057"/>
    </g>
   </g>
   <g id="line2d_45">
    <path style="fill:none;stroke:#000080;stroke-linecap:square;stroke-width:1.5;"/>
    <g/>
   </g>
   <g id="line2d_46">
    <defs>
     <path d="M 0 1.5 
C 0.397805 1.5 0.77937 1.341951 1.06066 1.06066 
C 1.341951 0.77937 1.5 0.397805 1.5 0 
C 1.5 -0.397805 1.341951 -0.77937 1.06066 -1.06066 
C 0.77937 -1.341951 0.397805 -1.5 0 -1.5 
C -0.397805 -1.5 -0.77937 -1.341951 -1.06066 -1.06066 
C -1.341951 -0.77937 -1.5 -0.397805 -1.5 0 
C -1.5 0.397805 -1.341951 0.77937 -1.06066 1.06066 
C -0.77937 1.341951 -0.397805 1.5 0 1.5 
z
" id="mf6ee6927ca" style="stroke:#ff00ff;"/>
    </defs>
    <g>
     <use style="fill:#ff00ff;stroke:#ff00ff;" x="188.293696" xlink:href="#mf6ee6927ca" y="9.697057"/>
     <use style="fill:#ff00ff;stroke:#ff00ff;" x="188.293696" xlink:href="#mf6ee6927ca" y="9.697057"/>
    </g>
   </g>
   <g id="line2d_47">
    <path d="M 44.205749 294.88 
L 44.205749 278.104533 
L 56.12 278.104533 
L 56.12 275.02903 
L 63.08939 275.02903 
L 63.08939 273.77087 
L 68.034251 273.77087 
L 68.034251 272.51271 
L 71.869783 272.51271 
L 71.869783 270.974959 
L 75.003641 270.974959 
L 75.003641 270.835164 
L 77.653281 270.835164 
L 77.653281 269.716799 
L 79.948502 269.716799 
L 79.948502 268.318844 
L 81.973032 268.318844 
L 81.973032 267.899457 
L 83.784035 267.899457 
L 83.784035 267.759661 
L 85.422286 267.759661 
L 85.422286 266.920888 
L 86.917893 266.920888 
L 86.917893 266.641297 
L 88.293717 266.641297 
L 88.293717 266.082115 
L 89.567532 266.082115 
L 89.567532 264.124977 
L 90.753425 264.124977 
L 90.753425 263.70559 
L 91.862754 263.70559 
L 91.862754 263.006612 
L 92.904808 263.006612 
L 92.904808 262.44743 
L 93.887283 262.44743 
L 93.887283 261.748452 
L 94.816624 261.748452 
L 94.816624 261.18927 
L 95.698286 261.18927 
L 95.698286 260.630088 
L 97.336537 260.630088 
L 97.336537 260.350497 
L 98.832144 260.350497 
L 98.832144 259.93111 
L 99.533818 259.93111 
L 99.533818 259.791314 
L 100.856673 259.791314 
L 100.856673 258.952541 
L 102.084955 258.952541 
L 102.084955 258.113768 
L 102.667676 258.113768 
L 102.667676 257.834177 
L 103.231288 257.834177 
L 103.231288 257.274994 
L 103.777005 257.274994 
L 103.777005 256.15663 
L 104.305927 256.15663 
L 104.305927 255.877039 
L 105.801534 255.877039 
L 105.801534 255.317856 
L 106.272485 255.317856 
L 106.272485 254.758674 
L 106.730875 254.758674 
L 106.730875 252.941332 
L 108.036969 252.941332 
L 108.036969 252.661741 
L 108.451173 252.661741 
L 108.451173 252.38215 
L 109.250788 252.38215 
L 109.250788 252.102559 
L 109.637066 252.102559 
L 109.637066 251.543376 
L 111.100812 251.543376 
L 111.100812 250.984194 
L 111.448069 250.984194 
L 111.448069 250.145421 
L 113.086321 250.145421 
L 113.086321 249.166852 
L 113.700266 249.166852 
L 113.700266 248.747465 
L 114.866043 248.747465 
L 114.866043 248.328078 
L 115.145539 248.328078 
L 115.145539 248.188283 
L 115.691256 248.188283 
L 115.691256 247.768896 
L 116.220179 247.768896 
L 116.220179 246.790327 
L 116.984244 246.790327 
L 116.984244 246.510736 
L 117.715785 246.510736 
L 117.715785 246.231145 
L 118.186736 246.231145 
L 118.186736 245.951554 
L 118.645127 245.951554 
L 118.645127 245.252576 
L 118.869818 245.252576 
L 118.869818 243.155643 
L 119.310576 243.155643 
L 119.310576 242.177074 
L 119.526788 242.177074 
L 119.526788 241.897483 
L 120.15957 241.897483 
L 120.15957 241.478096 
L 120.365424 241.478096 
L 120.365424 240.918914 
L 120.568842 240.918914 
L 120.568842 240.639323 
L 121.551317 240.639323 
L 121.551317 240.499527 
L 124.52528 240.499527 
L 124.52528 240.359732 
L 125.310285 240.359732 
L 125.310285 240.08014 
L 127.739271 240.08014 
L 127.739271 238.542389 
L 128.003717 238.542389 
L 128.003717 238.123003 
L 128.773486 238.123003 
L 128.773486 237.843411 
L 128.898495 237.843411 
L 128.898495 236.725047 
L 129.389632 236.725047 
L 129.389632 236.585251 
L 129.630036 236.585251 
L 129.630036 236.445456 
L 129.867125 236.445456 
L 129.867125 236.026069 
L 130.100987 236.026069 
L 130.100987 235.606682 
L 130.33171 235.606682 
L 130.33171 234.907705 
L 130.784069 234.907705 
L 130.784069 234.488318 
L 131.333273 234.488318 
L 131.333273 234.208727 
L 132.177056 234.208727 
L 132.177056 233.78934 
L 132.583907 233.78934 
L 132.583907 233.649545 
L 132.783777 233.649545 
L 132.783777 233.509749 
L 133.843356 233.509749 
L 133.843356 232.950567 
L 134.121345 232.950567 
L 134.213018 232.53118 
L 134.841393 232.53118 
L 134.841393 232.391385 
L 135.10382 232.391385 
L 135.10382 232.251589 
L 135.701004 232.251589 
L 135.701004 232.111793 
L 135.867885 232.111793 
L 135.867885 231.832202 
L 136.196864 231.832202 
L 136.196864 231.552611 
L 136.359022 231.552611 
L 136.359022 231.412816 
L 136.519665 231.412816 
L 136.599426 230.713838 
L 136.67882 230.713838 
L 136.67882 230.574042 
L 137.070377 230.574042 
L 137.14763 229.875064 
L 137.678888 229.875064 
L 137.678888 229.315882 
L 138.4819 229.315882 
L 138.4819 228.896496 
L 138.764847 228.896496 
L 138.834862 227.079153 
L 139.112104 227.079153 
L 139.112104 226.939358 
L 139.586771 226.939358 
L 139.586771 226.659767 
L 139.786254 226.659767 
L 139.786254 226.519971 
L 139.983449 226.519971 
L 139.983449 226.380175 
L 140.242905 226.380175 
L 140.242905 225.960789 
L 141.060069 225.960789 
L 141.060069 225.681198 
L 141.243253 225.681198 
L 141.243253 225.541402 
L 141.424506 225.541402 
L 141.424506 225.401607 
L 141.898705 225.401607 
L 141.898705 224.702629 
L 142.473629 224.702629 
L 142.530078 224.283242 
L 142.586342 224.283242 
L 142.586342 223.444469 
L 142.754037 223.444469 
L 142.754037 222.605695 
L 143.029944 222.605695 
L 143.029944 222.186309 
L 143.247524 222.186309 
L 143.301492 221.627126 
L 143.515683 221.627126 
L 143.515683 221.487331 
L 143.779723 221.487331 
L 143.884213 220.788353 
L 144.498158 220.788353 
L 144.548344 220.368966 
L 144.747635 220.368966 
L 144.747635 220.089375 
L 145.663936 220.089375 
L 145.757607 219.669989 
L 145.989576 219.669989 
L 145.989576 219.110806 
L 146.263868 219.110806 
L 146.263868 218.831215 
L 146.444328 218.831215 
L 146.444328 218.132237 
L 146.799661 218.132237 
L 146.799661 217.852646 
L 147.233741 217.852646 
L 147.233741 217.712851 
L 147.361855 217.712851 
L 147.446737 217.013873 
L 147.615255 217.013873 
L 147.615255 215.755713 
L 147.782136 215.755713 
L 147.782136 215.476122 
L 148.273273 215.476122 
L 148.273273 215.336326 
L 148.473843 215.336326 
L 148.473843 215.056735 
L 148.672099 215.056735 
L 148.711478 213.65878 
L 149.100377 213.65878 
L 149.100377 213.099597 
L 149.926191 213.099597 
L 149.962801 212.540415 
L 150.784014 212.540415 
L 150.853603 211.981233 
L 150.957462 211.981233 
L 150.957462 211.561846 
L 151.129178 211.561846 
L 151.129178 211.282255 
L 151.299196 211.282255 
L 151.400405 210.862868 
L 151.434009 210.862868 
L 151.434009 210.723073 
L 151.601053 210.723073 
L 151.634268 210.443482 
L 151.733528 210.443482 
L 151.733528 208.626139 
L 151.995456 208.626139 
L 151.995456 208.486344 
L 152.189314 208.486344 
L 152.28543 207.787366 
L 152.317349 207.787366 
L 152.34921 206.669002 
L 152.601988 206.669002 
L 152.69583 205.970024 
L 152.851103 205.970024 
L 152.943598 205.410841 
L 152.97432 205.410841 
L 153.066156 205.13125 
L 153.278551 205.13125 
L 153.36878 204.152681 
L 153.398752 204.152681 
L 153.398752 204.012886 
L 153.636661 204.012886 
L 153.636661 203.593499 
L 154.188837 203.593499 
L 154.188837 202.894521 
L 154.302858 202.894521 
L 154.302858 201.35677 
L 154.751526 201.35677 
L 154.861887 201.077179 
L 154.971544 201.077179 
L 155.026111 200.657792 
L 155.107638 200.657792 
L 155.107638 200.238406 
L 155.323172 200.238406 
L 155.429934 199.819019 
L 155.456522 199.819019 
L 155.509573 199.259837 
L 155.746298 199.259837 
L 155.850472 197.722086 
L 155.92819 197.722086 
L 156.031271 197.302699 
L 156.056945 197.302699 
L 156.159258 196.603721 
L 156.184742 196.603721 
L 156.235596 196.184334 
L 156.336855 196.184334 
L 156.412409 195.485357 
L 156.462595 195.485357 
L 156.512635 194.786379 
L 156.587422 194.786379 
L 156.686635 194.366992 
L 156.760671 194.366992 
L 156.785279 194.087401 
L 156.88336 194.087401 
L 156.932191 192.969037 
L 157.294071 192.969037 
L 157.341751 192.130263 
L 157.601653 192.130263 
L 157.695196 191.571081 
L 157.765022 191.571081 
L 157.857683 189.334352 
L 157.949847 189.334352 
L 157.972811 189.054761 
L 158.4034 189.054761 
L 158.448103 188.215988 
L 158.735879 188.215988 
L 158.735879 187.936396 
L 159.062048 187.936396 
L 159.062048 187.656805 
L 159.233507 187.656805 
L 159.297366 186.119054 
L 159.382144 186.119054 
L 159.382144 185.559872 
L 159.529506 185.559872 
L 159.529506 184.161916 
L 159.717134 184.161916 
L 159.717134 183.183347 
L 159.861664 183.183347 
L 159.882212 180.667027 
L 160.004989 180.667027 
L 160.066049 177.311934 
L 160.247941 177.311934 
L 160.247941 176.892547 
L 160.58635 176.892547 
L 160.606051 176.053774 
L 160.956851 176.053774 
L 160.976132 175.494592 
L 161.224831 175.494592 
L 161.300635 174.795614 
L 161.544716 174.795614 
L 161.544716 174.236432 
L 161.674723 174.236432 
L 161.674723 173.817045 
L 161.840442 173.817045 
L 161.931822 170.461951 
L 162.004579 170.461951 
L 162.095093 167.246654 
L 162.310402 167.246654 
L 162.346026 166.687471 
L 162.452458 166.687471 
L 162.487789 166.128289 
L 162.663364 166.128289 
L 162.767854 163.751765 
L 162.785208 163.751765 
L 162.854447 160.536467 
L 163.077568 160.536467 
L 163.094612 157.60076 
L 163.264126 157.60076 
L 163.264126 157.460964 
L 163.431985 157.460964 
L 163.482025 157.181373 
L 163.581669 157.181373 
L 163.614756 156.482395 
L 163.697196 156.482395 
L 163.795604 154.525258 
L 163.990747 154.525258 
L 163.990747 154.105871 
L 164.183699 154.105871 
L 164.183699 153.966075 
L 164.437645 153.966075 
L 164.531915 151.589551 
L 164.563224 151.589551 
L 164.610081 150.890573 
L 164.687893 150.890573 
L 164.765354 148.374253 
L 165.026142 148.374253 
L 165.132385 146.836502 
L 165.192802 146.836502 
L 165.237976 145.997728 
L 165.357863 145.997728 
L 165.432369 145.578342 
L 165.609878 145.578342 
L 165.609878 145.019159 
L 165.727207 145.019159 
L 165.829217 144.180386 
L 165.843741 144.180386 
L 165.843741 144.040591 
L 166.031439 144.040591 
L 166.131664 142.502839 
L 166.17444 142.502839 
L 166.273837 140.825293 
L 166.372663 140.825293 
L 166.470924 140.26611 
L 166.554703 140.26611 
L 166.638076 139.846724 
L 166.734836 139.846724 
L 166.734836 138.308973 
L 166.899453 138.308973 
L 166.899453 138.169177 
L 167.197216 138.169177 
L 167.290887 135.23347 
L 167.357484 135.23347 
L 167.450289 134.115106 
L 167.476712 134.115106 
L 167.568877 129.781443 
L 167.634407 129.781443 
L 167.738739 129.362057 
L 167.764723 129.362057 
L 167.86827 127.68451 
L 167.91981 127.68451 
L 168.009635 126.985532 
L 168.07351 126.985532 
L 168.149847 126.566145 
L 168.187889 126.566145 
L 168.187889 126.42635 
L 168.38937 126.42635 
L 168.489231 125.447781 
L 168.514106 125.447781 
L 168.600887 124.049825 
L 168.662605 124.049825 
L 168.760896 122.931461 
L 168.822044 122.931461 
L 168.931565 121.533505 
L 168.943691 121.533505 
L 169.052442 119.995754 
L 169.076516 119.995754 
L 169.160509 119.156981 
L 169.244094 119.156981 
L 169.315417 118.87739 
L 169.374626 118.87739 
L 169.410055 118.178412 
L 169.574428 118.178412 
L 169.667655 116.920252 
L 169.714079 116.920252 
L 169.714079 116.780456 
L 169.921451 116.780456 
L 170.024207 114.683523 
L 170.261607 114.683523 
L 170.362355 114.264136 
L 170.451415 114.264136 
L 170.506844 113.285567 
L 170.584146 113.285567 
L 170.683027 112.446794 
L 170.704923 112.446794 
L 170.770445 111.188634 
L 170.911559 111.188634 
L 171.019325 110.769247 
L 171.051523 110.769247 
L 171.12642 108.812109 
L 171.222238 108.812109 
L 171.27524 107.693745 
L 171.370234 107.693745 
L 171.454235 106.715176 
L 171.755342 106.715176 
L 171.857961 105.31722 
L 171.888628 105.31722 
L 171.91924 104.338651 
L 172.041145 104.338651 
L 172.152138 103.360082 
L 172.172241 103.360082 
L 172.172241 103.080491 
L 172.401759 103.080491 
L 172.490743 101.402945 
L 172.54981 101.402945 
L 172.579268 101.123354 
L 172.696597 101.123354 
L 172.696597 100.843762 
L 173.072478 100.843762 
L 173.129583 100.004989 
L 173.205429 100.004989 
L 173.299769 99.725398 
L 173.356125 99.725398 
L 173.356125 99.585602 
L 173.486909 99.585602 
L 173.524094 99.306011 
L 173.598223 99.306011 
L 173.699631 98.047851 
L 173.782158 98.047851 
L 173.891582 97.209078 
L 173.909752 97.209078 
L 173.991279 96.230509 
L 174.090402 96.230509 
L 174.197887 95.531531 
L 174.251378 95.531531 
L 174.322443 94.273371 
L 174.568879 94.273371 
L 174.638645 92.176438 
L 174.742766 92.176438 
L 174.820445 91.058073 
L 174.949136 91.058073 
L 175.0429 89.520322 
L 175.085351 89.520322 
L 175.127698 88.681549 
L 175.203661 88.681549 
L 175.228907 88.401958 
L 175.329524 88.401958 
L 175.429555 86.724411 
L 175.529008 86.724411 
L 175.529008 86.165229 
L 175.668921 86.165229 
L 175.767001 85.326455 
L 175.85642 85.326455 
L 175.896911 84.627477 
L 176.009783 84.627477 
L 176.105943 81.551975 
L 176.145852 81.551975 
L 176.233326 80.293815 
L 176.359772 80.293815 
L 176.469654 79.734633 
L 176.547713 79.734633 
L 176.640919 78.756064 
L 176.687333 78.756064 
L 176.733622 77.358108 
L 176.825827 77.358108 
L 176.932779 77.078517 
L 176.993597 77.078517 
L 177.099513 75.40097 
L 177.17477 75.40097 
L 177.264645 74.841788 
L 177.2945 74.841788 
L 177.2945 74.562197 
L 177.420805 74.562197 
L 177.487299 74.003015 
L 177.560881 74.003015 
L 177.560881 73.863219 
L 177.750732 73.863219 
L 177.801489 73.443833 
L 178.110039 73.443833 
L 178.14556 72.045877 
L 178.237572 72.045877 
L 178.293952 70.787717 
L 178.378176 70.787717 
L 178.392173 69.948944 
L 178.552327 69.948944 
L 178.635298 68.550988 
L 178.704135 68.550988 
L 178.800046 66.873441 
L 178.997033 66.873441 
L 179.08461 65.894872 
L 179.131583 65.894872 
L 179.171743 64.636712 
L 179.285024 64.636712 
L 179.384361 64.217326 
L 179.437107 64.217326 
L 179.542117 63.238757 
L 179.548658 63.238757 
L 179.626967 60.722437 
L 179.665987 60.722437 
L 179.70492 60.163254 
L 179.872615 60.163254 
L 179.917486 59.04489 
L 180.013244 59.04489 
L 180.10214 55.27041 
L 180.152732 55.27041 
L 180.259748 54.431636 
L 180.341137 54.431636 
L 180.440782 52.75409 
L 180.583016 52.75409 
L 180.687395 51.635725 
L 180.797227 51.635725 
L 180.88822 49.259201 
L 180.912404 49.259201 
L 181.014807 48.280632 
L 181.07476 48.280632 
L 181.134506 47.441858 
L 181.188099 47.441858 
L 181.235598 45.764312 
L 181.324306 45.764312 
L 181.37143 44.785743 
L 181.436016 44.785743 
L 181.541182 43.527583 
L 181.59933 43.527583 
L 181.610936 43.108196 
L 181.71504 43.108196 
L 181.743846 42.549014 
L 181.892865 42.549014 
L 182.000952 39.892898 
L 182.029283 39.892898 
L 182.091448 38.914329 
L 182.147767 38.914329 
L 182.220708 37.93576 
L 182.371217 37.93576 
L 182.465311 36.957191 
L 182.503906 36.957191 
L 182.591799 35.838827 
L 182.619174 35.838827 
L 182.619174 35.41944 
L 182.771673 35.41944 
L 182.874388 34.440871 
L 182.906698 34.440871 
L 183.01396 33.182711 
L 183.019305 33.182711 
L 183.09929 32.343938 
L 183.131179 32.343938 
L 183.131179 32.204142 
L 183.258151 32.204142 
L 183.363248 31.085778 
L 183.373722 31.085778 
L 183.446866 29.268436 
L 183.509313 29.268436 
L 183.612891 28.289867 
L 183.633531 28.289867 
L 183.731238 27.730684 
L 183.833491 27.730684 
L 183.914857 26.752115 
L 183.99584 26.752115 
L 184.046262 25.773547 
L 184.13164 25.773547 
L 184.211611 25.214364 
L 184.306095 25.214364 
L 184.404994 23.956204 
L 184.439475 23.956204 
L 184.542504 23.117431 
L 184.552284 23.117431 
L 184.644919 21.020498 
L 184.693475 21.020498 
L 184.799816 19.622542 
L 184.871947 19.622542 
L 184.967652 17.944995 
L 185.001023 17.944995 
L 185.062827 17.385813 
L 185.11495 17.385813 
L 185.195194 16.966426 
L 185.232826 16.966426 
L 185.335893 15.987857 
L 185.503225 15.987857 
L 185.503225 15.848062 
L 185.673525 15.848062 
L 185.755767 15.009288 
L 185.787644 15.009288 
L 185.787644 14.869493 
L 185.901011 14.869493 
L 185.986673 13.471537 
L 186.031587 13.471537 
L 186.031587 13.331742 
L 186.143362 13.331742 
L 186.178977 12.492968 
L 186.342742 12.492968 
L 186.382342 12.213377 
L 186.552896 12.213377 
L 186.639708 11.374604 
L 186.695901 11.374604 
L 186.799162 10.396035 
L 187.406031 10.396035 
L 187.480405 9.976648 
L 188.293696 9.976648 
L 188.293696 9.697057 
L 333.168 9.697057 
L 333.168 9.697057 
" style="fill:none;stroke:#ff00ff;stroke-linecap:square;stroke-width:1.5;"/>
   </g>
   <g id="line2d_48">
    <defs>
     <path d="M -0 8.485281 
L 5.091169 0 
L 0 -8.485281 
L -5.091169 -0 
z
" id="m9d23cd15b0" style="stroke:#ff00ff;stroke-linejoin:miter;stroke-width:1.5;"/>
    </defs>
    <g>
     <use style="fill-opacity:0;stroke:#ff00ff;stroke-linejoin:miter;stroke-width:1.5;" x="106.730875" xlink:href="#m9d23cd15b0" y="252.941332"/>
     <use style="fill-opacity:0;stroke:#ff00ff;stroke-linejoin:miter;stroke-width:1.5;" x="165.192802" xlink:href="#m9d23cd15b0" y="146.836502"/>
     <use style="fill-opacity:0;stroke:#ff00ff;stroke-linejoin:miter;stroke-width:1.5;" x="188.293696" xlink:href="#m9d23cd15b0" y="9.976648"/>
     <use style="fill-opacity:0;stroke:#ff00ff;stroke-linejoin:miter;stroke-width:1.5;" x="188.293696" xlink:href="#m9d23cd15b0" y="9.697057"/>
     <use style="fill-opacity:0;stroke:#ff00ff;stroke-linejoin:miter;stroke-width:1.5;" x="188.293696" xlink:href="#m9d23cd15b0" y="9.697057"/>
     <use style="fill-opacity:0;stroke:#ff00ff;stroke-linejoin:miter;stroke-width:1.5;" x="333.168" xlink:href="#m9d23cd15b0" y="9.697057"/>
    </g>
   </g>
   <g id="line2d_49">
    <path style="fill:none;stroke:#ff00ff;stroke-linecap:square;stroke-width:1.5;"/>
    <g/>
   </g>
   <g id="line2d_50">
    <path d="M 333.168 9.697057 
L 363.64328 289.176341 
" style="fill:none;stroke:#000080;stroke-linecap:square;stroke-width:1.5;"/>
    <g>
     <use style="fill-opacity:0;stroke:#000080;stroke-width:1.5;" x="333.168" xlink:href="#ma7ac4f9583" y="9.697057"/>
     <use style="fill-opacity:0;stroke:#000080;stroke-width:1.5;" x="363.64328" xlink:href="#ma7ac4f9583" y="289.176341"/>
    </g>
   </g>
   <g id="line2d_51">
    <path d="M 333.168 9.697057 
L 363.64328 152.288529 
" style="fill:none;stroke:#ff00ff;stroke-linecap:square;stroke-width:1.5;"/>
    <g>
     <use style="fill-opacity:0;stroke:#ff00ff;stroke-linejoin:miter;stroke-width:1.5;" x="333.168" xlink:href="#m9d23cd15b0" y="9.697057"/>
     <use style="fill-opacity:0;stroke:#ff00ff;stroke-linejoin:miter;stroke-width:1.5;" x="363.64328" xlink:href="#m9d23cd15b0" y="152.288529"/>
    </g>
   </g>
   <g id="line2d_52">
    <path d="M 333.168 294.88 
L 333.168 9.697057 
" style="fill:none;stroke:#000000;stroke-linecap:square;stroke-width:1.5;"/>
   </g>
   <g id="patch_3">
    <path d="M 56.12 294.88 
L 56.12 6.845228 
" style="fill:none;stroke:#000000;stroke-linecap:square;stroke-linejoin:miter;stroke-width:0.8;"/>
   </g>
   <g id="patch_4">
    <path d="M 333.168 294.88 
L 333.168 6.845228 
" style="fill:none;stroke:#000000;stroke-linecap:square;stroke-linejoin:miter;stroke-width:0.8;"/>
   </g>
   <g id="patch_5">
    <path d="M 56.12 294.88 
L 333.168 294.88 
" style="fill:none;stroke:#000000;stroke-linecap:square;stroke-linejoin:miter;stroke-width:0.8;"/>
   </g>
   <g id="patch_6">
    <path d="M 56.12 6.845228 
L 333.168 6.845228 
" style="fill:none;stroke:#000000;stroke-linecap:square;stroke-linejoin:miter;stroke-width:0.8;"/>
   </g>
   <g id="text_13">
    <!-- PSO1 -->
    <defs>
     <path d="M 19.671875 64.796875 
L 19.671875 37.40625 
L 32.078125 37.40625 
Q 38.96875 37.40625 42.71875 40.96875 
Q 46.484375 44.53125 46.484375 51.125 
Q 46.484375 57.671875 42.71875 61.234375 
Q 38.96875 64.796875 32.078125 64.796875 
z
M 9.8125 72.90625 
L 32.078125 72.90625 
Q 44.34375 72.90625 50.609375 67.359375 
Q 56.890625 61.8125 56.890625 51.125 
Q 56.890625 40.328125 50.609375 34.8125 
Q 44.34375 29.296875 32.078125 29.296875 
L 19.671875 29.296875 
L 19.671875 0 
L 9.8125 0 
z
" id="DejaVuSans-50"/>
     <path d="M 53.515625 70.515625 
L 53.515625 60.890625 
Q 47.90625 63.578125 42.921875 64.890625 
Q 37.9375 66.21875 33.296875 66.21875 
Q 25.25 66.21875 20.875 63.09375 
Q 16.5 59.96875 16.5 54.203125 
Q 16.5 49.359375 19.40625 46.890625 
Q 22.3125 44.4375 30.421875 42.921875 
L 36.375 41.703125 
Q 47.40625 39.59375 52.65625 34.296875 
Q 57.90625 29 57.90625 20.125 
Q 57.90625 9.515625 50.796875 4.046875 
Q 43.703125 -1.421875 29.984375 -1.421875 
Q 24.8125 -1.421875 18.96875 -0.25 
Q 13.140625 0.921875 6.890625 3.21875 
L 6.890625 13.375 
Q 12.890625 10.015625 18.65625 8.296875 
Q 24.421875 6.59375 29.984375 6.59375 
Q 38.421875 6.59375 43.015625 9.90625 
Q 47.609375 13.234375 47.609375 19.390625 
Q 47.609375 24.75 44.3125 27.78125 
Q 41.015625 30.8125 33.5 32.328125 
L 27.484375 33.5 
Q 16.453125 35.6875 11.515625 40.375 
Q 6.59375 45.0625 6.59375 53.421875 
Q 6.59375 63.09375 13.40625 68.65625 
Q 20.21875 74.21875 32.171875 74.21875 
Q 37.3125 74.21875 42.625 73.28125 
Q 47.953125 72.359375 53.515625 70.515625 
z
" id="DejaVuSans-53"/>
     <path d="M 39.40625 66.21875 
Q 28.65625 66.21875 22.328125 58.203125 
Q 16.015625 50.203125 16.015625 36.375 
Q 16.015625 22.609375 22.328125 14.59375 
Q 28.65625 6.59375 39.40625 6.59375 
Q 50.140625 6.59375 56.421875 14.59375 
Q 62.703125 22.609375 62.703125 36.375 
Q 62.703125 50.203125 56.421875 58.203125 
Q 50.140625 66.21875 39.40625 66.21875 
z
M 39.40625 74.21875 
Q 54.734375 74.21875 63.90625 63.9375 
Q 73.09375 53.65625 73.09375 36.375 
Q 73.09375 19.140625 63.90625 8.859375 
Q 54.734375 -1.421875 39.40625 -1.421875 
Q 24.03125 -1.421875 14.8125 8.828125 
Q 5.609375 19.09375 5.609375 36.375 
Q 5.609375 53.65625 14.8125 63.9375 
Q 24.03125 74.21875 39.40625 74.21875 
z
" id="DejaVuSans-4f"/>
    </defs>
    <g transform="translate(369.18424 293.867279)scale(0.17 -0.17)">
     <use xlink:href="#DejaVuSans-50"/>
     <use x="60.302734" xlink:href="#DejaVuSans-53"/>
     <use x="123.779297" xlink:href="#DejaVuSans-4f"/>
     <use x="202.490234" xlink:href="#DejaVuSans-31"/>
    </g>
   </g>
   <g id="text_14">
    <!-- PSO2 -->
    <g transform="translate(369.18424 156.979466)scale(0.17 -0.17)">
     <use xlink:href="#DejaVuSans-50"/>
     <use x="60.302734" xlink:href="#DejaVuSans-53"/>
     <use x="123.779297" xlink:href="#DejaVuSans-4f"/>
     <use x="202.490234" xlink:href="#DejaVuSans-32"/>
    </g>
   </g>
   <g id="text_15">
    <!-- best 2009 -->
    <defs>
     <path d="M 48.6875 27.296875 
Q 48.6875 37.203125 44.609375 42.84375 
Q 40.53125 48.484375 33.40625 48.484375 
Q 26.265625 48.484375 22.1875 42.84375 
Q 18.109375 37.203125 18.109375 27.296875 
Q 18.109375 17.390625 22.1875 11.75 
Q 26.265625 6.109375 33.40625 6.109375 
Q 40.53125 6.109375 44.609375 11.75 
Q 48.6875 17.390625 48.6875 27.296875 
z
M 18.109375 46.390625 
Q 20.953125 51.265625 25.265625 53.625 
Q 29.59375 56 35.59375 56 
Q 45.5625 56 51.78125 48.09375 
Q 58.015625 40.1875 58.015625 27.296875 
Q 58.015625 14.40625 51.78125 6.484375 
Q 45.5625 -1.421875 35.59375 -1.421875 
Q 29.59375 -1.421875 25.265625 0.953125 
Q 20.953125 3.328125 18.109375 8.203125 
L 18.109375 0 
L 9.078125 0 
L 9.078125 75.984375 
L 18.109375 75.984375 
z
" id="DejaVuSans-62"/>
     <path d="M 10.984375 1.515625 
L 10.984375 10.5 
Q 14.703125 8.734375 18.5 7.8125 
Q 22.3125 6.890625 25.984375 6.890625 
Q 35.75 6.890625 40.890625 13.453125 
Q 46.046875 20.015625 46.78125 33.40625 
Q 43.953125 29.203125 39.59375 26.953125 
Q 35.25 24.703125 29.984375 24.703125 
Q 19.046875 24.703125 12.671875 31.3125 
Q 6.296875 37.9375 6.296875 49.421875 
Q 6.296875 60.640625 12.9375 67.421875 
Q 19.578125 74.21875 30.609375 74.21875 
Q 43.265625 74.21875 49.921875 64.515625 
Q 56.59375 54.828125 56.59375 36.375 
Q 56.59375 19.140625 48.40625 8.859375 
Q 40.234375 -1.421875 26.421875 -1.421875 
Q 22.703125 -1.421875 18.890625 -0.6875 
Q 15.09375 0.046875 10.984375 1.515625 
z
M 30.609375 32.421875 
Q 37.25 32.421875 41.125 36.953125 
Q 45.015625 41.5 45.015625 49.421875 
Q 45.015625 57.28125 41.125 61.84375 
Q 37.25 66.40625 30.609375 66.40625 
Q 23.96875 66.40625 20.09375 61.84375 
Q 16.21875 57.28125 16.21875 49.421875 
Q 16.21875 41.5 20.09375 36.953125 
Q 23.96875 32.421875 30.609375 32.421875 
z
" id="DejaVuSans-39"/>
    </defs>
    <g transform="translate(369.18424 20.091654)scale(0.17 -0.17)">
     <use xlink:href="#DejaVuSans-62"/>
     <use x="63.476562" xlink:href="#DejaVuSans-65"/>
     <use x="125" xlink:href="#DejaVuSans-73"/>
     <use x="177.099609" xlink:href="#DejaVuSans-74"/>
     <use x="216.308594" xlink:href="#DejaVuSans-20"/>
     <use x="248.095703" xlink:href="#DejaVuSans-32"/>
     <use x="311.71875" xlink:href="#DejaVuSans-30"/>
     <use x="375.341797" xlink:href="#DejaVuSans-30"/>
     <use x="438.964844" xlink:href="#DejaVuSans-39"/>
    </g>
   </g>
   <g id="text_16">
    <!-- bbob f6-f9, 2-D -->
    <defs>
     <path d="M 19.671875 64.796875 
L 19.671875 8.109375 
L 31.59375 8.109375 
Q 46.6875 8.109375 53.6875 14.9375 
Q 60.6875 21.78125 60.6875 36.53125 
Q 60.6875 51.171875 53.6875 57.984375 
Q 46.6875 64.796875 31.59375 64.796875 
z
M 9.8125 72.90625 
L 30.078125 72.90625 
Q 51.265625 72.90625 61.171875 64.09375 
Q 71.09375 55.28125 71.09375 36.53125 
Q 71.09375 17.671875 61.125 8.828125 
Q 51.171875 0 30.078125 0 
L 9.8125 0 
z
" id="DejaVuSans-44"/>
    </defs>
    <g transform="translate(58.89048 17.475982)scale(0.102 -0.102)">
     <use xlink:href="#DejaVuSans-62"/>
     <use x="63.476562" xlink:href="#DejaVuSans-62"/>
     <use x="126.953125" xlink:href="#DejaVuSans-6f"/>
     <use x="188.134766" xlink:href="#DejaVuSans-62"/>
     <use x="251.611328" xlink:href="#DejaVuSans-20"/>
     <use x="283.398438" xlink:href="#DejaVuSans-66"/>
     <use x="318.603516" xlink:href="#DejaVuSans-36"/>
     <use x="382.226562" xlink:href="#DejaVuSans-2d"/>
     <use x="418.310547" xlink:href="#DejaVuSans-66"/>
     <use x="453.515625" xlink:href="#DejaVuSans-39"/>
     <use x="517.138672" xlink:href="#DejaVuSans-2c"/>
     <use x="548.925781" xlink:href="#DejaVuSans-20"/>
     <use x="580.712891" xlink:href="#DejaVuSans-32"/>
     <use x="644.335938" xlink:href="#DejaVuSans-2d"/>
     <use x="680.419922" xlink:href="#DejaVuSans-44"/>
    </g>
    <!-- 51 targets: 100..1e-08 -->
    <defs>
     <path d="M 10.796875 72.90625 
L 49.515625 72.90625 
L 49.515625 64.59375 
L 19.828125 64.59375 
L 19.828125 46.734375 
Q 21.96875 47.46875 24.109375 47.828125 
Q 26.265625 48.1875 28.421875 48.1875 
Q 40.625 48.1875 47.75 41.5 
Q 54.890625 34.8125 54.890625 23.390625 
Q 54.890625 11.625 47.5625 5.09375 
Q 40.234375 -1.421875 26.90625 -1.421875 
Q 22.3125 -1.421875 17.546875 -0.640625 
Q 12.796875 0.140625 7.71875 1.703125 
L 7.71875 11.625 
Q 12.109375 9.234375 16.796875 8.0625 
Q 21.484375 6.890625 26.703125 6.890625 
Q 35.15625 6.890625 40.078125 11.328125 
Q 45.015625 15.765625 45.015625 23.390625 
Q 45.015625 31 40.078125 35.4375 
Q 35.15625 39.890625 26.703125 39.890625 
Q 22.75 39.890625 18.8125 39.015625 
Q 14.890625 38.140625 10.796875 36.28125 
z
" id="DejaVuSans-35"/>
     <path d="M 11.71875 12.40625 
L 22.015625 12.40625 
L 22.015625 0 
L 11.71875 0 
z
M 11.71875 51.703125 
L 22.015625 51.703125 
L 22.015625 39.3125 
L 11.71875 39.3125 
z
" id="DejaVuSans-3a"/>
    </defs>
    <g transform="translate(58.89048 28.89775)scale(0.102 -0.102)">
     <use xlink:href="#DejaVuSans-35"/>
     <use x="63.623047" xlink:href="#DejaVuSans-31"/>
     <use x="127.246094" xlink:href="#DejaVuSans-20"/>
     <use x="159.033203" xlink:href="#DejaVuSans-74"/>
     <use x="198.242188" xlink:href="#DejaVuSans-61"/>
     <use x="259.521484" xlink:href="#DejaVuSans-72"/>
     <use x="300.619141" xlink:href="#DejaVuSans-67"/>
     <use x="364.095703" xlink:href="#DejaVuSans-65"/>
     <use x="425.619141" xlink:href="#DejaVuSans-74"/>
     <use x="464.828125" xlink:href="#DejaVuSans-73"/>
     <use x="516.927734" xlink:href="#DejaVuSans-3a"/>
     <use x="550.619141" xlink:href="#DejaVuSans-20"/>
     <use x="582.40625" xlink:href="#DejaVuSans-31"/>
     <use x="646.029297" xlink:href="#DejaVuSans-30"/>
     <use x="709.652344" xlink:href="#DejaVuSans-30"/>
     <use x="773.275391" xlink:href="#DejaVuSans-2e"/>
     <use x="805.0625" xlink:href="#DejaVuSans-2e"/>
     <use x="836.849609" xlink:href="#DejaVuSans-31"/>
     <use x="900.472656" xlink:href="#DejaVuSans-65"/>
     <use x="961.996094" xlink:href="#DejaVuSans-2d"/>
     <use x="998.080078" xlink:href="#DejaVuSans-30"/>
     <use x="1061.703125" xlink:href="#DejaVuSans-38"/>
    </g>
    <!-- 15 instances -->
    <g transform="translate(58.89048 40.319519)scale(0.102 -0.102)">
     <use xlink:href="#DejaVuSans-31"/>
     <use x="63.623047" xlink:href="#DejaVuSans-35"/>
     <use x="127.246094" xlink:href="#DejaVuSans-20"/>
     <use x="159.033203" xlink:href="#DejaVuSans-69"/>
     <use x="186.816406" xlink:href="#DejaVuSans-6e"/>
     <use x="250.195312" xlink:href="#DejaVuSans-73"/>
     <use x="302.294922" xlink:href="#DejaVuSans-74"/>
     <use x="341.503906" xlink:href="#DejaVuSans-61"/>
     <use x="402.783203" xlink:href="#DejaVuSans-6e"/>
     <use x="466.162109" xlink:href="#DejaVuSans-63"/>
     <use x="521.142578" xlink:href="#DejaVuSans-65"/>
     <use x="582.666016" xlink:href="#DejaVuSans-73"/>
    </g>
   </g>
   <g id="text_17">
    <!-- v0.0.0 -->
    <g style="fill:#808080;" transform="translate(178.96275 289.919965)scale(0.1 -0.1)">
     <use xlink:href="#DejaVuSans-76"/>
     <use x="59.179688" xlink:href="#DejaVuSans-30"/>
     <use x="122.802734" xlink:href="#DejaVuSans-2e"/>
     <use x="154.589844" xlink:href="#DejaVuSans-30"/>
     <use x="218.212891" xlink:href="#DejaVuSans-2e"/>
     <use x="250" xlink:href="#DejaVuSans-30"/>
    </g>
   </g>
  </g>
 </g>
 <defs>
  <clipPath id="pab32f09fe7">
   <rect height="288.034772" width="277.048" x="56.12" y="6.845228"/>
  </clipPath>
 </defs>
</svg>
