<?xml version="1.0" encoding="utf-8" standalone="no"?>
<!DOCTYPE svg PUBLIC "-//W3C//DTD SVG 1.1//EN"
  "http://www.w3.org/Graphics/SVG/1.1/DTD/svg11.dtd">
<!-- Created with matplotlib (http://matplotlib.org/) -->
<svg height="345.6pt" version="1.1" viewBox="0 0 460.8 345.6" width="460.8pt" xmlns="http://www.w3.org/2000/svg" xmlns:xlink="http://www.w3.org/1999/xlink">
 <defs>
  <style type="text/css">
*{stroke-linecap:butt;stroke-linejoin:round;}
  </style>
 </defs>
 <g id="figure_1">
  <g id="patch_1">
   <path d="M 0 345.6 
L 460.8 345.6 
L 460.8 0 
L 0 0 
z
" style="fill:#ffffff;"/>
  </g>
  <g id="axes_1">
   <g id="patch_2">
    <path d="M 56.12 294.88 
L 333.168 294.88 
L 333.168 6.845228 
L 56.12 6.845228 
z
" style="fill:#ffffff;"/>
   </g>
   <g id="line2d_1">
    <path d="M 37.236359 294.88 
L 37.236359 287.890222 
L 56.12 287.890222 
L 56.12 286.492266 
L 61.064861 286.492266 
L 61.064861 285.094311 
L 64.900393 285.094311 
L 64.900393 283.696355 
L 72.979112 283.696355 
L 72.979112 278.104533 
L 78.452896 278.104533 
L 78.452896 276.706577 
L 81.324327 276.706577 
L 81.324327 275.308622 
L 83.784035 275.308622 
L 83.784035 273.910666 
L 84.893363 273.910666 
L 84.893363 272.51271 
L 85.935418 272.51271 
L 85.935418 271.114755 
L 86.917893 271.114755 
L 86.917893 269.716799 
L 87.847234 269.716799 
L 87.847234 268.318844 
L 88.728896 268.318844 
L 88.728896 266.920888 
L 89.567532 266.920888 
L 89.567532 265.522932 
L 91.862754 265.522932 
L 91.862754 264.124977 
L 92.564428 264.124977 
L 92.564428 259.93111 
L 93.887283 259.93111 
L 93.887283 258.533154 
L 96.261898 258.533154 
L 96.261898 254.339288 
L 96.807615 254.339288 
L 96.807615 252.941332 
L 97.849669 252.941332 
L 97.849669 251.543376 
L 99.761485 251.543376 
L 99.761485 250.145421 
L 100.207968 250.145421 
L 100.207968 248.747465 
L 100.643147 248.747465 
L 100.643147 245.951554 
L 102.667676 245.951554 
L 102.667676 244.553598 
L 103.045463 244.553598 
L 103.045463 243.155643 
L 103.777005 243.155643 
L 103.777005 241.757687 
L 104.131422 241.757687 
L 104.131422 240.359732 
L 105.152829 240.359732 
L 105.152829 238.961776 
L 106.426644 238.961776 
L 106.426644 237.56382 
L 107.029816 237.56382 
L 107.029816 236.165865 
L 107.896653 236.165865 
L 107.896653 234.767909 
L 108.988361 234.767909 
L 108.988361 231.971998 
L 109.250788 231.971998 
L 109.250788 230.574042 
L 110.505991 230.574042 
L 110.505991 229.176087 
L 111.217346 229.176087 
L 111.217346 227.778131 
L 112.122219 227.778131 
L 112.122219 226.380175 
L 112.341186 226.380175 
L 112.341186 224.98222 
L 114.389873 224.98222 
L 114.389873 223.584264 
L 114.581927 223.584264 
L 114.581927 222.186309 
L 116.220179 222.186309 
L 116.220179 220.788353 
L 116.901005 220.788353 
L 116.901005 219.390397 
L 117.06708 219.390397 
L 117.06708 217.992442 
L 117.55589 217.992442 
L 117.55589 216.594486 
L 118.340895 216.594486 
L 118.340895 215.196531 
L 118.645127 215.196531 
L 118.645127 213.798575 
L 118.944067 213.798575 
L 118.944067 212.400619 
L 119.09161 212.400619 
L 119.09161 211.002664 
L 120.228462 211.002664 
L 120.228462 209.604708 
L 120.501303 209.604708 
L 120.501303 208.206753 
L 120.636117 208.206753 
L 120.636117 206.808797 
L 120.902613 206.808797 
L 120.902613 205.410841 
L 121.16504 205.410841 
L 121.16504 204.012886 
L 121.678171 204.012886 
L 121.678171 202.61493 
L 121.929105 202.61493 
L 121.929105 201.216975 
L 122.053211 201.216975 
L 122.053211 199.819019 
L 122.540864 199.819019 
L 122.540864 197.023108 
L 122.779599 197.023108 
L 122.779599 195.625152 
L 122.897734 195.625152 
L 122.897734 194.227197 
L 123.247346 194.227197 
L 123.247346 191.431285 
L 123.589988 191.431285 
L 123.589988 188.635374 
L 123.814679 188.635374 
L 123.814679 187.237419 
L 123.925932 187.237419 
L 123.925932 185.839463 
L 124.255437 185.839463 
L 124.363883 180.247641 
L 124.471649 180.247641 
L 124.471649 178.849685 
L 124.685175 178.849685 
L 124.685175 176.053774 
L 124.896081 176.053774 
L 125.000572 170.461951 
L 125.104431 170.461951 
L 125.207666 166.268085 
L 125.310285 166.268085 
L 125.412295 163.472173 
L 125.513703 163.472173 
L 125.614517 160.676262 
L 125.714742 160.676262 
L 125.714742 157.880351 
L 125.913457 157.880351 
L 126.011959 149.492617 
L 126.109901 149.492617 
L 126.207287 143.900795 
L 126.304124 143.900795 
L 126.40042 138.308973 
L 126.496178 138.308973 
L 126.591406 134.115106 
L 126.68611 134.115106 
L 126.780294 131.319195 
L 126.873966 131.319195 
L 126.873966 129.921239 
L 127.05979 129.921239 
L 127.05979 127.125328 
L 127.243628 127.125328 
L 127.334814 124.329417 
L 127.42552 124.329417 
L 127.515749 121.533505 
L 127.605507 121.533505 
L 127.605507 120.13555 
L 127.783629 120.13555 
L 127.872003 115.941683 
L 127.959924 115.941683 
L 128.047399 110.349861 
L 128.13443 110.349861 
L 128.13443 107.553949 
L 128.39291 107.553949 
L 128.478214 101.962127 
L 128.563096 101.962127 
L 128.647561 99.166216 
L 128.731613 99.166216 
L 128.815257 96.370304 
L 128.981332 96.370304 
L 129.063771 87.982571 
L 129.145817 87.982571 
L 129.145817 85.18666 
L 129.550274 85.18666 
L 129.630036 82.390748 
L 130.023386 82.390748 
L 130.023386 80.992793 
L 130.407935 80.992793 
L 130.407935 79.594837 
L 130.784069 79.594837 
L 130.784069 78.196882 
L 131.152148 78.196882 
L 131.152148 76.798926 
L 131.441039 76.798926 
L 131.441039 75.40097 
L 131.654565 75.40097 
L 131.654565 74.003015 
L 131.935202 74.003015 
L 131.935202 72.605059 
L 132.073821 72.605059 
L 132.073821 71.207104 
L 132.347749 71.207104 
L 132.347749 69.809148 
L 132.816864 69.809148 
L 132.816864 68.411192 
L 133.144276 68.411192 
L 133.144276 67.013237 
L 133.529112 67.013237 
L 133.529112 65.615281 
L 133.905521 65.615281 
L 133.905521 64.217326 
L 134.334493 64.217326 
L 134.334493 62.81937 
L 134.753019 62.81937 
L 134.753019 61.421414 
L 134.929315 61.421414 
L 134.929315 60.023459 
L 137.528768 60.023459 
L 137.528768 58.625503 
L 138.266591 58.625503 
L 138.266591 57.227548 
L 138.647518 57.227548 
L 138.647518 55.829592 
L 139.066206 55.829592 
L 139.066206 54.431636 
L 139.519758 54.431636 
L 139.519758 53.033681 
L 142.772569 53.033681 
L 142.772569 51.635725 
L 142.993411 51.635725 
L 142.993411 50.23777 
L 143.35529 50.23777 
L 143.426761 22.278658 
L 143.779723 22.278658 
L 143.779723 20.880702 
L 144.397345 20.880702 
L 144.397345 19.482746 
L 144.731115 19.482746 
L 144.731115 18.084791 
L 145.219924 18.084791 
L 145.219924 16.686835 
L 145.85077 16.686835 
L 145.85077 15.28888 
L 146.248744 15.28888 
L 146.248744 13.890924 
L 146.814308 13.890924 
L 146.814308 12.492968 
L 147.248023 12.492968 
L 147.248023 11.095013 
L 147.587283 11.095013 
L 147.587283 9.697057 
L 333.168 9.697057 
L 333.168 9.697057 
" style="fill:none;stroke:#f5deb3;stroke-linecap:square;stroke-width:4;"/>
   </g>
   <g id="line2d_2">
    <defs>
     <path d="M -0 7.778175 
L 7.778175 0 
L 0 -7.778175 
L -7.778175 -0 
z
" id="m366acd8797" style="stroke:#f5deb3;stroke-linejoin:miter;stroke-width:1.5;"/>
    </defs>
    <g>
     <use style="fill:#f5deb3;stroke:#f5deb3;stroke-linejoin:miter;stroke-width:1.5;" x="120.902613" xlink:href="#m366acd8797" y="206.808797"/>
     <use style="fill:#f5deb3;stroke:#f5deb3;stroke-linejoin:miter;stroke-width:1.5;" x="131.152148" xlink:href="#m366acd8797" y="78.196882"/>
     <use style="fill:#f5deb3;stroke:#f5deb3;stroke-linejoin:miter;stroke-width:1.5;" x="147.587283" xlink:href="#m366acd8797" y="11.095013"/>
     <use style="fill:#f5deb3;stroke:#f5deb3;stroke-linejoin:miter;stroke-width:1.5;" x="147.587283" xlink:href="#m366acd8797" y="9.697057"/>
     <use style="fill:#f5deb3;stroke:#f5deb3;stroke-linejoin:miter;stroke-width:1.5;" x="147.587283" xlink:href="#m366acd8797" y="9.697057"/>
     <use style="fill:#f5deb3;stroke:#f5deb3;stroke-linejoin:miter;stroke-width:1.5;" x="333.168" xlink:href="#m366acd8797" y="9.697057"/>
    </g>
   </g>
   <g id="line2d_3">
    <path style="fill:none;stroke:#f5deb3;stroke-linecap:square;stroke-width:4;"/>
    <g/>
   </g>
   <g id="line2d_4">
    <path d="M 333.168 9.697057 
L 363.64328 15.400716 
" style="fill:none;stroke:#f5deb3;stroke-linecap:square;stroke-width:4;"/>
    <g>
     <use style="fill:#f5deb3;stroke:#f5deb3;stroke-linejoin:miter;stroke-width:1.5;" x="333.168" xlink:href="#m366acd8797" y="9.697057"/>
     <use style="fill:#f5deb3;stroke:#f5deb3;stroke-linejoin:miter;stroke-width:1.5;" x="363.64328" xlink:href="#m366acd8797" y="15.400716"/>
    </g>
   </g>
   <g id="matplotlib.axis_1">
    <g id="xtick_1">
     <g id="line2d_5">
      <path clip-path="url(#p713c05ae45)" d="M 56.12 294.88 
L 56.12 6.845228 
" style="fill:none;stroke:#b0b0b0;stroke-linecap:square;stroke-width:0.8;"/>
     </g>
     <g id="line2d_6">
      <defs>
       <path d="M 0 0 
L 0 3.5 
" id="m976fbdd8a4" style="stroke:#000000;stroke-width:0.8;"/>
      </defs>
      <g>
       <use style="stroke:#000000;stroke-width:0.8;" x="56.12" xlink:href="#m976fbdd8a4" y="294.88"/>
      </g>
     </g>
     <g id="text_1">
      <!-- 0 -->
      <defs>
       <path d="M 31.78125 66.40625 
Q 24.171875 66.40625 20.328125 58.90625 
Q 16.5 51.421875 16.5 36.375 
Q 16.5 21.390625 20.328125 13.890625 
Q 24.171875 6.390625 31.78125 6.390625 
Q 39.453125 6.390625 43.28125 13.890625 
Q 47.125 21.390625 47.125 36.375 
Q 47.125 51.421875 43.28125 58.90625 
Q 39.453125 66.40625 31.78125 66.40625 
z
M 31.78125 74.21875 
Q 44.046875 74.21875 50.515625 64.515625 
Q 56.984375 54.828125 56.984375 36.375 
Q 56.984375 17.96875 50.515625 8.265625 
Q 44.046875 -1.421875 31.78125 -1.421875 
Q 19.53125 -1.421875 13.0625 8.265625 
Q 6.59375 17.96875 6.59375 36.375 
Q 6.59375 54.828125 13.0625 64.515625 
Q 19.53125 74.21875 31.78125 74.21875 
z
" id="DejaVuSans-30"/>
      </defs>
      <g transform="translate(49.7575 317.076875)scale(0.2 -0.2)">
       <use xlink:href="#DejaVuSans-30"/>
      </g>
     </g>
    </g>
    <g id="xtick_2">
     <g id="line2d_7">
      <path clip-path="url(#p713c05ae45)" d="M 135.276571 294.88 
L 135.276571 6.845228 
" style="fill:none;stroke:#b0b0b0;stroke-linecap:square;stroke-width:0.8;"/>
     </g>
     <g id="line2d_8">
      <g>
       <use style="stroke:#000000;stroke-width:0.8;" x="135.276571" xlink:href="#m976fbdd8a4" y="294.88"/>
      </g>
     </g>
     <g id="text_2">
      <!-- 2 -->
      <defs>
       <path d="M 19.1875 8.296875 
L 53.609375 8.296875 
L 53.609375 0 
L 7.328125 0 
L 7.328125 8.296875 
Q 12.9375 14.109375 22.625 23.890625 
Q 32.328125 33.6875 34.8125 36.53125 
Q 39.546875 41.84375 41.421875 45.53125 
Q 43.3125 49.21875 43.3125 52.78125 
Q 43.3125 58.59375 39.234375 62.25 
Q 35.15625 65.921875 28.609375 65.921875 
Q 23.96875 65.921875 18.8125 64.3125 
Q 13.671875 62.703125 7.8125 59.421875 
L 7.8125 69.390625 
Q 13.765625 71.78125 18.9375 73 
Q 24.125 74.21875 28.421875 74.21875 
Q 39.75 74.21875 46.484375 68.546875 
Q 53.21875 62.890625 53.21875 53.421875 
Q 53.21875 48.921875 51.53125 44.890625 
Q 49.859375 40.875 45.40625 35.40625 
Q 44.1875 33.984375 37.640625 27.21875 
Q 31.109375 20.453125 19.1875 8.296875 
z
" id="DejaVuSans-32"/>
      </defs>
      <g transform="translate(128.914071 317.076875)scale(0.2 -0.2)">
       <use xlink:href="#DejaVuSans-32"/>
      </g>
     </g>
    </g>
    <g id="xtick_3">
     <g id="line2d_9">
      <path clip-path="url(#p713c05ae45)" d="M 214.433143 294.88 
L 214.433143 6.845228 
" style="fill:none;stroke:#b0b0b0;stroke-linecap:square;stroke-width:0.8;"/>
     </g>
     <g id="line2d_10">
      <g>
       <use style="stroke:#000000;stroke-width:0.8;" x="214.433143" xlink:href="#m976fbdd8a4" y="294.88"/>
      </g>
     </g>
     <g id="text_3">
      <!-- 4 -->
      <defs>
       <path d="M 37.796875 64.3125 
L 12.890625 25.390625 
L 37.796875 25.390625 
z
M 35.203125 72.90625 
L 47.609375 72.90625 
L 47.609375 25.390625 
L 58.015625 25.390625 
L 58.015625 17.1875 
L 47.609375 17.1875 
L 47.609375 0 
L 37.796875 0 
L 37.796875 17.1875 
L 4.890625 17.1875 
L 4.890625 26.703125 
z
" id="DejaVuSans-34"/>
      </defs>
      <g transform="translate(208.070643 317.076875)scale(0.2 -0.2)">
       <use xlink:href="#DejaVuSans-34"/>
      </g>
     </g>
    </g>
    <g id="xtick_4">
     <g id="line2d_11">
      <path clip-path="url(#p713c05ae45)" d="M 293.589714 294.88 
L 293.589714 6.845228 
" style="fill:none;stroke:#b0b0b0;stroke-linecap:square;stroke-width:0.8;"/>
     </g>
     <g id="line2d_12">
      <g>
       <use style="stroke:#000000;stroke-width:0.8;" x="293.589714" xlink:href="#m976fbdd8a4" y="294.88"/>
      </g>
     </g>
     <g id="text_4">
      <!-- 6 -->
      <defs>
       <path d="M 33.015625 40.375 
Q 26.375 40.375 22.484375 35.828125 
Q 18.609375 31.296875 18.609375 23.390625 
Q 18.609375 15.53125 22.484375 10.953125 
Q 26.375 6.390625 33.015625 6.390625 
Q 39.65625 6.390625 43.53125 10.953125 
Q 47.40625 15.53125 47.40625 23.390625 
Q 47.40625 31.296875 43.53125 35.828125 
Q 39.65625 40.375 33.015625 40.375 
z
M 52.59375 71.296875 
L 52.59375 62.3125 
Q 48.875 64.0625 45.09375 64.984375 
Q 41.3125 65.921875 37.59375 65.921875 
Q 27.828125 65.921875 22.671875 59.328125 
Q 17.53125 52.734375 16.796875 39.40625 
Q 19.671875 43.65625 24.015625 45.921875 
Q 28.375 48.1875 33.59375 48.1875 
Q 44.578125 48.1875 50.953125 41.515625 
Q 57.328125 34.859375 57.328125 23.390625 
Q 57.328125 12.15625 50.6875 5.359375 
Q 44.046875 -1.421875 33.015625 -1.421875 
Q 20.359375 -1.421875 13.671875 8.265625 
Q 6.984375 17.96875 6.984375 36.375 
Q 6.984375 53.65625 15.1875 63.9375 
Q 23.390625 74.21875 37.203125 74.21875 
Q 40.921875 74.21875 44.703125 73.484375 
Q 48.484375 72.75 52.59375 71.296875 
z
" id="DejaVuSans-36"/>
      </defs>
      <g transform="translate(287.227214 317.076875)scale(0.2 -0.2)">
       <use xlink:href="#DejaVuSans-36"/>
      </g>
     </g>
    </g>
    <g id="xtick_5">
     <g id="line2d_13">
      <path clip-path="url(#p713c05ae45)" d="M 56.12 294.88 
L 56.12 6.845228 
" style="fill:none;stroke:#b0b0b0;stroke-linecap:square;stroke-width:0.8;"/>
     </g>
     <g id="line2d_14">
      <defs>
       <path d="M 0 0 
L 0 2 
" id="mc9aae96a22" style="stroke:#000000;stroke-width:0.6;"/>
      </defs>
      <g>
       <use style="stroke:#000000;stroke-width:0.6;" x="56.12" xlink:href="#mc9aae96a22" y="294.88"/>
      </g>
     </g>
    </g>
    <g id="xtick_6">
     <g id="line2d_15">
      <path clip-path="url(#p713c05ae45)" d="M 95.698286 294.88 
L 95.698286 6.845228 
" style="fill:none;stroke:#b0b0b0;stroke-linecap:square;stroke-width:0.8;"/>
     </g>
     <g id="line2d_16">
      <g>
       <use style="stroke:#000000;stroke-width:0.6;" x="95.698286" xlink:href="#mc9aae96a22" y="294.88"/>
      </g>
     </g>
    </g>
    <g id="xtick_7">
     <g id="line2d_17">
      <path clip-path="url(#p713c05ae45)" d="M 135.276571 294.88 
L 135.276571 6.845228 
" style="fill:none;stroke:#b0b0b0;stroke-linecap:square;stroke-width:0.8;"/>
     </g>
     <g id="line2d_18">
      <g>
       <use style="stroke:#000000;stroke-width:0.6;" x="135.276571" xlink:href="#mc9aae96a22" y="294.88"/>
      </g>
     </g>
    </g>
    <g id="xtick_8">
     <g id="line2d_19">
      <path clip-path="url(#p713c05ae45)" d="M 174.854857 294.88 
L 174.854857 6.845228 
" style="fill:none;stroke:#b0b0b0;stroke-linecap:square;stroke-width:0.8;"/>
     </g>
     <g id="line2d_20">
      <g>
       <use style="stroke:#000000;stroke-width:0.6;" x="174.854857" xlink:href="#mc9aae96a22" y="294.88"/>
      </g>
     </g>
    </g>
    <g id="xtick_9">
     <g id="line2d_21">
      <path clip-path="url(#p713c05ae45)" d="M 214.433143 294.88 
L 214.433143 6.845228 
" style="fill:none;stroke:#b0b0b0;stroke-linecap:square;stroke-width:0.8;"/>
     </g>
     <g id="line2d_22">
      <g>
       <use style="stroke:#000000;stroke-width:0.6;" x="214.433143" xlink:href="#mc9aae96a22" y="294.88"/>
      </g>
     </g>
    </g>
    <g id="xtick_10">
     <g id="line2d_23">
      <path clip-path="url(#p713c05ae45)" d="M 254.011429 294.88 
L 254.011429 6.845228 
" style="fill:none;stroke:#b0b0b0;stroke-linecap:square;stroke-width:0.8;"/>
     </g>
     <g id="line2d_24">
      <g>
       <use style="stroke:#000000;stroke-width:0.6;" x="254.011429" xlink:href="#mc9aae96a22" y="294.88"/>
      </g>
     </g>
    </g>
    <g id="xtick_11">
     <g id="line2d_25">
      <path clip-path="url(#p713c05ae45)" d="M 293.589714 294.88 
L 293.589714 6.845228 
" style="fill:none;stroke:#b0b0b0;stroke-linecap:square;stroke-width:0.8;"/>
     </g>
     <g id="line2d_26">
      <g>
       <use style="stroke:#000000;stroke-width:0.6;" x="293.589714" xlink:href="#mc9aae96a22" y="294.88"/>
      </g>
     </g>
    </g>
    <g id="xtick_12">
     <g id="line2d_27">
      <path clip-path="url(#p713c05ae45)" d="M 333.168 294.88 
L 333.168 6.845228 
" style="fill:none;stroke:#b0b0b0;stroke-linecap:square;stroke-width:0.8;"/>
     </g>
     <g id="line2d_28">
      <g>
       <use style="stroke:#000000;stroke-width:0.6;" x="333.168" xlink:href="#mc9aae96a22" y="294.88"/>
      </g>
     </g>
    </g>
    <g id="text_5">
     <!-- log10(# f-evals / dimension) -->
     <defs>
      <path d="M 9.421875 75.984375 
L 18.40625 75.984375 
L 18.40625 0 
L 9.421875 0 
z
" id="DejaVuSans-6c"/>
      <path d="M 30.609375 48.390625 
Q 23.390625 48.390625 19.1875 42.75 
Q 14.984375 37.109375 14.984375 27.296875 
Q 14.984375 17.484375 19.15625 11.84375 
Q 23.34375 6.203125 30.609375 6.203125 
Q 37.796875 6.203125 41.984375 11.859375 
Q 46.1875 17.53125 46.1875 27.296875 
Q 46.1875 37.015625 41.984375 42.703125 
Q 37.796875 48.390625 30.609375 48.390625 
z
M 30.609375 56 
Q 42.328125 56 49.015625 48.375 
Q 55.71875 40.765625 55.71875 27.296875 
Q 55.71875 13.875 49.015625 6.21875 
Q 42.328125 -1.421875 30.609375 -1.421875 
Q 18.84375 -1.421875 12.171875 6.21875 
Q 5.515625 13.875 5.515625 27.296875 
Q 5.515625 40.765625 12.171875 48.375 
Q 18.84375 56 30.609375 56 
z
" id="DejaVuSans-6f"/>
      <path d="M 45.40625 27.984375 
Q 45.40625 37.75 41.375 43.109375 
Q 37.359375 48.484375 30.078125 48.484375 
Q 22.859375 48.484375 18.828125 43.109375 
Q 14.796875 37.75 14.796875 27.984375 
Q 14.796875 18.265625 18.828125 12.890625 
Q 22.859375 7.515625 30.078125 7.515625 
Q 37.359375 7.515625 41.375 12.890625 
Q 45.40625 18.265625 45.40625 27.984375 
z
M 54.390625 6.78125 
Q 54.390625 -7.171875 48.1875 -13.984375 
Q 42 -20.796875 29.203125 -20.796875 
Q 24.46875 -20.796875 20.265625 -20.09375 
Q 16.0625 -19.390625 12.109375 -17.921875 
L 12.109375 -9.1875 
Q 16.0625 -11.328125 19.921875 -12.34375 
Q 23.78125 -13.375 27.78125 -13.375 
Q 36.625 -13.375 41.015625 -8.765625 
Q 45.40625 -4.15625 45.40625 5.171875 
L 45.40625 9.625 
Q 42.625 4.78125 38.28125 2.390625 
Q 33.9375 0 27.875 0 
Q 17.828125 0 11.671875 7.65625 
Q 5.515625 15.328125 5.515625 27.984375 
Q 5.515625 40.671875 11.671875 48.328125 
Q 17.828125 56 27.875 56 
Q 33.9375 56 38.28125 53.609375 
Q 42.625 51.21875 45.40625 46.390625 
L 45.40625 54.6875 
L 54.390625 54.6875 
z
" id="DejaVuSans-67"/>
      <path d="M 12.40625 8.296875 
L 28.515625 8.296875 
L 28.515625 63.921875 
L 10.984375 60.40625 
L 10.984375 69.390625 
L 28.421875 72.90625 
L 38.28125 72.90625 
L 38.28125 8.296875 
L 54.390625 8.296875 
L 54.390625 0 
L 12.40625 0 
z
" id="DejaVuSans-31"/>
      <path d="M 31 75.875 
Q 24.46875 64.65625 21.28125 53.65625 
Q 18.109375 42.671875 18.109375 31.390625 
Q 18.109375 20.125 21.3125 9.0625 
Q 24.515625 -2 31 -13.1875 
L 23.1875 -13.1875 
Q 15.875 -1.703125 12.234375 9.375 
Q 8.59375 20.453125 8.59375 31.390625 
Q 8.59375 42.28125 12.203125 53.3125 
Q 15.828125 64.359375 23.1875 75.875 
z
" id="DejaVuSans-28"/>
      <path d="M 51.125 44 
L 36.921875 44 
L 32.8125 27.6875 
L 47.125 27.6875 
z
M 43.796875 71.78125 
L 38.71875 51.515625 
L 52.984375 51.515625 
L 58.109375 71.78125 
L 65.921875 71.78125 
L 60.890625 51.515625 
L 76.125 51.515625 
L 76.125 44 
L 58.984375 44 
L 54.984375 27.6875 
L 70.515625 27.6875 
L 70.515625 20.21875 
L 53.078125 20.21875 
L 48 0 
L 40.1875 0 
L 45.21875 20.21875 
L 30.90625 20.21875 
L 25.875 0 
L 18.015625 0 
L 23.09375 20.21875 
L 7.71875 20.21875 
L 7.71875 27.6875 
L 24.90625 27.6875 
L 29 44 
L 13.28125 44 
L 13.28125 51.515625 
L 30.90625 51.515625 
L 35.890625 71.78125 
z
" id="DejaVuSans-23"/>
      <path id="DejaVuSans-20"/>
      <path d="M 37.109375 75.984375 
L 37.109375 68.5 
L 28.515625 68.5 
Q 23.6875 68.5 21.796875 66.546875 
Q 19.921875 64.59375 19.921875 59.515625 
L 19.921875 54.6875 
L 34.71875 54.6875 
L 34.71875 47.703125 
L 19.921875 47.703125 
L 19.921875 0 
L 10.890625 0 
L 10.890625 47.703125 
L 2.296875 47.703125 
L 2.296875 54.6875 
L 10.890625 54.6875 
L 10.890625 58.5 
Q 10.890625 67.625 15.140625 71.796875 
Q 19.390625 75.984375 28.609375 75.984375 
z
" id="DejaVuSans-66"/>
      <path d="M 4.890625 31.390625 
L 31.203125 31.390625 
L 31.203125 23.390625 
L 4.890625 23.390625 
z
" id="DejaVuSans-2d"/>
      <path d="M 56.203125 29.59375 
L 56.203125 25.203125 
L 14.890625 25.203125 
Q 15.484375 15.921875 20.484375 11.0625 
Q 25.484375 6.203125 34.421875 6.203125 
Q 39.59375 6.203125 44.453125 7.46875 
Q 49.3125 8.734375 54.109375 11.28125 
L 54.109375 2.78125 
Q 49.265625 0.734375 44.1875 -0.34375 
Q 39.109375 -1.421875 33.890625 -1.421875 
Q 20.796875 -1.421875 13.15625 6.1875 
Q 5.515625 13.8125 5.515625 26.8125 
Q 5.515625 40.234375 12.765625 48.109375 
Q 20.015625 56 32.328125 56 
Q 43.359375 56 49.78125 48.890625 
Q 56.203125 41.796875 56.203125 29.59375 
z
M 47.21875 32.234375 
Q 47.125 39.59375 43.09375 43.984375 
Q 39.0625 48.390625 32.421875 48.390625 
Q 24.90625 48.390625 20.390625 44.140625 
Q 15.875 39.890625 15.1875 32.171875 
z
" id="DejaVuSans-65"/>
      <path d="M 2.984375 54.6875 
L 12.5 54.6875 
L 29.59375 8.796875 
L 46.6875 54.6875 
L 56.203125 54.6875 
L 35.6875 0 
L 23.484375 0 
z
" id="DejaVuSans-76"/>
      <path d="M 34.28125 27.484375 
Q 23.390625 27.484375 19.1875 25 
Q 14.984375 22.515625 14.984375 16.5 
Q 14.984375 11.71875 18.140625 8.90625 
Q 21.296875 6.109375 26.703125 6.109375 
Q 34.1875 6.109375 38.703125 11.40625 
Q 43.21875 16.703125 43.21875 25.484375 
L 43.21875 27.484375 
z
M 52.203125 31.203125 
L 52.203125 0 
L 43.21875 0 
L 43.21875 8.296875 
Q 40.140625 3.328125 35.546875 0.953125 
Q 30.953125 -1.421875 24.3125 -1.421875 
Q 15.921875 -1.421875 10.953125 3.296875 
Q 6 8.015625 6 15.921875 
Q 6 25.140625 12.171875 29.828125 
Q 18.359375 34.515625 30.609375 34.515625 
L 43.21875 34.515625 
L 43.21875 35.40625 
Q 43.21875 41.609375 39.140625 45 
Q 35.0625 48.390625 27.6875 48.390625 
Q 23 48.390625 18.546875 47.265625 
Q 14.109375 46.140625 10.015625 43.890625 
L 10.015625 52.203125 
Q 14.9375 54.109375 19.578125 55.046875 
Q 24.21875 56 28.609375 56 
Q 40.484375 56 46.34375 49.84375 
Q 52.203125 43.703125 52.203125 31.203125 
z
" id="DejaVuSans-61"/>
      <path d="M 44.28125 53.078125 
L 44.28125 44.578125 
Q 40.484375 46.53125 36.375 47.5 
Q 32.28125 48.484375 27.875 48.484375 
Q 21.1875 48.484375 17.84375 46.4375 
Q 14.5 44.390625 14.5 40.28125 
Q 14.5 37.15625 16.890625 35.375 
Q 19.28125 33.59375 26.515625 31.984375 
L 29.59375 31.296875 
Q 39.15625 29.25 43.1875 25.515625 
Q 47.21875 21.78125 47.21875 15.09375 
Q 47.21875 7.46875 41.1875 3.015625 
Q 35.15625 -1.421875 24.609375 -1.421875 
Q 20.21875 -1.421875 15.453125 -0.5625 
Q 10.6875 0.296875 5.421875 2 
L 5.421875 11.28125 
Q 10.40625 8.6875 15.234375 7.390625 
Q 20.0625 6.109375 24.8125 6.109375 
Q 31.15625 6.109375 34.5625 8.28125 
Q 37.984375 10.453125 37.984375 14.40625 
Q 37.984375 18.0625 35.515625 20.015625 
Q 33.0625 21.96875 24.703125 23.78125 
L 21.578125 24.515625 
Q 13.234375 26.265625 9.515625 29.90625 
Q 5.8125 33.546875 5.8125 39.890625 
Q 5.8125 47.609375 11.28125 51.796875 
Q 16.75 56 26.8125 56 
Q 31.78125 56 36.171875 55.265625 
Q 40.578125 54.546875 44.28125 53.078125 
z
" id="DejaVuSans-73"/>
      <path d="M 25.390625 72.90625 
L 33.6875 72.90625 
L 8.296875 -9.28125 
L 0 -9.28125 
z
" id="DejaVuSans-2f"/>
      <path d="M 45.40625 46.390625 
L 45.40625 75.984375 
L 54.390625 75.984375 
L 54.390625 0 
L 45.40625 0 
L 45.40625 8.203125 
Q 42.578125 3.328125 38.25 0.953125 
Q 33.9375 -1.421875 27.875 -1.421875 
Q 17.96875 -1.421875 11.734375 6.484375 
Q 5.515625 14.40625 5.515625 27.296875 
Q 5.515625 40.1875 11.734375 48.09375 
Q 17.96875 56 27.875 56 
Q 33.9375 56 38.25 53.625 
Q 42.578125 51.265625 45.40625 46.390625 
z
M 14.796875 27.296875 
Q 14.796875 17.390625 18.875 11.75 
Q 22.953125 6.109375 30.078125 6.109375 
Q 37.203125 6.109375 41.296875 11.75 
Q 45.40625 17.390625 45.40625 27.296875 
Q 45.40625 37.203125 41.296875 42.84375 
Q 37.203125 48.484375 30.078125 48.484375 
Q 22.953125 48.484375 18.875 42.84375 
Q 14.796875 37.203125 14.796875 27.296875 
z
" id="DejaVuSans-64"/>
      <path d="M 9.421875 54.6875 
L 18.40625 54.6875 
L 18.40625 0 
L 9.421875 0 
z
M 9.421875 75.984375 
L 18.40625 75.984375 
L 18.40625 64.59375 
L 9.421875 64.59375 
z
" id="DejaVuSans-69"/>
      <path d="M 52 44.1875 
Q 55.375 50.25 60.0625 53.125 
Q 64.75 56 71.09375 56 
Q 79.640625 56 84.28125 50.015625 
Q 88.921875 44.046875 88.921875 33.015625 
L 88.921875 0 
L 79.890625 0 
L 79.890625 32.71875 
Q 79.890625 40.578125 77.09375 44.375 
Q 74.3125 48.1875 68.609375 48.1875 
Q 61.625 48.1875 57.5625 43.546875 
Q 53.515625 38.921875 53.515625 30.90625 
L 53.515625 0 
L 44.484375 0 
L 44.484375 32.71875 
Q 44.484375 40.625 41.703125 44.40625 
Q 38.921875 48.1875 33.109375 48.1875 
Q 26.21875 48.1875 22.15625 43.53125 
Q 18.109375 38.875 18.109375 30.90625 
L 18.109375 0 
L 9.078125 0 
L 9.078125 54.6875 
L 18.109375 54.6875 
L 18.109375 46.1875 
Q 21.1875 51.21875 25.484375 53.609375 
Q 29.78125 56 35.6875 56 
Q 41.65625 56 45.828125 52.96875 
Q 50 49.953125 52 44.1875 
z
" id="DejaVuSans-6d"/>
      <path d="M 54.890625 33.015625 
L 54.890625 0 
L 45.90625 0 
L 45.90625 32.71875 
Q 45.90625 40.484375 42.875 44.328125 
Q 39.84375 48.1875 33.796875 48.1875 
Q 26.515625 48.1875 22.3125 43.546875 
Q 18.109375 38.921875 18.109375 30.90625 
L 18.109375 0 
L 9.078125 0 
L 9.078125 54.6875 
L 18.109375 54.6875 
L 18.109375 46.1875 
Q 21.34375 51.125 25.703125 53.5625 
Q 30.078125 56 35.796875 56 
Q 45.21875 56 50.046875 50.171875 
Q 54.890625 44.34375 54.890625 33.015625 
z
" id="DejaVuSans-6e"/>
      <path d="M 8.015625 75.875 
L 15.828125 75.875 
Q 23.140625 64.359375 26.78125 53.3125 
Q 30.421875 42.28125 30.421875 31.390625 
Q 30.421875 20.453125 26.78125 9.375 
Q 23.140625 -1.703125 15.828125 -13.1875 
L 8.015625 -13.1875 
Q 14.5 -2 17.703125 9.0625 
Q 20.90625 20.125 20.90625 31.390625 
Q 20.90625 42.671875 17.703125 53.65625 
Q 14.5 64.65625 8.015625 75.875 
z
" id="DejaVuSans-29"/>
     </defs>
     <g transform="translate(73.803219 338.153594)scale(0.17 -0.17)">
      <use xlink:href="#DejaVuSans-6c"/>
      <use x="27.783203" xlink:href="#DejaVuSans-6f"/>
      <use x="88.964844" xlink:href="#DejaVuSans-67"/>
      <use x="152.441406" xlink:href="#DejaVuSans-31"/>
      <use x="216.064453" xlink:href="#DejaVuSans-30"/>
      <use x="279.6875" xlink:href="#DejaVuSans-28"/>
      <use x="318.701172" xlink:href="#DejaVuSans-23"/>
      <use x="402.490234" xlink:href="#DejaVuSans-20"/>
      <use x="434.277344" xlink:href="#DejaVuSans-66"/>
      <use x="469.404297" xlink:href="#DejaVuSans-2d"/>
      <use x="505.488281" xlink:href="#DejaVuSans-65"/>
      <use x="567.011719" xlink:href="#DejaVuSans-76"/>
      <use x="626.191406" xlink:href="#DejaVuSans-61"/>
      <use x="687.470703" xlink:href="#DejaVuSans-6c"/>
      <use x="715.253906" xlink:href="#DejaVuSans-73"/>
      <use x="767.353516" xlink:href="#DejaVuSans-20"/>
      <use x="799.140625" xlink:href="#DejaVuSans-2f"/>
      <use x="832.832031" xlink:href="#DejaVuSans-20"/>
      <use x="864.619141" xlink:href="#DejaVuSans-64"/>
      <use x="928.095703" xlink:href="#DejaVuSans-69"/>
      <use x="955.878906" xlink:href="#DejaVuSans-6d"/>
      <use x="1053.291016" xlink:href="#DejaVuSans-65"/>
      <use x="1114.814453" xlink:href="#DejaVuSans-6e"/>
      <use x="1178.193359" xlink:href="#DejaVuSans-73"/>
      <use x="1230.292969" xlink:href="#DejaVuSans-69"/>
      <use x="1258.076172" xlink:href="#DejaVuSans-6f"/>
      <use x="1319.257812" xlink:href="#DejaVuSans-6e"/>
      <use x="1382.636719" xlink:href="#DejaVuSans-29"/>
     </g>
    </g>
   </g>
   <g id="matplotlib.axis_2">
    <g id="ytick_1">
     <g id="line2d_29">
      <path clip-path="url(#p713c05ae45)" d="M 56.12 294.88 
L 333.168 294.88 
" style="fill:none;stroke:#b0b0b0;stroke-linecap:square;stroke-width:0.8;"/>
     </g>
     <g id="line2d_30">
      <defs>
       <path d="M 0 0 
L -3.5 0 
" id="ma2cafb44a8" style="stroke:#000000;stroke-width:0.8;"/>
      </defs>
      <g>
       <use style="stroke:#000000;stroke-width:0.8;" x="56.12" xlink:href="#ma2cafb44a8" y="294.88"/>
      </g>
     </g>
     <g id="text_6">
      <!-- 0.0 -->
      <defs>
       <path d="M 10.6875 12.40625 
L 21 12.40625 
L 21 0 
L 10.6875 0 
z
" id="DejaVuSans-2e"/>
      </defs>
      <g transform="translate(23.675 300.95875)scale(0.16 -0.16)">
       <use xlink:href="#DejaVuSans-30"/>
       <use x="63.623047" xlink:href="#DejaVuSans-2e"/>
       <use x="95.410156" xlink:href="#DejaVuSans-30"/>
      </g>
     </g>
    </g>
    <g id="ytick_2">
     <g id="line2d_31">
      <path clip-path="url(#p713c05ae45)" d="M 56.12 237.843411 
L 333.168 237.843411 
" style="fill:none;stroke:#b0b0b0;stroke-linecap:square;stroke-width:0.8;"/>
     </g>
     <g id="line2d_32">
      <g>
       <use style="stroke:#000000;stroke-width:0.8;" x="56.12" xlink:href="#ma2cafb44a8" y="237.843411"/>
      </g>
     </g>
     <g id="text_7">
      <!-- 0.2 -->
      <g transform="translate(23.675 243.922161)scale(0.16 -0.16)">
       <use xlink:href="#DejaVuSans-30"/>
       <use x="63.623047" xlink:href="#DejaVuSans-2e"/>
       <use x="95.410156" xlink:href="#DejaVuSans-32"/>
      </g>
     </g>
    </g>
    <g id="ytick_3">
     <g id="line2d_33">
      <path clip-path="url(#p713c05ae45)" d="M 56.12 180.806823 
L 333.168 180.806823 
" style="fill:none;stroke:#b0b0b0;stroke-linecap:square;stroke-width:0.8;"/>
     </g>
     <g id="line2d_34">
      <g>
       <use style="stroke:#000000;stroke-width:0.8;" x="56.12" xlink:href="#ma2cafb44a8" y="180.806823"/>
      </g>
     </g>
     <g id="text_8">
      <!-- 0.4 -->
      <g transform="translate(23.675 186.885573)scale(0.16 -0.16)">
       <use xlink:href="#DejaVuSans-30"/>
       <use x="63.623047" xlink:href="#DejaVuSans-2e"/>
       <use x="95.410156" xlink:href="#DejaVuSans-34"/>
      </g>
     </g>
    </g>
    <g id="ytick_4">
     <g id="line2d_35">
      <path clip-path="url(#p713c05ae45)" d="M 56.12 123.770234 
L 333.168 123.770234 
" style="fill:none;stroke:#b0b0b0;stroke-linecap:square;stroke-width:0.8;"/>
     </g>
     <g id="line2d_36">
      <g>
       <use style="stroke:#000000;stroke-width:0.8;" x="56.12" xlink:href="#ma2cafb44a8" y="123.770234"/>
      </g>
     </g>
     <g id="text_9">
      <!-- 0.6 -->
      <g transform="translate(23.675 129.848984)scale(0.16 -0.16)">
       <use xlink:href="#DejaVuSans-30"/>
       <use x="63.623047" xlink:href="#DejaVuSans-2e"/>
       <use x="95.410156" xlink:href="#DejaVuSans-36"/>
      </g>
     </g>
    </g>
    <g id="ytick_5">
     <g id="line2d_37">
      <path clip-path="url(#p713c05ae45)" d="M 56.12 66.733646 
L 333.168 66.733646 
" style="fill:none;stroke:#b0b0b0;stroke-linecap:square;stroke-width:0.8;"/>
     </g>
     <g id="line2d_38">
      <g>
       <use style="stroke:#000000;stroke-width:0.8;" x="56.12" xlink:href="#ma2cafb44a8" y="66.733646"/>
      </g>
     </g>
     <g id="text_10">
      <!-- 0.8 -->
      <defs>
       <path d="M 31.78125 34.625 
Q 24.75 34.625 20.71875 30.859375 
Q 16.703125 27.09375 16.703125 20.515625 
Q 16.703125 13.921875 20.71875 10.15625 
Q 24.75 6.390625 31.78125 6.390625 
Q 38.8125 6.390625 42.859375 10.171875 
Q 46.921875 13.96875 46.921875 20.515625 
Q 46.921875 27.09375 42.890625 30.859375 
Q 38.875 34.625 31.78125 34.625 
z
M 21.921875 38.8125 
Q 15.578125 40.375 12.03125 44.71875 
Q 8.5 49.078125 8.5 55.328125 
Q 8.5 64.0625 14.71875 69.140625 
Q 20.953125 74.21875 31.78125 74.21875 
Q 42.671875 74.21875 48.875 69.140625 
Q 55.078125 64.0625 55.078125 55.328125 
Q 55.078125 49.078125 51.53125 44.71875 
Q 48 40.375 41.703125 38.8125 
Q 48.828125 37.15625 52.796875 32.3125 
Q 56.78125 27.484375 56.78125 20.515625 
Q 56.78125 9.90625 50.3125 4.234375 
Q 43.84375 -1.421875 31.78125 -1.421875 
Q 19.734375 -1.421875 13.25 4.234375 
Q 6.78125 9.90625 6.78125 20.515625 
Q 6.78125 27.484375 10.78125 32.3125 
Q 14.796875 37.15625 21.921875 38.8125 
z
M 18.3125 54.390625 
Q 18.3125 48.734375 21.84375 45.5625 
Q 25.390625 42.390625 31.78125 42.390625 
Q 38.140625 42.390625 41.71875 45.5625 
Q 45.3125 48.734375 45.3125 54.390625 
Q 45.3125 60.0625 41.71875 63.234375 
Q 38.140625 66.40625 31.78125 66.40625 
Q 25.390625 66.40625 21.84375 63.234375 
Q 18.3125 60.0625 18.3125 54.390625 
z
" id="DejaVuSans-38"/>
      </defs>
      <g transform="translate(23.675 72.812396)scale(0.16 -0.16)">
       <use xlink:href="#DejaVuSans-30"/>
       <use x="63.623047" xlink:href="#DejaVuSans-2e"/>
       <use x="95.410156" xlink:href="#DejaVuSans-38"/>
      </g>
     </g>
    </g>
    <g id="ytick_6">
     <g id="line2d_39">
      <path clip-path="url(#p713c05ae45)" d="M 56.12 9.697057 
L 333.168 9.697057 
" style="fill:none;stroke:#b0b0b0;stroke-linecap:square;stroke-width:0.8;"/>
     </g>
     <g id="line2d_40">
      <g>
       <use style="stroke:#000000;stroke-width:0.8;" x="56.12" xlink:href="#ma2cafb44a8" y="9.697057"/>
      </g>
     </g>
     <g id="text_11">
      <!-- 1.0 -->
      <g transform="translate(23.675 15.775807)scale(0.16 -0.16)">
       <use xlink:href="#DejaVuSans-31"/>
       <use x="63.623047" xlink:href="#DejaVuSans-2e"/>
       <use x="95.410156" xlink:href="#DejaVuSans-30"/>
      </g>
     </g>
    </g>
    <g id="text_12">
     <!-- Fraction of function,target pairs -->
     <defs>
      <path d="M 9.8125 72.90625 
L 51.703125 72.90625 
L 51.703125 64.59375 
L 19.671875 64.59375 
L 19.671875 43.109375 
L 48.578125 43.109375 
L 48.578125 34.8125 
L 19.671875 34.8125 
L 19.671875 0 
L 9.8125 0 
z
" id="DejaVuSans-46"/>
      <path d="M 41.109375 46.296875 
Q 39.59375 47.171875 37.8125 47.578125 
Q 36.03125 48 33.890625 48 
Q 26.265625 48 22.1875 43.046875 
Q 18.109375 38.09375 18.109375 28.8125 
L 18.109375 0 
L 9.078125 0 
L 9.078125 54.6875 
L 18.109375 54.6875 
L 18.109375 46.1875 
Q 20.953125 51.171875 25.484375 53.578125 
Q 30.03125 56 36.53125 56 
Q 37.453125 56 38.578125 55.875 
Q 39.703125 55.765625 41.0625 55.515625 
z
" id="DejaVuSans-72"/>
      <path d="M 48.78125 52.59375 
L 48.78125 44.1875 
Q 44.96875 46.296875 41.140625 47.34375 
Q 37.3125 48.390625 33.40625 48.390625 
Q 24.65625 48.390625 19.8125 42.84375 
Q 14.984375 37.3125 14.984375 27.296875 
Q 14.984375 17.28125 19.8125 11.734375 
Q 24.65625 6.203125 33.40625 6.203125 
Q 37.3125 6.203125 41.140625 7.25 
Q 44.96875 8.296875 48.78125 10.40625 
L 48.78125 2.09375 
Q 45.015625 0.34375 40.984375 -0.53125 
Q 36.96875 -1.421875 32.421875 -1.421875 
Q 20.0625 -1.421875 12.78125 6.34375 
Q 5.515625 14.109375 5.515625 27.296875 
Q 5.515625 40.671875 12.859375 48.328125 
Q 20.21875 56 33.015625 56 
Q 37.15625 56 41.109375 55.140625 
Q 45.0625 54.296875 48.78125 52.59375 
z
" id="DejaVuSans-63"/>
      <path d="M 18.3125 70.21875 
L 18.3125 54.6875 
L 36.8125 54.6875 
L 36.8125 47.703125 
L 18.3125 47.703125 
L 18.3125 18.015625 
Q 18.3125 11.328125 20.140625 9.421875 
Q 21.96875 7.515625 27.59375 7.515625 
L 36.8125 7.515625 
L 36.8125 0 
L 27.59375 0 
Q 17.1875 0 13.234375 3.875 
Q 9.28125 7.765625 9.28125 18.015625 
L 9.28125 47.703125 
L 2.6875 47.703125 
L 2.6875 54.6875 
L 9.28125 54.6875 
L 9.28125 70.21875 
z
" id="DejaVuSans-74"/>
      <path d="M 8.5 21.578125 
L 8.5 54.6875 
L 17.484375 54.6875 
L 17.484375 21.921875 
Q 17.484375 14.15625 20.5 10.265625 
Q 23.53125 6.390625 29.59375 6.390625 
Q 36.859375 6.390625 41.078125 11.03125 
Q 45.3125 15.671875 45.3125 23.6875 
L 45.3125 54.6875 
L 54.296875 54.6875 
L 54.296875 0 
L 45.3125 0 
L 45.3125 8.40625 
Q 42.046875 3.421875 37.71875 1 
Q 33.40625 -1.421875 27.6875 -1.421875 
Q 18.265625 -1.421875 13.375 4.4375 
Q 8.5 10.296875 8.5 21.578125 
z
M 31.109375 56 
z
" id="DejaVuSans-75"/>
      <path d="M 11.71875 12.40625 
L 22.015625 12.40625 
L 22.015625 4 
L 14.015625 -11.625 
L 7.71875 -11.625 
L 11.71875 4 
z
" id="DejaVuSans-2c"/>
      <path d="M 18.109375 8.203125 
L 18.109375 -20.796875 
L 9.078125 -20.796875 
L 9.078125 54.6875 
L 18.109375 54.6875 
L 18.109375 46.390625 
Q 20.953125 51.265625 25.265625 53.625 
Q 29.59375 56 35.59375 56 
Q 45.5625 56 51.78125 48.09375 
Q 58.015625 40.1875 58.015625 27.296875 
Q 58.015625 14.40625 51.78125 6.484375 
Q 45.5625 -1.421875 35.59375 -1.421875 
Q 29.59375 -1.421875 25.265625 0.953125 
Q 20.953125 3.328125 18.109375 8.203125 
z
M 48.6875 27.296875 
Q 48.6875 37.203125 44.609375 42.84375 
Q 40.53125 48.484375 33.40625 48.484375 
Q 26.265625 48.484375 22.1875 42.84375 
Q 18.109375 37.203125 18.109375 27.296875 
Q 18.109375 17.390625 22.1875 11.75 
Q 26.265625 6.109375 33.40625 6.109375 
Q 40.53125 6.109375 44.609375 11.75 
Q 48.6875 17.390625 48.6875 27.296875 
z
" id="DejaVuSans-70"/>
     </defs>
     <g transform="translate(16.139531 286.001989)rotate(-90)scale(0.17 -0.17)">
      <use xlink:href="#DejaVuSans-46"/>
      <use x="57.410156" xlink:href="#DejaVuSans-72"/>
      <use x="98.523438" xlink:href="#DejaVuSans-61"/>
      <use x="159.802734" xlink:href="#DejaVuSans-63"/>
      <use x="214.783203" xlink:href="#DejaVuSans-74"/>
      <use x="253.992188" xlink:href="#DejaVuSans-69"/>
      <use x="281.775391" xlink:href="#DejaVuSans-6f"/>
      <use x="342.957031" xlink:href="#DejaVuSans-6e"/>
      <use x="406.335938" xlink:href="#DejaVuSans-20"/>
      <use x="438.123047" xlink:href="#DejaVuSans-6f"/>
      <use x="499.304688" xlink:href="#DejaVuSans-66"/>
      <use x="534.509766" xlink:href="#DejaVuSans-20"/>
      <use x="566.296875" xlink:href="#DejaVuSans-66"/>
      <use x="601.501953" xlink:href="#DejaVuSans-75"/>
      <use x="664.880859" xlink:href="#DejaVuSans-6e"/>
      <use x="728.259766" xlink:href="#DejaVuSans-63"/>
      <use x="783.240234" xlink:href="#DejaVuSans-74"/>
      <use x="822.449219" xlink:href="#DejaVuSans-69"/>
      <use x="850.232422" xlink:href="#DejaVuSans-6f"/>
      <use x="911.414062" xlink:href="#DejaVuSans-6e"/>
      <use x="974.792969" xlink:href="#DejaVuSans-2c"/>
      <use x="1006.580078" xlink:href="#DejaVuSans-74"/>
      <use x="1045.789062" xlink:href="#DejaVuSans-61"/>
      <use x="1107.068359" xlink:href="#DejaVuSans-72"/>
      <use x="1148.166016" xlink:href="#DejaVuSans-67"/>
      <use x="1211.642578" xlink:href="#DejaVuSans-65"/>
      <use x="1273.166016" xlink:href="#DejaVuSans-74"/>
      <use x="1312.375" xlink:href="#DejaVuSans-20"/>
      <use x="1344.162109" xlink:href="#DejaVuSans-70"/>
      <use x="1407.638672" xlink:href="#DejaVuSans-61"/>
      <use x="1468.917969" xlink:href="#DejaVuSans-69"/>
      <use x="1496.701172" xlink:href="#DejaVuSans-72"/>
      <use x="1537.814453" xlink:href="#DejaVuSans-73"/>
     </g>
    </g>
   </g>
   <g id="line2d_41">
    <defs>
     <path d="M 0 1.5 
C 0.397805 1.5 0.77937 1.341951 1.06066 1.06066 
C 1.341951 0.77937 1.5 0.397805 1.5 0 
C 1.5 -0.397805 1.341951 -0.77937 1.06066 -1.06066 
C 0.77937 -1.341951 0.397805 -1.5 0 -1.5 
C -0.397805 -1.5 -0.77937 -1.341951 -1.06066 -1.06066 
C -1.341951 -0.77937 -1.5 -0.397805 -1.5 0 
C -1.5 0.397805 -1.341951 0.77937 -1.06066 1.06066 
C -0.77937 1.341951 -0.397805 1.5 0 1.5 
z
" id="md65e1f49ad" style="stroke:#f5deb3;"/>
    </defs>
    <g>
     <use style="fill:#f5deb3;stroke:#f5deb3;" x="147.587283" xlink:href="#md65e1f49ad" y="9.697057"/>
     <use style="fill:#f5deb3;stroke:#f5deb3;" x="147.587283" xlink:href="#md65e1f49ad" y="9.697057"/>
    </g>
   </g>
   <g id="line2d_42">
    <defs>
     <path d="M 0 1.5 
C 0.397805 1.5 0.77937 1.341951 1.06066 1.06066 
C 1.341951 0.77937 1.5 0.397805 1.5 0 
C 1.5 -0.397805 1.341951 -0.77937 1.06066 -1.06066 
C 0.77937 -1.341951 0.397805 -1.5 0 -1.5 
C -0.397805 -1.5 -0.77937 -1.341951 -1.06066 -1.06066 
C -1.341951 -0.77937 -1.5 -0.397805 -1.5 0 
C -1.5 0.397805 -1.341951 0.77937 -1.06066 1.06066 
C -0.77937 1.341951 -0.397805 1.5 0 1.5 
z
" id="md8b71edb0b" style="stroke:#000080;"/>
    </defs>
    <g>
     <use style="fill:#000080;stroke:#000080;" x="194.544363" xlink:href="#md8b71edb0b" y="9.697057"/>
     <use style="fill:#000080;stroke:#000080;" x="194.544363" xlink:href="#md8b71edb0b" y="9.697057"/>
    </g>
   </g>
   <g id="line2d_43">
    <path d="M 37.236359 294.88 
L 37.236359 284.535129 
L 49.15061 284.535129 
L 49.15061 283.276969 
L 56.12 283.276969 
L 56.12 282.2984 
L 61.064861 282.2984 
L 61.064861 281.739217 
L 64.900393 281.739217 
L 64.900393 281.319831 
L 68.034251 281.319831 
L 68.034251 280.481057 
L 72.979112 280.481057 
L 72.979112 280.201466 
L 75.003641 280.201466 
L 75.003641 280.061671 
L 76.814644 280.061671 
L 76.814644 279.782079 
L 79.948502 279.782079 
L 79.948502 278.943306 
L 81.324327 278.943306 
L 81.324327 277.964737 
L 82.598142 277.964737 
L 82.598142 277.125964 
L 83.784035 277.125964 
L 83.784035 276.986168 
L 87.847234 276.986168 
L 87.847234 276.147395 
L 91.131212 276.147395 
L 91.131212 275.867804 
L 93.238578 275.867804 
L 93.238578 275.588213 
L 93.887283 275.588213 
L 93.887283 274.469848 
L 94.512393 274.469848 
L 94.512393 274.330053 
L 96.261898 274.330053 
L 96.261898 274.190257 
L 96.807615 274.190257 
L 96.807615 274.050462 
L 99.303095 274.050462 
L 99.303095 273.491279 
L 101.481783 273.491279 
L 101.481783 273.351484 
L 105.152829 273.351484 
L 105.152829 273.071893 
L 105.801534 273.071893 
L 105.801534 272.932097 
L 108.721866 272.932097 
L 108.721866 272.51271 
L 109.509269 272.51271 
L 109.509269 272.093324 
L 109.76392 272.093324 
L 109.76392 271.394346 
L 110.014853 271.394346 
L 110.014853 270.974959 
L 110.262176 270.974959 
L 110.262176 270.835164 
L 110.746395 270.835164 
L 110.746395 270.415777 
L 112.341186 270.415777 
L 112.341186 269.716799 
L 112.98183 269.716799 
L 112.98183 269.157617 
L 114.959714 269.157617 
L 114.959714 269.017821 
L 115.145539 269.017821 
L 115.145539 268.878026 
L 115.869378 268.878026 
L 115.869378 268.598435 
L 116.045673 268.598435 
L 116.045673 268.318844 
L 116.220179 268.318844 
L 116.220179 267.759661 
L 117.06708 267.759661 
L 117.06708 267.619866 
L 117.55589 267.619866 
L 117.55589 267.340275 
L 118.795247 267.340275 
L 118.795247 267.200479 
L 121.16504 267.200479 
L 121.16504 267.060684 
L 121.551317 267.060684 
L 121.551317 266.920888 
L 122.176427 266.920888 
L 122.176427 266.781092 
L 122.660646 266.781092 
L 122.660646 266.501501 
L 124.255437 266.501501 
L 124.255437 266.082115 
L 124.471649 266.082115 
L 124.471649 265.942319 
L 125.000572 265.942319 
L 125.000572 265.662728 
L 125.614517 265.662728 
L 125.614517 265.522932 
L 126.207287 265.522932 
L 126.207287 265.103546 
L 127.151955 265.103546 
L 127.151955 264.96375 
L 127.605507 264.96375 
L 127.605507 264.823955 
L 128.047399 264.823955 
L 128.047399 264.544363 
L 128.478214 264.544363 
L 128.563096 264.264772 
L 129.308744 264.264772 
L 129.308744 263.845386 
L 130.559378 263.845386 
L 130.634602 262.44743 
L 131.36927 262.44743 
L 131.441039 262.028043 
L 131.51251 262.028043 
L 131.583684 261.748452 
L 131.654565 261.748452 
L 131.654565 261.468861 
L 132.073821 261.468861 
L 132.073821 261.329066 
L 132.347749 261.329066 
L 132.347749 261.049474 
L 132.550368 261.049474 
L 132.550368 260.490292 
L 132.750626 260.490292 
L 132.750626 260.070906 
L 132.882847 260.070906 
L 132.948578 259.511723 
L 133.273515 259.511723 
L 133.273515 259.232132 
L 133.780965 259.232132 
L 133.780965 259.092337 
L 134.151957 259.092337 
L 134.151957 258.952541 
L 134.69385 258.952541 
L 134.69385 258.812745 
L 135.504239 258.812745 
L 135.504239 258.393359 
L 136.060554 258.393359 
L 136.060554 258.253563 
L 136.223997 258.253563 
L 136.223997 258.113768 
L 136.3859 258.113768 
L 136.3859 257.834177 
L 136.652396 257.834177 
L 136.757848 257.135199 
L 136.862657 257.135199 
L 136.966831 255.317856 
L 137.173303 255.317856 
L 137.275617 254.89847 
L 137.326546 254.89847 
L 137.377325 254.479083 
L 137.628993 254.479083 
L 137.678888 254.059696 
L 137.778244 254.059696 
L 137.778244 253.919901 
L 138.88138 253.919901 
L 138.88138 253.081127 
L 139.69788 253.081127 
L 139.69788 252.941332 
L 139.96165 252.941332 
L 139.96165 252.38215 
L 140.135274 252.38215 
L 140.178407 251.962763 
L 140.687737 251.962763 
L 140.687737 251.543376 
L 140.895583 251.543376 
L 140.895583 251.403581 
L 141.100945 251.403581 
L 141.100945 251.12399 
L 141.263487 251.12399 
L 141.303883 250.564807 
L 141.384392 250.564807 
L 141.384392 250.425012 
L 141.781376 250.425012 
L 141.781376 250.145421 
L 142.169397 250.145421 
L 142.245962 249.027056 
L 142.322186 249.027056 
L 142.398074 248.048487 
L 142.511282 248.048487 
L 142.511282 247.768896 
L 143.139078 247.768896 
L 143.139078 247.34951 
L 143.426761 247.34951 
L 143.426761 247.209714 
L 143.709708 247.209714 
L 143.709708 246.790327 
L 144.159788 246.790327 
L 144.159788 246.650532 
L 144.329806 246.650532 
L 144.363608 246.370941 
L 144.498158 246.370941 
L 144.498158 246.091349 
L 144.829995 246.091349 
L 144.829995 245.532167 
L 145.090928 245.532167 
L 145.090928 244.553598 
L 145.347959 244.553598 
L 145.347959 244.413803 
L 145.506674 244.413803 
L 145.506674 244.134212 
L 145.632598 244.134212 
L 145.632598 243.994416 
L 145.881713 243.994416 
L 145.974208 243.575029 
L 146.00493 243.575029 
L 146.00493 243.295438 
L 146.696779 243.295438 
L 146.696779 242.456665 
L 147.190823 242.456665 
L 147.276552 242.177074 
L 147.390196 242.177074 
L 147.446737 241.198505 
L 147.503094 241.198505 
L 147.503094 241.058709 
L 147.726689 241.058709 
L 147.726689 240.779118 
L 147.919977 240.779118 
L 147.974805 239.660754 
L 148.056721 239.660754 
L 148.165338 239.241367 
L 148.192385 239.241367 
L 148.246353 238.682185 
L 148.380535 238.682185 
L 148.380535 238.542389 
L 148.619454 238.542389 
L 148.619454 238.402594 
L 148.9588 238.402594 
L 148.984628 237.843411 
L 149.11319 237.843411 
L 149.11319 237.703616 
L 149.417871 237.703616 
L 149.443019 237.144434 
L 149.741959 237.144434 
L 149.815889 236.165865 
L 149.91397 236.165865 
L 150.011494 235.327091 
L 150.204899 235.327091 
L 150.204899 234.767909 
L 150.632262 234.767909 
L 150.632262 234.208727 
L 150.888293 234.208727 
L 150.888293 233.929136 
L 151.094972 233.929136 
L 151.186038 233.090362 
L 151.254022 233.090362 
L 151.276624 232.111793 
L 151.634268 232.111793 
L 151.678454 231.832202 
L 151.766488 231.832202 
L 151.766488 231.692407 
L 151.962932 231.692407 
L 151.962932 231.412816 
L 152.135684 231.412816 
L 152.242778 230.294451 
L 152.264117 230.294451 
L 152.370417 229.875064 
L 152.685428 229.875064 
L 152.789162 229.315882 
L 152.871701 229.315882 
L 152.933346 229.036291 
L 153.137246 229.036291 
L 153.238297 228.337313 
L 153.258436 228.337313 
L 153.298643 228.057722 
L 153.929489 228.057722 
L 153.929489 227.917927 
L 154.121973 227.917927 
L 154.217413 227.218949 
L 154.350144 227.218949 
L 154.350144 226.939358 
L 154.593959 226.939358 
L 154.631164 226.100584 
L 154.723825 226.100584 
L 154.723825 225.960789 
L 154.852717 225.960789 
L 154.907662 225.401607 
L 155.161776 225.401607 
L 155.233695 222.885286 
L 155.305314 222.885286 
L 155.305314 222.745491 
L 155.465375 222.745491 
L 155.483068 222.046513 
L 155.588844 222.046513 
L 155.588844 221.906718 
L 155.763705 221.906718 
L 155.763705 221.627126 
L 156.395648 221.627126 
L 156.495971 220.788353 
L 156.727806 220.788353 
L 156.727806 220.508762 
L 156.988987 220.508762 
L 157.053666 219.94958 
L 157.118104 219.94958 
L 157.1823 219.530193 
L 157.309979 219.530193 
L 157.309979 219.390397 
L 157.499736 219.390397 
L 157.499736 219.250602 
L 157.656282 219.250602 
L 157.734023 218.831215 
L 157.811415 218.831215 
L 157.811415 218.551624 
L 158.011017 218.551624 
L 158.087174 217.992442 
L 158.162995 217.992442 
L 158.223412 217.013873 
L 158.373532 217.013873 
L 158.433215 216.454691 
L 158.581522 216.454691 
L 158.669895 215.196531 
L 158.772427 215.196531 
L 158.845291 214.777144 
L 158.917848 214.777144 
L 158.990099 214.217962 
L 159.261918 214.217962 
L 159.3186 213.798575 
L 159.473517 213.798575 
L 159.473517 213.65878 
L 159.585313 213.65878 
L 159.585313 213.379188 
L 159.984587 213.379188 
L 159.984587 213.239393 
L 160.120144 213.239393 
L 160.174069 212.820006 
L 160.625729 212.820006 
L 160.730299 212.400619 
L 160.821278 212.400619 
L 160.860123 210.163891 
L 161.014628 210.163891 
L 161.116866 209.884299 
L 161.129603 209.884299 
L 161.155049 209.464913 
L 161.344701 209.464913 
L 161.445 206.529206 
L 161.482461 206.529206 
L 161.482461 205.970024 
L 161.693215 205.970024 
L 161.693215 205.830228 
L 161.864858 205.830228 
L 161.901416 205.410841 
L 161.986418 205.410841 
L 162.095093 204.292477 
L 162.11915 204.292477 
L 162.226991 203.733295 
L 162.262788 203.733295 
L 162.357885 203.313908 
L 162.405236 203.313908 
L 162.47602 202.055748 
L 162.546514 202.055748 
L 162.640057 200.937384 
L 162.929143 200.937384 
L 163.032035 200.378201 
L 163.156961 200.378201 
L 163.23599 199.539428 
L 163.292217 199.539428 
L 163.325865 197.023108 
L 163.515304 197.023108 
L 163.603734 196.32413 
L 163.724588 196.32413 
L 163.746471 196.044539 
L 163.888031 196.044539 
L 163.898872 195.764948 
L 164.071407 195.764948 
L 164.157029 193.668014 
L 164.189028 193.668014 
L 164.189028 193.528219 
L 164.327005 193.528219 
L 164.327005 193.108832 
L 164.474367 193.108832 
L 164.55801 190.173125 
L 164.620476 190.173125 
L 164.682717 189.893534 
L 164.755046 189.893534 
L 164.796241 187.796601 
L 164.94985 187.796601 
L 165.051498 185.280281 
L 165.212894 185.280281 
L 165.212894 185.140485 
L 165.342922 185.140485 
L 165.382734 182.204778 
L 165.590245 182.204778 
L 165.590245 181.925187 
L 165.71746 181.925187 
L 165.71746 181.785392 
L 165.911355 181.785392 
L 165.988305 181.086414 
L 166.112619 181.086414 
L 166.112619 180.806823 
L 166.226577 180.806823 
L 166.311552 180.247641 
L 166.339784 180.247641 
L 166.424203 179.688458 
L 166.480253 179.688458 
L 166.480253 177.731321 
L 166.711847 177.731321 
L 166.757794 174.516023 
L 166.876683 174.516023 
L 166.940362 171.160929 
L 167.021889 171.160929 
L 167.085033 170.18236 
L 167.228497 170.18236 
L 167.308672 168.784405 
L 167.43265 168.784405 
L 167.511881 168.504814 
L 167.564499 168.504814 
L 167.634407 166.40788 
L 167.686652 166.40788 
L 167.686652 163.192582 
L 167.902647 163.192582 
L 167.945522 162.912991 
L 168.022429 162.912991 
L 168.124439 162.214013 
L 168.192111 162.214013 
L 168.234271 161.934422 
L 168.32666 161.934422 
L 168.360134 161.654831 
L 168.518249 161.654831 
L 168.617367 159.557898 
L 168.691332 159.557898 
L 168.781303 159.278307 
L 168.838314 159.278307 
L 168.919431 158.719124 
L 168.959846 158.719124 
L 169.064483 157.60076 
L 169.12856 157.60076 
L 169.22423 156.622191 
L 169.240123 156.622191 
L 169.335176 156.063009 
L 169.358857 156.063009 
L 169.46894 155.08444 
L 169.500263 155.08444 
L 169.601672 153.686484 
L 169.648274 153.686484 
L 169.694751 152.987506 
L 169.909996 152.987506 
L 170.009022 152.008937 
L 170.092371 152.008937 
L 170.182837 151.589551 
L 170.212887 151.589551 
L 170.287783 150.191595 
L 170.369794 150.191595 
L 170.473608 149.213026 
L 170.664758 149.213026 
L 170.75227 148.234457 
L 170.788602 148.234457 
L 170.889924 147.53548 
L 170.969118 147.53548 
L 170.969118 147.395684 
L 171.218698 147.395684 
L 171.317524 146.836502 
L 171.478658 146.836502 
L 171.582937 145.158955 
L 171.596793 145.158955 
L 171.624472 144.599773 
L 171.76906 144.599773 
L 171.796463 143.900795 
L 171.959971 143.900795 
L 172.034395 142.083453 
L 172.142077 142.083453 
L 172.142077 141.943657 
L 172.447956 141.943657 
L 172.553086 141.664066 
L 172.566182 141.664066 
L 172.638033 140.685497 
L 172.703092 140.685497 
L 172.703092 140.26611 
L 172.935287 140.26611 
L 173.031117 139.846724 
L 173.062942 139.846724 
L 173.094708 139.427337 
L 173.183342 139.427337 
L 173.284082 138.868155 
L 173.302905 138.868155 
L 173.371747 138.029381 
L 173.458967 138.029381 
L 173.483807 137.470199 
L 173.693502 137.470199 
L 173.766905 136.351835 
L 173.821753 136.351835 
L 173.930926 135.652857 
L 173.936971 135.652857 
L 173.936971 135.513061 
L 174.111354 135.513061 
L 174.111354 133.695719 
L 174.295828 133.695719 
L 174.40204 132.437559 
L 174.472486 132.437559 
L 174.571791 131.598786 
L 174.60089 131.598786 
L 174.693677 130.20083 
L 174.728343 130.20083 
L 174.814703 129.222261 
L 174.934884 129.222261 
L 175.0429 128.243692 
L 175.065554 128.243692 
L 175.133337 126.566145 
L 175.262512 126.566145 
L 175.368494 125.307985 
L 175.385169 125.307985 
L 175.484877 124.049825 
L 175.517986 124.049825 
L 175.627888 122.931461 
L 175.823958 122.931461 
L 175.899607 122.65187 
L 175.974926 122.65187 
L 176.081953 119.716163 
L 176.119256 119.716163 
L 176.204217 118.737594 
L 176.262385 118.737594 
L 176.325618 118.318207 
L 176.383377 118.318207 
L 176.472261 117.060047 
L 176.545117 117.060047 
L 176.617665 116.36107 
L 176.664141 116.36107 
L 176.766975 114.403932 
L 176.787468 114.403932 
L 176.889569 113.565158 
L 176.986006 113.565158 
L 177.066799 112.586589 
L 177.117103 112.586589 
L 177.187281 111.887612 
L 177.267135 111.887612 
L 177.311891 110.909043 
L 177.484841 110.909043 
L 177.558433 108.532518 
L 177.64633 108.532518 
L 177.699824 107.274358 
L 177.801489 107.274358 
L 177.907354 106.155994 
L 177.969606 106.155994 
L 178.017339 104.897834 
L 178.093437 104.897834 
L 178.13136 104.05906 
L 178.333776 104.05906 
L 178.333776 103.919265 
L 178.510692 103.919265 
L 178.616894 102.381514 
L 178.635298 102.381514 
L 178.745305 100.983558 
L 178.768135 100.983558 
L 178.863691 100.424376 
L 178.96323 100.424376 
L 179.039755 99.306011 
L 179.093567 99.306011 
L 179.178427 97.908056 
L 179.245128 97.908056 
L 179.31157 97.069282 
L 179.377757 97.069282 
L 179.439302 95.391736 
L 179.49188 95.391736 
L 179.561735 94.692758 
L 179.609596 94.692758 
L 179.609596 94.552962 
L 179.765306 94.552962 
L 179.859773 93.434598 
L 179.881171 93.434598 
L 179.992011 92.595824 
L 180.076788 92.595824 
L 180.186378 91.617255 
L 180.198978 91.617255 
L 180.270204 90.778482 
L 180.316135 90.778482 
L 180.395183 89.100935 
L 180.440782 89.100935 
L 180.52338 87.143798 
L 180.552196 87.143798 
L 180.654717 85.046864 
L 180.715937 85.046864 
L 180.817489 84.068295 
L 180.829635 84.068295 
L 180.918444 82.67034 
L 180.970708 82.67034 
L 181.058793 82.111157 
L 181.090713 82.111157 
L 181.150403 79.734633 
L 181.245477 79.734633 
L 181.351811 79.175451 
L 181.519811 79.175451 
L 181.609002 78.476473 
L 181.655354 78.476473 
L 181.743846 77.358108 
L 181.786008 77.358108 
L 181.881447 76.519335 
L 181.942252 76.519335 
L 182.017956 75.40097 
L 182.123385 75.40097 
L 182.205771 75.121379 
L 182.243089 75.121379 
L 182.350855 74.14281 
L 182.365666 74.14281 
L 182.446902 73.304037 
L 182.553401 73.304037 
L 182.662883 71.067308 
L 182.673793 71.067308 
L 182.782514 69.809148 
L 182.800567 69.809148 
L 182.879778 69.11017 
L 182.958625 69.11017 
L 183.065564 67.991806 
L 183.101063 67.991806 
L 183.210646 67.013237 
L 183.24233 67.013237 
L 183.326537 65.894872 
L 183.358008 65.894872 
L 183.465971 64.217326 
L 183.483321 64.217326 
L 183.562906 63.518348 
L 183.611169 63.518348 
L 183.717558 61.421414 
L 183.741491 61.421414 
L 183.813089 60.862232 
L 183.908091 60.862232 
L 184.016027 58.345912 
L 184.02275 58.345912 
L 184.103228 56.52857 
L 184.170006 56.52857 
L 184.256431 56.109183 
L 184.306095 56.109183 
L 184.408281 54.990819 
L 184.421422 54.990819 
L 184.522927 53.313272 
L 184.614096 53.313272 
L 184.724156 51.076543 
L 184.775705 51.076543 
L 184.830308 50.517361 
L 184.887934 50.517361 
L 184.980372 49.119405 
L 185.012133 49.119405 
L 185.043834 47.861245 
L 185.141739 47.861245 
L 185.210884 46.742881 
L 185.25474 46.742881 
L 185.360786 44.785743 
L 185.394955 44.785743 
L 185.500141 42.9684 
L 185.537113 42.9684 
L 185.620009 41.71024 
L 185.668944 41.71024 
L 185.711649 41.151058 
L 185.866325 41.151058 
L 185.968674 39.333716 
L 185.995665 39.333716 
L 186.08831 38.075556 
L 186.121065 38.075556 
L 186.215997 35.978622 
L 186.236694 35.978622 
L 186.298635 34.720462 
L 186.369152 34.720462 
L 186.477303 34.301076 
L 186.526767 34.301076 
L 186.619491 32.623529 
L 186.65125 32.623529 
L 186.760512 30.945982 
L 186.766243 30.945982 
L 186.832018 30.247005 
L 186.894698 30.247005 
L 186.971313 28.849049 
L 187.050406 28.849049 
L 187.159969 28.289867 
L 187.165569 28.289867 
L 187.229836 27.730684 
L 187.307751 27.730684 
L 187.368723 26.192933 
L 187.454274 26.192933 
L 187.558564 25.214364 
L 187.56677 25.214364 
L 187.675818 24.794978 
L 187.705686 24.794978 
L 187.759857 23.816409 
L 187.846178 23.816409 
L 187.942774 22.558249 
L 187.993537 22.558249 
L 188.052129 22.278658 
L 188.203012 22.278658 
L 188.266147 21.859271 
L 188.438584 21.859271 
L 188.534501 20.740906 
L 188.668406 20.740906 
L 188.765604 20.32152 
L 188.79873 20.32152 
L 188.892664 19.622542 
L 188.928073 19.622542 
L 188.965931 19.342951 
L 189.14899 19.342951 
L 189.238553 18.504177 
L 189.27821 18.504177 
L 189.332589 18.224586 
L 189.391716 18.224586 
L 189.455541 17.246017 
L 189.550837 17.246017 
L 189.650453 15.708266 
L 189.929207 15.708266 
L 190.017177 14.729697 
L 190.290093 14.729697 
L 190.290093 14.589902 
L 190.411042 14.589902 
L 190.411042 14.310311 
L 190.551848 14.310311 
L 190.551848 14.170515 
L 190.978691 14.170515 
L 191.039131 13.751128 
L 191.15716 13.751128 
L 191.15716 13.471537 
L 191.480342 13.471537 
L 191.510807 12.353173 
L 191.946583 12.353173 
L 191.972001 12.073582 
L 192.064878 12.073582 
L 192.115328 11.514399 
L 192.359172 11.514399 
L 192.359172 11.374604 
L 192.878937 11.374604 
L 192.939065 10.675626 
L 193.04478 10.675626 
L 193.04478 10.535831 
L 193.529054 10.535831 
L 193.529054 10.256239 
L 194.146153 10.256239 
L 194.146153 9.976648 
L 194.544363 9.976648 
L 194.544363 9.697057 
L 333.168 9.697057 
L 333.168 9.697057 
" style="fill:none;stroke:#000080;stroke-linecap:square;stroke-width:1.5;"/>
   </g>
   <g id="line2d_44">
    <defs>
     <path d="M 0 6 
C 1.591219 6 3.117479 5.367802 4.242641 4.242641 
C 5.367802 3.117479 6 1.591219 6 0 
C 6 -1.591219 5.367802 -3.117479 4.242641 -4.242641 
C 3.117479 -5.367802 1.591219 -6 0 -6 
C -1.591219 -6 -3.117479 -5.367802 -4.242641 -4.242641 
C -5.367802 -3.117479 -6 -1.591219 -6 0 
C -6 1.591219 -5.367802 3.117479 -4.242641 4.242641 
C -3.117479 5.367802 -1.591219 6 0 6 
z
" id="m1e5e68492a" style="stroke:#000080;stroke-width:1.5;"/>
    </defs>
    <g>
     <use style="fill-opacity:0;stroke:#000080;stroke-width:1.5;" x="152.242778" xlink:href="#m1e5e68492a" y="230.294451"/>
     <use style="fill-opacity:0;stroke:#000080;stroke-width:1.5;" x="177.548639" xlink:href="#m1e5e68492a" y="109.650883"/>
     <use style="fill-opacity:0;stroke:#000080;stroke-width:1.5;" x="194.544363" xlink:href="#m1e5e68492a" y="9.976648"/>
     <use style="fill-opacity:0;stroke:#000080;stroke-width:1.5;" x="194.544363" xlink:href="#m1e5e68492a" y="9.697057"/>
     <use style="fill-opacity:0;stroke:#000080;stroke-width:1.5;" x="194.544363" xlink:href="#m1e5e68492a" y="9.697057"/>
     <use style="fill-opacity:0;stroke:#000080;stroke-width:1.5;" x="333.168" xlink:href="#m1e5e68492a" y="9.697057"/>
    </g>
   </g>
   <g id="line2d_45">
    <path style="fill:none;stroke:#000080;stroke-linecap:square;stroke-width:1.5;"/>
    <g/>
   </g>
   <g id="line2d_46">
    <path clip-path="url(#p713c05ae45)" d="M 195.722236 9.697057 
" style="fill:none;stroke:#000080;stroke-linecap:square;stroke-width:1.5;"/>
    <defs>
     <path d="M -12 12 
L 12 -12 
M -12 -12 
L 12 12 
" id="m29e62343ea" style="stroke:#000080;"/>
    </defs>
    <g clip-path="url(#p713c05ae45)">
     <use style="fill:#000080;stroke:#000080;" x="195.722236" xlink:href="#m29e62343ea" y="9.697057"/>
    </g>
   </g>
   <g id="line2d_47">
    <defs>
     <path d="M 0 1.5 
C 0.397805 1.5 0.77937 1.341951 1.06066 1.06066 
C 1.341951 0.77937 1.5 0.397805 1.5 0 
C 1.5 -0.397805 1.341951 -0.77937 1.06066 -1.06066 
C 0.77937 -1.341951 0.397805 -1.5 0 -1.5 
C -0.397805 -1.5 -0.77937 -1.341951 -1.06066 -1.06066 
C -1.341951 -0.77937 -1.5 -0.397805 -1.5 0 
C -1.5 0.397805 -1.341951 0.77937 -1.06066 1.06066 
C -0.77937 1.341951 -0.397805 1.5 0 1.5 
z
" id="mabf9b7e10d" style="stroke:#ff00ff;"/>
    </defs>
    <g>
     <use style="fill:#ff00ff;stroke:#ff00ff;" x="190.273746" xlink:href="#mabf9b7e10d" y="9.697057"/>
     <use style="fill:#ff00ff;stroke:#ff00ff;" x="190.273746" xlink:href="#mabf9b7e10d" y="9.697057"/>
    </g>
   </g>
   <g id="line2d_48">
    <path d="M 37.236359 294.88 
L 37.236359 284.674924 
L 49.15061 284.674924 
L 49.15061 284.395333 
L 56.12 284.395333 
L 56.12 283.836151 
L 61.064861 283.836151 
L 61.064861 283.416764 
L 64.900393 283.416764 
L 64.900393 282.577991 
L 68.034251 282.577991 
L 68.034251 281.879013 
L 70.68389 281.879013 
L 70.68389 281.180035 
L 72.979112 281.180035 
L 72.979112 281.04024 
L 75.003641 281.04024 
L 75.003641 280.201466 
L 79.948502 280.201466 
L 79.948502 280.061671 
L 81.324327 280.061671 
L 81.324327 279.921875 
L 82.598142 279.921875 
L 82.598142 279.642284 
L 83.784035 279.642284 
L 83.784035 279.362693 
L 85.935418 279.362693 
L 85.935418 279.222897 
L 88.728896 279.222897 
L 88.728896 278.803511 
L 91.131212 278.803511 
L 91.131212 278.523919 
L 93.887283 278.523919 
L 93.887283 278.244328 
L 95.115564 278.244328 
L 95.115564 278.104533 
L 96.807615 278.104533 
L 96.807615 277.964737 
L 97.336537 277.964737 
L 97.336537 277.405555 
L 101.88624 277.405555 
L 101.88624 277.265759 
L 102.281398 277.265759 
L 102.281398 277.125964 
L 102.667676 277.125964 
L 102.667676 276.706577 
L 104.131422 276.706577 
L 104.131422 276.426986 
L 104.819059 276.426986 
L 104.819059 276.007599 
L 105.801534 276.007599 
L 105.801534 275.448417 
L 108.176149 275.448417 
L 108.176149 275.02903 
L 108.451173 275.02903 
L 108.451173 274.749439 
L 110.014853 274.749439 
L 110.014853 274.609644 
L 110.746395 274.609644 
L 110.746395 274.330053 
L 112.122219 274.330053 
L 112.122219 274.050462 
L 112.557398 274.050462 
L 112.557398 273.77087 
L 113.999206 273.77087 
L 113.999206 273.211688 
L 114.581927 273.211688 
L 114.581927 272.932097 
L 114.959714 272.932097 
L 114.959714 272.792301 
L 115.329377 272.792301 
L 115.329377 271.953528 
L 115.511269 271.953528 
L 115.511269 271.534141 
L 116.045673 271.534141 
L 116.045673 270.555573 
L 117.06708 270.555573 
L 117.06708 270.136186 
L 117.394493 270.136186 
L 117.394493 269.856595 
L 118.645127 269.856595 
L 118.645127 269.716799 
L 119.09161 269.716799 
L 119.09161 269.577004 
L 120.501303 269.577004 
L 120.501303 269.017821 
L 121.42352 269.017821 
L 121.42352 268.878026 
L 123.015063 268.878026 
L 123.015063 268.458639 
L 123.131597 268.458639 
L 123.131597 268.179048 
L 123.476531 268.179048 
L 123.476531 267.48007 
L 123.7027 267.48007 
L 123.7027 267.200479 
L 124.146303 267.200479 
L 124.146303 267.060684 
L 124.896081 267.060684 
L 124.896081 266.920888 
L 126.496178 266.920888 
L 126.591406 265.662728 
L 127.42552 265.662728 
L 127.42552 265.383137 
L 127.783629 265.383137 
L 127.783629 265.243341 
L 128.478214 265.243341 
L 128.478214 264.96375 
L 128.647561 264.96375 
L 128.647561 264.544363 
L 128.815257 264.544363 
L 128.898495 264.264772 
L 128.981332 264.264772 
L 128.981332 263.845386 
L 129.308744 263.845386 
L 129.308744 263.565795 
L 129.70943 263.565795 
L 129.70943 262.727021 
L 130.100987 262.727021 
L 130.178239 262.44743 
L 130.483823 262.44743 
L 130.483823 261.468861 
L 130.932248 261.468861 
L 130.932248 261.329066 
L 131.224827 261.329066 
L 131.224827 261.18927 
L 131.36927 261.18927 
L 131.441039 260.630088 
L 131.795457 260.630088 
L 131.795457 260.350497 
L 132.073821 260.350497 
L 132.073821 259.93111 
L 132.550368 259.93111 
L 132.550368 259.791314 
L 133.465568 259.791314 
L 133.529112 259.232132 
L 134.455115 259.232132 
L 134.455115 259.092337 
L 134.87075 259.092337 
L 134.87075 258.393359 
L 135.276571 258.393359 
L 135.276571 257.973972 
L 135.504239 257.973972 
L 135.560688 256.576016 
L 135.616951 256.576016 
L 135.616951 256.436221 
L 135.950722 256.436221 
L 136.060554 256.15663 
L 136.169688 256.15663 
L 136.278134 255.457652 
L 136.492995 255.457652 
L 136.492995 255.178061 
L 136.652396 255.178061 
L 136.705203 254.618879 
L 136.810332 254.618879 
L 136.914823 253.64031 
L 136.966831 253.64031 
L 136.966831 253.081127 
L 137.173303 253.081127 
L 137.224536 252.38215 
L 137.377325 252.38215 
L 137.377325 251.822967 
L 137.87703 251.822967 
L 137.87703 251.683172 
L 138.600361 251.683172 
L 138.694545 251.263785 
L 140.392465 251.263785 
L 140.477347 250.145421 
L 141.019094 250.145421 
L 141.100945 249.446443 
L 141.544287 249.446443 
L 141.544287 248.747465 
L 141.781376 248.747465 
L 141.820574 248.048487 
L 142.130987 248.048487 
L 142.207722 247.209714 
L 142.398074 247.209714 
L 142.398074 246.930123 
L 143.102777 246.930123 
L 143.102777 246.790327 
L 143.319443 246.790327 
L 143.319443 245.671963 
L 143.533413 245.671963 
L 143.533413 245.392372 
L 143.814623 245.392372 
L 143.849453 245.112781 
L 143.988072 245.112781 
L 144.091308 244.413803 
L 144.193927 244.413803 
L 144.295937 243.994416 
L 144.397345 243.994416 
L 144.431015 243.714825 
L 144.531632 243.714825 
L 144.531632 243.155643 
L 144.764138 243.155643 
L 144.797098 242.736256 
L 144.960957 242.736256 
L 144.960957 242.316869 
L 145.284061 242.316869 
L 145.37982 242.037278 
L 145.663936 242.037278 
L 145.663936 241.897483 
L 145.881713 241.897483 
L 145.943432 241.3383 
L 146.127269 241.3383 
L 146.127269 240.918914 
L 146.309161 240.918914 
L 146.309161 240.639323 
L 146.518964 240.639323 
L 146.548728 240.219936 
L 146.93104 240.219936 
L 146.93104 239.520958 
L 147.075848 239.520958 
L 147.075848 239.381163 
L 147.190823 239.381163 
L 147.190823 239.241367 
L 147.305033 239.241367 
L 147.305033 239.101571 
L 147.41849 239.101571 
L 147.503094 238.402594 
L 147.531203 238.402594 
L 147.531203 238.123003 
L 147.671062 238.123003 
L 147.782136 237.424025 
L 147.809793 237.424025 
L 147.809793 237.284229 
L 147.947413 237.284229 
L 147.974805 236.725047 
L 148.273273 236.725047 
L 148.380535 234.628114 
L 148.540183 234.628114 
L 148.540183 234.488318 
L 148.724584 234.488318 
L 148.724584 234.068931 
L 148.932933 234.068931 
L 148.932933 233.649545 
L 149.342206 233.649545 
L 149.367465 233.090362 
L 149.938403 233.090362 
L 150.035789 232.251589 
L 150.06005 232.251589 
L 150.06005 232.111793 
L 150.276868 232.111793 
L 150.276868 231.971998 
L 150.538207 231.971998 
L 150.632262 231.692407 
L 150.91138 231.692407 
L 150.91138 231.552611 
L 151.049258 231.552611 
L 151.140565 230.713838 
L 151.231391 230.713838 
L 151.299196 229.595473 
L 151.344251 229.595473 
L 151.344251 229.176087 
L 151.700505 229.176087 
L 151.722528 228.616904 
L 151.962932 228.616904 
L 151.962932 228.477109 
L 152.20002 228.477109 
L 152.242778 227.358744 
L 152.391598 227.358744 
L 152.497115 226.799562 
L 152.539141 226.799562 
L 152.622886 226.100584 
L 152.706225 226.100584 
L 152.768465 225.122015 
L 152.97432 225.122015 
L 153.07633 224.562833 
L 153.116965 224.562833 
L 153.137246 224.283242 
L 153.358778 224.283242 
L 153.458539 223.863855 
L 153.478421 223.863855 
L 153.577492 223.444469 
L 153.754391 223.444469 
L 153.851888 222.885286 
L 153.910122 222.885286 
L 153.968159 222.326104 
L 154.312326 222.326104 
L 154.331245 221.627126 
L 154.425533 221.627126 
L 154.481859 221.347535 
L 154.852717 221.347535 
L 154.871052 220.648558 
L 154.98065 220.648558 
L 155.017028 217.712851 
L 155.161776 217.712851 
L 155.215743 217.293464 
L 155.287437 217.293464 
L 155.305314 216.035304 
L 155.536037 216.035304 
L 155.588844 215.615917 
L 155.815818 215.615917 
L 155.815818 215.476122 
L 156.074039 215.476122 
L 156.159258 214.91694 
L 156.210188 214.91694 
L 156.311596 213.65878 
L 156.429154 213.65878 
L 156.529282 212.400619 
L 156.562529 212.400619 
L 156.645366 211.422051 
L 157.021357 211.422051 
L 157.118104 208.486344 
L 157.26221 208.486344 
L 157.26221 208.066957 
L 157.436716 208.066957 
L 157.468255 207.64757 
L 157.578187 207.64757 
L 157.671858 207.088388 
L 157.718503 207.088388 
L 157.795964 206.38941 
L 157.903827 206.38941 
L 157.96516 205.271046 
L 158.04152 205.271046 
L 158.087174 202.475135 
L 158.253541 202.475135 
L 158.313642 202.195544 
L 158.4034 202.195544 
L 158.4034 202.055748 
L 158.581522 202.055748 
L 158.625765 201.216975 
L 158.713912 201.216975 
L 158.80161 200.937384 
L 158.87435 200.937384 
L 158.961235 198.141472 
L 159.176544 198.141472 
L 159.219284 195.625152 
L 159.445454 195.625152 
L 159.459491 195.06597 
L 159.599237 195.06597 
L 159.710221 194.506788 
L 159.889056 194.506788 
L 159.998191 193.248628 
L 160.066049 193.248628 
L 160.066049 193.108832 
L 160.308147 193.108832 
L 160.361486 192.689445 
L 160.546882 192.689445 
L 160.638835 192.270059 
L 160.756342 192.270059 
L 160.847184 187.51701 
L 160.89888 187.51701 
L 160.988974 183.043552 
L 161.040245 183.043552 
L 161.091363 182.344574 
L 161.36983 182.344574 
L 161.457496 181.086414 
L 161.532283 181.086414 
L 161.532283 180.946618 
L 161.643858 180.946618 
L 161.643858 180.806823 
L 161.766986 180.806823 
L 161.877052 180.107845 
L 162.095093 180.107845 
L 162.179145 177.311934 
L 162.322285 177.311934 
L 162.393411 176.892547 
L 162.47602 176.892547 
L 162.511303 175.634387 
L 162.616719 175.634387 
L 162.640057 175.215 
L 162.894708 175.215 
L 162.974949 174.376227 
L 163.381799 174.376227 
L 163.470918 171.859907 
L 163.724588 171.859907 
L 163.82284 171.300725 
L 163.888031 171.300725 
L 163.888031 171.160929 
L 164.039189 171.160929 
L 164.039189 171.021134 
L 164.157029 171.021134 
L 164.242227 169.483382 
L 164.274068 169.483382 
L 164.327005 168.365018 
L 164.390315 168.365018 
L 164.400844 167.945631 
L 164.516239 167.945631 
L 164.568437 167.106858 
L 164.672359 167.106858 
L 164.775656 164.590538 
L 164.827073 164.590538 
L 164.888571 163.611969 
L 165.091989 163.611969 
L 165.202851 162.912991 
L 165.263022 162.912991 
L 165.263022 161.095649 
L 165.452183 161.095649 
L 165.481861 160.396671 
L 165.727207 160.396671 
L 165.756415 158.020147 
L 165.853416 158.020147 
L 165.911355 155.643622 
L 166.150689 155.643622 
L 166.254949 153.546689 
L 166.273837 153.546689 
L 166.339784 152.707915 
L 166.424203 152.707915 
L 166.50821 152.008937 
L 166.554703 152.008937 
L 166.563987 151.589551 
L 166.68422 151.589551 
L 166.730241 151.030369 
L 166.84019 151.030369 
L 166.931279 150.331391 
L 167.299782 150.331391 
L 167.406159 149.632413 
L 167.450289 149.632413 
L 167.529438 148.653844 
L 167.616957 148.653844 
L 167.712715 147.815071 
L 167.979745 147.815071 
L 168.013901 147.255888 
L 168.175218 147.255888 
L 168.175218 147.116093 
L 168.293122 147.116093 
L 168.301512 145.718137 
L 168.451851 145.718137 
L 168.551352 144.879364 
L 168.650279 144.879364 
L 168.724103 144.040591 
L 168.76498 144.040591 
L 168.76498 143.900795 
L 168.911336 143.900795 
L 169.016268 143.062022 
L 169.080525 143.062022 
L 169.184432 142.642635 
L 169.192399 142.642635 
L 169.240123 142.223248 
L 169.413987 142.223248 
L 169.492438 141.104884 
L 169.562739 141.104884 
L 169.562739 140.825293 
L 169.756525 140.825293 
L 169.802711 140.405906 
L 169.902355 140.405906 
L 169.902355 140.26611 
L 170.054535 140.26611 
L 170.077246 139.287541 
L 170.287783 139.287541 
L 170.384663 138.169177 
L 170.414363 138.169177 
L 170.517909 136.351835 
L 170.569449 136.351835 
L 170.65013 135.093675 
L 170.846573 135.093675 
L 170.933166 134.115106 
L 171.062243 134.115106 
L 171.169071 133.276332 
L 171.190358 133.276332 
L 171.239923 132.856946 
L 171.638295 132.856946 
L 171.727873 132.437559 
L 171.76906 132.437559 
L 171.816987 130.760012 
L 171.892032 130.760012 
L 171.96675 130.061035 
L 172.128654 130.061035 
L 172.222398 129.641648 
L 172.335547 129.641648 
L 172.428173 128.383488 
L 172.461133 128.383488 
L 172.553086 127.824306 
L 172.579268 127.824306 
L 172.6901 126.845737 
L 172.73553 126.845737 
L 172.813131 126.286554 
L 172.871103 126.286554 
L 172.909642 126.006963 
L 173.082009 126.006963 
L 173.164388 124.609008 
L 173.202276 124.609008 
L 173.202276 124.189621 
L 173.402948 124.189621 
L 173.490011 123.490643 
L 173.564286 123.490643 
L 173.588974 122.512074 
L 173.681237 122.512074 
L 173.7608 120.554936 
L 173.852148 120.554936 
L 173.961129 119.576367 
L 174.03941 119.576367 
L 174.051422 118.87739 
L 174.283986 118.87739 
L 174.372603 117.759025 
L 174.407922 117.759025 
L 174.407922 117.479434 
L 174.519289 117.479434 
L 174.624134 116.780456 
L 174.635744 116.780456 
L 174.72257 116.221274 
L 174.791716 116.221274 
L 174.883481 115.242705 
L 174.917767 115.242705 
L 175.01454 113.005976 
L 175.031562 113.005976 
L 175.133337 111.747816 
L 175.2233 111.747816 
L 175.307216 110.629452 
L 175.435095 110.629452 
L 175.534516 109.511087 
L 175.556531 109.511087 
L 175.644313 108.113132 
L 175.688036 108.113132 
L 175.769718 106.854972 
L 175.807704 106.854972 
L 175.904998 106.155994 
L 175.969557 106.155994 
L 176.044569 104.618243 
L 176.09795 104.618243 
L 176.204217 103.220287 
L 176.241256 103.220287 
L 176.278215 102.661105 
L 176.383377 102.661105 
L 176.493109 102.101922 
L 176.513931 102.101922 
L 176.602144 100.564171 
L 176.684757 100.564171 
L 176.756719 99.445807 
L 176.894658 99.445807 
L 176.920082 99.02642 
L 177.02645 99.02642 
L 177.086938 96.789691 
L 177.147214 96.789691 
L 177.212275 95.950918 
L 177.311891 95.950918 
L 177.420805 94.552962 
L 177.509407 94.552962 
L 177.617081 91.47746 
L 177.631711 91.47746 
L 177.738624 90.079504 
L 177.743468 90.079504 
L 177.84969 87.70298 
L 177.888155 87.70298 
L 177.936114 86.724411 
L 178.007803 86.724411 
L 178.117149 83.369317 
L 178.14556 83.369317 
L 178.1692 82.530544 
L 178.282221 82.530544 
L 178.282221 82.390748 
L 178.427116 82.390748 
L 178.529209 80.573406 
L 178.547706 80.573406 
L 178.616894 78.476473 
L 178.704135 78.476473 
L 178.809153 76.65913 
L 178.818254 76.65913 
L 178.927101 75.820357 
L 178.940658 75.820357 
L 179.026275 73.583628 
L 179.066682 73.583628 
L 179.156136 72.88465 
L 179.214033 72.88465 
L 179.32041 71.906081 
L 179.373352 71.906081 
L 179.483128 70.36833 
L 179.526843 70.36833 
L 179.592207 69.11017 
L 179.648656 69.11017 
L 179.726511 68.690784 
L 179.765306 68.690784 
L 179.851207 67.013237 
L 179.89827 67.013237 
L 180.009 66.454055 
L 180.013244 66.454055 
L 180.081016 65.894872 
L 180.144311 65.894872 
L 180.245099 64.357121 
L 180.286921 64.357121 
L 180.374416 62.260188 
L 180.403483 62.260188 
L 180.511015 61.002028 
L 180.56453 61.002028 
L 180.658805 58.765299 
L 180.687395 58.765299 
L 180.752565 56.52857 
L 180.817489 56.52857 
L 180.878133 55.689796 
L 180.946606 55.689796 
L 181.046808 54.291841 
L 181.058793 54.291841 
L 181.154374 52.194907 
L 181.186117 52.194907 
L 181.296757 51.356134 
L 181.324306 51.356134 
L 181.39886 50.097974 
L 181.441876 50.097974 
L 181.535356 48.280632 
L 181.605134 48.280632 
L 181.713118 44.785743 
L 181.720805 44.785743 
L 181.831885 44.226561 
L 181.839519 44.226561 
L 181.934663 42.269423 
L 182.017956 42.269423 
L 182.123385 40.591876 
L 182.130891 40.591876 
L 182.239361 38.914329 
L 182.243089 38.914329 
L 182.343444 37.93576 
L 182.380465 37.93576 
L 182.4837 37.376578 
L 182.50207 37.376578 
L 182.611879 36.398009 
L 182.619174 36.398009 
L 182.72824 34.860258 
L 182.742729 34.860258 
L 182.804176 33.462302 
L 182.897729 33.462302 
L 183.00148 31.64496 
L 183.051344 31.64496 
L 183.132949 30.666391 
L 183.203597 30.666391 
L 183.309028 28.988844 
L 183.358008 28.988844 
L 183.445128 28.289867 
L 183.511045 28.289867 
L 183.566358 27.171502 
L 183.65243 27.171502 
L 183.669593 25.773547 
L 183.782441 25.773547 
L 183.864048 23.816409 
L 183.98237 23.816409 
L 184.066389 22.698044 
L 184.173338 22.698044 
L 184.279625 22.138862 
L 184.289556 22.138862 
L 184.372091 20.880702 
L 184.460785 20.880702 
L 184.460785 20.601111 
L 184.623836 20.601111 
L 184.708014 20.181724 
L 184.811056 20.181724 
L 184.820685 19.902133 
L 185.050168 19.902133 
L 185.107063 19.203155 
L 185.279751 19.203155 
L 185.335893 18.224586 
L 185.481626 18.224586 
L 185.481626 17.944995 
L 185.623071 17.944995 
L 185.653667 17.385813 
L 185.751209 17.385813 
L 185.787644 16.966426 
L 185.935628 16.966426 
L 185.989671 15.848062 
L 186.386737 15.848062 
L 186.494777 15.28888 
L 186.720338 15.28888 
L 186.803451 14.589902 
L 186.928792 14.589902 
L 187.005255 13.890924 
L 187.321627 13.890924 
L 187.365957 13.471537 
L 187.6132 13.471537 
L 187.6132 13.331742 
L 187.883808 13.331742 
L 187.964166 12.912355 
L 188.121117 12.912355 
L 188.218817 12.492968 
L 188.237239 12.492968 
L 188.289763 11.654195 
L 188.467155 11.654195 
L 188.55517 11.095013 
L 188.688914 11.095013 
L 188.691476 10.815422 
L 188.907848 10.815422 
L 188.907848 10.675626 
L 189.176406 10.675626 
L 189.260871 10.396035 
L 189.327652 10.396035 
L 189.327652 10.256239 
L 189.657719 10.256239 
L 189.684337 9.976648 
L 190.273746 9.976648 
L 190.273746 9.697057 
L 333.168 9.697057 
L 333.168 9.697057 
" style="fill:none;stroke:#ff00ff;stroke-linecap:square;stroke-width:1.5;"/>
   </g>
   <g id="line2d_49">
    <defs>
     <path d="M -0 8.485281 
L 5.091169 0 
L 0 -8.485281 
L -5.091169 -0 
z
" id="m39ce84642a" style="stroke:#ff00ff;stroke-linejoin:miter;stroke-width:1.5;"/>
    </defs>
    <g>
     <use style="fill-opacity:0;stroke:#ff00ff;stroke-linejoin:miter;stroke-width:1.5;" x="127.42552" xlink:href="#m39ce84642a" y="265.383137"/>
     <use style="fill-opacity:0;stroke:#ff00ff;stroke-linejoin:miter;stroke-width:1.5;" x="167.712715" xlink:href="#m39ce84642a" y="147.815071"/>
     <use style="fill-opacity:0;stroke:#ff00ff;stroke-linejoin:miter;stroke-width:1.5;" x="190.273746" xlink:href="#m39ce84642a" y="9.976648"/>
     <use style="fill-opacity:0;stroke:#ff00ff;stroke-linejoin:miter;stroke-width:1.5;" x="190.273746" xlink:href="#m39ce84642a" y="9.697057"/>
     <use style="fill-opacity:0;stroke:#ff00ff;stroke-linejoin:miter;stroke-width:1.5;" x="190.273746" xlink:href="#m39ce84642a" y="9.697057"/>
     <use style="fill-opacity:0;stroke:#ff00ff;stroke-linejoin:miter;stroke-width:1.5;" x="333.168" xlink:href="#m39ce84642a" y="9.697057"/>
    </g>
   </g>
   <g id="line2d_50">
    <path style="fill:none;stroke:#ff00ff;stroke-linecap:square;stroke-width:1.5;"/>
    <g/>
   </g>
   <g id="line2d_51">
    <path d="M 333.168 9.697057 
L 363.64328 289.176341 
" style="fill:none;stroke:#000080;stroke-linecap:square;stroke-width:1.5;"/>
    <g>
     <use style="fill-opacity:0;stroke:#000080;stroke-width:1.5;" x="333.168" xlink:href="#m1e5e68492a" y="9.697057"/>
     <use style="fill-opacity:0;stroke:#000080;stroke-width:1.5;" x="363.64328" xlink:href="#m1e5e68492a" y="289.176341"/>
    </g>
   </g>
   <g id="line2d_52">
    <path d="M 333.168 9.697057 
L 363.64328 152.288529 
" style="fill:none;stroke:#ff00ff;stroke-linecap:square;stroke-width:1.5;"/>
    <g>
     <use style="fill-opacity:0;stroke:#ff00ff;stroke-linejoin:miter;stroke-width:1.5;" x="333.168" xlink:href="#m39ce84642a" y="9.697057"/>
     <use style="fill-opacity:0;stroke:#ff00ff;stroke-linejoin:miter;stroke-width:1.5;" x="363.64328" xlink:href="#m39ce84642a" y="152.288529"/>
    </g>
   </g>
   <g id="line2d_53">
    <path d="M 333.168 294.88 
L 333.168 9.697057 
" style="fill:none;stroke:#000000;stroke-linecap:square;stroke-width:1.5;"/>
   </g>
   <g id="patch_3">
    <path d="M 56.12 294.88 
L 56.12 6.845228 
" style="fill:none;stroke:#000000;stroke-linecap:square;stroke-linejoin:miter;stroke-width:0.8;"/>
   </g>
   <g id="patch_4">
    <path d="M 333.168 294.88 
L 333.168 6.845228 
" style="fill:none;stroke:#000000;stroke-linecap:square;stroke-linejoin:miter;stroke-width:0.8;"/>
   </g>
   <g id="patch_5">
    <path d="M 56.12 294.88 
L 333.168 294.88 
" style="fill:none;stroke:#000000;stroke-linecap:square;stroke-linejoin:miter;stroke-width:0.8;"/>
   </g>
   <g id="patch_6">
    <path d="M 56.12 6.845228 
L 333.168 6.845228 
" style="fill:none;stroke:#000000;stroke-linecap:square;stroke-linejoin:miter;stroke-width:0.8;"/>
   </g>
   <g id="text_13">
    <!-- PSO1 -->
    <defs>
     <path d="M 19.671875 64.796875 
L 19.671875 37.40625 
L 32.078125 37.40625 
Q 38.96875 37.40625 42.71875 40.96875 
Q 46.484375 44.53125 46.484375 51.125 
Q 46.484375 57.671875 42.71875 61.234375 
Q 38.96875 64.796875 32.078125 64.796875 
z
M 9.8125 72.90625 
L 32.078125 72.90625 
Q 44.34375 72.90625 50.609375 67.359375 
Q 56.890625 61.8125 56.890625 51.125 
Q 56.890625 40.328125 50.609375 34.8125 
Q 44.34375 29.296875 32.078125 29.296875 
L 19.671875 29.296875 
L 19.671875 0 
L 9.8125 0 
z
" id="DejaVuSans-50"/>
     <path d="M 53.515625 70.515625 
L 53.515625 60.890625 
Q 47.90625 63.578125 42.921875 64.890625 
Q 37.9375 66.21875 33.296875 66.21875 
Q 25.25 66.21875 20.875 63.09375 
Q 16.5 59.96875 16.5 54.203125 
Q 16.5 49.359375 19.40625 46.890625 
Q 22.3125 44.4375 30.421875 42.921875 
L 36.375 41.703125 
Q 47.40625 39.59375 52.65625 34.296875 
Q 57.90625 29 57.90625 20.125 
Q 57.90625 9.515625 50.796875 4.046875 
Q 43.703125 -1.421875 29.984375 -1.421875 
Q 24.8125 -1.421875 18.96875 -0.25 
Q 13.140625 0.921875 6.890625 3.21875 
L 6.890625 13.375 
Q 12.890625 10.015625 18.65625 8.296875 
Q 24.421875 6.59375 29.984375 6.59375 
Q 38.421875 6.59375 43.015625 9.90625 
Q 47.609375 13.234375 47.609375 19.390625 
Q 47.609375 24.75 44.3125 27.78125 
Q 41.015625 30.8125 33.5 32.328125 
L 27.484375 33.5 
Q 16.453125 35.6875 11.515625 40.375 
Q 6.59375 45.0625 6.59375 53.421875 
Q 6.59375 63.09375 13.40625 68.65625 
Q 20.21875 74.21875 32.171875 74.21875 
Q 37.3125 74.21875 42.625 73.28125 
Q 47.953125 72.359375 53.515625 70.515625 
z
" id="DejaVuSans-53"/>
     <path d="M 39.40625 66.21875 
Q 28.65625 66.21875 22.328125 58.203125 
Q 16.015625 50.203125 16.015625 36.375 
Q 16.015625 22.609375 22.328125 14.59375 
Q 28.65625 6.59375 39.40625 6.59375 
Q 50.140625 6.59375 56.421875 14.59375 
Q 62.703125 22.609375 62.703125 36.375 
Q 62.703125 50.203125 56.421875 58.203125 
Q 50.140625 66.21875 39.40625 66.21875 
z
M 39.40625 74.21875 
Q 54.734375 74.21875 63.90625 63.9375 
Q 73.09375 53.65625 73.09375 36.375 
Q 73.09375 19.140625 63.90625 8.859375 
Q 54.734375 -1.421875 39.40625 -1.421875 
Q 24.03125 -1.421875 14.8125 8.828125 
Q 5.609375 19.09375 5.609375 36.375 
Q 5.609375 53.65625 14.8125 63.9375 
Q 24.03125 74.21875 39.40625 74.21875 
z
" id="DejaVuSans-4f"/>
    </defs>
    <g transform="translate(369.18424 293.867279)scale(0.17 -0.17)">
     <use xlink:href="#DejaVuSans-50"/>
     <use x="60.302734" xlink:href="#DejaVuSans-53"/>
     <use x="123.779297" xlink:href="#DejaVuSans-4f"/>
     <use x="202.490234" xlink:href="#DejaVuSans-31"/>
    </g>
   </g>
   <g id="text_14">
    <!-- PSO2 -->
    <g transform="translate(369.18424 156.979466)scale(0.17 -0.17)">
     <use xlink:href="#DejaVuSans-50"/>
     <use x="60.302734" xlink:href="#DejaVuSans-53"/>
     <use x="123.779297" xlink:href="#DejaVuSans-4f"/>
     <use x="202.490234" xlink:href="#DejaVuSans-32"/>
    </g>
   </g>
   <g id="text_15">
    <!-- best 2009 -->
    <defs>
     <path d="M 48.6875 27.296875 
Q 48.6875 37.203125 44.609375 42.84375 
Q 40.53125 48.484375 33.40625 48.484375 
Q 26.265625 48.484375 22.1875 42.84375 
Q 18.109375 37.203125 18.109375 27.296875 
Q 18.109375 17.390625 22.1875 11.75 
Q 26.265625 6.109375 33.40625 6.109375 
Q 40.53125 6.109375 44.609375 11.75 
Q 48.6875 17.390625 48.6875 27.296875 
z
M 18.109375 46.390625 
Q 20.953125 51.265625 25.265625 53.625 
Q 29.59375 56 35.59375 56 
Q 45.5625 56 51.78125 48.09375 
Q 58.015625 40.1875 58.015625 27.296875 
Q 58.015625 14.40625 51.78125 6.484375 
Q 45.5625 -1.421875 35.59375 -1.421875 
Q 29.59375 -1.421875 25.265625 0.953125 
Q 20.953125 3.328125 18.109375 8.203125 
L 18.109375 0 
L 9.078125 0 
L 9.078125 75.984375 
L 18.109375 75.984375 
z
" id="DejaVuSans-62"/>
     <path d="M 10.984375 1.515625 
L 10.984375 10.5 
Q 14.703125 8.734375 18.5 7.8125 
Q 22.3125 6.890625 25.984375 6.890625 
Q 35.75 6.890625 40.890625 13.453125 
Q 46.046875 20.015625 46.78125 33.40625 
Q 43.953125 29.203125 39.59375 26.953125 
Q 35.25 24.703125 29.984375 24.703125 
Q 19.046875 24.703125 12.671875 31.3125 
Q 6.296875 37.9375 6.296875 49.421875 
Q 6.296875 60.640625 12.9375 67.421875 
Q 19.578125 74.21875 30.609375 74.21875 
Q 43.265625 74.21875 49.921875 64.515625 
Q 56.59375 54.828125 56.59375 36.375 
Q 56.59375 19.140625 48.40625 8.859375 
Q 40.234375 -1.421875 26.421875 -1.421875 
Q 22.703125 -1.421875 18.890625 -0.6875 
Q 15.09375 0.046875 10.984375 1.515625 
z
M 30.609375 32.421875 
Q 37.25 32.421875 41.125 36.953125 
Q 45.015625 41.5 45.015625 49.421875 
Q 45.015625 57.28125 41.125 61.84375 
Q 37.25 66.40625 30.609375 66.40625 
Q 23.96875 66.40625 20.09375 61.84375 
Q 16.21875 57.28125 16.21875 49.421875 
Q 16.21875 41.5 20.09375 36.953125 
Q 23.96875 32.421875 30.609375 32.421875 
z
" id="DejaVuSans-39"/>
    </defs>
    <g transform="translate(369.18424 20.091654)scale(0.17 -0.17)">
     <use xlink:href="#DejaVuSans-62"/>
     <use x="63.476562" xlink:href="#DejaVuSans-65"/>
     <use x="125" xlink:href="#DejaVuSans-73"/>
     <use x="177.099609" xlink:href="#DejaVuSans-74"/>
     <use x="216.308594" xlink:href="#DejaVuSans-20"/>
     <use x="248.095703" xlink:href="#DejaVuSans-32"/>
     <use x="311.71875" xlink:href="#DejaVuSans-30"/>
     <use x="375.341797" xlink:href="#DejaVuSans-30"/>
     <use x="438.964844" xlink:href="#DejaVuSans-39"/>
    </g>
   </g>
   <g id="text_16">
    <!-- bbob f6-f9, 3-D -->
    <defs>
     <path d="M 40.578125 39.3125 
Q 47.65625 37.796875 51.625 33 
Q 55.609375 28.21875 55.609375 21.1875 
Q 55.609375 10.40625 48.1875 4.484375 
Q 40.765625 -1.421875 27.09375 -1.421875 
Q 22.515625 -1.421875 17.65625 -0.515625 
Q 12.796875 0.390625 7.625 2.203125 
L 7.625 11.71875 
Q 11.71875 9.328125 16.59375 8.109375 
Q 21.484375 6.890625 26.8125 6.890625 
Q 36.078125 6.890625 40.9375 10.546875 
Q 45.796875 14.203125 45.796875 21.1875 
Q 45.796875 27.640625 41.28125 31.265625 
Q 36.765625 34.90625 28.71875 34.90625 
L 20.21875 34.90625 
L 20.21875 43.015625 
L 29.109375 43.015625 
Q 36.375 43.015625 40.234375 45.921875 
Q 44.09375 48.828125 44.09375 54.296875 
Q 44.09375 59.90625 40.109375 62.90625 
Q 36.140625 65.921875 28.71875 65.921875 
Q 24.65625 65.921875 20.015625 65.03125 
Q 15.375 64.15625 9.8125 62.3125 
L 9.8125 71.09375 
Q 15.4375 72.65625 20.34375 73.4375 
Q 25.25 74.21875 29.59375 74.21875 
Q 40.828125 74.21875 47.359375 69.109375 
Q 53.90625 64.015625 53.90625 55.328125 
Q 53.90625 49.265625 50.4375 45.09375 
Q 46.96875 40.921875 40.578125 39.3125 
z
" id="DejaVuSans-33"/>
     <path d="M 19.671875 64.796875 
L 19.671875 8.109375 
L 31.59375 8.109375 
Q 46.6875 8.109375 53.6875 14.9375 
Q 60.6875 21.78125 60.6875 36.53125 
Q 60.6875 51.171875 53.6875 57.984375 
Q 46.6875 64.796875 31.59375 64.796875 
z
M 9.8125 72.90625 
L 30.078125 72.90625 
Q 51.265625 72.90625 61.171875 64.09375 
Q 71.09375 55.28125 71.09375 36.53125 
Q 71.09375 17.671875 61.125 8.828125 
Q 51.171875 0 30.078125 0 
L 9.8125 0 
z
" id="DejaVuSans-44"/>
    </defs>
    <g transform="translate(58.89048 17.475982)scale(0.102 -0.102)">
     <use xlink:href="#DejaVuSans-62"/>
     <use x="63.476562" xlink:href="#DejaVuSans-62"/>
     <use x="126.953125" xlink:href="#DejaVuSans-6f"/>
     <use x="188.134766" xlink:href="#DejaVuSans-62"/>
     <use x="251.611328" xlink:href="#DejaVuSans-20"/>
     <use x="283.398438" xlink:href="#DejaVuSans-66"/>
     <use x="318.603516" xlink:href="#DejaVuSans-36"/>
     <use x="382.226562" xlink:href="#DejaVuSans-2d"/>
     <use x="418.310547" xlink:href="#DejaVuSans-66"/>
     <use x="453.515625" xlink:href="#DejaVuSans-39"/>
     <use x="517.138672" xlink:href="#DejaVuSans-2c"/>
     <use x="548.925781" xlink:href="#DejaVuSans-20"/>
     <use x="580.712891" xlink:href="#DejaVuSans-33"/>
     <use x="644.335938" xlink:href="#DejaVuSans-2d"/>
     <use x="680.419922" xlink:href="#DejaVuSans-44"/>
    </g>
    <!-- 51 targets: 100..1e-08 -->
    <defs>
     <path d="M 10.796875 72.90625 
L 49.515625 72.90625 
L 49.515625 64.59375 
L 19.828125 64.59375 
L 19.828125 46.734375 
Q 21.96875 47.46875 24.109375 47.828125 
Q 26.265625 48.1875 28.421875 48.1875 
Q 40.625 48.1875 47.75 41.5 
Q 54.890625 34.8125 54.890625 23.390625 
Q 54.890625 11.625 47.5625 5.09375 
Q 40.234375 -1.421875 26.90625 -1.421875 
Q 22.3125 -1.421875 17.546875 -0.640625 
Q 12.796875 0.140625 7.71875 1.703125 
L 7.71875 11.625 
Q 12.109375 9.234375 16.796875 8.0625 
Q 21.484375 6.890625 26.703125 6.890625 
Q 35.15625 6.890625 40.078125 11.328125 
Q 45.015625 15.765625 45.015625 23.390625 
Q 45.015625 31 40.078125 35.4375 
Q 35.15625 39.890625 26.703125 39.890625 
Q 22.75 39.890625 18.8125 39.015625 
Q 14.890625 38.140625 10.796875 36.28125 
z
" id="DejaVuSans-35"/>
     <path d="M 11.71875 12.40625 
L 22.015625 12.40625 
L 22.015625 0 
L 11.71875 0 
z
M 11.71875 51.703125 
L 22.015625 51.703125 
L 22.015625 39.3125 
L 11.71875 39.3125 
z
" id="DejaVuSans-3a"/>
    </defs>
    <g transform="translate(58.89048 28.89775)scale(0.102 -0.102)">
     <use xlink:href="#DejaVuSans-35"/>
     <use x="63.623047" xlink:href="#DejaVuSans-31"/>
     <use x="127.246094" xlink:href="#DejaVuSans-20"/>
     <use x="159.033203" xlink:href="#DejaVuSans-74"/>
     <use x="198.242188" xlink:href="#DejaVuSans-61"/>
     <use x="259.521484" xlink:href="#DejaVuSans-72"/>
     <use x="300.619141" xlink:href="#DejaVuSans-67"/>
     <use x="364.095703" xlink:href="#DejaVuSans-65"/>
     <use x="425.619141" xlink:href="#DejaVuSans-74"/>
     <use x="464.828125" xlink:href="#DejaVuSans-73"/>
     <use x="516.927734" xlink:href="#DejaVuSans-3a"/>
     <use x="550.619141" xlink:href="#DejaVuSans-20"/>
     <use x="582.40625" xlink:href="#DejaVuSans-31"/>
     <use x="646.029297" xlink:href="#DejaVuSans-30"/>
     <use x="709.652344" xlink:href="#DejaVuSans-30"/>
     <use x="773.275391" xlink:href="#DejaVuSans-2e"/>
     <use x="805.0625" xlink:href="#DejaVuSans-2e"/>
     <use x="836.849609" xlink:href="#DejaVuSans-31"/>
     <use x="900.472656" xlink:href="#DejaVuSans-65"/>
     <use x="961.996094" xlink:href="#DejaVuSans-2d"/>
     <use x="998.080078" xlink:href="#DejaVuSans-30"/>
     <use x="1061.703125" xlink:href="#DejaVuSans-38"/>
    </g>
    <!-- 15 instances -->
    <g transform="translate(58.89048 40.319519)scale(0.102 -0.102)">
     <use xlink:href="#DejaVuSans-31"/>
     <use x="63.623047" xlink:href="#DejaVuSans-35"/>
     <use x="127.246094" xlink:href="#DejaVuSans-20"/>
     <use x="159.033203" xlink:href="#DejaVuSans-69"/>
     <use x="186.816406" xlink:href="#DejaVuSans-6e"/>
     <use x="250.195312" xlink:href="#DejaVuSans-73"/>
     <use x="302.294922" xlink:href="#DejaVuSans-74"/>
     <use x="341.503906" xlink:href="#DejaVuSans-61"/>
     <use x="402.783203" xlink:href="#DejaVuSans-6e"/>
     <use x="466.162109" xlink:href="#DejaVuSans-63"/>
     <use x="521.142578" xlink:href="#DejaVuSans-65"/>
     <use x="582.666016" xlink:href="#DejaVuSans-73"/>
    </g>
   </g>
   <g id="text_17">
    <!-- v0.0.0 -->
    <g style="fill:#808080;" transform="translate(178.96275 289.919965)scale(0.1 -0.1)">
     <use xlink:href="#DejaVuSans-76"/>
     <use x="59.179688" xlink:href="#DejaVuSans-30"/>
     <use x="122.802734" xlink:href="#DejaVuSans-2e"/>
     <use x="154.589844" xlink:href="#DejaVuSans-30"/>
     <use x="218.212891" xlink:href="#DejaVuSans-2e"/>
     <use x="250" xlink:href="#DejaVuSans-30"/>
    </g>
   </g>
  </g>
 </g>
 <defs>
  <clipPath id="p713c05ae45">
   <rect height="288.034772" width="277.048" x="56.12" y="6.845228"/>
  </clipPath>
 </defs>
</svg>
