<?xml version="1.0" encoding="utf-8" standalone="no"?>
<!DOCTYPE svg PUBLIC "-//W3C//DTD SVG 1.1//EN"
  "http://www.w3.org/Graphics/SVG/1.1/DTD/svg11.dtd">
<!-- Created with matplotlib (http://matplotlib.org/) -->
<svg height="345.6pt" version="1.1" viewBox="0 0 460.8 345.6" width="460.8pt" xmlns="http://www.w3.org/2000/svg" xmlns:xlink="http://www.w3.org/1999/xlink">
 <defs>
  <style type="text/css">
*{stroke-linecap:butt;stroke-linejoin:round;}
  </style>
 </defs>
 <g id="figure_1">
  <g id="patch_1">
   <path d="M 0 345.6 
L 460.8 345.6 
L 460.8 0 
L 0 0 
z
" style="fill:#ffffff;"/>
  </g>
  <g id="axes_1">
   <g id="patch_2">
    <path d="M 56.12 294.88 
L 333.168 294.88 
L 333.168 6.845228 
L 56.12 6.845228 
z
" style="fill:#ffffff;"/>
   </g>
   <g id="line2d_1">
    <path d="M 4.627463 294.88 
L 4.627463 292.643271 
L 23.511104 292.643271 
L 23.511104 291.524907 
L 51.175139 291.524907 
L 51.175139 290.406542 
L 68.872887 290.406542 
L 68.872887 289.288178 
L 78.839174 289.288178 
L 78.839174 288.169813 
L 86.186351 288.169813 
L 86.186351 287.051449 
L 92.287186 287.051449 
L 92.287186 285.933084 
L 92.904808 285.933084 
L 92.904808 284.81472 
L 94.543059 284.81472 
L 94.543059 283.696355 
L 95.085903 283.696355 
L 95.085903 282.577991 
L 96.618578 282.577991 
L 96.618578 281.459626 
L 97.258229 281.459626 
L 97.258229 280.341262 
L 98.688305 280.341262 
L 98.760375 278.104533 
L 99.806659 278.104533 
L 99.806659 276.986168 
L 100.664619 276.986168 
L 100.664619 275.867804 
L 101.358566 275.867804 
L 101.358566 274.749439 
L 102.20309 274.749439 
L 102.20309 273.631075 
L 102.895343 273.631075 
L 102.895343 272.51271 
L 103.990531 272.51271 
L 103.990531 271.394346 
L 105.415256 271.394346 
L 105.415256 270.275981 
L 106.955567 270.275981 
L 106.955567 269.157617 
L 108.20385 269.157617 
L 108.20385 268.039252 
L 109.675221 268.039252 
L 109.675221 266.920888 
L 110.782167 266.920888 
L 110.782167 265.802523 
L 111.135855 265.802523 
L 111.135855 264.684159 
L 111.413657 264.684159 
L 111.413657 263.565795 
L 111.855724 263.565795 
L 111.922736 261.329066 
L 114.293036 261.329066 
L 114.380214 259.092337 
L 114.837842 259.092337 
L 114.837842 257.973972 
L 115.256077 257.973972 
L 115.256077 256.855608 
L 116.010559 256.855608 
L 116.036901 254.618879 
L 116.631902 254.618879 
L 116.65731 252.38215 
L 117.009137 252.38215 
L 117.009137 251.263785 
L 119.569706 251.263785 
L 119.569706 250.145421 
L 120.242208 250.145421 
L 120.242208 249.027056 
L 120.948828 249.027056 
L 120.948828 247.908692 
L 121.417105 247.908692 
L 121.417105 246.790327 
L 122.151854 246.790327 
L 122.151854 245.671963 
L 123.396663 245.671963 
L 123.396663 244.553598 
L 124.069494 244.553598 
L 124.069494 243.435234 
L 125.094073 243.435234 
L 125.094073 242.316869 
L 126.031592 242.316869 
L 126.031592 241.198505 
L 126.366778 241.198505 
L 126.366778 240.08014 
L 126.752093 240.08014 
L 126.752093 238.961776 
L 127.416471 238.961776 
L 127.511249 236.725047 
L 128.277075 236.725047 
L 128.277075 235.606682 
L 128.985463 235.606682 
L 128.985463 234.488318 
L 129.450049 234.488318 
L 129.450049 233.369954 
L 129.677716 233.369954 
L 129.677716 232.251589 
L 129.808158 232.251589 
L 129.808158 231.133225 
L 130.411737 231.133225 
L 130.411737 230.01486 
L 130.660852 230.01486 
L 130.660852 228.896496 
L 131.257433 228.896496 
L 131.257433 227.778131 
L 131.537454 227.778131 
L 131.537454 226.659767 
L 131.686367 226.659767 
L 131.686367 225.541402 
L 131.949115 225.541402 
L 131.949115 224.423038 
L 132.72406 224.423038 
L 132.833383 222.186309 
L 132.882847 222.186309 
L 132.882847 221.067944 
L 134.056882 221.067944 
L 134.056882 219.94958 
L 134.73529 219.94958 
L 134.73529 218.831215 
L 135.456111 218.831215 
L 135.456111 217.712851 
L 135.917635 217.712851 
L 135.917635 216.594486 
L 136.686739 216.594486 
L 136.686739 215.476122 
L 136.82081 215.476122 
L 136.82081 214.357757 
L 137.132207 214.357757 
L 137.132207 213.239393 
L 137.760898 213.239393 
L 137.760898 212.121028 
L 138.345851 212.121028 
L 138.345851 211.002664 
L 138.890669 211.002664 
L 138.890669 209.884299 
L 139.411992 209.884299 
L 139.411992 208.765935 
L 139.779642 208.765935 
L 139.779642 207.64757 
L 140.687737 207.64757 
L 140.756604 205.410841 
L 140.818973 205.410841 
L 140.818973 204.292477 
L 141.334118 204.292477 
L 141.334118 203.174112 
L 141.681012 203.174112 
L 141.681012 202.055748 
L 141.793145 202.055748 
L 141.793145 200.937384 
L 142.428336 200.937384 
L 142.428336 199.819019 
L 142.541345 199.819019 
L 142.541345 198.700655 
L 142.776273 198.700655 
L 142.776273 197.58229 
L 143.117307 197.58229 
L 143.117307 196.463926 
L 143.392849 196.463926 
L 143.478392 193.108832 
L 143.863366 193.108832 
L 143.863366 191.990468 
L 144.122158 191.990468 
L 144.122158 190.872103 
L 144.321345 190.872103 
L 144.321345 189.753739 
L 144.752587 189.753739 
L 144.752587 188.635374 
L 144.929944 188.635374 
L 144.929944 187.51701 
L 145.785609 187.51701 
L 145.887895 185.280281 
L 147.255159 185.280281 
L 147.255159 184.161916 
L 147.782136 184.161916 
L 147.782136 183.043552 
L 149.061881 183.043552 
L 149.061881 181.925187 
L 150.378311 181.925187 
L 150.463774 179.688458 
L 151.887894 179.688458 
L 151.887894 178.570094 
L 152.419095 178.570094 
L 152.419095 177.451729 
L 152.686469 177.451729 
L 152.686469 176.333365 
L 153.568599 176.333365 
L 153.568599 175.215 
L 154.701632 175.215 
L 154.701632 174.096636 
L 154.93872 174.096636 
L 154.93872 172.978271 
L 155.129314 172.978271 
L 155.129314 171.859907 
L 155.344578 171.859907 
L 155.344578 170.741543 
L 155.580934 170.741543 
L 155.657252 168.504814 
L 155.814083 168.504814 
L 155.814083 167.386449 
L 156.77298 167.386449 
L 156.77298 166.268085 
L 157.795191 166.268085 
L 157.795191 165.14972 
L 157.972811 165.14972 
L 157.972811 164.031356 
L 158.691918 164.031356 
L 158.709516 161.794627 
L 158.88451 161.794627 
L 158.88451 160.676262 
L 159.143705 160.676262 
L 159.143705 159.557898 
L 159.717134 159.557898 
L 159.756484 157.321169 
L 160.189542 157.321169 
L 160.189542 156.202804 
L 160.320163 156.202804 
L 160.320163 155.08444 
L 160.469656 155.08444 
L 160.469656 153.966075 
L 160.764798 153.966075 
L 160.80377 151.729346 
L 161.247608 151.729346 
L 161.247608 150.610982 
L 161.555898 150.610982 
L 161.641386 148.374253 
L 162.127562 148.374253 
L 162.127562 147.255888 
L 162.441844 147.255888 
L 162.52657 145.019159 
L 162.638891 145.019159 
L 162.638891 143.900795 
L 163.007511 143.900795 
L 163.007511 142.78243 
L 163.42196 142.78243 
L 163.42196 141.664066 
L 163.912956 141.664066 
L 163.956757 139.427337 
L 164.159698 139.427337 
L 164.159698 138.308973 
L 164.303203 138.308973 
L 164.303203 137.190608 
L 164.706516 137.190608 
L 164.706516 136.072244 
L 165.032231 136.072244 
L 165.032231 134.953879 
L 165.456143 134.953879 
L 165.456143 133.835515 
L 165.768084 133.835515 
L 165.768084 132.71715 
L 165.952278 132.71715 
L 165.952278 131.598786 
L 166.140228 131.598786 
L 166.234147 129.362057 
L 166.430284 129.362057 
L 166.477922 127.125328 
L 166.647777 127.125328 
L 166.661625 124.888599 
L 166.851602 124.888599 
L 166.852971 122.65187 
L 167.051686 122.65187 
L 167.051686 121.533505 
L 167.233407 121.533505 
L 167.338863 117.060047 
L 167.441031 117.060047 
L 167.441031 115.941683 
L 167.579378 115.941683 
L 167.644869 112.586589 
L 167.833393 112.586589 
L 167.921096 108.113132 
L 168.024987 108.113132 
L 168.024987 106.994767 
L 168.195487 106.994767 
L 168.277588 103.639674 
L 168.36306 103.639674 
L 168.36306 102.521309 
L 168.510377 102.521309 
L 168.562509 98.047851 
L 168.652745 98.047851 
L 168.652745 96.929487 
L 168.79272 96.929487 
L 168.844004 93.574393 
L 168.944903 93.574393 
L 169.048828 91.337664 
L 169.104159 91.337664 
L 169.193992 87.982571 
L 169.42892 87.982571 
L 169.460708 84.627477 
L 169.584941 84.627477 
L 169.584941 83.509113 
L 169.715238 83.509113 
L 169.818078 81.272384 
L 170.035586 81.272384 
L 170.13314 79.035655 
L 170.146708 79.035655 
L 170.146708 77.917291 
L 170.375743 77.917291 
L 170.39135 75.680562 
L 170.503524 75.680562 
L 170.559889 73.443833 
L 170.647934 73.443833 
L 170.656714 70.088739 
L 170.929927 70.088739 
L 170.929927 68.970375 
L 171.107192 68.970375 
L 171.107192 67.85201 
L 171.242398 67.85201 
L 171.242398 66.733646 
L 171.519054 66.733646 
L 171.519054 65.615281 
L 171.655213 65.615281 
L 171.655213 64.496917 
L 171.791328 64.496917 
L 171.791328 63.378552 
L 172.041145 63.378552 
L 172.135031 58.905094 
L 172.174251 58.905094 
L 172.255421 55.550001 
L 172.292372 55.550001 
L 172.375967 52.194907 
L 172.41365 52.194907 
L 172.503558 47.72145 
L 172.536046 47.72145 
L 172.617488 44.366356 
L 172.655623 44.366356 
L 172.74039 41.011263 
L 172.919264 41.011263 
L 172.919264 39.892898 
L 173.14383 39.892898 
L 173.14383 38.774534 
L 173.744612 38.774534 
L 173.744612 37.656169 
L 174.250488 37.656169 
L 174.250488 36.537805 
L 174.678633 36.537805 
L 174.678633 35.41944 
L 175.260833 35.41944 
L 175.260833 34.301076 
L 175.795503 34.301076 
L 175.795503 33.182711 
L 176.271357 33.182711 
L 176.271357 32.064347 
L 176.701232 32.064347 
L 176.701232 30.945982 
L 177.120618 30.945982 
L 177.120618 29.827618 
L 177.534428 29.827618 
L 177.534428 28.709253 
L 177.929887 28.709253 
L 177.929887 27.590889 
L 178.311532 27.590889 
L 178.311532 26.472524 
L 178.735022 26.472524 
L 178.735022 25.35416 
L 179.133593 25.35416 
L 179.133593 24.235795 
L 179.540808 24.235795 
L 179.540808 23.117431 
L 179.916845 23.117431 
L 179.916845 21.999066 
L 180.282325 21.999066 
L 180.282325 20.880702 
L 180.632828 20.880702 
L 180.632828 19.762337 
L 180.966693 19.762337 
L 180.966693 18.643973 
L 181.253376 18.643973 
L 181.253376 17.525609 
L 181.608615 17.525609 
L 181.608615 16.407244 
L 181.939027 16.407244 
L 181.939027 15.28888 
L 182.274373 15.28888 
L 182.274373 14.170515 
L 182.540766 14.170515 
L 182.540766 13.052151 
L 182.850116 13.052151 
L 182.850116 11.933786 
L 183.129055 11.933786 
L 183.129055 10.815422 
L 183.38733 10.815422 
L 183.38733 9.697057 
L 333.168 9.697057 
L 333.168 9.697057 
" style="fill:none;stroke:#f5deb3;stroke-linecap:square;stroke-width:4;"/>
   </g>
   <g id="line2d_2">
    <defs>
     <path d="M -0 7.778175 
L 7.778175 0 
L 0 -7.778175 
L -7.778175 -0 
z
" id="m65db5bd639" style="stroke:#f5deb3;stroke-linejoin:miter;stroke-width:1.5;"/>
    </defs>
    <g>
     <use style="fill:#f5deb3;stroke:#f5deb3;stroke-linejoin:miter;stroke-width:1.5;" x="130.411737" xlink:href="#m65db5bd639" y="231.133225"/>
     <use style="fill:#f5deb3;stroke:#f5deb3;stroke-linejoin:miter;stroke-width:1.5;" x="166.430284" xlink:href="#m65db5bd639" y="129.362057"/>
     <use style="fill:#f5deb3;stroke:#f5deb3;stroke-linejoin:miter;stroke-width:1.5;" x="183.38733" xlink:href="#m65db5bd639" y="10.815422"/>
     <use style="fill:#f5deb3;stroke:#f5deb3;stroke-linejoin:miter;stroke-width:1.5;" x="183.38733" xlink:href="#m65db5bd639" y="9.697057"/>
     <use style="fill:#f5deb3;stroke:#f5deb3;stroke-linejoin:miter;stroke-width:1.5;" x="333.168" xlink:href="#m65db5bd639" y="9.697057"/>
    </g>
   </g>
   <g id="line2d_3">
    <path style="fill:none;stroke:#f5deb3;stroke-linecap:square;stroke-width:4;"/>
    <g/>
   </g>
   <g id="line2d_4">
    <path d="M 333.168 9.697057 
L 363.64328 15.400716 
" style="fill:none;stroke:#f5deb3;stroke-linecap:square;stroke-width:4;"/>
    <g>
     <use style="fill:#f5deb3;stroke:#f5deb3;stroke-linejoin:miter;stroke-width:1.5;" x="333.168" xlink:href="#m65db5bd639" y="9.697057"/>
     <use style="fill:#f5deb3;stroke:#f5deb3;stroke-linejoin:miter;stroke-width:1.5;" x="363.64328" xlink:href="#m65db5bd639" y="15.400716"/>
    </g>
   </g>
   <g id="matplotlib.axis_1">
    <g id="xtick_1">
     <g id="line2d_5">
      <path clip-path="url(#p76d107234b)" d="M 56.12 294.88 
L 56.12 6.845228 
" style="fill:none;stroke:#b0b0b0;stroke-linecap:square;stroke-width:0.8;"/>
     </g>
     <g id="line2d_6">
      <defs>
       <path d="M 0 0 
L 0 3.5 
" id="m442d2fc084" style="stroke:#000000;stroke-width:0.8;"/>
      </defs>
      <g>
       <use style="stroke:#000000;stroke-width:0.8;" x="56.12" xlink:href="#m442d2fc084" y="294.88"/>
      </g>
     </g>
     <g id="text_1">
      <!-- 0 -->
      <defs>
       <path d="M 31.78125 66.40625 
Q 24.171875 66.40625 20.328125 58.90625 
Q 16.5 51.421875 16.5 36.375 
Q 16.5 21.390625 20.328125 13.890625 
Q 24.171875 6.390625 31.78125 6.390625 
Q 39.453125 6.390625 43.28125 13.890625 
Q 47.125 21.390625 47.125 36.375 
Q 47.125 51.421875 43.28125 58.90625 
Q 39.453125 66.40625 31.78125 66.40625 
z
M 31.78125 74.21875 
Q 44.046875 74.21875 50.515625 64.515625 
Q 56.984375 54.828125 56.984375 36.375 
Q 56.984375 17.96875 50.515625 8.265625 
Q 44.046875 -1.421875 31.78125 -1.421875 
Q 19.53125 -1.421875 13.0625 8.265625 
Q 6.59375 17.96875 6.59375 36.375 
Q 6.59375 54.828125 13.0625 64.515625 
Q 19.53125 74.21875 31.78125 74.21875 
z
" id="DejaVuSans-30"/>
      </defs>
      <g transform="translate(49.7575 317.076875)scale(0.2 -0.2)">
       <use xlink:href="#DejaVuSans-30"/>
      </g>
     </g>
    </g>
    <g id="xtick_2">
     <g id="line2d_7">
      <path clip-path="url(#p76d107234b)" d="M 135.276571 294.88 
L 135.276571 6.845228 
" style="fill:none;stroke:#b0b0b0;stroke-linecap:square;stroke-width:0.8;"/>
     </g>
     <g id="line2d_8">
      <g>
       <use style="stroke:#000000;stroke-width:0.8;" x="135.276571" xlink:href="#m442d2fc084" y="294.88"/>
      </g>
     </g>
     <g id="text_2">
      <!-- 2 -->
      <defs>
       <path d="M 19.1875 8.296875 
L 53.609375 8.296875 
L 53.609375 0 
L 7.328125 0 
L 7.328125 8.296875 
Q 12.9375 14.109375 22.625 23.890625 
Q 32.328125 33.6875 34.8125 36.53125 
Q 39.546875 41.84375 41.421875 45.53125 
Q 43.3125 49.21875 43.3125 52.78125 
Q 43.3125 58.59375 39.234375 62.25 
Q 35.15625 65.921875 28.609375 65.921875 
Q 23.96875 65.921875 18.8125 64.3125 
Q 13.671875 62.703125 7.8125 59.421875 
L 7.8125 69.390625 
Q 13.765625 71.78125 18.9375 73 
Q 24.125 74.21875 28.421875 74.21875 
Q 39.75 74.21875 46.484375 68.546875 
Q 53.21875 62.890625 53.21875 53.421875 
Q 53.21875 48.921875 51.53125 44.890625 
Q 49.859375 40.875 45.40625 35.40625 
Q 44.1875 33.984375 37.640625 27.21875 
Q 31.109375 20.453125 19.1875 8.296875 
z
" id="DejaVuSans-32"/>
      </defs>
      <g transform="translate(128.914071 317.076875)scale(0.2 -0.2)">
       <use xlink:href="#DejaVuSans-32"/>
      </g>
     </g>
    </g>
    <g id="xtick_3">
     <g id="line2d_9">
      <path clip-path="url(#p76d107234b)" d="M 214.433143 294.88 
L 214.433143 6.845228 
" style="fill:none;stroke:#b0b0b0;stroke-linecap:square;stroke-width:0.8;"/>
     </g>
     <g id="line2d_10">
      <g>
       <use style="stroke:#000000;stroke-width:0.8;" x="214.433143" xlink:href="#m442d2fc084" y="294.88"/>
      </g>
     </g>
     <g id="text_3">
      <!-- 4 -->
      <defs>
       <path d="M 37.796875 64.3125 
L 12.890625 25.390625 
L 37.796875 25.390625 
z
M 35.203125 72.90625 
L 47.609375 72.90625 
L 47.609375 25.390625 
L 58.015625 25.390625 
L 58.015625 17.1875 
L 47.609375 17.1875 
L 47.609375 0 
L 37.796875 0 
L 37.796875 17.1875 
L 4.890625 17.1875 
L 4.890625 26.703125 
z
" id="DejaVuSans-34"/>
      </defs>
      <g transform="translate(208.070643 317.076875)scale(0.2 -0.2)">
       <use xlink:href="#DejaVuSans-34"/>
      </g>
     </g>
    </g>
    <g id="xtick_4">
     <g id="line2d_11">
      <path clip-path="url(#p76d107234b)" d="M 293.589714 294.88 
L 293.589714 6.845228 
" style="fill:none;stroke:#b0b0b0;stroke-linecap:square;stroke-width:0.8;"/>
     </g>
     <g id="line2d_12">
      <g>
       <use style="stroke:#000000;stroke-width:0.8;" x="293.589714" xlink:href="#m442d2fc084" y="294.88"/>
      </g>
     </g>
     <g id="text_4">
      <!-- 6 -->
      <defs>
       <path d="M 33.015625 40.375 
Q 26.375 40.375 22.484375 35.828125 
Q 18.609375 31.296875 18.609375 23.390625 
Q 18.609375 15.53125 22.484375 10.953125 
Q 26.375 6.390625 33.015625 6.390625 
Q 39.65625 6.390625 43.53125 10.953125 
Q 47.40625 15.53125 47.40625 23.390625 
Q 47.40625 31.296875 43.53125 35.828125 
Q 39.65625 40.375 33.015625 40.375 
z
M 52.59375 71.296875 
L 52.59375 62.3125 
Q 48.875 64.0625 45.09375 64.984375 
Q 41.3125 65.921875 37.59375 65.921875 
Q 27.828125 65.921875 22.671875 59.328125 
Q 17.53125 52.734375 16.796875 39.40625 
Q 19.671875 43.65625 24.015625 45.921875 
Q 28.375 48.1875 33.59375 48.1875 
Q 44.578125 48.1875 50.953125 41.515625 
Q 57.328125 34.859375 57.328125 23.390625 
Q 57.328125 12.15625 50.6875 5.359375 
Q 44.046875 -1.421875 33.015625 -1.421875 
Q 20.359375 -1.421875 13.671875 8.265625 
Q 6.984375 17.96875 6.984375 36.375 
Q 6.984375 53.65625 15.1875 63.9375 
Q 23.390625 74.21875 37.203125 74.21875 
Q 40.921875 74.21875 44.703125 73.484375 
Q 48.484375 72.75 52.59375 71.296875 
z
" id="DejaVuSans-36"/>
      </defs>
      <g transform="translate(287.227214 317.076875)scale(0.2 -0.2)">
       <use xlink:href="#DejaVuSans-36"/>
      </g>
     </g>
    </g>
    <g id="xtick_5">
     <g id="line2d_13">
      <path clip-path="url(#p76d107234b)" d="M 56.12 294.88 
L 56.12 6.845228 
" style="fill:none;stroke:#b0b0b0;stroke-linecap:square;stroke-width:0.8;"/>
     </g>
     <g id="line2d_14">
      <defs>
       <path d="M 0 0 
L 0 2 
" id="mf66b065f64" style="stroke:#000000;stroke-width:0.6;"/>
      </defs>
      <g>
       <use style="stroke:#000000;stroke-width:0.6;" x="56.12" xlink:href="#mf66b065f64" y="294.88"/>
      </g>
     </g>
    </g>
    <g id="xtick_6">
     <g id="line2d_15">
      <path clip-path="url(#p76d107234b)" d="M 95.698286 294.88 
L 95.698286 6.845228 
" style="fill:none;stroke:#b0b0b0;stroke-linecap:square;stroke-width:0.8;"/>
     </g>
     <g id="line2d_16">
      <g>
       <use style="stroke:#000000;stroke-width:0.6;" x="95.698286" xlink:href="#mf66b065f64" y="294.88"/>
      </g>
     </g>
    </g>
    <g id="xtick_7">
     <g id="line2d_17">
      <path clip-path="url(#p76d107234b)" d="M 135.276571 294.88 
L 135.276571 6.845228 
" style="fill:none;stroke:#b0b0b0;stroke-linecap:square;stroke-width:0.8;"/>
     </g>
     <g id="line2d_18">
      <g>
       <use style="stroke:#000000;stroke-width:0.6;" x="135.276571" xlink:href="#mf66b065f64" y="294.88"/>
      </g>
     </g>
    </g>
    <g id="xtick_8">
     <g id="line2d_19">
      <path clip-path="url(#p76d107234b)" d="M 174.854857 294.88 
L 174.854857 6.845228 
" style="fill:none;stroke:#b0b0b0;stroke-linecap:square;stroke-width:0.8;"/>
     </g>
     <g id="line2d_20">
      <g>
       <use style="stroke:#000000;stroke-width:0.6;" x="174.854857" xlink:href="#mf66b065f64" y="294.88"/>
      </g>
     </g>
    </g>
    <g id="xtick_9">
     <g id="line2d_21">
      <path clip-path="url(#p76d107234b)" d="M 214.433143 294.88 
L 214.433143 6.845228 
" style="fill:none;stroke:#b0b0b0;stroke-linecap:square;stroke-width:0.8;"/>
     </g>
     <g id="line2d_22">
      <g>
       <use style="stroke:#000000;stroke-width:0.6;" x="214.433143" xlink:href="#mf66b065f64" y="294.88"/>
      </g>
     </g>
    </g>
    <g id="xtick_10">
     <g id="line2d_23">
      <path clip-path="url(#p76d107234b)" d="M 254.011429 294.88 
L 254.011429 6.845228 
" style="fill:none;stroke:#b0b0b0;stroke-linecap:square;stroke-width:0.8;"/>
     </g>
     <g id="line2d_24">
      <g>
       <use style="stroke:#000000;stroke-width:0.6;" x="254.011429" xlink:href="#mf66b065f64" y="294.88"/>
      </g>
     </g>
    </g>
    <g id="xtick_11">
     <g id="line2d_25">
      <path clip-path="url(#p76d107234b)" d="M 293.589714 294.88 
L 293.589714 6.845228 
" style="fill:none;stroke:#b0b0b0;stroke-linecap:square;stroke-width:0.8;"/>
     </g>
     <g id="line2d_26">
      <g>
       <use style="stroke:#000000;stroke-width:0.6;" x="293.589714" xlink:href="#mf66b065f64" y="294.88"/>
      </g>
     </g>
    </g>
    <g id="xtick_12">
     <g id="line2d_27">
      <path clip-path="url(#p76d107234b)" d="M 333.168 294.88 
L 333.168 6.845228 
" style="fill:none;stroke:#b0b0b0;stroke-linecap:square;stroke-width:0.8;"/>
     </g>
     <g id="line2d_28">
      <g>
       <use style="stroke:#000000;stroke-width:0.6;" x="333.168" xlink:href="#mf66b065f64" y="294.88"/>
      </g>
     </g>
    </g>
    <g id="text_5">
     <!-- log10(# f-evals / dimension) -->
     <defs>
      <path d="M 9.421875 75.984375 
L 18.40625 75.984375 
L 18.40625 0 
L 9.421875 0 
z
" id="DejaVuSans-6c"/>
      <path d="M 30.609375 48.390625 
Q 23.390625 48.390625 19.1875 42.75 
Q 14.984375 37.109375 14.984375 27.296875 
Q 14.984375 17.484375 19.15625 11.84375 
Q 23.34375 6.203125 30.609375 6.203125 
Q 37.796875 6.203125 41.984375 11.859375 
Q 46.1875 17.53125 46.1875 27.296875 
Q 46.1875 37.015625 41.984375 42.703125 
Q 37.796875 48.390625 30.609375 48.390625 
z
M 30.609375 56 
Q 42.328125 56 49.015625 48.375 
Q 55.71875 40.765625 55.71875 27.296875 
Q 55.71875 13.875 49.015625 6.21875 
Q 42.328125 -1.421875 30.609375 -1.421875 
Q 18.84375 -1.421875 12.171875 6.21875 
Q 5.515625 13.875 5.515625 27.296875 
Q 5.515625 40.765625 12.171875 48.375 
Q 18.84375 56 30.609375 56 
z
" id="DejaVuSans-6f"/>
      <path d="M 45.40625 27.984375 
Q 45.40625 37.75 41.375 43.109375 
Q 37.359375 48.484375 30.078125 48.484375 
Q 22.859375 48.484375 18.828125 43.109375 
Q 14.796875 37.75 14.796875 27.984375 
Q 14.796875 18.265625 18.828125 12.890625 
Q 22.859375 7.515625 30.078125 7.515625 
Q 37.359375 7.515625 41.375 12.890625 
Q 45.40625 18.265625 45.40625 27.984375 
z
M 54.390625 6.78125 
Q 54.390625 -7.171875 48.1875 -13.984375 
Q 42 -20.796875 29.203125 -20.796875 
Q 24.46875 -20.796875 20.265625 -20.09375 
Q 16.0625 -19.390625 12.109375 -17.921875 
L 12.109375 -9.1875 
Q 16.0625 -11.328125 19.921875 -12.34375 
Q 23.78125 -13.375 27.78125 -13.375 
Q 36.625 -13.375 41.015625 -8.765625 
Q 45.40625 -4.15625 45.40625 5.171875 
L 45.40625 9.625 
Q 42.625 4.78125 38.28125 2.390625 
Q 33.9375 0 27.875 0 
Q 17.828125 0 11.671875 7.65625 
Q 5.515625 15.328125 5.515625 27.984375 
Q 5.515625 40.671875 11.671875 48.328125 
Q 17.828125 56 27.875 56 
Q 33.9375 56 38.28125 53.609375 
Q 42.625 51.21875 45.40625 46.390625 
L 45.40625 54.6875 
L 54.390625 54.6875 
z
" id="DejaVuSans-67"/>
      <path d="M 12.40625 8.296875 
L 28.515625 8.296875 
L 28.515625 63.921875 
L 10.984375 60.40625 
L 10.984375 69.390625 
L 28.421875 72.90625 
L 38.28125 72.90625 
L 38.28125 8.296875 
L 54.390625 8.296875 
L 54.390625 0 
L 12.40625 0 
z
" id="DejaVuSans-31"/>
      <path d="M 31 75.875 
Q 24.46875 64.65625 21.28125 53.65625 
Q 18.109375 42.671875 18.109375 31.390625 
Q 18.109375 20.125 21.3125 9.0625 
Q 24.515625 -2 31 -13.1875 
L 23.1875 -13.1875 
Q 15.875 -1.703125 12.234375 9.375 
Q 8.59375 20.453125 8.59375 31.390625 
Q 8.59375 42.28125 12.203125 53.3125 
Q 15.828125 64.359375 23.1875 75.875 
z
" id="DejaVuSans-28"/>
      <path d="M 51.125 44 
L 36.921875 44 
L 32.8125 27.6875 
L 47.125 27.6875 
z
M 43.796875 71.78125 
L 38.71875 51.515625 
L 52.984375 51.515625 
L 58.109375 71.78125 
L 65.921875 71.78125 
L 60.890625 51.515625 
L 76.125 51.515625 
L 76.125 44 
L 58.984375 44 
L 54.984375 27.6875 
L 70.515625 27.6875 
L 70.515625 20.21875 
L 53.078125 20.21875 
L 48 0 
L 40.1875 0 
L 45.21875 20.21875 
L 30.90625 20.21875 
L 25.875 0 
L 18.015625 0 
L 23.09375 20.21875 
L 7.71875 20.21875 
L 7.71875 27.6875 
L 24.90625 27.6875 
L 29 44 
L 13.28125 44 
L 13.28125 51.515625 
L 30.90625 51.515625 
L 35.890625 71.78125 
z
" id="DejaVuSans-23"/>
      <path id="DejaVuSans-20"/>
      <path d="M 37.109375 75.984375 
L 37.109375 68.5 
L 28.515625 68.5 
Q 23.6875 68.5 21.796875 66.546875 
Q 19.921875 64.59375 19.921875 59.515625 
L 19.921875 54.6875 
L 34.71875 54.6875 
L 34.71875 47.703125 
L 19.921875 47.703125 
L 19.921875 0 
L 10.890625 0 
L 10.890625 47.703125 
L 2.296875 47.703125 
L 2.296875 54.6875 
L 10.890625 54.6875 
L 10.890625 58.5 
Q 10.890625 67.625 15.140625 71.796875 
Q 19.390625 75.984375 28.609375 75.984375 
z
" id="DejaVuSans-66"/>
      <path d="M 4.890625 31.390625 
L 31.203125 31.390625 
L 31.203125 23.390625 
L 4.890625 23.390625 
z
" id="DejaVuSans-2d"/>
      <path d="M 56.203125 29.59375 
L 56.203125 25.203125 
L 14.890625 25.203125 
Q 15.484375 15.921875 20.484375 11.0625 
Q 25.484375 6.203125 34.421875 6.203125 
Q 39.59375 6.203125 44.453125 7.46875 
Q 49.3125 8.734375 54.109375 11.28125 
L 54.109375 2.78125 
Q 49.265625 0.734375 44.1875 -0.34375 
Q 39.109375 -1.421875 33.890625 -1.421875 
Q 20.796875 -1.421875 13.15625 6.1875 
Q 5.515625 13.8125 5.515625 26.8125 
Q 5.515625 40.234375 12.765625 48.109375 
Q 20.015625 56 32.328125 56 
Q 43.359375 56 49.78125 48.890625 
Q 56.203125 41.796875 56.203125 29.59375 
z
M 47.21875 32.234375 
Q 47.125 39.59375 43.09375 43.984375 
Q 39.0625 48.390625 32.421875 48.390625 
Q 24.90625 48.390625 20.390625 44.140625 
Q 15.875 39.890625 15.1875 32.171875 
z
" id="DejaVuSans-65"/>
      <path d="M 2.984375 54.6875 
L 12.5 54.6875 
L 29.59375 8.796875 
L 46.6875 54.6875 
L 56.203125 54.6875 
L 35.6875 0 
L 23.484375 0 
z
" id="DejaVuSans-76"/>
      <path d="M 34.28125 27.484375 
Q 23.390625 27.484375 19.1875 25 
Q 14.984375 22.515625 14.984375 16.5 
Q 14.984375 11.71875 18.140625 8.90625 
Q 21.296875 6.109375 26.703125 6.109375 
Q 34.1875 6.109375 38.703125 11.40625 
Q 43.21875 16.703125 43.21875 25.484375 
L 43.21875 27.484375 
z
M 52.203125 31.203125 
L 52.203125 0 
L 43.21875 0 
L 43.21875 8.296875 
Q 40.140625 3.328125 35.546875 0.953125 
Q 30.953125 -1.421875 24.3125 -1.421875 
Q 15.921875 -1.421875 10.953125 3.296875 
Q 6 8.015625 6 15.921875 
Q 6 25.140625 12.171875 29.828125 
Q 18.359375 34.515625 30.609375 34.515625 
L 43.21875 34.515625 
L 43.21875 35.40625 
Q 43.21875 41.609375 39.140625 45 
Q 35.0625 48.390625 27.6875 48.390625 
Q 23 48.390625 18.546875 47.265625 
Q 14.109375 46.140625 10.015625 43.890625 
L 10.015625 52.203125 
Q 14.9375 54.109375 19.578125 55.046875 
Q 24.21875 56 28.609375 56 
Q 40.484375 56 46.34375 49.84375 
Q 52.203125 43.703125 52.203125 31.203125 
z
" id="DejaVuSans-61"/>
      <path d="M 44.28125 53.078125 
L 44.28125 44.578125 
Q 40.484375 46.53125 36.375 47.5 
Q 32.28125 48.484375 27.875 48.484375 
Q 21.1875 48.484375 17.84375 46.4375 
Q 14.5 44.390625 14.5 40.28125 
Q 14.5 37.15625 16.890625 35.375 
Q 19.28125 33.59375 26.515625 31.984375 
L 29.59375 31.296875 
Q 39.15625 29.25 43.1875 25.515625 
Q 47.21875 21.78125 47.21875 15.09375 
Q 47.21875 7.46875 41.1875 3.015625 
Q 35.15625 -1.421875 24.609375 -1.421875 
Q 20.21875 -1.421875 15.453125 -0.5625 
Q 10.6875 0.296875 5.421875 2 
L 5.421875 11.28125 
Q 10.40625 8.6875 15.234375 7.390625 
Q 20.0625 6.109375 24.8125 6.109375 
Q 31.15625 6.109375 34.5625 8.28125 
Q 37.984375 10.453125 37.984375 14.40625 
Q 37.984375 18.0625 35.515625 20.015625 
Q 33.0625 21.96875 24.703125 23.78125 
L 21.578125 24.515625 
Q 13.234375 26.265625 9.515625 29.90625 
Q 5.8125 33.546875 5.8125 39.890625 
Q 5.8125 47.609375 11.28125 51.796875 
Q 16.75 56 26.8125 56 
Q 31.78125 56 36.171875 55.265625 
Q 40.578125 54.546875 44.28125 53.078125 
z
" id="DejaVuSans-73"/>
      <path d="M 25.390625 72.90625 
L 33.6875 72.90625 
L 8.296875 -9.28125 
L 0 -9.28125 
z
" id="DejaVuSans-2f"/>
      <path d="M 45.40625 46.390625 
L 45.40625 75.984375 
L 54.390625 75.984375 
L 54.390625 0 
L 45.40625 0 
L 45.40625 8.203125 
Q 42.578125 3.328125 38.25 0.953125 
Q 33.9375 -1.421875 27.875 -1.421875 
Q 17.96875 -1.421875 11.734375 6.484375 
Q 5.515625 14.40625 5.515625 27.296875 
Q 5.515625 40.1875 11.734375 48.09375 
Q 17.96875 56 27.875 56 
Q 33.9375 56 38.25 53.625 
Q 42.578125 51.265625 45.40625 46.390625 
z
M 14.796875 27.296875 
Q 14.796875 17.390625 18.875 11.75 
Q 22.953125 6.109375 30.078125 6.109375 
Q 37.203125 6.109375 41.296875 11.75 
Q 45.40625 17.390625 45.40625 27.296875 
Q 45.40625 37.203125 41.296875 42.84375 
Q 37.203125 48.484375 30.078125 48.484375 
Q 22.953125 48.484375 18.875 42.84375 
Q 14.796875 37.203125 14.796875 27.296875 
z
" id="DejaVuSans-64"/>
      <path d="M 9.421875 54.6875 
L 18.40625 54.6875 
L 18.40625 0 
L 9.421875 0 
z
M 9.421875 75.984375 
L 18.40625 75.984375 
L 18.40625 64.59375 
L 9.421875 64.59375 
z
" id="DejaVuSans-69"/>
      <path d="M 52 44.1875 
Q 55.375 50.25 60.0625 53.125 
Q 64.75 56 71.09375 56 
Q 79.640625 56 84.28125 50.015625 
Q 88.921875 44.046875 88.921875 33.015625 
L 88.921875 0 
L 79.890625 0 
L 79.890625 32.71875 
Q 79.890625 40.578125 77.09375 44.375 
Q 74.3125 48.1875 68.609375 48.1875 
Q 61.625 48.1875 57.5625 43.546875 
Q 53.515625 38.921875 53.515625 30.90625 
L 53.515625 0 
L 44.484375 0 
L 44.484375 32.71875 
Q 44.484375 40.625 41.703125 44.40625 
Q 38.921875 48.1875 33.109375 48.1875 
Q 26.21875 48.1875 22.15625 43.53125 
Q 18.109375 38.875 18.109375 30.90625 
L 18.109375 0 
L 9.078125 0 
L 9.078125 54.6875 
L 18.109375 54.6875 
L 18.109375 46.1875 
Q 21.1875 51.21875 25.484375 53.609375 
Q 29.78125 56 35.6875 56 
Q 41.65625 56 45.828125 52.96875 
Q 50 49.953125 52 44.1875 
z
" id="DejaVuSans-6d"/>
      <path d="M 54.890625 33.015625 
L 54.890625 0 
L 45.90625 0 
L 45.90625 32.71875 
Q 45.90625 40.484375 42.875 44.328125 
Q 39.84375 48.1875 33.796875 48.1875 
Q 26.515625 48.1875 22.3125 43.546875 
Q 18.109375 38.921875 18.109375 30.90625 
L 18.109375 0 
L 9.078125 0 
L 9.078125 54.6875 
L 18.109375 54.6875 
L 18.109375 46.1875 
Q 21.34375 51.125 25.703125 53.5625 
Q 30.078125 56 35.796875 56 
Q 45.21875 56 50.046875 50.171875 
Q 54.890625 44.34375 54.890625 33.015625 
z
" id="DejaVuSans-6e"/>
      <path d="M 8.015625 75.875 
L 15.828125 75.875 
Q 23.140625 64.359375 26.78125 53.3125 
Q 30.421875 42.28125 30.421875 31.390625 
Q 30.421875 20.453125 26.78125 9.375 
Q 23.140625 -1.703125 15.828125 -13.1875 
L 8.015625 -13.1875 
Q 14.5 -2 17.703125 9.0625 
Q 20.90625 20.125 20.90625 31.390625 
Q 20.90625 42.671875 17.703125 53.65625 
Q 14.5 64.65625 8.015625 75.875 
z
" id="DejaVuSans-29"/>
     </defs>
     <g transform="translate(73.803219 338.153594)scale(0.17 -0.17)">
      <use xlink:href="#DejaVuSans-6c"/>
      <use x="27.783203" xlink:href="#DejaVuSans-6f"/>
      <use x="88.964844" xlink:href="#DejaVuSans-67"/>
      <use x="152.441406" xlink:href="#DejaVuSans-31"/>
      <use x="216.064453" xlink:href="#DejaVuSans-30"/>
      <use x="279.6875" xlink:href="#DejaVuSans-28"/>
      <use x="318.701172" xlink:href="#DejaVuSans-23"/>
      <use x="402.490234" xlink:href="#DejaVuSans-20"/>
      <use x="434.277344" xlink:href="#DejaVuSans-66"/>
      <use x="469.404297" xlink:href="#DejaVuSans-2d"/>
      <use x="505.488281" xlink:href="#DejaVuSans-65"/>
      <use x="567.011719" xlink:href="#DejaVuSans-76"/>
      <use x="626.191406" xlink:href="#DejaVuSans-61"/>
      <use x="687.470703" xlink:href="#DejaVuSans-6c"/>
      <use x="715.253906" xlink:href="#DejaVuSans-73"/>
      <use x="767.353516" xlink:href="#DejaVuSans-20"/>
      <use x="799.140625" xlink:href="#DejaVuSans-2f"/>
      <use x="832.832031" xlink:href="#DejaVuSans-20"/>
      <use x="864.619141" xlink:href="#DejaVuSans-64"/>
      <use x="928.095703" xlink:href="#DejaVuSans-69"/>
      <use x="955.878906" xlink:href="#DejaVuSans-6d"/>
      <use x="1053.291016" xlink:href="#DejaVuSans-65"/>
      <use x="1114.814453" xlink:href="#DejaVuSans-6e"/>
      <use x="1178.193359" xlink:href="#DejaVuSans-73"/>
      <use x="1230.292969" xlink:href="#DejaVuSans-69"/>
      <use x="1258.076172" xlink:href="#DejaVuSans-6f"/>
      <use x="1319.257812" xlink:href="#DejaVuSans-6e"/>
      <use x="1382.636719" xlink:href="#DejaVuSans-29"/>
     </g>
    </g>
   </g>
   <g id="matplotlib.axis_2">
    <g id="ytick_1">
     <g id="line2d_29">
      <path clip-path="url(#p76d107234b)" d="M 56.12 294.88 
L 333.168 294.88 
" style="fill:none;stroke:#b0b0b0;stroke-linecap:square;stroke-width:0.8;"/>
     </g>
     <g id="line2d_30">
      <defs>
       <path d="M 0 0 
L -3.5 0 
" id="me86bf337da" style="stroke:#000000;stroke-width:0.8;"/>
      </defs>
      <g>
       <use style="stroke:#000000;stroke-width:0.8;" x="56.12" xlink:href="#me86bf337da" y="294.88"/>
      </g>
     </g>
     <g id="text_6">
      <!-- 0.0 -->
      <defs>
       <path d="M 10.6875 12.40625 
L 21 12.40625 
L 21 0 
L 10.6875 0 
z
" id="DejaVuSans-2e"/>
      </defs>
      <g transform="translate(23.675 300.95875)scale(0.16 -0.16)">
       <use xlink:href="#DejaVuSans-30"/>
       <use x="63.623047" xlink:href="#DejaVuSans-2e"/>
       <use x="95.410156" xlink:href="#DejaVuSans-30"/>
      </g>
     </g>
    </g>
    <g id="ytick_2">
     <g id="line2d_31">
      <path clip-path="url(#p76d107234b)" d="M 56.12 237.843411 
L 333.168 237.843411 
" style="fill:none;stroke:#b0b0b0;stroke-linecap:square;stroke-width:0.8;"/>
     </g>
     <g id="line2d_32">
      <g>
       <use style="stroke:#000000;stroke-width:0.8;" x="56.12" xlink:href="#me86bf337da" y="237.843411"/>
      </g>
     </g>
     <g id="text_7">
      <!-- 0.2 -->
      <g transform="translate(23.675 243.922161)scale(0.16 -0.16)">
       <use xlink:href="#DejaVuSans-30"/>
       <use x="63.623047" xlink:href="#DejaVuSans-2e"/>
       <use x="95.410156" xlink:href="#DejaVuSans-32"/>
      </g>
     </g>
    </g>
    <g id="ytick_3">
     <g id="line2d_33">
      <path clip-path="url(#p76d107234b)" d="M 56.12 180.806823 
L 333.168 180.806823 
" style="fill:none;stroke:#b0b0b0;stroke-linecap:square;stroke-width:0.8;"/>
     </g>
     <g id="line2d_34">
      <g>
       <use style="stroke:#000000;stroke-width:0.8;" x="56.12" xlink:href="#me86bf337da" y="180.806823"/>
      </g>
     </g>
     <g id="text_8">
      <!-- 0.4 -->
      <g transform="translate(23.675 186.885573)scale(0.16 -0.16)">
       <use xlink:href="#DejaVuSans-30"/>
       <use x="63.623047" xlink:href="#DejaVuSans-2e"/>
       <use x="95.410156" xlink:href="#DejaVuSans-34"/>
      </g>
     </g>
    </g>
    <g id="ytick_4">
     <g id="line2d_35">
      <path clip-path="url(#p76d107234b)" d="M 56.12 123.770234 
L 333.168 123.770234 
" style="fill:none;stroke:#b0b0b0;stroke-linecap:square;stroke-width:0.8;"/>
     </g>
     <g id="line2d_36">
      <g>
       <use style="stroke:#000000;stroke-width:0.8;" x="56.12" xlink:href="#me86bf337da" y="123.770234"/>
      </g>
     </g>
     <g id="text_9">
      <!-- 0.6 -->
      <g transform="translate(23.675 129.848984)scale(0.16 -0.16)">
       <use xlink:href="#DejaVuSans-30"/>
       <use x="63.623047" xlink:href="#DejaVuSans-2e"/>
       <use x="95.410156" xlink:href="#DejaVuSans-36"/>
      </g>
     </g>
    </g>
    <g id="ytick_5">
     <g id="line2d_37">
      <path clip-path="url(#p76d107234b)" d="M 56.12 66.733646 
L 333.168 66.733646 
" style="fill:none;stroke:#b0b0b0;stroke-linecap:square;stroke-width:0.8;"/>
     </g>
     <g id="line2d_38">
      <g>
       <use style="stroke:#000000;stroke-width:0.8;" x="56.12" xlink:href="#me86bf337da" y="66.733646"/>
      </g>
     </g>
     <g id="text_10">
      <!-- 0.8 -->
      <defs>
       <path d="M 31.78125 34.625 
Q 24.75 34.625 20.71875 30.859375 
Q 16.703125 27.09375 16.703125 20.515625 
Q 16.703125 13.921875 20.71875 10.15625 
Q 24.75 6.390625 31.78125 6.390625 
Q 38.8125 6.390625 42.859375 10.171875 
Q 46.921875 13.96875 46.921875 20.515625 
Q 46.921875 27.09375 42.890625 30.859375 
Q 38.875 34.625 31.78125 34.625 
z
M 21.921875 38.8125 
Q 15.578125 40.375 12.03125 44.71875 
Q 8.5 49.078125 8.5 55.328125 
Q 8.5 64.0625 14.71875 69.140625 
Q 20.953125 74.21875 31.78125 74.21875 
Q 42.671875 74.21875 48.875 69.140625 
Q 55.078125 64.0625 55.078125 55.328125 
Q 55.078125 49.078125 51.53125 44.71875 
Q 48 40.375 41.703125 38.8125 
Q 48.828125 37.15625 52.796875 32.3125 
Q 56.78125 27.484375 56.78125 20.515625 
Q 56.78125 9.90625 50.3125 4.234375 
Q 43.84375 -1.421875 31.78125 -1.421875 
Q 19.734375 -1.421875 13.25 4.234375 
Q 6.78125 9.90625 6.78125 20.515625 
Q 6.78125 27.484375 10.78125 32.3125 
Q 14.796875 37.15625 21.921875 38.8125 
z
M 18.3125 54.390625 
Q 18.3125 48.734375 21.84375 45.5625 
Q 25.390625 42.390625 31.78125 42.390625 
Q 38.140625 42.390625 41.71875 45.5625 
Q 45.3125 48.734375 45.3125 54.390625 
Q 45.3125 60.0625 41.71875 63.234375 
Q 38.140625 66.40625 31.78125 66.40625 
Q 25.390625 66.40625 21.84375 63.234375 
Q 18.3125 60.0625 18.3125 54.390625 
z
" id="DejaVuSans-38"/>
      </defs>
      <g transform="translate(23.675 72.812396)scale(0.16 -0.16)">
       <use xlink:href="#DejaVuSans-30"/>
       <use x="63.623047" xlink:href="#DejaVuSans-2e"/>
       <use x="95.410156" xlink:href="#DejaVuSans-38"/>
      </g>
     </g>
    </g>
    <g id="ytick_6">
     <g id="line2d_39">
      <path clip-path="url(#p76d107234b)" d="M 56.12 9.697057 
L 333.168 9.697057 
" style="fill:none;stroke:#b0b0b0;stroke-linecap:square;stroke-width:0.8;"/>
     </g>
     <g id="line2d_40">
      <g>
       <use style="stroke:#000000;stroke-width:0.8;" x="56.12" xlink:href="#me86bf337da" y="9.697057"/>
      </g>
     </g>
     <g id="text_11">
      <!-- 1.0 -->
      <g transform="translate(23.675 15.775807)scale(0.16 -0.16)">
       <use xlink:href="#DejaVuSans-31"/>
       <use x="63.623047" xlink:href="#DejaVuSans-2e"/>
       <use x="95.410156" xlink:href="#DejaVuSans-30"/>
      </g>
     </g>
    </g>
    <g id="text_12">
     <!-- Fraction of function,target pairs -->
     <defs>
      <path d="M 9.8125 72.90625 
L 51.703125 72.90625 
L 51.703125 64.59375 
L 19.671875 64.59375 
L 19.671875 43.109375 
L 48.578125 43.109375 
L 48.578125 34.8125 
L 19.671875 34.8125 
L 19.671875 0 
L 9.8125 0 
z
" id="DejaVuSans-46"/>
      <path d="M 41.109375 46.296875 
Q 39.59375 47.171875 37.8125 47.578125 
Q 36.03125 48 33.890625 48 
Q 26.265625 48 22.1875 43.046875 
Q 18.109375 38.09375 18.109375 28.8125 
L 18.109375 0 
L 9.078125 0 
L 9.078125 54.6875 
L 18.109375 54.6875 
L 18.109375 46.1875 
Q 20.953125 51.171875 25.484375 53.578125 
Q 30.03125 56 36.53125 56 
Q 37.453125 56 38.578125 55.875 
Q 39.703125 55.765625 41.0625 55.515625 
z
" id="DejaVuSans-72"/>
      <path d="M 48.78125 52.59375 
L 48.78125 44.1875 
Q 44.96875 46.296875 41.140625 47.34375 
Q 37.3125 48.390625 33.40625 48.390625 
Q 24.65625 48.390625 19.8125 42.84375 
Q 14.984375 37.3125 14.984375 27.296875 
Q 14.984375 17.28125 19.8125 11.734375 
Q 24.65625 6.203125 33.40625 6.203125 
Q 37.3125 6.203125 41.140625 7.25 
Q 44.96875 8.296875 48.78125 10.40625 
L 48.78125 2.09375 
Q 45.015625 0.34375 40.984375 -0.53125 
Q 36.96875 -1.421875 32.421875 -1.421875 
Q 20.0625 -1.421875 12.78125 6.34375 
Q 5.515625 14.109375 5.515625 27.296875 
Q 5.515625 40.671875 12.859375 48.328125 
Q 20.21875 56 33.015625 56 
Q 37.15625 56 41.109375 55.140625 
Q 45.0625 54.296875 48.78125 52.59375 
z
" id="DejaVuSans-63"/>
      <path d="M 18.3125 70.21875 
L 18.3125 54.6875 
L 36.8125 54.6875 
L 36.8125 47.703125 
L 18.3125 47.703125 
L 18.3125 18.015625 
Q 18.3125 11.328125 20.140625 9.421875 
Q 21.96875 7.515625 27.59375 7.515625 
L 36.8125 7.515625 
L 36.8125 0 
L 27.59375 0 
Q 17.1875 0 13.234375 3.875 
Q 9.28125 7.765625 9.28125 18.015625 
L 9.28125 47.703125 
L 2.6875 47.703125 
L 2.6875 54.6875 
L 9.28125 54.6875 
L 9.28125 70.21875 
z
" id="DejaVuSans-74"/>
      <path d="M 8.5 21.578125 
L 8.5 54.6875 
L 17.484375 54.6875 
L 17.484375 21.921875 
Q 17.484375 14.15625 20.5 10.265625 
Q 23.53125 6.390625 29.59375 6.390625 
Q 36.859375 6.390625 41.078125 11.03125 
Q 45.3125 15.671875 45.3125 23.6875 
L 45.3125 54.6875 
L 54.296875 54.6875 
L 54.296875 0 
L 45.3125 0 
L 45.3125 8.40625 
Q 42.046875 3.421875 37.71875 1 
Q 33.40625 -1.421875 27.6875 -1.421875 
Q 18.265625 -1.421875 13.375 4.4375 
Q 8.5 10.296875 8.5 21.578125 
z
M 31.109375 56 
z
" id="DejaVuSans-75"/>
      <path d="M 11.71875 12.40625 
L 22.015625 12.40625 
L 22.015625 4 
L 14.015625 -11.625 
L 7.71875 -11.625 
L 11.71875 4 
z
" id="DejaVuSans-2c"/>
      <path d="M 18.109375 8.203125 
L 18.109375 -20.796875 
L 9.078125 -20.796875 
L 9.078125 54.6875 
L 18.109375 54.6875 
L 18.109375 46.390625 
Q 20.953125 51.265625 25.265625 53.625 
Q 29.59375 56 35.59375 56 
Q 45.5625 56 51.78125 48.09375 
Q 58.015625 40.1875 58.015625 27.296875 
Q 58.015625 14.40625 51.78125 6.484375 
Q 45.5625 -1.421875 35.59375 -1.421875 
Q 29.59375 -1.421875 25.265625 0.953125 
Q 20.953125 3.328125 18.109375 8.203125 
z
M 48.6875 27.296875 
Q 48.6875 37.203125 44.609375 42.84375 
Q 40.53125 48.484375 33.40625 48.484375 
Q 26.265625 48.484375 22.1875 42.84375 
Q 18.109375 37.203125 18.109375 27.296875 
Q 18.109375 17.390625 22.1875 11.75 
Q 26.265625 6.109375 33.40625 6.109375 
Q 40.53125 6.109375 44.609375 11.75 
Q 48.6875 17.390625 48.6875 27.296875 
z
" id="DejaVuSans-70"/>
     </defs>
     <g transform="translate(16.139531 286.001989)rotate(-90)scale(0.17 -0.17)">
      <use xlink:href="#DejaVuSans-46"/>
      <use x="57.410156" xlink:href="#DejaVuSans-72"/>
      <use x="98.523438" xlink:href="#DejaVuSans-61"/>
      <use x="159.802734" xlink:href="#DejaVuSans-63"/>
      <use x="214.783203" xlink:href="#DejaVuSans-74"/>
      <use x="253.992188" xlink:href="#DejaVuSans-69"/>
      <use x="281.775391" xlink:href="#DejaVuSans-6f"/>
      <use x="342.957031" xlink:href="#DejaVuSans-6e"/>
      <use x="406.335938" xlink:href="#DejaVuSans-20"/>
      <use x="438.123047" xlink:href="#DejaVuSans-6f"/>
      <use x="499.304688" xlink:href="#DejaVuSans-66"/>
      <use x="534.509766" xlink:href="#DejaVuSans-20"/>
      <use x="566.296875" xlink:href="#DejaVuSans-66"/>
      <use x="601.501953" xlink:href="#DejaVuSans-75"/>
      <use x="664.880859" xlink:href="#DejaVuSans-6e"/>
      <use x="728.259766" xlink:href="#DejaVuSans-63"/>
      <use x="783.240234" xlink:href="#DejaVuSans-74"/>
      <use x="822.449219" xlink:href="#DejaVuSans-69"/>
      <use x="850.232422" xlink:href="#DejaVuSans-6f"/>
      <use x="911.414062" xlink:href="#DejaVuSans-6e"/>
      <use x="974.792969" xlink:href="#DejaVuSans-2c"/>
      <use x="1006.580078" xlink:href="#DejaVuSans-74"/>
      <use x="1045.789062" xlink:href="#DejaVuSans-61"/>
      <use x="1107.068359" xlink:href="#DejaVuSans-72"/>
      <use x="1148.166016" xlink:href="#DejaVuSans-67"/>
      <use x="1211.642578" xlink:href="#DejaVuSans-65"/>
      <use x="1273.166016" xlink:href="#DejaVuSans-74"/>
      <use x="1312.375" xlink:href="#DejaVuSans-20"/>
      <use x="1344.162109" xlink:href="#DejaVuSans-70"/>
      <use x="1407.638672" xlink:href="#DejaVuSans-61"/>
      <use x="1468.917969" xlink:href="#DejaVuSans-69"/>
      <use x="1496.701172" xlink:href="#DejaVuSans-72"/>
      <use x="1537.814453" xlink:href="#DejaVuSans-73"/>
     </g>
    </g>
   </g>
   <g id="line2d_41">
    <defs>
     <path d="M 0 1.5 
C 0.397805 1.5 0.77937 1.341951 1.06066 1.06066 
C 1.341951 0.77937 1.5 0.397805 1.5 0 
C 1.5 -0.397805 1.341951 -0.77937 1.06066 -1.06066 
C 0.77937 -1.341951 0.397805 -1.5 0 -1.5 
C -0.397805 -1.5 -0.77937 -1.341951 -1.06066 -1.06066 
C -1.341951 -0.77937 -1.5 -0.397805 -1.5 0 
C -1.5 0.397805 -1.341951 0.77937 -1.06066 1.06066 
C -0.77937 1.341951 -0.397805 1.5 0 1.5 
z
" id="m8408f36e7e" style="stroke:#f5deb3;"/>
    </defs>
    <g>
     <use style="fill:#f5deb3;stroke:#f5deb3;" x="183.38733" xlink:href="#m8408f36e7e" y="9.697057"/>
     <use style="fill:#f5deb3;stroke:#f5deb3;" x="183.38733" xlink:href="#m8408f36e7e" y="9.697057"/>
    </g>
   </g>
   <g id="line2d_42">
    <defs>
     <path d="M 0 1.5 
C 0.397805 1.5 0.77937 1.341951 1.06066 1.06066 
C 1.341951 0.77937 1.5 0.397805 1.5 0 
C 1.5 -0.397805 1.341951 -0.77937 1.06066 -1.06066 
C 0.77937 -1.341951 0.397805 -1.5 0 -1.5 
C -0.397805 -1.5 -0.77937 -1.341951 -1.06066 -1.06066 
C -1.341951 -0.77937 -1.5 -0.397805 -1.5 0 
C -1.5 0.397805 -1.341951 0.77937 -1.06066 1.06066 
C -0.77937 1.341951 -0.397805 1.5 0 1.5 
z
" id="m43bb2570f9" style="stroke:#000080;"/>
    </defs>
    <g>
     <use style="fill:#000080;stroke:#000080;" x="238.98817" xlink:href="#m43bb2570f9" y="274.749439"/>
     <use style="fill:#000080;stroke:#000080;" x="238.98817" xlink:href="#m43bb2570f9" y="274.749439"/>
    </g>
   </g>
   <g id="line2d_43">
    <path d="M 4.627463 294.88 
L 4.627463 292.755107 
L 32.291498 292.755107 
L 32.291498 292.643271 
L 35.425356 292.643271 
L 35.425356 292.419598 
L 38.074995 292.419598 
L 38.074995 292.307762 
L 64.727642 292.307762 
L 64.727642 292.084089 
L 96.122718 292.084089 
L 96.122718 291.972252 
L 97.179562 291.972252 
L 97.179562 291.636743 
L 97.492092 291.636743 
L 97.492092 291.524907 
L 99.738854 291.524907 
L 99.738854 291.41307 
L 100.856673 291.41307 
L 100.856673 291.189397 
L 101.172069 291.189397 
L 101.172069 291.077561 
L 102.436953 291.077561 
L 102.436953 290.965724 
L 103.175751 290.965724 
L 103.286646 290.742051 
L 108.162282 290.742051 
L 108.162282 290.630215 
L 108.410199 290.630215 
L 108.410199 290.406542 
L 108.654591 290.406542 
L 108.654591 290.294706 
L 112.089133 290.294706 
L 112.089133 290.182869 
L 114.894198 290.182869 
L 114.95037 289.735523 
L 115.062167 289.735523 
L 115.062167 289.51185 
L 115.338517 289.51185 
L 115.338517 289.400014 
L 117.644016 289.400014 
L 117.644016 289.064505 
L 118.093572 289.064505 
L 118.093572 288.952668 
L 118.84748 288.952668 
L 118.84748 288.840832 
L 120.929036 288.840832 
L 121.008065 288.617159 
L 121.281837 288.617159 
L 121.281837 288.505322 
L 121.910411 288.505322 
L 121.910411 288.393486 
L 122.856479 288.393486 
L 122.856479 288.28165 
L 125.41738 288.28165 
L 125.41738 288.169813 
L 126.667211 288.169813 
L 126.667211 288.057977 
L 128.056122 288.057977 
L 128.056122 287.94614 
L 130.67209 287.94614 
L 130.67209 287.610631 
L 131.781419 287.610631 
L 131.781419 287.386958 
L 132.714086 287.386958 
L 132.714086 287.275122 
L 135.709386 287.275122 
L 135.709386 287.051449 
L 136.447561 287.051449 
L 136.447561 286.827776 
L 136.930442 286.827776 
L 136.930442 286.715939 
L 138.143374 286.715939 
L 138.143374 286.604103 
L 138.374582 286.604103 
L 138.374582 286.492266 
L 138.574369 286.492266 
L 138.574369 286.38043 
L 139.296746 286.38043 
L 139.296746 286.268593 
L 139.931084 286.268593 
L 139.931084 286.156757 
L 140.568131 286.156757 
L 140.568131 285.933084 
L 143.117307 285.933084 
L 143.117307 285.821248 
L 143.382127 285.821248 
L 143.446363 285.485738 
L 145.626324 285.485738 
L 145.626324 285.262065 
L 145.873983 285.262065 
L 145.873983 285.150229 
L 146.127269 285.150229 
L 146.127269 285.038393 
L 146.698253 285.038393 
L 146.698253 284.926556 
L 147.564873 284.926556 
L 147.564873 284.81472 
L 147.678025 284.81472 
L 147.678025 284.702883 
L 147.819462 284.702883 
L 147.819462 284.591047 
L 148.493772 284.591047 
L 148.493772 284.367374 
L 148.620772 284.367374 
L 148.620772 284.143701 
L 149.222989 284.143701 
L 149.222989 283.808192 
L 150.331841 283.808192 
L 150.331841 283.696355 
L 151.713722 283.696355 
L 151.713722 283.472682 
L 152.144276 283.472682 
L 152.144276 283.137173 
L 152.69271 283.137173 
L 152.69271 283.025336 
L 152.998857 283.025336 
L 152.998857 282.9135 
L 153.380775 282.9135 
L 153.380775 282.801664 
L 153.627798 282.801664 
L 153.627798 282.689827 
L 154.165941 282.689827 
L 154.165941 282.466154 
L 154.734911 282.466154 
L 154.734911 282.354318 
L 157.109258 282.354318 
L 157.109258 282.242481 
L 158.906259 282.242481 
L 158.906259 282.018808 
L 160.282084 282.018808 
L 160.290107 281.683299 
L 168.975179 281.683299 
L 168.975179 281.571463 
L 169.106561 281.571463 
L 169.106561 281.34779 
L 170.028759 281.34779 
L 170.028759 281.235953 
L 170.326601 281.235953 
L 170.371281 280.900444 
L 170.605069 280.900444 
L 170.605069 280.788608 
L 170.82703 280.788608 
L 170.933166 280.229425 
L 171.578431 280.229425 
L 171.578431 280.117589 
L 172.165208 280.117589 
L 172.165208 280.005752 
L 172.388868 280.005752 
L 172.388868 279.782079 
L 173.612086 279.782079 
L 173.612086 279.670243 
L 174.431134 279.670243 
L 174.431134 279.558407 
L 177.557943 279.558407 
L 177.557943 279.44657 
L 178.376775 279.44657 
L 178.376775 279.111061 
L 179.321514 279.111061 
L 179.321514 278.999224 
L 179.58133 278.999224 
L 179.58133 278.775551 
L 184.751077 278.775551 
L 184.751077 278.663715 
L 184.962402 278.663715 
L 185.010546 278.440042 
L 185.569705 278.440042 
L 185.569705 278.104533 
L 186.645768 278.104533 
L 186.645768 277.992696 
L 188.697495 277.992696 
L 188.697495 277.88086 
L 188.871383 277.88086 
L 188.871383 277.769023 
L 189.222168 277.769023 
L 189.222168 277.657187 
L 190.246506 277.657187 
L 190.246506 277.545351 
L 197.469435 277.545351 
L 197.469435 277.433514 
L 197.851834 277.433514 
L 197.851834 277.321678 
L 200.033647 277.321678 
L 200.033647 277.209841 
L 201.944407 277.209841 
L 201.944407 277.098005 
L 204.090133 277.098005 
L 204.090133 276.986168 
L 205.204932 276.986168 
L 205.204932 276.874332 
L 205.379583 276.874332 
L 205.379583 276.762495 
L 206.672545 276.762495 
L 206.672545 276.650659 
L 208.093511 276.650659 
L 208.093511 276.426986 
L 209.223263 276.426986 
L 209.223263 276.31515 
L 213.585463 276.31515 
L 213.585463 276.203313 
L 214.339381 276.203313 
L 214.339381 275.97964 
L 216.119377 275.97964 
L 216.119377 275.867804 
L 218.103978 275.867804 
L 218.140729 275.644131 
L 219.485974 275.644131 
L 219.485974 275.532294 
L 220.767098 275.532294 
L 220.767098 275.308622 
L 224.010427 275.308622 
L 224.010427 275.196785 
L 224.561201 275.196785 
L 224.561201 275.084949 
L 227.701574 275.084949 
L 227.701574 274.973112 
L 234.224282 274.973112 
L 234.224282 274.861276 
L 238.98817 274.861276 
L 238.98817 274.749439 
L 333.168 274.749439 
L 333.168 274.749439 
" style="fill:none;stroke:#000080;stroke-linecap:square;stroke-width:1.5;"/>
   </g>
   <g id="line2d_44">
    <defs>
     <path d="M 0 6 
C 1.591219 6 3.117479 5.367802 4.242641 4.242641 
C 5.367802 3.117479 6 1.591219 6 0 
C 6 -1.591219 5.367802 -3.117479 4.242641 -4.242641 
C 3.117479 -5.367802 1.591219 -6 0 -6 
C -1.591219 -6 -3.117479 -5.367802 -4.242641 -4.242641 
C -5.367802 -3.117479 -6 -1.591219 -6 0 
C -6 1.591219 -5.367802 3.117479 -4.242641 4.242641 
C -3.117479 5.367802 -1.591219 6 0 6 
z
" id="ma7bf4ade35" style="stroke:#000080;stroke-width:1.5;"/>
    </defs>
    <g>
     <use style="fill-opacity:0;stroke:#000080;stroke-width:1.5;" x="115.338517" xlink:href="#ma7bf4ade35" y="289.400014"/>
     <use style="fill-opacity:0;stroke:#000080;stroke-width:1.5;" x="190.246506" xlink:href="#ma7bf4ade35" y="277.545351"/>
     <use style="fill-opacity:0;stroke:#000080;stroke-width:1.5;" x="238.98817" xlink:href="#ma7bf4ade35" y="274.861276"/>
     <use style="fill-opacity:0;stroke:#000080;stroke-width:1.5;" x="238.98817" xlink:href="#ma7bf4ade35" y="274.749439"/>
     <use style="fill-opacity:0;stroke:#000080;stroke-width:1.5;" x="333.168" xlink:href="#ma7bf4ade35" y="274.749439"/>
    </g>
   </g>
   <g id="line2d_45">
    <path style="fill:none;stroke:#000080;stroke-linecap:square;stroke-width:1.5;"/>
    <g/>
   </g>
   <g id="line2d_46">
    <path clip-path="url(#p76d107234b)" d="M 175.026741 279.558407 
" style="fill:none;stroke:#000080;stroke-linecap:square;stroke-width:1.5;"/>
    <defs>
     <path d="M -12 12 
L 12 -12 
M -12 -12 
L 12 12 
" id="m9041620e2b" style="stroke:#000080;"/>
    </defs>
    <g clip-path="url(#p76d107234b)">
     <use style="fill:#000080;stroke:#000080;" x="175.026741" xlink:href="#m9041620e2b" y="279.558407"/>
    </g>
   </g>
   <g id="line2d_47">
    <defs>
     <path d="M 0 1.5 
C 0.397805 1.5 0.77937 1.341951 1.06066 1.06066 
C 1.341951 0.77937 1.5 0.397805 1.5 0 
C 1.5 -0.397805 1.341951 -0.77937 1.06066 -1.06066 
C 0.77937 -1.341951 0.397805 -1.5 0 -1.5 
C -0.397805 -1.5 -0.77937 -1.341951 -1.06066 -1.06066 
C -1.341951 -0.77937 -1.5 -0.397805 -1.5 0 
C -1.5 0.397805 -1.341951 0.77937 -1.06066 1.06066 
C -0.77937 1.341951 -0.397805 1.5 0 1.5 
z
" id="m9fa2d3a114" style="stroke:#ff00ff;"/>
    </defs>
    <g>
     <use style="fill:#ff00ff;stroke:#ff00ff;" x="233.873159" xlink:href="#m9fa2d3a114" y="278.104533"/>
     <use style="fill:#ff00ff;stroke:#ff00ff;" x="233.873159" xlink:href="#m9fa2d3a114" y="278.104533"/>
    </g>
   </g>
   <g id="line2d_48">
    <path d="M 4.627463 294.88 
L 4.627463 292.531435 
L 48.715431 292.531435 
L 48.715431 292.419598 
L 49.989246 292.419598 
L 49.989246 292.195925 
L 71.522526 292.195925 
L 71.522526 291.860416 
L 96.454876 291.860416 
L 96.454876 291.748579 
L 96.780736 291.748579 
L 96.780736 291.636743 
L 97.336537 291.636743 
L 97.336537 291.524907 
L 97.492092 291.524907 
L 97.492092 291.189397 
L 97.79904 291.189397 
L 97.79904 291.077561 
L 98.396965 291.077561 
L 98.396965 290.853888 
L 102.610285 290.853888 
L 102.610285 290.630215 
L 102.895343 290.630215 
L 102.895343 290.518379 
L 103.120034 290.518379 
L 103.120034 290.406542 
L 103.615101 290.406542 
L 103.615101 290.294706 
L 104.096307 290.294706 
L 104.148953 290.071033 
L 111.585031 290.071033 
L 111.585031 289.735523 
L 111.788449 289.735523 
L 111.788449 289.623687 
L 112.57887 289.623687 
L 112.57887 289.51185 
L 115.283601 289.51185 
L 115.283601 289.400014 
L 116.884309 289.400014 
L 116.884309 289.176341 
L 117.329507 289.176341 
L 117.329507 289.064505 
L 119.591125 289.064505 
L 119.591125 288.952668 
L 120.64954 288.952668 
L 120.64954 288.840832 
L 121.320594 288.840832 
L 121.320594 288.728995 
L 123.413809 288.728995 
L 123.499282 288.28165 
L 123.668964 288.28165 
L 123.668964 288.169813 
L 124.331421 288.169813 
L 124.331421 287.834304 
L 125.109607 287.834304 
L 125.109607 287.722467 
L 125.447856 287.722467 
L 125.447856 287.610631 
L 126.780294 287.610631 
L 126.780294 287.386958 
L 127.389295 287.386958 
L 127.389295 287.275122 
L 127.739271 287.275122 
L 127.739271 286.939612 
L 127.964309 286.939612 
L 128.003717 286.492266 
L 129.748989 286.492266 
L 129.748989 286.268593 
L 130.660852 286.268593 
L 130.660852 286.156757 
L 131.675773 286.156757 
L 131.675773 285.933084 
L 131.88642 285.933084 
L 131.88642 285.821248 
L 133.532283 285.821248 
L 133.532283 285.709411 
L 133.796584 285.709411 
L 133.796584 285.597575 
L 133.96437 285.597575 
L 133.96437 285.373902 
L 134.440084 285.373902 
L 134.440084 285.262065 
L 135.439093 285.262065 
L 135.439093 285.150229 
L 136.953844 285.150229 
L 136.953844 285.038393 
L 137.163039 285.038393 
L 137.178434 284.702883 
L 138.883703 284.702883 
L 138.883703 284.591047 
L 139.673498 284.591047 
L 139.673498 284.47921 
L 139.983449 284.47921 
L 139.983449 284.255537 
L 140.536516 284.255537 
L 140.536516 284.143701 
L 142.388607 284.143701 
L 142.388607 284.031865 
L 142.546976 284.031865 
L 142.546976 283.920028 
L 143.905035 283.920028 
L 143.905035 283.808192 
L 145.389366 283.808192 
L 145.389366 283.696355 
L 146.099819 283.696355 
L 146.099819 283.584519 
L 146.680556 283.584519 
L 146.680556 283.472682 
L 148.143669 283.472682 
L 148.143669 283.360846 
L 148.461875 283.360846 
L 148.497755 283.137173 
L 151.370105 283.137173 
L 151.370105 283.025336 
L 165.567148 283.025336 
L 165.567148 282.9135 
L 166.371255 282.9135 
L 166.371255 282.689827 
L 166.524032 282.689827 
L 166.524032 282.577991 
L 166.667161 282.577991 
L 166.667161 282.354318 
L 167.226711 282.354318 
L 167.226711 282.242481 
L 167.58725 282.242481 
L 167.58725 282.130645 
L 167.883748 282.130645 
L 167.883748 282.018808 
L 168.263721 282.018808 
L 168.263721 281.795136 
L 169.112563 281.795136 
L 169.112563 281.459626 
L 169.798482 281.459626 
L 169.798482 281.34779 
L 176.499358 281.34779 
L 176.499358 281.235953 
L 177.094987 281.235953 
L 177.094987 281.01228 
L 178.050198 281.01228 
L 178.050198 280.900444 
L 178.896784 280.900444 
L 178.896784 280.788608 
L 183.737903 280.788608 
L 183.737903 280.676771 
L 184.136148 280.676771 
L 184.237023 280.453098 
L 184.762188 280.453098 
L 184.762188 280.341262 
L 185.383935 280.341262 
L 185.383935 280.229425 
L 188.193126 280.229425 
L 188.193126 280.117589 
L 191.842616 280.117589 
L 191.842616 280.005752 
L 191.962791 280.005752 
L 191.962791 279.893916 
L 192.184978 279.893916 
L 192.184978 279.782079 
L 197.415626 279.782079 
L 197.415626 279.670243 
L 207.666453 279.670243 
L 207.744121 279.44657 
L 214.097195 279.44657 
L 214.097195 279.334734 
L 215.733622 279.334734 
L 215.733622 279.222897 
L 219.989359 279.222897 
L 219.989359 279.111061 
L 221.237535 279.111061 
L 221.237535 278.999224 
L 223.428896 278.999224 
L 223.428896 278.887388 
L 225.344397 278.887388 
L 225.344397 278.775551 
L 227.90459 278.775551 
L 227.90459 278.663715 
L 230.835412 278.663715 
L 230.835412 278.551879 
L 231.491324 278.551879 
L 231.491324 278.440042 
L 232.714403 278.440042 
L 232.714403 278.216369 
L 233.873159 278.216369 
L 233.873159 278.104533 
L 333.168 278.104533 
L 333.168 278.104533 
" style="fill:none;stroke:#ff00ff;stroke-linecap:square;stroke-width:1.5;"/>
   </g>
   <g id="line2d_49">
    <defs>
     <path d="M -0 8.485281 
L 5.091169 0 
L 0 -8.485281 
L -5.091169 -0 
z
" id="m9136785efd" style="stroke:#ff00ff;stroke-linejoin:miter;stroke-width:1.5;"/>
    </defs>
    <g>
     <use style="fill-opacity:0;stroke:#ff00ff;stroke-linejoin:miter;stroke-width:1.5;" x="123.499282" xlink:href="#m9136785efd" y="288.505322"/>
     <use style="fill-opacity:0;stroke:#ff00ff;stroke-linejoin:miter;stroke-width:1.5;" x="169.798482" xlink:href="#m9136785efd" y="281.459626"/>
     <use style="fill-opacity:0;stroke:#ff00ff;stroke-linejoin:miter;stroke-width:1.5;" x="233.873159" xlink:href="#m9136785efd" y="278.216369"/>
     <use style="fill-opacity:0;stroke:#ff00ff;stroke-linejoin:miter;stroke-width:1.5;" x="233.873159" xlink:href="#m9136785efd" y="278.104533"/>
     <use style="fill-opacity:0;stroke:#ff00ff;stroke-linejoin:miter;stroke-width:1.5;" x="233.873159" xlink:href="#m9136785efd" y="278.104533"/>
     <use style="fill-opacity:0;stroke:#ff00ff;stroke-linejoin:miter;stroke-width:1.5;" x="333.168" xlink:href="#m9136785efd" y="278.104533"/>
    </g>
   </g>
   <g id="line2d_50">
    <path style="fill:none;stroke:#ff00ff;stroke-linecap:square;stroke-width:1.5;"/>
    <g/>
   </g>
   <g id="line2d_51">
    <path clip-path="url(#p76d107234b)" d="M 175.026741 281.34779 
" style="fill:none;stroke:#ff00ff;stroke-linecap:square;stroke-width:1.5;"/>
    <defs>
     <path d="M -12 12 
L 12 -12 
M -12 -12 
L 12 12 
" id="m42b9e357b3" style="stroke:#ff00ff;"/>
    </defs>
    <g clip-path="url(#p76d107234b)">
     <use style="fill:#ff00ff;stroke:#ff00ff;" x="175.026741" xlink:href="#m42b9e357b3" y="281.34779"/>
    </g>
   </g>
   <g id="line2d_52">
    <path d="M 333.168 278.104533 
L 363.64328 289.176341 
" style="fill:none;stroke:#ff00ff;stroke-linecap:square;stroke-width:1.5;"/>
    <g>
     <use style="fill-opacity:0;stroke:#ff00ff;stroke-linejoin:miter;stroke-width:1.5;" x="333.168" xlink:href="#m9136785efd" y="278.104533"/>
     <use style="fill-opacity:0;stroke:#ff00ff;stroke-linejoin:miter;stroke-width:1.5;" x="363.64328" xlink:href="#m9136785efd" y="289.176341"/>
    </g>
   </g>
   <g id="line2d_53">
    <path d="M 333.168 274.749439 
L 363.64328 152.288529 
" style="fill:none;stroke:#000080;stroke-linecap:square;stroke-width:1.5;"/>
    <g>
     <use style="fill-opacity:0;stroke:#000080;stroke-width:1.5;" x="333.168" xlink:href="#ma7bf4ade35" y="274.749439"/>
     <use style="fill-opacity:0;stroke:#000080;stroke-width:1.5;" x="363.64328" xlink:href="#ma7bf4ade35" y="152.288529"/>
    </g>
   </g>
   <g id="line2d_54">
    <path d="M 333.168 294.88 
L 333.168 9.697057 
" style="fill:none;stroke:#000000;stroke-linecap:square;stroke-width:1.5;"/>
   </g>
   <g id="patch_3">
    <path d="M 56.12 294.88 
L 56.12 6.845228 
" style="fill:none;stroke:#000000;stroke-linecap:square;stroke-linejoin:miter;stroke-width:0.8;"/>
   </g>
   <g id="patch_4">
    <path d="M 333.168 294.88 
L 333.168 6.845228 
" style="fill:none;stroke:#000000;stroke-linecap:square;stroke-linejoin:miter;stroke-width:0.8;"/>
   </g>
   <g id="patch_5">
    <path d="M 56.12 294.88 
L 333.168 294.88 
" style="fill:none;stroke:#000000;stroke-linecap:square;stroke-linejoin:miter;stroke-width:0.8;"/>
   </g>
   <g id="patch_6">
    <path d="M 56.12 6.845228 
L 333.168 6.845228 
" style="fill:none;stroke:#000000;stroke-linecap:square;stroke-linejoin:miter;stroke-width:0.8;"/>
   </g>
   <g id="text_13">
    <!-- PSO2 -->
    <defs>
     <path d="M 19.671875 64.796875 
L 19.671875 37.40625 
L 32.078125 37.40625 
Q 38.96875 37.40625 42.71875 40.96875 
Q 46.484375 44.53125 46.484375 51.125 
Q 46.484375 57.671875 42.71875 61.234375 
Q 38.96875 64.796875 32.078125 64.796875 
z
M 9.8125 72.90625 
L 32.078125 72.90625 
Q 44.34375 72.90625 50.609375 67.359375 
Q 56.890625 61.8125 56.890625 51.125 
Q 56.890625 40.328125 50.609375 34.8125 
Q 44.34375 29.296875 32.078125 29.296875 
L 19.671875 29.296875 
L 19.671875 0 
L 9.8125 0 
z
" id="DejaVuSans-50"/>
     <path d="M 53.515625 70.515625 
L 53.515625 60.890625 
Q 47.90625 63.578125 42.921875 64.890625 
Q 37.9375 66.21875 33.296875 66.21875 
Q 25.25 66.21875 20.875 63.09375 
Q 16.5 59.96875 16.5 54.203125 
Q 16.5 49.359375 19.40625 46.890625 
Q 22.3125 44.4375 30.421875 42.921875 
L 36.375 41.703125 
Q 47.40625 39.59375 52.65625 34.296875 
Q 57.90625 29 57.90625 20.125 
Q 57.90625 9.515625 50.796875 4.046875 
Q 43.703125 -1.421875 29.984375 -1.421875 
Q 24.8125 -1.421875 18.96875 -0.25 
Q 13.140625 0.921875 6.890625 3.21875 
L 6.890625 13.375 
Q 12.890625 10.015625 18.65625 8.296875 
Q 24.421875 6.59375 29.984375 6.59375 
Q 38.421875 6.59375 43.015625 9.90625 
Q 47.609375 13.234375 47.609375 19.390625 
Q 47.609375 24.75 44.3125 27.78125 
Q 41.015625 30.8125 33.5 32.328125 
L 27.484375 33.5 
Q 16.453125 35.6875 11.515625 40.375 
Q 6.59375 45.0625 6.59375 53.421875 
Q 6.59375 63.09375 13.40625 68.65625 
Q 20.21875 74.21875 32.171875 74.21875 
Q 37.3125 74.21875 42.625 73.28125 
Q 47.953125 72.359375 53.515625 70.515625 
z
" id="DejaVuSans-53"/>
     <path d="M 39.40625 66.21875 
Q 28.65625 66.21875 22.328125 58.203125 
Q 16.015625 50.203125 16.015625 36.375 
Q 16.015625 22.609375 22.328125 14.59375 
Q 28.65625 6.59375 39.40625 6.59375 
Q 50.140625 6.59375 56.421875 14.59375 
Q 62.703125 22.609375 62.703125 36.375 
Q 62.703125 50.203125 56.421875 58.203125 
Q 50.140625 66.21875 39.40625 66.21875 
z
M 39.40625 74.21875 
Q 54.734375 74.21875 63.90625 63.9375 
Q 73.09375 53.65625 73.09375 36.375 
Q 73.09375 19.140625 63.90625 8.859375 
Q 54.734375 -1.421875 39.40625 -1.421875 
Q 24.03125 -1.421875 14.8125 8.828125 
Q 5.609375 19.09375 5.609375 36.375 
Q 5.609375 53.65625 14.8125 63.9375 
Q 24.03125 74.21875 39.40625 74.21875 
z
" id="DejaVuSans-4f"/>
    </defs>
    <g transform="translate(369.18424 293.867279)scale(0.17 -0.17)">
     <use xlink:href="#DejaVuSans-50"/>
     <use x="60.302734" xlink:href="#DejaVuSans-53"/>
     <use x="123.779297" xlink:href="#DejaVuSans-4f"/>
     <use x="202.490234" xlink:href="#DejaVuSans-32"/>
    </g>
   </g>
   <g id="text_14">
    <!-- PSO1 -->
    <g transform="translate(369.18424 156.979466)scale(0.17 -0.17)">
     <use xlink:href="#DejaVuSans-50"/>
     <use x="60.302734" xlink:href="#DejaVuSans-53"/>
     <use x="123.779297" xlink:href="#DejaVuSans-4f"/>
     <use x="202.490234" xlink:href="#DejaVuSans-31"/>
    </g>
   </g>
   <g id="text_15">
    <!-- best 2009 -->
    <defs>
     <path d="M 48.6875 27.296875 
Q 48.6875 37.203125 44.609375 42.84375 
Q 40.53125 48.484375 33.40625 48.484375 
Q 26.265625 48.484375 22.1875 42.84375 
Q 18.109375 37.203125 18.109375 27.296875 
Q 18.109375 17.390625 22.1875 11.75 
Q 26.265625 6.109375 33.40625 6.109375 
Q 40.53125 6.109375 44.609375 11.75 
Q 48.6875 17.390625 48.6875 27.296875 
z
M 18.109375 46.390625 
Q 20.953125 51.265625 25.265625 53.625 
Q 29.59375 56 35.59375 56 
Q 45.5625 56 51.78125 48.09375 
Q 58.015625 40.1875 58.015625 27.296875 
Q 58.015625 14.40625 51.78125 6.484375 
Q 45.5625 -1.421875 35.59375 -1.421875 
Q 29.59375 -1.421875 25.265625 0.953125 
Q 20.953125 3.328125 18.109375 8.203125 
L 18.109375 0 
L 9.078125 0 
L 9.078125 75.984375 
L 18.109375 75.984375 
z
" id="DejaVuSans-62"/>
     <path d="M 10.984375 1.515625 
L 10.984375 10.5 
Q 14.703125 8.734375 18.5 7.8125 
Q 22.3125 6.890625 25.984375 6.890625 
Q 35.75 6.890625 40.890625 13.453125 
Q 46.046875 20.015625 46.78125 33.40625 
Q 43.953125 29.203125 39.59375 26.953125 
Q 35.25 24.703125 29.984375 24.703125 
Q 19.046875 24.703125 12.671875 31.3125 
Q 6.296875 37.9375 6.296875 49.421875 
Q 6.296875 60.640625 12.9375 67.421875 
Q 19.578125 74.21875 30.609375 74.21875 
Q 43.265625 74.21875 49.921875 64.515625 
Q 56.59375 54.828125 56.59375 36.375 
Q 56.59375 19.140625 48.40625 8.859375 
Q 40.234375 -1.421875 26.421875 -1.421875 
Q 22.703125 -1.421875 18.890625 -0.6875 
Q 15.09375 0.046875 10.984375 1.515625 
z
M 30.609375 32.421875 
Q 37.25 32.421875 41.125 36.953125 
Q 45.015625 41.5 45.015625 49.421875 
Q 45.015625 57.28125 41.125 61.84375 
Q 37.25 66.40625 30.609375 66.40625 
Q 23.96875 66.40625 20.09375 61.84375 
Q 16.21875 57.28125 16.21875 49.421875 
Q 16.21875 41.5 20.09375 36.953125 
Q 23.96875 32.421875 30.609375 32.421875 
z
" id="DejaVuSans-39"/>
    </defs>
    <g transform="translate(369.18424 20.091654)scale(0.17 -0.17)">
     <use xlink:href="#DejaVuSans-62"/>
     <use x="63.476562" xlink:href="#DejaVuSans-65"/>
     <use x="125" xlink:href="#DejaVuSans-73"/>
     <use x="177.099609" xlink:href="#DejaVuSans-74"/>
     <use x="216.308594" xlink:href="#DejaVuSans-20"/>
     <use x="248.095703" xlink:href="#DejaVuSans-32"/>
     <use x="311.71875" xlink:href="#DejaVuSans-30"/>
     <use x="375.341797" xlink:href="#DejaVuSans-30"/>
     <use x="438.964844" xlink:href="#DejaVuSans-39"/>
    </g>
   </g>
   <g id="text_16">
    <!-- bbob f10-f14, 20-D -->
    <defs>
     <path d="M 19.671875 64.796875 
L 19.671875 8.109375 
L 31.59375 8.109375 
Q 46.6875 8.109375 53.6875 14.9375 
Q 60.6875 21.78125 60.6875 36.53125 
Q 60.6875 51.171875 53.6875 57.984375 
Q 46.6875 64.796875 31.59375 64.796875 
z
M 9.8125 72.90625 
L 30.078125 72.90625 
Q 51.265625 72.90625 61.171875 64.09375 
Q 71.09375 55.28125 71.09375 36.53125 
Q 71.09375 17.671875 61.125 8.828125 
Q 51.171875 0 30.078125 0 
L 9.8125 0 
z
" id="DejaVuSans-44"/>
    </defs>
    <g transform="translate(58.89048 17.475982)scale(0.102 -0.102)">
     <use xlink:href="#DejaVuSans-62"/>
     <use x="63.476562" xlink:href="#DejaVuSans-62"/>
     <use x="126.953125" xlink:href="#DejaVuSans-6f"/>
     <use x="188.134766" xlink:href="#DejaVuSans-62"/>
     <use x="251.611328" xlink:href="#DejaVuSans-20"/>
     <use x="283.398438" xlink:href="#DejaVuSans-66"/>
     <use x="318.603516" xlink:href="#DejaVuSans-31"/>
     <use x="382.226562" xlink:href="#DejaVuSans-30"/>
     <use x="445.849609" xlink:href="#DejaVuSans-2d"/>
     <use x="481.933594" xlink:href="#DejaVuSans-66"/>
     <use x="517.138672" xlink:href="#DejaVuSans-31"/>
     <use x="580.761719" xlink:href="#DejaVuSans-34"/>
     <use x="644.384766" xlink:href="#DejaVuSans-2c"/>
     <use x="676.171875" xlink:href="#DejaVuSans-20"/>
     <use x="707.958984" xlink:href="#DejaVuSans-32"/>
     <use x="771.582031" xlink:href="#DejaVuSans-30"/>
     <use x="835.205078" xlink:href="#DejaVuSans-2d"/>
     <use x="871.289062" xlink:href="#DejaVuSans-44"/>
    </g>
    <!-- 51 targets: 100..1e-08 -->
    <defs>
     <path d="M 10.796875 72.90625 
L 49.515625 72.90625 
L 49.515625 64.59375 
L 19.828125 64.59375 
L 19.828125 46.734375 
Q 21.96875 47.46875 24.109375 47.828125 
Q 26.265625 48.1875 28.421875 48.1875 
Q 40.625 48.1875 47.75 41.5 
Q 54.890625 34.8125 54.890625 23.390625 
Q 54.890625 11.625 47.5625 5.09375 
Q 40.234375 -1.421875 26.90625 -1.421875 
Q 22.3125 -1.421875 17.546875 -0.640625 
Q 12.796875 0.140625 7.71875 1.703125 
L 7.71875 11.625 
Q 12.109375 9.234375 16.796875 8.0625 
Q 21.484375 6.890625 26.703125 6.890625 
Q 35.15625 6.890625 40.078125 11.328125 
Q 45.015625 15.765625 45.015625 23.390625 
Q 45.015625 31 40.078125 35.4375 
Q 35.15625 39.890625 26.703125 39.890625 
Q 22.75 39.890625 18.8125 39.015625 
Q 14.890625 38.140625 10.796875 36.28125 
z
" id="DejaVuSans-35"/>
     <path d="M 11.71875 12.40625 
L 22.015625 12.40625 
L 22.015625 0 
L 11.71875 0 
z
M 11.71875 51.703125 
L 22.015625 51.703125 
L 22.015625 39.3125 
L 11.71875 39.3125 
z
" id="DejaVuSans-3a"/>
    </defs>
    <g transform="translate(58.89048 28.89775)scale(0.102 -0.102)">
     <use xlink:href="#DejaVuSans-35"/>
     <use x="63.623047" xlink:href="#DejaVuSans-31"/>
     <use x="127.246094" xlink:href="#DejaVuSans-20"/>
     <use x="159.033203" xlink:href="#DejaVuSans-74"/>
     <use x="198.242188" xlink:href="#DejaVuSans-61"/>
     <use x="259.521484" xlink:href="#DejaVuSans-72"/>
     <use x="300.619141" xlink:href="#DejaVuSans-67"/>
     <use x="364.095703" xlink:href="#DejaVuSans-65"/>
     <use x="425.619141" xlink:href="#DejaVuSans-74"/>
     <use x="464.828125" xlink:href="#DejaVuSans-73"/>
     <use x="516.927734" xlink:href="#DejaVuSans-3a"/>
     <use x="550.619141" xlink:href="#DejaVuSans-20"/>
     <use x="582.40625" xlink:href="#DejaVuSans-31"/>
     <use x="646.029297" xlink:href="#DejaVuSans-30"/>
     <use x="709.652344" xlink:href="#DejaVuSans-30"/>
     <use x="773.275391" xlink:href="#DejaVuSans-2e"/>
     <use x="805.0625" xlink:href="#DejaVuSans-2e"/>
     <use x="836.849609" xlink:href="#DejaVuSans-31"/>
     <use x="900.472656" xlink:href="#DejaVuSans-65"/>
     <use x="961.996094" xlink:href="#DejaVuSans-2d"/>
     <use x="998.080078" xlink:href="#DejaVuSans-30"/>
     <use x="1061.703125" xlink:href="#DejaVuSans-38"/>
    </g>
    <!-- 15 instances -->
    <g transform="translate(58.89048 40.319519)scale(0.102 -0.102)">
     <use xlink:href="#DejaVuSans-31"/>
     <use x="63.623047" xlink:href="#DejaVuSans-35"/>
     <use x="127.246094" xlink:href="#DejaVuSans-20"/>
     <use x="159.033203" xlink:href="#DejaVuSans-69"/>
     <use x="186.816406" xlink:href="#DejaVuSans-6e"/>
     <use x="250.195312" xlink:href="#DejaVuSans-73"/>
     <use x="302.294922" xlink:href="#DejaVuSans-74"/>
     <use x="341.503906" xlink:href="#DejaVuSans-61"/>
     <use x="402.783203" xlink:href="#DejaVuSans-6e"/>
     <use x="466.162109" xlink:href="#DejaVuSans-63"/>
     <use x="521.142578" xlink:href="#DejaVuSans-65"/>
     <use x="582.666016" xlink:href="#DejaVuSans-73"/>
    </g>
   </g>
   <g id="text_17">
    <!-- v0.0.0 -->
    <g style="fill:#808080;" transform="translate(178.96275 289.919965)scale(0.1 -0.1)">
     <use xlink:href="#DejaVuSans-76"/>
     <use x="59.179688" xlink:href="#DejaVuSans-30"/>
     <use x="122.802734" xlink:href="#DejaVuSans-2e"/>
     <use x="154.589844" xlink:href="#DejaVuSans-30"/>
     <use x="218.212891" xlink:href="#DejaVuSans-2e"/>
     <use x="250" xlink:href="#DejaVuSans-30"/>
    </g>
   </g>
  </g>
 </g>
 <defs>
  <clipPath id="p76d107234b">
   <rect height="288.034772" width="277.048" x="56.12" y="6.845228"/>
  </clipPath>
 </defs>
</svg>
