<?xml version="1.0" encoding="utf-8" standalone="no"?>
<!DOCTYPE svg PUBLIC "-//W3C//DTD SVG 1.1//EN"
  "http://www.w3.org/Graphics/SVG/1.1/DTD/svg11.dtd">
<!-- Created with matplotlib (http://matplotlib.org/) -->
<svg height="345.6pt" version="1.1" viewBox="0 0 460.8 345.6" width="460.8pt" xmlns="http://www.w3.org/2000/svg" xmlns:xlink="http://www.w3.org/1999/xlink">
 <defs>
  <style type="text/css">
*{stroke-linecap:butt;stroke-linejoin:round;}
  </style>
 </defs>
 <g id="figure_1">
  <g id="patch_1">
   <path d="M 0 345.6 
L 460.8 345.6 
L 460.8 0 
L 0 0 
z
" style="fill:#ffffff;"/>
  </g>
  <g id="axes_1">
   <g id="patch_2">
    <path d="M 56.12 294.88 
L 333.168 294.88 
L 333.168 6.845228 
L 56.12 6.845228 
z
" style="fill:#ffffff;"/>
   </g>
   <g id="line2d_1">
    <path d="M 16.541714 294.88 
L 16.541714 293.761636 
L 40.370217 293.761636 
L 40.370217 292.643271 
L 52.284468 292.643271 
L 52.284468 291.524907 
L 57.758252 291.524907 
L 57.758252 290.406542 
L 70.436568 290.406542 
L 70.436568 289.288178 
L 73.192638 289.288178 
L 73.192638 288.169813 
L 78.60845 288.169813 
L 78.60845 287.051449 
L 84.458185 287.051449 
L 84.458185 285.933084 
L 88.027221 285.933084 
L 88.027221 284.81472 
L 91.205783 284.81472 
L 91.205783 283.696355 
L 91.427575 283.696355 
L 91.427575 282.577991 
L 93.304561 282.577991 
L 93.304561 281.459626 
L 95.351029 281.459626 
L 95.351029 280.341262 
L 96.861245 280.341262 
L 96.861245 279.222897 
L 97.950482 279.222897 
L 97.950482 278.104533 
L 98.832144 278.104533 
L 98.832144 276.986168 
L 99.806659 276.986168 
L 99.806659 275.867804 
L 100.600121 275.867804 
L 100.600121 274.749439 
L 101.604122 274.749439 
L 101.604122 273.631075 
L 102.895343 273.631075 
L 102.895343 272.51271 
L 103.120034 272.51271 
L 103.120034 271.394346 
L 104.305927 271.394346 
L 104.305927 270.275981 
L 105.896762 270.275981 
L 105.896762 269.157617 
L 107.783569 269.157617 
L 107.783569 268.039252 
L 108.036969 268.039252 
L 108.036969 266.920888 
L 109.014785 266.920888 
L 109.014785 265.802523 
L 110.311216 265.802523 
L 110.311216 264.684159 
L 111.030511 264.684159 
L 111.030511 263.565795 
L 111.72091 263.565795 
L 111.72091 262.44743 
L 111.855724 262.44743 
L 111.855724 261.329066 
L 111.989488 261.329066 
L 111.989488 260.210701 
L 112.514373 260.210701 
L 112.514373 259.092337 
L 112.643127 259.092337 
L 112.643127 257.973972 
L 113.086321 257.973972 
L 113.086321 256.855608 
L 114.23467 256.855608 
L 114.23467 254.618879 
L 114.409176 254.618879 
L 114.409176 253.500514 
L 115.957752 253.500514 
L 115.957752 252.38215 
L 116.73331 252.38215 
L 116.783791 250.145421 
L 117.329507 250.145421 
L 117.329507 249.027056 
L 118.958878 249.027056 
L 118.958878 247.908692 
L 119.179531 247.908692 
L 119.179531 246.790327 
L 120.118102 246.790327 
L 120.118102 245.671963 
L 120.809808 245.671963 
L 120.809808 244.553598 
L 121.047443 244.553598 
L 121.12593 242.316869 
L 121.778985 242.316869 
L 121.816638 240.08014 
L 122.660646 240.08014 
L 122.696418 237.843411 
L 123.533353 237.843411 
L 123.533353 236.725047 
L 123.870396 236.725047 
L 123.870396 235.606682 
L 124.069494 235.606682 
L 124.069494 234.488318 
L 124.428624 234.488318 
L 124.428624 233.369954 
L 125.031795 233.369954 
L 125.031795 232.251589 
L 125.156126 232.251589 
L 125.156126 231.133225 
L 125.371564 231.133225 
L 125.371564 230.01486 
L 125.794504 230.01486 
L 125.794504 228.896496 
L 126.381204 228.896496 
L 126.381204 227.778131 
L 126.695551 227.778131 
L 126.695551 226.659767 
L 127.197852 226.659767 
L 127.197852 225.541402 
L 127.334814 225.541402 
L 127.334814 224.423038 
L 128.495224 224.423038 
L 128.520707 222.186309 
L 128.823599 222.186309 
L 128.823599 221.067944 
L 129.096637 221.067944 
L 129.096637 219.94958 
L 129.606147 219.94958 
L 129.606147 218.831215 
L 130.649607 218.831215 
L 130.649607 217.712851 
L 131.115693 217.712851 
L 131.115693 216.594486 
L 131.289977 216.594486 
L 131.376461 213.239393 
L 132.320552 213.239393 
L 132.320552 212.121028 
L 133.020593 212.121028 
L 133.020593 211.002664 
L 133.389004 211.002664 
L 133.389004 209.884299 
L 133.843356 209.884299 
L 133.843356 208.765935 
L 134.646368 208.765935 
L 134.646368 207.64757 
L 134.788423 207.64757 
L 134.788423 206.529206 
L 135.515543 206.529206 
L 135.515543 205.410841 
L 135.917635 205.410841 
L 135.967241 203.174112 
L 136.213149 203.174112 
L 136.213149 202.055748 
L 136.326713 202.055748 
L 136.326713 200.937384 
L 137.422898 200.937384 
L 137.422898 199.819019 
L 138.266591 199.819019 
L 138.266591 198.700655 
L 138.974042 198.700655 
L 138.974042 197.58229 
L 139.49288 197.58229 
L 139.49288 196.463926 
L 139.87856 196.463926 
L 139.87856 195.345561 
L 140.332797 195.345561 
L 140.332797 194.227197 
L 140.675186 194.227197 
L 140.675186 191.990468 
L 140.936852 191.990468 
L 140.936852 190.872103 
L 141.340159 190.872103 
L 141.340159 189.753739 
L 141.460528 189.753739 
L 141.460528 188.635374 
L 141.851869 188.635374 
L 141.851869 187.51701 
L 142.223028 187.51701 
L 142.223028 185.280281 
L 142.608796 185.280281 
L 142.608796 184.161916 
L 143.018992 184.161916 
L 143.018992 183.043552 
L 143.398208 183.043552 
L 143.398208 181.925187 
L 143.800672 181.925187 
L 143.800672 180.806823 
L 144.091308 180.806823 
L 144.183692 178.570094 
L 144.638311 178.570094 
L 144.638311 177.451729 
L 145.178107 177.451729 
L 145.178107 176.333365 
L 145.34158 176.333365 
L 145.34158 175.215 
L 145.512992 175.215 
L 145.512992 174.096636 
L 145.710835 174.096636 
L 145.710835 172.978271 
L 146.172923 172.978271 
L 146.172923 171.859907 
L 146.43535 171.859907 
L 146.453301 169.623178 
L 146.965905 169.623178 
L 146.965905 168.504814 
L 147.233741 168.504814 
L 147.233741 167.386449 
L 147.438268 167.386449 
L 147.438268 166.268085 
L 147.598477 166.268085 
L 147.598477 165.14972 
L 148.078499 165.14972 
L 148.078499 164.031356 
L 148.608906 164.031356 
L 148.608906 162.912991 
L 148.875888 162.912991 
L 148.875888 161.794627 
L 149.443019 161.794627 
L 149.443019 160.676262 
L 150.130213 160.676262 
L 150.238522 158.439533 
L 150.714141 158.439533 
L 150.797954 156.202804 
L 150.874425 156.202804 
L 150.936741 153.966075 
L 151.067558 153.966075 
L 151.067558 152.847711 
L 151.713722 152.847711 
L 151.713722 151.729346 
L 152.208581 151.729346 
L 152.208581 150.610982 
L 152.444438 150.610982 
L 152.526544 148.374253 
L 152.576877 148.374253 
L 152.645845 146.137524 
L 152.789162 146.137524 
L 152.826354 143.900795 
L 152.918982 143.900795 
L 152.986593 140.545702 
L 153.053939 140.545702 
L 153.139273 138.308973 
L 153.206025 138.308973 
L 153.284581 136.072244 
L 153.559701 136.072244 
L 153.589342 133.835515 
L 153.894612 133.835515 
L 153.894612 132.71715 
L 154.376568 132.71715 
L 154.376568 131.598786 
L 154.623729 131.598786 
L 154.623729 130.480421 
L 154.734911 130.480421 
L 154.828853 128.243692 
L 154.916803 128.243692 
L 154.916803 127.125328 
L 155.204963 127.125328 
L 155.204963 126.006963 
L 155.525456 126.006963 
L 155.525456 124.888599 
L 155.995263 124.888599 
L 155.995263 123.770234 
L 156.432501 123.770234 
L 156.432501 122.65187 
L 156.686635 122.65187 
L 156.686635 121.533505 
L 156.951685 121.533505 
L 156.951685 120.415141 
L 157.336989 120.415141 
L 157.389299 117.060047 
L 157.578187 117.060047 
L 157.662514 114.823318 
L 157.727817 114.823318 
L 157.806781 112.586589 
L 157.949847 112.586589 
L 157.972811 110.349861 
L 158.385485 110.349861 
L 158.407875 106.994767 
L 158.661078 106.994767 
L 158.661078 105.876403 
L 158.849653 105.876403 
L 158.914951 103.639674 
L 159.25482 103.639674 
L 159.31011 101.402945 
L 159.411718 101.402945 
L 159.495934 99.166216 
L 159.746137 99.166216 
L 159.746137 98.047851 
L 159.882212 98.047851 
L 159.882212 96.929487 
L 160.183489 96.929487 
L 160.183489 95.811122 
L 160.312153 95.811122 
L 160.372134 92.456029 
L 160.649313 92.456029 
L 160.649313 91.337664 
L 160.883387 91.337664 
L 160.922092 87.982571 
L 161.106669 87.982571 
L 161.179187 85.745842 
L 161.258984 85.745842 
L 161.29307 83.509113 
L 161.376107 83.509113 
L 161.458745 79.035655 
L 161.514862 79.035655 
L 161.559624 75.680562 
L 161.652506 75.680562 
L 161.719071 73.443833 
L 161.803753 73.443833 
L 161.869737 68.970375 
L 161.939112 68.970375 
L 162.037219 64.496917 
L 162.06618 64.496917 
L 162.141973 61.141823 
L 162.192316 61.141823 
L 162.26398 58.905094 
L 162.335347 58.905094 
L 162.392228 54.431636 
L 162.544168 54.431636 
L 162.65288 51.076543 
L 162.8164 51.076543 
L 162.847536 47.72145 
L 163.040012 47.72145 
L 163.121847 44.366356 
L 163.264126 44.366356 
L 163.311292 42.129627 
L 163.462027 42.129627 
L 163.462027 41.011263 
L 163.591602 41.011263 
L 163.68074 37.656169 
L 163.85438 37.656169 
L 163.85438 36.537805 
L 164.045637 36.537805 
L 164.074626 34.301076 
L 164.257094 34.301076 
L 164.257094 33.182711 
L 164.484845 33.182711 
L 164.560096 30.945982 
L 165.192802 30.945982 
L 165.192802 29.827618 
L 165.671576 29.827618 
L 165.671576 28.709253 
L 166.134519 28.709253 
L 166.134519 27.590889 
L 166.660241 27.590889 
L 166.660241 26.472524 
L 167.17842 26.472524 
L 167.17842 25.35416 
L 167.547854 25.35416 
L 167.547854 24.235795 
L 167.96863 24.235795 
L 167.96863 23.117431 
L 168.304029 23.117431 
L 168.304029 21.999066 
L 168.746189 21.999066 
L 168.746189 20.880702 
L 169.100556 20.880702 
L 169.100556 19.762337 
L 169.485392 19.762337 
L 169.485392 18.643973 
L 169.889357 18.643973 
L 169.889357 17.525609 
L 170.214388 17.525609 
L 170.214388 16.407244 
L 170.537807 16.407244 
L 170.537807 15.28888 
L 170.883429 15.28888 
L 170.883429 14.170515 
L 171.183974 14.170515 
L 171.183974 13.052151 
L 171.523228 13.052151 
L 171.523228 11.933786 
L 171.806728 11.933786 
L 171.806728 10.815422 
L 172.148114 10.815422 
L 172.148114 9.697057 
L 333.168 9.697057 
L 333.168 9.697057 
" style="fill:none;stroke:#f5deb3;stroke-linecap:square;stroke-width:4;"/>
   </g>
   <g id="line2d_2">
    <defs>
     <path d="M -0 7.778175 
L 7.778175 0 
L 0 -7.778175 
L -7.778175 -0 
z
" id="m10614139d1" style="stroke:#f5deb3;stroke-linejoin:miter;stroke-width:1.5;"/>
    </defs>
    <g>
     <use style="fill:#f5deb3;stroke:#f5deb3;stroke-linejoin:miter;stroke-width:1.5;" x="142.608796" xlink:href="#m10614139d1" y="184.161916"/>
     <use style="fill:#f5deb3;stroke:#f5deb3;stroke-linejoin:miter;stroke-width:1.5;" x="157.949847" xlink:href="#m10614139d1" y="112.586589"/>
     <use style="fill:#f5deb3;stroke:#f5deb3;stroke-linejoin:miter;stroke-width:1.5;" x="172.148114" xlink:href="#m10614139d1" y="10.815422"/>
     <use style="fill:#f5deb3;stroke:#f5deb3;stroke-linejoin:miter;stroke-width:1.5;" x="172.148114" xlink:href="#m10614139d1" y="9.697057"/>
     <use style="fill:#f5deb3;stroke:#f5deb3;stroke-linejoin:miter;stroke-width:1.5;" x="333.168" xlink:href="#m10614139d1" y="9.697057"/>
    </g>
   </g>
   <g id="line2d_3">
    <path style="fill:none;stroke:#f5deb3;stroke-linecap:square;stroke-width:4;"/>
    <g/>
   </g>
   <g id="line2d_4">
    <path d="M 333.168 9.697057 
L 363.64328 15.400716 
" style="fill:none;stroke:#f5deb3;stroke-linecap:square;stroke-width:4;"/>
    <g>
     <use style="fill:#f5deb3;stroke:#f5deb3;stroke-linejoin:miter;stroke-width:1.5;" x="333.168" xlink:href="#m10614139d1" y="9.697057"/>
     <use style="fill:#f5deb3;stroke:#f5deb3;stroke-linejoin:miter;stroke-width:1.5;" x="363.64328" xlink:href="#m10614139d1" y="15.400716"/>
    </g>
   </g>
   <g id="matplotlib.axis_1">
    <g id="xtick_1">
     <g id="line2d_5">
      <path clip-path="url(#p1fb2a2e988)" d="M 56.12 294.88 
L 56.12 6.845228 
" style="fill:none;stroke:#b0b0b0;stroke-linecap:square;stroke-width:0.8;"/>
     </g>
     <g id="line2d_6">
      <defs>
       <path d="M 0 0 
L 0 3.5 
" id="m3ea6cb4287" style="stroke:#000000;stroke-width:0.8;"/>
      </defs>
      <g>
       <use style="stroke:#000000;stroke-width:0.8;" x="56.12" xlink:href="#m3ea6cb4287" y="294.88"/>
      </g>
     </g>
     <g id="text_1">
      <!-- 0 -->
      <defs>
       <path d="M 31.78125 66.40625 
Q 24.171875 66.40625 20.328125 58.90625 
Q 16.5 51.421875 16.5 36.375 
Q 16.5 21.390625 20.328125 13.890625 
Q 24.171875 6.390625 31.78125 6.390625 
Q 39.453125 6.390625 43.28125 13.890625 
Q 47.125 21.390625 47.125 36.375 
Q 47.125 51.421875 43.28125 58.90625 
Q 39.453125 66.40625 31.78125 66.40625 
z
M 31.78125 74.21875 
Q 44.046875 74.21875 50.515625 64.515625 
Q 56.984375 54.828125 56.984375 36.375 
Q 56.984375 17.96875 50.515625 8.265625 
Q 44.046875 -1.421875 31.78125 -1.421875 
Q 19.53125 -1.421875 13.0625 8.265625 
Q 6.59375 17.96875 6.59375 36.375 
Q 6.59375 54.828125 13.0625 64.515625 
Q 19.53125 74.21875 31.78125 74.21875 
z
" id="DejaVuSans-30"/>
      </defs>
      <g transform="translate(49.7575 317.076875)scale(0.2 -0.2)">
       <use xlink:href="#DejaVuSans-30"/>
      </g>
     </g>
    </g>
    <g id="xtick_2">
     <g id="line2d_7">
      <path clip-path="url(#p1fb2a2e988)" d="M 135.276571 294.88 
L 135.276571 6.845228 
" style="fill:none;stroke:#b0b0b0;stroke-linecap:square;stroke-width:0.8;"/>
     </g>
     <g id="line2d_8">
      <g>
       <use style="stroke:#000000;stroke-width:0.8;" x="135.276571" xlink:href="#m3ea6cb4287" y="294.88"/>
      </g>
     </g>
     <g id="text_2">
      <!-- 2 -->
      <defs>
       <path d="M 19.1875 8.296875 
L 53.609375 8.296875 
L 53.609375 0 
L 7.328125 0 
L 7.328125 8.296875 
Q 12.9375 14.109375 22.625 23.890625 
Q 32.328125 33.6875 34.8125 36.53125 
Q 39.546875 41.84375 41.421875 45.53125 
Q 43.3125 49.21875 43.3125 52.78125 
Q 43.3125 58.59375 39.234375 62.25 
Q 35.15625 65.921875 28.609375 65.921875 
Q 23.96875 65.921875 18.8125 64.3125 
Q 13.671875 62.703125 7.8125 59.421875 
L 7.8125 69.390625 
Q 13.765625 71.78125 18.9375 73 
Q 24.125 74.21875 28.421875 74.21875 
Q 39.75 74.21875 46.484375 68.546875 
Q 53.21875 62.890625 53.21875 53.421875 
Q 53.21875 48.921875 51.53125 44.890625 
Q 49.859375 40.875 45.40625 35.40625 
Q 44.1875 33.984375 37.640625 27.21875 
Q 31.109375 20.453125 19.1875 8.296875 
z
" id="DejaVuSans-32"/>
      </defs>
      <g transform="translate(128.914071 317.076875)scale(0.2 -0.2)">
       <use xlink:href="#DejaVuSans-32"/>
      </g>
     </g>
    </g>
    <g id="xtick_3">
     <g id="line2d_9">
      <path clip-path="url(#p1fb2a2e988)" d="M 214.433143 294.88 
L 214.433143 6.845228 
" style="fill:none;stroke:#b0b0b0;stroke-linecap:square;stroke-width:0.8;"/>
     </g>
     <g id="line2d_10">
      <g>
       <use style="stroke:#000000;stroke-width:0.8;" x="214.433143" xlink:href="#m3ea6cb4287" y="294.88"/>
      </g>
     </g>
     <g id="text_3">
      <!-- 4 -->
      <defs>
       <path d="M 37.796875 64.3125 
L 12.890625 25.390625 
L 37.796875 25.390625 
z
M 35.203125 72.90625 
L 47.609375 72.90625 
L 47.609375 25.390625 
L 58.015625 25.390625 
L 58.015625 17.1875 
L 47.609375 17.1875 
L 47.609375 0 
L 37.796875 0 
L 37.796875 17.1875 
L 4.890625 17.1875 
L 4.890625 26.703125 
z
" id="DejaVuSans-34"/>
      </defs>
      <g transform="translate(208.070643 317.076875)scale(0.2 -0.2)">
       <use xlink:href="#DejaVuSans-34"/>
      </g>
     </g>
    </g>
    <g id="xtick_4">
     <g id="line2d_11">
      <path clip-path="url(#p1fb2a2e988)" d="M 293.589714 294.88 
L 293.589714 6.845228 
" style="fill:none;stroke:#b0b0b0;stroke-linecap:square;stroke-width:0.8;"/>
     </g>
     <g id="line2d_12">
      <g>
       <use style="stroke:#000000;stroke-width:0.8;" x="293.589714" xlink:href="#m3ea6cb4287" y="294.88"/>
      </g>
     </g>
     <g id="text_4">
      <!-- 6 -->
      <defs>
       <path d="M 33.015625 40.375 
Q 26.375 40.375 22.484375 35.828125 
Q 18.609375 31.296875 18.609375 23.390625 
Q 18.609375 15.53125 22.484375 10.953125 
Q 26.375 6.390625 33.015625 6.390625 
Q 39.65625 6.390625 43.53125 10.953125 
Q 47.40625 15.53125 47.40625 23.390625 
Q 47.40625 31.296875 43.53125 35.828125 
Q 39.65625 40.375 33.015625 40.375 
z
M 52.59375 71.296875 
L 52.59375 62.3125 
Q 48.875 64.0625 45.09375 64.984375 
Q 41.3125 65.921875 37.59375 65.921875 
Q 27.828125 65.921875 22.671875 59.328125 
Q 17.53125 52.734375 16.796875 39.40625 
Q 19.671875 43.65625 24.015625 45.921875 
Q 28.375 48.1875 33.59375 48.1875 
Q 44.578125 48.1875 50.953125 41.515625 
Q 57.328125 34.859375 57.328125 23.390625 
Q 57.328125 12.15625 50.6875 5.359375 
Q 44.046875 -1.421875 33.015625 -1.421875 
Q 20.359375 -1.421875 13.671875 8.265625 
Q 6.984375 17.96875 6.984375 36.375 
Q 6.984375 53.65625 15.1875 63.9375 
Q 23.390625 74.21875 37.203125 74.21875 
Q 40.921875 74.21875 44.703125 73.484375 
Q 48.484375 72.75 52.59375 71.296875 
z
" id="DejaVuSans-36"/>
      </defs>
      <g transform="translate(287.227214 317.076875)scale(0.2 -0.2)">
       <use xlink:href="#DejaVuSans-36"/>
      </g>
     </g>
    </g>
    <g id="xtick_5">
     <g id="line2d_13">
      <path clip-path="url(#p1fb2a2e988)" d="M 56.12 294.88 
L 56.12 6.845228 
" style="fill:none;stroke:#b0b0b0;stroke-linecap:square;stroke-width:0.8;"/>
     </g>
     <g id="line2d_14">
      <defs>
       <path d="M 0 0 
L 0 2 
" id="m030cb25737" style="stroke:#000000;stroke-width:0.6;"/>
      </defs>
      <g>
       <use style="stroke:#000000;stroke-width:0.6;" x="56.12" xlink:href="#m030cb25737" y="294.88"/>
      </g>
     </g>
    </g>
    <g id="xtick_6">
     <g id="line2d_15">
      <path clip-path="url(#p1fb2a2e988)" d="M 95.698286 294.88 
L 95.698286 6.845228 
" style="fill:none;stroke:#b0b0b0;stroke-linecap:square;stroke-width:0.8;"/>
     </g>
     <g id="line2d_16">
      <g>
       <use style="stroke:#000000;stroke-width:0.6;" x="95.698286" xlink:href="#m030cb25737" y="294.88"/>
      </g>
     </g>
    </g>
    <g id="xtick_7">
     <g id="line2d_17">
      <path clip-path="url(#p1fb2a2e988)" d="M 135.276571 294.88 
L 135.276571 6.845228 
" style="fill:none;stroke:#b0b0b0;stroke-linecap:square;stroke-width:0.8;"/>
     </g>
     <g id="line2d_18">
      <g>
       <use style="stroke:#000000;stroke-width:0.6;" x="135.276571" xlink:href="#m030cb25737" y="294.88"/>
      </g>
     </g>
    </g>
    <g id="xtick_8">
     <g id="line2d_19">
      <path clip-path="url(#p1fb2a2e988)" d="M 174.854857 294.88 
L 174.854857 6.845228 
" style="fill:none;stroke:#b0b0b0;stroke-linecap:square;stroke-width:0.8;"/>
     </g>
     <g id="line2d_20">
      <g>
       <use style="stroke:#000000;stroke-width:0.6;" x="174.854857" xlink:href="#m030cb25737" y="294.88"/>
      </g>
     </g>
    </g>
    <g id="xtick_9">
     <g id="line2d_21">
      <path clip-path="url(#p1fb2a2e988)" d="M 214.433143 294.88 
L 214.433143 6.845228 
" style="fill:none;stroke:#b0b0b0;stroke-linecap:square;stroke-width:0.8;"/>
     </g>
     <g id="line2d_22">
      <g>
       <use style="stroke:#000000;stroke-width:0.6;" x="214.433143" xlink:href="#m030cb25737" y="294.88"/>
      </g>
     </g>
    </g>
    <g id="xtick_10">
     <g id="line2d_23">
      <path clip-path="url(#p1fb2a2e988)" d="M 254.011429 294.88 
L 254.011429 6.845228 
" style="fill:none;stroke:#b0b0b0;stroke-linecap:square;stroke-width:0.8;"/>
     </g>
     <g id="line2d_24">
      <g>
       <use style="stroke:#000000;stroke-width:0.6;" x="254.011429" xlink:href="#m030cb25737" y="294.88"/>
      </g>
     </g>
    </g>
    <g id="xtick_11">
     <g id="line2d_25">
      <path clip-path="url(#p1fb2a2e988)" d="M 293.589714 294.88 
L 293.589714 6.845228 
" style="fill:none;stroke:#b0b0b0;stroke-linecap:square;stroke-width:0.8;"/>
     </g>
     <g id="line2d_26">
      <g>
       <use style="stroke:#000000;stroke-width:0.6;" x="293.589714" xlink:href="#m030cb25737" y="294.88"/>
      </g>
     </g>
    </g>
    <g id="xtick_12">
     <g id="line2d_27">
      <path clip-path="url(#p1fb2a2e988)" d="M 333.168 294.88 
L 333.168 6.845228 
" style="fill:none;stroke:#b0b0b0;stroke-linecap:square;stroke-width:0.8;"/>
     </g>
     <g id="line2d_28">
      <g>
       <use style="stroke:#000000;stroke-width:0.6;" x="333.168" xlink:href="#m030cb25737" y="294.88"/>
      </g>
     </g>
    </g>
    <g id="text_5">
     <!-- log10(# f-evals / dimension) -->
     <defs>
      <path d="M 9.421875 75.984375 
L 18.40625 75.984375 
L 18.40625 0 
L 9.421875 0 
z
" id="DejaVuSans-6c"/>
      <path d="M 30.609375 48.390625 
Q 23.390625 48.390625 19.1875 42.75 
Q 14.984375 37.109375 14.984375 27.296875 
Q 14.984375 17.484375 19.15625 11.84375 
Q 23.34375 6.203125 30.609375 6.203125 
Q 37.796875 6.203125 41.984375 11.859375 
Q 46.1875 17.53125 46.1875 27.296875 
Q 46.1875 37.015625 41.984375 42.703125 
Q 37.796875 48.390625 30.609375 48.390625 
z
M 30.609375 56 
Q 42.328125 56 49.015625 48.375 
Q 55.71875 40.765625 55.71875 27.296875 
Q 55.71875 13.875 49.015625 6.21875 
Q 42.328125 -1.421875 30.609375 -1.421875 
Q 18.84375 -1.421875 12.171875 6.21875 
Q 5.515625 13.875 5.515625 27.296875 
Q 5.515625 40.765625 12.171875 48.375 
Q 18.84375 56 30.609375 56 
z
" id="DejaVuSans-6f"/>
      <path d="M 45.40625 27.984375 
Q 45.40625 37.75 41.375 43.109375 
Q 37.359375 48.484375 30.078125 48.484375 
Q 22.859375 48.484375 18.828125 43.109375 
Q 14.796875 37.75 14.796875 27.984375 
Q 14.796875 18.265625 18.828125 12.890625 
Q 22.859375 7.515625 30.078125 7.515625 
Q 37.359375 7.515625 41.375 12.890625 
Q 45.40625 18.265625 45.40625 27.984375 
z
M 54.390625 6.78125 
Q 54.390625 -7.171875 48.1875 -13.984375 
Q 42 -20.796875 29.203125 -20.796875 
Q 24.46875 -20.796875 20.265625 -20.09375 
Q 16.0625 -19.390625 12.109375 -17.921875 
L 12.109375 -9.1875 
Q 16.0625 -11.328125 19.921875 -12.34375 
Q 23.78125 -13.375 27.78125 -13.375 
Q 36.625 -13.375 41.015625 -8.765625 
Q 45.40625 -4.15625 45.40625 5.171875 
L 45.40625 9.625 
Q 42.625 4.78125 38.28125 2.390625 
Q 33.9375 0 27.875 0 
Q 17.828125 0 11.671875 7.65625 
Q 5.515625 15.328125 5.515625 27.984375 
Q 5.515625 40.671875 11.671875 48.328125 
Q 17.828125 56 27.875 56 
Q 33.9375 56 38.28125 53.609375 
Q 42.625 51.21875 45.40625 46.390625 
L 45.40625 54.6875 
L 54.390625 54.6875 
z
" id="DejaVuSans-67"/>
      <path d="M 12.40625 8.296875 
L 28.515625 8.296875 
L 28.515625 63.921875 
L 10.984375 60.40625 
L 10.984375 69.390625 
L 28.421875 72.90625 
L 38.28125 72.90625 
L 38.28125 8.296875 
L 54.390625 8.296875 
L 54.390625 0 
L 12.40625 0 
z
" id="DejaVuSans-31"/>
      <path d="M 31 75.875 
Q 24.46875 64.65625 21.28125 53.65625 
Q 18.109375 42.671875 18.109375 31.390625 
Q 18.109375 20.125 21.3125 9.0625 
Q 24.515625 -2 31 -13.1875 
L 23.1875 -13.1875 
Q 15.875 -1.703125 12.234375 9.375 
Q 8.59375 20.453125 8.59375 31.390625 
Q 8.59375 42.28125 12.203125 53.3125 
Q 15.828125 64.359375 23.1875 75.875 
z
" id="DejaVuSans-28"/>
      <path d="M 51.125 44 
L 36.921875 44 
L 32.8125 27.6875 
L 47.125 27.6875 
z
M 43.796875 71.78125 
L 38.71875 51.515625 
L 52.984375 51.515625 
L 58.109375 71.78125 
L 65.921875 71.78125 
L 60.890625 51.515625 
L 76.125 51.515625 
L 76.125 44 
L 58.984375 44 
L 54.984375 27.6875 
L 70.515625 27.6875 
L 70.515625 20.21875 
L 53.078125 20.21875 
L 48 0 
L 40.1875 0 
L 45.21875 20.21875 
L 30.90625 20.21875 
L 25.875 0 
L 18.015625 0 
L 23.09375 20.21875 
L 7.71875 20.21875 
L 7.71875 27.6875 
L 24.90625 27.6875 
L 29 44 
L 13.28125 44 
L 13.28125 51.515625 
L 30.90625 51.515625 
L 35.890625 71.78125 
z
" id="DejaVuSans-23"/>
      <path id="DejaVuSans-20"/>
      <path d="M 37.109375 75.984375 
L 37.109375 68.5 
L 28.515625 68.5 
Q 23.6875 68.5 21.796875 66.546875 
Q 19.921875 64.59375 19.921875 59.515625 
L 19.921875 54.6875 
L 34.71875 54.6875 
L 34.71875 47.703125 
L 19.921875 47.703125 
L 19.921875 0 
L 10.890625 0 
L 10.890625 47.703125 
L 2.296875 47.703125 
L 2.296875 54.6875 
L 10.890625 54.6875 
L 10.890625 58.5 
Q 10.890625 67.625 15.140625 71.796875 
Q 19.390625 75.984375 28.609375 75.984375 
z
" id="DejaVuSans-66"/>
      <path d="M 4.890625 31.390625 
L 31.203125 31.390625 
L 31.203125 23.390625 
L 4.890625 23.390625 
z
" id="DejaVuSans-2d"/>
      <path d="M 56.203125 29.59375 
L 56.203125 25.203125 
L 14.890625 25.203125 
Q 15.484375 15.921875 20.484375 11.0625 
Q 25.484375 6.203125 34.421875 6.203125 
Q 39.59375 6.203125 44.453125 7.46875 
Q 49.3125 8.734375 54.109375 11.28125 
L 54.109375 2.78125 
Q 49.265625 0.734375 44.1875 -0.34375 
Q 39.109375 -1.421875 33.890625 -1.421875 
Q 20.796875 -1.421875 13.15625 6.1875 
Q 5.515625 13.8125 5.515625 26.8125 
Q 5.515625 40.234375 12.765625 48.109375 
Q 20.015625 56 32.328125 56 
Q 43.359375 56 49.78125 48.890625 
Q 56.203125 41.796875 56.203125 29.59375 
z
M 47.21875 32.234375 
Q 47.125 39.59375 43.09375 43.984375 
Q 39.0625 48.390625 32.421875 48.390625 
Q 24.90625 48.390625 20.390625 44.140625 
Q 15.875 39.890625 15.1875 32.171875 
z
" id="DejaVuSans-65"/>
      <path d="M 2.984375 54.6875 
L 12.5 54.6875 
L 29.59375 8.796875 
L 46.6875 54.6875 
L 56.203125 54.6875 
L 35.6875 0 
L 23.484375 0 
z
" id="DejaVuSans-76"/>
      <path d="M 34.28125 27.484375 
Q 23.390625 27.484375 19.1875 25 
Q 14.984375 22.515625 14.984375 16.5 
Q 14.984375 11.71875 18.140625 8.90625 
Q 21.296875 6.109375 26.703125 6.109375 
Q 34.1875 6.109375 38.703125 11.40625 
Q 43.21875 16.703125 43.21875 25.484375 
L 43.21875 27.484375 
z
M 52.203125 31.203125 
L 52.203125 0 
L 43.21875 0 
L 43.21875 8.296875 
Q 40.140625 3.328125 35.546875 0.953125 
Q 30.953125 -1.421875 24.3125 -1.421875 
Q 15.921875 -1.421875 10.953125 3.296875 
Q 6 8.015625 6 15.921875 
Q 6 25.140625 12.171875 29.828125 
Q 18.359375 34.515625 30.609375 34.515625 
L 43.21875 34.515625 
L 43.21875 35.40625 
Q 43.21875 41.609375 39.140625 45 
Q 35.0625 48.390625 27.6875 48.390625 
Q 23 48.390625 18.546875 47.265625 
Q 14.109375 46.140625 10.015625 43.890625 
L 10.015625 52.203125 
Q 14.9375 54.109375 19.578125 55.046875 
Q 24.21875 56 28.609375 56 
Q 40.484375 56 46.34375 49.84375 
Q 52.203125 43.703125 52.203125 31.203125 
z
" id="DejaVuSans-61"/>
      <path d="M 44.28125 53.078125 
L 44.28125 44.578125 
Q 40.484375 46.53125 36.375 47.5 
Q 32.28125 48.484375 27.875 48.484375 
Q 21.1875 48.484375 17.84375 46.4375 
Q 14.5 44.390625 14.5 40.28125 
Q 14.5 37.15625 16.890625 35.375 
Q 19.28125 33.59375 26.515625 31.984375 
L 29.59375 31.296875 
Q 39.15625 29.25 43.1875 25.515625 
Q 47.21875 21.78125 47.21875 15.09375 
Q 47.21875 7.46875 41.1875 3.015625 
Q 35.15625 -1.421875 24.609375 -1.421875 
Q 20.21875 -1.421875 15.453125 -0.5625 
Q 10.6875 0.296875 5.421875 2 
L 5.421875 11.28125 
Q 10.40625 8.6875 15.234375 7.390625 
Q 20.0625 6.109375 24.8125 6.109375 
Q 31.15625 6.109375 34.5625 8.28125 
Q 37.984375 10.453125 37.984375 14.40625 
Q 37.984375 18.0625 35.515625 20.015625 
Q 33.0625 21.96875 24.703125 23.78125 
L 21.578125 24.515625 
Q 13.234375 26.265625 9.515625 29.90625 
Q 5.8125 33.546875 5.8125 39.890625 
Q 5.8125 47.609375 11.28125 51.796875 
Q 16.75 56 26.8125 56 
Q 31.78125 56 36.171875 55.265625 
Q 40.578125 54.546875 44.28125 53.078125 
z
" id="DejaVuSans-73"/>
      <path d="M 25.390625 72.90625 
L 33.6875 72.90625 
L 8.296875 -9.28125 
L 0 -9.28125 
z
" id="DejaVuSans-2f"/>
      <path d="M 45.40625 46.390625 
L 45.40625 75.984375 
L 54.390625 75.984375 
L 54.390625 0 
L 45.40625 0 
L 45.40625 8.203125 
Q 42.578125 3.328125 38.25 0.953125 
Q 33.9375 -1.421875 27.875 -1.421875 
Q 17.96875 -1.421875 11.734375 6.484375 
Q 5.515625 14.40625 5.515625 27.296875 
Q 5.515625 40.1875 11.734375 48.09375 
Q 17.96875 56 27.875 56 
Q 33.9375 56 38.25 53.625 
Q 42.578125 51.265625 45.40625 46.390625 
z
M 14.796875 27.296875 
Q 14.796875 17.390625 18.875 11.75 
Q 22.953125 6.109375 30.078125 6.109375 
Q 37.203125 6.109375 41.296875 11.75 
Q 45.40625 17.390625 45.40625 27.296875 
Q 45.40625 37.203125 41.296875 42.84375 
Q 37.203125 48.484375 30.078125 48.484375 
Q 22.953125 48.484375 18.875 42.84375 
Q 14.796875 37.203125 14.796875 27.296875 
z
" id="DejaVuSans-64"/>
      <path d="M 9.421875 54.6875 
L 18.40625 54.6875 
L 18.40625 0 
L 9.421875 0 
z
M 9.421875 75.984375 
L 18.40625 75.984375 
L 18.40625 64.59375 
L 9.421875 64.59375 
z
" id="DejaVuSans-69"/>
      <path d="M 52 44.1875 
Q 55.375 50.25 60.0625 53.125 
Q 64.75 56 71.09375 56 
Q 79.640625 56 84.28125 50.015625 
Q 88.921875 44.046875 88.921875 33.015625 
L 88.921875 0 
L 79.890625 0 
L 79.890625 32.71875 
Q 79.890625 40.578125 77.09375 44.375 
Q 74.3125 48.1875 68.609375 48.1875 
Q 61.625 48.1875 57.5625 43.546875 
Q 53.515625 38.921875 53.515625 30.90625 
L 53.515625 0 
L 44.484375 0 
L 44.484375 32.71875 
Q 44.484375 40.625 41.703125 44.40625 
Q 38.921875 48.1875 33.109375 48.1875 
Q 26.21875 48.1875 22.15625 43.53125 
Q 18.109375 38.875 18.109375 30.90625 
L 18.109375 0 
L 9.078125 0 
L 9.078125 54.6875 
L 18.109375 54.6875 
L 18.109375 46.1875 
Q 21.1875 51.21875 25.484375 53.609375 
Q 29.78125 56 35.6875 56 
Q 41.65625 56 45.828125 52.96875 
Q 50 49.953125 52 44.1875 
z
" id="DejaVuSans-6d"/>
      <path d="M 54.890625 33.015625 
L 54.890625 0 
L 45.90625 0 
L 45.90625 32.71875 
Q 45.90625 40.484375 42.875 44.328125 
Q 39.84375 48.1875 33.796875 48.1875 
Q 26.515625 48.1875 22.3125 43.546875 
Q 18.109375 38.921875 18.109375 30.90625 
L 18.109375 0 
L 9.078125 0 
L 9.078125 54.6875 
L 18.109375 54.6875 
L 18.109375 46.1875 
Q 21.34375 51.125 25.703125 53.5625 
Q 30.078125 56 35.796875 56 
Q 45.21875 56 50.046875 50.171875 
Q 54.890625 44.34375 54.890625 33.015625 
z
" id="DejaVuSans-6e"/>
      <path d="M 8.015625 75.875 
L 15.828125 75.875 
Q 23.140625 64.359375 26.78125 53.3125 
Q 30.421875 42.28125 30.421875 31.390625 
Q 30.421875 20.453125 26.78125 9.375 
Q 23.140625 -1.703125 15.828125 -13.1875 
L 8.015625 -13.1875 
Q 14.5 -2 17.703125 9.0625 
Q 20.90625 20.125 20.90625 31.390625 
Q 20.90625 42.671875 17.703125 53.65625 
Q 14.5 64.65625 8.015625 75.875 
z
" id="DejaVuSans-29"/>
     </defs>
     <g transform="translate(73.803219 338.153594)scale(0.17 -0.17)">
      <use xlink:href="#DejaVuSans-6c"/>
      <use x="27.783203" xlink:href="#DejaVuSans-6f"/>
      <use x="88.964844" xlink:href="#DejaVuSans-67"/>
      <use x="152.441406" xlink:href="#DejaVuSans-31"/>
      <use x="216.064453" xlink:href="#DejaVuSans-30"/>
      <use x="279.6875" xlink:href="#DejaVuSans-28"/>
      <use x="318.701172" xlink:href="#DejaVuSans-23"/>
      <use x="402.490234" xlink:href="#DejaVuSans-20"/>
      <use x="434.277344" xlink:href="#DejaVuSans-66"/>
      <use x="469.404297" xlink:href="#DejaVuSans-2d"/>
      <use x="505.488281" xlink:href="#DejaVuSans-65"/>
      <use x="567.011719" xlink:href="#DejaVuSans-76"/>
      <use x="626.191406" xlink:href="#DejaVuSans-61"/>
      <use x="687.470703" xlink:href="#DejaVuSans-6c"/>
      <use x="715.253906" xlink:href="#DejaVuSans-73"/>
      <use x="767.353516" xlink:href="#DejaVuSans-20"/>
      <use x="799.140625" xlink:href="#DejaVuSans-2f"/>
      <use x="832.832031" xlink:href="#DejaVuSans-20"/>
      <use x="864.619141" xlink:href="#DejaVuSans-64"/>
      <use x="928.095703" xlink:href="#DejaVuSans-69"/>
      <use x="955.878906" xlink:href="#DejaVuSans-6d"/>
      <use x="1053.291016" xlink:href="#DejaVuSans-65"/>
      <use x="1114.814453" xlink:href="#DejaVuSans-6e"/>
      <use x="1178.193359" xlink:href="#DejaVuSans-73"/>
      <use x="1230.292969" xlink:href="#DejaVuSans-69"/>
      <use x="1258.076172" xlink:href="#DejaVuSans-6f"/>
      <use x="1319.257812" xlink:href="#DejaVuSans-6e"/>
      <use x="1382.636719" xlink:href="#DejaVuSans-29"/>
     </g>
    </g>
   </g>
   <g id="matplotlib.axis_2">
    <g id="ytick_1">
     <g id="line2d_29">
      <path clip-path="url(#p1fb2a2e988)" d="M 56.12 294.88 
L 333.168 294.88 
" style="fill:none;stroke:#b0b0b0;stroke-linecap:square;stroke-width:0.8;"/>
     </g>
     <g id="line2d_30">
      <defs>
       <path d="M 0 0 
L -3.5 0 
" id="mf2ed0dfc4a" style="stroke:#000000;stroke-width:0.8;"/>
      </defs>
      <g>
       <use style="stroke:#000000;stroke-width:0.8;" x="56.12" xlink:href="#mf2ed0dfc4a" y="294.88"/>
      </g>
     </g>
     <g id="text_6">
      <!-- 0.0 -->
      <defs>
       <path d="M 10.6875 12.40625 
L 21 12.40625 
L 21 0 
L 10.6875 0 
z
" id="DejaVuSans-2e"/>
      </defs>
      <g transform="translate(23.675 300.95875)scale(0.16 -0.16)">
       <use xlink:href="#DejaVuSans-30"/>
       <use x="63.623047" xlink:href="#DejaVuSans-2e"/>
       <use x="95.410156" xlink:href="#DejaVuSans-30"/>
      </g>
     </g>
    </g>
    <g id="ytick_2">
     <g id="line2d_31">
      <path clip-path="url(#p1fb2a2e988)" d="M 56.12 237.843411 
L 333.168 237.843411 
" style="fill:none;stroke:#b0b0b0;stroke-linecap:square;stroke-width:0.8;"/>
     </g>
     <g id="line2d_32">
      <g>
       <use style="stroke:#000000;stroke-width:0.8;" x="56.12" xlink:href="#mf2ed0dfc4a" y="237.843411"/>
      </g>
     </g>
     <g id="text_7">
      <!-- 0.2 -->
      <g transform="translate(23.675 243.922161)scale(0.16 -0.16)">
       <use xlink:href="#DejaVuSans-30"/>
       <use x="63.623047" xlink:href="#DejaVuSans-2e"/>
       <use x="95.410156" xlink:href="#DejaVuSans-32"/>
      </g>
     </g>
    </g>
    <g id="ytick_3">
     <g id="line2d_33">
      <path clip-path="url(#p1fb2a2e988)" d="M 56.12 180.806823 
L 333.168 180.806823 
" style="fill:none;stroke:#b0b0b0;stroke-linecap:square;stroke-width:0.8;"/>
     </g>
     <g id="line2d_34">
      <g>
       <use style="stroke:#000000;stroke-width:0.8;" x="56.12" xlink:href="#mf2ed0dfc4a" y="180.806823"/>
      </g>
     </g>
     <g id="text_8">
      <!-- 0.4 -->
      <g transform="translate(23.675 186.885573)scale(0.16 -0.16)">
       <use xlink:href="#DejaVuSans-30"/>
       <use x="63.623047" xlink:href="#DejaVuSans-2e"/>
       <use x="95.410156" xlink:href="#DejaVuSans-34"/>
      </g>
     </g>
    </g>
    <g id="ytick_4">
     <g id="line2d_35">
      <path clip-path="url(#p1fb2a2e988)" d="M 56.12 123.770234 
L 333.168 123.770234 
" style="fill:none;stroke:#b0b0b0;stroke-linecap:square;stroke-width:0.8;"/>
     </g>
     <g id="line2d_36">
      <g>
       <use style="stroke:#000000;stroke-width:0.8;" x="56.12" xlink:href="#mf2ed0dfc4a" y="123.770234"/>
      </g>
     </g>
     <g id="text_9">
      <!-- 0.6 -->
      <g transform="translate(23.675 129.848984)scale(0.16 -0.16)">
       <use xlink:href="#DejaVuSans-30"/>
       <use x="63.623047" xlink:href="#DejaVuSans-2e"/>
       <use x="95.410156" xlink:href="#DejaVuSans-36"/>
      </g>
     </g>
    </g>
    <g id="ytick_5">
     <g id="line2d_37">
      <path clip-path="url(#p1fb2a2e988)" d="M 56.12 66.733646 
L 333.168 66.733646 
" style="fill:none;stroke:#b0b0b0;stroke-linecap:square;stroke-width:0.8;"/>
     </g>
     <g id="line2d_38">
      <g>
       <use style="stroke:#000000;stroke-width:0.8;" x="56.12" xlink:href="#mf2ed0dfc4a" y="66.733646"/>
      </g>
     </g>
     <g id="text_10">
      <!-- 0.8 -->
      <defs>
       <path d="M 31.78125 34.625 
Q 24.75 34.625 20.71875 30.859375 
Q 16.703125 27.09375 16.703125 20.515625 
Q 16.703125 13.921875 20.71875 10.15625 
Q 24.75 6.390625 31.78125 6.390625 
Q 38.8125 6.390625 42.859375 10.171875 
Q 46.921875 13.96875 46.921875 20.515625 
Q 46.921875 27.09375 42.890625 30.859375 
Q 38.875 34.625 31.78125 34.625 
z
M 21.921875 38.8125 
Q 15.578125 40.375 12.03125 44.71875 
Q 8.5 49.078125 8.5 55.328125 
Q 8.5 64.0625 14.71875 69.140625 
Q 20.953125 74.21875 31.78125 74.21875 
Q 42.671875 74.21875 48.875 69.140625 
Q 55.078125 64.0625 55.078125 55.328125 
Q 55.078125 49.078125 51.53125 44.71875 
Q 48 40.375 41.703125 38.8125 
Q 48.828125 37.15625 52.796875 32.3125 
Q 56.78125 27.484375 56.78125 20.515625 
Q 56.78125 9.90625 50.3125 4.234375 
Q 43.84375 -1.421875 31.78125 -1.421875 
Q 19.734375 -1.421875 13.25 4.234375 
Q 6.78125 9.90625 6.78125 20.515625 
Q 6.78125 27.484375 10.78125 32.3125 
Q 14.796875 37.15625 21.921875 38.8125 
z
M 18.3125 54.390625 
Q 18.3125 48.734375 21.84375 45.5625 
Q 25.390625 42.390625 31.78125 42.390625 
Q 38.140625 42.390625 41.71875 45.5625 
Q 45.3125 48.734375 45.3125 54.390625 
Q 45.3125 60.0625 41.71875 63.234375 
Q 38.140625 66.40625 31.78125 66.40625 
Q 25.390625 66.40625 21.84375 63.234375 
Q 18.3125 60.0625 18.3125 54.390625 
z
" id="DejaVuSans-38"/>
      </defs>
      <g transform="translate(23.675 72.812396)scale(0.16 -0.16)">
       <use xlink:href="#DejaVuSans-30"/>
       <use x="63.623047" xlink:href="#DejaVuSans-2e"/>
       <use x="95.410156" xlink:href="#DejaVuSans-38"/>
      </g>
     </g>
    </g>
    <g id="ytick_6">
     <g id="line2d_39">
      <path clip-path="url(#p1fb2a2e988)" d="M 56.12 9.697057 
L 333.168 9.697057 
" style="fill:none;stroke:#b0b0b0;stroke-linecap:square;stroke-width:0.8;"/>
     </g>
     <g id="line2d_40">
      <g>
       <use style="stroke:#000000;stroke-width:0.8;" x="56.12" xlink:href="#mf2ed0dfc4a" y="9.697057"/>
      </g>
     </g>
     <g id="text_11">
      <!-- 1.0 -->
      <g transform="translate(23.675 15.775807)scale(0.16 -0.16)">
       <use xlink:href="#DejaVuSans-31"/>
       <use x="63.623047" xlink:href="#DejaVuSans-2e"/>
       <use x="95.410156" xlink:href="#DejaVuSans-30"/>
      </g>
     </g>
    </g>
    <g id="text_12">
     <!-- Fraction of function,target pairs -->
     <defs>
      <path d="M 9.8125 72.90625 
L 51.703125 72.90625 
L 51.703125 64.59375 
L 19.671875 64.59375 
L 19.671875 43.109375 
L 48.578125 43.109375 
L 48.578125 34.8125 
L 19.671875 34.8125 
L 19.671875 0 
L 9.8125 0 
z
" id="DejaVuSans-46"/>
      <path d="M 41.109375 46.296875 
Q 39.59375 47.171875 37.8125 47.578125 
Q 36.03125 48 33.890625 48 
Q 26.265625 48 22.1875 43.046875 
Q 18.109375 38.09375 18.109375 28.8125 
L 18.109375 0 
L 9.078125 0 
L 9.078125 54.6875 
L 18.109375 54.6875 
L 18.109375 46.1875 
Q 20.953125 51.171875 25.484375 53.578125 
Q 30.03125 56 36.53125 56 
Q 37.453125 56 38.578125 55.875 
Q 39.703125 55.765625 41.0625 55.515625 
z
" id="DejaVuSans-72"/>
      <path d="M 48.78125 52.59375 
L 48.78125 44.1875 
Q 44.96875 46.296875 41.140625 47.34375 
Q 37.3125 48.390625 33.40625 48.390625 
Q 24.65625 48.390625 19.8125 42.84375 
Q 14.984375 37.3125 14.984375 27.296875 
Q 14.984375 17.28125 19.8125 11.734375 
Q 24.65625 6.203125 33.40625 6.203125 
Q 37.3125 6.203125 41.140625 7.25 
Q 44.96875 8.296875 48.78125 10.40625 
L 48.78125 2.09375 
Q 45.015625 0.34375 40.984375 -0.53125 
Q 36.96875 -1.421875 32.421875 -1.421875 
Q 20.0625 -1.421875 12.78125 6.34375 
Q 5.515625 14.109375 5.515625 27.296875 
Q 5.515625 40.671875 12.859375 48.328125 
Q 20.21875 56 33.015625 56 
Q 37.15625 56 41.109375 55.140625 
Q 45.0625 54.296875 48.78125 52.59375 
z
" id="DejaVuSans-63"/>
      <path d="M 18.3125 70.21875 
L 18.3125 54.6875 
L 36.8125 54.6875 
L 36.8125 47.703125 
L 18.3125 47.703125 
L 18.3125 18.015625 
Q 18.3125 11.328125 20.140625 9.421875 
Q 21.96875 7.515625 27.59375 7.515625 
L 36.8125 7.515625 
L 36.8125 0 
L 27.59375 0 
Q 17.1875 0 13.234375 3.875 
Q 9.28125 7.765625 9.28125 18.015625 
L 9.28125 47.703125 
L 2.6875 47.703125 
L 2.6875 54.6875 
L 9.28125 54.6875 
L 9.28125 70.21875 
z
" id="DejaVuSans-74"/>
      <path d="M 8.5 21.578125 
L 8.5 54.6875 
L 17.484375 54.6875 
L 17.484375 21.921875 
Q 17.484375 14.15625 20.5 10.265625 
Q 23.53125 6.390625 29.59375 6.390625 
Q 36.859375 6.390625 41.078125 11.03125 
Q 45.3125 15.671875 45.3125 23.6875 
L 45.3125 54.6875 
L 54.296875 54.6875 
L 54.296875 0 
L 45.3125 0 
L 45.3125 8.40625 
Q 42.046875 3.421875 37.71875 1 
Q 33.40625 -1.421875 27.6875 -1.421875 
Q 18.265625 -1.421875 13.375 4.4375 
Q 8.5 10.296875 8.5 21.578125 
z
M 31.109375 56 
z
" id="DejaVuSans-75"/>
      <path d="M 11.71875 12.40625 
L 22.015625 12.40625 
L 22.015625 4 
L 14.015625 -11.625 
L 7.71875 -11.625 
L 11.71875 4 
z
" id="DejaVuSans-2c"/>
      <path d="M 18.109375 8.203125 
L 18.109375 -20.796875 
L 9.078125 -20.796875 
L 9.078125 54.6875 
L 18.109375 54.6875 
L 18.109375 46.390625 
Q 20.953125 51.265625 25.265625 53.625 
Q 29.59375 56 35.59375 56 
Q 45.5625 56 51.78125 48.09375 
Q 58.015625 40.1875 58.015625 27.296875 
Q 58.015625 14.40625 51.78125 6.484375 
Q 45.5625 -1.421875 35.59375 -1.421875 
Q 29.59375 -1.421875 25.265625 0.953125 
Q 20.953125 3.328125 18.109375 8.203125 
z
M 48.6875 27.296875 
Q 48.6875 37.203125 44.609375 42.84375 
Q 40.53125 48.484375 33.40625 48.484375 
Q 26.265625 48.484375 22.1875 42.84375 
Q 18.109375 37.203125 18.109375 27.296875 
Q 18.109375 17.390625 22.1875 11.75 
Q 26.265625 6.109375 33.40625 6.109375 
Q 40.53125 6.109375 44.609375 11.75 
Q 48.6875 17.390625 48.6875 27.296875 
z
" id="DejaVuSans-70"/>
     </defs>
     <g transform="translate(16.139531 286.001989)rotate(-90)scale(0.17 -0.17)">
      <use xlink:href="#DejaVuSans-46"/>
      <use x="57.410156" xlink:href="#DejaVuSans-72"/>
      <use x="98.523438" xlink:href="#DejaVuSans-61"/>
      <use x="159.802734" xlink:href="#DejaVuSans-63"/>
      <use x="214.783203" xlink:href="#DejaVuSans-74"/>
      <use x="253.992188" xlink:href="#DejaVuSans-69"/>
      <use x="281.775391" xlink:href="#DejaVuSans-6f"/>
      <use x="342.957031" xlink:href="#DejaVuSans-6e"/>
      <use x="406.335938" xlink:href="#DejaVuSans-20"/>
      <use x="438.123047" xlink:href="#DejaVuSans-6f"/>
      <use x="499.304688" xlink:href="#DejaVuSans-66"/>
      <use x="534.509766" xlink:href="#DejaVuSans-20"/>
      <use x="566.296875" xlink:href="#DejaVuSans-66"/>
      <use x="601.501953" xlink:href="#DejaVuSans-75"/>
      <use x="664.880859" xlink:href="#DejaVuSans-6e"/>
      <use x="728.259766" xlink:href="#DejaVuSans-63"/>
      <use x="783.240234" xlink:href="#DejaVuSans-74"/>
      <use x="822.449219" xlink:href="#DejaVuSans-69"/>
      <use x="850.232422" xlink:href="#DejaVuSans-6f"/>
      <use x="911.414062" xlink:href="#DejaVuSans-6e"/>
      <use x="974.792969" xlink:href="#DejaVuSans-2c"/>
      <use x="1006.580078" xlink:href="#DejaVuSans-74"/>
      <use x="1045.789062" xlink:href="#DejaVuSans-61"/>
      <use x="1107.068359" xlink:href="#DejaVuSans-72"/>
      <use x="1148.166016" xlink:href="#DejaVuSans-67"/>
      <use x="1211.642578" xlink:href="#DejaVuSans-65"/>
      <use x="1273.166016" xlink:href="#DejaVuSans-74"/>
      <use x="1312.375" xlink:href="#DejaVuSans-20"/>
      <use x="1344.162109" xlink:href="#DejaVuSans-70"/>
      <use x="1407.638672" xlink:href="#DejaVuSans-61"/>
      <use x="1468.917969" xlink:href="#DejaVuSans-69"/>
      <use x="1496.701172" xlink:href="#DejaVuSans-72"/>
      <use x="1537.814453" xlink:href="#DejaVuSans-73"/>
     </g>
    </g>
   </g>
   <g id="line2d_41">
    <defs>
     <path d="M 0 1.5 
C 0.397805 1.5 0.77937 1.341951 1.06066 1.06066 
C 1.341951 0.77937 1.5 0.397805 1.5 0 
C 1.5 -0.397805 1.341951 -0.77937 1.06066 -1.06066 
C 0.77937 -1.341951 0.397805 -1.5 0 -1.5 
C -0.397805 -1.5 -0.77937 -1.341951 -1.06066 -1.06066 
C -1.341951 -0.77937 -1.5 -0.397805 -1.5 0 
C -1.5 0.397805 -1.341951 0.77937 -1.06066 1.06066 
C -0.77937 1.341951 -0.397805 1.5 0 1.5 
z
" id="m8f731c03a2" style="stroke:#f5deb3;"/>
    </defs>
    <g>
     <use style="fill:#f5deb3;stroke:#f5deb3;" x="172.148114" xlink:href="#m8f731c03a2" y="9.697057"/>
     <use style="fill:#f5deb3;stroke:#f5deb3;" x="172.148114" xlink:href="#m8f731c03a2" y="9.697057"/>
    </g>
   </g>
   <g id="line2d_42">
    <defs>
     <path d="M 0 1.5 
C 0.397805 1.5 0.77937 1.341951 1.06066 1.06066 
C 1.341951 0.77937 1.5 0.397805 1.5 0 
C 1.5 -0.397805 1.341951 -0.77937 1.06066 -1.06066 
C 0.77937 -1.341951 0.397805 -1.5 0 -1.5 
C -0.397805 -1.5 -0.77937 -1.341951 -1.06066 -1.06066 
C -1.341951 -0.77937 -1.5 -0.397805 -1.5 0 
C -1.5 0.397805 -1.341951 0.77937 -1.06066 1.06066 
C -0.77937 1.341951 -0.397805 1.5 0 1.5 
z
" id="m35a2b07107" style="stroke:#000080;"/>
    </defs>
    <g>
     <use style="fill:#000080;stroke:#000080;" x="247.532215" xlink:href="#m35a2b07107" y="209.884299"/>
     <use style="fill:#000080;stroke:#000080;" x="247.532215" xlink:href="#m35a2b07107" y="209.884299"/>
    </g>
   </g>
   <g id="line2d_43">
    <path d="M 16.541714 294.88 
L 16.541714 292.307762 
L 28.455965 292.307762 
L 28.455965 292.195925 
L 49.989246 292.195925 
L 49.989246 292.084089 
L 52.284468 292.084089 
L 52.284468 291.972252 
L 70.436568 291.972252 
L 70.436568 291.748579 
L 75.003641 291.748579 
L 75.003641 291.524907 
L 77.155024 291.524907 
L 77.155024 291.41307 
L 77.653281 291.41307 
L 77.653281 290.965724 
L 79.066841 290.965724 
L 79.066841 290.742051 
L 79.513324 290.742051 
L 79.513324 290.630215 
L 81.973032 290.630215 
L 81.973032 290.518379 
L 83.784035 290.518379 
L 83.784035 290.406542 
L 85.106889 290.406542 
L 85.106889 290.294706 
L 86.917893 290.294706 
L 86.917893 290.182869 
L 94.816624 290.182869 
L 94.816624 290.071033 
L 95.698286 290.071033 
L 95.698286 289.959196 
L 96.372436 289.959196 
L 96.372436 289.84736 
L 98.543252 289.84736 
L 98.543252 289.623687 
L 100.600121 289.623687 
L 100.600121 289.51185 
L 102.667676 289.51185 
L 102.667676 289.400014 
L 106.08565 289.400014 
L 106.08565 289.288178 
L 108.036969 289.288178 
L 108.036969 289.176341 
L 109.483595 289.176341 
L 109.483595 289.064505 
L 110.163674 289.064505 
L 110.163674 288.952668 
L 110.817865 288.952668 
L 110.817865 288.728995 
L 112.643127 288.728995 
L 112.643127 288.617159 
L 114.23467 288.617159 
L 114.23467 288.505322 
L 114.922307 288.505322 
L 114.922307 288.393486 
L 115.200897 288.393486 
L 115.200897 288.28165 
L 116.324038 288.28165 
L 116.324038 288.169813 
L 116.631902 288.169813 
L 116.631902 288.057977 
L 120.076533 288.057977 
L 120.076533 287.94614 
L 120.283378 287.94614 
L 120.365424 287.498794 
L 121.854208 287.498794 
L 121.854208 287.386958 
L 123.736371 287.386958 
L 123.736371 287.275122 
L 124.003384 287.275122 
L 124.003384 287.163285 
L 124.621395 287.163285 
L 124.621395 287.051449 
L 125.49347 287.051449 
L 125.49347 286.939612 
L 125.764637 286.939612 
L 125.764637 286.715939 
L 126.553378 286.715939 
L 126.553378 286.604103 
L 126.695551 286.604103 
L 126.695551 286.492266 
L 128.212383 286.492266 
L 128.212383 286.38043 
L 128.341524 286.38043 
L 128.341524 286.268593 
L 128.546153 286.268593 
L 128.571561 285.709411 
L 129.047315 285.709411 
L 129.047315 285.485738 
L 129.170355 285.485738 
L 129.268157 285.150229 
L 129.961052 285.150229 
L 129.961052 285.038393 
L 130.100987 285.038393 
L 130.100987 284.926556 
L 130.216736 284.926556 
L 130.262818 284.702883 
L 130.761732 284.702883 
L 130.761732 284.47921 
L 132.763894 284.47921 
L 132.763894 284.143701 
L 133.176677 284.143701 
L 133.176677 284.031865 
L 135.10382 284.031865 
L 135.10382 283.808192 
L 135.983745 283.808192 
L 135.983745 283.696355 
L 138.063173 283.696355 
L 138.063173 283.584519 
L 138.381758 283.584519 
L 138.381758 283.472682 
L 138.792887 283.472682 
L 138.862788 283.137173 
L 138.946296 283.137173 
L 138.946296 283.025336 
L 139.070801 283.025336 
L 139.070801 282.9135 
L 139.289942 282.9135 
L 139.289942 282.801664 
L 139.839061 282.801664 
L 139.865404 282.577991 
L 140.126634 282.577991 
L 140.126634 282.466154 
L 140.498503 282.466154 
L 140.511183 282.130645 
L 140.762851 282.130645 
L 140.762851 281.906972 
L 141.231101 281.906972 
L 141.231101 281.795136 
L 141.945413 281.795136 
L 142.03845 281.459626 
L 142.50752 281.459626 
L 142.50752 281.235953 
L 143.008034 281.235953 
L 143.008034 281.01228 
L 143.579424 281.01228 
L 143.579424 280.900444 
L 144.224593 280.900444 
L 144.224593 280.676771 
L 144.638311 280.676771 
L 144.638311 280.453098 
L 145.120037 280.453098 
L 145.120037 280.341262 
L 145.398907 280.341262 
L 145.398907 280.229425 
L 145.512992 280.229425 
L 145.512992 279.893916 
L 146.05397 279.893916 
L 146.127269 279.558407 
L 146.33628 279.558407 
L 146.363355 279.222897 
L 146.57844 279.222897 
L 146.57844 279.111061 
L 147.336309 279.111061 
L 147.336309 278.999224 
L 147.514343 278.999224 
L 147.514343 278.887388 
L 147.906242 278.887388 
L 147.906242 278.775551 
L 148.313575 278.775551 
L 148.337711 278.551879 
L 148.449898 278.551879 
L 148.465865 278.216369 
L 148.907027 278.216369 
L 149.000107 277.769023 
L 149.704875 277.769023 
L 149.704875 277.545351 
L 149.830637 277.545351 
L 149.830637 277.433514 
L 150.021216 277.433514 
L 150.11572 276.874332 
L 150.231322 276.874332 
L 150.231322 276.762495 
L 150.41041 276.762495 
L 150.41041 276.538822 
L 150.790985 276.538822 
L 150.790985 276.426986 
L 151.285656 276.426986 
L 151.285656 276.31515 
L 151.726929 276.31515 
L 151.792811 275.867804 
L 151.845336 275.867804 
L 151.949905 275.196785 
L 151.995456 275.196785 
L 151.995456 275.084949 
L 152.431771 275.084949 
L 152.431771 274.973112 
L 152.551729 274.973112 
L 152.652101 274.637603 
L 152.670856 274.637603 
L 152.670856 274.41393 
L 153.133192 274.41393 
L 153.133192 274.302094 
L 153.296635 274.302094 
L 153.296635 274.190257 
L 153.410726 274.190257 
L 153.410726 274.078421 
L 153.882971 274.078421 
L 153.91206 273.854748 
L 154.183116 273.854748 
L 154.211701 273.519238 
L 154.308539 273.519238 
L 154.399185 273.071893 
L 154.545472 273.071893 
L 154.545472 272.960056 
L 154.74599 272.960056 
L 154.784709 272.736383 
L 154.960609 272.736383 
L 154.960609 272.624547 
L 155.285648 272.624547 
L 155.376636 272.289037 
L 155.429934 272.289037 
L 155.429934 272.065365 
L 155.68349 272.065365 
L 155.68349 271.953528 
L 155.829688 271.953528 
L 155.829688 271.841692 
L 155.943692 271.841692 
L 156.015848 271.618019 
L 156.457583 271.618019 
L 156.482628 271.282509 
L 156.893137 271.282509 
L 156.893137 271.058837 
L 157.1406 271.058837 
L 157.1406 270.947 
L 157.303617 270.947 
L 157.303617 270.835164 
L 157.422504 270.835164 
L 157.455646 270.387818 
L 157.554689 270.387818 
L 157.554689 270.164145 
L 157.690531 270.164145 
L 157.783594 269.604963 
L 157.811415 269.604963 
L 157.871539 268.710271 
L 158.000328 268.710271 
L 158.000328 268.374762 
L 158.241496 268.374762 
L 158.241496 268.151089 
L 158.358579 268.151089 
L 158.358579 268.039252 
L 158.914951 268.039252 
L 158.914951 267.927416 
L 159.229242 267.927416 
L 159.322843 267.032724 
L 159.906838 267.032724 
L 159.906838 266.697215 
L 160.070112 266.697215 
L 160.070112 266.585379 
L 160.805716 266.585379 
L 160.914358 265.578851 
L 161.091363 265.578851 
L 161.171568 265.355178 
L 161.262775 265.355178 
L 161.277929 265.131505 
L 161.514862 265.131505 
L 161.514862 264.907832 
L 162.246092 264.907832 
L 162.324661 264.460486 
L 162.60387 264.460486 
L 162.663364 263.677631 
L 162.940606 263.677631 
L 162.978379 263.453958 
L 163.063921 263.453958 
L 163.135448 263.230285 
L 163.334827 263.230285 
L 163.334827 263.118449 
L 163.561787 263.118449 
L 163.667563 262.671103 
L 163.677446 262.671103 
L 163.677446 262.559266 
L 163.818486 262.559266 
L 163.818486 262.44743 
L 163.987513 262.44743 
L 163.993981 261.888248 
L 164.116412 261.888248 
L 164.129249 261.440902 
L 164.393474 261.440902 
L 164.443946 261.105393 
L 164.588231 261.105393 
L 164.641248 260.88172 
L 164.722019 260.88172 
L 164.722019 260.769883 
L 164.906977 260.769883 
L 164.9743 260.434374 
L 165.262021 260.434374 
L 165.262021 260.322538 
L 165.630469 260.322538 
L 165.735975 259.987028 
L 165.791398 259.987028 
L 165.872751 259.427846 
L 166.103088 259.427846 
L 166.137374 258.756827 
L 166.22279 258.756827 
L 166.22279 258.533154 
L 166.375479 258.533154 
L 166.375479 258.309481 
L 166.557489 258.309481 
L 166.654702 258.085809 
L 166.687906 258.085809 
L 166.687906 257.973972 
L 166.921283 257.973972 
L 166.978456 257.750299 
L 167.084133 257.750299 
L 167.194532 257.302953 
L 167.261503 257.302953 
L 167.360143 256.967444 
L 167.455577 256.967444 
L 167.550483 256.296425 
L 167.68926 256.296425 
L 167.775106 255.737243 
L 167.922383 255.737243 
L 167.922383 255.625407 
L 168.190422 255.625407 
L 168.241007 255.401734 
L 168.454346 255.401734 
L 168.548871 254.730715 
L 168.635476 254.730715 
L 168.729013 254.395206 
L 168.753544 254.395206 
L 168.851318 254.171533 
L 168.875675 254.171533 
L 168.875675 254.059696 
L 169.023509 254.059696 
L 169.023509 253.836024 
L 169.184432 253.836024 
L 169.28217 252.941332 
L 169.296426 252.941332 
L 169.296426 252.829495 
L 169.485392 252.829495 
L 169.562739 251.934804 
L 169.683918 251.934804 
L 169.690883 251.599295 
L 169.932899 251.599295 
L 169.932899 251.487458 
L 170.05605 251.487458 
L 170.151228 251.040112 
L 170.171555 251.040112 
L 170.214388 250.592767 
L 170.366819 250.592767 
L 170.446973 249.474402 
L 170.628164 249.474402 
L 170.628164 249.250729 
L 170.82703 249.250729 
L 170.928847 248.691547 
L 171.027917 248.691547 
L 171.092222 247.685019 
L 171.251939 247.685019 
L 171.344954 247.125837 
L 171.378653 247.125837 
L 171.378653 247.014 
L 171.508616 247.014 
L 171.51488 246.790327 
L 171.823139 246.790327 
L 171.823139 246.678491 
L 172.073508 246.678491 
L 172.146102 246.119309 
L 172.312313 246.119309 
L 172.368023 245.895636 
L 172.524239 245.895636 
L 172.524239 245.783799 
L 172.679049 245.783799 
L 172.694648 245.44829 
L 173.068664 245.44829 
L 173.068664 245.224617 
L 173.241339 245.224617 
L 173.241339 245.112781 
L 173.393594 245.112781 
L 173.393594 245.000944 
L 173.869753 245.000944 
L 173.869753 244.777271 
L 173.994894 244.777271 
L 173.994894 244.665435 
L 174.165712 244.665435 
L 174.203243 244.218089 
L 174.410862 244.218089 
L 174.521626 243.88258 
L 174.861731 243.88258 
L 174.937165 243.323397 
L 178.033062 243.323397 
L 178.033062 243.211561 
L 178.67388 243.211561 
L 178.67388 243.099724 
L 179.586552 243.099724 
L 179.586552 242.987888 
L 180.404727 242.987888 
L 180.404727 242.764215 
L 181.261666 242.764215 
L 181.261666 242.652379 
L 181.407863 242.652379 
L 181.407863 242.540542 
L 181.733481 242.540542 
L 181.73924 242.316869 
L 182.004354 242.316869 
L 182.077904 242.093196 
L 182.505007 242.093196 
L 182.505007 241.869524 
L 182.63995 241.869524 
L 182.673793 241.645851 
L 182.874388 241.645851 
L 182.968991 241.422178 
L 183.052411 241.422178 
L 183.103545 240.974832 
L 183.3622 240.974832 
L 183.3622 240.862996 
L 183.57257 240.862996 
L 183.57257 240.751159 
L 183.88134 240.751159 
L 183.916887 240.527486 
L 184.479779 240.527486 
L 184.577686 240.303813 
L 184.654641 240.303813 
L 184.701231 239.744631 
L 184.768948 239.744631 
L 184.801744 239.520958 
L 184.969561 239.520958 
L 184.969561 239.409122 
L 185.139535 239.409122 
L 185.139535 239.297285 
L 185.343364 239.297285 
L 185.439273 239.073612 
L 185.525414 239.073612 
L 185.541113 238.738103 
L 185.638682 238.738103 
L 185.7357 238.067084 
L 185.804925 238.067084 
L 185.814921 237.619739 
L 186.051312 237.619739 
L 186.074595 237.284229 
L 186.179866 237.284229 
L 186.249986 237.060556 
L 186.35067 237.060556 
L 186.35067 236.836883 
L 186.732974 236.836883 
L 186.780277 236.165865 
L 186.859113 236.165865 
L 186.859113 236.054028 
L 189.821126 236.054028 
L 189.839825 235.718519 
L 190.182151 235.718519 
L 190.192013 235.494846 
L 190.471429 235.494846 
L 190.471429 235.38301 
L 190.5957 235.38301 
L 190.5957 235.271173 
L 190.813073 235.271173 
L 190.813073 235.159337 
L 191.051864 235.159337 
L 191.051864 235.0475 
L 191.186651 235.0475 
L 191.186651 234.935664 
L 191.418376 234.935664 
L 191.449823 234.711991 
L 191.573091 234.711991 
L 191.659309 234.488318 
L 191.761173 234.488318 
L 191.772097 234.264645 
L 191.91221 234.264645 
L 192.00879 233.817299 
L 192.19407 233.817299 
L 192.257886 233.593626 
L 192.307774 233.593626 
L 192.408354 233.258117 
L 192.450398 233.258117 
L 192.559357 232.810771 
L 192.583272 232.810771 
L 192.655429 232.475262 
L 192.74247 232.475262 
L 192.816381 231.692407 
L 192.908025 231.692407 
L 192.936864 231.133225 
L 193.034437 231.133225 
L 193.034437 231.021388 
L 193.161703 231.021388 
L 193.16822 230.685879 
L 193.28274 230.685879 
L 193.38364 230.350369 
L 193.394749 230.350369 
L 193.40702 230.126697 
L 193.519385 230.126697 
L 193.519385 229.903024 
L 193.803691 229.903024 
L 193.803691 229.679351 
L 195.839252 229.679351 
L 195.896452 229.455678 
L 197.021629 229.455678 
L 197.043862 229.232005 
L 197.299583 229.232005 
L 197.400353 228.784659 
L 197.484877 228.784659 
L 197.592355 228.337313 
L 197.699166 228.337313 
L 197.750508 228.11364 
L 197.857245 228.11364 
L 197.857245 228.001804 
L 197.978552 228.001804 
L 198.006734 227.666295 
L 198.10923 227.666295 
L 198.202725 227.442622 
L 198.221717 227.442622 
L 198.301867 226.995276 
L 198.362829 226.995276 
L 198.426194 226.771603 
L 198.703973 226.771603 
L 198.814779 226.324257 
L 198.83055 226.324257 
L 198.83055 226.212421 
L 200.638996 226.212421 
L 200.638996 226.100584 
L 201.178096 226.100584 
L 201.178096 225.988748 
L 201.49406 225.988748 
L 201.575603 225.653239 
L 201.718818 225.653239 
L 201.718818 225.541402 
L 201.830104 225.541402 
L 201.907222 224.870383 
L 201.943874 224.870383 
L 202.015529 224.534874 
L 202.096754 224.534874 
L 202.186011 223.975692 
L 202.317295 223.975692 
L 202.390877 223.640183 
L 202.488613 223.640183 
L 202.488613 223.528346 
L 204.017821 223.528346 
L 204.017821 223.41651 
L 204.191486 223.41651 
L 204.191486 223.304673 
L 204.638801 223.304673 
L 204.638801 223.192837 
L 204.800013 223.192837 
L 204.800013 223.081 
L 204.915228 223.081 
L 204.915228 222.969164 
L 205.027003 222.969164 
L 205.027003 222.857327 
L 205.261881 222.857327 
L 205.357739 222.298145 
L 205.51411 222.298145 
L 205.51411 222.186309 
L 205.656473 222.186309 
L 205.656473 222.074472 
L 205.808459 222.074472 
L 205.808459 221.962636 
L 207.104038 221.962636 
L 207.104038 221.850799 
L 207.603017 221.850799 
L 207.646694 221.627126 
L 207.847051 221.627126 
L 207.847051 221.51529 
L 207.983923 221.51529 
L 208.015162 221.067944 
L 208.250992 221.067944 
L 208.280275 220.844271 
L 208.415705 220.844271 
L 208.460531 220.620598 
L 210.284303 220.620598 
L 210.368557 220.285089 
L 210.411398 220.285089 
L 210.411398 220.173253 
L 210.578478 220.173253 
L 210.6446 219.94958 
L 212.003621 219.94958 
L 212.110987 219.61407 
L 212.36352 219.61407 
L 212.422552 219.054888 
L 212.577391 219.054888 
L 212.643517 218.719379 
L 213.895231 218.719379 
L 213.895231 218.607542 
L 214.111474 218.607542 
L 214.158346 218.383869 
L 214.319322 218.383869 
L 214.386326 218.04836 
L 214.431424 218.04836 
L 214.449293 217.712851 
L 214.564306 217.712851 
L 214.564306 217.601014 
L 215.584372 217.601014 
L 215.599476 217.377341 
L 215.837767 217.377341 
L 215.837767 217.265505 
L 216.044653 217.265505 
L 216.044653 217.153669 
L 217.609347 217.153669 
L 217.609347 216.929996 
L 218.747889 216.929996 
L 218.772344 216.706323 
L 218.889193 216.706323 
L 218.965288 216.258977 
L 219.000509 216.258977 
L 219.107704 215.923468 
L 219.770881 215.923468 
L 219.770881 215.811631 
L 220.359691 215.811631 
L 220.359691 215.699795 
L 221.278212 215.699795 
L 221.384762 215.364285 
L 221.445108 215.364285 
L 221.497609 214.693267 
L 222.319241 214.693267 
L 222.319241 214.58143 
L 222.575771 214.58143 
L 222.575771 214.469594 
L 223.499636 214.469594 
L 223.51008 214.245921 
L 223.636627 214.245921 
L 223.636627 214.134084 
L 225.444822 214.134084 
L 225.54687 213.798575 
L 225.556232 213.798575 
L 225.6166 213.463066 
L 226.410703 213.463066 
L 226.410703 213.351229 
L 227.024106 213.351229 
L 227.024106 213.239393 
L 227.265894 213.239393 
L 227.275912 213.01572 
L 228.041418 213.01572 
L 228.041418 212.903883 
L 228.827332 212.903883 
L 228.855951 212.680211 
L 229.500865 212.680211 
L 229.500865 212.568374 
L 230.20869 212.568374 
L 230.20869 212.456538 
L 230.898939 212.456538 
L 230.954839 212.121028 
L 231.66313 212.121028 
L 231.66313 212.009192 
L 232.237376 212.009192 
L 232.237376 211.897355 
L 232.796894 211.897355 
L 232.842836 211.673683 
L 233.92901 211.673683 
L 234.039732 211.338173 
L 235.031226 211.338173 
L 235.124676 211.1145 
L 235.5836 211.1145 
L 235.5836 211.002664 
L 236.990395 211.002664 
L 236.990395 210.890827 
L 237.917545 210.890827 
L 237.917545 210.778991 
L 238.765047 210.778991 
L 238.816425 210.555318 
L 239.588081 210.555318 
L 239.588081 210.443482 
L 240.417717 210.443482 
L 240.417717 210.331645 
L 243.198985 210.331645 
L 243.263639 210.107972 
L 247.253018 210.107972 
L 247.253018 209.996136 
L 247.532215 209.996136 
L 247.532215 209.884299 
L 333.168 209.884299 
L 333.168 209.884299 
" style="fill:none;stroke:#000080;stroke-linecap:square;stroke-width:1.5;"/>
   </g>
   <g id="line2d_44">
    <defs>
     <path d="M 0 6 
C 1.591219 6 3.117479 5.367802 4.242641 4.242641 
C 5.367802 3.117479 6 1.591219 6 0 
C 6 -1.591219 5.367802 -3.117479 4.242641 -4.242641 
C 3.117479 -5.367802 1.591219 -6 0 -6 
C -1.591219 -6 -3.117479 -5.367802 -4.242641 -4.242641 
C -5.367802 -3.117479 -6 -1.591219 -6 0 
C -6 1.591219 -5.367802 3.117479 -4.242641 4.242641 
C -3.117479 5.367802 -1.591219 6 0 6 
z
" id="m3ad028a461" style="stroke:#000080;stroke-width:1.5;"/>
    </defs>
    <g>
     <use style="fill-opacity:0;stroke:#000080;stroke-width:1.5;" x="96.372436" xlink:href="#m3ad028a461" y="289.84736"/>
     <use style="fill-opacity:0;stroke:#000080;stroke-width:1.5;" x="183.052411" xlink:href="#m3ad028a461" y="241.310341"/>
     <use style="fill-opacity:0;stroke:#000080;stroke-width:1.5;" x="240.417717" xlink:href="#m3ad028a461" y="210.331645"/>
     <use style="fill-opacity:0;stroke:#000080;stroke-width:1.5;" x="247.532215" xlink:href="#m3ad028a461" y="209.884299"/>
     <use style="fill-opacity:0;stroke:#000080;stroke-width:1.5;" x="247.532215" xlink:href="#m3ad028a461" y="209.884299"/>
     <use style="fill-opacity:0;stroke:#000080;stroke-width:1.5;" x="333.168" xlink:href="#m3ad028a461" y="209.884299"/>
    </g>
   </g>
   <g id="line2d_45">
    <path style="fill:none;stroke:#000080;stroke-linecap:square;stroke-width:1.5;"/>
    <g/>
   </g>
   <g id="line2d_46">
    <path clip-path="url(#p1fb2a2e988)" d="M 175.027591 243.323397 
" style="fill:none;stroke:#000080;stroke-linecap:square;stroke-width:1.5;"/>
    <defs>
     <path d="M -12 12 
L 12 -12 
M -12 -12 
L 12 12 
" id="mf88efbe034" style="stroke:#000080;"/>
    </defs>
    <g clip-path="url(#p1fb2a2e988)">
     <use style="fill:#000080;stroke:#000080;" x="175.027591" xlink:href="#mf88efbe034" y="243.323397"/>
    </g>
   </g>
   <g id="line2d_47">
    <defs>
     <path d="M 0 1.5 
C 0.397805 1.5 0.77937 1.341951 1.06066 1.06066 
C 1.341951 0.77937 1.5 0.397805 1.5 0 
C 1.5 -0.397805 1.341951 -0.77937 1.06066 -1.06066 
C 0.77937 -1.341951 0.397805 -1.5 0 -1.5 
C -0.397805 -1.5 -0.77937 -1.341951 -1.06066 -1.06066 
C -1.341951 -0.77937 -1.5 -0.397805 -1.5 0 
C -1.5 0.397805 -1.341951 0.77937 -1.06066 1.06066 
C -0.77937 1.341951 -0.397805 1.5 0 1.5 
z
" id="m9442bf70c5" style="stroke:#ff00ff;"/>
    </defs>
    <g>
     <use style="fill:#ff00ff;stroke:#ff00ff;" x="232.765566" xlink:href="#m9442bf70c5" y="236.725047"/>
     <use style="fill:#ff00ff;stroke:#ff00ff;" x="232.765566" xlink:href="#m9442bf70c5" y="236.725047"/>
    </g>
   </g>
   <g id="line2d_48">
    <path d="M 16.541714 294.88 
L 16.541714 292.195925 
L 28.455965 292.195925 
L 28.455965 291.972252 
L 40.370217 291.972252 
L 40.370217 291.748579 
L 52.284468 291.748579 
L 52.284468 291.636743 
L 54.308997 291.636743 
L 54.308997 291.41307 
L 57.758252 291.41307 
L 57.758252 291.077561 
L 65.240773 291.077561 
L 65.240773 290.965724 
L 69.672503 290.965724 
L 69.672503 290.518379 
L 73.192638 290.518379 
L 73.192638 290.406542 
L 81.586754 290.406542 
L 81.586754 290.182869 
L 84.458185 290.182869 
L 84.458185 290.071033 
L 91.862754 290.071033 
L 91.862754 289.959196 
L 98.100602 289.959196 
L 98.100602 289.51185 
L 99.533818 289.51185 
L 99.533818 289.288178 
L 102.552701 289.288178 
L 102.552701 288.952668 
L 107.783569 288.952668 
L 107.783569 288.840832 
L 107.952917 288.840832 
L 107.952917 288.617159 
L 108.369127 288.617159 
L 108.369127 288.505322 
L 109.014785 288.505322 
L 109.014785 288.393486 
L 109.864733 288.393486 
L 109.864733 288.28165 
L 110.602556 288.28165 
L 110.602556 288.169813 
L 112.188203 288.169813 
L 112.253934 287.834304 
L 114.922307 287.834304 
L 114.922307 287.722467 
L 116.934349 287.722467 
L 116.934349 287.498794 
L 117.280607 287.498794 
L 117.280607 287.386958 
L 118.417459 287.386958 
L 118.417459 287.275122 
L 119.612517 287.275122 
L 119.655222 286.939612 
L 119.95122 286.939612 
L 119.95122 286.827776 
L 120.15957 286.827776 
L 120.15957 286.604103 
L 120.889386 286.604103 
L 120.889386 286.492266 
L 121.359263 286.492266 
L 121.359263 286.38043 
L 121.929105 286.38043 
L 121.929105 286.268593 
L 122.04084 286.268593 
L 122.077925 286.044921 
L 123.567356 286.044921 
L 123.635161 285.597575 
L 124.102454 285.597575 
L 124.200956 285.150229 
L 124.233665 285.150229 
L 124.298898 284.702883 
L 125.371564 284.702883 
L 125.371564 284.591047 
L 126.294465 284.591047 
L 126.294465 284.47921 
L 126.92061 284.47921 
L 127.004254 284.255537 
L 127.225332 284.255537 
L 127.252768 283.920028 
L 127.578629 283.920028 
L 127.578629 283.808192 
L 127.872003 283.808192 
L 127.872003 283.696355 
L 128.898495 283.696355 
L 128.898495 283.360846 
L 129.31685 283.360846 
L 129.31685 283.249009 
L 130.054468 283.249009 
L 130.14738 283.025336 
L 130.98381 283.025336 
L 130.98381 282.9135 
L 131.376461 282.9135 
L 131.376461 282.801664 
L 131.548134 282.801664 
L 131.612072 282.242481 
L 131.675773 282.242481 
L 131.675773 282.018808 
L 131.88642 282.018808 
L 131.88642 281.906972 
L 132.664134 281.906972 
L 132.664134 281.683299 
L 133.079291 281.683299 
L 133.079291 281.571463 
L 133.617681 281.571463 
L 133.712073 281.34779 
L 133.880682 281.34779 
L 133.955092 281.01228 
L 134.322384 281.01228 
L 134.322384 280.788608 
L 134.753019 280.788608 
L 134.753019 280.564935 
L 135.173129 280.564935 
L 135.173129 280.453098 
L 135.32806 280.453098 
L 135.430577 280.005752 
L 135.917635 280.005752 
L 135.917635 279.893916 
L 136.631228 279.893916 
L 136.631228 279.782079 
L 137.039379 279.782079 
L 137.14763 278.999224 
L 137.407721 278.999224 
L 137.438063 278.440042 
L 137.768335 278.440042 
L 137.768335 278.328206 
L 137.975251 278.328206 
L 138.04855 278.104533 
L 138.208716 278.104533 
L 138.208716 277.769023 
L 138.381758 277.769023 
L 138.381758 277.545351 
L 138.538863 277.545351 
L 138.553074 277.209841 
L 139.112104 277.209841 
L 139.112104 277.098005 
L 139.586771 277.098005 
L 139.586771 276.986168 
L 140.048681 276.986168 
L 140.048681 276.538822 
L 140.422222 276.538822 
L 140.422222 276.426986 
L 140.874911 276.426986 
L 140.874911 276.203313 
L 141.060069 276.203313 
L 141.145798 275.644131 
L 141.218941 275.644131 
L 141.218941 275.308622 
L 141.651382 275.308622 
L 141.651382 275.196785 
L 141.793145 275.196785 
L 141.898705 274.973112 
L 142.1079 274.973112 
L 142.1079 274.861276 
L 142.303162 274.861276 
L 142.360172 274.41393 
L 142.597572 274.41393 
L 142.664803 273.854748 
L 143.117307 273.854748 
L 143.117307 273.742911 
L 143.35529 273.742911 
L 143.419627 273.183729 
L 143.483724 273.183729 
L 143.483724 272.960056 
L 144.183692 272.960056 
L 144.183692 272.84822 
L 144.306104 272.84822 
L 144.306104 272.736383 
L 144.488103 272.736383 
L 144.488103 272.624547 
L 144.717888 272.624547 
L 144.77733 272.400874 
L 145.34158 272.400874 
L 145.34158 272.177201 
L 145.607487 272.177201 
L 145.701465 271.282509 
L 145.748263 271.282509 
L 145.804252 270.723327 
L 146.39939 270.723327 
L 146.39939 270.499654 
L 146.533852 270.499654 
L 146.64067 270.275981 
L 146.711514 270.275981 
L 146.711514 270.164145 
L 146.957196 270.164145 
L 146.957196 269.940472 
L 147.156411 269.940472 
L 147.233741 269.493126 
L 147.548046 269.493126 
L 147.548046 269.38129 
L 147.690552 269.38129 
L 147.690552 269.269453 
L 147.873235 269.269453 
L 147.873235 269.04578 
L 147.996687 269.04578 
L 147.996687 268.933944 
L 148.135537 268.933944 
L 148.200491 268.262925 
L 148.497755 268.262925 
L 148.497755 268.151089 
L 148.930344 268.151089 
L 148.95363 267.81558 
L 149.092685 267.81558 
L 149.154128 267.48007 
L 149.253506 267.48007 
L 149.253506 267.368234 
L 149.660268 267.368234 
L 149.660268 267.144561 
L 150.245718 267.144561 
L 150.245718 266.920888 
L 150.389017 266.920888 
L 150.396151 266.697215 
L 150.573538 266.697215 
L 150.573538 266.473542 
L 151.026355 266.473542 
L 151.088123 265.91436 
L 151.407131 265.91436 
L 151.407131 265.802523 
L 151.607701 265.802523 
L 151.607701 265.467014 
L 151.799385 265.467014 
L 151.799385 265.243341 
L 152.163592 265.243341 
L 152.272646 265.019668 
L 152.361937 265.019668 
L 152.368298 264.684159 
L 152.869642 264.684159 
L 152.89433 264.34865 
L 153.565633 264.34865 
L 153.589342 264.01314 
L 153.677958 264.01314 
L 153.677958 263.901304 
L 153.847999 263.901304 
L 153.847999 263.677631 
L 154.200273 263.677631 
L 154.200273 263.565795 
L 154.734911 263.565795 
L 154.751526 263.230285 
L 154.87838 263.230285 
L 154.87838 263.118449 
L 155.285648 263.118449 
L 155.381973 262.44743 
L 155.829688 262.44743 
L 155.938526 261.888248 
L 156.346948 261.888248 
L 156.442538 261.552738 
L 156.70641 261.552738 
L 156.721225 261.217229 
L 156.88336 261.217229 
L 156.985746 260.88172 
L 157.207912 260.88172 
L 157.303617 260.434374 
L 157.356029 260.434374 
L 157.356029 260.322538 
L 157.59227 260.322538 
L 157.59227 260.210701 
L 157.760375 260.210701 
L 157.843816 259.987028 
L 157.871539 259.987028 
L 157.871539 259.875192 
L 158.255046 259.875192 
L 158.264074 259.539682 
L 158.367553 259.539682 
L 158.47487 259.092337 
L 158.683112 259.092337 
L 158.722702 258.644991 
L 159.113666 258.644991 
L 159.207897 258.085809 
L 159.550455 258.085809 
L 159.629829 257.862136 
L 159.746137 257.862136 
L 159.746137 257.750299 
L 159.915038 257.750299 
L 159.980503 257.41479 
L 160.360155 257.41479 
L 160.360155 257.191117 
L 160.491473 257.191117 
L 160.491473 257.079281 
L 160.621795 257.079281 
L 160.621795 256.967444 
L 160.864002 256.967444 
L 160.864002 256.855608 
L 161.137241 256.855608 
L 161.141058 256.520098 
L 161.63026 256.520098 
L 161.63026 256.408262 
L 161.884365 256.408262 
L 161.975513 256.072752 
L 162.246092 256.072752 
L 162.296132 255.625407 
L 162.61088 255.625407 
L 162.680823 254.954388 
L 162.757434 254.954388 
L 162.757434 254.842552 
L 163.04343 254.842552 
L 163.04343 254.507042 
L 163.637879 254.507042 
L 163.651078 254.059696 
L 163.831547 254.059696 
L 163.831547 253.94786 
L 163.958377 253.94786 
L 163.990747 253.724187 
L 165.268026 253.724187 
L 165.268026 253.612351 
L 166.493305 253.612351 
L 166.493305 253.388678 
L 166.921283 253.388678 
L 166.921283 253.165005 
L 167.460863 253.165005 
L 167.460863 252.941332 
L 169.854904 252.941332 
L 169.854904 252.829495 
L 177.437083 252.829495 
L 177.437083 252.717659 
L 178.247452 252.717659 
L 178.270013 252.493986 
L 178.559257 252.493986 
L 178.59801 252.270313 
L 178.831443 252.270313 
L 178.831443 252.158477 
L 178.972702 252.158477 
L 178.972702 252.04664 
L 179.761862 252.04664 
L 179.761862 251.934804 
L 179.921326 251.934804 
L 180.019609 251.711131 
L 180.046316 251.711131 
L 180.114802 251.487458 
L 180.269786 251.487458 
L 180.269786 251.375622 
L 180.400993 251.375622 
L 180.486673 251.040112 
L 180.548493 251.040112 
L 180.608863 250.816439 
L 180.766788 250.816439 
L 180.766788 250.592767 
L 180.911195 250.592767 
L 181.014807 250.257257 
L 181.127347 250.257257 
L 181.205927 249.698075 
L 181.514367 249.698075 
L 181.516701 249.362566 
L 181.712733 249.362566 
L 181.71504 249.138893 
L 181.857447 249.138893 
L 181.857447 249.027056 
L 182.169121 249.027056 
L 182.173613 248.691547 
L 182.283301 248.691547 
L 182.283301 248.57971 
L 182.505007 248.57971 
L 182.505007 248.467874 
L 182.745626 248.467874 
L 182.745626 248.244201 
L 183.15877 248.244201 
L 183.199014 247.908692 
L 184.281281 247.908692 
L 184.281281 247.796855 
L 184.770879 247.796855 
L 184.770879 247.685019 
L 188.589219 247.685019 
L 188.589219 247.573182 
L 189.012256 247.573182 
L 189.107784 247.237673 
L 189.546937 247.237673 
L 189.546937 247.014 
L 189.822565 247.014 
L 189.923008 246.678491 
L 190.054133 246.678491 
L 190.154647 246.007472 
L 190.293127 246.007472 
L 190.293127 245.895636 
L 190.424248 245.895636 
L 190.424248 245.671963 
L 190.60739 245.671963 
L 190.706781 245.44829 
L 190.886277 245.44829 
L 190.923437 245.224617 
L 192.494804 245.224617 
L 192.494804 245.112781 
L 195.586417 245.112781 
L 195.586417 245.000944 
L 195.702315 245.000944 
L 195.800166 244.553598 
L 195.929774 244.553598 
L 196.033362 244.329925 
L 196.094917 244.329925 
L 196.094917 244.218089 
L 196.348312 244.218089 
L 196.440606 243.88258 
L 196.636793 243.88258 
L 196.636793 243.770743 
L 196.855159 243.770743 
L 196.855159 243.658907 
L 197.253413 243.658907 
L 197.253413 243.54707 
L 197.577239 243.54707 
L 197.577239 243.435234 
L 197.701441 243.435234 
L 197.804864 242.987888 
L 200.411227 242.987888 
L 200.411227 242.876052 
L 200.537452 242.876052 
L 200.557115 242.540542 
L 200.722016 242.540542 
L 200.722016 242.428706 
L 200.84144 242.428706 
L 200.94234 242.093196 
L 200.976594 242.093196 
L 200.976594 241.98136 
L 201.421659 241.98136 
L 201.421659 241.869524 
L 201.676267 241.869524 
L 201.774192 241.534014 
L 201.855848 241.534014 
L 201.855848 241.422178 
L 204.034511 241.422178 
L 204.065644 241.086668 
L 204.159643 241.086668 
L 204.229495 240.751159 
L 204.666129 240.751159 
L 204.773802 240.527486 
L 205.131855 240.527486 
L 205.131855 240.41565 
L 206.656474 240.41565 
L 206.656474 240.303813 
L 206.951981 240.303813 
L 206.951981 240.191977 
L 207.174191 240.191977 
L 207.267807 239.744631 
L 207.486255 239.744631 
L 207.486255 239.632795 
L 209.265686 239.632795 
L 209.265686 239.520958 
L 209.696488 239.520958 
L 209.718663 239.297285 
L 211.762578 239.297285 
L 211.765389 239.073612 
L 212.030723 239.073612 
L 212.030723 238.961776 
L 212.335579 238.961776 
L 212.335579 238.849939 
L 213.666171 238.849939 
L 213.666171 238.738103 
L 213.919688 238.738103 
L 213.98262 238.51443 
L 215.159441 238.51443 
L 215.159441 238.402594 
L 215.290431 238.402594 
L 215.290431 238.290757 
L 217.396419 238.290757 
L 217.396419 238.178921 
L 218.31221 238.178921 
L 218.31221 238.067084 
L 218.448555 238.067084 
L 218.448555 237.955248 
L 221.120865 237.955248 
L 221.120865 237.843411 
L 224.132721 237.843411 
L 224.132721 237.731575 
L 225.157203 237.731575 
L 225.157203 237.619739 
L 226.098602 237.619739 
L 226.098602 237.507902 
L 227.688224 237.507902 
L 227.775604 237.172393 
L 228.627462 237.172393 
L 228.627462 237.060556 
L 229.303436 237.060556 
L 229.303436 236.94872 
L 232.617199 236.94872 
L 232.617199 236.836883 
L 232.765566 236.836883 
L 232.765566 236.725047 
L 333.168 236.725047 
L 333.168 236.725047 
" style="fill:none;stroke:#ff00ff;stroke-linecap:square;stroke-width:1.5;"/>
   </g>
   <g id="line2d_49">
    <defs>
     <path d="M -0 8.485281 
L 5.091169 0 
L 0 -8.485281 
L -5.091169 -0 
z
" id="m172e28e7bb" style="stroke:#ff00ff;stroke-linejoin:miter;stroke-width:1.5;"/>
    </defs>
    <g>
     <use style="fill-opacity:0;stroke:#ff00ff;stroke-linejoin:miter;stroke-width:1.5;" x="91.862754" xlink:href="#m172e28e7bb" y="290.071033"/>
     <use style="fill-opacity:0;stroke:#ff00ff;stroke-linejoin:miter;stroke-width:1.5;" x="155.381973" xlink:href="#m172e28e7bb" y="262.559266"/>
     <use style="fill-opacity:0;stroke:#ff00ff;stroke-linejoin:miter;stroke-width:1.5;" x="207.486255" xlink:href="#m172e28e7bb" y="239.632795"/>
     <use style="fill-opacity:0;stroke:#ff00ff;stroke-linejoin:miter;stroke-width:1.5;" x="232.765566" xlink:href="#m172e28e7bb" y="236.725047"/>
     <use style="fill-opacity:0;stroke:#ff00ff;stroke-linejoin:miter;stroke-width:1.5;" x="232.765566" xlink:href="#m172e28e7bb" y="236.725047"/>
     <use style="fill-opacity:0;stroke:#ff00ff;stroke-linejoin:miter;stroke-width:1.5;" x="333.168" xlink:href="#m172e28e7bb" y="236.725047"/>
    </g>
   </g>
   <g id="line2d_50">
    <path style="fill:none;stroke:#ff00ff;stroke-linecap:square;stroke-width:1.5;"/>
    <g/>
   </g>
   <g id="line2d_51">
    <path clip-path="url(#p1fb2a2e988)" d="M 175.027591 252.829495 
" style="fill:none;stroke:#ff00ff;stroke-linecap:square;stroke-width:1.5;"/>
    <defs>
     <path d="M -12 12 
L 12 -12 
M -12 -12 
L 12 12 
" id="m1bb1067ce6" style="stroke:#ff00ff;"/>
    </defs>
    <g clip-path="url(#p1fb2a2e988)">
     <use style="fill:#ff00ff;stroke:#ff00ff;" x="175.027591" xlink:href="#m1bb1067ce6" y="252.829495"/>
    </g>
   </g>
   <g id="line2d_52">
    <path d="M 333.168 236.725047 
L 363.64328 289.176341 
" style="fill:none;stroke:#ff00ff;stroke-linecap:square;stroke-width:1.5;"/>
    <g>
     <use style="fill-opacity:0;stroke:#ff00ff;stroke-linejoin:miter;stroke-width:1.5;" x="333.168" xlink:href="#m172e28e7bb" y="236.725047"/>
     <use style="fill-opacity:0;stroke:#ff00ff;stroke-linejoin:miter;stroke-width:1.5;" x="363.64328" xlink:href="#m172e28e7bb" y="289.176341"/>
    </g>
   </g>
   <g id="line2d_53">
    <path d="M 333.168 209.884299 
L 363.64328 152.288529 
" style="fill:none;stroke:#000080;stroke-linecap:square;stroke-width:1.5;"/>
    <g>
     <use style="fill-opacity:0;stroke:#000080;stroke-width:1.5;" x="333.168" xlink:href="#m3ad028a461" y="209.884299"/>
     <use style="fill-opacity:0;stroke:#000080;stroke-width:1.5;" x="363.64328" xlink:href="#m3ad028a461" y="152.288529"/>
    </g>
   </g>
   <g id="line2d_54">
    <path d="M 333.168 294.88 
L 333.168 9.697057 
" style="fill:none;stroke:#000000;stroke-linecap:square;stroke-width:1.5;"/>
   </g>
   <g id="patch_3">
    <path d="M 56.12 294.88 
L 56.12 6.845228 
" style="fill:none;stroke:#000000;stroke-linecap:square;stroke-linejoin:miter;stroke-width:0.8;"/>
   </g>
   <g id="patch_4">
    <path d="M 333.168 294.88 
L 333.168 6.845228 
" style="fill:none;stroke:#000000;stroke-linecap:square;stroke-linejoin:miter;stroke-width:0.8;"/>
   </g>
   <g id="patch_5">
    <path d="M 56.12 294.88 
L 333.168 294.88 
" style="fill:none;stroke:#000000;stroke-linecap:square;stroke-linejoin:miter;stroke-width:0.8;"/>
   </g>
   <g id="patch_6">
    <path d="M 56.12 6.845228 
L 333.168 6.845228 
" style="fill:none;stroke:#000000;stroke-linecap:square;stroke-linejoin:miter;stroke-width:0.8;"/>
   </g>
   <g id="text_13">
    <!-- PSO2 -->
    <defs>
     <path d="M 19.671875 64.796875 
L 19.671875 37.40625 
L 32.078125 37.40625 
Q 38.96875 37.40625 42.71875 40.96875 
Q 46.484375 44.53125 46.484375 51.125 
Q 46.484375 57.671875 42.71875 61.234375 
Q 38.96875 64.796875 32.078125 64.796875 
z
M 9.8125 72.90625 
L 32.078125 72.90625 
Q 44.34375 72.90625 50.609375 67.359375 
Q 56.890625 61.8125 56.890625 51.125 
Q 56.890625 40.328125 50.609375 34.8125 
Q 44.34375 29.296875 32.078125 29.296875 
L 19.671875 29.296875 
L 19.671875 0 
L 9.8125 0 
z
" id="DejaVuSans-50"/>
     <path d="M 53.515625 70.515625 
L 53.515625 60.890625 
Q 47.90625 63.578125 42.921875 64.890625 
Q 37.9375 66.21875 33.296875 66.21875 
Q 25.25 66.21875 20.875 63.09375 
Q 16.5 59.96875 16.5 54.203125 
Q 16.5 49.359375 19.40625 46.890625 
Q 22.3125 44.4375 30.421875 42.921875 
L 36.375 41.703125 
Q 47.40625 39.59375 52.65625 34.296875 
Q 57.90625 29 57.90625 20.125 
Q 57.90625 9.515625 50.796875 4.046875 
Q 43.703125 -1.421875 29.984375 -1.421875 
Q 24.8125 -1.421875 18.96875 -0.25 
Q 13.140625 0.921875 6.890625 3.21875 
L 6.890625 13.375 
Q 12.890625 10.015625 18.65625 8.296875 
Q 24.421875 6.59375 29.984375 6.59375 
Q 38.421875 6.59375 43.015625 9.90625 
Q 47.609375 13.234375 47.609375 19.390625 
Q 47.609375 24.75 44.3125 27.78125 
Q 41.015625 30.8125 33.5 32.328125 
L 27.484375 33.5 
Q 16.453125 35.6875 11.515625 40.375 
Q 6.59375 45.0625 6.59375 53.421875 
Q 6.59375 63.09375 13.40625 68.65625 
Q 20.21875 74.21875 32.171875 74.21875 
Q 37.3125 74.21875 42.625 73.28125 
Q 47.953125 72.359375 53.515625 70.515625 
z
" id="DejaVuSans-53"/>
     <path d="M 39.40625 66.21875 
Q 28.65625 66.21875 22.328125 58.203125 
Q 16.015625 50.203125 16.015625 36.375 
Q 16.015625 22.609375 22.328125 14.59375 
Q 28.65625 6.59375 39.40625 6.59375 
Q 50.140625 6.59375 56.421875 14.59375 
Q 62.703125 22.609375 62.703125 36.375 
Q 62.703125 50.203125 56.421875 58.203125 
Q 50.140625 66.21875 39.40625 66.21875 
z
M 39.40625 74.21875 
Q 54.734375 74.21875 63.90625 63.9375 
Q 73.09375 53.65625 73.09375 36.375 
Q 73.09375 19.140625 63.90625 8.859375 
Q 54.734375 -1.421875 39.40625 -1.421875 
Q 24.03125 -1.421875 14.8125 8.828125 
Q 5.609375 19.09375 5.609375 36.375 
Q 5.609375 53.65625 14.8125 63.9375 
Q 24.03125 74.21875 39.40625 74.21875 
z
" id="DejaVuSans-4f"/>
    </defs>
    <g transform="translate(369.18424 293.867279)scale(0.17 -0.17)">
     <use xlink:href="#DejaVuSans-50"/>
     <use x="60.302734" xlink:href="#DejaVuSans-53"/>
     <use x="123.779297" xlink:href="#DejaVuSans-4f"/>
     <use x="202.490234" xlink:href="#DejaVuSans-32"/>
    </g>
   </g>
   <g id="text_14">
    <!-- PSO1 -->
    <g transform="translate(369.18424 156.979466)scale(0.17 -0.17)">
     <use xlink:href="#DejaVuSans-50"/>
     <use x="60.302734" xlink:href="#DejaVuSans-53"/>
     <use x="123.779297" xlink:href="#DejaVuSans-4f"/>
     <use x="202.490234" xlink:href="#DejaVuSans-31"/>
    </g>
   </g>
   <g id="text_15">
    <!-- best 2009 -->
    <defs>
     <path d="M 48.6875 27.296875 
Q 48.6875 37.203125 44.609375 42.84375 
Q 40.53125 48.484375 33.40625 48.484375 
Q 26.265625 48.484375 22.1875 42.84375 
Q 18.109375 37.203125 18.109375 27.296875 
Q 18.109375 17.390625 22.1875 11.75 
Q 26.265625 6.109375 33.40625 6.109375 
Q 40.53125 6.109375 44.609375 11.75 
Q 48.6875 17.390625 48.6875 27.296875 
z
M 18.109375 46.390625 
Q 20.953125 51.265625 25.265625 53.625 
Q 29.59375 56 35.59375 56 
Q 45.5625 56 51.78125 48.09375 
Q 58.015625 40.1875 58.015625 27.296875 
Q 58.015625 14.40625 51.78125 6.484375 
Q 45.5625 -1.421875 35.59375 -1.421875 
Q 29.59375 -1.421875 25.265625 0.953125 
Q 20.953125 3.328125 18.109375 8.203125 
L 18.109375 0 
L 9.078125 0 
L 9.078125 75.984375 
L 18.109375 75.984375 
z
" id="DejaVuSans-62"/>
     <path d="M 10.984375 1.515625 
L 10.984375 10.5 
Q 14.703125 8.734375 18.5 7.8125 
Q 22.3125 6.890625 25.984375 6.890625 
Q 35.75 6.890625 40.890625 13.453125 
Q 46.046875 20.015625 46.78125 33.40625 
Q 43.953125 29.203125 39.59375 26.953125 
Q 35.25 24.703125 29.984375 24.703125 
Q 19.046875 24.703125 12.671875 31.3125 
Q 6.296875 37.9375 6.296875 49.421875 
Q 6.296875 60.640625 12.9375 67.421875 
Q 19.578125 74.21875 30.609375 74.21875 
Q 43.265625 74.21875 49.921875 64.515625 
Q 56.59375 54.828125 56.59375 36.375 
Q 56.59375 19.140625 48.40625 8.859375 
Q 40.234375 -1.421875 26.421875 -1.421875 
Q 22.703125 -1.421875 18.890625 -0.6875 
Q 15.09375 0.046875 10.984375 1.515625 
z
M 30.609375 32.421875 
Q 37.25 32.421875 41.125 36.953125 
Q 45.015625 41.5 45.015625 49.421875 
Q 45.015625 57.28125 41.125 61.84375 
Q 37.25 66.40625 30.609375 66.40625 
Q 23.96875 66.40625 20.09375 61.84375 
Q 16.21875 57.28125 16.21875 49.421875 
Q 16.21875 41.5 20.09375 36.953125 
Q 23.96875 32.421875 30.609375 32.421875 
z
" id="DejaVuSans-39"/>
    </defs>
    <g transform="translate(369.18424 20.091654)scale(0.17 -0.17)">
     <use xlink:href="#DejaVuSans-62"/>
     <use x="63.476562" xlink:href="#DejaVuSans-65"/>
     <use x="125" xlink:href="#DejaVuSans-73"/>
     <use x="177.099609" xlink:href="#DejaVuSans-74"/>
     <use x="216.308594" xlink:href="#DejaVuSans-20"/>
     <use x="248.095703" xlink:href="#DejaVuSans-32"/>
     <use x="311.71875" xlink:href="#DejaVuSans-30"/>
     <use x="375.341797" xlink:href="#DejaVuSans-30"/>
     <use x="438.964844" xlink:href="#DejaVuSans-39"/>
    </g>
   </g>
   <g id="text_16">
    <!-- bbob f10-f14, 10-D -->
    <defs>
     <path d="M 19.671875 64.796875 
L 19.671875 8.109375 
L 31.59375 8.109375 
Q 46.6875 8.109375 53.6875 14.9375 
Q 60.6875 21.78125 60.6875 36.53125 
Q 60.6875 51.171875 53.6875 57.984375 
Q 46.6875 64.796875 31.59375 64.796875 
z
M 9.8125 72.90625 
L 30.078125 72.90625 
Q 51.265625 72.90625 61.171875 64.09375 
Q 71.09375 55.28125 71.09375 36.53125 
Q 71.09375 17.671875 61.125 8.828125 
Q 51.171875 0 30.078125 0 
L 9.8125 0 
z
" id="DejaVuSans-44"/>
    </defs>
    <g transform="translate(58.89048 17.475982)scale(0.102 -0.102)">
     <use xlink:href="#DejaVuSans-62"/>
     <use x="63.476562" xlink:href="#DejaVuSans-62"/>
     <use x="126.953125" xlink:href="#DejaVuSans-6f"/>
     <use x="188.134766" xlink:href="#DejaVuSans-62"/>
     <use x="251.611328" xlink:href="#DejaVuSans-20"/>
     <use x="283.398438" xlink:href="#DejaVuSans-66"/>
     <use x="318.603516" xlink:href="#DejaVuSans-31"/>
     <use x="382.226562" xlink:href="#DejaVuSans-30"/>
     <use x="445.849609" xlink:href="#DejaVuSans-2d"/>
     <use x="481.933594" xlink:href="#DejaVuSans-66"/>
     <use x="517.138672" xlink:href="#DejaVuSans-31"/>
     <use x="580.761719" xlink:href="#DejaVuSans-34"/>
     <use x="644.384766" xlink:href="#DejaVuSans-2c"/>
     <use x="676.171875" xlink:href="#DejaVuSans-20"/>
     <use x="707.958984" xlink:href="#DejaVuSans-31"/>
     <use x="771.582031" xlink:href="#DejaVuSans-30"/>
     <use x="835.205078" xlink:href="#DejaVuSans-2d"/>
     <use x="871.289062" xlink:href="#DejaVuSans-44"/>
    </g>
    <!-- 51 targets: 100..1e-08 -->
    <defs>
     <path d="M 10.796875 72.90625 
L 49.515625 72.90625 
L 49.515625 64.59375 
L 19.828125 64.59375 
L 19.828125 46.734375 
Q 21.96875 47.46875 24.109375 47.828125 
Q 26.265625 48.1875 28.421875 48.1875 
Q 40.625 48.1875 47.75 41.5 
Q 54.890625 34.8125 54.890625 23.390625 
Q 54.890625 11.625 47.5625 5.09375 
Q 40.234375 -1.421875 26.90625 -1.421875 
Q 22.3125 -1.421875 17.546875 -0.640625 
Q 12.796875 0.140625 7.71875 1.703125 
L 7.71875 11.625 
Q 12.109375 9.234375 16.796875 8.0625 
Q 21.484375 6.890625 26.703125 6.890625 
Q 35.15625 6.890625 40.078125 11.328125 
Q 45.015625 15.765625 45.015625 23.390625 
Q 45.015625 31 40.078125 35.4375 
Q 35.15625 39.890625 26.703125 39.890625 
Q 22.75 39.890625 18.8125 39.015625 
Q 14.890625 38.140625 10.796875 36.28125 
z
" id="DejaVuSans-35"/>
     <path d="M 11.71875 12.40625 
L 22.015625 12.40625 
L 22.015625 0 
L 11.71875 0 
z
M 11.71875 51.703125 
L 22.015625 51.703125 
L 22.015625 39.3125 
L 11.71875 39.3125 
z
" id="DejaVuSans-3a"/>
    </defs>
    <g transform="translate(58.89048 28.89775)scale(0.102 -0.102)">
     <use xlink:href="#DejaVuSans-35"/>
     <use x="63.623047" xlink:href="#DejaVuSans-31"/>
     <use x="127.246094" xlink:href="#DejaVuSans-20"/>
     <use x="159.033203" xlink:href="#DejaVuSans-74"/>
     <use x="198.242188" xlink:href="#DejaVuSans-61"/>
     <use x="259.521484" xlink:href="#DejaVuSans-72"/>
     <use x="300.619141" xlink:href="#DejaVuSans-67"/>
     <use x="364.095703" xlink:href="#DejaVuSans-65"/>
     <use x="425.619141" xlink:href="#DejaVuSans-74"/>
     <use x="464.828125" xlink:href="#DejaVuSans-73"/>
     <use x="516.927734" xlink:href="#DejaVuSans-3a"/>
     <use x="550.619141" xlink:href="#DejaVuSans-20"/>
     <use x="582.40625" xlink:href="#DejaVuSans-31"/>
     <use x="646.029297" xlink:href="#DejaVuSans-30"/>
     <use x="709.652344" xlink:href="#DejaVuSans-30"/>
     <use x="773.275391" xlink:href="#DejaVuSans-2e"/>
     <use x="805.0625" xlink:href="#DejaVuSans-2e"/>
     <use x="836.849609" xlink:href="#DejaVuSans-31"/>
     <use x="900.472656" xlink:href="#DejaVuSans-65"/>
     <use x="961.996094" xlink:href="#DejaVuSans-2d"/>
     <use x="998.080078" xlink:href="#DejaVuSans-30"/>
     <use x="1061.703125" xlink:href="#DejaVuSans-38"/>
    </g>
    <!-- 15 instances -->
    <g transform="translate(58.89048 40.319519)scale(0.102 -0.102)">
     <use xlink:href="#DejaVuSans-31"/>
     <use x="63.623047" xlink:href="#DejaVuSans-35"/>
     <use x="127.246094" xlink:href="#DejaVuSans-20"/>
     <use x="159.033203" xlink:href="#DejaVuSans-69"/>
     <use x="186.816406" xlink:href="#DejaVuSans-6e"/>
     <use x="250.195312" xlink:href="#DejaVuSans-73"/>
     <use x="302.294922" xlink:href="#DejaVuSans-74"/>
     <use x="341.503906" xlink:href="#DejaVuSans-61"/>
     <use x="402.783203" xlink:href="#DejaVuSans-6e"/>
     <use x="466.162109" xlink:href="#DejaVuSans-63"/>
     <use x="521.142578" xlink:href="#DejaVuSans-65"/>
     <use x="582.666016" xlink:href="#DejaVuSans-73"/>
    </g>
   </g>
   <g id="text_17">
    <!-- v0.0.0 -->
    <g style="fill:#808080;" transform="translate(178.96275 289.919965)scale(0.1 -0.1)">
     <use xlink:href="#DejaVuSans-76"/>
     <use x="59.179688" xlink:href="#DejaVuSans-30"/>
     <use x="122.802734" xlink:href="#DejaVuSans-2e"/>
     <use x="154.589844" xlink:href="#DejaVuSans-30"/>
     <use x="218.212891" xlink:href="#DejaVuSans-2e"/>
     <use x="250" xlink:href="#DejaVuSans-30"/>
    </g>
   </g>
  </g>
 </g>
 <defs>
  <clipPath id="p1fb2a2e988">
   <rect height="288.034772" width="277.048" x="56.12" y="6.845228"/>
  </clipPath>
 </defs>
</svg>
