<?xml version="1.0" encoding="utf-8" standalone="no"?>
<!DOCTYPE svg PUBLIC "-//W3C//DTD SVG 1.1//EN"
  "http://www.w3.org/Graphics/SVG/1.1/DTD/svg11.dtd">
<!-- Created with matplotlib (http://matplotlib.org/) -->
<svg height="345.6pt" version="1.1" viewBox="0 0 460.8 345.6" width="460.8pt" xmlns="http://www.w3.org/2000/svg" xmlns:xlink="http://www.w3.org/1999/xlink">
 <defs>
  <style type="text/css">
*{stroke-linecap:butt;stroke-linejoin:round;}
  </style>
 </defs>
 <g id="figure_1">
  <g id="patch_1">
   <path d="M 0 345.6 
L 460.8 345.6 
L 460.8 0 
L 0 0 
z
" style="fill:#ffffff;"/>
  </g>
  <g id="axes_1">
   <g id="patch_2">
    <path d="M 56.12 294.88 
L 333.168 294.88 
L 333.168 6.845228 
L 56.12 6.845228 
z
" style="fill:#ffffff;"/>
   </g>
   <g id="line2d_1">
    <path d="M 16.541714 294.88 
L 16.541714 288.169813 
L 28.455965 288.169813 
L 28.455965 287.051449 
L 35.425356 287.051449 
L 35.425356 285.933084 
L 40.370217 285.933084 
L 40.370217 284.81472 
L 56.12 284.81472 
L 56.12 283.696355 
L 66.223248 283.696355 
L 66.223248 282.577991 
L 75.003641 282.577991 
L 75.003641 278.104533 
L 75.567254 278.104533 
L 75.567254 274.749439 
L 76.11297 274.749439 
L 76.11297 272.51271 
L 79.948502 272.51271 
L 79.948502 271.394346 
L 81.191596 271.394346 
L 81.191596 270.275981 
L 82.350819 270.275981 
L 82.350819 269.157617 
L 85.732 269.157617 
L 85.732 268.039252 
L 87.481505 268.039252 
L 87.481505 266.920888 
L 88.556144 266.920888 
L 88.556144 265.802523 
L 91.205783 265.802523 
L 91.205783 264.684159 
L 95.351029 264.684159 
L 95.351029 263.565795 
L 99.11626 263.565795 
L 99.11626 262.44743 
L 100.207968 262.44743 
L 100.207968 261.329066 
L 103.231288 261.329066 
L 103.231288 260.210701 
L 103.990531 260.210701 
L 103.990531 259.092337 
L 111.310007 259.092337 
L 111.310007 257.973972 
L 116.884309 257.973972 
L 116.884309 256.855608 
L 126.381204 256.855608 
L 126.381204 255.737243 
L 127.362076 255.737243 
L 127.362076 254.618879 
L 127.578629 254.618879 
L 127.578629 253.500514 
L 130.761732 253.500514 
L 130.761732 252.38215 
L 131.696954 252.38215 
L 131.696954 251.263785 
L 132.664134 251.263785 
L 132.664134 250.145421 
L 133.749684 250.145421 
L 133.749684 249.027056 
L 140.549169 249.027056 
L 140.549169 247.908692 
L 141.804906 247.908692 
L 141.804906 246.790327 
L 149.108066 246.790327 
L 149.108066 245.671963 
L 153.145352 245.671963 
L 153.212081 243.435234 
L 155.16718 243.435234 
L 155.16718 242.316869 
L 156.301482 242.316869 
L 156.301482 241.198505 
L 160.475609 241.198505 
L 160.574519 238.961776 
L 160.602113 238.961776 
L 160.712045 235.606682 
L 160.758944 235.606682 
L 160.860123 232.251589 
L 160.925957 232.251589 
L 160.925957 231.133225 
L 161.079875 231.133225 
L 161.186803 227.778131 
L 161.443749 227.778131 
L 161.526063 225.541402 
L 161.574519 225.541402 
L 161.574519 224.423038 
L 161.880709 224.423038 
L 161.968239 222.186309 
L 162.080643 222.186309 
L 162.080643 221.067944 
L 162.25325 221.067944 
L 162.25325 219.94958 
L 162.438305 219.94958 
L 162.438305 218.831215 
L 162.582822 218.831215 
L 162.666857 216.594486 
L 162.909639 216.594486 
L 162.909639 215.476122 
L 163.108235 215.476122 
L 163.193134 213.239393 
L 163.515304 213.239393 
L 163.515304 212.121028 
L 163.64118 212.121028 
L 163.64118 211.002664 
L 163.75303 211.002664 
L 163.75303 209.884299 
L 165.18677 209.884299 
L 165.18677 208.765935 
L 165.42047 208.765935 
L 165.500631 206.529206 
L 166.355762 206.529206 
L 166.355762 205.410841 
L 166.63253 205.410841 
L 166.737592 203.174112 
L 166.784387 203.174112 
L 166.784387 202.055748 
L 167.057098 202.055748 
L 167.148843 199.819019 
L 167.330876 199.819019 
L 167.330876 198.700655 
L 167.455577 198.700655 
L 167.56625 196.463926 
L 167.764723 196.463926 
L 167.842442 194.227197 
L 167.881169 194.227197 
L 167.881169 193.108832 
L 168.083708 193.108832 
L 168.083708 191.990468 
L 168.195487 191.990468 
L 168.220791 189.753739 
L 168.41689 189.753739 
L 168.501673 185.280281 
L 168.536463 185.280281 
L 168.536463 184.161916 
L 168.768246 184.161916 
L 168.797611 181.925187 
L 168.941267 181.925187 
L 168.941267 180.806823 
L 170.261607 180.806823 
L 170.340017 177.451729 
L 171.625164 177.451729 
L 171.643821 175.215 
L 171.839535 175.215 
L 171.913122 171.859907 
L 172.004664 171.859907 
L 172.004664 170.741543 
L 175.316142 170.741543 
L 175.404602 165.14972 
L 175.447831 165.14972 
L 175.459451 162.912991 
L 176.958653 162.912991 
L 177.037556 159.557898 
L 179.980108 159.557898 
L 180.053939 156.202804 
L 180.282325 156.202804 
L 180.314884 153.966075 
L 181.06638 153.966075 
L 181.06638 152.847711 
L 181.215427 152.847711 
L 181.300695 150.610982 
L 181.349062 150.610982 
L 181.349062 149.492617 
L 181.750752 149.492617 
L 181.750752 148.374253 
L 182.305601 148.374253 
L 182.305601 147.255888 
L 183.384191 147.255888 
L 183.384191 146.137524 
L 184.827743 146.137524 
L 184.827743 145.019159 
L 196.431301 145.019159 
L 196.431301 143.900795 
L 199.289198 143.900795 
L 199.289198 142.78243 
L 202.492401 142.78243 
L 202.492401 141.664066 
L 206.992308 141.664066 
L 206.992308 140.545702 
L 207.512756 140.545702 
L 207.512756 139.427337 
L 211.279816 139.427337 
L 211.279816 138.308973 
L 211.696999 138.308973 
L 211.696999 137.190608 
L 214.218845 137.190608 
L 214.218845 136.072244 
L 223.355511 136.072244 
L 223.355511 134.953879 
L 224.904554 134.953879 
L 224.978608 132.71715 
L 226.457478 132.71715 
L 226.568134 129.362057 
L 226.645931 129.362057 
L 226.753118 126.006963 
L 226.801985 126.006963 
L 226.889812 122.65187 
L 226.936465 122.65187 
L 227.016089 119.296776 
L 227.053495 119.296776 
L 227.150634 115.941683 
L 227.185948 115.941683 
L 227.254403 112.586589 
L 227.297801 112.586589 
L 227.402305 108.113132 
L 227.437993 108.113132 
L 227.515092 104.758038 
L 227.568087 104.758038 
L 227.661732 101.402945 
L 227.699032 101.402945 
L 227.699032 100.28458 
L 232.805101 100.28458 
L 232.805101 99.166216 
L 240.3589 99.166216 
L 240.3589 98.047851 
L 241.063952 98.047851 
L 241.063952 96.929487 
L 243.735679 96.929487 
L 243.8467 94.692758 
L 244.043853 94.692758 
L 244.137162 92.456029 
L 244.241107 92.456029 
L 244.326954 87.982571 
L 244.367066 87.982571 
L 244.469664 82.390748 
L 244.492198 82.390748 
L 244.573083 77.917291 
L 244.603655 77.917291 
L 244.699773 72.325468 
L 244.717906 72.325468 
L 244.824627 66.733646 
L 244.846525 66.733646 
L 244.941853 61.141823 
L 244.968489 61.141823 
L 245.032076 56.668365 
L 252.288663 56.668365 
L 252.288663 55.550001 
L 254.767361 55.550001 
L 254.767361 54.431636 
L 273.726578 54.431636 
L 273.726578 53.313272 
L 281.591308 53.313272 
L 281.591308 52.194907 
L 303.089624 52.194907 
L 303.089624 51.076543 
L 328.165393 51.076543 
L 328.17278 9.697057 
L 333.168 9.697057 
L 333.168 9.697057 
" style="fill:none;stroke:#f5deb3;stroke-linecap:square;stroke-width:4;"/>
   </g>
   <g id="line2d_2">
    <defs>
     <path d="M -0 7.778175 
L 7.778175 0 
L 0 -7.778175 
L -7.778175 -0 
z
" id="m5dce5e6ce7" style="stroke:#f5deb3;stroke-linejoin:miter;stroke-width:1.5;"/>
    </defs>
    <g>
     <use style="fill:#f5deb3;stroke:#f5deb3;stroke-linejoin:miter;stroke-width:1.5;" x="153.212081" xlink:href="#m5dce5e6ce7" y="243.435234"/>
     <use style="fill:#f5deb3;stroke:#f5deb3;stroke-linejoin:miter;stroke-width:1.5;" x="184.827743" xlink:href="#m5dce5e6ce7" y="145.019159"/>
     <use style="fill:#f5deb3;stroke:#f5deb3;stroke-linejoin:miter;stroke-width:1.5;" x="244.309794" xlink:href="#m5dce5e6ce7" y="89.100935"/>
     <use style="fill:#f5deb3;stroke:#f5deb3;stroke-linejoin:miter;stroke-width:1.5;" x="328.168194" xlink:href="#m5dce5e6ce7" y="36.537805"/>
     <use style="fill:#f5deb3;stroke:#f5deb3;stroke-linejoin:miter;stroke-width:1.5;" x="328.17278" xlink:href="#m5dce5e6ce7" y="9.697057"/>
     <use style="fill:#f5deb3;stroke:#f5deb3;stroke-linejoin:miter;stroke-width:1.5;" x="333.168" xlink:href="#m5dce5e6ce7" y="9.697057"/>
    </g>
   </g>
   <g id="line2d_3">
    <path style="fill:none;stroke:#f5deb3;stroke-linecap:square;stroke-width:4;"/>
    <g/>
   </g>
   <g id="line2d_4">
    <path d="M 333.168 9.697057 
L 363.64328 15.400716 
" style="fill:none;stroke:#f5deb3;stroke-linecap:square;stroke-width:4;"/>
    <g>
     <use style="fill:#f5deb3;stroke:#f5deb3;stroke-linejoin:miter;stroke-width:1.5;" x="333.168" xlink:href="#m5dce5e6ce7" y="9.697057"/>
     <use style="fill:#f5deb3;stroke:#f5deb3;stroke-linejoin:miter;stroke-width:1.5;" x="363.64328" xlink:href="#m5dce5e6ce7" y="15.400716"/>
    </g>
   </g>
   <g id="matplotlib.axis_1">
    <g id="xtick_1">
     <g id="line2d_5">
      <path clip-path="url(#p52f1106b89)" d="M 56.12 294.88 
L 56.12 6.845228 
" style="fill:none;stroke:#b0b0b0;stroke-linecap:square;stroke-width:0.8;"/>
     </g>
     <g id="line2d_6">
      <defs>
       <path d="M 0 0 
L 0 3.5 
" id="m219d08cea6" style="stroke:#000000;stroke-width:0.8;"/>
      </defs>
      <g>
       <use style="stroke:#000000;stroke-width:0.8;" x="56.12" xlink:href="#m219d08cea6" y="294.88"/>
      </g>
     </g>
     <g id="text_1">
      <!-- 0 -->
      <defs>
       <path d="M 31.78125 66.40625 
Q 24.171875 66.40625 20.328125 58.90625 
Q 16.5 51.421875 16.5 36.375 
Q 16.5 21.390625 20.328125 13.890625 
Q 24.171875 6.390625 31.78125 6.390625 
Q 39.453125 6.390625 43.28125 13.890625 
Q 47.125 21.390625 47.125 36.375 
Q 47.125 51.421875 43.28125 58.90625 
Q 39.453125 66.40625 31.78125 66.40625 
z
M 31.78125 74.21875 
Q 44.046875 74.21875 50.515625 64.515625 
Q 56.984375 54.828125 56.984375 36.375 
Q 56.984375 17.96875 50.515625 8.265625 
Q 44.046875 -1.421875 31.78125 -1.421875 
Q 19.53125 -1.421875 13.0625 8.265625 
Q 6.59375 17.96875 6.59375 36.375 
Q 6.59375 54.828125 13.0625 64.515625 
Q 19.53125 74.21875 31.78125 74.21875 
z
" id="DejaVuSans-30"/>
      </defs>
      <g transform="translate(49.7575 317.076875)scale(0.2 -0.2)">
       <use xlink:href="#DejaVuSans-30"/>
      </g>
     </g>
    </g>
    <g id="xtick_2">
     <g id="line2d_7">
      <path clip-path="url(#p52f1106b89)" d="M 135.276571 294.88 
L 135.276571 6.845228 
" style="fill:none;stroke:#b0b0b0;stroke-linecap:square;stroke-width:0.8;"/>
     </g>
     <g id="line2d_8">
      <g>
       <use style="stroke:#000000;stroke-width:0.8;" x="135.276571" xlink:href="#m219d08cea6" y="294.88"/>
      </g>
     </g>
     <g id="text_2">
      <!-- 2 -->
      <defs>
       <path d="M 19.1875 8.296875 
L 53.609375 8.296875 
L 53.609375 0 
L 7.328125 0 
L 7.328125 8.296875 
Q 12.9375 14.109375 22.625 23.890625 
Q 32.328125 33.6875 34.8125 36.53125 
Q 39.546875 41.84375 41.421875 45.53125 
Q 43.3125 49.21875 43.3125 52.78125 
Q 43.3125 58.59375 39.234375 62.25 
Q 35.15625 65.921875 28.609375 65.921875 
Q 23.96875 65.921875 18.8125 64.3125 
Q 13.671875 62.703125 7.8125 59.421875 
L 7.8125 69.390625 
Q 13.765625 71.78125 18.9375 73 
Q 24.125 74.21875 28.421875 74.21875 
Q 39.75 74.21875 46.484375 68.546875 
Q 53.21875 62.890625 53.21875 53.421875 
Q 53.21875 48.921875 51.53125 44.890625 
Q 49.859375 40.875 45.40625 35.40625 
Q 44.1875 33.984375 37.640625 27.21875 
Q 31.109375 20.453125 19.1875 8.296875 
z
" id="DejaVuSans-32"/>
      </defs>
      <g transform="translate(128.914071 317.076875)scale(0.2 -0.2)">
       <use xlink:href="#DejaVuSans-32"/>
      </g>
     </g>
    </g>
    <g id="xtick_3">
     <g id="line2d_9">
      <path clip-path="url(#p52f1106b89)" d="M 214.433143 294.88 
L 214.433143 6.845228 
" style="fill:none;stroke:#b0b0b0;stroke-linecap:square;stroke-width:0.8;"/>
     </g>
     <g id="line2d_10">
      <g>
       <use style="stroke:#000000;stroke-width:0.8;" x="214.433143" xlink:href="#m219d08cea6" y="294.88"/>
      </g>
     </g>
     <g id="text_3">
      <!-- 4 -->
      <defs>
       <path d="M 37.796875 64.3125 
L 12.890625 25.390625 
L 37.796875 25.390625 
z
M 35.203125 72.90625 
L 47.609375 72.90625 
L 47.609375 25.390625 
L 58.015625 25.390625 
L 58.015625 17.1875 
L 47.609375 17.1875 
L 47.609375 0 
L 37.796875 0 
L 37.796875 17.1875 
L 4.890625 17.1875 
L 4.890625 26.703125 
z
" id="DejaVuSans-34"/>
      </defs>
      <g transform="translate(208.070643 317.076875)scale(0.2 -0.2)">
       <use xlink:href="#DejaVuSans-34"/>
      </g>
     </g>
    </g>
    <g id="xtick_4">
     <g id="line2d_11">
      <path clip-path="url(#p52f1106b89)" d="M 293.589714 294.88 
L 293.589714 6.845228 
" style="fill:none;stroke:#b0b0b0;stroke-linecap:square;stroke-width:0.8;"/>
     </g>
     <g id="line2d_12">
      <g>
       <use style="stroke:#000000;stroke-width:0.8;" x="293.589714" xlink:href="#m219d08cea6" y="294.88"/>
      </g>
     </g>
     <g id="text_4">
      <!-- 6 -->
      <defs>
       <path d="M 33.015625 40.375 
Q 26.375 40.375 22.484375 35.828125 
Q 18.609375 31.296875 18.609375 23.390625 
Q 18.609375 15.53125 22.484375 10.953125 
Q 26.375 6.390625 33.015625 6.390625 
Q 39.65625 6.390625 43.53125 10.953125 
Q 47.40625 15.53125 47.40625 23.390625 
Q 47.40625 31.296875 43.53125 35.828125 
Q 39.65625 40.375 33.015625 40.375 
z
M 52.59375 71.296875 
L 52.59375 62.3125 
Q 48.875 64.0625 45.09375 64.984375 
Q 41.3125 65.921875 37.59375 65.921875 
Q 27.828125 65.921875 22.671875 59.328125 
Q 17.53125 52.734375 16.796875 39.40625 
Q 19.671875 43.65625 24.015625 45.921875 
Q 28.375 48.1875 33.59375 48.1875 
Q 44.578125 48.1875 50.953125 41.515625 
Q 57.328125 34.859375 57.328125 23.390625 
Q 57.328125 12.15625 50.6875 5.359375 
Q 44.046875 -1.421875 33.015625 -1.421875 
Q 20.359375 -1.421875 13.671875 8.265625 
Q 6.984375 17.96875 6.984375 36.375 
Q 6.984375 53.65625 15.1875 63.9375 
Q 23.390625 74.21875 37.203125 74.21875 
Q 40.921875 74.21875 44.703125 73.484375 
Q 48.484375 72.75 52.59375 71.296875 
z
" id="DejaVuSans-36"/>
      </defs>
      <g transform="translate(287.227214 317.076875)scale(0.2 -0.2)">
       <use xlink:href="#DejaVuSans-36"/>
      </g>
     </g>
    </g>
    <g id="xtick_5">
     <g id="line2d_13">
      <path clip-path="url(#p52f1106b89)" d="M 56.12 294.88 
L 56.12 6.845228 
" style="fill:none;stroke:#b0b0b0;stroke-linecap:square;stroke-width:0.8;"/>
     </g>
     <g id="line2d_14">
      <defs>
       <path d="M 0 0 
L 0 2 
" id="m9d02424bfa" style="stroke:#000000;stroke-width:0.6;"/>
      </defs>
      <g>
       <use style="stroke:#000000;stroke-width:0.6;" x="56.12" xlink:href="#m9d02424bfa" y="294.88"/>
      </g>
     </g>
    </g>
    <g id="xtick_6">
     <g id="line2d_15">
      <path clip-path="url(#p52f1106b89)" d="M 95.698286 294.88 
L 95.698286 6.845228 
" style="fill:none;stroke:#b0b0b0;stroke-linecap:square;stroke-width:0.8;"/>
     </g>
     <g id="line2d_16">
      <g>
       <use style="stroke:#000000;stroke-width:0.6;" x="95.698286" xlink:href="#m9d02424bfa" y="294.88"/>
      </g>
     </g>
    </g>
    <g id="xtick_7">
     <g id="line2d_17">
      <path clip-path="url(#p52f1106b89)" d="M 135.276571 294.88 
L 135.276571 6.845228 
" style="fill:none;stroke:#b0b0b0;stroke-linecap:square;stroke-width:0.8;"/>
     </g>
     <g id="line2d_18">
      <g>
       <use style="stroke:#000000;stroke-width:0.6;" x="135.276571" xlink:href="#m9d02424bfa" y="294.88"/>
      </g>
     </g>
    </g>
    <g id="xtick_8">
     <g id="line2d_19">
      <path clip-path="url(#p52f1106b89)" d="M 174.854857 294.88 
L 174.854857 6.845228 
" style="fill:none;stroke:#b0b0b0;stroke-linecap:square;stroke-width:0.8;"/>
     </g>
     <g id="line2d_20">
      <g>
       <use style="stroke:#000000;stroke-width:0.6;" x="174.854857" xlink:href="#m9d02424bfa" y="294.88"/>
      </g>
     </g>
    </g>
    <g id="xtick_9">
     <g id="line2d_21">
      <path clip-path="url(#p52f1106b89)" d="M 214.433143 294.88 
L 214.433143 6.845228 
" style="fill:none;stroke:#b0b0b0;stroke-linecap:square;stroke-width:0.8;"/>
     </g>
     <g id="line2d_22">
      <g>
       <use style="stroke:#000000;stroke-width:0.6;" x="214.433143" xlink:href="#m9d02424bfa" y="294.88"/>
      </g>
     </g>
    </g>
    <g id="xtick_10">
     <g id="line2d_23">
      <path clip-path="url(#p52f1106b89)" d="M 254.011429 294.88 
L 254.011429 6.845228 
" style="fill:none;stroke:#b0b0b0;stroke-linecap:square;stroke-width:0.8;"/>
     </g>
     <g id="line2d_24">
      <g>
       <use style="stroke:#000000;stroke-width:0.6;" x="254.011429" xlink:href="#m9d02424bfa" y="294.88"/>
      </g>
     </g>
    </g>
    <g id="xtick_11">
     <g id="line2d_25">
      <path clip-path="url(#p52f1106b89)" d="M 293.589714 294.88 
L 293.589714 6.845228 
" style="fill:none;stroke:#b0b0b0;stroke-linecap:square;stroke-width:0.8;"/>
     </g>
     <g id="line2d_26">
      <g>
       <use style="stroke:#000000;stroke-width:0.6;" x="293.589714" xlink:href="#m9d02424bfa" y="294.88"/>
      </g>
     </g>
    </g>
    <g id="xtick_12">
     <g id="line2d_27">
      <path clip-path="url(#p52f1106b89)" d="M 333.168 294.88 
L 333.168 6.845228 
" style="fill:none;stroke:#b0b0b0;stroke-linecap:square;stroke-width:0.8;"/>
     </g>
     <g id="line2d_28">
      <g>
       <use style="stroke:#000000;stroke-width:0.6;" x="333.168" xlink:href="#m9d02424bfa" y="294.88"/>
      </g>
     </g>
    </g>
    <g id="text_5">
     <!-- log10(# f-evals / dimension) -->
     <defs>
      <path d="M 9.421875 75.984375 
L 18.40625 75.984375 
L 18.40625 0 
L 9.421875 0 
z
" id="DejaVuSans-6c"/>
      <path d="M 30.609375 48.390625 
Q 23.390625 48.390625 19.1875 42.75 
Q 14.984375 37.109375 14.984375 27.296875 
Q 14.984375 17.484375 19.15625 11.84375 
Q 23.34375 6.203125 30.609375 6.203125 
Q 37.796875 6.203125 41.984375 11.859375 
Q 46.1875 17.53125 46.1875 27.296875 
Q 46.1875 37.015625 41.984375 42.703125 
Q 37.796875 48.390625 30.609375 48.390625 
z
M 30.609375 56 
Q 42.328125 56 49.015625 48.375 
Q 55.71875 40.765625 55.71875 27.296875 
Q 55.71875 13.875 49.015625 6.21875 
Q 42.328125 -1.421875 30.609375 -1.421875 
Q 18.84375 -1.421875 12.171875 6.21875 
Q 5.515625 13.875 5.515625 27.296875 
Q 5.515625 40.765625 12.171875 48.375 
Q 18.84375 56 30.609375 56 
z
" id="DejaVuSans-6f"/>
      <path d="M 45.40625 27.984375 
Q 45.40625 37.75 41.375 43.109375 
Q 37.359375 48.484375 30.078125 48.484375 
Q 22.859375 48.484375 18.828125 43.109375 
Q 14.796875 37.75 14.796875 27.984375 
Q 14.796875 18.265625 18.828125 12.890625 
Q 22.859375 7.515625 30.078125 7.515625 
Q 37.359375 7.515625 41.375 12.890625 
Q 45.40625 18.265625 45.40625 27.984375 
z
M 54.390625 6.78125 
Q 54.390625 -7.171875 48.1875 -13.984375 
Q 42 -20.796875 29.203125 -20.796875 
Q 24.46875 -20.796875 20.265625 -20.09375 
Q 16.0625 -19.390625 12.109375 -17.921875 
L 12.109375 -9.1875 
Q 16.0625 -11.328125 19.921875 -12.34375 
Q 23.78125 -13.375 27.78125 -13.375 
Q 36.625 -13.375 41.015625 -8.765625 
Q 45.40625 -4.15625 45.40625 5.171875 
L 45.40625 9.625 
Q 42.625 4.78125 38.28125 2.390625 
Q 33.9375 0 27.875 0 
Q 17.828125 0 11.671875 7.65625 
Q 5.515625 15.328125 5.515625 27.984375 
Q 5.515625 40.671875 11.671875 48.328125 
Q 17.828125 56 27.875 56 
Q 33.9375 56 38.28125 53.609375 
Q 42.625 51.21875 45.40625 46.390625 
L 45.40625 54.6875 
L 54.390625 54.6875 
z
" id="DejaVuSans-67"/>
      <path d="M 12.40625 8.296875 
L 28.515625 8.296875 
L 28.515625 63.921875 
L 10.984375 60.40625 
L 10.984375 69.390625 
L 28.421875 72.90625 
L 38.28125 72.90625 
L 38.28125 8.296875 
L 54.390625 8.296875 
L 54.390625 0 
L 12.40625 0 
z
" id="DejaVuSans-31"/>
      <path d="M 31 75.875 
Q 24.46875 64.65625 21.28125 53.65625 
Q 18.109375 42.671875 18.109375 31.390625 
Q 18.109375 20.125 21.3125 9.0625 
Q 24.515625 -2 31 -13.1875 
L 23.1875 -13.1875 
Q 15.875 -1.703125 12.234375 9.375 
Q 8.59375 20.453125 8.59375 31.390625 
Q 8.59375 42.28125 12.203125 53.3125 
Q 15.828125 64.359375 23.1875 75.875 
z
" id="DejaVuSans-28"/>
      <path d="M 51.125 44 
L 36.921875 44 
L 32.8125 27.6875 
L 47.125 27.6875 
z
M 43.796875 71.78125 
L 38.71875 51.515625 
L 52.984375 51.515625 
L 58.109375 71.78125 
L 65.921875 71.78125 
L 60.890625 51.515625 
L 76.125 51.515625 
L 76.125 44 
L 58.984375 44 
L 54.984375 27.6875 
L 70.515625 27.6875 
L 70.515625 20.21875 
L 53.078125 20.21875 
L 48 0 
L 40.1875 0 
L 45.21875 20.21875 
L 30.90625 20.21875 
L 25.875 0 
L 18.015625 0 
L 23.09375 20.21875 
L 7.71875 20.21875 
L 7.71875 27.6875 
L 24.90625 27.6875 
L 29 44 
L 13.28125 44 
L 13.28125 51.515625 
L 30.90625 51.515625 
L 35.890625 71.78125 
z
" id="DejaVuSans-23"/>
      <path id="DejaVuSans-20"/>
      <path d="M 37.109375 75.984375 
L 37.109375 68.5 
L 28.515625 68.5 
Q 23.6875 68.5 21.796875 66.546875 
Q 19.921875 64.59375 19.921875 59.515625 
L 19.921875 54.6875 
L 34.71875 54.6875 
L 34.71875 47.703125 
L 19.921875 47.703125 
L 19.921875 0 
L 10.890625 0 
L 10.890625 47.703125 
L 2.296875 47.703125 
L 2.296875 54.6875 
L 10.890625 54.6875 
L 10.890625 58.5 
Q 10.890625 67.625 15.140625 71.796875 
Q 19.390625 75.984375 28.609375 75.984375 
z
" id="DejaVuSans-66"/>
      <path d="M 4.890625 31.390625 
L 31.203125 31.390625 
L 31.203125 23.390625 
L 4.890625 23.390625 
z
" id="DejaVuSans-2d"/>
      <path d="M 56.203125 29.59375 
L 56.203125 25.203125 
L 14.890625 25.203125 
Q 15.484375 15.921875 20.484375 11.0625 
Q 25.484375 6.203125 34.421875 6.203125 
Q 39.59375 6.203125 44.453125 7.46875 
Q 49.3125 8.734375 54.109375 11.28125 
L 54.109375 2.78125 
Q 49.265625 0.734375 44.1875 -0.34375 
Q 39.109375 -1.421875 33.890625 -1.421875 
Q 20.796875 -1.421875 13.15625 6.1875 
Q 5.515625 13.8125 5.515625 26.8125 
Q 5.515625 40.234375 12.765625 48.109375 
Q 20.015625 56 32.328125 56 
Q 43.359375 56 49.78125 48.890625 
Q 56.203125 41.796875 56.203125 29.59375 
z
M 47.21875 32.234375 
Q 47.125 39.59375 43.09375 43.984375 
Q 39.0625 48.390625 32.421875 48.390625 
Q 24.90625 48.390625 20.390625 44.140625 
Q 15.875 39.890625 15.1875 32.171875 
z
" id="DejaVuSans-65"/>
      <path d="M 2.984375 54.6875 
L 12.5 54.6875 
L 29.59375 8.796875 
L 46.6875 54.6875 
L 56.203125 54.6875 
L 35.6875 0 
L 23.484375 0 
z
" id="DejaVuSans-76"/>
      <path d="M 34.28125 27.484375 
Q 23.390625 27.484375 19.1875 25 
Q 14.984375 22.515625 14.984375 16.5 
Q 14.984375 11.71875 18.140625 8.90625 
Q 21.296875 6.109375 26.703125 6.109375 
Q 34.1875 6.109375 38.703125 11.40625 
Q 43.21875 16.703125 43.21875 25.484375 
L 43.21875 27.484375 
z
M 52.203125 31.203125 
L 52.203125 0 
L 43.21875 0 
L 43.21875 8.296875 
Q 40.140625 3.328125 35.546875 0.953125 
Q 30.953125 -1.421875 24.3125 -1.421875 
Q 15.921875 -1.421875 10.953125 3.296875 
Q 6 8.015625 6 15.921875 
Q 6 25.140625 12.171875 29.828125 
Q 18.359375 34.515625 30.609375 34.515625 
L 43.21875 34.515625 
L 43.21875 35.40625 
Q 43.21875 41.609375 39.140625 45 
Q 35.0625 48.390625 27.6875 48.390625 
Q 23 48.390625 18.546875 47.265625 
Q 14.109375 46.140625 10.015625 43.890625 
L 10.015625 52.203125 
Q 14.9375 54.109375 19.578125 55.046875 
Q 24.21875 56 28.609375 56 
Q 40.484375 56 46.34375 49.84375 
Q 52.203125 43.703125 52.203125 31.203125 
z
" id="DejaVuSans-61"/>
      <path d="M 44.28125 53.078125 
L 44.28125 44.578125 
Q 40.484375 46.53125 36.375 47.5 
Q 32.28125 48.484375 27.875 48.484375 
Q 21.1875 48.484375 17.84375 46.4375 
Q 14.5 44.390625 14.5 40.28125 
Q 14.5 37.15625 16.890625 35.375 
Q 19.28125 33.59375 26.515625 31.984375 
L 29.59375 31.296875 
Q 39.15625 29.25 43.1875 25.515625 
Q 47.21875 21.78125 47.21875 15.09375 
Q 47.21875 7.46875 41.1875 3.015625 
Q 35.15625 -1.421875 24.609375 -1.421875 
Q 20.21875 -1.421875 15.453125 -0.5625 
Q 10.6875 0.296875 5.421875 2 
L 5.421875 11.28125 
Q 10.40625 8.6875 15.234375 7.390625 
Q 20.0625 6.109375 24.8125 6.109375 
Q 31.15625 6.109375 34.5625 8.28125 
Q 37.984375 10.453125 37.984375 14.40625 
Q 37.984375 18.0625 35.515625 20.015625 
Q 33.0625 21.96875 24.703125 23.78125 
L 21.578125 24.515625 
Q 13.234375 26.265625 9.515625 29.90625 
Q 5.8125 33.546875 5.8125 39.890625 
Q 5.8125 47.609375 11.28125 51.796875 
Q 16.75 56 26.8125 56 
Q 31.78125 56 36.171875 55.265625 
Q 40.578125 54.546875 44.28125 53.078125 
z
" id="DejaVuSans-73"/>
      <path d="M 25.390625 72.90625 
L 33.6875 72.90625 
L 8.296875 -9.28125 
L 0 -9.28125 
z
" id="DejaVuSans-2f"/>
      <path d="M 45.40625 46.390625 
L 45.40625 75.984375 
L 54.390625 75.984375 
L 54.390625 0 
L 45.40625 0 
L 45.40625 8.203125 
Q 42.578125 3.328125 38.25 0.953125 
Q 33.9375 -1.421875 27.875 -1.421875 
Q 17.96875 -1.421875 11.734375 6.484375 
Q 5.515625 14.40625 5.515625 27.296875 
Q 5.515625 40.1875 11.734375 48.09375 
Q 17.96875 56 27.875 56 
Q 33.9375 56 38.25 53.625 
Q 42.578125 51.265625 45.40625 46.390625 
z
M 14.796875 27.296875 
Q 14.796875 17.390625 18.875 11.75 
Q 22.953125 6.109375 30.078125 6.109375 
Q 37.203125 6.109375 41.296875 11.75 
Q 45.40625 17.390625 45.40625 27.296875 
Q 45.40625 37.203125 41.296875 42.84375 
Q 37.203125 48.484375 30.078125 48.484375 
Q 22.953125 48.484375 18.875 42.84375 
Q 14.796875 37.203125 14.796875 27.296875 
z
" id="DejaVuSans-64"/>
      <path d="M 9.421875 54.6875 
L 18.40625 54.6875 
L 18.40625 0 
L 9.421875 0 
z
M 9.421875 75.984375 
L 18.40625 75.984375 
L 18.40625 64.59375 
L 9.421875 64.59375 
z
" id="DejaVuSans-69"/>
      <path d="M 52 44.1875 
Q 55.375 50.25 60.0625 53.125 
Q 64.75 56 71.09375 56 
Q 79.640625 56 84.28125 50.015625 
Q 88.921875 44.046875 88.921875 33.015625 
L 88.921875 0 
L 79.890625 0 
L 79.890625 32.71875 
Q 79.890625 40.578125 77.09375 44.375 
Q 74.3125 48.1875 68.609375 48.1875 
Q 61.625 48.1875 57.5625 43.546875 
Q 53.515625 38.921875 53.515625 30.90625 
L 53.515625 0 
L 44.484375 0 
L 44.484375 32.71875 
Q 44.484375 40.625 41.703125 44.40625 
Q 38.921875 48.1875 33.109375 48.1875 
Q 26.21875 48.1875 22.15625 43.53125 
Q 18.109375 38.875 18.109375 30.90625 
L 18.109375 0 
L 9.078125 0 
L 9.078125 54.6875 
L 18.109375 54.6875 
L 18.109375 46.1875 
Q 21.1875 51.21875 25.484375 53.609375 
Q 29.78125 56 35.6875 56 
Q 41.65625 56 45.828125 52.96875 
Q 50 49.953125 52 44.1875 
z
" id="DejaVuSans-6d"/>
      <path d="M 54.890625 33.015625 
L 54.890625 0 
L 45.90625 0 
L 45.90625 32.71875 
Q 45.90625 40.484375 42.875 44.328125 
Q 39.84375 48.1875 33.796875 48.1875 
Q 26.515625 48.1875 22.3125 43.546875 
Q 18.109375 38.921875 18.109375 30.90625 
L 18.109375 0 
L 9.078125 0 
L 9.078125 54.6875 
L 18.109375 54.6875 
L 18.109375 46.1875 
Q 21.34375 51.125 25.703125 53.5625 
Q 30.078125 56 35.796875 56 
Q 45.21875 56 50.046875 50.171875 
Q 54.890625 44.34375 54.890625 33.015625 
z
" id="DejaVuSans-6e"/>
      <path d="M 8.015625 75.875 
L 15.828125 75.875 
Q 23.140625 64.359375 26.78125 53.3125 
Q 30.421875 42.28125 30.421875 31.390625 
Q 30.421875 20.453125 26.78125 9.375 
Q 23.140625 -1.703125 15.828125 -13.1875 
L 8.015625 -13.1875 
Q 14.5 -2 17.703125 9.0625 
Q 20.90625 20.125 20.90625 31.390625 
Q 20.90625 42.671875 17.703125 53.65625 
Q 14.5 64.65625 8.015625 75.875 
z
" id="DejaVuSans-29"/>
     </defs>
     <g transform="translate(73.803219 338.153594)scale(0.17 -0.17)">
      <use xlink:href="#DejaVuSans-6c"/>
      <use x="27.783203" xlink:href="#DejaVuSans-6f"/>
      <use x="88.964844" xlink:href="#DejaVuSans-67"/>
      <use x="152.441406" xlink:href="#DejaVuSans-31"/>
      <use x="216.064453" xlink:href="#DejaVuSans-30"/>
      <use x="279.6875" xlink:href="#DejaVuSans-28"/>
      <use x="318.701172" xlink:href="#DejaVuSans-23"/>
      <use x="402.490234" xlink:href="#DejaVuSans-20"/>
      <use x="434.277344" xlink:href="#DejaVuSans-66"/>
      <use x="469.404297" xlink:href="#DejaVuSans-2d"/>
      <use x="505.488281" xlink:href="#DejaVuSans-65"/>
      <use x="567.011719" xlink:href="#DejaVuSans-76"/>
      <use x="626.191406" xlink:href="#DejaVuSans-61"/>
      <use x="687.470703" xlink:href="#DejaVuSans-6c"/>
      <use x="715.253906" xlink:href="#DejaVuSans-73"/>
      <use x="767.353516" xlink:href="#DejaVuSans-20"/>
      <use x="799.140625" xlink:href="#DejaVuSans-2f"/>
      <use x="832.832031" xlink:href="#DejaVuSans-20"/>
      <use x="864.619141" xlink:href="#DejaVuSans-64"/>
      <use x="928.095703" xlink:href="#DejaVuSans-69"/>
      <use x="955.878906" xlink:href="#DejaVuSans-6d"/>
      <use x="1053.291016" xlink:href="#DejaVuSans-65"/>
      <use x="1114.814453" xlink:href="#DejaVuSans-6e"/>
      <use x="1178.193359" xlink:href="#DejaVuSans-73"/>
      <use x="1230.292969" xlink:href="#DejaVuSans-69"/>
      <use x="1258.076172" xlink:href="#DejaVuSans-6f"/>
      <use x="1319.257812" xlink:href="#DejaVuSans-6e"/>
      <use x="1382.636719" xlink:href="#DejaVuSans-29"/>
     </g>
    </g>
   </g>
   <g id="matplotlib.axis_2">
    <g id="ytick_1">
     <g id="line2d_29">
      <path clip-path="url(#p52f1106b89)" d="M 56.12 294.88 
L 333.168 294.88 
" style="fill:none;stroke:#b0b0b0;stroke-linecap:square;stroke-width:0.8;"/>
     </g>
     <g id="line2d_30">
      <defs>
       <path d="M 0 0 
L -3.5 0 
" id="m71e6c9793e" style="stroke:#000000;stroke-width:0.8;"/>
      </defs>
      <g>
       <use style="stroke:#000000;stroke-width:0.8;" x="56.12" xlink:href="#m71e6c9793e" y="294.88"/>
      </g>
     </g>
     <g id="text_6">
      <!-- 0.0 -->
      <defs>
       <path d="M 10.6875 12.40625 
L 21 12.40625 
L 21 0 
L 10.6875 0 
z
" id="DejaVuSans-2e"/>
      </defs>
      <g transform="translate(23.675 300.95875)scale(0.16 -0.16)">
       <use xlink:href="#DejaVuSans-30"/>
       <use x="63.623047" xlink:href="#DejaVuSans-2e"/>
       <use x="95.410156" xlink:href="#DejaVuSans-30"/>
      </g>
     </g>
    </g>
    <g id="ytick_2">
     <g id="line2d_31">
      <path clip-path="url(#p52f1106b89)" d="M 56.12 237.843411 
L 333.168 237.843411 
" style="fill:none;stroke:#b0b0b0;stroke-linecap:square;stroke-width:0.8;"/>
     </g>
     <g id="line2d_32">
      <g>
       <use style="stroke:#000000;stroke-width:0.8;" x="56.12" xlink:href="#m71e6c9793e" y="237.843411"/>
      </g>
     </g>
     <g id="text_7">
      <!-- 0.2 -->
      <g transform="translate(23.675 243.922161)scale(0.16 -0.16)">
       <use xlink:href="#DejaVuSans-30"/>
       <use x="63.623047" xlink:href="#DejaVuSans-2e"/>
       <use x="95.410156" xlink:href="#DejaVuSans-32"/>
      </g>
     </g>
    </g>
    <g id="ytick_3">
     <g id="line2d_33">
      <path clip-path="url(#p52f1106b89)" d="M 56.12 180.806823 
L 333.168 180.806823 
" style="fill:none;stroke:#b0b0b0;stroke-linecap:square;stroke-width:0.8;"/>
     </g>
     <g id="line2d_34">
      <g>
       <use style="stroke:#000000;stroke-width:0.8;" x="56.12" xlink:href="#m71e6c9793e" y="180.806823"/>
      </g>
     </g>
     <g id="text_8">
      <!-- 0.4 -->
      <g transform="translate(23.675 186.885573)scale(0.16 -0.16)">
       <use xlink:href="#DejaVuSans-30"/>
       <use x="63.623047" xlink:href="#DejaVuSans-2e"/>
       <use x="95.410156" xlink:href="#DejaVuSans-34"/>
      </g>
     </g>
    </g>
    <g id="ytick_4">
     <g id="line2d_35">
      <path clip-path="url(#p52f1106b89)" d="M 56.12 123.770234 
L 333.168 123.770234 
" style="fill:none;stroke:#b0b0b0;stroke-linecap:square;stroke-width:0.8;"/>
     </g>
     <g id="line2d_36">
      <g>
       <use style="stroke:#000000;stroke-width:0.8;" x="56.12" xlink:href="#m71e6c9793e" y="123.770234"/>
      </g>
     </g>
     <g id="text_9">
      <!-- 0.6 -->
      <g transform="translate(23.675 129.848984)scale(0.16 -0.16)">
       <use xlink:href="#DejaVuSans-30"/>
       <use x="63.623047" xlink:href="#DejaVuSans-2e"/>
       <use x="95.410156" xlink:href="#DejaVuSans-36"/>
      </g>
     </g>
    </g>
    <g id="ytick_5">
     <g id="line2d_37">
      <path clip-path="url(#p52f1106b89)" d="M 56.12 66.733646 
L 333.168 66.733646 
" style="fill:none;stroke:#b0b0b0;stroke-linecap:square;stroke-width:0.8;"/>
     </g>
     <g id="line2d_38">
      <g>
       <use style="stroke:#000000;stroke-width:0.8;" x="56.12" xlink:href="#m71e6c9793e" y="66.733646"/>
      </g>
     </g>
     <g id="text_10">
      <!-- 0.8 -->
      <defs>
       <path d="M 31.78125 34.625 
Q 24.75 34.625 20.71875 30.859375 
Q 16.703125 27.09375 16.703125 20.515625 
Q 16.703125 13.921875 20.71875 10.15625 
Q 24.75 6.390625 31.78125 6.390625 
Q 38.8125 6.390625 42.859375 10.171875 
Q 46.921875 13.96875 46.921875 20.515625 
Q 46.921875 27.09375 42.890625 30.859375 
Q 38.875 34.625 31.78125 34.625 
z
M 21.921875 38.8125 
Q 15.578125 40.375 12.03125 44.71875 
Q 8.5 49.078125 8.5 55.328125 
Q 8.5 64.0625 14.71875 69.140625 
Q 20.953125 74.21875 31.78125 74.21875 
Q 42.671875 74.21875 48.875 69.140625 
Q 55.078125 64.0625 55.078125 55.328125 
Q 55.078125 49.078125 51.53125 44.71875 
Q 48 40.375 41.703125 38.8125 
Q 48.828125 37.15625 52.796875 32.3125 
Q 56.78125 27.484375 56.78125 20.515625 
Q 56.78125 9.90625 50.3125 4.234375 
Q 43.84375 -1.421875 31.78125 -1.421875 
Q 19.734375 -1.421875 13.25 4.234375 
Q 6.78125 9.90625 6.78125 20.515625 
Q 6.78125 27.484375 10.78125 32.3125 
Q 14.796875 37.15625 21.921875 38.8125 
z
M 18.3125 54.390625 
Q 18.3125 48.734375 21.84375 45.5625 
Q 25.390625 42.390625 31.78125 42.390625 
Q 38.140625 42.390625 41.71875 45.5625 
Q 45.3125 48.734375 45.3125 54.390625 
Q 45.3125 60.0625 41.71875 63.234375 
Q 38.140625 66.40625 31.78125 66.40625 
Q 25.390625 66.40625 21.84375 63.234375 
Q 18.3125 60.0625 18.3125 54.390625 
z
" id="DejaVuSans-38"/>
      </defs>
      <g transform="translate(23.675 72.812396)scale(0.16 -0.16)">
       <use xlink:href="#DejaVuSans-30"/>
       <use x="63.623047" xlink:href="#DejaVuSans-2e"/>
       <use x="95.410156" xlink:href="#DejaVuSans-38"/>
      </g>
     </g>
    </g>
    <g id="ytick_6">
     <g id="line2d_39">
      <path clip-path="url(#p52f1106b89)" d="M 56.12 9.697057 
L 333.168 9.697057 
" style="fill:none;stroke:#b0b0b0;stroke-linecap:square;stroke-width:0.8;"/>
     </g>
     <g id="line2d_40">
      <g>
       <use style="stroke:#000000;stroke-width:0.8;" x="56.12" xlink:href="#m71e6c9793e" y="9.697057"/>
      </g>
     </g>
     <g id="text_11">
      <!-- 1.0 -->
      <g transform="translate(23.675 15.775807)scale(0.16 -0.16)">
       <use xlink:href="#DejaVuSans-31"/>
       <use x="63.623047" xlink:href="#DejaVuSans-2e"/>
       <use x="95.410156" xlink:href="#DejaVuSans-30"/>
      </g>
     </g>
    </g>
    <g id="text_12">
     <!-- Fraction of function,target pairs -->
     <defs>
      <path d="M 9.8125 72.90625 
L 51.703125 72.90625 
L 51.703125 64.59375 
L 19.671875 64.59375 
L 19.671875 43.109375 
L 48.578125 43.109375 
L 48.578125 34.8125 
L 19.671875 34.8125 
L 19.671875 0 
L 9.8125 0 
z
" id="DejaVuSans-46"/>
      <path d="M 41.109375 46.296875 
Q 39.59375 47.171875 37.8125 47.578125 
Q 36.03125 48 33.890625 48 
Q 26.265625 48 22.1875 43.046875 
Q 18.109375 38.09375 18.109375 28.8125 
L 18.109375 0 
L 9.078125 0 
L 9.078125 54.6875 
L 18.109375 54.6875 
L 18.109375 46.1875 
Q 20.953125 51.171875 25.484375 53.578125 
Q 30.03125 56 36.53125 56 
Q 37.453125 56 38.578125 55.875 
Q 39.703125 55.765625 41.0625 55.515625 
z
" id="DejaVuSans-72"/>
      <path d="M 48.78125 52.59375 
L 48.78125 44.1875 
Q 44.96875 46.296875 41.140625 47.34375 
Q 37.3125 48.390625 33.40625 48.390625 
Q 24.65625 48.390625 19.8125 42.84375 
Q 14.984375 37.3125 14.984375 27.296875 
Q 14.984375 17.28125 19.8125 11.734375 
Q 24.65625 6.203125 33.40625 6.203125 
Q 37.3125 6.203125 41.140625 7.25 
Q 44.96875 8.296875 48.78125 10.40625 
L 48.78125 2.09375 
Q 45.015625 0.34375 40.984375 -0.53125 
Q 36.96875 -1.421875 32.421875 -1.421875 
Q 20.0625 -1.421875 12.78125 6.34375 
Q 5.515625 14.109375 5.515625 27.296875 
Q 5.515625 40.671875 12.859375 48.328125 
Q 20.21875 56 33.015625 56 
Q 37.15625 56 41.109375 55.140625 
Q 45.0625 54.296875 48.78125 52.59375 
z
" id="DejaVuSans-63"/>
      <path d="M 18.3125 70.21875 
L 18.3125 54.6875 
L 36.8125 54.6875 
L 36.8125 47.703125 
L 18.3125 47.703125 
L 18.3125 18.015625 
Q 18.3125 11.328125 20.140625 9.421875 
Q 21.96875 7.515625 27.59375 7.515625 
L 36.8125 7.515625 
L 36.8125 0 
L 27.59375 0 
Q 17.1875 0 13.234375 3.875 
Q 9.28125 7.765625 9.28125 18.015625 
L 9.28125 47.703125 
L 2.6875 47.703125 
L 2.6875 54.6875 
L 9.28125 54.6875 
L 9.28125 70.21875 
z
" id="DejaVuSans-74"/>
      <path d="M 8.5 21.578125 
L 8.5 54.6875 
L 17.484375 54.6875 
L 17.484375 21.921875 
Q 17.484375 14.15625 20.5 10.265625 
Q 23.53125 6.390625 29.59375 6.390625 
Q 36.859375 6.390625 41.078125 11.03125 
Q 45.3125 15.671875 45.3125 23.6875 
L 45.3125 54.6875 
L 54.296875 54.6875 
L 54.296875 0 
L 45.3125 0 
L 45.3125 8.40625 
Q 42.046875 3.421875 37.71875 1 
Q 33.40625 -1.421875 27.6875 -1.421875 
Q 18.265625 -1.421875 13.375 4.4375 
Q 8.5 10.296875 8.5 21.578125 
z
M 31.109375 56 
z
" id="DejaVuSans-75"/>
      <path d="M 11.71875 12.40625 
L 22.015625 12.40625 
L 22.015625 4 
L 14.015625 -11.625 
L 7.71875 -11.625 
L 11.71875 4 
z
" id="DejaVuSans-2c"/>
      <path d="M 18.109375 8.203125 
L 18.109375 -20.796875 
L 9.078125 -20.796875 
L 9.078125 54.6875 
L 18.109375 54.6875 
L 18.109375 46.390625 
Q 20.953125 51.265625 25.265625 53.625 
Q 29.59375 56 35.59375 56 
Q 45.5625 56 51.78125 48.09375 
Q 58.015625 40.1875 58.015625 27.296875 
Q 58.015625 14.40625 51.78125 6.484375 
Q 45.5625 -1.421875 35.59375 -1.421875 
Q 29.59375 -1.421875 25.265625 0.953125 
Q 20.953125 3.328125 18.109375 8.203125 
z
M 48.6875 27.296875 
Q 48.6875 37.203125 44.609375 42.84375 
Q 40.53125 48.484375 33.40625 48.484375 
Q 26.265625 48.484375 22.1875 42.84375 
Q 18.109375 37.203125 18.109375 27.296875 
Q 18.109375 17.390625 22.1875 11.75 
Q 26.265625 6.109375 33.40625 6.109375 
Q 40.53125 6.109375 44.609375 11.75 
Q 48.6875 17.390625 48.6875 27.296875 
z
" id="DejaVuSans-70"/>
     </defs>
     <g transform="translate(16.139531 286.001989)rotate(-90)scale(0.17 -0.17)">
      <use xlink:href="#DejaVuSans-46"/>
      <use x="57.410156" xlink:href="#DejaVuSans-72"/>
      <use x="98.523438" xlink:href="#DejaVuSans-61"/>
      <use x="159.802734" xlink:href="#DejaVuSans-63"/>
      <use x="214.783203" xlink:href="#DejaVuSans-74"/>
      <use x="253.992188" xlink:href="#DejaVuSans-69"/>
      <use x="281.775391" xlink:href="#DejaVuSans-6f"/>
      <use x="342.957031" xlink:href="#DejaVuSans-6e"/>
      <use x="406.335938" xlink:href="#DejaVuSans-20"/>
      <use x="438.123047" xlink:href="#DejaVuSans-6f"/>
      <use x="499.304688" xlink:href="#DejaVuSans-66"/>
      <use x="534.509766" xlink:href="#DejaVuSans-20"/>
      <use x="566.296875" xlink:href="#DejaVuSans-66"/>
      <use x="601.501953" xlink:href="#DejaVuSans-75"/>
      <use x="664.880859" xlink:href="#DejaVuSans-6e"/>
      <use x="728.259766" xlink:href="#DejaVuSans-63"/>
      <use x="783.240234" xlink:href="#DejaVuSans-74"/>
      <use x="822.449219" xlink:href="#DejaVuSans-69"/>
      <use x="850.232422" xlink:href="#DejaVuSans-6f"/>
      <use x="911.414062" xlink:href="#DejaVuSans-6e"/>
      <use x="974.792969" xlink:href="#DejaVuSans-2c"/>
      <use x="1006.580078" xlink:href="#DejaVuSans-74"/>
      <use x="1045.789062" xlink:href="#DejaVuSans-61"/>
      <use x="1107.068359" xlink:href="#DejaVuSans-72"/>
      <use x="1148.166016" xlink:href="#DejaVuSans-67"/>
      <use x="1211.642578" xlink:href="#DejaVuSans-65"/>
      <use x="1273.166016" xlink:href="#DejaVuSans-74"/>
      <use x="1312.375" xlink:href="#DejaVuSans-20"/>
      <use x="1344.162109" xlink:href="#DejaVuSans-70"/>
      <use x="1407.638672" xlink:href="#DejaVuSans-61"/>
      <use x="1468.917969" xlink:href="#DejaVuSans-69"/>
      <use x="1496.701172" xlink:href="#DejaVuSans-72"/>
      <use x="1537.814453" xlink:href="#DejaVuSans-73"/>
     </g>
    </g>
   </g>
   <g id="line2d_41">
    <defs>
     <path d="M 0 1.5 
C 0.397805 1.5 0.77937 1.341951 1.06066 1.06066 
C 1.341951 0.77937 1.5 0.397805 1.5 0 
C 1.5 -0.397805 1.341951 -0.77937 1.06066 -1.06066 
C 0.77937 -1.341951 0.397805 -1.5 0 -1.5 
C -0.397805 -1.5 -0.77937 -1.341951 -1.06066 -1.06066 
C -1.341951 -0.77937 -1.5 -0.397805 -1.5 0 
C -1.5 0.397805 -1.341951 0.77937 -1.06066 1.06066 
C -0.77937 1.341951 -0.397805 1.5 0 1.5 
z
" id="m8070f9c9b6" style="stroke:#f5deb3;"/>
    </defs>
    <g>
     <use style="fill:#f5deb3;stroke:#f5deb3;" x="328.17278" xlink:href="#m8070f9c9b6" y="9.697057"/>
     <use style="fill:#f5deb3;stroke:#f5deb3;" x="328.17278" xlink:href="#m8070f9c9b6" y="9.697057"/>
    </g>
   </g>
   <g id="line2d_42">
    <defs>
     <path d="M 0 1.5 
C 0.397805 1.5 0.77937 1.341951 1.06066 1.06066 
C 1.341951 0.77937 1.5 0.397805 1.5 0 
C 1.5 -0.397805 1.341951 -0.77937 1.06066 -1.06066 
C 0.77937 -1.341951 0.397805 -1.5 0 -1.5 
C -0.397805 -1.5 -0.77937 -1.341951 -1.06066 -1.06066 
C -1.341951 -0.77937 -1.5 -0.397805 -1.5 0 
C -1.5 0.397805 -1.341951 0.77937 -1.06066 1.06066 
C -0.77937 1.341951 -0.397805 1.5 0 1.5 
z
" id="m2ee4de194b" style="stroke:#000080;"/>
    </defs>
    <g>
     <use style="fill:#000080;stroke:#000080;" x="253.73244" xlink:href="#m2ee4de194b" y="162.912991"/>
     <use style="fill:#000080;stroke:#000080;" x="253.73244" xlink:href="#m2ee4de194b" y="162.912991"/>
    </g>
   </g>
   <g id="line2d_43">
    <path d="M 16.541714 294.88 
L 16.541714 287.386958 
L 28.455965 287.386958 
L 28.455965 286.715939 
L 35.425356 286.715939 
L 35.425356 286.604103 
L 40.370217 286.604103 
L 40.370217 285.933084 
L 44.205749 285.933084 
L 44.205749 285.373902 
L 49.989246 285.373902 
L 49.989246 285.038393 
L 52.284468 285.038393 
L 52.284468 284.81472 
L 54.308997 284.81472 
L 54.308997 284.702883 
L 65.240773 284.702883 
L 65.240773 284.591047 
L 68.034251 284.591047 
L 68.034251 284.47921 
L 69.672503 284.47921 
L 69.672503 284.255537 
L 73.192638 284.255537 
L 73.192638 284.031865 
L 78.60845 284.031865 
L 78.60845 283.920028 
L 79.513324 283.920028 
L 79.513324 283.808192 
L 79.948502 283.808192 
L 79.948502 283.584519 
L 81.586754 283.584519 
L 81.586754 283.472682 
L 82.350819 283.472682 
L 82.350819 283.360846 
L 84.458185 283.360846 
L 84.458185 283.249009 
L 88.814625 283.249009 
L 88.814625 283.137173 
L 89.069276 283.137173 
L 89.069276 282.9135 
L 90.288839 282.9135 
L 90.288839 282.801664 
L 92.70139 282.801664 
L 92.70139 282.689827 
L 99.67078 282.689827 
L 99.67078 282.577991 
L 108.036969 282.577991 
L 108.036969 282.466154 
L 108.20385 282.466154 
L 108.20385 282.242481 
L 109.014785 282.242481 
L 109.014785 282.130645 
L 109.483595 282.130645 
L 109.483595 281.906972 
L 109.713291 281.906972 
L 109.789179 281.683299 
L 110.089425 281.683299 
L 110.163674 281.459626 
L 111.100812 281.459626 
L 111.170827 281.235953 
L 111.240558 281.235953 
L 111.240558 280.900444 
L 112.188203 280.900444 
L 112.188203 280.788608 
L 113.820466 280.788608 
L 113.820466 280.564935 
L 114.696138 280.564935 
L 114.696138 280.453098 
L 115.691256 280.453098 
L 115.691256 280.229425 
L 115.904782 280.229425 
L 115.904782 279.893916 
L 116.272187 279.893916 
L 116.324038 279.558407 
L 116.427273 279.558407 
L 116.529892 279.334734 
L 117.133064 279.334734 
L 117.182386 278.104533 
L 117.905717 278.104533 
L 117.905717 277.769023 
L 118.599834 277.769023 
L 118.599834 277.545351 
L 119.179531 277.545351 
L 119.179531 277.098005 
L 119.569706 277.098005 
L 119.569706 276.874332 
L 119.697821 276.874332 
L 119.697821 276.762495 
L 119.867168 276.762495 
L 119.909246 276.31515 
L 120.487764 276.31515 
L 120.487764 276.091477 
L 120.609239 276.091477 
L 120.609239 275.308622 
L 121.627542 275.308622 
L 121.627542 275.084949 
L 122.480659 275.084949 
L 122.516807 274.749439 
L 122.944762 274.749439 
L 122.944762 274.637603 
L 123.499282 274.637603 
L 123.499282 274.41393 
L 124.102454 274.41393 
L 124.135351 273.631075 
L 124.396284 273.631075 
L 124.396284 273.295566 
L 124.653315 273.295566 
L 124.653315 272.51271 
L 124.969291 272.51271 
L 125.062963 271.618019 
L 125.340952 271.618019 
L 125.340952 271.506182 
L 125.943067 271.506182 
L 125.943067 271.394346 
L 126.119664 271.394346 
L 126.119664 271.058837 
L 126.265455 271.058837 
L 126.265455 270.723327 
L 126.667211 270.723327 
L 126.667211 270.387818 
L 126.836558 270.387818 
L 126.836558 270.275981 
L 127.142761 270.275981 
L 127.225332 269.940472 
L 127.334814 269.940472 
L 127.334814 269.716799 
L 127.712602 269.716799 
L 127.819033 269.38129 
L 127.872003 269.38129 
L 127.872003 269.269453 
L 128.13443 269.269453 
L 128.212383 268.598435 
L 128.264156 268.598435 
L 128.264156 268.374762 
L 128.647561 268.374762 
L 128.647561 268.262925 
L 129.022601 268.262925 
L 129.022601 268.151089 
L 129.170355 268.151089 
L 129.170355 267.927416 
L 129.510254 267.927416 
L 129.582224 267.48007 
L 129.796341 267.48007 
L 129.819968 267.144561 
L 129.961052 267.144561 
L 129.961052 267.032724 
L 130.216736 267.032724 
L 130.239792 266.697215 
L 130.400328 266.697215 
L 130.468672 266.473542 
L 130.627094 266.473542 
L 130.67209 266.138033 
L 130.806377 266.138033 
L 130.806377 266.026196 
L 131.137575 266.026196 
L 131.224827 265.802523 
L 131.41954 265.802523 
L 131.41954 265.690687 
L 131.675773 265.690687 
L 131.675773 265.578851 
L 131.990784 265.578851 
L 131.990784 265.355178 
L 132.11519 265.355178 
L 132.11519 265.243341 
L 132.52349 265.243341 
L 132.603999 264.34865 
L 132.684132 264.34865 
L 132.783777 263.453958 
L 132.823474 263.453958 
L 132.823474 263.230285 
L 133.617681 263.230285 
L 133.617681 263.006612 
L 133.76846 263.006612 
L 133.76846 262.894776 
L 133.955092 262.894776 
L 134.029181 262.559266 
L 134.467131 262.559266 
L 134.574897 262.335594 
L 134.646368 262.335594 
L 134.717542 261.888248 
L 135.32806 261.888248 
L 135.32806 261.776411 
L 135.481607 261.776411 
L 135.549413 261.440902 
L 135.884484 261.440902 
L 135.884484 261.329066 
L 136.09883 261.329066 
L 136.09883 261.105393 
L 136.439531 261.105393 
L 136.439531 260.993556 
L 136.89919 260.993556 
L 136.89919 260.88172 
L 137.039379 260.88172 
L 137.039379 260.769883 
L 138.121538 260.769883 
L 138.179706 260.434374 
L 138.496158 260.434374 
L 138.496158 260.322538 
L 139.303546 260.322538 
L 139.344294 259.987028 
L 139.69345 259.987028 
L 139.69345 259.875192 
L 140.048681 259.875192 
L 140.048681 259.651519 
L 140.281488 259.651519 
L 140.358394 259.316009 
L 140.787817 259.316009 
L 140.787817 259.204173 
L 141.145798 259.204173 
L 141.145798 259.092337 
L 141.412481 259.092337 
L 141.460528 258.868664 
L 141.66324 258.868664 
L 141.66324 258.756827 
L 142.314579 258.756827 
L 142.405645 258.309481 
L 142.69832 258.309481 
L 142.69832 258.197645 
L 142.920112 258.197645 
L 142.920112 257.973972 
L 143.128196 257.973972 
L 143.128196 257.862136 
L 143.451706 257.862136 
L 143.494384 257.41479 
L 143.579424 257.41479 
L 143.621786 257.191117 
L 144.568377 257.191117 
L 144.568377 256.967444 
L 145.129729 256.967444 
L 145.129729 256.855608 
L 145.417974 256.855608 
L 145.417974 256.743771 
L 145.692091 256.743771 
L 145.692091 256.520098 
L 145.971133 256.520098 
L 146.007999 256.296425 
L 146.327245 256.296425 
L 146.408387 255.84908 
L 146.471234 255.84908 
L 146.498098 255.401734 
L 146.64067 255.401734 
L 146.684982 255.178061 
L 147.147797 255.178061 
L 147.147797 255.066224 
L 147.378865 255.066224 
L 147.378865 254.954388 
L 147.657127 254.954388 
L 147.682202 254.618879 
L 148.143669 254.618879 
L 148.151798 254.395206 
L 148.38588 254.395206 
L 148.38588 254.283369 
L 148.585148 254.283369 
L 148.585148 253.94786 
L 149.007841 253.94786 
L 149.046458 253.276841 
L 149.161793 253.276841 
L 149.161793 253.165005 
L 149.741959 253.165005 
L 149.741959 252.941332 
L 149.911525 252.941332 
L 149.911525 252.717659 
L 150.22412 252.717659 
L 150.22412 252.605823 
L 150.460221 252.605823 
L 150.524054 252.38215 
L 150.629917 252.38215 
L 150.700132 252.04664 
L 150.811883 252.04664 
L 150.811883 251.934804 
L 151.005716 251.934804 
L 151.005716 251.711131 
L 151.170136 251.711131 
L 151.183767 251.487458 
L 151.305962 251.487458 
L 151.305962 251.263785 
L 151.733528 251.263785 
L 151.733528 251.151949 
L 152.131386 251.151949 
L 152.131386 250.928276 
L 152.368298 250.928276 
L 152.368298 250.816439 
L 152.520242 250.816439 
L 152.520242 250.592767 
L 152.645845 250.592767 
L 152.645845 250.48093 
L 152.851103 250.48093 
L 152.851103 250.369094 
L 153.127109 250.369094 
L 153.127109 250.257257 
L 153.350772 250.257257 
L 153.350772 249.921748 
L 153.754391 249.921748 
L 153.830486 249.698075 
L 153.923681 249.698075 
L 153.987461 249.474402 
L 154.302858 249.474402 
L 154.302858 249.250729 
L 154.790233 249.250729 
L 154.790233 249.138893 
L 154.911319 249.138893 
L 154.971544 248.803383 
L 155.328526 248.803383 
L 155.328526 248.691547 
L 155.456522 248.691547 
L 155.456522 248.57971 
L 155.699213 248.57971 
L 155.699213 248.356038 
L 155.876417 248.356038 
L 155.876417 248.020528 
L 156.602341 248.020528 
L 156.602341 247.908692 
L 156.83439 247.908692 
L 156.912676 247.34951 
L 157.207912 247.34951 
L 157.207912 247.237673 
L 157.940653 247.237673 
L 157.986575 246.902164 
L 158.340618 246.902164 
L 158.354091 246.566654 
L 158.945339 246.566654 
L 158.945339 246.231145 
L 159.322843 246.231145 
L 159.322843 246.007472 
L 159.787486 246.007472 
L 159.787486 245.895636 
L 160.219773 245.895636 
L 160.219773 245.783799 
L 161.152506 245.783799 
L 161.152506 245.671963 
L 161.514862 245.671963 
L 161.514862 245.44829 
L 162.246092 245.44829 
L 162.246092 245.336453 
L 162.473665 245.336453 
L 162.473665 245.224617 
L 162.663364 245.224617 
L 162.663364 245.112781 
L 162.89241 245.112781 
L 162.89241 244.889108 
L 163.723493 244.889108 
L 163.723493 244.665435 
L 164.273007 244.665435 
L 164.273007 244.553598 
L 164.437645 244.553598 
L 164.437645 244.441762 
L 164.820911 244.441762 
L 164.867072 243.994416 
L 165.662775 243.994416 
L 165.695021 243.658907 
L 166.386735 243.658907 
L 166.386735 243.435234 
L 166.654702 243.435234 
L 166.693434 242.987888 
L 166.9703 242.987888 
L 166.9703 242.876052 
L 167.234746 242.876052 
L 167.234746 242.652379 
L 167.48727 242.652379 
L 167.558369 242.428706 
L 167.746539 242.428706 
L 167.746539 242.316869 
L 167.99427 242.316869 
L 168.096446 241.757687 
L 168.256153 241.757687 
L 168.256153 241.645851 
L 168.751093 241.645851 
L 168.751093 241.422178 
L 168.865936 241.422178 
L 168.865936 241.310341 
L 168.987274 241.310341 
L 168.987274 241.086668 
L 169.124562 241.086668 
L 169.189213 240.862996 
L 169.914579 240.862996 
L 169.914579 240.751159 
L 170.241386 240.751159 
L 170.241386 240.639323 
L 170.353423 240.639323 
L 170.353423 240.527486 
L 171.203117 240.527486 
L 171.239216 240.08014 
L 171.38286 240.08014 
L 171.38286 239.968304 
L 172.91734 239.968304 
L 172.91734 239.856467 
L 174.021978 239.856467 
L 174.021978 239.744631 
L 174.183594 239.744631 
L 174.183594 239.632795 
L 174.391449 239.632795 
L 174.391449 239.409122 
L 176.089954 239.409122 
L 176.089954 239.297285 
L 176.268191 239.297285 
L 176.336134 239.073612 
L 176.419509 239.073612 
L 176.43833 238.738103 
L 176.535247 238.738103 
L 176.535247 238.626267 
L 176.661047 238.626267 
L 176.661047 238.402594 
L 176.816629 238.402594 
L 176.816629 238.290757 
L 177.0542 238.290757 
L 177.0542 238.178921 
L 177.203281 238.178921 
L 177.307917 237.731575 
L 177.319835 237.731575 
L 177.333233 237.284229 
L 177.481399 237.284229 
L 177.568222 236.725047 
L 177.937072 236.725047 
L 178.020199 235.718519 
L 178.293952 235.718519 
L 178.359962 235.271173 
L 178.453626 235.271173 
L 178.474525 234.823827 
L 178.764484 234.823827 
L 178.845076 234.376482 
L 178.884551 234.376482 
L 178.884551 233.929136 
L 179.053672 233.929136 
L 179.14498 233.258117 
L 179.206473 233.258117 
L 179.277052 233.034444 
L 179.392284 233.034444 
L 179.501502 232.698935 
L 179.608727 232.698935 
L 179.672482 232.475262 
L 179.772194 232.475262 
L 179.862342 232.251589 
L 179.905959 232.251589 
L 179.905959 232.139753 
L 180.14768 232.139753 
L 180.14768 232.027916 
L 180.29235 232.027916 
L 180.29235 231.91608 
L 181.01841 231.91608 
L 181.01841 231.804243 
L 181.379664 231.804243 
L 181.383191 231.58057 
L 181.597008 231.58057 
L 181.651496 231.245061 
L 181.71158 231.245061 
L 181.71158 231.133225 
L 181.843717 231.133225 
L 181.947562 230.685879 
L 182.267674 230.685879 
L 182.267674 230.574042 
L 182.392295 230.574042 
L 182.392295 230.462206 
L 182.629019 230.462206 
L 182.629019 230.126697 
L 182.751056 230.126697 
L 182.853894 229.455678 
L 183.051344 229.455678 
L 183.15877 228.896496 
L 183.275009 228.896496 
L 183.381051 228.560986 
L 183.660327 228.560986 
L 183.729187 228.337313 
L 183.885406 228.337313 
L 183.938179 227.889968 
L 184.086493 227.889968 
L 184.185661 227.442622 
L 184.269357 227.442622 
L 184.269357 227.330785 
L 184.575734 227.330785 
L 184.677952 227.107112 
L 184.714796 227.107112 
L 184.714796 226.995276 
L 184.927521 226.995276 
L 185.027674 226.771603 
L 185.173518 226.771603 
L 185.215902 226.436094 
L 185.530033 226.436094 
L 185.530033 226.212421 
L 186.341861 226.212421 
L 186.446389 225.988748 
L 186.626714 225.988748 
L 186.626714 225.876911 
L 186.861677 225.876911 
L 186.861677 225.765075 
L 187.658417 225.765075 
L 187.658417 225.653239 
L 187.811971 225.653239 
L 187.811971 225.541402 
L 187.984998 225.541402 
L 188.064089 225.205893 
L 188.204593 225.205893 
L 188.259056 224.646711 
L 188.488424 224.646711 
L 188.571429 223.975692 
L 188.623972 223.975692 
L 188.694806 223.41651 
L 188.751569 223.41651 
L 188.751569 223.192837 
L 188.904053 223.192837 
L 188.963157 222.409982 
L 189.072493 222.409982 
L 189.123529 222.074472 
L 189.197562 222.074472 
L 189.269791 221.51529 
L 189.384582 221.51529 
L 189.477334 221.179781 
L 189.528648 221.179781 
L 189.553517 220.844271 
L 189.687479 220.844271 
L 189.775009 220.508762 
L 189.859941 220.508762 
L 189.925154 219.94958 
L 190.083215 219.94958 
L 190.161703 219.725907 
L 190.606703 219.725907 
L 190.68558 219.278561 
L 190.74774 219.278561 
L 190.74774 218.943052 
L 190.90115 218.943052 
L 190.989451 218.607542 
L 191.142728 218.607542 
L 191.200603 218.04836 
L 191.285401 218.04836 
L 191.285401 217.936524 
L 191.413785 217.936524 
L 191.413785 217.824687 
L 191.555536 217.824687 
L 191.555536 217.601014 
L 191.763102 217.601014 
L 191.837497 217.377341 
L 191.936406 217.377341 
L 191.968191 217.153669 
L 192.061299 217.153669 
L 192.123722 216.706323 
L 192.312754 216.706323 
L 192.312754 216.594486 
L 192.435571 216.594486 
L 192.489875 216.370813 
L 192.594911 216.370813 
L 192.594911 216.035304 
L 192.738826 216.035304 
L 192.780071 215.811631 
L 193.236198 215.811631 
L 193.324462 215.587958 
L 193.70179 215.587958 
L 193.70179 215.476122 
L 193.833917 215.476122 
L 193.902722 215.252449 
L 194.496185 215.252449 
L 194.582045 214.805103 
L 194.690803 214.805103 
L 194.784327 214.134084 
L 194.858567 214.134084 
L 194.966128 213.574902 
L 195.077261 213.574902 
L 195.138634 212.903883 
L 195.191367 212.903883 
L 195.295302 212.009192 
L 195.379875 212.009192 
L 195.379875 211.897355 
L 195.492513 211.897355 
L 195.594134 210.890827 
L 195.768629 210.890827 
L 195.85091 210.443482 
L 195.956485 210.443482 
L 195.956485 210.331645 
L 196.06792 210.331645 
L 196.176152 209.996136 
L 196.243143 209.996136 
L 196.299017 209.772463 
L 196.373398 209.772463 
L 196.450395 209.436954 
L 196.53971 209.436954 
L 196.53971 209.325117 
L 196.677406 209.325117 
L 196.756421 208.877771 
L 196.819276 208.877771 
L 196.925273 208.318589 
L 196.93146 208.318589 
L 196.93146 208.206753 
L 197.115095 208.206753 
L 197.213673 207.64757 
L 197.293528 207.64757 
L 197.293528 207.535734 
L 197.419789 207.535734 
L 197.487642 207.200225 
L 197.571739 207.200225 
L 197.671386 206.976552 
L 197.713266 206.976552 
L 197.778614 206.641042 
L 197.939557 206.641042 
L 197.984371 206.417369 
L 198.16468 206.417369 
L 198.270644 206.193697 
L 198.352319 206.193697 
L 198.352319 206.08186 
L 199.296664 206.08186 
L 199.296664 205.970024 
L 199.435014 205.970024 
L 199.53386 205.187169 
L 199.869195 205.187169 
L 199.969171 204.180641 
L 200.02093 204.180641 
L 200.097089 203.733295 
L 200.133463 203.733295 
L 200.133463 203.621458 
L 200.290722 203.621458 
L 200.290722 203.509622 
L 200.411227 203.509622 
L 200.518539 203.174112 
L 200.63401 203.174112 
L 200.734987 202.726767 
L 200.755188 202.726767 
L 200.864166 202.055748 
L 201.135674 202.055748 
L 201.169546 201.832075 
L 201.276306 201.832075 
L 201.317276 201.496566 
L 201.435212 201.496566 
L 201.534152 200.825547 
L 201.611518 200.825547 
L 201.611518 200.713711 
L 201.842266 200.713711 
L 201.842266 200.601874 
L 202.004197 200.601874 
L 202.005968 200.266365 
L 202.177246 200.266365 
L 202.224872 200.042692 
L 202.388452 200.042692 
L 202.388452 199.930855 
L 202.566267 199.930855 
L 202.645278 199.371673 
L 203.156312 199.371673 
L 203.233652 198.588818 
L 203.322788 198.588818 
L 203.366365 198.141472 
L 203.438532 198.141472 
L 203.438532 197.917799 
L 203.597791 197.917799 
L 203.677031 197.58229 
L 203.710742 197.58229 
L 203.710742 197.470454 
L 203.829965 197.470454 
L 203.881489 197.134944 
L 203.946785 197.134944 
L 204.052758 196.799435 
L 204.227317 196.799435 
L 204.315794 196.463926 
L 204.38625 196.463926 
L 204.454575 196.01658 
L 204.538837 196.01658 
L 204.56785 195.792907 
L 204.683717 195.792907 
L 204.784954 195.569234 
L 204.819871 195.569234 
L 204.930174 195.010052 
L 204.979997 195.010052 
L 205.04482 194.674542 
L 205.129493 194.674542 
L 205.219922 194.45087 
L 205.249275 194.45087 
L 205.256019 194.003524 
L 205.367645 194.003524 
L 205.367645 193.891687 
L 205.573212 193.891687 
L 205.627808 193.668014 
L 205.687664 193.668014 
L 205.721082 193.444342 
L 206.120448 193.444342 
L 206.195834 193.220669 
L 206.267574 193.220669 
L 206.353049 192.996996 
L 206.495478 192.996996 
L 206.531446 192.54965 
L 206.613725 192.54965 
L 206.613725 192.437813 
L 206.796153 192.437813 
L 206.877712 192.214141 
L 206.967114 192.214141 
L 207.072415 191.990468 
L 207.114566 191.990468 
L 207.189393 191.543122 
L 207.378285 191.543122 
L 207.448878 191.207613 
L 207.501183 191.207613 
L 207.530744 190.872103 
L 207.65613 190.872103 
L 207.707047 190.64843 
L 207.949619 190.64843 
L 207.988174 190.424757 
L 208.105065 190.424757 
L 208.181893 189.865575 
L 208.35706 189.865575 
L 208.35706 189.753739 
L 208.861882 189.753739 
L 208.932094 189.418229 
L 209.011919 189.418229 
L 209.075185 189.08272 
L 209.209176 189.08272 
L 209.209176 188.970884 
L 209.380919 188.970884 
L 209.380919 188.859047 
L 209.537028 188.859047 
L 209.592472 188.635374 
L 209.740809 188.635374 
L 209.814501 188.299865 
L 209.877126 188.299865 
L 209.968744 187.740683 
L 209.995912 187.740683 
L 210.067191 186.957828 
L 210.134202 186.957828 
L 210.244433 186.734155 
L 210.28846 186.734155 
L 210.28846 186.622318 
L 210.692103 186.622318 
L 210.692103 186.398645 
L 211.062242 186.398645 
L 211.062242 186.286809 
L 211.173555 186.286809 
L 211.237846 186.063136 
L 211.296534 186.063136 
L 211.397529 185.727627 
L 211.746106 185.727627 
L 211.746106 185.61579 
L 211.947898 185.61579 
L 211.947898 185.503954 
L 212.131044 185.503954 
L 212.149115 185.280281 
L 212.601501 185.280281 
L 212.601501 185.168444 
L 213.085098 185.168444 
L 213.184643 184.832935 
L 213.235951 184.832935 
L 213.235951 184.721099 
L 213.436568 184.721099 
L 213.436568 184.609262 
L 213.670125 184.609262 
L 213.767241 184.273753 
L 213.796519 184.273753 
L 213.86239 183.826407 
L 213.91278 183.826407 
L 213.932435 183.602734 
L 214.025796 183.602734 
L 214.074306 183.155388 
L 214.245106 183.155388 
L 214.262475 182.931715 
L 214.829043 182.931715 
L 214.829043 182.819879 
L 214.98089 182.819879 
L 215.01831 182.372533 
L 215.09572 182.372533 
L 215.122987 182.14886 
L 215.211103 182.14886 
L 215.211103 182.037024 
L 215.404193 182.037024 
L 215.509944 181.813351 
L 215.599154 181.813351 
L 215.684389 181.589678 
L 215.735614 181.589678 
L 215.766817 181.366005 
L 215.867995 181.366005 
L 215.867995 181.254169 
L 216.405645 181.254169 
L 216.491253 180.918659 
L 216.533897 180.918659 
L 216.585385 180.694986 
L 216.657272 180.694986 
L 216.657272 180.58315 
L 216.795206 180.58315 
L 216.876215 180.023968 
L 217.043744 180.023968 
L 217.122417 179.800295 
L 217.227343 179.800295 
L 217.255225 179.576622 
L 217.527278 179.576622 
L 217.573445 179.352949 
L 217.957861 179.352949 
L 217.957861 179.241113 
L 218.157207 179.241113 
L 218.157207 179.129276 
L 218.2739 179.129276 
L 218.311936 178.905603 
L 218.523235 178.905603 
L 218.599885 178.570094 
L 218.730496 178.570094 
L 218.730496 178.458257 
L 218.919539 178.458257 
L 218.962119 178.234585 
L 219.324895 178.234585 
L 219.433691 177.899075 
L 219.51471 177.899075 
L 219.582997 177.451729 
L 219.722554 177.451729 
L 219.832511 177.228057 
L 219.935904 177.228057 
L 219.977038 176.892547 
L 220.090826 176.892547 
L 220.138007 176.668874 
L 220.224128 176.668874 
L 220.265313 176.445201 
L 220.549074 176.445201 
L 220.596816 176.221528 
L 220.778153 176.221528 
L 220.823842 175.997856 
L 221.020747 175.997856 
L 221.104666 175.774183 
L 221.166583 175.774183 
L 221.19073 175.55051 
L 221.296785 175.55051 
L 221.405512 175.103164 
L 221.947283 175.103164 
L 221.947283 174.991328 
L 222.102557 174.991328 
L 222.158904 174.655818 
L 222.288468 174.655818 
L 222.354296 174.208472 
L 222.423652 174.208472 
L 222.423652 174.096636 
L 223.115523 174.096636 
L 223.115523 173.9848 
L 223.255185 173.9848 
L 223.33371 173.761127 
L 223.399334 173.761127 
L 223.484212 173.537454 
L 223.624548 173.537454 
L 223.624548 173.425617 
L 223.914704 173.425617 
L 223.914704 173.313781 
L 224.132525 173.313781 
L 224.220482 173.090108 
L 224.290853 173.090108 
L 224.357465 172.754599 
L 224.480245 172.754599 
L 224.521392 172.530926 
L 224.919876 172.530926 
L 224.919876 172.419089 
L 225.237882 172.419089 
L 225.277256 172.195416 
L 225.360743 172.195416 
L 225.375937 171.971743 
L 225.533629 171.971743 
L 225.533629 171.748071 
L 225.97776 171.748071 
L 226.056084 171.524398 
L 226.137447 171.524398 
L 226.186705 171.188888 
L 226.392969 171.188888 
L 226.392969 171.077052 
L 226.708657 171.077052 
L 226.732541 170.853379 
L 226.870649 170.853379 
L 226.870649 170.741543 
L 227.107685 170.741543 
L 227.162769 170.51787 
L 227.795207 170.51787 
L 227.871195 170.294197 
L 227.918793 170.294197 
L 227.971342 170.070524 
L 228.067876 170.070524 
L 228.129969 169.735014 
L 228.428286 169.735014 
L 228.48492 169.511342 
L 228.562837 169.511342 
L 228.63288 169.063996 
L 228.681118 169.063996 
L 228.681118 168.952159 
L 228.835886 168.952159 
L 228.835886 168.840323 
L 229.061639 168.840323 
L 229.061639 168.728486 
L 229.376585 168.728486 
L 229.376585 168.504814 
L 229.513379 168.504814 
L 229.513379 168.392977 
L 229.755855 168.392977 
L 229.755855 168.281141 
L 230.036476 168.281141 
L 230.119624 167.945631 
L 230.308425 167.945631 
L 230.308425 167.833795 
L 230.759885 167.833795 
L 230.827301 167.610122 
L 230.93208 167.610122 
L 230.93208 167.498286 
L 231.225239 167.498286 
L 231.225239 167.386449 
L 231.395869 167.386449 
L 231.42506 167.162776 
L 231.526268 167.162776 
L 231.526268 167.05094 
L 232.041771 167.05094 
L 232.066128 166.827267 
L 232.241707 166.827267 
L 232.241707 166.71543 
L 232.554724 166.71543 
L 232.554724 166.603594 
L 233.053569 166.603594 
L 233.053569 166.491757 
L 233.423196 166.491757 
L 233.423196 166.379921 
L 233.723991 166.379921 
L 233.807217 166.156248 
L 233.838761 166.156248 
L 233.838761 166.044412 
L 234.401925 166.044412 
L 234.401925 165.932575 
L 234.815661 165.932575 
L 234.815661 165.820739 
L 235.369454 165.820739 
L 235.478023 165.485229 
L 235.921527 165.485229 
L 235.921527 165.373393 
L 236.039051 165.373393 
L 236.066611 165.14972 
L 236.240231 165.14972 
L 236.240231 165.037884 
L 236.529766 165.037884 
L 236.547912 164.814211 
L 237.788036 164.814211 
L 237.788036 164.702374 
L 238.15643 164.702374 
L 238.15643 164.590538 
L 238.775685 164.590538 
L 238.775685 164.478701 
L 239.349381 164.478701 
L 239.382183 164.255029 
L 239.544307 164.255029 
L 239.544307 164.143192 
L 240.212066 164.143192 
L 240.212066 164.031356 
L 240.384061 164.031356 
L 240.384061 163.919519 
L 240.762625 163.919519 
L 240.762625 163.807683 
L 241.787344 163.807683 
L 241.787344 163.695846 
L 242.219161 163.695846 
L 242.219161 163.58401 
L 242.878554 163.58401 
L 242.878554 163.472173 
L 244.941008 163.472173 
L 244.941008 163.360337 
L 247.658991 163.360337 
L 247.658991 163.2485 
L 248.670716 163.2485 
L 248.670716 163.136664 
L 250.912552 163.136664 
L 250.912552 163.024828 
L 253.73244 163.024828 
L 253.73244 162.912991 
L 333.168 162.912991 
L 333.168 162.912991 
" style="fill:none;stroke:#000080;stroke-linecap:square;stroke-width:1.5;"/>
   </g>
   <g id="line2d_44">
    <defs>
     <path d="M 0 6 
C 1.591219 6 3.117479 5.367802 4.242641 4.242641 
C 5.367802 3.117479 6 1.591219 6 0 
C 6 -1.591219 5.367802 -3.117479 4.242641 -4.242641 
C 3.117479 -5.367802 1.591219 -6 0 -6 
C -1.591219 -6 -3.117479 -5.367802 -4.242641 -4.242641 
C -5.367802 -3.117479 -6 -1.591219 -6 0 
C -6 1.591219 -5.367802 3.117479 -4.242641 4.242641 
C -3.117479 5.367802 -1.591219 6 0 6 
z
" id="mcbbf097a2a" style="stroke:#000080;stroke-width:1.5;"/>
    </defs>
    <g>
     <use style="fill-opacity:0;stroke:#000080;stroke-width:1.5;" x="79.948502" xlink:href="#mcbbf097a2a" y="283.584519"/>
     <use style="fill-opacity:0;stroke:#000080;stroke-width:1.5;" x="135.884484" xlink:href="#mcbbf097a2a" y="261.329066"/>
     <use style="fill-opacity:0;stroke:#000080;stroke-width:1.5;" x="209.740809" xlink:href="#mcbbf097a2a" y="188.635374"/>
     <use style="fill-opacity:0;stroke:#000080;stroke-width:1.5;" x="253.73244" xlink:href="#mcbbf097a2a" y="163.024828"/>
     <use style="fill-opacity:0;stroke:#000080;stroke-width:1.5;" x="253.73244" xlink:href="#mcbbf097a2a" y="162.912991"/>
     <use style="fill-opacity:0;stroke:#000080;stroke-width:1.5;" x="333.168" xlink:href="#mcbbf097a2a" y="162.912991"/>
    </g>
   </g>
   <g id="line2d_45">
    <path style="fill:none;stroke:#000080;stroke-linecap:square;stroke-width:1.5;"/>
    <g/>
   </g>
   <g id="line2d_46">
    <path clip-path="url(#p52f1106b89)" d="M 175.027591 239.409122 
" style="fill:none;stroke:#000080;stroke-linecap:square;stroke-width:1.5;"/>
    <defs>
     <path d="M -12 12 
L 12 -12 
M -12 -12 
L 12 12 
" id="m8a532c1672" style="stroke:#000080;"/>
    </defs>
    <g clip-path="url(#p52f1106b89)">
     <use style="fill:#000080;stroke:#000080;" x="175.027591" xlink:href="#m8a532c1672" y="239.409122"/>
    </g>
   </g>
   <g id="line2d_47">
    <defs>
     <path d="M 0 1.5 
C 0.397805 1.5 0.77937 1.341951 1.06066 1.06066 
C 1.341951 0.77937 1.5 0.397805 1.5 0 
C 1.5 -0.397805 1.341951 -0.77937 1.06066 -1.06066 
C 0.77937 -1.341951 0.397805 -1.5 0 -1.5 
C -0.397805 -1.5 -0.77937 -1.341951 -1.06066 -1.06066 
C -1.341951 -0.77937 -1.5 -0.397805 -1.5 0 
C -1.5 0.397805 -1.341951 0.77937 -1.06066 1.06066 
C -0.77937 1.341951 -0.397805 1.5 0 1.5 
z
" id="m4b0f285087" style="stroke:#ff00ff;"/>
    </defs>
    <g>
     <use style="fill:#ff00ff;stroke:#ff00ff;" x="254.094951" xlink:href="#m4b0f285087" y="203.174112"/>
     <use style="fill:#ff00ff;stroke:#ff00ff;" x="254.094951" xlink:href="#m4b0f285087" y="203.174112"/>
    </g>
   </g>
   <g id="line2d_48">
    <path d="M 16.541714 294.88 
L 16.541714 287.722467 
L 28.455965 287.722467 
L 28.455965 287.275122 
L 35.425356 287.275122 
L 35.425356 286.827776 
L 40.370217 286.827776 
L 40.370217 286.715939 
L 47.339607 286.715939 
L 47.339607 286.268593 
L 49.989246 286.268593 
L 49.989246 286.156757 
L 54.308997 286.156757 
L 54.308997 286.044921 
L 56.12 286.044921 
L 56.12 285.821248 
L 59.253858 285.821248 
L 59.253858 285.150229 
L 60.629683 285.150229 
L 60.629683 285.038393 
L 61.903497 285.038393 
L 61.903497 284.81472 
L 63.08939 284.81472 
L 63.08939 284.702883 
L 65.240773 284.702883 
L 65.240773 284.591047 
L 66.223248 284.591047 
L 66.223248 284.255537 
L 67.15259 284.255537 
L 67.15259 284.031865 
L 69.672503 284.031865 
L 69.672503 283.696355 
L 73.192638 283.696355 
L 73.192638 282.689827 
L 76.11297 282.689827 
L 76.11297 282.466154 
L 78.137499 282.466154 
L 78.137499 282.242481 
L 82.350819 282.242481 
L 82.350819 282.130645 
L 88.556144 282.130645 
L 88.556144 281.795136 
L 92.70139 281.795136 
L 92.70139 281.571463 
L 94.996612 281.571463 
L 94.996612 281.459626 
L 102.084955 281.459626 
L 102.084955 281.34779 
L 107.783569 281.34779 
L 107.868452 281.01228 
L 108.775496 281.01228 
L 108.85563 280.788608 
L 108.935392 280.788608 
L 108.935392 280.676771 
L 109.328742 280.676771 
L 109.328742 280.453098 
L 109.713291 280.453098 
L 109.713291 280.341262 
L 110.237603 280.341262 
L 110.311216 280.005752 
L 110.817865 280.005752 
L 110.817865 279.670243 
L 111.855724 279.670243 
L 111.855724 279.558407 
L 114.117341 279.558407 
L 114.117341 279.44657 
L 114.922307 279.44657 
L 114.978388 279.222897 
L 115.034286 279.222897 
L 115.034286 278.551879 
L 115.365909 278.551879 
L 115.365909 278.440042 
L 115.691256 278.440042 
L 115.691256 278.328206 
L 115.904782 278.328206 
L 116.010559 277.992696 
L 116.168013 277.992696 
L 116.168013 277.88086 
L 116.324038 277.88086 
L 116.324038 277.769023 
L 116.884309 277.769023 
L 116.884309 277.433514 
L 117.523731 277.433514 
L 117.523731 277.209841 
L 117.667972 277.209841 
L 117.715785 276.986168 
L 117.811013 276.986168 
L 117.85843 276.650659 
L 118.780293 276.650659 
L 118.780293 276.538822 
L 119.397387 276.538822 
L 119.483763 275.644131 
L 119.697821 275.644131 
L 119.697821 275.308622 
L 119.867168 275.308622 
L 119.909246 274.078421 
L 120.118102 274.078421 
L 120.200938 273.742911 
L 120.32445 273.742911 
L 120.32445 273.631075 
L 120.609239 273.631075 
L 120.609239 273.519238 
L 120.729861 273.519238 
L 120.809808 272.84822 
L 120.968596 272.84822 
L 120.968596 272.624547 
L 121.086731 272.624547 
L 121.086731 272.51271 
L 121.20406 272.51271 
L 121.242993 272.065365 
L 121.551317 272.065365 
L 121.551317 271.953528 
L 121.854208 271.953528 
L 121.854208 271.618019 
L 122.516807 271.618019 
L 122.516807 271.282509 
L 122.874172 271.282509 
L 122.979949 270.835164 
L 123.499282 270.835164 
L 123.601292 269.716799 
L 123.668964 269.716799 
L 123.736371 269.04578 
L 123.803514 269.04578 
L 123.803514 268.710271 
L 123.937018 268.710271 
L 124.036471 268.039252 
L 124.069494 268.039252 
L 124.168185 267.81558 
L 124.200956 267.81558 
L 124.233665 267.144561 
L 124.780403 267.144561 
L 124.780403 267.032724 
L 125.125128 267.032724 
L 125.125128 266.809052 
L 125.310285 266.809052 
L 125.402121 266.585379 
L 125.764637 266.585379 
L 125.764637 266.026196 
L 125.972626 266.026196 
L 125.972626 265.91436 
L 126.207287 265.91436 
L 126.207287 265.802523 
L 126.381204 265.802523 
L 126.410019 265.578851 
L 126.638823 265.578851 
L 126.638823 265.131505 
L 126.780294 265.131505 
L 126.780294 264.907832 
L 126.976418 264.907832 
L 127.004254 264.460486 
L 127.142761 264.460486 
L 127.225332 264.236813 
L 127.334814 264.236813 
L 127.334814 264.124977 
L 127.872003 264.124977 
L 127.872003 263.901304 
L 128.082264 263.901304 
L 128.082264 263.789467 
L 128.341524 263.789467 
L 128.341524 263.565795 
L 128.495224 263.565795 
L 128.596932 263.342122 
L 129.194858 263.342122 
L 129.194858 263.230285 
L 129.510254 263.230285 
L 129.510254 263.006612 
L 129.748989 263.006612 
L 129.796341 262.671103 
L 130.308777 262.671103 
L 130.308777 262.559266 
L 130.514085 262.559266 
L 130.559378 262.000084 
L 130.761732 262.000084 
L 130.761732 261.664575 
L 130.917487 261.664575 
L 130.917487 261.552738 
L 131.115693 261.552738 
L 131.115693 261.329066 
L 131.246571 261.329066 
L 131.333273 261.105393 
L 131.483957 261.105393 
L 131.526768 260.658047 
L 131.654565 260.658047 
L 131.718109 260.322538 
L 131.781419 260.322538 
L 131.88642 260.098865 
L 132.135837 260.098865 
L 132.238701 259.875192 
L 132.704108 259.875192 
L 132.783777 259.651519 
L 132.902593 259.651519 
L 132.922316 259.204173 
L 133.215478 259.204173 
L 133.215478 259.092337 
L 133.503723 259.092337 
L 133.503723 258.9805 
L 133.917927 258.9805 
L 133.917927 258.756827 
L 134.340544 258.756827 
L 134.39491 258.533154 
L 134.859013 258.533154 
L 134.859013 258.421318 
L 135.934186 258.421318 
L 135.934186 258.309481 
L 136.72628 258.309481 
L 136.836515 257.973972 
L 137.178434 257.973972 
L 137.178434 257.862136 
L 137.377325 257.862136 
L 137.422898 257.638463 
L 137.573942 257.638463 
L 137.678888 257.302953 
L 137.738571 257.302953 
L 137.798047 256.967444 
L 138.638097 256.967444 
L 138.736761 256.520098 
L 138.834862 256.520098 
L 138.834862 256.408262 
L 139.839061 256.408262 
L 139.94419 255.960916 
L 140.165478 255.960916 
L 140.178407 255.625407 
L 140.800286 255.625407 
L 140.800286 255.51357 
L 141.035496 255.51357 
L 141.084606 255.178061 
L 141.194594 255.178061 
L 141.194594 254.954388 
L 141.3643 254.954388 
L 141.3643 254.730715 
L 141.875303 254.730715 
L 141.875303 254.618879 
L 142.268865 254.618879 
L 142.268865 254.507042 
L 143.376763 254.507042 
L 143.451706 254.059696 
L 143.800672 254.059696 
L 143.800672 253.94786 
L 144.255205 253.94786 
L 144.255205 253.836024 
L 144.598384 253.836024 
L 144.598384 253.724187 
L 144.717888 253.724187 
L 144.717888 253.612351 
L 144.866109 253.612351 
L 144.866109 253.500514 
L 145.226349 253.500514 
L 145.293661 253.053168 
L 145.408443 253.053168 
L 145.408443 252.829495 
L 145.522465 252.829495 
L 145.522465 252.717659 
L 145.878621 252.717659 
L 145.878621 252.605823 
L 147.233741 252.605823 
L 147.233741 252.493986 
L 147.370362 252.493986 
L 147.370362 252.38215 
L 148.053996 252.38215 
L 148.053996 252.270313 
L 148.608906 252.270313 
L 148.608906 252.158477 
L 149.276358 252.158477 
L 149.276358 252.04664 
L 149.660268 252.04664 
L 149.660268 251.934804 
L 150.013925 251.934804 
L 150.013925 251.711131 
L 150.417534 251.711131 
L 150.417534 251.599295 
L 150.790985 251.599295 
L 150.790985 251.487458 
L 151.427294 251.487458 
L 151.427294 251.263785 
L 151.910766 251.263785 
L 151.910766 251.151949 
L 152.992726 251.151949 
L 153.066156 250.704603 
L 154.125801 250.704603 
L 154.125801 250.592767 
L 154.998849 250.592767 
L 154.998849 250.369094 
L 155.578296 250.369094 
L 155.583571 250.033584 
L 156.956555 250.033584 
L 156.961424 249.809911 
L 157.303617 249.809911 
L 157.303617 249.698075 
L 158.282115 249.698075 
L 158.282115 249.586238 
L 158.421295 249.586238 
L 158.421295 249.474402 
L 158.585951 249.474402 
L 158.683112 249.250729 
L 158.858374 249.250729 
L 158.858374 249.138893 
L 159.113666 249.138893 
L 159.135128 248.91522 
L 159.57556 248.91522 
L 159.57556 248.803383 
L 160.029439 248.803383 
L 160.029439 248.691547 
L 160.384106 248.691547 
L 160.439861 248.467874 
L 160.751137 248.467874 
L 160.751137 248.356038 
L 161.152506 248.356038 
L 161.171568 247.908692 
L 161.778025 247.908692 
L 161.778025 247.685019 
L 162.069797 247.685019 
L 162.069797 247.573182 
L 162.374473 247.573182 
L 162.374473 247.461346 
L 162.494847 247.461346 
L 162.494847 247.34951 
L 163.009223 247.34951 
L 163.009223 247.125837 
L 163.75303 247.125837 
L 163.75303 247.014 
L 165.06568 247.014 
L 165.06568 246.902164 
L 165.256013 246.902164 
L 165.256013 246.678491 
L 166.163043 246.678491 
L 166.163043 246.566654 
L 166.613107 246.566654 
L 166.613107 246.342981 
L 167.618703 246.342981 
L 167.618703 246.231145 
L 171.277357 246.231145 
L 171.277357 245.895636 
L 172.24242 245.895636 
L 172.24242 245.783799 
L 173.263981 245.783799 
L 173.263981 245.671963 
L 175.667281 245.671963 
L 175.667281 245.560126 
L 175.872628 245.560126 
L 175.900147 245.336453 
L 175.990486 245.336453 
L 176.094752 245.000944 
L 176.182486 245.000944 
L 176.22063 244.665435 
L 176.314042 244.665435 
L 176.329825 244.441762 
L 176.532129 244.441762 
L 176.61301 244.106253 
L 176.710493 244.106253 
L 176.785932 243.770743 
L 176.854923 243.770743 
L 176.854923 243.658907 
L 176.981451 243.658907 
L 176.989043 243.435234 
L 177.153731 243.435234 
L 177.22426 243.211561 
L 177.410439 243.211561 
L 177.445955 242.876052 
L 177.559412 242.876052 
L 177.575559 242.540542 
L 177.747827 242.540542 
L 177.850653 241.98136 
L 177.879508 241.98136 
L 177.942818 241.534014 
L 178.278466 241.534014 
L 178.278466 241.310341 
L 178.427116 241.310341 
L 178.507912 240.751159 
L 178.660111 240.751159 
L 178.717869 240.303813 
L 178.909008 240.303813 
L 179.007836 239.968304 
L 179.502813 239.968304 
L 179.514614 239.632795 
L 179.68806 239.632795 
L 179.782521 239.409122 
L 179.832774 239.409122 
L 179.916205 239.185449 
L 180.145153 239.185449 
L 180.145153 238.961776 
L 180.269786 238.961776 
L 180.269786 238.849939 
L 180.525028 238.849939 
L 180.532441 238.626267 
L 180.643265 238.626267 
L 180.643265 238.51443 
L 180.764351 238.51443 
L 180.764351 238.402594 
L 180.88943 238.402594 
L 180.88943 238.290757 
L 181.144045 238.290757 
L 181.215427 238.067084 
L 181.367901 238.067084 
L 181.367901 237.955248 
L 181.79328 237.955248 
L 181.79328 237.843411 
L 186.082646 237.843411 
L 186.082646 237.619739 
L 187.276349 237.619739 
L 187.276349 237.507902 
L 187.414311 237.507902 
L 187.463906 236.94872 
L 187.540496 236.94872 
L 187.636368 236.501374 
L 187.710568 236.501374 
L 187.731709 236.277701 
L 187.87978 236.277701 
L 187.94652 235.830355 
L 188.075244 235.830355 
L 188.147577 235.271173 
L 188.254327 235.271173 
L 188.355716 234.935664 
L 188.411266 234.935664 
L 188.461185 234.376482 
L 188.769939 234.376482 
L 188.872904 233.705463 
L 188.954078 233.705463 
L 188.954078 233.593626 
L 189.073996 233.593626 
L 189.175908 233.369954 
L 189.323208 233.369954 
L 189.331355 233.034444 
L 189.69038 233.034444 
L 189.762016 232.810771 
L 189.913706 232.810771 
L 189.913706 232.475262 
L 190.048452 232.475262 
L 190.048452 232.363425 
L 190.312719 232.363425 
L 190.312719 232.251589 
L 190.655444 232.251589 
L 190.671203 232.027916 
L 191.432141 232.027916 
L 191.432141 231.804243 
L 194.22765 231.804243 
L 194.238228 231.468734 
L 194.341986 231.468734 
L 194.441823 231.021388 
L 194.506599 231.021388 
L 194.542176 230.797715 
L 194.688635 230.797715 
L 194.755729 230.574042 
L 194.800493 230.574042 
L 194.800493 230.462206 
L 194.938366 230.462206 
L 194.968795 230.238533 
L 195.120668 230.238533 
L 195.193473 229.679351 
L 195.278547 229.679351 
L 195.361638 229.343841 
L 195.530756 229.343841 
L 195.540561 229.008332 
L 195.646515 229.008332 
L 195.666501 228.784659 
L 195.791524 228.784659 
L 195.841787 228.337313 
L 195.945402 228.337313 
L 195.945402 228.225477 
L 196.097914 228.225477 
L 196.200498 228.001804 
L 196.230262 228.001804 
L 196.296549 227.666295 
L 196.375364 227.666295 
L 196.485102 227.442622 
L 197.031094 227.442622 
L 197.031094 227.218949 
L 199.093951 227.218949 
L 199.179332 226.54793 
L 199.215615 226.54793 
L 199.237266 226.324257 
L 199.45187 226.324257 
L 199.493324 226.100584 
L 199.606503 226.100584 
L 199.647992 225.429566 
L 199.794434 225.429566 
L 199.794434 225.317729 
L 200.084816 225.317729 
L 200.173701 225.094056 
L 200.323955 225.094056 
L 200.403841 224.870383 
L 200.479488 224.870383 
L 200.521628 224.646711 
L 200.81299 224.646711 
L 200.82172 224.423038 
L 201.417628 224.423038 
L 201.417628 224.311201 
L 201.866207 224.311201 
L 201.866207 224.199365 
L 202.868369 224.199365 
L 202.951371 223.863855 
L 203.003254 223.863855 
L 203.102896 223.640183 
L 203.154655 223.640183 
L 203.23629 223.304673 
L 203.315569 223.304673 
L 203.315569 223.192837 
L 203.491891 223.192837 
L 203.576469 222.521818 
L 203.730297 222.521818 
L 203.730297 222.409982 
L 203.853202 222.409982 
L 203.942672 222.074472 
L 204.120226 222.074472 
L 204.162143 221.850799 
L 204.281699 221.850799 
L 204.281699 221.738963 
L 204.770485 221.738963 
L 204.770485 221.627126 
L 205.254553 221.627126 
L 205.254553 221.51529 
L 206.055368 221.51529 
L 206.143851 221.291617 
L 206.198332 221.291617 
L 206.247938 220.620598 
L 206.357449 220.620598 
L 206.440837 220.285089 
L 206.486747 220.285089 
L 206.565981 219.837743 
L 206.715014 219.837743 
L 206.798834 219.502234 
L 206.874244 219.502234 
L 206.874244 219.390397 
L 207.006082 219.390397 
L 207.058166 219.166725 
L 207.574861 219.166725 
L 207.574861 219.054888 
L 208.611445 219.054888 
L 208.698289 218.495706 
L 208.766304 218.495706 
L 208.865922 218.04836 
L 208.907931 218.04836 
L 209.015453 217.712851 
L 209.07448 217.712851 
L 209.143597 217.377341 
L 209.240361 217.377341 
L 209.240361 217.265505 
L 209.376537 217.265505 
L 209.44652 217.041832 
L 209.491948 217.041832 
L 209.491948 216.929996 
L 210.932724 216.929996 
L 211.000229 216.594486 
L 211.088155 216.594486 
L 211.149644 216.370813 
L 211.234948 216.370813 
L 211.306228 216.14714 
L 211.395683 216.14714 
L 211.505476 215.699795 
L 211.6012 215.699795 
L 211.6012 215.587958 
L 212.965328 215.587958 
L 213.024198 215.364285 
L 213.097364 215.364285 
L 213.20847 215.028776 
L 213.238531 215.028776 
L 213.280306 214.805103 
L 213.444762 214.805103 
L 213.535371 214.357757 
L 213.696339 214.357757 
L 213.696339 214.245921 
L 214.715625 214.245921 
L 214.812742 214.022248 
L 214.853885 214.022248 
L 214.927028 213.798575 
L 214.978559 213.798575 
L 215.027611 213.463066 
L 215.107954 213.463066 
L 215.191871 213.01572 
L 215.291575 213.01572 
L 215.335015 212.792047 
L 215.419294 212.792047 
L 215.419294 212.568374 
L 216.352385 212.568374 
L 216.352385 212.456538 
L 216.475844 212.456538 
L 216.492015 212.232865 
L 216.597665 212.232865 
L 216.642314 211.897355 
L 216.823199 211.897355 
L 216.823199 211.785519 
L 217.838996 211.785519 
L 217.902606 211.45001 
L 218.050165 211.45001 
L 218.050165 211.338173 
L 218.574373 211.338173 
L 218.63667 211.1145 
L 219.263231 211.1145 
L 219.274648 210.890827 
L 219.568087 210.890827 
L 219.568087 210.778991 
L 219.74175 210.778991 
L 219.74175 210.667155 
L 219.887414 210.667155 
L 219.887414 210.555318 
L 220.675893 210.555318 
L 220.675893 210.443482 
L 220.869055 210.443482 
L 220.905305 210.219809 
L 221.744823 210.219809 
L 221.744823 210.107972 
L 221.936622 210.107972 
L 222.035425 209.660626 
L 222.813439 209.660626 
L 222.813439 209.54879 
L 223.053177 209.54879 
L 223.143919 209.213281 
L 223.82815 209.213281 
L 223.91807 208.989608 
L 224.159291 208.989608 
L 224.159291 208.877771 
L 224.319986 208.877771 
L 224.364604 208.654098 
L 224.917167 208.654098 
L 225.014402 208.430426 
L 225.792892 208.430426 
L 225.844031 208.206753 
L 225.949373 208.206753 
L 226.02012 207.64757 
L 226.071375 207.64757 
L 226.071375 207.535734 
L 226.592637 207.535734 
L 226.592637 207.423898 
L 226.79512 207.423898 
L 226.866397 207.088388 
L 227.564885 207.088388 
L 227.58449 206.864715 
L 227.840651 206.864715 
L 227.840651 206.641042 
L 228.389027 206.641042 
L 228.429352 206.305533 
L 229.100491 206.305533 
L 229.201826 205.970024 
L 229.935424 205.970024 
L 229.996001 205.746351 
L 230.684125 205.746351 
L 230.685661 205.522678 
L 231.257563 205.522678 
L 231.277187 205.299005 
L 231.899629 205.299005 
L 231.904046 205.075332 
L 232.443383 205.075332 
L 232.447482 204.851659 
L 233.146347 204.851659 
L 233.146347 204.739823 
L 233.692628 204.739823 
L 233.736017 204.51615 
L 234.260847 204.51615 
L 234.260847 204.404313 
L 236.676849 204.404313 
L 236.676849 204.292477 
L 238.189128 204.292477 
L 238.189128 204.180641 
L 238.640404 204.180641 
L 238.640404 204.068804 
L 239.00359 204.068804 
L 239.00359 203.956968 
L 239.414361 203.956968 
L 239.415486 203.733295 
L 241.016829 203.733295 
L 241.016829 203.621458 
L 243.102761 203.621458 
L 243.102761 203.509622 
L 244.644402 203.509622 
L 244.644402 203.397785 
L 244.926405 203.397785 
L 244.926405 203.285949 
L 254.094951 203.285949 
L 254.094951 203.174112 
L 333.168 203.174112 
L 333.168 203.174112 
" style="fill:none;stroke:#ff00ff;stroke-linecap:square;stroke-width:1.5;"/>
   </g>
   <g id="line2d_49">
    <defs>
     <path d="M -0 8.485281 
L 5.091169 0 
L 0 -8.485281 
L -5.091169 -0 
z
" id="m63b5d809a9" style="stroke:#ff00ff;stroke-linejoin:miter;stroke-width:1.5;"/>
    </defs>
    <g>
     <use style="fill-opacity:0;stroke:#ff00ff;stroke-linejoin:miter;stroke-width:1.5;" x="73.192638" xlink:href="#m63b5d809a9" y="283.696355"/>
     <use style="fill-opacity:0;stroke:#ff00ff;stroke-linejoin:miter;stroke-width:1.5;" x="143.451706" xlink:href="#m63b5d809a9" y="254.171533"/>
     <use style="fill-opacity:0;stroke:#ff00ff;stroke-linejoin:miter;stroke-width:1.5;" x="213.024198" xlink:href="#m63b5d809a9" y="215.364285"/>
     <use style="fill-opacity:0;stroke:#ff00ff;stroke-linejoin:miter;stroke-width:1.5;" x="254.094951" xlink:href="#m63b5d809a9" y="203.174112"/>
     <use style="fill-opacity:0;stroke:#ff00ff;stroke-linejoin:miter;stroke-width:1.5;" x="254.094951" xlink:href="#m63b5d809a9" y="203.174112"/>
     <use style="fill-opacity:0;stroke:#ff00ff;stroke-linejoin:miter;stroke-width:1.5;" x="333.168" xlink:href="#m63b5d809a9" y="203.174112"/>
    </g>
   </g>
   <g id="line2d_50">
    <path style="fill:none;stroke:#ff00ff;stroke-linecap:square;stroke-width:1.5;"/>
    <g/>
   </g>
   <g id="line2d_51">
    <path clip-path="url(#p52f1106b89)" d="M 175.027591 245.671963 
" style="fill:none;stroke:#ff00ff;stroke-linecap:square;stroke-width:1.5;"/>
    <defs>
     <path d="M -12 12 
L 12 -12 
M -12 -12 
L 12 12 
" id="m474baa0112" style="stroke:#ff00ff;"/>
    </defs>
    <g clip-path="url(#p52f1106b89)">
     <use style="fill:#ff00ff;stroke:#ff00ff;" x="175.027591" xlink:href="#m474baa0112" y="245.671963"/>
    </g>
   </g>
   <g id="line2d_52">
    <path d="M 333.168 203.174112 
L 363.64328 289.176341 
" style="fill:none;stroke:#ff00ff;stroke-linecap:square;stroke-width:1.5;"/>
    <g>
     <use style="fill-opacity:0;stroke:#ff00ff;stroke-linejoin:miter;stroke-width:1.5;" x="333.168" xlink:href="#m63b5d809a9" y="203.174112"/>
     <use style="fill-opacity:0;stroke:#ff00ff;stroke-linejoin:miter;stroke-width:1.5;" x="363.64328" xlink:href="#m63b5d809a9" y="289.176341"/>
    </g>
   </g>
   <g id="line2d_53">
    <path d="M 333.168 162.912991 
L 363.64328 152.288529 
" style="fill:none;stroke:#000080;stroke-linecap:square;stroke-width:1.5;"/>
    <g>
     <use style="fill-opacity:0;stroke:#000080;stroke-width:1.5;" x="333.168" xlink:href="#mcbbf097a2a" y="162.912991"/>
     <use style="fill-opacity:0;stroke:#000080;stroke-width:1.5;" x="363.64328" xlink:href="#mcbbf097a2a" y="152.288529"/>
    </g>
   </g>
   <g id="line2d_54">
    <path d="M 333.168 294.88 
L 333.168 9.697057 
" style="fill:none;stroke:#000000;stroke-linecap:square;stroke-width:1.5;"/>
   </g>
   <g id="patch_3">
    <path d="M 56.12 294.88 
L 56.12 6.845228 
" style="fill:none;stroke:#000000;stroke-linecap:square;stroke-linejoin:miter;stroke-width:0.8;"/>
   </g>
   <g id="patch_4">
    <path d="M 333.168 294.88 
L 333.168 6.845228 
" style="fill:none;stroke:#000000;stroke-linecap:square;stroke-linejoin:miter;stroke-width:0.8;"/>
   </g>
   <g id="patch_5">
    <path d="M 56.12 294.88 
L 333.168 294.88 
" style="fill:none;stroke:#000000;stroke-linecap:square;stroke-linejoin:miter;stroke-width:0.8;"/>
   </g>
   <g id="patch_6">
    <path d="M 56.12 6.845228 
L 333.168 6.845228 
" style="fill:none;stroke:#000000;stroke-linecap:square;stroke-linejoin:miter;stroke-width:0.8;"/>
   </g>
   <g id="text_13">
    <!-- PSO2 -->
    <defs>
     <path d="M 19.671875 64.796875 
L 19.671875 37.40625 
L 32.078125 37.40625 
Q 38.96875 37.40625 42.71875 40.96875 
Q 46.484375 44.53125 46.484375 51.125 
Q 46.484375 57.671875 42.71875 61.234375 
Q 38.96875 64.796875 32.078125 64.796875 
z
M 9.8125 72.90625 
L 32.078125 72.90625 
Q 44.34375 72.90625 50.609375 67.359375 
Q 56.890625 61.8125 56.890625 51.125 
Q 56.890625 40.328125 50.609375 34.8125 
Q 44.34375 29.296875 32.078125 29.296875 
L 19.671875 29.296875 
L 19.671875 0 
L 9.8125 0 
z
" id="DejaVuSans-50"/>
     <path d="M 53.515625 70.515625 
L 53.515625 60.890625 
Q 47.90625 63.578125 42.921875 64.890625 
Q 37.9375 66.21875 33.296875 66.21875 
Q 25.25 66.21875 20.875 63.09375 
Q 16.5 59.96875 16.5 54.203125 
Q 16.5 49.359375 19.40625 46.890625 
Q 22.3125 44.4375 30.421875 42.921875 
L 36.375 41.703125 
Q 47.40625 39.59375 52.65625 34.296875 
Q 57.90625 29 57.90625 20.125 
Q 57.90625 9.515625 50.796875 4.046875 
Q 43.703125 -1.421875 29.984375 -1.421875 
Q 24.8125 -1.421875 18.96875 -0.25 
Q 13.140625 0.921875 6.890625 3.21875 
L 6.890625 13.375 
Q 12.890625 10.015625 18.65625 8.296875 
Q 24.421875 6.59375 29.984375 6.59375 
Q 38.421875 6.59375 43.015625 9.90625 
Q 47.609375 13.234375 47.609375 19.390625 
Q 47.609375 24.75 44.3125 27.78125 
Q 41.015625 30.8125 33.5 32.328125 
L 27.484375 33.5 
Q 16.453125 35.6875 11.515625 40.375 
Q 6.59375 45.0625 6.59375 53.421875 
Q 6.59375 63.09375 13.40625 68.65625 
Q 20.21875 74.21875 32.171875 74.21875 
Q 37.3125 74.21875 42.625 73.28125 
Q 47.953125 72.359375 53.515625 70.515625 
z
" id="DejaVuSans-53"/>
     <path d="M 39.40625 66.21875 
Q 28.65625 66.21875 22.328125 58.203125 
Q 16.015625 50.203125 16.015625 36.375 
Q 16.015625 22.609375 22.328125 14.59375 
Q 28.65625 6.59375 39.40625 6.59375 
Q 50.140625 6.59375 56.421875 14.59375 
Q 62.703125 22.609375 62.703125 36.375 
Q 62.703125 50.203125 56.421875 58.203125 
Q 50.140625 66.21875 39.40625 66.21875 
z
M 39.40625 74.21875 
Q 54.734375 74.21875 63.90625 63.9375 
Q 73.09375 53.65625 73.09375 36.375 
Q 73.09375 19.140625 63.90625 8.859375 
Q 54.734375 -1.421875 39.40625 -1.421875 
Q 24.03125 -1.421875 14.8125 8.828125 
Q 5.609375 19.09375 5.609375 36.375 
Q 5.609375 53.65625 14.8125 63.9375 
Q 24.03125 74.21875 39.40625 74.21875 
z
" id="DejaVuSans-4f"/>
    </defs>
    <g transform="translate(369.18424 293.867279)scale(0.17 -0.17)">
     <use xlink:href="#DejaVuSans-50"/>
     <use x="60.302734" xlink:href="#DejaVuSans-53"/>
     <use x="123.779297" xlink:href="#DejaVuSans-4f"/>
     <use x="202.490234" xlink:href="#DejaVuSans-32"/>
    </g>
   </g>
   <g id="text_14">
    <!-- PSO1 -->
    <g transform="translate(369.18424 156.979466)scale(0.17 -0.17)">
     <use xlink:href="#DejaVuSans-50"/>
     <use x="60.302734" xlink:href="#DejaVuSans-53"/>
     <use x="123.779297" xlink:href="#DejaVuSans-4f"/>
     <use x="202.490234" xlink:href="#DejaVuSans-31"/>
    </g>
   </g>
   <g id="text_15">
    <!-- best 2009 -->
    <defs>
     <path d="M 48.6875 27.296875 
Q 48.6875 37.203125 44.609375 42.84375 
Q 40.53125 48.484375 33.40625 48.484375 
Q 26.265625 48.484375 22.1875 42.84375 
Q 18.109375 37.203125 18.109375 27.296875 
Q 18.109375 17.390625 22.1875 11.75 
Q 26.265625 6.109375 33.40625 6.109375 
Q 40.53125 6.109375 44.609375 11.75 
Q 48.6875 17.390625 48.6875 27.296875 
z
M 18.109375 46.390625 
Q 20.953125 51.265625 25.265625 53.625 
Q 29.59375 56 35.59375 56 
Q 45.5625 56 51.78125 48.09375 
Q 58.015625 40.1875 58.015625 27.296875 
Q 58.015625 14.40625 51.78125 6.484375 
Q 45.5625 -1.421875 35.59375 -1.421875 
Q 29.59375 -1.421875 25.265625 0.953125 
Q 20.953125 3.328125 18.109375 8.203125 
L 18.109375 0 
L 9.078125 0 
L 9.078125 75.984375 
L 18.109375 75.984375 
z
" id="DejaVuSans-62"/>
     <path d="M 10.984375 1.515625 
L 10.984375 10.5 
Q 14.703125 8.734375 18.5 7.8125 
Q 22.3125 6.890625 25.984375 6.890625 
Q 35.75 6.890625 40.890625 13.453125 
Q 46.046875 20.015625 46.78125 33.40625 
Q 43.953125 29.203125 39.59375 26.953125 
Q 35.25 24.703125 29.984375 24.703125 
Q 19.046875 24.703125 12.671875 31.3125 
Q 6.296875 37.9375 6.296875 49.421875 
Q 6.296875 60.640625 12.9375 67.421875 
Q 19.578125 74.21875 30.609375 74.21875 
Q 43.265625 74.21875 49.921875 64.515625 
Q 56.59375 54.828125 56.59375 36.375 
Q 56.59375 19.140625 48.40625 8.859375 
Q 40.234375 -1.421875 26.421875 -1.421875 
Q 22.703125 -1.421875 18.890625 -0.6875 
Q 15.09375 0.046875 10.984375 1.515625 
z
M 30.609375 32.421875 
Q 37.25 32.421875 41.125 36.953125 
Q 45.015625 41.5 45.015625 49.421875 
Q 45.015625 57.28125 41.125 61.84375 
Q 37.25 66.40625 30.609375 66.40625 
Q 23.96875 66.40625 20.09375 61.84375 
Q 16.21875 57.28125 16.21875 49.421875 
Q 16.21875 41.5 20.09375 36.953125 
Q 23.96875 32.421875 30.609375 32.421875 
z
" id="DejaVuSans-39"/>
    </defs>
    <g transform="translate(369.18424 20.091654)scale(0.17 -0.17)">
     <use xlink:href="#DejaVuSans-62"/>
     <use x="63.476562" xlink:href="#DejaVuSans-65"/>
     <use x="125" xlink:href="#DejaVuSans-73"/>
     <use x="177.099609" xlink:href="#DejaVuSans-74"/>
     <use x="216.308594" xlink:href="#DejaVuSans-20"/>
     <use x="248.095703" xlink:href="#DejaVuSans-32"/>
     <use x="311.71875" xlink:href="#DejaVuSans-30"/>
     <use x="375.341797" xlink:href="#DejaVuSans-30"/>
     <use x="438.964844" xlink:href="#DejaVuSans-39"/>
    </g>
   </g>
   <g id="text_16">
    <!-- bbob f20-f24, 10-D -->
    <defs>
     <path d="M 19.671875 64.796875 
L 19.671875 8.109375 
L 31.59375 8.109375 
Q 46.6875 8.109375 53.6875 14.9375 
Q 60.6875 21.78125 60.6875 36.53125 
Q 60.6875 51.171875 53.6875 57.984375 
Q 46.6875 64.796875 31.59375 64.796875 
z
M 9.8125 72.90625 
L 30.078125 72.90625 
Q 51.265625 72.90625 61.171875 64.09375 
Q 71.09375 55.28125 71.09375 36.53125 
Q 71.09375 17.671875 61.125 8.828125 
Q 51.171875 0 30.078125 0 
L 9.8125 0 
z
" id="DejaVuSans-44"/>
    </defs>
    <g transform="translate(58.89048 17.475982)scale(0.102 -0.102)">
     <use xlink:href="#DejaVuSans-62"/>
     <use x="63.476562" xlink:href="#DejaVuSans-62"/>
     <use x="126.953125" xlink:href="#DejaVuSans-6f"/>
     <use x="188.134766" xlink:href="#DejaVuSans-62"/>
     <use x="251.611328" xlink:href="#DejaVuSans-20"/>
     <use x="283.398438" xlink:href="#DejaVuSans-66"/>
     <use x="318.603516" xlink:href="#DejaVuSans-32"/>
     <use x="382.226562" xlink:href="#DejaVuSans-30"/>
     <use x="445.849609" xlink:href="#DejaVuSans-2d"/>
     <use x="481.933594" xlink:href="#DejaVuSans-66"/>
     <use x="517.138672" xlink:href="#DejaVuSans-32"/>
     <use x="580.761719" xlink:href="#DejaVuSans-34"/>
     <use x="644.384766" xlink:href="#DejaVuSans-2c"/>
     <use x="676.171875" xlink:href="#DejaVuSans-20"/>
     <use x="707.958984" xlink:href="#DejaVuSans-31"/>
     <use x="771.582031" xlink:href="#DejaVuSans-30"/>
     <use x="835.205078" xlink:href="#DejaVuSans-2d"/>
     <use x="871.289062" xlink:href="#DejaVuSans-44"/>
    </g>
    <!-- 51 targets: 100..1e-08 -->
    <defs>
     <path d="M 10.796875 72.90625 
L 49.515625 72.90625 
L 49.515625 64.59375 
L 19.828125 64.59375 
L 19.828125 46.734375 
Q 21.96875 47.46875 24.109375 47.828125 
Q 26.265625 48.1875 28.421875 48.1875 
Q 40.625 48.1875 47.75 41.5 
Q 54.890625 34.8125 54.890625 23.390625 
Q 54.890625 11.625 47.5625 5.09375 
Q 40.234375 -1.421875 26.90625 -1.421875 
Q 22.3125 -1.421875 17.546875 -0.640625 
Q 12.796875 0.140625 7.71875 1.703125 
L 7.71875 11.625 
Q 12.109375 9.234375 16.796875 8.0625 
Q 21.484375 6.890625 26.703125 6.890625 
Q 35.15625 6.890625 40.078125 11.328125 
Q 45.015625 15.765625 45.015625 23.390625 
Q 45.015625 31 40.078125 35.4375 
Q 35.15625 39.890625 26.703125 39.890625 
Q 22.75 39.890625 18.8125 39.015625 
Q 14.890625 38.140625 10.796875 36.28125 
z
" id="DejaVuSans-35"/>
     <path d="M 11.71875 12.40625 
L 22.015625 12.40625 
L 22.015625 0 
L 11.71875 0 
z
M 11.71875 51.703125 
L 22.015625 51.703125 
L 22.015625 39.3125 
L 11.71875 39.3125 
z
" id="DejaVuSans-3a"/>
    </defs>
    <g transform="translate(58.89048 28.89775)scale(0.102 -0.102)">
     <use xlink:href="#DejaVuSans-35"/>
     <use x="63.623047" xlink:href="#DejaVuSans-31"/>
     <use x="127.246094" xlink:href="#DejaVuSans-20"/>
     <use x="159.033203" xlink:href="#DejaVuSans-74"/>
     <use x="198.242188" xlink:href="#DejaVuSans-61"/>
     <use x="259.521484" xlink:href="#DejaVuSans-72"/>
     <use x="300.619141" xlink:href="#DejaVuSans-67"/>
     <use x="364.095703" xlink:href="#DejaVuSans-65"/>
     <use x="425.619141" xlink:href="#DejaVuSans-74"/>
     <use x="464.828125" xlink:href="#DejaVuSans-73"/>
     <use x="516.927734" xlink:href="#DejaVuSans-3a"/>
     <use x="550.619141" xlink:href="#DejaVuSans-20"/>
     <use x="582.40625" xlink:href="#DejaVuSans-31"/>
     <use x="646.029297" xlink:href="#DejaVuSans-30"/>
     <use x="709.652344" xlink:href="#DejaVuSans-30"/>
     <use x="773.275391" xlink:href="#DejaVuSans-2e"/>
     <use x="805.0625" xlink:href="#DejaVuSans-2e"/>
     <use x="836.849609" xlink:href="#DejaVuSans-31"/>
     <use x="900.472656" xlink:href="#DejaVuSans-65"/>
     <use x="961.996094" xlink:href="#DejaVuSans-2d"/>
     <use x="998.080078" xlink:href="#DejaVuSans-30"/>
     <use x="1061.703125" xlink:href="#DejaVuSans-38"/>
    </g>
    <!-- 15 instances -->
    <g transform="translate(58.89048 40.319519)scale(0.102 -0.102)">
     <use xlink:href="#DejaVuSans-31"/>
     <use x="63.623047" xlink:href="#DejaVuSans-35"/>
     <use x="127.246094" xlink:href="#DejaVuSans-20"/>
     <use x="159.033203" xlink:href="#DejaVuSans-69"/>
     <use x="186.816406" xlink:href="#DejaVuSans-6e"/>
     <use x="250.195312" xlink:href="#DejaVuSans-73"/>
     <use x="302.294922" xlink:href="#DejaVuSans-74"/>
     <use x="341.503906" xlink:href="#DejaVuSans-61"/>
     <use x="402.783203" xlink:href="#DejaVuSans-6e"/>
     <use x="466.162109" xlink:href="#DejaVuSans-63"/>
     <use x="521.142578" xlink:href="#DejaVuSans-65"/>
     <use x="582.666016" xlink:href="#DejaVuSans-73"/>
    </g>
   </g>
   <g id="text_17">
    <!-- v0.0.0 -->
    <g style="fill:#808080;" transform="translate(178.96275 289.919965)scale(0.1 -0.1)">
     <use xlink:href="#DejaVuSans-76"/>
     <use x="59.179688" xlink:href="#DejaVuSans-30"/>
     <use x="122.802734" xlink:href="#DejaVuSans-2e"/>
     <use x="154.589844" xlink:href="#DejaVuSans-30"/>
     <use x="218.212891" xlink:href="#DejaVuSans-2e"/>
     <use x="250" xlink:href="#DejaVuSans-30"/>
    </g>
   </g>
  </g>
 </g>
 <defs>
  <clipPath id="p52f1106b89">
   <rect height="288.034772" width="277.048" x="56.12" y="6.845228"/>
  </clipPath>
 </defs>
</svg>
