<?xml version="1.0" encoding="utf-8" standalone="no"?>
<!DOCTYPE svg PUBLIC "-//W3C//DTD SVG 1.1//EN"
  "http://www.w3.org/Graphics/SVG/1.1/DTD/svg11.dtd">
<!-- Created with matplotlib (http://matplotlib.org/) -->
<svg height="345.6pt" version="1.1" viewBox="0 0 460.8 345.6" width="460.8pt" xmlns="http://www.w3.org/2000/svg" xmlns:xlink="http://www.w3.org/1999/xlink">
 <defs>
  <style type="text/css">
*{stroke-linecap:butt;stroke-linejoin:round;}
  </style>
 </defs>
 <g id="figure_1">
  <g id="patch_1">
   <path d="M 0 345.6 
L 460.8 345.6 
L 460.8 0 
L 0 0 
z
" style="fill:#ffffff;"/>
  </g>
  <g id="axes_1">
   <g id="patch_2">
    <path d="M 56.12 294.88 
L 333.168 294.88 
L 333.168 24.84 
L 56.12 24.84 
z
" style="fill:#ffffff;"/>
   </g>
   <g id="line2d_1">
    <path d="M 16.541714 294.88 
L 16.541714 289.637523 
L 35.425356 289.637523 
L 35.425356 284.395046 
L 52.284468 284.395046 
L 52.284468 279.152568 
L 64.198719 279.152568 
L 64.198719 273.910091 
L 69.672503 273.910091 
L 69.672503 247.697705 
L 70.436568 247.697705 
L 70.436568 27.513663 
L 333.168 27.513663 
" style="fill:none;stroke:#f5deb3;stroke-linecap:square;stroke-width:4;"/>
   </g>
   <g id="line2d_2">
    <defs>
     <path d="M -0 7.778175 
L 7.778175 0 
L 0 -7.778175 
L -7.778175 -0 
z
" id="mda7abfa825" style="stroke:#f5deb3;stroke-linejoin:miter;stroke-width:1.5;"/>
    </defs>
    <g>
     <use style="fill:#f5deb3;stroke:#f5deb3;stroke-linejoin:miter;stroke-width:1.5;" x="69.672503" xlink:href="#mda7abfa825" y="247.697705"/>
     <use style="fill:#f5deb3;stroke:#f5deb3;stroke-linejoin:miter;stroke-width:1.5;" x="70.436568" xlink:href="#mda7abfa825" y="247.697705"/>
     <use style="fill:#f5deb3;stroke:#f5deb3;stroke-linejoin:miter;stroke-width:1.5;" x="70.436568" xlink:href="#mda7abfa825" y="247.697705"/>
     <use style="fill:#f5deb3;stroke:#f5deb3;stroke-linejoin:miter;stroke-width:1.5;" x="70.436568" xlink:href="#mda7abfa825" y="27.513663"/>
     <use style="fill:#f5deb3;stroke:#f5deb3;stroke-linejoin:miter;stroke-width:1.5;" x="70.436568" xlink:href="#mda7abfa825" y="27.513663"/>
     <use style="fill:#f5deb3;stroke:#f5deb3;stroke-linejoin:miter;stroke-width:1.5;" x="333.168" xlink:href="#mda7abfa825" y="27.513663"/>
    </g>
   </g>
   <g id="line2d_3">
    <path style="fill:none;stroke:#f5deb3;stroke-linecap:square;stroke-width:4;"/>
    <g/>
   </g>
   <g id="line2d_4">
    <path d="M 333.168 27.513663 
L 363.64328 32.86099 
" style="fill:none;stroke:#f5deb3;stroke-linecap:square;stroke-width:4;"/>
    <g>
     <use style="fill:#f5deb3;stroke:#f5deb3;stroke-linejoin:miter;stroke-width:1.5;" x="333.168" xlink:href="#mda7abfa825" y="27.513663"/>
     <use style="fill:#f5deb3;stroke:#f5deb3;stroke-linejoin:miter;stroke-width:1.5;" x="363.64328" xlink:href="#mda7abfa825" y="32.86099"/>
    </g>
   </g>
   <g id="matplotlib.axis_1">
    <g id="xtick_1">
     <g id="line2d_5">
      <path clip-path="url(#pca923606a2)" d="M 56.12 294.88 
L 56.12 24.84 
" style="fill:none;stroke:#b0b0b0;stroke-linecap:square;stroke-width:0.8;"/>
     </g>
     <g id="line2d_6">
      <defs>
       <path d="M 0 0 
L 0 3.5 
" id="m25cf08f63b" style="stroke:#000000;stroke-width:0.8;"/>
      </defs>
      <g>
       <use style="stroke:#000000;stroke-width:0.8;" x="56.12" xlink:href="#m25cf08f63b" y="294.88"/>
      </g>
     </g>
     <g id="text_1">
      <!-- 0 -->
      <defs>
       <path d="M 31.78125 66.40625 
Q 24.171875 66.40625 20.328125 58.90625 
Q 16.5 51.421875 16.5 36.375 
Q 16.5 21.390625 20.328125 13.890625 
Q 24.171875 6.390625 31.78125 6.390625 
Q 39.453125 6.390625 43.28125 13.890625 
Q 47.125 21.390625 47.125 36.375 
Q 47.125 51.421875 43.28125 58.90625 
Q 39.453125 66.40625 31.78125 66.40625 
z
M 31.78125 74.21875 
Q 44.046875 74.21875 50.515625 64.515625 
Q 56.984375 54.828125 56.984375 36.375 
Q 56.984375 17.96875 50.515625 8.265625 
Q 44.046875 -1.421875 31.78125 -1.421875 
Q 19.53125 -1.421875 13.0625 8.265625 
Q 6.59375 17.96875 6.59375 36.375 
Q 6.59375 54.828125 13.0625 64.515625 
Q 19.53125 74.21875 31.78125 74.21875 
z
" id="DejaVuSans-30"/>
      </defs>
      <g transform="translate(49.7575 317.076875)scale(0.2 -0.2)">
       <use xlink:href="#DejaVuSans-30"/>
      </g>
     </g>
    </g>
    <g id="xtick_2">
     <g id="line2d_7">
      <path clip-path="url(#pca923606a2)" d="M 135.276571 294.88 
L 135.276571 24.84 
" style="fill:none;stroke:#b0b0b0;stroke-linecap:square;stroke-width:0.8;"/>
     </g>
     <g id="line2d_8">
      <g>
       <use style="stroke:#000000;stroke-width:0.8;" x="135.276571" xlink:href="#m25cf08f63b" y="294.88"/>
      </g>
     </g>
     <g id="text_2">
      <!-- 2 -->
      <defs>
       <path d="M 19.1875 8.296875 
L 53.609375 8.296875 
L 53.609375 0 
L 7.328125 0 
L 7.328125 8.296875 
Q 12.9375 14.109375 22.625 23.890625 
Q 32.328125 33.6875 34.8125 36.53125 
Q 39.546875 41.84375 41.421875 45.53125 
Q 43.3125 49.21875 43.3125 52.78125 
Q 43.3125 58.59375 39.234375 62.25 
Q 35.15625 65.921875 28.609375 65.921875 
Q 23.96875 65.921875 18.8125 64.3125 
Q 13.671875 62.703125 7.8125 59.421875 
L 7.8125 69.390625 
Q 13.765625 71.78125 18.9375 73 
Q 24.125 74.21875 28.421875 74.21875 
Q 39.75 74.21875 46.484375 68.546875 
Q 53.21875 62.890625 53.21875 53.421875 
Q 53.21875 48.921875 51.53125 44.890625 
Q 49.859375 40.875 45.40625 35.40625 
Q 44.1875 33.984375 37.640625 27.21875 
Q 31.109375 20.453125 19.1875 8.296875 
z
" id="DejaVuSans-32"/>
      </defs>
      <g transform="translate(128.914071 317.076875)scale(0.2 -0.2)">
       <use xlink:href="#DejaVuSans-32"/>
      </g>
     </g>
    </g>
    <g id="xtick_3">
     <g id="line2d_9">
      <path clip-path="url(#pca923606a2)" d="M 214.433143 294.88 
L 214.433143 24.84 
" style="fill:none;stroke:#b0b0b0;stroke-linecap:square;stroke-width:0.8;"/>
     </g>
     <g id="line2d_10">
      <g>
       <use style="stroke:#000000;stroke-width:0.8;" x="214.433143" xlink:href="#m25cf08f63b" y="294.88"/>
      </g>
     </g>
     <g id="text_3">
      <!-- 4 -->
      <defs>
       <path d="M 37.796875 64.3125 
L 12.890625 25.390625 
L 37.796875 25.390625 
z
M 35.203125 72.90625 
L 47.609375 72.90625 
L 47.609375 25.390625 
L 58.015625 25.390625 
L 58.015625 17.1875 
L 47.609375 17.1875 
L 47.609375 0 
L 37.796875 0 
L 37.796875 17.1875 
L 4.890625 17.1875 
L 4.890625 26.703125 
z
" id="DejaVuSans-34"/>
      </defs>
      <g transform="translate(208.070643 317.076875)scale(0.2 -0.2)">
       <use xlink:href="#DejaVuSans-34"/>
      </g>
     </g>
    </g>
    <g id="xtick_4">
     <g id="line2d_11">
      <path clip-path="url(#pca923606a2)" d="M 293.589714 294.88 
L 293.589714 24.84 
" style="fill:none;stroke:#b0b0b0;stroke-linecap:square;stroke-width:0.8;"/>
     </g>
     <g id="line2d_12">
      <g>
       <use style="stroke:#000000;stroke-width:0.8;" x="293.589714" xlink:href="#m25cf08f63b" y="294.88"/>
      </g>
     </g>
     <g id="text_4">
      <!-- 6 -->
      <defs>
       <path d="M 33.015625 40.375 
Q 26.375 40.375 22.484375 35.828125 
Q 18.609375 31.296875 18.609375 23.390625 
Q 18.609375 15.53125 22.484375 10.953125 
Q 26.375 6.390625 33.015625 6.390625 
Q 39.65625 6.390625 43.53125 10.953125 
Q 47.40625 15.53125 47.40625 23.390625 
Q 47.40625 31.296875 43.53125 35.828125 
Q 39.65625 40.375 33.015625 40.375 
z
M 52.59375 71.296875 
L 52.59375 62.3125 
Q 48.875 64.0625 45.09375 64.984375 
Q 41.3125 65.921875 37.59375 65.921875 
Q 27.828125 65.921875 22.671875 59.328125 
Q 17.53125 52.734375 16.796875 39.40625 
Q 19.671875 43.65625 24.015625 45.921875 
Q 28.375 48.1875 33.59375 48.1875 
Q 44.578125 48.1875 50.953125 41.515625 
Q 57.328125 34.859375 57.328125 23.390625 
Q 57.328125 12.15625 50.6875 5.359375 
Q 44.046875 -1.421875 33.015625 -1.421875 
Q 20.359375 -1.421875 13.671875 8.265625 
Q 6.984375 17.96875 6.984375 36.375 
Q 6.984375 53.65625 15.1875 63.9375 
Q 23.390625 74.21875 37.203125 74.21875 
Q 40.921875 74.21875 44.703125 73.484375 
Q 48.484375 72.75 52.59375 71.296875 
z
" id="DejaVuSans-36"/>
      </defs>
      <g transform="translate(287.227214 317.076875)scale(0.2 -0.2)">
       <use xlink:href="#DejaVuSans-36"/>
      </g>
     </g>
    </g>
    <g id="xtick_5">
     <g id="line2d_13">
      <path clip-path="url(#pca923606a2)" d="M 56.12 294.88 
L 56.12 24.84 
" style="fill:none;stroke:#b0b0b0;stroke-linecap:square;stroke-width:0.8;"/>
     </g>
     <g id="line2d_14">
      <defs>
       <path d="M 0 0 
L 0 2 
" id="m8816c85557" style="stroke:#000000;stroke-width:0.6;"/>
      </defs>
      <g>
       <use style="stroke:#000000;stroke-width:0.6;" x="56.12" xlink:href="#m8816c85557" y="294.88"/>
      </g>
     </g>
    </g>
    <g id="xtick_6">
     <g id="line2d_15">
      <path clip-path="url(#pca923606a2)" d="M 95.698286 294.88 
L 95.698286 24.84 
" style="fill:none;stroke:#b0b0b0;stroke-linecap:square;stroke-width:0.8;"/>
     </g>
     <g id="line2d_16">
      <g>
       <use style="stroke:#000000;stroke-width:0.6;" x="95.698286" xlink:href="#m8816c85557" y="294.88"/>
      </g>
     </g>
    </g>
    <g id="xtick_7">
     <g id="line2d_17">
      <path clip-path="url(#pca923606a2)" d="M 135.276571 294.88 
L 135.276571 24.84 
" style="fill:none;stroke:#b0b0b0;stroke-linecap:square;stroke-width:0.8;"/>
     </g>
     <g id="line2d_18">
      <g>
       <use style="stroke:#000000;stroke-width:0.6;" x="135.276571" xlink:href="#m8816c85557" y="294.88"/>
      </g>
     </g>
    </g>
    <g id="xtick_8">
     <g id="line2d_19">
      <path clip-path="url(#pca923606a2)" d="M 174.854857 294.88 
L 174.854857 24.84 
" style="fill:none;stroke:#b0b0b0;stroke-linecap:square;stroke-width:0.8;"/>
     </g>
     <g id="line2d_20">
      <g>
       <use style="stroke:#000000;stroke-width:0.6;" x="174.854857" xlink:href="#m8816c85557" y="294.88"/>
      </g>
     </g>
    </g>
    <g id="xtick_9">
     <g id="line2d_21">
      <path clip-path="url(#pca923606a2)" d="M 214.433143 294.88 
L 214.433143 24.84 
" style="fill:none;stroke:#b0b0b0;stroke-linecap:square;stroke-width:0.8;"/>
     </g>
     <g id="line2d_22">
      <g>
       <use style="stroke:#000000;stroke-width:0.6;" x="214.433143" xlink:href="#m8816c85557" y="294.88"/>
      </g>
     </g>
    </g>
    <g id="xtick_10">
     <g id="line2d_23">
      <path clip-path="url(#pca923606a2)" d="M 254.011429 294.88 
L 254.011429 24.84 
" style="fill:none;stroke:#b0b0b0;stroke-linecap:square;stroke-width:0.8;"/>
     </g>
     <g id="line2d_24">
      <g>
       <use style="stroke:#000000;stroke-width:0.6;" x="254.011429" xlink:href="#m8816c85557" y="294.88"/>
      </g>
     </g>
    </g>
    <g id="xtick_11">
     <g id="line2d_25">
      <path clip-path="url(#pca923606a2)" d="M 293.589714 294.88 
L 293.589714 24.84 
" style="fill:none;stroke:#b0b0b0;stroke-linecap:square;stroke-width:0.8;"/>
     </g>
     <g id="line2d_26">
      <g>
       <use style="stroke:#000000;stroke-width:0.6;" x="293.589714" xlink:href="#m8816c85557" y="294.88"/>
      </g>
     </g>
    </g>
    <g id="xtick_12">
     <g id="line2d_27">
      <path clip-path="url(#pca923606a2)" d="M 333.168 294.88 
L 333.168 24.84 
" style="fill:none;stroke:#b0b0b0;stroke-linecap:square;stroke-width:0.8;"/>
     </g>
     <g id="line2d_28">
      <g>
       <use style="stroke:#000000;stroke-width:0.6;" x="333.168" xlink:href="#m8816c85557" y="294.88"/>
      </g>
     </g>
    </g>
    <g id="text_5">
     <!-- log10(# f-evals / dimension) -->
     <defs>
      <path d="M 9.421875 75.984375 
L 18.40625 75.984375 
L 18.40625 0 
L 9.421875 0 
z
" id="DejaVuSans-6c"/>
      <path d="M 30.609375 48.390625 
Q 23.390625 48.390625 19.1875 42.75 
Q 14.984375 37.109375 14.984375 27.296875 
Q 14.984375 17.484375 19.15625 11.84375 
Q 23.34375 6.203125 30.609375 6.203125 
Q 37.796875 6.203125 41.984375 11.859375 
Q 46.1875 17.53125 46.1875 27.296875 
Q 46.1875 37.015625 41.984375 42.703125 
Q 37.796875 48.390625 30.609375 48.390625 
z
M 30.609375 56 
Q 42.328125 56 49.015625 48.375 
Q 55.71875 40.765625 55.71875 27.296875 
Q 55.71875 13.875 49.015625 6.21875 
Q 42.328125 -1.421875 30.609375 -1.421875 
Q 18.84375 -1.421875 12.171875 6.21875 
Q 5.515625 13.875 5.515625 27.296875 
Q 5.515625 40.765625 12.171875 48.375 
Q 18.84375 56 30.609375 56 
z
" id="DejaVuSans-6f"/>
      <path d="M 45.40625 27.984375 
Q 45.40625 37.75 41.375 43.109375 
Q 37.359375 48.484375 30.078125 48.484375 
Q 22.859375 48.484375 18.828125 43.109375 
Q 14.796875 37.75 14.796875 27.984375 
Q 14.796875 18.265625 18.828125 12.890625 
Q 22.859375 7.515625 30.078125 7.515625 
Q 37.359375 7.515625 41.375 12.890625 
Q 45.40625 18.265625 45.40625 27.984375 
z
M 54.390625 6.78125 
Q 54.390625 -7.171875 48.1875 -13.984375 
Q 42 -20.796875 29.203125 -20.796875 
Q 24.46875 -20.796875 20.265625 -20.09375 
Q 16.0625 -19.390625 12.109375 -17.921875 
L 12.109375 -9.1875 
Q 16.0625 -11.328125 19.921875 -12.34375 
Q 23.78125 -13.375 27.78125 -13.375 
Q 36.625 -13.375 41.015625 -8.765625 
Q 45.40625 -4.15625 45.40625 5.171875 
L 45.40625 9.625 
Q 42.625 4.78125 38.28125 2.390625 
Q 33.9375 0 27.875 0 
Q 17.828125 0 11.671875 7.65625 
Q 5.515625 15.328125 5.515625 27.984375 
Q 5.515625 40.671875 11.671875 48.328125 
Q 17.828125 56 27.875 56 
Q 33.9375 56 38.28125 53.609375 
Q 42.625 51.21875 45.40625 46.390625 
L 45.40625 54.6875 
L 54.390625 54.6875 
z
" id="DejaVuSans-67"/>
      <path d="M 12.40625 8.296875 
L 28.515625 8.296875 
L 28.515625 63.921875 
L 10.984375 60.40625 
L 10.984375 69.390625 
L 28.421875 72.90625 
L 38.28125 72.90625 
L 38.28125 8.296875 
L 54.390625 8.296875 
L 54.390625 0 
L 12.40625 0 
z
" id="DejaVuSans-31"/>
      <path d="M 31 75.875 
Q 24.46875 64.65625 21.28125 53.65625 
Q 18.109375 42.671875 18.109375 31.390625 
Q 18.109375 20.125 21.3125 9.0625 
Q 24.515625 -2 31 -13.1875 
L 23.1875 -13.1875 
Q 15.875 -1.703125 12.234375 9.375 
Q 8.59375 20.453125 8.59375 31.390625 
Q 8.59375 42.28125 12.203125 53.3125 
Q 15.828125 64.359375 23.1875 75.875 
z
" id="DejaVuSans-28"/>
      <path d="M 51.125 44 
L 36.921875 44 
L 32.8125 27.6875 
L 47.125 27.6875 
z
M 43.796875 71.78125 
L 38.71875 51.515625 
L 52.984375 51.515625 
L 58.109375 71.78125 
L 65.921875 71.78125 
L 60.890625 51.515625 
L 76.125 51.515625 
L 76.125 44 
L 58.984375 44 
L 54.984375 27.6875 
L 70.515625 27.6875 
L 70.515625 20.21875 
L 53.078125 20.21875 
L 48 0 
L 40.1875 0 
L 45.21875 20.21875 
L 30.90625 20.21875 
L 25.875 0 
L 18.015625 0 
L 23.09375 20.21875 
L 7.71875 20.21875 
L 7.71875 27.6875 
L 24.90625 27.6875 
L 29 44 
L 13.28125 44 
L 13.28125 51.515625 
L 30.90625 51.515625 
L 35.890625 71.78125 
z
" id="DejaVuSans-23"/>
      <path id="DejaVuSans-20"/>
      <path d="M 37.109375 75.984375 
L 37.109375 68.5 
L 28.515625 68.5 
Q 23.6875 68.5 21.796875 66.546875 
Q 19.921875 64.59375 19.921875 59.515625 
L 19.921875 54.6875 
L 34.71875 54.6875 
L 34.71875 47.703125 
L 19.921875 47.703125 
L 19.921875 0 
L 10.890625 0 
L 10.890625 47.703125 
L 2.296875 47.703125 
L 2.296875 54.6875 
L 10.890625 54.6875 
L 10.890625 58.5 
Q 10.890625 67.625 15.140625 71.796875 
Q 19.390625 75.984375 28.609375 75.984375 
z
" id="DejaVuSans-66"/>
      <path d="M 4.890625 31.390625 
L 31.203125 31.390625 
L 31.203125 23.390625 
L 4.890625 23.390625 
z
" id="DejaVuSans-2d"/>
      <path d="M 56.203125 29.59375 
L 56.203125 25.203125 
L 14.890625 25.203125 
Q 15.484375 15.921875 20.484375 11.0625 
Q 25.484375 6.203125 34.421875 6.203125 
Q 39.59375 6.203125 44.453125 7.46875 
Q 49.3125 8.734375 54.109375 11.28125 
L 54.109375 2.78125 
Q 49.265625 0.734375 44.1875 -0.34375 
Q 39.109375 -1.421875 33.890625 -1.421875 
Q 20.796875 -1.421875 13.15625 6.1875 
Q 5.515625 13.8125 5.515625 26.8125 
Q 5.515625 40.234375 12.765625 48.109375 
Q 20.015625 56 32.328125 56 
Q 43.359375 56 49.78125 48.890625 
Q 56.203125 41.796875 56.203125 29.59375 
z
M 47.21875 32.234375 
Q 47.125 39.59375 43.09375 43.984375 
Q 39.0625 48.390625 32.421875 48.390625 
Q 24.90625 48.390625 20.390625 44.140625 
Q 15.875 39.890625 15.1875 32.171875 
z
" id="DejaVuSans-65"/>
      <path d="M 2.984375 54.6875 
L 12.5 54.6875 
L 29.59375 8.796875 
L 46.6875 54.6875 
L 56.203125 54.6875 
L 35.6875 0 
L 23.484375 0 
z
" id="DejaVuSans-76"/>
      <path d="M 34.28125 27.484375 
Q 23.390625 27.484375 19.1875 25 
Q 14.984375 22.515625 14.984375 16.5 
Q 14.984375 11.71875 18.140625 8.90625 
Q 21.296875 6.109375 26.703125 6.109375 
Q 34.1875 6.109375 38.703125 11.40625 
Q 43.21875 16.703125 43.21875 25.484375 
L 43.21875 27.484375 
z
M 52.203125 31.203125 
L 52.203125 0 
L 43.21875 0 
L 43.21875 8.296875 
Q 40.140625 3.328125 35.546875 0.953125 
Q 30.953125 -1.421875 24.3125 -1.421875 
Q 15.921875 -1.421875 10.953125 3.296875 
Q 6 8.015625 6 15.921875 
Q 6 25.140625 12.171875 29.828125 
Q 18.359375 34.515625 30.609375 34.515625 
L 43.21875 34.515625 
L 43.21875 35.40625 
Q 43.21875 41.609375 39.140625 45 
Q 35.0625 48.390625 27.6875 48.390625 
Q 23 48.390625 18.546875 47.265625 
Q 14.109375 46.140625 10.015625 43.890625 
L 10.015625 52.203125 
Q 14.9375 54.109375 19.578125 55.046875 
Q 24.21875 56 28.609375 56 
Q 40.484375 56 46.34375 49.84375 
Q 52.203125 43.703125 52.203125 31.203125 
z
" id="DejaVuSans-61"/>
      <path d="M 44.28125 53.078125 
L 44.28125 44.578125 
Q 40.484375 46.53125 36.375 47.5 
Q 32.28125 48.484375 27.875 48.484375 
Q 21.1875 48.484375 17.84375 46.4375 
Q 14.5 44.390625 14.5 40.28125 
Q 14.5 37.15625 16.890625 35.375 
Q 19.28125 33.59375 26.515625 31.984375 
L 29.59375 31.296875 
Q 39.15625 29.25 43.1875 25.515625 
Q 47.21875 21.78125 47.21875 15.09375 
Q 47.21875 7.46875 41.1875 3.015625 
Q 35.15625 -1.421875 24.609375 -1.421875 
Q 20.21875 -1.421875 15.453125 -0.5625 
Q 10.6875 0.296875 5.421875 2 
L 5.421875 11.28125 
Q 10.40625 8.6875 15.234375 7.390625 
Q 20.0625 6.109375 24.8125 6.109375 
Q 31.15625 6.109375 34.5625 8.28125 
Q 37.984375 10.453125 37.984375 14.40625 
Q 37.984375 18.0625 35.515625 20.015625 
Q 33.0625 21.96875 24.703125 23.78125 
L 21.578125 24.515625 
Q 13.234375 26.265625 9.515625 29.90625 
Q 5.8125 33.546875 5.8125 39.890625 
Q 5.8125 47.609375 11.28125 51.796875 
Q 16.75 56 26.8125 56 
Q 31.78125 56 36.171875 55.265625 
Q 40.578125 54.546875 44.28125 53.078125 
z
" id="DejaVuSans-73"/>
      <path d="M 25.390625 72.90625 
L 33.6875 72.90625 
L 8.296875 -9.28125 
L 0 -9.28125 
z
" id="DejaVuSans-2f"/>
      <path d="M 45.40625 46.390625 
L 45.40625 75.984375 
L 54.390625 75.984375 
L 54.390625 0 
L 45.40625 0 
L 45.40625 8.203125 
Q 42.578125 3.328125 38.25 0.953125 
Q 33.9375 -1.421875 27.875 -1.421875 
Q 17.96875 -1.421875 11.734375 6.484375 
Q 5.515625 14.40625 5.515625 27.296875 
Q 5.515625 40.1875 11.734375 48.09375 
Q 17.96875 56 27.875 56 
Q 33.9375 56 38.25 53.625 
Q 42.578125 51.265625 45.40625 46.390625 
z
M 14.796875 27.296875 
Q 14.796875 17.390625 18.875 11.75 
Q 22.953125 6.109375 30.078125 6.109375 
Q 37.203125 6.109375 41.296875 11.75 
Q 45.40625 17.390625 45.40625 27.296875 
Q 45.40625 37.203125 41.296875 42.84375 
Q 37.203125 48.484375 30.078125 48.484375 
Q 22.953125 48.484375 18.875 42.84375 
Q 14.796875 37.203125 14.796875 27.296875 
z
" id="DejaVuSans-64"/>
      <path d="M 9.421875 54.6875 
L 18.40625 54.6875 
L 18.40625 0 
L 9.421875 0 
z
M 9.421875 75.984375 
L 18.40625 75.984375 
L 18.40625 64.59375 
L 9.421875 64.59375 
z
" id="DejaVuSans-69"/>
      <path d="M 52 44.1875 
Q 55.375 50.25 60.0625 53.125 
Q 64.75 56 71.09375 56 
Q 79.640625 56 84.28125 50.015625 
Q 88.921875 44.046875 88.921875 33.015625 
L 88.921875 0 
L 79.890625 0 
L 79.890625 32.71875 
Q 79.890625 40.578125 77.09375 44.375 
Q 74.3125 48.1875 68.609375 48.1875 
Q 61.625 48.1875 57.5625 43.546875 
Q 53.515625 38.921875 53.515625 30.90625 
L 53.515625 0 
L 44.484375 0 
L 44.484375 32.71875 
Q 44.484375 40.625 41.703125 44.40625 
Q 38.921875 48.1875 33.109375 48.1875 
Q 26.21875 48.1875 22.15625 43.53125 
Q 18.109375 38.875 18.109375 30.90625 
L 18.109375 0 
L 9.078125 0 
L 9.078125 54.6875 
L 18.109375 54.6875 
L 18.109375 46.1875 
Q 21.1875 51.21875 25.484375 53.609375 
Q 29.78125 56 35.6875 56 
Q 41.65625 56 45.828125 52.96875 
Q 50 49.953125 52 44.1875 
z
" id="DejaVuSans-6d"/>
      <path d="M 54.890625 33.015625 
L 54.890625 0 
L 45.90625 0 
L 45.90625 32.71875 
Q 45.90625 40.484375 42.875 44.328125 
Q 39.84375 48.1875 33.796875 48.1875 
Q 26.515625 48.1875 22.3125 43.546875 
Q 18.109375 38.921875 18.109375 30.90625 
L 18.109375 0 
L 9.078125 0 
L 9.078125 54.6875 
L 18.109375 54.6875 
L 18.109375 46.1875 
Q 21.34375 51.125 25.703125 53.5625 
Q 30.078125 56 35.796875 56 
Q 45.21875 56 50.046875 50.171875 
Q 54.890625 44.34375 54.890625 33.015625 
z
" id="DejaVuSans-6e"/>
      <path d="M 8.015625 75.875 
L 15.828125 75.875 
Q 23.140625 64.359375 26.78125 53.3125 
Q 30.421875 42.28125 30.421875 31.390625 
Q 30.421875 20.453125 26.78125 9.375 
Q 23.140625 -1.703125 15.828125 -13.1875 
L 8.015625 -13.1875 
Q 14.5 -2 17.703125 9.0625 
Q 20.90625 20.125 20.90625 31.390625 
Q 20.90625 42.671875 17.703125 53.65625 
Q 14.5 64.65625 8.015625 75.875 
z
" id="DejaVuSans-29"/>
     </defs>
     <g transform="translate(73.803219 338.153594)scale(0.17 -0.17)">
      <use xlink:href="#DejaVuSans-6c"/>
      <use x="27.783203" xlink:href="#DejaVuSans-6f"/>
      <use x="88.964844" xlink:href="#DejaVuSans-67"/>
      <use x="152.441406" xlink:href="#DejaVuSans-31"/>
      <use x="216.064453" xlink:href="#DejaVuSans-30"/>
      <use x="279.6875" xlink:href="#DejaVuSans-28"/>
      <use x="318.701172" xlink:href="#DejaVuSans-23"/>
      <use x="402.490234" xlink:href="#DejaVuSans-20"/>
      <use x="434.277344" xlink:href="#DejaVuSans-66"/>
      <use x="469.404297" xlink:href="#DejaVuSans-2d"/>
      <use x="505.488281" xlink:href="#DejaVuSans-65"/>
      <use x="567.011719" xlink:href="#DejaVuSans-76"/>
      <use x="626.191406" xlink:href="#DejaVuSans-61"/>
      <use x="687.470703" xlink:href="#DejaVuSans-6c"/>
      <use x="715.253906" xlink:href="#DejaVuSans-73"/>
      <use x="767.353516" xlink:href="#DejaVuSans-20"/>
      <use x="799.140625" xlink:href="#DejaVuSans-2f"/>
      <use x="832.832031" xlink:href="#DejaVuSans-20"/>
      <use x="864.619141" xlink:href="#DejaVuSans-64"/>
      <use x="928.095703" xlink:href="#DejaVuSans-69"/>
      <use x="955.878906" xlink:href="#DejaVuSans-6d"/>
      <use x="1053.291016" xlink:href="#DejaVuSans-65"/>
      <use x="1114.814453" xlink:href="#DejaVuSans-6e"/>
      <use x="1178.193359" xlink:href="#DejaVuSans-73"/>
      <use x="1230.292969" xlink:href="#DejaVuSans-69"/>
      <use x="1258.076172" xlink:href="#DejaVuSans-6f"/>
      <use x="1319.257812" xlink:href="#DejaVuSans-6e"/>
      <use x="1382.636719" xlink:href="#DejaVuSans-29"/>
     </g>
    </g>
   </g>
   <g id="matplotlib.axis_2">
    <g id="ytick_1">
     <g id="line2d_29">
      <path clip-path="url(#pca923606a2)" d="M 56.12 294.88 
L 333.168 294.88 
" style="fill:none;stroke:#b0b0b0;stroke-linecap:square;stroke-width:0.8;"/>
     </g>
     <g id="line2d_30">
      <defs>
       <path d="M 0 0 
L -3.5 0 
" id="m010a38e283" style="stroke:#000000;stroke-width:0.8;"/>
      </defs>
      <g>
       <use style="stroke:#000000;stroke-width:0.8;" x="56.12" xlink:href="#m010a38e283" y="294.88"/>
      </g>
     </g>
     <g id="text_6">
      <!-- 0.0 -->
      <defs>
       <path d="M 10.6875 12.40625 
L 21 12.40625 
L 21 0 
L 10.6875 0 
z
" id="DejaVuSans-2e"/>
      </defs>
      <g transform="translate(23.675 300.95875)scale(0.16 -0.16)">
       <use xlink:href="#DejaVuSans-30"/>
       <use x="63.623047" xlink:href="#DejaVuSans-2e"/>
       <use x="95.410156" xlink:href="#DejaVuSans-30"/>
      </g>
     </g>
    </g>
    <g id="ytick_2">
     <g id="line2d_31">
      <path clip-path="url(#pca923606a2)" d="M 56.12 241.406733 
L 333.168 241.406733 
" style="fill:none;stroke:#b0b0b0;stroke-linecap:square;stroke-width:0.8;"/>
     </g>
     <g id="line2d_32">
      <g>
       <use style="stroke:#000000;stroke-width:0.8;" x="56.12" xlink:href="#m010a38e283" y="241.406733"/>
      </g>
     </g>
     <g id="text_7">
      <!-- 0.2 -->
      <g transform="translate(23.675 247.485483)scale(0.16 -0.16)">
       <use xlink:href="#DejaVuSans-30"/>
       <use x="63.623047" xlink:href="#DejaVuSans-2e"/>
       <use x="95.410156" xlink:href="#DejaVuSans-32"/>
      </g>
     </g>
    </g>
    <g id="ytick_3">
     <g id="line2d_33">
      <path clip-path="url(#pca923606a2)" d="M 56.12 187.933465 
L 333.168 187.933465 
" style="fill:none;stroke:#b0b0b0;stroke-linecap:square;stroke-width:0.8;"/>
     </g>
     <g id="line2d_34">
      <g>
       <use style="stroke:#000000;stroke-width:0.8;" x="56.12" xlink:href="#m010a38e283" y="187.933465"/>
      </g>
     </g>
     <g id="text_8">
      <!-- 0.4 -->
      <g transform="translate(23.675 194.012215)scale(0.16 -0.16)">
       <use xlink:href="#DejaVuSans-30"/>
       <use x="63.623047" xlink:href="#DejaVuSans-2e"/>
       <use x="95.410156" xlink:href="#DejaVuSans-34"/>
      </g>
     </g>
    </g>
    <g id="ytick_4">
     <g id="line2d_35">
      <path clip-path="url(#pca923606a2)" d="M 56.12 134.460198 
L 333.168 134.460198 
" style="fill:none;stroke:#b0b0b0;stroke-linecap:square;stroke-width:0.8;"/>
     </g>
     <g id="line2d_36">
      <g>
       <use style="stroke:#000000;stroke-width:0.8;" x="56.12" xlink:href="#m010a38e283" y="134.460198"/>
      </g>
     </g>
     <g id="text_9">
      <!-- 0.6 -->
      <g transform="translate(23.675 140.538948)scale(0.16 -0.16)">
       <use xlink:href="#DejaVuSans-30"/>
       <use x="63.623047" xlink:href="#DejaVuSans-2e"/>
       <use x="95.410156" xlink:href="#DejaVuSans-36"/>
      </g>
     </g>
    </g>
    <g id="ytick_5">
     <g id="line2d_37">
      <path clip-path="url(#pca923606a2)" d="M 56.12 80.986931 
L 333.168 80.986931 
" style="fill:none;stroke:#b0b0b0;stroke-linecap:square;stroke-width:0.8;"/>
     </g>
     <g id="line2d_38">
      <g>
       <use style="stroke:#000000;stroke-width:0.8;" x="56.12" xlink:href="#m010a38e283" y="80.986931"/>
      </g>
     </g>
     <g id="text_10">
      <!-- 0.8 -->
      <defs>
       <path d="M 31.78125 34.625 
Q 24.75 34.625 20.71875 30.859375 
Q 16.703125 27.09375 16.703125 20.515625 
Q 16.703125 13.921875 20.71875 10.15625 
Q 24.75 6.390625 31.78125 6.390625 
Q 38.8125 6.390625 42.859375 10.171875 
Q 46.921875 13.96875 46.921875 20.515625 
Q 46.921875 27.09375 42.890625 30.859375 
Q 38.875 34.625 31.78125 34.625 
z
M 21.921875 38.8125 
Q 15.578125 40.375 12.03125 44.71875 
Q 8.5 49.078125 8.5 55.328125 
Q 8.5 64.0625 14.71875 69.140625 
Q 20.953125 74.21875 31.78125 74.21875 
Q 42.671875 74.21875 48.875 69.140625 
Q 55.078125 64.0625 55.078125 55.328125 
Q 55.078125 49.078125 51.53125 44.71875 
Q 48 40.375 41.703125 38.8125 
Q 48.828125 37.15625 52.796875 32.3125 
Q 56.78125 27.484375 56.78125 20.515625 
Q 56.78125 9.90625 50.3125 4.234375 
Q 43.84375 -1.421875 31.78125 -1.421875 
Q 19.734375 -1.421875 13.25 4.234375 
Q 6.78125 9.90625 6.78125 20.515625 
Q 6.78125 27.484375 10.78125 32.3125 
Q 14.796875 37.15625 21.921875 38.8125 
z
M 18.3125 54.390625 
Q 18.3125 48.734375 21.84375 45.5625 
Q 25.390625 42.390625 31.78125 42.390625 
Q 38.140625 42.390625 41.71875 45.5625 
Q 45.3125 48.734375 45.3125 54.390625 
Q 45.3125 60.0625 41.71875 63.234375 
Q 38.140625 66.40625 31.78125 66.40625 
Q 25.390625 66.40625 21.84375 63.234375 
Q 18.3125 60.0625 18.3125 54.390625 
z
" id="DejaVuSans-38"/>
      </defs>
      <g transform="translate(23.675 87.065681)scale(0.16 -0.16)">
       <use xlink:href="#DejaVuSans-30"/>
       <use x="63.623047" xlink:href="#DejaVuSans-2e"/>
       <use x="95.410156" xlink:href="#DejaVuSans-38"/>
      </g>
     </g>
    </g>
    <g id="ytick_6">
     <g id="line2d_39">
      <path clip-path="url(#pca923606a2)" d="M 56.12 27.513663 
L 333.168 27.513663 
" style="fill:none;stroke:#b0b0b0;stroke-linecap:square;stroke-width:0.8;"/>
     </g>
     <g id="line2d_40">
      <g>
       <use style="stroke:#000000;stroke-width:0.8;" x="56.12" xlink:href="#m010a38e283" y="27.513663"/>
      </g>
     </g>
     <g id="text_11">
      <!-- 1.0 -->
      <g transform="translate(23.675 33.592413)scale(0.16 -0.16)">
       <use xlink:href="#DejaVuSans-31"/>
       <use x="63.623047" xlink:href="#DejaVuSans-2e"/>
       <use x="95.410156" xlink:href="#DejaVuSans-30"/>
      </g>
     </g>
    </g>
    <g id="text_12">
     <!-- Fraction of function,target pairs -->
     <defs>
      <path d="M 9.8125 72.90625 
L 51.703125 72.90625 
L 51.703125 64.59375 
L 19.671875 64.59375 
L 19.671875 43.109375 
L 48.578125 43.109375 
L 48.578125 34.8125 
L 19.671875 34.8125 
L 19.671875 0 
L 9.8125 0 
z
" id="DejaVuSans-46"/>
      <path d="M 41.109375 46.296875 
Q 39.59375 47.171875 37.8125 47.578125 
Q 36.03125 48 33.890625 48 
Q 26.265625 48 22.1875 43.046875 
Q 18.109375 38.09375 18.109375 28.8125 
L 18.109375 0 
L 9.078125 0 
L 9.078125 54.6875 
L 18.109375 54.6875 
L 18.109375 46.1875 
Q 20.953125 51.171875 25.484375 53.578125 
Q 30.03125 56 36.53125 56 
Q 37.453125 56 38.578125 55.875 
Q 39.703125 55.765625 41.0625 55.515625 
z
" id="DejaVuSans-72"/>
      <path d="M 48.78125 52.59375 
L 48.78125 44.1875 
Q 44.96875 46.296875 41.140625 47.34375 
Q 37.3125 48.390625 33.40625 48.390625 
Q 24.65625 48.390625 19.8125 42.84375 
Q 14.984375 37.3125 14.984375 27.296875 
Q 14.984375 17.28125 19.8125 11.734375 
Q 24.65625 6.203125 33.40625 6.203125 
Q 37.3125 6.203125 41.140625 7.25 
Q 44.96875 8.296875 48.78125 10.40625 
L 48.78125 2.09375 
Q 45.015625 0.34375 40.984375 -0.53125 
Q 36.96875 -1.421875 32.421875 -1.421875 
Q 20.0625 -1.421875 12.78125 6.34375 
Q 5.515625 14.109375 5.515625 27.296875 
Q 5.515625 40.671875 12.859375 48.328125 
Q 20.21875 56 33.015625 56 
Q 37.15625 56 41.109375 55.140625 
Q 45.0625 54.296875 48.78125 52.59375 
z
" id="DejaVuSans-63"/>
      <path d="M 18.3125 70.21875 
L 18.3125 54.6875 
L 36.8125 54.6875 
L 36.8125 47.703125 
L 18.3125 47.703125 
L 18.3125 18.015625 
Q 18.3125 11.328125 20.140625 9.421875 
Q 21.96875 7.515625 27.59375 7.515625 
L 36.8125 7.515625 
L 36.8125 0 
L 27.59375 0 
Q 17.1875 0 13.234375 3.875 
Q 9.28125 7.765625 9.28125 18.015625 
L 9.28125 47.703125 
L 2.6875 47.703125 
L 2.6875 54.6875 
L 9.28125 54.6875 
L 9.28125 70.21875 
z
" id="DejaVuSans-74"/>
      <path d="M 8.5 21.578125 
L 8.5 54.6875 
L 17.484375 54.6875 
L 17.484375 21.921875 
Q 17.484375 14.15625 20.5 10.265625 
Q 23.53125 6.390625 29.59375 6.390625 
Q 36.859375 6.390625 41.078125 11.03125 
Q 45.3125 15.671875 45.3125 23.6875 
L 45.3125 54.6875 
L 54.296875 54.6875 
L 54.296875 0 
L 45.3125 0 
L 45.3125 8.40625 
Q 42.046875 3.421875 37.71875 1 
Q 33.40625 -1.421875 27.6875 -1.421875 
Q 18.265625 -1.421875 13.375 4.4375 
Q 8.5 10.296875 8.5 21.578125 
z
M 31.109375 56 
z
" id="DejaVuSans-75"/>
      <path d="M 11.71875 12.40625 
L 22.015625 12.40625 
L 22.015625 4 
L 14.015625 -11.625 
L 7.71875 -11.625 
L 11.71875 4 
z
" id="DejaVuSans-2c"/>
      <path d="M 18.109375 8.203125 
L 18.109375 -20.796875 
L 9.078125 -20.796875 
L 9.078125 54.6875 
L 18.109375 54.6875 
L 18.109375 46.390625 
Q 20.953125 51.265625 25.265625 53.625 
Q 29.59375 56 35.59375 56 
Q 45.5625 56 51.78125 48.09375 
Q 58.015625 40.1875 58.015625 27.296875 
Q 58.015625 14.40625 51.78125 6.484375 
Q 45.5625 -1.421875 35.59375 -1.421875 
Q 29.59375 -1.421875 25.265625 0.953125 
Q 20.953125 3.328125 18.109375 8.203125 
z
M 48.6875 27.296875 
Q 48.6875 37.203125 44.609375 42.84375 
Q 40.53125 48.484375 33.40625 48.484375 
Q 26.265625 48.484375 22.1875 42.84375 
Q 18.109375 37.203125 18.109375 27.296875 
Q 18.109375 17.390625 22.1875 11.75 
Q 26.265625 6.109375 33.40625 6.109375 
Q 40.53125 6.109375 44.609375 11.75 
Q 48.6875 17.390625 48.6875 27.296875 
z
" id="DejaVuSans-70"/>
     </defs>
     <g transform="translate(16.139531 294.999375)rotate(-90)scale(0.17 -0.17)">
      <use xlink:href="#DejaVuSans-46"/>
      <use x="57.410156" xlink:href="#DejaVuSans-72"/>
      <use x="98.523438" xlink:href="#DejaVuSans-61"/>
      <use x="159.802734" xlink:href="#DejaVuSans-63"/>
      <use x="214.783203" xlink:href="#DejaVuSans-74"/>
      <use x="253.992188" xlink:href="#DejaVuSans-69"/>
      <use x="281.775391" xlink:href="#DejaVuSans-6f"/>
      <use x="342.957031" xlink:href="#DejaVuSans-6e"/>
      <use x="406.335938" xlink:href="#DejaVuSans-20"/>
      <use x="438.123047" xlink:href="#DejaVuSans-6f"/>
      <use x="499.304688" xlink:href="#DejaVuSans-66"/>
      <use x="534.509766" xlink:href="#DejaVuSans-20"/>
      <use x="566.296875" xlink:href="#DejaVuSans-66"/>
      <use x="601.501953" xlink:href="#DejaVuSans-75"/>
      <use x="664.880859" xlink:href="#DejaVuSans-6e"/>
      <use x="728.259766" xlink:href="#DejaVuSans-63"/>
      <use x="783.240234" xlink:href="#DejaVuSans-74"/>
      <use x="822.449219" xlink:href="#DejaVuSans-69"/>
      <use x="850.232422" xlink:href="#DejaVuSans-6f"/>
      <use x="911.414062" xlink:href="#DejaVuSans-6e"/>
      <use x="974.792969" xlink:href="#DejaVuSans-2c"/>
      <use x="1006.580078" xlink:href="#DejaVuSans-74"/>
      <use x="1045.789062" xlink:href="#DejaVuSans-61"/>
      <use x="1107.068359" xlink:href="#DejaVuSans-72"/>
      <use x="1148.166016" xlink:href="#DejaVuSans-67"/>
      <use x="1211.642578" xlink:href="#DejaVuSans-65"/>
      <use x="1273.166016" xlink:href="#DejaVuSans-74"/>
      <use x="1312.375" xlink:href="#DejaVuSans-20"/>
      <use x="1344.162109" xlink:href="#DejaVuSans-70"/>
      <use x="1407.638672" xlink:href="#DejaVuSans-61"/>
      <use x="1468.917969" xlink:href="#DejaVuSans-69"/>
      <use x="1496.701172" xlink:href="#DejaVuSans-72"/>
      <use x="1537.814453" xlink:href="#DejaVuSans-73"/>
     </g>
    </g>
   </g>
   <g id="line2d_41">
    <defs>
     <path d="M 0 1.5 
C 0.397805 1.5 0.77937 1.341951 1.06066 1.06066 
C 1.341951 0.77937 1.5 0.397805 1.5 0 
C 1.5 -0.397805 1.341951 -0.77937 1.06066 -1.06066 
C 0.77937 -1.341951 0.397805 -1.5 0 -1.5 
C -0.397805 -1.5 -0.77937 -1.341951 -1.06066 -1.06066 
C -1.341951 -0.77937 -1.5 -0.397805 -1.5 0 
C -1.5 0.397805 -1.341951 0.77937 -1.06066 1.06066 
C -0.77937 1.341951 -0.397805 1.5 0 1.5 
z
" id="maee040563a" style="stroke:#f5deb3;"/>
    </defs>
    <g>
     <use style="fill:#f5deb3;stroke:#f5deb3;" x="70.436568" xlink:href="#maee040563a" y="27.513663"/>
     <use style="fill:#f5deb3;stroke:#f5deb3;" x="70.436568" xlink:href="#maee040563a" y="27.513663"/>
    </g>
   </g>
   <g id="line2d_42">
    <defs>
     <path d="M 0 1.5 
C 0.397805 1.5 0.77937 1.341951 1.06066 1.06066 
C 1.341951 0.77937 1.5 0.397805 1.5 0 
C 1.5 -0.397805 1.341951 -0.77937 1.06066 -1.06066 
C 0.77937 -1.341951 0.397805 -1.5 0 -1.5 
C -0.397805 -1.5 -0.77937 -1.341951 -1.06066 -1.06066 
C -1.341951 -0.77937 -1.5 -0.397805 -1.5 0 
C -1.5 0.397805 -1.341951 0.77937 -1.06066 1.06066 
C -0.77937 1.341951 -0.397805 1.5 0 1.5 
z
" id="mf862136db5" style="stroke:#000080;"/>
    </defs>
    <g>
     <use style="fill:#000080;stroke:#000080;" x="226.401967" xlink:href="#mf862136db5" y="74.695958"/>
     <use style="fill:#000080;stroke:#000080;" x="226.401967" xlink:href="#mf862136db5" y="74.695958"/>
    </g>
   </g>
   <g id="line2d_43">
    <path d="M 16.541714 294.88 
L 16.541714 283.870798 
L 71.869783 283.870798 
L 71.869783 283.34655 
L 81.973032 283.34655 
L 81.973032 282.822302 
L 82.350819 282.822302 
L 82.350819 282.298055 
L 83.08236 282.298055 
L 83.08236 281.773807 
L 88.814625 281.773807 
L 88.814625 281.249559 
L 90.05175 281.249559 
L 90.05175 280.201064 
L 93.105847 280.201064 
L 93.105847 279.152568 
L 103.669239 279.152568 
L 103.669239 278.104073 
L 108.286687 278.104073 
L 108.286687 277.055578 
L 108.85563 277.055578 
L 108.85563 276.53133 
L 109.939957 276.53133 
L 109.939957 276.007082 
L 110.602556 276.007082 
L 110.602556 275.482834 
L 111.240558 275.482834 
L 111.240558 274.434339 
L 112.897778 274.434339 
L 112.897778 273.910091 
L 116.427273 273.910091 
L 116.478659 272.337348 
L 116.631902 272.337348 
L 116.631902 271.288853 
L 117.182386 271.288853 
L 117.182386 270.764605 
L 119.867168 270.764605 
L 119.867168 270.240357 
L 120.076533 270.240357 
L 120.076533 269.716109 
L 120.32445 269.716109 
L 120.32445 268.667614 
L 120.929036 268.667614 
L 120.929036 267.094871 
L 121.320594 267.094871 
L 121.320594 266.570623 
L 123.870396 266.570623 
L 123.970233 265.522128 
L 124.493121 265.522128 
L 124.493121 264.99788 
L 126.496178 264.99788 
L 126.496178 264.473632 
L 126.836558 264.473632 
L 126.836558 263.949385 
L 128.546153 263.949385 
L 128.546153 262.900889 
L 129.121245 262.900889 
L 129.121245 262.376641 
L 129.413824 262.376641 
L 129.413824 261.328146 
L 129.558267 261.328146 
L 129.558267 260.803898 
L 129.725264 260.803898 
L 129.819968 259.231155 
L 132.218178 259.231155 
L 132.218178 258.18266 
L 132.42232 258.18266 
L 132.42232 257.658412 
L 133.693236 257.658412 
L 133.693236 256.085669 
L 133.862029 256.085669 
L 133.936519 253.46443 
L 134.102952 253.46443 
L 134.176407 252.415935 
L 134.412994 252.415935 
L 134.412994 251.367439 
L 134.574897 251.367439 
L 134.574897 250.318944 
L 135.464614 250.318944 
L 135.481607 248.221953 
L 137.603992 248.221953 
L 137.603992 247.697705 
L 138.453347 247.697705 
L 138.453347 246.64921 
L 138.609803 246.64921 
L 138.609803 246.124962 
L 139.506324 246.124962 
L 139.506324 245.600714 
L 140.230025 245.600714 
L 140.242905 244.552219 
L 140.73785 244.552219 
L 140.762851 242.455228 
L 140.961566 242.455228 
L 140.961566 241.93098 
L 141.109109 241.93098 
L 141.145798 238.785494 
L 142.00362 238.785494 
L 142.050045 237.212751 
L 142.280305 237.212751 
L 142.348785 235.640008 
L 142.484933 235.640008 
L 142.484933 235.11576 
L 143.193387 235.11576 
L 143.193387 234.591512 
L 143.590024 234.591512 
L 143.590024 234.067265 
L 144.717888 234.067265 
L 144.717888 233.543017 
L 145.139415 233.543017 
L 145.139415 233.018769 
L 145.389366 233.018769 
L 145.4275 230.921778 
L 145.531932 230.921778 
L 145.607487 228.824787 
L 145.65454 228.824787 
L 145.65454 228.30054 
L 146.354335 228.30054 
L 146.417379 226.727797 
L 146.622913 226.727797 
L 146.622913 226.203549 
L 147.723912 226.203549 
L 147.723912 225.155053 
L 148.078499 225.155053 
L 148.078499 223.58231 
L 148.200491 223.58231 
L 148.200491 222.533815 
L 148.441909 222.533815 
L 148.441909 221.485319 
L 148.727204 221.485319 
L 148.727204 220.961072 
L 149.630465 220.961072 
L 149.630465 220.436824 
L 149.882155 220.436824 
L 149.882155 219.912576 
L 150.188062 219.912576 
L 150.19528 218.864081 
L 150.346153 218.864081 
L 150.346153 218.339833 
L 150.502803 218.339833 
L 150.531132 217.291338 
L 150.636952 217.291338 
L 150.636952 216.242842 
L 150.895222 216.242842 
L 150.895222 215.718594 
L 151.115504 215.718594 
L 151.115504 214.145851 
L 151.494332 214.145851 
L 151.547775 213.097356 
L 151.713722 213.097356 
L 151.759902 211.524613 
L 151.878082 211.524613 
L 151.878082 211.000365 
L 152.008448 211.000365 
L 152.008448 209.95187 
L 152.131386 209.95187 
L 152.131386 209.427622 
L 152.589437 209.427622 
L 152.61453 207.330631 
L 152.782956 207.330631 
L 152.782956 206.806383 
L 153.060049 206.806383 
L 153.060049 206.282136 
L 153.206025 206.282136 
L 153.206025 205.757888 
L 153.571563 205.757888 
L 153.595264 204.709392 
L 153.68385 204.709392 
L 153.68385 204.185145 
L 154.194556 204.185145 
L 154.285803 202.612401 
L 154.539868 202.612401 
L 154.539868 202.088154 
L 154.768126 202.088154 
L 154.768126 201.563906 
L 155.004305 201.563906 
L 155.004305 201.039658 
L 155.140141 201.039658 
L 155.248042 199.991163 
L 155.339229 199.991163 
L 155.419288 198.942667 
L 155.451207 198.942667 
L 155.451207 198.41842 
L 155.688733 198.41842 
L 155.688733 197.894172 
L 155.850472 197.894172 
L 155.891966 196.321429 
L 156.321704 196.321429 
L 156.351992 194.748686 
L 156.5376 194.748686 
L 156.5376 193.175943 
L 157.159859 193.175943 
L 157.246258 192.127447 
L 157.422504 192.127447 
L 157.507597 191.078952 
L 157.802146 191.078952 
L 157.802146 190.554704 
L 158.173584 190.554704 
L 158.173584 190.030456 
L 158.322638 190.030456 
L 158.389966 188.981961 
L 158.854014 188.981961 
L 158.854014 188.457713 
L 159.113666 188.457713 
L 159.113666 187.409218 
L 159.25056 187.409218 
L 159.25056 186.360722 
L 159.504333 186.360722 
L 159.563012 185.312227 
L 159.795744 185.312227 
L 159.795744 184.787979 
L 159.980503 184.787979 
L 159.980503 184.263731 
L 160.90662 184.263731 
L 160.90662 183.215236 
L 161.160133 183.215236 
L 161.160133 182.690988 
L 161.402444 182.690988 
L 161.402444 182.16674 
L 161.537258 182.16674 
L 161.622838 179.545502 
L 161.682122 179.545502 
L 161.682122 179.021254 
L 161.844107 179.021254 
L 161.844107 178.497006 
L 161.968239 178.497006 
L 161.968239 177.972759 
L 162.292562 177.972759 
L 162.292562 177.448511 
L 162.441844 177.448511 
L 162.501901 175.35152 
L 162.558234 175.35152 
L 162.628392 173.778777 
L 162.708721 173.778777 
L 162.8164 171.681786 
L 162.950916 171.681786 
L 162.950916 171.157538 
L 163.101424 171.157538 
L 163.159224 169.584795 
L 163.304562 169.584795 
L 163.341545 168.012052 
L 163.677446 168.012052 
L 163.716923 166.963557 
L 163.792333 166.963557 
L 163.792333 166.439309 
L 164.006909 166.439309 
L 164.052083 164.866566 
L 164.399791 164.866566 
L 164.399791 164.342318 
L 164.563224 164.342318 
L 164.653699 162.245327 
L 164.900844 162.245327 
L 165.001765 160.672584 
L 165.156578 160.672584 
L 165.256013 158.575593 
L 165.363835 158.575593 
L 165.363835 158.051345 
L 165.512475 158.051345 
L 165.603991 155.954354 
L 165.633408 155.954354 
L 165.712585 153.857364 
L 165.829217 153.857364 
L 165.829217 153.333116 
L 165.965256 153.333116 
L 165.965256 152.808868 
L 166.080193 152.808868 
L 166.080193 152.28462 
L 166.22563 152.28462 
L 166.22563 151.760373 
L 166.496101 151.760373 
L 166.496101 151.236125 
L 166.638076 151.236125 
L 166.740349 150.18763 
L 166.874861 150.18763 
L 166.926736 149.139134 
L 167.232068 149.139134 
L 167.237423 147.042143 
L 167.605605 147.042143 
L 167.621321 145.993648 
L 167.728334 145.993648 
L 167.728334 145.4694 
L 168.030101 145.4694 
L 168.088804 143.896657 
L 168.235955 143.896657 
L 168.263721 142.848162 
L 168.642879 142.848162 
L 168.655211 141.799666 
L 168.989692 141.799666 
L 168.989692 141.275418 
L 169.348599 141.275418 
L 169.379354 140.226923 
L 169.506521 140.226923 
L 169.508867 138.129932 
L 170.160265 138.129932 
L 170.185093 137.081437 
L 170.371281 137.081437 
L 170.462515 133.411703 
L 170.82703 133.411703 
L 170.82703 132.887455 
L 171.032212 132.887455 
L 171.085802 131.838959 
L 171.334409 131.838959 
L 171.408085 129.741969 
L 171.589867 129.741969 
L 171.68521 127.644978 
L 171.980301 127.644978 
L 172.077549 126.072235 
L 172.123953 126.072235 
L 172.123953 125.547987 
L 172.238417 125.547987 
L 172.328248 123.450996 
L 172.472983 123.450996 
L 172.494687 121.878253 
L 172.649762 121.878253 
L 172.661483 120.829757 
L 172.865314 120.829757 
L 172.865314 120.30551 
L 173.135283 120.30551 
L 173.135283 119.257014 
L 173.367374 119.257014 
L 173.451509 117.160023 
L 173.624092 117.160023 
L 173.624092 116.635776 
L 173.838781 116.635776 
L 173.847896 115.063032 
L 173.978623 115.063032 
L 174.021978 114.014537 
L 174.343705 114.014537 
L 174.361403 112.441794 
L 174.549643 112.441794 
L 174.549643 111.917546 
L 174.744496 111.917546 
L 174.791141 110.344803 
L 174.863449 110.344803 
L 174.92861 107.199317 
L 175.008863 107.199317 
L 175.008863 106.675069 
L 182.780346 106.675069 
L 182.780346 106.150821 
L 184.482724 106.150821 
L 184.482724 105.626573 
L 184.654641 105.626573 
L 184.690565 104.578078 
L 184.779565 104.578078 
L 184.779565 104.05383 
L 185.722004 104.05383 
L 185.79947 102.481087 
L 185.894683 102.481087 
L 185.894683 101.432592 
L 186.021716 101.432592 
L 186.021716 100.908344 
L 186.362114 100.908344 
L 186.425359 99.335601 
L 186.527639 99.335601 
L 186.527639 98.811353 
L 186.7777 98.811353 
L 186.859967 97.23861 
L 186.892423 97.23861 
L 186.932481 96.190115 
L 192.443604 96.190115 
L 192.443604 95.665867 
L 192.682258 95.665867 
L 192.682258 95.141619 
L 192.839942 95.141619 
L 192.920047 94.093124 
L 192.99679 94.093124 
L 193.1077 92.520381 
L 193.219081 92.520381 
L 193.219081 91.996133 
L 193.56864 91.996133 
L 193.582522 90.947637 
L 193.68628 90.947637 
L 193.68628 90.42339 
L 193.856693 90.42339 
L 193.856693 89.899142 
L 198.079436 89.899142 
L 198.079436 89.374894 
L 198.294396 89.374894 
L 198.340487 88.326399 
L 198.774219 88.326399 
L 198.774219 87.802151 
L 202.056896 87.802151 
L 202.056896 87.277903 
L 202.486891 87.277903 
L 202.557008 85.180912 
L 204.839706 85.180912 
L 204.839706 84.656665 
L 204.988039 84.656665 
L 204.988039 84.132417 
L 205.482892 84.132417 
L 205.482892 83.608169 
L 207.852093 83.608169 
L 207.95914 82.559674 
L 208.035625 82.559674 
L 208.035625 82.035426 
L 208.217217 82.035426 
L 208.217217 81.511178 
L 208.428385 81.511178 
L 208.434965 80.462683 
L 210.386402 80.462683 
L 210.386402 79.938435 
L 210.627236 79.938435 
L 210.627236 79.414188 
L 212.630732 79.414188 
L 212.630732 78.88994 
L 212.758533 78.88994 
L 212.758533 78.365692 
L 218.999323 78.365692 
L 219.090409 76.792949 
L 220.243384 76.792949 
L 220.243384 76.268701 
L 221.417538 76.268701 
L 221.499091 75.220206 
L 226.401967 75.220206 
L 226.401967 74.695958 
L 333.168 74.695958 
L 333.168 74.695958 
" style="fill:none;stroke:#000080;stroke-linecap:square;stroke-width:1.5;"/>
   </g>
   <g id="line2d_44">
    <defs>
     <path d="M 0 6 
C 1.591219 6 3.117479 5.367802 4.242641 4.242641 
C 5.367802 3.117479 6 1.591219 6 0 
C 6 -1.591219 5.367802 -3.117479 4.242641 -4.242641 
C 3.117479 -5.367802 1.591219 -6 0 -6 
C -1.591219 -6 -3.117479 -5.367802 -4.242641 -4.242641 
C -5.367802 -3.117479 -6 -1.591219 -6 0 
C -6 1.591219 -5.367802 3.117479 -4.242641 4.242641 
C -3.117479 5.367802 -1.591219 6 0 6 
z
" id="m7229d66253" style="stroke:#000080;stroke-width:1.5;"/>
    </defs>
    <g>
     <use style="fill-opacity:0;stroke:#000080;stroke-width:1.5;" x="134.412994" xlink:href="#m7229d66253" y="251.367439"/>
     <use style="fill-opacity:0;stroke:#000080;stroke-width:1.5;" x="168.655211" xlink:href="#m7229d66253" y="142.323914"/>
     <use style="fill-opacity:0;stroke:#000080;stroke-width:1.5;" x="226.401967" xlink:href="#m7229d66253" y="75.220206"/>
     <use style="fill-opacity:0;stroke:#000080;stroke-width:1.5;" x="226.401967" xlink:href="#m7229d66253" y="74.695958"/>
     <use style="fill-opacity:0;stroke:#000080;stroke-width:1.5;" x="333.168" xlink:href="#m7229d66253" y="74.695958"/>
    </g>
   </g>
   <g id="line2d_45">
    <path style="fill:none;stroke:#000080;stroke-linecap:square;stroke-width:1.5;"/>
    <g/>
   </g>
   <g id="line2d_46">
    <path clip-path="url(#pca923606a2)" d="M 175.027591 106.675069 
" style="fill:none;stroke:#000080;stroke-linecap:square;stroke-width:1.5;"/>
    <defs>
     <path d="M -12 12 
L 12 -12 
M -12 -12 
L 12 12 
" id="mc65047929a" style="stroke:#000080;"/>
    </defs>
    <g clip-path="url(#pca923606a2)">
     <use style="fill:#000080;stroke:#000080;" x="175.027591" xlink:href="#mc65047929a" y="106.675069"/>
    </g>
   </g>
   <g id="line2d_47">
    <defs>
     <path d="M 0 1.5 
C 0.397805 1.5 0.77937 1.341951 1.06066 1.06066 
C 1.341951 0.77937 1.5 0.397805 1.5 0 
C 1.5 -0.397805 1.341951 -0.77937 1.06066 -1.06066 
C 0.77937 -1.341951 0.397805 -1.5 0 -1.5 
C -0.397805 -1.5 -0.77937 -1.341951 -1.06066 -1.06066 
C -1.341951 -0.77937 -1.5 -0.397805 -1.5 0 
C -1.5 0.397805 -1.341951 0.77937 -1.06066 1.06066 
C -0.77937 1.341951 -0.397805 1.5 0 1.5 
z
" id="mec9e156e08" style="stroke:#ff00ff;"/>
    </defs>
    <g>
     <use style="fill:#ff00ff;stroke:#ff00ff;" x="228.133688" xlink:href="#mec9e156e08" y="226.727797"/>
     <use style="fill:#ff00ff;stroke:#ff00ff;" x="228.133688" xlink:href="#mec9e156e08" y="226.727797"/>
    </g>
   </g>
   <g id="line2d_48">
    <path d="M 16.541714 294.88 
L 16.541714 285.443541 
L 40.370217 285.443541 
L 40.370217 284.395046 
L 44.205749 284.395046 
L 44.205749 283.34655 
L 49.989246 283.34655 
L 49.989246 282.822302 
L 68.034251 282.822302 
L 68.034251 281.249559 
L 72.543934 281.249559 
L 72.543934 280.725312 
L 107.868452 280.725312 
L 107.868452 280.201064 
L 108.286687 280.201064 
L 108.286687 279.676816 
L 109.713291 279.676816 
L 109.713291 279.152568 
L 111.855724 279.152568 
L 111.855724 278.628321 
L 111.989488 278.628321 
L 111.989488 278.104073 
L 112.643127 278.104073 
L 112.643127 277.579825 
L 113.334536 277.579825 
L 113.334536 277.055578 
L 113.820466 277.055578 
L 113.820466 276.53133 
L 115.691256 276.53133 
L 115.691256 274.958587 
L 120.283378 274.958587 
L 120.283378 274.434339 
L 120.406301 274.434339 
L 120.406301 273.910091 
L 120.64954 273.910091 
L 120.64954 272.861596 
L 122.408133 272.861596 
L 122.444434 271.288853 
L 123.224258 271.288853 
L 123.224258 270.764605 
L 123.567356 270.764605 
L 123.567356 270.240357 
L 124.780403 270.240357 
L 124.780403 269.191862 
L 127.142761 269.191862 
L 127.142761 268.667614 
L 128.698042 268.667614 
L 128.698042 267.619119 
L 130.42314 267.619119 
L 130.42314 267.094871 
L 130.559378 267.094871 
L 130.559378 266.570623 
L 130.739365 266.570623 
L 130.739365 266.046375 
L 138.223203 266.046375 
L 138.281029 264.99788 
L 138.353038 264.99788 
L 138.353038 263.949385 
L 138.595638 263.949385 
L 138.595638 262.376641 
L 140.061698 262.376641 
L 140.061698 261.852394 
L 141.023196 261.852394 
L 141.023196 261.328146 
L 141.67509 261.328146 
L 141.67509 260.279651 
L 146.05397 260.279651 
L 146.05397 259.755403 
L 147.980278 259.755403 
L 147.980278 259.231155 
L 149.061881 259.231155 
L 149.061881 258.18266 
L 149.98473 258.18266 
L 149.98473 257.134164 
L 150.474427 257.134164 
L 150.474427 256.609917 
L 151.204193 256.609917 
L 151.204193 255.561421 
L 152.361937 255.561421 
L 152.361937 255.037173 
L 153.072261 255.037173 
L 153.072261 253.46443 
L 153.518118 253.46443 
L 153.518118 252.940182 
L 154.245942 252.940182 
L 154.245942 252.415935 
L 154.87838 252.415935 
L 154.87838 251.891687 
L 155.504275 251.891687 
L 155.504275 251.367439 
L 157.313159 251.367439 
L 157.313159 250.843192 
L 157.862303 250.843192 
L 157.862303 249.794696 
L 158.087174 249.794696 
L 158.087174 249.270448 
L 159.173691 249.270448 
L 159.173691 248.746201 
L 159.828735 248.746201 
L 159.828735 248.221953 
L 160.515241 248.221953 
L 160.515241 247.697705 
L 165.351888 247.697705 
L 165.351888 246.64921 
L 166.693434 246.64921 
L 166.693434 246.124962 
L 167.070621 246.124962 
L 167.070621 245.076467 
L 167.76732 245.076467 
L 167.76732 244.027971 
L 168.177753 244.027971 
L 168.177753 243.503724 
L 170.083298 243.503724 
L 170.083298 242.979476 
L 170.555475 242.979476 
L 170.577534 241.406733 
L 172.89231 241.406733 
L 172.89231 240.882485 
L 173.348622 240.882485 
L 173.348622 240.358237 
L 180.357369 240.358237 
L 180.357369 239.83399 
L 181.672318 239.83399 
L 181.672318 239.309742 
L 182.77601 239.309742 
L 182.77601 238.785494 
L 183.300267 238.785494 
L 183.300267 237.736999 
L 184.133644 237.736999 
L 184.133644 237.212751 
L 184.85082 237.212751 
L 184.85082 236.688503 
L 186.66826 236.688503 
L 186.66826 236.164255 
L 190.583313 236.164255 
L 190.583313 235.11576 
L 191.571142 235.11576 
L 191.571142 234.591512 
L 192.415781 234.591512 
L 192.415781 234.067265 
L 192.545851 234.067265 
L 192.545851 233.543017 
L 193.729329 233.543017 
L 193.729329 233.018769 
L 197.50928 233.018769 
L 197.50928 232.494521 
L 197.84236 232.494521 
L 197.84236 231.970274 
L 198.719847 231.970274 
L 198.719847 230.921778 
L 204.924496 230.921778 
L 204.924496 230.397531 
L 205.734773 230.397531 
L 205.734773 229.873283 
L 210.702356 229.873283 
L 210.702356 228.824787 
L 215.84901 228.824787 
L 215.84901 228.30054 
L 216.194709 228.30054 
L 216.194709 227.776292 
L 223.694689 227.776292 
L 223.694689 227.252044 
L 228.133688 227.252044 
L 228.133688 226.727797 
L 333.168 226.727797 
L 333.168 226.727797 
" style="fill:none;stroke:#ff00ff;stroke-linecap:square;stroke-width:1.5;"/>
   </g>
   <g id="line2d_49">
    <defs>
     <path d="M -0 8.485281 
L 5.091169 0 
L 0 -8.485281 
L -5.091169 -0 
z
" id="m2b5d281e73" style="stroke:#ff00ff;stroke-linejoin:miter;stroke-width:1.5;"/>
    </defs>
    <g>
     <use style="fill-opacity:0;stroke:#ff00ff;stroke-linejoin:miter;stroke-width:1.5;" x="120.406301" xlink:href="#m2b5d281e73" y="274.434339"/>
     <use style="fill-opacity:0;stroke:#ff00ff;stroke-linejoin:miter;stroke-width:1.5;" x="165.351888" xlink:href="#m2b5d281e73" y="246.64921"/>
     <use style="fill-opacity:0;stroke:#ff00ff;stroke-linejoin:miter;stroke-width:1.5;" x="228.133688" xlink:href="#m2b5d281e73" y="227.252044"/>
     <use style="fill-opacity:0;stroke:#ff00ff;stroke-linejoin:miter;stroke-width:1.5;" x="228.133688" xlink:href="#m2b5d281e73" y="226.727797"/>
     <use style="fill-opacity:0;stroke:#ff00ff;stroke-linejoin:miter;stroke-width:1.5;" x="228.133688" xlink:href="#m2b5d281e73" y="226.727797"/>
     <use style="fill-opacity:0;stroke:#ff00ff;stroke-linejoin:miter;stroke-width:1.5;" x="333.168" xlink:href="#m2b5d281e73" y="226.727797"/>
    </g>
   </g>
   <g id="line2d_50">
    <path style="fill:none;stroke:#ff00ff;stroke-linecap:square;stroke-width:1.5;"/>
    <g/>
   </g>
   <g id="line2d_51">
    <path clip-path="url(#pca923606a2)" d="M 175.027591 240.358237 
" style="fill:none;stroke:#ff00ff;stroke-linecap:square;stroke-width:1.5;"/>
    <defs>
     <path d="M -12 12 
L 12 -12 
M -12 -12 
L 12 12 
" id="m2d65bdf7b0" style="stroke:#ff00ff;"/>
    </defs>
    <g clip-path="url(#pca923606a2)">
     <use style="fill:#ff00ff;stroke:#ff00ff;" x="175.027591" xlink:href="#m2d65bdf7b0" y="240.358237"/>
    </g>
   </g>
   <g id="line2d_52">
    <defs>
     <path d="M 0 1.5 
C 0.397805 1.5 0.77937 1.341951 1.06066 1.06066 
C 1.341951 0.77937 1.5 0.397805 1.5 0 
C 1.5 -0.397805 1.341951 -0.77937 1.06066 -1.06066 
C 0.77937 -1.341951 0.397805 -1.5 0 -1.5 
C -0.397805 -1.5 -0.77937 -1.341951 -1.06066 -1.06066 
C -1.341951 -0.77937 -1.5 -0.397805 -1.5 0 
C -1.5 0.397805 -1.341951 0.77937 -1.06066 1.06066 
C -0.77937 1.341951 -0.397805 1.5 0 1.5 
z
" id="mb74f6ade4c" style="stroke:#ffa500;"/>
    </defs>
    <g>
     <use style="fill:#ffa500;stroke:#ffa500;" x="236.836181" xlink:href="#mb74f6ade4c" y="116.635776"/>
     <use style="fill:#ffa500;stroke:#ffa500;" x="236.836181" xlink:href="#mb74f6ade4c" y="116.635776"/>
    </g>
   </g>
   <g id="line2d_53">
    <path d="M 16.541714 294.88 
L 16.541714 285.967789 
L 44.205749 285.967789 
L 44.205749 285.443541 
L 63.08939 285.443541 
L 63.08939 284.395046 
L 69.672503 284.395046 
L 69.672503 283.870798 
L 73.192638 283.870798 
L 73.192638 283.34655 
L 89.811346 283.34655 
L 89.811346 282.298055 
L 90.288839 282.298055 
L 90.288839 281.773807 
L 100.470395 281.773807 
L 100.470395 281.249559 
L 102.436953 281.249559 
L 102.436953 280.725312 
L 104.513022 280.725312 
L 104.513022 279.676816 
L 104.819059 279.676816 
L 104.819059 279.152568 
L 105.896762 279.152568 
L 105.896762 278.628321 
L 107.088985 278.628321 
L 107.088985 278.104073 
L 108.120612 278.104073 
L 108.120612 277.055578 
L 108.6141 277.055578 
L 108.6141 275.482834 
L 109.483595 275.482834 
L 109.483595 273.910091 
L 109.939957 273.910091 
L 109.939957 272.861596 
L 110.530183 272.861596 
L 110.530183 271.8131 
L 111.516686 271.8131 
L 111.516686 271.288853 
L 112.897778 271.288853 
L 112.897778 270.764605 
L 115.145539 270.764605 
L 115.145539 270.240357 
L 115.475044 270.240357 
L 115.475044 269.716109 
L 116.168013 269.716109 
L 116.168013 269.191862 
L 116.884309 269.191862 
L 116.884309 268.667614 
L 117.133064 268.667614 
L 117.133064 268.143366 
L 119.612517 268.143366 
L 119.612517 266.570623 
L 119.867168 266.570623 
L 119.867168 265.522128 
L 120.447081 265.522128 
L 120.447081 264.99788 
L 120.729861 264.99788 
L 120.729861 264.473632 
L 121.359263 264.473632 
L 121.359263 263.949385 
L 122.262156 263.949385 
L 122.262156 263.425137 
L 122.480659 263.425137 
L 122.480659 262.900889 
L 123.430938 262.900889 
L 123.430938 261.852394 
L 123.601292 261.852394 
L 123.668964 259.755403 
L 123.970233 259.755403 
L 123.970233 259.231155 
L 124.102454 259.231155 
L 124.102454 258.706907 
L 124.266312 258.706907 
L 124.266312 258.18266 
L 124.493121 258.18266 
L 124.493121 257.658412 
L 125.062963 257.658412 
L 125.062963 257.134164 
L 126.581907 257.134164 
L 126.667211 256.085669 
L 127.307509 256.085669 
L 127.307509 255.561421 
L 128.367236 255.561421 
L 128.367236 254.512926 
L 129.047315 254.512926 
L 129.047315 253.46443 
L 129.486197 253.46443 
L 129.486197 252.940182 
L 130.694545 252.940182 
L 130.694545 252.415935 
L 131.027883 252.415935 
L 131.027883 251.367439 
L 131.505376 251.367439 
L 131.505376 250.843192 
L 131.696954 250.843192 
L 131.760342 249.270448 
L 132.46286 249.270448 
L 132.46286 248.746201 
L 132.644112 248.746201 
L 132.644112 247.697705 
L 132.961694 247.697705 
L 132.961694 247.173458 
L 133.118312 247.173458 
L 133.196088 245.600714 
L 134.084539 245.600714 
L 134.084539 245.076467 
L 134.556983 245.076467 
L 134.556983 244.552219 
L 134.859013 244.552219 
L 134.859013 244.027971 
L 135.016789 244.027971 
L 135.016789 243.503724 
L 135.464614 243.503724 
L 135.464614 242.979476 
L 135.667432 242.979476 
L 135.667432 242.455228 
L 135.901068 242.455228 
L 135.983745 240.882485 
L 136.992776 240.882485 
L 136.992776 240.358237 
L 137.193815 240.358237 
L 137.301101 239.309742 
L 137.407721 239.309742 
L 137.407721 237.736999 
L 137.678888 237.736999 
L 137.678888 237.212751 
L 137.798047 237.212751 
L 137.798047 236.688503 
L 138.567274 236.688503 
L 138.567274 236.164255 
L 138.862788 236.164255 
L 138.960174 235.11576 
L 139.812678 235.11576 
L 139.904842 232.494521 
L 140.126634 232.494521 
L 140.178407 230.397531 
L 140.800286 230.397531 
L 140.800286 229.873283 
L 141.072342 229.873283 
L 141.121347 228.824787 
L 141.472518 228.824787 
L 141.50844 227.252044 
L 142.50752 227.252044 
L 142.552605 226.203549 
L 142.664803 226.203549 
L 142.664803 224.630806 
L 143.182539 224.630806 
L 143.182539 223.58231 
L 143.441019 223.58231 
L 143.451706 222.533815 
L 144.457904 222.533815 
L 144.457904 221.485319 
L 144.668195 221.485319 
L 144.698028 220.436824 
L 145.032563 220.436824 
L 145.032563 219.912576 
L 145.398907 219.912576 
L 145.475048 216.76709 
L 145.804252 216.76709 
L 145.804252 216.242842 
L 146.354335 216.242842 
L 146.408387 215.194347 
L 146.533852 215.194347 
L 146.631793 213.097356 
L 146.658408 213.097356 
L 146.658408 212.573108 
L 147.225166 212.573108 
L 147.233741 211.000365 
L 147.378865 211.000365 
L 147.463664 209.95187 
L 147.723912 209.95187 
L 147.723912 209.427622 
L 147.930956 209.427622 
L 148.037642 208.379126 
L 148.070335 208.379126 
L 148.151798 206.282136 
L 148.473843 206.282136 
L 148.473843 204.709392 
L 148.656323 204.709392 
L 148.656323 203.660897 
L 148.93811 203.660897 
L 149.038742 202.088154 
L 149.054171 202.088154 
L 149.054171 201.039658 
L 149.645373 201.039658 
L 149.645373 199.991163 
L 149.926191 199.991163 
L 149.926191 198.942667 
L 150.331841 198.942667 
L 150.367599 196.845677 
L 150.721141 196.845677 
L 150.721141 196.321429 
L 151.574435 196.321429 
L 151.574435 195.797181 
L 151.74672 195.797181 
L 151.825658 193.70019 
L 152.040885 193.70019 
L 152.040885 193.175943 
L 152.330101 193.175943 
L 152.368298 190.554704 
L 153.114935 190.554704 
L 153.114935 190.030456 
L 153.272519 190.030456 
L 153.272519 189.506209 
L 153.589342 189.506209 
L 153.589342 188.457713 
L 154.045238 188.457713 
L 154.045238 187.933465 
L 154.171668 187.933465 
L 154.194556 186.360722 
L 154.511824 186.360722 
L 154.511824 185.836474 
L 154.751526 185.836474 
L 154.779183 184.263731 
L 155.210354 184.263731 
L 155.210354 183.215236 
L 155.403306 183.215236 
L 155.403306 182.690988 
L 155.588844 182.690988 
L 155.588844 182.16674 
L 156.097943 182.16674 
L 156.097943 181.118245 
L 156.266036 181.118245 
L 156.266036 180.593997 
L 156.878469 180.593997 
L 156.878469 180.06975 
L 157.332225 180.06975 
L 157.332225 179.545502 
L 157.746429 179.545502 
L 157.765022 177.972759 
L 158.232457 177.972759 
L 158.232457 176.924263 
L 158.683112 176.924263 
L 158.718308 175.875768 
L 158.897563 175.875768 
L 158.897563 175.35152 
L 159.173691 175.35152 
L 159.173691 174.827272 
L 159.762689 174.827272 
L 159.762689 174.303025 
L 160.183489 174.303025 
L 160.183489 173.254529 
L 160.451785 173.254529 
L 160.451785 172.206034 
L 160.758944 172.206034 
L 160.758944 171.681786 
L 161.144875 171.681786 
L 161.243814 170.109043 
L 162.617887 170.109043 
L 162.617887 169.584795 
L 162.992095 169.584795 
L 162.992095 169.060547 
L 163.775968 169.060547 
L 163.775968 167.487804 
L 163.951895 167.487804 
L 163.951895 166.963557 
L 164.777716 166.963557 
L 164.777716 166.439309 
L 165.656906 166.439309 
L 165.656906 165.915061 
L 166.921283 165.915061 
L 166.921283 164.342318 
L 177.795696 164.342318 
L 177.795696 163.81807 
L 178.139881 163.81807 
L 178.139881 163.293823 
L 178.452231 163.293823 
L 178.452231 162.769575 
L 178.779539 162.769575 
L 178.827351 161.196832 
L 178.95917 161.196832 
L 178.976759 160.148336 
L 179.095358 160.148336 
L 179.103415 159.099841 
L 179.298302 159.099841 
L 179.298302 158.575593 
L 179.471306 158.575593 
L 179.505436 157.527098 
L 180.184277 157.527098 
L 180.184277 157.00285 
L 180.359865 157.00285 
L 180.397258 155.430107 
L 180.518847 155.430107 
L 180.623615 153.333116 
L 180.643265 153.333116 
L 180.664118 151.236125 
L 180.8858 151.236125 
L 180.951027 149.663382 
L 181.365547 149.663382 
L 181.365547 149.139134 
L 181.482836 149.139134 
L 181.482836 148.614886 
L 181.941873 148.614886 
L 181.941873 148.090639 
L 182.062089 148.090639 
L 182.062089 147.566391 
L 182.569868 147.566391 
L 182.569868 147.042143 
L 182.720627 147.042143 
L 182.720627 145.993648 
L 183.3622 145.993648 
L 183.3622 145.4694 
L 184.579639 145.4694 
L 184.579639 144.945152 
L 189.400075 144.945152 
L 189.4045 143.372409 
L 189.670065 143.372409 
L 189.670065 142.848162 
L 189.834793 142.848162 
L 189.834793 142.323914 
L 190.173693 142.323914 
L 190.173693 141.799666 
L 190.419384 141.799666 
L 190.419384 140.751171 
L 190.744331 140.751171 
L 190.816469 139.702675 
L 190.948391 139.702675 
L 190.948391 139.178427 
L 191.414441 139.178427 
L 191.414441 138.65418 
L 196.171677 138.65418 
L 196.171677 138.129932 
L 196.305927 138.129932 
L 196.305927 137.081437 
L 200.518152 137.081437 
L 200.538995 136.032941 
L 200.862273 136.032941 
L 200.862273 135.508693 
L 201.182556 135.508693 
L 201.182556 134.984446 
L 203.798083 134.984446 
L 203.798083 134.460198 
L 204.08323 134.460198 
L 204.08323 133.411703 
L 204.31889 133.411703 
L 204.31889 132.887455 
L 204.623904 132.887455 
L 204.623904 132.363207 
L 206.928324 132.363207 
L 206.928324 131.838959 
L 207.188607 131.838959 
L 207.188607 131.314712 
L 207.449136 131.314712 
L 207.450426 130.266216 
L 209.375845 130.266216 
L 209.375845 129.741969 
L 209.650008 129.741969 
L 209.650008 129.217721 
L 211.632384 129.217721 
L 211.632384 128.693473 
L 213.581851 128.693473 
L 213.630728 127.12073 
L 213.895054 127.12073 
L 213.895054 126.596482 
L 215.436651 126.596482 
L 215.438759 125.547987 
L 218.571401 125.547987 
L 218.571401 125.023739 
L 220.931353 125.023739 
L 220.931353 124.499491 
L 223.208516 124.499491 
L 223.208516 123.975244 
L 225.268016 123.975244 
L 225.268016 123.450996 
L 226.870149 123.450996 
L 226.870149 122.926748 
L 229.254375 122.926748 
L 229.254375 122.4025 
L 230.643141 122.4025 
L 230.643141 121.878253 
L 231.418663 121.878253 
L 231.418663 121.354005 
L 231.990911 121.354005 
L 231.990911 120.829757 
L 232.664992 120.829757 
L 232.664992 119.781262 
L 233.197829 119.781262 
L 233.255828 118.732766 
L 234.915456 118.732766 
L 234.915456 118.208519 
L 235.359791 118.208519 
L 235.359791 117.684271 
L 236.380647 117.684271 
L 236.380647 117.160023 
L 236.836181 117.160023 
L 236.836181 116.635776 
L 333.168 116.635776 
L 333.168 116.635776 
" style="fill:none;stroke:#ffa500;stroke-linecap:square;stroke-width:1.5;"/>
   </g>
   <g id="line2d_54">
    <defs>
     <path d="M 0 -6 
L -1.347084 -1.854102 
L -5.706339 -1.854102 
L -2.179628 0.708204 
L -3.526712 4.854102 
L -0 2.291796 
L 3.526712 4.854102 
L 2.179628 0.708204 
L 5.706339 -1.854102 
L 1.347084 -1.854102 
z
" id="m8cf59f3430" style="stroke:#ffa500;stroke-linejoin:bevel;stroke-width:1.5;"/>
    </defs>
    <g>
     <use style="fill-opacity:0;stroke:#ffa500;stroke-linejoin:bevel;stroke-width:1.5;" x="73.192638" xlink:href="#m8cf59f3430" y="283.34655"/>
     <use style="fill-opacity:0;stroke:#ffa500;stroke-linejoin:bevel;stroke-width:1.5;" x="149.054171" xlink:href="#m8cf59f3430" y="201.039658"/>
     <use style="fill-opacity:0;stroke:#ffa500;stroke-linejoin:bevel;stroke-width:1.5;" x="200.538995" xlink:href="#m8cf59f3430" y="136.032941"/>
     <use style="fill-opacity:0;stroke:#ffa500;stroke-linejoin:bevel;stroke-width:1.5;" x="236.836181" xlink:href="#m8cf59f3430" y="117.160023"/>
     <use style="fill-opacity:0;stroke:#ffa500;stroke-linejoin:bevel;stroke-width:1.5;" x="236.836181" xlink:href="#m8cf59f3430" y="116.635776"/>
     <use style="fill-opacity:0;stroke:#ffa500;stroke-linejoin:bevel;stroke-width:1.5;" x="333.168" xlink:href="#m8cf59f3430" y="116.635776"/>
    </g>
   </g>
   <g id="line2d_55">
    <path style="fill:none;stroke:#ffa500;stroke-linecap:square;stroke-width:1.5;"/>
    <g/>
   </g>
   <g id="line2d_56">
    <path clip-path="url(#pca923606a2)" d="M 175.027591 164.342318 
" style="fill:none;stroke:#ffa500;stroke-linecap:square;stroke-width:1.5;"/>
    <defs>
     <path d="M -12 12 
L 12 -12 
M -12 -12 
L 12 12 
" id="m8523625412" style="stroke:#ffa500;"/>
    </defs>
    <g clip-path="url(#pca923606a2)">
     <use style="fill:#ffa500;stroke:#ffa500;" x="175.027591" xlink:href="#m8523625412" y="164.342318"/>
    </g>
   </g>
   <g id="line2d_57">
    <defs>
     <path d="M 0 1.5 
C 0.397805 1.5 0.77937 1.341951 1.06066 1.06066 
C 1.341951 0.77937 1.5 0.397805 1.5 0 
C 1.5 -0.397805 1.341951 -0.77937 1.06066 -1.06066 
C 0.77937 -1.341951 0.397805 -1.5 0 -1.5 
C -0.397805 -1.5 -0.77937 -1.341951 -1.06066 -1.06066 
C -1.341951 -0.77937 -1.5 -0.397805 -1.5 0 
C -1.5 0.397805 -1.341951 0.77937 -1.06066 1.06066 
C -0.77937 1.341951 -0.397805 1.5 0 1.5 
z
" id="m97d7b70117" style="stroke:#6495ed;"/>
    </defs>
    <g>
     <use style="fill:#6495ed;stroke:#6495ed;" x="249.213371" xlink:href="#m97d7b70117" y="195.272933"/>
     <use style="fill:#6495ed;stroke:#6495ed;" x="249.213371" xlink:href="#m97d7b70117" y="195.272933"/>
    </g>
   </g>
   <g id="line2d_58">
    <path d="M 16.541714 294.88 
L 16.541714 285.967789 
L 47.339607 285.967789 
L 47.339607 285.443541 
L 56.12 285.443541 
L 56.12 284.395046 
L 59.253858 284.395046 
L 59.253858 283.870798 
L 68.034251 283.870798 
L 68.034251 282.822302 
L 78.137499 282.822302 
L 78.137499 282.298055 
L 78.60845 282.298055 
L 78.60845 281.773807 
L 81.973032 281.773807 
L 81.973032 281.249559 
L 91.427575 281.249559 
L 91.427575 280.201064 
L 92.287186 280.201064 
L 92.287186 279.676816 
L 92.495535 279.676816 
L 92.495535 278.628321 
L 108.036969 278.628321 
L 108.036969 278.104073 
L 108.20385 278.104073 
L 108.20385 277.579825 
L 108.532829 277.579825 
L 108.532829 277.055578 
L 110.457504 277.055578 
L 110.530183 276.007082 
L 112.122219 276.007082 
L 112.122219 274.958587 
L 114.351204 274.958587 
L 114.351204 274.434339 
L 115.420563 274.434339 
L 115.420563 273.910091 
L 115.798351 273.910091 
L 115.798351 272.337348 
L 117.133064 272.337348 
L 117.133064 271.8131 
L 117.952873 271.8131 
L 117.999901 270.240357 
L 118.645127 270.240357 
L 118.645127 269.716109 
L 120.15957 269.716109 
L 120.15957 267.619119 
L 120.528351 267.619119 
L 120.528351 267.094871 
L 123.7027 267.094871 
L 123.7027 266.570623 
L 124.716977 266.570623 
L 124.780403 264.473632 
L 125.432625 264.473632 
L 125.463074 263.425137 
L 127.524746 263.425137 
L 127.524746 261.852394 
L 129.022601 261.852394 
L 129.022601 261.328146 
L 129.31685 261.328146 
L 129.31685 260.803898 
L 129.510254 260.803898 
L 129.510254 259.755403 
L 129.701507 259.755403 
L 129.701507 259.231155 
L 129.890654 259.231155 
L 129.890654 258.706907 
L 134.431058 258.706907 
L 134.431058 258.18266 
L 134.806098 258.18266 
L 134.806098 257.658412 
L 135.121173 257.658412 
L 135.173129 256.609917 
L 136.016705 256.609917 
L 136.016705 256.085669 
L 136.67882 256.085669 
L 136.67882 255.037173 
L 138.496158 255.037173 
L 138.496158 254.512926 
L 139.289942 254.512926 
L 139.384945 252.415935 
L 141.023196 252.415935 
L 141.023196 251.891687 
L 141.206772 251.891687 
L 141.206772 251.367439 
L 142.586342 251.367439 
L 142.586342 250.843192 
L 144.407453 250.843192 
L 144.407453 250.318944 
L 144.648278 250.318944 
L 144.648278 249.794696 
L 145.813566 249.794696 
L 145.813566 248.746201 
L 146.254795 248.746201 
L 146.254795 247.697705 
L 146.922312 247.697705 
L 146.922312 247.173458 
L 147.831886 247.173458 
L 147.831886 246.64921 
L 149.268744 246.64921 
L 149.268744 244.552219 
L 149.435479 244.552219 
L 149.435479 243.503724 
L 150.035789 243.503724 
L 150.035789 242.979476 
L 151.108663 242.979476 
L 151.108663 241.93098 
L 151.527754 241.93098 
L 151.527754 241.406733 
L 151.726929 241.406733 
L 151.832219 239.83399 
L 152.714537 239.83399 
L 152.714537 239.309742 
L 152.89433 239.309742 
L 152.89433 238.785494 
L 154.905834 238.785494 
L 154.905834 238.261246 
L 155.333878 238.261246 
L 155.333878 237.736999 
L 155.693974 237.736999 
L 155.693974 237.212751 
L 156.341902 237.212751 
L 156.341902 236.164255 
L 156.552562 236.164255 
L 156.552562 235.640008 
L 156.795113 235.640008 
L 156.795113 235.11576 
L 157.102017 235.11576 
L 157.102017 234.067265 
L 157.413024 234.067265 
L 157.413024 233.543017 
L 157.549986 233.543017 
L 157.549986 232.494521 
L 158.30464 232.494521 
L 158.30464 231.970274 
L 159.758552 231.970274 
L 159.758552 231.446026 
L 160.074175 231.446026 
L 160.074175 230.921778 
L 161.175378 230.921778 
L 161.175378 230.397531 
L 161.574519 230.397531 
L 161.593119 228.30054 
L 162.712205 228.30054 
L 162.712205 227.776292 
L 163.002374 227.776292 
L 163.002374 226.727797 
L 163.614756 226.727797 
L 163.614756 226.203549 
L 164.285728 226.203549 
L 164.361854 225.155053 
L 164.443946 225.155053 
L 164.443946 224.630806 
L 164.870145 224.630806 
L 164.870145 224.106558 
L 165.277031 224.106558 
L 165.277031 223.58231 
L 165.479884 223.58231 
L 165.479884 222.533815 
L 166.456921 222.533815 
L 166.456921 222.009567 
L 166.707246 222.009567 
L 166.707246 221.485319 
L 167.495185 221.485319 
L 167.495185 220.961072 
L 167.756932 220.961072 
L 167.756932 220.436824 
L 168.07351 220.436824 
L 168.07351 219.912576 
L 168.306545 219.912576 
L 168.306545 218.864081 
L 168.566227 218.864081 
L 168.588516 216.76709 
L 169.018682 216.76709 
L 169.018682 216.242842 
L 169.595448 216.242842 
L 169.595448 215.718594 
L 170.297496 215.718594 
L 170.297496 215.194347 
L 170.693978 215.194347 
L 170.693978 214.670099 
L 170.829202 214.670099 
L 170.829202 214.145851 
L 171.4668 214.145851 
L 171.4668 213.621604 
L 171.637604 213.621604 
L 171.674872 212.573108 
L 172.328248 212.573108 
L 172.328248 212.04886 
L 174.33662 212.04886 
L 174.33662 210.476117 
L 174.472486 210.476117 
L 174.472486 209.95187 
L 175.013973 209.95187 
L 175.013973 208.903374 
L 184.001899 208.903374 
L 184.001899 208.379126 
L 184.91125 208.379126 
L 184.970515 206.806383 
L 185.941641 206.806383 
L 185.941641 206.282136 
L 186.067434 206.282136 
L 186.067434 205.757888 
L 192.474465 205.757888 
L 192.537866 204.709392 
L 192.622446 204.709392 
L 192.622446 204.185145 
L 193.25094 204.185145 
L 193.25094 203.660897 
L 197.870766 203.660897 
L 197.870766 203.136649 
L 198.804968 203.136649 
L 198.804968 202.612401 
L 201.907934 202.612401 
L 201.907934 202.088154 
L 205.152513 202.088154 
L 205.174914 201.039658 
L 208.101587 201.039658 
L 208.19524 199.991163 
L 210.555878 199.991163 
L 210.555878 199.466915 
L 214.410439 199.466915 
L 214.410439 198.942667 
L 218.96542 198.942667 
L 218.96542 198.41842 
L 221.445222 198.41842 
L 221.445222 197.894172 
L 225.535882 197.894172 
L 225.535882 197.369924 
L 226.390312 197.369924 
L 226.390312 196.845677 
L 236.569311 196.845677 
L 236.569311 196.321429 
L 245.371351 196.321429 
L 245.371351 195.797181 
L 249.213371 195.797181 
L 249.213371 195.272933 
L 333.168 195.272933 
L 333.168 195.272933 
" style="fill:none;stroke:#6495ed;stroke-linecap:square;stroke-width:1.5;"/>
   </g>
   <g id="line2d_59">
    <defs>
     <path d="M -0 6 
L 6 -6 
L -6 -6 
z
" id="me79226fcd8" style="stroke:#6495ed;stroke-linejoin:miter;stroke-width:1.5;"/>
    </defs>
    <g>
     <use style="fill-opacity:0;stroke:#6495ed;stroke-linejoin:miter;stroke-width:1.5;" x="92.495535" xlink:href="#me79226fcd8" y="279.676816"/>
     <use style="fill-opacity:0;stroke:#6495ed;stroke-linejoin:miter;stroke-width:1.5;" x="146.922312" xlink:href="#me79226fcd8" y="247.173458"/>
     <use style="fill-opacity:0;stroke:#6495ed;stroke-linejoin:miter;stroke-width:1.5;" x="205.174914" xlink:href="#me79226fcd8" y="201.563906"/>
     <use style="fill-opacity:0;stroke:#6495ed;stroke-linejoin:miter;stroke-width:1.5;" x="249.213371" xlink:href="#me79226fcd8" y="195.797181"/>
     <use style="fill-opacity:0;stroke:#6495ed;stroke-linejoin:miter;stroke-width:1.5;" x="249.213371" xlink:href="#me79226fcd8" y="195.272933"/>
     <use style="fill-opacity:0;stroke:#6495ed;stroke-linejoin:miter;stroke-width:1.5;" x="333.168" xlink:href="#me79226fcd8" y="195.272933"/>
    </g>
   </g>
   <g id="line2d_60">
    <path style="fill:none;stroke:#6495ed;stroke-linecap:square;stroke-width:1.5;"/>
    <g/>
   </g>
   <g id="line2d_61">
    <path clip-path="url(#pca923606a2)" d="M 175.027591 208.903374 
" style="fill:none;stroke:#6495ed;stroke-linecap:square;stroke-width:1.5;"/>
    <defs>
     <path d="M -12 12 
L 12 -12 
M -12 -12 
L 12 12 
" id="m819bbc4e0b" style="stroke:#6495ed;"/>
    </defs>
    <g clip-path="url(#pca923606a2)">
     <use style="fill:#6495ed;stroke:#6495ed;" x="175.027591" xlink:href="#m819bbc4e0b" y="208.903374"/>
    </g>
   </g>
   <g id="line2d_62">
    <path d="M 333.168 226.727797 
L 363.64328 289.532673 
" style="fill:none;stroke:#ff00ff;stroke-linecap:square;stroke-width:1.5;"/>
    <g>
     <use style="fill-opacity:0;stroke:#ff00ff;stroke-linejoin:miter;stroke-width:1.5;" x="333.168" xlink:href="#m2b5d281e73" y="226.727797"/>
     <use style="fill-opacity:0;stroke:#ff00ff;stroke-linejoin:miter;stroke-width:1.5;" x="363.64328" xlink:href="#m2b5d281e73" y="289.532673"/>
    </g>
   </g>
   <g id="line2d_63">
    <path d="M 333.168 195.272933 
L 363.64328 225.364752 
" style="fill:none;stroke:#6495ed;stroke-linecap:square;stroke-width:1.5;"/>
    <g>
     <use style="fill-opacity:0;stroke:#6495ed;stroke-linejoin:miter;stroke-width:1.5;" x="333.168" xlink:href="#me79226fcd8" y="195.272933"/>
     <use style="fill-opacity:0;stroke:#6495ed;stroke-linejoin:miter;stroke-width:1.5;" x="363.64328" xlink:href="#me79226fcd8" y="225.364752"/>
    </g>
   </g>
   <g id="line2d_64">
    <path d="M 333.168 116.635776 
L 363.64328 161.196832 
" style="fill:none;stroke:#ffa500;stroke-linecap:square;stroke-width:1.5;"/>
    <g>
     <use style="fill-opacity:0;stroke:#ffa500;stroke-linejoin:bevel;stroke-width:1.5;" x="333.168" xlink:href="#m8cf59f3430" y="116.635776"/>
     <use style="fill-opacity:0;stroke:#ffa500;stroke-linejoin:bevel;stroke-width:1.5;" x="363.64328" xlink:href="#m8cf59f3430" y="161.196832"/>
    </g>
   </g>
   <g id="line2d_65">
    <path d="M 333.168 74.695958 
L 363.64328 97.028911 
" style="fill:none;stroke:#000080;stroke-linecap:square;stroke-width:1.5;"/>
    <g>
     <use style="fill-opacity:0;stroke:#000080;stroke-width:1.5;" x="333.168" xlink:href="#m7229d66253" y="74.695958"/>
     <use style="fill-opacity:0;stroke:#000080;stroke-width:1.5;" x="363.64328" xlink:href="#m7229d66253" y="97.028911"/>
    </g>
   </g>
   <g id="line2d_66">
    <path d="M 333.168 294.88 
L 333.168 27.513663 
" style="fill:none;stroke:#000000;stroke-linecap:square;stroke-width:1.5;"/>
   </g>
   <g id="patch_3">
    <path d="M 56.12 294.88 
L 56.12 24.84 
" style="fill:none;stroke:#000000;stroke-linecap:square;stroke-linejoin:miter;stroke-width:0.8;"/>
   </g>
   <g id="patch_4">
    <path d="M 333.168 294.88 
L 333.168 24.84 
" style="fill:none;stroke:#000000;stroke-linecap:square;stroke-linejoin:miter;stroke-width:0.8;"/>
   </g>
   <g id="patch_5">
    <path d="M 56.12 294.88 
L 333.168 294.88 
" style="fill:none;stroke:#000000;stroke-linecap:square;stroke-linejoin:miter;stroke-width:0.8;"/>
   </g>
   <g id="patch_6">
    <path d="M 56.12 24.84 
L 333.168 24.84 
" style="fill:none;stroke:#000000;stroke-linecap:square;stroke-linejoin:miter;stroke-width:0.8;"/>
   </g>
   <g id="text_13">
    <!-- PSO 2 -->
    <defs>
     <path d="M 19.671875 64.796875 
L 19.671875 37.40625 
L 32.078125 37.40625 
Q 38.96875 37.40625 42.71875 40.96875 
Q 46.484375 44.53125 46.484375 51.125 
Q 46.484375 57.671875 42.71875 61.234375 
Q 38.96875 64.796875 32.078125 64.796875 
z
M 9.8125 72.90625 
L 32.078125 72.90625 
Q 44.34375 72.90625 50.609375 67.359375 
Q 56.890625 61.8125 56.890625 51.125 
Q 56.890625 40.328125 50.609375 34.8125 
Q 44.34375 29.296875 32.078125 29.296875 
L 19.671875 29.296875 
L 19.671875 0 
L 9.8125 0 
z
" id="DejaVuSans-50"/>
     <path d="M 53.515625 70.515625 
L 53.515625 60.890625 
Q 47.90625 63.578125 42.921875 64.890625 
Q 37.9375 66.21875 33.296875 66.21875 
Q 25.25 66.21875 20.875 63.09375 
Q 16.5 59.96875 16.5 54.203125 
Q 16.5 49.359375 19.40625 46.890625 
Q 22.3125 44.4375 30.421875 42.921875 
L 36.375 41.703125 
Q 47.40625 39.59375 52.65625 34.296875 
Q 57.90625 29 57.90625 20.125 
Q 57.90625 9.515625 50.796875 4.046875 
Q 43.703125 -1.421875 29.984375 -1.421875 
Q 24.8125 -1.421875 18.96875 -0.25 
Q 13.140625 0.921875 6.890625 3.21875 
L 6.890625 13.375 
Q 12.890625 10.015625 18.65625 8.296875 
Q 24.421875 6.59375 29.984375 6.59375 
Q 38.421875 6.59375 43.015625 9.90625 
Q 47.609375 13.234375 47.609375 19.390625 
Q 47.609375 24.75 44.3125 27.78125 
Q 41.015625 30.8125 33.5 32.328125 
L 27.484375 33.5 
Q 16.453125 35.6875 11.515625 40.375 
Q 6.59375 45.0625 6.59375 53.421875 
Q 6.59375 63.09375 13.40625 68.65625 
Q 20.21875 74.21875 32.171875 74.21875 
Q 37.3125 74.21875 42.625 73.28125 
Q 47.953125 72.359375 53.515625 70.515625 
z
" id="DejaVuSans-53"/>
     <path d="M 39.40625 66.21875 
Q 28.65625 66.21875 22.328125 58.203125 
Q 16.015625 50.203125 16.015625 36.375 
Q 16.015625 22.609375 22.328125 14.59375 
Q 28.65625 6.59375 39.40625 6.59375 
Q 50.140625 6.59375 56.421875 14.59375 
Q 62.703125 22.609375 62.703125 36.375 
Q 62.703125 50.203125 56.421875 58.203125 
Q 50.140625 66.21875 39.40625 66.21875 
z
M 39.40625 74.21875 
Q 54.734375 74.21875 63.90625 63.9375 
Q 73.09375 53.65625 73.09375 36.375 
Q 73.09375 19.140625 63.90625 8.859375 
Q 54.734375 -1.421875 39.40625 -1.421875 
Q 24.03125 -1.421875 14.8125 8.828125 
Q 5.609375 19.09375 5.609375 36.375 
Q 5.609375 53.65625 14.8125 63.9375 
Q 24.03125 74.21875 39.40625 74.21875 
z
" id="DejaVuSans-4f"/>
    </defs>
    <g transform="translate(369.18424 294.223611)scale(0.17 -0.17)">
     <use xlink:href="#DejaVuSans-50"/>
     <use x="60.302734" xlink:href="#DejaVuSans-53"/>
     <use x="123.779297" xlink:href="#DejaVuSans-4f"/>
     <use x="202.490234" xlink:href="#DejaVuSans-20"/>
     <use x="234.277344" xlink:href="#DejaVuSans-32"/>
    </g>
   </g>
   <g id="text_14">
    <!-- PSO 4 -->
    <g transform="translate(369.18424 230.05569)scale(0.17 -0.17)">
     <use xlink:href="#DejaVuSans-50"/>
     <use x="60.302734" xlink:href="#DejaVuSans-53"/>
     <use x="123.779297" xlink:href="#DejaVuSans-4f"/>
     <use x="202.490234" xlink:href="#DejaVuSans-20"/>
     <use x="234.277344" xlink:href="#DejaVuSans-34"/>
    </g>
   </g>
   <g id="text_15">
    <!-- PSO 3 -->
    <defs>
     <path d="M 40.578125 39.3125 
Q 47.65625 37.796875 51.625 33 
Q 55.609375 28.21875 55.609375 21.1875 
Q 55.609375 10.40625 48.1875 4.484375 
Q 40.765625 -1.421875 27.09375 -1.421875 
Q 22.515625 -1.421875 17.65625 -0.515625 
Q 12.796875 0.390625 7.625 2.203125 
L 7.625 11.71875 
Q 11.71875 9.328125 16.59375 8.109375 
Q 21.484375 6.890625 26.8125 6.890625 
Q 36.078125 6.890625 40.9375 10.546875 
Q 45.796875 14.203125 45.796875 21.1875 
Q 45.796875 27.640625 41.28125 31.265625 
Q 36.765625 34.90625 28.71875 34.90625 
L 20.21875 34.90625 
L 20.21875 43.015625 
L 29.109375 43.015625 
Q 36.375 43.015625 40.234375 45.921875 
Q 44.09375 48.828125 44.09375 54.296875 
Q 44.09375 59.90625 40.109375 62.90625 
Q 36.140625 65.921875 28.71875 65.921875 
Q 24.65625 65.921875 20.015625 65.03125 
Q 15.375 64.15625 9.8125 62.3125 
L 9.8125 71.09375 
Q 15.4375 72.65625 20.34375 73.4375 
Q 25.25 74.21875 29.59375 74.21875 
Q 40.828125 74.21875 47.359375 69.109375 
Q 53.90625 64.015625 53.90625 55.328125 
Q 53.90625 49.265625 50.4375 45.09375 
Q 46.96875 40.921875 40.578125 39.3125 
z
" id="DejaVuSans-33"/>
    </defs>
    <g transform="translate(369.18424 165.887769)scale(0.17 -0.17)">
     <use xlink:href="#DejaVuSans-50"/>
     <use x="60.302734" xlink:href="#DejaVuSans-53"/>
     <use x="123.779297" xlink:href="#DejaVuSans-4f"/>
     <use x="202.490234" xlink:href="#DejaVuSans-20"/>
     <use x="234.277344" xlink:href="#DejaVuSans-33"/>
    </g>
   </g>
   <g id="text_16">
    <!-- PSO 1 -->
    <g transform="translate(369.18424 101.719848)scale(0.17 -0.17)">
     <use xlink:href="#DejaVuSans-50"/>
     <use x="60.302734" xlink:href="#DejaVuSans-53"/>
     <use x="123.779297" xlink:href="#DejaVuSans-4f"/>
     <use x="202.490234" xlink:href="#DejaVuSans-20"/>
     <use x="234.277344" xlink:href="#DejaVuSans-31"/>
    </g>
   </g>
   <g id="text_17">
    <!-- best 2009 -->
    <defs>
     <path d="M 48.6875 27.296875 
Q 48.6875 37.203125 44.609375 42.84375 
Q 40.53125 48.484375 33.40625 48.484375 
Q 26.265625 48.484375 22.1875 42.84375 
Q 18.109375 37.203125 18.109375 27.296875 
Q 18.109375 17.390625 22.1875 11.75 
Q 26.265625 6.109375 33.40625 6.109375 
Q 40.53125 6.109375 44.609375 11.75 
Q 48.6875 17.390625 48.6875 27.296875 
z
M 18.109375 46.390625 
Q 20.953125 51.265625 25.265625 53.625 
Q 29.59375 56 35.59375 56 
Q 45.5625 56 51.78125 48.09375 
Q 58.015625 40.1875 58.015625 27.296875 
Q 58.015625 14.40625 51.78125 6.484375 
Q 45.5625 -1.421875 35.59375 -1.421875 
Q 29.59375 -1.421875 25.265625 0.953125 
Q 20.953125 3.328125 18.109375 8.203125 
L 18.109375 0 
L 9.078125 0 
L 9.078125 75.984375 
L 18.109375 75.984375 
z
" id="DejaVuSans-62"/>
     <path d="M 10.984375 1.515625 
L 10.984375 10.5 
Q 14.703125 8.734375 18.5 7.8125 
Q 22.3125 6.890625 25.984375 6.890625 
Q 35.75 6.890625 40.890625 13.453125 
Q 46.046875 20.015625 46.78125 33.40625 
Q 43.953125 29.203125 39.59375 26.953125 
Q 35.25 24.703125 29.984375 24.703125 
Q 19.046875 24.703125 12.671875 31.3125 
Q 6.296875 37.9375 6.296875 49.421875 
Q 6.296875 60.640625 12.9375 67.421875 
Q 19.578125 74.21875 30.609375 74.21875 
Q 43.265625 74.21875 49.921875 64.515625 
Q 56.59375 54.828125 56.59375 36.375 
Q 56.59375 19.140625 48.40625 8.859375 
Q 40.234375 -1.421875 26.421875 -1.421875 
Q 22.703125 -1.421875 18.890625 -0.6875 
Q 15.09375 0.046875 10.984375 1.515625 
z
M 30.609375 32.421875 
Q 37.25 32.421875 41.125 36.953125 
Q 45.015625 41.5 45.015625 49.421875 
Q 45.015625 57.28125 41.125 61.84375 
Q 37.25 66.40625 30.609375 66.40625 
Q 23.96875 66.40625 20.09375 61.84375 
Q 16.21875 57.28125 16.21875 49.421875 
Q 16.21875 41.5 20.09375 36.953125 
Q 23.96875 32.421875 30.609375 32.421875 
z
" id="DejaVuSans-39"/>
    </defs>
    <g transform="translate(369.18424 37.551928)scale(0.17 -0.17)">
     <use xlink:href="#DejaVuSans-62"/>
     <use x="63.476562" xlink:href="#DejaVuSans-65"/>
     <use x="125" xlink:href="#DejaVuSans-73"/>
     <use x="177.099609" xlink:href="#DejaVuSans-74"/>
     <use x="216.308594" xlink:href="#DejaVuSans-20"/>
     <use x="248.095703" xlink:href="#DejaVuSans-32"/>
     <use x="311.71875" xlink:href="#DejaVuSans-30"/>
     <use x="375.341797" xlink:href="#DejaVuSans-30"/>
     <use x="438.964844" xlink:href="#DejaVuSans-39"/>
    </g>
   </g>
   <g id="text_18">
    <!-- bbob f1, 10-D -->
    <defs>
     <path d="M 19.671875 64.796875 
L 19.671875 8.109375 
L 31.59375 8.109375 
Q 46.6875 8.109375 53.6875 14.9375 
Q 60.6875 21.78125 60.6875 36.53125 
Q 60.6875 51.171875 53.6875 57.984375 
Q 46.6875 64.796875 31.59375 64.796875 
z
M 9.8125 72.90625 
L 30.078125 72.90625 
Q 51.265625 72.90625 61.171875 64.09375 
Q 71.09375 55.28125 71.09375 36.53125 
Q 71.09375 17.671875 61.125 8.828125 
Q 51.171875 0 30.078125 0 
L 9.8125 0 
z
" id="DejaVuSans-44"/>
    </defs>
    <g transform="translate(58.89048 35.290806)scale(0.102 -0.102)">
     <use xlink:href="#DejaVuSans-62"/>
     <use x="63.476562" xlink:href="#DejaVuSans-62"/>
     <use x="126.953125" xlink:href="#DejaVuSans-6f"/>
     <use x="188.134766" xlink:href="#DejaVuSans-62"/>
     <use x="251.611328" xlink:href="#DejaVuSans-20"/>
     <use x="283.398438" xlink:href="#DejaVuSans-66"/>
     <use x="318.603516" xlink:href="#DejaVuSans-31"/>
     <use x="382.226562" xlink:href="#DejaVuSans-2c"/>
     <use x="414.013672" xlink:href="#DejaVuSans-20"/>
     <use x="445.800781" xlink:href="#DejaVuSans-31"/>
     <use x="509.423828" xlink:href="#DejaVuSans-30"/>
     <use x="573.046875" xlink:href="#DejaVuSans-2d"/>
     <use x="609.130859" xlink:href="#DejaVuSans-44"/>
    </g>
    <!-- 51 targets: 100..1e-08 -->
    <defs>
     <path d="M 10.796875 72.90625 
L 49.515625 72.90625 
L 49.515625 64.59375 
L 19.828125 64.59375 
L 19.828125 46.734375 
Q 21.96875 47.46875 24.109375 47.828125 
Q 26.265625 48.1875 28.421875 48.1875 
Q 40.625 48.1875 47.75 41.5 
Q 54.890625 34.8125 54.890625 23.390625 
Q 54.890625 11.625 47.5625 5.09375 
Q 40.234375 -1.421875 26.90625 -1.421875 
Q 22.3125 -1.421875 17.546875 -0.640625 
Q 12.796875 0.140625 7.71875 1.703125 
L 7.71875 11.625 
Q 12.109375 9.234375 16.796875 8.0625 
Q 21.484375 6.890625 26.703125 6.890625 
Q 35.15625 6.890625 40.078125 11.328125 
Q 45.015625 15.765625 45.015625 23.390625 
Q 45.015625 31 40.078125 35.4375 
Q 35.15625 39.890625 26.703125 39.890625 
Q 22.75 39.890625 18.8125 39.015625 
Q 14.890625 38.140625 10.796875 36.28125 
z
" id="DejaVuSans-35"/>
     <path d="M 11.71875 12.40625 
L 22.015625 12.40625 
L 22.015625 0 
L 11.71875 0 
z
M 11.71875 51.703125 
L 22.015625 51.703125 
L 22.015625 39.3125 
L 11.71875 39.3125 
z
" id="DejaVuSans-3a"/>
    </defs>
    <g transform="translate(58.89048 46.712575)scale(0.102 -0.102)">
     <use xlink:href="#DejaVuSans-35"/>
     <use x="63.623047" xlink:href="#DejaVuSans-31"/>
     <use x="127.246094" xlink:href="#DejaVuSans-20"/>
     <use x="159.033203" xlink:href="#DejaVuSans-74"/>
     <use x="198.242188" xlink:href="#DejaVuSans-61"/>
     <use x="259.521484" xlink:href="#DejaVuSans-72"/>
     <use x="300.619141" xlink:href="#DejaVuSans-67"/>
     <use x="364.095703" xlink:href="#DejaVuSans-65"/>
     <use x="425.619141" xlink:href="#DejaVuSans-74"/>
     <use x="464.828125" xlink:href="#DejaVuSans-73"/>
     <use x="516.927734" xlink:href="#DejaVuSans-3a"/>
     <use x="550.619141" xlink:href="#DejaVuSans-20"/>
     <use x="582.40625" xlink:href="#DejaVuSans-31"/>
     <use x="646.029297" xlink:href="#DejaVuSans-30"/>
     <use x="709.652344" xlink:href="#DejaVuSans-30"/>
     <use x="773.275391" xlink:href="#DejaVuSans-2e"/>
     <use x="805.0625" xlink:href="#DejaVuSans-2e"/>
     <use x="836.849609" xlink:href="#DejaVuSans-31"/>
     <use x="900.472656" xlink:href="#DejaVuSans-65"/>
     <use x="961.996094" xlink:href="#DejaVuSans-2d"/>
     <use x="998.080078" xlink:href="#DejaVuSans-30"/>
     <use x="1061.703125" xlink:href="#DejaVuSans-38"/>
    </g>
    <!-- 15 instances -->
    <g transform="translate(58.89048 58.134344)scale(0.102 -0.102)">
     <use xlink:href="#DejaVuSans-31"/>
     <use x="63.623047" xlink:href="#DejaVuSans-35"/>
     <use x="127.246094" xlink:href="#DejaVuSans-20"/>
     <use x="159.033203" xlink:href="#DejaVuSans-69"/>
     <use x="186.816406" xlink:href="#DejaVuSans-6e"/>
     <use x="250.195312" xlink:href="#DejaVuSans-73"/>
     <use x="302.294922" xlink:href="#DejaVuSans-74"/>
     <use x="341.503906" xlink:href="#DejaVuSans-61"/>
     <use x="402.783203" xlink:href="#DejaVuSans-6e"/>
     <use x="466.162109" xlink:href="#DejaVuSans-63"/>
     <use x="521.142578" xlink:href="#DejaVuSans-65"/>
     <use x="582.666016" xlink:href="#DejaVuSans-73"/>
    </g>
   </g>
   <g id="text_19">
    <!-- v0.0.0 -->
    <g style="fill:#808080;" transform="translate(178.96275 290.099912)scale(0.1 -0.1)">
     <use xlink:href="#DejaVuSans-76"/>
     <use x="59.179688" xlink:href="#DejaVuSans-30"/>
     <use x="122.802734" xlink:href="#DejaVuSans-2e"/>
     <use x="154.589844" xlink:href="#DejaVuSans-30"/>
     <use x="218.212891" xlink:href="#DejaVuSans-2e"/>
     <use x="250" xlink:href="#DejaVuSans-30"/>
    </g>
   </g>
   <g id="text_20">
    <!-- 1 Sphere -->
    <defs>
     <path d="M 54.890625 33.015625 
L 54.890625 0 
L 45.90625 0 
L 45.90625 32.71875 
Q 45.90625 40.484375 42.875 44.328125 
Q 39.84375 48.1875 33.796875 48.1875 
Q 26.515625 48.1875 22.3125 43.546875 
Q 18.109375 38.921875 18.109375 30.90625 
L 18.109375 0 
L 9.078125 0 
L 9.078125 75.984375 
L 18.109375 75.984375 
L 18.109375 46.1875 
Q 21.34375 51.125 25.703125 53.5625 
Q 30.078125 56 35.796875 56 
Q 45.21875 56 50.046875 50.171875 
Q 54.890625 44.34375 54.890625 33.015625 
z
" id="DejaVuSans-68"/>
    </defs>
    <g transform="translate(149.654938 18.84)scale(0.2 -0.2)">
     <use xlink:href="#DejaVuSans-31"/>
     <use x="63.623047" xlink:href="#DejaVuSans-20"/>
     <use x="95.410156" xlink:href="#DejaVuSans-53"/>
     <use x="158.886719" xlink:href="#DejaVuSans-70"/>
     <use x="222.363281" xlink:href="#DejaVuSans-68"/>
     <use x="285.742188" xlink:href="#DejaVuSans-65"/>
     <use x="347.265625" xlink:href="#DejaVuSans-72"/>
     <use x="388.347656" xlink:href="#DejaVuSans-65"/>
    </g>
   </g>
  </g>
 </g>
 <defs>
  <clipPath id="pca923606a2">
   <rect height="270.04" width="277.048" x="56.12" y="24.84"/>
  </clipPath>
 </defs>
</svg>
