<?xml version="1.0" encoding="utf-8" standalone="no"?>
<!DOCTYPE svg PUBLIC "-//W3C//DTD SVG 1.1//EN"
  "http://www.w3.org/Graphics/SVG/1.1/DTD/svg11.dtd">
<!-- Created with matplotlib (http://matplotlib.org/) -->
<svg height="345.6pt" version="1.1" viewBox="0 0 460.8 345.6" width="460.8pt" xmlns="http://www.w3.org/2000/svg" xmlns:xlink="http://www.w3.org/1999/xlink">
 <defs>
  <style type="text/css">
*{stroke-linecap:butt;stroke-linejoin:round;}
  </style>
 </defs>
 <g id="figure_1">
  <g id="patch_1">
   <path d="M 0 345.6 
L 460.8 345.6 
L 460.8 0 
L 0 0 
z
" style="fill:#ffffff;"/>
  </g>
  <g id="axes_1">
   <g id="patch_2">
    <path d="M 56.12 294.88 
L 333.168 294.88 
L 333.168 24.84 
L 56.12 24.84 
z
" style="fill:#ffffff;"/>
   </g>
   <g id="line2d_1">
    <path d="M 63.08939 294.88 
L 63.08939 289.637523 
L 68.034251 289.637523 
L 68.034251 284.395046 
L 77.653281 284.395046 
L 77.653281 279.152568 
L 81.973032 279.152568 
L 81.973032 273.910091 
L 85.422286 273.910091 
L 85.422286 268.667614 
L 94.816624 268.667614 
L 94.816624 263.425137 
L 103.777005 263.425137 
L 103.777005 258.18266 
L 110.014853 258.18266 
L 110.014853 252.940182 
L 116.220179 252.940182 
L 116.220179 247.697705 
L 124.036471 247.697705 
L 124.036471 242.455228 
L 128.39291 242.455228 
L 128.39291 237.212751 
L 129.867125 237.212751 
L 129.867125 231.970274 
L 134.929315 231.970274 
L 134.929315 226.727797 
L 137.453213 226.727797 
L 137.453213 221.485319 
L 152.758108 221.485319 
L 152.758108 216.242842 
L 155.954019 216.242842 
L 155.954019 211.000365 
L 156.562529 211.000365 
L 156.562529 205.757888 
L 157.389299 205.757888 
L 157.389299 200.515411 
L 166.442907 200.515411 
L 166.442907 195.272933 
L 166.693434 195.272933 
L 166.693434 190.030456 
L 166.762382 190.030456 
L 166.762382 184.787979 
L 170.081029 184.787979 
L 170.081029 179.545502 
L 170.20538 179.545502 
L 170.20538 174.303025 
L 170.683027 174.303025 
L 170.683027 169.060547 
L 171.062243 169.060547 
L 171.062243 163.81807 
L 172.142077 163.81807 
L 172.142077 158.575593 
L 173.205429 158.575593 
L 173.205429 153.333116 
L 173.318575 153.333116 
L 173.318575 148.090639 
L 173.727184 148.090639 
L 173.727184 142.848162 
L 174.224653 142.848162 
L 174.224653 137.605684 
L 175.471064 137.605684 
L 175.471064 132.363207 
L 175.603221 132.363207 
L 175.603221 127.12073 
L 175.636102 127.12073 
L 175.636102 121.878253 
L 178.010187 121.878253 
L 178.010187 116.635776 
L 178.067316 116.635776 
L 178.067316 111.393298 
L 178.258736 111.393298 
L 178.258736 106.150821 
L 178.434096 106.150821 
L 178.434096 100.908344 
L 179.278381 100.908344 
L 179.278381 95.665867 
L 179.357927 95.665867 
L 179.357927 90.42339 
L 179.437107 90.42339 
L 179.437107 85.180912 
L 179.50937 85.180912 
L 179.50937 79.938435 
L 180.08313 79.938435 
L 180.08313 74.695958 
L 180.378572 74.695958 
L 180.378572 69.453481 
L 180.619928 69.453481 
L 180.619928 64.211004 
L 180.900316 64.211004 
L 180.900316 58.968526 
L 180.990767 58.968526 
L 180.990767 53.726049 
L 181.098683 53.726049 
L 181.098683 48.483572 
L 181.188099 48.483572 
L 181.188099 43.241095 
L 181.241526 43.241095 
L 181.241526 37.998618 
L 181.359661 37.998618 
L 181.359661 32.756141 
L 181.418426 32.756141 
L 181.418426 27.513663 
L 333.168 27.513663 
" style="fill:none;stroke:#f5deb3;stroke-linecap:square;stroke-width:4;"/>
   </g>
   <g id="line2d_2">
    <defs>
     <path d="M -0 7.778175 
L 7.778175 0 
L 0 -7.778175 
L -7.778175 -0 
z
" id="mb3e9c2c1e2" style="stroke:#f5deb3;stroke-linejoin:miter;stroke-width:1.5;"/>
    </defs>
    <g>
     <use style="fill:#f5deb3;stroke:#f5deb3;stroke-linejoin:miter;stroke-width:1.5;" x="152.758108" xlink:href="#mb3e9c2c1e2" y="221.485319"/>
     <use style="fill:#f5deb3;stroke:#f5deb3;stroke-linejoin:miter;stroke-width:1.5;" x="180.990767" xlink:href="#mb3e9c2c1e2" y="58.968526"/>
     <use style="fill:#f5deb3;stroke:#f5deb3;stroke-linejoin:miter;stroke-width:1.5;" x="181.418426" xlink:href="#mb3e9c2c1e2" y="27.513663"/>
     <use style="fill:#f5deb3;stroke:#f5deb3;stroke-linejoin:miter;stroke-width:1.5;" x="181.418426" xlink:href="#mb3e9c2c1e2" y="27.513663"/>
     <use style="fill:#f5deb3;stroke:#f5deb3;stroke-linejoin:miter;stroke-width:1.5;" x="333.168" xlink:href="#mb3e9c2c1e2" y="27.513663"/>
    </g>
   </g>
   <g id="line2d_3">
    <path style="fill:none;stroke:#f5deb3;stroke-linecap:square;stroke-width:4;"/>
    <g/>
   </g>
   <g id="line2d_4">
    <path d="M 333.168 27.513663 
L 363.64328 32.86099 
" style="fill:none;stroke:#f5deb3;stroke-linecap:square;stroke-width:4;"/>
    <g>
     <use style="fill:#f5deb3;stroke:#f5deb3;stroke-linejoin:miter;stroke-width:1.5;" x="333.168" xlink:href="#mb3e9c2c1e2" y="27.513663"/>
     <use style="fill:#f5deb3;stroke:#f5deb3;stroke-linejoin:miter;stroke-width:1.5;" x="363.64328" xlink:href="#mb3e9c2c1e2" y="32.86099"/>
    </g>
   </g>
   <g id="matplotlib.axis_1">
    <g id="xtick_1">
     <g id="line2d_5">
      <path clip-path="url(#p55e5b0ac07)" d="M 56.12 294.88 
L 56.12 24.84 
" style="fill:none;stroke:#b0b0b0;stroke-linecap:square;stroke-width:0.8;"/>
     </g>
     <g id="line2d_6">
      <defs>
       <path d="M 0 0 
L 0 3.5 
" id="m5e5202a655" style="stroke:#000000;stroke-width:0.8;"/>
      </defs>
      <g>
       <use style="stroke:#000000;stroke-width:0.8;" x="56.12" xlink:href="#m5e5202a655" y="294.88"/>
      </g>
     </g>
     <g id="text_1">
      <!-- 0 -->
      <defs>
       <path d="M 31.78125 66.40625 
Q 24.171875 66.40625 20.328125 58.90625 
Q 16.5 51.421875 16.5 36.375 
Q 16.5 21.390625 20.328125 13.890625 
Q 24.171875 6.390625 31.78125 6.390625 
Q 39.453125 6.390625 43.28125 13.890625 
Q 47.125 21.390625 47.125 36.375 
Q 47.125 51.421875 43.28125 58.90625 
Q 39.453125 66.40625 31.78125 66.40625 
z
M 31.78125 74.21875 
Q 44.046875 74.21875 50.515625 64.515625 
Q 56.984375 54.828125 56.984375 36.375 
Q 56.984375 17.96875 50.515625 8.265625 
Q 44.046875 -1.421875 31.78125 -1.421875 
Q 19.53125 -1.421875 13.0625 8.265625 
Q 6.59375 17.96875 6.59375 36.375 
Q 6.59375 54.828125 13.0625 64.515625 
Q 19.53125 74.21875 31.78125 74.21875 
z
" id="DejaVuSans-30"/>
      </defs>
      <g transform="translate(49.7575 317.076875)scale(0.2 -0.2)">
       <use xlink:href="#DejaVuSans-30"/>
      </g>
     </g>
    </g>
    <g id="xtick_2">
     <g id="line2d_7">
      <path clip-path="url(#p55e5b0ac07)" d="M 135.276571 294.88 
L 135.276571 24.84 
" style="fill:none;stroke:#b0b0b0;stroke-linecap:square;stroke-width:0.8;"/>
     </g>
     <g id="line2d_8">
      <g>
       <use style="stroke:#000000;stroke-width:0.8;" x="135.276571" xlink:href="#m5e5202a655" y="294.88"/>
      </g>
     </g>
     <g id="text_2">
      <!-- 2 -->
      <defs>
       <path d="M 19.1875 8.296875 
L 53.609375 8.296875 
L 53.609375 0 
L 7.328125 0 
L 7.328125 8.296875 
Q 12.9375 14.109375 22.625 23.890625 
Q 32.328125 33.6875 34.8125 36.53125 
Q 39.546875 41.84375 41.421875 45.53125 
Q 43.3125 49.21875 43.3125 52.78125 
Q 43.3125 58.59375 39.234375 62.25 
Q 35.15625 65.921875 28.609375 65.921875 
Q 23.96875 65.921875 18.8125 64.3125 
Q 13.671875 62.703125 7.8125 59.421875 
L 7.8125 69.390625 
Q 13.765625 71.78125 18.9375 73 
Q 24.125 74.21875 28.421875 74.21875 
Q 39.75 74.21875 46.484375 68.546875 
Q 53.21875 62.890625 53.21875 53.421875 
Q 53.21875 48.921875 51.53125 44.890625 
Q 49.859375 40.875 45.40625 35.40625 
Q 44.1875 33.984375 37.640625 27.21875 
Q 31.109375 20.453125 19.1875 8.296875 
z
" id="DejaVuSans-32"/>
      </defs>
      <g transform="translate(128.914071 317.076875)scale(0.2 -0.2)">
       <use xlink:href="#DejaVuSans-32"/>
      </g>
     </g>
    </g>
    <g id="xtick_3">
     <g id="line2d_9">
      <path clip-path="url(#p55e5b0ac07)" d="M 214.433143 294.88 
L 214.433143 24.84 
" style="fill:none;stroke:#b0b0b0;stroke-linecap:square;stroke-width:0.8;"/>
     </g>
     <g id="line2d_10">
      <g>
       <use style="stroke:#000000;stroke-width:0.8;" x="214.433143" xlink:href="#m5e5202a655" y="294.88"/>
      </g>
     </g>
     <g id="text_3">
      <!-- 4 -->
      <defs>
       <path d="M 37.796875 64.3125 
L 12.890625 25.390625 
L 37.796875 25.390625 
z
M 35.203125 72.90625 
L 47.609375 72.90625 
L 47.609375 25.390625 
L 58.015625 25.390625 
L 58.015625 17.1875 
L 47.609375 17.1875 
L 47.609375 0 
L 37.796875 0 
L 37.796875 17.1875 
L 4.890625 17.1875 
L 4.890625 26.703125 
z
" id="DejaVuSans-34"/>
      </defs>
      <g transform="translate(208.070643 317.076875)scale(0.2 -0.2)">
       <use xlink:href="#DejaVuSans-34"/>
      </g>
     </g>
    </g>
    <g id="xtick_4">
     <g id="line2d_11">
      <path clip-path="url(#p55e5b0ac07)" d="M 293.589714 294.88 
L 293.589714 24.84 
" style="fill:none;stroke:#b0b0b0;stroke-linecap:square;stroke-width:0.8;"/>
     </g>
     <g id="line2d_12">
      <g>
       <use style="stroke:#000000;stroke-width:0.8;" x="293.589714" xlink:href="#m5e5202a655" y="294.88"/>
      </g>
     </g>
     <g id="text_4">
      <!-- 6 -->
      <defs>
       <path d="M 33.015625 40.375 
Q 26.375 40.375 22.484375 35.828125 
Q 18.609375 31.296875 18.609375 23.390625 
Q 18.609375 15.53125 22.484375 10.953125 
Q 26.375 6.390625 33.015625 6.390625 
Q 39.65625 6.390625 43.53125 10.953125 
Q 47.40625 15.53125 47.40625 23.390625 
Q 47.40625 31.296875 43.53125 35.828125 
Q 39.65625 40.375 33.015625 40.375 
z
M 52.59375 71.296875 
L 52.59375 62.3125 
Q 48.875 64.0625 45.09375 64.984375 
Q 41.3125 65.921875 37.59375 65.921875 
Q 27.828125 65.921875 22.671875 59.328125 
Q 17.53125 52.734375 16.796875 39.40625 
Q 19.671875 43.65625 24.015625 45.921875 
Q 28.375 48.1875 33.59375 48.1875 
Q 44.578125 48.1875 50.953125 41.515625 
Q 57.328125 34.859375 57.328125 23.390625 
Q 57.328125 12.15625 50.6875 5.359375 
Q 44.046875 -1.421875 33.015625 -1.421875 
Q 20.359375 -1.421875 13.671875 8.265625 
Q 6.984375 17.96875 6.984375 36.375 
Q 6.984375 53.65625 15.1875 63.9375 
Q 23.390625 74.21875 37.203125 74.21875 
Q 40.921875 74.21875 44.703125 73.484375 
Q 48.484375 72.75 52.59375 71.296875 
z
" id="DejaVuSans-36"/>
      </defs>
      <g transform="translate(287.227214 317.076875)scale(0.2 -0.2)">
       <use xlink:href="#DejaVuSans-36"/>
      </g>
     </g>
    </g>
    <g id="xtick_5">
     <g id="line2d_13">
      <path clip-path="url(#p55e5b0ac07)" d="M 56.12 294.88 
L 56.12 24.84 
" style="fill:none;stroke:#b0b0b0;stroke-linecap:square;stroke-width:0.8;"/>
     </g>
     <g id="line2d_14">
      <defs>
       <path d="M 0 0 
L 0 2 
" id="mefccf2bb90" style="stroke:#000000;stroke-width:0.6;"/>
      </defs>
      <g>
       <use style="stroke:#000000;stroke-width:0.6;" x="56.12" xlink:href="#mefccf2bb90" y="294.88"/>
      </g>
     </g>
    </g>
    <g id="xtick_6">
     <g id="line2d_15">
      <path clip-path="url(#p55e5b0ac07)" d="M 95.698286 294.88 
L 95.698286 24.84 
" style="fill:none;stroke:#b0b0b0;stroke-linecap:square;stroke-width:0.8;"/>
     </g>
     <g id="line2d_16">
      <g>
       <use style="stroke:#000000;stroke-width:0.6;" x="95.698286" xlink:href="#mefccf2bb90" y="294.88"/>
      </g>
     </g>
    </g>
    <g id="xtick_7">
     <g id="line2d_17">
      <path clip-path="url(#p55e5b0ac07)" d="M 135.276571 294.88 
L 135.276571 24.84 
" style="fill:none;stroke:#b0b0b0;stroke-linecap:square;stroke-width:0.8;"/>
     </g>
     <g id="line2d_18">
      <g>
       <use style="stroke:#000000;stroke-width:0.6;" x="135.276571" xlink:href="#mefccf2bb90" y="294.88"/>
      </g>
     </g>
    </g>
    <g id="xtick_8">
     <g id="line2d_19">
      <path clip-path="url(#p55e5b0ac07)" d="M 174.854857 294.88 
L 174.854857 24.84 
" style="fill:none;stroke:#b0b0b0;stroke-linecap:square;stroke-width:0.8;"/>
     </g>
     <g id="line2d_20">
      <g>
       <use style="stroke:#000000;stroke-width:0.6;" x="174.854857" xlink:href="#mefccf2bb90" y="294.88"/>
      </g>
     </g>
    </g>
    <g id="xtick_9">
     <g id="line2d_21">
      <path clip-path="url(#p55e5b0ac07)" d="M 214.433143 294.88 
L 214.433143 24.84 
" style="fill:none;stroke:#b0b0b0;stroke-linecap:square;stroke-width:0.8;"/>
     </g>
     <g id="line2d_22">
      <g>
       <use style="stroke:#000000;stroke-width:0.6;" x="214.433143" xlink:href="#mefccf2bb90" y="294.88"/>
      </g>
     </g>
    </g>
    <g id="xtick_10">
     <g id="line2d_23">
      <path clip-path="url(#p55e5b0ac07)" d="M 254.011429 294.88 
L 254.011429 24.84 
" style="fill:none;stroke:#b0b0b0;stroke-linecap:square;stroke-width:0.8;"/>
     </g>
     <g id="line2d_24">
      <g>
       <use style="stroke:#000000;stroke-width:0.6;" x="254.011429" xlink:href="#mefccf2bb90" y="294.88"/>
      </g>
     </g>
    </g>
    <g id="xtick_11">
     <g id="line2d_25">
      <path clip-path="url(#p55e5b0ac07)" d="M 293.589714 294.88 
L 293.589714 24.84 
" style="fill:none;stroke:#b0b0b0;stroke-linecap:square;stroke-width:0.8;"/>
     </g>
     <g id="line2d_26">
      <g>
       <use style="stroke:#000000;stroke-width:0.6;" x="293.589714" xlink:href="#mefccf2bb90" y="294.88"/>
      </g>
     </g>
    </g>
    <g id="xtick_12">
     <g id="line2d_27">
      <path clip-path="url(#p55e5b0ac07)" d="M 333.168 294.88 
L 333.168 24.84 
" style="fill:none;stroke:#b0b0b0;stroke-linecap:square;stroke-width:0.8;"/>
     </g>
     <g id="line2d_28">
      <g>
       <use style="stroke:#000000;stroke-width:0.6;" x="333.168" xlink:href="#mefccf2bb90" y="294.88"/>
      </g>
     </g>
    </g>
    <g id="text_5">
     <!-- log10(# f-evals / dimension) -->
     <defs>
      <path d="M 9.421875 75.984375 
L 18.40625 75.984375 
L 18.40625 0 
L 9.421875 0 
z
" id="DejaVuSans-6c"/>
      <path d="M 30.609375 48.390625 
Q 23.390625 48.390625 19.1875 42.75 
Q 14.984375 37.109375 14.984375 27.296875 
Q 14.984375 17.484375 19.15625 11.84375 
Q 23.34375 6.203125 30.609375 6.203125 
Q 37.796875 6.203125 41.984375 11.859375 
Q 46.1875 17.53125 46.1875 27.296875 
Q 46.1875 37.015625 41.984375 42.703125 
Q 37.796875 48.390625 30.609375 48.390625 
z
M 30.609375 56 
Q 42.328125 56 49.015625 48.375 
Q 55.71875 40.765625 55.71875 27.296875 
Q 55.71875 13.875 49.015625 6.21875 
Q 42.328125 -1.421875 30.609375 -1.421875 
Q 18.84375 -1.421875 12.171875 6.21875 
Q 5.515625 13.875 5.515625 27.296875 
Q 5.515625 40.765625 12.171875 48.375 
Q 18.84375 56 30.609375 56 
z
" id="DejaVuSans-6f"/>
      <path d="M 45.40625 27.984375 
Q 45.40625 37.75 41.375 43.109375 
Q 37.359375 48.484375 30.078125 48.484375 
Q 22.859375 48.484375 18.828125 43.109375 
Q 14.796875 37.75 14.796875 27.984375 
Q 14.796875 18.265625 18.828125 12.890625 
Q 22.859375 7.515625 30.078125 7.515625 
Q 37.359375 7.515625 41.375 12.890625 
Q 45.40625 18.265625 45.40625 27.984375 
z
M 54.390625 6.78125 
Q 54.390625 -7.171875 48.1875 -13.984375 
Q 42 -20.796875 29.203125 -20.796875 
Q 24.46875 -20.796875 20.265625 -20.09375 
Q 16.0625 -19.390625 12.109375 -17.921875 
L 12.109375 -9.1875 
Q 16.0625 -11.328125 19.921875 -12.34375 
Q 23.78125 -13.375 27.78125 -13.375 
Q 36.625 -13.375 41.015625 -8.765625 
Q 45.40625 -4.15625 45.40625 5.171875 
L 45.40625 9.625 
Q 42.625 4.78125 38.28125 2.390625 
Q 33.9375 0 27.875 0 
Q 17.828125 0 11.671875 7.65625 
Q 5.515625 15.328125 5.515625 27.984375 
Q 5.515625 40.671875 11.671875 48.328125 
Q 17.828125 56 27.875 56 
Q 33.9375 56 38.28125 53.609375 
Q 42.625 51.21875 45.40625 46.390625 
L 45.40625 54.6875 
L 54.390625 54.6875 
z
" id="DejaVuSans-67"/>
      <path d="M 12.40625 8.296875 
L 28.515625 8.296875 
L 28.515625 63.921875 
L 10.984375 60.40625 
L 10.984375 69.390625 
L 28.421875 72.90625 
L 38.28125 72.90625 
L 38.28125 8.296875 
L 54.390625 8.296875 
L 54.390625 0 
L 12.40625 0 
z
" id="DejaVuSans-31"/>
      <path d="M 31 75.875 
Q 24.46875 64.65625 21.28125 53.65625 
Q 18.109375 42.671875 18.109375 31.390625 
Q 18.109375 20.125 21.3125 9.0625 
Q 24.515625 -2 31 -13.1875 
L 23.1875 -13.1875 
Q 15.875 -1.703125 12.234375 9.375 
Q 8.59375 20.453125 8.59375 31.390625 
Q 8.59375 42.28125 12.203125 53.3125 
Q 15.828125 64.359375 23.1875 75.875 
z
" id="DejaVuSans-28"/>
      <path d="M 51.125 44 
L 36.921875 44 
L 32.8125 27.6875 
L 47.125 27.6875 
z
M 43.796875 71.78125 
L 38.71875 51.515625 
L 52.984375 51.515625 
L 58.109375 71.78125 
L 65.921875 71.78125 
L 60.890625 51.515625 
L 76.125 51.515625 
L 76.125 44 
L 58.984375 44 
L 54.984375 27.6875 
L 70.515625 27.6875 
L 70.515625 20.21875 
L 53.078125 20.21875 
L 48 0 
L 40.1875 0 
L 45.21875 20.21875 
L 30.90625 20.21875 
L 25.875 0 
L 18.015625 0 
L 23.09375 20.21875 
L 7.71875 20.21875 
L 7.71875 27.6875 
L 24.90625 27.6875 
L 29 44 
L 13.28125 44 
L 13.28125 51.515625 
L 30.90625 51.515625 
L 35.890625 71.78125 
z
" id="DejaVuSans-23"/>
      <path id="DejaVuSans-20"/>
      <path d="M 37.109375 75.984375 
L 37.109375 68.5 
L 28.515625 68.5 
Q 23.6875 68.5 21.796875 66.546875 
Q 19.921875 64.59375 19.921875 59.515625 
L 19.921875 54.6875 
L 34.71875 54.6875 
L 34.71875 47.703125 
L 19.921875 47.703125 
L 19.921875 0 
L 10.890625 0 
L 10.890625 47.703125 
L 2.296875 47.703125 
L 2.296875 54.6875 
L 10.890625 54.6875 
L 10.890625 58.5 
Q 10.890625 67.625 15.140625 71.796875 
Q 19.390625 75.984375 28.609375 75.984375 
z
" id="DejaVuSans-66"/>
      <path d="M 4.890625 31.390625 
L 31.203125 31.390625 
L 31.203125 23.390625 
L 4.890625 23.390625 
z
" id="DejaVuSans-2d"/>
      <path d="M 56.203125 29.59375 
L 56.203125 25.203125 
L 14.890625 25.203125 
Q 15.484375 15.921875 20.484375 11.0625 
Q 25.484375 6.203125 34.421875 6.203125 
Q 39.59375 6.203125 44.453125 7.46875 
Q 49.3125 8.734375 54.109375 11.28125 
L 54.109375 2.78125 
Q 49.265625 0.734375 44.1875 -0.34375 
Q 39.109375 -1.421875 33.890625 -1.421875 
Q 20.796875 -1.421875 13.15625 6.1875 
Q 5.515625 13.8125 5.515625 26.8125 
Q 5.515625 40.234375 12.765625 48.109375 
Q 20.015625 56 32.328125 56 
Q 43.359375 56 49.78125 48.890625 
Q 56.203125 41.796875 56.203125 29.59375 
z
M 47.21875 32.234375 
Q 47.125 39.59375 43.09375 43.984375 
Q 39.0625 48.390625 32.421875 48.390625 
Q 24.90625 48.390625 20.390625 44.140625 
Q 15.875 39.890625 15.1875 32.171875 
z
" id="DejaVuSans-65"/>
      <path d="M 2.984375 54.6875 
L 12.5 54.6875 
L 29.59375 8.796875 
L 46.6875 54.6875 
L 56.203125 54.6875 
L 35.6875 0 
L 23.484375 0 
z
" id="DejaVuSans-76"/>
      <path d="M 34.28125 27.484375 
Q 23.390625 27.484375 19.1875 25 
Q 14.984375 22.515625 14.984375 16.5 
Q 14.984375 11.71875 18.140625 8.90625 
Q 21.296875 6.109375 26.703125 6.109375 
Q 34.1875 6.109375 38.703125 11.40625 
Q 43.21875 16.703125 43.21875 25.484375 
L 43.21875 27.484375 
z
M 52.203125 31.203125 
L 52.203125 0 
L 43.21875 0 
L 43.21875 8.296875 
Q 40.140625 3.328125 35.546875 0.953125 
Q 30.953125 -1.421875 24.3125 -1.421875 
Q 15.921875 -1.421875 10.953125 3.296875 
Q 6 8.015625 6 15.921875 
Q 6 25.140625 12.171875 29.828125 
Q 18.359375 34.515625 30.609375 34.515625 
L 43.21875 34.515625 
L 43.21875 35.40625 
Q 43.21875 41.609375 39.140625 45 
Q 35.0625 48.390625 27.6875 48.390625 
Q 23 48.390625 18.546875 47.265625 
Q 14.109375 46.140625 10.015625 43.890625 
L 10.015625 52.203125 
Q 14.9375 54.109375 19.578125 55.046875 
Q 24.21875 56 28.609375 56 
Q 40.484375 56 46.34375 49.84375 
Q 52.203125 43.703125 52.203125 31.203125 
z
" id="DejaVuSans-61"/>
      <path d="M 44.28125 53.078125 
L 44.28125 44.578125 
Q 40.484375 46.53125 36.375 47.5 
Q 32.28125 48.484375 27.875 48.484375 
Q 21.1875 48.484375 17.84375 46.4375 
Q 14.5 44.390625 14.5 40.28125 
Q 14.5 37.15625 16.890625 35.375 
Q 19.28125 33.59375 26.515625 31.984375 
L 29.59375 31.296875 
Q 39.15625 29.25 43.1875 25.515625 
Q 47.21875 21.78125 47.21875 15.09375 
Q 47.21875 7.46875 41.1875 3.015625 
Q 35.15625 -1.421875 24.609375 -1.421875 
Q 20.21875 -1.421875 15.453125 -0.5625 
Q 10.6875 0.296875 5.421875 2 
L 5.421875 11.28125 
Q 10.40625 8.6875 15.234375 7.390625 
Q 20.0625 6.109375 24.8125 6.109375 
Q 31.15625 6.109375 34.5625 8.28125 
Q 37.984375 10.453125 37.984375 14.40625 
Q 37.984375 18.0625 35.515625 20.015625 
Q 33.0625 21.96875 24.703125 23.78125 
L 21.578125 24.515625 
Q 13.234375 26.265625 9.515625 29.90625 
Q 5.8125 33.546875 5.8125 39.890625 
Q 5.8125 47.609375 11.28125 51.796875 
Q 16.75 56 26.8125 56 
Q 31.78125 56 36.171875 55.265625 
Q 40.578125 54.546875 44.28125 53.078125 
z
" id="DejaVuSans-73"/>
      <path d="M 25.390625 72.90625 
L 33.6875 72.90625 
L 8.296875 -9.28125 
L 0 -9.28125 
z
" id="DejaVuSans-2f"/>
      <path d="M 45.40625 46.390625 
L 45.40625 75.984375 
L 54.390625 75.984375 
L 54.390625 0 
L 45.40625 0 
L 45.40625 8.203125 
Q 42.578125 3.328125 38.25 0.953125 
Q 33.9375 -1.421875 27.875 -1.421875 
Q 17.96875 -1.421875 11.734375 6.484375 
Q 5.515625 14.40625 5.515625 27.296875 
Q 5.515625 40.1875 11.734375 48.09375 
Q 17.96875 56 27.875 56 
Q 33.9375 56 38.25 53.625 
Q 42.578125 51.265625 45.40625 46.390625 
z
M 14.796875 27.296875 
Q 14.796875 17.390625 18.875 11.75 
Q 22.953125 6.109375 30.078125 6.109375 
Q 37.203125 6.109375 41.296875 11.75 
Q 45.40625 17.390625 45.40625 27.296875 
Q 45.40625 37.203125 41.296875 42.84375 
Q 37.203125 48.484375 30.078125 48.484375 
Q 22.953125 48.484375 18.875 42.84375 
Q 14.796875 37.203125 14.796875 27.296875 
z
" id="DejaVuSans-64"/>
      <path d="M 9.421875 54.6875 
L 18.40625 54.6875 
L 18.40625 0 
L 9.421875 0 
z
M 9.421875 75.984375 
L 18.40625 75.984375 
L 18.40625 64.59375 
L 9.421875 64.59375 
z
" id="DejaVuSans-69"/>
      <path d="M 52 44.1875 
Q 55.375 50.25 60.0625 53.125 
Q 64.75 56 71.09375 56 
Q 79.640625 56 84.28125 50.015625 
Q 88.921875 44.046875 88.921875 33.015625 
L 88.921875 0 
L 79.890625 0 
L 79.890625 32.71875 
Q 79.890625 40.578125 77.09375 44.375 
Q 74.3125 48.1875 68.609375 48.1875 
Q 61.625 48.1875 57.5625 43.546875 
Q 53.515625 38.921875 53.515625 30.90625 
L 53.515625 0 
L 44.484375 0 
L 44.484375 32.71875 
Q 44.484375 40.625 41.703125 44.40625 
Q 38.921875 48.1875 33.109375 48.1875 
Q 26.21875 48.1875 22.15625 43.53125 
Q 18.109375 38.875 18.109375 30.90625 
L 18.109375 0 
L 9.078125 0 
L 9.078125 54.6875 
L 18.109375 54.6875 
L 18.109375 46.1875 
Q 21.1875 51.21875 25.484375 53.609375 
Q 29.78125 56 35.6875 56 
Q 41.65625 56 45.828125 52.96875 
Q 50 49.953125 52 44.1875 
z
" id="DejaVuSans-6d"/>
      <path d="M 54.890625 33.015625 
L 54.890625 0 
L 45.90625 0 
L 45.90625 32.71875 
Q 45.90625 40.484375 42.875 44.328125 
Q 39.84375 48.1875 33.796875 48.1875 
Q 26.515625 48.1875 22.3125 43.546875 
Q 18.109375 38.921875 18.109375 30.90625 
L 18.109375 0 
L 9.078125 0 
L 9.078125 54.6875 
L 18.109375 54.6875 
L 18.109375 46.1875 
Q 21.34375 51.125 25.703125 53.5625 
Q 30.078125 56 35.796875 56 
Q 45.21875 56 50.046875 50.171875 
Q 54.890625 44.34375 54.890625 33.015625 
z
" id="DejaVuSans-6e"/>
      <path d="M 8.015625 75.875 
L 15.828125 75.875 
Q 23.140625 64.359375 26.78125 53.3125 
Q 30.421875 42.28125 30.421875 31.390625 
Q 30.421875 20.453125 26.78125 9.375 
Q 23.140625 -1.703125 15.828125 -13.1875 
L 8.015625 -13.1875 
Q 14.5 -2 17.703125 9.0625 
Q 20.90625 20.125 20.90625 31.390625 
Q 20.90625 42.671875 17.703125 53.65625 
Q 14.5 64.65625 8.015625 75.875 
z
" id="DejaVuSans-29"/>
     </defs>
     <g transform="translate(73.803219 338.153594)scale(0.17 -0.17)">
      <use xlink:href="#DejaVuSans-6c"/>
      <use x="27.783203" xlink:href="#DejaVuSans-6f"/>
      <use x="88.964844" xlink:href="#DejaVuSans-67"/>
      <use x="152.441406" xlink:href="#DejaVuSans-31"/>
      <use x="216.064453" xlink:href="#DejaVuSans-30"/>
      <use x="279.6875" xlink:href="#DejaVuSans-28"/>
      <use x="318.701172" xlink:href="#DejaVuSans-23"/>
      <use x="402.490234" xlink:href="#DejaVuSans-20"/>
      <use x="434.277344" xlink:href="#DejaVuSans-66"/>
      <use x="469.404297" xlink:href="#DejaVuSans-2d"/>
      <use x="505.488281" xlink:href="#DejaVuSans-65"/>
      <use x="567.011719" xlink:href="#DejaVuSans-76"/>
      <use x="626.191406" xlink:href="#DejaVuSans-61"/>
      <use x="687.470703" xlink:href="#DejaVuSans-6c"/>
      <use x="715.253906" xlink:href="#DejaVuSans-73"/>
      <use x="767.353516" xlink:href="#DejaVuSans-20"/>
      <use x="799.140625" xlink:href="#DejaVuSans-2f"/>
      <use x="832.832031" xlink:href="#DejaVuSans-20"/>
      <use x="864.619141" xlink:href="#DejaVuSans-64"/>
      <use x="928.095703" xlink:href="#DejaVuSans-69"/>
      <use x="955.878906" xlink:href="#DejaVuSans-6d"/>
      <use x="1053.291016" xlink:href="#DejaVuSans-65"/>
      <use x="1114.814453" xlink:href="#DejaVuSans-6e"/>
      <use x="1178.193359" xlink:href="#DejaVuSans-73"/>
      <use x="1230.292969" xlink:href="#DejaVuSans-69"/>
      <use x="1258.076172" xlink:href="#DejaVuSans-6f"/>
      <use x="1319.257812" xlink:href="#DejaVuSans-6e"/>
      <use x="1382.636719" xlink:href="#DejaVuSans-29"/>
     </g>
    </g>
   </g>
   <g id="matplotlib.axis_2">
    <g id="ytick_1">
     <g id="line2d_29">
      <path clip-path="url(#p55e5b0ac07)" d="M 56.12 294.88 
L 333.168 294.88 
" style="fill:none;stroke:#b0b0b0;stroke-linecap:square;stroke-width:0.8;"/>
     </g>
     <g id="line2d_30">
      <defs>
       <path d="M 0 0 
L -3.5 0 
" id="md298265e9f" style="stroke:#000000;stroke-width:0.8;"/>
      </defs>
      <g>
       <use style="stroke:#000000;stroke-width:0.8;" x="56.12" xlink:href="#md298265e9f" y="294.88"/>
      </g>
     </g>
     <g id="text_6">
      <!-- 0.0 -->
      <defs>
       <path d="M 10.6875 12.40625 
L 21 12.40625 
L 21 0 
L 10.6875 0 
z
" id="DejaVuSans-2e"/>
      </defs>
      <g transform="translate(23.675 300.95875)scale(0.16 -0.16)">
       <use xlink:href="#DejaVuSans-30"/>
       <use x="63.623047" xlink:href="#DejaVuSans-2e"/>
       <use x="95.410156" xlink:href="#DejaVuSans-30"/>
      </g>
     </g>
    </g>
    <g id="ytick_2">
     <g id="line2d_31">
      <path clip-path="url(#p55e5b0ac07)" d="M 56.12 241.406733 
L 333.168 241.406733 
" style="fill:none;stroke:#b0b0b0;stroke-linecap:square;stroke-width:0.8;"/>
     </g>
     <g id="line2d_32">
      <g>
       <use style="stroke:#000000;stroke-width:0.8;" x="56.12" xlink:href="#md298265e9f" y="241.406733"/>
      </g>
     </g>
     <g id="text_7">
      <!-- 0.2 -->
      <g transform="translate(23.675 247.485483)scale(0.16 -0.16)">
       <use xlink:href="#DejaVuSans-30"/>
       <use x="63.623047" xlink:href="#DejaVuSans-2e"/>
       <use x="95.410156" xlink:href="#DejaVuSans-32"/>
      </g>
     </g>
    </g>
    <g id="ytick_3">
     <g id="line2d_33">
      <path clip-path="url(#p55e5b0ac07)" d="M 56.12 187.933465 
L 333.168 187.933465 
" style="fill:none;stroke:#b0b0b0;stroke-linecap:square;stroke-width:0.8;"/>
     </g>
     <g id="line2d_34">
      <g>
       <use style="stroke:#000000;stroke-width:0.8;" x="56.12" xlink:href="#md298265e9f" y="187.933465"/>
      </g>
     </g>
     <g id="text_8">
      <!-- 0.4 -->
      <g transform="translate(23.675 194.012215)scale(0.16 -0.16)">
       <use xlink:href="#DejaVuSans-30"/>
       <use x="63.623047" xlink:href="#DejaVuSans-2e"/>
       <use x="95.410156" xlink:href="#DejaVuSans-34"/>
      </g>
     </g>
    </g>
    <g id="ytick_4">
     <g id="line2d_35">
      <path clip-path="url(#p55e5b0ac07)" d="M 56.12 134.460198 
L 333.168 134.460198 
" style="fill:none;stroke:#b0b0b0;stroke-linecap:square;stroke-width:0.8;"/>
     </g>
     <g id="line2d_36">
      <g>
       <use style="stroke:#000000;stroke-width:0.8;" x="56.12" xlink:href="#md298265e9f" y="134.460198"/>
      </g>
     </g>
     <g id="text_9">
      <!-- 0.6 -->
      <g transform="translate(23.675 140.538948)scale(0.16 -0.16)">
       <use xlink:href="#DejaVuSans-30"/>
       <use x="63.623047" xlink:href="#DejaVuSans-2e"/>
       <use x="95.410156" xlink:href="#DejaVuSans-36"/>
      </g>
     </g>
    </g>
    <g id="ytick_5">
     <g id="line2d_37">
      <path clip-path="url(#p55e5b0ac07)" d="M 56.12 80.986931 
L 333.168 80.986931 
" style="fill:none;stroke:#b0b0b0;stroke-linecap:square;stroke-width:0.8;"/>
     </g>
     <g id="line2d_38">
      <g>
       <use style="stroke:#000000;stroke-width:0.8;" x="56.12" xlink:href="#md298265e9f" y="80.986931"/>
      </g>
     </g>
     <g id="text_10">
      <!-- 0.8 -->
      <defs>
       <path d="M 31.78125 34.625 
Q 24.75 34.625 20.71875 30.859375 
Q 16.703125 27.09375 16.703125 20.515625 
Q 16.703125 13.921875 20.71875 10.15625 
Q 24.75 6.390625 31.78125 6.390625 
Q 38.8125 6.390625 42.859375 10.171875 
Q 46.921875 13.96875 46.921875 20.515625 
Q 46.921875 27.09375 42.890625 30.859375 
Q 38.875 34.625 31.78125 34.625 
z
M 21.921875 38.8125 
Q 15.578125 40.375 12.03125 44.71875 
Q 8.5 49.078125 8.5 55.328125 
Q 8.5 64.0625 14.71875 69.140625 
Q 20.953125 74.21875 31.78125 74.21875 
Q 42.671875 74.21875 48.875 69.140625 
Q 55.078125 64.0625 55.078125 55.328125 
Q 55.078125 49.078125 51.53125 44.71875 
Q 48 40.375 41.703125 38.8125 
Q 48.828125 37.15625 52.796875 32.3125 
Q 56.78125 27.484375 56.78125 20.515625 
Q 56.78125 9.90625 50.3125 4.234375 
Q 43.84375 -1.421875 31.78125 -1.421875 
Q 19.734375 -1.421875 13.25 4.234375 
Q 6.78125 9.90625 6.78125 20.515625 
Q 6.78125 27.484375 10.78125 32.3125 
Q 14.796875 37.15625 21.921875 38.8125 
z
M 18.3125 54.390625 
Q 18.3125 48.734375 21.84375 45.5625 
Q 25.390625 42.390625 31.78125 42.390625 
Q 38.140625 42.390625 41.71875 45.5625 
Q 45.3125 48.734375 45.3125 54.390625 
Q 45.3125 60.0625 41.71875 63.234375 
Q 38.140625 66.40625 31.78125 66.40625 
Q 25.390625 66.40625 21.84375 63.234375 
Q 18.3125 60.0625 18.3125 54.390625 
z
" id="DejaVuSans-38"/>
      </defs>
      <g transform="translate(23.675 87.065681)scale(0.16 -0.16)">
       <use xlink:href="#DejaVuSans-30"/>
       <use x="63.623047" xlink:href="#DejaVuSans-2e"/>
       <use x="95.410156" xlink:href="#DejaVuSans-38"/>
      </g>
     </g>
    </g>
    <g id="ytick_6">
     <g id="line2d_39">
      <path clip-path="url(#p55e5b0ac07)" d="M 56.12 27.513663 
L 333.168 27.513663 
" style="fill:none;stroke:#b0b0b0;stroke-linecap:square;stroke-width:0.8;"/>
     </g>
     <g id="line2d_40">
      <g>
       <use style="stroke:#000000;stroke-width:0.8;" x="56.12" xlink:href="#md298265e9f" y="27.513663"/>
      </g>
     </g>
     <g id="text_11">
      <!-- 1.0 -->
      <g transform="translate(23.675 33.592413)scale(0.16 -0.16)">
       <use xlink:href="#DejaVuSans-31"/>
       <use x="63.623047" xlink:href="#DejaVuSans-2e"/>
       <use x="95.410156" xlink:href="#DejaVuSans-30"/>
      </g>
     </g>
    </g>
    <g id="text_12">
     <!-- Fraction of function,target pairs -->
     <defs>
      <path d="M 9.8125 72.90625 
L 51.703125 72.90625 
L 51.703125 64.59375 
L 19.671875 64.59375 
L 19.671875 43.109375 
L 48.578125 43.109375 
L 48.578125 34.8125 
L 19.671875 34.8125 
L 19.671875 0 
L 9.8125 0 
z
" id="DejaVuSans-46"/>
      <path d="M 41.109375 46.296875 
Q 39.59375 47.171875 37.8125 47.578125 
Q 36.03125 48 33.890625 48 
Q 26.265625 48 22.1875 43.046875 
Q 18.109375 38.09375 18.109375 28.8125 
L 18.109375 0 
L 9.078125 0 
L 9.078125 54.6875 
L 18.109375 54.6875 
L 18.109375 46.1875 
Q 20.953125 51.171875 25.484375 53.578125 
Q 30.03125 56 36.53125 56 
Q 37.453125 56 38.578125 55.875 
Q 39.703125 55.765625 41.0625 55.515625 
z
" id="DejaVuSans-72"/>
      <path d="M 48.78125 52.59375 
L 48.78125 44.1875 
Q 44.96875 46.296875 41.140625 47.34375 
Q 37.3125 48.390625 33.40625 48.390625 
Q 24.65625 48.390625 19.8125 42.84375 
Q 14.984375 37.3125 14.984375 27.296875 
Q 14.984375 17.28125 19.8125 11.734375 
Q 24.65625 6.203125 33.40625 6.203125 
Q 37.3125 6.203125 41.140625 7.25 
Q 44.96875 8.296875 48.78125 10.40625 
L 48.78125 2.09375 
Q 45.015625 0.34375 40.984375 -0.53125 
Q 36.96875 -1.421875 32.421875 -1.421875 
Q 20.0625 -1.421875 12.78125 6.34375 
Q 5.515625 14.109375 5.515625 27.296875 
Q 5.515625 40.671875 12.859375 48.328125 
Q 20.21875 56 33.015625 56 
Q 37.15625 56 41.109375 55.140625 
Q 45.0625 54.296875 48.78125 52.59375 
z
" id="DejaVuSans-63"/>
      <path d="M 18.3125 70.21875 
L 18.3125 54.6875 
L 36.8125 54.6875 
L 36.8125 47.703125 
L 18.3125 47.703125 
L 18.3125 18.015625 
Q 18.3125 11.328125 20.140625 9.421875 
Q 21.96875 7.515625 27.59375 7.515625 
L 36.8125 7.515625 
L 36.8125 0 
L 27.59375 0 
Q 17.1875 0 13.234375 3.875 
Q 9.28125 7.765625 9.28125 18.015625 
L 9.28125 47.703125 
L 2.6875 47.703125 
L 2.6875 54.6875 
L 9.28125 54.6875 
L 9.28125 70.21875 
z
" id="DejaVuSans-74"/>
      <path d="M 8.5 21.578125 
L 8.5 54.6875 
L 17.484375 54.6875 
L 17.484375 21.921875 
Q 17.484375 14.15625 20.5 10.265625 
Q 23.53125 6.390625 29.59375 6.390625 
Q 36.859375 6.390625 41.078125 11.03125 
Q 45.3125 15.671875 45.3125 23.6875 
L 45.3125 54.6875 
L 54.296875 54.6875 
L 54.296875 0 
L 45.3125 0 
L 45.3125 8.40625 
Q 42.046875 3.421875 37.71875 1 
Q 33.40625 -1.421875 27.6875 -1.421875 
Q 18.265625 -1.421875 13.375 4.4375 
Q 8.5 10.296875 8.5 21.578125 
z
M 31.109375 56 
z
" id="DejaVuSans-75"/>
      <path d="M 11.71875 12.40625 
L 22.015625 12.40625 
L 22.015625 4 
L 14.015625 -11.625 
L 7.71875 -11.625 
L 11.71875 4 
z
" id="DejaVuSans-2c"/>
      <path d="M 18.109375 8.203125 
L 18.109375 -20.796875 
L 9.078125 -20.796875 
L 9.078125 54.6875 
L 18.109375 54.6875 
L 18.109375 46.390625 
Q 20.953125 51.265625 25.265625 53.625 
Q 29.59375 56 35.59375 56 
Q 45.5625 56 51.78125 48.09375 
Q 58.015625 40.1875 58.015625 27.296875 
Q 58.015625 14.40625 51.78125 6.484375 
Q 45.5625 -1.421875 35.59375 -1.421875 
Q 29.59375 -1.421875 25.265625 0.953125 
Q 20.953125 3.328125 18.109375 8.203125 
z
M 48.6875 27.296875 
Q 48.6875 37.203125 44.609375 42.84375 
Q 40.53125 48.484375 33.40625 48.484375 
Q 26.265625 48.484375 22.1875 42.84375 
Q 18.109375 37.203125 18.109375 27.296875 
Q 18.109375 17.390625 22.1875 11.75 
Q 26.265625 6.109375 33.40625 6.109375 
Q 40.53125 6.109375 44.609375 11.75 
Q 48.6875 17.390625 48.6875 27.296875 
z
" id="DejaVuSans-70"/>
     </defs>
     <g transform="translate(16.139531 294.999375)rotate(-90)scale(0.17 -0.17)">
      <use xlink:href="#DejaVuSans-46"/>
      <use x="57.410156" xlink:href="#DejaVuSans-72"/>
      <use x="98.523438" xlink:href="#DejaVuSans-61"/>
      <use x="159.802734" xlink:href="#DejaVuSans-63"/>
      <use x="214.783203" xlink:href="#DejaVuSans-74"/>
      <use x="253.992188" xlink:href="#DejaVuSans-69"/>
      <use x="281.775391" xlink:href="#DejaVuSans-6f"/>
      <use x="342.957031" xlink:href="#DejaVuSans-6e"/>
      <use x="406.335938" xlink:href="#DejaVuSans-20"/>
      <use x="438.123047" xlink:href="#DejaVuSans-6f"/>
      <use x="499.304688" xlink:href="#DejaVuSans-66"/>
      <use x="534.509766" xlink:href="#DejaVuSans-20"/>
      <use x="566.296875" xlink:href="#DejaVuSans-66"/>
      <use x="601.501953" xlink:href="#DejaVuSans-75"/>
      <use x="664.880859" xlink:href="#DejaVuSans-6e"/>
      <use x="728.259766" xlink:href="#DejaVuSans-63"/>
      <use x="783.240234" xlink:href="#DejaVuSans-74"/>
      <use x="822.449219" xlink:href="#DejaVuSans-69"/>
      <use x="850.232422" xlink:href="#DejaVuSans-6f"/>
      <use x="911.414062" xlink:href="#DejaVuSans-6e"/>
      <use x="974.792969" xlink:href="#DejaVuSans-2c"/>
      <use x="1006.580078" xlink:href="#DejaVuSans-74"/>
      <use x="1045.789062" xlink:href="#DejaVuSans-61"/>
      <use x="1107.068359" xlink:href="#DejaVuSans-72"/>
      <use x="1148.166016" xlink:href="#DejaVuSans-67"/>
      <use x="1211.642578" xlink:href="#DejaVuSans-65"/>
      <use x="1273.166016" xlink:href="#DejaVuSans-74"/>
      <use x="1312.375" xlink:href="#DejaVuSans-20"/>
      <use x="1344.162109" xlink:href="#DejaVuSans-70"/>
      <use x="1407.638672" xlink:href="#DejaVuSans-61"/>
      <use x="1468.917969" xlink:href="#DejaVuSans-69"/>
      <use x="1496.701172" xlink:href="#DejaVuSans-72"/>
      <use x="1537.814453" xlink:href="#DejaVuSans-73"/>
     </g>
    </g>
   </g>
   <g id="line2d_41">
    <defs>
     <path d="M 0 1.5 
C 0.397805 1.5 0.77937 1.341951 1.06066 1.06066 
C 1.341951 0.77937 1.5 0.397805 1.5 0 
C 1.5 -0.397805 1.341951 -0.77937 1.06066 -1.06066 
C 0.77937 -1.341951 0.397805 -1.5 0 -1.5 
C -0.397805 -1.5 -0.77937 -1.341951 -1.06066 -1.06066 
C -1.341951 -0.77937 -1.5 -0.397805 -1.5 0 
C -1.5 0.397805 -1.341951 0.77937 -1.06066 1.06066 
C -0.77937 1.341951 -0.397805 1.5 0 1.5 
z
" id="m7d6b8f28d9" style="stroke:#f5deb3;"/>
    </defs>
    <g>
     <use style="fill:#f5deb3;stroke:#f5deb3;" x="181.418426" xlink:href="#m7d6b8f28d9" y="27.513663"/>
     <use style="fill:#f5deb3;stroke:#f5deb3;" x="181.418426" xlink:href="#m7d6b8f28d9" y="27.513663"/>
    </g>
   </g>
   <g id="line2d_42">
    <defs>
     <path d="M 0 1.5 
C 0.397805 1.5 0.77937 1.341951 1.06066 1.06066 
C 1.341951 0.77937 1.5 0.397805 1.5 0 
C 1.5 -0.397805 1.341951 -0.77937 1.06066 -1.06066 
C 0.77937 -1.341951 0.397805 -1.5 0 -1.5 
C -0.397805 -1.5 -0.77937 -1.341951 -1.06066 -1.06066 
C -1.341951 -0.77937 -1.5 -0.397805 -1.5 0 
C -1.5 0.397805 -1.341951 0.77937 -1.06066 1.06066 
C -0.77937 1.341951 -0.397805 1.5 0 1.5 
z
" id="m40b78da6ab" style="stroke:#000080;"/>
    </defs>
    <g>
     <use style="fill:#000080;stroke:#000080;" x="238.349084" xlink:href="#m40b78da6ab" y="27.513663"/>
     <use style="fill:#000080;stroke:#000080;" x="238.349084" xlink:href="#m40b78da6ab" y="27.513663"/>
    </g>
   </g>
   <g id="line2d_43">
    <path d="M 44.205749 294.88 
L 44.205749 291.734514 
L 56.12 291.734514 
L 56.12 291.210266 
L 68.034251 291.210266 
L 68.034251 287.540532 
L 77.653281 287.540532 
L 77.653281 287.016284 
L 79.948502 287.016284 
L 79.948502 284.395046 
L 81.973032 284.395046 
L 81.973032 283.34655 
L 83.784035 283.34655 
L 83.784035 282.822302 
L 85.422286 282.822302 
L 85.422286 280.725312 
L 88.293717 280.725312 
L 88.293717 279.152568 
L 89.567532 279.152568 
L 89.567532 278.628321 
L 90.753425 278.628321 
L 90.753425 277.055578 
L 92.904808 277.055578 
L 92.904808 276.53133 
L 93.887283 276.53133 
L 93.887283 272.861596 
L 95.698286 272.861596 
L 95.698286 272.337348 
L 97.336537 272.337348 
L 97.336537 270.764605 
L 100.207968 270.764605 
L 100.207968 268.667614 
L 100.856673 268.667614 
L 100.856673 267.619119 
L 107.177358 267.619119 
L 107.177358 267.094871 
L 111.788449 267.094871 
L 111.788449 266.046375 
L 122.838768 266.046375 
L 122.838768 264.99788 
L 123.015063 264.99788 
L 123.015063 264.473632 
L 132.684132 264.473632 
L 132.684132 263.949385 
L 134.029181 263.949385 
L 134.029181 262.376641 
L 135.190413 262.376641 
L 135.190413 261.852394 
L 137.678888 261.852394 
L 137.678888 260.279651 
L 138.904592 260.279651 
L 138.904592 258.18266 
L 140.178407 258.18266 
L 140.178407 257.658412 
L 140.371179 257.658412 
L 140.371179 257.134164 
L 140.750355 257.134164 
L 140.750355 256.609917 
L 142.303162 256.609917 
L 142.303162 255.561421 
L 143.674593 255.561421 
L 143.727238 253.46443 
L 147.319256 253.46443 
L 147.319256 251.891687 
L 148.111115 251.891687 
L 148.151798 250.318944 
L 149.962801 250.318944 
L 149.962801 249.270448 
L 151.094972 249.270448 
L 151.094972 248.746201 
L 151.962932 248.746201 
L 151.962932 247.697705 
L 152.476064 247.697705 
L 152.476064 247.173458 
L 152.633326 247.173458 
L 152.726997 245.600714 
L 153.54783 245.600714 
L 153.607102 244.027971 
L 155.242663 244.027971 
L 155.323172 242.979476 
L 155.746298 242.979476 
L 155.746298 241.406733 
L 155.954019 241.406733 
L 155.954019 239.309742 
L 157.053666 239.309742 
L 157.053666 238.261246 
L 157.601653 238.261246 
L 157.601653 237.736999 
L 157.811415 237.736999 
L 157.811415 237.212751 
L 159.529506 237.212751 
L 159.529506 236.688503 
L 159.923235 236.688503 
L 159.923235 236.164255 
L 160.368142 236.164255 
L 160.368142 235.11576 
L 161.451249 235.11576 
L 161.451249 234.591512 
L 161.73014 234.591512 
L 161.73014 232.494521 
L 162.974949 232.494521 
L 162.992095 230.397531 
L 164.279369 230.397531 
L 164.279369 229.873283 
L 164.873217 229.873283 
L 164.965135 228.30054 
L 165.327969 228.30054 
L 165.327969 227.252044 
L 165.973903 227.252044 
L 165.973903 226.727797 
L 166.231309 226.727797 
L 166.231309 226.203549 
L 166.693434 226.203549 
L 166.693434 225.155053 
L 167.437061 225.155053 
L 167.437061 224.630806 
L 167.582003 224.630806 
L 167.582003 224.106558 
L 168.687231 224.106558 
L 168.687231 223.058063 
L 168.907287 223.058063 
L 169.004193 220.436824 
L 169.410055 220.436824 
L 169.457179 218.339833 
L 169.978614 218.339833 
L 170.069679 216.76709 
L 171.401782 216.76709 
L 171.48563 214.145851 
L 171.548248 214.145851 
L 171.548248 213.621604 
L 172.371995 213.621604 
L 172.371995 213.097356 
L 173.205429 213.097356 
L 173.262095 210.476117 
L 173.430981 210.476117 
L 173.430981 209.427622 
L 173.672033 209.427622 
L 173.672033 208.379126 
L 174.018369 208.379126 
L 174.018369 207.330631 
L 174.393214 207.330631 
L 174.419679 205.23364 
L 174.897775 205.23364 
L 174.906346 201.563906 
L 175.512472 201.563906 
L 175.512472 201.039658 
L 175.977609 201.039658 
L 175.977609 200.515411 
L 176.177712 200.515411 
L 176.280852 198.41842 
L 177.0542 198.41842 
L 177.0542 197.894172 
L 177.67796 197.894172 
L 177.72166 196.845677 
L 178.053052 196.845677 
L 178.053052 194.224438 
L 178.216382 194.224438 
L 178.216382 193.175943 
L 178.868228 193.175943 
L 178.868228 192.651695 
L 179.568269 192.651695 
L 179.568269 192.127447 
L 179.840493 192.127447 
L 179.840493 191.603199 
L 179.962239 191.603199 
L 179.962239 189.506209 
L 180.44699 189.506209 
L 180.496579 188.457713 
L 180.821539 188.457713 
L 180.864002 186.88497 
L 181.07476 186.88497 
L 181.07476 186.360722 
L 181.547005 186.360722 
L 181.547005 184.787979 
L 181.668849 184.787979 
L 181.668849 183.739484 
L 182.231902 183.739484 
L 182.276606 181.118245 
L 182.443217 181.118245 
L 182.443217 179.021254 
L 182.619174 179.021254 
L 182.641043 177.448511 
L 182.777094 177.448511 
L 182.777094 176.400016 
L 182.890551 176.400016 
L 182.890551 175.875768 
L 183.093969 175.875768 
L 183.093969 172.730281 
L 183.509313 172.730281 
L 183.509313 171.157538 
L 184.191653 171.157538 
L 184.246481 170.109043 
L 184.390195 170.109043 
L 184.390195 169.060547 
L 184.508229 169.060547 
L 184.508229 168.012052 
L 184.919866 168.012052 
L 184.919866 166.963557 
L 185.043834 166.963557 
L 185.043834 166.439309 
L 185.162197 166.439309 
L 185.21402 164.866566 
L 185.42441 164.866566 
L 185.470816 162.769575 
L 186.183423 162.769575 
L 186.183423 161.721079 
L 186.413079 161.721079 
L 186.413079 161.196832 
L 186.578986 161.196832 
L 186.67431 159.624089 
L 187.054633 159.624089 
L 187.054633 157.527098 
L 187.218676 157.527098 
L 187.218676 156.478602 
L 187.574973 156.478602 
L 187.574973 155.954354 
L 187.794977 155.954354 
L 187.794977 155.430107 
L 188.147577 155.430107 
L 188.206964 154.381611 
L 188.336898 154.381611 
L 188.442482 151.760373 
L 188.45807 151.760373 
L 188.45807 151.236125 
L 188.578392 151.236125 
L 188.674817 148.614886 
L 188.709398 148.614886 
L 188.782175 147.566391 
L 188.938176 147.566391 
L 188.938176 145.4694 
L 189.062719 145.4694 
L 189.062719 144.945152 
L 189.205022 144.945152 
L 189.294294 140.226923 
L 189.672243 140.226923 
L 189.730215 138.65418 
L 189.809608 138.65418 
L 189.809608 137.605684 
L 190.0314 137.605684 
L 190.0314 137.081437 
L 190.348347 137.081437 
L 190.383206 133.93595 
L 190.659556 133.93595 
L 190.755239 131.314712 
L 191.042483 131.314712 
L 191.042483 130.790464 
L 191.394096 130.790464 
L 191.394096 130.266216 
L 191.524933 130.266216 
L 191.524933 129.217721 
L 191.873298 129.217721 
L 191.873298 127.644978 
L 192.323956 127.644978 
L 192.420112 122.926748 
L 192.580208 122.926748 
L 192.580208 122.4025 
L 192.917042 122.4025 
L 192.917042 121.878253 
L 193.507775 121.878253 
L 193.539684 117.160023 
L 193.752816 117.160023 
L 193.752816 112.966042 
L 194.24101 112.966042 
L 194.24101 111.917546 
L 194.571677 111.917546 
L 194.642491 109.296308 
L 194.694055 109.296308 
L 194.802109 107.723564 
L 194.871982 107.723564 
L 194.882706 105.626573 
L 195.103742 105.626573 
L 195.138106 101.956839 
L 195.243413 101.956839 
L 195.243413 100.908344 
L 195.501306 100.908344 
L 195.501306 100.384096 
L 195.77321 100.384096 
L 195.77321 99.335601 
L 196.070922 99.335601 
L 196.070922 97.762858 
L 196.287165 97.762858 
L 196.388138 96.714362 
L 196.422481 96.714362 
L 196.527535 94.617371 
L 196.566462 94.617371 
L 196.670643 92.520381 
L 196.778998 92.520381 
L 196.778998 91.996133 
L 196.977078 91.996133 
L 197.022103 88.850646 
L 197.243136 88.850646 
L 197.280477 87.802151 
L 197.585486 87.802151 
L 197.606086 86.753656 
L 197.733714 86.753656 
L 197.751869 84.656665 
L 198.037547 84.656665 
L 198.12655 82.035426 
L 198.201842 82.035426 
L 198.287801 80.462683 
L 198.314164 80.462683 
L 198.314164 79.414188 
L 198.5864 79.414188 
L 198.694099 77.317197 
L 198.747696 77.317197 
L 198.747696 76.792949 
L 198.901129 76.792949 
L 198.96043 74.695958 
L 199.118269 74.695958 
L 199.210199 72.074719 
L 199.2809 72.074719 
L 199.326493 67.35649 
L 199.446117 67.35649 
L 199.55062 66.307995 
L 199.872403 66.307995 
L 199.896446 64.735251 
L 200.018147 64.735251 
L 200.099464 61.589765 
L 200.221705 61.589765 
L 200.264873 59.492774 
L 200.409283 59.492774 
L 200.482971 58.444279 
L 200.658161 58.444279 
L 200.658161 57.920031 
L 200.801217 57.920031 
L 200.846745 56.347288 
L 200.954393 56.347288 
L 201.065112 52.153306 
L 201.087544 52.153306 
L 201.111813 50.580563 
L 201.291819 50.580563 
L 201.291819 50.056315 
L 201.405896 50.056315 
L 201.429719 47.959324 
L 201.542887 47.959324 
L 201.588309 45.338086 
L 201.810054 45.338086 
L 201.810054 44.813838 
L 201.997112 44.813838 
L 202.041351 42.192599 
L 202.171635 42.192599 
L 202.190917 40.095609 
L 202.299198 40.095609 
L 202.384295 39.047113 
L 202.522329 39.047113 
L 202.621715 35.901627 
L 202.6405 35.901627 
L 202.6405 35.377379 
L 212.911891 35.377379 
L 212.911891 34.853131 
L 213.774387 34.853131 
L 213.792238 33.280388 
L 213.975031 33.280388 
L 213.975031 32.231893 
L 214.170742 32.231893 
L 214.262127 30.65915 
L 214.580333 30.65915 
L 214.580333 30.134902 
L 220.59069 30.134902 
L 220.59069 29.610654 
L 221.346866 29.610654 
L 221.346866 29.086407 
L 226.349113 29.086407 
L 226.349113 28.562159 
L 233.004279 28.562159 
L 233.004279 28.037911 
L 238.349084 28.037911 
L 238.349084 27.513663 
L 333.168 27.513663 
L 333.168 27.513663 
" style="fill:none;stroke:#000080;stroke-linecap:square;stroke-width:1.5;"/>
   </g>
   <g id="line2d_44">
    <defs>
     <path d="M 0 6 
C 1.591219 6 3.117479 5.367802 4.242641 4.242641 
C 5.367802 3.117479 6 1.591219 6 0 
C 6 -1.591219 5.367802 -3.117479 4.242641 -4.242641 
C 3.117479 -5.367802 1.591219 -6 0 -6 
C -1.591219 -6 -3.117479 -5.367802 -4.242641 -4.242641 
C -5.367802 -3.117479 -6 -1.591219 -6 0 
C -6 1.591219 -5.367802 3.117479 -4.242641 4.242641 
C -3.117479 5.367802 -1.591219 6 0 6 
z
" id="m8da3c42372" style="stroke:#000080;stroke-width:1.5;"/>
    </defs>
    <g>
     <use style="fill-opacity:0;stroke:#000080;stroke-width:1.5;" x="143.727238" xlink:href="#m8da3c42372" y="255.037173"/>
     <use style="fill-opacity:0;stroke:#000080;stroke-width:1.5;" x="185.42441" xlink:href="#m8da3c42372" y="164.342318"/>
     <use style="fill-opacity:0;stroke:#000080;stroke-width:1.5;" x="221.346866" xlink:href="#m8da3c42372" y="29.086407"/>
     <use style="fill-opacity:0;stroke:#000080;stroke-width:1.5;" x="238.349084" xlink:href="#m8da3c42372" y="27.513663"/>
     <use style="fill-opacity:0;stroke:#000080;stroke-width:1.5;" x="238.349084" xlink:href="#m8da3c42372" y="27.513663"/>
     <use style="fill-opacity:0;stroke:#000080;stroke-width:1.5;" x="333.168" xlink:href="#m8da3c42372" y="27.513663"/>
    </g>
   </g>
   <g id="line2d_45">
    <path style="fill:none;stroke:#000080;stroke-linecap:square;stroke-width:1.5;"/>
    <g/>
   </g>
   <g id="line2d_46">
    <path clip-path="url(#p55e5b0ac07)" d="M 202.691626 35.377379 
" style="fill:none;stroke:#000080;stroke-linecap:square;stroke-width:1.5;"/>
    <defs>
     <path d="M -12 12 
L 12 -12 
M -12 -12 
L 12 12 
" id="mf3c1f6f87d" style="stroke:#000080;"/>
    </defs>
    <g clip-path="url(#p55e5b0ac07)">
     <use style="fill:#000080;stroke:#000080;" x="202.691626" xlink:href="#mf3c1f6f87d" y="35.377379"/>
    </g>
   </g>
   <g id="line2d_47">
    <defs>
     <path d="M 0 1.5 
C 0.397805 1.5 0.77937 1.341951 1.06066 1.06066 
C 1.341951 0.77937 1.5 0.397805 1.5 0 
C 1.5 -0.397805 1.341951 -0.77937 1.06066 -1.06066 
C 0.77937 -1.341951 0.397805 -1.5 0 -1.5 
C -0.397805 -1.5 -0.77937 -1.341951 -1.06066 -1.06066 
C -1.341951 -0.77937 -1.5 -0.397805 -1.5 0 
C -1.5 0.397805 -1.341951 0.77937 -1.06066 1.06066 
C -0.77937 1.341951 -0.397805 1.5 0 1.5 
z
" id="m537e9d9448" style="stroke:#ff00ff;"/>
    </defs>
    <g>
     <use style="fill:#ff00ff;stroke:#ff00ff;" x="271.077891" xlink:href="#m537e9d9448" y="174.303025"/>
     <use style="fill:#ff00ff;stroke:#ff00ff;" x="271.077891" xlink:href="#m537e9d9448" y="174.303025"/>
    </g>
   </g>
   <g id="line2d_48">
    <path d="M 44.205749 294.88 
L 44.205749 292.258761 
L 56.12 292.258761 
L 56.12 291.734514 
L 63.08939 291.734514 
L 63.08939 290.686018 
L 68.034251 290.686018 
L 68.034251 289.637523 
L 77.653281 289.637523 
L 77.653281 283.870798 
L 79.948502 283.870798 
L 79.948502 282.822302 
L 85.422286 282.822302 
L 85.422286 282.298055 
L 86.917893 282.298055 
L 86.917893 281.773807 
L 91.862754 281.773807 
L 91.862754 280.201064 
L 92.904808 280.201064 
L 92.904808 279.676816 
L 93.887283 279.676816 
L 93.887283 279.152568 
L 94.816624 279.152568 
L 94.816624 278.628321 
L 95.698286 278.628321 
L 95.698286 278.104073 
L 97.336537 278.104073 
L 97.336537 277.579825 
L 100.207968 277.579825 
L 100.207968 276.53133 
L 101.481783 276.53133 
L 101.481783 274.434339 
L 102.084955 274.434339 
L 102.084955 273.910091 
L 102.667676 273.910091 
L 102.667676 271.8131 
L 103.231288 271.8131 
L 103.231288 271.288853 
L 103.777005 271.288853 
L 103.777005 268.143366 
L 108.036969 268.143366 
L 108.036969 266.046375 
L 109.637066 266.046375 
L 109.637066 265.522128 
L 110.384516 265.522128 
L 110.384516 263.949385 
L 113.086321 263.949385 
L 113.086321 262.900889 
L 114.293036 262.900889 
L 114.293036 262.376641 
L 116.220179 262.376641 
L 116.220179 261.852394 
L 117.475381 261.852394 
L 117.475381 260.803898 
L 119.09161 260.803898 
L 119.09161 260.279651 
L 119.95122 260.279651 
L 119.95122 258.706907 
L 120.365424 258.706907 
L 120.365424 257.658412 
L 129.389632 257.658412 
L 129.389632 257.134164 
L 132.279675 257.134164 
L 132.279675 256.085669 
L 135.950722 256.085669 
L 135.950722 254.512926 
L 138.974042 254.512926 
L 138.974042 253.988678 
L 149.889502 253.988678 
L 149.889502 252.415935 
L 150.431775 252.415935 
L 150.431775 251.891687 
L 151.700505 251.891687 
L 151.700505 250.843192 
L 151.962932 250.843192 
L 151.962932 248.746201 
L 154.074054 248.746201 
L 154.074054 248.221953 
L 156.210188 248.221953 
L 156.210188 247.173458 
L 160.762847 247.173458 
L 160.762847 245.076467 
L 161.877052 245.076467 
L 161.877052 244.552219 
L 162.733095 244.552219 
L 162.733095 242.455228 
L 165.462082 242.455228 
L 165.462082 241.406733 
L 165.58042 241.406733 
L 165.58042 240.882485 
L 166.831054 240.882485 
L 166.831054 239.83399 
L 167.816575 239.83399 
L 167.816575 238.785494 
L 169.291675 238.785494 
L 169.291675 238.261246 
L 172.832476 238.261246 
L 172.832476 236.688503 
L 173.205429 236.688503 
L 173.205429 235.640008 
L 174.647346 235.640008 
L 174.647346 235.11576 
L 174.846261 235.11576 
L 174.846261 234.591512 
L 175.553781 234.591512 
L 175.636102 233.018769 
L 177.888155 233.018769 
L 177.888155 231.970274 
L 178.531522 231.970274 
L 178.531522 230.921778 
L 179.091328 230.921778 
L 179.091328 230.397531 
L 180.403483 230.397531 
L 180.403483 228.30054 
L 185.714695 228.30054 
L 185.714695 227.776292 
L 186.522408 227.776292 
L 186.522408 227.252044 
L 186.700216 227.252044 
L 186.700216 225.679301 
L 188.411266 225.679301 
L 188.411266 224.630806 
L 188.613168 224.630806 
L 188.613168 221.485319 
L 192.802471 221.485319 
L 192.802471 220.961072 
L 194.563487 220.961072 
L 194.563487 218.339833 
L 195.701804 218.339833 
L 195.701804 217.815585 
L 196.366024 217.815585 
L 196.366024 217.291338 
L 197.172902 217.291338 
L 197.172902 215.718594 
L 198.093228 215.718594 
L 198.093228 214.670099 
L 198.841623 214.670099 
L 198.841623 213.621604 
L 201.28628 213.621604 
L 201.28628 211.524613 
L 206.982235 211.524613 
L 206.982235 211.000365 
L 208.253208 211.000365 
L 208.253208 209.95187 
L 208.969455 209.95187 
L 208.969455 207.854879 
L 211.01785 207.854879 
L 211.01785 207.330631 
L 211.732435 207.330631 
L 211.732435 206.806383 
L 212.788444 206.806383 
L 212.788444 206.282136 
L 216.808534 206.282136 
L 216.808534 205.757888 
L 217.541199 205.757888 
L 217.610633 204.709392 
L 218.02982 204.709392 
L 218.02982 202.612401 
L 219.545632 202.612401 
L 219.545632 202.088154 
L 219.898799 202.088154 
L 219.898799 201.563906 
L 223.074608 201.563906 
L 223.12755 200.515411 
L 223.586745 200.515411 
L 223.586745 199.991163 
L 223.931923 199.991163 
L 223.931923 198.41842 
L 225.143382 198.41842 
L 225.143382 197.894172 
L 228.317215 197.894172 
L 228.317215 195.272933 
L 231.59056 195.272933 
L 231.621257 194.224438 
L 231.808047 194.224438 
L 231.808047 193.70019 
L 232.904802 193.70019 
L 232.904802 193.175943 
L 234.708204 193.175943 
L 234.708204 190.030456 
L 237.052563 190.030456 
L 237.052563 188.981961 
L 237.188946 188.981961 
L 237.188946 188.457713 
L 239.236228 188.457713 
L 239.236228 187.933465 
L 239.356398 187.933465 
L 239.356398 186.88497 
L 241.155886 186.88497 
L 241.155886 186.360722 
L 241.280889 186.360722 
L 241.280889 185.312227 
L 243.011441 185.312227 
L 243.011441 184.263731 
L 244.583587 184.263731 
L 244.583587 183.739484 
L 248.516178 183.739484 
L 248.586316 182.16674 
L 249.007797 182.16674 
L 249.007797 181.642493 
L 249.737192 181.642493 
L 249.737192 180.593997 
L 253.696764 180.593997 
L 253.696764 179.545502 
L 256.163444 179.545502 
L 256.163444 178.497006 
L 256.912821 178.497006 
L 256.912821 177.972759 
L 259.620934 177.972759 
L 259.620934 177.448511 
L 261.959881 177.448511 
L 261.959881 176.924263 
L 264.96195 176.924263 
L 264.96195 176.400016 
L 265.856442 176.400016 
L 265.856442 175.875768 
L 266.706678 175.875768 
L 266.706678 175.35152 
L 269.030866 175.35152 
L 269.030866 174.827272 
L 271.077891 174.827272 
L 271.077891 174.303025 
L 333.168 174.303025 
L 333.168 174.303025 
" style="fill:none;stroke:#ff00ff;stroke-linecap:square;stroke-width:1.5;"/>
   </g>
   <g id="line2d_49">
    <defs>
     <path d="M -0 8.485281 
L 5.091169 0 
L 0 -8.485281 
L -5.091169 -0 
z
" id="m1fc0ebad5a" style="stroke:#ff00ff;stroke-linejoin:miter;stroke-width:1.5;"/>
    </defs>
    <g>
     <use style="fill-opacity:0;stroke:#ff00ff;stroke-linejoin:miter;stroke-width:1.5;" x="114.293036" xlink:href="#m1fc0ebad5a" y="262.376641"/>
     <use style="fill-opacity:0;stroke:#ff00ff;stroke-linejoin:miter;stroke-width:1.5;" x="173.205429" xlink:href="#m1fc0ebad5a" y="236.688503"/>
     <use style="fill-opacity:0;stroke:#ff00ff;stroke-linejoin:miter;stroke-width:1.5;" x="249.737192" xlink:href="#m1fc0ebad5a" y="180.593997"/>
     <use style="fill-opacity:0;stroke:#ff00ff;stroke-linejoin:miter;stroke-width:1.5;" x="271.077891" xlink:href="#m1fc0ebad5a" y="174.303025"/>
     <use style="fill-opacity:0;stroke:#ff00ff;stroke-linejoin:miter;stroke-width:1.5;" x="271.077891" xlink:href="#m1fc0ebad5a" y="174.303025"/>
     <use style="fill-opacity:0;stroke:#ff00ff;stroke-linejoin:miter;stroke-width:1.5;" x="333.168" xlink:href="#m1fc0ebad5a" y="174.303025"/>
    </g>
   </g>
   <g id="line2d_50">
    <path style="fill:none;stroke:#ff00ff;stroke-linecap:square;stroke-width:1.5;"/>
    <g/>
   </g>
   <g id="line2d_51">
    <path clip-path="url(#p55e5b0ac07)" d="M 202.691626 211.524613 
" style="fill:none;stroke:#ff00ff;stroke-linecap:square;stroke-width:1.5;"/>
    <defs>
     <path d="M -12 12 
L 12 -12 
M -12 -12 
L 12 12 
" id="m12ec866eac" style="stroke:#ff00ff;"/>
    </defs>
    <g clip-path="url(#p55e5b0ac07)">
     <use style="fill:#ff00ff;stroke:#ff00ff;" x="202.691626" xlink:href="#m12ec866eac" y="211.524613"/>
    </g>
   </g>
   <g id="line2d_52">
    <defs>
     <path d="M 0 1.5 
C 0.397805 1.5 0.77937 1.341951 1.06066 1.06066 
C 1.341951 0.77937 1.5 0.397805 1.5 0 
C 1.5 -0.397805 1.341951 -0.77937 1.06066 -1.06066 
C 0.77937 -1.341951 0.397805 -1.5 0 -1.5 
C -0.397805 -1.5 -0.77937 -1.341951 -1.06066 -1.06066 
C -1.341951 -0.77937 -1.5 -0.397805 -1.5 0 
C -1.5 0.397805 -1.341951 0.77937 -1.06066 1.06066 
C -0.77937 1.341951 -0.397805 1.5 0 1.5 
z
" id="md2d2d72812" style="stroke:#ffa500;"/>
    </defs>
    <g>
     <use style="fill:#ffa500;stroke:#ffa500;" x="199.247665" xlink:href="#md2d2d72812" y="27.513663"/>
     <use style="fill:#ffa500;stroke:#ffa500;" x="199.247665" xlink:href="#md2d2d72812" y="27.513663"/>
    </g>
   </g>
   <g id="line2d_53">
    <path d="M 44.205749 294.88 
L 44.205749 292.783009 
L 56.12 292.783009 
L 56.12 291.734514 
L 63.08939 291.734514 
L 63.08939 287.016284 
L 68.034251 287.016284 
L 68.034251 285.967789 
L 71.869783 285.967789 
L 71.869783 284.395046 
L 75.003641 284.395046 
L 75.003641 283.870798 
L 77.653281 283.870798 
L 77.653281 280.201064 
L 81.973032 280.201064 
L 81.973032 279.676816 
L 83.784035 279.676816 
L 83.784035 278.628321 
L 85.422286 278.628321 
L 85.422286 278.104073 
L 88.293717 278.104073 
L 88.293717 274.958587 
L 89.567532 274.958587 
L 89.567532 273.910091 
L 91.862754 273.910091 
L 91.862754 273.385844 
L 92.904808 273.385844 
L 92.904808 271.288853 
L 93.887283 271.288853 
L 93.887283 270.764605 
L 99.533818 270.764605 
L 99.533818 268.143366 
L 100.207968 268.143366 
L 100.207968 266.046375 
L 102.084955 266.046375 
L 102.084955 265.522128 
L 104.305927 265.522128 
L 104.305927 264.473632 
L 108.85563 264.473632 
L 108.85563 263.425137 
L 112.449632 263.425137 
L 112.449632 262.900889 
L 115.145539 262.900889 
L 115.145539 262.376641 
L 116.984244 262.376641 
L 116.984244 261.328146 
L 119.310576 261.328146 
L 119.310576 260.803898 
L 121.359263 260.803898 
L 121.359263 258.18266 
L 121.741249 258.18266 
L 121.741249 257.658412 
L 125.764637 257.658412 
L 125.764637 256.609917 
L 129.630036 256.609917 
L 129.630036 255.037173 
L 130.895323 255.037173 
L 130.895323 253.46443 
L 132.177056 253.46443 
L 132.177056 249.794696 
L 134.841393 249.794696 
L 134.841393 248.746201 
L 136.278134 248.746201 
L 136.278134 246.64921 
L 138.04855 246.64921 
L 138.04855 246.124962 
L 140.242905 246.124962 
L 140.242905 244.027971 
L 140.687737 244.027971 
L 140.687737 243.503724 
L 141.3643 243.503724 
L 141.3643 242.979476 
L 142.360172 242.979476 
L 142.360172 241.93098 
L 143.084598 241.93098 
L 143.084598 240.882485 
L 146.489148 240.882485 
L 146.489148 240.358237 
L 146.887358 240.358237 
L 146.887358 239.309742 
L 149.778964 239.309742 
L 149.778964 238.261246 
L 152.381011 238.261246 
L 152.381011 237.212751 
L 153.127109 237.212751 
L 153.127109 236.164255 
L 154.38788 236.164255 
L 154.38788 235.640008 
L 156.056945 235.640008 
L 156.056945 233.543017 
L 157.436716 233.543017 
L 157.436716 232.494521 
L 157.671858 232.494521 
L 157.671858 231.446026 
L 158.064362 231.446026 
L 158.064362 230.397531 
L 158.381004 230.397531 
L 158.381004 229.349035 
L 158.581522 229.349035 
L 158.581522 228.824787 
L 158.845291 228.824787 
L 158.845291 227.776292 
L 158.975673 227.776292 
L 158.975673 226.203549 
L 159.25482 226.203549 
L 159.25482 225.155053 
L 159.550455 225.155053 
L 159.550455 224.630806 
L 160.743325 224.630806 
L 160.743325 224.106558 
L 161.968239 224.106558 
L 161.968239 223.58231 
L 162.274704 223.58231 
L 162.292562 221.485319 
L 163.009223 221.485319 
L 163.009223 220.961072 
L 163.381799 220.961072 
L 163.381799 219.912576 
L 163.762864 219.912576 
L 163.860898 217.815585 
L 164.295262 217.815585 
L 164.295262 217.291338 
L 164.873217 217.291338 
L 164.965135 215.718594 
L 165.086933 215.718594 
L 165.086933 214.670099 
L 165.298024 214.670099 
L 165.298024 214.145851 
L 167.156915 214.145851 
L 167.156915 213.621604 
L 168.251106 213.621604 
L 168.251106 211.524613 
L 168.895136 211.524613 
L 168.895136 208.379126 
L 169.841104 208.379126 
L 169.841104 206.282136 
L 169.967196 206.282136 
L 169.967196 205.23364 
L 170.21664 205.23364 
L 170.21664 204.709392 
L 170.328838 204.709392 
L 170.328838 204.185145 
L 170.462515 204.185145 
L 170.462515 203.660897 
L 171.306963 203.660897 
L 171.306963 203.136649 
L 171.621015 203.136649 
L 171.621015 202.612401 
L 172.132011 202.612401 
L 172.132011 202.088154 
L 172.292372 202.088154 
L 172.292372 201.563906 
L 173.072478 201.563906 
L 173.110569 199.466915 
L 173.243227 199.466915 
L 173.318575 197.369924 
L 173.505511 197.369924 
L 173.524094 195.797181 
L 174.018369 195.797181 
L 174.018369 195.272933 
L 174.286947 195.272933 
L 174.286947 194.748686 
L 174.419679 194.748686 
L 174.419679 193.70019 
L 174.603797 193.70019 
L 174.638645 192.127447 
L 175.594991 192.127447 
L 175.594991 191.603199 
L 175.945376 191.603199 
L 175.95344 188.981961 
L 176.633171 188.981961 
L 176.671875 187.409218 
L 177.287041 187.409218 
L 177.287041 186.360722 
L 177.428206 186.360722 
L 177.428206 185.836474 
L 177.597554 185.836474 
L 177.663369 183.215236 
L 178.031633 183.215236 
L 178.031633 182.16674 
L 178.272831 182.16674 
L 178.357158 181.118245 
L 179.024027 181.118245 
L 179.024027 179.545502 
L 179.476561 179.545502 
L 179.574801 177.972759 
L 179.65299 177.972759 
L 179.70492 174.827272 
L 180.05775 174.827272 
L 180.05775 174.303025 
L 180.471802 174.303025 
L 180.484195 172.730281 
L 180.717974 172.730281 
L 180.754597 169.060547 
L 180.864002 169.060547 
L 180.918444 167.487804 
L 181.04481 167.487804 
L 181.098683 166.439309 
L 181.265218 166.439309 
L 181.265218 165.915061 
L 181.441876 165.915061 
L 181.447733 164.866566 
L 181.69196 164.866566 
L 181.69196 164.342318 
L 182.017956 164.342318 
L 182.125262 159.099841 
L 182.45979 159.099841 
L 182.45979 157.527098 
L 182.646506 157.527098 
L 182.646506 156.478602 
L 183.136489 156.478602 
L 183.136489 155.954354 
L 183.326537 155.954354 
L 183.425999 153.857364 
L 183.802879 153.857364 
L 183.904708 149.663382 
L 184.091515 149.663382 
L 184.091515 149.139134 
L 184.271345 149.139134 
L 184.271345 148.614886 
L 184.62059 148.614886 
L 184.62059 148.090639 
L 184.770879 148.090639 
L 184.770879 146.517896 
L 184.934216 146.517896 
L 184.948553 144.945152 
L 185.086539 144.945152 
L 185.190484 142.848162 
L 185.359231 142.848162 
L 185.359231 140.751171 
L 185.517096 140.751171 
L 185.517096 140.226923 
L 185.710126 140.226923 
L 185.710126 138.65418 
L 186.080857 138.65418 
L 186.09427 136.557189 
L 186.807739 136.557189 
L 186.884742 133.93595 
L 186.969897 133.93595 
L 187.075752 131.838959 
L 187.75039 131.838959 
L 187.75039 130.266216 
L 187.87978 130.266216 
L 187.87978 129.217721 
L 188.274023 129.217721 
L 188.289763 126.072235 
L 188.442482 126.072235 
L 188.442482 125.023739 
L 188.609307 125.023739 
L 188.632457 122.926748 
L 188.724745 122.926748 
L 188.724745 121.354005 
L 188.881267 121.354005 
L 188.881267 120.829757 
L 189.257154 120.829757 
L 189.257154 120.30551 
L 190.0988 120.30551 
L 190.120029 114.538785 
L 190.215237 114.538785 
L 190.232811 113.490289 
L 190.449242 113.490289 
L 190.54265 108.247812 
L 190.604641 108.247812 
L 190.604641 106.675069 
L 190.833439 106.675069 
L 190.840222 105.626573 
L 190.948391 105.626573 
L 190.965231 101.956839 
L 191.146059 101.956839 
L 191.219189 98.287105 
L 191.348067 98.287105 
L 191.348067 97.23861 
L 191.492317 97.23861 
L 191.492317 96.714362 
L 191.680634 96.714362 
L 191.680634 96.190115 
L 191.927495 96.190115 
L 191.927495 93.044628 
L 192.413925 93.044628 
L 192.497267 91.471885 
L 192.63528 91.471885 
L 192.693221 89.899142 
L 192.811544 89.899142 
L 192.811544 88.850646 
L 193.039808 88.850646 
L 193.120178 85.180912 
L 193.211993 85.180912 
L 193.300382 82.559674 
L 193.417531 82.559674 
L 193.446694 79.414188 
L 193.606211 79.414188 
L 193.606211 78.365692 
L 193.798554 78.365692 
L 193.798554 77.841444 
L 193.912367 77.841444 
L 193.971819 75.744454 
L 194.047956 75.744454 
L 194.047956 75.220206 
L 194.196437 75.220206 
L 194.196437 73.647463 
L 194.343646 73.647463 
L 194.365757 70.501976 
L 194.742764 70.501976 
L 194.742764 69.977729 
L 194.933556 69.977729 
L 194.933556 69.453481 
L 195.146027 69.453481 
L 195.16713 66.832242 
L 195.301058 66.832242 
L 195.301058 66.307995 
L 195.428758 66.307995 
L 195.428758 65.783747 
L 195.632665 65.783747 
L 195.724788 64.211004 
L 195.81642 64.211004 
L 195.821497 62.638261 
L 196.170682 62.638261 
L 196.170682 62.114013 
L 196.37094 62.114013 
L 196.393048 60.54127 
L 196.498282 60.54127 
L 196.58832 57.920031 
L 196.624688 57.920031 
L 196.624688 57.395783 
L 196.742956 57.395783 
L 196.824544 54.250297 
L 196.855637 54.250297 
L 196.946204 49.00782 
L 197.026835 49.00782 
L 197.076449 46.910829 
L 197.182283 46.910829 
L 197.266484 44.813838 
L 197.315411 44.813838 
L 197.315411 44.28959 
L 197.445207 44.28959 
L 197.470588 42.192599 
L 197.688241 42.192599 
L 197.783595 39.571361 
L 197.853638 39.571361 
L 197.961531 35.901627 
L 197.972731 35.901627 
L 197.995109 33.280388 
L 198.148729 33.280388 
L 198.148729 32.231893 
L 198.29 32.231893 
L 198.395196 29.086407 
L 198.786183 29.086407 
L 198.786183 28.562159 
L 199.021633 28.562159 
L 199.021633 28.037911 
L 199.247665 28.037911 
L 199.247665 27.513663 
L 333.168 27.513663 
L 333.168 27.513663 
" style="fill:none;stroke:#ffa500;stroke-linecap:square;stroke-width:1.5;"/>
   </g>
   <g id="line2d_54">
    <defs>
     <path d="M 0 -6 
L -1.347084 -1.854102 
L -5.706339 -1.854102 
L -2.179628 0.708204 
L -3.526712 4.854102 
L -0 2.291796 
L 3.526712 4.854102 
L 2.179628 0.708204 
L 5.706339 -1.854102 
L 1.347084 -1.854102 
z
" id="m5a5682d38c" style="stroke:#ffa500;stroke-linejoin:bevel;stroke-width:1.5;"/>
    </defs>
    <g>
     <use style="fill-opacity:0;stroke:#ffa500;stroke-linejoin:bevel;stroke-width:1.5;" x="132.177056" xlink:href="#m5a5682d38c" y="253.46443"/>
     <use style="fill-opacity:0;stroke:#ffa500;stroke-linejoin:bevel;stroke-width:1.5;" x="184.770879" xlink:href="#m5a5682d38c" y="146.517896"/>
     <use style="fill-opacity:0;stroke:#ffa500;stroke-linejoin:bevel;stroke-width:1.5;" x="199.247665" xlink:href="#m5a5682d38c" y="28.037911"/>
     <use style="fill-opacity:0;stroke:#ffa500;stroke-linejoin:bevel;stroke-width:1.5;" x="199.247665" xlink:href="#m5a5682d38c" y="27.513663"/>
     <use style="fill-opacity:0;stroke:#ffa500;stroke-linejoin:bevel;stroke-width:1.5;" x="199.247665" xlink:href="#m5a5682d38c" y="27.513663"/>
     <use style="fill-opacity:0;stroke:#ffa500;stroke-linejoin:bevel;stroke-width:1.5;" x="333.168" xlink:href="#m5a5682d38c" y="27.513663"/>
    </g>
   </g>
   <g id="line2d_55">
    <path style="fill:none;stroke:#ffa500;stroke-linecap:square;stroke-width:1.5;"/>
    <g/>
   </g>
   <g id="line2d_56">
    <defs>
     <path d="M 0 1.5 
C 0.397805 1.5 0.77937 1.341951 1.06066 1.06066 
C 1.341951 0.77937 1.5 0.397805 1.5 0 
C 1.5 -0.397805 1.341951 -0.77937 1.06066 -1.06066 
C 0.77937 -1.341951 0.397805 -1.5 0 -1.5 
C -0.397805 -1.5 -0.77937 -1.341951 -1.06066 -1.06066 
C -1.341951 -0.77937 -1.5 -0.397805 -1.5 0 
C -1.5 0.397805 -1.341951 0.77937 -1.06066 1.06066 
C -0.77937 1.341951 -0.397805 1.5 0 1.5 
z
" id="me846f20414" style="stroke:#6495ed;"/>
    </defs>
    <g>
     <use style="fill:#6495ed;stroke:#6495ed;" x="261.536223" xlink:href="#me846f20414" y="184.787979"/>
     <use style="fill:#6495ed;stroke:#6495ed;" x="261.536223" xlink:href="#me846f20414" y="184.787979"/>
    </g>
   </g>
   <g id="line2d_57">
    <path d="M 44.205749 294.88 
L 44.205749 293.307257 
L 56.12 293.307257 
L 56.12 291.734514 
L 63.08939 291.734514 
L 63.08939 287.016284 
L 77.653281 287.016284 
L 77.653281 285.967789 
L 79.948502 285.967789 
L 79.948502 284.919293 
L 81.973032 284.919293 
L 81.973032 283.34655 
L 83.784035 283.34655 
L 83.784035 282.298055 
L 85.422286 282.298055 
L 85.422286 281.249559 
L 88.293717 281.249559 
L 88.293717 279.152568 
L 89.567532 279.152568 
L 89.567532 277.579825 
L 91.862754 277.579825 
L 91.862754 276.53133 
L 97.336537 276.53133 
L 97.336537 276.007082 
L 98.100602 276.007082 
L 98.100602 270.764605 
L 98.832144 270.764605 
L 98.832144 269.716109 
L 99.533818 269.716109 
L 99.533818 269.191862 
L 102.084955 269.191862 
L 102.084955 266.046375 
L 103.231288 266.046375 
L 103.231288 265.522128 
L 105.801534 265.522128 
L 105.801534 262.376641 
L 106.272485 262.376641 
L 106.272485 261.852394 
L 106.730875 261.852394 
L 106.730875 261.328146 
L 107.177358 261.328146 
L 107.177358 260.803898 
L 110.014853 260.803898 
L 110.014853 260.279651 
L 116.984244 260.279651 
L 116.984244 258.706907 
L 117.231566 258.706907 
L 117.231566 256.609917 
L 122.114929 256.609917 
L 122.114929 256.085669 
L 123.189569 256.085669 
L 123.189569 255.561421 
L 126.207287 255.561421 
L 126.207287 255.037173 
L 132.882847 255.037173 
L 132.882847 254.512926 
L 138.904592 254.512926 
L 138.904592 253.46443 
L 140.750355 253.46443 
L 140.750355 252.940182 
L 141.898705 252.940182 
L 141.898705 252.415935 
L 147.615255 252.415935 
L 147.615255 251.891687 
L 148.829074 251.891687 
L 148.829074 250.843192 
L 149.061881 250.843192 
L 149.061881 250.318944 
L 152.539141 250.318944 
L 152.539141 249.794696 
L 155.18878 249.794696 
L 155.18878 248.746201 
L 157.857683 248.746201 
L 157.857683 247.173458 
L 158.997308 247.173458 
L 158.997308 246.124962 
L 159.276106 246.124962 
L 159.276106 245.600714 
L 160.268033 245.600714 
L 160.268033 244.027971 
L 161.803753 244.027971 
L 161.803753 242.979476 
L 163.482025 242.979476 
L 163.482025 242.455228 
L 164.103566 242.455228 
L 164.103566 241.93098 
L 164.765354 241.93098 
L 164.765354 240.882485 
L 166.484916 240.882485 
L 166.484916 240.358237 
L 167.91981 240.358237 
L 167.91981 239.309742 
L 169.574428 239.309742 
L 169.574428 238.785494 
L 170.171555 238.785494 
L 170.171555 238.261246 
L 170.506844 238.261246 
L 170.573125 236.164255 
L 172.957695 236.164255 
L 172.957695 235.640008 
L 173.421641 235.640008 
L 173.421641 235.11576 
L 175.270903 235.11576 
L 175.270903 233.543017 
L 175.718031 233.543017 
L 175.718031 233.018769 
L 176.041896 233.018769 
L 176.041896 232.494521 
L 176.909917 232.494521 
L 176.909917 231.970274 
L 177.757992 231.970274 
L 177.757992 230.397531 
L 178.881832 230.397531 
L 178.881832 229.873283 
L 180.44699 229.873283 
L 180.44699 228.824787 
L 180.809387 228.824787 
L 180.809387 225.679301 
L 181.336099 225.679301 
L 181.336099 225.155053 
L 182.24868 225.155053 
L 182.24868 224.106558 
L 185.062827 224.106558 
L 185.062827 223.058063 
L 185.265687 223.058063 
L 185.265687 222.009567 
L 185.905531 222.009567 
L 185.905531 220.961072 
L 186.147818 220.961072 
L 186.258841 219.388328 
L 189.051434 219.388328 
L 189.051434 218.864081 
L 189.784386 218.864081 
L 189.784386 218.339833 
L 190.483897 218.339833 
L 190.483897 217.815585 
L 190.645844 217.815585 
L 190.645844 216.76709 
L 191.930678 216.76709 
L 191.930678 216.242842 
L 192.729715 216.242842 
L 192.729715 214.145851 
L 192.965055 214.145851 
L 192.965055 212.573108 
L 193.270969 212.573108 
L 193.270969 211.524613 
L 193.417531 211.524613 
L 193.417531 209.95187 
L 194.560757 209.95187 
L 194.560757 208.903374 
L 195.43395 208.903374 
L 195.43395 207.854879 
L 195.945402 207.854879 
L 195.945402 207.330631 
L 196.658562 207.330631 
L 196.747766 206.282136 
L 197.828817 206.282136 
L 197.887427 205.23364 
L 198.61231 205.23364 
L 198.61231 204.709392 
L 198.764812 204.709392 
L 198.764812 204.185145 
L 200.894042 204.185145 
L 200.894042 203.136649 
L 201.714856 203.136649 
L 201.714856 202.612401 
L 208.012665 202.612401 
L 208.012665 202.088154 
L 209.617284 202.088154 
L 209.617284 200.515411 
L 210.586864 200.515411 
L 210.586864 199.466915 
L 211.561634 199.466915 
L 211.561634 198.41842 
L 211.852692 198.41842 
L 211.852692 197.894172 
L 212.686952 197.894172 
L 212.686952 197.369924 
L 213.117231 197.369924 
L 213.117231 196.845677 
L 218.850021 196.845677 
L 218.850021 196.321429 
L 224.51776 196.321429 
L 224.62782 195.272933 
L 224.972465 195.272933 
L 224.972465 194.748686 
L 228.530093 194.748686 
L 228.530093 194.224438 
L 228.858847 194.224438 
L 228.858847 193.70019 
L 229.201826 193.70019 
L 229.306692 192.651695 
L 232.473378 192.651695 
L 232.473378 192.127447 
L 232.598391 192.127447 
L 232.598391 191.603199 
L 234.855261 191.603199 
L 234.855261 191.078952 
L 235.083469 191.078952 
L 235.083469 190.554704 
L 235.378197 190.554704 
L 235.378197 190.030456 
L 237.722359 190.030456 
L 237.722359 189.506209 
L 239.643485 189.506209 
L 239.643485 188.981961 
L 243.393274 188.981961 
L 243.393274 188.457713 
L 247.650159 188.457713 
L 247.650159 187.933465 
L 251.059287 187.933465 
L 251.059287 187.409218 
L 255.566898 187.409218 
L 255.566898 186.88497 
L 259.134639 186.88497 
L 259.134639 186.360722 
L 259.767217 186.360722 
L 259.767217 185.312227 
L 261.536223 185.312227 
L 261.536223 184.787979 
L 333.168 184.787979 
L 333.168 184.787979 
" style="fill:none;stroke:#6495ed;stroke-linecap:square;stroke-width:1.5;"/>
   </g>
   <g id="line2d_58">
    <defs>
     <path d="M -0 6 
L 6 -6 
L -6 -6 
z
" id="m7da717e16f" style="stroke:#6495ed;stroke-linejoin:miter;stroke-width:1.5;"/>
    </defs>
    <g>
     <use style="fill-opacity:0;stroke:#6495ed;stroke-linejoin:miter;stroke-width:1.5;" x="117.231566" xlink:href="#m7da717e16f" y="256.609917"/>
     <use style="fill-opacity:0;stroke:#6495ed;stroke-linejoin:miter;stroke-width:1.5;" x="176.909917" xlink:href="#m7da717e16f" y="232.494521"/>
     <use style="fill-opacity:0;stroke:#6495ed;stroke-linejoin:miter;stroke-width:1.5;" x="247.650159" xlink:href="#m7da717e16f" y="188.457713"/>
     <use style="fill-opacity:0;stroke:#6495ed;stroke-linejoin:miter;stroke-width:1.5;" x="261.536223" xlink:href="#m7da717e16f" y="184.787979"/>
     <use style="fill-opacity:0;stroke:#6495ed;stroke-linejoin:miter;stroke-width:1.5;" x="261.536223" xlink:href="#m7da717e16f" y="184.787979"/>
     <use style="fill-opacity:0;stroke:#6495ed;stroke-linejoin:miter;stroke-width:1.5;" x="333.168" xlink:href="#m7da717e16f" y="184.787979"/>
    </g>
   </g>
   <g id="line2d_59">
    <path style="fill:none;stroke:#6495ed;stroke-linecap:square;stroke-width:1.5;"/>
    <g/>
   </g>
   <g id="line2d_60">
    <path clip-path="url(#p55e5b0ac07)" d="M 202.691626 202.612401 
" style="fill:none;stroke:#6495ed;stroke-linecap:square;stroke-width:1.5;"/>
    <defs>
     <path d="M -12 12 
L 12 -12 
M -12 -12 
L 12 12 
" id="mfc91343332" style="stroke:#6495ed;"/>
    </defs>
    <g clip-path="url(#p55e5b0ac07)">
     <use style="fill:#6495ed;stroke:#6495ed;" x="202.691626" xlink:href="#mfc91343332" y="202.612401"/>
    </g>
   </g>
   <g id="line2d_61">
    <path d="M 333.168 184.787979 
L 363.64328 289.532673 
" style="fill:none;stroke:#6495ed;stroke-linecap:square;stroke-width:1.5;"/>
    <g>
     <use style="fill-opacity:0;stroke:#6495ed;stroke-linejoin:miter;stroke-width:1.5;" x="333.168" xlink:href="#m7da717e16f" y="184.787979"/>
     <use style="fill-opacity:0;stroke:#6495ed;stroke-linejoin:miter;stroke-width:1.5;" x="363.64328" xlink:href="#m7da717e16f" y="289.532673"/>
    </g>
   </g>
   <g id="line2d_62">
    <path d="M 333.168 174.303025 
L 363.64328 225.364752 
" style="fill:none;stroke:#ff00ff;stroke-linecap:square;stroke-width:1.5;"/>
    <g>
     <use style="fill-opacity:0;stroke:#ff00ff;stroke-linejoin:miter;stroke-width:1.5;" x="333.168" xlink:href="#m1fc0ebad5a" y="174.303025"/>
     <use style="fill-opacity:0;stroke:#ff00ff;stroke-linejoin:miter;stroke-width:1.5;" x="363.64328" xlink:href="#m1fc0ebad5a" y="225.364752"/>
    </g>
   </g>
   <g id="line2d_63">
    <path d="M 333.168 27.513663 
L 363.64328 161.196832 
" style="fill:none;stroke:#000080;stroke-linecap:square;stroke-width:1.5;"/>
    <g>
     <use style="fill-opacity:0;stroke:#000080;stroke-width:1.5;" x="333.168" xlink:href="#m8da3c42372" y="27.513663"/>
     <use style="fill-opacity:0;stroke:#000080;stroke-width:1.5;" x="363.64328" xlink:href="#m8da3c42372" y="161.196832"/>
    </g>
   </g>
   <g id="line2d_64">
    <path d="M 333.168 27.513663 
L 363.64328 97.028911 
" style="fill:none;stroke:#ffa500;stroke-linecap:square;stroke-width:1.5;"/>
    <g>
     <use style="fill-opacity:0;stroke:#ffa500;stroke-linejoin:bevel;stroke-width:1.5;" x="333.168" xlink:href="#m5a5682d38c" y="27.513663"/>
     <use style="fill-opacity:0;stroke:#ffa500;stroke-linejoin:bevel;stroke-width:1.5;" x="363.64328" xlink:href="#m5a5682d38c" y="97.028911"/>
    </g>
   </g>
   <g id="line2d_65">
    <path d="M 333.168 294.88 
L 333.168 27.513663 
" style="fill:none;stroke:#000000;stroke-linecap:square;stroke-width:1.5;"/>
   </g>
   <g id="patch_3">
    <path d="M 56.12 294.88 
L 56.12 24.84 
" style="fill:none;stroke:#000000;stroke-linecap:square;stroke-linejoin:miter;stroke-width:0.8;"/>
   </g>
   <g id="patch_4">
    <path d="M 333.168 294.88 
L 333.168 24.84 
" style="fill:none;stroke:#000000;stroke-linecap:square;stroke-linejoin:miter;stroke-width:0.8;"/>
   </g>
   <g id="patch_5">
    <path d="M 56.12 294.88 
L 333.168 294.88 
" style="fill:none;stroke:#000000;stroke-linecap:square;stroke-linejoin:miter;stroke-width:0.8;"/>
   </g>
   <g id="patch_6">
    <path d="M 56.12 24.84 
L 333.168 24.84 
" style="fill:none;stroke:#000000;stroke-linecap:square;stroke-linejoin:miter;stroke-width:0.8;"/>
   </g>
   <g id="text_13">
    <!-- PSO 4 -->
    <defs>
     <path d="M 19.671875 64.796875 
L 19.671875 37.40625 
L 32.078125 37.40625 
Q 38.96875 37.40625 42.71875 40.96875 
Q 46.484375 44.53125 46.484375 51.125 
Q 46.484375 57.671875 42.71875 61.234375 
Q 38.96875 64.796875 32.078125 64.796875 
z
M 9.8125 72.90625 
L 32.078125 72.90625 
Q 44.34375 72.90625 50.609375 67.359375 
Q 56.890625 61.8125 56.890625 51.125 
Q 56.890625 40.328125 50.609375 34.8125 
Q 44.34375 29.296875 32.078125 29.296875 
L 19.671875 29.296875 
L 19.671875 0 
L 9.8125 0 
z
" id="DejaVuSans-50"/>
     <path d="M 53.515625 70.515625 
L 53.515625 60.890625 
Q 47.90625 63.578125 42.921875 64.890625 
Q 37.9375 66.21875 33.296875 66.21875 
Q 25.25 66.21875 20.875 63.09375 
Q 16.5 59.96875 16.5 54.203125 
Q 16.5 49.359375 19.40625 46.890625 
Q 22.3125 44.4375 30.421875 42.921875 
L 36.375 41.703125 
Q 47.40625 39.59375 52.65625 34.296875 
Q 57.90625 29 57.90625 20.125 
Q 57.90625 9.515625 50.796875 4.046875 
Q 43.703125 -1.421875 29.984375 -1.421875 
Q 24.8125 -1.421875 18.96875 -0.25 
Q 13.140625 0.921875 6.890625 3.21875 
L 6.890625 13.375 
Q 12.890625 10.015625 18.65625 8.296875 
Q 24.421875 6.59375 29.984375 6.59375 
Q 38.421875 6.59375 43.015625 9.90625 
Q 47.609375 13.234375 47.609375 19.390625 
Q 47.609375 24.75 44.3125 27.78125 
Q 41.015625 30.8125 33.5 32.328125 
L 27.484375 33.5 
Q 16.453125 35.6875 11.515625 40.375 
Q 6.59375 45.0625 6.59375 53.421875 
Q 6.59375 63.09375 13.40625 68.65625 
Q 20.21875 74.21875 32.171875 74.21875 
Q 37.3125 74.21875 42.625 73.28125 
Q 47.953125 72.359375 53.515625 70.515625 
z
" id="DejaVuSans-53"/>
     <path d="M 39.40625 66.21875 
Q 28.65625 66.21875 22.328125 58.203125 
Q 16.015625 50.203125 16.015625 36.375 
Q 16.015625 22.609375 22.328125 14.59375 
Q 28.65625 6.59375 39.40625 6.59375 
Q 50.140625 6.59375 56.421875 14.59375 
Q 62.703125 22.609375 62.703125 36.375 
Q 62.703125 50.203125 56.421875 58.203125 
Q 50.140625 66.21875 39.40625 66.21875 
z
M 39.40625 74.21875 
Q 54.734375 74.21875 63.90625 63.9375 
Q 73.09375 53.65625 73.09375 36.375 
Q 73.09375 19.140625 63.90625 8.859375 
Q 54.734375 -1.421875 39.40625 -1.421875 
Q 24.03125 -1.421875 14.8125 8.828125 
Q 5.609375 19.09375 5.609375 36.375 
Q 5.609375 53.65625 14.8125 63.9375 
Q 24.03125 74.21875 39.40625 74.21875 
z
" id="DejaVuSans-4f"/>
    </defs>
    <g transform="translate(369.18424 294.223611)scale(0.17 -0.17)">
     <use xlink:href="#DejaVuSans-50"/>
     <use x="60.302734" xlink:href="#DejaVuSans-53"/>
     <use x="123.779297" xlink:href="#DejaVuSans-4f"/>
     <use x="202.490234" xlink:href="#DejaVuSans-20"/>
     <use x="234.277344" xlink:href="#DejaVuSans-34"/>
    </g>
   </g>
   <g id="text_14">
    <!-- PSO 2 -->
    <g transform="translate(369.18424 230.05569)scale(0.17 -0.17)">
     <use xlink:href="#DejaVuSans-50"/>
     <use x="60.302734" xlink:href="#DejaVuSans-53"/>
     <use x="123.779297" xlink:href="#DejaVuSans-4f"/>
     <use x="202.490234" xlink:href="#DejaVuSans-20"/>
     <use x="234.277344" xlink:href="#DejaVuSans-32"/>
    </g>
   </g>
   <g id="text_15">
    <!-- PSO 1 -->
    <g transform="translate(369.18424 165.887769)scale(0.17 -0.17)">
     <use xlink:href="#DejaVuSans-50"/>
     <use x="60.302734" xlink:href="#DejaVuSans-53"/>
     <use x="123.779297" xlink:href="#DejaVuSans-4f"/>
     <use x="202.490234" xlink:href="#DejaVuSans-20"/>
     <use x="234.277344" xlink:href="#DejaVuSans-31"/>
    </g>
   </g>
   <g id="text_16">
    <!-- PSO 3 -->
    <defs>
     <path d="M 40.578125 39.3125 
Q 47.65625 37.796875 51.625 33 
Q 55.609375 28.21875 55.609375 21.1875 
Q 55.609375 10.40625 48.1875 4.484375 
Q 40.765625 -1.421875 27.09375 -1.421875 
Q 22.515625 -1.421875 17.65625 -0.515625 
Q 12.796875 0.390625 7.625 2.203125 
L 7.625 11.71875 
Q 11.71875 9.328125 16.59375 8.109375 
Q 21.484375 6.890625 26.8125 6.890625 
Q 36.078125 6.890625 40.9375 10.546875 
Q 45.796875 14.203125 45.796875 21.1875 
Q 45.796875 27.640625 41.28125 31.265625 
Q 36.765625 34.90625 28.71875 34.90625 
L 20.21875 34.90625 
L 20.21875 43.015625 
L 29.109375 43.015625 
Q 36.375 43.015625 40.234375 45.921875 
Q 44.09375 48.828125 44.09375 54.296875 
Q 44.09375 59.90625 40.109375 62.90625 
Q 36.140625 65.921875 28.71875 65.921875 
Q 24.65625 65.921875 20.015625 65.03125 
Q 15.375 64.15625 9.8125 62.3125 
L 9.8125 71.09375 
Q 15.4375 72.65625 20.34375 73.4375 
Q 25.25 74.21875 29.59375 74.21875 
Q 40.828125 74.21875 47.359375 69.109375 
Q 53.90625 64.015625 53.90625 55.328125 
Q 53.90625 49.265625 50.4375 45.09375 
Q 46.96875 40.921875 40.578125 39.3125 
z
" id="DejaVuSans-33"/>
    </defs>
    <g transform="translate(369.18424 101.719848)scale(0.17 -0.17)">
     <use xlink:href="#DejaVuSans-50"/>
     <use x="60.302734" xlink:href="#DejaVuSans-53"/>
     <use x="123.779297" xlink:href="#DejaVuSans-4f"/>
     <use x="202.490234" xlink:href="#DejaVuSans-20"/>
     <use x="234.277344" xlink:href="#DejaVuSans-33"/>
    </g>
   </g>
   <g id="text_17">
    <!-- best 2009 -->
    <defs>
     <path d="M 48.6875 27.296875 
Q 48.6875 37.203125 44.609375 42.84375 
Q 40.53125 48.484375 33.40625 48.484375 
Q 26.265625 48.484375 22.1875 42.84375 
Q 18.109375 37.203125 18.109375 27.296875 
Q 18.109375 17.390625 22.1875 11.75 
Q 26.265625 6.109375 33.40625 6.109375 
Q 40.53125 6.109375 44.609375 11.75 
Q 48.6875 17.390625 48.6875 27.296875 
z
M 18.109375 46.390625 
Q 20.953125 51.265625 25.265625 53.625 
Q 29.59375 56 35.59375 56 
Q 45.5625 56 51.78125 48.09375 
Q 58.015625 40.1875 58.015625 27.296875 
Q 58.015625 14.40625 51.78125 6.484375 
Q 45.5625 -1.421875 35.59375 -1.421875 
Q 29.59375 -1.421875 25.265625 0.953125 
Q 20.953125 3.328125 18.109375 8.203125 
L 18.109375 0 
L 9.078125 0 
L 9.078125 75.984375 
L 18.109375 75.984375 
z
" id="DejaVuSans-62"/>
     <path d="M 10.984375 1.515625 
L 10.984375 10.5 
Q 14.703125 8.734375 18.5 7.8125 
Q 22.3125 6.890625 25.984375 6.890625 
Q 35.75 6.890625 40.890625 13.453125 
Q 46.046875 20.015625 46.78125 33.40625 
Q 43.953125 29.203125 39.59375 26.953125 
Q 35.25 24.703125 29.984375 24.703125 
Q 19.046875 24.703125 12.671875 31.3125 
Q 6.296875 37.9375 6.296875 49.421875 
Q 6.296875 60.640625 12.9375 67.421875 
Q 19.578125 74.21875 30.609375 74.21875 
Q 43.265625 74.21875 49.921875 64.515625 
Q 56.59375 54.828125 56.59375 36.375 
Q 56.59375 19.140625 48.40625 8.859375 
Q 40.234375 -1.421875 26.421875 -1.421875 
Q 22.703125 -1.421875 18.890625 -0.6875 
Q 15.09375 0.046875 10.984375 1.515625 
z
M 30.609375 32.421875 
Q 37.25 32.421875 41.125 36.953125 
Q 45.015625 41.5 45.015625 49.421875 
Q 45.015625 57.28125 41.125 61.84375 
Q 37.25 66.40625 30.609375 66.40625 
Q 23.96875 66.40625 20.09375 61.84375 
Q 16.21875 57.28125 16.21875 49.421875 
Q 16.21875 41.5 20.09375 36.953125 
Q 23.96875 32.421875 30.609375 32.421875 
z
" id="DejaVuSans-39"/>
    </defs>
    <g transform="translate(369.18424 37.551928)scale(0.17 -0.17)">
     <use xlink:href="#DejaVuSans-62"/>
     <use x="63.476562" xlink:href="#DejaVuSans-65"/>
     <use x="125" xlink:href="#DejaVuSans-73"/>
     <use x="177.099609" xlink:href="#DejaVuSans-74"/>
     <use x="216.308594" xlink:href="#DejaVuSans-20"/>
     <use x="248.095703" xlink:href="#DejaVuSans-32"/>
     <use x="311.71875" xlink:href="#DejaVuSans-30"/>
     <use x="375.341797" xlink:href="#DejaVuSans-30"/>
     <use x="438.964844" xlink:href="#DejaVuSans-39"/>
    </g>
   </g>
   <g id="text_18">
    <!-- bbob f18, 2-D -->
    <defs>
     <path d="M 19.671875 64.796875 
L 19.671875 8.109375 
L 31.59375 8.109375 
Q 46.6875 8.109375 53.6875 14.9375 
Q 60.6875 21.78125 60.6875 36.53125 
Q 60.6875 51.171875 53.6875 57.984375 
Q 46.6875 64.796875 31.59375 64.796875 
z
M 9.8125 72.90625 
L 30.078125 72.90625 
Q 51.265625 72.90625 61.171875 64.09375 
Q 71.09375 55.28125 71.09375 36.53125 
Q 71.09375 17.671875 61.125 8.828125 
Q 51.171875 0 30.078125 0 
L 9.8125 0 
z
" id="DejaVuSans-44"/>
    </defs>
    <g transform="translate(58.89048 35.290806)scale(0.102 -0.102)">
     <use xlink:href="#DejaVuSans-62"/>
     <use x="63.476562" xlink:href="#DejaVuSans-62"/>
     <use x="126.953125" xlink:href="#DejaVuSans-6f"/>
     <use x="188.134766" xlink:href="#DejaVuSans-62"/>
     <use x="251.611328" xlink:href="#DejaVuSans-20"/>
     <use x="283.398438" xlink:href="#DejaVuSans-66"/>
     <use x="318.603516" xlink:href="#DejaVuSans-31"/>
     <use x="382.226562" xlink:href="#DejaVuSans-38"/>
     <use x="445.849609" xlink:href="#DejaVuSans-2c"/>
     <use x="477.636719" xlink:href="#DejaVuSans-20"/>
     <use x="509.423828" xlink:href="#DejaVuSans-32"/>
     <use x="573.046875" xlink:href="#DejaVuSans-2d"/>
     <use x="609.130859" xlink:href="#DejaVuSans-44"/>
    </g>
    <!-- 51 targets: 100..1e-08 -->
    <defs>
     <path d="M 10.796875 72.90625 
L 49.515625 72.90625 
L 49.515625 64.59375 
L 19.828125 64.59375 
L 19.828125 46.734375 
Q 21.96875 47.46875 24.109375 47.828125 
Q 26.265625 48.1875 28.421875 48.1875 
Q 40.625 48.1875 47.75 41.5 
Q 54.890625 34.8125 54.890625 23.390625 
Q 54.890625 11.625 47.5625 5.09375 
Q 40.234375 -1.421875 26.90625 -1.421875 
Q 22.3125 -1.421875 17.546875 -0.640625 
Q 12.796875 0.140625 7.71875 1.703125 
L 7.71875 11.625 
Q 12.109375 9.234375 16.796875 8.0625 
Q 21.484375 6.890625 26.703125 6.890625 
Q 35.15625 6.890625 40.078125 11.328125 
Q 45.015625 15.765625 45.015625 23.390625 
Q 45.015625 31 40.078125 35.4375 
Q 35.15625 39.890625 26.703125 39.890625 
Q 22.75 39.890625 18.8125 39.015625 
Q 14.890625 38.140625 10.796875 36.28125 
z
" id="DejaVuSans-35"/>
     <path d="M 11.71875 12.40625 
L 22.015625 12.40625 
L 22.015625 0 
L 11.71875 0 
z
M 11.71875 51.703125 
L 22.015625 51.703125 
L 22.015625 39.3125 
L 11.71875 39.3125 
z
" id="DejaVuSans-3a"/>
    </defs>
    <g transform="translate(58.89048 46.712575)scale(0.102 -0.102)">
     <use xlink:href="#DejaVuSans-35"/>
     <use x="63.623047" xlink:href="#DejaVuSans-31"/>
     <use x="127.246094" xlink:href="#DejaVuSans-20"/>
     <use x="159.033203" xlink:href="#DejaVuSans-74"/>
     <use x="198.242188" xlink:href="#DejaVuSans-61"/>
     <use x="259.521484" xlink:href="#DejaVuSans-72"/>
     <use x="300.619141" xlink:href="#DejaVuSans-67"/>
     <use x="364.095703" xlink:href="#DejaVuSans-65"/>
     <use x="425.619141" xlink:href="#DejaVuSans-74"/>
     <use x="464.828125" xlink:href="#DejaVuSans-73"/>
     <use x="516.927734" xlink:href="#DejaVuSans-3a"/>
     <use x="550.619141" xlink:href="#DejaVuSans-20"/>
     <use x="582.40625" xlink:href="#DejaVuSans-31"/>
     <use x="646.029297" xlink:href="#DejaVuSans-30"/>
     <use x="709.652344" xlink:href="#DejaVuSans-30"/>
     <use x="773.275391" xlink:href="#DejaVuSans-2e"/>
     <use x="805.0625" xlink:href="#DejaVuSans-2e"/>
     <use x="836.849609" xlink:href="#DejaVuSans-31"/>
     <use x="900.472656" xlink:href="#DejaVuSans-65"/>
     <use x="961.996094" xlink:href="#DejaVuSans-2d"/>
     <use x="998.080078" xlink:href="#DejaVuSans-30"/>
     <use x="1061.703125" xlink:href="#DejaVuSans-38"/>
    </g>
    <!-- 15 instances -->
    <g transform="translate(58.89048 58.134344)scale(0.102 -0.102)">
     <use xlink:href="#DejaVuSans-31"/>
     <use x="63.623047" xlink:href="#DejaVuSans-35"/>
     <use x="127.246094" xlink:href="#DejaVuSans-20"/>
     <use x="159.033203" xlink:href="#DejaVuSans-69"/>
     <use x="186.816406" xlink:href="#DejaVuSans-6e"/>
     <use x="250.195312" xlink:href="#DejaVuSans-73"/>
     <use x="302.294922" xlink:href="#DejaVuSans-74"/>
     <use x="341.503906" xlink:href="#DejaVuSans-61"/>
     <use x="402.783203" xlink:href="#DejaVuSans-6e"/>
     <use x="466.162109" xlink:href="#DejaVuSans-63"/>
     <use x="521.142578" xlink:href="#DejaVuSans-65"/>
     <use x="582.666016" xlink:href="#DejaVuSans-73"/>
    </g>
   </g>
   <g id="text_19">
    <!-- v0.0.0 -->
    <g style="fill:#808080;" transform="translate(178.96275 290.099912)scale(0.1 -0.1)">
     <use xlink:href="#DejaVuSans-76"/>
     <use x="59.179688" xlink:href="#DejaVuSans-30"/>
     <use x="122.802734" xlink:href="#DejaVuSans-2e"/>
     <use x="154.589844" xlink:href="#DejaVuSans-30"/>
     <use x="218.212891" xlink:href="#DejaVuSans-2e"/>
     <use x="250" xlink:href="#DejaVuSans-30"/>
    </g>
   </g>
   <g id="text_20">
    <!-- 18 Schaffer F7, condition 1000 -->
    <defs>
     <path d="M 54.890625 33.015625 
L 54.890625 0 
L 45.90625 0 
L 45.90625 32.71875 
Q 45.90625 40.484375 42.875 44.328125 
Q 39.84375 48.1875 33.796875 48.1875 
Q 26.515625 48.1875 22.3125 43.546875 
Q 18.109375 38.921875 18.109375 30.90625 
L 18.109375 0 
L 9.078125 0 
L 9.078125 75.984375 
L 18.109375 75.984375 
L 18.109375 46.1875 
Q 21.34375 51.125 25.703125 53.5625 
Q 30.078125 56 35.796875 56 
Q 45.21875 56 50.046875 50.171875 
Q 54.890625 44.34375 54.890625 33.015625 
z
" id="DejaVuSans-68"/>
     <path d="M 8.203125 72.90625 
L 55.078125 72.90625 
L 55.078125 68.703125 
L 28.609375 0 
L 18.3125 0 
L 43.21875 64.59375 
L 8.203125 64.59375 
z
" id="DejaVuSans-37"/>
    </defs>
    <g transform="translate(40.611187 18.84)scale(0.2 -0.2)">
     <use xlink:href="#DejaVuSans-31"/>
     <use x="63.623047" xlink:href="#DejaVuSans-38"/>
     <use x="127.246094" xlink:href="#DejaVuSans-20"/>
     <use x="159.033203" xlink:href="#DejaVuSans-53"/>
     <use x="222.509766" xlink:href="#DejaVuSans-63"/>
     <use x="277.490234" xlink:href="#DejaVuSans-68"/>
     <use x="340.869141" xlink:href="#DejaVuSans-61"/>
     <use x="402.148438" xlink:href="#DejaVuSans-66"/>
     <use x="437.353516" xlink:href="#DejaVuSans-66"/>
     <use x="472.558594" xlink:href="#DejaVuSans-65"/>
     <use x="534.082031" xlink:href="#DejaVuSans-72"/>
     <use x="575.195312" xlink:href="#DejaVuSans-20"/>
     <use x="606.982422" xlink:href="#DejaVuSans-46"/>
     <use x="664.501953" xlink:href="#DejaVuSans-37"/>
     <use x="728.125" xlink:href="#DejaVuSans-2c"/>
     <use x="759.912109" xlink:href="#DejaVuSans-20"/>
     <use x="791.699219" xlink:href="#DejaVuSans-63"/>
     <use x="846.679688" xlink:href="#DejaVuSans-6f"/>
     <use x="907.861328" xlink:href="#DejaVuSans-6e"/>
     <use x="971.240234" xlink:href="#DejaVuSans-64"/>
     <use x="1034.716797" xlink:href="#DejaVuSans-69"/>
     <use x="1062.5" xlink:href="#DejaVuSans-74"/>
     <use x="1101.708984" xlink:href="#DejaVuSans-69"/>
     <use x="1129.492188" xlink:href="#DejaVuSans-6f"/>
     <use x="1190.673828" xlink:href="#DejaVuSans-6e"/>
     <use x="1254.052734" xlink:href="#DejaVuSans-20"/>
     <use x="1285.839844" xlink:href="#DejaVuSans-31"/>
     <use x="1349.462891" xlink:href="#DejaVuSans-30"/>
     <use x="1413.085938" xlink:href="#DejaVuSans-30"/>
     <use x="1476.708984" xlink:href="#DejaVuSans-30"/>
    </g>
   </g>
  </g>
 </g>
 <defs>
  <clipPath id="p55e5b0ac07">
   <rect height="270.04" width="277.048" x="56.12" y="24.84"/>
  </clipPath>
 </defs>
</svg>
