<?xml version="1.0" encoding="utf-8" standalone="no"?>
<!DOCTYPE svg PUBLIC "-//W3C//DTD SVG 1.1//EN"
  "http://www.w3.org/Graphics/SVG/1.1/DTD/svg11.dtd">
<!-- Created with matplotlib (http://matplotlib.org/) -->
<svg height="345.6pt" version="1.1" viewBox="0 0 460.8 345.6" width="460.8pt" xmlns="http://www.w3.org/2000/svg" xmlns:xlink="http://www.w3.org/1999/xlink">
 <defs>
  <style type="text/css">
*{stroke-linecap:butt;stroke-linejoin:round;}
  </style>
 </defs>
 <g id="figure_1">
  <g id="patch_1">
   <path d="M 0 345.6 
L 460.8 345.6 
L 460.8 0 
L 0 0 
z
" style="fill:#ffffff;"/>
  </g>
  <g id="axes_1">
   <g id="patch_2">
    <path d="M 5.52 291.28 
L 450.672 291.28 
L 450.672 5.52 
L 5.52 5.52 
z
" style="fill:#ffffff;"/>
   </g>
   <g id="matplotlib.axis_1">
    <g id="xtick_1">
     <g id="line2d_1">
      <path clip-path="url(#p03846c23da)" d="M 5.410826 291.28 
L 5.410826 5.52 
" style="fill:none;stroke:#b0b0b0;stroke-linecap:square;stroke-width:0.8;"/>
     </g>
     <g id="line2d_2">
      <defs>
       <path d="M 0 0 
L 0 3.5 
" id="m5dd92c4724" style="stroke:#000000;stroke-width:0.8;"/>
      </defs>
      <g>
       <use style="stroke:#000000;stroke-width:0.8;" x="5.410826" xlink:href="#m5dd92c4724" y="291.28"/>
      </g>
     </g>
    </g>
    <g id="xtick_2">
     <g id="line2d_3">
      <path clip-path="url(#p03846c23da)" d="M 106.465894 291.28 
L 106.465894 5.52 
" style="fill:none;stroke:#b0b0b0;stroke-linecap:square;stroke-width:0.8;"/>
     </g>
     <g id="line2d_4">
      <g>
       <use style="stroke:#000000;stroke-width:0.8;" x="106.465894" xlink:href="#m5dd92c4724" y="291.28"/>
      </g>
     </g>
     <g id="text_1">
      <!-- -4 -->
      <defs>
       <path d="M 4.890625 31.390625 
L 31.203125 31.390625 
L 31.203125 23.390625 
L 4.890625 23.390625 
z
" id="DejaVuSans-2d"/>
       <path d="M 37.796875 64.3125 
L 12.890625 25.390625 
L 37.796875 25.390625 
z
M 35.203125 72.90625 
L 47.609375 72.90625 
L 47.609375 25.390625 
L 58.015625 25.390625 
L 58.015625 17.1875 
L 47.609375 17.1875 
L 47.609375 0 
L 37.796875 0 
L 37.796875 17.1875 
L 4.890625 17.1875 
L 4.890625 26.703125 
z
" id="DejaVuSans-34"/>
      </defs>
      <g transform="translate(96.495582 313.476875)scale(0.2 -0.2)">
       <use xlink:href="#DejaVuSans-2d"/>
       <use x="36.083984" xlink:href="#DejaVuSans-34"/>
      </g>
     </g>
    </g>
    <g id="xtick_3">
     <g id="line2d_5">
      <path clip-path="url(#p03846c23da)" d="M 207.520963 291.28 
L 207.520963 5.52 
" style="fill:none;stroke:#b0b0b0;stroke-linecap:square;stroke-width:0.8;"/>
     </g>
     <g id="line2d_6">
      <g>
       <use style="stroke:#000000;stroke-width:0.8;" x="207.520963" xlink:href="#m5dd92c4724" y="291.28"/>
      </g>
     </g>
     <g id="text_2">
      <!-- 0 -->
      <defs>
       <path d="M 31.78125 66.40625 
Q 24.171875 66.40625 20.328125 58.90625 
Q 16.5 51.421875 16.5 36.375 
Q 16.5 21.390625 20.328125 13.890625 
Q 24.171875 6.390625 31.78125 6.390625 
Q 39.453125 6.390625 43.28125 13.890625 
Q 47.125 21.390625 47.125 36.375 
Q 47.125 51.421875 43.28125 58.90625 
Q 39.453125 66.40625 31.78125 66.40625 
z
M 31.78125 74.21875 
Q 44.046875 74.21875 50.515625 64.515625 
Q 56.984375 54.828125 56.984375 36.375 
Q 56.984375 17.96875 50.515625 8.265625 
Q 44.046875 -1.421875 31.78125 -1.421875 
Q 19.53125 -1.421875 13.0625 8.265625 
Q 6.59375 17.96875 6.59375 36.375 
Q 6.59375 54.828125 13.0625 64.515625 
Q 19.53125 74.21875 31.78125 74.21875 
z
" id="DejaVuSans-30"/>
      </defs>
      <g transform="translate(201.158463 313.476875)scale(0.2 -0.2)">
       <use xlink:href="#DejaVuSans-30"/>
      </g>
     </g>
    </g>
    <g id="xtick_4">
     <g id="line2d_7">
      <path clip-path="url(#p03846c23da)" d="M 308.576031 291.28 
L 308.576031 5.52 
" style="fill:none;stroke:#b0b0b0;stroke-linecap:square;stroke-width:0.8;"/>
     </g>
     <g id="line2d_8">
      <g>
       <use style="stroke:#000000;stroke-width:0.8;" x="308.576031" xlink:href="#m5dd92c4724" y="291.28"/>
      </g>
     </g>
     <g id="text_3">
      <!-- 4 -->
      <g transform="translate(302.213531 313.476875)scale(0.2 -0.2)">
       <use xlink:href="#DejaVuSans-34"/>
      </g>
     </g>
    </g>
    <g id="xtick_5">
     <g id="line2d_9">
      <path clip-path="url(#p03846c23da)" d="M 409.631099 291.28 
L 409.631099 5.52 
" style="fill:none;stroke:#b0b0b0;stroke-linecap:square;stroke-width:0.8;"/>
     </g>
     <g id="line2d_10">
      <g>
       <use style="stroke:#000000;stroke-width:0.8;" x="409.631099" xlink:href="#m5dd92c4724" y="291.28"/>
      </g>
     </g>
     <g id="text_4">
      <!-- 8 -->
      <defs>
       <path d="M 31.78125 34.625 
Q 24.75 34.625 20.71875 30.859375 
Q 16.703125 27.09375 16.703125 20.515625 
Q 16.703125 13.921875 20.71875 10.15625 
Q 24.75 6.390625 31.78125 6.390625 
Q 38.8125 6.390625 42.859375 10.171875 
Q 46.921875 13.96875 46.921875 20.515625 
Q 46.921875 27.09375 42.890625 30.859375 
Q 38.875 34.625 31.78125 34.625 
z
M 21.921875 38.8125 
Q 15.578125 40.375 12.03125 44.71875 
Q 8.5 49.078125 8.5 55.328125 
Q 8.5 64.0625 14.71875 69.140625 
Q 20.953125 74.21875 31.78125 74.21875 
Q 42.671875 74.21875 48.875 69.140625 
Q 55.078125 64.0625 55.078125 55.328125 
Q 55.078125 49.078125 51.53125 44.71875 
Q 48 40.375 41.703125 38.8125 
Q 48.828125 37.15625 52.796875 32.3125 
Q 56.78125 27.484375 56.78125 20.515625 
Q 56.78125 9.90625 50.3125 4.234375 
Q 43.84375 -1.421875 31.78125 -1.421875 
Q 19.734375 -1.421875 13.25 4.234375 
Q 6.78125 9.90625 6.78125 20.515625 
Q 6.78125 27.484375 10.78125 32.3125 
Q 14.796875 37.15625 21.921875 38.8125 
z
M 18.3125 54.390625 
Q 18.3125 48.734375 21.84375 45.5625 
Q 25.390625 42.390625 31.78125 42.390625 
Q 38.140625 42.390625 41.71875 45.5625 
Q 45.3125 48.734375 45.3125 54.390625 
Q 45.3125 60.0625 41.71875 63.234375 
Q 38.140625 66.40625 31.78125 66.40625 
Q 25.390625 66.40625 21.84375 63.234375 
Q 18.3125 60.0625 18.3125 54.390625 
z
" id="DejaVuSans-38"/>
      </defs>
      <g transform="translate(403.268599 313.476875)scale(0.2 -0.2)">
       <use xlink:href="#DejaVuSans-38"/>
      </g>
     </g>
    </g>
    <g id="text_5">
     <!-- log10 of Df -->
     <defs>
      <path d="M 9.421875 75.984375 
L 18.40625 75.984375 
L 18.40625 0 
L 9.421875 0 
z
" id="DejaVuSans-6c"/>
      <path d="M 30.609375 48.390625 
Q 23.390625 48.390625 19.1875 42.75 
Q 14.984375 37.109375 14.984375 27.296875 
Q 14.984375 17.484375 19.15625 11.84375 
Q 23.34375 6.203125 30.609375 6.203125 
Q 37.796875 6.203125 41.984375 11.859375 
Q 46.1875 17.53125 46.1875 27.296875 
Q 46.1875 37.015625 41.984375 42.703125 
Q 37.796875 48.390625 30.609375 48.390625 
z
M 30.609375 56 
Q 42.328125 56 49.015625 48.375 
Q 55.71875 40.765625 55.71875 27.296875 
Q 55.71875 13.875 49.015625 6.21875 
Q 42.328125 -1.421875 30.609375 -1.421875 
Q 18.84375 -1.421875 12.171875 6.21875 
Q 5.515625 13.875 5.515625 27.296875 
Q 5.515625 40.765625 12.171875 48.375 
Q 18.84375 56 30.609375 56 
z
" id="DejaVuSans-6f"/>
      <path d="M 45.40625 27.984375 
Q 45.40625 37.75 41.375 43.109375 
Q 37.359375 48.484375 30.078125 48.484375 
Q 22.859375 48.484375 18.828125 43.109375 
Q 14.796875 37.75 14.796875 27.984375 
Q 14.796875 18.265625 18.828125 12.890625 
Q 22.859375 7.515625 30.078125 7.515625 
Q 37.359375 7.515625 41.375 12.890625 
Q 45.40625 18.265625 45.40625 27.984375 
z
M 54.390625 6.78125 
Q 54.390625 -7.171875 48.1875 -13.984375 
Q 42 -20.796875 29.203125 -20.796875 
Q 24.46875 -20.796875 20.265625 -20.09375 
Q 16.0625 -19.390625 12.109375 -17.921875 
L 12.109375 -9.1875 
Q 16.0625 -11.328125 19.921875 -12.34375 
Q 23.78125 -13.375 27.78125 -13.375 
Q 36.625 -13.375 41.015625 -8.765625 
Q 45.40625 -4.15625 45.40625 5.171875 
L 45.40625 9.625 
Q 42.625 4.78125 38.28125 2.390625 
Q 33.9375 0 27.875 0 
Q 17.828125 0 11.671875 7.65625 
Q 5.515625 15.328125 5.515625 27.984375 
Q 5.515625 40.671875 11.671875 48.328125 
Q 17.828125 56 27.875 56 
Q 33.9375 56 38.28125 53.609375 
Q 42.625 51.21875 45.40625 46.390625 
L 45.40625 54.6875 
L 54.390625 54.6875 
z
" id="DejaVuSans-67"/>
      <path d="M 12.40625 8.296875 
L 28.515625 8.296875 
L 28.515625 63.921875 
L 10.984375 60.40625 
L 10.984375 69.390625 
L 28.421875 72.90625 
L 38.28125 72.90625 
L 38.28125 8.296875 
L 54.390625 8.296875 
L 54.390625 0 
L 12.40625 0 
z
" id="DejaVuSans-31"/>
      <path id="DejaVuSans-20"/>
      <path d="M 37.109375 75.984375 
L 37.109375 68.5 
L 28.515625 68.5 
Q 23.6875 68.5 21.796875 66.546875 
Q 19.921875 64.59375 19.921875 59.515625 
L 19.921875 54.6875 
L 34.71875 54.6875 
L 34.71875 47.703125 
L 19.921875 47.703125 
L 19.921875 0 
L 10.890625 0 
L 10.890625 47.703125 
L 2.296875 47.703125 
L 2.296875 54.6875 
L 10.890625 54.6875 
L 10.890625 58.5 
Q 10.890625 67.625 15.140625 71.796875 
Q 19.390625 75.984375 28.609375 75.984375 
z
" id="DejaVuSans-66"/>
      <path d="M 19.671875 64.796875 
L 19.671875 8.109375 
L 31.59375 8.109375 
Q 46.6875 8.109375 53.6875 14.9375 
Q 60.6875 21.78125 60.6875 36.53125 
Q 60.6875 51.171875 53.6875 57.984375 
Q 46.6875 64.796875 31.59375 64.796875 
z
M 9.8125 72.90625 
L 30.078125 72.90625 
Q 51.265625 72.90625 61.171875 64.09375 
Q 71.09375 55.28125 71.09375 36.53125 
Q 71.09375 17.671875 61.125 8.828125 
Q 51.171875 0 30.078125 0 
L 9.8125 0 
z
" id="DejaVuSans-44"/>
     </defs>
     <g transform="translate(172.910063 336.833125)scale(0.2 -0.2)">
      <use xlink:href="#DejaVuSans-6c"/>
      <use x="27.783203" xlink:href="#DejaVuSans-6f"/>
      <use x="88.964844" xlink:href="#DejaVuSans-67"/>
      <use x="152.441406" xlink:href="#DejaVuSans-31"/>
      <use x="216.064453" xlink:href="#DejaVuSans-30"/>
      <use x="279.6875" xlink:href="#DejaVuSans-20"/>
      <use x="311.474609" xlink:href="#DejaVuSans-6f"/>
      <use x="372.65625" xlink:href="#DejaVuSans-66"/>
      <use x="407.861328" xlink:href="#DejaVuSans-20"/>
      <use x="439.648438" xlink:href="#DejaVuSans-44"/>
      <use x="516.650391" xlink:href="#DejaVuSans-66"/>
     </g>
    </g>
   </g>
   <g id="matplotlib.axis_2">
    <g id="ytick_1">
     <g id="line2d_11">
      <path clip-path="url(#p03846c23da)" d="M 5.52 291.28 
L 450.672 291.28 
" style="fill:none;stroke:#b0b0b0;stroke-linecap:square;stroke-width:0.8;"/>
     </g>
     <g id="line2d_12">
      <defs>
       <path d="M 0 0 
L -3.5 0 
" id="m8657409b97" style="stroke:#000000;stroke-width:0.8;"/>
      </defs>
      <g>
       <use style="stroke:#000000;stroke-width:0.8;" x="5.52" xlink:href="#m8657409b97" y="291.28"/>
      </g>
     </g>
    </g>
    <g id="ytick_2">
     <g id="line2d_13">
      <path clip-path="url(#p03846c23da)" d="M 5.52 234.693861 
L 450.672 234.693861 
" style="fill:none;stroke:#b0b0b0;stroke-linecap:square;stroke-width:0.8;"/>
     </g>
     <g id="line2d_14">
      <g>
       <use style="stroke:#000000;stroke-width:0.8;" x="5.52" xlink:href="#m8657409b97" y="234.693861"/>
      </g>
     </g>
    </g>
    <g id="ytick_3">
     <g id="line2d_15">
      <path clip-path="url(#p03846c23da)" d="M 5.52 178.107723 
L 450.672 178.107723 
" style="fill:none;stroke:#b0b0b0;stroke-linecap:square;stroke-width:0.8;"/>
     </g>
     <g id="line2d_16">
      <g>
       <use style="stroke:#000000;stroke-width:0.8;" x="5.52" xlink:href="#m8657409b97" y="178.107723"/>
      </g>
     </g>
    </g>
    <g id="ytick_4">
     <g id="line2d_17">
      <path clip-path="url(#p03846c23da)" d="M 5.52 121.521584 
L 450.672 121.521584 
" style="fill:none;stroke:#b0b0b0;stroke-linecap:square;stroke-width:0.8;"/>
     </g>
     <g id="line2d_18">
      <g>
       <use style="stroke:#000000;stroke-width:0.8;" x="5.52" xlink:href="#m8657409b97" y="121.521584"/>
      </g>
     </g>
    </g>
    <g id="ytick_5">
     <g id="line2d_19">
      <path clip-path="url(#p03846c23da)" d="M 5.52 64.935446 
L 450.672 64.935446 
" style="fill:none;stroke:#b0b0b0;stroke-linecap:square;stroke-width:0.8;"/>
     </g>
     <g id="line2d_20">
      <g>
       <use style="stroke:#000000;stroke-width:0.8;" x="5.52" xlink:href="#m8657409b97" y="64.935446"/>
      </g>
     </g>
    </g>
    <g id="ytick_6">
     <g id="line2d_21">
      <path clip-path="url(#p03846c23da)" d="M 5.52 8.349307 
L 450.672 8.349307 
" style="fill:none;stroke:#b0b0b0;stroke-linecap:square;stroke-width:0.8;"/>
     </g>
     <g id="line2d_22">
      <g>
       <use style="stroke:#000000;stroke-width:0.8;" x="5.52" xlink:href="#m8657409b97" y="8.349307"/>
      </g>
     </g>
    </g>
   </g>
   <g id="line2d_23">
    <path clip-path="url(#p03846c23da)" d="M 5.410826 291.28 
L 5.410826 234.693861 
L 197.92064 234.693861 
L 197.92064 230.921452 
L 204.252946 230.921452 
L 204.252946 227.149043 
L 206.333073 227.149043 
L 206.333073 223.376634 
L 207.14852 223.376634 
L 207.14852 219.604224 
L 209.889444 219.604224 
L 209.931745 212.059406 
L 211.264417 212.059406 
L 211.264417 208.286997 
L 211.844015 208.286997 
L 211.844015 204.514587 
L 212.521647 204.514587 
L 212.521647 200.742178 
L 213.408731 200.742178 
L 213.408731 196.969769 
L 215.032816 196.969769 
L 215.032816 193.19736 
L 215.741887 193.19736 
L 215.741887 189.42495 
L 215.974981 189.42495 
L 215.974981 185.652541 
L 217.793602 185.652541 
L 217.793602 181.880132 
L 219.391645 181.880132 
L 219.391645 178.107723 
L 257.745069 178.107723 
L 257.745069 174.335314 
L 258.252964 174.335314 
L 258.252964 170.562904 
L 259.257026 170.562904 
L 259.30192 163.018086 
L 259.823779 163.018086 
L 259.836492 155.473267 
L 260.941415 155.473267 
L 260.944561 147.928449 
L 261.781169 147.928449 
L 261.781169 144.15604 
L 261.946226 144.15604 
L 261.963022 136.611221 
L 262.354412 136.611221 
L 262.354412 132.838812 
L 262.770898 132.838812 
L 262.770898 129.066403 
L 262.929391 129.066403 
L 262.929391 125.293993 
L 263.079263 125.293993 
L 263.079263 121.521584 
L 263.372112 121.521584 
L 263.372112 117.749175 
L 264.288226 117.749175 
L 264.350535 110.204356 
L 264.676913 110.204356 
L 264.676913 106.431947 
L 265.20272 106.431947 
L 265.20272 102.659538 
L 265.678214 102.659538 
L 265.678214 98.887129 
L 266.52048 98.887129 
L 266.52048 95.114719 
L 266.690244 95.114719 
L 266.690244 91.34231 
L 266.894447 91.34231 
L 266.894447 87.569901 
L 267.331532 87.569901 
L 267.331532 83.797492 
L 267.898571 83.797492 
L 267.898571 80.025083 
L 268.111946 80.025083 
L 268.111946 76.252673 
L 268.562276 76.252673 
L 268.562276 72.480264 
L 268.889165 72.480264 
L 268.889165 68.707855 
L 269.566583 68.707855 
L 269.566583 64.935446 
L 295.220627 64.935446 
L 295.220627 61.163036 
L 296.521873 61.163036 
L 296.521873 57.390627 
L 302.896176 57.390627 
L 302.896176 53.618218 
L 303.800261 53.618218 
L 303.800261 49.845809 
L 305.185399 49.845809 
L 305.185399 46.073399 
L 305.465097 46.073399 
L 305.465097 42.30099 
L 307.288687 42.30099 
L 307.288687 38.528581 
L 312.150455 38.528581 
L 312.150455 34.756172 
L 314.10109 34.756172 
L 314.10109 30.983762 
L 314.639681 30.983762 
L 314.639681 27.211353 
L 315.350831 27.211353 
L 315.350831 23.438944 
L 316.038217 23.438944 
L 316.038217 19.666535 
L 316.785648 19.666535 
L 316.785648 15.894125 
L 317.534303 15.894125 
L 317.534303 12.121716 
L 319.381311 12.121716 
L 319.381311 8.349307 
L 319.381311 8.349307 
L 450.672 8.349307 
L 450.672 8.349307 
" style="fill:none;stroke:#ff0000;stroke-linecap:square;stroke-width:3;"/>
   </g>
   <g id="line2d_24">
    <path clip-path="url(#p03846c23da)" d="M 254.44022 291.28 
L 254.44022 287.507591 
L 256.655545 287.507591 
L 256.655545 283.735182 
L 256.864759 283.735182 
L 256.864759 279.962772 
L 257.162772 279.962772 
L 257.162772 276.190363 
L 257.690761 276.190363 
L 257.765375 268.645545 
L 258.076019 268.645545 
L 258.076019 264.873135 
L 258.897562 264.873135 
L 258.949766 257.328317 
L 259.059629 257.328317 
L 259.059629 253.555908 
L 260.334725 253.555908 
L 260.334725 249.783498 
L 260.766196 249.783498 
L 260.766196 246.011089 
L 260.897826 246.011089 
L 260.897826 242.23868 
L 261.148465 242.23868 
L 261.148465 238.466271 
L 262.250372 238.466271 
L 262.250372 234.693861 
L 265.648756 234.693861 
L 265.648756 230.921452 
L 268.287404 230.921452 
L 268.287404 227.149043 
L 268.834284 227.149043 
L 268.834284 223.376634 
L 269.025543 223.376634 
L 269.025543 219.604224 
L 270.716733 219.604224 
L 270.716733 215.831815 
L 270.918072 215.831815 
L 270.963785 204.514587 
L 271.552396 204.514587 
L 271.565461 196.969769 
L 271.778526 196.969769 
L 271.878079 185.652541 
L 272.561062 185.652541 
L 272.64388 178.107723 
L 275.572817 178.107723 
L 275.572817 174.335314 
L 276.223042 174.335314 
L 276.304932 166.790495 
L 276.696321 166.790495 
L 276.696321 163.018086 
L 277.171205 163.018086 
L 277.171205 159.245677 
L 277.774299 159.245677 
L 277.774299 155.473267 
L 278.03189 155.473267 
L 278.03189 151.700858 
L 278.236444 151.700858 
L 278.309821 144.15604 
L 278.410468 144.15604 
L 278.498907 132.838812 
L 279.002265 132.838812 
L 279.002265 129.066403 
L 279.301596 129.066403 
L 279.30242 121.521584 
L 279.457475 121.521584 
L 279.457475 117.749175 
L 279.613657 117.749175 
L 279.62841 110.204356 
L 279.738803 110.204356 
L 279.738803 106.431947 
L 279.98602 106.431947 
L 280.049824 98.887129 
L 280.582824 98.887129 
L 280.582824 95.114719 
L 281.054033 95.114719 
L 281.054033 91.34231 
L 281.191802 91.34231 
L 281.191802 87.569901 
L 281.85511 87.569901 
L 281.85511 83.797492 
L 282.330262 83.797492 
L 282.347966 76.252673 
L 282.719112 76.252673 
L 282.747533 68.707855 
L 283.388007 68.707855 
L 283.388007 64.935446 
L 369.178433 64.935446 
L 369.178433 61.163036 
L 371.279468 61.163036 
L 371.279468 57.390627 
L 372.442244 57.390627 
L 372.442244 53.618218 
L 374.209551 53.618218 
L 374.209551 49.845809 
L 374.45136 49.845809 
L 374.45136 46.073399 
L 375.74095 46.073399 
L 375.74095 42.30099 
L 377.953688 42.30099 
L 377.953688 38.528581 
L 380.530606 38.528581 
L 380.530606 34.756172 
L 381.554527 34.756172 
L 381.558556 27.211353 
L 381.673691 27.211353 
L 381.742715 19.666535 
L 381.918854 19.666535 
L 381.918854 15.894125 
L 383.161412 15.894125 
L 383.161412 12.121716 
L 389.491679 12.121716 
L 389.491679 8.349307 
L 389.491679 8.349307 
L 450.672 8.349307 
L 450.672 8.349307 
" style="fill:none;stroke:#00bfbf;stroke-linecap:square;stroke-width:1.5;"/>
   </g>
   <g id="line2d_25">
    <path clip-path="url(#p03846c23da)" d="M 254.44022 291.28 
L 254.44022 287.507591 
L 256.655545 287.507591 
L 256.655545 283.735182 
L 256.864759 283.735182 
L 256.864759 279.962772 
L 257.162772 279.962772 
L 257.162772 276.190363 
L 257.690761 276.190363 
L 257.765375 268.645545 
L 258.076019 268.645545 
L 258.076019 264.873135 
L 258.897562 264.873135 
L 258.949766 257.328317 
L 259.059629 257.328317 
L 259.059629 253.555908 
L 260.334725 253.555908 
L 260.334725 249.783498 
L 260.766196 249.783498 
L 260.766196 246.011089 
L 260.897826 246.011089 
L 260.929561 238.466271 
L 262.250372 238.466271 
L 262.250372 234.693861 
L 265.648756 234.693861 
L 265.648756 230.921452 
L 268.287404 230.921452 
L 268.287404 227.149043 
L 268.525467 227.149043 
L 268.525467 223.376634 
L 268.834284 223.376634 
L 268.834284 219.604224 
L 269.011158 219.604224 
L 269.011158 215.831815 
L 269.125196 215.831815 
L 269.125196 212.059406 
L 269.246046 212.059406 
L 269.246046 208.286997 
L 269.452373 208.286997 
L 269.452373 204.514587 
L 269.678791 204.514587 
L 269.678791 200.742178 
L 270.047863 200.742178 
L 270.047863 196.969769 
L 270.385566 196.969769 
L 270.394436 189.42495 
L 270.587472 189.42495 
L 270.587472 185.652541 
L 270.963785 185.652541 
L 271.072782 178.107723 
L 275.572817 178.107723 
L 275.572817 174.335314 
L 276.223042 174.335314 
L 276.304932 166.790495 
L 276.696321 166.790495 
L 276.696321 163.018086 
L 277.171205 163.018086 
L 277.171205 159.245677 
L 277.774299 159.245677 
L 277.774299 155.473267 
L 278.03189 155.473267 
L 278.03189 151.700858 
L 278.236444 151.700858 
L 278.309821 144.15604 
L 278.410468 144.15604 
L 278.498907 132.838812 
L 279.002265 132.838812 
L 279.002265 129.066403 
L 279.301596 129.066403 
L 279.30242 121.521584 
L 279.457475 121.521584 
L 279.471604 113.976766 
L 279.613657 113.976766 
L 279.62841 106.431947 
L 279.738803 106.431947 
L 279.738803 102.659538 
L 279.98602 102.659538 
L 280.049824 95.114719 
L 280.582824 95.114719 
L 280.582824 91.34231 
L 280.738855 91.34231 
L 280.738855 87.569901 
L 280.917869 87.569901 
L 280.917869 83.797492 
L 281.85511 83.797492 
L 281.85511 80.025083 
L 282.347966 80.025083 
L 282.347966 76.252673 
L 282.719112 76.252673 
L 282.747533 68.707855 
L 283.388007 68.707855 
L 283.388007 64.935446 
L 369.178433 64.935446 
L 369.178433 61.163036 
L 370.17453 61.163036 
L 370.17453 57.390627 
L 371.262648 57.390627 
L 371.279468 49.845809 
L 373.482039 49.845809 
L 373.482039 46.073399 
L 374.209551 46.073399 
L 374.209551 42.30099 
L 375.74095 42.30099 
L 375.74095 38.528581 
L 376.065352 38.528581 
L 376.065352 34.756172 
L 376.675171 34.756172 
L 376.675171 30.983762 
L 379.018138 30.983762 
L 379.124786 23.438944 
L 380.530606 23.438944 
L 380.530606 19.666535 
L 380.721196 19.666535 
L 380.721196 15.894125 
L 381.434782 15.894125 
L 381.434782 12.121716 
L 383.161412 12.121716 
L 383.161412 8.349307 
L 383.161412 8.349307 
L 450.672 8.349307 
L 450.672 8.349307 
" style="fill:none;stroke:#bf00bf;stroke-linecap:square;stroke-width:1.5;"/>
   </g>
   <g id="line2d_26">
    <path clip-path="url(#p03846c23da)" d="M 254.44022 291.28 
L 254.44022 287.507591 
L 256.655545 287.507591 
L 256.655545 283.735182 
L 256.864759 283.735182 
L 256.864759 279.962772 
L 257.162772 279.962772 
L 257.162772 276.190363 
L 257.690761 276.190363 
L 257.765375 268.645545 
L 258.076019 268.645545 
L 258.076019 264.873135 
L 258.897562 264.873135 
L 258.949766 257.328317 
L 259.059629 257.328317 
L 259.059629 253.555908 
L 260.334725 253.555908 
L 260.334725 249.783498 
L 260.766196 249.783498 
L 260.766196 246.011089 
L 260.897826 246.011089 
L 260.929561 238.466271 
L 262.250372 238.466271 
L 262.250372 234.693861 
L 265.648756 234.693861 
L 265.648756 230.921452 
L 266.972208 230.921452 
L 266.972208 227.149043 
L 267.195762 227.149043 
L 267.195762 223.376634 
L 267.618903 223.376634 
L 267.618903 219.604224 
L 267.954617 219.604224 
L 267.960934 212.059406 
L 268.19851 212.059406 
L 268.19851 208.286997 
L 268.365289 208.286997 
L 268.365289 204.514587 
L 268.596623 204.514587 
L 268.596623 200.742178 
L 268.834284 200.742178 
L 268.834284 196.969769 
L 269.011158 196.969769 
L 269.097724 185.652541 
L 269.277058 185.652541 
L 269.277058 181.880132 
L 269.452373 181.880132 
L 269.452373 178.107723 
L 275.572817 178.107723 
L 275.572817 174.335314 
L 276.223042 174.335314 
L 276.304932 166.790495 
L 276.696321 166.790495 
L 276.696321 163.018086 
L 277.171205 163.018086 
L 277.171205 159.245677 
L 277.723946 159.245677 
L 277.774299 151.700858 
L 278.03189 151.700858 
L 278.03189 147.928449 
L 278.236444 147.928449 
L 278.334352 132.838812 
L 278.410468 132.838812 
L 278.498907 121.521584 
L 279.002265 121.521584 
L 279.002265 117.749175 
L 279.20484 117.749175 
L 279.30242 106.431947 
L 279.457475 106.431947 
L 279.471604 98.887129 
L 279.613657 98.887129 
L 279.613657 95.114719 
L 279.738803 95.114719 
L 279.738803 91.34231 
L 279.98602 91.34231 
L 280.049824 83.797492 
L 280.582824 83.797492 
L 280.582824 80.025083 
L 280.738855 80.025083 
L 280.738855 76.252673 
L 280.917869 76.252673 
L 280.917869 72.480264 
L 282.07467 72.480264 
L 282.07467 68.707855 
L 282.29236 68.707855 
L 282.29236 64.935446 
L 366.007634 64.935446 
L 366.007634 61.163036 
L 367.700801 61.163036 
L 367.700801 57.390627 
L 368.992703 57.390627 
L 368.992703 53.618218 
L 369.453136 53.618218 
L 369.453136 49.845809 
L 370.041427 49.845809 
L 370.041427 46.073399 
L 370.17453 46.073399 
L 370.17453 42.30099 
L 371.279468 42.30099 
L 371.279468 38.528581 
L 371.85815 38.528581 
L 371.85815 34.756172 
L 372.305574 34.756172 
L 372.305574 30.983762 
L 373.482039 30.983762 
L 373.482039 27.211353 
L 374.209551 27.211353 
L 374.209551 23.438944 
L 374.997476 23.438944 
L 374.997476 19.666535 
L 375.141272 19.666535 
L 375.141272 15.894125 
L 375.74095 15.894125 
L 375.74095 12.121716 
L 379.987951 12.121716 
L 379.987951 8.349307 
L 379.987951 8.349307 
L 450.672 8.349307 
L 450.672 8.349307 
" style="fill:none;stroke:#000000;stroke-linecap:square;stroke-width:1.5;"/>
   </g>
   <g id="line2d_27">
    <path clip-path="url(#p03846c23da)" d="M 254.44022 291.28 
L 254.44022 287.507591 
L 256.655545 287.507591 
L 256.655545 283.735182 
L 256.864759 283.735182 
L 256.864759 279.962772 
L 257.039535 279.962772 
L 257.039535 276.190363 
L 257.162772 276.190363 
L 257.162772 272.417954 
L 257.690761 272.417954 
L 257.765375 264.873135 
L 258.076019 264.873135 
L 258.076019 261.100726 
L 258.285298 261.100726 
L 258.285298 257.328317 
L 258.897562 257.328317 
L 258.949766 249.783498 
L 259.059629 249.783498 
L 259.162387 242.23868 
L 259.176758 242.23868 
L 259.176758 238.466271 
L 259.635026 238.466271 
L 259.687602 230.921452 
L 260.237319 230.921452 
L 260.237319 227.149043 
L 260.766196 227.149043 
L 260.766196 223.376634 
L 260.929561 223.376634 
L 260.929561 219.604224 
L 262.133405 219.604224 
L 262.133405 215.831815 
L 262.401434 215.831815 
L 262.401434 212.059406 
L 262.739555 212.059406 
L 262.739555 208.286997 
L 262.911394 208.286997 
L 262.911394 204.514587 
L 263.087126 204.514587 
L 263.087126 200.742178 
L 263.291007 200.742178 
L 263.291007 196.969769 
L 263.637484 196.969769 
L 263.637484 193.19736 
L 263.751937 193.19736 
L 263.751937 189.42495 
L 264.939678 189.42495 
L 264.987889 181.880132 
L 265.170643 181.880132 
L 265.170643 178.107723 
L 274.484358 178.107723 
L 274.484358 174.335314 
L 275.572817 174.335314 
L 275.572817 170.562904 
L 276.107509 170.562904 
L 276.107509 166.790495 
L 276.223042 166.790495 
L 276.304932 155.473267 
L 276.696321 155.473267 
L 276.696321 151.700858 
L 277.171205 151.700858 
L 277.171205 147.928449 
L 277.338735 147.928449 
L 277.338735 144.15604 
L 277.752072 144.15604 
L 277.774299 136.611221 
L 277.999766 136.611221 
L 278.03189 125.293993 
L 278.236444 125.293993 
L 278.334352 113.976766 
L 278.410468 113.976766 
L 278.498907 102.659538 
L 278.676488 102.659538 
L 278.676488 98.887129 
L 279.002265 98.887129 
L 279.002265 95.114719 
L 279.301596 95.114719 
L 279.30242 87.569901 
L 279.457475 87.569901 
L 279.457475 83.797492 
L 279.738803 83.797492 
L 279.738803 80.025083 
L 279.98602 80.025083 
L 279.98602 76.252673 
L 280.582824 76.252673 
L 280.582824 72.480264 
L 280.765934 72.480264 
L 280.87591 64.935446 
L 360.398224 64.935446 
L 360.398224 61.163036 
L 363.387011 61.163036 
L 363.387011 57.390627 
L 365.014528 57.390627 
L 365.014528 53.618218 
L 365.12654 53.618218 
L 365.12654 49.845809 
L 365.896399 49.845809 
L 365.896399 46.073399 
L 366.007634 46.073399 
L 366.036731 38.528581 
L 366.479501 38.528581 
L 366.479501 34.756172 
L 367.044105 34.756172 
L 367.044105 30.983762 
L 368.192572 30.983762 
L 368.192572 27.211353 
L 368.675454 27.211353 
L 368.675454 23.438944 
L 368.992703 23.438944 
L 368.992703 19.666535 
L 369.453136 19.666535 
L 369.453136 15.894125 
L 373.482039 15.894125 
L 373.482039 12.121716 
L 375.396683 12.121716 
L 375.396683 8.349307 
L 375.396683 8.349307 
L 450.672 8.349307 
L 450.672 8.349307 
" style="fill:none;stroke:#00bfbf;stroke-linecap:square;stroke-width:1.5;"/>
   </g>
   <g id="line2d_28">
    <path clip-path="url(#p03846c23da)" d="M 5.410826 291.28 
L 5.410826 268.645545 
L 222.292775 268.645545 
L 222.292775 264.873135 
L 224.951938 264.873135 
L 224.951938 261.100726 
L 226.272776 261.100726 
L 226.272776 257.328317 
L 227.073646 257.328317 
L 227.073646 253.555908 
L 229.188144 253.555908 
L 229.188144 249.783498 
L 230.299351 249.783498 
L 230.299351 246.011089 
L 231.432273 246.011089 
L 231.432273 242.23868 
L 232.388162 242.23868 
L 232.388162 238.466271 
L 232.762845 238.466271 
L 232.768456 230.921452 
L 233.419209 230.921452 
L 233.419209 227.149043 
L 233.885375 227.149043 
L 233.885375 223.376634 
L 235.739507 223.376634 
L 235.739507 219.604224 
L 237.076963 219.604224 
L 237.145977 212.059406 
L 237.581759 212.059406 
L 237.581759 208.286997 
L 238.012421 208.286997 
L 238.012421 204.514587 
L 238.508382 204.514587 
L 238.508382 200.742178 
L 240.392816 200.742178 
L 240.392816 196.969769 
L 240.719587 196.969769 
L 240.719587 193.19736 
L 241.106151 193.19736 
L 241.106151 189.42495 
L 242.58874 189.42495 
L 242.58874 185.652541 
L 243.456378 185.652541 
L 243.456378 181.880132 
L 243.64706 181.880132 
L 243.64706 178.107723 
L 262.407234 178.107723 
L 262.407234 174.335314 
L 263.862288 174.335314 
L 263.862288 170.562904 
L 264.276633 170.562904 
L 264.276633 166.790495 
L 264.444041 166.790495 
L 264.444041 163.018086 
L 265.627014 163.018086 
L 265.627014 159.245677 
L 265.8267 159.245677 
L 265.8267 155.473267 
L 266.10712 155.473267 
L 266.10712 151.700858 
L 266.493928 151.700858 
L 266.493928 147.928449 
L 266.985268 147.928449 
L 266.985268 144.15604 
L 267.18205 144.15604 
L 267.18205 140.38363 
L 267.755241 140.38363 
L 267.755241 136.611221 
L 268.224493 136.611221 
L 268.224493 132.838812 
L 268.596139 132.838812 
L 268.65729 125.293993 
L 268.979486 125.293993 
L 268.979486 121.521584 
L 269.14664 121.521584 
L 269.14664 117.749175 
L 269.445178 117.749175 
L 269.445178 113.976766 
L 269.671966 113.976766 
L 269.671966 110.204356 
L 270.040209 110.204356 
L 270.040209 106.431947 
L 270.289649 106.431947 
L 270.386591 98.887129 
L 270.993088 98.887129 
L 270.993088 95.114719 
L 271.211091 95.114719 
L 271.319599 87.569901 
L 271.36754 87.569901 
L 271.36754 83.797492 
L 271.555278 83.797492 
L 271.555278 80.025083 
L 271.675474 80.025083 
L 271.675474 76.252673 
L 272.109386 76.252673 
L 272.109386 72.480264 
L 272.362165 72.480264 
L 272.362165 68.707855 
L 273.256098 68.707855 
L 273.256098 64.935446 
L 315.580994 64.935446 
L 315.580994 61.163036 
L 327.737594 61.163036 
L 327.737594 57.390627 
L 329.611388 57.390627 
L 329.611388 53.618218 
L 330.4708 53.618218 
L 330.544642 46.073399 
L 335.167529 46.073399 
L 335.167529 42.30099 
L 336.166919 42.30099 
L 336.166919 38.528581 
L 336.972861 38.528581 
L 336.972861 34.756172 
L 337.123788 34.756172 
L 337.123788 30.983762 
L 337.356239 30.983762 
L 337.356239 27.211353 
L 338.205105 27.211353 
L 338.205105 23.438944 
L 338.31921 23.438944 
L 338.31921 19.666535 
L 338.684899 19.666535 
L 338.684899 15.894125 
L 343.534987 15.894125 
L 343.534987 12.121716 
L 349.266044 12.121716 
L 349.266044 8.349307 
L 349.266044 8.349307 
L 450.672 8.349307 
L 450.672 8.349307 
" style="fill:none;stroke:#bf00bf;stroke-linecap:square;stroke-width:1.5;"/>
   </g>
   <g id="line2d_29">
    <path clip-path="url(#p03846c23da)" d="M 5.410826 291.28 
L 5.410826 234.693861 
L 197.92064 234.693861 
L 197.92064 230.921452 
L 204.267666 230.921452 
L 204.267666 227.149043 
L 206.333073 227.149043 
L 206.333073 223.376634 
L 207.273891 223.376634 
L 207.273891 219.604224 
L 209.909308 219.604224 
L 209.95171 212.059406 
L 211.272694 212.059406 
L 211.272694 208.286997 
L 211.867252 208.286997 
L 211.867252 204.514587 
L 212.521647 204.514587 
L 212.521647 200.742178 
L 213.438634 200.742178 
L 213.438634 196.969769 
L 215.032816 196.969769 
L 215.032816 193.19736 
L 215.765756 193.19736 
L 215.765756 189.42495 
L 215.989532 189.42495 
L 215.989532 185.652541 
L 217.805243 185.652541 
L 217.805243 181.880132 
L 219.391645 181.880132 
L 219.391645 178.107723 
L 257.745069 178.107723 
L 257.745069 174.335314 
L 258.252964 174.335314 
L 258.252964 170.562904 
L 259.262752 170.562904 
L 259.306542 163.018086 
L 259.823779 163.018086 
L 259.836492 155.473267 
L 260.941569 155.473267 
L 260.944561 147.928449 
L 261.781169 147.928449 
L 261.781169 144.15604 
L 261.946226 144.15604 
L 261.967973 136.611221 
L 262.354412 136.611221 
L 262.354412 132.838812 
L 262.770898 132.838812 
L 262.770898 129.066403 
L 262.929391 129.066403 
L 262.929391 125.293993 
L 263.079263 125.293993 
L 263.079263 121.521584 
L 263.400543 121.521584 
L 263.400543 117.749175 
L 264.288226 117.749175 
L 264.353909 110.204356 
L 264.680708 110.204356 
L 264.680708 106.431947 
L 265.208036 106.431947 
L 265.208036 102.659538 
L 265.678214 102.659538 
L 265.678214 98.887129 
L 266.52626 98.887129 
L 266.52626 95.114719 
L 266.690244 95.114719 
L 266.690244 91.34231 
L 266.895541 91.34231 
L 266.895541 87.569901 
L 267.351231 87.569901 
L 267.351231 83.797492 
L 267.949881 83.797492 
L 267.949881 80.025083 
L 268.111946 80.025083 
L 268.111946 76.252673 
L 268.562276 76.252673 
L 268.562276 72.480264 
L 268.889165 72.480264 
L 268.889165 68.707855 
L 269.566583 68.707855 
L 269.566583 64.935446 
L 295.295543 64.935446 
L 295.295543 61.163036 
L 296.521873 61.163036 
L 296.521873 57.390627 
L 302.908585 57.390627 
L 302.908585 53.618218 
L 303.800261 53.618218 
L 303.800261 49.845809 
L 305.185399 49.845809 
L 305.185399 46.073399 
L 305.465097 46.073399 
L 305.465097 42.30099 
L 307.652268 42.30099 
L 307.652268 38.528581 
L 312.162413 38.528581 
L 312.162413 34.756172 
L 314.10109 34.756172 
L 314.10109 30.983762 
L 314.739958 30.983762 
L 314.739958 27.211353 
L 315.350831 27.211353 
L 315.350831 23.438944 
L 316.161771 23.438944 
L 316.161771 19.666535 
L 316.786863 19.666535 
L 316.786863 15.894125 
L 317.534303 15.894125 
L 317.534303 12.121716 
L 319.381389 12.121716 
L 319.381389 8.349307 
L 319.381389 8.349307 
L 450.672 8.349307 
L 450.672 8.349307 
" style="fill:none;stroke:#000000;stroke-linecap:square;stroke-width:1.5;"/>
   </g>
   <g id="patch_3">
    <path d="M 5.52 291.28 
L 5.52 5.52 
" style="fill:none;stroke:#000000;stroke-linecap:square;stroke-linejoin:miter;stroke-width:0.8;"/>
   </g>
   <g id="patch_4">
    <path d="M 450.672 291.28 
L 450.672 5.52 
" style="fill:none;stroke:#000000;stroke-linecap:square;stroke-linejoin:miter;stroke-width:0.8;"/>
   </g>
   <g id="patch_5">
    <path d="M 5.52 291.28 
L 450.672 291.28 
" style="fill:none;stroke:#000000;stroke-linecap:square;stroke-linejoin:miter;stroke-width:0.8;"/>
   </g>
   <g id="patch_6">
    <path d="M 5.52 5.52 
L 450.672 5.52 
" style="fill:none;stroke:#000000;stroke-linecap:square;stroke-linejoin:miter;stroke-width:0.8;"/>
   </g>
   <g id="text_6">
    <!-- {f1-f5}, 20-D -->
    <defs>
     <path d="M 51.125 -9.28125 
L 51.125 -16.3125 
L 48.09375 -16.3125 
Q 35.9375 -16.3125 31.8125 -12.6875 
Q 27.6875 -9.078125 27.6875 1.703125 
L 27.6875 13.375 
Q 27.6875 20.75 25.046875 23.578125 
Q 22.40625 26.421875 15.484375 26.421875 
L 12.5 26.421875 
L 12.5 33.40625 
L 15.484375 33.40625 
Q 22.46875 33.40625 25.078125 36.203125 
Q 27.6875 39.015625 27.6875 46.296875 
L 27.6875 58.015625 
Q 27.6875 68.796875 31.8125 72.390625 
Q 35.9375 75.984375 48.09375 75.984375 
L 51.125 75.984375 
L 51.125 69 
L 47.796875 69 
Q 40.921875 69 38.8125 66.84375 
Q 36.71875 64.703125 36.71875 57.8125 
L 36.71875 45.703125 
Q 36.71875 38.03125 34.5 34.5625 
Q 32.28125 31.109375 26.90625 29.890625 
Q 32.328125 28.5625 34.515625 25.09375 
Q 36.71875 21.625 36.71875 14.015625 
L 36.71875 1.90625 
Q 36.71875 -4.984375 38.8125 -7.125 
Q 40.921875 -9.28125 47.796875 -9.28125 
z
" id="DejaVuSans-7b"/>
     <path d="M 10.796875 72.90625 
L 49.515625 72.90625 
L 49.515625 64.59375 
L 19.828125 64.59375 
L 19.828125 46.734375 
Q 21.96875 47.46875 24.109375 47.828125 
Q 26.265625 48.1875 28.421875 48.1875 
Q 40.625 48.1875 47.75 41.5 
Q 54.890625 34.8125 54.890625 23.390625 
Q 54.890625 11.625 47.5625 5.09375 
Q 40.234375 -1.421875 26.90625 -1.421875 
Q 22.3125 -1.421875 17.546875 -0.640625 
Q 12.796875 0.140625 7.71875 1.703125 
L 7.71875 11.625 
Q 12.109375 9.234375 16.796875 8.0625 
Q 21.484375 6.890625 26.703125 6.890625 
Q 35.15625 6.890625 40.078125 11.328125 
Q 45.015625 15.765625 45.015625 23.390625 
Q 45.015625 31 40.078125 35.4375 
Q 35.15625 39.890625 26.703125 39.890625 
Q 22.75 39.890625 18.8125 39.015625 
Q 14.890625 38.140625 10.796875 36.28125 
z
" id="DejaVuSans-35"/>
     <path d="M 12.5 -9.28125 
L 15.921875 -9.28125 
Q 22.75 -9.28125 24.828125 -7.171875 
Q 26.90625 -5.078125 26.90625 1.90625 
L 26.90625 14.015625 
Q 26.90625 21.625 29.09375 25.09375 
Q 31.296875 28.5625 36.71875 29.890625 
Q 31.296875 31.109375 29.09375 34.5625 
Q 26.90625 38.03125 26.90625 45.703125 
L 26.90625 57.8125 
Q 26.90625 64.75 24.828125 66.875 
Q 22.75 69 15.921875 69 
L 12.5 69 
L 12.5 75.984375 
L 15.578125 75.984375 
Q 27.734375 75.984375 31.8125 72.390625 
Q 35.890625 68.796875 35.890625 58.015625 
L 35.890625 46.296875 
Q 35.890625 39.015625 38.515625 36.203125 
Q 41.15625 33.40625 48.09375 33.40625 
L 51.125 33.40625 
L 51.125 26.421875 
L 48.09375 26.421875 
Q 41.15625 26.421875 38.515625 23.578125 
Q 35.890625 20.75 35.890625 13.375 
L 35.890625 1.703125 
Q 35.890625 -9.078125 31.8125 -12.6875 
Q 27.734375 -16.3125 15.578125 -16.3125 
L 12.5 -16.3125 
z
" id="DejaVuSans-7d"/>
     <path d="M 11.71875 12.40625 
L 22.015625 12.40625 
L 22.015625 4 
L 14.015625 -11.625 
L 7.71875 -11.625 
L 11.71875 4 
z
" id="DejaVuSans-2c"/>
     <path d="M 19.1875 8.296875 
L 53.609375 8.296875 
L 53.609375 0 
L 7.328125 0 
L 7.328125 8.296875 
Q 12.9375 14.109375 22.625 23.890625 
Q 32.328125 33.6875 34.8125 36.53125 
Q 39.546875 41.84375 41.421875 45.53125 
Q 43.3125 49.21875 43.3125 52.78125 
Q 43.3125 58.59375 39.234375 62.25 
Q 35.15625 65.921875 28.609375 65.921875 
Q 23.96875 65.921875 18.8125 64.3125 
Q 13.671875 62.703125 7.8125 59.421875 
L 7.8125 69.390625 
Q 13.765625 71.78125 18.9375 73 
Q 24.125 74.21875 28.421875 74.21875 
Q 39.75 74.21875 46.484375 68.546875 
Q 53.21875 62.890625 53.21875 53.421875 
Q 53.21875 48.921875 51.53125 44.890625 
Q 49.859375 40.875 45.40625 35.40625 
Q 44.1875 33.984375 37.640625 27.21875 
Q 31.109375 20.453125 19.1875 8.296875 
z
" id="DejaVuSans-32"/>
    </defs>
    <g transform="translate(308.79396 285.5648)scale(0.2 -0.2)">
     <use xlink:href="#DejaVuSans-7b"/>
     <use x="63.623047" xlink:href="#DejaVuSans-66"/>
     <use x="98.828125" xlink:href="#DejaVuSans-31"/>
     <use x="162.451172" xlink:href="#DejaVuSans-2d"/>
     <use x="198.535156" xlink:href="#DejaVuSans-66"/>
     <use x="233.740234" xlink:href="#DejaVuSans-35"/>
     <use x="297.363281" xlink:href="#DejaVuSans-7d"/>
     <use x="360.986328" xlink:href="#DejaVuSans-2c"/>
     <use x="392.773438" xlink:href="#DejaVuSans-20"/>
     <use x="424.560547" xlink:href="#DejaVuSans-32"/>
     <use x="488.183594" xlink:href="#DejaVuSans-30"/>
     <use x="551.806641" xlink:href="#DejaVuSans-2d"/>
     <use x="587.890625" xlink:href="#DejaVuSans-44"/>
    </g>
   </g>
   <g id="text_7">
    <!-- v0.0.0 -->
    <defs>
     <path d="M 2.984375 54.6875 
L 12.5 54.6875 
L 29.59375 8.796875 
L 46.6875 54.6875 
L 56.203125 54.6875 
L 35.6875 0 
L 23.484375 0 
z
" id="DejaVuSans-76"/>
     <path d="M 10.6875 12.40625 
L 21 12.40625 
L 21 0 
L 10.6875 0 
z
" id="DejaVuSans-2e"/>
    </defs>
    <g style="fill:#808080;" transform="translate(212.41475 286.342713)scale(0.1 -0.1)">
     <use xlink:href="#DejaVuSans-76"/>
     <use x="59.179688" xlink:href="#DejaVuSans-30"/>
     <use x="122.802734" xlink:href="#DejaVuSans-2e"/>
     <use x="154.589844" xlink:href="#DejaVuSans-30"/>
     <use x="218.212891" xlink:href="#DejaVuSans-2e"/>
     <use x="250" xlink:href="#DejaVuSans-30"/>
    </g>
   </g>
  </g>
 </g>
 <defs>
  <clipPath id="p03846c23da">
   <rect height="285.76" width="445.152" x="5.52" y="5.52"/>
  </clipPath>
 </defs>
</svg>
