<?xml version="1.0" encoding="utf-8" standalone="no"?>
<!DOCTYPE svg PUBLIC "-//W3C//DTD SVG 1.1//EN"
  "http://www.w3.org/Graphics/SVG/1.1/DTD/svg11.dtd">
<!-- Created with matplotlib (http://matplotlib.org/) -->
<svg height="345.6pt" version="1.1" viewBox="0 0 460.8 345.6" width="460.8pt" xmlns="http://www.w3.org/2000/svg" xmlns:xlink="http://www.w3.org/1999/xlink">
 <defs>
  <style type="text/css">
*{stroke-linecap:butt;stroke-linejoin:round;}
  </style>
 </defs>
 <g id="figure_1">
  <g id="patch_1">
   <path d="M 0 345.6 
L 460.8 345.6 
L 460.8 0 
L 0 0 
z
" style="fill:#ffffff;"/>
  </g>
  <g id="axes_1">
   <g id="patch_2">
    <path d="M 5.52 291.28 
L 450.672 291.28 
L 450.672 5.52 
L 5.52 5.52 
z
" style="fill:#ffffff;"/>
   </g>
   <g id="matplotlib.axis_1">
    <g id="xtick_1">
     <g id="line2d_1">
      <path clip-path="url(#p305c3d7753)" d="M 5.410826 291.28 
L 5.410826 5.52 
" style="fill:none;stroke:#b0b0b0;stroke-linecap:square;stroke-width:0.8;"/>
     </g>
     <g id="line2d_2">
      <defs>
       <path d="M 0 0 
L 0 3.5 
" id="m27a65a1cbe" style="stroke:#000000;stroke-width:0.8;"/>
      </defs>
      <g>
       <use style="stroke:#000000;stroke-width:0.8;" x="5.410826" xlink:href="#m27a65a1cbe" y="291.28"/>
      </g>
     </g>
    </g>
    <g id="xtick_2">
     <g id="line2d_3">
      <path clip-path="url(#p305c3d7753)" d="M 106.465894 291.28 
L 106.465894 5.52 
" style="fill:none;stroke:#b0b0b0;stroke-linecap:square;stroke-width:0.8;"/>
     </g>
     <g id="line2d_4">
      <g>
       <use style="stroke:#000000;stroke-width:0.8;" x="106.465894" xlink:href="#m27a65a1cbe" y="291.28"/>
      </g>
     </g>
     <g id="text_1">
      <!-- -4 -->
      <defs>
       <path d="M 4.890625 31.390625 
L 31.203125 31.390625 
L 31.203125 23.390625 
L 4.890625 23.390625 
z
" id="DejaVuSans-2d"/>
       <path d="M 37.796875 64.3125 
L 12.890625 25.390625 
L 37.796875 25.390625 
z
M 35.203125 72.90625 
L 47.609375 72.90625 
L 47.609375 25.390625 
L 58.015625 25.390625 
L 58.015625 17.1875 
L 47.609375 17.1875 
L 47.609375 0 
L 37.796875 0 
L 37.796875 17.1875 
L 4.890625 17.1875 
L 4.890625 26.703125 
z
" id="DejaVuSans-34"/>
      </defs>
      <g transform="translate(96.495582 313.476875)scale(0.2 -0.2)">
       <use xlink:href="#DejaVuSans-2d"/>
       <use x="36.083984" xlink:href="#DejaVuSans-34"/>
      </g>
     </g>
    </g>
    <g id="xtick_3">
     <g id="line2d_5">
      <path clip-path="url(#p305c3d7753)" d="M 207.520963 291.28 
L 207.520963 5.52 
" style="fill:none;stroke:#b0b0b0;stroke-linecap:square;stroke-width:0.8;"/>
     </g>
     <g id="line2d_6">
      <g>
       <use style="stroke:#000000;stroke-width:0.8;" x="207.520963" xlink:href="#m27a65a1cbe" y="291.28"/>
      </g>
     </g>
     <g id="text_2">
      <!-- 0 -->
      <defs>
       <path d="M 31.78125 66.40625 
Q 24.171875 66.40625 20.328125 58.90625 
Q 16.5 51.421875 16.5 36.375 
Q 16.5 21.390625 20.328125 13.890625 
Q 24.171875 6.390625 31.78125 6.390625 
Q 39.453125 6.390625 43.28125 13.890625 
Q 47.125 21.390625 47.125 36.375 
Q 47.125 51.421875 43.28125 58.90625 
Q 39.453125 66.40625 31.78125 66.40625 
z
M 31.78125 74.21875 
Q 44.046875 74.21875 50.515625 64.515625 
Q 56.984375 54.828125 56.984375 36.375 
Q 56.984375 17.96875 50.515625 8.265625 
Q 44.046875 -1.421875 31.78125 -1.421875 
Q 19.53125 -1.421875 13.0625 8.265625 
Q 6.59375 17.96875 6.59375 36.375 
Q 6.59375 54.828125 13.0625 64.515625 
Q 19.53125 74.21875 31.78125 74.21875 
z
" id="DejaVuSans-30"/>
      </defs>
      <g transform="translate(201.158463 313.476875)scale(0.2 -0.2)">
       <use xlink:href="#DejaVuSans-30"/>
      </g>
     </g>
    </g>
    <g id="xtick_4">
     <g id="line2d_7">
      <path clip-path="url(#p305c3d7753)" d="M 308.576031 291.28 
L 308.576031 5.52 
" style="fill:none;stroke:#b0b0b0;stroke-linecap:square;stroke-width:0.8;"/>
     </g>
     <g id="line2d_8">
      <g>
       <use style="stroke:#000000;stroke-width:0.8;" x="308.576031" xlink:href="#m27a65a1cbe" y="291.28"/>
      </g>
     </g>
     <g id="text_3">
      <!-- 4 -->
      <g transform="translate(302.213531 313.476875)scale(0.2 -0.2)">
       <use xlink:href="#DejaVuSans-34"/>
      </g>
     </g>
    </g>
    <g id="xtick_5">
     <g id="line2d_9">
      <path clip-path="url(#p305c3d7753)" d="M 409.631099 291.28 
L 409.631099 5.52 
" style="fill:none;stroke:#b0b0b0;stroke-linecap:square;stroke-width:0.8;"/>
     </g>
     <g id="line2d_10">
      <g>
       <use style="stroke:#000000;stroke-width:0.8;" x="409.631099" xlink:href="#m27a65a1cbe" y="291.28"/>
      </g>
     </g>
     <g id="text_4">
      <!-- 8 -->
      <defs>
       <path d="M 31.78125 34.625 
Q 24.75 34.625 20.71875 30.859375 
Q 16.703125 27.09375 16.703125 20.515625 
Q 16.703125 13.921875 20.71875 10.15625 
Q 24.75 6.390625 31.78125 6.390625 
Q 38.8125 6.390625 42.859375 10.171875 
Q 46.921875 13.96875 46.921875 20.515625 
Q 46.921875 27.09375 42.890625 30.859375 
Q 38.875 34.625 31.78125 34.625 
z
M 21.921875 38.8125 
Q 15.578125 40.375 12.03125 44.71875 
Q 8.5 49.078125 8.5 55.328125 
Q 8.5 64.0625 14.71875 69.140625 
Q 20.953125 74.21875 31.78125 74.21875 
Q 42.671875 74.21875 48.875 69.140625 
Q 55.078125 64.0625 55.078125 55.328125 
Q 55.078125 49.078125 51.53125 44.71875 
Q 48 40.375 41.703125 38.8125 
Q 48.828125 37.15625 52.796875 32.3125 
Q 56.78125 27.484375 56.78125 20.515625 
Q 56.78125 9.90625 50.3125 4.234375 
Q 43.84375 -1.421875 31.78125 -1.421875 
Q 19.734375 -1.421875 13.25 4.234375 
Q 6.78125 9.90625 6.78125 20.515625 
Q 6.78125 27.484375 10.78125 32.3125 
Q 14.796875 37.15625 21.921875 38.8125 
z
M 18.3125 54.390625 
Q 18.3125 48.734375 21.84375 45.5625 
Q 25.390625 42.390625 31.78125 42.390625 
Q 38.140625 42.390625 41.71875 45.5625 
Q 45.3125 48.734375 45.3125 54.390625 
Q 45.3125 60.0625 41.71875 63.234375 
Q 38.140625 66.40625 31.78125 66.40625 
Q 25.390625 66.40625 21.84375 63.234375 
Q 18.3125 60.0625 18.3125 54.390625 
z
" id="DejaVuSans-38"/>
      </defs>
      <g transform="translate(403.268599 313.476875)scale(0.2 -0.2)">
       <use xlink:href="#DejaVuSans-38"/>
      </g>
     </g>
    </g>
    <g id="text_5">
     <!-- log10 of Df -->
     <defs>
      <path d="M 9.421875 75.984375 
L 18.40625 75.984375 
L 18.40625 0 
L 9.421875 0 
z
" id="DejaVuSans-6c"/>
      <path d="M 30.609375 48.390625 
Q 23.390625 48.390625 19.1875 42.75 
Q 14.984375 37.109375 14.984375 27.296875 
Q 14.984375 17.484375 19.15625 11.84375 
Q 23.34375 6.203125 30.609375 6.203125 
Q 37.796875 6.203125 41.984375 11.859375 
Q 46.1875 17.53125 46.1875 27.296875 
Q 46.1875 37.015625 41.984375 42.703125 
Q 37.796875 48.390625 30.609375 48.390625 
z
M 30.609375 56 
Q 42.328125 56 49.015625 48.375 
Q 55.71875 40.765625 55.71875 27.296875 
Q 55.71875 13.875 49.015625 6.21875 
Q 42.328125 -1.421875 30.609375 -1.421875 
Q 18.84375 -1.421875 12.171875 6.21875 
Q 5.515625 13.875 5.515625 27.296875 
Q 5.515625 40.765625 12.171875 48.375 
Q 18.84375 56 30.609375 56 
z
" id="DejaVuSans-6f"/>
      <path d="M 45.40625 27.984375 
Q 45.40625 37.75 41.375 43.109375 
Q 37.359375 48.484375 30.078125 48.484375 
Q 22.859375 48.484375 18.828125 43.109375 
Q 14.796875 37.75 14.796875 27.984375 
Q 14.796875 18.265625 18.828125 12.890625 
Q 22.859375 7.515625 30.078125 7.515625 
Q 37.359375 7.515625 41.375 12.890625 
Q 45.40625 18.265625 45.40625 27.984375 
z
M 54.390625 6.78125 
Q 54.390625 -7.171875 48.1875 -13.984375 
Q 42 -20.796875 29.203125 -20.796875 
Q 24.46875 -20.796875 20.265625 -20.09375 
Q 16.0625 -19.390625 12.109375 -17.921875 
L 12.109375 -9.1875 
Q 16.0625 -11.328125 19.921875 -12.34375 
Q 23.78125 -13.375 27.78125 -13.375 
Q 36.625 -13.375 41.015625 -8.765625 
Q 45.40625 -4.15625 45.40625 5.171875 
L 45.40625 9.625 
Q 42.625 4.78125 38.28125 2.390625 
Q 33.9375 0 27.875 0 
Q 17.828125 0 11.671875 7.65625 
Q 5.515625 15.328125 5.515625 27.984375 
Q 5.515625 40.671875 11.671875 48.328125 
Q 17.828125 56 27.875 56 
Q 33.9375 56 38.28125 53.609375 
Q 42.625 51.21875 45.40625 46.390625 
L 45.40625 54.6875 
L 54.390625 54.6875 
z
" id="DejaVuSans-67"/>
      <path d="M 12.40625 8.296875 
L 28.515625 8.296875 
L 28.515625 63.921875 
L 10.984375 60.40625 
L 10.984375 69.390625 
L 28.421875 72.90625 
L 38.28125 72.90625 
L 38.28125 8.296875 
L 54.390625 8.296875 
L 54.390625 0 
L 12.40625 0 
z
" id="DejaVuSans-31"/>
      <path id="DejaVuSans-20"/>
      <path d="M 37.109375 75.984375 
L 37.109375 68.5 
L 28.515625 68.5 
Q 23.6875 68.5 21.796875 66.546875 
Q 19.921875 64.59375 19.921875 59.515625 
L 19.921875 54.6875 
L 34.71875 54.6875 
L 34.71875 47.703125 
L 19.921875 47.703125 
L 19.921875 0 
L 10.890625 0 
L 10.890625 47.703125 
L 2.296875 47.703125 
L 2.296875 54.6875 
L 10.890625 54.6875 
L 10.890625 58.5 
Q 10.890625 67.625 15.140625 71.796875 
Q 19.390625 75.984375 28.609375 75.984375 
z
" id="DejaVuSans-66"/>
      <path d="M 19.671875 64.796875 
L 19.671875 8.109375 
L 31.59375 8.109375 
Q 46.6875 8.109375 53.6875 14.9375 
Q 60.6875 21.78125 60.6875 36.53125 
Q 60.6875 51.171875 53.6875 57.984375 
Q 46.6875 64.796875 31.59375 64.796875 
z
M 9.8125 72.90625 
L 30.078125 72.90625 
Q 51.265625 72.90625 61.171875 64.09375 
Q 71.09375 55.28125 71.09375 36.53125 
Q 71.09375 17.671875 61.125 8.828125 
Q 51.171875 0 30.078125 0 
L 9.8125 0 
z
" id="DejaVuSans-44"/>
     </defs>
     <g transform="translate(172.910063 336.833125)scale(0.2 -0.2)">
      <use xlink:href="#DejaVuSans-6c"/>
      <use x="27.783203" xlink:href="#DejaVuSans-6f"/>
      <use x="88.964844" xlink:href="#DejaVuSans-67"/>
      <use x="152.441406" xlink:href="#DejaVuSans-31"/>
      <use x="216.064453" xlink:href="#DejaVuSans-30"/>
      <use x="279.6875" xlink:href="#DejaVuSans-20"/>
      <use x="311.474609" xlink:href="#DejaVuSans-6f"/>
      <use x="372.65625" xlink:href="#DejaVuSans-66"/>
      <use x="407.861328" xlink:href="#DejaVuSans-20"/>
      <use x="439.648438" xlink:href="#DejaVuSans-44"/>
      <use x="516.650391" xlink:href="#DejaVuSans-66"/>
     </g>
    </g>
   </g>
   <g id="matplotlib.axis_2">
    <g id="ytick_1">
     <g id="line2d_11">
      <path clip-path="url(#p305c3d7753)" d="M 5.52 291.28 
L 450.672 291.28 
" style="fill:none;stroke:#b0b0b0;stroke-linecap:square;stroke-width:0.8;"/>
     </g>
     <g id="line2d_12">
      <defs>
       <path d="M 0 0 
L -3.5 0 
" id="mcd41810362" style="stroke:#000000;stroke-width:0.8;"/>
      </defs>
      <g>
       <use style="stroke:#000000;stroke-width:0.8;" x="5.52" xlink:href="#mcd41810362" y="291.28"/>
      </g>
     </g>
    </g>
    <g id="ytick_2">
     <g id="line2d_13">
      <path clip-path="url(#p305c3d7753)" d="M 5.52 234.693861 
L 450.672 234.693861 
" style="fill:none;stroke:#b0b0b0;stroke-linecap:square;stroke-width:0.8;"/>
     </g>
     <g id="line2d_14">
      <g>
       <use style="stroke:#000000;stroke-width:0.8;" x="5.52" xlink:href="#mcd41810362" y="234.693861"/>
      </g>
     </g>
    </g>
    <g id="ytick_3">
     <g id="line2d_15">
      <path clip-path="url(#p305c3d7753)" d="M 5.52 178.107723 
L 450.672 178.107723 
" style="fill:none;stroke:#b0b0b0;stroke-linecap:square;stroke-width:0.8;"/>
     </g>
     <g id="line2d_16">
      <g>
       <use style="stroke:#000000;stroke-width:0.8;" x="5.52" xlink:href="#mcd41810362" y="178.107723"/>
      </g>
     </g>
    </g>
    <g id="ytick_4">
     <g id="line2d_17">
      <path clip-path="url(#p305c3d7753)" d="M 5.52 121.521584 
L 450.672 121.521584 
" style="fill:none;stroke:#b0b0b0;stroke-linecap:square;stroke-width:0.8;"/>
     </g>
     <g id="line2d_18">
      <g>
       <use style="stroke:#000000;stroke-width:0.8;" x="5.52" xlink:href="#mcd41810362" y="121.521584"/>
      </g>
     </g>
    </g>
    <g id="ytick_5">
     <g id="line2d_19">
      <path clip-path="url(#p305c3d7753)" d="M 5.52 64.935446 
L 450.672 64.935446 
" style="fill:none;stroke:#b0b0b0;stroke-linecap:square;stroke-width:0.8;"/>
     </g>
     <g id="line2d_20">
      <g>
       <use style="stroke:#000000;stroke-width:0.8;" x="5.52" xlink:href="#mcd41810362" y="64.935446"/>
      </g>
     </g>
    </g>
    <g id="ytick_6">
     <g id="line2d_21">
      <path clip-path="url(#p305c3d7753)" d="M 5.52 8.349307 
L 450.672 8.349307 
" style="fill:none;stroke:#b0b0b0;stroke-linecap:square;stroke-width:0.8;"/>
     </g>
     <g id="line2d_22">
      <g>
       <use style="stroke:#000000;stroke-width:0.8;" x="5.52" xlink:href="#mcd41810362" y="8.349307"/>
      </g>
     </g>
    </g>
   </g>
   <g id="line2d_23">
    <path clip-path="url(#p305c3d7753)" d="M 192.32705 291.28 
L 192.32705 234.693861 
L 218.008175 234.693861 
L 218.065711 227.149043 
L 218.592385 227.149043 
L 218.685793 219.604224 
L 219.152042 219.604224 
L 219.152042 215.831815 
L 220.417534 215.831815 
L 220.417534 212.059406 
L 221.810908 212.059406 
L 221.810908 208.286997 
L 221.931407 208.286997 
L 221.931407 204.514587 
L 222.367025 204.514587 
L 222.367025 200.742178 
L 222.494828 200.742178 
L 222.602987 193.19736 
L 222.663083 193.19736 
L 222.704577 185.652541 
L 223.529189 185.652541 
L 223.529189 181.880132 
L 223.693488 181.880132 
L 223.740157 174.335314 
L 224.146856 174.335314 
L 224.146856 170.562904 
L 225.379491 170.562904 
L 225.405673 163.018086 
L 226.450656 163.018086 
L 226.450656 159.245677 
L 228.215254 159.245677 
L 228.215254 155.473267 
L 228.993816 155.473267 
L 229.034858 147.928449 
L 229.555203 147.928449 
L 229.555203 144.15604 
L 230.4068 144.15604 
L 230.4068 140.38363 
L 231.469706 140.38363 
L 231.469706 136.611221 
L 231.839711 136.611221 
L 231.839711 132.838812 
L 232.173338 132.838812 
L 232.173338 129.066403 
L 232.620982 129.066403 
L 232.620982 125.293993 
L 233.186775 125.293993 
L 233.186775 121.521584 
L 233.543473 121.521584 
L 233.543473 117.749175 
L 233.691431 117.749175 
L 233.720495 110.204356 
L 234.168085 110.204356 
L 234.179211 98.887129 
L 234.789997 98.887129 
L 234.789997 95.114719 
L 235.296992 95.114719 
L 235.296992 91.34231 
L 235.42045 91.34231 
L 235.42045 87.569901 
L 235.629622 87.569901 
L 235.629622 83.797492 
L 235.922263 83.797492 
L 235.922263 80.025083 
L 236.056471 80.025083 
L 236.056471 76.252673 
L 238.474794 76.252673 
L 238.551117 68.707855 
L 239.03136 68.707855 
L 239.03136 64.935446 
L 257.219005 64.935446 
L 257.219005 61.163036 
L 257.72425 61.163036 
L 257.743554 53.618218 
L 258.44264 53.618218 
L 258.44264 49.845809 
L 258.96259 49.845809 
L 258.96259 46.073399 
L 259.493566 46.073399 
L 259.509783 38.528581 
L 259.90051 38.528581 
L 259.90051 34.756172 
L 261.042136 34.756172 
L 261.120462 27.211353 
L 264.055593 27.211353 
L 264.055593 23.438944 
L 264.284167 23.438944 
L 264.284167 19.666535 
L 266.151867 19.666535 
L 266.251558 12.121716 
L 266.358557 12.121716 
L 266.358557 8.349307 
L 266.358557 8.349307 
L 450.672 8.349307 
L 450.672 8.349307 
" style="fill:none;stroke:#ff0000;stroke-linecap:square;stroke-width:3;"/>
   </g>
   <g id="line2d_24">
    <path clip-path="url(#p305c3d7753)" d="M 192.32705 291.28 
L 192.32705 234.693861 
L 235.118461 234.693861 
L 235.19195 227.149043 
L 235.485169 227.149043 
L 235.485169 223.376634 
L 236.529164 223.376634 
L 236.529164 219.604224 
L 236.791287 219.604224 
L 236.830694 208.286997 
L 237.556186 208.286997 
L 237.556186 204.514587 
L 237.767765 204.514587 
L 237.767765 200.742178 
L 237.916823 200.742178 
L 237.916823 196.969769 
L 238.306094 196.969769 
L 238.306094 193.19736 
L 239.455341 193.19736 
L 239.455341 189.42495 
L 240.295443 189.42495 
L 240.295443 185.652541 
L 244.598264 185.652541 
L 244.668706 178.107723 
L 246.148726 178.107723 
L 246.148726 174.335314 
L 247.918247 174.335314 
L 247.918247 170.562904 
L 248.10736 170.562904 
L 248.10736 166.790495 
L 248.407971 166.790495 
L 248.407971 163.018086 
L 248.898032 163.018086 
L 248.898032 159.245677 
L 249.271648 159.245677 
L 249.273463 151.700858 
L 250.05205 151.700858 
L 250.127458 144.15604 
L 250.24234 144.15604 
L 250.267245 136.611221 
L 250.597809 136.611221 
L 250.597809 132.838812 
L 251.341613 132.838812 
L 251.341613 129.066403 
L 251.488619 129.066403 
L 251.579091 117.749175 
L 252.331783 117.749175 
L 252.331783 113.976766 
L 252.596869 113.976766 
L 252.698962 106.431947 
L 252.746208 106.431947 
L 252.746208 102.659538 
L 252.933283 102.659538 
L 252.933283 98.887129 
L 253.290531 98.887129 
L 253.290531 95.114719 
L 253.775718 95.114719 
L 253.775718 91.34231 
L 254.511213 91.34231 
L 254.511213 87.569901 
L 254.741573 87.569901 
L 254.741573 83.797492 
L 255.440647 83.797492 
L 255.440647 80.025083 
L 258.976719 80.025083 
L 258.976719 76.252673 
L 260.136512 76.252673 
L 260.136512 72.480264 
L 262.202483 72.480264 
L 262.202483 68.707855 
L 262.904106 68.707855 
L 262.904106 64.935446 
L 276.638615 64.935446 
L 276.638615 61.163036 
L 277.407587 61.163036 
L 277.407587 57.390627 
L 277.906572 57.390627 
L 277.906572 53.618218 
L 278.101616 53.618218 
L 278.101616 49.845809 
L 278.456318 49.845809 
L 278.456318 46.073399 
L 278.583298 46.073399 
L 278.583298 42.30099 
L 278.975633 42.30099 
L 278.975633 38.528581 
L 279.462461 38.528581 
L 279.462461 34.756172 
L 279.868656 34.756172 
L 279.868656 30.983762 
L 280.039546 30.983762 
L 280.039546 27.211353 
L 280.38251 27.211353 
L 280.38251 23.438944 
L 282.32426 23.438944 
L 282.32426 19.666535 
L 282.739178 19.666535 
L 282.739178 15.894125 
L 283.263249 15.894125 
L 283.263249 12.121716 
L 291.902862 12.121716 
L 291.902862 8.349307 
L 291.902862 8.349307 
L 450.672 8.349307 
L 450.672 8.349307 
" style="fill:none;stroke:#00bfbf;stroke-linecap:square;stroke-width:1.5;"/>
   </g>
   <g id="line2d_25">
    <path clip-path="url(#p305c3d7753)" d="M 192.32705 291.28 
L 192.32705 234.693861 
L 235.118461 234.693861 
L 235.19195 227.149043 
L 235.465749 227.149043 
L 235.485169 219.604224 
L 236.17066 219.604224 
L 236.17066 215.831815 
L 236.529164 215.831815 
L 236.529164 212.059406 
L 236.791287 212.059406 
L 236.830694 200.742178 
L 237.556186 200.742178 
L 237.556186 196.969769 
L 237.916823 196.969769 
L 237.916823 193.19736 
L 239.455341 193.19736 
L 239.455341 189.42495 
L 240.295443 189.42495 
L 240.295443 185.652541 
L 241.689199 185.652541 
L 241.689199 181.880132 
L 244.598264 181.880132 
L 244.598264 178.107723 
L 246.148726 178.107723 
L 246.148726 174.335314 
L 246.716516 174.335314 
L 246.716516 170.562904 
L 247.694182 170.562904 
L 247.694182 166.790495 
L 247.823476 166.790495 
L 247.918247 159.245677 
L 248.10736 159.245677 
L 248.10736 155.473267 
L 248.407971 155.473267 
L 248.407971 151.700858 
L 248.614958 151.700858 
L 248.614958 147.928449 
L 248.898032 147.928449 
L 248.898032 144.15604 
L 249.260335 144.15604 
L 249.273463 132.838812 
L 250.05205 132.838812 
L 250.127458 125.293993 
L 250.24234 125.293993 
L 250.267245 117.749175 
L 251.341037 117.749175 
L 251.341613 110.204356 
L 251.488619 110.204356 
L 251.579091 102.659538 
L 251.708851 102.659538 
L 251.708851 98.887129 
L 252.165186 98.887129 
L 252.165186 95.114719 
L 252.331783 95.114719 
L 252.331783 91.34231 
L 253.477351 91.34231 
L 253.477351 87.569901 
L 253.764995 87.569901 
L 253.764995 83.797492 
L 254.249053 83.797492 
L 254.249053 80.025083 
L 256.431415 80.025083 
L 256.431415 76.252673 
L 259.114609 76.252673 
L 259.114609 72.480264 
L 260.136512 72.480264 
L 260.136512 68.707855 
L 262.202483 68.707855 
L 262.202483 64.935446 
L 276.638615 64.935446 
L 276.638615 61.163036 
L 277.407587 61.163036 
L 277.407587 57.390627 
L 277.906572 57.390627 
L 277.906572 53.618218 
L 278.101616 53.618218 
L 278.101616 49.845809 
L 278.456318 49.845809 
L 278.456318 46.073399 
L 278.583298 46.073399 
L 278.658395 38.528581 
L 279.462461 38.528581 
L 279.462461 34.756172 
L 279.868656 34.756172 
L 279.868656 30.983762 
L 280.039546 30.983762 
L 280.039546 27.211353 
L 280.38251 27.211353 
L 280.38251 23.438944 
L 280.999907 23.438944 
L 280.999907 19.666535 
L 282.32426 19.666535 
L 282.32426 15.894125 
L 283.263249 15.894125 
L 283.263249 12.121716 
L 285.02237 12.121716 
L 285.02237 8.349307 
L 285.02237 8.349307 
L 450.672 8.349307 
L 450.672 8.349307 
" style="fill:none;stroke:#bf00bf;stroke-linecap:square;stroke-width:1.5;"/>
   </g>
   <g id="line2d_26">
    <path clip-path="url(#p305c3d7753)" d="M 192.32705 291.28 
L 192.32705 234.693861 
L 233.831418 234.693861 
L 233.831418 230.921452 
L 234.817598 230.921452 
L 234.817598 227.149043 
L 235.118461 227.149043 
L 235.19195 219.604224 
L 235.465749 219.604224 
L 235.485169 208.286997 
L 236.17066 208.286997 
L 236.17066 204.514587 
L 236.40583 204.514587 
L 236.40583 200.742178 
L 236.791287 200.742178 
L 236.791821 193.19736 
L 237.916823 193.19736 
L 237.916823 189.42495 
L 240.295443 189.42495 
L 240.295443 185.652541 
L 241.364489 185.652541 
L 241.364489 181.880132 
L 244.598264 181.880132 
L 244.598264 178.107723 
L 245.781683 178.107723 
L 245.781683 174.335314 
L 246.148726 174.335314 
L 246.249003 163.018086 
L 246.716516 163.018086 
L 246.716516 159.245677 
L 247.15809 159.245677 
L 247.15809 155.473267 
L 247.823476 155.473267 
L 247.918247 144.15604 
L 248.10736 144.15604 
L 248.10736 140.38363 
L 248.293329 140.38363 
L 248.293329 136.611221 
L 248.407971 136.611221 
L 248.407971 132.838812 
L 248.614958 132.838812 
L 248.614958 129.066403 
L 248.898032 129.066403 
L 248.998418 121.521584 
L 249.271648 121.521584 
L 249.271648 117.749175 
L 250.05205 117.749175 
L 250.127458 110.204356 
L 250.24234 110.204356 
L 250.24234 106.431947 
L 250.421938 106.431947 
L 250.458488 98.887129 
L 251.341037 98.887129 
L 251.341037 95.114719 
L 251.488619 95.114719 
L 251.579091 83.797492 
L 252.331783 83.797492 
L 252.331783 80.025083 
L 253.764995 80.025083 
L 253.764995 76.252673 
L 257.072858 76.252673 
L 257.072858 72.480264 
L 257.439851 72.480264 
L 257.439851 68.707855 
L 258.92922 68.707855 
L 258.92922 64.935446 
L 276.638615 64.935446 
L 276.638615 61.163036 
L 277.407587 61.163036 
L 277.407587 57.390627 
L 277.906572 57.390627 
L 277.906572 53.618218 
L 278.101616 53.618218 
L 278.101616 49.845809 
L 278.348505 49.845809 
L 278.456318 42.30099 
L 278.583298 42.30099 
L 278.658395 34.756172 
L 279.184418 34.756172 
L 279.184418 30.983762 
L 279.828341 30.983762 
L 279.828341 27.211353 
L 280.039546 27.211353 
L 280.097305 19.666535 
L 280.999907 19.666535 
L 280.999907 15.894125 
L 282.32426 15.894125 
L 282.32426 12.121716 
L 282.915521 12.121716 
L 282.915521 8.349307 
L 282.915521 8.349307 
L 450.672 8.349307 
L 450.672 8.349307 
" style="fill:none;stroke:#000000;stroke-linecap:square;stroke-width:1.5;"/>
   </g>
   <g id="line2d_27">
    <path clip-path="url(#p305c3d7753)" d="M 192.32705 291.28 
L 192.32705 234.693861 
L 233.831418 234.693861 
L 233.831418 230.921452 
L 234.817598 230.921452 
L 234.902737 223.376634 
L 235.118461 223.376634 
L 235.19195 215.831815 
L 235.465749 215.831815 
L 235.485169 204.514587 
L 235.753948 204.514587 
L 235.753948 200.742178 
L 236.17066 200.742178 
L 236.17066 196.969769 
L 236.40583 196.969769 
L 236.40583 193.19736 
L 236.791287 193.19736 
L 236.791287 189.42495 
L 238.966594 189.42495 
L 238.966594 185.652541 
L 241.364489 185.652541 
L 241.364489 181.880132 
L 241.915718 181.880132 
L 241.915718 178.107723 
L 243.611543 178.107723 
L 243.611543 174.335314 
L 245.69863 174.335314 
L 245.69863 170.562904 
L 245.981861 170.562904 
L 245.981861 166.790495 
L 246.148726 166.790495 
L 246.249003 155.473267 
L 246.716516 155.473267 
L 246.716516 151.700858 
L 247.086957 151.700858 
L 247.15809 144.15604 
L 247.524515 144.15604 
L 247.524515 140.38363 
L 247.671709 140.38363 
L 247.671709 136.611221 
L 247.804636 136.611221 
L 247.823476 129.066403 
L 247.918247 129.066403 
L 247.918247 125.293993 
L 248.141031 125.293993 
L 248.205004 117.749175 
L 248.407971 117.749175 
L 248.407971 113.976766 
L 249.271648 113.976766 
L 249.271648 110.204356 
L 249.788223 110.204356 
L 249.788223 106.431947 
L 250.05205 106.431947 
L 250.127458 95.114719 
L 250.421938 95.114719 
L 250.421938 91.34231 
L 251.14802 91.34231 
L 251.236874 83.797492 
L 251.511681 83.797492 
L 251.511681 80.025083 
L 252.825066 80.025083 
L 252.825066 76.252673 
L 253.764995 76.252673 
L 253.764995 72.480264 
L 256.522396 72.480264 
L 256.522396 68.707855 
L 257.439851 68.707855 
L 257.439851 64.935446 
L 276.638615 64.935446 
L 276.638615 61.163036 
L 277.268299 61.163036 
L 277.268299 57.390627 
L 277.407587 57.390627 
L 277.407587 53.618218 
L 277.906572 53.618218 
L 277.906572 49.845809 
L 278.348505 49.845809 
L 278.456318 42.30099 
L 278.583298 42.30099 
L 278.658395 34.756172 
L 278.718089 34.756172 
L 278.718089 30.983762 
L 279.184418 30.983762 
L 279.199281 23.438944 
L 279.828341 23.438944 
L 279.828341 19.666535 
L 280.039546 19.666535 
L 280.039546 15.894125 
L 282.32426 15.894125 
L 282.32426 12.121716 
L 282.915521 12.121716 
L 282.915521 8.349307 
L 282.915521 8.349307 
L 450.672 8.349307 
L 450.672 8.349307 
" style="fill:none;stroke:#00bfbf;stroke-linecap:square;stroke-width:1.5;"/>
   </g>
   <g id="line2d_28">
    <path clip-path="url(#p305c3d7753)" d="M 192.32705 291.28 
L 192.32705 234.693861 
L 220.823373 234.693861 
L 220.828577 227.149043 
L 222.38972 227.149043 
L 222.421196 219.604224 
L 222.591384 219.604224 
L 222.591384 215.831815 
L 224.410077 215.831815 
L 224.410077 212.059406 
L 224.837086 212.059406 
L 224.837086 208.286997 
L 225.162554 208.286997 
L 225.20456 200.742178 
L 226.117504 200.742178 
L 226.203826 193.19736 
L 227.346265 193.19736 
L 227.346265 189.42495 
L 228.585881 189.42495 
L 228.585881 185.652541 
L 228.70736 185.652541 
L 228.70736 181.880132 
L 228.934058 181.880132 
L 228.934058 178.107723 
L 229.874021 178.107723 
L 229.874021 174.335314 
L 232.750556 174.335314 
L 232.750556 170.562904 
L 234.535001 170.562904 
L 234.535001 166.790495 
L 235.978093 166.790495 
L 235.978093 163.018086 
L 236.617772 163.018086 
L 236.617772 159.245677 
L 237.650357 159.245677 
L 237.68866 151.700858 
L 237.854283 151.700858 
L 237.932092 144.15604 
L 238.394284 144.15604 
L 238.394284 140.38363 
L 238.641729 140.38363 
L 238.641729 136.611221 
L 239.5414 136.611221 
L 239.5414 132.838812 
L 240.295066 132.838812 
L 240.369173 121.521584 
L 240.441914 121.521584 
L 240.441914 117.749175 
L 240.780474 117.749175 
L 240.795663 106.431947 
L 240.936213 106.431947 
L 240.936213 102.659538 
L 241.29595 102.659538 
L 241.350783 95.114719 
L 241.761412 95.114719 
L 241.832965 87.569901 
L 241.987177 87.569901 
L 241.987177 83.797492 
L 242.140656 83.797492 
L 242.140656 80.025083 
L 242.514195 80.025083 
L 242.514195 76.252673 
L 243.287995 76.252673 
L 243.338234 68.707855 
L 244.976097 68.707855 
L 244.976097 64.935446 
L 265.209791 64.935446 
L 265.209791 61.163036 
L 265.465423 61.163036 
L 265.469397 53.618218 
L 265.68602 53.618218 
L 265.68602 49.845809 
L 267.199955 49.845809 
L 267.199955 46.073399 
L 267.54722 46.073399 
L 267.58264 38.528581 
L 267.717358 38.528581 
L 267.717358 34.756172 
L 268.028622 34.756172 
L 268.028622 30.983762 
L 268.437008 30.983762 
L 268.437008 27.211353 
L 268.677725 27.211353 
L 268.677725 23.438944 
L 268.846134 23.438944 
L 268.846134 19.666535 
L 269.228968 19.666535 
L 269.228968 15.894125 
L 269.618154 15.894125 
L 269.618154 12.121716 
L 271.178841 12.121716 
L 271.178841 8.349307 
L 271.178841 8.349307 
L 450.672 8.349307 
L 450.672 8.349307 
" style="fill:none;stroke:#bf00bf;stroke-linecap:square;stroke-width:1.5;"/>
   </g>
   <g id="line2d_29">
    <path clip-path="url(#p305c3d7753)" d="M 192.32705 291.28 
L 192.32705 234.693861 
L 218.008175 234.693861 
L 218.065711 227.149043 
L 218.592385 227.149043 
L 218.685793 219.604224 
L 219.152836 219.604224 
L 219.152836 215.831815 
L 220.417534 215.831815 
L 220.417534 212.059406 
L 221.811857 212.059406 
L 221.811857 208.286997 
L 221.941048 208.286997 
L 221.941048 204.514587 
L 222.367025 204.514587 
L 222.367025 200.742178 
L 222.494828 200.742178 
L 222.602987 193.19736 
L 222.663083 193.19736 
L 222.704962 185.652541 
L 223.529189 185.652541 
L 223.529189 181.880132 
L 223.696431 181.880132 
L 223.740157 174.335314 
L 224.146856 174.335314 
L 224.146856 170.562904 
L 225.385882 170.562904 
L 225.405673 163.018086 
L 226.451006 163.018086 
L 226.451006 159.245677 
L 228.215254 159.245677 
L 228.215254 155.473267 
L 228.993816 155.473267 
L 229.034858 147.928449 
L 229.55661 147.928449 
L 229.55661 144.15604 
L 230.4068 144.15604 
L 230.4068 140.38363 
L 231.482111 140.38363 
L 231.482111 136.611221 
L 231.861977 136.611221 
L 231.861977 132.838812 
L 232.173338 132.838812 
L 232.173338 129.066403 
L 232.629512 129.066403 
L 232.629512 125.293993 
L 233.186775 125.293993 
L 233.186775 121.521584 
L 233.543473 121.521584 
L 233.543473 117.749175 
L 233.691929 117.749175 
L 233.720495 110.204356 
L 234.168109 110.204356 
L 234.185713 98.887129 
L 234.789997 98.887129 
L 234.789997 95.114719 
L 235.29796 95.114719 
L 235.29796 91.34231 
L 235.421031 91.34231 
L 235.421031 87.569901 
L 235.643094 87.569901 
L 235.643094 83.797492 
L 235.937981 83.797492 
L 235.937981 80.025083 
L 236.057165 80.025083 
L 236.057165 76.252673 
L 238.474794 76.252673 
L 238.551276 68.707855 
L 239.03136 68.707855 
L 239.03136 64.935446 
L 257.227021 64.935446 
L 257.227021 61.163036 
L 257.745974 61.163036 
L 257.746148 53.618218 
L 258.461614 53.618218 
L 258.461614 49.845809 
L 258.96259 49.845809 
L 258.96259 46.073399 
L 259.509783 46.073399 
L 259.541998 38.528581 
L 259.90051 38.528581 
L 259.90051 34.756172 
L 261.054463 34.756172 
L 261.120462 27.211353 
L 264.058512 27.211353 
L 264.058512 23.438944 
L 264.284167 23.438944 
L 264.284167 19.666535 
L 266.151867 19.666535 
L 266.251558 12.121716 
L 266.362899 12.121716 
L 266.362899 8.349307 
L 266.362899 8.349307 
L 450.672 8.349307 
L 450.672 8.349307 
" style="fill:none;stroke:#000000;stroke-linecap:square;stroke-width:1.5;"/>
   </g>
   <g id="patch_3">
    <path d="M 5.52 291.28 
L 5.52 5.52 
" style="fill:none;stroke:#000000;stroke-linecap:square;stroke-linejoin:miter;stroke-width:0.8;"/>
   </g>
   <g id="patch_4">
    <path d="M 450.672 291.28 
L 450.672 5.52 
" style="fill:none;stroke:#000000;stroke-linecap:square;stroke-linejoin:miter;stroke-width:0.8;"/>
   </g>
   <g id="patch_5">
    <path d="M 5.52 291.28 
L 450.672 291.28 
" style="fill:none;stroke:#000000;stroke-linecap:square;stroke-linejoin:miter;stroke-width:0.8;"/>
   </g>
   <g id="patch_6">
    <path d="M 5.52 5.52 
L 450.672 5.52 
" style="fill:none;stroke:#000000;stroke-linecap:square;stroke-linejoin:miter;stroke-width:0.8;"/>
   </g>
   <g id="text_6">
    <!-- {f15-f19}, 20-D -->
    <defs>
     <path d="M 51.125 -9.28125 
L 51.125 -16.3125 
L 48.09375 -16.3125 
Q 35.9375 -16.3125 31.8125 -12.6875 
Q 27.6875 -9.078125 27.6875 1.703125 
L 27.6875 13.375 
Q 27.6875 20.75 25.046875 23.578125 
Q 22.40625 26.421875 15.484375 26.421875 
L 12.5 26.421875 
L 12.5 33.40625 
L 15.484375 33.40625 
Q 22.46875 33.40625 25.078125 36.203125 
Q 27.6875 39.015625 27.6875 46.296875 
L 27.6875 58.015625 
Q 27.6875 68.796875 31.8125 72.390625 
Q 35.9375 75.984375 48.09375 75.984375 
L 51.125 75.984375 
L 51.125 69 
L 47.796875 69 
Q 40.921875 69 38.8125 66.84375 
Q 36.71875 64.703125 36.71875 57.8125 
L 36.71875 45.703125 
Q 36.71875 38.03125 34.5 34.5625 
Q 32.28125 31.109375 26.90625 29.890625 
Q 32.328125 28.5625 34.515625 25.09375 
Q 36.71875 21.625 36.71875 14.015625 
L 36.71875 1.90625 
Q 36.71875 -4.984375 38.8125 -7.125 
Q 40.921875 -9.28125 47.796875 -9.28125 
z
" id="DejaVuSans-7b"/>
     <path d="M 10.796875 72.90625 
L 49.515625 72.90625 
L 49.515625 64.59375 
L 19.828125 64.59375 
L 19.828125 46.734375 
Q 21.96875 47.46875 24.109375 47.828125 
Q 26.265625 48.1875 28.421875 48.1875 
Q 40.625 48.1875 47.75 41.5 
Q 54.890625 34.8125 54.890625 23.390625 
Q 54.890625 11.625 47.5625 5.09375 
Q 40.234375 -1.421875 26.90625 -1.421875 
Q 22.3125 -1.421875 17.546875 -0.640625 
Q 12.796875 0.140625 7.71875 1.703125 
L 7.71875 11.625 
Q 12.109375 9.234375 16.796875 8.0625 
Q 21.484375 6.890625 26.703125 6.890625 
Q 35.15625 6.890625 40.078125 11.328125 
Q 45.015625 15.765625 45.015625 23.390625 
Q 45.015625 31 40.078125 35.4375 
Q 35.15625 39.890625 26.703125 39.890625 
Q 22.75 39.890625 18.8125 39.015625 
Q 14.890625 38.140625 10.796875 36.28125 
z
" id="DejaVuSans-35"/>
     <path d="M 10.984375 1.515625 
L 10.984375 10.5 
Q 14.703125 8.734375 18.5 7.8125 
Q 22.3125 6.890625 25.984375 6.890625 
Q 35.75 6.890625 40.890625 13.453125 
Q 46.046875 20.015625 46.78125 33.40625 
Q 43.953125 29.203125 39.59375 26.953125 
Q 35.25 24.703125 29.984375 24.703125 
Q 19.046875 24.703125 12.671875 31.3125 
Q 6.296875 37.9375 6.296875 49.421875 
Q 6.296875 60.640625 12.9375 67.421875 
Q 19.578125 74.21875 30.609375 74.21875 
Q 43.265625 74.21875 49.921875 64.515625 
Q 56.59375 54.828125 56.59375 36.375 
Q 56.59375 19.140625 48.40625 8.859375 
Q 40.234375 -1.421875 26.421875 -1.421875 
Q 22.703125 -1.421875 18.890625 -0.6875 
Q 15.09375 0.046875 10.984375 1.515625 
z
M 30.609375 32.421875 
Q 37.25 32.421875 41.125 36.953125 
Q 45.015625 41.5 45.015625 49.421875 
Q 45.015625 57.28125 41.125 61.84375 
Q 37.25 66.40625 30.609375 66.40625 
Q 23.96875 66.40625 20.09375 61.84375 
Q 16.21875 57.28125 16.21875 49.421875 
Q 16.21875 41.5 20.09375 36.953125 
Q 23.96875 32.421875 30.609375 32.421875 
z
" id="DejaVuSans-39"/>
     <path d="M 12.5 -9.28125 
L 15.921875 -9.28125 
Q 22.75 -9.28125 24.828125 -7.171875 
Q 26.90625 -5.078125 26.90625 1.90625 
L 26.90625 14.015625 
Q 26.90625 21.625 29.09375 25.09375 
Q 31.296875 28.5625 36.71875 29.890625 
Q 31.296875 31.109375 29.09375 34.5625 
Q 26.90625 38.03125 26.90625 45.703125 
L 26.90625 57.8125 
Q 26.90625 64.75 24.828125 66.875 
Q 22.75 69 15.921875 69 
L 12.5 69 
L 12.5 75.984375 
L 15.578125 75.984375 
Q 27.734375 75.984375 31.8125 72.390625 
Q 35.890625 68.796875 35.890625 58.015625 
L 35.890625 46.296875 
Q 35.890625 39.015625 38.515625 36.203125 
Q 41.15625 33.40625 48.09375 33.40625 
L 51.125 33.40625 
L 51.125 26.421875 
L 48.09375 26.421875 
Q 41.15625 26.421875 38.515625 23.578125 
Q 35.890625 20.75 35.890625 13.375 
L 35.890625 1.703125 
Q 35.890625 -9.078125 31.8125 -12.6875 
Q 27.734375 -16.3125 15.578125 -16.3125 
L 12.5 -16.3125 
z
" id="DejaVuSans-7d"/>
     <path d="M 11.71875 12.40625 
L 22.015625 12.40625 
L 22.015625 4 
L 14.015625 -11.625 
L 7.71875 -11.625 
L 11.71875 4 
z
" id="DejaVuSans-2c"/>
     <path d="M 19.1875 8.296875 
L 53.609375 8.296875 
L 53.609375 0 
L 7.328125 0 
L 7.328125 8.296875 
Q 12.9375 14.109375 22.625 23.890625 
Q 32.328125 33.6875 34.8125 36.53125 
Q 39.546875 41.84375 41.421875 45.53125 
Q 43.3125 49.21875 43.3125 52.78125 
Q 43.3125 58.59375 39.234375 62.25 
Q 35.15625 65.921875 28.609375 65.921875 
Q 23.96875 65.921875 18.8125 64.3125 
Q 13.671875 62.703125 7.8125 59.421875 
L 7.8125 69.390625 
Q 13.765625 71.78125 18.9375 73 
Q 24.125 74.21875 28.421875 74.21875 
Q 39.75 74.21875 46.484375 68.546875 
Q 53.21875 62.890625 53.21875 53.421875 
Q 53.21875 48.921875 51.53125 44.890625 
Q 49.859375 40.875 45.40625 35.40625 
Q 44.1875 33.984375 37.640625 27.21875 
Q 31.109375 20.453125 19.1875 8.296875 
z
" id="DejaVuSans-32"/>
    </defs>
    <g transform="translate(283.34396 285.5648)scale(0.2 -0.2)">
     <use xlink:href="#DejaVuSans-7b"/>
     <use x="63.623047" xlink:href="#DejaVuSans-66"/>
     <use x="98.828125" xlink:href="#DejaVuSans-31"/>
     <use x="162.451172" xlink:href="#DejaVuSans-35"/>
     <use x="226.074219" xlink:href="#DejaVuSans-2d"/>
     <use x="262.158203" xlink:href="#DejaVuSans-66"/>
     <use x="297.363281" xlink:href="#DejaVuSans-31"/>
     <use x="360.986328" xlink:href="#DejaVuSans-39"/>
     <use x="424.609375" xlink:href="#DejaVuSans-7d"/>
     <use x="488.232422" xlink:href="#DejaVuSans-2c"/>
     <use x="520.019531" xlink:href="#DejaVuSans-20"/>
     <use x="551.806641" xlink:href="#DejaVuSans-32"/>
     <use x="615.429688" xlink:href="#DejaVuSans-30"/>
     <use x="679.052734" xlink:href="#DejaVuSans-2d"/>
     <use x="715.136719" xlink:href="#DejaVuSans-44"/>
    </g>
   </g>
   <g id="text_7">
    <!-- v0.0.0 -->
    <defs>
     <path d="M 2.984375 54.6875 
L 12.5 54.6875 
L 29.59375 8.796875 
L 46.6875 54.6875 
L 56.203125 54.6875 
L 35.6875 0 
L 23.484375 0 
z
" id="DejaVuSans-76"/>
     <path d="M 10.6875 12.40625 
L 21 12.40625 
L 21 0 
L 10.6875 0 
z
" id="DejaVuSans-2e"/>
    </defs>
    <g style="fill:#808080;" transform="translate(212.41475 286.342713)scale(0.1 -0.1)">
     <use xlink:href="#DejaVuSans-76"/>
     <use x="59.179688" xlink:href="#DejaVuSans-30"/>
     <use x="122.802734" xlink:href="#DejaVuSans-2e"/>
     <use x="154.589844" xlink:href="#DejaVuSans-30"/>
     <use x="218.212891" xlink:href="#DejaVuSans-2e"/>
     <use x="250" xlink:href="#DejaVuSans-30"/>
    </g>
   </g>
  </g>
 </g>
 <defs>
  <clipPath id="p305c3d7753">
   <rect height="285.76" width="445.152" x="5.52" y="5.52"/>
  </clipPath>
 </defs>
</svg>
