<?xml version="1.0" encoding="utf-8" standalone="no"?>
<!DOCTYPE svg PUBLIC "-//W3C//DTD SVG 1.1//EN"
  "http://www.w3.org/Graphics/SVG/1.1/DTD/svg11.dtd">
<!-- Created with matplotlib (http://matplotlib.org/) -->
<svg height="345.6pt" version="1.1" viewBox="0 0 460.8 345.6" width="460.8pt" xmlns="http://www.w3.org/2000/svg" xmlns:xlink="http://www.w3.org/1999/xlink">
 <defs>
  <style type="text/css">
*{stroke-linecap:butt;stroke-linejoin:round;}
  </style>
 </defs>
 <g id="figure_1">
  <g id="patch_1">
   <path d="M 0 345.6 
L 460.8 345.6 
L 460.8 0 
L 0 0 
z
" style="fill:#ffffff;"/>
  </g>
  <g id="axes_1">
   <g id="patch_2">
    <path d="M 5.52 291.28 
L 450.672 291.28 
L 450.672 5.52 
L 5.52 5.52 
z
" style="fill:#ffffff;"/>
   </g>
   <g id="matplotlib.axis_1">
    <g id="xtick_1">
     <g id="line2d_1">
      <path clip-path="url(#p6907e9e3e9)" d="M 5.410826 291.28 
L 5.410826 5.52 
" style="fill:none;stroke:#b0b0b0;stroke-linecap:square;stroke-width:0.8;"/>
     </g>
     <g id="line2d_2">
      <defs>
       <path d="M 0 0 
L 0 3.5 
" id="m183b133a26" style="stroke:#000000;stroke-width:0.8;"/>
      </defs>
      <g>
       <use style="stroke:#000000;stroke-width:0.8;" x="5.410826" xlink:href="#m183b133a26" y="291.28"/>
      </g>
     </g>
    </g>
    <g id="xtick_2">
     <g id="line2d_3">
      <path clip-path="url(#p6907e9e3e9)" d="M 106.465894 291.28 
L 106.465894 5.52 
" style="fill:none;stroke:#b0b0b0;stroke-linecap:square;stroke-width:0.8;"/>
     </g>
     <g id="line2d_4">
      <g>
       <use style="stroke:#000000;stroke-width:0.8;" x="106.465894" xlink:href="#m183b133a26" y="291.28"/>
      </g>
     </g>
     <g id="text_1">
      <!-- -4 -->
      <defs>
       <path d="M 4.890625 31.390625 
L 31.203125 31.390625 
L 31.203125 23.390625 
L 4.890625 23.390625 
z
" id="DejaVuSans-2d"/>
       <path d="M 37.796875 64.3125 
L 12.890625 25.390625 
L 37.796875 25.390625 
z
M 35.203125 72.90625 
L 47.609375 72.90625 
L 47.609375 25.390625 
L 58.015625 25.390625 
L 58.015625 17.1875 
L 47.609375 17.1875 
L 47.609375 0 
L 37.796875 0 
L 37.796875 17.1875 
L 4.890625 17.1875 
L 4.890625 26.703125 
z
" id="DejaVuSans-34"/>
      </defs>
      <g transform="translate(96.495582 313.476875)scale(0.2 -0.2)">
       <use xlink:href="#DejaVuSans-2d"/>
       <use x="36.083984" xlink:href="#DejaVuSans-34"/>
      </g>
     </g>
    </g>
    <g id="xtick_3">
     <g id="line2d_5">
      <path clip-path="url(#p6907e9e3e9)" d="M 207.520963 291.28 
L 207.520963 5.52 
" style="fill:none;stroke:#b0b0b0;stroke-linecap:square;stroke-width:0.8;"/>
     </g>
     <g id="line2d_6">
      <g>
       <use style="stroke:#000000;stroke-width:0.8;" x="207.520963" xlink:href="#m183b133a26" y="291.28"/>
      </g>
     </g>
     <g id="text_2">
      <!-- 0 -->
      <defs>
       <path d="M 31.78125 66.40625 
Q 24.171875 66.40625 20.328125 58.90625 
Q 16.5 51.421875 16.5 36.375 
Q 16.5 21.390625 20.328125 13.890625 
Q 24.171875 6.390625 31.78125 6.390625 
Q 39.453125 6.390625 43.28125 13.890625 
Q 47.125 21.390625 47.125 36.375 
Q 47.125 51.421875 43.28125 58.90625 
Q 39.453125 66.40625 31.78125 66.40625 
z
M 31.78125 74.21875 
Q 44.046875 74.21875 50.515625 64.515625 
Q 56.984375 54.828125 56.984375 36.375 
Q 56.984375 17.96875 50.515625 8.265625 
Q 44.046875 -1.421875 31.78125 -1.421875 
Q 19.53125 -1.421875 13.0625 8.265625 
Q 6.59375 17.96875 6.59375 36.375 
Q 6.59375 54.828125 13.0625 64.515625 
Q 19.53125 74.21875 31.78125 74.21875 
z
" id="DejaVuSans-30"/>
      </defs>
      <g transform="translate(201.158463 313.476875)scale(0.2 -0.2)">
       <use xlink:href="#DejaVuSans-30"/>
      </g>
     </g>
    </g>
    <g id="xtick_4">
     <g id="line2d_7">
      <path clip-path="url(#p6907e9e3e9)" d="M 308.576031 291.28 
L 308.576031 5.52 
" style="fill:none;stroke:#b0b0b0;stroke-linecap:square;stroke-width:0.8;"/>
     </g>
     <g id="line2d_8">
      <g>
       <use style="stroke:#000000;stroke-width:0.8;" x="308.576031" xlink:href="#m183b133a26" y="291.28"/>
      </g>
     </g>
     <g id="text_3">
      <!-- 4 -->
      <g transform="translate(302.213531 313.476875)scale(0.2 -0.2)">
       <use xlink:href="#DejaVuSans-34"/>
      </g>
     </g>
    </g>
    <g id="xtick_5">
     <g id="line2d_9">
      <path clip-path="url(#p6907e9e3e9)" d="M 409.631099 291.28 
L 409.631099 5.52 
" style="fill:none;stroke:#b0b0b0;stroke-linecap:square;stroke-width:0.8;"/>
     </g>
     <g id="line2d_10">
      <g>
       <use style="stroke:#000000;stroke-width:0.8;" x="409.631099" xlink:href="#m183b133a26" y="291.28"/>
      </g>
     </g>
     <g id="text_4">
      <!-- 8 -->
      <defs>
       <path d="M 31.78125 34.625 
Q 24.75 34.625 20.71875 30.859375 
Q 16.703125 27.09375 16.703125 20.515625 
Q 16.703125 13.921875 20.71875 10.15625 
Q 24.75 6.390625 31.78125 6.390625 
Q 38.8125 6.390625 42.859375 10.171875 
Q 46.921875 13.96875 46.921875 20.515625 
Q 46.921875 27.09375 42.890625 30.859375 
Q 38.875 34.625 31.78125 34.625 
z
M 21.921875 38.8125 
Q 15.578125 40.375 12.03125 44.71875 
Q 8.5 49.078125 8.5 55.328125 
Q 8.5 64.0625 14.71875 69.140625 
Q 20.953125 74.21875 31.78125 74.21875 
Q 42.671875 74.21875 48.875 69.140625 
Q 55.078125 64.0625 55.078125 55.328125 
Q 55.078125 49.078125 51.53125 44.71875 
Q 48 40.375 41.703125 38.8125 
Q 48.828125 37.15625 52.796875 32.3125 
Q 56.78125 27.484375 56.78125 20.515625 
Q 56.78125 9.90625 50.3125 4.234375 
Q 43.84375 -1.421875 31.78125 -1.421875 
Q 19.734375 -1.421875 13.25 4.234375 
Q 6.78125 9.90625 6.78125 20.515625 
Q 6.78125 27.484375 10.78125 32.3125 
Q 14.796875 37.15625 21.921875 38.8125 
z
M 18.3125 54.390625 
Q 18.3125 48.734375 21.84375 45.5625 
Q 25.390625 42.390625 31.78125 42.390625 
Q 38.140625 42.390625 41.71875 45.5625 
Q 45.3125 48.734375 45.3125 54.390625 
Q 45.3125 60.0625 41.71875 63.234375 
Q 38.140625 66.40625 31.78125 66.40625 
Q 25.390625 66.40625 21.84375 63.234375 
Q 18.3125 60.0625 18.3125 54.390625 
z
" id="DejaVuSans-38"/>
      </defs>
      <g transform="translate(403.268599 313.476875)scale(0.2 -0.2)">
       <use xlink:href="#DejaVuSans-38"/>
      </g>
     </g>
    </g>
    <g id="text_5">
     <!-- log10 of Df -->
     <defs>
      <path d="M 9.421875 75.984375 
L 18.40625 75.984375 
L 18.40625 0 
L 9.421875 0 
z
" id="DejaVuSans-6c"/>
      <path d="M 30.609375 48.390625 
Q 23.390625 48.390625 19.1875 42.75 
Q 14.984375 37.109375 14.984375 27.296875 
Q 14.984375 17.484375 19.15625 11.84375 
Q 23.34375 6.203125 30.609375 6.203125 
Q 37.796875 6.203125 41.984375 11.859375 
Q 46.1875 17.53125 46.1875 27.296875 
Q 46.1875 37.015625 41.984375 42.703125 
Q 37.796875 48.390625 30.609375 48.390625 
z
M 30.609375 56 
Q 42.328125 56 49.015625 48.375 
Q 55.71875 40.765625 55.71875 27.296875 
Q 55.71875 13.875 49.015625 6.21875 
Q 42.328125 -1.421875 30.609375 -1.421875 
Q 18.84375 -1.421875 12.171875 6.21875 
Q 5.515625 13.875 5.515625 27.296875 
Q 5.515625 40.765625 12.171875 48.375 
Q 18.84375 56 30.609375 56 
z
" id="DejaVuSans-6f"/>
      <path d="M 45.40625 27.984375 
Q 45.40625 37.75 41.375 43.109375 
Q 37.359375 48.484375 30.078125 48.484375 
Q 22.859375 48.484375 18.828125 43.109375 
Q 14.796875 37.75 14.796875 27.984375 
Q 14.796875 18.265625 18.828125 12.890625 
Q 22.859375 7.515625 30.078125 7.515625 
Q 37.359375 7.515625 41.375 12.890625 
Q 45.40625 18.265625 45.40625 27.984375 
z
M 54.390625 6.78125 
Q 54.390625 -7.171875 48.1875 -13.984375 
Q 42 -20.796875 29.203125 -20.796875 
Q 24.46875 -20.796875 20.265625 -20.09375 
Q 16.0625 -19.390625 12.109375 -17.921875 
L 12.109375 -9.1875 
Q 16.0625 -11.328125 19.921875 -12.34375 
Q 23.78125 -13.375 27.78125 -13.375 
Q 36.625 -13.375 41.015625 -8.765625 
Q 45.40625 -4.15625 45.40625 5.171875 
L 45.40625 9.625 
Q 42.625 4.78125 38.28125 2.390625 
Q 33.9375 0 27.875 0 
Q 17.828125 0 11.671875 7.65625 
Q 5.515625 15.328125 5.515625 27.984375 
Q 5.515625 40.671875 11.671875 48.328125 
Q 17.828125 56 27.875 56 
Q 33.9375 56 38.28125 53.609375 
Q 42.625 51.21875 45.40625 46.390625 
L 45.40625 54.6875 
L 54.390625 54.6875 
z
" id="DejaVuSans-67"/>
      <path d="M 12.40625 8.296875 
L 28.515625 8.296875 
L 28.515625 63.921875 
L 10.984375 60.40625 
L 10.984375 69.390625 
L 28.421875 72.90625 
L 38.28125 72.90625 
L 38.28125 8.296875 
L 54.390625 8.296875 
L 54.390625 0 
L 12.40625 0 
z
" id="DejaVuSans-31"/>
      <path id="DejaVuSans-20"/>
      <path d="M 37.109375 75.984375 
L 37.109375 68.5 
L 28.515625 68.5 
Q 23.6875 68.5 21.796875 66.546875 
Q 19.921875 64.59375 19.921875 59.515625 
L 19.921875 54.6875 
L 34.71875 54.6875 
L 34.71875 47.703125 
L 19.921875 47.703125 
L 19.921875 0 
L 10.890625 0 
L 10.890625 47.703125 
L 2.296875 47.703125 
L 2.296875 54.6875 
L 10.890625 54.6875 
L 10.890625 58.5 
Q 10.890625 67.625 15.140625 71.796875 
Q 19.390625 75.984375 28.609375 75.984375 
z
" id="DejaVuSans-66"/>
      <path d="M 19.671875 64.796875 
L 19.671875 8.109375 
L 31.59375 8.109375 
Q 46.6875 8.109375 53.6875 14.9375 
Q 60.6875 21.78125 60.6875 36.53125 
Q 60.6875 51.171875 53.6875 57.984375 
Q 46.6875 64.796875 31.59375 64.796875 
z
M 9.8125 72.90625 
L 30.078125 72.90625 
Q 51.265625 72.90625 61.171875 64.09375 
Q 71.09375 55.28125 71.09375 36.53125 
Q 71.09375 17.671875 61.125 8.828125 
Q 51.171875 0 30.078125 0 
L 9.8125 0 
z
" id="DejaVuSans-44"/>
     </defs>
     <g transform="translate(172.910063 336.833125)scale(0.2 -0.2)">
      <use xlink:href="#DejaVuSans-6c"/>
      <use x="27.783203" xlink:href="#DejaVuSans-6f"/>
      <use x="88.964844" xlink:href="#DejaVuSans-67"/>
      <use x="152.441406" xlink:href="#DejaVuSans-31"/>
      <use x="216.064453" xlink:href="#DejaVuSans-30"/>
      <use x="279.6875" xlink:href="#DejaVuSans-20"/>
      <use x="311.474609" xlink:href="#DejaVuSans-6f"/>
      <use x="372.65625" xlink:href="#DejaVuSans-66"/>
      <use x="407.861328" xlink:href="#DejaVuSans-20"/>
      <use x="439.648438" xlink:href="#DejaVuSans-44"/>
      <use x="516.650391" xlink:href="#DejaVuSans-66"/>
     </g>
    </g>
   </g>
   <g id="matplotlib.axis_2">
    <g id="ytick_1">
     <g id="line2d_11">
      <path clip-path="url(#p6907e9e3e9)" d="M 5.52 291.28 
L 450.672 291.28 
" style="fill:none;stroke:#b0b0b0;stroke-linecap:square;stroke-width:0.8;"/>
     </g>
     <g id="line2d_12">
      <defs>
       <path d="M 0 0 
L -3.5 0 
" id="m941b38dd28" style="stroke:#000000;stroke-width:0.8;"/>
      </defs>
      <g>
       <use style="stroke:#000000;stroke-width:0.8;" x="5.52" xlink:href="#m941b38dd28" y="291.28"/>
      </g>
     </g>
    </g>
    <g id="ytick_2">
     <g id="line2d_13">
      <path clip-path="url(#p6907e9e3e9)" d="M 5.52 234.693861 
L 450.672 234.693861 
" style="fill:none;stroke:#b0b0b0;stroke-linecap:square;stroke-width:0.8;"/>
     </g>
     <g id="line2d_14">
      <g>
       <use style="stroke:#000000;stroke-width:0.8;" x="5.52" xlink:href="#m941b38dd28" y="234.693861"/>
      </g>
     </g>
    </g>
    <g id="ytick_3">
     <g id="line2d_15">
      <path clip-path="url(#p6907e9e3e9)" d="M 5.52 178.107723 
L 450.672 178.107723 
" style="fill:none;stroke:#b0b0b0;stroke-linecap:square;stroke-width:0.8;"/>
     </g>
     <g id="line2d_16">
      <g>
       <use style="stroke:#000000;stroke-width:0.8;" x="5.52" xlink:href="#m941b38dd28" y="178.107723"/>
      </g>
     </g>
    </g>
    <g id="ytick_4">
     <g id="line2d_17">
      <path clip-path="url(#p6907e9e3e9)" d="M 5.52 121.521584 
L 450.672 121.521584 
" style="fill:none;stroke:#b0b0b0;stroke-linecap:square;stroke-width:0.8;"/>
     </g>
     <g id="line2d_18">
      <g>
       <use style="stroke:#000000;stroke-width:0.8;" x="5.52" xlink:href="#m941b38dd28" y="121.521584"/>
      </g>
     </g>
    </g>
    <g id="ytick_5">
     <g id="line2d_19">
      <path clip-path="url(#p6907e9e3e9)" d="M 5.52 64.935446 
L 450.672 64.935446 
" style="fill:none;stroke:#b0b0b0;stroke-linecap:square;stroke-width:0.8;"/>
     </g>
     <g id="line2d_20">
      <g>
       <use style="stroke:#000000;stroke-width:0.8;" x="5.52" xlink:href="#m941b38dd28" y="64.935446"/>
      </g>
     </g>
    </g>
    <g id="ytick_6">
     <g id="line2d_21">
      <path clip-path="url(#p6907e9e3e9)" d="M 5.52 8.349307 
L 450.672 8.349307 
" style="fill:none;stroke:#b0b0b0;stroke-linecap:square;stroke-width:0.8;"/>
     </g>
     <g id="line2d_22">
      <g>
       <use style="stroke:#000000;stroke-width:0.8;" x="5.52" xlink:href="#m941b38dd28" y="8.349307"/>
      </g>
     </g>
    </g>
   </g>
   <g id="line2d_23">
    <path clip-path="url(#p6907e9e3e9)" d="M 241.514035 291.28 
L 241.514035 286.564488 
L 241.942072 286.564488 
L 241.942072 281.848977 
L 243.922374 281.848977 
L 243.922374 277.133465 
L 244.154791 277.133465 
L 244.154791 272.417954 
L 244.268289 272.417954 
L 244.268289 267.702442 
L 244.956416 267.702442 
L 244.956416 262.986931 
L 245.376198 262.986931 
L 245.376198 258.271419 
L 245.782242 258.271419 
L 245.782242 253.555908 
L 245.815351 253.555908 
L 245.815351 248.840396 
L 245.818258 248.840396 
L 245.818258 244.124884 
L 246.39851 244.124884 
L 246.39851 239.409373 
L 246.425831 239.409373 
L 246.425831 234.693861 
L 246.630296 234.693861 
L 246.630296 229.97835 
L 246.798917 229.97835 
L 246.798917 225.262838 
L 246.988455 225.262838 
L 246.988455 220.547327 
L 247.066117 220.547327 
L 247.066117 215.831815 
L 247.96178 215.831815 
L 247.96178 211.116304 
L 248.113628 211.116304 
L 248.113628 206.400792 
L 249.082639 206.400792 
L 249.082639 201.685281 
L 249.288587 201.685281 
L 249.288587 196.969769 
L 249.349773 196.969769 
L 249.349773 192.254257 
L 249.904016 192.254257 
L 249.904016 187.538746 
L 249.997169 187.538746 
L 249.997169 182.823234 
L 250.91546 182.823234 
L 250.91546 178.107723 
L 252.54342 178.107723 
L 252.54342 173.392211 
L 253.634295 173.392211 
L 253.634295 168.6767 
L 254.55806 168.6767 
L 254.55806 163.961188 
L 254.919607 163.961188 
L 254.919607 159.245677 
L 255.509715 159.245677 
L 255.509715 154.530165 
L 255.852869 154.530165 
L 255.852869 149.814653 
L 255.89696 149.814653 
L 255.89696 145.099142 
L 255.985749 145.099142 
L 255.985749 140.38363 
L 256.143988 140.38363 
L 256.143988 135.668119 
L 256.65445 135.668119 
L 256.65445 130.952607 
L 257.100718 130.952607 
L 257.100718 126.237096 
L 257.454305 126.237096 
L 257.454305 121.521584 
L 258.052291 121.521584 
L 258.052291 116.806073 
L 258.703606 116.806073 
L 258.703606 112.090561 
L 258.982497 112.090561 
L 258.982497 107.37505 
L 259.148913 107.37505 
L 259.148913 102.659538 
L 259.395885 102.659538 
L 259.395885 97.944026 
L 259.44957 97.944026 
L 259.44957 93.228515 
L 260.71851 93.228515 
L 260.71851 88.513003 
L 261.252606 88.513003 
L 261.252606 83.797492 
L 261.316478 83.797492 
L 261.316478 79.08198 
L 261.465587 79.08198 
L 261.465587 74.366469 
L 261.723915 74.366469 
L 261.723915 69.650957 
L 262.03202 69.650957 
L 262.03202 64.935446 
L 262.499433 64.935446 
L 262.499433 60.219934 
L 262.996989 60.219934 
L 262.996989 55.504422 
L 263.821616 55.504422 
L 263.821616 50.788911 
L 264.070765 50.788911 
L 264.070765 46.073399 
L 265.227678 46.073399 
L 265.227678 41.357888 
L 266.39446 41.357888 
L 266.39446 36.642376 
L 266.40692 36.642376 
L 266.40692 31.926865 
L 266.450579 31.926865 
L 266.450579 27.211353 
L 270.21611 27.211353 
L 270.21611 22.495842 
L 271.17102 22.495842 
L 271.17102 17.78033 
L 273.141607 17.78033 
L 273.141607 13.064818 
L 273.303244 13.064818 
L 273.303244 8.349307 
L 273.303244 8.349307 
L 273.303244 8.349307 
L 450.672 8.349307 
" style="fill:none;stroke:#ff0000;stroke-linecap:square;stroke-width:3;"/>
   </g>
   <g id="line2d_24">
    <path clip-path="url(#p6907e9e3e9)" d="M 260.36435 291.28 
L 260.36435 286.564488 
L 260.36435 286.564488 
L 260.36435 281.848977 
L 260.36435 281.848977 
L 260.36435 277.133465 
L 260.36435 277.133465 
L 260.36435 272.417954 
L 260.36435 272.417954 
L 260.36435 267.702442 
L 260.36435 267.702442 
L 260.36435 262.986931 
L 260.36435 262.986931 
L 260.36435 258.271419 
L 260.36435 258.271419 
L 260.36435 253.555908 
L 260.36435 253.555908 
L 260.36435 248.840396 
L 260.36435 248.840396 
L 260.36435 244.124884 
L 260.36435 244.124884 
L 260.36435 239.409373 
L 260.36435 239.409373 
L 260.36435 234.693861 
L 260.36435 234.693861 
L 260.36435 229.97835 
L 260.36435 229.97835 
L 260.36435 225.262838 
L 260.36435 225.262838 
L 260.36435 220.547327 
L 275.3758 220.547327 
L 275.3758 215.831815 
L 276.116177 215.831815 
L 276.116177 211.116304 
L 276.458085 211.116304 
L 276.458085 206.400792 
L 276.92328 206.400792 
L 276.92328 201.685281 
L 277.9694 201.685281 
L 277.9694 196.969769 
L 280.050388 196.969769 
L 280.050388 192.254257 
L 280.637716 192.254257 
L 280.637716 187.538746 
L 280.80895 187.538746 
L 280.80895 182.823234 
L 281.153726 182.823234 
L 281.153726 178.107723 
L 281.980398 178.107723 
L 281.980398 173.392211 
L 287.175129 173.392211 
L 287.175129 168.6767 
L 287.43669 168.6767 
L 287.43669 163.961188 
L 287.717937 163.961188 
L 287.717937 159.245677 
L 288.321193 159.245677 
L 288.321193 154.530165 
L 289.493465 154.530165 
L 289.493465 149.814653 
L 318.830242 149.814653 
L 318.830242 145.099142 
L 319.083804 145.099142 
L 319.083804 140.38363 
L 319.698914 140.38363 
L 319.698914 135.668119 
L 322.620406 135.668119 
L 322.620406 130.952607 
L 323.562284 130.952607 
L 323.562284 126.237096 
L 325.551885 126.237096 
L 325.551885 121.521584 
L 326.202929 121.521584 
L 326.202929 116.806073 
L 326.259805 116.806073 
L 326.259805 112.090561 
L 327.240345 112.090561 
L 327.240345 107.37505 
L 327.289603 107.37505 
L 327.289603 102.659538 
L 327.50968 102.659538 
L 327.50968 97.944026 
L 329.783801 97.944026 
L 329.783801 93.228515 
L 330.778835 93.228515 
L 330.778835 88.513003 
L 331.161044 88.513003 
L 331.161044 83.797492 
L 331.843011 83.797492 
L 331.843011 79.08198 
L 336.807139 79.08198 
L 336.807139 74.366469 
L 339.490247 74.366469 
L 339.490247 69.650957 
L 343.872393 69.650957 
L 343.872393 64.935446 
L 345.469731 64.935446 
L 345.469731 60.219934 
L 346.602485 60.219934 
L 346.602485 55.504422 
L 346.895605 55.504422 
L 346.895605 50.788911 
L 348.421543 50.788911 
L 348.421543 46.073399 
L 349.2558 46.073399 
L 349.2558 41.357888 
L 352.909192 41.357888 
L 352.909192 36.642376 
L 353.069682 36.642376 
L 353.069682 31.926865 
L 353.458863 31.926865 
L 353.458863 27.211353 
L 355.085452 27.211353 
L 355.085452 22.495842 
L 356.297654 22.495842 
L 356.297654 17.78033 
L 359.11311 17.78033 
L 359.11311 13.064818 
L 360.336202 13.064818 
L 360.336202 8.349307 
L 360.336202 8.349307 
L 360.336202 8.349307 
L 450.672 8.349307 
" style="fill:none;stroke:#00bfbf;stroke-linecap:square;stroke-width:1.5;"/>
   </g>
   <g id="line2d_25">
    <path clip-path="url(#p6907e9e3e9)" d="M 260.36435 291.28 
L 260.36435 286.564488 
L 260.36435 286.564488 
L 260.36435 281.848977 
L 260.36435 281.848977 
L 260.36435 277.133465 
L 260.36435 277.133465 
L 260.36435 272.417954 
L 260.36435 272.417954 
L 260.36435 267.702442 
L 260.36435 267.702442 
L 260.36435 262.986931 
L 260.36435 262.986931 
L 260.36435 258.271419 
L 260.36435 258.271419 
L 260.36435 253.555908 
L 260.36435 253.555908 
L 260.36435 248.840396 
L 260.36435 248.840396 
L 260.36435 244.124884 
L 260.36435 244.124884 
L 260.36435 239.409373 
L 260.36435 239.409373 
L 260.36435 234.693861 
L 260.36435 234.693861 
L 260.36435 229.97835 
L 260.36435 229.97835 
L 260.36435 225.262838 
L 260.36435 225.262838 
L 260.36435 220.547327 
L 275.3758 220.547327 
L 275.3758 215.831815 
L 276.116177 215.831815 
L 276.116177 211.116304 
L 276.458085 211.116304 
L 276.458085 206.400792 
L 276.92328 206.400792 
L 276.92328 201.685281 
L 277.9694 201.685281 
L 277.9694 196.969769 
L 280.050388 196.969769 
L 280.050388 192.254257 
L 280.637716 192.254257 
L 280.637716 187.538746 
L 280.80895 187.538746 
L 280.80895 182.823234 
L 280.880379 182.823234 
L 280.880379 178.107723 
L 281.171813 178.107723 
L 281.171813 173.392211 
L 281.980398 173.392211 
L 281.980398 168.6767 
L 287.175129 168.6767 
L 287.175129 163.961188 
L 287.43669 163.961188 
L 287.43669 159.245677 
L 287.717937 159.245677 
L 287.717937 154.530165 
L 288.545248 154.530165 
L 288.545248 149.814653 
L 318.830242 149.814653 
L 318.830242 145.099142 
L 319.083804 145.099142 
L 319.083804 140.38363 
L 319.698914 140.38363 
L 319.698914 135.668119 
L 322.620406 135.668119 
L 322.620406 130.952607 
L 323.562284 130.952607 
L 323.562284 126.237096 
L 325.551885 126.237096 
L 325.551885 121.521584 
L 326.202929 121.521584 
L 326.202929 116.806073 
L 326.259805 116.806073 
L 326.259805 112.090561 
L 327.240345 112.090561 
L 327.240345 107.37505 
L 327.289603 107.37505 
L 327.289603 102.659538 
L 327.50968 102.659538 
L 327.50968 97.944026 
L 329.783801 97.944026 
L 329.783801 93.228515 
L 330.778835 93.228515 
L 330.778835 88.513003 
L 331.161044 88.513003 
L 331.161044 83.797492 
L 331.843011 83.797492 
L 331.843011 79.08198 
L 336.807139 79.08198 
L 336.807139 74.366469 
L 339.490247 74.366469 
L 339.490247 69.650957 
L 343.872393 69.650957 
L 343.872393 64.935446 
L 344.64293 64.935446 
L 344.64293 60.219934 
L 345.424818 60.219934 
L 345.424818 55.504422 
L 345.469731 55.504422 
L 345.469731 50.788911 
L 346.895605 50.788911 
L 346.895605 46.073399 
L 349.2558 46.073399 
L 349.2558 41.357888 
L 351.977886 41.357888 
L 351.977886 36.642376 
L 352.604696 36.642376 
L 352.604696 31.926865 
L 352.909192 31.926865 
L 352.909192 27.211353 
L 353.129334 27.211353 
L 353.129334 22.495842 
L 353.458863 22.495842 
L 353.458863 17.78033 
L 354.359583 17.78033 
L 354.359583 13.064818 
L 356.297654 13.064818 
L 356.297654 8.349307 
L 356.297654 8.349307 
L 356.297654 8.349307 
L 450.672 8.349307 
" style="fill:none;stroke:#bf00bf;stroke-linecap:square;stroke-width:1.5;"/>
   </g>
   <g id="line2d_26">
    <path clip-path="url(#p6907e9e3e9)" d="M 260.36435 291.28 
L 260.36435 286.564488 
L 260.36435 286.564488 
L 260.36435 281.848977 
L 260.36435 281.848977 
L 260.36435 277.133465 
L 260.36435 277.133465 
L 260.36435 272.417954 
L 260.36435 272.417954 
L 260.36435 267.702442 
L 260.36435 267.702442 
L 260.36435 262.986931 
L 260.36435 262.986931 
L 260.36435 258.271419 
L 260.36435 258.271419 
L 260.36435 253.555908 
L 260.36435 253.555908 
L 260.36435 248.840396 
L 260.36435 248.840396 
L 260.36435 244.124884 
L 260.36435 244.124884 
L 260.36435 239.409373 
L 260.36435 239.409373 
L 260.36435 234.693861 
L 260.36435 234.693861 
L 260.36435 229.97835 
L 260.36435 229.97835 
L 260.36435 225.262838 
L 260.36435 225.262838 
L 260.36435 220.547327 
L 273.940169 220.547327 
L 273.940169 215.831815 
L 274.515291 215.831815 
L 274.515291 211.116304 
L 275.3758 211.116304 
L 275.3758 206.400792 
L 276.116177 206.400792 
L 276.116177 201.685281 
L 276.92328 201.685281 
L 276.92328 196.969769 
L 277.95492 196.969769 
L 277.95492 192.254257 
L 277.9694 192.254257 
L 277.9694 187.538746 
L 279.822792 187.538746 
L 279.822792 182.823234 
L 280.050388 182.823234 
L 280.050388 178.107723 
L 280.80895 178.107723 
L 280.80895 173.392211 
L 281.169993 173.392211 
L 281.169993 168.6767 
L 281.171813 168.6767 
L 281.171813 163.961188 
L 286.531868 163.961188 
L 286.531868 159.245677 
L 286.74887 159.245677 
L 286.74887 154.530165 
L 286.917998 154.530165 
L 286.917998 149.814653 
L 318.830242 149.814653 
L 318.830242 145.099142 
L 319.083804 145.099142 
L 319.083804 140.38363 
L 319.698914 140.38363 
L 319.698914 135.668119 
L 322.620406 135.668119 
L 322.620406 130.952607 
L 323.562284 130.952607 
L 323.562284 126.237096 
L 325.551885 126.237096 
L 325.551885 121.521584 
L 326.202929 121.521584 
L 326.202929 116.806073 
L 326.259805 116.806073 
L 326.259805 112.090561 
L 327.240345 112.090561 
L 327.240345 107.37505 
L 327.289603 107.37505 
L 327.289603 102.659538 
L 327.50968 102.659538 
L 327.50968 97.944026 
L 329.783801 97.944026 
L 329.783801 93.228515 
L 330.778835 93.228515 
L 330.778835 88.513003 
L 331.161044 88.513003 
L 331.161044 83.797492 
L 331.843011 83.797492 
L 331.843011 79.08198 
L 336.807139 79.08198 
L 336.807139 74.366469 
L 339.490247 74.366469 
L 339.490247 69.650957 
L 343.872393 69.650957 
L 343.872393 64.935446 
L 344.64293 64.935446 
L 344.64293 60.219934 
L 345.013035 60.219934 
L 345.013035 55.504422 
L 345.424818 55.504422 
L 345.424818 50.788911 
L 345.756299 50.788911 
L 345.756299 46.073399 
L 347.845498 46.073399 
L 347.845498 41.357888 
L 349.2558 41.357888 
L 349.2558 36.642376 
L 349.716551 36.642376 
L 349.716551 31.926865 
L 349.948237 31.926865 
L 349.948237 27.211353 
L 352.604696 27.211353 
L 352.604696 22.495842 
L 353.099503 22.495842 
L 353.099503 17.78033 
L 353.129334 17.78033 
L 353.129334 13.064818 
L 353.968323 13.064818 
L 353.968323 8.349307 
L 353.968323 8.349307 
L 353.968323 8.349307 
L 450.672 8.349307 
" style="fill:none;stroke:#000000;stroke-linecap:square;stroke-width:1.5;"/>
   </g>
   <g id="line2d_27">
    <path clip-path="url(#p6907e9e3e9)" d="M 260.36435 291.28 
L 260.36435 286.564488 
L 260.36435 286.564488 
L 260.36435 281.848977 
L 260.36435 281.848977 
L 260.36435 277.133465 
L 260.36435 277.133465 
L 260.36435 272.417954 
L 260.36435 272.417954 
L 260.36435 267.702442 
L 260.36435 267.702442 
L 260.36435 262.986931 
L 260.36435 262.986931 
L 260.36435 258.271419 
L 260.36435 258.271419 
L 260.36435 253.555908 
L 260.36435 253.555908 
L 260.36435 248.840396 
L 260.36435 248.840396 
L 260.36435 244.124884 
L 260.36435 244.124884 
L 260.36435 239.409373 
L 260.36435 239.409373 
L 260.36435 234.693861 
L 260.36435 234.693861 
L 260.36435 229.97835 
L 260.36435 229.97835 
L 260.36435 225.262838 
L 260.36435 225.262838 
L 260.36435 220.547327 
L 270.890831 220.547327 
L 270.890831 215.831815 
L 272.154486 215.831815 
L 272.154486 211.116304 
L 273.940169 211.116304 
L 273.940169 206.400792 
L 274.178368 206.400792 
L 274.178368 201.685281 
L 274.515291 201.685281 
L 274.515291 196.969769 
L 275.3758 196.969769 
L 275.3758 192.254257 
L 276.92328 192.254257 
L 276.92328 187.538746 
L 277.711397 187.538746 
L 277.711397 182.823234 
L 277.79783 182.823234 
L 277.79783 178.107723 
L 278.218782 178.107723 
L 278.218782 173.392211 
L 278.744271 173.392211 
L 278.744271 168.6767 
L 278.815595 168.6767 
L 278.815595 163.961188 
L 279.071247 163.961188 
L 279.071247 159.245677 
L 280.80895 159.245677 
L 280.80895 154.530165 
L 282.568737 154.530165 
L 282.568737 149.814653 
L 318.830242 149.814653 
L 318.830242 145.099142 
L 319.083804 145.099142 
L 319.083804 140.38363 
L 319.698914 140.38363 
L 319.698914 135.668119 
L 322.620406 135.668119 
L 322.620406 130.952607 
L 323.562284 130.952607 
L 323.562284 126.237096 
L 325.551885 126.237096 
L 325.551885 121.521584 
L 326.202929 121.521584 
L 326.202929 116.806073 
L 326.259805 116.806073 
L 326.259805 112.090561 
L 327.240345 112.090561 
L 327.240345 107.37505 
L 327.289603 107.37505 
L 327.289603 102.659538 
L 327.50968 102.659538 
L 327.50968 97.944026 
L 329.644281 97.944026 
L 329.644281 93.228515 
L 329.783801 93.228515 
L 329.783801 88.513003 
L 330.778835 88.513003 
L 330.778835 83.797492 
L 331.161044 83.797492 
L 331.161044 79.08198 
L 331.843011 79.08198 
L 331.843011 74.366469 
L 334.52468 74.366469 
L 334.52468 69.650957 
L 335.865784 69.650957 
L 335.865784 64.935446 
L 336.129235 64.935446 
L 336.129235 60.219934 
L 339.760096 60.219934 
L 339.760096 55.504422 
L 342.020977 55.504422 
L 342.020977 50.788911 
L 342.141097 50.788911 
L 342.141097 46.073399 
L 342.181844 46.073399 
L 342.181844 41.357888 
L 343.152712 41.357888 
L 343.152712 36.642376 
L 343.872393 36.642376 
L 343.872393 31.926865 
L 344.436775 31.926865 
L 344.436775 27.211353 
L 344.965777 27.211353 
L 344.965777 22.495842 
L 346.261836 22.495842 
L 346.261836 17.78033 
L 346.936256 17.78033 
L 346.936256 13.064818 
L 349.430772 13.064818 
L 349.430772 8.349307 
L 349.430772 8.349307 
L 349.430772 8.349307 
L 450.672 8.349307 
" style="fill:none;stroke:#00bfbf;stroke-linecap:square;stroke-width:1.5;"/>
   </g>
   <g id="line2d_28">
    <path clip-path="url(#p6907e9e3e9)" d="M 245.073154 291.28 
L 245.073154 286.564488 
L 249.479685 286.564488 
L 249.479685 281.848977 
L 250.20661 281.848977 
L 250.20661 277.133465 
L 252.40226 277.133465 
L 252.40226 272.417954 
L 252.495733 272.417954 
L 252.495733 267.702442 
L 252.795575 267.702442 
L 252.795575 262.986931 
L 253.10858 262.986931 
L 253.10858 258.271419 
L 253.428795 258.271419 
L 253.428795 253.555908 
L 253.618904 253.555908 
L 253.618904 248.840396 
L 254.193019 248.840396 
L 254.193019 244.124884 
L 254.446104 244.124884 
L 254.446104 239.409373 
L 254.971311 239.409373 
L 254.971311 234.693861 
L 256.461833 234.693861 
L 256.461833 229.97835 
L 257.281443 229.97835 
L 257.281443 225.262838 
L 259.163308 225.262838 
L 259.163308 220.547327 
L 260.36435 220.547327 
L 260.36435 215.831815 
L 260.36435 215.831815 
L 260.36435 211.116304 
L 260.36435 211.116304 
L 260.36435 206.400792 
L 260.36435 206.400792 
L 260.36435 201.685281 
L 260.36435 201.685281 
L 260.36435 196.969769 
L 260.36435 196.969769 
L 260.36435 192.254257 
L 260.36435 192.254257 
L 260.36435 187.538746 
L 260.36435 187.538746 
L 260.36435 182.823234 
L 260.36435 182.823234 
L 260.36435 178.107723 
L 260.36435 178.107723 
L 260.36435 173.392211 
L 260.36435 173.392211 
L 260.36435 168.6767 
L 260.36435 168.6767 
L 260.36435 163.961188 
L 260.36435 163.961188 
L 260.36435 159.245677 
L 260.36435 159.245677 
L 260.36435 154.530165 
L 260.36435 154.530165 
L 260.36435 149.814653 
L 260.616575 149.814653 
L 260.616575 145.099142 
L 263.444746 145.099142 
L 263.444746 140.38363 
L 265.751466 140.38363 
L 265.751466 135.668119 
L 266.658133 135.668119 
L 266.658133 130.952607 
L 266.884664 130.952607 
L 266.884664 126.237096 
L 267.647437 126.237096 
L 267.647437 121.521584 
L 271.206465 121.521584 
L 271.206465 116.806073 
L 273.159306 116.806073 
L 273.159306 112.090561 
L 273.37066 112.090561 
L 273.37066 107.37505 
L 273.402596 107.37505 
L 273.402596 102.659538 
L 273.881214 102.659538 
L 273.881214 97.944026 
L 274.721328 97.944026 
L 274.721328 93.228515 
L 274.993732 93.228515 
L 274.993732 88.513003 
L 275.370055 88.513003 
L 275.370055 83.797492 
L 278.602124 83.797492 
L 278.602124 79.08198 
L 278.669124 79.08198 
L 278.669124 74.366469 
L 278.854656 74.366469 
L 278.854656 69.650957 
L 284.892859 69.650957 
L 284.892859 64.935446 
L 285.114909 64.935446 
L 285.114909 60.219934 
L 285.557812 60.219934 
L 285.557812 55.504422 
L 286.643687 55.504422 
L 286.643687 50.788911 
L 289.23402 50.788911 
L 289.23402 46.073399 
L 290.865374 46.073399 
L 290.865374 41.357888 
L 291.284838 41.357888 
L 291.284838 36.642376 
L 291.38569 36.642376 
L 291.38569 31.926865 
L 294.50354 31.926865 
L 294.50354 27.211353 
L 295.484287 27.211353 
L 295.484287 22.495842 
L 296.274677 22.495842 
L 296.274677 17.78033 
L 299.275982 17.78033 
L 299.275982 13.064818 
L 301.862627 13.064818 
L 301.862627 8.349307 
L 301.862627 8.349307 
L 301.862627 8.349307 
L 450.672 8.349307 
" style="fill:none;stroke:#bf00bf;stroke-linecap:square;stroke-width:1.5;"/>
   </g>
   <g id="line2d_29">
    <path clip-path="url(#p6907e9e3e9)" d="M 241.514035 291.28 
L 241.514035 286.564488 
L 241.942072 286.564488 
L 241.942072 281.848977 
L 243.922374 281.848977 
L 243.922374 277.133465 
L 244.154791 277.133465 
L 244.154791 272.417954 
L 244.268289 272.417954 
L 244.268289 267.702442 
L 244.956416 267.702442 
L 244.956416 262.986931 
L 245.376198 262.986931 
L 245.376198 258.271419 
L 245.815351 258.271419 
L 245.815351 253.555908 
L 245.818258 253.555908 
L 245.818258 248.840396 
L 245.858237 248.840396 
L 245.858237 244.124884 
L 246.398532 244.124884 
L 246.398532 239.409373 
L 246.425831 239.409373 
L 246.425831 234.693861 
L 246.630296 234.693861 
L 246.630296 229.97835 
L 246.798917 229.97835 
L 246.798917 225.262838 
L 247.026032 225.262838 
L 247.026032 220.547327 
L 247.069789 220.547327 
L 247.069789 215.831815 
L 247.96178 215.831815 
L 247.96178 211.116304 
L 248.113628 211.116304 
L 248.113628 206.400792 
L 249.082639 206.400792 
L 249.082639 201.685281 
L 249.288599 201.685281 
L 249.288599 196.969769 
L 249.364372 196.969769 
L 249.364372 192.254257 
L 249.904016 192.254257 
L 249.904016 187.538746 
L 250.144115 187.538746 
L 250.144115 182.823234 
L 250.91546 182.823234 
L 250.91546 178.107723 
L 252.54342 178.107723 
L 252.54342 173.392211 
L 253.634295 173.392211 
L 253.634295 168.6767 
L 254.55806 168.6767 
L 254.55806 163.961188 
L 254.940363 163.961188 
L 254.940363 159.245677 
L 255.541719 159.245677 
L 255.541719 154.530165 
L 255.852869 154.530165 
L 255.852869 149.814653 
L 255.89696 149.814653 
L 255.89696 145.099142 
L 255.985749 145.099142 
L 255.985749 140.38363 
L 256.143988 140.38363 
L 256.143988 135.668119 
L 256.65445 135.668119 
L 256.65445 130.952607 
L 257.100718 130.952607 
L 257.100718 126.237096 
L 257.454305 126.237096 
L 257.454305 121.521584 
L 258.126821 121.521584 
L 258.126821 116.806073 
L 258.729567 116.806073 
L 258.729567 112.090561 
L 258.982497 112.090561 
L 258.982497 107.37505 
L 259.148913 107.37505 
L 259.148913 102.659538 
L 259.395885 102.659538 
L 259.395885 97.944026 
L 259.458652 97.944026 
L 259.458652 93.228515 
L 260.72904 93.228515 
L 260.72904 88.513003 
L 261.252606 88.513003 
L 261.252606 83.797492 
L 261.348782 83.797492 
L 261.348782 79.08198 
L 261.625513 79.08198 
L 261.625513 74.366469 
L 261.723915 74.366469 
L 261.723915 69.650957 
L 262.032464 69.650957 
L 262.032464 64.935446 
L 262.499433 64.935446 
L 262.499433 60.219934 
L 262.996989 60.219934 
L 262.996989 55.504422 
L 263.821616 55.504422 
L 263.821616 50.788911 
L 264.083599 50.788911 
L 264.083599 46.073399 
L 265.227678 46.073399 
L 265.227678 41.357888 
L 266.39446 41.357888 
L 266.39446 36.642376 
L 266.406993 36.642376 
L 266.406993 31.926865 
L 266.450579 31.926865 
L 266.450579 27.211353 
L 270.21611 27.211353 
L 270.21611 22.495842 
L 271.17102 22.495842 
L 271.17102 17.78033 
L 273.316537 17.78033 
L 273.316537 13.064818 
L 273.332859 13.064818 
L 273.332859 8.349307 
L 273.332859 8.349307 
L 273.332859 8.349307 
L 450.672 8.349307 
" style="fill:none;stroke:#000000;stroke-linecap:square;stroke-width:1.5;"/>
   </g>
   <g id="patch_3">
    <path d="M 5.52 291.28 
L 5.52 5.52 
" style="fill:none;stroke:#000000;stroke-linecap:square;stroke-linejoin:miter;stroke-width:0.8;"/>
   </g>
   <g id="patch_4">
    <path d="M 450.672 291.28 
L 450.672 5.52 
" style="fill:none;stroke:#000000;stroke-linecap:square;stroke-linejoin:miter;stroke-width:0.8;"/>
   </g>
   <g id="patch_5">
    <path d="M 5.52 291.28 
L 450.672 291.28 
" style="fill:none;stroke:#000000;stroke-linecap:square;stroke-linejoin:miter;stroke-width:0.8;"/>
   </g>
   <g id="patch_6">
    <path d="M 5.52 5.52 
L 450.672 5.52 
" style="fill:none;stroke:#000000;stroke-linecap:square;stroke-linejoin:miter;stroke-width:0.8;"/>
   </g>
   <g id="text_6">
    <!-- {f6-f9}, 20-D -->
    <defs>
     <path d="M 51.125 -9.28125 
L 51.125 -16.3125 
L 48.09375 -16.3125 
Q 35.9375 -16.3125 31.8125 -12.6875 
Q 27.6875 -9.078125 27.6875 1.703125 
L 27.6875 13.375 
Q 27.6875 20.75 25.046875 23.578125 
Q 22.40625 26.421875 15.484375 26.421875 
L 12.5 26.421875 
L 12.5 33.40625 
L 15.484375 33.40625 
Q 22.46875 33.40625 25.078125 36.203125 
Q 27.6875 39.015625 27.6875 46.296875 
L 27.6875 58.015625 
Q 27.6875 68.796875 31.8125 72.390625 
Q 35.9375 75.984375 48.09375 75.984375 
L 51.125 75.984375 
L 51.125 69 
L 47.796875 69 
Q 40.921875 69 38.8125 66.84375 
Q 36.71875 64.703125 36.71875 57.8125 
L 36.71875 45.703125 
Q 36.71875 38.03125 34.5 34.5625 
Q 32.28125 31.109375 26.90625 29.890625 
Q 32.328125 28.5625 34.515625 25.09375 
Q 36.71875 21.625 36.71875 14.015625 
L 36.71875 1.90625 
Q 36.71875 -4.984375 38.8125 -7.125 
Q 40.921875 -9.28125 47.796875 -9.28125 
z
" id="DejaVuSans-7b"/>
     <path d="M 33.015625 40.375 
Q 26.375 40.375 22.484375 35.828125 
Q 18.609375 31.296875 18.609375 23.390625 
Q 18.609375 15.53125 22.484375 10.953125 
Q 26.375 6.390625 33.015625 6.390625 
Q 39.65625 6.390625 43.53125 10.953125 
Q 47.40625 15.53125 47.40625 23.390625 
Q 47.40625 31.296875 43.53125 35.828125 
Q 39.65625 40.375 33.015625 40.375 
z
M 52.59375 71.296875 
L 52.59375 62.3125 
Q 48.875 64.0625 45.09375 64.984375 
Q 41.3125 65.921875 37.59375 65.921875 
Q 27.828125 65.921875 22.671875 59.328125 
Q 17.53125 52.734375 16.796875 39.40625 
Q 19.671875 43.65625 24.015625 45.921875 
Q 28.375 48.1875 33.59375 48.1875 
Q 44.578125 48.1875 50.953125 41.515625 
Q 57.328125 34.859375 57.328125 23.390625 
Q 57.328125 12.15625 50.6875 5.359375 
Q 44.046875 -1.421875 33.015625 -1.421875 
Q 20.359375 -1.421875 13.671875 8.265625 
Q 6.984375 17.96875 6.984375 36.375 
Q 6.984375 53.65625 15.1875 63.9375 
Q 23.390625 74.21875 37.203125 74.21875 
Q 40.921875 74.21875 44.703125 73.484375 
Q 48.484375 72.75 52.59375 71.296875 
z
" id="DejaVuSans-36"/>
     <path d="M 10.984375 1.515625 
L 10.984375 10.5 
Q 14.703125 8.734375 18.5 7.8125 
Q 22.3125 6.890625 25.984375 6.890625 
Q 35.75 6.890625 40.890625 13.453125 
Q 46.046875 20.015625 46.78125 33.40625 
Q 43.953125 29.203125 39.59375 26.953125 
Q 35.25 24.703125 29.984375 24.703125 
Q 19.046875 24.703125 12.671875 31.3125 
Q 6.296875 37.9375 6.296875 49.421875 
Q 6.296875 60.640625 12.9375 67.421875 
Q 19.578125 74.21875 30.609375 74.21875 
Q 43.265625 74.21875 49.921875 64.515625 
Q 56.59375 54.828125 56.59375 36.375 
Q 56.59375 19.140625 48.40625 8.859375 
Q 40.234375 -1.421875 26.421875 -1.421875 
Q 22.703125 -1.421875 18.890625 -0.6875 
Q 15.09375 0.046875 10.984375 1.515625 
z
M 30.609375 32.421875 
Q 37.25 32.421875 41.125 36.953125 
Q 45.015625 41.5 45.015625 49.421875 
Q 45.015625 57.28125 41.125 61.84375 
Q 37.25 66.40625 30.609375 66.40625 
Q 23.96875 66.40625 20.09375 61.84375 
Q 16.21875 57.28125 16.21875 49.421875 
Q 16.21875 41.5 20.09375 36.953125 
Q 23.96875 32.421875 30.609375 32.421875 
z
" id="DejaVuSans-39"/>
     <path d="M 12.5 -9.28125 
L 15.921875 -9.28125 
Q 22.75 -9.28125 24.828125 -7.171875 
Q 26.90625 -5.078125 26.90625 1.90625 
L 26.90625 14.015625 
Q 26.90625 21.625 29.09375 25.09375 
Q 31.296875 28.5625 36.71875 29.890625 
Q 31.296875 31.109375 29.09375 34.5625 
Q 26.90625 38.03125 26.90625 45.703125 
L 26.90625 57.8125 
Q 26.90625 64.75 24.828125 66.875 
Q 22.75 69 15.921875 69 
L 12.5 69 
L 12.5 75.984375 
L 15.578125 75.984375 
Q 27.734375 75.984375 31.8125 72.390625 
Q 35.890625 68.796875 35.890625 58.015625 
L 35.890625 46.296875 
Q 35.890625 39.015625 38.515625 36.203125 
Q 41.15625 33.40625 48.09375 33.40625 
L 51.125 33.40625 
L 51.125 26.421875 
L 48.09375 26.421875 
Q 41.15625 26.421875 38.515625 23.578125 
Q 35.890625 20.75 35.890625 13.375 
L 35.890625 1.703125 
Q 35.890625 -9.078125 31.8125 -12.6875 
Q 27.734375 -16.3125 15.578125 -16.3125 
L 12.5 -16.3125 
z
" id="DejaVuSans-7d"/>
     <path d="M 11.71875 12.40625 
L 22.015625 12.40625 
L 22.015625 4 
L 14.015625 -11.625 
L 7.71875 -11.625 
L 11.71875 4 
z
" id="DejaVuSans-2c"/>
     <path d="M 19.1875 8.296875 
L 53.609375 8.296875 
L 53.609375 0 
L 7.328125 0 
L 7.328125 8.296875 
Q 12.9375 14.109375 22.625 23.890625 
Q 32.328125 33.6875 34.8125 36.53125 
Q 39.546875 41.84375 41.421875 45.53125 
Q 43.3125 49.21875 43.3125 52.78125 
Q 43.3125 58.59375 39.234375 62.25 
Q 35.15625 65.921875 28.609375 65.921875 
Q 23.96875 65.921875 18.8125 64.3125 
Q 13.671875 62.703125 7.8125 59.421875 
L 7.8125 69.390625 
Q 13.765625 71.78125 18.9375 73 
Q 24.125 74.21875 28.421875 74.21875 
Q 39.75 74.21875 46.484375 68.546875 
Q 53.21875 62.890625 53.21875 53.421875 
Q 53.21875 48.921875 51.53125 44.890625 
Q 49.859375 40.875 45.40625 35.40625 
Q 44.1875 33.984375 37.640625 27.21875 
Q 31.109375 20.453125 19.1875 8.296875 
z
" id="DejaVuSans-32"/>
    </defs>
    <g transform="translate(308.79396 285.5648)scale(0.2 -0.2)">
     <use xlink:href="#DejaVuSans-7b"/>
     <use x="63.623047" xlink:href="#DejaVuSans-66"/>
     <use x="98.828125" xlink:href="#DejaVuSans-36"/>
     <use x="162.451172" xlink:href="#DejaVuSans-2d"/>
     <use x="198.535156" xlink:href="#DejaVuSans-66"/>
     <use x="233.740234" xlink:href="#DejaVuSans-39"/>
     <use x="297.363281" xlink:href="#DejaVuSans-7d"/>
     <use x="360.986328" xlink:href="#DejaVuSans-2c"/>
     <use x="392.773438" xlink:href="#DejaVuSans-20"/>
     <use x="424.560547" xlink:href="#DejaVuSans-32"/>
     <use x="488.183594" xlink:href="#DejaVuSans-30"/>
     <use x="551.806641" xlink:href="#DejaVuSans-2d"/>
     <use x="587.890625" xlink:href="#DejaVuSans-44"/>
    </g>
   </g>
   <g id="text_7">
    <!-- v0.0.0 -->
    <defs>
     <path d="M 2.984375 54.6875 
L 12.5 54.6875 
L 29.59375 8.796875 
L 46.6875 54.6875 
L 56.203125 54.6875 
L 35.6875 0 
L 23.484375 0 
z
" id="DejaVuSans-76"/>
     <path d="M 10.6875 12.40625 
L 21 12.40625 
L 21 0 
L 10.6875 0 
z
" id="DejaVuSans-2e"/>
    </defs>
    <g style="fill:#808080;" transform="translate(212.41475 286.342713)scale(0.1 -0.1)">
     <use xlink:href="#DejaVuSans-76"/>
     <use x="59.179688" xlink:href="#DejaVuSans-30"/>
     <use x="122.802734" xlink:href="#DejaVuSans-2e"/>
     <use x="154.589844" xlink:href="#DejaVuSans-30"/>
     <use x="218.212891" xlink:href="#DejaVuSans-2e"/>
     <use x="250" xlink:href="#DejaVuSans-30"/>
    </g>
   </g>
  </g>
 </g>
 <defs>
  <clipPath id="p6907e9e3e9">
   <rect height="285.76" width="445.152" x="5.52" y="5.52"/>
  </clipPath>
 </defs>
</svg>
