<?xml version="1.0" encoding="utf-8" standalone="no"?>
<!DOCTYPE svg PUBLIC "-//W3C//DTD SVG 1.1//EN"
  "http://www.w3.org/Graphics/SVG/1.1/DTD/svg11.dtd">
<!-- Created with matplotlib (http://matplotlib.org/) -->
<svg height="345.6pt" version="1.1" viewBox="0 0 460.8 345.6" width="460.8pt" xmlns="http://www.w3.org/2000/svg" xmlns:xlink="http://www.w3.org/1999/xlink">
 <defs>
  <style type="text/css">
*{stroke-linecap:butt;stroke-linejoin:round;}
  </style>
 </defs>
 <g id="figure_1">
  <g id="patch_1">
   <path d="M 0 345.6 
L 460.8 345.6 
L 460.8 0 
L 0 0 
z
" style="fill:#ffffff;"/>
  </g>
  <g id="axes_1">
   <g id="patch_2">
    <path d="M 5.52 291.28 
L 450.672 291.28 
L 450.672 5.52 
L 5.52 5.52 
z
" style="fill:#ffffff;"/>
   </g>
   <g id="matplotlib.axis_1">
    <g id="xtick_1">
     <g id="line2d_1">
      <path clip-path="url(#pbaa67832ab)" d="M 5.408679 291.28 
L 5.408679 5.52 
" style="fill:none;stroke:#b0b0b0;stroke-linecap:square;stroke-width:0.8;"/>
     </g>
     <g id="line2d_2">
      <defs>
       <path d="M 0 0 
L 0 3.5 
" id="me198b5dd07" style="stroke:#000000;stroke-width:0.8;"/>
      </defs>
      <g>
       <use style="stroke:#000000;stroke-width:0.8;" x="5.408679" xlink:href="#me198b5dd07" y="291.28"/>
      </g>
     </g>
    </g>
    <g id="xtick_2">
     <g id="line2d_3">
      <path clip-path="url(#pbaa67832ab)" d="M 108.451201 291.28 
L 108.451201 5.52 
" style="fill:none;stroke:#b0b0b0;stroke-linecap:square;stroke-width:0.8;"/>
     </g>
     <g id="line2d_4">
      <g>
       <use style="stroke:#000000;stroke-width:0.8;" x="108.451201" xlink:href="#me198b5dd07" y="291.28"/>
      </g>
     </g>
     <g id="text_1">
      <!-- -4 -->
      <defs>
       <path d="M 4.890625 31.390625 
L 31.203125 31.390625 
L 31.203125 23.390625 
L 4.890625 23.390625 
z
" id="DejaVuSans-2d"/>
       <path d="M 37.796875 64.3125 
L 12.890625 25.390625 
L 37.796875 25.390625 
z
M 35.203125 72.90625 
L 47.609375 72.90625 
L 47.609375 25.390625 
L 58.015625 25.390625 
L 58.015625 17.1875 
L 47.609375 17.1875 
L 47.609375 0 
L 37.796875 0 
L 37.796875 17.1875 
L 4.890625 17.1875 
L 4.890625 26.703125 
z
" id="DejaVuSans-34"/>
      </defs>
      <g transform="translate(98.480889 313.476875)scale(0.2 -0.2)">
       <use xlink:href="#DejaVuSans-2d"/>
       <use x="36.083984" xlink:href="#DejaVuSans-34"/>
      </g>
     </g>
    </g>
    <g id="xtick_3">
     <g id="line2d_5">
      <path clip-path="url(#pbaa67832ab)" d="M 211.493724 291.28 
L 211.493724 5.52 
" style="fill:none;stroke:#b0b0b0;stroke-linecap:square;stroke-width:0.8;"/>
     </g>
     <g id="line2d_6">
      <g>
       <use style="stroke:#000000;stroke-width:0.8;" x="211.493724" xlink:href="#me198b5dd07" y="291.28"/>
      </g>
     </g>
     <g id="text_2">
      <!-- 0 -->
      <defs>
       <path d="M 31.78125 66.40625 
Q 24.171875 66.40625 20.328125 58.90625 
Q 16.5 51.421875 16.5 36.375 
Q 16.5 21.390625 20.328125 13.890625 
Q 24.171875 6.390625 31.78125 6.390625 
Q 39.453125 6.390625 43.28125 13.890625 
Q 47.125 21.390625 47.125 36.375 
Q 47.125 51.421875 43.28125 58.90625 
Q 39.453125 66.40625 31.78125 66.40625 
z
M 31.78125 74.21875 
Q 44.046875 74.21875 50.515625 64.515625 
Q 56.984375 54.828125 56.984375 36.375 
Q 56.984375 17.96875 50.515625 8.265625 
Q 44.046875 -1.421875 31.78125 -1.421875 
Q 19.53125 -1.421875 13.0625 8.265625 
Q 6.59375 17.96875 6.59375 36.375 
Q 6.59375 54.828125 13.0625 64.515625 
Q 19.53125 74.21875 31.78125 74.21875 
z
" id="DejaVuSans-30"/>
      </defs>
      <g transform="translate(205.131224 313.476875)scale(0.2 -0.2)">
       <use xlink:href="#DejaVuSans-30"/>
      </g>
     </g>
    </g>
    <g id="xtick_4">
     <g id="line2d_7">
      <path clip-path="url(#pbaa67832ab)" d="M 314.536247 291.28 
L 314.536247 5.52 
" style="fill:none;stroke:#b0b0b0;stroke-linecap:square;stroke-width:0.8;"/>
     </g>
     <g id="line2d_8">
      <g>
       <use style="stroke:#000000;stroke-width:0.8;" x="314.536247" xlink:href="#me198b5dd07" y="291.28"/>
      </g>
     </g>
     <g id="text_3">
      <!-- 4 -->
      <g transform="translate(308.173747 313.476875)scale(0.2 -0.2)">
       <use xlink:href="#DejaVuSans-34"/>
      </g>
     </g>
    </g>
    <g id="xtick_5">
     <g id="line2d_9">
      <path clip-path="url(#pbaa67832ab)" d="M 417.578769 291.28 
L 417.578769 5.52 
" style="fill:none;stroke:#b0b0b0;stroke-linecap:square;stroke-width:0.8;"/>
     </g>
     <g id="line2d_10">
      <g>
       <use style="stroke:#000000;stroke-width:0.8;" x="417.578769" xlink:href="#me198b5dd07" y="291.28"/>
      </g>
     </g>
     <g id="text_4">
      <!-- 8 -->
      <defs>
       <path d="M 31.78125 34.625 
Q 24.75 34.625 20.71875 30.859375 
Q 16.703125 27.09375 16.703125 20.515625 
Q 16.703125 13.921875 20.71875 10.15625 
Q 24.75 6.390625 31.78125 6.390625 
Q 38.8125 6.390625 42.859375 10.171875 
Q 46.921875 13.96875 46.921875 20.515625 
Q 46.921875 27.09375 42.890625 30.859375 
Q 38.875 34.625 31.78125 34.625 
z
M 21.921875 38.8125 
Q 15.578125 40.375 12.03125 44.71875 
Q 8.5 49.078125 8.5 55.328125 
Q 8.5 64.0625 14.71875 69.140625 
Q 20.953125 74.21875 31.78125 74.21875 
Q 42.671875 74.21875 48.875 69.140625 
Q 55.078125 64.0625 55.078125 55.328125 
Q 55.078125 49.078125 51.53125 44.71875 
Q 48 40.375 41.703125 38.8125 
Q 48.828125 37.15625 52.796875 32.3125 
Q 56.78125 27.484375 56.78125 20.515625 
Q 56.78125 9.90625 50.3125 4.234375 
Q 43.84375 -1.421875 31.78125 -1.421875 
Q 19.734375 -1.421875 13.25 4.234375 
Q 6.78125 9.90625 6.78125 20.515625 
Q 6.78125 27.484375 10.78125 32.3125 
Q 14.796875 37.15625 21.921875 38.8125 
z
M 18.3125 54.390625 
Q 18.3125 48.734375 21.84375 45.5625 
Q 25.390625 42.390625 31.78125 42.390625 
Q 38.140625 42.390625 41.71875 45.5625 
Q 45.3125 48.734375 45.3125 54.390625 
Q 45.3125 60.0625 41.71875 63.234375 
Q 38.140625 66.40625 31.78125 66.40625 
Q 25.390625 66.40625 21.84375 63.234375 
Q 18.3125 60.0625 18.3125 54.390625 
z
" id="DejaVuSans-38"/>
      </defs>
      <g transform="translate(411.216269 313.476875)scale(0.2 -0.2)">
       <use xlink:href="#DejaVuSans-38"/>
      </g>
     </g>
    </g>
    <g id="text_5">
     <!-- log10 of Df -->
     <defs>
      <path d="M 9.421875 75.984375 
L 18.40625 75.984375 
L 18.40625 0 
L 9.421875 0 
z
" id="DejaVuSans-6c"/>
      <path d="M 30.609375 48.390625 
Q 23.390625 48.390625 19.1875 42.75 
Q 14.984375 37.109375 14.984375 27.296875 
Q 14.984375 17.484375 19.15625 11.84375 
Q 23.34375 6.203125 30.609375 6.203125 
Q 37.796875 6.203125 41.984375 11.859375 
Q 46.1875 17.53125 46.1875 27.296875 
Q 46.1875 37.015625 41.984375 42.703125 
Q 37.796875 48.390625 30.609375 48.390625 
z
M 30.609375 56 
Q 42.328125 56 49.015625 48.375 
Q 55.71875 40.765625 55.71875 27.296875 
Q 55.71875 13.875 49.015625 6.21875 
Q 42.328125 -1.421875 30.609375 -1.421875 
Q 18.84375 -1.421875 12.171875 6.21875 
Q 5.515625 13.875 5.515625 27.296875 
Q 5.515625 40.765625 12.171875 48.375 
Q 18.84375 56 30.609375 56 
z
" id="DejaVuSans-6f"/>
      <path d="M 45.40625 27.984375 
Q 45.40625 37.75 41.375 43.109375 
Q 37.359375 48.484375 30.078125 48.484375 
Q 22.859375 48.484375 18.828125 43.109375 
Q 14.796875 37.75 14.796875 27.984375 
Q 14.796875 18.265625 18.828125 12.890625 
Q 22.859375 7.515625 30.078125 7.515625 
Q 37.359375 7.515625 41.375 12.890625 
Q 45.40625 18.265625 45.40625 27.984375 
z
M 54.390625 6.78125 
Q 54.390625 -7.171875 48.1875 -13.984375 
Q 42 -20.796875 29.203125 -20.796875 
Q 24.46875 -20.796875 20.265625 -20.09375 
Q 16.0625 -19.390625 12.109375 -17.921875 
L 12.109375 -9.1875 
Q 16.0625 -11.328125 19.921875 -12.34375 
Q 23.78125 -13.375 27.78125 -13.375 
Q 36.625 -13.375 41.015625 -8.765625 
Q 45.40625 -4.15625 45.40625 5.171875 
L 45.40625 9.625 
Q 42.625 4.78125 38.28125 2.390625 
Q 33.9375 0 27.875 0 
Q 17.828125 0 11.671875 7.65625 
Q 5.515625 15.328125 5.515625 27.984375 
Q 5.515625 40.671875 11.671875 48.328125 
Q 17.828125 56 27.875 56 
Q 33.9375 56 38.28125 53.609375 
Q 42.625 51.21875 45.40625 46.390625 
L 45.40625 54.6875 
L 54.390625 54.6875 
z
" id="DejaVuSans-67"/>
      <path d="M 12.40625 8.296875 
L 28.515625 8.296875 
L 28.515625 63.921875 
L 10.984375 60.40625 
L 10.984375 69.390625 
L 28.421875 72.90625 
L 38.28125 72.90625 
L 38.28125 8.296875 
L 54.390625 8.296875 
L 54.390625 0 
L 12.40625 0 
z
" id="DejaVuSans-31"/>
      <path id="DejaVuSans-20"/>
      <path d="M 37.109375 75.984375 
L 37.109375 68.5 
L 28.515625 68.5 
Q 23.6875 68.5 21.796875 66.546875 
Q 19.921875 64.59375 19.921875 59.515625 
L 19.921875 54.6875 
L 34.71875 54.6875 
L 34.71875 47.703125 
L 19.921875 47.703125 
L 19.921875 0 
L 10.890625 0 
L 10.890625 47.703125 
L 2.296875 47.703125 
L 2.296875 54.6875 
L 10.890625 54.6875 
L 10.890625 58.5 
Q 10.890625 67.625 15.140625 71.796875 
Q 19.390625 75.984375 28.609375 75.984375 
z
" id="DejaVuSans-66"/>
      <path d="M 19.671875 64.796875 
L 19.671875 8.109375 
L 31.59375 8.109375 
Q 46.6875 8.109375 53.6875 14.9375 
Q 60.6875 21.78125 60.6875 36.53125 
Q 60.6875 51.171875 53.6875 57.984375 
Q 46.6875 64.796875 31.59375 64.796875 
z
M 9.8125 72.90625 
L 30.078125 72.90625 
Q 51.265625 72.90625 61.171875 64.09375 
Q 71.09375 55.28125 71.09375 36.53125 
Q 71.09375 17.671875 61.125 8.828125 
Q 51.171875 0 30.078125 0 
L 9.8125 0 
z
" id="DejaVuSans-44"/>
     </defs>
     <g transform="translate(172.910063 336.833125)scale(0.2 -0.2)">
      <use xlink:href="#DejaVuSans-6c"/>
      <use x="27.783203" xlink:href="#DejaVuSans-6f"/>
      <use x="88.964844" xlink:href="#DejaVuSans-67"/>
      <use x="152.441406" xlink:href="#DejaVuSans-31"/>
      <use x="216.064453" xlink:href="#DejaVuSans-30"/>
      <use x="279.6875" xlink:href="#DejaVuSans-20"/>
      <use x="311.474609" xlink:href="#DejaVuSans-6f"/>
      <use x="372.65625" xlink:href="#DejaVuSans-66"/>
      <use x="407.861328" xlink:href="#DejaVuSans-20"/>
      <use x="439.648438" xlink:href="#DejaVuSans-44"/>
      <use x="516.650391" xlink:href="#DejaVuSans-66"/>
     </g>
    </g>
   </g>
   <g id="matplotlib.axis_2">
    <g id="ytick_1">
     <g id="line2d_11">
      <path clip-path="url(#pbaa67832ab)" d="M 5.52 291.28 
L 450.672 291.28 
" style="fill:none;stroke:#b0b0b0;stroke-linecap:square;stroke-width:0.8;"/>
     </g>
     <g id="line2d_12">
      <defs>
       <path d="M 0 0 
L -3.5 0 
" id="m71cadc2fc9" style="stroke:#000000;stroke-width:0.8;"/>
      </defs>
      <g>
       <use style="stroke:#000000;stroke-width:0.8;" x="5.52" xlink:href="#m71cadc2fc9" y="291.28"/>
      </g>
     </g>
    </g>
    <g id="ytick_2">
     <g id="line2d_13">
      <path clip-path="url(#pbaa67832ab)" d="M 5.52 234.693861 
L 450.672 234.693861 
" style="fill:none;stroke:#b0b0b0;stroke-linecap:square;stroke-width:0.8;"/>
     </g>
     <g id="line2d_14">
      <g>
       <use style="stroke:#000000;stroke-width:0.8;" x="5.52" xlink:href="#m71cadc2fc9" y="234.693861"/>
      </g>
     </g>
    </g>
    <g id="ytick_3">
     <g id="line2d_15">
      <path clip-path="url(#pbaa67832ab)" d="M 5.52 178.107723 
L 450.672 178.107723 
" style="fill:none;stroke:#b0b0b0;stroke-linecap:square;stroke-width:0.8;"/>
     </g>
     <g id="line2d_16">
      <g>
       <use style="stroke:#000000;stroke-width:0.8;" x="5.52" xlink:href="#m71cadc2fc9" y="178.107723"/>
      </g>
     </g>
    </g>
    <g id="ytick_4">
     <g id="line2d_17">
      <path clip-path="url(#pbaa67832ab)" d="M 5.52 121.521584 
L 450.672 121.521584 
" style="fill:none;stroke:#b0b0b0;stroke-linecap:square;stroke-width:0.8;"/>
     </g>
     <g id="line2d_18">
      <g>
       <use style="stroke:#000000;stroke-width:0.8;" x="5.52" xlink:href="#m71cadc2fc9" y="121.521584"/>
      </g>
     </g>
    </g>
    <g id="ytick_5">
     <g id="line2d_19">
      <path clip-path="url(#pbaa67832ab)" d="M 5.52 64.935446 
L 450.672 64.935446 
" style="fill:none;stroke:#b0b0b0;stroke-linecap:square;stroke-width:0.8;"/>
     </g>
     <g id="line2d_20">
      <g>
       <use style="stroke:#000000;stroke-width:0.8;" x="5.52" xlink:href="#m71cadc2fc9" y="64.935446"/>
      </g>
     </g>
    </g>
    <g id="ytick_6">
     <g id="line2d_21">
      <path clip-path="url(#pbaa67832ab)" d="M 5.52 8.349307 
L 450.672 8.349307 
" style="fill:none;stroke:#b0b0b0;stroke-linecap:square;stroke-width:0.8;"/>
     </g>
     <g id="line2d_22">
      <g>
       <use style="stroke:#000000;stroke-width:0.8;" x="5.52" xlink:href="#m71cadc2fc9" y="8.349307"/>
      </g>
     </g>
    </g>
   </g>
   <g id="line2d_23">
    <path clip-path="url(#pbaa67832ab)" d="M 187.890904 291.28 
L 187.890904 287.507591 
L 193.853546 287.507591 
L 193.853546 283.735182 
L 196.000992 283.735182 
L 196.000992 227.149043 
L 196.359704 227.149043 
L 196.359704 223.376634 
L 197.148732 223.376634 
L 197.148732 219.604224 
L 199.465947 219.604224 
L 199.487264 212.059406 
L 201.278135 212.059406 
L 201.278135 208.286997 
L 203.367404 208.286997 
L 203.445313 200.742178 
L 203.600177 200.742178 
L 203.600177 196.969769 
L 204.425208 196.969769 
L 204.425208 193.19736 
L 205.548459 193.19736 
L 205.548459 189.42495 
L 207.419673 189.42495 
L 207.419673 185.652541 
L 207.898928 185.652541 
L 207.898928 181.880132 
L 211.34317 181.880132 
L 211.34317 178.107723 
L 211.553316 178.107723 
L 211.553316 174.335314 
L 212.054018 174.335314 
L 212.054018 170.562904 
L 212.458969 170.562904 
L 212.458969 166.790495 
L 213.120179 166.790495 
L 213.120179 163.018086 
L 213.38215 163.018086 
L 213.38215 159.245677 
L 214.501756 159.245677 
L 214.501756 155.473267 
L 214.688654 155.473267 
L 214.78419 147.928449 
L 215.118176 147.928449 
L 215.118176 144.15604 
L 215.577385 144.15604 
L 215.577385 140.38363 
L 216.955764 140.38363 
L 216.955764 136.611221 
L 217.755055 136.611221 
L 217.755055 132.838812 
L 220.606405 132.838812 
L 220.606405 129.066403 
L 221.435744 129.066403 
L 221.439769 121.521584 
L 223.259605 121.521584 
L 223.346984 110.204356 
L 223.694934 110.204356 
L 223.694934 106.431947 
L 224.275089 106.431947 
L 224.275089 102.659538 
L 225.339583 102.659538 
L 225.365476 95.114719 
L 226.068176 95.114719 
L 226.068176 91.34231 
L 227.755816 91.34231 
L 227.77382 83.797492 
L 229.361341 83.797492 
L 229.361341 80.025083 
L 230.316822 80.025083 
L 230.316822 76.252673 
L 231.588757 76.252673 
L 231.588757 72.480264 
L 232.152867 72.480264 
L 232.152867 68.707855 
L 232.825232 68.707855 
L 232.825232 64.935446 
L 235.091497 64.935446 
L 235.091497 61.163036 
L 235.337958 61.163036 
L 235.337958 57.390627 
L 235.575717 57.390627 
L 235.575717 53.618218 
L 235.96071 53.618218 
L 235.96071 49.845809 
L 236.153268 49.845809 
L 236.153268 46.073399 
L 238.555658 46.073399 
L 238.555658 42.30099 
L 240.44238 42.30099 
L 240.44238 38.528581 
L 241.929215 38.528581 
L 241.929215 34.756172 
L 242.955872 34.756172 
L 242.955872 30.983762 
L 243.875319 30.983762 
L 243.875319 27.211353 
L 245.027922 27.211353 
L 245.027922 23.438944 
L 246.767853 23.438944 
L 246.876849 15.894125 
L 247.183326 15.894125 
L 247.183326 12.121716 
L 248.812553 12.121716 
L 248.812553 8.349307 
L 248.812553 8.349307 
L 450.672 8.349307 
L 450.672 8.349307 
" style="fill:none;stroke:#ff0000;stroke-linecap:square;stroke-width:3;"/>
   </g>
   <g id="line2d_24">
    <path clip-path="url(#pbaa67832ab)" d="M 196.000992 291.28 
L 196.000992 234.693861 
L 233.092267 234.693861 
L 233.092267 230.921452 
L 234.116243 230.921452 
L 234.116243 227.149043 
L 234.986604 227.149043 
L 234.986604 223.376634 
L 236.890086 223.376634 
L 236.890086 219.604224 
L 239.123502 219.604224 
L 239.123502 215.831815 
L 239.797905 215.831815 
L 239.797905 212.059406 
L 242.728773 212.059406 
L 242.824134 204.514587 
L 243.117595 204.514587 
L 243.117595 200.742178 
L 244.33522 200.742178 
L 244.34527 193.19736 
L 247.501166 193.19736 
L 247.501166 189.42495 
L 247.838463 189.42495 
L 247.838463 185.652541 
L 248.236165 185.652541 
L 248.236165 181.880132 
L 249.21567 181.880132 
L 249.21567 178.107723 
L 250.052385 178.107723 
L 250.159076 170.562904 
L 251.078741 170.562904 
L 251.078741 166.790495 
L 251.371008 166.790495 
L 251.371008 163.018086 
L 251.935598 163.018086 
L 251.935598 159.245677 
L 252.327257 159.245677 
L 252.410636 151.700858 
L 252.636075 151.700858 
L 252.636075 147.928449 
L 252.793687 147.928449 
L 252.802682 140.38363 
L 253.166829 140.38363 
L 253.166829 136.611221 
L 254.136638 136.611221 
L 254.136638 132.838812 
L 254.641042 132.838812 
L 254.641042 129.066403 
L 254.90404 129.066403 
L 254.90404 125.293993 
L 256.635363 125.293993 
L 256.635363 121.521584 
L 257.096835 121.521584 
L 257.096835 117.749175 
L 259.229858 117.749175 
L 259.309318 110.204356 
L 260.089461 110.204356 
L 260.089461 106.431947 
L 260.479231 106.431947 
L 260.479231 102.659538 
L 261.393411 102.659538 
L 261.393411 98.887129 
L 261.576459 98.887129 
L 261.646193 91.34231 
L 262.614224 91.34231 
L 262.614224 87.569901 
L 263.074669 87.569901 
L 263.074669 83.797492 
L 263.358775 83.797492 
L 263.358775 80.025083 
L 263.588392 80.025083 
L 263.588392 76.252673 
L 264.848165 76.252673 
L 264.848165 72.480264 
L 265.107527 72.480264 
L 265.107527 68.707855 
L 266.029874 68.707855 
L 266.127789 61.163036 
L 266.622434 61.163036 
L 266.622434 57.390627 
L 266.949217 57.390627 
L 267.05144 49.845809 
L 267.223737 49.845809 
L 267.223737 46.073399 
L 267.56355 46.073399 
L 267.634153 38.528581 
L 267.703217 38.528581 
L 267.703217 34.756172 
L 268.413871 34.756172 
L 268.413871 30.983762 
L 268.853981 30.983762 
L 268.853981 27.211353 
L 269.028037 27.211353 
L 269.028037 23.438944 
L 269.294412 23.438944 
L 269.294412 19.666535 
L 270.210757 19.666535 
L 270.210757 15.894125 
L 276.699004 15.894125 
L 276.699004 12.121716 
L 279.131422 12.121716 
L 279.131422 8.349307 
L 279.131422 8.349307 
L 450.672 8.349307 
L 450.672 8.349307 
" style="fill:none;stroke:#00bfbf;stroke-linecap:square;stroke-width:1.5;"/>
   </g>
   <g id="line2d_25">
    <path clip-path="url(#pbaa67832ab)" d="M 196.000992 291.28 
L 196.000992 234.693861 
L 229.011012 234.693861 
L 229.011012 230.921452 
L 232.185387 230.921452 
L 232.185387 227.149043 
L 234.986604 227.149043 
L 234.986604 223.376634 
L 236.890086 223.376634 
L 236.890086 219.604224 
L 238.864678 219.604224 
L 238.864678 215.831815 
L 239.123502 215.831815 
L 239.217552 204.514587 
L 239.797905 204.514587 
L 239.797905 200.742178 
L 240.272262 200.742178 
L 240.272262 196.969769 
L 240.535322 196.969769 
L 240.535322 193.19736 
L 242.685214 193.19736 
L 242.685214 189.42495 
L 243.382412 189.42495 
L 243.382412 185.652541 
L 244.33522 185.652541 
L 244.34527 178.107723 
L 245.774912 178.107723 
L 245.774912 174.335314 
L 246.404549 174.335314 
L 246.404549 170.562904 
L 247.838463 170.562904 
L 247.838463 166.790495 
L 249.21567 166.790495 
L 249.21567 163.018086 
L 250.052385 163.018086 
L 250.159076 155.473267 
L 250.45423 155.473267 
L 250.45423 151.700858 
L 250.617797 151.700858 
L 250.617797 147.928449 
L 250.833478 147.928449 
L 250.833478 144.15604 
L 251.063351 144.15604 
L 251.104407 132.838812 
L 251.371008 132.838812 
L 251.371008 129.066403 
L 251.48897 129.066403 
L 251.48897 125.293993 
L 251.616191 125.293993 
L 251.616191 121.521584 
L 252.327257 121.521584 
L 252.410636 113.976766 
L 252.636075 113.976766 
L 252.636075 110.204356 
L 252.793687 110.204356 
L 252.802682 102.659538 
L 253.166829 102.659538 
L 253.166829 98.887129 
L 254.136638 98.887129 
L 254.136638 95.114719 
L 254.30296 95.114719 
L 254.30296 91.34231 
L 254.641042 91.34231 
L 254.641042 87.569901 
L 256.492384 87.569901 
L 256.492384 83.797492 
L 256.635363 83.797492 
L 256.635363 80.025083 
L 257.796136 80.025083 
L 257.822929 72.480264 
L 258.356398 72.480264 
L 258.356398 68.707855 
L 258.647354 68.707855 
L 258.647354 64.935446 
L 260.089461 64.935446 
L 260.089461 61.163036 
L 261.576459 61.163036 
L 261.646193 53.618218 
L 264.147658 53.618218 
L 264.147658 49.845809 
L 264.848165 49.845809 
L 264.848165 46.073399 
L 265.243841 46.073399 
L 265.243841 42.30099 
L 265.639799 42.30099 
L 265.639799 38.528581 
L 266.061122 38.528581 
L 266.127789 30.983762 
L 266.686273 30.983762 
L 266.686273 27.211353 
L 266.812526 27.211353 
L 266.812526 23.438944 
L 267.05144 23.438944 
L 267.05144 19.666535 
L 267.634153 19.666535 
L 267.634153 15.894125 
L 274.071365 15.894125 
L 274.071365 12.121716 
L 279.131422 12.121716 
L 279.131422 8.349307 
L 279.131422 8.349307 
L 450.672 8.349307 
L 450.672 8.349307 
" style="fill:none;stroke:#bf00bf;stroke-linecap:square;stroke-width:1.5;"/>
   </g>
   <g id="line2d_26">
    <path clip-path="url(#pbaa67832ab)" d="M 196.000992 291.28 
L 196.000992 234.693861 
L 224.219938 234.693861 
L 224.219938 230.921452 
L 229.011012 230.921452 
L 229.011012 227.149043 
L 232.185387 227.149043 
L 232.185387 223.376634 
L 232.897782 223.376634 
L 232.897782 219.604224 
L 234.322409 219.604224 
L 234.322409 215.831815 
L 234.579213 215.831815 
L 234.579213 212.059406 
L 234.986604 212.059406 
L 234.986604 208.286997 
L 236.579045 208.286997 
L 236.579045 204.514587 
L 237.299641 204.514587 
L 237.299641 200.742178 
L 238.854807 200.742178 
L 238.864678 193.19736 
L 239.206467 193.19736 
L 239.206467 189.42495 
L 239.797905 189.42495 
L 239.797905 185.652541 
L 240.272262 185.652541 
L 240.272262 181.880132 
L 240.535322 181.880132 
L 240.535322 178.107723 
L 242.601876 178.107723 
L 242.601876 174.335314 
L 243.813865 174.335314 
L 243.813865 170.562904 
L 244.34527 170.562904 
L 244.446842 163.018086 
L 245.524868 163.018086 
L 245.524868 159.245677 
L 245.774912 159.245677 
L 245.774912 155.473267 
L 246.404549 155.473267 
L 246.404549 151.700858 
L 247.435786 151.700858 
L 247.435786 147.928449 
L 247.838463 147.928449 
L 247.838463 144.15604 
L 249.21567 144.15604 
L 249.21567 140.38363 
L 249.9625 140.38363 
L 249.991145 132.838812 
L 250.302239 132.838812 
L 250.302239 129.066403 
L 250.45423 129.066403 
L 250.549738 121.521584 
L 250.833478 121.521584 
L 250.853197 113.976766 
L 251.013294 113.976766 
L 251.104407 102.659538 
L 251.371008 102.659538 
L 251.371008 98.887129 
L 251.48897 98.887129 
L 251.48897 95.114719 
L 251.744324 95.114719 
L 251.744324 91.34231 
L 252.327257 91.34231 
L 252.327257 87.569901 
L 252.636075 87.569901 
L 252.636075 83.797492 
L 253.238371 83.797492 
L 253.320465 76.252673 
L 254.136638 76.252673 
L 254.136638 72.480264 
L 254.641042 72.480264 
L 254.641042 68.707855 
L 256.635363 68.707855 
L 256.635363 64.935446 
L 257.796136 64.935446 
L 257.796136 61.163036 
L 258.5275 61.163036 
L 258.5275 57.390627 
L 259.864858 57.390627 
L 259.864858 53.618218 
L 260.089461 53.618218 
L 260.089461 49.845809 
L 261.576459 49.845809 
L 261.576459 46.073399 
L 263.150882 46.073399 
L 263.150882 42.30099 
L 263.271882 42.30099 
L 263.271882 38.528581 
L 264.848165 38.528581 
L 264.900502 30.983762 
L 265.243841 30.983762 
L 265.243841 27.211353 
L 265.639799 27.211353 
L 265.639799 23.438944 
L 266.127789 23.438944 
L 266.127789 19.666535 
L 266.686273 19.666535 
L 266.686273 15.894125 
L 267.634153 15.894125 
L 267.634153 12.121716 
L 272.075791 12.121716 
L 272.075791 8.349307 
L 272.075791 8.349307 
L 450.672 8.349307 
L 450.672 8.349307 
" style="fill:none;stroke:#000000;stroke-linecap:square;stroke-width:1.5;"/>
   </g>
   <g id="line2d_27">
    <path clip-path="url(#pbaa67832ab)" d="M 196.000992 291.28 
L 196.000992 234.693861 
L 218.368701 234.693861 
L 218.368701 230.921452 
L 223.284032 230.921452 
L 223.284032 227.149043 
L 224.219938 227.149043 
L 224.329194 219.604224 
L 227.23213 219.604224 
L 227.23213 215.831815 
L 229.011012 215.831815 
L 229.011012 212.059406 
L 231.14068 212.059406 
L 231.14068 208.286997 
L 232.739004 208.286997 
L 232.745688 200.742178 
L 233.145074 200.742178 
L 233.145074 196.969769 
L 234.514892 196.969769 
L 234.579213 189.42495 
L 234.627297 189.42495 
L 234.627297 185.652541 
L 235.358267 185.652541 
L 235.358267 181.880132 
L 235.559792 181.880132 
L 235.559792 178.107723 
L 236.643476 178.107723 
L 236.643476 174.335314 
L 237.19147 174.335314 
L 237.299641 166.790495 
L 238.55853 166.790495 
L 238.55853 163.018086 
L 238.864678 163.018086 
L 238.864678 159.245677 
L 240.781805 159.245677 
L 240.781805 155.473267 
L 240.928699 155.473267 
L 240.928699 151.700858 
L 242.852636 151.700858 
L 242.852636 147.928449 
L 243.131765 147.928449 
L 243.192526 140.38363 
L 243.813865 140.38363 
L 243.913732 132.838812 
L 244.223791 132.838812 
L 244.223791 129.066403 
L 245.524868 129.066403 
L 245.524868 125.293993 
L 245.774912 125.293993 
L 245.774912 121.521584 
L 246.381375 121.521584 
L 246.404549 113.976766 
L 246.98906 113.976766 
L 246.98906 110.204356 
L 247.223294 110.204356 
L 247.223294 106.431947 
L 247.838463 106.431947 
L 247.838463 102.659538 
L 248.07447 102.659538 
L 248.07447 98.887129 
L 248.412803 98.887129 
L 248.412803 95.114719 
L 248.76841 95.114719 
L 248.76841 91.34231 
L 249.278 91.34231 
L 249.278 87.569901 
L 249.709277 87.569901 
L 249.709277 83.797492 
L 250.302239 83.797492 
L 250.302239 80.025083 
L 251.371008 80.025083 
L 251.384392 72.480264 
L 252.636075 72.480264 
L 252.636075 68.707855 
L 256.348296 68.707855 
L 256.348296 64.935446 
L 256.635363 64.935446 
L 256.635363 61.163036 
L 257.481974 61.163036 
L 257.481974 57.390627 
L 257.796136 57.390627 
L 257.796136 53.618218 
L 258.107711 53.618218 
L 258.107711 49.845809 
L 258.5275 49.845809 
L 258.611419 42.30099 
L 259.864858 42.30099 
L 259.864858 38.528581 
L 260.089461 38.528581 
L 260.089461 34.756172 
L 260.408965 34.756172 
L 260.408965 30.983762 
L 261.039772 30.983762 
L 261.039772 27.211353 
L 261.285878 27.211353 
L 261.285878 23.438944 
L 262.707589 23.438944 
L 262.707589 19.666535 
L 262.96416 19.666535 
L 262.96416 15.894125 
L 264.900502 15.894125 
L 264.900502 12.121716 
L 267.634153 12.121716 
L 267.634153 8.349307 
L 267.634153 8.349307 
L 450.672 8.349307 
L 450.672 8.349307 
" style="fill:none;stroke:#00bfbf;stroke-linecap:square;stroke-width:1.5;"/>
   </g>
   <g id="line2d_28">
    <path clip-path="url(#pbaa67832ab)" d="M 196.000992 291.28 
L 196.000992 234.693861 
L 210.441704 234.693861 
L 210.441704 230.921452 
L 213.906631 230.921452 
L 213.906631 227.149043 
L 217.393158 227.149043 
L 217.393158 223.376634 
L 220.656803 223.376634 
L 220.656803 219.604224 
L 220.902734 219.604224 
L 220.96421 212.059406 
L 222.878805 212.059406 
L 222.878805 208.286997 
L 223.121736 208.286997 
L 223.121736 204.514587 
L 223.704709 204.514587 
L 223.704709 200.742178 
L 224.329194 200.742178 
L 224.329194 196.969769 
L 225.26543 196.969769 
L 225.26543 193.19736 
L 225.53068 193.19736 
L 225.53068 189.42495 
L 226.163423 189.42495 
L 226.252699 181.880132 
L 226.603977 181.880132 
L 226.603977 178.107723 
L 226.903643 178.107723 
L 226.931824 170.562904 
L 230.361169 170.562904 
L 230.361169 166.790495 
L 230.516674 166.790495 
L 230.516674 163.018086 
L 231.372058 163.018086 
L 231.372058 159.245677 
L 232.47882 159.245677 
L 232.47882 155.473267 
L 233.959962 155.473267 
L 233.959962 151.700858 
L 234.514733 151.700858 
L 234.603977 144.15604 
L 235.915843 144.15604 
L 235.915843 140.38363 
L 236.32079 140.38363 
L 236.32079 136.611221 
L 236.643476 136.611221 
L 236.675023 129.066403 
L 237.765264 129.066403 
L 237.765264 125.293993 
L 238.55853 125.293993 
L 238.55853 121.521584 
L 238.683628 121.521584 
L 238.776428 113.976766 
L 238.849262 113.976766 
L 238.849262 110.204356 
L 239.190208 110.204356 
L 239.190208 106.431947 
L 240.376118 106.431947 
L 240.376118 102.659538 
L 240.723364 102.659538 
L 240.723364 98.887129 
L 240.87302 98.887129 
L 240.87302 95.114719 
L 241.153399 95.114719 
L 241.153399 91.34231 
L 241.801945 91.34231 
L 241.889717 80.025083 
L 243.415777 80.025083 
L 243.415777 76.252673 
L 243.951162 76.252673 
L 243.951162 72.480264 
L 245.818511 72.480264 
L 245.818511 68.707855 
L 246.125853 68.707855 
L 246.125853 64.935446 
L 247.319855 64.935446 
L 247.319855 61.163036 
L 251.388553 61.163036 
L 251.388553 57.390627 
L 251.818012 57.390627 
L 251.818012 53.618218 
L 252.400195 53.618218 
L 252.400195 49.845809 
L 252.536345 49.845809 
L 252.536345 46.073399 
L 253.025164 46.073399 
L 253.025164 42.30099 
L 253.468872 42.30099 
L 253.468872 38.528581 
L 253.957991 38.528581 
L 253.957991 34.756172 
L 254.326435 34.756172 
L 254.419068 27.211353 
L 255.358064 27.211353 
L 255.358064 23.438944 
L 255.920795 23.438944 
L 255.920795 19.666535 
L 256.105805 19.666535 
L 256.105805 15.894125 
L 256.405568 15.894125 
L 256.405568 12.121716 
L 256.790794 12.121716 
L 256.790794 8.349307 
L 256.790794 8.349307 
L 450.672 8.349307 
L 450.672 8.349307 
" style="fill:none;stroke:#bf00bf;stroke-linecap:square;stroke-width:1.5;"/>
   </g>
   <g id="line2d_29">
    <path clip-path="url(#pbaa67832ab)" d="M 196.000992 291.28 
L 196.000992 234.693861 
L 199.487264 234.693861 
L 199.487264 230.921452 
L 199.663478 230.921452 
L 199.663478 227.149043 
L 202.702874 227.149043 
L 202.702874 223.376634 
L 203.733584 223.376634 
L 203.733584 219.604224 
L 204.425208 219.604224 
L 204.426543 212.059406 
L 205.548459 212.059406 
L 205.548459 208.286997 
L 205.892946 208.286997 
L 205.892946 204.514587 
L 206.140444 204.514587 
L 206.140444 200.742178 
L 206.91106 200.742178 
L 206.91106 196.969769 
L 207.68679 196.969769 
L 207.68679 193.19736 
L 209.609737 193.19736 
L 209.609737 189.42495 
L 212.056195 189.42495 
L 212.056195 185.652541 
L 212.507094 185.652541 
L 212.507094 181.880132 
L 213.511873 181.880132 
L 213.511873 178.107723 
L 213.980642 178.107723 
L 213.980642 174.335314 
L 214.539237 174.335314 
L 214.539237 170.562904 
L 214.810729 170.562904 
L 214.810729 166.790495 
L 216.570592 166.790495 
L 216.570592 163.018086 
L 216.825878 163.018086 
L 216.825878 159.245677 
L 216.955764 159.245677 
L 216.955764 155.473267 
L 217.854746 155.473267 
L 217.854746 151.700858 
L 218.411464 151.700858 
L 218.411464 147.928449 
L 219.149913 147.928449 
L 219.149913 144.15604 
L 219.480803 144.15604 
L 219.480803 140.38363 
L 221.797936 140.38363 
L 221.797936 136.611221 
L 223.251259 136.611221 
L 223.346984 129.066403 
L 225.100275 129.066403 
L 225.100275 125.293993 
L 225.365476 125.293993 
L 225.365476 121.521584 
L 225.884554 121.521584 
L 225.884554 117.749175 
L 226.068176 117.749175 
L 226.085846 110.204356 
L 226.317068 110.204356 
L 226.317068 106.431947 
L 226.777485 106.431947 
L 226.777485 102.659538 
L 227.1992 102.659538 
L 227.1992 98.887129 
L 227.755816 98.887129 
L 227.755816 95.114719 
L 227.908789 95.114719 
L 227.908789 91.34231 
L 228.117005 91.34231 
L 228.117005 87.569901 
L 229.714292 87.569901 
L 229.714292 83.797492 
L 230.09997 83.797492 
L 230.09997 80.025083 
L 232.825232 80.025083 
L 232.825232 76.252673 
L 234.514733 76.252673 
L 234.514733 72.480264 
L 235.091497 72.480264 
L 235.091497 68.707855 
L 235.575717 68.707855 
L 235.575717 64.935446 
L 236.029659 64.935446 
L 236.029659 61.163036 
L 236.153268 61.163036 
L 236.153268 57.390627 
L 243.016477 57.390627 
L 243.016477 53.618218 
L 244.105143 53.618218 
L 244.105143 49.845809 
L 244.751347 49.845809 
L 244.751347 46.073399 
L 245.080631 46.073399 
L 245.080631 42.30099 
L 245.449525 42.30099 
L 245.449525 38.528581 
L 245.720331 38.528581 
L 245.720331 34.756172 
L 245.982759 34.756172 
L 245.982759 30.983762 
L 246.876849 30.983762 
L 246.943818 23.438944 
L 247.474073 23.438944 
L 247.474073 19.666535 
L 248.973366 19.666535 
L 248.973366 15.894125 
L 249.916759 15.894125 
L 249.916759 12.121716 
L 252.116737 12.121716 
L 252.116737 8.349307 
L 252.116737 8.349307 
L 450.672 8.349307 
L 450.672 8.349307 
" style="fill:none;stroke:#000000;stroke-linecap:square;stroke-width:1.5;"/>
   </g>
   <g id="patch_3">
    <path d="M 5.52 291.28 
L 5.52 5.52 
" style="fill:none;stroke:#000000;stroke-linecap:square;stroke-linejoin:miter;stroke-width:0.8;"/>
   </g>
   <g id="patch_4">
    <path d="M 450.672 291.28 
L 450.672 5.52 
" style="fill:none;stroke:#000000;stroke-linecap:square;stroke-linejoin:miter;stroke-width:0.8;"/>
   </g>
   <g id="patch_5">
    <path d="M 5.52 291.28 
L 450.672 291.28 
" style="fill:none;stroke:#000000;stroke-linecap:square;stroke-linejoin:miter;stroke-width:0.8;"/>
   </g>
   <g id="patch_6">
    <path d="M 5.52 5.52 
L 450.672 5.52 
" style="fill:none;stroke:#000000;stroke-linecap:square;stroke-linejoin:miter;stroke-width:0.8;"/>
   </g>
   <g id="text_6">
    <!-- {f15-f19}, 5-D -->
    <defs>
     <path d="M 51.125 -9.28125 
L 51.125 -16.3125 
L 48.09375 -16.3125 
Q 35.9375 -16.3125 31.8125 -12.6875 
Q 27.6875 -9.078125 27.6875 1.703125 
L 27.6875 13.375 
Q 27.6875 20.75 25.046875 23.578125 
Q 22.40625 26.421875 15.484375 26.421875 
L 12.5 26.421875 
L 12.5 33.40625 
L 15.484375 33.40625 
Q 22.46875 33.40625 25.078125 36.203125 
Q 27.6875 39.015625 27.6875 46.296875 
L 27.6875 58.015625 
Q 27.6875 68.796875 31.8125 72.390625 
Q 35.9375 75.984375 48.09375 75.984375 
L 51.125 75.984375 
L 51.125 69 
L 47.796875 69 
Q 40.921875 69 38.8125 66.84375 
Q 36.71875 64.703125 36.71875 57.8125 
L 36.71875 45.703125 
Q 36.71875 38.03125 34.5 34.5625 
Q 32.28125 31.109375 26.90625 29.890625 
Q 32.328125 28.5625 34.515625 25.09375 
Q 36.71875 21.625 36.71875 14.015625 
L 36.71875 1.90625 
Q 36.71875 -4.984375 38.8125 -7.125 
Q 40.921875 -9.28125 47.796875 -9.28125 
z
" id="DejaVuSans-7b"/>
     <path d="M 10.796875 72.90625 
L 49.515625 72.90625 
L 49.515625 64.59375 
L 19.828125 64.59375 
L 19.828125 46.734375 
Q 21.96875 47.46875 24.109375 47.828125 
Q 26.265625 48.1875 28.421875 48.1875 
Q 40.625 48.1875 47.75 41.5 
Q 54.890625 34.8125 54.890625 23.390625 
Q 54.890625 11.625 47.5625 5.09375 
Q 40.234375 -1.421875 26.90625 -1.421875 
Q 22.3125 -1.421875 17.546875 -0.640625 
Q 12.796875 0.140625 7.71875 1.703125 
L 7.71875 11.625 
Q 12.109375 9.234375 16.796875 8.0625 
Q 21.484375 6.890625 26.703125 6.890625 
Q 35.15625 6.890625 40.078125 11.328125 
Q 45.015625 15.765625 45.015625 23.390625 
Q 45.015625 31 40.078125 35.4375 
Q 35.15625 39.890625 26.703125 39.890625 
Q 22.75 39.890625 18.8125 39.015625 
Q 14.890625 38.140625 10.796875 36.28125 
z
" id="DejaVuSans-35"/>
     <path d="M 10.984375 1.515625 
L 10.984375 10.5 
Q 14.703125 8.734375 18.5 7.8125 
Q 22.3125 6.890625 25.984375 6.890625 
Q 35.75 6.890625 40.890625 13.453125 
Q 46.046875 20.015625 46.78125 33.40625 
Q 43.953125 29.203125 39.59375 26.953125 
Q 35.25 24.703125 29.984375 24.703125 
Q 19.046875 24.703125 12.671875 31.3125 
Q 6.296875 37.9375 6.296875 49.421875 
Q 6.296875 60.640625 12.9375 67.421875 
Q 19.578125 74.21875 30.609375 74.21875 
Q 43.265625 74.21875 49.921875 64.515625 
Q 56.59375 54.828125 56.59375 36.375 
Q 56.59375 19.140625 48.40625 8.859375 
Q 40.234375 -1.421875 26.421875 -1.421875 
Q 22.703125 -1.421875 18.890625 -0.6875 
Q 15.09375 0.046875 10.984375 1.515625 
z
M 30.609375 32.421875 
Q 37.25 32.421875 41.125 36.953125 
Q 45.015625 41.5 45.015625 49.421875 
Q 45.015625 57.28125 41.125 61.84375 
Q 37.25 66.40625 30.609375 66.40625 
Q 23.96875 66.40625 20.09375 61.84375 
Q 16.21875 57.28125 16.21875 49.421875 
Q 16.21875 41.5 20.09375 36.953125 
Q 23.96875 32.421875 30.609375 32.421875 
z
" id="DejaVuSans-39"/>
     <path d="M 12.5 -9.28125 
L 15.921875 -9.28125 
Q 22.75 -9.28125 24.828125 -7.171875 
Q 26.90625 -5.078125 26.90625 1.90625 
L 26.90625 14.015625 
Q 26.90625 21.625 29.09375 25.09375 
Q 31.296875 28.5625 36.71875 29.890625 
Q 31.296875 31.109375 29.09375 34.5625 
Q 26.90625 38.03125 26.90625 45.703125 
L 26.90625 57.8125 
Q 26.90625 64.75 24.828125 66.875 
Q 22.75 69 15.921875 69 
L 12.5 69 
L 12.5 75.984375 
L 15.578125 75.984375 
Q 27.734375 75.984375 31.8125 72.390625 
Q 35.890625 68.796875 35.890625 58.015625 
L 35.890625 46.296875 
Q 35.890625 39.015625 38.515625 36.203125 
Q 41.15625 33.40625 48.09375 33.40625 
L 51.125 33.40625 
L 51.125 26.421875 
L 48.09375 26.421875 
Q 41.15625 26.421875 38.515625 23.578125 
Q 35.890625 20.75 35.890625 13.375 
L 35.890625 1.703125 
Q 35.890625 -9.078125 31.8125 -12.6875 
Q 27.734375 -16.3125 15.578125 -16.3125 
L 12.5 -16.3125 
z
" id="DejaVuSans-7d"/>
     <path d="M 11.71875 12.40625 
L 22.015625 12.40625 
L 22.015625 4 
L 14.015625 -11.625 
L 7.71875 -11.625 
L 11.71875 4 
z
" id="DejaVuSans-2c"/>
    </defs>
    <g transform="translate(296.06896 285.5648)scale(0.2 -0.2)">
     <use xlink:href="#DejaVuSans-7b"/>
     <use x="63.623047" xlink:href="#DejaVuSans-66"/>
     <use x="98.828125" xlink:href="#DejaVuSans-31"/>
     <use x="162.451172" xlink:href="#DejaVuSans-35"/>
     <use x="226.074219" xlink:href="#DejaVuSans-2d"/>
     <use x="262.158203" xlink:href="#DejaVuSans-66"/>
     <use x="297.363281" xlink:href="#DejaVuSans-31"/>
     <use x="360.986328" xlink:href="#DejaVuSans-39"/>
     <use x="424.609375" xlink:href="#DejaVuSans-7d"/>
     <use x="488.232422" xlink:href="#DejaVuSans-2c"/>
     <use x="520.019531" xlink:href="#DejaVuSans-20"/>
     <use x="551.806641" xlink:href="#DejaVuSans-35"/>
     <use x="615.429688" xlink:href="#DejaVuSans-2d"/>
     <use x="651.513672" xlink:href="#DejaVuSans-44"/>
    </g>
   </g>
   <g id="text_7">
    <!-- v0.0.0 -->
    <defs>
     <path d="M 2.984375 54.6875 
L 12.5 54.6875 
L 29.59375 8.796875 
L 46.6875 54.6875 
L 56.203125 54.6875 
L 35.6875 0 
L 23.484375 0 
z
" id="DejaVuSans-76"/>
     <path d="M 10.6875 12.40625 
L 21 12.40625 
L 21 0 
L 10.6875 0 
z
" id="DejaVuSans-2e"/>
    </defs>
    <g style="fill:#808080;" transform="translate(212.41475 286.342713)scale(0.1 -0.1)">
     <use xlink:href="#DejaVuSans-76"/>
     <use x="59.179688" xlink:href="#DejaVuSans-30"/>
     <use x="122.802734" xlink:href="#DejaVuSans-2e"/>
     <use x="154.589844" xlink:href="#DejaVuSans-30"/>
     <use x="218.212891" xlink:href="#DejaVuSans-2e"/>
     <use x="250" xlink:href="#DejaVuSans-30"/>
    </g>
   </g>
  </g>
 </g>
 <defs>
  <clipPath id="pbaa67832ab">
   <rect height="285.76" width="445.152" x="5.52" y="5.52"/>
  </clipPath>
 </defs>
</svg>
