<?xml version="1.0" encoding="utf-8" standalone="no"?>
<!DOCTYPE svg PUBLIC "-//W3C//DTD SVG 1.1//EN"
  "http://www.w3.org/Graphics/SVG/1.1/DTD/svg11.dtd">
<!-- Created with matplotlib (http://matplotlib.org/) -->
<svg height="345.6pt" version="1.1" viewBox="0 0 460.8 345.6" width="460.8pt" xmlns="http://www.w3.org/2000/svg" xmlns:xlink="http://www.w3.org/1999/xlink">
 <defs>
  <style type="text/css">
*{stroke-linecap:butt;stroke-linejoin:round;}
  </style>
 </defs>
 <g id="figure_1">
  <g id="patch_1">
   <path d="M 0 345.6 
L 460.8 345.6 
L 460.8 0 
L 0 0 
z
" style="fill:#ffffff;"/>
  </g>
  <g id="axes_1">
   <g id="patch_2">
    <path d="M 5.52 291.28 
L 450.672 291.28 
L 450.672 5.52 
L 5.52 5.52 
z
" style="fill:#ffffff;"/>
   </g>
   <g id="matplotlib.axis_1">
    <g id="xtick_1">
     <g id="line2d_1">
      <path clip-path="url(#pdc3279bcde)" d="M 5.410598 291.28 
L 5.410598 5.52 
" style="fill:none;stroke:#b0b0b0;stroke-linecap:square;stroke-width:0.8;"/>
     </g>
     <g id="line2d_2">
      <defs>
       <path d="M 0 0 
L 0 3.5 
" id="macdb41512e" style="stroke:#000000;stroke-width:0.8;"/>
      </defs>
      <g>
       <use style="stroke:#000000;stroke-width:0.8;" x="5.410598" xlink:href="#macdb41512e" y="291.28"/>
      </g>
     </g>
    </g>
    <g id="xtick_2">
     <g id="line2d_3">
      <path clip-path="url(#pdc3279bcde)" d="M 106.676422 291.28 
L 106.676422 5.52 
" style="fill:none;stroke:#b0b0b0;stroke-linecap:square;stroke-width:0.8;"/>
     </g>
     <g id="line2d_4">
      <g>
       <use style="stroke:#000000;stroke-width:0.8;" x="106.676422" xlink:href="#macdb41512e" y="291.28"/>
      </g>
     </g>
     <g id="text_1">
      <!-- -4 -->
      <defs>
       <path d="M 4.890625 31.390625 
L 31.203125 31.390625 
L 31.203125 23.390625 
L 4.890625 23.390625 
z
" id="DejaVuSans-2d"/>
       <path d="M 37.796875 64.3125 
L 12.890625 25.390625 
L 37.796875 25.390625 
z
M 35.203125 72.90625 
L 47.609375 72.90625 
L 47.609375 25.390625 
L 58.015625 25.390625 
L 58.015625 17.1875 
L 47.609375 17.1875 
L 47.609375 0 
L 37.796875 0 
L 37.796875 17.1875 
L 4.890625 17.1875 
L 4.890625 26.703125 
z
" id="DejaVuSans-34"/>
      </defs>
      <g transform="translate(96.70611 313.476875)scale(0.2 -0.2)">
       <use xlink:href="#DejaVuSans-2d"/>
       <use x="36.083984" xlink:href="#DejaVuSans-34"/>
      </g>
     </g>
    </g>
    <g id="xtick_3">
     <g id="line2d_5">
      <path clip-path="url(#pdc3279bcde)" d="M 207.942247 291.28 
L 207.942247 5.52 
" style="fill:none;stroke:#b0b0b0;stroke-linecap:square;stroke-width:0.8;"/>
     </g>
     <g id="line2d_6">
      <g>
       <use style="stroke:#000000;stroke-width:0.8;" x="207.942247" xlink:href="#macdb41512e" y="291.28"/>
      </g>
     </g>
     <g id="text_2">
      <!-- 0 -->
      <defs>
       <path d="M 31.78125 66.40625 
Q 24.171875 66.40625 20.328125 58.90625 
Q 16.5 51.421875 16.5 36.375 
Q 16.5 21.390625 20.328125 13.890625 
Q 24.171875 6.390625 31.78125 6.390625 
Q 39.453125 6.390625 43.28125 13.890625 
Q 47.125 21.390625 47.125 36.375 
Q 47.125 51.421875 43.28125 58.90625 
Q 39.453125 66.40625 31.78125 66.40625 
z
M 31.78125 74.21875 
Q 44.046875 74.21875 50.515625 64.515625 
Q 56.984375 54.828125 56.984375 36.375 
Q 56.984375 17.96875 50.515625 8.265625 
Q 44.046875 -1.421875 31.78125 -1.421875 
Q 19.53125 -1.421875 13.0625 8.265625 
Q 6.59375 17.96875 6.59375 36.375 
Q 6.59375 54.828125 13.0625 64.515625 
Q 19.53125 74.21875 31.78125 74.21875 
z
" id="DejaVuSans-30"/>
      </defs>
      <g transform="translate(201.579747 313.476875)scale(0.2 -0.2)">
       <use xlink:href="#DejaVuSans-30"/>
      </g>
     </g>
    </g>
    <g id="xtick_4">
     <g id="line2d_7">
      <path clip-path="url(#pdc3279bcde)" d="M 309.208071 291.28 
L 309.208071 5.52 
" style="fill:none;stroke:#b0b0b0;stroke-linecap:square;stroke-width:0.8;"/>
     </g>
     <g id="line2d_8">
      <g>
       <use style="stroke:#000000;stroke-width:0.8;" x="309.208071" xlink:href="#macdb41512e" y="291.28"/>
      </g>
     </g>
     <g id="text_3">
      <!-- 4 -->
      <g transform="translate(302.845571 313.476875)scale(0.2 -0.2)">
       <use xlink:href="#DejaVuSans-34"/>
      </g>
     </g>
    </g>
    <g id="xtick_5">
     <g id="line2d_9">
      <path clip-path="url(#pdc3279bcde)" d="M 410.473895 291.28 
L 410.473895 5.52 
" style="fill:none;stroke:#b0b0b0;stroke-linecap:square;stroke-width:0.8;"/>
     </g>
     <g id="line2d_10">
      <g>
       <use style="stroke:#000000;stroke-width:0.8;" x="410.473895" xlink:href="#macdb41512e" y="291.28"/>
      </g>
     </g>
     <g id="text_4">
      <!-- 8 -->
      <defs>
       <path d="M 31.78125 34.625 
Q 24.75 34.625 20.71875 30.859375 
Q 16.703125 27.09375 16.703125 20.515625 
Q 16.703125 13.921875 20.71875 10.15625 
Q 24.75 6.390625 31.78125 6.390625 
Q 38.8125 6.390625 42.859375 10.171875 
Q 46.921875 13.96875 46.921875 20.515625 
Q 46.921875 27.09375 42.890625 30.859375 
Q 38.875 34.625 31.78125 34.625 
z
M 21.921875 38.8125 
Q 15.578125 40.375 12.03125 44.71875 
Q 8.5 49.078125 8.5 55.328125 
Q 8.5 64.0625 14.71875 69.140625 
Q 20.953125 74.21875 31.78125 74.21875 
Q 42.671875 74.21875 48.875 69.140625 
Q 55.078125 64.0625 55.078125 55.328125 
Q 55.078125 49.078125 51.53125 44.71875 
Q 48 40.375 41.703125 38.8125 
Q 48.828125 37.15625 52.796875 32.3125 
Q 56.78125 27.484375 56.78125 20.515625 
Q 56.78125 9.90625 50.3125 4.234375 
Q 43.84375 -1.421875 31.78125 -1.421875 
Q 19.734375 -1.421875 13.25 4.234375 
Q 6.78125 9.90625 6.78125 20.515625 
Q 6.78125 27.484375 10.78125 32.3125 
Q 14.796875 37.15625 21.921875 38.8125 
z
M 18.3125 54.390625 
Q 18.3125 48.734375 21.84375 45.5625 
Q 25.390625 42.390625 31.78125 42.390625 
Q 38.140625 42.390625 41.71875 45.5625 
Q 45.3125 48.734375 45.3125 54.390625 
Q 45.3125 60.0625 41.71875 63.234375 
Q 38.140625 66.40625 31.78125 66.40625 
Q 25.390625 66.40625 21.84375 63.234375 
Q 18.3125 60.0625 18.3125 54.390625 
z
" id="DejaVuSans-38"/>
      </defs>
      <g transform="translate(404.111395 313.476875)scale(0.2 -0.2)">
       <use xlink:href="#DejaVuSans-38"/>
      </g>
     </g>
    </g>
    <g id="text_5">
     <!-- log10 of Df -->
     <defs>
      <path d="M 9.421875 75.984375 
L 18.40625 75.984375 
L 18.40625 0 
L 9.421875 0 
z
" id="DejaVuSans-6c"/>
      <path d="M 30.609375 48.390625 
Q 23.390625 48.390625 19.1875 42.75 
Q 14.984375 37.109375 14.984375 27.296875 
Q 14.984375 17.484375 19.15625 11.84375 
Q 23.34375 6.203125 30.609375 6.203125 
Q 37.796875 6.203125 41.984375 11.859375 
Q 46.1875 17.53125 46.1875 27.296875 
Q 46.1875 37.015625 41.984375 42.703125 
Q 37.796875 48.390625 30.609375 48.390625 
z
M 30.609375 56 
Q 42.328125 56 49.015625 48.375 
Q 55.71875 40.765625 55.71875 27.296875 
Q 55.71875 13.875 49.015625 6.21875 
Q 42.328125 -1.421875 30.609375 -1.421875 
Q 18.84375 -1.421875 12.171875 6.21875 
Q 5.515625 13.875 5.515625 27.296875 
Q 5.515625 40.765625 12.171875 48.375 
Q 18.84375 56 30.609375 56 
z
" id="DejaVuSans-6f"/>
      <path d="M 45.40625 27.984375 
Q 45.40625 37.75 41.375 43.109375 
Q 37.359375 48.484375 30.078125 48.484375 
Q 22.859375 48.484375 18.828125 43.109375 
Q 14.796875 37.75 14.796875 27.984375 
Q 14.796875 18.265625 18.828125 12.890625 
Q 22.859375 7.515625 30.078125 7.515625 
Q 37.359375 7.515625 41.375 12.890625 
Q 45.40625 18.265625 45.40625 27.984375 
z
M 54.390625 6.78125 
Q 54.390625 -7.171875 48.1875 -13.984375 
Q 42 -20.796875 29.203125 -20.796875 
Q 24.46875 -20.796875 20.265625 -20.09375 
Q 16.0625 -19.390625 12.109375 -17.921875 
L 12.109375 -9.1875 
Q 16.0625 -11.328125 19.921875 -12.34375 
Q 23.78125 -13.375 27.78125 -13.375 
Q 36.625 -13.375 41.015625 -8.765625 
Q 45.40625 -4.15625 45.40625 5.171875 
L 45.40625 9.625 
Q 42.625 4.78125 38.28125 2.390625 
Q 33.9375 0 27.875 0 
Q 17.828125 0 11.671875 7.65625 
Q 5.515625 15.328125 5.515625 27.984375 
Q 5.515625 40.671875 11.671875 48.328125 
Q 17.828125 56 27.875 56 
Q 33.9375 56 38.28125 53.609375 
Q 42.625 51.21875 45.40625 46.390625 
L 45.40625 54.6875 
L 54.390625 54.6875 
z
" id="DejaVuSans-67"/>
      <path d="M 12.40625 8.296875 
L 28.515625 8.296875 
L 28.515625 63.921875 
L 10.984375 60.40625 
L 10.984375 69.390625 
L 28.421875 72.90625 
L 38.28125 72.90625 
L 38.28125 8.296875 
L 54.390625 8.296875 
L 54.390625 0 
L 12.40625 0 
z
" id="DejaVuSans-31"/>
      <path id="DejaVuSans-20"/>
      <path d="M 37.109375 75.984375 
L 37.109375 68.5 
L 28.515625 68.5 
Q 23.6875 68.5 21.796875 66.546875 
Q 19.921875 64.59375 19.921875 59.515625 
L 19.921875 54.6875 
L 34.71875 54.6875 
L 34.71875 47.703125 
L 19.921875 47.703125 
L 19.921875 0 
L 10.890625 0 
L 10.890625 47.703125 
L 2.296875 47.703125 
L 2.296875 54.6875 
L 10.890625 54.6875 
L 10.890625 58.5 
Q 10.890625 67.625 15.140625 71.796875 
Q 19.390625 75.984375 28.609375 75.984375 
z
" id="DejaVuSans-66"/>
      <path d="M 19.671875 64.796875 
L 19.671875 8.109375 
L 31.59375 8.109375 
Q 46.6875 8.109375 53.6875 14.9375 
Q 60.6875 21.78125 60.6875 36.53125 
Q 60.6875 51.171875 53.6875 57.984375 
Q 46.6875 64.796875 31.59375 64.796875 
z
M 9.8125 72.90625 
L 30.078125 72.90625 
Q 51.265625 72.90625 61.171875 64.09375 
Q 71.09375 55.28125 71.09375 36.53125 
Q 71.09375 17.671875 61.125 8.828125 
Q 51.171875 0 30.078125 0 
L 9.8125 0 
z
" id="DejaVuSans-44"/>
     </defs>
     <g transform="translate(172.910063 336.833125)scale(0.2 -0.2)">
      <use xlink:href="#DejaVuSans-6c"/>
      <use x="27.783203" xlink:href="#DejaVuSans-6f"/>
      <use x="88.964844" xlink:href="#DejaVuSans-67"/>
      <use x="152.441406" xlink:href="#DejaVuSans-31"/>
      <use x="216.064453" xlink:href="#DejaVuSans-30"/>
      <use x="279.6875" xlink:href="#DejaVuSans-20"/>
      <use x="311.474609" xlink:href="#DejaVuSans-6f"/>
      <use x="372.65625" xlink:href="#DejaVuSans-66"/>
      <use x="407.861328" xlink:href="#DejaVuSans-20"/>
      <use x="439.648438" xlink:href="#DejaVuSans-44"/>
      <use x="516.650391" xlink:href="#DejaVuSans-66"/>
     </g>
    </g>
   </g>
   <g id="matplotlib.axis_2">
    <g id="ytick_1">
     <g id="line2d_11">
      <path clip-path="url(#pdc3279bcde)" d="M 5.52 291.28 
L 450.672 291.28 
" style="fill:none;stroke:#b0b0b0;stroke-linecap:square;stroke-width:0.8;"/>
     </g>
     <g id="line2d_12">
      <defs>
       <path d="M 0 0 
L -3.5 0 
" id="m64156e903f" style="stroke:#000000;stroke-width:0.8;"/>
      </defs>
      <g>
       <use style="stroke:#000000;stroke-width:0.8;" x="5.52" xlink:href="#m64156e903f" y="291.28"/>
      </g>
     </g>
    </g>
    <g id="ytick_2">
     <g id="line2d_13">
      <path clip-path="url(#pdc3279bcde)" d="M 5.52 234.693861 
L 450.672 234.693861 
" style="fill:none;stroke:#b0b0b0;stroke-linecap:square;stroke-width:0.8;"/>
     </g>
     <g id="line2d_14">
      <g>
       <use style="stroke:#000000;stroke-width:0.8;" x="5.52" xlink:href="#m64156e903f" y="234.693861"/>
      </g>
     </g>
    </g>
    <g id="ytick_3">
     <g id="line2d_15">
      <path clip-path="url(#pdc3279bcde)" d="M 5.52 178.107723 
L 450.672 178.107723 
" style="fill:none;stroke:#b0b0b0;stroke-linecap:square;stroke-width:0.8;"/>
     </g>
     <g id="line2d_16">
      <g>
       <use style="stroke:#000000;stroke-width:0.8;" x="5.52" xlink:href="#m64156e903f" y="178.107723"/>
      </g>
     </g>
    </g>
    <g id="ytick_4">
     <g id="line2d_17">
      <path clip-path="url(#pdc3279bcde)" d="M 5.52 121.521584 
L 450.672 121.521584 
" style="fill:none;stroke:#b0b0b0;stroke-linecap:square;stroke-width:0.8;"/>
     </g>
     <g id="line2d_18">
      <g>
       <use style="stroke:#000000;stroke-width:0.8;" x="5.52" xlink:href="#m64156e903f" y="121.521584"/>
      </g>
     </g>
    </g>
    <g id="ytick_5">
     <g id="line2d_19">
      <path clip-path="url(#pdc3279bcde)" d="M 5.52 64.935446 
L 450.672 64.935446 
" style="fill:none;stroke:#b0b0b0;stroke-linecap:square;stroke-width:0.8;"/>
     </g>
     <g id="line2d_20">
      <g>
       <use style="stroke:#000000;stroke-width:0.8;" x="5.52" xlink:href="#m64156e903f" y="64.935446"/>
      </g>
     </g>
    </g>
    <g id="ytick_6">
     <g id="line2d_21">
      <path clip-path="url(#pdc3279bcde)" d="M 5.52 8.349307 
L 450.672 8.349307 
" style="fill:none;stroke:#b0b0b0;stroke-linecap:square;stroke-width:0.8;"/>
     </g>
     <g id="line2d_22">
      <g>
       <use style="stroke:#000000;stroke-width:0.8;" x="5.52" xlink:href="#m64156e903f" y="8.349307"/>
      </g>
     </g>
    </g>
   </g>
   <g id="line2d_23">
    <path clip-path="url(#pdc3279bcde)" d="M 5.410598 291.28 
L 5.410598 279.491221 
L 192.716646 279.491221 
L 192.716646 267.702442 
L 217.714461 267.702442 
L 217.714461 266.916524 
L 219.231003 266.916524 
L 219.231003 266.130605 
L 219.603382 266.130605 
L 219.603382 265.344686 
L 219.76476 265.344686 
L 219.76476 264.558768 
L 220.180357 264.558768 
L 220.180357 263.772849 
L 220.993356 263.772849 
L 220.993356 262.986931 
L 221.125311 262.986931 
L 221.125311 262.201012 
L 221.389222 262.201012 
L 221.389222 261.415094 
L 221.994438 261.415094 
L 222.098091 259.843256 
L 222.111984 259.843256 
L 222.111984 259.057338 
L 222.811644 259.057338 
L 222.811644 258.271419 
L 222.94173 258.271419 
L 222.94173 257.485501 
L 223.375009 257.485501 
L 223.375009 256.699582 
L 223.493399 256.699582 
L 223.493399 255.913663 
L 223.682374 255.913663 
L 223.682374 255.127745 
L 223.798317 255.127745 
L 223.89551 253.555908 
L 224.036152 253.555908 
L 224.036152 252.769989 
L 224.197991 252.769989 
L 224.197991 251.98407 
L 224.678822 251.98407 
L 224.678822 251.198152 
L 225.101603 251.198152 
L 225.11279 249.626315 
L 225.487259 249.626315 
L 225.487259 248.840396 
L 225.652883 248.840396 
L 225.757783 246.48264 
L 225.901275 246.48264 
L 225.914598 244.910803 
L 226.554009 244.910803 
L 226.554009 244.124884 
L 226.882494 244.124884 
L 226.882494 243.338966 
L 227.115338 243.338966 
L 227.115338 242.553047 
L 227.53143 242.553047 
L 227.546502 240.98121 
L 227.673018 240.98121 
L 227.673018 240.195292 
L 228.138545 240.195292 
L 228.207679 238.623454 
L 228.251904 238.623454 
L 228.251904 237.837536 
L 229.146271 237.837536 
L 229.146271 237.051617 
L 229.653718 237.051617 
L 229.653718 236.265699 
L 229.889802 236.265699 
L 229.889802 235.47978 
L 230.718247 235.47978 
L 230.718247 234.693861 
L 231.03203 234.693861 
L 231.067269 233.122024 
L 231.158888 233.122024 
L 231.158888 232.336106 
L 231.405947 232.336106 
L 231.412536 230.764268 
L 231.524275 230.764268 
L 231.524275 229.97835 
L 231.8226 229.97835 
L 231.8226 229.192431 
L 231.949917 229.192431 
L 231.949917 228.406513 
L 232.569635 228.406513 
L 232.569635 227.620594 
L 233.45546 227.620594 
L 233.45546 226.834675 
L 234.846973 226.834675 
L 234.846973 226.048757 
L 235.182136 226.048757 
L 235.212094 223.691001 
L 236.3539 223.691001 
L 236.3539 222.905083 
L 236.51275 222.905083 
L 236.51275 222.119164 
L 236.894014 222.119164 
L 236.894014 221.333245 
L 237.27874 221.333245 
L 237.27874 220.547327 
L 237.402573 220.547327 
L 237.402573 219.761408 
L 238.138203 219.761408 
L 238.235629 218.189571 
L 238.952303 218.189571 
L 239.005081 215.831815 
L 239.128304 215.831815 
L 239.128304 215.045897 
L 239.481861 215.045897 
L 239.481861 214.259978 
L 239.861296 214.259978 
L 239.964004 211.902222 
L 240.107138 211.902222 
L 240.199242 210.330385 
L 240.343834 210.330385 
L 240.343834 209.544466 
L 240.74242 209.544466 
L 240.74242 208.758548 
L 240.865314 208.758548 
L 240.90408 205.614873 
L 241.203317 205.614873 
L 241.305033 203.257118 
L 241.337145 203.257118 
L 241.421495 201.685281 
L 241.528229 201.685281 
L 241.633586 200.113443 
L 241.838376 200.113443 
L 241.838376 199.327525 
L 242.18603 199.327525 
L 242.270927 196.969769 
L 242.733881 196.969769 
L 242.840472 195.397932 
L 242.925174 195.397932 
L 243.00712 193.826095 
L 243.072257 193.826095 
L 243.072257 193.040176 
L 243.468739 193.040176 
L 243.572129 191.468339 
L 244.052443 191.468339 
L 244.052443 190.68242 
L 244.219344 190.68242 
L 244.248209 189.110583 
L 244.384844 189.110583 
L 244.463796 187.538746 
L 244.647129 187.538746 
L 244.647129 186.752827 
L 244.786553 186.752827 
L 244.786553 185.966909 
L 244.975686 185.966909 
L 244.975686 185.18099 
L 245.122835 185.18099 
L 245.173045 183.609153 
L 245.720268 183.609153 
L 245.751798 182.037316 
L 245.858338 182.037316 
L 245.858338 181.251397 
L 246.71854 181.251397 
L 246.824845 179.67956 
L 246.988722 179.67956 
L 246.996219 178.107723 
L 247.846063 178.107723 
L 247.846063 177.321804 
L 248.29595 177.321804 
L 248.29595 176.535886 
L 248.632612 176.535886 
L 248.632612 175.749967 
L 249.25704 175.749967 
L 249.25704 174.964048 
L 249.748332 174.964048 
L 249.748332 174.17813 
L 249.917882 174.17813 
L 249.941894 172.606293 
L 250.050734 172.606293 
L 250.050734 171.820374 
L 250.408091 171.820374 
L 250.437844 170.248537 
L 251.462996 170.248537 
L 251.462996 169.462618 
L 252.651381 169.462618 
L 252.729018 167.104862 
L 252.956064 167.104862 
L 252.956064 166.318944 
L 253.265805 166.318944 
L 253.340795 164.747107 
L 253.590822 164.747107 
L 253.590822 163.961188 
L 254.386669 163.961188 
L 254.386669 163.17527 
L 254.782358 163.17527 
L 254.782358 162.389351 
L 255.146215 162.389351 
L 255.146215 161.603432 
L 255.951696 161.603432 
L 255.951696 160.817514 
L 256.253563 160.817514 
L 256.253563 160.031595 
L 256.801773 160.031595 
L 256.801773 159.245677 
L 257.072087 159.245677 
L 257.072087 158.459758 
L 257.953213 158.459758 
L 257.953213 157.673839 
L 259.074871 157.673839 
L 259.074871 156.887921 
L 259.359018 156.887921 
L 259.359018 156.102002 
L 260.269246 156.102002 
L 260.356965 153.744246 
L 260.610338 153.744246 
L 260.610338 152.958328 
L 260.895841 152.958328 
L 260.974745 140.38363 
L 261.876609 140.38363 
L 261.876609 139.597712 
L 262.211318 139.597712 
L 262.211318 138.811793 
L 262.8762 138.811793 
L 262.8762 138.025875 
L 263.853902 138.025875 
L 263.853902 137.239956 
L 264.731256 137.239956 
L 264.731256 136.454037 
L 264.932149 136.454037 
L 264.932149 135.668119 
L 265.291249 135.668119 
L 265.380594 134.096282 
L 265.701289 134.096282 
L 265.79791 131.738526 
L 265.86574 131.738526 
L 265.86574 130.952607 
L 266.123847 130.952607 
L 266.123847 130.166689 
L 266.324914 130.166689 
L 266.395696 128.594851 
L 266.557909 128.594851 
L 266.650401 127.023014 
L 266.690937 127.023014 
L 266.779053 125.451177 
L 266.999453 125.451177 
L 267.025866 123.87934 
L 267.144058 123.87934 
L 267.252288 121.521584 
L 267.262613 121.521584 
L 267.354293 119.163828 
L 267.39282 119.163828 
L 267.39282 118.37791 
L 267.910781 118.37791 
L 267.910781 117.591991 
L 268.142875 117.591991 
L 268.196047 116.020154 
L 268.298489 116.020154 
L 268.298489 115.234235 
L 268.458515 115.234235 
L 268.458515 114.448317 
L 268.726854 114.448317 
L 268.808407 111.304642 
L 268.890702 111.304642 
L 268.94387 108.946887 
L 269.031899 108.946887 
L 269.052182 107.37505 
L 269.159136 107.37505 
L 269.235817 105.017294 
L 269.405023 105.017294 
L 269.470967 102.659538 
L 269.599325 102.659538 
L 269.599325 101.873619 
L 269.747268 101.873619 
L 269.849673 97.944026 
L 269.926717 97.944026 
L 269.990765 96.372189 
L 270.042141 96.372189 
L 270.042141 95.586271 
L 270.404733 95.586271 
L 270.404733 94.800352 
L 270.734792 94.800352 
L 270.832164 92.442596 
L 270.921267 92.442596 
L 270.921267 91.656678 
L 271.08057 91.656678 
L 271.119674 90.08484 
L 271.332797 90.08484 
L 271.437809 87.727085 
L 271.639788 87.727085 
L 271.738238 86.155248 
L 272.170718 86.155248 
L 272.274992 84.58341 
L 272.332868 84.58341 
L 272.441536 83.011573 
L 272.836308 83.011573 
L 272.836308 82.225655 
L 273.108713 82.225655 
L 273.120549 80.653817 
L 273.637293 80.653817 
L 273.736505 78.296062 
L 274.052341 78.296062 
L 274.107507 75.938306 
L 274.459113 75.938306 
L 274.459113 75.152387 
L 275.066137 75.152387 
L 275.066137 74.366469 
L 276.61257 74.366469 
L 276.61257 73.58055 
L 276.7911 73.58055 
L 276.7911 72.794631 
L 277.8541 72.794631 
L 277.8541 72.008713 
L 278.118378 72.008713 
L 278.118378 71.222794 
L 278.407984 71.222794 
L 278.407984 70.436876 
L 279.138317 70.436876 
L 279.162989 68.865039 
L 279.632685 68.865039 
L 279.632685 68.07912 
L 280.131666 68.07912 
L 280.19672 66.507283 
L 280.280789 66.507283 
L 280.280789 65.721364 
L 280.43433 65.721364 
L 280.43433 64.935446 
L 280.63142 64.935446 
L 280.63142 64.149527 
L 280.925732 64.149527 
L 280.925732 63.363608 
L 281.126004 63.363608 
L 281.188776 61.791771 
L 281.78314 61.791771 
L 281.78314 61.005853 
L 281.928315 61.005853 
L 281.982322 59.434015 
L 282.773004 59.434015 
L 282.773004 58.648097 
L 283.502224 58.648097 
L 283.502224 57.862178 
L 284.662066 57.862178 
L 284.662066 57.07626 
L 285.007118 57.07626 
L 285.007118 56.290341 
L 285.462509 56.290341 
L 285.462509 55.504422 
L 286.152903 55.504422 
L 286.152903 54.718504 
L 289.469392 54.718504 
L 289.469392 53.932585 
L 290.775415 53.932585 
L 290.775415 53.146667 
L 291.233411 53.146667 
L 291.233411 52.360748 
L 291.620664 52.360748 
L 291.620664 51.574829 
L 293.553135 51.574829 
L 293.553135 50.788911 
L 293.804668 50.788911 
L 293.804668 50.002992 
L 295.694081 50.002992 
L 295.694081 49.217074 
L 296.025326 49.217074 
L 296.025326 48.431155 
L 296.146353 48.431155 
L 296.146353 47.645237 
L 297.876523 47.645237 
L 297.876523 46.859318 
L 298.577655 46.859318 
L 298.577655 46.073399 
L 302.464983 46.073399 
L 302.464983 45.287481 
L 303.806908 45.287481 
L 303.806908 44.501562 
L 306.876758 44.501562 
L 306.876758 43.715644 
L 322.303029 43.715644 
L 322.303029 42.929725 
L 326.670301 42.929725 
L 326.670301 42.143806 
L 327.131301 42.143806 
L 327.131301 41.357888 
L 331.553567 41.357888 
L 331.553567 40.571969 
L 332.132956 40.571969 
L 332.132956 39.786051 
L 332.350313 39.786051 
L 332.350313 39.000132 
L 335.092985 39.000132 
L 335.092985 38.214213 
L 335.48404 38.214213 
L 335.48404 37.428295 
L 335.64551 37.428295 
L 335.64551 36.642376 
L 336.305449 36.642376 
L 336.305449 35.856458 
L 336.786964 35.856458 
L 336.786964 35.070539 
L 337.92542 35.070539 
L 337.92542 34.28462 
L 338.055755 34.28462 
L 338.055755 33.498702 
L 338.783027 33.498702 
L 338.783027 32.712783 
L 339.008061 32.712783 
L 339.008061 31.926865 
L 340.174259 31.926865 
L 340.174259 31.140946 
L 340.993306 31.140946 
L 340.993306 30.355028 
L 341.121613 30.355028 
L 341.121613 29.569109 
L 342.373477 29.569109 
L 342.373477 28.78319 
L 343.321923 28.78319 
L 343.321923 27.997272 
L 344.312223 27.997272 
L 344.383318 26.425435 
L 346.013482 26.425435 
L 346.013482 25.639516 
L 346.253904 25.639516 
L 346.253904 24.853597 
L 347.409769 24.853597 
L 347.409769 24.067679 
L 347.729871 24.067679 
L 347.729871 23.28176 
L 350.138851 23.28176 
L 350.138851 22.495842 
L 350.706914 22.495842 
L 350.706914 21.709923 
L 351.946577 21.709923 
L 351.946577 20.924004 
L 355.490698 20.924004 
L 355.490698 20.138086 
L 384.210764 20.138086 
L 384.210764 19.352167 
L 387.214385 19.352167 
L 387.214385 18.566249 
L 388.806897 18.566249 
L 388.88133 16.994411 
L 390.122739 16.994411 
L 390.122739 16.208493 
L 390.498959 16.208493 
L 390.498959 15.422574 
L 391.315247 15.422574 
L 391.315247 14.636656 
L 393.429519 14.636656 
L 393.429519 13.850737 
L 393.8162 13.850737 
L 393.921506 12.2789 
L 396.448437 12.2789 
L 396.448437 11.492981 
L 397.00901 11.492981 
L 397.00901 10.707063 
L 397.836118 10.707063 
L 397.836118 9.921144 
L 398.226889 9.921144 
L 398.226889 9.135226 
L 398.844688 9.135226 
L 398.844688 8.349307 
L 398.844688 8.349307 
L 450.672 8.349307 
L 450.672 8.349307 
" style="fill:none;stroke:#ff0000;stroke-linecap:square;stroke-width:3;"/>
   </g>
   <g id="line2d_24">
    <path clip-path="url(#pdc3279bcde)" d="M 192.716646 291.28 
L 192.716646 279.491221 
L 225.655641 279.491221 
L 225.655641 278.705303 
L 226.989391 278.705303 
L 226.989391 277.919384 
L 228.446773 277.919384 
L 228.446773 277.133465 
L 229.286298 277.133465 
L 229.286298 276.347547 
L 231.282895 276.347547 
L 231.282895 275.561628 
L 231.429135 275.561628 
L 231.51418 273.989791 
L 231.615586 273.989791 
L 231.615586 273.203872 
L 231.813362 273.203872 
L 231.857512 271.632035 
L 232.133801 271.632035 
L 232.133801 270.846117 
L 233.032325 270.846117 
L 233.032325 270.060198 
L 233.239399 270.060198 
L 233.239399 269.274279 
L 234.592592 269.274279 
L 234.592592 268.488361 
L 235.347297 268.488361 
L 235.347297 267.702442 
L 235.597301 267.702442 
L 235.670943 266.130605 
L 236.525917 266.130605 
L 236.525917 265.344686 
L 237.137225 265.344686 
L 237.137225 264.558768 
L 237.273616 264.558768 
L 237.313105 262.201012 
L 237.737137 262.201012 
L 237.737137 261.415094 
L 238.04011 261.415094 
L 238.04011 260.629175 
L 238.25213 260.629175 
L 238.25213 259.843256 
L 238.401499 259.843256 
L 238.488048 257.485501 
L 239.039336 257.485501 
L 239.039336 256.699582 
L 242.979326 256.699582 
L 242.979326 255.913663 
L 244.790386 255.913663 
L 244.790386 255.127745 
L 246.547726 255.127745 
L 246.547726 254.341826 
L 247.268753 254.341826 
L 247.268753 253.555908 
L 247.58491 253.555908 
L 247.58491 252.769989 
L 248.299281 252.769989 
L 248.299281 251.98407 
L 248.423782 251.98407 
L 248.455049 250.412233 
L 248.736044 250.412233 
L 248.736044 249.626315 
L 248.914527 249.626315 
L 249.018358 248.054477 
L 249.631278 248.054477 
L 249.631278 247.268559 
L 249.780005 247.268559 
L 249.781824 245.696722 
L 250.042535 245.696722 
L 250.042535 244.910803 
L 250.470299 244.910803 
L 250.562035 243.338966 
L 250.681182 243.338966 
L 250.752722 241.767129 
L 251.000297 241.767129 
L 251.000297 240.98121 
L 251.129672 240.98121 
L 251.129672 240.195292 
L 251.285536 240.195292 
L 251.380076 237.837536 
L 251.4604 237.837536 
L 251.559607 234.693861 
L 251.894158 234.693861 
L 252.0016 232.336106 
L 252.092261 232.336106 
L 252.139714 229.97835 
L 252.384594 229.97835 
L 252.384594 229.192431 
L 252.550848 229.192431 
L 252.615479 227.620594 
L 252.846523 227.620594 
L 252.846523 226.834675 
L 253.319754 226.834675 
L 253.319754 226.048757 
L 253.628313 226.048757 
L 253.628313 225.262838 
L 254.058139 225.262838 
L 254.058139 224.47692 
L 254.424878 224.47692 
L 254.49436 222.905083 
L 254.668481 222.905083 
L 254.668481 222.119164 
L 254.959356 222.119164 
L 254.959356 221.333245 
L 255.113347 221.333245 
L 255.187864 218.97549 
L 255.485625 218.97549 
L 255.485625 218.189571 
L 255.622577 218.189571 
L 255.722873 215.831815 
L 255.779198 215.831815 
L 255.779198 215.045897 
L 255.939526 215.045897 
L 255.939526 214.259978 
L 256.050987 214.259978 
L 256.152367 210.330385 
L 256.170666 210.330385 
L 256.217528 207.186711 
L 256.28256 207.186711 
L 256.36344 202.471199 
L 256.467826 202.471199 
L 256.497414 200.899362 
L 256.616163 200.899362 
L 256.670812 199.327525 
L 256.771869 199.327525 
L 256.771869 198.541606 
L 257.179302 198.541606 
L 257.179302 197.755688 
L 257.388952 197.755688 
L 257.388952 196.969769 
L 257.687586 196.969769 
L 257.687586 196.18385 
L 258.216677 196.18385 
L 258.291447 194.612013 
L 258.602738 194.612013 
L 258.602738 193.826095 
L 258.730197 193.826095 
L 258.730197 193.040176 
L 259.210955 193.040176 
L 259.210955 192.254257 
L 259.425995 192.254257 
L 259.478307 190.68242 
L 259.5884 190.68242 
L 259.5884 189.896502 
L 260.866155 189.896502 
L 260.895841 177.321804 
L 261.183636 177.321804 
L 261.183636 176.535886 
L 261.298526 176.535886 
L 261.298526 175.749967 
L 261.43043 175.749967 
L 261.43043 174.964048 
L 261.681592 174.964048 
L 261.681592 174.17813 
L 262.785797 174.17813 
L 262.785797 173.392211 
L 267.979165 173.392211 
L 267.979165 172.606293 
L 269.332471 172.606293 
L 269.418813 171.034455 
L 269.840617 171.034455 
L 269.891372 168.6767 
L 270.047668 168.6767 
L 270.047668 167.890781 
L 270.38365 167.890781 
L 270.38365 167.104862 
L 270.514179 167.104862 
L 270.514179 166.318944 
L 270.635284 166.318944 
L 270.635284 165.533025 
L 270.952131 165.533025 
L 270.957417 163.961188 
L 271.124535 163.961188 
L 271.218426 162.389351 
L 271.279735 162.389351 
L 271.285486 160.817514 
L 271.503852 160.817514 
L 271.605484 159.245677 
L 271.767649 159.245677 
L 271.869172 157.673839 
L 271.913325 157.673839 
L 271.967116 156.102002 
L 272.103029 156.102002 
L 272.170527 154.530165 
L 272.300854 154.530165 
L 272.39591 152.172409 
L 272.434951 152.172409 
L 272.434951 151.386491 
L 273.007684 151.386491 
L 273.007684 150.600572 
L 273.288073 150.600572 
L 273.288073 149.814653 
L 273.749111 149.814653 
L 273.749111 149.028735 
L 276.136027 149.028735 
L 276.136027 148.242816 
L 276.787607 148.242816 
L 276.869669 146.670979 
L 277.204048 146.670979 
L 277.261874 145.099142 
L 277.737748 145.099142 
L 277.737748 144.313223 
L 277.974623 144.313223 
L 277.977698 142.741386 
L 278.3421 142.741386 
L 278.3421 141.955468 
L 278.474649 141.955468 
L 278.537608 140.38363 
L 278.600228 140.38363 
L 278.6701 138.811793 
L 278.805209 138.811793 
L 278.878739 137.239956 
L 278.979596 137.239956 
L 279.06822 134.096282 
L 279.152787 134.096282 
L 279.152787 133.310363 
L 279.478704 133.310363 
L 279.572627 130.952607 
L 279.872582 130.952607 
L 279.873408 129.38077 
L 280.028786 129.38077 
L 280.033783 127.808933 
L 280.174223 127.808933 
L 280.200078 125.451177 
L 280.310701 125.451177 
L 280.310701 124.665259 
L 280.440825 124.665259 
L 280.440825 123.87934 
L 280.558433 123.87934 
L 280.622371 121.521584 
L 280.905345 121.521584 
L 280.95575 119.949747 
L 281.155707 119.949747 
L 281.156482 118.37791 
L 281.38308 118.37791 
L 281.38308 117.591991 
L 281.628674 117.591991 
L 281.628674 116.806073 
L 281.766731 116.806073 
L 281.852622 115.234235 
L 282.307179 115.234235 
L 282.351509 113.662398 
L 282.88389 113.662398 
L 282.925305 111.304642 
L 283.096462 111.304642 
L 283.096462 110.518724 
L 283.297225 110.518724 
L 283.325705 108.160968 
L 284.335611 108.160968 
L 284.335611 107.37505 
L 285.88143 107.37505 
L 285.88203 105.803212 
L 286.149859 105.803212 
L 286.166713 104.231375 
L 288.153727 104.231375 
L 288.153727 103.445457 
L 289.483617 103.445457 
L 289.483617 102.659538 
L 289.873465 102.659538 
L 289.873465 101.873619 
L 290.054486 101.873619 
L 290.085707 100.301782 
L 290.194016 100.301782 
L 290.194016 99.515864 
L 291.09974 99.515864 
L 291.09974 98.729945 
L 291.614724 98.729945 
L 291.705422 97.158108 
L 291.880506 97.158108 
L 291.880506 96.372189 
L 292.304501 96.372189 
L 292.304501 95.586271 
L 292.461642 95.586271 
L 292.563907 94.014433 
L 292.603888 94.014433 
L 292.603888 93.228515 
L 292.987862 93.228515 
L 292.987862 92.442596 
L 293.516399 92.442596 
L 293.516399 91.656678 
L 293.742327 91.656678 
L 293.781173 90.08484 
L 299.046263 90.08484 
L 299.046263 89.298922 
L 299.812954 89.298922 
L 299.812954 88.513003 
L 315.864182 88.513003 
L 315.864182 76.724224 
L 319.483667 76.724224 
L 319.483667 75.938306 
L 319.737758 75.938306 
L 319.737758 75.152387 
L 320.354151 75.152387 
L 320.354151 74.366469 
L 323.281736 74.366469 
L 323.281736 73.58055 
L 324.225578 73.58055 
L 324.225578 72.794631 
L 326.219329 72.794631 
L 326.219329 72.008713 
L 326.871731 72.008713 
L 326.98162 69.650957 
L 327.472906 69.650957 
L 327.472906 68.865039 
L 327.91131 68.865039 
L 327.960671 67.293201 
L 328.181206 67.293201 
L 328.181206 66.507283 
L 330.460071 66.507283 
L 330.460071 65.721364 
L 331.356588 65.721364 
L 331.45718 64.149527 
L 331.840186 64.149527 
L 331.840186 63.363608 
L 332.523575 63.363608 
L 332.523575 62.57769 
L 335.545699 62.57769 
L 335.545699 61.791771 
L 337.498056 61.791771 
L 337.498056 61.005853 
L 340.18676 61.005853 
L 340.18676 60.219934 
L 344.520674 60.219934 
L 344.520674 59.434015 
L 344.717956 59.434015 
L 344.717956 58.648097 
L 345.890388 58.648097 
L 345.890388 57.862178 
L 346.178714 57.862178 
L 346.178714 57.07626 
L 346.895647 57.07626 
L 346.895647 56.290341 
L 347.366633 56.290341 
L 347.366633 55.504422 
L 347.607562 55.504422 
L 347.607562 54.718504 
L 348.641715 54.718504 
L 348.641715 53.932585 
L 349.136683 53.932585 
L 349.136683 53.146667 
L 349.97268 53.146667 
L 349.97268 52.360748 
L 351.601968 52.360748 
L 351.601968 51.574829 
L 353.633691 51.574829 
L 353.633691 50.788911 
L 353.794516 50.788911 
L 353.801603 49.217074 
L 354.151819 49.217074 
L 354.151819 48.431155 
L 354.667699 48.431155 
L 354.667699 47.645237 
L 355.81449 47.645237 
L 355.81449 46.859318 
L 359.850547 46.859318 
L 359.850547 46.073399 
L 361.07619 46.073399 
L 361.07619 45.287481 
L 364.130829 45.287481 
L 364.130829 44.501562 
L 366.386355 44.501562 
L 366.386355 43.715644 
L 367.374225 43.715644 
L 367.374225 42.929725 
L 369.046521 42.929725 
L 369.046521 42.143806 
L 370.376825 42.143806 
L 370.376825 41.357888 
L 371.229209 41.357888 
L 371.229209 40.571969 
L 372.817475 40.571969 
L 372.817475 39.786051 
L 374.462742 39.786051 
L 374.492601 38.214213 
L 374.978473 38.214213 
L 374.978473 37.428295 
L 375.220787 37.428295 
L 375.220787 36.642376 
L 375.73903 36.642376 
L 375.73903 35.856458 
L 377.448152 35.856458 
L 377.506191 34.28462 
L 378.076371 34.28462 
L 378.182711 32.712783 
L 378.497241 32.712783 
L 378.497241 31.926865 
L 378.755247 31.926865 
L 378.755247 31.140946 
L 379.44674 31.140946 
L 379.44674 30.355028 
L 380.149521 30.355028 
L 380.149521 29.569109 
L 380.42332 29.569109 
L 380.42332 28.78319 
L 380.594641 28.78319 
L 380.594641 27.997272 
L 380.73238 27.997272 
L 380.73238 27.211353 
L 381.51732 27.211353 
L 381.55762 25.639516 
L 381.99698 25.639516 
L 381.99698 24.853597 
L 382.157921 24.853597 
L 382.157921 24.067679 
L 382.500484 24.067679 
L 382.500484 23.28176 
L 382.887228 23.28176 
L 382.887228 22.495842 
L 385.257097 22.495842 
L 385.257097 21.709923 
L 385.91817 21.709923 
L 385.91817 20.924004 
L 386.677492 20.924004 
L 386.677492 20.138086 
L 409.440053 20.138086 
L 409.440053 19.352167 
L 409.988667 19.352167 
L 409.988667 18.566249 
L 415.840025 18.566249 
L 415.840025 17.78033 
L 416.064573 17.78033 
L 416.064573 16.994411 
L 416.79362 16.994411 
L 416.79362 16.208493 
L 416.973016 16.208493 
L 416.973016 15.422574 
L 418.253287 15.422574 
L 418.325493 13.850737 
L 419.144681 13.850737 
L 419.144681 13.064818 
L 419.866315 13.064818 
L 419.866315 12.2789 
L 423.934185 12.2789 
L 423.934185 11.492981 
L 424.384202 11.492981 
L 424.384202 10.707063 
L 425.077603 10.707063 
L 425.077603 9.921144 
L 425.575758 9.921144 
L 425.575758 9.135226 
L 429.469076 9.135226 
L 429.469076 8.349307 
L 429.469076 8.349307 
L 450.672 8.349307 
L 450.672 8.349307 
" style="fill:none;stroke:#00bfbf;stroke-linecap:square;stroke-width:1.5;"/>
   </g>
   <g id="line2d_25">
    <path clip-path="url(#pdc3279bcde)" d="M 192.716646 291.28 
L 192.716646 279.491221 
L 224.940418 279.491221 
L 224.940418 278.705303 
L 226.014549 278.705303 
L 226.014549 277.919384 
L 226.989391 277.919384 
L 226.989391 277.133465 
L 228.10718 277.133465 
L 228.10718 276.347547 
L 228.309106 276.347547 
L 228.309106 275.561628 
L 229.286298 275.561628 
L 229.286298 274.77571 
L 229.996066 274.77571 
L 229.996066 273.989791 
L 231.047766 273.989791 
L 231.141319 271.632035 
L 231.615586 271.632035 
L 231.615586 270.846117 
L 231.813362 270.846117 
L 231.857512 269.274279 
L 232.375848 269.274279 
L 232.375848 268.488361 
L 234.53761 268.488361 
L 234.53761 267.702442 
L 234.751661 267.702442 
L 234.751661 266.916524 
L 235.347297 266.916524 
L 235.347297 266.130605 
L 235.597301 266.130605 
L 235.670943 264.558768 
L 236.470653 264.558768 
L 236.525917 262.986931 
L 237.273616 262.986931 
L 237.313105 260.629175 
L 237.664272 260.629175 
L 237.752734 259.057338 
L 238.401499 259.057338 
L 238.488048 257.485501 
L 239.039336 257.485501 
L 239.039336 256.699582 
L 242.979326 256.699582 
L 242.979326 255.913663 
L 244.790386 255.913663 
L 244.790386 255.127745 
L 246.547726 255.127745 
L 246.547726 254.341826 
L 246.674161 254.341826 
L 246.674161 253.555908 
L 246.865653 253.555908 
L 246.865653 252.769989 
L 247.268753 252.769989 
L 247.268753 251.98407 
L 247.58491 251.98407 
L 247.58491 251.198152 
L 248.299281 251.198152 
L 248.299281 250.412233 
L 248.423782 250.412233 
L 248.455049 248.840396 
L 248.567367 248.840396 
L 248.674243 247.268559 
L 248.736044 247.268559 
L 248.736044 246.48264 
L 248.914527 246.48264 
L 249.018358 244.910803 
L 249.267614 244.910803 
L 249.267614 244.124884 
L 249.631278 244.124884 
L 249.631278 243.338966 
L 249.780005 243.338966 
L 249.780005 242.553047 
L 250.042535 242.553047 
L 250.042535 241.767129 
L 250.318821 241.767129 
L 250.318821 240.98121 
L 250.562035 240.98121 
L 250.562035 240.195292 
L 250.681182 240.195292 
L 250.752722 238.623454 
L 251.129672 238.623454 
L 251.129672 237.837536 
L 251.285536 237.837536 
L 251.380076 235.47978 
L 251.505107 235.47978 
L 251.559607 233.122024 
L 251.78177 233.122024 
L 251.78177 232.336106 
L 251.894158 232.336106 
L 252.0016 229.97835 
L 252.092261 229.97835 
L 252.139714 227.620594 
L 252.432645 227.620594 
L 252.432645 226.834675 
L 252.705406 226.834675 
L 252.705406 226.048757 
L 252.846523 226.048757 
L 252.846523 225.262838 
L 253.350759 225.262838 
L 253.350759 224.47692 
L 254.424878 224.47692 
L 254.49436 222.905083 
L 254.668481 222.905083 
L 254.668481 222.119164 
L 254.959356 222.119164 
L 254.959356 221.333245 
L 255.113347 221.333245 
L 255.187864 218.97549 
L 255.40111 218.97549 
L 255.485625 217.403652 
L 255.622577 217.403652 
L 255.722873 212.688141 
L 255.779198 212.688141 
L 255.779198 211.902222 
L 255.939526 211.902222 
L 255.939526 211.116304 
L 256.050987 211.116304 
L 256.153525 206.400792 
L 256.179032 206.400792 
L 256.217528 204.043036 
L 256.317076 204.043036 
L 256.341661 201.685281 
L 256.467826 201.685281 
L 256.497414 200.113443 
L 256.670812 200.113443 
L 256.771869 198.541606 
L 257.179302 198.541606 
L 257.179302 197.755688 
L 257.388952 197.755688 
L 257.388952 196.969769 
L 257.687586 196.969769 
L 257.687586 196.18385 
L 257.839645 196.18385 
L 257.839645 195.397932 
L 258.216677 195.397932 
L 258.291447 193.826095 
L 258.602738 193.826095 
L 258.602738 193.040176 
L 258.730197 193.040176 
L 258.730197 192.254257 
L 259.210955 192.254257 
L 259.210955 191.468339 
L 259.425995 191.468339 
L 259.478307 189.896502 
L 259.5884 189.896502 
L 259.5884 189.110583 
L 260.866155 189.110583 
L 260.895841 176.535886 
L 261.298526 176.535886 
L 261.298526 175.749967 
L 261.43043 175.749967 
L 261.43043 174.964048 
L 261.681592 174.964048 
L 261.681592 174.17813 
L 262.785797 174.17813 
L 262.785797 173.392211 
L 267.979165 173.392211 
L 267.979165 172.606293 
L 268.342443 172.606293 
L 268.342443 171.820374 
L 268.52271 171.820374 
L 268.52271 171.034455 
L 268.895702 171.034455 
L 268.895702 170.248537 
L 269.31481 170.248537 
L 269.418813 167.104862 
L 269.841199 167.104862 
L 269.897755 164.747107 
L 270.047668 164.747107 
L 270.047668 163.961188 
L 270.38365 163.961188 
L 270.38365 163.17527 
L 270.514179 163.17527 
L 270.514179 162.389351 
L 270.674092 162.389351 
L 270.674092 161.603432 
L 270.852117 161.603432 
L 270.952131 160.031595 
L 271.124535 160.031595 
L 271.124535 159.245677 
L 271.279735 159.245677 
L 271.285486 157.673839 
L 271.39308 157.673839 
L 271.39308 156.887921 
L 271.605484 156.887921 
L 271.605484 156.102002 
L 271.913325 156.102002 
L 271.967116 154.530165 
L 272.103029 154.530165 
L 272.170527 152.958328 
L 272.300854 152.958328 
L 272.300854 152.172409 
L 272.434951 152.172409 
L 272.434951 151.386491 
L 273.007684 151.386491 
L 273.007684 150.600572 
L 273.288073 150.600572 
L 273.288073 149.814653 
L 273.749111 149.814653 
L 273.749111 149.028735 
L 275.949632 149.028735 
L 275.949632 148.242816 
L 276.136027 148.242816 
L 276.136027 147.456898 
L 276.787607 147.456898 
L 276.869669 145.885061 
L 277.204048 145.885061 
L 277.261874 144.313223 
L 277.737748 144.313223 
L 277.737748 143.527305 
L 277.892919 143.527305 
L 277.977698 141.169549 
L 278.3421 141.169549 
L 278.3421 140.38363 
L 278.474649 140.38363 
L 278.537608 138.811793 
L 278.600228 138.811793 
L 278.6701 137.239956 
L 278.805209 137.239956 
L 278.878739 135.668119 
L 278.979596 135.668119 
L 279.06822 132.524444 
L 279.152787 132.524444 
L 279.152787 131.738526 
L 279.478704 131.738526 
L 279.572627 129.38077 
L 279.872582 129.38077 
L 279.873408 127.808933 
L 280.028786 127.808933 
L 280.033783 126.237096 
L 280.185294 126.237096 
L 280.200078 124.665259 
L 280.310701 124.665259 
L 280.310701 123.87934 
L 280.440825 123.87934 
L 280.487423 122.307503 
L 280.558433 122.307503 
L 280.622371 119.949747 
L 280.905345 119.949747 
L 281.014881 117.591991 
L 281.155707 117.591991 
L 281.156482 116.020154 
L 281.38308 116.020154 
L 281.38308 115.234235 
L 281.628674 115.234235 
L 281.628674 114.448317 
L 281.766731 114.448317 
L 281.791251 112.87648 
L 282.351509 112.87648 
L 282.351509 112.090561 
L 282.88389 112.090561 
L 282.925305 109.732805 
L 283.095737 109.732805 
L 283.096462 108.160968 
L 283.297225 108.160968 
L 283.301898 106.589131 
L 284.335611 106.589131 
L 284.335611 105.803212 
L 285.072446 105.803212 
L 285.072446 105.017294 
L 285.88143 105.017294 
L 285.88143 104.231375 
L 286.149859 104.231375 
L 286.149859 103.445457 
L 287.760488 103.445457 
L 287.760488 102.659538 
L 288.153727 102.659538 
L 288.153727 101.873619 
L 289.483617 101.873619 
L 289.483617 101.087701 
L 289.873465 101.087701 
L 289.873465 100.301782 
L 290.054486 100.301782 
L 290.054486 99.515864 
L 290.194016 99.515864 
L 290.194016 98.729945 
L 291.09974 98.729945 
L 291.09974 97.944026 
L 291.296558 97.944026 
L 291.296558 97.158108 
L 291.614724 97.158108 
L 291.705422 95.586271 
L 291.880506 95.586271 
L 291.880506 94.800352 
L 292.304501 94.800352 
L 292.304501 94.014433 
L 292.461642 94.014433 
L 292.563907 92.442596 
L 292.987862 92.442596 
L 292.987862 91.656678 
L 293.516399 91.656678 
L 293.516399 90.870759 
L 293.742327 90.870759 
L 293.781173 89.298922 
L 294.303331 89.298922 
L 294.303331 88.513003 
L 298.750042 88.513003 
L 298.750042 87.727085 
L 299.046263 87.727085 
L 299.046263 86.941166 
L 299.812954 86.941166 
L 299.812954 86.155248 
L 304.359039 86.155248 
L 304.359039 85.369329 
L 315.864182 85.369329 
L 315.864182 73.58055 
L 318.913207 73.58055 
L 318.913207 72.794631 
L 319.483667 72.794631 
L 319.483667 72.008713 
L 319.737758 72.008713 
L 319.737758 71.222794 
L 320.354151 71.222794 
L 320.354151 70.436876 
L 320.880497 70.436876 
L 320.880497 69.650957 
L 323.197773 69.650957 
L 323.281736 68.07912 
L 324.225578 68.07912 
L 324.225578 67.293201 
L 324.383279 67.293201 
L 324.383279 66.507283 
L 326.139772 66.507283 
L 326.219329 64.935446 
L 326.871731 64.935446 
L 326.928725 63.363608 
L 327.472906 63.363608 
L 327.472906 62.57769 
L 327.91131 62.57769 
L 327.960671 61.005853 
L 328.181206 61.005853 
L 328.181206 60.219934 
L 330.460071 60.219934 
L 330.460071 59.434015 
L 331.45718 59.434015 
L 331.45718 58.648097 
L 331.840186 58.648097 
L 331.840186 57.862178 
L 332.523575 57.862178 
L 332.523575 57.07626 
L 336.667513 57.07626 
L 336.667513 56.290341 
L 337.498056 56.290341 
L 337.498056 55.504422 
L 340.18676 55.504422 
L 340.18676 54.718504 
L 345.890388 54.718504 
L 345.890388 53.932585 
L 346.178714 53.932585 
L 346.178714 53.146667 
L 346.895647 53.146667 
L 346.895647 52.360748 
L 347.607562 52.360748 
L 347.607562 51.574829 
L 349.97268 51.574829 
L 349.97268 50.788911 
L 351.601968 50.788911 
L 351.601968 50.002992 
L 353.633691 50.002992 
L 353.633691 49.217074 
L 353.794516 49.217074 
L 353.801603 47.645237 
L 354.151819 47.645237 
L 354.151819 46.859318 
L 354.667699 46.859318 
L 354.667699 46.073399 
L 355.81449 46.073399 
L 355.81449 45.287481 
L 359.081714 45.287481 
L 359.081714 44.501562 
L 360.731154 44.501562 
L 360.731154 43.715644 
L 364.130829 43.715644 
L 364.130829 42.929725 
L 367.374225 42.929725 
L 367.374225 42.143806 
L 368.472995 42.143806 
L 368.472995 41.357888 
L 369.046521 41.357888 
L 369.046521 40.571969 
L 371.229209 40.571969 
L 371.229209 39.786051 
L 372.817475 39.786051 
L 372.817475 39.000132 
L 372.961542 39.000132 
L 372.961542 38.214213 
L 373.981792 38.214213 
L 373.981792 37.428295 
L 374.462742 37.428295 
L 374.492601 35.856458 
L 374.978473 35.856458 
L 374.978473 35.070539 
L 375.307151 35.070539 
L 375.307151 34.28462 
L 375.73903 34.28462 
L 375.73903 33.498702 
L 376.381699 33.498702 
L 376.408406 31.926865 
L 377.304204 31.926865 
L 377.304204 31.140946 
L 377.506191 31.140946 
L 377.506191 30.355028 
L 377.712005 30.355028 
L 377.712005 29.569109 
L 378.182711 29.569109 
L 378.182711 28.78319 
L 378.446868 28.78319 
L 378.497241 27.211353 
L 378.755247 27.211353 
L 378.755247 26.425435 
L 379.44674 26.425435 
L 379.44674 25.639516 
L 380.42332 25.639516 
L 380.42332 24.853597 
L 380.594641 24.853597 
L 380.594641 24.067679 
L 380.73238 24.067679 
L 380.73238 23.28176 
L 380.96433 23.28176 
L 380.96433 22.495842 
L 382.887228 22.495842 
L 382.887228 21.709923 
L 385.91817 21.709923 
L 385.91817 20.924004 
L 386.677492 20.924004 
L 386.677492 20.138086 
L 409.440053 20.138086 
L 409.440053 19.352167 
L 409.988667 19.352167 
L 409.988667 18.566249 
L 415.840025 18.566249 
L 415.840025 17.78033 
L 416.064573 17.78033 
L 416.064573 16.994411 
L 416.79362 16.994411 
L 416.79362 16.208493 
L 416.973016 16.208493 
L 416.973016 15.422574 
L 418.253287 15.422574 
L 418.325493 13.850737 
L 419.144681 13.850737 
L 419.144681 13.064818 
L 419.866315 13.064818 
L 419.866315 12.2789 
L 423.41704 12.2789 
L 423.41704 11.492981 
L 423.934185 11.492981 
L 423.934185 10.707063 
L 424.197505 10.707063 
L 424.248261 9.135226 
L 425.077603 9.135226 
L 425.077603 8.349307 
L 425.077603 8.349307 
L 450.672 8.349307 
L 450.672 8.349307 
" style="fill:none;stroke:#bf00bf;stroke-linecap:square;stroke-width:1.5;"/>
   </g>
   <g id="line2d_26">
    <path clip-path="url(#pdc3279bcde)" d="M 192.716646 291.28 
L 192.716646 279.491221 
L 224.000189 279.491221 
L 224.000189 278.705303 
L 224.168812 278.705303 
L 224.18807 277.133465 
L 224.940418 277.133465 
L 224.940418 276.347547 
L 226.014549 276.347547 
L 226.014549 275.561628 
L 226.989391 275.561628 
L 226.989391 274.77571 
L 227.259098 274.77571 
L 227.259098 273.989791 
L 227.906553 273.989791 
L 227.906553 273.203872 
L 228.10718 273.203872 
L 228.10718 272.417954 
L 228.41448 272.417954 
L 228.41448 271.632035 
L 228.623681 271.632035 
L 228.720219 270.060198 
L 229.354185 270.060198 
L 229.354185 269.274279 
L 229.473585 269.274279 
L 229.473585 268.488361 
L 230.354984 268.488361 
L 230.354984 267.702442 
L 233.993645 267.702442 
L 233.993645 266.916524 
L 234.751661 266.916524 
L 234.751661 266.130605 
L 234.988122 266.130605 
L 234.988122 265.344686 
L 235.347297 265.344686 
L 235.347297 264.558768 
L 235.597301 264.558768 
L 235.670943 262.986931 
L 236.088324 262.986931 
L 236.097729 261.415094 
L 236.525917 261.415094 
L 236.525917 260.629175 
L 237.219672 260.629175 
L 237.313105 258.271419 
L 238.488048 258.271419 
L 238.488048 257.485501 
L 239.039336 257.485501 
L 239.039336 256.699582 
L 241.242932 256.699582 
L 241.242932 255.913663 
L 242.979326 255.913663 
L 242.979326 255.127745 
L 244.790386 255.127745 
L 244.790386 254.341826 
L 245.913204 254.341826 
L 245.936163 252.769989 
L 246.090356 252.769989 
L 246.090356 251.98407 
L 246.547726 251.98407 
L 246.547726 251.198152 
L 246.674161 251.198152 
L 246.674161 250.412233 
L 247.268753 250.412233 
L 247.268753 249.626315 
L 247.58491 249.626315 
L 247.58491 248.840396 
L 247.915705 248.840396 
L 247.915705 248.054477 
L 248.143597 248.054477 
L 248.143597 247.268559 
L 248.299281 247.268559 
L 248.371065 245.696722 
L 248.423782 245.696722 
L 248.455049 244.124884 
L 248.567367 244.124884 
L 248.567367 243.338966 
L 248.914527 243.338966 
L 248.914527 242.553047 
L 249.07294 242.553047 
L 249.07294 241.767129 
L 249.282289 241.767129 
L 249.282289 240.98121 
L 249.631278 240.98121 
L 249.631278 240.195292 
L 249.750098 240.195292 
L 249.781418 237.837536 
L 249.872143 237.837536 
L 249.872143 237.051617 
L 250.562035 237.051617 
L 250.658431 235.47978 
L 250.995321 235.47978 
L 251.068042 233.907943 
L 251.285536 233.907943 
L 251.380076 231.550187 
L 251.415166 231.550187 
L 251.490638 229.97835 
L 251.559607 229.97835 
L 251.644416 228.406513 
L 251.845597 228.406513 
L 251.894158 226.834675 
L 252.0016 226.834675 
L 252.092261 225.262838 
L 252.139714 225.262838 
L 252.139714 224.47692 
L 253.350759 224.47692 
L 253.350759 223.691001 
L 253.923001 223.691001 
L 253.923001 222.905083 
L 254.424878 222.905083 
L 254.49436 221.333245 
L 254.668481 221.333245 
L 254.668481 220.547327 
L 254.959356 220.547327 
L 255.038815 218.97549 
L 255.113347 218.97549 
L 255.209427 215.831815 
L 255.24343 215.831815 
L 255.24343 215.045897 
L 255.40111 215.045897 
L 255.40111 214.259978 
L 255.622577 214.259978 
L 255.722873 210.330385 
L 255.779198 210.330385 
L 255.779198 209.544466 
L 255.907598 209.544466 
L 255.991934 207.972629 
L 256.044952 207.972629 
L 256.153525 204.828955 
L 256.167421 204.828955 
L 256.217528 201.685281 
L 256.317076 201.685281 
L 256.373696 199.327525 
L 256.431772 199.327525 
L 256.497414 197.755688 
L 256.670812 197.755688 
L 256.670812 196.969769 
L 257.179302 196.969769 
L 257.179302 196.18385 
L 257.388952 196.18385 
L 257.388952 195.397932 
L 257.687586 195.397932 
L 257.687586 194.612013 
L 258.216677 194.612013 
L 258.291447 193.040176 
L 258.602738 193.040176 
L 258.602738 192.254257 
L 258.730197 192.254257 
L 258.730197 191.468339 
L 259.425995 191.468339 
L 259.478307 189.896502 
L 259.5884 189.896502 
L 259.5884 189.110583 
L 260.866155 189.110583 
L 260.895841 176.535886 
L 261.298526 176.535886 
L 261.298526 175.749967 
L 261.43043 175.749967 
L 261.43043 174.964048 
L 261.681592 174.964048 
L 261.681592 174.17813 
L 262.785797 174.17813 
L 262.785797 173.392211 
L 267.437641 173.392211 
L 267.437641 172.606293 
L 267.979165 172.606293 
L 267.979165 171.820374 
L 268.342443 171.820374 
L 268.342443 171.034455 
L 268.52271 171.034455 
L 268.52271 170.248537 
L 268.895702 170.248537 
L 268.895702 169.462618 
L 269.31481 169.462618 
L 269.418813 166.318944 
L 269.841199 166.318944 
L 269.897755 163.17527 
L 270.382472 163.17527 
L 270.38365 161.603432 
L 270.495783 161.603432 
L 270.514179 160.031595 
L 270.952131 160.031595 
L 271.028325 158.459758 
L 271.124535 158.459758 
L 271.175347 156.887921 
L 271.285486 156.887921 
L 271.285486 156.102002 
L 271.605484 156.102002 
L 271.64211 154.530165 
L 271.913325 154.530165 
L 271.967116 152.958328 
L 272.103029 152.958328 
L 272.170527 151.386491 
L 272.300854 151.386491 
L 272.300854 150.600572 
L 272.434951 150.600572 
L 272.434951 149.814653 
L 273.007684 149.814653 
L 273.007684 149.028735 
L 273.288073 149.028735 
L 273.288073 148.242816 
L 273.749111 148.242816 
L 273.749111 147.456898 
L 274.003147 147.456898 
L 274.003147 146.670979 
L 274.52197 146.670979 
L 274.52197 145.885061 
L 275.949632 145.885061 
L 275.949632 145.099142 
L 276.136027 145.099142 
L 276.136027 144.313223 
L 276.787607 144.313223 
L 276.869669 142.741386 
L 276.967074 142.741386 
L 276.967074 141.955468 
L 277.087838 141.955468 
L 277.087838 141.169549 
L 277.204048 141.169549 
L 277.261874 139.597712 
L 277.622553 139.597712 
L 277.622553 138.811793 
L 277.737748 138.811793 
L 277.840618 137.239956 
L 277.892919 137.239956 
L 277.977698 134.8822 
L 278.3421 134.8822 
L 278.3421 134.096282 
L 278.474649 134.096282 
L 278.474649 133.310363 
L 278.600228 133.310363 
L 278.6701 130.952607 
L 278.763801 130.952607 
L 278.805209 129.38077 
L 278.878739 129.38077 
L 278.979596 127.808933 
L 279.025541 127.808933 
L 279.06822 125.451177 
L 279.28849 125.451177 
L 279.356712 123.87934 
L 279.408362 123.87934 
L 279.478704 122.307503 
L 279.545939 122.307503 
L 279.572627 120.735666 
L 279.842169 120.735666 
L 279.873408 118.37791 
L 280.018852 118.37791 
L 280.033783 116.020154 
L 280.196323 116.020154 
L 280.200078 114.448317 
L 280.310701 114.448317 
L 280.418999 112.090561 
L 280.440825 112.090561 
L 280.487423 110.518724 
L 280.612071 110.518724 
L 280.622371 108.946887 
L 280.740605 108.946887 
L 280.740605 108.160968 
L 280.979086 108.160968 
L 281.014881 106.589131 
L 281.155707 106.589131 
L 281.156482 105.017294 
L 281.62189 105.017294 
L 281.62189 104.231375 
L 281.791251 104.231375 
L 281.791251 103.445457 
L 282.88389 103.445457 
L 282.925305 101.087701 
L 283.622314 101.087701 
L 283.622314 100.301782 
L 284.374963 100.301782 
L 284.374963 99.515864 
L 284.495884 99.515864 
L 284.495884 98.729945 
L 285.642669 98.729945 
L 285.642669 97.944026 
L 286.578927 97.944026 
L 286.578927 97.158108 
L 287.013651 97.158108 
L 287.013651 96.372189 
L 287.66097 96.372189 
L 287.66097 95.586271 
L 290.054486 95.586271 
L 290.054486 94.800352 
L 290.194016 94.800352 
L 290.194016 94.014433 
L 290.41596 94.014433 
L 290.41596 93.228515 
L 291.09974 93.228515 
L 291.09974 92.442596 
L 291.296558 92.442596 
L 291.296558 91.656678 
L 291.614724 91.656678 
L 291.705422 89.298922 
L 292.151053 89.298922 
L 292.151053 88.513003 
L 292.304501 88.513003 
L 292.335896 86.941166 
L 292.563907 86.941166 
L 292.563907 86.155248 
L 292.885459 86.155248 
L 292.905357 84.58341 
L 294.303331 84.58341 
L 294.303331 83.797492 
L 298.750042 83.797492 
L 298.750042 83.011573 
L 299.046263 83.011573 
L 299.046263 82.225655 
L 304.359039 82.225655 
L 304.359039 81.439736 
L 315.864182 81.439736 
L 315.864182 69.650957 
L 318.524154 69.650957 
L 318.524154 68.865039 
L 319.483667 68.865039 
L 319.483667 68.07912 
L 319.737758 68.07912 
L 319.737758 67.293201 
L 320.354151 67.293201 
L 320.354151 66.507283 
L 320.880497 66.507283 
L 320.880497 65.721364 
L 323.281736 65.721364 
L 323.281736 64.935446 
L 323.513122 64.935446 
L 323.513122 64.149527 
L 324.225578 64.149527 
L 324.225578 63.363608 
L 326.139772 63.363608 
L 326.219329 61.791771 
L 326.871731 61.791771 
L 326.928725 60.219934 
L 327.91131 60.219934 
L 327.960671 58.648097 
L 328.181206 58.648097 
L 328.181206 57.862178 
L 330.460071 57.862178 
L 330.460071 57.07626 
L 331.45718 57.07626 
L 331.45718 56.290341 
L 331.840186 56.290341 
L 331.840186 55.504422 
L 332.523575 55.504422 
L 332.523575 54.718504 
L 336.667513 54.718504 
L 336.667513 53.932585 
L 337.498056 53.932585 
L 337.498056 53.146667 
L 339.456102 53.146667 
L 339.456102 52.360748 
L 343.256958 52.360748 
L 343.256958 51.574829 
L 346.328396 51.574829 
L 346.328396 50.788911 
L 347.132033 50.788911 
L 347.136585 49.217074 
L 347.579441 49.217074 
L 347.579441 48.431155 
L 347.981249 48.431155 
L 347.981249 47.645237 
L 353.281109 47.645237 
L 353.281109 46.859318 
L 353.627646 46.859318 
L 353.627646 46.073399 
L 354.667699 46.073399 
L 354.667699 45.287481 
L 356.748098 45.287481 
L 356.748098 44.501562 
L 358.512708 44.501562 
L 358.512708 43.715644 
L 358.987116 43.715644 
L 358.987116 42.929725 
L 359.695243 42.929725 
L 359.695243 42.143806 
L 364.130829 42.143806 
L 364.130829 41.357888 
L 365.848486 41.357888 
L 365.848486 40.571969 
L 366.384459 40.571969 
L 366.384459 39.786051 
L 367.374225 39.786051 
L 367.374225 39.000132 
L 367.785941 39.000132 
L 367.785941 38.214213 
L 368.472995 38.214213 
L 368.555477 36.642376 
L 369.555533 36.642376 
L 369.555533 35.856458 
L 370.64316 35.856458 
L 370.64316 35.070539 
L 370.847467 35.070539 
L 370.847467 34.28462 
L 371.229209 34.28462 
L 371.229209 33.498702 
L 372.628633 33.498702 
L 372.628633 32.712783 
L 372.895896 32.712783 
L 372.895896 31.926865 
L 373.741612 31.926865 
L 373.849163 29.569109 
L 373.981792 29.569109 
L 373.981792 28.78319 
L 374.462742 28.78319 
L 374.492601 27.211353 
L 374.978473 27.211353 
L 374.978473 26.425435 
L 375.973143 26.425435 
L 375.973143 25.639516 
L 376.408406 25.639516 
L 376.408406 24.853597 
L 376.938191 24.853597 
L 376.938191 24.067679 
L 377.151287 24.067679 
L 377.151287 23.28176 
L 377.444471 23.28176 
L 377.444471 22.495842 
L 378.182711 22.495842 
L 378.182711 21.709923 
L 378.446868 21.709923 
L 378.446868 20.924004 
L 381.445049 20.924004 
L 381.445049 20.138086 
L 409.440053 20.138086 
L 409.440053 19.352167 
L 409.988667 19.352167 
L 409.988667 18.566249 
L 414.700345 18.566249 
L 414.700345 17.78033 
L 415.840025 17.78033 
L 415.840025 16.994411 
L 416.064573 16.994411 
L 416.064573 16.208493 
L 416.973016 16.208493 
L 416.973016 15.422574 
L 418.117567 15.422574 
L 418.117567 14.636656 
L 418.253287 14.636656 
L 418.325493 13.064818 
L 418.636804 13.064818 
L 418.636804 12.2789 
L 418.873176 12.2789 
L 418.873176 11.492981 
L 419.144681 11.492981 
L 419.144681 10.707063 
L 420.612787 10.707063 
L 420.612787 9.921144 
L 420.801948 9.921144 
L 420.801948 9.135226 
L 422.817586 9.135226 
L 422.817586 8.349307 
L 422.817586 8.349307 
L 450.672 8.349307 
L 450.672 8.349307 
" style="fill:none;stroke:#000000;stroke-linecap:square;stroke-width:1.5;"/>
   </g>
   <g id="line2d_27">
    <path clip-path="url(#pdc3279bcde)" d="M 192.716646 291.28 
L 192.716646 279.491221 
L 224.000189 279.491221 
L 224.000189 278.705303 
L 224.168812 278.705303 
L 224.18807 277.133465 
L 224.940418 277.133465 
L 224.940418 276.347547 
L 226.014549 276.347547 
L 226.014549 275.561628 
L 226.154434 275.561628 
L 226.154434 274.77571 
L 226.561717 274.77571 
L 226.561717 273.989791 
L 227.259098 273.989791 
L 227.259098 273.203872 
L 227.906553 273.203872 
L 227.967022 270.846117 
L 228.168267 270.846117 
L 228.228737 269.274279 
L 228.623681 269.274279 
L 228.623681 268.488361 
L 229.415981 268.488361 
L 229.415981 267.702442 
L 233.993645 267.702442 
L 233.993645 266.916524 
L 234.751661 266.916524 
L 234.751661 266.130605 
L 234.988122 266.130605 
L 234.988122 265.344686 
L 235.347297 265.344686 
L 235.347297 264.558768 
L 235.597301 264.558768 
L 235.670943 262.986931 
L 236.088324 262.986931 
L 236.097729 261.415094 
L 236.525917 261.415094 
L 236.525917 260.629175 
L 237.201553 260.629175 
L 237.219672 259.057338 
L 237.313105 259.057338 
L 237.313105 258.271419 
L 238.488048 258.271419 
L 238.488048 257.485501 
L 239.039336 257.485501 
L 239.039336 256.699582 
L 241.242932 256.699582 
L 241.242932 255.913663 
L 242.979326 255.913663 
L 242.988833 254.341826 
L 243.377316 254.341826 
L 243.377316 253.555908 
L 244.109114 253.555908 
L 244.109114 252.769989 
L 245.623471 252.769989 
L 245.623471 251.98407 
L 245.844592 251.98407 
L 245.913204 250.412233 
L 246.090356 250.412233 
L 246.090356 249.626315 
L 246.241259 249.626315 
L 246.300323 248.054477 
L 246.606278 248.054477 
L 246.674161 246.48264 
L 247.268753 246.48264 
L 247.268753 245.696722 
L 247.58491 245.696722 
L 247.58491 244.910803 
L 247.792634 244.910803 
L 247.792634 244.124884 
L 247.915001 244.124884 
L 247.915001 243.338966 
L 248.143597 243.338966 
L 248.143597 242.553047 
L 248.299281 242.553047 
L 248.370402 240.98121 
L 248.423782 240.98121 
L 248.423782 240.195292 
L 248.839974 240.195292 
L 248.914527 238.623454 
L 249.07294 238.623454 
L 249.07294 237.837536 
L 249.210053 237.837536 
L 249.282289 236.265699 
L 249.631278 236.265699 
L 249.682785 234.693861 
L 249.780005 234.693861 
L 249.872143 232.336106 
L 250.845299 232.336106 
L 250.845299 231.550187 
L 251.068042 231.550187 
L 251.068042 230.764268 
L 251.285536 230.764268 
L 251.380076 228.406513 
L 251.559607 228.406513 
L 251.644416 226.834675 
L 251.845597 226.834675 
L 251.845597 226.048757 
L 252.0016 226.048757 
L 252.092261 224.47692 
L 252.139714 224.47692 
L 252.139714 223.691001 
L 253.923001 223.691001 
L 253.923001 222.905083 
L 254.424878 222.905083 
L 254.49436 221.333245 
L 254.668481 221.333245 
L 254.668481 220.547327 
L 254.90166 220.547327 
L 254.959356 218.97549 
L 255.038815 218.97549 
L 255.116926 216.617734 
L 255.187864 216.617734 
L 255.24343 214.259978 
L 255.299155 214.259978 
L 255.40111 212.688141 
L 255.437328 212.688141 
L 255.437328 211.902222 
L 255.636791 211.902222 
L 255.744781 206.400792 
L 255.779198 206.400792 
L 255.779198 205.614873 
L 255.92326 205.614873 
L 255.995669 203.257118 
L 256.044952 203.257118 
L 256.153525 200.899362 
L 256.212699 200.899362 
L 256.317076 197.755688 
L 256.373696 197.755688 
L 256.373696 196.969769 
L 257.176143 196.969769 
L 257.179302 195.397932 
L 257.388952 195.397932 
L 257.388952 194.612013 
L 257.687586 194.612013 
L 257.687586 193.826095 
L 258.216677 193.826095 
L 258.216677 193.040176 
L 258.602738 193.040176 
L 258.602738 192.254257 
L 258.730197 192.254257 
L 258.730197 191.468339 
L 258.94941 191.468339 
L 258.94941 190.68242 
L 259.279273 190.68242 
L 259.279273 189.896502 
L 259.425995 189.896502 
L 259.425995 189.110583 
L 259.5884 189.110583 
L 259.5884 188.324664 
L 260.866155 188.324664 
L 260.957312 174.17813 
L 261.046244 174.17813 
L 261.046244 173.392211 
L 261.298526 173.392211 
L 261.298526 172.606293 
L 261.43043 172.606293 
L 261.43043 171.820374 
L 261.681592 171.820374 
L 261.716387 170.248537 
L 262.210092 170.248537 
L 262.210092 169.462618 
L 263.27267 169.462618 
L 263.321066 167.890781 
L 263.463872 167.890781 
L 263.463872 167.104862 
L 263.836448 167.104862 
L 263.836448 166.318944 
L 264.396945 166.318944 
L 264.396945 165.533025 
L 264.551787 165.533025 
L 264.551787 164.747107 
L 264.819505 164.747107 
L 264.819505 163.961188 
L 265.564976 163.961188 
L 265.564976 163.17527 
L 265.795808 163.17527 
L 265.795808 162.389351 
L 266.002559 162.389351 
L 266.002559 161.603432 
L 266.15659 161.603432 
L 266.15659 160.817514 
L 268.617256 160.817514 
L 268.617256 160.031595 
L 269.332471 160.031595 
L 269.418813 158.459758 
L 269.981785 158.459758 
L 269.981785 157.673839 
L 270.514179 157.673839 
L 270.514179 156.887921 
L 270.952131 156.887921 
L 270.952131 156.102002 
L 271.124535 156.102002 
L 271.175347 154.530165 
L 271.285486 154.530165 
L 271.285486 153.744246 
L 271.605484 153.744246 
L 271.64211 152.172409 
L 271.913325 152.172409 
L 271.967116 150.600572 
L 272.103029 150.600572 
L 272.170527 149.028735 
L 272.300854 149.028735 
L 272.300854 148.242816 
L 272.434951 148.242816 
L 272.434951 147.456898 
L 273.007684 147.456898 
L 273.007684 146.670979 
L 273.288073 146.670979 
L 273.288073 145.885061 
L 273.749111 145.885061 
L 273.749111 145.099142 
L 274.003147 145.099142 
L 274.003147 144.313223 
L 274.52197 144.313223 
L 274.52197 143.527305 
L 275.949632 143.527305 
L 275.949632 142.741386 
L 276.136027 142.741386 
L 276.136027 141.955468 
L 276.787607 141.955468 
L 276.869669 140.38363 
L 276.928354 140.38363 
L 276.967074 138.811793 
L 277.087838 138.811793 
L 277.087838 138.025875 
L 277.204048 138.025875 
L 277.261874 136.454037 
L 277.622553 136.454037 
L 277.622553 135.668119 
L 277.737748 135.668119 
L 277.737748 134.8822 
L 277.892919 134.8822 
L 277.977698 132.524444 
L 278.3421 132.524444 
L 278.391001 130.952607 
L 278.474649 130.952607 
L 278.54209 128.594851 
L 278.600228 128.594851 
L 278.6701 126.237096 
L 278.763801 126.237096 
L 278.805209 124.665259 
L 278.878739 124.665259 
L 278.979596 122.307503 
L 279.044703 122.307503 
L 279.06822 120.735666 
L 279.28849 120.735666 
L 279.356712 119.163828 
L 279.408362 119.163828 
L 279.497357 116.806073 
L 279.545175 116.806073 
L 279.572627 114.448317 
L 279.842169 114.448317 
L 279.873408 112.090561 
L 280.006334 112.090561 
L 280.033783 109.732805 
L 280.196323 109.732805 
L 280.200078 108.160968 
L 280.310701 108.160968 
L 280.418999 105.803212 
L 280.487423 105.803212 
L 280.487423 105.017294 
L 280.612071 105.017294 
L 280.708167 102.659538 
L 281.156482 102.659538 
L 281.156482 101.873619 
L 281.791251 101.873619 
L 281.791251 101.087701 
L 282.355163 101.087701 
L 282.355163 100.301782 
L 282.729233 100.301782 
L 282.729233 99.515864 
L 283.622314 99.515864 
L 283.622314 98.729945 
L 283.910521 98.729945 
L 283.997243 97.158108 
L 284.444163 97.158108 
L 284.444163 96.372189 
L 285.049848 96.372189 
L 285.049848 95.586271 
L 285.642669 95.586271 
L 285.642669 94.800352 
L 286.578927 94.800352 
L 286.578927 94.014433 
L 287.66097 94.014433 
L 287.66097 93.228515 
L 290.054486 93.228515 
L 290.054486 92.442596 
L 290.194016 92.442596 
L 290.194016 91.656678 
L 290.41596 91.656678 
L 290.41596 90.870759 
L 291.09974 90.870759 
L 291.09974 90.08484 
L 291.296558 90.08484 
L 291.296558 89.298922 
L 291.614724 89.298922 
L 291.705422 86.941166 
L 292.147331 86.941166 
L 292.245875 84.58341 
L 292.304501 84.58341 
L 292.335896 83.011573 
L 292.726243 83.011573 
L 292.726243 82.225655 
L 293.053624 82.225655 
L 293.053624 81.439736 
L 296.669299 81.439736 
L 296.669299 80.653817 
L 298.637844 80.653817 
L 298.637844 79.867899 
L 304.359039 79.867899 
L 304.359039 79.08198 
L 313.52051 79.08198 
L 313.52051 78.296062 
L 315.249154 78.296062 
L 315.249154 77.510143 
L 315.864182 77.510143 
L 315.864182 66.507283 
L 319.483667 66.507283 
L 319.483667 65.721364 
L 319.737758 65.721364 
L 319.737758 64.935446 
L 320.354151 64.935446 
L 320.354151 64.149527 
L 323.281736 64.149527 
L 323.281736 63.363608 
L 324.225578 63.363608 
L 324.225578 62.57769 
L 326.219329 62.57769 
L 326.219329 61.791771 
L 326.871731 61.791771 
L 326.928725 60.219934 
L 327.389775 60.219934 
L 327.389775 59.434015 
L 327.91131 59.434015 
L 327.960671 57.862178 
L 328.181206 57.862178 
L 328.181206 57.07626 
L 330.460071 57.07626 
L 330.460071 56.290341 
L 331.45718 56.290341 
L 331.45718 55.504422 
L 331.840186 55.504422 
L 331.840186 54.718504 
L 332.523575 54.718504 
L 332.523575 53.932585 
L 336.667513 53.932585 
L 336.667513 53.146667 
L 339.456102 53.146667 
L 339.456102 52.360748 
L 341.636919 52.360748 
L 341.636919 51.574829 
L 341.766967 51.574829 
L 341.766967 50.788911 
L 342.246461 50.788911 
L 342.246461 50.002992 
L 343.256958 50.002992 
L 343.256958 49.217074 
L 346.573149 49.217074 
L 346.573149 48.431155 
L 347.136585 48.431155 
L 347.136585 47.645237 
L 347.588855 47.645237 
L 347.588855 46.859318 
L 347.981249 46.859318 
L 347.981249 46.073399 
L 348.296083 46.073399 
L 348.296083 45.287481 
L 354.340812 45.287481 
L 354.340812 44.501562 
L 356.515715 44.501562 
L 356.515715 43.715644 
L 357.069031 43.715644 
L 357.069031 42.929725 
L 358.512708 42.929725 
L 358.512708 42.143806 
L 359.695243 42.143806 
L 359.695243 41.357888 
L 362.76115 41.357888 
L 362.76115 40.571969 
L 363.10231 40.571969 
L 363.10231 39.786051 
L 363.433997 39.786051 
L 363.433997 39.000132 
L 364.130829 39.000132 
L 364.130829 38.214213 
L 364.254546 38.214213 
L 364.254546 37.428295 
L 364.571403 37.428295 
L 364.571403 36.642376 
L 365.848486 36.642376 
L 365.848486 35.856458 
L 366.28629 35.856458 
L 366.28629 35.070539 
L 367.200709 35.070539 
L 367.200709 34.28462 
L 367.374225 34.28462 
L 367.374225 33.498702 
L 367.785941 33.498702 
L 367.785941 32.712783 
L 368.472995 32.712783 
L 368.555477 31.140946 
L 369.555533 31.140946 
L 369.555533 30.355028 
L 370.079914 30.355028 
L 370.079914 29.569109 
L 370.847467 29.569109 
L 370.847467 28.78319 
L 371.016388 28.78319 
L 371.016388 27.997272 
L 372.338926 27.997272 
L 372.338926 27.211353 
L 372.5286 27.211353 
L 372.628633 24.853597 
L 372.777999 24.853597 
L 372.835156 23.28176 
L 373.741612 23.28176 
L 373.741612 22.495842 
L 374.288152 22.495842 
L 374.288152 21.709923 
L 375.973143 21.709923 
L 375.973143 20.924004 
L 377.287391 20.924004 
L 377.287391 20.138086 
L 408.318574 20.138086 
L 408.318574 19.352167 
L 409.018934 19.352167 
L 409.018934 18.566249 
L 409.440053 18.566249 
L 409.440053 17.78033 
L 414.700345 17.78033 
L 414.700345 16.994411 
L 415.840025 16.994411 
L 415.840025 16.208493 
L 416.064573 16.208493 
L 416.064573 15.422574 
L 416.487209 15.422574 
L 416.487209 14.636656 
L 416.973016 14.636656 
L 416.973016 13.850737 
L 418.117567 13.850737 
L 418.117567 13.064818 
L 418.325493 13.064818 
L 418.325493 12.2789 
L 418.636804 12.2789 
L 418.636804 11.492981 
L 418.873176 11.492981 
L 418.873176 10.707063 
L 419.144681 10.707063 
L 419.144681 9.921144 
L 420.612787 9.921144 
L 420.612787 9.135226 
L 420.801948 9.135226 
L 420.801948 8.349307 
L 420.801948 8.349307 
L 450.672 8.349307 
L 450.672 8.349307 
" style="fill:none;stroke:#00bfbf;stroke-linecap:square;stroke-width:1.5;"/>
   </g>
   <g id="line2d_28">
    <path clip-path="url(#pdc3279bcde)" d="M 5.410598 291.28 
L 5.410598 280.27714 
L 192.716646 280.27714 
L 192.716646 268.488361 
L 221.741028 268.488361 
L 221.741028 267.702442 
L 222.811644 267.702442 
L 222.811644 266.916524 
L 223.003154 266.916524 
L 223.003154 266.130605 
L 223.493399 266.130605 
L 223.493399 265.344686 
L 223.682374 265.344686 
L 223.682374 264.558768 
L 224.000189 264.558768 
L 224.000189 263.772849 
L 224.168812 263.772849 
L 224.255093 262.201012 
L 224.60286 262.201012 
L 224.655296 260.629175 
L 225.74333 260.629175 
L 225.74333 259.843256 
L 225.914598 259.843256 
L 225.914598 259.057338 
L 226.132218 259.057338 
L 226.132218 258.271419 
L 226.295786 258.271419 
L 226.295786 257.485501 
L 226.579555 257.485501 
L 226.657047 255.913663 
L 227.676074 255.913663 
L 227.676074 255.127745 
L 227.906553 255.127745 
L 227.906553 254.341826 
L 228.684921 254.341826 
L 228.684921 253.555908 
L 229.177336 253.555908 
L 229.185425 251.98407 
L 229.649158 251.98407 
L 229.698696 250.412233 
L 230.048196 250.412233 
L 230.048196 249.626315 
L 231.035189 249.626315 
L 231.070702 248.054477 
L 232.138539 248.054477 
L 232.138539 247.268559 
L 232.678612 247.268559 
L 232.686096 245.696722 
L 232.940601 245.696722 
L 232.940601 244.910803 
L 233.631353 244.910803 
L 233.631353 244.124884 
L 234.345789 244.124884 
L 234.391539 242.553047 
L 234.843288 242.553047 
L 234.843288 241.767129 
L 235.069464 241.767129 
L 235.102278 240.195292 
L 235.465632 240.195292 
L 235.465632 239.409373 
L 237.03716 239.409373 
L 237.03716 238.623454 
L 237.653055 238.623454 
L 237.680993 237.051617 
L 238.153728 237.051617 
L 238.153728 236.265699 
L 238.341483 236.265699 
L 238.341483 235.47978 
L 238.748327 235.47978 
L 238.748327 234.693861 
L 239.859639 234.693861 
L 239.859639 233.907943 
L 240.704408 233.907943 
L 240.704408 233.122024 
L 241.263878 233.122024 
L 241.263878 232.336106 
L 241.497282 232.336106 
L 241.519153 230.764268 
L 242.015717 230.764268 
L 242.068237 229.192431 
L 242.377658 229.192431 
L 242.377658 228.406513 
L 243.00712 228.406513 
L 243.00712 227.620594 
L 243.524549 227.620594 
L 243.524549 226.834675 
L 243.966723 226.834675 
L 243.966723 226.048757 
L 244.095707 226.048757 
L 244.096663 224.47692 
L 244.348696 224.47692 
L 244.390837 222.905083 
L 244.583375 222.905083 
L 244.604764 221.333245 
L 244.742051 221.333245 
L 244.742051 220.547327 
L 244.900797 220.547327 
L 244.900797 219.761408 
L 245.096942 219.761408 
L 245.096942 218.97549 
L 245.252292 218.97549 
L 245.346048 216.617734 
L 245.492115 216.617734 
L 245.492115 215.831815 
L 245.763629 215.831815 
L 245.763629 215.045897 
L 245.88871 215.045897 
L 245.88871 214.259978 
L 246.090356 214.259978 
L 246.090356 213.474059 
L 246.307879 213.474059 
L 246.369106 211.902222 
L 246.642962 211.902222 
L 246.674161 210.330385 
L 246.85281 210.330385 
L 246.91368 208.758548 
L 246.966864 208.758548 
L 246.988722 206.400792 
L 247.693993 206.400792 
L 247.693993 205.614873 
L 247.834345 205.614873 
L 247.834345 204.828955 
L 248.028191 204.828955 
L 248.028191 204.043036 
L 248.399985 204.043036 
L 248.423782 202.471199 
L 248.894905 202.471199 
L 248.894905 201.685281 
L 249.702498 201.685281 
L 249.702498 200.899362 
L 249.870528 200.899362 
L 249.870528 200.113443 
L 250.144756 200.113443 
L 250.144756 199.327525 
L 250.397524 199.327525 
L 250.397524 198.541606 
L 250.624876 198.541606 
L 250.624876 197.755688 
L 250.750155 197.755688 
L 250.855306 196.18385 
L 250.862246 196.18385 
L 250.954302 194.612013 
L 251.100336 194.612013 
L 251.100336 193.826095 
L 251.217466 193.826095 
L 251.217466 193.040176 
L 251.415051 193.040176 
L 251.525835 191.468339 
L 251.970149 191.468339 
L 252.078673 189.896502 
L 252.254664 189.896502 
L 252.254664 189.110583 
L 252.590513 189.110583 
L 252.590513 188.324664 
L 252.723378 188.324664 
L 252.800899 186.752827 
L 252.858868 186.752827 
L 252.9137 185.18099 
L 253.059255 185.18099 
L 253.059255 184.395072 
L 253.221852 184.395072 
L 253.283711 182.823234 
L 253.50898 182.823234 
L 253.50898 182.037316 
L 253.794127 182.037316 
L 253.89506 178.893641 
L 253.910569 178.893641 
L 253.966226 177.321804 
L 254.027453 177.321804 
L 254.027453 176.535886 
L 254.140265 176.535886 
L 254.140265 175.749967 
L 254.693563 175.749967 
L 254.740017 174.17813 
L 255.312421 174.17813 
L 255.312421 173.392211 
L 255.676682 173.392211 
L 255.676682 172.606293 
L 260.895841 172.606293 
L 260.895841 160.817514 
L 261.689745 160.817514 
L 261.689745 160.031595 
L 262.475301 160.031595 
L 262.514997 158.459758 
L 262.844067 158.459758 
L 262.844067 157.673839 
L 264.741024 157.673839 
L 264.74269 156.102002 
L 265.069129 156.102002 
L 265.069129 155.316084 
L 265.322794 155.316084 
L 265.322794 154.530165 
L 265.862038 154.530165 
L 265.952637 152.958328 
L 266.502838 152.958328 
L 266.502838 152.172409 
L 267.095663 152.172409 
L 267.095663 151.386491 
L 267.262613 151.386491 
L 267.368457 149.028735 
L 267.378195 149.028735 
L 267.383191 147.456898 
L 267.95293 147.456898 
L 267.982741 145.885061 
L 268.281979 145.885061 
L 268.281979 145.099142 
L 268.43773 145.099142 
L 268.43773 144.313223 
L 268.568016 144.313223 
L 268.571928 142.741386 
L 268.782166 142.741386 
L 268.836543 141.169549 
L 269.03412 141.169549 
L 269.055636 139.597712 
L 269.283274 139.597712 
L 269.359229 137.239956 
L 269.774396 137.239956 
L 269.774396 136.454037 
L 270.049421 136.454037 
L 270.049421 135.668119 
L 270.238286 135.668119 
L 270.238286 134.8822 
L 270.415308 134.8822 
L 270.514179 133.310363 
L 270.575956 133.310363 
L 270.685405 130.952607 
L 270.710259 130.952607 
L 270.756984 128.594851 
L 270.952131 128.594851 
L 270.952131 127.808933 
L 271.124535 127.808933 
L 271.197225 125.451177 
L 271.245196 125.451177 
L 271.284935 123.87934 
L 271.374878 123.87934 
L 271.478214 120.735666 
L 271.526638 120.735666 
L 271.592003 118.37791 
L 271.64211 118.37791 
L 271.64211 117.591991 
L 271.95631 117.591991 
L 272.021467 115.234235 
L 272.108454 115.234235 
L 272.108454 114.448317 
L 272.807937 114.448317 
L 272.825517 112.87648 
L 272.928687 112.87648 
L 272.992003 111.304642 
L 273.125934 111.304642 
L 273.125934 110.518724 
L 273.242662 110.518724 
L 273.242662 109.732805 
L 273.459581 109.732805 
L 273.558944 107.37505 
L 273.583921 107.37505 
L 273.607131 105.803212 
L 273.705252 105.803212 
L 273.705252 105.017294 
L 273.846081 105.017294 
L 273.846081 104.231375 
L 274.090028 104.231375 
L 274.090028 103.445457 
L 274.243555 103.445457 
L 274.243555 102.659538 
L 274.391268 102.659538 
L 274.444288 99.515864 
L 274.537239 99.515864 
L 274.537239 98.729945 
L 274.98025 98.729945 
L 274.98025 97.944026 
L 275.112535 97.944026 
L 275.112535 97.158108 
L 275.321935 97.158108 
L 275.36279 95.586271 
L 275.628737 95.586271 
L 275.628737 94.800352 
L 276.039892 94.800352 
L 276.079522 93.228515 
L 276.264731 93.228515 
L 276.264731 92.442596 
L 276.588054 92.442596 
L 276.664609 90.08484 
L 277.087043 90.08484 
L 277.109396 88.513003 
L 277.20921 88.513003 
L 277.20921 87.727085 
L 278.704123 87.727085 
L 278.704123 86.941166 
L 279.467516 86.941166 
L 279.467516 86.155248 
L 279.680539 86.155248 
L 279.680539 85.369329 
L 280.69675 85.369329 
L 280.723392 83.797492 
L 280.813965 83.797492 
L 280.813965 83.011573 
L 281.081528 83.011573 
L 281.081528 82.225655 
L 281.961 82.225655 
L 281.961 81.439736 
L 282.607615 81.439736 
L 282.607615 80.653817 
L 282.753016 80.653817 
L 282.753016 79.867899 
L 283.573349 79.867899 
L 283.648039 78.296062 
L 284.316218 78.296062 
L 284.316218 77.510143 
L 284.506557 77.510143 
L 284.543951 75.938306 
L 284.63 75.938306 
L 284.63 75.152387 
L 284.8705 75.152387 
L 284.929428 73.58055 
L 285.107602 73.58055 
L 285.107602 72.794631 
L 285.290347 72.794631 
L 285.290347 72.008713 
L 285.452782 72.008713 
L 285.452782 71.222794 
L 285.957546 71.222794 
L 286.030539 69.650957 
L 286.080275 69.650957 
L 286.080275 68.865039 
L 286.38624 68.865039 
L 286.399014 67.293201 
L 286.708593 67.293201 
L 286.758854 65.721364 
L 287.534237 65.721364 
L 287.534237 64.935446 
L 289.417259 64.935446 
L 289.417259 64.149527 
L 290.161229 64.149527 
L 290.161229 63.363608 
L 291.263304 63.363608 
L 291.263304 62.57769 
L 292.520923 62.57769 
L 292.588136 61.005853 
L 297.886408 61.005853 
L 297.886408 60.219934 
L 301.698928 60.219934 
L 301.698928 59.434015 
L 302.217679 59.434015 
L 302.217679 58.648097 
L 302.381278 58.648097 
L 302.381278 57.862178 
L 302.887207 57.862178 
L 302.887207 57.07626 
L 304.001594 57.07626 
L 304.001594 56.290341 
L 304.332743 56.290341 
L 304.332743 55.504422 
L 304.716557 55.504422 
L 304.716557 54.718504 
L 305.636597 54.718504 
L 305.636597 53.932585 
L 308.627721 53.932585 
L 308.627721 53.146667 
L 309.435567 53.146667 
L 309.435567 52.360748 
L 310.000005 52.360748 
L 310.000005 51.574829 
L 310.118563 51.574829 
L 310.118563 50.788911 
L 314.51948 50.788911 
L 314.51948 50.002992 
L 314.835291 50.002992 
L 314.835291 49.217074 
L 317.235406 49.217074 
L 317.235406 48.431155 
L 317.814754 48.431155 
L 317.888013 46.859318 
L 317.963622 46.859318 
L 317.963622 46.073399 
L 322.2552 46.073399 
L 322.2552 45.287481 
L 332.170668 45.287481 
L 332.170668 44.501562 
L 333.312482 44.501562 
L 333.312482 43.715644 
L 337.295826 43.715644 
L 337.295826 42.929725 
L 339.439191 42.929725 
L 339.541965 41.357888 
L 341.387998 41.357888 
L 341.387998 40.571969 
L 343.385367 40.571969 
L 343.385367 39.786051 
L 343.543828 39.786051 
L 343.639321 38.214213 
L 343.766873 38.214213 
L 343.766873 37.428295 
L 345.127451 37.428295 
L 345.127451 36.642376 
L 345.339066 36.642376 
L 345.339066 35.856458 
L 345.895304 35.856458 
L 345.895304 35.070539 
L 346.952963 35.070539 
L 346.952963 34.28462 
L 347.367258 34.28462 
L 347.367258 33.498702 
L 347.613264 33.498702 
L 347.613264 32.712783 
L 349.175261 32.712783 
L 349.175261 31.926865 
L 350.225597 31.926865 
L 350.225597 31.140946 
L 351.614967 31.140946 
L 351.614967 30.355028 
L 352.039793 30.355028 
L 352.124726 28.78319 
L 352.328916 28.78319 
L 352.328916 27.997272 
L 352.825285 27.997272 
L 352.825285 27.211353 
L 353.492714 27.211353 
L 353.492714 26.425435 
L 353.836446 26.425435 
L 353.836446 25.639516 
L 354.524562 25.639516 
L 354.524562 24.853597 
L 354.736527 24.853597 
L 354.736527 24.067679 
L 355.115799 24.067679 
L 355.115799 23.28176 
L 355.389619 23.28176 
L 355.389619 22.495842 
L 355.942946 22.495842 
L 355.942946 21.709923 
L 358.383106 21.709923 
L 358.383106 20.924004 
L 359.354726 20.924004 
L 359.354726 20.138086 
L 388.410915 20.138086 
L 388.410915 19.352167 
L 398.339656 19.352167 
L 398.339656 18.566249 
L 398.623209 18.566249 
L 398.623209 17.78033 
L 398.934481 17.78033 
L 399.044457 16.208493 
L 400.966902 16.208493 
L 400.966902 15.422574 
L 402.090895 15.422574 
L 402.090895 14.636656 
L 402.575979 14.636656 
L 402.575979 13.850737 
L 403.733698 13.850737 
L 403.733698 13.064818 
L 404.477555 13.064818 
L 404.477555 12.2789 
L 404.649926 12.2789 
L 404.649926 11.492981 
L 404.9932 11.492981 
L 404.9932 10.707063 
L 406.378849 10.707063 
L 406.378849 9.921144 
L 407.576452 9.921144 
L 407.576452 9.135226 
L 408.225023 9.135226 
L 408.225023 8.349307 
L 408.225023 8.349307 
L 450.672 8.349307 
L 450.672 8.349307 
" style="fill:none;stroke:#bf00bf;stroke-linecap:square;stroke-width:1.5;"/>
   </g>
   <g id="patch_3">
    <path d="M 5.52 291.28 
L 5.52 5.52 
" style="fill:none;stroke:#000000;stroke-linecap:square;stroke-linejoin:miter;stroke-width:0.8;"/>
   </g>
   <g id="patch_4">
    <path d="M 450.672 291.28 
L 450.672 5.52 
" style="fill:none;stroke:#000000;stroke-linecap:square;stroke-linejoin:miter;stroke-width:0.8;"/>
   </g>
   <g id="patch_5">
    <path d="M 5.52 291.28 
L 450.672 291.28 
" style="fill:none;stroke:#000000;stroke-linecap:square;stroke-linejoin:miter;stroke-width:0.8;"/>
   </g>
   <g id="patch_6">
    <path d="M 5.52 5.52 
L 450.672 5.52 
" style="fill:none;stroke:#000000;stroke-linecap:square;stroke-linejoin:miter;stroke-width:0.8;"/>
   </g>
   <g id="text_6">
    <!-- {f1-f24}, 20-D -->
    <defs>
     <path d="M 51.125 -9.28125 
L 51.125 -16.3125 
L 48.09375 -16.3125 
Q 35.9375 -16.3125 31.8125 -12.6875 
Q 27.6875 -9.078125 27.6875 1.703125 
L 27.6875 13.375 
Q 27.6875 20.75 25.046875 23.578125 
Q 22.40625 26.421875 15.484375 26.421875 
L 12.5 26.421875 
L 12.5 33.40625 
L 15.484375 33.40625 
Q 22.46875 33.40625 25.078125 36.203125 
Q 27.6875 39.015625 27.6875 46.296875 
L 27.6875 58.015625 
Q 27.6875 68.796875 31.8125 72.390625 
Q 35.9375 75.984375 48.09375 75.984375 
L 51.125 75.984375 
L 51.125 69 
L 47.796875 69 
Q 40.921875 69 38.8125 66.84375 
Q 36.71875 64.703125 36.71875 57.8125 
L 36.71875 45.703125 
Q 36.71875 38.03125 34.5 34.5625 
Q 32.28125 31.109375 26.90625 29.890625 
Q 32.328125 28.5625 34.515625 25.09375 
Q 36.71875 21.625 36.71875 14.015625 
L 36.71875 1.90625 
Q 36.71875 -4.984375 38.8125 -7.125 
Q 40.921875 -9.28125 47.796875 -9.28125 
z
" id="DejaVuSans-7b"/>
     <path d="M 19.1875 8.296875 
L 53.609375 8.296875 
L 53.609375 0 
L 7.328125 0 
L 7.328125 8.296875 
Q 12.9375 14.109375 22.625 23.890625 
Q 32.328125 33.6875 34.8125 36.53125 
Q 39.546875 41.84375 41.421875 45.53125 
Q 43.3125 49.21875 43.3125 52.78125 
Q 43.3125 58.59375 39.234375 62.25 
Q 35.15625 65.921875 28.609375 65.921875 
Q 23.96875 65.921875 18.8125 64.3125 
Q 13.671875 62.703125 7.8125 59.421875 
L 7.8125 69.390625 
Q 13.765625 71.78125 18.9375 73 
Q 24.125 74.21875 28.421875 74.21875 
Q 39.75 74.21875 46.484375 68.546875 
Q 53.21875 62.890625 53.21875 53.421875 
Q 53.21875 48.921875 51.53125 44.890625 
Q 49.859375 40.875 45.40625 35.40625 
Q 44.1875 33.984375 37.640625 27.21875 
Q 31.109375 20.453125 19.1875 8.296875 
z
" id="DejaVuSans-32"/>
     <path d="M 12.5 -9.28125 
L 15.921875 -9.28125 
Q 22.75 -9.28125 24.828125 -7.171875 
Q 26.90625 -5.078125 26.90625 1.90625 
L 26.90625 14.015625 
Q 26.90625 21.625 29.09375 25.09375 
Q 31.296875 28.5625 36.71875 29.890625 
Q 31.296875 31.109375 29.09375 34.5625 
Q 26.90625 38.03125 26.90625 45.703125 
L 26.90625 57.8125 
Q 26.90625 64.75 24.828125 66.875 
Q 22.75 69 15.921875 69 
L 12.5 69 
L 12.5 75.984375 
L 15.578125 75.984375 
Q 27.734375 75.984375 31.8125 72.390625 
Q 35.890625 68.796875 35.890625 58.015625 
L 35.890625 46.296875 
Q 35.890625 39.015625 38.515625 36.203125 
Q 41.15625 33.40625 48.09375 33.40625 
L 51.125 33.40625 
L 51.125 26.421875 
L 48.09375 26.421875 
Q 41.15625 26.421875 38.515625 23.578125 
Q 35.890625 20.75 35.890625 13.375 
L 35.890625 1.703125 
Q 35.890625 -9.078125 31.8125 -12.6875 
Q 27.734375 -16.3125 15.578125 -16.3125 
L 12.5 -16.3125 
z
" id="DejaVuSans-7d"/>
     <path d="M 11.71875 12.40625 
L 22.015625 12.40625 
L 22.015625 4 
L 14.015625 -11.625 
L 7.71875 -11.625 
L 11.71875 4 
z
" id="DejaVuSans-2c"/>
    </defs>
    <g transform="translate(296.06896 285.5648)scale(0.2 -0.2)">
     <use xlink:href="#DejaVuSans-7b"/>
     <use x="63.623047" xlink:href="#DejaVuSans-66"/>
     <use x="98.828125" xlink:href="#DejaVuSans-31"/>
     <use x="162.451172" xlink:href="#DejaVuSans-2d"/>
     <use x="198.535156" xlink:href="#DejaVuSans-66"/>
     <use x="233.740234" xlink:href="#DejaVuSans-32"/>
     <use x="297.363281" xlink:href="#DejaVuSans-34"/>
     <use x="360.986328" xlink:href="#DejaVuSans-7d"/>
     <use x="424.609375" xlink:href="#DejaVuSans-2c"/>
     <use x="456.396484" xlink:href="#DejaVuSans-20"/>
     <use x="488.183594" xlink:href="#DejaVuSans-32"/>
     <use x="551.806641" xlink:href="#DejaVuSans-30"/>
     <use x="615.429688" xlink:href="#DejaVuSans-2d"/>
     <use x="651.513672" xlink:href="#DejaVuSans-44"/>
    </g>
   </g>
   <g id="text_7">
    <!-- v0.0.0 -->
    <defs>
     <path d="M 2.984375 54.6875 
L 12.5 54.6875 
L 29.59375 8.796875 
L 46.6875 54.6875 
L 56.203125 54.6875 
L 35.6875 0 
L 23.484375 0 
z
" id="DejaVuSans-76"/>
     <path d="M 10.6875 12.40625 
L 21 12.40625 
L 21 0 
L 10.6875 0 
z
" id="DejaVuSans-2e"/>
    </defs>
    <g style="fill:#808080;" transform="translate(212.41475 286.342713)scale(0.1 -0.1)">
     <use xlink:href="#DejaVuSans-76"/>
     <use x="59.179688" xlink:href="#DejaVuSans-30"/>
     <use x="122.802734" xlink:href="#DejaVuSans-2e"/>
     <use x="154.589844" xlink:href="#DejaVuSans-30"/>
     <use x="218.212891" xlink:href="#DejaVuSans-2e"/>
     <use x="250" xlink:href="#DejaVuSans-30"/>
    </g>
   </g>
  </g>
 </g>
 <defs>
  <clipPath id="pdc3279bcde">
   <rect height="285.76" width="445.152" x="5.52" y="5.52"/>
  </clipPath>
 </defs>
</svg>
