<?xml version="1.0" encoding="utf-8" standalone="no"?>
<!DOCTYPE svg PUBLIC "-//W3C//DTD SVG 1.1//EN"
  "http://www.w3.org/Graphics/SVG/1.1/DTD/svg11.dtd">
<!-- Created with matplotlib (http://matplotlib.org/) -->
<svg height="345.6pt" version="1.1" viewBox="0 0 460.8 345.6" width="460.8pt" xmlns="http://www.w3.org/2000/svg" xmlns:xlink="http://www.w3.org/1999/xlink">
 <defs>
  <style type="text/css">
*{stroke-linecap:butt;stroke-linejoin:round;}
  </style>
 </defs>
 <g id="figure_1">
  <g id="patch_1">
   <path d="M 0 345.6 
L 460.8 345.6 
L 460.8 0 
L 0 0 
z
" style="fill:#ffffff;"/>
  </g>
  <g id="axes_1">
   <g id="patch_2">
    <path d="M 5.52 291.28 
L 450.672 291.28 
L 450.672 5.52 
L 5.52 5.52 
z
" style="fill:#ffffff;"/>
   </g>
   <g id="matplotlib.axis_1">
    <g id="xtick_1">
     <g id="line2d_1">
      <path clip-path="url(#p6b20853093)" d="M 5.410598 291.28 
L 5.410598 5.52 
" style="fill:none;stroke:#b0b0b0;stroke-linecap:square;stroke-width:0.8;"/>
     </g>
     <g id="line2d_2">
      <defs>
       <path d="M 0 0 
L 0 3.5 
" id="m8c2bb2f492" style="stroke:#000000;stroke-width:0.8;"/>
      </defs>
      <g>
       <use style="stroke:#000000;stroke-width:0.8;" x="5.410598" xlink:href="#m8c2bb2f492" y="291.28"/>
      </g>
     </g>
    </g>
    <g id="xtick_2">
     <g id="line2d_3">
      <path clip-path="url(#p6b20853093)" d="M 106.676422 291.28 
L 106.676422 5.52 
" style="fill:none;stroke:#b0b0b0;stroke-linecap:square;stroke-width:0.8;"/>
     </g>
     <g id="line2d_4">
      <g>
       <use style="stroke:#000000;stroke-width:0.8;" x="106.676422" xlink:href="#m8c2bb2f492" y="291.28"/>
      </g>
     </g>
     <g id="text_1">
      <!-- -4 -->
      <defs>
       <path d="M 4.890625 31.390625 
L 31.203125 31.390625 
L 31.203125 23.390625 
L 4.890625 23.390625 
z
" id="DejaVuSans-2d"/>
       <path d="M 37.796875 64.3125 
L 12.890625 25.390625 
L 37.796875 25.390625 
z
M 35.203125 72.90625 
L 47.609375 72.90625 
L 47.609375 25.390625 
L 58.015625 25.390625 
L 58.015625 17.1875 
L 47.609375 17.1875 
L 47.609375 0 
L 37.796875 0 
L 37.796875 17.1875 
L 4.890625 17.1875 
L 4.890625 26.703125 
z
" id="DejaVuSans-34"/>
      </defs>
      <g transform="translate(96.70611 313.476875)scale(0.2 -0.2)">
       <use xlink:href="#DejaVuSans-2d"/>
       <use x="36.083984" xlink:href="#DejaVuSans-34"/>
      </g>
     </g>
    </g>
    <g id="xtick_3">
     <g id="line2d_5">
      <path clip-path="url(#p6b20853093)" d="M 207.942247 291.28 
L 207.942247 5.52 
" style="fill:none;stroke:#b0b0b0;stroke-linecap:square;stroke-width:0.8;"/>
     </g>
     <g id="line2d_6">
      <g>
       <use style="stroke:#000000;stroke-width:0.8;" x="207.942247" xlink:href="#m8c2bb2f492" y="291.28"/>
      </g>
     </g>
     <g id="text_2">
      <!-- 0 -->
      <defs>
       <path d="M 31.78125 66.40625 
Q 24.171875 66.40625 20.328125 58.90625 
Q 16.5 51.421875 16.5 36.375 
Q 16.5 21.390625 20.328125 13.890625 
Q 24.171875 6.390625 31.78125 6.390625 
Q 39.453125 6.390625 43.28125 13.890625 
Q 47.125 21.390625 47.125 36.375 
Q 47.125 51.421875 43.28125 58.90625 
Q 39.453125 66.40625 31.78125 66.40625 
z
M 31.78125 74.21875 
Q 44.046875 74.21875 50.515625 64.515625 
Q 56.984375 54.828125 56.984375 36.375 
Q 56.984375 17.96875 50.515625 8.265625 
Q 44.046875 -1.421875 31.78125 -1.421875 
Q 19.53125 -1.421875 13.0625 8.265625 
Q 6.59375 17.96875 6.59375 36.375 
Q 6.59375 54.828125 13.0625 64.515625 
Q 19.53125 74.21875 31.78125 74.21875 
z
" id="DejaVuSans-30"/>
      </defs>
      <g transform="translate(201.579747 313.476875)scale(0.2 -0.2)">
       <use xlink:href="#DejaVuSans-30"/>
      </g>
     </g>
    </g>
    <g id="xtick_4">
     <g id="line2d_7">
      <path clip-path="url(#p6b20853093)" d="M 309.208071 291.28 
L 309.208071 5.52 
" style="fill:none;stroke:#b0b0b0;stroke-linecap:square;stroke-width:0.8;"/>
     </g>
     <g id="line2d_8">
      <g>
       <use style="stroke:#000000;stroke-width:0.8;" x="309.208071" xlink:href="#m8c2bb2f492" y="291.28"/>
      </g>
     </g>
     <g id="text_3">
      <!-- 4 -->
      <g transform="translate(302.845571 313.476875)scale(0.2 -0.2)">
       <use xlink:href="#DejaVuSans-34"/>
      </g>
     </g>
    </g>
    <g id="xtick_5">
     <g id="line2d_9">
      <path clip-path="url(#p6b20853093)" d="M 410.473895 291.28 
L 410.473895 5.52 
" style="fill:none;stroke:#b0b0b0;stroke-linecap:square;stroke-width:0.8;"/>
     </g>
     <g id="line2d_10">
      <g>
       <use style="stroke:#000000;stroke-width:0.8;" x="410.473895" xlink:href="#m8c2bb2f492" y="291.28"/>
      </g>
     </g>
     <g id="text_4">
      <!-- 8 -->
      <defs>
       <path d="M 31.78125 34.625 
Q 24.75 34.625 20.71875 30.859375 
Q 16.703125 27.09375 16.703125 20.515625 
Q 16.703125 13.921875 20.71875 10.15625 
Q 24.75 6.390625 31.78125 6.390625 
Q 38.8125 6.390625 42.859375 10.171875 
Q 46.921875 13.96875 46.921875 20.515625 
Q 46.921875 27.09375 42.890625 30.859375 
Q 38.875 34.625 31.78125 34.625 
z
M 21.921875 38.8125 
Q 15.578125 40.375 12.03125 44.71875 
Q 8.5 49.078125 8.5 55.328125 
Q 8.5 64.0625 14.71875 69.140625 
Q 20.953125 74.21875 31.78125 74.21875 
Q 42.671875 74.21875 48.875 69.140625 
Q 55.078125 64.0625 55.078125 55.328125 
Q 55.078125 49.078125 51.53125 44.71875 
Q 48 40.375 41.703125 38.8125 
Q 48.828125 37.15625 52.796875 32.3125 
Q 56.78125 27.484375 56.78125 20.515625 
Q 56.78125 9.90625 50.3125 4.234375 
Q 43.84375 -1.421875 31.78125 -1.421875 
Q 19.734375 -1.421875 13.25 4.234375 
Q 6.78125 9.90625 6.78125 20.515625 
Q 6.78125 27.484375 10.78125 32.3125 
Q 14.796875 37.15625 21.921875 38.8125 
z
M 18.3125 54.390625 
Q 18.3125 48.734375 21.84375 45.5625 
Q 25.390625 42.390625 31.78125 42.390625 
Q 38.140625 42.390625 41.71875 45.5625 
Q 45.3125 48.734375 45.3125 54.390625 
Q 45.3125 60.0625 41.71875 63.234375 
Q 38.140625 66.40625 31.78125 66.40625 
Q 25.390625 66.40625 21.84375 63.234375 
Q 18.3125 60.0625 18.3125 54.390625 
z
" id="DejaVuSans-38"/>
      </defs>
      <g transform="translate(404.111395 313.476875)scale(0.2 -0.2)">
       <use xlink:href="#DejaVuSans-38"/>
      </g>
     </g>
    </g>
    <g id="text_5">
     <!-- log10 of Df -->
     <defs>
      <path d="M 9.421875 75.984375 
L 18.40625 75.984375 
L 18.40625 0 
L 9.421875 0 
z
" id="DejaVuSans-6c"/>
      <path d="M 30.609375 48.390625 
Q 23.390625 48.390625 19.1875 42.75 
Q 14.984375 37.109375 14.984375 27.296875 
Q 14.984375 17.484375 19.15625 11.84375 
Q 23.34375 6.203125 30.609375 6.203125 
Q 37.796875 6.203125 41.984375 11.859375 
Q 46.1875 17.53125 46.1875 27.296875 
Q 46.1875 37.015625 41.984375 42.703125 
Q 37.796875 48.390625 30.609375 48.390625 
z
M 30.609375 56 
Q 42.328125 56 49.015625 48.375 
Q 55.71875 40.765625 55.71875 27.296875 
Q 55.71875 13.875 49.015625 6.21875 
Q 42.328125 -1.421875 30.609375 -1.421875 
Q 18.84375 -1.421875 12.171875 6.21875 
Q 5.515625 13.875 5.515625 27.296875 
Q 5.515625 40.765625 12.171875 48.375 
Q 18.84375 56 30.609375 56 
z
" id="DejaVuSans-6f"/>
      <path d="M 45.40625 27.984375 
Q 45.40625 37.75 41.375 43.109375 
Q 37.359375 48.484375 30.078125 48.484375 
Q 22.859375 48.484375 18.828125 43.109375 
Q 14.796875 37.75 14.796875 27.984375 
Q 14.796875 18.265625 18.828125 12.890625 
Q 22.859375 7.515625 30.078125 7.515625 
Q 37.359375 7.515625 41.375 12.890625 
Q 45.40625 18.265625 45.40625 27.984375 
z
M 54.390625 6.78125 
Q 54.390625 -7.171875 48.1875 -13.984375 
Q 42 -20.796875 29.203125 -20.796875 
Q 24.46875 -20.796875 20.265625 -20.09375 
Q 16.0625 -19.390625 12.109375 -17.921875 
L 12.109375 -9.1875 
Q 16.0625 -11.328125 19.921875 -12.34375 
Q 23.78125 -13.375 27.78125 -13.375 
Q 36.625 -13.375 41.015625 -8.765625 
Q 45.40625 -4.15625 45.40625 5.171875 
L 45.40625 9.625 
Q 42.625 4.78125 38.28125 2.390625 
Q 33.9375 0 27.875 0 
Q 17.828125 0 11.671875 7.65625 
Q 5.515625 15.328125 5.515625 27.984375 
Q 5.515625 40.671875 11.671875 48.328125 
Q 17.828125 56 27.875 56 
Q 33.9375 56 38.28125 53.609375 
Q 42.625 51.21875 45.40625 46.390625 
L 45.40625 54.6875 
L 54.390625 54.6875 
z
" id="DejaVuSans-67"/>
      <path d="M 12.40625 8.296875 
L 28.515625 8.296875 
L 28.515625 63.921875 
L 10.984375 60.40625 
L 10.984375 69.390625 
L 28.421875 72.90625 
L 38.28125 72.90625 
L 38.28125 8.296875 
L 54.390625 8.296875 
L 54.390625 0 
L 12.40625 0 
z
" id="DejaVuSans-31"/>
      <path id="DejaVuSans-20"/>
      <path d="M 37.109375 75.984375 
L 37.109375 68.5 
L 28.515625 68.5 
Q 23.6875 68.5 21.796875 66.546875 
Q 19.921875 64.59375 19.921875 59.515625 
L 19.921875 54.6875 
L 34.71875 54.6875 
L 34.71875 47.703125 
L 19.921875 47.703125 
L 19.921875 0 
L 10.890625 0 
L 10.890625 47.703125 
L 2.296875 47.703125 
L 2.296875 54.6875 
L 10.890625 54.6875 
L 10.890625 58.5 
Q 10.890625 67.625 15.140625 71.796875 
Q 19.390625 75.984375 28.609375 75.984375 
z
" id="DejaVuSans-66"/>
      <path d="M 19.671875 64.796875 
L 19.671875 8.109375 
L 31.59375 8.109375 
Q 46.6875 8.109375 53.6875 14.9375 
Q 60.6875 21.78125 60.6875 36.53125 
Q 60.6875 51.171875 53.6875 57.984375 
Q 46.6875 64.796875 31.59375 64.796875 
z
M 9.8125 72.90625 
L 30.078125 72.90625 
Q 51.265625 72.90625 61.171875 64.09375 
Q 71.09375 55.28125 71.09375 36.53125 
Q 71.09375 17.671875 61.125 8.828125 
Q 51.171875 0 30.078125 0 
L 9.8125 0 
z
" id="DejaVuSans-44"/>
     </defs>
     <g transform="translate(172.910063 336.833125)scale(0.2 -0.2)">
      <use xlink:href="#DejaVuSans-6c"/>
      <use x="27.783203" xlink:href="#DejaVuSans-6f"/>
      <use x="88.964844" xlink:href="#DejaVuSans-67"/>
      <use x="152.441406" xlink:href="#DejaVuSans-31"/>
      <use x="216.064453" xlink:href="#DejaVuSans-30"/>
      <use x="279.6875" xlink:href="#DejaVuSans-20"/>
      <use x="311.474609" xlink:href="#DejaVuSans-6f"/>
      <use x="372.65625" xlink:href="#DejaVuSans-66"/>
      <use x="407.861328" xlink:href="#DejaVuSans-20"/>
      <use x="439.648438" xlink:href="#DejaVuSans-44"/>
      <use x="516.650391" xlink:href="#DejaVuSans-66"/>
     </g>
    </g>
   </g>
   <g id="matplotlib.axis_2">
    <g id="ytick_1">
     <g id="line2d_11">
      <path clip-path="url(#p6b20853093)" d="M 5.52 291.28 
L 450.672 291.28 
" style="fill:none;stroke:#b0b0b0;stroke-linecap:square;stroke-width:0.8;"/>
     </g>
     <g id="line2d_12">
      <defs>
       <path d="M 0 0 
L -3.5 0 
" id="m8b94202926" style="stroke:#000000;stroke-width:0.8;"/>
      </defs>
      <g>
       <use style="stroke:#000000;stroke-width:0.8;" x="5.52" xlink:href="#m8b94202926" y="291.28"/>
      </g>
     </g>
    </g>
    <g id="ytick_2">
     <g id="line2d_13">
      <path clip-path="url(#p6b20853093)" d="M 5.52 234.693861 
L 450.672 234.693861 
" style="fill:none;stroke:#b0b0b0;stroke-linecap:square;stroke-width:0.8;"/>
     </g>
     <g id="line2d_14">
      <g>
       <use style="stroke:#000000;stroke-width:0.8;" x="5.52" xlink:href="#m8b94202926" y="234.693861"/>
      </g>
     </g>
    </g>
    <g id="ytick_3">
     <g id="line2d_15">
      <path clip-path="url(#p6b20853093)" d="M 5.52 178.107723 
L 450.672 178.107723 
" style="fill:none;stroke:#b0b0b0;stroke-linecap:square;stroke-width:0.8;"/>
     </g>
     <g id="line2d_16">
      <g>
       <use style="stroke:#000000;stroke-width:0.8;" x="5.52" xlink:href="#m8b94202926" y="178.107723"/>
      </g>
     </g>
    </g>
    <g id="ytick_4">
     <g id="line2d_17">
      <path clip-path="url(#p6b20853093)" d="M 5.52 121.521584 
L 450.672 121.521584 
" style="fill:none;stroke:#b0b0b0;stroke-linecap:square;stroke-width:0.8;"/>
     </g>
     <g id="line2d_18">
      <g>
       <use style="stroke:#000000;stroke-width:0.8;" x="5.52" xlink:href="#m8b94202926" y="121.521584"/>
      </g>
     </g>
    </g>
    <g id="ytick_5">
     <g id="line2d_19">
      <path clip-path="url(#p6b20853093)" d="M 5.52 64.935446 
L 450.672 64.935446 
" style="fill:none;stroke:#b0b0b0;stroke-linecap:square;stroke-width:0.8;"/>
     </g>
     <g id="line2d_20">
      <g>
       <use style="stroke:#000000;stroke-width:0.8;" x="5.52" xlink:href="#m8b94202926" y="64.935446"/>
      </g>
     </g>
    </g>
    <g id="ytick_6">
     <g id="line2d_21">
      <path clip-path="url(#p6b20853093)" d="M 5.52 8.349307 
L 450.672 8.349307 
" style="fill:none;stroke:#b0b0b0;stroke-linecap:square;stroke-width:0.8;"/>
     </g>
     <g id="line2d_22">
      <g>
       <use style="stroke:#000000;stroke-width:0.8;" x="5.52" xlink:href="#m8b94202926" y="8.349307"/>
      </g>
     </g>
    </g>
   </g>
   <g id="line2d_23">
    <path clip-path="url(#p6b20853093)" d="M 222.53773 291.28 
L 222.53773 287.507591 
L 227.01839 287.507591 
L 227.01839 283.735182 
L 228.022572 283.735182 
L 228.116129 276.190363 
L 229.395324 276.190363 
L 229.395324 272.417954 
L 229.715654 272.417954 
L 229.715654 268.645545 
L 230.120761 268.645545 
L 230.120761 264.873135 
L 230.975124 264.873135 
L 230.975124 261.100726 
L 231.193783 261.100726 
L 231.193783 257.328317 
L 233.88346 257.328317 
L 233.942214 249.783498 
L 234.164854 249.783498 
L 234.164854 246.011089 
L 234.377489 246.011089 
L 234.377489 242.23868 
L 237.011328 242.23868 
L 237.011328 238.466271 
L 237.485713 238.466271 
L 237.485713 234.693861 
L 263.963523 234.693861 
L 263.963523 230.921452 
L 265.598464 230.921452 
L 265.598464 227.149043 
L 266.570025 227.149043 
L 266.570025 223.376634 
L 266.988467 223.376634 
L 266.988467 219.604224 
L 267.103027 219.604224 
L 267.103027 215.831815 
L 267.804962 215.831815 
L 267.804962 212.059406 
L 268.511949 212.059406 
L 268.511949 208.286997 
L 269.212157 208.286997 
L 269.212157 204.514587 
L 269.359908 204.514587 
L 269.359908 200.742178 
L 270.667806 200.742178 
L 270.667806 196.969769 
L 271.244928 196.969769 
L 271.24602 189.42495 
L 273.461563 189.42495 
L 273.461563 185.652541 
L 273.957101 185.652541 
L 273.957101 181.880132 
L 274.513729 181.880132 
L 274.513729 178.107723 
L 274.823953 178.107723 
L 274.823953 174.335314 
L 276.265722 174.335314 
L 276.265722 170.562904 
L 278.183583 170.562904 
L 278.183583 166.790495 
L 278.912148 166.790495 
L 278.912148 163.018086 
L 280.209808 163.018086 
L 280.209808 159.245677 
L 280.664669 159.245677 
L 280.696546 151.700858 
L 280.944679 151.700858 
L 280.944679 147.928449 
L 281.694569 147.928449 
L 281.731804 140.38363 
L 281.830882 140.38363 
L 281.830882 136.611221 
L 282.837436 136.611221 
L 282.837436 132.838812 
L 283.027748 132.838812 
L 283.027748 129.066403 
L 283.825476 129.066403 
L 283.825476 125.293993 
L 284.602245 125.293993 
L 284.602245 121.521584 
L 322.965013 121.521584 
L 322.965013 117.749175 
L 330.56763 117.749175 
L 330.56763 113.976766 
L 330.754021 113.976766 
L 330.754021 110.204356 
L 334.935023 110.204356 
L 334.935023 106.431947 
L 335.37628 106.431947 
L 335.37628 102.659538 
L 338.673226 102.659538 
L 338.673226 98.887129 
L 338.859715 98.887129 
L 338.859715 95.114719 
L 339.754867 95.114719 
L 339.754867 91.34231 
L 339.977196 91.34231 
L 339.977196 87.569901 
L 342.986796 87.569901 
L 342.986796 83.797492 
L 344.049598 83.797492 
L 344.049598 80.025083 
L 344.894304 80.025083 
L 344.894304 76.252673 
L 345.129502 76.252673 
L 345.129502 72.480264 
L 345.380849 72.480264 
L 345.380849 68.707855 
L 348.194215 68.707855 
L 348.194215 64.935446 
L 382.156663 64.935446 
L 382.156663 61.163036 
L 384.196863 61.163036 
L 384.196863 57.390627 
L 385.781688 57.390627 
L 385.781688 53.618218 
L 386.826927 53.618218 
L 386.826927 49.845809 
L 387.696339 49.845809 
L 387.696339 46.073399 
L 388.227135 46.073399 
L 388.227135 42.30099 
L 388.949659 42.30099 
L 388.949659 38.528581 
L 389.369612 38.528581 
L 389.414779 30.983762 
L 390.31548 30.983762 
L 390.31548 27.211353 
L 390.681742 27.211353 
L 390.681742 23.438944 
L 392.000954 23.438944 
L 392.000954 19.666535 
L 392.197484 19.666535 
L 392.197484 15.894125 
L 392.330682 15.894125 
L 392.330682 12.121716 
L 394.781791 12.121716 
L 394.781791 8.349307 
L 394.781791 8.349307 
L 450.672 8.349307 
L 450.672 8.349307 
" style="fill:none;stroke:#ff0000;stroke-linecap:square;stroke-width:3;"/>
   </g>
   <g id="line2d_24">
    <path clip-path="url(#p6b20853093)" d="M 239.039336 291.28 
L 239.039336 287.507591 
L 242.979326 287.507591 
L 242.979326 283.735182 
L 244.997801 283.735182 
L 244.997801 279.962772 
L 247.268753 279.962772 
L 247.268753 276.190363 
L 247.58491 276.190363 
L 247.58491 272.417954 
L 248.299281 272.417954 
L 248.299281 268.645545 
L 250.307972 268.645545 
L 250.307972 264.873135 
L 250.470299 264.873135 
L 250.470299 261.100726 
L 251.129672 261.100726 
L 251.129672 257.328317 
L 251.285536 257.328317 
L 251.380076 249.783498 
L 251.548211 249.783498 
L 251.548211 246.011089 
L 253.446768 246.011089 
L 253.446768 242.23868 
L 254.833438 242.23868 
L 254.833438 238.466271 
L 258.331562 238.466271 
L 258.331562 234.693861 
L 288.153727 234.693861 
L 288.153727 230.921452 
L 290.054486 230.921452 
L 290.054486 227.149043 
L 290.194016 227.149043 
L 290.194016 223.376634 
L 291.09974 223.376634 
L 291.09974 219.604224 
L 291.364475 219.604224 
L 291.364475 215.831815 
L 291.614724 215.831815 
L 291.614724 212.059406 
L 291.880506 212.059406 
L 291.880506 208.286997 
L 292.563907 208.286997 
L 292.603888 196.969769 
L 292.770542 196.969769 
L 292.770542 193.19736 
L 292.987862 193.19736 
L 292.987862 189.42495 
L 293.516399 189.42495 
L 293.516399 185.652541 
L 293.742327 185.652541 
L 293.781173 178.107723 
L 294.587639 178.107723 
L 294.587639 174.335314 
L 314.988985 174.335314 
L 314.988985 170.562904 
L 320.841072 170.562904 
L 320.841072 166.790495 
L 324.682769 166.790495 
L 324.682769 163.018086 
L 324.870438 163.018086 
L 324.870438 159.245677 
L 325.380098 159.245677 
L 325.380098 155.473267 
L 330.169914 155.473267 
L 330.193402 147.928449 
L 341.42534 147.928449 
L 341.42534 144.15604 
L 345.890388 144.15604 
L 345.890388 140.38363 
L 346.724858 140.38363 
L 346.724858 136.611221 
L 346.979786 136.611221 
L 346.979786 132.838812 
L 360.817896 132.838812 
L 360.817896 129.066403 
L 361.809095 129.066403 
L 361.809095 125.293993 
L 364.130829 125.293993 
L 364.130829 121.521584 
L 367.374225 121.521584 
L 367.374225 117.749175 
L 369.046521 117.749175 
L 369.046521 113.976766 
L 369.229248 113.976766 
L 369.229248 110.204356 
L 370.225985 110.204356 
L 370.225985 106.431947 
L 370.376825 106.431947 
L 370.376825 102.659538 
L 372.102537 102.659538 
L 372.102537 98.887129 
L 372.817475 98.887129 
L 372.817475 95.114719 
L 374.45432 95.114719 
L 374.492601 87.569901 
L 375.657368 87.569901 
L 375.657368 83.797492 
L 377.448152 83.797492 
L 377.506191 76.252673 
L 379.926885 76.252673 
L 379.926885 72.480264 
L 384.390597 72.480264 
L 384.390597 68.707855 
L 390.785248 68.707855 
L 390.785248 64.935446 
L 409.440053 64.935446 
L 409.440053 61.163036 
L 409.988667 61.163036 
L 409.988667 57.390627 
L 414.198844 57.390627 
L 414.198844 53.618218 
L 415.840025 53.618218 
L 415.840025 49.845809 
L 416.064573 49.845809 
L 416.064573 46.073399 
L 416.79362 46.073399 
L 416.79362 42.30099 
L 416.973016 42.30099 
L 416.973016 38.528581 
L 418.325493 38.528581 
L 418.325493 34.756172 
L 419.82133 34.756172 
L 419.82133 30.983762 
L 422.024132 30.983762 
L 422.024132 27.211353 
L 423.934185 27.211353 
L 423.934185 23.438944 
L 424.251021 23.438944 
L 424.251021 19.666535 
L 426.481826 19.666535 
L 426.481826 15.894125 
L 429.306547 15.894125 
L 429.306547 12.121716 
L 429.469076 12.121716 
L 429.469076 8.349307 
L 429.469076 8.349307 
L 450.672 8.349307 
L 450.672 8.349307 
" style="fill:none;stroke:#00bfbf;stroke-linecap:square;stroke-width:1.5;"/>
   </g>
   <g id="line2d_25">
    <path clip-path="url(#p6b20853093)" d="M 239.039336 291.28 
L 239.039336 287.507591 
L 242.979326 287.507591 
L 242.979326 283.735182 
L 244.449048 283.735182 
L 244.449048 279.962772 
L 244.997801 279.962772 
L 244.997801 276.190363 
L 246.80287 276.190363 
L 246.80287 272.417954 
L 247.268753 272.417954 
L 247.268753 268.645545 
L 247.58491 268.645545 
L 247.58491 264.873135 
L 250.307972 264.873135 
L 250.307972 261.100726 
L 250.470299 261.100726 
L 250.470299 257.328317 
L 251.129672 257.328317 
L 251.129672 253.555908 
L 251.285536 253.555908 
L 251.380076 246.011089 
L 253.446768 246.011089 
L 253.446768 242.23868 
L 254.833438 242.23868 
L 254.833438 238.466271 
L 258.331562 238.466271 
L 258.331562 234.693861 
L 280.143869 234.693861 
L 280.143869 230.921452 
L 288.153727 230.921452 
L 288.153727 227.149043 
L 288.745954 227.149043 
L 288.745954 223.376634 
L 289.692279 223.376634 
L 289.692279 219.604224 
L 290.054486 219.604224 
L 290.054486 215.831815 
L 290.194016 215.831815 
L 290.194016 212.059406 
L 291.09974 212.059406 
L 291.09974 208.286997 
L 291.614724 208.286997 
L 291.614724 204.514587 
L 291.880506 204.514587 
L 291.880506 200.742178 
L 292.379104 200.742178 
L 292.379104 196.969769 
L 292.555849 196.969769 
L 292.603319 185.652541 
L 292.770542 185.652541 
L 292.770542 181.880132 
L 293.516399 181.880132 
L 293.516399 178.107723 
L 293.781173 178.107723 
L 293.781173 174.335314 
L 294.135766 174.335314 
L 294.135766 170.562904 
L 295.488109 170.562904 
L 295.488109 166.790495 
L 302.735506 166.790495 
L 302.735506 163.018086 
L 306.653051 163.018086 
L 306.653051 159.245677 
L 314.946758 159.245677 
L 314.946758 155.473267 
L 318.0929 155.473267 
L 318.0929 151.700858 
L 320.841072 151.700858 
L 320.841072 147.928449 
L 324.682769 147.928449 
L 324.682769 144.15604 
L 333.156642 144.15604 
L 333.156642 140.38363 
L 341.232622 140.38363 
L 341.232622 136.611221 
L 346.979786 136.611221 
L 346.979786 132.838812 
L 348.875769 132.838812 
L 348.875769 129.066403 
L 357.256098 129.066403 
L 357.256098 125.293993 
L 361.809095 125.293993 
L 361.809095 121.521584 
L 364.130829 121.521584 
L 364.130829 117.749175 
L 367.374225 117.749175 
L 367.374225 113.976766 
L 369.046521 113.976766 
L 369.046521 110.204356 
L 369.229248 110.204356 
L 369.229248 106.431947 
L 370.225985 106.431947 
L 370.225985 102.659538 
L 372.102537 102.659538 
L 372.102537 98.887129 
L 372.817475 98.887129 
L 372.817475 95.114719 
L 373.650931 95.114719 
L 373.650931 91.34231 
L 374.45432 91.34231 
L 374.492601 83.797492 
L 375.657368 83.797492 
L 375.657368 80.025083 
L 376.900203 80.025083 
L 376.900203 76.252673 
L 379.530997 76.252673 
L 379.575878 68.707855 
L 379.926885 68.707855 
L 379.926885 64.935446 
L 409.440053 64.935446 
L 409.440053 61.163036 
L 409.988667 61.163036 
L 409.988667 57.390627 
L 414.198844 57.390627 
L 414.198844 53.618218 
L 415.840025 53.618218 
L 415.840025 49.845809 
L 416.064573 49.845809 
L 416.064573 46.073399 
L 416.79362 46.073399 
L 416.79362 42.30099 
L 416.973016 42.30099 
L 416.973016 38.528581 
L 418.135382 38.528581 
L 418.135382 34.756172 
L 419.286704 34.756172 
L 419.286704 30.983762 
L 419.82133 30.983762 
L 419.82133 27.211353 
L 421.357727 27.211353 
L 421.357727 23.438944 
L 422.024132 23.438944 
L 422.024132 19.666535 
L 424.251021 19.666535 
L 424.251021 15.894125 
L 425.999578 15.894125 
L 425.999578 12.121716 
L 428.566082 12.121716 
L 428.566082 8.349307 
L 428.566082 8.349307 
L 450.672 8.349307 
L 450.672 8.349307 
" style="fill:none;stroke:#bf00bf;stroke-linecap:square;stroke-width:1.5;"/>
   </g>
   <g id="line2d_26">
    <path clip-path="url(#p6b20853093)" d="M 239.039336 291.28 
L 239.039336 287.507591 
L 242.979326 287.507591 
L 242.979326 283.735182 
L 244.449048 283.735182 
L 244.449048 279.962772 
L 244.997801 279.962772 
L 244.997801 276.190363 
L 246.80287 276.190363 
L 246.80287 272.417954 
L 247.268753 272.417954 
L 247.268753 268.645545 
L 247.58491 268.645545 
L 247.58491 264.873135 
L 248.507272 264.873135 
L 248.507272 261.100726 
L 249.662162 261.100726 
L 249.662162 257.328317 
L 250.307972 257.328317 
L 250.307972 253.555908 
L 250.909392 253.555908 
L 250.997219 246.011089 
L 251.285536 246.011089 
L 251.380076 238.466271 
L 251.87638 238.466271 
L 251.87638 234.693861 
L 267.180911 234.693861 
L 267.180911 230.921452 
L 268.511949 230.921452 
L 268.511949 227.149043 
L 272.290809 227.149043 
L 272.290809 223.376634 
L 281.511175 223.376634 
L 281.511175 219.604224 
L 285.530712 219.604224 
L 285.530712 215.831815 
L 288.153727 215.831815 
L 288.153727 212.059406 
L 288.745954 212.059406 
L 288.745954 208.286997 
L 289.692279 208.286997 
L 289.692279 204.514587 
L 290.030887 204.514587 
L 290.030887 200.742178 
L 290.194016 200.742178 
L 290.194016 196.969769 
L 291.09974 196.969769 
L 291.109713 189.42495 
L 291.211295 189.42495 
L 291.211295 185.652541 
L 291.326632 185.652541 
L 291.326632 181.880132 
L 291.880506 181.880132 
L 291.880506 178.107723 
L 292.555849 178.107723 
L 292.563907 170.562904 
L 292.770542 170.562904 
L 292.770542 166.790495 
L 293.516399 166.790495 
L 293.516399 163.018086 
L 293.781173 163.018086 
L 293.865629 155.473267 
L 299.036568 155.473267 
L 299.036568 151.700858 
L 305.599739 151.700858 
L 305.599739 147.928449 
L 311.790254 147.928449 
L 311.790254 144.15604 
L 311.995108 144.15604 
L 311.995108 140.38363 
L 313.81805 140.38363 
L 313.81805 136.611221 
L 314.44354 136.611221 
L 314.44354 132.838812 
L 314.946758 132.838812 
L 314.946758 129.066403 
L 315.661532 129.066403 
L 315.661532 125.293993 
L 333.156642 125.293993 
L 333.156642 121.521584 
L 364.130829 121.521584 
L 364.140185 113.976766 
L 367.374225 113.976766 
L 367.374225 110.204356 
L 367.981604 110.204356 
L 367.981604 106.431947 
L 368.331668 106.431947 
L 368.331668 102.659538 
L 369.229248 102.659538 
L 369.229248 98.887129 
L 370.327576 98.887129 
L 370.327576 95.114719 
L 371.589446 95.114719 
L 371.62015 87.569901 
L 372.511841 87.569901 
L 372.511841 83.797492 
L 374.439227 83.797492 
L 374.45432 76.252673 
L 375.657368 76.252673 
L 375.657368 72.480264 
L 375.978246 72.480264 
L 375.978246 68.707855 
L 378.805069 68.707855 
L 378.805069 64.935446 
L 408.58794 64.935446 
L 408.58794 61.163036 
L 409.440053 61.163036 
L 409.440053 57.390627 
L 409.988667 57.390627 
L 409.988667 53.618218 
L 414.198844 53.618218 
L 414.198844 49.845809 
L 414.795557 49.845809 
L 414.795557 46.073399 
L 415.139466 46.073399 
L 415.139466 42.30099 
L 416.064573 42.30099 
L 416.064573 38.528581 
L 416.79362 38.528581 
L 416.79362 34.756172 
L 416.973016 34.756172 
L 416.973016 30.983762 
L 417.828896 30.983762 
L 417.855721 23.438944 
L 418.211112 23.438944 
L 418.211112 19.666535 
L 419.832832 19.666535 
L 419.832832 15.894125 
L 422.024132 15.894125 
L 422.024132 12.121716 
L 425.562948 12.121716 
L 425.562948 8.349307 
L 425.562948 8.349307 
L 450.672 8.349307 
L 450.672 8.349307 
" style="fill:none;stroke:#000000;stroke-linecap:square;stroke-width:1.5;"/>
   </g>
   <g id="line2d_27">
    <path clip-path="url(#p6b20853093)" d="M 239.039336 291.28 
L 239.039336 287.507591 
L 242.979326 287.507591 
L 242.979326 283.735182 
L 244.161509 283.735182 
L 244.161509 279.962772 
L 244.449048 279.962772 
L 244.449048 276.190363 
L 244.997801 276.190363 
L 244.997801 272.417954 
L 247.268753 272.417954 
L 247.268753 268.645545 
L 247.58491 268.645545 
L 247.58491 264.873135 
L 248.507272 264.873135 
L 248.507272 261.100726 
L 249.376382 261.100726 
L 249.376382 257.328317 
L 249.662162 257.328317 
L 249.669395 249.783498 
L 250.677765 249.783498 
L 250.677765 246.011089 
L 250.909392 246.011089 
L 250.909392 242.23868 
L 251.285536 242.23868 
L 251.380076 234.693861 
L 267.180911 234.693861 
L 267.180911 230.921452 
L 268.511949 230.921452 
L 268.511949 227.149043 
L 272.290809 227.149043 
L 272.290809 223.376634 
L 278.409437 223.376634 
L 278.409437 219.604224 
L 279.154731 219.604224 
L 279.154731 215.831815 
L 281.270463 215.831815 
L 281.270463 212.059406 
L 281.511175 212.059406 
L 281.511175 208.286997 
L 282.598225 208.286997 
L 282.598225 204.514587 
L 285.530712 204.514587 
L 285.530712 200.742178 
L 287.051528 200.742178 
L 287.051528 196.969769 
L 288.153727 196.969769 
L 288.153727 193.19736 
L 288.745954 193.19736 
L 288.745954 189.42495 
L 289.692279 189.42495 
L 289.692279 185.652541 
L 290.030887 185.652541 
L 290.030887 181.880132 
L 290.189398 181.880132 
L 290.194016 174.335314 
L 291.09974 174.335314 
L 291.109713 166.790495 
L 291.211295 166.790495 
L 291.211295 163.018086 
L 291.326632 163.018086 
L 291.326632 159.245677 
L 291.880506 159.245677 
L 291.880506 155.473267 
L 292.186868 155.473267 
L 292.186868 151.700858 
L 292.555849 151.700858 
L 292.555849 147.928449 
L 292.856071 147.928449 
L 292.856071 144.15604 
L 293.516399 144.15604 
L 293.527993 136.611221 
L 294.696487 136.611221 
L 294.696487 132.838812 
L 295.520157 132.838812 
L 295.520157 129.066403 
L 311.186696 129.066403 
L 311.186696 125.293993 
L 314.946758 125.293993 
L 314.946758 121.521584 
L 363.916145 121.521584 
L 363.916145 117.749175 
L 364.130829 117.749175 
L 364.175524 106.431947 
L 365.741807 106.431947 
L 365.827861 98.887129 
L 366.360943 98.887129 
L 366.360943 95.114719 
L 366.473866 95.114719 
L 366.473866 91.34231 
L 367.981604 91.34231 
L 367.981604 87.569901 
L 368.331668 87.569901 
L 368.331668 83.797492 
L 369.229248 83.797492 
L 369.229248 80.025083 
L 371.414896 80.025083 
L 371.414896 76.252673 
L 371.62015 76.252673 
L 371.62015 72.480264 
L 371.942193 72.480264 
L 371.942193 68.707855 
L 375.26006 68.707855 
L 375.26006 64.935446 
L 408.58794 64.935446 
L 408.58794 61.163036 
L 409.440053 61.163036 
L 409.440053 57.390627 
L 409.988667 57.390627 
L 409.988667 53.618218 
L 412.765469 53.618218 
L 412.765469 49.845809 
L 414.198844 49.845809 
L 414.198844 46.073399 
L 414.795557 46.073399 
L 414.795557 42.30099 
L 415.139466 42.30099 
L 415.139466 38.528581 
L 416.064573 38.528581 
L 416.064573 34.756172 
L 416.454351 34.756172 
L 416.454351 30.983762 
L 416.79362 30.983762 
L 416.79362 27.211353 
L 416.973016 27.211353 
L 416.973016 23.438944 
L 417.374667 23.438944 
L 417.374667 19.666535 
L 417.828896 19.666535 
L 417.855721 12.121716 
L 418.211112 12.121716 
L 418.211112 8.349307 
L 418.211112 8.349307 
L 450.672 8.349307 
L 450.672 8.349307 
" style="fill:none;stroke:#00bfbf;stroke-linecap:square;stroke-width:1.5;"/>
   </g>
   <g id="line2d_28">
    <path clip-path="url(#p6b20853093)" d="M 232.31254 291.28 
L 232.31254 287.507591 
L 232.806805 287.507591 
L 232.806805 283.735182 
L 234.603699 283.735182 
L 234.603699 279.962772 
L 235.24807 279.962772 
L 235.24807 276.190363 
L 235.577646 276.190363 
L 235.577646 272.417954 
L 235.79438 272.417954 
L 235.79438 268.645545 
L 236.345134 268.645545 
L 236.345134 264.873135 
L 236.878252 264.873135 
L 236.878252 261.100726 
L 237.803444 261.100726 
L 237.803444 257.328317 
L 238.329598 257.328317 
L 238.329598 253.555908 
L 239.148889 253.555908 
L 239.148889 249.783498 
L 239.796301 249.783498 
L 239.796301 246.011089 
L 240.578512 246.011089 
L 240.578512 242.23868 
L 241.788119 242.23868 
L 241.880205 234.693861 
L 267.135329 234.693861 
L 267.180911 227.149043 
L 268.511949 227.149043 
L 268.511949 223.376634 
L 268.871876 223.376634 
L 268.871876 219.604224 
L 269.552593 219.604224 
L 269.552593 215.831815 
L 269.938782 215.831815 
L 269.938782 212.059406 
L 270.531977 212.059406 
L 270.531977 208.286997 
L 271.061445 208.286997 
L 271.061445 204.514587 
L 271.776964 204.514587 
L 271.776964 200.742178 
L 273.957101 200.742178 
L 274.024455 193.19736 
L 275.251005 193.19736 
L 275.251005 189.42495 
L 276.61133 189.42495 
L 276.61133 185.652541 
L 278.019588 185.652541 
L 278.019588 181.880132 
L 279.618266 181.880132 
L 279.618266 178.107723 
L 280.334826 178.107723 
L 280.334826 174.335314 
L 281.647667 174.335314 
L 281.647667 170.562904 
L 283.065076 170.562904 
L 283.065076 166.790495 
L 283.669057 166.790495 
L 283.669057 163.018086 
L 283.892404 163.018086 
L 283.892404 159.245677 
L 284.943982 159.245677 
L 284.943982 155.473267 
L 285.160972 155.473267 
L 285.160972 151.700858 
L 285.452014 151.700858 
L 285.535834 144.15604 
L 285.858324 144.15604 
L 285.858324 140.38363 
L 286.235682 140.38363 
L 286.326214 132.838812 
L 286.712269 132.838812 
L 286.712269 129.066403 
L 287.059732 129.066403 
L 287.059732 125.293993 
L 287.952157 125.293993 
L 287.952157 121.521584 
L 339.831253 121.521584 
L 339.831253 117.749175 
L 340.28201 117.749175 
L 340.28201 113.976766 
L 340.454048 113.976766 
L 340.454048 110.204356 
L 342.234256 110.204356 
L 342.234256 106.431947 
L 343.610337 106.431947 
L 343.610337 102.659538 
L 346.470828 102.659538 
L 346.470828 98.887129 
L 349.218248 98.887129 
L 349.218248 95.114719 
L 349.487938 95.114719 
L 349.487938 91.34231 
L 350.09123 91.34231 
L 350.09123 87.569901 
L 351.047605 87.569901 
L 351.047605 83.797492 
L 351.291157 83.797492 
L 351.291157 80.025083 
L 351.968098 80.025083 
L 351.968098 76.252673 
L 354.526625 76.252673 
L 354.526625 72.480264 
L 356.953687 72.480264 
L 356.953687 68.707855 
L 357.44326 68.707855 
L 357.44326 64.935446 
L 396.067492 64.935446 
L 396.067492 61.163036 
L 396.240836 61.163036 
L 396.240836 57.390627 
L 398.422351 57.390627 
L 398.422351 53.618218 
L 398.903696 53.618218 
L 398.915813 46.073399 
L 399.157045 46.073399 
L 399.157045 42.30099 
L 399.338651 42.30099 
L 399.338651 38.528581 
L 399.558584 38.528581 
L 399.558584 34.756172 
L 400.664966 34.756172 
L 400.664966 30.983762 
L 402.034439 30.983762 
L 402.034439 27.211353 
L 402.708392 27.211353 
L 402.708392 23.438944 
L 403.684765 23.438944 
L 403.684765 19.666535 
L 404.503892 19.666535 
L 404.503892 15.894125 
L 404.773231 15.894125 
L 404.773231 12.121716 
L 405.759903 12.121716 
L 405.759903 8.349307 
L 405.759903 8.349307 
L 450.672 8.349307 
L 450.672 8.349307 
" style="fill:none;stroke:#bf00bf;stroke-linecap:square;stroke-width:1.5;"/>
   </g>
   <g id="patch_3">
    <path d="M 5.52 291.28 
L 5.52 5.52 
" style="fill:none;stroke:#000000;stroke-linecap:square;stroke-linejoin:miter;stroke-width:0.8;"/>
   </g>
   <g id="patch_4">
    <path d="M 450.672 291.28 
L 450.672 5.52 
" style="fill:none;stroke:#000000;stroke-linecap:square;stroke-linejoin:miter;stroke-width:0.8;"/>
   </g>
   <g id="patch_5">
    <path d="M 5.52 291.28 
L 450.672 291.28 
" style="fill:none;stroke:#000000;stroke-linecap:square;stroke-linejoin:miter;stroke-width:0.8;"/>
   </g>
   <g id="patch_6">
    <path d="M 5.52 5.52 
L 450.672 5.52 
" style="fill:none;stroke:#000000;stroke-linecap:square;stroke-linejoin:miter;stroke-width:0.8;"/>
   </g>
   <g id="text_6">
    <!-- {f10-f14}, 20-D -->
    <defs>
     <path d="M 51.125 -9.28125 
L 51.125 -16.3125 
L 48.09375 -16.3125 
Q 35.9375 -16.3125 31.8125 -12.6875 
Q 27.6875 -9.078125 27.6875 1.703125 
L 27.6875 13.375 
Q 27.6875 20.75 25.046875 23.578125 
Q 22.40625 26.421875 15.484375 26.421875 
L 12.5 26.421875 
L 12.5 33.40625 
L 15.484375 33.40625 
Q 22.46875 33.40625 25.078125 36.203125 
Q 27.6875 39.015625 27.6875 46.296875 
L 27.6875 58.015625 
Q 27.6875 68.796875 31.8125 72.390625 
Q 35.9375 75.984375 48.09375 75.984375 
L 51.125 75.984375 
L 51.125 69 
L 47.796875 69 
Q 40.921875 69 38.8125 66.84375 
Q 36.71875 64.703125 36.71875 57.8125 
L 36.71875 45.703125 
Q 36.71875 38.03125 34.5 34.5625 
Q 32.28125 31.109375 26.90625 29.890625 
Q 32.328125 28.5625 34.515625 25.09375 
Q 36.71875 21.625 36.71875 14.015625 
L 36.71875 1.90625 
Q 36.71875 -4.984375 38.8125 -7.125 
Q 40.921875 -9.28125 47.796875 -9.28125 
z
" id="DejaVuSans-7b"/>
     <path d="M 12.5 -9.28125 
L 15.921875 -9.28125 
Q 22.75 -9.28125 24.828125 -7.171875 
Q 26.90625 -5.078125 26.90625 1.90625 
L 26.90625 14.015625 
Q 26.90625 21.625 29.09375 25.09375 
Q 31.296875 28.5625 36.71875 29.890625 
Q 31.296875 31.109375 29.09375 34.5625 
Q 26.90625 38.03125 26.90625 45.703125 
L 26.90625 57.8125 
Q 26.90625 64.75 24.828125 66.875 
Q 22.75 69 15.921875 69 
L 12.5 69 
L 12.5 75.984375 
L 15.578125 75.984375 
Q 27.734375 75.984375 31.8125 72.390625 
Q 35.890625 68.796875 35.890625 58.015625 
L 35.890625 46.296875 
Q 35.890625 39.015625 38.515625 36.203125 
Q 41.15625 33.40625 48.09375 33.40625 
L 51.125 33.40625 
L 51.125 26.421875 
L 48.09375 26.421875 
Q 41.15625 26.421875 38.515625 23.578125 
Q 35.890625 20.75 35.890625 13.375 
L 35.890625 1.703125 
Q 35.890625 -9.078125 31.8125 -12.6875 
Q 27.734375 -16.3125 15.578125 -16.3125 
L 12.5 -16.3125 
z
" id="DejaVuSans-7d"/>
     <path d="M 11.71875 12.40625 
L 22.015625 12.40625 
L 22.015625 4 
L 14.015625 -11.625 
L 7.71875 -11.625 
L 11.71875 4 
z
" id="DejaVuSans-2c"/>
     <path d="M 19.1875 8.296875 
L 53.609375 8.296875 
L 53.609375 0 
L 7.328125 0 
L 7.328125 8.296875 
Q 12.9375 14.109375 22.625 23.890625 
Q 32.328125 33.6875 34.8125 36.53125 
Q 39.546875 41.84375 41.421875 45.53125 
Q 43.3125 49.21875 43.3125 52.78125 
Q 43.3125 58.59375 39.234375 62.25 
Q 35.15625 65.921875 28.609375 65.921875 
Q 23.96875 65.921875 18.8125 64.3125 
Q 13.671875 62.703125 7.8125 59.421875 
L 7.8125 69.390625 
Q 13.765625 71.78125 18.9375 73 
Q 24.125 74.21875 28.421875 74.21875 
Q 39.75 74.21875 46.484375 68.546875 
Q 53.21875 62.890625 53.21875 53.421875 
Q 53.21875 48.921875 51.53125 44.890625 
Q 49.859375 40.875 45.40625 35.40625 
Q 44.1875 33.984375 37.640625 27.21875 
Q 31.109375 20.453125 19.1875 8.296875 
z
" id="DejaVuSans-32"/>
    </defs>
    <g transform="translate(283.34396 285.5648)scale(0.2 -0.2)">
     <use xlink:href="#DejaVuSans-7b"/>
     <use x="63.623047" xlink:href="#DejaVuSans-66"/>
     <use x="98.828125" xlink:href="#DejaVuSans-31"/>
     <use x="162.451172" xlink:href="#DejaVuSans-30"/>
     <use x="226.074219" xlink:href="#DejaVuSans-2d"/>
     <use x="262.158203" xlink:href="#DejaVuSans-66"/>
     <use x="297.363281" xlink:href="#DejaVuSans-31"/>
     <use x="360.986328" xlink:href="#DejaVuSans-34"/>
     <use x="424.609375" xlink:href="#DejaVuSans-7d"/>
     <use x="488.232422" xlink:href="#DejaVuSans-2c"/>
     <use x="520.019531" xlink:href="#DejaVuSans-20"/>
     <use x="551.806641" xlink:href="#DejaVuSans-32"/>
     <use x="615.429688" xlink:href="#DejaVuSans-30"/>
     <use x="679.052734" xlink:href="#DejaVuSans-2d"/>
     <use x="715.136719" xlink:href="#DejaVuSans-44"/>
    </g>
   </g>
   <g id="text_7">
    <!-- v0.0.0 -->
    <defs>
     <path d="M 2.984375 54.6875 
L 12.5 54.6875 
L 29.59375 8.796875 
L 46.6875 54.6875 
L 56.203125 54.6875 
L 35.6875 0 
L 23.484375 0 
z
" id="DejaVuSans-76"/>
     <path d="M 10.6875 12.40625 
L 21 12.40625 
L 21 0 
L 10.6875 0 
z
" id="DejaVuSans-2e"/>
    </defs>
    <g style="fill:#808080;" transform="translate(212.41475 286.342713)scale(0.1 -0.1)">
     <use xlink:href="#DejaVuSans-76"/>
     <use x="59.179688" xlink:href="#DejaVuSans-30"/>
     <use x="122.802734" xlink:href="#DejaVuSans-2e"/>
     <use x="154.589844" xlink:href="#DejaVuSans-30"/>
     <use x="218.212891" xlink:href="#DejaVuSans-2e"/>
     <use x="250" xlink:href="#DejaVuSans-30"/>
    </g>
   </g>
  </g>
 </g>
 <defs>
  <clipPath id="p6b20853093">
   <rect height="285.76" width="445.152" x="5.52" y="5.52"/>
  </clipPath>
 </defs>
</svg>
