<?xml version="1.0" encoding="utf-8" standalone="no"?>
<!DOCTYPE svg PUBLIC "-//W3C//DTD SVG 1.1//EN"
  "http://www.w3.org/Graphics/SVG/1.1/DTD/svg11.dtd">
<!-- Created with matplotlib (http://matplotlib.org/) -->
<svg height="345.6pt" version="1.1" viewBox="0 0 460.8 345.6" width="460.8pt" xmlns="http://www.w3.org/2000/svg" xmlns:xlink="http://www.w3.org/1999/xlink">
 <defs>
  <style type="text/css">
*{stroke-linecap:butt;stroke-linejoin:round;}
  </style>
 </defs>
 <g id="figure_1">
  <g id="patch_1">
   <path d="M 0 345.6 
L 460.8 345.6 
L 460.8 0 
L 0 0 
z
" style="fill:#ffffff;"/>
  </g>
  <g id="axes_1">
   <g id="patch_2">
    <path d="M 5.52 291.28 
L 450.672 291.28 
L 450.672 5.52 
L 5.52 5.52 
z
" style="fill:#ffffff;"/>
   </g>
   <g id="matplotlib.axis_1">
    <g id="xtick_1">
     <g id="line2d_1">
      <path clip-path="url(#p80338d4a9e)" d="M 5.410598 291.28 
L 5.410598 5.52 
" style="fill:none;stroke:#b0b0b0;stroke-linecap:square;stroke-width:0.8;"/>
     </g>
     <g id="line2d_2">
      <defs>
       <path d="M 0 0 
L 0 3.5 
" id="mdfbd11bfc9" style="stroke:#000000;stroke-width:0.8;"/>
      </defs>
      <g>
       <use style="stroke:#000000;stroke-width:0.8;" x="5.410598" xlink:href="#mdfbd11bfc9" y="291.28"/>
      </g>
     </g>
    </g>
    <g id="xtick_2">
     <g id="line2d_3">
      <path clip-path="url(#p80338d4a9e)" d="M 106.676422 291.28 
L 106.676422 5.52 
" style="fill:none;stroke:#b0b0b0;stroke-linecap:square;stroke-width:0.8;"/>
     </g>
     <g id="line2d_4">
      <g>
       <use style="stroke:#000000;stroke-width:0.8;" x="106.676422" xlink:href="#mdfbd11bfc9" y="291.28"/>
      </g>
     </g>
     <g id="text_1">
      <!-- -4 -->
      <defs>
       <path d="M 4.890625 31.390625 
L 31.203125 31.390625 
L 31.203125 23.390625 
L 4.890625 23.390625 
z
" id="DejaVuSans-2d"/>
       <path d="M 37.796875 64.3125 
L 12.890625 25.390625 
L 37.796875 25.390625 
z
M 35.203125 72.90625 
L 47.609375 72.90625 
L 47.609375 25.390625 
L 58.015625 25.390625 
L 58.015625 17.1875 
L 47.609375 17.1875 
L 47.609375 0 
L 37.796875 0 
L 37.796875 17.1875 
L 4.890625 17.1875 
L 4.890625 26.703125 
z
" id="DejaVuSans-34"/>
      </defs>
      <g transform="translate(96.70611 313.476875)scale(0.2 -0.2)">
       <use xlink:href="#DejaVuSans-2d"/>
       <use x="36.083984" xlink:href="#DejaVuSans-34"/>
      </g>
     </g>
    </g>
    <g id="xtick_3">
     <g id="line2d_5">
      <path clip-path="url(#p80338d4a9e)" d="M 207.942247 291.28 
L 207.942247 5.52 
" style="fill:none;stroke:#b0b0b0;stroke-linecap:square;stroke-width:0.8;"/>
     </g>
     <g id="line2d_6">
      <g>
       <use style="stroke:#000000;stroke-width:0.8;" x="207.942247" xlink:href="#mdfbd11bfc9" y="291.28"/>
      </g>
     </g>
     <g id="text_2">
      <!-- 0 -->
      <defs>
       <path d="M 31.78125 66.40625 
Q 24.171875 66.40625 20.328125 58.90625 
Q 16.5 51.421875 16.5 36.375 
Q 16.5 21.390625 20.328125 13.890625 
Q 24.171875 6.390625 31.78125 6.390625 
Q 39.453125 6.390625 43.28125 13.890625 
Q 47.125 21.390625 47.125 36.375 
Q 47.125 51.421875 43.28125 58.90625 
Q 39.453125 66.40625 31.78125 66.40625 
z
M 31.78125 74.21875 
Q 44.046875 74.21875 50.515625 64.515625 
Q 56.984375 54.828125 56.984375 36.375 
Q 56.984375 17.96875 50.515625 8.265625 
Q 44.046875 -1.421875 31.78125 -1.421875 
Q 19.53125 -1.421875 13.0625 8.265625 
Q 6.59375 17.96875 6.59375 36.375 
Q 6.59375 54.828125 13.0625 64.515625 
Q 19.53125 74.21875 31.78125 74.21875 
z
" id="DejaVuSans-30"/>
      </defs>
      <g transform="translate(201.579747 313.476875)scale(0.2 -0.2)">
       <use xlink:href="#DejaVuSans-30"/>
      </g>
     </g>
    </g>
    <g id="xtick_4">
     <g id="line2d_7">
      <path clip-path="url(#p80338d4a9e)" d="M 309.208071 291.28 
L 309.208071 5.52 
" style="fill:none;stroke:#b0b0b0;stroke-linecap:square;stroke-width:0.8;"/>
     </g>
     <g id="line2d_8">
      <g>
       <use style="stroke:#000000;stroke-width:0.8;" x="309.208071" xlink:href="#mdfbd11bfc9" y="291.28"/>
      </g>
     </g>
     <g id="text_3">
      <!-- 4 -->
      <g transform="translate(302.845571 313.476875)scale(0.2 -0.2)">
       <use xlink:href="#DejaVuSans-34"/>
      </g>
     </g>
    </g>
    <g id="xtick_5">
     <g id="line2d_9">
      <path clip-path="url(#p80338d4a9e)" d="M 410.473895 291.28 
L 410.473895 5.52 
" style="fill:none;stroke:#b0b0b0;stroke-linecap:square;stroke-width:0.8;"/>
     </g>
     <g id="line2d_10">
      <g>
       <use style="stroke:#000000;stroke-width:0.8;" x="410.473895" xlink:href="#mdfbd11bfc9" y="291.28"/>
      </g>
     </g>
     <g id="text_4">
      <!-- 8 -->
      <defs>
       <path d="M 31.78125 34.625 
Q 24.75 34.625 20.71875 30.859375 
Q 16.703125 27.09375 16.703125 20.515625 
Q 16.703125 13.921875 20.71875 10.15625 
Q 24.75 6.390625 31.78125 6.390625 
Q 38.8125 6.390625 42.859375 10.171875 
Q 46.921875 13.96875 46.921875 20.515625 
Q 46.921875 27.09375 42.890625 30.859375 
Q 38.875 34.625 31.78125 34.625 
z
M 21.921875 38.8125 
Q 15.578125 40.375 12.03125 44.71875 
Q 8.5 49.078125 8.5 55.328125 
Q 8.5 64.0625 14.71875 69.140625 
Q 20.953125 74.21875 31.78125 74.21875 
Q 42.671875 74.21875 48.875 69.140625 
Q 55.078125 64.0625 55.078125 55.328125 
Q 55.078125 49.078125 51.53125 44.71875 
Q 48 40.375 41.703125 38.8125 
Q 48.828125 37.15625 52.796875 32.3125 
Q 56.78125 27.484375 56.78125 20.515625 
Q 56.78125 9.90625 50.3125 4.234375 
Q 43.84375 -1.421875 31.78125 -1.421875 
Q 19.734375 -1.421875 13.25 4.234375 
Q 6.78125 9.90625 6.78125 20.515625 
Q 6.78125 27.484375 10.78125 32.3125 
Q 14.796875 37.15625 21.921875 38.8125 
z
M 18.3125 54.390625 
Q 18.3125 48.734375 21.84375 45.5625 
Q 25.390625 42.390625 31.78125 42.390625 
Q 38.140625 42.390625 41.71875 45.5625 
Q 45.3125 48.734375 45.3125 54.390625 
Q 45.3125 60.0625 41.71875 63.234375 
Q 38.140625 66.40625 31.78125 66.40625 
Q 25.390625 66.40625 21.84375 63.234375 
Q 18.3125 60.0625 18.3125 54.390625 
z
" id="DejaVuSans-38"/>
      </defs>
      <g transform="translate(404.111395 313.476875)scale(0.2 -0.2)">
       <use xlink:href="#DejaVuSans-38"/>
      </g>
     </g>
    </g>
    <g id="text_5">
     <!-- log10 of Df -->
     <defs>
      <path d="M 9.421875 75.984375 
L 18.40625 75.984375 
L 18.40625 0 
L 9.421875 0 
z
" id="DejaVuSans-6c"/>
      <path d="M 30.609375 48.390625 
Q 23.390625 48.390625 19.1875 42.75 
Q 14.984375 37.109375 14.984375 27.296875 
Q 14.984375 17.484375 19.15625 11.84375 
Q 23.34375 6.203125 30.609375 6.203125 
Q 37.796875 6.203125 41.984375 11.859375 
Q 46.1875 17.53125 46.1875 27.296875 
Q 46.1875 37.015625 41.984375 42.703125 
Q 37.796875 48.390625 30.609375 48.390625 
z
M 30.609375 56 
Q 42.328125 56 49.015625 48.375 
Q 55.71875 40.765625 55.71875 27.296875 
Q 55.71875 13.875 49.015625 6.21875 
Q 42.328125 -1.421875 30.609375 -1.421875 
Q 18.84375 -1.421875 12.171875 6.21875 
Q 5.515625 13.875 5.515625 27.296875 
Q 5.515625 40.765625 12.171875 48.375 
Q 18.84375 56 30.609375 56 
z
" id="DejaVuSans-6f"/>
      <path d="M 45.40625 27.984375 
Q 45.40625 37.75 41.375 43.109375 
Q 37.359375 48.484375 30.078125 48.484375 
Q 22.859375 48.484375 18.828125 43.109375 
Q 14.796875 37.75 14.796875 27.984375 
Q 14.796875 18.265625 18.828125 12.890625 
Q 22.859375 7.515625 30.078125 7.515625 
Q 37.359375 7.515625 41.375 12.890625 
Q 45.40625 18.265625 45.40625 27.984375 
z
M 54.390625 6.78125 
Q 54.390625 -7.171875 48.1875 -13.984375 
Q 42 -20.796875 29.203125 -20.796875 
Q 24.46875 -20.796875 20.265625 -20.09375 
Q 16.0625 -19.390625 12.109375 -17.921875 
L 12.109375 -9.1875 
Q 16.0625 -11.328125 19.921875 -12.34375 
Q 23.78125 -13.375 27.78125 -13.375 
Q 36.625 -13.375 41.015625 -8.765625 
Q 45.40625 -4.15625 45.40625 5.171875 
L 45.40625 9.625 
Q 42.625 4.78125 38.28125 2.390625 
Q 33.9375 0 27.875 0 
Q 17.828125 0 11.671875 7.65625 
Q 5.515625 15.328125 5.515625 27.984375 
Q 5.515625 40.671875 11.671875 48.328125 
Q 17.828125 56 27.875 56 
Q 33.9375 56 38.28125 53.609375 
Q 42.625 51.21875 45.40625 46.390625 
L 45.40625 54.6875 
L 54.390625 54.6875 
z
" id="DejaVuSans-67"/>
      <path d="M 12.40625 8.296875 
L 28.515625 8.296875 
L 28.515625 63.921875 
L 10.984375 60.40625 
L 10.984375 69.390625 
L 28.421875 72.90625 
L 38.28125 72.90625 
L 38.28125 8.296875 
L 54.390625 8.296875 
L 54.390625 0 
L 12.40625 0 
z
" id="DejaVuSans-31"/>
      <path id="DejaVuSans-20"/>
      <path d="M 37.109375 75.984375 
L 37.109375 68.5 
L 28.515625 68.5 
Q 23.6875 68.5 21.796875 66.546875 
Q 19.921875 64.59375 19.921875 59.515625 
L 19.921875 54.6875 
L 34.71875 54.6875 
L 34.71875 47.703125 
L 19.921875 47.703125 
L 19.921875 0 
L 10.890625 0 
L 10.890625 47.703125 
L 2.296875 47.703125 
L 2.296875 54.6875 
L 10.890625 54.6875 
L 10.890625 58.5 
Q 10.890625 67.625 15.140625 71.796875 
Q 19.390625 75.984375 28.609375 75.984375 
z
" id="DejaVuSans-66"/>
      <path d="M 19.671875 64.796875 
L 19.671875 8.109375 
L 31.59375 8.109375 
Q 46.6875 8.109375 53.6875 14.9375 
Q 60.6875 21.78125 60.6875 36.53125 
Q 60.6875 51.171875 53.6875 57.984375 
Q 46.6875 64.796875 31.59375 64.796875 
z
M 9.8125 72.90625 
L 30.078125 72.90625 
Q 51.265625 72.90625 61.171875 64.09375 
Q 71.09375 55.28125 71.09375 36.53125 
Q 71.09375 17.671875 61.125 8.828125 
Q 51.171875 0 30.078125 0 
L 9.8125 0 
z
" id="DejaVuSans-44"/>
     </defs>
     <g transform="translate(172.910063 336.833125)scale(0.2 -0.2)">
      <use xlink:href="#DejaVuSans-6c"/>
      <use x="27.783203" xlink:href="#DejaVuSans-6f"/>
      <use x="88.964844" xlink:href="#DejaVuSans-67"/>
      <use x="152.441406" xlink:href="#DejaVuSans-31"/>
      <use x="216.064453" xlink:href="#DejaVuSans-30"/>
      <use x="279.6875" xlink:href="#DejaVuSans-20"/>
      <use x="311.474609" xlink:href="#DejaVuSans-6f"/>
      <use x="372.65625" xlink:href="#DejaVuSans-66"/>
      <use x="407.861328" xlink:href="#DejaVuSans-20"/>
      <use x="439.648438" xlink:href="#DejaVuSans-44"/>
      <use x="516.650391" xlink:href="#DejaVuSans-66"/>
     </g>
    </g>
   </g>
   <g id="matplotlib.axis_2">
    <g id="ytick_1">
     <g id="line2d_11">
      <path clip-path="url(#p80338d4a9e)" d="M 5.52 291.28 
L 450.672 291.28 
" style="fill:none;stroke:#b0b0b0;stroke-linecap:square;stroke-width:0.8;"/>
     </g>
     <g id="line2d_12">
      <defs>
       <path d="M 0 0 
L -3.5 0 
" id="m32b05d3687" style="stroke:#000000;stroke-width:0.8;"/>
      </defs>
      <g>
       <use style="stroke:#000000;stroke-width:0.8;" x="5.52" xlink:href="#m32b05d3687" y="291.28"/>
      </g>
     </g>
    </g>
    <g id="ytick_2">
     <g id="line2d_13">
      <path clip-path="url(#p80338d4a9e)" d="M 5.52 234.693861 
L 450.672 234.693861 
" style="fill:none;stroke:#b0b0b0;stroke-linecap:square;stroke-width:0.8;"/>
     </g>
     <g id="line2d_14">
      <g>
       <use style="stroke:#000000;stroke-width:0.8;" x="5.52" xlink:href="#m32b05d3687" y="234.693861"/>
      </g>
     </g>
    </g>
    <g id="ytick_3">
     <g id="line2d_15">
      <path clip-path="url(#p80338d4a9e)" d="M 5.52 178.107723 
L 450.672 178.107723 
" style="fill:none;stroke:#b0b0b0;stroke-linecap:square;stroke-width:0.8;"/>
     </g>
     <g id="line2d_16">
      <g>
       <use style="stroke:#000000;stroke-width:0.8;" x="5.52" xlink:href="#m32b05d3687" y="178.107723"/>
      </g>
     </g>
    </g>
    <g id="ytick_4">
     <g id="line2d_17">
      <path clip-path="url(#p80338d4a9e)" d="M 5.52 121.521584 
L 450.672 121.521584 
" style="fill:none;stroke:#b0b0b0;stroke-linecap:square;stroke-width:0.8;"/>
     </g>
     <g id="line2d_18">
      <g>
       <use style="stroke:#000000;stroke-width:0.8;" x="5.52" xlink:href="#m32b05d3687" y="121.521584"/>
      </g>
     </g>
    </g>
    <g id="ytick_5">
     <g id="line2d_19">
      <path clip-path="url(#p80338d4a9e)" d="M 5.52 64.935446 
L 450.672 64.935446 
" style="fill:none;stroke:#b0b0b0;stroke-linecap:square;stroke-width:0.8;"/>
     </g>
     <g id="line2d_20">
      <g>
       <use style="stroke:#000000;stroke-width:0.8;" x="5.52" xlink:href="#m32b05d3687" y="64.935446"/>
      </g>
     </g>
    </g>
    <g id="ytick_6">
     <g id="line2d_21">
      <path clip-path="url(#p80338d4a9e)" d="M 5.52 8.349307 
L 450.672 8.349307 
" style="fill:none;stroke:#b0b0b0;stroke-linecap:square;stroke-width:0.8;"/>
     </g>
     <g id="line2d_22">
      <g>
       <use style="stroke:#000000;stroke-width:0.8;" x="5.52" xlink:href="#m32b05d3687" y="8.349307"/>
      </g>
     </g>
    </g>
   </g>
   <g id="line2d_23">
    <path clip-path="url(#p80338d4a9e)" d="M 5.410598 291.28 
L 5.410598 281.063058 
L 192.716646 281.063058 
L 192.716646 269.274279 
L 215.641336 269.274279 
L 215.641336 268.488361 
L 217.464398 268.488361 
L 217.464398 267.702442 
L 217.758697 267.702442 
L 217.758697 266.916524 
L 218.088365 266.916524 
L 218.088365 266.130605 
L 219.376541 266.130605 
L 219.376541 265.344686 
L 220.692385 265.344686 
L 220.692385 264.558768 
L 222.348927 264.558768 
L 222.348927 263.772849 
L 222.53773 263.772849 
L 222.53773 262.986931 
L 222.874934 262.986931 
L 222.957936 261.415094 
L 223.238342 261.415094 
L 223.327277 259.843256 
L 223.450872 259.843256 
L 223.450872 259.057338 
L 224.039281 259.057338 
L 224.091283 256.699582 
L 224.180133 256.699582 
L 224.180133 255.913663 
L 224.38735 255.913663 
L 224.454952 253.555908 
L 224.631771 253.555908 
L 224.713013 251.98407 
L 225.059794 251.98407 
L 225.059794 251.198152 
L 225.242918 251.198152 
L 225.277048 249.626315 
L 225.542685 249.626315 
L 225.607129 248.054477 
L 225.657519 248.054477 
L 225.657519 247.268559 
L 226.062674 247.268559 
L 226.062674 246.48264 
L 226.409441 246.48264 
L 226.409441 245.696722 
L 226.52344 245.696722 
L 226.52344 244.910803 
L 227.01839 244.910803 
L 227.01839 244.124884 
L 228.022572 244.124884 
L 228.116129 241.767129 
L 228.240488 241.767129 
L 228.240488 240.98121 
L 228.413159 240.98121 
L 228.413159 240.195292 
L 229.145985 240.195292 
L 229.145985 239.409373 
L 229.395324 239.409373 
L 229.395324 238.623454 
L 229.715654 238.623454 
L 229.715654 237.837536 
L 229.830663 237.837536 
L 229.830663 237.051617 
L 230.074394 237.051617 
L 230.126381 234.693861 
L 230.290514 234.693861 
L 230.290514 233.907943 
L 230.579841 233.907943 
L 230.607453 232.336106 
L 230.975124 232.336106 
L 230.975124 231.550187 
L 231.193783 231.550187 
L 231.193783 230.764268 
L 231.763064 230.764268 
L 231.763064 229.97835 
L 231.982492 229.97835 
L 231.982492 229.192431 
L 233.128935 229.192431 
L 233.180951 227.620594 
L 233.300114 227.620594 
L 233.300114 226.834675 
L 233.478445 226.834675 
L 233.478445 226.048757 
L 233.88346 226.048757 
L 233.942214 224.47692 
L 234.164854 224.47692 
L 234.164854 223.691001 
L 234.377489 223.691001 
L 234.377489 222.905083 
L 234.490137 222.905083 
L 234.490137 222.119164 
L 236.977116 222.119164 
L 237.011328 220.547327 
L 237.485713 220.547327 
L 237.54271 218.97549 
L 237.626075 218.97549 
L 237.626075 218.189571 
L 237.886736 218.189571 
L 237.93296 216.617734 
L 238.330577 216.617734 
L 238.411517 214.259978 
L 238.460214 214.259978 
L 238.537948 212.688141 
L 239.103965 212.688141 
L 239.103965 211.902222 
L 239.779985 211.902222 
L 239.81816 210.330385 
L 240.273588 210.330385 
L 240.372959 207.972629 
L 240.385645 207.972629 
L 240.385645 207.186711 
L 240.57479 207.186711 
L 240.57479 206.400792 
L 241.043571 206.400792 
L 241.043571 205.614873 
L 241.187493 205.614873 
L 241.187493 204.828955 
L 241.371769 204.828955 
L 241.387989 203.257118 
L 241.598003 203.257118 
L 241.609669 201.685281 
L 242.217553 201.685281 
L 242.217553 200.899362 
L 242.430485 200.899362 
L 242.430485 200.113443 
L 242.826194 200.113443 
L 242.839706 198.541606 
L 242.964958 198.541606 
L 242.964958 197.755688 
L 243.113194 197.755688 
L 243.129427 196.18385 
L 243.234097 196.18385 
L 243.234097 195.397932 
L 243.557369 195.397932 
L 243.607406 193.040176 
L 243.711203 193.040176 
L 243.751977 191.468339 
L 243.826212 191.468339 
L 243.909219 189.896502 
L 244.049515 189.896502 
L 244.0721 188.324664 
L 244.209709 188.324664 
L 244.209709 187.538746 
L 244.578508 187.538746 
L 244.578508 186.752827 
L 244.737868 186.752827 
L 244.817865 185.18099 
L 245.120597 185.18099 
L 245.120597 184.395072 
L 245.267443 184.395072 
L 245.272984 182.823234 
L 245.625948 182.823234 
L 245.625948 182.037316 
L 245.804379 182.037316 
L 245.804379 181.251397 
L 246.122418 181.251397 
L 246.122418 180.465479 
L 246.529149 180.465479 
L 246.635785 178.893641 
L 247.264274 178.893641 
L 247.320723 177.321804 
L 248.308401 177.321804 
L 248.308401 176.535886 
L 248.649064 176.535886 
L 248.682722 174.964048 
L 249.095667 174.964048 
L 249.095667 174.17813 
L 249.480393 174.17813 
L 249.480393 173.392211 
L 249.658971 173.392211 
L 249.658971 172.606293 
L 249.776409 172.606293 
L 249.776409 171.820374 
L 249.99345 171.820374 
L 249.99345 171.034455 
L 250.381087 171.034455 
L 250.477889 169.462618 
L 250.78316 169.462618 
L 250.78316 168.6767 
L 250.992377 168.6767 
L 251.038559 167.104862 
L 251.248639 167.104862 
L 251.248639 166.318944 
L 251.413637 166.318944 
L 251.506194 164.747107 
L 252.989871 164.747107 
L 252.989871 163.961188 
L 253.619511 163.961188 
L 253.619511 163.17527 
L 257.111567 163.17527 
L 257.111567 162.389351 
L 258.227853 162.389351 
L 258.227853 161.603432 
L 258.416113 161.603432 
L 258.416113 160.817514 
L 258.933383 160.817514 
L 258.933383 160.031595 
L 259.388235 160.031595 
L 259.388235 159.245677 
L 259.618921 159.245677 
L 259.618921 158.459758 
L 260.222804 158.459758 
L 260.222804 157.673839 
L 260.472698 157.673839 
L 260.50372 156.102002 
L 260.809901 156.102002 
L 260.895841 143.527305 
L 261.773587 143.527305 
L 261.773587 142.741386 
L 262.56646 142.741386 
L 262.56646 141.955468 
L 262.884451 141.955468 
L 262.884451 141.169549 
L 263.079457 141.169549 
L 263.079457 140.38363 
L 263.963523 140.38363 
L 263.963523 139.597712 
L 264.367793 139.597712 
L 264.367793 138.811793 
L 264.957521 138.811793 
L 264.957521 138.025875 
L 265.598464 138.025875 
L 265.598464 137.239956 
L 266.203458 137.239956 
L 266.203458 136.454037 
L 266.458771 136.454037 
L 266.528767 134.8822 
L 266.570025 134.8822 
L 266.622164 133.310363 
L 266.809683 133.310363 
L 266.809683 132.524444 
L 266.988467 132.524444 
L 267.068621 128.594851 
L 267.103027 128.594851 
L 267.207809 127.023014 
L 267.317167 127.023014 
L 267.363708 123.87934 
L 267.494467 123.87934 
L 267.524812 122.307503 
L 267.804962 122.307503 
L 267.85147 119.949747 
L 268.001616 119.949747 
L 268.001616 119.163828 
L 268.250449 119.163828 
L 268.280637 117.591991 
L 268.370722 117.591991 
L 268.452467 116.020154 
L 268.505135 116.020154 
L 268.558883 113.662398 
L 268.711334 113.662398 
L 268.761615 111.304642 
L 268.85165 111.304642 
L 268.942532 108.946887 
L 269.007484 108.946887 
L 269.007484 108.160968 
L 269.212157 108.160968 
L 269.319885 103.445457 
L 269.359908 103.445457 
L 269.359908 102.659538 
L 269.980382 102.659538 
L 270.025315 101.087701 
L 270.307867 101.087701 
L 270.325198 99.515864 
L 270.463914 99.515864 
L 270.46999 97.944026 
L 270.667552 97.944026 
L 270.667806 96.372189 
L 271.069938 96.372189 
L 271.137989 94.800352 
L 271.208971 94.800352 
L 271.24602 92.442596 
L 271.495702 92.442596 
L 271.495702 91.656678 
L 272.031124 91.656678 
L 272.061889 90.08484 
L 272.148027 90.08484 
L 272.148027 89.298922 
L 272.29654 89.298922 
L 272.29654 88.513003 
L 272.509287 88.513003 
L 272.590477 86.941166 
L 272.652922 86.941166 
L 272.667072 85.369329 
L 272.864842 85.369329 
L 272.963687 83.011573 
L 273.056941 83.011573 
L 273.056941 82.225655 
L 273.260727 82.225655 
L 273.260727 81.439736 
L 273.461563 81.439736 
L 273.461563 80.653817 
L 273.656715 80.653817 
L 273.656715 79.867899 
L 273.901061 79.867899 
L 273.957101 78.296062 
L 274.397391 78.296062 
L 274.481079 76.724224 
L 274.513729 76.724224 
L 274.513729 75.938306 
L 274.823953 75.938306 
L 274.823953 75.152387 
L 276.265722 75.152387 
L 276.265722 74.366469 
L 276.412319 74.366469 
L 276.511047 71.222794 
L 276.565069 71.222794 
L 276.565069 70.436876 
L 276.875096 70.436876 
L 276.875096 69.650957 
L 278.038654 69.650957 
L 278.038654 68.865039 
L 278.183583 68.865039 
L 278.183583 68.07912 
L 278.912148 68.07912 
L 278.912148 67.293201 
L 279.833593 67.293201 
L 279.833593 66.507283 
L 280.209808 66.507283 
L 280.209808 65.721364 
L 280.664669 65.721364 
L 280.696546 64.149527 
L 280.944679 64.149527 
L 280.944679 63.363608 
L 281.378781 63.363608 
L 281.378781 62.57769 
L 281.694569 62.57769 
L 281.731804 61.005853 
L 281.830882 61.005853 
L 281.830882 60.219934 
L 282.837436 60.219934 
L 282.837436 59.434015 
L 283.027748 59.434015 
L 283.027748 58.648097 
L 283.398556 58.648097 
L 283.398556 57.862178 
L 283.825476 57.862178 
L 283.825476 57.07626 
L 284.602245 57.07626 
L 284.602245 56.290341 
L 286.018552 56.290341 
L 286.018552 55.504422 
L 286.82518 55.504422 
L 286.82518 54.718504 
L 291.923384 54.718504 
L 291.923384 53.932585 
L 292.772256 53.932585 
L 292.772256 53.146667 
L 293.416595 53.146667 
L 293.416595 52.360748 
L 294.278066 52.360748 
L 294.278066 51.574829 
L 295.521141 51.574829 
L 295.521141 50.788911 
L 295.871142 50.788911 
L 295.871142 50.002992 
L 297.112094 50.002992 
L 297.112094 49.217074 
L 297.653839 49.217074 
L 297.653839 48.431155 
L 298.098302 48.431155 
L 298.098302 47.645237 
L 301.292962 47.645237 
L 301.345692 46.073399 
L 305.767525 46.073399 
L 305.767525 45.287481 
L 305.895156 45.287481 
L 305.895156 44.501562 
L 322.965013 44.501562 
L 322.965013 43.715644 
L 327.451076 43.715644 
L 327.451076 42.929725 
L 328.694712 42.929725 
L 328.694712 42.143806 
L 330.072583 42.143806 
L 330.072583 41.357888 
L 330.56763 41.357888 
L 330.56763 40.571969 
L 330.754021 40.571969 
L 330.754021 39.786051 
L 331.103666 39.786051 
L 331.103666 39.000132 
L 331.373534 39.000132 
L 331.373534 38.214213 
L 332.571429 38.214213 
L 332.571429 37.428295 
L 333.193755 37.428295 
L 333.193755 36.642376 
L 334.260344 36.642376 
L 334.260344 35.856458 
L 334.935023 35.856458 
L 334.935023 35.070539 
L 335.37628 35.070539 
L 335.37628 34.28462 
L 338.673226 34.28462 
L 338.673226 33.498702 
L 338.859715 33.498702 
L 338.859715 32.712783 
L 339.464576 32.712783 
L 339.464576 31.926865 
L 339.754867 31.926865 
L 339.754867 31.140946 
L 339.977196 31.140946 
L 339.977196 30.355028 
L 340.300446 30.355028 
L 340.300446 29.569109 
L 340.795517 29.569109 
L 340.795517 28.78319 
L 341.188947 28.78319 
L 341.188947 27.997272 
L 341.568132 27.997272 
L 341.568132 27.211353 
L 342.986796 27.211353 
L 342.986796 26.425435 
L 343.098118 26.425435 
L 343.108889 24.853597 
L 344.049598 24.853597 
L 344.049598 24.067679 
L 344.894304 24.067679 
L 344.894304 23.28176 
L 345.129502 23.28176 
L 345.129502 22.495842 
L 345.380849 22.495842 
L 345.380849 21.709923 
L 348.194215 21.709923 
L 348.194215 20.924004 
L 349.245375 20.924004 
L 349.245375 20.138086 
L 382.156663 20.138086 
L 382.156663 19.352167 
L 384.196863 19.352167 
L 384.196863 18.566249 
L 385.781688 18.566249 
L 385.781688 17.78033 
L 386.826927 17.78033 
L 386.826927 16.994411 
L 387.696339 16.994411 
L 387.696339 16.208493 
L 388.227135 16.208493 
L 388.227135 15.422574 
L 388.949659 15.422574 
L 388.949659 14.636656 
L 389.369612 14.636656 
L 389.414779 13.064818 
L 390.31548 13.064818 
L 390.31548 12.2789 
L 390.681742 12.2789 
L 390.681742 11.492981 
L 392.000954 11.492981 
L 392.000954 10.707063 
L 392.197484 10.707063 
L 392.197484 9.921144 
L 392.330682 9.921144 
L 392.330682 9.135226 
L 394.781791 9.135226 
L 394.781791 8.349307 
L 394.781791 8.349307 
L 450.672 8.349307 
L 450.672 8.349307 
" style="fill:none;stroke:#ff0000;stroke-linecap:square;stroke-width:3;"/>
   </g>
   <g id="line2d_24">
    <path clip-path="url(#p80338d4a9e)" d="M 192.716646 291.28 
L 192.716646 279.491221 
L 226.349284 279.491221 
L 226.349284 278.705303 
L 229.061183 278.705303 
L 229.061183 277.919384 
L 229.429228 277.919384 
L 229.472042 276.347547 
L 230.867531 276.347547 
L 230.87656 274.77571 
L 231.074861 274.77571 
L 231.074861 273.989791 
L 231.230711 273.989791 
L 231.230711 273.203872 
L 231.355733 273.203872 
L 231.355733 272.417954 
L 232.736564 272.417954 
L 232.758812 270.846117 
L 232.995189 270.846117 
L 232.995189 270.060198 
L 233.364439 270.060198 
L 233.4698 268.488361 
L 233.911905 268.488361 
L 233.911905 267.702442 
L 235.569154 267.702442 
L 235.670943 265.344686 
L 236.502248 265.344686 
L 236.502248 264.558768 
L 237.273616 264.558768 
L 237.291045 262.986931 
L 238.04011 262.986931 
L 238.04011 262.201012 
L 238.25213 262.201012 
L 238.25213 261.415094 
L 238.401499 261.415094 
L 238.443205 259.843256 
L 238.791582 259.843256 
L 238.791582 259.057338 
L 239.039336 259.057338 
L 239.039336 258.271419 
L 240.78508 258.271419 
L 240.78508 257.485501 
L 242.979326 257.485501 
L 242.979326 256.699582 
L 243.580354 256.699582 
L 243.580354 255.913663 
L 244.997801 255.913663 
L 244.997801 255.127745 
L 247.254719 255.127745 
L 247.268753 253.555908 
L 247.58491 253.555908 
L 247.58491 252.769989 
L 248.268874 252.769989 
L 248.299281 251.198152 
L 248.423782 251.198152 
L 248.423782 250.412233 
L 248.914527 250.412233 
L 248.914527 249.626315 
L 249.027886 249.626315 
L 249.073101 248.054477 
L 249.780005 248.054477 
L 249.780005 247.268559 
L 250.049611 247.268559 
L 250.049611 246.48264 
L 250.206881 246.48264 
L 250.307972 244.910803 
L 250.460323 244.910803 
L 250.562035 242.553047 
L 250.752722 242.553047 
L 250.772951 240.98121 
L 251.129672 240.98121 
L 251.129672 240.195292 
L 251.285536 240.195292 
L 251.380076 237.051617 
L 251.548211 237.051617 
L 251.548211 236.265699 
L 251.764227 236.265699 
L 251.790652 234.693861 
L 252.125917 234.693861 
L 252.125917 233.907943 
L 252.342801 233.907943 
L 252.342801 233.122024 
L 252.60576 233.122024 
L 252.60576 232.336106 
L 252.745463 232.336106 
L 252.846523 229.192431 
L 253.045267 229.192431 
L 253.112161 227.620594 
L 253.446768 227.620594 
L 253.446768 226.834675 
L 254.293468 226.834675 
L 254.293468 226.048757 
L 254.424878 226.048757 
L 254.49436 224.47692 
L 254.833438 224.47692 
L 254.833438 223.691001 
L 254.959356 223.691001 
L 254.959356 222.905083 
L 255.113347 222.905083 
L 255.200863 219.761408 
L 255.485625 219.761408 
L 255.547034 218.189571 
L 255.622577 218.189571 
L 255.722873 215.045897 
L 255.779198 215.045897 
L 255.779198 214.259978 
L 255.939526 214.259978 
L 256.032659 212.688141 
L 256.050987 212.688141 
L 256.152367 210.330385 
L 256.170666 210.330385 
L 256.268308 207.186711 
L 256.28256 207.186711 
L 256.36344 204.043036 
L 256.435682 204.043036 
L 256.510068 201.685281 
L 256.616163 201.685281 
L 256.670812 200.113443 
L 257.179302 200.113443 
L 257.179302 199.327525 
L 257.388952 199.327525 
L 257.388952 198.541606 
L 257.687586 198.541606 
L 257.687586 197.755688 
L 258.216677 197.755688 
L 258.291447 195.397932 
L 258.331562 195.397932 
L 258.331562 194.612013 
L 258.602738 194.612013 
L 258.602738 193.826095 
L 259.425995 193.826095 
L 259.478307 192.254257 
L 259.5884 192.254257 
L 259.5884 191.468339 
L 259.752181 191.468339 
L 259.752181 190.68242 
L 260.866155 190.68242 
L 260.895841 178.107723 
L 261.298526 178.107723 
L 261.298526 177.321804 
L 261.43043 177.321804 
L 261.43043 176.535886 
L 261.681592 176.535886 
L 261.681592 175.749967 
L 262.685392 175.749967 
L 262.685392 174.964048 
L 262.976362 174.964048 
L 262.976362 174.17813 
L 263.565896 174.17813 
L 263.565896 173.392211 
L 268.274565 173.392211 
L 268.274565 172.606293 
L 269.332471 172.606293 
L 269.418813 171.034455 
L 269.490771 171.034455 
L 269.490771 170.248537 
L 269.772699 170.248537 
L 269.772699 169.462618 
L 270.111595 169.462618 
L 270.111595 168.6767 
L 270.514179 168.6767 
L 270.514179 167.890781 
L 270.705915 167.890781 
L 270.705915 167.104862 
L 270.893471 167.104862 
L 270.986628 164.747107 
L 271.091206 164.747107 
L 271.145716 162.389351 
L 271.285486 162.389351 
L 271.285486 161.603432 
L 271.605484 161.603432 
L 271.605484 160.817514 
L 271.913325 160.817514 
L 271.967116 159.245677 
L 272.103029 159.245677 
L 272.210704 155.316084 
L 272.300854 155.316084 
L 272.300854 154.530165 
L 272.418951 154.530165 
L 272.454079 152.172409 
L 272.760056 152.172409 
L 272.760056 151.386491 
L 273.288073 151.386491 
L 273.288073 150.600572 
L 273.749111 150.600572 
L 273.749111 149.814653 
L 275.938599 149.814653 
L 275.982221 148.242816 
L 276.136027 148.242816 
L 276.136027 147.456898 
L 276.787607 147.456898 
L 276.869669 145.885061 
L 277.204048 145.885061 
L 277.261874 144.313223 
L 277.737748 144.313223 
L 277.737748 143.527305 
L 277.974623 143.527305 
L 277.974623 142.741386 
L 278.3421 142.741386 
L 278.3421 141.955468 
L 278.474649 141.955468 
L 278.537608 140.38363 
L 278.600228 140.38363 
L 278.6701 138.811793 
L 278.805209 138.811793 
L 278.878739 137.239956 
L 278.979596 137.239956 
L 279.069959 133.310363 
L 279.152787 133.310363 
L 279.204928 131.738526 
L 279.364833 131.738526 
L 279.364833 130.952607 
L 279.545939 130.952607 
L 279.620846 128.594851 
L 279.872582 128.594851 
L 279.873408 127.023014 
L 280.028786 127.023014 
L 280.085139 124.665259 
L 280.185294 124.665259 
L 280.200078 123.093421 
L 280.310701 123.093421 
L 280.310701 122.307503 
L 280.440825 122.307503 
L 280.440825 121.521584 
L 280.558433 121.521584 
L 280.622371 119.163828 
L 280.836068 119.163828 
L 280.883206 117.591991 
L 280.95575 117.591991 
L 280.95575 116.806073 
L 281.156482 116.806073 
L 281.156482 116.020154 
L 281.766731 116.020154 
L 281.766731 115.234235 
L 282.156883 115.234235 
L 282.156883 114.448317 
L 282.307179 114.448317 
L 282.307179 113.662398 
L 282.88389 113.662398 
L 282.907564 111.304642 
L 283.297225 111.304642 
L 283.297225 110.518724 
L 283.522653 110.518724 
L 283.522653 109.732805 
L 284.335611 109.732805 
L 284.335611 108.946887 
L 284.528789 108.946887 
L 284.528789 108.160968 
L 285.741225 108.160968 
L 285.741225 107.37505 
L 285.88143 107.37505 
L 285.88143 106.589131 
L 286.626962 106.589131 
L 286.626962 105.803212 
L 287.10626 105.803212 
L 287.10626 105.017294 
L 287.630489 105.017294 
L 287.630489 104.231375 
L 288.153727 104.231375 
L 288.153727 103.445457 
L 289.95538 103.445457 
L 290.054486 101.873619 
L 290.194016 101.873619 
L 290.194016 101.087701 
L 291.09974 101.087701 
L 291.09974 100.301782 
L 291.364475 100.301782 
L 291.364475 99.515864 
L 291.614724 99.515864 
L 291.614724 98.729945 
L 291.880506 98.729945 
L 291.880506 97.944026 
L 292.375906 97.944026 
L 292.375906 97.158108 
L 292.563907 97.158108 
L 292.603888 94.800352 
L 292.770542 94.800352 
L 292.770542 94.014433 
L 292.987862 94.014433 
L 292.987862 93.228515 
L 293.516399 93.228515 
L 293.516399 92.442596 
L 293.742327 92.442596 
L 293.781173 90.870759 
L 294.587639 90.870759 
L 294.587639 90.08484 
L 314.988985 90.08484 
L 314.988985 89.298922 
L 315.864182 89.298922 
L 315.864182 77.510143 
L 319.483667 77.510143 
L 319.483667 76.724224 
L 319.737758 76.724224 
L 319.737758 75.938306 
L 320.354151 75.938306 
L 320.354151 75.152387 
L 320.841072 75.152387 
L 320.841072 74.366469 
L 323.281736 74.366469 
L 323.281736 73.58055 
L 324.225578 73.58055 
L 324.225578 72.794631 
L 324.682769 72.794631 
L 324.682769 72.008713 
L 324.870438 72.008713 
L 324.870438 71.222794 
L 325.380098 71.222794 
L 325.380098 70.436876 
L 326.219329 70.436876 
L 326.219329 69.650957 
L 326.871731 69.650957 
L 326.928725 68.07912 
L 327.91131 68.07912 
L 327.960671 66.507283 
L 328.181206 66.507283 
L 328.181206 65.721364 
L 330.169914 65.721364 
L 330.193402 64.149527 
L 330.460071 64.149527 
L 330.460071 63.363608 
L 331.45718 63.363608 
L 331.45718 62.57769 
L 331.840186 62.57769 
L 331.840186 61.791771 
L 332.367695 61.791771 
L 332.367695 61.005853 
L 337.498056 61.005853 
L 337.498056 60.219934 
L 340.18676 60.219934 
L 340.18676 59.434015 
L 341.42534 59.434015 
L 341.42534 58.648097 
L 345.890388 58.648097 
L 345.890388 57.862178 
L 346.178714 57.862178 
L 346.178714 57.07626 
L 346.724858 57.07626 
L 346.724858 56.290341 
L 346.979786 56.290341 
L 346.979786 55.504422 
L 347.607562 55.504422 
L 347.607562 54.718504 
L 348.641715 54.718504 
L 348.641715 53.932585 
L 349.136683 53.932585 
L 349.136683 53.146667 
L 349.97268 53.146667 
L 349.97268 52.360748 
L 350.838845 52.360748 
L 350.838845 51.574829 
L 352.731612 51.574829 
L 352.731612 50.788911 
L 353.794516 50.788911 
L 353.794516 50.002992 
L 355.005242 50.002992 
L 355.005242 49.217074 
L 355.81449 49.217074 
L 355.81449 48.431155 
L 357.02922 48.431155 
L 357.02922 47.645237 
L 359.850547 47.645237 
L 359.850547 46.859318 
L 360.586726 46.859318 
L 360.586726 46.073399 
L 360.817896 46.073399 
L 360.817896 45.287481 
L 361.809095 45.287481 
L 361.809095 44.501562 
L 364.130829 44.501562 
L 364.130829 43.715644 
L 367.374225 43.715644 
L 367.374225 42.929725 
L 369.046521 42.929725 
L 369.046521 42.143806 
L 369.229248 42.143806 
L 369.229248 41.357888 
L 369.501298 41.357888 
L 369.501298 40.571969 
L 370.225985 40.571969 
L 370.225985 39.786051 
L 370.376825 39.786051 
L 370.376825 39.000132 
L 371.102587 39.000132 
L 371.102587 38.214213 
L 372.102537 38.214213 
L 372.102537 37.428295 
L 372.817475 37.428295 
L 372.817475 36.642376 
L 374.45432 36.642376 
L 374.492601 35.070539 
L 374.978473 35.070539 
L 374.978473 34.28462 
L 375.220787 34.28462 
L 375.220787 33.498702 
L 375.657368 33.498702 
L 375.657368 32.712783 
L 377.448152 32.712783 
L 377.506191 31.140946 
L 379.654867 31.140946 
L 379.654867 30.355028 
L 379.781668 30.355028 
L 379.781668 29.569109 
L 379.926885 29.569109 
L 379.926885 28.78319 
L 380.106561 28.78319 
L 380.106561 27.997272 
L 380.613083 27.997272 
L 380.613083 27.211353 
L 383.949003 27.211353 
L 383.949003 26.425435 
L 384.390597 26.425435 
L 384.444387 24.067679 
L 384.808102 24.067679 
L 384.808102 23.28176 
L 385.63747 23.28176 
L 385.63747 22.495842 
L 386.214786 22.495842 
L 386.214786 21.709923 
L 387.080304 21.709923 
L 387.080304 20.924004 
L 390.785248 20.924004 
L 390.785248 20.138086 
L 409.440053 20.138086 
L 409.440053 19.352167 
L 409.988667 19.352167 
L 409.988667 18.566249 
L 414.198844 18.566249 
L 414.198844 17.78033 
L 415.840025 17.78033 
L 415.840025 16.994411 
L 416.064573 16.994411 
L 416.064573 16.208493 
L 416.79362 16.208493 
L 416.79362 15.422574 
L 416.973016 15.422574 
L 416.973016 14.636656 
L 418.325493 14.636656 
L 418.325493 13.850737 
L 419.82133 13.850737 
L 419.82133 13.064818 
L 422.024132 13.064818 
L 422.024132 12.2789 
L 423.934185 12.2789 
L 423.934185 11.492981 
L 424.251021 11.492981 
L 424.251021 10.707063 
L 426.481826 10.707063 
L 426.481826 9.921144 
L 429.306547 9.921144 
L 429.306547 9.135226 
L 429.469076 9.135226 
L 429.469076 8.349307 
L 429.469076 8.349307 
L 450.672 8.349307 
L 450.672 8.349307 
" style="fill:none;stroke:#00bfbf;stroke-linecap:square;stroke-width:1.5;"/>
   </g>
   <g id="line2d_25">
    <path clip-path="url(#p80338d4a9e)" d="M 192.716646 291.28 
L 192.716646 279.491221 
L 225.857721 279.491221 
L 225.857721 278.705303 
L 226.349284 278.705303 
L 226.436861 277.133465 
L 227.41425 277.133465 
L 227.41425 276.347547 
L 227.873234 276.347547 
L 227.873234 275.561628 
L 228.273085 275.561628 
L 228.273085 274.77571 
L 228.451525 274.77571 
L 228.451525 273.989791 
L 228.565436 273.989791 
L 228.565436 273.203872 
L 228.977481 273.203872 
L 228.977481 272.417954 
L 229.181106 272.417954 
L 229.181106 271.632035 
L 229.472042 271.632035 
L 229.472042 270.846117 
L 230.049306 270.846117 
L 230.049306 270.060198 
L 230.87656 270.060198 
L 230.87656 269.274279 
L 231.355733 269.274279 
L 231.355733 268.488361 
L 232.758812 268.488361 
L 232.758812 267.702442 
L 235.569154 267.702442 
L 235.670943 265.344686 
L 236.502248 265.344686 
L 236.502248 264.558768 
L 237.273616 264.558768 
L 237.342703 262.201012 
L 238.04011 262.201012 
L 238.04011 261.415094 
L 238.25213 261.415094 
L 238.25213 260.629175 
L 238.401499 260.629175 
L 238.401499 259.843256 
L 238.731724 259.843256 
L 238.731724 259.057338 
L 239.039336 259.057338 
L 239.039336 258.271419 
L 240.78508 258.271419 
L 240.78508 257.485501 
L 242.979326 257.485501 
L 243.009013 255.913663 
L 243.794384 255.913663 
L 243.794384 255.127745 
L 244.449048 255.127745 
L 244.449048 254.341826 
L 244.997801 254.341826 
L 244.997801 253.555908 
L 245.267436 253.555908 
L 245.267436 252.769989 
L 246.80287 252.769989 
L 246.80287 251.98407 
L 247.268753 251.98407 
L 247.268753 251.198152 
L 247.58491 251.198152 
L 247.58491 250.412233 
L 248.268874 250.412233 
L 248.268874 249.626315 
L 248.423782 249.626315 
L 248.444127 248.054477 
L 248.914527 248.054477 
L 248.914527 247.268559 
L 249.027886 247.268559 
L 249.073101 245.696722 
L 249.205761 245.696722 
L 249.249484 244.124884 
L 249.400022 244.124884 
L 249.400022 243.338966 
L 249.780005 243.338966 
L 249.780005 242.553047 
L 249.897707 242.553047 
L 249.941248 240.98121 
L 250.307972 240.98121 
L 250.307972 240.195292 
L 250.460323 240.195292 
L 250.562035 237.837536 
L 250.623849 237.837536 
L 250.623849 237.051617 
L 250.752722 237.051617 
L 250.752722 236.265699 
L 251.129672 236.265699 
L 251.129672 235.47978 
L 251.283178 235.47978 
L 251.380076 232.336106 
L 252.009101 232.336106 
L 252.009101 231.550187 
L 252.125917 231.550187 
L 252.125917 230.764268 
L 252.543022 230.764268 
L 252.60576 229.192431 
L 252.745463 229.192431 
L 252.846523 227.620594 
L 253.045267 227.620594 
L 253.045267 226.834675 
L 253.446768 226.834675 
L 253.446768 226.048757 
L 254.293468 226.048757 
L 254.293468 225.262838 
L 254.424878 225.262838 
L 254.49436 223.691001 
L 254.833438 223.691001 
L 254.833438 222.905083 
L 254.959356 222.905083 
L 254.959356 222.119164 
L 255.113347 222.119164 
L 255.187864 219.761408 
L 255.399385 219.761408 
L 255.485625 218.189571 
L 255.547034 218.189571 
L 255.637713 215.831815 
L 255.722873 215.831815 
L 255.779198 214.259978 
L 255.838705 214.259978 
L 255.939526 212.688141 
L 256.032659 212.688141 
L 256.121301 209.544466 
L 256.152367 209.544466 
L 256.246873 204.043036 
L 256.28256 204.043036 
L 256.341661 202.471199 
L 256.417265 202.471199 
L 256.510068 199.327525 
L 257.179302 199.327525 
L 257.179302 198.541606 
L 257.388952 198.541606 
L 257.388952 197.755688 
L 257.687586 197.755688 
L 257.687586 196.969769 
L 257.881221 196.969769 
L 257.881221 196.18385 
L 258.216677 196.18385 
L 258.291447 194.612013 
L 258.331562 194.612013 
L 258.331562 193.826095 
L 258.602738 193.826095 
L 258.602738 193.040176 
L 259.425995 193.040176 
L 259.478307 191.468339 
L 259.5884 191.468339 
L 259.5884 190.68242 
L 260.866155 190.68242 
L 260.895841 178.107723 
L 261.298526 178.107723 
L 261.35063 176.535886 
L 261.43043 176.535886 
L 261.43043 175.749967 
L 261.681592 175.749967 
L 261.718743 174.17813 
L 262.685392 174.17813 
L 262.685392 173.392211 
L 268.274565 173.392211 
L 268.274565 172.606293 
L 268.599695 172.606293 
L 268.690279 171.034455 
L 269.102893 171.034455 
L 269.102893 170.248537 
L 269.332471 170.248537 
L 269.418813 168.6767 
L 269.490771 168.6767 
L 269.490771 167.890781 
L 269.772699 167.890781 
L 269.799802 166.318944 
L 270.334897 166.318944 
L 270.334897 165.533025 
L 270.514179 165.533025 
L 270.514179 164.747107 
L 270.638997 164.747107 
L 270.705915 163.17527 
L 270.893471 163.17527 
L 270.952131 161.603432 
L 271.009641 161.603432 
L 271.101528 159.245677 
L 271.124535 159.245677 
L 271.124535 158.459758 
L 271.285486 158.459758 
L 271.285486 157.673839 
L 271.437985 157.673839 
L 271.437985 156.887921 
L 271.605484 156.887921 
L 271.605484 156.102002 
L 271.913325 156.102002 
L 271.967116 154.530165 
L 272.103029 154.530165 
L 272.170527 152.958328 
L 272.300854 152.958328 
L 272.300854 152.172409 
L 272.434951 152.172409 
L 272.434951 151.386491 
L 273.288073 151.386491 
L 273.288073 150.600572 
L 273.749111 150.600572 
L 273.749111 149.814653 
L 274.359169 149.814653 
L 274.359169 149.028735 
L 275.938599 149.028735 
L 275.982221 147.456898 
L 276.136027 147.456898 
L 276.136027 146.670979 
L 276.787607 146.670979 
L 276.869669 145.099142 
L 277.204048 145.099142 
L 277.261874 143.527305 
L 277.737748 143.527305 
L 277.737748 142.741386 
L 277.974623 142.741386 
L 277.974623 141.955468 
L 278.3421 141.955468 
L 278.3421 141.169549 
L 278.474649 141.169549 
L 278.537608 139.597712 
L 278.600228 139.597712 
L 278.6701 138.025875 
L 278.805209 138.025875 
L 278.878739 136.454037 
L 278.937554 136.454037 
L 279.044703 133.310363 
L 279.06822 133.310363 
L 279.152787 130.952607 
L 279.204928 130.952607 
L 279.204928 130.166689 
L 279.364833 130.166689 
L 279.364833 129.38077 
L 279.545939 129.38077 
L 279.620846 127.023014 
L 279.872582 127.023014 
L 279.873408 125.451177 
L 280.028786 125.451177 
L 280.085139 123.093421 
L 280.143869 123.093421 
L 280.185294 121.521584 
L 280.310701 121.521584 
L 280.310701 120.735666 
L 280.440825 120.735666 
L 280.440825 119.949747 
L 280.558433 119.949747 
L 280.622371 117.591991 
L 280.883206 117.591991 
L 280.95575 116.020154 
L 281.156482 116.020154 
L 281.156482 115.234235 
L 281.766731 115.234235 
L 281.766731 114.448317 
L 282.156883 114.448317 
L 282.156883 113.662398 
L 282.307179 113.662398 
L 282.316005 112.090561 
L 282.88389 112.090561 
L 282.907564 109.732805 
L 283.522653 109.732805 
L 283.522653 108.946887 
L 284.303532 108.946887 
L 284.335611 107.37505 
L 285.741225 107.37505 
L 285.741225 106.589131 
L 285.88143 106.589131 
L 285.88143 105.803212 
L 286.021677 105.803212 
L 286.021677 105.017294 
L 286.160778 105.017294 
L 286.160778 104.231375 
L 286.626962 104.231375 
L 286.626962 103.445457 
L 287.10626 103.445457 
L 287.10626 102.659538 
L 287.381978 102.659538 
L 287.381978 101.873619 
L 288.153727 101.873619 
L 288.153727 101.087701 
L 288.745954 101.087701 
L 288.745954 100.301782 
L 289.692279 100.301782 
L 289.692279 99.515864 
L 290.054486 99.515864 
L 290.054486 98.729945 
L 290.194016 98.729945 
L 290.194016 97.944026 
L 291.09974 97.944026 
L 291.09974 97.158108 
L 291.614724 97.158108 
L 291.614724 96.372189 
L 291.880506 96.372189 
L 291.880506 95.586271 
L 292.379104 95.586271 
L 292.379104 94.800352 
L 292.555849 94.800352 
L 292.603319 92.442596 
L 292.770542 92.442596 
L 292.770542 91.656678 
L 293.516399 91.656678 
L 293.516399 90.870759 
L 293.781173 90.870759 
L 293.781173 90.08484 
L 294.135766 90.08484 
L 294.135766 89.298922 
L 295.488109 89.298922 
L 295.488109 88.513003 
L 302.735506 88.513003 
L 302.735506 87.727085 
L 306.653051 87.727085 
L 306.653051 86.941166 
L 314.946758 86.941166 
L 314.946758 86.155248 
L 315.864182 86.155248 
L 315.864182 74.366469 
L 318.0929 74.366469 
L 318.0929 73.58055 
L 319.483667 73.58055 
L 319.483667 72.794631 
L 319.737758 72.794631 
L 319.737758 72.008713 
L 320.354151 72.008713 
L 320.354151 71.222794 
L 320.841072 71.222794 
L 320.841072 70.436876 
L 323.281736 70.436876 
L 323.281736 69.650957 
L 324.225578 69.650957 
L 324.225578 68.865039 
L 324.682769 68.865039 
L 324.682769 68.07912 
L 326.219329 68.07912 
L 326.219329 67.293201 
L 326.871731 67.293201 
L 326.928725 65.721364 
L 327.91131 65.721364 
L 327.960671 64.149527 
L 328.181206 64.149527 
L 328.181206 63.363608 
L 330.460071 63.363608 
L 330.460071 62.57769 
L 331.45718 62.57769 
L 331.45718 61.791771 
L 331.840186 61.791771 
L 331.840186 61.005853 
L 332.367695 61.005853 
L 332.367695 60.219934 
L 333.156642 60.219934 
L 333.156642 59.434015 
L 337.498056 59.434015 
L 337.498056 58.648097 
L 340.18676 58.648097 
L 340.18676 57.862178 
L 341.232622 57.862178 
L 341.232622 57.07626 
L 346.178714 57.07626 
L 346.178714 56.290341 
L 346.979786 56.290341 
L 346.979786 55.504422 
L 347.607562 55.504422 
L 347.607562 54.718504 
L 347.757423 54.718504 
L 347.757423 53.932585 
L 348.875769 53.932585 
L 348.875769 53.146667 
L 349.136683 53.146667 
L 349.136683 52.360748 
L 349.97268 52.360748 
L 349.97268 51.574829 
L 350.4107 51.574829 
L 350.4107 50.788911 
L 350.838845 50.788911 
L 350.838845 50.002992 
L 353.308774 50.002992 
L 353.308774 49.217074 
L 353.815109 49.217074 
L 353.815109 48.431155 
L 354.297707 48.431155 
L 354.389042 46.859318 
L 357.02922 46.859318 
L 357.02922 46.073399 
L 357.256098 46.073399 
L 357.256098 45.287481 
L 359.850547 45.287481 
L 359.850547 44.501562 
L 361.809095 44.501562 
L 361.809095 43.715644 
L 364.130829 43.715644 
L 364.130829 42.929725 
L 367.374225 42.929725 
L 367.374225 42.143806 
L 368.956838 42.143806 
L 369.046521 40.571969 
L 369.229248 40.571969 
L 369.229248 39.786051 
L 369.501298 39.786051 
L 369.501298 39.000132 
L 370.225985 39.000132 
L 370.225985 38.214213 
L 371.102587 38.214213 
L 371.102587 37.428295 
L 372.102537 37.428295 
L 372.102537 36.642376 
L 372.817475 36.642376 
L 372.867376 34.28462 
L 373.650931 34.28462 
L 373.650931 33.498702 
L 374.45432 33.498702 
L 374.492601 31.926865 
L 374.978473 31.926865 
L 374.978473 31.140946 
L 375.220787 31.140946 
L 375.220787 30.355028 
L 375.657368 30.355028 
L 375.657368 29.569109 
L 376.530267 29.569109 
L 376.618597 27.997272 
L 376.900203 27.997272 
L 376.900203 27.211353 
L 377.087783 27.211353 
L 377.087783 26.425435 
L 377.267612 26.425435 
L 377.267612 25.639516 
L 379.426261 25.639516 
L 379.530997 24.067679 
L 379.575878 24.067679 
L 379.575878 23.28176 
L 379.916285 23.28176 
L 379.926885 21.709923 
L 380.904902 21.709923 
L 380.904902 20.924004 
L 382.052397 20.924004 
L 382.052397 20.138086 
L 409.440053 20.138086 
L 409.440053 19.352167 
L 409.988667 19.352167 
L 409.988667 18.566249 
L 414.198844 18.566249 
L 414.198844 17.78033 
L 415.840025 17.78033 
L 415.840025 16.994411 
L 416.064573 16.994411 
L 416.064573 16.208493 
L 416.79362 16.208493 
L 416.79362 15.422574 
L 416.973016 15.422574 
L 416.973016 14.636656 
L 418.135382 14.636656 
L 418.135382 13.850737 
L 419.286704 13.850737 
L 419.286704 13.064818 
L 419.82133 13.064818 
L 419.82133 12.2789 
L 421.357727 12.2789 
L 421.357727 11.492981 
L 422.024132 11.492981 
L 422.024132 10.707063 
L 424.251021 10.707063 
L 424.251021 9.921144 
L 425.999578 9.921144 
L 425.999578 9.135226 
L 428.566082 9.135226 
L 428.566082 8.349307 
L 428.566082 8.349307 
L 450.672 8.349307 
L 450.672 8.349307 
" style="fill:none;stroke:#bf00bf;stroke-linecap:square;stroke-width:1.5;"/>
   </g>
   <g id="line2d_26">
    <path clip-path="url(#p80338d4a9e)" d="M 192.716646 291.28 
L 192.716646 279.491221 
L 217.758697 279.491221 
L 217.758697 278.705303 
L 223.756817 278.705303 
L 223.756817 277.919384 
L 225.173879 277.919384 
L 225.173879 277.133465 
L 225.417134 277.133465 
L 225.417134 276.347547 
L 226.349284 276.347547 
L 226.436861 274.77571 
L 226.754531 274.77571 
L 226.754531 273.989791 
L 227.32525 273.989791 
L 227.41425 272.417954 
L 227.873234 272.417954 
L 227.873234 271.632035 
L 228.451525 271.632035 
L 228.451525 270.846117 
L 228.565436 270.846117 
L 228.565436 270.060198 
L 228.890692 270.060198 
L 228.977481 268.488361 
L 229.534139 268.488361 
L 229.534139 267.702442 
L 234.530276 267.702442 
L 234.530276 266.916524 
L 235.569154 266.916524 
L 235.670943 264.558768 
L 235.73139 264.558768 
L 235.73139 263.772849 
L 235.894855 263.772849 
L 235.894855 262.986931 
L 236.083209 262.986931 
L 236.083209 262.201012 
L 236.502248 262.201012 
L 236.502248 261.415094 
L 237.10057 261.415094 
L 237.10057 260.629175 
L 237.273616 260.629175 
L 237.273616 259.843256 
L 238.401499 259.843256 
L 238.401499 259.057338 
L 238.731724 259.057338 
L 238.731724 258.271419 
L 239.039336 258.271419 
L 239.039336 257.485501 
L 240.78508 257.485501 
L 240.78508 256.699582 
L 241.565335 256.699582 
L 241.565335 255.913663 
L 242.979326 255.913663 
L 242.979326 255.127745 
L 243.794384 255.127745 
L 243.794384 254.341826 
L 243.958562 254.341826 
L 243.958562 253.555908 
L 244.449048 253.555908 
L 244.449048 252.769989 
L 244.997801 252.769989 
L 244.997801 251.98407 
L 246.451282 251.98407 
L 246.451282 251.198152 
L 246.80287 251.198152 
L 246.80287 250.412233 
L 247.268753 250.412233 
L 247.286161 248.840396 
L 247.568372 248.840396 
L 247.58491 247.268559 
L 247.802662 247.268559 
L 247.838452 245.696722 
L 248.423782 245.696722 
L 248.507272 243.338966 
L 248.540167 243.338966 
L 248.540167 242.553047 
L 248.736182 242.553047 
L 248.736182 241.767129 
L 248.914527 241.767129 
L 248.914527 240.98121 
L 249.073101 240.98121 
L 249.073101 240.195292 
L 249.249484 240.195292 
L 249.249484 239.409373 
L 249.403973 239.409373 
L 249.403973 238.623454 
L 249.662162 238.623454 
L 249.662162 237.837536 
L 249.780005 237.837536 
L 249.780005 237.051617 
L 250.307972 237.051617 
L 250.307972 236.265699 
L 250.460323 236.265699 
L 250.562035 234.693861 
L 250.630486 234.693861 
L 250.631296 233.122024 
L 250.909392 233.122024 
L 250.997219 231.550187 
L 251.034085 231.550187 
L 251.042549 229.97835 
L 251.252187 229.97835 
L 251.285536 227.620594 
L 251.380076 227.620594 
L 251.380076 226.834675 
L 251.496867 226.834675 
L 251.496867 226.048757 
L 251.617793 226.048757 
L 251.617793 225.262838 
L 251.87638 225.262838 
L 251.87638 224.47692 
L 252.745463 224.47692 
L 252.745463 223.691001 
L 253.703745 223.691001 
L 253.703745 222.905083 
L 254.293468 222.905083 
L 254.293468 222.119164 
L 254.424878 222.119164 
L 254.49436 220.547327 
L 254.959356 220.547327 
L 254.959356 219.761408 
L 255.113347 219.761408 
L 255.187864 217.403652 
L 255.399385 217.403652 
L 255.485625 215.831815 
L 255.547034 215.831815 
L 255.639352 210.330385 
L 255.759842 210.330385 
L 255.838705 207.972629 
L 255.889851 207.972629 
L 255.889851 207.186711 
L 256.050987 207.186711 
L 256.152367 203.257118 
L 256.179032 203.257118 
L 256.28256 200.113443 
L 256.292522 200.113443 
L 256.341661 198.541606 
L 256.433546 198.541606 
L 256.435682 196.969769 
L 257.179302 196.969769 
L 257.179302 196.18385 
L 257.388952 196.18385 
L 257.388952 195.397932 
L 257.687586 195.397932 
L 257.687586 194.612013 
L 257.943769 194.612013 
L 257.943769 193.826095 
L 258.216677 193.826095 
L 258.291447 192.254257 
L 258.602738 192.254257 
L 258.602738 191.468339 
L 259.237435 191.468339 
L 259.237435 190.68242 
L 259.478307 190.68242 
L 259.5884 189.110583 
L 260.866155 189.110583 
L 260.895841 176.535886 
L 261.298526 176.535886 
L 261.298526 175.749967 
L 261.43043 175.749967 
L 261.43043 174.964048 
L 261.681592 174.964048 
L 261.681592 174.17813 
L 262.496277 174.17813 
L 262.496277 173.392211 
L 266.560105 173.392211 
L 266.560105 172.606293 
L 266.680677 172.606293 
L 266.680677 171.820374 
L 267.180911 171.820374 
L 267.180911 171.034455 
L 267.441525 171.034455 
L 267.441525 170.248537 
L 267.937619 170.248537 
L 267.937619 169.462618 
L 268.508737 169.462618 
L 268.599695 166.318944 
L 269.098841 166.318944 
L 269.102893 164.747107 
L 269.332471 164.747107 
L 269.418813 162.389351 
L 269.470809 162.389351 
L 269.515241 160.031595 
L 270.309154 160.031595 
L 270.309154 159.245677 
L 270.514179 159.245677 
L 270.590767 157.673839 
L 270.952131 157.673839 
L 270.952131 156.887921 
L 271.124535 156.887921 
L 271.124535 156.102002 
L 271.285486 156.102002 
L 271.285486 155.316084 
L 271.605484 155.316084 
L 271.605484 154.530165 
L 271.913325 154.530165 
L 271.967116 152.958328 
L 272.103029 152.958328 
L 272.170527 151.386491 
L 272.290809 151.386491 
L 272.300854 149.814653 
L 272.434951 149.814653 
L 272.434951 149.028735 
L 273.288073 149.028735 
L 273.288073 148.242816 
L 273.749111 148.242816 
L 273.749111 147.456898 
L 273.876967 147.456898 
L 273.876967 146.670979 
L 274.359169 146.670979 
L 274.359169 145.885061 
L 275.089572 145.885061 
L 275.089572 145.099142 
L 275.938599 145.099142 
L 275.938599 144.313223 
L 276.136027 144.313223 
L 276.136027 143.527305 
L 276.787607 143.527305 
L 276.869669 141.955468 
L 276.98995 141.955468 
L 277.009725 140.38363 
L 277.204048 140.38363 
L 277.261874 138.811793 
L 277.551847 138.811793 
L 277.551847 138.025875 
L 277.737748 138.025875 
L 277.841583 136.454037 
L 277.974623 136.454037 
L 278.080405 134.096282 
L 278.3421 134.096282 
L 278.3421 133.310363 
L 278.474649 133.310363 
L 278.537608 131.738526 
L 278.600228 131.738526 
L 278.6701 130.166689 
L 278.768697 130.166689 
L 278.878739 127.808933 
L 278.937554 127.808933 
L 279.044703 124.665259 
L 279.06822 124.665259 
L 279.152787 123.093421 
L 279.346691 123.093421 
L 279.364833 121.521584 
L 279.545939 121.521584 
L 279.620846 119.163828 
L 279.872582 119.163828 
L 279.873408 117.591991 
L 280.028786 117.591991 
L 280.085139 115.234235 
L 280.310701 115.234235 
L 280.310701 114.448317 
L 280.558433 114.448317 
L 280.622371 112.090561 
L 280.696634 112.090561 
L 280.696634 111.304642 
L 280.946414 111.304642 
L 280.994616 109.732805 
L 281.156482 109.732805 
L 281.156482 108.946887 
L 281.511175 108.946887 
L 281.618335 107.37505 
L 281.628061 107.37505 
L 281.698723 105.803212 
L 281.808276 105.803212 
L 281.808276 105.017294 
L 282.155671 105.017294 
L 282.155671 104.231375 
L 282.316005 104.231375 
L 282.316005 103.445457 
L 282.90155 103.445457 
L 282.907564 101.873619 
L 284.303532 101.873619 
L 284.335611 100.301782 
L 285.530712 100.301782 
L 285.530712 99.515864 
L 286.021677 99.515864 
L 286.021677 98.729945 
L 288.153727 98.729945 
L 288.153727 97.944026 
L 288.745954 97.944026 
L 288.745954 97.158108 
L 289.692279 97.158108 
L 289.692279 96.372189 
L 290.030887 96.372189 
L 290.030887 95.586271 
L 290.194016 95.586271 
L 290.194016 94.800352 
L 291.09974 94.800352 
L 291.109713 93.228515 
L 291.211295 93.228515 
L 291.211295 92.442596 
L 291.326632 92.442596 
L 291.326632 91.656678 
L 291.880506 91.656678 
L 291.880506 90.870759 
L 292.555849 90.870759 
L 292.563907 89.298922 
L 292.770542 89.298922 
L 292.770542 88.513003 
L 293.516399 88.513003 
L 293.516399 87.727085 
L 293.781173 87.727085 
L 293.865629 86.155248 
L 299.036568 86.155248 
L 299.036568 85.369329 
L 305.599739 85.369329 
L 305.599739 84.58341 
L 311.790254 84.58341 
L 311.790254 83.797492 
L 311.995108 83.797492 
L 311.995108 83.011573 
L 313.81805 83.011573 
L 313.81805 82.225655 
L 314.44354 82.225655 
L 314.44354 81.439736 
L 314.946758 81.439736 
L 314.946758 80.653817 
L 315.661532 80.653817 
L 315.661532 79.867899 
L 315.864182 79.867899 
L 315.864182 68.07912 
L 319.483667 68.07912 
L 319.483667 67.293201 
L 319.737758 67.293201 
L 319.737758 66.507283 
L 320.354151 66.507283 
L 320.354151 65.721364 
L 323.281736 65.721364 
L 323.281736 64.935446 
L 324.225578 64.935446 
L 324.225578 64.149527 
L 326.219329 64.149527 
L 326.219329 63.363608 
L 326.871731 63.363608 
L 326.928725 61.791771 
L 327.91131 61.791771 
L 327.960671 60.219934 
L 328.181206 60.219934 
L 328.181206 59.434015 
L 330.460071 59.434015 
L 330.460071 58.648097 
L 331.45718 58.648097 
L 331.45718 57.862178 
L 331.840186 57.862178 
L 331.840186 57.07626 
L 332.367695 57.07626 
L 332.367695 56.290341 
L 333.156642 56.290341 
L 333.156642 55.504422 
L 336.151825 55.504422 
L 336.151825 54.718504 
L 337.498056 54.718504 
L 337.498056 53.932585 
L 340.18676 53.932585 
L 340.18676 53.146667 
L 341.891456 53.146667 
L 341.891456 52.360748 
L 344.746903 52.360748 
L 344.746903 51.574829 
L 346.156532 51.574829 
L 346.178714 50.002992 
L 347.115369 50.002992 
L 347.115369 49.217074 
L 347.563807 49.217074 
L 347.563807 48.431155 
L 352.685173 48.431155 
L 352.685173 47.645237 
L 353.308774 47.645237 
L 353.402484 46.073399 
L 353.793969 46.073399 
L 353.815109 44.501562 
L 353.911765 44.501562 
L 353.911765 43.715644 
L 364.130829 43.715644 
L 364.140185 42.143806 
L 364.299378 42.143806 
L 364.299378 41.357888 
L 366.357705 41.357888 
L 366.357705 40.571969 
L 366.769398 40.571969 
L 366.769398 39.786051 
L 367.244207 39.786051 
L 367.244207 39.000132 
L 367.374225 39.000132 
L 367.374225 38.214213 
L 367.981604 38.214213 
L 367.981604 37.428295 
L 368.132212 37.428295 
L 368.132212 36.642376 
L 368.331668 36.642376 
L 368.331668 35.856458 
L 368.956838 35.856458 
L 368.961181 34.28462 
L 369.229248 34.28462 
L 369.229248 33.498702 
L 369.501298 33.498702 
L 369.501298 32.712783 
L 370.327576 32.712783 
L 370.327576 31.926865 
L 371.102587 31.926865 
L 371.102587 31.140946 
L 371.589446 31.140946 
L 371.62015 29.569109 
L 372.102864 29.569109 
L 372.102864 28.78319 
L 372.511841 28.78319 
L 372.511841 27.997272 
L 374.439227 27.997272 
L 374.45432 26.425435 
L 374.610052 26.425435 
L 374.610052 25.639516 
L 374.978473 25.639516 
L 374.978473 24.853597 
L 375.657368 24.853597 
L 375.657368 24.067679 
L 375.978246 24.067679 
L 375.978246 23.28176 
L 377.267612 23.28176 
L 377.267612 22.495842 
L 378.520284 22.495842 
L 378.520284 21.709923 
L 378.805069 21.709923 
L 378.879359 20.138086 
L 408.58794 20.138086 
L 408.58794 19.352167 
L 409.440053 19.352167 
L 409.440053 18.566249 
L 409.988667 18.566249 
L 409.988667 17.78033 
L 414.198844 17.78033 
L 414.198844 16.994411 
L 414.795557 16.994411 
L 414.795557 16.208493 
L 415.139466 16.208493 
L 415.139466 15.422574 
L 416.064573 15.422574 
L 416.064573 14.636656 
L 416.79362 14.636656 
L 416.79362 13.850737 
L 416.973016 13.850737 
L 416.973016 13.064818 
L 417.828896 13.064818 
L 417.855721 11.492981 
L 418.211112 11.492981 
L 418.211112 10.707063 
L 419.832832 10.707063 
L 419.832832 9.921144 
L 422.024132 9.921144 
L 422.024132 9.135226 
L 425.562948 9.135226 
L 425.562948 8.349307 
L 425.562948 8.349307 
L 450.672 8.349307 
L 450.672 8.349307 
" style="fill:none;stroke:#000000;stroke-linecap:square;stroke-width:1.5;"/>
   </g>
   <g id="line2d_27">
    <path clip-path="url(#p80338d4a9e)" d="M 192.716646 291.28 
L 192.716646 279.491221 
L 217.758697 279.491221 
L 217.758697 278.705303 
L 221.939733 278.705303 
L 221.939733 277.919384 
L 223.238342 277.919384 
L 223.238342 277.133465 
L 224.888761 277.133465 
L 224.888761 276.347547 
L 225.173879 276.347547 
L 225.173879 275.561628 
L 225.417134 275.561628 
L 225.417134 274.77571 
L 226.164184 274.77571 
L 226.164184 273.989791 
L 226.349284 273.989791 
L 226.436861 271.632035 
L 226.637926 271.632035 
L 226.637926 270.846117 
L 226.754531 270.846117 
L 226.754531 270.060198 
L 227.32525 270.060198 
L 227.32525 269.274279 
L 227.70787 269.274279 
L 227.70787 268.488361 
L 228.088728 268.488361 
L 228.088728 267.702442 
L 234.530276 267.702442 
L 234.530276 266.916524 
L 234.923425 266.916524 
L 234.923425 266.130605 
L 235.569154 266.130605 
L 235.670943 262.986931 
L 235.894855 262.986931 
L 235.894855 262.201012 
L 236.083209 262.201012 
L 236.083209 261.415094 
L 236.285329 261.415094 
L 236.304379 259.843256 
L 237.10057 259.843256 
L 237.10057 259.057338 
L 237.273616 259.057338 
L 237.273616 258.271419 
L 238.156088 258.271419 
L 238.156088 257.485501 
L 239.039336 257.485501 
L 239.039336 256.699582 
L 240.814536 256.699582 
L 240.814536 255.913663 
L 241.565335 255.913663 
L 241.565335 255.127745 
L 242.979326 255.127745 
L 242.979326 254.341826 
L 243.958562 254.341826 
L 243.958562 253.555908 
L 244.161509 253.555908 
L 244.161509 252.769989 
L 244.449048 252.769989 
L 244.449048 251.98407 
L 244.997801 251.98407 
L 244.997801 251.198152 
L 246.302114 251.198152 
L 246.302114 250.412233 
L 246.451282 250.412233 
L 246.493469 248.840396 
L 247.245337 248.840396 
L 247.286161 246.48264 
L 247.361608 246.48264 
L 247.361608 245.696722 
L 247.568372 245.696722 
L 247.58491 244.124884 
L 247.713769 244.124884 
L 247.802662 242.553047 
L 247.875895 242.553047 
L 247.875895 241.767129 
L 247.987187 241.767129 
L 247.987187 240.98121 
L 248.145063 240.98121 
L 248.145063 240.195292 
L 248.444127 240.195292 
L 248.507272 238.623454 
L 248.914527 238.623454 
L 248.990522 237.051617 
L 249.073101 237.051617 
L 249.073101 236.265699 
L 249.376382 236.265699 
L 249.376382 235.47978 
L 249.616579 235.47978 
L 249.669395 233.122024 
L 250.018244 233.122024 
L 250.018244 232.336106 
L 250.460323 232.336106 
L 250.460323 231.550187 
L 250.677765 231.550187 
L 250.677765 230.764268 
L 250.909392 230.764268 
L 250.909392 229.97835 
L 251.034085 229.97835 
L 251.034085 229.192431 
L 251.252187 229.192431 
L 251.285536 226.834675 
L 251.380076 226.834675 
L 251.380076 226.048757 
L 251.496867 226.048757 
L 251.496867 225.262838 
L 251.617793 225.262838 
L 251.617793 224.47692 
L 252.650384 224.47692 
L 252.652163 222.905083 
L 253.703745 222.905083 
L 253.703745 222.119164 
L 254.424878 222.119164 
L 254.49436 220.547327 
L 254.767416 220.547327 
L 254.767416 219.761408 
L 254.883257 219.761408 
L 254.959356 217.403652 
L 255.080544 217.403652 
L 255.187864 213.474059 
L 255.212399 213.474059 
L 255.212399 212.688141 
L 255.485625 212.688141 
L 255.581392 209.544466 
L 255.622577 209.544466 
L 255.637713 207.972629 
L 255.779198 207.972629 
L 255.889851 204.828955 
L 255.947048 204.828955 
L 256.041983 203.257118 
L 256.065463 203.257118 
L 256.156719 200.899362 
L 256.179032 200.899362 
L 256.213289 197.755688 
L 256.373841 197.755688 
L 256.451719 195.397932 
L 257.179302 195.397932 
L 257.179302 194.612013 
L 257.388952 194.612013 
L 257.388952 193.826095 
L 257.517099 193.826095 
L 257.517099 193.040176 
L 257.687586 193.040176 
L 257.687586 192.254257 
L 258.216677 192.254257 
L 258.291447 190.68242 
L 258.602738 190.68242 
L 258.602738 189.896502 
L 258.876807 189.896502 
L 258.876807 189.110583 
L 259.237435 189.110583 
L 259.237435 188.324664 
L 259.546156 188.324664 
L 259.59664 186.752827 
L 259.876777 186.752827 
L 259.879231 185.18099 
L 260.316443 185.18099 
L 260.316443 184.395072 
L 260.536225 184.395072 
L 260.536225 183.609153 
L 260.771699 183.609153 
L 260.877332 181.251397 
L 260.895841 181.251397 
L 260.895841 169.462618 
L 261.145731 169.462618 
L 261.145731 168.6767 
L 261.298526 168.6767 
L 261.298526 167.890781 
L 261.43043 167.890781 
L 261.43043 167.104862 
L 261.681592 167.104862 
L 261.681592 166.318944 
L 261.792804 166.318944 
L 261.792804 165.533025 
L 262.483866 165.533025 
L 262.483866 164.747107 
L 263.530477 164.747107 
L 263.530477 163.961188 
L 264.041022 163.961188 
L 264.041022 163.17527 
L 264.755323 163.17527 
L 264.755323 162.389351 
L 265.181569 162.389351 
L 265.181569 161.603432 
L 267.180911 161.603432 
L 267.180911 160.817514 
L 268.511949 160.817514 
L 268.511949 160.031595 
L 269.332471 160.031595 
L 269.418813 158.459758 
L 270.514179 158.459758 
L 270.514179 157.673839 
L 270.952131 157.673839 
L 270.952131 156.887921 
L 271.124535 156.887921 
L 271.124535 156.102002 
L 271.285486 156.102002 
L 271.285486 155.316084 
L 271.605484 155.316084 
L 271.605484 154.530165 
L 271.913325 154.530165 
L 271.967116 152.958328 
L 272.098057 152.958328 
L 272.170527 150.600572 
L 272.290809 150.600572 
L 272.300854 149.028735 
L 273.288073 149.028735 
L 273.288073 148.242816 
L 273.749111 148.242816 
L 273.749111 147.456898 
L 273.876967 147.456898 
L 273.876967 146.670979 
L 274.359169 146.670979 
L 274.359169 145.885061 
L 275.089572 145.885061 
L 275.089572 145.099142 
L 275.938599 145.099142 
L 275.938599 144.313223 
L 276.136027 144.313223 
L 276.136027 143.527305 
L 276.787607 143.527305 
L 276.869669 141.169549 
L 276.98995 141.169549 
L 277.009725 139.597712 
L 277.123368 139.597712 
L 277.220591 137.239956 
L 277.261874 137.239956 
L 277.292051 135.668119 
L 277.551847 135.668119 
L 277.551847 134.8822 
L 277.737748 134.8822 
L 277.841583 133.310363 
L 277.974623 133.310363 
L 278.077365 130.952607 
L 278.3421 130.952607 
L 278.432474 128.594851 
L 278.474649 128.594851 
L 278.474649 127.808933 
L 278.657456 127.808933 
L 278.6701 126.237096 
L 278.768697 126.237096 
L 278.878739 123.87934 
L 278.979596 123.87934 
L 279.06822 121.521584 
L 279.152787 121.521584 
L 279.154731 119.949747 
L 279.346691 119.949747 
L 279.364833 118.37791 
L 279.545939 118.37791 
L 279.620846 116.020154 
L 279.872582 116.020154 
L 279.873408 114.448317 
L 280.028786 114.448317 
L 280.085139 112.090561 
L 280.310701 112.090561 
L 280.310701 111.304642 
L 280.49216 111.304642 
L 280.558433 109.732805 
L 280.612071 109.732805 
L 280.616731 107.37505 
L 280.783715 107.37505 
L 280.809608 105.803212 
L 280.922263 105.803212 
L 280.994616 103.445457 
L 281.156482 103.445457 
L 281.156482 102.659538 
L 281.270463 102.659538 
L 281.270463 101.873619 
L 281.511175 101.873619 
L 281.511175 101.087701 
L 281.628061 101.087701 
L 281.628061 100.301782 
L 282.155671 100.301782 
L 282.155671 99.515864 
L 282.316005 99.515864 
L 282.316005 98.729945 
L 282.598225 98.729945 
L 282.598225 97.944026 
L 282.749961 97.944026 
L 282.837632 96.372189 
L 285.530712 96.372189 
L 285.530712 95.586271 
L 287.051528 95.586271 
L 287.051528 94.800352 
L 288.153727 94.800352 
L 288.153727 94.014433 
L 288.745954 94.014433 
L 288.745954 93.228515 
L 289.692279 93.228515 
L 289.692279 92.442596 
L 290.030887 92.442596 
L 290.030887 91.656678 
L 290.189398 91.656678 
L 290.194016 90.08484 
L 291.09974 90.08484 
L 291.109713 88.513003 
L 291.211295 88.513003 
L 291.211295 87.727085 
L 291.326632 87.727085 
L 291.326632 86.941166 
L 291.880506 86.941166 
L 291.880506 86.155248 
L 292.186868 86.155248 
L 292.186868 85.369329 
L 292.555849 85.369329 
L 292.555849 84.58341 
L 292.856071 84.58341 
L 292.856071 83.797492 
L 293.516399 83.797492 
L 293.527993 82.225655 
L 294.696487 82.225655 
L 294.696487 81.439736 
L 295.520157 81.439736 
L 295.520157 80.653817 
L 311.186696 80.653817 
L 311.186696 79.867899 
L 314.946758 79.867899 
L 314.946758 79.08198 
L 315.864182 79.08198 
L 315.864182 67.293201 
L 317.293371 67.293201 
L 317.293371 66.507283 
L 319.483667 66.507283 
L 319.483667 65.721364 
L 319.737758 65.721364 
L 319.737758 64.935446 
L 320.354151 64.935446 
L 320.354151 64.149527 
L 323.281736 64.149527 
L 323.281736 63.363608 
L 324.225578 63.363608 
L 324.225578 62.57769 
L 326.219329 62.57769 
L 326.219329 61.791771 
L 326.871731 61.791771 
L 326.928725 60.219934 
L 327.91131 60.219934 
L 327.960671 58.648097 
L 328.181206 58.648097 
L 328.181206 57.862178 
L 330.460071 57.862178 
L 330.460071 57.07626 
L 331.45718 57.07626 
L 331.45718 56.290341 
L 331.840186 56.290341 
L 331.840186 55.504422 
L 332.367695 55.504422 
L 332.367695 54.718504 
L 336.060194 54.718504 
L 336.060194 53.932585 
L 336.688796 53.932585 
L 336.688796 53.146667 
L 338.756309 53.146667 
L 338.756309 52.360748 
L 341.891456 52.360748 
L 341.891456 51.574829 
L 344.711135 51.574829 
L 344.711135 50.788911 
L 345.766766 50.788911 
L 345.766766 50.002992 
L 346.156532 50.002992 
L 346.156532 49.217074 
L 346.559246 49.217074 
L 346.559246 48.431155 
L 346.977048 48.431155 
L 346.977048 47.645237 
L 347.115369 47.645237 
L 347.115369 46.859318 
L 350.47908 46.859318 
L 350.47908 46.073399 
L 352.441765 46.073399 
L 352.441765 45.287481 
L 353.815109 45.287481 
L 353.911765 43.715644 
L 363.916145 43.715644 
L 363.916145 42.929725 
L 364.130829 42.929725 
L 364.175524 40.571969 
L 364.299378 40.571969 
L 364.299378 39.786051 
L 364.441162 39.786051 
L 364.441162 39.000132 
L 365.211246 39.000132 
L 365.211246 38.214213 
L 365.741807 38.214213 
L 365.827861 36.642376 
L 366.360943 36.642376 
L 366.360943 35.856458 
L 366.473866 35.856458 
L 366.473866 35.070539 
L 366.769398 35.070539 
L 366.769398 34.28462 
L 367.244207 34.28462 
L 367.244207 33.498702 
L 367.520024 33.498702 
L 367.520024 32.712783 
L 367.981604 32.712783 
L 367.981604 31.926865 
L 368.132212 31.926865 
L 368.132212 31.140946 
L 368.331668 31.140946 
L 368.331668 30.355028 
L 368.956838 30.355028 
L 368.961181 28.78319 
L 369.229248 28.78319 
L 369.229248 27.997272 
L 369.501298 27.997272 
L 369.501298 27.211353 
L 371.102587 27.211353 
L 371.102587 26.425435 
L 371.414896 26.425435 
L 371.414896 25.639516 
L 371.62015 25.639516 
L 371.62015 24.853597 
L 371.942193 24.853597 
L 371.942193 24.067679 
L 372.102864 24.067679 
L 372.102864 23.28176 
L 374.978473 23.28176 
L 374.978473 22.495842 
L 375.26006 22.495842 
L 375.26006 21.709923 
L 375.9701 21.709923 
L 375.9701 20.924004 
L 377.23195 20.924004 
L 377.23195 20.138086 
L 408.58794 20.138086 
L 408.58794 19.352167 
L 409.440053 19.352167 
L 409.440053 18.566249 
L 409.988667 18.566249 
L 409.988667 17.78033 
L 412.765469 17.78033 
L 412.765469 16.994411 
L 414.198844 16.994411 
L 414.198844 16.208493 
L 414.795557 16.208493 
L 414.795557 15.422574 
L 415.139466 15.422574 
L 415.139466 14.636656 
L 416.064573 14.636656 
L 416.064573 13.850737 
L 416.454351 13.850737 
L 416.454351 13.064818 
L 416.79362 13.064818 
L 416.79362 12.2789 
L 416.973016 12.2789 
L 416.973016 11.492981 
L 417.374667 11.492981 
L 417.374667 10.707063 
L 417.828896 10.707063 
L 417.855721 9.135226 
L 418.211112 9.135226 
L 418.211112 8.349307 
L 418.211112 8.349307 
L 450.672 8.349307 
L 450.672 8.349307 
" style="fill:none;stroke:#00bfbf;stroke-linecap:square;stroke-width:1.5;"/>
   </g>
   <g id="line2d_28">
    <path clip-path="url(#p80338d4a9e)" d="M 5.410598 291.28 
L 5.410598 281.848977 
L 192.716646 281.848977 
L 192.716646 270.060198 
L 217.464398 270.060198 
L 217.464398 269.274279 
L 217.758697 269.274279 
L 217.758697 268.488361 
L 219.726013 268.488361 
L 219.726013 267.702442 
L 221.939733 267.702442 
L 221.939733 266.916524 
L 222.957936 266.916524 
L 222.957936 266.130605 
L 223.238342 266.130605 
L 223.327277 264.558768 
L 224.718881 264.558768 
L 224.718881 263.772849 
L 224.888761 263.772849 
L 224.982836 262.201012 
L 225.173879 262.201012 
L 225.173879 261.415094 
L 225.847324 261.415094 
L 225.847324 260.629175 
L 226.164184 260.629175 
L 226.255528 259.057338 
L 226.637926 259.057338 
L 226.637926 258.271419 
L 226.754531 258.271419 
L 226.754531 257.485501 
L 227.042855 257.485501 
L 227.042855 256.699582 
L 227.33732 256.699582 
L 227.33732 255.913663 
L 228.655957 255.913663 
L 228.655957 255.127745 
L 229.418198 255.127745 
L 229.418198 254.341826 
L 229.788066 254.341826 
L 229.788066 253.555908 
L 230.063067 253.555908 
L 230.097565 251.98407 
L 230.193942 251.98407 
L 230.193942 251.198152 
L 230.658169 251.198152 
L 230.658169 250.412233 
L 231.29912 250.412233 
L 231.299549 248.840396 
L 231.787898 248.840396 
L 231.787898 248.054477 
L 232.31254 248.054477 
L 232.31254 247.268559 
L 232.806805 247.268559 
L 232.806805 246.48264 
L 234.603699 246.48264 
L 234.603699 245.696722 
L 235.015766 245.696722 
L 235.015766 244.910803 
L 235.24807 244.910803 
L 235.24807 244.124884 
L 235.577646 244.124884 
L 235.577646 243.338966 
L 235.79438 243.338966 
L 235.79438 242.553047 
L 236.345134 242.553047 
L 236.345134 241.767129 
L 236.878252 241.767129 
L 236.878252 240.98121 
L 237.803444 240.98121 
L 237.803444 240.195292 
L 238.329598 240.195292 
L 238.329598 239.409373 
L 238.595788 239.409373 
L 238.595788 238.623454 
L 238.713695 238.623454 
L 238.713695 237.837536 
L 239.146682 237.837536 
L 239.148889 236.265699 
L 239.755308 236.265699 
L 239.796301 234.693861 
L 240.357148 234.693861 
L 240.357148 233.907943 
L 240.578512 233.907943 
L 240.582173 232.336106 
L 241.056909 232.336106 
L 241.056909 231.550187 
L 241.345798 231.550187 
L 241.345798 230.764268 
L 241.788119 230.764268 
L 241.880205 229.192431 
L 242.351173 229.192431 
L 242.351173 228.406513 
L 242.817917 228.406513 
L 242.833455 226.834675 
L 243.122494 226.834675 
L 243.122494 226.048757 
L 243.361556 226.048757 
L 243.416905 224.47692 
L 243.866819 224.47692 
L 243.95051 222.119164 
L 244.653878 222.119164 
L 244.653878 221.333245 
L 244.846494 221.333245 
L 244.854997 219.761408 
L 244.998878 219.761408 
L 244.998878 218.97549 
L 245.24427 218.97549 
L 245.24427 218.189571 
L 245.598415 218.189571 
L 245.689299 215.831815 
L 245.810558 215.831815 
L 245.825572 214.259978 
L 245.943545 214.259978 
L 245.943545 213.474059 
L 246.375519 213.474059 
L 246.415921 211.902222 
L 246.488899 211.902222 
L 246.493469 210.330385 
L 246.774786 210.330385 
L 246.785083 208.758548 
L 246.94021 208.758548 
L 246.94021 207.972629 
L 247.120243 207.972629 
L 247.120243 207.186711 
L 247.243878 207.186711 
L 247.307594 204.828955 
L 247.555173 204.828955 
L 247.555173 204.043036 
L 247.758931 204.043036 
L 247.758931 203.257118 
L 248.358562 203.257118 
L 248.358562 202.471199 
L 249.409952 202.471199 
L 249.5025 200.899362 
L 249.808901 200.899362 
L 249.808901 200.113443 
L 249.974568 200.113443 
L 249.974568 199.327525 
L 250.470661 199.327525 
L 250.470661 198.541606 
L 250.712747 198.541606 
L 250.712747 197.755688 
L 250.823865 197.755688 
L 250.823865 196.969769 
L 251.068816 196.969769 
L 251.068816 196.18385 
L 251.230971 196.18385 
L 251.290632 194.612013 
L 251.674901 194.612013 
L 251.674901 193.826095 
L 251.904034 193.826095 
L 251.904034 193.040176 
L 252.353431 193.040176 
L 252.353431 192.254257 
L 253.019153 192.254257 
L 253.078379 189.896502 
L 253.190731 189.896502 
L 253.300464 187.538746 
L 253.494574 187.538746 
L 253.525001 185.966909 
L 253.650388 185.966909 
L 253.744415 183.609153 
L 253.906903 183.609153 
L 253.960797 182.037316 
L 254.131198 182.037316 
L 254.216483 178.893641 
L 254.248118 178.893641 
L 254.327421 177.321804 
L 254.425209 177.321804 
L 254.453902 175.749967 
L 254.59662 175.749967 
L 254.59662 174.964048 
L 254.919694 174.964048 
L 254.949053 173.392211 
L 260.895841 173.392211 
L 260.895841 161.603432 
L 261.345909 161.603432 
L 261.345909 160.817514 
L 263.170898 160.817514 
L 263.170898 160.031595 
L 263.802267 160.031595 
L 263.863122 158.459758 
L 264.011254 158.459758 
L 264.011254 157.673839 
L 264.522286 157.673839 
L 264.522286 156.887921 
L 265.401363 156.887921 
L 265.408433 155.316084 
L 265.514453 155.316084 
L 265.514453 154.530165 
L 266.311711 154.530165 
L 266.311711 153.744246 
L 266.890111 153.744246 
L 266.890111 152.958328 
L 267.135329 152.958328 
L 267.180911 151.386491 
L 267.36365 151.386491 
L 267.36365 150.600572 
L 267.883703 150.600572 
L 267.883703 149.814653 
L 268.408099 149.814653 
L 268.511949 146.670979 
L 268.642283 146.670979 
L 268.673644 145.099142 
L 268.871876 145.099142 
L 268.871876 144.313223 
L 269.149064 144.313223 
L 269.149064 143.527305 
L 269.280804 143.527305 
L 269.376242 140.38363 
L 269.418813 140.38363 
L 269.52441 138.811793 
L 269.552593 138.811793 
L 269.656222 137.239956 
L 269.821687 137.239956 
L 269.913803 135.668119 
L 269.938782 135.668119 
L 270.038081 134.096282 
L 270.169189 134.096282 
L 270.221983 131.738526 
L 270.514571 131.738526 
L 270.562381 129.38077 
L 270.814282 129.38077 
L 270.814282 128.594851 
L 270.948614 128.594851 
L 270.948614 127.808933 
L 271.061445 127.808933 
L 271.061445 127.023014 
L 271.248416 127.023014 
L 271.248416 126.237096 
L 271.714767 126.237096 
L 271.786225 123.87934 
L 271.882357 123.87934 
L 271.990908 122.307503 
L 272.063861 122.307503 
L 272.169748 119.949747 
L 272.220425 119.949747 
L 272.220425 119.163828 
L 272.593258 119.163828 
L 272.593258 118.37791 
L 272.800051 118.37791 
L 272.800051 117.591991 
L 272.946876 117.591991 
L 273.03066 115.234235 
L 273.107611 115.234235 
L 273.202434 111.304642 
L 273.340574 111.304642 
L 273.340574 110.518724 
L 273.55404 110.518724 
L 273.57328 108.946887 
L 273.81419 108.946887 
L 273.876994 107.37505 
L 273.957101 107.37505 
L 274.024455 105.803212 
L 274.175568 105.803212 
L 274.274353 104.231375 
L 274.547968 104.231375 
L 274.547968 103.445457 
L 274.817269 103.445457 
L 274.899589 101.087701 
L 275.056444 101.087701 
L 275.056444 100.301782 
L 275.178382 100.301782 
L 275.251005 97.944026 
L 275.64268 97.944026 
L 275.64268 97.158108 
L 275.78954 97.158108 
L 275.78954 96.372189 
L 275.924721 96.372189 
L 275.924721 95.586271 
L 276.136027 95.586271 
L 276.151652 94.014433 
L 276.61133 94.014433 
L 276.61133 93.228515 
L 277.108601 93.228515 
L 277.216328 91.656678 
L 277.379011 91.656678 
L 277.379011 90.870759 
L 278.019588 90.870759 
L 278.019588 90.08484 
L 278.206959 90.08484 
L 278.296801 88.513003 
L 278.862365 88.513003 
L 278.905153 86.941166 
L 279.525874 86.941166 
L 279.618266 85.369329 
L 280.334826 85.369329 
L 280.334826 84.58341 
L 280.877314 84.58341 
L 280.877314 83.797492 
L 281.647667 83.797492 
L 281.647667 83.011573 
L 282.733399 83.011573 
L 282.733399 82.225655 
L 283.065076 82.225655 
L 283.065076 81.439736 
L 283.669057 81.439736 
L 283.669057 80.653817 
L 283.892404 80.653817 
L 283.947671 79.08198 
L 284.060837 79.08198 
L 284.060837 78.296062 
L 284.394013 78.296062 
L 284.394013 77.510143 
L 284.563691 77.510143 
L 284.563691 76.724224 
L 284.943982 76.724224 
L 284.943982 75.938306 
L 285.160972 75.938306 
L 285.160972 75.152387 
L 285.452014 75.152387 
L 285.535834 73.58055 
L 285.858324 73.58055 
L 285.941765 72.008713 
L 286.235682 72.008713 
L 286.326214 70.436876 
L 286.712269 70.436876 
L 286.712269 69.650957 
L 287.059732 69.650957 
L 287.059732 68.865039 
L 287.952157 68.865039 
L 287.952157 68.07912 
L 289.29351 68.07912 
L 289.29351 67.293201 
L 290.161243 67.293201 
L 290.265145 65.721364 
L 291.309116 65.721364 
L 291.309116 64.935446 
L 295.835726 64.935446 
L 295.835726 64.149527 
L 299.076618 64.149527 
L 299.076618 63.363608 
L 299.371641 63.363608 
L 299.371641 62.57769 
L 299.540855 62.57769 
L 299.540855 61.791771 
L 299.720163 61.791771 
L 299.720163 61.005853 
L 299.831501 61.005853 
L 299.831501 60.219934 
L 302.060002 60.219934 
L 302.060002 59.434015 
L 304.281674 59.434015 
L 304.281674 58.648097 
L 305.221931 58.648097 
L 305.221931 57.862178 
L 306.434156 57.862178 
L 306.434156 57.07626 
L 306.714455 57.07626 
L 306.714455 56.290341 
L 307.367552 56.290341 
L 307.367552 55.504422 
L 308.058335 55.504422 
L 308.058335 54.718504 
L 308.390149 54.718504 
L 308.390149 53.932585 
L 309.265516 53.932585 
L 309.265516 53.146667 
L 309.417118 53.146667 
L 309.440773 51.574829 
L 310.02568 51.574829 
L 310.02568 50.788911 
L 310.437015 50.788911 
L 310.437015 50.002992 
L 312.770686 50.002992 
L 312.770686 49.217074 
L 314.180061 49.217074 
L 314.180061 48.431155 
L 315.029155 48.431155 
L 315.029155 47.645237 
L 317.530442 47.645237 
L 317.530442 46.859318 
L 317.945386 46.859318 
L 317.945386 46.073399 
L 321.904675 46.073399 
L 321.904675 45.287481 
L 322.704432 45.287481 
L 322.704432 44.501562 
L 337.90187 44.501562 
L 337.90187 43.715644 
L 339.789121 43.715644 
L 339.831253 42.143806 
L 340.28201 42.143806 
L 340.28201 41.357888 
L 340.454048 41.357888 
L 340.454048 40.571969 
L 340.629394 40.571969 
L 340.629394 39.786051 
L 342.234256 39.786051 
L 342.234256 39.000132 
L 343.610337 39.000132 
L 343.610337 38.214213 
L 344.024053 38.214213 
L 344.024053 37.428295 
L 345.535483 37.428295 
L 345.535483 36.642376 
L 345.732422 36.642376 
L 345.732422 35.856458 
L 346.20525 35.856458 
L 346.251404 34.28462 
L 346.470828 34.28462 
L 346.470828 33.498702 
L 346.721112 33.498702 
L 346.721112 32.712783 
L 347.183664 32.712783 
L 347.23827 31.140946 
L 349.218248 31.140946 
L 349.218248 30.355028 
L 349.487938 30.355028 
L 349.487938 29.569109 
L 350.09123 29.569109 
L 350.09123 28.78319 
L 351.047605 28.78319 
L 351.047605 27.997272 
L 351.291157 27.997272 
L 351.291157 27.211353 
L 351.968098 27.211353 
L 351.968098 26.425435 
L 353.148566 26.425435 
L 353.148566 25.639516 
L 354.232975 25.639516 
L 354.232975 24.853597 
L 354.526625 24.853597 
L 354.526625 24.067679 
L 356.703156 24.067679 
L 356.703156 23.28176 
L 356.953687 23.28176 
L 356.984605 21.709923 
L 357.44326 21.709923 
L 357.44326 20.924004 
L 357.838578 20.924004 
L 357.838578 20.138086 
L 396.067492 20.138086 
L 396.067492 19.352167 
L 396.240836 19.352167 
L 396.240836 18.566249 
L 398.422351 18.566249 
L 398.422351 17.78033 
L 398.903696 17.78033 
L 398.915813 16.208493 
L 399.157045 16.208493 
L 399.157045 15.422574 
L 399.338651 15.422574 
L 399.338651 14.636656 
L 399.558584 14.636656 
L 399.558584 13.850737 
L 400.664966 13.850737 
L 400.664966 13.064818 
L 402.034439 13.064818 
L 402.034439 12.2789 
L 402.708392 12.2789 
L 402.708392 11.492981 
L 403.684765 11.492981 
L 403.684765 10.707063 
L 404.503892 10.707063 
L 404.503892 9.921144 
L 404.773231 9.921144 
L 404.773231 9.135226 
L 405.759903 9.135226 
L 405.759903 8.349307 
L 405.759903 8.349307 
L 450.672 8.349307 
L 450.672 8.349307 
" style="fill:none;stroke:#bf00bf;stroke-linecap:square;stroke-width:1.5;"/>
   </g>
   <g id="patch_3">
    <path d="M 5.52 291.28 
L 5.52 5.52 
" style="fill:none;stroke:#000000;stroke-linecap:square;stroke-linejoin:miter;stroke-width:0.8;"/>
   </g>
   <g id="patch_4">
    <path d="M 450.672 291.28 
L 450.672 5.52 
" style="fill:none;stroke:#000000;stroke-linecap:square;stroke-linejoin:miter;stroke-width:0.8;"/>
   </g>
   <g id="patch_5">
    <path d="M 5.52 291.28 
L 450.672 291.28 
" style="fill:none;stroke:#000000;stroke-linecap:square;stroke-linejoin:miter;stroke-width:0.8;"/>
   </g>
   <g id="patch_6">
    <path d="M 5.52 5.52 
L 450.672 5.52 
" style="fill:none;stroke:#000000;stroke-linecap:square;stroke-linejoin:miter;stroke-width:0.8;"/>
   </g>
   <g id="text_6">
    <!-- {f1-f24}, 20-D -->
    <defs>
     <path d="M 51.125 -9.28125 
L 51.125 -16.3125 
L 48.09375 -16.3125 
Q 35.9375 -16.3125 31.8125 -12.6875 
Q 27.6875 -9.078125 27.6875 1.703125 
L 27.6875 13.375 
Q 27.6875 20.75 25.046875 23.578125 
Q 22.40625 26.421875 15.484375 26.421875 
L 12.5 26.421875 
L 12.5 33.40625 
L 15.484375 33.40625 
Q 22.46875 33.40625 25.078125 36.203125 
Q 27.6875 39.015625 27.6875 46.296875 
L 27.6875 58.015625 
Q 27.6875 68.796875 31.8125 72.390625 
Q 35.9375 75.984375 48.09375 75.984375 
L 51.125 75.984375 
L 51.125 69 
L 47.796875 69 
Q 40.921875 69 38.8125 66.84375 
Q 36.71875 64.703125 36.71875 57.8125 
L 36.71875 45.703125 
Q 36.71875 38.03125 34.5 34.5625 
Q 32.28125 31.109375 26.90625 29.890625 
Q 32.328125 28.5625 34.515625 25.09375 
Q 36.71875 21.625 36.71875 14.015625 
L 36.71875 1.90625 
Q 36.71875 -4.984375 38.8125 -7.125 
Q 40.921875 -9.28125 47.796875 -9.28125 
z
" id="DejaVuSans-7b"/>
     <path d="M 19.1875 8.296875 
L 53.609375 8.296875 
L 53.609375 0 
L 7.328125 0 
L 7.328125 8.296875 
Q 12.9375 14.109375 22.625 23.890625 
Q 32.328125 33.6875 34.8125 36.53125 
Q 39.546875 41.84375 41.421875 45.53125 
Q 43.3125 49.21875 43.3125 52.78125 
Q 43.3125 58.59375 39.234375 62.25 
Q 35.15625 65.921875 28.609375 65.921875 
Q 23.96875 65.921875 18.8125 64.3125 
Q 13.671875 62.703125 7.8125 59.421875 
L 7.8125 69.390625 
Q 13.765625 71.78125 18.9375 73 
Q 24.125 74.21875 28.421875 74.21875 
Q 39.75 74.21875 46.484375 68.546875 
Q 53.21875 62.890625 53.21875 53.421875 
Q 53.21875 48.921875 51.53125 44.890625 
Q 49.859375 40.875 45.40625 35.40625 
Q 44.1875 33.984375 37.640625 27.21875 
Q 31.109375 20.453125 19.1875 8.296875 
z
" id="DejaVuSans-32"/>
     <path d="M 12.5 -9.28125 
L 15.921875 -9.28125 
Q 22.75 -9.28125 24.828125 -7.171875 
Q 26.90625 -5.078125 26.90625 1.90625 
L 26.90625 14.015625 
Q 26.90625 21.625 29.09375 25.09375 
Q 31.296875 28.5625 36.71875 29.890625 
Q 31.296875 31.109375 29.09375 34.5625 
Q 26.90625 38.03125 26.90625 45.703125 
L 26.90625 57.8125 
Q 26.90625 64.75 24.828125 66.875 
Q 22.75 69 15.921875 69 
L 12.5 69 
L 12.5 75.984375 
L 15.578125 75.984375 
Q 27.734375 75.984375 31.8125 72.390625 
Q 35.890625 68.796875 35.890625 58.015625 
L 35.890625 46.296875 
Q 35.890625 39.015625 38.515625 36.203125 
Q 41.15625 33.40625 48.09375 33.40625 
L 51.125 33.40625 
L 51.125 26.421875 
L 48.09375 26.421875 
Q 41.15625 26.421875 38.515625 23.578125 
Q 35.890625 20.75 35.890625 13.375 
L 35.890625 1.703125 
Q 35.890625 -9.078125 31.8125 -12.6875 
Q 27.734375 -16.3125 15.578125 -16.3125 
L 12.5 -16.3125 
z
" id="DejaVuSans-7d"/>
     <path d="M 11.71875 12.40625 
L 22.015625 12.40625 
L 22.015625 4 
L 14.015625 -11.625 
L 7.71875 -11.625 
L 11.71875 4 
z
" id="DejaVuSans-2c"/>
    </defs>
    <g transform="translate(296.06896 285.5648)scale(0.2 -0.2)">
     <use xlink:href="#DejaVuSans-7b"/>
     <use x="63.623047" xlink:href="#DejaVuSans-66"/>
     <use x="98.828125" xlink:href="#DejaVuSans-31"/>
     <use x="162.451172" xlink:href="#DejaVuSans-2d"/>
     <use x="198.535156" xlink:href="#DejaVuSans-66"/>
     <use x="233.740234" xlink:href="#DejaVuSans-32"/>
     <use x="297.363281" xlink:href="#DejaVuSans-34"/>
     <use x="360.986328" xlink:href="#DejaVuSans-7d"/>
     <use x="424.609375" xlink:href="#DejaVuSans-2c"/>
     <use x="456.396484" xlink:href="#DejaVuSans-20"/>
     <use x="488.183594" xlink:href="#DejaVuSans-32"/>
     <use x="551.806641" xlink:href="#DejaVuSans-30"/>
     <use x="615.429688" xlink:href="#DejaVuSans-2d"/>
     <use x="651.513672" xlink:href="#DejaVuSans-44"/>
    </g>
   </g>
   <g id="text_7">
    <!-- v0.0.0 -->
    <defs>
     <path d="M 2.984375 54.6875 
L 12.5 54.6875 
L 29.59375 8.796875 
L 46.6875 54.6875 
L 56.203125 54.6875 
L 35.6875 0 
L 23.484375 0 
z
" id="DejaVuSans-76"/>
     <path d="M 10.6875 12.40625 
L 21 12.40625 
L 21 0 
L 10.6875 0 
z
" id="DejaVuSans-2e"/>
    </defs>
    <g style="fill:#808080;" transform="translate(212.41475 286.342713)scale(0.1 -0.1)">
     <use xlink:href="#DejaVuSans-76"/>
     <use x="59.179688" xlink:href="#DejaVuSans-30"/>
     <use x="122.802734" xlink:href="#DejaVuSans-2e"/>
     <use x="154.589844" xlink:href="#DejaVuSans-30"/>
     <use x="218.212891" xlink:href="#DejaVuSans-2e"/>
     <use x="250" xlink:href="#DejaVuSans-30"/>
    </g>
   </g>
  </g>
 </g>
 <defs>
  <clipPath id="p80338d4a9e">
   <rect height="285.76" width="445.152" x="5.52" y="5.52"/>
  </clipPath>
 </defs>
</svg>
