<?xml version="1.0" encoding="utf-8" standalone="no"?>
<!DOCTYPE svg PUBLIC "-//W3C//DTD SVG 1.1//EN"
  "http://www.w3.org/Graphics/SVG/1.1/DTD/svg11.dtd">
<!-- Created with matplotlib (http://matplotlib.org/) -->
<svg height="345.6pt" version="1.1" viewBox="0 0 460.8 345.6" width="460.8pt" xmlns="http://www.w3.org/2000/svg" xmlns:xlink="http://www.w3.org/1999/xlink">
 <defs>
  <style type="text/css">
*{stroke-linecap:butt;stroke-linejoin:round;}
  </style>
 </defs>
 <g id="figure_1">
  <g id="patch_1">
   <path d="M 0 345.6 
L 460.8 345.6 
L 460.8 0 
L 0 0 
z
" style="fill:#ffffff;"/>
  </g>
  <g id="axes_1">
   <g id="patch_2">
    <path d="M 59.72 291.28 
L 450.672 291.28 
L 450.672 6.845228 
L 59.72 6.845228 
z
" style="fill:#ffffff;"/>
   </g>
   <g id="line2d_1">
    <path clip-path="url(#p16a1b67a48)" d="M 311.307491 291.28 
L 311.307491 286.586357 
L 312.143982 286.586357 
L 312.143982 281.892714 
L 314.213725 281.892714 
L 314.213725 277.199071 
L 315.853617 277.199071 
L 315.853617 272.505428 
L 319.313299 272.505428 
L 319.313299 267.811784 
L 321.118098 267.811784 
L 321.118098 263.118141 
L 322.983934 263.118141 
L 322.983934 258.424498 
L 323.591116 258.424498 
L 323.591116 253.730855 
L 323.95201 253.730855 
L 323.95201 249.037212 
L 324.131511 249.037212 
L 324.131511 244.343569 
L 324.310386 244.343569 
L 324.310386 239.649926 
L 325.429025 239.649926 
L 325.429025 234.956283 
L 325.83509 234.956283 
L 325.83509 230.26264 
L 325.83509 230.26264 
L 325.83509 225.568997 
L 327.203438 225.568997 
L 327.203438 220.875353 
L 328.151094 220.875353 
L 328.151094 216.18171 
L 328.426521 216.18171 
L 328.426521 211.488067 
L 328.481429 211.488067 
L 328.481429 206.794424 
L 330.101975 206.794424 
L 330.101975 202.100781 
L 331.569704 202.100781 
L 331.569704 197.407138 
L 334.482789 197.407138 
L 334.482789 192.713495 
L 346.643365 192.713495 
L 346.643365 188.019852 
L 348.941797 188.019852 
L 348.941797 183.326209 
L 349.162415 183.326209 
L 349.162415 178.632565 
L 357.508695 178.632565 
L 357.508695 173.938922 
L 358.710859 173.938922 
L 358.710859 169.245279 
L 375.592449 169.245279 
L 375.592449 164.551636 
L 390.441056 164.551636 
L 390.441056 159.857993 
L 407.456412 159.857993 
L 407.456412 155.16435 
L 407.456412 155.16435 
L 407.456412 155.16435 
L 450.672 155.16435 
" style="fill:none;stroke:#f5deb3;stroke-linecap:square;stroke-width:1.5;"/>
   </g>
   <g id="line2d_2">
    <path clip-path="url(#p16a1b67a48)" style="fill:none;stroke:#f5deb3;stroke-linecap:square;stroke-width:1.5;"/>
   </g>
   <g id="line2d_3">
    <path clip-path="url(#p16a1b67a48)" d="M 210.423518 291.28 
L 210.423518 286.586357 
L 258.998389 286.586357 
L 258.998389 281.892714 
L 259.210212 281.892714 
L 259.210212 277.199071 
L 260.25642 277.199071 
L 260.25642 272.505428 
L 262.880847 272.505428 
L 262.880847 267.811784 
L 264.622269 267.811784 
L 264.622269 263.118141 
L 266.490367 263.118141 
L 266.490367 258.424498 
L 268.645943 258.424498 
L 268.645943 253.730855 
L 269.862816 253.730855 
L 269.862816 249.037212 
L 270.205264 249.037212 
L 270.205264 244.343569 
L 270.545445 244.343569 
L 270.545445 239.649926 
L 271.884075 239.649926 
L 271.884075 234.956283 
L 272.703343 234.956283 
L 272.703343 230.26264 
L 274.617864 230.26264 
L 274.617864 225.568997 
L 276.312283 225.568997 
L 276.312283 220.875353 
L 276.312283 220.875353 
L 276.312283 216.18171 
L 280.528634 216.18171 
L 280.528634 211.488067 
L 280.807047 211.488067 
L 280.807047 206.794424 
L 282.176916 206.794424 
L 282.176916 202.100781 
L 284.165565 202.100781 
L 284.165565 197.407138 
L 286.205219 197.407138 
L 286.205219 192.713495 
L 291.879067 192.713495 
L 291.879067 188.019852 
L 292.213707 188.019852 
L 292.213707 183.326209 
L 292.435595 183.326209 
L 292.435595 178.632565 
L 292.435595 178.632565 
L 292.435595 173.938922 
L 293.095566 173.938922 
L 293.095566 169.245279 
L 303.274098 169.245279 
L 303.274098 164.551636 
L 311.460597 164.551636 
L 311.460597 159.857993 
L 311.765447 159.857993 
L 311.765447 155.16435 
L 318.785776 155.16435 
L 318.785776 150.470707 
L 319.509731 150.470707 
L 319.509731 145.777064 
L 321.054721 145.777064 
L 321.054721 141.083421 
L 321.747604 141.083421 
L 321.747604 136.389777 
L 322.245712 136.389777 
L 322.245712 131.696134 
L 324.131511 131.696134 
L 324.131511 127.002491 
L 325.83509 127.002491 
L 325.83509 122.308848 
L 326.352502 122.308848 
L 326.352502 117.615205 
L 338.111314 117.615205 
L 338.111314 112.921562 
L 344.47898 112.921562 
L 344.47898 108.227919 
L 345.237032 108.227919 
L 345.237032 103.534276 
L 346.37291 103.534276 
L 346.37291 98.840633 
L 353.183576 98.840633 
L 353.183576 94.14699 
L 393.733616 94.14699 
L 393.733616 89.453346 
L 400.548413 89.453346 
L 400.548413 84.759703 
L 406.731833 84.759703 
L 406.731833 80.06606 
L 438.783387 80.06606 
L 438.783387 75.372417 
L 438.911421 75.372417 
L 438.911421 70.678774 
L 458.522656 70.678774 
L 458.522656 65.985131 
L 461.8 65.985131 
" style="fill:none;stroke:#f5deb3;stroke-linecap:square;stroke-width:1.5;"/>
   </g>
   <g id="line2d_4">
    <path clip-path="url(#p16a1b67a48)" d="M 272.703343 291.28 
L 272.703343 286.586357 
L 326.69457 286.586357 
L 326.69457 281.892714 
L 328.151094 281.892714 
L 328.151094 277.199071 
L 336.867945 277.199071 
L 336.867945 272.505428 
L 337.88332 272.505428 
L 337.88332 267.811784 
L 338.156792 267.811784 
L 338.156792 263.118141 
L 338.699406 263.118141 
L 338.699406 258.424498 
L 338.879011 258.424498 
L 338.879011 253.730855 
L 338.968579 253.730855 
L 338.968579 249.037212 
L 339.013304 249.037212 
L 339.013304 244.343569 
L 339.414089 244.343569 
L 339.414089 239.649926 
L 339.679553 239.649926 
L 339.679553 234.956283 
L 339.855769 234.956283 
L 339.855769 230.26264 
L 341.627967 230.26264 
L 341.627967 225.568997 
L 341.966745 225.568997 
L 341.966745 220.875353 
L 345.552895 220.875353 
L 345.552895 216.18171 
L 347.37036 216.18171 
L 347.37036 211.488067 
L 349.015442 211.488067 
L 349.015442 206.794424 
L 349.7824 206.794424 
L 349.7824 202.100781 
L 349.999445 202.100781 
L 349.999445 197.407138 
L 351.247577 197.407138 
L 351.247577 192.713495 
L 351.388309 192.713495 
L 351.388309 188.019852 
L 351.633665 188.019852 
L 351.633665 183.326209 
L 352.4661 183.326209 
L 352.4661 178.632565 
L 354.09156 178.632565 
L 354.09156 173.938922 
L 354.158184 173.938922 
L 354.158184 169.245279 
L 356.912674 169.245279 
L 356.912674 164.551636 
L 357.91255 164.551636 
L 357.91255 159.857993 
L 359.466937 159.857993 
L 359.466937 155.16435 
L 359.49695 155.16435 
L 359.49695 150.470707 
L 359.855743 150.470707 
L 359.855743 145.777064 
L 363.340077 145.777064 
L 363.340077 141.083421 
L 365.813128 141.083421 
L 365.813128 136.389777 
L 367.303648 136.389777 
L 367.303648 131.696134 
L 368.82725 131.696134 
L 368.82725 127.002491 
L 370.355557 127.002491 
L 370.355557 122.308848 
L 370.404108 122.308848 
L 370.404108 117.615205 
L 374.819001 117.615205 
L 374.819001 112.921562 
L 375.394672 112.921562 
L 375.394672 108.227919 
L 376.870463 108.227919 
L 376.870463 103.534276 
L 380.144148 103.534276 
L 380.144148 98.840633 
L 385.223926 98.840633 
L 385.223926 94.14699 
L 388.37973 94.14699 
L 388.37973 89.453346 
L 391.770706 89.453346 
L 391.770706 84.759703 
L 396.302879 84.759703 
L 396.302879 80.06606 
L 396.332181 80.06606 
L 396.332181 75.372417 
L 397.890188 75.372417 
L 397.890188 70.678774 
L 398.230087 70.678774 
L 398.230087 65.985131 
L 401.058597 65.985131 
L 401.058597 61.291488 
L 402.299279 61.291488 
L 402.299279 56.597845 
L 404.344517 56.597845 
L 404.344517 51.904202 
L 405.226643 51.904202 
L 405.226643 47.210558 
L 406.130198 47.210558 
L 406.130198 42.516915 
L 423.693125 42.516915 
L 423.693125 37.823272 
L 426.593344 37.823272 
L 426.593344 33.129629 
L 437.346954 33.129629 
L 437.346954 28.435986 
L 444.054238 28.435986 
L 444.054238 23.742343 
L 447.758372 23.742343 
L 447.758372 19.0487 
L 461.8 19.0487 
" style="fill:none;stroke:#f5deb3;stroke-linecap:square;stroke-width:1.5;"/>
   </g>
   <g id="line2d_5">
    <path clip-path="url(#p16a1b67a48)" d="M 337.424273 291.28 
L 337.424273 286.586357 
L 358.649889 286.586357 
L 358.649889 281.892714 
L 363.032907 281.892714 
L 363.032907 277.199071 
L 368.601571 277.199071 
L 368.601571 272.505428 
L 371.174748 272.505428 
L 371.174748 267.811784 
L 372.91378 267.811784 
L 372.91378 263.118141 
L 378.925419 263.118141 
L 378.925419 258.424498 
L 379.781556 258.424498 
L 379.781556 253.730855 
L 380.940861 253.730855 
L 380.940861 249.037212 
L 381.900288 249.037212 
L 381.900288 244.343569 
L 383.202729 244.343569 
L 383.202729 239.649926 
L 385.838458 239.649926 
L 385.838458 234.956283 
L 386.834871 234.956283 
L 386.834871 230.26264 
L 387.604429 230.26264 
L 387.604429 225.568997 
L 389.496081 225.568997 
L 389.496081 220.875353 
L 390.996557 220.875353 
L 390.996557 216.18171 
L 392.105761 216.18171 
L 392.105761 211.488067 
L 393.098011 211.488067 
L 393.098011 206.794424 
L 396.566 206.794424 
L 396.566 202.100781 
L 398.173593 202.100781 
L 398.173593 197.407138 
L 398.665821 197.407138 
L 398.665821 192.713495 
L 402.934328 192.713495 
L 402.934328 188.019852 
L 404.457178 188.019852 
L 404.457178 183.326209 
L 408.031138 183.326209 
L 408.031138 178.632565 
L 419.203282 178.632565 
L 419.203282 173.938922 
L 420.427247 173.938922 
L 420.427247 169.245279 
L 420.774261 169.245279 
L 420.774261 164.551636 
L 426.512016 164.551636 
L 426.512016 159.857993 
L 432.722004 159.857993 
L 432.722004 155.16435 
L 433.92667 155.16435 
L 433.92667 150.470707 
L 436.989777 150.470707 
L 436.989777 145.777064 
L 440.708225 145.777064 
L 440.708225 141.083421 
L 444.652338 141.083421 
L 444.652338 136.389777 
L 444.800781 136.389777 
L 444.800781 131.696134 
L 445.187001 131.696134 
L 445.187001 127.002491 
L 448.432083 127.002491 
L 448.432083 122.308848 
L 451.504302 122.308848 
L 451.504302 117.615205 
L 452.357792 117.615205 
L 452.357792 112.921562 
L 454.261029 112.921562 
L 454.261029 108.227919 
L 459.013504 108.227919 
L 459.013504 103.534276 
L 461.8 103.534276 
" style="fill:none;stroke:#f5deb3;stroke-linecap:square;stroke-width:1.5;"/>
   </g>
   <g id="line2d_6"/>
   <g id="line2d_7">
    <path clip-path="url(#p16a1b67a48)" d="M 316.063707 291.28 
L 316.063707 286.586357 
L 319.444337 286.586357 
L 319.444337 281.892714 
L 321.622318 281.892714 
L 321.622318 277.199071 
L 362.611057 277.199071 
L 362.611057 272.505428 
L 364.168595 272.505428 
L 364.168595 267.811784 
L 365.172367 267.811784 
L 365.172367 263.118141 
L 366.393552 263.118141 
L 366.393552 258.424498 
L 367.226268 258.424498 
L 367.226268 253.730855 
L 367.277867 253.730855 
L 367.277867 249.037212 
L 368.172563 249.037212 
L 368.172563 244.343569 
L 368.475764 244.343569 
L 368.475764 239.649926 
L 368.852265 239.649926 
L 368.852265 234.956283 
L 368.852265 234.956283 
L 368.852265 230.26264 
L 369.250847 230.26264 
L 369.250847 225.568997 
L 369.498399 225.568997 
L 369.498399 220.875353 
L 369.670979 220.875353 
L 369.670979 216.18171 
L 369.720181 216.18171 
L 369.720181 211.488067 
L 369.793896 211.488067 
L 369.793896 206.794424 
L 370.038851 206.794424 
L 370.038851 202.100781 
L 370.379838 202.100781 
L 370.379838 197.407138 
L 370.476848 197.407138 
L 370.476848 192.713495 
L 371.007156 192.713495 
L 371.007156 188.019852 
L 371.91044 188.019852 
L 371.91044 183.326209 
L 372.051623 183.326209 
L 372.051623 178.632565 
L 372.239265 178.632565 
L 372.239265 173.938922 
L 373.259222 173.938922 
L 373.259222 169.245279 
L 373.305106 169.245279 
L 373.305106 164.551636 
L 373.350949 164.551636 
L 373.350949 159.857993 
L 374.146648 159.857993 
L 374.146648 155.16435 
L 376.050989 155.16435 
L 376.050989 150.470707 
L 379.191941 150.470707 
L 379.191941 145.777064 
L 379.477428 145.777064 
L 379.477428 141.083421 
L 381.62799 141.083421 
L 381.62799 136.389777 
L 383.860446 136.389777 
L 383.860446 131.696134 
L 384.251072 131.696134 
L 384.251072 127.002491 
L 384.399104 127.002491 
L 384.399104 122.308848 
L 384.657137 122.308848 
L 384.657137 117.615205 
L 386.285676 117.615205 
L 386.285676 112.921562 
L 387.010786 112.921562 
L 387.010786 108.227919 
L 387.360818 108.227919 
L 387.360818 103.534276 
L 388.584516 103.534276 
L 388.584516 98.840633 
L 390.539523 98.840633 
L 390.539523 94.14699 
L 413.02863 94.14699 
L 413.02863 89.453346 
L 417.066872 89.453346 
L 417.066872 84.759703 
L 422.24558 84.759703 
L 422.24558 80.06606 
L 423.958988 80.06606 
L 423.958988 75.372417 
L 431.981016 75.372417 
L 431.981016 70.678774 
L 433.245833 70.678774 
L 433.245833 65.985131 
L 438.577868 65.985131 
L 438.577868 61.291488 
L 445.805686 61.291488 
L 445.805686 56.597845 
L 456.510972 56.597845 
L 456.510972 51.904202 
L 458.365289 51.904202 
L 458.365289 47.210558 
L 461.8 47.210558 
" style="fill:none;stroke:#f5deb3;stroke-linecap:square;stroke-width:1.5;"/>
   </g>
   <g id="line2d_8">
    <path clip-path="url(#p16a1b67a48)" style="fill:none;stroke:#f5deb3;stroke-linecap:square;stroke-width:1.5;"/>
   </g>
   <g id="line2d_9">
    <path clip-path="url(#p16a1b67a48)" d="M 282.446559 291.28 
L 282.446559 286.586357 
L 305.209387 286.586357 
L 305.209387 281.892714 
L 318.25278 281.892714 
L 318.25278 277.199071 
L 338.968579 277.199071 
L 338.968579 272.505428 
L 342.177352 272.505428 
L 342.177352 267.811784 
L 343.011251 267.811784 
L 343.011251 263.118141 
L 344.115961 263.118141 
L 344.115961 258.424498 
L 344.317955 258.424498 
L 344.317955 253.730855 
L 352.431683 253.730855 
L 352.431683 249.037212 
L 353.958052 249.037212 
L 353.958052 244.343569 
L 357.164474 244.343569 
L 357.164474 239.649926 
L 357.352517 239.649926 
L 357.352517 234.956283 
L 357.6644 234.956283 
L 357.6644 230.26264 
L 360.271192 230.26264 
L 360.271192 225.568997 
L 360.300739 225.568997 
L 360.300739 220.875353 
L 361.00481 220.875353 
L 361.00481 216.18171 
L 361.295348 216.18171 
L 361.295348 211.488067 
L 361.497751 211.488067 
L 361.497751 206.794424 
L 361.584252 206.794424 
L 361.584252 202.100781 
L 361.814211 202.100781 
L 361.814211 197.407138 
L 362.10022 197.407138 
L 362.10022 192.713495 
L 362.356273 192.713495 
L 362.356273 188.019852 
L 362.413001 188.019852 
L 362.413001 183.326209 
L 363.866355 183.326209 
L 363.866355 178.632565 
L 364.168595 178.632565 
L 364.168595 173.938922 
L 364.360009 173.938922 
L 364.360009 169.245279 
L 365.22607 169.245279 
L 365.22607 164.551636 
L 365.706888 164.551636 
L 365.706888 159.857993 
L 366.077771 159.857993 
L 366.077771 155.16435 
L 367.148772 155.16435 
L 367.148772 150.470707 
L 367.200449 150.470707 
L 367.200449 145.777064 
L 367.380911 145.777064 
L 367.380911 141.083421 
L 367.432355 141.083421 
L 367.432355 136.389777 
L 368.223221 136.389777 
L 368.223221 131.696134 
L 368.450565 131.696134 
L 368.450565 127.002491 
L 369.027025 127.002491 
L 369.027025 122.308848 
L 370.282644 122.308848 
L 370.282644 117.615205 
L 370.911143 117.615205 
L 370.911143 112.921562 
L 370.959172 112.921562 
L 370.959172 108.227919 
L 371.603206 108.227919 
L 371.603206 103.534276 
L 371.957544 103.534276 
L 371.957544 98.840633 
L 372.16898 98.840633 
L 372.16898 94.14699 
L 372.705394 94.14699 
L 372.705394 89.453346 
L 373.167331 89.453346 
L 373.167331 84.759703 
L 374.326804 84.759703 
L 374.326804 80.06606 
L 374.996818 80.06606 
L 374.996818 75.372417 
L 375.19613 75.372417 
L 375.19613 70.678774 
L 375.789467 70.678774 
L 375.789467 65.985131 
L 376.763382 65.985131 
L 376.763382 61.291488 
L 378.512664 61.291488 
L 378.512664 56.597845 
L 379.110082 56.597845 
L 379.110082 51.904202 
L 382.956272 51.904202 
L 382.956272 47.210558 
L 383.089126 47.210558 
L 383.089126 42.516915 
L 383.127022 42.516915 
L 383.127022 37.823272 
L 386.746688 37.823272 
L 386.746688 33.129629 
L 390.441056 33.129629 
L 390.441056 28.435986 
L 394.61954 28.435986 
L 394.61954 23.742343 
L 395.816961 23.742343 
L 395.816961 19.0487 
L 415.346022 19.0487 
L 415.346022 14.355057 
L 419.939305 14.355057 
L 419.939305 9.661414 
L 419.939305 9.661414 
L 419.939305 9.661414 
L 450.672 9.661414 
" style="fill:none;stroke:#f5deb3;stroke-linecap:square;stroke-width:1.5;"/>
   </g>
   <g id="line2d_10">
    <path clip-path="url(#p16a1b67a48)" d="M 446.988368 291.28 
L 446.988368 286.586357 
L 461.8 286.586357 
" style="fill:none;stroke:#f5deb3;stroke-linecap:square;stroke-width:1.5;"/>
   </g>
   <g id="line2d_11">
    <path clip-path="url(#p16a1b67a48)" d="M 284.165565 291.28 
L 284.165565 286.586357 
L 329.835409 286.586357 
L 329.835409 281.892714 
L 332.49157 281.892714 
L 332.49157 277.199071 
L 333.893486 277.199071 
L 333.893486 272.505428 
L 339.280842 272.505428 
L 339.280842 267.811784 
L 340.986672 267.811784 
L 340.986672 263.118141 
L 344.719576 263.118141 
L 344.719576 258.424498 
L 344.919215 258.424498 
L 344.919215 253.730855 
L 347.408339 253.730855 
L 347.408339 249.037212 
L 347.974685 249.037212 
L 347.974685 244.343569 
L 349.125711 244.343569 
L 349.125711 239.649926 
L 349.7824 239.649926 
L 349.7824 234.956283 
L 360.595275 234.956283 
L 360.595275 230.26264 
L 367.637618 230.26264 
L 367.637618 225.568997 
L 377.845279 225.568997 
L 377.845279 220.875353 
L 378.01294 220.875353 
L 378.01294 216.18171 
L 399.992208 216.18171 
L 399.992208 211.488067 
L 461.8 211.488067 
" style="fill:none;stroke:#f5deb3;stroke-linecap:square;stroke-width:1.5;"/>
   </g>
   <g id="line2d_12">
    <path clip-path="url(#p16a1b67a48)" d="M 267.0378 291.28 
L 267.0378 286.586357 
L 273.188705 286.586357 
L 273.188705 281.892714 
L 275.085549 281.892714 
L 275.085549 277.199071 
L 276.008335 277.199071 
L 276.008335 272.505428 
L 276.008335 272.505428 
L 276.008335 267.811784 
L 279.542131 267.811784 
L 279.542131 263.118141 
L 281.221857 263.118141 
L 281.221857 258.424498 
L 281.221857 258.424498 
L 281.221857 253.730855 
L 282.041561 253.730855 
L 282.041561 249.037212 
L 284.424995 249.037212 
L 284.424995 244.343569 
L 285.195515 244.343569 
L 285.195515 239.649926 
L 286.702724 239.649926 
L 286.702724 234.956283 
L 286.702724 234.956283 
L 286.702724 230.26264 
L 293.639137 230.26264 
L 293.639137 225.568997 
L 294.28392 225.568997 
L 294.28392 220.875353 
L 294.28392 220.875353 
L 294.28392 216.18171 
L 294.92071 216.18171 
L 294.92071 211.488067 
L 297.391745 211.488067 
L 297.391745 206.794424 
L 297.991367 206.794424 
L 297.991367 202.100781 
L 299.170012 202.100781 
L 299.170012 197.407138 
L 300.888772 197.407138 
L 300.888772 192.713495 
L 305.724779 192.713495 
L 305.724779 188.019852 
L 307.240638 188.019852 
L 307.240638 183.326209 
L 315.923743 183.326209 
L 315.923743 178.632565 
L 319.181925 178.632565 
L 319.181925 173.938922 
L 322.616149 173.938922 
L 322.616149 169.245279 
L 322.616149 169.245279 
L 322.616149 164.551636 
L 322.983934 164.551636 
L 322.983934 159.857993 
L 328.206297 159.857993 
L 328.206297 155.16435 
L 366.524557 155.16435 
L 366.524557 150.470707 
L 380.103986 150.470707 
L 380.103986 145.777064 
L 428.679521 145.777064 
L 428.679521 141.083421 
L 461.687829 141.083421 
L 461.687829 136.389777 
L 461.8 136.389777 
" style="fill:none;stroke:#f5deb3;stroke-linecap:square;stroke-width:1.5;"/>
   </g>
   <g id="line2d_13">
    <path clip-path="url(#p16a1b67a48)" d="M 392.375405 291.28 
L 392.375405 286.586357 
L 396.609723 286.586357 
L 396.609723 281.892714 
L 406.576085 281.892714 
L 406.576085 277.199071 
L 406.576085 277.199071 
L 406.576085 272.505428 
L 414.303727 272.505428 
L 414.303727 267.811784 
L 419.362559 267.811784 
L 419.362559 263.118141 
L 419.362559 263.118141 
L 419.362559 258.424498 
L 436.6301 258.424498 
L 436.6301 253.730855 
L 436.6301 253.730855 
L 436.6301 249.037212 
L 439.312653 249.037212 
L 439.312653 244.343569 
L 439.312653 244.343569 
L 439.312653 239.649926 
L 443.396386 239.649926 
L 443.396386 234.956283 
L 445.305691 234.956283 
L 445.305691 230.26264 
L 445.721757 230.26264 
L 445.721757 225.568997 
L 450.160932 225.568997 
L 450.160932 220.875353 
L 450.160932 220.875353 
L 450.160932 220.875353 
L 450.672 220.875353 
" style="fill:none;stroke:#f5deb3;stroke-linecap:square;stroke-width:1.5;"/>
   </g>
   <g id="line2d_14">
    <path clip-path="url(#p16a1b67a48)" d="M 306.991081 291.28 
L 306.991081 286.586357 
L 311.992903 286.586357 
L 311.992903 281.892714 
L 326.466778 281.892714 
L 326.466778 277.199071 
L 330.630991 277.199071 
L 330.630991 272.505428 
L 334.139851 272.505428 
L 334.139851 267.811784 
L 335.927131 267.811784 
L 335.927131 263.118141 
L 338.923815 263.118141 
L 338.923815 258.424498 
L 342.679314 258.424498 
L 342.679314 253.730855 
L 344.438771 253.730855 
L 344.438771 249.037212 
L 348.794191 249.037212 
L 348.794191 244.343569 
L 349.015442 244.343569 
L 349.015442 239.649926 
L 349.600827 239.649926 
L 349.600827 234.956283 
L 350.823054 234.956283 
L 350.823054 230.26264 
L 353.386742 230.26264 
L 353.386742 225.568997 
L 355.925122 225.568997 
L 355.925122 220.875353 
L 361.842884 220.875353 
L 361.842884 216.18171 
L 363.645421 216.18171 
L 363.645421 211.488067 
L 365.037863 211.488067 
L 365.037863 206.794424 
L 369.842981 206.794424 
L 369.842981 202.100781 
L 374.371745 202.100781 
L 374.371745 197.407138 
L 380.144148 197.407138 
L 380.144148 192.713495 
L 380.424405 192.713495 
L 380.424405 188.019852 
L 380.901317 188.019852 
L 380.901317 183.326209 
L 386.107256 183.326209 
L 386.107256 178.632565 
L 386.427967 178.632565 
L 386.427967 173.938922 
L 387.221091 173.938922 
L 387.221091 169.245279 
L 394.10206 169.245279 
L 394.10206 164.551636 
L 399.869304 164.551636 
L 399.869304 159.857993 
L 404.231608 159.857993 
L 404.231608 155.16435 
L 408.87561 155.16435 
L 408.87561 150.470707 
L 411.427143 150.470707 
L 411.427143 145.777064 
L 415.244766 145.777064 
L 415.244766 141.083421 
L 418.12223 141.083421 
L 418.12223 136.389777 
L 426.177216 136.389777 
L 426.177216 131.696134 
L 429.199678 131.696134 
L 429.199678 127.002491 
L 435.658463 127.002491 
L 435.658463 122.308848 
L 442.246949 122.308848 
L 442.246949 117.615205 
L 447.488559 117.615205 
L 447.488559 112.921562 
L 461.8 112.921562 
" style="fill:none;stroke:#f5deb3;stroke-linecap:square;stroke-width:1.5;"/>
   </g>
   <g id="line2d_15">
    <path clip-path="url(#p16a1b67a48)" style="fill:none;stroke:#f5deb3;stroke-linecap:square;stroke-width:1.5;"/>
   </g>
   <g id="line2d_16">
    <path clip-path="url(#p16a1b67a48)" style="fill:none;stroke:#f5deb3;stroke-linecap:square;stroke-width:1.5;"/>
   </g>
   <g id="line2d_17">
    <path clip-path="url(#p16a1b67a48)" d="M 397.562328 291.28 
L 397.562328 286.586357 
L 420.077873 286.586357 
L 420.077873 281.892714 
L 422.130476 281.892714 
L 422.130476 277.199071 
L 423.555366 277.199071 
L 423.555366 272.505428 
L 426.054181 272.505428 
L 426.054181 267.811784 
L 426.30813 267.811784 
L 426.30813 263.118141 
L 426.512016 263.118141 
L 426.512016 258.424498 
L 427.647023 258.424498 
L 427.647023 253.730855 
L 428.936376 253.730855 
L 428.936376 249.037212 
L 429.67637 249.037212 
L 429.67637 244.343569 
L 429.752843 244.343569 
L 429.752843 239.649926 
L 430.714276 239.649926 
L 430.714276 234.956283 
L 436.35532 234.956283 
L 436.35532 230.26264 
L 437.089242 230.26264 
L 437.089242 225.568997 
L 447.190117 225.568997 
L 447.190117 220.875353 
L 451.001488 220.875353 
L 451.001488 216.18171 
L 461.8 216.18171 
" style="fill:none;stroke:#f5deb3;stroke-linecap:square;stroke-width:1.5;"/>
   </g>
   <g id="line2d_18">
    <path clip-path="url(#p16a1b67a48)" d="M 272.703343 291.28 
L 272.703343 286.586357 
L 272.865641 286.586357 
L 272.865641 281.892714 
L 274.617864 281.892714 
L 274.617864 277.199071 
L 277.213482 277.199071 
L 277.213482 272.505428 
L 279.96724 272.505428 
L 279.96724 267.811784 
L 280.528634 267.811784 
L 280.528634 263.118141 
L 281.221857 263.118141 
L 281.221857 258.424498 
L 282.446559 258.424498 
L 282.446559 253.730855 
L 283.773947 253.730855 
L 283.773947 249.037212 
L 284.939957 249.037212 
L 284.939957 244.343569 
L 286.454574 244.343569 
L 286.454574 239.649926 
L 286.702724 239.649926 
L 286.702724 234.956283 
L 289.238392 234.956283 
L 289.238392 230.26264 
L 289.940458 230.26264 
L 289.940458 225.568997 
L 290.172364 225.568997 
L 290.172364 220.875353 
L 292.435595 220.875353 
L 292.435595 216.18171 
L 292.435595 216.18171 
L 292.435595 211.488067 
L 293.747165 211.488067 
L 293.747165 206.794424 
L 295.026078 206.794424 
L 295.026078 202.100781 
L 297.592398 202.100781 
L 297.592398 197.407138 
L 299.749346 197.407138 
L 299.749346 192.713495 
L 305.295645 192.713495 
L 305.295645 188.019852 
L 313.263134 188.019852 
L 313.263134 183.326209 
L 320.159133 183.326209 
L 320.159133 178.632565 
L 321.433815 178.632565 
L 321.433815 173.938922 
L 328.206297 173.938922 
L 328.206297 169.245279 
L 332.032705 169.245279 
L 332.032705 164.551636 
L 332.186116 164.551636 
L 332.186116 159.857993 
L 342.512538 159.857993 
L 342.512538 155.16435 
L 346.950723 155.16435 
L 346.950723 150.470707 
L 358.128703 150.470707 
L 358.128703 145.777064 
L 382.459784 145.777064 
L 382.459784 141.083421 
L 390.473899 141.083421 
L 390.473899 136.389777 
L 399.964922 136.389777 
L 399.964922 131.696134 
L 401.537299 131.696134 
L 401.537299 127.002491 
L 403.625203 127.002491 
L 403.625203 122.308848 
L 404.444672 122.308848 
L 404.444672 117.615205 
L 406.767708 117.615205 
L 406.767708 112.921562 
L 407.432817 112.921562 
L 407.432817 108.227919 
L 409.480136 108.227919 
L 409.480136 103.534276 
L 410.64609 103.534276 
L 410.64609 98.840633 
L 414.283077 98.840633 
L 414.283077 94.14699 
L 416.565534 94.14699 
L 416.565534 89.453346 
L 421.082773 89.453346 
L 421.082773 84.759703 
L 442.503949 84.759703 
L 442.503949 80.06606 
L 442.503949 80.06606 
L 442.503949 80.06606 
L 450.672 80.06606 
" style="fill:none;stroke:#f5deb3;stroke-linecap:square;stroke-width:1.5;"/>
   </g>
   <g id="line2d_19">
    <path clip-path="url(#p16a1b67a48)" d="M 457.093182 291.28 
L 457.093182 286.586357 
L 457.907948 286.586357 
L 457.907948 281.892714 
L 461.8 281.892714 
L 461.8 281.892714 
" style="fill:none;stroke:#f5deb3;stroke-linecap:square;stroke-width:1.5;"/>
   </g>
   <g id="line2d_20">
    <path clip-path="url(#p16a1b67a48)" d="M 293.854966 291.28 
L 293.854966 286.586357 
L 298.48576 286.586357 
L 298.48576 281.892714 
L 300.417079 281.892714 
L 300.417079 277.199071 
L 304.338738 277.199071 
L 304.338738 272.505428 
L 305.810177 272.505428 
L 305.810177 267.811784 
L 306.656441 267.811784 
L 306.656441 263.118141 
L 307.157587 263.118141 
L 307.157587 258.424498 
L 307.736143 258.424498 
L 307.736143 253.730855 
L 309.274436 253.730855 
L 309.274436 249.037212 
L 309.829761 249.037212 
L 309.829761 244.343569 
L 314.068621 244.343569 
L 314.068621 239.649926 
L 314.718388 239.649926 
L 314.718388 234.956283 
L 315.923743 234.956283 
L 315.923743 230.26264 
L 317.032926 230.26264 
L 317.032926 225.568997 
L 317.101461 225.568997 
L 317.101461 220.875353 
L 317.916827 220.875353 
L 317.916827 216.18171 
L 318.051472 216.18171 
L 318.051472 211.488067 
L 322.059487 211.488067 
L 322.059487 206.794424 
L 324.488641 206.794424 
L 324.488641 202.100781 
L 327.707315 202.100781 
L 327.707315 197.407138 
L 329.78193 197.407138 
L 329.78193 192.713495 
L 334.580353 192.713495 
L 334.580353 188.019852 
L 335.113663 188.019852 
L 335.113663 183.326209 
L 343.423178 183.326209 
L 343.423178 178.632565 
L 345.592241 178.632565 
L 345.592241 173.938922 
L 348.386072 173.938922 
L 348.386072 169.245279 
L 351.353162 169.245279 
L 351.353162 164.551636 
L 354.191463 164.551636 
L 354.191463 159.857993 
L 360.858922 159.857993 
L 360.858922 155.16435 
L 364.441825 155.16435 
L 364.441825 150.470707 
L 406.033279 150.470707 
L 406.033279 145.777064 
L 413.617853 145.777064 
L 413.617853 141.083421 
L 419.957802 141.083421 
L 419.957802 136.389777 
L 437.247987 136.389777 
L 437.247987 131.696134 
L 440.030821 131.696134 
L 440.030821 127.002491 
L 454.516469 127.002491 
L 454.516469 122.308848 
L 461.8 122.308848 
" style="fill:none;stroke:#f5deb3;stroke-linecap:square;stroke-width:1.5;"/>
   </g>
   <g id="line2d_21"/>
   <g id="line2d_22">
    <path clip-path="url(#p16a1b67a48)" d="M 283.904818 291.28 
L 283.904818 286.586357 
L 287.317906 286.586357 
L 287.317906 281.892714 
L 287.56193 281.892714 
L 287.56193 277.199071 
L 292.656529 277.199071 
L 292.656529 272.505428 
L 298.387261 272.505428 
L 298.387261 267.811784 
L 298.780128 267.811784 
L 298.780128 263.118141 
L 299.941014 263.118141 
L 299.941014 258.424498 
L 301.81936 258.424498 
L 301.81936 253.730855 
L 303.631436 253.730855 
L 303.631436 249.037212 
L 306.4883 249.037212 
L 306.4883 244.343569 
L 307.818265 244.343569 
L 307.818265 239.649926 
L 312.743896 239.649926 
L 312.743896 234.956283 
L 312.967069 234.956283 
L 312.967069 230.26264 
L 319.965173 230.26264 
L 319.965173 225.568997 
L 325.195538 225.568997 
L 325.195538 220.875353 
L 328.040508 220.875353 
L 328.040508 216.18171 
L 328.645804 216.18171 
L 328.645804 211.488067 
L 330.261253 211.488067 
L 330.261253 206.794424 
L 332.694201 206.794424 
L 332.694201 202.100781 
L 333.645934 202.100781 
L 333.645934 197.407138 
L 335.065409 197.407138 
L 335.065409 192.713495 
L 336.774636 192.713495 
L 336.774636 188.019852 
L 339.236349 188.019852 
L 339.236349 183.326209 
L 365.600428 183.326209 
L 365.600428 178.632565 
L 366.024951 178.632565 
L 366.024951 173.938922 
L 378.966512 173.938922 
L 378.966512 169.245279 
L 382.937265 169.245279 
L 382.937265 164.551636 
L 385.49595 164.551636 
L 385.49595 159.857993 
L 387.045897 159.857993 
L 387.045897 155.16435 
L 388.225603 155.16435 
L 388.225603 150.470707 
L 389.210848 150.470707 
L 389.210848 145.777064 
L 391.690608 145.777064 
L 391.690608 141.083421 
L 393.315933 141.083421 
L 393.315933 136.389777 
L 395.59456 136.389777 
L 395.59456 131.696134 
L 408.634099 131.696134 
L 408.634099 127.002491 
L 408.990217 127.002491 
L 408.990217 122.308848 
L 412.9333 122.308848 
L 412.9333 117.615205 
L 414.550882 117.615205 
L 414.550882 112.921562 
L 420.243662 112.921562 
L 420.243662 108.227919 
L 423.477714 108.227919 
L 423.477714 103.534276 
L 425.293052 103.534276 
L 425.293052 98.840633 
L 427.924919 98.840633 
L 427.924919 94.14699 
L 428.858677 94.14699 
L 428.858677 89.453346 
L 430.292554 89.453346 
L 430.292554 84.759703 
L 433.402657 84.759703 
L 433.402657 80.06606 
L 449.217535 80.06606 
L 449.217535 75.372417 
L 461.8 75.372417 
" style="fill:none;stroke:#f5deb3;stroke-linecap:square;stroke-width:1.5;"/>
   </g>
   <g id="line2d_23">
    <path clip-path="url(#p16a1b67a48)" d="M 421.100863 291.28 
L 421.100863 286.586357 
L 444.526396 286.586357 
L 444.526396 281.892714 
L 461.8 281.892714 
" style="fill:none;stroke:#f5deb3;stroke-linecap:square;stroke-width:1.5;"/>
   </g>
   <g id="line2d_24">
    <path clip-path="url(#p16a1b67a48)" d="M 314.430617 291.28 
L 314.430617 286.586357 
L 317.578663 286.586357 
L 317.578663 281.892714 
L 318.653045 281.892714 
L 318.653045 277.199071 
L 328.536279 277.199071 
L 328.536279 272.505428 
L 328.645804 272.505428 
L 328.645804 267.811784 
L 332.083893 267.811784 
L 332.083893 263.118141 
L 336.211189 263.118141 
L 336.211189 258.424498 
L 341.627967 258.424498 
L 341.627967 253.730855 
L 356.405341 253.730855 
L 356.405341 249.037212 
L 361.756818 249.037212 
L 361.756818 244.343569 
L 365.360082 244.343569 
L 365.360082 239.649926 
L 374.169202 239.649926 
L 374.169202 234.956283 
L 385.514034 234.956283 
L 385.514034 230.26264 
L 393.764421 230.26264 
L 393.764421 225.568997 
L 393.99487 225.568997 
L 393.99487 220.875353 
L 394.604394 220.875353 
L 394.604394 216.18171 
L 394.634681 216.18171 
L 394.634681 211.488067 
L 399.636347 211.488067 
L 399.636347 206.794424 
L 400.830983 206.794424 
L 400.830983 202.100781 
L 400.991756 202.100781 
L 400.991756 197.407138 
L 403.383175 197.407138 
L 403.383175 192.713495 
L 405.851062 192.713495 
L 405.851062 188.019852 
L 405.911873 188.019852 
L 405.911873 183.326209 
L 406.719869 183.326209 
L 406.719869 178.632565 
L 406.887111 178.632565 
L 406.887111 173.938922 
L 407.456412 173.938922 
L 407.456412 169.245279 
L 408.229039 169.245279 
L 408.229039 164.551636 
L 409.184465 164.551636 
L 409.184465 159.857993 
L 409.638641 159.857993 
L 409.638641 155.16435 
L 411.97014 155.16435 
L 411.97014 150.470707 
L 412.142694 150.470707 
L 412.142694 145.777064 
L 412.218004 145.777064 
L 412.218004 141.083421 
L 412.582235 141.083421 
L 412.582235 136.389777 
L 413.313564 136.389777 
L 413.313564 131.696134 
L 413.743241 131.696134 
L 413.743241 127.002491 
L 414.602224 127.002491 
L 414.602224 122.308848 
L 414.776402 122.308848 
L 414.776402 117.615205 
L 414.796854 117.615205 
L 414.796854 112.921562 
L 415.547937 112.921562 
L 415.547937 108.227919 
L 418.712991 108.227919 
L 418.712991 103.534276 
L 420.856107 103.534276 
L 420.856107 98.840633 
L 421.209271 98.840633 
L 421.209271 94.14699 
L 422.483819 94.14699 
L 422.483819 89.453346 
L 423.356687 89.453346 
L 423.356687 84.759703 
L 424.588118 84.759703 
L 424.588118 80.06606 
L 425.625364 80.06606 
L 425.625364 75.372417 
L 425.716375 75.372417 
L 425.716375 70.678774 
L 430.095571 70.678774 
L 430.095571 65.985131 
L 431.17718 65.985131 
L 431.17718 61.291488 
L 432.461698 61.291488 
L 432.461698 56.597845 
L 433.367057 56.597845 
L 433.367057 51.904202 
L 434.410508 51.904202 
L 434.410508 47.210558 
L 434.709741 47.210558 
L 434.709741 42.516915 
L 434.876 42.516915 
L 434.876 37.823272 
L 435.0624 37.823272 
L 435.0624 33.129629 
L 435.076181 33.129629 
L 435.076181 28.435986 
L 461.8 28.435986 
" style="fill:none;stroke:#f5deb3;stroke-linecap:square;stroke-width:1.5;"/>
   </g>
   <g id="line2d_25">
    <path clip-path="url(#p16a1b67a48)" style="fill:none;stroke:#f5deb3;stroke-linecap:square;stroke-width:1.5;"/>
   </g>
   <g id="line2d_26">
    <path clip-path="url(#p16a1b67a48)" d="M 397.676604 291.28 
L 397.676604 286.586357 
L 400.250711 286.586357 
L 400.250711 281.892714 
L 402.753685 281.892714 
L 402.753685 277.199071 
L 409.480136 277.199071 
L 409.480136 272.505428 
L 409.999113 272.505428 
L 409.999113 267.811784 
L 410.100042 267.811784 
L 410.100042 263.118141 
L 410.390504 263.118141 
L 410.390504 258.424498 
L 410.446175 258.424498 
L 410.446175 253.730855 
L 410.90041 253.730855 
L 410.90041 249.037212 
L 411.416225 249.037212 
L 411.416225 244.343569 
L 412.034916 244.343569 
L 412.034916 239.649926 
L 412.067273 239.649926 
L 412.067273 234.956283 
L 412.379013 234.956283 
L 412.379013 230.26264 
L 412.805918 230.26264 
L 412.805918 225.568997 
L 412.9333 225.568997 
L 412.9333 220.875353 
L 412.996873 220.875353 
L 412.996873 216.18171 
L 413.166018 216.18171 
L 413.166018 211.488067 
L 414.086486 211.488067 
L 414.086486 206.794424 
L 419.325127 206.794424 
L 419.325127 202.100781 
L 419.371913 202.100781 
L 419.371913 197.407138 
L 419.437343 197.407138 
L 419.437343 192.713495 
L 419.698232 192.713495 
L 419.698232 188.019852 
L 419.930054 188.019852 
L 419.930054 183.326209 
L 420.280432 183.326209 
L 420.280432 178.632565 
L 420.381412 178.632565 
L 420.381412 173.938922 
L 420.500498 173.938922 
L 420.500498 169.245279 
L 420.65581 169.245279 
L 420.65581 164.551636 
L 420.664931 164.551636 
L 420.664931 159.857993 
L 420.810653 159.857993 
L 420.810653 155.16435 
L 420.83793 155.16435 
L 420.83793 150.470707 
L 421.254373 150.470707 
L 421.254373 145.777064 
L 421.308443 145.777064 
L 421.308443 141.083421 
L 421.416414 141.083421 
L 421.416414 136.389777 
L 421.452354 136.389777 
L 421.452354 131.696134 
L 421.568985 131.696134 
L 421.568985 127.002491 
L 421.819295 127.002491 
L 421.819295 122.308848 
L 422.904647 122.308848 
L 422.904647 117.615205 
L 423.035452 117.615205 
L 423.035452 112.921562 
L 423.113776 112.921562 
L 423.113776 108.227919 
L 423.174611 108.227919 
L 423.174611 103.534276 
L 423.19198 103.534276 
L 423.19198 98.840633 
L 423.58984 98.840633 
L 423.58984 94.14699 
L 428.726317 94.14699 
L 428.726317 89.453346 
L 429.191953 89.453346 
L 429.191953 84.759703 
L 437.201737 84.759703 
L 437.201737 80.06606 
L 437.313986 80.06606 
L 437.313986 75.372417 
L 444.198649 75.372417 
L 444.198649 70.678774 
L 452.754867 70.678774 
L 452.754867 65.985131 
L 452.959556 65.985131 
L 452.959556 61.291488 
L 453.008171 61.291488 
L 453.008171 56.597845 
L 456.415566 56.597845 
L 456.415566 51.904202 
L 458.957273 51.904202 
L 458.957273 47.210558 
L 461.8 47.210558 
" style="fill:none;stroke:#f5deb3;stroke-linecap:square;stroke-width:1.5;"/>
   </g>
   <g id="line2d_27"/>
   <g id="line2d_28">
    <path clip-path="url(#p16a1b67a48)" d="M 298.97544 291.28 
L 298.97544 286.586357 
L 300.888772 286.586357 
L 300.888772 281.892714 
L 306.907625 281.892714 
L 306.907625 277.199071 
L 315.923743 277.199071 
L 315.923743 272.505428 
L 342.887026 272.505428 
L 342.887026 267.811784 
L 363.700743 267.811784 
L 363.700743 263.118141 
L 369.720181 263.118141 
L 369.720181 258.424498 
L 371.174748 258.424498 
L 371.174748 253.730855 
L 371.413221 253.730855 
L 371.413221 249.037212 
L 374.191746 249.037212 
L 374.191746 244.343569 
L 375.129779 244.343569 
L 375.129779 239.649926 
L 376.029246 239.649926 
L 376.029246 234.956283 
L 377.866267 234.956283 
L 377.866267 230.26264 
L 378.533381 230.26264 
L 378.533381 225.568997 
L 379.069103 225.568997 
L 379.069103 220.875353 
L 379.232822 220.875353 
L 379.232822 216.18171 
L 379.983312 216.18171 
L 379.983312 211.488067 
L 381.35424 211.488067 
L 381.35424 206.794424 
L 384.491407 206.794424 
L 384.491407 202.100781 
L 384.730624 202.100781 
L 384.730624 197.407138 
L 384.968731 197.407138 
L 384.968731 192.713495 
L 385.838458 192.713495 
L 385.838458 188.019852 
L 386.569865 188.019852 
L 386.569865 183.326209 
L 386.658352 183.326209 
L 386.658352 178.632565 
L 386.764336 178.632565 
L 386.764336 173.938922 
L 389.19402 173.938922 
L 389.19402 169.245279 
L 389.462606 169.245279 
L 389.462606 164.551636 
L 390.01217 164.551636 
L 390.01217 159.857993 
L 390.028732 159.857993 
L 390.028732 155.16435 
L 390.523125 155.16435 
L 390.523125 150.470707 
L 391.51395 150.470707 
L 391.51395 145.777064 
L 392.816462 145.777064 
L 392.816462 141.083421 
L 393.175947 141.083421 
L 393.175947 136.389777 
L 393.948863 136.389777 
L 393.948863 131.696134 
L 394.437494 131.696134 
L 394.437494 127.002491 
L 395.281573 127.002491 
L 395.281573 122.308848 
L 397.102664 122.308848 
L 397.102664 117.615205 
L 397.304273 117.615205 
L 397.304273 112.921562 
L 399.056234 112.921562 
L 399.056234 108.227919 
L 400.033111 108.227919 
L 400.033111 103.534276 
L 400.615832 103.534276 
L 400.615832 98.840633 
L 400.804138 98.840633 
L 400.804138 94.14699 
L 401.418041 94.14699 
L 401.418041 89.453346 
L 410.144835 89.453346 
L 410.144835 84.759703 
L 427.654983 84.759703 
L 427.654983 80.06606 
L 428.444896 80.06606 
L 428.444896 75.372417 
L 429.137846 75.372417 
L 429.137846 70.678774 
L 429.299997 70.678774 
L 429.299997 65.985131 
L 430.322792 65.985131 
L 430.322792 61.291488 
L 431.21433 61.291488 
L 431.21433 56.597845 
L 431.643315 56.597845 
L 431.643315 51.904202 
L 431.790415 51.904202 
L 431.790415 47.210558 
L 432.570319 47.210558 
L 432.570319 42.516915 
L 433.551908 42.516915 
L 433.551908 37.823272 
L 451.982416 37.823272 
L 451.982416 33.129629 
L 454.967472 33.129629 
L 454.967472 28.435986 
L 456.219656 28.435986 
L 456.219656 23.742343 
L 456.895339 23.742343 
L 456.895339 19.0487 
L 461.8 19.0487 
" style="fill:none;stroke:#f5deb3;stroke-linecap:square;stroke-width:1.5;"/>
   </g>
   <g id="line2d_29">
    <path clip-path="url(#p16a1b67a48)" d="M 255.484744 291.28 
L 255.484744 286.586357 
L 255.484744 286.586357 
L 255.484744 281.892714 
L 255.484744 281.892714 
L 255.484744 277.199071 
L 275.085549 277.199071 
L 275.085549 272.505428 
L 275.085549 272.505428 
L 275.085549 267.811784 
L 275.085549 267.811784 
L 275.085549 263.118141 
L 276.914835 263.118141 
L 276.914835 258.424498 
L 276.914835 258.424498 
L 276.914835 253.730855 
L 276.914835 253.730855 
L 276.914835 249.037212 
L 277.362156 249.037212 
L 277.362156 244.343569 
L 277.362156 244.343569 
L 277.362156 239.649926 
L 277.362156 239.649926 
L 277.362156 234.956283 
L 280.248704 234.956283 
L 280.248704 230.26264 
L 280.248704 230.26264 
L 280.248704 225.568997 
L 280.248704 225.568997 
L 280.248704 220.875353 
L 284.939957 220.875353 
L 284.939957 216.18171 
L 284.939957 216.18171 
L 284.939957 211.488067 
L 284.939957 211.488067 
L 284.939957 206.794424 
L 285.322819 206.794424 
L 285.322819 202.100781 
L 285.322819 202.100781 
L 285.322819 197.407138 
L 285.322819 197.407138 
L 285.322819 192.713495 
L 287.317906 192.713495 
L 287.317906 188.019852 
L 287.317906 188.019852 
L 287.317906 183.326209 
L 287.317906 183.326209 
L 287.317906 178.632565 
L 300.606276 178.632565 
L 300.606276 173.938922 
L 300.606276 173.938922 
L 300.606276 169.245279 
L 300.606276 169.245279 
L 300.606276 164.551636 
L 327.259669 164.551636 
L 327.259669 159.857993 
L 327.259669 159.857993 
L 327.259669 155.16435 
L 327.259669 155.16435 
L 327.259669 150.470707 
L 372.91378 150.470707 
L 372.91378 145.777064 
L 372.91378 145.777064 
L 372.91378 141.083421 
L 372.91378 141.083421 
L 372.91378 136.389777 
L 461.8 136.389777 
" style="fill:none;stroke:#f5deb3;stroke-linecap:square;stroke-width:1.5;"/>
   </g>
   <g id="line2d_30">
    <path clip-path="url(#p16a1b67a48)" d="M 415.5177 291.28 
L 415.5177 286.586357 
L 446.846122 286.586357 
L 446.846122 281.892714 
L 461.325421 281.892714 
L 461.325421 277.199071 
L 461.8 277.199071 
" style="fill:none;stroke:#f5deb3;stroke-linecap:square;stroke-width:1.5;"/>
   </g>
   <g id="matplotlib.axis_1">
    <g id="xtick_1">
     <g id="line2d_31">
      <path clip-path="url(#p16a1b67a48)" d="M 59.72 291.28 
L 59.72 6.845228 
" style="fill:none;stroke:#b0b0b0;stroke-linecap:square;stroke-width:0.8;"/>
     </g>
     <g id="line2d_32">
      <defs>
       <path d="M 0 0 
L 0 3.5 
" id="me1f9742111" style="stroke:#000000;stroke-width:0.8;"/>
      </defs>
      <g>
       <use style="stroke:#000000;stroke-width:0.8;" x="59.72" xlink:href="#me1f9742111" y="291.28"/>
      </g>
     </g>
     <g id="text_1">
      <!-- 0 -->
      <defs>
       <path d="M 31.78125 66.40625 
Q 24.171875 66.40625 20.328125 58.90625 
Q 16.5 51.421875 16.5 36.375 
Q 16.5 21.390625 20.328125 13.890625 
Q 24.171875 6.390625 31.78125 6.390625 
Q 39.453125 6.390625 43.28125 13.890625 
Q 47.125 21.390625 47.125 36.375 
Q 47.125 51.421875 43.28125 58.90625 
Q 39.453125 66.40625 31.78125 66.40625 
z
M 31.78125 74.21875 
Q 44.046875 74.21875 50.515625 64.515625 
Q 56.984375 54.828125 56.984375 36.375 
Q 56.984375 17.96875 50.515625 8.265625 
Q 44.046875 -1.421875 31.78125 -1.421875 
Q 19.53125 -1.421875 13.0625 8.265625 
Q 6.59375 17.96875 6.59375 36.375 
Q 6.59375 54.828125 13.0625 64.515625 
Q 19.53125 74.21875 31.78125 74.21875 
z
" id="DejaVuSans-30"/>
      </defs>
      <g transform="translate(53.3575 313.476875)scale(0.2 -0.2)">
       <use xlink:href="#DejaVuSans-30"/>
      </g>
     </g>
    </g>
    <g id="xtick_2">
     <g id="line2d_33">
      <path clip-path="url(#p16a1b67a48)" d="M 296.273922 291.28 
L 296.273922 6.845228 
" style="fill:none;stroke:#b0b0b0;stroke-linecap:square;stroke-width:0.8;"/>
     </g>
     <g id="line2d_34">
      <g>
       <use style="stroke:#000000;stroke-width:0.8;" x="296.273922" xlink:href="#me1f9742111" y="291.28"/>
      </g>
     </g>
     <g id="text_2">
      <!-- 2 -->
      <defs>
       <path d="M 19.1875 8.296875 
L 53.609375 8.296875 
L 53.609375 0 
L 7.328125 0 
L 7.328125 8.296875 
Q 12.9375 14.109375 22.625 23.890625 
Q 32.328125 33.6875 34.8125 36.53125 
Q 39.546875 41.84375 41.421875 45.53125 
Q 43.3125 49.21875 43.3125 52.78125 
Q 43.3125 58.59375 39.234375 62.25 
Q 35.15625 65.921875 28.609375 65.921875 
Q 23.96875 65.921875 18.8125 64.3125 
Q 13.671875 62.703125 7.8125 59.421875 
L 7.8125 69.390625 
Q 13.765625 71.78125 18.9375 73 
Q 24.125 74.21875 28.421875 74.21875 
Q 39.75 74.21875 46.484375 68.546875 
Q 53.21875 62.890625 53.21875 53.421875 
Q 53.21875 48.921875 51.53125 44.890625 
Q 49.859375 40.875 45.40625 35.40625 
Q 44.1875 33.984375 37.640625 27.21875 
Q 31.109375 20.453125 19.1875 8.296875 
z
" id="DejaVuSans-32"/>
      </defs>
      <g transform="translate(289.911422 313.476875)scale(0.2 -0.2)">
       <use xlink:href="#DejaVuSans-32"/>
      </g>
     </g>
    </g>
    <g id="xtick_3">
     <g id="line2d_35">
      <path clip-path="url(#p16a1b67a48)" d="M 95.324913 291.28 
L 95.324913 6.845228 
" style="fill:none;stroke:#b0b0b0;stroke-linecap:square;stroke-width:0.8;"/>
     </g>
     <g id="line2d_36">
      <defs>
       <path d="M 0 0 
L 0 2 
" id="mbe72793b3b" style="stroke:#000000;stroke-width:0.6;"/>
      </defs>
      <g>
       <use style="stroke:#000000;stroke-width:0.6;" x="95.324913" xlink:href="#mbe72793b3b" y="291.28"/>
      </g>
     </g>
    </g>
    <g id="xtick_4">
     <g id="line2d_37">
      <path clip-path="url(#p16a1b67a48)" d="M 116.152452 291.28 
L 116.152452 6.845228 
" style="fill:none;stroke:#b0b0b0;stroke-linecap:square;stroke-width:0.8;"/>
     </g>
     <g id="line2d_38">
      <g>
       <use style="stroke:#000000;stroke-width:0.6;" x="116.152452" xlink:href="#mbe72793b3b" y="291.28"/>
      </g>
     </g>
    </g>
    <g id="xtick_5">
     <g id="line2d_39">
      <path clip-path="url(#p16a1b67a48)" d="M 130.929826 291.28 
L 130.929826 6.845228 
" style="fill:none;stroke:#b0b0b0;stroke-linecap:square;stroke-width:0.8;"/>
     </g>
     <g id="line2d_40">
      <g>
       <use style="stroke:#000000;stroke-width:0.6;" x="130.929826" xlink:href="#mbe72793b3b" y="291.28"/>
      </g>
     </g>
    </g>
    <g id="xtick_6">
     <g id="line2d_41">
      <path clip-path="url(#p16a1b67a48)" d="M 142.392048 291.28 
L 142.392048 6.845228 
" style="fill:none;stroke:#b0b0b0;stroke-linecap:square;stroke-width:0.8;"/>
     </g>
     <g id="line2d_42">
      <g>
       <use style="stroke:#000000;stroke-width:0.6;" x="142.392048" xlink:href="#mbe72793b3b" y="291.28"/>
      </g>
     </g>
    </g>
    <g id="xtick_7">
     <g id="line2d_43">
      <path clip-path="url(#p16a1b67a48)" d="M 151.757365 291.28 
L 151.757365 6.845228 
" style="fill:none;stroke:#b0b0b0;stroke-linecap:square;stroke-width:0.8;"/>
     </g>
     <g id="line2d_44">
      <g>
       <use style="stroke:#000000;stroke-width:0.6;" x="151.757365" xlink:href="#mbe72793b3b" y="291.28"/>
      </g>
     </g>
    </g>
    <g id="xtick_8">
     <g id="line2d_45">
      <path clip-path="url(#p16a1b67a48)" d="M 159.675628 291.28 
L 159.675628 6.845228 
" style="fill:none;stroke:#b0b0b0;stroke-linecap:square;stroke-width:0.8;"/>
     </g>
     <g id="line2d_46">
      <g>
       <use style="stroke:#000000;stroke-width:0.6;" x="159.675628" xlink:href="#mbe72793b3b" y="291.28"/>
      </g>
     </g>
    </g>
    <g id="xtick_9">
     <g id="line2d_47">
      <path clip-path="url(#p16a1b67a48)" d="M 166.534739 291.28 
L 166.534739 6.845228 
" style="fill:none;stroke:#b0b0b0;stroke-linecap:square;stroke-width:0.8;"/>
     </g>
     <g id="line2d_48">
      <g>
       <use style="stroke:#000000;stroke-width:0.6;" x="166.534739" xlink:href="#mbe72793b3b" y="291.28"/>
      </g>
     </g>
    </g>
    <g id="xtick_10">
     <g id="line2d_49">
      <path clip-path="url(#p16a1b67a48)" d="M 172.584904 291.28 
L 172.584904 6.845228 
" style="fill:none;stroke:#b0b0b0;stroke-linecap:square;stroke-width:0.8;"/>
     </g>
     <g id="line2d_50">
      <g>
       <use style="stroke:#000000;stroke-width:0.6;" x="172.584904" xlink:href="#mbe72793b3b" y="291.28"/>
      </g>
     </g>
    </g>
    <g id="xtick_11">
     <g id="line2d_51">
      <path clip-path="url(#p16a1b67a48)" d="M 213.601874 291.28 
L 213.601874 6.845228 
" style="fill:none;stroke:#b0b0b0;stroke-linecap:square;stroke-width:0.8;"/>
     </g>
     <g id="line2d_52">
      <g>
       <use style="stroke:#000000;stroke-width:0.6;" x="213.601874" xlink:href="#mbe72793b3b" y="291.28"/>
      </g>
     </g>
    </g>
    <g id="xtick_12">
     <g id="line2d_53">
      <path clip-path="url(#p16a1b67a48)" d="M 234.429413 291.28 
L 234.429413 6.845228 
" style="fill:none;stroke:#b0b0b0;stroke-linecap:square;stroke-width:0.8;"/>
     </g>
     <g id="line2d_54">
      <g>
       <use style="stroke:#000000;stroke-width:0.6;" x="234.429413" xlink:href="#mbe72793b3b" y="291.28"/>
      </g>
     </g>
    </g>
    <g id="xtick_13">
     <g id="line2d_55">
      <path clip-path="url(#p16a1b67a48)" d="M 249.206787 291.28 
L 249.206787 6.845228 
" style="fill:none;stroke:#b0b0b0;stroke-linecap:square;stroke-width:0.8;"/>
     </g>
     <g id="line2d_56">
      <g>
       <use style="stroke:#000000;stroke-width:0.6;" x="249.206787" xlink:href="#mbe72793b3b" y="291.28"/>
      </g>
     </g>
    </g>
    <g id="xtick_14">
     <g id="line2d_57">
      <path clip-path="url(#p16a1b67a48)" d="M 260.669009 291.28 
L 260.669009 6.845228 
" style="fill:none;stroke:#b0b0b0;stroke-linecap:square;stroke-width:0.8;"/>
     </g>
     <g id="line2d_58">
      <g>
       <use style="stroke:#000000;stroke-width:0.6;" x="260.669009" xlink:href="#mbe72793b3b" y="291.28"/>
      </g>
     </g>
    </g>
    <g id="xtick_15">
     <g id="line2d_59">
      <path clip-path="url(#p16a1b67a48)" d="M 270.034326 291.28 
L 270.034326 6.845228 
" style="fill:none;stroke:#b0b0b0;stroke-linecap:square;stroke-width:0.8;"/>
     </g>
     <g id="line2d_60">
      <g>
       <use style="stroke:#000000;stroke-width:0.6;" x="270.034326" xlink:href="#mbe72793b3b" y="291.28"/>
      </g>
     </g>
    </g>
    <g id="xtick_16">
     <g id="line2d_61">
      <path clip-path="url(#p16a1b67a48)" d="M 277.952589 291.28 
L 277.952589 6.845228 
" style="fill:none;stroke:#b0b0b0;stroke-linecap:square;stroke-width:0.8;"/>
     </g>
     <g id="line2d_62">
      <g>
       <use style="stroke:#000000;stroke-width:0.6;" x="277.952589" xlink:href="#mbe72793b3b" y="291.28"/>
      </g>
     </g>
    </g>
    <g id="xtick_17">
     <g id="line2d_63">
      <path clip-path="url(#p16a1b67a48)" d="M 284.8117 291.28 
L 284.8117 6.845228 
" style="fill:none;stroke:#b0b0b0;stroke-linecap:square;stroke-width:0.8;"/>
     </g>
     <g id="line2d_64">
      <g>
       <use style="stroke:#000000;stroke-width:0.6;" x="284.8117" xlink:href="#mbe72793b3b" y="291.28"/>
      </g>
     </g>
    </g>
    <g id="xtick_18">
     <g id="line2d_65">
      <path clip-path="url(#p16a1b67a48)" d="M 290.861865 291.28 
L 290.861865 6.845228 
" style="fill:none;stroke:#b0b0b0;stroke-linecap:square;stroke-width:0.8;"/>
     </g>
     <g id="line2d_66">
      <g>
       <use style="stroke:#000000;stroke-width:0.6;" x="290.861865" xlink:href="#mbe72793b3b" y="291.28"/>
      </g>
     </g>
    </g>
    <g id="xtick_19">
     <g id="line2d_67">
      <path clip-path="url(#p16a1b67a48)" d="M 331.878835 291.28 
L 331.878835 6.845228 
" style="fill:none;stroke:#b0b0b0;stroke-linecap:square;stroke-width:0.8;"/>
     </g>
     <g id="line2d_68">
      <g>
       <use style="stroke:#000000;stroke-width:0.6;" x="331.878835" xlink:href="#mbe72793b3b" y="291.28"/>
      </g>
     </g>
    </g>
    <g id="xtick_20">
     <g id="line2d_69">
      <path clip-path="url(#p16a1b67a48)" d="M 352.706374 291.28 
L 352.706374 6.845228 
" style="fill:none;stroke:#b0b0b0;stroke-linecap:square;stroke-width:0.8;"/>
     </g>
     <g id="line2d_70">
      <g>
       <use style="stroke:#000000;stroke-width:0.6;" x="352.706374" xlink:href="#mbe72793b3b" y="291.28"/>
      </g>
     </g>
    </g>
    <g id="xtick_21">
     <g id="line2d_71">
      <path clip-path="url(#p16a1b67a48)" d="M 367.483748 291.28 
L 367.483748 6.845228 
" style="fill:none;stroke:#b0b0b0;stroke-linecap:square;stroke-width:0.8;"/>
     </g>
     <g id="line2d_72">
      <g>
       <use style="stroke:#000000;stroke-width:0.6;" x="367.483748" xlink:href="#mbe72793b3b" y="291.28"/>
      </g>
     </g>
    </g>
    <g id="xtick_22">
     <g id="line2d_73">
      <path clip-path="url(#p16a1b67a48)" d="M 378.945969 291.28 
L 378.945969 6.845228 
" style="fill:none;stroke:#b0b0b0;stroke-linecap:square;stroke-width:0.8;"/>
     </g>
     <g id="line2d_74">
      <g>
       <use style="stroke:#000000;stroke-width:0.6;" x="378.945969" xlink:href="#mbe72793b3b" y="291.28"/>
      </g>
     </g>
    </g>
    <g id="xtick_23">
     <g id="line2d_75">
      <path clip-path="url(#p16a1b67a48)" d="M 388.311287 291.28 
L 388.311287 6.845228 
" style="fill:none;stroke:#b0b0b0;stroke-linecap:square;stroke-width:0.8;"/>
     </g>
     <g id="line2d_76">
      <g>
       <use style="stroke:#000000;stroke-width:0.6;" x="388.311287" xlink:href="#mbe72793b3b" y="291.28"/>
      </g>
     </g>
    </g>
    <g id="xtick_24">
     <g id="line2d_77">
      <path clip-path="url(#p16a1b67a48)" d="M 396.229549 291.28 
L 396.229549 6.845228 
" style="fill:none;stroke:#b0b0b0;stroke-linecap:square;stroke-width:0.8;"/>
     </g>
     <g id="line2d_78">
      <g>
       <use style="stroke:#000000;stroke-width:0.6;" x="396.229549" xlink:href="#mbe72793b3b" y="291.28"/>
      </g>
     </g>
    </g>
    <g id="xtick_25">
     <g id="line2d_79">
      <path clip-path="url(#p16a1b67a48)" d="M 403.088661 291.28 
L 403.088661 6.845228 
" style="fill:none;stroke:#b0b0b0;stroke-linecap:square;stroke-width:0.8;"/>
     </g>
     <g id="line2d_80">
      <g>
       <use style="stroke:#000000;stroke-width:0.6;" x="403.088661" xlink:href="#mbe72793b3b" y="291.28"/>
      </g>
     </g>
    </g>
    <g id="xtick_26">
     <g id="line2d_81">
      <path clip-path="url(#p16a1b67a48)" d="M 409.138826 291.28 
L 409.138826 6.845228 
" style="fill:none;stroke:#b0b0b0;stroke-linecap:square;stroke-width:0.8;"/>
     </g>
     <g id="line2d_82">
      <g>
       <use style="stroke:#000000;stroke-width:0.6;" x="409.138826" xlink:href="#mbe72793b3b" y="291.28"/>
      </g>
     </g>
    </g>
    <g id="xtick_27">
     <g id="line2d_83">
      <path clip-path="url(#p16a1b67a48)" d="M 450.155795 291.28 
L 450.155795 6.845228 
" style="fill:none;stroke:#b0b0b0;stroke-linecap:square;stroke-width:0.8;"/>
     </g>
     <g id="line2d_84">
      <g>
       <use style="stroke:#000000;stroke-width:0.6;" x="450.155795" xlink:href="#mbe72793b3b" y="291.28"/>
      </g>
     </g>
    </g>
    <g id="text_3">
     <!-- log10 of FEvals / DIM -->
     <defs>
      <path d="M 9.421875 75.984375 
L 18.40625 75.984375 
L 18.40625 0 
L 9.421875 0 
z
" id="DejaVuSans-6c"/>
      <path d="M 30.609375 48.390625 
Q 23.390625 48.390625 19.1875 42.75 
Q 14.984375 37.109375 14.984375 27.296875 
Q 14.984375 17.484375 19.15625 11.84375 
Q 23.34375 6.203125 30.609375 6.203125 
Q 37.796875 6.203125 41.984375 11.859375 
Q 46.1875 17.53125 46.1875 27.296875 
Q 46.1875 37.015625 41.984375 42.703125 
Q 37.796875 48.390625 30.609375 48.390625 
z
M 30.609375 56 
Q 42.328125 56 49.015625 48.375 
Q 55.71875 40.765625 55.71875 27.296875 
Q 55.71875 13.875 49.015625 6.21875 
Q 42.328125 -1.421875 30.609375 -1.421875 
Q 18.84375 -1.421875 12.171875 6.21875 
Q 5.515625 13.875 5.515625 27.296875 
Q 5.515625 40.765625 12.171875 48.375 
Q 18.84375 56 30.609375 56 
z
" id="DejaVuSans-6f"/>
      <path d="M 45.40625 27.984375 
Q 45.40625 37.75 41.375 43.109375 
Q 37.359375 48.484375 30.078125 48.484375 
Q 22.859375 48.484375 18.828125 43.109375 
Q 14.796875 37.75 14.796875 27.984375 
Q 14.796875 18.265625 18.828125 12.890625 
Q 22.859375 7.515625 30.078125 7.515625 
Q 37.359375 7.515625 41.375 12.890625 
Q 45.40625 18.265625 45.40625 27.984375 
z
M 54.390625 6.78125 
Q 54.390625 -7.171875 48.1875 -13.984375 
Q 42 -20.796875 29.203125 -20.796875 
Q 24.46875 -20.796875 20.265625 -20.09375 
Q 16.0625 -19.390625 12.109375 -17.921875 
L 12.109375 -9.1875 
Q 16.0625 -11.328125 19.921875 -12.34375 
Q 23.78125 -13.375 27.78125 -13.375 
Q 36.625 -13.375 41.015625 -8.765625 
Q 45.40625 -4.15625 45.40625 5.171875 
L 45.40625 9.625 
Q 42.625 4.78125 38.28125 2.390625 
Q 33.9375 0 27.875 0 
Q 17.828125 0 11.671875 7.65625 
Q 5.515625 15.328125 5.515625 27.984375 
Q 5.515625 40.671875 11.671875 48.328125 
Q 17.828125 56 27.875 56 
Q 33.9375 56 38.28125 53.609375 
Q 42.625 51.21875 45.40625 46.390625 
L 45.40625 54.6875 
L 54.390625 54.6875 
z
" id="DejaVuSans-67"/>
      <path d="M 12.40625 8.296875 
L 28.515625 8.296875 
L 28.515625 63.921875 
L 10.984375 60.40625 
L 10.984375 69.390625 
L 28.421875 72.90625 
L 38.28125 72.90625 
L 38.28125 8.296875 
L 54.390625 8.296875 
L 54.390625 0 
L 12.40625 0 
z
" id="DejaVuSans-31"/>
      <path id="DejaVuSans-20"/>
      <path d="M 37.109375 75.984375 
L 37.109375 68.5 
L 28.515625 68.5 
Q 23.6875 68.5 21.796875 66.546875 
Q 19.921875 64.59375 19.921875 59.515625 
L 19.921875 54.6875 
L 34.71875 54.6875 
L 34.71875 47.703125 
L 19.921875 47.703125 
L 19.921875 0 
L 10.890625 0 
L 10.890625 47.703125 
L 2.296875 47.703125 
L 2.296875 54.6875 
L 10.890625 54.6875 
L 10.890625 58.5 
Q 10.890625 67.625 15.140625 71.796875 
Q 19.390625 75.984375 28.609375 75.984375 
z
" id="DejaVuSans-66"/>
      <path d="M 9.8125 72.90625 
L 51.703125 72.90625 
L 51.703125 64.59375 
L 19.671875 64.59375 
L 19.671875 43.109375 
L 48.578125 43.109375 
L 48.578125 34.8125 
L 19.671875 34.8125 
L 19.671875 0 
L 9.8125 0 
z
" id="DejaVuSans-46"/>
      <path d="M 9.8125 72.90625 
L 55.90625 72.90625 
L 55.90625 64.59375 
L 19.671875 64.59375 
L 19.671875 43.015625 
L 54.390625 43.015625 
L 54.390625 34.71875 
L 19.671875 34.71875 
L 19.671875 8.296875 
L 56.78125 8.296875 
L 56.78125 0 
L 9.8125 0 
z
" id="DejaVuSans-45"/>
      <path d="M 2.984375 54.6875 
L 12.5 54.6875 
L 29.59375 8.796875 
L 46.6875 54.6875 
L 56.203125 54.6875 
L 35.6875 0 
L 23.484375 0 
z
" id="DejaVuSans-76"/>
      <path d="M 34.28125 27.484375 
Q 23.390625 27.484375 19.1875 25 
Q 14.984375 22.515625 14.984375 16.5 
Q 14.984375 11.71875 18.140625 8.90625 
Q 21.296875 6.109375 26.703125 6.109375 
Q 34.1875 6.109375 38.703125 11.40625 
Q 43.21875 16.703125 43.21875 25.484375 
L 43.21875 27.484375 
z
M 52.203125 31.203125 
L 52.203125 0 
L 43.21875 0 
L 43.21875 8.296875 
Q 40.140625 3.328125 35.546875 0.953125 
Q 30.953125 -1.421875 24.3125 -1.421875 
Q 15.921875 -1.421875 10.953125 3.296875 
Q 6 8.015625 6 15.921875 
Q 6 25.140625 12.171875 29.828125 
Q 18.359375 34.515625 30.609375 34.515625 
L 43.21875 34.515625 
L 43.21875 35.40625 
Q 43.21875 41.609375 39.140625 45 
Q 35.0625 48.390625 27.6875 48.390625 
Q 23 48.390625 18.546875 47.265625 
Q 14.109375 46.140625 10.015625 43.890625 
L 10.015625 52.203125 
Q 14.9375 54.109375 19.578125 55.046875 
Q 24.21875 56 28.609375 56 
Q 40.484375 56 46.34375 49.84375 
Q 52.203125 43.703125 52.203125 31.203125 
z
" id="DejaVuSans-61"/>
      <path d="M 44.28125 53.078125 
L 44.28125 44.578125 
Q 40.484375 46.53125 36.375 47.5 
Q 32.28125 48.484375 27.875 48.484375 
Q 21.1875 48.484375 17.84375 46.4375 
Q 14.5 44.390625 14.5 40.28125 
Q 14.5 37.15625 16.890625 35.375 
Q 19.28125 33.59375 26.515625 31.984375 
L 29.59375 31.296875 
Q 39.15625 29.25 43.1875 25.515625 
Q 47.21875 21.78125 47.21875 15.09375 
Q 47.21875 7.46875 41.1875 3.015625 
Q 35.15625 -1.421875 24.609375 -1.421875 
Q 20.21875 -1.421875 15.453125 -0.5625 
Q 10.6875 0.296875 5.421875 2 
L 5.421875 11.28125 
Q 10.40625 8.6875 15.234375 7.390625 
Q 20.0625 6.109375 24.8125 6.109375 
Q 31.15625 6.109375 34.5625 8.28125 
Q 37.984375 10.453125 37.984375 14.40625 
Q 37.984375 18.0625 35.515625 20.015625 
Q 33.0625 21.96875 24.703125 23.78125 
L 21.578125 24.515625 
Q 13.234375 26.265625 9.515625 29.90625 
Q 5.8125 33.546875 5.8125 39.890625 
Q 5.8125 47.609375 11.28125 51.796875 
Q 16.75 56 26.8125 56 
Q 31.78125 56 36.171875 55.265625 
Q 40.578125 54.546875 44.28125 53.078125 
z
" id="DejaVuSans-73"/>
      <path d="M 25.390625 72.90625 
L 33.6875 72.90625 
L 8.296875 -9.28125 
L 0 -9.28125 
z
" id="DejaVuSans-2f"/>
      <path d="M 19.671875 64.796875 
L 19.671875 8.109375 
L 31.59375 8.109375 
Q 46.6875 8.109375 53.6875 14.9375 
Q 60.6875 21.78125 60.6875 36.53125 
Q 60.6875 51.171875 53.6875 57.984375 
Q 46.6875 64.796875 31.59375 64.796875 
z
M 9.8125 72.90625 
L 30.078125 72.90625 
Q 51.265625 72.90625 61.171875 64.09375 
Q 71.09375 55.28125 71.09375 36.53125 
Q 71.09375 17.671875 61.125 8.828125 
Q 51.171875 0 30.078125 0 
L 9.8125 0 
z
" id="DejaVuSans-44"/>
      <path d="M 9.8125 72.90625 
L 19.671875 72.90625 
L 19.671875 0 
L 9.8125 0 
z
" id="DejaVuSans-49"/>
      <path d="M 9.8125 72.90625 
L 24.515625 72.90625 
L 43.109375 23.296875 
L 61.8125 72.90625 
L 76.515625 72.90625 
L 76.515625 0 
L 66.890625 0 
L 66.890625 64.015625 
L 48.09375 14.015625 
L 38.1875 14.015625 
L 19.390625 64.015625 
L 19.390625 0 
L 9.8125 0 
z
" id="DejaVuSans-4d"/>
     </defs>
     <g transform="translate(150.122563 336.833125)scale(0.2 -0.2)">
      <use xlink:href="#DejaVuSans-6c"/>
      <use x="27.783203" xlink:href="#DejaVuSans-6f"/>
      <use x="88.964844" xlink:href="#DejaVuSans-67"/>
      <use x="152.441406" xlink:href="#DejaVuSans-31"/>
      <use x="216.064453" xlink:href="#DejaVuSans-30"/>
      <use x="279.6875" xlink:href="#DejaVuSans-20"/>
      <use x="311.474609" xlink:href="#DejaVuSans-6f"/>
      <use x="372.65625" xlink:href="#DejaVuSans-66"/>
      <use x="407.861328" xlink:href="#DejaVuSans-20"/>
      <use x="439.648438" xlink:href="#DejaVuSans-46"/>
      <use x="497.167969" xlink:href="#DejaVuSans-45"/>
      <use x="560.351562" xlink:href="#DejaVuSans-76"/>
      <use x="619.53125" xlink:href="#DejaVuSans-61"/>
      <use x="680.810547" xlink:href="#DejaVuSans-6c"/>
      <use x="708.59375" xlink:href="#DejaVuSans-73"/>
      <use x="760.693359" xlink:href="#DejaVuSans-20"/>
      <use x="792.480469" xlink:href="#DejaVuSans-2f"/>
      <use x="826.171875" xlink:href="#DejaVuSans-20"/>
      <use x="857.958984" xlink:href="#DejaVuSans-44"/>
      <use x="934.960938" xlink:href="#DejaVuSans-49"/>
      <use x="964.453125" xlink:href="#DejaVuSans-4d"/>
     </g>
    </g>
   </g>
   <g id="matplotlib.axis_2">
    <g id="ytick_1">
     <g id="line2d_85">
      <path clip-path="url(#p16a1b67a48)" d="M 59.72 291.28 
L 450.672 291.28 
" style="fill:none;stroke:#b0b0b0;stroke-linecap:square;stroke-width:0.8;"/>
     </g>
     <g id="line2d_86">
      <defs>
       <path d="M 0 0 
L -3.5 0 
" id="mcf8c8c40d8" style="stroke:#000000;stroke-width:0.8;"/>
      </defs>
      <g>
       <use style="stroke:#000000;stroke-width:0.8;" x="59.72" xlink:href="#mcf8c8c40d8" y="291.28"/>
      </g>
     </g>
     <g id="text_4">
      <!-- 0.0 -->
      <defs>
       <path d="M 10.6875 12.40625 
L 21 12.40625 
L 21 0 
L 10.6875 0 
z
" id="DejaVuSans-2e"/>
      </defs>
      <g transform="translate(27.275 297.35875)scale(0.16 -0.16)">
       <use xlink:href="#DejaVuSans-30"/>
       <use x="63.623047" xlink:href="#DejaVuSans-2e"/>
       <use x="95.410156" xlink:href="#DejaVuSans-30"/>
      </g>
     </g>
    </g>
    <g id="ytick_2">
     <g id="line2d_87">
      <path clip-path="url(#p16a1b67a48)" d="M 59.72 234.956283 
L 450.672 234.956283 
" style="fill:none;stroke:#b0b0b0;stroke-linecap:square;stroke-width:0.8;"/>
     </g>
     <g id="line2d_88">
      <g>
       <use style="stroke:#000000;stroke-width:0.8;" x="59.72" xlink:href="#mcf8c8c40d8" y="234.956283"/>
      </g>
     </g>
     <g id="text_5">
      <!-- 0.2 -->
      <g transform="translate(27.275 241.035033)scale(0.16 -0.16)">
       <use xlink:href="#DejaVuSans-30"/>
       <use x="63.623047" xlink:href="#DejaVuSans-2e"/>
       <use x="95.410156" xlink:href="#DejaVuSans-32"/>
      </g>
     </g>
    </g>
    <g id="ytick_3">
     <g id="line2d_89">
      <path clip-path="url(#p16a1b67a48)" d="M 59.72 178.632565 
L 450.672 178.632565 
" style="fill:none;stroke:#b0b0b0;stroke-linecap:square;stroke-width:0.8;"/>
     </g>
     <g id="line2d_90">
      <g>
       <use style="stroke:#000000;stroke-width:0.8;" x="59.72" xlink:href="#mcf8c8c40d8" y="178.632565"/>
      </g>
     </g>
     <g id="text_6">
      <!-- 0.4 -->
      <defs>
       <path d="M 37.796875 64.3125 
L 12.890625 25.390625 
L 37.796875 25.390625 
z
M 35.203125 72.90625 
L 47.609375 72.90625 
L 47.609375 25.390625 
L 58.015625 25.390625 
L 58.015625 17.1875 
L 47.609375 17.1875 
L 47.609375 0 
L 37.796875 0 
L 37.796875 17.1875 
L 4.890625 17.1875 
L 4.890625 26.703125 
z
" id="DejaVuSans-34"/>
      </defs>
      <g transform="translate(27.275 184.711315)scale(0.16 -0.16)">
       <use xlink:href="#DejaVuSans-30"/>
       <use x="63.623047" xlink:href="#DejaVuSans-2e"/>
       <use x="95.410156" xlink:href="#DejaVuSans-34"/>
      </g>
     </g>
    </g>
    <g id="ytick_4">
     <g id="line2d_91">
      <path clip-path="url(#p16a1b67a48)" d="M 59.72 122.308848 
L 450.672 122.308848 
" style="fill:none;stroke:#b0b0b0;stroke-linecap:square;stroke-width:0.8;"/>
     </g>
     <g id="line2d_92">
      <g>
       <use style="stroke:#000000;stroke-width:0.8;" x="59.72" xlink:href="#mcf8c8c40d8" y="122.308848"/>
      </g>
     </g>
     <g id="text_7">
      <!-- 0.6 -->
      <defs>
       <path d="M 33.015625 40.375 
Q 26.375 40.375 22.484375 35.828125 
Q 18.609375 31.296875 18.609375 23.390625 
Q 18.609375 15.53125 22.484375 10.953125 
Q 26.375 6.390625 33.015625 6.390625 
Q 39.65625 6.390625 43.53125 10.953125 
Q 47.40625 15.53125 47.40625 23.390625 
Q 47.40625 31.296875 43.53125 35.828125 
Q 39.65625 40.375 33.015625 40.375 
z
M 52.59375 71.296875 
L 52.59375 62.3125 
Q 48.875 64.0625 45.09375 64.984375 
Q 41.3125 65.921875 37.59375 65.921875 
Q 27.828125 65.921875 22.671875 59.328125 
Q 17.53125 52.734375 16.796875 39.40625 
Q 19.671875 43.65625 24.015625 45.921875 
Q 28.375 48.1875 33.59375 48.1875 
Q 44.578125 48.1875 50.953125 41.515625 
Q 57.328125 34.859375 57.328125 23.390625 
Q 57.328125 12.15625 50.6875 5.359375 
Q 44.046875 -1.421875 33.015625 -1.421875 
Q 20.359375 -1.421875 13.671875 8.265625 
Q 6.984375 17.96875 6.984375 36.375 
Q 6.984375 53.65625 15.1875 63.9375 
Q 23.390625 74.21875 37.203125 74.21875 
Q 40.921875 74.21875 44.703125 73.484375 
Q 48.484375 72.75 52.59375 71.296875 
z
" id="DejaVuSans-36"/>
      </defs>
      <g transform="translate(27.275 128.387598)scale(0.16 -0.16)">
       <use xlink:href="#DejaVuSans-30"/>
       <use x="63.623047" xlink:href="#DejaVuSans-2e"/>
       <use x="95.410156" xlink:href="#DejaVuSans-36"/>
      </g>
     </g>
    </g>
    <g id="ytick_5">
     <g id="line2d_93">
      <path clip-path="url(#p16a1b67a48)" d="M 59.72 65.985131 
L 450.672 65.985131 
" style="fill:none;stroke:#b0b0b0;stroke-linecap:square;stroke-width:0.8;"/>
     </g>
     <g id="line2d_94">
      <g>
       <use style="stroke:#000000;stroke-width:0.8;" x="59.72" xlink:href="#mcf8c8c40d8" y="65.985131"/>
      </g>
     </g>
     <g id="text_8">
      <!-- 0.8 -->
      <defs>
       <path d="M 31.78125 34.625 
Q 24.75 34.625 20.71875 30.859375 
Q 16.703125 27.09375 16.703125 20.515625 
Q 16.703125 13.921875 20.71875 10.15625 
Q 24.75 6.390625 31.78125 6.390625 
Q 38.8125 6.390625 42.859375 10.171875 
Q 46.921875 13.96875 46.921875 20.515625 
Q 46.921875 27.09375 42.890625 30.859375 
Q 38.875 34.625 31.78125 34.625 
z
M 21.921875 38.8125 
Q 15.578125 40.375 12.03125 44.71875 
Q 8.5 49.078125 8.5 55.328125 
Q 8.5 64.0625 14.71875 69.140625 
Q 20.953125 74.21875 31.78125 74.21875 
Q 42.671875 74.21875 48.875 69.140625 
Q 55.078125 64.0625 55.078125 55.328125 
Q 55.078125 49.078125 51.53125 44.71875 
Q 48 40.375 41.703125 38.8125 
Q 48.828125 37.15625 52.796875 32.3125 
Q 56.78125 27.484375 56.78125 20.515625 
Q 56.78125 9.90625 50.3125 4.234375 
Q 43.84375 -1.421875 31.78125 -1.421875 
Q 19.734375 -1.421875 13.25 4.234375 
Q 6.78125 9.90625 6.78125 20.515625 
Q 6.78125 27.484375 10.78125 32.3125 
Q 14.796875 37.15625 21.921875 38.8125 
z
M 18.3125 54.390625 
Q 18.3125 48.734375 21.84375 45.5625 
Q 25.390625 42.390625 31.78125 42.390625 
Q 38.140625 42.390625 41.71875 45.5625 
Q 45.3125 48.734375 45.3125 54.390625 
Q 45.3125 60.0625 41.71875 63.234375 
Q 38.140625 66.40625 31.78125 66.40625 
Q 25.390625 66.40625 21.84375 63.234375 
Q 18.3125 60.0625 18.3125 54.390625 
z
" id="DejaVuSans-38"/>
      </defs>
      <g transform="translate(27.275 72.063881)scale(0.16 -0.16)">
       <use xlink:href="#DejaVuSans-30"/>
       <use x="63.623047" xlink:href="#DejaVuSans-2e"/>
       <use x="95.410156" xlink:href="#DejaVuSans-38"/>
      </g>
     </g>
    </g>
    <g id="ytick_6">
     <g id="line2d_95">
      <path clip-path="url(#p16a1b67a48)" d="M 59.72 9.661414 
L 450.672 9.661414 
" style="fill:none;stroke:#b0b0b0;stroke-linecap:square;stroke-width:0.8;"/>
     </g>
     <g id="line2d_96">
      <g>
       <use style="stroke:#000000;stroke-width:0.8;" x="59.72" xlink:href="#mcf8c8c40d8" y="9.661414"/>
      </g>
     </g>
     <g id="text_9">
      <!-- 1.0 -->
      <g transform="translate(27.275 15.740164)scale(0.16 -0.16)">
       <use xlink:href="#DejaVuSans-31"/>
       <use x="63.623047" xlink:href="#DejaVuSans-2e"/>
       <use x="95.410156" xlink:href="#DejaVuSans-30"/>
      </g>
     </g>
    </g>
    <g id="text_10">
     <!-- proportion of trials -->
     <defs>
      <path d="M 18.109375 8.203125 
L 18.109375 -20.796875 
L 9.078125 -20.796875 
L 9.078125 54.6875 
L 18.109375 54.6875 
L 18.109375 46.390625 
Q 20.953125 51.265625 25.265625 53.625 
Q 29.59375 56 35.59375 56 
Q 45.5625 56 51.78125 48.09375 
Q 58.015625 40.1875 58.015625 27.296875 
Q 58.015625 14.40625 51.78125 6.484375 
Q 45.5625 -1.421875 35.59375 -1.421875 
Q 29.59375 -1.421875 25.265625 0.953125 
Q 20.953125 3.328125 18.109375 8.203125 
z
M 48.6875 27.296875 
Q 48.6875 37.203125 44.609375 42.84375 
Q 40.53125 48.484375 33.40625 48.484375 
Q 26.265625 48.484375 22.1875 42.84375 
Q 18.109375 37.203125 18.109375 27.296875 
Q 18.109375 17.390625 22.1875 11.75 
Q 26.265625 6.109375 33.40625 6.109375 
Q 40.53125 6.109375 44.609375 11.75 
Q 48.6875 17.390625 48.6875 27.296875 
z
" id="DejaVuSans-70"/>
      <path d="M 41.109375 46.296875 
Q 39.59375 47.171875 37.8125 47.578125 
Q 36.03125 48 33.890625 48 
Q 26.265625 48 22.1875 43.046875 
Q 18.109375 38.09375 18.109375 28.8125 
L 18.109375 0 
L 9.078125 0 
L 9.078125 54.6875 
L 18.109375 54.6875 
L 18.109375 46.1875 
Q 20.953125 51.171875 25.484375 53.578125 
Q 30.03125 56 36.53125 56 
Q 37.453125 56 38.578125 55.875 
Q 39.703125 55.765625 41.0625 55.515625 
z
" id="DejaVuSans-72"/>
      <path d="M 18.3125 70.21875 
L 18.3125 54.6875 
L 36.8125 54.6875 
L 36.8125 47.703125 
L 18.3125 47.703125 
L 18.3125 18.015625 
Q 18.3125 11.328125 20.140625 9.421875 
Q 21.96875 7.515625 27.59375 7.515625 
L 36.8125 7.515625 
L 36.8125 0 
L 27.59375 0 
Q 17.1875 0 13.234375 3.875 
Q 9.28125 7.765625 9.28125 18.015625 
L 9.28125 47.703125 
L 2.6875 47.703125 
L 2.6875 54.6875 
L 9.28125 54.6875 
L 9.28125 70.21875 
z
" id="DejaVuSans-74"/>
      <path d="M 9.421875 54.6875 
L 18.40625 54.6875 
L 18.40625 0 
L 9.421875 0 
z
M 9.421875 75.984375 
L 18.40625 75.984375 
L 18.40625 64.59375 
L 9.421875 64.59375 
z
" id="DejaVuSans-69"/>
      <path d="M 54.890625 33.015625 
L 54.890625 0 
L 45.90625 0 
L 45.90625 32.71875 
Q 45.90625 40.484375 42.875 44.328125 
Q 39.84375 48.1875 33.796875 48.1875 
Q 26.515625 48.1875 22.3125 43.546875 
Q 18.109375 38.921875 18.109375 30.90625 
L 18.109375 0 
L 9.078125 0 
L 9.078125 54.6875 
L 18.109375 54.6875 
L 18.109375 46.1875 
Q 21.34375 51.125 25.703125 53.5625 
Q 30.078125 56 35.796875 56 
Q 45.21875 56 50.046875 50.171875 
Q 54.890625 44.34375 54.890625 33.015625 
z
" id="DejaVuSans-6e"/>
     </defs>
     <g transform="translate(19.115625 242.290739)rotate(-90)scale(0.2 -0.2)">
      <use xlink:href="#DejaVuSans-70"/>
      <use x="63.476562" xlink:href="#DejaVuSans-72"/>
      <use x="104.558594" xlink:href="#DejaVuSans-6f"/>
      <use x="165.740234" xlink:href="#DejaVuSans-70"/>
      <use x="229.216797" xlink:href="#DejaVuSans-6f"/>
      <use x="290.398438" xlink:href="#DejaVuSans-72"/>
      <use x="331.511719" xlink:href="#DejaVuSans-74"/>
      <use x="370.720703" xlink:href="#DejaVuSans-69"/>
      <use x="398.503906" xlink:href="#DejaVuSans-6f"/>
      <use x="459.685547" xlink:href="#DejaVuSans-6e"/>
      <use x="523.064453" xlink:href="#DejaVuSans-20"/>
      <use x="554.851562" xlink:href="#DejaVuSans-6f"/>
      <use x="616.033203" xlink:href="#DejaVuSans-66"/>
      <use x="651.238281" xlink:href="#DejaVuSans-20"/>
      <use x="683.025391" xlink:href="#DejaVuSans-74"/>
      <use x="722.234375" xlink:href="#DejaVuSans-72"/>
      <use x="763.347656" xlink:href="#DejaVuSans-69"/>
      <use x="791.130859" xlink:href="#DejaVuSans-61"/>
      <use x="852.410156" xlink:href="#DejaVuSans-6c"/>
      <use x="880.193359" xlink:href="#DejaVuSans-73"/>
     </g>
    </g>
   </g>
   <g id="line2d_97">
    <path clip-path="url(#p16a1b67a48)" d="M 196.727595 291.28 
L 196.727595 286.586357 
L 249.717906 286.586357 
L 249.717906 281.892714 
L 259.631256 281.892714 
L 259.631256 277.199071 
L 273.349478 277.199071 
L 273.349478 272.505428 
L 275.702578 272.505428 
L 275.702578 267.811784 
L 290.861865 267.811784 
L 290.861865 263.118141 
L 291.654756 263.118141 
L 291.654756 258.424498 
L 296.581203 258.424498 
L 296.581203 253.730855 
L 307.074401 253.730855 
L 307.074401 249.037212 
L 308.793618 249.037212 
L 308.793618 244.343569 
L 318.918166 244.343569 
L 318.918166 239.649926 
L 319.64027 239.649926 
L 319.64027 234.956283 
L 339.191817 234.956283 
L 339.191817 230.26264 
L 342.051092 230.26264 
L 342.051092 225.568997 
L 353.013655 225.568997 
L 353.013655 220.875353 
L 354.158184 220.875353 
L 354.158184 216.18171 
L 355.375391 216.18171 
L 355.375391 211.488067 
L 359.075165 211.488067 
L 359.075165 206.794424 
L 369.64636 206.794424 
L 369.64636 202.100781 
L 370.790873 202.100781 
L 370.790873 197.407138 
L 372.028119 197.407138 
L 372.028119 192.713495 
L 372.751775 192.713495 
L 372.751775 188.019852 
L 374.930209 188.019852 
L 374.930209 183.326209 
L 376.159564 183.326209 
L 376.159564 178.632565 
L 379.334883 178.632565 
L 379.334883 173.938922 
L 381.900288 173.938922 
L 381.900288 169.245279 
L 384.54671 169.245279 
L 384.54671 164.551636 
L 385.332909 164.551636 
L 385.332909 159.857993 
L 387.098518 159.857993 
L 387.098518 155.16435 
L 389.362051 155.16435 
L 389.362051 150.470707 
L 389.546252 150.470707 
L 389.546252 145.777064 
L 392.706552 145.777064 
L 392.706552 141.083421 
L 395.011771 141.083421 
L 395.011771 136.389777 
L 395.236704 136.389777 
L 395.236704 131.696134 
L 397.289899 131.696134 
L 397.289899 127.002491 
L 398.017914 127.002491 
L 398.017914 122.308848 
L 401.245289 122.308848 
L 401.245289 117.615205 
L 405.875395 117.615205 
L 405.875395 112.921562 
L 406.166496 112.921562 
L 406.166496 108.227919 
L 406.648027 108.227919 
L 406.648027 103.534276 
L 413.345126 103.534276 
L 413.345126 98.840633 
L 415.507617 98.840633 
L 415.507617 94.14699 
L 415.698854 94.14699 
L 415.698854 89.453346 
L 415.76913 89.453346 
L 415.76913 84.759703 
L 416.939544 84.759703 
L 416.939544 80.06606 
L 417.747111 80.06606 
L 417.747111 75.372417 
L 420.44557 75.372417 
L 420.44557 70.678774 
L 422.210191 70.678774 
L 422.210191 65.985131 
L 430.639222 65.985131 
L 430.639222 61.291488 
L 432.980998 61.291488 
L 432.980998 56.597845 
L 433.181539 56.597845 
L 433.181539 51.904202 
L 436.963221 51.904202 
L 436.963221 47.210558 
L 437.518046 47.210558 
L 437.518046 42.516915 
L 438.898632 42.516915 
L 438.898632 37.823272 
L 449.044608 37.823272 
L 449.044608 33.129629 
L 449.447202 33.129629 
L 449.447202 28.435986 
L 449.447202 28.435986 
L 449.447202 28.435986 
L 450.672 28.435986 
" style="fill:none;stroke:#000000;stroke-linecap:square;stroke-width:1.5;"/>
   </g>
   <g id="line2d_98">
    <path clip-path="url(#p16a1b67a48)" style="fill:none;stroke:#000000;stroke-linecap:square;stroke-width:1.5;"/>
   </g>
   <g id="line2d_99"/>
   <g id="line2d_100"/>
   <g id="line2d_101"/>
   <g id="line2d_102">
    <path clip-path="url(#p16a1b67a48)" d="M 450.672 291.28 
L 450.672 6.845228 
" style="fill:none;stroke:#000000;stroke-linecap:square;stroke-width:1.5;"/>
   </g>
   <g id="patch_3">
    <path d="M 59.72 291.28 
L 59.72 6.845228 
" style="fill:none;stroke:#000000;stroke-linecap:square;stroke-linejoin:miter;stroke-width:0.8;"/>
   </g>
   <g id="patch_4">
    <path d="M 450.672 291.28 
L 450.672 6.845228 
" style="fill:none;stroke:#000000;stroke-linecap:square;stroke-linejoin:miter;stroke-width:0.8;"/>
   </g>
   <g id="patch_5">
    <path d="M 59.72 291.28 
L 450.672 291.28 
" style="fill:none;stroke:#000000;stroke-linecap:square;stroke-linejoin:miter;stroke-width:0.8;"/>
   </g>
   <g id="patch_6">
    <path d="M 59.72 6.845228 
L 450.672 6.845228 
" style="fill:none;stroke:#000000;stroke-linecap:square;stroke-linejoin:miter;stroke-width:0.8;"/>
   </g>
   <g id="text_11">
    <!-- {f6-f9}, 5-D -->
    <defs>
     <path d="M 51.125 -9.28125 
L 51.125 -16.3125 
L 48.09375 -16.3125 
Q 35.9375 -16.3125 31.8125 -12.6875 
Q 27.6875 -9.078125 27.6875 1.703125 
L 27.6875 13.375 
Q 27.6875 20.75 25.046875 23.578125 
Q 22.40625 26.421875 15.484375 26.421875 
L 12.5 26.421875 
L 12.5 33.40625 
L 15.484375 33.40625 
Q 22.46875 33.40625 25.078125 36.203125 
Q 27.6875 39.015625 27.6875 46.296875 
L 27.6875 58.015625 
Q 27.6875 68.796875 31.8125 72.390625 
Q 35.9375 75.984375 48.09375 75.984375 
L 51.125 75.984375 
L 51.125 69 
L 47.796875 69 
Q 40.921875 69 38.8125 66.84375 
Q 36.71875 64.703125 36.71875 57.8125 
L 36.71875 45.703125 
Q 36.71875 38.03125 34.5 34.5625 
Q 32.28125 31.109375 26.90625 29.890625 
Q 32.328125 28.5625 34.515625 25.09375 
Q 36.71875 21.625 36.71875 14.015625 
L 36.71875 1.90625 
Q 36.71875 -4.984375 38.8125 -7.125 
Q 40.921875 -9.28125 47.796875 -9.28125 
z
" id="DejaVuSans-7b"/>
     <path d="M 4.890625 31.390625 
L 31.203125 31.390625 
L 31.203125 23.390625 
L 4.890625 23.390625 
z
" id="DejaVuSans-2d"/>
     <path d="M 10.984375 1.515625 
L 10.984375 10.5 
Q 14.703125 8.734375 18.5 7.8125 
Q 22.3125 6.890625 25.984375 6.890625 
Q 35.75 6.890625 40.890625 13.453125 
Q 46.046875 20.015625 46.78125 33.40625 
Q 43.953125 29.203125 39.59375 26.953125 
Q 35.25 24.703125 29.984375 24.703125 
Q 19.046875 24.703125 12.671875 31.3125 
Q 6.296875 37.9375 6.296875 49.421875 
Q 6.296875 60.640625 12.9375 67.421875 
Q 19.578125 74.21875 30.609375 74.21875 
Q 43.265625 74.21875 49.921875 64.515625 
Q 56.59375 54.828125 56.59375 36.375 
Q 56.59375 19.140625 48.40625 8.859375 
Q 40.234375 -1.421875 26.421875 -1.421875 
Q 22.703125 -1.421875 18.890625 -0.6875 
Q 15.09375 0.046875 10.984375 1.515625 
z
M 30.609375 32.421875 
Q 37.25 32.421875 41.125 36.953125 
Q 45.015625 41.5 45.015625 49.421875 
Q 45.015625 57.28125 41.125 61.84375 
Q 37.25 66.40625 30.609375 66.40625 
Q 23.96875 66.40625 20.09375 61.84375 
Q 16.21875 57.28125 16.21875 49.421875 
Q 16.21875 41.5 20.09375 36.953125 
Q 23.96875 32.421875 30.609375 32.421875 
z
" id="DejaVuSans-39"/>
     <path d="M 12.5 -9.28125 
L 15.921875 -9.28125 
Q 22.75 -9.28125 24.828125 -7.171875 
Q 26.90625 -5.078125 26.90625 1.90625 
L 26.90625 14.015625 
Q 26.90625 21.625 29.09375 25.09375 
Q 31.296875 28.5625 36.71875 29.890625 
Q 31.296875 31.109375 29.09375 34.5625 
Q 26.90625 38.03125 26.90625 45.703125 
L 26.90625 57.8125 
Q 26.90625 64.75 24.828125 66.875 
Q 22.75 69 15.921875 69 
L 12.5 69 
L 12.5 75.984375 
L 15.578125 75.984375 
Q 27.734375 75.984375 31.8125 72.390625 
Q 35.890625 68.796875 35.890625 58.015625 
L 35.890625 46.296875 
Q 35.890625 39.015625 38.515625 36.203125 
Q 41.15625 33.40625 48.09375 33.40625 
L 51.125 33.40625 
L 51.125 26.421875 
L 48.09375 26.421875 
Q 41.15625 26.421875 38.515625 23.578125 
Q 35.890625 20.75 35.890625 13.375 
L 35.890625 1.703125 
Q 35.890625 -9.078125 31.8125 -12.6875 
Q 27.734375 -16.3125 15.578125 -16.3125 
L 12.5 -16.3125 
z
" id="DejaVuSans-7d"/>
     <path d="M 11.71875 12.40625 
L 22.015625 12.40625 
L 22.015625 4 
L 14.015625 -11.625 
L 7.71875 -11.625 
L 11.71875 4 
z
" id="DejaVuSans-2c"/>
     <path d="M 10.796875 72.90625 
L 49.515625 72.90625 
L 49.515625 64.59375 
L 19.828125 64.59375 
L 19.828125 46.734375 
Q 21.96875 47.46875 24.109375 47.828125 
Q 26.265625 48.1875 28.421875 48.1875 
Q 40.625 48.1875 47.75 41.5 
Q 54.890625 34.8125 54.890625 23.390625 
Q 54.890625 11.625 47.5625 5.09375 
Q 40.234375 -1.421875 26.90625 -1.421875 
Q 22.3125 -1.421875 17.546875 -0.640625 
Q 12.796875 0.140625 7.71875 1.703125 
L 7.71875 11.625 
Q 12.109375 9.234375 16.796875 8.0625 
Q 21.484375 6.890625 26.703125 6.890625 
Q 35.15625 6.890625 40.078125 11.328125 
Q 45.015625 15.765625 45.015625 23.390625 
Q 45.015625 31 40.078125 35.4375 
Q 35.15625 39.890625 26.703125 39.890625 
Q 22.75 39.890625 18.8125 39.015625 
Q 14.890625 38.140625 10.796875 36.28125 
z
" id="DejaVuSans-35"/>
    </defs>
    <g transform="translate(195.071 27.730798)scale(0.2 -0.2)">
     <use xlink:href="#DejaVuSans-7b"/>
     <use x="63.623047" xlink:href="#DejaVuSans-66"/>
     <use x="98.828125" xlink:href="#DejaVuSans-36"/>
     <use x="162.451172" xlink:href="#DejaVuSans-2d"/>
     <use x="198.535156" xlink:href="#DejaVuSans-66"/>
     <use x="233.740234" xlink:href="#DejaVuSans-39"/>
     <use x="297.363281" xlink:href="#DejaVuSans-7d"/>
     <use x="360.986328" xlink:href="#DejaVuSans-2c"/>
     <use x="392.773438" xlink:href="#DejaVuSans-20"/>
     <use x="424.560547" xlink:href="#DejaVuSans-35"/>
     <use x="488.183594" xlink:href="#DejaVuSans-2d"/>
     <use x="524.267578" xlink:href="#DejaVuSans-44"/>
    </g>
   </g>
   <g id="text_12">
    <!-- absolute targets -->
    <defs>
     <path d="M 48.6875 27.296875 
Q 48.6875 37.203125 44.609375 42.84375 
Q 40.53125 48.484375 33.40625 48.484375 
Q 26.265625 48.484375 22.1875 42.84375 
Q 18.109375 37.203125 18.109375 27.296875 
Q 18.109375 17.390625 22.1875 11.75 
Q 26.265625 6.109375 33.40625 6.109375 
Q 40.53125 6.109375 44.609375 11.75 
Q 48.6875 17.390625 48.6875 27.296875 
z
M 18.109375 46.390625 
Q 20.953125 51.265625 25.265625 53.625 
Q 29.59375 56 35.59375 56 
Q 45.5625 56 51.78125 48.09375 
Q 58.015625 40.1875 58.015625 27.296875 
Q 58.015625 14.40625 51.78125 6.484375 
Q 45.5625 -1.421875 35.59375 -1.421875 
Q 29.59375 -1.421875 25.265625 0.953125 
Q 20.953125 3.328125 18.109375 8.203125 
L 18.109375 0 
L 9.078125 0 
L 9.078125 75.984375 
L 18.109375 75.984375 
z
" id="DejaVuSans-62"/>
     <path d="M 8.5 21.578125 
L 8.5 54.6875 
L 17.484375 54.6875 
L 17.484375 21.921875 
Q 17.484375 14.15625 20.5 10.265625 
Q 23.53125 6.390625 29.59375 6.390625 
Q 36.859375 6.390625 41.078125 11.03125 
Q 45.3125 15.671875 45.3125 23.6875 
L 45.3125 54.6875 
L 54.296875 54.6875 
L 54.296875 0 
L 45.3125 0 
L 45.3125 8.40625 
Q 42.046875 3.421875 37.71875 1 
Q 33.40625 -1.421875 27.6875 -1.421875 
Q 18.265625 -1.421875 13.375 4.4375 
Q 8.5 10.296875 8.5 21.578125 
z
M 31.109375 56 
z
" id="DejaVuSans-75"/>
     <path d="M 56.203125 29.59375 
L 56.203125 25.203125 
L 14.890625 25.203125 
Q 15.484375 15.921875 20.484375 11.0625 
Q 25.484375 6.203125 34.421875 6.203125 
Q 39.59375 6.203125 44.453125 7.46875 
Q 49.3125 8.734375 54.109375 11.28125 
L 54.109375 2.78125 
Q 49.265625 0.734375 44.1875 -0.34375 
Q 39.109375 -1.421875 33.890625 -1.421875 
Q 20.796875 -1.421875 13.15625 6.1875 
Q 5.515625 13.8125 5.515625 26.8125 
Q 5.515625 40.234375 12.765625 48.109375 
Q 20.015625 56 32.328125 56 
Q 43.359375 56 49.78125 48.890625 
Q 56.203125 41.796875 56.203125 29.59375 
z
M 47.21875 32.234375 
Q 47.125 39.59375 43.09375 43.984375 
Q 39.0625 48.390625 32.421875 48.390625 
Q 24.90625 48.390625 20.390625 44.140625 
Q 15.875 39.890625 15.1875 32.171875 
z
" id="DejaVuSans-65"/>
    </defs>
    <g transform="translate(59.72 601.060445)scale(0.14 -0.14)">
     <use xlink:href="#DejaVuSans-61"/>
     <use x="61.279297" xlink:href="#DejaVuSans-62"/>
     <use x="124.755859" xlink:href="#DejaVuSans-73"/>
     <use x="176.855469" xlink:href="#DejaVuSans-6f"/>
     <use x="238.037109" xlink:href="#DejaVuSans-6c"/>
     <use x="265.820312" xlink:href="#DejaVuSans-75"/>
     <use x="329.199219" xlink:href="#DejaVuSans-74"/>
     <use x="368.408203" xlink:href="#DejaVuSans-65"/>
     <use x="429.931641" xlink:href="#DejaVuSans-20"/>
     <use x="461.71875" xlink:href="#DejaVuSans-74"/>
     <use x="500.927734" xlink:href="#DejaVuSans-61"/>
     <use x="562.207031" xlink:href="#DejaVuSans-72"/>
     <use x="603.304688" xlink:href="#DejaVuSans-67"/>
     <use x="666.78125" xlink:href="#DejaVuSans-65"/>
     <use x="728.304688" xlink:href="#DejaVuSans-74"/>
     <use x="767.513672" xlink:href="#DejaVuSans-73"/>
    </g>
   </g>
   <g id="text_13">
    <!-- v0.0.0 -->
    <g style="fill:#808080;" transform="translate(239.51475 286.355965)scale(0.1 -0.1)">
     <use xlink:href="#DejaVuSans-76"/>
     <use x="59.179688" xlink:href="#DejaVuSans-30"/>
     <use x="122.802734" xlink:href="#DejaVuSans-2e"/>
     <use x="154.589844" xlink:href="#DejaVuSans-30"/>
     <use x="218.212891" xlink:href="#DejaVuSans-2e"/>
     <use x="250" xlink:href="#DejaVuSans-30"/>
    </g>
   </g>
   <g id="legend_1">
    <g id="patch_7">
     <path d="M 73.72 140.270228 
L 202.941875 140.270228 
Q 206.941875 140.270228 206.941875 136.270228 
L 206.941875 20.845228 
Q 206.941875 16.845228 202.941875 16.845228 
L 73.72 16.845228 
Q 69.72 16.845228 69.72 20.845228 
L 69.72 136.270228 
Q 69.72 140.270228 73.72 140.270228 
z
" style="fill:#ffffff;opacity:0.2;stroke:#cccccc;stroke-linejoin:miter;"/>
    </g>
    <g id="line2d_103">
     <path d="M 77.72 33.042103 
L 117.72 33.042103 
" style="fill:none;stroke:#000000;stroke-linecap:square;stroke-width:1.5;"/>
    </g>
    <g id="line2d_104"/>
    <g id="text_14">
     <!-- 1: 4/4 -->
     <defs>
      <path d="M 11.71875 12.40625 
L 22.015625 12.40625 
L 22.015625 0 
L 11.71875 0 
z
M 11.71875 51.703125 
L 22.015625 51.703125 
L 22.015625 39.3125 
L 11.71875 39.3125 
z
" id="DejaVuSans-3a"/>
     </defs>
     <g transform="translate(133.72 40.042103)scale(0.2 -0.2)">
      <use xlink:href="#DejaVuSans-31"/>
      <use x="63.623047" xlink:href="#DejaVuSans-3a"/>
      <use x="97.314453" xlink:href="#DejaVuSans-20"/>
      <use x="129.101562" xlink:href="#DejaVuSans-34"/>
      <use x="192.724609" xlink:href="#DejaVuSans-2f"/>
      <use x="226.416016" xlink:href="#DejaVuSans-34"/>
     </g>
    </g>
    <g id="line2d_105">
     <path d="M 77.72 62.398353 
L 117.72 62.398353 
" style="fill:none;stroke:#00bfbf;stroke-linecap:square;stroke-width:1.5;"/>
    </g>
    <g id="line2d_106"/>
    <g id="text_15">
     <!-- -1: 0/4 -->
     <g transform="translate(133.72 69.398353)scale(0.2 -0.2)">
      <use xlink:href="#DejaVuSans-2d"/>
      <use x="36.083984" xlink:href="#DejaVuSans-31"/>
      <use x="99.707031" xlink:href="#DejaVuSans-3a"/>
      <use x="133.398438" xlink:href="#DejaVuSans-20"/>
      <use x="165.185547" xlink:href="#DejaVuSans-30"/>
      <use x="228.808594" xlink:href="#DejaVuSans-2f"/>
      <use x="262.5" xlink:href="#DejaVuSans-34"/>
     </g>
    </g>
    <g id="line2d_107">
     <path d="M 77.72 91.754603 
L 117.72 91.754603 
" style="fill:none;stroke:#bf00bf;stroke-linecap:square;stroke-width:1.5;"/>
    </g>
    <g id="line2d_108"/>
    <g id="text_16">
     <!-- -4: 0/4 -->
     <g transform="translate(133.72 98.754603)scale(0.2 -0.2)">
      <use xlink:href="#DejaVuSans-2d"/>
      <use x="36.083984" xlink:href="#DejaVuSans-34"/>
      <use x="99.707031" xlink:href="#DejaVuSans-3a"/>
      <use x="133.398438" xlink:href="#DejaVuSans-20"/>
      <use x="165.185547" xlink:href="#DejaVuSans-30"/>
      <use x="228.808594" xlink:href="#DejaVuSans-2f"/>
      <use x="262.5" xlink:href="#DejaVuSans-34"/>
     </g>
    </g>
    <g id="line2d_109">
     <path d="M 77.72 121.110853 
L 117.72 121.110853 
" style="fill:none;stroke:#ff0000;stroke-linecap:square;stroke-width:3;"/>
    </g>
    <g id="line2d_110"/>
    <g id="text_17">
     <!-- -8: 0/4 -->
     <g transform="translate(133.72 128.110853)scale(0.2 -0.2)">
      <use xlink:href="#DejaVuSans-2d"/>
      <use x="36.083984" xlink:href="#DejaVuSans-38"/>
      <use x="99.707031" xlink:href="#DejaVuSans-3a"/>
      <use x="133.398438" xlink:href="#DejaVuSans-20"/>
      <use x="165.185547" xlink:href="#DejaVuSans-30"/>
      <use x="228.808594" xlink:href="#DejaVuSans-2f"/>
      <use x="262.5" xlink:href="#DejaVuSans-34"/>
     </g>
    </g>
   </g>
  </g>
 </g>
 <defs>
  <clipPath id="p16a1b67a48">
   <rect height="284.434772" width="390.952" x="59.72" y="6.845228"/>
  </clipPath>
 </defs>
</svg>
