<?xml version="1.0" encoding="utf-8" standalone="no"?>
<!DOCTYPE svg PUBLIC "-//W3C//DTD SVG 1.1//EN"
  "http://www.w3.org/Graphics/SVG/1.1/DTD/svg11.dtd">
<!-- Created with matplotlib (http://matplotlib.org/) -->
<svg height="345.6pt" version="1.1" viewBox="0 0 460.8 345.6" width="460.8pt" xmlns="http://www.w3.org/2000/svg" xmlns:xlink="http://www.w3.org/1999/xlink">
 <defs>
  <style type="text/css">
*{stroke-linecap:butt;stroke-linejoin:round;}
  </style>
 </defs>
 <g id="figure_1">
  <g id="patch_1">
   <path d="M 0 345.6 
L 460.8 345.6 
L 460.8 0 
L 0 0 
z
" style="fill:#ffffff;"/>
  </g>
  <g id="axes_1">
   <g id="patch_2">
    <path d="M 5.52 291.28 
L 450.672 291.28 
L 450.672 5.52 
L 5.52 5.52 
z
" style="fill:#ffffff;"/>
   </g>
   <g id="matplotlib.axis_1">
    <g id="xtick_1">
     <g id="line2d_1">
      <path clip-path="url(#pebf85d8b8c)" d="M 5.410531 291.28 
L 5.410531 5.52 
" style="fill:none;stroke:#b0b0b0;stroke-linecap:square;stroke-width:0.8;"/>
     </g>
     <g id="line2d_2">
      <defs>
       <path d="M 0 0 
L 0 3.5 
" id="mfe98618e3e" style="stroke:#000000;stroke-width:0.8;"/>
      </defs>
      <g>
       <use style="stroke:#000000;stroke-width:0.8;" x="5.410531" xlink:href="#mfe98618e3e" y="291.28"/>
      </g>
     </g>
    </g>
    <g id="xtick_2">
     <g id="line2d_3">
      <path clip-path="url(#pebf85d8b8c)" d="M 106.738664 291.28 
L 106.738664 5.52 
" style="fill:none;stroke:#b0b0b0;stroke-linecap:square;stroke-width:0.8;"/>
     </g>
     <g id="line2d_4">
      <g>
       <use style="stroke:#000000;stroke-width:0.8;" x="106.738664" xlink:href="#mfe98618e3e" y="291.28"/>
      </g>
     </g>
     <g id="text_1">
      <!-- -4 -->
      <defs>
       <path d="M 4.890625 31.390625 
L 31.203125 31.390625 
L 31.203125 23.390625 
L 4.890625 23.390625 
z
" id="DejaVuSans-2d"/>
       <path d="M 37.796875 64.3125 
L 12.890625 25.390625 
L 37.796875 25.390625 
z
M 35.203125 72.90625 
L 47.609375 72.90625 
L 47.609375 25.390625 
L 58.015625 25.390625 
L 58.015625 17.1875 
L 47.609375 17.1875 
L 47.609375 0 
L 37.796875 0 
L 37.796875 17.1875 
L 4.890625 17.1875 
L 4.890625 26.703125 
z
" id="DejaVuSans-34"/>
      </defs>
      <g transform="translate(96.768351 313.476875)scale(0.2 -0.2)">
       <use xlink:href="#DejaVuSans-2d"/>
       <use x="36.083984" xlink:href="#DejaVuSans-34"/>
      </g>
     </g>
    </g>
    <g id="xtick_3">
     <g id="line2d_5">
      <path clip-path="url(#pebf85d8b8c)" d="M 208.066797 291.28 
L 208.066797 5.52 
" style="fill:none;stroke:#b0b0b0;stroke-linecap:square;stroke-width:0.8;"/>
     </g>
     <g id="line2d_6">
      <g>
       <use style="stroke:#000000;stroke-width:0.8;" x="208.066797" xlink:href="#mfe98618e3e" y="291.28"/>
      </g>
     </g>
     <g id="text_2">
      <!-- 0 -->
      <defs>
       <path d="M 31.78125 66.40625 
Q 24.171875 66.40625 20.328125 58.90625 
Q 16.5 51.421875 16.5 36.375 
Q 16.5 21.390625 20.328125 13.890625 
Q 24.171875 6.390625 31.78125 6.390625 
Q 39.453125 6.390625 43.28125 13.890625 
Q 47.125 21.390625 47.125 36.375 
Q 47.125 51.421875 43.28125 58.90625 
Q 39.453125 66.40625 31.78125 66.40625 
z
M 31.78125 74.21875 
Q 44.046875 74.21875 50.515625 64.515625 
Q 56.984375 54.828125 56.984375 36.375 
Q 56.984375 17.96875 50.515625 8.265625 
Q 44.046875 -1.421875 31.78125 -1.421875 
Q 19.53125 -1.421875 13.0625 8.265625 
Q 6.59375 17.96875 6.59375 36.375 
Q 6.59375 54.828125 13.0625 64.515625 
Q 19.53125 74.21875 31.78125 74.21875 
z
" id="DejaVuSans-30"/>
      </defs>
      <g transform="translate(201.704297 313.476875)scale(0.2 -0.2)">
       <use xlink:href="#DejaVuSans-30"/>
      </g>
     </g>
    </g>
    <g id="xtick_4">
     <g id="line2d_7">
      <path clip-path="url(#pebf85d8b8c)" d="M 309.39493 291.28 
L 309.39493 5.52 
" style="fill:none;stroke:#b0b0b0;stroke-linecap:square;stroke-width:0.8;"/>
     </g>
     <g id="line2d_8">
      <g>
       <use style="stroke:#000000;stroke-width:0.8;" x="309.39493" xlink:href="#mfe98618e3e" y="291.28"/>
      </g>
     </g>
     <g id="text_3">
      <!-- 4 -->
      <g transform="translate(303.03243 313.476875)scale(0.2 -0.2)">
       <use xlink:href="#DejaVuSans-34"/>
      </g>
     </g>
    </g>
    <g id="xtick_5">
     <g id="line2d_9">
      <path clip-path="url(#pebf85d8b8c)" d="M 410.723063 291.28 
L 410.723063 5.52 
" style="fill:none;stroke:#b0b0b0;stroke-linecap:square;stroke-width:0.8;"/>
     </g>
     <g id="line2d_10">
      <g>
       <use style="stroke:#000000;stroke-width:0.8;" x="410.723063" xlink:href="#mfe98618e3e" y="291.28"/>
      </g>
     </g>
     <g id="text_4">
      <!-- 8 -->
      <defs>
       <path d="M 31.78125 34.625 
Q 24.75 34.625 20.71875 30.859375 
Q 16.703125 27.09375 16.703125 20.515625 
Q 16.703125 13.921875 20.71875 10.15625 
Q 24.75 6.390625 31.78125 6.390625 
Q 38.8125 6.390625 42.859375 10.171875 
Q 46.921875 13.96875 46.921875 20.515625 
Q 46.921875 27.09375 42.890625 30.859375 
Q 38.875 34.625 31.78125 34.625 
z
M 21.921875 38.8125 
Q 15.578125 40.375 12.03125 44.71875 
Q 8.5 49.078125 8.5 55.328125 
Q 8.5 64.0625 14.71875 69.140625 
Q 20.953125 74.21875 31.78125 74.21875 
Q 42.671875 74.21875 48.875 69.140625 
Q 55.078125 64.0625 55.078125 55.328125 
Q 55.078125 49.078125 51.53125 44.71875 
Q 48 40.375 41.703125 38.8125 
Q 48.828125 37.15625 52.796875 32.3125 
Q 56.78125 27.484375 56.78125 20.515625 
Q 56.78125 9.90625 50.3125 4.234375 
Q 43.84375 -1.421875 31.78125 -1.421875 
Q 19.734375 -1.421875 13.25 4.234375 
Q 6.78125 9.90625 6.78125 20.515625 
Q 6.78125 27.484375 10.78125 32.3125 
Q 14.796875 37.15625 21.921875 38.8125 
z
M 18.3125 54.390625 
Q 18.3125 48.734375 21.84375 45.5625 
Q 25.390625 42.390625 31.78125 42.390625 
Q 38.140625 42.390625 41.71875 45.5625 
Q 45.3125 48.734375 45.3125 54.390625 
Q 45.3125 60.0625 41.71875 63.234375 
Q 38.140625 66.40625 31.78125 66.40625 
Q 25.390625 66.40625 21.84375 63.234375 
Q 18.3125 60.0625 18.3125 54.390625 
z
" id="DejaVuSans-38"/>
      </defs>
      <g transform="translate(404.360563 313.476875)scale(0.2 -0.2)">
       <use xlink:href="#DejaVuSans-38"/>
      </g>
     </g>
    </g>
    <g id="text_5">
     <!-- log10 of Df -->
     <defs>
      <path d="M 9.421875 75.984375 
L 18.40625 75.984375 
L 18.40625 0 
L 9.421875 0 
z
" id="DejaVuSans-6c"/>
      <path d="M 30.609375 48.390625 
Q 23.390625 48.390625 19.1875 42.75 
Q 14.984375 37.109375 14.984375 27.296875 
Q 14.984375 17.484375 19.15625 11.84375 
Q 23.34375 6.203125 30.609375 6.203125 
Q 37.796875 6.203125 41.984375 11.859375 
Q 46.1875 17.53125 46.1875 27.296875 
Q 46.1875 37.015625 41.984375 42.703125 
Q 37.796875 48.390625 30.609375 48.390625 
z
M 30.609375 56 
Q 42.328125 56 49.015625 48.375 
Q 55.71875 40.765625 55.71875 27.296875 
Q 55.71875 13.875 49.015625 6.21875 
Q 42.328125 -1.421875 30.609375 -1.421875 
Q 18.84375 -1.421875 12.171875 6.21875 
Q 5.515625 13.875 5.515625 27.296875 
Q 5.515625 40.765625 12.171875 48.375 
Q 18.84375 56 30.609375 56 
z
" id="DejaVuSans-6f"/>
      <path d="M 45.40625 27.984375 
Q 45.40625 37.75 41.375 43.109375 
Q 37.359375 48.484375 30.078125 48.484375 
Q 22.859375 48.484375 18.828125 43.109375 
Q 14.796875 37.75 14.796875 27.984375 
Q 14.796875 18.265625 18.828125 12.890625 
Q 22.859375 7.515625 30.078125 7.515625 
Q 37.359375 7.515625 41.375 12.890625 
Q 45.40625 18.265625 45.40625 27.984375 
z
M 54.390625 6.78125 
Q 54.390625 -7.171875 48.1875 -13.984375 
Q 42 -20.796875 29.203125 -20.796875 
Q 24.46875 -20.796875 20.265625 -20.09375 
Q 16.0625 -19.390625 12.109375 -17.921875 
L 12.109375 -9.1875 
Q 16.0625 -11.328125 19.921875 -12.34375 
Q 23.78125 -13.375 27.78125 -13.375 
Q 36.625 -13.375 41.015625 -8.765625 
Q 45.40625 -4.15625 45.40625 5.171875 
L 45.40625 9.625 
Q 42.625 4.78125 38.28125 2.390625 
Q 33.9375 0 27.875 0 
Q 17.828125 0 11.671875 7.65625 
Q 5.515625 15.328125 5.515625 27.984375 
Q 5.515625 40.671875 11.671875 48.328125 
Q 17.828125 56 27.875 56 
Q 33.9375 56 38.28125 53.609375 
Q 42.625 51.21875 45.40625 46.390625 
L 45.40625 54.6875 
L 54.390625 54.6875 
z
" id="DejaVuSans-67"/>
      <path d="M 12.40625 8.296875 
L 28.515625 8.296875 
L 28.515625 63.921875 
L 10.984375 60.40625 
L 10.984375 69.390625 
L 28.421875 72.90625 
L 38.28125 72.90625 
L 38.28125 8.296875 
L 54.390625 8.296875 
L 54.390625 0 
L 12.40625 0 
z
" id="DejaVuSans-31"/>
      <path id="DejaVuSans-20"/>
      <path d="M 37.109375 75.984375 
L 37.109375 68.5 
L 28.515625 68.5 
Q 23.6875 68.5 21.796875 66.546875 
Q 19.921875 64.59375 19.921875 59.515625 
L 19.921875 54.6875 
L 34.71875 54.6875 
L 34.71875 47.703125 
L 19.921875 47.703125 
L 19.921875 0 
L 10.890625 0 
L 10.890625 47.703125 
L 2.296875 47.703125 
L 2.296875 54.6875 
L 10.890625 54.6875 
L 10.890625 58.5 
Q 10.890625 67.625 15.140625 71.796875 
Q 19.390625 75.984375 28.609375 75.984375 
z
" id="DejaVuSans-66"/>
      <path d="M 19.671875 64.796875 
L 19.671875 8.109375 
L 31.59375 8.109375 
Q 46.6875 8.109375 53.6875 14.9375 
Q 60.6875 21.78125 60.6875 36.53125 
Q 60.6875 51.171875 53.6875 57.984375 
Q 46.6875 64.796875 31.59375 64.796875 
z
M 9.8125 72.90625 
L 30.078125 72.90625 
Q 51.265625 72.90625 61.171875 64.09375 
Q 71.09375 55.28125 71.09375 36.53125 
Q 71.09375 17.671875 61.125 8.828125 
Q 51.171875 0 30.078125 0 
L 9.8125 0 
z
" id="DejaVuSans-44"/>
     </defs>
     <g transform="translate(172.910063 336.833125)scale(0.2 -0.2)">
      <use xlink:href="#DejaVuSans-6c"/>
      <use x="27.783203" xlink:href="#DejaVuSans-6f"/>
      <use x="88.964844" xlink:href="#DejaVuSans-67"/>
      <use x="152.441406" xlink:href="#DejaVuSans-31"/>
      <use x="216.064453" xlink:href="#DejaVuSans-30"/>
      <use x="279.6875" xlink:href="#DejaVuSans-20"/>
      <use x="311.474609" xlink:href="#DejaVuSans-6f"/>
      <use x="372.65625" xlink:href="#DejaVuSans-66"/>
      <use x="407.861328" xlink:href="#DejaVuSans-20"/>
      <use x="439.648438" xlink:href="#DejaVuSans-44"/>
      <use x="516.650391" xlink:href="#DejaVuSans-66"/>
     </g>
    </g>
   </g>
   <g id="matplotlib.axis_2">
    <g id="ytick_1">
     <g id="line2d_11">
      <path clip-path="url(#pebf85d8b8c)" d="M 5.52 291.28 
L 450.672 291.28 
" style="fill:none;stroke:#b0b0b0;stroke-linecap:square;stroke-width:0.8;"/>
     </g>
     <g id="line2d_12">
      <defs>
       <path d="M 0 0 
L -3.5 0 
" id="m56c7fc0a65" style="stroke:#000000;stroke-width:0.8;"/>
      </defs>
      <g>
       <use style="stroke:#000000;stroke-width:0.8;" x="5.52" xlink:href="#m56c7fc0a65" y="291.28"/>
      </g>
     </g>
    </g>
    <g id="ytick_2">
     <g id="line2d_13">
      <path clip-path="url(#pebf85d8b8c)" d="M 5.52 234.693861 
L 450.672 234.693861 
" style="fill:none;stroke:#b0b0b0;stroke-linecap:square;stroke-width:0.8;"/>
     </g>
     <g id="line2d_14">
      <g>
       <use style="stroke:#000000;stroke-width:0.8;" x="5.52" xlink:href="#m56c7fc0a65" y="234.693861"/>
      </g>
     </g>
    </g>
    <g id="ytick_3">
     <g id="line2d_15">
      <path clip-path="url(#pebf85d8b8c)" d="M 5.52 178.107723 
L 450.672 178.107723 
" style="fill:none;stroke:#b0b0b0;stroke-linecap:square;stroke-width:0.8;"/>
     </g>
     <g id="line2d_16">
      <g>
       <use style="stroke:#000000;stroke-width:0.8;" x="5.52" xlink:href="#m56c7fc0a65" y="178.107723"/>
      </g>
     </g>
    </g>
    <g id="ytick_4">
     <g id="line2d_17">
      <path clip-path="url(#pebf85d8b8c)" d="M 5.52 121.521584 
L 450.672 121.521584 
" style="fill:none;stroke:#b0b0b0;stroke-linecap:square;stroke-width:0.8;"/>
     </g>
     <g id="line2d_18">
      <g>
       <use style="stroke:#000000;stroke-width:0.8;" x="5.52" xlink:href="#m56c7fc0a65" y="121.521584"/>
      </g>
     </g>
    </g>
    <g id="ytick_5">
     <g id="line2d_19">
      <path clip-path="url(#pebf85d8b8c)" d="M 5.52 64.935446 
L 450.672 64.935446 
" style="fill:none;stroke:#b0b0b0;stroke-linecap:square;stroke-width:0.8;"/>
     </g>
     <g id="line2d_20">
      <g>
       <use style="stroke:#000000;stroke-width:0.8;" x="5.52" xlink:href="#m56c7fc0a65" y="64.935446"/>
      </g>
     </g>
    </g>
    <g id="ytick_6">
     <g id="line2d_21">
      <path clip-path="url(#pebf85d8b8c)" d="M 5.52 8.349307 
L 450.672 8.349307 
" style="fill:none;stroke:#b0b0b0;stroke-linecap:square;stroke-width:0.8;"/>
     </g>
     <g id="line2d_22">
      <g>
       <use style="stroke:#000000;stroke-width:0.8;" x="5.52" xlink:href="#m56c7fc0a65" y="8.349307"/>
      </g>
     </g>
    </g>
   </g>
   <g id="line2d_23">
    <path clip-path="url(#pebf85d8b8c)" d="M 5.410531 291.28 
L 5.410531 178.107723 
L 155.629053 178.107723 
L 155.629053 174.335314 
L 179.812237 174.335314 
L 179.812237 170.562904 
L 215.6369 170.562904 
L 215.6369 166.790495 
L 216.828919 166.790495 
L 216.828919 163.018086 
L 220.09765 163.018086 
L 220.097857 147.928449 
L 223.262602 147.928449 
L 223.262602 129.066403 
L 225.717519 129.066403 
L 225.717519 125.293993 
L 227.050076 125.293993 
L 227.050076 121.521584 
L 227.723343 121.521584 
L 227.723343 102.659538 
L 229.082412 102.659538 
L 229.082412 98.887129 
L 229.419242 98.887129 
L 229.419242 91.34231 
L 230.4751 91.34231 
L 230.4751 87.569901 
L 230.888297 87.569901 
L 230.888297 83.797492 
L 231.358292 83.797492 
L 231.358292 80.025083 
L 232.184089 80.025083 
L 232.184089 76.252673 
L 233.343221 76.252673 
L 233.344751 68.707855 
L 234.391783 68.707855 
L 234.391783 57.390627 
L 236.28221 57.390627 
L 236.28221 53.618218 
L 237.044924 53.618218 
L 237.044924 49.845809 
L 237.79428 49.845809 
L 237.803956 42.30099 
L 239.809741 42.30099 
L 239.809741 38.528581 
L 240.968878 38.528581 
L 240.968878 34.756172 
L 243.481595 34.756172 
L 243.481595 30.983762 
L 245.598093 30.983762 
L 245.598093 27.211353 
L 247.075413 27.211353 
L 247.075413 23.438944 
L 248.324591 23.438944 
L 248.324591 19.666535 
L 257.217437 19.666535 
L 257.217437 15.894125 
L 260.788863 15.894125 
L 260.788863 12.121716 
L 263.385894 12.121716 
L 263.385894 8.349307 
L 263.385894 8.349307 
L 450.672 8.349307 
L 450.672 8.349307 
" style="fill:none;stroke:#ff0000;stroke-linecap:square;stroke-width:3;"/>
   </g>
   <g id="line2d_24">
    <path clip-path="url(#pebf85d8b8c)" d="M 236.135265 291.28 
L 236.135265 287.507591 
L 236.584312 287.507591 
L 236.584312 283.735182 
L 238.968565 283.735182 
L 238.968565 279.962772 
L 240.820517 279.962772 
L 240.820517 276.190363 
L 242.020563 276.190363 
L 242.020563 272.417954 
L 243.737458 272.417954 
L 243.737458 268.645545 
L 244.366766 268.645545 
L 244.366766 264.873135 
L 245.843093 264.873135 
L 245.843093 261.100726 
L 246.934723 261.100726 
L 246.934723 257.328317 
L 247.330578 257.328317 
L 247.330578 253.555908 
L 247.502452 253.555908 
L 247.502452 249.783498 
L 248.137021 249.783498 
L 248.137021 246.011089 
L 248.747861 246.011089 
L 248.747861 242.23868 
L 248.946654 242.23868 
L 248.946654 238.466271 
L 249.384476 238.466271 
L 249.384476 234.693861 
L 252.252001 234.693861 
L 252.252001 230.921452 
L 254.694524 230.921452 
L 254.694524 227.149043 
L 256.525661 227.149043 
L 256.5564 219.604224 
L 257.809773 219.604224 
L 257.868535 212.059406 
L 258.001832 212.059406 
L 258.072198 204.514587 
L 258.189565 204.514587 
L 258.189565 200.742178 
L 258.453389 200.742178 
L 258.453389 196.969769 
L 259.199778 196.969769 
L 259.199778 193.19736 
L 259.559189 193.19736 
L 259.559189 163.018086 
L 260.569571 163.018086 
L 260.569571 159.245677 
L 260.862809 159.245677 
L 260.862809 155.473267 
L 261.255191 155.473267 
L 261.275787 144.15604 
L 261.367947 144.15604 
L 261.413151 136.611221 
L 261.826673 136.611221 
L 261.826673 132.838812 
L 264.042359 132.838812 
L 264.042359 129.066403 
L 264.367927 129.066403 
L 264.367927 125.293993 
L 264.727317 125.293993 
L 264.727317 121.521584 
L 265.649264 121.521584 
L 265.649264 117.749175 
L 265.900813 117.749175 
L 265.900813 113.976766 
L 266.18886 113.976766 
L 266.18886 110.204356 
L 266.447467 110.204356 
L 266.447467 106.431947 
L 267.259247 106.431947 
L 267.259247 102.659538 
L 268.266727 102.659538 
L 268.266727 98.887129 
L 268.62146 98.887129 
L 268.62146 95.114719 
L 268.822187 95.114719 
L 268.822187 91.34231 
L 269.075582 91.34231 
L 269.075582 87.569901 
L 269.199531 87.569901 
L 269.199531 83.797492 
L 269.658963 83.797492 
L 269.658963 80.025083 
L 271.160247 80.025083 
L 271.160247 76.252673 
L 273.587547 76.252673 
L 273.587547 72.480264 
L 274.632917 72.480264 
L 274.632917 68.707855 
L 274.782714 68.707855 
L 274.782714 64.935446 
L 312.936974 64.935446 
L 312.936974 61.163036 
L 335.574866 61.163036 
L 335.574866 57.390627 
L 348.794351 57.390627 
L 348.794351 53.618218 
L 354.493298 53.618218 
L 354.493298 49.845809 
L 364.279985 49.845809 
L 364.279985 46.073399 
L 369.055458 46.073399 
L 369.055458 42.30099 
L 372.646817 42.30099 
L 372.646817 38.528581 
L 373.421499 38.528581 
L 373.421499 34.756172 
L 373.823622 34.756172 
L 373.823622 30.983762 
L 377.113404 30.983762 
L 377.113404 27.211353 
L 379.424055 27.211353 
L 379.424055 23.438944 
L 379.797898 23.438944 
L 379.797898 19.666535 
L 380.619673 19.666535 
L 380.619673 15.894125 
L 383.881358 15.894125 
L 383.881358 12.121716 
L 388.316237 12.121716 
L 388.316237 8.349307 
L 388.316237 8.349307 
L 450.672 8.349307 
L 450.672 8.349307 
" style="fill:none;stroke:#00bfbf;stroke-linecap:square;stroke-width:1.5;"/>
   </g>
   <g id="line2d_25">
    <path clip-path="url(#pebf85d8b8c)" d="M 228.908601 291.28 
L 228.908601 287.507591 
L 233.795132 287.507591 
L 233.795132 283.735182 
L 236.135265 283.735182 
L 236.135265 279.962772 
L 236.584312 279.962772 
L 236.584312 276.190363 
L 240.820517 276.190363 
L 240.820517 272.417954 
L 241.745945 272.417954 
L 241.745945 268.645545 
L 242.020563 268.645545 
L 242.020563 264.873135 
L 243.737458 264.873135 
L 243.737458 261.100726 
L 244.366766 261.100726 
L 244.366766 257.328317 
L 244.934 257.328317 
L 244.934 253.555908 
L 246.934723 253.555908 
L 246.934723 249.783498 
L 247.330578 249.783498 
L 247.330578 246.011089 
L 247.896723 246.011089 
L 247.896723 242.23868 
L 248.137021 242.23868 
L 248.137021 238.466271 
L 248.747861 238.466271 
L 248.747861 234.693861 
L 248.946654 234.693861 
L 248.946654 230.921452 
L 250.300536 230.921452 
L 250.300536 227.149043 
L 250.600066 227.149043 
L 250.600066 223.376634 
L 253.228607 223.376634 
L 253.228607 219.604224 
L 253.906309 219.604224 
L 253.906309 215.831815 
L 254.687302 215.831815 
L 254.735553 204.514587 
L 255.20738 204.514587 
L 255.30828 196.969769 
L 255.42039 196.969769 
L 255.42039 193.19736 
L 255.543663 193.19736 
L 255.543663 189.42495 
L 256.414324 189.42495 
L 256.414324 185.652541 
L 256.525661 185.652541 
L 256.525661 181.880132 
L 256.943536 181.880132 
L 256.943536 178.107723 
L 257.58561 178.107723 
L 257.58561 174.335314 
L 257.809773 174.335314 
L 257.809773 170.562904 
L 258.001832 170.562904 
L 258.072198 163.018086 
L 258.540172 163.018086 
L 258.540172 159.245677 
L 259.559189 159.245677 
L 259.565125 151.700858 
L 259.722277 151.700858 
L 259.805248 144.15604 
L 259.855974 144.15604 
L 259.855974 140.38363 
L 260.209182 140.38363 
L 260.209182 136.611221 
L 260.531288 136.611221 
L 260.569571 129.066403 
L 260.744004 129.066403 
L 260.744004 125.293993 
L 260.862809 125.293993 
L 260.862809 121.521584 
L 261.136677 121.521584 
L 261.136677 117.749175 
L 261.255191 117.749175 
L 261.275787 110.204356 
L 261.367947 110.204356 
L 261.413151 102.659538 
L 261.826673 102.659538 
L 261.826673 98.887129 
L 263.265899 98.887129 
L 263.265899 95.114719 
L 264.367927 95.114719 
L 264.367927 91.34231 
L 265.649264 91.34231 
L 265.700348 83.797492 
L 266.777714 83.797492 
L 266.777714 80.025083 
L 267.259247 80.025083 
L 267.259247 76.252673 
L 269.075582 76.252673 
L 269.075582 72.480264 
L 273.587547 72.480264 
L 273.627465 64.935446 
L 312.936974 64.935446 
L 312.936974 61.163036 
L 334.246656 61.163036 
L 334.246656 57.390627 
L 335.574866 57.390627 
L 335.574866 53.618218 
L 348.72693 53.618218 
L 348.72693 49.845809 
L 351.777443 49.845809 
L 351.777443 46.073399 
L 354.493298 46.073399 
L 354.493298 42.30099 
L 355.816899 42.30099 
L 355.816899 38.528581 
L 359.966945 38.528581 
L 359.966945 34.756172 
L 362.655686 34.756172 
L 362.655686 30.983762 
L 363.075238 30.983762 
L 363.075238 27.211353 
L 365.834288 27.211353 
L 365.834288 23.438944 
L 368.280866 23.438944 
L 368.280866 19.666535 
L 368.400251 19.666535 
L 368.400251 15.894125 
L 380.619673 15.894125 
L 380.619673 12.121716 
L 382.962045 12.121716 
L 382.962045 8.349307 
L 382.962045 8.349307 
L 450.672 8.349307 
L 450.672 8.349307 
" style="fill:none;stroke:#bf00bf;stroke-linecap:square;stroke-width:1.5;"/>
   </g>
   <g id="line2d_26">
    <path clip-path="url(#pebf85d8b8c)" d="M 228.908601 291.28 
L 228.908601 287.507591 
L 232.835959 287.507591 
L 232.835959 283.735182 
L 233.795132 283.735182 
L 233.795132 279.962772 
L 235.220233 279.962772 
L 235.220233 276.190363 
L 236.135265 276.190363 
L 236.157852 268.645545 
L 236.477891 268.645545 
L 236.584312 261.100726 
L 240.779295 261.100726 
L 240.820517 253.555908 
L 242.020563 253.555908 
L 242.020563 249.783498 
L 244.366766 249.783498 
L 244.366766 246.011089 
L 244.919401 246.011089 
L 244.919401 242.23868 
L 246.934723 242.23868 
L 246.934723 238.466271 
L 247.306198 238.466271 
L 247.306198 234.693861 
L 247.638667 234.693861 
L 247.638667 230.921452 
L 247.896723 230.921452 
L 247.896723 227.149043 
L 248.747861 227.149043 
L 248.747861 223.376634 
L 249.56535 223.376634 
L 249.56535 219.604224 
L 249.828823 219.604224 
L 249.828823 215.831815 
L 250.300536 215.831815 
L 250.300536 212.059406 
L 250.600066 212.059406 
L 250.600066 208.286997 
L 250.880965 208.286997 
L 250.880965 204.514587 
L 252.088856 204.514587 
L 252.088856 200.742178 
L 252.219659 200.742178 
L 252.219659 196.969769 
L 252.50972 196.969769 
L 252.50972 193.19736 
L 252.770595 193.19736 
L 252.770595 189.42495 
L 253.139449 189.42495 
L 253.228607 178.107723 
L 253.940112 178.107723 
L 253.940112 174.335314 
L 254.069993 174.335314 
L 254.069993 170.562904 
L 255.002958 170.562904 
L 255.002958 166.790495 
L 255.543663 166.790495 
L 255.543663 163.018086 
L 256.414324 163.018086 
L 256.414324 159.245677 
L 256.748077 159.245677 
L 256.748077 155.473267 
L 257.32374 155.473267 
L 257.334759 147.928449 
L 257.809773 147.928449 
L 257.809773 144.15604 
L 258.001832 144.15604 
L 258.072198 136.611221 
L 259.722277 136.611221 
L 259.722277 132.838812 
L 259.855974 132.838812 
L 259.855974 129.066403 
L 260.209182 129.066403 
L 260.209182 125.293993 
L 260.531288 125.293993 
L 260.569571 117.749175 
L 260.744004 117.749175 
L 260.744004 113.976766 
L 260.862809 113.976766 
L 260.862809 110.204356 
L 261.136677 110.204356 
L 261.136677 106.431947 
L 261.367947 106.431947 
L 261.413151 98.887129 
L 261.664348 98.887129 
L 261.67855 91.34231 
L 261.826673 91.34231 
L 261.826673 87.569901 
L 262.911496 87.569901 
L 262.911496 83.797492 
L 263.265899 83.797492 
L 263.265899 80.025083 
L 264.367927 80.025083 
L 264.367927 76.252673 
L 265.333391 76.252673 
L 265.333391 72.480264 
L 265.649264 72.480264 
L 265.700348 64.935446 
L 312.936974 64.935446 
L 312.936974 61.163036 
L 318.496686 61.163036 
L 318.496686 57.390627 
L 324.60216 57.390627 
L 324.60216 53.618218 
L 330.295453 53.618218 
L 330.295453 49.845809 
L 334.889863 49.845809 
L 334.889863 46.073399 
L 335.574866 46.073399 
L 335.574866 42.30099 
L 338.965011 42.30099 
L 338.965011 38.528581 
L 347.596724 38.528581 
L 347.596724 34.756172 
L 351.777443 34.756172 
L 351.777443 30.983762 
L 353.416549 30.983762 
L 353.416549 27.211353 
L 355.816899 27.211353 
L 355.816899 23.438944 
L 357.710244 23.438944 
L 357.710244 19.666535 
L 362.655686 19.666535 
L 362.655686 15.894125 
L 365.834288 15.894125 
L 365.834288 12.121716 
L 367.669339 12.121716 
L 367.669339 8.349307 
L 367.669339 8.349307 
L 450.672 8.349307 
L 450.672 8.349307 
" style="fill:none;stroke:#000000;stroke-linecap:square;stroke-width:1.5;"/>
   </g>
   <g id="line2d_27">
    <path clip-path="url(#pebf85d8b8c)" d="M 218.152763 291.28 
L 218.152763 287.507591 
L 225.343433 287.507591 
L 225.343433 283.735182 
L 227.25099 283.735182 
L 227.25099 279.962772 
L 228.356223 279.962772 
L 228.356223 276.190363 
L 229.431103 276.190363 
L 229.45031 268.645545 
L 232.835959 268.645545 
L 232.835959 264.873135 
L 233.795132 264.873135 
L 233.795132 261.100726 
L 234.317372 261.100726 
L 234.317372 257.328317 
L 235.220233 257.328317 
L 235.220233 253.555908 
L 236.135265 253.555908 
L 236.157852 246.011089 
L 237.763001 246.011089 
L 237.842225 238.466271 
L 241.519154 238.466271 
L 241.519154 234.693861 
L 246.009931 234.693861 
L 246.009931 230.921452 
L 246.623159 230.921452 
L 246.623159 227.149043 
L 246.76776 227.149043 
L 246.807549 219.604224 
L 247.306198 219.604224 
L 247.306198 215.831815 
L 247.493189 215.831815 
L 247.500302 208.286997 
L 247.638667 208.286997 
L 247.638667 204.514587 
L 247.83545 204.514587 
L 247.83545 200.742178 
L 247.950873 200.742178 
L 247.950873 196.969769 
L 248.747861 196.969769 
L 248.750619 189.42495 
L 248.937539 189.42495 
L 248.937539 185.652541 
L 249.603346 185.652541 
L 249.603346 181.880132 
L 249.828823 181.880132 
L 249.828823 178.107723 
L 249.955083 178.107723 
L 249.955083 174.335314 
L 250.880965 174.335314 
L 250.880965 170.562904 
L 253.139449 170.562904 
L 253.139449 166.790495 
L 253.558279 166.790495 
L 253.558279 163.018086 
L 253.940112 163.018086 
L 254.050757 155.473267 
L 254.363382 155.473267 
L 254.363382 151.700858 
L 254.728152 151.700858 
L 254.728152 147.928449 
L 254.839945 147.928449 
L 254.839945 144.15604 
L 255.051293 144.15604 
L 255.051293 140.38363 
L 255.543663 140.38363 
L 255.543663 136.611221 
L 256.414324 136.611221 
L 256.414324 132.838812 
L 256.604286 132.838812 
L 256.604286 129.066403 
L 257.294916 129.066403 
L 257.32374 121.521584 
L 257.900521 121.521584 
L 257.960795 113.976766 
L 258.072198 113.976766 
L 258.072198 110.204356 
L 258.637479 110.204356 
L 258.637479 106.431947 
L 258.88195 106.431947 
L 258.969605 95.114719 
L 259.680262 95.114719 
L 259.680262 91.34231 
L 259.855974 91.34231 
L 259.855974 87.569901 
L 260.094272 87.569901 
L 260.094272 83.797492 
L 260.531288 83.797492 
L 260.531288 80.025083 
L 260.699656 80.025083 
L 260.699656 76.252673 
L 260.870569 76.252673 
L 260.870569 72.480264 
L 261.664348 72.480264 
L 261.664348 68.707855 
L 261.826673 68.707855 
L 261.826673 64.935446 
L 312.936974 64.935446 
L 312.936974 61.163036 
L 314.012145 61.163036 
L 314.012145 57.390627 
L 316.326079 57.390627 
L 316.326079 53.618218 
L 318.496686 53.618218 
L 318.496686 49.845809 
L 319.810079 49.845809 
L 319.810079 46.073399 
L 323.334874 46.073399 
L 323.334874 42.30099 
L 323.963414 42.30099 
L 323.963414 38.528581 
L 324.60216 38.528581 
L 324.60216 34.756172 
L 326.531283 34.756172 
L 326.531283 30.983762 
L 330.2669 30.983762 
L 330.2669 27.211353 
L 330.829201 27.211353 
L 330.829201 23.438944 
L 334.889863 23.438944 
L 334.889863 19.666535 
L 338.53764 19.666535 
L 338.53764 15.894125 
L 343.848154 15.894125 
L 343.848154 12.121716 
L 351.933573 12.121716 
L 351.933573 8.349307 
L 351.933573 8.349307 
L 450.672 8.349307 
L 450.672 8.349307 
" style="fill:none;stroke:#00bfbf;stroke-linecap:square;stroke-width:1.5;"/>
   </g>
   <g id="line2d_28">
    <path clip-path="url(#pebf85d8b8c)" d="M 5.410531 291.28 
L 5.410531 234.693861 
L 187.510472 234.693861 
L 187.510472 230.921452 
L 189.72455 230.921452 
L 189.72455 227.149043 
L 194.562265 227.149043 
L 194.562265 223.376634 
L 199.964416 223.376634 
L 199.964416 219.604224 
L 200.165844 219.604224 
L 200.165844 215.831815 
L 200.983208 215.831815 
L 200.983208 212.059406 
L 201.100911 212.059406 
L 201.100911 208.286997 
L 201.418471 208.286997 
L 201.418471 204.514587 
L 203.641462 204.514587 
L 203.641462 200.742178 
L 206.905611 200.742178 
L 206.905611 196.969769 
L 207.116092 196.969769 
L 207.116092 193.19736 
L 208.30905 193.19736 
L 208.30905 189.42495 
L 210.132574 189.42495 
L 210.132574 185.652541 
L 211.338612 185.652541 
L 211.338612 181.880132 
L 211.550237 181.880132 
L 211.550237 178.107723 
L 225.272886 178.107723 
L 225.272886 174.335314 
L 237.74218 174.335314 
L 237.74218 170.562904 
L 239.518335 170.562904 
L 239.549733 163.018086 
L 243.948264 163.018086 
L 243.948264 159.245677 
L 244.609736 159.245677 
L 244.609736 155.473267 
L 244.76947 155.473267 
L 244.819543 147.928449 
L 245.3819 147.928449 
L 245.469653 140.38363 
L 245.496705 140.38363 
L 245.496705 136.611221 
L 246.397965 136.611221 
L 246.397965 132.838812 
L 246.803074 132.838812 
L 246.803074 129.066403 
L 246.987803 129.066403 
L 246.995267 121.521584 
L 247.352279 121.521584 
L 247.352279 117.749175 
L 247.589283 117.749175 
L 247.687263 110.204356 
L 247.715551 110.204356 
L 247.814679 102.659538 
L 247.83545 102.659538 
L 247.83545 98.887129 
L 248.19375 98.887129 
L 248.19375 95.114719 
L 248.381344 95.114719 
L 248.381344 91.34231 
L 249.303625 91.34231 
L 249.303625 87.569901 
L 249.955083 87.569901 
L 249.955083 83.797492 
L 251.750617 83.797492 
L 251.750617 80.025083 
L 252.352906 80.025083 
L 252.352906 76.252673 
L 252.556637 76.252673 
L 252.556637 72.480264 
L 252.746093 72.480264 
L 252.844362 64.935446 
L 285.904185 64.935446 
L 285.904185 61.163036 
L 298.144167 61.163036 
L 298.144167 57.390627 
L 298.821634 57.390627 
L 298.821634 53.618218 
L 299.2605 53.618218 
L 299.2605 49.845809 
L 300.821565 49.845809 
L 300.821565 46.073399 
L 301.358438 46.073399 
L 301.358438 42.30099 
L 304.432849 42.30099 
L 304.432849 38.528581 
L 304.714892 38.528581 
L 304.714892 34.756172 
L 305.945794 34.756172 
L 305.945794 30.983762 
L 307.26374 30.983762 
L 307.366158 23.438944 
L 312.820038 23.438944 
L 312.820038 19.666535 
L 314.146738 19.666535 
L 314.146738 15.894125 
L 315.715044 15.894125 
L 315.797873 8.349307 
L 315.797873 8.349307 
L 450.672 8.349307 
L 450.672 8.349307 
" style="fill:none;stroke:#bf00bf;stroke-linecap:square;stroke-width:1.5;"/>
   </g>
   <g id="line2d_29">
    <path clip-path="url(#pebf85d8b8c)" d="M -1 234.693861 
L 5.410531 234.693861 
L 5.410531 178.107723 
L 178.418529 178.107723 
L 178.418529 174.335314 
L 215.636901 174.335314 
L 215.636901 170.562904 
L 217.27833 170.562904 
L 217.27833 166.790495 
L 220.098328 166.790495 
L 220.122368 155.473267 
L 222.894521 155.473267 
L 222.894521 151.700858 
L 223.262603 151.700858 
L 223.262647 132.838812 
L 225.71752 132.838812 
L 225.71752 129.066403 
L 227.723343 129.066403 
L 227.723911 110.204356 
L 229.196939 110.204356 
L 229.196939 106.431947 
L 229.419242 106.431947 
L 229.419243 98.887129 
L 230.490096 98.887129 
L 230.490096 95.114719 
L 230.888299 95.114719 
L 230.888299 91.34231 
L 232.192049 91.34231 
L 232.192049 87.569901 
L 233.343221 87.569901 
L 233.388576 80.025083 
L 233.800099 80.025083 
L 233.800099 76.252673 
L 234.391783 76.252673 
L 234.391878 64.935446 
L 234.765252 64.935446 
L 234.765252 61.163036 
L 236.354092 61.163036 
L 236.354092 57.390627 
L 237.044928 57.390627 
L 237.044928 53.618218 
L 237.810161 53.618218 
L 237.810161 49.845809 
L 238.896293 49.845809 
L 238.926537 42.30099 
L 239.809743 42.30099 
L 239.809743 38.528581 
L 240.968878 38.528581 
L 240.968878 34.756172 
L 247.655741 34.756172 
L 247.655741 30.983762 
L 248.160099 30.983762 
L 248.160099 27.211353 
L 251.437039 27.211353 
L 251.437039 23.438944 
L 254.070906 23.438944 
L 254.070906 19.666535 
L 259.679661 19.666535 
L 259.679661 15.894125 
L 267.953709 15.894125 
L 267.953709 12.121716 
L 268.664371 12.121716 
L 268.664371 8.349307 
L 268.664371 8.349307 
L 450.672 8.349307 
L 450.672 8.349307 
" style="fill:none;stroke:#000000;stroke-linecap:square;stroke-width:1.5;"/>
   </g>
   <g id="patch_3">
    <path d="M 5.52 291.28 
L 5.52 5.52 
" style="fill:none;stroke:#000000;stroke-linecap:square;stroke-linejoin:miter;stroke-width:0.8;"/>
   </g>
   <g id="patch_4">
    <path d="M 450.672 291.28 
L 450.672 5.52 
" style="fill:none;stroke:#000000;stroke-linecap:square;stroke-linejoin:miter;stroke-width:0.8;"/>
   </g>
   <g id="patch_5">
    <path d="M 5.52 291.28 
L 450.672 291.28 
" style="fill:none;stroke:#000000;stroke-linecap:square;stroke-linejoin:miter;stroke-width:0.8;"/>
   </g>
   <g id="patch_6">
    <path d="M 5.52 5.52 
L 450.672 5.52 
" style="fill:none;stroke:#000000;stroke-linecap:square;stroke-linejoin:miter;stroke-width:0.8;"/>
   </g>
   <g id="text_6">
    <!-- {f1-f5}, 5-D -->
    <defs>
     <path d="M 51.125 -9.28125 
L 51.125 -16.3125 
L 48.09375 -16.3125 
Q 35.9375 -16.3125 31.8125 -12.6875 
Q 27.6875 -9.078125 27.6875 1.703125 
L 27.6875 13.375 
Q 27.6875 20.75 25.046875 23.578125 
Q 22.40625 26.421875 15.484375 26.421875 
L 12.5 26.421875 
L 12.5 33.40625 
L 15.484375 33.40625 
Q 22.46875 33.40625 25.078125 36.203125 
Q 27.6875 39.015625 27.6875 46.296875 
L 27.6875 58.015625 
Q 27.6875 68.796875 31.8125 72.390625 
Q 35.9375 75.984375 48.09375 75.984375 
L 51.125 75.984375 
L 51.125 69 
L 47.796875 69 
Q 40.921875 69 38.8125 66.84375 
Q 36.71875 64.703125 36.71875 57.8125 
L 36.71875 45.703125 
Q 36.71875 38.03125 34.5 34.5625 
Q 32.28125 31.109375 26.90625 29.890625 
Q 32.328125 28.5625 34.515625 25.09375 
Q 36.71875 21.625 36.71875 14.015625 
L 36.71875 1.90625 
Q 36.71875 -4.984375 38.8125 -7.125 
Q 40.921875 -9.28125 47.796875 -9.28125 
z
" id="DejaVuSans-7b"/>
     <path d="M 10.796875 72.90625 
L 49.515625 72.90625 
L 49.515625 64.59375 
L 19.828125 64.59375 
L 19.828125 46.734375 
Q 21.96875 47.46875 24.109375 47.828125 
Q 26.265625 48.1875 28.421875 48.1875 
Q 40.625 48.1875 47.75 41.5 
Q 54.890625 34.8125 54.890625 23.390625 
Q 54.890625 11.625 47.5625 5.09375 
Q 40.234375 -1.421875 26.90625 -1.421875 
Q 22.3125 -1.421875 17.546875 -0.640625 
Q 12.796875 0.140625 7.71875 1.703125 
L 7.71875 11.625 
Q 12.109375 9.234375 16.796875 8.0625 
Q 21.484375 6.890625 26.703125 6.890625 
Q 35.15625 6.890625 40.078125 11.328125 
Q 45.015625 15.765625 45.015625 23.390625 
Q 45.015625 31 40.078125 35.4375 
Q 35.15625 39.890625 26.703125 39.890625 
Q 22.75 39.890625 18.8125 39.015625 
Q 14.890625 38.140625 10.796875 36.28125 
z
" id="DejaVuSans-35"/>
     <path d="M 12.5 -9.28125 
L 15.921875 -9.28125 
Q 22.75 -9.28125 24.828125 -7.171875 
Q 26.90625 -5.078125 26.90625 1.90625 
L 26.90625 14.015625 
Q 26.90625 21.625 29.09375 25.09375 
Q 31.296875 28.5625 36.71875 29.890625 
Q 31.296875 31.109375 29.09375 34.5625 
Q 26.90625 38.03125 26.90625 45.703125 
L 26.90625 57.8125 
Q 26.90625 64.75 24.828125 66.875 
Q 22.75 69 15.921875 69 
L 12.5 69 
L 12.5 75.984375 
L 15.578125 75.984375 
Q 27.734375 75.984375 31.8125 72.390625 
Q 35.890625 68.796875 35.890625 58.015625 
L 35.890625 46.296875 
Q 35.890625 39.015625 38.515625 36.203125 
Q 41.15625 33.40625 48.09375 33.40625 
L 51.125 33.40625 
L 51.125 26.421875 
L 48.09375 26.421875 
Q 41.15625 26.421875 38.515625 23.578125 
Q 35.890625 20.75 35.890625 13.375 
L 35.890625 1.703125 
Q 35.890625 -9.078125 31.8125 -12.6875 
Q 27.734375 -16.3125 15.578125 -16.3125 
L 12.5 -16.3125 
z
" id="DejaVuSans-7d"/>
     <path d="M 11.71875 12.40625 
L 22.015625 12.40625 
L 22.015625 4 
L 14.015625 -11.625 
L 7.71875 -11.625 
L 11.71875 4 
z
" id="DejaVuSans-2c"/>
    </defs>
    <g transform="translate(321.51896 285.5648)scale(0.2 -0.2)">
     <use xlink:href="#DejaVuSans-7b"/>
     <use x="63.623047" xlink:href="#DejaVuSans-66"/>
     <use x="98.828125" xlink:href="#DejaVuSans-31"/>
     <use x="162.451172" xlink:href="#DejaVuSans-2d"/>
     <use x="198.535156" xlink:href="#DejaVuSans-66"/>
     <use x="233.740234" xlink:href="#DejaVuSans-35"/>
     <use x="297.363281" xlink:href="#DejaVuSans-7d"/>
     <use x="360.986328" xlink:href="#DejaVuSans-2c"/>
     <use x="392.773438" xlink:href="#DejaVuSans-20"/>
     <use x="424.560547" xlink:href="#DejaVuSans-35"/>
     <use x="488.183594" xlink:href="#DejaVuSans-2d"/>
     <use x="524.267578" xlink:href="#DejaVuSans-44"/>
    </g>
   </g>
   <g id="text_7">
    <!-- v0.0.0 -->
    <defs>
     <path d="M 2.984375 54.6875 
L 12.5 54.6875 
L 29.59375 8.796875 
L 46.6875 54.6875 
L 56.203125 54.6875 
L 35.6875 0 
L 23.484375 0 
z
" id="DejaVuSans-76"/>
     <path d="M 10.6875 12.40625 
L 21 12.40625 
L 21 0 
L 10.6875 0 
z
" id="DejaVuSans-2e"/>
    </defs>
    <g style="fill:#808080;" transform="translate(212.41475 286.342713)scale(0.1 -0.1)">
     <use xlink:href="#DejaVuSans-76"/>
     <use x="59.179688" xlink:href="#DejaVuSans-30"/>
     <use x="122.802734" xlink:href="#DejaVuSans-2e"/>
     <use x="154.589844" xlink:href="#DejaVuSans-30"/>
     <use x="218.212891" xlink:href="#DejaVuSans-2e"/>
     <use x="250" xlink:href="#DejaVuSans-30"/>
    </g>
   </g>
  </g>
 </g>
 <defs>
  <clipPath id="pebf85d8b8c">
   <rect height="285.76" width="445.152" x="5.52" y="5.52"/>
  </clipPath>
 </defs>
</svg>
