<?xml version="1.0" encoding="utf-8" standalone="no"?>
<!DOCTYPE svg PUBLIC "-//W3C//DTD SVG 1.1//EN"
  "http://www.w3.org/Graphics/SVG/1.1/DTD/svg11.dtd">
<!-- Created with matplotlib (http://matplotlib.org/) -->
<svg height="345.6pt" version="1.1" viewBox="0 0 460.8 345.6" width="460.8pt" xmlns="http://www.w3.org/2000/svg" xmlns:xlink="http://www.w3.org/1999/xlink">
 <defs>
  <style type="text/css">
*{stroke-linecap:butt;stroke-linejoin:round;}
  </style>
 </defs>
 <g id="figure_1">
  <g id="patch_1">
   <path d="M 0 345.6 
L 460.8 345.6 
L 460.8 0 
L 0 0 
z
" style="fill:#ffffff;"/>
  </g>
  <g id="axes_1">
   <g id="patch_2">
    <path d="M 56.12 294.88 
L 333.168 294.88 
L 333.168 24.84 
L 56.12 24.84 
z
" style="fill:#ffffff;"/>
   </g>
   <g id="matplotlib.axis_1">
    <g id="xtick_1">
     <g id="line2d_1">
      <path clip-path="url(#p65d9759360)" d="M 56.12 294.88 
L 56.12 24.84 
" style="fill:none;stroke:#b0b0b0;stroke-linecap:square;stroke-width:0.8;"/>
     </g>
     <g id="line2d_2">
      <defs>
       <path d="M 0 0 
L 0 3.5 
" id="mfeb48ef445" style="stroke:#000000;stroke-width:0.8;"/>
      </defs>
      <g>
       <use style="stroke:#000000;stroke-width:0.8;" x="56.12" xlink:href="#mfeb48ef445" y="294.88"/>
      </g>
     </g>
     <g id="text_1">
      <!-- 0 -->
      <defs>
       <path d="M 31.78125 66.40625 
Q 24.171875 66.40625 20.328125 58.90625 
Q 16.5 51.421875 16.5 36.375 
Q 16.5 21.390625 20.328125 13.890625 
Q 24.171875 6.390625 31.78125 6.390625 
Q 39.453125 6.390625 43.28125 13.890625 
Q 47.125 21.390625 47.125 36.375 
Q 47.125 51.421875 43.28125 58.90625 
Q 39.453125 66.40625 31.78125 66.40625 
z
M 31.78125 74.21875 
Q 44.046875 74.21875 50.515625 64.515625 
Q 56.984375 54.828125 56.984375 36.375 
Q 56.984375 17.96875 50.515625 8.265625 
Q 44.046875 -1.421875 31.78125 -1.421875 
Q 19.53125 -1.421875 13.0625 8.265625 
Q 6.59375 17.96875 6.59375 36.375 
Q 6.59375 54.828125 13.0625 64.515625 
Q 19.53125 74.21875 31.78125 74.21875 
z
" id="DejaVuSans-30"/>
      </defs>
      <g transform="translate(49.7575 317.076875)scale(0.2 -0.2)">
       <use xlink:href="#DejaVuSans-30"/>
      </g>
     </g>
    </g>
    <g id="xtick_2">
     <g id="line2d_3">
      <path clip-path="url(#p65d9759360)" d="M 135.276571 294.88 
L 135.276571 24.84 
" style="fill:none;stroke:#b0b0b0;stroke-linecap:square;stroke-width:0.8;"/>
     </g>
     <g id="line2d_4">
      <g>
       <use style="stroke:#000000;stroke-width:0.8;" x="135.276571" xlink:href="#mfeb48ef445" y="294.88"/>
      </g>
     </g>
     <g id="text_2">
      <!-- 2 -->
      <defs>
       <path d="M 19.1875 8.296875 
L 53.609375 8.296875 
L 53.609375 0 
L 7.328125 0 
L 7.328125 8.296875 
Q 12.9375 14.109375 22.625 23.890625 
Q 32.328125 33.6875 34.8125 36.53125 
Q 39.546875 41.84375 41.421875 45.53125 
Q 43.3125 49.21875 43.3125 52.78125 
Q 43.3125 58.59375 39.234375 62.25 
Q 35.15625 65.921875 28.609375 65.921875 
Q 23.96875 65.921875 18.8125 64.3125 
Q 13.671875 62.703125 7.8125 59.421875 
L 7.8125 69.390625 
Q 13.765625 71.78125 18.9375 73 
Q 24.125 74.21875 28.421875 74.21875 
Q 39.75 74.21875 46.484375 68.546875 
Q 53.21875 62.890625 53.21875 53.421875 
Q 53.21875 48.921875 51.53125 44.890625 
Q 49.859375 40.875 45.40625 35.40625 
Q 44.1875 33.984375 37.640625 27.21875 
Q 31.109375 20.453125 19.1875 8.296875 
z
" id="DejaVuSans-32"/>
      </defs>
      <g transform="translate(128.914071 317.076875)scale(0.2 -0.2)">
       <use xlink:href="#DejaVuSans-32"/>
      </g>
     </g>
    </g>
    <g id="xtick_3">
     <g id="line2d_5">
      <path clip-path="url(#p65d9759360)" d="M 214.433143 294.88 
L 214.433143 24.84 
" style="fill:none;stroke:#b0b0b0;stroke-linecap:square;stroke-width:0.8;"/>
     </g>
     <g id="line2d_6">
      <g>
       <use style="stroke:#000000;stroke-width:0.8;" x="214.433143" xlink:href="#mfeb48ef445" y="294.88"/>
      </g>
     </g>
     <g id="text_3">
      <!-- 4 -->
      <defs>
       <path d="M 37.796875 64.3125 
L 12.890625 25.390625 
L 37.796875 25.390625 
z
M 35.203125 72.90625 
L 47.609375 72.90625 
L 47.609375 25.390625 
L 58.015625 25.390625 
L 58.015625 17.1875 
L 47.609375 17.1875 
L 47.609375 0 
L 37.796875 0 
L 37.796875 17.1875 
L 4.890625 17.1875 
L 4.890625 26.703125 
z
" id="DejaVuSans-34"/>
      </defs>
      <g transform="translate(208.070643 317.076875)scale(0.2 -0.2)">
       <use xlink:href="#DejaVuSans-34"/>
      </g>
     </g>
    </g>
    <g id="xtick_4">
     <g id="line2d_7">
      <path clip-path="url(#p65d9759360)" d="M 293.589714 294.88 
L 293.589714 24.84 
" style="fill:none;stroke:#b0b0b0;stroke-linecap:square;stroke-width:0.8;"/>
     </g>
     <g id="line2d_8">
      <g>
       <use style="stroke:#000000;stroke-width:0.8;" x="293.589714" xlink:href="#mfeb48ef445" y="294.88"/>
      </g>
     </g>
     <g id="text_4">
      <!-- 6 -->
      <defs>
       <path d="M 33.015625 40.375 
Q 26.375 40.375 22.484375 35.828125 
Q 18.609375 31.296875 18.609375 23.390625 
Q 18.609375 15.53125 22.484375 10.953125 
Q 26.375 6.390625 33.015625 6.390625 
Q 39.65625 6.390625 43.53125 10.953125 
Q 47.40625 15.53125 47.40625 23.390625 
Q 47.40625 31.296875 43.53125 35.828125 
Q 39.65625 40.375 33.015625 40.375 
z
M 52.59375 71.296875 
L 52.59375 62.3125 
Q 48.875 64.0625 45.09375 64.984375 
Q 41.3125 65.921875 37.59375 65.921875 
Q 27.828125 65.921875 22.671875 59.328125 
Q 17.53125 52.734375 16.796875 39.40625 
Q 19.671875 43.65625 24.015625 45.921875 
Q 28.375 48.1875 33.59375 48.1875 
Q 44.578125 48.1875 50.953125 41.515625 
Q 57.328125 34.859375 57.328125 23.390625 
Q 57.328125 12.15625 50.6875 5.359375 
Q 44.046875 -1.421875 33.015625 -1.421875 
Q 20.359375 -1.421875 13.671875 8.265625 
Q 6.984375 17.96875 6.984375 36.375 
Q 6.984375 53.65625 15.1875 63.9375 
Q 23.390625 74.21875 37.203125 74.21875 
Q 40.921875 74.21875 44.703125 73.484375 
Q 48.484375 72.75 52.59375 71.296875 
z
" id="DejaVuSans-36"/>
      </defs>
      <g transform="translate(287.227214 317.076875)scale(0.2 -0.2)">
       <use xlink:href="#DejaVuSans-36"/>
      </g>
     </g>
    </g>
    <g id="xtick_5">
     <g id="line2d_9">
      <path clip-path="url(#p65d9759360)" d="M 56.12 294.88 
L 56.12 24.84 
" style="fill:none;stroke:#b0b0b0;stroke-linecap:square;stroke-width:0.8;"/>
     </g>
     <g id="line2d_10">
      <defs>
       <path d="M 0 0 
L 0 2 
" id="mb36d823007" style="stroke:#000000;stroke-width:0.6;"/>
      </defs>
      <g>
       <use style="stroke:#000000;stroke-width:0.6;" x="56.12" xlink:href="#mb36d823007" y="294.88"/>
      </g>
     </g>
    </g>
    <g id="xtick_6">
     <g id="line2d_11">
      <path clip-path="url(#p65d9759360)" d="M 95.698286 294.88 
L 95.698286 24.84 
" style="fill:none;stroke:#b0b0b0;stroke-linecap:square;stroke-width:0.8;"/>
     </g>
     <g id="line2d_12">
      <g>
       <use style="stroke:#000000;stroke-width:0.6;" x="95.698286" xlink:href="#mb36d823007" y="294.88"/>
      </g>
     </g>
    </g>
    <g id="xtick_7">
     <g id="line2d_13">
      <path clip-path="url(#p65d9759360)" d="M 135.276571 294.88 
L 135.276571 24.84 
" style="fill:none;stroke:#b0b0b0;stroke-linecap:square;stroke-width:0.8;"/>
     </g>
     <g id="line2d_14">
      <g>
       <use style="stroke:#000000;stroke-width:0.6;" x="135.276571" xlink:href="#mb36d823007" y="294.88"/>
      </g>
     </g>
    </g>
    <g id="xtick_8">
     <g id="line2d_15">
      <path clip-path="url(#p65d9759360)" d="M 174.854857 294.88 
L 174.854857 24.84 
" style="fill:none;stroke:#b0b0b0;stroke-linecap:square;stroke-width:0.8;"/>
     </g>
     <g id="line2d_16">
      <g>
       <use style="stroke:#000000;stroke-width:0.6;" x="174.854857" xlink:href="#mb36d823007" y="294.88"/>
      </g>
     </g>
    </g>
    <g id="xtick_9">
     <g id="line2d_17">
      <path clip-path="url(#p65d9759360)" d="M 214.433143 294.88 
L 214.433143 24.84 
" style="fill:none;stroke:#b0b0b0;stroke-linecap:square;stroke-width:0.8;"/>
     </g>
     <g id="line2d_18">
      <g>
       <use style="stroke:#000000;stroke-width:0.6;" x="214.433143" xlink:href="#mb36d823007" y="294.88"/>
      </g>
     </g>
    </g>
    <g id="xtick_10">
     <g id="line2d_19">
      <path clip-path="url(#p65d9759360)" d="M 254.011429 294.88 
L 254.011429 24.84 
" style="fill:none;stroke:#b0b0b0;stroke-linecap:square;stroke-width:0.8;"/>
     </g>
     <g id="line2d_20">
      <g>
       <use style="stroke:#000000;stroke-width:0.6;" x="254.011429" xlink:href="#mb36d823007" y="294.88"/>
      </g>
     </g>
    </g>
    <g id="xtick_11">
     <g id="line2d_21">
      <path clip-path="url(#p65d9759360)" d="M 293.589714 294.88 
L 293.589714 24.84 
" style="fill:none;stroke:#b0b0b0;stroke-linecap:square;stroke-width:0.8;"/>
     </g>
     <g id="line2d_22">
      <g>
       <use style="stroke:#000000;stroke-width:0.6;" x="293.589714" xlink:href="#mb36d823007" y="294.88"/>
      </g>
     </g>
    </g>
    <g id="xtick_12">
     <g id="line2d_23">
      <path clip-path="url(#p65d9759360)" d="M 333.168 294.88 
L 333.168 24.84 
" style="fill:none;stroke:#b0b0b0;stroke-linecap:square;stroke-width:0.8;"/>
     </g>
     <g id="line2d_24">
      <g>
       <use style="stroke:#000000;stroke-width:0.6;" x="333.168" xlink:href="#mb36d823007" y="294.88"/>
      </g>
     </g>
    </g>
    <g id="text_5">
     <!-- log10(# f-evals / dimension) -->
     <defs>
      <path d="M 9.421875 75.984375 
L 18.40625 75.984375 
L 18.40625 0 
L 9.421875 0 
z
" id="DejaVuSans-6c"/>
      <path d="M 30.609375 48.390625 
Q 23.390625 48.390625 19.1875 42.75 
Q 14.984375 37.109375 14.984375 27.296875 
Q 14.984375 17.484375 19.15625 11.84375 
Q 23.34375 6.203125 30.609375 6.203125 
Q 37.796875 6.203125 41.984375 11.859375 
Q 46.1875 17.53125 46.1875 27.296875 
Q 46.1875 37.015625 41.984375 42.703125 
Q 37.796875 48.390625 30.609375 48.390625 
z
M 30.609375 56 
Q 42.328125 56 49.015625 48.375 
Q 55.71875 40.765625 55.71875 27.296875 
Q 55.71875 13.875 49.015625 6.21875 
Q 42.328125 -1.421875 30.609375 -1.421875 
Q 18.84375 -1.421875 12.171875 6.21875 
Q 5.515625 13.875 5.515625 27.296875 
Q 5.515625 40.765625 12.171875 48.375 
Q 18.84375 56 30.609375 56 
z
" id="DejaVuSans-6f"/>
      <path d="M 45.40625 27.984375 
Q 45.40625 37.75 41.375 43.109375 
Q 37.359375 48.484375 30.078125 48.484375 
Q 22.859375 48.484375 18.828125 43.109375 
Q 14.796875 37.75 14.796875 27.984375 
Q 14.796875 18.265625 18.828125 12.890625 
Q 22.859375 7.515625 30.078125 7.515625 
Q 37.359375 7.515625 41.375 12.890625 
Q 45.40625 18.265625 45.40625 27.984375 
z
M 54.390625 6.78125 
Q 54.390625 -7.171875 48.1875 -13.984375 
Q 42 -20.796875 29.203125 -20.796875 
Q 24.46875 -20.796875 20.265625 -20.09375 
Q 16.0625 -19.390625 12.109375 -17.921875 
L 12.109375 -9.1875 
Q 16.0625 -11.328125 19.921875 -12.34375 
Q 23.78125 -13.375 27.78125 -13.375 
Q 36.625 -13.375 41.015625 -8.765625 
Q 45.40625 -4.15625 45.40625 5.171875 
L 45.40625 9.625 
Q 42.625 4.78125 38.28125 2.390625 
Q 33.9375 0 27.875 0 
Q 17.828125 0 11.671875 7.65625 
Q 5.515625 15.328125 5.515625 27.984375 
Q 5.515625 40.671875 11.671875 48.328125 
Q 17.828125 56 27.875 56 
Q 33.9375 56 38.28125 53.609375 
Q 42.625 51.21875 45.40625 46.390625 
L 45.40625 54.6875 
L 54.390625 54.6875 
z
" id="DejaVuSans-67"/>
      <path d="M 12.40625 8.296875 
L 28.515625 8.296875 
L 28.515625 63.921875 
L 10.984375 60.40625 
L 10.984375 69.390625 
L 28.421875 72.90625 
L 38.28125 72.90625 
L 38.28125 8.296875 
L 54.390625 8.296875 
L 54.390625 0 
L 12.40625 0 
z
" id="DejaVuSans-31"/>
      <path d="M 31 75.875 
Q 24.46875 64.65625 21.28125 53.65625 
Q 18.109375 42.671875 18.109375 31.390625 
Q 18.109375 20.125 21.3125 9.0625 
Q 24.515625 -2 31 -13.1875 
L 23.1875 -13.1875 
Q 15.875 -1.703125 12.234375 9.375 
Q 8.59375 20.453125 8.59375 31.390625 
Q 8.59375 42.28125 12.203125 53.3125 
Q 15.828125 64.359375 23.1875 75.875 
z
" id="DejaVuSans-28"/>
      <path d="M 51.125 44 
L 36.921875 44 
L 32.8125 27.6875 
L 47.125 27.6875 
z
M 43.796875 71.78125 
L 38.71875 51.515625 
L 52.984375 51.515625 
L 58.109375 71.78125 
L 65.921875 71.78125 
L 60.890625 51.515625 
L 76.125 51.515625 
L 76.125 44 
L 58.984375 44 
L 54.984375 27.6875 
L 70.515625 27.6875 
L 70.515625 20.21875 
L 53.078125 20.21875 
L 48 0 
L 40.1875 0 
L 45.21875 20.21875 
L 30.90625 20.21875 
L 25.875 0 
L 18.015625 0 
L 23.09375 20.21875 
L 7.71875 20.21875 
L 7.71875 27.6875 
L 24.90625 27.6875 
L 29 44 
L 13.28125 44 
L 13.28125 51.515625 
L 30.90625 51.515625 
L 35.890625 71.78125 
z
" id="DejaVuSans-23"/>
      <path id="DejaVuSans-20"/>
      <path d="M 37.109375 75.984375 
L 37.109375 68.5 
L 28.515625 68.5 
Q 23.6875 68.5 21.796875 66.546875 
Q 19.921875 64.59375 19.921875 59.515625 
L 19.921875 54.6875 
L 34.71875 54.6875 
L 34.71875 47.703125 
L 19.921875 47.703125 
L 19.921875 0 
L 10.890625 0 
L 10.890625 47.703125 
L 2.296875 47.703125 
L 2.296875 54.6875 
L 10.890625 54.6875 
L 10.890625 58.5 
Q 10.890625 67.625 15.140625 71.796875 
Q 19.390625 75.984375 28.609375 75.984375 
z
" id="DejaVuSans-66"/>
      <path d="M 4.890625 31.390625 
L 31.203125 31.390625 
L 31.203125 23.390625 
L 4.890625 23.390625 
z
" id="DejaVuSans-2d"/>
      <path d="M 56.203125 29.59375 
L 56.203125 25.203125 
L 14.890625 25.203125 
Q 15.484375 15.921875 20.484375 11.0625 
Q 25.484375 6.203125 34.421875 6.203125 
Q 39.59375 6.203125 44.453125 7.46875 
Q 49.3125 8.734375 54.109375 11.28125 
L 54.109375 2.78125 
Q 49.265625 0.734375 44.1875 -0.34375 
Q 39.109375 -1.421875 33.890625 -1.421875 
Q 20.796875 -1.421875 13.15625 6.1875 
Q 5.515625 13.8125 5.515625 26.8125 
Q 5.515625 40.234375 12.765625 48.109375 
Q 20.015625 56 32.328125 56 
Q 43.359375 56 49.78125 48.890625 
Q 56.203125 41.796875 56.203125 29.59375 
z
M 47.21875 32.234375 
Q 47.125 39.59375 43.09375 43.984375 
Q 39.0625 48.390625 32.421875 48.390625 
Q 24.90625 48.390625 20.390625 44.140625 
Q 15.875 39.890625 15.1875 32.171875 
z
" id="DejaVuSans-65"/>
      <path d="M 2.984375 54.6875 
L 12.5 54.6875 
L 29.59375 8.796875 
L 46.6875 54.6875 
L 56.203125 54.6875 
L 35.6875 0 
L 23.484375 0 
z
" id="DejaVuSans-76"/>
      <path d="M 34.28125 27.484375 
Q 23.390625 27.484375 19.1875 25 
Q 14.984375 22.515625 14.984375 16.5 
Q 14.984375 11.71875 18.140625 8.90625 
Q 21.296875 6.109375 26.703125 6.109375 
Q 34.1875 6.109375 38.703125 11.40625 
Q 43.21875 16.703125 43.21875 25.484375 
L 43.21875 27.484375 
z
M 52.203125 31.203125 
L 52.203125 0 
L 43.21875 0 
L 43.21875 8.296875 
Q 40.140625 3.328125 35.546875 0.953125 
Q 30.953125 -1.421875 24.3125 -1.421875 
Q 15.921875 -1.421875 10.953125 3.296875 
Q 6 8.015625 6 15.921875 
Q 6 25.140625 12.171875 29.828125 
Q 18.359375 34.515625 30.609375 34.515625 
L 43.21875 34.515625 
L 43.21875 35.40625 
Q 43.21875 41.609375 39.140625 45 
Q 35.0625 48.390625 27.6875 48.390625 
Q 23 48.390625 18.546875 47.265625 
Q 14.109375 46.140625 10.015625 43.890625 
L 10.015625 52.203125 
Q 14.9375 54.109375 19.578125 55.046875 
Q 24.21875 56 28.609375 56 
Q 40.484375 56 46.34375 49.84375 
Q 52.203125 43.703125 52.203125 31.203125 
z
" id="DejaVuSans-61"/>
      <path d="M 44.28125 53.078125 
L 44.28125 44.578125 
Q 40.484375 46.53125 36.375 47.5 
Q 32.28125 48.484375 27.875 48.484375 
Q 21.1875 48.484375 17.84375 46.4375 
Q 14.5 44.390625 14.5 40.28125 
Q 14.5 37.15625 16.890625 35.375 
Q 19.28125 33.59375 26.515625 31.984375 
L 29.59375 31.296875 
Q 39.15625 29.25 43.1875 25.515625 
Q 47.21875 21.78125 47.21875 15.09375 
Q 47.21875 7.46875 41.1875 3.015625 
Q 35.15625 -1.421875 24.609375 -1.421875 
Q 20.21875 -1.421875 15.453125 -0.5625 
Q 10.6875 0.296875 5.421875 2 
L 5.421875 11.28125 
Q 10.40625 8.6875 15.234375 7.390625 
Q 20.0625 6.109375 24.8125 6.109375 
Q 31.15625 6.109375 34.5625 8.28125 
Q 37.984375 10.453125 37.984375 14.40625 
Q 37.984375 18.0625 35.515625 20.015625 
Q 33.0625 21.96875 24.703125 23.78125 
L 21.578125 24.515625 
Q 13.234375 26.265625 9.515625 29.90625 
Q 5.8125 33.546875 5.8125 39.890625 
Q 5.8125 47.609375 11.28125 51.796875 
Q 16.75 56 26.8125 56 
Q 31.78125 56 36.171875 55.265625 
Q 40.578125 54.546875 44.28125 53.078125 
z
" id="DejaVuSans-73"/>
      <path d="M 25.390625 72.90625 
L 33.6875 72.90625 
L 8.296875 -9.28125 
L 0 -9.28125 
z
" id="DejaVuSans-2f"/>
      <path d="M 45.40625 46.390625 
L 45.40625 75.984375 
L 54.390625 75.984375 
L 54.390625 0 
L 45.40625 0 
L 45.40625 8.203125 
Q 42.578125 3.328125 38.25 0.953125 
Q 33.9375 -1.421875 27.875 -1.421875 
Q 17.96875 -1.421875 11.734375 6.484375 
Q 5.515625 14.40625 5.515625 27.296875 
Q 5.515625 40.1875 11.734375 48.09375 
Q 17.96875 56 27.875 56 
Q 33.9375 56 38.25 53.625 
Q 42.578125 51.265625 45.40625 46.390625 
z
M 14.796875 27.296875 
Q 14.796875 17.390625 18.875 11.75 
Q 22.953125 6.109375 30.078125 6.109375 
Q 37.203125 6.109375 41.296875 11.75 
Q 45.40625 17.390625 45.40625 27.296875 
Q 45.40625 37.203125 41.296875 42.84375 
Q 37.203125 48.484375 30.078125 48.484375 
Q 22.953125 48.484375 18.875 42.84375 
Q 14.796875 37.203125 14.796875 27.296875 
z
" id="DejaVuSans-64"/>
      <path d="M 9.421875 54.6875 
L 18.40625 54.6875 
L 18.40625 0 
L 9.421875 0 
z
M 9.421875 75.984375 
L 18.40625 75.984375 
L 18.40625 64.59375 
L 9.421875 64.59375 
z
" id="DejaVuSans-69"/>
      <path d="M 52 44.1875 
Q 55.375 50.25 60.0625 53.125 
Q 64.75 56 71.09375 56 
Q 79.640625 56 84.28125 50.015625 
Q 88.921875 44.046875 88.921875 33.015625 
L 88.921875 0 
L 79.890625 0 
L 79.890625 32.71875 
Q 79.890625 40.578125 77.09375 44.375 
Q 74.3125 48.1875 68.609375 48.1875 
Q 61.625 48.1875 57.5625 43.546875 
Q 53.515625 38.921875 53.515625 30.90625 
L 53.515625 0 
L 44.484375 0 
L 44.484375 32.71875 
Q 44.484375 40.625 41.703125 44.40625 
Q 38.921875 48.1875 33.109375 48.1875 
Q 26.21875 48.1875 22.15625 43.53125 
Q 18.109375 38.875 18.109375 30.90625 
L 18.109375 0 
L 9.078125 0 
L 9.078125 54.6875 
L 18.109375 54.6875 
L 18.109375 46.1875 
Q 21.1875 51.21875 25.484375 53.609375 
Q 29.78125 56 35.6875 56 
Q 41.65625 56 45.828125 52.96875 
Q 50 49.953125 52 44.1875 
z
" id="DejaVuSans-6d"/>
      <path d="M 54.890625 33.015625 
L 54.890625 0 
L 45.90625 0 
L 45.90625 32.71875 
Q 45.90625 40.484375 42.875 44.328125 
Q 39.84375 48.1875 33.796875 48.1875 
Q 26.515625 48.1875 22.3125 43.546875 
Q 18.109375 38.921875 18.109375 30.90625 
L 18.109375 0 
L 9.078125 0 
L 9.078125 54.6875 
L 18.109375 54.6875 
L 18.109375 46.1875 
Q 21.34375 51.125 25.703125 53.5625 
Q 30.078125 56 35.796875 56 
Q 45.21875 56 50.046875 50.171875 
Q 54.890625 44.34375 54.890625 33.015625 
z
" id="DejaVuSans-6e"/>
      <path d="M 8.015625 75.875 
L 15.828125 75.875 
Q 23.140625 64.359375 26.78125 53.3125 
Q 30.421875 42.28125 30.421875 31.390625 
Q 30.421875 20.453125 26.78125 9.375 
Q 23.140625 -1.703125 15.828125 -13.1875 
L 8.015625 -13.1875 
Q 14.5 -2 17.703125 9.0625 
Q 20.90625 20.125 20.90625 31.390625 
Q 20.90625 42.671875 17.703125 53.65625 
Q 14.5 64.65625 8.015625 75.875 
z
" id="DejaVuSans-29"/>
     </defs>
     <g transform="translate(73.803219 338.153594)scale(0.17 -0.17)">
      <use xlink:href="#DejaVuSans-6c"/>
      <use x="27.783203" xlink:href="#DejaVuSans-6f"/>
      <use x="88.964844" xlink:href="#DejaVuSans-67"/>
      <use x="152.441406" xlink:href="#DejaVuSans-31"/>
      <use x="216.064453" xlink:href="#DejaVuSans-30"/>
      <use x="279.6875" xlink:href="#DejaVuSans-28"/>
      <use x="318.701172" xlink:href="#DejaVuSans-23"/>
      <use x="402.490234" xlink:href="#DejaVuSans-20"/>
      <use x="434.277344" xlink:href="#DejaVuSans-66"/>
      <use x="469.404297" xlink:href="#DejaVuSans-2d"/>
      <use x="505.488281" xlink:href="#DejaVuSans-65"/>
      <use x="567.011719" xlink:href="#DejaVuSans-76"/>
      <use x="626.191406" xlink:href="#DejaVuSans-61"/>
      <use x="687.470703" xlink:href="#DejaVuSans-6c"/>
      <use x="715.253906" xlink:href="#DejaVuSans-73"/>
      <use x="767.353516" xlink:href="#DejaVuSans-20"/>
      <use x="799.140625" xlink:href="#DejaVuSans-2f"/>
      <use x="832.832031" xlink:href="#DejaVuSans-20"/>
      <use x="864.619141" xlink:href="#DejaVuSans-64"/>
      <use x="928.095703" xlink:href="#DejaVuSans-69"/>
      <use x="955.878906" xlink:href="#DejaVuSans-6d"/>
      <use x="1053.291016" xlink:href="#DejaVuSans-65"/>
      <use x="1114.814453" xlink:href="#DejaVuSans-6e"/>
      <use x="1178.193359" xlink:href="#DejaVuSans-73"/>
      <use x="1230.292969" xlink:href="#DejaVuSans-69"/>
      <use x="1258.076172" xlink:href="#DejaVuSans-6f"/>
      <use x="1319.257812" xlink:href="#DejaVuSans-6e"/>
      <use x="1382.636719" xlink:href="#DejaVuSans-29"/>
     </g>
    </g>
   </g>
   <g id="matplotlib.axis_2">
    <g id="ytick_1">
     <g id="line2d_25">
      <path clip-path="url(#p65d9759360)" d="M 56.12 294.88 
L 333.168 294.88 
" style="fill:none;stroke:#b0b0b0;stroke-linecap:square;stroke-width:0.8;"/>
     </g>
     <g id="line2d_26">
      <defs>
       <path d="M 0 0 
L -3.5 0 
" id="mbf14d374b6" style="stroke:#000000;stroke-width:0.8;"/>
      </defs>
      <g>
       <use style="stroke:#000000;stroke-width:0.8;" x="56.12" xlink:href="#mbf14d374b6" y="294.88"/>
      </g>
     </g>
     <g id="text_6">
      <!-- 0.0 -->
      <defs>
       <path d="M 10.6875 12.40625 
L 21 12.40625 
L 21 0 
L 10.6875 0 
z
" id="DejaVuSans-2e"/>
      </defs>
      <g transform="translate(23.675 300.95875)scale(0.16 -0.16)">
       <use xlink:href="#DejaVuSans-30"/>
       <use x="63.623047" xlink:href="#DejaVuSans-2e"/>
       <use x="95.410156" xlink:href="#DejaVuSans-30"/>
      </g>
     </g>
    </g>
    <g id="ytick_2">
     <g id="line2d_27">
      <path clip-path="url(#p65d9759360)" d="M 56.12 241.406733 
L 333.168 241.406733 
" style="fill:none;stroke:#b0b0b0;stroke-linecap:square;stroke-width:0.8;"/>
     </g>
     <g id="line2d_28">
      <g>
       <use style="stroke:#000000;stroke-width:0.8;" x="56.12" xlink:href="#mbf14d374b6" y="241.406733"/>
      </g>
     </g>
     <g id="text_7">
      <!-- 0.2 -->
      <g transform="translate(23.675 247.485483)scale(0.16 -0.16)">
       <use xlink:href="#DejaVuSans-30"/>
       <use x="63.623047" xlink:href="#DejaVuSans-2e"/>
       <use x="95.410156" xlink:href="#DejaVuSans-32"/>
      </g>
     </g>
    </g>
    <g id="ytick_3">
     <g id="line2d_29">
      <path clip-path="url(#p65d9759360)" d="M 56.12 187.933465 
L 333.168 187.933465 
" style="fill:none;stroke:#b0b0b0;stroke-linecap:square;stroke-width:0.8;"/>
     </g>
     <g id="line2d_30">
      <g>
       <use style="stroke:#000000;stroke-width:0.8;" x="56.12" xlink:href="#mbf14d374b6" y="187.933465"/>
      </g>
     </g>
     <g id="text_8">
      <!-- 0.4 -->
      <g transform="translate(23.675 194.012215)scale(0.16 -0.16)">
       <use xlink:href="#DejaVuSans-30"/>
       <use x="63.623047" xlink:href="#DejaVuSans-2e"/>
       <use x="95.410156" xlink:href="#DejaVuSans-34"/>
      </g>
     </g>
    </g>
    <g id="ytick_4">
     <g id="line2d_31">
      <path clip-path="url(#p65d9759360)" d="M 56.12 134.460198 
L 333.168 134.460198 
" style="fill:none;stroke:#b0b0b0;stroke-linecap:square;stroke-width:0.8;"/>
     </g>
     <g id="line2d_32">
      <g>
       <use style="stroke:#000000;stroke-width:0.8;" x="56.12" xlink:href="#mbf14d374b6" y="134.460198"/>
      </g>
     </g>
     <g id="text_9">
      <!-- 0.6 -->
      <g transform="translate(23.675 140.538948)scale(0.16 -0.16)">
       <use xlink:href="#DejaVuSans-30"/>
       <use x="63.623047" xlink:href="#DejaVuSans-2e"/>
       <use x="95.410156" xlink:href="#DejaVuSans-36"/>
      </g>
     </g>
    </g>
    <g id="ytick_5">
     <g id="line2d_33">
      <path clip-path="url(#p65d9759360)" d="M 56.12 80.986931 
L 333.168 80.986931 
" style="fill:none;stroke:#b0b0b0;stroke-linecap:square;stroke-width:0.8;"/>
     </g>
     <g id="line2d_34">
      <g>
       <use style="stroke:#000000;stroke-width:0.8;" x="56.12" xlink:href="#mbf14d374b6" y="80.986931"/>
      </g>
     </g>
     <g id="text_10">
      <!-- 0.8 -->
      <defs>
       <path d="M 31.78125 34.625 
Q 24.75 34.625 20.71875 30.859375 
Q 16.703125 27.09375 16.703125 20.515625 
Q 16.703125 13.921875 20.71875 10.15625 
Q 24.75 6.390625 31.78125 6.390625 
Q 38.8125 6.390625 42.859375 10.171875 
Q 46.921875 13.96875 46.921875 20.515625 
Q 46.921875 27.09375 42.890625 30.859375 
Q 38.875 34.625 31.78125 34.625 
z
M 21.921875 38.8125 
Q 15.578125 40.375 12.03125 44.71875 
Q 8.5 49.078125 8.5 55.328125 
Q 8.5 64.0625 14.71875 69.140625 
Q 20.953125 74.21875 31.78125 74.21875 
Q 42.671875 74.21875 48.875 69.140625 
Q 55.078125 64.0625 55.078125 55.328125 
Q 55.078125 49.078125 51.53125 44.71875 
Q 48 40.375 41.703125 38.8125 
Q 48.828125 37.15625 52.796875 32.3125 
Q 56.78125 27.484375 56.78125 20.515625 
Q 56.78125 9.90625 50.3125 4.234375 
Q 43.84375 -1.421875 31.78125 -1.421875 
Q 19.734375 -1.421875 13.25 4.234375 
Q 6.78125 9.90625 6.78125 20.515625 
Q 6.78125 27.484375 10.78125 32.3125 
Q 14.796875 37.15625 21.921875 38.8125 
z
M 18.3125 54.390625 
Q 18.3125 48.734375 21.84375 45.5625 
Q 25.390625 42.390625 31.78125 42.390625 
Q 38.140625 42.390625 41.71875 45.5625 
Q 45.3125 48.734375 45.3125 54.390625 
Q 45.3125 60.0625 41.71875 63.234375 
Q 38.140625 66.40625 31.78125 66.40625 
Q 25.390625 66.40625 21.84375 63.234375 
Q 18.3125 60.0625 18.3125 54.390625 
z
" id="DejaVuSans-38"/>
      </defs>
      <g transform="translate(23.675 87.065681)scale(0.16 -0.16)">
       <use xlink:href="#DejaVuSans-30"/>
       <use x="63.623047" xlink:href="#DejaVuSans-2e"/>
       <use x="95.410156" xlink:href="#DejaVuSans-38"/>
      </g>
     </g>
    </g>
    <g id="ytick_6">
     <g id="line2d_35">
      <path clip-path="url(#p65d9759360)" d="M 56.12 27.513663 
L 333.168 27.513663 
" style="fill:none;stroke:#b0b0b0;stroke-linecap:square;stroke-width:0.8;"/>
     </g>
     <g id="line2d_36">
      <g>
       <use style="stroke:#000000;stroke-width:0.8;" x="56.12" xlink:href="#mbf14d374b6" y="27.513663"/>
      </g>
     </g>
     <g id="text_11">
      <!-- 1.0 -->
      <g transform="translate(23.675 33.592413)scale(0.16 -0.16)">
       <use xlink:href="#DejaVuSans-31"/>
       <use x="63.623047" xlink:href="#DejaVuSans-2e"/>
       <use x="95.410156" xlink:href="#DejaVuSans-30"/>
      </g>
     </g>
    </g>
    <g id="text_12">
     <!-- Fraction of function,target pairs -->
     <defs>
      <path d="M 9.8125 72.90625 
L 51.703125 72.90625 
L 51.703125 64.59375 
L 19.671875 64.59375 
L 19.671875 43.109375 
L 48.578125 43.109375 
L 48.578125 34.8125 
L 19.671875 34.8125 
L 19.671875 0 
L 9.8125 0 
z
" id="DejaVuSans-46"/>
      <path d="M 41.109375 46.296875 
Q 39.59375 47.171875 37.8125 47.578125 
Q 36.03125 48 33.890625 48 
Q 26.265625 48 22.1875 43.046875 
Q 18.109375 38.09375 18.109375 28.8125 
L 18.109375 0 
L 9.078125 0 
L 9.078125 54.6875 
L 18.109375 54.6875 
L 18.109375 46.1875 
Q 20.953125 51.171875 25.484375 53.578125 
Q 30.03125 56 36.53125 56 
Q 37.453125 56 38.578125 55.875 
Q 39.703125 55.765625 41.0625 55.515625 
z
" id="DejaVuSans-72"/>
      <path d="M 48.78125 52.59375 
L 48.78125 44.1875 
Q 44.96875 46.296875 41.140625 47.34375 
Q 37.3125 48.390625 33.40625 48.390625 
Q 24.65625 48.390625 19.8125 42.84375 
Q 14.984375 37.3125 14.984375 27.296875 
Q 14.984375 17.28125 19.8125 11.734375 
Q 24.65625 6.203125 33.40625 6.203125 
Q 37.3125 6.203125 41.140625 7.25 
Q 44.96875 8.296875 48.78125 10.40625 
L 48.78125 2.09375 
Q 45.015625 0.34375 40.984375 -0.53125 
Q 36.96875 -1.421875 32.421875 -1.421875 
Q 20.0625 -1.421875 12.78125 6.34375 
Q 5.515625 14.109375 5.515625 27.296875 
Q 5.515625 40.671875 12.859375 48.328125 
Q 20.21875 56 33.015625 56 
Q 37.15625 56 41.109375 55.140625 
Q 45.0625 54.296875 48.78125 52.59375 
z
" id="DejaVuSans-63"/>
      <path d="M 18.3125 70.21875 
L 18.3125 54.6875 
L 36.8125 54.6875 
L 36.8125 47.703125 
L 18.3125 47.703125 
L 18.3125 18.015625 
Q 18.3125 11.328125 20.140625 9.421875 
Q 21.96875 7.515625 27.59375 7.515625 
L 36.8125 7.515625 
L 36.8125 0 
L 27.59375 0 
Q 17.1875 0 13.234375 3.875 
Q 9.28125 7.765625 9.28125 18.015625 
L 9.28125 47.703125 
L 2.6875 47.703125 
L 2.6875 54.6875 
L 9.28125 54.6875 
L 9.28125 70.21875 
z
" id="DejaVuSans-74"/>
      <path d="M 8.5 21.578125 
L 8.5 54.6875 
L 17.484375 54.6875 
L 17.484375 21.921875 
Q 17.484375 14.15625 20.5 10.265625 
Q 23.53125 6.390625 29.59375 6.390625 
Q 36.859375 6.390625 41.078125 11.03125 
Q 45.3125 15.671875 45.3125 23.6875 
L 45.3125 54.6875 
L 54.296875 54.6875 
L 54.296875 0 
L 45.3125 0 
L 45.3125 8.40625 
Q 42.046875 3.421875 37.71875 1 
Q 33.40625 -1.421875 27.6875 -1.421875 
Q 18.265625 -1.421875 13.375 4.4375 
Q 8.5 10.296875 8.5 21.578125 
z
M 31.109375 56 
z
" id="DejaVuSans-75"/>
      <path d="M 11.71875 12.40625 
L 22.015625 12.40625 
L 22.015625 4 
L 14.015625 -11.625 
L 7.71875 -11.625 
L 11.71875 4 
z
" id="DejaVuSans-2c"/>
      <path d="M 18.109375 8.203125 
L 18.109375 -20.796875 
L 9.078125 -20.796875 
L 9.078125 54.6875 
L 18.109375 54.6875 
L 18.109375 46.390625 
Q 20.953125 51.265625 25.265625 53.625 
Q 29.59375 56 35.59375 56 
Q 45.5625 56 51.78125 48.09375 
Q 58.015625 40.1875 58.015625 27.296875 
Q 58.015625 14.40625 51.78125 6.484375 
Q 45.5625 -1.421875 35.59375 -1.421875 
Q 29.59375 -1.421875 25.265625 0.953125 
Q 20.953125 3.328125 18.109375 8.203125 
z
M 48.6875 27.296875 
Q 48.6875 37.203125 44.609375 42.84375 
Q 40.53125 48.484375 33.40625 48.484375 
Q 26.265625 48.484375 22.1875 42.84375 
Q 18.109375 37.203125 18.109375 27.296875 
Q 18.109375 17.390625 22.1875 11.75 
Q 26.265625 6.109375 33.40625 6.109375 
Q 40.53125 6.109375 44.609375 11.75 
Q 48.6875 17.390625 48.6875 27.296875 
z
" id="DejaVuSans-70"/>
     </defs>
     <g transform="translate(16.139531 294.999375)rotate(-90)scale(0.17 -0.17)">
      <use xlink:href="#DejaVuSans-46"/>
      <use x="57.410156" xlink:href="#DejaVuSans-72"/>
      <use x="98.523438" xlink:href="#DejaVuSans-61"/>
      <use x="159.802734" xlink:href="#DejaVuSans-63"/>
      <use x="214.783203" xlink:href="#DejaVuSans-74"/>
      <use x="253.992188" xlink:href="#DejaVuSans-69"/>
      <use x="281.775391" xlink:href="#DejaVuSans-6f"/>
      <use x="342.957031" xlink:href="#DejaVuSans-6e"/>
      <use x="406.335938" xlink:href="#DejaVuSans-20"/>
      <use x="438.123047" xlink:href="#DejaVuSans-6f"/>
      <use x="499.304688" xlink:href="#DejaVuSans-66"/>
      <use x="534.509766" xlink:href="#DejaVuSans-20"/>
      <use x="566.296875" xlink:href="#DejaVuSans-66"/>
      <use x="601.501953" xlink:href="#DejaVuSans-75"/>
      <use x="664.880859" xlink:href="#DejaVuSans-6e"/>
      <use x="728.259766" xlink:href="#DejaVuSans-63"/>
      <use x="783.240234" xlink:href="#DejaVuSans-74"/>
      <use x="822.449219" xlink:href="#DejaVuSans-69"/>
      <use x="850.232422" xlink:href="#DejaVuSans-6f"/>
      <use x="911.414062" xlink:href="#DejaVuSans-6e"/>
      <use x="974.792969" xlink:href="#DejaVuSans-2c"/>
      <use x="1006.580078" xlink:href="#DejaVuSans-74"/>
      <use x="1045.789062" xlink:href="#DejaVuSans-61"/>
      <use x="1107.068359" xlink:href="#DejaVuSans-72"/>
      <use x="1148.166016" xlink:href="#DejaVuSans-67"/>
      <use x="1211.642578" xlink:href="#DejaVuSans-65"/>
      <use x="1273.166016" xlink:href="#DejaVuSans-74"/>
      <use x="1312.375" xlink:href="#DejaVuSans-20"/>
      <use x="1344.162109" xlink:href="#DejaVuSans-70"/>
      <use x="1407.638672" xlink:href="#DejaVuSans-61"/>
      <use x="1468.917969" xlink:href="#DejaVuSans-69"/>
      <use x="1496.701172" xlink:href="#DejaVuSans-72"/>
      <use x="1537.814453" xlink:href="#DejaVuSans-73"/>
     </g>
    </g>
   </g>
   <g id="line2d_37">
    <defs>
     <path d="M 0 1.5 
C 0.397805 1.5 0.77937 1.341951 1.06066 1.06066 
C 1.341951 0.77937 1.5 0.397805 1.5 0 
C 1.5 -0.397805 1.341951 -0.77937 1.06066 -1.06066 
C 0.77937 -1.341951 0.397805 -1.5 0 -1.5 
C -0.397805 -1.5 -0.77937 -1.341951 -1.06066 -1.06066 
C -1.341951 -0.77937 -1.5 -0.397805 -1.5 0 
C -1.5 0.397805 -1.341951 0.77937 -1.06066 1.06066 
C -0.77937 1.341951 -0.397805 1.5 0 1.5 
z
" id="m082e2e27b2" style="stroke:#00bfbf;"/>
    </defs>
    <g>
     <use style="fill:#00bfbf;stroke:#00bfbf;" x="188.446381" xlink:href="#m082e2e27b2" y="27.513663"/>
     <use style="fill:#00bfbf;stroke:#00bfbf;" x="188.446381" xlink:href="#m082e2e27b2" y="27.513663"/>
    </g>
   </g>
   <g id="line2d_38">
    <path d="M 44.205749 294.88 
L 44.205749 291.210266 
L 56.12 291.210266 
L 56.12 287.540532 
L 63.08939 287.540532 
L 63.08939 285.967789 
L 68.034251 285.967789 
L 68.034251 284.919293 
L 79.948502 284.919293 
L 79.948502 282.822302 
L 85.422286 282.822302 
L 85.422286 281.249559 
L 86.917893 281.249559 
L 86.917893 279.152568 
L 88.293717 279.152568 
L 88.293717 276.53133 
L 89.567532 276.53133 
L 89.567532 273.385844 
L 91.862754 273.385844 
L 91.862754 271.8131 
L 92.904808 271.8131 
L 92.904808 271.288853 
L 93.887283 271.288853 
L 93.887283 269.191862 
L 95.698286 269.191862 
L 95.698286 267.094871 
L 98.832144 267.094871 
L 98.832144 266.046375 
L 100.856673 266.046375 
L 100.856673 263.425137 
L 106.730875 263.425137 
L 106.730875 259.231155 
L 114.866043 259.231155 
L 114.866043 257.134164 
L 116.984244 257.134164 
L 116.984244 256.085669 
L 118.186736 256.085669 
L 118.186736 254.512926 
L 120.365424 254.512926 
L 120.365424 252.415935 
L 120.568842 252.415935 
L 120.568842 249.794696 
L 128.003717 249.794696 
L 128.003717 248.746201 
L 130.33171 248.746201 
L 130.33171 247.697705 
L 133.6555 247.697705 
L 133.6555 247.173458 
L 134.213018 247.173458 
L 134.213018 246.124962 
L 136.519665 246.124962 
L 136.519665 243.503724 
L 137.070377 243.503724 
L 137.070377 241.93098 
L 138.764847 241.93098 
L 138.764847 239.83399 
L 139.653523 239.83399 
L 139.653523 239.309742 
L 141.243253 239.309742 
L 141.243253 238.261246 
L 141.424506 238.261246 
L 141.424506 237.212751 
L 141.898705 237.212751 
L 141.898705 236.688503 
L 142.473629 236.688503 
L 142.473629 235.11576 
L 142.920112 235.11576 
L 142.975116 234.067265 
L 143.301492 234.067265 
L 143.301492 230.921778 
L 144.498158 230.921778 
L 144.498158 230.397531 
L 145.757607 230.397531 
L 145.757607 229.873283 
L 145.989576 229.873283 
L 145.989576 229.349035 
L 146.263868 229.349035 
L 146.263868 228.824787 
L 147.233741 228.824787 
L 147.233741 226.727797 
L 147.446737 226.727797 
L 147.446737 226.203549 
L 147.615255 226.203549 
L 147.615255 225.679301 
L 148.273273 225.679301 
L 148.273273 225.155053 
L 152.34921 225.155053 
L 152.34921 224.630806 
L 152.601988 224.630806 
L 152.601988 222.009567 
L 152.851103 222.009567 
L 152.851103 221.485319 
L 154.723825 221.485319 
L 154.751526 219.388328 
L 154.971544 219.388328 
L 154.971544 217.291338 
L 155.215743 217.291338 
L 155.242663 215.194347 
L 155.429934 215.194347 
L 155.429934 214.670099 
L 156.412409 214.670099 
L 156.412409 214.145851 
L 156.785279 214.145851 
L 156.809852 212.573108 
L 157.341751 212.573108 
L 157.341751 211.524613 
L 157.601653 211.524613 
L 157.695196 208.379126 
L 158.178119 208.379126 
L 158.178119 207.854879 
L 158.448103 207.854879 
L 158.448103 206.806383 
L 159.062048 206.806383 
L 159.062048 204.709392 
L 159.529506 204.709392 
L 159.529506 200.515411 
L 160.004989 200.515411 
L 160.066049 196.845677 
L 161.544716 196.845677 
L 161.544716 195.272933 
L 162.095093 195.272933 
L 162.095093 193.70019 
L 163.094612 193.70019 
L 163.094612 193.175943 
L 163.598221 193.175943 
L 163.697196 192.127447 
L 163.730061 192.127447 
L 163.795604 190.554704 
L 164.183699 190.554704 
L 164.183699 190.030456 
L 164.342854 190.030456 
L 164.342854 189.506209 
L 164.687893 189.506209 
L 164.734412 184.263731 
L 165.237976 184.263731 
L 165.237976 182.16674 
L 165.432369 182.16674 
L 165.432369 181.642493 
L 165.843741 181.642493 
L 165.843741 181.118245 
L 166.074464 181.118245 
L 166.074464 179.545502 
L 166.202898 179.545502 
L 166.231309 175.875768 
L 166.372663 175.875768 
L 166.372663 174.303025 
L 167.450289 174.303025 
L 167.503095 172.730281 
L 167.764723 172.730281 
L 167.86827 171.681786 
L 168.047988 171.681786 
L 168.07351 170.109043 
L 168.38937 170.109043 
L 168.38937 169.060547 
L 168.760896 169.060547 
L 168.834248 164.866566 
L 168.943691 164.866566 
L 168.943691 164.342318 
L 169.714079 164.342318 
L 169.714079 163.293823 
L 170.01282 163.293823 
L 170.01282 162.769575 
L 170.506844 162.769575 
L 170.584146 161.196832 
L 170.737715 161.196832 
L 170.737715 160.672584 
L 171.11574 160.672584 
L 171.11574 159.099841 
L 171.370234 159.099841 
L 171.370234 157.527098 
L 171.516967 157.527098 
L 171.516967 157.00285 
L 171.82724 157.00285 
L 171.82724 154.381611 
L 171.980301 154.381611 
L 171.990456 151.760373 
L 172.172241 151.760373 
L 172.172241 151.236125 
L 172.490743 151.236125 
L 172.490743 147.566391 
L 173.243227 147.566391 
L 173.243227 147.042143 
L 173.524094 147.042143 
L 173.524094 145.4694 
L 173.681237 145.4694 
L 173.681237 144.420905 
L 173.891582 144.420905 
L 173.973196 142.848162 
L 174.099384 142.848162 
L 174.188955 140.751171 
L 174.568879 140.751171 
L 174.612516 138.65418 
L 175.362932 138.65418 
L 175.429555 132.887455 
L 175.512472 132.887455 
L 175.512472 132.363207 
L 175.767001 132.363207 
L 175.85642 129.741969 
L 175.896911 129.741969 
L 175.896911 128.693473 
L 176.073949 128.693473 
L 176.09795 126.072235 
L 176.201569 126.072235 
L 176.201569 125.023739 
L 176.359772 125.023739 
L 176.359772 123.975244 
L 176.50092 123.975244 
L 176.602144 122.926748 
L 176.640919 122.926748 
L 176.640919 120.829757 
L 176.940393 120.829757 
L 176.940393 120.30551 
L 177.091969 120.30551 
L 177.137183 117.684271 
L 177.316856 117.684271 
L 177.316856 116.111528 
L 177.859315 116.111528 
L 177.859315 115.063032 
L 178.088691 115.063032 
L 178.088691 114.014537 
L 178.237572 114.014537 
L 178.272831 112.966042 
L 178.378176 112.966042 
L 178.385176 110.344803 
L 178.517638 110.344803 
L 178.573107 109.296308 
L 178.635298 109.296308 
L 178.635298 108.247812 
L 178.752157 108.247812 
L 178.800046 105.626573 
L 178.997033 105.626573 
L 179.08461 103.529583 
L 179.131583 103.529583 
L 179.131583 101.432592 
L 179.437107 101.432592 
L 179.542117 97.762858 
L 179.555198 97.762858 
L 179.555198 97.23861 
L 180.013244 97.23861 
L 180.10214 91.471885 
L 180.409705 91.471885 
L 180.409705 90.947637 
L 180.669021 90.947637 
L 180.766788 89.899142 
L 180.809387 89.899142 
L 180.882169 87.277903 
L 181.104659 87.277903 
L 181.188099 80.986931 
L 181.235598 80.986931 
L 181.235598 80.462683 
L 181.605134 80.462683 
L 181.610936 78.365692 
L 181.84715 78.365692 
L 181.892865 77.317197 
L 182.068869 77.317197 
L 182.068869 76.792949 
L 182.265441 76.792949 
L 182.29334 75.220206 
L 182.421096 75.220206 
L 182.52042 72.598967 
L 182.591799 72.598967 
L 182.619174 66.832242 
L 183.008612 66.832242 
L 183.008612 66.307995 
L 183.221214 66.307995 
L 183.221214 65.783747 
L 183.358008 65.783747 
L 183.389422 62.114013 
L 183.571534 62.114013 
L 183.571534 60.54127 
L 183.833491 60.54127 
L 183.914857 58.444279 
L 184.306095 58.444279 
L 184.39513 55.298792 
L 184.488613 55.298792 
L 184.488613 53.726049 
L 184.62059 53.726049 
L 184.62059 53.201802 
L 184.756392 53.201802 
L 184.799816 51.104811 
L 184.919866 51.104811 
L 185.010546 48.483572 
L 185.195194 48.483572 
L 185.289121 44.28959 
L 185.331221 44.28959 
L 185.331221 42.716847 
L 185.503225 42.716847 
L 185.503225 39.047113 
L 185.632256 39.047113 
L 185.714695 37.47437 
L 185.905531 37.47437 
L 185.905531 36.950122 
L 186.080857 36.950122 
L 186.178977 33.804636 
L 186.57464 33.804636 
L 186.57464 33.280388 
L 186.713154 33.280388 
L 186.799162 30.65915 
L 186.846284 30.65915 
L 186.846284 30.134902 
L 187.088411 30.134902 
L 187.088411 29.610654 
L 187.803072 29.610654 
L 187.803072 28.037911 
L 188.446381 28.037911 
L 188.446381 27.513663 
L 333.168 27.513663 
L 333.168 27.513663 
" style="fill:none;stroke:#00bfbf;stroke-linecap:square;stroke-width:1.5;"/>
   </g>
   <g id="line2d_39">
    <defs>
     <path d="M -6 0 
L 6 0 
M 0 6 
L 0 -6 
" id="m822d8ae838" style="stroke:#00bfbf;stroke-width:1.5;"/>
    </defs>
    <g>
     <use style="fill-opacity:0;stroke:#00bfbf;stroke-width:1.5;" x="95.698286" xlink:href="#m822d8ae838" y="267.094871"/>
     <use style="fill-opacity:0;stroke:#00bfbf;stroke-width:1.5;" x="162.095093" xlink:href="#m822d8ae838" y="193.70019"/>
     <use style="fill-opacity:0;stroke:#00bfbf;stroke-width:1.5;" x="179.08461" xlink:href="#m822d8ae838" y="103.529583"/>
     <use style="fill-opacity:0;stroke:#00bfbf;stroke-width:1.5;" x="188.446381" xlink:href="#m822d8ae838" y="28.037911"/>
     <use style="fill-opacity:0;stroke:#00bfbf;stroke-width:1.5;" x="188.446381" xlink:href="#m822d8ae838" y="27.513663"/>
     <use style="fill-opacity:0;stroke:#00bfbf;stroke-width:1.5;" x="333.168" xlink:href="#m822d8ae838" y="27.513663"/>
    </g>
   </g>
   <g id="line2d_40">
    <path style="fill:none;stroke:#00bfbf;stroke-linecap:square;stroke-width:1.5;"/>
    <g/>
   </g>
   <g id="line2d_41">
    <defs>
     <path d="M 0 1.5 
C 0.397805 1.5 0.77937 1.341951 1.06066 1.06066 
C 1.341951 0.77937 1.5 0.397805 1.5 0 
C 1.5 -0.397805 1.341951 -0.77937 1.06066 -1.06066 
C 0.77937 -1.341951 0.397805 -1.5 0 -1.5 
C -0.397805 -1.5 -0.77937 -1.341951 -1.06066 -1.06066 
C -1.341951 -0.77937 -1.5 -0.397805 -1.5 0 
C -1.5 0.397805 -1.341951 0.77937 -1.06066 1.06066 
C -0.77937 1.341951 -0.397805 1.5 0 1.5 
z
" id="m4d624c507c" style="stroke:#008000;"/>
    </defs>
    <g>
     <use style="fill:#008000;stroke:#008000;" x="184.312706" xlink:href="#m4d624c507c" y="27.513663"/>
     <use style="fill:#008000;stroke:#008000;" x="184.312706" xlink:href="#m4d624c507c" y="27.513663"/>
    </g>
   </g>
   <g id="line2d_42">
    <path d="M 37.236359 294.88 
L 37.236359 294.355752 
L 49.15061 294.355752 
L 49.15061 293.831505 
L 56.12 293.831505 
L 56.12 293.307257 
L 61.064861 293.307257 
L 61.064861 291.734514 
L 64.900393 291.734514 
L 64.900393 291.210266 
L 68.034251 291.210266 
L 68.034251 290.686018 
L 91.131212 290.686018 
L 91.131212 289.637523 
L 93.238578 289.637523 
L 93.238578 289.113275 
L 93.887283 289.113275 
L 93.887283 288.06478 
L 98.347925 288.06478 
L 98.347925 287.016284 
L 104.131422 287.016284 
L 104.131422 286.492036 
L 104.819059 286.492036 
L 104.819059 285.443541 
L 105.801534 285.443541 
L 105.801534 284.919293 
L 106.426644 284.919293 
L 106.426644 284.395046 
L 108.176149 284.395046 
L 108.176149 282.822302 
L 108.451173 282.822302 
L 108.451173 281.249559 
L 108.988361 281.249559 
L 108.988361 280.725312 
L 110.746395 280.725312 
L 110.746395 280.201064 
L 114.581927 280.201064 
L 114.581927 279.676816 
L 115.329377 279.676816 
L 115.329377 279.152568 
L 115.511269 279.152568 
L 115.511269 278.104073 
L 117.06708 278.104073 
L 117.06708 277.579825 
L 117.394493 277.579825 
L 117.394493 276.53133 
L 117.55589 276.53133 
L 117.55589 275.482834 
L 123.131597 275.482834 
L 123.131597 273.910091 
L 123.7027 273.910091 
L 123.7027 270.764605 
L 126.207287 270.764605 
L 126.207287 270.240357 
L 126.591406 270.240357 
L 126.591406 269.716109 
L 127.42552 269.716109 
L 127.42552 268.667614 
L 128.647561 268.667614 
L 128.647561 268.143366 
L 128.898495 268.143366 
L 128.981332 263.425137 
L 129.70943 263.425137 
L 129.788458 261.852394 
L 130.932248 261.852394 
L 130.932248 261.328146 
L 131.224827 261.328146 
L 131.224827 260.803898 
L 133.465568 260.803898 
L 133.465568 258.18266 
L 134.515111 258.18266 
L 134.515111 257.134164 
L 135.276571 257.134164 
L 135.276571 256.609917 
L 135.616951 256.609917 
L 135.616951 255.037173 
L 136.169688 255.037173 
L 136.223997 253.46443 
L 136.492995 253.46443 
L 136.492995 251.891687 
L 137.528768 251.891687 
L 137.528768 251.367439 
L 142.69832 251.367439 
L 142.69832 250.318944 
L 142.846499 250.318944 
L 142.846499 249.794696 
L 143.319443 249.794696 
L 143.319443 248.221953 
L 143.533413 248.221953 
L 143.533413 247.697705 
L 144.193927 247.697705 
L 144.193927 247.173458 
L 144.397345 247.173458 
L 144.397345 246.124962 
L 145.37982 246.124962 
L 145.37982 245.600714 
L 146.489148 245.600714 
L 146.489148 244.027971 
L 146.608101 244.027971 
L 146.608101 243.503724 
L 147.075848 243.503724 
L 147.075848 242.979476 
L 147.503094 242.979476 
L 147.503094 242.455228 
L 148.724584 242.455228 
L 148.724584 241.93098 
L 149.642889 241.93098 
L 149.642889 241.406733 
L 150.035789 241.406733 
L 150.132627 239.83399 
L 150.276868 239.83399 
L 150.276868 239.309742 
L 150.538207 239.309742 
L 150.538207 237.212751 
L 151.049258 237.212751 
L 151.140565 235.11576 
L 151.389189 235.11576 
L 151.389189 234.591512 
L 151.678454 234.591512 
L 151.678454 234.067265 
L 152.20002 234.067265 
L 152.20002 233.543017 
L 152.391598 233.543017 
L 152.497115 230.921778 
L 152.560116 230.921778 
L 152.622886 227.776292 
L 152.747744 227.776292 
L 152.747744 227.252044 
L 152.99477 227.252044 
L 152.99477 226.727797 
L 153.338757 226.727797 
L 153.418704 224.106558 
L 154.98065 224.106558 
L 154.98065 223.58231 
L 155.215743 223.58231 
L 155.305314 220.961072 
L 155.500742 220.961072 
L 155.588844 218.339833 
L 155.815818 218.339833 
L 155.815818 217.815585 
L 156.159258 217.815585 
L 156.159258 216.76709 
L 156.294736 216.76709 
L 156.311596 215.194347 
L 156.445883 215.194347 
L 156.445883 214.670099 
L 156.727806 214.670099 
L 156.727806 214.145851 
L 157.26221 214.145851 
L 157.26221 213.097356 
L 157.671858 213.097356 
L 157.765022 211.000365 
L 157.903827 211.000365 
L 157.903827 209.95187 
L 158.04152 209.95187 
L 158.04152 208.903374 
L 158.313642 208.903374 
L 158.313642 208.379126 
L 159.682542 208.379126 
L 159.710221 205.23364 
L 159.889056 205.23364 
L 159.889056 204.185145 
L 160.507322 204.185145 
L 160.507322 203.136649 
L 160.834236 203.136649 
L 160.834236 202.088154 
L 161.269091 202.088154 
L 161.269091 201.563906 
L 161.766986 201.563906 
L 161.815992 200.515411 
L 161.974301 200.515411 
L 162.02272 197.369924 
L 162.11915 197.369924 
L 162.155172 196.321429 
L 162.346026 196.321429 
L 162.346026 193.70019 
L 162.49955 193.70019 
L 162.511303 192.127447 
L 163.020633 192.127447 
L 163.020633 191.078952 
L 163.145642 191.078952 
L 163.145642 190.554704 
L 163.392964 190.554704 
L 163.470918 188.981961 
L 163.790152 188.981961 
L 163.790152 188.457713 
L 164.017676 188.457713 
L 164.017676 186.88497 
L 164.242227 186.88497 
L 164.274068 185.312227 
L 164.390315 185.312227 
L 164.390315 184.787979 
L 164.516239 184.787979 
L 164.516239 183.739484 
L 164.827073 183.739484 
L 164.847597 181.642493 
L 165.091989 181.642493 
L 165.172687 180.593997 
L 165.392672 180.593997 
L 165.392672 180.06975 
L 165.727207 180.06975 
L 165.727207 179.545502 
L 165.892064 179.545502 
L 165.892064 179.021254 
L 166.207636 179.021254 
L 166.207636 177.972759 
L 166.424203 177.972759 
L 166.526822 176.400016 
L 166.922192 176.400016 
L 166.931279 173.778777 
L 167.326438 173.778777 
L 167.406159 170.633291 
L 167.450289 170.633291 
L 167.485511 168.012052 
L 167.669255 168.012052 
L 167.669255 167.487804 
L 167.962642 167.487804 
L 167.962642 166.439309 
L 168.518249 166.439309 
L 168.518249 165.915061 
L 168.650279 165.915061 
L 168.756812 162.245327 
L 168.911336 162.245327 
L 168.911336 161.721079 
L 169.192399 161.721079 
L 169.256002 160.672584 
L 169.413987 160.672584 
L 169.492438 155.430107 
L 169.562739 155.430107 
L 169.601672 153.333116 
L 169.756525 153.333116 
L 169.802711 152.28462 
L 169.909996 152.28462 
L 170.009022 151.236125 
L 170.069679 151.236125 
L 170.069679 150.711877 
L 170.20538 150.711877 
L 170.302724 148.614886 
L 170.429193 148.614886 
L 170.458816 145.4694 
L 170.620835 145.4694 
L 170.65013 143.372409 
L 170.933166 143.372409 
L 170.933166 142.323914 
L 171.062243 142.323914 
L 171.069385 141.275418 
L 171.638295 141.275418 
L 171.727873 139.702675 
L 171.912442 139.702675 
L 171.912442 138.65418 
L 172.289047 138.65418 
L 172.289047 138.129932 
L 172.428173 138.129932 
L 172.513738 136.032941 
L 172.605411 136.032941 
L 172.64455 134.984446 
L 172.806677 134.984446 
L 172.806677 134.460198 
L 173.158065 134.460198 
L 173.208582 130.790464 
L 173.446534 130.790464 
L 173.446534 130.266216 
L 173.564286 130.266216 
L 173.564286 128.693473 
L 173.7608 128.693473 
L 173.7608 128.169225 
L 173.88249 128.169225 
L 173.88249 127.12073 
L 174.081414 127.12073 
L 174.081414 126.596482 
L 174.349016 126.596482 
L 174.349016 126.072235 
L 174.624134 126.072235 
L 174.72257 123.975244 
L 174.791716 123.975244 
L 174.866312 120.829757 
L 174.917767 120.829757 
L 174.957681 116.635776 
L 175.05423 116.635776 
L 175.05423 115.063032 
L 175.2233 115.063032 
L 175.256916 114.014537 
L 175.484877 114.014537 
L 175.556531 111.917546 
L 175.611447 111.917546 
L 175.698949 108.77206 
L 175.737092 108.77206 
L 175.807704 107.199317 
L 175.969557 107.199317 
L 176.028523 106.150821 
L 176.135219 106.150821 
L 176.151166 104.05383 
L 176.304566 104.05383 
L 176.304566 103.529583 
L 176.472261 103.529583 
L 176.576246 100.908344 
L 176.684757 100.908344 
L 176.756719 99.335601 
L 177.041592 99.335601 
L 177.041592 98.811353 
L 177.207279 98.811353 
L 177.207279 98.287105 
L 177.321821 98.287105 
L 177.321821 97.23861 
L 177.435604 97.23861 
L 177.514316 94.617371 
L 177.733779 94.617371 
L 177.743468 92.520381 
L 177.888155 92.520381 
L 177.888155 89.899142 
L 178.007803 89.899142 
L 178.007803 89.374894 
L 178.14556 89.374894 
L 178.21167 87.802151 
L 178.408489 87.802151 
L 178.515323 83.083922 
L 178.685805 83.083922 
L 178.731593 79.938435 
L 178.922579 79.938435 
L 179.026275 77.841444 
L 179.222923 77.841444 
L 179.222923 76.792949 
L 179.487504 76.792949 
L 179.592207 74.17171 
L 179.752384 74.17171 
L 179.752384 73.123215 
L 179.876893 73.123215 
L 179.906813 71.550472 
L 179.992011 71.550472 
L 180.081016 69.453481 
L 180.135885 69.453481 
L 180.240912 67.35649 
L 180.286921 67.35649 
L 180.361944 63.686756 
L 180.469736 63.686756 
L 180.469736 62.114013 
L 180.658805 62.114013 
L 180.711862 58.444279 
L 180.954644 58.444279 
L 180.954644 56.871536 
L 181.094699 56.871536 
L 181.094699 56.347288 
L 181.296757 56.347288 
L 181.39886 50.056315 
L 181.441876 50.056315 
L 181.550887 44.813838 
L 181.578032 44.813838 
L 181.578032 44.28959 
L 181.873832 44.28959 
L 181.930867 42.192599 
L 182.085806 42.192599 
L 182.085806 41.668352 
L 182.22444 41.668352 
L 182.310058 40.619856 
L 182.50207 40.619856 
L 182.589973 38.522865 
L 182.619174 38.522865 
L 182.72099 35.901627 
L 182.782514 35.901627 
L 182.782514 34.853131 
L 182.897729 34.853131 
L 182.897729 33.804636 
L 183.051344 33.804636 
L 183.051344 32.756141 
L 183.185963 32.756141 
L 183.270445 31.707645 
L 183.333536 31.707645 
L 183.382446 30.65915 
L 183.528349 30.65915 
L 183.528349 30.134902 
L 183.666162 30.134902 
L 183.714137 29.086407 
L 184.016027 29.086407 
L 184.066389 28.037911 
L 184.312706 28.037911 
L 184.312706 27.513663 
L 333.168 27.513663 
L 333.168 27.513663 
" style="fill:none;stroke:#008000;stroke-linecap:square;stroke-width:1.5;"/>
   </g>
   <g id="line2d_43">
    <defs>
     <path d="M -0 6 
L 6 -6 
L -6 -6 
z
" id="m68e423dd48" style="stroke:#008000;stroke-linejoin:miter;stroke-width:1.5;"/>
    </defs>
    <g>
     <use style="fill-opacity:0;stroke:#008000;stroke-linejoin:miter;stroke-width:1.5;" x="68.034251" xlink:href="#m68e423dd48" y="290.686018"/>
     <use style="fill-opacity:0;stroke:#008000;stroke-linejoin:miter;stroke-width:1.5;" x="153.398752" xlink:href="#m68e423dd48" y="225.679301"/>
     <use style="fill-opacity:0;stroke:#008000;stroke-linejoin:miter;stroke-width:1.5;" x="178.731593" xlink:href="#m68e423dd48" y="81.511178"/>
     <use style="fill-opacity:0;stroke:#008000;stroke-linejoin:miter;stroke-width:1.5;" x="184.312706" xlink:href="#m68e423dd48" y="28.037911"/>
     <use style="fill-opacity:0;stroke:#008000;stroke-linejoin:miter;stroke-width:1.5;" x="184.312706" xlink:href="#m68e423dd48" y="27.513663"/>
     <use style="fill-opacity:0;stroke:#008000;stroke-linejoin:miter;stroke-width:1.5;" x="333.168" xlink:href="#m68e423dd48" y="27.513663"/>
    </g>
   </g>
   <g id="line2d_44">
    <path style="fill:none;stroke:#008000;stroke-linecap:square;stroke-width:1.5;"/>
    <g/>
   </g>
   <g id="line2d_45">
    <defs>
     <path d="M 0 1.5 
C 0.397805 1.5 0.77937 1.341951 1.06066 1.06066 
C 1.341951 0.77937 1.5 0.397805 1.5 0 
C 1.5 -0.397805 1.341951 -0.77937 1.06066 -1.06066 
C 0.77937 -1.341951 0.397805 -1.5 0 -1.5 
C -0.397805 -1.5 -0.77937 -1.341951 -1.06066 -1.06066 
C -1.341951 -0.77937 -1.5 -0.397805 -1.5 0 
C -1.5 0.397805 -1.341951 0.77937 -1.06066 1.06066 
C -0.77937 1.341951 -0.397805 1.5 0 1.5 
z
" id="m446835e5ce" style="stroke:#0000ff;"/>
    </defs>
    <g>
     <use style="fill:#0000ff;stroke:#0000ff;" x="237.354272" xlink:href="#m446835e5ce" y="27.513663"/>
     <use style="fill:#0000ff;stroke:#0000ff;" x="237.354272" xlink:href="#m446835e5ce" y="27.513663"/>
    </g>
   </g>
   <g id="line2d_46">
    <path d="M 52.284468 294.88 
L 52.284468 294.355752 
L 69.672503 294.355752 
L 69.672503 293.831505 
L 72.543934 293.831505 
L 72.543934 292.783009 
L 77.155024 292.783009 
L 77.155024 291.734514 
L 96.038666 291.734514 
L 96.038666 291.210266 
L 96.372436 291.210266 
L 96.372436 290.686018 
L 108.120612 290.686018 
L 108.120612 289.113275 
L 109.406343 289.113275 
L 109.406343 288.589027 
L 110.746395 288.589027 
L 110.746395 288.06478 
L 111.170827 288.06478 
L 111.170827 287.540532 
L 114.351204 287.540532 
L 114.351204 287.016284 
L 116.934349 287.016284 
L 116.934349 286.492036 
L 121.086731 286.492036 
L 121.086731 283.870798 
L 121.70343 283.870798 
L 121.70343 283.34655 
L 122.151854 283.34655 
L 122.151854 282.822302 
L 123.085078 282.822302 
L 123.085078 280.725312 
L 125.187069 280.725312 
L 125.187069 280.201064 
L 126.323427 280.201064 
L 126.323427 279.676816 
L 128.444143 279.676816 
L 128.444143 279.152568 
L 128.647561 279.152568 
L 128.647561 278.628321 
L 130.007824 278.628321 
L 130.007824 277.055578 
L 131.526768 277.055578 
L 131.526768 276.53133 
L 131.907344 276.53133 
L 131.907344 275.482834 
L 132.843288 275.482834 
L 132.843288 274.434339 
L 132.961694 274.434339 
L 132.961694 273.910091 
L 133.427329 273.910091 
L 133.427329 273.385844 
L 134.213018 273.385844 
L 134.213018 272.337348 
L 134.681992 272.337348 
L 134.788423 270.240357 
L 135.684226 270.240357 
L 135.684226 268.667614 
L 135.917635 268.667614 
L 135.917635 267.094871 
L 136.049602 267.094871 
L 136.049602 266.570623 
L 137.163039 266.570623 
L 137.163039 266.046375 
L 137.346876 266.046375 
L 137.346876 264.99788 
L 137.558897 264.99788 
L 137.558897 263.425137 
L 139.411992 263.425137 
L 139.411992 262.376641 
L 139.733284 262.376641 
L 139.733284 261.328146 
L 141.328075 261.328146 
L 141.328075 259.231155 
L 141.591967 259.231155 
L 141.591967 258.706907 
L 142.964129 258.706907 
L 143.073681 257.658412 
L 143.095508 257.658412 
L 143.095508 257.134164 
L 143.590024 257.134164 
L 143.590024 256.609917 
L 143.716722 256.609917 
L 143.821595 255.561421 
L 144.558363 255.561421 
L 144.558363 255.037173 
L 145.187766 255.037173 
L 145.187766 254.512926 
L 145.43702 254.512926 
L 145.43702 253.988678 
L 145.588629 253.988678 
L 145.588629 253.46443 
L 145.813566 253.46443 
L 145.813566 252.940182 
L 146.453301 252.940182 
L 146.507044 251.367439 
L 147.173625 251.367439 
L 147.276552 249.270448 
L 147.378865 249.270448 
L 147.378865 248.221953 
L 147.564873 248.221953 
L 147.564873 246.64921 
L 147.782136 246.64921 
L 147.848437 244.027971 
L 147.947413 244.027971 
L 148.013081 242.979476 
L 149.061881 242.979476 
L 149.061881 242.455228 
L 150.079434 242.455228 
L 150.151929 240.882485 
L 150.252912 240.882485 
L 150.252912 239.83399 
L 150.367599 239.83399 
L 150.438891 238.261246 
L 150.651012 238.261246 
L 150.651012 237.736999 
L 151.190579 237.736999 
L 151.190579 237.212751 
L 151.48764 237.212751 
L 151.48764 236.164255 
L 151.766488 236.164255 
L 151.871538 234.591512 
L 153.882971 234.591512 
L 153.882971 234.067265 
L 154.068295 234.067265 
L 154.068295 233.018769 
L 154.183116 233.018769 
L 154.183116 232.494521 
L 154.579054 232.494521 
L 154.579054 231.970274 
L 155.344578 231.970274 
L 155.387309 228.824787 
L 155.493675 228.824787 
L 155.493675 228.30054 
L 156.169456 228.30054 
L 156.169456 227.776292 
L 156.67179 227.776292 
L 156.67179 227.252044 
L 156.819671 227.252044 
L 156.819671 225.679301 
L 157.034288 225.679301 
L 157.034288 225.155053 
L 157.207912 225.155053 
L 157.294071 223.058063 
L 157.370295 223.058063 
L 157.427243 222.009567 
L 157.634451 222.009567 
L 157.634451 220.961072 
L 157.746429 220.961072 
L 157.746429 220.436824 
L 158.41235 220.436824 
L 158.41235 219.912576 
L 158.992983 219.912576 
L 158.992983 218.864081 
L 159.335568 218.864081 
L 159.360989 217.291338 
L 159.495934 217.291338 
L 159.495934 216.76709 
L 160.324166 216.76709 
L 160.388094 213.621604 
L 160.633594 213.621604 
L 160.633594 213.097356 
L 160.79014 213.097356 
L 160.875636 211.524613 
L 160.968422 211.524613 
L 161.014628 209.427622 
L 161.099018 209.427622 
L 161.099018 208.903374 
L 161.567073 208.903374 
L 161.567073 208.379126 
L 162.06618 208.379126 
L 162.145574 206.806383 
L 162.346026 206.806383 
L 162.346026 206.282136 
L 162.480729 206.282136 
L 162.558234 205.23364 
L 162.809473 205.23364 
L 162.809473 204.709392 
L 163.029755 204.709392 
L 163.029755 204.185145 
L 163.186357 204.185145 
L 163.186357 203.660897 
L 163.588292 203.660897 
L 163.687324 200.515411 
L 163.831547 200.515411 
L 163.909707 195.272933 
L 164.553838 195.272933 
L 164.603841 194.224438 
L 164.684787 194.224438 
L 164.684787 193.70019 
L 164.913109 193.70019 
L 164.913109 193.175943 
L 165.562721 193.175943 
L 165.562721 192.651695 
L 165.849547 192.651695 
L 165.849547 191.603199 
L 166.148787 191.603199 
L 166.148787 191.078952 
L 166.676845 191.078952 
L 166.682377 189.506209 
L 166.880329 189.506209 
L 166.880329 188.981961 
L 167.113822 188.981961 
L 167.113822 188.457713 
L 167.354825 188.457713 
L 167.418526 186.88497 
L 167.481992 186.88497 
L 167.560996 184.787979 
L 167.837271 184.787979 
L 167.852778 182.16674 
L 168.012195 182.16674 
L 168.053096 180.593997 
L 168.276328 180.593997 
L 168.276328 179.545502 
L 168.466813 179.545502 
L 168.466813 179.021254 
L 168.600887 179.021254 
L 168.600887 178.497006 
L 168.943691 178.497006 
L 168.958231 176.924263 
L 169.246477 176.924263 
L 169.246477 175.875768 
L 169.753442 175.875768 
L 169.813469 172.730281 
L 170.178325 172.730281 
L 170.178325 172.206034 
L 170.308696 172.206034 
L 170.308696 170.633291 
L 170.632559 170.633291 
L 170.676452 169.584795 
L 171.100778 169.584795 
L 171.100778 169.060547 
L 171.351277 169.060547 
L 171.351277 168.5363 
L 171.464706 168.5363 
L 171.552414 167.487804 
L 171.874323 167.487804 
L 171.886585 165.915061 
L 172.2784 165.915061 
L 172.314305 163.293823 
L 172.457181 163.293823 
L 172.457181 162.769575 
L 172.782132 162.769575 
L 172.782132 162.245327 
L 173.324213 162.245327 
L 173.391722 160.148336 
L 173.607466 160.148336 
L 173.688597 158.575593 
L 173.831485 158.575593 
L 173.849719 157.00285 
L 174.023782 157.00285 
L 174.023782 156.478602 
L 174.206814 156.478602 
L 174.281617 154.905859 
L 174.528635 154.905859 
L 174.532138 153.333116 
L 174.981585 153.333116 
L 174.981585 152.808868 
L 175.151367 152.808868 
L 175.208713 151.760373 
L 175.296051 151.760373 
L 175.342895 150.18763 
L 175.581814 150.18763 
L 175.611447 148.614886 
L 175.830455 148.614886 
L 175.940535 145.993648 
L 176.004961 145.993648 
L 176.004961 145.4694 
L 176.126707 145.4694 
L 176.228566 141.799666 
L 176.348745 141.799666 
L 176.348745 140.226923 
L 176.496234 140.226923 
L 176.543039 138.129932 
L 176.728998 138.129932 
L 176.728998 137.605684 
L 176.84574 137.605684 
L 176.84574 136.557189 
L 177.143202 136.557189 
L 177.143202 136.032941 
L 177.358511 136.032941 
L 177.429686 133.93595 
L 177.54178 133.93595 
L 177.54178 133.411703 
L 177.653147 133.411703 
L 177.763798 130.266216 
L 177.772503 130.266216 
L 177.772503 129.741969 
L 177.994444 129.741969 
L 178.03449 128.169225 
L 178.196581 128.169225 
L 178.196581 127.12073 
L 178.326286 127.12073 
L 178.326286 126.596482 
L 178.862783 126.596482 
L 178.946982 125.547987 
L 179.19713 125.547987 
L 179.269077 123.975244 
L 179.665987 123.975244 
L 179.689357 122.4025 
L 179.777358 122.4025 
L 179.777358 121.878253 
L 179.911083 121.878253 
L 179.911083 121.354005 
L 180.455679 121.354005 
L 180.455679 120.30551 
L 180.645719 120.30551 
L 180.645719 119.781262 
L 181.11541 119.781262 
L 181.158345 118.208519 
L 181.453589 118.208519 
L 181.472313 117.160023 
L 181.602813 117.160023 
L 181.635283 115.58728 
L 182.509412 115.58728 
L 182.509412 115.063032 
L 183.042806 115.063032 
L 183.042806 114.538785 
L 183.389422 114.538785 
L 183.389422 113.490289 
L 184.630326 113.490289 
L 184.630326 112.966042 
L 190.2658 112.966042 
L 190.2658 112.441794 
L 191.989771 112.441794 
L 192.077084 111.393298 
L 192.342609 111.393298 
L 192.434335 110.344803 
L 192.954264 110.344803 
L 193.063065 109.296308 
L 193.166443 109.296308 
L 193.166443 108.77206 
L 193.383055 108.77206 
L 193.463585 106.675069 
L 193.629291 106.675069 
L 193.629291 106.150821 
L 193.760257 106.150821 
L 193.760257 105.626573 
L 193.946931 105.626573 
L 193.95259 104.578078 
L 194.183042 104.578078 
L 194.285468 103.005335 
L 194.419259 103.005335 
L 194.419259 102.481087 
L 194.645752 102.481087 
L 194.645752 101.956839 
L 194.790795 101.956839 
L 194.872518 100.384096 
L 194.958124 100.384096 
L 195.033745 98.287105 
L 195.286926 98.287105 
L 195.316223 95.665867 
L 195.41629 95.665867 
L 195.41629 94.093124 
L 195.644464 94.093124 
L 195.697714 92.520381 
L 195.85547 92.520381 
L 195.912111 90.947637 
L 196.043887 90.947637 
L 196.043887 89.899142 
L 196.295561 89.899142 
L 196.337972 88.850646 
L 196.696711 88.850646 
L 196.696711 88.326399 
L 197.40452 88.326399 
L 197.40452 87.802151 
L 197.739162 87.802151 
L 197.739162 86.753656 
L 198.542698 86.753656 
L 198.542698 86.229408 
L 201.70008 86.229408 
L 201.70008 85.70516 
L 201.974772 85.70516 
L 201.974772 85.180912 
L 202.187763 85.180912 
L 202.187763 84.656665 
L 202.713054 84.656665 
L 202.713054 84.132417 
L 202.882848 84.132417 
L 202.938628 83.083922 
L 202.99824 83.083922 
L 202.99824 82.559674 
L 203.148028 82.559674 
L 203.249803 81.511178 
L 203.269559 81.511178 
L 203.269559 80.462683 
L 203.610378 80.462683 
L 203.610378 79.938435 
L 203.895774 79.938435 
L 203.919873 78.365692 
L 204.102051 78.365692 
L 204.188367 77.317197 
L 204.286663 77.317197 
L 204.286663 76.792949 
L 204.416445 76.792949 
L 204.416445 75.744454 
L 204.528135 75.744454 
L 204.621471 74.17171 
L 204.871514 74.17171 
L 204.897876 73.123215 
L 207.966153 73.123215 
L 207.966153 72.598967 
L 208.15888 72.598967 
L 208.24779 71.550472 
L 208.598899 71.550472 
L 208.598899 71.026224 
L 208.728737 71.026224 
L 208.828097 69.453481 
L 208.889906 69.453481 
L 208.933987 68.404985 
L 209.007206 68.404985 
L 209.091375 67.35649 
L 209.136347 67.35649 
L 209.192863 65.783747 
L 209.266383 65.783747 
L 209.335428 64.211004 
L 209.49424 64.211004 
L 209.49424 63.162508 
L 209.724541 63.162508 
L 209.822369 61.589765 
L 212.620612 61.589765 
L 212.620612 61.065517 
L 212.920527 61.065517 
L 212.970008 60.017022 
L 213.107207 60.017022 
L 213.177248 58.444279 
L 213.277181 58.444279 
L 213.355687 56.871536 
L 213.535552 56.871536 
L 213.535552 55.82304 
L 213.69921 55.82304 
L 213.69921 55.298792 
L 214.167775 55.298792 
L 214.167775 54.774545 
L 214.481204 54.774545 
L 214.481204 54.250297 
L 216.255418 54.250297 
L 216.255418 53.726049 
L 216.405952 53.726049 
L 216.509237 52.153306 
L 216.639744 52.153306 
L 216.734423 49.532068 
L 216.751854 49.532068 
L 216.814821 48.483572 
L 217.282188 48.483572 
L 217.282188 47.959324 
L 219.189359 47.959324 
L 219.287871 46.910829 
L 219.332394 46.910829 
L 219.381183 44.28959 
L 219.588729 44.28959 
L 219.67181 43.241095 
L 221.650769 43.241095 
L 221.650769 42.716847 
L 221.816006 42.716847 
L 221.816006 42.192599 
L 221.936178 42.192599 
L 221.936178 41.668352 
L 222.333032 41.668352 
L 222.333032 41.144104 
L 223.549062 41.144104 
L 223.549062 40.619856 
L 224.098078 40.619856 
L 224.122746 39.571361 
L 225.787122 39.571361 
L 225.787122 39.047113 
L 225.970294 39.047113 
L 225.970294 38.522865 
L 227.364679 38.522865 
L 227.364679 37.998618 
L 227.601357 37.998618 
L 227.601357 37.47437 
L 227.727132 37.47437 
L 227.727132 36.950122 
L 229.020051 36.950122 
L 229.11235 35.901627 
L 229.197749 35.901627 
L 229.197749 35.377379 
L 229.312407 35.377379 
L 229.338713 33.804636 
L 230.427051 33.804636 
L 230.506311 32.756141 
L 230.603333 32.756141 
L 230.603333 32.231893 
L 233.158379 32.231893 
L 233.237764 31.183397 
L 234.217841 31.183397 
L 234.217841 30.65915 
L 235.349053 30.65915 
L 235.434465 29.610654 
L 235.476355 29.610654 
L 235.476355 29.086407 
L 237.182084 29.086407 
L 237.265981 28.037911 
L 237.354272 28.037911 
L 237.354272 27.513663 
L 333.168 27.513663 
L 333.168 27.513663 
" style="fill:none;stroke:#0000ff;stroke-linecap:square;stroke-width:1.5;"/>
   </g>
   <g id="line2d_47">
    <defs>
     <path d="M 0 -6 
L -1.347084 -1.854102 
L -5.706339 -1.854102 
L -2.179628 0.708204 
L -3.526712 4.854102 
L -0 2.291796 
L 3.526712 4.854102 
L 2.179628 0.708204 
L 5.706339 -1.854102 
L 1.347084 -1.854102 
z
" id="m019e319a7e" style="stroke:#0000ff;stroke-linejoin:bevel;stroke-width:1.5;"/>
    </defs>
    <g>
     <use style="fill-opacity:0;stroke:#0000ff;stroke-linejoin:bevel;stroke-width:1.5;" x="114.351204" xlink:href="#m019e319a7e" y="287.540532"/>
     <use style="fill-opacity:0;stroke:#0000ff;stroke-linejoin:bevel;stroke-width:1.5;" x="153.882971" xlink:href="#m019e319a7e" y="234.591512"/>
     <use style="fill-opacity:0;stroke:#0000ff;stroke-linejoin:bevel;stroke-width:1.5;" x="192.342609" xlink:href="#m019e319a7e" y="111.393298"/>
     <use style="fill-opacity:0;stroke:#0000ff;stroke-linejoin:bevel;stroke-width:1.5;" x="237.354272" xlink:href="#m019e319a7e" y="28.037911"/>
     <use style="fill-opacity:0;stroke:#0000ff;stroke-linejoin:bevel;stroke-width:1.5;" x="237.354272" xlink:href="#m019e319a7e" y="27.513663"/>
     <use style="fill-opacity:0;stroke:#0000ff;stroke-linejoin:bevel;stroke-width:1.5;" x="333.168" xlink:href="#m019e319a7e" y="27.513663"/>
    </g>
   </g>
   <g id="line2d_48">
    <path style="fill:none;stroke:#0000ff;stroke-linecap:square;stroke-width:1.5;"/>
    <g/>
   </g>
   <g id="line2d_49">
    <path clip-path="url(#p65d9759360)" d="M 186.941843 112.966042 
" style="fill:none;stroke:#0000ff;stroke-linecap:square;stroke-width:1.5;"/>
    <defs>
     <path d="M -12 12 
L 12 -12 
M -12 -12 
L 12 12 
" id="m82c17bf58b" style="stroke:#0000ff;"/>
    </defs>
    <g clip-path="url(#p65d9759360)">
     <use style="fill:#0000ff;stroke:#0000ff;" x="186.941843" xlink:href="#m82c17bf58b" y="112.966042"/>
    </g>
   </g>
   <g id="line2d_50">
    <defs>
     <path d="M 0 1.5 
C 0.397805 1.5 0.77937 1.341951 1.06066 1.06066 
C 1.341951 0.77937 1.5 0.397805 1.5 0 
C 1.5 -0.397805 1.341951 -0.77937 1.06066 -1.06066 
C 0.77937 -1.341951 0.397805 -1.5 0 -1.5 
C -0.397805 -1.5 -0.77937 -1.341951 -1.06066 -1.06066 
C -1.341951 -0.77937 -1.5 -0.397805 -1.5 0 
C -1.5 0.397805 -1.341951 0.77937 -1.06066 1.06066 
C -0.77937 1.341951 -0.397805 1.5 0 1.5 
z
" id="md641eb4ae1" style="stroke:#000000;"/>
    </defs>
    <g>
     <use style="stroke:#000000;" x="245.747647" xlink:href="#md641eb4ae1" y="231.970274"/>
     <use style="stroke:#000000;" x="245.747647" xlink:href="#md641eb4ae1" y="231.970274"/>
    </g>
   </g>
   <g id="line2d_51">
    <path d="M 110.817865 294.88 
L 110.817865 294.355752 
L 121.086731 294.355752 
L 121.086731 293.307257 
L 121.589472 293.307257 
L 121.589472 291.210266 
L 122.371755 291.210266 
L 122.371755 290.686018 
L 123.396663 290.686018 
L 123.396663 290.161771 
L 123.736371 290.161771 
L 123.736371 289.637523 
L 124.036471 289.637523 
L 124.036471 289.113275 
L 124.621395 289.113275 
L 124.621395 288.589027 
L 125.523811 288.589027 
L 125.523811 288.06478 
L 127.7659 288.06478 
L 127.7659 287.016284 
L 130.054468 287.016284 
L 130.054468 286.492036 
L 131.526768 286.492036 
L 131.526768 285.443541 
L 133.824662 285.443541 
L 133.824662 284.919293 
L 134.249551 284.919293 
L 134.249551 283.870798 
L 134.53905 283.870798 
L 134.53905 283.34655 
L 135.310914 283.34655 
L 135.310914 282.298055 
L 135.701004 282.298055 
L 135.701004 281.773807 
L 136.567566 281.773807 
L 136.567566 280.725312 
L 136.961637 280.725312 
L 136.961637 280.201064 
L 138.453347 280.201064 
L 138.46763 279.152568 
L 140.048681 279.152568 
L 140.15254 277.579825 
L 140.281488 277.579825 
L 140.281488 277.055578 
L 142.154044 277.055578 
L 142.154044 276.53133 
L 143.685135 276.53133 
L 143.685135 276.007082 
L 144.050088 276.007082 
L 144.050088 275.482834 
L 144.797098 275.482834 
L 144.797098 274.434339 
L 146.33628 274.434339 
L 146.417379 273.385844 
L 148.053996 273.385844 
L 148.053996 272.861596 
L 148.265202 272.861596 
L 148.265202 272.337348 
L 153.206025 272.337348 
L 153.206025 271.288853 
L 154.382225 271.288853 
L 154.421772 269.191862 
L 154.784709 269.191862 
L 154.784709 268.143366 
L 155.834886 268.143366 
L 155.834886 266.570623 
L 164.694103 266.570623 
L 164.694103 264.99788 
L 166.367031 264.99788 
L 166.367031 263.949385 
L 171.057956 263.949385 
L 171.057956 263.425137 
L 172.859524 263.425137 
L 172.859524 262.376641 
L 176.400667 262.376641 
L 176.400667 261.852394 
L 176.957132 261.852394 
L 176.957132 261.328146 
L 177.395618 261.328146 
L 177.395618 260.803898 
L 177.759443 260.803898 
L 177.759443 260.279651 
L 178.338922 260.279651 
L 178.338922 259.755403 
L 180.78384 259.755403 
L 180.797227 258.706907 
L 182.540217 258.706907 
L 182.540217 257.658412 
L 184.380323 257.658412 
L 184.380323 256.609917 
L 188.336114 256.609917 
L 188.336114 256.085669 
L 188.496198 256.085669 
L 188.496198 255.561421 
L 188.677125 255.561421 
L 188.677125 255.037173 
L 189.350595 255.037173 
L 189.403762 253.988678 
L 189.547669 253.988678 
L 189.547669 253.46443 
L 192.246642 253.46443 
L 192.246642 252.940182 
L 194.748167 252.940182 
L 194.853198 251.891687 
L 195.087329 251.891687 
L 195.179253 250.843192 
L 195.591048 250.843192 
L 195.591048 249.794696 
L 196.056909 249.794696 
L 196.056909 249.270448 
L 197.623006 249.270448 
L 197.623006 248.746201 
L 199.661799 248.746201 
L 199.745624 247.697705 
L 200.10263 247.697705 
L 200.208341 246.124962 
L 203.262976 246.124962 
L 203.262976 245.600714 
L 206.302918 245.600714 
L 206.302918 245.076467 
L 206.471184 245.076467 
L 206.471184 244.552219 
L 206.685904 244.552219 
L 206.685904 244.027971 
L 209.030052 244.027971 
L 209.030052 243.503724 
L 211.129658 243.503724 
L 211.129658 242.979476 
L 213.360078 242.979476 
L 213.360078 242.455228 
L 214.123204 242.455228 
L 214.123204 241.93098 
L 214.928197 241.93098 
L 214.996201 240.882485 
L 216.572945 240.882485 
L 216.572945 240.358237 
L 217.080032 240.358237 
L 217.080032 239.83399 
L 218.041389 239.83399 
L 218.041389 239.309742 
L 221.817013 239.309742 
L 221.817013 238.785494 
L 222.384518 238.785494 
L 222.384518 238.261246 
L 223.004807 238.261246 
L 223.004807 237.736999 
L 224.442649 237.736999 
L 224.442649 237.212751 
L 226.701755 237.212751 
L 226.701755 236.688503 
L 227.13061 236.688503 
L 227.13061 236.164255 
L 228.28991 236.164255 
L 228.28991 235.640008 
L 231.227569 235.640008 
L 231.227569 235.11576 
L 235.283769 235.11576 
L 235.283769 234.591512 
L 236.28628 234.591512 
L 236.28628 234.067265 
L 238.74233 234.067265 
L 238.74233 233.018769 
L 241.283881 233.018769 
L 241.283881 232.494521 
L 245.747647 232.494521 
L 245.747647 231.970274 
L 333.168 231.970274 
L 333.168 231.970274 
" style="fill:none;stroke:#000000;stroke-linecap:square;stroke-width:1.5;"/>
   </g>
   <g id="line2d_52">
    <defs>
     <path d="M 0 6 
C 1.591219 6 3.117479 5.367802 4.242641 4.242641 
C 5.367802 3.117479 6 1.591219 6 0 
C 6 -1.591219 5.367802 -3.117479 4.242641 -4.242641 
C 3.117479 -5.367802 1.591219 -6 0 -6 
C -1.591219 -6 -3.117479 -5.367802 -4.242641 -4.242641 
C -5.367802 -3.117479 -6 -1.591219 -6 0 
C -6 1.591219 -5.367802 3.117479 -4.242641 4.242641 
C -3.117479 5.367802 -1.591219 6 0 6 
z
" id="m2410784700" style="stroke:#000000;stroke-width:1.5;"/>
    </defs>
    <g>
     <use style="fill-opacity:0;stroke:#000000;stroke-width:1.5;" x="206.685904" xlink:href="#m2410784700" y="244.552219"/>
     <use style="fill-opacity:0;stroke:#000000;stroke-width:1.5;" x="245.747647" xlink:href="#m2410784700" y="232.494521"/>
     <use style="fill-opacity:0;stroke:#000000;stroke-width:1.5;" x="245.747647" xlink:href="#m2410784700" y="231.970274"/>
     <use style="fill-opacity:0;stroke:#000000;stroke-width:1.5;" x="245.747647" xlink:href="#m2410784700" y="231.970274"/>
     <use style="fill-opacity:0;stroke:#000000;stroke-width:1.5;" x="333.168" xlink:href="#m2410784700" y="231.970274"/>
    </g>
   </g>
   <g id="line2d_53">
    <path style="fill:none;stroke:#000000;stroke-linecap:square;stroke-width:1.5;"/>
    <g/>
   </g>
   <g id="line2d_54">
    <path clip-path="url(#p65d9759360)" d="M 175.027591 262.376641 
" style="fill:none;stroke:#000000;stroke-linecap:square;stroke-width:1.5;"/>
    <defs>
     <path d="M -12 12 
L 12 -12 
M -12 -12 
L 12 12 
" id="m3617afe182" style="stroke:#000000;"/>
    </defs>
    <g clip-path="url(#p65d9759360)">
     <use style="stroke:#000000;" x="175.027591" xlink:href="#m3617afe182" y="262.376641"/>
    </g>
   </g>
   <g id="line2d_55">
    <defs>
     <path d="M 0 1.5 
C 0.397805 1.5 0.77937 1.341951 1.06066 1.06066 
C 1.341951 0.77937 1.5 0.397805 1.5 0 
C 1.5 -0.397805 1.341951 -0.77937 1.06066 -1.06066 
C 0.77937 -1.341951 0.397805 -1.5 0 -1.5 
C -0.397805 -1.5 -0.77937 -1.341951 -1.06066 -1.06066 
C -1.341951 -0.77937 -1.5 -0.397805 -1.5 0 
C -1.5 0.397805 -1.341951 0.77937 -1.06066 1.06066 
C -0.77937 1.341951 -0.397805 1.5 0 1.5 
z
" id="m31280465bf" style="stroke:#ff0000;"/>
    </defs>
    <g>
     <use style="fill:#ff0000;stroke:#ff0000;" x="239.725705" xlink:href="#m31280465bf" y="273.910091"/>
     <use style="fill:#ff0000;stroke:#ff0000;" x="239.725705" xlink:href="#m31280465bf" y="273.910091"/>
    </g>
   </g>
   <g id="line2d_56">
    <path d="M 139.001743 294.88 
L 139.001743 292.258761 
L 166.414844 292.258761 
L 166.414844 291.734514 
L 177.020137 291.734514 
L 177.020137 290.161771 
L 183.16884 290.161771 
L 183.16884 289.637523 
L 187.975386 289.637523 
L 187.975386 288.589027 
L 194.600855 288.589027 
L 194.600855 287.540532 
L 199.375681 287.540532 
L 199.375681 285.967789 
L 199.38022 285.967789 
L 199.38022 285.443541 
L 203.108378 285.443541 
L 203.108378 284.919293 
L 206.173336 284.919293 
L 206.173336 283.870798 
L 206.176393 283.870798 
L 206.176393 282.298055 
L 213.027276 282.298055 
L 213.027276 281.249559 
L 216.434356 281.249559 
L 216.434356 280.725312 
L 217.91412 280.725312 
L 217.91412 280.201064 
L 219.276528 280.201064 
L 219.276528 279.676816 
L 220.538835 279.676816 
L 220.538835 279.152568 
L 220.54016 279.152568 
L 220.54016 278.628321 
L 223.849681 278.628321 
L 223.849681 278.104073 
L 223.850774 278.104073 
L 223.850774 277.579825 
L 225.748499 277.579825 
L 225.748499 277.055578 
L 226.625564 277.055578 
L 226.625564 276.53133 
L 230.439146 276.53133 
L 230.439146 276.007082 
L 231.755768 276.007082 
L 231.755768 275.482834 
L 232.979317 275.482834 
L 232.979317 274.958587 
L 237.607398 274.958587 
L 237.607398 274.434339 
L 239.725705 274.434339 
L 239.725705 273.910091 
L 333.168 273.910091 
" style="fill:none;stroke:#ff0000;stroke-linecap:square;stroke-width:1.5;"/>
   </g>
   <g id="line2d_57">
    <defs>
     <path d="M -6 6 
L 6 6 
L 6 -6 
L -6 -6 
z
" id="mc880785bd4" style="stroke:#ff0000;stroke-linejoin:miter;stroke-width:1.5;"/>
    </defs>
    <g>
     <use style="fill-opacity:0;stroke:#ff0000;stroke-linejoin:miter;stroke-width:1.5;" x="177.020137" xlink:href="#mc880785bd4" y="290.161771"/>
     <use style="fill-opacity:0;stroke:#ff0000;stroke-linejoin:miter;stroke-width:1.5;" x="239.725705" xlink:href="#mc880785bd4" y="274.434339"/>
     <use style="fill-opacity:0;stroke:#ff0000;stroke-linejoin:miter;stroke-width:1.5;" x="239.725705" xlink:href="#mc880785bd4" y="273.910091"/>
     <use style="fill-opacity:0;stroke:#ff0000;stroke-linejoin:miter;stroke-width:1.5;" x="239.725705" xlink:href="#mc880785bd4" y="273.910091"/>
     <use style="fill-opacity:0;stroke:#ff0000;stroke-linejoin:miter;stroke-width:1.5;" x="333.168" xlink:href="#mc880785bd4" y="273.910091"/>
    </g>
   </g>
   <g id="line2d_58">
    <path style="fill:none;stroke:#ff0000;stroke-linecap:square;stroke-width:1.5;"/>
    <g/>
   </g>
   <g id="line2d_59">
    <path clip-path="url(#p65d9759360)" d="M 175.026741 291.734514 
" style="fill:none;stroke:#ff0000;stroke-linecap:square;stroke-width:1.5;"/>
    <defs>
     <path d="M -12 12 
L 12 -12 
M -12 -12 
L 12 12 
" id="mf84fc9038c" style="stroke:#ff0000;"/>
    </defs>
    <g clip-path="url(#p65d9759360)">
     <use style="fill:#ff0000;stroke:#ff0000;" x="175.026741" xlink:href="#mf84fc9038c" y="291.734514"/>
    </g>
   </g>
   <g id="line2d_60">
    <path clip-path="url(#p65d9759360)" d="M 56.12 294.88 
L 56.12 294.88 
L 56.12 294.88 
L 56.12 294.88 
L 333.168 294.88 
" style="fill:none;stroke:#bf00bf;stroke-linecap:square;stroke-width:1.5;"/>
   </g>
   <g id="line2d_61">
    <defs>
     <path d="M -0 8.485281 
L 8.485281 0 
L 0 -8.485281 
L -8.485281 -0 
z
" id="md8da1045f3" style="stroke:#bf00bf;stroke-linejoin:miter;stroke-width:1.5;"/>
    </defs>
    <g clip-path="url(#p65d9759360)">
     <use style="fill-opacity:0;stroke:#bf00bf;stroke-linejoin:miter;stroke-width:1.5;" x="56.12" xlink:href="#md8da1045f3" y="294.88"/>
    </g>
   </g>
   <g id="line2d_62">
    <path clip-path="url(#p65d9759360)" style="fill:none;stroke:#bf00bf;stroke-linecap:square;stroke-width:1.5;"/>
    <g clip-path="url(#p65d9759360)">
     <use style="fill-opacity:0;stroke:#bf00bf;stroke-linejoin:miter;stroke-width:1.5;" x="-1" xlink:href="#md8da1045f3" y="562.246337"/>
     <use style="fill-opacity:0;stroke:#bf00bf;stroke-linejoin:miter;stroke-width:1.5;" x="333.168" xlink:href="#md8da1045f3" y="562.246337"/>
    </g>
   </g>
   <g id="line2d_63">
    <path d="M 333.168 294.88 
L 363.64328 289.532673 
" style="fill:none;stroke:#bf00bf;stroke-linecap:square;stroke-width:1.5;"/>
    <g>
     <use style="fill-opacity:0;stroke:#bf00bf;stroke-linejoin:miter;stroke-width:1.5;" x="333.168" xlink:href="#md8da1045f3" y="294.88"/>
     <use style="fill-opacity:0;stroke:#bf00bf;stroke-linejoin:miter;stroke-width:1.5;" x="363.64328" xlink:href="#md8da1045f3" y="289.532673"/>
    </g>
   </g>
   <g id="line2d_64">
    <path d="M 333.168 273.910091 
L 363.64328 238.198337 
" style="fill:none;stroke:#ff0000;stroke-linecap:square;stroke-width:1.5;"/>
    <g>
     <use style="fill-opacity:0;stroke:#ff0000;stroke-linejoin:miter;stroke-width:1.5;" x="333.168" xlink:href="#mc880785bd4" y="273.910091"/>
     <use style="fill-opacity:0;stroke:#ff0000;stroke-linejoin:miter;stroke-width:1.5;" x="363.64328" xlink:href="#mc880785bd4" y="238.198337"/>
    </g>
   </g>
   <g id="line2d_65">
    <path d="M 333.168 231.970274 
L 363.64328 186.864 
" style="fill:none;stroke:#000000;stroke-linecap:square;stroke-width:1.5;"/>
    <g>
     <use style="fill-opacity:0;stroke:#000000;stroke-width:1.5;" x="333.168" xlink:href="#m2410784700" y="231.970274"/>
     <use style="fill-opacity:0;stroke:#000000;stroke-width:1.5;" x="363.64328" xlink:href="#m2410784700" y="186.864"/>
    </g>
   </g>
   <g id="line2d_66">
    <path d="M 333.168 27.513663 
L 363.64328 135.529663 
" style="fill:none;stroke:#0000ff;stroke-linecap:square;stroke-width:1.5;"/>
    <g>
     <use style="fill-opacity:0;stroke:#0000ff;stroke-linejoin:bevel;stroke-width:1.5;" x="333.168" xlink:href="#m019e319a7e" y="27.513663"/>
     <use style="fill-opacity:0;stroke:#0000ff;stroke-linejoin:bevel;stroke-width:1.5;" x="363.64328" xlink:href="#m019e319a7e" y="135.529663"/>
    </g>
   </g>
   <g id="line2d_67">
    <path d="M 333.168 27.513663 
L 363.64328 84.195327 
" style="fill:none;stroke:#00bfbf;stroke-linecap:square;stroke-width:1.5;"/>
    <g>
     <use style="fill-opacity:0;stroke:#00bfbf;stroke-width:1.5;" x="333.168" xlink:href="#m822d8ae838" y="27.513663"/>
     <use style="fill-opacity:0;stroke:#00bfbf;stroke-width:1.5;" x="363.64328" xlink:href="#m822d8ae838" y="84.195327"/>
    </g>
   </g>
   <g id="line2d_68">
    <path d="M 333.168 27.513663 
L 363.64328 32.86099 
" style="fill:none;stroke:#008000;stroke-linecap:square;stroke-width:1.5;"/>
    <g>
     <use style="fill-opacity:0;stroke:#008000;stroke-linejoin:miter;stroke-width:1.5;" x="333.168" xlink:href="#m68e423dd48" y="27.513663"/>
     <use style="fill-opacity:0;stroke:#008000;stroke-linejoin:miter;stroke-width:1.5;" x="363.64328" xlink:href="#m68e423dd48" y="32.86099"/>
    </g>
   </g>
   <g id="line2d_69">
    <path d="M 333.168 294.88 
L 333.168 27.513663 
" style="fill:none;stroke:#000000;stroke-linecap:square;stroke-width:1.5;"/>
   </g>
   <g id="patch_3">
    <path d="M 56.12 294.88 
L 56.12 24.84 
" style="fill:none;stroke:#000000;stroke-linecap:square;stroke-linejoin:miter;stroke-width:0.8;"/>
   </g>
   <g id="patch_4">
    <path d="M 333.168 294.88 
L 333.168 24.84 
" style="fill:none;stroke:#000000;stroke-linecap:square;stroke-linejoin:miter;stroke-width:0.8;"/>
   </g>
   <g id="patch_5">
    <path d="M 56.12 294.88 
L 333.168 294.88 
" style="fill:none;stroke:#000000;stroke-linecap:square;stroke-linejoin:miter;stroke-width:0.8;"/>
   </g>
   <g id="patch_6">
    <path d="M 56.12 24.84 
L 333.168 24.84 
" style="fill:none;stroke:#000000;stroke-linecap:square;stroke-linejoin:miter;stroke-width:0.8;"/>
   </g>
   <g id="text_13">
    <!-- 40-D -->
    <defs>
     <path d="M 19.671875 64.796875 
L 19.671875 8.109375 
L 31.59375 8.109375 
Q 46.6875 8.109375 53.6875 14.9375 
Q 60.6875 21.78125 60.6875 36.53125 
Q 60.6875 51.171875 53.6875 57.984375 
Q 46.6875 64.796875 31.59375 64.796875 
z
M 9.8125 72.90625 
L 30.078125 72.90625 
Q 51.265625 72.90625 61.171875 64.09375 
Q 71.09375 55.28125 71.09375 36.53125 
Q 71.09375 17.671875 61.125 8.828125 
Q 51.171875 0 30.078125 0 
L 9.8125 0 
z
" id="DejaVuSans-44"/>
    </defs>
    <g transform="translate(369.18424 294.223611)scale(0.17 -0.17)">
     <use xlink:href="#DejaVuSans-34"/>
     <use x="63.623047" xlink:href="#DejaVuSans-30"/>
     <use x="127.246094" xlink:href="#DejaVuSans-2d"/>
     <use x="163.330078" xlink:href="#DejaVuSans-44"/>
    </g>
   </g>
   <g id="text_14">
    <!-- 20-D -->
    <g transform="translate(369.18424 242.889274)scale(0.17 -0.17)">
     <use xlink:href="#DejaVuSans-32"/>
     <use x="63.623047" xlink:href="#DejaVuSans-30"/>
     <use x="127.246094" xlink:href="#DejaVuSans-2d"/>
     <use x="163.330078" xlink:href="#DejaVuSans-44"/>
    </g>
   </g>
   <g id="text_15">
    <!-- 10-D -->
    <g transform="translate(369.18424 191.554937)scale(0.17 -0.17)">
     <use xlink:href="#DejaVuSans-31"/>
     <use x="63.623047" xlink:href="#DejaVuSans-30"/>
     <use x="127.246094" xlink:href="#DejaVuSans-2d"/>
     <use x="163.330078" xlink:href="#DejaVuSans-44"/>
    </g>
   </g>
   <g id="text_16">
    <!-- 5-D -->
    <defs>
     <path d="M 10.796875 72.90625 
L 49.515625 72.90625 
L 49.515625 64.59375 
L 19.828125 64.59375 
L 19.828125 46.734375 
Q 21.96875 47.46875 24.109375 47.828125 
Q 26.265625 48.1875 28.421875 48.1875 
Q 40.625 48.1875 47.75 41.5 
Q 54.890625 34.8125 54.890625 23.390625 
Q 54.890625 11.625 47.5625 5.09375 
Q 40.234375 -1.421875 26.90625 -1.421875 
Q 22.3125 -1.421875 17.546875 -0.640625 
Q 12.796875 0.140625 7.71875 1.703125 
L 7.71875 11.625 
Q 12.109375 9.234375 16.796875 8.0625 
Q 21.484375 6.890625 26.703125 6.890625 
Q 35.15625 6.890625 40.078125 11.328125 
Q 45.015625 15.765625 45.015625 23.390625 
Q 45.015625 31 40.078125 35.4375 
Q 35.15625 39.890625 26.703125 39.890625 
Q 22.75 39.890625 18.8125 39.015625 
Q 14.890625 38.140625 10.796875 36.28125 
z
" id="DejaVuSans-35"/>
    </defs>
    <g transform="translate(369.18424 140.220601)scale(0.17 -0.17)">
     <use xlink:href="#DejaVuSans-35"/>
     <use x="63.623047" xlink:href="#DejaVuSans-2d"/>
     <use x="99.707031" xlink:href="#DejaVuSans-44"/>
    </g>
   </g>
   <g id="text_17">
    <!-- 2-D -->
    <g transform="translate(369.18424 88.886264)scale(0.17 -0.17)">
     <use xlink:href="#DejaVuSans-32"/>
     <use x="63.623047" xlink:href="#DejaVuSans-2d"/>
     <use x="99.707031" xlink:href="#DejaVuSans-44"/>
    </g>
   </g>
   <g id="text_18">
    <!-- 3-D -->
    <defs>
     <path d="M 40.578125 39.3125 
Q 47.65625 37.796875 51.625 33 
Q 55.609375 28.21875 55.609375 21.1875 
Q 55.609375 10.40625 48.1875 4.484375 
Q 40.765625 -1.421875 27.09375 -1.421875 
Q 22.515625 -1.421875 17.65625 -0.515625 
Q 12.796875 0.390625 7.625 2.203125 
L 7.625 11.71875 
Q 11.71875 9.328125 16.59375 8.109375 
Q 21.484375 6.890625 26.8125 6.890625 
Q 36.078125 6.890625 40.9375 10.546875 
Q 45.796875 14.203125 45.796875 21.1875 
Q 45.796875 27.640625 41.28125 31.265625 
Q 36.765625 34.90625 28.71875 34.90625 
L 20.21875 34.90625 
L 20.21875 43.015625 
L 29.109375 43.015625 
Q 36.375 43.015625 40.234375 45.921875 
Q 44.09375 48.828125 44.09375 54.296875 
Q 44.09375 59.90625 40.109375 62.90625 
Q 36.140625 65.921875 28.71875 65.921875 
Q 24.65625 65.921875 20.015625 65.03125 
Q 15.375 64.15625 9.8125 62.3125 
L 9.8125 71.09375 
Q 15.4375 72.65625 20.34375 73.4375 
Q 25.25 74.21875 29.59375 74.21875 
Q 40.828125 74.21875 47.359375 69.109375 
Q 53.90625 64.015625 53.90625 55.328125 
Q 53.90625 49.265625 50.4375 45.09375 
Q 46.96875 40.921875 40.578125 39.3125 
z
" id="DejaVuSans-33"/>
    </defs>
    <g transform="translate(369.18424 37.551928)scale(0.17 -0.17)">
     <use xlink:href="#DejaVuSans-33"/>
     <use x="63.623047" xlink:href="#DejaVuSans-2d"/>
     <use x="99.707031" xlink:href="#DejaVuSans-44"/>
    </g>
   </g>
   <g id="text_19">
    <!-- bbob f6 -->
    <defs>
     <path d="M 48.6875 27.296875 
Q 48.6875 37.203125 44.609375 42.84375 
Q 40.53125 48.484375 33.40625 48.484375 
Q 26.265625 48.484375 22.1875 42.84375 
Q 18.109375 37.203125 18.109375 27.296875 
Q 18.109375 17.390625 22.1875 11.75 
Q 26.265625 6.109375 33.40625 6.109375 
Q 40.53125 6.109375 44.609375 11.75 
Q 48.6875 17.390625 48.6875 27.296875 
z
M 18.109375 46.390625 
Q 20.953125 51.265625 25.265625 53.625 
Q 29.59375 56 35.59375 56 
Q 45.5625 56 51.78125 48.09375 
Q 58.015625 40.1875 58.015625 27.296875 
Q 58.015625 14.40625 51.78125 6.484375 
Q 45.5625 -1.421875 35.59375 -1.421875 
Q 29.59375 -1.421875 25.265625 0.953125 
Q 20.953125 3.328125 18.109375 8.203125 
L 18.109375 0 
L 9.078125 0 
L 9.078125 75.984375 
L 18.109375 75.984375 
z
" id="DejaVuSans-62"/>
    </defs>
    <g transform="translate(58.89048 35.290806)scale(0.102 -0.102)">
     <use xlink:href="#DejaVuSans-62"/>
     <use x="63.476562" xlink:href="#DejaVuSans-62"/>
     <use x="126.953125" xlink:href="#DejaVuSans-6f"/>
     <use x="188.134766" xlink:href="#DejaVuSans-62"/>
     <use x="251.611328" xlink:href="#DejaVuSans-20"/>
     <use x="283.398438" xlink:href="#DejaVuSans-66"/>
     <use x="318.603516" xlink:href="#DejaVuSans-36"/>
    </g>
    <!-- 51 targets: 100..1e-08 -->
    <defs>
     <path d="M 11.71875 12.40625 
L 22.015625 12.40625 
L 22.015625 0 
L 11.71875 0 
z
M 11.71875 51.703125 
L 22.015625 51.703125 
L 22.015625 39.3125 
L 11.71875 39.3125 
z
" id="DejaVuSans-3a"/>
    </defs>
    <g transform="translate(58.89048 46.712575)scale(0.102 -0.102)">
     <use xlink:href="#DejaVuSans-35"/>
     <use x="63.623047" xlink:href="#DejaVuSans-31"/>
     <use x="127.246094" xlink:href="#DejaVuSans-20"/>
     <use x="159.033203" xlink:href="#DejaVuSans-74"/>
     <use x="198.242188" xlink:href="#DejaVuSans-61"/>
     <use x="259.521484" xlink:href="#DejaVuSans-72"/>
     <use x="300.619141" xlink:href="#DejaVuSans-67"/>
     <use x="364.095703" xlink:href="#DejaVuSans-65"/>
     <use x="425.619141" xlink:href="#DejaVuSans-74"/>
     <use x="464.828125" xlink:href="#DejaVuSans-73"/>
     <use x="516.927734" xlink:href="#DejaVuSans-3a"/>
     <use x="550.619141" xlink:href="#DejaVuSans-20"/>
     <use x="582.40625" xlink:href="#DejaVuSans-31"/>
     <use x="646.029297" xlink:href="#DejaVuSans-30"/>
     <use x="709.652344" xlink:href="#DejaVuSans-30"/>
     <use x="773.275391" xlink:href="#DejaVuSans-2e"/>
     <use x="805.0625" xlink:href="#DejaVuSans-2e"/>
     <use x="836.849609" xlink:href="#DejaVuSans-31"/>
     <use x="900.472656" xlink:href="#DejaVuSans-65"/>
     <use x="961.996094" xlink:href="#DejaVuSans-2d"/>
     <use x="998.080078" xlink:href="#DejaVuSans-30"/>
     <use x="1061.703125" xlink:href="#DejaVuSans-38"/>
    </g>
    <!-- 15 instances -->
    <g transform="translate(58.89048 58.134344)scale(0.102 -0.102)">
     <use xlink:href="#DejaVuSans-31"/>
     <use x="63.623047" xlink:href="#DejaVuSans-35"/>
     <use x="127.246094" xlink:href="#DejaVuSans-20"/>
     <use x="159.033203" xlink:href="#DejaVuSans-69"/>
     <use x="186.816406" xlink:href="#DejaVuSans-6e"/>
     <use x="250.195312" xlink:href="#DejaVuSans-73"/>
     <use x="302.294922" xlink:href="#DejaVuSans-74"/>
     <use x="341.503906" xlink:href="#DejaVuSans-61"/>
     <use x="402.783203" xlink:href="#DejaVuSans-6e"/>
     <use x="466.162109" xlink:href="#DejaVuSans-63"/>
     <use x="521.142578" xlink:href="#DejaVuSans-65"/>
     <use x="582.666016" xlink:href="#DejaVuSans-73"/>
    </g>
   </g>
   <g id="text_20">
    <!-- v0.0.0 -->
    <g style="fill:#808080;" transform="translate(178.96275 290.099912)scale(0.1 -0.1)">
     <use xlink:href="#DejaVuSans-76"/>
     <use x="59.179688" xlink:href="#DejaVuSans-30"/>
     <use x="122.802734" xlink:href="#DejaVuSans-2e"/>
     <use x="154.589844" xlink:href="#DejaVuSans-30"/>
     <use x="218.212891" xlink:href="#DejaVuSans-2e"/>
     <use x="250" xlink:href="#DejaVuSans-30"/>
    </g>
   </g>
   <g id="text_21">
    <!-- 6 Attractive sector -->
    <defs>
     <path d="M 34.1875 63.1875 
L 20.796875 26.90625 
L 47.609375 26.90625 
z
M 28.609375 72.90625 
L 39.796875 72.90625 
L 67.578125 0 
L 57.328125 0 
L 50.6875 18.703125 
L 17.828125 18.703125 
L 11.1875 0 
L 0.78125 0 
z
" id="DejaVuSans-41"/>
    </defs>
    <g transform="translate(101.726812 18.84)scale(0.2 -0.2)">
     <use xlink:href="#DejaVuSans-36"/>
     <use x="63.623047" xlink:href="#DejaVuSans-20"/>
     <use x="95.410156" xlink:href="#DejaVuSans-41"/>
     <use x="163.802734" xlink:href="#DejaVuSans-74"/>
     <use x="203.011719" xlink:href="#DejaVuSans-74"/>
     <use x="242.220703" xlink:href="#DejaVuSans-72"/>
     <use x="283.333984" xlink:href="#DejaVuSans-61"/>
     <use x="344.613281" xlink:href="#DejaVuSans-63"/>
     <use x="399.59375" xlink:href="#DejaVuSans-74"/>
     <use x="438.802734" xlink:href="#DejaVuSans-69"/>
     <use x="466.585938" xlink:href="#DejaVuSans-76"/>
     <use x="525.765625" xlink:href="#DejaVuSans-65"/>
     <use x="587.289062" xlink:href="#DejaVuSans-20"/>
     <use x="619.076172" xlink:href="#DejaVuSans-73"/>
     <use x="671.175781" xlink:href="#DejaVuSans-65"/>
     <use x="732.699219" xlink:href="#DejaVuSans-63"/>
     <use x="787.679688" xlink:href="#DejaVuSans-74"/>
     <use x="826.888672" xlink:href="#DejaVuSans-6f"/>
     <use x="888.070312" xlink:href="#DejaVuSans-72"/>
    </g>
   </g>
  </g>
 </g>
 <defs>
  <clipPath id="p65d9759360">
   <rect height="270.04" width="277.048" x="56.12" y="24.84"/>
  </clipPath>
 </defs>
</svg>
