<?xml version="1.0" encoding="utf-8" standalone="no"?>
<!DOCTYPE svg PUBLIC "-//W3C//DTD SVG 1.1//EN"
  "http://www.w3.org/Graphics/SVG/1.1/DTD/svg11.dtd">
<!-- Created with matplotlib (http://matplotlib.org/) -->
<svg height="345.6pt" version="1.1" viewBox="0 0 460.8 345.6" width="460.8pt" xmlns="http://www.w3.org/2000/svg" xmlns:xlink="http://www.w3.org/1999/xlink">
 <defs>
  <style type="text/css">
*{stroke-linecap:butt;stroke-linejoin:round;}
  </style>
 </defs>
 <g id="figure_1">
  <g id="patch_1">
   <path d="M 0 345.6 
L 460.8 345.6 
L 460.8 0 
L 0 0 
z
" style="fill:#ffffff;"/>
  </g>
  <g id="axes_1">
   <g id="patch_2">
    <path d="M 56.12 294.88 
L 333.168 294.88 
L 333.168 24.84 
L 56.12 24.84 
z
" style="fill:#ffffff;"/>
   </g>
   <g id="matplotlib.axis_1">
    <g id="xtick_1">
     <g id="line2d_1">
      <path clip-path="url(#pf3f6a525fb)" d="M 56.12 294.88 
L 56.12 24.84 
" style="fill:none;stroke:#b0b0b0;stroke-linecap:square;stroke-width:0.8;"/>
     </g>
     <g id="line2d_2">
      <defs>
       <path d="M 0 0 
L 0 3.5 
" id="m6efd14e7bf" style="stroke:#000000;stroke-width:0.8;"/>
      </defs>
      <g>
       <use style="stroke:#000000;stroke-width:0.8;" x="56.12" xlink:href="#m6efd14e7bf" y="294.88"/>
      </g>
     </g>
     <g id="text_1">
      <!-- 0 -->
      <defs>
       <path d="M 31.78125 66.40625 
Q 24.171875 66.40625 20.328125 58.90625 
Q 16.5 51.421875 16.5 36.375 
Q 16.5 21.390625 20.328125 13.890625 
Q 24.171875 6.390625 31.78125 6.390625 
Q 39.453125 6.390625 43.28125 13.890625 
Q 47.125 21.390625 47.125 36.375 
Q 47.125 51.421875 43.28125 58.90625 
Q 39.453125 66.40625 31.78125 66.40625 
z
M 31.78125 74.21875 
Q 44.046875 74.21875 50.515625 64.515625 
Q 56.984375 54.828125 56.984375 36.375 
Q 56.984375 17.96875 50.515625 8.265625 
Q 44.046875 -1.421875 31.78125 -1.421875 
Q 19.53125 -1.421875 13.0625 8.265625 
Q 6.59375 17.96875 6.59375 36.375 
Q 6.59375 54.828125 13.0625 64.515625 
Q 19.53125 74.21875 31.78125 74.21875 
z
" id="DejaVuSans-30"/>
      </defs>
      <g transform="translate(49.7575 317.076875)scale(0.2 -0.2)">
       <use xlink:href="#DejaVuSans-30"/>
      </g>
     </g>
    </g>
    <g id="xtick_2">
     <g id="line2d_3">
      <path clip-path="url(#pf3f6a525fb)" d="M 135.276571 294.88 
L 135.276571 24.84 
" style="fill:none;stroke:#b0b0b0;stroke-linecap:square;stroke-width:0.8;"/>
     </g>
     <g id="line2d_4">
      <g>
       <use style="stroke:#000000;stroke-width:0.8;" x="135.276571" xlink:href="#m6efd14e7bf" y="294.88"/>
      </g>
     </g>
     <g id="text_2">
      <!-- 2 -->
      <defs>
       <path d="M 19.1875 8.296875 
L 53.609375 8.296875 
L 53.609375 0 
L 7.328125 0 
L 7.328125 8.296875 
Q 12.9375 14.109375 22.625 23.890625 
Q 32.328125 33.6875 34.8125 36.53125 
Q 39.546875 41.84375 41.421875 45.53125 
Q 43.3125 49.21875 43.3125 52.78125 
Q 43.3125 58.59375 39.234375 62.25 
Q 35.15625 65.921875 28.609375 65.921875 
Q 23.96875 65.921875 18.8125 64.3125 
Q 13.671875 62.703125 7.8125 59.421875 
L 7.8125 69.390625 
Q 13.765625 71.78125 18.9375 73 
Q 24.125 74.21875 28.421875 74.21875 
Q 39.75 74.21875 46.484375 68.546875 
Q 53.21875 62.890625 53.21875 53.421875 
Q 53.21875 48.921875 51.53125 44.890625 
Q 49.859375 40.875 45.40625 35.40625 
Q 44.1875 33.984375 37.640625 27.21875 
Q 31.109375 20.453125 19.1875 8.296875 
z
" id="DejaVuSans-32"/>
      </defs>
      <g transform="translate(128.914071 317.076875)scale(0.2 -0.2)">
       <use xlink:href="#DejaVuSans-32"/>
      </g>
     </g>
    </g>
    <g id="xtick_3">
     <g id="line2d_5">
      <path clip-path="url(#pf3f6a525fb)" d="M 214.433143 294.88 
L 214.433143 24.84 
" style="fill:none;stroke:#b0b0b0;stroke-linecap:square;stroke-width:0.8;"/>
     </g>
     <g id="line2d_6">
      <g>
       <use style="stroke:#000000;stroke-width:0.8;" x="214.433143" xlink:href="#m6efd14e7bf" y="294.88"/>
      </g>
     </g>
     <g id="text_3">
      <!-- 4 -->
      <defs>
       <path d="M 37.796875 64.3125 
L 12.890625 25.390625 
L 37.796875 25.390625 
z
M 35.203125 72.90625 
L 47.609375 72.90625 
L 47.609375 25.390625 
L 58.015625 25.390625 
L 58.015625 17.1875 
L 47.609375 17.1875 
L 47.609375 0 
L 37.796875 0 
L 37.796875 17.1875 
L 4.890625 17.1875 
L 4.890625 26.703125 
z
" id="DejaVuSans-34"/>
      </defs>
      <g transform="translate(208.070643 317.076875)scale(0.2 -0.2)">
       <use xlink:href="#DejaVuSans-34"/>
      </g>
     </g>
    </g>
    <g id="xtick_4">
     <g id="line2d_7">
      <path clip-path="url(#pf3f6a525fb)" d="M 293.589714 294.88 
L 293.589714 24.84 
" style="fill:none;stroke:#b0b0b0;stroke-linecap:square;stroke-width:0.8;"/>
     </g>
     <g id="line2d_8">
      <g>
       <use style="stroke:#000000;stroke-width:0.8;" x="293.589714" xlink:href="#m6efd14e7bf" y="294.88"/>
      </g>
     </g>
     <g id="text_4">
      <!-- 6 -->
      <defs>
       <path d="M 33.015625 40.375 
Q 26.375 40.375 22.484375 35.828125 
Q 18.609375 31.296875 18.609375 23.390625 
Q 18.609375 15.53125 22.484375 10.953125 
Q 26.375 6.390625 33.015625 6.390625 
Q 39.65625 6.390625 43.53125 10.953125 
Q 47.40625 15.53125 47.40625 23.390625 
Q 47.40625 31.296875 43.53125 35.828125 
Q 39.65625 40.375 33.015625 40.375 
z
M 52.59375 71.296875 
L 52.59375 62.3125 
Q 48.875 64.0625 45.09375 64.984375 
Q 41.3125 65.921875 37.59375 65.921875 
Q 27.828125 65.921875 22.671875 59.328125 
Q 17.53125 52.734375 16.796875 39.40625 
Q 19.671875 43.65625 24.015625 45.921875 
Q 28.375 48.1875 33.59375 48.1875 
Q 44.578125 48.1875 50.953125 41.515625 
Q 57.328125 34.859375 57.328125 23.390625 
Q 57.328125 12.15625 50.6875 5.359375 
Q 44.046875 -1.421875 33.015625 -1.421875 
Q 20.359375 -1.421875 13.671875 8.265625 
Q 6.984375 17.96875 6.984375 36.375 
Q 6.984375 53.65625 15.1875 63.9375 
Q 23.390625 74.21875 37.203125 74.21875 
Q 40.921875 74.21875 44.703125 73.484375 
Q 48.484375 72.75 52.59375 71.296875 
z
" id="DejaVuSans-36"/>
      </defs>
      <g transform="translate(287.227214 317.076875)scale(0.2 -0.2)">
       <use xlink:href="#DejaVuSans-36"/>
      </g>
     </g>
    </g>
    <g id="xtick_5">
     <g id="line2d_9">
      <path clip-path="url(#pf3f6a525fb)" d="M 56.12 294.88 
L 56.12 24.84 
" style="fill:none;stroke:#b0b0b0;stroke-linecap:square;stroke-width:0.8;"/>
     </g>
     <g id="line2d_10">
      <defs>
       <path d="M 0 0 
L 0 2 
" id="mc5be40f815" style="stroke:#000000;stroke-width:0.6;"/>
      </defs>
      <g>
       <use style="stroke:#000000;stroke-width:0.6;" x="56.12" xlink:href="#mc5be40f815" y="294.88"/>
      </g>
     </g>
    </g>
    <g id="xtick_6">
     <g id="line2d_11">
      <path clip-path="url(#pf3f6a525fb)" d="M 95.698286 294.88 
L 95.698286 24.84 
" style="fill:none;stroke:#b0b0b0;stroke-linecap:square;stroke-width:0.8;"/>
     </g>
     <g id="line2d_12">
      <g>
       <use style="stroke:#000000;stroke-width:0.6;" x="95.698286" xlink:href="#mc5be40f815" y="294.88"/>
      </g>
     </g>
    </g>
    <g id="xtick_7">
     <g id="line2d_13">
      <path clip-path="url(#pf3f6a525fb)" d="M 135.276571 294.88 
L 135.276571 24.84 
" style="fill:none;stroke:#b0b0b0;stroke-linecap:square;stroke-width:0.8;"/>
     </g>
     <g id="line2d_14">
      <g>
       <use style="stroke:#000000;stroke-width:0.6;" x="135.276571" xlink:href="#mc5be40f815" y="294.88"/>
      </g>
     </g>
    </g>
    <g id="xtick_8">
     <g id="line2d_15">
      <path clip-path="url(#pf3f6a525fb)" d="M 174.854857 294.88 
L 174.854857 24.84 
" style="fill:none;stroke:#b0b0b0;stroke-linecap:square;stroke-width:0.8;"/>
     </g>
     <g id="line2d_16">
      <g>
       <use style="stroke:#000000;stroke-width:0.6;" x="174.854857" xlink:href="#mc5be40f815" y="294.88"/>
      </g>
     </g>
    </g>
    <g id="xtick_9">
     <g id="line2d_17">
      <path clip-path="url(#pf3f6a525fb)" d="M 214.433143 294.88 
L 214.433143 24.84 
" style="fill:none;stroke:#b0b0b0;stroke-linecap:square;stroke-width:0.8;"/>
     </g>
     <g id="line2d_18">
      <g>
       <use style="stroke:#000000;stroke-width:0.6;" x="214.433143" xlink:href="#mc5be40f815" y="294.88"/>
      </g>
     </g>
    </g>
    <g id="xtick_10">
     <g id="line2d_19">
      <path clip-path="url(#pf3f6a525fb)" d="M 254.011429 294.88 
L 254.011429 24.84 
" style="fill:none;stroke:#b0b0b0;stroke-linecap:square;stroke-width:0.8;"/>
     </g>
     <g id="line2d_20">
      <g>
       <use style="stroke:#000000;stroke-width:0.6;" x="254.011429" xlink:href="#mc5be40f815" y="294.88"/>
      </g>
     </g>
    </g>
    <g id="xtick_11">
     <g id="line2d_21">
      <path clip-path="url(#pf3f6a525fb)" d="M 293.589714 294.88 
L 293.589714 24.84 
" style="fill:none;stroke:#b0b0b0;stroke-linecap:square;stroke-width:0.8;"/>
     </g>
     <g id="line2d_22">
      <g>
       <use style="stroke:#000000;stroke-width:0.6;" x="293.589714" xlink:href="#mc5be40f815" y="294.88"/>
      </g>
     </g>
    </g>
    <g id="xtick_12">
     <g id="line2d_23">
      <path clip-path="url(#pf3f6a525fb)" d="M 333.168 294.88 
L 333.168 24.84 
" style="fill:none;stroke:#b0b0b0;stroke-linecap:square;stroke-width:0.8;"/>
     </g>
     <g id="line2d_24">
      <g>
       <use style="stroke:#000000;stroke-width:0.6;" x="333.168" xlink:href="#mc5be40f815" y="294.88"/>
      </g>
     </g>
    </g>
    <g id="text_5">
     <!-- log10(# f-evals / dimension) -->
     <defs>
      <path d="M 9.421875 75.984375 
L 18.40625 75.984375 
L 18.40625 0 
L 9.421875 0 
z
" id="DejaVuSans-6c"/>
      <path d="M 30.609375 48.390625 
Q 23.390625 48.390625 19.1875 42.75 
Q 14.984375 37.109375 14.984375 27.296875 
Q 14.984375 17.484375 19.15625 11.84375 
Q 23.34375 6.203125 30.609375 6.203125 
Q 37.796875 6.203125 41.984375 11.859375 
Q 46.1875 17.53125 46.1875 27.296875 
Q 46.1875 37.015625 41.984375 42.703125 
Q 37.796875 48.390625 30.609375 48.390625 
z
M 30.609375 56 
Q 42.328125 56 49.015625 48.375 
Q 55.71875 40.765625 55.71875 27.296875 
Q 55.71875 13.875 49.015625 6.21875 
Q 42.328125 -1.421875 30.609375 -1.421875 
Q 18.84375 -1.421875 12.171875 6.21875 
Q 5.515625 13.875 5.515625 27.296875 
Q 5.515625 40.765625 12.171875 48.375 
Q 18.84375 56 30.609375 56 
z
" id="DejaVuSans-6f"/>
      <path d="M 45.40625 27.984375 
Q 45.40625 37.75 41.375 43.109375 
Q 37.359375 48.484375 30.078125 48.484375 
Q 22.859375 48.484375 18.828125 43.109375 
Q 14.796875 37.75 14.796875 27.984375 
Q 14.796875 18.265625 18.828125 12.890625 
Q 22.859375 7.515625 30.078125 7.515625 
Q 37.359375 7.515625 41.375 12.890625 
Q 45.40625 18.265625 45.40625 27.984375 
z
M 54.390625 6.78125 
Q 54.390625 -7.171875 48.1875 -13.984375 
Q 42 -20.796875 29.203125 -20.796875 
Q 24.46875 -20.796875 20.265625 -20.09375 
Q 16.0625 -19.390625 12.109375 -17.921875 
L 12.109375 -9.1875 
Q 16.0625 -11.328125 19.921875 -12.34375 
Q 23.78125 -13.375 27.78125 -13.375 
Q 36.625 -13.375 41.015625 -8.765625 
Q 45.40625 -4.15625 45.40625 5.171875 
L 45.40625 9.625 
Q 42.625 4.78125 38.28125 2.390625 
Q 33.9375 0 27.875 0 
Q 17.828125 0 11.671875 7.65625 
Q 5.515625 15.328125 5.515625 27.984375 
Q 5.515625 40.671875 11.671875 48.328125 
Q 17.828125 56 27.875 56 
Q 33.9375 56 38.28125 53.609375 
Q 42.625 51.21875 45.40625 46.390625 
L 45.40625 54.6875 
L 54.390625 54.6875 
z
" id="DejaVuSans-67"/>
      <path d="M 12.40625 8.296875 
L 28.515625 8.296875 
L 28.515625 63.921875 
L 10.984375 60.40625 
L 10.984375 69.390625 
L 28.421875 72.90625 
L 38.28125 72.90625 
L 38.28125 8.296875 
L 54.390625 8.296875 
L 54.390625 0 
L 12.40625 0 
z
" id="DejaVuSans-31"/>
      <path d="M 31 75.875 
Q 24.46875 64.65625 21.28125 53.65625 
Q 18.109375 42.671875 18.109375 31.390625 
Q 18.109375 20.125 21.3125 9.0625 
Q 24.515625 -2 31 -13.1875 
L 23.1875 -13.1875 
Q 15.875 -1.703125 12.234375 9.375 
Q 8.59375 20.453125 8.59375 31.390625 
Q 8.59375 42.28125 12.203125 53.3125 
Q 15.828125 64.359375 23.1875 75.875 
z
" id="DejaVuSans-28"/>
      <path d="M 51.125 44 
L 36.921875 44 
L 32.8125 27.6875 
L 47.125 27.6875 
z
M 43.796875 71.78125 
L 38.71875 51.515625 
L 52.984375 51.515625 
L 58.109375 71.78125 
L 65.921875 71.78125 
L 60.890625 51.515625 
L 76.125 51.515625 
L 76.125 44 
L 58.984375 44 
L 54.984375 27.6875 
L 70.515625 27.6875 
L 70.515625 20.21875 
L 53.078125 20.21875 
L 48 0 
L 40.1875 0 
L 45.21875 20.21875 
L 30.90625 20.21875 
L 25.875 0 
L 18.015625 0 
L 23.09375 20.21875 
L 7.71875 20.21875 
L 7.71875 27.6875 
L 24.90625 27.6875 
L 29 44 
L 13.28125 44 
L 13.28125 51.515625 
L 30.90625 51.515625 
L 35.890625 71.78125 
z
" id="DejaVuSans-23"/>
      <path id="DejaVuSans-20"/>
      <path d="M 37.109375 75.984375 
L 37.109375 68.5 
L 28.515625 68.5 
Q 23.6875 68.5 21.796875 66.546875 
Q 19.921875 64.59375 19.921875 59.515625 
L 19.921875 54.6875 
L 34.71875 54.6875 
L 34.71875 47.703125 
L 19.921875 47.703125 
L 19.921875 0 
L 10.890625 0 
L 10.890625 47.703125 
L 2.296875 47.703125 
L 2.296875 54.6875 
L 10.890625 54.6875 
L 10.890625 58.5 
Q 10.890625 67.625 15.140625 71.796875 
Q 19.390625 75.984375 28.609375 75.984375 
z
" id="DejaVuSans-66"/>
      <path d="M 4.890625 31.390625 
L 31.203125 31.390625 
L 31.203125 23.390625 
L 4.890625 23.390625 
z
" id="DejaVuSans-2d"/>
      <path d="M 56.203125 29.59375 
L 56.203125 25.203125 
L 14.890625 25.203125 
Q 15.484375 15.921875 20.484375 11.0625 
Q 25.484375 6.203125 34.421875 6.203125 
Q 39.59375 6.203125 44.453125 7.46875 
Q 49.3125 8.734375 54.109375 11.28125 
L 54.109375 2.78125 
Q 49.265625 0.734375 44.1875 -0.34375 
Q 39.109375 -1.421875 33.890625 -1.421875 
Q 20.796875 -1.421875 13.15625 6.1875 
Q 5.515625 13.8125 5.515625 26.8125 
Q 5.515625 40.234375 12.765625 48.109375 
Q 20.015625 56 32.328125 56 
Q 43.359375 56 49.78125 48.890625 
Q 56.203125 41.796875 56.203125 29.59375 
z
M 47.21875 32.234375 
Q 47.125 39.59375 43.09375 43.984375 
Q 39.0625 48.390625 32.421875 48.390625 
Q 24.90625 48.390625 20.390625 44.140625 
Q 15.875 39.890625 15.1875 32.171875 
z
" id="DejaVuSans-65"/>
      <path d="M 2.984375 54.6875 
L 12.5 54.6875 
L 29.59375 8.796875 
L 46.6875 54.6875 
L 56.203125 54.6875 
L 35.6875 0 
L 23.484375 0 
z
" id="DejaVuSans-76"/>
      <path d="M 34.28125 27.484375 
Q 23.390625 27.484375 19.1875 25 
Q 14.984375 22.515625 14.984375 16.5 
Q 14.984375 11.71875 18.140625 8.90625 
Q 21.296875 6.109375 26.703125 6.109375 
Q 34.1875 6.109375 38.703125 11.40625 
Q 43.21875 16.703125 43.21875 25.484375 
L 43.21875 27.484375 
z
M 52.203125 31.203125 
L 52.203125 0 
L 43.21875 0 
L 43.21875 8.296875 
Q 40.140625 3.328125 35.546875 0.953125 
Q 30.953125 -1.421875 24.3125 -1.421875 
Q 15.921875 -1.421875 10.953125 3.296875 
Q 6 8.015625 6 15.921875 
Q 6 25.140625 12.171875 29.828125 
Q 18.359375 34.515625 30.609375 34.515625 
L 43.21875 34.515625 
L 43.21875 35.40625 
Q 43.21875 41.609375 39.140625 45 
Q 35.0625 48.390625 27.6875 48.390625 
Q 23 48.390625 18.546875 47.265625 
Q 14.109375 46.140625 10.015625 43.890625 
L 10.015625 52.203125 
Q 14.9375 54.109375 19.578125 55.046875 
Q 24.21875 56 28.609375 56 
Q 40.484375 56 46.34375 49.84375 
Q 52.203125 43.703125 52.203125 31.203125 
z
" id="DejaVuSans-61"/>
      <path d="M 44.28125 53.078125 
L 44.28125 44.578125 
Q 40.484375 46.53125 36.375 47.5 
Q 32.28125 48.484375 27.875 48.484375 
Q 21.1875 48.484375 17.84375 46.4375 
Q 14.5 44.390625 14.5 40.28125 
Q 14.5 37.15625 16.890625 35.375 
Q 19.28125 33.59375 26.515625 31.984375 
L 29.59375 31.296875 
Q 39.15625 29.25 43.1875 25.515625 
Q 47.21875 21.78125 47.21875 15.09375 
Q 47.21875 7.46875 41.1875 3.015625 
Q 35.15625 -1.421875 24.609375 -1.421875 
Q 20.21875 -1.421875 15.453125 -0.5625 
Q 10.6875 0.296875 5.421875 2 
L 5.421875 11.28125 
Q 10.40625 8.6875 15.234375 7.390625 
Q 20.0625 6.109375 24.8125 6.109375 
Q 31.15625 6.109375 34.5625 8.28125 
Q 37.984375 10.453125 37.984375 14.40625 
Q 37.984375 18.0625 35.515625 20.015625 
Q 33.0625 21.96875 24.703125 23.78125 
L 21.578125 24.515625 
Q 13.234375 26.265625 9.515625 29.90625 
Q 5.8125 33.546875 5.8125 39.890625 
Q 5.8125 47.609375 11.28125 51.796875 
Q 16.75 56 26.8125 56 
Q 31.78125 56 36.171875 55.265625 
Q 40.578125 54.546875 44.28125 53.078125 
z
" id="DejaVuSans-73"/>
      <path d="M 25.390625 72.90625 
L 33.6875 72.90625 
L 8.296875 -9.28125 
L 0 -9.28125 
z
" id="DejaVuSans-2f"/>
      <path d="M 45.40625 46.390625 
L 45.40625 75.984375 
L 54.390625 75.984375 
L 54.390625 0 
L 45.40625 0 
L 45.40625 8.203125 
Q 42.578125 3.328125 38.25 0.953125 
Q 33.9375 -1.421875 27.875 -1.421875 
Q 17.96875 -1.421875 11.734375 6.484375 
Q 5.515625 14.40625 5.515625 27.296875 
Q 5.515625 40.1875 11.734375 48.09375 
Q 17.96875 56 27.875 56 
Q 33.9375 56 38.25 53.625 
Q 42.578125 51.265625 45.40625 46.390625 
z
M 14.796875 27.296875 
Q 14.796875 17.390625 18.875 11.75 
Q 22.953125 6.109375 30.078125 6.109375 
Q 37.203125 6.109375 41.296875 11.75 
Q 45.40625 17.390625 45.40625 27.296875 
Q 45.40625 37.203125 41.296875 42.84375 
Q 37.203125 48.484375 30.078125 48.484375 
Q 22.953125 48.484375 18.875 42.84375 
Q 14.796875 37.203125 14.796875 27.296875 
z
" id="DejaVuSans-64"/>
      <path d="M 9.421875 54.6875 
L 18.40625 54.6875 
L 18.40625 0 
L 9.421875 0 
z
M 9.421875 75.984375 
L 18.40625 75.984375 
L 18.40625 64.59375 
L 9.421875 64.59375 
z
" id="DejaVuSans-69"/>
      <path d="M 52 44.1875 
Q 55.375 50.25 60.0625 53.125 
Q 64.75 56 71.09375 56 
Q 79.640625 56 84.28125 50.015625 
Q 88.921875 44.046875 88.921875 33.015625 
L 88.921875 0 
L 79.890625 0 
L 79.890625 32.71875 
Q 79.890625 40.578125 77.09375 44.375 
Q 74.3125 48.1875 68.609375 48.1875 
Q 61.625 48.1875 57.5625 43.546875 
Q 53.515625 38.921875 53.515625 30.90625 
L 53.515625 0 
L 44.484375 0 
L 44.484375 32.71875 
Q 44.484375 40.625 41.703125 44.40625 
Q 38.921875 48.1875 33.109375 48.1875 
Q 26.21875 48.1875 22.15625 43.53125 
Q 18.109375 38.875 18.109375 30.90625 
L 18.109375 0 
L 9.078125 0 
L 9.078125 54.6875 
L 18.109375 54.6875 
L 18.109375 46.1875 
Q 21.1875 51.21875 25.484375 53.609375 
Q 29.78125 56 35.6875 56 
Q 41.65625 56 45.828125 52.96875 
Q 50 49.953125 52 44.1875 
z
" id="DejaVuSans-6d"/>
      <path d="M 54.890625 33.015625 
L 54.890625 0 
L 45.90625 0 
L 45.90625 32.71875 
Q 45.90625 40.484375 42.875 44.328125 
Q 39.84375 48.1875 33.796875 48.1875 
Q 26.515625 48.1875 22.3125 43.546875 
Q 18.109375 38.921875 18.109375 30.90625 
L 18.109375 0 
L 9.078125 0 
L 9.078125 54.6875 
L 18.109375 54.6875 
L 18.109375 46.1875 
Q 21.34375 51.125 25.703125 53.5625 
Q 30.078125 56 35.796875 56 
Q 45.21875 56 50.046875 50.171875 
Q 54.890625 44.34375 54.890625 33.015625 
z
" id="DejaVuSans-6e"/>
      <path d="M 8.015625 75.875 
L 15.828125 75.875 
Q 23.140625 64.359375 26.78125 53.3125 
Q 30.421875 42.28125 30.421875 31.390625 
Q 30.421875 20.453125 26.78125 9.375 
Q 23.140625 -1.703125 15.828125 -13.1875 
L 8.015625 -13.1875 
Q 14.5 -2 17.703125 9.0625 
Q 20.90625 20.125 20.90625 31.390625 
Q 20.90625 42.671875 17.703125 53.65625 
Q 14.5 64.65625 8.015625 75.875 
z
" id="DejaVuSans-29"/>
     </defs>
     <g transform="translate(73.803219 338.153594)scale(0.17 -0.17)">
      <use xlink:href="#DejaVuSans-6c"/>
      <use x="27.783203" xlink:href="#DejaVuSans-6f"/>
      <use x="88.964844" xlink:href="#DejaVuSans-67"/>
      <use x="152.441406" xlink:href="#DejaVuSans-31"/>
      <use x="216.064453" xlink:href="#DejaVuSans-30"/>
      <use x="279.6875" xlink:href="#DejaVuSans-28"/>
      <use x="318.701172" xlink:href="#DejaVuSans-23"/>
      <use x="402.490234" xlink:href="#DejaVuSans-20"/>
      <use x="434.277344" xlink:href="#DejaVuSans-66"/>
      <use x="469.404297" xlink:href="#DejaVuSans-2d"/>
      <use x="505.488281" xlink:href="#DejaVuSans-65"/>
      <use x="567.011719" xlink:href="#DejaVuSans-76"/>
      <use x="626.191406" xlink:href="#DejaVuSans-61"/>
      <use x="687.470703" xlink:href="#DejaVuSans-6c"/>
      <use x="715.253906" xlink:href="#DejaVuSans-73"/>
      <use x="767.353516" xlink:href="#DejaVuSans-20"/>
      <use x="799.140625" xlink:href="#DejaVuSans-2f"/>
      <use x="832.832031" xlink:href="#DejaVuSans-20"/>
      <use x="864.619141" xlink:href="#DejaVuSans-64"/>
      <use x="928.095703" xlink:href="#DejaVuSans-69"/>
      <use x="955.878906" xlink:href="#DejaVuSans-6d"/>
      <use x="1053.291016" xlink:href="#DejaVuSans-65"/>
      <use x="1114.814453" xlink:href="#DejaVuSans-6e"/>
      <use x="1178.193359" xlink:href="#DejaVuSans-73"/>
      <use x="1230.292969" xlink:href="#DejaVuSans-69"/>
      <use x="1258.076172" xlink:href="#DejaVuSans-6f"/>
      <use x="1319.257812" xlink:href="#DejaVuSans-6e"/>
      <use x="1382.636719" xlink:href="#DejaVuSans-29"/>
     </g>
    </g>
   </g>
   <g id="matplotlib.axis_2">
    <g id="ytick_1">
     <g id="line2d_25">
      <path clip-path="url(#pf3f6a525fb)" d="M 56.12 294.88 
L 333.168 294.88 
" style="fill:none;stroke:#b0b0b0;stroke-linecap:square;stroke-width:0.8;"/>
     </g>
     <g id="line2d_26">
      <defs>
       <path d="M 0 0 
L -3.5 0 
" id="m8ae087979f" style="stroke:#000000;stroke-width:0.8;"/>
      </defs>
      <g>
       <use style="stroke:#000000;stroke-width:0.8;" x="56.12" xlink:href="#m8ae087979f" y="294.88"/>
      </g>
     </g>
     <g id="text_6">
      <!-- 0.0 -->
      <defs>
       <path d="M 10.6875 12.40625 
L 21 12.40625 
L 21 0 
L 10.6875 0 
z
" id="DejaVuSans-2e"/>
      </defs>
      <g transform="translate(23.675 300.95875)scale(0.16 -0.16)">
       <use xlink:href="#DejaVuSans-30"/>
       <use x="63.623047" xlink:href="#DejaVuSans-2e"/>
       <use x="95.410156" xlink:href="#DejaVuSans-30"/>
      </g>
     </g>
    </g>
    <g id="ytick_2">
     <g id="line2d_27">
      <path clip-path="url(#pf3f6a525fb)" d="M 56.12 241.406733 
L 333.168 241.406733 
" style="fill:none;stroke:#b0b0b0;stroke-linecap:square;stroke-width:0.8;"/>
     </g>
     <g id="line2d_28">
      <g>
       <use style="stroke:#000000;stroke-width:0.8;" x="56.12" xlink:href="#m8ae087979f" y="241.406733"/>
      </g>
     </g>
     <g id="text_7">
      <!-- 0.2 -->
      <g transform="translate(23.675 247.485483)scale(0.16 -0.16)">
       <use xlink:href="#DejaVuSans-30"/>
       <use x="63.623047" xlink:href="#DejaVuSans-2e"/>
       <use x="95.410156" xlink:href="#DejaVuSans-32"/>
      </g>
     </g>
    </g>
    <g id="ytick_3">
     <g id="line2d_29">
      <path clip-path="url(#pf3f6a525fb)" d="M 56.12 187.933465 
L 333.168 187.933465 
" style="fill:none;stroke:#b0b0b0;stroke-linecap:square;stroke-width:0.8;"/>
     </g>
     <g id="line2d_30">
      <g>
       <use style="stroke:#000000;stroke-width:0.8;" x="56.12" xlink:href="#m8ae087979f" y="187.933465"/>
      </g>
     </g>
     <g id="text_8">
      <!-- 0.4 -->
      <g transform="translate(23.675 194.012215)scale(0.16 -0.16)">
       <use xlink:href="#DejaVuSans-30"/>
       <use x="63.623047" xlink:href="#DejaVuSans-2e"/>
       <use x="95.410156" xlink:href="#DejaVuSans-34"/>
      </g>
     </g>
    </g>
    <g id="ytick_4">
     <g id="line2d_31">
      <path clip-path="url(#pf3f6a525fb)" d="M 56.12 134.460198 
L 333.168 134.460198 
" style="fill:none;stroke:#b0b0b0;stroke-linecap:square;stroke-width:0.8;"/>
     </g>
     <g id="line2d_32">
      <g>
       <use style="stroke:#000000;stroke-width:0.8;" x="56.12" xlink:href="#m8ae087979f" y="134.460198"/>
      </g>
     </g>
     <g id="text_9">
      <!-- 0.6 -->
      <g transform="translate(23.675 140.538948)scale(0.16 -0.16)">
       <use xlink:href="#DejaVuSans-30"/>
       <use x="63.623047" xlink:href="#DejaVuSans-2e"/>
       <use x="95.410156" xlink:href="#DejaVuSans-36"/>
      </g>
     </g>
    </g>
    <g id="ytick_5">
     <g id="line2d_33">
      <path clip-path="url(#pf3f6a525fb)" d="M 56.12 80.986931 
L 333.168 80.986931 
" style="fill:none;stroke:#b0b0b0;stroke-linecap:square;stroke-width:0.8;"/>
     </g>
     <g id="line2d_34">
      <g>
       <use style="stroke:#000000;stroke-width:0.8;" x="56.12" xlink:href="#m8ae087979f" y="80.986931"/>
      </g>
     </g>
     <g id="text_10">
      <!-- 0.8 -->
      <defs>
       <path d="M 31.78125 34.625 
Q 24.75 34.625 20.71875 30.859375 
Q 16.703125 27.09375 16.703125 20.515625 
Q 16.703125 13.921875 20.71875 10.15625 
Q 24.75 6.390625 31.78125 6.390625 
Q 38.8125 6.390625 42.859375 10.171875 
Q 46.921875 13.96875 46.921875 20.515625 
Q 46.921875 27.09375 42.890625 30.859375 
Q 38.875 34.625 31.78125 34.625 
z
M 21.921875 38.8125 
Q 15.578125 40.375 12.03125 44.71875 
Q 8.5 49.078125 8.5 55.328125 
Q 8.5 64.0625 14.71875 69.140625 
Q 20.953125 74.21875 31.78125 74.21875 
Q 42.671875 74.21875 48.875 69.140625 
Q 55.078125 64.0625 55.078125 55.328125 
Q 55.078125 49.078125 51.53125 44.71875 
Q 48 40.375 41.703125 38.8125 
Q 48.828125 37.15625 52.796875 32.3125 
Q 56.78125 27.484375 56.78125 20.515625 
Q 56.78125 9.90625 50.3125 4.234375 
Q 43.84375 -1.421875 31.78125 -1.421875 
Q 19.734375 -1.421875 13.25 4.234375 
Q 6.78125 9.90625 6.78125 20.515625 
Q 6.78125 27.484375 10.78125 32.3125 
Q 14.796875 37.15625 21.921875 38.8125 
z
M 18.3125 54.390625 
Q 18.3125 48.734375 21.84375 45.5625 
Q 25.390625 42.390625 31.78125 42.390625 
Q 38.140625 42.390625 41.71875 45.5625 
Q 45.3125 48.734375 45.3125 54.390625 
Q 45.3125 60.0625 41.71875 63.234375 
Q 38.140625 66.40625 31.78125 66.40625 
Q 25.390625 66.40625 21.84375 63.234375 
Q 18.3125 60.0625 18.3125 54.390625 
z
" id="DejaVuSans-38"/>
      </defs>
      <g transform="translate(23.675 87.065681)scale(0.16 -0.16)">
       <use xlink:href="#DejaVuSans-30"/>
       <use x="63.623047" xlink:href="#DejaVuSans-2e"/>
       <use x="95.410156" xlink:href="#DejaVuSans-38"/>
      </g>
     </g>
    </g>
    <g id="ytick_6">
     <g id="line2d_35">
      <path clip-path="url(#pf3f6a525fb)" d="M 56.12 27.513663 
L 333.168 27.513663 
" style="fill:none;stroke:#b0b0b0;stroke-linecap:square;stroke-width:0.8;"/>
     </g>
     <g id="line2d_36">
      <g>
       <use style="stroke:#000000;stroke-width:0.8;" x="56.12" xlink:href="#m8ae087979f" y="27.513663"/>
      </g>
     </g>
     <g id="text_11">
      <!-- 1.0 -->
      <g transform="translate(23.675 33.592413)scale(0.16 -0.16)">
       <use xlink:href="#DejaVuSans-31"/>
       <use x="63.623047" xlink:href="#DejaVuSans-2e"/>
       <use x="95.410156" xlink:href="#DejaVuSans-30"/>
      </g>
     </g>
    </g>
    <g id="text_12">
     <!-- Fraction of function,target pairs -->
     <defs>
      <path d="M 9.8125 72.90625 
L 51.703125 72.90625 
L 51.703125 64.59375 
L 19.671875 64.59375 
L 19.671875 43.109375 
L 48.578125 43.109375 
L 48.578125 34.8125 
L 19.671875 34.8125 
L 19.671875 0 
L 9.8125 0 
z
" id="DejaVuSans-46"/>
      <path d="M 41.109375 46.296875 
Q 39.59375 47.171875 37.8125 47.578125 
Q 36.03125 48 33.890625 48 
Q 26.265625 48 22.1875 43.046875 
Q 18.109375 38.09375 18.109375 28.8125 
L 18.109375 0 
L 9.078125 0 
L 9.078125 54.6875 
L 18.109375 54.6875 
L 18.109375 46.1875 
Q 20.953125 51.171875 25.484375 53.578125 
Q 30.03125 56 36.53125 56 
Q 37.453125 56 38.578125 55.875 
Q 39.703125 55.765625 41.0625 55.515625 
z
" id="DejaVuSans-72"/>
      <path d="M 48.78125 52.59375 
L 48.78125 44.1875 
Q 44.96875 46.296875 41.140625 47.34375 
Q 37.3125 48.390625 33.40625 48.390625 
Q 24.65625 48.390625 19.8125 42.84375 
Q 14.984375 37.3125 14.984375 27.296875 
Q 14.984375 17.28125 19.8125 11.734375 
Q 24.65625 6.203125 33.40625 6.203125 
Q 37.3125 6.203125 41.140625 7.25 
Q 44.96875 8.296875 48.78125 10.40625 
L 48.78125 2.09375 
Q 45.015625 0.34375 40.984375 -0.53125 
Q 36.96875 -1.421875 32.421875 -1.421875 
Q 20.0625 -1.421875 12.78125 6.34375 
Q 5.515625 14.109375 5.515625 27.296875 
Q 5.515625 40.671875 12.859375 48.328125 
Q 20.21875 56 33.015625 56 
Q 37.15625 56 41.109375 55.140625 
Q 45.0625 54.296875 48.78125 52.59375 
z
" id="DejaVuSans-63"/>
      <path d="M 18.3125 70.21875 
L 18.3125 54.6875 
L 36.8125 54.6875 
L 36.8125 47.703125 
L 18.3125 47.703125 
L 18.3125 18.015625 
Q 18.3125 11.328125 20.140625 9.421875 
Q 21.96875 7.515625 27.59375 7.515625 
L 36.8125 7.515625 
L 36.8125 0 
L 27.59375 0 
Q 17.1875 0 13.234375 3.875 
Q 9.28125 7.765625 9.28125 18.015625 
L 9.28125 47.703125 
L 2.6875 47.703125 
L 2.6875 54.6875 
L 9.28125 54.6875 
L 9.28125 70.21875 
z
" id="DejaVuSans-74"/>
      <path d="M 8.5 21.578125 
L 8.5 54.6875 
L 17.484375 54.6875 
L 17.484375 21.921875 
Q 17.484375 14.15625 20.5 10.265625 
Q 23.53125 6.390625 29.59375 6.390625 
Q 36.859375 6.390625 41.078125 11.03125 
Q 45.3125 15.671875 45.3125 23.6875 
L 45.3125 54.6875 
L 54.296875 54.6875 
L 54.296875 0 
L 45.3125 0 
L 45.3125 8.40625 
Q 42.046875 3.421875 37.71875 1 
Q 33.40625 -1.421875 27.6875 -1.421875 
Q 18.265625 -1.421875 13.375 4.4375 
Q 8.5 10.296875 8.5 21.578125 
z
M 31.109375 56 
z
" id="DejaVuSans-75"/>
      <path d="M 11.71875 12.40625 
L 22.015625 12.40625 
L 22.015625 4 
L 14.015625 -11.625 
L 7.71875 -11.625 
L 11.71875 4 
z
" id="DejaVuSans-2c"/>
      <path d="M 18.109375 8.203125 
L 18.109375 -20.796875 
L 9.078125 -20.796875 
L 9.078125 54.6875 
L 18.109375 54.6875 
L 18.109375 46.390625 
Q 20.953125 51.265625 25.265625 53.625 
Q 29.59375 56 35.59375 56 
Q 45.5625 56 51.78125 48.09375 
Q 58.015625 40.1875 58.015625 27.296875 
Q 58.015625 14.40625 51.78125 6.484375 
Q 45.5625 -1.421875 35.59375 -1.421875 
Q 29.59375 -1.421875 25.265625 0.953125 
Q 20.953125 3.328125 18.109375 8.203125 
z
M 48.6875 27.296875 
Q 48.6875 37.203125 44.609375 42.84375 
Q 40.53125 48.484375 33.40625 48.484375 
Q 26.265625 48.484375 22.1875 42.84375 
Q 18.109375 37.203125 18.109375 27.296875 
Q 18.109375 17.390625 22.1875 11.75 
Q 26.265625 6.109375 33.40625 6.109375 
Q 40.53125 6.109375 44.609375 11.75 
Q 48.6875 17.390625 48.6875 27.296875 
z
" id="DejaVuSans-70"/>
     </defs>
     <g transform="translate(16.139531 294.999375)rotate(-90)scale(0.17 -0.17)">
      <use xlink:href="#DejaVuSans-46"/>
      <use x="57.410156" xlink:href="#DejaVuSans-72"/>
      <use x="98.523438" xlink:href="#DejaVuSans-61"/>
      <use x="159.802734" xlink:href="#DejaVuSans-63"/>
      <use x="214.783203" xlink:href="#DejaVuSans-74"/>
      <use x="253.992188" xlink:href="#DejaVuSans-69"/>
      <use x="281.775391" xlink:href="#DejaVuSans-6f"/>
      <use x="342.957031" xlink:href="#DejaVuSans-6e"/>
      <use x="406.335938" xlink:href="#DejaVuSans-20"/>
      <use x="438.123047" xlink:href="#DejaVuSans-6f"/>
      <use x="499.304688" xlink:href="#DejaVuSans-66"/>
      <use x="534.509766" xlink:href="#DejaVuSans-20"/>
      <use x="566.296875" xlink:href="#DejaVuSans-66"/>
      <use x="601.501953" xlink:href="#DejaVuSans-75"/>
      <use x="664.880859" xlink:href="#DejaVuSans-6e"/>
      <use x="728.259766" xlink:href="#DejaVuSans-63"/>
      <use x="783.240234" xlink:href="#DejaVuSans-74"/>
      <use x="822.449219" xlink:href="#DejaVuSans-69"/>
      <use x="850.232422" xlink:href="#DejaVuSans-6f"/>
      <use x="911.414062" xlink:href="#DejaVuSans-6e"/>
      <use x="974.792969" xlink:href="#DejaVuSans-2c"/>
      <use x="1006.580078" xlink:href="#DejaVuSans-74"/>
      <use x="1045.789062" xlink:href="#DejaVuSans-61"/>
      <use x="1107.068359" xlink:href="#DejaVuSans-72"/>
      <use x="1148.166016" xlink:href="#DejaVuSans-67"/>
      <use x="1211.642578" xlink:href="#DejaVuSans-65"/>
      <use x="1273.166016" xlink:href="#DejaVuSans-74"/>
      <use x="1312.375" xlink:href="#DejaVuSans-20"/>
      <use x="1344.162109" xlink:href="#DejaVuSans-70"/>
      <use x="1407.638672" xlink:href="#DejaVuSans-61"/>
      <use x="1468.917969" xlink:href="#DejaVuSans-69"/>
      <use x="1496.701172" xlink:href="#DejaVuSans-72"/>
      <use x="1537.814453" xlink:href="#DejaVuSans-73"/>
     </g>
    </g>
   </g>
   <g id="line2d_37">
    <defs>
     <path d="M 0 1.5 
C 0.397805 1.5 0.77937 1.341951 1.06066 1.06066 
C 1.341951 0.77937 1.5 0.397805 1.5 0 
C 1.5 -0.397805 1.341951 -0.77937 1.06066 -1.06066 
C 0.77937 -1.341951 0.397805 -1.5 0 -1.5 
C -0.397805 -1.5 -0.77937 -1.341951 -1.06066 -1.06066 
C -1.341951 -0.77937 -1.5 -0.397805 -1.5 0 
C -1.5 0.397805 -1.341951 0.77937 -1.06066 1.06066 
C -0.77937 1.341951 -0.397805 1.5 0 1.5 
z
" id="m84df66f59d" style="stroke:#00bfbf;"/>
    </defs>
    <g>
     <use style="fill:#00bfbf;stroke:#00bfbf;" x="195.135465" xlink:href="#m84df66f59d" y="27.513663"/>
     <use style="fill:#00bfbf;stroke:#00bfbf;" x="195.135465" xlink:href="#m84df66f59d" y="27.513663"/>
    </g>
   </g>
   <g id="line2d_38">
    <path d="M 77.653281 294.88 
L 77.653281 293.831505 
L 106.730875 293.831505 
L 106.730875 292.258761 
L 122.660646 292.258761 
L 122.660646 291.210266 
L 127.739271 291.210266 
L 127.739271 290.161771 
L 129.022601 290.161771 
L 129.022601 288.06478 
L 129.268157 288.06478 
L 129.268157 287.540532 
L 147.190823 287.540532 
L 147.190823 285.443541 
L 148.070335 285.443541 
L 148.070335 284.919293 
L 149.291576 284.919293 
L 149.291576 283.34655 
L 150.784014 283.34655 
L 150.784014 282.298055 
L 151.995456 282.298055 
L 151.995456 281.249559 
L 152.820161 281.249559 
L 152.820161 280.201064 
L 154.045238 280.201064 
L 154.045238 278.628321 
L 155.242663 278.628321 
L 155.242663 278.104073 
L 155.376636 278.104073 
L 155.376636 277.579825 
L 156.2863 277.579825 
L 156.2863 277.055578 
L 157.005179 277.055578 
L 157.02944 272.861596 
L 157.625086 272.861596 
L 157.625086 272.337348 
L 157.834564 272.337348 
L 157.834564 271.8131 
L 158.064362 271.8131 
L 158.064362 270.764605 
L 158.358579 270.764605 
L 158.358579 269.716109 
L 158.669895 269.716109 
L 158.669895 269.191862 
L 159.212168 269.191862 
L 159.212168 268.667614 
L 159.445454 268.667614 
L 159.445454 268.143366 
L 159.737856 268.143366 
L 159.737856 266.570623 
L 160.879512 266.570623 
L 160.879512 266.046375 
L 163.314656 266.046375 
L 163.314656 264.99788 
L 163.811951 264.99788 
L 163.811951 263.949385 
L 163.958377 263.949385 
L 163.958377 263.425137 
L 165.536139 263.425137 
L 165.565672 261.328146 
L 166.031439 261.328146 
L 166.031439 260.279651 
L 166.484916 260.279651 
L 166.582539 258.18266 
L 166.789884 258.18266 
L 166.789884 256.085669 
L 167.384051 256.085669 
L 167.384051 255.037173 
L 168.213204 255.037173 
L 168.225847 253.46443 
L 168.822044 253.46443 
L 168.822044 249.270448 
L 169.410055 249.270448 
L 169.410055 246.64921 
L 170.628164 246.64921 
L 170.628164 246.124962 
L 170.94396 246.124962 
L 171.040797 245.076467 
L 171.12642 245.076467 
L 171.12642 244.552219 
L 171.370234 244.552219 
L 171.464706 240.882485 
L 171.48563 240.882485 
L 171.48563 240.358237 
L 171.652107 240.358237 
L 171.714122 236.688503 
L 172.000606 236.688503 
L 172.000606 236.164255 
L 172.142077 236.164255 
L 172.142077 235.640008 
L 172.520302 235.640008 
L 172.608676 234.591512 
L 172.832476 234.591512 
L 172.832476 233.018769 
L 173.384234 233.018769 
L 173.402948 230.397531 
L 173.607466 230.397531 
L 173.607466 229.873283 
L 173.88249 229.873283 
L 173.88249 228.30054 
L 174.313576 228.30054 
L 174.313576 225.155053 
L 174.542643 225.155053 
L 174.542643 224.630806 
L 174.673422 224.630806 
L 174.673422 222.009567 
L 174.829055 222.009567 
L 174.829055 221.485319 
L 175.008863 221.485319 
L 175.017378 219.912576 
L 175.864526 219.912576 
L 175.864526 219.388328 
L 176.129899 219.388328 
L 176.129899 218.339833 
L 176.336134 218.339833 
L 176.336134 217.815585 
L 176.461828 217.815585 
L 176.563282 214.670099 
L 176.58661 214.670099 
L 176.656404 212.573108 
L 176.818162 212.573108 
L 176.848802 209.427622 
L 177.413401 209.427622 
L 177.413401 207.854879 
L 177.859315 207.854879 
L 177.967216 206.282136 
L 178.110039 206.282136 
L 178.188088 201.039658 
L 178.279874 201.039658 
L 178.286914 196.321429 
L 178.669751 196.321429 
L 178.669751 195.797181 
L 178.800046 195.797181 
L 178.909008 192.651695 
L 179.12488 192.651695 
L 179.231808 189.506209 
L 179.483128 189.506209 
L 179.555198 184.263731 
L 179.633476 184.263731 
L 179.633476 183.739484 
L 179.89186 183.739484 
L 179.89186 182.16674 
L 180.146416 182.16674 
L 180.146416 181.642493 
L 180.619928 181.642493 
L 180.73019 177.972759 
L 180.894269 177.972759 
L 180.972715 168.5363 
L 181.092706 168.5363 
L 181.092706 166.963557 
L 181.441876 166.963557 
L 181.441876 165.390813 
L 181.69196 165.390813 
L 181.77835 163.81807 
L 181.85859 163.81807 
L 181.85859 163.293823 
L 182.051915 163.293823 
L 182.051915 160.672584 
L 182.181471 160.672584 
L 182.181471 160.148336 
L 182.415561 160.148336 
L 182.415561 159.099841 
L 182.586319 159.099841 
L 182.679246 157.00285 
L 183.34228 157.00285 
L 183.363248 153.857364 
L 183.472913 153.857364 
L 183.493723 149.663382 
L 183.802879 149.663382 
L 183.802879 149.139134 
L 183.960457 149.139134 
L 183.960457 148.614886 
L 184.527823 148.614886 
L 184.562059 145.993648 
L 184.640056 145.993648 
L 184.640056 145.4694 
L 184.828705 145.4694 
L 184.895923 140.751171 
L 184.99626 140.751171 
L 185.048585 134.984446 
L 185.119681 134.984446 
L 185.119681 133.93595 
L 185.317199 133.93595 
L 185.368557 131.838959 
L 185.447628 131.838959 
L 185.456907 124.499491 
L 185.563253 124.499491 
L 185.563253 123.450996 
L 185.896491 123.450996 
L 185.896491 121.354005 
L 186.058479 121.354005 
L 186.058479 120.829757 
L 186.408692 120.829757 
L 186.408692 118.208519 
L 186.526767 118.208519 
L 186.609374 115.063032 
L 186.661342 115.063032 
L 186.67431 109.820555 
L 186.842005 109.820555 
L 186.940141 108.247812 
L 187.012318 108.247812 
L 187.088411 105.102326 
L 187.273011 105.102326 
L 187.273011 104.05383 
L 187.656785 104.05383 
L 187.656785 101.956839 
L 187.778777 101.956839 
L 187.778777 101.432592 
L 188.024189 101.432592 
L 188.044151 99.859849 
L 188.191148 99.859849 
L 188.191148 99.335601 
L 188.321201 99.335601 
L 188.395636 95.141619 
L 188.539671 95.141619 
L 188.613168 94.093124 
L 188.678663 94.093124 
L 188.678663 93.044628 
L 188.835603 93.044628 
L 188.923019 89.899142 
L 189.021305 89.899142 
L 189.08151 86.229408 
L 189.201292 86.229408 
L 189.201292 84.656665 
L 189.342457 84.656665 
L 189.342457 83.608169 
L 189.456766 83.608169 
L 189.456766 83.083922 
L 189.748291 83.083922 
L 189.748291 82.035426 
L 189.874295 82.035426 
L 189.985132 78.88994 
L 190.002942 78.88994 
L 190.002942 77.841444 
L 190.116492 77.841444 
L 190.120029 75.744454 
L 190.337876 75.744454 
L 190.400608 74.17171 
L 190.611515 74.17171 
L 190.683527 69.453481 
L 190.867328 69.453481 
L 190.95176 66.307995 
L 191.022364 66.307995 
L 191.109378 62.638261 
L 191.159379 62.638261 
L 191.192632 61.589765 
L 191.35465 61.589765 
L 191.449823 57.920031 
L 191.521674 57.920031 
L 191.521674 57.395783 
L 191.825334 57.395783 
L 191.825334 56.871536 
L 191.972001 56.871536 
L 191.981523 55.82304 
L 192.089071 55.82304 
L 192.089071 55.298792 
L 192.249141 55.298792 
L 192.249141 54.774545 
L 192.426297 54.774545 
L 192.475699 53.201802 
L 192.626114 53.201802 
L 192.696265 49.00782 
L 192.754001 49.00782 
L 192.754001 46.910829 
L 192.944066 46.910829 
L 192.997987 43.765343 
L 193.353197 43.765343 
L 193.435034 38.522865 
L 193.525187 38.522865 
L 193.525187 37.47437 
L 193.663853 37.47437 
L 193.729902 35.377379 
L 193.812822 35.377379 
L 193.90102 32.756141 
L 193.952025 32.756141 
L 193.952025 31.183397 
L 194.199226 31.183397 
L 194.229878 28.562159 
L 194.324275 28.562159 
L 194.324275 28.037911 
L 195.135465 28.037911 
L 195.135465 27.513663 
L 333.168 27.513663 
L 333.168 27.513663 
" style="fill:none;stroke:#00bfbf;stroke-linecap:square;stroke-width:1.5;"/>
   </g>
   <g id="line2d_39">
    <defs>
     <path d="M -6 0 
L 6 0 
M 0 6 
L 0 -6 
" id="meffc8c978f" style="stroke:#00bfbf;stroke-width:1.5;"/>
    </defs>
    <g>
     <use style="fill-opacity:0;stroke:#00bfbf;stroke-width:1.5;" x="180.619928" xlink:href="#meffc8c978f" y="181.642493"/>
     <use style="fill-opacity:0;stroke:#00bfbf;stroke-width:1.5;" x="193.353197" xlink:href="#meffc8c978f" y="43.765343"/>
     <use style="fill-opacity:0;stroke:#00bfbf;stroke-width:1.5;" x="195.135465" xlink:href="#meffc8c978f" y="27.513663"/>
     <use style="fill-opacity:0;stroke:#00bfbf;stroke-width:1.5;" x="195.135465" xlink:href="#meffc8c978f" y="27.513663"/>
     <use style="fill-opacity:0;stroke:#00bfbf;stroke-width:1.5;" x="333.168" xlink:href="#meffc8c978f" y="27.513663"/>
    </g>
   </g>
   <g id="line2d_40">
    <path style="fill:none;stroke:#00bfbf;stroke-linecap:square;stroke-width:1.5;"/>
    <g/>
   </g>
   <g id="line2d_41">
    <defs>
     <path d="M 0 1.5 
C 0.397805 1.5 0.77937 1.341951 1.06066 1.06066 
C 1.341951 0.77937 1.5 0.397805 1.5 0 
C 1.5 -0.397805 1.341951 -0.77937 1.06066 -1.06066 
C 0.77937 -1.341951 0.397805 -1.5 0 -1.5 
C -0.397805 -1.5 -0.77937 -1.341951 -1.06066 -1.06066 
C -1.341951 -0.77937 -1.5 -0.397805 -1.5 0 
C -1.5 0.397805 -1.341951 0.77937 -1.06066 1.06066 
C -0.77937 1.341951 -0.397805 1.5 0 1.5 
z
" id="m056ed8c47d" style="stroke:#008000;"/>
    </defs>
    <g>
     <use style="fill:#008000;stroke:#008000;" x="190.482743" xlink:href="#m056ed8c47d" y="27.513663"/>
     <use style="fill:#008000;stroke:#008000;" x="190.482743" xlink:href="#m056ed8c47d" y="27.513663"/>
    </g>
   </g>
   <g id="line2d_42">
    <path d="M 83.784035 294.88 
L 83.784035 292.783009 
L 146.066208 292.783009 
L 146.066208 292.258761 
L 147.947413 292.258761 
L 147.947413 291.734514 
L 148.380535 291.734514 
L 148.380535 291.210266 
L 149.889502 291.210266 
L 149.889502 290.686018 
L 151.722528 290.686018 
L 151.722528 290.161771 
L 152.412754 290.161771 
L 152.412754 289.637523 
L 153.197948 289.637523 
L 153.197948 289.113275 
L 154.141104 289.113275 
L 154.141104 288.589027 
L 155.394421 288.589027 
L 155.394421 287.540532 
L 156.727806 287.540532 
L 156.727806 287.016284 
L 157.826851 287.016284 
L 157.873078 284.395046 
L 158.328634 284.395046 
L 158.4034 282.298055 
L 158.772427 282.298055 
L 158.859827 279.152568 
L 159.047683 279.152568 
L 159.047683 278.628321 
L 159.162274 278.628321 
L 159.162274 277.579825 
L 159.332741 277.579825 
L 159.332741 277.055578 
L 159.487531 277.055578 
L 159.487531 276.53133 
L 159.834228 276.53133 
L 159.834228 276.007082 
L 160.441186 276.007082 
L 160.441186 275.482834 
L 160.651931 275.482834 
L 160.665017 272.861596 
L 160.873051 272.861596 
L 160.873051 271.288853 
L 161.155049 271.288853 
L 161.155049 270.240357 
L 161.889239 270.240357 
L 161.889239 269.716109 
L 162.11915 269.716109 
L 162.11915 269.191862 
L 162.790989 269.191862 
L 162.790989 268.667614 
L 163.190875 268.667614 
L 163.190875 264.99788 
L 164.189028 264.99788 
L 164.231601 262.900889 
L 164.358689 262.900889 
L 164.358689 261.328146 
L 164.474367 261.328146 
L 164.474367 260.279651 
L 164.919238 260.279651 
L 164.960041 259.231155 
L 165.707708 259.231155 
L 165.707708 258.18266 
L 166.656549 258.18266 
L 166.656549 257.134164 
L 167.273085 257.134164 
L 167.379626 256.085669 
L 167.773376 256.085669 
L 167.773376 255.037173 
L 167.902647 255.037173 
L 167.902647 254.512926 
L 168.368492 254.512926 
L 168.460165 252.940182 
L 169.287715 252.940182 
L 169.287715 251.891687 
L 169.421848 251.891687 
L 169.421848 251.367439 
L 169.586109 251.367439 
L 169.632754 250.318944 
L 170.257864 250.318944 
L 170.347466 247.697705 
L 170.70857 247.697705 
L 170.803113 246.64921 
L 170.983478 246.64921 
L 170.983478 246.124962 
L 171.097926 246.124962 
L 171.097926 245.076467 
L 171.492598 245.076467 
L 171.492598 244.027971 
L 171.796463 244.027971 
L 171.830656 242.455228 
L 171.926035 242.455228 
L 171.926035 241.406733 
L 172.381922 241.406733 
L 172.381922 240.358237 
L 172.500602 240.358237 
L 172.605411 239.309742 
L 173.08836 239.309742 
L 173.145412 235.640008 
L 173.396712 235.640008 
L 173.490011 232.494521 
L 173.588974 232.494521 
L 173.687371 230.921778 
L 173.754693 230.921778 
L 173.833918 229.873283 
L 173.894612 229.873283 
L 173.894612 229.349035 
L 174.129293 229.349035 
L 174.129293 227.776292 
L 174.595074 227.776292 
L 174.693677 226.727797 
L 174.963375 226.727797 
L 174.963375 225.679301 
L 175.279289 225.679301 
L 175.335097 224.106558 
L 175.46277 224.106558 
L 175.46277 223.58231 
L 175.796859 223.58231 
L 175.802282 221.485319 
L 175.996384 221.485319 
L 176.103279 218.339833 
L 176.346643 218.339833 
L 176.346643 217.815585 
L 176.581429 217.815585 
L 176.653824 213.097356 
L 176.884478 213.097356 
L 176.884478 212.573108 
L 177.016348 212.573108 
L 177.031499 211.000365 
L 177.212275 211.000365 
L 177.267135 208.903374 
L 177.430672 208.903374 
L 177.524129 207.330631 
L 177.563328 207.330631 
L 177.587782 205.23364 
L 177.830426 205.23364 
L 177.940902 200.515411 
L 178.012572 200.515411 
L 178.060186 198.41842 
L 178.136095 198.41842 
L 178.136095 196.321429 
L 178.329095 196.321429 
L 178.329095 195.797181 
L 178.450372 195.797181 
L 178.524581 188.981961 
L 178.736165 188.981961 
L 178.745305 186.360722 
L 178.859153 186.360722 
L 178.93614 184.263731 
L 178.990278 184.263731 
L 178.990278 183.739484 
L 179.147212 183.739484 
L 179.245128 179.021254 
L 179.271735 179.021254 
L 179.377757 176.400016 
L 179.390963 176.400016 
L 179.496254 172.730281 
L 179.557377 172.730281 
L 179.557377 172.206034 
L 179.739452 172.206034 
L 179.786822 171.157538 
L 179.881171 171.157538 
L 179.979258 168.5363 
L 180.093694 168.5363 
L 180.173768 165.390813 
L 180.282743 165.390813 
L 180.282743 162.245327 
L 180.449059 162.245327 
L 180.473869 159.624089 
L 180.671063 159.624089 
L 180.752565 158.051345 
L 180.817489 158.051345 
L 180.894269 154.905859 
L 180.994776 154.905859 
L 181.058793 153.333116 
L 181.126551 153.333116 
L 181.186117 151.236125 
L 181.430155 151.236125 
L 181.484784 147.566391 
L 181.554767 147.566391 
L 181.659211 142.848162 
L 181.690035 142.848162 
L 181.690035 142.323914 
L 181.84715 142.323914 
L 181.881447 137.081437 
L 182.066986 137.081437 
L 182.100848 135.508693 
L 182.384163 135.508693 
L 182.46899 131.314712 
L 182.542415 131.314712 
L 182.57901 128.693473 
L 182.688329 128.693473 
L 182.688329 127.644978 
L 182.814996 127.644978 
L 182.814996 125.547987 
L 183.185963 125.547987 
L 183.185963 125.023739 
L 183.465971 125.023739 
L 183.54218 123.975244 
L 183.607727 123.975244 
L 183.714137 120.829757 
L 183.720979 120.829757 
L 183.796069 117.160023 
L 183.843683 117.160023 
L 183.843683 115.58728 
L 183.98237 115.58728 
L 184.059683 112.966042 
L 184.233205 112.966042 
L 184.233205 111.917546 
L 184.38526 111.917546 
L 184.404994 110.869051 
L 184.597851 110.869051 
L 184.597851 110.344803 
L 184.740281 110.344803 
L 184.830308 107.199317 
L 184.910293 107.199317 
L 184.967652 101.956839 
L 185.050168 101.956839 
L 185.113373 96.714362 
L 185.248482 96.714362 
L 185.332778 91.996133 
L 185.444534 91.996133 
L 185.552494 89.899142 
L 185.577075 89.899142 
L 185.687259 86.229408 
L 185.944647 86.229408 
L 186.016629 82.559674 
L 186.245556 82.559674 
L 186.245556 81.511178 
L 186.486043 81.511178 
L 186.532577 78.88994 
L 186.68295 78.88994 
L 186.757645 75.220206 
L 186.834872 75.220206 
L 186.940141 74.17171 
L 186.951483 74.17171 
L 186.951483 72.074719 
L 187.316078 72.074719 
L 187.404651 65.783747 
L 187.498262 65.783747 
L 187.577706 63.686756 
L 187.629557 63.686756 
L 187.659505 58.444279 
L 187.883808 58.444279 
L 187.907955 54.774545 
L 188.001539 54.774545 
L 188.030846 53.726049 
L 188.192466 53.726049 
L 188.245128 51.104811 
L 188.313347 51.104811 
L 188.378688 49.00782 
L 188.518983 49.00782 
L 188.518983 47.959324 
L 188.653008 47.959324 
L 188.74774 40.619856 
L 188.813997 40.619856 
L 188.877466 36.950122 
L 188.948274 36.950122 
L 189.021305 34.853131 
L 189.091524 34.853131 
L 189.091524 34.328884 
L 189.260871 34.328884 
L 189.35725 31.707645 
L 189.751904 31.707645 
L 189.761535 30.65915 
L 189.917284 30.65915 
L 189.969681 29.086407 
L 190.259722 29.086407 
L 190.259722 28.037911 
L 190.482743 28.037911 
L 190.482743 27.513663 
L 333.168 27.513663 
L 333.168 27.513663 
" style="fill:none;stroke:#008000;stroke-linecap:square;stroke-width:1.5;"/>
   </g>
   <g id="line2d_43">
    <defs>
     <path d="M -0 6 
L 6 -6 
L -6 -6 
z
" id="m0c37122c14" style="stroke:#008000;stroke-linejoin:miter;stroke-width:1.5;"/>
    </defs>
    <g>
     <use style="fill-opacity:0;stroke:#008000;stroke-linejoin:miter;stroke-width:1.5;" x="172.381922" xlink:href="#m0c37122c14" y="241.406733"/>
     <use style="fill-opacity:0;stroke:#008000;stroke-linejoin:miter;stroke-width:1.5;" x="187.360422" xlink:href="#m0c37122c14" y="69.453481"/>
     <use style="fill-opacity:0;stroke:#008000;stroke-linejoin:miter;stroke-width:1.5;" x="190.482743" xlink:href="#m0c37122c14" y="27.513663"/>
     <use style="fill-opacity:0;stroke:#008000;stroke-linejoin:miter;stroke-width:1.5;" x="190.482743" xlink:href="#m0c37122c14" y="27.513663"/>
     <use style="fill-opacity:0;stroke:#008000;stroke-linejoin:miter;stroke-width:1.5;" x="333.168" xlink:href="#m0c37122c14" y="27.513663"/>
    </g>
   </g>
   <g id="line2d_44">
    <path style="fill:none;stroke:#008000;stroke-linecap:square;stroke-width:1.5;"/>
    <g/>
   </g>
   <g id="line2d_45">
    <defs>
     <path d="M 0 1.5 
C 0.397805 1.5 0.77937 1.341951 1.06066 1.06066 
C 1.341951 0.77937 1.5 0.397805 1.5 0 
C 1.5 -0.397805 1.341951 -0.77937 1.06066 -1.06066 
C 0.77937 -1.341951 0.397805 -1.5 0 -1.5 
C -0.397805 -1.5 -0.77937 -1.341951 -1.06066 -1.06066 
C -1.341951 -0.77937 -1.5 -0.397805 -1.5 0 
C -1.5 0.397805 -1.341951 0.77937 -1.06066 1.06066 
C -0.77937 1.341951 -0.397805 1.5 0 1.5 
z
" id="m97903bfa5f" style="stroke:#0000ff;"/>
    </defs>
    <g>
     <use style="fill:#0000ff;stroke:#0000ff;" x="236.575474" xlink:href="#m97903bfa5f" y="27.513663"/>
     <use style="fill:#0000ff;stroke:#0000ff;" x="236.575474" xlink:href="#m97903bfa5f" y="27.513663"/>
    </g>
   </g>
   <g id="line2d_46">
    <path d="M 154.331245 294.88 
L 154.331245 294.355752 
L 155.042447 294.355752 
L 155.042447 293.307257 
L 157.848439 293.307257 
L 157.848439 292.258761 
L 159.079271 292.258761 
L 159.079271 291.734514 
L 160.276064 291.734514 
L 160.276064 291.210266 
L 160.852361 291.210266 
L 160.860123 290.161771 
L 162.131166 290.161771 
L 162.21026 288.589027 
L 162.516002 288.589027 
L 162.516002 287.016284 
L 162.656375 287.016284 
L 162.656375 286.492036 
L 162.968086 286.492036 
L 163.04343 284.395046 
L 163.138847 284.395046 
L 163.206679 282.822302 
L 163.260752 282.822302 
L 163.260752 282.298055 
L 163.64778 282.298055 
L 163.64778 280.725312 
L 163.779242 280.725312 
L 163.798875 278.104073 
L 163.987513 278.104073 
L 164.026284 276.007082 
L 164.339686 276.007082 
L 164.339686 275.482834 
L 165.004814 275.482834 
L 165.004814 272.861596 
L 165.574523 272.861596 
L 165.574523 271.288853 
L 165.895924 271.288853 
L 165.895924 270.764605 
L 166.2795 270.764605 
L 166.2795 270.240357 
L 166.476522 270.240357 
L 166.482119 269.191862 
L 166.721046 269.191862 
L 166.721046 268.143366 
L 166.994756 268.143366 
L 167.005615 266.046375 
L 167.25348 266.046375 
L 167.25348 265.522128 
L 167.513637 265.522128 
L 167.513637 264.99788 
L 167.733538 264.99788 
L 167.733538 263.949385 
L 167.955796 263.949385 
L 167.955796 263.425137 
L 169.256002 263.425137 
L 169.256002 262.900889 
L 169.693204 262.900889 
L 169.693204 261.852394 
L 170.146708 261.852394 
L 170.146708 260.803898 
L 170.811814 260.803898 
L 170.811814 260.279651 
L 171.45633 260.279651 
L 171.45633 259.231155 
L 171.866144 259.231155 
L 171.866144 257.658412 
L 172.069466 257.658412 
L 172.069466 256.609917 
L 172.306333 256.609917 
L 172.306333 255.037173 
L 172.602798 255.037173 
L 172.602798 254.512926 
L 172.882674 254.512926 
L 172.886529 253.46443 
L 173.062942 253.46443 
L 173.074385 251.367439 
L 173.492492 251.367439 
L 173.499933 249.794696 
L 173.783988 249.794696 
L 173.783988 249.270448 
L 174.070623 249.270448 
L 174.160343 248.221953 
L 174.221087 248.221953 
L 174.221087 247.173458 
L 174.878904 247.173458 
L 174.937165 245.600714 
L 175.588404 245.600714 
L 175.631174 244.027971 
L 175.862905 244.027971 
L 175.862905 242.979476 
L 176.117127 242.979476 
L 176.222218 240.882485 
L 176.411661 240.882485 
L 176.430491 239.83399 
L 176.53057 239.83399 
L 176.53057 238.785494 
L 176.664141 238.785494 
L 176.664141 238.261246 
L 176.824294 238.261246 
L 176.916016 236.688503 
L 177.215272 236.688503 
L 177.215272 236.164255 
L 177.420805 236.164255 
L 177.420805 235.640008 
L 177.656068 235.640008 
L 177.720205 233.018769 
L 177.769602 233.018769 
L 177.769602 232.494521 
L 178.03449 232.494521 
L 178.06589 231.446026 
L 178.148398 231.446026 
L 178.219209 229.349035 
L 178.278466 229.349035 
L 178.278466 228.824787 
L 178.557871 228.824787 
L 178.640815 227.776292 
L 178.846439 227.776292 
L 178.930717 225.155053 
L 179.098044 225.155053 
L 179.106099 222.009567 
L 179.24779 222.009567 
L 179.24779 220.961072 
L 179.398883 220.961072 
L 179.480501 217.815585 
L 179.634778 217.815585 
L 179.645187 215.718594 
L 179.80831 215.718594 
L 179.890577 214.145851 
L 180.008151 214.145851 
L 180.015791 213.097356 
L 180.157783 213.097356 
L 180.228342 209.427622 
L 180.396013 209.427622 
L 180.396013 208.903374 
L 180.517611 208.903374 
L 180.517611 206.806383 
L 180.896688 206.806383 
L 180.954644 204.185145 
L 181.062786 204.185145 
L 181.167872 202.612401 
L 181.198798 202.612401 
L 181.198798 202.088154 
L 181.319586 202.088154 
L 181.38084 199.466915 
L 181.439532 199.466915 
L 181.5097 197.894172 
L 181.616736 197.894172 
L 181.653811 194.224438 
L 181.730025 194.224438 
L 181.730025 193.70019 
L 181.863164 193.70019 
L 181.965756 190.030456 
L 181.986201 190.030456 
L 182.092576 184.787979 
L 182.135393 184.787979 
L 182.144394 182.690988 
L 182.283301 182.690988 
L 182.321194 179.545502 
L 182.421096 179.545502 
L 182.511615 176.924263 
L 182.540217 176.924263 
L 182.641043 174.827272 
L 182.693414 174.827272 
L 182.726065 173.778777 
L 182.821485 173.778777 
L 182.821485 173.254529 
L 182.944316 173.254529 
L 183.040671 169.584795 
L 183.087582 169.584795 
L 183.187374 166.963557 
L 183.238109 166.963557 
L 183.238109 165.915061 
L 183.3622 165.915061 
L 183.443737 161.721079 
L 183.578779 161.721079 
L 183.6325 160.148336 
L 183.73534 160.148336 
L 183.84572 154.905859 
L 183.904708 154.905859 
L 183.99584 149.139134 
L 184.180666 149.139134 
L 184.268363 145.4694 
L 184.298158 145.4694 
L 184.38526 140.226923 
L 184.412881 140.226923 
L 184.426676 138.129932 
L 184.583543 138.129932 
L 184.655613 134.460198 
L 184.748661 134.460198 
L 184.841208 129.217721 
L 184.971469 129.217721 
L 185.074213 123.450996 
L 185.093172 123.450996 
L 185.180118 120.30551 
L 185.223426 120.30551 
L 185.332156 117.160023 
L 185.347099 117.160023 
L 185.410464 114.014537 
L 185.468035 114.014537 
L 185.551264 108.77206 
L 185.589967 108.77206 
L 185.65061 107.199317 
L 185.725657 107.199317 
L 185.769436 105.102326 
L 185.876587 105.102326 
L 185.979476 101.956839 
L 186.004653 101.956839 
L 186.076384 94.093124 
L 186.174529 94.093124 
L 186.284497 90.42339 
L 186.286265 90.42339 
L 186.321585 86.753656 
L 186.43763 86.753656 
L 186.462145 83.608169 
L 186.578986 83.608169 
L 186.615445 82.035426 
L 186.753632 82.035426 
L 186.80002 79.938435 
L 195.517845 79.938435 
L 195.517845 79.414188 
L 195.982652 79.414188 
L 195.982652 78.88994 
L 196.273822 78.88994 
L 196.353726 77.841444 
L 196.404827 77.841444 
L 196.445011 76.268701 
L 196.814965 76.268701 
L 196.814965 75.744454 
L 197.098139 75.744454 
L 197.190253 74.695958 
L 197.280944 74.695958 
L 197.280944 74.17171 
L 197.40452 74.17171 
L 197.446131 71.026224 
L 197.638082 71.026224 
L 197.730989 69.453481 
L 197.764567 69.453481 
L 197.837847 67.880738 
L 197.942249 67.880738 
L 198.014777 65.783747 
L 198.070086 65.783747 
L 198.166008 64.211004 
L 198.222599 64.211004 
L 198.279885 62.114013 
L 198.367645 62.114013 
L 198.476718 57.920031 
L 198.520155 57.920031 
L 198.574729 55.82304 
L 198.675623 55.82304 
L 198.785329 53.726049 
L 204.23074 53.726049 
L 204.23074 53.201802 
L 204.798207 53.201802 
L 204.898474 51.629058 
L 205.12329 51.629058 
L 205.153398 50.056315 
L 205.251621 50.056315 
L 205.310169 46.910829 
L 205.363276 46.910829 
L 205.405759 45.338086 
L 205.477683 45.338086 
L 205.5735 42.716847 
L 205.602256 42.716847 
L 205.705381 41.144104 
L 209.5368 41.144104 
L 209.5368 40.619856 
L 209.942872 40.619856 
L 210.044795 39.047113 
L 210.173887 39.047113 
L 210.216997 37.998618 
L 210.520519 37.998618 
L 210.554585 36.425875 
L 214.239544 36.425875 
L 214.26907 35.377379 
L 214.398042 35.377379 
L 214.476404 33.804636 
L 214.577606 33.804636 
L 214.577606 33.280388 
L 217.615347 33.280388 
L 217.615347 32.756141 
L 219.986995 32.756141 
L 219.986995 32.231893 
L 220.192805 32.231893 
L 220.282811 30.134902 
L 222.431317 30.134902 
L 222.536553 29.086407 
L 222.576627 29.086407 
L 222.576627 28.562159 
L 224.478233 28.562159 
L 224.478233 28.037911 
L 236.575474 28.037911 
L 236.575474 27.513663 
L 333.168 27.513663 
L 333.168 27.513663 
" style="fill:none;stroke:#0000ff;stroke-linecap:square;stroke-width:1.5;"/>
   </g>
   <g id="line2d_47">
    <defs>
     <path d="M 0 -6 
L -1.347084 -1.854102 
L -5.706339 -1.854102 
L -2.179628 0.708204 
L -3.526712 4.854102 
L -0 2.291796 
L 3.526712 4.854102 
L 2.179628 0.708204 
L 5.706339 -1.854102 
L 1.347084 -1.854102 
z
" id="m6c9e85020b" style="stroke:#0000ff;stroke-linejoin:bevel;stroke-width:1.5;"/>
    </defs>
    <g>
     <use style="fill-opacity:0;stroke:#0000ff;stroke-linejoin:bevel;stroke-width:1.5;" x="204.798207" xlink:href="#m6c9e85020b" y="52.677554"/>
     <use style="fill-opacity:0;stroke:#0000ff;stroke-linejoin:bevel;stroke-width:1.5;" x="236.575474" xlink:href="#m6c9e85020b" y="27.513663"/>
     <use style="fill-opacity:0;stroke:#0000ff;stroke-linejoin:bevel;stroke-width:1.5;" x="236.575474" xlink:href="#m6c9e85020b" y="27.513663"/>
     <use style="fill-opacity:0;stroke:#0000ff;stroke-linejoin:bevel;stroke-width:1.5;" x="333.168" xlink:href="#m6c9e85020b" y="27.513663"/>
    </g>
   </g>
   <g id="line2d_48">
    <path style="fill:none;stroke:#0000ff;stroke-linecap:square;stroke-width:1.5;"/>
    <g/>
   </g>
   <g id="line2d_49">
    <path clip-path="url(#pf3f6a525fb)" d="M 186.941843 79.938435 
" style="fill:none;stroke:#0000ff;stroke-linecap:square;stroke-width:1.5;"/>
    <defs>
     <path d="M -12 12 
L 12 -12 
M -12 -12 
L 12 12 
" id="m01eb4378ee" style="stroke:#0000ff;"/>
    </defs>
    <g clip-path="url(#pf3f6a525fb)">
     <use style="fill:#0000ff;stroke:#0000ff;" x="186.941843" xlink:href="#m01eb4378ee" y="79.938435"/>
    </g>
   </g>
   <g id="line2d_50">
    <defs>
     <path d="M 0 1.5 
C 0.397805 1.5 0.77937 1.341951 1.06066 1.06066 
C 1.341951 0.77937 1.5 0.397805 1.5 0 
C 1.5 -0.397805 1.341951 -0.77937 1.06066 -1.06066 
C 0.77937 -1.341951 0.397805 -1.5 0 -1.5 
C -0.397805 -1.5 -0.77937 -1.341951 -1.06066 -1.06066 
C -1.341951 -0.77937 -1.5 -0.397805 -1.5 0 
C -1.5 0.397805 -1.341951 0.77937 -1.06066 1.06066 
C -0.77937 1.341951 -0.397805 1.5 0 1.5 
z
" id="m79812ec020" style="stroke:#000000;"/>
    </defs>
    <g>
     <use style="stroke:#000000;" x="242.918059" xlink:href="#m79812ec020" y="268.667614"/>
     <use style="stroke:#000000;" x="242.918059" xlink:href="#m79812ec020" y="268.667614"/>
    </g>
   </g>
   <g id="line2d_51">
    <path d="M 160.751137 294.88 
L 160.751137 294.355752 
L 161.957322 294.355752 
L 161.957322 293.831505 
L 168.729013 293.831505 
L 168.729013 293.307257 
L 173.258323 293.307257 
L 173.258323 292.258761 
L 173.620399 292.258761 
L 173.620399 291.210266 
L 181.245082 291.210266 
L 181.245082 290.686018 
L 181.620215 290.686018 
L 181.620215 289.637523 
L 181.946424 289.637523 
L 181.946424 289.113275 
L 184.079459 289.113275 
L 184.079459 288.589027 
L 185.71104 288.589027 
L 185.71104 288.06478 
L 186.252643 288.06478 
L 186.252643 287.540532 
L 190.330193 287.540532 
L 190.330193 287.016284 
L 190.747058 287.016284 
L 190.747058 285.967789 
L 191.739304 285.967789 
L 191.739304 285.443541 
L 192.101679 285.443541 
L 192.101679 283.870798 
L 196.400411 283.870798 
L 196.400411 283.34655 
L 197.253413 283.34655 
L 197.253413 282.822302 
L 197.517099 282.822302 
L 197.517099 282.298055 
L 198.251707 282.298055 
L 198.251707 281.773807 
L 198.430555 281.773807 
L 198.430555 281.249559 
L 202.419253 281.249559 
L 202.419253 280.201064 
L 204.944509 280.201064 
L 204.944509 279.676816 
L 208.23325 279.676816 
L 208.23325 279.152568 
L 208.281013 279.152568 
L 208.281013 278.628321 
L 210.470808 278.628321 
L 210.470808 278.104073 
L 211.746508 278.104073 
L 211.746508 277.579825 
L 212.19871 277.579825 
L 212.19871 276.53133 
L 212.528878 276.53133 
L 212.528878 276.007082 
L 214.082729 276.007082 
L 214.082729 275.482834 
L 215.769203 275.482834 
L 215.769203 274.958587 
L 218.43535 274.958587 
L 218.43535 274.434339 
L 221.228277 274.434339 
L 221.228277 273.910091 
L 223.208929 273.910091 
L 223.208929 273.385844 
L 225.313255 273.385844 
L 225.313255 272.861596 
L 225.365111 272.861596 
L 225.365111 272.337348 
L 226.400939 272.337348 
L 226.400939 271.8131 
L 227.294304 271.8131 
L 227.294304 271.288853 
L 228.863599 271.288853 
L 228.863599 270.764605 
L 229.437939 270.764605 
L 229.437939 270.240357 
L 229.985572 270.240357 
L 229.985572 269.716109 
L 230.977766 269.716109 
L 230.977766 269.191862 
L 242.918059 269.191862 
L 242.918059 268.667614 
L 333.168 268.667614 
" style="fill:none;stroke:#000000;stroke-linecap:square;stroke-width:1.5;"/>
   </g>
   <g id="line2d_52">
    <defs>
     <path d="M 0 6 
C 1.591219 6 3.117479 5.367802 4.242641 4.242641 
C 5.367802 3.117479 6 1.591219 6 0 
C 6 -1.591219 5.367802 -3.117479 4.242641 -4.242641 
C 3.117479 -5.367802 1.591219 -6 0 -6 
C -1.591219 -6 -3.117479 -5.367802 -4.242641 -4.242641 
C -5.367802 -3.117479 -6 -1.591219 -6 0 
C -6 1.591219 -5.367802 3.117479 -4.242641 4.242641 
C -3.117479 5.367802 -1.591219 6 0 6 
z
" id="m215cf3dd57" style="stroke:#000000;stroke-width:1.5;"/>
    </defs>
    <g>
     <use style="fill-opacity:0;stroke:#000000;stroke-width:1.5;" x="242.918059" xlink:href="#m215cf3dd57" y="269.191862"/>
     <use style="fill-opacity:0;stroke:#000000;stroke-width:1.5;" x="242.918059" xlink:href="#m215cf3dd57" y="268.667614"/>
     <use style="fill-opacity:0;stroke:#000000;stroke-width:1.5;" x="242.918059" xlink:href="#m215cf3dd57" y="268.667614"/>
     <use style="fill-opacity:0;stroke:#000000;stroke-width:1.5;" x="333.168" xlink:href="#m215cf3dd57" y="268.667614"/>
    </g>
   </g>
   <g id="line2d_53">
    <path style="fill:none;stroke:#000000;stroke-linecap:square;stroke-width:1.5;"/>
    <g/>
   </g>
   <g id="line2d_54">
    <path clip-path="url(#pf3f6a525fb)" d="M 175.027591 291.210266 
" style="fill:none;stroke:#000000;stroke-linecap:square;stroke-width:1.5;"/>
    <defs>
     <path d="M -12 12 
L 12 -12 
M -12 -12 
L 12 12 
" id="mad24b0bfe7" style="stroke:#000000;"/>
    </defs>
    <g clip-path="url(#pf3f6a525fb)">
     <use style="stroke:#000000;" x="175.027591" xlink:href="#mad24b0bfe7" y="291.210266"/>
    </g>
   </g>
   <g id="line2d_55">
    <path clip-path="url(#pf3f6a525fb)" d="M 56.12 294.88 
L 56.12 294.88 
L 56.12 294.88 
L 56.12 294.88 
L 333.168 294.88 
" style="fill:none;stroke:#ff0000;stroke-linecap:square;stroke-width:1.5;"/>
   </g>
   <g id="line2d_56">
    <defs>
     <path d="M -6 6 
L 6 6 
L 6 -6 
L -6 -6 
z
" id="m21fc74022d" style="stroke:#ff0000;stroke-linejoin:miter;stroke-width:1.5;"/>
    </defs>
    <g clip-path="url(#pf3f6a525fb)">
     <use style="fill-opacity:0;stroke:#ff0000;stroke-linejoin:miter;stroke-width:1.5;" x="56.12" xlink:href="#m21fc74022d" y="294.88"/>
    </g>
   </g>
   <g id="line2d_57">
    <path clip-path="url(#pf3f6a525fb)" style="fill:none;stroke:#ff0000;stroke-linecap:square;stroke-width:1.5;"/>
    <g clip-path="url(#pf3f6a525fb)">
     <use style="fill-opacity:0;stroke:#ff0000;stroke-linejoin:miter;stroke-width:1.5;" x="-1" xlink:href="#m21fc74022d" y="562.246337"/>
     <use style="fill-opacity:0;stroke:#ff0000;stroke-linejoin:miter;stroke-width:1.5;" x="333.168" xlink:href="#m21fc74022d" y="562.246337"/>
    </g>
   </g>
   <g id="line2d_58">
    <path clip-path="url(#pf3f6a525fb)" d="M 56.12 294.88 
L 56.12 294.88 
L 56.12 294.88 
L 56.12 294.88 
L 333.168 294.88 
" style="fill:none;stroke:#bf00bf;stroke-linecap:square;stroke-width:1.5;"/>
   </g>
   <g id="line2d_59">
    <defs>
     <path d="M -0 8.485281 
L 8.485281 0 
L 0 -8.485281 
L -8.485281 -0 
z
" id="m7324261f63" style="stroke:#bf00bf;stroke-linejoin:miter;stroke-width:1.5;"/>
    </defs>
    <g clip-path="url(#pf3f6a525fb)">
     <use style="fill-opacity:0;stroke:#bf00bf;stroke-linejoin:miter;stroke-width:1.5;" x="56.12" xlink:href="#m7324261f63" y="294.88"/>
    </g>
   </g>
   <g id="line2d_60">
    <path clip-path="url(#pf3f6a525fb)" style="fill:none;stroke:#bf00bf;stroke-linecap:square;stroke-width:1.5;"/>
    <g clip-path="url(#pf3f6a525fb)">
     <use style="fill-opacity:0;stroke:#bf00bf;stroke-linejoin:miter;stroke-width:1.5;" x="-1" xlink:href="#m7324261f63" y="562.246337"/>
     <use style="fill-opacity:0;stroke:#bf00bf;stroke-linejoin:miter;stroke-width:1.5;" x="333.168" xlink:href="#m7324261f63" y="562.246337"/>
    </g>
   </g>
   <g id="line2d_61">
    <path d="M 333.168 294.88 
L 363.64328 289.532673 
" style="fill:none;stroke:#bf00bf;stroke-linecap:square;stroke-width:1.5;"/>
    <g>
     <use style="fill-opacity:0;stroke:#bf00bf;stroke-linejoin:miter;stroke-width:1.5;" x="333.168" xlink:href="#m7324261f63" y="294.88"/>
     <use style="fill-opacity:0;stroke:#bf00bf;stroke-linejoin:miter;stroke-width:1.5;" x="363.64328" xlink:href="#m7324261f63" y="289.532673"/>
    </g>
   </g>
   <g id="line2d_62">
    <path d="M 333.168 294.88 
L 363.64328 238.198337 
" style="fill:none;stroke:#ff0000;stroke-linecap:square;stroke-width:1.5;"/>
    <g>
     <use style="fill-opacity:0;stroke:#ff0000;stroke-linejoin:miter;stroke-width:1.5;" x="333.168" xlink:href="#m21fc74022d" y="294.88"/>
     <use style="fill-opacity:0;stroke:#ff0000;stroke-linejoin:miter;stroke-width:1.5;" x="363.64328" xlink:href="#m21fc74022d" y="238.198337"/>
    </g>
   </g>
   <g id="line2d_63">
    <path d="M 333.168 268.667614 
L 363.64328 186.864 
" style="fill:none;stroke:#000000;stroke-linecap:square;stroke-width:1.5;"/>
    <g>
     <use style="fill-opacity:0;stroke:#000000;stroke-width:1.5;" x="333.168" xlink:href="#m215cf3dd57" y="268.667614"/>
     <use style="fill-opacity:0;stroke:#000000;stroke-width:1.5;" x="363.64328" xlink:href="#m215cf3dd57" y="186.864"/>
    </g>
   </g>
   <g id="line2d_64">
    <path d="M 333.168 27.513663 
L 363.64328 135.529663 
" style="fill:none;stroke:#0000ff;stroke-linecap:square;stroke-width:1.5;"/>
    <g>
     <use style="fill-opacity:0;stroke:#0000ff;stroke-linejoin:bevel;stroke-width:1.5;" x="333.168" xlink:href="#m6c9e85020b" y="27.513663"/>
     <use style="fill-opacity:0;stroke:#0000ff;stroke-linejoin:bevel;stroke-width:1.5;" x="363.64328" xlink:href="#m6c9e85020b" y="135.529663"/>
    </g>
   </g>
   <g id="line2d_65">
    <path d="M 333.168 27.513663 
L 363.64328 84.195327 
" style="fill:none;stroke:#00bfbf;stroke-linecap:square;stroke-width:1.5;"/>
    <g>
     <use style="fill-opacity:0;stroke:#00bfbf;stroke-width:1.5;" x="333.168" xlink:href="#meffc8c978f" y="27.513663"/>
     <use style="fill-opacity:0;stroke:#00bfbf;stroke-width:1.5;" x="363.64328" xlink:href="#meffc8c978f" y="84.195327"/>
    </g>
   </g>
   <g id="line2d_66">
    <path d="M 333.168 27.513663 
L 363.64328 32.86099 
" style="fill:none;stroke:#008000;stroke-linecap:square;stroke-width:1.5;"/>
    <g>
     <use style="fill-opacity:0;stroke:#008000;stroke-linejoin:miter;stroke-width:1.5;" x="333.168" xlink:href="#m0c37122c14" y="27.513663"/>
     <use style="fill-opacity:0;stroke:#008000;stroke-linejoin:miter;stroke-width:1.5;" x="363.64328" xlink:href="#m0c37122c14" y="32.86099"/>
    </g>
   </g>
   <g id="line2d_67">
    <path d="M 333.168 294.88 
L 333.168 27.513663 
" style="fill:none;stroke:#000000;stroke-linecap:square;stroke-width:1.5;"/>
   </g>
   <g id="patch_3">
    <path d="M 56.12 294.88 
L 56.12 24.84 
" style="fill:none;stroke:#000000;stroke-linecap:square;stroke-linejoin:miter;stroke-width:0.8;"/>
   </g>
   <g id="patch_4">
    <path d="M 333.168 294.88 
L 333.168 24.84 
" style="fill:none;stroke:#000000;stroke-linecap:square;stroke-linejoin:miter;stroke-width:0.8;"/>
   </g>
   <g id="patch_5">
    <path d="M 56.12 294.88 
L 333.168 294.88 
" style="fill:none;stroke:#000000;stroke-linecap:square;stroke-linejoin:miter;stroke-width:0.8;"/>
   </g>
   <g id="patch_6">
    <path d="M 56.12 24.84 
L 333.168 24.84 
" style="fill:none;stroke:#000000;stroke-linecap:square;stroke-linejoin:miter;stroke-width:0.8;"/>
   </g>
   <g id="text_13">
    <!-- 40-D -->
    <defs>
     <path d="M 19.671875 64.796875 
L 19.671875 8.109375 
L 31.59375 8.109375 
Q 46.6875 8.109375 53.6875 14.9375 
Q 60.6875 21.78125 60.6875 36.53125 
Q 60.6875 51.171875 53.6875 57.984375 
Q 46.6875 64.796875 31.59375 64.796875 
z
M 9.8125 72.90625 
L 30.078125 72.90625 
Q 51.265625 72.90625 61.171875 64.09375 
Q 71.09375 55.28125 71.09375 36.53125 
Q 71.09375 17.671875 61.125 8.828125 
Q 51.171875 0 30.078125 0 
L 9.8125 0 
z
" id="DejaVuSans-44"/>
    </defs>
    <g transform="translate(369.18424 294.223611)scale(0.17 -0.17)">
     <use xlink:href="#DejaVuSans-34"/>
     <use x="63.623047" xlink:href="#DejaVuSans-30"/>
     <use x="127.246094" xlink:href="#DejaVuSans-2d"/>
     <use x="163.330078" xlink:href="#DejaVuSans-44"/>
    </g>
   </g>
   <g id="text_14">
    <!-- 20-D -->
    <g transform="translate(369.18424 242.889274)scale(0.17 -0.17)">
     <use xlink:href="#DejaVuSans-32"/>
     <use x="63.623047" xlink:href="#DejaVuSans-30"/>
     <use x="127.246094" xlink:href="#DejaVuSans-2d"/>
     <use x="163.330078" xlink:href="#DejaVuSans-44"/>
    </g>
   </g>
   <g id="text_15">
    <!-- 10-D -->
    <g transform="translate(369.18424 191.554937)scale(0.17 -0.17)">
     <use xlink:href="#DejaVuSans-31"/>
     <use x="63.623047" xlink:href="#DejaVuSans-30"/>
     <use x="127.246094" xlink:href="#DejaVuSans-2d"/>
     <use x="163.330078" xlink:href="#DejaVuSans-44"/>
    </g>
   </g>
   <g id="text_16">
    <!-- 5-D -->
    <defs>
     <path d="M 10.796875 72.90625 
L 49.515625 72.90625 
L 49.515625 64.59375 
L 19.828125 64.59375 
L 19.828125 46.734375 
Q 21.96875 47.46875 24.109375 47.828125 
Q 26.265625 48.1875 28.421875 48.1875 
Q 40.625 48.1875 47.75 41.5 
Q 54.890625 34.8125 54.890625 23.390625 
Q 54.890625 11.625 47.5625 5.09375 
Q 40.234375 -1.421875 26.90625 -1.421875 
Q 22.3125 -1.421875 17.546875 -0.640625 
Q 12.796875 0.140625 7.71875 1.703125 
L 7.71875 11.625 
Q 12.109375 9.234375 16.796875 8.0625 
Q 21.484375 6.890625 26.703125 6.890625 
Q 35.15625 6.890625 40.078125 11.328125 
Q 45.015625 15.765625 45.015625 23.390625 
Q 45.015625 31 40.078125 35.4375 
Q 35.15625 39.890625 26.703125 39.890625 
Q 22.75 39.890625 18.8125 39.015625 
Q 14.890625 38.140625 10.796875 36.28125 
z
" id="DejaVuSans-35"/>
    </defs>
    <g transform="translate(369.18424 140.220601)scale(0.17 -0.17)">
     <use xlink:href="#DejaVuSans-35"/>
     <use x="63.623047" xlink:href="#DejaVuSans-2d"/>
     <use x="99.707031" xlink:href="#DejaVuSans-44"/>
    </g>
   </g>
   <g id="text_17">
    <!-- 2-D -->
    <g transform="translate(369.18424 88.886264)scale(0.17 -0.17)">
     <use xlink:href="#DejaVuSans-32"/>
     <use x="63.623047" xlink:href="#DejaVuSans-2d"/>
     <use x="99.707031" xlink:href="#DejaVuSans-44"/>
    </g>
   </g>
   <g id="text_18">
    <!-- 3-D -->
    <defs>
     <path d="M 40.578125 39.3125 
Q 47.65625 37.796875 51.625 33 
Q 55.609375 28.21875 55.609375 21.1875 
Q 55.609375 10.40625 48.1875 4.484375 
Q 40.765625 -1.421875 27.09375 -1.421875 
Q 22.515625 -1.421875 17.65625 -0.515625 
Q 12.796875 0.390625 7.625 2.203125 
L 7.625 11.71875 
Q 11.71875 9.328125 16.59375 8.109375 
Q 21.484375 6.890625 26.8125 6.890625 
Q 36.078125 6.890625 40.9375 10.546875 
Q 45.796875 14.203125 45.796875 21.1875 
Q 45.796875 27.640625 41.28125 31.265625 
Q 36.765625 34.90625 28.71875 34.90625 
L 20.21875 34.90625 
L 20.21875 43.015625 
L 29.109375 43.015625 
Q 36.375 43.015625 40.234375 45.921875 
Q 44.09375 48.828125 44.09375 54.296875 
Q 44.09375 59.90625 40.109375 62.90625 
Q 36.140625 65.921875 28.71875 65.921875 
Q 24.65625 65.921875 20.015625 65.03125 
Q 15.375 64.15625 9.8125 62.3125 
L 9.8125 71.09375 
Q 15.4375 72.65625 20.34375 73.4375 
Q 25.25 74.21875 29.59375 74.21875 
Q 40.828125 74.21875 47.359375 69.109375 
Q 53.90625 64.015625 53.90625 55.328125 
Q 53.90625 49.265625 50.4375 45.09375 
Q 46.96875 40.921875 40.578125 39.3125 
z
" id="DejaVuSans-33"/>
    </defs>
    <g transform="translate(369.18424 37.551928)scale(0.17 -0.17)">
     <use xlink:href="#DejaVuSans-33"/>
     <use x="63.623047" xlink:href="#DejaVuSans-2d"/>
     <use x="99.707031" xlink:href="#DejaVuSans-44"/>
    </g>
   </g>
   <g id="text_19">
    <!-- bbob f2 -->
    <defs>
     <path d="M 48.6875 27.296875 
Q 48.6875 37.203125 44.609375 42.84375 
Q 40.53125 48.484375 33.40625 48.484375 
Q 26.265625 48.484375 22.1875 42.84375 
Q 18.109375 37.203125 18.109375 27.296875 
Q 18.109375 17.390625 22.1875 11.75 
Q 26.265625 6.109375 33.40625 6.109375 
Q 40.53125 6.109375 44.609375 11.75 
Q 48.6875 17.390625 48.6875 27.296875 
z
M 18.109375 46.390625 
Q 20.953125 51.265625 25.265625 53.625 
Q 29.59375 56 35.59375 56 
Q 45.5625 56 51.78125 48.09375 
Q 58.015625 40.1875 58.015625 27.296875 
Q 58.015625 14.40625 51.78125 6.484375 
Q 45.5625 -1.421875 35.59375 -1.421875 
Q 29.59375 -1.421875 25.265625 0.953125 
Q 20.953125 3.328125 18.109375 8.203125 
L 18.109375 0 
L 9.078125 0 
L 9.078125 75.984375 
L 18.109375 75.984375 
z
" id="DejaVuSans-62"/>
    </defs>
    <g transform="translate(58.89048 35.290806)scale(0.102 -0.102)">
     <use xlink:href="#DejaVuSans-62"/>
     <use x="63.476562" xlink:href="#DejaVuSans-62"/>
     <use x="126.953125" xlink:href="#DejaVuSans-6f"/>
     <use x="188.134766" xlink:href="#DejaVuSans-62"/>
     <use x="251.611328" xlink:href="#DejaVuSans-20"/>
     <use x="283.398438" xlink:href="#DejaVuSans-66"/>
     <use x="318.603516" xlink:href="#DejaVuSans-32"/>
    </g>
    <!-- 51 targets: 100..1e-08 -->
    <defs>
     <path d="M 11.71875 12.40625 
L 22.015625 12.40625 
L 22.015625 0 
L 11.71875 0 
z
M 11.71875 51.703125 
L 22.015625 51.703125 
L 22.015625 39.3125 
L 11.71875 39.3125 
z
" id="DejaVuSans-3a"/>
    </defs>
    <g transform="translate(58.89048 46.712575)scale(0.102 -0.102)">
     <use xlink:href="#DejaVuSans-35"/>
     <use x="63.623047" xlink:href="#DejaVuSans-31"/>
     <use x="127.246094" xlink:href="#DejaVuSans-20"/>
     <use x="159.033203" xlink:href="#DejaVuSans-74"/>
     <use x="198.242188" xlink:href="#DejaVuSans-61"/>
     <use x="259.521484" xlink:href="#DejaVuSans-72"/>
     <use x="300.619141" xlink:href="#DejaVuSans-67"/>
     <use x="364.095703" xlink:href="#DejaVuSans-65"/>
     <use x="425.619141" xlink:href="#DejaVuSans-74"/>
     <use x="464.828125" xlink:href="#DejaVuSans-73"/>
     <use x="516.927734" xlink:href="#DejaVuSans-3a"/>
     <use x="550.619141" xlink:href="#DejaVuSans-20"/>
     <use x="582.40625" xlink:href="#DejaVuSans-31"/>
     <use x="646.029297" xlink:href="#DejaVuSans-30"/>
     <use x="709.652344" xlink:href="#DejaVuSans-30"/>
     <use x="773.275391" xlink:href="#DejaVuSans-2e"/>
     <use x="805.0625" xlink:href="#DejaVuSans-2e"/>
     <use x="836.849609" xlink:href="#DejaVuSans-31"/>
     <use x="900.472656" xlink:href="#DejaVuSans-65"/>
     <use x="961.996094" xlink:href="#DejaVuSans-2d"/>
     <use x="998.080078" xlink:href="#DejaVuSans-30"/>
     <use x="1061.703125" xlink:href="#DejaVuSans-38"/>
    </g>
    <!-- 15 instances -->
    <g transform="translate(58.89048 58.134344)scale(0.102 -0.102)">
     <use xlink:href="#DejaVuSans-31"/>
     <use x="63.623047" xlink:href="#DejaVuSans-35"/>
     <use x="127.246094" xlink:href="#DejaVuSans-20"/>
     <use x="159.033203" xlink:href="#DejaVuSans-69"/>
     <use x="186.816406" xlink:href="#DejaVuSans-6e"/>
     <use x="250.195312" xlink:href="#DejaVuSans-73"/>
     <use x="302.294922" xlink:href="#DejaVuSans-74"/>
     <use x="341.503906" xlink:href="#DejaVuSans-61"/>
     <use x="402.783203" xlink:href="#DejaVuSans-6e"/>
     <use x="466.162109" xlink:href="#DejaVuSans-63"/>
     <use x="521.142578" xlink:href="#DejaVuSans-65"/>
     <use x="582.666016" xlink:href="#DejaVuSans-73"/>
    </g>
   </g>
   <g id="text_20">
    <!-- v0.0.0 -->
    <g style="fill:#808080;" transform="translate(178.96275 290.099912)scale(0.1 -0.1)">
     <use xlink:href="#DejaVuSans-76"/>
     <use x="59.179688" xlink:href="#DejaVuSans-30"/>
     <use x="122.802734" xlink:href="#DejaVuSans-2e"/>
     <use x="154.589844" xlink:href="#DejaVuSans-30"/>
     <use x="218.212891" xlink:href="#DejaVuSans-2e"/>
     <use x="250" xlink:href="#DejaVuSans-30"/>
    </g>
   </g>
   <g id="text_21">
    <!-- 2 Ellipsoid separable -->
    <defs>
     <path d="M 9.8125 72.90625 
L 55.90625 72.90625 
L 55.90625 64.59375 
L 19.671875 64.59375 
L 19.671875 43.015625 
L 54.390625 43.015625 
L 54.390625 34.71875 
L 19.671875 34.71875 
L 19.671875 8.296875 
L 56.78125 8.296875 
L 56.78125 0 
L 9.8125 0 
z
" id="DejaVuSans-45"/>
    </defs>
    <g transform="translate(91.111187 18.84)scale(0.2 -0.2)">
     <use xlink:href="#DejaVuSans-32"/>
     <use x="63.623047" xlink:href="#DejaVuSans-20"/>
     <use x="95.410156" xlink:href="#DejaVuSans-45"/>
     <use x="158.59375" xlink:href="#DejaVuSans-6c"/>
     <use x="186.376953" xlink:href="#DejaVuSans-6c"/>
     <use x="214.160156" xlink:href="#DejaVuSans-69"/>
     <use x="241.943359" xlink:href="#DejaVuSans-70"/>
     <use x="305.419922" xlink:href="#DejaVuSans-73"/>
     <use x="357.519531" xlink:href="#DejaVuSans-6f"/>
     <use x="418.701172" xlink:href="#DejaVuSans-69"/>
     <use x="446.484375" xlink:href="#DejaVuSans-64"/>
     <use x="509.960938" xlink:href="#DejaVuSans-20"/>
     <use x="541.748047" xlink:href="#DejaVuSans-73"/>
     <use x="593.847656" xlink:href="#DejaVuSans-65"/>
     <use x="655.371094" xlink:href="#DejaVuSans-70"/>
     <use x="718.847656" xlink:href="#DejaVuSans-61"/>
     <use x="780.126953" xlink:href="#DejaVuSans-72"/>
     <use x="821.240234" xlink:href="#DejaVuSans-61"/>
     <use x="882.519531" xlink:href="#DejaVuSans-62"/>
     <use x="945.996094" xlink:href="#DejaVuSans-6c"/>
     <use x="973.779297" xlink:href="#DejaVuSans-65"/>
    </g>
   </g>
  </g>
 </g>
 <defs>
  <clipPath id="pf3f6a525fb">
   <rect height="270.04" width="277.048" x="56.12" y="24.84"/>
  </clipPath>
 </defs>
</svg>
