<?xml version="1.0" encoding="utf-8" standalone="no"?>
<!DOCTYPE svg PUBLIC "-//W3C//DTD SVG 1.1//EN"
  "http://www.w3.org/Graphics/SVG/1.1/DTD/svg11.dtd">
<!-- Created with matplotlib (http://matplotlib.org/) -->
<svg height="345.6pt" version="1.1" viewBox="0 0 460.8 345.6" width="460.8pt" xmlns="http://www.w3.org/2000/svg" xmlns:xlink="http://www.w3.org/1999/xlink">
 <defs>
  <style type="text/css">
*{stroke-linecap:butt;stroke-linejoin:round;}
  </style>
 </defs>
 <g id="figure_1">
  <g id="patch_1">
   <path d="M 0 345.6 
L 460.8 345.6 
L 460.8 0 
L 0 0 
z
" style="fill:#ffffff;"/>
  </g>
  <g id="axes_1">
   <g id="patch_2">
    <path d="M 56.12 294.88 
L 333.168 294.88 
L 333.168 24.84 
L 56.12 24.84 
z
" style="fill:#ffffff;"/>
   </g>
   <g id="matplotlib.axis_1">
    <g id="xtick_1">
     <g id="line2d_1">
      <path clip-path="url(#p8c13fab83a)" d="M 56.12 294.88 
L 56.12 24.84 
" style="fill:none;stroke:#b0b0b0;stroke-linecap:square;stroke-width:0.8;"/>
     </g>
     <g id="line2d_2">
      <defs>
       <path d="M 0 0 
L 0 3.5 
" id="me8ad66b8d1" style="stroke:#000000;stroke-width:0.8;"/>
      </defs>
      <g>
       <use style="stroke:#000000;stroke-width:0.8;" x="56.12" xlink:href="#me8ad66b8d1" y="294.88"/>
      </g>
     </g>
     <g id="text_1">
      <!-- 0 -->
      <defs>
       <path d="M 31.78125 66.40625 
Q 24.171875 66.40625 20.328125 58.90625 
Q 16.5 51.421875 16.5 36.375 
Q 16.5 21.390625 20.328125 13.890625 
Q 24.171875 6.390625 31.78125 6.390625 
Q 39.453125 6.390625 43.28125 13.890625 
Q 47.125 21.390625 47.125 36.375 
Q 47.125 51.421875 43.28125 58.90625 
Q 39.453125 66.40625 31.78125 66.40625 
z
M 31.78125 74.21875 
Q 44.046875 74.21875 50.515625 64.515625 
Q 56.984375 54.828125 56.984375 36.375 
Q 56.984375 17.96875 50.515625 8.265625 
Q 44.046875 -1.421875 31.78125 -1.421875 
Q 19.53125 -1.421875 13.0625 8.265625 
Q 6.59375 17.96875 6.59375 36.375 
Q 6.59375 54.828125 13.0625 64.515625 
Q 19.53125 74.21875 31.78125 74.21875 
z
" id="DejaVuSans-30"/>
      </defs>
      <g transform="translate(49.7575 317.076875)scale(0.2 -0.2)">
       <use xlink:href="#DejaVuSans-30"/>
      </g>
     </g>
    </g>
    <g id="xtick_2">
     <g id="line2d_3">
      <path clip-path="url(#p8c13fab83a)" d="M 135.276571 294.88 
L 135.276571 24.84 
" style="fill:none;stroke:#b0b0b0;stroke-linecap:square;stroke-width:0.8;"/>
     </g>
     <g id="line2d_4">
      <g>
       <use style="stroke:#000000;stroke-width:0.8;" x="135.276571" xlink:href="#me8ad66b8d1" y="294.88"/>
      </g>
     </g>
     <g id="text_2">
      <!-- 2 -->
      <defs>
       <path d="M 19.1875 8.296875 
L 53.609375 8.296875 
L 53.609375 0 
L 7.328125 0 
L 7.328125 8.296875 
Q 12.9375 14.109375 22.625 23.890625 
Q 32.328125 33.6875 34.8125 36.53125 
Q 39.546875 41.84375 41.421875 45.53125 
Q 43.3125 49.21875 43.3125 52.78125 
Q 43.3125 58.59375 39.234375 62.25 
Q 35.15625 65.921875 28.609375 65.921875 
Q 23.96875 65.921875 18.8125 64.3125 
Q 13.671875 62.703125 7.8125 59.421875 
L 7.8125 69.390625 
Q 13.765625 71.78125 18.9375 73 
Q 24.125 74.21875 28.421875 74.21875 
Q 39.75 74.21875 46.484375 68.546875 
Q 53.21875 62.890625 53.21875 53.421875 
Q 53.21875 48.921875 51.53125 44.890625 
Q 49.859375 40.875 45.40625 35.40625 
Q 44.1875 33.984375 37.640625 27.21875 
Q 31.109375 20.453125 19.1875 8.296875 
z
" id="DejaVuSans-32"/>
      </defs>
      <g transform="translate(128.914071 317.076875)scale(0.2 -0.2)">
       <use xlink:href="#DejaVuSans-32"/>
      </g>
     </g>
    </g>
    <g id="xtick_3">
     <g id="line2d_5">
      <path clip-path="url(#p8c13fab83a)" d="M 214.433143 294.88 
L 214.433143 24.84 
" style="fill:none;stroke:#b0b0b0;stroke-linecap:square;stroke-width:0.8;"/>
     </g>
     <g id="line2d_6">
      <g>
       <use style="stroke:#000000;stroke-width:0.8;" x="214.433143" xlink:href="#me8ad66b8d1" y="294.88"/>
      </g>
     </g>
     <g id="text_3">
      <!-- 4 -->
      <defs>
       <path d="M 37.796875 64.3125 
L 12.890625 25.390625 
L 37.796875 25.390625 
z
M 35.203125 72.90625 
L 47.609375 72.90625 
L 47.609375 25.390625 
L 58.015625 25.390625 
L 58.015625 17.1875 
L 47.609375 17.1875 
L 47.609375 0 
L 37.796875 0 
L 37.796875 17.1875 
L 4.890625 17.1875 
L 4.890625 26.703125 
z
" id="DejaVuSans-34"/>
      </defs>
      <g transform="translate(208.070643 317.076875)scale(0.2 -0.2)">
       <use xlink:href="#DejaVuSans-34"/>
      </g>
     </g>
    </g>
    <g id="xtick_4">
     <g id="line2d_7">
      <path clip-path="url(#p8c13fab83a)" d="M 293.589714 294.88 
L 293.589714 24.84 
" style="fill:none;stroke:#b0b0b0;stroke-linecap:square;stroke-width:0.8;"/>
     </g>
     <g id="line2d_8">
      <g>
       <use style="stroke:#000000;stroke-width:0.8;" x="293.589714" xlink:href="#me8ad66b8d1" y="294.88"/>
      </g>
     </g>
     <g id="text_4">
      <!-- 6 -->
      <defs>
       <path d="M 33.015625 40.375 
Q 26.375 40.375 22.484375 35.828125 
Q 18.609375 31.296875 18.609375 23.390625 
Q 18.609375 15.53125 22.484375 10.953125 
Q 26.375 6.390625 33.015625 6.390625 
Q 39.65625 6.390625 43.53125 10.953125 
Q 47.40625 15.53125 47.40625 23.390625 
Q 47.40625 31.296875 43.53125 35.828125 
Q 39.65625 40.375 33.015625 40.375 
z
M 52.59375 71.296875 
L 52.59375 62.3125 
Q 48.875 64.0625 45.09375 64.984375 
Q 41.3125 65.921875 37.59375 65.921875 
Q 27.828125 65.921875 22.671875 59.328125 
Q 17.53125 52.734375 16.796875 39.40625 
Q 19.671875 43.65625 24.015625 45.921875 
Q 28.375 48.1875 33.59375 48.1875 
Q 44.578125 48.1875 50.953125 41.515625 
Q 57.328125 34.859375 57.328125 23.390625 
Q 57.328125 12.15625 50.6875 5.359375 
Q 44.046875 -1.421875 33.015625 -1.421875 
Q 20.359375 -1.421875 13.671875 8.265625 
Q 6.984375 17.96875 6.984375 36.375 
Q 6.984375 53.65625 15.1875 63.9375 
Q 23.390625 74.21875 37.203125 74.21875 
Q 40.921875 74.21875 44.703125 73.484375 
Q 48.484375 72.75 52.59375 71.296875 
z
" id="DejaVuSans-36"/>
      </defs>
      <g transform="translate(287.227214 317.076875)scale(0.2 -0.2)">
       <use xlink:href="#DejaVuSans-36"/>
      </g>
     </g>
    </g>
    <g id="xtick_5">
     <g id="line2d_9">
      <path clip-path="url(#p8c13fab83a)" d="M 56.12 294.88 
L 56.12 24.84 
" style="fill:none;stroke:#b0b0b0;stroke-linecap:square;stroke-width:0.8;"/>
     </g>
     <g id="line2d_10">
      <defs>
       <path d="M 0 0 
L 0 2 
" id="m43c36980bc" style="stroke:#000000;stroke-width:0.6;"/>
      </defs>
      <g>
       <use style="stroke:#000000;stroke-width:0.6;" x="56.12" xlink:href="#m43c36980bc" y="294.88"/>
      </g>
     </g>
    </g>
    <g id="xtick_6">
     <g id="line2d_11">
      <path clip-path="url(#p8c13fab83a)" d="M 95.698286 294.88 
L 95.698286 24.84 
" style="fill:none;stroke:#b0b0b0;stroke-linecap:square;stroke-width:0.8;"/>
     </g>
     <g id="line2d_12">
      <g>
       <use style="stroke:#000000;stroke-width:0.6;" x="95.698286" xlink:href="#m43c36980bc" y="294.88"/>
      </g>
     </g>
    </g>
    <g id="xtick_7">
     <g id="line2d_13">
      <path clip-path="url(#p8c13fab83a)" d="M 135.276571 294.88 
L 135.276571 24.84 
" style="fill:none;stroke:#b0b0b0;stroke-linecap:square;stroke-width:0.8;"/>
     </g>
     <g id="line2d_14">
      <g>
       <use style="stroke:#000000;stroke-width:0.6;" x="135.276571" xlink:href="#m43c36980bc" y="294.88"/>
      </g>
     </g>
    </g>
    <g id="xtick_8">
     <g id="line2d_15">
      <path clip-path="url(#p8c13fab83a)" d="M 174.854857 294.88 
L 174.854857 24.84 
" style="fill:none;stroke:#b0b0b0;stroke-linecap:square;stroke-width:0.8;"/>
     </g>
     <g id="line2d_16">
      <g>
       <use style="stroke:#000000;stroke-width:0.6;" x="174.854857" xlink:href="#m43c36980bc" y="294.88"/>
      </g>
     </g>
    </g>
    <g id="xtick_9">
     <g id="line2d_17">
      <path clip-path="url(#p8c13fab83a)" d="M 214.433143 294.88 
L 214.433143 24.84 
" style="fill:none;stroke:#b0b0b0;stroke-linecap:square;stroke-width:0.8;"/>
     </g>
     <g id="line2d_18">
      <g>
       <use style="stroke:#000000;stroke-width:0.6;" x="214.433143" xlink:href="#m43c36980bc" y="294.88"/>
      </g>
     </g>
    </g>
    <g id="xtick_10">
     <g id="line2d_19">
      <path clip-path="url(#p8c13fab83a)" d="M 254.011429 294.88 
L 254.011429 24.84 
" style="fill:none;stroke:#b0b0b0;stroke-linecap:square;stroke-width:0.8;"/>
     </g>
     <g id="line2d_20">
      <g>
       <use style="stroke:#000000;stroke-width:0.6;" x="254.011429" xlink:href="#m43c36980bc" y="294.88"/>
      </g>
     </g>
    </g>
    <g id="xtick_11">
     <g id="line2d_21">
      <path clip-path="url(#p8c13fab83a)" d="M 293.589714 294.88 
L 293.589714 24.84 
" style="fill:none;stroke:#b0b0b0;stroke-linecap:square;stroke-width:0.8;"/>
     </g>
     <g id="line2d_22">
      <g>
       <use style="stroke:#000000;stroke-width:0.6;" x="293.589714" xlink:href="#m43c36980bc" y="294.88"/>
      </g>
     </g>
    </g>
    <g id="xtick_12">
     <g id="line2d_23">
      <path clip-path="url(#p8c13fab83a)" d="M 333.168 294.88 
L 333.168 24.84 
" style="fill:none;stroke:#b0b0b0;stroke-linecap:square;stroke-width:0.8;"/>
     </g>
     <g id="line2d_24">
      <g>
       <use style="stroke:#000000;stroke-width:0.6;" x="333.168" xlink:href="#m43c36980bc" y="294.88"/>
      </g>
     </g>
    </g>
    <g id="text_5">
     <!-- log10(# f-evals / dimension) -->
     <defs>
      <path d="M 9.421875 75.984375 
L 18.40625 75.984375 
L 18.40625 0 
L 9.421875 0 
z
" id="DejaVuSans-6c"/>
      <path d="M 30.609375 48.390625 
Q 23.390625 48.390625 19.1875 42.75 
Q 14.984375 37.109375 14.984375 27.296875 
Q 14.984375 17.484375 19.15625 11.84375 
Q 23.34375 6.203125 30.609375 6.203125 
Q 37.796875 6.203125 41.984375 11.859375 
Q 46.1875 17.53125 46.1875 27.296875 
Q 46.1875 37.015625 41.984375 42.703125 
Q 37.796875 48.390625 30.609375 48.390625 
z
M 30.609375 56 
Q 42.328125 56 49.015625 48.375 
Q 55.71875 40.765625 55.71875 27.296875 
Q 55.71875 13.875 49.015625 6.21875 
Q 42.328125 -1.421875 30.609375 -1.421875 
Q 18.84375 -1.421875 12.171875 6.21875 
Q 5.515625 13.875 5.515625 27.296875 
Q 5.515625 40.765625 12.171875 48.375 
Q 18.84375 56 30.609375 56 
z
" id="DejaVuSans-6f"/>
      <path d="M 45.40625 27.984375 
Q 45.40625 37.75 41.375 43.109375 
Q 37.359375 48.484375 30.078125 48.484375 
Q 22.859375 48.484375 18.828125 43.109375 
Q 14.796875 37.75 14.796875 27.984375 
Q 14.796875 18.265625 18.828125 12.890625 
Q 22.859375 7.515625 30.078125 7.515625 
Q 37.359375 7.515625 41.375 12.890625 
Q 45.40625 18.265625 45.40625 27.984375 
z
M 54.390625 6.78125 
Q 54.390625 -7.171875 48.1875 -13.984375 
Q 42 -20.796875 29.203125 -20.796875 
Q 24.46875 -20.796875 20.265625 -20.09375 
Q 16.0625 -19.390625 12.109375 -17.921875 
L 12.109375 -9.1875 
Q 16.0625 -11.328125 19.921875 -12.34375 
Q 23.78125 -13.375 27.78125 -13.375 
Q 36.625 -13.375 41.015625 -8.765625 
Q 45.40625 -4.15625 45.40625 5.171875 
L 45.40625 9.625 
Q 42.625 4.78125 38.28125 2.390625 
Q 33.9375 0 27.875 0 
Q 17.828125 0 11.671875 7.65625 
Q 5.515625 15.328125 5.515625 27.984375 
Q 5.515625 40.671875 11.671875 48.328125 
Q 17.828125 56 27.875 56 
Q 33.9375 56 38.28125 53.609375 
Q 42.625 51.21875 45.40625 46.390625 
L 45.40625 54.6875 
L 54.390625 54.6875 
z
" id="DejaVuSans-67"/>
      <path d="M 12.40625 8.296875 
L 28.515625 8.296875 
L 28.515625 63.921875 
L 10.984375 60.40625 
L 10.984375 69.390625 
L 28.421875 72.90625 
L 38.28125 72.90625 
L 38.28125 8.296875 
L 54.390625 8.296875 
L 54.390625 0 
L 12.40625 0 
z
" id="DejaVuSans-31"/>
      <path d="M 31 75.875 
Q 24.46875 64.65625 21.28125 53.65625 
Q 18.109375 42.671875 18.109375 31.390625 
Q 18.109375 20.125 21.3125 9.0625 
Q 24.515625 -2 31 -13.1875 
L 23.1875 -13.1875 
Q 15.875 -1.703125 12.234375 9.375 
Q 8.59375 20.453125 8.59375 31.390625 
Q 8.59375 42.28125 12.203125 53.3125 
Q 15.828125 64.359375 23.1875 75.875 
z
" id="DejaVuSans-28"/>
      <path d="M 51.125 44 
L 36.921875 44 
L 32.8125 27.6875 
L 47.125 27.6875 
z
M 43.796875 71.78125 
L 38.71875 51.515625 
L 52.984375 51.515625 
L 58.109375 71.78125 
L 65.921875 71.78125 
L 60.890625 51.515625 
L 76.125 51.515625 
L 76.125 44 
L 58.984375 44 
L 54.984375 27.6875 
L 70.515625 27.6875 
L 70.515625 20.21875 
L 53.078125 20.21875 
L 48 0 
L 40.1875 0 
L 45.21875 20.21875 
L 30.90625 20.21875 
L 25.875 0 
L 18.015625 0 
L 23.09375 20.21875 
L 7.71875 20.21875 
L 7.71875 27.6875 
L 24.90625 27.6875 
L 29 44 
L 13.28125 44 
L 13.28125 51.515625 
L 30.90625 51.515625 
L 35.890625 71.78125 
z
" id="DejaVuSans-23"/>
      <path id="DejaVuSans-20"/>
      <path d="M 37.109375 75.984375 
L 37.109375 68.5 
L 28.515625 68.5 
Q 23.6875 68.5 21.796875 66.546875 
Q 19.921875 64.59375 19.921875 59.515625 
L 19.921875 54.6875 
L 34.71875 54.6875 
L 34.71875 47.703125 
L 19.921875 47.703125 
L 19.921875 0 
L 10.890625 0 
L 10.890625 47.703125 
L 2.296875 47.703125 
L 2.296875 54.6875 
L 10.890625 54.6875 
L 10.890625 58.5 
Q 10.890625 67.625 15.140625 71.796875 
Q 19.390625 75.984375 28.609375 75.984375 
z
" id="DejaVuSans-66"/>
      <path d="M 4.890625 31.390625 
L 31.203125 31.390625 
L 31.203125 23.390625 
L 4.890625 23.390625 
z
" id="DejaVuSans-2d"/>
      <path d="M 56.203125 29.59375 
L 56.203125 25.203125 
L 14.890625 25.203125 
Q 15.484375 15.921875 20.484375 11.0625 
Q 25.484375 6.203125 34.421875 6.203125 
Q 39.59375 6.203125 44.453125 7.46875 
Q 49.3125 8.734375 54.109375 11.28125 
L 54.109375 2.78125 
Q 49.265625 0.734375 44.1875 -0.34375 
Q 39.109375 -1.421875 33.890625 -1.421875 
Q 20.796875 -1.421875 13.15625 6.1875 
Q 5.515625 13.8125 5.515625 26.8125 
Q 5.515625 40.234375 12.765625 48.109375 
Q 20.015625 56 32.328125 56 
Q 43.359375 56 49.78125 48.890625 
Q 56.203125 41.796875 56.203125 29.59375 
z
M 47.21875 32.234375 
Q 47.125 39.59375 43.09375 43.984375 
Q 39.0625 48.390625 32.421875 48.390625 
Q 24.90625 48.390625 20.390625 44.140625 
Q 15.875 39.890625 15.1875 32.171875 
z
" id="DejaVuSans-65"/>
      <path d="M 2.984375 54.6875 
L 12.5 54.6875 
L 29.59375 8.796875 
L 46.6875 54.6875 
L 56.203125 54.6875 
L 35.6875 0 
L 23.484375 0 
z
" id="DejaVuSans-76"/>
      <path d="M 34.28125 27.484375 
Q 23.390625 27.484375 19.1875 25 
Q 14.984375 22.515625 14.984375 16.5 
Q 14.984375 11.71875 18.140625 8.90625 
Q 21.296875 6.109375 26.703125 6.109375 
Q 34.1875 6.109375 38.703125 11.40625 
Q 43.21875 16.703125 43.21875 25.484375 
L 43.21875 27.484375 
z
M 52.203125 31.203125 
L 52.203125 0 
L 43.21875 0 
L 43.21875 8.296875 
Q 40.140625 3.328125 35.546875 0.953125 
Q 30.953125 -1.421875 24.3125 -1.421875 
Q 15.921875 -1.421875 10.953125 3.296875 
Q 6 8.015625 6 15.921875 
Q 6 25.140625 12.171875 29.828125 
Q 18.359375 34.515625 30.609375 34.515625 
L 43.21875 34.515625 
L 43.21875 35.40625 
Q 43.21875 41.609375 39.140625 45 
Q 35.0625 48.390625 27.6875 48.390625 
Q 23 48.390625 18.546875 47.265625 
Q 14.109375 46.140625 10.015625 43.890625 
L 10.015625 52.203125 
Q 14.9375 54.109375 19.578125 55.046875 
Q 24.21875 56 28.609375 56 
Q 40.484375 56 46.34375 49.84375 
Q 52.203125 43.703125 52.203125 31.203125 
z
" id="DejaVuSans-61"/>
      <path d="M 44.28125 53.078125 
L 44.28125 44.578125 
Q 40.484375 46.53125 36.375 47.5 
Q 32.28125 48.484375 27.875 48.484375 
Q 21.1875 48.484375 17.84375 46.4375 
Q 14.5 44.390625 14.5 40.28125 
Q 14.5 37.15625 16.890625 35.375 
Q 19.28125 33.59375 26.515625 31.984375 
L 29.59375 31.296875 
Q 39.15625 29.25 43.1875 25.515625 
Q 47.21875 21.78125 47.21875 15.09375 
Q 47.21875 7.46875 41.1875 3.015625 
Q 35.15625 -1.421875 24.609375 -1.421875 
Q 20.21875 -1.421875 15.453125 -0.5625 
Q 10.6875 0.296875 5.421875 2 
L 5.421875 11.28125 
Q 10.40625 8.6875 15.234375 7.390625 
Q 20.0625 6.109375 24.8125 6.109375 
Q 31.15625 6.109375 34.5625 8.28125 
Q 37.984375 10.453125 37.984375 14.40625 
Q 37.984375 18.0625 35.515625 20.015625 
Q 33.0625 21.96875 24.703125 23.78125 
L 21.578125 24.515625 
Q 13.234375 26.265625 9.515625 29.90625 
Q 5.8125 33.546875 5.8125 39.890625 
Q 5.8125 47.609375 11.28125 51.796875 
Q 16.75 56 26.8125 56 
Q 31.78125 56 36.171875 55.265625 
Q 40.578125 54.546875 44.28125 53.078125 
z
" id="DejaVuSans-73"/>
      <path d="M 25.390625 72.90625 
L 33.6875 72.90625 
L 8.296875 -9.28125 
L 0 -9.28125 
z
" id="DejaVuSans-2f"/>
      <path d="M 45.40625 46.390625 
L 45.40625 75.984375 
L 54.390625 75.984375 
L 54.390625 0 
L 45.40625 0 
L 45.40625 8.203125 
Q 42.578125 3.328125 38.25 0.953125 
Q 33.9375 -1.421875 27.875 -1.421875 
Q 17.96875 -1.421875 11.734375 6.484375 
Q 5.515625 14.40625 5.515625 27.296875 
Q 5.515625 40.1875 11.734375 48.09375 
Q 17.96875 56 27.875 56 
Q 33.9375 56 38.25 53.625 
Q 42.578125 51.265625 45.40625 46.390625 
z
M 14.796875 27.296875 
Q 14.796875 17.390625 18.875 11.75 
Q 22.953125 6.109375 30.078125 6.109375 
Q 37.203125 6.109375 41.296875 11.75 
Q 45.40625 17.390625 45.40625 27.296875 
Q 45.40625 37.203125 41.296875 42.84375 
Q 37.203125 48.484375 30.078125 48.484375 
Q 22.953125 48.484375 18.875 42.84375 
Q 14.796875 37.203125 14.796875 27.296875 
z
" id="DejaVuSans-64"/>
      <path d="M 9.421875 54.6875 
L 18.40625 54.6875 
L 18.40625 0 
L 9.421875 0 
z
M 9.421875 75.984375 
L 18.40625 75.984375 
L 18.40625 64.59375 
L 9.421875 64.59375 
z
" id="DejaVuSans-69"/>
      <path d="M 52 44.1875 
Q 55.375 50.25 60.0625 53.125 
Q 64.75 56 71.09375 56 
Q 79.640625 56 84.28125 50.015625 
Q 88.921875 44.046875 88.921875 33.015625 
L 88.921875 0 
L 79.890625 0 
L 79.890625 32.71875 
Q 79.890625 40.578125 77.09375 44.375 
Q 74.3125 48.1875 68.609375 48.1875 
Q 61.625 48.1875 57.5625 43.546875 
Q 53.515625 38.921875 53.515625 30.90625 
L 53.515625 0 
L 44.484375 0 
L 44.484375 32.71875 
Q 44.484375 40.625 41.703125 44.40625 
Q 38.921875 48.1875 33.109375 48.1875 
Q 26.21875 48.1875 22.15625 43.53125 
Q 18.109375 38.875 18.109375 30.90625 
L 18.109375 0 
L 9.078125 0 
L 9.078125 54.6875 
L 18.109375 54.6875 
L 18.109375 46.1875 
Q 21.1875 51.21875 25.484375 53.609375 
Q 29.78125 56 35.6875 56 
Q 41.65625 56 45.828125 52.96875 
Q 50 49.953125 52 44.1875 
z
" id="DejaVuSans-6d"/>
      <path d="M 54.890625 33.015625 
L 54.890625 0 
L 45.90625 0 
L 45.90625 32.71875 
Q 45.90625 40.484375 42.875 44.328125 
Q 39.84375 48.1875 33.796875 48.1875 
Q 26.515625 48.1875 22.3125 43.546875 
Q 18.109375 38.921875 18.109375 30.90625 
L 18.109375 0 
L 9.078125 0 
L 9.078125 54.6875 
L 18.109375 54.6875 
L 18.109375 46.1875 
Q 21.34375 51.125 25.703125 53.5625 
Q 30.078125 56 35.796875 56 
Q 45.21875 56 50.046875 50.171875 
Q 54.890625 44.34375 54.890625 33.015625 
z
" id="DejaVuSans-6e"/>
      <path d="M 8.015625 75.875 
L 15.828125 75.875 
Q 23.140625 64.359375 26.78125 53.3125 
Q 30.421875 42.28125 30.421875 31.390625 
Q 30.421875 20.453125 26.78125 9.375 
Q 23.140625 -1.703125 15.828125 -13.1875 
L 8.015625 -13.1875 
Q 14.5 -2 17.703125 9.0625 
Q 20.90625 20.125 20.90625 31.390625 
Q 20.90625 42.671875 17.703125 53.65625 
Q 14.5 64.65625 8.015625 75.875 
z
" id="DejaVuSans-29"/>
     </defs>
     <g transform="translate(73.803219 338.153594)scale(0.17 -0.17)">
      <use xlink:href="#DejaVuSans-6c"/>
      <use x="27.783203" xlink:href="#DejaVuSans-6f"/>
      <use x="88.964844" xlink:href="#DejaVuSans-67"/>
      <use x="152.441406" xlink:href="#DejaVuSans-31"/>
      <use x="216.064453" xlink:href="#DejaVuSans-30"/>
      <use x="279.6875" xlink:href="#DejaVuSans-28"/>
      <use x="318.701172" xlink:href="#DejaVuSans-23"/>
      <use x="402.490234" xlink:href="#DejaVuSans-20"/>
      <use x="434.277344" xlink:href="#DejaVuSans-66"/>
      <use x="469.404297" xlink:href="#DejaVuSans-2d"/>
      <use x="505.488281" xlink:href="#DejaVuSans-65"/>
      <use x="567.011719" xlink:href="#DejaVuSans-76"/>
      <use x="626.191406" xlink:href="#DejaVuSans-61"/>
      <use x="687.470703" xlink:href="#DejaVuSans-6c"/>
      <use x="715.253906" xlink:href="#DejaVuSans-73"/>
      <use x="767.353516" xlink:href="#DejaVuSans-20"/>
      <use x="799.140625" xlink:href="#DejaVuSans-2f"/>
      <use x="832.832031" xlink:href="#DejaVuSans-20"/>
      <use x="864.619141" xlink:href="#DejaVuSans-64"/>
      <use x="928.095703" xlink:href="#DejaVuSans-69"/>
      <use x="955.878906" xlink:href="#DejaVuSans-6d"/>
      <use x="1053.291016" xlink:href="#DejaVuSans-65"/>
      <use x="1114.814453" xlink:href="#DejaVuSans-6e"/>
      <use x="1178.193359" xlink:href="#DejaVuSans-73"/>
      <use x="1230.292969" xlink:href="#DejaVuSans-69"/>
      <use x="1258.076172" xlink:href="#DejaVuSans-6f"/>
      <use x="1319.257812" xlink:href="#DejaVuSans-6e"/>
      <use x="1382.636719" xlink:href="#DejaVuSans-29"/>
     </g>
    </g>
   </g>
   <g id="matplotlib.axis_2">
    <g id="ytick_1">
     <g id="line2d_25">
      <path clip-path="url(#p8c13fab83a)" d="M 56.12 294.88 
L 333.168 294.88 
" style="fill:none;stroke:#b0b0b0;stroke-linecap:square;stroke-width:0.8;"/>
     </g>
     <g id="line2d_26">
      <defs>
       <path d="M 0 0 
L -3.5 0 
" id="m0c98d56394" style="stroke:#000000;stroke-width:0.8;"/>
      </defs>
      <g>
       <use style="stroke:#000000;stroke-width:0.8;" x="56.12" xlink:href="#m0c98d56394" y="294.88"/>
      </g>
     </g>
     <g id="text_6">
      <!-- 0.0 -->
      <defs>
       <path d="M 10.6875 12.40625 
L 21 12.40625 
L 21 0 
L 10.6875 0 
z
" id="DejaVuSans-2e"/>
      </defs>
      <g transform="translate(23.675 300.95875)scale(0.16 -0.16)">
       <use xlink:href="#DejaVuSans-30"/>
       <use x="63.623047" xlink:href="#DejaVuSans-2e"/>
       <use x="95.410156" xlink:href="#DejaVuSans-30"/>
      </g>
     </g>
    </g>
    <g id="ytick_2">
     <g id="line2d_27">
      <path clip-path="url(#p8c13fab83a)" d="M 56.12 241.406733 
L 333.168 241.406733 
" style="fill:none;stroke:#b0b0b0;stroke-linecap:square;stroke-width:0.8;"/>
     </g>
     <g id="line2d_28">
      <g>
       <use style="stroke:#000000;stroke-width:0.8;" x="56.12" xlink:href="#m0c98d56394" y="241.406733"/>
      </g>
     </g>
     <g id="text_7">
      <!-- 0.2 -->
      <g transform="translate(23.675 247.485483)scale(0.16 -0.16)">
       <use xlink:href="#DejaVuSans-30"/>
       <use x="63.623047" xlink:href="#DejaVuSans-2e"/>
       <use x="95.410156" xlink:href="#DejaVuSans-32"/>
      </g>
     </g>
    </g>
    <g id="ytick_3">
     <g id="line2d_29">
      <path clip-path="url(#p8c13fab83a)" d="M 56.12 187.933465 
L 333.168 187.933465 
" style="fill:none;stroke:#b0b0b0;stroke-linecap:square;stroke-width:0.8;"/>
     </g>
     <g id="line2d_30">
      <g>
       <use style="stroke:#000000;stroke-width:0.8;" x="56.12" xlink:href="#m0c98d56394" y="187.933465"/>
      </g>
     </g>
     <g id="text_8">
      <!-- 0.4 -->
      <g transform="translate(23.675 194.012215)scale(0.16 -0.16)">
       <use xlink:href="#DejaVuSans-30"/>
       <use x="63.623047" xlink:href="#DejaVuSans-2e"/>
       <use x="95.410156" xlink:href="#DejaVuSans-34"/>
      </g>
     </g>
    </g>
    <g id="ytick_4">
     <g id="line2d_31">
      <path clip-path="url(#p8c13fab83a)" d="M 56.12 134.460198 
L 333.168 134.460198 
" style="fill:none;stroke:#b0b0b0;stroke-linecap:square;stroke-width:0.8;"/>
     </g>
     <g id="line2d_32">
      <g>
       <use style="stroke:#000000;stroke-width:0.8;" x="56.12" xlink:href="#m0c98d56394" y="134.460198"/>
      </g>
     </g>
     <g id="text_9">
      <!-- 0.6 -->
      <g transform="translate(23.675 140.538948)scale(0.16 -0.16)">
       <use xlink:href="#DejaVuSans-30"/>
       <use x="63.623047" xlink:href="#DejaVuSans-2e"/>
       <use x="95.410156" xlink:href="#DejaVuSans-36"/>
      </g>
     </g>
    </g>
    <g id="ytick_5">
     <g id="line2d_33">
      <path clip-path="url(#p8c13fab83a)" d="M 56.12 80.986931 
L 333.168 80.986931 
" style="fill:none;stroke:#b0b0b0;stroke-linecap:square;stroke-width:0.8;"/>
     </g>
     <g id="line2d_34">
      <g>
       <use style="stroke:#000000;stroke-width:0.8;" x="56.12" xlink:href="#m0c98d56394" y="80.986931"/>
      </g>
     </g>
     <g id="text_10">
      <!-- 0.8 -->
      <defs>
       <path d="M 31.78125 34.625 
Q 24.75 34.625 20.71875 30.859375 
Q 16.703125 27.09375 16.703125 20.515625 
Q 16.703125 13.921875 20.71875 10.15625 
Q 24.75 6.390625 31.78125 6.390625 
Q 38.8125 6.390625 42.859375 10.171875 
Q 46.921875 13.96875 46.921875 20.515625 
Q 46.921875 27.09375 42.890625 30.859375 
Q 38.875 34.625 31.78125 34.625 
z
M 21.921875 38.8125 
Q 15.578125 40.375 12.03125 44.71875 
Q 8.5 49.078125 8.5 55.328125 
Q 8.5 64.0625 14.71875 69.140625 
Q 20.953125 74.21875 31.78125 74.21875 
Q 42.671875 74.21875 48.875 69.140625 
Q 55.078125 64.0625 55.078125 55.328125 
Q 55.078125 49.078125 51.53125 44.71875 
Q 48 40.375 41.703125 38.8125 
Q 48.828125 37.15625 52.796875 32.3125 
Q 56.78125 27.484375 56.78125 20.515625 
Q 56.78125 9.90625 50.3125 4.234375 
Q 43.84375 -1.421875 31.78125 -1.421875 
Q 19.734375 -1.421875 13.25 4.234375 
Q 6.78125 9.90625 6.78125 20.515625 
Q 6.78125 27.484375 10.78125 32.3125 
Q 14.796875 37.15625 21.921875 38.8125 
z
M 18.3125 54.390625 
Q 18.3125 48.734375 21.84375 45.5625 
Q 25.390625 42.390625 31.78125 42.390625 
Q 38.140625 42.390625 41.71875 45.5625 
Q 45.3125 48.734375 45.3125 54.390625 
Q 45.3125 60.0625 41.71875 63.234375 
Q 38.140625 66.40625 31.78125 66.40625 
Q 25.390625 66.40625 21.84375 63.234375 
Q 18.3125 60.0625 18.3125 54.390625 
z
" id="DejaVuSans-38"/>
      </defs>
      <g transform="translate(23.675 87.065681)scale(0.16 -0.16)">
       <use xlink:href="#DejaVuSans-30"/>
       <use x="63.623047" xlink:href="#DejaVuSans-2e"/>
       <use x="95.410156" xlink:href="#DejaVuSans-38"/>
      </g>
     </g>
    </g>
    <g id="ytick_6">
     <g id="line2d_35">
      <path clip-path="url(#p8c13fab83a)" d="M 56.12 27.513663 
L 333.168 27.513663 
" style="fill:none;stroke:#b0b0b0;stroke-linecap:square;stroke-width:0.8;"/>
     </g>
     <g id="line2d_36">
      <g>
       <use style="stroke:#000000;stroke-width:0.8;" x="56.12" xlink:href="#m0c98d56394" y="27.513663"/>
      </g>
     </g>
     <g id="text_11">
      <!-- 1.0 -->
      <g transform="translate(23.675 33.592413)scale(0.16 -0.16)">
       <use xlink:href="#DejaVuSans-31"/>
       <use x="63.623047" xlink:href="#DejaVuSans-2e"/>
       <use x="95.410156" xlink:href="#DejaVuSans-30"/>
      </g>
     </g>
    </g>
    <g id="text_12">
     <!-- Fraction of function,target pairs -->
     <defs>
      <path d="M 9.8125 72.90625 
L 51.703125 72.90625 
L 51.703125 64.59375 
L 19.671875 64.59375 
L 19.671875 43.109375 
L 48.578125 43.109375 
L 48.578125 34.8125 
L 19.671875 34.8125 
L 19.671875 0 
L 9.8125 0 
z
" id="DejaVuSans-46"/>
      <path d="M 41.109375 46.296875 
Q 39.59375 47.171875 37.8125 47.578125 
Q 36.03125 48 33.890625 48 
Q 26.265625 48 22.1875 43.046875 
Q 18.109375 38.09375 18.109375 28.8125 
L 18.109375 0 
L 9.078125 0 
L 9.078125 54.6875 
L 18.109375 54.6875 
L 18.109375 46.1875 
Q 20.953125 51.171875 25.484375 53.578125 
Q 30.03125 56 36.53125 56 
Q 37.453125 56 38.578125 55.875 
Q 39.703125 55.765625 41.0625 55.515625 
z
" id="DejaVuSans-72"/>
      <path d="M 48.78125 52.59375 
L 48.78125 44.1875 
Q 44.96875 46.296875 41.140625 47.34375 
Q 37.3125 48.390625 33.40625 48.390625 
Q 24.65625 48.390625 19.8125 42.84375 
Q 14.984375 37.3125 14.984375 27.296875 
Q 14.984375 17.28125 19.8125 11.734375 
Q 24.65625 6.203125 33.40625 6.203125 
Q 37.3125 6.203125 41.140625 7.25 
Q 44.96875 8.296875 48.78125 10.40625 
L 48.78125 2.09375 
Q 45.015625 0.34375 40.984375 -0.53125 
Q 36.96875 -1.421875 32.421875 -1.421875 
Q 20.0625 -1.421875 12.78125 6.34375 
Q 5.515625 14.109375 5.515625 27.296875 
Q 5.515625 40.671875 12.859375 48.328125 
Q 20.21875 56 33.015625 56 
Q 37.15625 56 41.109375 55.140625 
Q 45.0625 54.296875 48.78125 52.59375 
z
" id="DejaVuSans-63"/>
      <path d="M 18.3125 70.21875 
L 18.3125 54.6875 
L 36.8125 54.6875 
L 36.8125 47.703125 
L 18.3125 47.703125 
L 18.3125 18.015625 
Q 18.3125 11.328125 20.140625 9.421875 
Q 21.96875 7.515625 27.59375 7.515625 
L 36.8125 7.515625 
L 36.8125 0 
L 27.59375 0 
Q 17.1875 0 13.234375 3.875 
Q 9.28125 7.765625 9.28125 18.015625 
L 9.28125 47.703125 
L 2.6875 47.703125 
L 2.6875 54.6875 
L 9.28125 54.6875 
L 9.28125 70.21875 
z
" id="DejaVuSans-74"/>
      <path d="M 8.5 21.578125 
L 8.5 54.6875 
L 17.484375 54.6875 
L 17.484375 21.921875 
Q 17.484375 14.15625 20.5 10.265625 
Q 23.53125 6.390625 29.59375 6.390625 
Q 36.859375 6.390625 41.078125 11.03125 
Q 45.3125 15.671875 45.3125 23.6875 
L 45.3125 54.6875 
L 54.296875 54.6875 
L 54.296875 0 
L 45.3125 0 
L 45.3125 8.40625 
Q 42.046875 3.421875 37.71875 1 
Q 33.40625 -1.421875 27.6875 -1.421875 
Q 18.265625 -1.421875 13.375 4.4375 
Q 8.5 10.296875 8.5 21.578125 
z
M 31.109375 56 
z
" id="DejaVuSans-75"/>
      <path d="M 11.71875 12.40625 
L 22.015625 12.40625 
L 22.015625 4 
L 14.015625 -11.625 
L 7.71875 -11.625 
L 11.71875 4 
z
" id="DejaVuSans-2c"/>
      <path d="M 18.109375 8.203125 
L 18.109375 -20.796875 
L 9.078125 -20.796875 
L 9.078125 54.6875 
L 18.109375 54.6875 
L 18.109375 46.390625 
Q 20.953125 51.265625 25.265625 53.625 
Q 29.59375 56 35.59375 56 
Q 45.5625 56 51.78125 48.09375 
Q 58.015625 40.1875 58.015625 27.296875 
Q 58.015625 14.40625 51.78125 6.484375 
Q 45.5625 -1.421875 35.59375 -1.421875 
Q 29.59375 -1.421875 25.265625 0.953125 
Q 20.953125 3.328125 18.109375 8.203125 
z
M 48.6875 27.296875 
Q 48.6875 37.203125 44.609375 42.84375 
Q 40.53125 48.484375 33.40625 48.484375 
Q 26.265625 48.484375 22.1875 42.84375 
Q 18.109375 37.203125 18.109375 27.296875 
Q 18.109375 17.390625 22.1875 11.75 
Q 26.265625 6.109375 33.40625 6.109375 
Q 40.53125 6.109375 44.609375 11.75 
Q 48.6875 17.390625 48.6875 27.296875 
z
" id="DejaVuSans-70"/>
     </defs>
     <g transform="translate(16.139531 294.999375)rotate(-90)scale(0.17 -0.17)">
      <use xlink:href="#DejaVuSans-46"/>
      <use x="57.410156" xlink:href="#DejaVuSans-72"/>
      <use x="98.523438" xlink:href="#DejaVuSans-61"/>
      <use x="159.802734" xlink:href="#DejaVuSans-63"/>
      <use x="214.783203" xlink:href="#DejaVuSans-74"/>
      <use x="253.992188" xlink:href="#DejaVuSans-69"/>
      <use x="281.775391" xlink:href="#DejaVuSans-6f"/>
      <use x="342.957031" xlink:href="#DejaVuSans-6e"/>
      <use x="406.335938" xlink:href="#DejaVuSans-20"/>
      <use x="438.123047" xlink:href="#DejaVuSans-6f"/>
      <use x="499.304688" xlink:href="#DejaVuSans-66"/>
      <use x="534.509766" xlink:href="#DejaVuSans-20"/>
      <use x="566.296875" xlink:href="#DejaVuSans-66"/>
      <use x="601.501953" xlink:href="#DejaVuSans-75"/>
      <use x="664.880859" xlink:href="#DejaVuSans-6e"/>
      <use x="728.259766" xlink:href="#DejaVuSans-63"/>
      <use x="783.240234" xlink:href="#DejaVuSans-74"/>
      <use x="822.449219" xlink:href="#DejaVuSans-69"/>
      <use x="850.232422" xlink:href="#DejaVuSans-6f"/>
      <use x="911.414062" xlink:href="#DejaVuSans-6e"/>
      <use x="974.792969" xlink:href="#DejaVuSans-2c"/>
      <use x="1006.580078" xlink:href="#DejaVuSans-74"/>
      <use x="1045.789062" xlink:href="#DejaVuSans-61"/>
      <use x="1107.068359" xlink:href="#DejaVuSans-72"/>
      <use x="1148.166016" xlink:href="#DejaVuSans-67"/>
      <use x="1211.642578" xlink:href="#DejaVuSans-65"/>
      <use x="1273.166016" xlink:href="#DejaVuSans-74"/>
      <use x="1312.375" xlink:href="#DejaVuSans-20"/>
      <use x="1344.162109" xlink:href="#DejaVuSans-70"/>
      <use x="1407.638672" xlink:href="#DejaVuSans-61"/>
      <use x="1468.917969" xlink:href="#DejaVuSans-69"/>
      <use x="1496.701172" xlink:href="#DejaVuSans-72"/>
      <use x="1537.814453" xlink:href="#DejaVuSans-73"/>
     </g>
    </g>
   </g>
   <g id="line2d_37">
    <defs>
     <path d="M 0 1.5 
C 0.397805 1.5 0.77937 1.341951 1.06066 1.06066 
C 1.341951 0.77937 1.5 0.397805 1.5 0 
C 1.5 -0.397805 1.341951 -0.77937 1.06066 -1.06066 
C 0.77937 -1.341951 0.397805 -1.5 0 -1.5 
C -0.397805 -1.5 -0.77937 -1.341951 -1.06066 -1.06066 
C -1.341951 -0.77937 -1.5 -0.397805 -1.5 0 
C -1.5 0.397805 -1.341951 0.77937 -1.06066 1.06066 
C -0.77937 1.341951 -0.397805 1.5 0 1.5 
z
" id="me504c05bd8" style="stroke:#00bfbf;"/>
    </defs>
    <g>
     <use style="fill:#00bfbf;stroke:#00bfbf;" x="223.131696" xlink:href="#me504c05bd8" y="27.513663"/>
     <use style="fill:#00bfbf;stroke:#00bfbf;" x="223.131696" xlink:href="#me504c05bd8" y="27.513663"/>
    </g>
   </g>
   <g id="line2d_38">
    <path d="M 44.205749 294.88 
L 44.205749 281.773807 
L 63.08939 281.773807 
L 63.08939 280.725312 
L 75.003641 280.725312 
L 75.003641 279.676816 
L 79.948502 279.676816 
L 79.948502 279.152568 
L 81.973032 279.152568 
L 81.973032 278.104073 
L 83.784035 278.104073 
L 83.784035 277.055578 
L 85.422286 277.055578 
L 85.422286 275.482834 
L 98.100602 275.482834 
L 98.100602 274.434339 
L 100.207968 274.434339 
L 100.207968 272.337348 
L 105.317315 272.337348 
L 105.317315 271.288853 
L 111.448069 271.288853 
L 111.448069 270.240357 
L 113.700266 270.240357 
L 113.700266 269.191862 
L 117.475381 269.191862 
L 117.475381 268.667614 
L 123.015063 268.667614 
L 123.015063 267.094871 
L 129.145817 267.094871 
L 129.145817 266.570623 
L 132.483094 266.570623 
L 132.483094 266.046375 
L 133.176677 266.046375 
L 133.176677 265.522128 
L 133.843356 265.522128 
L 133.843356 264.99788 
L 135.950722 264.99788 
L 135.950722 263.425137 
L 140.750355 263.425137 
L 140.750355 262.376641 
L 141.898705 262.376641 
L 141.898705 261.328146 
L 142.18857 261.328146 
L 142.18857 260.279651 
L 144.797098 260.279651 
L 144.797098 258.706907 
L 145.090928 258.706907 
L 145.090928 257.658412 
L 149.061881 257.658412 
L 149.061881 257.134164 
L 149.291576 257.134164 
L 149.291576 256.085669 
L 149.66771 256.085669 
L 149.66771 255.561421 
L 151.094972 255.561421 
L 151.094972 253.988678 
L 151.601053 253.988678 
L 151.601053 253.46443 
L 154.38788 253.46443 
L 154.38788 252.415935 
L 155.720156 252.415935 
L 155.720156 251.891687 
L 156.512635 251.891687 
L 156.512635 249.794696 
L 158.132707 249.794696 
L 158.132707 248.221953 
L 161.129603 248.221953 
L 161.129603 247.697705 
L 161.637678 247.697705 
L 161.637678 246.64921 
L 165.313003 246.64921 
L 165.313003 245.600714 
L 166.045792 245.600714 
L 166.045792 245.076467 
L 166.231309 245.076467 
L 166.231309 244.027971 
L 166.624209 244.027971 
L 166.624209 243.503724 
L 167.076027 243.503724 
L 167.076027 241.93098 
L 167.437061 241.93098 
L 167.437061 240.882485 
L 167.855361 240.882485 
L 167.855361 239.83399 
L 168.576137 239.83399 
L 168.576137 237.736999 
L 170.484694 237.736999 
L 170.484694 236.688503 
L 170.606169 236.688503 
L 170.63915 233.543017 
L 171.328079 233.543017 
L 171.328079 233.018769 
L 171.621015 233.018769 
L 171.621015 232.494521 
L 171.980301 232.494521 
L 171.980301 231.446026 
L 172.232412 231.446026 
L 172.232412 230.397531 
L 172.677098 230.397531 
L 172.677098 229.349035 
L 173.318575 229.349035 
L 173.318575 226.727797 
L 173.791304 226.727797 
L 173.791304 226.203549 
L 174.117336 226.203549 
L 174.117336 225.679301 
L 174.533889 225.679301 
L 174.533889 224.106558 
L 174.957681 224.106558 
L 174.974758 219.388328 
L 175.195237 219.388328 
L 175.195237 217.815585 
L 175.545527 217.815585 
L 175.594991 215.194347 
L 175.977609 215.194347 
L 175.977609 214.670099 
L 176.27294 214.670099 
L 176.27294 213.621604 
L 177.159745 213.621604 
L 177.159745 212.04886 
L 177.553537 212.04886 
L 177.553537 211.524613 
L 178.350147 211.524613 
L 178.350147 211.000365 
L 178.875031 211.000365 
L 178.956462 208.903374 
L 179.057711 208.903374 
L 179.057711 207.854879 
L 179.975005 207.854879 
L 179.975005 204.709392 
L 180.409705 204.709392 
L 180.409705 203.660897 
L 180.687395 203.660897 
L 180.687395 202.088154 
L 180.912404 202.088154 
L 180.978734 201.039658 
L 181.07476 201.039658 
L 181.12854 196.321429 
L 181.288878 196.321429 
L 181.288878 192.651695 
L 181.406689 192.651695 
L 181.406689 188.457713 
L 181.558647 188.457713 
L 181.558647 184.263731 
L 181.761106 184.263731 
L 181.761106 183.739484 
L 182.040603 183.739484 
L 182.130891 182.690988 
L 182.831214 182.690988 
L 182.885165 181.642493 
L 183.263421 181.642493 
L 183.263421 181.118245 
L 183.592225 181.118245 
L 183.659298 179.021254 
L 183.777327 179.021254 
L 183.777327 177.972759 
L 184.016027 177.972759 
L 184.016027 176.924263 
L 184.136649 176.924263 
L 184.18666 175.875768 
L 184.693475 175.875768 
L 184.737057 174.303025 
L 185.429056 174.303025 
L 185.429056 172.206034 
L 185.558643 172.206034 
L 185.641435 171.157538 
L 185.905531 171.157538 
L 185.905531 168.5363 
L 186.430619 168.5363 
L 186.430619 165.915061 
L 187.159969 165.915061 
L 187.264663 163.81807 
L 187.277184 163.81807 
L 187.323014 161.196832 
L 187.891861 161.196832 
L 187.992203 155.954354 
L 188.45807 155.954354 
L 188.45807 154.905859 
L 188.751569 154.905859 
L 188.839413 147.566391 
L 188.968451 147.566391 
L 188.968451 146.517896 
L 189.364641 146.517896 
L 189.364641 145.4694 
L 189.632274 145.4694 
L 189.694005 142.848162 
L 189.885052 142.848162 
L 189.906547 139.178427 
L 190.013619 139.178427 
L 190.013619 138.129932 
L 190.285424 138.129932 
L 190.302926 134.984446 
L 190.515026 134.984446 
L 190.556445 132.887455 
L 190.656129 132.887455 
L 190.762053 130.266216 
L 191.106039 130.266216 
L 191.106039 129.217721 
L 191.232451 129.217721 
L 191.325006 122.4025 
L 191.397379 122.4025 
L 191.417064 120.829757 
L 191.586733 120.829757 
L 191.651547 119.781262 
L 191.71934 119.781262 
L 191.729003 117.684271 
L 192.130015 117.684271 
L 192.130015 117.160023 
L 192.286589 117.160023 
L 192.289706 116.111528 
L 192.738826 116.111528 
L 192.738826 115.063032 
L 193.009946 115.063032 
L 193.090455 114.014537 
L 193.306258 114.014537 
L 193.306258 112.441794 
L 193.461256 112.441794 
L 193.504871 108.77206 
L 193.597548 108.77206 
L 193.675358 106.150821 
L 193.881144 106.150821 
L 193.883984 102.481087 
L 193.994413 102.481087 
L 193.994413 100.384096 
L 194.165725 100.384096 
L 194.165725 99.335601 
L 194.307654 99.335601 
L 194.307654 98.811353 
L 194.688635 98.811353 
L 194.723838 96.714362 
L 194.829017 96.714362 
L 194.880026 94.093124 
L 194.984256 94.093124 
L 195.087859 87.277903 
L 195.201368 87.277903 
L 195.201368 86.229408 
L 195.509061 86.229408 
L 195.509061 82.559674 
L 195.765574 82.559674 
L 195.765574 82.035426 
L 196.417579 82.035426 
L 196.51779 79.414188 
L 196.631952 79.414188 
L 196.631952 78.88994 
L 196.75017 78.88994 
L 196.824544 77.841444 
L 197.154124 77.841444 
L 197.168209 76.792949 
L 197.280477 76.792949 
L 197.359559 72.074719 
L 197.433658 72.074719 
L 197.468282 69.977729 
L 198.055384 69.977729 
L 198.055384 67.35649 
L 198.188579 67.35649 
L 198.188579 64.735251 
L 198.475848 64.735251 
L 198.577755 63.686756 
L 198.860773 63.686756 
L 198.860773 63.162508 
L 199.053205 63.162508 
L 199.137113 60.54127 
L 199.309927 60.54127 
L 199.309927 59.492774 
L 199.952416 59.492774 
L 199.952416 57.920031 
L 200.138992 57.920031 
L 200.138992 56.871536 
L 200.290331 56.871536 
L 200.290331 55.298792 
L 200.46361 55.298792 
L 200.46361 54.250297 
L 200.823996 54.250297 
L 200.823996 52.153306 
L 201.201124 52.153306 
L 201.201124 48.483572 
L 201.394889 48.483572 
L 201.490046 45.862334 
L 202.506855 45.862334 
L 202.506855 45.338086 
L 204.904759 45.338086 
L 204.904759 44.813838 
L 205.302569 44.813838 
L 205.302569 44.28959 
L 205.552189 44.28959 
L 205.552189 43.765343 
L 205.914308 43.765343 
L 205.914308 43.241095 
L 206.992838 43.241095 
L 206.992838 42.192599 
L 207.211385 42.192599 
L 207.211385 41.668352 
L 207.410385 41.668352 
L 207.410385 41.144104 
L 207.922528 41.144104 
L 207.922528 40.619856 
L 208.113508 40.619856 
L 208.113508 40.095609 
L 208.781832 40.095609 
L 208.781832 39.571361 
L 209.368692 39.571361 
L 209.368692 38.522865 
L 209.503172 38.522865 
L 209.503172 37.998618 
L 209.65591 37.998618 
L 209.65591 37.47437 
L 209.844383 37.47437 
L 209.844383 36.950122 
L 209.984115 36.950122 
L 210.092876 35.377379 
L 210.340009 35.377379 
L 210.340009 34.853131 
L 210.480112 34.853131 
L 210.480112 34.328884 
L 210.832344 34.328884 
L 210.832344 33.804636 
L 211.180618 33.804636 
L 211.180618 33.280388 
L 211.387066 33.280388 
L 211.410649 31.707645 
L 211.841703 31.707645 
L 211.841703 31.183397 
L 212.065084 31.183397 
L 212.065084 30.65915 
L 212.177164 30.65915 
L 212.177164 30.134902 
L 212.501396 30.134902 
L 212.501396 29.610654 
L 214.319322 29.610654 
L 214.319322 29.086407 
L 218.068121 29.086407 
L 218.068121 28.562159 
L 218.347561 28.562159 
L 218.347561 28.037911 
L 223.131696 28.037911 
L 223.131696 27.513663 
L 333.168 27.513663 
L 333.168 27.513663 
" style="fill:none;stroke:#00bfbf;stroke-linecap:square;stroke-width:1.5;"/>
   </g>
   <g id="line2d_39">
    <defs>
     <path d="M -6 0 
L 6 0 
M 0 6 
L 0 -6 
" id="m968ad09947" style="stroke:#00bfbf;stroke-width:1.5;"/>
    </defs>
    <g>
     <use style="fill-opacity:0;stroke:#00bfbf;stroke-width:1.5;" x="158.132707" xlink:href="#m968ad09947" y="248.221953"/>
     <use style="fill-opacity:0;stroke:#00bfbf;stroke-width:1.5;" x="188.45807" xlink:href="#m968ad09947" y="154.905859"/>
     <use style="fill-opacity:0;stroke:#00bfbf;stroke-width:1.5;" x="198.055384" xlink:href="#m968ad09947" y="69.977729"/>
     <use style="fill-opacity:0;stroke:#00bfbf;stroke-width:1.5;" x="223.131696" xlink:href="#m968ad09947" y="27.513663"/>
     <use style="fill-opacity:0;stroke:#00bfbf;stroke-width:1.5;" x="223.131696" xlink:href="#m968ad09947" y="27.513663"/>
     <use style="fill-opacity:0;stroke:#00bfbf;stroke-width:1.5;" x="333.168" xlink:href="#m968ad09947" y="27.513663"/>
    </g>
   </g>
   <g id="line2d_40">
    <path style="fill:none;stroke:#00bfbf;stroke-linecap:square;stroke-width:1.5;"/>
    <g/>
   </g>
   <g id="line2d_41">
    <path clip-path="url(#p8c13fab83a)" d="M 202.691626 45.338086 
" style="fill:none;stroke:#00bfbf;stroke-linecap:square;stroke-width:1.5;"/>
    <defs>
     <path d="M -12 12 
L 12 -12 
M -12 -12 
L 12 12 
" id="mb7bf985cb7" style="stroke:#00bfbf;"/>
    </defs>
    <g clip-path="url(#p8c13fab83a)">
     <use style="fill:#00bfbf;stroke:#00bfbf;" x="202.691626" xlink:href="#mb7bf985cb7" y="45.338086"/>
    </g>
   </g>
   <g id="line2d_42">
    <defs>
     <path d="M 0 1.5 
C 0.397805 1.5 0.77937 1.341951 1.06066 1.06066 
C 1.341951 0.77937 1.5 0.397805 1.5 0 
C 1.5 -0.397805 1.341951 -0.77937 1.06066 -1.06066 
C 0.77937 -1.341951 0.397805 -1.5 0 -1.5 
C -0.397805 -1.5 -0.77937 -1.341951 -1.06066 -1.06066 
C -1.341951 -0.77937 -1.5 -0.397805 -1.5 0 
C -1.5 0.397805 -1.341951 0.77937 -1.06066 1.06066 
C -0.77937 1.341951 -0.397805 1.5 0 1.5 
z
" id="m11990922d9" style="stroke:#008000;"/>
    </defs>
    <g>
     <use style="fill:#008000;stroke:#008000;" x="245.002441" xlink:href="#m11990922d9" y="237.212751"/>
     <use style="fill:#008000;stroke:#008000;" x="245.002441" xlink:href="#m11990922d9" y="237.212751"/>
    </g>
   </g>
   <g id="line2d_43">
    <path d="M 37.236359 294.88 
L 37.236359 290.161771 
L 56.12 290.161771 
L 56.12 289.637523 
L 64.900393 289.637523 
L 64.900393 288.589027 
L 72.979112 288.589027 
L 72.979112 286.492036 
L 82.598142 286.492036 
L 82.598142 285.443541 
L 85.935418 285.443541 
L 85.935418 284.919293 
L 86.917893 284.919293 
L 86.917893 284.395046 
L 96.807615 284.395046 
L 96.807615 283.34655 
L 99.303095 283.34655 
L 99.303095 282.822302 
L 101.481783 282.822302 
L 101.481783 282.298055 
L 108.451173 282.298055 
L 108.451173 281.773807 
L 114.195649 281.773807 
L 114.195649 281.249559 
L 120.769881 281.249559 
L 120.769881 280.201064 
L 125.814387 280.201064 
L 125.814387 278.628321 
L 129.550274 278.628321 
L 129.550274 278.104073 
L 129.788458 278.104073 
L 129.788458 277.579825 
L 130.178239 277.579825 
L 130.178239 277.055578 
L 130.858318 277.055578 
L 130.858318 276.53133 
L 131.152148 276.53133 
L 131.152148 276.007082 
L 132.142713 276.007082 
L 132.142713 275.482834 
L 136.810332 275.482834 
L 136.810332 274.958587 
L 137.275617 274.958587 
L 137.377325 273.385844 
L 138.362617 273.385844 
L 138.362617 271.288853 
L 140.178407 271.288853 
L 140.178407 270.764605 
L 143.175303 270.764605 
L 143.175303 269.716109 
L 144.193927 269.716109 
L 144.193927 268.667614 
L 144.698028 268.667614 
L 144.698028 267.094871 
L 145.347959 267.094871 
L 145.347959 266.570623 
L 146.188114 266.570623 
L 146.188114 266.046375 
L 146.429362 266.046375 
L 146.429362 265.522128 
L 150.204899 265.522128 
L 150.204899 264.99788 
L 151.700505 264.99788 
L 151.700505 264.473632 
L 152.412754 264.473632 
L 152.412754 263.949385 
L 153.07633 263.949385 
L 153.07633 263.425137 
L 155.071451 263.425137 
L 155.071451 262.900889 
L 155.798464 262.900889 
L 155.798464 262.376641 
L 156.395648 262.376641 
L 156.395648 261.852394 
L 157.309979 261.852394 
L 157.309979 261.328146 
L 158.162995 261.328146 
L 158.268586 260.279651 
L 159.957346 260.279651 
L 159.957346 259.755403 
L 160.873051 259.755403 
L 160.873051 259.231155 
L 161.693215 259.231155 
L 161.693215 258.18266 
L 163.570626 258.18266 
L 163.570626 257.658412 
L 164.878337 257.658412 
L 164.878337 257.134164 
L 165.182748 257.134164 
L 165.182748 256.609917 
L 165.313003 256.609917 
L 165.382734 255.037173 
L 167.441472 255.037173 
L 167.441472 254.512926 
L 168.07351 254.512926 
L 168.07351 253.46443 
L 171.534352 253.46443 
L 171.534352 252.940182 
L 171.803307 252.940182 
L 171.803307 251.891687 
L 177.504496 251.891687 
L 177.504496 251.367439 
L 178.667456 251.367439 
L 178.667456 250.843192 
L 181.58578 250.843192 
L 181.58578 250.318944 
L 182.622821 250.318944 
L 182.622821 249.794696 
L 186.494777 249.794696 
L 186.494777 249.270448 
L 188.025521 249.270448 
L 188.025521 248.746201 
L 194.129359 248.746201 
L 194.129359 248.221953 
L 197.744307 248.221953 
L 197.744307 247.697705 
L 198.438113 247.697705 
L 198.438113 247.173458 
L 199.190044 247.173458 
L 199.190044 246.124962 
L 201.98234 246.124962 
L 201.98234 245.600714 
L 209.466113 245.600714 
L 209.466113 245.076467 
L 209.650992 245.076467 
L 209.650992 244.552219 
L 212.044028 244.552219 
L 212.044028 244.027971 
L 212.454532 244.027971 
L 212.454532 243.503724 
L 217.666027 243.503724 
L 217.666027 242.979476 
L 217.962995 242.979476 
L 217.962995 242.455228 
L 220.485453 242.455228 
L 220.485453 241.93098 
L 221.447546 241.93098 
L 221.447546 241.406733 
L 225.286888 241.406733 
L 225.286888 240.882485 
L 228.118215 240.882485 
L 228.118215 240.358237 
L 230.00948 240.358237 
L 230.00948 239.83399 
L 230.216125 239.83399 
L 230.216125 239.309742 
L 232.201954 239.309742 
L 232.201954 238.785494 
L 234.308795 238.785494 
L 234.308795 237.736999 
L 245.002441 237.736999 
L 245.002441 237.212751 
L 333.168 237.212751 
L 333.168 237.212751 
" style="fill:none;stroke:#008000;stroke-linecap:square;stroke-width:1.5;"/>
   </g>
   <g id="line2d_44">
    <defs>
     <path d="M -0 6 
L 6 -6 
L -6 -6 
z
" id="mfee6deb30d" style="stroke:#008000;stroke-linejoin:miter;stroke-width:1.5;"/>
    </defs>
    <g>
     <use style="fill-opacity:0;stroke:#008000;stroke-linejoin:miter;stroke-width:1.5;" x="131.152148" xlink:href="#mfee6deb30d" y="276.53133"/>
     <use style="fill-opacity:0;stroke:#008000;stroke-linejoin:miter;stroke-width:1.5;" x="188.025521" xlink:href="#mfee6deb30d" y="248.746201"/>
     <use style="fill-opacity:0;stroke:#008000;stroke-linejoin:miter;stroke-width:1.5;" x="234.308795" xlink:href="#mfee6deb30d" y="237.736999"/>
     <use style="fill-opacity:0;stroke:#008000;stroke-linejoin:miter;stroke-width:1.5;" x="245.002441" xlink:href="#mfee6deb30d" y="237.212751"/>
     <use style="fill-opacity:0;stroke:#008000;stroke-linejoin:miter;stroke-width:1.5;" x="245.002441" xlink:href="#mfee6deb30d" y="237.212751"/>
     <use style="fill-opacity:0;stroke:#008000;stroke-linejoin:miter;stroke-width:1.5;" x="333.168" xlink:href="#mfee6deb30d" y="237.212751"/>
    </g>
   </g>
   <g id="line2d_45">
    <path style="fill:none;stroke:#008000;stroke-linecap:square;stroke-width:1.5;"/>
    <g/>
   </g>
   <g id="line2d_46">
    <path clip-path="url(#p8c13fab83a)" d="M 195.722236 248.221953 
" style="fill:none;stroke:#008000;stroke-linecap:square;stroke-width:1.5;"/>
    <defs>
     <path d="M -12 12 
L 12 -12 
M -12 -12 
L 12 12 
" id="m4235a8bec2" style="stroke:#008000;"/>
    </defs>
    <g clip-path="url(#p8c13fab83a)">
     <use style="fill:#008000;stroke:#008000;" x="195.722236" xlink:href="#m4235a8bec2" y="248.221953"/>
    </g>
   </g>
   <g id="line2d_47">
    <defs>
     <path d="M 0 1.5 
C 0.397805 1.5 0.77937 1.341951 1.06066 1.06066 
C 1.341951 0.77937 1.5 0.397805 1.5 0 
C 1.5 -0.397805 1.341951 -0.77937 1.06066 -1.06066 
C 0.77937 -1.341951 0.397805 -1.5 0 -1.5 
C -0.397805 -1.5 -0.77937 -1.341951 -1.06066 -1.06066 
C -1.341951 -0.77937 -1.5 -0.397805 -1.5 0 
C -1.5 0.397805 -1.341951 0.77937 -1.06066 1.06066 
C -0.77937 1.341951 -0.397805 1.5 0 1.5 
z
" id="m9733c7e8a1" style="stroke:#0000ff;"/>
    </defs>
    <g>
     <use style="fill:#0000ff;stroke:#0000ff;" x="250.526848" xlink:href="#m9733c7e8a1" y="252.940182"/>
     <use style="fill:#0000ff;stroke:#0000ff;" x="250.526848" xlink:href="#m9733c7e8a1" y="252.940182"/>
    </g>
   </g>
   <g id="line2d_48">
    <path d="M 28.455965 294.88 
L 28.455965 294.355752 
L 94.26507 294.355752 
L 94.26507 293.307257 
L 101.481783 293.307257 
L 101.481783 292.258761 
L 103.777005 292.258761 
L 103.777005 291.734514 
L 106.548983 291.734514 
L 106.548983 290.686018 
L 109.406343 290.686018 
L 109.406343 290.161771 
L 118.186736 290.161771 
L 118.186736 289.637523 
L 119.697821 289.637523 
L 119.697821 289.113275 
L 120.769881 289.113275 
L 120.769881 288.589027 
L 122.588877 288.589027 
L 122.588877 287.540532 
L 126.265455 287.540532 
L 126.265455 286.492036 
L 126.892639 286.492036 
L 126.892639 285.967789 
L 127.872003 285.967789 
L 127.872003 284.919293 
L 130.100987 284.919293 
L 130.100987 283.870798 
L 133.079291 283.870798 
L 133.079291 282.298055 
L 134.066106 282.298055 
L 134.066106 281.773807 
L 136.66297 281.773807 
L 136.66297 280.725312 
L 137.255203 280.725312 
L 137.255203 280.201064 
L 141.109109 280.201064 
L 141.109109 279.676816 
L 141.376358 279.676816 
L 141.376358 279.152568 
L 141.520398 279.152568 
L 141.520398 278.628321 
L 144.737725 278.628321 
L 144.737725 277.579825 
L 145.550852 277.579825 
L 145.550852 276.53133 
L 147.765521 276.53133 
L 147.765521 276.007082 
L 152.157156 276.007082 
L 152.157156 275.482834 
L 152.664606 275.482834 
L 152.664606 274.434339 
L 152.764323 274.434339 
L 152.764323 273.910091 
L 153.613017 273.910091 
L 153.613017 273.385844 
L 154.079811 273.385844 
L 154.079811 272.337348 
L 154.845378 272.337348 
L 154.845378 271.8131 
L 154.944195 271.8131 
L 154.944195 271.288853 
L 155.429934 271.288853 
L 155.429934 270.240357 
L 157.111671 270.240357 
L 157.111671 269.716109 
L 158.766584 269.716109 
L 158.766584 269.191862 
L 160.147128 269.191862 
L 160.147128 268.667614 
L 160.33217 268.667614 
L 160.33217 268.143366 
L 161.091363 268.143366 
L 161.091363 267.619119 
L 161.693215 267.619119 
L 161.693215 266.570623 
L 162.360255 266.570623 
L 162.360255 266.046375 
L 163.172796 266.046375 
L 163.172796 265.522128 
L 176.505605 265.522128 
L 176.505605 264.99788 
L 189.491278 264.99788 
L 189.491278 263.949385 
L 189.733108 263.949385 
L 189.733108 263.425137 
L 190.47905 263.425137 
L 190.47905 262.900889 
L 190.659556 262.900889 
L 190.659556 262.376641 
L 192.331419 262.376641 
L 192.331419 261.852394 
L 194.602217 261.852394 
L 194.602217 260.279651 
L 200.448494 260.279651 
L 200.448494 259.755403 
L 202.110489 259.755403 
L 202.110489 259.231155 
L 202.797146 259.231155 
L 202.797146 258.706907 
L 203.085609 258.706907 
L 203.085609 258.18266 
L 206.903303 258.18266 
L 206.903303 257.658412 
L 207.205889 257.658412 
L 207.205889 257.134164 
L 208.774667 257.134164 
L 208.774667 255.561421 
L 212.284235 255.561421 
L 212.284235 255.037173 
L 221.38373 255.037173 
L 221.38373 254.512926 
L 227.141774 254.512926 
L 227.141774 253.988678 
L 229.929843 253.988678 
L 229.929843 253.46443 
L 250.526848 253.46443 
L 250.526848 252.940182 
L 333.168 252.940182 
" style="fill:none;stroke:#0000ff;stroke-linecap:square;stroke-width:1.5;"/>
   </g>
   <g id="line2d_49">
    <defs>
     <path d="M 0 -6 
L -1.347084 -1.854102 
L -5.706339 -1.854102 
L -2.179628 0.708204 
L -3.526712 4.854102 
L -0 2.291796 
L 3.526712 4.854102 
L 2.179628 0.708204 
L 5.706339 -1.854102 
L 1.347084 -1.854102 
z
" id="mc16f918c7d" style="stroke:#0000ff;stroke-linejoin:bevel;stroke-width:1.5;"/>
    </defs>
    <g>
     <use style="fill-opacity:0;stroke:#0000ff;stroke-linejoin:bevel;stroke-width:1.5;" x="122.588877" xlink:href="#mc16f918c7d" y="287.540532"/>
     <use style="fill-opacity:0;stroke:#0000ff;stroke-linejoin:bevel;stroke-width:1.5;" x="194.602217" xlink:href="#mc16f918c7d" y="261.852394"/>
     <use style="fill-opacity:0;stroke:#0000ff;stroke-linejoin:bevel;stroke-width:1.5;" x="250.526848" xlink:href="#mc16f918c7d" y="253.46443"/>
     <use style="fill-opacity:0;stroke:#0000ff;stroke-linejoin:bevel;stroke-width:1.5;" x="250.526848" xlink:href="#mc16f918c7d" y="252.940182"/>
     <use style="fill-opacity:0;stroke:#0000ff;stroke-linejoin:bevel;stroke-width:1.5;" x="250.526848" xlink:href="#mc16f918c7d" y="252.940182"/>
     <use style="fill-opacity:0;stroke:#0000ff;stroke-linejoin:bevel;stroke-width:1.5;" x="333.168" xlink:href="#mc16f918c7d" y="252.940182"/>
    </g>
   </g>
   <g id="line2d_50">
    <path style="fill:none;stroke:#0000ff;stroke-linecap:square;stroke-width:1.5;"/>
    <g/>
   </g>
   <g id="line2d_51">
    <path clip-path="url(#p8c13fab83a)" d="M 186.941843 264.99788 
" style="fill:none;stroke:#0000ff;stroke-linecap:square;stroke-width:1.5;"/>
    <defs>
     <path d="M -12 12 
L 12 -12 
M -12 -12 
L 12 12 
" id="m7a5bfa95d7" style="stroke:#0000ff;"/>
    </defs>
    <g clip-path="url(#p8c13fab83a)">
     <use style="fill:#0000ff;stroke:#0000ff;" x="186.941843" xlink:href="#m7a5bfa95d7" y="264.99788"/>
    </g>
   </g>
   <g id="line2d_52">
    <defs>
     <path d="M 0 1.5 
C 0.397805 1.5 0.77937 1.341951 1.06066 1.06066 
C 1.341951 0.77937 1.5 0.397805 1.5 0 
C 1.5 -0.397805 1.341951 -0.77937 1.06066 -1.06066 
C 0.77937 -1.341951 0.397805 -1.5 0 -1.5 
C -0.397805 -1.5 -0.77937 -1.341951 -1.06066 -1.06066 
C -1.341951 -0.77937 -1.5 -0.397805 -1.5 0 
C -1.5 0.397805 -1.341951 0.77937 -1.06066 1.06066 
C -0.77937 1.341951 -0.397805 1.5 0 1.5 
z
" id="m0fb51fdadb" style="stroke:#000000;"/>
    </defs>
    <g>
     <use style="stroke:#000000;" x="249.60119" xlink:href="#m0fb51fdadb" y="268.667614"/>
     <use style="stroke:#000000;" x="249.60119" xlink:href="#m0fb51fdadb" y="268.667614"/>
    </g>
   </g>
   <g id="line2d_53">
    <path d="M 135.917635 294.88 
L 135.917635 294.355752 
L 138.439053 294.355752 
L 138.439053 293.831505 
L 138.538863 293.831505 
L 138.538863 293.307257 
L 140.986245 293.307257 
L 140.986245 292.783009 
L 142.997068 292.783009 
L 142.997068 292.258761 
L 143.312265 292.258761 
L 143.312265 291.734514 
L 143.685135 291.734514 
L 143.685135 291.210266 
L 147.02675 291.210266 
L 147.02675 290.686018 
L 147.889746 290.686018 
L 147.889746 290.161771 
L 149.031022 290.161771 
L 149.031022 289.113275 
L 150.88136 289.113275 
L 150.88136 288.06478 
L 154.263036 288.06478 
L 154.263036 287.540532 
L 154.762594 287.540532 
L 154.762594 287.016284 
L 155.845279 287.016284 
L 155.845279 286.492036 
L 156.311596 286.492036 
L 156.311596 285.967789 
L 160.762847 285.967789 
L 160.762847 285.443541 
L 166.125953 285.443541 
L 166.125953 284.919293 
L 168.491721 284.919293 
L 168.491721 284.395046 
L 168.763347 284.395046 
L 168.763347 283.870798 
L 178.105771 283.870798 
L 178.105771 283.34655 
L 179.521166 283.34655 
L 179.521166 282.298055 
L 179.89827 282.298055 
L 179.89827 281.773807 
L 181.248637 281.773807 
L 181.248637 280.725312 
L 183.060944 280.725312 
L 183.060944 279.152568 
L 183.391514 279.152568 
L 183.391514 278.628321 
L 189.254179 278.628321 
L 189.254179 278.104073 
L 191.423621 278.104073 
L 191.423621 277.579825 
L 192.06572 277.579825 
L 192.06572 277.055578 
L 194.812339 277.055578 
L 194.812339 276.53133 
L 195.328241 276.53133 
L 195.328241 276.007082 
L 195.692601 276.007082 
L 195.692601 275.482834 
L 197.024942 275.482834 
L 197.024942 274.958587 
L 197.172433 274.958587 
L 197.172433 274.434339 
L 200.129513 274.434339 
L 200.129513 273.910091 
L 200.244872 273.910091 
L 200.244872 273.385844 
L 200.634777 273.385844 
L 200.634777 272.861596 
L 201.242644 272.861596 
L 201.242644 272.337348 
L 209.282394 272.337348 
L 209.282394 271.8131 
L 212.005007 271.8131 
L 212.005007 271.288853 
L 215.174923 271.288853 
L 215.174923 270.764605 
L 221.956717 270.764605 
L 221.956717 270.240357 
L 224.162024 270.240357 
L 224.162024 269.716109 
L 242.809926 269.716109 
L 242.809926 269.191862 
L 249.60119 269.191862 
L 249.60119 268.667614 
L 333.168 268.667614 
" style="fill:none;stroke:#000000;stroke-linecap:square;stroke-width:1.5;"/>
   </g>
   <g id="line2d_54">
    <defs>
     <path d="M 0 6 
C 1.591219 6 3.117479 5.367802 4.242641 4.242641 
C 5.367802 3.117479 6 1.591219 6 0 
C 6 -1.591219 5.367802 -3.117479 4.242641 -4.242641 
C 3.117479 -5.367802 1.591219 -6 0 -6 
C -1.591219 -6 -3.117479 -5.367802 -4.242641 -4.242641 
C -5.367802 -3.117479 -6 -1.591219 -6 0 
C -6 1.591219 -5.367802 3.117479 -4.242641 4.242641 
C -3.117479 5.367802 -1.591219 6 0 6 
z
" id="mf9a2359ded" style="stroke:#000000;stroke-width:1.5;"/>
    </defs>
    <g>
     <use style="fill-opacity:0;stroke:#000000;stroke-width:1.5;" x="201.242644" xlink:href="#mf9a2359ded" y="272.861596"/>
     <use style="fill-opacity:0;stroke:#000000;stroke-width:1.5;" x="249.60119" xlink:href="#mf9a2359ded" y="269.191862"/>
     <use style="fill-opacity:0;stroke:#000000;stroke-width:1.5;" x="249.60119" xlink:href="#mf9a2359ded" y="268.667614"/>
     <use style="fill-opacity:0;stroke:#000000;stroke-width:1.5;" x="249.60119" xlink:href="#mf9a2359ded" y="268.667614"/>
     <use style="fill-opacity:0;stroke:#000000;stroke-width:1.5;" x="333.168" xlink:href="#mf9a2359ded" y="268.667614"/>
    </g>
   </g>
   <g id="line2d_55">
    <path style="fill:none;stroke:#000000;stroke-linecap:square;stroke-width:1.5;"/>
    <g/>
   </g>
   <g id="line2d_56">
    <path clip-path="url(#p8c13fab83a)" d="M 175.027591 283.870798 
" style="fill:none;stroke:#000000;stroke-linecap:square;stroke-width:1.5;"/>
    <defs>
     <path d="M -12 12 
L 12 -12 
M -12 -12 
L 12 12 
" id="mcabd374a6a" style="stroke:#000000;"/>
    </defs>
    <g clip-path="url(#p8c13fab83a)">
     <use style="stroke:#000000;" x="175.027591" xlink:href="#mcabd374a6a" y="283.870798"/>
    </g>
   </g>
   <g id="line2d_57">
    <path clip-path="url(#p8c13fab83a)" d="M 56.12 294.88 
L 56.12 294.88 
L 56.12 294.88 
L 56.12 294.88 
L 333.168 294.88 
" style="fill:none;stroke:#ff0000;stroke-linecap:square;stroke-width:1.5;"/>
   </g>
   <g id="line2d_58">
    <defs>
     <path d="M -6 6 
L 6 6 
L 6 -6 
L -6 -6 
z
" id="m8293087b77" style="stroke:#ff0000;stroke-linejoin:miter;stroke-width:1.5;"/>
    </defs>
    <g clip-path="url(#p8c13fab83a)">
     <use style="fill-opacity:0;stroke:#ff0000;stroke-linejoin:miter;stroke-width:1.5;" x="56.12" xlink:href="#m8293087b77" y="294.88"/>
    </g>
   </g>
   <g id="line2d_59">
    <path clip-path="url(#p8c13fab83a)" style="fill:none;stroke:#ff0000;stroke-linecap:square;stroke-width:1.5;"/>
    <g clip-path="url(#p8c13fab83a)">
     <use style="fill-opacity:0;stroke:#ff0000;stroke-linejoin:miter;stroke-width:1.5;" x="-1" xlink:href="#m8293087b77" y="562.246337"/>
     <use style="fill-opacity:0;stroke:#ff0000;stroke-linejoin:miter;stroke-width:1.5;" x="333.168" xlink:href="#m8293087b77" y="562.246337"/>
    </g>
   </g>
   <g id="line2d_60">
    <path clip-path="url(#p8c13fab83a)" d="M 56.12 294.88 
L 56.12 294.88 
L 56.12 294.88 
L 56.12 294.88 
L 333.168 294.88 
" style="fill:none;stroke:#bf00bf;stroke-linecap:square;stroke-width:1.5;"/>
   </g>
   <g id="line2d_61">
    <defs>
     <path d="M -0 8.485281 
L 8.485281 0 
L 0 -8.485281 
L -8.485281 -0 
z
" id="m3b449a6a6f" style="stroke:#bf00bf;stroke-linejoin:miter;stroke-width:1.5;"/>
    </defs>
    <g clip-path="url(#p8c13fab83a)">
     <use style="fill-opacity:0;stroke:#bf00bf;stroke-linejoin:miter;stroke-width:1.5;" x="56.12" xlink:href="#m3b449a6a6f" y="294.88"/>
    </g>
   </g>
   <g id="line2d_62">
    <path clip-path="url(#p8c13fab83a)" style="fill:none;stroke:#bf00bf;stroke-linecap:square;stroke-width:1.5;"/>
    <g clip-path="url(#p8c13fab83a)">
     <use style="fill-opacity:0;stroke:#bf00bf;stroke-linejoin:miter;stroke-width:1.5;" x="-1" xlink:href="#m3b449a6a6f" y="562.246337"/>
     <use style="fill-opacity:0;stroke:#bf00bf;stroke-linejoin:miter;stroke-width:1.5;" x="333.168" xlink:href="#m3b449a6a6f" y="562.246337"/>
    </g>
   </g>
   <g id="line2d_63">
    <path d="M 333.168 294.88 
L 363.64328 289.532673 
" style="fill:none;stroke:#bf00bf;stroke-linecap:square;stroke-width:1.5;"/>
    <g>
     <use style="fill-opacity:0;stroke:#bf00bf;stroke-linejoin:miter;stroke-width:1.5;" x="333.168" xlink:href="#m3b449a6a6f" y="294.88"/>
     <use style="fill-opacity:0;stroke:#bf00bf;stroke-linejoin:miter;stroke-width:1.5;" x="363.64328" xlink:href="#m3b449a6a6f" y="289.532673"/>
    </g>
   </g>
   <g id="line2d_64">
    <path d="M 333.168 294.88 
L 363.64328 238.198337 
" style="fill:none;stroke:#ff0000;stroke-linecap:square;stroke-width:1.5;"/>
    <g>
     <use style="fill-opacity:0;stroke:#ff0000;stroke-linejoin:miter;stroke-width:1.5;" x="333.168" xlink:href="#m8293087b77" y="294.88"/>
     <use style="fill-opacity:0;stroke:#ff0000;stroke-linejoin:miter;stroke-width:1.5;" x="363.64328" xlink:href="#m8293087b77" y="238.198337"/>
    </g>
   </g>
   <g id="line2d_65">
    <path d="M 333.168 268.667614 
L 363.64328 186.864 
" style="fill:none;stroke:#000000;stroke-linecap:square;stroke-width:1.5;"/>
    <g>
     <use style="fill-opacity:0;stroke:#000000;stroke-width:1.5;" x="333.168" xlink:href="#mf9a2359ded" y="268.667614"/>
     <use style="fill-opacity:0;stroke:#000000;stroke-width:1.5;" x="363.64328" xlink:href="#mf9a2359ded" y="186.864"/>
    </g>
   </g>
   <g id="line2d_66">
    <path d="M 333.168 252.940182 
L 363.64328 135.529663 
" style="fill:none;stroke:#0000ff;stroke-linecap:square;stroke-width:1.5;"/>
    <g>
     <use style="fill-opacity:0;stroke:#0000ff;stroke-linejoin:bevel;stroke-width:1.5;" x="333.168" xlink:href="#mc16f918c7d" y="252.940182"/>
     <use style="fill-opacity:0;stroke:#0000ff;stroke-linejoin:bevel;stroke-width:1.5;" x="363.64328" xlink:href="#mc16f918c7d" y="135.529663"/>
    </g>
   </g>
   <g id="line2d_67">
    <path d="M 333.168 237.212751 
L 363.64328 84.195327 
" style="fill:none;stroke:#008000;stroke-linecap:square;stroke-width:1.5;"/>
    <g>
     <use style="fill-opacity:0;stroke:#008000;stroke-linejoin:miter;stroke-width:1.5;" x="333.168" xlink:href="#mfee6deb30d" y="237.212751"/>
     <use style="fill-opacity:0;stroke:#008000;stroke-linejoin:miter;stroke-width:1.5;" x="363.64328" xlink:href="#mfee6deb30d" y="84.195327"/>
    </g>
   </g>
   <g id="line2d_68">
    <path d="M 333.168 27.513663 
L 363.64328 32.86099 
" style="fill:none;stroke:#00bfbf;stroke-linecap:square;stroke-width:1.5;"/>
    <g>
     <use style="fill-opacity:0;stroke:#00bfbf;stroke-width:1.5;" x="333.168" xlink:href="#m968ad09947" y="27.513663"/>
     <use style="fill-opacity:0;stroke:#00bfbf;stroke-width:1.5;" x="363.64328" xlink:href="#m968ad09947" y="32.86099"/>
    </g>
   </g>
   <g id="line2d_69">
    <path d="M 333.168 294.88 
L 333.168 27.513663 
" style="fill:none;stroke:#000000;stroke-linecap:square;stroke-width:1.5;"/>
   </g>
   <g id="patch_3">
    <path d="M 56.12 294.88 
L 56.12 24.84 
" style="fill:none;stroke:#000000;stroke-linecap:square;stroke-linejoin:miter;stroke-width:0.8;"/>
   </g>
   <g id="patch_4">
    <path d="M 333.168 294.88 
L 333.168 24.84 
" style="fill:none;stroke:#000000;stroke-linecap:square;stroke-linejoin:miter;stroke-width:0.8;"/>
   </g>
   <g id="patch_5">
    <path d="M 56.12 294.88 
L 333.168 294.88 
" style="fill:none;stroke:#000000;stroke-linecap:square;stroke-linejoin:miter;stroke-width:0.8;"/>
   </g>
   <g id="patch_6">
    <path d="M 56.12 24.84 
L 333.168 24.84 
" style="fill:none;stroke:#000000;stroke-linecap:square;stroke-linejoin:miter;stroke-width:0.8;"/>
   </g>
   <g id="text_13">
    <!-- 40-D -->
    <defs>
     <path d="M 19.671875 64.796875 
L 19.671875 8.109375 
L 31.59375 8.109375 
Q 46.6875 8.109375 53.6875 14.9375 
Q 60.6875 21.78125 60.6875 36.53125 
Q 60.6875 51.171875 53.6875 57.984375 
Q 46.6875 64.796875 31.59375 64.796875 
z
M 9.8125 72.90625 
L 30.078125 72.90625 
Q 51.265625 72.90625 61.171875 64.09375 
Q 71.09375 55.28125 71.09375 36.53125 
Q 71.09375 17.671875 61.125 8.828125 
Q 51.171875 0 30.078125 0 
L 9.8125 0 
z
" id="DejaVuSans-44"/>
    </defs>
    <g transform="translate(369.18424 294.223611)scale(0.17 -0.17)">
     <use xlink:href="#DejaVuSans-34"/>
     <use x="63.623047" xlink:href="#DejaVuSans-30"/>
     <use x="127.246094" xlink:href="#DejaVuSans-2d"/>
     <use x="163.330078" xlink:href="#DejaVuSans-44"/>
    </g>
   </g>
   <g id="text_14">
    <!-- 20-D -->
    <g transform="translate(369.18424 242.889274)scale(0.17 -0.17)">
     <use xlink:href="#DejaVuSans-32"/>
     <use x="63.623047" xlink:href="#DejaVuSans-30"/>
     <use x="127.246094" xlink:href="#DejaVuSans-2d"/>
     <use x="163.330078" xlink:href="#DejaVuSans-44"/>
    </g>
   </g>
   <g id="text_15">
    <!-- 10-D -->
    <g transform="translate(369.18424 191.554937)scale(0.17 -0.17)">
     <use xlink:href="#DejaVuSans-31"/>
     <use x="63.623047" xlink:href="#DejaVuSans-30"/>
     <use x="127.246094" xlink:href="#DejaVuSans-2d"/>
     <use x="163.330078" xlink:href="#DejaVuSans-44"/>
    </g>
   </g>
   <g id="text_16">
    <!-- 5-D -->
    <defs>
     <path d="M 10.796875 72.90625 
L 49.515625 72.90625 
L 49.515625 64.59375 
L 19.828125 64.59375 
L 19.828125 46.734375 
Q 21.96875 47.46875 24.109375 47.828125 
Q 26.265625 48.1875 28.421875 48.1875 
Q 40.625 48.1875 47.75 41.5 
Q 54.890625 34.8125 54.890625 23.390625 
Q 54.890625 11.625 47.5625 5.09375 
Q 40.234375 -1.421875 26.90625 -1.421875 
Q 22.3125 -1.421875 17.546875 -0.640625 
Q 12.796875 0.140625 7.71875 1.703125 
L 7.71875 11.625 
Q 12.109375 9.234375 16.796875 8.0625 
Q 21.484375 6.890625 26.703125 6.890625 
Q 35.15625 6.890625 40.078125 11.328125 
Q 45.015625 15.765625 45.015625 23.390625 
Q 45.015625 31 40.078125 35.4375 
Q 35.15625 39.890625 26.703125 39.890625 
Q 22.75 39.890625 18.8125 39.015625 
Q 14.890625 38.140625 10.796875 36.28125 
z
" id="DejaVuSans-35"/>
    </defs>
    <g transform="translate(369.18424 140.220601)scale(0.17 -0.17)">
     <use xlink:href="#DejaVuSans-35"/>
     <use x="63.623047" xlink:href="#DejaVuSans-2d"/>
     <use x="99.707031" xlink:href="#DejaVuSans-44"/>
    </g>
   </g>
   <g id="text_17">
    <!-- 3-D -->
    <defs>
     <path d="M 40.578125 39.3125 
Q 47.65625 37.796875 51.625 33 
Q 55.609375 28.21875 55.609375 21.1875 
Q 55.609375 10.40625 48.1875 4.484375 
Q 40.765625 -1.421875 27.09375 -1.421875 
Q 22.515625 -1.421875 17.65625 -0.515625 
Q 12.796875 0.390625 7.625 2.203125 
L 7.625 11.71875 
Q 11.71875 9.328125 16.59375 8.109375 
Q 21.484375 6.890625 26.8125 6.890625 
Q 36.078125 6.890625 40.9375 10.546875 
Q 45.796875 14.203125 45.796875 21.1875 
Q 45.796875 27.640625 41.28125 31.265625 
Q 36.765625 34.90625 28.71875 34.90625 
L 20.21875 34.90625 
L 20.21875 43.015625 
L 29.109375 43.015625 
Q 36.375 43.015625 40.234375 45.921875 
Q 44.09375 48.828125 44.09375 54.296875 
Q 44.09375 59.90625 40.109375 62.90625 
Q 36.140625 65.921875 28.71875 65.921875 
Q 24.65625 65.921875 20.015625 65.03125 
Q 15.375 64.15625 9.8125 62.3125 
L 9.8125 71.09375 
Q 15.4375 72.65625 20.34375 73.4375 
Q 25.25 74.21875 29.59375 74.21875 
Q 40.828125 74.21875 47.359375 69.109375 
Q 53.90625 64.015625 53.90625 55.328125 
Q 53.90625 49.265625 50.4375 45.09375 
Q 46.96875 40.921875 40.578125 39.3125 
z
" id="DejaVuSans-33"/>
    </defs>
    <g transform="translate(369.18424 88.886264)scale(0.17 -0.17)">
     <use xlink:href="#DejaVuSans-33"/>
     <use x="63.623047" xlink:href="#DejaVuSans-2d"/>
     <use x="99.707031" xlink:href="#DejaVuSans-44"/>
    </g>
   </g>
   <g id="text_18">
    <!-- 2-D -->
    <g transform="translate(369.18424 37.551928)scale(0.17 -0.17)">
     <use xlink:href="#DejaVuSans-32"/>
     <use x="63.623047" xlink:href="#DejaVuSans-2d"/>
     <use x="99.707031" xlink:href="#DejaVuSans-44"/>
    </g>
   </g>
   <g id="text_19">
    <!-- bbob f4 -->
    <defs>
     <path d="M 48.6875 27.296875 
Q 48.6875 37.203125 44.609375 42.84375 
Q 40.53125 48.484375 33.40625 48.484375 
Q 26.265625 48.484375 22.1875 42.84375 
Q 18.109375 37.203125 18.109375 27.296875 
Q 18.109375 17.390625 22.1875 11.75 
Q 26.265625 6.109375 33.40625 6.109375 
Q 40.53125 6.109375 44.609375 11.75 
Q 48.6875 17.390625 48.6875 27.296875 
z
M 18.109375 46.390625 
Q 20.953125 51.265625 25.265625 53.625 
Q 29.59375 56 35.59375 56 
Q 45.5625 56 51.78125 48.09375 
Q 58.015625 40.1875 58.015625 27.296875 
Q 58.015625 14.40625 51.78125 6.484375 
Q 45.5625 -1.421875 35.59375 -1.421875 
Q 29.59375 -1.421875 25.265625 0.953125 
Q 20.953125 3.328125 18.109375 8.203125 
L 18.109375 0 
L 9.078125 0 
L 9.078125 75.984375 
L 18.109375 75.984375 
z
" id="DejaVuSans-62"/>
    </defs>
    <g transform="translate(58.89048 35.290806)scale(0.102 -0.102)">
     <use xlink:href="#DejaVuSans-62"/>
     <use x="63.476562" xlink:href="#DejaVuSans-62"/>
     <use x="126.953125" xlink:href="#DejaVuSans-6f"/>
     <use x="188.134766" xlink:href="#DejaVuSans-62"/>
     <use x="251.611328" xlink:href="#DejaVuSans-20"/>
     <use x="283.398438" xlink:href="#DejaVuSans-66"/>
     <use x="318.603516" xlink:href="#DejaVuSans-34"/>
    </g>
    <!-- 51 targets: 100..1e-08 -->
    <defs>
     <path d="M 11.71875 12.40625 
L 22.015625 12.40625 
L 22.015625 0 
L 11.71875 0 
z
M 11.71875 51.703125 
L 22.015625 51.703125 
L 22.015625 39.3125 
L 11.71875 39.3125 
z
" id="DejaVuSans-3a"/>
    </defs>
    <g transform="translate(58.89048 46.712575)scale(0.102 -0.102)">
     <use xlink:href="#DejaVuSans-35"/>
     <use x="63.623047" xlink:href="#DejaVuSans-31"/>
     <use x="127.246094" xlink:href="#DejaVuSans-20"/>
     <use x="159.033203" xlink:href="#DejaVuSans-74"/>
     <use x="198.242188" xlink:href="#DejaVuSans-61"/>
     <use x="259.521484" xlink:href="#DejaVuSans-72"/>
     <use x="300.619141" xlink:href="#DejaVuSans-67"/>
     <use x="364.095703" xlink:href="#DejaVuSans-65"/>
     <use x="425.619141" xlink:href="#DejaVuSans-74"/>
     <use x="464.828125" xlink:href="#DejaVuSans-73"/>
     <use x="516.927734" xlink:href="#DejaVuSans-3a"/>
     <use x="550.619141" xlink:href="#DejaVuSans-20"/>
     <use x="582.40625" xlink:href="#DejaVuSans-31"/>
     <use x="646.029297" xlink:href="#DejaVuSans-30"/>
     <use x="709.652344" xlink:href="#DejaVuSans-30"/>
     <use x="773.275391" xlink:href="#DejaVuSans-2e"/>
     <use x="805.0625" xlink:href="#DejaVuSans-2e"/>
     <use x="836.849609" xlink:href="#DejaVuSans-31"/>
     <use x="900.472656" xlink:href="#DejaVuSans-65"/>
     <use x="961.996094" xlink:href="#DejaVuSans-2d"/>
     <use x="998.080078" xlink:href="#DejaVuSans-30"/>
     <use x="1061.703125" xlink:href="#DejaVuSans-38"/>
    </g>
    <!-- 15 instances -->
    <g transform="translate(58.89048 58.134344)scale(0.102 -0.102)">
     <use xlink:href="#DejaVuSans-31"/>
     <use x="63.623047" xlink:href="#DejaVuSans-35"/>
     <use x="127.246094" xlink:href="#DejaVuSans-20"/>
     <use x="159.033203" xlink:href="#DejaVuSans-69"/>
     <use x="186.816406" xlink:href="#DejaVuSans-6e"/>
     <use x="250.195312" xlink:href="#DejaVuSans-73"/>
     <use x="302.294922" xlink:href="#DejaVuSans-74"/>
     <use x="341.503906" xlink:href="#DejaVuSans-61"/>
     <use x="402.783203" xlink:href="#DejaVuSans-6e"/>
     <use x="466.162109" xlink:href="#DejaVuSans-63"/>
     <use x="521.142578" xlink:href="#DejaVuSans-65"/>
     <use x="582.666016" xlink:href="#DejaVuSans-73"/>
    </g>
   </g>
   <g id="text_20">
    <!-- v0.0.0 -->
    <g style="fill:#808080;" transform="translate(178.96275 290.099912)scale(0.1 -0.1)">
     <use xlink:href="#DejaVuSans-76"/>
     <use x="59.179688" xlink:href="#DejaVuSans-30"/>
     <use x="122.802734" xlink:href="#DejaVuSans-2e"/>
     <use x="154.589844" xlink:href="#DejaVuSans-30"/>
     <use x="218.212891" xlink:href="#DejaVuSans-2e"/>
     <use x="250" xlink:href="#DejaVuSans-30"/>
    </g>
   </g>
   <g id="text_21">
    <!-- 4 Skew Rastrigin-Bueche separ -->
    <defs>
     <path d="M 53.515625 70.515625 
L 53.515625 60.890625 
Q 47.90625 63.578125 42.921875 64.890625 
Q 37.9375 66.21875 33.296875 66.21875 
Q 25.25 66.21875 20.875 63.09375 
Q 16.5 59.96875 16.5 54.203125 
Q 16.5 49.359375 19.40625 46.890625 
Q 22.3125 44.4375 30.421875 42.921875 
L 36.375 41.703125 
Q 47.40625 39.59375 52.65625 34.296875 
Q 57.90625 29 57.90625 20.125 
Q 57.90625 9.515625 50.796875 4.046875 
Q 43.703125 -1.421875 29.984375 -1.421875 
Q 24.8125 -1.421875 18.96875 -0.25 
Q 13.140625 0.921875 6.890625 3.21875 
L 6.890625 13.375 
Q 12.890625 10.015625 18.65625 8.296875 
Q 24.421875 6.59375 29.984375 6.59375 
Q 38.421875 6.59375 43.015625 9.90625 
Q 47.609375 13.234375 47.609375 19.390625 
Q 47.609375 24.75 44.3125 27.78125 
Q 41.015625 30.8125 33.5 32.328125 
L 27.484375 33.5 
Q 16.453125 35.6875 11.515625 40.375 
Q 6.59375 45.0625 6.59375 53.421875 
Q 6.59375 63.09375 13.40625 68.65625 
Q 20.21875 74.21875 32.171875 74.21875 
Q 37.3125 74.21875 42.625 73.28125 
Q 47.953125 72.359375 53.515625 70.515625 
z
" id="DejaVuSans-53"/>
     <path d="M 9.078125 75.984375 
L 18.109375 75.984375 
L 18.109375 31.109375 
L 44.921875 54.6875 
L 56.390625 54.6875 
L 27.390625 29.109375 
L 57.625 0 
L 45.90625 0 
L 18.109375 26.703125 
L 18.109375 0 
L 9.078125 0 
z
" id="DejaVuSans-6b"/>
     <path d="M 4.203125 54.6875 
L 13.1875 54.6875 
L 24.421875 12.015625 
L 35.59375 54.6875 
L 46.1875 54.6875 
L 57.421875 12.015625 
L 68.609375 54.6875 
L 77.59375 54.6875 
L 63.28125 0 
L 52.6875 0 
L 40.921875 44.828125 
L 29.109375 0 
L 18.5 0 
z
" id="DejaVuSans-77"/>
     <path d="M 44.390625 34.1875 
Q 47.5625 33.109375 50.5625 29.59375 
Q 53.5625 26.078125 56.59375 19.921875 
L 66.609375 0 
L 56 0 
L 46.6875 18.703125 
Q 43.0625 26.03125 39.671875 28.421875 
Q 36.28125 30.8125 30.421875 30.8125 
L 19.671875 30.8125 
L 19.671875 0 
L 9.8125 0 
L 9.8125 72.90625 
L 32.078125 72.90625 
Q 44.578125 72.90625 50.734375 67.671875 
Q 56.890625 62.453125 56.890625 51.90625 
Q 56.890625 45.015625 53.6875 40.46875 
Q 50.484375 35.9375 44.390625 34.1875 
z
M 19.671875 64.796875 
L 19.671875 38.921875 
L 32.078125 38.921875 
Q 39.203125 38.921875 42.84375 42.21875 
Q 46.484375 45.515625 46.484375 51.90625 
Q 46.484375 58.296875 42.84375 61.546875 
Q 39.203125 64.796875 32.078125 64.796875 
z
" id="DejaVuSans-52"/>
     <path d="M 19.671875 34.8125 
L 19.671875 8.109375 
L 35.5 8.109375 
Q 43.453125 8.109375 47.28125 11.40625 
Q 51.125 14.703125 51.125 21.484375 
Q 51.125 28.328125 47.28125 31.5625 
Q 43.453125 34.8125 35.5 34.8125 
z
M 19.671875 64.796875 
L 19.671875 42.828125 
L 34.28125 42.828125 
Q 41.5 42.828125 45.03125 45.53125 
Q 48.578125 48.25 48.578125 53.8125 
Q 48.578125 59.328125 45.03125 62.0625 
Q 41.5 64.796875 34.28125 64.796875 
z
M 9.8125 72.90625 
L 35.015625 72.90625 
Q 46.296875 72.90625 52.390625 68.21875 
Q 58.5 63.53125 58.5 54.890625 
Q 58.5 48.1875 55.375 44.234375 
Q 52.25 40.28125 46.1875 39.3125 
Q 53.46875 37.75 57.5 32.78125 
Q 61.53125 27.828125 61.53125 20.40625 
Q 61.53125 10.640625 54.890625 5.3125 
Q 48.25 0 35.984375 0 
L 9.8125 0 
z
" id="DejaVuSans-42"/>
     <path d="M 54.890625 33.015625 
L 54.890625 0 
L 45.90625 0 
L 45.90625 32.71875 
Q 45.90625 40.484375 42.875 44.328125 
Q 39.84375 48.1875 33.796875 48.1875 
Q 26.515625 48.1875 22.3125 43.546875 
Q 18.109375 38.921875 18.109375 30.90625 
L 18.109375 0 
L 9.078125 0 
L 9.078125 75.984375 
L 18.109375 75.984375 
L 18.109375 46.1875 
Q 21.34375 51.125 25.703125 53.5625 
Q 30.078125 56 35.796875 56 
Q 45.21875 56 50.046875 50.171875 
Q 54.890625 44.34375 54.890625 33.015625 
z
" id="DejaVuSans-68"/>
    </defs>
    <g transform="translate(38.8315 18.84)scale(0.2 -0.2)">
     <use xlink:href="#DejaVuSans-34"/>
     <use x="63.623047" xlink:href="#DejaVuSans-20"/>
     <use x="95.410156" xlink:href="#DejaVuSans-53"/>
     <use x="158.886719" xlink:href="#DejaVuSans-6b"/>
     <use x="216.75" xlink:href="#DejaVuSans-65"/>
     <use x="278.273438" xlink:href="#DejaVuSans-77"/>
     <use x="360.060547" xlink:href="#DejaVuSans-20"/>
     <use x="391.847656" xlink:href="#DejaVuSans-52"/>
     <use x="461.298828" xlink:href="#DejaVuSans-61"/>
     <use x="522.578125" xlink:href="#DejaVuSans-73"/>
     <use x="574.677734" xlink:href="#DejaVuSans-74"/>
     <use x="613.886719" xlink:href="#DejaVuSans-72"/>
     <use x="655" xlink:href="#DejaVuSans-69"/>
     <use x="682.783203" xlink:href="#DejaVuSans-67"/>
     <use x="746.259766" xlink:href="#DejaVuSans-69"/>
     <use x="774.042969" xlink:href="#DejaVuSans-6e"/>
     <use x="837.421875" xlink:href="#DejaVuSans-2d"/>
     <use x="873.458984" xlink:href="#DejaVuSans-42"/>
     <use x="942.0625" xlink:href="#DejaVuSans-75"/>
     <use x="1005.441406" xlink:href="#DejaVuSans-65"/>
     <use x="1066.964844" xlink:href="#DejaVuSans-63"/>
     <use x="1121.945312" xlink:href="#DejaVuSans-68"/>
     <use x="1185.324219" xlink:href="#DejaVuSans-65"/>
     <use x="1246.847656" xlink:href="#DejaVuSans-20"/>
     <use x="1278.634766" xlink:href="#DejaVuSans-73"/>
     <use x="1330.734375" xlink:href="#DejaVuSans-65"/>
     <use x="1392.257812" xlink:href="#DejaVuSans-70"/>
     <use x="1455.734375" xlink:href="#DejaVuSans-61"/>
     <use x="1517.013672" xlink:href="#DejaVuSans-72"/>
    </g>
   </g>
  </g>
 </g>
 <defs>
  <clipPath id="p8c13fab83a">
   <rect height="270.04" width="277.048" x="56.12" y="24.84"/>
  </clipPath>
 </defs>
</svg>
