<?xml version="1.0" encoding="utf-8" standalone="no"?>
<!DOCTYPE svg PUBLIC "-//W3C//DTD SVG 1.1//EN"
  "http://www.w3.org/Graphics/SVG/1.1/DTD/svg11.dtd">
<!-- Created with matplotlib (http://matplotlib.org/) -->
<svg height="345.6pt" version="1.1" viewBox="0 0 460.8 345.6" width="460.8pt" xmlns="http://www.w3.org/2000/svg" xmlns:xlink="http://www.w3.org/1999/xlink">
 <defs>
  <style type="text/css">
*{stroke-linecap:butt;stroke-linejoin:round;}
  </style>
 </defs>
 <g id="figure_1">
  <g id="patch_1">
   <path d="M 0 345.6 
L 460.8 345.6 
L 460.8 0 
L 0 0 
z
" style="fill:#ffffff;"/>
  </g>
  <g id="axes_1">
   <g id="patch_2">
    <path d="M 56.12 294.88 
L 333.168 294.88 
L 333.168 6.845228 
L 56.12 6.845228 
z
" style="fill:#ffffff;"/>
   </g>
   <g id="matplotlib.axis_1">
    <g id="xtick_1">
     <g id="line2d_1">
      <path clip-path="url(#peafdd8b64c)" d="M 56.12 294.88 
L 56.12 6.845228 
" style="fill:none;stroke:#b0b0b0;stroke-linecap:square;stroke-width:0.8;"/>
     </g>
     <g id="line2d_2">
      <defs>
       <path d="M 0 0 
L 0 3.5 
" id="m29ff32939f" style="stroke:#000000;stroke-width:0.8;"/>
      </defs>
      <g>
       <use style="stroke:#000000;stroke-width:0.8;" x="56.12" xlink:href="#m29ff32939f" y="294.88"/>
      </g>
     </g>
     <g id="text_1">
      <!-- 0 -->
      <defs>
       <path d="M 31.78125 66.40625 
Q 24.171875 66.40625 20.328125 58.90625 
Q 16.5 51.421875 16.5 36.375 
Q 16.5 21.390625 20.328125 13.890625 
Q 24.171875 6.390625 31.78125 6.390625 
Q 39.453125 6.390625 43.28125 13.890625 
Q 47.125 21.390625 47.125 36.375 
Q 47.125 51.421875 43.28125 58.90625 
Q 39.453125 66.40625 31.78125 66.40625 
z
M 31.78125 74.21875 
Q 44.046875 74.21875 50.515625 64.515625 
Q 56.984375 54.828125 56.984375 36.375 
Q 56.984375 17.96875 50.515625 8.265625 
Q 44.046875 -1.421875 31.78125 -1.421875 
Q 19.53125 -1.421875 13.0625 8.265625 
Q 6.59375 17.96875 6.59375 36.375 
Q 6.59375 54.828125 13.0625 64.515625 
Q 19.53125 74.21875 31.78125 74.21875 
z
" id="DejaVuSans-30"/>
      </defs>
      <g transform="translate(49.7575 317.076875)scale(0.2 -0.2)">
       <use xlink:href="#DejaVuSans-30"/>
      </g>
     </g>
    </g>
    <g id="xtick_2">
     <g id="line2d_3">
      <path clip-path="url(#peafdd8b64c)" d="M 135.276571 294.88 
L 135.276571 6.845228 
" style="fill:none;stroke:#b0b0b0;stroke-linecap:square;stroke-width:0.8;"/>
     </g>
     <g id="line2d_4">
      <g>
       <use style="stroke:#000000;stroke-width:0.8;" x="135.276571" xlink:href="#m29ff32939f" y="294.88"/>
      </g>
     </g>
     <g id="text_2">
      <!-- 2 -->
      <defs>
       <path d="M 19.1875 8.296875 
L 53.609375 8.296875 
L 53.609375 0 
L 7.328125 0 
L 7.328125 8.296875 
Q 12.9375 14.109375 22.625 23.890625 
Q 32.328125 33.6875 34.8125 36.53125 
Q 39.546875 41.84375 41.421875 45.53125 
Q 43.3125 49.21875 43.3125 52.78125 
Q 43.3125 58.59375 39.234375 62.25 
Q 35.15625 65.921875 28.609375 65.921875 
Q 23.96875 65.921875 18.8125 64.3125 
Q 13.671875 62.703125 7.8125 59.421875 
L 7.8125 69.390625 
Q 13.765625 71.78125 18.9375 73 
Q 24.125 74.21875 28.421875 74.21875 
Q 39.75 74.21875 46.484375 68.546875 
Q 53.21875 62.890625 53.21875 53.421875 
Q 53.21875 48.921875 51.53125 44.890625 
Q 49.859375 40.875 45.40625 35.40625 
Q 44.1875 33.984375 37.640625 27.21875 
Q 31.109375 20.453125 19.1875 8.296875 
z
" id="DejaVuSans-32"/>
      </defs>
      <g transform="translate(128.914071 317.076875)scale(0.2 -0.2)">
       <use xlink:href="#DejaVuSans-32"/>
      </g>
     </g>
    </g>
    <g id="xtick_3">
     <g id="line2d_5">
      <path clip-path="url(#peafdd8b64c)" d="M 214.433143 294.88 
L 214.433143 6.845228 
" style="fill:none;stroke:#b0b0b0;stroke-linecap:square;stroke-width:0.8;"/>
     </g>
     <g id="line2d_6">
      <g>
       <use style="stroke:#000000;stroke-width:0.8;" x="214.433143" xlink:href="#m29ff32939f" y="294.88"/>
      </g>
     </g>
     <g id="text_3">
      <!-- 4 -->
      <defs>
       <path d="M 37.796875 64.3125 
L 12.890625 25.390625 
L 37.796875 25.390625 
z
M 35.203125 72.90625 
L 47.609375 72.90625 
L 47.609375 25.390625 
L 58.015625 25.390625 
L 58.015625 17.1875 
L 47.609375 17.1875 
L 47.609375 0 
L 37.796875 0 
L 37.796875 17.1875 
L 4.890625 17.1875 
L 4.890625 26.703125 
z
" id="DejaVuSans-34"/>
      </defs>
      <g transform="translate(208.070643 317.076875)scale(0.2 -0.2)">
       <use xlink:href="#DejaVuSans-34"/>
      </g>
     </g>
    </g>
    <g id="xtick_4">
     <g id="line2d_7">
      <path clip-path="url(#peafdd8b64c)" d="M 293.589714 294.88 
L 293.589714 6.845228 
" style="fill:none;stroke:#b0b0b0;stroke-linecap:square;stroke-width:0.8;"/>
     </g>
     <g id="line2d_8">
      <g>
       <use style="stroke:#000000;stroke-width:0.8;" x="293.589714" xlink:href="#m29ff32939f" y="294.88"/>
      </g>
     </g>
     <g id="text_4">
      <!-- 6 -->
      <defs>
       <path d="M 33.015625 40.375 
Q 26.375 40.375 22.484375 35.828125 
Q 18.609375 31.296875 18.609375 23.390625 
Q 18.609375 15.53125 22.484375 10.953125 
Q 26.375 6.390625 33.015625 6.390625 
Q 39.65625 6.390625 43.53125 10.953125 
Q 47.40625 15.53125 47.40625 23.390625 
Q 47.40625 31.296875 43.53125 35.828125 
Q 39.65625 40.375 33.015625 40.375 
z
M 52.59375 71.296875 
L 52.59375 62.3125 
Q 48.875 64.0625 45.09375 64.984375 
Q 41.3125 65.921875 37.59375 65.921875 
Q 27.828125 65.921875 22.671875 59.328125 
Q 17.53125 52.734375 16.796875 39.40625 
Q 19.671875 43.65625 24.015625 45.921875 
Q 28.375 48.1875 33.59375 48.1875 
Q 44.578125 48.1875 50.953125 41.515625 
Q 57.328125 34.859375 57.328125 23.390625 
Q 57.328125 12.15625 50.6875 5.359375 
Q 44.046875 -1.421875 33.015625 -1.421875 
Q 20.359375 -1.421875 13.671875 8.265625 
Q 6.984375 17.96875 6.984375 36.375 
Q 6.984375 53.65625 15.1875 63.9375 
Q 23.390625 74.21875 37.203125 74.21875 
Q 40.921875 74.21875 44.703125 73.484375 
Q 48.484375 72.75 52.59375 71.296875 
z
" id="DejaVuSans-36"/>
      </defs>
      <g transform="translate(287.227214 317.076875)scale(0.2 -0.2)">
       <use xlink:href="#DejaVuSans-36"/>
      </g>
     </g>
    </g>
    <g id="xtick_5">
     <g id="line2d_9">
      <path clip-path="url(#peafdd8b64c)" d="M 56.12 294.88 
L 56.12 6.845228 
" style="fill:none;stroke:#b0b0b0;stroke-linecap:square;stroke-width:0.8;"/>
     </g>
     <g id="line2d_10">
      <defs>
       <path d="M 0 0 
L 0 2 
" id="md47c0ca83c" style="stroke:#000000;stroke-width:0.6;"/>
      </defs>
      <g>
       <use style="stroke:#000000;stroke-width:0.6;" x="56.12" xlink:href="#md47c0ca83c" y="294.88"/>
      </g>
     </g>
    </g>
    <g id="xtick_6">
     <g id="line2d_11">
      <path clip-path="url(#peafdd8b64c)" d="M 95.698286 294.88 
L 95.698286 6.845228 
" style="fill:none;stroke:#b0b0b0;stroke-linecap:square;stroke-width:0.8;"/>
     </g>
     <g id="line2d_12">
      <g>
       <use style="stroke:#000000;stroke-width:0.6;" x="95.698286" xlink:href="#md47c0ca83c" y="294.88"/>
      </g>
     </g>
    </g>
    <g id="xtick_7">
     <g id="line2d_13">
      <path clip-path="url(#peafdd8b64c)" d="M 135.276571 294.88 
L 135.276571 6.845228 
" style="fill:none;stroke:#b0b0b0;stroke-linecap:square;stroke-width:0.8;"/>
     </g>
     <g id="line2d_14">
      <g>
       <use style="stroke:#000000;stroke-width:0.6;" x="135.276571" xlink:href="#md47c0ca83c" y="294.88"/>
      </g>
     </g>
    </g>
    <g id="xtick_8">
     <g id="line2d_15">
      <path clip-path="url(#peafdd8b64c)" d="M 174.854857 294.88 
L 174.854857 6.845228 
" style="fill:none;stroke:#b0b0b0;stroke-linecap:square;stroke-width:0.8;"/>
     </g>
     <g id="line2d_16">
      <g>
       <use style="stroke:#000000;stroke-width:0.6;" x="174.854857" xlink:href="#md47c0ca83c" y="294.88"/>
      </g>
     </g>
    </g>
    <g id="xtick_9">
     <g id="line2d_17">
      <path clip-path="url(#peafdd8b64c)" d="M 214.433143 294.88 
L 214.433143 6.845228 
" style="fill:none;stroke:#b0b0b0;stroke-linecap:square;stroke-width:0.8;"/>
     </g>
     <g id="line2d_18">
      <g>
       <use style="stroke:#000000;stroke-width:0.6;" x="214.433143" xlink:href="#md47c0ca83c" y="294.88"/>
      </g>
     </g>
    </g>
    <g id="xtick_10">
     <g id="line2d_19">
      <path clip-path="url(#peafdd8b64c)" d="M 254.011429 294.88 
L 254.011429 6.845228 
" style="fill:none;stroke:#b0b0b0;stroke-linecap:square;stroke-width:0.8;"/>
     </g>
     <g id="line2d_20">
      <g>
       <use style="stroke:#000000;stroke-width:0.6;" x="254.011429" xlink:href="#md47c0ca83c" y="294.88"/>
      </g>
     </g>
    </g>
    <g id="xtick_11">
     <g id="line2d_21">
      <path clip-path="url(#peafdd8b64c)" d="M 293.589714 294.88 
L 293.589714 6.845228 
" style="fill:none;stroke:#b0b0b0;stroke-linecap:square;stroke-width:0.8;"/>
     </g>
     <g id="line2d_22">
      <g>
       <use style="stroke:#000000;stroke-width:0.6;" x="293.589714" xlink:href="#md47c0ca83c" y="294.88"/>
      </g>
     </g>
    </g>
    <g id="xtick_12">
     <g id="line2d_23">
      <path clip-path="url(#peafdd8b64c)" d="M 333.168 294.88 
L 333.168 6.845228 
" style="fill:none;stroke:#b0b0b0;stroke-linecap:square;stroke-width:0.8;"/>
     </g>
     <g id="line2d_24">
      <g>
       <use style="stroke:#000000;stroke-width:0.6;" x="333.168" xlink:href="#md47c0ca83c" y="294.88"/>
      </g>
     </g>
    </g>
    <g id="text_5">
     <!-- log10(# f-evals / dimension) -->
     <defs>
      <path d="M 9.421875 75.984375 
L 18.40625 75.984375 
L 18.40625 0 
L 9.421875 0 
z
" id="DejaVuSans-6c"/>
      <path d="M 30.609375 48.390625 
Q 23.390625 48.390625 19.1875 42.75 
Q 14.984375 37.109375 14.984375 27.296875 
Q 14.984375 17.484375 19.15625 11.84375 
Q 23.34375 6.203125 30.609375 6.203125 
Q 37.796875 6.203125 41.984375 11.859375 
Q 46.1875 17.53125 46.1875 27.296875 
Q 46.1875 37.015625 41.984375 42.703125 
Q 37.796875 48.390625 30.609375 48.390625 
z
M 30.609375 56 
Q 42.328125 56 49.015625 48.375 
Q 55.71875 40.765625 55.71875 27.296875 
Q 55.71875 13.875 49.015625 6.21875 
Q 42.328125 -1.421875 30.609375 -1.421875 
Q 18.84375 -1.421875 12.171875 6.21875 
Q 5.515625 13.875 5.515625 27.296875 
Q 5.515625 40.765625 12.171875 48.375 
Q 18.84375 56 30.609375 56 
z
" id="DejaVuSans-6f"/>
      <path d="M 45.40625 27.984375 
Q 45.40625 37.75 41.375 43.109375 
Q 37.359375 48.484375 30.078125 48.484375 
Q 22.859375 48.484375 18.828125 43.109375 
Q 14.796875 37.75 14.796875 27.984375 
Q 14.796875 18.265625 18.828125 12.890625 
Q 22.859375 7.515625 30.078125 7.515625 
Q 37.359375 7.515625 41.375 12.890625 
Q 45.40625 18.265625 45.40625 27.984375 
z
M 54.390625 6.78125 
Q 54.390625 -7.171875 48.1875 -13.984375 
Q 42 -20.796875 29.203125 -20.796875 
Q 24.46875 -20.796875 20.265625 -20.09375 
Q 16.0625 -19.390625 12.109375 -17.921875 
L 12.109375 -9.1875 
Q 16.0625 -11.328125 19.921875 -12.34375 
Q 23.78125 -13.375 27.78125 -13.375 
Q 36.625 -13.375 41.015625 -8.765625 
Q 45.40625 -4.15625 45.40625 5.171875 
L 45.40625 9.625 
Q 42.625 4.78125 38.28125 2.390625 
Q 33.9375 0 27.875 0 
Q 17.828125 0 11.671875 7.65625 
Q 5.515625 15.328125 5.515625 27.984375 
Q 5.515625 40.671875 11.671875 48.328125 
Q 17.828125 56 27.875 56 
Q 33.9375 56 38.28125 53.609375 
Q 42.625 51.21875 45.40625 46.390625 
L 45.40625 54.6875 
L 54.390625 54.6875 
z
" id="DejaVuSans-67"/>
      <path d="M 12.40625 8.296875 
L 28.515625 8.296875 
L 28.515625 63.921875 
L 10.984375 60.40625 
L 10.984375 69.390625 
L 28.421875 72.90625 
L 38.28125 72.90625 
L 38.28125 8.296875 
L 54.390625 8.296875 
L 54.390625 0 
L 12.40625 0 
z
" id="DejaVuSans-31"/>
      <path d="M 31 75.875 
Q 24.46875 64.65625 21.28125 53.65625 
Q 18.109375 42.671875 18.109375 31.390625 
Q 18.109375 20.125 21.3125 9.0625 
Q 24.515625 -2 31 -13.1875 
L 23.1875 -13.1875 
Q 15.875 -1.703125 12.234375 9.375 
Q 8.59375 20.453125 8.59375 31.390625 
Q 8.59375 42.28125 12.203125 53.3125 
Q 15.828125 64.359375 23.1875 75.875 
z
" id="DejaVuSans-28"/>
      <path d="M 51.125 44 
L 36.921875 44 
L 32.8125 27.6875 
L 47.125 27.6875 
z
M 43.796875 71.78125 
L 38.71875 51.515625 
L 52.984375 51.515625 
L 58.109375 71.78125 
L 65.921875 71.78125 
L 60.890625 51.515625 
L 76.125 51.515625 
L 76.125 44 
L 58.984375 44 
L 54.984375 27.6875 
L 70.515625 27.6875 
L 70.515625 20.21875 
L 53.078125 20.21875 
L 48 0 
L 40.1875 0 
L 45.21875 20.21875 
L 30.90625 20.21875 
L 25.875 0 
L 18.015625 0 
L 23.09375 20.21875 
L 7.71875 20.21875 
L 7.71875 27.6875 
L 24.90625 27.6875 
L 29 44 
L 13.28125 44 
L 13.28125 51.515625 
L 30.90625 51.515625 
L 35.890625 71.78125 
z
" id="DejaVuSans-23"/>
      <path id="DejaVuSans-20"/>
      <path d="M 37.109375 75.984375 
L 37.109375 68.5 
L 28.515625 68.5 
Q 23.6875 68.5 21.796875 66.546875 
Q 19.921875 64.59375 19.921875 59.515625 
L 19.921875 54.6875 
L 34.71875 54.6875 
L 34.71875 47.703125 
L 19.921875 47.703125 
L 19.921875 0 
L 10.890625 0 
L 10.890625 47.703125 
L 2.296875 47.703125 
L 2.296875 54.6875 
L 10.890625 54.6875 
L 10.890625 58.5 
Q 10.890625 67.625 15.140625 71.796875 
Q 19.390625 75.984375 28.609375 75.984375 
z
" id="DejaVuSans-66"/>
      <path d="M 4.890625 31.390625 
L 31.203125 31.390625 
L 31.203125 23.390625 
L 4.890625 23.390625 
z
" id="DejaVuSans-2d"/>
      <path d="M 56.203125 29.59375 
L 56.203125 25.203125 
L 14.890625 25.203125 
Q 15.484375 15.921875 20.484375 11.0625 
Q 25.484375 6.203125 34.421875 6.203125 
Q 39.59375 6.203125 44.453125 7.46875 
Q 49.3125 8.734375 54.109375 11.28125 
L 54.109375 2.78125 
Q 49.265625 0.734375 44.1875 -0.34375 
Q 39.109375 -1.421875 33.890625 -1.421875 
Q 20.796875 -1.421875 13.15625 6.1875 
Q 5.515625 13.8125 5.515625 26.8125 
Q 5.515625 40.234375 12.765625 48.109375 
Q 20.015625 56 32.328125 56 
Q 43.359375 56 49.78125 48.890625 
Q 56.203125 41.796875 56.203125 29.59375 
z
M 47.21875 32.234375 
Q 47.125 39.59375 43.09375 43.984375 
Q 39.0625 48.390625 32.421875 48.390625 
Q 24.90625 48.390625 20.390625 44.140625 
Q 15.875 39.890625 15.1875 32.171875 
z
" id="DejaVuSans-65"/>
      <path d="M 2.984375 54.6875 
L 12.5 54.6875 
L 29.59375 8.796875 
L 46.6875 54.6875 
L 56.203125 54.6875 
L 35.6875 0 
L 23.484375 0 
z
" id="DejaVuSans-76"/>
      <path d="M 34.28125 27.484375 
Q 23.390625 27.484375 19.1875 25 
Q 14.984375 22.515625 14.984375 16.5 
Q 14.984375 11.71875 18.140625 8.90625 
Q 21.296875 6.109375 26.703125 6.109375 
Q 34.1875 6.109375 38.703125 11.40625 
Q 43.21875 16.703125 43.21875 25.484375 
L 43.21875 27.484375 
z
M 52.203125 31.203125 
L 52.203125 0 
L 43.21875 0 
L 43.21875 8.296875 
Q 40.140625 3.328125 35.546875 0.953125 
Q 30.953125 -1.421875 24.3125 -1.421875 
Q 15.921875 -1.421875 10.953125 3.296875 
Q 6 8.015625 6 15.921875 
Q 6 25.140625 12.171875 29.828125 
Q 18.359375 34.515625 30.609375 34.515625 
L 43.21875 34.515625 
L 43.21875 35.40625 
Q 43.21875 41.609375 39.140625 45 
Q 35.0625 48.390625 27.6875 48.390625 
Q 23 48.390625 18.546875 47.265625 
Q 14.109375 46.140625 10.015625 43.890625 
L 10.015625 52.203125 
Q 14.9375 54.109375 19.578125 55.046875 
Q 24.21875 56 28.609375 56 
Q 40.484375 56 46.34375 49.84375 
Q 52.203125 43.703125 52.203125 31.203125 
z
" id="DejaVuSans-61"/>
      <path d="M 44.28125 53.078125 
L 44.28125 44.578125 
Q 40.484375 46.53125 36.375 47.5 
Q 32.28125 48.484375 27.875 48.484375 
Q 21.1875 48.484375 17.84375 46.4375 
Q 14.5 44.390625 14.5 40.28125 
Q 14.5 37.15625 16.890625 35.375 
Q 19.28125 33.59375 26.515625 31.984375 
L 29.59375 31.296875 
Q 39.15625 29.25 43.1875 25.515625 
Q 47.21875 21.78125 47.21875 15.09375 
Q 47.21875 7.46875 41.1875 3.015625 
Q 35.15625 -1.421875 24.609375 -1.421875 
Q 20.21875 -1.421875 15.453125 -0.5625 
Q 10.6875 0.296875 5.421875 2 
L 5.421875 11.28125 
Q 10.40625 8.6875 15.234375 7.390625 
Q 20.0625 6.109375 24.8125 6.109375 
Q 31.15625 6.109375 34.5625 8.28125 
Q 37.984375 10.453125 37.984375 14.40625 
Q 37.984375 18.0625 35.515625 20.015625 
Q 33.0625 21.96875 24.703125 23.78125 
L 21.578125 24.515625 
Q 13.234375 26.265625 9.515625 29.90625 
Q 5.8125 33.546875 5.8125 39.890625 
Q 5.8125 47.609375 11.28125 51.796875 
Q 16.75 56 26.8125 56 
Q 31.78125 56 36.171875 55.265625 
Q 40.578125 54.546875 44.28125 53.078125 
z
" id="DejaVuSans-73"/>
      <path d="M 25.390625 72.90625 
L 33.6875 72.90625 
L 8.296875 -9.28125 
L 0 -9.28125 
z
" id="DejaVuSans-2f"/>
      <path d="M 45.40625 46.390625 
L 45.40625 75.984375 
L 54.390625 75.984375 
L 54.390625 0 
L 45.40625 0 
L 45.40625 8.203125 
Q 42.578125 3.328125 38.25 0.953125 
Q 33.9375 -1.421875 27.875 -1.421875 
Q 17.96875 -1.421875 11.734375 6.484375 
Q 5.515625 14.40625 5.515625 27.296875 
Q 5.515625 40.1875 11.734375 48.09375 
Q 17.96875 56 27.875 56 
Q 33.9375 56 38.25 53.625 
Q 42.578125 51.265625 45.40625 46.390625 
z
M 14.796875 27.296875 
Q 14.796875 17.390625 18.875 11.75 
Q 22.953125 6.109375 30.078125 6.109375 
Q 37.203125 6.109375 41.296875 11.75 
Q 45.40625 17.390625 45.40625 27.296875 
Q 45.40625 37.203125 41.296875 42.84375 
Q 37.203125 48.484375 30.078125 48.484375 
Q 22.953125 48.484375 18.875 42.84375 
Q 14.796875 37.203125 14.796875 27.296875 
z
" id="DejaVuSans-64"/>
      <path d="M 9.421875 54.6875 
L 18.40625 54.6875 
L 18.40625 0 
L 9.421875 0 
z
M 9.421875 75.984375 
L 18.40625 75.984375 
L 18.40625 64.59375 
L 9.421875 64.59375 
z
" id="DejaVuSans-69"/>
      <path d="M 52 44.1875 
Q 55.375 50.25 60.0625 53.125 
Q 64.75 56 71.09375 56 
Q 79.640625 56 84.28125 50.015625 
Q 88.921875 44.046875 88.921875 33.015625 
L 88.921875 0 
L 79.890625 0 
L 79.890625 32.71875 
Q 79.890625 40.578125 77.09375 44.375 
Q 74.3125 48.1875 68.609375 48.1875 
Q 61.625 48.1875 57.5625 43.546875 
Q 53.515625 38.921875 53.515625 30.90625 
L 53.515625 0 
L 44.484375 0 
L 44.484375 32.71875 
Q 44.484375 40.625 41.703125 44.40625 
Q 38.921875 48.1875 33.109375 48.1875 
Q 26.21875 48.1875 22.15625 43.53125 
Q 18.109375 38.875 18.109375 30.90625 
L 18.109375 0 
L 9.078125 0 
L 9.078125 54.6875 
L 18.109375 54.6875 
L 18.109375 46.1875 
Q 21.1875 51.21875 25.484375 53.609375 
Q 29.78125 56 35.6875 56 
Q 41.65625 56 45.828125 52.96875 
Q 50 49.953125 52 44.1875 
z
" id="DejaVuSans-6d"/>
      <path d="M 54.890625 33.015625 
L 54.890625 0 
L 45.90625 0 
L 45.90625 32.71875 
Q 45.90625 40.484375 42.875 44.328125 
Q 39.84375 48.1875 33.796875 48.1875 
Q 26.515625 48.1875 22.3125 43.546875 
Q 18.109375 38.921875 18.109375 30.90625 
L 18.109375 0 
L 9.078125 0 
L 9.078125 54.6875 
L 18.109375 54.6875 
L 18.109375 46.1875 
Q 21.34375 51.125 25.703125 53.5625 
Q 30.078125 56 35.796875 56 
Q 45.21875 56 50.046875 50.171875 
Q 54.890625 44.34375 54.890625 33.015625 
z
" id="DejaVuSans-6e"/>
      <path d="M 8.015625 75.875 
L 15.828125 75.875 
Q 23.140625 64.359375 26.78125 53.3125 
Q 30.421875 42.28125 30.421875 31.390625 
Q 30.421875 20.453125 26.78125 9.375 
Q 23.140625 -1.703125 15.828125 -13.1875 
L 8.015625 -13.1875 
Q 14.5 -2 17.703125 9.0625 
Q 20.90625 20.125 20.90625 31.390625 
Q 20.90625 42.671875 17.703125 53.65625 
Q 14.5 64.65625 8.015625 75.875 
z
" id="DejaVuSans-29"/>
     </defs>
     <g transform="translate(73.803219 338.153594)scale(0.17 -0.17)">
      <use xlink:href="#DejaVuSans-6c"/>
      <use x="27.783203" xlink:href="#DejaVuSans-6f"/>
      <use x="88.964844" xlink:href="#DejaVuSans-67"/>
      <use x="152.441406" xlink:href="#DejaVuSans-31"/>
      <use x="216.064453" xlink:href="#DejaVuSans-30"/>
      <use x="279.6875" xlink:href="#DejaVuSans-28"/>
      <use x="318.701172" xlink:href="#DejaVuSans-23"/>
      <use x="402.490234" xlink:href="#DejaVuSans-20"/>
      <use x="434.277344" xlink:href="#DejaVuSans-66"/>
      <use x="469.404297" xlink:href="#DejaVuSans-2d"/>
      <use x="505.488281" xlink:href="#DejaVuSans-65"/>
      <use x="567.011719" xlink:href="#DejaVuSans-76"/>
      <use x="626.191406" xlink:href="#DejaVuSans-61"/>
      <use x="687.470703" xlink:href="#DejaVuSans-6c"/>
      <use x="715.253906" xlink:href="#DejaVuSans-73"/>
      <use x="767.353516" xlink:href="#DejaVuSans-20"/>
      <use x="799.140625" xlink:href="#DejaVuSans-2f"/>
      <use x="832.832031" xlink:href="#DejaVuSans-20"/>
      <use x="864.619141" xlink:href="#DejaVuSans-64"/>
      <use x="928.095703" xlink:href="#DejaVuSans-69"/>
      <use x="955.878906" xlink:href="#DejaVuSans-6d"/>
      <use x="1053.291016" xlink:href="#DejaVuSans-65"/>
      <use x="1114.814453" xlink:href="#DejaVuSans-6e"/>
      <use x="1178.193359" xlink:href="#DejaVuSans-73"/>
      <use x="1230.292969" xlink:href="#DejaVuSans-69"/>
      <use x="1258.076172" xlink:href="#DejaVuSans-6f"/>
      <use x="1319.257812" xlink:href="#DejaVuSans-6e"/>
      <use x="1382.636719" xlink:href="#DejaVuSans-29"/>
     </g>
    </g>
   </g>
   <g id="matplotlib.axis_2">
    <g id="ytick_1">
     <g id="line2d_25">
      <path clip-path="url(#peafdd8b64c)" d="M 56.12 294.88 
L 333.168 294.88 
" style="fill:none;stroke:#b0b0b0;stroke-linecap:square;stroke-width:0.8;"/>
     </g>
     <g id="line2d_26">
      <defs>
       <path d="M 0 0 
L -3.5 0 
" id="m44cf292dba" style="stroke:#000000;stroke-width:0.8;"/>
      </defs>
      <g>
       <use style="stroke:#000000;stroke-width:0.8;" x="56.12" xlink:href="#m44cf292dba" y="294.88"/>
      </g>
     </g>
     <g id="text_6">
      <!-- 0.0 -->
      <defs>
       <path d="M 10.6875 12.40625 
L 21 12.40625 
L 21 0 
L 10.6875 0 
z
" id="DejaVuSans-2e"/>
      </defs>
      <g transform="translate(23.675 300.95875)scale(0.16 -0.16)">
       <use xlink:href="#DejaVuSans-30"/>
       <use x="63.623047" xlink:href="#DejaVuSans-2e"/>
       <use x="95.410156" xlink:href="#DejaVuSans-30"/>
      </g>
     </g>
    </g>
    <g id="ytick_2">
     <g id="line2d_27">
      <path clip-path="url(#peafdd8b64c)" d="M 56.12 237.843411 
L 333.168 237.843411 
" style="fill:none;stroke:#b0b0b0;stroke-linecap:square;stroke-width:0.8;"/>
     </g>
     <g id="line2d_28">
      <g>
       <use style="stroke:#000000;stroke-width:0.8;" x="56.12" xlink:href="#m44cf292dba" y="237.843411"/>
      </g>
     </g>
     <g id="text_7">
      <!-- 0.2 -->
      <g transform="translate(23.675 243.922161)scale(0.16 -0.16)">
       <use xlink:href="#DejaVuSans-30"/>
       <use x="63.623047" xlink:href="#DejaVuSans-2e"/>
       <use x="95.410156" xlink:href="#DejaVuSans-32"/>
      </g>
     </g>
    </g>
    <g id="ytick_3">
     <g id="line2d_29">
      <path clip-path="url(#peafdd8b64c)" d="M 56.12 180.806823 
L 333.168 180.806823 
" style="fill:none;stroke:#b0b0b0;stroke-linecap:square;stroke-width:0.8;"/>
     </g>
     <g id="line2d_30">
      <g>
       <use style="stroke:#000000;stroke-width:0.8;" x="56.12" xlink:href="#m44cf292dba" y="180.806823"/>
      </g>
     </g>
     <g id="text_8">
      <!-- 0.4 -->
      <g transform="translate(23.675 186.885573)scale(0.16 -0.16)">
       <use xlink:href="#DejaVuSans-30"/>
       <use x="63.623047" xlink:href="#DejaVuSans-2e"/>
       <use x="95.410156" xlink:href="#DejaVuSans-34"/>
      </g>
     </g>
    </g>
    <g id="ytick_4">
     <g id="line2d_31">
      <path clip-path="url(#peafdd8b64c)" d="M 56.12 123.770234 
L 333.168 123.770234 
" style="fill:none;stroke:#b0b0b0;stroke-linecap:square;stroke-width:0.8;"/>
     </g>
     <g id="line2d_32">
      <g>
       <use style="stroke:#000000;stroke-width:0.8;" x="56.12" xlink:href="#m44cf292dba" y="123.770234"/>
      </g>
     </g>
     <g id="text_9">
      <!-- 0.6 -->
      <g transform="translate(23.675 129.848984)scale(0.16 -0.16)">
       <use xlink:href="#DejaVuSans-30"/>
       <use x="63.623047" xlink:href="#DejaVuSans-2e"/>
       <use x="95.410156" xlink:href="#DejaVuSans-36"/>
      </g>
     </g>
    </g>
    <g id="ytick_5">
     <g id="line2d_33">
      <path clip-path="url(#peafdd8b64c)" d="M 56.12 66.733646 
L 333.168 66.733646 
" style="fill:none;stroke:#b0b0b0;stroke-linecap:square;stroke-width:0.8;"/>
     </g>
     <g id="line2d_34">
      <g>
       <use style="stroke:#000000;stroke-width:0.8;" x="56.12" xlink:href="#m44cf292dba" y="66.733646"/>
      </g>
     </g>
     <g id="text_10">
      <!-- 0.8 -->
      <defs>
       <path d="M 31.78125 34.625 
Q 24.75 34.625 20.71875 30.859375 
Q 16.703125 27.09375 16.703125 20.515625 
Q 16.703125 13.921875 20.71875 10.15625 
Q 24.75 6.390625 31.78125 6.390625 
Q 38.8125 6.390625 42.859375 10.171875 
Q 46.921875 13.96875 46.921875 20.515625 
Q 46.921875 27.09375 42.890625 30.859375 
Q 38.875 34.625 31.78125 34.625 
z
M 21.921875 38.8125 
Q 15.578125 40.375 12.03125 44.71875 
Q 8.5 49.078125 8.5 55.328125 
Q 8.5 64.0625 14.71875 69.140625 
Q 20.953125 74.21875 31.78125 74.21875 
Q 42.671875 74.21875 48.875 69.140625 
Q 55.078125 64.0625 55.078125 55.328125 
Q 55.078125 49.078125 51.53125 44.71875 
Q 48 40.375 41.703125 38.8125 
Q 48.828125 37.15625 52.796875 32.3125 
Q 56.78125 27.484375 56.78125 20.515625 
Q 56.78125 9.90625 50.3125 4.234375 
Q 43.84375 -1.421875 31.78125 -1.421875 
Q 19.734375 -1.421875 13.25 4.234375 
Q 6.78125 9.90625 6.78125 20.515625 
Q 6.78125 27.484375 10.78125 32.3125 
Q 14.796875 37.15625 21.921875 38.8125 
z
M 18.3125 54.390625 
Q 18.3125 48.734375 21.84375 45.5625 
Q 25.390625 42.390625 31.78125 42.390625 
Q 38.140625 42.390625 41.71875 45.5625 
Q 45.3125 48.734375 45.3125 54.390625 
Q 45.3125 60.0625 41.71875 63.234375 
Q 38.140625 66.40625 31.78125 66.40625 
Q 25.390625 66.40625 21.84375 63.234375 
Q 18.3125 60.0625 18.3125 54.390625 
z
" id="DejaVuSans-38"/>
      </defs>
      <g transform="translate(23.675 72.812396)scale(0.16 -0.16)">
       <use xlink:href="#DejaVuSans-30"/>
       <use x="63.623047" xlink:href="#DejaVuSans-2e"/>
       <use x="95.410156" xlink:href="#DejaVuSans-38"/>
      </g>
     </g>
    </g>
    <g id="ytick_6">
     <g id="line2d_35">
      <path clip-path="url(#peafdd8b64c)" d="M 56.12 9.697057 
L 333.168 9.697057 
" style="fill:none;stroke:#b0b0b0;stroke-linecap:square;stroke-width:0.8;"/>
     </g>
     <g id="line2d_36">
      <g>
       <use style="stroke:#000000;stroke-width:0.8;" x="56.12" xlink:href="#m44cf292dba" y="9.697057"/>
      </g>
     </g>
     <g id="text_11">
      <!-- 1.0 -->
      <g transform="translate(23.675 15.775807)scale(0.16 -0.16)">
       <use xlink:href="#DejaVuSans-31"/>
       <use x="63.623047" xlink:href="#DejaVuSans-2e"/>
       <use x="95.410156" xlink:href="#DejaVuSans-30"/>
      </g>
     </g>
    </g>
    <g id="text_12">
     <!-- Fraction of function,target pairs -->
     <defs>
      <path d="M 9.8125 72.90625 
L 51.703125 72.90625 
L 51.703125 64.59375 
L 19.671875 64.59375 
L 19.671875 43.109375 
L 48.578125 43.109375 
L 48.578125 34.8125 
L 19.671875 34.8125 
L 19.671875 0 
L 9.8125 0 
z
" id="DejaVuSans-46"/>
      <path d="M 41.109375 46.296875 
Q 39.59375 47.171875 37.8125 47.578125 
Q 36.03125 48 33.890625 48 
Q 26.265625 48 22.1875 43.046875 
Q 18.109375 38.09375 18.109375 28.8125 
L 18.109375 0 
L 9.078125 0 
L 9.078125 54.6875 
L 18.109375 54.6875 
L 18.109375 46.1875 
Q 20.953125 51.171875 25.484375 53.578125 
Q 30.03125 56 36.53125 56 
Q 37.453125 56 38.578125 55.875 
Q 39.703125 55.765625 41.0625 55.515625 
z
" id="DejaVuSans-72"/>
      <path d="M 48.78125 52.59375 
L 48.78125 44.1875 
Q 44.96875 46.296875 41.140625 47.34375 
Q 37.3125 48.390625 33.40625 48.390625 
Q 24.65625 48.390625 19.8125 42.84375 
Q 14.984375 37.3125 14.984375 27.296875 
Q 14.984375 17.28125 19.8125 11.734375 
Q 24.65625 6.203125 33.40625 6.203125 
Q 37.3125 6.203125 41.140625 7.25 
Q 44.96875 8.296875 48.78125 10.40625 
L 48.78125 2.09375 
Q 45.015625 0.34375 40.984375 -0.53125 
Q 36.96875 -1.421875 32.421875 -1.421875 
Q 20.0625 -1.421875 12.78125 6.34375 
Q 5.515625 14.109375 5.515625 27.296875 
Q 5.515625 40.671875 12.859375 48.328125 
Q 20.21875 56 33.015625 56 
Q 37.15625 56 41.109375 55.140625 
Q 45.0625 54.296875 48.78125 52.59375 
z
" id="DejaVuSans-63"/>
      <path d="M 18.3125 70.21875 
L 18.3125 54.6875 
L 36.8125 54.6875 
L 36.8125 47.703125 
L 18.3125 47.703125 
L 18.3125 18.015625 
Q 18.3125 11.328125 20.140625 9.421875 
Q 21.96875 7.515625 27.59375 7.515625 
L 36.8125 7.515625 
L 36.8125 0 
L 27.59375 0 
Q 17.1875 0 13.234375 3.875 
Q 9.28125 7.765625 9.28125 18.015625 
L 9.28125 47.703125 
L 2.6875 47.703125 
L 2.6875 54.6875 
L 9.28125 54.6875 
L 9.28125 70.21875 
z
" id="DejaVuSans-74"/>
      <path d="M 8.5 21.578125 
L 8.5 54.6875 
L 17.484375 54.6875 
L 17.484375 21.921875 
Q 17.484375 14.15625 20.5 10.265625 
Q 23.53125 6.390625 29.59375 6.390625 
Q 36.859375 6.390625 41.078125 11.03125 
Q 45.3125 15.671875 45.3125 23.6875 
L 45.3125 54.6875 
L 54.296875 54.6875 
L 54.296875 0 
L 45.3125 0 
L 45.3125 8.40625 
Q 42.046875 3.421875 37.71875 1 
Q 33.40625 -1.421875 27.6875 -1.421875 
Q 18.265625 -1.421875 13.375 4.4375 
Q 8.5 10.296875 8.5 21.578125 
z
M 31.109375 56 
z
" id="DejaVuSans-75"/>
      <path d="M 11.71875 12.40625 
L 22.015625 12.40625 
L 22.015625 4 
L 14.015625 -11.625 
L 7.71875 -11.625 
L 11.71875 4 
z
" id="DejaVuSans-2c"/>
      <path d="M 18.109375 8.203125 
L 18.109375 -20.796875 
L 9.078125 -20.796875 
L 9.078125 54.6875 
L 18.109375 54.6875 
L 18.109375 46.390625 
Q 20.953125 51.265625 25.265625 53.625 
Q 29.59375 56 35.59375 56 
Q 45.5625 56 51.78125 48.09375 
Q 58.015625 40.1875 58.015625 27.296875 
Q 58.015625 14.40625 51.78125 6.484375 
Q 45.5625 -1.421875 35.59375 -1.421875 
Q 29.59375 -1.421875 25.265625 0.953125 
Q 20.953125 3.328125 18.109375 8.203125 
z
M 48.6875 27.296875 
Q 48.6875 37.203125 44.609375 42.84375 
Q 40.53125 48.484375 33.40625 48.484375 
Q 26.265625 48.484375 22.1875 42.84375 
Q 18.109375 37.203125 18.109375 27.296875 
Q 18.109375 17.390625 22.1875 11.75 
Q 26.265625 6.109375 33.40625 6.109375 
Q 40.53125 6.109375 44.609375 11.75 
Q 48.6875 17.390625 48.6875 27.296875 
z
" id="DejaVuSans-70"/>
     </defs>
     <g transform="translate(16.139531 286.001989)rotate(-90)scale(0.17 -0.17)">
      <use xlink:href="#DejaVuSans-46"/>
      <use x="57.410156" xlink:href="#DejaVuSans-72"/>
      <use x="98.523438" xlink:href="#DejaVuSans-61"/>
      <use x="159.802734" xlink:href="#DejaVuSans-63"/>
      <use x="214.783203" xlink:href="#DejaVuSans-74"/>
      <use x="253.992188" xlink:href="#DejaVuSans-69"/>
      <use x="281.775391" xlink:href="#DejaVuSans-6f"/>
      <use x="342.957031" xlink:href="#DejaVuSans-6e"/>
      <use x="406.335938" xlink:href="#DejaVuSans-20"/>
      <use x="438.123047" xlink:href="#DejaVuSans-6f"/>
      <use x="499.304688" xlink:href="#DejaVuSans-66"/>
      <use x="534.509766" xlink:href="#DejaVuSans-20"/>
      <use x="566.296875" xlink:href="#DejaVuSans-66"/>
      <use x="601.501953" xlink:href="#DejaVuSans-75"/>
      <use x="664.880859" xlink:href="#DejaVuSans-6e"/>
      <use x="728.259766" xlink:href="#DejaVuSans-63"/>
      <use x="783.240234" xlink:href="#DejaVuSans-74"/>
      <use x="822.449219" xlink:href="#DejaVuSans-69"/>
      <use x="850.232422" xlink:href="#DejaVuSans-6f"/>
      <use x="911.414062" xlink:href="#DejaVuSans-6e"/>
      <use x="974.792969" xlink:href="#DejaVuSans-2c"/>
      <use x="1006.580078" xlink:href="#DejaVuSans-74"/>
      <use x="1045.789062" xlink:href="#DejaVuSans-61"/>
      <use x="1107.068359" xlink:href="#DejaVuSans-72"/>
      <use x="1148.166016" xlink:href="#DejaVuSans-67"/>
      <use x="1211.642578" xlink:href="#DejaVuSans-65"/>
      <use x="1273.166016" xlink:href="#DejaVuSans-74"/>
      <use x="1312.375" xlink:href="#DejaVuSans-20"/>
      <use x="1344.162109" xlink:href="#DejaVuSans-70"/>
      <use x="1407.638672" xlink:href="#DejaVuSans-61"/>
      <use x="1468.917969" xlink:href="#DejaVuSans-69"/>
      <use x="1496.701172" xlink:href="#DejaVuSans-72"/>
      <use x="1537.814453" xlink:href="#DejaVuSans-73"/>
     </g>
    </g>
   </g>
   <g id="line2d_37">
    <defs>
     <path d="M 0 1.5 
C 0.397805 1.5 0.77937 1.341951 1.06066 1.06066 
C 1.341951 0.77937 1.5 0.397805 1.5 0 
C 1.5 -0.397805 1.341951 -0.77937 1.06066 -1.06066 
C 0.77937 -1.341951 0.397805 -1.5 0 -1.5 
C -0.397805 -1.5 -0.77937 -1.341951 -1.06066 -1.06066 
C -1.341951 -0.77937 -1.5 -0.397805 -1.5 0 
C -1.5 0.397805 -1.341951 0.77937 -1.06066 1.06066 
C -0.77937 1.341951 -0.397805 1.5 0 1.5 
z
" id="maa2d3246c7" style="stroke:#000080;"/>
    </defs>
    <g>
     <use style="fill:#000080;stroke:#000080;" x="235.992187" xlink:href="#maa2d3246c7" y="9.697057"/>
     <use style="fill:#000080;stroke:#000080;" x="235.992187" xlink:href="#maa2d3246c7" y="9.697057"/>
    </g>
   </g>
   <g id="line2d_38">
    <path d="M 44.205749 294.88 
L 44.205749 292.084089 
L 56.12 292.084089 
L 56.12 288.728995 
L 63.08939 288.728995 
L 63.08939 284.81472 
L 68.034251 284.81472 
L 68.034251 284.255537 
L 71.869783 284.255537 
L 71.869783 283.696355 
L 77.653281 283.696355 
L 77.653281 283.137173 
L 79.948502 283.137173 
L 79.948502 282.577991 
L 81.973032 282.577991 
L 81.973032 281.459626 
L 88.293717 281.459626 
L 88.293717 280.341262 
L 89.567532 280.341262 
L 89.567532 276.426986 
L 91.862754 276.426986 
L 91.862754 275.308622 
L 92.904808 275.308622 
L 92.904808 269.157617 
L 103.231288 269.157617 
L 103.231288 268.039252 
L 106.272485 268.039252 
L 106.272485 265.802523 
L 107.177358 265.802523 
L 107.177358 264.684159 
L 108.85563 264.684159 
L 108.85563 262.44743 
L 110.014853 262.44743 
L 110.014853 261.329066 
L 110.746395 261.329066 
L 110.746395 260.210701 
L 113.999206 260.210701 
L 113.999206 259.092337 
L 119.310576 259.092337 
L 119.310576 258.533154 
L 122.480659 258.533154 
L 122.480659 257.41479 
L 126.496178 257.41479 
L 126.496178 256.296425 
L 127.197852 256.296425 
L 127.197852 255.737243 
L 128.773486 255.737243 
L 128.773486 254.059696 
L 130.216736 254.059696 
L 130.216736 253.500514 
L 132.073821 253.500514 
L 132.073821 252.941332 
L 132.279675 252.941332 
L 132.279675 251.822967 
L 137.453213 251.822967 
L 137.453213 250.704603 
L 146.39939 250.704603 
L 146.39939 249.586238 
L 146.533852 249.586238 
L 146.533852 247.908692 
L 146.843566 247.908692 
L 146.93104 246.231145 
L 147.104664 246.231145 
L 147.104664 245.112781 
L 147.233741 245.112781 
L 147.233741 244.553598 
L 147.404349 244.553598 
L 147.404349 243.994416 
L 147.823604 243.994416 
L 147.823604 242.876052 
L 148.711478 242.876052 
L 148.711478 242.316869 
L 151.634268 242.316869 
L 151.634268 240.639323 
L 151.995456 240.639323 
L 151.995456 240.08014 
L 153.30868 240.08014 
L 153.30868 239.520958 
L 153.518118 239.520958 
L 153.518118 238.961776 
L 155.456522 238.961776 
L 155.456522 237.843411 
L 156.311596 237.843411 
L 156.311596 236.725047 
L 156.43752 236.725047 
L 156.43752 235.0475 
L 157.077859 235.0475 
L 157.150232 232.251589 
L 157.270181 232.251589 
L 157.270181 231.692407 
L 157.788234 231.692407 
L 157.788234 231.133225 
L 158.018648 231.133225 
L 158.018648 230.574042 
L 158.313642 230.574042 
L 158.313642 228.896496 
L 160.762847 228.896496 
L 160.762847 228.337313 
L 161.822107 228.337313 
L 161.822107 226.659767 
L 162.61088 226.659767 
L 162.61088 226.100584 
L 162.733095 226.100584 
L 162.733095 225.541402 
L 163.431985 225.541402 
L 163.431985 224.423038 
L 164.215648 224.423038 
L 164.279369 222.745491 
L 164.594476 222.745491 
L 164.594476 221.627126 
L 165.026142 221.627126 
L 165.086933 218.272033 
L 166.045792 218.272033 
L 166.045792 217.153669 
L 166.231309 217.153669 
L 166.231309 215.476122 
L 167.463505 215.476122 
L 167.542594 212.680211 
L 167.647483 212.680211 
L 167.699689 211.002664 
L 169.597782 211.002664 
L 169.597782 210.443482 
L 169.748816 210.443482 
L 169.748816 208.765935 
L 169.967196 208.765935 
L 169.967196 206.529206 
L 170.406943 206.529206 
L 170.406943 205.970024 
L 171.745046 205.970024 
L 171.786192 202.055748 
L 172.262418 202.055748 
L 172.262418 200.937384 
L 172.480879 200.937384 
L 172.480879 200.378201 
L 173.082009 200.378201 
L 173.158065 198.700655 
L 173.33736 198.700655 
L 173.33736 197.58229 
L 173.718004 197.58229 
L 173.791304 194.227197 
L 174.108362 194.227197 
L 174.108362 193.668014 
L 174.690785 193.668014 
L 174.690785 193.108832 
L 175.791434 193.108832 
L 175.791434 192.54965 
L 176.001745 192.54965 
L 176.001745 191.990468 
L 177.001184 191.990468 
L 177.001184 191.431285 
L 177.590225 191.431285 
L 177.656068 190.312921 
L 177.794247 190.312921 
L 177.794247 189.753739 
L 178.237572 189.753739 
L 178.237572 188.076192 
L 178.503742 188.076192 
L 178.503742 187.51701 
L 178.662865 187.51701 
L 178.662865 185.839463 
L 178.997033 185.839463 
L 178.997033 184.161916 
L 179.397563 184.161916 
L 179.417347 182.48437 
L 179.515924 182.48437 
L 179.515924 181.366005 
L 179.923886 181.366005 
L 179.923886 180.806823 
L 180.045046 180.806823 
L 180.05775 178.570094 
L 180.384803 178.570094 
L 180.384803 178.010912 
L 180.601482 178.010912 
L 180.607633 176.892547 
L 180.978734 176.892547 
L 180.978734 175.774183 
L 181.14643 175.774183 
L 181.14643 174.655818 
L 181.271136 174.655818 
L 181.271136 174.096636 
L 181.932765 174.096636 
L 182.040603 172.978271 
L 182.142144 172.978271 
L 182.142144 172.419089 
L 182.410024 172.419089 
L 182.410024 167.945631 
L 182.536919 167.945631 
L 182.536919 167.386449 
L 182.679246 167.386449 
L 182.782514 165.14972 
L 182.793348 165.14972 
L 182.836617 163.472173 
L 182.976494 163.472173 
L 182.976494 162.912991 
L 183.368486 162.912991 
L 183.384191 161.235444 
L 183.612891 161.235444 
L 183.659298 157.321169 
L 185.354566 157.321169 
L 185.354566 156.202804 
L 185.530956 156.202804 
L 185.530956 155.08444 
L 185.977676 155.08444 
L 185.977676 153.966075 
L 186.147818 153.966075 
L 186.147818 152.847711 
L 186.329522 152.847711 
L 186.329522 152.288529 
L 186.474389 152.288529 
L 186.474389 151.729346 
L 186.743306 151.729346 
L 186.743306 150.610982 
L 187.033488 150.610982 
L 187.033488 150.0518 
L 187.210302 150.0518 
L 187.210302 149.492617 
L 187.591367 149.492617 
L 187.689401 147.255888 
L 187.782829 147.255888 
L 187.782829 146.696706 
L 187.976188 146.696706 
L 187.976188 146.137524 
L 188.167396 146.137524 
L 188.266147 142.78243 
L 188.724745 142.78243 
L 188.724745 141.104884 
L 188.877466 141.104884 
L 188.877466 137.74979 
L 189.055196 137.74979 
L 189.152731 135.513061 
L 189.234831 135.513061 
L 189.234831 134.394697 
L 189.69038 134.394697 
L 189.69038 132.71715 
L 189.910127 132.71715 
L 189.988695 129.362057 
L 190.120029 129.362057 
L 190.120029 126.006963 
L 190.456179 126.006963 
L 190.501198 124.329417 
L 191.008938 124.329417 
L 191.008938 122.65187 
L 191.361231 122.65187 
L 191.361231 120.974323 
L 191.586733 120.974323 
L 191.677405 115.941683 
L 191.905199 115.941683 
L 191.978349 110.909043 
L 192.079608 110.909043 
L 192.079608 110.349861 
L 192.286589 110.349861 
L 192.364345 108.113132 
L 193.288623 108.113132 
L 193.33561 106.435585 
L 193.571533 106.435585 
L 193.64946 104.198856 
L 193.807116 104.198856 
L 193.869775 100.28458 
L 194.090109 100.28458 
L 194.185275 94.133576 
L 194.338114 94.133576 
L 194.338114 90.778482 
L 194.756269 90.778482 
L 194.756269 89.100935 
L 194.89878 89.100935 
L 194.89878 88.541753 
L 195.37675 88.541753 
L 195.45211 85.745842 
L 195.552939 85.745842 
L 195.552939 84.627477 
L 196.060914 84.627477 
L 196.060914 83.509113 
L 196.5251 83.509113 
L 196.5251 82.949931 
L 196.836509 82.949931 
L 196.836509 81.831566 
L 196.979451 81.831566 
L 197.005529 79.594837 
L 197.090598 79.594837 
L 197.163516 77.917291 
L 197.477504 77.917291 
L 197.562568 74.562197 
L 197.873919 74.562197 
L 197.873919 72.88465 
L 198.01299 72.88465 
L 198.108786 71.207104 
L 198.199632 71.207104 
L 198.309773 68.411192 
L 198.368958 68.411192 
L 198.368958 67.85201 
L 198.504096 67.85201 
L 198.504096 67.292828 
L 198.709123 67.292828 
L 198.798993 65.056099 
L 198.828845 65.056099 
L 198.928687 61.141823 
L 198.994224 61.141823 
L 199.000553 58.905094 
L 199.160116 58.905094 
L 199.160116 57.78673 
L 199.2809 57.78673 
L 199.34511 54.990819 
L 199.560831 54.990819 
L 199.560831 53.872454 
L 199.723391 53.872454 
L 199.723391 52.75409 
L 199.876413 52.75409 
L 199.920456 50.517361 
L 200.14886 50.517361 
L 200.14886 48.280632 
L 200.262913 48.280632 
L 200.335278 46.603085 
L 200.401508 46.603085 
L 200.426764 44.366356 
L 200.575601 44.366356 
L 200.575601 43.247992 
L 200.696426 43.247992 
L 200.738419 42.129627 
L 200.812611 42.129627 
L 200.914812 37.096987 
L 200.956275 37.096987 
L 201.061371 35.41944 
L 201.068853 35.41944 
L 201.068853 34.301076 
L 201.500992 34.301076 
L 201.500992 32.623529 
L 201.635421 32.623529 
L 201.646274 29.827618 
L 201.786752 29.827618 
L 201.83869 27.031707 
L 201.934985 27.031707 
L 201.972288 25.35416 
L 202.280037 25.35416 
L 202.280037 24.794978 
L 212.729709 24.794978 
L 212.729709 24.235795 
L 212.859228 24.235795 
L 212.859228 23.676613 
L 213.657003 23.676613 
L 213.740419 21.999066 
L 214.047256 21.999066 
L 214.047256 20.880702 
L 214.180339 20.880702 
L 214.180339 19.762337 
L 214.577777 19.762337 
L 214.577777 18.643973 
L 220.94854 18.643973 
L 221.051183 16.966426 
L 221.23036 16.966426 
L 221.23036 15.28888 
L 221.466014 15.28888 
L 221.52471 14.170515 
L 226.262099 14.170515 
L 226.308676 13.052151 
L 230.186707 13.052151 
L 230.290192 11.933786 
L 230.344426 11.933786 
L 230.344426 11.374604 
L 233.179011 11.374604 
L 233.179011 10.815422 
L 233.365702 10.815422 
L 233.365702 10.256239 
L 235.992187 10.256239 
L 235.992187 9.697057 
L 333.168 9.697057 
L 333.168 9.697057 
" style="fill:none;stroke:#000080;stroke-linecap:square;stroke-width:1.5;"/>
   </g>
   <g id="line2d_39">
    <defs>
     <path d="M 0 6 
C 1.591219 6 3.117479 5.367802 4.242641 4.242641 
C 5.367802 3.117479 6 1.591219 6 0 
C 6 -1.591219 5.367802 -3.117479 4.242641 -4.242641 
C 3.117479 -5.367802 1.591219 -6 0 -6 
C -1.591219 -6 -3.117479 -5.367802 -4.242641 -4.242641 
C -5.367802 -3.117479 -6 -1.591219 -6 0 
C -6 1.591219 -5.367802 3.117479 -4.242641 4.242641 
C -3.117479 5.367802 -1.591219 6 0 6 
z
" id="m05fe926f36" style="stroke:#000080;stroke-width:1.5;"/>
    </defs>
    <g>
     <use style="fill-opacity:0;stroke:#000080;stroke-width:1.5;" x="81.973032" xlink:href="#m05fe926f36" y="281.459626"/>
     <use style="fill-opacity:0;stroke:#000080;stroke-width:1.5;" x="167.699689" xlink:href="#m05fe926f36" y="211.002664"/>
     <use style="fill-opacity:0;stroke:#000080;stroke-width:1.5;" x="191.677405" xlink:href="#m05fe926f36" y="116.500865"/>
     <use style="fill-opacity:0;stroke:#000080;stroke-width:1.5;" x="221.52471" xlink:href="#m05fe926f36" y="14.170515"/>
     <use style="fill-opacity:0;stroke:#000080;stroke-width:1.5;" x="235.992187" xlink:href="#m05fe926f36" y="9.697057"/>
     <use style="fill-opacity:0;stroke:#000080;stroke-width:1.5;" x="333.168" xlink:href="#m05fe926f36" y="9.697057"/>
    </g>
   </g>
   <g id="line2d_40">
    <path style="fill:none;stroke:#000080;stroke-linecap:square;stroke-width:1.5;"/>
    <g/>
   </g>
   <g id="line2d_41">
    <path clip-path="url(#peafdd8b64c)" d="M 202.691626 24.794978 
" style="fill:none;stroke:#000080;stroke-linecap:square;stroke-width:1.5;"/>
    <defs>
     <path d="M -12 12 
L 12 -12 
M -12 -12 
L 12 12 
" id="mdaa9cf3dde" style="stroke:#000080;"/>
    </defs>
    <g clip-path="url(#peafdd8b64c)">
     <use style="fill:#000080;stroke:#000080;" x="202.691626" xlink:href="#mdaa9cf3dde" y="24.794978"/>
    </g>
   </g>
   <g id="line2d_42">
    <defs>
     <path d="M 0 1.5 
C 0.397805 1.5 0.77937 1.341951 1.06066 1.06066 
C 1.341951 0.77937 1.5 0.397805 1.5 0 
C 1.5 -0.397805 1.341951 -0.77937 1.06066 -1.06066 
C 0.77937 -1.341951 0.397805 -1.5 0 -1.5 
C -0.397805 -1.5 -0.77937 -1.341951 -1.06066 -1.06066 
C -1.341951 -0.77937 -1.5 -0.397805 -1.5 0 
C -1.5 0.397805 -1.341951 0.77937 -1.06066 1.06066 
C -0.77937 1.341951 -0.397805 1.5 0 1.5 
z
" id="m05f66267cd" style="stroke:#ff00ff;"/>
    </defs>
    <g>
     <use style="fill:#ff00ff;stroke:#ff00ff;" x="227.349768" xlink:href="#m05f66267cd" y="9.697057"/>
     <use style="fill:#ff00ff;stroke:#ff00ff;" x="227.349768" xlink:href="#m05f66267cd" y="9.697057"/>
    </g>
   </g>
   <g id="line2d_43">
    <path d="M 44.205749 294.88 
L 44.205749 216.594486 
L 107.612537 216.594486 
L 107.612537 216.035304 
L 115.420563 216.035304 
L 115.420563 214.357757 
L 118.869818 214.357757 
L 118.869818 213.798575 
L 121.741249 213.798575 
L 121.741249 213.239393 
L 127.470694 213.239393 
L 127.470694 212.121028 
L 139.249066 212.121028 
L 139.249066 209.884299 
L 141.060069 209.884299 
L 141.060069 209.325117 
L 143.988072 209.325117 
L 143.988072 208.765935 
L 145.235981 208.765935 
L 145.235981 205.410841 
L 147.657127 205.410841 
L 147.657127 204.292477 
L 148.070335 204.292477 
L 148.070335 203.733295 
L 149.329562 203.733295 
L 149.329562 203.174112 
L 150.072167 203.174112 
L 150.072167 202.61493 
L 150.324681 202.61493 
L 150.324681 201.496566 
L 154.160213 201.496566 
L 154.160213 200.937384 
L 154.331245 200.937384 
L 154.331245 199.259837 
L 154.500593 199.259837 
L 154.500593 198.141472 
L 155.720156 198.141472 
L 155.720156 197.023108 
L 157.531159 197.023108 
L 157.531159 196.463926 
L 158.757817 196.463926 
L 158.757817 195.345561 
L 161.376107 195.345561 
L 161.376107 192.54965 
L 161.637678 192.54965 
L 161.637678 191.990468 
L 162.328224 191.990468 
L 162.328224 191.431285 
L 162.888963 191.431285 
L 162.888963 189.753739 
L 164.215648 189.753739 
L 164.215648 189.194556 
L 165.056564 189.194556 
L 165.056564 188.076192 
L 165.192802 188.076192 
L 165.192802 185.839463 
L 165.327969 185.839463 
L 165.327969 184.161916 
L 166.831054 184.161916 
L 166.831054 182.48437 
L 167.14346 182.48437 
L 167.14346 181.925187 
L 167.608225 181.925187 
L 167.608225 181.366005 
L 167.764723 181.366005 
L 167.764723 178.570094 
L 168.060754 178.570094 
L 168.060754 174.655818 
L 168.238481 174.655818 
L 168.251106 168.504814 
L 168.426886 168.504814 
L 168.47678 164.031356 
L 168.773143 164.031356 
L 168.773143 161.794627 
L 169.160509 161.794627 
L 169.160509 161.235444 
L 170.046958 161.235444 
L 170.046958 160.676262 
L 170.715861 160.676262 
L 170.715861 160.11708 
L 171.147759 160.11708 
L 171.147759 156.761987 
L 171.27524 156.761987 
L 171.27524 156.202804 
L 171.714122 156.202804 
L 171.714122 151.170164 
L 172.232412 151.170164 
L 172.232412 150.0518 
L 172.608676 150.0518 
L 172.608676 148.933435 
L 173.148576 148.933435 
L 173.148576 147.255888 
L 173.412297 147.255888 
L 173.412297 146.137524 
L 174.081414 146.137524 
L 174.188955 145.019159 
L 174.366709 145.019159 
L 174.366709 143.900795 
L 174.742766 143.900795 
L 174.83766 138.868155 
L 174.983291 138.868155 
L 175.000343 134.394697 
L 175.136155 134.394697 
L 175.195237 129.921239 
L 175.312795 129.921239 
L 175.312795 128.802874 
L 176.477476 128.802874 
L 176.477476 128.243692 
L 177.046637 128.243692 
L 177.046637 126.566145 
L 177.339184 126.566145 
L 177.339184 123.770234 
L 177.51677 123.770234 
L 177.51677 122.092688 
L 177.692539 122.092688 
L 177.692539 121.533505 
L 178.110039 121.533505 
L 178.110039 117.060047 
L 178.300986 117.060047 
L 178.336115 111.468225 
L 178.854613 111.468225 
L 178.854613 109.790678 
L 179.003786 109.790678 
L 179.003786 109.231496 
L 179.443689 109.231496 
L 179.443689 108.113132 
L 179.594382 108.113132 
L 179.594382 107.553949 
L 180.108472 107.553949 
L 180.165357 106.435585 
L 180.29736 106.435585 
L 180.29736 105.31722 
L 180.533677 105.31722 
L 180.533677 103.080491 
L 180.748499 103.080491 
L 180.748499 101.402945 
L 181.04481 101.402945 
L 181.04481 99.166216 
L 181.377312 99.166216 
L 181.377312 96.370304 
L 181.668849 96.370304 
L 181.668849 94.692758 
L 181.909976 94.692758 
L 181.927071 91.896847 
L 182.349003 91.896847 
L 182.454268 85.18666 
L 182.487376 85.18666 
L 182.487376 84.068295 
L 182.74454 84.068295 
L 182.74454 82.390748 
L 182.997913 82.390748 
L 183.029991 80.713202 
L 183.120556 80.713202 
L 183.120556 80.15402 
L 183.441651 80.15402 
L 183.441651 78.476473 
L 183.643843 78.476473 
L 183.70558 77.358108 
L 183.955397 77.358108 
L 183.955397 75.680562 
L 184.311053 75.680562 
L 184.311053 75.121379 
L 184.493519 75.121379 
L 184.503327 71.766286 
L 184.962879 71.766286 
L 184.962879 70.647921 
L 185.307845 70.647921 
L 185.307845 70.088739 
L 185.484713 70.088739 
L 185.484713 68.970375 
L 185.604688 68.970375 
L 185.604688 67.85201 
L 185.810378 67.85201 
L 185.810378 67.292828 
L 185.968674 67.292828 
L 186.054 64.496917 
L 186.413079 64.496917 
L 186.413079 63.937735 
L 186.539837 63.937735 
L 186.587673 61.701006 
L 186.717465 61.701006 
L 186.717465 59.464277 
L 187.762561 59.464277 
L 187.762561 58.345912 
L 188.199058 58.345912 
L 188.199058 57.227548 
L 189.530112 57.227548 
L 189.530112 55.550001 
L 191.045834 55.550001 
L 191.045834 54.431636 
L 204.179006 54.431636 
L 204.179006 52.75409 
L 204.515897 52.75409 
L 204.529664 51.076543 
L 204.742417 51.076543 
L 204.843309 48.280632 
L 204.865816 48.280632 
L 204.892786 46.603085 
L 205.25426 46.603085 
L 205.315721 45.484721 
L 205.390058 45.484721 
L 205.390058 44.925538 
L 205.566591 44.925538 
L 205.566591 44.366356 
L 205.688522 44.366356 
L 205.793974 42.688809 
L 205.820946 42.688809 
L 205.873348 39.892898 
L 206.075784 39.892898 
L 206.178894 37.656169 
L 206.423041 37.656169 
L 206.525456 35.978622 
L 206.545866 35.978622 
L 206.644851 34.860258 
L 206.823739 34.860258 
L 206.921141 33.182711 
L 206.986212 33.182711 
L 207.060278 31.505165 
L 207.181269 31.505165 
L 207.181269 30.3868 
L 207.304018 30.3868 
L 207.315725 26.472524 
L 207.43752 26.472524 
L 207.43752 25.913342 
L 207.595598 25.913342 
L 207.610943 24.794978 
L 208.047591 24.794978 
L 208.047591 23.676613 
L 208.36122 23.676613 
L 208.411314 21.999066 
L 209.300476 21.999066 
L 209.300476 21.439884 
L 209.750969 21.439884 
L 209.750969 20.880702 
L 214.906974 20.880702 
L 214.906974 20.32152 
L 215.542203 20.32152 
L 215.549453 19.203155 
L 215.727326 19.203155 
L 215.78621 17.525609 
L 216.437798 17.525609 
L 216.437798 16.966426 
L 216.629461 16.966426 
L 216.629461 15.848062 
L 216.99687 15.848062 
L 217.068534 14.729697 
L 217.203659 14.729697 
L 217.203659 14.170515 
L 217.328291 14.170515 
L 217.328291 13.611333 
L 217.523975 13.611333 
L 217.523975 13.052151 
L 217.681211 13.052151 
L 217.681211 11.933786 
L 217.955761 11.933786 
L 217.955761 11.374604 
L 222.894319 11.374604 
L 222.894319 10.815422 
L 223.349986 10.815422 
L 223.349986 10.256239 
L 227.349768 10.256239 
L 227.349768 9.697057 
L 333.168 9.697057 
L 333.168 9.697057 
" style="fill:none;stroke:#ff00ff;stroke-linecap:square;stroke-width:1.5;"/>
   </g>
   <g id="line2d_44">
    <defs>
     <path d="M -0 8.485281 
L 5.091169 0 
L 0 -8.485281 
L -5.091169 -0 
z
" id="m2294eda52e" style="stroke:#ff00ff;stroke-linejoin:miter;stroke-width:1.5;"/>
    </defs>
    <g>
     <use style="fill-opacity:0;stroke:#ff00ff;stroke-linejoin:miter;stroke-width:1.5;" x="174.742766" xlink:href="#m2294eda52e" y="142.78243"/>
     <use style="fill-opacity:0;stroke:#ff00ff;stroke-linejoin:miter;stroke-width:1.5;" x="207.610943" xlink:href="#m2294eda52e" y="24.794978"/>
     <use style="fill-opacity:0;stroke:#ff00ff;stroke-linejoin:miter;stroke-width:1.5;" x="227.349768" xlink:href="#m2294eda52e" y="10.256239"/>
     <use style="fill-opacity:0;stroke:#ff00ff;stroke-linejoin:miter;stroke-width:1.5;" x="227.349768" xlink:href="#m2294eda52e" y="9.697057"/>
     <use style="fill-opacity:0;stroke:#ff00ff;stroke-linejoin:miter;stroke-width:1.5;" x="333.168" xlink:href="#m2294eda52e" y="9.697057"/>
    </g>
   </g>
   <g id="line2d_45">
    <path style="fill:none;stroke:#ff00ff;stroke-linecap:square;stroke-width:1.5;"/>
    <g/>
   </g>
   <g id="line2d_46">
    <path clip-path="url(#peafdd8b64c)" d="M 202.691626 54.431636 
" style="fill:none;stroke:#ff00ff;stroke-linecap:square;stroke-width:1.5;"/>
    <defs>
     <path d="M -12 12 
L 12 -12 
M -12 -12 
L 12 12 
" id="m6cc795b300" style="stroke:#ff00ff;"/>
    </defs>
    <g clip-path="url(#peafdd8b64c)">
     <use style="fill:#ff00ff;stroke:#ff00ff;" x="202.691626" xlink:href="#m6cc795b300" y="54.431636"/>
    </g>
   </g>
   <g id="line2d_47">
    <defs>
     <path d="M 0 1.5 
C 0.397805 1.5 0.77937 1.341951 1.06066 1.06066 
C 1.341951 0.77937 1.5 0.397805 1.5 0 
C 1.5 -0.397805 1.341951 -0.77937 1.06066 -1.06066 
C 0.77937 -1.341951 0.397805 -1.5 0 -1.5 
C -0.397805 -1.5 -0.77937 -1.341951 -1.06066 -1.06066 
C -1.341951 -0.77937 -1.5 -0.397805 -1.5 0 
C -1.5 0.397805 -1.341951 0.77937 -1.06066 1.06066 
C -0.77937 1.341951 -0.397805 1.5 0 1.5 
z
" id="m997d6acaad" style="stroke:#ffa500;"/>
    </defs>
    <g>
     <use style="fill:#ffa500;stroke:#ffa500;" x="218.213583" xlink:href="#m997d6acaad" y="9.697057"/>
     <use style="fill:#ffa500;stroke:#ffa500;" x="218.213583" xlink:href="#m997d6acaad" y="9.697057"/>
    </g>
   </g>
   <g id="line2d_48">
    <path d="M 44.205749 294.88 
L 44.205749 288.728995 
L 56.12 288.728995 
L 56.12 285.373902 
L 63.08939 285.373902 
L 63.08939 283.137173 
L 68.034251 283.137173 
L 68.034251 278.104533 
L 71.869783 278.104533 
L 71.869783 276.986168 
L 75.003641 276.986168 
L 75.003641 275.867804 
L 77.653281 275.867804 
L 77.653281 273.631075 
L 81.973032 273.631075 
L 81.973032 272.51271 
L 83.784035 272.51271 
L 83.784035 271.953528 
L 85.422286 271.953528 
L 85.422286 271.394346 
L 89.567532 271.394346 
L 89.567532 269.716799 
L 90.753425 269.716799 
L 90.753425 265.243341 
L 92.904808 265.243341 
L 92.904808 264.684159 
L 98.832144 264.684159 
L 98.832144 261.329066 
L 99.533818 261.329066 
L 99.533818 251.822967 
L 101.481783 251.822967 
L 101.481783 250.704603 
L 102.084955 250.704603 
L 102.084955 250.145421 
L 103.777005 250.145421 
L 103.777005 249.586238 
L 104.305927 249.586238 
L 104.305927 249.027056 
L 105.801534 249.027056 
L 105.801534 247.34951 
L 110.014853 247.34951 
L 110.014853 245.671963 
L 112.770924 245.671963 
L 112.770924 244.553598 
L 113.700266 244.553598 
L 113.700266 241.198505 
L 116.478659 241.198505 
L 116.478659 238.961776 
L 119.09161 238.961776 
L 119.09161 238.402594 
L 121.551317 238.402594 
L 121.551317 236.725047 
L 126.92061 236.725047 
L 126.92061 235.0475 
L 131.548134 235.0475 
L 131.548134 233.929136 
L 134.029181 233.929136 
L 134.029181 232.810771 
L 138.623956 232.810771 
L 138.623956 231.692407 
L 140.178407 231.692407 
L 140.178407 231.133225 
L 146.081494 231.133225 
L 146.081494 230.01486 
L 146.489148 230.01486 
L 146.489148 228.896496 
L 149.778964 228.896496 
L 149.778964 228.337313 
L 149.999334 228.337313 
L 149.999334 225.541402 
L 153.36878 225.541402 
L 153.36878 223.863855 
L 154.074054 223.863855 
L 154.074054 222.186309 
L 155.979808 222.186309 
L 155.979808 221.627126 
L 157.554689 221.627126 
L 157.554689 220.508762 
L 161.300635 220.508762 
L 161.300635 218.831215 
L 161.563349 218.831215 
L 161.563349 218.272033 
L 161.931822 218.272033 
L 161.931822 214.91694 
L 162.346026 214.91694 
L 162.346026 212.121028 
L 162.854447 212.121028 
L 162.854447 211.561846 
L 162.992095 211.561846 
L 162.992095 211.002664 
L 163.97457 211.002664 
L 164.055305 208.765935 
L 164.135664 208.765935 
L 164.135664 207.64757 
L 164.827073 207.64757 
L 164.827073 205.410841 
L 165.521353 205.410841 
L 165.521353 204.292477 
L 166.045792 204.292477 
L 166.045792 202.61493 
L 166.316261 202.61493 
L 166.344485 199.819019 
L 166.651932 199.819019 
L 166.651932 198.700655 
L 167.958364 198.700655 
L 167.958364 197.023108 
L 168.69953 197.023108 
L 168.69953 195.345561 
L 169.551042 195.345561 
L 169.551042 192.54965 
L 169.771934 192.54965 
L 169.771934 191.431285 
L 170.126351 191.431285 
L 170.126351 190.872103 
L 170.328838 190.872103 
L 170.328838 188.076192 
L 170.606169 188.076192 
L 170.606169 186.398645 
L 171.11574 186.398645 
L 171.137092 185.280281 
L 171.27524 185.280281 
L 171.27524 184.161916 
L 171.786192 184.161916 
L 171.786192 182.48437 
L 172.252422 182.48437 
L 172.252422 180.247641 
L 173.072478 180.247641 
L 173.072478 179.129276 
L 173.214887 179.129276 
L 173.271521 176.892547 
L 174.072422 176.892547 
L 174.126305 172.419089 
L 174.188955 172.419089 
L 174.188955 170.741543 
L 174.83766 170.741543 
L 174.880621 169.623178 
L 174.949136 169.623178 
L 174.949136 168.504814 
L 175.660722 168.504814 
L 175.660722 166.827267 
L 176.640919 166.827267 
L 176.679606 160.11708 
L 177.167259 160.11708 
L 177.167259 158.439533 
L 177.531486 158.439533 
L 177.531486 157.880351 
L 177.859315 157.880351 
L 177.960044 151.170164 
L 178.110039 151.170164 
L 178.110039 150.610982 
L 178.655978 150.610982 
L 178.704135 146.137524 
L 178.806876 146.137524 
L 178.806876 143.900795 
L 179.08461 143.900795 
L 179.08461 142.78243 
L 179.338075 142.78243 
L 179.338075 142.223248 
L 179.949464 142.223248 
L 180.032332 141.104884 
L 180.681272 141.104884 
L 180.681272 140.545702 
L 181.383191 140.545702 
L 181.383191 139.986519 
L 181.547005 139.986519 
L 181.547005 138.868155 
L 181.755355 138.868155 
L 181.766856 136.631426 
L 181.887157 136.631426 
L 181.887157 134.394697 
L 182.282186 134.394697 
L 182.321194 128.802874 
L 182.487376 128.802874 
L 182.487376 127.125328 
L 182.992561 127.125328 
L 183.019305 122.65187 
L 183.173607 122.65187 
L 183.173607 118.737594 
L 183.358008 118.737594 
L 183.405108 111.468225 
L 183.540452 111.468225 
L 183.540452 108.113132 
L 183.874222 108.113132 
L 183.950334 104.758038 
L 184.281281 104.758038 
L 184.370444 101.402945 
L 184.493519 101.402945 
L 184.542504 99.725398 
L 184.649781 99.725398 
L 184.664358 94.692758 
L 184.770879 94.692758 
L 184.770879 94.133576 
L 184.972423 94.133576 
L 184.972423 91.337664 
L 185.12441 91.337664 
L 185.171631 89.100935 
L 185.544805 89.100935 
L 185.544805 87.423389 
L 186.013636 87.423389 
L 186.013636 86.305024 
L 186.355952 86.305024 
L 186.443762 83.509113 
L 186.644037 83.509113 
L 186.717465 81.272384 
L 186.935886 81.272384 
L 186.961401 74.003015 
L 187.050406 74.003015 
L 187.050406 73.443833 
L 187.185154 73.443833 
L 187.218676 71.766286 
L 187.310527 71.766286 
L 187.310527 70.088739 
L 187.468032 70.088739 
L 187.558564 68.411192 
L 187.697545 68.411192 
L 187.697545 66.733646 
L 187.847524 66.733646 
L 187.920016 63.378552 
L 188.04016 63.378552 
L 188.080023 61.701006 
L 188.183234 61.701006 
L 188.183234 61.141823 
L 188.442482 61.141823 
L 188.547422 58.905094 
L 188.766879 58.905094 
L 188.85845 56.109183 
L 189.058958 56.109183 
L 189.058958 54.990819 
L 189.19383 54.990819 
L 189.19383 53.872454 
L 189.346157 53.872454 
L 189.419975 52.75409 
L 189.48981 52.75409 
L 189.595857 48.280632 
L 189.60679 48.280632 
L 189.694005 41.570445 
L 190.362299 41.570445 
L 190.362299 41.011263 
L 190.521936 41.011263 
L 190.521936 39.333716 
L 191.00558 39.333716 
L 191.00558 37.096987 
L 191.249016 37.096987 
L 191.249016 35.41944 
L 191.426899 35.41944 
L 191.426899 34.860258 
L 191.599716 34.860258 
L 191.599716 34.301076 
L 191.921128 34.301076 
L 191.921128 32.064347 
L 192.155163 32.064347 
L 192.155163 31.505165 
L 192.379854 31.505165 
L 192.379854 30.945982 
L 192.598585 30.945982 
L 192.604706 28.150071 
L 192.902011 28.150071 
L 192.902011 25.35416 
L 195.153943 25.35416 
L 195.153943 24.794978 
L 195.353295 24.794978 
L 195.353295 24.235795 
L 195.950441 24.235795 
L 195.950441 23.676613 
L 196.459201 23.676613 
L 196.459201 23.117431 
L 198.58424 23.117431 
L 198.58424 22.558249 
L 199.011096 22.558249 
L 199.011096 21.999066 
L 199.785973 21.999066 
L 199.834267 19.203155 
L 204.225761 19.203155 
L 204.225761 18.643973 
L 206.623204 18.643973 
L 206.623204 18.084791 
L 207.148475 18.084791 
L 207.176027 16.966426 
L 207.53665 16.966426 
L 207.53665 16.407244 
L 207.65307 16.407244 
L 207.65307 15.848062 
L 208.214996 15.848062 
L 208.309754 14.729697 
L 208.480713 14.729697 
L 208.480713 14.170515 
L 208.80808 14.170515 
L 208.839048 13.052151 
L 209.016631 13.052151 
L 209.016631 12.492968 
L 209.276131 12.492968 
L 209.276131 11.933786 
L 209.819672 11.933786 
L 209.819672 11.374604 
L 216.755308 11.374604 
L 216.755308 10.815422 
L 217.868015 10.815422 
L 217.868015 10.256239 
L 218.213583 10.256239 
L 218.213583 9.697057 
L 333.168 9.697057 
L 333.168 9.697057 
" style="fill:none;stroke:#ffa500;stroke-linecap:square;stroke-width:1.5;"/>
   </g>
   <g id="line2d_49">
    <defs>
     <path d="M 0 -6 
L -1.347084 -1.854102 
L -5.706339 -1.854102 
L -2.179628 0.708204 
L -3.526712 4.854102 
L -0 2.291796 
L 3.526712 4.854102 
L 2.179628 0.708204 
L 5.706339 -1.854102 
L 1.347084 -1.854102 
z
" id="m4d785fa549" style="stroke:#ffa500;stroke-linejoin:bevel;stroke-width:1.5;"/>
    </defs>
    <g>
     <use style="fill-opacity:0;stroke:#ffa500;stroke-linejoin:bevel;stroke-width:1.5;" x="90.753425" xlink:href="#m4d785fa549" y="269.716799"/>
     <use style="fill-opacity:0;stroke:#ffa500;stroke-linejoin:bevel;stroke-width:1.5;" x="166.344485" xlink:href="#m4d785fa549" y="199.819019"/>
     <use style="fill-opacity:0;stroke:#ffa500;stroke-linejoin:bevel;stroke-width:1.5;" x="190.521936" xlink:href="#m4d785fa549" y="41.011263"/>
     <use style="fill-opacity:0;stroke:#ffa500;stroke-linejoin:bevel;stroke-width:1.5;" x="218.213583" xlink:href="#m4d785fa549" y="10.256239"/>
     <use style="fill-opacity:0;stroke:#ffa500;stroke-linejoin:bevel;stroke-width:1.5;" x="218.213583" xlink:href="#m4d785fa549" y="9.697057"/>
     <use style="fill-opacity:0;stroke:#ffa500;stroke-linejoin:bevel;stroke-width:1.5;" x="333.168" xlink:href="#m4d785fa549" y="9.697057"/>
    </g>
   </g>
   <g id="line2d_50">
    <path style="fill:none;stroke:#ffa500;stroke-linecap:square;stroke-width:1.5;"/>
    <g/>
   </g>
   <g id="line2d_51">
    <path clip-path="url(#peafdd8b64c)" d="M 202.691626 19.203155 
" style="fill:none;stroke:#ffa500;stroke-linecap:square;stroke-width:1.5;"/>
    <defs>
     <path d="M -12 12 
L 12 -12 
M -12 -12 
L 12 12 
" id="m286eb4468e" style="stroke:#ffa500;"/>
    </defs>
    <g clip-path="url(#peafdd8b64c)">
     <use style="fill:#ffa500;stroke:#ffa500;" x="202.691626" xlink:href="#m286eb4468e" y="19.203155"/>
    </g>
   </g>
   <g id="line2d_52">
    <defs>
     <path d="M 0 1.5 
C 0.397805 1.5 0.77937 1.341951 1.06066 1.06066 
C 1.341951 0.77937 1.5 0.397805 1.5 0 
C 1.5 -0.397805 1.341951 -0.77937 1.06066 -1.06066 
C 0.77937 -1.341951 0.397805 -1.5 0 -1.5 
C -0.397805 -1.5 -0.77937 -1.341951 -1.06066 -1.06066 
C -1.341951 -0.77937 -1.5 -0.397805 -1.5 0 
C -1.5 0.397805 -1.341951 0.77937 -1.06066 1.06066 
C -0.77937 1.341951 -0.397805 1.5 0 1.5 
z
" id="m5c89fece14" style="stroke:#6495ed;"/>
    </defs>
    <g>
     <use style="fill:#6495ed;stroke:#6495ed;" x="201.568338" xlink:href="#m5c89fece14" y="9.697057"/>
     <use style="fill:#6495ed;stroke:#6495ed;" x="201.568338" xlink:href="#m5c89fece14" y="9.697057"/>
    </g>
   </g>
   <g id="line2d_53">
    <path d="M 44.205749 294.88 
L 44.205749 270.835164 
L 56.12 270.835164 
L 56.12 266.361706 
L 63.08939 266.361706 
L 63.08939 260.769883 
L 68.034251 260.769883 
L 68.034251 259.092337 
L 71.869783 259.092337 
L 71.869783 257.41479 
L 75.003641 257.41479 
L 75.003641 256.855608 
L 79.948502 256.855608 
L 79.948502 255.178061 
L 81.973032 255.178061 
L 81.973032 251.822967 
L 89.567532 251.822967 
L 89.567532 251.263785 
L 90.753425 251.263785 
L 90.753425 250.704603 
L 98.100602 250.704603 
L 98.100602 250.145421 
L 99.533818 250.145421 
L 99.533818 249.027056 
L 100.207968 249.027056 
L 100.207968 247.908692 
L 101.481783 247.908692 
L 101.481783 246.790327 
L 107.612537 246.790327 
L 107.612537 245.112781 
L 108.451173 245.112781 
L 108.451173 243.994416 
L 122.838768 243.994416 
L 122.838768 242.876052 
L 124.036471 242.876052 
L 124.036471 242.316869 
L 125.764637 242.316869 
L 125.764637 241.757687 
L 125.913457 241.757687 
L 125.913457 240.08014 
L 128.39291 240.08014 
L 128.39291 239.520958 
L 131.441039 239.520958 
L 131.441039 238.961776 
L 132.177056 238.961776 
L 132.177056 236.165865 
L 136.359022 236.165865 
L 136.359022 235.606682 
L 136.599426 235.606682 
L 136.599426 232.810771 
L 137.753459 232.810771 
L 137.753459 230.574042 
L 139.452484 230.574042 
L 139.452484 230.01486 
L 141.121347 230.01486 
L 141.121347 228.337313 
L 141.66324 228.337313 
L 141.66324 227.778131 
L 142.920112 227.778131 
L 142.920112 227.218949 
L 145.042304 227.218949 
L 145.042304 226.100584 
L 145.284061 226.100584 
L 145.284061 225.541402 
L 147.319256 225.541402 
L 147.319256 223.863855 
L 148.393896 223.863855 
L 148.393896 223.304673 
L 151.700505 223.304673 
L 151.700505 222.745491 
L 151.962932 222.745491 
L 151.962932 222.186309 
L 152.412754 222.186309 
L 152.412754 221.627126 
L 152.943598 221.627126 
L 152.943598 221.067944 
L 154.045238 221.067944 
L 154.045238 219.390397 
L 154.245942 219.390397 
L 154.245942 218.831215 
L 154.944195 218.831215 
L 154.944195 217.712851 
L 155.107638 217.712851 
L 155.107638 216.594486 
L 155.403306 216.594486 
L 155.456522 214.357757 
L 156.43752 214.357757 
L 156.43752 213.798575 
L 156.956555 213.798575 
L 156.956555 213.239393 
L 157.718503 213.239393 
L 157.718503 211.002664 
L 157.834564 211.002664 
L 157.834564 209.884299 
L 160.04572 209.884299 
L 160.04572 209.325117 
L 161.186803 209.325117 
L 161.205828 207.088388 
L 161.581961 207.088388 
L 161.674723 205.970024 
L 162.645887 205.970024 
L 162.645887 205.410841 
L 162.802544 205.410841 
L 162.802544 204.292477 
L 163.482025 204.292477 
L 163.482025 203.733295 
L 164.734412 203.733295 
L 164.734412 202.61493 
L 164.903911 202.61493 
L 164.94985 201.496566 
L 165.16262 201.496566 
L 165.16262 199.819019 
L 165.506554 199.819019 
L 165.506554 198.700655 
L 166.330379 198.700655 
L 166.330379 198.141472 
L 166.638076 198.141472 
L 166.638076 197.023108 
L 166.776138 197.023108 
L 166.776138 195.904743 
L 166.953977 195.904743 
L 166.953977 195.345561 
L 167.277537 195.345561 
L 167.277537 194.786379 
L 167.410577 194.786379 
L 167.410577 192.54965 
L 168.149847 192.54965 
L 168.187889 190.312921 
L 168.822044 190.312921 
L 168.822044 189.753739 
L 169.004193 189.753739 
L 169.08854 187.51701 
L 169.327275 187.51701 
L 169.327275 186.398645 
L 169.990023 186.398645 
L 169.990023 185.280281 
L 170.418071 185.280281 
L 170.418071 184.721099 
L 171.433273 184.721099 
L 171.433273 184.161916 
L 171.610638 184.161916 
L 171.610638 183.602734 
L 172.461133 183.602734 
L 172.461133 183.043552 
L 172.8518 183.043552 
L 172.93849 181.366005 
L 173.110569 181.366005 
L 173.110569 179.688458 
L 173.505511 179.688458 
L 173.505511 178.010912 
L 174.331305 178.010912 
L 174.331305 176.892547 
L 174.906346 176.892547 
L 174.906346 172.978271 
L 175.254117 172.978271 
L 175.279289 170.18236 
L 175.904998 170.18236 
L 175.904998 169.623178 
L 176.336134 169.623178 
L 176.422647 167.945631 
L 176.555499 167.945631 
L 176.555499 167.386449 
L 177.287041 167.386449 
L 177.301955 165.708902 
L 177.428206 165.708902 
L 177.45039 163.472173 
L 178.159748 163.472173 
L 178.159748 162.912991 
L 178.406159 162.912991 
L 178.406159 162.353809 
L 178.600775 162.353809 
L 178.600775 161.235444 
L 179.304937 161.235444 
L 179.304937 160.11708 
L 179.476561 160.11708 
L 179.476561 158.998715 
L 179.763153 158.998715 
L 179.763153 156.761987 
L 180.064098 156.761987 
L 180.064098 155.643622 
L 180.459401 155.643622 
L 180.459401 155.08444 
L 181.140469 155.08444 
L 181.140469 153.406893 
L 181.523699 153.406893 
L 181.535356 152.288529 
L 181.915676 152.288529 
L 181.915676 151.170164 
L 182.72824 151.170164 
L 182.72824 150.610982 
L 182.863605 150.610982 
L 182.965775 147.815071 
L 183.01396 147.815071 
L 183.01396 146.696706 
L 183.34228 146.696706 
L 183.34228 145.578342 
L 183.550819 145.578342 
L 183.633531 143.341613 
L 183.853869 143.341613 
L 183.853869 142.223248 
L 184.36056 142.223248 
L 184.459147 138.868155 
L 184.717701 138.868155 
L 184.717701 136.631426 
L 184.89113 136.631426 
L 184.89113 136.072244 
L 185.195194 136.072244 
L 185.195194 135.513061 
L 185.498599 135.513061 
L 185.530956 134.394697 
L 185.941641 134.394697 
L 186.045039 132.157968 
L 186.107673 132.157968 
L 186.116602 128.243692 
L 186.236694 128.243692 
L 186.347147 126.006963 
L 186.846284 126.006963 
L 186.846284 125.447781 
L 187.020789 125.447781 
L 187.075752 124.329417 
L 187.180959 124.329417 
L 187.273011 122.092688 
L 187.550353 122.092688 
L 187.550353 119.855959 
L 188.183234 119.855959 
L 188.183234 115.941683 
L 188.336898 115.941683 
L 188.395636 113.704954 
L 188.609307 113.704954 
L 188.636312 112.027407 
L 188.866059 112.027407 
L 188.866059 111.468225 
L 189.025074 111.468225 
L 189.115283 108.113132 
L 189.242275 108.113132 
L 189.242275 107.553949 
L 189.493478 107.553949 
L 189.493478 106.994767 
L 189.89222 106.994767 
L 189.895803 105.876403 
L 190.358812 105.876403 
L 190.358812 105.31722 
L 190.508114 105.31722 
L 190.552997 103.080491 
L 190.73478 103.080491 
L 190.73478 102.521309 
L 191.079307 102.521309 
L 191.079307 99.725398 
L 191.367809 99.725398 
L 191.367809 99.166216 
L 191.670944 99.166216 
L 191.7676 97.488669 
L 191.921128 97.488669 
L 191.921128 96.929487 
L 192.317734 96.929487 
L 192.395349 93.574393 
L 192.644442 93.574393 
L 192.644442 93.015211 
L 192.914037 93.015211 
L 193.012935 91.896847 
L 193.214946 91.896847 
L 193.30332 90.2193 
L 193.402931 90.2193 
L 193.510678 86.305024 
L 193.533887 86.305024 
L 193.533887 85.745842 
L 193.683981 85.745842 
L 193.683981 84.627477 
L 193.878302 84.627477 
L 193.915203 80.15402 
L 194.06483 80.15402 
L 194.160136 78.476473 
L 194.215952 78.476473 
L 194.215952 77.917291 
L 194.475888 77.917291 
L 194.478632 75.680562 
L 194.726543 75.680562 
L 194.772462 72.88465 
L 194.874664 72.88465 
L 194.978927 67.292828 
L 194.994911 67.292828 
L 194.994911 66.174463 
L 195.106388 66.174463 
L 195.203998 64.496917 
L 195.269639 64.496917 
L 195.269639 63.378552 
L 195.384561 63.378552 
L 195.384561 62.81937 
L 195.529723 62.81937 
L 195.529723 60.582641 
L 196.0509 60.582641 
L 196.080924 58.905094 
L 196.427381 58.905094 
L 196.427381 57.78673 
L 197.151776 57.78673 
L 197.151776 57.227548 
L 197.36652 57.227548 
L 197.403594 53.872454 
L 197.562568 53.872454 
L 197.640365 52.75409 
L 197.735984 52.75409 
L 197.735984 52.194907 
L 198.135425 52.194907 
L 198.164237 50.517361 
L 198.375521 50.517361 
L 198.379895 48.280632 
L 198.504096 48.280632 
L 198.545297 46.603085 
L 198.951971 46.603085 
L 198.990003 44.925538 
L 199.07632 44.925538 
L 199.149664 42.129627 
L 199.276749 42.129627 
L 199.347177 38.774534 
L 199.43995 38.774534 
L 199.493324 33.182711 
L 199.609761 33.182711 
L 199.66667 30.3868 
L 199.812149 30.3868 
L 199.812149 29.827618 
L 199.970367 29.827618 
L 199.970367 29.268436 
L 200.209913 29.268436 
L 200.311842 27.031707 
L 200.339181 27.031707 
L 200.436468 18.084791 
L 200.531278 18.084791 
L 200.548636 16.407244 
L 200.679217 16.407244 
L 200.787916 14.729697 
L 200.829686 14.729697 
L 200.829686 13.611333 
L 201.001395 13.611333 
L 201.001395 13.052151 
L 201.124866 13.052151 
L 201.124866 12.492968 
L 201.2382 12.492968 
L 201.330543 11.374604 
L 201.522863 11.374604 
L 201.568338 9.697057 
L 333.168 9.697057 
L 333.168 9.697057 
" style="fill:none;stroke:#6495ed;stroke-linecap:square;stroke-width:1.5;"/>
   </g>
   <g id="line2d_54">
    <defs>
     <path d="M -0 6 
L 6 -6 
L -6 -6 
z
" id="md14b3f4c83" style="stroke:#6495ed;stroke-linejoin:miter;stroke-width:1.5;"/>
    </defs>
    <g>
     <use style="fill-opacity:0;stroke:#6495ed;stroke-linejoin:miter;stroke-width:1.5;" x="142.920112" xlink:href="#md14b3f4c83" y="227.218949"/>
     <use style="fill-opacity:0;stroke:#6495ed;stroke-linejoin:miter;stroke-width:1.5;" x="187.550353" xlink:href="#md14b3f4c83" y="122.092688"/>
     <use style="fill-opacity:0;stroke:#6495ed;stroke-linejoin:miter;stroke-width:1.5;" x="201.568338" xlink:href="#md14b3f4c83" y="10.256239"/>
     <use style="fill-opacity:0;stroke:#6495ed;stroke-linejoin:miter;stroke-width:1.5;" x="201.568338" xlink:href="#md14b3f4c83" y="9.697057"/>
     <use style="fill-opacity:0;stroke:#6495ed;stroke-linejoin:miter;stroke-width:1.5;" x="201.568338" xlink:href="#md14b3f4c83" y="9.697057"/>
     <use style="fill-opacity:0;stroke:#6495ed;stroke-linejoin:miter;stroke-width:1.5;" x="333.168" xlink:href="#md14b3f4c83" y="9.697057"/>
    </g>
   </g>
   <g id="line2d_55">
    <path style="fill:none;stroke:#6495ed;stroke-linecap:square;stroke-width:1.5;"/>
    <g/>
   </g>
   <g id="line2d_56">
    <defs>
     <path d="M 0 1.5 
C 0.397805 1.5 0.77937 1.341951 1.06066 1.06066 
C 1.341951 0.77937 1.5 0.397805 1.5 0 
C 1.5 -0.397805 1.341951 -0.77937 1.06066 -1.06066 
C 0.77937 -1.341951 0.397805 -1.5 0 -1.5 
C -0.397805 -1.5 -0.77937 -1.341951 -1.06066 -1.06066 
C -1.341951 -0.77937 -1.5 -0.397805 -1.5 0 
C -1.5 0.397805 -1.341951 0.77937 -1.06066 1.06066 
C -0.77937 1.341951 -0.397805 1.5 0 1.5 
z
" id="m1b4604211e" style="stroke:#ff0000;"/>
    </defs>
    <g>
     <use style="fill:#ff0000;stroke:#ff0000;" x="218.212204" xlink:href="#m1b4604211e" y="9.697057"/>
     <use style="fill:#ff0000;stroke:#ff0000;" x="218.212204" xlink:href="#m1b4604211e" y="9.697057"/>
    </g>
   </g>
   <g id="line2d_57">
    <path d="M 44.205749 294.88 
L 44.205749 282.018808 
L 56.12 282.018808 
L 56.12 281.459626 
L 63.08939 281.459626 
L 63.08939 280.900444 
L 68.034251 280.900444 
L 68.034251 279.222897 
L 75.003641 279.222897 
L 75.003641 275.867804 
L 79.948502 275.867804 
L 79.948502 274.190257 
L 89.567532 274.190257 
L 89.567532 273.071893 
L 97.336537 273.071893 
L 97.336537 272.51271 
L 100.856673 272.51271 
L 100.856673 271.394346 
L 102.667676 271.394346 
L 102.667676 270.835164 
L 105.801534 270.835164 
L 105.801534 270.275981 
L 112.122219 270.275981 
L 112.122219 269.716799 
L 112.770924 269.716799 
L 112.770924 268.598435 
L 113.999206 268.598435 
L 113.999206 265.802523 
L 115.145539 265.802523 
L 115.145539 265.243341 
L 116.478659 265.243341 
L 116.478659 264.124977 
L 117.952873 264.124977 
L 117.952873 263.565795 
L 126.92061 263.565795 
L 126.92061 262.44743 
L 127.872003 262.44743 
L 127.872003 260.769883 
L 130.445921 260.769883 
L 130.445921 259.651519 
L 132.177056 259.651519 
L 132.177056 257.41479 
L 137.070377 257.41479 
L 137.070377 256.855608 
L 138.623956 256.855608 
L 138.623956 256.296425 
L 139.786254 256.296425 
L 139.786254 255.737243 
L 141.66324 255.737243 
L 141.66324 255.178061 
L 146.887358 255.178061 
L 146.887358 254.618879 
L 148.789965 254.618879 
L 148.789965 249.586238 
L 149.630465 249.586238 
L 149.704875 247.34951 
L 150.608797 247.34951 
L 150.608797 246.790327 
L 150.818844 246.790327 
L 150.818844 245.112781 
L 151.400405 245.112781 
L 151.400405 244.553598 
L 152.912822 244.553598 
L 152.912822 243.435234 
L 153.096659 243.435234 
L 153.096659 242.876052 
L 154.723825 242.876052 
L 154.723825 241.757687 
L 155.798464 241.757687 
L 155.798464 240.08014 
L 157.126141 240.08014 
L 157.126141 236.165865 
L 160.625729 236.165865 
L 160.625729 235.0475 
L 160.89888 235.0475 
L 160.89888 233.929136 
L 161.224831 233.929136 
L 161.224831 232.810771 
L 162.274704 232.810771 
L 162.274704 232.251589 
L 162.452458 232.251589 
L 162.470133 228.896496 
L 163.697196 228.896496 
L 163.762864 226.659767 
L 163.893453 226.659767 
L 163.990747 221.067944 
L 164.734412 221.067944 
L 164.796241 218.831215 
L 164.93455 218.831215 
L 164.93455 218.272033 
L 166.540769 218.272033 
L 166.540769 217.712851 
L 167.608225 217.712851 
L 167.608225 214.91694 
L 168.625601 214.91694 
L 168.625601 212.680211 
L 168.955809 212.680211 
L 168.955809 211.002664 
L 171.391273 211.002664 
L 171.391273 210.443482 
L 171.816987 210.443482 
L 171.909042 206.529206 
L 172.071487 206.529206 
L 172.071487 205.410841 
L 172.520302 205.410841 
L 172.520302 204.292477 
L 173.158065 204.292477 
L 173.233786 202.055748 
L 173.458967 202.055748 
L 173.458967 195.904743 
L 173.873393 195.904743 
L 173.873393 195.345561 
L 174.699459 195.345561 
L 174.699459 194.786379 
L 175.379612 194.786379 
L 175.379612 194.227197 
L 175.553781 194.227197 
L 175.553781 192.54965 
L 175.693493 192.54965 
L 175.750693 188.076192 
L 175.929236 188.076192 
L 176.001745 181.366005 
L 176.121918 181.366005 
L 176.121918 180.247641 
L 176.351896 180.247641 
L 176.351896 179.129276 
L 176.50092 179.129276 
L 176.50092 178.570094 
L 176.932779 178.570094 
L 176.932779 178.010912 
L 177.538839 178.010912 
L 177.538839 176.333365 
L 178.110039 176.333365 
L 178.110039 175.774183 
L 178.315046 175.774183 
L 178.378176 173.537454 
L 178.427116 173.537454 
L 178.427116 172.978271 
L 178.779539 172.978271 
L 178.779539 171.300725 
L 179.017283 171.300725 
L 179.017283 170.18236 
L 179.665987 170.18236 
L 179.776068 166.268085 
L 179.987761 166.268085 
L 180.05775 161.235444 
L 180.127455 161.235444 
L 180.146416 159.557898 
L 180.527499 159.557898 
L 180.595329 150.0518 
L 180.918444 150.0518 
L 180.918444 149.492617 
L 181.336099 149.492617 
L 181.336099 148.933435 
L 181.512034 148.933435 
L 181.564465 144.459977 
L 181.738089 144.459977 
L 181.84715 142.78243 
L 181.864307 142.78243 
L 181.864307 141.664066 
L 182.766249 141.664066 
L 182.766249 139.986519 
L 183.046008 139.986519 
L 183.046008 137.74979 
L 183.194782 137.74979 
L 183.289747 133.835515 
L 183.326537 133.835515 
L 183.326537 132.71715 
L 183.746615 132.71715 
L 183.797772 128.243692 
L 183.909783 128.243692 
L 183.909783 127.68451 
L 184.061359 127.68451 
L 184.161673 126.006963 
L 184.221581 126.006963 
L 184.320966 122.65187 
L 184.542504 122.65187 
L 184.542504 119.296776 
L 184.654641 119.296776 
L 184.654641 117.61923 
L 184.92465 117.61923 
L 185.03433 113.145772 
L 185.053333 113.145772 
L 185.053333 112.586589 
L 185.345232 112.586589 
L 185.345232 112.027407 
L 185.521717 112.027407 
L 185.521717 110.909043 
L 185.687259 110.909043 
L 185.687259 108.672314 
L 185.837618 108.672314 
L 185.842154 106.994767 
L 185.977676 106.994767 
L 186.08533 101.962127 
L 186.09427 101.962127 
L 186.134446 99.725398 
L 186.205639 99.725398 
L 186.205639 99.166216 
L 186.364754 99.166216 
L 186.474389 95.25194 
L 186.62238 95.25194 
L 186.62238 93.574393 
L 186.764811 93.574393 
L 186.764811 92.456029 
L 187.105275 92.456029 
L 187.147363 89.100935 
L 187.218676 89.100935 
L 187.218676 87.982571 
L 187.347962 87.982571 
L 187.377021 86.305024 
L 187.554459 86.305024 
L 187.554459 84.068295 
L 187.738209 84.068295 
L 187.786879 81.831566 
L 187.920016 81.831566 
L 187.920016 80.15402 
L 188.187191 80.15402 
L 188.230662 77.917291 
L 188.3565 77.917291 
L 188.40736 72.325468 
L 188.551296 72.325468 
L 188.578392 67.85201 
L 188.682508 67.85201 
L 188.682508 65.615281 
L 189.002447 65.615281 
L 189.002447 65.056099 
L 189.231108 65.056099 
L 189.231108 62.81937 
L 189.511805 62.81937 
L 189.617716 60.023459 
L 189.701253 60.023459 
L 189.78078 57.227548 
L 190.0988 57.227548 
L 190.0988 56.668365 
L 190.309922 56.668365 
L 190.369271 55.550001 
L 190.625254 55.550001 
L 190.625254 53.313272 
L 190.830046 53.313272 
L 190.830046 47.72145 
L 191.348067 47.72145 
L 191.348067 43.807174 
L 191.583486 43.807174 
L 191.645077 37.656169 
L 191.780447 37.656169 
L 191.780447 37.096987 
L 192.7631 37.096987 
L 192.7631 36.537805 
L 192.883956 36.537805 
L 192.883956 34.860258 
L 193.429202 34.860258 
L 193.429202 33.741894 
L 193.809969 33.741894 
L 193.809969 31.505165 
L 194.045142 31.505165 
L 194.045142 30.3868 
L 195.978126 30.3868 
L 196.005766 28.709253 
L 196.95571 28.709253 
L 196.95571 27.590889 
L 197.819782 27.590889 
L 197.819782 26.472524 
L 203.864014 26.472524 
L 203.864014 25.913342 
L 204.671286 25.913342 
L 204.671286 25.35416 
L 204.951075 25.35416 
L 204.951075 24.794978 
L 205.330322 24.794978 
L 205.330322 24.235795 
L 205.539217 24.235795 
L 205.573787 22.558249 
L 206.012779 22.558249 
L 206.012779 21.999066 
L 206.510474 21.999066 
L 206.510474 20.880702 
L 206.772818 20.880702 
L 206.772818 20.32152 
L 206.887846 20.32152 
L 206.958354 19.203155 
L 207.82308 19.203155 
L 207.852093 18.084791 
L 208.166802 18.084791 
L 208.234729 16.966426 
L 208.390561 16.966426 
L 208.390561 16.407244 
L 208.706446 16.407244 
L 208.706446 15.28888 
L 208.840238 15.28888 
L 208.950548 13.611333 
L 209.28309 13.611333 
L 209.28309 13.052151 
L 210.001919 13.052151 
L 210.001919 12.492968 
L 210.392274 12.492968 
L 210.392274 11.933786 
L 210.820683 11.933786 
L 210.820683 11.374604 
L 211.585993 11.374604 
L 211.585993 10.815422 
L 216.94571 10.815422 
L 216.94571 10.256239 
L 218.212204 10.256239 
L 218.212204 9.697057 
L 333.168 9.697057 
L 333.168 9.697057 
" style="fill:none;stroke:#ff0000;stroke-linecap:square;stroke-width:1.5;"/>
   </g>
   <g id="line2d_58">
    <defs>
     <path d="M 0 -6 
L -5.196152 -3 
L -5.196152 3 
L -0 6 
L 5.196152 3 
L 5.196152 -3 
z
" id="maefe49b3a6" style="stroke:#ff0000;stroke-linejoin:miter;stroke-width:1.5;"/>
    </defs>
    <g>
     <use style="fill-opacity:0;stroke:#ff0000;stroke-linejoin:miter;stroke-width:1.5;" x="79.948502" xlink:href="#maefe49b3a6" y="275.867804"/>
     <use style="fill-opacity:0;stroke:#ff0000;stroke-linejoin:miter;stroke-width:1.5;" x="167.608225" xlink:href="#maefe49b3a6" y="217.712851"/>
     <use style="fill-opacity:0;stroke:#ff0000;stroke-linejoin:miter;stroke-width:1.5;" x="188.551296" xlink:href="#maefe49b3a6" y="72.325468"/>
     <use style="fill-opacity:0;stroke:#ff0000;stroke-linejoin:miter;stroke-width:1.5;" x="218.212204" xlink:href="#maefe49b3a6" y="10.256239"/>
     <use style="fill-opacity:0;stroke:#ff0000;stroke-linejoin:miter;stroke-width:1.5;" x="218.212204" xlink:href="#maefe49b3a6" y="9.697057"/>
     <use style="fill-opacity:0;stroke:#ff0000;stroke-linejoin:miter;stroke-width:1.5;" x="333.168" xlink:href="#maefe49b3a6" y="9.697057"/>
    </g>
   </g>
   <g id="line2d_59">
    <path style="fill:none;stroke:#ff0000;stroke-linecap:square;stroke-width:1.5;"/>
    <g/>
   </g>
   <g id="line2d_60">
    <path clip-path="url(#peafdd8b64c)" d="M 202.691626 26.472524 
" style="fill:none;stroke:#ff0000;stroke-linecap:square;stroke-width:1.5;"/>
    <defs>
     <path d="M -12 12 
L 12 -12 
M -12 -12 
L 12 12 
" id="mcf176dd472" style="stroke:#ff0000;"/>
    </defs>
    <g clip-path="url(#peafdd8b64c)">
     <use style="fill:#ff0000;stroke:#ff0000;" x="202.691626" xlink:href="#mcf176dd472" y="26.472524"/>
    </g>
   </g>
   <g id="line2d_61">
    <path d="M 333.168 9.697057 
L 363.64328 289.176341 
" style="fill:none;stroke:#000080;stroke-linecap:square;stroke-width:1.5;"/>
    <g>
     <use style="fill-opacity:0;stroke:#000080;stroke-width:1.5;" x="333.168" xlink:href="#m05fe926f36" y="9.697057"/>
     <use style="fill-opacity:0;stroke:#000080;stroke-width:1.5;" x="363.64328" xlink:href="#m05fe926f36" y="289.176341"/>
    </g>
   </g>
   <g id="line2d_62">
    <path d="M 333.168 9.697057 
L 363.64328 220.732435 
" style="fill:none;stroke:#ff00ff;stroke-linecap:square;stroke-width:1.5;"/>
    <g>
     <use style="fill-opacity:0;stroke:#ff00ff;stroke-linejoin:miter;stroke-width:1.5;" x="333.168" xlink:href="#m2294eda52e" y="9.697057"/>
     <use style="fill-opacity:0;stroke:#ff00ff;stroke-linejoin:miter;stroke-width:1.5;" x="363.64328" xlink:href="#m2294eda52e" y="220.732435"/>
    </g>
   </g>
   <g id="line2d_63">
    <path d="M 333.168 9.697057 
L 363.64328 152.288529 
" style="fill:none;stroke:#ffa500;stroke-linecap:square;stroke-width:1.5;"/>
    <g>
     <use style="fill-opacity:0;stroke:#ffa500;stroke-linejoin:bevel;stroke-width:1.5;" x="333.168" xlink:href="#m4d785fa549" y="9.697057"/>
     <use style="fill-opacity:0;stroke:#ffa500;stroke-linejoin:bevel;stroke-width:1.5;" x="363.64328" xlink:href="#m4d785fa549" y="152.288529"/>
    </g>
   </g>
   <g id="line2d_64">
    <path d="M 333.168 9.697057 
L 363.64328 83.844622 
" style="fill:none;stroke:#ff0000;stroke-linecap:square;stroke-width:1.5;"/>
    <g>
     <use style="fill-opacity:0;stroke:#ff0000;stroke-linejoin:miter;stroke-width:1.5;" x="333.168" xlink:href="#maefe49b3a6" y="9.697057"/>
     <use style="fill-opacity:0;stroke:#ff0000;stroke-linejoin:miter;stroke-width:1.5;" x="363.64328" xlink:href="#maefe49b3a6" y="83.844622"/>
    </g>
   </g>
   <g id="line2d_65">
    <path d="M 333.168 9.697057 
L 363.64328 15.400716 
" style="fill:none;stroke:#6495ed;stroke-linecap:square;stroke-width:1.5;"/>
    <g>
     <use style="fill-opacity:0;stroke:#6495ed;stroke-linejoin:miter;stroke-width:1.5;" x="333.168" xlink:href="#md14b3f4c83" y="9.697057"/>
     <use style="fill-opacity:0;stroke:#6495ed;stroke-linejoin:miter;stroke-width:1.5;" x="363.64328" xlink:href="#md14b3f4c83" y="15.400716"/>
    </g>
   </g>
   <g id="line2d_66">
    <path d="M 333.168 294.88 
L 333.168 9.697057 
" style="fill:none;stroke:#000000;stroke-linecap:square;stroke-width:1.5;"/>
   </g>
   <g id="patch_3">
    <path d="M 56.12 294.88 
L 56.12 6.845228 
" style="fill:none;stroke:#000000;stroke-linecap:square;stroke-linejoin:miter;stroke-width:0.8;"/>
   </g>
   <g id="patch_4">
    <path d="M 333.168 294.88 
L 333.168 6.845228 
" style="fill:none;stroke:#000000;stroke-linecap:square;stroke-linejoin:miter;stroke-width:0.8;"/>
   </g>
   <g id="patch_5">
    <path d="M 56.12 294.88 
L 333.168 294.88 
" style="fill:none;stroke:#000000;stroke-linecap:square;stroke-linejoin:miter;stroke-width:0.8;"/>
   </g>
   <g id="patch_6">
    <path d="M 56.12 6.845228 
L 333.168 6.845228 
" style="fill:none;stroke:#000000;stroke-linecap:square;stroke-linejoin:miter;stroke-width:0.8;"/>
   </g>
   <g id="text_13">
    <!-- f18 -->
    <g transform="translate(369.18424 293.867279)scale(0.17 -0.17)">
     <use xlink:href="#DejaVuSans-66"/>
     <use x="35.205078" xlink:href="#DejaVuSans-31"/>
     <use x="98.828125" xlink:href="#DejaVuSans-38"/>
    </g>
   </g>
   <g id="text_14">
    <!-- f19 -->
    <defs>
     <path d="M 10.984375 1.515625 
L 10.984375 10.5 
Q 14.703125 8.734375 18.5 7.8125 
Q 22.3125 6.890625 25.984375 6.890625 
Q 35.75 6.890625 40.890625 13.453125 
Q 46.046875 20.015625 46.78125 33.40625 
Q 43.953125 29.203125 39.59375 26.953125 
Q 35.25 24.703125 29.984375 24.703125 
Q 19.046875 24.703125 12.671875 31.3125 
Q 6.296875 37.9375 6.296875 49.421875 
Q 6.296875 60.640625 12.9375 67.421875 
Q 19.578125 74.21875 30.609375 74.21875 
Q 43.265625 74.21875 49.921875 64.515625 
Q 56.59375 54.828125 56.59375 36.375 
Q 56.59375 19.140625 48.40625 8.859375 
Q 40.234375 -1.421875 26.421875 -1.421875 
Q 22.703125 -1.421875 18.890625 -0.6875 
Q 15.09375 0.046875 10.984375 1.515625 
z
M 30.609375 32.421875 
Q 37.25 32.421875 41.125 36.953125 
Q 45.015625 41.5 45.015625 49.421875 
Q 45.015625 57.28125 41.125 61.84375 
Q 37.25 66.40625 30.609375 66.40625 
Q 23.96875 66.40625 20.09375 61.84375 
Q 16.21875 57.28125 16.21875 49.421875 
Q 16.21875 41.5 20.09375 36.953125 
Q 23.96875 32.421875 30.609375 32.421875 
z
" id="DejaVuSans-39"/>
    </defs>
    <g transform="translate(369.18424 225.423372)scale(0.17 -0.17)">
     <use xlink:href="#DejaVuSans-66"/>
     <use x="35.205078" xlink:href="#DejaVuSans-31"/>
     <use x="98.828125" xlink:href="#DejaVuSans-39"/>
    </g>
   </g>
   <g id="text_15">
    <!-- f16 -->
    <g transform="translate(369.18424 156.979466)scale(0.17 -0.17)">
     <use xlink:href="#DejaVuSans-66"/>
     <use x="35.205078" xlink:href="#DejaVuSans-31"/>
     <use x="98.828125" xlink:href="#DejaVuSans-36"/>
    </g>
   </g>
   <g id="text_16">
    <!-- f15 -->
    <defs>
     <path d="M 10.796875 72.90625 
L 49.515625 72.90625 
L 49.515625 64.59375 
L 19.828125 64.59375 
L 19.828125 46.734375 
Q 21.96875 47.46875 24.109375 47.828125 
Q 26.265625 48.1875 28.421875 48.1875 
Q 40.625 48.1875 47.75 41.5 
Q 54.890625 34.8125 54.890625 23.390625 
Q 54.890625 11.625 47.5625 5.09375 
Q 40.234375 -1.421875 26.90625 -1.421875 
Q 22.3125 -1.421875 17.546875 -0.640625 
Q 12.796875 0.140625 7.71875 1.703125 
L 7.71875 11.625 
Q 12.109375 9.234375 16.796875 8.0625 
Q 21.484375 6.890625 26.703125 6.890625 
Q 35.15625 6.890625 40.078125 11.328125 
Q 45.015625 15.765625 45.015625 23.390625 
Q 45.015625 31 40.078125 35.4375 
Q 35.15625 39.890625 26.703125 39.890625 
Q 22.75 39.890625 18.8125 39.015625 
Q 14.890625 38.140625 10.796875 36.28125 
z
" id="DejaVuSans-35"/>
    </defs>
    <g transform="translate(369.18424 88.53556)scale(0.17 -0.17)">
     <use xlink:href="#DejaVuSans-66"/>
     <use x="35.205078" xlink:href="#DejaVuSans-31"/>
     <use x="98.828125" xlink:href="#DejaVuSans-35"/>
    </g>
   </g>
   <g id="text_17">
    <!-- f17 -->
    <defs>
     <path d="M 8.203125 72.90625 
L 55.078125 72.90625 
L 55.078125 68.703125 
L 28.609375 0 
L 18.3125 0 
L 43.21875 64.59375 
L 8.203125 64.59375 
z
" id="DejaVuSans-37"/>
    </defs>
    <g transform="translate(369.18424 20.091654)scale(0.17 -0.17)">
     <use xlink:href="#DejaVuSans-66"/>
     <use x="35.205078" xlink:href="#DejaVuSans-31"/>
     <use x="98.828125" xlink:href="#DejaVuSans-37"/>
    </g>
   </g>
   <g id="text_18">
    <!-- bbob -->
    <defs>
     <path d="M 48.6875 27.296875 
Q 48.6875 37.203125 44.609375 42.84375 
Q 40.53125 48.484375 33.40625 48.484375 
Q 26.265625 48.484375 22.1875 42.84375 
Q 18.109375 37.203125 18.109375 27.296875 
Q 18.109375 17.390625 22.1875 11.75 
Q 26.265625 6.109375 33.40625 6.109375 
Q 40.53125 6.109375 44.609375 11.75 
Q 48.6875 17.390625 48.6875 27.296875 
z
M 18.109375 46.390625 
Q 20.953125 51.265625 25.265625 53.625 
Q 29.59375 56 35.59375 56 
Q 45.5625 56 51.78125 48.09375 
Q 58.015625 40.1875 58.015625 27.296875 
Q 58.015625 14.40625 51.78125 6.484375 
Q 45.5625 -1.421875 35.59375 -1.421875 
Q 29.59375 -1.421875 25.265625 0.953125 
Q 20.953125 3.328125 18.109375 8.203125 
L 18.109375 0 
L 9.078125 0 
L 9.078125 75.984375 
L 18.109375 75.984375 
z
" id="DejaVuSans-62"/>
    </defs>
    <g transform="translate(58.89048 17.475982)scale(0.102 -0.102)">
     <use xlink:href="#DejaVuSans-62"/>
     <use x="63.476562" xlink:href="#DejaVuSans-62"/>
     <use x="126.953125" xlink:href="#DejaVuSans-6f"/>
     <use x="188.134766" xlink:href="#DejaVuSans-62"/>
    </g>
    <!-- Multi-modal functions, 2-D -->
    <defs>
     <path d="M 9.8125 72.90625 
L 24.515625 72.90625 
L 43.109375 23.296875 
L 61.8125 72.90625 
L 76.515625 72.90625 
L 76.515625 0 
L 66.890625 0 
L 66.890625 64.015625 
L 48.09375 14.015625 
L 38.1875 14.015625 
L 19.390625 64.015625 
L 19.390625 0 
L 9.8125 0 
z
" id="DejaVuSans-4d"/>
     <path d="M 19.671875 64.796875 
L 19.671875 8.109375 
L 31.59375 8.109375 
Q 46.6875 8.109375 53.6875 14.9375 
Q 60.6875 21.78125 60.6875 36.53125 
Q 60.6875 51.171875 53.6875 57.984375 
Q 46.6875 64.796875 31.59375 64.796875 
z
M 9.8125 72.90625 
L 30.078125 72.90625 
Q 51.265625 72.90625 61.171875 64.09375 
Q 71.09375 55.28125 71.09375 36.53125 
Q 71.09375 17.671875 61.125 8.828125 
Q 51.171875 0 30.078125 0 
L 9.8125 0 
z
" id="DejaVuSans-44"/>
    </defs>
    <g transform="translate(58.89048 28.89775)scale(0.102 -0.102)">
     <use xlink:href="#DejaVuSans-4d"/>
     <use x="86.279297" xlink:href="#DejaVuSans-75"/>
     <use x="149.658203" xlink:href="#DejaVuSans-6c"/>
     <use x="177.441406" xlink:href="#DejaVuSans-74"/>
     <use x="216.650391" xlink:href="#DejaVuSans-69"/>
     <use x="244.433594" xlink:href="#DejaVuSans-2d"/>
     <use x="280.517578" xlink:href="#DejaVuSans-6d"/>
     <use x="377.929688" xlink:href="#DejaVuSans-6f"/>
     <use x="439.111328" xlink:href="#DejaVuSans-64"/>
     <use x="502.587891" xlink:href="#DejaVuSans-61"/>
     <use x="563.867188" xlink:href="#DejaVuSans-6c"/>
     <use x="591.650391" xlink:href="#DejaVuSans-20"/>
     <use x="623.4375" xlink:href="#DejaVuSans-66"/>
     <use x="658.642578" xlink:href="#DejaVuSans-75"/>
     <use x="722.021484" xlink:href="#DejaVuSans-6e"/>
     <use x="785.400391" xlink:href="#DejaVuSans-63"/>
     <use x="840.380859" xlink:href="#DejaVuSans-74"/>
     <use x="879.589844" xlink:href="#DejaVuSans-69"/>
     <use x="907.373047" xlink:href="#DejaVuSans-6f"/>
     <use x="968.554688" xlink:href="#DejaVuSans-6e"/>
     <use x="1031.933594" xlink:href="#DejaVuSans-73"/>
     <use x="1084.033203" xlink:href="#DejaVuSans-2c"/>
     <use x="1115.820312" xlink:href="#DejaVuSans-20"/>
     <use x="1147.607422" xlink:href="#DejaVuSans-32"/>
     <use x="1211.230469" xlink:href="#DejaVuSans-2d"/>
     <use x="1247.314453" xlink:href="#DejaVuSans-44"/>
    </g>
    <!-- 51 targets: 100..1e-08 -->
    <defs>
     <path d="M 11.71875 12.40625 
L 22.015625 12.40625 
L 22.015625 0 
L 11.71875 0 
z
M 11.71875 51.703125 
L 22.015625 51.703125 
L 22.015625 39.3125 
L 11.71875 39.3125 
z
" id="DejaVuSans-3a"/>
    </defs>
    <g transform="translate(58.89048 40.319519)scale(0.102 -0.102)">
     <use xlink:href="#DejaVuSans-35"/>
     <use x="63.623047" xlink:href="#DejaVuSans-31"/>
     <use x="127.246094" xlink:href="#DejaVuSans-20"/>
     <use x="159.033203" xlink:href="#DejaVuSans-74"/>
     <use x="198.242188" xlink:href="#DejaVuSans-61"/>
     <use x="259.521484" xlink:href="#DejaVuSans-72"/>
     <use x="300.619141" xlink:href="#DejaVuSans-67"/>
     <use x="364.095703" xlink:href="#DejaVuSans-65"/>
     <use x="425.619141" xlink:href="#DejaVuSans-74"/>
     <use x="464.828125" xlink:href="#DejaVuSans-73"/>
     <use x="516.927734" xlink:href="#DejaVuSans-3a"/>
     <use x="550.619141" xlink:href="#DejaVuSans-20"/>
     <use x="582.40625" xlink:href="#DejaVuSans-31"/>
     <use x="646.029297" xlink:href="#DejaVuSans-30"/>
     <use x="709.652344" xlink:href="#DejaVuSans-30"/>
     <use x="773.275391" xlink:href="#DejaVuSans-2e"/>
     <use x="805.0625" xlink:href="#DejaVuSans-2e"/>
     <use x="836.849609" xlink:href="#DejaVuSans-31"/>
     <use x="900.472656" xlink:href="#DejaVuSans-65"/>
     <use x="961.996094" xlink:href="#DejaVuSans-2d"/>
     <use x="998.080078" xlink:href="#DejaVuSans-30"/>
     <use x="1061.703125" xlink:href="#DejaVuSans-38"/>
    </g>
    <!-- 15 instances -->
    <g transform="translate(58.89048 51.741288)scale(0.102 -0.102)">
     <use xlink:href="#DejaVuSans-31"/>
     <use x="63.623047" xlink:href="#DejaVuSans-35"/>
     <use x="127.246094" xlink:href="#DejaVuSans-20"/>
     <use x="159.033203" xlink:href="#DejaVuSans-69"/>
     <use x="186.816406" xlink:href="#DejaVuSans-6e"/>
     <use x="250.195312" xlink:href="#DejaVuSans-73"/>
     <use x="302.294922" xlink:href="#DejaVuSans-74"/>
     <use x="341.503906" xlink:href="#DejaVuSans-61"/>
     <use x="402.783203" xlink:href="#DejaVuSans-6e"/>
     <use x="466.162109" xlink:href="#DejaVuSans-63"/>
     <use x="521.142578" xlink:href="#DejaVuSans-65"/>
     <use x="582.666016" xlink:href="#DejaVuSans-73"/>
    </g>
   </g>
   <g id="text_19">
    <!-- v0.0.0 -->
    <g style="fill:#808080;" transform="translate(178.96275 289.919965)scale(0.1 -0.1)">
     <use xlink:href="#DejaVuSans-76"/>
     <use x="59.179688" xlink:href="#DejaVuSans-30"/>
     <use x="122.802734" xlink:href="#DejaVuSans-2e"/>
     <use x="154.589844" xlink:href="#DejaVuSans-30"/>
     <use x="218.212891" xlink:href="#DejaVuSans-2e"/>
     <use x="250" xlink:href="#DejaVuSans-30"/>
    </g>
   </g>
  </g>
 </g>
 <defs>
  <clipPath id="peafdd8b64c">
   <rect height="288.034772" width="277.048" x="56.12" y="6.845228"/>
  </clipPath>
 </defs>
</svg>
