<?xml version="1.0" encoding="utf-8" standalone="no"?>
<!DOCTYPE svg PUBLIC "-//W3C//DTD SVG 1.1//EN"
  "http://www.w3.org/Graphics/SVG/1.1/DTD/svg11.dtd">
<!-- Created with matplotlib (http://matplotlib.org/) -->
<svg height="345.6pt" version="1.1" viewBox="0 0 460.8 345.6" width="460.8pt" xmlns="http://www.w3.org/2000/svg" xmlns:xlink="http://www.w3.org/1999/xlink">
 <defs>
  <style type="text/css">
*{stroke-linecap:butt;stroke-linejoin:round;}
  </style>
 </defs>
 <g id="figure_1">
  <g id="patch_1">
   <path d="M 0 345.6 
L 460.8 345.6 
L 460.8 0 
L 0 0 
z
" style="fill:#ffffff;"/>
  </g>
  <g id="axes_1">
   <g id="patch_2">
    <path d="M 56.12 294.88 
L 333.168 294.88 
L 333.168 6.845228 
L 56.12 6.845228 
z
" style="fill:#ffffff;"/>
   </g>
   <g id="matplotlib.axis_1">
    <g id="xtick_1">
     <g id="line2d_1">
      <path clip-path="url(#pb3f7120d4a)" d="M 56.12 294.88 
L 56.12 6.845228 
" style="fill:none;stroke:#b0b0b0;stroke-linecap:square;stroke-width:0.8;"/>
     </g>
     <g id="line2d_2">
      <defs>
       <path d="M 0 0 
L 0 3.5 
" id="m90e3d6e187" style="stroke:#000000;stroke-width:0.8;"/>
      </defs>
      <g>
       <use style="stroke:#000000;stroke-width:0.8;" x="56.12" xlink:href="#m90e3d6e187" y="294.88"/>
      </g>
     </g>
     <g id="text_1">
      <!-- 0 -->
      <defs>
       <path d="M 31.78125 66.40625 
Q 24.171875 66.40625 20.328125 58.90625 
Q 16.5 51.421875 16.5 36.375 
Q 16.5 21.390625 20.328125 13.890625 
Q 24.171875 6.390625 31.78125 6.390625 
Q 39.453125 6.390625 43.28125 13.890625 
Q 47.125 21.390625 47.125 36.375 
Q 47.125 51.421875 43.28125 58.90625 
Q 39.453125 66.40625 31.78125 66.40625 
z
M 31.78125 74.21875 
Q 44.046875 74.21875 50.515625 64.515625 
Q 56.984375 54.828125 56.984375 36.375 
Q 56.984375 17.96875 50.515625 8.265625 
Q 44.046875 -1.421875 31.78125 -1.421875 
Q 19.53125 -1.421875 13.0625 8.265625 
Q 6.59375 17.96875 6.59375 36.375 
Q 6.59375 54.828125 13.0625 64.515625 
Q 19.53125 74.21875 31.78125 74.21875 
z
" id="DejaVuSans-30"/>
      </defs>
      <g transform="translate(49.7575 317.076875)scale(0.2 -0.2)">
       <use xlink:href="#DejaVuSans-30"/>
      </g>
     </g>
    </g>
    <g id="xtick_2">
     <g id="line2d_3">
      <path clip-path="url(#pb3f7120d4a)" d="M 135.276571 294.88 
L 135.276571 6.845228 
" style="fill:none;stroke:#b0b0b0;stroke-linecap:square;stroke-width:0.8;"/>
     </g>
     <g id="line2d_4">
      <g>
       <use style="stroke:#000000;stroke-width:0.8;" x="135.276571" xlink:href="#m90e3d6e187" y="294.88"/>
      </g>
     </g>
     <g id="text_2">
      <!-- 2 -->
      <defs>
       <path d="M 19.1875 8.296875 
L 53.609375 8.296875 
L 53.609375 0 
L 7.328125 0 
L 7.328125 8.296875 
Q 12.9375 14.109375 22.625 23.890625 
Q 32.328125 33.6875 34.8125 36.53125 
Q 39.546875 41.84375 41.421875 45.53125 
Q 43.3125 49.21875 43.3125 52.78125 
Q 43.3125 58.59375 39.234375 62.25 
Q 35.15625 65.921875 28.609375 65.921875 
Q 23.96875 65.921875 18.8125 64.3125 
Q 13.671875 62.703125 7.8125 59.421875 
L 7.8125 69.390625 
Q 13.765625 71.78125 18.9375 73 
Q 24.125 74.21875 28.421875 74.21875 
Q 39.75 74.21875 46.484375 68.546875 
Q 53.21875 62.890625 53.21875 53.421875 
Q 53.21875 48.921875 51.53125 44.890625 
Q 49.859375 40.875 45.40625 35.40625 
Q 44.1875 33.984375 37.640625 27.21875 
Q 31.109375 20.453125 19.1875 8.296875 
z
" id="DejaVuSans-32"/>
      </defs>
      <g transform="translate(128.914071 317.076875)scale(0.2 -0.2)">
       <use xlink:href="#DejaVuSans-32"/>
      </g>
     </g>
    </g>
    <g id="xtick_3">
     <g id="line2d_5">
      <path clip-path="url(#pb3f7120d4a)" d="M 214.433143 294.88 
L 214.433143 6.845228 
" style="fill:none;stroke:#b0b0b0;stroke-linecap:square;stroke-width:0.8;"/>
     </g>
     <g id="line2d_6">
      <g>
       <use style="stroke:#000000;stroke-width:0.8;" x="214.433143" xlink:href="#m90e3d6e187" y="294.88"/>
      </g>
     </g>
     <g id="text_3">
      <!-- 4 -->
      <defs>
       <path d="M 37.796875 64.3125 
L 12.890625 25.390625 
L 37.796875 25.390625 
z
M 35.203125 72.90625 
L 47.609375 72.90625 
L 47.609375 25.390625 
L 58.015625 25.390625 
L 58.015625 17.1875 
L 47.609375 17.1875 
L 47.609375 0 
L 37.796875 0 
L 37.796875 17.1875 
L 4.890625 17.1875 
L 4.890625 26.703125 
z
" id="DejaVuSans-34"/>
      </defs>
      <g transform="translate(208.070643 317.076875)scale(0.2 -0.2)">
       <use xlink:href="#DejaVuSans-34"/>
      </g>
     </g>
    </g>
    <g id="xtick_4">
     <g id="line2d_7">
      <path clip-path="url(#pb3f7120d4a)" d="M 293.589714 294.88 
L 293.589714 6.845228 
" style="fill:none;stroke:#b0b0b0;stroke-linecap:square;stroke-width:0.8;"/>
     </g>
     <g id="line2d_8">
      <g>
       <use style="stroke:#000000;stroke-width:0.8;" x="293.589714" xlink:href="#m90e3d6e187" y="294.88"/>
      </g>
     </g>
     <g id="text_4">
      <!-- 6 -->
      <defs>
       <path d="M 33.015625 40.375 
Q 26.375 40.375 22.484375 35.828125 
Q 18.609375 31.296875 18.609375 23.390625 
Q 18.609375 15.53125 22.484375 10.953125 
Q 26.375 6.390625 33.015625 6.390625 
Q 39.65625 6.390625 43.53125 10.953125 
Q 47.40625 15.53125 47.40625 23.390625 
Q 47.40625 31.296875 43.53125 35.828125 
Q 39.65625 40.375 33.015625 40.375 
z
M 52.59375 71.296875 
L 52.59375 62.3125 
Q 48.875 64.0625 45.09375 64.984375 
Q 41.3125 65.921875 37.59375 65.921875 
Q 27.828125 65.921875 22.671875 59.328125 
Q 17.53125 52.734375 16.796875 39.40625 
Q 19.671875 43.65625 24.015625 45.921875 
Q 28.375 48.1875 33.59375 48.1875 
Q 44.578125 48.1875 50.953125 41.515625 
Q 57.328125 34.859375 57.328125 23.390625 
Q 57.328125 12.15625 50.6875 5.359375 
Q 44.046875 -1.421875 33.015625 -1.421875 
Q 20.359375 -1.421875 13.671875 8.265625 
Q 6.984375 17.96875 6.984375 36.375 
Q 6.984375 53.65625 15.1875 63.9375 
Q 23.390625 74.21875 37.203125 74.21875 
Q 40.921875 74.21875 44.703125 73.484375 
Q 48.484375 72.75 52.59375 71.296875 
z
" id="DejaVuSans-36"/>
      </defs>
      <g transform="translate(287.227214 317.076875)scale(0.2 -0.2)">
       <use xlink:href="#DejaVuSans-36"/>
      </g>
     </g>
    </g>
    <g id="xtick_5">
     <g id="line2d_9">
      <path clip-path="url(#pb3f7120d4a)" d="M 56.12 294.88 
L 56.12 6.845228 
" style="fill:none;stroke:#b0b0b0;stroke-linecap:square;stroke-width:0.8;"/>
     </g>
     <g id="line2d_10">
      <defs>
       <path d="M 0 0 
L 0 2 
" id="meb08a40e10" style="stroke:#000000;stroke-width:0.6;"/>
      </defs>
      <g>
       <use style="stroke:#000000;stroke-width:0.6;" x="56.12" xlink:href="#meb08a40e10" y="294.88"/>
      </g>
     </g>
    </g>
    <g id="xtick_6">
     <g id="line2d_11">
      <path clip-path="url(#pb3f7120d4a)" d="M 95.698286 294.88 
L 95.698286 6.845228 
" style="fill:none;stroke:#b0b0b0;stroke-linecap:square;stroke-width:0.8;"/>
     </g>
     <g id="line2d_12">
      <g>
       <use style="stroke:#000000;stroke-width:0.6;" x="95.698286" xlink:href="#meb08a40e10" y="294.88"/>
      </g>
     </g>
    </g>
    <g id="xtick_7">
     <g id="line2d_13">
      <path clip-path="url(#pb3f7120d4a)" d="M 135.276571 294.88 
L 135.276571 6.845228 
" style="fill:none;stroke:#b0b0b0;stroke-linecap:square;stroke-width:0.8;"/>
     </g>
     <g id="line2d_14">
      <g>
       <use style="stroke:#000000;stroke-width:0.6;" x="135.276571" xlink:href="#meb08a40e10" y="294.88"/>
      </g>
     </g>
    </g>
    <g id="xtick_8">
     <g id="line2d_15">
      <path clip-path="url(#pb3f7120d4a)" d="M 174.854857 294.88 
L 174.854857 6.845228 
" style="fill:none;stroke:#b0b0b0;stroke-linecap:square;stroke-width:0.8;"/>
     </g>
     <g id="line2d_16">
      <g>
       <use style="stroke:#000000;stroke-width:0.6;" x="174.854857" xlink:href="#meb08a40e10" y="294.88"/>
      </g>
     </g>
    </g>
    <g id="xtick_9">
     <g id="line2d_17">
      <path clip-path="url(#pb3f7120d4a)" d="M 214.433143 294.88 
L 214.433143 6.845228 
" style="fill:none;stroke:#b0b0b0;stroke-linecap:square;stroke-width:0.8;"/>
     </g>
     <g id="line2d_18">
      <g>
       <use style="stroke:#000000;stroke-width:0.6;" x="214.433143" xlink:href="#meb08a40e10" y="294.88"/>
      </g>
     </g>
    </g>
    <g id="xtick_10">
     <g id="line2d_19">
      <path clip-path="url(#pb3f7120d4a)" d="M 254.011429 294.88 
L 254.011429 6.845228 
" style="fill:none;stroke:#b0b0b0;stroke-linecap:square;stroke-width:0.8;"/>
     </g>
     <g id="line2d_20">
      <g>
       <use style="stroke:#000000;stroke-width:0.6;" x="254.011429" xlink:href="#meb08a40e10" y="294.88"/>
      </g>
     </g>
    </g>
    <g id="xtick_11">
     <g id="line2d_21">
      <path clip-path="url(#pb3f7120d4a)" d="M 293.589714 294.88 
L 293.589714 6.845228 
" style="fill:none;stroke:#b0b0b0;stroke-linecap:square;stroke-width:0.8;"/>
     </g>
     <g id="line2d_22">
      <g>
       <use style="stroke:#000000;stroke-width:0.6;" x="293.589714" xlink:href="#meb08a40e10" y="294.88"/>
      </g>
     </g>
    </g>
    <g id="xtick_12">
     <g id="line2d_23">
      <path clip-path="url(#pb3f7120d4a)" d="M 333.168 294.88 
L 333.168 6.845228 
" style="fill:none;stroke:#b0b0b0;stroke-linecap:square;stroke-width:0.8;"/>
     </g>
     <g id="line2d_24">
      <g>
       <use style="stroke:#000000;stroke-width:0.6;" x="333.168" xlink:href="#meb08a40e10" y="294.88"/>
      </g>
     </g>
    </g>
    <g id="text_5">
     <!-- log10(# f-evals / dimension) -->
     <defs>
      <path d="M 9.421875 75.984375 
L 18.40625 75.984375 
L 18.40625 0 
L 9.421875 0 
z
" id="DejaVuSans-6c"/>
      <path d="M 30.609375 48.390625 
Q 23.390625 48.390625 19.1875 42.75 
Q 14.984375 37.109375 14.984375 27.296875 
Q 14.984375 17.484375 19.15625 11.84375 
Q 23.34375 6.203125 30.609375 6.203125 
Q 37.796875 6.203125 41.984375 11.859375 
Q 46.1875 17.53125 46.1875 27.296875 
Q 46.1875 37.015625 41.984375 42.703125 
Q 37.796875 48.390625 30.609375 48.390625 
z
M 30.609375 56 
Q 42.328125 56 49.015625 48.375 
Q 55.71875 40.765625 55.71875 27.296875 
Q 55.71875 13.875 49.015625 6.21875 
Q 42.328125 -1.421875 30.609375 -1.421875 
Q 18.84375 -1.421875 12.171875 6.21875 
Q 5.515625 13.875 5.515625 27.296875 
Q 5.515625 40.765625 12.171875 48.375 
Q 18.84375 56 30.609375 56 
z
" id="DejaVuSans-6f"/>
      <path d="M 45.40625 27.984375 
Q 45.40625 37.75 41.375 43.109375 
Q 37.359375 48.484375 30.078125 48.484375 
Q 22.859375 48.484375 18.828125 43.109375 
Q 14.796875 37.75 14.796875 27.984375 
Q 14.796875 18.265625 18.828125 12.890625 
Q 22.859375 7.515625 30.078125 7.515625 
Q 37.359375 7.515625 41.375 12.890625 
Q 45.40625 18.265625 45.40625 27.984375 
z
M 54.390625 6.78125 
Q 54.390625 -7.171875 48.1875 -13.984375 
Q 42 -20.796875 29.203125 -20.796875 
Q 24.46875 -20.796875 20.265625 -20.09375 
Q 16.0625 -19.390625 12.109375 -17.921875 
L 12.109375 -9.1875 
Q 16.0625 -11.328125 19.921875 -12.34375 
Q 23.78125 -13.375 27.78125 -13.375 
Q 36.625 -13.375 41.015625 -8.765625 
Q 45.40625 -4.15625 45.40625 5.171875 
L 45.40625 9.625 
Q 42.625 4.78125 38.28125 2.390625 
Q 33.9375 0 27.875 0 
Q 17.828125 0 11.671875 7.65625 
Q 5.515625 15.328125 5.515625 27.984375 
Q 5.515625 40.671875 11.671875 48.328125 
Q 17.828125 56 27.875 56 
Q 33.9375 56 38.28125 53.609375 
Q 42.625 51.21875 45.40625 46.390625 
L 45.40625 54.6875 
L 54.390625 54.6875 
z
" id="DejaVuSans-67"/>
      <path d="M 12.40625 8.296875 
L 28.515625 8.296875 
L 28.515625 63.921875 
L 10.984375 60.40625 
L 10.984375 69.390625 
L 28.421875 72.90625 
L 38.28125 72.90625 
L 38.28125 8.296875 
L 54.390625 8.296875 
L 54.390625 0 
L 12.40625 0 
z
" id="DejaVuSans-31"/>
      <path d="M 31 75.875 
Q 24.46875 64.65625 21.28125 53.65625 
Q 18.109375 42.671875 18.109375 31.390625 
Q 18.109375 20.125 21.3125 9.0625 
Q 24.515625 -2 31 -13.1875 
L 23.1875 -13.1875 
Q 15.875 -1.703125 12.234375 9.375 
Q 8.59375 20.453125 8.59375 31.390625 
Q 8.59375 42.28125 12.203125 53.3125 
Q 15.828125 64.359375 23.1875 75.875 
z
" id="DejaVuSans-28"/>
      <path d="M 51.125 44 
L 36.921875 44 
L 32.8125 27.6875 
L 47.125 27.6875 
z
M 43.796875 71.78125 
L 38.71875 51.515625 
L 52.984375 51.515625 
L 58.109375 71.78125 
L 65.921875 71.78125 
L 60.890625 51.515625 
L 76.125 51.515625 
L 76.125 44 
L 58.984375 44 
L 54.984375 27.6875 
L 70.515625 27.6875 
L 70.515625 20.21875 
L 53.078125 20.21875 
L 48 0 
L 40.1875 0 
L 45.21875 20.21875 
L 30.90625 20.21875 
L 25.875 0 
L 18.015625 0 
L 23.09375 20.21875 
L 7.71875 20.21875 
L 7.71875 27.6875 
L 24.90625 27.6875 
L 29 44 
L 13.28125 44 
L 13.28125 51.515625 
L 30.90625 51.515625 
L 35.890625 71.78125 
z
" id="DejaVuSans-23"/>
      <path id="DejaVuSans-20"/>
      <path d="M 37.109375 75.984375 
L 37.109375 68.5 
L 28.515625 68.5 
Q 23.6875 68.5 21.796875 66.546875 
Q 19.921875 64.59375 19.921875 59.515625 
L 19.921875 54.6875 
L 34.71875 54.6875 
L 34.71875 47.703125 
L 19.921875 47.703125 
L 19.921875 0 
L 10.890625 0 
L 10.890625 47.703125 
L 2.296875 47.703125 
L 2.296875 54.6875 
L 10.890625 54.6875 
L 10.890625 58.5 
Q 10.890625 67.625 15.140625 71.796875 
Q 19.390625 75.984375 28.609375 75.984375 
z
" id="DejaVuSans-66"/>
      <path d="M 4.890625 31.390625 
L 31.203125 31.390625 
L 31.203125 23.390625 
L 4.890625 23.390625 
z
" id="DejaVuSans-2d"/>
      <path d="M 56.203125 29.59375 
L 56.203125 25.203125 
L 14.890625 25.203125 
Q 15.484375 15.921875 20.484375 11.0625 
Q 25.484375 6.203125 34.421875 6.203125 
Q 39.59375 6.203125 44.453125 7.46875 
Q 49.3125 8.734375 54.109375 11.28125 
L 54.109375 2.78125 
Q 49.265625 0.734375 44.1875 -0.34375 
Q 39.109375 -1.421875 33.890625 -1.421875 
Q 20.796875 -1.421875 13.15625 6.1875 
Q 5.515625 13.8125 5.515625 26.8125 
Q 5.515625 40.234375 12.765625 48.109375 
Q 20.015625 56 32.328125 56 
Q 43.359375 56 49.78125 48.890625 
Q 56.203125 41.796875 56.203125 29.59375 
z
M 47.21875 32.234375 
Q 47.125 39.59375 43.09375 43.984375 
Q 39.0625 48.390625 32.421875 48.390625 
Q 24.90625 48.390625 20.390625 44.140625 
Q 15.875 39.890625 15.1875 32.171875 
z
" id="DejaVuSans-65"/>
      <path d="M 2.984375 54.6875 
L 12.5 54.6875 
L 29.59375 8.796875 
L 46.6875 54.6875 
L 56.203125 54.6875 
L 35.6875 0 
L 23.484375 0 
z
" id="DejaVuSans-76"/>
      <path d="M 34.28125 27.484375 
Q 23.390625 27.484375 19.1875 25 
Q 14.984375 22.515625 14.984375 16.5 
Q 14.984375 11.71875 18.140625 8.90625 
Q 21.296875 6.109375 26.703125 6.109375 
Q 34.1875 6.109375 38.703125 11.40625 
Q 43.21875 16.703125 43.21875 25.484375 
L 43.21875 27.484375 
z
M 52.203125 31.203125 
L 52.203125 0 
L 43.21875 0 
L 43.21875 8.296875 
Q 40.140625 3.328125 35.546875 0.953125 
Q 30.953125 -1.421875 24.3125 -1.421875 
Q 15.921875 -1.421875 10.953125 3.296875 
Q 6 8.015625 6 15.921875 
Q 6 25.140625 12.171875 29.828125 
Q 18.359375 34.515625 30.609375 34.515625 
L 43.21875 34.515625 
L 43.21875 35.40625 
Q 43.21875 41.609375 39.140625 45 
Q 35.0625 48.390625 27.6875 48.390625 
Q 23 48.390625 18.546875 47.265625 
Q 14.109375 46.140625 10.015625 43.890625 
L 10.015625 52.203125 
Q 14.9375 54.109375 19.578125 55.046875 
Q 24.21875 56 28.609375 56 
Q 40.484375 56 46.34375 49.84375 
Q 52.203125 43.703125 52.203125 31.203125 
z
" id="DejaVuSans-61"/>
      <path d="M 44.28125 53.078125 
L 44.28125 44.578125 
Q 40.484375 46.53125 36.375 47.5 
Q 32.28125 48.484375 27.875 48.484375 
Q 21.1875 48.484375 17.84375 46.4375 
Q 14.5 44.390625 14.5 40.28125 
Q 14.5 37.15625 16.890625 35.375 
Q 19.28125 33.59375 26.515625 31.984375 
L 29.59375 31.296875 
Q 39.15625 29.25 43.1875 25.515625 
Q 47.21875 21.78125 47.21875 15.09375 
Q 47.21875 7.46875 41.1875 3.015625 
Q 35.15625 -1.421875 24.609375 -1.421875 
Q 20.21875 -1.421875 15.453125 -0.5625 
Q 10.6875 0.296875 5.421875 2 
L 5.421875 11.28125 
Q 10.40625 8.6875 15.234375 7.390625 
Q 20.0625 6.109375 24.8125 6.109375 
Q 31.15625 6.109375 34.5625 8.28125 
Q 37.984375 10.453125 37.984375 14.40625 
Q 37.984375 18.0625 35.515625 20.015625 
Q 33.0625 21.96875 24.703125 23.78125 
L 21.578125 24.515625 
Q 13.234375 26.265625 9.515625 29.90625 
Q 5.8125 33.546875 5.8125 39.890625 
Q 5.8125 47.609375 11.28125 51.796875 
Q 16.75 56 26.8125 56 
Q 31.78125 56 36.171875 55.265625 
Q 40.578125 54.546875 44.28125 53.078125 
z
" id="DejaVuSans-73"/>
      <path d="M 25.390625 72.90625 
L 33.6875 72.90625 
L 8.296875 -9.28125 
L 0 -9.28125 
z
" id="DejaVuSans-2f"/>
      <path d="M 45.40625 46.390625 
L 45.40625 75.984375 
L 54.390625 75.984375 
L 54.390625 0 
L 45.40625 0 
L 45.40625 8.203125 
Q 42.578125 3.328125 38.25 0.953125 
Q 33.9375 -1.421875 27.875 -1.421875 
Q 17.96875 -1.421875 11.734375 6.484375 
Q 5.515625 14.40625 5.515625 27.296875 
Q 5.515625 40.1875 11.734375 48.09375 
Q 17.96875 56 27.875 56 
Q 33.9375 56 38.25 53.625 
Q 42.578125 51.265625 45.40625 46.390625 
z
M 14.796875 27.296875 
Q 14.796875 17.390625 18.875 11.75 
Q 22.953125 6.109375 30.078125 6.109375 
Q 37.203125 6.109375 41.296875 11.75 
Q 45.40625 17.390625 45.40625 27.296875 
Q 45.40625 37.203125 41.296875 42.84375 
Q 37.203125 48.484375 30.078125 48.484375 
Q 22.953125 48.484375 18.875 42.84375 
Q 14.796875 37.203125 14.796875 27.296875 
z
" id="DejaVuSans-64"/>
      <path d="M 9.421875 54.6875 
L 18.40625 54.6875 
L 18.40625 0 
L 9.421875 0 
z
M 9.421875 75.984375 
L 18.40625 75.984375 
L 18.40625 64.59375 
L 9.421875 64.59375 
z
" id="DejaVuSans-69"/>
      <path d="M 52 44.1875 
Q 55.375 50.25 60.0625 53.125 
Q 64.75 56 71.09375 56 
Q 79.640625 56 84.28125 50.015625 
Q 88.921875 44.046875 88.921875 33.015625 
L 88.921875 0 
L 79.890625 0 
L 79.890625 32.71875 
Q 79.890625 40.578125 77.09375 44.375 
Q 74.3125 48.1875 68.609375 48.1875 
Q 61.625 48.1875 57.5625 43.546875 
Q 53.515625 38.921875 53.515625 30.90625 
L 53.515625 0 
L 44.484375 0 
L 44.484375 32.71875 
Q 44.484375 40.625 41.703125 44.40625 
Q 38.921875 48.1875 33.109375 48.1875 
Q 26.21875 48.1875 22.15625 43.53125 
Q 18.109375 38.875 18.109375 30.90625 
L 18.109375 0 
L 9.078125 0 
L 9.078125 54.6875 
L 18.109375 54.6875 
L 18.109375 46.1875 
Q 21.1875 51.21875 25.484375 53.609375 
Q 29.78125 56 35.6875 56 
Q 41.65625 56 45.828125 52.96875 
Q 50 49.953125 52 44.1875 
z
" id="DejaVuSans-6d"/>
      <path d="M 54.890625 33.015625 
L 54.890625 0 
L 45.90625 0 
L 45.90625 32.71875 
Q 45.90625 40.484375 42.875 44.328125 
Q 39.84375 48.1875 33.796875 48.1875 
Q 26.515625 48.1875 22.3125 43.546875 
Q 18.109375 38.921875 18.109375 30.90625 
L 18.109375 0 
L 9.078125 0 
L 9.078125 54.6875 
L 18.109375 54.6875 
L 18.109375 46.1875 
Q 21.34375 51.125 25.703125 53.5625 
Q 30.078125 56 35.796875 56 
Q 45.21875 56 50.046875 50.171875 
Q 54.890625 44.34375 54.890625 33.015625 
z
" id="DejaVuSans-6e"/>
      <path d="M 8.015625 75.875 
L 15.828125 75.875 
Q 23.140625 64.359375 26.78125 53.3125 
Q 30.421875 42.28125 30.421875 31.390625 
Q 30.421875 20.453125 26.78125 9.375 
Q 23.140625 -1.703125 15.828125 -13.1875 
L 8.015625 -13.1875 
Q 14.5 -2 17.703125 9.0625 
Q 20.90625 20.125 20.90625 31.390625 
Q 20.90625 42.671875 17.703125 53.65625 
Q 14.5 64.65625 8.015625 75.875 
z
" id="DejaVuSans-29"/>
     </defs>
     <g transform="translate(73.803219 338.153594)scale(0.17 -0.17)">
      <use xlink:href="#DejaVuSans-6c"/>
      <use x="27.783203" xlink:href="#DejaVuSans-6f"/>
      <use x="88.964844" xlink:href="#DejaVuSans-67"/>
      <use x="152.441406" xlink:href="#DejaVuSans-31"/>
      <use x="216.064453" xlink:href="#DejaVuSans-30"/>
      <use x="279.6875" xlink:href="#DejaVuSans-28"/>
      <use x="318.701172" xlink:href="#DejaVuSans-23"/>
      <use x="402.490234" xlink:href="#DejaVuSans-20"/>
      <use x="434.277344" xlink:href="#DejaVuSans-66"/>
      <use x="469.404297" xlink:href="#DejaVuSans-2d"/>
      <use x="505.488281" xlink:href="#DejaVuSans-65"/>
      <use x="567.011719" xlink:href="#DejaVuSans-76"/>
      <use x="626.191406" xlink:href="#DejaVuSans-61"/>
      <use x="687.470703" xlink:href="#DejaVuSans-6c"/>
      <use x="715.253906" xlink:href="#DejaVuSans-73"/>
      <use x="767.353516" xlink:href="#DejaVuSans-20"/>
      <use x="799.140625" xlink:href="#DejaVuSans-2f"/>
      <use x="832.832031" xlink:href="#DejaVuSans-20"/>
      <use x="864.619141" xlink:href="#DejaVuSans-64"/>
      <use x="928.095703" xlink:href="#DejaVuSans-69"/>
      <use x="955.878906" xlink:href="#DejaVuSans-6d"/>
      <use x="1053.291016" xlink:href="#DejaVuSans-65"/>
      <use x="1114.814453" xlink:href="#DejaVuSans-6e"/>
      <use x="1178.193359" xlink:href="#DejaVuSans-73"/>
      <use x="1230.292969" xlink:href="#DejaVuSans-69"/>
      <use x="1258.076172" xlink:href="#DejaVuSans-6f"/>
      <use x="1319.257812" xlink:href="#DejaVuSans-6e"/>
      <use x="1382.636719" xlink:href="#DejaVuSans-29"/>
     </g>
    </g>
   </g>
   <g id="matplotlib.axis_2">
    <g id="ytick_1">
     <g id="line2d_25">
      <path clip-path="url(#pb3f7120d4a)" d="M 56.12 294.88 
L 333.168 294.88 
" style="fill:none;stroke:#b0b0b0;stroke-linecap:square;stroke-width:0.8;"/>
     </g>
     <g id="line2d_26">
      <defs>
       <path d="M 0 0 
L -3.5 0 
" id="m093f9f0a39" style="stroke:#000000;stroke-width:0.8;"/>
      </defs>
      <g>
       <use style="stroke:#000000;stroke-width:0.8;" x="56.12" xlink:href="#m093f9f0a39" y="294.88"/>
      </g>
     </g>
     <g id="text_6">
      <!-- 0.0 -->
      <defs>
       <path d="M 10.6875 12.40625 
L 21 12.40625 
L 21 0 
L 10.6875 0 
z
" id="DejaVuSans-2e"/>
      </defs>
      <g transform="translate(23.675 300.95875)scale(0.16 -0.16)">
       <use xlink:href="#DejaVuSans-30"/>
       <use x="63.623047" xlink:href="#DejaVuSans-2e"/>
       <use x="95.410156" xlink:href="#DejaVuSans-30"/>
      </g>
     </g>
    </g>
    <g id="ytick_2">
     <g id="line2d_27">
      <path clip-path="url(#pb3f7120d4a)" d="M 56.12 237.843411 
L 333.168 237.843411 
" style="fill:none;stroke:#b0b0b0;stroke-linecap:square;stroke-width:0.8;"/>
     </g>
     <g id="line2d_28">
      <g>
       <use style="stroke:#000000;stroke-width:0.8;" x="56.12" xlink:href="#m093f9f0a39" y="237.843411"/>
      </g>
     </g>
     <g id="text_7">
      <!-- 0.2 -->
      <g transform="translate(23.675 243.922161)scale(0.16 -0.16)">
       <use xlink:href="#DejaVuSans-30"/>
       <use x="63.623047" xlink:href="#DejaVuSans-2e"/>
       <use x="95.410156" xlink:href="#DejaVuSans-32"/>
      </g>
     </g>
    </g>
    <g id="ytick_3">
     <g id="line2d_29">
      <path clip-path="url(#pb3f7120d4a)" d="M 56.12 180.806823 
L 333.168 180.806823 
" style="fill:none;stroke:#b0b0b0;stroke-linecap:square;stroke-width:0.8;"/>
     </g>
     <g id="line2d_30">
      <g>
       <use style="stroke:#000000;stroke-width:0.8;" x="56.12" xlink:href="#m093f9f0a39" y="180.806823"/>
      </g>
     </g>
     <g id="text_8">
      <!-- 0.4 -->
      <g transform="translate(23.675 186.885573)scale(0.16 -0.16)">
       <use xlink:href="#DejaVuSans-30"/>
       <use x="63.623047" xlink:href="#DejaVuSans-2e"/>
       <use x="95.410156" xlink:href="#DejaVuSans-34"/>
      </g>
     </g>
    </g>
    <g id="ytick_4">
     <g id="line2d_31">
      <path clip-path="url(#pb3f7120d4a)" d="M 56.12 123.770234 
L 333.168 123.770234 
" style="fill:none;stroke:#b0b0b0;stroke-linecap:square;stroke-width:0.8;"/>
     </g>
     <g id="line2d_32">
      <g>
       <use style="stroke:#000000;stroke-width:0.8;" x="56.12" xlink:href="#m093f9f0a39" y="123.770234"/>
      </g>
     </g>
     <g id="text_9">
      <!-- 0.6 -->
      <g transform="translate(23.675 129.848984)scale(0.16 -0.16)">
       <use xlink:href="#DejaVuSans-30"/>
       <use x="63.623047" xlink:href="#DejaVuSans-2e"/>
       <use x="95.410156" xlink:href="#DejaVuSans-36"/>
      </g>
     </g>
    </g>
    <g id="ytick_5">
     <g id="line2d_33">
      <path clip-path="url(#pb3f7120d4a)" d="M 56.12 66.733646 
L 333.168 66.733646 
" style="fill:none;stroke:#b0b0b0;stroke-linecap:square;stroke-width:0.8;"/>
     </g>
     <g id="line2d_34">
      <g>
       <use style="stroke:#000000;stroke-width:0.8;" x="56.12" xlink:href="#m093f9f0a39" y="66.733646"/>
      </g>
     </g>
     <g id="text_10">
      <!-- 0.8 -->
      <defs>
       <path d="M 31.78125 34.625 
Q 24.75 34.625 20.71875 30.859375 
Q 16.703125 27.09375 16.703125 20.515625 
Q 16.703125 13.921875 20.71875 10.15625 
Q 24.75 6.390625 31.78125 6.390625 
Q 38.8125 6.390625 42.859375 10.171875 
Q 46.921875 13.96875 46.921875 20.515625 
Q 46.921875 27.09375 42.890625 30.859375 
Q 38.875 34.625 31.78125 34.625 
z
M 21.921875 38.8125 
Q 15.578125 40.375 12.03125 44.71875 
Q 8.5 49.078125 8.5 55.328125 
Q 8.5 64.0625 14.71875 69.140625 
Q 20.953125 74.21875 31.78125 74.21875 
Q 42.671875 74.21875 48.875 69.140625 
Q 55.078125 64.0625 55.078125 55.328125 
Q 55.078125 49.078125 51.53125 44.71875 
Q 48 40.375 41.703125 38.8125 
Q 48.828125 37.15625 52.796875 32.3125 
Q 56.78125 27.484375 56.78125 20.515625 
Q 56.78125 9.90625 50.3125 4.234375 
Q 43.84375 -1.421875 31.78125 -1.421875 
Q 19.734375 -1.421875 13.25 4.234375 
Q 6.78125 9.90625 6.78125 20.515625 
Q 6.78125 27.484375 10.78125 32.3125 
Q 14.796875 37.15625 21.921875 38.8125 
z
M 18.3125 54.390625 
Q 18.3125 48.734375 21.84375 45.5625 
Q 25.390625 42.390625 31.78125 42.390625 
Q 38.140625 42.390625 41.71875 45.5625 
Q 45.3125 48.734375 45.3125 54.390625 
Q 45.3125 60.0625 41.71875 63.234375 
Q 38.140625 66.40625 31.78125 66.40625 
Q 25.390625 66.40625 21.84375 63.234375 
Q 18.3125 60.0625 18.3125 54.390625 
z
" id="DejaVuSans-38"/>
      </defs>
      <g transform="translate(23.675 72.812396)scale(0.16 -0.16)">
       <use xlink:href="#DejaVuSans-30"/>
       <use x="63.623047" xlink:href="#DejaVuSans-2e"/>
       <use x="95.410156" xlink:href="#DejaVuSans-38"/>
      </g>
     </g>
    </g>
    <g id="ytick_6">
     <g id="line2d_35">
      <path clip-path="url(#pb3f7120d4a)" d="M 56.12 9.697057 
L 333.168 9.697057 
" style="fill:none;stroke:#b0b0b0;stroke-linecap:square;stroke-width:0.8;"/>
     </g>
     <g id="line2d_36">
      <g>
       <use style="stroke:#000000;stroke-width:0.8;" x="56.12" xlink:href="#m093f9f0a39" y="9.697057"/>
      </g>
     </g>
     <g id="text_11">
      <!-- 1.0 -->
      <g transform="translate(23.675 15.775807)scale(0.16 -0.16)">
       <use xlink:href="#DejaVuSans-31"/>
       <use x="63.623047" xlink:href="#DejaVuSans-2e"/>
       <use x="95.410156" xlink:href="#DejaVuSans-30"/>
      </g>
     </g>
    </g>
    <g id="text_12">
     <!-- Fraction of function,target pairs -->
     <defs>
      <path d="M 9.8125 72.90625 
L 51.703125 72.90625 
L 51.703125 64.59375 
L 19.671875 64.59375 
L 19.671875 43.109375 
L 48.578125 43.109375 
L 48.578125 34.8125 
L 19.671875 34.8125 
L 19.671875 0 
L 9.8125 0 
z
" id="DejaVuSans-46"/>
      <path d="M 41.109375 46.296875 
Q 39.59375 47.171875 37.8125 47.578125 
Q 36.03125 48 33.890625 48 
Q 26.265625 48 22.1875 43.046875 
Q 18.109375 38.09375 18.109375 28.8125 
L 18.109375 0 
L 9.078125 0 
L 9.078125 54.6875 
L 18.109375 54.6875 
L 18.109375 46.1875 
Q 20.953125 51.171875 25.484375 53.578125 
Q 30.03125 56 36.53125 56 
Q 37.453125 56 38.578125 55.875 
Q 39.703125 55.765625 41.0625 55.515625 
z
" id="DejaVuSans-72"/>
      <path d="M 48.78125 52.59375 
L 48.78125 44.1875 
Q 44.96875 46.296875 41.140625 47.34375 
Q 37.3125 48.390625 33.40625 48.390625 
Q 24.65625 48.390625 19.8125 42.84375 
Q 14.984375 37.3125 14.984375 27.296875 
Q 14.984375 17.28125 19.8125 11.734375 
Q 24.65625 6.203125 33.40625 6.203125 
Q 37.3125 6.203125 41.140625 7.25 
Q 44.96875 8.296875 48.78125 10.40625 
L 48.78125 2.09375 
Q 45.015625 0.34375 40.984375 -0.53125 
Q 36.96875 -1.421875 32.421875 -1.421875 
Q 20.0625 -1.421875 12.78125 6.34375 
Q 5.515625 14.109375 5.515625 27.296875 
Q 5.515625 40.671875 12.859375 48.328125 
Q 20.21875 56 33.015625 56 
Q 37.15625 56 41.109375 55.140625 
Q 45.0625 54.296875 48.78125 52.59375 
z
" id="DejaVuSans-63"/>
      <path d="M 18.3125 70.21875 
L 18.3125 54.6875 
L 36.8125 54.6875 
L 36.8125 47.703125 
L 18.3125 47.703125 
L 18.3125 18.015625 
Q 18.3125 11.328125 20.140625 9.421875 
Q 21.96875 7.515625 27.59375 7.515625 
L 36.8125 7.515625 
L 36.8125 0 
L 27.59375 0 
Q 17.1875 0 13.234375 3.875 
Q 9.28125 7.765625 9.28125 18.015625 
L 9.28125 47.703125 
L 2.6875 47.703125 
L 2.6875 54.6875 
L 9.28125 54.6875 
L 9.28125 70.21875 
z
" id="DejaVuSans-74"/>
      <path d="M 8.5 21.578125 
L 8.5 54.6875 
L 17.484375 54.6875 
L 17.484375 21.921875 
Q 17.484375 14.15625 20.5 10.265625 
Q 23.53125 6.390625 29.59375 6.390625 
Q 36.859375 6.390625 41.078125 11.03125 
Q 45.3125 15.671875 45.3125 23.6875 
L 45.3125 54.6875 
L 54.296875 54.6875 
L 54.296875 0 
L 45.3125 0 
L 45.3125 8.40625 
Q 42.046875 3.421875 37.71875 1 
Q 33.40625 -1.421875 27.6875 -1.421875 
Q 18.265625 -1.421875 13.375 4.4375 
Q 8.5 10.296875 8.5 21.578125 
z
M 31.109375 56 
z
" id="DejaVuSans-75"/>
      <path d="M 11.71875 12.40625 
L 22.015625 12.40625 
L 22.015625 4 
L 14.015625 -11.625 
L 7.71875 -11.625 
L 11.71875 4 
z
" id="DejaVuSans-2c"/>
      <path d="M 18.109375 8.203125 
L 18.109375 -20.796875 
L 9.078125 -20.796875 
L 9.078125 54.6875 
L 18.109375 54.6875 
L 18.109375 46.390625 
Q 20.953125 51.265625 25.265625 53.625 
Q 29.59375 56 35.59375 56 
Q 45.5625 56 51.78125 48.09375 
Q 58.015625 40.1875 58.015625 27.296875 
Q 58.015625 14.40625 51.78125 6.484375 
Q 45.5625 -1.421875 35.59375 -1.421875 
Q 29.59375 -1.421875 25.265625 0.953125 
Q 20.953125 3.328125 18.109375 8.203125 
z
M 48.6875 27.296875 
Q 48.6875 37.203125 44.609375 42.84375 
Q 40.53125 48.484375 33.40625 48.484375 
Q 26.265625 48.484375 22.1875 42.84375 
Q 18.109375 37.203125 18.109375 27.296875 
Q 18.109375 17.390625 22.1875 11.75 
Q 26.265625 6.109375 33.40625 6.109375 
Q 40.53125 6.109375 44.609375 11.75 
Q 48.6875 17.390625 48.6875 27.296875 
z
" id="DejaVuSans-70"/>
     </defs>
     <g transform="translate(16.139531 286.001989)rotate(-90)scale(0.17 -0.17)">
      <use xlink:href="#DejaVuSans-46"/>
      <use x="57.410156" xlink:href="#DejaVuSans-72"/>
      <use x="98.523438" xlink:href="#DejaVuSans-61"/>
      <use x="159.802734" xlink:href="#DejaVuSans-63"/>
      <use x="214.783203" xlink:href="#DejaVuSans-74"/>
      <use x="253.992188" xlink:href="#DejaVuSans-69"/>
      <use x="281.775391" xlink:href="#DejaVuSans-6f"/>
      <use x="342.957031" xlink:href="#DejaVuSans-6e"/>
      <use x="406.335938" xlink:href="#DejaVuSans-20"/>
      <use x="438.123047" xlink:href="#DejaVuSans-6f"/>
      <use x="499.304688" xlink:href="#DejaVuSans-66"/>
      <use x="534.509766" xlink:href="#DejaVuSans-20"/>
      <use x="566.296875" xlink:href="#DejaVuSans-66"/>
      <use x="601.501953" xlink:href="#DejaVuSans-75"/>
      <use x="664.880859" xlink:href="#DejaVuSans-6e"/>
      <use x="728.259766" xlink:href="#DejaVuSans-63"/>
      <use x="783.240234" xlink:href="#DejaVuSans-74"/>
      <use x="822.449219" xlink:href="#DejaVuSans-69"/>
      <use x="850.232422" xlink:href="#DejaVuSans-6f"/>
      <use x="911.414062" xlink:href="#DejaVuSans-6e"/>
      <use x="974.792969" xlink:href="#DejaVuSans-2c"/>
      <use x="1006.580078" xlink:href="#DejaVuSans-74"/>
      <use x="1045.789062" xlink:href="#DejaVuSans-61"/>
      <use x="1107.068359" xlink:href="#DejaVuSans-72"/>
      <use x="1148.166016" xlink:href="#DejaVuSans-67"/>
      <use x="1211.642578" xlink:href="#DejaVuSans-65"/>
      <use x="1273.166016" xlink:href="#DejaVuSans-74"/>
      <use x="1312.375" xlink:href="#DejaVuSans-20"/>
      <use x="1344.162109" xlink:href="#DejaVuSans-70"/>
      <use x="1407.638672" xlink:href="#DejaVuSans-61"/>
      <use x="1468.917969" xlink:href="#DejaVuSans-69"/>
      <use x="1496.701172" xlink:href="#DejaVuSans-72"/>
      <use x="1537.814453" xlink:href="#DejaVuSans-73"/>
     </g>
    </g>
   </g>
   <g id="line2d_37">
    <defs>
     <path d="M 0 1.5 
C 0.397805 1.5 0.77937 1.341951 1.06066 1.06066 
C 1.341951 0.77937 1.5 0.397805 1.5 0 
C 1.5 -0.397805 1.341951 -0.77937 1.06066 -1.06066 
C 0.77937 -1.341951 0.397805 -1.5 0 -1.5 
C -0.397805 -1.5 -0.77937 -1.341951 -1.06066 -1.06066 
C -1.341951 -0.77937 -1.5 -0.397805 -1.5 0 
C -1.5 0.397805 -1.341951 0.77937 -1.06066 1.06066 
C -0.77937 1.341951 -0.397805 1.5 0 1.5 
z
" id="m268f9eaa8b" style="stroke:#000080;"/>
    </defs>
    <g>
     <use style="fill:#000080;stroke:#000080;" x="258.688635" xlink:href="#m268f9eaa8b" y="127.125328"/>
     <use style="fill:#000080;stroke:#000080;" x="258.688635" xlink:href="#m268f9eaa8b" y="127.125328"/>
    </g>
   </g>
   <g id="line2d_38">
    <path d="M 158.132707 294.88 
L 158.132707 293.761636 
L 160.922092 293.761636 
L 160.922092 291.524907 
L 161.581961 291.524907 
L 161.581961 290.965724 
L 161.759623 290.965724 
L 161.759623 290.406542 
L 162.551203 290.406542 
L 162.551203 288.728995 
L 162.69129 288.728995 
L 162.781739 284.255537 
L 162.809473 284.255537 
L 162.844079 283.137173 
L 163.401891 283.137173 
L 163.488686 282.018808 
L 163.805414 282.018808 
L 163.805414 281.459626 
L 164.377672 281.459626 
L 164.484845 279.782079 
L 164.553838 279.782079 
L 164.659921 278.104533 
L 164.882431 278.104533 
L 164.943731 276.426986 
L 165.198832 276.426986 
L 165.198832 275.867804 
L 165.598101 275.867804 
L 165.680372 274.190257 
L 166.171591 274.190257 
L 166.256838 271.394346 
L 166.324733 271.394346 
L 166.324733 270.835164 
L 166.532402 270.835164 
L 166.532402 270.275981 
L 166.69896 270.275981 
L 166.803618 269.157617 
L 166.967581 269.157617 
L 167.059803 266.920888 
L 167.242777 266.920888 
L 167.322886 263.006612 
L 167.402623 263.006612 
L 167.455577 261.329066 
L 167.597741 261.329066 
L 167.597741 260.769883 
L 167.91981 260.769883 
L 167.91981 260.210701 
L 168.042879 260.210701 
L 168.042879 259.651519 
L 168.154924 259.651519 
L 168.154924 259.092337 
L 168.521562 259.092337 
L 168.521562 258.533154 
L 168.79272 258.533154 
L 168.831808 257.41479 
L 169.322533 257.41479 
L 169.369897 253.500514 
L 169.914579 253.500514 
L 169.914579 252.941332 
L 170.482478 252.941332 
L 170.482478 251.822967 
L 170.672068 251.822967 
L 170.724606 247.908692 
L 171.075097 247.908692 
L 171.075097 247.34951 
L 171.951833 247.34951 
L 171.951833 246.790327 
L 172.134024 246.790327 
L 172.134024 246.231145 
L 174.038208 246.231145 
L 174.038208 244.553598 
L 174.72026 244.553598 
L 174.72026 243.994416 
L 176.27927 243.994416 
L 176.27927 242.876052 
L 176.402238 242.876052 
L 176.402238 241.757687 
L 179.671183 241.757687 
L 179.671183 241.198505 
L 180.405972 241.198505 
L 180.405972 240.639323 
L 181.136891 240.639323 
L 181.23204 239.520958 
L 182.274373 239.520958 
L 182.274373 238.961776 
L 182.689056 238.961776 
L 182.730414 237.284229 
L 183.204302 237.284229 
L 183.204302 236.725047 
L 183.378957 236.725047 
L 183.378957 236.165865 
L 183.886423 236.165865 
L 183.945271 235.0475 
L 184.479779 235.0475 
L 184.479779 234.488318 
L 185.07611 234.488318 
L 185.155591 233.369954 
L 185.591807 233.369954 
L 185.591807 232.810771 
L 186.129987 232.810771 
L 186.129987 232.251589 
L 186.425359 232.251589 
L 186.425359 231.133225 
L 186.599829 231.133225 
L 186.620647 230.01486 
L 186.755352 230.01486 
L 186.755352 229.455678 
L 191.06057 229.455678 
L 191.06057 228.896496 
L 191.620467 228.896496 
L 191.725138 226.100584 
L 191.738017 226.100584 
L 191.738017 225.541402 
L 191.97708 225.541402 
L 192.00372 223.863855 
L 192.15265 223.863855 
L 192.15265 223.304673 
L 192.36993 223.304673 
L 192.36993 222.745491 
L 192.525574 222.745491 
L 192.593074 217.712851 
L 192.692003 217.712851 
L 192.692003 217.153669 
L 192.836319 217.153669 
L 192.836319 216.594486 
L 192.999781 216.594486 
L 192.999781 214.91694 
L 193.451938 214.91694 
L 193.451938 214.357757 
L 193.661551 214.357757 
L 193.661551 213.798575 
L 193.925408 213.798575 
L 193.925408 213.239393 
L 194.338667 213.239393 
L 194.338667 212.680211 
L 195.065597 212.680211 
L 195.065597 212.121028 
L 195.896958 212.121028 
L 195.896958 211.561846 
L 196.87904 211.561846 
L 196.965685 210.443482 
L 197.166801 210.443482 
L 197.166801 209.325117 
L 197.286538 209.325117 
L 197.291198 208.206753 
L 197.694615 208.206753 
L 197.716448 207.088388 
L 197.845969 207.088388 
L 197.948529 204.851659 
L 198.02996 204.851659 
L 198.02996 204.292477 
L 198.348376 204.292477 
L 198.454959 202.61493 
L 198.623094 202.61493 
L 198.685938 201.496566 
L 198.763101 201.496566 
L 198.792162 200.378201 
L 201.086423 200.378201 
L 201.086423 199.819019 
L 201.354103 199.819019 
L 201.354103 199.259837 
L 201.904372 199.259837 
L 201.904372 198.700655 
L 202.054777 198.700655 
L 202.118936 197.58229 
L 202.417524 197.58229 
L 202.417524 197.023108 
L 202.630598 197.023108 
L 202.630598 195.904743 
L 202.759898 195.904743 
L 202.759898 195.345561 
L 202.882175 195.345561 
L 202.975491 194.227197 
L 204.533028 194.227197 
L 204.588587 193.108832 
L 204.717932 193.108832 
L 204.795196 190.872103 
L 205.158706 190.872103 
L 205.158706 190.312921 
L 205.488677 190.312921 
L 205.559103 188.635374 
L 205.656187 188.635374 
L 205.719084 185.839463 
L 205.781183 185.839463 
L 205.804484 184.721099 
L 207.530487 184.721099 
L 207.530487 183.602734 
L 207.683389 183.602734 
L 207.683389 183.043552 
L 207.894891 183.043552 
L 207.894891 182.48437 
L 208.090403 182.48437 
L 208.090403 181.925187 
L 208.36856 181.925187 
L 208.431554 180.806823 
L 208.611445 180.806823 
L 208.659612 179.688458 
L 210.003476 179.688458 
L 210.003476 177.451729 
L 210.518361 177.451729 
L 210.518361 176.892547 
L 210.643529 176.892547 
L 210.753746 174.096636 
L 212.064689 174.096636 
L 212.064689 173.537454 
L 212.765921 173.537454 
L 212.765921 172.978271 
L 212.900995 172.978271 
L 212.938536 171.859907 
L 213.949946 171.859907 
L 214.036705 170.741543 
L 214.434174 170.741543 
L 214.434174 170.18236 
L 215.877163 170.18236 
L 215.986178 168.504814 
L 216.000305 168.504814 
L 216.000305 167.945631 
L 216.275195 167.945631 
L 216.37374 166.827267 
L 217.232309 166.827267 
L 217.232309 165.708902 
L 217.409579 165.708902 
L 217.409579 165.14972 
L 217.607061 165.14972 
L 217.717599 162.353809 
L 218.897547 162.353809 
L 218.897547 161.794627 
L 219.010653 161.794627 
L 219.118832 160.11708 
L 219.14185 160.11708 
L 219.14185 159.557898 
L 220.245836 159.557898 
L 220.266905 158.439533 
L 221.639019 158.439533 
L 221.661609 157.321169 
L 222.305438 157.321169 
L 222.305438 156.761987 
L 222.559066 156.761987 
L 222.626642 155.08444 
L 223.498824 155.08444 
L 223.498824 154.525258 
L 223.670001 154.525258 
L 223.670001 153.966075 
L 224.65762 153.966075 
L 224.673732 152.847711 
L 225.434765 152.847711 
L 225.434765 152.288529 
L 226.180892 152.288529 
L 226.195291 151.170164 
L 226.419777 151.170164 
L 226.488278 149.492617 
L 227.231479 149.492617 
L 227.323317 148.374253 
L 227.420481 148.374253 
L 227.426778 147.255888 
L 227.996893 147.255888 
L 227.996893 146.696706 
L 228.11625 146.696706 
L 228.127567 145.578342 
L 228.806265 145.578342 
L 228.806265 144.459977 
L 229.648739 144.459977 
L 229.648739 143.900795 
L 230.369337 143.900795 
L 230.369337 143.341613 
L 230.99417 143.341613 
L 231.024967 141.664066 
L 231.713962 141.664066 
L 231.726536 140.545702 
L 232.162906 140.545702 
L 232.162906 139.986519 
L 232.280881 139.986519 
L 232.280881 139.427337 
L 233.480668 139.427337 
L 233.480668 138.868155 
L 234.57767 138.868155 
L 234.57767 138.308973 
L 235.129059 138.308973 
L 235.129059 137.74979 
L 235.594192 137.74979 
L 235.594192 137.190608 
L 236.140373 137.190608 
L 236.148927 136.072244 
L 236.604553 136.072244 
L 236.604553 135.513061 
L 238.035857 135.513061 
L 238.035857 134.953879 
L 238.893681 134.953879 
L 238.893681 134.394697 
L 239.699738 134.394697 
L 239.710722 132.71715 
L 240.399626 132.71715 
L 240.399626 132.157968 
L 240.821966 132.157968 
L 240.821966 131.598786 
L 242.63833 131.598786 
L 242.63833 131.039603 
L 243.298455 131.039603 
L 243.298455 130.480421 
L 244.215628 130.480421 
L 244.215628 129.921239 
L 244.544872 129.921239 
L 244.544872 129.362057 
L 245.386915 129.362057 
L 245.386915 128.802874 
L 250.340163 128.802874 
L 250.340163 127.68451 
L 258.688635 127.68451 
L 258.688635 127.125328 
L 333.168 127.125328 
L 333.168 127.125328 
" style="fill:none;stroke:#000080;stroke-linecap:square;stroke-width:1.5;"/>
   </g>
   <g id="line2d_39">
    <defs>
     <path d="M 0 6 
C 1.591219 6 3.117479 5.367802 4.242641 4.242641 
C 5.367802 3.117479 6 1.591219 6 0 
C 6 -1.591219 5.367802 -3.117479 4.242641 -4.242641 
C 3.117479 -5.367802 1.591219 -6 0 -6 
C -1.591219 -6 -3.117479 -5.367802 -4.242641 -4.242641 
C -5.367802 -3.117479 -6 -1.591219 -6 0 
C -6 1.591219 -5.367802 3.117479 -4.242641 4.242641 
C -3.117479 5.367802 -1.591219 6 0 6 
z
" id="mf5a525a307" style="stroke:#000080;stroke-width:1.5;"/>
    </defs>
    <g>
     <use style="fill-opacity:0;stroke:#000080;stroke-width:1.5;" x="216.000305" xlink:href="#mf5a525a307" y="168.504814"/>
     <use style="fill-opacity:0;stroke:#000080;stroke-width:1.5;" x="258.688635" xlink:href="#mf5a525a307" y="127.125328"/>
     <use style="fill-opacity:0;stroke:#000080;stroke-width:1.5;" x="258.688635" xlink:href="#mf5a525a307" y="127.125328"/>
     <use style="fill-opacity:0;stroke:#000080;stroke-width:1.5;" x="333.168" xlink:href="#mf5a525a307" y="127.125328"/>
    </g>
   </g>
   <g id="line2d_40">
    <path style="fill:none;stroke:#000080;stroke-linecap:square;stroke-width:1.5;"/>
    <g/>
   </g>
   <g id="line2d_41">
    <path clip-path="url(#pb3f7120d4a)" d="M 186.941843 229.455678 
" style="fill:none;stroke:#000080;stroke-linecap:square;stroke-width:1.5;"/>
    <defs>
     <path d="M -12 12 
L 12 -12 
M -12 -12 
L 12 12 
" id="m3115ff3f26" style="stroke:#000080;"/>
    </defs>
    <g clip-path="url(#pb3f7120d4a)">
     <use style="fill:#000080;stroke:#000080;" x="186.941843" xlink:href="#m3115ff3f26" y="229.455678"/>
    </g>
   </g>
   <g id="line2d_42">
    <defs>
     <path d="M 0 1.5 
C 0.397805 1.5 0.77937 1.341951 1.06066 1.06066 
C 1.341951 0.77937 1.5 0.397805 1.5 0 
C 1.5 -0.397805 1.341951 -0.77937 1.06066 -1.06066 
C 0.77937 -1.341951 0.397805 -1.5 0 -1.5 
C -0.397805 -1.5 -0.77937 -1.341951 -1.06066 -1.06066 
C -1.341951 -0.77937 -1.5 -0.397805 -1.5 0 
C -1.5 0.397805 -1.341951 0.77937 -1.06066 1.06066 
C -0.77937 1.341951 -0.397805 1.5 0 1.5 
z
" id="m16ba3a1c9b" style="stroke:#ff00ff;"/>
    </defs>
    <g>
     <use style="fill:#ff00ff;stroke:#ff00ff;" x="242.162918" xlink:href="#m16ba3a1c9b" y="127.125328"/>
     <use style="fill:#ff00ff;stroke:#ff00ff;" x="242.162918" xlink:href="#m16ba3a1c9b" y="127.125328"/>
    </g>
   </g>
   <g id="line2d_43">
    <path d="M 127.389295 294.88 
L 127.389295 294.320818 
L 129.582224 294.320818 
L 129.582224 293.761636 
L 131.949115 293.761636 
L 131.949115 293.202453 
L 133.617681 293.202453 
L 133.617681 292.643271 
L 136.310535 292.643271 
L 136.310535 291.524907 
L 137.377325 291.524907 
L 137.377325 290.965724 
L 138.52464 290.965724 
L 138.52464 290.406542 
L 139.519758 290.406542 
L 139.519758 289.84736 
L 139.706738 289.84736 
L 139.706738 288.728995 
L 142.130987 288.728995 
L 142.223028 287.051449 
L 142.875982 287.051449 
L 142.875982 286.492266 
L 143.779723 286.492266 
L 143.821595 283.696355 
L 145.417974 283.696355 
L 145.417974 283.137173 
L 146.453301 283.137173 
L 146.453301 280.900444 
L 146.667271 280.900444 
L 146.667271 280.341262 
L 146.808451 280.341262 
L 146.808451 279.222897 
L 146.93104 279.222897 
L 146.93104 278.663715 
L 148.159923 278.663715 
L 148.159923 278.104533 
L 148.844693 278.104533 
L 148.844693 277.545351 
L 149.682586 277.545351 
L 149.682586 276.986168 
L 150.424656 276.986168 
L 150.424656 276.426986 
L 150.62288 276.426986 
L 150.62288 275.867804 
L 150.943651 275.867804 
L 150.943651 274.749439 
L 151.204193 274.749439 
L 151.244973 273.071893 
L 151.726929 273.071893 
L 151.726929 272.51271 
L 153.047828 272.51271 
L 153.047828 271.953528 
L 153.613017 271.953528 
L 153.719157 270.275981 
L 153.754391 270.275981 
L 153.754391 269.716799 
L 153.941099 269.716799 
L 153.941099 268.598435 
L 154.24024 268.598435 
L 154.24024 268.039252 
L 154.601406 268.039252 
L 154.601406 267.48007 
L 155.493675 267.48007 
L 155.493675 266.361706 
L 155.829688 266.361706 
L 155.829688 265.802523 
L 157.389299 265.802523 
L 157.389299 265.243341 
L 157.802146 265.243341 
L 157.811415 263.006612 
L 158.159969 263.006612 
L 158.159969 262.44743 
L 158.421295 262.44743 
L 158.421295 261.329066 
L 158.643431 261.329066 
L 158.749045 260.210701 
L 158.757817 260.210701 
L 158.757817 259.092337 
L 160.155215 259.092337 
L 160.155215 258.533154 
L 160.316158 258.533154 
L 160.316158 257.973972 
L 160.813499 257.973972 
L 160.813499 257.41479 
L 161.258984 257.41479 
L 161.258984 256.855608 
L 161.619126 256.855608 
L 161.641386 255.178061 
L 161.898981 255.178061 
L 161.898981 254.059696 
L 162.452458 254.059696 
L 162.452458 252.941332 
L 162.656375 252.941332 
L 162.656375 251.822967 
L 162.968086 251.822967 
L 163.04343 250.704603 
L 164.522512 250.704603 
L 164.522512 249.586238 
L 164.715819 249.586238 
L 164.808581 247.908692 
L 165.138437 247.908692 
L 165.138437 247.34951 
L 165.574523 247.34951 
L 165.674508 246.231145 
L 166.302131 246.231145 
L 166.302131 245.112781 
L 166.626983 245.112781 
L 166.626983 244.553598 
L 167.03273 244.553598 
L 167.03273 243.994416 
L 167.497822 243.994416 
L 167.497822 242.876052 
L 167.806217 242.876052 
L 167.806217 242.316869 
L 168.119353 242.316869 
L 168.119353 241.757687 
L 169.669979 241.757687 
L 169.669979 240.639323 
L 170.259361 240.639323 
L 170.259361 240.08014 
L 170.438085 240.08014 
L 170.438085 239.520958 
L 170.82051 239.520958 
L 170.82051 238.961776 
L 171.882499 238.961776 
L 171.89067 237.284229 
L 172.528176 237.284229 
L 172.528176 236.725047 
L 172.696597 236.725047 
L 172.696597 236.165865 
L 173.097247 236.165865 
L 173.146678 233.929136 
L 173.714331 233.929136 
L 173.802272 232.810771 
L 173.827836 232.810771 
L 173.827836 232.251589 
L 174.210383 232.251589 
L 174.210383 231.133225 
L 174.433776 231.133225 
L 174.518121 228.896496 
L 174.549643 228.896496 
L 174.577615 226.659767 
L 174.8892 226.659767 
L 174.961098 224.98222 
L 175.053098 224.98222 
L 175.053098 224.423038 
L 175.36627 224.423038 
L 175.36627 223.863855 
L 175.581814 223.863855 
L 175.608157 222.745491 
L 175.862905 222.745491 
L 175.963112 221.627126 
L 176.062738 221.627126 
L 176.091553 219.94958 
L 176.222218 219.94958 
L 176.260274 218.272033 
L 176.62697 218.272033 
L 176.62697 217.712851 
L 176.738244 217.712851 
L 176.738244 216.594486 
L 177.013316 216.594486 
L 177.013316 216.035304 
L 177.521186 216.035304 
L 177.582894 213.798575 
L 177.688167 213.798575 
L 177.760895 212.680211 
L 178.193751 212.680211 
L 178.193751 212.121028 
L 178.323477 212.121028 
L 178.323477 211.561846 
L 179.467363 211.561846 
L 179.49363 209.884299 
L 179.754108 209.884299 
L 179.761862 208.765935 
L 180.223312 208.765935 
L 180.223312 208.206753 
L 181.404341 208.206753 
L 181.404341 207.64757 
L 182.085806 207.64757 
L 182.09032 206.529206 
L 183.025718 206.529206 
L 183.025718 205.410841 
L 184.044248 205.410841 
L 184.044248 204.851659 
L 185.354566 204.851659 
L 185.354566 204.292477 
L 185.628582 204.292477 
L 185.628582 203.733295 
L 186.020818 203.733295 
L 186.110352 202.61493 
L 186.625847 202.61493 
L 186.625847 202.055748 
L 186.772546 202.055748 
L 186.772546 201.496566 
L 190.526081 201.496566 
L 190.526081 200.937384 
L 191.068603 200.937384 
L 191.068603 200.378201 
L 191.344774 200.378201 
L 191.344774 199.259837 
L 192.155163 199.259837 
L 192.160188 198.141472 
L 192.304037 198.141472 
L 192.304037 197.58229 
L 192.62 197.58229 
L 192.62 197.023108 
L 192.947066 197.023108 
L 192.947066 196.463926 
L 193.669606 196.463926 
L 193.751099 194.227197 
L 193.865226 194.227197 
L 193.865226 193.668014 
L 195.029493 193.668014 
L 195.128068 192.54965 
L 195.388205 192.54965 
L 195.388205 191.990468 
L 195.521978 191.990468 
L 195.532304 190.872103 
L 195.635231 190.872103 
L 195.638309 188.635374 
L 195.7508 188.635374 
L 195.823019 187.51701 
L 196.052904 187.51701 
L 196.134835 185.839463 
L 196.226296 185.839463 
L 196.309381 184.721099 
L 196.444032 184.721099 
L 196.444032 184.161916 
L 196.959986 184.161916 
L 197.009318 183.043552 
L 197.16774 183.043552 
L 197.16774 182.48437 
L 197.468282 182.48437 
L 197.468282 181.925187 
L 198.002264 181.925187 
L 198.002264 181.366005 
L 198.809234 181.366005 
L 198.809234 180.806823 
L 200.796278 180.806823 
L 200.796278 180.247641 
L 201.36293 180.247641 
L 201.36293 179.688458 
L 201.514482 179.688458 
L 201.514482 178.570094 
L 201.745449 178.570094 
L 201.745449 178.010912 
L 201.928582 178.010912 
L 201.928582 176.892547 
L 202.759898 176.892547 
L 202.861968 175.215 
L 203.047648 175.215 
L 203.09359 173.537454 
L 203.257708 173.537454 
L 203.257708 172.419089 
L 203.432014 172.419089 
L 203.54055 171.300725 
L 203.627146 171.300725 
L 203.627146 170.741543 
L 203.746628 170.741543 
L 203.746628 170.18236 
L 204.008366 170.18236 
L 204.11772 169.063996 
L 204.255617 169.063996 
L 204.355384 167.386449 
L 204.718537 167.386449 
L 204.718537 166.827267 
L 204.994589 166.827267 
L 204.994589 166.268085 
L 205.156347 166.268085 
L 205.261002 164.590538 
L 205.451616 164.590538 
L 205.552765 163.472173 
L 205.720796 163.472173 
L 205.720796 162.912991 
L 208.455421 162.912991 
L 208.523916 161.794627 
L 208.682204 161.794627 
L 208.730175 160.676262 
L 208.854274 160.676262 
L 208.963312 158.439533 
L 209.007206 158.439533 
L 209.007206 157.321169 
L 209.148507 157.321169 
L 209.148507 156.761987 
L 209.287728 156.761987 
L 209.320623 155.08444 
L 210.27095 155.08444 
L 210.27095 154.525258 
L 210.451316 154.525258 
L 210.451316 153.966075 
L 210.566213 153.966075 
L 210.570087 152.847711 
L 212.832836 152.847711 
L 212.832836 152.288529 
L 213.027183 152.288529 
L 213.027183 151.729346 
L 213.193882 151.729346 
L 213.193882 151.170164 
L 213.430191 151.170164 
L 213.430191 150.610982 
L 213.872338 150.610982 
L 213.872338 150.0518 
L 214.064123 150.0518 
L 214.064123 148.933435 
L 214.445858 148.933435 
L 214.445858 148.374253 
L 216.571275 148.374253 
L 216.571275 147.815071 
L 216.698603 147.815071 
L 216.698603 147.255888 
L 217.289468 147.255888 
L 217.329308 146.137524 
L 217.603917 146.137524 
L 217.603917 145.578342 
L 219.276723 145.578342 
L 219.276723 145.019159 
L 219.513431 145.019159 
L 219.57599 142.78243 
L 219.634003 142.78243 
L 219.678146 141.664066 
L 221.715029 141.664066 
L 221.715029 141.104884 
L 222.147496 141.104884 
L 222.147496 139.986519 
L 222.584759 139.986519 
L 222.584759 139.427337 
L 223.523556 139.427337 
L 223.589268 138.308973 
L 223.980716 138.308973 
L 223.980716 137.74979 
L 224.136631 137.74979 
L 224.232538 136.631426 
L 225.880277 136.631426 
L 225.880277 136.072244 
L 226.352722 136.072244 
L 226.352722 135.513061 
L 228.149869 135.513061 
L 228.149869 134.953879 
L 229.148459 134.953879 
L 229.148459 134.394697 
L 229.29779 134.394697 
L 229.29779 133.835515 
L 230.701278 133.835515 
L 230.701278 133.276332 
L 231.998769 133.276332 
L 232.07235 132.157968 
L 232.112096 132.157968 
L 232.112096 131.598786 
L 233.106489 131.598786 
L 233.106489 131.039603 
L 233.310824 131.039603 
L 233.310824 129.921239 
L 235.374081 129.921239 
L 235.428385 128.802874 
L 239.145567 128.802874 
L 239.145567 128.243692 
L 239.784739 128.243692 
L 239.784739 127.68451 
L 242.162918 127.68451 
L 242.162918 127.125328 
L 333.168 127.125328 
L 333.168 127.125328 
" style="fill:none;stroke:#ff00ff;stroke-linecap:square;stroke-width:1.5;"/>
   </g>
   <g id="line2d_44">
    <defs>
     <path d="M -0 8.485281 
L 5.091169 0 
L 0 -8.485281 
L -5.091169 -0 
z
" id="m67bfaf11c6" style="stroke:#ff00ff;stroke-linejoin:miter;stroke-width:1.5;"/>
    </defs>
    <g>
     <use style="fill-opacity:0;stroke:#ff00ff;stroke-linejoin:miter;stroke-width:1.5;" x="195.823019" xlink:href="#m67bfaf11c6" y="188.076192"/>
     <use style="fill-opacity:0;stroke:#ff00ff;stroke-linejoin:miter;stroke-width:1.5;" x="242.162918" xlink:href="#m67bfaf11c6" y="127.68451"/>
     <use style="fill-opacity:0;stroke:#ff00ff;stroke-linejoin:miter;stroke-width:1.5;" x="242.162918" xlink:href="#m67bfaf11c6" y="127.125328"/>
     <use style="fill-opacity:0;stroke:#ff00ff;stroke-linejoin:miter;stroke-width:1.5;" x="242.162918" xlink:href="#m67bfaf11c6" y="127.125328"/>
     <use style="fill-opacity:0;stroke:#ff00ff;stroke-linejoin:miter;stroke-width:1.5;" x="333.168" xlink:href="#m67bfaf11c6" y="127.125328"/>
    </g>
   </g>
   <g id="line2d_45">
    <path style="fill:none;stroke:#ff00ff;stroke-linecap:square;stroke-width:1.5;"/>
    <g/>
   </g>
   <g id="line2d_46">
    <path clip-path="url(#pb3f7120d4a)" d="M 186.941843 201.496566 
" style="fill:none;stroke:#ff00ff;stroke-linecap:square;stroke-width:1.5;"/>
    <defs>
     <path d="M -12 12 
L 12 -12 
M -12 -12 
L 12 12 
" id="mbc8f1e28e2" style="stroke:#ff00ff;"/>
    </defs>
    <g clip-path="url(#pb3f7120d4a)">
     <use style="fill:#ff00ff;stroke:#ff00ff;" x="186.941843" xlink:href="#mbc8f1e28e2" y="201.496566"/>
    </g>
   </g>
   <g id="line2d_47">
    <defs>
     <path d="M 0 1.5 
C 0.397805 1.5 0.77937 1.341951 1.06066 1.06066 
C 1.341951 0.77937 1.5 0.397805 1.5 0 
C 1.5 -0.397805 1.341951 -0.77937 1.06066 -1.06066 
C 0.77937 -1.341951 0.397805 -1.5 0 -1.5 
C -0.397805 -1.5 -0.77937 -1.341951 -1.06066 -1.06066 
C -1.341951 -0.77937 -1.5 -0.397805 -1.5 0 
C -1.5 0.397805 -1.341951 0.77937 -1.06066 1.06066 
C -0.77937 1.341951 -0.397805 1.5 0 1.5 
z
" id="mb51b2ad817" style="stroke:#ffa500;"/>
    </defs>
    <g>
     <use style="fill:#ffa500;stroke:#ffa500;" x="243.58993" xlink:href="#mb51b2ad817" y="20.880702"/>
     <use style="fill:#ffa500;stroke:#ffa500;" x="243.58993" xlink:href="#mb51b2ad817" y="20.880702"/>
    </g>
   </g>
   <g id="line2d_48">
    <path d="M 152.272646 294.88 
L 152.272646 294.320818 
L 153.350772 294.320818 
L 153.350772 293.761636 
L 154.05677 293.761636 
L 154.05677 293.202453 
L 156.622212 293.202453 
L 156.622212 290.965724 
L 158.295634 290.965724 
L 158.295634 290.406542 
L 160.041651 290.406542 
L 160.041651 289.84736 
L 160.219773 289.84736 
L 160.219773 289.288178 
L 161.559624 289.288178 
L 161.65621 287.051449 
L 161.707995 287.051449 
L 161.707995 286.492266 
L 163.368392 286.492266 
L 163.368392 285.933084 
L 163.64778 285.933084 
L 163.746471 284.81472 
L 163.785789 284.81472 
L 163.785789 284.255537 
L 163.948654 284.255537 
L 163.948654 283.696355 
L 165.592209 283.696355 
L 165.592209 283.137173 
L 165.768084 283.137173 
L 165.768084 282.018808 
L 165.94795 282.018808 
L 165.94795 281.459626 
L 166.341665 281.459626 
L 166.341665 280.900444 
L 166.693434 280.900444 
L 166.693434 279.782079 
L 166.907643 279.782079 
L 166.907643 278.663715 
L 167.215991 278.663715 
L 167.280208 276.426986 
L 167.613465 276.426986 
L 167.613465 275.308622 
L 167.780295 275.308622 
L 167.821751 274.190257 
L 168.856192 274.190257 
L 168.856192 273.631075 
L 169.112563 273.631075 
L 169.112563 273.071893 
L 169.246477 273.071893 
L 169.246477 272.51271 
L 169.813469 272.51271 
L 169.813469 271.394346 
L 170.335546 271.394346 
L 170.335546 270.275981 
L 170.623767 270.275981 
L 170.623767 269.157617 
L 170.816163 269.157617 
L 170.816163 268.598435 
L 173.80958 268.598435 
L 173.90067 266.920888 
L 174.171078 266.920888 
L 174.278062 265.802523 
L 174.5076 265.802523 
L 174.525131 263.565795 
L 174.909773 263.565795 
L 174.909773 263.006612 
L 175.208713 263.006612 
L 175.225543 261.888248 
L 175.349577 261.888248 
L 175.349577 261.329066 
L 175.755587 261.329066 
L 175.755587 259.092337 
L 175.888821 259.092337 
L 175.927621 257.41479 
L 176.34244 257.41479 
L 176.34244 256.855608 
L 176.493109 256.855608 
L 176.51185 254.618879 
L 176.753641 254.618879 
L 176.753641 252.38215 
L 176.909917 252.38215 
L 176.909917 251.263785 
L 177.146211 251.263785 
L 177.254184 249.586238 
L 177.456301 249.586238 
L 177.524129 247.908692 
L 177.749279 247.908692 
L 177.749279 247.34951 
L 178.119992 247.34951 
L 178.119992 246.231145 
L 178.382376 246.231145 
L 178.485662 243.994416 
L 178.519027 243.994416 
L 178.563413 242.316869 
L 178.761746 242.316869 
L 178.761746 241.757687 
L 178.898142 241.757687 
L 178.982168 239.520958 
L 179.092672 239.520958 
L 179.178427 238.402594 
L 179.229143 238.402594 
L 179.229143 237.843411 
L 179.375114 237.843411 
L 179.375114 237.284229 
L 179.551274 237.284229 
L 179.551274 236.165865 
L 179.712696 236.165865 
L 179.787682 235.0475 
L 179.957131 235.0475 
L 179.99541 232.810771 
L 180.071713 232.810771 
L 180.165357 228.337313 
L 180.195619 228.337313 
L 180.255983 227.218949 
L 180.396013 227.218949 
L 180.405972 223.304673 
L 180.775316 223.304673 
L 180.828826 221.067944 
L 181.120186 221.067944 
L 181.158345 218.272033 
L 181.23204 218.272033 
L 181.23204 217.712851 
L 181.369077 217.712851 
L 181.47699 214.357757 
L 181.609776 214.357757 
L 181.653811 212.121028 
L 181.840283 212.121028 
L 181.840283 211.561846 
L 181.99528 211.561846 
L 182.079033 204.851659 
L 182.191569 204.851659 
L 182.296685 202.61493 
L 182.352337 202.61493 
L 182.352337 202.055748 
L 182.502804 202.055748 
L 182.60604 197.023108 
L 182.62355 197.023108 
L 182.656334 194.786379 
L 182.734761 194.786379 
L 182.843098 190.312921 
L 182.87331 190.312921 
L 182.982923 185.839463 
L 182.989349 185.839463 
L 183.098226 183.602734 
L 183.172548 183.602734 
L 183.261313 182.48437 
L 183.320236 182.48437 
L 183.39779 177.451729 
L 183.580848 177.451729 
L 183.683997 174.096636 
L 183.727135 174.096636 
L 183.802879 170.741543 
L 183.84572 170.741543 
L 183.87829 169.623178 
L 183.965516 169.623178 
L 184.076444 165.708902 
L 184.120615 165.708902 
L 184.214602 161.235444 
L 184.254442 161.235444 
L 184.282274 157.321169 
L 184.383285 157.321169 
L 184.436522 154.525258 
L 184.51313 154.525258 
L 184.601102 153.406893 
L 184.651725 153.406893 
L 184.74286 149.492617 
L 184.802707 149.492617 
L 184.900714 146.696706 
L 184.916037 146.696706 
L 184.988636 144.459977 
L 185.13859 144.459977 
L 185.230946 143.341613 
L 185.266625 143.341613 
L 185.362029 139.986519 
L 185.40116 139.986519 
L 185.412324 138.308973 
L 185.525414 138.308973 
L 185.623071 128.802874 
L 185.707383 128.802874 
L 185.802197 124.888599 
L 185.833081 124.888599 
L 185.916372 121.533505 
L 186.022614 121.533505 
L 186.104993 114.823318 
L 186.234921 114.823318 
L 186.332167 108.672314 
L 186.43763 108.672314 
L 186.451643 107.553949 
L 186.648365 107.553949 
L 186.741584 103.639674 
L 186.76567 103.639674 
L 186.865096 100.28458 
L 186.916299 100.28458 
L 186.916299 99.725398 
L 190.495664 99.725398 
L 190.495664 99.166216 
L 191.08332 99.166216 
L 191.08332 98.607033 
L 191.884151 98.607033 
L 191.884151 98.047851 
L 192.156419 98.047851 
L 192.156419 97.488669 
L 194.15734 97.488669 
L 194.15734 96.929487 
L 194.506051 96.929487 
L 194.561849 95.811122 
L 195.103742 95.811122 
L 195.103742 95.25194 
L 195.332941 95.25194 
L 195.332941 94.692758 
L 195.445367 94.692758 
L 195.555001 93.015211 
L 195.892915 93.015211 
L 195.892915 92.456029 
L 196.095916 92.456029 
L 196.206455 90.778482 
L 196.403846 90.778482 
L 196.406789 89.660118 
L 196.644536 89.660118 
L 196.644536 89.100935 
L 196.779478 89.100935 
L 196.882857 86.305024 
L 196.914322 86.305024 
L 196.941925 85.18666 
L 197.075505 85.18666 
L 197.140498 84.068295 
L 197.219289 84.068295 
L 197.22958 82.949931 
L 197.346094 82.949931 
L 197.450748 80.15402 
L 197.503297 80.15402 
L 197.569446 78.476473 
L 197.663636 78.476473 
L 197.684598 76.798926 
L 197.791744 76.798926 
L 197.899125 74.562197 
L 197.907219 74.562197 
L 197.978104 73.443833 
L 198.021924 73.443833 
L 198.084331 71.766286 
L 198.162465 71.766286 
L 198.204051 69.529557 
L 198.295715 69.529557 
L 198.295715 67.85201 
L 198.416595 67.85201 
L 198.52536 64.496917 
L 198.548763 64.496917 
L 198.605836 62.81937 
L 198.72199 62.81937 
L 198.798993 60.023459 
L 203.618119 60.023459 
L 203.618119 59.464277 
L 204.231985 59.464277 
L 204.231985 58.905094 
L 204.609908 58.905094 
L 204.609908 58.345912 
L 204.939135 58.345912 
L 204.978508 56.109183 
L 205.110877 56.109183 
L 205.198756 54.990819 
L 205.297891 54.990819 
L 205.393549 52.75409 
L 205.423768 52.75409 
L 205.476525 51.635725 
L 205.542389 51.635725 
L 205.593059 50.517361 
L 205.715089 50.517361 
L 205.736198 48.280632 
L 209.948228 48.280632 
L 209.948228 47.72145 
L 210.428331 47.72145 
L 210.50238 44.366356 
L 210.558462 44.366356 
L 210.596321 41.570445 
L 210.703424 41.570445 
L 210.770345 39.892898 
L 214.166728 39.892898 
L 214.166728 39.333716 
L 214.324858 39.333716 
L 214.324858 38.774534 
L 214.43933 38.774534 
L 214.547581 36.537805 
L 214.552361 36.537805 
L 214.605877 34.860258 
L 217.28743 34.860258 
L 217.31158 33.741894 
L 217.623915 33.741894 
L 217.69515 32.623529 
L 220.231121 32.623529 
L 220.231121 32.064347 
L 220.347754 32.064347 
L 220.378432 29.268436 
L 222.60037 29.268436 
L 222.651168 27.590889 
L 224.568065 27.590889 
L 224.631999 26.472524 
L 224.709125 26.472524 
L 224.709125 25.913342 
L 226.45073 25.913342 
L 226.45073 25.35416 
L 228.134075 25.35416 
L 228.134075 24.794978 
L 229.596174 24.794978 
L 229.647604 22.558249 
L 231.029811 22.558249 
L 231.029811 21.999066 
L 236.608528 21.999066 
L 236.608528 21.439884 
L 243.58993 21.439884 
L 243.58993 20.880702 
L 333.168 20.880702 
L 333.168 20.880702 
" style="fill:none;stroke:#ffa500;stroke-linecap:square;stroke-width:1.5;"/>
   </g>
   <g id="line2d_49">
    <defs>
     <path d="M 0 -6 
L -1.347084 -1.854102 
L -5.706339 -1.854102 
L -2.179628 0.708204 
L -3.526712 4.854102 
L -0 2.291796 
L 3.526712 4.854102 
L 2.179628 0.708204 
L 5.706339 -1.854102 
L 1.347084 -1.854102 
z
" id="m2f4a518aa2" style="stroke:#ffa500;stroke-linejoin:bevel;stroke-width:1.5;"/>
    </defs>
    <g>
     <use style="fill-opacity:0;stroke:#ffa500;stroke-linejoin:bevel;stroke-width:1.5;" x="186.332167" xlink:href="#m2f4a518aa2" y="108.672314"/>
     <use style="fill-opacity:0;stroke:#ffa500;stroke-linejoin:bevel;stroke-width:1.5;" x="243.58993" xlink:href="#m2f4a518aa2" y="21.439884"/>
     <use style="fill-opacity:0;stroke:#ffa500;stroke-linejoin:bevel;stroke-width:1.5;" x="243.58993" xlink:href="#m2f4a518aa2" y="20.880702"/>
     <use style="fill-opacity:0;stroke:#ffa500;stroke-linejoin:bevel;stroke-width:1.5;" x="333.168" xlink:href="#m2f4a518aa2" y="20.880702"/>
    </g>
   </g>
   <g id="line2d_50">
    <path style="fill:none;stroke:#ffa500;stroke-linecap:square;stroke-width:1.5;"/>
    <g/>
   </g>
   <g id="line2d_51">
    <path clip-path="url(#pb3f7120d4a)" d="M 186.941843 99.725398 
" style="fill:none;stroke:#ffa500;stroke-linecap:square;stroke-width:1.5;"/>
    <defs>
     <path d="M -12 12 
L 12 -12 
M -12 -12 
L 12 12 
" id="m07c2a81cc1" style="stroke:#ffa500;"/>
    </defs>
    <g clip-path="url(#pb3f7120d4a)">
     <use style="fill:#ffa500;stroke:#ffa500;" x="186.941843" xlink:href="#m07c2a81cc1" y="99.725398"/>
    </g>
   </g>
   <g id="line2d_52">
    <defs>
     <path d="M 0 1.5 
C 0.397805 1.5 0.77937 1.341951 1.06066 1.06066 
C 1.341951 0.77937 1.5 0.397805 1.5 0 
C 1.5 -0.397805 1.341951 -0.77937 1.06066 -1.06066 
C 0.77937 -1.341951 0.397805 -1.5 0 -1.5 
C -0.397805 -1.5 -0.77937 -1.341951 -1.06066 -1.06066 
C -1.341951 -0.77937 -1.5 -0.397805 -1.5 0 
C -1.5 0.397805 -1.341951 0.77937 -1.06066 1.06066 
C -0.77937 1.341951 -0.397805 1.5 0 1.5 
z
" id="me97b10cd20" style="stroke:#6495ed;"/>
    </defs>
    <g>
     <use style="fill:#6495ed;stroke:#6495ed;" x="233.400689" xlink:href="#me97b10cd20" y="9.697057"/>
     <use style="fill:#6495ed;stroke:#6495ed;" x="233.400689" xlink:href="#me97b10cd20" y="9.697057"/>
    </g>
   </g>
   <g id="line2d_53">
    <path d="M 114.581927 294.88 
L 114.581927 294.320818 
L 117.523731 294.320818 
L 117.523731 293.761636 
L 121.70343 293.761636 
L 121.70343 292.643271 
L 126.836558 292.643271 
L 126.836558 292.084089 
L 130.285813 292.084089 
L 130.285813 290.965724 
L 132.361332 290.965724 
L 132.361332 290.406542 
L 133.350594 290.406542 
L 133.350594 289.288178 
L 135.950722 289.288178 
L 135.950722 288.169813 
L 137.255203 288.169813 
L 137.255203 287.051449 
L 140.460404 287.051449 
L 140.460404 286.492266 
L 140.73785 286.492266 
L 140.73785 285.373902 
L 141.303883 285.373902 
L 141.303883 284.81472 
L 145.05204 284.81472 
L 145.05204 284.255537 
L 145.531932 284.255537 
L 145.531932 283.137173 
L 147.310724 283.137173 
L 147.310724 282.577991 
L 150.552348 282.577991 
L 150.552348 282.018808 
L 151.792811 282.018808 
L 151.792811 280.900444 
L 152.131386 280.900444 
L 152.131386 279.782079 
L 152.875817 279.782079 
L 152.875817 279.222897 
L 154.171668 279.222897 
L 154.171668 278.663715 
L 156.800027 278.663715 
L 156.800027 278.104533 
L 157.063347 278.104533 
L 157.063347 277.545351 
L 157.521738 277.545351 
L 157.521738 276.986168 
L 158.367553 276.986168 
L 158.367553 275.867804 
L 159.853438 275.867804 
L 159.951893 273.631075 
L 160.475609 273.631075 
L 160.483543 272.51271 
L 161.6117 272.51271 
L 161.6117 271.953528 
L 161.789056 271.953528 
L 161.789056 270.835164 
L 162.802544 270.835164 
L 162.809473 269.157617 
L 163.159224 269.157617 
L 163.159224 268.039252 
L 163.654377 268.039252 
L 163.654377 267.48007 
L 164.421883 267.48007 
L 164.491128 265.243341 
L 165.360849 265.243341 
L 165.360849 264.124977 
L 165.527269 264.124977 
L 165.527269 263.006612 
L 165.692092 263.006612 
L 165.692092 262.44743 
L 166.120239 262.44743 
L 166.160193 261.329066 
L 166.776138 261.329066 
L 166.776138 259.651519 
L 167.048979 259.651519 
L 167.076027 258.533154 
L 167.576754 258.533154 
L 167.576754 257.973972 
L 168.098993 257.973972 
L 168.098993 257.41479 
L 168.491721 257.41479 
L 168.491721 256.855608 
L 168.729013 256.855608 
L 168.73883 255.178061 
L 168.865936 255.178061 
L 168.865936 254.618879 
L 169.651377 254.618879 
L 169.716397 252.38215 
L 170.164782 252.38215 
L 170.164782 251.822967 
L 170.623767 251.822967 
L 170.623767 251.263785 
L 171.481447 251.263785 
L 171.510704 250.145421 
L 171.845679 250.145421 
L 171.845679 249.586238 
L 172.129997 249.586238 
L 172.129997 248.467874 
L 172.358088 248.467874 
L 172.41365 247.34951 
L 172.48877 247.34951 
L 172.48877 246.231145 
L 172.704391 246.231145 
L 172.743305 245.112781 
L 172.986463 245.112781 
L 172.986463 244.553598 
L 173.112471 244.553598 
L 173.112471 243.435234 
L 173.503652 243.435234 
L 173.566757 242.316869 
L 173.802272 242.316869 
L 173.802272 241.757687 
L 174.088604 241.757687 
L 174.196101 238.402594 
L 174.21752 238.402594 
L 174.310028 237.284229 
L 174.546144 237.284229 
L 174.612516 232.810771 
L 174.861731 232.810771 
L 174.954263 230.574042 
L 175.205345 230.574042 
L 175.238996 228.896496 
L 175.352917 228.896496 
L 175.436203 226.100584 
L 175.591698 226.100584 
L 175.680392 224.423038 
L 175.820708 224.423038 
L 175.895294 221.627126 
L 175.979219 221.627126 
L 175.979219 221.067944 
L 176.16816 221.067944 
L 176.27294 216.594486 
L 176.489983 216.594486 
L 176.552385 214.357757 
L 176.62697 214.357757 
L 176.62697 213.798575 
L 176.815095 213.798575 
L 176.909917 210.443482 
L 177.164254 210.443482 
L 177.2751 208.765935 
L 177.414882 208.765935 
L 177.414882 208.206753 
L 177.559412 208.206753 
L 177.559412 207.64757 
L 177.749279 207.64757 
L 177.853541 204.851659 
L 177.994444 204.851659 
L 178.091539 201.496566 
L 178.286914 201.496566 
L 178.323477 198.700655 
L 178.468955 198.700655 
L 178.505132 197.58229 
L 178.668374 197.58229 
L 178.690389 195.345561 
L 178.805511 195.345561 
L 178.805511 194.786379 
L 179.114151 194.786379 
L 179.19713 192.54965 
L 179.430523 192.54965 
L 179.441057 191.431285 
L 179.769612 191.431285 
L 179.839207 188.635374 
L 179.905959 188.635374 
L 179.99541 187.51701 
L 180.119864 187.51701 
L 180.167881 186.398645 
L 180.233371 186.398645 
L 180.233371 185.280281 
L 180.40846 185.280281 
L 180.490388 184.161916 
L 180.537382 184.161916 
L 180.643265 181.366005 
L 180.699633 181.366005 
L 180.777752 176.333365 
L 180.916028 176.333365 
L 180.997983 172.978271 
L 181.093901 172.978271 
L 181.198798 170.18236 
L 181.222549 170.18236 
L 181.279418 167.945631 
L 181.35024 167.945631 
L 181.441876 162.912991 
L 181.598169 162.912991 
L 181.679253 156.761987 
L 181.924793 156.761987 
L 181.924793 156.202804 
L 182.076775 156.202804 
L 182.166874 153.406893 
L 182.196055 153.406893 
L 182.196055 152.288529 
L 182.312285 152.288529 
L 182.381205 147.255888 
L 182.491785 147.255888 
L 182.588512 145.578342 
L 182.645413 145.578342 
L 182.721715 140.545702 
L 182.760825 140.545702 
L 182.866841 137.190608 
L 182.888397 137.190608 
L 182.967919 136.072244 
L 183.002194 136.072244 
L 183.055611 133.835515 
L 183.155588 133.835515 
L 183.257096 129.362057 
L 183.295008 129.362057 
L 183.401972 125.447781 
L 183.431218 125.447781 
L 183.460415 123.770234 
L 183.60566 123.770234 
L 183.708661 114.823318 
L 183.890488 114.823318 
L 183.931085 113.145772 
L 184.026111 113.145772 
L 184.088502 110.909043 
L 184.184662 110.909043 
L 184.288232 108.113132 
L 184.373408 108.113132 
L 184.456198 105.876403 
L 184.51117 105.876403 
L 184.5933 99.166216 
L 184.643947 99.166216 
L 184.746728 95.811122 
L 184.779565 95.811122 
L 184.866187 91.896847 
L 184.894964 91.896847 
L 184.990542 90.2193 
L 185.019112 90.2193 
L 185.125356 87.982571 
L 185.161254 87.982571 
L 185.238464 86.864206 
L 185.285374 86.864206 
L 185.339629 84.068295 
L 185.425339 84.068295 
L 185.530956 80.713202 
L 185.554954 80.713202 
L 185.65061 77.358108 
L 185.732962 77.358108 
L 185.825819 73.443833 
L 185.851222 73.443833 
L 185.900107 71.766286 
L 186.040556 71.766286 
L 186.135338 68.411192 
L 186.162069 68.411192 
L 186.265037 66.733646 
L 186.300401 66.733646 
L 186.362114 64.496917 
L 186.435877 64.496917 
L 186.458645 61.141823 
L 186.650096 61.141823 
L 186.67431 57.78673 
L 186.774264 57.78673 
L 186.815455 56.668365 
L 186.89413 56.668365 
L 186.89413 55.550001 
L 193.970689 55.550001 
L 193.970689 54.990819 
L 194.653359 54.990819 
L 194.653359 54.431636 
L 195.009284 54.431636 
L 195.009284 53.872454 
L 196.01681 53.872454 
L 196.01681 53.313272 
L 196.212409 53.313272 
L 196.257005 51.635725 
L 196.326147 51.635725 
L 196.425421 50.517361 
L 196.633889 50.517361 
L 196.696711 48.280632 
L 196.799629 48.280632 
L 196.892398 47.162267 
L 196.979926 47.162267 
L 196.998894 46.043903 
L 197.178062 46.043903 
L 197.275348 42.688809 
L 197.308896 42.688809 
L 197.410999 41.011263 
L 197.440589 41.011263 
L 197.533647 38.774534 
L 197.559357 38.774534 
L 197.627119 37.656169 
L 197.745517 37.656169 
L 197.793554 35.978622 
L 197.966459 35.978622 
L 198.073649 33.741894 
L 198.166894 33.741894 
L 198.178404 32.064347 
L 198.366769 32.064347 
L 198.457571 29.268436 
L 198.610152 29.268436 
L 198.616193 28.150071 
L 198.772509 28.150071 
L 198.836513 25.913342 
L 203.908462 25.913342 
L 203.908462 25.35416 
L 204.863117 25.35416 
L 204.894882 24.235795 
L 205.052831 24.235795 
L 205.052831 23.676613 
L 205.208166 23.676613 
L 205.276236 22.558249 
L 205.369101 22.558249 
L 205.405759 20.880702 
L 205.551036 20.880702 
L 205.551036 20.32152 
L 205.726502 20.32152 
L 205.726502 19.762337 
L 209.772849 19.762337 
L 209.866816 18.643973 
L 210.456516 18.643973 
L 210.527424 17.525609 
L 210.572239 17.525609 
L 210.650813 16.407244 
L 210.738835 16.407244 
L 210.738835 15.848062 
L 214.18871 15.848062 
L 214.278439 14.170515 
L 214.41216 14.170515 
L 214.491485 13.052151 
L 217.163819 13.052151 
L 217.163819 12.492968 
L 217.405242 12.492968 
L 217.405242 11.933786 
L 217.66014 11.933786 
L 217.66014 11.374604 
L 224.369233 11.374604 
L 224.478617 10.256239 
L 233.400689 10.256239 
L 233.400689 9.697057 
L 333.168 9.697057 
L 333.168 9.697057 
" style="fill:none;stroke:#6495ed;stroke-linecap:square;stroke-width:1.5;"/>
   </g>
   <g id="line2d_54">
    <defs>
     <path d="M -0 6 
L 6 -6 
L -6 -6 
z
" id="md70000f3b4" style="stroke:#6495ed;stroke-linejoin:miter;stroke-width:1.5;"/>
    </defs>
    <g>
     <use style="fill-opacity:0;stroke:#6495ed;stroke-linejoin:miter;stroke-width:1.5;" x="178.286914" xlink:href="#md70000f3b4" y="201.496566"/>
     <use style="fill-opacity:0;stroke:#6495ed;stroke-linejoin:miter;stroke-width:1.5;" x="214.18871" xlink:href="#md70000f3b4" y="15.848062"/>
     <use style="fill-opacity:0;stroke:#6495ed;stroke-linejoin:miter;stroke-width:1.5;" x="233.400689" xlink:href="#md70000f3b4" y="9.697057"/>
     <use style="fill-opacity:0;stroke:#6495ed;stroke-linejoin:miter;stroke-width:1.5;" x="233.400689" xlink:href="#md70000f3b4" y="9.697057"/>
     <use style="fill-opacity:0;stroke:#6495ed;stroke-linejoin:miter;stroke-width:1.5;" x="333.168" xlink:href="#md70000f3b4" y="9.697057"/>
    </g>
   </g>
   <g id="line2d_55">
    <path style="fill:none;stroke:#6495ed;stroke-linecap:square;stroke-width:1.5;"/>
    <g/>
   </g>
   <g id="line2d_56">
    <path clip-path="url(#pb3f7120d4a)" d="M 186.941843 55.550001 
" style="fill:none;stroke:#6495ed;stroke-linecap:square;stroke-width:1.5;"/>
    <defs>
     <path d="M -12 12 
L 12 -12 
M -12 -12 
L 12 12 
" id="m1c68e4a9be" style="stroke:#6495ed;"/>
    </defs>
    <g clip-path="url(#pb3f7120d4a)">
     <use style="fill:#6495ed;stroke:#6495ed;" x="186.941843" xlink:href="#m1c68e4a9be" y="55.550001"/>
    </g>
   </g>
   <g id="line2d_57">
    <defs>
     <path d="M 0 1.5 
C 0.397805 1.5 0.77937 1.341951 1.06066 1.06066 
C 1.341951 0.77937 1.5 0.397805 1.5 0 
C 1.5 -0.397805 1.341951 -0.77937 1.06066 -1.06066 
C 0.77937 -1.341951 0.397805 -1.5 0 -1.5 
C -0.397805 -1.5 -0.77937 -1.341951 -1.06066 -1.06066 
C -1.341951 -0.77937 -1.5 -0.397805 -1.5 0 
C -1.5 0.397805 -1.341951 0.77937 -1.06066 1.06066 
C -0.77937 1.341951 -0.397805 1.5 0 1.5 
z
" id="mcdf5e05924" style="stroke:#ff0000;"/>
    </defs>
    <g>
     <use style="fill:#ff0000;stroke:#ff0000;" x="237.507519" xlink:href="#mcdf5e05924" y="9.697057"/>
     <use style="fill:#ff0000;stroke:#ff0000;" x="237.507519" xlink:href="#mcdf5e05924" y="9.697057"/>
    </g>
   </g>
   <g id="line2d_58">
    <path d="M 28.455965 294.88 
L 28.455965 272.51271 
L 40.370217 272.51271 
L 40.370217 270.835164 
L 56.12 270.835164 
L 56.12 265.802523 
L 61.903497 265.802523 
L 61.903497 264.124977 
L 66.223248 264.124977 
L 66.223248 263.006612 
L 68.034251 263.006612 
L 68.034251 262.44743 
L 69.672503 262.44743 
L 69.672503 261.329066 
L 75.003641 261.329066 
L 75.003641 260.769883 
L 78.137499 260.769883 
L 78.137499 260.210701 
L 81.586754 260.210701 
L 81.586754 259.651519 
L 85.106889 259.651519 
L 85.106889 257.973972 
L 88.027221 257.973972 
L 88.027221 256.855608 
L 92.70139 256.855608 
L 92.70139 256.296425 
L 97.646251 256.296425 
L 97.646251 255.737243 
L 97.950482 255.737243 
L 97.950482 254.059696 
L 104.819059 254.059696 
L 104.819059 253.500514 
L 105.415256 253.500514 
L 105.415256 252.941332 
L 107.612537 252.941332 
L 107.612537 251.822967 
L 110.746395 251.822967 
L 110.746395 251.263785 
L 111.170827 251.263785 
L 111.170827 250.704603 
L 120.118102 250.704603 
L 120.118102 249.027056 
L 120.283378 249.027056 
L 120.283378 248.467874 
L 120.689748 248.467874 
L 120.689748 247.34951 
L 121.320594 247.34951 
L 121.320594 246.790327 
L 121.551317 246.790327 
L 121.551317 246.231145 
L 121.854208 246.231145 
L 121.854208 245.112781 
L 123.430938 245.112781 
L 123.430938 242.876052 
L 123.970233 242.876052 
L 123.970233 242.316869 
L 124.298898 242.316869 
L 124.298898 241.757687 
L 127.334814 241.757687 
L 127.334814 240.08014 
L 127.819033 240.08014 
L 127.819033 239.520958 
L 128.39291 239.520958 
L 128.39291 238.961776 
L 129.437982 238.961776 
L 129.534278 236.725047 
L 130.377486 236.725047 
L 130.42314 235.606682 
L 131.990784 235.606682 
L 131.990784 235.0475 
L 132.483094 235.0475 
L 132.483094 234.488318 
L 135.413533 234.488318 
L 135.481607 233.369954 
L 136.049602 233.369954 
L 136.147917 230.574042 
L 136.407373 230.574042 
L 136.407373 230.01486 
L 137.039379 230.01486 
L 137.039379 229.455678 
L 137.857318 229.455678 
L 137.857318 226.100584 
L 138.121538 226.100584 
L 138.121538 224.98222 
L 138.638097 224.98222 
L 138.638097 224.423038 
L 138.974042 224.423038 
L 138.974042 223.863855 
L 139.22176 223.863855 
L 139.22176 223.304673 
L 140.230025 223.304673 
L 140.230025 222.186309 
L 140.485813 222.186309 
L 140.485813 221.627126 
L 140.662626 221.627126 
L 140.662626 220.508762 
L 141.15801 220.508762 
L 141.206772 218.272033 
L 141.376358 218.272033 
L 141.376358 217.712851 
L 141.945413 217.712851 
L 141.945413 216.594486 
L 143.905035 216.594486 
L 143.905035 215.476122 
L 144.558363 215.476122 
L 144.558363 214.91694 
L 145.013063 214.91694 
L 145.013063 214.357757 
L 145.264845 214.357757 
L 145.264845 213.798575 
L 145.398907 213.798575 
L 145.398907 212.680211 
L 145.980357 212.680211 
L 145.980357 211.561846 
L 147.208003 211.561846 
L 147.208003 211.002664 
L 147.395858 211.002664 
L 147.395858 210.443482 
L 147.682202 210.443482 
L 147.682202 209.884299 
L 148.481817 209.884299 
L 148.481817 209.325117 
L 148.735061 209.325117 
L 148.735061 207.64757 
L 148.860298 207.64757 
L 148.969136 205.970024 
L 149.771569 205.970024 
L 149.771569 205.410841 
L 150.679098 205.410841 
L 150.679098 204.851659 
L 151.0401 204.851659 
L 151.14967 203.174112 
L 151.353248 203.174112 
L 151.353248 202.61493 
L 151.805957 202.61493 
L 151.805957 202.055748 
L 152.31097 202.055748 
L 152.31097 199.259837 
L 152.677103 199.259837 
L 152.677103 198.141472 
L 153.458539 198.141472 
L 153.458539 197.023108 
L 153.601184 197.023108 
L 153.601184 196.463926 
L 154.489355 196.463926 
L 154.590234 195.345561 
L 154.690524 195.345561 
L 154.690524 194.786379 
L 154.812312 194.786379 
L 154.812312 194.227197 
L 154.987932 194.227197 
L 154.987932 193.108832 
L 155.150962 193.108832 
L 155.258795 191.990468 
L 155.31246 191.990468 
L 155.323172 190.312921 
L 155.514869 190.312921 
L 155.514869 189.194556 
L 155.954019 189.194556 
L 155.954019 188.635374 
L 156.301482 188.635374 
L 156.412409 187.51701 
L 156.552562 187.51701 
L 156.602341 185.839463 
L 158.259561 185.839463 
L 158.259561 185.280281 
L 158.394445 185.280281 
L 158.394445 183.602734 
L 158.510494 183.602734 
L 158.59038 181.925187 
L 159.207897 181.925187 
L 159.276106 178.570094 
L 159.344046 178.570094 
L 159.344046 178.010912 
L 159.976419 178.010912 
L 159.976419 176.892547 
L 160.179453 176.892547 
L 160.179453 176.333365 
L 160.491473 176.333365 
L 160.491473 175.215 
L 160.696383 175.215 
L 160.805716 174.096636 
L 161.394923 174.096636 
L 161.492437 172.419089 
L 162.116746 172.419089 
L 162.116746 171.859907 
L 162.494847 171.859907 
L 162.494847 170.741543 
L 163.009223 170.741543 
L 163.009223 170.18236 
L 163.435326 170.18236 
L 163.502 168.504814 
L 163.64778 168.504814 
L 163.733345 167.386449 
L 163.922699 167.386449 
L 163.922699 166.827267 
L 164.148486 166.827267 
L 164.148486 166.268085 
L 164.263461 166.268085 
L 164.263461 164.590538 
L 164.377672 164.590538 
L 164.377672 162.912991 
L 164.672359 162.912991 
L 164.709617 161.235444 
L 165.108159 161.235444 
L 165.156578 158.998715 
L 165.259017 158.998715 
L 165.259017 157.880351 
L 165.414517 157.880351 
L 165.414517 156.761987 
L 165.727207 156.761987 
L 165.727207 156.202804 
L 166.200054 156.202804 
L 166.200054 155.643622 
L 166.676845 155.643622 
L 166.765134 154.525258 
L 166.874861 154.525258 
L 166.874861 153.966075 
L 166.989325 153.966075 
L 166.989325 152.847711 
L 167.623939 152.847711 
L 167.623939 152.288529 
L 167.955796 152.288529 
L 167.955796 151.729346 
L 168.600887 151.729346 
L 168.600887 151.170164 
L 168.733922 151.170164 
L 168.743736 149.492617 
L 169.030747 149.492617 
L 169.030747 148.374253 
L 169.265522 148.374253 
L 169.374626 146.137524 
L 169.558061 146.137524 
L 169.628095 145.019159 
L 169.808859 145.019159 
L 169.854904 143.900795 
L 170.137663 143.900795 
L 170.137663 142.78243 
L 170.43364 142.78243 
L 170.43364 142.223248 
L 170.619369 142.223248 
L 170.619369 141.104884 
L 170.742083 141.104884 
L 170.742083 140.545702 
L 170.902908 140.545702 
L 170.963371 138.308973 
L 171.211617 138.308973 
L 171.211617 137.74979 
L 171.510704 137.74979 
L 171.510704 137.190608 
L 171.668666 137.190608 
L 171.697607 136.072244 
L 171.980301 136.072244 
L 171.980301 135.513061 
L 172.294367 135.513061 
L 172.34218 133.276332 
L 172.669292 133.276332 
L 172.696597 132.157968 
L 173.028569 132.157968 
L 173.074385 131.039603 
L 173.237563 131.039603 
L 173.237563 130.480421 
L 173.369248 130.480421 
L 173.436582 127.68451 
L 173.481324 127.68451 
L 173.570462 126.566145 
L 173.816885 126.566145 
L 173.897035 125.447781 
L 173.965957 125.447781 
L 174.02739 122.65187 
L 174.185381 122.65187 
L 174.188955 121.533505 
L 174.532138 121.533505 
L 174.532138 120.415141 
L 174.709863 120.415141 
L 174.744496 118.737594 
L 174.906346 118.737594 
L 174.954263 115.941683 
L 175.066686 115.941683 
L 175.131082 114.264136 
L 175.262512 114.264136 
L 175.262512 113.704954 
L 175.56533 113.704954 
L 175.56533 112.586589 
L 175.719666 112.586589 
L 175.719666 112.027407 
L 175.872628 112.027407 
L 175.872628 111.468225 
L 176.101148 111.468225 
L 176.101148 110.909043 
L 176.377085 110.909043 
L 176.40852 109.790678 
L 176.514971 109.790678 
L 176.602144 108.672314 
L 176.750563 108.672314 
L 176.857983 107.553949 
L 177.091969 107.553949 
L 177.197283 104.758038 
L 177.203281 104.758038 
L 177.266139 101.962127 
L 177.479924 101.962127 
L 177.479924 100.843762 
L 177.714384 100.843762 
L 177.734748 98.607033 
L 177.836208 98.607033 
L 177.836208 98.047851 
L 177.96865 98.047851 
L 177.96865 96.370304 
L 178.295359 96.370304 
L 178.309424 94.133576 
L 178.494009 94.133576 
L 178.494009 93.574393 
L 178.643573 93.574393 
L 178.734336 92.456029 
L 178.87095 92.456029 
L 178.909008 90.2193 
L 179.119516 90.2193 
L 179.165056 88.541753 
L 179.324828 88.541753 
L 179.330128 86.864206 
L 179.639983 86.864206 
L 179.673781 85.18666 
L 179.900833 85.18666 
L 180.008151 82.949931 
L 180.152732 82.949931 
L 180.177973 78.476473 
L 180.418412 78.476473 
L 180.423385 76.798926 
L 180.672697 76.798926 
L 180.763132 75.121379 
L 180.823968 75.121379 
L 180.823968 74.003015 
L 180.983548 74.003015 
L 180.983548 73.443833 
L 181.122573 73.443833 
L 181.127347 72.325468 
L 181.243897 72.325468 
L 181.243897 70.647921 
L 181.413732 70.647921 
L 181.495689 69.529557 
L 181.574932 69.529557 
L 181.619056 67.85201 
L 181.842572 67.85201 
L 181.842572 67.292828 
L 181.958935 67.292828 
L 181.958935 66.733646 
L 182.287764 66.733646 
L 182.310058 65.615281 
L 182.579741 65.615281 
L 182.665066 63.937735 
L 182.739108 63.937735 
L 182.739108 63.378552 
L 183.051344 63.378552 
L 183.051344 62.81937 
L 183.231775 62.81937 
L 183.231775 62.260188 
L 183.57257 62.260188 
L 183.576709 61.141823 
L 183.77835 61.141823 
L 183.804921 60.023459 
L 183.908768 60.023459 
L 184.001899 57.227548 
L 184.158672 57.227548 
L 184.182664 55.550001 
L 184.333844 55.550001 
L 184.383285 54.431636 
L 184.471922 54.431636 
L 184.495481 53.313272 
L 184.682804 53.313272 
L 184.682804 52.75409 
L 185.02482 52.75409 
L 185.02482 52.194907 
L 185.159366 52.194907 
L 185.240343 50.517361 
L 185.586284 50.517361 
L 185.595489 48.839814 
L 185.896491 48.839814 
L 185.977676 46.043903 
L 186.013636 46.043903 
L 186.062062 44.925538 
L 186.162069 44.925538 
L 186.265037 43.247992 
L 186.273885 43.247992 
L 186.284497 41.570445 
L 186.434125 41.570445 
L 186.525024 39.892898 
L 186.878765 39.892898 
L 186.878765 38.215351 
L 195.736524 38.215351 
L 195.799658 37.096987 
L 196.544577 37.096987 
L 196.544577 36.537805 
L 196.882857 36.537805 
L 196.882857 35.978622 
L 197.079279 35.978622 
L 197.138617 34.860258 
L 197.25388 34.860258 
L 197.359095 33.741894 
L 197.60151 33.741894 
L 197.624377 32.623529 
L 198.074539 32.623529 
L 198.170436 31.505165 
L 198.251707 31.505165 
L 198.349252 29.268436 
L 198.38077 29.268436 
L 198.38077 28.709253 
L 198.692811 28.709253 
L 198.692811 28.150071 
L 198.824584 28.150071 
L 198.824584 27.590889 
L 204.31951 27.590889 
L 204.31951 27.031707 
L 204.725795 27.031707 
L 204.774103 25.913342 
L 205.014223 25.913342 
L 205.080102 24.235795 
L 205.276821 24.235795 
L 205.313092 21.999066 
L 205.482892 21.999066 
L 205.537198 20.32152 
L 205.744179 20.32152 
L 205.744179 19.762337 
L 209.309974 19.762337 
L 209.309974 19.203155 
L 209.645694 19.203155 
L 209.645694 18.643973 
L 210.165517 18.643973 
L 210.165517 18.084791 
L 210.340881 18.084791 
L 210.360498 16.966426 
L 210.534326 16.966426 
L 210.534326 16.407244 
L 213.447675 16.407244 
L 213.447675 15.848062 
L 214.331775 15.848062 
L 214.401831 14.729697 
L 217.251286 14.729697 
L 217.251286 14.170515 
L 217.596197 14.170515 
L 217.596197 13.052151 
L 220.040168 13.052151 
L 220.145282 11.933786 
L 222.471206 11.933786 
L 222.471206 11.374604 
L 226.434149 11.374604 
L 226.434149 10.256239 
L 237.507519 10.256239 
L 237.507519 9.697057 
L 333.168 9.697057 
L 333.168 9.697057 
" style="fill:none;stroke:#ff0000;stroke-linecap:square;stroke-width:1.5;"/>
   </g>
   <g id="line2d_59">
    <defs>
     <path d="M 0 -6 
L -5.196152 -3 
L -5.196152 3 
L -0 6 
L 5.196152 3 
L 5.196152 -3 
z
" id="m6951809e09" style="stroke:#ff0000;stroke-linejoin:miter;stroke-width:1.5;"/>
    </defs>
    <g>
     <use style="fill-opacity:0;stroke:#ff0000;stroke-linejoin:miter;stroke-width:1.5;" x="145.398907" xlink:href="#m6951809e09" y="212.680211"/>
     <use style="fill-opacity:0;stroke:#ff0000;stroke-linejoin:miter;stroke-width:1.5;" x="173.816885" xlink:href="#m6951809e09" y="126.006963"/>
     <use style="fill-opacity:0;stroke:#ff0000;stroke-linejoin:miter;stroke-width:1.5;" x="237.507519" xlink:href="#m6951809e09" y="10.256239"/>
     <use style="fill-opacity:0;stroke:#ff0000;stroke-linejoin:miter;stroke-width:1.5;" x="237.507519" xlink:href="#m6951809e09" y="9.697057"/>
     <use style="fill-opacity:0;stroke:#ff0000;stroke-linejoin:miter;stroke-width:1.5;" x="237.507519" xlink:href="#m6951809e09" y="9.697057"/>
     <use style="fill-opacity:0;stroke:#ff0000;stroke-linejoin:miter;stroke-width:1.5;" x="333.168" xlink:href="#m6951809e09" y="9.697057"/>
    </g>
   </g>
   <g id="line2d_60">
    <path style="fill:none;stroke:#ff0000;stroke-linecap:square;stroke-width:1.5;"/>
    <g/>
   </g>
   <g id="line2d_61">
    <path clip-path="url(#pb3f7120d4a)" d="M 186.941843 38.215351 
" style="fill:none;stroke:#ff0000;stroke-linecap:square;stroke-width:1.5;"/>
    <defs>
     <path d="M -12 12 
L 12 -12 
M -12 -12 
L 12 12 
" id="m04227a9f57" style="stroke:#ff0000;"/>
    </defs>
    <g clip-path="url(#pb3f7120d4a)">
     <use style="fill:#ff0000;stroke:#ff0000;" x="186.941843" xlink:href="#m04227a9f57" y="38.215351"/>
    </g>
   </g>
   <g id="line2d_62">
    <path d="M 333.168 127.125328 
L 363.64328 289.176341 
" style="fill:none;stroke:#000080;stroke-linecap:square;stroke-width:1.5;"/>
    <g>
     <use style="fill-opacity:0;stroke:#000080;stroke-width:1.5;" x="333.168" xlink:href="#mf5a525a307" y="127.125328"/>
     <use style="fill-opacity:0;stroke:#000080;stroke-width:1.5;" x="363.64328" xlink:href="#mf5a525a307" y="289.176341"/>
    </g>
   </g>
   <g id="line2d_63">
    <path d="M 333.168 127.125328 
L 363.64328 220.732435 
" style="fill:none;stroke:#ff00ff;stroke-linecap:square;stroke-width:1.5;"/>
    <g>
     <use style="fill-opacity:0;stroke:#ff00ff;stroke-linejoin:miter;stroke-width:1.5;" x="333.168" xlink:href="#m67bfaf11c6" y="127.125328"/>
     <use style="fill-opacity:0;stroke:#ff00ff;stroke-linejoin:miter;stroke-width:1.5;" x="363.64328" xlink:href="#m67bfaf11c6" y="220.732435"/>
    </g>
   </g>
   <g id="line2d_64">
    <path d="M 333.168 20.880702 
L 363.64328 152.288529 
" style="fill:none;stroke:#ffa500;stroke-linecap:square;stroke-width:1.5;"/>
    <g>
     <use style="fill-opacity:0;stroke:#ffa500;stroke-linejoin:bevel;stroke-width:1.5;" x="333.168" xlink:href="#m2f4a518aa2" y="20.880702"/>
     <use style="fill-opacity:0;stroke:#ffa500;stroke-linejoin:bevel;stroke-width:1.5;" x="363.64328" xlink:href="#m2f4a518aa2" y="152.288529"/>
    </g>
   </g>
   <g id="line2d_65">
    <path d="M 333.168 9.697057 
L 363.64328 83.844622 
" style="fill:none;stroke:#ff0000;stroke-linecap:square;stroke-width:1.5;"/>
    <g>
     <use style="fill-opacity:0;stroke:#ff0000;stroke-linejoin:miter;stroke-width:1.5;" x="333.168" xlink:href="#m6951809e09" y="9.697057"/>
     <use style="fill-opacity:0;stroke:#ff0000;stroke-linejoin:miter;stroke-width:1.5;" x="363.64328" xlink:href="#m6951809e09" y="83.844622"/>
    </g>
   </g>
   <g id="line2d_66">
    <path d="M 333.168 9.697057 
L 363.64328 15.400716 
" style="fill:none;stroke:#6495ed;stroke-linecap:square;stroke-width:1.5;"/>
    <g>
     <use style="fill-opacity:0;stroke:#6495ed;stroke-linejoin:miter;stroke-width:1.5;" x="333.168" xlink:href="#md70000f3b4" y="9.697057"/>
     <use style="fill-opacity:0;stroke:#6495ed;stroke-linejoin:miter;stroke-width:1.5;" x="363.64328" xlink:href="#md70000f3b4" y="15.400716"/>
    </g>
   </g>
   <g id="line2d_67">
    <path d="M 333.168 294.88 
L 333.168 9.697057 
" style="fill:none;stroke:#000000;stroke-linecap:square;stroke-width:1.5;"/>
   </g>
   <g id="patch_3">
    <path d="M 56.12 294.88 
L 56.12 6.845228 
" style="fill:none;stroke:#000000;stroke-linecap:square;stroke-linejoin:miter;stroke-width:0.8;"/>
   </g>
   <g id="patch_4">
    <path d="M 333.168 294.88 
L 333.168 6.845228 
" style="fill:none;stroke:#000000;stroke-linecap:square;stroke-linejoin:miter;stroke-width:0.8;"/>
   </g>
   <g id="patch_5">
    <path d="M 56.12 294.88 
L 333.168 294.88 
" style="fill:none;stroke:#000000;stroke-linecap:square;stroke-linejoin:miter;stroke-width:0.8;"/>
   </g>
   <g id="patch_6">
    <path d="M 56.12 6.845228 
L 333.168 6.845228 
" style="fill:none;stroke:#000000;stroke-linecap:square;stroke-linejoin:miter;stroke-width:0.8;"/>
   </g>
   <g id="text_13">
    <!-- f12 -->
    <g transform="translate(369.18424 293.867279)scale(0.17 -0.17)">
     <use xlink:href="#DejaVuSans-66"/>
     <use x="35.205078" xlink:href="#DejaVuSans-31"/>
     <use x="98.828125" xlink:href="#DejaVuSans-32"/>
    </g>
   </g>
   <g id="text_14">
    <!-- f13 -->
    <defs>
     <path d="M 40.578125 39.3125 
Q 47.65625 37.796875 51.625 33 
Q 55.609375 28.21875 55.609375 21.1875 
Q 55.609375 10.40625 48.1875 4.484375 
Q 40.765625 -1.421875 27.09375 -1.421875 
Q 22.515625 -1.421875 17.65625 -0.515625 
Q 12.796875 0.390625 7.625 2.203125 
L 7.625 11.71875 
Q 11.71875 9.328125 16.59375 8.109375 
Q 21.484375 6.890625 26.8125 6.890625 
Q 36.078125 6.890625 40.9375 10.546875 
Q 45.796875 14.203125 45.796875 21.1875 
Q 45.796875 27.640625 41.28125 31.265625 
Q 36.765625 34.90625 28.71875 34.90625 
L 20.21875 34.90625 
L 20.21875 43.015625 
L 29.109375 43.015625 
Q 36.375 43.015625 40.234375 45.921875 
Q 44.09375 48.828125 44.09375 54.296875 
Q 44.09375 59.90625 40.109375 62.90625 
Q 36.140625 65.921875 28.71875 65.921875 
Q 24.65625 65.921875 20.015625 65.03125 
Q 15.375 64.15625 9.8125 62.3125 
L 9.8125 71.09375 
Q 15.4375 72.65625 20.34375 73.4375 
Q 25.25 74.21875 29.59375 74.21875 
Q 40.828125 74.21875 47.359375 69.109375 
Q 53.90625 64.015625 53.90625 55.328125 
Q 53.90625 49.265625 50.4375 45.09375 
Q 46.96875 40.921875 40.578125 39.3125 
z
" id="DejaVuSans-33"/>
    </defs>
    <g transform="translate(369.18424 225.423372)scale(0.17 -0.17)">
     <use xlink:href="#DejaVuSans-66"/>
     <use x="35.205078" xlink:href="#DejaVuSans-31"/>
     <use x="98.828125" xlink:href="#DejaVuSans-33"/>
    </g>
   </g>
   <g id="text_15">
    <!-- f10 -->
    <g transform="translate(369.18424 156.979466)scale(0.17 -0.17)">
     <use xlink:href="#DejaVuSans-66"/>
     <use x="35.205078" xlink:href="#DejaVuSans-31"/>
     <use x="98.828125" xlink:href="#DejaVuSans-30"/>
    </g>
   </g>
   <g id="text_16">
    <!-- f14 -->
    <g transform="translate(369.18424 88.53556)scale(0.17 -0.17)">
     <use xlink:href="#DejaVuSans-66"/>
     <use x="35.205078" xlink:href="#DejaVuSans-31"/>
     <use x="98.828125" xlink:href="#DejaVuSans-34"/>
    </g>
   </g>
   <g id="text_17">
    <!-- f11 -->
    <g transform="translate(369.18424 20.091654)scale(0.17 -0.17)">
     <use xlink:href="#DejaVuSans-66"/>
     <use x="35.205078" xlink:href="#DejaVuSans-31"/>
     <use x="98.828125" xlink:href="#DejaVuSans-31"/>
    </g>
   </g>
   <g id="text_18">
    <!-- bbob -->
    <defs>
     <path d="M 48.6875 27.296875 
Q 48.6875 37.203125 44.609375 42.84375 
Q 40.53125 48.484375 33.40625 48.484375 
Q 26.265625 48.484375 22.1875 42.84375 
Q 18.109375 37.203125 18.109375 27.296875 
Q 18.109375 17.390625 22.1875 11.75 
Q 26.265625 6.109375 33.40625 6.109375 
Q 40.53125 6.109375 44.609375 11.75 
Q 48.6875 17.390625 48.6875 27.296875 
z
M 18.109375 46.390625 
Q 20.953125 51.265625 25.265625 53.625 
Q 29.59375 56 35.59375 56 
Q 45.5625 56 51.78125 48.09375 
Q 58.015625 40.1875 58.015625 27.296875 
Q 58.015625 14.40625 51.78125 6.484375 
Q 45.5625 -1.421875 35.59375 -1.421875 
Q 29.59375 -1.421875 25.265625 0.953125 
Q 20.953125 3.328125 18.109375 8.203125 
L 18.109375 0 
L 9.078125 0 
L 9.078125 75.984375 
L 18.109375 75.984375 
z
" id="DejaVuSans-62"/>
    </defs>
    <g transform="translate(58.89048 17.475982)scale(0.102 -0.102)">
     <use xlink:href="#DejaVuSans-62"/>
     <use x="63.476562" xlink:href="#DejaVuSans-62"/>
     <use x="126.953125" xlink:href="#DejaVuSans-6f"/>
     <use x="188.134766" xlink:href="#DejaVuSans-62"/>
    </g>
    <!-- Ill-conditioned functions, 5-D -->
    <defs>
     <path d="M 9.8125 72.90625 
L 19.671875 72.90625 
L 19.671875 0 
L 9.8125 0 
z
" id="DejaVuSans-49"/>
     <path d="M 10.796875 72.90625 
L 49.515625 72.90625 
L 49.515625 64.59375 
L 19.828125 64.59375 
L 19.828125 46.734375 
Q 21.96875 47.46875 24.109375 47.828125 
Q 26.265625 48.1875 28.421875 48.1875 
Q 40.625 48.1875 47.75 41.5 
Q 54.890625 34.8125 54.890625 23.390625 
Q 54.890625 11.625 47.5625 5.09375 
Q 40.234375 -1.421875 26.90625 -1.421875 
Q 22.3125 -1.421875 17.546875 -0.640625 
Q 12.796875 0.140625 7.71875 1.703125 
L 7.71875 11.625 
Q 12.109375 9.234375 16.796875 8.0625 
Q 21.484375 6.890625 26.703125 6.890625 
Q 35.15625 6.890625 40.078125 11.328125 
Q 45.015625 15.765625 45.015625 23.390625 
Q 45.015625 31 40.078125 35.4375 
Q 35.15625 39.890625 26.703125 39.890625 
Q 22.75 39.890625 18.8125 39.015625 
Q 14.890625 38.140625 10.796875 36.28125 
z
" id="DejaVuSans-35"/>
     <path d="M 19.671875 64.796875 
L 19.671875 8.109375 
L 31.59375 8.109375 
Q 46.6875 8.109375 53.6875 14.9375 
Q 60.6875 21.78125 60.6875 36.53125 
Q 60.6875 51.171875 53.6875 57.984375 
Q 46.6875 64.796875 31.59375 64.796875 
z
M 9.8125 72.90625 
L 30.078125 72.90625 
Q 51.265625 72.90625 61.171875 64.09375 
Q 71.09375 55.28125 71.09375 36.53125 
Q 71.09375 17.671875 61.125 8.828125 
Q 51.171875 0 30.078125 0 
L 9.8125 0 
z
" id="DejaVuSans-44"/>
    </defs>
    <g transform="translate(58.89048 28.89775)scale(0.102 -0.102)">
     <use xlink:href="#DejaVuSans-49"/>
     <use x="29.492188" xlink:href="#DejaVuSans-6c"/>
     <use x="57.275391" xlink:href="#DejaVuSans-6c"/>
     <use x="85.058594" xlink:href="#DejaVuSans-2d"/>
     <use x="121.142578" xlink:href="#DejaVuSans-63"/>
     <use x="176.123047" xlink:href="#DejaVuSans-6f"/>
     <use x="237.304688" xlink:href="#DejaVuSans-6e"/>
     <use x="300.683594" xlink:href="#DejaVuSans-64"/>
     <use x="364.160156" xlink:href="#DejaVuSans-69"/>
     <use x="391.943359" xlink:href="#DejaVuSans-74"/>
     <use x="431.152344" xlink:href="#DejaVuSans-69"/>
     <use x="458.935547" xlink:href="#DejaVuSans-6f"/>
     <use x="520.117188" xlink:href="#DejaVuSans-6e"/>
     <use x="583.496094" xlink:href="#DejaVuSans-65"/>
     <use x="645.019531" xlink:href="#DejaVuSans-64"/>
     <use x="708.496094" xlink:href="#DejaVuSans-20"/>
     <use x="740.283203" xlink:href="#DejaVuSans-66"/>
     <use x="775.488281" xlink:href="#DejaVuSans-75"/>
     <use x="838.867188" xlink:href="#DejaVuSans-6e"/>
     <use x="902.246094" xlink:href="#DejaVuSans-63"/>
     <use x="957.226562" xlink:href="#DejaVuSans-74"/>
     <use x="996.435547" xlink:href="#DejaVuSans-69"/>
     <use x="1024.21875" xlink:href="#DejaVuSans-6f"/>
     <use x="1085.400391" xlink:href="#DejaVuSans-6e"/>
     <use x="1148.779297" xlink:href="#DejaVuSans-73"/>
     <use x="1200.878906" xlink:href="#DejaVuSans-2c"/>
     <use x="1232.666016" xlink:href="#DejaVuSans-20"/>
     <use x="1264.453125" xlink:href="#DejaVuSans-35"/>
     <use x="1328.076172" xlink:href="#DejaVuSans-2d"/>
     <use x="1364.160156" xlink:href="#DejaVuSans-44"/>
    </g>
    <!-- 51 targets: 100..1e-08 -->
    <defs>
     <path d="M 11.71875 12.40625 
L 22.015625 12.40625 
L 22.015625 0 
L 11.71875 0 
z
M 11.71875 51.703125 
L 22.015625 51.703125 
L 22.015625 39.3125 
L 11.71875 39.3125 
z
" id="DejaVuSans-3a"/>
    </defs>
    <g transform="translate(58.89048 40.319519)scale(0.102 -0.102)">
     <use xlink:href="#DejaVuSans-35"/>
     <use x="63.623047" xlink:href="#DejaVuSans-31"/>
     <use x="127.246094" xlink:href="#DejaVuSans-20"/>
     <use x="159.033203" xlink:href="#DejaVuSans-74"/>
     <use x="198.242188" xlink:href="#DejaVuSans-61"/>
     <use x="259.521484" xlink:href="#DejaVuSans-72"/>
     <use x="300.619141" xlink:href="#DejaVuSans-67"/>
     <use x="364.095703" xlink:href="#DejaVuSans-65"/>
     <use x="425.619141" xlink:href="#DejaVuSans-74"/>
     <use x="464.828125" xlink:href="#DejaVuSans-73"/>
     <use x="516.927734" xlink:href="#DejaVuSans-3a"/>
     <use x="550.619141" xlink:href="#DejaVuSans-20"/>
     <use x="582.40625" xlink:href="#DejaVuSans-31"/>
     <use x="646.029297" xlink:href="#DejaVuSans-30"/>
     <use x="709.652344" xlink:href="#DejaVuSans-30"/>
     <use x="773.275391" xlink:href="#DejaVuSans-2e"/>
     <use x="805.0625" xlink:href="#DejaVuSans-2e"/>
     <use x="836.849609" xlink:href="#DejaVuSans-31"/>
     <use x="900.472656" xlink:href="#DejaVuSans-65"/>
     <use x="961.996094" xlink:href="#DejaVuSans-2d"/>
     <use x="998.080078" xlink:href="#DejaVuSans-30"/>
     <use x="1061.703125" xlink:href="#DejaVuSans-38"/>
    </g>
    <!-- 15 instances -->
    <g transform="translate(58.89048 51.741288)scale(0.102 -0.102)">
     <use xlink:href="#DejaVuSans-31"/>
     <use x="63.623047" xlink:href="#DejaVuSans-35"/>
     <use x="127.246094" xlink:href="#DejaVuSans-20"/>
     <use x="159.033203" xlink:href="#DejaVuSans-69"/>
     <use x="186.816406" xlink:href="#DejaVuSans-6e"/>
     <use x="250.195312" xlink:href="#DejaVuSans-73"/>
     <use x="302.294922" xlink:href="#DejaVuSans-74"/>
     <use x="341.503906" xlink:href="#DejaVuSans-61"/>
     <use x="402.783203" xlink:href="#DejaVuSans-6e"/>
     <use x="466.162109" xlink:href="#DejaVuSans-63"/>
     <use x="521.142578" xlink:href="#DejaVuSans-65"/>
     <use x="582.666016" xlink:href="#DejaVuSans-73"/>
    </g>
   </g>
   <g id="text_19">
    <!-- v0.0.0 -->
    <g style="fill:#808080;" transform="translate(178.96275 289.919965)scale(0.1 -0.1)">
     <use xlink:href="#DejaVuSans-76"/>
     <use x="59.179688" xlink:href="#DejaVuSans-30"/>
     <use x="122.802734" xlink:href="#DejaVuSans-2e"/>
     <use x="154.589844" xlink:href="#DejaVuSans-30"/>
     <use x="218.212891" xlink:href="#DejaVuSans-2e"/>
     <use x="250" xlink:href="#DejaVuSans-30"/>
    </g>
   </g>
  </g>
 </g>
 <defs>
  <clipPath id="pb3f7120d4a">
   <rect height="288.034772" width="277.048" x="56.12" y="6.845228"/>
  </clipPath>
 </defs>
</svg>
