<?xml version="1.0" encoding="utf-8" standalone="no"?>
<!DOCTYPE svg PUBLIC "-//W3C//DTD SVG 1.1//EN"
  "http://www.w3.org/Graphics/SVG/1.1/DTD/svg11.dtd">
<!-- Created with matplotlib (http://matplotlib.org/) -->
<svg height="345.6pt" version="1.1" viewBox="0 0 460.8 345.6" width="460.8pt" xmlns="http://www.w3.org/2000/svg" xmlns:xlink="http://www.w3.org/1999/xlink">
 <defs>
  <style type="text/css">
*{stroke-linecap:butt;stroke-linejoin:round;}
  </style>
 </defs>
 <g id="figure_1">
  <g id="patch_1">
   <path d="M 0 345.6 
L 460.8 345.6 
L 460.8 0 
L 0 0 
z
" style="fill:#ffffff;"/>
  </g>
  <g id="axes_1">
   <g id="patch_2">
    <path d="M 56.12 294.88 
L 333.168 294.88 
L 333.168 24.84 
L 56.12 24.84 
z
" style="fill:#ffffff;"/>
   </g>
   <g id="matplotlib.axis_1">
    <g id="xtick_1">
     <g id="line2d_1">
      <path clip-path="url(#p765310fe05)" d="M 56.12 294.88 
L 56.12 24.84 
" style="fill:none;stroke:#b0b0b0;stroke-linecap:square;stroke-width:0.8;"/>
     </g>
     <g id="line2d_2">
      <defs>
       <path d="M 0 0 
L 0 3.5 
" id="m2dde59c9f7" style="stroke:#000000;stroke-width:0.8;"/>
      </defs>
      <g>
       <use style="stroke:#000000;stroke-width:0.8;" x="56.12" xlink:href="#m2dde59c9f7" y="294.88"/>
      </g>
     </g>
     <g id="text_1">
      <!-- 0 -->
      <defs>
       <path d="M 31.78125 66.40625 
Q 24.171875 66.40625 20.328125 58.90625 
Q 16.5 51.421875 16.5 36.375 
Q 16.5 21.390625 20.328125 13.890625 
Q 24.171875 6.390625 31.78125 6.390625 
Q 39.453125 6.390625 43.28125 13.890625 
Q 47.125 21.390625 47.125 36.375 
Q 47.125 51.421875 43.28125 58.90625 
Q 39.453125 66.40625 31.78125 66.40625 
z
M 31.78125 74.21875 
Q 44.046875 74.21875 50.515625 64.515625 
Q 56.984375 54.828125 56.984375 36.375 
Q 56.984375 17.96875 50.515625 8.265625 
Q 44.046875 -1.421875 31.78125 -1.421875 
Q 19.53125 -1.421875 13.0625 8.265625 
Q 6.59375 17.96875 6.59375 36.375 
Q 6.59375 54.828125 13.0625 64.515625 
Q 19.53125 74.21875 31.78125 74.21875 
z
" id="DejaVuSans-30"/>
      </defs>
      <g transform="translate(49.7575 317.076875)scale(0.2 -0.2)">
       <use xlink:href="#DejaVuSans-30"/>
      </g>
     </g>
    </g>
    <g id="xtick_2">
     <g id="line2d_3">
      <path clip-path="url(#p765310fe05)" d="M 135.276571 294.88 
L 135.276571 24.84 
" style="fill:none;stroke:#b0b0b0;stroke-linecap:square;stroke-width:0.8;"/>
     </g>
     <g id="line2d_4">
      <g>
       <use style="stroke:#000000;stroke-width:0.8;" x="135.276571" xlink:href="#m2dde59c9f7" y="294.88"/>
      </g>
     </g>
     <g id="text_2">
      <!-- 2 -->
      <defs>
       <path d="M 19.1875 8.296875 
L 53.609375 8.296875 
L 53.609375 0 
L 7.328125 0 
L 7.328125 8.296875 
Q 12.9375 14.109375 22.625 23.890625 
Q 32.328125 33.6875 34.8125 36.53125 
Q 39.546875 41.84375 41.421875 45.53125 
Q 43.3125 49.21875 43.3125 52.78125 
Q 43.3125 58.59375 39.234375 62.25 
Q 35.15625 65.921875 28.609375 65.921875 
Q 23.96875 65.921875 18.8125 64.3125 
Q 13.671875 62.703125 7.8125 59.421875 
L 7.8125 69.390625 
Q 13.765625 71.78125 18.9375 73 
Q 24.125 74.21875 28.421875 74.21875 
Q 39.75 74.21875 46.484375 68.546875 
Q 53.21875 62.890625 53.21875 53.421875 
Q 53.21875 48.921875 51.53125 44.890625 
Q 49.859375 40.875 45.40625 35.40625 
Q 44.1875 33.984375 37.640625 27.21875 
Q 31.109375 20.453125 19.1875 8.296875 
z
" id="DejaVuSans-32"/>
      </defs>
      <g transform="translate(128.914071 317.076875)scale(0.2 -0.2)">
       <use xlink:href="#DejaVuSans-32"/>
      </g>
     </g>
    </g>
    <g id="xtick_3">
     <g id="line2d_5">
      <path clip-path="url(#p765310fe05)" d="M 214.433143 294.88 
L 214.433143 24.84 
" style="fill:none;stroke:#b0b0b0;stroke-linecap:square;stroke-width:0.8;"/>
     </g>
     <g id="line2d_6">
      <g>
       <use style="stroke:#000000;stroke-width:0.8;" x="214.433143" xlink:href="#m2dde59c9f7" y="294.88"/>
      </g>
     </g>
     <g id="text_3">
      <!-- 4 -->
      <defs>
       <path d="M 37.796875 64.3125 
L 12.890625 25.390625 
L 37.796875 25.390625 
z
M 35.203125 72.90625 
L 47.609375 72.90625 
L 47.609375 25.390625 
L 58.015625 25.390625 
L 58.015625 17.1875 
L 47.609375 17.1875 
L 47.609375 0 
L 37.796875 0 
L 37.796875 17.1875 
L 4.890625 17.1875 
L 4.890625 26.703125 
z
" id="DejaVuSans-34"/>
      </defs>
      <g transform="translate(208.070643 317.076875)scale(0.2 -0.2)">
       <use xlink:href="#DejaVuSans-34"/>
      </g>
     </g>
    </g>
    <g id="xtick_4">
     <g id="line2d_7">
      <path clip-path="url(#p765310fe05)" d="M 293.589714 294.88 
L 293.589714 24.84 
" style="fill:none;stroke:#b0b0b0;stroke-linecap:square;stroke-width:0.8;"/>
     </g>
     <g id="line2d_8">
      <g>
       <use style="stroke:#000000;stroke-width:0.8;" x="293.589714" xlink:href="#m2dde59c9f7" y="294.88"/>
      </g>
     </g>
     <g id="text_4">
      <!-- 6 -->
      <defs>
       <path d="M 33.015625 40.375 
Q 26.375 40.375 22.484375 35.828125 
Q 18.609375 31.296875 18.609375 23.390625 
Q 18.609375 15.53125 22.484375 10.953125 
Q 26.375 6.390625 33.015625 6.390625 
Q 39.65625 6.390625 43.53125 10.953125 
Q 47.40625 15.53125 47.40625 23.390625 
Q 47.40625 31.296875 43.53125 35.828125 
Q 39.65625 40.375 33.015625 40.375 
z
M 52.59375 71.296875 
L 52.59375 62.3125 
Q 48.875 64.0625 45.09375 64.984375 
Q 41.3125 65.921875 37.59375 65.921875 
Q 27.828125 65.921875 22.671875 59.328125 
Q 17.53125 52.734375 16.796875 39.40625 
Q 19.671875 43.65625 24.015625 45.921875 
Q 28.375 48.1875 33.59375 48.1875 
Q 44.578125 48.1875 50.953125 41.515625 
Q 57.328125 34.859375 57.328125 23.390625 
Q 57.328125 12.15625 50.6875 5.359375 
Q 44.046875 -1.421875 33.015625 -1.421875 
Q 20.359375 -1.421875 13.671875 8.265625 
Q 6.984375 17.96875 6.984375 36.375 
Q 6.984375 53.65625 15.1875 63.9375 
Q 23.390625 74.21875 37.203125 74.21875 
Q 40.921875 74.21875 44.703125 73.484375 
Q 48.484375 72.75 52.59375 71.296875 
z
" id="DejaVuSans-36"/>
      </defs>
      <g transform="translate(287.227214 317.076875)scale(0.2 -0.2)">
       <use xlink:href="#DejaVuSans-36"/>
      </g>
     </g>
    </g>
    <g id="xtick_5">
     <g id="line2d_9">
      <path clip-path="url(#p765310fe05)" d="M 56.12 294.88 
L 56.12 24.84 
" style="fill:none;stroke:#b0b0b0;stroke-linecap:square;stroke-width:0.8;"/>
     </g>
     <g id="line2d_10">
      <defs>
       <path d="M 0 0 
L 0 2 
" id="m807010dc4f" style="stroke:#000000;stroke-width:0.6;"/>
      </defs>
      <g>
       <use style="stroke:#000000;stroke-width:0.6;" x="56.12" xlink:href="#m807010dc4f" y="294.88"/>
      </g>
     </g>
    </g>
    <g id="xtick_6">
     <g id="line2d_11">
      <path clip-path="url(#p765310fe05)" d="M 95.698286 294.88 
L 95.698286 24.84 
" style="fill:none;stroke:#b0b0b0;stroke-linecap:square;stroke-width:0.8;"/>
     </g>
     <g id="line2d_12">
      <g>
       <use style="stroke:#000000;stroke-width:0.6;" x="95.698286" xlink:href="#m807010dc4f" y="294.88"/>
      </g>
     </g>
    </g>
    <g id="xtick_7">
     <g id="line2d_13">
      <path clip-path="url(#p765310fe05)" d="M 135.276571 294.88 
L 135.276571 24.84 
" style="fill:none;stroke:#b0b0b0;stroke-linecap:square;stroke-width:0.8;"/>
     </g>
     <g id="line2d_14">
      <g>
       <use style="stroke:#000000;stroke-width:0.6;" x="135.276571" xlink:href="#m807010dc4f" y="294.88"/>
      </g>
     </g>
    </g>
    <g id="xtick_8">
     <g id="line2d_15">
      <path clip-path="url(#p765310fe05)" d="M 174.854857 294.88 
L 174.854857 24.84 
" style="fill:none;stroke:#b0b0b0;stroke-linecap:square;stroke-width:0.8;"/>
     </g>
     <g id="line2d_16">
      <g>
       <use style="stroke:#000000;stroke-width:0.6;" x="174.854857" xlink:href="#m807010dc4f" y="294.88"/>
      </g>
     </g>
    </g>
    <g id="xtick_9">
     <g id="line2d_17">
      <path clip-path="url(#p765310fe05)" d="M 214.433143 294.88 
L 214.433143 24.84 
" style="fill:none;stroke:#b0b0b0;stroke-linecap:square;stroke-width:0.8;"/>
     </g>
     <g id="line2d_18">
      <g>
       <use style="stroke:#000000;stroke-width:0.6;" x="214.433143" xlink:href="#m807010dc4f" y="294.88"/>
      </g>
     </g>
    </g>
    <g id="xtick_10">
     <g id="line2d_19">
      <path clip-path="url(#p765310fe05)" d="M 254.011429 294.88 
L 254.011429 24.84 
" style="fill:none;stroke:#b0b0b0;stroke-linecap:square;stroke-width:0.8;"/>
     </g>
     <g id="line2d_20">
      <g>
       <use style="stroke:#000000;stroke-width:0.6;" x="254.011429" xlink:href="#m807010dc4f" y="294.88"/>
      </g>
     </g>
    </g>
    <g id="xtick_11">
     <g id="line2d_21">
      <path clip-path="url(#p765310fe05)" d="M 293.589714 294.88 
L 293.589714 24.84 
" style="fill:none;stroke:#b0b0b0;stroke-linecap:square;stroke-width:0.8;"/>
     </g>
     <g id="line2d_22">
      <g>
       <use style="stroke:#000000;stroke-width:0.6;" x="293.589714" xlink:href="#m807010dc4f" y="294.88"/>
      </g>
     </g>
    </g>
    <g id="xtick_12">
     <g id="line2d_23">
      <path clip-path="url(#p765310fe05)" d="M 333.168 294.88 
L 333.168 24.84 
" style="fill:none;stroke:#b0b0b0;stroke-linecap:square;stroke-width:0.8;"/>
     </g>
     <g id="line2d_24">
      <g>
       <use style="stroke:#000000;stroke-width:0.6;" x="333.168" xlink:href="#m807010dc4f" y="294.88"/>
      </g>
     </g>
    </g>
    <g id="text_5">
     <!-- log10(# f-evals / dimension) -->
     <defs>
      <path d="M 9.421875 75.984375 
L 18.40625 75.984375 
L 18.40625 0 
L 9.421875 0 
z
" id="DejaVuSans-6c"/>
      <path d="M 30.609375 48.390625 
Q 23.390625 48.390625 19.1875 42.75 
Q 14.984375 37.109375 14.984375 27.296875 
Q 14.984375 17.484375 19.15625 11.84375 
Q 23.34375 6.203125 30.609375 6.203125 
Q 37.796875 6.203125 41.984375 11.859375 
Q 46.1875 17.53125 46.1875 27.296875 
Q 46.1875 37.015625 41.984375 42.703125 
Q 37.796875 48.390625 30.609375 48.390625 
z
M 30.609375 56 
Q 42.328125 56 49.015625 48.375 
Q 55.71875 40.765625 55.71875 27.296875 
Q 55.71875 13.875 49.015625 6.21875 
Q 42.328125 -1.421875 30.609375 -1.421875 
Q 18.84375 -1.421875 12.171875 6.21875 
Q 5.515625 13.875 5.515625 27.296875 
Q 5.515625 40.765625 12.171875 48.375 
Q 18.84375 56 30.609375 56 
z
" id="DejaVuSans-6f"/>
      <path d="M 45.40625 27.984375 
Q 45.40625 37.75 41.375 43.109375 
Q 37.359375 48.484375 30.078125 48.484375 
Q 22.859375 48.484375 18.828125 43.109375 
Q 14.796875 37.75 14.796875 27.984375 
Q 14.796875 18.265625 18.828125 12.890625 
Q 22.859375 7.515625 30.078125 7.515625 
Q 37.359375 7.515625 41.375 12.890625 
Q 45.40625 18.265625 45.40625 27.984375 
z
M 54.390625 6.78125 
Q 54.390625 -7.171875 48.1875 -13.984375 
Q 42 -20.796875 29.203125 -20.796875 
Q 24.46875 -20.796875 20.265625 -20.09375 
Q 16.0625 -19.390625 12.109375 -17.921875 
L 12.109375 -9.1875 
Q 16.0625 -11.328125 19.921875 -12.34375 
Q 23.78125 -13.375 27.78125 -13.375 
Q 36.625 -13.375 41.015625 -8.765625 
Q 45.40625 -4.15625 45.40625 5.171875 
L 45.40625 9.625 
Q 42.625 4.78125 38.28125 2.390625 
Q 33.9375 0 27.875 0 
Q 17.828125 0 11.671875 7.65625 
Q 5.515625 15.328125 5.515625 27.984375 
Q 5.515625 40.671875 11.671875 48.328125 
Q 17.828125 56 27.875 56 
Q 33.9375 56 38.28125 53.609375 
Q 42.625 51.21875 45.40625 46.390625 
L 45.40625 54.6875 
L 54.390625 54.6875 
z
" id="DejaVuSans-67"/>
      <path d="M 12.40625 8.296875 
L 28.515625 8.296875 
L 28.515625 63.921875 
L 10.984375 60.40625 
L 10.984375 69.390625 
L 28.421875 72.90625 
L 38.28125 72.90625 
L 38.28125 8.296875 
L 54.390625 8.296875 
L 54.390625 0 
L 12.40625 0 
z
" id="DejaVuSans-31"/>
      <path d="M 31 75.875 
Q 24.46875 64.65625 21.28125 53.65625 
Q 18.109375 42.671875 18.109375 31.390625 
Q 18.109375 20.125 21.3125 9.0625 
Q 24.515625 -2 31 -13.1875 
L 23.1875 -13.1875 
Q 15.875 -1.703125 12.234375 9.375 
Q 8.59375 20.453125 8.59375 31.390625 
Q 8.59375 42.28125 12.203125 53.3125 
Q 15.828125 64.359375 23.1875 75.875 
z
" id="DejaVuSans-28"/>
      <path d="M 51.125 44 
L 36.921875 44 
L 32.8125 27.6875 
L 47.125 27.6875 
z
M 43.796875 71.78125 
L 38.71875 51.515625 
L 52.984375 51.515625 
L 58.109375 71.78125 
L 65.921875 71.78125 
L 60.890625 51.515625 
L 76.125 51.515625 
L 76.125 44 
L 58.984375 44 
L 54.984375 27.6875 
L 70.515625 27.6875 
L 70.515625 20.21875 
L 53.078125 20.21875 
L 48 0 
L 40.1875 0 
L 45.21875 20.21875 
L 30.90625 20.21875 
L 25.875 0 
L 18.015625 0 
L 23.09375 20.21875 
L 7.71875 20.21875 
L 7.71875 27.6875 
L 24.90625 27.6875 
L 29 44 
L 13.28125 44 
L 13.28125 51.515625 
L 30.90625 51.515625 
L 35.890625 71.78125 
z
" id="DejaVuSans-23"/>
      <path id="DejaVuSans-20"/>
      <path d="M 37.109375 75.984375 
L 37.109375 68.5 
L 28.515625 68.5 
Q 23.6875 68.5 21.796875 66.546875 
Q 19.921875 64.59375 19.921875 59.515625 
L 19.921875 54.6875 
L 34.71875 54.6875 
L 34.71875 47.703125 
L 19.921875 47.703125 
L 19.921875 0 
L 10.890625 0 
L 10.890625 47.703125 
L 2.296875 47.703125 
L 2.296875 54.6875 
L 10.890625 54.6875 
L 10.890625 58.5 
Q 10.890625 67.625 15.140625 71.796875 
Q 19.390625 75.984375 28.609375 75.984375 
z
" id="DejaVuSans-66"/>
      <path d="M 4.890625 31.390625 
L 31.203125 31.390625 
L 31.203125 23.390625 
L 4.890625 23.390625 
z
" id="DejaVuSans-2d"/>
      <path d="M 56.203125 29.59375 
L 56.203125 25.203125 
L 14.890625 25.203125 
Q 15.484375 15.921875 20.484375 11.0625 
Q 25.484375 6.203125 34.421875 6.203125 
Q 39.59375 6.203125 44.453125 7.46875 
Q 49.3125 8.734375 54.109375 11.28125 
L 54.109375 2.78125 
Q 49.265625 0.734375 44.1875 -0.34375 
Q 39.109375 -1.421875 33.890625 -1.421875 
Q 20.796875 -1.421875 13.15625 6.1875 
Q 5.515625 13.8125 5.515625 26.8125 
Q 5.515625 40.234375 12.765625 48.109375 
Q 20.015625 56 32.328125 56 
Q 43.359375 56 49.78125 48.890625 
Q 56.203125 41.796875 56.203125 29.59375 
z
M 47.21875 32.234375 
Q 47.125 39.59375 43.09375 43.984375 
Q 39.0625 48.390625 32.421875 48.390625 
Q 24.90625 48.390625 20.390625 44.140625 
Q 15.875 39.890625 15.1875 32.171875 
z
" id="DejaVuSans-65"/>
      <path d="M 2.984375 54.6875 
L 12.5 54.6875 
L 29.59375 8.796875 
L 46.6875 54.6875 
L 56.203125 54.6875 
L 35.6875 0 
L 23.484375 0 
z
" id="DejaVuSans-76"/>
      <path d="M 34.28125 27.484375 
Q 23.390625 27.484375 19.1875 25 
Q 14.984375 22.515625 14.984375 16.5 
Q 14.984375 11.71875 18.140625 8.90625 
Q 21.296875 6.109375 26.703125 6.109375 
Q 34.1875 6.109375 38.703125 11.40625 
Q 43.21875 16.703125 43.21875 25.484375 
L 43.21875 27.484375 
z
M 52.203125 31.203125 
L 52.203125 0 
L 43.21875 0 
L 43.21875 8.296875 
Q 40.140625 3.328125 35.546875 0.953125 
Q 30.953125 -1.421875 24.3125 -1.421875 
Q 15.921875 -1.421875 10.953125 3.296875 
Q 6 8.015625 6 15.921875 
Q 6 25.140625 12.171875 29.828125 
Q 18.359375 34.515625 30.609375 34.515625 
L 43.21875 34.515625 
L 43.21875 35.40625 
Q 43.21875 41.609375 39.140625 45 
Q 35.0625 48.390625 27.6875 48.390625 
Q 23 48.390625 18.546875 47.265625 
Q 14.109375 46.140625 10.015625 43.890625 
L 10.015625 52.203125 
Q 14.9375 54.109375 19.578125 55.046875 
Q 24.21875 56 28.609375 56 
Q 40.484375 56 46.34375 49.84375 
Q 52.203125 43.703125 52.203125 31.203125 
z
" id="DejaVuSans-61"/>
      <path d="M 44.28125 53.078125 
L 44.28125 44.578125 
Q 40.484375 46.53125 36.375 47.5 
Q 32.28125 48.484375 27.875 48.484375 
Q 21.1875 48.484375 17.84375 46.4375 
Q 14.5 44.390625 14.5 40.28125 
Q 14.5 37.15625 16.890625 35.375 
Q 19.28125 33.59375 26.515625 31.984375 
L 29.59375 31.296875 
Q 39.15625 29.25 43.1875 25.515625 
Q 47.21875 21.78125 47.21875 15.09375 
Q 47.21875 7.46875 41.1875 3.015625 
Q 35.15625 -1.421875 24.609375 -1.421875 
Q 20.21875 -1.421875 15.453125 -0.5625 
Q 10.6875 0.296875 5.421875 2 
L 5.421875 11.28125 
Q 10.40625 8.6875 15.234375 7.390625 
Q 20.0625 6.109375 24.8125 6.109375 
Q 31.15625 6.109375 34.5625 8.28125 
Q 37.984375 10.453125 37.984375 14.40625 
Q 37.984375 18.0625 35.515625 20.015625 
Q 33.0625 21.96875 24.703125 23.78125 
L 21.578125 24.515625 
Q 13.234375 26.265625 9.515625 29.90625 
Q 5.8125 33.546875 5.8125 39.890625 
Q 5.8125 47.609375 11.28125 51.796875 
Q 16.75 56 26.8125 56 
Q 31.78125 56 36.171875 55.265625 
Q 40.578125 54.546875 44.28125 53.078125 
z
" id="DejaVuSans-73"/>
      <path d="M 25.390625 72.90625 
L 33.6875 72.90625 
L 8.296875 -9.28125 
L 0 -9.28125 
z
" id="DejaVuSans-2f"/>
      <path d="M 45.40625 46.390625 
L 45.40625 75.984375 
L 54.390625 75.984375 
L 54.390625 0 
L 45.40625 0 
L 45.40625 8.203125 
Q 42.578125 3.328125 38.25 0.953125 
Q 33.9375 -1.421875 27.875 -1.421875 
Q 17.96875 -1.421875 11.734375 6.484375 
Q 5.515625 14.40625 5.515625 27.296875 
Q 5.515625 40.1875 11.734375 48.09375 
Q 17.96875 56 27.875 56 
Q 33.9375 56 38.25 53.625 
Q 42.578125 51.265625 45.40625 46.390625 
z
M 14.796875 27.296875 
Q 14.796875 17.390625 18.875 11.75 
Q 22.953125 6.109375 30.078125 6.109375 
Q 37.203125 6.109375 41.296875 11.75 
Q 45.40625 17.390625 45.40625 27.296875 
Q 45.40625 37.203125 41.296875 42.84375 
Q 37.203125 48.484375 30.078125 48.484375 
Q 22.953125 48.484375 18.875 42.84375 
Q 14.796875 37.203125 14.796875 27.296875 
z
" id="DejaVuSans-64"/>
      <path d="M 9.421875 54.6875 
L 18.40625 54.6875 
L 18.40625 0 
L 9.421875 0 
z
M 9.421875 75.984375 
L 18.40625 75.984375 
L 18.40625 64.59375 
L 9.421875 64.59375 
z
" id="DejaVuSans-69"/>
      <path d="M 52 44.1875 
Q 55.375 50.25 60.0625 53.125 
Q 64.75 56 71.09375 56 
Q 79.640625 56 84.28125 50.015625 
Q 88.921875 44.046875 88.921875 33.015625 
L 88.921875 0 
L 79.890625 0 
L 79.890625 32.71875 
Q 79.890625 40.578125 77.09375 44.375 
Q 74.3125 48.1875 68.609375 48.1875 
Q 61.625 48.1875 57.5625 43.546875 
Q 53.515625 38.921875 53.515625 30.90625 
L 53.515625 0 
L 44.484375 0 
L 44.484375 32.71875 
Q 44.484375 40.625 41.703125 44.40625 
Q 38.921875 48.1875 33.109375 48.1875 
Q 26.21875 48.1875 22.15625 43.53125 
Q 18.109375 38.875 18.109375 30.90625 
L 18.109375 0 
L 9.078125 0 
L 9.078125 54.6875 
L 18.109375 54.6875 
L 18.109375 46.1875 
Q 21.1875 51.21875 25.484375 53.609375 
Q 29.78125 56 35.6875 56 
Q 41.65625 56 45.828125 52.96875 
Q 50 49.953125 52 44.1875 
z
" id="DejaVuSans-6d"/>
      <path d="M 54.890625 33.015625 
L 54.890625 0 
L 45.90625 0 
L 45.90625 32.71875 
Q 45.90625 40.484375 42.875 44.328125 
Q 39.84375 48.1875 33.796875 48.1875 
Q 26.515625 48.1875 22.3125 43.546875 
Q 18.109375 38.921875 18.109375 30.90625 
L 18.109375 0 
L 9.078125 0 
L 9.078125 54.6875 
L 18.109375 54.6875 
L 18.109375 46.1875 
Q 21.34375 51.125 25.703125 53.5625 
Q 30.078125 56 35.796875 56 
Q 45.21875 56 50.046875 50.171875 
Q 54.890625 44.34375 54.890625 33.015625 
z
" id="DejaVuSans-6e"/>
      <path d="M 8.015625 75.875 
L 15.828125 75.875 
Q 23.140625 64.359375 26.78125 53.3125 
Q 30.421875 42.28125 30.421875 31.390625 
Q 30.421875 20.453125 26.78125 9.375 
Q 23.140625 -1.703125 15.828125 -13.1875 
L 8.015625 -13.1875 
Q 14.5 -2 17.703125 9.0625 
Q 20.90625 20.125 20.90625 31.390625 
Q 20.90625 42.671875 17.703125 53.65625 
Q 14.5 64.65625 8.015625 75.875 
z
" id="DejaVuSans-29"/>
     </defs>
     <g transform="translate(73.803219 338.153594)scale(0.17 -0.17)">
      <use xlink:href="#DejaVuSans-6c"/>
      <use x="27.783203" xlink:href="#DejaVuSans-6f"/>
      <use x="88.964844" xlink:href="#DejaVuSans-67"/>
      <use x="152.441406" xlink:href="#DejaVuSans-31"/>
      <use x="216.064453" xlink:href="#DejaVuSans-30"/>
      <use x="279.6875" xlink:href="#DejaVuSans-28"/>
      <use x="318.701172" xlink:href="#DejaVuSans-23"/>
      <use x="402.490234" xlink:href="#DejaVuSans-20"/>
      <use x="434.277344" xlink:href="#DejaVuSans-66"/>
      <use x="469.404297" xlink:href="#DejaVuSans-2d"/>
      <use x="505.488281" xlink:href="#DejaVuSans-65"/>
      <use x="567.011719" xlink:href="#DejaVuSans-76"/>
      <use x="626.191406" xlink:href="#DejaVuSans-61"/>
      <use x="687.470703" xlink:href="#DejaVuSans-6c"/>
      <use x="715.253906" xlink:href="#DejaVuSans-73"/>
      <use x="767.353516" xlink:href="#DejaVuSans-20"/>
      <use x="799.140625" xlink:href="#DejaVuSans-2f"/>
      <use x="832.832031" xlink:href="#DejaVuSans-20"/>
      <use x="864.619141" xlink:href="#DejaVuSans-64"/>
      <use x="928.095703" xlink:href="#DejaVuSans-69"/>
      <use x="955.878906" xlink:href="#DejaVuSans-6d"/>
      <use x="1053.291016" xlink:href="#DejaVuSans-65"/>
      <use x="1114.814453" xlink:href="#DejaVuSans-6e"/>
      <use x="1178.193359" xlink:href="#DejaVuSans-73"/>
      <use x="1230.292969" xlink:href="#DejaVuSans-69"/>
      <use x="1258.076172" xlink:href="#DejaVuSans-6f"/>
      <use x="1319.257812" xlink:href="#DejaVuSans-6e"/>
      <use x="1382.636719" xlink:href="#DejaVuSans-29"/>
     </g>
    </g>
   </g>
   <g id="matplotlib.axis_2">
    <g id="ytick_1">
     <g id="line2d_25">
      <path clip-path="url(#p765310fe05)" d="M 56.12 294.88 
L 333.168 294.88 
" style="fill:none;stroke:#b0b0b0;stroke-linecap:square;stroke-width:0.8;"/>
     </g>
     <g id="line2d_26">
      <defs>
       <path d="M 0 0 
L -3.5 0 
" id="mca44d13988" style="stroke:#000000;stroke-width:0.8;"/>
      </defs>
      <g>
       <use style="stroke:#000000;stroke-width:0.8;" x="56.12" xlink:href="#mca44d13988" y="294.88"/>
      </g>
     </g>
     <g id="text_6">
      <!-- 0.0 -->
      <defs>
       <path d="M 10.6875 12.40625 
L 21 12.40625 
L 21 0 
L 10.6875 0 
z
" id="DejaVuSans-2e"/>
      </defs>
      <g transform="translate(23.675 300.95875)scale(0.16 -0.16)">
       <use xlink:href="#DejaVuSans-30"/>
       <use x="63.623047" xlink:href="#DejaVuSans-2e"/>
       <use x="95.410156" xlink:href="#DejaVuSans-30"/>
      </g>
     </g>
    </g>
    <g id="ytick_2">
     <g id="line2d_27">
      <path clip-path="url(#p765310fe05)" d="M 56.12 241.406733 
L 333.168 241.406733 
" style="fill:none;stroke:#b0b0b0;stroke-linecap:square;stroke-width:0.8;"/>
     </g>
     <g id="line2d_28">
      <g>
       <use style="stroke:#000000;stroke-width:0.8;" x="56.12" xlink:href="#mca44d13988" y="241.406733"/>
      </g>
     </g>
     <g id="text_7">
      <!-- 0.2 -->
      <g transform="translate(23.675 247.485483)scale(0.16 -0.16)">
       <use xlink:href="#DejaVuSans-30"/>
       <use x="63.623047" xlink:href="#DejaVuSans-2e"/>
       <use x="95.410156" xlink:href="#DejaVuSans-32"/>
      </g>
     </g>
    </g>
    <g id="ytick_3">
     <g id="line2d_29">
      <path clip-path="url(#p765310fe05)" d="M 56.12 187.933465 
L 333.168 187.933465 
" style="fill:none;stroke:#b0b0b0;stroke-linecap:square;stroke-width:0.8;"/>
     </g>
     <g id="line2d_30">
      <g>
       <use style="stroke:#000000;stroke-width:0.8;" x="56.12" xlink:href="#mca44d13988" y="187.933465"/>
      </g>
     </g>
     <g id="text_8">
      <!-- 0.4 -->
      <g transform="translate(23.675 194.012215)scale(0.16 -0.16)">
       <use xlink:href="#DejaVuSans-30"/>
       <use x="63.623047" xlink:href="#DejaVuSans-2e"/>
       <use x="95.410156" xlink:href="#DejaVuSans-34"/>
      </g>
     </g>
    </g>
    <g id="ytick_4">
     <g id="line2d_31">
      <path clip-path="url(#p765310fe05)" d="M 56.12 134.460198 
L 333.168 134.460198 
" style="fill:none;stroke:#b0b0b0;stroke-linecap:square;stroke-width:0.8;"/>
     </g>
     <g id="line2d_32">
      <g>
       <use style="stroke:#000000;stroke-width:0.8;" x="56.12" xlink:href="#mca44d13988" y="134.460198"/>
      </g>
     </g>
     <g id="text_9">
      <!-- 0.6 -->
      <g transform="translate(23.675 140.538948)scale(0.16 -0.16)">
       <use xlink:href="#DejaVuSans-30"/>
       <use x="63.623047" xlink:href="#DejaVuSans-2e"/>
       <use x="95.410156" xlink:href="#DejaVuSans-36"/>
      </g>
     </g>
    </g>
    <g id="ytick_5">
     <g id="line2d_33">
      <path clip-path="url(#p765310fe05)" d="M 56.12 80.986931 
L 333.168 80.986931 
" style="fill:none;stroke:#b0b0b0;stroke-linecap:square;stroke-width:0.8;"/>
     </g>
     <g id="line2d_34">
      <g>
       <use style="stroke:#000000;stroke-width:0.8;" x="56.12" xlink:href="#mca44d13988" y="80.986931"/>
      </g>
     </g>
     <g id="text_10">
      <!-- 0.8 -->
      <defs>
       <path d="M 31.78125 34.625 
Q 24.75 34.625 20.71875 30.859375 
Q 16.703125 27.09375 16.703125 20.515625 
Q 16.703125 13.921875 20.71875 10.15625 
Q 24.75 6.390625 31.78125 6.390625 
Q 38.8125 6.390625 42.859375 10.171875 
Q 46.921875 13.96875 46.921875 20.515625 
Q 46.921875 27.09375 42.890625 30.859375 
Q 38.875 34.625 31.78125 34.625 
z
M 21.921875 38.8125 
Q 15.578125 40.375 12.03125 44.71875 
Q 8.5 49.078125 8.5 55.328125 
Q 8.5 64.0625 14.71875 69.140625 
Q 20.953125 74.21875 31.78125 74.21875 
Q 42.671875 74.21875 48.875 69.140625 
Q 55.078125 64.0625 55.078125 55.328125 
Q 55.078125 49.078125 51.53125 44.71875 
Q 48 40.375 41.703125 38.8125 
Q 48.828125 37.15625 52.796875 32.3125 
Q 56.78125 27.484375 56.78125 20.515625 
Q 56.78125 9.90625 50.3125 4.234375 
Q 43.84375 -1.421875 31.78125 -1.421875 
Q 19.734375 -1.421875 13.25 4.234375 
Q 6.78125 9.90625 6.78125 20.515625 
Q 6.78125 27.484375 10.78125 32.3125 
Q 14.796875 37.15625 21.921875 38.8125 
z
M 18.3125 54.390625 
Q 18.3125 48.734375 21.84375 45.5625 
Q 25.390625 42.390625 31.78125 42.390625 
Q 38.140625 42.390625 41.71875 45.5625 
Q 45.3125 48.734375 45.3125 54.390625 
Q 45.3125 60.0625 41.71875 63.234375 
Q 38.140625 66.40625 31.78125 66.40625 
Q 25.390625 66.40625 21.84375 63.234375 
Q 18.3125 60.0625 18.3125 54.390625 
z
" id="DejaVuSans-38"/>
      </defs>
      <g transform="translate(23.675 87.065681)scale(0.16 -0.16)">
       <use xlink:href="#DejaVuSans-30"/>
       <use x="63.623047" xlink:href="#DejaVuSans-2e"/>
       <use x="95.410156" xlink:href="#DejaVuSans-38"/>
      </g>
     </g>
    </g>
    <g id="ytick_6">
     <g id="line2d_35">
      <path clip-path="url(#p765310fe05)" d="M 56.12 27.513663 
L 333.168 27.513663 
" style="fill:none;stroke:#b0b0b0;stroke-linecap:square;stroke-width:0.8;"/>
     </g>
     <g id="line2d_36">
      <g>
       <use style="stroke:#000000;stroke-width:0.8;" x="56.12" xlink:href="#mca44d13988" y="27.513663"/>
      </g>
     </g>
     <g id="text_11">
      <!-- 1.0 -->
      <g transform="translate(23.675 33.592413)scale(0.16 -0.16)">
       <use xlink:href="#DejaVuSans-31"/>
       <use x="63.623047" xlink:href="#DejaVuSans-2e"/>
       <use x="95.410156" xlink:href="#DejaVuSans-30"/>
      </g>
     </g>
    </g>
    <g id="text_12">
     <!-- Fraction of function,target pairs -->
     <defs>
      <path d="M 9.8125 72.90625 
L 51.703125 72.90625 
L 51.703125 64.59375 
L 19.671875 64.59375 
L 19.671875 43.109375 
L 48.578125 43.109375 
L 48.578125 34.8125 
L 19.671875 34.8125 
L 19.671875 0 
L 9.8125 0 
z
" id="DejaVuSans-46"/>
      <path d="M 41.109375 46.296875 
Q 39.59375 47.171875 37.8125 47.578125 
Q 36.03125 48 33.890625 48 
Q 26.265625 48 22.1875 43.046875 
Q 18.109375 38.09375 18.109375 28.8125 
L 18.109375 0 
L 9.078125 0 
L 9.078125 54.6875 
L 18.109375 54.6875 
L 18.109375 46.1875 
Q 20.953125 51.171875 25.484375 53.578125 
Q 30.03125 56 36.53125 56 
Q 37.453125 56 38.578125 55.875 
Q 39.703125 55.765625 41.0625 55.515625 
z
" id="DejaVuSans-72"/>
      <path d="M 48.78125 52.59375 
L 48.78125 44.1875 
Q 44.96875 46.296875 41.140625 47.34375 
Q 37.3125 48.390625 33.40625 48.390625 
Q 24.65625 48.390625 19.8125 42.84375 
Q 14.984375 37.3125 14.984375 27.296875 
Q 14.984375 17.28125 19.8125 11.734375 
Q 24.65625 6.203125 33.40625 6.203125 
Q 37.3125 6.203125 41.140625 7.25 
Q 44.96875 8.296875 48.78125 10.40625 
L 48.78125 2.09375 
Q 45.015625 0.34375 40.984375 -0.53125 
Q 36.96875 -1.421875 32.421875 -1.421875 
Q 20.0625 -1.421875 12.78125 6.34375 
Q 5.515625 14.109375 5.515625 27.296875 
Q 5.515625 40.671875 12.859375 48.328125 
Q 20.21875 56 33.015625 56 
Q 37.15625 56 41.109375 55.140625 
Q 45.0625 54.296875 48.78125 52.59375 
z
" id="DejaVuSans-63"/>
      <path d="M 18.3125 70.21875 
L 18.3125 54.6875 
L 36.8125 54.6875 
L 36.8125 47.703125 
L 18.3125 47.703125 
L 18.3125 18.015625 
Q 18.3125 11.328125 20.140625 9.421875 
Q 21.96875 7.515625 27.59375 7.515625 
L 36.8125 7.515625 
L 36.8125 0 
L 27.59375 0 
Q 17.1875 0 13.234375 3.875 
Q 9.28125 7.765625 9.28125 18.015625 
L 9.28125 47.703125 
L 2.6875 47.703125 
L 2.6875 54.6875 
L 9.28125 54.6875 
L 9.28125 70.21875 
z
" id="DejaVuSans-74"/>
      <path d="M 8.5 21.578125 
L 8.5 54.6875 
L 17.484375 54.6875 
L 17.484375 21.921875 
Q 17.484375 14.15625 20.5 10.265625 
Q 23.53125 6.390625 29.59375 6.390625 
Q 36.859375 6.390625 41.078125 11.03125 
Q 45.3125 15.671875 45.3125 23.6875 
L 45.3125 54.6875 
L 54.296875 54.6875 
L 54.296875 0 
L 45.3125 0 
L 45.3125 8.40625 
Q 42.046875 3.421875 37.71875 1 
Q 33.40625 -1.421875 27.6875 -1.421875 
Q 18.265625 -1.421875 13.375 4.4375 
Q 8.5 10.296875 8.5 21.578125 
z
M 31.109375 56 
z
" id="DejaVuSans-75"/>
      <path d="M 11.71875 12.40625 
L 22.015625 12.40625 
L 22.015625 4 
L 14.015625 -11.625 
L 7.71875 -11.625 
L 11.71875 4 
z
" id="DejaVuSans-2c"/>
      <path d="M 18.109375 8.203125 
L 18.109375 -20.796875 
L 9.078125 -20.796875 
L 9.078125 54.6875 
L 18.109375 54.6875 
L 18.109375 46.390625 
Q 20.953125 51.265625 25.265625 53.625 
Q 29.59375 56 35.59375 56 
Q 45.5625 56 51.78125 48.09375 
Q 58.015625 40.1875 58.015625 27.296875 
Q 58.015625 14.40625 51.78125 6.484375 
Q 45.5625 -1.421875 35.59375 -1.421875 
Q 29.59375 -1.421875 25.265625 0.953125 
Q 20.953125 3.328125 18.109375 8.203125 
z
M 48.6875 27.296875 
Q 48.6875 37.203125 44.609375 42.84375 
Q 40.53125 48.484375 33.40625 48.484375 
Q 26.265625 48.484375 22.1875 42.84375 
Q 18.109375 37.203125 18.109375 27.296875 
Q 18.109375 17.390625 22.1875 11.75 
Q 26.265625 6.109375 33.40625 6.109375 
Q 40.53125 6.109375 44.609375 11.75 
Q 48.6875 17.390625 48.6875 27.296875 
z
" id="DejaVuSans-70"/>
     </defs>
     <g transform="translate(16.139531 294.999375)rotate(-90)scale(0.17 -0.17)">
      <use xlink:href="#DejaVuSans-46"/>
      <use x="57.410156" xlink:href="#DejaVuSans-72"/>
      <use x="98.523438" xlink:href="#DejaVuSans-61"/>
      <use x="159.802734" xlink:href="#DejaVuSans-63"/>
      <use x="214.783203" xlink:href="#DejaVuSans-74"/>
      <use x="253.992188" xlink:href="#DejaVuSans-69"/>
      <use x="281.775391" xlink:href="#DejaVuSans-6f"/>
      <use x="342.957031" xlink:href="#DejaVuSans-6e"/>
      <use x="406.335938" xlink:href="#DejaVuSans-20"/>
      <use x="438.123047" xlink:href="#DejaVuSans-6f"/>
      <use x="499.304688" xlink:href="#DejaVuSans-66"/>
      <use x="534.509766" xlink:href="#DejaVuSans-20"/>
      <use x="566.296875" xlink:href="#DejaVuSans-66"/>
      <use x="601.501953" xlink:href="#DejaVuSans-75"/>
      <use x="664.880859" xlink:href="#DejaVuSans-6e"/>
      <use x="728.259766" xlink:href="#DejaVuSans-63"/>
      <use x="783.240234" xlink:href="#DejaVuSans-74"/>
      <use x="822.449219" xlink:href="#DejaVuSans-69"/>
      <use x="850.232422" xlink:href="#DejaVuSans-6f"/>
      <use x="911.414062" xlink:href="#DejaVuSans-6e"/>
      <use x="974.792969" xlink:href="#DejaVuSans-2c"/>
      <use x="1006.580078" xlink:href="#DejaVuSans-74"/>
      <use x="1045.789062" xlink:href="#DejaVuSans-61"/>
      <use x="1107.068359" xlink:href="#DejaVuSans-72"/>
      <use x="1148.166016" xlink:href="#DejaVuSans-67"/>
      <use x="1211.642578" xlink:href="#DejaVuSans-65"/>
      <use x="1273.166016" xlink:href="#DejaVuSans-74"/>
      <use x="1312.375" xlink:href="#DejaVuSans-20"/>
      <use x="1344.162109" xlink:href="#DejaVuSans-70"/>
      <use x="1407.638672" xlink:href="#DejaVuSans-61"/>
      <use x="1468.917969" xlink:href="#DejaVuSans-69"/>
      <use x="1496.701172" xlink:href="#DejaVuSans-72"/>
      <use x="1537.814453" xlink:href="#DejaVuSans-73"/>
     </g>
    </g>
   </g>
   <g id="line2d_37">
    <defs>
     <path d="M 0 1.5 
C 0.397805 1.5 0.77937 1.341951 1.06066 1.06066 
C 1.341951 0.77937 1.5 0.397805 1.5 0 
C 1.5 -0.397805 1.341951 -0.77937 1.06066 -1.06066 
C 0.77937 -1.341951 0.397805 -1.5 0 -1.5 
C -0.397805 -1.5 -0.77937 -1.341951 -1.06066 -1.06066 
C -1.341951 -0.77937 -1.5 -0.397805 -1.5 0 
C -1.5 0.397805 -1.341951 0.77937 -1.06066 1.06066 
C -0.77937 1.341951 -0.397805 1.5 0 1.5 
z
" id="me95bbefb07" style="stroke:#00bfbf;"/>
    </defs>
    <g>
     <use style="fill:#00bfbf;stroke:#00bfbf;" x="193.62064" xlink:href="#me95bbefb07" y="27.513663"/>
     <use style="fill:#00bfbf;stroke:#00bfbf;" x="193.62064" xlink:href="#me95bbefb07" y="27.513663"/>
    </g>
   </g>
   <g id="line2d_38">
    <path d="M 44.205749 294.88 
L 44.205749 291.210266 
L 56.12 291.210266 
L 56.12 286.492036 
L 63.08939 286.492036 
L 63.08939 285.443541 
L 71.869783 285.443541 
L 71.869783 281.773807 
L 75.003641 281.773807 
L 75.003641 280.201064 
L 79.948502 280.201064 
L 79.948502 279.676816 
L 81.973032 279.676816 
L 81.973032 276.007082 
L 88.293717 276.007082 
L 88.293717 271.288853 
L 90.753425 271.288853 
L 90.753425 267.619119 
L 92.904808 267.619119 
L 92.904808 267.094871 
L 94.816624 267.094871 
L 94.816624 266.570623 
L 96.536922 266.570623 
L 96.536922 266.046375 
L 97.336537 266.046375 
L 97.336537 264.99788 
L 102.084955 264.99788 
L 102.084955 263.425137 
L 108.451173 263.425137 
L 108.451173 259.231155 
L 108.85563 259.231155 
L 108.85563 258.18266 
L 113.700266 258.18266 
L 113.700266 255.561421 
L 114.581927 255.561421 
L 114.581927 255.037173 
L 115.691256 255.037173 
L 115.691256 254.512926 
L 116.73331 254.512926 
L 116.73331 253.46443 
L 116.984244 253.46443 
L 116.984244 250.843192 
L 117.475381 250.843192 
L 117.475381 247.697705 
L 119.526788 247.697705 
L 119.526788 246.64921 
L 120.15957 246.64921 
L 120.15957 246.124962 
L 120.769881 246.124962 
L 120.769881 245.600714 
L 124.200956 245.600714 
L 124.200956 245.076467 
L 125.000572 245.076467 
L 125.000572 244.027971 
L 125.156126 244.027971 
L 125.156126 242.979476 
L 126.207287 242.979476 
L 126.207287 241.93098 
L 126.352339 241.93098 
L 126.352339 241.406733 
L 127.05979 241.406733 
L 127.05979 240.358237 
L 135.447604 240.358237 
L 135.447604 239.83399 
L 135.616951 239.83399 
L 135.616951 239.309742 
L 135.950722 239.309742 
L 135.950722 238.261246 
L 136.519665 238.261246 
L 136.519665 237.736999 
L 136.992776 237.736999 
L 136.992776 236.688503 
L 137.301101 236.688503 
L 137.301101 233.543017 
L 137.753459 233.543017 
L 137.753459 233.018769 
L 138.623956 233.018769 
L 138.623956 232.494521 
L 139.249066 232.494521 
L 139.249066 231.970274 
L 139.786254 231.970274 
L 139.786254 230.921778 
L 142.975116 230.921778 
L 142.975116 229.873283 
L 146.755644 229.873283 
L 146.755644 229.349035 
L 147.823604 229.349035 
L 147.823604 225.679301 
L 148.945872 225.679301 
L 148.945872 224.630806 
L 150.853603 224.630806 
L 150.853603 223.58231 
L 151.366735 223.58231 
L 151.366735 222.533815 
L 152.060318 222.533815 
L 152.060318 220.961072 
L 152.189314 220.961072 
L 152.189314 219.388328 
L 152.476064 219.388328 
L 152.476064 218.339833 
L 152.633326 218.339833 
L 152.633326 217.815585 
L 152.88199 217.815585 
L 152.943598 216.242842 
L 153.248369 216.242842 
L 153.248369 213.097356 
L 153.518118 213.097356 
L 153.518118 212.573108 
L 154.074054 212.573108 
L 154.074054 211.524613 
L 154.217413 211.524613 
L 154.217413 210.476117 
L 154.998849 210.476117 
L 154.998849 209.95187 
L 156.210188 209.95187 
L 156.210188 208.903374 
L 156.5376 208.903374 
L 156.5376 207.854879 
L 156.88336 207.854879 
L 156.88336 207.330631 
L 157.150232 207.330631 
L 157.150232 206.806383 
L 158.155428 206.806383 
L 158.200781 205.23364 
L 158.514942 205.23364 
L 158.603658 202.612401 
L 159.126546 202.612401 
L 159.126546 201.039658 
L 159.613149 201.039658 
L 159.613149 198.41842 
L 160.467671 198.41842 
L 160.527113 196.845677 
L 161.205828 196.845677 
L 161.205828 195.272933 
L 161.432494 195.272933 
L 161.432494 194.224438 
L 161.581961 194.224438 
L 161.581961 193.70019 
L 161.693215 193.70019 
L 161.693215 193.175943 
L 162.974949 193.175943 
L 162.974949 192.651695 
L 163.179578 192.651695 
L 163.179578 191.078952 
L 163.431985 191.078952 
L 163.431985 190.030456 
L 164.516239 190.030456 
L 164.531915 188.981961 
L 164.995666 188.981961 
L 164.995666 186.360722 
L 165.298024 186.360722 
L 165.298024 185.836474 
L 165.901712 185.836474 
L 165.901712 184.263731 
L 166.28799 184.263731 
L 166.28799 183.215236 
L 166.428881 183.215236 
L 166.428881 182.690988 
L 166.789884 182.690988 
L 166.858446 181.642493 
L 167.008328 181.642493 
L 167.008328 181.118245 
L 167.384051 181.118245 
L 167.384051 180.593997 
L 168.401884 180.593997 
L 168.489231 177.448511 
L 168.846443 177.448511 
L 168.919431 173.778777 
L 169.644396 173.778777 
L 169.644396 172.206034 
L 169.921451 172.206034 
L 170.001425 168.012052 
L 170.035586 168.012052 
L 170.069679 164.342318 
L 170.160265 164.342318 
L 170.261607 163.293823 
L 170.35119 163.293823 
L 170.35119 161.721079 
L 171.083662 161.721079 
L 171.083662 160.148336 
L 172.461133 160.148336 
L 172.461133 157.527098 
L 172.716074 157.527098 
L 172.716074 157.00285 
L 172.871103 157.00285 
L 172.976879 154.905859 
L 173.110569 154.905859 
L 173.195967 150.711877 
L 173.280942 150.711877 
L 173.280942 149.663382 
L 173.909752 149.663382 
L 173.909752 149.139134 
L 174.180019 149.139134 
L 174.180019 148.614886 
L 174.322443 148.614886 
L 174.322443 148.090639 
L 174.906346 148.090639 
L 174.923475 144.945152 
L 175.051398 144.945152 
L 175.051398 144.420905 
L 175.742534 144.420905 
L 175.742534 143.372409 
L 176.169753 143.372409 
L 176.249183 141.275418 
L 176.532129 141.275418 
L 176.532129 140.751171 
L 176.848802 140.751171 
L 176.887024 138.65418 
L 176.970815 138.65418 
L 176.970815 137.605684 
L 177.287041 137.605684 
L 177.361483 134.984446 
L 177.859315 134.984446 
L 177.859315 134.460198 
L 178.272831 134.460198 
L 178.272831 133.93595 
L 178.413147 133.93595 
L 178.413147 132.887455 
L 178.621497 132.887455 
L 178.717869 131.314712 
L 178.765853 131.314712 
L 178.765853 130.266216 
L 178.915795 130.266216 
L 178.942917 128.693473 
L 179.037509 128.693473 
L 179.118175 117.160023 
L 179.437107 117.160023 
L 179.437107 116.635776 
L 179.626967 116.635776 
L 179.626967 115.58728 
L 180.626072 115.58728 
L 180.662892 110.344803 
L 180.809387 110.344803 
L 180.882169 103.005335 
L 181.07476 103.005335 
L 181.07476 101.956839 
L 181.265218 101.956839 
L 181.318406 100.384096 
L 181.400818 100.384096 
L 181.47699 96.190115 
L 181.547005 96.190115 
L 181.547005 95.665867 
L 181.703504 95.665867 
L 181.703504 95.141619 
L 182.000952 95.141619 
L 182.085806 93.568876 
L 182.287764 93.568876 
L 182.287764 93.044628 
L 182.465311 93.044628 
L 182.465311 92.520381 
L 182.613703 92.520381 
L 182.679246 88.326399 
L 182.92283 88.326399 
L 182.92283 87.802151 
L 183.056678 87.802151 
L 183.083322 84.132417 
L 183.284485 84.132417 
L 183.284485 83.608169 
L 183.452078 83.608169 
L 183.452078 82.559674 
L 183.690166 82.559674 
L 183.736365 80.986931 
L 183.823293 80.986931 
L 183.874222 78.365692 
L 184.151668 78.365692 
L 184.261404 76.268701 
L 184.674069 76.268701 
L 184.674069 75.220206 
L 185.209315 75.220206 
L 185.209315 74.17171 
L 185.321874 74.17171 
L 185.321874 72.598967 
L 185.452268 72.598967 
L 185.452268 72.074719 
L 185.878398 72.074719 
L 185.932621 66.832242 
L 186.258841 66.832242 
L 186.258841 66.307995 
L 186.48313 66.307995 
L 186.58333 65.259499 
L 186.927372 65.259499 
L 186.927372 64.735251 
L 187.050406 64.735251 
L 187.117912 59.492774 
L 187.235413 59.492774 
L 187.327175 57.395783 
L 187.364573 57.395783 
L 187.364573 56.871536 
L 187.533921 56.871536 
L 187.533921 54.774545 
L 187.83945 54.774545 
L 187.83945 53.201802 
L 188.032177 53.201802 
L 188.119793 52.153306 
L 188.210916 52.153306 
L 188.210916 51.629058 
L 188.92681 51.629058 
L 188.92681 50.580563 
L 189.089021 50.580563 
L 189.178896 48.483572 
L 189.475132 48.483572 
L 189.48981 45.338086 
L 189.813208 45.338086 
L 189.813208 44.813838 
L 189.945884 44.813838 
L 189.945884 44.28959 
L 190.066906 44.28959 
L 190.066906 42.192599 
L 190.369271 42.192599 
L 190.456179 39.571361 
L 190.704047 39.571361 
L 190.762053 37.998618 
L 190.830046 37.998618 
L 190.911284 35.901627 
L 191.531449 35.901627 
L 191.580239 34.328884 
L 191.882874 34.328884 
L 191.882874 33.280388 
L 192.057509 33.280388 
L 192.117427 31.183397 
L 192.531106 31.183397 
L 192.531106 30.65915 
L 192.895994 30.65915 
L 192.968052 29.610654 
L 193.247403 29.610654 
L 193.247403 29.086407 
L 193.61487 29.086407 
L 193.62064 27.513663 
L 333.168 27.513663 
L 333.168 27.513663 
" style="fill:none;stroke:#00bfbf;stroke-linecap:square;stroke-width:1.5;"/>
   </g>
   <g id="line2d_39">
    <defs>
     <path d="M -6 0 
L 6 0 
M 0 6 
L 0 -6 
" id="m8d5b4983d0" style="stroke:#00bfbf;stroke-width:1.5;"/>
    </defs>
    <g>
     <use style="fill-opacity:0;stroke:#00bfbf;stroke-width:1.5;" x="147.823604" xlink:href="#m8d5b4983d0" y="229.349035"/>
     <use style="fill-opacity:0;stroke:#00bfbf;stroke-width:1.5;" x="178.915795" xlink:href="#m8d5b4983d0" y="129.741969"/>
     <use style="fill-opacity:0;stroke:#00bfbf;stroke-width:1.5;" x="193.62064" xlink:href="#m8d5b4983d0" y="28.562159"/>
     <use style="fill-opacity:0;stroke:#00bfbf;stroke-width:1.5;" x="193.62064" xlink:href="#m8d5b4983d0" y="27.513663"/>
     <use style="fill-opacity:0;stroke:#00bfbf;stroke-width:1.5;" x="193.62064" xlink:href="#m8d5b4983d0" y="27.513663"/>
     <use style="fill-opacity:0;stroke:#00bfbf;stroke-width:1.5;" x="333.168" xlink:href="#m8d5b4983d0" y="27.513663"/>
    </g>
   </g>
   <g id="line2d_40">
    <path style="fill:none;stroke:#00bfbf;stroke-linecap:square;stroke-width:1.5;"/>
    <g/>
   </g>
   <g id="line2d_41">
    <defs>
     <path d="M 0 1.5 
C 0.397805 1.5 0.77937 1.341951 1.06066 1.06066 
C 1.341951 0.77937 1.5 0.397805 1.5 0 
C 1.5 -0.397805 1.341951 -0.77937 1.06066 -1.06066 
C 0.77937 -1.341951 0.397805 -1.5 0 -1.5 
C -0.397805 -1.5 -0.77937 -1.341951 -1.06066 -1.06066 
C -1.341951 -0.77937 -1.5 -0.397805 -1.5 0 
C -1.5 0.397805 -1.341951 0.77937 -1.06066 1.06066 
C -0.77937 1.341951 -0.397805 1.5 0 1.5 
z
" id="m0cad413bf3" style="stroke:#008000;"/>
    </defs>
    <g>
     <use style="fill:#008000;stroke:#008000;" x="191.510807" xlink:href="#m0cad413bf3" y="27.513663"/>
     <use style="fill:#008000;stroke:#008000;" x="191.510807" xlink:href="#m0cad413bf3" y="27.513663"/>
    </g>
   </g>
   <g id="line2d_42">
    <path d="M 37.236359 294.88 
L 37.236359 294.355752 
L 49.15061 294.355752 
L 49.15061 293.831505 
L 56.12 293.831505 
L 56.12 291.734514 
L 61.064861 291.734514 
L 61.064861 289.113275 
L 68.034251 289.113275 
L 68.034251 288.06478 
L 70.68389 288.06478 
L 70.68389 287.540532 
L 76.814644 287.540532 
L 76.814644 287.016284 
L 81.324327 287.016284 
L 81.324327 286.492036 
L 82.598142 286.492036 
L 82.598142 285.443541 
L 91.131212 285.443541 
L 91.131212 281.773807 
L 93.887283 281.773807 
L 93.887283 280.201064 
L 96.261898 280.201064 
L 96.261898 279.152568 
L 98.832144 279.152568 
L 98.832144 278.104073 
L 101.481783 278.104073 
L 101.481783 277.579825 
L 105.152829 277.579825 
L 105.152829 277.055578 
L 108.721866 277.055578 
L 108.721866 276.007082 
L 108.988361 276.007082 
L 108.988361 274.958587 
L 109.509269 274.958587 
L 109.509269 274.434339 
L 110.014853 274.434339 
L 110.014853 270.764605 
L 115.145539 270.764605 
L 115.145539 268.667614 
L 117.55589 268.667614 
L 117.55589 267.094871 
L 121.16504 267.094871 
L 121.16504 265.522128 
L 124.255437 265.522128 
L 124.255437 264.99788 
L 128.563096 264.99788 
L 128.563096 263.949385 
L 130.634602 263.949385 
L 130.634602 263.425137 
L 131.51251 263.425137 
L 131.51251 262.900889 
L 133.780965 262.900889 
L 133.780965 262.376641 
L 134.273863 262.376641 
L 134.273863 261.852394 
L 134.69385 261.852394 
L 134.69385 261.328146 
L 135.390782 261.328146 
L 135.447604 260.279651 
L 135.504239 260.279651 
L 135.504239 259.231155 
L 136.705203 259.231155 
L 136.705203 258.706907 
L 136.914823 258.706907 
L 136.966831 255.561421 
L 137.778244 255.561421 
L 137.778244 254.512926 
L 138.121538 254.512926 
L 138.121538 253.988678 
L 138.88138 253.988678 
L 138.88138 252.940182 
L 139.786254 252.940182 
L 139.786254 251.891687 
L 140.135274 251.891687 
L 140.135274 251.367439 
L 141.100945 251.367439 
L 141.100945 250.318944 
L 141.976481 250.318944 
L 141.976481 249.270448 
L 142.169397 249.270448 
L 142.169397 248.221953 
L 142.69832 248.221953 
L 142.69832 247.173458 
L 143.709708 247.173458 
L 143.709708 243.503724 
L 144.363608 243.503724 
L 144.363608 242.455228 
L 144.498158 242.455228 
L 144.498158 241.406733 
L 144.960957 241.406733 
L 144.960957 240.882485 
L 145.123268 240.882485 
L 145.123268 240.358237 
L 146.00493 240.358237 
L 146.00493 239.83399 
L 147.698898 239.83399 
L 147.698898 239.309742 
L 148.165338 239.309742 
L 148.246353 235.640008 
L 148.380535 235.640008 
L 148.380535 234.591512 
L 148.619454 234.591512 
L 148.619454 234.067265 
L 149.11319 234.067265 
L 149.11319 233.018769 
L 149.642889 233.018769 
L 149.642889 232.494521 
L 150.561769 232.494521 
L 150.561769 231.970274 
L 151.186038 231.970274 
L 151.186038 230.397531 
L 151.545552 230.397531 
L 151.545552 228.824787 
L 151.832219 228.824787 
L 151.832219 228.30054 
L 152.664606 228.30054 
L 152.664606 227.776292 
L 153.157504 227.776292 
L 153.258436 224.106558 
L 153.597237 224.106558 
L 153.597237 223.58231 
L 154.38788 223.58231 
L 154.38788 223.058063 
L 154.723825 223.058063 
L 154.723825 222.533815 
L 155.746298 222.533815 
L 155.763705 219.388328 
L 156.875208 219.388328 
L 156.875208 218.864081 
L 157.309979 218.864081 
L 157.357615 216.76709 
L 158.358579 216.76709 
L 158.373532 215.718594 
L 158.625765 215.718594 
L 158.625765 214.145851 
L 159.585313 214.145851 
L 159.585313 213.097356 
L 160.120144 213.097356 
L 160.120144 212.573108 
L 161.053039 212.573108 
L 161.053039 212.04886 
L 161.986418 212.04886 
L 162.095093 210.476117 
L 162.215042 210.476117 
L 162.226991 208.379126 
L 162.405236 208.379126 
L 162.405236 206.806383 
L 162.616719 206.806383 
L 162.616719 205.23364 
L 163.603734 205.23364 
L 163.66976 202.088154 
L 163.746471 202.088154 
L 163.746471 201.563906 
L 163.898872 201.563906 
L 163.898872 201.039658 
L 164.432392 201.039658 
L 164.432392 199.991163 
L 164.55801 199.991163 
L 164.55801 199.466915 
L 164.734412 199.466915 
L 164.734412 198.942667 
L 164.929448 198.942667 
L 164.94985 197.894172 
L 166.112619 197.894172 
L 166.112619 196.845677 
L 166.711847 196.845677 
L 166.711847 196.321429 
L 166.876683 196.321429 
L 166.940362 194.224438 
L 167.039954 194.224438 
L 167.039954 192.127447 
L 167.308672 192.127447 
L 167.308672 190.554704 
L 168.098993 190.554704 
L 168.192111 188.981961 
L 168.600887 188.981961 
L 168.600887 187.933465 
L 168.838314 187.933465 
L 168.838314 186.88497 
L 169.000166 186.88497 
L 169.040393 184.787979 
L 169.22423 184.787979 
L 169.335176 181.642493 
L 169.358857 181.642493 
L 169.413987 180.593997 
L 169.601672 180.593997 
L 169.687014 178.497006 
L 169.833432 178.497006 
L 169.909996 176.924263 
L 170.212887 176.924263 
L 170.287783 172.730281 
L 170.37723 172.730281 
L 170.466214 170.633291 
L 170.781341 170.633291 
L 170.839338 168.5363 
L 171.310484 168.5363 
L 171.310484 167.487804 
L 171.513488 167.487804 
L 171.582937 164.866566 
L 171.96675 164.866566 
L 172.007369 163.293823 
L 172.657576 163.293823 
L 172.703092 161.196832 
L 172.954496 161.196832 
L 172.954496 160.672584 
L 173.302905 160.672584 
L 173.377992 159.099841 
L 173.736359 159.099841 
L 173.736359 158.575593 
L 174.295828 158.575593 
L 174.295828 157.527098 
L 174.5076 157.527098 
L 174.5076 157.00285 
L 174.693677 157.00285 
L 174.728343 154.381611 
L 174.934884 154.381611 
L 174.934884 153.857364 
L 175.155872 153.857364 
L 175.262512 152.28462 
L 175.268106 152.28462 
L 175.268106 149.663382 
L 175.440634 149.663382 
L 175.512472 146.517896 
L 175.915775 146.517896 
L 175.915775 145.4694 
L 176.049915 145.4694 
L 176.076618 143.896657 
L 176.204217 143.896657 
L 176.262385 142.323914 
L 176.679606 142.323914 
L 176.695056 140.751171 
L 176.838595 140.751171 
L 176.838595 139.702675 
L 176.986006 139.702675 
L 177.066799 137.605684 
L 177.207279 137.605684 
L 177.207279 137.081437 
L 177.64633 137.081437 
L 177.660935 134.460198 
L 177.81114 134.460198 
L 177.81114 132.887455 
L 177.993489 132.887455 
L 177.993489 132.363207 
L 178.635298 132.363207 
L 178.699554 130.790464 
L 178.759007 130.790464 
L 178.818254 129.741969 
L 178.918057 129.741969 
L 178.96323 128.169225 
L 179.093567 128.169225 
L 179.093567 127.644978 
L 179.267304 127.644978 
L 179.342489 122.4025 
L 179.70924 122.4025 
L 179.70924 121.878253 
L 179.992011 121.878253 
L 179.992011 120.829757 
L 180.144311 120.829757 
L 180.16115 118.208519 
L 180.374416 118.208519 
L 180.428358 113.490289 
L 180.494516 113.490289 
L 180.552196 104.578078 
L 180.707787 104.578078 
L 180.817489 103.005335 
L 180.906361 103.005335 
L 180.906361 101.956839 
L 181.026814 101.956839 
L 181.026814 100.908344 
L 181.328238 100.908344 
L 181.328238 100.384096 
L 182.265441 100.384096 
L 182.265441 99.335601 
L 182.60458 99.335601 
L 182.699223 94.617371 
L 182.81139 94.617371 
L 182.81139 94.093124 
L 183.086872 94.093124 
L 183.086872 93.044628 
L 183.24233 93.044628 
L 183.284485 91.996133 
L 183.358008 91.996133 
L 183.358008 91.471885 
L 183.562906 91.471885 
L 183.669593 88.326399 
L 183.683311 88.326399 
L 183.683311 86.753656 
L 183.935139 86.753656 
L 184.02275 79.938435 
L 184.056328 79.938435 
L 184.056328 79.414188 
L 184.170006 79.414188 
L 184.256431 76.268701 
L 184.329222 76.268701 
L 184.421422 72.598967 
L 184.827101 72.598967 
L 184.827101 72.074719 
L 185.012133 72.074719 
L 185.012133 71.026224 
L 185.160625 71.026224 
L 185.160625 70.501976 
L 185.537113 70.501976 
L 185.537113 69.453481 
L 185.884431 69.453481 
L 185.932621 67.35649 
L 186.121065 67.35649 
L 186.215997 64.211004 
L 186.245556 64.211004 
L 186.248509 62.638261 
L 186.544191 62.638261 
L 186.65125 60.017022 
L 186.668548 60.017022 
L 186.757645 58.968526 
L 186.894698 58.968526 
L 186.971313 55.82304 
L 187.016554 55.82304 
L 187.117912 53.726049 
L 187.162769 53.726049 
L 187.254919 50.056315 
L 187.307751 50.056315 
L 187.368723 45.862334 
L 187.468032 45.862334 
L 187.468032 44.28959 
L 187.932068 44.28959 
L 188.012201 43.241095 
L 188.052129 43.241095 
L 188.15815 42.192599 
L 188.203012 42.192599 
L 188.203012 41.668352 
L 188.425581 41.668352 
L 188.438584 39.571361 
L 188.668406 39.571361 
L 188.760502 36.950122 
L 188.79873 36.950122 
L 188.892664 34.328884 
L 188.928073 34.328884 
L 188.928073 33.804636 
L 189.14899 33.804636 
L 189.14899 33.280388 
L 189.376953 33.280388 
L 189.457991 31.183397 
L 189.77116 31.183397 
L 189.77116 30.65915 
L 190.259722 30.65915 
L 190.259722 30.134902 
L 190.411042 30.134902 
L 190.411042 29.610654 
L 190.737055 29.610654 
L 190.737055 28.037911 
L 191.510807 28.037911 
L 191.510807 27.513663 
L 333.168 27.513663 
L 333.168 27.513663 
" style="fill:none;stroke:#008000;stroke-linecap:square;stroke-width:1.5;"/>
   </g>
   <g id="line2d_43">
    <defs>
     <path d="M -0 6 
L 6 -6 
L -6 -6 
z
" id="m42fb345305" style="stroke:#008000;stroke-linejoin:miter;stroke-width:1.5;"/>
    </defs>
    <g>
     <use style="fill-opacity:0;stroke:#008000;stroke-linejoin:miter;stroke-width:1.5;" x="115.145539" xlink:href="#m42fb345305" y="270.764605"/>
     <use style="fill-opacity:0;stroke:#008000;stroke-linejoin:miter;stroke-width:1.5;" x="164.734412" xlink:href="#m42fb345305" y="199.466915"/>
     <use style="fill-opacity:0;stroke:#008000;stroke-linejoin:miter;stroke-width:1.5;" x="188.676099" xlink:href="#m42fb345305" y="38.522865"/>
     <use style="fill-opacity:0;stroke:#008000;stroke-linejoin:miter;stroke-width:1.5;" x="191.510807" xlink:href="#m42fb345305" y="27.513663"/>
     <use style="fill-opacity:0;stroke:#008000;stroke-linejoin:miter;stroke-width:1.5;" x="191.510807" xlink:href="#m42fb345305" y="27.513663"/>
     <use style="fill-opacity:0;stroke:#008000;stroke-linejoin:miter;stroke-width:1.5;" x="333.168" xlink:href="#m42fb345305" y="27.513663"/>
    </g>
   </g>
   <g id="line2d_44">
    <path style="fill:none;stroke:#008000;stroke-linecap:square;stroke-width:1.5;"/>
    <g/>
   </g>
   <g id="line2d_45">
    <defs>
     <path d="M 0 1.5 
C 0.397805 1.5 0.77937 1.341951 1.06066 1.06066 
C 1.341951 0.77937 1.5 0.397805 1.5 0 
C 1.5 -0.397805 1.341951 -0.77937 1.06066 -1.06066 
C 0.77937 -1.341951 0.397805 -1.5 0 -1.5 
C -0.397805 -1.5 -0.77937 -1.341951 -1.06066 -1.06066 
C -1.341951 -0.77937 -1.5 -0.397805 -1.5 0 
C -1.5 0.397805 -1.341951 0.77937 -1.06066 1.06066 
C -0.77937 1.341951 -0.397805 1.5 0 1.5 
z
" id="me9fa4d52ae" style="stroke:#0000ff;"/>
    </defs>
    <g>
     <use style="fill:#0000ff;stroke:#0000ff;" x="250.767251" xlink:href="#me9fa4d52ae" y="58.968526"/>
     <use style="fill:#0000ff;stroke:#0000ff;" x="250.767251" xlink:href="#me9fa4d52ae" y="58.968526"/>
    </g>
   </g>
   <g id="line2d_46">
    <path d="M 69.672503 294.88 
L 69.672503 294.355752 
L 96.038666 294.355752 
L 96.038666 293.831505 
L 98.543252 293.831505 
L 98.543252 291.210266 
L 100.470395 291.210266 
L 100.470395 290.686018 
L 100.728876 290.686018 
L 100.728876 288.06478 
L 104.615641 288.06478 
L 104.615641 285.967789 
L 109.093814 285.967789 
L 109.093814 285.443541 
L 116.631902 285.443541 
L 116.631902 284.919293 
L 120.609239 284.919293 
L 120.609239 284.395046 
L 121.086731 284.395046 
L 121.086731 283.870798 
L 121.929105 283.870798 
L 121.929105 283.34655 
L 122.660646 283.34655 
L 122.732117 282.298055 
L 126.723846 282.298055 
L 126.723846 280.725312 
L 128.647561 280.725312 
L 128.647561 279.676816 
L 130.649607 279.676816 
L 130.649607 279.152568 
L 131.612072 279.152568 
L 131.612072 278.628321 
L 132.402015 278.628321 
L 132.402015 277.579825 
L 132.922316 277.579825 
L 132.922316 276.53133 
L 133.118312 276.53133 
L 133.118312 276.007082 
L 135.207679 276.007082 
L 135.207679 275.482834 
L 135.481607 275.482834 
L 135.481607 273.910091 
L 136.567566 273.910091 
L 136.567566 273.385844 
L 136.72628 273.385844 
L 136.72628 272.861596 
L 136.883542 272.861596 
L 136.883542 271.288853 
L 137.285815 271.288853 
L 137.285815 270.764605 
L 138.004608 270.764605 
L 138.063173 269.191862 
L 138.638097 269.191862 
L 138.638097 268.143366 
L 139.680151 268.143366 
L 139.680151 265.522128 
L 139.812678 265.522128 
L 139.812678 264.473632 
L 140.383954 264.473632 
L 140.383954 263.949385 
L 141.15801 263.949385 
L 141.15801 263.425137 
L 142.154044 263.425137 
L 142.154044 262.900889 
L 143.547583 262.900889 
L 143.590024 261.328146 
L 143.69567 261.328146 
L 143.69567 260.803898 
L 144.07071 260.803898 
L 144.07071 259.755403 
L 144.316266 259.755403 
L 144.316266 258.706907 
L 145.475048 258.706907 
L 145.475048 257.134164 
L 145.663936 257.134164 
L 145.663936 256.609917 
L 146.272936 256.609917 
L 146.272936 255.561421 
L 146.542779 255.561421 
L 146.614027 253.46443 
L 146.738006 253.46443 
L 146.738006 252.415935 
L 147.25944 252.415935 
L 147.25944 250.318944 
L 147.463664 250.318944 
L 147.463664 249.794696 
L 148.111115 249.794696 
L 148.111115 249.270448 
L 148.257126 249.270448 
L 148.257126 248.746201 
L 148.672099 248.746201 
L 148.672099 248.221953 
L 149.771569 248.221953 
L 149.801129 246.64921 
L 149.948166 246.64921 
L 149.948166 245.600714 
L 150.137454 245.600714 
L 150.137454 245.076467 
L 150.777039 245.076467 
L 150.777039 244.027971 
L 151.136011 244.027971 
L 151.136011 243.503724 
L 151.700505 243.503724 
L 151.805957 241.93098 
L 152.551729 241.93098 
L 152.551729 241.406733 
L 153.108845 241.406733 
L 153.108845 240.882485 
L 153.350772 240.882485 
L 153.350772 239.83399 
L 154.365249 239.83399 
L 154.365249 239.309742 
L 154.567867 239.309742 
L 154.567867 238.785494 
L 154.74599 238.785494 
L 154.74599 238.261246 
L 154.87838 238.261246 
L 154.87838 237.736999 
L 155.588844 237.736999 
L 155.599386 235.640008 
L 156.976021 235.640008 
L 156.976021 235.11576 
L 157.341751 235.11576 
L 157.341751 233.018769 
L 158.492691 233.018769 
L 158.492691 232.494521 
L 158.625765 232.494521 
L 158.625765 231.970274 
L 158.810355 231.970274 
L 158.810355 230.921778 
L 160.009066 230.921778 
L 160.009066 230.397531 
L 160.672864 230.397531 
L 160.672864 229.873283 
L 160.968422 229.873283 
L 160.99924 228.30054 
L 161.221032 228.30054 
L 161.221032 227.776292 
L 161.35727 227.776292 
L 161.35727 227.252044 
L 161.796406 227.252044 
L 161.796406 226.727797 
L 162.06618 226.727797 
L 162.06618 226.203549 
L 162.238932 226.203549 
L 162.238932 225.155053 
L 162.381577 225.155053 
L 162.381577 224.630806 
L 162.508953 224.630806 
L 162.593349 222.533815 
L 163.111639 222.533815 
L 163.220213 220.436824 
L 163.254002 220.436824 
L 163.254002 219.912576 
L 163.455355 219.912576 
L 163.455355 219.388328 
L 163.660971 219.388328 
L 163.660971 218.864081 
L 164.20607 218.864081 
L 164.307966 215.194347 
L 165.004814 215.194347 
L 165.004814 214.670099 
L 165.126332 214.670099 
L 165.126332 214.145851 
L 165.603991 214.145851 
L 165.686233 213.097356 
L 165.803044 213.097356 
L 165.803044 212.573108 
L 166.454119 212.573108 
L 166.454119 211.524613 
L 166.64362 211.524613 
L 166.693434 210.476117 
L 167.386705 210.476117 
L 167.386705 209.95187 
L 167.623939 209.95187 
L 167.72313 208.903374 
L 168.321634 208.903374 
L 168.431882 207.330631 
L 168.958231 207.330631 
L 168.958231 206.806383 
L 169.093347 206.806383 
L 169.093347 205.23364 
L 169.464237 205.23364 
L 169.506521 203.136649 
L 169.808859 203.136649 
L 169.877881 202.088154 
L 169.978614 202.088154 
L 169.978614 201.563906 
L 170.601767 201.563906 
L 170.680836 199.466915 
L 170.768265 199.466915 
L 170.863927 197.369924 
L 170.954746 197.369924 
L 170.954746 196.321429 
L 171.105054 196.321429 
L 171.105054 195.797181 
L 171.296395 195.797181 
L 171.296395 195.272933 
L 171.460518 195.272933 
L 171.460518 194.748686 
L 171.585709 194.748686 
L 171.585709 193.70019 
L 172.238417 193.70019 
L 172.238417 193.175943 
L 172.6849 193.175943 
L 172.789887 190.554704 
L 172.905792 190.554704 
L 172.994126 189.506209 
L 173.436582 189.506209 
L 173.462696 187.933465 
L 173.684918 187.933465 
L 173.684918 187.409218 
L 174.178231 187.409218 
L 174.178231 186.88497 
L 174.521626 186.88497 
L 174.570626 185.836474 
L 174.727188 185.836474 
L 174.727188 184.787979 
L 174.916625 184.787979 
L 174.916625 184.263731 
L 175.225543 184.263731 
L 175.329524 183.215236 
L 175.392945 183.215236 
L 175.392945 182.16674 
L 175.535617 182.16674 
L 175.56533 180.593997 
L 175.70004 180.593997 
L 175.70004 180.06975 
L 175.85642 180.06975 
L 175.966334 178.497006 
L 175.988877 178.497006 
L 175.988877 177.972759 
L 176.34244 177.972759 
L 176.34244 177.448511 
L 176.546155 177.448511 
L 176.546155 176.400016 
L 176.695056 176.400016 
L 176.695056 175.875768 
L 176.833489 175.875768 
L 176.900763 173.778777 
L 177.137183 173.778777 
L 177.203281 172.206034 
L 177.459255 172.206034 
L 177.459255 171.681786 
L 177.699824 171.681786 
L 177.699824 170.633291 
L 178.037347 170.633291 
L 178.077294 169.584795 
L 178.300986 169.584795 
L 178.300986 169.060547 
L 178.499572 169.060547 
L 178.499572 168.5363 
L 178.66562 168.5363 
L 178.679385 166.439309 
L 178.797313 166.439309 
L 178.797313 165.915061 
L 179.001085 165.915061 
L 179.111467 163.293823 
L 179.148997 163.293823 
L 179.148997 162.245327 
L 179.282367 162.245327 
L 179.282367 161.721079 
L 179.462105 161.721079 
L 179.566962 160.672584 
L 179.723058 160.672584 
L 179.723058 159.099841 
L 180.122395 159.099841 
L 180.122395 158.575593 
L 180.296108 158.575593 
L 180.396013 157.00285 
L 180.709417 157.00285 
L 180.777752 155.430107 
L 180.94741 155.430107 
L 180.959465 154.381611 
L 181.127347 154.381611 
L 181.198798 153.333116 
L 181.291242 153.333116 
L 181.314866 150.711877 
L 181.42781 150.711877 
L 181.451247 149.139134 
L 181.801314 149.139134 
L 181.899711 146.517896 
L 182.049653 146.517896 
L 182.135393 141.799666 
L 182.182593 141.799666 
L 182.193812 140.226923 
L 182.385641 140.226923 
L 182.385641 139.178427 
L 182.734761 139.178427 
L 182.843098 136.032941 
L 183.202187 136.032941 
L 183.261313 133.411703 
L 183.313932 133.411703 
L 183.422867 131.314712 
L 183.427043 131.314712 
L 183.456247 129.217721 
L 183.570499 129.217721 
L 183.620118 125.547987 
L 183.84572 125.547987 
L 183.84572 124.499491 
L 184.058341 124.499491 
L 184.058341 123.975244 
L 184.240508 123.975244 
L 184.24449 122.926748 
L 184.526844 122.926748 
L 184.605001 121.878253 
L 184.775705 121.878253 
L 184.775705 121.354005 
L 185.00769 121.354005 
L 185.078007 119.781262 
L 185.13859 119.781262 
L 185.182003 117.160023 
L 185.348966 117.160023 
L 185.363895 116.111528 
L 185.488417 116.111528 
L 185.488417 114.538785 
L 185.802197 114.538785 
L 185.891065 113.490289 
L 186.038762 113.490289 
L 186.138905 111.917546 
L 186.245556 111.917546 
L 186.291567 110.344803 
L 186.421851 110.344803 
L 186.530253 106.675069 
L 186.679494 106.675069 
L 186.679494 106.150821 
L 186.801736 106.150821 
L 186.907775 105.102326 
L 192.151393 105.102326 
L 192.249141 103.529583 
L 192.838734 103.529583 
L 192.861661 102.481087 
L 194.820949 102.481087 
L 194.848902 101.432592 
L 195.073021 101.432592 
L 195.073021 100.908344 
L 195.211363 100.908344 
L 195.211363 100.384096 
L 195.360074 100.384096 
L 195.360074 99.859849 
L 195.78237 99.859849 
L 195.78237 99.335601 
L 196.004762 99.335601 
L 196.004762 98.811353 
L 196.319245 98.811353 
L 196.319245 98.287105 
L 196.882857 98.287105 
L 196.882857 97.762858 
L 197.140498 97.762858 
L 197.201498 96.190115 
L 197.275348 96.190115 
L 197.37765 94.617371 
L 197.753684 94.617371 
L 197.753684 94.093124 
L 197.884726 94.093124 
L 197.923396 93.044628 
L 197.998686 93.044628 
L 198.085221 91.996133 
L 198.116338 91.996133 
L 198.144739 90.42339 
L 198.24201 90.42339 
L 198.24201 89.899142 
L 198.459313 89.899142 
L 198.534031 88.326399 
L 198.645503 88.326399 
L 198.752833 86.753656 
L 198.839069 86.753656 
L 198.839069 86.229408 
L 204.777118 86.229408 
L 204.777118 85.70516 
L 204.972548 85.70516 
L 205.057577 84.132417 
L 205.245168 84.132417 
L 205.354533 82.559674 
L 205.566015 82.559674 
L 205.566015 82.035426 
L 205.679657 82.035426 
L 205.738479 79.938435 
L 205.814136 79.938435 
L 205.814136 79.414188 
L 209.994132 79.414188 
L 209.994132 78.88994 
L 210.197655 78.88994 
L 210.306826 77.841444 
L 210.418347 77.841444 
L 210.466045 76.792949 
L 210.668368 76.792949 
L 210.761835 75.220206 
L 214.048662 75.220206 
L 214.143669 74.17171 
L 214.298892 74.17171 
L 214.298892 72.598967 
L 214.477775 72.598967 
L 214.477775 72.074719 
L 214.599069 72.074719 
L 214.599069 71.550472 
L 217.226174 71.550472 
L 217.226174 71.026224 
L 217.422007 71.026224 
L 217.45664 69.977729 
L 217.734062 69.977729 
L 217.734062 69.453481 
L 220.17066 69.453481 
L 220.17066 68.929233 
L 220.355307 68.929233 
L 220.355307 67.880738 
L 222.493374 67.880738 
L 222.493374 67.35649 
L 222.658839 67.35649 
L 222.658839 66.832242 
L 224.682634 66.832242 
L 224.682634 66.307995 
L 228.019521 66.307995 
L 228.019521 65.783747 
L 229.424005 65.783747 
L 229.510734 64.735251 
L 232.194616 64.735251 
L 232.194616 64.211004 
L 233.473629 64.211004 
L 233.473629 63.686756 
L 234.583951 63.686756 
L 234.583951 63.162508 
L 235.539906 63.162508 
L 235.539906 62.638261 
L 237.472463 62.638261 
L 237.550927 61.589765 
L 238.422464 61.589765 
L 238.422464 61.065517 
L 240.826335 61.065517 
L 240.835216 60.017022 
L 243.583941 60.017022 
L 243.583941 59.492774 
L 250.767251 59.492774 
L 250.767251 58.968526 
L 333.168 58.968526 
L 333.168 58.968526 
" style="fill:none;stroke:#0000ff;stroke-linecap:square;stroke-width:1.5;"/>
   </g>
   <g id="line2d_47">
    <defs>
     <path d="M 0 -6 
L -1.347084 -1.854102 
L -5.706339 -1.854102 
L -2.179628 0.708204 
L -3.526712 4.854102 
L -0 2.291796 
L 3.526712 4.854102 
L 2.179628 0.708204 
L 5.706339 -1.854102 
L 1.347084 -1.854102 
z
" id="m10a0544c31" style="stroke:#0000ff;stroke-linejoin:bevel;stroke-width:1.5;"/>
    </defs>
    <g>
     <use style="fill-opacity:0;stroke:#0000ff;stroke-linejoin:bevel;stroke-width:1.5;" x="160.009066" xlink:href="#m10a0544c31" y="230.397531"/>
     <use style="fill-opacity:0;stroke:#0000ff;stroke-linejoin:bevel;stroke-width:1.5;" x="192.249141" xlink:href="#m10a0544c31" y="104.05383"/>
     <use style="fill-opacity:0;stroke:#0000ff;stroke-linejoin:bevel;stroke-width:1.5;" x="250.767251" xlink:href="#m10a0544c31" y="59.492774"/>
     <use style="fill-opacity:0;stroke:#0000ff;stroke-linejoin:bevel;stroke-width:1.5;" x="250.767251" xlink:href="#m10a0544c31" y="58.968526"/>
     <use style="fill-opacity:0;stroke:#0000ff;stroke-linejoin:bevel;stroke-width:1.5;" x="333.168" xlink:href="#m10a0544c31" y="58.968526"/>
    </g>
   </g>
   <g id="line2d_48">
    <path style="fill:none;stroke:#0000ff;stroke-linecap:square;stroke-width:1.5;"/>
    <g/>
   </g>
   <g id="line2d_49">
    <path clip-path="url(#p765310fe05)" d="M 186.941843 105.102326 
" style="fill:none;stroke:#0000ff;stroke-linecap:square;stroke-width:1.5;"/>
    <defs>
     <path d="M -12 12 
L 12 -12 
M -12 -12 
L 12 12 
" id="m59768ca224" style="stroke:#0000ff;"/>
    </defs>
    <g clip-path="url(#p765310fe05)">
     <use style="fill:#0000ff;stroke:#0000ff;" x="186.941843" xlink:href="#m59768ca224" y="105.102326"/>
    </g>
   </g>
   <g id="line2d_50">
    <defs>
     <path d="M 0 1.5 
C 0.397805 1.5 0.77937 1.341951 1.06066 1.06066 
C 1.341951 0.77937 1.5 0.397805 1.5 0 
C 1.5 -0.397805 1.341951 -0.77937 1.06066 -1.06066 
C 0.77937 -1.341951 0.397805 -1.5 0 -1.5 
C -0.397805 -1.5 -0.77937 -1.341951 -1.06066 -1.06066 
C -1.341951 -0.77937 -1.5 -0.397805 -1.5 0 
C -1.5 0.397805 -1.341951 0.77937 -1.06066 1.06066 
C -0.77937 1.341951 -0.397805 1.5 0 1.5 
z
" id="mb9f3958771" style="stroke:#000000;"/>
    </defs>
    <g>
     <use style="stroke:#000000;" x="245.270895" xlink:href="#mb9f3958771" y="231.970274"/>
     <use style="stroke:#000000;" x="245.270895" xlink:href="#mb9f3958771" y="231.970274"/>
    </g>
   </g>
   <g id="line2d_51">
    <path d="M 120.32445 294.88 
L 120.32445 294.355752 
L 131.526768 294.355752 
L 131.526768 293.831505 
L 135.549413 293.831505 
L 135.549413 292.783009 
L 137.558897 292.783009 
L 137.558897 291.210266 
L 138.666344 291.210266 
L 138.666344 289.637523 
L 139.904842 289.637523 
L 139.904842 289.113275 
L 140.887317 289.113275 
L 140.887317 288.06478 
L 141.060069 288.06478 
L 141.060069 287.540532 
L 141.255396 287.540532 
L 141.255396 287.016284 
L 141.496475 287.016284 
L 141.496475 285.967789 
L 141.72241 285.967789 
L 141.72241 285.443541 
L 141.851869 285.443541 
L 141.851869 284.919293 
L 142.597572 284.919293 
L 142.597572 284.395046 
L 143.247524 284.395046 
L 143.247524 282.822302 
L 143.568817 282.822302 
L 143.568817 282.298055 
L 144.993542 282.298055 
L 144.993542 281.773807 
L 147.564873 281.773807 
L 147.57328 280.725312 
L 148.078499 280.725312 
L 148.078499 280.201064 
L 148.401907 280.201064 
L 148.401907 279.676816 
L 149.756771 279.676816 
L 149.756771 278.628321 
L 150.260102 278.628321 
L 150.260102 277.579825 
L 150.545279 277.579825 
L 150.545279 277.055578 
L 151.122343 277.055578 
L 151.122343 276.53133 
L 151.607701 276.53133 
L 151.607701 276.007082 
L 154.177393 276.007082 
L 154.177393 274.958587 
L 154.751526 274.958587 
L 154.751526 273.910091 
L 157.351271 273.910091 
L 157.446184 271.8131 
L 158.250531 271.8131 
L 158.250531 271.288853 
L 158.381004 271.288853 
L 158.381004 270.764605 
L 159.923235 270.764605 
L 159.923235 269.716109 
L 161.300635 269.716109 
L 161.300635 269.191862 
L 162.673842 269.191862 
L 162.673842 268.667614 
L 162.964653 268.667614 
L 162.964653 268.143366 
L 163.873928 268.143366 
L 163.951895 266.570623 
L 164.371346 266.570623 
L 164.371346 266.046375 
L 164.965135 266.046375 
L 164.965135 265.522128 
L 165.240984 265.522128 
L 165.240984 264.99788 
L 166.820085 264.99788 
L 166.820085 264.473632 
L 167.816575 264.473632 
L 167.816575 263.949385 
L 171.658318 263.949385 
L 171.658318 263.425137 
L 173.470149 263.425137 
L 173.470149 262.900889 
L 178.58418 262.900889 
L 178.58418 262.376641 
L 179.223812 262.376641 
L 179.223812 261.852394 
L 180.997983 261.852394 
L 180.997983 261.328146 
L 181.413732 261.328146 
L 181.413732 260.803898 
L 182.173613 260.803898 
L 182.28107 258.706907 
L 182.636671 258.706907 
L 182.735848 257.658412 
L 183.711741 257.658412 
L 183.711741 257.134164 
L 183.891504 257.134164 
L 183.891504 256.609917 
L 189.167688 256.609917 
L 189.167688 256.085669 
L 189.792317 256.085669 
L 189.792317 255.561421 
L 190.158881 255.561421 
L 190.184969 253.988678 
L 190.400608 253.988678 
L 190.400608 253.46443 
L 190.74774 253.46443 
L 190.74774 252.940182 
L 191.164038 252.940182 
L 191.224495 251.891687 
L 193.407604 251.891687 
L 193.407604 250.843192 
L 195.587961 250.843192 
L 195.587961 250.318944 
L 196.53971 250.318944 
L 196.53971 249.794696 
L 196.881426 249.794696 
L 196.881426 248.746201 
L 198.479762 248.746201 
L 198.479762 247.697705 
L 200.939702 247.697705 
L 200.939702 247.173458 
L 203.616829 247.173458 
L 203.616829 246.64921 
L 204.448123 246.64921 
L 204.448123 246.124962 
L 205.575514 246.124962 
L 205.575514 245.076467 
L 206.82588 245.076467 
L 206.82588 244.552219 
L 206.97587 244.552219 
L 206.97587 244.027971 
L 211.526048 244.027971 
L 211.526048 243.503724 
L 211.786855 243.503724 
L 211.843702 242.455228 
L 213.468232 242.455228 
L 213.468232 241.93098 
L 219.78398 241.93098 
L 219.812537 240.882485 
L 219.963462 240.882485 
L 219.963462 240.358237 
L 220.977577 240.358237 
L 221.037494 239.309742 
L 221.17808 239.309742 
L 221.17808 238.785494 
L 223.37667 238.785494 
L 223.37667 237.736999 
L 224.171586 237.736999 
L 224.171586 237.212751 
L 225.325664 237.212751 
L 225.325664 236.688503 
L 226.223102 236.688503 
L 226.223102 236.164255 
L 226.976365 236.164255 
L 226.976365 235.640008 
L 228.573637 235.640008 
L 228.664453 234.591512 
L 232.017626 234.591512 
L 232.017626 234.067265 
L 233.222735 234.067265 
L 233.222735 233.543017 
L 234.348859 233.543017 
L 234.348859 233.018769 
L 235.970057 233.018769 
L 235.970057 232.494521 
L 245.270895 232.494521 
L 245.270895 231.970274 
L 333.168 231.970274 
L 333.168 231.970274 
" style="fill:none;stroke:#000000;stroke-linecap:square;stroke-width:1.5;"/>
   </g>
   <g id="line2d_52">
    <defs>
     <path d="M 0 6 
C 1.591219 6 3.117479 5.367802 4.242641 4.242641 
C 5.367802 3.117479 6 1.591219 6 0 
C 6 -1.591219 5.367802 -3.117479 4.242641 -4.242641 
C 3.117479 -5.367802 1.591219 -6 0 -6 
C -1.591219 -6 -3.117479 -5.367802 -4.242641 -4.242641 
C -5.367802 -3.117479 -6 -1.591219 -6 0 
C -6 1.591219 -5.367802 3.117479 -4.242641 4.242641 
C -3.117479 5.367802 -1.591219 6 0 6 
z
" id="mcb09394482" style="stroke:#000000;stroke-width:1.5;"/>
    </defs>
    <g>
     <use style="fill-opacity:0;stroke:#000000;stroke-width:1.5;" x="196.53971" xlink:href="#mcb09394482" y="249.794696"/>
     <use style="fill-opacity:0;stroke:#000000;stroke-width:1.5;" x="245.270895" xlink:href="#mcb09394482" y="232.494521"/>
     <use style="fill-opacity:0;stroke:#000000;stroke-width:1.5;" x="245.270895" xlink:href="#mcb09394482" y="231.970274"/>
     <use style="fill-opacity:0;stroke:#000000;stroke-width:1.5;" x="245.270895" xlink:href="#mcb09394482" y="231.970274"/>
     <use style="fill-opacity:0;stroke:#000000;stroke-width:1.5;" x="333.168" xlink:href="#mcb09394482" y="231.970274"/>
    </g>
   </g>
   <g id="line2d_53">
    <path style="fill:none;stroke:#000000;stroke-linecap:square;stroke-width:1.5;"/>
    <g/>
   </g>
   <g id="line2d_54">
    <path clip-path="url(#p765310fe05)" d="M 175.027591 262.900889 
" style="fill:none;stroke:#000000;stroke-linecap:square;stroke-width:1.5;"/>
    <defs>
     <path d="M -12 12 
L 12 -12 
M -12 -12 
L 12 12 
" id="m077cb71f0b" style="stroke:#000000;"/>
    </defs>
    <g clip-path="url(#p765310fe05)">
     <use style="stroke:#000000;" x="175.027591" xlink:href="#m077cb71f0b" y="262.900889"/>
    </g>
   </g>
   <g id="line2d_55">
    <defs>
     <path d="M 0 1.5 
C 0.397805 1.5 0.77937 1.341951 1.06066 1.06066 
C 1.341951 0.77937 1.5 0.397805 1.5 0 
C 1.5 -0.397805 1.341951 -0.77937 1.06066 -1.06066 
C 0.77937 -1.341951 0.397805 -1.5 0 -1.5 
C -0.397805 -1.5 -0.77937 -1.341951 -1.06066 -1.06066 
C -1.341951 -0.77937 -1.5 -0.397805 -1.5 0 
C -1.5 0.397805 -1.341951 0.77937 -1.06066 1.06066 
C -0.77937 1.341951 -0.397805 1.5 0 1.5 
z
" id="m761b898c2a" style="stroke:#ff0000;"/>
    </defs>
    <g>
     <use style="fill:#ff0000;stroke:#ff0000;" x="240.320517" xlink:href="#m761b898c2a" y="284.395046"/>
     <use style="fill:#ff0000;stroke:#ff0000;" x="240.320517" xlink:href="#m761b898c2a" y="284.395046"/>
    </g>
   </g>
   <g id="line2d_56">
    <path d="M 156.131183 294.88 
L 156.131183 294.355752 
L 170.254869 294.355752 
L 170.254869 293.831505 
L 179.968623 293.831505 
L 179.968623 293.307257 
L 184.720122 293.307257 
L 184.720122 292.783009 
L 188.297628 292.783009 
L 188.297628 292.258761 
L 189.588929 292.258761 
L 189.588929 291.734514 
L 191.344116 291.734514 
L 191.344116 291.210266 
L 197.780652 291.210266 
L 197.780652 290.686018 
L 203.246343 290.686018 
L 203.246343 290.161771 
L 204.765207 290.161771 
L 204.765207 289.113275 
L 205.115754 289.113275 
L 205.115754 288.589027 
L 213.977237 288.589027 
L 213.977237 288.06478 
L 215.673518 288.06478 
L 215.673518 287.540532 
L 223.359295 287.540532 
L 223.359295 286.492036 
L 224.362337 286.492036 
L 224.362337 285.967789 
L 230.106439 285.967789 
L 230.106439 284.919293 
L 240.320517 284.919293 
L 240.320517 284.395046 
L 333.168 284.395046 
" style="fill:none;stroke:#ff0000;stroke-linecap:square;stroke-width:1.5;"/>
   </g>
   <g id="line2d_57">
    <defs>
     <path d="M -6 6 
L 6 6 
L 6 -6 
L -6 -6 
z
" id="m408265db9f" style="stroke:#ff0000;stroke-linejoin:miter;stroke-width:1.5;"/>
    </defs>
    <g>
     <use style="fill-opacity:0;stroke:#ff0000;stroke-linejoin:miter;stroke-width:1.5;" x="230.106439" xlink:href="#m408265db9f" y="284.919293"/>
     <use style="fill-opacity:0;stroke:#ff0000;stroke-linejoin:miter;stroke-width:1.5;" x="240.320517" xlink:href="#m408265db9f" y="284.395046"/>
     <use style="fill-opacity:0;stroke:#ff0000;stroke-linejoin:miter;stroke-width:1.5;" x="240.320517" xlink:href="#m408265db9f" y="284.395046"/>
     <use style="fill-opacity:0;stroke:#ff0000;stroke-linejoin:miter;stroke-width:1.5;" x="333.168" xlink:href="#m408265db9f" y="284.395046"/>
    </g>
   </g>
   <g id="line2d_58">
    <path style="fill:none;stroke:#ff0000;stroke-linecap:square;stroke-width:1.5;"/>
    <g/>
   </g>
   <g id="line2d_59">
    <path clip-path="url(#p765310fe05)" d="M 175.026741 293.831505 
" style="fill:none;stroke:#ff0000;stroke-linecap:square;stroke-width:1.5;"/>
    <defs>
     <path d="M -12 12 
L 12 -12 
M -12 -12 
L 12 12 
" id="m740b0fb70e" style="stroke:#ff0000;"/>
    </defs>
    <g clip-path="url(#p765310fe05)">
     <use style="fill:#ff0000;stroke:#ff0000;" x="175.026741" xlink:href="#m740b0fb70e" y="293.831505"/>
    </g>
   </g>
   <g id="line2d_60">
    <path clip-path="url(#p765310fe05)" d="M 56.12 294.88 
L 56.12 294.88 
L 56.12 294.88 
L 56.12 294.88 
L 333.168 294.88 
" style="fill:none;stroke:#bf00bf;stroke-linecap:square;stroke-width:1.5;"/>
   </g>
   <g id="line2d_61">
    <defs>
     <path d="M -0 8.485281 
L 8.485281 0 
L 0 -8.485281 
L -8.485281 -0 
z
" id="mb020431b1a" style="stroke:#bf00bf;stroke-linejoin:miter;stroke-width:1.5;"/>
    </defs>
    <g clip-path="url(#p765310fe05)">
     <use style="fill-opacity:0;stroke:#bf00bf;stroke-linejoin:miter;stroke-width:1.5;" x="56.12" xlink:href="#mb020431b1a" y="294.88"/>
    </g>
   </g>
   <g id="line2d_62">
    <path clip-path="url(#p765310fe05)" style="fill:none;stroke:#bf00bf;stroke-linecap:square;stroke-width:1.5;"/>
    <g clip-path="url(#p765310fe05)">
     <use style="fill-opacity:0;stroke:#bf00bf;stroke-linejoin:miter;stroke-width:1.5;" x="-1" xlink:href="#mb020431b1a" y="562.246337"/>
     <use style="fill-opacity:0;stroke:#bf00bf;stroke-linejoin:miter;stroke-width:1.5;" x="333.168" xlink:href="#mb020431b1a" y="562.246337"/>
    </g>
   </g>
   <g id="line2d_63">
    <path d="M 333.168 294.88 
L 363.64328 289.532673 
" style="fill:none;stroke:#bf00bf;stroke-linecap:square;stroke-width:1.5;"/>
    <g>
     <use style="fill-opacity:0;stroke:#bf00bf;stroke-linejoin:miter;stroke-width:1.5;" x="333.168" xlink:href="#mb020431b1a" y="294.88"/>
     <use style="fill-opacity:0;stroke:#bf00bf;stroke-linejoin:miter;stroke-width:1.5;" x="363.64328" xlink:href="#mb020431b1a" y="289.532673"/>
    </g>
   </g>
   <g id="line2d_64">
    <path d="M 333.168 284.395046 
L 363.64328 238.198337 
" style="fill:none;stroke:#ff0000;stroke-linecap:square;stroke-width:1.5;"/>
    <g>
     <use style="fill-opacity:0;stroke:#ff0000;stroke-linejoin:miter;stroke-width:1.5;" x="333.168" xlink:href="#m408265db9f" y="284.395046"/>
     <use style="fill-opacity:0;stroke:#ff0000;stroke-linejoin:miter;stroke-width:1.5;" x="363.64328" xlink:href="#m408265db9f" y="238.198337"/>
    </g>
   </g>
   <g id="line2d_65">
    <path d="M 333.168 231.970274 
L 363.64328 186.864 
" style="fill:none;stroke:#000000;stroke-linecap:square;stroke-width:1.5;"/>
    <g>
     <use style="fill-opacity:0;stroke:#000000;stroke-width:1.5;" x="333.168" xlink:href="#mcb09394482" y="231.970274"/>
     <use style="fill-opacity:0;stroke:#000000;stroke-width:1.5;" x="363.64328" xlink:href="#mcb09394482" y="186.864"/>
    </g>
   </g>
   <g id="line2d_66">
    <path d="M 333.168 58.968526 
L 363.64328 135.529663 
" style="fill:none;stroke:#0000ff;stroke-linecap:square;stroke-width:1.5;"/>
    <g>
     <use style="fill-opacity:0;stroke:#0000ff;stroke-linejoin:bevel;stroke-width:1.5;" x="333.168" xlink:href="#m10a0544c31" y="58.968526"/>
     <use style="fill-opacity:0;stroke:#0000ff;stroke-linejoin:bevel;stroke-width:1.5;" x="363.64328" xlink:href="#m10a0544c31" y="135.529663"/>
    </g>
   </g>
   <g id="line2d_67">
    <path d="M 333.168 27.513663 
L 363.64328 84.195327 
" style="fill:none;stroke:#00bfbf;stroke-linecap:square;stroke-width:1.5;"/>
    <g>
     <use style="fill-opacity:0;stroke:#00bfbf;stroke-width:1.5;" x="333.168" xlink:href="#m8d5b4983d0" y="27.513663"/>
     <use style="fill-opacity:0;stroke:#00bfbf;stroke-width:1.5;" x="363.64328" xlink:href="#m8d5b4983d0" y="84.195327"/>
    </g>
   </g>
   <g id="line2d_68">
    <path d="M 333.168 27.513663 
L 363.64328 32.86099 
" style="fill:none;stroke:#008000;stroke-linecap:square;stroke-width:1.5;"/>
    <g>
     <use style="fill-opacity:0;stroke:#008000;stroke-linejoin:miter;stroke-width:1.5;" x="333.168" xlink:href="#m42fb345305" y="27.513663"/>
     <use style="fill-opacity:0;stroke:#008000;stroke-linejoin:miter;stroke-width:1.5;" x="363.64328" xlink:href="#m42fb345305" y="32.86099"/>
    </g>
   </g>
   <g id="line2d_69">
    <path d="M 333.168 294.88 
L 333.168 27.513663 
" style="fill:none;stroke:#000000;stroke-linecap:square;stroke-width:1.5;"/>
   </g>
   <g id="patch_3">
    <path d="M 56.12 294.88 
L 56.12 24.84 
" style="fill:none;stroke:#000000;stroke-linecap:square;stroke-linejoin:miter;stroke-width:0.8;"/>
   </g>
   <g id="patch_4">
    <path d="M 333.168 294.88 
L 333.168 24.84 
" style="fill:none;stroke:#000000;stroke-linecap:square;stroke-linejoin:miter;stroke-width:0.8;"/>
   </g>
   <g id="patch_5">
    <path d="M 56.12 294.88 
L 333.168 294.88 
" style="fill:none;stroke:#000000;stroke-linecap:square;stroke-linejoin:miter;stroke-width:0.8;"/>
   </g>
   <g id="patch_6">
    <path d="M 56.12 24.84 
L 333.168 24.84 
" style="fill:none;stroke:#000000;stroke-linecap:square;stroke-linejoin:miter;stroke-width:0.8;"/>
   </g>
   <g id="text_13">
    <!-- 40-D -->
    <defs>
     <path d="M 19.671875 64.796875 
L 19.671875 8.109375 
L 31.59375 8.109375 
Q 46.6875 8.109375 53.6875 14.9375 
Q 60.6875 21.78125 60.6875 36.53125 
Q 60.6875 51.171875 53.6875 57.984375 
Q 46.6875 64.796875 31.59375 64.796875 
z
M 9.8125 72.90625 
L 30.078125 72.90625 
Q 51.265625 72.90625 61.171875 64.09375 
Q 71.09375 55.28125 71.09375 36.53125 
Q 71.09375 17.671875 61.125 8.828125 
Q 51.171875 0 30.078125 0 
L 9.8125 0 
z
" id="DejaVuSans-44"/>
    </defs>
    <g transform="translate(369.18424 294.223611)scale(0.17 -0.17)">
     <use xlink:href="#DejaVuSans-34"/>
     <use x="63.623047" xlink:href="#DejaVuSans-30"/>
     <use x="127.246094" xlink:href="#DejaVuSans-2d"/>
     <use x="163.330078" xlink:href="#DejaVuSans-44"/>
    </g>
   </g>
   <g id="text_14">
    <!-- 20-D -->
    <g transform="translate(369.18424 242.889274)scale(0.17 -0.17)">
     <use xlink:href="#DejaVuSans-32"/>
     <use x="63.623047" xlink:href="#DejaVuSans-30"/>
     <use x="127.246094" xlink:href="#DejaVuSans-2d"/>
     <use x="163.330078" xlink:href="#DejaVuSans-44"/>
    </g>
   </g>
   <g id="text_15">
    <!-- 10-D -->
    <g transform="translate(369.18424 191.554937)scale(0.17 -0.17)">
     <use xlink:href="#DejaVuSans-31"/>
     <use x="63.623047" xlink:href="#DejaVuSans-30"/>
     <use x="127.246094" xlink:href="#DejaVuSans-2d"/>
     <use x="163.330078" xlink:href="#DejaVuSans-44"/>
    </g>
   </g>
   <g id="text_16">
    <!-- 5-D -->
    <defs>
     <path d="M 10.796875 72.90625 
L 49.515625 72.90625 
L 49.515625 64.59375 
L 19.828125 64.59375 
L 19.828125 46.734375 
Q 21.96875 47.46875 24.109375 47.828125 
Q 26.265625 48.1875 28.421875 48.1875 
Q 40.625 48.1875 47.75 41.5 
Q 54.890625 34.8125 54.890625 23.390625 
Q 54.890625 11.625 47.5625 5.09375 
Q 40.234375 -1.421875 26.90625 -1.421875 
Q 22.3125 -1.421875 17.546875 -0.640625 
Q 12.796875 0.140625 7.71875 1.703125 
L 7.71875 11.625 
Q 12.109375 9.234375 16.796875 8.0625 
Q 21.484375 6.890625 26.703125 6.890625 
Q 35.15625 6.890625 40.078125 11.328125 
Q 45.015625 15.765625 45.015625 23.390625 
Q 45.015625 31 40.078125 35.4375 
Q 35.15625 39.890625 26.703125 39.890625 
Q 22.75 39.890625 18.8125 39.015625 
Q 14.890625 38.140625 10.796875 36.28125 
z
" id="DejaVuSans-35"/>
    </defs>
    <g transform="translate(369.18424 140.220601)scale(0.17 -0.17)">
     <use xlink:href="#DejaVuSans-35"/>
     <use x="63.623047" xlink:href="#DejaVuSans-2d"/>
     <use x="99.707031" xlink:href="#DejaVuSans-44"/>
    </g>
   </g>
   <g id="text_17">
    <!-- 2-D -->
    <g transform="translate(369.18424 88.886264)scale(0.17 -0.17)">
     <use xlink:href="#DejaVuSans-32"/>
     <use x="63.623047" xlink:href="#DejaVuSans-2d"/>
     <use x="99.707031" xlink:href="#DejaVuSans-44"/>
    </g>
   </g>
   <g id="text_18">
    <!-- 3-D -->
    <defs>
     <path d="M 40.578125 39.3125 
Q 47.65625 37.796875 51.625 33 
Q 55.609375 28.21875 55.609375 21.1875 
Q 55.609375 10.40625 48.1875 4.484375 
Q 40.765625 -1.421875 27.09375 -1.421875 
Q 22.515625 -1.421875 17.65625 -0.515625 
Q 12.796875 0.390625 7.625 2.203125 
L 7.625 11.71875 
Q 11.71875 9.328125 16.59375 8.109375 
Q 21.484375 6.890625 26.8125 6.890625 
Q 36.078125 6.890625 40.9375 10.546875 
Q 45.796875 14.203125 45.796875 21.1875 
Q 45.796875 27.640625 41.28125 31.265625 
Q 36.765625 34.90625 28.71875 34.90625 
L 20.21875 34.90625 
L 20.21875 43.015625 
L 29.109375 43.015625 
Q 36.375 43.015625 40.234375 45.921875 
Q 44.09375 48.828125 44.09375 54.296875 
Q 44.09375 59.90625 40.109375 62.90625 
Q 36.140625 65.921875 28.71875 65.921875 
Q 24.65625 65.921875 20.015625 65.03125 
Q 15.375 64.15625 9.8125 62.3125 
L 9.8125 71.09375 
Q 15.4375 72.65625 20.34375 73.4375 
Q 25.25 74.21875 29.59375 74.21875 
Q 40.828125 74.21875 47.359375 69.109375 
Q 53.90625 64.015625 53.90625 55.328125 
Q 53.90625 49.265625 50.4375 45.09375 
Q 46.96875 40.921875 40.578125 39.3125 
z
" id="DejaVuSans-33"/>
    </defs>
    <g transform="translate(369.18424 37.551928)scale(0.17 -0.17)">
     <use xlink:href="#DejaVuSans-33"/>
     <use x="63.623047" xlink:href="#DejaVuSans-2d"/>
     <use x="99.707031" xlink:href="#DejaVuSans-44"/>
    </g>
   </g>
   <g id="text_19">
    <!-- bbob f6 -->
    <defs>
     <path d="M 48.6875 27.296875 
Q 48.6875 37.203125 44.609375 42.84375 
Q 40.53125 48.484375 33.40625 48.484375 
Q 26.265625 48.484375 22.1875 42.84375 
Q 18.109375 37.203125 18.109375 27.296875 
Q 18.109375 17.390625 22.1875 11.75 
Q 26.265625 6.109375 33.40625 6.109375 
Q 40.53125 6.109375 44.609375 11.75 
Q 48.6875 17.390625 48.6875 27.296875 
z
M 18.109375 46.390625 
Q 20.953125 51.265625 25.265625 53.625 
Q 29.59375 56 35.59375 56 
Q 45.5625 56 51.78125 48.09375 
Q 58.015625 40.1875 58.015625 27.296875 
Q 58.015625 14.40625 51.78125 6.484375 
Q 45.5625 -1.421875 35.59375 -1.421875 
Q 29.59375 -1.421875 25.265625 0.953125 
Q 20.953125 3.328125 18.109375 8.203125 
L 18.109375 0 
L 9.078125 0 
L 9.078125 75.984375 
L 18.109375 75.984375 
z
" id="DejaVuSans-62"/>
    </defs>
    <g transform="translate(58.89048 35.290806)scale(0.102 -0.102)">
     <use xlink:href="#DejaVuSans-62"/>
     <use x="63.476562" xlink:href="#DejaVuSans-62"/>
     <use x="126.953125" xlink:href="#DejaVuSans-6f"/>
     <use x="188.134766" xlink:href="#DejaVuSans-62"/>
     <use x="251.611328" xlink:href="#DejaVuSans-20"/>
     <use x="283.398438" xlink:href="#DejaVuSans-66"/>
     <use x="318.603516" xlink:href="#DejaVuSans-36"/>
    </g>
    <!-- 51 targets: 100..1e-08 -->
    <defs>
     <path d="M 11.71875 12.40625 
L 22.015625 12.40625 
L 22.015625 0 
L 11.71875 0 
z
M 11.71875 51.703125 
L 22.015625 51.703125 
L 22.015625 39.3125 
L 11.71875 39.3125 
z
" id="DejaVuSans-3a"/>
    </defs>
    <g transform="translate(58.89048 46.712575)scale(0.102 -0.102)">
     <use xlink:href="#DejaVuSans-35"/>
     <use x="63.623047" xlink:href="#DejaVuSans-31"/>
     <use x="127.246094" xlink:href="#DejaVuSans-20"/>
     <use x="159.033203" xlink:href="#DejaVuSans-74"/>
     <use x="198.242188" xlink:href="#DejaVuSans-61"/>
     <use x="259.521484" xlink:href="#DejaVuSans-72"/>
     <use x="300.619141" xlink:href="#DejaVuSans-67"/>
     <use x="364.095703" xlink:href="#DejaVuSans-65"/>
     <use x="425.619141" xlink:href="#DejaVuSans-74"/>
     <use x="464.828125" xlink:href="#DejaVuSans-73"/>
     <use x="516.927734" xlink:href="#DejaVuSans-3a"/>
     <use x="550.619141" xlink:href="#DejaVuSans-20"/>
     <use x="582.40625" xlink:href="#DejaVuSans-31"/>
     <use x="646.029297" xlink:href="#DejaVuSans-30"/>
     <use x="709.652344" xlink:href="#DejaVuSans-30"/>
     <use x="773.275391" xlink:href="#DejaVuSans-2e"/>
     <use x="805.0625" xlink:href="#DejaVuSans-2e"/>
     <use x="836.849609" xlink:href="#DejaVuSans-31"/>
     <use x="900.472656" xlink:href="#DejaVuSans-65"/>
     <use x="961.996094" xlink:href="#DejaVuSans-2d"/>
     <use x="998.080078" xlink:href="#DejaVuSans-30"/>
     <use x="1061.703125" xlink:href="#DejaVuSans-38"/>
    </g>
    <!-- 15 instances -->
    <g transform="translate(58.89048 58.134344)scale(0.102 -0.102)">
     <use xlink:href="#DejaVuSans-31"/>
     <use x="63.623047" xlink:href="#DejaVuSans-35"/>
     <use x="127.246094" xlink:href="#DejaVuSans-20"/>
     <use x="159.033203" xlink:href="#DejaVuSans-69"/>
     <use x="186.816406" xlink:href="#DejaVuSans-6e"/>
     <use x="250.195312" xlink:href="#DejaVuSans-73"/>
     <use x="302.294922" xlink:href="#DejaVuSans-74"/>
     <use x="341.503906" xlink:href="#DejaVuSans-61"/>
     <use x="402.783203" xlink:href="#DejaVuSans-6e"/>
     <use x="466.162109" xlink:href="#DejaVuSans-63"/>
     <use x="521.142578" xlink:href="#DejaVuSans-65"/>
     <use x="582.666016" xlink:href="#DejaVuSans-73"/>
    </g>
   </g>
   <g id="text_20">
    <!-- v0.0.0 -->
    <g style="fill:#808080;" transform="translate(178.96275 290.099912)scale(0.1 -0.1)">
     <use xlink:href="#DejaVuSans-76"/>
     <use x="59.179688" xlink:href="#DejaVuSans-30"/>
     <use x="122.802734" xlink:href="#DejaVuSans-2e"/>
     <use x="154.589844" xlink:href="#DejaVuSans-30"/>
     <use x="218.212891" xlink:href="#DejaVuSans-2e"/>
     <use x="250" xlink:href="#DejaVuSans-30"/>
    </g>
   </g>
   <g id="text_21">
    <!-- 6 Attractive sector -->
    <defs>
     <path d="M 34.1875 63.1875 
L 20.796875 26.90625 
L 47.609375 26.90625 
z
M 28.609375 72.90625 
L 39.796875 72.90625 
L 67.578125 0 
L 57.328125 0 
L 50.6875 18.703125 
L 17.828125 18.703125 
L 11.1875 0 
L 0.78125 0 
z
" id="DejaVuSans-41"/>
    </defs>
    <g transform="translate(101.726812 18.84)scale(0.2 -0.2)">
     <use xlink:href="#DejaVuSans-36"/>
     <use x="63.623047" xlink:href="#DejaVuSans-20"/>
     <use x="95.410156" xlink:href="#DejaVuSans-41"/>
     <use x="163.802734" xlink:href="#DejaVuSans-74"/>
     <use x="203.011719" xlink:href="#DejaVuSans-74"/>
     <use x="242.220703" xlink:href="#DejaVuSans-72"/>
     <use x="283.333984" xlink:href="#DejaVuSans-61"/>
     <use x="344.613281" xlink:href="#DejaVuSans-63"/>
     <use x="399.59375" xlink:href="#DejaVuSans-74"/>
     <use x="438.802734" xlink:href="#DejaVuSans-69"/>
     <use x="466.585938" xlink:href="#DejaVuSans-76"/>
     <use x="525.765625" xlink:href="#DejaVuSans-65"/>
     <use x="587.289062" xlink:href="#DejaVuSans-20"/>
     <use x="619.076172" xlink:href="#DejaVuSans-73"/>
     <use x="671.175781" xlink:href="#DejaVuSans-65"/>
     <use x="732.699219" xlink:href="#DejaVuSans-63"/>
     <use x="787.679688" xlink:href="#DejaVuSans-74"/>
     <use x="826.888672" xlink:href="#DejaVuSans-6f"/>
     <use x="888.070312" xlink:href="#DejaVuSans-72"/>
    </g>
   </g>
  </g>
 </g>
 <defs>
  <clipPath id="p765310fe05">
   <rect height="270.04" width="277.048" x="56.12" y="24.84"/>
  </clipPath>
 </defs>
</svg>
