<?xml version="1.0" encoding="utf-8" standalone="no"?>
<!DOCTYPE svg PUBLIC "-//W3C//DTD SVG 1.1//EN"
  "http://www.w3.org/Graphics/SVG/1.1/DTD/svg11.dtd">
<!-- Created with matplotlib (http://matplotlib.org/) -->
<svg height="345.6pt" version="1.1" viewBox="0 0 460.8 345.6" width="460.8pt" xmlns="http://www.w3.org/2000/svg" xmlns:xlink="http://www.w3.org/1999/xlink">
 <defs>
  <style type="text/css">
*{stroke-linecap:butt;stroke-linejoin:round;}
  </style>
 </defs>
 <g id="figure_1">
  <g id="patch_1">
   <path d="M 0 345.6 
L 460.8 345.6 
L 460.8 0 
L 0 0 
z
" style="fill:#ffffff;"/>
  </g>
  <g id="axes_1">
   <g id="patch_2">
    <path d="M 56.12 294.88 
L 333.168 294.88 
L 333.168 24.84 
L 56.12 24.84 
z
" style="fill:#ffffff;"/>
   </g>
   <g id="matplotlib.axis_1">
    <g id="xtick_1">
     <g id="line2d_1">
      <path clip-path="url(#peda31a1e1b)" d="M 56.12 294.88 
L 56.12 24.84 
" style="fill:none;stroke:#b0b0b0;stroke-linecap:square;stroke-width:0.8;"/>
     </g>
     <g id="line2d_2">
      <defs>
       <path d="M 0 0 
L 0 3.5 
" id="mf6f70058e2" style="stroke:#000000;stroke-width:0.8;"/>
      </defs>
      <g>
       <use style="stroke:#000000;stroke-width:0.8;" x="56.12" xlink:href="#mf6f70058e2" y="294.88"/>
      </g>
     </g>
     <g id="text_1">
      <!-- 0 -->
      <defs>
       <path d="M 31.78125 66.40625 
Q 24.171875 66.40625 20.328125 58.90625 
Q 16.5 51.421875 16.5 36.375 
Q 16.5 21.390625 20.328125 13.890625 
Q 24.171875 6.390625 31.78125 6.390625 
Q 39.453125 6.390625 43.28125 13.890625 
Q 47.125 21.390625 47.125 36.375 
Q 47.125 51.421875 43.28125 58.90625 
Q 39.453125 66.40625 31.78125 66.40625 
z
M 31.78125 74.21875 
Q 44.046875 74.21875 50.515625 64.515625 
Q 56.984375 54.828125 56.984375 36.375 
Q 56.984375 17.96875 50.515625 8.265625 
Q 44.046875 -1.421875 31.78125 -1.421875 
Q 19.53125 -1.421875 13.0625 8.265625 
Q 6.59375 17.96875 6.59375 36.375 
Q 6.59375 54.828125 13.0625 64.515625 
Q 19.53125 74.21875 31.78125 74.21875 
z
" id="DejaVuSans-30"/>
      </defs>
      <g transform="translate(49.7575 317.076875)scale(0.2 -0.2)">
       <use xlink:href="#DejaVuSans-30"/>
      </g>
     </g>
    </g>
    <g id="xtick_2">
     <g id="line2d_3">
      <path clip-path="url(#peda31a1e1b)" d="M 135.276571 294.88 
L 135.276571 24.84 
" style="fill:none;stroke:#b0b0b0;stroke-linecap:square;stroke-width:0.8;"/>
     </g>
     <g id="line2d_4">
      <g>
       <use style="stroke:#000000;stroke-width:0.8;" x="135.276571" xlink:href="#mf6f70058e2" y="294.88"/>
      </g>
     </g>
     <g id="text_2">
      <!-- 2 -->
      <defs>
       <path d="M 19.1875 8.296875 
L 53.609375 8.296875 
L 53.609375 0 
L 7.328125 0 
L 7.328125 8.296875 
Q 12.9375 14.109375 22.625 23.890625 
Q 32.328125 33.6875 34.8125 36.53125 
Q 39.546875 41.84375 41.421875 45.53125 
Q 43.3125 49.21875 43.3125 52.78125 
Q 43.3125 58.59375 39.234375 62.25 
Q 35.15625 65.921875 28.609375 65.921875 
Q 23.96875 65.921875 18.8125 64.3125 
Q 13.671875 62.703125 7.8125 59.421875 
L 7.8125 69.390625 
Q 13.765625 71.78125 18.9375 73 
Q 24.125 74.21875 28.421875 74.21875 
Q 39.75 74.21875 46.484375 68.546875 
Q 53.21875 62.890625 53.21875 53.421875 
Q 53.21875 48.921875 51.53125 44.890625 
Q 49.859375 40.875 45.40625 35.40625 
Q 44.1875 33.984375 37.640625 27.21875 
Q 31.109375 20.453125 19.1875 8.296875 
z
" id="DejaVuSans-32"/>
      </defs>
      <g transform="translate(128.914071 317.076875)scale(0.2 -0.2)">
       <use xlink:href="#DejaVuSans-32"/>
      </g>
     </g>
    </g>
    <g id="xtick_3">
     <g id="line2d_5">
      <path clip-path="url(#peda31a1e1b)" d="M 214.433143 294.88 
L 214.433143 24.84 
" style="fill:none;stroke:#b0b0b0;stroke-linecap:square;stroke-width:0.8;"/>
     </g>
     <g id="line2d_6">
      <g>
       <use style="stroke:#000000;stroke-width:0.8;" x="214.433143" xlink:href="#mf6f70058e2" y="294.88"/>
      </g>
     </g>
     <g id="text_3">
      <!-- 4 -->
      <defs>
       <path d="M 37.796875 64.3125 
L 12.890625 25.390625 
L 37.796875 25.390625 
z
M 35.203125 72.90625 
L 47.609375 72.90625 
L 47.609375 25.390625 
L 58.015625 25.390625 
L 58.015625 17.1875 
L 47.609375 17.1875 
L 47.609375 0 
L 37.796875 0 
L 37.796875 17.1875 
L 4.890625 17.1875 
L 4.890625 26.703125 
z
" id="DejaVuSans-34"/>
      </defs>
      <g transform="translate(208.070643 317.076875)scale(0.2 -0.2)">
       <use xlink:href="#DejaVuSans-34"/>
      </g>
     </g>
    </g>
    <g id="xtick_4">
     <g id="line2d_7">
      <path clip-path="url(#peda31a1e1b)" d="M 293.589714 294.88 
L 293.589714 24.84 
" style="fill:none;stroke:#b0b0b0;stroke-linecap:square;stroke-width:0.8;"/>
     </g>
     <g id="line2d_8">
      <g>
       <use style="stroke:#000000;stroke-width:0.8;" x="293.589714" xlink:href="#mf6f70058e2" y="294.88"/>
      </g>
     </g>
     <g id="text_4">
      <!-- 6 -->
      <defs>
       <path d="M 33.015625 40.375 
Q 26.375 40.375 22.484375 35.828125 
Q 18.609375 31.296875 18.609375 23.390625 
Q 18.609375 15.53125 22.484375 10.953125 
Q 26.375 6.390625 33.015625 6.390625 
Q 39.65625 6.390625 43.53125 10.953125 
Q 47.40625 15.53125 47.40625 23.390625 
Q 47.40625 31.296875 43.53125 35.828125 
Q 39.65625 40.375 33.015625 40.375 
z
M 52.59375 71.296875 
L 52.59375 62.3125 
Q 48.875 64.0625 45.09375 64.984375 
Q 41.3125 65.921875 37.59375 65.921875 
Q 27.828125 65.921875 22.671875 59.328125 
Q 17.53125 52.734375 16.796875 39.40625 
Q 19.671875 43.65625 24.015625 45.921875 
Q 28.375 48.1875 33.59375 48.1875 
Q 44.578125 48.1875 50.953125 41.515625 
Q 57.328125 34.859375 57.328125 23.390625 
Q 57.328125 12.15625 50.6875 5.359375 
Q 44.046875 -1.421875 33.015625 -1.421875 
Q 20.359375 -1.421875 13.671875 8.265625 
Q 6.984375 17.96875 6.984375 36.375 
Q 6.984375 53.65625 15.1875 63.9375 
Q 23.390625 74.21875 37.203125 74.21875 
Q 40.921875 74.21875 44.703125 73.484375 
Q 48.484375 72.75 52.59375 71.296875 
z
" id="DejaVuSans-36"/>
      </defs>
      <g transform="translate(287.227214 317.076875)scale(0.2 -0.2)">
       <use xlink:href="#DejaVuSans-36"/>
      </g>
     </g>
    </g>
    <g id="xtick_5">
     <g id="line2d_9">
      <path clip-path="url(#peda31a1e1b)" d="M 56.12 294.88 
L 56.12 24.84 
" style="fill:none;stroke:#b0b0b0;stroke-linecap:square;stroke-width:0.8;"/>
     </g>
     <g id="line2d_10">
      <defs>
       <path d="M 0 0 
L 0 2 
" id="mfb6e11af40" style="stroke:#000000;stroke-width:0.6;"/>
      </defs>
      <g>
       <use style="stroke:#000000;stroke-width:0.6;" x="56.12" xlink:href="#mfb6e11af40" y="294.88"/>
      </g>
     </g>
    </g>
    <g id="xtick_6">
     <g id="line2d_11">
      <path clip-path="url(#peda31a1e1b)" d="M 95.698286 294.88 
L 95.698286 24.84 
" style="fill:none;stroke:#b0b0b0;stroke-linecap:square;stroke-width:0.8;"/>
     </g>
     <g id="line2d_12">
      <g>
       <use style="stroke:#000000;stroke-width:0.6;" x="95.698286" xlink:href="#mfb6e11af40" y="294.88"/>
      </g>
     </g>
    </g>
    <g id="xtick_7">
     <g id="line2d_13">
      <path clip-path="url(#peda31a1e1b)" d="M 135.276571 294.88 
L 135.276571 24.84 
" style="fill:none;stroke:#b0b0b0;stroke-linecap:square;stroke-width:0.8;"/>
     </g>
     <g id="line2d_14">
      <g>
       <use style="stroke:#000000;stroke-width:0.6;" x="135.276571" xlink:href="#mfb6e11af40" y="294.88"/>
      </g>
     </g>
    </g>
    <g id="xtick_8">
     <g id="line2d_15">
      <path clip-path="url(#peda31a1e1b)" d="M 174.854857 294.88 
L 174.854857 24.84 
" style="fill:none;stroke:#b0b0b0;stroke-linecap:square;stroke-width:0.8;"/>
     </g>
     <g id="line2d_16">
      <g>
       <use style="stroke:#000000;stroke-width:0.6;" x="174.854857" xlink:href="#mfb6e11af40" y="294.88"/>
      </g>
     </g>
    </g>
    <g id="xtick_9">
     <g id="line2d_17">
      <path clip-path="url(#peda31a1e1b)" d="M 214.433143 294.88 
L 214.433143 24.84 
" style="fill:none;stroke:#b0b0b0;stroke-linecap:square;stroke-width:0.8;"/>
     </g>
     <g id="line2d_18">
      <g>
       <use style="stroke:#000000;stroke-width:0.6;" x="214.433143" xlink:href="#mfb6e11af40" y="294.88"/>
      </g>
     </g>
    </g>
    <g id="xtick_10">
     <g id="line2d_19">
      <path clip-path="url(#peda31a1e1b)" d="M 254.011429 294.88 
L 254.011429 24.84 
" style="fill:none;stroke:#b0b0b0;stroke-linecap:square;stroke-width:0.8;"/>
     </g>
     <g id="line2d_20">
      <g>
       <use style="stroke:#000000;stroke-width:0.6;" x="254.011429" xlink:href="#mfb6e11af40" y="294.88"/>
      </g>
     </g>
    </g>
    <g id="xtick_11">
     <g id="line2d_21">
      <path clip-path="url(#peda31a1e1b)" d="M 293.589714 294.88 
L 293.589714 24.84 
" style="fill:none;stroke:#b0b0b0;stroke-linecap:square;stroke-width:0.8;"/>
     </g>
     <g id="line2d_22">
      <g>
       <use style="stroke:#000000;stroke-width:0.6;" x="293.589714" xlink:href="#mfb6e11af40" y="294.88"/>
      </g>
     </g>
    </g>
    <g id="xtick_12">
     <g id="line2d_23">
      <path clip-path="url(#peda31a1e1b)" d="M 333.168 294.88 
L 333.168 24.84 
" style="fill:none;stroke:#b0b0b0;stroke-linecap:square;stroke-width:0.8;"/>
     </g>
     <g id="line2d_24">
      <g>
       <use style="stroke:#000000;stroke-width:0.6;" x="333.168" xlink:href="#mfb6e11af40" y="294.88"/>
      </g>
     </g>
    </g>
    <g id="text_5">
     <!-- log10(# f-evals / dimension) -->
     <defs>
      <path d="M 9.421875 75.984375 
L 18.40625 75.984375 
L 18.40625 0 
L 9.421875 0 
z
" id="DejaVuSans-6c"/>
      <path d="M 30.609375 48.390625 
Q 23.390625 48.390625 19.1875 42.75 
Q 14.984375 37.109375 14.984375 27.296875 
Q 14.984375 17.484375 19.15625 11.84375 
Q 23.34375 6.203125 30.609375 6.203125 
Q 37.796875 6.203125 41.984375 11.859375 
Q 46.1875 17.53125 46.1875 27.296875 
Q 46.1875 37.015625 41.984375 42.703125 
Q 37.796875 48.390625 30.609375 48.390625 
z
M 30.609375 56 
Q 42.328125 56 49.015625 48.375 
Q 55.71875 40.765625 55.71875 27.296875 
Q 55.71875 13.875 49.015625 6.21875 
Q 42.328125 -1.421875 30.609375 -1.421875 
Q 18.84375 -1.421875 12.171875 6.21875 
Q 5.515625 13.875 5.515625 27.296875 
Q 5.515625 40.765625 12.171875 48.375 
Q 18.84375 56 30.609375 56 
z
" id="DejaVuSans-6f"/>
      <path d="M 45.40625 27.984375 
Q 45.40625 37.75 41.375 43.109375 
Q 37.359375 48.484375 30.078125 48.484375 
Q 22.859375 48.484375 18.828125 43.109375 
Q 14.796875 37.75 14.796875 27.984375 
Q 14.796875 18.265625 18.828125 12.890625 
Q 22.859375 7.515625 30.078125 7.515625 
Q 37.359375 7.515625 41.375 12.890625 
Q 45.40625 18.265625 45.40625 27.984375 
z
M 54.390625 6.78125 
Q 54.390625 -7.171875 48.1875 -13.984375 
Q 42 -20.796875 29.203125 -20.796875 
Q 24.46875 -20.796875 20.265625 -20.09375 
Q 16.0625 -19.390625 12.109375 -17.921875 
L 12.109375 -9.1875 
Q 16.0625 -11.328125 19.921875 -12.34375 
Q 23.78125 -13.375 27.78125 -13.375 
Q 36.625 -13.375 41.015625 -8.765625 
Q 45.40625 -4.15625 45.40625 5.171875 
L 45.40625 9.625 
Q 42.625 4.78125 38.28125 2.390625 
Q 33.9375 0 27.875 0 
Q 17.828125 0 11.671875 7.65625 
Q 5.515625 15.328125 5.515625 27.984375 
Q 5.515625 40.671875 11.671875 48.328125 
Q 17.828125 56 27.875 56 
Q 33.9375 56 38.28125 53.609375 
Q 42.625 51.21875 45.40625 46.390625 
L 45.40625 54.6875 
L 54.390625 54.6875 
z
" id="DejaVuSans-67"/>
      <path d="M 12.40625 8.296875 
L 28.515625 8.296875 
L 28.515625 63.921875 
L 10.984375 60.40625 
L 10.984375 69.390625 
L 28.421875 72.90625 
L 38.28125 72.90625 
L 38.28125 8.296875 
L 54.390625 8.296875 
L 54.390625 0 
L 12.40625 0 
z
" id="DejaVuSans-31"/>
      <path d="M 31 75.875 
Q 24.46875 64.65625 21.28125 53.65625 
Q 18.109375 42.671875 18.109375 31.390625 
Q 18.109375 20.125 21.3125 9.0625 
Q 24.515625 -2 31 -13.1875 
L 23.1875 -13.1875 
Q 15.875 -1.703125 12.234375 9.375 
Q 8.59375 20.453125 8.59375 31.390625 
Q 8.59375 42.28125 12.203125 53.3125 
Q 15.828125 64.359375 23.1875 75.875 
z
" id="DejaVuSans-28"/>
      <path d="M 51.125 44 
L 36.921875 44 
L 32.8125 27.6875 
L 47.125 27.6875 
z
M 43.796875 71.78125 
L 38.71875 51.515625 
L 52.984375 51.515625 
L 58.109375 71.78125 
L 65.921875 71.78125 
L 60.890625 51.515625 
L 76.125 51.515625 
L 76.125 44 
L 58.984375 44 
L 54.984375 27.6875 
L 70.515625 27.6875 
L 70.515625 20.21875 
L 53.078125 20.21875 
L 48 0 
L 40.1875 0 
L 45.21875 20.21875 
L 30.90625 20.21875 
L 25.875 0 
L 18.015625 0 
L 23.09375 20.21875 
L 7.71875 20.21875 
L 7.71875 27.6875 
L 24.90625 27.6875 
L 29 44 
L 13.28125 44 
L 13.28125 51.515625 
L 30.90625 51.515625 
L 35.890625 71.78125 
z
" id="DejaVuSans-23"/>
      <path id="DejaVuSans-20"/>
      <path d="M 37.109375 75.984375 
L 37.109375 68.5 
L 28.515625 68.5 
Q 23.6875 68.5 21.796875 66.546875 
Q 19.921875 64.59375 19.921875 59.515625 
L 19.921875 54.6875 
L 34.71875 54.6875 
L 34.71875 47.703125 
L 19.921875 47.703125 
L 19.921875 0 
L 10.890625 0 
L 10.890625 47.703125 
L 2.296875 47.703125 
L 2.296875 54.6875 
L 10.890625 54.6875 
L 10.890625 58.5 
Q 10.890625 67.625 15.140625 71.796875 
Q 19.390625 75.984375 28.609375 75.984375 
z
" id="DejaVuSans-66"/>
      <path d="M 4.890625 31.390625 
L 31.203125 31.390625 
L 31.203125 23.390625 
L 4.890625 23.390625 
z
" id="DejaVuSans-2d"/>
      <path d="M 56.203125 29.59375 
L 56.203125 25.203125 
L 14.890625 25.203125 
Q 15.484375 15.921875 20.484375 11.0625 
Q 25.484375 6.203125 34.421875 6.203125 
Q 39.59375 6.203125 44.453125 7.46875 
Q 49.3125 8.734375 54.109375 11.28125 
L 54.109375 2.78125 
Q 49.265625 0.734375 44.1875 -0.34375 
Q 39.109375 -1.421875 33.890625 -1.421875 
Q 20.796875 -1.421875 13.15625 6.1875 
Q 5.515625 13.8125 5.515625 26.8125 
Q 5.515625 40.234375 12.765625 48.109375 
Q 20.015625 56 32.328125 56 
Q 43.359375 56 49.78125 48.890625 
Q 56.203125 41.796875 56.203125 29.59375 
z
M 47.21875 32.234375 
Q 47.125 39.59375 43.09375 43.984375 
Q 39.0625 48.390625 32.421875 48.390625 
Q 24.90625 48.390625 20.390625 44.140625 
Q 15.875 39.890625 15.1875 32.171875 
z
" id="DejaVuSans-65"/>
      <path d="M 2.984375 54.6875 
L 12.5 54.6875 
L 29.59375 8.796875 
L 46.6875 54.6875 
L 56.203125 54.6875 
L 35.6875 0 
L 23.484375 0 
z
" id="DejaVuSans-76"/>
      <path d="M 34.28125 27.484375 
Q 23.390625 27.484375 19.1875 25 
Q 14.984375 22.515625 14.984375 16.5 
Q 14.984375 11.71875 18.140625 8.90625 
Q 21.296875 6.109375 26.703125 6.109375 
Q 34.1875 6.109375 38.703125 11.40625 
Q 43.21875 16.703125 43.21875 25.484375 
L 43.21875 27.484375 
z
M 52.203125 31.203125 
L 52.203125 0 
L 43.21875 0 
L 43.21875 8.296875 
Q 40.140625 3.328125 35.546875 0.953125 
Q 30.953125 -1.421875 24.3125 -1.421875 
Q 15.921875 -1.421875 10.953125 3.296875 
Q 6 8.015625 6 15.921875 
Q 6 25.140625 12.171875 29.828125 
Q 18.359375 34.515625 30.609375 34.515625 
L 43.21875 34.515625 
L 43.21875 35.40625 
Q 43.21875 41.609375 39.140625 45 
Q 35.0625 48.390625 27.6875 48.390625 
Q 23 48.390625 18.546875 47.265625 
Q 14.109375 46.140625 10.015625 43.890625 
L 10.015625 52.203125 
Q 14.9375 54.109375 19.578125 55.046875 
Q 24.21875 56 28.609375 56 
Q 40.484375 56 46.34375 49.84375 
Q 52.203125 43.703125 52.203125 31.203125 
z
" id="DejaVuSans-61"/>
      <path d="M 44.28125 53.078125 
L 44.28125 44.578125 
Q 40.484375 46.53125 36.375 47.5 
Q 32.28125 48.484375 27.875 48.484375 
Q 21.1875 48.484375 17.84375 46.4375 
Q 14.5 44.390625 14.5 40.28125 
Q 14.5 37.15625 16.890625 35.375 
Q 19.28125 33.59375 26.515625 31.984375 
L 29.59375 31.296875 
Q 39.15625 29.25 43.1875 25.515625 
Q 47.21875 21.78125 47.21875 15.09375 
Q 47.21875 7.46875 41.1875 3.015625 
Q 35.15625 -1.421875 24.609375 -1.421875 
Q 20.21875 -1.421875 15.453125 -0.5625 
Q 10.6875 0.296875 5.421875 2 
L 5.421875 11.28125 
Q 10.40625 8.6875 15.234375 7.390625 
Q 20.0625 6.109375 24.8125 6.109375 
Q 31.15625 6.109375 34.5625 8.28125 
Q 37.984375 10.453125 37.984375 14.40625 
Q 37.984375 18.0625 35.515625 20.015625 
Q 33.0625 21.96875 24.703125 23.78125 
L 21.578125 24.515625 
Q 13.234375 26.265625 9.515625 29.90625 
Q 5.8125 33.546875 5.8125 39.890625 
Q 5.8125 47.609375 11.28125 51.796875 
Q 16.75 56 26.8125 56 
Q 31.78125 56 36.171875 55.265625 
Q 40.578125 54.546875 44.28125 53.078125 
z
" id="DejaVuSans-73"/>
      <path d="M 25.390625 72.90625 
L 33.6875 72.90625 
L 8.296875 -9.28125 
L 0 -9.28125 
z
" id="DejaVuSans-2f"/>
      <path d="M 45.40625 46.390625 
L 45.40625 75.984375 
L 54.390625 75.984375 
L 54.390625 0 
L 45.40625 0 
L 45.40625 8.203125 
Q 42.578125 3.328125 38.25 0.953125 
Q 33.9375 -1.421875 27.875 -1.421875 
Q 17.96875 -1.421875 11.734375 6.484375 
Q 5.515625 14.40625 5.515625 27.296875 
Q 5.515625 40.1875 11.734375 48.09375 
Q 17.96875 56 27.875 56 
Q 33.9375 56 38.25 53.625 
Q 42.578125 51.265625 45.40625 46.390625 
z
M 14.796875 27.296875 
Q 14.796875 17.390625 18.875 11.75 
Q 22.953125 6.109375 30.078125 6.109375 
Q 37.203125 6.109375 41.296875 11.75 
Q 45.40625 17.390625 45.40625 27.296875 
Q 45.40625 37.203125 41.296875 42.84375 
Q 37.203125 48.484375 30.078125 48.484375 
Q 22.953125 48.484375 18.875 42.84375 
Q 14.796875 37.203125 14.796875 27.296875 
z
" id="DejaVuSans-64"/>
      <path d="M 9.421875 54.6875 
L 18.40625 54.6875 
L 18.40625 0 
L 9.421875 0 
z
M 9.421875 75.984375 
L 18.40625 75.984375 
L 18.40625 64.59375 
L 9.421875 64.59375 
z
" id="DejaVuSans-69"/>
      <path d="M 52 44.1875 
Q 55.375 50.25 60.0625 53.125 
Q 64.75 56 71.09375 56 
Q 79.640625 56 84.28125 50.015625 
Q 88.921875 44.046875 88.921875 33.015625 
L 88.921875 0 
L 79.890625 0 
L 79.890625 32.71875 
Q 79.890625 40.578125 77.09375 44.375 
Q 74.3125 48.1875 68.609375 48.1875 
Q 61.625 48.1875 57.5625 43.546875 
Q 53.515625 38.921875 53.515625 30.90625 
L 53.515625 0 
L 44.484375 0 
L 44.484375 32.71875 
Q 44.484375 40.625 41.703125 44.40625 
Q 38.921875 48.1875 33.109375 48.1875 
Q 26.21875 48.1875 22.15625 43.53125 
Q 18.109375 38.875 18.109375 30.90625 
L 18.109375 0 
L 9.078125 0 
L 9.078125 54.6875 
L 18.109375 54.6875 
L 18.109375 46.1875 
Q 21.1875 51.21875 25.484375 53.609375 
Q 29.78125 56 35.6875 56 
Q 41.65625 56 45.828125 52.96875 
Q 50 49.953125 52 44.1875 
z
" id="DejaVuSans-6d"/>
      <path d="M 54.890625 33.015625 
L 54.890625 0 
L 45.90625 0 
L 45.90625 32.71875 
Q 45.90625 40.484375 42.875 44.328125 
Q 39.84375 48.1875 33.796875 48.1875 
Q 26.515625 48.1875 22.3125 43.546875 
Q 18.109375 38.921875 18.109375 30.90625 
L 18.109375 0 
L 9.078125 0 
L 9.078125 54.6875 
L 18.109375 54.6875 
L 18.109375 46.1875 
Q 21.34375 51.125 25.703125 53.5625 
Q 30.078125 56 35.796875 56 
Q 45.21875 56 50.046875 50.171875 
Q 54.890625 44.34375 54.890625 33.015625 
z
" id="DejaVuSans-6e"/>
      <path d="M 8.015625 75.875 
L 15.828125 75.875 
Q 23.140625 64.359375 26.78125 53.3125 
Q 30.421875 42.28125 30.421875 31.390625 
Q 30.421875 20.453125 26.78125 9.375 
Q 23.140625 -1.703125 15.828125 -13.1875 
L 8.015625 -13.1875 
Q 14.5 -2 17.703125 9.0625 
Q 20.90625 20.125 20.90625 31.390625 
Q 20.90625 42.671875 17.703125 53.65625 
Q 14.5 64.65625 8.015625 75.875 
z
" id="DejaVuSans-29"/>
     </defs>
     <g transform="translate(73.803219 338.153594)scale(0.17 -0.17)">
      <use xlink:href="#DejaVuSans-6c"/>
      <use x="27.783203" xlink:href="#DejaVuSans-6f"/>
      <use x="88.964844" xlink:href="#DejaVuSans-67"/>
      <use x="152.441406" xlink:href="#DejaVuSans-31"/>
      <use x="216.064453" xlink:href="#DejaVuSans-30"/>
      <use x="279.6875" xlink:href="#DejaVuSans-28"/>
      <use x="318.701172" xlink:href="#DejaVuSans-23"/>
      <use x="402.490234" xlink:href="#DejaVuSans-20"/>
      <use x="434.277344" xlink:href="#DejaVuSans-66"/>
      <use x="469.404297" xlink:href="#DejaVuSans-2d"/>
      <use x="505.488281" xlink:href="#DejaVuSans-65"/>
      <use x="567.011719" xlink:href="#DejaVuSans-76"/>
      <use x="626.191406" xlink:href="#DejaVuSans-61"/>
      <use x="687.470703" xlink:href="#DejaVuSans-6c"/>
      <use x="715.253906" xlink:href="#DejaVuSans-73"/>
      <use x="767.353516" xlink:href="#DejaVuSans-20"/>
      <use x="799.140625" xlink:href="#DejaVuSans-2f"/>
      <use x="832.832031" xlink:href="#DejaVuSans-20"/>
      <use x="864.619141" xlink:href="#DejaVuSans-64"/>
      <use x="928.095703" xlink:href="#DejaVuSans-69"/>
      <use x="955.878906" xlink:href="#DejaVuSans-6d"/>
      <use x="1053.291016" xlink:href="#DejaVuSans-65"/>
      <use x="1114.814453" xlink:href="#DejaVuSans-6e"/>
      <use x="1178.193359" xlink:href="#DejaVuSans-73"/>
      <use x="1230.292969" xlink:href="#DejaVuSans-69"/>
      <use x="1258.076172" xlink:href="#DejaVuSans-6f"/>
      <use x="1319.257812" xlink:href="#DejaVuSans-6e"/>
      <use x="1382.636719" xlink:href="#DejaVuSans-29"/>
     </g>
    </g>
   </g>
   <g id="matplotlib.axis_2">
    <g id="ytick_1">
     <g id="line2d_25">
      <path clip-path="url(#peda31a1e1b)" d="M 56.12 294.88 
L 333.168 294.88 
" style="fill:none;stroke:#b0b0b0;stroke-linecap:square;stroke-width:0.8;"/>
     </g>
     <g id="line2d_26">
      <defs>
       <path d="M 0 0 
L -3.5 0 
" id="m72479ee94c" style="stroke:#000000;stroke-width:0.8;"/>
      </defs>
      <g>
       <use style="stroke:#000000;stroke-width:0.8;" x="56.12" xlink:href="#m72479ee94c" y="294.88"/>
      </g>
     </g>
     <g id="text_6">
      <!-- 0.0 -->
      <defs>
       <path d="M 10.6875 12.40625 
L 21 12.40625 
L 21 0 
L 10.6875 0 
z
" id="DejaVuSans-2e"/>
      </defs>
      <g transform="translate(23.675 300.95875)scale(0.16 -0.16)">
       <use xlink:href="#DejaVuSans-30"/>
       <use x="63.623047" xlink:href="#DejaVuSans-2e"/>
       <use x="95.410156" xlink:href="#DejaVuSans-30"/>
      </g>
     </g>
    </g>
    <g id="ytick_2">
     <g id="line2d_27">
      <path clip-path="url(#peda31a1e1b)" d="M 56.12 241.406733 
L 333.168 241.406733 
" style="fill:none;stroke:#b0b0b0;stroke-linecap:square;stroke-width:0.8;"/>
     </g>
     <g id="line2d_28">
      <g>
       <use style="stroke:#000000;stroke-width:0.8;" x="56.12" xlink:href="#m72479ee94c" y="241.406733"/>
      </g>
     </g>
     <g id="text_7">
      <!-- 0.2 -->
      <g transform="translate(23.675 247.485483)scale(0.16 -0.16)">
       <use xlink:href="#DejaVuSans-30"/>
       <use x="63.623047" xlink:href="#DejaVuSans-2e"/>
       <use x="95.410156" xlink:href="#DejaVuSans-32"/>
      </g>
     </g>
    </g>
    <g id="ytick_3">
     <g id="line2d_29">
      <path clip-path="url(#peda31a1e1b)" d="M 56.12 187.933465 
L 333.168 187.933465 
" style="fill:none;stroke:#b0b0b0;stroke-linecap:square;stroke-width:0.8;"/>
     </g>
     <g id="line2d_30">
      <g>
       <use style="stroke:#000000;stroke-width:0.8;" x="56.12" xlink:href="#m72479ee94c" y="187.933465"/>
      </g>
     </g>
     <g id="text_8">
      <!-- 0.4 -->
      <g transform="translate(23.675 194.012215)scale(0.16 -0.16)">
       <use xlink:href="#DejaVuSans-30"/>
       <use x="63.623047" xlink:href="#DejaVuSans-2e"/>
       <use x="95.410156" xlink:href="#DejaVuSans-34"/>
      </g>
     </g>
    </g>
    <g id="ytick_4">
     <g id="line2d_31">
      <path clip-path="url(#peda31a1e1b)" d="M 56.12 134.460198 
L 333.168 134.460198 
" style="fill:none;stroke:#b0b0b0;stroke-linecap:square;stroke-width:0.8;"/>
     </g>
     <g id="line2d_32">
      <g>
       <use style="stroke:#000000;stroke-width:0.8;" x="56.12" xlink:href="#m72479ee94c" y="134.460198"/>
      </g>
     </g>
     <g id="text_9">
      <!-- 0.6 -->
      <g transform="translate(23.675 140.538948)scale(0.16 -0.16)">
       <use xlink:href="#DejaVuSans-30"/>
       <use x="63.623047" xlink:href="#DejaVuSans-2e"/>
       <use x="95.410156" xlink:href="#DejaVuSans-36"/>
      </g>
     </g>
    </g>
    <g id="ytick_5">
     <g id="line2d_33">
      <path clip-path="url(#peda31a1e1b)" d="M 56.12 80.986931 
L 333.168 80.986931 
" style="fill:none;stroke:#b0b0b0;stroke-linecap:square;stroke-width:0.8;"/>
     </g>
     <g id="line2d_34">
      <g>
       <use style="stroke:#000000;stroke-width:0.8;" x="56.12" xlink:href="#m72479ee94c" y="80.986931"/>
      </g>
     </g>
     <g id="text_10">
      <!-- 0.8 -->
      <defs>
       <path d="M 31.78125 34.625 
Q 24.75 34.625 20.71875 30.859375 
Q 16.703125 27.09375 16.703125 20.515625 
Q 16.703125 13.921875 20.71875 10.15625 
Q 24.75 6.390625 31.78125 6.390625 
Q 38.8125 6.390625 42.859375 10.171875 
Q 46.921875 13.96875 46.921875 20.515625 
Q 46.921875 27.09375 42.890625 30.859375 
Q 38.875 34.625 31.78125 34.625 
z
M 21.921875 38.8125 
Q 15.578125 40.375 12.03125 44.71875 
Q 8.5 49.078125 8.5 55.328125 
Q 8.5 64.0625 14.71875 69.140625 
Q 20.953125 74.21875 31.78125 74.21875 
Q 42.671875 74.21875 48.875 69.140625 
Q 55.078125 64.0625 55.078125 55.328125 
Q 55.078125 49.078125 51.53125 44.71875 
Q 48 40.375 41.703125 38.8125 
Q 48.828125 37.15625 52.796875 32.3125 
Q 56.78125 27.484375 56.78125 20.515625 
Q 56.78125 9.90625 50.3125 4.234375 
Q 43.84375 -1.421875 31.78125 -1.421875 
Q 19.734375 -1.421875 13.25 4.234375 
Q 6.78125 9.90625 6.78125 20.515625 
Q 6.78125 27.484375 10.78125 32.3125 
Q 14.796875 37.15625 21.921875 38.8125 
z
M 18.3125 54.390625 
Q 18.3125 48.734375 21.84375 45.5625 
Q 25.390625 42.390625 31.78125 42.390625 
Q 38.140625 42.390625 41.71875 45.5625 
Q 45.3125 48.734375 45.3125 54.390625 
Q 45.3125 60.0625 41.71875 63.234375 
Q 38.140625 66.40625 31.78125 66.40625 
Q 25.390625 66.40625 21.84375 63.234375 
Q 18.3125 60.0625 18.3125 54.390625 
z
" id="DejaVuSans-38"/>
      </defs>
      <g transform="translate(23.675 87.065681)scale(0.16 -0.16)">
       <use xlink:href="#DejaVuSans-30"/>
       <use x="63.623047" xlink:href="#DejaVuSans-2e"/>
       <use x="95.410156" xlink:href="#DejaVuSans-38"/>
      </g>
     </g>
    </g>
    <g id="ytick_6">
     <g id="line2d_35">
      <path clip-path="url(#peda31a1e1b)" d="M 56.12 27.513663 
L 333.168 27.513663 
" style="fill:none;stroke:#b0b0b0;stroke-linecap:square;stroke-width:0.8;"/>
     </g>
     <g id="line2d_36">
      <g>
       <use style="stroke:#000000;stroke-width:0.8;" x="56.12" xlink:href="#m72479ee94c" y="27.513663"/>
      </g>
     </g>
     <g id="text_11">
      <!-- 1.0 -->
      <g transform="translate(23.675 33.592413)scale(0.16 -0.16)">
       <use xlink:href="#DejaVuSans-31"/>
       <use x="63.623047" xlink:href="#DejaVuSans-2e"/>
       <use x="95.410156" xlink:href="#DejaVuSans-30"/>
      </g>
     </g>
    </g>
    <g id="text_12">
     <!-- Fraction of function,target pairs -->
     <defs>
      <path d="M 9.8125 72.90625 
L 51.703125 72.90625 
L 51.703125 64.59375 
L 19.671875 64.59375 
L 19.671875 43.109375 
L 48.578125 43.109375 
L 48.578125 34.8125 
L 19.671875 34.8125 
L 19.671875 0 
L 9.8125 0 
z
" id="DejaVuSans-46"/>
      <path d="M 41.109375 46.296875 
Q 39.59375 47.171875 37.8125 47.578125 
Q 36.03125 48 33.890625 48 
Q 26.265625 48 22.1875 43.046875 
Q 18.109375 38.09375 18.109375 28.8125 
L 18.109375 0 
L 9.078125 0 
L 9.078125 54.6875 
L 18.109375 54.6875 
L 18.109375 46.1875 
Q 20.953125 51.171875 25.484375 53.578125 
Q 30.03125 56 36.53125 56 
Q 37.453125 56 38.578125 55.875 
Q 39.703125 55.765625 41.0625 55.515625 
z
" id="DejaVuSans-72"/>
      <path d="M 48.78125 52.59375 
L 48.78125 44.1875 
Q 44.96875 46.296875 41.140625 47.34375 
Q 37.3125 48.390625 33.40625 48.390625 
Q 24.65625 48.390625 19.8125 42.84375 
Q 14.984375 37.3125 14.984375 27.296875 
Q 14.984375 17.28125 19.8125 11.734375 
Q 24.65625 6.203125 33.40625 6.203125 
Q 37.3125 6.203125 41.140625 7.25 
Q 44.96875 8.296875 48.78125 10.40625 
L 48.78125 2.09375 
Q 45.015625 0.34375 40.984375 -0.53125 
Q 36.96875 -1.421875 32.421875 -1.421875 
Q 20.0625 -1.421875 12.78125 6.34375 
Q 5.515625 14.109375 5.515625 27.296875 
Q 5.515625 40.671875 12.859375 48.328125 
Q 20.21875 56 33.015625 56 
Q 37.15625 56 41.109375 55.140625 
Q 45.0625 54.296875 48.78125 52.59375 
z
" id="DejaVuSans-63"/>
      <path d="M 18.3125 70.21875 
L 18.3125 54.6875 
L 36.8125 54.6875 
L 36.8125 47.703125 
L 18.3125 47.703125 
L 18.3125 18.015625 
Q 18.3125 11.328125 20.140625 9.421875 
Q 21.96875 7.515625 27.59375 7.515625 
L 36.8125 7.515625 
L 36.8125 0 
L 27.59375 0 
Q 17.1875 0 13.234375 3.875 
Q 9.28125 7.765625 9.28125 18.015625 
L 9.28125 47.703125 
L 2.6875 47.703125 
L 2.6875 54.6875 
L 9.28125 54.6875 
L 9.28125 70.21875 
z
" id="DejaVuSans-74"/>
      <path d="M 8.5 21.578125 
L 8.5 54.6875 
L 17.484375 54.6875 
L 17.484375 21.921875 
Q 17.484375 14.15625 20.5 10.265625 
Q 23.53125 6.390625 29.59375 6.390625 
Q 36.859375 6.390625 41.078125 11.03125 
Q 45.3125 15.671875 45.3125 23.6875 
L 45.3125 54.6875 
L 54.296875 54.6875 
L 54.296875 0 
L 45.3125 0 
L 45.3125 8.40625 
Q 42.046875 3.421875 37.71875 1 
Q 33.40625 -1.421875 27.6875 -1.421875 
Q 18.265625 -1.421875 13.375 4.4375 
Q 8.5 10.296875 8.5 21.578125 
z
M 31.109375 56 
z
" id="DejaVuSans-75"/>
      <path d="M 11.71875 12.40625 
L 22.015625 12.40625 
L 22.015625 4 
L 14.015625 -11.625 
L 7.71875 -11.625 
L 11.71875 4 
z
" id="DejaVuSans-2c"/>
      <path d="M 18.109375 8.203125 
L 18.109375 -20.796875 
L 9.078125 -20.796875 
L 9.078125 54.6875 
L 18.109375 54.6875 
L 18.109375 46.390625 
Q 20.953125 51.265625 25.265625 53.625 
Q 29.59375 56 35.59375 56 
Q 45.5625 56 51.78125 48.09375 
Q 58.015625 40.1875 58.015625 27.296875 
Q 58.015625 14.40625 51.78125 6.484375 
Q 45.5625 -1.421875 35.59375 -1.421875 
Q 29.59375 -1.421875 25.265625 0.953125 
Q 20.953125 3.328125 18.109375 8.203125 
z
M 48.6875 27.296875 
Q 48.6875 37.203125 44.609375 42.84375 
Q 40.53125 48.484375 33.40625 48.484375 
Q 26.265625 48.484375 22.1875 42.84375 
Q 18.109375 37.203125 18.109375 27.296875 
Q 18.109375 17.390625 22.1875 11.75 
Q 26.265625 6.109375 33.40625 6.109375 
Q 40.53125 6.109375 44.609375 11.75 
Q 48.6875 17.390625 48.6875 27.296875 
z
" id="DejaVuSans-70"/>
     </defs>
     <g transform="translate(16.139531 294.999375)rotate(-90)scale(0.17 -0.17)">
      <use xlink:href="#DejaVuSans-46"/>
      <use x="57.410156" xlink:href="#DejaVuSans-72"/>
      <use x="98.523438" xlink:href="#DejaVuSans-61"/>
      <use x="159.802734" xlink:href="#DejaVuSans-63"/>
      <use x="214.783203" xlink:href="#DejaVuSans-74"/>
      <use x="253.992188" xlink:href="#DejaVuSans-69"/>
      <use x="281.775391" xlink:href="#DejaVuSans-6f"/>
      <use x="342.957031" xlink:href="#DejaVuSans-6e"/>
      <use x="406.335938" xlink:href="#DejaVuSans-20"/>
      <use x="438.123047" xlink:href="#DejaVuSans-6f"/>
      <use x="499.304688" xlink:href="#DejaVuSans-66"/>
      <use x="534.509766" xlink:href="#DejaVuSans-20"/>
      <use x="566.296875" xlink:href="#DejaVuSans-66"/>
      <use x="601.501953" xlink:href="#DejaVuSans-75"/>
      <use x="664.880859" xlink:href="#DejaVuSans-6e"/>
      <use x="728.259766" xlink:href="#DejaVuSans-63"/>
      <use x="783.240234" xlink:href="#DejaVuSans-74"/>
      <use x="822.449219" xlink:href="#DejaVuSans-69"/>
      <use x="850.232422" xlink:href="#DejaVuSans-6f"/>
      <use x="911.414062" xlink:href="#DejaVuSans-6e"/>
      <use x="974.792969" xlink:href="#DejaVuSans-2c"/>
      <use x="1006.580078" xlink:href="#DejaVuSans-74"/>
      <use x="1045.789062" xlink:href="#DejaVuSans-61"/>
      <use x="1107.068359" xlink:href="#DejaVuSans-72"/>
      <use x="1148.166016" xlink:href="#DejaVuSans-67"/>
      <use x="1211.642578" xlink:href="#DejaVuSans-65"/>
      <use x="1273.166016" xlink:href="#DejaVuSans-74"/>
      <use x="1312.375" xlink:href="#DejaVuSans-20"/>
      <use x="1344.162109" xlink:href="#DejaVuSans-70"/>
      <use x="1407.638672" xlink:href="#DejaVuSans-61"/>
      <use x="1468.917969" xlink:href="#DejaVuSans-69"/>
      <use x="1496.701172" xlink:href="#DejaVuSans-72"/>
      <use x="1537.814453" xlink:href="#DejaVuSans-73"/>
     </g>
    </g>
   </g>
   <g id="line2d_37">
    <defs>
     <path d="M 0 1.5 
C 0.397805 1.5 0.77937 1.341951 1.06066 1.06066 
C 1.341951 0.77937 1.5 0.397805 1.5 0 
C 1.5 -0.397805 1.341951 -0.77937 1.06066 -1.06066 
C 0.77937 -1.341951 0.397805 -1.5 0 -1.5 
C -0.397805 -1.5 -0.77937 -1.341951 -1.06066 -1.06066 
C -1.341951 -0.77937 -1.5 -0.397805 -1.5 0 
C -1.5 0.397805 -1.341951 0.77937 -1.06066 1.06066 
C -0.77937 1.341951 -0.397805 1.5 0 1.5 
z
" id="m91051f37dd" style="stroke:#00bfbf;"/>
    </defs>
    <g>
     <use style="fill:#00bfbf;stroke:#00bfbf;" x="177.670666" xlink:href="#m91051f37dd" y="27.513663"/>
     <use style="fill:#00bfbf;stroke:#00bfbf;" x="177.670666" xlink:href="#m91051f37dd" y="27.513663"/>
    </g>
   </g>
   <g id="line2d_38">
    <path d="M 44.205749 294.88 
L 44.205749 279.152568 
L 56.12 279.152568 
L 56.12 272.861596 
L 68.034251 272.861596 
L 68.034251 272.337348 
L 75.003641 272.337348 
L 75.003641 271.288853 
L 77.653281 271.288853 
L 77.653281 266.570623 
L 79.948502 266.570623 
L 79.948502 264.473632 
L 81.973032 264.473632 
L 81.973032 263.425137 
L 90.753425 263.425137 
L 90.753425 262.900889 
L 91.862754 262.900889 
L 91.862754 261.852394 
L 98.100602 261.852394 
L 98.100602 260.279651 
L 99.533818 260.279651 
L 99.533818 259.231155 
L 100.856673 259.231155 
L 100.856673 258.706907 
L 101.481783 258.706907 
L 101.481783 257.658412 
L 102.084955 257.658412 
L 102.084955 254.512926 
L 103.231288 254.512926 
L 103.231288 253.46443 
L 103.777005 253.46443 
L 103.777005 252.415935 
L 104.819059 252.415935 
L 104.819059 249.794696 
L 105.801534 249.794696 
L 105.801534 248.221953 
L 108.85563 248.221953 
L 108.85563 246.124962 
L 109.250788 246.124962 
L 109.250788 245.600714 
L 110.014853 245.600714 
L 110.014853 241.93098 
L 113.396034 241.93098 
L 113.396034 241.406733 
L 116.220179 241.406733 
L 116.220179 239.309742 
L 118.417459 239.309742 
L 118.417459 238.785494 
L 120.769881 238.785494 
L 120.769881 238.261246 
L 123.189569 238.261246 
L 123.189569 237.736999 
L 128.39291 237.736999 
L 128.39291 236.688503 
L 132.073821 236.688503 
L 132.073821 234.067265 
L 135.532486 234.067265 
L 135.532486 233.543017 
L 136.278134 233.543017 
L 136.278134 230.397531 
L 136.67882 230.397531 
L 136.67882 229.873283 
L 138.410429 229.873283 
L 138.410429 229.349035 
L 138.553074 229.349035 
L 138.553074 228.30054 
L 138.694545 228.30054 
L 138.764847 226.727797 
L 144.648278 226.727797 
L 144.648278 226.203549 
L 145.139415 226.203549 
L 145.139415 225.155053 
L 145.989576 225.155053 
L 145.989576 222.009567 
L 146.309161 222.009567 
L 146.309161 219.912576 
L 146.622913 219.912576 
L 146.622913 219.388328 
L 148.313575 219.388328 
L 148.313575 216.76709 
L 149.443019 216.76709 
L 149.480672 215.194347 
L 150.502803 215.194347 
L 150.608797 213.621604 
L 151.026355 213.621604 
L 151.094972 211.524613 
L 151.930347 211.524613 
L 151.930347 209.95187 
L 152.124937 209.95187 
L 152.124937 208.903374 
L 153.458539 208.903374 
L 153.458539 207.330631 
L 153.666169 207.330631 
L 153.666169 206.282136 
L 154.696079 206.282136 
L 154.696079 205.23364 
L 156.587422 205.23364 
L 156.587422 204.709392 
L 157.222302 204.709392 
L 157.222302 202.088154 
L 157.554689 202.088154 
L 157.554689 201.563906 
L 157.765022 201.563906 
L 157.765022 201.039658 
L 158.155428 201.039658 
L 158.200781 199.466915 
L 158.358579 199.466915 
L 158.358579 190.030456 
L 158.559357 190.030456 
L 158.559357 186.88497 
L 158.888862 186.88497 
L 158.888862 185.836474 
L 159.062048 185.836474 
L 159.147992 181.642493 
L 159.613149 181.642493 
L 159.613149 180.06975 
L 159.799871 180.06975 
L 159.820493 172.730281 
L 160.167338 172.730281 
L 160.187524 171.681786 
L 160.665017 171.681786 
L 160.665017 165.390813 
L 160.995391 165.390813 
L 160.995391 164.866566 
L 161.110494 164.866566 
L 161.110494 163.81807 
L 161.262775 163.81807 
L 161.262775 162.769575 
L 161.803753 162.769575 
L 161.803753 162.245327 
L 162.077028 162.245327 
L 162.077028 152.808868 
L 163.026335 152.808868 
L 163.026335 145.4694 
L 163.614756 145.4694 
L 163.713637 137.605684 
L 164.421883 137.605684 
L 164.421883 135.508693 
L 164.780805 135.508693 
L 164.827073 126.072235 
L 165.58042 126.072235 
L 165.683302 114.538785 
L 165.712585 114.538785 
L 165.712585 106.150821 
L 165.930625 106.150821 
L 165.945063 101.956839 
L 166.117382 101.956839 
L 166.117382 89.374894 
L 166.61033 89.374894 
L 166.61033 88.850646 
L 166.899453 88.850646 
L 166.899453 82.035426 
L 168.301512 82.035426 
L 168.301512 73.647463 
L 168.687231 73.647463 
L 168.687231 72.598967 
L 168.822044 72.598967 
L 168.822044 72.074719 
L 169.586109 72.074719 
L 169.586109 67.35649 
L 169.725666 67.35649 
L 169.725666 65.259499 
L 170.103705 65.259499 
L 170.148968 61.065517 
L 170.418071 61.065517 
L 170.462515 59.492774 
L 170.606169 59.492774 
L 170.63915 57.395783 
L 170.726792 57.395783 
L 170.726792 49.532068 
L 171.147759 49.532068 
L 171.147759 48.483572 
L 171.391273 48.483572 
L 171.391273 47.959324 
L 172.091685 47.959324 
L 172.182285 44.813838 
L 172.24242 44.813838 
L 172.322274 42.716847 
L 172.871103 42.716847 
L 172.871103 42.192599 
L 173.072478 42.192599 
L 173.167548 39.047113 
L 173.252664 39.047113 
L 173.252664 38.522865 
L 173.393594 38.522865 
L 173.393594 37.998618 
L 173.551929 37.998618 
L 173.551929 35.901627 
L 173.763853 35.901627 
L 173.763853 35.377379 
L 174.000314 35.377379 
L 174.018369 33.280388 
L 174.242475 33.280388 
L 174.242475 31.707645 
L 174.880621 31.707645 
L 174.880621 30.134902 
L 175.454472 30.134902 
L 175.454472 29.610654 
L 177.656068 29.610654 
L 177.670666 27.513663 
L 333.168 27.513663 
L 333.168 27.513663 
" style="fill:none;stroke:#00bfbf;stroke-linecap:square;stroke-width:1.5;"/>
   </g>
   <g id="line2d_39">
    <defs>
     <path d="M -6 0 
L 6 0 
M 0 6 
L 0 -6 
" id="m0efd7eae1a" style="stroke:#00bfbf;stroke-width:1.5;"/>
    </defs>
    <g>
     <use style="fill-opacity:0;stroke:#00bfbf;stroke-width:1.5;" x="146.309161" xlink:href="#m0efd7eae1a" y="222.009567"/>
     <use style="fill-opacity:0;stroke:#00bfbf;stroke-width:1.5;" x="165.58042" xlink:href="#m0efd7eae1a" y="123.975244"/>
     <use style="fill-opacity:0;stroke:#00bfbf;stroke-width:1.5;" x="177.670666" xlink:href="#m0efd7eae1a" y="29.086407"/>
     <use style="fill-opacity:0;stroke:#00bfbf;stroke-width:1.5;" x="177.670666" xlink:href="#m0efd7eae1a" y="27.513663"/>
     <use style="fill-opacity:0;stroke:#00bfbf;stroke-width:1.5;" x="177.670666" xlink:href="#m0efd7eae1a" y="27.513663"/>
     <use style="fill-opacity:0;stroke:#00bfbf;stroke-width:1.5;" x="333.168" xlink:href="#m0efd7eae1a" y="27.513663"/>
    </g>
   </g>
   <g id="line2d_40">
    <path style="fill:none;stroke:#00bfbf;stroke-linecap:square;stroke-width:1.5;"/>
    <g/>
   </g>
   <g id="line2d_41">
    <defs>
     <path d="M 0 1.5 
C 0.397805 1.5 0.77937 1.341951 1.06066 1.06066 
C 1.341951 0.77937 1.5 0.397805 1.5 0 
C 1.5 -0.397805 1.341951 -0.77937 1.06066 -1.06066 
C 0.77937 -1.341951 0.397805 -1.5 0 -1.5 
C -0.397805 -1.5 -0.77937 -1.341951 -1.06066 -1.06066 
C -1.341951 -0.77937 -1.5 -0.397805 -1.5 0 
C -1.5 0.397805 -1.341951 0.77937 -1.06066 1.06066 
C -0.77937 1.341951 -0.397805 1.5 0 1.5 
z
" id="m0d3c8a907a" style="stroke:#008000;"/>
    </defs>
    <g>
     <use style="fill:#008000;stroke:#008000;" x="176.766975" xlink:href="#m0d3c8a907a" y="27.513663"/>
     <use style="fill:#008000;stroke:#008000;" x="176.766975" xlink:href="#m0d3c8a907a" y="27.513663"/>
    </g>
   </g>
   <g id="line2d_42">
    <path d="M 37.236359 294.88 
L 37.236359 285.443541 
L 49.15061 285.443541 
L 49.15061 282.822302 
L 56.12 282.822302 
L 56.12 280.725312 
L 61.064861 280.725312 
L 61.064861 280.201064 
L 64.900393 280.201064 
L 64.900393 279.676816 
L 68.034251 279.676816 
L 68.034251 278.628321 
L 70.68389 278.628321 
L 70.68389 278.104073 
L 72.979112 278.104073 
L 72.979112 276.53133 
L 76.814644 276.53133 
L 76.814644 276.007082 
L 79.948502 276.007082 
L 79.948502 275.482834 
L 81.324327 275.482834 
L 81.324327 271.8131 
L 82.598142 271.8131 
L 82.598142 267.619119 
L 83.784035 267.619119 
L 83.784035 267.094871 
L 87.847234 267.094871 
L 87.847234 265.522128 
L 93.887283 265.522128 
L 93.887283 264.99788 
L 101.481783 264.99788 
L 101.481783 264.473632 
L 104.819059 264.473632 
L 104.819059 263.949385 
L 105.801534 263.949385 
L 105.801534 263.425137 
L 109.76392 263.425137 
L 109.76392 259.755403 
L 110.014853 259.755403 
L 110.014853 259.231155 
L 110.746395 259.231155 
L 110.746395 258.706907 
L 112.122219 258.706907 
L 112.122219 257.658412 
L 112.98183 257.658412 
L 112.98183 256.609917 
L 114.959714 256.609917 
L 114.959714 256.085669 
L 118.795247 256.085669 
L 118.795247 255.561421 
L 123.476531 255.561421 
L 123.476531 255.037173 
L 125.000572 255.037173 
L 125.000572 253.988678 
L 126.207287 253.988678 
L 126.207287 251.891687 
L 128.047399 251.891687 
L 128.047399 250.318944 
L 129.308744 250.318944 
L 129.308744 248.746201 
L 130.559378 248.746201 
L 130.559378 248.221953 
L 132.347749 248.221953 
L 132.347749 247.173458 
L 132.882847 247.173458 
L 132.948578 244.552219 
L 133.337771 244.552219 
L 133.337771 244.027971 
L 136.060554 244.027971 
L 136.060554 242.979476 
L 136.223997 242.979476 
L 136.223997 242.455228 
L 136.3859 242.455228 
L 136.3859 240.358237 
L 136.757848 240.358237 
L 136.862657 237.212751 
L 138.505658 237.212751 
L 138.505658 236.688503 
L 140.771177 236.688503 
L 140.771177 236.164255 
L 141.100945 236.164255 
L 141.100945 234.591512 
L 142.398074 234.591512 
L 142.398074 234.067265 
L 143.426761 234.067265 
L 143.426761 233.543017 
L 144.159788 233.543017 
L 144.159788 231.970274 
L 144.329806 231.970274 
L 144.329806 230.921778 
L 147.446737 230.921778 
L 147.503094 229.873283 
L 147.643181 229.873283 
L 147.643181 228.30054 
L 147.919977 228.30054 
L 147.974805 226.727797 
L 149.791281 226.727797 
L 149.791281 225.679301 
L 149.962801 225.679301 
L 149.962801 224.106558 
L 150.084276 224.106558 
L 150.084276 223.58231 
L 150.632262 223.58231 
L 150.632262 222.533815 
L 151.094972 222.533815 
L 151.094972 218.864081 
L 151.276624 218.864081 
L 151.276624 216.242842 
L 152.242778 216.242842 
L 152.242778 215.718594 
L 152.726997 215.718594 
L 152.726997 215.194347 
L 153.754391 215.194347 
L 153.754391 214.670099 
L 154.631164 214.670099 
L 154.631164 212.04886 
L 154.852717 212.04886 
L 154.852717 211.524613 
L 155.233695 211.524613 
L 155.233695 204.185145 
L 155.588844 204.185145 
L 155.588844 203.136649 
L 156.176252 203.136649 
L 156.176252 202.612401 
L 156.328439 202.612401 
L 156.328439 202.088154 
L 156.495971 202.088154 
L 156.495971 200.515411 
L 157.1823 200.515411 
L 157.198312 199.466915 
L 158.011017 199.466915 
L 158.087174 196.845677 
L 158.162995 196.845677 
L 158.162995 196.321429 
L 158.298636 196.321429 
L 158.298636 195.797181 
L 158.596282 195.797181 
L 158.669895 193.70019 
L 158.816182 193.70019 
L 158.816182 193.175943 
L 159.133698 193.175943 
L 159.133698 192.127447 
L 159.261918 192.127447 
L 159.261918 190.554704 
L 159.984587 190.554704 
L 159.984587 190.030456 
L 160.361486 190.030456 
L 160.361486 189.506209 
L 160.821278 189.506209 
L 160.860123 182.16674 
L 161.394923 182.16674 
L 161.482461 172.730281 
L 161.864858 172.730281 
L 161.864858 172.206034 
L 162.428863 172.206034 
L 162.428863 170.633291 
L 162.546514 170.633291 
L 162.640057 166.439309 
L 163.23599 166.439309 
L 163.325865 159.099841 
L 163.724588 159.099841 
L 163.724588 158.051345 
L 164.028436 158.051345 
L 164.071407 151.760373 
L 164.157029 151.760373 
L 164.157029 151.236125 
L 164.327005 151.236125 
L 164.327005 150.18763 
L 164.484845 150.18763 
L 164.484845 141.275418 
L 164.724085 141.275418 
L 164.796241 132.363207 
L 164.970227 132.363207 
L 164.970227 125.547987 
L 165.342922 125.547987 
L 165.402605 116.111528 
L 165.71746 116.111528 
L 165.71746 114.014537 
L 166.226577 114.014537 
L 166.226577 111.393298 
L 166.480253 111.393298 
L 166.480253 104.05383 
L 166.748614 104.05383 
L 166.757794 91.471885 
L 166.9131 91.471885 
L 166.931279 83.608169 
L 167.228497 83.608169 
L 167.335314 80.462683 
L 167.564499 80.462683 
L 167.634407 76.268701 
L 167.686652 76.268701 
L 167.686652 66.307995 
L 167.902647 66.307995 
L 167.902647 65.259499 
L 168.509963 65.259499 
L 168.518249 56.871536 
L 168.959846 56.871536 
L 168.959846 53.726049 
L 169.200362 53.726049 
L 169.263936 52.153306 
L 169.779633 52.153306 
L 169.779633 51.629058 
L 170.265349 51.629058 
L 170.265349 49.532068 
L 170.473608 49.532068 
L 170.473608 49.00782 
L 170.59149 49.00782 
L 170.59149 47.959324 
L 170.75227 47.959324 
L 170.75227 46.386581 
L 171.548248 46.386581 
L 171.548248 45.338086 
L 171.959971 45.338086 
L 172.01413 43.765343 
L 172.999233 43.765343 
L 172.999233 43.241095 
L 173.126416 43.241095 
L 173.189656 42.192599 
L 174.111354 42.192599 
L 174.111354 33.280388 
L 174.295828 33.280388 
L 174.295828 28.037911 
L 176.766975 28.037911 
L 176.766975 27.513663 
L 333.168 27.513663 
L 333.168 27.513663 
" style="fill:none;stroke:#008000;stroke-linecap:square;stroke-width:1.5;"/>
   </g>
   <g id="line2d_43">
    <defs>
     <path d="M -0 6 
L 6 -6 
L -6 -6 
z
" id="mf42987ba62" style="stroke:#008000;stroke-linejoin:miter;stroke-width:1.5;"/>
    </defs>
    <g>
     <use style="fill-opacity:0;stroke:#008000;stroke-linejoin:miter;stroke-width:1.5;" x="138.505658" xlink:href="#mf42987ba62" y="236.688503"/>
     <use style="fill-opacity:0;stroke:#008000;stroke-linejoin:miter;stroke-width:1.5;" x="166.226577" xlink:href="#mf42987ba62" y="111.393298"/>
     <use style="fill-opacity:0;stroke:#008000;stroke-linejoin:miter;stroke-width:1.5;" x="176.766975" xlink:href="#mf42987ba62" y="28.037911"/>
     <use style="fill-opacity:0;stroke:#008000;stroke-linejoin:miter;stroke-width:1.5;" x="176.766975" xlink:href="#mf42987ba62" y="27.513663"/>
     <use style="fill-opacity:0;stroke:#008000;stroke-linejoin:miter;stroke-width:1.5;" x="176.766975" xlink:href="#mf42987ba62" y="27.513663"/>
     <use style="fill-opacity:0;stroke:#008000;stroke-linejoin:miter;stroke-width:1.5;" x="333.168" xlink:href="#mf42987ba62" y="27.513663"/>
    </g>
   </g>
   <g id="line2d_44">
    <path style="fill:none;stroke:#008000;stroke-linecap:square;stroke-width:1.5;"/>
    <g/>
   </g>
   <g id="line2d_45">
    <defs>
     <path d="M 0 1.5 
C 0.397805 1.5 0.77937 1.341951 1.06066 1.06066 
C 1.341951 0.77937 1.5 0.397805 1.5 0 
C 1.5 -0.397805 1.341951 -0.77937 1.06066 -1.06066 
C 0.77937 -1.341951 0.397805 -1.5 0 -1.5 
C -0.397805 -1.5 -0.77937 -1.341951 -1.06066 -1.06066 
C -1.341951 -0.77937 -1.5 -0.397805 -1.5 0 
C -1.5 0.397805 -1.341951 0.77937 -1.06066 1.06066 
C -0.77937 1.341951 -0.397805 1.5 0 1.5 
z
" id="md3bc4ca7af" style="stroke:#0000ff;"/>
    </defs>
    <g>
     <use style="fill:#0000ff;stroke:#0000ff;" x="219.031449" xlink:href="#md3bc4ca7af" y="27.513663"/>
     <use style="fill:#0000ff;stroke:#0000ff;" x="219.031449" xlink:href="#md3bc4ca7af" y="27.513663"/>
    </g>
   </g>
   <g id="line2d_46">
    <path d="M 28.455965 294.88 
L 28.455965 285.967789 
L 40.370217 285.967789 
L 40.370217 284.395046 
L 47.339607 284.395046 
L 47.339607 283.870798 
L 56.12 283.870798 
L 56.12 283.34655 
L 64.198719 283.34655 
L 64.198719 282.822302 
L 72.543934 282.822302 
L 72.543934 280.725312 
L 80.787138 280.725312 
L 80.787138 280.201064 
L 88.556144 280.201064 
L 88.556144 279.676816 
L 95.351029 279.676816 
L 95.351029 278.104073 
L 99.11626 278.104073 
L 99.11626 274.958587 
L 99.67078 274.958587 
L 99.67078 272.337348 
L 108.935392 272.337348 
L 108.935392 270.764605 
L 113.396034 270.764605 
L 113.396034 269.191862 
L 114.696138 269.191862 
L 114.696138 267.619119 
L 116.73331 267.619119 
L 116.73331 266.570623 
L 119.867168 266.570623 
L 119.867168 265.522128 
L 120.118102 265.522128 
L 120.118102 264.99788 
L 120.689748 264.99788 
L 120.689748 263.949385 
L 123.567356 263.949385 
L 123.567356 263.425137 
L 123.903739 263.425137 
L 123.970233 262.376641 
L 127.115148 262.376641 
L 127.115148 261.852394 
L 129.292521 261.852394 
L 129.341145 259.755403 
L 130.468672 259.755403 
L 130.468672 258.18266 
L 135.616951 258.18266 
L 135.616951 257.658412 
L 135.851269 257.658412 
L 135.851269 257.134164 
L 136.567566 257.134164 
L 136.567566 256.609917 
L 137.255203 256.609917 
L 137.255203 255.037173 
L 138.004608 255.037173 
L 138.004608 254.512926 
L 138.46763 254.512926 
L 138.46763 253.46443 
L 138.581462 253.46443 
L 138.581462 252.940182 
L 138.974042 252.940182 
L 138.974042 252.415935 
L 139.139583 252.415935 
L 139.139583 251.891687 
L 140.687737 251.891687 
L 140.762851 250.318944 
L 141.303883 250.318944 
L 141.303883 249.794696 
L 143.547583 249.794696 
L 143.547583 248.221953 
L 144.07071 248.221953 
L 144.07071 247.697705 
L 144.954432 247.697705 
L 144.954432 247.173458 
L 145.226349 247.173458 
L 145.284061 245.076467 
L 145.550852 245.076467 
L 145.550852 244.552219 
L 145.77628 244.552219 
L 145.77628 244.027971 
L 146.035596 244.027971 
L 146.090659 242.455228 
L 146.272936 242.455228 
L 146.272936 241.93098 
L 146.649541 241.93098 
L 146.649541 241.406733 
L 146.983311 241.406733 
L 146.983311 240.882485 
L 147.831886 240.882485 
L 147.831886 240.358237 
L 148.719342 240.358237 
L 148.719342 239.309742 
L 149.169454 239.309742 
L 149.169454 238.261246 
L 150.05035 238.261246 
L 150.05035 237.736999 
L 151.217797 237.736999 
L 151.231391 236.164255 
L 152.272646 236.164255 
L 152.272646 235.11576 
L 152.739448 235.11576 
L 152.739448 234.067265 
L 153.530009 234.067265 
L 153.530009 233.543017 
L 153.964296 233.543017 
L 153.964296 232.494521 
L 154.24024 232.494521 
L 154.24024 231.970274 
L 154.489355 231.970274 
L 154.523047 230.921778 
L 154.801276 230.921778 
L 154.801276 229.873283 
L 158.385485 229.873283 
L 158.385485 228.824787 
L 158.6346 228.824787 
L 158.669895 227.252044 
L 159.820493 227.252044 
L 159.902736 225.679301 
L 160.041651 225.679301 
L 160.041651 224.630806 
L 160.195592 224.630806 
L 160.28409 222.009567 
L 160.813499 222.009567 
L 160.867881 217.291338 
L 160.929822 217.291338 
L 160.929822 216.242842 
L 161.129603 216.242842 
L 161.129603 215.194347 
L 161.544716 215.194347 
L 161.552172 212.573108 
L 161.693215 212.573108 
L 161.693215 211.000365 
L 161.825776 211.000365 
L 161.825776 208.379126 
L 162.21026 208.379126 
L 162.21026 207.330631 
L 162.823324 207.330631 
L 162.823324 206.806383 
L 163.274244 206.806383 
L 163.274244 206.282136 
L 163.667563 206.282136 
L 163.667563 205.757888 
L 164.21884 205.757888 
L 164.21884 197.369924 
L 164.339686 197.369924 
L 164.440795 188.981961 
L 164.75917 188.981961 
L 164.827073 182.690988 
L 164.913109 182.690988 
L 164.986512 180.593997 
L 165.126332 180.593997 
L 165.138437 174.303025 
L 165.44426 174.303025 
L 165.462082 162.769575 
L 165.609878 162.769575 
L 165.609878 161.721079 
L 165.727207 161.721079 
L 165.727207 161.196832 
L 166.091644 161.196832 
L 166.091644 160.672584 
L 166.262507 160.672584 
L 166.262507 160.148336 
L 166.375479 160.148336 
L 166.375479 157.527098 
L 166.858446 157.527098 
L 166.902183 155.430107 
L 167.129994 155.430107 
L 167.129994 153.857364 
L 167.392013 153.857364 
L 167.392013 152.808868 
L 167.560996 152.808868 
L 167.560996 152.28462 
L 168.180287 152.28462 
L 168.180287 147.042143 
L 168.376846 147.042143 
L 168.451851 136.557189 
L 168.665069 136.557189 
L 168.665069 127.12073 
L 168.79272 127.12073 
L 168.822044 126.072235 
L 169.17965 126.072235 
L 169.17965 125.547987 
L 169.426563 125.547987 
L 169.426563 125.023739 
L 169.919161 125.023739 
L 169.919161 123.975244 
L 170.069679 123.975244 
L 170.069679 121.878253 
L 170.200874 121.878253 
L 170.200874 120.829757 
L 170.928847 120.829757 
L 170.928847 120.30551 
L 171.493992 120.30551 
L 171.493992 118.732766 
L 173.90067 118.732766 
L 173.90067 110.869051 
L 174.292276 110.869051 
L 174.292276 110.344803 
L 176.01139 110.344803 
L 176.01139 109.820555 
L 176.247598 109.820555 
L 176.260274 107.723564 
L 176.402238 107.723564 
L 176.402238 97.762858 
L 176.518092 97.762858 
L 176.518092 96.714362 
L 177.037556 96.714362 
L 177.037556 95.665867 
L 188.074447 95.665867 
L 188.074447 95.141619 
L 188.374514 95.141619 
L 188.374514 94.617371 
L 188.545872 94.617371 
L 188.545872 94.093124 
L 189.241531 94.093124 
L 189.241531 93.568876 
L 189.389748 93.568876 
L 189.389748 93.044628 
L 190.211017 93.044628 
L 190.282622 91.996133 
L 190.398521 91.996133 
L 190.398521 91.471885 
L 191.004236 91.471885 
L 191.033768 84.656665 
L 191.11939 84.656665 
L 191.201932 79.414188 
L 191.269533 79.414188 
L 191.306535 76.268701 
L 191.481213 76.268701 
L 191.572441 74.17171 
L 191.594524 74.17171 
L 191.594524 71.550472 
L 191.763744 71.550472 
L 191.763744 71.026224 
L 191.917307 71.026224 
L 191.979619 66.832242 
L 192.040441 66.832242 
L 192.08087 64.211004 
L 192.371171 64.211004 
L 192.447928 61.065517 
L 192.530492 61.065517 
L 192.530492 60.54127 
L 192.650547 60.54127 
L 192.650547 60.017022 
L 193.543741 60.017022 
L 193.543741 55.82304 
L 193.861813 55.82304 
L 193.861813 55.298792 
L 194.38177 55.298792 
L 194.38177 53.201802 
L 200.269968 53.201802 
L 200.269968 52.677554 
L 201.023535 52.677554 
L 201.071471 50.056315 
L 201.155782 50.056315 
L 201.171405 49.00782 
L 201.275197 49.00782 
L 201.275197 48.483572 
L 201.523227 48.483572 
L 201.593751 45.338086 
L 201.828673 45.338086 
L 201.876559 44.28959 
L 202.472075 44.28959 
L 202.547058 41.144104 
L 202.975491 41.144104 
L 202.975491 40.095609 
L 207.288918 40.095609 
L 207.364806 37.998618 
L 207.673713 37.998618 
L 207.698147 35.377379 
L 207.848563 35.377379 
L 207.86318 34.328884 
L 208.318588 34.328884 
L 208.318588 33.804636 
L 208.678361 33.804636 
L 208.678361 33.280388 
L 211.879435 33.280388 
L 211.938361 30.65915 
L 212.022419 30.65915 
L 212.022419 30.134902 
L 212.176772 30.134902 
L 212.19362 29.086407 
L 216.37374 29.086407 
L 216.37374 28.562159 
L 218.584502 28.562159 
L 218.584502 28.037911 
L 219.031449 28.037911 
L 219.031449 27.513663 
L 333.168 27.513663 
L 333.168 27.513663 
" style="fill:none;stroke:#0000ff;stroke-linecap:square;stroke-width:1.5;"/>
   </g>
   <g id="line2d_47">
    <defs>
     <path d="M 0 -6 
L -1.347084 -1.854102 
L -5.706339 -1.854102 
L -2.179628 0.708204 
L -3.526712 4.854102 
L -0 2.291796 
L 3.526712 4.854102 
L 2.179628 0.708204 
L 5.706339 -1.854102 
L 1.347084 -1.854102 
z
" id="m043f70a4e4" style="stroke:#0000ff;stroke-linejoin:bevel;stroke-width:1.5;"/>
    </defs>
    <g>
     <use style="fill-opacity:0;stroke:#0000ff;stroke-linejoin:bevel;stroke-width:1.5;" x="148.719342" xlink:href="#m043f70a4e4" y="239.309742"/>
     <use style="fill-opacity:0;stroke:#0000ff;stroke-linejoin:bevel;stroke-width:1.5;" x="176.402238" xlink:href="#m043f70a4e4" y="107.723564"/>
     <use style="fill-opacity:0;stroke:#0000ff;stroke-linejoin:bevel;stroke-width:1.5;" x="219.031449" xlink:href="#m043f70a4e4" y="28.037911"/>
     <use style="fill-opacity:0;stroke:#0000ff;stroke-linejoin:bevel;stroke-width:1.5;" x="219.031449" xlink:href="#m043f70a4e4" y="27.513663"/>
     <use style="fill-opacity:0;stroke:#0000ff;stroke-linejoin:bevel;stroke-width:1.5;" x="219.031449" xlink:href="#m043f70a4e4" y="27.513663"/>
     <use style="fill-opacity:0;stroke:#0000ff;stroke-linejoin:bevel;stroke-width:1.5;" x="333.168" xlink:href="#m043f70a4e4" y="27.513663"/>
    </g>
   </g>
   <g id="line2d_48">
    <path style="fill:none;stroke:#0000ff;stroke-linecap:square;stroke-width:1.5;"/>
    <g/>
   </g>
   <g id="line2d_49">
    <path clip-path="url(#peda31a1e1b)" d="M 186.941843 95.665867 
" style="fill:none;stroke:#0000ff;stroke-linecap:square;stroke-width:1.5;"/>
    <defs>
     <path d="M -12 12 
L 12 -12 
M -12 -12 
L 12 12 
" id="m6e84c3098f" style="stroke:#0000ff;"/>
    </defs>
    <g clip-path="url(#peda31a1e1b)">
     <use style="fill:#0000ff;stroke:#0000ff;" x="186.941843" xlink:href="#m6e84c3098f" y="95.665867"/>
    </g>
   </g>
   <g id="line2d_50">
    <defs>
     <path d="M 0 1.5 
C 0.397805 1.5 0.77937 1.341951 1.06066 1.06066 
C 1.341951 0.77937 1.5 0.397805 1.5 0 
C 1.5 -0.397805 1.341951 -0.77937 1.06066 -1.06066 
C 0.77937 -1.341951 0.397805 -1.5 0 -1.5 
C -0.397805 -1.5 -0.77937 -1.341951 -1.06066 -1.06066 
C -1.341951 -0.77937 -1.5 -0.397805 -1.5 0 
C -1.5 0.397805 -1.341951 0.77937 -1.06066 1.06066 
C -0.77937 1.341951 -0.397805 1.5 0 1.5 
z
" id="m4daf0fea45" style="stroke:#000000;"/>
    </defs>
    <g>
     <use style="stroke:#000000;" x="219.466683" xlink:href="#m4daf0fea45" y="242.455228"/>
     <use style="stroke:#000000;" x="219.466683" xlink:href="#m4daf0fea45" y="242.455228"/>
    </g>
   </g>
   <g id="line2d_51">
    <path d="M 92.287186 294.88 
L 92.287186 293.307257 
L 100.207968 293.307257 
L 100.207968 292.783009 
L 105.119742 292.783009 
L 105.119742 292.258761 
L 107.783569 292.258761 
L 107.783569 290.686018 
L 108.694987 290.686018 
L 108.694987 290.161771 
L 109.406343 290.161771 
L 109.406343 289.637523 
L 110.014853 289.637523 
L 110.014853 289.113275 
L 111.855724 289.113275 
L 111.855724 288.589027 
L 113.639848 288.589027 
L 113.700266 287.540532 
L 114.922307 287.540532 
L 114.922307 286.492036 
L 116.783791 286.492036 
L 116.783791 285.967789 
L 119.223324 285.967789 
L 119.223324 285.443541 
L 120.968596 285.443541 
L 120.968596 284.919293 
L 121.397846 284.919293 
L 121.397846 283.870798 
L 121.627542 283.870798 
L 121.627542 283.34655 
L 123.499282 283.34655 
L 123.499282 282.822302 
L 124.780403 282.822302 
L 124.780403 281.773807 
L 125.094073 281.773807 
L 125.187069 280.725312 
L 126.667211 280.725312 
L 126.667211 279.676816 
L 127.792487 279.676816 
L 127.792487 279.152568 
L 129.31685 279.152568 
L 129.389632 277.579825 
L 131.990784 277.579825 
L 131.990784 277.055578 
L 132.135837 277.055578 
L 132.238701 275.482834 
L 134.946845 275.482834 
L 134.946845 274.434339 
L 135.515543 274.434339 
L 135.515543 273.910091 
L 135.81799 273.910091 
L 135.81799 273.385844 
L 137.070377 273.385844 
L 137.070377 271.8131 
L 137.513684 271.8131 
L 137.513684 270.764605 
L 138.862788 270.764605 
L 138.862788 269.191862 
L 139.08458 269.191862 
L 139.08458 268.143366 
L 139.970373 268.143366 
L 139.970373 267.094871 
L 140.178407 267.094871 
L 140.178407 266.570623 
L 140.812746 266.570623 
L 140.812746 265.522128 
L 142.360172 265.522128 
L 142.360172 264.99788 
L 142.776273 264.99788 
L 142.776273 264.473632 
L 143.483724 264.473632 
L 143.483724 263.425137 
L 144.467976 263.425137 
L 144.467976 262.900889 
L 145.484542 262.900889 
L 145.484542 261.328146 
L 150.360453 261.328146 
L 150.360453 260.279651 
L 150.707138 260.279651 
L 150.707138 259.231155 
L 152.412754 259.231155 
L 152.412754 258.18266 
L 152.739448 258.18266 
L 152.832544 256.609917 
L 153.320717 256.609917 
L 153.320717 256.085669 
L 154.718279 256.085669 
L 154.718279 255.561421 
L 156.42748 255.561421 
L 156.42748 254.512926 
L 157.063347 254.512926 
L 157.063347 253.988678 
L 177.444477 253.988678 
L 177.444477 253.46443 
L 179.112809 253.46443 
L 179.112809 252.940182 
L 179.626967 252.940182 
L 179.626967 252.415935 
L 188.336114 252.415935 
L 188.336114 251.891687 
L 190.506731 251.891687 
L 190.506731 251.367439 
L 194.747087 251.367439 
L 194.755189 250.318944 
L 195.082561 250.318944 
L 195.082561 249.270448 
L 195.249711 249.270448 
L 195.249711 248.746201 
L 200.381666 248.746201 
L 200.381666 248.221953 
L 200.730792 248.221953 
L 200.730792 247.697705 
L 203.403956 247.697705 
L 203.403956 247.173458 
L 203.590041 247.173458 
L 203.590041 246.64921 
L 203.859881 246.64921 
L 203.859881 246.124962 
L 206.276693 246.124962 
L 206.276693 245.600714 
L 206.577386 245.600714 
L 206.577386 245.076467 
L 211.337333 245.076467 
L 211.337333 244.552219 
L 213.299779 244.552219 
L 213.299779 244.027971 
L 215.060954 244.027971 
L 215.060954 243.503724 
L 216.658329 243.503724 
L 216.658329 242.979476 
L 219.466683 242.979476 
L 219.466683 242.455228 
L 333.168 242.455228 
L 333.168 242.455228 
" style="fill:none;stroke:#000000;stroke-linecap:square;stroke-width:1.5;"/>
   </g>
   <g id="line2d_52">
    <defs>
     <path d="M 0 6 
C 1.591219 6 3.117479 5.367802 4.242641 4.242641 
C 5.367802 3.117479 6 1.591219 6 0 
C 6 -1.591219 5.367802 -3.117479 4.242641 -4.242641 
C 3.117479 -5.367802 1.591219 -6 0 -6 
C -1.591219 -6 -3.117479 -5.367802 -4.242641 -4.242641 
C -5.367802 -3.117479 -6 -1.591219 -6 0 
C -6 1.591219 -5.367802 3.117479 -4.242641 4.242641 
C -3.117479 5.367802 -1.591219 6 0 6 
z
" id="m625d65c40a" style="stroke:#000000;stroke-width:1.5;"/>
    </defs>
    <g>
     <use style="fill-opacity:0;stroke:#000000;stroke-width:1.5;" x="123.499282" xlink:href="#m625d65c40a" y="282.822302"/>
     <use style="fill-opacity:0;stroke:#000000;stroke-width:1.5;" x="190.506731" xlink:href="#m625d65c40a" y="251.891687"/>
     <use style="fill-opacity:0;stroke:#000000;stroke-width:1.5;" x="219.466683" xlink:href="#m625d65c40a" y="242.979476"/>
     <use style="fill-opacity:0;stroke:#000000;stroke-width:1.5;" x="219.466683" xlink:href="#m625d65c40a" y="242.455228"/>
     <use style="fill-opacity:0;stroke:#000000;stroke-width:1.5;" x="333.168" xlink:href="#m625d65c40a" y="242.455228"/>
    </g>
   </g>
   <g id="line2d_53">
    <path style="fill:none;stroke:#000000;stroke-linecap:square;stroke-width:1.5;"/>
    <g/>
   </g>
   <g id="line2d_54">
    <path clip-path="url(#peda31a1e1b)" d="M 175.027591 253.988678 
" style="fill:none;stroke:#000000;stroke-linecap:square;stroke-width:1.5;"/>
    <defs>
     <path d="M -12 12 
L 12 -12 
M -12 -12 
L 12 12 
" id="m0240f11c54" style="stroke:#000000;"/>
    </defs>
    <g clip-path="url(#peda31a1e1b)">
     <use style="stroke:#000000;" x="175.027591" xlink:href="#m0240f11c54" y="253.988678"/>
    </g>
   </g>
   <g id="line2d_55">
    <defs>
     <path d="M 0 1.5 
C 0.397805 1.5 0.77937 1.341951 1.06066 1.06066 
C 1.341951 0.77937 1.5 0.397805 1.5 0 
C 1.5 -0.397805 1.341951 -0.77937 1.06066 -1.06066 
C 0.77937 -1.341951 0.397805 -1.5 0 -1.5 
C -0.397805 -1.5 -0.77937 -1.341951 -1.06066 -1.06066 
C -1.341951 -0.77937 -1.5 -0.397805 -1.5 0 
C -1.5 0.397805 -1.341951 0.77937 -1.06066 1.06066 
C -0.77937 1.341951 -0.397805 1.5 0 1.5 
z
" id="m521ad59848" style="stroke:#ff0000;"/>
    </defs>
    <g>
     <use style="fill:#ff0000;stroke:#ff0000;" x="229.074661" xlink:href="#m521ad59848" y="273.910091"/>
     <use style="fill:#ff0000;stroke:#ff0000;" x="229.074661" xlink:href="#m521ad59848" y="273.910091"/>
    </g>
   </g>
   <g id="line2d_56">
    <path d="M 120.15957 294.88 
L 120.15957 294.355752 
L 121.985063 294.355752 
L 121.985063 293.831505 
L 122.588877 293.831505 
L 122.588877 293.307257 
L 124.984939 293.307257 
L 124.984939 292.783009 
L 125.629588 292.783009 
L 125.629588 291.734514 
L 126.01687 291.734514 
L 126.01687 291.210266 
L 127.792487 291.210266 
L 127.792487 290.686018 
L 131.760342 290.686018 
L 131.760342 289.113275 
L 133.541793 289.113275 
L 133.541793 288.589027 
L 133.68381 288.589027 
L 133.68381 287.540532 
L 134.001435 287.540532 
L 134.001435 287.016284 
L 135.319489 287.016284 
L 135.319489 285.967789 
L 136.261911 285.967789 
L 136.261911 285.443541 
L 142.456658 285.443541 
L 142.456658 284.395046 
L 147.848437 284.395046 
L 147.848437 282.822302 
L 150.912534 282.822302 
L 150.912534 281.773807 
L 151.527754 281.773807 
L 151.527754 281.249559 
L 165.102097 281.249559 
L 165.102097 280.725312 
L 165.689163 280.725312 
L 165.689163 280.201064 
L 165.94795 280.201064 
L 165.94795 279.676816 
L 166.848864 279.676816 
L 166.848864 279.152568 
L 177.603414 279.152568 
L 177.603414 278.628321 
L 183.333885 278.628321 
L 183.333885 277.579825 
L 195.050474 277.579825 
L 195.050474 276.53133 
L 203.383864 276.53133 
L 203.383864 276.007082 
L 214.064475 276.007082 
L 214.064475 275.482834 
L 219.384599 275.482834 
L 219.384599 274.434339 
L 229.074661 274.434339 
L 229.074661 273.910091 
L 333.168 273.910091 
" style="fill:none;stroke:#ff0000;stroke-linecap:square;stroke-width:1.5;"/>
   </g>
   <g id="line2d_57">
    <defs>
     <path d="M -6 6 
L 6 6 
L 6 -6 
L -6 -6 
z
" id="m50346b15fd" style="stroke:#ff0000;stroke-linejoin:miter;stroke-width:1.5;"/>
    </defs>
    <g>
     <use style="fill-opacity:0;stroke:#ff0000;stroke-linejoin:miter;stroke-width:1.5;" x="166.848864" xlink:href="#m50346b15fd" y="279.676816"/>
     <use style="fill-opacity:0;stroke:#ff0000;stroke-linejoin:miter;stroke-width:1.5;" x="229.074661" xlink:href="#m50346b15fd" y="274.434339"/>
     <use style="fill-opacity:0;stroke:#ff0000;stroke-linejoin:miter;stroke-width:1.5;" x="229.074661" xlink:href="#m50346b15fd" y="273.910091"/>
     <use style="fill-opacity:0;stroke:#ff0000;stroke-linejoin:miter;stroke-width:1.5;" x="229.074661" xlink:href="#m50346b15fd" y="273.910091"/>
     <use style="fill-opacity:0;stroke:#ff0000;stroke-linejoin:miter;stroke-width:1.5;" x="333.168" xlink:href="#m50346b15fd" y="273.910091"/>
    </g>
   </g>
   <g id="line2d_58">
    <path style="fill:none;stroke:#ff0000;stroke-linecap:square;stroke-width:1.5;"/>
    <g/>
   </g>
   <g id="line2d_59">
    <path clip-path="url(#peda31a1e1b)" d="M 175.026741 279.152568 
" style="fill:none;stroke:#ff0000;stroke-linecap:square;stroke-width:1.5;"/>
    <defs>
     <path d="M -12 12 
L 12 -12 
M -12 -12 
L 12 12 
" id="mb39fd28f05" style="stroke:#ff0000;"/>
    </defs>
    <g clip-path="url(#peda31a1e1b)">
     <use style="fill:#ff0000;stroke:#ff0000;" x="175.026741" xlink:href="#mb39fd28f05" y="279.152568"/>
    </g>
   </g>
   <g id="line2d_60">
    <path clip-path="url(#peda31a1e1b)" d="M 56.12 294.88 
L 56.12 294.88 
L 56.12 294.88 
L 56.12 294.88 
L 333.168 294.88 
" style="fill:none;stroke:#bf00bf;stroke-linecap:square;stroke-width:1.5;"/>
   </g>
   <g id="line2d_61">
    <defs>
     <path d="M -0 8.485281 
L 8.485281 0 
L 0 -8.485281 
L -8.485281 -0 
z
" id="md887f4ce14" style="stroke:#bf00bf;stroke-linejoin:miter;stroke-width:1.5;"/>
    </defs>
    <g clip-path="url(#peda31a1e1b)">
     <use style="fill-opacity:0;stroke:#bf00bf;stroke-linejoin:miter;stroke-width:1.5;" x="56.12" xlink:href="#md887f4ce14" y="294.88"/>
    </g>
   </g>
   <g id="line2d_62">
    <path clip-path="url(#peda31a1e1b)" style="fill:none;stroke:#bf00bf;stroke-linecap:square;stroke-width:1.5;"/>
    <g clip-path="url(#peda31a1e1b)">
     <use style="fill-opacity:0;stroke:#bf00bf;stroke-linejoin:miter;stroke-width:1.5;" x="-1" xlink:href="#md887f4ce14" y="562.246337"/>
     <use style="fill-opacity:0;stroke:#bf00bf;stroke-linejoin:miter;stroke-width:1.5;" x="333.168" xlink:href="#md887f4ce14" y="562.246337"/>
    </g>
   </g>
   <g id="line2d_63">
    <path d="M 333.168 294.88 
L 363.64328 289.532673 
" style="fill:none;stroke:#bf00bf;stroke-linecap:square;stroke-width:1.5;"/>
    <g>
     <use style="fill-opacity:0;stroke:#bf00bf;stroke-linejoin:miter;stroke-width:1.5;" x="333.168" xlink:href="#md887f4ce14" y="294.88"/>
     <use style="fill-opacity:0;stroke:#bf00bf;stroke-linejoin:miter;stroke-width:1.5;" x="363.64328" xlink:href="#md887f4ce14" y="289.532673"/>
    </g>
   </g>
   <g id="line2d_64">
    <path d="M 333.168 273.910091 
L 363.64328 238.198337 
" style="fill:none;stroke:#ff0000;stroke-linecap:square;stroke-width:1.5;"/>
    <g>
     <use style="fill-opacity:0;stroke:#ff0000;stroke-linejoin:miter;stroke-width:1.5;" x="333.168" xlink:href="#m50346b15fd" y="273.910091"/>
     <use style="fill-opacity:0;stroke:#ff0000;stroke-linejoin:miter;stroke-width:1.5;" x="363.64328" xlink:href="#m50346b15fd" y="238.198337"/>
    </g>
   </g>
   <g id="line2d_65">
    <path d="M 333.168 242.455228 
L 363.64328 186.864 
" style="fill:none;stroke:#000000;stroke-linecap:square;stroke-width:1.5;"/>
    <g>
     <use style="fill-opacity:0;stroke:#000000;stroke-width:1.5;" x="333.168" xlink:href="#m625d65c40a" y="242.455228"/>
     <use style="fill-opacity:0;stroke:#000000;stroke-width:1.5;" x="363.64328" xlink:href="#m625d65c40a" y="186.864"/>
    </g>
   </g>
   <g id="line2d_66">
    <path d="M 333.168 27.513663 
L 363.64328 135.529663 
" style="fill:none;stroke:#0000ff;stroke-linecap:square;stroke-width:1.5;"/>
    <g>
     <use style="fill-opacity:0;stroke:#0000ff;stroke-linejoin:bevel;stroke-width:1.5;" x="333.168" xlink:href="#m043f70a4e4" y="27.513663"/>
     <use style="fill-opacity:0;stroke:#0000ff;stroke-linejoin:bevel;stroke-width:1.5;" x="363.64328" xlink:href="#m043f70a4e4" y="135.529663"/>
    </g>
   </g>
   <g id="line2d_67">
    <path d="M 333.168 27.513663 
L 363.64328 84.195327 
" style="fill:none;stroke:#00bfbf;stroke-linecap:square;stroke-width:1.5;"/>
    <g>
     <use style="fill-opacity:0;stroke:#00bfbf;stroke-width:1.5;" x="333.168" xlink:href="#m0efd7eae1a" y="27.513663"/>
     <use style="fill-opacity:0;stroke:#00bfbf;stroke-width:1.5;" x="363.64328" xlink:href="#m0efd7eae1a" y="84.195327"/>
    </g>
   </g>
   <g id="line2d_68">
    <path d="M 333.168 27.513663 
L 363.64328 32.86099 
" style="fill:none;stroke:#008000;stroke-linecap:square;stroke-width:1.5;"/>
    <g>
     <use style="fill-opacity:0;stroke:#008000;stroke-linejoin:miter;stroke-width:1.5;" x="333.168" xlink:href="#mf42987ba62" y="27.513663"/>
     <use style="fill-opacity:0;stroke:#008000;stroke-linejoin:miter;stroke-width:1.5;" x="363.64328" xlink:href="#mf42987ba62" y="32.86099"/>
    </g>
   </g>
   <g id="line2d_69">
    <path d="M 333.168 294.88 
L 333.168 27.513663 
" style="fill:none;stroke:#000000;stroke-linecap:square;stroke-width:1.5;"/>
   </g>
   <g id="patch_3">
    <path d="M 56.12 294.88 
L 56.12 24.84 
" style="fill:none;stroke:#000000;stroke-linecap:square;stroke-linejoin:miter;stroke-width:0.8;"/>
   </g>
   <g id="patch_4">
    <path d="M 333.168 294.88 
L 333.168 24.84 
" style="fill:none;stroke:#000000;stroke-linecap:square;stroke-linejoin:miter;stroke-width:0.8;"/>
   </g>
   <g id="patch_5">
    <path d="M 56.12 294.88 
L 333.168 294.88 
" style="fill:none;stroke:#000000;stroke-linecap:square;stroke-linejoin:miter;stroke-width:0.8;"/>
   </g>
   <g id="patch_6">
    <path d="M 56.12 24.84 
L 333.168 24.84 
" style="fill:none;stroke:#000000;stroke-linecap:square;stroke-linejoin:miter;stroke-width:0.8;"/>
   </g>
   <g id="text_13">
    <!-- 40-D -->
    <defs>
     <path d="M 19.671875 64.796875 
L 19.671875 8.109375 
L 31.59375 8.109375 
Q 46.6875 8.109375 53.6875 14.9375 
Q 60.6875 21.78125 60.6875 36.53125 
Q 60.6875 51.171875 53.6875 57.984375 
Q 46.6875 64.796875 31.59375 64.796875 
z
M 9.8125 72.90625 
L 30.078125 72.90625 
Q 51.265625 72.90625 61.171875 64.09375 
Q 71.09375 55.28125 71.09375 36.53125 
Q 71.09375 17.671875 61.125 8.828125 
Q 51.171875 0 30.078125 0 
L 9.8125 0 
z
" id="DejaVuSans-44"/>
    </defs>
    <g transform="translate(369.18424 294.223611)scale(0.17 -0.17)">
     <use xlink:href="#DejaVuSans-34"/>
     <use x="63.623047" xlink:href="#DejaVuSans-30"/>
     <use x="127.246094" xlink:href="#DejaVuSans-2d"/>
     <use x="163.330078" xlink:href="#DejaVuSans-44"/>
    </g>
   </g>
   <g id="text_14">
    <!-- 20-D -->
    <g transform="translate(369.18424 242.889274)scale(0.17 -0.17)">
     <use xlink:href="#DejaVuSans-32"/>
     <use x="63.623047" xlink:href="#DejaVuSans-30"/>
     <use x="127.246094" xlink:href="#DejaVuSans-2d"/>
     <use x="163.330078" xlink:href="#DejaVuSans-44"/>
    </g>
   </g>
   <g id="text_15">
    <!-- 10-D -->
    <g transform="translate(369.18424 191.554937)scale(0.17 -0.17)">
     <use xlink:href="#DejaVuSans-31"/>
     <use x="63.623047" xlink:href="#DejaVuSans-30"/>
     <use x="127.246094" xlink:href="#DejaVuSans-2d"/>
     <use x="163.330078" xlink:href="#DejaVuSans-44"/>
    </g>
   </g>
   <g id="text_16">
    <!-- 5-D -->
    <defs>
     <path d="M 10.796875 72.90625 
L 49.515625 72.90625 
L 49.515625 64.59375 
L 19.828125 64.59375 
L 19.828125 46.734375 
Q 21.96875 47.46875 24.109375 47.828125 
Q 26.265625 48.1875 28.421875 48.1875 
Q 40.625 48.1875 47.75 41.5 
Q 54.890625 34.8125 54.890625 23.390625 
Q 54.890625 11.625 47.5625 5.09375 
Q 40.234375 -1.421875 26.90625 -1.421875 
Q 22.3125 -1.421875 17.546875 -0.640625 
Q 12.796875 0.140625 7.71875 1.703125 
L 7.71875 11.625 
Q 12.109375 9.234375 16.796875 8.0625 
Q 21.484375 6.890625 26.703125 6.890625 
Q 35.15625 6.890625 40.078125 11.328125 
Q 45.015625 15.765625 45.015625 23.390625 
Q 45.015625 31 40.078125 35.4375 
Q 35.15625 39.890625 26.703125 39.890625 
Q 22.75 39.890625 18.8125 39.015625 
Q 14.890625 38.140625 10.796875 36.28125 
z
" id="DejaVuSans-35"/>
    </defs>
    <g transform="translate(369.18424 140.220601)scale(0.17 -0.17)">
     <use xlink:href="#DejaVuSans-35"/>
     <use x="63.623047" xlink:href="#DejaVuSans-2d"/>
     <use x="99.707031" xlink:href="#DejaVuSans-44"/>
    </g>
   </g>
   <g id="text_17">
    <!-- 2-D -->
    <g transform="translate(369.18424 88.886264)scale(0.17 -0.17)">
     <use xlink:href="#DejaVuSans-32"/>
     <use x="63.623047" xlink:href="#DejaVuSans-2d"/>
     <use x="99.707031" xlink:href="#DejaVuSans-44"/>
    </g>
   </g>
   <g id="text_18">
    <!-- 3-D -->
    <defs>
     <path d="M 40.578125 39.3125 
Q 47.65625 37.796875 51.625 33 
Q 55.609375 28.21875 55.609375 21.1875 
Q 55.609375 10.40625 48.1875 4.484375 
Q 40.765625 -1.421875 27.09375 -1.421875 
Q 22.515625 -1.421875 17.65625 -0.515625 
Q 12.796875 0.390625 7.625 2.203125 
L 7.625 11.71875 
Q 11.71875 9.328125 16.59375 8.109375 
Q 21.484375 6.890625 26.8125 6.890625 
Q 36.078125 6.890625 40.9375 10.546875 
Q 45.796875 14.203125 45.796875 21.1875 
Q 45.796875 27.640625 41.28125 31.265625 
Q 36.765625 34.90625 28.71875 34.90625 
L 20.21875 34.90625 
L 20.21875 43.015625 
L 29.109375 43.015625 
Q 36.375 43.015625 40.234375 45.921875 
Q 44.09375 48.828125 44.09375 54.296875 
Q 44.09375 59.90625 40.109375 62.90625 
Q 36.140625 65.921875 28.71875 65.921875 
Q 24.65625 65.921875 20.015625 65.03125 
Q 15.375 64.15625 9.8125 62.3125 
L 9.8125 71.09375 
Q 15.4375 72.65625 20.34375 73.4375 
Q 25.25 74.21875 29.59375 74.21875 
Q 40.828125 74.21875 47.359375 69.109375 
Q 53.90625 64.015625 53.90625 55.328125 
Q 53.90625 49.265625 50.4375 45.09375 
Q 46.96875 40.921875 40.578125 39.3125 
z
" id="DejaVuSans-33"/>
    </defs>
    <g transform="translate(369.18424 37.551928)scale(0.17 -0.17)">
     <use xlink:href="#DejaVuSans-33"/>
     <use x="63.623047" xlink:href="#DejaVuSans-2d"/>
     <use x="99.707031" xlink:href="#DejaVuSans-44"/>
    </g>
   </g>
   <g id="text_19">
    <!-- bbob f7 -->
    <defs>
     <path d="M 48.6875 27.296875 
Q 48.6875 37.203125 44.609375 42.84375 
Q 40.53125 48.484375 33.40625 48.484375 
Q 26.265625 48.484375 22.1875 42.84375 
Q 18.109375 37.203125 18.109375 27.296875 
Q 18.109375 17.390625 22.1875 11.75 
Q 26.265625 6.109375 33.40625 6.109375 
Q 40.53125 6.109375 44.609375 11.75 
Q 48.6875 17.390625 48.6875 27.296875 
z
M 18.109375 46.390625 
Q 20.953125 51.265625 25.265625 53.625 
Q 29.59375 56 35.59375 56 
Q 45.5625 56 51.78125 48.09375 
Q 58.015625 40.1875 58.015625 27.296875 
Q 58.015625 14.40625 51.78125 6.484375 
Q 45.5625 -1.421875 35.59375 -1.421875 
Q 29.59375 -1.421875 25.265625 0.953125 
Q 20.953125 3.328125 18.109375 8.203125 
L 18.109375 0 
L 9.078125 0 
L 9.078125 75.984375 
L 18.109375 75.984375 
z
" id="DejaVuSans-62"/>
     <path d="M 8.203125 72.90625 
L 55.078125 72.90625 
L 55.078125 68.703125 
L 28.609375 0 
L 18.3125 0 
L 43.21875 64.59375 
L 8.203125 64.59375 
z
" id="DejaVuSans-37"/>
    </defs>
    <g transform="translate(58.89048 35.290806)scale(0.102 -0.102)">
     <use xlink:href="#DejaVuSans-62"/>
     <use x="63.476562" xlink:href="#DejaVuSans-62"/>
     <use x="126.953125" xlink:href="#DejaVuSans-6f"/>
     <use x="188.134766" xlink:href="#DejaVuSans-62"/>
     <use x="251.611328" xlink:href="#DejaVuSans-20"/>
     <use x="283.398438" xlink:href="#DejaVuSans-66"/>
     <use x="318.603516" xlink:href="#DejaVuSans-37"/>
    </g>
    <!-- 51 targets: 100..1e-08 -->
    <defs>
     <path d="M 11.71875 12.40625 
L 22.015625 12.40625 
L 22.015625 0 
L 11.71875 0 
z
M 11.71875 51.703125 
L 22.015625 51.703125 
L 22.015625 39.3125 
L 11.71875 39.3125 
z
" id="DejaVuSans-3a"/>
    </defs>
    <g transform="translate(58.89048 46.712575)scale(0.102 -0.102)">
     <use xlink:href="#DejaVuSans-35"/>
     <use x="63.623047" xlink:href="#DejaVuSans-31"/>
     <use x="127.246094" xlink:href="#DejaVuSans-20"/>
     <use x="159.033203" xlink:href="#DejaVuSans-74"/>
     <use x="198.242188" xlink:href="#DejaVuSans-61"/>
     <use x="259.521484" xlink:href="#DejaVuSans-72"/>
     <use x="300.619141" xlink:href="#DejaVuSans-67"/>
     <use x="364.095703" xlink:href="#DejaVuSans-65"/>
     <use x="425.619141" xlink:href="#DejaVuSans-74"/>
     <use x="464.828125" xlink:href="#DejaVuSans-73"/>
     <use x="516.927734" xlink:href="#DejaVuSans-3a"/>
     <use x="550.619141" xlink:href="#DejaVuSans-20"/>
     <use x="582.40625" xlink:href="#DejaVuSans-31"/>
     <use x="646.029297" xlink:href="#DejaVuSans-30"/>
     <use x="709.652344" xlink:href="#DejaVuSans-30"/>
     <use x="773.275391" xlink:href="#DejaVuSans-2e"/>
     <use x="805.0625" xlink:href="#DejaVuSans-2e"/>
     <use x="836.849609" xlink:href="#DejaVuSans-31"/>
     <use x="900.472656" xlink:href="#DejaVuSans-65"/>
     <use x="961.996094" xlink:href="#DejaVuSans-2d"/>
     <use x="998.080078" xlink:href="#DejaVuSans-30"/>
     <use x="1061.703125" xlink:href="#DejaVuSans-38"/>
    </g>
    <!-- 15 instances -->
    <g transform="translate(58.89048 58.134344)scale(0.102 -0.102)">
     <use xlink:href="#DejaVuSans-31"/>
     <use x="63.623047" xlink:href="#DejaVuSans-35"/>
     <use x="127.246094" xlink:href="#DejaVuSans-20"/>
     <use x="159.033203" xlink:href="#DejaVuSans-69"/>
     <use x="186.816406" xlink:href="#DejaVuSans-6e"/>
     <use x="250.195312" xlink:href="#DejaVuSans-73"/>
     <use x="302.294922" xlink:href="#DejaVuSans-74"/>
     <use x="341.503906" xlink:href="#DejaVuSans-61"/>
     <use x="402.783203" xlink:href="#DejaVuSans-6e"/>
     <use x="466.162109" xlink:href="#DejaVuSans-63"/>
     <use x="521.142578" xlink:href="#DejaVuSans-65"/>
     <use x="582.666016" xlink:href="#DejaVuSans-73"/>
    </g>
   </g>
   <g id="text_20">
    <!-- v0.0.0 -->
    <g style="fill:#808080;" transform="translate(178.96275 290.099912)scale(0.1 -0.1)">
     <use xlink:href="#DejaVuSans-76"/>
     <use x="59.179688" xlink:href="#DejaVuSans-30"/>
     <use x="122.802734" xlink:href="#DejaVuSans-2e"/>
     <use x="154.589844" xlink:href="#DejaVuSans-30"/>
     <use x="218.212891" xlink:href="#DejaVuSans-2e"/>
     <use x="250" xlink:href="#DejaVuSans-30"/>
    </g>
   </g>
   <g id="text_21">
    <!-- 7 Step-ellipsoid -->
    <defs>
     <path d="M 53.515625 70.515625 
L 53.515625 60.890625 
Q 47.90625 63.578125 42.921875 64.890625 
Q 37.9375 66.21875 33.296875 66.21875 
Q 25.25 66.21875 20.875 63.09375 
Q 16.5 59.96875 16.5 54.203125 
Q 16.5 49.359375 19.40625 46.890625 
Q 22.3125 44.4375 30.421875 42.921875 
L 36.375 41.703125 
Q 47.40625 39.59375 52.65625 34.296875 
Q 57.90625 29 57.90625 20.125 
Q 57.90625 9.515625 50.796875 4.046875 
Q 43.703125 -1.421875 29.984375 -1.421875 
Q 24.8125 -1.421875 18.96875 -0.25 
Q 13.140625 0.921875 6.890625 3.21875 
L 6.890625 13.375 
Q 12.890625 10.015625 18.65625 8.296875 
Q 24.421875 6.59375 29.984375 6.59375 
Q 38.421875 6.59375 43.015625 9.90625 
Q 47.609375 13.234375 47.609375 19.390625 
Q 47.609375 24.75 44.3125 27.78125 
Q 41.015625 30.8125 33.5 32.328125 
L 27.484375 33.5 
Q 16.453125 35.6875 11.515625 40.375 
Q 6.59375 45.0625 6.59375 53.421875 
Q 6.59375 63.09375 13.40625 68.65625 
Q 20.21875 74.21875 32.171875 74.21875 
Q 37.3125 74.21875 42.625 73.28125 
Q 47.953125 72.359375 53.515625 70.515625 
z
" id="DejaVuSans-53"/>
    </defs>
    <g transform="translate(117.434625 18.84)scale(0.2 -0.2)">
     <use xlink:href="#DejaVuSans-37"/>
     <use x="63.623047" xlink:href="#DejaVuSans-20"/>
     <use x="95.410156" xlink:href="#DejaVuSans-53"/>
     <use x="158.886719" xlink:href="#DejaVuSans-74"/>
     <use x="198.095703" xlink:href="#DejaVuSans-65"/>
     <use x="259.619141" xlink:href="#DejaVuSans-70"/>
     <use x="323.095703" xlink:href="#DejaVuSans-2d"/>
     <use x="359.179688" xlink:href="#DejaVuSans-65"/>
     <use x="420.703125" xlink:href="#DejaVuSans-6c"/>
     <use x="448.486328" xlink:href="#DejaVuSans-6c"/>
     <use x="476.269531" xlink:href="#DejaVuSans-69"/>
     <use x="504.052734" xlink:href="#DejaVuSans-70"/>
     <use x="567.529297" xlink:href="#DejaVuSans-73"/>
     <use x="619.628906" xlink:href="#DejaVuSans-6f"/>
     <use x="680.810547" xlink:href="#DejaVuSans-69"/>
     <use x="708.59375" xlink:href="#DejaVuSans-64"/>
    </g>
   </g>
  </g>
 </g>
 <defs>
  <clipPath id="peda31a1e1b">
   <rect height="270.04" width="277.048" x="56.12" y="24.84"/>
  </clipPath>
 </defs>
</svg>
