<?xml version="1.0" encoding="utf-8" standalone="no"?>
<!DOCTYPE svg PUBLIC "-//W3C//DTD SVG 1.1//EN"
  "http://www.w3.org/Graphics/SVG/1.1/DTD/svg11.dtd">
<!-- Created with matplotlib (http://matplotlib.org/) -->
<svg height="345.6pt" version="1.1" viewBox="0 0 460.8 345.6" width="460.8pt" xmlns="http://www.w3.org/2000/svg" xmlns:xlink="http://www.w3.org/1999/xlink">
 <defs>
  <style type="text/css">
*{stroke-linecap:butt;stroke-linejoin:round;}
  </style>
 </defs>
 <g id="figure_1">
  <g id="patch_1">
   <path d="M 0 345.6 
L 460.8 345.6 
L 460.8 0 
L 0 0 
z
" style="fill:#ffffff;"/>
  </g>
  <g id="axes_1">
   <g id="patch_2">
    <path d="M 56.12 294.88 
L 333.168 294.88 
L 333.168 6.845228 
L 56.12 6.845228 
z
" style="fill:#ffffff;"/>
   </g>
   <g id="matplotlib.axis_1">
    <g id="xtick_1">
     <g id="line2d_1">
      <path clip-path="url(#pceaada6c6d)" d="M 56.12 294.88 
L 56.12 6.845228 
" style="fill:none;stroke:#b0b0b0;stroke-linecap:square;stroke-width:0.8;"/>
     </g>
     <g id="line2d_2">
      <defs>
       <path d="M 0 0 
L 0 3.5 
" id="m1eb7856b75" style="stroke:#000000;stroke-width:0.8;"/>
      </defs>
      <g>
       <use style="stroke:#000000;stroke-width:0.8;" x="56.12" xlink:href="#m1eb7856b75" y="294.88"/>
      </g>
     </g>
     <g id="text_1">
      <!-- 0 -->
      <defs>
       <path d="M 31.78125 66.40625 
Q 24.171875 66.40625 20.328125 58.90625 
Q 16.5 51.421875 16.5 36.375 
Q 16.5 21.390625 20.328125 13.890625 
Q 24.171875 6.390625 31.78125 6.390625 
Q 39.453125 6.390625 43.28125 13.890625 
Q 47.125 21.390625 47.125 36.375 
Q 47.125 51.421875 43.28125 58.90625 
Q 39.453125 66.40625 31.78125 66.40625 
z
M 31.78125 74.21875 
Q 44.046875 74.21875 50.515625 64.515625 
Q 56.984375 54.828125 56.984375 36.375 
Q 56.984375 17.96875 50.515625 8.265625 
Q 44.046875 -1.421875 31.78125 -1.421875 
Q 19.53125 -1.421875 13.0625 8.265625 
Q 6.59375 17.96875 6.59375 36.375 
Q 6.59375 54.828125 13.0625 64.515625 
Q 19.53125 74.21875 31.78125 74.21875 
z
" id="DejaVuSans-30"/>
      </defs>
      <g transform="translate(49.7575 317.076875)scale(0.2 -0.2)">
       <use xlink:href="#DejaVuSans-30"/>
      </g>
     </g>
    </g>
    <g id="xtick_2">
     <g id="line2d_3">
      <path clip-path="url(#pceaada6c6d)" d="M 135.276571 294.88 
L 135.276571 6.845228 
" style="fill:none;stroke:#b0b0b0;stroke-linecap:square;stroke-width:0.8;"/>
     </g>
     <g id="line2d_4">
      <g>
       <use style="stroke:#000000;stroke-width:0.8;" x="135.276571" xlink:href="#m1eb7856b75" y="294.88"/>
      </g>
     </g>
     <g id="text_2">
      <!-- 2 -->
      <defs>
       <path d="M 19.1875 8.296875 
L 53.609375 8.296875 
L 53.609375 0 
L 7.328125 0 
L 7.328125 8.296875 
Q 12.9375 14.109375 22.625 23.890625 
Q 32.328125 33.6875 34.8125 36.53125 
Q 39.546875 41.84375 41.421875 45.53125 
Q 43.3125 49.21875 43.3125 52.78125 
Q 43.3125 58.59375 39.234375 62.25 
Q 35.15625 65.921875 28.609375 65.921875 
Q 23.96875 65.921875 18.8125 64.3125 
Q 13.671875 62.703125 7.8125 59.421875 
L 7.8125 69.390625 
Q 13.765625 71.78125 18.9375 73 
Q 24.125 74.21875 28.421875 74.21875 
Q 39.75 74.21875 46.484375 68.546875 
Q 53.21875 62.890625 53.21875 53.421875 
Q 53.21875 48.921875 51.53125 44.890625 
Q 49.859375 40.875 45.40625 35.40625 
Q 44.1875 33.984375 37.640625 27.21875 
Q 31.109375 20.453125 19.1875 8.296875 
z
" id="DejaVuSans-32"/>
      </defs>
      <g transform="translate(128.914071 317.076875)scale(0.2 -0.2)">
       <use xlink:href="#DejaVuSans-32"/>
      </g>
     </g>
    </g>
    <g id="xtick_3">
     <g id="line2d_5">
      <path clip-path="url(#pceaada6c6d)" d="M 214.433143 294.88 
L 214.433143 6.845228 
" style="fill:none;stroke:#b0b0b0;stroke-linecap:square;stroke-width:0.8;"/>
     </g>
     <g id="line2d_6">
      <g>
       <use style="stroke:#000000;stroke-width:0.8;" x="214.433143" xlink:href="#m1eb7856b75" y="294.88"/>
      </g>
     </g>
     <g id="text_3">
      <!-- 4 -->
      <defs>
       <path d="M 37.796875 64.3125 
L 12.890625 25.390625 
L 37.796875 25.390625 
z
M 35.203125 72.90625 
L 47.609375 72.90625 
L 47.609375 25.390625 
L 58.015625 25.390625 
L 58.015625 17.1875 
L 47.609375 17.1875 
L 47.609375 0 
L 37.796875 0 
L 37.796875 17.1875 
L 4.890625 17.1875 
L 4.890625 26.703125 
z
" id="DejaVuSans-34"/>
      </defs>
      <g transform="translate(208.070643 317.076875)scale(0.2 -0.2)">
       <use xlink:href="#DejaVuSans-34"/>
      </g>
     </g>
    </g>
    <g id="xtick_4">
     <g id="line2d_7">
      <path clip-path="url(#pceaada6c6d)" d="M 293.589714 294.88 
L 293.589714 6.845228 
" style="fill:none;stroke:#b0b0b0;stroke-linecap:square;stroke-width:0.8;"/>
     </g>
     <g id="line2d_8">
      <g>
       <use style="stroke:#000000;stroke-width:0.8;" x="293.589714" xlink:href="#m1eb7856b75" y="294.88"/>
      </g>
     </g>
     <g id="text_4">
      <!-- 6 -->
      <defs>
       <path d="M 33.015625 40.375 
Q 26.375 40.375 22.484375 35.828125 
Q 18.609375 31.296875 18.609375 23.390625 
Q 18.609375 15.53125 22.484375 10.953125 
Q 26.375 6.390625 33.015625 6.390625 
Q 39.65625 6.390625 43.53125 10.953125 
Q 47.40625 15.53125 47.40625 23.390625 
Q 47.40625 31.296875 43.53125 35.828125 
Q 39.65625 40.375 33.015625 40.375 
z
M 52.59375 71.296875 
L 52.59375 62.3125 
Q 48.875 64.0625 45.09375 64.984375 
Q 41.3125 65.921875 37.59375 65.921875 
Q 27.828125 65.921875 22.671875 59.328125 
Q 17.53125 52.734375 16.796875 39.40625 
Q 19.671875 43.65625 24.015625 45.921875 
Q 28.375 48.1875 33.59375 48.1875 
Q 44.578125 48.1875 50.953125 41.515625 
Q 57.328125 34.859375 57.328125 23.390625 
Q 57.328125 12.15625 50.6875 5.359375 
Q 44.046875 -1.421875 33.015625 -1.421875 
Q 20.359375 -1.421875 13.671875 8.265625 
Q 6.984375 17.96875 6.984375 36.375 
Q 6.984375 53.65625 15.1875 63.9375 
Q 23.390625 74.21875 37.203125 74.21875 
Q 40.921875 74.21875 44.703125 73.484375 
Q 48.484375 72.75 52.59375 71.296875 
z
" id="DejaVuSans-36"/>
      </defs>
      <g transform="translate(287.227214 317.076875)scale(0.2 -0.2)">
       <use xlink:href="#DejaVuSans-36"/>
      </g>
     </g>
    </g>
    <g id="xtick_5">
     <g id="line2d_9">
      <path clip-path="url(#pceaada6c6d)" d="M 56.12 294.88 
L 56.12 6.845228 
" style="fill:none;stroke:#b0b0b0;stroke-linecap:square;stroke-width:0.8;"/>
     </g>
     <g id="line2d_10">
      <defs>
       <path d="M 0 0 
L 0 2 
" id="mc01a9799d9" style="stroke:#000000;stroke-width:0.6;"/>
      </defs>
      <g>
       <use style="stroke:#000000;stroke-width:0.6;" x="56.12" xlink:href="#mc01a9799d9" y="294.88"/>
      </g>
     </g>
    </g>
    <g id="xtick_6">
     <g id="line2d_11">
      <path clip-path="url(#pceaada6c6d)" d="M 95.698286 294.88 
L 95.698286 6.845228 
" style="fill:none;stroke:#b0b0b0;stroke-linecap:square;stroke-width:0.8;"/>
     </g>
     <g id="line2d_12">
      <g>
       <use style="stroke:#000000;stroke-width:0.6;" x="95.698286" xlink:href="#mc01a9799d9" y="294.88"/>
      </g>
     </g>
    </g>
    <g id="xtick_7">
     <g id="line2d_13">
      <path clip-path="url(#pceaada6c6d)" d="M 135.276571 294.88 
L 135.276571 6.845228 
" style="fill:none;stroke:#b0b0b0;stroke-linecap:square;stroke-width:0.8;"/>
     </g>
     <g id="line2d_14">
      <g>
       <use style="stroke:#000000;stroke-width:0.6;" x="135.276571" xlink:href="#mc01a9799d9" y="294.88"/>
      </g>
     </g>
    </g>
    <g id="xtick_8">
     <g id="line2d_15">
      <path clip-path="url(#pceaada6c6d)" d="M 174.854857 294.88 
L 174.854857 6.845228 
" style="fill:none;stroke:#b0b0b0;stroke-linecap:square;stroke-width:0.8;"/>
     </g>
     <g id="line2d_16">
      <g>
       <use style="stroke:#000000;stroke-width:0.6;" x="174.854857" xlink:href="#mc01a9799d9" y="294.88"/>
      </g>
     </g>
    </g>
    <g id="xtick_9">
     <g id="line2d_17">
      <path clip-path="url(#pceaada6c6d)" d="M 214.433143 294.88 
L 214.433143 6.845228 
" style="fill:none;stroke:#b0b0b0;stroke-linecap:square;stroke-width:0.8;"/>
     </g>
     <g id="line2d_18">
      <g>
       <use style="stroke:#000000;stroke-width:0.6;" x="214.433143" xlink:href="#mc01a9799d9" y="294.88"/>
      </g>
     </g>
    </g>
    <g id="xtick_10">
     <g id="line2d_19">
      <path clip-path="url(#pceaada6c6d)" d="M 254.011429 294.88 
L 254.011429 6.845228 
" style="fill:none;stroke:#b0b0b0;stroke-linecap:square;stroke-width:0.8;"/>
     </g>
     <g id="line2d_20">
      <g>
       <use style="stroke:#000000;stroke-width:0.6;" x="254.011429" xlink:href="#mc01a9799d9" y="294.88"/>
      </g>
     </g>
    </g>
    <g id="xtick_11">
     <g id="line2d_21">
      <path clip-path="url(#pceaada6c6d)" d="M 293.589714 294.88 
L 293.589714 6.845228 
" style="fill:none;stroke:#b0b0b0;stroke-linecap:square;stroke-width:0.8;"/>
     </g>
     <g id="line2d_22">
      <g>
       <use style="stroke:#000000;stroke-width:0.6;" x="293.589714" xlink:href="#mc01a9799d9" y="294.88"/>
      </g>
     </g>
    </g>
    <g id="xtick_12">
     <g id="line2d_23">
      <path clip-path="url(#pceaada6c6d)" d="M 333.168 294.88 
L 333.168 6.845228 
" style="fill:none;stroke:#b0b0b0;stroke-linecap:square;stroke-width:0.8;"/>
     </g>
     <g id="line2d_24">
      <g>
       <use style="stroke:#000000;stroke-width:0.6;" x="333.168" xlink:href="#mc01a9799d9" y="294.88"/>
      </g>
     </g>
    </g>
    <g id="text_5">
     <!-- log10(# f-evals / dimension) -->
     <defs>
      <path d="M 9.421875 75.984375 
L 18.40625 75.984375 
L 18.40625 0 
L 9.421875 0 
z
" id="DejaVuSans-6c"/>
      <path d="M 30.609375 48.390625 
Q 23.390625 48.390625 19.1875 42.75 
Q 14.984375 37.109375 14.984375 27.296875 
Q 14.984375 17.484375 19.15625 11.84375 
Q 23.34375 6.203125 30.609375 6.203125 
Q 37.796875 6.203125 41.984375 11.859375 
Q 46.1875 17.53125 46.1875 27.296875 
Q 46.1875 37.015625 41.984375 42.703125 
Q 37.796875 48.390625 30.609375 48.390625 
z
M 30.609375 56 
Q 42.328125 56 49.015625 48.375 
Q 55.71875 40.765625 55.71875 27.296875 
Q 55.71875 13.875 49.015625 6.21875 
Q 42.328125 -1.421875 30.609375 -1.421875 
Q 18.84375 -1.421875 12.171875 6.21875 
Q 5.515625 13.875 5.515625 27.296875 
Q 5.515625 40.765625 12.171875 48.375 
Q 18.84375 56 30.609375 56 
z
" id="DejaVuSans-6f"/>
      <path d="M 45.40625 27.984375 
Q 45.40625 37.75 41.375 43.109375 
Q 37.359375 48.484375 30.078125 48.484375 
Q 22.859375 48.484375 18.828125 43.109375 
Q 14.796875 37.75 14.796875 27.984375 
Q 14.796875 18.265625 18.828125 12.890625 
Q 22.859375 7.515625 30.078125 7.515625 
Q 37.359375 7.515625 41.375 12.890625 
Q 45.40625 18.265625 45.40625 27.984375 
z
M 54.390625 6.78125 
Q 54.390625 -7.171875 48.1875 -13.984375 
Q 42 -20.796875 29.203125 -20.796875 
Q 24.46875 -20.796875 20.265625 -20.09375 
Q 16.0625 -19.390625 12.109375 -17.921875 
L 12.109375 -9.1875 
Q 16.0625 -11.328125 19.921875 -12.34375 
Q 23.78125 -13.375 27.78125 -13.375 
Q 36.625 -13.375 41.015625 -8.765625 
Q 45.40625 -4.15625 45.40625 5.171875 
L 45.40625 9.625 
Q 42.625 4.78125 38.28125 2.390625 
Q 33.9375 0 27.875 0 
Q 17.828125 0 11.671875 7.65625 
Q 5.515625 15.328125 5.515625 27.984375 
Q 5.515625 40.671875 11.671875 48.328125 
Q 17.828125 56 27.875 56 
Q 33.9375 56 38.28125 53.609375 
Q 42.625 51.21875 45.40625 46.390625 
L 45.40625 54.6875 
L 54.390625 54.6875 
z
" id="DejaVuSans-67"/>
      <path d="M 12.40625 8.296875 
L 28.515625 8.296875 
L 28.515625 63.921875 
L 10.984375 60.40625 
L 10.984375 69.390625 
L 28.421875 72.90625 
L 38.28125 72.90625 
L 38.28125 8.296875 
L 54.390625 8.296875 
L 54.390625 0 
L 12.40625 0 
z
" id="DejaVuSans-31"/>
      <path d="M 31 75.875 
Q 24.46875 64.65625 21.28125 53.65625 
Q 18.109375 42.671875 18.109375 31.390625 
Q 18.109375 20.125 21.3125 9.0625 
Q 24.515625 -2 31 -13.1875 
L 23.1875 -13.1875 
Q 15.875 -1.703125 12.234375 9.375 
Q 8.59375 20.453125 8.59375 31.390625 
Q 8.59375 42.28125 12.203125 53.3125 
Q 15.828125 64.359375 23.1875 75.875 
z
" id="DejaVuSans-28"/>
      <path d="M 51.125 44 
L 36.921875 44 
L 32.8125 27.6875 
L 47.125 27.6875 
z
M 43.796875 71.78125 
L 38.71875 51.515625 
L 52.984375 51.515625 
L 58.109375 71.78125 
L 65.921875 71.78125 
L 60.890625 51.515625 
L 76.125 51.515625 
L 76.125 44 
L 58.984375 44 
L 54.984375 27.6875 
L 70.515625 27.6875 
L 70.515625 20.21875 
L 53.078125 20.21875 
L 48 0 
L 40.1875 0 
L 45.21875 20.21875 
L 30.90625 20.21875 
L 25.875 0 
L 18.015625 0 
L 23.09375 20.21875 
L 7.71875 20.21875 
L 7.71875 27.6875 
L 24.90625 27.6875 
L 29 44 
L 13.28125 44 
L 13.28125 51.515625 
L 30.90625 51.515625 
L 35.890625 71.78125 
z
" id="DejaVuSans-23"/>
      <path id="DejaVuSans-20"/>
      <path d="M 37.109375 75.984375 
L 37.109375 68.5 
L 28.515625 68.5 
Q 23.6875 68.5 21.796875 66.546875 
Q 19.921875 64.59375 19.921875 59.515625 
L 19.921875 54.6875 
L 34.71875 54.6875 
L 34.71875 47.703125 
L 19.921875 47.703125 
L 19.921875 0 
L 10.890625 0 
L 10.890625 47.703125 
L 2.296875 47.703125 
L 2.296875 54.6875 
L 10.890625 54.6875 
L 10.890625 58.5 
Q 10.890625 67.625 15.140625 71.796875 
Q 19.390625 75.984375 28.609375 75.984375 
z
" id="DejaVuSans-66"/>
      <path d="M 4.890625 31.390625 
L 31.203125 31.390625 
L 31.203125 23.390625 
L 4.890625 23.390625 
z
" id="DejaVuSans-2d"/>
      <path d="M 56.203125 29.59375 
L 56.203125 25.203125 
L 14.890625 25.203125 
Q 15.484375 15.921875 20.484375 11.0625 
Q 25.484375 6.203125 34.421875 6.203125 
Q 39.59375 6.203125 44.453125 7.46875 
Q 49.3125 8.734375 54.109375 11.28125 
L 54.109375 2.78125 
Q 49.265625 0.734375 44.1875 -0.34375 
Q 39.109375 -1.421875 33.890625 -1.421875 
Q 20.796875 -1.421875 13.15625 6.1875 
Q 5.515625 13.8125 5.515625 26.8125 
Q 5.515625 40.234375 12.765625 48.109375 
Q 20.015625 56 32.328125 56 
Q 43.359375 56 49.78125 48.890625 
Q 56.203125 41.796875 56.203125 29.59375 
z
M 47.21875 32.234375 
Q 47.125 39.59375 43.09375 43.984375 
Q 39.0625 48.390625 32.421875 48.390625 
Q 24.90625 48.390625 20.390625 44.140625 
Q 15.875 39.890625 15.1875 32.171875 
z
" id="DejaVuSans-65"/>
      <path d="M 2.984375 54.6875 
L 12.5 54.6875 
L 29.59375 8.796875 
L 46.6875 54.6875 
L 56.203125 54.6875 
L 35.6875 0 
L 23.484375 0 
z
" id="DejaVuSans-76"/>
      <path d="M 34.28125 27.484375 
Q 23.390625 27.484375 19.1875 25 
Q 14.984375 22.515625 14.984375 16.5 
Q 14.984375 11.71875 18.140625 8.90625 
Q 21.296875 6.109375 26.703125 6.109375 
Q 34.1875 6.109375 38.703125 11.40625 
Q 43.21875 16.703125 43.21875 25.484375 
L 43.21875 27.484375 
z
M 52.203125 31.203125 
L 52.203125 0 
L 43.21875 0 
L 43.21875 8.296875 
Q 40.140625 3.328125 35.546875 0.953125 
Q 30.953125 -1.421875 24.3125 -1.421875 
Q 15.921875 -1.421875 10.953125 3.296875 
Q 6 8.015625 6 15.921875 
Q 6 25.140625 12.171875 29.828125 
Q 18.359375 34.515625 30.609375 34.515625 
L 43.21875 34.515625 
L 43.21875 35.40625 
Q 43.21875 41.609375 39.140625 45 
Q 35.0625 48.390625 27.6875 48.390625 
Q 23 48.390625 18.546875 47.265625 
Q 14.109375 46.140625 10.015625 43.890625 
L 10.015625 52.203125 
Q 14.9375 54.109375 19.578125 55.046875 
Q 24.21875 56 28.609375 56 
Q 40.484375 56 46.34375 49.84375 
Q 52.203125 43.703125 52.203125 31.203125 
z
" id="DejaVuSans-61"/>
      <path d="M 44.28125 53.078125 
L 44.28125 44.578125 
Q 40.484375 46.53125 36.375 47.5 
Q 32.28125 48.484375 27.875 48.484375 
Q 21.1875 48.484375 17.84375 46.4375 
Q 14.5 44.390625 14.5 40.28125 
Q 14.5 37.15625 16.890625 35.375 
Q 19.28125 33.59375 26.515625 31.984375 
L 29.59375 31.296875 
Q 39.15625 29.25 43.1875 25.515625 
Q 47.21875 21.78125 47.21875 15.09375 
Q 47.21875 7.46875 41.1875 3.015625 
Q 35.15625 -1.421875 24.609375 -1.421875 
Q 20.21875 -1.421875 15.453125 -0.5625 
Q 10.6875 0.296875 5.421875 2 
L 5.421875 11.28125 
Q 10.40625 8.6875 15.234375 7.390625 
Q 20.0625 6.109375 24.8125 6.109375 
Q 31.15625 6.109375 34.5625 8.28125 
Q 37.984375 10.453125 37.984375 14.40625 
Q 37.984375 18.0625 35.515625 20.015625 
Q 33.0625 21.96875 24.703125 23.78125 
L 21.578125 24.515625 
Q 13.234375 26.265625 9.515625 29.90625 
Q 5.8125 33.546875 5.8125 39.890625 
Q 5.8125 47.609375 11.28125 51.796875 
Q 16.75 56 26.8125 56 
Q 31.78125 56 36.171875 55.265625 
Q 40.578125 54.546875 44.28125 53.078125 
z
" id="DejaVuSans-73"/>
      <path d="M 25.390625 72.90625 
L 33.6875 72.90625 
L 8.296875 -9.28125 
L 0 -9.28125 
z
" id="DejaVuSans-2f"/>
      <path d="M 45.40625 46.390625 
L 45.40625 75.984375 
L 54.390625 75.984375 
L 54.390625 0 
L 45.40625 0 
L 45.40625 8.203125 
Q 42.578125 3.328125 38.25 0.953125 
Q 33.9375 -1.421875 27.875 -1.421875 
Q 17.96875 -1.421875 11.734375 6.484375 
Q 5.515625 14.40625 5.515625 27.296875 
Q 5.515625 40.1875 11.734375 48.09375 
Q 17.96875 56 27.875 56 
Q 33.9375 56 38.25 53.625 
Q 42.578125 51.265625 45.40625 46.390625 
z
M 14.796875 27.296875 
Q 14.796875 17.390625 18.875 11.75 
Q 22.953125 6.109375 30.078125 6.109375 
Q 37.203125 6.109375 41.296875 11.75 
Q 45.40625 17.390625 45.40625 27.296875 
Q 45.40625 37.203125 41.296875 42.84375 
Q 37.203125 48.484375 30.078125 48.484375 
Q 22.953125 48.484375 18.875 42.84375 
Q 14.796875 37.203125 14.796875 27.296875 
z
" id="DejaVuSans-64"/>
      <path d="M 9.421875 54.6875 
L 18.40625 54.6875 
L 18.40625 0 
L 9.421875 0 
z
M 9.421875 75.984375 
L 18.40625 75.984375 
L 18.40625 64.59375 
L 9.421875 64.59375 
z
" id="DejaVuSans-69"/>
      <path d="M 52 44.1875 
Q 55.375 50.25 60.0625 53.125 
Q 64.75 56 71.09375 56 
Q 79.640625 56 84.28125 50.015625 
Q 88.921875 44.046875 88.921875 33.015625 
L 88.921875 0 
L 79.890625 0 
L 79.890625 32.71875 
Q 79.890625 40.578125 77.09375 44.375 
Q 74.3125 48.1875 68.609375 48.1875 
Q 61.625 48.1875 57.5625 43.546875 
Q 53.515625 38.921875 53.515625 30.90625 
L 53.515625 0 
L 44.484375 0 
L 44.484375 32.71875 
Q 44.484375 40.625 41.703125 44.40625 
Q 38.921875 48.1875 33.109375 48.1875 
Q 26.21875 48.1875 22.15625 43.53125 
Q 18.109375 38.875 18.109375 30.90625 
L 18.109375 0 
L 9.078125 0 
L 9.078125 54.6875 
L 18.109375 54.6875 
L 18.109375 46.1875 
Q 21.1875 51.21875 25.484375 53.609375 
Q 29.78125 56 35.6875 56 
Q 41.65625 56 45.828125 52.96875 
Q 50 49.953125 52 44.1875 
z
" id="DejaVuSans-6d"/>
      <path d="M 54.890625 33.015625 
L 54.890625 0 
L 45.90625 0 
L 45.90625 32.71875 
Q 45.90625 40.484375 42.875 44.328125 
Q 39.84375 48.1875 33.796875 48.1875 
Q 26.515625 48.1875 22.3125 43.546875 
Q 18.109375 38.921875 18.109375 30.90625 
L 18.109375 0 
L 9.078125 0 
L 9.078125 54.6875 
L 18.109375 54.6875 
L 18.109375 46.1875 
Q 21.34375 51.125 25.703125 53.5625 
Q 30.078125 56 35.796875 56 
Q 45.21875 56 50.046875 50.171875 
Q 54.890625 44.34375 54.890625 33.015625 
z
" id="DejaVuSans-6e"/>
      <path d="M 8.015625 75.875 
L 15.828125 75.875 
Q 23.140625 64.359375 26.78125 53.3125 
Q 30.421875 42.28125 30.421875 31.390625 
Q 30.421875 20.453125 26.78125 9.375 
Q 23.140625 -1.703125 15.828125 -13.1875 
L 8.015625 -13.1875 
Q 14.5 -2 17.703125 9.0625 
Q 20.90625 20.125 20.90625 31.390625 
Q 20.90625 42.671875 17.703125 53.65625 
Q 14.5 64.65625 8.015625 75.875 
z
" id="DejaVuSans-29"/>
     </defs>
     <g transform="translate(73.803219 338.153594)scale(0.17 -0.17)">
      <use xlink:href="#DejaVuSans-6c"/>
      <use x="27.783203" xlink:href="#DejaVuSans-6f"/>
      <use x="88.964844" xlink:href="#DejaVuSans-67"/>
      <use x="152.441406" xlink:href="#DejaVuSans-31"/>
      <use x="216.064453" xlink:href="#DejaVuSans-30"/>
      <use x="279.6875" xlink:href="#DejaVuSans-28"/>
      <use x="318.701172" xlink:href="#DejaVuSans-23"/>
      <use x="402.490234" xlink:href="#DejaVuSans-20"/>
      <use x="434.277344" xlink:href="#DejaVuSans-66"/>
      <use x="469.404297" xlink:href="#DejaVuSans-2d"/>
      <use x="505.488281" xlink:href="#DejaVuSans-65"/>
      <use x="567.011719" xlink:href="#DejaVuSans-76"/>
      <use x="626.191406" xlink:href="#DejaVuSans-61"/>
      <use x="687.470703" xlink:href="#DejaVuSans-6c"/>
      <use x="715.253906" xlink:href="#DejaVuSans-73"/>
      <use x="767.353516" xlink:href="#DejaVuSans-20"/>
      <use x="799.140625" xlink:href="#DejaVuSans-2f"/>
      <use x="832.832031" xlink:href="#DejaVuSans-20"/>
      <use x="864.619141" xlink:href="#DejaVuSans-64"/>
      <use x="928.095703" xlink:href="#DejaVuSans-69"/>
      <use x="955.878906" xlink:href="#DejaVuSans-6d"/>
      <use x="1053.291016" xlink:href="#DejaVuSans-65"/>
      <use x="1114.814453" xlink:href="#DejaVuSans-6e"/>
      <use x="1178.193359" xlink:href="#DejaVuSans-73"/>
      <use x="1230.292969" xlink:href="#DejaVuSans-69"/>
      <use x="1258.076172" xlink:href="#DejaVuSans-6f"/>
      <use x="1319.257812" xlink:href="#DejaVuSans-6e"/>
      <use x="1382.636719" xlink:href="#DejaVuSans-29"/>
     </g>
    </g>
   </g>
   <g id="matplotlib.axis_2">
    <g id="ytick_1">
     <g id="line2d_25">
      <path clip-path="url(#pceaada6c6d)" d="M 56.12 294.88 
L 333.168 294.88 
" style="fill:none;stroke:#b0b0b0;stroke-linecap:square;stroke-width:0.8;"/>
     </g>
     <g id="line2d_26">
      <defs>
       <path d="M 0 0 
L -3.5 0 
" id="meb572d8a03" style="stroke:#000000;stroke-width:0.8;"/>
      </defs>
      <g>
       <use style="stroke:#000000;stroke-width:0.8;" x="56.12" xlink:href="#meb572d8a03" y="294.88"/>
      </g>
     </g>
     <g id="text_6">
      <!-- 0.0 -->
      <defs>
       <path d="M 10.6875 12.40625 
L 21 12.40625 
L 21 0 
L 10.6875 0 
z
" id="DejaVuSans-2e"/>
      </defs>
      <g transform="translate(23.675 300.95875)scale(0.16 -0.16)">
       <use xlink:href="#DejaVuSans-30"/>
       <use x="63.623047" xlink:href="#DejaVuSans-2e"/>
       <use x="95.410156" xlink:href="#DejaVuSans-30"/>
      </g>
     </g>
    </g>
    <g id="ytick_2">
     <g id="line2d_27">
      <path clip-path="url(#pceaada6c6d)" d="M 56.12 237.843411 
L 333.168 237.843411 
" style="fill:none;stroke:#b0b0b0;stroke-linecap:square;stroke-width:0.8;"/>
     </g>
     <g id="line2d_28">
      <g>
       <use style="stroke:#000000;stroke-width:0.8;" x="56.12" xlink:href="#meb572d8a03" y="237.843411"/>
      </g>
     </g>
     <g id="text_7">
      <!-- 0.2 -->
      <g transform="translate(23.675 243.922161)scale(0.16 -0.16)">
       <use xlink:href="#DejaVuSans-30"/>
       <use x="63.623047" xlink:href="#DejaVuSans-2e"/>
       <use x="95.410156" xlink:href="#DejaVuSans-32"/>
      </g>
     </g>
    </g>
    <g id="ytick_3">
     <g id="line2d_29">
      <path clip-path="url(#pceaada6c6d)" d="M 56.12 180.806823 
L 333.168 180.806823 
" style="fill:none;stroke:#b0b0b0;stroke-linecap:square;stroke-width:0.8;"/>
     </g>
     <g id="line2d_30">
      <g>
       <use style="stroke:#000000;stroke-width:0.8;" x="56.12" xlink:href="#meb572d8a03" y="180.806823"/>
      </g>
     </g>
     <g id="text_8">
      <!-- 0.4 -->
      <g transform="translate(23.675 186.885573)scale(0.16 -0.16)">
       <use xlink:href="#DejaVuSans-30"/>
       <use x="63.623047" xlink:href="#DejaVuSans-2e"/>
       <use x="95.410156" xlink:href="#DejaVuSans-34"/>
      </g>
     </g>
    </g>
    <g id="ytick_4">
     <g id="line2d_31">
      <path clip-path="url(#pceaada6c6d)" d="M 56.12 123.770234 
L 333.168 123.770234 
" style="fill:none;stroke:#b0b0b0;stroke-linecap:square;stroke-width:0.8;"/>
     </g>
     <g id="line2d_32">
      <g>
       <use style="stroke:#000000;stroke-width:0.8;" x="56.12" xlink:href="#meb572d8a03" y="123.770234"/>
      </g>
     </g>
     <g id="text_9">
      <!-- 0.6 -->
      <g transform="translate(23.675 129.848984)scale(0.16 -0.16)">
       <use xlink:href="#DejaVuSans-30"/>
       <use x="63.623047" xlink:href="#DejaVuSans-2e"/>
       <use x="95.410156" xlink:href="#DejaVuSans-36"/>
      </g>
     </g>
    </g>
    <g id="ytick_5">
     <g id="line2d_33">
      <path clip-path="url(#pceaada6c6d)" d="M 56.12 66.733646 
L 333.168 66.733646 
" style="fill:none;stroke:#b0b0b0;stroke-linecap:square;stroke-width:0.8;"/>
     </g>
     <g id="line2d_34">
      <g>
       <use style="stroke:#000000;stroke-width:0.8;" x="56.12" xlink:href="#meb572d8a03" y="66.733646"/>
      </g>
     </g>
     <g id="text_10">
      <!-- 0.8 -->
      <defs>
       <path d="M 31.78125 34.625 
Q 24.75 34.625 20.71875 30.859375 
Q 16.703125 27.09375 16.703125 20.515625 
Q 16.703125 13.921875 20.71875 10.15625 
Q 24.75 6.390625 31.78125 6.390625 
Q 38.8125 6.390625 42.859375 10.171875 
Q 46.921875 13.96875 46.921875 20.515625 
Q 46.921875 27.09375 42.890625 30.859375 
Q 38.875 34.625 31.78125 34.625 
z
M 21.921875 38.8125 
Q 15.578125 40.375 12.03125 44.71875 
Q 8.5 49.078125 8.5 55.328125 
Q 8.5 64.0625 14.71875 69.140625 
Q 20.953125 74.21875 31.78125 74.21875 
Q 42.671875 74.21875 48.875 69.140625 
Q 55.078125 64.0625 55.078125 55.328125 
Q 55.078125 49.078125 51.53125 44.71875 
Q 48 40.375 41.703125 38.8125 
Q 48.828125 37.15625 52.796875 32.3125 
Q 56.78125 27.484375 56.78125 20.515625 
Q 56.78125 9.90625 50.3125 4.234375 
Q 43.84375 -1.421875 31.78125 -1.421875 
Q 19.734375 -1.421875 13.25 4.234375 
Q 6.78125 9.90625 6.78125 20.515625 
Q 6.78125 27.484375 10.78125 32.3125 
Q 14.796875 37.15625 21.921875 38.8125 
z
M 18.3125 54.390625 
Q 18.3125 48.734375 21.84375 45.5625 
Q 25.390625 42.390625 31.78125 42.390625 
Q 38.140625 42.390625 41.71875 45.5625 
Q 45.3125 48.734375 45.3125 54.390625 
Q 45.3125 60.0625 41.71875 63.234375 
Q 38.140625 66.40625 31.78125 66.40625 
Q 25.390625 66.40625 21.84375 63.234375 
Q 18.3125 60.0625 18.3125 54.390625 
z
" id="DejaVuSans-38"/>
      </defs>
      <g transform="translate(23.675 72.812396)scale(0.16 -0.16)">
       <use xlink:href="#DejaVuSans-30"/>
       <use x="63.623047" xlink:href="#DejaVuSans-2e"/>
       <use x="95.410156" xlink:href="#DejaVuSans-38"/>
      </g>
     </g>
    </g>
    <g id="ytick_6">
     <g id="line2d_35">
      <path clip-path="url(#pceaada6c6d)" d="M 56.12 9.697057 
L 333.168 9.697057 
" style="fill:none;stroke:#b0b0b0;stroke-linecap:square;stroke-width:0.8;"/>
     </g>
     <g id="line2d_36">
      <g>
       <use style="stroke:#000000;stroke-width:0.8;" x="56.12" xlink:href="#meb572d8a03" y="9.697057"/>
      </g>
     </g>
     <g id="text_11">
      <!-- 1.0 -->
      <g transform="translate(23.675 15.775807)scale(0.16 -0.16)">
       <use xlink:href="#DejaVuSans-31"/>
       <use x="63.623047" xlink:href="#DejaVuSans-2e"/>
       <use x="95.410156" xlink:href="#DejaVuSans-30"/>
      </g>
     </g>
    </g>
    <g id="text_12">
     <!-- Fraction of function,target pairs -->
     <defs>
      <path d="M 9.8125 72.90625 
L 51.703125 72.90625 
L 51.703125 64.59375 
L 19.671875 64.59375 
L 19.671875 43.109375 
L 48.578125 43.109375 
L 48.578125 34.8125 
L 19.671875 34.8125 
L 19.671875 0 
L 9.8125 0 
z
" id="DejaVuSans-46"/>
      <path d="M 41.109375 46.296875 
Q 39.59375 47.171875 37.8125 47.578125 
Q 36.03125 48 33.890625 48 
Q 26.265625 48 22.1875 43.046875 
Q 18.109375 38.09375 18.109375 28.8125 
L 18.109375 0 
L 9.078125 0 
L 9.078125 54.6875 
L 18.109375 54.6875 
L 18.109375 46.1875 
Q 20.953125 51.171875 25.484375 53.578125 
Q 30.03125 56 36.53125 56 
Q 37.453125 56 38.578125 55.875 
Q 39.703125 55.765625 41.0625 55.515625 
z
" id="DejaVuSans-72"/>
      <path d="M 48.78125 52.59375 
L 48.78125 44.1875 
Q 44.96875 46.296875 41.140625 47.34375 
Q 37.3125 48.390625 33.40625 48.390625 
Q 24.65625 48.390625 19.8125 42.84375 
Q 14.984375 37.3125 14.984375 27.296875 
Q 14.984375 17.28125 19.8125 11.734375 
Q 24.65625 6.203125 33.40625 6.203125 
Q 37.3125 6.203125 41.140625 7.25 
Q 44.96875 8.296875 48.78125 10.40625 
L 48.78125 2.09375 
Q 45.015625 0.34375 40.984375 -0.53125 
Q 36.96875 -1.421875 32.421875 -1.421875 
Q 20.0625 -1.421875 12.78125 6.34375 
Q 5.515625 14.109375 5.515625 27.296875 
Q 5.515625 40.671875 12.859375 48.328125 
Q 20.21875 56 33.015625 56 
Q 37.15625 56 41.109375 55.140625 
Q 45.0625 54.296875 48.78125 52.59375 
z
" id="DejaVuSans-63"/>
      <path d="M 18.3125 70.21875 
L 18.3125 54.6875 
L 36.8125 54.6875 
L 36.8125 47.703125 
L 18.3125 47.703125 
L 18.3125 18.015625 
Q 18.3125 11.328125 20.140625 9.421875 
Q 21.96875 7.515625 27.59375 7.515625 
L 36.8125 7.515625 
L 36.8125 0 
L 27.59375 0 
Q 17.1875 0 13.234375 3.875 
Q 9.28125 7.765625 9.28125 18.015625 
L 9.28125 47.703125 
L 2.6875 47.703125 
L 2.6875 54.6875 
L 9.28125 54.6875 
L 9.28125 70.21875 
z
" id="DejaVuSans-74"/>
      <path d="M 8.5 21.578125 
L 8.5 54.6875 
L 17.484375 54.6875 
L 17.484375 21.921875 
Q 17.484375 14.15625 20.5 10.265625 
Q 23.53125 6.390625 29.59375 6.390625 
Q 36.859375 6.390625 41.078125 11.03125 
Q 45.3125 15.671875 45.3125 23.6875 
L 45.3125 54.6875 
L 54.296875 54.6875 
L 54.296875 0 
L 45.3125 0 
L 45.3125 8.40625 
Q 42.046875 3.421875 37.71875 1 
Q 33.40625 -1.421875 27.6875 -1.421875 
Q 18.265625 -1.421875 13.375 4.4375 
Q 8.5 10.296875 8.5 21.578125 
z
M 31.109375 56 
z
" id="DejaVuSans-75"/>
      <path d="M 11.71875 12.40625 
L 22.015625 12.40625 
L 22.015625 4 
L 14.015625 -11.625 
L 7.71875 -11.625 
L 11.71875 4 
z
" id="DejaVuSans-2c"/>
      <path d="M 18.109375 8.203125 
L 18.109375 -20.796875 
L 9.078125 -20.796875 
L 9.078125 54.6875 
L 18.109375 54.6875 
L 18.109375 46.390625 
Q 20.953125 51.265625 25.265625 53.625 
Q 29.59375 56 35.59375 56 
Q 45.5625 56 51.78125 48.09375 
Q 58.015625 40.1875 58.015625 27.296875 
Q 58.015625 14.40625 51.78125 6.484375 
Q 45.5625 -1.421875 35.59375 -1.421875 
Q 29.59375 -1.421875 25.265625 0.953125 
Q 20.953125 3.328125 18.109375 8.203125 
z
M 48.6875 27.296875 
Q 48.6875 37.203125 44.609375 42.84375 
Q 40.53125 48.484375 33.40625 48.484375 
Q 26.265625 48.484375 22.1875 42.84375 
Q 18.109375 37.203125 18.109375 27.296875 
Q 18.109375 17.390625 22.1875 11.75 
Q 26.265625 6.109375 33.40625 6.109375 
Q 40.53125 6.109375 44.609375 11.75 
Q 48.6875 17.390625 48.6875 27.296875 
z
" id="DejaVuSans-70"/>
     </defs>
     <g transform="translate(16.139531 286.001989)rotate(-90)scale(0.17 -0.17)">
      <use xlink:href="#DejaVuSans-46"/>
      <use x="57.410156" xlink:href="#DejaVuSans-72"/>
      <use x="98.523438" xlink:href="#DejaVuSans-61"/>
      <use x="159.802734" xlink:href="#DejaVuSans-63"/>
      <use x="214.783203" xlink:href="#DejaVuSans-74"/>
      <use x="253.992188" xlink:href="#DejaVuSans-69"/>
      <use x="281.775391" xlink:href="#DejaVuSans-6f"/>
      <use x="342.957031" xlink:href="#DejaVuSans-6e"/>
      <use x="406.335938" xlink:href="#DejaVuSans-20"/>
      <use x="438.123047" xlink:href="#DejaVuSans-6f"/>
      <use x="499.304688" xlink:href="#DejaVuSans-66"/>
      <use x="534.509766" xlink:href="#DejaVuSans-20"/>
      <use x="566.296875" xlink:href="#DejaVuSans-66"/>
      <use x="601.501953" xlink:href="#DejaVuSans-75"/>
      <use x="664.880859" xlink:href="#DejaVuSans-6e"/>
      <use x="728.259766" xlink:href="#DejaVuSans-63"/>
      <use x="783.240234" xlink:href="#DejaVuSans-74"/>
      <use x="822.449219" xlink:href="#DejaVuSans-69"/>
      <use x="850.232422" xlink:href="#DejaVuSans-6f"/>
      <use x="911.414062" xlink:href="#DejaVuSans-6e"/>
      <use x="974.792969" xlink:href="#DejaVuSans-2c"/>
      <use x="1006.580078" xlink:href="#DejaVuSans-74"/>
      <use x="1045.789062" xlink:href="#DejaVuSans-61"/>
      <use x="1107.068359" xlink:href="#DejaVuSans-72"/>
      <use x="1148.166016" xlink:href="#DejaVuSans-67"/>
      <use x="1211.642578" xlink:href="#DejaVuSans-65"/>
      <use x="1273.166016" xlink:href="#DejaVuSans-74"/>
      <use x="1312.375" xlink:href="#DejaVuSans-20"/>
      <use x="1344.162109" xlink:href="#DejaVuSans-70"/>
      <use x="1407.638672" xlink:href="#DejaVuSans-61"/>
      <use x="1468.917969" xlink:href="#DejaVuSans-69"/>
      <use x="1496.701172" xlink:href="#DejaVuSans-72"/>
      <use x="1537.814453" xlink:href="#DejaVuSans-73"/>
     </g>
    </g>
   </g>
   <g id="line2d_37">
    <defs>
     <path d="M 0 1.5 
C 0.397805 1.5 0.77937 1.341951 1.06066 1.06066 
C 1.341951 0.77937 1.5 0.397805 1.5 0 
C 1.5 -0.397805 1.341951 -0.77937 1.06066 -1.06066 
C 0.77937 -1.341951 0.397805 -1.5 0 -1.5 
C -0.397805 -1.5 -0.77937 -1.341951 -1.06066 -1.06066 
C -1.341951 -0.77937 -1.5 -0.397805 -1.5 0 
C -1.5 0.397805 -1.341951 0.77937 -1.06066 1.06066 
C -0.77937 1.341951 -0.397805 1.5 0 1.5 
z
" id="mc3b5780c92" style="stroke:#000080;"/>
    </defs>
    <g>
     <use style="fill:#000080;stroke:#000080;" x="265.660574" xlink:href="#mc3b5780c92" y="115.941683"/>
     <use style="fill:#000080;stroke:#000080;" x="265.660574" xlink:href="#mc3b5780c92" y="115.941683"/>
    </g>
   </g>
   <g id="line2d_38">
    <path d="M 44.205749 294.88 
L 44.205749 278.104533 
L 56.12 278.104533 
L 56.12 266.920888 
L 63.08939 266.920888 
L 63.08939 265.802523 
L 68.034251 265.802523 
L 68.034251 264.684159 
L 71.869783 264.684159 
L 71.869783 263.565795 
L 75.003641 263.565795 
L 75.003641 261.329066 
L 79.948502 261.329066 
L 79.948502 260.769883 
L 88.293717 260.769883 
L 88.293717 259.092337 
L 91.862754 259.092337 
L 91.862754 258.533154 
L 92.904808 258.533154 
L 92.904808 257.973972 
L 98.832144 257.973972 
L 98.832144 257.41479 
L 103.231288 257.41479 
L 103.231288 256.296425 
L 104.305927 256.296425 
L 104.305927 255.178061 
L 108.036969 255.178061 
L 108.036969 254.618879 
L 115.420563 254.618879 
L 115.420563 252.941332 
L 126.496178 252.941332 
L 126.496178 252.38215 
L 129.510254 252.38215 
L 129.510254 250.704603 
L 130.67209 250.704603 
L 130.67209 250.145421 
L 130.784069 250.145421 
L 130.784069 248.467874 
L 132.381685 248.467874 
L 132.381685 247.34951 
L 134.029181 247.34951 
L 134.029181 245.671963 
L 137.14763 245.671963 
L 137.14763 244.553598 
L 138.904592 244.553598 
L 138.904592 242.876052 
L 144.698028 242.876052 
L 144.698028 241.757687 
L 147.698898 241.757687 
L 147.698898 241.198505 
L 150.252912 241.198505 
L 150.288834 240.08014 
L 155.536037 240.08014 
L 155.536037 239.520958 
L 158.4034 239.520958 
L 158.4034 238.961776 
L 162.02272 238.961776 
L 162.02272 238.402594 
L 162.328224 238.402594 
L 162.328224 237.284229 
L 162.871714 237.284229 
L 162.871714 235.606682 
L 164.811664 235.606682 
L 164.811664 234.488318 
L 173.754693 234.488318 
L 173.754693 233.929136 
L 174.957681 233.929136 
L 174.957681 232.810771 
L 175.195237 232.810771 
L 175.195237 232.251589 
L 175.767001 232.251589 
L 175.767001 228.896496 
L 180.882169 228.896496 
L 180.882169 227.778131 
L 182.60823 227.778131 
L 182.60823 227.218949 
L 182.782514 227.218949 
L 182.782514 226.659767 
L 183.571534 226.659767 
L 183.571534 226.100584 
L 184.630326 226.100584 
L 184.630326 225.541402 
L 184.967652 225.541402 
L 184.967652 224.98222 
L 186.156726 224.98222 
L 186.156726 224.423038 
L 186.404303 224.423038 
L 186.404303 223.863855 
L 187.542139 223.863855 
L 187.542139 222.745491 
L 187.89991 222.745491 
L 187.89991 221.067944 
L 190.148294 221.067944 
L 190.211721 219.94958 
L 191.502108 219.94958 
L 191.502108 219.390397 
L 191.828536 219.390397 
L 191.828536 218.272033 
L 193.05472 218.272033 
L 193.05472 217.153669 
L 193.787131 217.153669 
L 193.881144 215.476122 
L 194.224309 215.476122 
L 194.224309 214.357757 
L 194.753569 214.357757 
L 194.804802 212.680211 
L 195.077261 212.680211 
L 195.077261 212.121028 
L 195.785931 212.121028 
L 195.818959 211.002664 
L 196.09092 211.002664 
L 196.09092 208.206753 
L 197.078808 208.206753 
L 197.078808 207.088388 
L 197.205714 207.088388 
L 197.205714 205.970024 
L 197.431347 205.970024 
L 197.431347 203.174112 
L 198.030853 203.174112 
L 198.030853 202.055748 
L 198.252588 202.055748 
L 198.362392 199.819019 
L 198.659709 199.819019 
L 198.687656 198.700655 
L 198.949855 198.700655 
L 198.949855 196.463926 
L 199.394657 196.463926 
L 199.394657 194.786379 
L 199.530179 194.786379 
L 199.609761 192.54965 
L 199.808124 192.54965 
L 199.808124 191.431285 
L 200.174489 191.431285 
L 200.174489 190.312921 
L 200.405396 190.312921 
L 200.405396 189.753739 
L 200.592914 189.753739 
L 200.615971 188.635374 
L 200.806915 188.635374 
L 200.888373 186.398645 
L 200.92613 186.398645 
L 200.973209 183.043552 
L 201.317645 183.043552 
L 201.317645 182.48437 
L 201.464479 182.48437 
L 201.530147 180.806823 
L 201.85299 180.806823 
L 201.85299 180.247641 
L 202.051951 180.247641 
L 202.051951 179.129276 
L 202.201426 179.129276 
L 202.22767 177.451729 
L 202.499974 177.451729 
L 202.587509 175.774183 
L 208.223632 175.774183 
L 208.223632 175.215 
L 208.627114 175.215 
L 208.627114 174.655818 
L 210.018593 174.655818 
L 210.018593 174.096636 
L 210.723912 174.096636 
L 210.723912 173.537454 
L 210.888418 173.537454 
L 210.888418 172.978271 
L 211.107772 172.978271 
L 211.107772 171.859907 
L 211.267629 171.859907 
L 211.267629 171.300725 
L 211.620443 171.300725 
L 211.620443 170.18236 
L 211.815702 170.18236 
L 211.815702 169.063996 
L 212.35072 169.063996 
L 212.35072 168.504814 
L 212.529262 168.504814 
L 212.5772 166.827267 
L 212.707869 166.827267 
L 212.707869 166.268085 
L 212.836609 166.268085 
L 212.836609 164.031356 
L 213.036321 164.031356 
L 213.036321 163.472173 
L 213.500745 163.472173 
L 213.599362 160.676262 
L 213.66689 160.676262 
L 213.768134 157.321169 
L 213.906046 157.321169 
L 213.994438 156.202804 
L 214.034946 156.202804 
L 214.034946 155.643622 
L 214.289015 155.643622 
L 214.336616 154.525258 
L 214.455474 154.525258 
L 214.553898 151.729346 
L 216.312678 151.729346 
L 216.312678 151.170164 
L 219.087 151.170164 
L 219.087 150.610982 
L 219.32399 150.610982 
L 219.32399 150.0518 
L 219.475915 150.0518 
L 219.475915 149.492617 
L 219.703211 149.492617 
L 219.712696 148.374253 
L 219.856224 148.374253 
L 219.856224 147.815071 
L 220.272412 147.815071 
L 220.333493 146.696706 
L 220.416216 146.696706 
L 220.474369 145.578342 
L 220.563639 145.578342 
L 220.563639 145.019159 
L 220.953833 145.019159 
L 221.021333 142.78243 
L 221.469438 142.78243 
L 221.540632 138.868155 
L 225.092146 138.868155 
L 225.092146 138.308973 
L 225.658249 138.308973 
L 225.658249 137.74979 
L 226.095462 137.74979 
L 226.10636 136.631426 
L 226.445518 136.631426 
L 226.445518 136.072244 
L 229.686996 136.072244 
L 229.686996 135.513061 
L 229.985503 135.513061 
L 229.985503 134.953879 
L 230.258733 134.953879 
L 230.334888 132.157968 
L 233.004862 132.157968 
L 233.004862 131.598786 
L 233.182187 131.598786 
L 233.182187 131.039603 
L 233.413057 131.039603 
L 233.472209 129.362057 
L 235.90394 129.362057 
L 235.90394 127.68451 
L 236.111909 127.68451 
L 236.124322 126.566145 
L 238.203967 126.566145 
L 238.203967 125.447781 
L 240.27624 125.447781 
L 240.27624 124.888599 
L 240.447371 124.888599 
L 240.447371 124.329417 
L 245.395117 124.329417 
L 245.395117 123.770234 
L 246.653339 123.770234 
L 246.653339 123.211052 
L 246.771608 123.211052 
L 246.771608 122.65187 
L 247.936202 122.65187 
L 247.936202 122.092688 
L 250.342142 122.092688 
L 250.342142 121.533505 
L 252.282068 121.533505 
L 252.282068 120.974323 
L 253.292468 120.974323 
L 253.297037 119.855959 
L 254.178972 119.855959 
L 254.178972 118.737594 
L 258.689853 118.737594 
L 258.689853 118.178412 
L 261.150093 118.178412 
L 261.150093 117.61923 
L 262.259638 117.61923 
L 262.259638 117.060047 
L 263.800226 117.060047 
L 263.800226 116.500865 
L 265.660574 116.500865 
L 265.660574 115.941683 
L 333.168 115.941683 
L 333.168 115.941683 
" style="fill:none;stroke:#000080;stroke-linecap:square;stroke-width:1.5;"/>
   </g>
   <g id="line2d_39">
    <defs>
     <path d="M 0 6 
C 1.591219 6 3.117479 5.367802 4.242641 4.242641 
C 5.367802 3.117479 6 1.591219 6 0 
C 6 -1.591219 5.367802 -3.117479 4.242641 -4.242641 
C 3.117479 -5.367802 1.591219 -6 0 -6 
C -1.591219 -6 -3.117479 -5.367802 -4.242641 -4.242641 
C -5.367802 -3.117479 -6 -1.591219 -6 0 
C -6 1.591219 -5.367802 3.117479 -4.242641 4.242641 
C -3.117479 5.367802 -1.591219 6 0 6 
z
" id="m993bb9a873" style="stroke:#000080;stroke-width:1.5;"/>
    </defs>
    <g>
     <use style="fill-opacity:0;stroke:#000080;stroke-width:1.5;" x="75.003641" xlink:href="#m993bb9a873" y="263.565795"/>
     <use style="fill-opacity:0;stroke:#000080;stroke-width:1.5;" x="173.754693" xlink:href="#m993bb9a873" y="234.488318"/>
     <use style="fill-opacity:0;stroke:#000080;stroke-width:1.5;" x="202.201426" xlink:href="#m993bb9a873" y="178.570094"/>
     <use style="fill-opacity:0;stroke:#000080;stroke-width:1.5;" x="263.800226" xlink:href="#m993bb9a873" y="116.500865"/>
     <use style="fill-opacity:0;stroke:#000080;stroke-width:1.5;" x="265.660574" xlink:href="#m993bb9a873" y="115.941683"/>
     <use style="fill-opacity:0;stroke:#000080;stroke-width:1.5;" x="333.168" xlink:href="#m993bb9a873" y="115.941683"/>
    </g>
   </g>
   <g id="line2d_40">
    <path style="fill:none;stroke:#000080;stroke-linecap:square;stroke-width:1.5;"/>
    <g/>
   </g>
   <g id="line2d_41">
    <path clip-path="url(#pceaada6c6d)" d="M 202.691626 175.774183 
" style="fill:none;stroke:#000080;stroke-linecap:square;stroke-width:1.5;"/>
    <defs>
     <path d="M -12 12 
L 12 -12 
M -12 -12 
L 12 12 
" id="m0f063899df" style="stroke:#000080;"/>
    </defs>
    <g clip-path="url(#pceaada6c6d)">
     <use style="fill:#000080;stroke:#000080;" x="202.691626" xlink:href="#m0f063899df" y="175.774183"/>
    </g>
   </g>
   <g id="line2d_42">
    <defs>
     <path d="M 0 1.5 
C 0.397805 1.5 0.77937 1.341951 1.06066 1.06066 
C 1.341951 0.77937 1.5 0.397805 1.5 0 
C 1.5 -0.397805 1.341951 -0.77937 1.06066 -1.06066 
C 0.77937 -1.341951 0.397805 -1.5 0 -1.5 
C -0.397805 -1.5 -0.77937 -1.341951 -1.06066 -1.06066 
C -1.341951 -0.77937 -1.5 -0.397805 -1.5 0 
C -1.5 0.397805 -1.341951 0.77937 -1.06066 1.06066 
C -0.77937 1.341951 -0.397805 1.5 0 1.5 
z
" id="m0c1130a135" style="stroke:#ff00ff;"/>
    </defs>
    <g>
     <use style="fill:#ff00ff;stroke:#ff00ff;" x="178.868228" xlink:href="#m0c1130a135" y="9.697057"/>
     <use style="fill:#ff00ff;stroke:#ff00ff;" x="178.868228" xlink:href="#m0c1130a135" y="9.697057"/>
    </g>
   </g>
   <g id="line2d_43">
    <path d="M 44.205749 294.88 
L 44.205749 278.104533 
L 56.12 278.104533 
L 56.12 272.51271 
L 63.08939 272.51271 
L 63.08939 266.920888 
L 68.034251 266.920888 
L 68.034251 265.802523 
L 71.869783 265.802523 
L 71.869783 261.329066 
L 75.003641 261.329066 
L 75.003641 260.210701 
L 79.948502 260.210701 
L 79.948502 258.533154 
L 85.422286 258.533154 
L 85.422286 254.618879 
L 89.567532 254.618879 
L 89.567532 252.941332 
L 90.753425 252.941332 
L 90.753425 251.822967 
L 91.862754 251.822967 
L 91.862754 245.671963 
L 92.904808 245.671963 
L 92.904808 245.112781 
L 93.887283 245.112781 
L 93.887283 243.435234 
L 96.536922 243.435234 
L 96.536922 237.843411 
L 100.207968 237.843411 
L 100.207968 229.455678 
L 101.481783 229.455678 
L 101.481783 227.778131 
L 103.231288 227.778131 
L 103.231288 224.423038 
L 104.305927 224.423038 
L 104.305927 223.863855 
L 105.801534 223.863855 
L 105.801534 223.304673 
L 110.746395 223.304673 
L 110.746395 222.745491 
L 113.999206 222.745491 
L 113.999206 218.272033 
L 115.691256 218.272033 
L 115.691256 214.357757 
L 116.220179 214.357757 
L 116.220179 212.121028 
L 118.417459 212.121028 
L 118.417459 210.443482 
L 121.929105 210.443482 
L 121.929105 208.765935 
L 123.7027 208.765935 
L 123.7027 203.174112 
L 125.463074 203.174112 
L 125.463074 202.61493 
L 134.029181 202.61493 
L 134.029181 200.378201 
L 135.532486 200.378201 
L 135.532486 199.259837 
L 136.278134 199.259837 
L 136.278134 197.58229 
L 136.992776 197.58229 
L 137.070377 184.721099 
L 139.452484 184.721099 
L 139.452484 177.451729 
L 139.653523 177.451729 
L 139.653523 171.300725 
L 140.371179 171.300725 
L 140.371179 170.18236 
L 141.060069 170.18236 
L 141.060069 165.708902 
L 141.3643 165.708902 
L 141.3643 164.590538 
L 142.18857 164.590538 
L 142.18857 164.031356 
L 144.993542 164.031356 
L 144.993542 163.472173 
L 145.569751 163.472173 
L 145.616908 161.794627 
L 147.276552 161.794627 
L 147.276552 156.202804 
L 147.740567 156.202804 
L 147.823604 153.966075 
L 148.151798 153.966075 
L 148.151798 153.406893 
L 149.926191 153.406893 
L 149.962801 148.933435 
L 151.733528 148.933435 
L 151.799385 141.104884 
L 151.995456 141.104884 
L 151.995456 139.986519 
L 152.412754 139.986519 
L 152.412754 138.868155 
L 153.338757 138.868155 
L 153.338757 134.953879 
L 154.751526 134.953879 
L 154.751526 131.598786 
L 155.05333 131.598786 
L 155.05333 130.480421 
L 157.126141 130.480421 
L 157.126141 128.802874 
L 157.554689 128.802874 
L 157.554689 124.329417 
L 157.972811 124.329417 
L 157.995745 117.060047 
L 158.155428 117.060047 
L 158.155428 116.500865 
L 158.358579 116.500865 
L 158.358579 114.264136 
L 158.713912 114.264136 
L 158.713912 112.027407 
L 158.845291 112.027407 
L 158.845291 111.468225 
L 159.297366 111.468225 
L 159.297366 109.790678 
L 159.737856 109.790678 
L 159.841091 108.113132 
L 159.923235 108.113132 
L 159.923235 107.553949 
L 160.187524 107.553949 
L 160.187524 106.994767 
L 160.527113 106.994767 
L 160.527113 103.639674 
L 161.148691 103.639674 
L 161.148691 100.843762 
L 161.376107 100.843762 
L 161.376107 96.929487 
L 161.600554 96.929487 
L 161.600554 94.133576 
L 162.452458 94.133576 
L 162.452458 90.778482 
L 163.531919 90.778482 
L 163.531919 90.2193 
L 163.828282 90.2193 
L 163.893453 85.745842 
L 164.500549 85.745842 
L 164.500549 84.627477 
L 164.873217 84.627477 
L 164.873217 80.15402 
L 165.268026 80.15402 
L 165.268026 77.917291 
L 165.58042 77.917291 
L 165.58042 77.358108 
L 166.400795 77.358108 
L 166.400795 76.239744 
L 167.542594 76.239744 
L 167.621321 74.003015 
L 167.816575 74.003015 
L 167.816575 71.766286 
L 168.009635 71.766286 
L 168.009635 69.529557 
L 168.263721 69.529557 
L 168.263721 68.411192 
L 168.809832 68.411192 
L 168.882975 62.81937 
L 169.040393 62.81937 
L 169.040393 61.141823 
L 169.350967 61.141823 
L 169.350967 57.78673 
L 169.480693 57.78673 
L 169.480693 56.109183 
L 169.760379 56.109183 
L 169.760379 54.431636 
L 169.887063 54.431636 
L 169.887063 53.872454 
L 170.227893 53.872454 
L 170.227893 53.313272 
L 170.495773 53.313272 
L 170.495773 50.517361 
L 170.987066 50.517361 
L 170.987066 49.398996 
L 171.296395 49.398996 
L 171.296395 47.162267 
L 171.433273 47.162267 
L 171.433273 43.247992 
L 171.621015 43.247992 
L 171.714122 39.333716 
L 172.520302 39.333716 
L 172.579268 37.096987 
L 173.280942 37.096987 
L 173.280942 35.978622 
L 173.533377 35.978622 
L 173.533377 34.301076 
L 173.763853 34.301076 
L 173.763853 33.741894 
L 173.891582 33.741894 
L 173.891582 32.623529 
L 174.153183 32.623529 
L 174.171078 28.150071 
L 174.384384 28.150071 
L 174.463696 25.35416 
L 174.880621 25.35416 
L 174.880621 23.676613 
L 175.969557 23.676613 
L 175.969557 21.999066 
L 176.137877 21.999066 
L 176.137877 21.439884 
L 176.695056 21.439884 
L 176.695056 20.880702 
L 176.841147 20.880702 
L 176.841147 20.32152 
L 177.023925 20.32152 
L 177.023925 16.966426 
L 177.189782 16.966426 
L 177.189782 14.729697 
L 177.45039 14.729697 
L 177.45039 11.374604 
L 177.988715 11.374604 
L 177.988715 10.256239 
L 178.868228 10.256239 
L 178.868228 9.697057 
L 333.168 9.697057 
L 333.168 9.697057 
" style="fill:none;stroke:#ff00ff;stroke-linecap:square;stroke-width:1.5;"/>
   </g>
   <g id="line2d_44">
    <defs>
     <path d="M -0 8.485281 
L 5.091169 0 
L 0 -8.485281 
L -5.091169 -0 
z
" id="maa8fe62487" style="stroke:#ff00ff;stroke-linejoin:miter;stroke-width:1.5;"/>
    </defs>
    <g>
     <use style="fill-opacity:0;stroke:#ff00ff;stroke-linejoin:miter;stroke-width:1.5;" x="113.999206" xlink:href="#maa8fe62487" y="218.272033"/>
     <use style="fill-opacity:0;stroke:#ff00ff;stroke-linejoin:miter;stroke-width:1.5;" x="161.600554" xlink:href="#maa8fe62487" y="94.133576"/>
     <use style="fill-opacity:0;stroke:#ff00ff;stroke-linejoin:miter;stroke-width:1.5;" x="178.868228" xlink:href="#maa8fe62487" y="10.256239"/>
     <use style="fill-opacity:0;stroke:#ff00ff;stroke-linejoin:miter;stroke-width:1.5;" x="178.868228" xlink:href="#maa8fe62487" y="9.697057"/>
     <use style="fill-opacity:0;stroke:#ff00ff;stroke-linejoin:miter;stroke-width:1.5;" x="178.868228" xlink:href="#maa8fe62487" y="9.697057"/>
     <use style="fill-opacity:0;stroke:#ff00ff;stroke-linejoin:miter;stroke-width:1.5;" x="333.168" xlink:href="#maa8fe62487" y="9.697057"/>
    </g>
   </g>
   <g id="line2d_45">
    <path style="fill:none;stroke:#ff00ff;stroke-linecap:square;stroke-width:1.5;"/>
    <g/>
   </g>
   <g id="line2d_46">
    <defs>
     <path d="M 0 1.5 
C 0.397805 1.5 0.77937 1.341951 1.06066 1.06066 
C 1.341951 0.77937 1.5 0.397805 1.5 0 
C 1.5 -0.397805 1.341951 -0.77937 1.06066 -1.06066 
C 0.77937 -1.341951 0.397805 -1.5 0 -1.5 
C -0.397805 -1.5 -0.77937 -1.341951 -1.06066 -1.06066 
C -1.341951 -0.77937 -1.5 -0.397805 -1.5 0 
C -1.5 0.397805 -1.341951 0.77937 -1.06066 1.06066 
C -0.77937 1.341951 -0.397805 1.5 0 1.5 
z
" id="mf9c3c6262e" style="stroke:#ffa500;"/>
    </defs>
    <g>
     <use style="fill:#ffa500;stroke:#ffa500;" x="176.50092" xlink:href="#mf9c3c6262e" y="9.697057"/>
     <use style="fill:#ffa500;stroke:#ffa500;" x="176.50092" xlink:href="#mf9c3c6262e" y="9.697057"/>
    </g>
   </g>
   <g id="line2d_47">
    <path d="M 44.205749 294.88 
L 44.205749 263.565795 
L 56.12 263.565795 
L 56.12 257.973972 
L 63.08939 257.973972 
L 63.08939 255.178061 
L 68.034251 255.178061 
L 68.034251 251.263785 
L 71.869783 251.263785 
L 71.869783 250.704603 
L 75.003641 250.704603 
L 75.003641 249.027056 
L 77.653281 249.027056 
L 77.653281 247.908692 
L 83.784035 247.908692 
L 83.784035 246.231145 
L 86.917893 246.231145 
L 86.917893 245.671963 
L 98.100602 245.671963 
L 98.100602 240.639323 
L 99.533818 240.639323 
L 99.533818 237.843411 
L 101.481783 237.843411 
L 101.481783 237.284229 
L 102.667676 237.284229 
L 102.667676 236.725047 
L 104.819059 236.725047 
L 104.819059 236.165865 
L 105.317315 236.165865 
L 105.317315 226.659767 
L 109.250788 226.659767 
L 109.250788 221.627126 
L 113.086321 221.627126 
L 113.086321 219.94958 
L 117.715785 219.94958 
L 117.715785 219.390397 
L 121.359263 219.390397 
L 121.359263 218.272033 
L 125.913457 218.272033 
L 125.913457 213.798575 
L 127.470694 213.798575 
L 127.470694 212.680211 
L 128.39291 212.680211 
L 128.39291 209.884299 
L 128.898495 209.884299 
L 128.898495 200.378201 
L 129.867125 200.378201 
L 129.867125 198.700655 
L 131.865471 198.700655 
L 131.865471 197.023108 
L 135.701004 197.023108 
L 135.701004 195.904743 
L 138.33866 195.904743 
L 138.33866 195.345561 
L 138.834862 195.345561 
L 138.834862 192.54965 
L 139.249066 192.54965 
L 139.249066 189.753739 
L 139.786254 189.753739 
L 139.786254 189.194556 
L 141.898705 189.194556 
L 141.898705 187.51701 
L 142.303162 187.51701 
L 142.303162 185.839463 
L 142.530078 185.839463 
L 142.530078 184.721099 
L 142.754037 184.721099 
L 142.754037 183.602734 
L 142.975116 183.602734 
L 142.975116 181.366005 
L 143.515683 181.366005 
L 143.568817 177.451729 
L 143.779723 177.451729 
L 143.779723 176.892547 
L 145.757607 176.892547 
L 145.757607 174.655818 
L 146.172923 174.655818 
L 146.172923 173.537454 
L 146.533852 173.537454 
L 146.533852 169.623178 
L 147.404349 169.623178 
L 147.489022 167.386449 
L 149.480672 167.386449 
L 149.480672 166.268085 
L 150.431775 166.268085 
L 150.431775 165.14972 
L 150.991943 165.14972 
L 150.991943 164.590538 
L 151.129178 164.590538 
L 151.163317 162.912991 
L 151.299196 162.912991 
L 151.299196 160.676262 
L 151.467548 160.676262 
L 151.467548 160.11708 
L 151.930347 160.11708 
L 151.930347 158.439533 
L 152.28543 158.439533 
L 152.28543 157.321169 
L 152.412754 157.321169 
L 152.412754 155.643622 
L 152.539141 155.643622 
L 152.570594 153.966075 
L 152.726997 153.966075 
L 152.726997 148.933435 
L 152.912822 148.933435 
L 152.912822 147.815071 
L 153.754391 147.815071 
L 153.754391 145.578342 
L 154.217413 145.578342 
L 154.217413 142.78243 
L 155.242663 142.78243 
L 155.242663 141.104884 
L 156.08258 141.104884 
L 156.08258 138.868155 
L 156.2863 138.868155 
L 156.2863 137.190608 
L 156.487633 137.190608 
L 156.587422 132.157968 
L 156.980885 132.157968 
L 156.980885 129.362057 
L 157.341751 129.362057 
L 157.341751 128.243692 
L 157.648488 128.243692 
L 157.648488 127.68451 
L 158.381004 127.68451 
L 158.470412 124.329417 
L 158.537164 124.329417 
L 158.537164 120.415141 
L 159.105074 120.415141 
L 159.169411 116.500865 
L 159.466505 116.500865 
L 159.466505 113.704954 
L 159.633996 113.704954 
L 159.633996 113.145772 
L 160.427929 113.145772 
L 160.427929 112.586589 
L 160.723782 112.586589 
L 160.723782 105.876403 
L 161.262775 105.876403 
L 161.262775 105.31722 
L 161.73014 105.31722 
L 161.73014 96.370304 
L 162.593349 96.370304 
L 162.593349 90.778482 
L 162.785208 90.778482 
L 162.819862 89.660118 
L 162.940606 89.660118 
L 162.940606 87.982571 
L 163.162618 87.982571 
L 163.162618 86.864206 
L 163.280986 86.864206 
L 163.280986 85.745842 
L 163.548519 85.745842 
L 163.548519 85.18666 
L 163.730061 85.18666 
L 163.730061 84.068295 
L 164.610081 84.068295 
L 164.610081 80.15402 
L 164.827073 80.15402 
L 164.888571 74.003015 
L 165.916175 74.003015 
L 165.916175 73.443833 
L 166.088782 73.443833 
L 166.088782 72.88465 
L 166.35858 72.88465 
L 166.35858 72.325468 
L 166.526822 72.325468 
L 166.526822 71.207104 
L 166.734836 71.207104 
L 166.734836 68.970375 
L 167.156915 68.970375 
L 167.156915 68.411192 
L 167.712715 68.411192 
L 167.816575 56.109183 
L 167.958364 56.109183 
L 167.958364 53.313272 
L 168.637944 53.313272 
L 168.748641 51.076543 
L 169.279792 51.076543 
L 169.279792 49.958178 
L 169.398253 49.958178 
L 169.398253 48.839814 
L 169.574428 48.839814 
L 169.574428 46.603085 
L 169.921451 46.603085 
L 170.024207 43.807174 
L 170.035586 43.807174 
L 170.115032 39.333716 
L 170.239138 39.333716 
L 170.239138 37.096987 
L 170.440308 37.096987 
L 170.440308 33.182711 
L 170.759542 33.182711 
L 170.759542 31.505165 
L 170.9763 31.505165 
L 170.9763 30.3868 
L 171.34917 30.3868 
L 171.454235 29.268436 
L 171.847727 29.268436 
L 171.847727 27.590889 
L 172.121938 27.590889 
L 172.182285 19.762337 
L 172.530144 19.762337 
L 172.530144 17.525609 
L 173.148576 17.525609 
L 173.148576 16.407244 
L 173.800444 16.407244 
L 173.800444 14.729697 
L 173.991279 14.729697 
L 173.991279 13.611333 
L 174.340163 13.611333 
L 174.340163 13.052151 
L 174.498828 13.052151 
L 174.498828 11.374604 
L 175.791434 11.374604 
L 175.872628 10.256239 
L 176.50092 10.256239 
L 176.50092 9.697057 
L 333.168 9.697057 
L 333.168 9.697057 
" style="fill:none;stroke:#ffa500;stroke-linecap:square;stroke-width:1.5;"/>
   </g>
   <g id="line2d_48">
    <defs>
     <path d="M 0 -6 
L -1.347084 -1.854102 
L -5.706339 -1.854102 
L -2.179628 0.708204 
L -3.526712 4.854102 
L -0 2.291796 
L 3.526712 4.854102 
L 2.179628 0.708204 
L 5.706339 -1.854102 
L 1.347084 -1.854102 
z
" id="m0c18d14054" style="stroke:#ffa500;stroke-linejoin:bevel;stroke-width:1.5;"/>
    </defs>
    <g>
     <use style="fill-opacity:0;stroke:#ffa500;stroke-linejoin:bevel;stroke-width:1.5;" x="86.917893" xlink:href="#m0c18d14054" y="246.231145"/>
     <use style="fill-opacity:0;stroke:#ffa500;stroke-linejoin:bevel;stroke-width:1.5;" x="147.489022" xlink:href="#m0c18d14054" y="167.386449"/>
     <use style="fill-opacity:0;stroke:#ffa500;stroke-linejoin:bevel;stroke-width:1.5;" x="167.712715" xlink:href="#m0c18d14054" y="65.056099"/>
     <use style="fill-opacity:0;stroke:#ffa500;stroke-linejoin:bevel;stroke-width:1.5;" x="176.50092" xlink:href="#m0c18d14054" y="10.256239"/>
     <use style="fill-opacity:0;stroke:#ffa500;stroke-linejoin:bevel;stroke-width:1.5;" x="176.50092" xlink:href="#m0c18d14054" y="9.697057"/>
     <use style="fill-opacity:0;stroke:#ffa500;stroke-linejoin:bevel;stroke-width:1.5;" x="333.168" xlink:href="#m0c18d14054" y="9.697057"/>
    </g>
   </g>
   <g id="line2d_49">
    <path style="fill:none;stroke:#ffa500;stroke-linecap:square;stroke-width:1.5;"/>
    <g/>
   </g>
   <g id="line2d_50">
    <defs>
     <path d="M 0 1.5 
C 0.397805 1.5 0.77937 1.341951 1.06066 1.06066 
C 1.341951 0.77937 1.5 0.397805 1.5 0 
C 1.5 -0.397805 1.341951 -0.77937 1.06066 -1.06066 
C 0.77937 -1.341951 0.397805 -1.5 0 -1.5 
C -0.397805 -1.5 -0.77937 -1.341951 -1.06066 -1.06066 
C -1.341951 -0.77937 -1.5 -0.397805 -1.5 0 
C -1.5 0.397805 -1.341951 0.77937 -1.06066 1.06066 
C -0.77937 1.341951 -0.397805 1.5 0 1.5 
z
" id="m3b5bc12126" style="stroke:#6495ed;"/>
    </defs>
    <g>
     <use style="fill:#6495ed;stroke:#6495ed;" x="193.25919" xlink:href="#m3b5bc12126" y="9.697057"/>
     <use style="fill:#6495ed;stroke:#6495ed;" x="193.25919" xlink:href="#m3b5bc12126" y="9.697057"/>
    </g>
   </g>
   <g id="line2d_51">
    <path d="M 56.12 294.88 
L 56.12 294.320818 
L 63.08939 294.320818 
L 63.08939 290.965724 
L 68.034251 290.965724 
L 68.034251 288.728995 
L 75.003641 288.728995 
L 75.003641 277.545351 
L 79.948502 277.545351 
L 79.948502 274.749439 
L 83.784035 274.749439 
L 83.784035 273.631075 
L 85.422286 273.631075 
L 85.422286 271.394346 
L 86.917893 271.394346 
L 86.917893 268.039252 
L 89.567532 268.039252 
L 89.567532 264.124977 
L 91.862754 264.124977 
L 91.862754 262.44743 
L 95.698286 262.44743 
L 95.698286 260.769883 
L 96.536922 260.769883 
L 96.536922 256.855608 
L 102.084955 256.855608 
L 102.084955 256.296425 
L 102.667676 256.296425 
L 102.667676 254.059696 
L 104.819059 254.059696 
L 104.819059 252.941332 
L 106.272485 252.941332 
L 106.272485 252.38215 
L 107.612537 252.38215 
L 107.612537 251.822967 
L 108.451173 251.822967 
L 108.451173 251.263785 
L 111.100812 251.263785 
L 111.100812 250.145421 
L 112.770924 250.145421 
L 112.770924 249.027056 
L 115.145539 249.027056 
L 115.145539 248.467874 
L 117.952873 248.467874 
L 117.952873 247.908692 
L 118.417459 247.908692 
L 118.417459 247.34951 
L 121.929105 247.34951 
L 121.929105 243.994416 
L 134.929315 243.994416 
L 134.929315 242.316869 
L 135.190413 242.316869 
L 135.190413 240.639323 
L 136.992776 240.639323 
L 136.992776 238.961776 
L 141.603867 238.961776 
L 141.603867 237.843411 
L 142.015238 237.843411 
L 142.015238 236.165865 
L 142.303162 236.165865 
L 142.303162 235.0475 
L 143.247524 235.0475 
L 143.35529 230.574042 
L 144.039767 230.574042 
L 144.039767 230.01486 
L 145.4275 230.01486 
L 145.4275 228.896496 
L 145.616908 228.896496 
L 145.616908 228.337313 
L 146.887358 228.337313 
L 146.887358 226.659767 
L 147.615255 226.659767 
L 147.615255 226.100584 
L 147.740567 226.100584 
L 147.740567 224.98222 
L 149.329562 224.98222 
L 149.329562 224.423038 
L 150.431775 224.423038 
L 150.431775 223.863855 
L 154.834363 223.863855 
L 154.834363 223.304673 
L 156.736028 223.304673 
L 156.736028 219.94958 
L 156.932191 219.94958 
L 156.932191 214.357757 
L 159.403273 214.357757 
L 159.403273 211.561846 
L 160.782346 211.561846 
L 160.782346 211.002664 
L 161.224831 211.002664 
L 161.224831 208.765935 
L 161.526063 208.765935 
L 161.526063 208.206753 
L 162.274704 208.206753 
L 162.274704 207.088388 
L 162.923409 207.088388 
L 162.957786 205.410841 
L 163.196521 205.410841 
L 163.196521 204.292477 
L 163.713637 204.292477 
L 163.713637 203.733295 
L 165.712585 203.733295 
L 165.785573 200.937384 
L 165.930625 200.937384 
L 166.031439 199.819019 
L 166.512865 199.819019 
L 166.512865 199.259837 
L 166.638076 199.259837 
L 166.638076 197.023108 
L 167.03544 197.023108 
L 167.03544 195.345561 
L 167.803626 195.345561 
L 167.803626 192.54965 
L 168.401884 192.54965 
L 168.401884 190.312921 
L 168.674922 190.312921 
L 168.773143 185.839463 
L 168.943691 185.839463 
L 168.943691 185.280281 
L 169.339125 185.280281 
L 169.433633 182.48437 
L 169.457179 182.48437 
L 169.457179 181.366005 
L 169.875584 181.366005 
L 169.875584 180.806823 
L 170.250376 180.806823 
L 170.250376 178.570094 
L 170.584146 178.570094 
L 170.584146 178.010912 
L 171.443757 178.010912 
L 171.443757 176.892547 
L 172.091685 176.892547 
L 172.091685 175.774183 
L 172.312313 175.774183 
L 172.411669 171.859907 
L 172.948095 171.859907 
L 172.948095 171.300725 
L 173.139082 171.300725 
L 173.139082 170.741543 
L 173.393594 170.741543 
L 173.393594 170.18236 
L 173.588974 170.18236 
L 173.588974 167.945631 
L 173.718004 167.945631 
L 173.718004 167.386449 
L 174.331305 167.386449 
L 174.393214 165.708902 
L 174.472486 165.708902 
L 174.472486 164.031356 
L 174.803214 164.031356 
L 174.803214 162.912991 
L 175.000343 162.912991 
L 175.000343 162.353809 
L 175.228907 162.353809 
L 175.228907 161.794627 
L 175.412924 161.794627 
L 175.412924 159.557898 
L 175.767001 159.557898 
L 175.77515 155.08444 
L 175.888821 155.08444 
L 175.969557 153.966075 
L 176.065942 153.966075 
L 176.065942 153.406893 
L 176.217455 153.406893 
L 176.217455 152.847711 
L 176.532129 152.847711 
L 176.532129 152.288529 
L 176.679606 152.288529 
L 176.779786 147.255888 
L 176.802822 147.255888 
L 176.802822 146.137524 
L 177.031499 146.137524 
L 177.031499 143.900795 
L 177.219766 143.900795 
L 177.219766 143.341613 
L 177.995876 143.341613 
L 178.060186 140.545702 
L 178.152655 140.545702 
L 178.152655 136.631426 
L 178.392173 136.631426 
L 178.448048 134.953879 
L 178.552327 134.953879 
L 178.552327 134.394697 
L 178.690389 134.394697 
L 178.765853 128.802874 
L 178.98352 128.802874 
L 179.037509 123.770234 
L 179.338075 123.770234 
L 179.40416 119.855959 
L 179.456846 119.855959 
L 179.456846 119.296776 
L 179.594382 119.296776 
L 179.70492 114.264136 
L 179.968623 114.264136 
L 180.051399 112.586589 
L 180.108472 112.586589 
L 180.133778 109.231496 
L 180.760694 109.231496 
L 180.760694 108.672314 
L 180.990767 108.672314 
L 180.990767 107.553949 
L 181.170253 107.553949 
L 181.223735 105.31722 
L 181.306601 105.31722 
L 181.306601 102.521309 
L 181.852871 102.521309 
L 181.932765 100.28458 
L 182.068869 100.28458 
L 182.068869 99.725398 
L 182.237496 99.725398 
L 182.326759 98.047851 
L 182.421096 98.047851 
L 182.421096 97.488669 
L 182.787932 97.488669 
L 182.804176 93.015211 
L 182.981851 93.015211 
L 182.981851 92.456029 
L 183.125869 92.456029 
L 183.125869 91.896847 
L 183.34228 91.896847 
L 183.347524 89.660118 
L 183.493723 89.660118 
L 183.587055 83.509113 
L 183.853869 83.509113 
L 183.940206 80.15402 
L 184.005937 80.15402 
L 184.005937 74.003015 
L 184.99626 74.003015 
L 184.99626 73.443833 
L 185.298485 73.443833 
L 185.335893 71.207104 
L 185.429056 71.207104 
L 185.429056 70.088739 
L 185.554031 70.088739 
L 185.609285 66.733646 
L 185.873871 66.733646 
L 185.968674 65.615281 
L 186.067434 65.615281 
L 186.138905 58.905094 
L 186.249986 58.905094 
L 186.285381 51.635725 
L 186.404303 51.635725 
L 186.404303 48.839814 
L 186.669988 48.839814 
L 186.669988 46.043903 
L 186.833445 46.043903 
L 186.940141 43.807174 
L 187.050406 43.807174 
L 187.117912 42.688809 
L 187.227047 42.688809 
L 187.298031 39.892898 
L 187.533921 39.892898 
L 187.632282 36.537805 
L 187.871722 36.537805 
L 187.940098 32.623529 
L 188.317275 32.623529 
L 188.336898 29.268436 
L 188.751569 29.268436 
L 188.82798 27.031707 
L 189.130272 27.031707 
L 189.234831 24.235795 
L 189.920862 24.235795 
L 189.920862 23.676613 
L 190.194125 23.676613 
L 190.194125 22.558249 
L 190.386688 22.558249 
L 190.386688 21.439884 
L 190.625254 21.439884 
L 190.625254 20.880702 
L 190.894391 20.880702 
L 190.965231 17.525609 
L 191.443277 17.525609 
L 191.515155 14.729697 
L 192.022724 14.729697 
L 192.022724 14.170515 
L 192.726677 14.170515 
L 192.790367 10.815422 
L 193.25919 10.815422 
L 193.25919 9.697057 
L 333.168 9.697057 
L 333.168 9.697057 
" style="fill:none;stroke:#6495ed;stroke-linecap:square;stroke-width:1.5;"/>
   </g>
   <g id="line2d_52">
    <defs>
     <path d="M -0 6 
L 6 -6 
L -6 -6 
z
" id="mc43adcd4ac" style="stroke:#6495ed;stroke-linejoin:miter;stroke-width:1.5;"/>
    </defs>
    <g>
     <use style="fill-opacity:0;stroke:#6495ed;stroke-linejoin:miter;stroke-width:1.5;" x="154.834363" xlink:href="#mc43adcd4ac" y="223.863855"/>
     <use style="fill-opacity:0;stroke:#6495ed;stroke-linejoin:miter;stroke-width:1.5;" x="186.833445" xlink:href="#mc43adcd4ac" y="44.925538"/>
     <use style="fill-opacity:0;stroke:#6495ed;stroke-linejoin:miter;stroke-width:1.5;" x="193.25919" xlink:href="#mc43adcd4ac" y="9.697057"/>
     <use style="fill-opacity:0;stroke:#6495ed;stroke-linejoin:miter;stroke-width:1.5;" x="193.25919" xlink:href="#mc43adcd4ac" y="9.697057"/>
     <use style="fill-opacity:0;stroke:#6495ed;stroke-linejoin:miter;stroke-width:1.5;" x="333.168" xlink:href="#mc43adcd4ac" y="9.697057"/>
    </g>
   </g>
   <g id="line2d_53">
    <path style="fill:none;stroke:#6495ed;stroke-linecap:square;stroke-width:1.5;"/>
    <g/>
   </g>
   <g id="line2d_54">
    <defs>
     <path d="M 0 1.5 
C 0.397805 1.5 0.77937 1.341951 1.06066 1.06066 
C 1.341951 0.77937 1.5 0.397805 1.5 0 
C 1.5 -0.397805 1.341951 -0.77937 1.06066 -1.06066 
C 0.77937 -1.341951 0.397805 -1.5 0 -1.5 
C -0.397805 -1.5 -0.77937 -1.341951 -1.06066 -1.06066 
C -1.341951 -0.77937 -1.5 -0.397805 -1.5 0 
C -1.5 0.397805 -1.341951 0.77937 -1.06066 1.06066 
C -0.77937 1.341951 -0.397805 1.5 0 1.5 
z
" id="mce17ffc63b" style="stroke:#ff0000;"/>
    </defs>
    <g>
     <use style="fill:#ff0000;stroke:#ff0000;" x="277.5012" xlink:href="#mce17ffc63b" y="9.697057"/>
     <use style="fill:#ff0000;stroke:#ff0000;" x="277.5012" xlink:href="#mce17ffc63b" y="9.697057"/>
    </g>
   </g>
   <g id="line2d_55">
    <path d="M 44.205749 294.88 
L 44.205749 279.782079 
L 56.12 279.782079 
L 56.12 277.545351 
L 63.08939 277.545351 
L 63.08939 274.190257 
L 68.034251 274.190257 
L 68.034251 273.071893 
L 71.869783 273.071893 
L 71.869783 271.953528 
L 75.003641 271.953528 
L 75.003641 271.394346 
L 77.653281 271.394346 
L 77.653281 270.835164 
L 79.948502 270.835164 
L 79.948502 269.716799 
L 81.973032 269.716799 
L 81.973032 268.598435 
L 83.784035 268.598435 
L 83.784035 268.039252 
L 94.816624 268.039252 
L 94.816624 267.48007 
L 98.832144 267.48007 
L 98.832144 266.361706 
L 100.207968 266.361706 
L 100.207968 265.243341 
L 102.084955 265.243341 
L 102.084955 264.684159 
L 102.667676 264.684159 
L 102.667676 264.124977 
L 103.777005 264.124977 
L 103.777005 263.565795 
L 104.305927 263.565795 
L 104.305927 262.44743 
L 105.317315 262.44743 
L 105.317315 261.888248 
L 110.014853 261.888248 
L 110.014853 261.329066 
L 111.448069 261.329066 
L 111.448069 260.769883 
L 118.417459 260.769883 
L 118.417459 260.210701 
L 120.769881 260.210701 
L 120.769881 258.533154 
L 120.968596 258.533154 
L 120.968596 256.296425 
L 121.741249 256.296425 
L 121.741249 255.737243 
L 122.114929 255.737243 
L 122.114929 255.178061 
L 124.036471 255.178061 
L 124.036471 254.618879 
L 126.352339 254.618879 
L 126.352339 254.059696 
L 131.333273 254.059696 
L 131.333273 253.500514 
L 131.760342 253.500514 
L 131.760342 252.941332 
L 134.841393 252.941332 
L 134.841393 252.38215 
L 135.190413 252.38215 
L 135.190413 251.822967 
L 136.278134 251.822967 
L 136.278134 251.263785 
L 138.834862 251.263785 
L 138.834862 250.704603 
L 138.974042 250.704603 
L 138.974042 249.586238 
L 145.235981 249.586238 
L 145.235981 247.908692 
L 145.710835 247.908692 
L 145.710835 246.790327 
L 151.799385 246.790327 
L 151.799385 246.231145 
L 155.746298 246.231145 
L 155.746298 245.112781 
L 156.562529 245.112781 
L 156.562529 244.553598 
L 159.861664 244.553598 
L 159.861664 243.994416 
L 160.527113 243.994416 
L 160.527113 243.435234 
L 161.968239 243.435234 
L 161.968239 242.876052 
L 164.811664 242.876052 
L 164.85785 241.757687 
L 170.715861 241.757687 
L 170.759542 239.520958 
L 173.252664 239.520958 
L 173.252664 238.402594 
L 174.009344 238.402594 
L 174.009344 237.843411 
L 175.791434 237.843411 
L 175.791434 237.284229 
L 175.993704 237.284229 
L 175.993704 236.725047 
L 178.531522 236.725047 
L 178.531522 234.488318 
L 179.131583 234.488318 
L 179.131583 233.929136 
L 180.222054 233.929136 
L 180.222054 233.369954 
L 184.693475 233.369954 
L 184.693475 232.251589 
L 185.882923 232.251589 
L 185.882923 231.692407 
L 188.485313 231.692407 
L 188.485313 231.133225 
L 190.02429 231.133225 
L 190.02429 230.01486 
L 190.362299 230.01486 
L 190.362299 229.455678 
L 190.673258 229.455678 
L 190.782479 226.100584 
L 191.400662 226.100584 
L 191.400662 223.863855 
L 192.690176 223.863855 
L 192.690176 223.304673 
L 192.971048 223.304673 
L 193.069618 222.186309 
L 193.306258 222.186309 
L 193.400009 219.94958 
L 195.407974 219.94958 
L 195.407974 219.390397 
L 196.405318 219.390397 
L 196.405318 217.153669 
L 196.561601 217.153669 
L 196.561601 216.594486 
L 197.553392 216.594486 
L 197.553392 213.798575 
L 198.899008 213.798575 
L 198.899008 213.239393 
L 199.185176 213.239393 
L 199.185176 212.680211 
L 199.77791 212.680211 
L 199.77791 211.561846 
L 200.589068 211.561846 
L 200.589068 209.884299 
L 200.935556 209.884299 
L 200.96004 208.206753 
L 202.387759 208.206753 
L 202.387759 207.64757 
L 202.684818 207.64757 
L 202.684818 206.529206 
L 203.020291 206.529206 
L 203.108544 205.410841 
L 203.288635 205.410841 
L 203.288635 204.851659 
L 205.955172 204.851659 
L 205.990321 203.174112 
L 206.461348 203.174112 
L 206.461348 202.61493 
L 206.807675 202.61493 
L 206.807675 202.055748 
L 208.930436 202.055748 
L 208.930436 201.496566 
L 209.413636 201.496566 
L 209.523768 200.378201 
L 209.626381 200.378201 
L 209.626381 199.259837 
L 209.8713 199.259837 
L 209.8713 197.023108 
L 210.145897 197.023108 
L 210.145897 196.463926 
L 210.322552 196.463926 
L 210.322552 194.786379 
L 210.459549 194.786379 
L 210.545967 190.872103 
L 211.347003 190.872103 
L 211.347003 190.312921 
L 211.653814 190.312921 
L 211.748518 187.51701 
L 211.8127 187.51701 
L 211.8127 186.957828 
L 212.228047 186.957828 
L 212.228047 186.398645 
L 212.941911 186.398645 
L 212.941911 185.839463 
L 213.210685 185.839463 
L 213.210685 185.280281 
L 213.586727 185.280281 
L 213.586727 183.602734 
L 213.750258 183.602734 
L 213.76188 181.925187 
L 214.602473 181.925187 
L 214.602473 180.806823 
L 214.8156 180.806823 
L 214.915332 178.570094 
L 215.897064 178.570094 
L 215.897064 178.010912 
L 216.090135 178.010912 
L 216.090135 177.451729 
L 216.593876 177.451729 
L 216.593876 176.892547 
L 217.304309 176.892547 
L 217.384842 175.774183 
L 217.54335 175.774183 
L 217.54335 175.215 
L 218.293409 175.215 
L 218.359192 173.537454 
L 218.44243 173.537454 
L 218.44243 172.978271 
L 218.662224 172.978271 
L 218.662224 171.859907 
L 218.841378 171.859907 
L 218.924966 167.386449 
L 218.998927 167.386449 
L 218.998927 166.827267 
L 219.47271 166.827267 
L 219.47271 165.708902 
L 219.664585 165.708902 
L 219.764453 161.235444 
L 220.027138 161.235444 
L 220.027138 159.557898 
L 220.484042 159.557898 
L 220.484042 158.998715 
L 220.902592 158.998715 
L 221.009613 155.643622 
L 221.48199 155.643622 
L 221.572998 154.525258 
L 222.299457 154.525258 
L 222.299457 153.966075 
L 222.446744 153.966075 
L 222.446744 153.406893 
L 222.578874 153.406893 
L 222.578874 152.288529 
L 222.92581 152.288529 
L 222.92581 151.729346 
L 223.83223 151.729346 
L 223.83223 150.610982 
L 224.119322 150.610982 
L 224.210071 148.933435 
L 224.511545 148.933435 
L 224.609763 145.019159 
L 225.107395 145.019159 
L 225.180214 142.223248 
L 225.372299 142.223248 
L 225.372299 141.664066 
L 225.836684 141.664066 
L 225.836684 141.104884 
L 226.018106 141.104884 
L 226.103309 138.868155 
L 226.450218 138.868155 
L 226.450218 138.308973 
L 227.177843 138.308973 
L 227.177843 137.74979 
L 227.965711 137.74979 
L 227.965711 137.190608 
L 228.462592 137.190608 
L 228.545225 133.276332 
L 228.76801 133.276332 
L 228.814978 131.039603 
L 229.234915 131.039603 
L 229.292216 129.362057 
L 229.443611 129.362057 
L 229.443611 127.68451 
L 229.955222 127.68451 
L 230.018507 126.566145 
L 230.299755 126.566145 
L 230.354299 125.447781 
L 230.964828 125.447781 
L 230.964828 124.888599 
L 231.521689 124.888599 
L 231.521689 124.329417 
L 231.797723 124.329417 
L 231.797723 123.770234 
L 231.926797 123.770234 
L 231.994376 122.092688 
L 232.176871 122.092688 
L 232.215398 119.296776 
L 232.470368 119.296776 
L 232.470368 118.737594 
L 232.607947 118.737594 
L 232.607947 118.178412 
L 232.912723 118.178412 
L 232.912723 117.61923 
L 233.156471 117.61923 
L 233.209018 116.500865 
L 233.288686 116.500865 
L 233.288686 115.941683 
L 233.755464 115.941683 
L 233.755464 115.382501 
L 233.998646 115.382501 
L 233.998646 114.823318 
L 234.178051 114.823318 
L 234.178051 114.264136 
L 234.833768 114.264136 
L 234.914099 113.145772 
L 235.020281 113.145772 
L 235.081918 109.790678 
L 235.363962 109.790678 
L 235.386327 106.994767 
L 235.854085 106.994767 
L 235.902215 103.639674 
L 236.650959 103.639674 
L 236.731001 102.521309 
L 236.791022 102.521309 
L 236.791022 101.962127 
L 236.954313 101.962127 
L 236.954313 101.402945 
L 237.142917 101.402945 
L 237.142917 100.843762 
L 237.275859 100.843762 
L 237.325391 99.166216 
L 237.487753 99.166216 
L 237.487753 98.047851 
L 237.763326 98.047851 
L 237.870044 94.692758 
L 238.033244 94.692758 
L 238.033244 94.133576 
L 238.224435 94.133576 
L 238.224435 93.574393 
L 239.433036 93.574393 
L 239.476734 91.337664 
L 239.595041 91.337664 
L 239.620074 89.660118 
L 239.845314 89.660118 
L 239.876246 87.982571 
L 240.272418 87.982571 
L 240.272418 86.864206 
L 240.42541 86.864206 
L 240.42541 86.305024 
L 241.349426 86.305024 
L 241.388519 84.068295 
L 241.516827 84.068295 
L 241.516827 82.390748 
L 241.746412 82.390748 
L 241.746412 81.831566 
L 242.070859 81.831566 
L 242.102161 80.15402 
L 242.239766 80.15402 
L 242.303062 78.476473 
L 243.073425 78.476473 
L 243.073425 77.917291 
L 243.204626 77.917291 
L 243.204626 77.358108 
L 243.422738 77.358108 
L 243.422738 76.239744 
L 243.727301 76.239744 
L 243.755731 74.562197 
L 244.287141 74.562197 
L 244.287141 73.443833 
L 244.48095 73.443833 
L 244.48095 72.88465 
L 244.640162 72.88465 
L 244.640162 72.325468 
L 244.759973 72.325468 
L 244.759973 71.207104 
L 244.968635 71.207104 
L 244.968635 70.088739 
L 245.238053 70.088739 
L 245.264092 68.411192 
L 245.751483 68.411192 
L 245.751483 67.85201 
L 246.20325 67.85201 
L 246.20325 66.733646 
L 246.357142 66.733646 
L 246.369748 64.496917 
L 247.503073 64.496917 
L 247.518879 63.378552 
L 247.673163 63.378552 
L 247.673163 62.260188 
L 247.911464 62.260188 
L 247.933754 59.464277 
L 248.562615 59.464277 
L 248.631154 57.78673 
L 248.740929 57.78673 
L 248.740929 57.227548 
L 248.87378 57.227548 
L 248.89208 56.109183 
L 249.779129 56.109183 
L 249.881833 53.313272 
L 249.973495 53.313272 
L 250.006183 52.194907 
L 250.9517 52.194907 
L 250.9517 51.076543 
L 251.078156 51.076543 
L 251.084678 49.398996 
L 251.273874 49.398996 
L 251.292207 47.162267 
L 251.946652 47.162267 
L 251.958859 44.925538 
L 252.078143 44.925538 
L 252.084297 42.688809 
L 252.910257 42.688809 
L 253.01458 41.570445 
L 253.811744 41.570445 
L 253.918877 39.892898 
L 253.924406 39.892898 
L 253.924406 38.774534 
L 254.668299 38.774534 
L 254.775501 36.537805 
L 255.484188 36.537805 
L 255.586435 33.741894 
L 255.732221 33.741894 
L 255.746367 32.623529 
L 256.253595 32.623529 
L 256.326385 30.945982 
L 257.008235 30.945982 
L 257.10183 29.268436 
L 257.672542 29.268436 
L 257.672542 28.709253 
L 258.399702 28.709253 
L 258.494382 25.35416 
L 259.067462 25.35416 
L 259.067462 23.117431 
L 259.280611 23.117431 
L 259.280611 22.558249 
L 259.644545 22.558249 
L 259.7543 20.880702 
L 259.778589 20.880702 
L 259.778589 20.32152 
L 261.546482 20.32152 
L 261.55003 19.203155 
L 262.031068 19.203155 
L 262.031068 18.643973 
L 262.567061 18.643973 
L 262.567061 18.084791 
L 264.081509 18.084791 
L 264.143587 16.966426 
L 264.232349 16.966426 
L 264.232349 16.407244 
L 264.558057 16.407244 
L 264.558057 15.848062 
L 265.016041 15.848062 
L 265.016041 15.28888 
L 265.47326 15.28888 
L 265.47326 14.729697 
L 265.966283 14.729697 
L 266.05663 13.611333 
L 269.122233 13.611333 
L 269.122233 13.052151 
L 271.478194 13.052151 
L 271.478194 12.492968 
L 272.653571 12.492968 
L 272.653571 11.933786 
L 274.329896 11.933786 
L 274.329896 11.374604 
L 274.594051 11.374604 
L 274.594051 10.815422 
L 276.572753 10.815422 
L 276.572753 10.256239 
L 277.5012 10.256239 
L 277.5012 9.697057 
L 333.168 9.697057 
L 333.168 9.697057 
" style="fill:none;stroke:#ff0000;stroke-linecap:square;stroke-width:1.5;"/>
   </g>
   <g id="line2d_56">
    <defs>
     <path d="M 0 -6 
L -5.196152 -3 
L -5.196152 3 
L -0 6 
L 5.196152 3 
L 5.196152 -3 
z
" id="ma9f562a237" style="stroke:#ff0000;stroke-linejoin:miter;stroke-width:1.5;"/>
    </defs>
    <g>
     <use style="fill-opacity:0;stroke:#ff0000;stroke-linejoin:miter;stroke-width:1.5;" x="79.948502" xlink:href="#ma9f562a237" y="269.716799"/>
     <use style="fill-opacity:0;stroke:#ff0000;stroke-linejoin:miter;stroke-width:1.5;" x="155.746298" xlink:href="#ma9f562a237" y="245.112781"/>
     <use style="fill-opacity:0;stroke:#ff0000;stroke-linejoin:miter;stroke-width:1.5;" x="226.103309" xlink:href="#ma9f562a237" y="138.868155"/>
     <use style="fill-opacity:0;stroke:#ff0000;stroke-linejoin:miter;stroke-width:1.5;" x="262.567061" xlink:href="#ma9f562a237" y="18.084791"/>
     <use style="fill-opacity:0;stroke:#ff0000;stroke-linejoin:miter;stroke-width:1.5;" x="277.5012" xlink:href="#ma9f562a237" y="9.697057"/>
     <use style="fill-opacity:0;stroke:#ff0000;stroke-linejoin:miter;stroke-width:1.5;" x="333.168" xlink:href="#ma9f562a237" y="9.697057"/>
    </g>
   </g>
   <g id="line2d_57">
    <path style="fill:none;stroke:#ff0000;stroke-linecap:square;stroke-width:1.5;"/>
    <g/>
   </g>
   <g id="line2d_58">
    <path clip-path="url(#pceaada6c6d)" d="M 202.691626 206.529206 
" style="fill:none;stroke:#ff0000;stroke-linecap:square;stroke-width:1.5;"/>
    <defs>
     <path d="M -12 12 
L 12 -12 
M -12 -12 
L 12 12 
" id="m8ca846bb0c" style="stroke:#ff0000;"/>
    </defs>
    <g clip-path="url(#pceaada6c6d)">
     <use style="fill:#ff0000;stroke:#ff0000;" x="202.691626" xlink:href="#m8ca846bb0c" y="206.529206"/>
    </g>
   </g>
   <g id="line2d_59">
    <path d="M 333.168 115.941683 
L 363.64328 289.176341 
" style="fill:none;stroke:#000080;stroke-linecap:square;stroke-width:1.5;"/>
    <g>
     <use style="fill-opacity:0;stroke:#000080;stroke-width:1.5;" x="333.168" xlink:href="#m993bb9a873" y="115.941683"/>
     <use style="fill-opacity:0;stroke:#000080;stroke-width:1.5;" x="363.64328" xlink:href="#m993bb9a873" y="289.176341"/>
    </g>
   </g>
   <g id="line2d_60">
    <path d="M 333.168 9.697057 
L 363.64328 220.732435 
" style="fill:none;stroke:#ff0000;stroke-linecap:square;stroke-width:1.5;"/>
    <g>
     <use style="fill-opacity:0;stroke:#ff0000;stroke-linejoin:miter;stroke-width:1.5;" x="333.168" xlink:href="#ma9f562a237" y="9.697057"/>
     <use style="fill-opacity:0;stroke:#ff0000;stroke-linejoin:miter;stroke-width:1.5;" x="363.64328" xlink:href="#ma9f562a237" y="220.732435"/>
    </g>
   </g>
   <g id="line2d_61">
    <path d="M 333.168 9.697057 
L 363.64328 152.288529 
" style="fill:none;stroke:#6495ed;stroke-linecap:square;stroke-width:1.5;"/>
    <g>
     <use style="fill-opacity:0;stroke:#6495ed;stroke-linejoin:miter;stroke-width:1.5;" x="333.168" xlink:href="#mc43adcd4ac" y="9.697057"/>
     <use style="fill-opacity:0;stroke:#6495ed;stroke-linejoin:miter;stroke-width:1.5;" x="363.64328" xlink:href="#mc43adcd4ac" y="152.288529"/>
    </g>
   </g>
   <g id="line2d_62">
    <path d="M 333.168 9.697057 
L 363.64328 83.844622 
" style="fill:none;stroke:#ff00ff;stroke-linecap:square;stroke-width:1.5;"/>
    <g>
     <use style="fill-opacity:0;stroke:#ff00ff;stroke-linejoin:miter;stroke-width:1.5;" x="333.168" xlink:href="#maa8fe62487" y="9.697057"/>
     <use style="fill-opacity:0;stroke:#ff00ff;stroke-linejoin:miter;stroke-width:1.5;" x="363.64328" xlink:href="#maa8fe62487" y="83.844622"/>
    </g>
   </g>
   <g id="line2d_63">
    <path d="M 333.168 9.697057 
L 363.64328 15.400716 
" style="fill:none;stroke:#ffa500;stroke-linecap:square;stroke-width:1.5;"/>
    <g>
     <use style="fill-opacity:0;stroke:#ffa500;stroke-linejoin:bevel;stroke-width:1.5;" x="333.168" xlink:href="#m0c18d14054" y="9.697057"/>
     <use style="fill-opacity:0;stroke:#ffa500;stroke-linejoin:bevel;stroke-width:1.5;" x="363.64328" xlink:href="#m0c18d14054" y="15.400716"/>
    </g>
   </g>
   <g id="line2d_64">
    <path d="M 333.168 294.88 
L 333.168 9.697057 
" style="fill:none;stroke:#000000;stroke-linecap:square;stroke-width:1.5;"/>
   </g>
   <g id="patch_3">
    <path d="M 56.12 294.88 
L 56.12 6.845228 
" style="fill:none;stroke:#000000;stroke-linecap:square;stroke-linejoin:miter;stroke-width:0.8;"/>
   </g>
   <g id="patch_4">
    <path d="M 333.168 294.88 
L 333.168 6.845228 
" style="fill:none;stroke:#000000;stroke-linecap:square;stroke-linejoin:miter;stroke-width:0.8;"/>
   </g>
   <g id="patch_5">
    <path d="M 56.12 294.88 
L 333.168 294.88 
" style="fill:none;stroke:#000000;stroke-linecap:square;stroke-linejoin:miter;stroke-width:0.8;"/>
   </g>
   <g id="patch_6">
    <path d="M 56.12 6.845228 
L 333.168 6.845228 
" style="fill:none;stroke:#000000;stroke-linecap:square;stroke-linejoin:miter;stroke-width:0.8;"/>
   </g>
   <g id="text_13">
    <!-- f23 -->
    <defs>
     <path d="M 40.578125 39.3125 
Q 47.65625 37.796875 51.625 33 
Q 55.609375 28.21875 55.609375 21.1875 
Q 55.609375 10.40625 48.1875 4.484375 
Q 40.765625 -1.421875 27.09375 -1.421875 
Q 22.515625 -1.421875 17.65625 -0.515625 
Q 12.796875 0.390625 7.625 2.203125 
L 7.625 11.71875 
Q 11.71875 9.328125 16.59375 8.109375 
Q 21.484375 6.890625 26.8125 6.890625 
Q 36.078125 6.890625 40.9375 10.546875 
Q 45.796875 14.203125 45.796875 21.1875 
Q 45.796875 27.640625 41.28125 31.265625 
Q 36.765625 34.90625 28.71875 34.90625 
L 20.21875 34.90625 
L 20.21875 43.015625 
L 29.109375 43.015625 
Q 36.375 43.015625 40.234375 45.921875 
Q 44.09375 48.828125 44.09375 54.296875 
Q 44.09375 59.90625 40.109375 62.90625 
Q 36.140625 65.921875 28.71875 65.921875 
Q 24.65625 65.921875 20.015625 65.03125 
Q 15.375 64.15625 9.8125 62.3125 
L 9.8125 71.09375 
Q 15.4375 72.65625 20.34375 73.4375 
Q 25.25 74.21875 29.59375 74.21875 
Q 40.828125 74.21875 47.359375 69.109375 
Q 53.90625 64.015625 53.90625 55.328125 
Q 53.90625 49.265625 50.4375 45.09375 
Q 46.96875 40.921875 40.578125 39.3125 
z
" id="DejaVuSans-33"/>
    </defs>
    <g transform="translate(369.18424 293.867279)scale(0.17 -0.17)">
     <use xlink:href="#DejaVuSans-66"/>
     <use x="35.205078" xlink:href="#DejaVuSans-32"/>
     <use x="98.828125" xlink:href="#DejaVuSans-33"/>
    </g>
   </g>
   <g id="text_14">
    <!-- f24 -->
    <g transform="translate(369.18424 225.423372)scale(0.17 -0.17)">
     <use xlink:href="#DejaVuSans-66"/>
     <use x="35.205078" xlink:href="#DejaVuSans-32"/>
     <use x="98.828125" xlink:href="#DejaVuSans-34"/>
    </g>
   </g>
   <g id="text_15">
    <!-- f20 -->
    <g transform="translate(369.18424 156.979466)scale(0.17 -0.17)">
     <use xlink:href="#DejaVuSans-66"/>
     <use x="35.205078" xlink:href="#DejaVuSans-32"/>
     <use x="98.828125" xlink:href="#DejaVuSans-30"/>
    </g>
   </g>
   <g id="text_16">
    <!-- f22 -->
    <g transform="translate(369.18424 88.53556)scale(0.17 -0.17)">
     <use xlink:href="#DejaVuSans-66"/>
     <use x="35.205078" xlink:href="#DejaVuSans-32"/>
     <use x="98.828125" xlink:href="#DejaVuSans-32"/>
    </g>
   </g>
   <g id="text_17">
    <!-- f21 -->
    <g transform="translate(369.18424 20.091654)scale(0.17 -0.17)">
     <use xlink:href="#DejaVuSans-66"/>
     <use x="35.205078" xlink:href="#DejaVuSans-32"/>
     <use x="98.828125" xlink:href="#DejaVuSans-31"/>
    </g>
   </g>
   <g id="text_18">
    <!-- bbob -->
    <defs>
     <path d="M 48.6875 27.296875 
Q 48.6875 37.203125 44.609375 42.84375 
Q 40.53125 48.484375 33.40625 48.484375 
Q 26.265625 48.484375 22.1875 42.84375 
Q 18.109375 37.203125 18.109375 27.296875 
Q 18.109375 17.390625 22.1875 11.75 
Q 26.265625 6.109375 33.40625 6.109375 
Q 40.53125 6.109375 44.609375 11.75 
Q 48.6875 17.390625 48.6875 27.296875 
z
M 18.109375 46.390625 
Q 20.953125 51.265625 25.265625 53.625 
Q 29.59375 56 35.59375 56 
Q 45.5625 56 51.78125 48.09375 
Q 58.015625 40.1875 58.015625 27.296875 
Q 58.015625 14.40625 51.78125 6.484375 
Q 45.5625 -1.421875 35.59375 -1.421875 
Q 29.59375 -1.421875 25.265625 0.953125 
Q 20.953125 3.328125 18.109375 8.203125 
L 18.109375 0 
L 9.078125 0 
L 9.078125 75.984375 
L 18.109375 75.984375 
z
" id="DejaVuSans-62"/>
    </defs>
    <g transform="translate(58.89048 17.475982)scale(0.102 -0.102)">
     <use xlink:href="#DejaVuSans-62"/>
     <use x="63.476562" xlink:href="#DejaVuSans-62"/>
     <use x="126.953125" xlink:href="#DejaVuSans-6f"/>
     <use x="188.134766" xlink:href="#DejaVuSans-62"/>
    </g>
    <!-- Weak structure functions, 2-D -->
    <defs>
     <path d="M 3.328125 72.90625 
L 13.28125 72.90625 
L 28.609375 11.28125 
L 43.890625 72.90625 
L 54.984375 72.90625 
L 70.3125 11.28125 
L 85.59375 72.90625 
L 95.609375 72.90625 
L 77.296875 0 
L 64.890625 0 
L 49.515625 63.28125 
L 33.984375 0 
L 21.578125 0 
z
" id="DejaVuSans-57"/>
     <path d="M 9.078125 75.984375 
L 18.109375 75.984375 
L 18.109375 31.109375 
L 44.921875 54.6875 
L 56.390625 54.6875 
L 27.390625 29.109375 
L 57.625 0 
L 45.90625 0 
L 18.109375 26.703125 
L 18.109375 0 
L 9.078125 0 
z
" id="DejaVuSans-6b"/>
     <path d="M 19.671875 64.796875 
L 19.671875 8.109375 
L 31.59375 8.109375 
Q 46.6875 8.109375 53.6875 14.9375 
Q 60.6875 21.78125 60.6875 36.53125 
Q 60.6875 51.171875 53.6875 57.984375 
Q 46.6875 64.796875 31.59375 64.796875 
z
M 9.8125 72.90625 
L 30.078125 72.90625 
Q 51.265625 72.90625 61.171875 64.09375 
Q 71.09375 55.28125 71.09375 36.53125 
Q 71.09375 17.671875 61.125 8.828125 
Q 51.171875 0 30.078125 0 
L 9.8125 0 
z
" id="DejaVuSans-44"/>
    </defs>
    <g transform="translate(58.89048 28.89775)scale(0.102 -0.102)">
     <use xlink:href="#DejaVuSans-57"/>
     <use x="98.798828" xlink:href="#DejaVuSans-65"/>
     <use x="160.322266" xlink:href="#DejaVuSans-61"/>
     <use x="221.601562" xlink:href="#DejaVuSans-6b"/>
     <use x="279.511719" xlink:href="#DejaVuSans-20"/>
     <use x="311.298828" xlink:href="#DejaVuSans-73"/>
     <use x="363.398438" xlink:href="#DejaVuSans-74"/>
     <use x="402.607422" xlink:href="#DejaVuSans-72"/>
     <use x="443.720703" xlink:href="#DejaVuSans-75"/>
     <use x="507.099609" xlink:href="#DejaVuSans-63"/>
     <use x="562.080078" xlink:href="#DejaVuSans-74"/>
     <use x="601.289062" xlink:href="#DejaVuSans-75"/>
     <use x="664.667969" xlink:href="#DejaVuSans-72"/>
     <use x="705.75" xlink:href="#DejaVuSans-65"/>
     <use x="767.273438" xlink:href="#DejaVuSans-20"/>
     <use x="799.060547" xlink:href="#DejaVuSans-66"/>
     <use x="834.265625" xlink:href="#DejaVuSans-75"/>
     <use x="897.644531" xlink:href="#DejaVuSans-6e"/>
     <use x="961.023438" xlink:href="#DejaVuSans-63"/>
     <use x="1016.003906" xlink:href="#DejaVuSans-74"/>
     <use x="1055.212891" xlink:href="#DejaVuSans-69"/>
     <use x="1082.996094" xlink:href="#DejaVuSans-6f"/>
     <use x="1144.177734" xlink:href="#DejaVuSans-6e"/>
     <use x="1207.556641" xlink:href="#DejaVuSans-73"/>
     <use x="1259.65625" xlink:href="#DejaVuSans-2c"/>
     <use x="1291.443359" xlink:href="#DejaVuSans-20"/>
     <use x="1323.230469" xlink:href="#DejaVuSans-32"/>
     <use x="1386.853516" xlink:href="#DejaVuSans-2d"/>
     <use x="1422.9375" xlink:href="#DejaVuSans-44"/>
    </g>
    <!-- 51 targets: 100..1e-08 -->
    <defs>
     <path d="M 10.796875 72.90625 
L 49.515625 72.90625 
L 49.515625 64.59375 
L 19.828125 64.59375 
L 19.828125 46.734375 
Q 21.96875 47.46875 24.109375 47.828125 
Q 26.265625 48.1875 28.421875 48.1875 
Q 40.625 48.1875 47.75 41.5 
Q 54.890625 34.8125 54.890625 23.390625 
Q 54.890625 11.625 47.5625 5.09375 
Q 40.234375 -1.421875 26.90625 -1.421875 
Q 22.3125 -1.421875 17.546875 -0.640625 
Q 12.796875 0.140625 7.71875 1.703125 
L 7.71875 11.625 
Q 12.109375 9.234375 16.796875 8.0625 
Q 21.484375 6.890625 26.703125 6.890625 
Q 35.15625 6.890625 40.078125 11.328125 
Q 45.015625 15.765625 45.015625 23.390625 
Q 45.015625 31 40.078125 35.4375 
Q 35.15625 39.890625 26.703125 39.890625 
Q 22.75 39.890625 18.8125 39.015625 
Q 14.890625 38.140625 10.796875 36.28125 
z
" id="DejaVuSans-35"/>
     <path d="M 11.71875 12.40625 
L 22.015625 12.40625 
L 22.015625 0 
L 11.71875 0 
z
M 11.71875 51.703125 
L 22.015625 51.703125 
L 22.015625 39.3125 
L 11.71875 39.3125 
z
" id="DejaVuSans-3a"/>
    </defs>
    <g transform="translate(58.89048 40.319519)scale(0.102 -0.102)">
     <use xlink:href="#DejaVuSans-35"/>
     <use x="63.623047" xlink:href="#DejaVuSans-31"/>
     <use x="127.246094" xlink:href="#DejaVuSans-20"/>
     <use x="159.033203" xlink:href="#DejaVuSans-74"/>
     <use x="198.242188" xlink:href="#DejaVuSans-61"/>
     <use x="259.521484" xlink:href="#DejaVuSans-72"/>
     <use x="300.619141" xlink:href="#DejaVuSans-67"/>
     <use x="364.095703" xlink:href="#DejaVuSans-65"/>
     <use x="425.619141" xlink:href="#DejaVuSans-74"/>
     <use x="464.828125" xlink:href="#DejaVuSans-73"/>
     <use x="516.927734" xlink:href="#DejaVuSans-3a"/>
     <use x="550.619141" xlink:href="#DejaVuSans-20"/>
     <use x="582.40625" xlink:href="#DejaVuSans-31"/>
     <use x="646.029297" xlink:href="#DejaVuSans-30"/>
     <use x="709.652344" xlink:href="#DejaVuSans-30"/>
     <use x="773.275391" xlink:href="#DejaVuSans-2e"/>
     <use x="805.0625" xlink:href="#DejaVuSans-2e"/>
     <use x="836.849609" xlink:href="#DejaVuSans-31"/>
     <use x="900.472656" xlink:href="#DejaVuSans-65"/>
     <use x="961.996094" xlink:href="#DejaVuSans-2d"/>
     <use x="998.080078" xlink:href="#DejaVuSans-30"/>
     <use x="1061.703125" xlink:href="#DejaVuSans-38"/>
    </g>
    <!-- 15 instances -->
    <g transform="translate(58.89048 51.741288)scale(0.102 -0.102)">
     <use xlink:href="#DejaVuSans-31"/>
     <use x="63.623047" xlink:href="#DejaVuSans-35"/>
     <use x="127.246094" xlink:href="#DejaVuSans-20"/>
     <use x="159.033203" xlink:href="#DejaVuSans-69"/>
     <use x="186.816406" xlink:href="#DejaVuSans-6e"/>
     <use x="250.195312" xlink:href="#DejaVuSans-73"/>
     <use x="302.294922" xlink:href="#DejaVuSans-74"/>
     <use x="341.503906" xlink:href="#DejaVuSans-61"/>
     <use x="402.783203" xlink:href="#DejaVuSans-6e"/>
     <use x="466.162109" xlink:href="#DejaVuSans-63"/>
     <use x="521.142578" xlink:href="#DejaVuSans-65"/>
     <use x="582.666016" xlink:href="#DejaVuSans-73"/>
    </g>
   </g>
   <g id="text_19">
    <!-- v0.0.0 -->
    <g style="fill:#808080;" transform="translate(178.96275 289.919965)scale(0.1 -0.1)">
     <use xlink:href="#DejaVuSans-76"/>
     <use x="59.179688" xlink:href="#DejaVuSans-30"/>
     <use x="122.802734" xlink:href="#DejaVuSans-2e"/>
     <use x="154.589844" xlink:href="#DejaVuSans-30"/>
     <use x="218.212891" xlink:href="#DejaVuSans-2e"/>
     <use x="250" xlink:href="#DejaVuSans-30"/>
    </g>
   </g>
  </g>
 </g>
 <defs>
  <clipPath id="pceaada6c6d">
   <rect height="288.034772" width="277.048" x="56.12" y="6.845228"/>
  </clipPath>
 </defs>
</svg>
