<?xml version="1.0" encoding="utf-8" standalone="no"?>
<!DOCTYPE svg PUBLIC "-//W3C//DTD SVG 1.1//EN"
  "http://www.w3.org/Graphics/SVG/1.1/DTD/svg11.dtd">
<!-- Created with matplotlib (http://matplotlib.org/) -->
<svg height="345.6pt" version="1.1" viewBox="0 0 460.8 345.6" width="460.8pt" xmlns="http://www.w3.org/2000/svg" xmlns:xlink="http://www.w3.org/1999/xlink">
 <defs>
  <style type="text/css">
*{stroke-linecap:butt;stroke-linejoin:round;}
  </style>
 </defs>
 <g id="figure_1">
  <g id="patch_1">
   <path d="M 0 345.6 
L 460.8 345.6 
L 460.8 0 
L 0 0 
z
" style="fill:#ffffff;"/>
  </g>
  <g id="axes_1">
   <g id="patch_2">
    <path d="M 5.52 291.28 
L 450.672 291.28 
L 450.672 5.52 
L 5.52 5.52 
z
" style="fill:#ffffff;"/>
   </g>
   <g id="matplotlib.axis_1">
    <g id="xtick_1">
     <g id="line2d_1">
      <path clip-path="url(#pe73902f520)" d="M 5.410727 291.28 
L 5.410727 5.52 
" style="fill:none;stroke:#b0b0b0;stroke-linecap:square;stroke-width:0.8;"/>
     </g>
     <g id="line2d_2">
      <defs>
       <path d="M 0 0 
L 0 3.5 
" id="m8f3eed212c" style="stroke:#000000;stroke-width:0.8;"/>
      </defs>
      <g>
       <use style="stroke:#000000;stroke-width:0.8;" x="5.410727" xlink:href="#m8f3eed212c" y="291.28"/>
      </g>
     </g>
    </g>
    <g id="xtick_2">
     <g id="line2d_3">
      <path clip-path="url(#pe73902f520)" d="M 106.55685 291.28 
L 106.55685 5.52 
" style="fill:none;stroke:#b0b0b0;stroke-linecap:square;stroke-width:0.8;"/>
     </g>
     <g id="line2d_4">
      <g>
       <use style="stroke:#000000;stroke-width:0.8;" x="106.55685" xlink:href="#m8f3eed212c" y="291.28"/>
      </g>
     </g>
     <g id="text_1">
      <!-- -4 -->
      <defs>
       <path d="M 4.890625 31.390625 
L 31.203125 31.390625 
L 31.203125 23.390625 
L 4.890625 23.390625 
z
" id="DejaVuSans-2d"/>
       <path d="M 37.796875 64.3125 
L 12.890625 25.390625 
L 37.796875 25.390625 
z
M 35.203125 72.90625 
L 47.609375 72.90625 
L 47.609375 25.390625 
L 58.015625 25.390625 
L 58.015625 17.1875 
L 47.609375 17.1875 
L 47.609375 0 
L 37.796875 0 
L 37.796875 17.1875 
L 4.890625 17.1875 
L 4.890625 26.703125 
z
" id="DejaVuSans-34"/>
      </defs>
      <g transform="translate(96.586538 313.476875)scale(0.2 -0.2)">
       <use xlink:href="#DejaVuSans-2d"/>
       <use x="36.083984" xlink:href="#DejaVuSans-34"/>
      </g>
     </g>
    </g>
    <g id="xtick_3">
     <g id="line2d_5">
      <path clip-path="url(#pe73902f520)" d="M 207.702973 291.28 
L 207.702973 5.52 
" style="fill:none;stroke:#b0b0b0;stroke-linecap:square;stroke-width:0.8;"/>
     </g>
     <g id="line2d_6">
      <g>
       <use style="stroke:#000000;stroke-width:0.8;" x="207.702973" xlink:href="#m8f3eed212c" y="291.28"/>
      </g>
     </g>
     <g id="text_2">
      <!-- 0 -->
      <defs>
       <path d="M 31.78125 66.40625 
Q 24.171875 66.40625 20.328125 58.90625 
Q 16.5 51.421875 16.5 36.375 
Q 16.5 21.390625 20.328125 13.890625 
Q 24.171875 6.390625 31.78125 6.390625 
Q 39.453125 6.390625 43.28125 13.890625 
Q 47.125 21.390625 47.125 36.375 
Q 47.125 51.421875 43.28125 58.90625 
Q 39.453125 66.40625 31.78125 66.40625 
z
M 31.78125 74.21875 
Q 44.046875 74.21875 50.515625 64.515625 
Q 56.984375 54.828125 56.984375 36.375 
Q 56.984375 17.96875 50.515625 8.265625 
Q 44.046875 -1.421875 31.78125 -1.421875 
Q 19.53125 -1.421875 13.0625 8.265625 
Q 6.59375 17.96875 6.59375 36.375 
Q 6.59375 54.828125 13.0625 64.515625 
Q 19.53125 74.21875 31.78125 74.21875 
z
" id="DejaVuSans-30"/>
      </defs>
      <g transform="translate(201.340473 313.476875)scale(0.2 -0.2)">
       <use xlink:href="#DejaVuSans-30"/>
      </g>
     </g>
    </g>
    <g id="xtick_4">
     <g id="line2d_7">
      <path clip-path="url(#pe73902f520)" d="M 308.849095 291.28 
L 308.849095 5.52 
" style="fill:none;stroke:#b0b0b0;stroke-linecap:square;stroke-width:0.8;"/>
     </g>
     <g id="line2d_8">
      <g>
       <use style="stroke:#000000;stroke-width:0.8;" x="308.849095" xlink:href="#m8f3eed212c" y="291.28"/>
      </g>
     </g>
     <g id="text_3">
      <!-- 4 -->
      <g transform="translate(302.486595 313.476875)scale(0.2 -0.2)">
       <use xlink:href="#DejaVuSans-34"/>
      </g>
     </g>
    </g>
    <g id="xtick_5">
     <g id="line2d_9">
      <path clip-path="url(#pe73902f520)" d="M 409.995218 291.28 
L 409.995218 5.52 
" style="fill:none;stroke:#b0b0b0;stroke-linecap:square;stroke-width:0.8;"/>
     </g>
     <g id="line2d_10">
      <g>
       <use style="stroke:#000000;stroke-width:0.8;" x="409.995218" xlink:href="#m8f3eed212c" y="291.28"/>
      </g>
     </g>
     <g id="text_4">
      <!-- 8 -->
      <defs>
       <path d="M 31.78125 34.625 
Q 24.75 34.625 20.71875 30.859375 
Q 16.703125 27.09375 16.703125 20.515625 
Q 16.703125 13.921875 20.71875 10.15625 
Q 24.75 6.390625 31.78125 6.390625 
Q 38.8125 6.390625 42.859375 10.171875 
Q 46.921875 13.96875 46.921875 20.515625 
Q 46.921875 27.09375 42.890625 30.859375 
Q 38.875 34.625 31.78125 34.625 
z
M 21.921875 38.8125 
Q 15.578125 40.375 12.03125 44.71875 
Q 8.5 49.078125 8.5 55.328125 
Q 8.5 64.0625 14.71875 69.140625 
Q 20.953125 74.21875 31.78125 74.21875 
Q 42.671875 74.21875 48.875 69.140625 
Q 55.078125 64.0625 55.078125 55.328125 
Q 55.078125 49.078125 51.53125 44.71875 
Q 48 40.375 41.703125 38.8125 
Q 48.828125 37.15625 52.796875 32.3125 
Q 56.78125 27.484375 56.78125 20.515625 
Q 56.78125 9.90625 50.3125 4.234375 
Q 43.84375 -1.421875 31.78125 -1.421875 
Q 19.734375 -1.421875 13.25 4.234375 
Q 6.78125 9.90625 6.78125 20.515625 
Q 6.78125 27.484375 10.78125 32.3125 
Q 14.796875 37.15625 21.921875 38.8125 
z
M 18.3125 54.390625 
Q 18.3125 48.734375 21.84375 45.5625 
Q 25.390625 42.390625 31.78125 42.390625 
Q 38.140625 42.390625 41.71875 45.5625 
Q 45.3125 48.734375 45.3125 54.390625 
Q 45.3125 60.0625 41.71875 63.234375 
Q 38.140625 66.40625 31.78125 66.40625 
Q 25.390625 66.40625 21.84375 63.234375 
Q 18.3125 60.0625 18.3125 54.390625 
z
" id="DejaVuSans-38"/>
      </defs>
      <g transform="translate(403.632718 313.476875)scale(0.2 -0.2)">
       <use xlink:href="#DejaVuSans-38"/>
      </g>
     </g>
    </g>
    <g id="text_5">
     <!-- log10 of Df -->
     <defs>
      <path d="M 9.421875 75.984375 
L 18.40625 75.984375 
L 18.40625 0 
L 9.421875 0 
z
" id="DejaVuSans-6c"/>
      <path d="M 30.609375 48.390625 
Q 23.390625 48.390625 19.1875 42.75 
Q 14.984375 37.109375 14.984375 27.296875 
Q 14.984375 17.484375 19.15625 11.84375 
Q 23.34375 6.203125 30.609375 6.203125 
Q 37.796875 6.203125 41.984375 11.859375 
Q 46.1875 17.53125 46.1875 27.296875 
Q 46.1875 37.015625 41.984375 42.703125 
Q 37.796875 48.390625 30.609375 48.390625 
z
M 30.609375 56 
Q 42.328125 56 49.015625 48.375 
Q 55.71875 40.765625 55.71875 27.296875 
Q 55.71875 13.875 49.015625 6.21875 
Q 42.328125 -1.421875 30.609375 -1.421875 
Q 18.84375 -1.421875 12.171875 6.21875 
Q 5.515625 13.875 5.515625 27.296875 
Q 5.515625 40.765625 12.171875 48.375 
Q 18.84375 56 30.609375 56 
z
" id="DejaVuSans-6f"/>
      <path d="M 45.40625 27.984375 
Q 45.40625 37.75 41.375 43.109375 
Q 37.359375 48.484375 30.078125 48.484375 
Q 22.859375 48.484375 18.828125 43.109375 
Q 14.796875 37.75 14.796875 27.984375 
Q 14.796875 18.265625 18.828125 12.890625 
Q 22.859375 7.515625 30.078125 7.515625 
Q 37.359375 7.515625 41.375 12.890625 
Q 45.40625 18.265625 45.40625 27.984375 
z
M 54.390625 6.78125 
Q 54.390625 -7.171875 48.1875 -13.984375 
Q 42 -20.796875 29.203125 -20.796875 
Q 24.46875 -20.796875 20.265625 -20.09375 
Q 16.0625 -19.390625 12.109375 -17.921875 
L 12.109375 -9.1875 
Q 16.0625 -11.328125 19.921875 -12.34375 
Q 23.78125 -13.375 27.78125 -13.375 
Q 36.625 -13.375 41.015625 -8.765625 
Q 45.40625 -4.15625 45.40625 5.171875 
L 45.40625 9.625 
Q 42.625 4.78125 38.28125 2.390625 
Q 33.9375 0 27.875 0 
Q 17.828125 0 11.671875 7.65625 
Q 5.515625 15.328125 5.515625 27.984375 
Q 5.515625 40.671875 11.671875 48.328125 
Q 17.828125 56 27.875 56 
Q 33.9375 56 38.28125 53.609375 
Q 42.625 51.21875 45.40625 46.390625 
L 45.40625 54.6875 
L 54.390625 54.6875 
z
" id="DejaVuSans-67"/>
      <path d="M 12.40625 8.296875 
L 28.515625 8.296875 
L 28.515625 63.921875 
L 10.984375 60.40625 
L 10.984375 69.390625 
L 28.421875 72.90625 
L 38.28125 72.90625 
L 38.28125 8.296875 
L 54.390625 8.296875 
L 54.390625 0 
L 12.40625 0 
z
" id="DejaVuSans-31"/>
      <path id="DejaVuSans-20"/>
      <path d="M 37.109375 75.984375 
L 37.109375 68.5 
L 28.515625 68.5 
Q 23.6875 68.5 21.796875 66.546875 
Q 19.921875 64.59375 19.921875 59.515625 
L 19.921875 54.6875 
L 34.71875 54.6875 
L 34.71875 47.703125 
L 19.921875 47.703125 
L 19.921875 0 
L 10.890625 0 
L 10.890625 47.703125 
L 2.296875 47.703125 
L 2.296875 54.6875 
L 10.890625 54.6875 
L 10.890625 58.5 
Q 10.890625 67.625 15.140625 71.796875 
Q 19.390625 75.984375 28.609375 75.984375 
z
" id="DejaVuSans-66"/>
      <path d="M 19.671875 64.796875 
L 19.671875 8.109375 
L 31.59375 8.109375 
Q 46.6875 8.109375 53.6875 14.9375 
Q 60.6875 21.78125 60.6875 36.53125 
Q 60.6875 51.171875 53.6875 57.984375 
Q 46.6875 64.796875 31.59375 64.796875 
z
M 9.8125 72.90625 
L 30.078125 72.90625 
Q 51.265625 72.90625 61.171875 64.09375 
Q 71.09375 55.28125 71.09375 36.53125 
Q 71.09375 17.671875 61.125 8.828125 
Q 51.171875 0 30.078125 0 
L 9.8125 0 
z
" id="DejaVuSans-44"/>
     </defs>
     <g transform="translate(172.910063 336.833125)scale(0.2 -0.2)">
      <use xlink:href="#DejaVuSans-6c"/>
      <use x="27.783203" xlink:href="#DejaVuSans-6f"/>
      <use x="88.964844" xlink:href="#DejaVuSans-67"/>
      <use x="152.441406" xlink:href="#DejaVuSans-31"/>
      <use x="216.064453" xlink:href="#DejaVuSans-30"/>
      <use x="279.6875" xlink:href="#DejaVuSans-20"/>
      <use x="311.474609" xlink:href="#DejaVuSans-6f"/>
      <use x="372.65625" xlink:href="#DejaVuSans-66"/>
      <use x="407.861328" xlink:href="#DejaVuSans-20"/>
      <use x="439.648438" xlink:href="#DejaVuSans-44"/>
      <use x="516.650391" xlink:href="#DejaVuSans-66"/>
     </g>
    </g>
   </g>
   <g id="matplotlib.axis_2">
    <g id="ytick_1">
     <g id="line2d_11">
      <path clip-path="url(#pe73902f520)" d="M 5.52 291.28 
L 450.672 291.28 
" style="fill:none;stroke:#b0b0b0;stroke-linecap:square;stroke-width:0.8;"/>
     </g>
     <g id="line2d_12">
      <defs>
       <path d="M 0 0 
L -3.5 0 
" id="maf85698df4" style="stroke:#000000;stroke-width:0.8;"/>
      </defs>
      <g>
       <use style="stroke:#000000;stroke-width:0.8;" x="5.52" xlink:href="#maf85698df4" y="291.28"/>
      </g>
     </g>
    </g>
    <g id="ytick_2">
     <g id="line2d_13">
      <path clip-path="url(#pe73902f520)" d="M 5.52 234.693861 
L 450.672 234.693861 
" style="fill:none;stroke:#b0b0b0;stroke-linecap:square;stroke-width:0.8;"/>
     </g>
     <g id="line2d_14">
      <g>
       <use style="stroke:#000000;stroke-width:0.8;" x="5.52" xlink:href="#maf85698df4" y="234.693861"/>
      </g>
     </g>
    </g>
    <g id="ytick_3">
     <g id="line2d_15">
      <path clip-path="url(#pe73902f520)" d="M 5.52 178.107723 
L 450.672 178.107723 
" style="fill:none;stroke:#b0b0b0;stroke-linecap:square;stroke-width:0.8;"/>
     </g>
     <g id="line2d_16">
      <g>
       <use style="stroke:#000000;stroke-width:0.8;" x="5.52" xlink:href="#maf85698df4" y="178.107723"/>
      </g>
     </g>
    </g>
    <g id="ytick_4">
     <g id="line2d_17">
      <path clip-path="url(#pe73902f520)" d="M 5.52 121.521584 
L 450.672 121.521584 
" style="fill:none;stroke:#b0b0b0;stroke-linecap:square;stroke-width:0.8;"/>
     </g>
     <g id="line2d_18">
      <g>
       <use style="stroke:#000000;stroke-width:0.8;" x="5.52" xlink:href="#maf85698df4" y="121.521584"/>
      </g>
     </g>
    </g>
    <g id="ytick_5">
     <g id="line2d_19">
      <path clip-path="url(#pe73902f520)" d="M 5.52 64.935446 
L 450.672 64.935446 
" style="fill:none;stroke:#b0b0b0;stroke-linecap:square;stroke-width:0.8;"/>
     </g>
     <g id="line2d_20">
      <g>
       <use style="stroke:#000000;stroke-width:0.8;" x="5.52" xlink:href="#maf85698df4" y="64.935446"/>
      </g>
     </g>
    </g>
    <g id="ytick_6">
     <g id="line2d_21">
      <path clip-path="url(#pe73902f520)" d="M 5.52 8.349307 
L 450.672 8.349307 
" style="fill:none;stroke:#b0b0b0;stroke-linecap:square;stroke-width:0.8;"/>
     </g>
     <g id="line2d_22">
      <g>
       <use style="stroke:#000000;stroke-width:0.8;" x="5.52" xlink:href="#maf85698df4" y="8.349307"/>
      </g>
     </g>
    </g>
   </g>
   <g id="line2d_23">
    <path clip-path="url(#pe73902f520)" d="M 5.410727 291.28 
L 5.410727 238.466271 
L 206.615651 238.466271 
L 206.615651 234.693861 
L 207.557512 234.693861 
L 207.557512 230.921452 
L 212.702694 230.921452 
L 212.702694 227.149043 
L 213.041404 227.149043 
L 213.041404 223.376634 
L 214.723497 223.376634 
L 214.723497 219.604224 
L 216.337517 219.604224 
L 216.337517 215.831815 
L 216.648988 215.831815 
L 216.648988 212.059406 
L 218.25912 212.059406 
L 218.25912 208.286997 
L 220.848958 208.286997 
L 220.848958 204.514587 
L 221.699956 204.514587 
L 221.699956 200.742178 
L 222.728759 200.742178 
L 222.728759 196.969769 
L 223.820974 196.969769 
L 223.820974 193.19736 
L 224.57764 193.19736 
L 224.57764 189.42495 
L 225.277715 189.42495 
L 225.277715 185.652541 
L 228.956051 185.652541 
L 228.956051 181.880132 
L 248.052364 181.880132 
L 248.052364 178.107723 
L 260.662763 178.107723 
L 260.662763 174.335314 
L 261.408363 174.335314 
L 261.408363 170.562904 
L 263.477974 170.562904 
L 263.477974 166.790495 
L 263.667149 166.790495 
L 263.667149 163.018086 
L 264.177549 163.018086 
L 264.177549 159.245677 
L 265.64926 159.245677 
L 265.64926 155.473267 
L 266.290352 155.473267 
L 266.290352 151.700858 
L 266.512902 151.700858 
L 266.512902 147.928449 
L 266.932906 147.928449 
L 266.932906 144.15604 
L 267.160925 144.15604 
L 267.168924 136.611221 
L 267.324603 136.611221 
L 267.393534 129.066403 
L 267.570034 129.066403 
L 267.610551 121.521584 
L 268.072505 121.521584 
L 268.072505 117.749175 
L 268.61572 117.749175 
L 268.721826 110.204356 
L 268.730935 110.204356 
L 268.730935 106.431947 
L 268.964559 106.431947 
L 269.042003 98.887129 
L 269.115884 98.887129 
L 269.115884 95.114719 
L 269.380334 95.114719 
L 269.380334 91.34231 
L 269.65266 91.34231 
L 269.701984 83.797492 
L 270.388251 83.797492 
L 270.388251 80.025083 
L 270.539599 80.025083 
L 270.539599 76.252673 
L 270.665345 76.252673 
L 270.692184 68.707855 
L 272.605357 68.707855 
L 272.605357 64.935446 
L 321.4469 64.935446 
L 321.4469 61.163036 
L 321.804494 61.163036 
L 321.804494 57.390627 
L 327.640785 57.390627 
L 327.681852 49.845809 
L 329.724124 49.845809 
L 329.724124 46.073399 
L 330.557812 46.073399 
L 330.557812 42.30099 
L 332.617002 42.30099 
L 332.617002 38.528581 
L 332.850155 38.528581 
L 332.850155 34.756172 
L 333.331491 34.756172 
L 333.385915 27.211353 
L 333.761167 27.211353 
L 333.761167 23.438944 
L 333.874047 23.438944 
L 333.874047 19.666535 
L 335.25388 19.666535 
L 335.25388 15.894125 
L 338.361749 15.894125 
L 338.361749 12.121716 
L 340.224425 12.121716 
L 340.224425 8.349307 
L 340.224425 8.349307 
L 450.672 8.349307 
L 450.672 8.349307 
" style="fill:none;stroke:#ff0000;stroke-linecap:square;stroke-width:3;"/>
   </g>
   <g id="line2d_24">
    <path clip-path="url(#pe73902f520)" d="M 254.664506 291.28 
L 254.664506 287.507591 
L 256.881827 287.507591 
L 256.881827 283.735182 
L 257.09123 283.735182 
L 257.09123 279.962772 
L 257.389511 279.962772 
L 257.389511 276.190363 
L 257.917976 276.190363 
L 257.992657 268.645545 
L 258.303581 268.645545 
L 258.303581 264.873135 
L 259.125864 264.873135 
L 259.178115 257.328317 
L 259.288078 257.328317 
L 259.288078 253.555908 
L 260.564322 253.555908 
L 260.564322 249.783498 
L 260.996182 249.783498 
L 260.996182 246.011089 
L 261.127931 246.011089 
L 261.127931 242.23868 
L 261.378795 242.23868 
L 261.378795 238.466271 
L 262.481695 238.466271 
L 262.481695 234.693861 
L 268.710757 234.693861 
L 268.710757 230.921452 
L 269.035102 230.921452 
L 269.035102 227.149043 
L 269.200421 227.149043 
L 269.200421 223.376634 
L 269.590958 223.376634 
L 269.609608 215.831815 
L 269.727264 215.831815 
L 269.727264 212.059406 
L 270.210414 212.059406 
L 270.210414 208.286997 
L 270.962937 208.286997 
L 271.053684 200.742178 
L 271.163109 200.742178 
L 271.248599 189.42495 
L 271.980281 189.42495 
L 271.980281 185.652541 
L 272.394764 185.652541 
L 272.394764 181.880132 
L 272.693174 181.880132 
L 272.693174 178.107723 
L 275.816144 178.107723 
L 275.816144 174.335314 
L 276.466955 174.335314 
L 276.548919 166.790495 
L 276.940661 166.790495 
L 276.940661 163.018086 
L 277.273026 163.018086 
L 277.273026 159.245677 
L 277.415973 159.245677 
L 277.415973 155.473267 
L 277.775489 155.473267 
L 277.775489 151.700858 
L 278.01961 151.700858 
L 278.01961 147.928449 
L 278.277433 147.928449 
L 278.277433 144.15604 
L 278.482171 144.15604 
L 278.555614 136.611221 
L 278.721382 136.611221 
L 278.744871 129.066403 
L 279.248683 129.066403 
L 279.248683 125.293993 
L 279.548283 125.293993 
L 279.549107 117.749175 
L 279.704302 117.749175 
L 279.704302 113.976766 
L 279.860626 113.976766 
L 279.875392 106.431947 
L 279.985884 106.431947 
L 279.985884 102.659538 
L 280.233323 102.659538 
L 280.233323 98.887129 
L 280.830665 98.887129 
L 280.830665 95.114719 
L 281.302299 95.114719 
L 281.398197 87.569901 
L 281.440192 87.569901 
L 281.440192 83.797492 
L 282.556032 83.797492 
L 282.597398 72.480264 
L 282.968878 72.480264 
L 282.997325 64.935446 
L 360.221058 64.935446 
L 360.221058 61.163036 
L 371.041613 61.163036 
L 371.041613 57.390627 
L 374.541754 57.390627 
L 374.541754 53.618218 
L 374.783781 53.618218 
L 374.783781 49.845809 
L 378.384934 49.845809 
L 378.384934 46.073399 
L 378.932244 46.073399 
L 378.932244 42.30099 
L 379.121997 42.30099 
L 379.188344 34.756172 
L 380.422685 34.756172 
L 380.422685 30.983762 
L 380.639883 30.983762 
L 380.639883 27.211353 
L 381.363098 27.211353 
L 381.363098 23.438944 
L 382.054873 23.438944 
L 382.054873 19.666535 
L 385.978762 19.666535 
L 385.978762 15.894125 
L 386.847837 15.894125 
L 386.890535 8.349307 
L 386.890535 8.349307 
L 450.672 8.349307 
L 450.672 8.349307 
" style="fill:none;stroke:#00bfbf;stroke-linecap:square;stroke-width:1.5;"/>
   </g>
   <g id="line2d_25">
    <path clip-path="url(#pe73902f520)" d="M 254.664506 291.28 
L 254.664506 287.507591 
L 256.881827 287.507591 
L 256.881827 283.735182 
L 257.09123 283.735182 
L 257.09123 279.962772 
L 257.389511 279.962772 
L 257.389511 276.190363 
L 257.917976 276.190363 
L 257.992657 268.645545 
L 258.303581 268.645545 
L 258.303581 264.873135 
L 259.125864 264.873135 
L 259.178115 257.328317 
L 259.288078 257.328317 
L 259.288078 253.555908 
L 260.564322 253.555908 
L 260.564322 249.783498 
L 260.996182 249.783498 
L 260.996182 246.011089 
L 261.127931 246.011089 
L 261.127931 242.23868 
L 261.378795 242.23868 
L 261.378795 238.466271 
L 262.481695 238.466271 
L 262.481695 234.693861 
L 267.196599 234.693861 
L 267.196599 230.921452 
L 267.428055 230.921452 
L 267.428055 227.149043 
L 268.710757 227.149043 
L 268.741229 219.604224 
L 268.938744 219.604224 
L 268.938744 215.831815 
L 269.200421 215.831815 
L 269.284191 208.286997 
L 269.590958 208.286997 
L 269.612544 196.969769 
L 270.210414 196.969769 
L 270.210414 193.19736 
L 270.419325 193.19736 
L 270.419325 189.42495 
L 270.838059 189.42495 
L 270.838059 185.652541 
L 271.02045 185.652541 
L 271.02045 181.880132 
L 271.248599 181.880132 
L 271.248599 178.107723 
L 275.816144 178.107723 
L 275.816144 174.335314 
L 276.466955 174.335314 
L 276.548919 166.790495 
L 276.940661 166.790495 
L 276.940661 163.018086 
L 277.273026 163.018086 
L 277.273026 159.245677 
L 277.415973 159.245677 
L 277.415973 155.473267 
L 277.775489 155.473267 
L 277.775489 151.700858 
L 278.01961 151.700858 
L 278.01961 147.928449 
L 278.277433 147.928449 
L 278.277433 144.15604 
L 278.482171 144.15604 
L 278.555614 136.611221 
L 278.721382 136.611221 
L 278.744871 129.066403 
L 279.248683 129.066403 
L 279.248683 125.293993 
L 279.548283 125.293993 
L 279.549107 117.749175 
L 279.704302 117.749175 
L 279.704302 113.976766 
L 279.860626 113.976766 
L 279.875392 106.431947 
L 279.985884 106.431947 
L 279.985884 102.659538 
L 280.233323 102.659538 
L 280.233323 98.887129 
L 280.830665 98.887129 
L 280.830665 95.114719 
L 280.954173 95.114719 
L 280.954173 91.34231 
L 281.302299 91.34231 
L 281.398197 83.797492 
L 281.440192 83.797492 
L 281.440192 80.025083 
L 282.556032 80.025083 
L 282.579678 68.707855 
L 282.968878 68.707855 
L 282.968878 64.935446 
L 360.221058 64.935446 
L 360.221058 61.163036 
L 371.041613 61.163036 
L 371.041613 57.390627 
L 371.858572 57.390627 
L 371.858572 53.618218 
L 372.813906 53.618218 
L 372.813906 49.845809 
L 373.092763 49.845809 
L 373.092763 46.073399 
L 374.541754 46.073399 
L 374.541754 42.30099 
L 374.897167 42.30099 
L 374.897167 38.528581 
L 377.366227 38.528581 
L 377.392506 30.983762 
L 377.517434 30.983762 
L 377.517434 27.211353 
L 377.710188 27.211353 
L 377.710188 23.438944 
L 378.384934 23.438944 
L 378.384934 19.666535 
L 379.578491 19.666535 
L 379.578491 15.894125 
L 380.422685 15.894125 
L 380.422685 12.121716 
L 386.890535 12.121716 
L 386.890535 8.349307 
L 386.890535 8.349307 
L 450.672 8.349307 
L 450.672 8.349307 
" style="fill:none;stroke:#bf00bf;stroke-linecap:square;stroke-width:1.5;"/>
   </g>
   <g id="line2d_26">
    <path clip-path="url(#pe73902f520)" d="M 254.664506 291.28 
L 254.664506 287.507591 
L 256.881827 287.507591 
L 256.881827 283.735182 
L 257.09123 283.735182 
L 257.09123 279.962772 
L 257.389511 279.962772 
L 257.389511 276.190363 
L 257.781549 276.190363 
L 257.781549 272.417954 
L 257.917976 272.417954 
L 257.992657 264.873135 
L 258.303581 264.873135 
L 258.303581 261.100726 
L 259.178115 261.100726 
L 259.288078 253.555908 
L 260.564322 253.555908 
L 260.564322 249.783498 
L 260.996182 249.783498 
L 260.996182 246.011089 
L 261.127931 246.011089 
L 261.127931 242.23868 
L 261.378795 242.23868 
L 261.378795 238.466271 
L 261.650068 238.466271 
L 261.650068 234.693861 
L 266.805642 234.693861 
L 266.805642 230.921452 
L 267.196599 230.921452 
L 267.196599 227.149043 
L 267.428055 227.149043 
L 267.428055 223.376634 
L 267.909782 223.376634 
L 267.909782 219.604224 
L 268.200871 219.604224 
L 268.200871 215.831815 
L 268.591067 215.831815 
L 268.591067 212.059406 
L 268.741229 212.059406 
L 268.827042 204.514587 
L 268.872837 204.514587 
L 268.872837 200.742178 
L 269.200421 200.742178 
L 269.307878 189.42495 
L 269.609608 189.42495 
L 269.609608 185.652541 
L 270.092338 185.652541 
L 270.125653 178.107723 
L 275.816144 178.107723 
L 275.816144 174.335314 
L 276.466955 174.335314 
L 276.548919 166.790495 
L 276.940661 166.790495 
L 276.940661 163.018086 
L 277.07362 163.018086 
L 277.07362 159.245677 
L 277.273026 159.245677 
L 277.273026 155.473267 
L 277.415973 155.473267 
L 277.415973 151.700858 
L 277.775489 151.700858 
L 277.775489 147.928449 
L 278.01961 147.928449 
L 278.01961 144.15604 
L 278.239684 144.15604 
L 278.277433 136.611221 
L 278.365196 136.611221 
L 278.365196 132.838812 
L 278.555614 132.838812 
L 278.555614 129.066403 
L 278.721382 129.066403 
L 278.744871 121.521584 
L 279.248683 121.521584 
L 279.248683 117.749175 
L 279.485959 117.749175 
L 279.549107 106.431947 
L 279.704302 106.431947 
L 279.704302 102.659538 
L 279.860626 102.659538 
L 279.875392 95.114719 
L 279.985884 95.114719 
L 279.99612 87.569901 
L 280.233323 87.569901 
L 280.233323 83.797492 
L 280.578069 83.797492 
L 280.578069 80.025083 
L 281.136825 80.025083 
L 281.136825 76.252673 
L 281.302299 76.252673 
L 281.302299 72.480264 
L 281.507088 72.480264 
L 281.507088 68.707855 
L 282.416562 68.707855 
L 282.416562 64.935446 
L 360.221058 64.935446 
L 360.221058 61.163036 
L 367.595858 61.163036 
L 367.595858 57.390627 
L 368.916966 57.390627 
L 368.916966 53.618218 
L 369.245677 53.618218 
L 369.245677 49.845809 
L 369.457552 49.845809 
L 369.457552 46.073399 
L 370.166863 46.073399 
L 370.166863 42.30099 
L 371.041613 42.30099 
L 371.041613 38.528581 
L 371.344051 38.528581 
L 371.344051 34.756172 
L 371.858572 34.756172 
L 371.858572 30.983762 
L 371.971679 30.983762 
L 371.971679 27.211353 
L 372.296312 27.211353 
L 372.296312 23.438944 
L 372.813906 23.438944 
L 372.902374 15.894125 
L 377.316134 15.894125 
L 377.366227 8.349307 
L 377.366227 8.349307 
L 450.672 8.349307 
L 450.672 8.349307 
" style="fill:none;stroke:#000000;stroke-linecap:square;stroke-width:1.5;"/>
   </g>
   <g id="line2d_27">
    <path clip-path="url(#pe73902f520)" d="M 254.664506 291.28 
L 254.664506 287.507591 
L 256.881827 287.507591 
L 256.881827 283.735182 
L 257.045621 283.735182 
L 257.09123 276.190363 
L 257.389511 276.190363 
L 257.389511 272.417954 
L 257.781549 272.417954 
L 257.781549 268.645545 
L 257.917976 268.645545 
L 257.992657 261.100726 
L 259.178115 261.100726 
L 259.288078 253.555908 
L 260.564322 253.555908 
L 260.564322 249.783498 
L 260.996182 249.783498 
L 260.996182 246.011089 
L 261.127931 246.011089 
L 261.127931 242.23868 
L 261.378795 242.23868 
L 261.442917 234.693861 
L 261.650068 234.693861 
L 261.650068 230.921452 
L 263.263814 230.921452 
L 263.263814 227.149043 
L 263.619879 227.149043 
L 263.619879 223.376634 
L 263.878141 223.376634 
L 263.878141 219.604224 
L 264.582531 219.604224 
L 264.5973 212.059406 
L 264.762901 212.059406 
L 264.762901 208.286997 
L 264.983938 208.286997 
L 264.983938 204.514587 
L 265.271674 204.514587 
L 265.271674 200.742178 
L 265.385746 200.742178 
L 265.385746 196.969769 
L 265.505789 196.969769 
L 265.605101 189.42495 
L 266.074401 189.42495 
L 266.074401 185.652541 
L 267.084087 185.652541 
L 267.084087 181.880132 
L 267.204999 181.880132 
L 267.204999 178.107723 
L 275.816144 178.107723 
L 275.816144 174.335314 
L 276.466955 174.335314 
L 276.548919 166.790495 
L 276.940661 166.790495 
L 276.940661 163.018086 
L 277.07362 163.018086 
L 277.07362 159.245677 
L 277.273026 159.245677 
L 277.273026 155.473267 
L 277.415973 155.473267 
L 277.415973 151.700858 
L 277.775489 151.700858 
L 277.775489 147.928449 
L 278.01961 147.928449 
L 278.01961 144.15604 
L 278.239684 144.15604 
L 278.277433 136.611221 
L 278.365196 136.611221 
L 278.365196 132.838812 
L 278.555614 132.838812 
L 278.591527 125.293993 
L 278.721382 125.293993 
L 278.721382 121.521584 
L 279.248683 121.521584 
L 279.248683 117.749175 
L 279.485959 117.749175 
L 279.549107 106.431947 
L 279.704302 106.431947 
L 279.704302 102.659538 
L 279.860626 102.659538 
L 279.875392 95.114719 
L 279.985884 95.114719 
L 279.99612 87.569901 
L 280.233323 87.569901 
L 280.305931 80.025083 
L 280.438544 80.025083 
L 280.438544 76.252673 
L 280.578069 76.252673 
L 280.578069 72.480264 
L 281.302299 72.480264 
L 281.302299 68.707855 
L 282.416562 68.707855 
L 282.416562 64.935446 
L 360.221058 64.935446 
L 360.221058 61.163036 
L 367.546694 61.163036 
L 367.595858 53.618218 
L 368.82099 53.618218 
L 368.916966 46.073399 
L 369.245677 46.073399 
L 369.245677 42.30099 
L 369.457552 42.30099 
L 369.457552 38.528581 
L 371.041613 38.528581 
L 371.041613 34.756172 
L 371.344051 34.756172 
L 371.344051 30.983762 
L 371.971679 30.983762 
L 371.971679 27.211353 
L 372.296312 27.211353 
L 372.296312 23.438944 
L 372.813906 23.438944 
L 372.902374 15.894125 
L 373.758475 15.894125 
L 373.758475 12.121716 
L 377.156805 12.121716 
L 377.156805 8.349307 
L 377.156805 8.349307 
L 450.672 8.349307 
L 450.672 8.349307 
" style="fill:none;stroke:#00bfbf;stroke-linecap:square;stroke-width:1.5;"/>
   </g>
   <g id="line2d_28">
    <path clip-path="url(#pe73902f520)" d="M 5.410727 291.28 
L 5.410727 242.23868 
L 235.035112 242.23868 
L 235.035112 238.466271 
L 235.495172 238.466271 
L 235.495172 234.693861 
L 236.271273 234.693861 
L 236.271273 230.921452 
L 238.317142 230.921452 
L 238.317142 227.149043 
L 238.663328 227.149043 
L 238.689485 219.604224 
L 239.680551 219.604224 
L 239.680551 215.831815 
L 240.018852 215.831815 
L 240.018852 212.059406 
L 241.68029 212.059406 
L 241.68029 208.286997 
L 242.973009 208.286997 
L 242.973009 204.514587 
L 243.473179 204.514587 
L 243.473179 200.742178 
L 245.616467 200.742178 
L 245.616467 196.969769 
L 245.894164 196.969769 
L 245.894164 193.19736 
L 247.07485 193.19736 
L 247.07485 189.42495 
L 248.955627 189.42495 
L 249.02403 181.880132 
L 249.915182 181.880132 
L 249.915182 178.107723 
L 268.195003 178.107723 
L 268.227515 170.562904 
L 268.533752 170.562904 
L 268.533752 166.790495 
L 268.805365 166.790495 
L 268.805365 163.018086 
L 268.969513 163.018086 
L 268.969513 159.245677 
L 269.26698 159.245677 
L 269.26698 155.473267 
L 269.588537 155.473267 
L 269.588537 151.700858 
L 269.958586 151.700858 
L 269.958586 147.928449 
L 270.495146 147.928449 
L 270.51614 140.38363 
L 270.700515 140.38363 
L 270.700515 136.611221 
L 271.205371 136.611221 
L 271.205371 132.838812 
L 271.461609 132.838812 
L 271.555995 117.749175 
L 271.786214 117.749175 
L 271.832835 110.204356 
L 272.055839 110.204356 
L 272.055839 106.431947 
L 272.297503 106.431947 
L 272.403252 98.887129 
L 272.554388 98.887129 
L 272.554388 95.114719 
L 272.718225 95.114719 
L 272.718225 91.34231 
L 272.884116 91.34231 
L 272.884116 87.569901 
L 273.279764 87.569901 
L 273.279764 83.797492 
L 273.545408 83.797492 
L 273.545408 80.025083 
L 273.752219 80.025083 
L 273.752219 76.252673 
L 275.458442 76.252673 
L 275.542569 68.707855 
L 275.976624 68.707855 
L 275.976624 64.935446 
L 339.429891 64.935446 
L 339.429891 61.163036 
L 343.535938 61.163036 
L 343.535938 57.390627 
L 343.798545 57.390627 
L 343.798545 53.618218 
L 344.539065 53.618218 
L 344.539065 49.845809 
L 344.679877 49.845809 
L 344.7059 42.30099 
L 347.11987 42.30099 
L 347.11987 38.528581 
L 347.794575 38.528581 
L 347.794575 34.756172 
L 348.641166 34.756172 
L 348.641166 30.983762 
L 349.121539 30.983762 
L 349.121539 27.211353 
L 350.77265 27.211353 
L 350.77265 23.438944 
L 351.70614 23.438944 
L 351.771475 15.894125 
L 352.884913 15.894125 
L 352.884913 12.121716 
L 354.653069 12.121716 
L 354.653069 8.349307 
L 354.653069 8.349307 
L 450.672 8.349307 
L 450.672 8.349307 
" style="fill:none;stroke:#bf00bf;stroke-linecap:square;stroke-width:1.5;"/>
   </g>
   <g id="patch_3">
    <path d="M 5.52 291.28 
L 5.52 5.52 
" style="fill:none;stroke:#000000;stroke-linecap:square;stroke-linejoin:miter;stroke-width:0.8;"/>
   </g>
   <g id="patch_4">
    <path d="M 450.672 291.28 
L 450.672 5.52 
" style="fill:none;stroke:#000000;stroke-linecap:square;stroke-linejoin:miter;stroke-width:0.8;"/>
   </g>
   <g id="patch_5">
    <path d="M 5.52 291.28 
L 450.672 291.28 
" style="fill:none;stroke:#000000;stroke-linecap:square;stroke-linejoin:miter;stroke-width:0.8;"/>
   </g>
   <g id="patch_6">
    <path d="M 5.52 5.52 
L 450.672 5.52 
" style="fill:none;stroke:#000000;stroke-linecap:square;stroke-linejoin:miter;stroke-width:0.8;"/>
   </g>
   <g id="text_6">
    <!-- {f1-f5}, 20-D -->
    <defs>
     <path d="M 51.125 -9.28125 
L 51.125 -16.3125 
L 48.09375 -16.3125 
Q 35.9375 -16.3125 31.8125 -12.6875 
Q 27.6875 -9.078125 27.6875 1.703125 
L 27.6875 13.375 
Q 27.6875 20.75 25.046875 23.578125 
Q 22.40625 26.421875 15.484375 26.421875 
L 12.5 26.421875 
L 12.5 33.40625 
L 15.484375 33.40625 
Q 22.46875 33.40625 25.078125 36.203125 
Q 27.6875 39.015625 27.6875 46.296875 
L 27.6875 58.015625 
Q 27.6875 68.796875 31.8125 72.390625 
Q 35.9375 75.984375 48.09375 75.984375 
L 51.125 75.984375 
L 51.125 69 
L 47.796875 69 
Q 40.921875 69 38.8125 66.84375 
Q 36.71875 64.703125 36.71875 57.8125 
L 36.71875 45.703125 
Q 36.71875 38.03125 34.5 34.5625 
Q 32.28125 31.109375 26.90625 29.890625 
Q 32.328125 28.5625 34.515625 25.09375 
Q 36.71875 21.625 36.71875 14.015625 
L 36.71875 1.90625 
Q 36.71875 -4.984375 38.8125 -7.125 
Q 40.921875 -9.28125 47.796875 -9.28125 
z
" id="DejaVuSans-7b"/>
     <path d="M 10.796875 72.90625 
L 49.515625 72.90625 
L 49.515625 64.59375 
L 19.828125 64.59375 
L 19.828125 46.734375 
Q 21.96875 47.46875 24.109375 47.828125 
Q 26.265625 48.1875 28.421875 48.1875 
Q 40.625 48.1875 47.75 41.5 
Q 54.890625 34.8125 54.890625 23.390625 
Q 54.890625 11.625 47.5625 5.09375 
Q 40.234375 -1.421875 26.90625 -1.421875 
Q 22.3125 -1.421875 17.546875 -0.640625 
Q 12.796875 0.140625 7.71875 1.703125 
L 7.71875 11.625 
Q 12.109375 9.234375 16.796875 8.0625 
Q 21.484375 6.890625 26.703125 6.890625 
Q 35.15625 6.890625 40.078125 11.328125 
Q 45.015625 15.765625 45.015625 23.390625 
Q 45.015625 31 40.078125 35.4375 
Q 35.15625 39.890625 26.703125 39.890625 
Q 22.75 39.890625 18.8125 39.015625 
Q 14.890625 38.140625 10.796875 36.28125 
z
" id="DejaVuSans-35"/>
     <path d="M 12.5 -9.28125 
L 15.921875 -9.28125 
Q 22.75 -9.28125 24.828125 -7.171875 
Q 26.90625 -5.078125 26.90625 1.90625 
L 26.90625 14.015625 
Q 26.90625 21.625 29.09375 25.09375 
Q 31.296875 28.5625 36.71875 29.890625 
Q 31.296875 31.109375 29.09375 34.5625 
Q 26.90625 38.03125 26.90625 45.703125 
L 26.90625 57.8125 
Q 26.90625 64.75 24.828125 66.875 
Q 22.75 69 15.921875 69 
L 12.5 69 
L 12.5 75.984375 
L 15.578125 75.984375 
Q 27.734375 75.984375 31.8125 72.390625 
Q 35.890625 68.796875 35.890625 58.015625 
L 35.890625 46.296875 
Q 35.890625 39.015625 38.515625 36.203125 
Q 41.15625 33.40625 48.09375 33.40625 
L 51.125 33.40625 
L 51.125 26.421875 
L 48.09375 26.421875 
Q 41.15625 26.421875 38.515625 23.578125 
Q 35.890625 20.75 35.890625 13.375 
L 35.890625 1.703125 
Q 35.890625 -9.078125 31.8125 -12.6875 
Q 27.734375 -16.3125 15.578125 -16.3125 
L 12.5 -16.3125 
z
" id="DejaVuSans-7d"/>
     <path d="M 11.71875 12.40625 
L 22.015625 12.40625 
L 22.015625 4 
L 14.015625 -11.625 
L 7.71875 -11.625 
L 11.71875 4 
z
" id="DejaVuSans-2c"/>
     <path d="M 19.1875 8.296875 
L 53.609375 8.296875 
L 53.609375 0 
L 7.328125 0 
L 7.328125 8.296875 
Q 12.9375 14.109375 22.625 23.890625 
Q 32.328125 33.6875 34.8125 36.53125 
Q 39.546875 41.84375 41.421875 45.53125 
Q 43.3125 49.21875 43.3125 52.78125 
Q 43.3125 58.59375 39.234375 62.25 
Q 35.15625 65.921875 28.609375 65.921875 
Q 23.96875 65.921875 18.8125 64.3125 
Q 13.671875 62.703125 7.8125 59.421875 
L 7.8125 69.390625 
Q 13.765625 71.78125 18.9375 73 
Q 24.125 74.21875 28.421875 74.21875 
Q 39.75 74.21875 46.484375 68.546875 
Q 53.21875 62.890625 53.21875 53.421875 
Q 53.21875 48.921875 51.53125 44.890625 
Q 49.859375 40.875 45.40625 35.40625 
Q 44.1875 33.984375 37.640625 27.21875 
Q 31.109375 20.453125 19.1875 8.296875 
z
" id="DejaVuSans-32"/>
    </defs>
    <g transform="translate(308.79396 285.5648)scale(0.2 -0.2)">
     <use xlink:href="#DejaVuSans-7b"/>
     <use x="63.623047" xlink:href="#DejaVuSans-66"/>
     <use x="98.828125" xlink:href="#DejaVuSans-31"/>
     <use x="162.451172" xlink:href="#DejaVuSans-2d"/>
     <use x="198.535156" xlink:href="#DejaVuSans-66"/>
     <use x="233.740234" xlink:href="#DejaVuSans-35"/>
     <use x="297.363281" xlink:href="#DejaVuSans-7d"/>
     <use x="360.986328" xlink:href="#DejaVuSans-2c"/>
     <use x="392.773438" xlink:href="#DejaVuSans-20"/>
     <use x="424.560547" xlink:href="#DejaVuSans-32"/>
     <use x="488.183594" xlink:href="#DejaVuSans-30"/>
     <use x="551.806641" xlink:href="#DejaVuSans-2d"/>
     <use x="587.890625" xlink:href="#DejaVuSans-44"/>
    </g>
   </g>
   <g id="text_7">
    <!-- v0.0.0 -->
    <defs>
     <path d="M 2.984375 54.6875 
L 12.5 54.6875 
L 29.59375 8.796875 
L 46.6875 54.6875 
L 56.203125 54.6875 
L 35.6875 0 
L 23.484375 0 
z
" id="DejaVuSans-76"/>
     <path d="M 10.6875 12.40625 
L 21 12.40625 
L 21 0 
L 10.6875 0 
z
" id="DejaVuSans-2e"/>
    </defs>
    <g style="fill:#808080;" transform="translate(212.41475 286.342713)scale(0.1 -0.1)">
     <use xlink:href="#DejaVuSans-76"/>
     <use x="59.179688" xlink:href="#DejaVuSans-30"/>
     <use x="122.802734" xlink:href="#DejaVuSans-2e"/>
     <use x="154.589844" xlink:href="#DejaVuSans-30"/>
     <use x="218.212891" xlink:href="#DejaVuSans-2e"/>
     <use x="250" xlink:href="#DejaVuSans-30"/>
    </g>
   </g>
  </g>
 </g>
 <defs>
  <clipPath id="pe73902f520">
   <rect height="285.76" width="445.152" x="5.52" y="5.52"/>
  </clipPath>
 </defs>
</svg>
