<?xml version="1.0" encoding="utf-8" standalone="no"?>
<!DOCTYPE svg PUBLIC "-//W3C//DTD SVG 1.1//EN"
  "http://www.w3.org/Graphics/SVG/1.1/DTD/svg11.dtd">
<!-- Created with matplotlib (http://matplotlib.org/) -->
<svg height="345.6pt" version="1.1" viewBox="0 0 460.8 345.6" width="460.8pt" xmlns="http://www.w3.org/2000/svg" xmlns:xlink="http://www.w3.org/1999/xlink">
 <defs>
  <style type="text/css">
*{stroke-linecap:butt;stroke-linejoin:round;}
  </style>
 </defs>
 <g id="figure_1">
  <g id="patch_1">
   <path d="M 0 345.6 
L 460.8 345.6 
L 460.8 0 
L 0 0 
z
" style="fill:#ffffff;"/>
  </g>
  <g id="axes_1">
   <g id="patch_2">
    <path d="M 5.52 291.28 
L 450.672 291.28 
L 450.672 5.52 
L 5.52 5.52 
z
" style="fill:#ffffff;"/>
   </g>
   <g id="matplotlib.axis_1">
    <g id="xtick_1">
     <g id="line2d_1">
      <path clip-path="url(#pc4c311c6ff)" d="M 5.408679 291.28 
L 5.408679 5.52 
" style="fill:none;stroke:#b0b0b0;stroke-linecap:square;stroke-width:0.8;"/>
     </g>
     <g id="line2d_2">
      <defs>
       <path d="M 0 0 
L 0 3.5 
" id="m98ed2383bb" style="stroke:#000000;stroke-width:0.8;"/>
      </defs>
      <g>
       <use style="stroke:#000000;stroke-width:0.8;" x="5.408679" xlink:href="#m98ed2383bb" y="291.28"/>
      </g>
     </g>
    </g>
    <g id="xtick_2">
     <g id="line2d_3">
      <path clip-path="url(#pc4c311c6ff)" d="M 108.451201 291.28 
L 108.451201 5.52 
" style="fill:none;stroke:#b0b0b0;stroke-linecap:square;stroke-width:0.8;"/>
     </g>
     <g id="line2d_4">
      <g>
       <use style="stroke:#000000;stroke-width:0.8;" x="108.451201" xlink:href="#m98ed2383bb" y="291.28"/>
      </g>
     </g>
     <g id="text_1">
      <!-- -4 -->
      <defs>
       <path d="M 4.890625 31.390625 
L 31.203125 31.390625 
L 31.203125 23.390625 
L 4.890625 23.390625 
z
" id="DejaVuSans-2d"/>
       <path d="M 37.796875 64.3125 
L 12.890625 25.390625 
L 37.796875 25.390625 
z
M 35.203125 72.90625 
L 47.609375 72.90625 
L 47.609375 25.390625 
L 58.015625 25.390625 
L 58.015625 17.1875 
L 47.609375 17.1875 
L 47.609375 0 
L 37.796875 0 
L 37.796875 17.1875 
L 4.890625 17.1875 
L 4.890625 26.703125 
z
" id="DejaVuSans-34"/>
      </defs>
      <g transform="translate(98.480889 313.476875)scale(0.2 -0.2)">
       <use xlink:href="#DejaVuSans-2d"/>
       <use x="36.083984" xlink:href="#DejaVuSans-34"/>
      </g>
     </g>
    </g>
    <g id="xtick_3">
     <g id="line2d_5">
      <path clip-path="url(#pc4c311c6ff)" d="M 211.493724 291.28 
L 211.493724 5.52 
" style="fill:none;stroke:#b0b0b0;stroke-linecap:square;stroke-width:0.8;"/>
     </g>
     <g id="line2d_6">
      <g>
       <use style="stroke:#000000;stroke-width:0.8;" x="211.493724" xlink:href="#m98ed2383bb" y="291.28"/>
      </g>
     </g>
     <g id="text_2">
      <!-- 0 -->
      <defs>
       <path d="M 31.78125 66.40625 
Q 24.171875 66.40625 20.328125 58.90625 
Q 16.5 51.421875 16.5 36.375 
Q 16.5 21.390625 20.328125 13.890625 
Q 24.171875 6.390625 31.78125 6.390625 
Q 39.453125 6.390625 43.28125 13.890625 
Q 47.125 21.390625 47.125 36.375 
Q 47.125 51.421875 43.28125 58.90625 
Q 39.453125 66.40625 31.78125 66.40625 
z
M 31.78125 74.21875 
Q 44.046875 74.21875 50.515625 64.515625 
Q 56.984375 54.828125 56.984375 36.375 
Q 56.984375 17.96875 50.515625 8.265625 
Q 44.046875 -1.421875 31.78125 -1.421875 
Q 19.53125 -1.421875 13.0625 8.265625 
Q 6.59375 17.96875 6.59375 36.375 
Q 6.59375 54.828125 13.0625 64.515625 
Q 19.53125 74.21875 31.78125 74.21875 
z
" id="DejaVuSans-30"/>
      </defs>
      <g transform="translate(205.131224 313.476875)scale(0.2 -0.2)">
       <use xlink:href="#DejaVuSans-30"/>
      </g>
     </g>
    </g>
    <g id="xtick_4">
     <g id="line2d_7">
      <path clip-path="url(#pc4c311c6ff)" d="M 314.536247 291.28 
L 314.536247 5.52 
" style="fill:none;stroke:#b0b0b0;stroke-linecap:square;stroke-width:0.8;"/>
     </g>
     <g id="line2d_8">
      <g>
       <use style="stroke:#000000;stroke-width:0.8;" x="314.536247" xlink:href="#m98ed2383bb" y="291.28"/>
      </g>
     </g>
     <g id="text_3">
      <!-- 4 -->
      <g transform="translate(308.173747 313.476875)scale(0.2 -0.2)">
       <use xlink:href="#DejaVuSans-34"/>
      </g>
     </g>
    </g>
    <g id="xtick_5">
     <g id="line2d_9">
      <path clip-path="url(#pc4c311c6ff)" d="M 417.578769 291.28 
L 417.578769 5.52 
" style="fill:none;stroke:#b0b0b0;stroke-linecap:square;stroke-width:0.8;"/>
     </g>
     <g id="line2d_10">
      <g>
       <use style="stroke:#000000;stroke-width:0.8;" x="417.578769" xlink:href="#m98ed2383bb" y="291.28"/>
      </g>
     </g>
     <g id="text_4">
      <!-- 8 -->
      <defs>
       <path d="M 31.78125 34.625 
Q 24.75 34.625 20.71875 30.859375 
Q 16.703125 27.09375 16.703125 20.515625 
Q 16.703125 13.921875 20.71875 10.15625 
Q 24.75 6.390625 31.78125 6.390625 
Q 38.8125 6.390625 42.859375 10.171875 
Q 46.921875 13.96875 46.921875 20.515625 
Q 46.921875 27.09375 42.890625 30.859375 
Q 38.875 34.625 31.78125 34.625 
z
M 21.921875 38.8125 
Q 15.578125 40.375 12.03125 44.71875 
Q 8.5 49.078125 8.5 55.328125 
Q 8.5 64.0625 14.71875 69.140625 
Q 20.953125 74.21875 31.78125 74.21875 
Q 42.671875 74.21875 48.875 69.140625 
Q 55.078125 64.0625 55.078125 55.328125 
Q 55.078125 49.078125 51.53125 44.71875 
Q 48 40.375 41.703125 38.8125 
Q 48.828125 37.15625 52.796875 32.3125 
Q 56.78125 27.484375 56.78125 20.515625 
Q 56.78125 9.90625 50.3125 4.234375 
Q 43.84375 -1.421875 31.78125 -1.421875 
Q 19.734375 -1.421875 13.25 4.234375 
Q 6.78125 9.90625 6.78125 20.515625 
Q 6.78125 27.484375 10.78125 32.3125 
Q 14.796875 37.15625 21.921875 38.8125 
z
M 18.3125 54.390625 
Q 18.3125 48.734375 21.84375 45.5625 
Q 25.390625 42.390625 31.78125 42.390625 
Q 38.140625 42.390625 41.71875 45.5625 
Q 45.3125 48.734375 45.3125 54.390625 
Q 45.3125 60.0625 41.71875 63.234375 
Q 38.140625 66.40625 31.78125 66.40625 
Q 25.390625 66.40625 21.84375 63.234375 
Q 18.3125 60.0625 18.3125 54.390625 
z
" id="DejaVuSans-38"/>
      </defs>
      <g transform="translate(411.216269 313.476875)scale(0.2 -0.2)">
       <use xlink:href="#DejaVuSans-38"/>
      </g>
     </g>
    </g>
    <g id="text_5">
     <!-- log10 of Df -->
     <defs>
      <path d="M 9.421875 75.984375 
L 18.40625 75.984375 
L 18.40625 0 
L 9.421875 0 
z
" id="DejaVuSans-6c"/>
      <path d="M 30.609375 48.390625 
Q 23.390625 48.390625 19.1875 42.75 
Q 14.984375 37.109375 14.984375 27.296875 
Q 14.984375 17.484375 19.15625 11.84375 
Q 23.34375 6.203125 30.609375 6.203125 
Q 37.796875 6.203125 41.984375 11.859375 
Q 46.1875 17.53125 46.1875 27.296875 
Q 46.1875 37.015625 41.984375 42.703125 
Q 37.796875 48.390625 30.609375 48.390625 
z
M 30.609375 56 
Q 42.328125 56 49.015625 48.375 
Q 55.71875 40.765625 55.71875 27.296875 
Q 55.71875 13.875 49.015625 6.21875 
Q 42.328125 -1.421875 30.609375 -1.421875 
Q 18.84375 -1.421875 12.171875 6.21875 
Q 5.515625 13.875 5.515625 27.296875 
Q 5.515625 40.765625 12.171875 48.375 
Q 18.84375 56 30.609375 56 
z
" id="DejaVuSans-6f"/>
      <path d="M 45.40625 27.984375 
Q 45.40625 37.75 41.375 43.109375 
Q 37.359375 48.484375 30.078125 48.484375 
Q 22.859375 48.484375 18.828125 43.109375 
Q 14.796875 37.75 14.796875 27.984375 
Q 14.796875 18.265625 18.828125 12.890625 
Q 22.859375 7.515625 30.078125 7.515625 
Q 37.359375 7.515625 41.375 12.890625 
Q 45.40625 18.265625 45.40625 27.984375 
z
M 54.390625 6.78125 
Q 54.390625 -7.171875 48.1875 -13.984375 
Q 42 -20.796875 29.203125 -20.796875 
Q 24.46875 -20.796875 20.265625 -20.09375 
Q 16.0625 -19.390625 12.109375 -17.921875 
L 12.109375 -9.1875 
Q 16.0625 -11.328125 19.921875 -12.34375 
Q 23.78125 -13.375 27.78125 -13.375 
Q 36.625 -13.375 41.015625 -8.765625 
Q 45.40625 -4.15625 45.40625 5.171875 
L 45.40625 9.625 
Q 42.625 4.78125 38.28125 2.390625 
Q 33.9375 0 27.875 0 
Q 17.828125 0 11.671875 7.65625 
Q 5.515625 15.328125 5.515625 27.984375 
Q 5.515625 40.671875 11.671875 48.328125 
Q 17.828125 56 27.875 56 
Q 33.9375 56 38.28125 53.609375 
Q 42.625 51.21875 45.40625 46.390625 
L 45.40625 54.6875 
L 54.390625 54.6875 
z
" id="DejaVuSans-67"/>
      <path d="M 12.40625 8.296875 
L 28.515625 8.296875 
L 28.515625 63.921875 
L 10.984375 60.40625 
L 10.984375 69.390625 
L 28.421875 72.90625 
L 38.28125 72.90625 
L 38.28125 8.296875 
L 54.390625 8.296875 
L 54.390625 0 
L 12.40625 0 
z
" id="DejaVuSans-31"/>
      <path id="DejaVuSans-20"/>
      <path d="M 37.109375 75.984375 
L 37.109375 68.5 
L 28.515625 68.5 
Q 23.6875 68.5 21.796875 66.546875 
Q 19.921875 64.59375 19.921875 59.515625 
L 19.921875 54.6875 
L 34.71875 54.6875 
L 34.71875 47.703125 
L 19.921875 47.703125 
L 19.921875 0 
L 10.890625 0 
L 10.890625 47.703125 
L 2.296875 47.703125 
L 2.296875 54.6875 
L 10.890625 54.6875 
L 10.890625 58.5 
Q 10.890625 67.625 15.140625 71.796875 
Q 19.390625 75.984375 28.609375 75.984375 
z
" id="DejaVuSans-66"/>
      <path d="M 19.671875 64.796875 
L 19.671875 8.109375 
L 31.59375 8.109375 
Q 46.6875 8.109375 53.6875 14.9375 
Q 60.6875 21.78125 60.6875 36.53125 
Q 60.6875 51.171875 53.6875 57.984375 
Q 46.6875 64.796875 31.59375 64.796875 
z
M 9.8125 72.90625 
L 30.078125 72.90625 
Q 51.265625 72.90625 61.171875 64.09375 
Q 71.09375 55.28125 71.09375 36.53125 
Q 71.09375 17.671875 61.125 8.828125 
Q 51.171875 0 30.078125 0 
L 9.8125 0 
z
" id="DejaVuSans-44"/>
     </defs>
     <g transform="translate(172.910063 336.833125)scale(0.2 -0.2)">
      <use xlink:href="#DejaVuSans-6c"/>
      <use x="27.783203" xlink:href="#DejaVuSans-6f"/>
      <use x="88.964844" xlink:href="#DejaVuSans-67"/>
      <use x="152.441406" xlink:href="#DejaVuSans-31"/>
      <use x="216.064453" xlink:href="#DejaVuSans-30"/>
      <use x="279.6875" xlink:href="#DejaVuSans-20"/>
      <use x="311.474609" xlink:href="#DejaVuSans-6f"/>
      <use x="372.65625" xlink:href="#DejaVuSans-66"/>
      <use x="407.861328" xlink:href="#DejaVuSans-20"/>
      <use x="439.648438" xlink:href="#DejaVuSans-44"/>
      <use x="516.650391" xlink:href="#DejaVuSans-66"/>
     </g>
    </g>
   </g>
   <g id="matplotlib.axis_2">
    <g id="ytick_1">
     <g id="line2d_11">
      <path clip-path="url(#pc4c311c6ff)" d="M 5.52 291.28 
L 450.672 291.28 
" style="fill:none;stroke:#b0b0b0;stroke-linecap:square;stroke-width:0.8;"/>
     </g>
     <g id="line2d_12">
      <defs>
       <path d="M 0 0 
L -3.5 0 
" id="mc858d73ccf" style="stroke:#000000;stroke-width:0.8;"/>
      </defs>
      <g>
       <use style="stroke:#000000;stroke-width:0.8;" x="5.52" xlink:href="#mc858d73ccf" y="291.28"/>
      </g>
     </g>
    </g>
    <g id="ytick_2">
     <g id="line2d_13">
      <path clip-path="url(#pc4c311c6ff)" d="M 5.52 234.693861 
L 450.672 234.693861 
" style="fill:none;stroke:#b0b0b0;stroke-linecap:square;stroke-width:0.8;"/>
     </g>
     <g id="line2d_14">
      <g>
       <use style="stroke:#000000;stroke-width:0.8;" x="5.52" xlink:href="#mc858d73ccf" y="234.693861"/>
      </g>
     </g>
    </g>
    <g id="ytick_3">
     <g id="line2d_15">
      <path clip-path="url(#pc4c311c6ff)" d="M 5.52 178.107723 
L 450.672 178.107723 
" style="fill:none;stroke:#b0b0b0;stroke-linecap:square;stroke-width:0.8;"/>
     </g>
     <g id="line2d_16">
      <g>
       <use style="stroke:#000000;stroke-width:0.8;" x="5.52" xlink:href="#mc858d73ccf" y="178.107723"/>
      </g>
     </g>
    </g>
    <g id="ytick_4">
     <g id="line2d_17">
      <path clip-path="url(#pc4c311c6ff)" d="M 5.52 121.521584 
L 450.672 121.521584 
" style="fill:none;stroke:#b0b0b0;stroke-linecap:square;stroke-width:0.8;"/>
     </g>
     <g id="line2d_18">
      <g>
       <use style="stroke:#000000;stroke-width:0.8;" x="5.52" xlink:href="#mc858d73ccf" y="121.521584"/>
      </g>
     </g>
    </g>
    <g id="ytick_5">
     <g id="line2d_19">
      <path clip-path="url(#pc4c311c6ff)" d="M 5.52 64.935446 
L 450.672 64.935446 
" style="fill:none;stroke:#b0b0b0;stroke-linecap:square;stroke-width:0.8;"/>
     </g>
     <g id="line2d_20">
      <g>
       <use style="stroke:#000000;stroke-width:0.8;" x="5.52" xlink:href="#mc858d73ccf" y="64.935446"/>
      </g>
     </g>
    </g>
    <g id="ytick_6">
     <g id="line2d_21">
      <path clip-path="url(#pc4c311c6ff)" d="M 5.52 8.349307 
L 450.672 8.349307 
" style="fill:none;stroke:#b0b0b0;stroke-linecap:square;stroke-width:0.8;"/>
     </g>
     <g id="line2d_22">
      <g>
       <use style="stroke:#000000;stroke-width:0.8;" x="5.52" xlink:href="#mc858d73ccf" y="8.349307"/>
      </g>
     </g>
    </g>
   </g>
   <g id="line2d_23">
    <path clip-path="url(#pc4c311c6ff)" d="M 178.117068 291.28 
L 178.117068 287.507591 
L 179.204951 287.507591 
L 179.204951 283.735182 
L 179.509528 283.735182 
L 179.619519 276.190363 
L 182.981435 276.190363 
L 182.981435 272.417954 
L 183.341903 272.417954 
L 183.341903 268.645545 
L 184.993753 268.645545 
L 184.993753 264.873135 
L 187.279478 264.873135 
L 187.279478 261.100726 
L 187.582383 261.100726 
L 187.582383 257.328317 
L 189.173939 257.328317 
L 189.173939 253.555908 
L 193.299072 253.555908 
L 193.299072 249.783498 
L 193.749687 249.783498 
L 193.749687 246.011089 
L 196.000992 246.011089 
L 196.000992 189.42495 
L 197.635591 189.42495 
L 197.635591 185.652541 
L 199.52898 185.652541 
L 199.539578 178.107723 
L 200.161524 178.107723 
L 200.161524 174.335314 
L 201.090303 174.335314 
L 201.090303 170.562904 
L 201.367845 170.562904 
L 201.367845 166.790495 
L 201.987875 166.790495 
L 201.987875 163.018086 
L 202.890733 163.018086 
L 202.890733 159.245677 
L 206.170025 159.245677 
L 206.170025 155.473267 
L 207.222175 155.473267 
L 207.222175 151.700858 
L 207.760138 151.700858 
L 207.760138 147.928449 
L 208.234434 147.928449 
L 208.234434 144.15604 
L 208.989951 144.15604 
L 208.989951 140.38363 
L 209.521342 140.38363 
L 209.521342 136.611221 
L 211.728899 136.611221 
L 211.728899 132.838812 
L 212.063303 132.838812 
L 212.163272 125.293993 
L 213.71735 125.293993 
L 213.71735 121.521584 
L 213.970723 121.521584 
L 214.051172 113.976766 
L 214.343963 113.976766 
L 214.343963 110.204356 
L 215.415152 110.204356 
L 215.415152 106.431947 
L 215.574837 106.431947 
L 215.574837 102.659538 
L 218.477167 102.659538 
L 218.477167 98.887129 
L 218.805271 98.887129 
L 218.805271 95.114719 
L 219.189589 95.114719 
L 219.189589 91.34231 
L 220.405876 91.34231 
L 220.405876 87.569901 
L 220.777843 87.569901 
L 220.777843 83.797492 
L 222.554681 83.797492 
L 222.554681 80.025083 
L 222.970104 80.025083 
L 222.973499 72.480264 
L 223.555674 72.480264 
L 223.5883 64.935446 
L 226.746079 64.935446 
L 226.746079 61.163036 
L 227.03581 61.163036 
L 227.03581 57.390627 
L 228.559793 57.390627 
L 228.559793 53.618218 
L 231.774728 53.618218 
L 231.774728 49.845809 
L 231.979149 49.845809 
L 231.979149 46.073399 
L 234.095911 46.073399 
L 234.095911 42.30099 
L 234.65812 42.30099 
L 234.65812 38.528581 
L 236.708051 38.528581 
L 236.708051 34.756172 
L 237.608253 34.756172 
L 237.608253 30.983762 
L 239.412347 30.983762 
L 239.412347 27.211353 
L 240.015845 27.211353 
L 240.015845 23.438944 
L 242.150197 23.438944 
L 242.150197 19.666535 
L 242.641758 19.666535 
L 242.641758 15.894125 
L 243.233379 15.894125 
L 243.233379 12.121716 
L 246.119357 12.121716 
L 246.119357 8.349307 
L 246.119357 8.349307 
L 450.672 8.349307 
L 450.672 8.349307 
" style="fill:none;stroke:#ff0000;stroke-linecap:square;stroke-width:3;"/>
   </g>
   <g id="line2d_24">
    <path clip-path="url(#pc4c311c6ff)" d="M 196.000992 291.28 
L 196.000992 234.693861 
L 234.116243 234.693861 
L 234.116243 230.921452 
L 234.986604 230.921452 
L 234.986604 227.149043 
L 236.890086 227.149043 
L 236.890086 223.376634 
L 239.123502 223.376634 
L 239.123502 219.604224 
L 239.797905 219.604224 
L 239.797905 215.831815 
L 241.094386 215.831815 
L 241.094386 212.059406 
L 242.728773 212.059406 
L 242.824134 204.514587 
L 243.117595 204.514587 
L 243.117595 200.742178 
L 244.013159 200.742178 
L 244.013159 196.969769 
L 244.33522 196.969769 
L 244.34527 189.42495 
L 246.862898 189.42495 
L 246.862898 185.652541 
L 247.838463 185.652541 
L 247.838463 181.880132 
L 248.236165 181.880132 
L 248.236165 178.107723 
L 250.159076 178.107723 
L 250.159076 174.335314 
L 251.078741 174.335314 
L 251.078741 170.562904 
L 251.660711 170.562904 
L 251.660711 166.790495 
L 252.557209 166.790495 
L 252.557209 163.018086 
L 252.793687 163.018086 
L 252.802682 155.473267 
L 253.486142 155.473267 
L 253.486142 151.700858 
L 253.878268 151.700858 
L 253.878268 147.928449 
L 254.040121 147.928449 
L 254.040121 144.15604 
L 255.282372 144.15604 
L 255.282372 140.38363 
L 256.161744 140.38363 
L 256.161744 136.611221 
L 256.635363 136.611221 
L 256.635363 132.838812 
L 257.556768 132.838812 
L 257.556768 129.066403 
L 258.414797 129.066403 
L 258.414797 125.293993 
L 258.86162 125.293993 
L 258.86162 121.521584 
L 259.258042 121.521584 
L 259.258042 117.749175 
L 260.089461 117.749175 
L 260.089461 113.976766 
L 260.479231 113.976766 
L 260.479231 110.204356 
L 261.457818 110.204356 
L 261.457818 106.431947 
L 261.813692 106.431947 
L 261.813692 102.659538 
L 262.31224 102.659538 
L 262.405892 95.114719 
L 262.429423 95.114719 
L 262.429423 91.34231 
L 262.74444 91.34231 
L 262.74444 87.569901 
L 263.358775 87.569901 
L 263.358775 83.797492 
L 264.848165 83.797492 
L 264.848165 80.025083 
L 266.093758 80.025083 
L 266.127789 72.480264 
L 266.241699 72.480264 
L 266.241699 68.707855 
L 266.622434 68.707855 
L 266.657238 61.163036 
L 266.949217 61.163036 
L 267.05144 53.618218 
L 267.223737 53.618218 
L 267.223737 49.845809 
L 267.634153 49.845809 
L 267.703217 38.528581 
L 268.095505 38.528581 
L 268.178295 30.983762 
L 268.260596 30.983762 
L 268.260596 27.211353 
L 268.853981 27.211353 
L 268.853981 23.438944 
L 269.028037 23.438944 
L 269.028037 19.666535 
L 270.233754 19.666535 
L 270.233754 15.894125 
L 273.929434 15.894125 
L 273.929434 12.121716 
L 278.048182 12.121716 
L 278.048182 8.349307 
L 278.048182 8.349307 
L 450.672 8.349307 
L 450.672 8.349307 
" style="fill:none;stroke:#00bfbf;stroke-linecap:square;stroke-width:1.5;"/>
   </g>
   <g id="line2d_25">
    <path clip-path="url(#pc4c311c6ff)" d="M 196.000992 291.28 
L 196.000992 234.693861 
L 226.795474 234.693861 
L 226.795474 230.921452 
L 229.391426 230.921452 
L 229.391426 227.149043 
L 231.117613 227.149043 
L 231.117613 223.376634 
L 234.116243 223.376634 
L 234.116243 219.604224 
L 234.986604 219.604224 
L 234.986604 215.831815 
L 235.303593 215.831815 
L 235.303593 212.059406 
L 236.591843 212.059406 
L 236.591843 208.286997 
L 236.837315 208.286997 
L 236.890086 200.742178 
L 238.143874 200.742178 
L 238.143874 196.969769 
L 238.899674 196.969769 
L 238.899674 193.19736 
L 239.797905 193.19736 
L 239.797905 189.42495 
L 240.15626 189.42495 
L 240.15626 185.652541 
L 241.095291 185.652541 
L 241.095291 181.880132 
L 241.560267 181.880132 
L 241.560267 178.107723 
L 244.013159 178.107723 
L 244.013159 174.335314 
L 245.443349 174.335314 
L 245.443349 170.562904 
L 246.616403 170.562904 
L 246.616403 166.790495 
L 246.862898 166.790495 
L 246.862898 163.018086 
L 247.838463 163.018086 
L 247.838463 159.245677 
L 249.648742 159.245677 
L 249.648742 155.473267 
L 249.762325 155.473267 
L 249.762325 151.700858 
L 250.159076 151.700858 
L 250.159076 147.928449 
L 251.674751 147.928449 
L 251.674751 144.15604 
L 251.957339 144.15604 
L 251.957339 140.38363 
L 252.506793 140.38363 
L 252.557209 132.838812 
L 252.705227 132.838812 
L 252.793687 125.293993 
L 253.234797 125.293993 
L 253.234797 121.521584 
L 254.040121 121.521584 
L 254.040121 117.749175 
L 254.303341 117.749175 
L 254.370189 110.204356 
L 254.585455 110.204356 
L 254.620196 102.659538 
L 255.248301 102.659538 
L 255.282372 95.114719 
L 255.781207 95.114719 
L 255.781207 91.34231 
L 256.614034 91.34231 
L 256.614034 87.569901 
L 258.569482 87.569901 
L 258.569482 83.797492 
L 259.17319 83.797492 
L 259.258042 76.252673 
L 260.089461 76.252673 
L 260.089461 72.480264 
L 260.448018 72.480264 
L 260.448018 68.707855 
L 261.387059 68.707855 
L 261.387059 64.935446 
L 262.405892 64.935446 
L 262.405892 61.163036 
L 262.891444 61.163036 
L 262.891444 57.390627 
L 263.971564 57.390627 
L 263.971564 53.618218 
L 264.848165 53.618218 
L 264.848165 49.845809 
L 266.127789 49.845809 
L 266.219294 42.30099 
L 266.657238 42.30099 
L 266.657238 38.528581 
L 267.634153 38.528581 
L 267.703217 30.983762 
L 268.095505 30.983762 
L 268.095505 27.211353 
L 268.260596 27.211353 
L 268.260596 23.438944 
L 268.853981 23.438944 
L 268.853981 19.666535 
L 269.028037 19.666535 
L 269.028037 15.894125 
L 270.233754 15.894125 
L 270.233754 12.121716 
L 276.124943 12.121716 
L 276.124943 8.349307 
L 276.124943 8.349307 
L 450.672 8.349307 
L 450.672 8.349307 
" style="fill:none;stroke:#bf00bf;stroke-linecap:square;stroke-width:1.5;"/>
   </g>
   <g id="line2d_26">
    <path clip-path="url(#pc4c311c6ff)" d="M 196.000992 291.28 
L 196.000992 234.693861 
L 226.795474 234.693861 
L 226.795474 230.921452 
L 228.863396 230.921452 
L 228.863396 227.149043 
L 229.391426 227.149043 
L 229.391426 223.376634 
L 231.117613 223.376634 
L 231.117613 219.604224 
L 232.814345 219.604224 
L 232.814345 215.831815 
L 233.709395 215.831815 
L 233.709395 212.059406 
L 234.407809 212.059406 
L 234.407809 208.286997 
L 234.524735 208.286997 
L 234.524735 204.514587 
L 234.986604 204.514587 
L 234.986604 200.742178 
L 235.303593 200.742178 
L 235.303593 196.969769 
L 236.591843 196.969769 
L 236.591843 193.19736 
L 236.837315 193.19736 
L 236.837315 189.42495 
L 238.09925 189.42495 
L 238.09925 185.652541 
L 238.652303 185.652541 
L 238.652303 181.880132 
L 239.771941 181.880132 
L 239.771941 178.107723 
L 241.667649 178.107723 
L 241.667649 174.335314 
L 243.02547 174.335314 
L 243.02547 170.562904 
L 245.443349 170.562904 
L 245.443349 166.790495 
L 246.616403 166.790495 
L 246.616403 163.018086 
L 246.862898 163.018086 
L 246.862898 159.245677 
L 247.838463 159.245677 
L 247.838463 155.473267 
L 248.682182 155.473267 
L 248.682182 151.700858 
L 249.638755 151.700858 
L 249.648742 144.15604 
L 249.762325 144.15604 
L 249.762325 140.38363 
L 250.030592 140.38363 
L 250.030592 136.611221 
L 250.159076 136.611221 
L 250.177114 129.066403 
L 250.428734 129.066403 
L 250.428734 125.293993 
L 251.620863 125.293993 
L 251.674751 117.749175 
L 251.957339 117.749175 
L 252.053456 110.204356 
L 252.390985 110.204356 
L 252.390985 106.431947 
L 252.666137 106.431947 
L 252.705227 98.887129 
L 252.793687 98.887129 
L 252.793687 95.114719 
L 253.31727 95.114719 
L 253.31727 91.34231 
L 254.040121 91.34231 
L 254.040121 87.569901 
L 254.303341 87.569901 
L 254.370189 80.025083 
L 254.454448 80.025083 
L 254.454448 76.252673 
L 254.585455 76.252673 
L 254.585455 72.480264 
L 258.280592 72.480264 
L 258.280592 68.707855 
L 259.17319 68.707855 
L 259.17319 64.935446 
L 260.089461 64.935446 
L 260.089461 61.163036 
L 261.925295 61.163036 
L 262.020116 53.618218 
L 262.891444 53.618218 
L 262.891444 49.845809 
L 263.971564 49.845809 
L 263.971564 46.073399 
L 264.848165 46.073399 
L 264.848165 42.30099 
L 265.005847 42.30099 
L 265.005847 38.528581 
L 266.048028 38.528581 
L 266.127789 30.983762 
L 266.425375 30.983762 
L 266.425375 27.211353 
L 267.455708 27.211353 
L 267.455708 23.438944 
L 267.634153 23.438944 
L 267.634153 19.666535 
L 268.095505 19.666535 
L 268.095505 15.894125 
L 270.233754 15.894125 
L 270.233754 12.121716 
L 273.010371 12.121716 
L 273.010371 8.349307 
L 273.010371 8.349307 
L 450.672 8.349307 
L 450.672 8.349307 
" style="fill:none;stroke:#000000;stroke-linecap:square;stroke-width:1.5;"/>
   </g>
   <g id="line2d_27">
    <path clip-path="url(#pc4c311c6ff)" d="M 196.000992 291.28 
L 196.000992 234.693861 
L 226.795474 234.693861 
L 226.795474 230.921452 
L 228.214488 230.921452 
L 228.214488 227.149043 
L 228.863396 227.149043 
L 228.863396 223.376634 
L 229.105384 223.376634 
L 229.105384 219.604224 
L 229.391426 219.604224 
L 229.391426 215.831815 
L 230.896779 215.831815 
L 230.996284 208.286997 
L 233.356705 208.286997 
L 233.356705 204.514587 
L 233.595077 204.514587 
L 233.595077 200.742178 
L 233.759529 200.742178 
L 233.759529 196.969769 
L 234.394063 196.969769 
L 234.394063 193.19736 
L 234.524735 193.19736 
L 234.524735 189.42495 
L 235.303593 189.42495 
L 235.391241 181.880132 
L 236.837315 181.880132 
L 236.837315 178.107723 
L 236.966384 178.107723 
L 236.966384 174.335314 
L 238.02979 174.335314 
L 238.02979 170.562904 
L 239.742124 170.562904 
L 239.742124 166.790495 
L 241.730881 166.790495 
L 241.730881 163.018086 
L 242.013812 163.018086 
L 242.013812 159.245677 
L 242.389179 159.245677 
L 242.389179 155.473267 
L 243.016765 155.473267 
L 243.02547 147.928449 
L 243.170317 147.928449 
L 243.170317 144.15604 
L 244.134464 144.15604 
L 244.134464 140.38363 
L 244.476657 140.38363 
L 244.476657 136.611221 
L 244.588174 136.611221 
L 244.588174 132.838812 
L 245.405054 132.838812 
L 245.443349 125.293993 
L 245.904461 125.293993 
L 245.904461 121.521584 
L 246.518522 121.521584 
L 246.616403 113.976766 
L 246.648242 113.976766 
L 246.648242 110.204356 
L 246.862898 110.204356 
L 246.862898 106.431947 
L 247.647776 106.431947 
L 247.647776 102.659538 
L 248.206857 102.659538 
L 248.206857 98.887129 
L 248.988636 98.887129 
L 248.988636 95.114719 
L 249.709836 95.114719 
L 249.762325 87.569901 
L 250.065859 87.569901 
L 250.065859 83.797492 
L 250.177114 83.797492 
L 250.244595 76.252673 
L 250.28873 76.252673 
L 250.295438 68.707855 
L 250.927551 68.707855 
L 250.927551 64.935446 
L 252.349991 64.935446 
L 252.349991 61.163036 
L 253.199039 61.163036 
L 253.199039 57.390627 
L 259.496505 57.390627 
L 259.496505 53.618218 
L 259.923994 53.618218 
L 260.03407 46.073399 
L 260.172447 46.073399 
L 260.172447 42.30099 
L 260.701186 42.30099 
L 260.701186 38.528581 
L 261.565479 38.528581 
L 261.565479 34.756172 
L 261.700484 34.756172 
L 261.700484 30.983762 
L 261.925295 30.983762 
L 261.925295 27.211353 
L 262.389357 27.211353 
L 262.389357 23.438944 
L 262.652204 23.438944 
L 262.652204 19.666535 
L 262.823688 19.666535 
L 262.823688 15.894125 
L 263.924075 15.894125 
L 263.924075 12.121716 
L 264.168697 12.121716 
L 264.168697 8.349307 
L 264.168697 8.349307 
L 450.672 8.349307 
L 450.672 8.349307 
" style="fill:none;stroke:#00bfbf;stroke-linecap:square;stroke-width:1.5;"/>
   </g>
   <g id="line2d_28">
    <path clip-path="url(#pc4c311c6ff)" d="M 196.000992 291.28 
L 196.000992 234.693861 
L 215.062187 234.693861 
L 215.062187 230.921452 
L 216.379744 230.921452 
L 216.379744 227.149043 
L 221.184761 227.149043 
L 221.184761 223.376634 
L 221.755219 223.376634 
L 221.755219 219.604224 
L 223.491477 219.604224 
L 223.491477 215.831815 
L 223.757106 215.831815 
L 223.757106 212.059406 
L 224.032276 212.059406 
L 224.032276 208.286997 
L 224.573187 208.286997 
L 224.573187 204.514587 
L 225.443045 204.514587 
L 225.443045 200.742178 
L 225.6402 200.742178 
L 225.6402 196.969769 
L 227.164239 196.969769 
L 227.164239 193.19736 
L 227.695432 193.19736 
L 227.695432 189.42495 
L 228.207417 189.42495 
L 228.207417 185.652541 
L 228.480123 185.652541 
L 228.480123 181.880132 
L 229.040261 181.880132 
L 229.105384 174.335314 
L 229.314766 174.335314 
L 229.314766 170.562904 
L 230.578878 170.562904 
L 230.578878 166.790495 
L 231.927645 166.790495 
L 231.927645 163.018086 
L 233.520156 163.018086 
L 233.520156 159.245677 
L 233.687524 159.245677 
L 233.687524 155.473267 
L 233.960567 155.473267 
L 233.960567 151.700858 
L 234.088185 151.700858 
L 234.088185 147.928449 
L 234.402139 147.928449 
L 234.402139 144.15604 
L 234.682115 144.15604 
L 234.682115 140.38363 
L 234.919036 140.38363 
L 234.919036 136.611221 
L 235.20626 136.611221 
L 235.20626 132.838812 
L 235.514254 132.838812 
L 235.514254 129.066403 
L 235.642378 129.066403 
L 235.642378 125.293993 
L 236.273804 125.293993 
L 236.361974 117.749175 
L 236.53605 117.749175 
L 236.53605 113.976766 
L 236.657032 113.976766 
L 236.657032 110.204356 
L 236.920959 110.204356 
L 236.920959 106.431947 
L 237.118528 106.431947 
L 237.118528 102.659538 
L 237.254071 102.659538 
L 237.254071 98.887129 
L 237.777832 98.887129 
L 237.777832 95.114719 
L 237.939663 95.114719 
L 238.005792 87.569901 
L 238.158951 87.569901 
L 238.158951 83.797492 
L 239.179327 83.797492 
L 239.179327 80.025083 
L 240.378376 80.025083 
L 240.378376 76.252673 
L 240.709925 76.252673 
L 240.709925 72.480264 
L 242.229261 72.480264 
L 242.229261 68.707855 
L 243.976184 68.707855 
L 243.976184 64.935446 
L 249.709836 64.935446 
L 249.709836 61.163036 
L 250.555871 61.163036 
L 250.555871 57.390627 
L 250.742062 57.390627 
L 250.742062 53.618218 
L 251.268924 53.618218 
L 251.268924 49.845809 
L 251.504547 49.845809 
L 251.504547 46.073399 
L 251.804214 46.073399 
L 251.804214 42.30099 
L 251.984653 42.30099 
L 252.052633 34.756172 
L 253.26139 34.756172 
L 253.26139 30.983762 
L 253.783907 30.983762 
L 253.783907 27.211353 
L 253.937598 27.211353 
L 253.937598 23.438944 
L 254.13658 23.438944 
L 254.13658 19.666535 
L 255.611649 19.666535 
L 255.611649 15.894125 
L 255.913954 15.894125 
L 255.913954 12.121716 
L 256.52774 12.121716 
L 256.52774 8.349307 
L 256.52774 8.349307 
L 450.672 8.349307 
L 450.672 8.349307 
" style="fill:none;stroke:#bf00bf;stroke-linecap:square;stroke-width:1.5;"/>
   </g>
   <g id="line2d_29">
    <path clip-path="url(#pc4c311c6ff)" d="M 185.214315 291.28 
L 185.214315 287.507591 
L 188.207695 287.507591 
L 188.207695 283.735182 
L 189.058727 283.735182 
L 189.058727 279.962772 
L 189.92858 279.962772 
L 189.92858 276.190363 
L 193.243659 276.190363 
L 193.243659 272.417954 
L 196.000992 272.417954 
L 196.000992 215.831815 
L 196.230254 215.831815 
L 196.230254 212.059406 
L 197.822873 212.059406 
L 197.822873 208.286997 
L 198.461647 208.286997 
L 198.461647 204.514587 
L 200.072704 204.514587 
L 200.072704 200.742178 
L 200.523689 200.742178 
L 200.523689 196.969769 
L 201.032171 196.969769 
L 201.032171 193.19736 
L 201.632537 193.19736 
L 201.632537 189.42495 
L 203.376668 189.42495 
L 203.376668 185.652541 
L 204.630163 185.652541 
L 204.630163 181.880132 
L 205.014769 181.880132 
L 205.014769 178.107723 
L 206.248348 178.107723 
L 206.248348 174.335314 
L 207.871197 174.335314 
L 207.965521 166.790495 
L 208.014537 166.790495 
L 208.032644 159.245677 
L 208.932757 159.245677 
L 208.932757 155.473267 
L 210.944604 155.473267 
L 210.944604 151.700858 
L 211.728899 151.700858 
L 211.728899 147.928449 
L 214.524398 147.928449 
L 214.630161 140.38363 
L 214.895425 140.38363 
L 214.895425 136.611221 
L 216.158093 136.611221 
L 216.158093 132.838812 
L 216.452933 132.838812 
L 216.452933 129.066403 
L 216.863239 129.066403 
L 216.863239 125.293993 
L 217.214325 125.293993 
L 217.214325 121.521584 
L 218.248966 121.521584 
L 218.248966 117.749175 
L 219.231093 117.749175 
L 219.231093 113.976766 
L 221.503927 113.976766 
L 221.503927 110.204356 
L 222.578967 110.204356 
L 222.578967 106.431947 
L 223.273623 106.431947 
L 223.273623 102.659538 
L 224.919459 102.659538 
L 224.919459 98.887129 
L 225.640523 98.887129 
L 225.640523 95.114719 
L 226.65257 95.114719 
L 226.65257 91.34231 
L 226.877929 91.34231 
L 226.877929 87.569901 
L 227.54741 87.569901 
L 227.54741 83.797492 
L 227.787552 83.797492 
L 227.787552 80.025083 
L 228.621814 80.025083 
L 228.621814 76.252673 
L 228.938118 76.252673 
L 228.938118 72.480264 
L 229.811926 72.480264 
L 229.811926 68.707855 
L 231.10401 68.707855 
L 231.10401 64.935446 
L 233.435383 64.935446 
L 233.435383 61.163036 
L 234.543552 61.163036 
L 234.543552 57.390627 
L 235.108718 57.390627 
L 235.108718 53.618218 
L 236.95621 53.618218 
L 236.95621 49.845809 
L 237.590011 49.845809 
L 237.590011 46.073399 
L 238.003964 46.073399 
L 238.003964 42.30099 
L 239.836765 42.30099 
L 239.836765 38.528581 
L 242.1806 38.528581 
L 242.1806 34.756172 
L 242.547953 34.756172 
L 242.577534 23.438944 
L 243.251137 23.438944 
L 243.251137 19.666535 
L 243.496998 19.666535 
L 243.496998 15.894125 
L 246.329405 15.894125 
L 246.329405 12.121716 
L 248.508763 12.121716 
L 248.508763 8.349307 
L 248.508763 8.349307 
L 450.672 8.349307 
L 450.672 8.349307 
" style="fill:none;stroke:#000000;stroke-linecap:square;stroke-width:1.5;"/>
   </g>
   <g id="patch_3">
    <path d="M 5.52 291.28 
L 5.52 5.52 
" style="fill:none;stroke:#000000;stroke-linecap:square;stroke-linejoin:miter;stroke-width:0.8;"/>
   </g>
   <g id="patch_4">
    <path d="M 450.672 291.28 
L 450.672 5.52 
" style="fill:none;stroke:#000000;stroke-linecap:square;stroke-linejoin:miter;stroke-width:0.8;"/>
   </g>
   <g id="patch_5">
    <path d="M 5.52 291.28 
L 450.672 291.28 
" style="fill:none;stroke:#000000;stroke-linecap:square;stroke-linejoin:miter;stroke-width:0.8;"/>
   </g>
   <g id="patch_6">
    <path d="M 5.52 5.52 
L 450.672 5.52 
" style="fill:none;stroke:#000000;stroke-linecap:square;stroke-linejoin:miter;stroke-width:0.8;"/>
   </g>
   <g id="text_6">
    <!-- {f15-f19}, 5-D -->
    <defs>
     <path d="M 51.125 -9.28125 
L 51.125 -16.3125 
L 48.09375 -16.3125 
Q 35.9375 -16.3125 31.8125 -12.6875 
Q 27.6875 -9.078125 27.6875 1.703125 
L 27.6875 13.375 
Q 27.6875 20.75 25.046875 23.578125 
Q 22.40625 26.421875 15.484375 26.421875 
L 12.5 26.421875 
L 12.5 33.40625 
L 15.484375 33.40625 
Q 22.46875 33.40625 25.078125 36.203125 
Q 27.6875 39.015625 27.6875 46.296875 
L 27.6875 58.015625 
Q 27.6875 68.796875 31.8125 72.390625 
Q 35.9375 75.984375 48.09375 75.984375 
L 51.125 75.984375 
L 51.125 69 
L 47.796875 69 
Q 40.921875 69 38.8125 66.84375 
Q 36.71875 64.703125 36.71875 57.8125 
L 36.71875 45.703125 
Q 36.71875 38.03125 34.5 34.5625 
Q 32.28125 31.109375 26.90625 29.890625 
Q 32.328125 28.5625 34.515625 25.09375 
Q 36.71875 21.625 36.71875 14.015625 
L 36.71875 1.90625 
Q 36.71875 -4.984375 38.8125 -7.125 
Q 40.921875 -9.28125 47.796875 -9.28125 
z
" id="DejaVuSans-7b"/>
     <path d="M 10.796875 72.90625 
L 49.515625 72.90625 
L 49.515625 64.59375 
L 19.828125 64.59375 
L 19.828125 46.734375 
Q 21.96875 47.46875 24.109375 47.828125 
Q 26.265625 48.1875 28.421875 48.1875 
Q 40.625 48.1875 47.75 41.5 
Q 54.890625 34.8125 54.890625 23.390625 
Q 54.890625 11.625 47.5625 5.09375 
Q 40.234375 -1.421875 26.90625 -1.421875 
Q 22.3125 -1.421875 17.546875 -0.640625 
Q 12.796875 0.140625 7.71875 1.703125 
L 7.71875 11.625 
Q 12.109375 9.234375 16.796875 8.0625 
Q 21.484375 6.890625 26.703125 6.890625 
Q 35.15625 6.890625 40.078125 11.328125 
Q 45.015625 15.765625 45.015625 23.390625 
Q 45.015625 31 40.078125 35.4375 
Q 35.15625 39.890625 26.703125 39.890625 
Q 22.75 39.890625 18.8125 39.015625 
Q 14.890625 38.140625 10.796875 36.28125 
z
" id="DejaVuSans-35"/>
     <path d="M 10.984375 1.515625 
L 10.984375 10.5 
Q 14.703125 8.734375 18.5 7.8125 
Q 22.3125 6.890625 25.984375 6.890625 
Q 35.75 6.890625 40.890625 13.453125 
Q 46.046875 20.015625 46.78125 33.40625 
Q 43.953125 29.203125 39.59375 26.953125 
Q 35.25 24.703125 29.984375 24.703125 
Q 19.046875 24.703125 12.671875 31.3125 
Q 6.296875 37.9375 6.296875 49.421875 
Q 6.296875 60.640625 12.9375 67.421875 
Q 19.578125 74.21875 30.609375 74.21875 
Q 43.265625 74.21875 49.921875 64.515625 
Q 56.59375 54.828125 56.59375 36.375 
Q 56.59375 19.140625 48.40625 8.859375 
Q 40.234375 -1.421875 26.421875 -1.421875 
Q 22.703125 -1.421875 18.890625 -0.6875 
Q 15.09375 0.046875 10.984375 1.515625 
z
M 30.609375 32.421875 
Q 37.25 32.421875 41.125 36.953125 
Q 45.015625 41.5 45.015625 49.421875 
Q 45.015625 57.28125 41.125 61.84375 
Q 37.25 66.40625 30.609375 66.40625 
Q 23.96875 66.40625 20.09375 61.84375 
Q 16.21875 57.28125 16.21875 49.421875 
Q 16.21875 41.5 20.09375 36.953125 
Q 23.96875 32.421875 30.609375 32.421875 
z
" id="DejaVuSans-39"/>
     <path d="M 12.5 -9.28125 
L 15.921875 -9.28125 
Q 22.75 -9.28125 24.828125 -7.171875 
Q 26.90625 -5.078125 26.90625 1.90625 
L 26.90625 14.015625 
Q 26.90625 21.625 29.09375 25.09375 
Q 31.296875 28.5625 36.71875 29.890625 
Q 31.296875 31.109375 29.09375 34.5625 
Q 26.90625 38.03125 26.90625 45.703125 
L 26.90625 57.8125 
Q 26.90625 64.75 24.828125 66.875 
Q 22.75 69 15.921875 69 
L 12.5 69 
L 12.5 75.984375 
L 15.578125 75.984375 
Q 27.734375 75.984375 31.8125 72.390625 
Q 35.890625 68.796875 35.890625 58.015625 
L 35.890625 46.296875 
Q 35.890625 39.015625 38.515625 36.203125 
Q 41.15625 33.40625 48.09375 33.40625 
L 51.125 33.40625 
L 51.125 26.421875 
L 48.09375 26.421875 
Q 41.15625 26.421875 38.515625 23.578125 
Q 35.890625 20.75 35.890625 13.375 
L 35.890625 1.703125 
Q 35.890625 -9.078125 31.8125 -12.6875 
Q 27.734375 -16.3125 15.578125 -16.3125 
L 12.5 -16.3125 
z
" id="DejaVuSans-7d"/>
     <path d="M 11.71875 12.40625 
L 22.015625 12.40625 
L 22.015625 4 
L 14.015625 -11.625 
L 7.71875 -11.625 
L 11.71875 4 
z
" id="DejaVuSans-2c"/>
    </defs>
    <g transform="translate(296.06896 285.5648)scale(0.2 -0.2)">
     <use xlink:href="#DejaVuSans-7b"/>
     <use x="63.623047" xlink:href="#DejaVuSans-66"/>
     <use x="98.828125" xlink:href="#DejaVuSans-31"/>
     <use x="162.451172" xlink:href="#DejaVuSans-35"/>
     <use x="226.074219" xlink:href="#DejaVuSans-2d"/>
     <use x="262.158203" xlink:href="#DejaVuSans-66"/>
     <use x="297.363281" xlink:href="#DejaVuSans-31"/>
     <use x="360.986328" xlink:href="#DejaVuSans-39"/>
     <use x="424.609375" xlink:href="#DejaVuSans-7d"/>
     <use x="488.232422" xlink:href="#DejaVuSans-2c"/>
     <use x="520.019531" xlink:href="#DejaVuSans-20"/>
     <use x="551.806641" xlink:href="#DejaVuSans-35"/>
     <use x="615.429688" xlink:href="#DejaVuSans-2d"/>
     <use x="651.513672" xlink:href="#DejaVuSans-44"/>
    </g>
   </g>
   <g id="text_7">
    <!-- v0.0.0 -->
    <defs>
     <path d="M 2.984375 54.6875 
L 12.5 54.6875 
L 29.59375 8.796875 
L 46.6875 54.6875 
L 56.203125 54.6875 
L 35.6875 0 
L 23.484375 0 
z
" id="DejaVuSans-76"/>
     <path d="M 10.6875 12.40625 
L 21 12.40625 
L 21 0 
L 10.6875 0 
z
" id="DejaVuSans-2e"/>
    </defs>
    <g style="fill:#808080;" transform="translate(212.41475 286.342713)scale(0.1 -0.1)">
     <use xlink:href="#DejaVuSans-76"/>
     <use x="59.179688" xlink:href="#DejaVuSans-30"/>
     <use x="122.802734" xlink:href="#DejaVuSans-2e"/>
     <use x="154.589844" xlink:href="#DejaVuSans-30"/>
     <use x="218.212891" xlink:href="#DejaVuSans-2e"/>
     <use x="250" xlink:href="#DejaVuSans-30"/>
    </g>
   </g>
  </g>
 </g>
 <defs>
  <clipPath id="pc4c311c6ff">
   <rect height="285.76" width="445.152" x="5.52" y="5.52"/>
  </clipPath>
 </defs>
</svg>
