<?xml version="1.0" encoding="utf-8" standalone="no"?>
<!DOCTYPE svg PUBLIC "-//W3C//DTD SVG 1.1//EN"
  "http://www.w3.org/Graphics/SVG/1.1/DTD/svg11.dtd">
<!-- Created with matplotlib (http://matplotlib.org/) -->
<svg height="345.6pt" version="1.1" viewBox="0 0 460.8 345.6" width="460.8pt" xmlns="http://www.w3.org/2000/svg" xmlns:xlink="http://www.w3.org/1999/xlink">
 <defs>
  <style type="text/css">
*{stroke-linecap:butt;stroke-linejoin:round;}
  </style>
 </defs>
 <g id="figure_1">
  <g id="patch_1">
   <path d="M 0 345.6 
L 460.8 345.6 
L 460.8 0 
L 0 0 
z
" style="fill:#ffffff;"/>
  </g>
  <g id="axes_1">
   <g id="patch_2">
    <path d="M 56.12 294.88 
L 333.168 294.88 
L 333.168 6.845228 
L 56.12 6.845228 
z
" style="fill:#ffffff;"/>
   </g>
   <g id="matplotlib.axis_1">
    <g id="xtick_1">
     <g id="line2d_1">
      <path clip-path="url(#p8ec5b98494)" d="M 56.12 294.88 
L 56.12 6.845228 
" style="fill:none;stroke:#b0b0b0;stroke-linecap:square;stroke-width:0.8;"/>
     </g>
     <g id="line2d_2">
      <defs>
       <path d="M 0 0 
L 0 3.5 
" id="m5dacda2a92" style="stroke:#000000;stroke-width:0.8;"/>
      </defs>
      <g>
       <use style="stroke:#000000;stroke-width:0.8;" x="56.12" xlink:href="#m5dacda2a92" y="294.88"/>
      </g>
     </g>
     <g id="text_1">
      <!-- 0 -->
      <defs>
       <path d="M 31.78125 66.40625 
Q 24.171875 66.40625 20.328125 58.90625 
Q 16.5 51.421875 16.5 36.375 
Q 16.5 21.390625 20.328125 13.890625 
Q 24.171875 6.390625 31.78125 6.390625 
Q 39.453125 6.390625 43.28125 13.890625 
Q 47.125 21.390625 47.125 36.375 
Q 47.125 51.421875 43.28125 58.90625 
Q 39.453125 66.40625 31.78125 66.40625 
z
M 31.78125 74.21875 
Q 44.046875 74.21875 50.515625 64.515625 
Q 56.984375 54.828125 56.984375 36.375 
Q 56.984375 17.96875 50.515625 8.265625 
Q 44.046875 -1.421875 31.78125 -1.421875 
Q 19.53125 -1.421875 13.0625 8.265625 
Q 6.59375 17.96875 6.59375 36.375 
Q 6.59375 54.828125 13.0625 64.515625 
Q 19.53125 74.21875 31.78125 74.21875 
z
" id="DejaVuSans-30"/>
      </defs>
      <g transform="translate(49.7575 317.076875)scale(0.2 -0.2)">
       <use xlink:href="#DejaVuSans-30"/>
      </g>
     </g>
    </g>
    <g id="xtick_2">
     <g id="line2d_3">
      <path clip-path="url(#p8ec5b98494)" d="M 135.276571 294.88 
L 135.276571 6.845228 
" style="fill:none;stroke:#b0b0b0;stroke-linecap:square;stroke-width:0.8;"/>
     </g>
     <g id="line2d_4">
      <g>
       <use style="stroke:#000000;stroke-width:0.8;" x="135.276571" xlink:href="#m5dacda2a92" y="294.88"/>
      </g>
     </g>
     <g id="text_2">
      <!-- 2 -->
      <defs>
       <path d="M 19.1875 8.296875 
L 53.609375 8.296875 
L 53.609375 0 
L 7.328125 0 
L 7.328125 8.296875 
Q 12.9375 14.109375 22.625 23.890625 
Q 32.328125 33.6875 34.8125 36.53125 
Q 39.546875 41.84375 41.421875 45.53125 
Q 43.3125 49.21875 43.3125 52.78125 
Q 43.3125 58.59375 39.234375 62.25 
Q 35.15625 65.921875 28.609375 65.921875 
Q 23.96875 65.921875 18.8125 64.3125 
Q 13.671875 62.703125 7.8125 59.421875 
L 7.8125 69.390625 
Q 13.765625 71.78125 18.9375 73 
Q 24.125 74.21875 28.421875 74.21875 
Q 39.75 74.21875 46.484375 68.546875 
Q 53.21875 62.890625 53.21875 53.421875 
Q 53.21875 48.921875 51.53125 44.890625 
Q 49.859375 40.875 45.40625 35.40625 
Q 44.1875 33.984375 37.640625 27.21875 
Q 31.109375 20.453125 19.1875 8.296875 
z
" id="DejaVuSans-32"/>
      </defs>
      <g transform="translate(128.914071 317.076875)scale(0.2 -0.2)">
       <use xlink:href="#DejaVuSans-32"/>
      </g>
     </g>
    </g>
    <g id="xtick_3">
     <g id="line2d_5">
      <path clip-path="url(#p8ec5b98494)" d="M 214.433143 294.88 
L 214.433143 6.845228 
" style="fill:none;stroke:#b0b0b0;stroke-linecap:square;stroke-width:0.8;"/>
     </g>
     <g id="line2d_6">
      <g>
       <use style="stroke:#000000;stroke-width:0.8;" x="214.433143" xlink:href="#m5dacda2a92" y="294.88"/>
      </g>
     </g>
     <g id="text_3">
      <!-- 4 -->
      <defs>
       <path d="M 37.796875 64.3125 
L 12.890625 25.390625 
L 37.796875 25.390625 
z
M 35.203125 72.90625 
L 47.609375 72.90625 
L 47.609375 25.390625 
L 58.015625 25.390625 
L 58.015625 17.1875 
L 47.609375 17.1875 
L 47.609375 0 
L 37.796875 0 
L 37.796875 17.1875 
L 4.890625 17.1875 
L 4.890625 26.703125 
z
" id="DejaVuSans-34"/>
      </defs>
      <g transform="translate(208.070643 317.076875)scale(0.2 -0.2)">
       <use xlink:href="#DejaVuSans-34"/>
      </g>
     </g>
    </g>
    <g id="xtick_4">
     <g id="line2d_7">
      <path clip-path="url(#p8ec5b98494)" d="M 293.589714 294.88 
L 293.589714 6.845228 
" style="fill:none;stroke:#b0b0b0;stroke-linecap:square;stroke-width:0.8;"/>
     </g>
     <g id="line2d_8">
      <g>
       <use style="stroke:#000000;stroke-width:0.8;" x="293.589714" xlink:href="#m5dacda2a92" y="294.88"/>
      </g>
     </g>
     <g id="text_4">
      <!-- 6 -->
      <defs>
       <path d="M 33.015625 40.375 
Q 26.375 40.375 22.484375 35.828125 
Q 18.609375 31.296875 18.609375 23.390625 
Q 18.609375 15.53125 22.484375 10.953125 
Q 26.375 6.390625 33.015625 6.390625 
Q 39.65625 6.390625 43.53125 10.953125 
Q 47.40625 15.53125 47.40625 23.390625 
Q 47.40625 31.296875 43.53125 35.828125 
Q 39.65625 40.375 33.015625 40.375 
z
M 52.59375 71.296875 
L 52.59375 62.3125 
Q 48.875 64.0625 45.09375 64.984375 
Q 41.3125 65.921875 37.59375 65.921875 
Q 27.828125 65.921875 22.671875 59.328125 
Q 17.53125 52.734375 16.796875 39.40625 
Q 19.671875 43.65625 24.015625 45.921875 
Q 28.375 48.1875 33.59375 48.1875 
Q 44.578125 48.1875 50.953125 41.515625 
Q 57.328125 34.859375 57.328125 23.390625 
Q 57.328125 12.15625 50.6875 5.359375 
Q 44.046875 -1.421875 33.015625 -1.421875 
Q 20.359375 -1.421875 13.671875 8.265625 
Q 6.984375 17.96875 6.984375 36.375 
Q 6.984375 53.65625 15.1875 63.9375 
Q 23.390625 74.21875 37.203125 74.21875 
Q 40.921875 74.21875 44.703125 73.484375 
Q 48.484375 72.75 52.59375 71.296875 
z
" id="DejaVuSans-36"/>
      </defs>
      <g transform="translate(287.227214 317.076875)scale(0.2 -0.2)">
       <use xlink:href="#DejaVuSans-36"/>
      </g>
     </g>
    </g>
    <g id="xtick_5">
     <g id="line2d_9">
      <path clip-path="url(#p8ec5b98494)" d="M 56.12 294.88 
L 56.12 6.845228 
" style="fill:none;stroke:#b0b0b0;stroke-linecap:square;stroke-width:0.8;"/>
     </g>
     <g id="line2d_10">
      <defs>
       <path d="M 0 0 
L 0 2 
" id="mc2dae82f37" style="stroke:#000000;stroke-width:0.6;"/>
      </defs>
      <g>
       <use style="stroke:#000000;stroke-width:0.6;" x="56.12" xlink:href="#mc2dae82f37" y="294.88"/>
      </g>
     </g>
    </g>
    <g id="xtick_6">
     <g id="line2d_11">
      <path clip-path="url(#p8ec5b98494)" d="M 95.698286 294.88 
L 95.698286 6.845228 
" style="fill:none;stroke:#b0b0b0;stroke-linecap:square;stroke-width:0.8;"/>
     </g>
     <g id="line2d_12">
      <g>
       <use style="stroke:#000000;stroke-width:0.6;" x="95.698286" xlink:href="#mc2dae82f37" y="294.88"/>
      </g>
     </g>
    </g>
    <g id="xtick_7">
     <g id="line2d_13">
      <path clip-path="url(#p8ec5b98494)" d="M 135.276571 294.88 
L 135.276571 6.845228 
" style="fill:none;stroke:#b0b0b0;stroke-linecap:square;stroke-width:0.8;"/>
     </g>
     <g id="line2d_14">
      <g>
       <use style="stroke:#000000;stroke-width:0.6;" x="135.276571" xlink:href="#mc2dae82f37" y="294.88"/>
      </g>
     </g>
    </g>
    <g id="xtick_8">
     <g id="line2d_15">
      <path clip-path="url(#p8ec5b98494)" d="M 174.854857 294.88 
L 174.854857 6.845228 
" style="fill:none;stroke:#b0b0b0;stroke-linecap:square;stroke-width:0.8;"/>
     </g>
     <g id="line2d_16">
      <g>
       <use style="stroke:#000000;stroke-width:0.6;" x="174.854857" xlink:href="#mc2dae82f37" y="294.88"/>
      </g>
     </g>
    </g>
    <g id="xtick_9">
     <g id="line2d_17">
      <path clip-path="url(#p8ec5b98494)" d="M 214.433143 294.88 
L 214.433143 6.845228 
" style="fill:none;stroke:#b0b0b0;stroke-linecap:square;stroke-width:0.8;"/>
     </g>
     <g id="line2d_18">
      <g>
       <use style="stroke:#000000;stroke-width:0.6;" x="214.433143" xlink:href="#mc2dae82f37" y="294.88"/>
      </g>
     </g>
    </g>
    <g id="xtick_10">
     <g id="line2d_19">
      <path clip-path="url(#p8ec5b98494)" d="M 254.011429 294.88 
L 254.011429 6.845228 
" style="fill:none;stroke:#b0b0b0;stroke-linecap:square;stroke-width:0.8;"/>
     </g>
     <g id="line2d_20">
      <g>
       <use style="stroke:#000000;stroke-width:0.6;" x="254.011429" xlink:href="#mc2dae82f37" y="294.88"/>
      </g>
     </g>
    </g>
    <g id="xtick_11">
     <g id="line2d_21">
      <path clip-path="url(#p8ec5b98494)" d="M 293.589714 294.88 
L 293.589714 6.845228 
" style="fill:none;stroke:#b0b0b0;stroke-linecap:square;stroke-width:0.8;"/>
     </g>
     <g id="line2d_22">
      <g>
       <use style="stroke:#000000;stroke-width:0.6;" x="293.589714" xlink:href="#mc2dae82f37" y="294.88"/>
      </g>
     </g>
    </g>
    <g id="xtick_12">
     <g id="line2d_23">
      <path clip-path="url(#p8ec5b98494)" d="M 333.168 294.88 
L 333.168 6.845228 
" style="fill:none;stroke:#b0b0b0;stroke-linecap:square;stroke-width:0.8;"/>
     </g>
     <g id="line2d_24">
      <g>
       <use style="stroke:#000000;stroke-width:0.6;" x="333.168" xlink:href="#mc2dae82f37" y="294.88"/>
      </g>
     </g>
    </g>
    <g id="text_5">
     <!-- log10(# f-evals / dimension) -->
     <defs>
      <path d="M 9.421875 75.984375 
L 18.40625 75.984375 
L 18.40625 0 
L 9.421875 0 
z
" id="DejaVuSans-6c"/>
      <path d="M 30.609375 48.390625 
Q 23.390625 48.390625 19.1875 42.75 
Q 14.984375 37.109375 14.984375 27.296875 
Q 14.984375 17.484375 19.15625 11.84375 
Q 23.34375 6.203125 30.609375 6.203125 
Q 37.796875 6.203125 41.984375 11.859375 
Q 46.1875 17.53125 46.1875 27.296875 
Q 46.1875 37.015625 41.984375 42.703125 
Q 37.796875 48.390625 30.609375 48.390625 
z
M 30.609375 56 
Q 42.328125 56 49.015625 48.375 
Q 55.71875 40.765625 55.71875 27.296875 
Q 55.71875 13.875 49.015625 6.21875 
Q 42.328125 -1.421875 30.609375 -1.421875 
Q 18.84375 -1.421875 12.171875 6.21875 
Q 5.515625 13.875 5.515625 27.296875 
Q 5.515625 40.765625 12.171875 48.375 
Q 18.84375 56 30.609375 56 
z
" id="DejaVuSans-6f"/>
      <path d="M 45.40625 27.984375 
Q 45.40625 37.75 41.375 43.109375 
Q 37.359375 48.484375 30.078125 48.484375 
Q 22.859375 48.484375 18.828125 43.109375 
Q 14.796875 37.75 14.796875 27.984375 
Q 14.796875 18.265625 18.828125 12.890625 
Q 22.859375 7.515625 30.078125 7.515625 
Q 37.359375 7.515625 41.375 12.890625 
Q 45.40625 18.265625 45.40625 27.984375 
z
M 54.390625 6.78125 
Q 54.390625 -7.171875 48.1875 -13.984375 
Q 42 -20.796875 29.203125 -20.796875 
Q 24.46875 -20.796875 20.265625 -20.09375 
Q 16.0625 -19.390625 12.109375 -17.921875 
L 12.109375 -9.1875 
Q 16.0625 -11.328125 19.921875 -12.34375 
Q 23.78125 -13.375 27.78125 -13.375 
Q 36.625 -13.375 41.015625 -8.765625 
Q 45.40625 -4.15625 45.40625 5.171875 
L 45.40625 9.625 
Q 42.625 4.78125 38.28125 2.390625 
Q 33.9375 0 27.875 0 
Q 17.828125 0 11.671875 7.65625 
Q 5.515625 15.328125 5.515625 27.984375 
Q 5.515625 40.671875 11.671875 48.328125 
Q 17.828125 56 27.875 56 
Q 33.9375 56 38.28125 53.609375 
Q 42.625 51.21875 45.40625 46.390625 
L 45.40625 54.6875 
L 54.390625 54.6875 
z
" id="DejaVuSans-67"/>
      <path d="M 12.40625 8.296875 
L 28.515625 8.296875 
L 28.515625 63.921875 
L 10.984375 60.40625 
L 10.984375 69.390625 
L 28.421875 72.90625 
L 38.28125 72.90625 
L 38.28125 8.296875 
L 54.390625 8.296875 
L 54.390625 0 
L 12.40625 0 
z
" id="DejaVuSans-31"/>
      <path d="M 31 75.875 
Q 24.46875 64.65625 21.28125 53.65625 
Q 18.109375 42.671875 18.109375 31.390625 
Q 18.109375 20.125 21.3125 9.0625 
Q 24.515625 -2 31 -13.1875 
L 23.1875 -13.1875 
Q 15.875 -1.703125 12.234375 9.375 
Q 8.59375 20.453125 8.59375 31.390625 
Q 8.59375 42.28125 12.203125 53.3125 
Q 15.828125 64.359375 23.1875 75.875 
z
" id="DejaVuSans-28"/>
      <path d="M 51.125 44 
L 36.921875 44 
L 32.8125 27.6875 
L 47.125 27.6875 
z
M 43.796875 71.78125 
L 38.71875 51.515625 
L 52.984375 51.515625 
L 58.109375 71.78125 
L 65.921875 71.78125 
L 60.890625 51.515625 
L 76.125 51.515625 
L 76.125 44 
L 58.984375 44 
L 54.984375 27.6875 
L 70.515625 27.6875 
L 70.515625 20.21875 
L 53.078125 20.21875 
L 48 0 
L 40.1875 0 
L 45.21875 20.21875 
L 30.90625 20.21875 
L 25.875 0 
L 18.015625 0 
L 23.09375 20.21875 
L 7.71875 20.21875 
L 7.71875 27.6875 
L 24.90625 27.6875 
L 29 44 
L 13.28125 44 
L 13.28125 51.515625 
L 30.90625 51.515625 
L 35.890625 71.78125 
z
" id="DejaVuSans-23"/>
      <path id="DejaVuSans-20"/>
      <path d="M 37.109375 75.984375 
L 37.109375 68.5 
L 28.515625 68.5 
Q 23.6875 68.5 21.796875 66.546875 
Q 19.921875 64.59375 19.921875 59.515625 
L 19.921875 54.6875 
L 34.71875 54.6875 
L 34.71875 47.703125 
L 19.921875 47.703125 
L 19.921875 0 
L 10.890625 0 
L 10.890625 47.703125 
L 2.296875 47.703125 
L 2.296875 54.6875 
L 10.890625 54.6875 
L 10.890625 58.5 
Q 10.890625 67.625 15.140625 71.796875 
Q 19.390625 75.984375 28.609375 75.984375 
z
" id="DejaVuSans-66"/>
      <path d="M 4.890625 31.390625 
L 31.203125 31.390625 
L 31.203125 23.390625 
L 4.890625 23.390625 
z
" id="DejaVuSans-2d"/>
      <path d="M 56.203125 29.59375 
L 56.203125 25.203125 
L 14.890625 25.203125 
Q 15.484375 15.921875 20.484375 11.0625 
Q 25.484375 6.203125 34.421875 6.203125 
Q 39.59375 6.203125 44.453125 7.46875 
Q 49.3125 8.734375 54.109375 11.28125 
L 54.109375 2.78125 
Q 49.265625 0.734375 44.1875 -0.34375 
Q 39.109375 -1.421875 33.890625 -1.421875 
Q 20.796875 -1.421875 13.15625 6.1875 
Q 5.515625 13.8125 5.515625 26.8125 
Q 5.515625 40.234375 12.765625 48.109375 
Q 20.015625 56 32.328125 56 
Q 43.359375 56 49.78125 48.890625 
Q 56.203125 41.796875 56.203125 29.59375 
z
M 47.21875 32.234375 
Q 47.125 39.59375 43.09375 43.984375 
Q 39.0625 48.390625 32.421875 48.390625 
Q 24.90625 48.390625 20.390625 44.140625 
Q 15.875 39.890625 15.1875 32.171875 
z
" id="DejaVuSans-65"/>
      <path d="M 2.984375 54.6875 
L 12.5 54.6875 
L 29.59375 8.796875 
L 46.6875 54.6875 
L 56.203125 54.6875 
L 35.6875 0 
L 23.484375 0 
z
" id="DejaVuSans-76"/>
      <path d="M 34.28125 27.484375 
Q 23.390625 27.484375 19.1875 25 
Q 14.984375 22.515625 14.984375 16.5 
Q 14.984375 11.71875 18.140625 8.90625 
Q 21.296875 6.109375 26.703125 6.109375 
Q 34.1875 6.109375 38.703125 11.40625 
Q 43.21875 16.703125 43.21875 25.484375 
L 43.21875 27.484375 
z
M 52.203125 31.203125 
L 52.203125 0 
L 43.21875 0 
L 43.21875 8.296875 
Q 40.140625 3.328125 35.546875 0.953125 
Q 30.953125 -1.421875 24.3125 -1.421875 
Q 15.921875 -1.421875 10.953125 3.296875 
Q 6 8.015625 6 15.921875 
Q 6 25.140625 12.171875 29.828125 
Q 18.359375 34.515625 30.609375 34.515625 
L 43.21875 34.515625 
L 43.21875 35.40625 
Q 43.21875 41.609375 39.140625 45 
Q 35.0625 48.390625 27.6875 48.390625 
Q 23 48.390625 18.546875 47.265625 
Q 14.109375 46.140625 10.015625 43.890625 
L 10.015625 52.203125 
Q 14.9375 54.109375 19.578125 55.046875 
Q 24.21875 56 28.609375 56 
Q 40.484375 56 46.34375 49.84375 
Q 52.203125 43.703125 52.203125 31.203125 
z
" id="DejaVuSans-61"/>
      <path d="M 44.28125 53.078125 
L 44.28125 44.578125 
Q 40.484375 46.53125 36.375 47.5 
Q 32.28125 48.484375 27.875 48.484375 
Q 21.1875 48.484375 17.84375 46.4375 
Q 14.5 44.390625 14.5 40.28125 
Q 14.5 37.15625 16.890625 35.375 
Q 19.28125 33.59375 26.515625 31.984375 
L 29.59375 31.296875 
Q 39.15625 29.25 43.1875 25.515625 
Q 47.21875 21.78125 47.21875 15.09375 
Q 47.21875 7.46875 41.1875 3.015625 
Q 35.15625 -1.421875 24.609375 -1.421875 
Q 20.21875 -1.421875 15.453125 -0.5625 
Q 10.6875 0.296875 5.421875 2 
L 5.421875 11.28125 
Q 10.40625 8.6875 15.234375 7.390625 
Q 20.0625 6.109375 24.8125 6.109375 
Q 31.15625 6.109375 34.5625 8.28125 
Q 37.984375 10.453125 37.984375 14.40625 
Q 37.984375 18.0625 35.515625 20.015625 
Q 33.0625 21.96875 24.703125 23.78125 
L 21.578125 24.515625 
Q 13.234375 26.265625 9.515625 29.90625 
Q 5.8125 33.546875 5.8125 39.890625 
Q 5.8125 47.609375 11.28125 51.796875 
Q 16.75 56 26.8125 56 
Q 31.78125 56 36.171875 55.265625 
Q 40.578125 54.546875 44.28125 53.078125 
z
" id="DejaVuSans-73"/>
      <path d="M 25.390625 72.90625 
L 33.6875 72.90625 
L 8.296875 -9.28125 
L 0 -9.28125 
z
" id="DejaVuSans-2f"/>
      <path d="M 45.40625 46.390625 
L 45.40625 75.984375 
L 54.390625 75.984375 
L 54.390625 0 
L 45.40625 0 
L 45.40625 8.203125 
Q 42.578125 3.328125 38.25 0.953125 
Q 33.9375 -1.421875 27.875 -1.421875 
Q 17.96875 -1.421875 11.734375 6.484375 
Q 5.515625 14.40625 5.515625 27.296875 
Q 5.515625 40.1875 11.734375 48.09375 
Q 17.96875 56 27.875 56 
Q 33.9375 56 38.25 53.625 
Q 42.578125 51.265625 45.40625 46.390625 
z
M 14.796875 27.296875 
Q 14.796875 17.390625 18.875 11.75 
Q 22.953125 6.109375 30.078125 6.109375 
Q 37.203125 6.109375 41.296875 11.75 
Q 45.40625 17.390625 45.40625 27.296875 
Q 45.40625 37.203125 41.296875 42.84375 
Q 37.203125 48.484375 30.078125 48.484375 
Q 22.953125 48.484375 18.875 42.84375 
Q 14.796875 37.203125 14.796875 27.296875 
z
" id="DejaVuSans-64"/>
      <path d="M 9.421875 54.6875 
L 18.40625 54.6875 
L 18.40625 0 
L 9.421875 0 
z
M 9.421875 75.984375 
L 18.40625 75.984375 
L 18.40625 64.59375 
L 9.421875 64.59375 
z
" id="DejaVuSans-69"/>
      <path d="M 52 44.1875 
Q 55.375 50.25 60.0625 53.125 
Q 64.75 56 71.09375 56 
Q 79.640625 56 84.28125 50.015625 
Q 88.921875 44.046875 88.921875 33.015625 
L 88.921875 0 
L 79.890625 0 
L 79.890625 32.71875 
Q 79.890625 40.578125 77.09375 44.375 
Q 74.3125 48.1875 68.609375 48.1875 
Q 61.625 48.1875 57.5625 43.546875 
Q 53.515625 38.921875 53.515625 30.90625 
L 53.515625 0 
L 44.484375 0 
L 44.484375 32.71875 
Q 44.484375 40.625 41.703125 44.40625 
Q 38.921875 48.1875 33.109375 48.1875 
Q 26.21875 48.1875 22.15625 43.53125 
Q 18.109375 38.875 18.109375 30.90625 
L 18.109375 0 
L 9.078125 0 
L 9.078125 54.6875 
L 18.109375 54.6875 
L 18.109375 46.1875 
Q 21.1875 51.21875 25.484375 53.609375 
Q 29.78125 56 35.6875 56 
Q 41.65625 56 45.828125 52.96875 
Q 50 49.953125 52 44.1875 
z
" id="DejaVuSans-6d"/>
      <path d="M 54.890625 33.015625 
L 54.890625 0 
L 45.90625 0 
L 45.90625 32.71875 
Q 45.90625 40.484375 42.875 44.328125 
Q 39.84375 48.1875 33.796875 48.1875 
Q 26.515625 48.1875 22.3125 43.546875 
Q 18.109375 38.921875 18.109375 30.90625 
L 18.109375 0 
L 9.078125 0 
L 9.078125 54.6875 
L 18.109375 54.6875 
L 18.109375 46.1875 
Q 21.34375 51.125 25.703125 53.5625 
Q 30.078125 56 35.796875 56 
Q 45.21875 56 50.046875 50.171875 
Q 54.890625 44.34375 54.890625 33.015625 
z
" id="DejaVuSans-6e"/>
      <path d="M 8.015625 75.875 
L 15.828125 75.875 
Q 23.140625 64.359375 26.78125 53.3125 
Q 30.421875 42.28125 30.421875 31.390625 
Q 30.421875 20.453125 26.78125 9.375 
Q 23.140625 -1.703125 15.828125 -13.1875 
L 8.015625 -13.1875 
Q 14.5 -2 17.703125 9.0625 
Q 20.90625 20.125 20.90625 31.390625 
Q 20.90625 42.671875 17.703125 53.65625 
Q 14.5 64.65625 8.015625 75.875 
z
" id="DejaVuSans-29"/>
     </defs>
     <g transform="translate(73.803219 338.153594)scale(0.17 -0.17)">
      <use xlink:href="#DejaVuSans-6c"/>
      <use x="27.783203" xlink:href="#DejaVuSans-6f"/>
      <use x="88.964844" xlink:href="#DejaVuSans-67"/>
      <use x="152.441406" xlink:href="#DejaVuSans-31"/>
      <use x="216.064453" xlink:href="#DejaVuSans-30"/>
      <use x="279.6875" xlink:href="#DejaVuSans-28"/>
      <use x="318.701172" xlink:href="#DejaVuSans-23"/>
      <use x="402.490234" xlink:href="#DejaVuSans-20"/>
      <use x="434.277344" xlink:href="#DejaVuSans-66"/>
      <use x="469.404297" xlink:href="#DejaVuSans-2d"/>
      <use x="505.488281" xlink:href="#DejaVuSans-65"/>
      <use x="567.011719" xlink:href="#DejaVuSans-76"/>
      <use x="626.191406" xlink:href="#DejaVuSans-61"/>
      <use x="687.470703" xlink:href="#DejaVuSans-6c"/>
      <use x="715.253906" xlink:href="#DejaVuSans-73"/>
      <use x="767.353516" xlink:href="#DejaVuSans-20"/>
      <use x="799.140625" xlink:href="#DejaVuSans-2f"/>
      <use x="832.832031" xlink:href="#DejaVuSans-20"/>
      <use x="864.619141" xlink:href="#DejaVuSans-64"/>
      <use x="928.095703" xlink:href="#DejaVuSans-69"/>
      <use x="955.878906" xlink:href="#DejaVuSans-6d"/>
      <use x="1053.291016" xlink:href="#DejaVuSans-65"/>
      <use x="1114.814453" xlink:href="#DejaVuSans-6e"/>
      <use x="1178.193359" xlink:href="#DejaVuSans-73"/>
      <use x="1230.292969" xlink:href="#DejaVuSans-69"/>
      <use x="1258.076172" xlink:href="#DejaVuSans-6f"/>
      <use x="1319.257812" xlink:href="#DejaVuSans-6e"/>
      <use x="1382.636719" xlink:href="#DejaVuSans-29"/>
     </g>
    </g>
   </g>
   <g id="matplotlib.axis_2">
    <g id="ytick_1">
     <g id="line2d_25">
      <path clip-path="url(#p8ec5b98494)" d="M 56.12 294.88 
L 333.168 294.88 
" style="fill:none;stroke:#b0b0b0;stroke-linecap:square;stroke-width:0.8;"/>
     </g>
     <g id="line2d_26">
      <defs>
       <path d="M 0 0 
L -3.5 0 
" id="m47361b5a44" style="stroke:#000000;stroke-width:0.8;"/>
      </defs>
      <g>
       <use style="stroke:#000000;stroke-width:0.8;" x="56.12" xlink:href="#m47361b5a44" y="294.88"/>
      </g>
     </g>
     <g id="text_6">
      <!-- 0.0 -->
      <defs>
       <path d="M 10.6875 12.40625 
L 21 12.40625 
L 21 0 
L 10.6875 0 
z
" id="DejaVuSans-2e"/>
      </defs>
      <g transform="translate(23.675 300.95875)scale(0.16 -0.16)">
       <use xlink:href="#DejaVuSans-30"/>
       <use x="63.623047" xlink:href="#DejaVuSans-2e"/>
       <use x="95.410156" xlink:href="#DejaVuSans-30"/>
      </g>
     </g>
    </g>
    <g id="ytick_2">
     <g id="line2d_27">
      <path clip-path="url(#p8ec5b98494)" d="M 56.12 237.843411 
L 333.168 237.843411 
" style="fill:none;stroke:#b0b0b0;stroke-linecap:square;stroke-width:0.8;"/>
     </g>
     <g id="line2d_28">
      <g>
       <use style="stroke:#000000;stroke-width:0.8;" x="56.12" xlink:href="#m47361b5a44" y="237.843411"/>
      </g>
     </g>
     <g id="text_7">
      <!-- 0.2 -->
      <g transform="translate(23.675 243.922161)scale(0.16 -0.16)">
       <use xlink:href="#DejaVuSans-30"/>
       <use x="63.623047" xlink:href="#DejaVuSans-2e"/>
       <use x="95.410156" xlink:href="#DejaVuSans-32"/>
      </g>
     </g>
    </g>
    <g id="ytick_3">
     <g id="line2d_29">
      <path clip-path="url(#p8ec5b98494)" d="M 56.12 180.806823 
L 333.168 180.806823 
" style="fill:none;stroke:#b0b0b0;stroke-linecap:square;stroke-width:0.8;"/>
     </g>
     <g id="line2d_30">
      <g>
       <use style="stroke:#000000;stroke-width:0.8;" x="56.12" xlink:href="#m47361b5a44" y="180.806823"/>
      </g>
     </g>
     <g id="text_8">
      <!-- 0.4 -->
      <g transform="translate(23.675 186.885573)scale(0.16 -0.16)">
       <use xlink:href="#DejaVuSans-30"/>
       <use x="63.623047" xlink:href="#DejaVuSans-2e"/>
       <use x="95.410156" xlink:href="#DejaVuSans-34"/>
      </g>
     </g>
    </g>
    <g id="ytick_4">
     <g id="line2d_31">
      <path clip-path="url(#p8ec5b98494)" d="M 56.12 123.770234 
L 333.168 123.770234 
" style="fill:none;stroke:#b0b0b0;stroke-linecap:square;stroke-width:0.8;"/>
     </g>
     <g id="line2d_32">
      <g>
       <use style="stroke:#000000;stroke-width:0.8;" x="56.12" xlink:href="#m47361b5a44" y="123.770234"/>
      </g>
     </g>
     <g id="text_9">
      <!-- 0.6 -->
      <g transform="translate(23.675 129.848984)scale(0.16 -0.16)">
       <use xlink:href="#DejaVuSans-30"/>
       <use x="63.623047" xlink:href="#DejaVuSans-2e"/>
       <use x="95.410156" xlink:href="#DejaVuSans-36"/>
      </g>
     </g>
    </g>
    <g id="ytick_5">
     <g id="line2d_33">
      <path clip-path="url(#p8ec5b98494)" d="M 56.12 66.733646 
L 333.168 66.733646 
" style="fill:none;stroke:#b0b0b0;stroke-linecap:square;stroke-width:0.8;"/>
     </g>
     <g id="line2d_34">
      <g>
       <use style="stroke:#000000;stroke-width:0.8;" x="56.12" xlink:href="#m47361b5a44" y="66.733646"/>
      </g>
     </g>
     <g id="text_10">
      <!-- 0.8 -->
      <defs>
       <path d="M 31.78125 34.625 
Q 24.75 34.625 20.71875 30.859375 
Q 16.703125 27.09375 16.703125 20.515625 
Q 16.703125 13.921875 20.71875 10.15625 
Q 24.75 6.390625 31.78125 6.390625 
Q 38.8125 6.390625 42.859375 10.171875 
Q 46.921875 13.96875 46.921875 20.515625 
Q 46.921875 27.09375 42.890625 30.859375 
Q 38.875 34.625 31.78125 34.625 
z
M 21.921875 38.8125 
Q 15.578125 40.375 12.03125 44.71875 
Q 8.5 49.078125 8.5 55.328125 
Q 8.5 64.0625 14.71875 69.140625 
Q 20.953125 74.21875 31.78125 74.21875 
Q 42.671875 74.21875 48.875 69.140625 
Q 55.078125 64.0625 55.078125 55.328125 
Q 55.078125 49.078125 51.53125 44.71875 
Q 48 40.375 41.703125 38.8125 
Q 48.828125 37.15625 52.796875 32.3125 
Q 56.78125 27.484375 56.78125 20.515625 
Q 56.78125 9.90625 50.3125 4.234375 
Q 43.84375 -1.421875 31.78125 -1.421875 
Q 19.734375 -1.421875 13.25 4.234375 
Q 6.78125 9.90625 6.78125 20.515625 
Q 6.78125 27.484375 10.78125 32.3125 
Q 14.796875 37.15625 21.921875 38.8125 
z
M 18.3125 54.390625 
Q 18.3125 48.734375 21.84375 45.5625 
Q 25.390625 42.390625 31.78125 42.390625 
Q 38.140625 42.390625 41.71875 45.5625 
Q 45.3125 48.734375 45.3125 54.390625 
Q 45.3125 60.0625 41.71875 63.234375 
Q 38.140625 66.40625 31.78125 66.40625 
Q 25.390625 66.40625 21.84375 63.234375 
Q 18.3125 60.0625 18.3125 54.390625 
z
" id="DejaVuSans-38"/>
      </defs>
      <g transform="translate(23.675 72.812396)scale(0.16 -0.16)">
       <use xlink:href="#DejaVuSans-30"/>
       <use x="63.623047" xlink:href="#DejaVuSans-2e"/>
       <use x="95.410156" xlink:href="#DejaVuSans-38"/>
      </g>
     </g>
    </g>
    <g id="ytick_6">
     <g id="line2d_35">
      <path clip-path="url(#p8ec5b98494)" d="M 56.12 9.697057 
L 333.168 9.697057 
" style="fill:none;stroke:#b0b0b0;stroke-linecap:square;stroke-width:0.8;"/>
     </g>
     <g id="line2d_36">
      <g>
       <use style="stroke:#000000;stroke-width:0.8;" x="56.12" xlink:href="#m47361b5a44" y="9.697057"/>
      </g>
     </g>
     <g id="text_11">
      <!-- 1.0 -->
      <g transform="translate(23.675 15.775807)scale(0.16 -0.16)">
       <use xlink:href="#DejaVuSans-31"/>
       <use x="63.623047" xlink:href="#DejaVuSans-2e"/>
       <use x="95.410156" xlink:href="#DejaVuSans-30"/>
      </g>
     </g>
    </g>
    <g id="text_12">
     <!-- Fraction of function,target pairs -->
     <defs>
      <path d="M 9.8125 72.90625 
L 51.703125 72.90625 
L 51.703125 64.59375 
L 19.671875 64.59375 
L 19.671875 43.109375 
L 48.578125 43.109375 
L 48.578125 34.8125 
L 19.671875 34.8125 
L 19.671875 0 
L 9.8125 0 
z
" id="DejaVuSans-46"/>
      <path d="M 41.109375 46.296875 
Q 39.59375 47.171875 37.8125 47.578125 
Q 36.03125 48 33.890625 48 
Q 26.265625 48 22.1875 43.046875 
Q 18.109375 38.09375 18.109375 28.8125 
L 18.109375 0 
L 9.078125 0 
L 9.078125 54.6875 
L 18.109375 54.6875 
L 18.109375 46.1875 
Q 20.953125 51.171875 25.484375 53.578125 
Q 30.03125 56 36.53125 56 
Q 37.453125 56 38.578125 55.875 
Q 39.703125 55.765625 41.0625 55.515625 
z
" id="DejaVuSans-72"/>
      <path d="M 48.78125 52.59375 
L 48.78125 44.1875 
Q 44.96875 46.296875 41.140625 47.34375 
Q 37.3125 48.390625 33.40625 48.390625 
Q 24.65625 48.390625 19.8125 42.84375 
Q 14.984375 37.3125 14.984375 27.296875 
Q 14.984375 17.28125 19.8125 11.734375 
Q 24.65625 6.203125 33.40625 6.203125 
Q 37.3125 6.203125 41.140625 7.25 
Q 44.96875 8.296875 48.78125 10.40625 
L 48.78125 2.09375 
Q 45.015625 0.34375 40.984375 -0.53125 
Q 36.96875 -1.421875 32.421875 -1.421875 
Q 20.0625 -1.421875 12.78125 6.34375 
Q 5.515625 14.109375 5.515625 27.296875 
Q 5.515625 40.671875 12.859375 48.328125 
Q 20.21875 56 33.015625 56 
Q 37.15625 56 41.109375 55.140625 
Q 45.0625 54.296875 48.78125 52.59375 
z
" id="DejaVuSans-63"/>
      <path d="M 18.3125 70.21875 
L 18.3125 54.6875 
L 36.8125 54.6875 
L 36.8125 47.703125 
L 18.3125 47.703125 
L 18.3125 18.015625 
Q 18.3125 11.328125 20.140625 9.421875 
Q 21.96875 7.515625 27.59375 7.515625 
L 36.8125 7.515625 
L 36.8125 0 
L 27.59375 0 
Q 17.1875 0 13.234375 3.875 
Q 9.28125 7.765625 9.28125 18.015625 
L 9.28125 47.703125 
L 2.6875 47.703125 
L 2.6875 54.6875 
L 9.28125 54.6875 
L 9.28125 70.21875 
z
" id="DejaVuSans-74"/>
      <path d="M 8.5 21.578125 
L 8.5 54.6875 
L 17.484375 54.6875 
L 17.484375 21.921875 
Q 17.484375 14.15625 20.5 10.265625 
Q 23.53125 6.390625 29.59375 6.390625 
Q 36.859375 6.390625 41.078125 11.03125 
Q 45.3125 15.671875 45.3125 23.6875 
L 45.3125 54.6875 
L 54.296875 54.6875 
L 54.296875 0 
L 45.3125 0 
L 45.3125 8.40625 
Q 42.046875 3.421875 37.71875 1 
Q 33.40625 -1.421875 27.6875 -1.421875 
Q 18.265625 -1.421875 13.375 4.4375 
Q 8.5 10.296875 8.5 21.578125 
z
M 31.109375 56 
z
" id="DejaVuSans-75"/>
      <path d="M 11.71875 12.40625 
L 22.015625 12.40625 
L 22.015625 4 
L 14.015625 -11.625 
L 7.71875 -11.625 
L 11.71875 4 
z
" id="DejaVuSans-2c"/>
      <path d="M 18.109375 8.203125 
L 18.109375 -20.796875 
L 9.078125 -20.796875 
L 9.078125 54.6875 
L 18.109375 54.6875 
L 18.109375 46.390625 
Q 20.953125 51.265625 25.265625 53.625 
Q 29.59375 56 35.59375 56 
Q 45.5625 56 51.78125 48.09375 
Q 58.015625 40.1875 58.015625 27.296875 
Q 58.015625 14.40625 51.78125 6.484375 
Q 45.5625 -1.421875 35.59375 -1.421875 
Q 29.59375 -1.421875 25.265625 0.953125 
Q 20.953125 3.328125 18.109375 8.203125 
z
M 48.6875 27.296875 
Q 48.6875 37.203125 44.609375 42.84375 
Q 40.53125 48.484375 33.40625 48.484375 
Q 26.265625 48.484375 22.1875 42.84375 
Q 18.109375 37.203125 18.109375 27.296875 
Q 18.109375 17.390625 22.1875 11.75 
Q 26.265625 6.109375 33.40625 6.109375 
Q 40.53125 6.109375 44.609375 11.75 
Q 48.6875 17.390625 48.6875 27.296875 
z
" id="DejaVuSans-70"/>
     </defs>
     <g transform="translate(16.139531 286.001989)rotate(-90)scale(0.17 -0.17)">
      <use xlink:href="#DejaVuSans-46"/>
      <use x="57.410156" xlink:href="#DejaVuSans-72"/>
      <use x="98.523438" xlink:href="#DejaVuSans-61"/>
      <use x="159.802734" xlink:href="#DejaVuSans-63"/>
      <use x="214.783203" xlink:href="#DejaVuSans-74"/>
      <use x="253.992188" xlink:href="#DejaVuSans-69"/>
      <use x="281.775391" xlink:href="#DejaVuSans-6f"/>
      <use x="342.957031" xlink:href="#DejaVuSans-6e"/>
      <use x="406.335938" xlink:href="#DejaVuSans-20"/>
      <use x="438.123047" xlink:href="#DejaVuSans-6f"/>
      <use x="499.304688" xlink:href="#DejaVuSans-66"/>
      <use x="534.509766" xlink:href="#DejaVuSans-20"/>
      <use x="566.296875" xlink:href="#DejaVuSans-66"/>
      <use x="601.501953" xlink:href="#DejaVuSans-75"/>
      <use x="664.880859" xlink:href="#DejaVuSans-6e"/>
      <use x="728.259766" xlink:href="#DejaVuSans-63"/>
      <use x="783.240234" xlink:href="#DejaVuSans-74"/>
      <use x="822.449219" xlink:href="#DejaVuSans-69"/>
      <use x="850.232422" xlink:href="#DejaVuSans-6f"/>
      <use x="911.414062" xlink:href="#DejaVuSans-6e"/>
      <use x="974.792969" xlink:href="#DejaVuSans-2c"/>
      <use x="1006.580078" xlink:href="#DejaVuSans-74"/>
      <use x="1045.789062" xlink:href="#DejaVuSans-61"/>
      <use x="1107.068359" xlink:href="#DejaVuSans-72"/>
      <use x="1148.166016" xlink:href="#DejaVuSans-67"/>
      <use x="1211.642578" xlink:href="#DejaVuSans-65"/>
      <use x="1273.166016" xlink:href="#DejaVuSans-74"/>
      <use x="1312.375" xlink:href="#DejaVuSans-20"/>
      <use x="1344.162109" xlink:href="#DejaVuSans-70"/>
      <use x="1407.638672" xlink:href="#DejaVuSans-61"/>
      <use x="1468.917969" xlink:href="#DejaVuSans-69"/>
      <use x="1496.701172" xlink:href="#DejaVuSans-72"/>
      <use x="1537.814453" xlink:href="#DejaVuSans-73"/>
     </g>
    </g>
   </g>
   <g id="line2d_37">
    <defs>
     <path d="M 0 1.5 
C 0.397805 1.5 0.77937 1.341951 1.06066 1.06066 
C 1.341951 0.77937 1.5 0.397805 1.5 0 
C 1.5 -0.397805 1.341951 -0.77937 1.06066 -1.06066 
C 0.77937 -1.341951 0.397805 -1.5 0 -1.5 
C -0.397805 -1.5 -0.77937 -1.341951 -1.06066 -1.06066 
C -1.341951 -0.77937 -1.5 -0.397805 -1.5 0 
C -1.5 0.397805 -1.341951 0.77937 -1.06066 1.06066 
C -0.77937 1.341951 -0.397805 1.5 0 1.5 
z
" id="m38c893b5ca" style="stroke:#000080;"/>
    </defs>
    <g>
     <use style="fill:#000080;stroke:#000080;" x="267.328205" xlink:href="#m38c893b5ca" y="15.28888"/>
     <use style="fill:#000080;stroke:#000080;" x="267.328205" xlink:href="#m38c893b5ca" y="15.28888"/>
    </g>
   </g>
   <g id="line2d_38">
    <path d="M 44.205749 294.88 
L 44.205749 260.769883 
L 56.12 260.769883 
L 56.12 259.092337 
L 63.08939 259.092337 
L 63.08939 255.737243 
L 68.034251 255.737243 
L 68.034251 255.178061 
L 71.869783 255.178061 
L 71.869783 250.704603 
L 77.653281 250.704603 
L 77.653281 250.145421 
L 81.973032 250.145421 
L 81.973032 247.908692 
L 83.784035 247.908692 
L 83.784035 246.231145 
L 92.904808 246.231145 
L 92.904808 245.671963 
L 94.816624 245.671963 
L 94.816624 243.994416 
L 95.698286 243.994416 
L 95.698286 242.316869 
L 98.100602 242.316869 
L 98.100602 241.757687 
L 100.856673 241.757687 
L 100.856673 240.639323 
L 101.481783 240.639323 
L 101.481783 239.520958 
L 104.305927 239.520958 
L 104.305927 237.284229 
L 105.317315 237.284229 
L 105.317315 236.165865 
L 105.801534 236.165865 
L 105.801534 235.606682 
L 107.177358 235.606682 
L 107.177358 235.0475 
L 107.612537 235.0475 
L 107.612537 233.929136 
L 110.384516 233.929136 
L 110.384516 232.251589 
L 111.788449 232.251589 
L 111.788449 228.896496 
L 114.866043 228.896496 
L 114.866043 227.778131 
L 115.420563 227.778131 
L 115.420563 226.659767 
L 117.475381 226.659767 
L 117.475381 223.863855 
L 121.16504 223.863855 
L 121.16504 222.745491 
L 122.298767 222.745491 
L 122.298767 221.067944 
L 124.363883 221.067944 
L 124.363883 220.508762 
L 126.352339 220.508762 
L 126.352339 218.272033 
L 126.638823 218.272033 
L 126.638823 213.798575 
L 135.532486 213.798575 
L 135.532486 212.680211 
L 137.603992 212.680211 
L 137.603992 211.002664 
L 142.642422 211.002664 
L 142.69832 207.64757 
L 142.809574 207.64757 
L 142.809574 206.529206 
L 142.975116 206.529206 
L 142.975116 203.733295 
L 144.747635 203.733295 
L 144.747635 202.61493 
L 145.989576 202.61493 
L 145.989576 201.496566 
L 146.263868 201.496566 
L 146.263868 200.378201 
L 147.489022 200.378201 
L 147.489022 197.58229 
L 148.945872 197.58229 
L 148.945872 197.023108 
L 149.215352 197.023108 
L 149.215352 195.904743 
L 150.888293 195.904743 
L 150.888293 195.345561 
L 152.820161 195.345561 
L 152.820161 194.227197 
L 152.97432 194.227197 
L 152.97432 193.668014 
L 155.134728 193.668014 
L 155.134728 192.54965 
L 155.824488 192.54965 
L 155.824488 191.431285 
L 156.260967 191.431285 
L 156.260967 190.872103 
L 156.562529 190.872103 
L 156.562529 190.312921 
L 156.736028 190.312921 
L 156.736028 186.957828 
L 157.126141 186.957828 
L 157.126141 185.839463 
L 157.788234 185.839463 
L 157.788234 184.161916 
L 158.425766 184.161916 
L 158.425766 183.602734 
L 158.559357 183.602734 
L 158.559357 178.570094 
L 158.735879 178.570094 
L 158.735879 178.010912 
L 158.888862 178.010912 
L 158.888862 177.451729 
L 159.25482 177.451729 
L 159.25482 176.333365 
L 159.403273 176.333365 
L 159.403273 175.774183 
L 161.488697 175.774183 
L 161.488697 175.215 
L 162.381577 175.215 
L 162.381577 174.096636 
L 163.381799 174.096636 
L 163.381799 172.978271 
L 163.713637 172.978271 
L 163.713637 171.300725 
L 166.031439 171.300725 
L 166.031439 170.18236 
L 166.526822 170.18236 
L 166.526822 165.708902 
L 167.673606 165.708902 
L 167.673606 162.912991 
L 167.842442 162.912991 
L 167.842442 161.235444 
L 168.263721 161.235444 
L 168.263721 159.557898 
L 169.256002 159.557898 
L 169.256002 157.321169 
L 170.340017 157.321169 
L 170.340017 154.525258 
L 170.672068 154.525258 
L 170.672068 153.966075 
L 173.616705 153.966075 
L 173.616705 152.847711 
L 174.090402 152.847711 
L 174.090402 151.729346 
L 174.322443 151.729346 
L 174.322443 151.170164 
L 176.461828 151.170164 
L 176.461828 148.374253 
L 176.594379 148.374253 
L 176.594379 147.255888 
L 176.917541 147.255888 
L 176.917541 144.459977 
L 177.331745 144.459977 
L 177.331745 143.341613 
L 177.531486 143.341613 
L 177.531486 141.104884 
L 178.152655 141.104884 
L 178.173924 139.427337 
L 178.628399 139.427337 
L 178.628399 137.190608 
L 179.024027 137.190608 
L 179.024027 134.953879 
L 179.265087 134.953879 
L 179.265087 132.157968 
L 179.65949 132.157968 
L 179.65949 131.039603 
L 180.33489 131.039603 
L 180.384803 128.802874 
L 181.04481 128.802874 
L 181.04481 127.125328 
L 183.16301 127.125328 
L 183.16301 126.566145 
L 183.843683 126.566145 
L 183.843683 125.447781 
L 184.136649 125.447781 
L 184.136649 124.888599 
L 186.062957 124.888599 
L 186.062957 122.092688 
L 186.39113 122.092688 
L 186.39113 120.974323 
L 186.944395 120.974323 
L 187.003842 119.296776 
L 187.831373 119.296776 
L 187.831373 118.178412 
L 188.953321 118.178412 
L 188.953321 116.500865 
L 189.960166 116.500865 
L 190.056262 113.704954 
L 190.948391 113.704954 
L 190.948391 112.027407 
L 192.45719 112.027407 
L 192.45719 111.468225 
L 193.353197 111.468225 
L 193.353197 109.231496 
L 193.971819 109.231496 
L 194.033882 107.553949 
L 195.12754 107.553949 
L 195.12754 104.198856 
L 195.811342 104.198856 
L 195.811342 103.639674 
L 195.950441 103.639674 
L 195.950441 103.080491 
L 196.103408 103.080491 
L 196.103408 101.402945 
L 196.227783 101.402945 
L 196.227783 100.28458 
L 196.442074 100.28458 
L 196.442074 98.047851 
L 196.624688 98.047851 
L 196.624688 97.488669 
L 197.408223 97.488669 
L 197.408223 96.929487 
L 198.243773 96.929487 
L 198.243773 93.574393 
L 198.801127 93.574393 
L 198.801127 93.015211 
L 199.499472 93.015211 
L 199.54449 90.2193 
L 199.729458 90.2193 
L 199.729458 89.660118 
L 200.39762 89.660118 
L 200.39762 89.100935 
L 200.511972 89.100935 
L 200.577526 86.864206 
L 201.055757 86.864206 
L 201.055757 85.745842 
L 201.308426 85.745842 
L 201.308426 85.18666 
L 201.42056 85.18666 
L 201.42056 83.509113 
L 201.783165 83.509113 
L 201.783165 82.949931 
L 201.984704 82.949931 
L 201.984704 82.390748 
L 202.110137 82.390748 
L 202.110137 75.121379 
L 202.278294 75.121379 
L 202.278294 74.562197 
L 202.671194 74.562197 
L 202.671194 72.88465 
L 209.423991 72.88465 
L 209.423991 72.325468 
L 211.625504 72.325468 
L 211.625504 71.766286 
L 212.125148 71.766286 
L 212.166381 70.647921 
L 212.525421 70.647921 
L 212.525421 69.529557 
L 212.770466 69.529557 
L 212.770466 68.411192 
L 213.064264 68.411192 
L 213.064264 67.292828 
L 213.550577 67.292828 
L 213.581309 66.174463 
L 213.928187 66.174463 
L 213.982091 65.056099 
L 214.317591 65.056099 
L 214.317591 63.378552 
L 218.242528 63.378552 
L 218.242528 62.81937 
L 219.403982 62.81937 
L 219.403982 62.260188 
L 219.613797 62.260188 
L 219.678526 60.023459 
L 220.21664 60.023459 
L 220.21664 58.345912 
L 220.373687 58.345912 
L 220.373687 57.78673 
L 220.878981 57.78673 
L 220.878981 57.227548 
L 221.146822 57.227548 
L 221.146822 56.668365 
L 221.383615 56.668365 
L 221.383615 54.431636 
L 221.568459 54.431636 
L 221.568459 53.313272 
L 224.123724 53.313272 
L 224.123724 52.75409 
L 225.511357 52.75409 
L 225.511357 51.076543 
L 226.000576 51.076543 
L 226.000576 50.517361 
L 226.297475 50.517361 
L 226.37659 47.72145 
L 229.553436 47.72145 
L 229.553436 44.366356 
L 230.240926 44.366356 
L 230.240926 43.247992 
L 232.823625 43.247992 
L 232.823625 40.45208 
L 233.341404 40.45208 
L 233.39396 38.774534 
L 236.057283 38.774534 
L 236.057283 37.656169 
L 238.274961 37.656169 
L 238.36276 34.860258 
L 240.395262 34.860258 
L 240.395262 34.301076 
L 241.873479 34.301076 
L 241.873479 33.182711 
L 242.063971 33.182711 
L 242.063971 32.623529 
L 243.54815 32.623529 
L 243.54815 32.064347 
L 245.074047 32.064347 
L 245.074047 31.505165 
L 245.232324 31.505165 
L 245.232324 30.945982 
L 245.356057 30.945982 
L 245.356057 30.3868 
L 246.475461 30.3868 
L 246.475461 29.827618 
L 246.735556 29.827618 
L 246.735556 29.268436 
L 248.01252 29.268436 
L 248.01252 27.590889 
L 248.976032 27.590889 
L 248.976032 26.472524 
L 249.201142 26.472524 
L 249.201142 25.913342 
L 250.312858 25.913342 
L 250.312858 25.35416 
L 251.357019 25.35416 
L 251.357019 24.235795 
L 252.341366 24.235795 
L 252.341366 23.676613 
L 253.094993 23.676613 
L 253.094993 22.558249 
L 254.155551 22.558249 
L 254.155551 21.999066 
L 254.995551 21.999066 
L 254.995551 21.439884 
L 257.996809 21.439884 
L 257.996809 20.880702 
L 258.67184 20.880702 
L 258.67184 19.203155 
L 259.321361 19.203155 
L 259.321361 18.084791 
L 261.698711 18.084791 
L 261.698711 17.525609 
L 262.245005 17.525609 
L 262.245005 16.966426 
L 262.77447 16.966426 
L 262.77447 16.407244 
L 266.084114 16.407244 
L 266.084114 15.848062 
L 267.328205 15.848062 
L 267.328205 15.28888 
L 333.168 15.28888 
L 333.168 15.28888 
" style="fill:none;stroke:#000080;stroke-linecap:square;stroke-width:1.5;"/>
   </g>
   <g id="line2d_39">
    <defs>
     <path d="M 0 6 
C 1.591219 6 3.117479 5.367802 4.242641 4.242641 
C 5.367802 3.117479 6 1.591219 6 0 
C 6 -1.591219 5.367802 -3.117479 4.242641 -4.242641 
C 3.117479 -5.367802 1.591219 -6 0 -6 
C -1.591219 -6 -3.117479 -5.367802 -4.242641 -4.242641 
C -5.367802 -3.117479 -6 -1.591219 -6 0 
C -6 1.591219 -5.367802 3.117479 -4.242641 4.242641 
C -3.117479 5.367802 -1.591219 6 0 6 
z
" id="mdf22ad15f8" style="stroke:#000080;stroke-width:1.5;"/>
    </defs>
    <g>
     <use style="fill-opacity:0;stroke:#000080;stroke-width:1.5;" x="83.784035" xlink:href="#mdf22ad15f8" y="246.231145"/>
     <use style="fill-opacity:0;stroke:#000080;stroke-width:1.5;" x="152.97432" xlink:href="#mdf22ad15f8" y="194.227197"/>
     <use style="fill-opacity:0;stroke:#000080;stroke-width:1.5;" x="202.110137" xlink:href="#mdf22ad15f8" y="82.390748"/>
     <use style="fill-opacity:0;stroke:#000080;stroke-width:1.5;" x="261.698711" xlink:href="#mdf22ad15f8" y="17.525609"/>
     <use style="fill-opacity:0;stroke:#000080;stroke-width:1.5;" x="267.328205" xlink:href="#mdf22ad15f8" y="15.28888"/>
     <use style="fill-opacity:0;stroke:#000080;stroke-width:1.5;" x="333.168" xlink:href="#mdf22ad15f8" y="15.28888"/>
    </g>
   </g>
   <g id="line2d_40">
    <path style="fill:none;stroke:#000080;stroke-linecap:square;stroke-width:1.5;"/>
    <g/>
   </g>
   <g id="line2d_41">
    <path clip-path="url(#p8ec5b98494)" d="M 202.691626 72.88465 
" style="fill:none;stroke:#000080;stroke-linecap:square;stroke-width:1.5;"/>
    <defs>
     <path d="M -12 12 
L 12 -12 
M -12 -12 
L 12 12 
" id="m64323e5f2a" style="stroke:#000080;"/>
    </defs>
    <g clip-path="url(#p8ec5b98494)">
     <use style="fill:#000080;stroke:#000080;" x="202.691626" xlink:href="#m64323e5f2a" y="72.88465"/>
    </g>
   </g>
   <g id="line2d_42">
    <defs>
     <path d="M 0 1.5 
C 0.397805 1.5 0.77937 1.341951 1.06066 1.06066 
C 1.341951 0.77937 1.5 0.397805 1.5 0 
C 1.5 -0.397805 1.341951 -0.77937 1.06066 -1.06066 
C 0.77937 -1.341951 0.397805 -1.5 0 -1.5 
C -0.397805 -1.5 -0.77937 -1.341951 -1.06066 -1.06066 
C -1.341951 -0.77937 -1.5 -0.397805 -1.5 0 
C -1.5 0.397805 -1.341951 0.77937 -1.06066 1.06066 
C -0.77937 1.341951 -0.397805 1.5 0 1.5 
z
" id="m154f04d5a1" style="stroke:#ff00ff;"/>
    </defs>
    <g>
     <use style="fill:#ff00ff;stroke:#ff00ff;" x="268.804771" xlink:href="#m154f04d5a1" y="160.676262"/>
     <use style="fill:#ff00ff;stroke:#ff00ff;" x="268.804771" xlink:href="#m154f04d5a1" y="160.676262"/>
    </g>
   </g>
   <g id="line2d_43">
    <path d="M 116.478659 294.88 
L 116.478659 293.761636 
L 129.748989 293.761636 
L 129.748989 293.202453 
L 144.245007 293.202453 
L 144.245007 292.084089 
L 144.698028 292.084089 
L 144.698028 290.965724 
L 146.081494 290.965724 
L 146.081494 289.288178 
L 147.698898 289.288178 
L 147.698898 286.492266 
L 148.750766 286.492266 
L 148.750766 285.373902 
L 149.593139 285.373902 
L 149.593139 284.255537 
L 158.581522 284.255537 
L 158.581522 280.341262 
L 161.858757 280.341262 
L 161.858757 278.663715 
L 162.02272 278.663715 
L 162.02272 278.104533 
L 162.434765 278.104533 
L 162.434765 276.986168 
L 163.893453 276.986168 
L 163.893453 274.749439 
L 164.215648 274.749439 
L 164.215648 270.835164 
L 166.665777 270.835164 
L 166.665777 268.598435 
L 170.429193 268.598435 
L 170.429193 266.920888 
L 171.909042 266.920888 
L 172.000606 263.565795 
L 174.269172 263.565795 
L 174.269172 262.44743 
L 174.854857 262.44743 
L 174.854857 261.888248 
L 175.512472 261.888248 
L 175.545527 260.769883 
L 177.324302 260.769883 
L 177.324302 259.651519 
L 178.621497 259.651519 
L 178.621497 258.533154 
L 178.834171 258.533154 
L 178.834171 257.973972 
L 180.422142 257.973972 
L 180.422142 256.855608 
L 180.699633 256.855608 
L 180.699633 255.737243 
L 182.017956 255.737243 
L 182.017956 254.618879 
L 184.948553 254.618879 
L 184.972423 251.822967 
L 186.080857 251.822967 
L 186.080857 251.263785 
L 187.00808 251.263785 
L 187.00808 250.145421 
L 188.877466 250.145421 
L 188.877466 249.586238 
L 189.175161 249.586238 
L 189.175161 247.908692 
L 190.369271 247.908692 
L 190.369271 246.790327 
L 191.351359 246.790327 
L 191.351359 245.112781 
L 191.677405 245.112781 
L 191.677405 244.553598 
L 192.323956 244.553598 
L 192.323956 243.994416 
L 192.552605 243.994416 
L 192.552605 240.639323 
L 193.01891 240.639323 
L 193.01891 239.520958 
L 193.361984 239.520958 
L 193.361984 238.402594 
L 194.393356 238.402594 
L 194.393356 237.843411 
L 194.758969 237.843411 
L 194.758969 235.606682 
L 194.992248 235.606682 
L 194.992248 233.369954 
L 195.379354 233.369954 
L 195.379354 231.692407 
L 195.594134 231.692407 
L 195.594134 230.01486 
L 198.975223 230.01486 
L 198.975223 228.896496 
L 199.299566 228.896496 
L 199.299566 226.659767 
L 200.004225 226.659767 
L 200.004225 224.423038 
L 200.24134 224.423038 
L 200.24134 223.304673 
L 200.424823 223.304673 
L 200.424823 222.186309 
L 200.692603 222.186309 
L 200.692603 221.627126 
L 201.446193 221.627126 
L 201.446193 221.067944 
L 201.820798 221.067944 
L 201.876202 217.712851 
L 202.481035 217.712851 
L 202.481035 215.476122 
L 202.691626 215.476122 
L 202.691626 213.798575 
L 207.935075 213.798575 
L 207.935075 213.239393 
L 210.334556 213.239393 
L 210.334556 212.680211 
L 211.093165 212.680211 
L 211.183734 211.002664 
L 211.636631 211.002664 
L 211.636631 209.884299 
L 212.847922 209.884299 
L 212.847922 209.325117 
L 212.993387 209.325117 
L 212.993387 207.088388 
L 213.509816 207.088388 
L 213.509816 205.410841 
L 213.63541 205.410841 
L 213.63541 204.851659 
L 214.203 204.851659 
L 214.203 203.733295 
L 214.500904 203.733295 
L 214.605877 202.61493 
L 218.848692 202.61493 
L 218.848692 202.055748 
L 219.314935 202.055748 
L 219.314935 201.496566 
L 220.423496 201.496566 
L 220.517252 197.58229 
L 220.79668 197.58229 
L 220.85238 194.786379 
L 224.85335 194.786379 
L 224.85335 193.668014 
L 225.732785 193.668014 
L 225.732785 193.108832 
L 226.041743 193.108832 
L 226.041743 192.54965 
L 226.31987 192.54965 
L 226.31987 191.990468 
L 226.467722 191.990468 
L 226.520128 190.872103 
L 229.035419 190.872103 
L 229.035419 190.312921 
L 229.728697 190.312921 
L 229.728697 188.076192 
L 229.892753 188.076192 
L 229.892753 186.957828 
L 230.195641 186.957828 
L 230.195641 186.398645 
L 232.39648 186.398645 
L 232.39648 185.839463 
L 232.923278 185.839463 
L 232.96865 183.602734 
L 233.356273 183.602734 
L 233.356273 183.043552 
L 235.206588 183.043552 
L 235.206588 182.48437 
L 235.693673 182.48437 
L 235.693673 181.366005 
L 238.045216 181.366005 
L 238.045216 180.247641 
L 238.334542 180.247641 
L 238.334542 179.688458 
L 240.113423 179.688458 
L 240.113423 177.451729 
L 241.959289 177.451729 
L 242.040016 174.096636 
L 243.626012 174.096636 
L 243.626012 172.978271 
L 245.145309 172.978271 
L 245.145309 171.859907 
L 247.83211 171.859907 
L 247.83211 170.741543 
L 250.15515 170.741543 
L 250.15515 169.623178 
L 250.298784 169.623178 
L 250.298784 169.063996 
L 251.208646 169.063996 
L 251.208646 168.504814 
L 254.029553 168.504814 
L 254.029553 167.386449 
L 254.875583 167.386449 
L 254.875583 166.827267 
L 257.189276 166.827267 
L 257.189276 165.708902 
L 257.896119 165.708902 
L 257.896119 165.14972 
L 258.575038 165.14972 
L 258.575038 164.590538 
L 262.166414 164.590538 
L 262.166414 164.031356 
L 262.698268 164.031356 
L 262.698268 163.472173 
L 263.214158 163.472173 
L 263.214158 162.912991 
L 264.201688 162.912991 
L 264.201688 162.353809 
L 265.584122 162.353809 
L 265.584122 161.794627 
L 267.269769 161.794627 
L 267.269769 161.235444 
L 268.804771 161.235444 
L 268.804771 160.676262 
L 333.168 160.676262 
L 333.168 160.676262 
" style="fill:none;stroke:#ff00ff;stroke-linecap:square;stroke-width:1.5;"/>
   </g>
   <g id="line2d_44">
    <defs>
     <path d="M -0 8.485281 
L 5.091169 0 
L 0 -8.485281 
L -5.091169 -0 
z
" id="m707bb33432" style="stroke:#ff00ff;stroke-linejoin:miter;stroke-width:1.5;"/>
    </defs>
    <g>
     <use style="fill-opacity:0;stroke:#ff00ff;stroke-linejoin:miter;stroke-width:1.5;" x="189.175161" xlink:href="#m707bb33432" y="249.586238"/>
     <use style="fill-opacity:0;stroke:#ff00ff;stroke-linejoin:miter;stroke-width:1.5;" x="254.875583" xlink:href="#m707bb33432" y="166.827267"/>
     <use style="fill-opacity:0;stroke:#ff00ff;stroke-linejoin:miter;stroke-width:1.5;" x="268.804771" xlink:href="#m707bb33432" y="160.676262"/>
     <use style="fill-opacity:0;stroke:#ff00ff;stroke-linejoin:miter;stroke-width:1.5;" x="268.804771" xlink:href="#m707bb33432" y="160.676262"/>
     <use style="fill-opacity:0;stroke:#ff00ff;stroke-linejoin:miter;stroke-width:1.5;" x="333.168" xlink:href="#m707bb33432" y="160.676262"/>
    </g>
   </g>
   <g id="line2d_45">
    <path style="fill:none;stroke:#ff00ff;stroke-linecap:square;stroke-width:1.5;"/>
    <g/>
   </g>
   <g id="line2d_46">
    <path clip-path="url(#p8ec5b98494)" d="M 202.691626 213.798575 
" style="fill:none;stroke:#ff00ff;stroke-linecap:square;stroke-width:1.5;"/>
    <defs>
     <path d="M -12 12 
L 12 -12 
M -12 -12 
L 12 12 
" id="mfee2b3c26e" style="stroke:#ff00ff;"/>
    </defs>
    <g clip-path="url(#p8ec5b98494)">
     <use style="fill:#ff00ff;stroke:#ff00ff;" x="202.691626" xlink:href="#mfee2b3c26e" y="213.798575"/>
    </g>
   </g>
   <g id="line2d_47">
    <defs>
     <path d="M 0 1.5 
C 0.397805 1.5 0.77937 1.341951 1.06066 1.06066 
C 1.341951 0.77937 1.5 0.397805 1.5 0 
C 1.5 -0.397805 1.341951 -0.77937 1.06066 -1.06066 
C 0.77937 -1.341951 0.397805 -1.5 0 -1.5 
C -0.397805 -1.5 -0.77937 -1.341951 -1.06066 -1.06066 
C -1.341951 -0.77937 -1.5 -0.397805 -1.5 0 
C -1.5 0.397805 -1.341951 0.77937 -1.06066 1.06066 
C -0.77937 1.341951 -0.397805 1.5 0 1.5 
z
" id="md7b0493bd0" style="stroke:#ffa500;"/>
    </defs>
    <g>
     <use style="fill:#ffa500;stroke:#ffa500;" x="265.496318" xlink:href="#md7b0493bd0" y="99.166216"/>
     <use style="fill:#ffa500;stroke:#ffa500;" x="265.496318" xlink:href="#md7b0493bd0" y="99.166216"/>
    </g>
   </g>
   <g id="line2d_48">
    <path d="M 44.205749 294.88 
L 44.205749 281.459626 
L 56.12 281.459626 
L 56.12 278.663715 
L 81.973032 278.663715 
L 81.973032 274.749439 
L 86.917893 274.749439 
L 86.917893 274.190257 
L 90.753425 274.190257 
L 90.753425 271.953528 
L 98.100602 271.953528 
L 98.100602 270.835164 
L 99.533818 270.835164 
L 99.533818 269.157617 
L 102.084955 269.157617 
L 102.084955 268.039252 
L 105.801534 268.039252 
L 105.801534 267.48007 
L 112.122219 267.48007 
L 112.122219 266.361706 
L 116.220179 266.361706 
L 116.220179 265.243341 
L 118.417459 265.243341 
L 118.417459 264.684159 
L 120.568842 264.684159 
L 120.568842 264.124977 
L 127.05979 264.124977 
L 127.05979 263.006612 
L 128.520707 263.006612 
L 128.520707 262.44743 
L 134.121345 262.44743 
L 134.121345 261.888248 
L 134.753019 261.888248 
L 134.753019 261.329066 
L 136.519665 261.329066 
L 136.519665 260.210701 
L 138.266591 260.210701 
L 138.266591 259.651519 
L 140.561812 259.651519 
L 140.561812 258.533154 
L 144.993542 258.533154 
L 144.993542 257.973972 
L 147.657127 257.973972 
L 147.657127 255.737243 
L 149.215352 255.737243 
L 149.215352 254.618879 
L 151.501022 254.618879 
L 151.501022 252.38215 
L 151.766488 252.38215 
L 151.766488 251.263785 
L 153.127109 251.263785 
L 153.127109 250.704603 
L 154.245942 250.704603 
L 154.245942 249.027056 
L 156.711349 249.027056 
L 156.711349 246.231145 
L 157.601653 246.231145 
L 157.601653 245.112781 
L 159.799871 245.112781 
L 159.841091 243.994416 
L 163.213447 243.994416 
L 163.213447 243.435234 
L 165.207874 243.435234 
L 165.207874 242.876052 
L 166.400795 242.876052 
L 166.400795 241.198505 
L 168.111721 241.198505 
L 168.111721 240.639323 
L 171.264652 240.639323 
L 171.264652 240.08014 
L 174.036406 240.08014 
L 174.036406 238.402594 
L 174.595074 238.402594 
L 174.595074 236.165865 
L 175.02589 236.165865 
L 175.02589 234.488318 
L 175.545527 234.488318 
L 175.545527 233.929136 
L 176.602144 233.929136 
L 176.602144 233.369954 
L 178.017339 233.369954 
L 178.017339 232.251589 
L 178.690389 232.251589 
L 178.690389 230.01486 
L 179.024027 230.01486 
L 179.024027 228.337313 
L 179.859773 228.337313 
L 179.859773 227.778131 
L 180.415925 227.778131 
L 180.515138 226.100584 
L 182.92283 226.100584 
L 182.92283 223.304673 
L 183.358008 223.304673 
L 183.368486 221.627126 
L 183.960457 221.627126 
L 183.960457 220.508762 
L 184.895923 220.508762 
L 184.895923 219.94958 
L 187.222862 219.94958 
L 187.222862 219.390397 
L 187.660865 219.390397 
L 187.660865 218.272033 
L 187.948125 218.272033 
L 187.948125 217.153669 
L 188.520277 217.153669 
L 188.520277 216.035304 
L 189.002447 216.035304 
L 189.002447 212.121028 
L 189.186365 212.121028 
L 189.186365 208.206753 
L 190.172988 208.206753 
L 190.172988 206.529206 
L 190.584002 206.529206 
L 190.584002 204.851659 
L 190.982054 204.851659 
L 190.982054 203.733295 
L 191.318411 203.733295 
L 191.318411 203.174112 
L 192.214742 203.174112 
L 192.214742 202.61493 
L 193.045774 202.61493 
L 193.045774 201.496566 
L 193.170589 201.496566 
L 193.170589 200.937384 
L 193.729902 200.937384 
L 193.729902 199.819019 
L 193.898182 199.819019 
L 193.898182 198.700655 
L 194.07607 198.700655 
L 194.07607 196.463926 
L 194.560757 196.463926 
L 194.560757 190.872103 
L 194.893424 190.872103 
L 194.893424 190.312921 
L 195.389767 190.312921 
L 195.389767 188.635374 
L 196.073423 188.635374 
L 196.073423 188.076192 
L 196.190565 188.076192 
L 196.190565 187.51701 
L 196.51779 187.51701 
L 196.51779 186.957828 
L 197.08824 186.957828 
L 197.08824 186.398645 
L 197.442898 186.398645 
L 197.442898 185.839463 
L 197.708719 185.839463 
L 197.708719 184.721099 
L 198.349252 184.721099 
L 198.45191 182.48437 
L 198.709123 182.48437 
L 198.709123 181.366005 
L 199.027952 181.366005 
L 199.027952 179.129276 
L 199.347177 179.129276 
L 199.347177 178.570094 
L 199.466657 178.570094 
L 199.466657 178.010912 
L 200.022122 178.010912 
L 200.049926 176.333365 
L 200.698337 176.333365 
L 200.698337 175.215 
L 201.189985 175.215 
L 201.189985 168.504814 
L 201.966964 168.504814 
L 201.966964 167.386449 
L 202.124213 167.386449 
L 202.124213 165.708902 
L 202.678007 165.708902 
L 202.684818 164.031356 
L 209.14687 164.031356 
L 209.14687 163.472173 
L 209.461906 163.472173 
L 209.461906 162.353809 
L 209.5968 162.353809 
L 209.5968 161.794627 
L 210.832344 161.794627 
L 210.832344 161.235444 
L 211.016802 161.235444 
L 211.016802 156.761987 
L 212.29436 156.761987 
L 212.29436 156.202804 
L 212.581029 156.202804 
L 212.581029 155.643622 
L 212.871468 155.643622 
L 212.871468 154.525258 
L 213.616494 154.525258 
L 213.616494 153.966075 
L 213.87145 153.966075 
L 213.87145 151.729346 
L 219.267643 151.729346 
L 219.267643 149.492617 
L 219.468222 149.492617 
L 219.468222 148.933435 
L 220.069293 148.933435 
L 220.069293 148.374253 
L 220.936181 148.374253 
L 220.936181 147.255888 
L 221.089152 147.255888 
L 221.089152 143.341613 
L 221.388203 143.341613 
L 221.388203 142.78243 
L 224.819098 142.78243 
L 224.819098 141.104884 
L 225.403197 141.104884 
L 225.403197 140.545702 
L 225.537503 140.545702 
L 225.537503 139.986519 
L 226.156837 139.986519 
L 226.156837 136.631426 
L 229.00857 136.631426 
L 229.00857 134.953879 
L 229.122664 134.953879 
L 229.122664 134.394697 
L 229.467997 134.394697 
L 229.467997 133.835515 
L 230.065644 133.835515 
L 230.065644 133.276332 
L 230.354299 133.276332 
L 230.354299 132.71715 
L 232.374403 132.71715 
L 232.374403 131.598786 
L 233.172945 131.598786 
L 233.172945 130.480421 
L 235.187842 130.480421 
L 235.187842 127.68451 
L 235.932504 127.68451 
L 235.932504 125.447781 
L 237.604898 125.447781 
L 237.604898 124.888599 
L 238.253694 124.888599 
L 238.253694 123.770234 
L 239.723593 123.770234 
L 239.723593 122.65187 
L 240.029106 122.65187 
L 240.029106 122.092688 
L 240.298393 122.092688 
L 240.298393 120.974323 
L 241.60956 120.974323 
L 241.60956 118.737594 
L 242.125515 118.737594 
L 242.125515 117.61923 
L 243.308903 117.61923 
L 243.308903 115.941683 
L 243.776944 115.941683 
L 243.776944 114.264136 
L 244.646388 114.264136 
L 244.646388 113.704954 
L 244.855253 113.704954 
L 244.855253 112.586589 
L 245.283524 112.586589 
L 245.283524 111.468225 
L 246.273898 111.468225 
L 246.273898 110.909043 
L 246.668628 110.909043 
L 246.668628 110.349861 
L 247.584332 110.349861 
L 247.584332 109.231496 
L 248.801898 109.231496 
L 248.801898 108.672314 
L 251.005322 108.672314 
L 251.005322 108.113132 
L 251.305893 108.113132 
L 251.305893 107.553949 
L 252.009434 107.553949 
L 252.009434 106.435585 
L 252.293089 106.435585 
L 252.293089 105.876403 
L 252.958112 105.876403 
L 252.958112 105.31722 
L 253.226654 105.31722 
L 253.226654 104.758038 
L 255.525396 104.758038 
L 255.525396 104.198856 
L 256.523847 104.198856 
L 256.523847 103.080491 
L 257.962082 103.080491 
L 257.962082 102.521309 
L 258.638452 102.521309 
L 258.638452 101.962127 
L 259.100923 101.962127 
L 259.100923 101.402945 
L 259.734722 101.402945 
L 259.734722 100.843762 
L 263.113335 100.843762 
L 263.113335 100.28458 
L 263.617095 100.28458 
L 263.617095 99.725398 
L 265.496318 99.725398 
L 265.496318 99.166216 
L 333.168 99.166216 
L 333.168 99.166216 
" style="fill:none;stroke:#ffa500;stroke-linecap:square;stroke-width:1.5;"/>
   </g>
   <g id="line2d_49">
    <defs>
     <path d="M 0 -6 
L -1.347084 -1.854102 
L -5.706339 -1.854102 
L -2.179628 0.708204 
L -3.526712 4.854102 
L -0 2.291796 
L 3.526712 4.854102 
L 2.179628 0.708204 
L 5.706339 -1.854102 
L 1.347084 -1.854102 
z
" id="mcefb4d06b5" style="stroke:#ffa500;stroke-linejoin:bevel;stroke-width:1.5;"/>
    </defs>
    <g>
     <use style="fill-opacity:0;stroke:#ffa500;stroke-linejoin:bevel;stroke-width:1.5;" x="151.501022" xlink:href="#mcefb4d06b5" y="252.38215"/>
     <use style="fill-opacity:0;stroke:#ffa500;stroke-linejoin:bevel;stroke-width:1.5;" x="200.049926" xlink:href="#mcefb4d06b5" y="177.451729"/>
     <use style="fill-opacity:0;stroke:#ffa500;stroke-linejoin:bevel;stroke-width:1.5;" x="243.308903" xlink:href="#mcefb4d06b5" y="117.61923"/>
     <use style="fill-opacity:0;stroke:#ffa500;stroke-linejoin:bevel;stroke-width:1.5;" x="265.496318" xlink:href="#mcefb4d06b5" y="99.166216"/>
     <use style="fill-opacity:0;stroke:#ffa500;stroke-linejoin:bevel;stroke-width:1.5;" x="265.496318" xlink:href="#mcefb4d06b5" y="99.166216"/>
     <use style="fill-opacity:0;stroke:#ffa500;stroke-linejoin:bevel;stroke-width:1.5;" x="333.168" xlink:href="#mcefb4d06b5" y="99.166216"/>
    </g>
   </g>
   <g id="line2d_50">
    <path style="fill:none;stroke:#ffa500;stroke-linecap:square;stroke-width:1.5;"/>
    <g/>
   </g>
   <g id="line2d_51">
    <path clip-path="url(#p8ec5b98494)" d="M 202.691626 164.031356 
" style="fill:none;stroke:#ffa500;stroke-linecap:square;stroke-width:1.5;"/>
    <defs>
     <path d="M -12 12 
L 12 -12 
M -12 -12 
L 12 12 
" id="m99ad32c65a" style="stroke:#ffa500;"/>
    </defs>
    <g clip-path="url(#p8ec5b98494)">
     <use style="fill:#ffa500;stroke:#ffa500;" x="202.691626" xlink:href="#m99ad32c65a" y="164.031356"/>
    </g>
   </g>
   <g id="line2d_52">
    <defs>
     <path d="M 0 1.5 
C 0.397805 1.5 0.77937 1.341951 1.06066 1.06066 
C 1.341951 0.77937 1.5 0.397805 1.5 0 
C 1.5 -0.397805 1.341951 -0.77937 1.06066 -1.06066 
C 0.77937 -1.341951 0.397805 -1.5 0 -1.5 
C -0.397805 -1.5 -0.77937 -1.341951 -1.06066 -1.06066 
C -1.341951 -0.77937 -1.5 -0.397805 -1.5 0 
C -1.5 0.397805 -1.341951 0.77937 -1.06066 1.06066 
C -0.77937 1.341951 -0.397805 1.5 0 1.5 
z
" id="m828b0763b3" style="stroke:#6495ed;"/>
    </defs>
    <g>
     <use style="fill:#6495ed;stroke:#6495ed;" x="268.398288" xlink:href="#m828b0763b3" y="143.900795"/>
     <use style="fill:#6495ed;stroke:#6495ed;" x="268.398288" xlink:href="#m828b0763b3" y="143.900795"/>
    </g>
   </g>
   <g id="line2d_53">
    <path d="M 44.205749 294.88 
L 44.205749 281.459626 
L 56.12 281.459626 
L 56.12 280.900444 
L 63.08939 280.900444 
L 63.08939 279.222897 
L 79.948502 279.222897 
L 79.948502 278.663715 
L 85.422286 278.663715 
L 85.422286 276.426986 
L 86.917893 276.426986 
L 86.917893 275.867804 
L 89.567532 275.867804 
L 89.567532 272.51271 
L 90.753425 272.51271 
L 90.753425 271.394346 
L 115.957752 271.394346 
L 115.957752 270.835164 
L 120.769881 270.835164 
L 120.769881 270.275981 
L 121.16504 270.275981 
L 121.16504 268.598435 
L 122.114929 268.598435 
L 122.114929 268.039252 
L 125.000572 268.039252 
L 125.000572 267.48007 
L 128.647561 267.48007 
L 128.647561 266.920888 
L 136.519665 266.920888 
L 136.519665 264.124977 
L 138.194217 264.124977 
L 138.194217 263.565795 
L 140.113666 263.565795 
L 140.113666 261.888248 
L 140.307161 261.888248 
L 140.307161 261.329066 
L 141.121347 261.329066 
L 141.121347 260.210701 
L 145.897164 260.210701 
L 145.897164 259.092337 
L 147.531203 259.092337 
L 147.531203 257.973972 
L 153.666169 257.973972 
L 153.666169 257.41479 
L 155.562461 257.41479 
L 155.562461 256.855608 
L 155.876417 256.855608 
L 155.876417 255.178061 
L 156.336855 255.178061 
L 156.336855 252.38215 
L 156.462595 252.38215 
L 156.462595 249.586238 
L 160.147128 249.586238 
L 160.147128 248.467874 
L 160.762847 248.467874 
L 160.762847 247.908692 
L 162.040842 247.908692 
L 162.040842 246.790327 
L 162.292562 246.790327 
L 162.292562 245.671963 
L 170.781341 245.671963 
L 170.781341 244.553598 
L 171.008579 244.553598 
L 171.008579 243.435234 
L 173.053401 243.435234 
L 173.053401 242.316869 
L 175.0429 242.316869 
L 175.0429 241.757687 
L 175.321162 241.757687 
L 175.321162 241.198505 
L 176.129899 241.198505 
L 176.129899 240.639323 
L 176.756719 240.639323 
L 176.756719 240.08014 
L 177.023925 240.08014 
L 177.023925 238.402594 
L 177.257174 238.402594 
L 177.34662 236.725047 
L 177.859315 236.725047 
L 177.859315 235.606682 
L 178.461989 235.606682 
L 178.461989 233.929136 
L 181.610936 233.929136 
L 181.610936 233.369954 
L 182.068869 233.369954 
L 182.068869 232.251589 
L 182.673793 232.251589 
L 182.673793 227.778131 
L 182.901317 227.778131 
L 182.901317 226.659767 
L 183.72611 226.659767 
L 183.72611 226.100584 
L 184.722542 226.100584 
L 184.722542 225.541402 
L 185.13859 225.541402 
L 185.218724 222.186309 
L 187.07153 222.186309 
L 187.07153 221.627126 
L 187.381168 221.627126 
L 187.381168 221.067944 
L 188.559042 221.067944 
L 188.559042 220.508762 
L 190.383206 220.508762 
L 190.383206 219.94958 
L 190.830046 219.94958 
L 190.830046 218.831215 
L 191.019008 218.831215 
L 191.072618 217.153669 
L 192.392251 217.153669 
L 192.392251 216.035304 
L 194.626175 216.035304 
L 194.626175 215.476122 
L 194.954922 215.476122 
L 194.954922 212.121028 
L 195.599276 212.121028 
L 195.599276 211.002664 
L 195.732443 211.002664 
L 195.811342 208.206753 
L 196.175655 208.206753 
L 196.175655 206.529206 
L 196.434729 206.529206 
L 196.434729 204.851659 
L 196.566462 204.851659 
L 196.566462 202.61493 
L 197.203372 202.61493 
L 197.203372 200.937384 
L 198.399566 200.937384 
L 198.399566 199.819019 
L 198.968884 199.819019 
L 198.968884 197.58229 
L 200.96004 197.58229 
L 200.982609 196.463926 
L 201.258558 196.463926 
L 201.354471 193.108832 
L 201.98825 193.108832 
L 202.051951 191.431285 
L 202.508575 191.431285 
L 202.508575 190.312921 
L 202.623424 190.312921 
L 202.623424 189.194556 
L 205.280627 189.194556 
L 205.280627 188.635374 
L 206.447677 188.635374 
L 206.447677 188.076192 
L 207.359878 188.076192 
L 207.359878 185.839463 
L 207.616055 185.839463 
L 207.616055 185.280281 
L 208.000174 185.280281 
L 208.000174 184.721099 
L 210.329101 184.721099 
L 210.329101 183.043552 
L 211.169192 183.043552 
L 211.169192 182.48437 
L 211.654825 182.48437 
L 211.76057 180.806823 
L 212.079873 180.806823 
L 212.079873 180.247641 
L 212.593468 180.247641 
L 212.593468 179.129276 
L 212.845095 179.129276 
L 212.845095 178.010912 
L 213.7726 178.010912 
L 213.7726 177.451729 
L 213.929072 177.451729 
L 213.950299 175.774183 
L 214.57181 175.774183 
L 214.57181 175.215 
L 217.098 175.215 
L 217.098 174.655818 
L 219.561583 174.655818 
L 219.665219 172.978271 
L 219.933158 172.978271 
L 219.933158 171.859907 
L 220.421676 171.859907 
L 220.421676 171.300725 
L 221.024262 171.300725 
L 221.024262 170.741543 
L 223.27616 170.741543 
L 223.27616 170.18236 
L 224.514414 170.18236 
L 224.514414 169.623178 
L 225.03241 169.623178 
L 225.03241 169.063996 
L 225.210541 169.063996 
L 225.303487 167.945631 
L 226.195465 167.945631 
L 226.195465 167.386449 
L 227.811316 167.386449 
L 227.811316 166.827267 
L 229.672836 166.827267 
L 229.672836 166.268085 
L 230.027181 166.268085 
L 230.027181 165.708902 
L 232.627639 165.708902 
L 232.627639 165.14972 
L 233.47817 165.14972 
L 233.47817 164.590538 
L 235.905172 164.590538 
L 235.954387 163.472173 
L 237.836821 163.472173 
L 237.836821 161.794627 
L 238.010803 161.794627 
L 238.010803 161.235444 
L 238.229817 161.235444 
L 238.229817 160.676262 
L 240.277196 160.676262 
L 240.277196 160.11708 
L 240.451344 160.11708 
L 240.451344 159.557898 
L 242.106457 159.557898 
L 242.140781 157.880351 
L 242.798082 157.880351 
L 242.798082 157.321169 
L 243.475646 157.321169 
L 243.475646 156.761987 
L 243.759632 156.761987 
L 243.759632 156.202804 
L 245.296228 156.202804 
L 245.296228 155.643622 
L 246.653998 155.643622 
L 246.653998 155.08444 
L 247.936814 155.08444 
L 247.936814 154.525258 
L 248.923191 154.525258 
L 248.923191 153.966075 
L 249.130505 153.966075 
L 249.153323 152.288529 
L 250.030469 152.288529 
L 250.030469 151.729346 
L 252.282544 151.729346 
L 252.282544 151.170164 
L 253.053425 151.170164 
L 253.053425 150.610982 
L 253.234659 150.610982 
L 253.234659 150.0518 
L 254.945157 150.0518 
L 254.945157 149.492617 
L 255.748309 149.492617 
L 255.748309 148.933435 
L 257.121134 148.933435 
L 257.121134 148.374253 
L 257.954499 148.374253 
L 257.954499 147.815071 
L 259.909462 147.815071 
L 259.909462 147.255888 
L 260.526414 147.255888 
L 260.526414 146.696706 
L 261.714969 146.696706 
L 261.714969 146.137524 
L 265.092666 146.137524 
L 265.092666 145.578342 
L 266.057696 145.578342 
L 266.057696 145.019159 
L 267.629552 145.019159 
L 267.629552 144.459977 
L 268.398288 144.459977 
L 268.398288 143.900795 
L 333.168 143.900795 
L 333.168 143.900795 
" style="fill:none;stroke:#6495ed;stroke-linecap:square;stroke-width:1.5;"/>
   </g>
   <g id="line2d_54">
    <defs>
     <path d="M -0 6 
L 6 -6 
L -6 -6 
z
" id="m2c2c64ce40" style="stroke:#6495ed;stroke-linejoin:miter;stroke-width:1.5;"/>
    </defs>
    <g>
     <use style="fill-opacity:0;stroke:#6495ed;stroke-linejoin:miter;stroke-width:1.5;" x="90.753425" xlink:href="#m2c2c64ce40" y="272.51271"/>
     <use style="fill-opacity:0;stroke:#6495ed;stroke-linejoin:miter;stroke-width:1.5;" x="162.292562" xlink:href="#m2c2c64ce40" y="245.671963"/>
     <use style="fill-opacity:0;stroke:#6495ed;stroke-linejoin:miter;stroke-width:1.5;" x="214.57181" xlink:href="#m2c2c64ce40" y="175.774183"/>
     <use style="fill-opacity:0;stroke:#6495ed;stroke-linejoin:miter;stroke-width:1.5;" x="268.398288" xlink:href="#m2c2c64ce40" y="144.459977"/>
     <use style="fill-opacity:0;stroke:#6495ed;stroke-linejoin:miter;stroke-width:1.5;" x="268.398288" xlink:href="#m2c2c64ce40" y="143.900795"/>
     <use style="fill-opacity:0;stroke:#6495ed;stroke-linejoin:miter;stroke-width:1.5;" x="333.168" xlink:href="#m2c2c64ce40" y="143.900795"/>
    </g>
   </g>
   <g id="line2d_55">
    <path style="fill:none;stroke:#6495ed;stroke-linecap:square;stroke-width:1.5;"/>
    <g/>
   </g>
   <g id="line2d_56">
    <path clip-path="url(#p8ec5b98494)" d="M 202.691626 189.194556 
" style="fill:none;stroke:#6495ed;stroke-linecap:square;stroke-width:1.5;"/>
    <defs>
     <path d="M -12 12 
L 12 -12 
M -12 -12 
L 12 12 
" id="m55706d41ed" style="stroke:#6495ed;"/>
    </defs>
    <g clip-path="url(#p8ec5b98494)">
     <use style="fill:#6495ed;stroke:#6495ed;" x="202.691626" xlink:href="#m55706d41ed" y="189.194556"/>
    </g>
   </g>
   <g id="line2d_57">
    <defs>
     <path d="M 0 1.5 
C 0.397805 1.5 0.77937 1.341951 1.06066 1.06066 
C 1.341951 0.77937 1.5 0.397805 1.5 0 
C 1.5 -0.397805 1.341951 -0.77937 1.06066 -1.06066 
C 0.77937 -1.341951 0.397805 -1.5 0 -1.5 
C -0.397805 -1.5 -0.77937 -1.341951 -1.06066 -1.06066 
C -1.341951 -0.77937 -1.5 -0.397805 -1.5 0 
C -1.5 0.397805 -1.341951 0.77937 -1.06066 1.06066 
C -0.77937 1.341951 -0.397805 1.5 0 1.5 
z
" id="m76cb5896f8" style="stroke:#ff0000;"/>
    </defs>
    <g>
     <use style="fill:#ff0000;stroke:#ff0000;" x="126.496178" xlink:href="#m76cb5896f8" y="9.697057"/>
     <use style="fill:#ff0000;stroke:#ff0000;" x="126.496178" xlink:href="#m76cb5896f8" y="9.697057"/>
    </g>
   </g>
   <g id="line2d_58">
    <path d="M 44.205749 294.88 
L 44.205749 283.696355 
L 56.12 283.696355 
L 56.12 280.341262 
L 63.08939 280.341262 
L 63.08939 278.104533 
L 68.034251 278.104533 
L 68.034251 276.426986 
L 71.869783 276.426986 
L 71.869783 274.190257 
L 77.653281 274.190257 
L 77.653281 273.071893 
L 81.973032 273.071893 
L 81.973032 271.953528 
L 83.784035 271.953528 
L 83.784035 266.920888 
L 85.422286 266.920888 
L 85.422286 266.361706 
L 86.917893 266.361706 
L 86.917893 265.243341 
L 97.336537 265.243341 
L 97.336537 264.684159 
L 98.832144 264.684159 
L 98.832144 264.124977 
L 100.856673 264.124977 
L 100.856673 263.565795 
L 102.084955 263.565795 
L 102.084955 262.44743 
L 102.667676 262.44743 
L 102.667676 261.329066 
L 105.317315 261.329066 
L 105.317315 259.651519 
L 106.272485 259.651519 
L 106.272485 256.855608 
L 110.014853 256.855608 
L 110.014853 256.296425 
L 115.145539 256.296425 
L 115.145539 255.737243 
L 116.984244 255.737243 
L 116.984244 253.500514 
L 119.526788 253.500514 
L 119.526788 252.38215 
L 123.7027 252.38215 
L 123.7027 235.0475 
L 123.870396 235.0475 
L 123.870396 203.733295 
L 124.036471 203.733295 
L 124.036471 150.610982 
L 124.200956 150.610982 
L 124.200956 134.953879 
L 124.363883 134.953879 
L 124.363883 120.415141 
L 124.685175 120.415141 
L 124.685175 91.337664 
L 124.843597 91.337664 
L 124.843597 88.541753 
L 125.000572 88.541753 
L 125.000572 69.529557 
L 125.156126 69.529557 
L 125.156126 46.603085 
L 125.310285 46.603085 
L 125.310285 32.064347 
L 125.764637 32.064347 
L 125.764637 20.32152 
L 126.496178 20.32152 
L 126.496178 9.697057 
L 333.168 9.697057 
" style="fill:none;stroke:#ff0000;stroke-linecap:square;stroke-width:1.5;"/>
   </g>
   <g id="line2d_59">
    <defs>
     <path d="M 0 -6 
L -5.196152 -3 
L -5.196152 3 
L -0 6 
L 5.196152 3 
L 5.196152 -3 
z
" id="m4c1499f64b" style="stroke:#ff0000;stroke-linejoin:miter;stroke-width:1.5;"/>
    </defs>
    <g>
     <use style="fill-opacity:0;stroke:#ff0000;stroke-linejoin:miter;stroke-width:1.5;" x="124.036471" xlink:href="#m4c1499f64b" y="203.733295"/>
     <use style="fill-opacity:0;stroke:#ff0000;stroke-linejoin:miter;stroke-width:1.5;" x="126.496178" xlink:href="#m4c1499f64b" y="20.32152"/>
     <use style="fill-opacity:0;stroke:#ff0000;stroke-linejoin:miter;stroke-width:1.5;" x="126.496178" xlink:href="#m4c1499f64b" y="9.697057"/>
     <use style="fill-opacity:0;stroke:#ff0000;stroke-linejoin:miter;stroke-width:1.5;" x="126.496178" xlink:href="#m4c1499f64b" y="9.697057"/>
     <use style="fill-opacity:0;stroke:#ff0000;stroke-linejoin:miter;stroke-width:1.5;" x="126.496178" xlink:href="#m4c1499f64b" y="9.697057"/>
     <use style="fill-opacity:0;stroke:#ff0000;stroke-linejoin:miter;stroke-width:1.5;" x="333.168" xlink:href="#m4c1499f64b" y="9.697057"/>
    </g>
   </g>
   <g id="line2d_60">
    <path style="fill:none;stroke:#ff0000;stroke-linecap:square;stroke-width:1.5;"/>
    <g/>
   </g>
   <g id="line2d_61">
    <path d="M 333.168 160.676262 
L 363.64328 289.176341 
" style="fill:none;stroke:#ff00ff;stroke-linecap:square;stroke-width:1.5;"/>
    <g>
     <use style="fill-opacity:0;stroke:#ff00ff;stroke-linejoin:miter;stroke-width:1.5;" x="333.168" xlink:href="#m707bb33432" y="160.676262"/>
     <use style="fill-opacity:0;stroke:#ff00ff;stroke-linejoin:miter;stroke-width:1.5;" x="363.64328" xlink:href="#m707bb33432" y="289.176341"/>
    </g>
   </g>
   <g id="line2d_62">
    <path d="M 333.168 143.900795 
L 363.64328 220.732435 
" style="fill:none;stroke:#6495ed;stroke-linecap:square;stroke-width:1.5;"/>
    <g>
     <use style="fill-opacity:0;stroke:#6495ed;stroke-linejoin:miter;stroke-width:1.5;" x="333.168" xlink:href="#m2c2c64ce40" y="143.900795"/>
     <use style="fill-opacity:0;stroke:#6495ed;stroke-linejoin:miter;stroke-width:1.5;" x="363.64328" xlink:href="#m2c2c64ce40" y="220.732435"/>
    </g>
   </g>
   <g id="line2d_63">
    <path d="M 333.168 99.166216 
L 363.64328 152.288529 
" style="fill:none;stroke:#ffa500;stroke-linecap:square;stroke-width:1.5;"/>
    <g>
     <use style="fill-opacity:0;stroke:#ffa500;stroke-linejoin:bevel;stroke-width:1.5;" x="333.168" xlink:href="#mcefb4d06b5" y="99.166216"/>
     <use style="fill-opacity:0;stroke:#ffa500;stroke-linejoin:bevel;stroke-width:1.5;" x="363.64328" xlink:href="#mcefb4d06b5" y="152.288529"/>
    </g>
   </g>
   <g id="line2d_64">
    <path d="M 333.168 15.28888 
L 363.64328 83.844622 
" style="fill:none;stroke:#000080;stroke-linecap:square;stroke-width:1.5;"/>
    <g>
     <use style="fill-opacity:0;stroke:#000080;stroke-width:1.5;" x="333.168" xlink:href="#mdf22ad15f8" y="15.28888"/>
     <use style="fill-opacity:0;stroke:#000080;stroke-width:1.5;" x="363.64328" xlink:href="#mdf22ad15f8" y="83.844622"/>
    </g>
   </g>
   <g id="line2d_65">
    <path d="M 333.168 9.697057 
L 363.64328 15.400716 
" style="fill:none;stroke:#ff0000;stroke-linecap:square;stroke-width:1.5;"/>
    <g>
     <use style="fill-opacity:0;stroke:#ff0000;stroke-linejoin:miter;stroke-width:1.5;" x="333.168" xlink:href="#m4c1499f64b" y="9.697057"/>
     <use style="fill-opacity:0;stroke:#ff0000;stroke-linejoin:miter;stroke-width:1.5;" x="363.64328" xlink:href="#m4c1499f64b" y="15.400716"/>
    </g>
   </g>
   <g id="line2d_66">
    <path d="M 333.168 294.88 
L 333.168 9.697057 
" style="fill:none;stroke:#000000;stroke-linecap:square;stroke-width:1.5;"/>
   </g>
   <g id="patch_3">
    <path d="M 56.12 294.88 
L 56.12 6.845228 
" style="fill:none;stroke:#000000;stroke-linecap:square;stroke-linejoin:miter;stroke-width:0.8;"/>
   </g>
   <g id="patch_4">
    <path d="M 333.168 294.88 
L 333.168 6.845228 
" style="fill:none;stroke:#000000;stroke-linecap:square;stroke-linejoin:miter;stroke-width:0.8;"/>
   </g>
   <g id="patch_5">
    <path d="M 56.12 294.88 
L 333.168 294.88 
" style="fill:none;stroke:#000000;stroke-linecap:square;stroke-linejoin:miter;stroke-width:0.8;"/>
   </g>
   <g id="patch_6">
    <path d="M 56.12 6.845228 
L 333.168 6.845228 
" style="fill:none;stroke:#000000;stroke-linecap:square;stroke-linejoin:miter;stroke-width:0.8;"/>
   </g>
   <g id="text_13">
    <!-- f2 -->
    <g transform="translate(369.18424 293.867279)scale(0.17 -0.17)">
     <use xlink:href="#DejaVuSans-66"/>
     <use x="35.205078" xlink:href="#DejaVuSans-32"/>
    </g>
   </g>
   <g id="text_14">
    <!-- f4 -->
    <g transform="translate(369.18424 225.423372)scale(0.17 -0.17)">
     <use xlink:href="#DejaVuSans-66"/>
     <use x="35.205078" xlink:href="#DejaVuSans-34"/>
    </g>
   </g>
   <g id="text_15">
    <!-- f3 -->
    <defs>
     <path d="M 40.578125 39.3125 
Q 47.65625 37.796875 51.625 33 
Q 55.609375 28.21875 55.609375 21.1875 
Q 55.609375 10.40625 48.1875 4.484375 
Q 40.765625 -1.421875 27.09375 -1.421875 
Q 22.515625 -1.421875 17.65625 -0.515625 
Q 12.796875 0.390625 7.625 2.203125 
L 7.625 11.71875 
Q 11.71875 9.328125 16.59375 8.109375 
Q 21.484375 6.890625 26.8125 6.890625 
Q 36.078125 6.890625 40.9375 10.546875 
Q 45.796875 14.203125 45.796875 21.1875 
Q 45.796875 27.640625 41.28125 31.265625 
Q 36.765625 34.90625 28.71875 34.90625 
L 20.21875 34.90625 
L 20.21875 43.015625 
L 29.109375 43.015625 
Q 36.375 43.015625 40.234375 45.921875 
Q 44.09375 48.828125 44.09375 54.296875 
Q 44.09375 59.90625 40.109375 62.90625 
Q 36.140625 65.921875 28.71875 65.921875 
Q 24.65625 65.921875 20.015625 65.03125 
Q 15.375 64.15625 9.8125 62.3125 
L 9.8125 71.09375 
Q 15.4375 72.65625 20.34375 73.4375 
Q 25.25 74.21875 29.59375 74.21875 
Q 40.828125 74.21875 47.359375 69.109375 
Q 53.90625 64.015625 53.90625 55.328125 
Q 53.90625 49.265625 50.4375 45.09375 
Q 46.96875 40.921875 40.578125 39.3125 
z
" id="DejaVuSans-33"/>
    </defs>
    <g transform="translate(369.18424 156.979466)scale(0.17 -0.17)">
     <use xlink:href="#DejaVuSans-66"/>
     <use x="35.205078" xlink:href="#DejaVuSans-33"/>
    </g>
   </g>
   <g id="text_16">
    <!-- f1 -->
    <g transform="translate(369.18424 88.53556)scale(0.17 -0.17)">
     <use xlink:href="#DejaVuSans-66"/>
     <use x="35.205078" xlink:href="#DejaVuSans-31"/>
    </g>
   </g>
   <g id="text_17">
    <!-- f5 -->
    <defs>
     <path d="M 10.796875 72.90625 
L 49.515625 72.90625 
L 49.515625 64.59375 
L 19.828125 64.59375 
L 19.828125 46.734375 
Q 21.96875 47.46875 24.109375 47.828125 
Q 26.265625 48.1875 28.421875 48.1875 
Q 40.625 48.1875 47.75 41.5 
Q 54.890625 34.8125 54.890625 23.390625 
Q 54.890625 11.625 47.5625 5.09375 
Q 40.234375 -1.421875 26.90625 -1.421875 
Q 22.3125 -1.421875 17.546875 -0.640625 
Q 12.796875 0.140625 7.71875 1.703125 
L 7.71875 11.625 
Q 12.109375 9.234375 16.796875 8.0625 
Q 21.484375 6.890625 26.703125 6.890625 
Q 35.15625 6.890625 40.078125 11.328125 
Q 45.015625 15.765625 45.015625 23.390625 
Q 45.015625 31 40.078125 35.4375 
Q 35.15625 39.890625 26.703125 39.890625 
Q 22.75 39.890625 18.8125 39.015625 
Q 14.890625 38.140625 10.796875 36.28125 
z
" id="DejaVuSans-35"/>
    </defs>
    <g transform="translate(369.18424 20.091654)scale(0.17 -0.17)">
     <use xlink:href="#DejaVuSans-66"/>
     <use x="35.205078" xlink:href="#DejaVuSans-35"/>
    </g>
   </g>
   <g id="text_18">
    <!-- bbob -->
    <defs>
     <path d="M 48.6875 27.296875 
Q 48.6875 37.203125 44.609375 42.84375 
Q 40.53125 48.484375 33.40625 48.484375 
Q 26.265625 48.484375 22.1875 42.84375 
Q 18.109375 37.203125 18.109375 27.296875 
Q 18.109375 17.390625 22.1875 11.75 
Q 26.265625 6.109375 33.40625 6.109375 
Q 40.53125 6.109375 44.609375 11.75 
Q 48.6875 17.390625 48.6875 27.296875 
z
M 18.109375 46.390625 
Q 20.953125 51.265625 25.265625 53.625 
Q 29.59375 56 35.59375 56 
Q 45.5625 56 51.78125 48.09375 
Q 58.015625 40.1875 58.015625 27.296875 
Q 58.015625 14.40625 51.78125 6.484375 
Q 45.5625 -1.421875 35.59375 -1.421875 
Q 29.59375 -1.421875 25.265625 0.953125 
Q 20.953125 3.328125 18.109375 8.203125 
L 18.109375 0 
L 9.078125 0 
L 9.078125 75.984375 
L 18.109375 75.984375 
z
" id="DejaVuSans-62"/>
    </defs>
    <g transform="translate(58.89048 17.475982)scale(0.102 -0.102)">
     <use xlink:href="#DejaVuSans-62"/>
     <use x="63.476562" xlink:href="#DejaVuSans-62"/>
     <use x="126.953125" xlink:href="#DejaVuSans-6f"/>
     <use x="188.134766" xlink:href="#DejaVuSans-62"/>
    </g>
    <!-- Separable functions, 2-D -->
    <defs>
     <path d="M 53.515625 70.515625 
L 53.515625 60.890625 
Q 47.90625 63.578125 42.921875 64.890625 
Q 37.9375 66.21875 33.296875 66.21875 
Q 25.25 66.21875 20.875 63.09375 
Q 16.5 59.96875 16.5 54.203125 
Q 16.5 49.359375 19.40625 46.890625 
Q 22.3125 44.4375 30.421875 42.921875 
L 36.375 41.703125 
Q 47.40625 39.59375 52.65625 34.296875 
Q 57.90625 29 57.90625 20.125 
Q 57.90625 9.515625 50.796875 4.046875 
Q 43.703125 -1.421875 29.984375 -1.421875 
Q 24.8125 -1.421875 18.96875 -0.25 
Q 13.140625 0.921875 6.890625 3.21875 
L 6.890625 13.375 
Q 12.890625 10.015625 18.65625 8.296875 
Q 24.421875 6.59375 29.984375 6.59375 
Q 38.421875 6.59375 43.015625 9.90625 
Q 47.609375 13.234375 47.609375 19.390625 
Q 47.609375 24.75 44.3125 27.78125 
Q 41.015625 30.8125 33.5 32.328125 
L 27.484375 33.5 
Q 16.453125 35.6875 11.515625 40.375 
Q 6.59375 45.0625 6.59375 53.421875 
Q 6.59375 63.09375 13.40625 68.65625 
Q 20.21875 74.21875 32.171875 74.21875 
Q 37.3125 74.21875 42.625 73.28125 
Q 47.953125 72.359375 53.515625 70.515625 
z
" id="DejaVuSans-53"/>
     <path d="M 19.671875 64.796875 
L 19.671875 8.109375 
L 31.59375 8.109375 
Q 46.6875 8.109375 53.6875 14.9375 
Q 60.6875 21.78125 60.6875 36.53125 
Q 60.6875 51.171875 53.6875 57.984375 
Q 46.6875 64.796875 31.59375 64.796875 
z
M 9.8125 72.90625 
L 30.078125 72.90625 
Q 51.265625 72.90625 61.171875 64.09375 
Q 71.09375 55.28125 71.09375 36.53125 
Q 71.09375 17.671875 61.125 8.828125 
Q 51.171875 0 30.078125 0 
L 9.8125 0 
z
" id="DejaVuSans-44"/>
    </defs>
    <g transform="translate(58.89048 28.89775)scale(0.102 -0.102)">
     <use xlink:href="#DejaVuSans-53"/>
     <use x="63.476562" xlink:href="#DejaVuSans-65"/>
     <use x="125" xlink:href="#DejaVuSans-70"/>
     <use x="188.476562" xlink:href="#DejaVuSans-61"/>
     <use x="249.755859" xlink:href="#DejaVuSans-72"/>
     <use x="290.869141" xlink:href="#DejaVuSans-61"/>
     <use x="352.148438" xlink:href="#DejaVuSans-62"/>
     <use x="415.625" xlink:href="#DejaVuSans-6c"/>
     <use x="443.408203" xlink:href="#DejaVuSans-65"/>
     <use x="504.931641" xlink:href="#DejaVuSans-20"/>
     <use x="536.71875" xlink:href="#DejaVuSans-66"/>
     <use x="571.923828" xlink:href="#DejaVuSans-75"/>
     <use x="635.302734" xlink:href="#DejaVuSans-6e"/>
     <use x="698.681641" xlink:href="#DejaVuSans-63"/>
     <use x="753.662109" xlink:href="#DejaVuSans-74"/>
     <use x="792.871094" xlink:href="#DejaVuSans-69"/>
     <use x="820.654297" xlink:href="#DejaVuSans-6f"/>
     <use x="881.835938" xlink:href="#DejaVuSans-6e"/>
     <use x="945.214844" xlink:href="#DejaVuSans-73"/>
     <use x="997.314453" xlink:href="#DejaVuSans-2c"/>
     <use x="1029.101562" xlink:href="#DejaVuSans-20"/>
     <use x="1060.888672" xlink:href="#DejaVuSans-32"/>
     <use x="1124.511719" xlink:href="#DejaVuSans-2d"/>
     <use x="1160.595703" xlink:href="#DejaVuSans-44"/>
    </g>
    <!-- 51 targets: 100..1e-08 -->
    <defs>
     <path d="M 11.71875 12.40625 
L 22.015625 12.40625 
L 22.015625 0 
L 11.71875 0 
z
M 11.71875 51.703125 
L 22.015625 51.703125 
L 22.015625 39.3125 
L 11.71875 39.3125 
z
" id="DejaVuSans-3a"/>
    </defs>
    <g transform="translate(58.89048 40.319519)scale(0.102 -0.102)">
     <use xlink:href="#DejaVuSans-35"/>
     <use x="63.623047" xlink:href="#DejaVuSans-31"/>
     <use x="127.246094" xlink:href="#DejaVuSans-20"/>
     <use x="159.033203" xlink:href="#DejaVuSans-74"/>
     <use x="198.242188" xlink:href="#DejaVuSans-61"/>
     <use x="259.521484" xlink:href="#DejaVuSans-72"/>
     <use x="300.619141" xlink:href="#DejaVuSans-67"/>
     <use x="364.095703" xlink:href="#DejaVuSans-65"/>
     <use x="425.619141" xlink:href="#DejaVuSans-74"/>
     <use x="464.828125" xlink:href="#DejaVuSans-73"/>
     <use x="516.927734" xlink:href="#DejaVuSans-3a"/>
     <use x="550.619141" xlink:href="#DejaVuSans-20"/>
     <use x="582.40625" xlink:href="#DejaVuSans-31"/>
     <use x="646.029297" xlink:href="#DejaVuSans-30"/>
     <use x="709.652344" xlink:href="#DejaVuSans-30"/>
     <use x="773.275391" xlink:href="#DejaVuSans-2e"/>
     <use x="805.0625" xlink:href="#DejaVuSans-2e"/>
     <use x="836.849609" xlink:href="#DejaVuSans-31"/>
     <use x="900.472656" xlink:href="#DejaVuSans-65"/>
     <use x="961.996094" xlink:href="#DejaVuSans-2d"/>
     <use x="998.080078" xlink:href="#DejaVuSans-30"/>
     <use x="1061.703125" xlink:href="#DejaVuSans-38"/>
    </g>
    <!-- 15 instances -->
    <g transform="translate(58.89048 51.741288)scale(0.102 -0.102)">
     <use xlink:href="#DejaVuSans-31"/>
     <use x="63.623047" xlink:href="#DejaVuSans-35"/>
     <use x="127.246094" xlink:href="#DejaVuSans-20"/>
     <use x="159.033203" xlink:href="#DejaVuSans-69"/>
     <use x="186.816406" xlink:href="#DejaVuSans-6e"/>
     <use x="250.195312" xlink:href="#DejaVuSans-73"/>
     <use x="302.294922" xlink:href="#DejaVuSans-74"/>
     <use x="341.503906" xlink:href="#DejaVuSans-61"/>
     <use x="402.783203" xlink:href="#DejaVuSans-6e"/>
     <use x="466.162109" xlink:href="#DejaVuSans-63"/>
     <use x="521.142578" xlink:href="#DejaVuSans-65"/>
     <use x="582.666016" xlink:href="#DejaVuSans-73"/>
    </g>
   </g>
   <g id="text_19">
    <!-- v0.0.0 -->
    <g style="fill:#808080;" transform="translate(178.96275 289.919965)scale(0.1 -0.1)">
     <use xlink:href="#DejaVuSans-76"/>
     <use x="59.179688" xlink:href="#DejaVuSans-30"/>
     <use x="122.802734" xlink:href="#DejaVuSans-2e"/>
     <use x="154.589844" xlink:href="#DejaVuSans-30"/>
     <use x="218.212891" xlink:href="#DejaVuSans-2e"/>
     <use x="250" xlink:href="#DejaVuSans-30"/>
    </g>
   </g>
  </g>
 </g>
 <defs>
  <clipPath id="p8ec5b98494">
   <rect height="288.034772" width="277.048" x="56.12" y="6.845228"/>
  </clipPath>
 </defs>
</svg>
