<?xml version="1.0" encoding="utf-8" standalone="no"?>
<!DOCTYPE svg PUBLIC "-//W3C//DTD SVG 1.1//EN"
  "http://www.w3.org/Graphics/SVG/1.1/DTD/svg11.dtd">
<!-- Created with matplotlib (http://matplotlib.org/) -->
<svg height="345.6pt" version="1.1" viewBox="0 0 460.8 345.6" width="460.8pt" xmlns="http://www.w3.org/2000/svg" xmlns:xlink="http://www.w3.org/1999/xlink">
 <defs>
  <style type="text/css">
*{stroke-linecap:butt;stroke-linejoin:round;}
  </style>
 </defs>
 <g id="figure_1">
  <g id="patch_1">
   <path d="M 0 345.6 
L 460.8 345.6 
L 460.8 0 
L 0 0 
z
" style="fill:#ffffff;"/>
  </g>
  <g id="axes_1">
   <g id="patch_2">
    <path d="M 56.12 294.88 
L 333.168 294.88 
L 333.168 24.84 
L 56.12 24.84 
z
" style="fill:#ffffff;"/>
   </g>
   <g id="matplotlib.axis_1">
    <g id="xtick_1">
     <g id="line2d_1">
      <path clip-path="url(#pfdcc2db470)" d="M 56.12 294.88 
L 56.12 24.84 
" style="fill:none;stroke:#b0b0b0;stroke-linecap:square;stroke-width:0.8;"/>
     </g>
     <g id="line2d_2">
      <defs>
       <path d="M 0 0 
L 0 3.5 
" id="m3c733f2690" style="stroke:#000000;stroke-width:0.8;"/>
      </defs>
      <g>
       <use style="stroke:#000000;stroke-width:0.8;" x="56.12" xlink:href="#m3c733f2690" y="294.88"/>
      </g>
     </g>
     <g id="text_1">
      <!-- 0 -->
      <defs>
       <path d="M 31.78125 66.40625 
Q 24.171875 66.40625 20.328125 58.90625 
Q 16.5 51.421875 16.5 36.375 
Q 16.5 21.390625 20.328125 13.890625 
Q 24.171875 6.390625 31.78125 6.390625 
Q 39.453125 6.390625 43.28125 13.890625 
Q 47.125 21.390625 47.125 36.375 
Q 47.125 51.421875 43.28125 58.90625 
Q 39.453125 66.40625 31.78125 66.40625 
z
M 31.78125 74.21875 
Q 44.046875 74.21875 50.515625 64.515625 
Q 56.984375 54.828125 56.984375 36.375 
Q 56.984375 17.96875 50.515625 8.265625 
Q 44.046875 -1.421875 31.78125 -1.421875 
Q 19.53125 -1.421875 13.0625 8.265625 
Q 6.59375 17.96875 6.59375 36.375 
Q 6.59375 54.828125 13.0625 64.515625 
Q 19.53125 74.21875 31.78125 74.21875 
z
" id="DejaVuSans-30"/>
      </defs>
      <g transform="translate(49.7575 317.076875)scale(0.2 -0.2)">
       <use xlink:href="#DejaVuSans-30"/>
      </g>
     </g>
    </g>
    <g id="xtick_2">
     <g id="line2d_3">
      <path clip-path="url(#pfdcc2db470)" d="M 135.276571 294.88 
L 135.276571 24.84 
" style="fill:none;stroke:#b0b0b0;stroke-linecap:square;stroke-width:0.8;"/>
     </g>
     <g id="line2d_4">
      <g>
       <use style="stroke:#000000;stroke-width:0.8;" x="135.276571" xlink:href="#m3c733f2690" y="294.88"/>
      </g>
     </g>
     <g id="text_2">
      <!-- 2 -->
      <defs>
       <path d="M 19.1875 8.296875 
L 53.609375 8.296875 
L 53.609375 0 
L 7.328125 0 
L 7.328125 8.296875 
Q 12.9375 14.109375 22.625 23.890625 
Q 32.328125 33.6875 34.8125 36.53125 
Q 39.546875 41.84375 41.421875 45.53125 
Q 43.3125 49.21875 43.3125 52.78125 
Q 43.3125 58.59375 39.234375 62.25 
Q 35.15625 65.921875 28.609375 65.921875 
Q 23.96875 65.921875 18.8125 64.3125 
Q 13.671875 62.703125 7.8125 59.421875 
L 7.8125 69.390625 
Q 13.765625 71.78125 18.9375 73 
Q 24.125 74.21875 28.421875 74.21875 
Q 39.75 74.21875 46.484375 68.546875 
Q 53.21875 62.890625 53.21875 53.421875 
Q 53.21875 48.921875 51.53125 44.890625 
Q 49.859375 40.875 45.40625 35.40625 
Q 44.1875 33.984375 37.640625 27.21875 
Q 31.109375 20.453125 19.1875 8.296875 
z
" id="DejaVuSans-32"/>
      </defs>
      <g transform="translate(128.914071 317.076875)scale(0.2 -0.2)">
       <use xlink:href="#DejaVuSans-32"/>
      </g>
     </g>
    </g>
    <g id="xtick_3">
     <g id="line2d_5">
      <path clip-path="url(#pfdcc2db470)" d="M 214.433143 294.88 
L 214.433143 24.84 
" style="fill:none;stroke:#b0b0b0;stroke-linecap:square;stroke-width:0.8;"/>
     </g>
     <g id="line2d_6">
      <g>
       <use style="stroke:#000000;stroke-width:0.8;" x="214.433143" xlink:href="#m3c733f2690" y="294.88"/>
      </g>
     </g>
     <g id="text_3">
      <!-- 4 -->
      <defs>
       <path d="M 37.796875 64.3125 
L 12.890625 25.390625 
L 37.796875 25.390625 
z
M 35.203125 72.90625 
L 47.609375 72.90625 
L 47.609375 25.390625 
L 58.015625 25.390625 
L 58.015625 17.1875 
L 47.609375 17.1875 
L 47.609375 0 
L 37.796875 0 
L 37.796875 17.1875 
L 4.890625 17.1875 
L 4.890625 26.703125 
z
" id="DejaVuSans-34"/>
      </defs>
      <g transform="translate(208.070643 317.076875)scale(0.2 -0.2)">
       <use xlink:href="#DejaVuSans-34"/>
      </g>
     </g>
    </g>
    <g id="xtick_4">
     <g id="line2d_7">
      <path clip-path="url(#pfdcc2db470)" d="M 293.589714 294.88 
L 293.589714 24.84 
" style="fill:none;stroke:#b0b0b0;stroke-linecap:square;stroke-width:0.8;"/>
     </g>
     <g id="line2d_8">
      <g>
       <use style="stroke:#000000;stroke-width:0.8;" x="293.589714" xlink:href="#m3c733f2690" y="294.88"/>
      </g>
     </g>
     <g id="text_4">
      <!-- 6 -->
      <defs>
       <path d="M 33.015625 40.375 
Q 26.375 40.375 22.484375 35.828125 
Q 18.609375 31.296875 18.609375 23.390625 
Q 18.609375 15.53125 22.484375 10.953125 
Q 26.375 6.390625 33.015625 6.390625 
Q 39.65625 6.390625 43.53125 10.953125 
Q 47.40625 15.53125 47.40625 23.390625 
Q 47.40625 31.296875 43.53125 35.828125 
Q 39.65625 40.375 33.015625 40.375 
z
M 52.59375 71.296875 
L 52.59375 62.3125 
Q 48.875 64.0625 45.09375 64.984375 
Q 41.3125 65.921875 37.59375 65.921875 
Q 27.828125 65.921875 22.671875 59.328125 
Q 17.53125 52.734375 16.796875 39.40625 
Q 19.671875 43.65625 24.015625 45.921875 
Q 28.375 48.1875 33.59375 48.1875 
Q 44.578125 48.1875 50.953125 41.515625 
Q 57.328125 34.859375 57.328125 23.390625 
Q 57.328125 12.15625 50.6875 5.359375 
Q 44.046875 -1.421875 33.015625 -1.421875 
Q 20.359375 -1.421875 13.671875 8.265625 
Q 6.984375 17.96875 6.984375 36.375 
Q 6.984375 53.65625 15.1875 63.9375 
Q 23.390625 74.21875 37.203125 74.21875 
Q 40.921875 74.21875 44.703125 73.484375 
Q 48.484375 72.75 52.59375 71.296875 
z
" id="DejaVuSans-36"/>
      </defs>
      <g transform="translate(287.227214 317.076875)scale(0.2 -0.2)">
       <use xlink:href="#DejaVuSans-36"/>
      </g>
     </g>
    </g>
    <g id="xtick_5">
     <g id="line2d_9">
      <path clip-path="url(#pfdcc2db470)" d="M 56.12 294.88 
L 56.12 24.84 
" style="fill:none;stroke:#b0b0b0;stroke-linecap:square;stroke-width:0.8;"/>
     </g>
     <g id="line2d_10">
      <defs>
       <path d="M 0 0 
L 0 2 
" id="m8248b56b6c" style="stroke:#000000;stroke-width:0.6;"/>
      </defs>
      <g>
       <use style="stroke:#000000;stroke-width:0.6;" x="56.12" xlink:href="#m8248b56b6c" y="294.88"/>
      </g>
     </g>
    </g>
    <g id="xtick_6">
     <g id="line2d_11">
      <path clip-path="url(#pfdcc2db470)" d="M 95.698286 294.88 
L 95.698286 24.84 
" style="fill:none;stroke:#b0b0b0;stroke-linecap:square;stroke-width:0.8;"/>
     </g>
     <g id="line2d_12">
      <g>
       <use style="stroke:#000000;stroke-width:0.6;" x="95.698286" xlink:href="#m8248b56b6c" y="294.88"/>
      </g>
     </g>
    </g>
    <g id="xtick_7">
     <g id="line2d_13">
      <path clip-path="url(#pfdcc2db470)" d="M 135.276571 294.88 
L 135.276571 24.84 
" style="fill:none;stroke:#b0b0b0;stroke-linecap:square;stroke-width:0.8;"/>
     </g>
     <g id="line2d_14">
      <g>
       <use style="stroke:#000000;stroke-width:0.6;" x="135.276571" xlink:href="#m8248b56b6c" y="294.88"/>
      </g>
     </g>
    </g>
    <g id="xtick_8">
     <g id="line2d_15">
      <path clip-path="url(#pfdcc2db470)" d="M 174.854857 294.88 
L 174.854857 24.84 
" style="fill:none;stroke:#b0b0b0;stroke-linecap:square;stroke-width:0.8;"/>
     </g>
     <g id="line2d_16">
      <g>
       <use style="stroke:#000000;stroke-width:0.6;" x="174.854857" xlink:href="#m8248b56b6c" y="294.88"/>
      </g>
     </g>
    </g>
    <g id="xtick_9">
     <g id="line2d_17">
      <path clip-path="url(#pfdcc2db470)" d="M 214.433143 294.88 
L 214.433143 24.84 
" style="fill:none;stroke:#b0b0b0;stroke-linecap:square;stroke-width:0.8;"/>
     </g>
     <g id="line2d_18">
      <g>
       <use style="stroke:#000000;stroke-width:0.6;" x="214.433143" xlink:href="#m8248b56b6c" y="294.88"/>
      </g>
     </g>
    </g>
    <g id="xtick_10">
     <g id="line2d_19">
      <path clip-path="url(#pfdcc2db470)" d="M 254.011429 294.88 
L 254.011429 24.84 
" style="fill:none;stroke:#b0b0b0;stroke-linecap:square;stroke-width:0.8;"/>
     </g>
     <g id="line2d_20">
      <g>
       <use style="stroke:#000000;stroke-width:0.6;" x="254.011429" xlink:href="#m8248b56b6c" y="294.88"/>
      </g>
     </g>
    </g>
    <g id="xtick_11">
     <g id="line2d_21">
      <path clip-path="url(#pfdcc2db470)" d="M 293.589714 294.88 
L 293.589714 24.84 
" style="fill:none;stroke:#b0b0b0;stroke-linecap:square;stroke-width:0.8;"/>
     </g>
     <g id="line2d_22">
      <g>
       <use style="stroke:#000000;stroke-width:0.6;" x="293.589714" xlink:href="#m8248b56b6c" y="294.88"/>
      </g>
     </g>
    </g>
    <g id="xtick_12">
     <g id="line2d_23">
      <path clip-path="url(#pfdcc2db470)" d="M 333.168 294.88 
L 333.168 24.84 
" style="fill:none;stroke:#b0b0b0;stroke-linecap:square;stroke-width:0.8;"/>
     </g>
     <g id="line2d_24">
      <g>
       <use style="stroke:#000000;stroke-width:0.6;" x="333.168" xlink:href="#m8248b56b6c" y="294.88"/>
      </g>
     </g>
    </g>
    <g id="text_5">
     <!-- log10(# f-evals / dimension) -->
     <defs>
      <path d="M 9.421875 75.984375 
L 18.40625 75.984375 
L 18.40625 0 
L 9.421875 0 
z
" id="DejaVuSans-6c"/>
      <path d="M 30.609375 48.390625 
Q 23.390625 48.390625 19.1875 42.75 
Q 14.984375 37.109375 14.984375 27.296875 
Q 14.984375 17.484375 19.15625 11.84375 
Q 23.34375 6.203125 30.609375 6.203125 
Q 37.796875 6.203125 41.984375 11.859375 
Q 46.1875 17.53125 46.1875 27.296875 
Q 46.1875 37.015625 41.984375 42.703125 
Q 37.796875 48.390625 30.609375 48.390625 
z
M 30.609375 56 
Q 42.328125 56 49.015625 48.375 
Q 55.71875 40.765625 55.71875 27.296875 
Q 55.71875 13.875 49.015625 6.21875 
Q 42.328125 -1.421875 30.609375 -1.421875 
Q 18.84375 -1.421875 12.171875 6.21875 
Q 5.515625 13.875 5.515625 27.296875 
Q 5.515625 40.765625 12.171875 48.375 
Q 18.84375 56 30.609375 56 
z
" id="DejaVuSans-6f"/>
      <path d="M 45.40625 27.984375 
Q 45.40625 37.75 41.375 43.109375 
Q 37.359375 48.484375 30.078125 48.484375 
Q 22.859375 48.484375 18.828125 43.109375 
Q 14.796875 37.75 14.796875 27.984375 
Q 14.796875 18.265625 18.828125 12.890625 
Q 22.859375 7.515625 30.078125 7.515625 
Q 37.359375 7.515625 41.375 12.890625 
Q 45.40625 18.265625 45.40625 27.984375 
z
M 54.390625 6.78125 
Q 54.390625 -7.171875 48.1875 -13.984375 
Q 42 -20.796875 29.203125 -20.796875 
Q 24.46875 -20.796875 20.265625 -20.09375 
Q 16.0625 -19.390625 12.109375 -17.921875 
L 12.109375 -9.1875 
Q 16.0625 -11.328125 19.921875 -12.34375 
Q 23.78125 -13.375 27.78125 -13.375 
Q 36.625 -13.375 41.015625 -8.765625 
Q 45.40625 -4.15625 45.40625 5.171875 
L 45.40625 9.625 
Q 42.625 4.78125 38.28125 2.390625 
Q 33.9375 0 27.875 0 
Q 17.828125 0 11.671875 7.65625 
Q 5.515625 15.328125 5.515625 27.984375 
Q 5.515625 40.671875 11.671875 48.328125 
Q 17.828125 56 27.875 56 
Q 33.9375 56 38.28125 53.609375 
Q 42.625 51.21875 45.40625 46.390625 
L 45.40625 54.6875 
L 54.390625 54.6875 
z
" id="DejaVuSans-67"/>
      <path d="M 12.40625 8.296875 
L 28.515625 8.296875 
L 28.515625 63.921875 
L 10.984375 60.40625 
L 10.984375 69.390625 
L 28.421875 72.90625 
L 38.28125 72.90625 
L 38.28125 8.296875 
L 54.390625 8.296875 
L 54.390625 0 
L 12.40625 0 
z
" id="DejaVuSans-31"/>
      <path d="M 31 75.875 
Q 24.46875 64.65625 21.28125 53.65625 
Q 18.109375 42.671875 18.109375 31.390625 
Q 18.109375 20.125 21.3125 9.0625 
Q 24.515625 -2 31 -13.1875 
L 23.1875 -13.1875 
Q 15.875 -1.703125 12.234375 9.375 
Q 8.59375 20.453125 8.59375 31.390625 
Q 8.59375 42.28125 12.203125 53.3125 
Q 15.828125 64.359375 23.1875 75.875 
z
" id="DejaVuSans-28"/>
      <path d="M 51.125 44 
L 36.921875 44 
L 32.8125 27.6875 
L 47.125 27.6875 
z
M 43.796875 71.78125 
L 38.71875 51.515625 
L 52.984375 51.515625 
L 58.109375 71.78125 
L 65.921875 71.78125 
L 60.890625 51.515625 
L 76.125 51.515625 
L 76.125 44 
L 58.984375 44 
L 54.984375 27.6875 
L 70.515625 27.6875 
L 70.515625 20.21875 
L 53.078125 20.21875 
L 48 0 
L 40.1875 0 
L 45.21875 20.21875 
L 30.90625 20.21875 
L 25.875 0 
L 18.015625 0 
L 23.09375 20.21875 
L 7.71875 20.21875 
L 7.71875 27.6875 
L 24.90625 27.6875 
L 29 44 
L 13.28125 44 
L 13.28125 51.515625 
L 30.90625 51.515625 
L 35.890625 71.78125 
z
" id="DejaVuSans-23"/>
      <path id="DejaVuSans-20"/>
      <path d="M 37.109375 75.984375 
L 37.109375 68.5 
L 28.515625 68.5 
Q 23.6875 68.5 21.796875 66.546875 
Q 19.921875 64.59375 19.921875 59.515625 
L 19.921875 54.6875 
L 34.71875 54.6875 
L 34.71875 47.703125 
L 19.921875 47.703125 
L 19.921875 0 
L 10.890625 0 
L 10.890625 47.703125 
L 2.296875 47.703125 
L 2.296875 54.6875 
L 10.890625 54.6875 
L 10.890625 58.5 
Q 10.890625 67.625 15.140625 71.796875 
Q 19.390625 75.984375 28.609375 75.984375 
z
" id="DejaVuSans-66"/>
      <path d="M 4.890625 31.390625 
L 31.203125 31.390625 
L 31.203125 23.390625 
L 4.890625 23.390625 
z
" id="DejaVuSans-2d"/>
      <path d="M 56.203125 29.59375 
L 56.203125 25.203125 
L 14.890625 25.203125 
Q 15.484375 15.921875 20.484375 11.0625 
Q 25.484375 6.203125 34.421875 6.203125 
Q 39.59375 6.203125 44.453125 7.46875 
Q 49.3125 8.734375 54.109375 11.28125 
L 54.109375 2.78125 
Q 49.265625 0.734375 44.1875 -0.34375 
Q 39.109375 -1.421875 33.890625 -1.421875 
Q 20.796875 -1.421875 13.15625 6.1875 
Q 5.515625 13.8125 5.515625 26.8125 
Q 5.515625 40.234375 12.765625 48.109375 
Q 20.015625 56 32.328125 56 
Q 43.359375 56 49.78125 48.890625 
Q 56.203125 41.796875 56.203125 29.59375 
z
M 47.21875 32.234375 
Q 47.125 39.59375 43.09375 43.984375 
Q 39.0625 48.390625 32.421875 48.390625 
Q 24.90625 48.390625 20.390625 44.140625 
Q 15.875 39.890625 15.1875 32.171875 
z
" id="DejaVuSans-65"/>
      <path d="M 2.984375 54.6875 
L 12.5 54.6875 
L 29.59375 8.796875 
L 46.6875 54.6875 
L 56.203125 54.6875 
L 35.6875 0 
L 23.484375 0 
z
" id="DejaVuSans-76"/>
      <path d="M 34.28125 27.484375 
Q 23.390625 27.484375 19.1875 25 
Q 14.984375 22.515625 14.984375 16.5 
Q 14.984375 11.71875 18.140625 8.90625 
Q 21.296875 6.109375 26.703125 6.109375 
Q 34.1875 6.109375 38.703125 11.40625 
Q 43.21875 16.703125 43.21875 25.484375 
L 43.21875 27.484375 
z
M 52.203125 31.203125 
L 52.203125 0 
L 43.21875 0 
L 43.21875 8.296875 
Q 40.140625 3.328125 35.546875 0.953125 
Q 30.953125 -1.421875 24.3125 -1.421875 
Q 15.921875 -1.421875 10.953125 3.296875 
Q 6 8.015625 6 15.921875 
Q 6 25.140625 12.171875 29.828125 
Q 18.359375 34.515625 30.609375 34.515625 
L 43.21875 34.515625 
L 43.21875 35.40625 
Q 43.21875 41.609375 39.140625 45 
Q 35.0625 48.390625 27.6875 48.390625 
Q 23 48.390625 18.546875 47.265625 
Q 14.109375 46.140625 10.015625 43.890625 
L 10.015625 52.203125 
Q 14.9375 54.109375 19.578125 55.046875 
Q 24.21875 56 28.609375 56 
Q 40.484375 56 46.34375 49.84375 
Q 52.203125 43.703125 52.203125 31.203125 
z
" id="DejaVuSans-61"/>
      <path d="M 44.28125 53.078125 
L 44.28125 44.578125 
Q 40.484375 46.53125 36.375 47.5 
Q 32.28125 48.484375 27.875 48.484375 
Q 21.1875 48.484375 17.84375 46.4375 
Q 14.5 44.390625 14.5 40.28125 
Q 14.5 37.15625 16.890625 35.375 
Q 19.28125 33.59375 26.515625 31.984375 
L 29.59375 31.296875 
Q 39.15625 29.25 43.1875 25.515625 
Q 47.21875 21.78125 47.21875 15.09375 
Q 47.21875 7.46875 41.1875 3.015625 
Q 35.15625 -1.421875 24.609375 -1.421875 
Q 20.21875 -1.421875 15.453125 -0.5625 
Q 10.6875 0.296875 5.421875 2 
L 5.421875 11.28125 
Q 10.40625 8.6875 15.234375 7.390625 
Q 20.0625 6.109375 24.8125 6.109375 
Q 31.15625 6.109375 34.5625 8.28125 
Q 37.984375 10.453125 37.984375 14.40625 
Q 37.984375 18.0625 35.515625 20.015625 
Q 33.0625 21.96875 24.703125 23.78125 
L 21.578125 24.515625 
Q 13.234375 26.265625 9.515625 29.90625 
Q 5.8125 33.546875 5.8125 39.890625 
Q 5.8125 47.609375 11.28125 51.796875 
Q 16.75 56 26.8125 56 
Q 31.78125 56 36.171875 55.265625 
Q 40.578125 54.546875 44.28125 53.078125 
z
" id="DejaVuSans-73"/>
      <path d="M 25.390625 72.90625 
L 33.6875 72.90625 
L 8.296875 -9.28125 
L 0 -9.28125 
z
" id="DejaVuSans-2f"/>
      <path d="M 45.40625 46.390625 
L 45.40625 75.984375 
L 54.390625 75.984375 
L 54.390625 0 
L 45.40625 0 
L 45.40625 8.203125 
Q 42.578125 3.328125 38.25 0.953125 
Q 33.9375 -1.421875 27.875 -1.421875 
Q 17.96875 -1.421875 11.734375 6.484375 
Q 5.515625 14.40625 5.515625 27.296875 
Q 5.515625 40.1875 11.734375 48.09375 
Q 17.96875 56 27.875 56 
Q 33.9375 56 38.25 53.625 
Q 42.578125 51.265625 45.40625 46.390625 
z
M 14.796875 27.296875 
Q 14.796875 17.390625 18.875 11.75 
Q 22.953125 6.109375 30.078125 6.109375 
Q 37.203125 6.109375 41.296875 11.75 
Q 45.40625 17.390625 45.40625 27.296875 
Q 45.40625 37.203125 41.296875 42.84375 
Q 37.203125 48.484375 30.078125 48.484375 
Q 22.953125 48.484375 18.875 42.84375 
Q 14.796875 37.203125 14.796875 27.296875 
z
" id="DejaVuSans-64"/>
      <path d="M 9.421875 54.6875 
L 18.40625 54.6875 
L 18.40625 0 
L 9.421875 0 
z
M 9.421875 75.984375 
L 18.40625 75.984375 
L 18.40625 64.59375 
L 9.421875 64.59375 
z
" id="DejaVuSans-69"/>
      <path d="M 52 44.1875 
Q 55.375 50.25 60.0625 53.125 
Q 64.75 56 71.09375 56 
Q 79.640625 56 84.28125 50.015625 
Q 88.921875 44.046875 88.921875 33.015625 
L 88.921875 0 
L 79.890625 0 
L 79.890625 32.71875 
Q 79.890625 40.578125 77.09375 44.375 
Q 74.3125 48.1875 68.609375 48.1875 
Q 61.625 48.1875 57.5625 43.546875 
Q 53.515625 38.921875 53.515625 30.90625 
L 53.515625 0 
L 44.484375 0 
L 44.484375 32.71875 
Q 44.484375 40.625 41.703125 44.40625 
Q 38.921875 48.1875 33.109375 48.1875 
Q 26.21875 48.1875 22.15625 43.53125 
Q 18.109375 38.875 18.109375 30.90625 
L 18.109375 0 
L 9.078125 0 
L 9.078125 54.6875 
L 18.109375 54.6875 
L 18.109375 46.1875 
Q 21.1875 51.21875 25.484375 53.609375 
Q 29.78125 56 35.6875 56 
Q 41.65625 56 45.828125 52.96875 
Q 50 49.953125 52 44.1875 
z
" id="DejaVuSans-6d"/>
      <path d="M 54.890625 33.015625 
L 54.890625 0 
L 45.90625 0 
L 45.90625 32.71875 
Q 45.90625 40.484375 42.875 44.328125 
Q 39.84375 48.1875 33.796875 48.1875 
Q 26.515625 48.1875 22.3125 43.546875 
Q 18.109375 38.921875 18.109375 30.90625 
L 18.109375 0 
L 9.078125 0 
L 9.078125 54.6875 
L 18.109375 54.6875 
L 18.109375 46.1875 
Q 21.34375 51.125 25.703125 53.5625 
Q 30.078125 56 35.796875 56 
Q 45.21875 56 50.046875 50.171875 
Q 54.890625 44.34375 54.890625 33.015625 
z
" id="DejaVuSans-6e"/>
      <path d="M 8.015625 75.875 
L 15.828125 75.875 
Q 23.140625 64.359375 26.78125 53.3125 
Q 30.421875 42.28125 30.421875 31.390625 
Q 30.421875 20.453125 26.78125 9.375 
Q 23.140625 -1.703125 15.828125 -13.1875 
L 8.015625 -13.1875 
Q 14.5 -2 17.703125 9.0625 
Q 20.90625 20.125 20.90625 31.390625 
Q 20.90625 42.671875 17.703125 53.65625 
Q 14.5 64.65625 8.015625 75.875 
z
" id="DejaVuSans-29"/>
     </defs>
     <g transform="translate(73.803219 338.153594)scale(0.17 -0.17)">
      <use xlink:href="#DejaVuSans-6c"/>
      <use x="27.783203" xlink:href="#DejaVuSans-6f"/>
      <use x="88.964844" xlink:href="#DejaVuSans-67"/>
      <use x="152.441406" xlink:href="#DejaVuSans-31"/>
      <use x="216.064453" xlink:href="#DejaVuSans-30"/>
      <use x="279.6875" xlink:href="#DejaVuSans-28"/>
      <use x="318.701172" xlink:href="#DejaVuSans-23"/>
      <use x="402.490234" xlink:href="#DejaVuSans-20"/>
      <use x="434.277344" xlink:href="#DejaVuSans-66"/>
      <use x="469.404297" xlink:href="#DejaVuSans-2d"/>
      <use x="505.488281" xlink:href="#DejaVuSans-65"/>
      <use x="567.011719" xlink:href="#DejaVuSans-76"/>
      <use x="626.191406" xlink:href="#DejaVuSans-61"/>
      <use x="687.470703" xlink:href="#DejaVuSans-6c"/>
      <use x="715.253906" xlink:href="#DejaVuSans-73"/>
      <use x="767.353516" xlink:href="#DejaVuSans-20"/>
      <use x="799.140625" xlink:href="#DejaVuSans-2f"/>
      <use x="832.832031" xlink:href="#DejaVuSans-20"/>
      <use x="864.619141" xlink:href="#DejaVuSans-64"/>
      <use x="928.095703" xlink:href="#DejaVuSans-69"/>
      <use x="955.878906" xlink:href="#DejaVuSans-6d"/>
      <use x="1053.291016" xlink:href="#DejaVuSans-65"/>
      <use x="1114.814453" xlink:href="#DejaVuSans-6e"/>
      <use x="1178.193359" xlink:href="#DejaVuSans-73"/>
      <use x="1230.292969" xlink:href="#DejaVuSans-69"/>
      <use x="1258.076172" xlink:href="#DejaVuSans-6f"/>
      <use x="1319.257812" xlink:href="#DejaVuSans-6e"/>
      <use x="1382.636719" xlink:href="#DejaVuSans-29"/>
     </g>
    </g>
   </g>
   <g id="matplotlib.axis_2">
    <g id="ytick_1">
     <g id="line2d_25">
      <path clip-path="url(#pfdcc2db470)" d="M 56.12 294.88 
L 333.168 294.88 
" style="fill:none;stroke:#b0b0b0;stroke-linecap:square;stroke-width:0.8;"/>
     </g>
     <g id="line2d_26">
      <defs>
       <path d="M 0 0 
L -3.5 0 
" id="m86d9983a14" style="stroke:#000000;stroke-width:0.8;"/>
      </defs>
      <g>
       <use style="stroke:#000000;stroke-width:0.8;" x="56.12" xlink:href="#m86d9983a14" y="294.88"/>
      </g>
     </g>
     <g id="text_6">
      <!-- 0.0 -->
      <defs>
       <path d="M 10.6875 12.40625 
L 21 12.40625 
L 21 0 
L 10.6875 0 
z
" id="DejaVuSans-2e"/>
      </defs>
      <g transform="translate(23.675 300.95875)scale(0.16 -0.16)">
       <use xlink:href="#DejaVuSans-30"/>
       <use x="63.623047" xlink:href="#DejaVuSans-2e"/>
       <use x="95.410156" xlink:href="#DejaVuSans-30"/>
      </g>
     </g>
    </g>
    <g id="ytick_2">
     <g id="line2d_27">
      <path clip-path="url(#pfdcc2db470)" d="M 56.12 241.406733 
L 333.168 241.406733 
" style="fill:none;stroke:#b0b0b0;stroke-linecap:square;stroke-width:0.8;"/>
     </g>
     <g id="line2d_28">
      <g>
       <use style="stroke:#000000;stroke-width:0.8;" x="56.12" xlink:href="#m86d9983a14" y="241.406733"/>
      </g>
     </g>
     <g id="text_7">
      <!-- 0.2 -->
      <g transform="translate(23.675 247.485483)scale(0.16 -0.16)">
       <use xlink:href="#DejaVuSans-30"/>
       <use x="63.623047" xlink:href="#DejaVuSans-2e"/>
       <use x="95.410156" xlink:href="#DejaVuSans-32"/>
      </g>
     </g>
    </g>
    <g id="ytick_3">
     <g id="line2d_29">
      <path clip-path="url(#pfdcc2db470)" d="M 56.12 187.933465 
L 333.168 187.933465 
" style="fill:none;stroke:#b0b0b0;stroke-linecap:square;stroke-width:0.8;"/>
     </g>
     <g id="line2d_30">
      <g>
       <use style="stroke:#000000;stroke-width:0.8;" x="56.12" xlink:href="#m86d9983a14" y="187.933465"/>
      </g>
     </g>
     <g id="text_8">
      <!-- 0.4 -->
      <g transform="translate(23.675 194.012215)scale(0.16 -0.16)">
       <use xlink:href="#DejaVuSans-30"/>
       <use x="63.623047" xlink:href="#DejaVuSans-2e"/>
       <use x="95.410156" xlink:href="#DejaVuSans-34"/>
      </g>
     </g>
    </g>
    <g id="ytick_4">
     <g id="line2d_31">
      <path clip-path="url(#pfdcc2db470)" d="M 56.12 134.460198 
L 333.168 134.460198 
" style="fill:none;stroke:#b0b0b0;stroke-linecap:square;stroke-width:0.8;"/>
     </g>
     <g id="line2d_32">
      <g>
       <use style="stroke:#000000;stroke-width:0.8;" x="56.12" xlink:href="#m86d9983a14" y="134.460198"/>
      </g>
     </g>
     <g id="text_9">
      <!-- 0.6 -->
      <g transform="translate(23.675 140.538948)scale(0.16 -0.16)">
       <use xlink:href="#DejaVuSans-30"/>
       <use x="63.623047" xlink:href="#DejaVuSans-2e"/>
       <use x="95.410156" xlink:href="#DejaVuSans-36"/>
      </g>
     </g>
    </g>
    <g id="ytick_5">
     <g id="line2d_33">
      <path clip-path="url(#pfdcc2db470)" d="M 56.12 80.986931 
L 333.168 80.986931 
" style="fill:none;stroke:#b0b0b0;stroke-linecap:square;stroke-width:0.8;"/>
     </g>
     <g id="line2d_34">
      <g>
       <use style="stroke:#000000;stroke-width:0.8;" x="56.12" xlink:href="#m86d9983a14" y="80.986931"/>
      </g>
     </g>
     <g id="text_10">
      <!-- 0.8 -->
      <defs>
       <path d="M 31.78125 34.625 
Q 24.75 34.625 20.71875 30.859375 
Q 16.703125 27.09375 16.703125 20.515625 
Q 16.703125 13.921875 20.71875 10.15625 
Q 24.75 6.390625 31.78125 6.390625 
Q 38.8125 6.390625 42.859375 10.171875 
Q 46.921875 13.96875 46.921875 20.515625 
Q 46.921875 27.09375 42.890625 30.859375 
Q 38.875 34.625 31.78125 34.625 
z
M 21.921875 38.8125 
Q 15.578125 40.375 12.03125 44.71875 
Q 8.5 49.078125 8.5 55.328125 
Q 8.5 64.0625 14.71875 69.140625 
Q 20.953125 74.21875 31.78125 74.21875 
Q 42.671875 74.21875 48.875 69.140625 
Q 55.078125 64.0625 55.078125 55.328125 
Q 55.078125 49.078125 51.53125 44.71875 
Q 48 40.375 41.703125 38.8125 
Q 48.828125 37.15625 52.796875 32.3125 
Q 56.78125 27.484375 56.78125 20.515625 
Q 56.78125 9.90625 50.3125 4.234375 
Q 43.84375 -1.421875 31.78125 -1.421875 
Q 19.734375 -1.421875 13.25 4.234375 
Q 6.78125 9.90625 6.78125 20.515625 
Q 6.78125 27.484375 10.78125 32.3125 
Q 14.796875 37.15625 21.921875 38.8125 
z
M 18.3125 54.390625 
Q 18.3125 48.734375 21.84375 45.5625 
Q 25.390625 42.390625 31.78125 42.390625 
Q 38.140625 42.390625 41.71875 45.5625 
Q 45.3125 48.734375 45.3125 54.390625 
Q 45.3125 60.0625 41.71875 63.234375 
Q 38.140625 66.40625 31.78125 66.40625 
Q 25.390625 66.40625 21.84375 63.234375 
Q 18.3125 60.0625 18.3125 54.390625 
z
" id="DejaVuSans-38"/>
      </defs>
      <g transform="translate(23.675 87.065681)scale(0.16 -0.16)">
       <use xlink:href="#DejaVuSans-30"/>
       <use x="63.623047" xlink:href="#DejaVuSans-2e"/>
       <use x="95.410156" xlink:href="#DejaVuSans-38"/>
      </g>
     </g>
    </g>
    <g id="ytick_6">
     <g id="line2d_35">
      <path clip-path="url(#pfdcc2db470)" d="M 56.12 27.513663 
L 333.168 27.513663 
" style="fill:none;stroke:#b0b0b0;stroke-linecap:square;stroke-width:0.8;"/>
     </g>
     <g id="line2d_36">
      <g>
       <use style="stroke:#000000;stroke-width:0.8;" x="56.12" xlink:href="#m86d9983a14" y="27.513663"/>
      </g>
     </g>
     <g id="text_11">
      <!-- 1.0 -->
      <g transform="translate(23.675 33.592413)scale(0.16 -0.16)">
       <use xlink:href="#DejaVuSans-31"/>
       <use x="63.623047" xlink:href="#DejaVuSans-2e"/>
       <use x="95.410156" xlink:href="#DejaVuSans-30"/>
      </g>
     </g>
    </g>
    <g id="text_12">
     <!-- Fraction of function,target pairs -->
     <defs>
      <path d="M 9.8125 72.90625 
L 51.703125 72.90625 
L 51.703125 64.59375 
L 19.671875 64.59375 
L 19.671875 43.109375 
L 48.578125 43.109375 
L 48.578125 34.8125 
L 19.671875 34.8125 
L 19.671875 0 
L 9.8125 0 
z
" id="DejaVuSans-46"/>
      <path d="M 41.109375 46.296875 
Q 39.59375 47.171875 37.8125 47.578125 
Q 36.03125 48 33.890625 48 
Q 26.265625 48 22.1875 43.046875 
Q 18.109375 38.09375 18.109375 28.8125 
L 18.109375 0 
L 9.078125 0 
L 9.078125 54.6875 
L 18.109375 54.6875 
L 18.109375 46.1875 
Q 20.953125 51.171875 25.484375 53.578125 
Q 30.03125 56 36.53125 56 
Q 37.453125 56 38.578125 55.875 
Q 39.703125 55.765625 41.0625 55.515625 
z
" id="DejaVuSans-72"/>
      <path d="M 48.78125 52.59375 
L 48.78125 44.1875 
Q 44.96875 46.296875 41.140625 47.34375 
Q 37.3125 48.390625 33.40625 48.390625 
Q 24.65625 48.390625 19.8125 42.84375 
Q 14.984375 37.3125 14.984375 27.296875 
Q 14.984375 17.28125 19.8125 11.734375 
Q 24.65625 6.203125 33.40625 6.203125 
Q 37.3125 6.203125 41.140625 7.25 
Q 44.96875 8.296875 48.78125 10.40625 
L 48.78125 2.09375 
Q 45.015625 0.34375 40.984375 -0.53125 
Q 36.96875 -1.421875 32.421875 -1.421875 
Q 20.0625 -1.421875 12.78125 6.34375 
Q 5.515625 14.109375 5.515625 27.296875 
Q 5.515625 40.671875 12.859375 48.328125 
Q 20.21875 56 33.015625 56 
Q 37.15625 56 41.109375 55.140625 
Q 45.0625 54.296875 48.78125 52.59375 
z
" id="DejaVuSans-63"/>
      <path d="M 18.3125 70.21875 
L 18.3125 54.6875 
L 36.8125 54.6875 
L 36.8125 47.703125 
L 18.3125 47.703125 
L 18.3125 18.015625 
Q 18.3125 11.328125 20.140625 9.421875 
Q 21.96875 7.515625 27.59375 7.515625 
L 36.8125 7.515625 
L 36.8125 0 
L 27.59375 0 
Q 17.1875 0 13.234375 3.875 
Q 9.28125 7.765625 9.28125 18.015625 
L 9.28125 47.703125 
L 2.6875 47.703125 
L 2.6875 54.6875 
L 9.28125 54.6875 
L 9.28125 70.21875 
z
" id="DejaVuSans-74"/>
      <path d="M 8.5 21.578125 
L 8.5 54.6875 
L 17.484375 54.6875 
L 17.484375 21.921875 
Q 17.484375 14.15625 20.5 10.265625 
Q 23.53125 6.390625 29.59375 6.390625 
Q 36.859375 6.390625 41.078125 11.03125 
Q 45.3125 15.671875 45.3125 23.6875 
L 45.3125 54.6875 
L 54.296875 54.6875 
L 54.296875 0 
L 45.3125 0 
L 45.3125 8.40625 
Q 42.046875 3.421875 37.71875 1 
Q 33.40625 -1.421875 27.6875 -1.421875 
Q 18.265625 -1.421875 13.375 4.4375 
Q 8.5 10.296875 8.5 21.578125 
z
M 31.109375 56 
z
" id="DejaVuSans-75"/>
      <path d="M 11.71875 12.40625 
L 22.015625 12.40625 
L 22.015625 4 
L 14.015625 -11.625 
L 7.71875 -11.625 
L 11.71875 4 
z
" id="DejaVuSans-2c"/>
      <path d="M 18.109375 8.203125 
L 18.109375 -20.796875 
L 9.078125 -20.796875 
L 9.078125 54.6875 
L 18.109375 54.6875 
L 18.109375 46.390625 
Q 20.953125 51.265625 25.265625 53.625 
Q 29.59375 56 35.59375 56 
Q 45.5625 56 51.78125 48.09375 
Q 58.015625 40.1875 58.015625 27.296875 
Q 58.015625 14.40625 51.78125 6.484375 
Q 45.5625 -1.421875 35.59375 -1.421875 
Q 29.59375 -1.421875 25.265625 0.953125 
Q 20.953125 3.328125 18.109375 8.203125 
z
M 48.6875 27.296875 
Q 48.6875 37.203125 44.609375 42.84375 
Q 40.53125 48.484375 33.40625 48.484375 
Q 26.265625 48.484375 22.1875 42.84375 
Q 18.109375 37.203125 18.109375 27.296875 
Q 18.109375 17.390625 22.1875 11.75 
Q 26.265625 6.109375 33.40625 6.109375 
Q 40.53125 6.109375 44.609375 11.75 
Q 48.6875 17.390625 48.6875 27.296875 
z
" id="DejaVuSans-70"/>
     </defs>
     <g transform="translate(16.139531 294.999375)rotate(-90)scale(0.17 -0.17)">
      <use xlink:href="#DejaVuSans-46"/>
      <use x="57.410156" xlink:href="#DejaVuSans-72"/>
      <use x="98.523438" xlink:href="#DejaVuSans-61"/>
      <use x="159.802734" xlink:href="#DejaVuSans-63"/>
      <use x="214.783203" xlink:href="#DejaVuSans-74"/>
      <use x="253.992188" xlink:href="#DejaVuSans-69"/>
      <use x="281.775391" xlink:href="#DejaVuSans-6f"/>
      <use x="342.957031" xlink:href="#DejaVuSans-6e"/>
      <use x="406.335938" xlink:href="#DejaVuSans-20"/>
      <use x="438.123047" xlink:href="#DejaVuSans-6f"/>
      <use x="499.304688" xlink:href="#DejaVuSans-66"/>
      <use x="534.509766" xlink:href="#DejaVuSans-20"/>
      <use x="566.296875" xlink:href="#DejaVuSans-66"/>
      <use x="601.501953" xlink:href="#DejaVuSans-75"/>
      <use x="664.880859" xlink:href="#DejaVuSans-6e"/>
      <use x="728.259766" xlink:href="#DejaVuSans-63"/>
      <use x="783.240234" xlink:href="#DejaVuSans-74"/>
      <use x="822.449219" xlink:href="#DejaVuSans-69"/>
      <use x="850.232422" xlink:href="#DejaVuSans-6f"/>
      <use x="911.414062" xlink:href="#DejaVuSans-6e"/>
      <use x="974.792969" xlink:href="#DejaVuSans-2c"/>
      <use x="1006.580078" xlink:href="#DejaVuSans-74"/>
      <use x="1045.789062" xlink:href="#DejaVuSans-61"/>
      <use x="1107.068359" xlink:href="#DejaVuSans-72"/>
      <use x="1148.166016" xlink:href="#DejaVuSans-67"/>
      <use x="1211.642578" xlink:href="#DejaVuSans-65"/>
      <use x="1273.166016" xlink:href="#DejaVuSans-74"/>
      <use x="1312.375" xlink:href="#DejaVuSans-20"/>
      <use x="1344.162109" xlink:href="#DejaVuSans-70"/>
      <use x="1407.638672" xlink:href="#DejaVuSans-61"/>
      <use x="1468.917969" xlink:href="#DejaVuSans-69"/>
      <use x="1496.701172" xlink:href="#DejaVuSans-72"/>
      <use x="1537.814453" xlink:href="#DejaVuSans-73"/>
     </g>
    </g>
   </g>
   <g id="line2d_37">
    <defs>
     <path d="M 0 1.5 
C 0.397805 1.5 0.77937 1.341951 1.06066 1.06066 
C 1.341951 0.77937 1.5 0.397805 1.5 0 
C 1.5 -0.397805 1.341951 -0.77937 1.06066 -1.06066 
C 0.77937 -1.341951 0.397805 -1.5 0 -1.5 
C -0.397805 -1.5 -0.77937 -1.341951 -1.06066 -1.06066 
C -1.341951 -0.77937 -1.5 -0.397805 -1.5 0 
C -1.5 0.397805 -1.341951 0.77937 -1.06066 1.06066 
C -0.77937 1.341951 -0.397805 1.5 0 1.5 
z
" id="mae9c3ea1d7" style="stroke:#00bfbf;"/>
    </defs>
    <g>
     <use style="fill:#00bfbf;stroke:#00bfbf;" x="260.486893" xlink:href="#mae9c3ea1d7" y="163.81807"/>
     <use style="fill:#00bfbf;stroke:#00bfbf;" x="260.486893" xlink:href="#mae9c3ea1d7" y="163.81807"/>
    </g>
   </g>
   <g id="line2d_38">
    <path d="M 44.205749 294.88 
L 44.205749 291.210266 
L 56.12 291.210266 
L 56.12 290.161771 
L 63.08939 290.161771 
L 63.08939 287.016284 
L 68.034251 287.016284 
L 68.034251 283.34655 
L 71.869783 283.34655 
L 71.869783 280.725312 
L 75.003641 280.725312 
L 75.003641 280.201064 
L 77.653281 280.201064 
L 77.653281 279.152568 
L 79.948502 279.152568 
L 79.948502 277.055578 
L 81.973032 277.055578 
L 81.973032 273.385844 
L 83.784035 273.385844 
L 83.784035 272.861596 
L 88.293717 272.861596 
L 88.293717 272.337348 
L 93.887283 272.337348 
L 93.887283 271.8131 
L 102.667676 271.8131 
L 102.667676 271.288853 
L 103.231288 271.288853 
L 103.231288 270.240357 
L 105.317315 270.240357 
L 105.317315 268.667614 
L 105.801534 268.667614 
L 105.801534 268.143366 
L 107.612537 268.143366 
L 107.612537 267.094871 
L 108.451173 267.094871 
L 108.451173 265.522128 
L 115.957752 265.522128 
L 115.957752 264.99788 
L 116.220179 264.99788 
L 116.220179 261.852394 
L 116.984244 261.852394 
L 116.984244 261.328146 
L 117.715785 261.328146 
L 117.715785 260.279651 
L 118.186736 260.279651 
L 118.186736 259.231155 
L 120.15957 259.231155 
L 120.15957 257.134164 
L 120.568842 257.134164 
L 120.568842 256.609917 
L 120.769881 256.609917 
L 120.769881 255.561421 
L 124.036471 255.561421 
L 124.036471 253.988678 
L 135.616951 253.988678 
L 135.701004 252.940182 
L 136.519665 252.940182 
L 136.519665 252.415935 
L 137.377325 252.415935 
L 137.377325 251.891687 
L 142.18857 251.891687 
L 142.18857 251.367439 
L 146.799661 251.367439 
L 146.799661 250.843192 
L 149.593139 250.843192 
L 149.593139 249.794696 
L 151.400405 249.794696 
L 151.400405 248.746201 
L 152.412754 248.746201 
L 152.412754 248.221953 
L 152.539141 248.221953 
L 152.539141 247.697705 
L 153.30868 247.697705 
L 153.30868 247.173458 
L 153.842163 247.173458 
L 153.842163 245.600714 
L 154.668288 245.600714 
L 154.668288 242.979476 
L 155.902323 242.979476 
L 155.902323 241.93098 
L 157.005179 241.93098 
L 157.005179 241.406733 
L 158.954011 241.406733 
L 158.954011 240.882485 
L 160.467671 240.882485 
L 160.467671 240.358237 
L 161.766986 240.358237 
L 161.766986 239.83399 
L 162.238932 239.83399 
L 162.238932 239.309742 
L 162.923409 239.309742 
L 162.923409 236.688503 
L 163.162618 236.688503 
L 163.213447 235.11576 
L 165.37279 235.11576 
L 165.37279 234.591512 
L 167.595119 234.591512 
L 167.595119 234.067265 
L 169.339125 234.067265 
L 169.398253 232.494521 
L 169.632754 232.494521 
L 169.632754 230.397531 
L 171.898838 230.397531 
L 171.898838 229.873283 
L 173.625939 229.873283 
L 173.625939 229.349035 
L 178.074444 229.349035 
L 178.074444 228.824787 
L 178.399167 228.824787 
L 178.399167 228.30054 
L 178.806876 228.30054 
L 178.806876 227.776292 
L 179.885447 227.776292 
L 179.885447 227.252044 
L 181.318406 227.252044 
L 181.318406 225.679301 
L 181.80705 225.679301 
L 181.80705 224.106558 
L 182.287764 224.106558 
L 182.287764 222.533815 
L 183.258151 222.533815 
L 183.258151 222.009567 
L 183.853869 222.009567 
L 183.853869 221.485319 
L 184.236525 221.485319 
L 184.236525 220.961072 
L 184.454231 220.961072 
L 184.454231 220.436824 
L 184.683774 220.436824 
L 184.683774 218.339833 
L 184.843131 218.339833 
L 184.843131 217.291338 
L 186.360354 217.291338 
L 186.360354 216.242842 
L 190.052713 216.242842 
L 190.052713 215.194347 
L 191.195954 215.194347 
L 191.195954 214.145851 
L 192.123722 214.145851 
L 192.123722 213.621604 
L 193.114237 213.621604 
L 193.114237 213.097356 
L 193.915203 213.097356 
L 193.915203 212.573108 
L 194.134959 212.573108 
L 194.134959 212.04886 
L 194.810186 212.04886 
L 194.810186 209.95187 
L 195.676229 209.95187 
L 195.676229 209.427622 
L 197.273482 209.427622 
L 197.273482 208.379126 
L 197.396649 208.379126 
L 197.472894 206.282136 
L 198.193001 206.282136 
L 198.193001 205.23364 
L 198.679062 205.23364 
L 198.679062 204.709392 
L 199.328562 204.709392 
L 199.328562 201.563906 
L 200.073722 201.563906 
L 200.182368 197.894172 
L 200.565976 197.894172 
L 200.565976 197.369924 
L 201.095015 197.369924 
L 201.095015 196.845677 
L 202.339194 196.845677 
L 202.339194 196.321429 
L 202.47242 196.321429 
L 202.489646 194.748686 
L 209.422841 194.748686 
L 209.422841 193.70019 
L 211.112985 193.70019 
L 211.112985 193.175943 
L 211.985001 193.175943 
L 211.985001 192.651695 
L 213.006465 192.651695 
L 213.006465 192.127447 
L 213.346717 192.127447 
L 213.346717 190.030456 
L 214.430564 190.030456 
L 214.505184 188.457713 
L 220.525696 188.457713 
L 220.525696 186.88497 
L 220.746158 186.88497 
L 220.746158 183.215236 
L 225.500978 183.215236 
L 225.500978 182.690988 
L 225.739019 182.690988 
L 225.739019 182.16674 
L 225.902076 182.16674 
L 225.902076 180.593997 
L 226.465588 180.593997 
L 226.465588 180.06975 
L 229.863009 180.06975 
L 229.863009 178.497006 
L 233.079962 178.497006 
L 233.079962 177.972759 
L 235.78871 177.972759 
L 235.78871 176.924263 
L 238.128131 176.924263 
L 238.128131 175.875768 
L 238.429699 175.875768 
L 238.429699 174.827272 
L 240.186958 174.827272 
L 240.186958 174.303025 
L 241.961714 174.303025 
L 241.961714 172.730281 
L 245.200211 172.730281 
L 245.200211 172.206034 
L 246.543011 172.206034 
L 246.59178 170.633291 
L 247.879078 170.633291 
L 247.879078 169.584795 
L 249.076649 169.584795 
L 249.076649 169.060547 
L 250.196188 169.060547 
L 250.196188 168.5363 
L 251.247247 168.5363 
L 251.247247 168.012052 
L 252.237723 168.012052 
L 252.237723 167.487804 
L 254.062317 167.487804 
L 254.062317 166.439309 
L 255.711682 166.439309 
L 255.711682 165.915061 
L 256.453159 165.915061 
L 256.453159 165.390813 
L 257.897078 165.390813 
L 257.897078 164.866566 
L 259.858223 164.866566 
L 259.858223 164.342318 
L 260.486893 164.342318 
L 260.486893 163.81807 
L 333.168 163.81807 
L 333.168 163.81807 
" style="fill:none;stroke:#00bfbf;stroke-linecap:square;stroke-width:1.5;"/>
   </g>
   <g id="line2d_39">
    <defs>
     <path d="M -6 0 
L 6 0 
M 0 6 
L 0 -6 
" id="m6d2acf7d24" style="stroke:#00bfbf;stroke-width:1.5;"/>
    </defs>
    <g>
     <use style="fill-opacity:0;stroke:#00bfbf;stroke-width:1.5;" x="118.186736" xlink:href="#m6d2acf7d24" y="259.231155"/>
     <use style="fill-opacity:0;stroke:#00bfbf;stroke-width:1.5;" x="173.625939" xlink:href="#m6d2acf7d24" y="229.349035"/>
     <use style="fill-opacity:0;stroke:#00bfbf;stroke-width:1.5;" x="214.505184" xlink:href="#m6d2acf7d24" y="188.457713"/>
     <use style="fill-opacity:0;stroke:#00bfbf;stroke-width:1.5;" x="260.486893" xlink:href="#m6d2acf7d24" y="163.81807"/>
     <use style="fill-opacity:0;stroke:#00bfbf;stroke-width:1.5;" x="260.486893" xlink:href="#m6d2acf7d24" y="163.81807"/>
     <use style="fill-opacity:0;stroke:#00bfbf;stroke-width:1.5;" x="333.168" xlink:href="#m6d2acf7d24" y="163.81807"/>
    </g>
   </g>
   <g id="line2d_40">
    <path style="fill:none;stroke:#00bfbf;stroke-linecap:square;stroke-width:1.5;"/>
    <g/>
   </g>
   <g id="line2d_41">
    <path clip-path="url(#pfdcc2db470)" d="M 202.691626 194.748686 
" style="fill:none;stroke:#00bfbf;stroke-linecap:square;stroke-width:1.5;"/>
    <defs>
     <path d="M -12 12 
L 12 -12 
M -12 -12 
L 12 12 
" id="mabee8eb0d9" style="stroke:#00bfbf;"/>
    </defs>
    <g clip-path="url(#pfdcc2db470)">
     <use style="fill:#00bfbf;stroke:#00bfbf;" x="202.691626" xlink:href="#mabee8eb0d9" y="194.748686"/>
    </g>
   </g>
   <g id="line2d_42">
    <defs>
     <path d="M 0 1.5 
C 0.397805 1.5 0.77937 1.341951 1.06066 1.06066 
C 1.341951 0.77937 1.5 0.397805 1.5 0 
C 1.5 -0.397805 1.341951 -0.77937 1.06066 -1.06066 
C 0.77937 -1.341951 0.397805 -1.5 0 -1.5 
C -0.397805 -1.5 -0.77937 -1.341951 -1.06066 -1.06066 
C -1.341951 -0.77937 -1.5 -0.397805 -1.5 0 
C -1.5 0.397805 -1.341951 0.77937 -1.06066 1.06066 
C -0.77937 1.341951 -0.397805 1.5 0 1.5 
z
" id="mf351432dc6" style="stroke:#008000;"/>
    </defs>
    <g>
     <use style="fill:#008000;stroke:#008000;" x="273.443594" xlink:href="#mf351432dc6" y="174.303025"/>
     <use style="fill:#008000;stroke:#008000;" x="273.443594" xlink:href="#mf351432dc6" y="174.303025"/>
    </g>
   </g>
   <g id="line2d_43">
    <path d="M 37.236359 294.88 
L 37.236359 285.443541 
L 56.12 285.443541 
L 56.12 283.34655 
L 61.064861 283.34655 
L 61.064861 282.822302 
L 68.034251 282.822302 
L 68.034251 281.773807 
L 76.814644 281.773807 
L 76.814644 280.201064 
L 78.452896 280.201064 
L 78.452896 277.055578 
L 79.948502 277.055578 
L 79.948502 276.53133 
L 81.324327 276.53133 
L 81.324327 275.482834 
L 84.893363 275.482834 
L 84.893363 274.958587 
L 87.847234 274.958587 
L 87.847234 272.337348 
L 89.567532 272.337348 
L 89.567532 271.8131 
L 90.367147 271.8131 
L 90.367147 271.288853 
L 93.887283 271.288853 
L 93.887283 270.764605 
L 96.807615 270.764605 
L 96.807615 270.240357 
L 97.336537 270.240357 
L 97.336537 269.716109 
L 98.347925 269.716109 
L 98.347925 268.667614 
L 98.832144 268.667614 
L 98.832144 267.619119 
L 102.281398 267.619119 
L 102.281398 267.094871 
L 103.415125 267.094871 
L 103.415125 266.570623 
L 106.730875 266.570623 
L 106.730875 266.046375 
L 113.396034 266.046375 
L 113.396034 265.522128 
L 129.389632 265.522128 
L 129.389632 264.473632 
L 130.023386 264.473632 
L 130.023386 263.949385 
L 131.07916 263.949385 
L 131.07916 262.376641 
L 134.574897 262.376641 
L 134.574897 261.852394 
L 137.728638 261.852394 
L 137.728638 261.328146 
L 137.87703 261.328146 
L 137.87703 260.803898 
L 138.88138 260.803898 
L 138.88138 259.755403 
L 139.917968 259.755403 
L 139.917968 259.231155 
L 140.221432 259.231155 
L 140.221432 258.706907 
L 140.519632 258.706907 
L 140.519632 256.609917 
L 143.029944 256.609917 
L 143.029944 256.085669 
L 144.498158 256.085669 
L 144.498158 255.561421 
L 145.974208 255.561421 
L 145.974208 255.037173 
L 146.57844 255.037173 
L 146.57844 254.512926 
L 149.987165 254.512926 
L 149.987165 253.46443 
L 151.140565 253.46443 
L 151.140565 252.940182 
L 151.612132 252.940182 
L 151.612132 252.415935 
L 152.768465 252.415935 
L 152.768465 250.843192 
L 153.577492 250.843192 
L 153.577492 249.794696 
L 154.406717 249.794696 
L 154.406717 249.270448 
L 154.649736 249.270448 
L 154.649736 248.746201 
L 155.125703 248.746201 
L 155.125703 247.697705 
L 158.492691 247.697705 
L 158.492691 247.173458 
L 160.573204 247.173458 
L 160.573204 246.64921 
L 161.73014 246.64921 
L 161.73014 245.600714 
L 162.107126 245.600714 
L 162.107126 244.552219 
L 164.589272 244.552219 
L 164.589272 244.027971 
L 168.658498 244.027971 
L 168.658498 242.979476 
L 169.22423 242.979476 
L 169.22423 242.455228 
L 169.787329 242.455228 
L 169.841104 240.882485 
L 171.317524 240.882485 
L 171.317524 240.358237 
L 171.492598 240.358237 
L 171.492598 239.83399 
L 172.43477 239.83399 
L 172.43477 238.785494 
L 173.189656 238.785494 
L 173.189656 237.736999 
L 174.206814 237.736999 
L 174.206814 237.212751 
L 175.769718 237.212751 
L 175.769718 236.688503 
L 177.227254 236.688503 
L 177.227254 236.164255 
L 177.361483 236.164255 
L 177.42574 235.11576 
L 180.764757 235.11576 
L 180.764757 234.591512 
L 181.284937 234.591512 
L 181.284937 234.067265 
L 183.097516 234.067265 
L 183.097516 233.543017 
L 183.500653 233.543017 
L 183.500653 231.970274 
L 183.958771 231.970274 
L 183.958771 230.921778 
L 184.614096 230.921778 
L 184.614096 230.397531 
L 186.09725 230.397531 
L 186.09725 229.349035 
L 187.374256 229.349035 
L 187.443259 227.776292 
L 187.553091 227.776292 
L 187.553091 227.252044 
L 187.950799 227.252044 
L 187.950799 226.727797 
L 188.485313 226.727797 
L 188.485313 226.203549 
L 188.844491 226.203549 
L 188.844491 225.679301 
L 189.018792 225.679301 
L 189.018792 224.630806 
L 189.263349 224.630806 
L 189.263349 224.106558 
L 189.40155 224.106558 
L 189.40155 223.058063 
L 191.562907 223.058063 
L 191.562907 222.533815 
L 192.685101 222.533815 
L 192.685101 221.485319 
L 193.734678 221.485319 
L 193.734678 220.961072 
L 193.985003 220.961072 
L 193.985003 219.912576 
L 199.156633 219.912576 
L 199.166385 218.339833 
L 199.352 218.339833 
L 199.352 217.815585 
L 200.045957 217.815585 
L 200.045957 217.291338 
L 200.563408 217.291338 
L 200.563408 216.76709 
L 201.330543 216.76709 
L 201.330543 216.242842 
L 202.589792 216.242842 
L 202.589792 215.718594 
L 202.810896 215.718594 
L 202.810896 215.194347 
L 203.964387 215.194347 
L 203.964387 214.670099 
L 204.186287 214.670099 
L 204.186287 214.145851 
L 205.260611 214.145851 
L 205.260611 213.621604 
L 206.184913 213.621604 
L 206.210816 212.04886 
L 206.576662 212.04886 
L 206.576662 211.524613 
L 207.54435 211.524613 
L 207.54435 208.379126 
L 209.330186 208.379126 
L 209.330186 207.854879 
L 209.541675 207.854879 
L 209.541675 207.330631 
L 212.355246 207.330631 
L 212.355246 206.806383 
L 213.668687 206.806383 
L 213.668687 206.282136 
L 213.968557 206.282136 
L 213.968557 205.23364 
L 214.544507 205.23364 
L 214.551337 203.660897 
L 217.211947 203.660897 
L 217.211947 203.136649 
L 218.006798 203.136649 
L 218.103793 202.088154 
L 218.174914 202.088154 
L 218.174914 201.563906 
L 218.403818 201.563906 
L 218.403818 201.039658 
L 218.601414 201.039658 
L 218.601414 199.991163 
L 218.85268 199.991163 
L 218.85268 198.942667 
L 219.504731 198.942667 
L 219.509849 197.369924 
L 222.474938 197.369924 
L 222.474938 196.845677 
L 222.820264 196.845677 
L 222.83011 195.797181 
L 223.349475 195.797181 
L 223.349475 195.272933 
L 225.893106 195.272933 
L 225.893106 194.748686 
L 226.489471 194.748686 
L 226.489471 194.224438 
L 228.774355 194.224438 
L 228.774355 193.70019 
L 229.143493 193.70019 
L 229.143493 193.175943 
L 231.113426 193.175943 
L 231.119504 191.078952 
L 231.442001 191.078952 
L 231.442001 190.554704 
L 233.074056 190.554704 
L 233.182765 188.981961 
L 233.469086 188.981961 
L 233.469086 187.409218 
L 235.111794 187.409218 
L 235.111794 186.88497 
L 235.282134 186.88497 
L 235.282134 186.360722 
L 236.922058 186.360722 
L 236.922058 185.836474 
L 238.200804 185.836474 
L 238.204829 184.787979 
L 239.796061 184.787979 
L 239.796061 184.263731 
L 240.887449 184.263731 
L 240.887449 183.739484 
L 241.070886 183.739484 
L 241.070886 183.215236 
L 242.021841 183.215236 
L 242.021841 182.690988 
L 242.257655 182.690988 
L 242.257655 182.16674 
L 243.207366 182.16674 
L 243.207366 181.642493 
L 244.259578 181.642493 
L 244.259578 181.118245 
L 244.410481 181.118245 
L 244.410481 180.593997 
L 246.323436 180.593997 
L 246.323436 180.06975 
L 247.077411 180.06975 
L 247.077411 179.545502 
L 250.234239 179.545502 
L 250.340971 178.497006 
L 252.271516 178.497006 
L 252.271516 177.972759 
L 255.816844 177.972759 
L 255.816844 177.448511 
L 256.254878 177.448511 
L 256.254878 176.924263 
L 259.486587 176.924263 
L 259.486587 176.400016 
L 260.763098 176.400016 
L 260.763098 175.875768 
L 261.149469 175.875768 
L 261.149469 175.35152 
L 265.213528 175.35152 
L 265.213528 174.827272 
L 273.443594 174.827272 
L 273.443594 174.303025 
L 333.168 174.303025 
L 333.168 174.303025 
" style="fill:none;stroke:#008000;stroke-linecap:square;stroke-width:1.5;"/>
   </g>
   <g id="line2d_44">
    <defs>
     <path d="M -0 6 
L 6 -6 
L -6 -6 
z
" id="m7a4638f0ba" style="stroke:#008000;stroke-linejoin:miter;stroke-width:1.5;"/>
    </defs>
    <g>
     <use style="fill-opacity:0;stroke:#008000;stroke-linejoin:miter;stroke-width:1.5;" x="84.893363" xlink:href="#m7a4638f0ba" y="275.482834"/>
     <use style="fill-opacity:0;stroke:#008000;stroke-linejoin:miter;stroke-width:1.5;" x="140.221432" xlink:href="#m7a4638f0ba" y="258.706907"/>
     <use style="fill-opacity:0;stroke:#008000;stroke-linejoin:miter;stroke-width:1.5;" x="213.668687" xlink:href="#m7a4638f0ba" y="206.282136"/>
     <use style="fill-opacity:0;stroke:#008000;stroke-linejoin:miter;stroke-width:1.5;" x="256.254878" xlink:href="#m7a4638f0ba" y="176.924263"/>
     <use style="fill-opacity:0;stroke:#008000;stroke-linejoin:miter;stroke-width:1.5;" x="273.443594" xlink:href="#m7a4638f0ba" y="174.303025"/>
     <use style="fill-opacity:0;stroke:#008000;stroke-linejoin:miter;stroke-width:1.5;" x="333.168" xlink:href="#m7a4638f0ba" y="174.303025"/>
    </g>
   </g>
   <g id="line2d_45">
    <path style="fill:none;stroke:#008000;stroke-linecap:square;stroke-width:1.5;"/>
    <g/>
   </g>
   <g id="line2d_46">
    <path clip-path="url(#pfdcc2db470)" d="M 195.722236 219.912576 
" style="fill:none;stroke:#008000;stroke-linecap:square;stroke-width:1.5;"/>
    <defs>
     <path d="M -12 12 
L 12 -12 
M -12 -12 
L 12 12 
" id="m41dd6f79c1" style="stroke:#008000;"/>
    </defs>
    <g clip-path="url(#pfdcc2db470)">
     <use style="fill:#008000;stroke:#008000;" x="195.722236" xlink:href="#m41dd6f79c1" y="219.912576"/>
    </g>
   </g>
   <g id="line2d_47">
    <defs>
     <path d="M 0 1.5 
C 0.397805 1.5 0.77937 1.341951 1.06066 1.06066 
C 1.341951 0.77937 1.5 0.397805 1.5 0 
C 1.5 -0.397805 1.341951 -0.77937 1.06066 -1.06066 
C 0.77937 -1.341951 0.397805 -1.5 0 -1.5 
C -0.397805 -1.5 -0.77937 -1.341951 -1.06066 -1.06066 
C -1.341951 -0.77937 -1.5 -0.397805 -1.5 0 
C -1.5 0.397805 -1.341951 0.77937 -1.06066 1.06066 
C -0.77937 1.341951 -0.397805 1.5 0 1.5 
z
" id="m7f7b8abe49" style="stroke:#0000ff;"/>
    </defs>
    <g>
     <use style="fill:#0000ff;stroke:#0000ff;" x="234.420311" xlink:href="#m7f7b8abe49" y="226.727797"/>
     <use style="fill:#0000ff;stroke:#0000ff;" x="234.420311" xlink:href="#m7f7b8abe49" y="226.727797"/>
    </g>
   </g>
   <g id="line2d_48">
    <path d="M 28.455965 294.88 
L 28.455965 287.540532 
L 40.370217 287.540532 
L 40.370217 284.919293 
L 47.339607 284.919293 
L 47.339607 283.870798 
L 64.198719 283.870798 
L 64.198719 282.298055 
L 66.223248 282.298055 
L 66.223248 281.249559 
L 68.034251 281.249559 
L 68.034251 280.725312 
L 77.155024 280.725312 
L 77.155024 280.201064 
L 81.586754 280.201064 
L 81.586754 279.152568 
L 83.08236 279.152568 
L 83.08236 278.104073 
L 85.732 278.104073 
L 85.732 277.579825 
L 86.917893 277.579825 
L 86.917893 276.007082 
L 95.351029 276.007082 
L 95.351029 275.482834 
L 98.832144 275.482834 
L 98.832144 274.434339 
L 99.941473 274.434339 
L 99.941473 273.910091 
L 101.966002 273.910091 
L 101.966002 273.385844 
L 116.427273 273.385844 
L 116.427273 271.8131 
L 119.867168 271.8131 
L 119.867168 270.764605 
L 122.225468 270.764605 
L 122.225468 270.240357 
L 126.207287 270.240357 
L 126.207287 269.191862 
L 127.334814 269.191862 
L 127.334814 268.143366 
L 128.13443 268.143366 
L 128.13443 266.570623 
L 128.341524 266.570623 
L 128.341524 265.522128 
L 130.14738 265.522128 
L 130.14738 264.99788 
L 132.320552 264.99788 
L 132.320552 264.473632 
L 136.694654 264.473632 
L 136.694654 263.425137 
L 142.720629 263.425137 
L 142.720629 262.376641 
L 142.964129 262.376641 
L 142.964129 261.852394 
L 146.667271 261.852394 
L 146.667271 260.803898 
L 147.815319 260.803898 
L 147.815319 260.279651 
L 148.891465 260.279651 
L 148.93811 256.609917 
L 149.874805 256.609917 
L 149.874805 256.085669 
L 151.474248 256.085669 
L 151.474248 255.037173 
L 152.247048 255.037173 
L 152.247048 254.512926 
L 154.102822 254.512926 
L 154.102822 253.988678 
L 156.179648 253.988678 
L 156.179648 253.46443 
L 156.522625 253.46443 
L 156.612279 251.367439 
L 159.746137 251.367439 
L 159.746137 250.318944 
L 161.537258 250.318944 
L 161.537258 249.794696 
L 162.523048 249.794696 
L 162.523048 249.270448 
L 164.282549 249.270448 
L 164.282549 248.746201 
L 164.992615 248.746201 
L 164.992615 248.221953 
L 165.988305 248.221953 
L 166.040052 246.64921 
L 166.842016 246.64921 
L 166.852971 245.600714 
L 169.193992 245.600714 
L 169.193992 245.076467 
L 169.567416 245.076467 
L 169.567416 244.552219 
L 172.747192 244.552219 
L 172.747192 244.027971 
L 172.921187 244.027971 
L 172.921187 243.503724 
L 174.313576 243.503724 
L 174.313576 242.979476 
L 181.113021 242.979476 
L 181.113021 242.455228 
L 181.397294 242.455228 
L 181.397294 241.93098 
L 182.334548 241.93098 
L 182.334548 241.406733 
L 183.366391 241.406733 
L 183.366391 240.882485 
L 183.83553 240.882485 
L 183.843683 239.309742 
L 185.257243 239.309742 
L 185.257243 238.785494 
L 185.53465 238.785494 
L 185.53465 238.261246 
L 188.206174 238.261246 
L 188.206174 237.736999 
L 193.237377 237.736999 
L 193.237377 237.212751 
L 193.533307 237.212751 
L 193.533307 236.688503 
L 193.792272 236.688503 
L 193.792272 236.164255 
L 196.30642 236.164255 
L 196.30642 235.640008 
L 197.161168 235.640008 
L 197.161168 235.11576 
L 201.404062 235.11576 
L 201.404062 234.591512 
L 203.078955 234.591512 
L 203.078955 234.067265 
L 204.09327 234.067265 
L 204.09327 233.543017 
L 204.21642 233.543017 
L 204.21642 233.018769 
L 210.044795 233.018769 
L 210.04657 231.970274 
L 210.664944 231.970274 
L 210.664944 231.446026 
L 213.58763 231.446026 
L 213.58763 230.921778 
L 214.027908 230.921778 
L 214.029316 229.873283 
L 217.259454 229.873283 
L 217.259454 228.824787 
L 222.098706 228.824787 
L 222.098706 228.30054 
L 229.415523 228.30054 
L 229.415523 227.776292 
L 233.299013 227.776292 
L 233.299013 227.252044 
L 234.420311 227.252044 
L 234.420311 226.727797 
L 333.168 226.727797 
L 333.168 226.727797 
" style="fill:none;stroke:#0000ff;stroke-linecap:square;stroke-width:1.5;"/>
   </g>
   <g id="line2d_49">
    <defs>
     <path d="M 0 -6 
L -1.347084 -1.854102 
L -5.706339 -1.854102 
L -2.179628 0.708204 
L -3.526712 4.854102 
L -0 2.291796 
L 3.526712 4.854102 
L 2.179628 0.708204 
L 5.706339 -1.854102 
L 1.347084 -1.854102 
z
" id="m6eb5d093fa" style="stroke:#0000ff;stroke-linejoin:bevel;stroke-width:1.5;"/>
    </defs>
    <g>
     <use style="fill-opacity:0;stroke:#0000ff;stroke-linejoin:bevel;stroke-width:1.5;" x="122.225468" xlink:href="#m6eb5d093fa" y="270.764605"/>
     <use style="fill-opacity:0;stroke:#0000ff;stroke-linejoin:bevel;stroke-width:1.5;" x="174.313576" xlink:href="#m6eb5d093fa" y="243.503724"/>
     <use style="fill-opacity:0;stroke:#0000ff;stroke-linejoin:bevel;stroke-width:1.5;" x="234.420311" xlink:href="#m6eb5d093fa" y="227.252044"/>
     <use style="fill-opacity:0;stroke:#0000ff;stroke-linejoin:bevel;stroke-width:1.5;" x="234.420311" xlink:href="#m6eb5d093fa" y="226.727797"/>
     <use style="fill-opacity:0;stroke:#0000ff;stroke-linejoin:bevel;stroke-width:1.5;" x="234.420311" xlink:href="#m6eb5d093fa" y="226.727797"/>
     <use style="fill-opacity:0;stroke:#0000ff;stroke-linejoin:bevel;stroke-width:1.5;" x="333.168" xlink:href="#m6eb5d093fa" y="226.727797"/>
    </g>
   </g>
   <g id="line2d_50">
    <path style="fill:none;stroke:#0000ff;stroke-linecap:square;stroke-width:1.5;"/>
    <g/>
   </g>
   <g id="line2d_51">
    <path clip-path="url(#pfdcc2db470)" d="M 186.941843 238.261246 
" style="fill:none;stroke:#0000ff;stroke-linecap:square;stroke-width:1.5;"/>
    <defs>
     <path d="M -12 12 
L 12 -12 
M -12 -12 
L 12 12 
" id="m4d131d0e41" style="stroke:#0000ff;"/>
    </defs>
    <g clip-path="url(#pfdcc2db470)">
     <use style="fill:#0000ff;stroke:#0000ff;" x="186.941843" xlink:href="#m4d131d0e41" y="238.261246"/>
    </g>
   </g>
   <g id="line2d_52">
    <defs>
     <path d="M 0 1.5 
C 0.397805 1.5 0.77937 1.341951 1.06066 1.06066 
C 1.341951 0.77937 1.5 0.397805 1.5 0 
C 1.5 -0.397805 1.341951 -0.77937 1.06066 -1.06066 
C 0.77937 -1.341951 0.397805 -1.5 0 -1.5 
C -0.397805 -1.5 -0.77937 -1.341951 -1.06066 -1.06066 
C -1.341951 -0.77937 -1.5 -0.397805 -1.5 0 
C -1.5 0.397805 -1.341951 0.77937 -1.06066 1.06066 
C -0.77937 1.341951 -0.397805 1.5 0 1.5 
z
" id="m489eee0894" style="stroke:#000000;"/>
    </defs>
    <g>
     <use style="stroke:#000000;" x="207.072152" xlink:href="#m489eee0894" y="247.697705"/>
     <use style="stroke:#000000;" x="207.072152" xlink:href="#m489eee0894" y="247.697705"/>
    </g>
   </g>
   <g id="line2d_53">
    <path d="M 16.541714 294.88 
L 16.541714 287.540532 
L 28.455965 287.540532 
L 28.455965 287.016284 
L 47.339607 287.016284 
L 47.339607 286.492036 
L 49.989246 286.492036 
L 49.989246 285.443541 
L 56.12 285.443541 
L 56.12 284.919293 
L 69.672503 284.919293 
L 69.672503 282.298055 
L 90.522701 282.298055 
L 90.522701 281.249559 
L 107.868452 281.249559 
L 107.868452 280.201064 
L 108.120612 280.201064 
L 108.120612 279.152568 
L 108.369127 279.152568 
L 108.369127 278.628321 
L 111.653105 278.628321 
L 111.653105 277.579825 
L 111.855724 277.579825 
L 111.855724 277.055578 
L 112.897778 277.055578 
L 112.897778 276.007082 
L 115.145539 276.007082 
L 115.145539 275.482834 
L 123.189569 275.482834 
L 123.189569 274.958587 
L 125.794504 274.958587 
L 125.794504 274.434339 
L 127.497741 274.434339 
L 127.497741 273.910091 
L 130.400328 273.910091 
L 130.400328 273.385844 
L 135.051654 273.385844 
L 135.051654 272.861596 
L 135.259374 272.861596 
L 135.259374 272.337348 
L 137.054885 272.337348 
L 137.054885 271.8131 
L 137.975251 271.8131 
L 137.975251 271.288853 
L 138.538863 271.288853 
L 138.538863 270.764605 
L 138.609803 270.764605 
L 138.609803 270.240357 
L 139.600142 270.240357 
L 139.600142 269.191862 
L 139.706738 269.191862 
L 139.706738 268.667614 
L 140.307161 268.667614 
L 140.307161 267.619119 
L 140.561812 267.619119 
L 140.561812 267.094871 
L 140.662626 267.094871 
L 140.662626 265.522128 
L 140.986245 265.522128 
L 140.986245 264.99788 
L 141.484501 264.99788 
L 141.484501 264.473632 
L 144.060402 264.473632 
L 144.060402 263.949385 
L 147.446737 263.949385 
L 147.446737 262.900889 
L 148.265202 262.900889 
L 148.265202 262.376641 
L 150.303181 262.376641 
L 150.303181 261.328146 
L 151.56111 261.328146 
L 151.56111 260.803898 
L 160.082296 260.803898 
L 160.082296 260.279651 
L 161.376107 260.279651 
L 161.376107 259.755403 
L 164.66925 259.755403 
L 164.66925 258.706907 
L 166.748614 258.706907 
L 166.748614 257.658412 
L 171.483538 257.658412 
L 171.483538 257.134164 
L 173.80958 257.134164 
L 173.80958 256.609917 
L 178.965937 256.609917 
L 178.965937 256.085669 
L 181.437188 256.085669 
L 181.437188 255.561421 
L 183.829412 255.561421 
L 183.829412 254.512926 
L 184.315019 254.512926 
L 184.315019 253.988678 
L 185.260996 253.988678 
L 185.260996 253.46443 
L 191.21189 253.46443 
L 191.21189 252.415935 
L 193.514742 252.415935 
L 193.514742 251.891687 
L 196.320231 251.891687 
L 196.320231 251.367439 
L 196.397466 251.367439 
L 196.397466 250.318944 
L 200.69375 250.318944 
L 200.69375 249.270448 
L 201.513389 249.270448 
L 201.513389 248.746201 
L 204.849314 248.746201 
L 204.849314 248.221953 
L 207.072152 248.221953 
L 207.072152 247.697705 
L 333.168 247.697705 
" style="fill:none;stroke:#000000;stroke-linecap:square;stroke-width:1.5;"/>
   </g>
   <g id="line2d_54">
    <defs>
     <path d="M 0 6 
C 1.591219 6 3.117479 5.367802 4.242641 4.242641 
C 5.367802 3.117479 6 1.591219 6 0 
C 6 -1.591219 5.367802 -3.117479 4.242641 -4.242641 
C 3.117479 -5.367802 1.591219 -6 0 -6 
C -1.591219 -6 -3.117479 -5.367802 -4.242641 -4.242641 
C -5.367802 -3.117479 -6 -1.591219 -6 0 
C -6 1.591219 -5.367802 3.117479 -4.242641 4.242641 
C -3.117479 5.367802 -1.591219 6 0 6 
z
" id="m6963f26105" style="stroke:#000000;stroke-width:1.5;"/>
    </defs>
    <g>
     <use style="fill-opacity:0;stroke:#000000;stroke-width:1.5;" x="90.522701" xlink:href="#m6963f26105" y="282.298055"/>
     <use style="fill-opacity:0;stroke:#000000;stroke-width:1.5;" x="178.965937" xlink:href="#m6963f26105" y="256.609917"/>
     <use style="fill-opacity:0;stroke:#000000;stroke-width:1.5;" x="207.072152" xlink:href="#m6963f26105" y="248.221953"/>
     <use style="fill-opacity:0;stroke:#000000;stroke-width:1.5;" x="207.072152" xlink:href="#m6963f26105" y="247.697705"/>
     <use style="fill-opacity:0;stroke:#000000;stroke-width:1.5;" x="207.072152" xlink:href="#m6963f26105" y="247.697705"/>
     <use style="fill-opacity:0;stroke:#000000;stroke-width:1.5;" x="333.168" xlink:href="#m6963f26105" y="247.697705"/>
    </g>
   </g>
   <g id="line2d_55">
    <path style="fill:none;stroke:#000000;stroke-linecap:square;stroke-width:1.5;"/>
    <g/>
   </g>
   <g id="line2d_56">
    <path clip-path="url(#pfdcc2db470)" d="M 175.027591 256.609917 
" style="fill:none;stroke:#000000;stroke-linecap:square;stroke-width:1.5;"/>
    <defs>
     <path d="M -12 12 
L 12 -12 
M -12 -12 
L 12 12 
" id="m768653f7e1" style="stroke:#000000;"/>
    </defs>
    <g clip-path="url(#pfdcc2db470)">
     <use style="stroke:#000000;" x="175.027591" xlink:href="#m768653f7e1" y="256.609917"/>
    </g>
   </g>
   <g id="line2d_57">
    <defs>
     <path d="M 0 1.5 
C 0.397805 1.5 0.77937 1.341951 1.06066 1.06066 
C 1.341951 0.77937 1.5 0.397805 1.5 0 
C 1.5 -0.397805 1.341951 -0.77937 1.06066 -1.06066 
C 0.77937 -1.341951 0.397805 -1.5 0 -1.5 
C -0.397805 -1.5 -0.77937 -1.341951 -1.06066 -1.06066 
C -1.341951 -0.77937 -1.5 -0.397805 -1.5 0 
C -1.5 0.397805 -1.341951 0.77937 -1.06066 1.06066 
C -0.77937 1.341951 -0.397805 1.5 0 1.5 
z
" id="m8deda2772e" style="stroke:#ff0000;"/>
    </defs>
    <g>
     <use style="fill:#ff0000;stroke:#ff0000;" x="221.520329" xlink:href="#m8deda2772e" y="263.425137"/>
     <use style="fill:#ff0000;stroke:#ff0000;" x="221.520329" xlink:href="#m8deda2772e" y="263.425137"/>
    </g>
   </g>
   <g id="line2d_58">
    <path d="M 4.627463 294.88 
L 4.627463 289.113275 
L 42.394746 289.113275 
L 42.394746 288.06478 
L 53.326522 288.06478 
L 53.326522 287.540532 
L 65.240773 287.540532 
L 65.240773 286.492036 
L 76.11297 286.492036 
L 76.11297 285.967789 
L 95.869318 285.967789 
L 95.869318 285.443541 
L 104.409787 285.443541 
L 104.409787 283.34655 
L 110.88904 283.34655 
L 110.88904 282.822302 
L 112.41717 282.822302 
L 112.41717 282.298055 
L 113.579218 282.298055 
L 113.579218 281.249559 
L 116.220179 281.249559 
L 116.220179 280.725312 
L 118.116911 280.725312 
L 118.116911 280.201064 
L 118.348567 280.201064 
L 118.348567 279.676816 
L 123.36232 279.676816 
L 123.36232 278.104073 
L 125.125128 278.104073 
L 125.125128 277.579825 
L 125.49347 277.579825 
L 125.49347 276.53133 
L 130.67209 276.53133 
L 130.67209 276.007082 
L 132.951858 276.007082 
L 132.951858 275.482834 
L 136.575537 275.482834 
L 136.575537 274.958587 
L 144.351785 274.958587 
L 144.351785 274.434339 
L 144.915234 274.434339 
L 144.915234 273.910091 
L 147.782136 273.910091 
L 147.782136 273.385844 
L 159.139417 273.385844 
L 159.139417 272.861596 
L 161.383636 272.861596 
L 161.383636 271.8131 
L 162.055325 271.8131 
L 162.055325 271.288853 
L 173.118177 271.288853 
L 173.118177 270.764605 
L 174.184488 270.764605 
L 174.184488 270.240357 
L 176.632396 270.240357 
L 176.632396 269.716109 
L 177.588026 269.716109 
L 177.588026 269.191862 
L 177.694725 269.191862 
L 177.694725 268.667614 
L 181.439532 268.667614 
L 181.439532 268.143366 
L 186.683381 268.143366 
L 186.683381 267.619119 
L 190.445079 267.619119 
L 190.445079 267.094871 
L 193.29803 267.094871 
L 193.29803 266.570623 
L 193.634768 266.570623 
L 193.634768 266.046375 
L 196.324175 266.046375 
L 196.324175 265.522128 
L 201.250418 265.522128 
L 201.250418 264.99788 
L 208.357182 264.99788 
L 208.357182 264.473632 
L 209.550963 264.473632 
L 209.550963 263.949385 
L 221.520329 263.949385 
L 221.520329 263.425137 
L 333.168 263.425137 
" style="fill:none;stroke:#ff0000;stroke-linecap:square;stroke-width:1.5;"/>
   </g>
   <g id="line2d_59">
    <defs>
     <path d="M -6 6 
L 6 6 
L 6 -6 
L -6 -6 
z
" id="m0333ab9ec5" style="stroke:#ff0000;stroke-linejoin:miter;stroke-width:1.5;"/>
    </defs>
    <g>
     <use style="fill-opacity:0;stroke:#ff0000;stroke-linejoin:miter;stroke-width:1.5;" x="76.11297" xlink:href="#m0333ab9ec5" y="286.492036"/>
     <use style="fill-opacity:0;stroke:#ff0000;stroke-linejoin:miter;stroke-width:1.5;" x="159.139417" xlink:href="#m0333ab9ec5" y="272.861596"/>
     <use style="fill-opacity:0;stroke:#ff0000;stroke-linejoin:miter;stroke-width:1.5;" x="221.520329" xlink:href="#m0333ab9ec5" y="263.949385"/>
     <use style="fill-opacity:0;stroke:#ff0000;stroke-linejoin:miter;stroke-width:1.5;" x="221.520329" xlink:href="#m0333ab9ec5" y="263.425137"/>
     <use style="fill-opacity:0;stroke:#ff0000;stroke-linejoin:miter;stroke-width:1.5;" x="221.520329" xlink:href="#m0333ab9ec5" y="263.425137"/>
     <use style="fill-opacity:0;stroke:#ff0000;stroke-linejoin:miter;stroke-width:1.5;" x="333.168" xlink:href="#m0333ab9ec5" y="263.425137"/>
    </g>
   </g>
   <g id="line2d_60">
    <path style="fill:none;stroke:#ff0000;stroke-linecap:square;stroke-width:1.5;"/>
    <g/>
   </g>
   <g id="line2d_61">
    <path clip-path="url(#pfdcc2db470)" d="M 163.11334 271.288853 
" style="fill:none;stroke:#ff0000;stroke-linecap:square;stroke-width:1.5;"/>
    <defs>
     <path d="M -12 12 
L 12 -12 
M -12 -12 
L 12 12 
" id="mc4693eba6c" style="stroke:#ff0000;"/>
    </defs>
    <g clip-path="url(#pfdcc2db470)">
     <use style="fill:#ff0000;stroke:#ff0000;" x="163.11334" xlink:href="#mc4693eba6c" y="271.288853"/>
    </g>
   </g>
   <g id="line2d_62">
    <defs>
     <path d="M 0 1.5 
C 0.397805 1.5 0.77937 1.341951 1.06066 1.06066 
C 1.341951 0.77937 1.5 0.397805 1.5 0 
C 1.5 -0.397805 1.341951 -0.77937 1.06066 -1.06066 
C 0.77937 -1.341951 0.397805 -1.5 0 -1.5 
C -0.397805 -1.5 -0.77937 -1.341951 -1.06066 -1.06066 
C -1.341951 -0.77937 -1.5 -0.397805 -1.5 0 
C -1.5 0.397805 -1.341951 0.77937 -1.06066 1.06066 
C -0.77937 1.341951 -0.397805 1.5 0 1.5 
z
" id="m8ca7d343b0" style="stroke:#bf00bf;"/>
    </defs>
    <g>
     <use style="fill:#bf00bf;stroke:#bf00bf;" x="204.908274" xlink:href="#m8ca7d343b0" y="273.910091"/>
     <use style="fill:#bf00bf;stroke:#bf00bf;" x="204.908274" xlink:href="#m8ca7d343b0" y="273.910091"/>
    </g>
   </g>
   <g id="line2d_63">
    <path d="M -1 287.016284 
L 64.198719 287.016284 
L 64.198719 286.492036 
L 84.124415 286.492036 
L 84.124415 285.967789 
L 86.846124 285.967789 
L 86.846124 285.443541 
L 88.293717 285.443541 
L 88.293717 284.395046 
L 91.646541 284.395046 
L 91.646541 283.870798 
L 104.148953 283.870798 
L 104.148953 283.34655 
L 106.038622 283.34655 
L 106.038622 282.822302 
L 114.33668 282.822302 
L 114.33668 282.298055 
L 119.157593 282.298055 
L 119.157593 281.773807 
L 120.447081 281.773807 
L 120.447081 280.725312 
L 122.997515 280.725312 
L 122.997515 280.201064 
L 140.335999 280.201064 
L 140.335999 279.152568 
L 160.846537 279.152568 
L 160.846537 277.579825 
L 168.605214 277.579825 
L 168.605214 276.53133 
L 184.028883 276.53133 
L 184.028883 275.482834 
L 193.553589 275.482834 
L 193.553589 274.958587 
L 204.135722 274.958587 
L 204.135722 274.434339 
L 204.908274 274.434339 
L 204.908274 273.910091 
L 333.168 273.910091 
" style="fill:none;stroke:#bf00bf;stroke-linecap:square;stroke-width:1.5;"/>
   </g>
   <g id="line2d_64">
    <defs>
     <path d="M -0 8.485281 
L 8.485281 0 
L 0 -8.485281 
L -8.485281 -0 
z
" id="m1d3aad63cf" style="stroke:#bf00bf;stroke-linejoin:miter;stroke-width:1.5;"/>
    </defs>
    <g>
     <use style="fill-opacity:0;stroke:#bf00bf;stroke-linejoin:miter;stroke-width:1.5;" x="122.997515" xlink:href="#m1d3aad63cf" y="280.201064"/>
     <use style="fill-opacity:0;stroke:#bf00bf;stroke-linejoin:miter;stroke-width:1.5;" x="193.553589" xlink:href="#m1d3aad63cf" y="274.958587"/>
     <use style="fill-opacity:0;stroke:#bf00bf;stroke-linejoin:miter;stroke-width:1.5;" x="204.908274" xlink:href="#m1d3aad63cf" y="274.434339"/>
     <use style="fill-opacity:0;stroke:#bf00bf;stroke-linejoin:miter;stroke-width:1.5;" x="204.908274" xlink:href="#m1d3aad63cf" y="273.910091"/>
     <use style="fill-opacity:0;stroke:#bf00bf;stroke-linejoin:miter;stroke-width:1.5;" x="333.168" xlink:href="#m1d3aad63cf" y="273.910091"/>
    </g>
   </g>
   <g id="line2d_65">
    <path style="fill:none;stroke:#bf00bf;stroke-linecap:square;stroke-width:1.5;"/>
    <g/>
   </g>
   <g id="line2d_66">
    <path clip-path="url(#pfdcc2db470)" d="M 151.199089 279.152568 
" style="fill:none;stroke:#bf00bf;stroke-linecap:square;stroke-width:1.5;"/>
    <defs>
     <path d="M -12 12 
L 12 -12 
M -12 -12 
L 12 12 
" id="md51ba36553" style="stroke:#bf00bf;"/>
    </defs>
    <g clip-path="url(#pfdcc2db470)">
     <use style="fill:#bf00bf;stroke:#bf00bf;" x="151.199089" xlink:href="#md51ba36553" y="279.152568"/>
    </g>
   </g>
   <g id="line2d_67">
    <path d="M 333.168 273.910091 
L 363.64328 289.532673 
" style="fill:none;stroke:#bf00bf;stroke-linecap:square;stroke-width:1.5;"/>
    <g>
     <use style="fill-opacity:0;stroke:#bf00bf;stroke-linejoin:miter;stroke-width:1.5;" x="333.168" xlink:href="#m1d3aad63cf" y="273.910091"/>
     <use style="fill-opacity:0;stroke:#bf00bf;stroke-linejoin:miter;stroke-width:1.5;" x="363.64328" xlink:href="#m1d3aad63cf" y="289.532673"/>
    </g>
   </g>
   <g id="line2d_68">
    <path d="M 333.168 263.425137 
L 363.64328 238.198337 
" style="fill:none;stroke:#ff0000;stroke-linecap:square;stroke-width:1.5;"/>
    <g>
     <use style="fill-opacity:0;stroke:#ff0000;stroke-linejoin:miter;stroke-width:1.5;" x="333.168" xlink:href="#m0333ab9ec5" y="263.425137"/>
     <use style="fill-opacity:0;stroke:#ff0000;stroke-linejoin:miter;stroke-width:1.5;" x="363.64328" xlink:href="#m0333ab9ec5" y="238.198337"/>
    </g>
   </g>
   <g id="line2d_69">
    <path d="M 333.168 247.697705 
L 363.64328 186.864 
" style="fill:none;stroke:#000000;stroke-linecap:square;stroke-width:1.5;"/>
    <g>
     <use style="fill-opacity:0;stroke:#000000;stroke-width:1.5;" x="333.168" xlink:href="#m6963f26105" y="247.697705"/>
     <use style="fill-opacity:0;stroke:#000000;stroke-width:1.5;" x="363.64328" xlink:href="#m6963f26105" y="186.864"/>
    </g>
   </g>
   <g id="line2d_70">
    <path d="M 333.168 226.727797 
L 363.64328 135.529663 
" style="fill:none;stroke:#0000ff;stroke-linecap:square;stroke-width:1.5;"/>
    <g>
     <use style="fill-opacity:0;stroke:#0000ff;stroke-linejoin:bevel;stroke-width:1.5;" x="333.168" xlink:href="#m6eb5d093fa" y="226.727797"/>
     <use style="fill-opacity:0;stroke:#0000ff;stroke-linejoin:bevel;stroke-width:1.5;" x="363.64328" xlink:href="#m6eb5d093fa" y="135.529663"/>
    </g>
   </g>
   <g id="line2d_71">
    <path d="M 333.168 174.303025 
L 363.64328 84.195327 
" style="fill:none;stroke:#008000;stroke-linecap:square;stroke-width:1.5;"/>
    <g>
     <use style="fill-opacity:0;stroke:#008000;stroke-linejoin:miter;stroke-width:1.5;" x="333.168" xlink:href="#m7a4638f0ba" y="174.303025"/>
     <use style="fill-opacity:0;stroke:#008000;stroke-linejoin:miter;stroke-width:1.5;" x="363.64328" xlink:href="#m7a4638f0ba" y="84.195327"/>
    </g>
   </g>
   <g id="line2d_72">
    <path d="M 333.168 163.81807 
L 363.64328 32.86099 
" style="fill:none;stroke:#00bfbf;stroke-linecap:square;stroke-width:1.5;"/>
    <g>
     <use style="fill-opacity:0;stroke:#00bfbf;stroke-width:1.5;" x="333.168" xlink:href="#m6d2acf7d24" y="163.81807"/>
     <use style="fill-opacity:0;stroke:#00bfbf;stroke-width:1.5;" x="363.64328" xlink:href="#m6d2acf7d24" y="32.86099"/>
    </g>
   </g>
   <g id="line2d_73">
    <path d="M 333.168 294.88 
L 333.168 27.513663 
" style="fill:none;stroke:#000000;stroke-linecap:square;stroke-width:1.5;"/>
   </g>
   <g id="patch_3">
    <path d="M 56.12 294.88 
L 56.12 24.84 
" style="fill:none;stroke:#000000;stroke-linecap:square;stroke-linejoin:miter;stroke-width:0.8;"/>
   </g>
   <g id="patch_4">
    <path d="M 333.168 294.88 
L 333.168 24.84 
" style="fill:none;stroke:#000000;stroke-linecap:square;stroke-linejoin:miter;stroke-width:0.8;"/>
   </g>
   <g id="patch_5">
    <path d="M 56.12 294.88 
L 333.168 294.88 
" style="fill:none;stroke:#000000;stroke-linecap:square;stroke-linejoin:miter;stroke-width:0.8;"/>
   </g>
   <g id="patch_6">
    <path d="M 56.12 24.84 
L 333.168 24.84 
" style="fill:none;stroke:#000000;stroke-linecap:square;stroke-linejoin:miter;stroke-width:0.8;"/>
   </g>
   <g id="text_13">
    <!-- 40-D -->
    <defs>
     <path d="M 19.671875 64.796875 
L 19.671875 8.109375 
L 31.59375 8.109375 
Q 46.6875 8.109375 53.6875 14.9375 
Q 60.6875 21.78125 60.6875 36.53125 
Q 60.6875 51.171875 53.6875 57.984375 
Q 46.6875 64.796875 31.59375 64.796875 
z
M 9.8125 72.90625 
L 30.078125 72.90625 
Q 51.265625 72.90625 61.171875 64.09375 
Q 71.09375 55.28125 71.09375 36.53125 
Q 71.09375 17.671875 61.125 8.828125 
Q 51.171875 0 30.078125 0 
L 9.8125 0 
z
" id="DejaVuSans-44"/>
    </defs>
    <g transform="translate(369.18424 294.223611)scale(0.17 -0.17)">
     <use xlink:href="#DejaVuSans-34"/>
     <use x="63.623047" xlink:href="#DejaVuSans-30"/>
     <use x="127.246094" xlink:href="#DejaVuSans-2d"/>
     <use x="163.330078" xlink:href="#DejaVuSans-44"/>
    </g>
   </g>
   <g id="text_14">
    <!-- 20-D -->
    <g transform="translate(369.18424 242.889274)scale(0.17 -0.17)">
     <use xlink:href="#DejaVuSans-32"/>
     <use x="63.623047" xlink:href="#DejaVuSans-30"/>
     <use x="127.246094" xlink:href="#DejaVuSans-2d"/>
     <use x="163.330078" xlink:href="#DejaVuSans-44"/>
    </g>
   </g>
   <g id="text_15">
    <!-- 10-D -->
    <g transform="translate(369.18424 191.554937)scale(0.17 -0.17)">
     <use xlink:href="#DejaVuSans-31"/>
     <use x="63.623047" xlink:href="#DejaVuSans-30"/>
     <use x="127.246094" xlink:href="#DejaVuSans-2d"/>
     <use x="163.330078" xlink:href="#DejaVuSans-44"/>
    </g>
   </g>
   <g id="text_16">
    <!-- 5-D -->
    <defs>
     <path d="M 10.796875 72.90625 
L 49.515625 72.90625 
L 49.515625 64.59375 
L 19.828125 64.59375 
L 19.828125 46.734375 
Q 21.96875 47.46875 24.109375 47.828125 
Q 26.265625 48.1875 28.421875 48.1875 
Q 40.625 48.1875 47.75 41.5 
Q 54.890625 34.8125 54.890625 23.390625 
Q 54.890625 11.625 47.5625 5.09375 
Q 40.234375 -1.421875 26.90625 -1.421875 
Q 22.3125 -1.421875 17.546875 -0.640625 
Q 12.796875 0.140625 7.71875 1.703125 
L 7.71875 11.625 
Q 12.109375 9.234375 16.796875 8.0625 
Q 21.484375 6.890625 26.703125 6.890625 
Q 35.15625 6.890625 40.078125 11.328125 
Q 45.015625 15.765625 45.015625 23.390625 
Q 45.015625 31 40.078125 35.4375 
Q 35.15625 39.890625 26.703125 39.890625 
Q 22.75 39.890625 18.8125 39.015625 
Q 14.890625 38.140625 10.796875 36.28125 
z
" id="DejaVuSans-35"/>
    </defs>
    <g transform="translate(369.18424 140.220601)scale(0.17 -0.17)">
     <use xlink:href="#DejaVuSans-35"/>
     <use x="63.623047" xlink:href="#DejaVuSans-2d"/>
     <use x="99.707031" xlink:href="#DejaVuSans-44"/>
    </g>
   </g>
   <g id="text_17">
    <!-- 3-D -->
    <defs>
     <path d="M 40.578125 39.3125 
Q 47.65625 37.796875 51.625 33 
Q 55.609375 28.21875 55.609375 21.1875 
Q 55.609375 10.40625 48.1875 4.484375 
Q 40.765625 -1.421875 27.09375 -1.421875 
Q 22.515625 -1.421875 17.65625 -0.515625 
Q 12.796875 0.390625 7.625 2.203125 
L 7.625 11.71875 
Q 11.71875 9.328125 16.59375 8.109375 
Q 21.484375 6.890625 26.8125 6.890625 
Q 36.078125 6.890625 40.9375 10.546875 
Q 45.796875 14.203125 45.796875 21.1875 
Q 45.796875 27.640625 41.28125 31.265625 
Q 36.765625 34.90625 28.71875 34.90625 
L 20.21875 34.90625 
L 20.21875 43.015625 
L 29.109375 43.015625 
Q 36.375 43.015625 40.234375 45.921875 
Q 44.09375 48.828125 44.09375 54.296875 
Q 44.09375 59.90625 40.109375 62.90625 
Q 36.140625 65.921875 28.71875 65.921875 
Q 24.65625 65.921875 20.015625 65.03125 
Q 15.375 64.15625 9.8125 62.3125 
L 9.8125 71.09375 
Q 15.4375 72.65625 20.34375 73.4375 
Q 25.25 74.21875 29.59375 74.21875 
Q 40.828125 74.21875 47.359375 69.109375 
Q 53.90625 64.015625 53.90625 55.328125 
Q 53.90625 49.265625 50.4375 45.09375 
Q 46.96875 40.921875 40.578125 39.3125 
z
" id="DejaVuSans-33"/>
    </defs>
    <g transform="translate(369.18424 88.886264)scale(0.17 -0.17)">
     <use xlink:href="#DejaVuSans-33"/>
     <use x="63.623047" xlink:href="#DejaVuSans-2d"/>
     <use x="99.707031" xlink:href="#DejaVuSans-44"/>
    </g>
   </g>
   <g id="text_18">
    <!-- 2-D -->
    <g transform="translate(369.18424 37.551928)scale(0.17 -0.17)">
     <use xlink:href="#DejaVuSans-32"/>
     <use x="63.623047" xlink:href="#DejaVuSans-2d"/>
     <use x="99.707031" xlink:href="#DejaVuSans-44"/>
    </g>
   </g>
   <g id="text_19">
    <!-- bbob f18 -->
    <defs>
     <path d="M 48.6875 27.296875 
Q 48.6875 37.203125 44.609375 42.84375 
Q 40.53125 48.484375 33.40625 48.484375 
Q 26.265625 48.484375 22.1875 42.84375 
Q 18.109375 37.203125 18.109375 27.296875 
Q 18.109375 17.390625 22.1875 11.75 
Q 26.265625 6.109375 33.40625 6.109375 
Q 40.53125 6.109375 44.609375 11.75 
Q 48.6875 17.390625 48.6875 27.296875 
z
M 18.109375 46.390625 
Q 20.953125 51.265625 25.265625 53.625 
Q 29.59375 56 35.59375 56 
Q 45.5625 56 51.78125 48.09375 
Q 58.015625 40.1875 58.015625 27.296875 
Q 58.015625 14.40625 51.78125 6.484375 
Q 45.5625 -1.421875 35.59375 -1.421875 
Q 29.59375 -1.421875 25.265625 0.953125 
Q 20.953125 3.328125 18.109375 8.203125 
L 18.109375 0 
L 9.078125 0 
L 9.078125 75.984375 
L 18.109375 75.984375 
z
" id="DejaVuSans-62"/>
    </defs>
    <g transform="translate(58.89048 35.290806)scale(0.102 -0.102)">
     <use xlink:href="#DejaVuSans-62"/>
     <use x="63.476562" xlink:href="#DejaVuSans-62"/>
     <use x="126.953125" xlink:href="#DejaVuSans-6f"/>
     <use x="188.134766" xlink:href="#DejaVuSans-62"/>
     <use x="251.611328" xlink:href="#DejaVuSans-20"/>
     <use x="283.398438" xlink:href="#DejaVuSans-66"/>
     <use x="318.603516" xlink:href="#DejaVuSans-31"/>
     <use x="382.226562" xlink:href="#DejaVuSans-38"/>
    </g>
    <!-- 51 targets: 100..1e-08 -->
    <defs>
     <path d="M 11.71875 12.40625 
L 22.015625 12.40625 
L 22.015625 0 
L 11.71875 0 
z
M 11.71875 51.703125 
L 22.015625 51.703125 
L 22.015625 39.3125 
L 11.71875 39.3125 
z
" id="DejaVuSans-3a"/>
    </defs>
    <g transform="translate(58.89048 46.712575)scale(0.102 -0.102)">
     <use xlink:href="#DejaVuSans-35"/>
     <use x="63.623047" xlink:href="#DejaVuSans-31"/>
     <use x="127.246094" xlink:href="#DejaVuSans-20"/>
     <use x="159.033203" xlink:href="#DejaVuSans-74"/>
     <use x="198.242188" xlink:href="#DejaVuSans-61"/>
     <use x="259.521484" xlink:href="#DejaVuSans-72"/>
     <use x="300.619141" xlink:href="#DejaVuSans-67"/>
     <use x="364.095703" xlink:href="#DejaVuSans-65"/>
     <use x="425.619141" xlink:href="#DejaVuSans-74"/>
     <use x="464.828125" xlink:href="#DejaVuSans-73"/>
     <use x="516.927734" xlink:href="#DejaVuSans-3a"/>
     <use x="550.619141" xlink:href="#DejaVuSans-20"/>
     <use x="582.40625" xlink:href="#DejaVuSans-31"/>
     <use x="646.029297" xlink:href="#DejaVuSans-30"/>
     <use x="709.652344" xlink:href="#DejaVuSans-30"/>
     <use x="773.275391" xlink:href="#DejaVuSans-2e"/>
     <use x="805.0625" xlink:href="#DejaVuSans-2e"/>
     <use x="836.849609" xlink:href="#DejaVuSans-31"/>
     <use x="900.472656" xlink:href="#DejaVuSans-65"/>
     <use x="961.996094" xlink:href="#DejaVuSans-2d"/>
     <use x="998.080078" xlink:href="#DejaVuSans-30"/>
     <use x="1061.703125" xlink:href="#DejaVuSans-38"/>
    </g>
    <!-- 15 instances -->
    <g transform="translate(58.89048 58.134344)scale(0.102 -0.102)">
     <use xlink:href="#DejaVuSans-31"/>
     <use x="63.623047" xlink:href="#DejaVuSans-35"/>
     <use x="127.246094" xlink:href="#DejaVuSans-20"/>
     <use x="159.033203" xlink:href="#DejaVuSans-69"/>
     <use x="186.816406" xlink:href="#DejaVuSans-6e"/>
     <use x="250.195312" xlink:href="#DejaVuSans-73"/>
     <use x="302.294922" xlink:href="#DejaVuSans-74"/>
     <use x="341.503906" xlink:href="#DejaVuSans-61"/>
     <use x="402.783203" xlink:href="#DejaVuSans-6e"/>
     <use x="466.162109" xlink:href="#DejaVuSans-63"/>
     <use x="521.142578" xlink:href="#DejaVuSans-65"/>
     <use x="582.666016" xlink:href="#DejaVuSans-73"/>
    </g>
   </g>
   <g id="text_20">
    <!-- v0.0.0 -->
    <g style="fill:#808080;" transform="translate(178.96275 290.099912)scale(0.1 -0.1)">
     <use xlink:href="#DejaVuSans-76"/>
     <use x="59.179688" xlink:href="#DejaVuSans-30"/>
     <use x="122.802734" xlink:href="#DejaVuSans-2e"/>
     <use x="154.589844" xlink:href="#DejaVuSans-30"/>
     <use x="218.212891" xlink:href="#DejaVuSans-2e"/>
     <use x="250" xlink:href="#DejaVuSans-30"/>
    </g>
   </g>
   <g id="text_21">
    <!-- 18 Schaffer F7, condition 1000 -->
    <defs>
     <path d="M 53.515625 70.515625 
L 53.515625 60.890625 
Q 47.90625 63.578125 42.921875 64.890625 
Q 37.9375 66.21875 33.296875 66.21875 
Q 25.25 66.21875 20.875 63.09375 
Q 16.5 59.96875 16.5 54.203125 
Q 16.5 49.359375 19.40625 46.890625 
Q 22.3125 44.4375 30.421875 42.921875 
L 36.375 41.703125 
Q 47.40625 39.59375 52.65625 34.296875 
Q 57.90625 29 57.90625 20.125 
Q 57.90625 9.515625 50.796875 4.046875 
Q 43.703125 -1.421875 29.984375 -1.421875 
Q 24.8125 -1.421875 18.96875 -0.25 
Q 13.140625 0.921875 6.890625 3.21875 
L 6.890625 13.375 
Q 12.890625 10.015625 18.65625 8.296875 
Q 24.421875 6.59375 29.984375 6.59375 
Q 38.421875 6.59375 43.015625 9.90625 
Q 47.609375 13.234375 47.609375 19.390625 
Q 47.609375 24.75 44.3125 27.78125 
Q 41.015625 30.8125 33.5 32.328125 
L 27.484375 33.5 
Q 16.453125 35.6875 11.515625 40.375 
Q 6.59375 45.0625 6.59375 53.421875 
Q 6.59375 63.09375 13.40625 68.65625 
Q 20.21875 74.21875 32.171875 74.21875 
Q 37.3125 74.21875 42.625 73.28125 
Q 47.953125 72.359375 53.515625 70.515625 
z
" id="DejaVuSans-53"/>
     <path d="M 54.890625 33.015625 
L 54.890625 0 
L 45.90625 0 
L 45.90625 32.71875 
Q 45.90625 40.484375 42.875 44.328125 
Q 39.84375 48.1875 33.796875 48.1875 
Q 26.515625 48.1875 22.3125 43.546875 
Q 18.109375 38.921875 18.109375 30.90625 
L 18.109375 0 
L 9.078125 0 
L 9.078125 75.984375 
L 18.109375 75.984375 
L 18.109375 46.1875 
Q 21.34375 51.125 25.703125 53.5625 
Q 30.078125 56 35.796875 56 
Q 45.21875 56 50.046875 50.171875 
Q 54.890625 44.34375 54.890625 33.015625 
z
" id="DejaVuSans-68"/>
     <path d="M 8.203125 72.90625 
L 55.078125 72.90625 
L 55.078125 68.703125 
L 28.609375 0 
L 18.3125 0 
L 43.21875 64.59375 
L 8.203125 64.59375 
z
" id="DejaVuSans-37"/>
    </defs>
    <g transform="translate(40.611187 18.84)scale(0.2 -0.2)">
     <use xlink:href="#DejaVuSans-31"/>
     <use x="63.623047" xlink:href="#DejaVuSans-38"/>
     <use x="127.246094" xlink:href="#DejaVuSans-20"/>
     <use x="159.033203" xlink:href="#DejaVuSans-53"/>
     <use x="222.509766" xlink:href="#DejaVuSans-63"/>
     <use x="277.490234" xlink:href="#DejaVuSans-68"/>
     <use x="340.869141" xlink:href="#DejaVuSans-61"/>
     <use x="402.148438" xlink:href="#DejaVuSans-66"/>
     <use x="437.353516" xlink:href="#DejaVuSans-66"/>
     <use x="472.558594" xlink:href="#DejaVuSans-65"/>
     <use x="534.082031" xlink:href="#DejaVuSans-72"/>
     <use x="575.195312" xlink:href="#DejaVuSans-20"/>
     <use x="606.982422" xlink:href="#DejaVuSans-46"/>
     <use x="664.501953" xlink:href="#DejaVuSans-37"/>
     <use x="728.125" xlink:href="#DejaVuSans-2c"/>
     <use x="759.912109" xlink:href="#DejaVuSans-20"/>
     <use x="791.699219" xlink:href="#DejaVuSans-63"/>
     <use x="846.679688" xlink:href="#DejaVuSans-6f"/>
     <use x="907.861328" xlink:href="#DejaVuSans-6e"/>
     <use x="971.240234" xlink:href="#DejaVuSans-64"/>
     <use x="1034.716797" xlink:href="#DejaVuSans-69"/>
     <use x="1062.5" xlink:href="#DejaVuSans-74"/>
     <use x="1101.708984" xlink:href="#DejaVuSans-69"/>
     <use x="1129.492188" xlink:href="#DejaVuSans-6f"/>
     <use x="1190.673828" xlink:href="#DejaVuSans-6e"/>
     <use x="1254.052734" xlink:href="#DejaVuSans-20"/>
     <use x="1285.839844" xlink:href="#DejaVuSans-31"/>
     <use x="1349.462891" xlink:href="#DejaVuSans-30"/>
     <use x="1413.085938" xlink:href="#DejaVuSans-30"/>
     <use x="1476.708984" xlink:href="#DejaVuSans-30"/>
    </g>
   </g>
  </g>
 </g>
 <defs>
  <clipPath id="pfdcc2db470">
   <rect height="270.04" width="277.048" x="56.12" y="24.84"/>
  </clipPath>
 </defs>
</svg>
