<?xml version="1.0" encoding="utf-8" standalone="no"?>
<!DOCTYPE svg PUBLIC "-//W3C//DTD SVG 1.1//EN"
  "http://www.w3.org/Graphics/SVG/1.1/DTD/svg11.dtd">
<!-- Created with matplotlib (http://matplotlib.org/) -->
<svg height="345.6pt" version="1.1" viewBox="0 0 460.8 345.6" width="460.8pt" xmlns="http://www.w3.org/2000/svg" xmlns:xlink="http://www.w3.org/1999/xlink">
 <defs>
  <style type="text/css">
*{stroke-linecap:butt;stroke-linejoin:round;}
  </style>
 </defs>
 <g id="figure_1">
  <g id="patch_1">
   <path d="M 0 345.6 
L 460.8 345.6 
L 460.8 0 
L 0 0 
z
" style="fill:#ffffff;"/>
  </g>
  <g id="axes_1">
   <g id="patch_2">
    <path d="M 56.12 294.88 
L 333.168 294.88 
L 333.168 6.845228 
L 56.12 6.845228 
z
" style="fill:#ffffff;"/>
   </g>
   <g id="matplotlib.axis_1">
    <g id="xtick_1">
     <g id="line2d_1">
      <path clip-path="url(#pd61a84554e)" d="M 56.12 294.88 
L 56.12 6.845228 
" style="fill:none;stroke:#b0b0b0;stroke-linecap:square;stroke-width:0.8;"/>
     </g>
     <g id="line2d_2">
      <defs>
       <path d="M 0 0 
L 0 3.5 
" id="mc4517caf8b" style="stroke:#000000;stroke-width:0.8;"/>
      </defs>
      <g>
       <use style="stroke:#000000;stroke-width:0.8;" x="56.12" xlink:href="#mc4517caf8b" y="294.88"/>
      </g>
     </g>
     <g id="text_1">
      <!-- 0 -->
      <defs>
       <path d="M 31.78125 66.40625 
Q 24.171875 66.40625 20.328125 58.90625 
Q 16.5 51.421875 16.5 36.375 
Q 16.5 21.390625 20.328125 13.890625 
Q 24.171875 6.390625 31.78125 6.390625 
Q 39.453125 6.390625 43.28125 13.890625 
Q 47.125 21.390625 47.125 36.375 
Q 47.125 51.421875 43.28125 58.90625 
Q 39.453125 66.40625 31.78125 66.40625 
z
M 31.78125 74.21875 
Q 44.046875 74.21875 50.515625 64.515625 
Q 56.984375 54.828125 56.984375 36.375 
Q 56.984375 17.96875 50.515625 8.265625 
Q 44.046875 -1.421875 31.78125 -1.421875 
Q 19.53125 -1.421875 13.0625 8.265625 
Q 6.59375 17.96875 6.59375 36.375 
Q 6.59375 54.828125 13.0625 64.515625 
Q 19.53125 74.21875 31.78125 74.21875 
z
" id="DejaVuSans-30"/>
      </defs>
      <g transform="translate(49.7575 317.076875)scale(0.2 -0.2)">
       <use xlink:href="#DejaVuSans-30"/>
      </g>
     </g>
    </g>
    <g id="xtick_2">
     <g id="line2d_3">
      <path clip-path="url(#pd61a84554e)" d="M 135.276571 294.88 
L 135.276571 6.845228 
" style="fill:none;stroke:#b0b0b0;stroke-linecap:square;stroke-width:0.8;"/>
     </g>
     <g id="line2d_4">
      <g>
       <use style="stroke:#000000;stroke-width:0.8;" x="135.276571" xlink:href="#mc4517caf8b" y="294.88"/>
      </g>
     </g>
     <g id="text_2">
      <!-- 2 -->
      <defs>
       <path d="M 19.1875 8.296875 
L 53.609375 8.296875 
L 53.609375 0 
L 7.328125 0 
L 7.328125 8.296875 
Q 12.9375 14.109375 22.625 23.890625 
Q 32.328125 33.6875 34.8125 36.53125 
Q 39.546875 41.84375 41.421875 45.53125 
Q 43.3125 49.21875 43.3125 52.78125 
Q 43.3125 58.59375 39.234375 62.25 
Q 35.15625 65.921875 28.609375 65.921875 
Q 23.96875 65.921875 18.8125 64.3125 
Q 13.671875 62.703125 7.8125 59.421875 
L 7.8125 69.390625 
Q 13.765625 71.78125 18.9375 73 
Q 24.125 74.21875 28.421875 74.21875 
Q 39.75 74.21875 46.484375 68.546875 
Q 53.21875 62.890625 53.21875 53.421875 
Q 53.21875 48.921875 51.53125 44.890625 
Q 49.859375 40.875 45.40625 35.40625 
Q 44.1875 33.984375 37.640625 27.21875 
Q 31.109375 20.453125 19.1875 8.296875 
z
" id="DejaVuSans-32"/>
      </defs>
      <g transform="translate(128.914071 317.076875)scale(0.2 -0.2)">
       <use xlink:href="#DejaVuSans-32"/>
      </g>
     </g>
    </g>
    <g id="xtick_3">
     <g id="line2d_5">
      <path clip-path="url(#pd61a84554e)" d="M 214.433143 294.88 
L 214.433143 6.845228 
" style="fill:none;stroke:#b0b0b0;stroke-linecap:square;stroke-width:0.8;"/>
     </g>
     <g id="line2d_6">
      <g>
       <use style="stroke:#000000;stroke-width:0.8;" x="214.433143" xlink:href="#mc4517caf8b" y="294.88"/>
      </g>
     </g>
     <g id="text_3">
      <!-- 4 -->
      <defs>
       <path d="M 37.796875 64.3125 
L 12.890625 25.390625 
L 37.796875 25.390625 
z
M 35.203125 72.90625 
L 47.609375 72.90625 
L 47.609375 25.390625 
L 58.015625 25.390625 
L 58.015625 17.1875 
L 47.609375 17.1875 
L 47.609375 0 
L 37.796875 0 
L 37.796875 17.1875 
L 4.890625 17.1875 
L 4.890625 26.703125 
z
" id="DejaVuSans-34"/>
      </defs>
      <g transform="translate(208.070643 317.076875)scale(0.2 -0.2)">
       <use xlink:href="#DejaVuSans-34"/>
      </g>
     </g>
    </g>
    <g id="xtick_4">
     <g id="line2d_7">
      <path clip-path="url(#pd61a84554e)" d="M 293.589714 294.88 
L 293.589714 6.845228 
" style="fill:none;stroke:#b0b0b0;stroke-linecap:square;stroke-width:0.8;"/>
     </g>
     <g id="line2d_8">
      <g>
       <use style="stroke:#000000;stroke-width:0.8;" x="293.589714" xlink:href="#mc4517caf8b" y="294.88"/>
      </g>
     </g>
     <g id="text_4">
      <!-- 6 -->
      <defs>
       <path d="M 33.015625 40.375 
Q 26.375 40.375 22.484375 35.828125 
Q 18.609375 31.296875 18.609375 23.390625 
Q 18.609375 15.53125 22.484375 10.953125 
Q 26.375 6.390625 33.015625 6.390625 
Q 39.65625 6.390625 43.53125 10.953125 
Q 47.40625 15.53125 47.40625 23.390625 
Q 47.40625 31.296875 43.53125 35.828125 
Q 39.65625 40.375 33.015625 40.375 
z
M 52.59375 71.296875 
L 52.59375 62.3125 
Q 48.875 64.0625 45.09375 64.984375 
Q 41.3125 65.921875 37.59375 65.921875 
Q 27.828125 65.921875 22.671875 59.328125 
Q 17.53125 52.734375 16.796875 39.40625 
Q 19.671875 43.65625 24.015625 45.921875 
Q 28.375 48.1875 33.59375 48.1875 
Q 44.578125 48.1875 50.953125 41.515625 
Q 57.328125 34.859375 57.328125 23.390625 
Q 57.328125 12.15625 50.6875 5.359375 
Q 44.046875 -1.421875 33.015625 -1.421875 
Q 20.359375 -1.421875 13.671875 8.265625 
Q 6.984375 17.96875 6.984375 36.375 
Q 6.984375 53.65625 15.1875 63.9375 
Q 23.390625 74.21875 37.203125 74.21875 
Q 40.921875 74.21875 44.703125 73.484375 
Q 48.484375 72.75 52.59375 71.296875 
z
" id="DejaVuSans-36"/>
      </defs>
      <g transform="translate(287.227214 317.076875)scale(0.2 -0.2)">
       <use xlink:href="#DejaVuSans-36"/>
      </g>
     </g>
    </g>
    <g id="xtick_5">
     <g id="line2d_9">
      <path clip-path="url(#pd61a84554e)" d="M 56.12 294.88 
L 56.12 6.845228 
" style="fill:none;stroke:#b0b0b0;stroke-linecap:square;stroke-width:0.8;"/>
     </g>
     <g id="line2d_10">
      <defs>
       <path d="M 0 0 
L 0 2 
" id="m0d96be65e7" style="stroke:#000000;stroke-width:0.6;"/>
      </defs>
      <g>
       <use style="stroke:#000000;stroke-width:0.6;" x="56.12" xlink:href="#m0d96be65e7" y="294.88"/>
      </g>
     </g>
    </g>
    <g id="xtick_6">
     <g id="line2d_11">
      <path clip-path="url(#pd61a84554e)" d="M 95.698286 294.88 
L 95.698286 6.845228 
" style="fill:none;stroke:#b0b0b0;stroke-linecap:square;stroke-width:0.8;"/>
     </g>
     <g id="line2d_12">
      <g>
       <use style="stroke:#000000;stroke-width:0.6;" x="95.698286" xlink:href="#m0d96be65e7" y="294.88"/>
      </g>
     </g>
    </g>
    <g id="xtick_7">
     <g id="line2d_13">
      <path clip-path="url(#pd61a84554e)" d="M 135.276571 294.88 
L 135.276571 6.845228 
" style="fill:none;stroke:#b0b0b0;stroke-linecap:square;stroke-width:0.8;"/>
     </g>
     <g id="line2d_14">
      <g>
       <use style="stroke:#000000;stroke-width:0.6;" x="135.276571" xlink:href="#m0d96be65e7" y="294.88"/>
      </g>
     </g>
    </g>
    <g id="xtick_8">
     <g id="line2d_15">
      <path clip-path="url(#pd61a84554e)" d="M 174.854857 294.88 
L 174.854857 6.845228 
" style="fill:none;stroke:#b0b0b0;stroke-linecap:square;stroke-width:0.8;"/>
     </g>
     <g id="line2d_16">
      <g>
       <use style="stroke:#000000;stroke-width:0.6;" x="174.854857" xlink:href="#m0d96be65e7" y="294.88"/>
      </g>
     </g>
    </g>
    <g id="xtick_9">
     <g id="line2d_17">
      <path clip-path="url(#pd61a84554e)" d="M 214.433143 294.88 
L 214.433143 6.845228 
" style="fill:none;stroke:#b0b0b0;stroke-linecap:square;stroke-width:0.8;"/>
     </g>
     <g id="line2d_18">
      <g>
       <use style="stroke:#000000;stroke-width:0.6;" x="214.433143" xlink:href="#m0d96be65e7" y="294.88"/>
      </g>
     </g>
    </g>
    <g id="xtick_10">
     <g id="line2d_19">
      <path clip-path="url(#pd61a84554e)" d="M 254.011429 294.88 
L 254.011429 6.845228 
" style="fill:none;stroke:#b0b0b0;stroke-linecap:square;stroke-width:0.8;"/>
     </g>
     <g id="line2d_20">
      <g>
       <use style="stroke:#000000;stroke-width:0.6;" x="254.011429" xlink:href="#m0d96be65e7" y="294.88"/>
      </g>
     </g>
    </g>
    <g id="xtick_11">
     <g id="line2d_21">
      <path clip-path="url(#pd61a84554e)" d="M 293.589714 294.88 
L 293.589714 6.845228 
" style="fill:none;stroke:#b0b0b0;stroke-linecap:square;stroke-width:0.8;"/>
     </g>
     <g id="line2d_22">
      <g>
       <use style="stroke:#000000;stroke-width:0.6;" x="293.589714" xlink:href="#m0d96be65e7" y="294.88"/>
      </g>
     </g>
    </g>
    <g id="xtick_12">
     <g id="line2d_23">
      <path clip-path="url(#pd61a84554e)" d="M 333.168 294.88 
L 333.168 6.845228 
" style="fill:none;stroke:#b0b0b0;stroke-linecap:square;stroke-width:0.8;"/>
     </g>
     <g id="line2d_24">
      <g>
       <use style="stroke:#000000;stroke-width:0.6;" x="333.168" xlink:href="#m0d96be65e7" y="294.88"/>
      </g>
     </g>
    </g>
    <g id="text_5">
     <!-- log10(# f-evals / dimension) -->
     <defs>
      <path d="M 9.421875 75.984375 
L 18.40625 75.984375 
L 18.40625 0 
L 9.421875 0 
z
" id="DejaVuSans-6c"/>
      <path d="M 30.609375 48.390625 
Q 23.390625 48.390625 19.1875 42.75 
Q 14.984375 37.109375 14.984375 27.296875 
Q 14.984375 17.484375 19.15625 11.84375 
Q 23.34375 6.203125 30.609375 6.203125 
Q 37.796875 6.203125 41.984375 11.859375 
Q 46.1875 17.53125 46.1875 27.296875 
Q 46.1875 37.015625 41.984375 42.703125 
Q 37.796875 48.390625 30.609375 48.390625 
z
M 30.609375 56 
Q 42.328125 56 49.015625 48.375 
Q 55.71875 40.765625 55.71875 27.296875 
Q 55.71875 13.875 49.015625 6.21875 
Q 42.328125 -1.421875 30.609375 -1.421875 
Q 18.84375 -1.421875 12.171875 6.21875 
Q 5.515625 13.875 5.515625 27.296875 
Q 5.515625 40.765625 12.171875 48.375 
Q 18.84375 56 30.609375 56 
z
" id="DejaVuSans-6f"/>
      <path d="M 45.40625 27.984375 
Q 45.40625 37.75 41.375 43.109375 
Q 37.359375 48.484375 30.078125 48.484375 
Q 22.859375 48.484375 18.828125 43.109375 
Q 14.796875 37.75 14.796875 27.984375 
Q 14.796875 18.265625 18.828125 12.890625 
Q 22.859375 7.515625 30.078125 7.515625 
Q 37.359375 7.515625 41.375 12.890625 
Q 45.40625 18.265625 45.40625 27.984375 
z
M 54.390625 6.78125 
Q 54.390625 -7.171875 48.1875 -13.984375 
Q 42 -20.796875 29.203125 -20.796875 
Q 24.46875 -20.796875 20.265625 -20.09375 
Q 16.0625 -19.390625 12.109375 -17.921875 
L 12.109375 -9.1875 
Q 16.0625 -11.328125 19.921875 -12.34375 
Q 23.78125 -13.375 27.78125 -13.375 
Q 36.625 -13.375 41.015625 -8.765625 
Q 45.40625 -4.15625 45.40625 5.171875 
L 45.40625 9.625 
Q 42.625 4.78125 38.28125 2.390625 
Q 33.9375 0 27.875 0 
Q 17.828125 0 11.671875 7.65625 
Q 5.515625 15.328125 5.515625 27.984375 
Q 5.515625 40.671875 11.671875 48.328125 
Q 17.828125 56 27.875 56 
Q 33.9375 56 38.28125 53.609375 
Q 42.625 51.21875 45.40625 46.390625 
L 45.40625 54.6875 
L 54.390625 54.6875 
z
" id="DejaVuSans-67"/>
      <path d="M 12.40625 8.296875 
L 28.515625 8.296875 
L 28.515625 63.921875 
L 10.984375 60.40625 
L 10.984375 69.390625 
L 28.421875 72.90625 
L 38.28125 72.90625 
L 38.28125 8.296875 
L 54.390625 8.296875 
L 54.390625 0 
L 12.40625 0 
z
" id="DejaVuSans-31"/>
      <path d="M 31 75.875 
Q 24.46875 64.65625 21.28125 53.65625 
Q 18.109375 42.671875 18.109375 31.390625 
Q 18.109375 20.125 21.3125 9.0625 
Q 24.515625 -2 31 -13.1875 
L 23.1875 -13.1875 
Q 15.875 -1.703125 12.234375 9.375 
Q 8.59375 20.453125 8.59375 31.390625 
Q 8.59375 42.28125 12.203125 53.3125 
Q 15.828125 64.359375 23.1875 75.875 
z
" id="DejaVuSans-28"/>
      <path d="M 51.125 44 
L 36.921875 44 
L 32.8125 27.6875 
L 47.125 27.6875 
z
M 43.796875 71.78125 
L 38.71875 51.515625 
L 52.984375 51.515625 
L 58.109375 71.78125 
L 65.921875 71.78125 
L 60.890625 51.515625 
L 76.125 51.515625 
L 76.125 44 
L 58.984375 44 
L 54.984375 27.6875 
L 70.515625 27.6875 
L 70.515625 20.21875 
L 53.078125 20.21875 
L 48 0 
L 40.1875 0 
L 45.21875 20.21875 
L 30.90625 20.21875 
L 25.875 0 
L 18.015625 0 
L 23.09375 20.21875 
L 7.71875 20.21875 
L 7.71875 27.6875 
L 24.90625 27.6875 
L 29 44 
L 13.28125 44 
L 13.28125 51.515625 
L 30.90625 51.515625 
L 35.890625 71.78125 
z
" id="DejaVuSans-23"/>
      <path id="DejaVuSans-20"/>
      <path d="M 37.109375 75.984375 
L 37.109375 68.5 
L 28.515625 68.5 
Q 23.6875 68.5 21.796875 66.546875 
Q 19.921875 64.59375 19.921875 59.515625 
L 19.921875 54.6875 
L 34.71875 54.6875 
L 34.71875 47.703125 
L 19.921875 47.703125 
L 19.921875 0 
L 10.890625 0 
L 10.890625 47.703125 
L 2.296875 47.703125 
L 2.296875 54.6875 
L 10.890625 54.6875 
L 10.890625 58.5 
Q 10.890625 67.625 15.140625 71.796875 
Q 19.390625 75.984375 28.609375 75.984375 
z
" id="DejaVuSans-66"/>
      <path d="M 4.890625 31.390625 
L 31.203125 31.390625 
L 31.203125 23.390625 
L 4.890625 23.390625 
z
" id="DejaVuSans-2d"/>
      <path d="M 56.203125 29.59375 
L 56.203125 25.203125 
L 14.890625 25.203125 
Q 15.484375 15.921875 20.484375 11.0625 
Q 25.484375 6.203125 34.421875 6.203125 
Q 39.59375 6.203125 44.453125 7.46875 
Q 49.3125 8.734375 54.109375 11.28125 
L 54.109375 2.78125 
Q 49.265625 0.734375 44.1875 -0.34375 
Q 39.109375 -1.421875 33.890625 -1.421875 
Q 20.796875 -1.421875 13.15625 6.1875 
Q 5.515625 13.8125 5.515625 26.8125 
Q 5.515625 40.234375 12.765625 48.109375 
Q 20.015625 56 32.328125 56 
Q 43.359375 56 49.78125 48.890625 
Q 56.203125 41.796875 56.203125 29.59375 
z
M 47.21875 32.234375 
Q 47.125 39.59375 43.09375 43.984375 
Q 39.0625 48.390625 32.421875 48.390625 
Q 24.90625 48.390625 20.390625 44.140625 
Q 15.875 39.890625 15.1875 32.171875 
z
" id="DejaVuSans-65"/>
      <path d="M 2.984375 54.6875 
L 12.5 54.6875 
L 29.59375 8.796875 
L 46.6875 54.6875 
L 56.203125 54.6875 
L 35.6875 0 
L 23.484375 0 
z
" id="DejaVuSans-76"/>
      <path d="M 34.28125 27.484375 
Q 23.390625 27.484375 19.1875 25 
Q 14.984375 22.515625 14.984375 16.5 
Q 14.984375 11.71875 18.140625 8.90625 
Q 21.296875 6.109375 26.703125 6.109375 
Q 34.1875 6.109375 38.703125 11.40625 
Q 43.21875 16.703125 43.21875 25.484375 
L 43.21875 27.484375 
z
M 52.203125 31.203125 
L 52.203125 0 
L 43.21875 0 
L 43.21875 8.296875 
Q 40.140625 3.328125 35.546875 0.953125 
Q 30.953125 -1.421875 24.3125 -1.421875 
Q 15.921875 -1.421875 10.953125 3.296875 
Q 6 8.015625 6 15.921875 
Q 6 25.140625 12.171875 29.828125 
Q 18.359375 34.515625 30.609375 34.515625 
L 43.21875 34.515625 
L 43.21875 35.40625 
Q 43.21875 41.609375 39.140625 45 
Q 35.0625 48.390625 27.6875 48.390625 
Q 23 48.390625 18.546875 47.265625 
Q 14.109375 46.140625 10.015625 43.890625 
L 10.015625 52.203125 
Q 14.9375 54.109375 19.578125 55.046875 
Q 24.21875 56 28.609375 56 
Q 40.484375 56 46.34375 49.84375 
Q 52.203125 43.703125 52.203125 31.203125 
z
" id="DejaVuSans-61"/>
      <path d="M 44.28125 53.078125 
L 44.28125 44.578125 
Q 40.484375 46.53125 36.375 47.5 
Q 32.28125 48.484375 27.875 48.484375 
Q 21.1875 48.484375 17.84375 46.4375 
Q 14.5 44.390625 14.5 40.28125 
Q 14.5 37.15625 16.890625 35.375 
Q 19.28125 33.59375 26.515625 31.984375 
L 29.59375 31.296875 
Q 39.15625 29.25 43.1875 25.515625 
Q 47.21875 21.78125 47.21875 15.09375 
Q 47.21875 7.46875 41.1875 3.015625 
Q 35.15625 -1.421875 24.609375 -1.421875 
Q 20.21875 -1.421875 15.453125 -0.5625 
Q 10.6875 0.296875 5.421875 2 
L 5.421875 11.28125 
Q 10.40625 8.6875 15.234375 7.390625 
Q 20.0625 6.109375 24.8125 6.109375 
Q 31.15625 6.109375 34.5625 8.28125 
Q 37.984375 10.453125 37.984375 14.40625 
Q 37.984375 18.0625 35.515625 20.015625 
Q 33.0625 21.96875 24.703125 23.78125 
L 21.578125 24.515625 
Q 13.234375 26.265625 9.515625 29.90625 
Q 5.8125 33.546875 5.8125 39.890625 
Q 5.8125 47.609375 11.28125 51.796875 
Q 16.75 56 26.8125 56 
Q 31.78125 56 36.171875 55.265625 
Q 40.578125 54.546875 44.28125 53.078125 
z
" id="DejaVuSans-73"/>
      <path d="M 25.390625 72.90625 
L 33.6875 72.90625 
L 8.296875 -9.28125 
L 0 -9.28125 
z
" id="DejaVuSans-2f"/>
      <path d="M 45.40625 46.390625 
L 45.40625 75.984375 
L 54.390625 75.984375 
L 54.390625 0 
L 45.40625 0 
L 45.40625 8.203125 
Q 42.578125 3.328125 38.25 0.953125 
Q 33.9375 -1.421875 27.875 -1.421875 
Q 17.96875 -1.421875 11.734375 6.484375 
Q 5.515625 14.40625 5.515625 27.296875 
Q 5.515625 40.1875 11.734375 48.09375 
Q 17.96875 56 27.875 56 
Q 33.9375 56 38.25 53.625 
Q 42.578125 51.265625 45.40625 46.390625 
z
M 14.796875 27.296875 
Q 14.796875 17.390625 18.875 11.75 
Q 22.953125 6.109375 30.078125 6.109375 
Q 37.203125 6.109375 41.296875 11.75 
Q 45.40625 17.390625 45.40625 27.296875 
Q 45.40625 37.203125 41.296875 42.84375 
Q 37.203125 48.484375 30.078125 48.484375 
Q 22.953125 48.484375 18.875 42.84375 
Q 14.796875 37.203125 14.796875 27.296875 
z
" id="DejaVuSans-64"/>
      <path d="M 9.421875 54.6875 
L 18.40625 54.6875 
L 18.40625 0 
L 9.421875 0 
z
M 9.421875 75.984375 
L 18.40625 75.984375 
L 18.40625 64.59375 
L 9.421875 64.59375 
z
" id="DejaVuSans-69"/>
      <path d="M 52 44.1875 
Q 55.375 50.25 60.0625 53.125 
Q 64.75 56 71.09375 56 
Q 79.640625 56 84.28125 50.015625 
Q 88.921875 44.046875 88.921875 33.015625 
L 88.921875 0 
L 79.890625 0 
L 79.890625 32.71875 
Q 79.890625 40.578125 77.09375 44.375 
Q 74.3125 48.1875 68.609375 48.1875 
Q 61.625 48.1875 57.5625 43.546875 
Q 53.515625 38.921875 53.515625 30.90625 
L 53.515625 0 
L 44.484375 0 
L 44.484375 32.71875 
Q 44.484375 40.625 41.703125 44.40625 
Q 38.921875 48.1875 33.109375 48.1875 
Q 26.21875 48.1875 22.15625 43.53125 
Q 18.109375 38.875 18.109375 30.90625 
L 18.109375 0 
L 9.078125 0 
L 9.078125 54.6875 
L 18.109375 54.6875 
L 18.109375 46.1875 
Q 21.1875 51.21875 25.484375 53.609375 
Q 29.78125 56 35.6875 56 
Q 41.65625 56 45.828125 52.96875 
Q 50 49.953125 52 44.1875 
z
" id="DejaVuSans-6d"/>
      <path d="M 54.890625 33.015625 
L 54.890625 0 
L 45.90625 0 
L 45.90625 32.71875 
Q 45.90625 40.484375 42.875 44.328125 
Q 39.84375 48.1875 33.796875 48.1875 
Q 26.515625 48.1875 22.3125 43.546875 
Q 18.109375 38.921875 18.109375 30.90625 
L 18.109375 0 
L 9.078125 0 
L 9.078125 54.6875 
L 18.109375 54.6875 
L 18.109375 46.1875 
Q 21.34375 51.125 25.703125 53.5625 
Q 30.078125 56 35.796875 56 
Q 45.21875 56 50.046875 50.171875 
Q 54.890625 44.34375 54.890625 33.015625 
z
" id="DejaVuSans-6e"/>
      <path d="M 8.015625 75.875 
L 15.828125 75.875 
Q 23.140625 64.359375 26.78125 53.3125 
Q 30.421875 42.28125 30.421875 31.390625 
Q 30.421875 20.453125 26.78125 9.375 
Q 23.140625 -1.703125 15.828125 -13.1875 
L 8.015625 -13.1875 
Q 14.5 -2 17.703125 9.0625 
Q 20.90625 20.125 20.90625 31.390625 
Q 20.90625 42.671875 17.703125 53.65625 
Q 14.5 64.65625 8.015625 75.875 
z
" id="DejaVuSans-29"/>
     </defs>
     <g transform="translate(73.803219 338.153594)scale(0.17 -0.17)">
      <use xlink:href="#DejaVuSans-6c"/>
      <use x="27.783203" xlink:href="#DejaVuSans-6f"/>
      <use x="88.964844" xlink:href="#DejaVuSans-67"/>
      <use x="152.441406" xlink:href="#DejaVuSans-31"/>
      <use x="216.064453" xlink:href="#DejaVuSans-30"/>
      <use x="279.6875" xlink:href="#DejaVuSans-28"/>
      <use x="318.701172" xlink:href="#DejaVuSans-23"/>
      <use x="402.490234" xlink:href="#DejaVuSans-20"/>
      <use x="434.277344" xlink:href="#DejaVuSans-66"/>
      <use x="469.404297" xlink:href="#DejaVuSans-2d"/>
      <use x="505.488281" xlink:href="#DejaVuSans-65"/>
      <use x="567.011719" xlink:href="#DejaVuSans-76"/>
      <use x="626.191406" xlink:href="#DejaVuSans-61"/>
      <use x="687.470703" xlink:href="#DejaVuSans-6c"/>
      <use x="715.253906" xlink:href="#DejaVuSans-73"/>
      <use x="767.353516" xlink:href="#DejaVuSans-20"/>
      <use x="799.140625" xlink:href="#DejaVuSans-2f"/>
      <use x="832.832031" xlink:href="#DejaVuSans-20"/>
      <use x="864.619141" xlink:href="#DejaVuSans-64"/>
      <use x="928.095703" xlink:href="#DejaVuSans-69"/>
      <use x="955.878906" xlink:href="#DejaVuSans-6d"/>
      <use x="1053.291016" xlink:href="#DejaVuSans-65"/>
      <use x="1114.814453" xlink:href="#DejaVuSans-6e"/>
      <use x="1178.193359" xlink:href="#DejaVuSans-73"/>
      <use x="1230.292969" xlink:href="#DejaVuSans-69"/>
      <use x="1258.076172" xlink:href="#DejaVuSans-6f"/>
      <use x="1319.257812" xlink:href="#DejaVuSans-6e"/>
      <use x="1382.636719" xlink:href="#DejaVuSans-29"/>
     </g>
    </g>
   </g>
   <g id="matplotlib.axis_2">
    <g id="ytick_1">
     <g id="line2d_25">
      <path clip-path="url(#pd61a84554e)" d="M 56.12 294.88 
L 333.168 294.88 
" style="fill:none;stroke:#b0b0b0;stroke-linecap:square;stroke-width:0.8;"/>
     </g>
     <g id="line2d_26">
      <defs>
       <path d="M 0 0 
L -3.5 0 
" id="ma688d56945" style="stroke:#000000;stroke-width:0.8;"/>
      </defs>
      <g>
       <use style="stroke:#000000;stroke-width:0.8;" x="56.12" xlink:href="#ma688d56945" y="294.88"/>
      </g>
     </g>
     <g id="text_6">
      <!-- 0.0 -->
      <defs>
       <path d="M 10.6875 12.40625 
L 21 12.40625 
L 21 0 
L 10.6875 0 
z
" id="DejaVuSans-2e"/>
      </defs>
      <g transform="translate(23.675 300.95875)scale(0.16 -0.16)">
       <use xlink:href="#DejaVuSans-30"/>
       <use x="63.623047" xlink:href="#DejaVuSans-2e"/>
       <use x="95.410156" xlink:href="#DejaVuSans-30"/>
      </g>
     </g>
    </g>
    <g id="ytick_2">
     <g id="line2d_27">
      <path clip-path="url(#pd61a84554e)" d="M 56.12 237.843411 
L 333.168 237.843411 
" style="fill:none;stroke:#b0b0b0;stroke-linecap:square;stroke-width:0.8;"/>
     </g>
     <g id="line2d_28">
      <g>
       <use style="stroke:#000000;stroke-width:0.8;" x="56.12" xlink:href="#ma688d56945" y="237.843411"/>
      </g>
     </g>
     <g id="text_7">
      <!-- 0.2 -->
      <g transform="translate(23.675 243.922161)scale(0.16 -0.16)">
       <use xlink:href="#DejaVuSans-30"/>
       <use x="63.623047" xlink:href="#DejaVuSans-2e"/>
       <use x="95.410156" xlink:href="#DejaVuSans-32"/>
      </g>
     </g>
    </g>
    <g id="ytick_3">
     <g id="line2d_29">
      <path clip-path="url(#pd61a84554e)" d="M 56.12 180.806823 
L 333.168 180.806823 
" style="fill:none;stroke:#b0b0b0;stroke-linecap:square;stroke-width:0.8;"/>
     </g>
     <g id="line2d_30">
      <g>
       <use style="stroke:#000000;stroke-width:0.8;" x="56.12" xlink:href="#ma688d56945" y="180.806823"/>
      </g>
     </g>
     <g id="text_8">
      <!-- 0.4 -->
      <g transform="translate(23.675 186.885573)scale(0.16 -0.16)">
       <use xlink:href="#DejaVuSans-30"/>
       <use x="63.623047" xlink:href="#DejaVuSans-2e"/>
       <use x="95.410156" xlink:href="#DejaVuSans-34"/>
      </g>
     </g>
    </g>
    <g id="ytick_4">
     <g id="line2d_31">
      <path clip-path="url(#pd61a84554e)" d="M 56.12 123.770234 
L 333.168 123.770234 
" style="fill:none;stroke:#b0b0b0;stroke-linecap:square;stroke-width:0.8;"/>
     </g>
     <g id="line2d_32">
      <g>
       <use style="stroke:#000000;stroke-width:0.8;" x="56.12" xlink:href="#ma688d56945" y="123.770234"/>
      </g>
     </g>
     <g id="text_9">
      <!-- 0.6 -->
      <g transform="translate(23.675 129.848984)scale(0.16 -0.16)">
       <use xlink:href="#DejaVuSans-30"/>
       <use x="63.623047" xlink:href="#DejaVuSans-2e"/>
       <use x="95.410156" xlink:href="#DejaVuSans-36"/>
      </g>
     </g>
    </g>
    <g id="ytick_5">
     <g id="line2d_33">
      <path clip-path="url(#pd61a84554e)" d="M 56.12 66.733646 
L 333.168 66.733646 
" style="fill:none;stroke:#b0b0b0;stroke-linecap:square;stroke-width:0.8;"/>
     </g>
     <g id="line2d_34">
      <g>
       <use style="stroke:#000000;stroke-width:0.8;" x="56.12" xlink:href="#ma688d56945" y="66.733646"/>
      </g>
     </g>
     <g id="text_10">
      <!-- 0.8 -->
      <defs>
       <path d="M 31.78125 34.625 
Q 24.75 34.625 20.71875 30.859375 
Q 16.703125 27.09375 16.703125 20.515625 
Q 16.703125 13.921875 20.71875 10.15625 
Q 24.75 6.390625 31.78125 6.390625 
Q 38.8125 6.390625 42.859375 10.171875 
Q 46.921875 13.96875 46.921875 20.515625 
Q 46.921875 27.09375 42.890625 30.859375 
Q 38.875 34.625 31.78125 34.625 
z
M 21.921875 38.8125 
Q 15.578125 40.375 12.03125 44.71875 
Q 8.5 49.078125 8.5 55.328125 
Q 8.5 64.0625 14.71875 69.140625 
Q 20.953125 74.21875 31.78125 74.21875 
Q 42.671875 74.21875 48.875 69.140625 
Q 55.078125 64.0625 55.078125 55.328125 
Q 55.078125 49.078125 51.53125 44.71875 
Q 48 40.375 41.703125 38.8125 
Q 48.828125 37.15625 52.796875 32.3125 
Q 56.78125 27.484375 56.78125 20.515625 
Q 56.78125 9.90625 50.3125 4.234375 
Q 43.84375 -1.421875 31.78125 -1.421875 
Q 19.734375 -1.421875 13.25 4.234375 
Q 6.78125 9.90625 6.78125 20.515625 
Q 6.78125 27.484375 10.78125 32.3125 
Q 14.796875 37.15625 21.921875 38.8125 
z
M 18.3125 54.390625 
Q 18.3125 48.734375 21.84375 45.5625 
Q 25.390625 42.390625 31.78125 42.390625 
Q 38.140625 42.390625 41.71875 45.5625 
Q 45.3125 48.734375 45.3125 54.390625 
Q 45.3125 60.0625 41.71875 63.234375 
Q 38.140625 66.40625 31.78125 66.40625 
Q 25.390625 66.40625 21.84375 63.234375 
Q 18.3125 60.0625 18.3125 54.390625 
z
" id="DejaVuSans-38"/>
      </defs>
      <g transform="translate(23.675 72.812396)scale(0.16 -0.16)">
       <use xlink:href="#DejaVuSans-30"/>
       <use x="63.623047" xlink:href="#DejaVuSans-2e"/>
       <use x="95.410156" xlink:href="#DejaVuSans-38"/>
      </g>
     </g>
    </g>
    <g id="ytick_6">
     <g id="line2d_35">
      <path clip-path="url(#pd61a84554e)" d="M 56.12 9.697057 
L 333.168 9.697057 
" style="fill:none;stroke:#b0b0b0;stroke-linecap:square;stroke-width:0.8;"/>
     </g>
     <g id="line2d_36">
      <g>
       <use style="stroke:#000000;stroke-width:0.8;" x="56.12" xlink:href="#ma688d56945" y="9.697057"/>
      </g>
     </g>
     <g id="text_11">
      <!-- 1.0 -->
      <g transform="translate(23.675 15.775807)scale(0.16 -0.16)">
       <use xlink:href="#DejaVuSans-31"/>
       <use x="63.623047" xlink:href="#DejaVuSans-2e"/>
       <use x="95.410156" xlink:href="#DejaVuSans-30"/>
      </g>
     </g>
    </g>
    <g id="text_12">
     <!-- Fraction of function,target pairs -->
     <defs>
      <path d="M 9.8125 72.90625 
L 51.703125 72.90625 
L 51.703125 64.59375 
L 19.671875 64.59375 
L 19.671875 43.109375 
L 48.578125 43.109375 
L 48.578125 34.8125 
L 19.671875 34.8125 
L 19.671875 0 
L 9.8125 0 
z
" id="DejaVuSans-46"/>
      <path d="M 41.109375 46.296875 
Q 39.59375 47.171875 37.8125 47.578125 
Q 36.03125 48 33.890625 48 
Q 26.265625 48 22.1875 43.046875 
Q 18.109375 38.09375 18.109375 28.8125 
L 18.109375 0 
L 9.078125 0 
L 9.078125 54.6875 
L 18.109375 54.6875 
L 18.109375 46.1875 
Q 20.953125 51.171875 25.484375 53.578125 
Q 30.03125 56 36.53125 56 
Q 37.453125 56 38.578125 55.875 
Q 39.703125 55.765625 41.0625 55.515625 
z
" id="DejaVuSans-72"/>
      <path d="M 48.78125 52.59375 
L 48.78125 44.1875 
Q 44.96875 46.296875 41.140625 47.34375 
Q 37.3125 48.390625 33.40625 48.390625 
Q 24.65625 48.390625 19.8125 42.84375 
Q 14.984375 37.3125 14.984375 27.296875 
Q 14.984375 17.28125 19.8125 11.734375 
Q 24.65625 6.203125 33.40625 6.203125 
Q 37.3125 6.203125 41.140625 7.25 
Q 44.96875 8.296875 48.78125 10.40625 
L 48.78125 2.09375 
Q 45.015625 0.34375 40.984375 -0.53125 
Q 36.96875 -1.421875 32.421875 -1.421875 
Q 20.0625 -1.421875 12.78125 6.34375 
Q 5.515625 14.109375 5.515625 27.296875 
Q 5.515625 40.671875 12.859375 48.328125 
Q 20.21875 56 33.015625 56 
Q 37.15625 56 41.109375 55.140625 
Q 45.0625 54.296875 48.78125 52.59375 
z
" id="DejaVuSans-63"/>
      <path d="M 18.3125 70.21875 
L 18.3125 54.6875 
L 36.8125 54.6875 
L 36.8125 47.703125 
L 18.3125 47.703125 
L 18.3125 18.015625 
Q 18.3125 11.328125 20.140625 9.421875 
Q 21.96875 7.515625 27.59375 7.515625 
L 36.8125 7.515625 
L 36.8125 0 
L 27.59375 0 
Q 17.1875 0 13.234375 3.875 
Q 9.28125 7.765625 9.28125 18.015625 
L 9.28125 47.703125 
L 2.6875 47.703125 
L 2.6875 54.6875 
L 9.28125 54.6875 
L 9.28125 70.21875 
z
" id="DejaVuSans-74"/>
      <path d="M 8.5 21.578125 
L 8.5 54.6875 
L 17.484375 54.6875 
L 17.484375 21.921875 
Q 17.484375 14.15625 20.5 10.265625 
Q 23.53125 6.390625 29.59375 6.390625 
Q 36.859375 6.390625 41.078125 11.03125 
Q 45.3125 15.671875 45.3125 23.6875 
L 45.3125 54.6875 
L 54.296875 54.6875 
L 54.296875 0 
L 45.3125 0 
L 45.3125 8.40625 
Q 42.046875 3.421875 37.71875 1 
Q 33.40625 -1.421875 27.6875 -1.421875 
Q 18.265625 -1.421875 13.375 4.4375 
Q 8.5 10.296875 8.5 21.578125 
z
M 31.109375 56 
z
" id="DejaVuSans-75"/>
      <path d="M 11.71875 12.40625 
L 22.015625 12.40625 
L 22.015625 4 
L 14.015625 -11.625 
L 7.71875 -11.625 
L 11.71875 4 
z
" id="DejaVuSans-2c"/>
      <path d="M 18.109375 8.203125 
L 18.109375 -20.796875 
L 9.078125 -20.796875 
L 9.078125 54.6875 
L 18.109375 54.6875 
L 18.109375 46.390625 
Q 20.953125 51.265625 25.265625 53.625 
Q 29.59375 56 35.59375 56 
Q 45.5625 56 51.78125 48.09375 
Q 58.015625 40.1875 58.015625 27.296875 
Q 58.015625 14.40625 51.78125 6.484375 
Q 45.5625 -1.421875 35.59375 -1.421875 
Q 29.59375 -1.421875 25.265625 0.953125 
Q 20.953125 3.328125 18.109375 8.203125 
z
M 48.6875 27.296875 
Q 48.6875 37.203125 44.609375 42.84375 
Q 40.53125 48.484375 33.40625 48.484375 
Q 26.265625 48.484375 22.1875 42.84375 
Q 18.109375 37.203125 18.109375 27.296875 
Q 18.109375 17.390625 22.1875 11.75 
Q 26.265625 6.109375 33.40625 6.109375 
Q 40.53125 6.109375 44.609375 11.75 
Q 48.6875 17.390625 48.6875 27.296875 
z
" id="DejaVuSans-70"/>
     </defs>
     <g transform="translate(16.139531 286.001989)rotate(-90)scale(0.17 -0.17)">
      <use xlink:href="#DejaVuSans-46"/>
      <use x="57.410156" xlink:href="#DejaVuSans-72"/>
      <use x="98.523438" xlink:href="#DejaVuSans-61"/>
      <use x="159.802734" xlink:href="#DejaVuSans-63"/>
      <use x="214.783203" xlink:href="#DejaVuSans-74"/>
      <use x="253.992188" xlink:href="#DejaVuSans-69"/>
      <use x="281.775391" xlink:href="#DejaVuSans-6f"/>
      <use x="342.957031" xlink:href="#DejaVuSans-6e"/>
      <use x="406.335938" xlink:href="#DejaVuSans-20"/>
      <use x="438.123047" xlink:href="#DejaVuSans-6f"/>
      <use x="499.304688" xlink:href="#DejaVuSans-66"/>
      <use x="534.509766" xlink:href="#DejaVuSans-20"/>
      <use x="566.296875" xlink:href="#DejaVuSans-66"/>
      <use x="601.501953" xlink:href="#DejaVuSans-75"/>
      <use x="664.880859" xlink:href="#DejaVuSans-6e"/>
      <use x="728.259766" xlink:href="#DejaVuSans-63"/>
      <use x="783.240234" xlink:href="#DejaVuSans-74"/>
      <use x="822.449219" xlink:href="#DejaVuSans-69"/>
      <use x="850.232422" xlink:href="#DejaVuSans-6f"/>
      <use x="911.414062" xlink:href="#DejaVuSans-6e"/>
      <use x="974.792969" xlink:href="#DejaVuSans-2c"/>
      <use x="1006.580078" xlink:href="#DejaVuSans-74"/>
      <use x="1045.789062" xlink:href="#DejaVuSans-61"/>
      <use x="1107.068359" xlink:href="#DejaVuSans-72"/>
      <use x="1148.166016" xlink:href="#DejaVuSans-67"/>
      <use x="1211.642578" xlink:href="#DejaVuSans-65"/>
      <use x="1273.166016" xlink:href="#DejaVuSans-74"/>
      <use x="1312.375" xlink:href="#DejaVuSans-20"/>
      <use x="1344.162109" xlink:href="#DejaVuSans-70"/>
      <use x="1407.638672" xlink:href="#DejaVuSans-61"/>
      <use x="1468.917969" xlink:href="#DejaVuSans-69"/>
      <use x="1496.701172" xlink:href="#DejaVuSans-72"/>
      <use x="1537.814453" xlink:href="#DejaVuSans-73"/>
     </g>
    </g>
   </g>
   <g id="line2d_37">
    <defs>
     <path d="M 0 1.5 
C 0.397805 1.5 0.77937 1.341951 1.06066 1.06066 
C 1.341951 0.77937 1.5 0.397805 1.5 0 
C 1.5 -0.397805 1.341951 -0.77937 1.06066 -1.06066 
C 0.77937 -1.341951 0.397805 -1.5 0 -1.5 
C -0.397805 -1.5 -0.77937 -1.341951 -1.06066 -1.06066 
C -1.341951 -0.77937 -1.5 -0.397805 -1.5 0 
C -1.5 0.397805 -1.341951 0.77937 -1.06066 1.06066 
C -0.77937 1.341951 -0.397805 1.5 0 1.5 
z
" id="m623ce96e63" style="stroke:#000080;"/>
    </defs>
    <g>
     <use style="fill:#000080;stroke:#000080;" x="253.761415" xlink:href="#m623ce96e63" y="216.594486"/>
     <use style="fill:#000080;stroke:#000080;" x="253.761415" xlink:href="#m623ce96e63" y="216.594486"/>
    </g>
   </g>
   <g id="line2d_38">
    <path d="M 44.205749 294.88 
L 44.205749 278.663715 
L 56.12 278.663715 
L 56.12 275.867804 
L 63.08939 275.867804 
L 63.08939 274.190257 
L 68.034251 274.190257 
L 68.034251 271.394346 
L 71.869783 271.394346 
L 71.869783 269.716799 
L 75.003641 269.716799 
L 75.003641 267.48007 
L 85.422286 267.48007 
L 85.422286 266.920888 
L 86.917893 266.920888 
L 86.917893 265.243341 
L 88.293717 265.243341 
L 88.293717 264.684159 
L 89.567532 264.684159 
L 89.567532 261.329066 
L 94.816624 261.329066 
L 94.816624 260.769883 
L 95.698286 260.769883 
L 95.698286 259.651519 
L 102.667676 259.651519 
L 102.667676 257.973972 
L 105.317315 257.973972 
L 105.317315 253.500514 
L 107.612537 253.500514 
L 107.612537 252.941332 
L 108.85563 252.941332 
L 108.85563 250.704603 
L 111.448069 250.704603 
L 111.448069 250.145421 
L 112.122219 250.145421 
L 112.122219 249.586238 
L 113.086321 249.586238 
L 113.086321 249.027056 
L 126.061 249.027056 
L 126.061 248.467874 
L 140.113666 248.467874 
L 140.113666 247.908692 
L 146.127269 247.908692 
L 146.127269 246.231145 
L 151.667418 246.231145 
L 151.667418 245.671963 
L 156.2863 245.671963 
L 156.2863 245.112781 
L 157.695196 245.112781 
L 157.695196 243.994416 
L 158.603658 243.994416 
L 158.603658 242.316869 
L 159.147992 242.316869 
L 159.147992 241.198505 
L 161.526063 241.198505 
L 161.526063 239.520958 
L 166.582539 239.520958 
L 166.582539 238.961776 
L 171.147759 238.961776 
L 171.147759 237.843411 
L 172.696597 237.843411 
L 172.696597 236.725047 
L 181.080744 236.725047 
L 181.080744 235.0475 
L 184.630326 235.0475 
L 184.630326 234.488318 
L 185.760325 234.488318 
L 185.760325 232.810771 
L 191.255637 232.810771 
L 191.255637 231.133225 
L 194.227093 231.133225 
L 194.227093 230.574042 
L 194.675076 230.574042 
L 194.675076 229.455678 
L 199.322353 229.455678 
L 199.322353 228.896496 
L 201.109947 228.896496 
L 201.109947 228.337313 
L 206.994163 228.337313 
L 206.994163 227.778131 
L 209.82192 227.778131 
L 209.82192 227.218949 
L 211.060778 227.218949 
L 211.060778 226.659767 
L 218.538132 226.659767 
L 218.538132 226.100584 
L 219.516245 226.100584 
L 219.516245 225.541402 
L 223.005851 225.541402 
L 223.005851 224.98222 
L 224.29405 224.98222 
L 224.29405 223.863855 
L 228.59846 223.863855 
L 228.59846 223.304673 
L 229.150065 223.304673 
L 229.150065 222.745491 
L 231.228216 222.745491 
L 231.228216 222.186309 
L 234.219689 222.186309 
L 234.219689 221.627126 
L 234.902609 221.627126 
L 234.902609 221.067944 
L 237.357352 221.067944 
L 237.357352 219.94958 
L 239.504938 219.94958 
L 239.504938 218.831215 
L 244.693301 218.831215 
L 244.693301 218.272033 
L 245.772732 218.272033 
L 245.772732 217.712851 
L 249.818551 217.712851 
L 249.818551 217.153669 
L 253.761415 217.153669 
L 253.761415 216.594486 
L 333.168 216.594486 
" style="fill:none;stroke:#000080;stroke-linecap:square;stroke-width:1.5;"/>
   </g>
   <g id="line2d_39">
    <defs>
     <path d="M 0 6 
C 1.591219 6 3.117479 5.367802 4.242641 4.242641 
C 5.367802 3.117479 6 1.591219 6 0 
C 6 -1.591219 5.367802 -3.117479 4.242641 -4.242641 
C 3.117479 -5.367802 1.591219 -6 0 -6 
C -1.591219 -6 -3.117479 -5.367802 -4.242641 -4.242641 
C -5.367802 -3.117479 -6 -1.591219 -6 0 
C -6 1.591219 -5.367802 3.117479 -4.242641 4.242641 
C -3.117479 5.367802 -1.591219 6 0 6 
z
" id="m53398e746d" style="stroke:#000080;stroke-width:1.5;"/>
    </defs>
    <g>
     <use style="fill-opacity:0;stroke:#000080;stroke-width:1.5;" x="111.448069" xlink:href="#m53398e746d" y="250.145421"/>
     <use style="fill-opacity:0;stroke:#000080;stroke-width:1.5;" x="194.227093" xlink:href="#m53398e746d" y="230.574042"/>
     <use style="fill-opacity:0;stroke:#000080;stroke-width:1.5;" x="253.761415" xlink:href="#m53398e746d" y="217.153669"/>
     <use style="fill-opacity:0;stroke:#000080;stroke-width:1.5;" x="253.761415" xlink:href="#m53398e746d" y="216.594486"/>
     <use style="fill-opacity:0;stroke:#000080;stroke-width:1.5;" x="333.168" xlink:href="#m53398e746d" y="216.594486"/>
    </g>
   </g>
   <g id="line2d_40">
    <path style="fill:none;stroke:#000080;stroke-linecap:square;stroke-width:1.5;"/>
    <g/>
   </g>
   <g id="line2d_41">
    <path clip-path="url(#pd61a84554e)" d="M 202.691626 228.337313 
" style="fill:none;stroke:#000080;stroke-linecap:square;stroke-width:1.5;"/>
    <defs>
     <path d="M -12 12 
L 12 -12 
M -12 -12 
L 12 12 
" id="m6108f09351" style="stroke:#000080;"/>
    </defs>
    <g clip-path="url(#pd61a84554e)">
     <use style="fill:#000080;stroke:#000080;" x="202.691626" xlink:href="#m6108f09351" y="228.337313"/>
    </g>
   </g>
   <g id="line2d_42">
    <defs>
     <path d="M 0 1.5 
C 0.397805 1.5 0.77937 1.341951 1.06066 1.06066 
C 1.341951 0.77937 1.5 0.397805 1.5 0 
C 1.5 -0.397805 1.341951 -0.77937 1.06066 -1.06066 
C 0.77937 -1.341951 0.397805 -1.5 0 -1.5 
C -0.397805 -1.5 -0.77937 -1.341951 -1.06066 -1.06066 
C -1.341951 -0.77937 -1.5 -0.397805 -1.5 0 
C -1.5 0.397805 -1.341951 0.77937 -1.06066 1.06066 
C -0.77937 1.341951 -0.397805 1.5 0 1.5 
z
" id="mf0d574dd2e" style="stroke:#ff00ff;"/>
    </defs>
    <g>
     <use style="fill:#ff00ff;stroke:#ff00ff;" x="226.262963" xlink:href="#mf0d574dd2e" y="9.697057"/>
     <use style="fill:#ff00ff;stroke:#ff00ff;" x="226.262963" xlink:href="#mf0d574dd2e" y="9.697057"/>
    </g>
   </g>
   <g id="line2d_43">
    <path d="M 44.205749 294.88 
L 44.205749 275.867804 
L 56.12 275.867804 
L 56.12 270.275981 
L 63.08939 270.275981 
L 63.08939 265.802523 
L 68.034251 265.802523 
L 68.034251 264.124977 
L 71.869783 264.124977 
L 71.869783 262.44743 
L 75.003641 262.44743 
L 75.003641 259.651519 
L 77.653281 259.651519 
L 77.653281 257.973972 
L 79.948502 257.973972 
L 79.948502 255.737243 
L 86.917893 255.737243 
L 86.917893 255.178061 
L 88.293717 255.178061 
L 88.293717 254.618879 
L 90.753425 254.618879 
L 90.753425 254.059696 
L 91.862754 254.059696 
L 91.862754 253.500514 
L 92.904808 253.500514 
L 92.904808 246.790327 
L 95.698286 246.790327 
L 95.698286 244.553598 
L 96.536922 244.553598 
L 96.536922 242.316869 
L 100.207968 242.316869 
L 100.207968 239.520958 
L 102.084955 239.520958 
L 102.084955 238.961776 
L 105.801534 238.961776 
L 105.801534 237.843411 
L 107.177358 237.843411 
L 107.177358 235.606682 
L 111.448069 235.606682 
L 111.448069 235.0475 
L 114.866043 235.0475 
L 114.866043 234.488318 
L 115.145539 234.488318 
L 115.145539 233.929136 
L 115.957752 233.929136 
L 115.957752 231.692407 
L 118.645127 231.692407 
L 118.645127 230.01486 
L 119.526788 230.01486 
L 119.526788 227.218949 
L 120.769881 227.218949 
L 120.769881 225.541402 
L 126.352339 225.541402 
L 126.352339 224.423038 
L 126.638823 224.423038 
L 126.638823 222.745491 
L 133.843356 222.745491 
L 133.843356 222.186309 
L 135.190413 222.186309 
L 135.190413 221.627126 
L 135.950722 221.627126 
L 135.950722 221.067944 
L 136.599426 221.067944 
L 136.599426 214.91694 
L 137.678888 214.91694 
L 137.753459 211.002664 
L 138.04855 211.002664 
L 138.04855 209.325117 
L 139.043211 209.325117 
L 139.043211 204.292477 
L 139.720016 204.292477 
L 139.720016 202.61493 
L 141.3643 202.61493 
L 141.3643 199.259837 
L 141.72241 199.259837 
L 141.72241 198.700655 
L 142.530078 198.700655 
L 142.530078 195.904743 
L 142.864932 195.904743 
L 142.864932 194.227197 
L 144.747635 194.227197 
L 144.747635 186.398645 
L 145.332007 186.398645 
L 145.332007 185.839463 
L 145.569751 185.839463 
L 145.569751 185.280281 
L 145.804252 185.280281 
L 145.804252 180.247641 
L 147.018071 180.247641 
L 147.018071 179.688458 
L 148.984628 179.688458 
L 148.984628 176.333365 
L 149.177112 176.333365 
L 149.177112 175.215 
L 150.324681 175.215 
L 150.324681 174.655818 
L 151.400405 174.655818 
L 151.400405 174.096636 
L 151.799385 174.096636 
L 151.799385 169.063996 
L 154.696079 169.063996 
L 154.696079 160.11708 
L 155.536037 160.11708 
L 155.536037 156.202804 
L 157.695196 156.202804 
L 157.695196 153.406893 
L 158.018648 153.406893 
L 158.018648 150.0518 
L 159.696387 150.0518 
L 159.696387 148.374253 
L 160.227826 148.374253 
L 160.227826 143.341613 
L 162.399325 143.341613 
L 162.399325 138.308973 
L 162.663364 138.308973 
L 162.663364 137.74979 
L 163.128649 137.74979 
L 163.128649 136.631426 
L 163.713637 136.631426 
L 163.713637 135.513061 
L 164.903911 135.513061 
L 164.903911 132.71715 
L 165.432369 132.71715 
L 165.432369 131.039603 
L 165.69795 131.039603 
L 165.69795 130.480421 
L 165.887238 130.480421 
L 165.887238 129.921239 
L 166.245497 129.921239 
L 166.245497 129.362057 
L 171.401782 129.362057 
L 171.401782 124.329417 
L 171.878412 124.329417 
L 171.878412 123.770234 
L 175.212081 123.770234 
L 175.212081 121.533505 
L 175.479353 121.533505 
L 175.479353 118.737594 
L 177.234739 118.737594 
L 177.234739 117.61923 
L 177.54619 117.61923 
L 177.656068 105.31722 
L 177.67796 105.31722 
L 177.67796 103.639674 
L 179.225145 103.639674 
L 179.225145 103.080491 
L 180.08313 103.080491 
L 180.08313 102.521309 
L 180.508954 102.521309 
L 180.527499 99.166216 
L 180.754597 99.166216 
L 180.754597 95.25194 
L 181.050804 95.25194 
L 181.110632 92.456029 
L 181.336099 92.456029 
L 181.336099 90.778482 
L 181.558647 90.778482 
L 181.558647 87.423389 
L 181.852871 87.423389 
L 181.887157 84.068295 
L 182.153389 84.068295 
L 182.153389 82.390748 
L 182.287764 82.390748 
L 182.287764 81.831566 
L 184.814267 81.831566 
L 184.91508 77.917291 
L 184.948553 77.917291 
L 184.948553 75.680562 
L 185.769436 75.680562 
L 185.769436 75.121379 
L 186.67863 75.121379 
L 186.67863 71.766286 
L 186.999602 71.766286 
L 186.999602 67.85201 
L 187.476282 67.85201 
L 187.476282 66.174463 
L 188.297628 66.174463 
L 188.297628 60.582641 
L 188.885067 60.582641 
L 188.885067 56.668365 
L 189.592211 56.668365 
L 189.592211 53.313272 
L 191.790075 53.313272 
L 191.790075 47.162267 
L 192.50958 47.162267 
L 192.50958 43.807174 
L 192.717559 43.807174 
L 192.717559 42.688809 
L 192.905018 42.688809 
L 192.905018 41.570445 
L 194.053583 41.570445 
L 194.053583 40.45208 
L 194.723838 40.45208 
L 194.723838 39.892898 
L 195.568399 39.892898 
L 195.568399 39.333716 
L 195.701804 39.333716 
L 195.701804 38.774534 
L 195.864586 38.774534 
L 195.864586 38.215351 
L 197.525835 38.215351 
L 197.599222 35.978622 
L 198.421395 35.978622 
L 198.421395 35.41944 
L 198.56478 35.41944 
L 198.56478 34.301076 
L 198.822453 34.301076 
L 198.930805 29.827618 
L 200.389839 29.827618 
L 200.389839 27.590889 
L 200.711708 27.590889 
L 200.711708 26.472524 
L 200.901598 26.472524 
L 200.999517 25.35416 
L 202.048418 25.35416 
L 202.048418 24.794978 
L 202.654148 24.794978 
L 202.654148 23.117431 
L 207.176027 23.117431 
L 207.176027 21.999066 
L 208.873524 21.999066 
L 208.873524 21.439884 
L 210.005255 21.439884 
L 210.005255 19.203155 
L 210.258026 19.203155 
L 210.258026 18.643973 
L 210.399883 18.643973 
L 210.399883 18.084791 
L 212.603031 18.084791 
L 212.603031 17.525609 
L 212.828119 17.525609 
L 212.828119 16.966426 
L 213.493485 16.966426 
L 213.493485 16.407244 
L 214.08764 16.407244 
L 214.08764 15.28888 
L 214.587149 15.28888 
L 214.587149 13.611333 
L 216.993908 13.611333 
L 216.993908 12.492968 
L 218.648779 12.492968 
L 218.648779 11.933786 
L 220.410754 11.933786 
L 220.410754 11.374604 
L 220.999058 11.374604 
L 220.999058 10.815422 
L 224.54546 10.815422 
L 224.54546 10.256239 
L 226.262963 10.256239 
L 226.262963 9.697057 
L 333.168 9.697057 
L 333.168 9.697057 
" style="fill:none;stroke:#ff00ff;stroke-linecap:square;stroke-width:1.5;"/>
   </g>
   <g id="line2d_44">
    <defs>
     <path d="M -0 8.485281 
L 5.091169 0 
L 0 -8.485281 
L -5.091169 -0 
z
" id="m74660fb21b" style="stroke:#ff00ff;stroke-linejoin:miter;stroke-width:1.5;"/>
    </defs>
    <g>
     <use style="fill-opacity:0;stroke:#ff00ff;stroke-linejoin:miter;stroke-width:1.5;" x="96.536922" xlink:href="#m74660fb21b" y="244.553598"/>
     <use style="fill-opacity:0;stroke:#ff00ff;stroke-linejoin:miter;stroke-width:1.5;" x="158.018648" xlink:href="#m74660fb21b" y="150.0518"/>
     <use style="fill-opacity:0;stroke:#ff00ff;stroke-linejoin:miter;stroke-width:1.5;" x="198.930805" xlink:href="#m74660fb21b" y="31.505165"/>
     <use style="fill-opacity:0;stroke:#ff00ff;stroke-linejoin:miter;stroke-width:1.5;" x="226.262963" xlink:href="#m74660fb21b" y="10.256239"/>
     <use style="fill-opacity:0;stroke:#ff00ff;stroke-linejoin:miter;stroke-width:1.5;" x="226.262963" xlink:href="#m74660fb21b" y="9.697057"/>
     <use style="fill-opacity:0;stroke:#ff00ff;stroke-linejoin:miter;stroke-width:1.5;" x="333.168" xlink:href="#m74660fb21b" y="9.697057"/>
    </g>
   </g>
   <g id="line2d_45">
    <path style="fill:none;stroke:#ff00ff;stroke-linecap:square;stroke-width:1.5;"/>
    <g/>
   </g>
   <g id="line2d_46">
    <path clip-path="url(#pd61a84554e)" d="M 202.691626 23.117431 
" style="fill:none;stroke:#ff00ff;stroke-linecap:square;stroke-width:1.5;"/>
    <defs>
     <path d="M -12 12 
L 12 -12 
M -12 -12 
L 12 12 
" id="mb2dbe9ec1a" style="stroke:#ff00ff;"/>
    </defs>
    <g clip-path="url(#pd61a84554e)">
     <use style="fill:#ff00ff;stroke:#ff00ff;" x="202.691626" xlink:href="#mb2dbe9ec1a" y="23.117431"/>
    </g>
   </g>
   <g id="line2d_47">
    <defs>
     <path d="M 0 1.5 
C 0.397805 1.5 0.77937 1.341951 1.06066 1.06066 
C 1.341951 0.77937 1.5 0.397805 1.5 0 
C 1.5 -0.397805 1.341951 -0.77937 1.06066 -1.06066 
C 0.77937 -1.341951 0.397805 -1.5 0 -1.5 
C -0.397805 -1.5 -0.77937 -1.341951 -1.06066 -1.06066 
C -1.341951 -0.77937 -1.5 -0.397805 -1.5 0 
C -1.5 0.397805 -1.341951 0.77937 -1.06066 1.06066 
C -0.77937 1.341951 -0.397805 1.5 0 1.5 
z
" id="m36e413bbab" style="stroke:#ffa500;"/>
    </defs>
    <g>
     <use style="fill:#ffa500;stroke:#ffa500;" x="208.333055" xlink:href="#m36e413bbab" y="9.697057"/>
     <use style="fill:#ffa500;stroke:#ffa500;" x="208.333055" xlink:href="#m36e413bbab" y="9.697057"/>
    </g>
   </g>
   <g id="line2d_48">
    <path d="M 44.205749 294.88 
L 44.205749 262.44743 
L 56.12 262.44743 
L 56.12 259.092337 
L 63.08939 259.092337 
L 63.08939 258.533154 
L 68.034251 258.533154 
L 68.034251 254.059696 
L 71.869783 254.059696 
L 71.869783 250.704603 
L 75.003641 250.704603 
L 75.003641 244.553598 
L 77.653281 244.553598 
L 77.653281 240.639323 
L 81.973032 240.639323 
L 81.973032 238.961776 
L 83.784035 238.961776 
L 83.784035 237.284229 
L 85.422286 237.284229 
L 85.422286 236.725047 
L 86.917893 236.725047 
L 86.917893 235.606682 
L 90.753425 235.606682 
L 90.753425 235.0475 
L 93.887283 235.0475 
L 93.887283 231.692407 
L 101.481783 231.692407 
L 101.481783 231.133225 
L 102.667676 231.133225 
L 102.667676 230.01486 
L 103.777005 230.01486 
L 103.777005 229.455678 
L 104.819059 229.455678 
L 104.819059 228.337313 
L 106.730875 228.337313 
L 106.730875 227.778131 
L 109.250788 227.778131 
L 109.250788 226.659767 
L 110.384516 226.659767 
L 110.384516 224.98222 
L 114.581927 224.98222 
L 114.581927 222.186309 
L 115.145539 222.186309 
L 115.145539 221.627126 
L 115.957752 221.627126 
L 115.957752 221.067944 
L 117.952873 221.067944 
L 117.952873 220.508762 
L 119.95122 220.508762 
L 119.95122 219.390397 
L 121.16504 219.390397 
L 121.16504 216.035304 
L 126.92061 216.035304 
L 126.92061 211.002664 
L 127.605507 211.002664 
L 127.605507 208.765935 
L 133.6555 208.765935 
L 133.6555 207.64757 
L 134.029181 207.64757 
L 134.029181 205.970024 
L 134.213018 205.970024 
L 134.213018 204.851659 
L 134.841393 204.851659 
L 134.841393 204.292477 
L 138.04855 204.292477 
L 138.04855 203.733295 
L 138.266591 203.733295 
L 138.266591 202.61493 
L 138.764847 202.61493 
L 138.764847 200.937384 
L 139.384945 200.937384 
L 139.452484 199.819019 
L 141.182408 199.819019 
L 141.182408 199.259837 
L 141.898705 199.259837 
L 141.898705 197.58229 
L 143.462385 197.58229 
L 143.462385 193.668014 
L 144.245007 193.668014 
L 144.245007 191.990468 
L 145.897164 191.990468 
L 145.897164 190.312921 
L 146.444328 190.312921 
L 146.444328 188.076192 
L 146.799661 188.076192 
L 146.799661 185.839463 
L 148.313575 185.839463 
L 148.313575 185.280281 
L 148.473843 185.280281 
L 148.473843 184.721099 
L 150.252912 184.721099 
L 150.252912 183.043552 
L 151.8977 183.043552 
L 151.8977 177.451729 
L 153.987461 177.451729 
L 153.987461 176.333365 
L 154.472484 176.333365 
L 154.472484 174.655818 
L 154.998849 174.655818 
L 154.998849 174.096636 
L 157.718503 174.096636 
L 157.718503 173.537454 
L 158.109956 173.537454 
L 158.109956 170.18236 
L 158.470412 170.18236 
L 158.470412 169.063996 
L 159.062048 169.063996 
L 159.062048 168.504814 
L 159.675615 168.504814 
L 159.675615 167.945631 
L 160.187524 167.945631 
L 160.187524 166.268085 
L 160.308147 166.268085 
L 160.308147 165.14972 
L 160.447811 165.14972 
L 160.447811 163.472173 
L 161.053039 163.472173 
L 161.053039 161.794627 
L 161.544716 161.794627 
L 161.619126 155.643622 
L 161.803753 155.643622 
L 161.803753 153.966075 
L 162.328224 153.966075 
L 162.328224 151.170164 
L 163.482025 151.170164 
L 163.565102 148.933435 
L 163.844598 148.933435 
L 163.844598 147.255888 
L 166.231309 147.255888 
L 166.231309 146.696706 
L 166.693434 146.696706 
L 166.693434 145.578342 
L 167.210629 145.578342 
L 167.304227 140.545702 
L 167.725732 140.545702 
L 167.725732 136.631426 
L 168.748641 136.631426 
L 168.748641 135.513061 
L 169.562739 135.513061 
L 169.562739 134.953879 
L 171.072956 134.953879 
L 171.072956 130.480421 
L 171.359705 130.480421 
L 171.359705 127.68451 
L 172.431472 127.68451 
L 172.431472 126.566145 
L 172.957695 126.566145 
L 173.015182 118.737594 
L 173.791304 118.737594 
L 173.800444 115.382501 
L 174.366709 115.382501 
L 174.454901 112.027407 
L 174.742766 112.027407 
L 174.760059 109.790678 
L 175.993704 109.790678 
L 175.993704 108.113132 
L 176.718206 108.113132 
L 176.718206 107.553949 
L 177.129655 107.553949 
L 177.219766 104.758038 
L 177.324302 104.758038 
L 177.324302 101.402945 
L 177.72166 101.402945 
L 177.72166 99.725398 
L 177.895357 99.725398 
L 177.895357 98.047851 
L 178.427116 98.047851 
L 178.427116 97.488669 
L 179.522476 97.488669 
L 179.522476 96.929487 
L 179.923886 96.929487 
L 179.923886 95.25194 
L 181.14643 95.25194 
L 181.14643 91.337664 
L 181.564465 91.337664 
L 181.564465 86.864206 
L 181.955524 86.864206 
L 182.034944 81.272384 
L 182.426629 81.272384 
L 182.426629 77.358108 
L 182.586319 77.358108 
L 182.673793 75.680562 
L 182.895935 75.680562 
L 182.895935 75.121379 
L 183.514507 75.121379 
L 183.514507 71.766286 
L 183.731238 71.766286 
L 183.772212 63.937735 
L 183.858959 63.937735 
L 183.904708 62.81937 
L 184.330873 62.81937 
L 184.330873 61.701006 
L 184.737057 61.701006 
L 184.737057 60.023459 
L 184.91508 60.023459 
L 185.02482 56.109183 
L 185.048585 56.109183 
L 185.067572 54.431636 
L 186.205639 54.431636 
L 186.218955 50.517361 
L 186.395522 50.517361 
L 186.439382 48.839814 
L 187.310527 48.839814 
L 187.310527 48.280632 
L 187.525698 48.280632 
L 187.525698 47.72145 
L 187.956147 47.72145 
L 188.012201 44.366356 
L 188.426881 44.366356 
L 188.426881 41.570445 
L 188.539671 41.570445 
L 188.539671 39.333716 
L 189.592211 39.333716 
L 189.592211 38.215351 
L 190.809676 38.215351 
L 190.809676 37.096987 
L 191.15605 37.096987 
L 191.15605 33.182711 
L 191.475986 33.182711 
L 191.475986 29.827618 
L 191.786866 29.827618 
L 191.786866 28.709253 
L 192.261633 28.709253 
L 192.261633 25.35416 
L 193.557064 25.35416 
L 193.557064 23.676613 
L 194.34088 23.676613 
L 194.34088 22.558249 
L 195.420967 22.558249 
L 195.420967 21.999066 
L 195.925234 21.999066 
L 195.925234 20.32152 
L 196.673059 20.32152 
L 196.673059 19.762337 
L 196.82215 19.762337 
L 196.82215 16.966426 
L 196.977078 16.966426 
L 196.977078 15.28888 
L 199.830247 15.28888 
L 199.830247 14.170515 
L 200.581374 14.170515 
L 200.581374 13.611333 
L 200.766992 13.611333 
L 200.766992 11.933786 
L 201.328701 11.933786 
L 201.328701 10.815422 
L 202.441368 10.815422 
L 202.441368 10.256239 
L 208.333055 10.256239 
L 208.333055 9.697057 
L 333.168 9.697057 
L 333.168 9.697057 
" style="fill:none;stroke:#ffa500;stroke-linecap:square;stroke-width:1.5;"/>
   </g>
   <g id="line2d_49">
    <defs>
     <path d="M 0 -6 
L -1.347084 -1.854102 
L -5.706339 -1.854102 
L -2.179628 0.708204 
L -3.526712 4.854102 
L -0 2.291796 
L 3.526712 4.854102 
L 2.179628 0.708204 
L 5.706339 -1.854102 
L 1.347084 -1.854102 
z
" id="mba0f951e68" style="stroke:#ffa500;stroke-linejoin:bevel;stroke-width:1.5;"/>
    </defs>
    <g>
     <use style="fill-opacity:0;stroke:#ffa500;stroke-linejoin:bevel;stroke-width:1.5;" x="121.16504" xlink:href="#mba0f951e68" y="216.035304"/>
     <use style="fill-opacity:0;stroke:#ffa500;stroke-linejoin:bevel;stroke-width:1.5;" x="179.923886" xlink:href="#mba0f951e68" y="95.25194"/>
     <use style="fill-opacity:0;stroke:#ffa500;stroke-linejoin:bevel;stroke-width:1.5;" x="208.333055" xlink:href="#mba0f951e68" y="10.256239"/>
     <use style="fill-opacity:0;stroke:#ffa500;stroke-linejoin:bevel;stroke-width:1.5;" x="208.333055" xlink:href="#mba0f951e68" y="9.697057"/>
     <use style="fill-opacity:0;stroke:#ffa500;stroke-linejoin:bevel;stroke-width:1.5;" x="208.333055" xlink:href="#mba0f951e68" y="9.697057"/>
     <use style="fill-opacity:0;stroke:#ffa500;stroke-linejoin:bevel;stroke-width:1.5;" x="333.168" xlink:href="#mba0f951e68" y="9.697057"/>
    </g>
   </g>
   <g id="line2d_50">
    <path style="fill:none;stroke:#ffa500;stroke-linecap:square;stroke-width:1.5;"/>
    <g/>
   </g>
   <g id="line2d_51">
    <path clip-path="url(#pd61a84554e)" d="M 202.691626 10.256239 
" style="fill:none;stroke:#ffa500;stroke-linecap:square;stroke-width:1.5;"/>
    <defs>
     <path d="M -12 12 
L 12 -12 
M -12 -12 
L 12 12 
" id="m1315a8e1ec" style="stroke:#ffa500;"/>
    </defs>
    <g clip-path="url(#pd61a84554e)">
     <use style="fill:#ffa500;stroke:#ffa500;" x="202.691626" xlink:href="#m1315a8e1ec" y="10.256239"/>
    </g>
   </g>
   <g id="line2d_52">
    <defs>
     <path d="M 0 1.5 
C 0.397805 1.5 0.77937 1.341951 1.06066 1.06066 
C 1.341951 0.77937 1.5 0.397805 1.5 0 
C 1.5 -0.397805 1.341951 -0.77937 1.06066 -1.06066 
C 0.77937 -1.341951 0.397805 -1.5 0 -1.5 
C -0.397805 -1.5 -0.77937 -1.341951 -1.06066 -1.06066 
C -1.341951 -0.77937 -1.5 -0.397805 -1.5 0 
C -1.5 0.397805 -1.341951 0.77937 -1.06066 1.06066 
C -0.77937 1.341951 -0.397805 1.5 0 1.5 
z
" id="mddcf86df44" style="stroke:#6495ed;"/>
    </defs>
    <g>
     <use style="fill:#6495ed;stroke:#6495ed;" x="263.191249" xlink:href="#mddcf86df44" y="87.982571"/>
     <use style="fill:#6495ed;stroke:#6495ed;" x="263.191249" xlink:href="#mddcf86df44" y="87.982571"/>
    </g>
   </g>
   <g id="line2d_53">
    <path d="M 56.12 294.88 
L 56.12 292.643271 
L 63.08939 292.643271 
L 63.08939 288.728995 
L 75.003641 288.728995 
L 75.003641 286.492266 
L 79.948502 286.492266 
L 79.948502 278.663715 
L 81.973032 278.663715 
L 81.973032 273.071893 
L 86.917893 273.071893 
L 86.917893 271.394346 
L 89.567532 271.394346 
L 89.567532 269.716799 
L 90.753425 269.716799 
L 90.753425 269.157617 
L 93.887283 269.157617 
L 93.887283 268.039252 
L 94.816624 268.039252 
L 94.816624 265.243341 
L 96.536922 265.243341 
L 96.536922 263.006612 
L 98.100602 263.006612 
L 98.100602 261.888248 
L 99.533818 261.888248 
L 99.533818 260.769883 
L 101.481783 260.769883 
L 101.481783 260.210701 
L 102.084955 260.210701 
L 102.084955 259.651519 
L 103.231288 259.651519 
L 103.231288 257.973972 
L 104.819059 257.973972 
L 104.819059 255.178061 
L 105.317315 255.178061 
L 105.317315 253.500514 
L 105.801534 253.500514 
L 105.801534 252.941332 
L 109.250788 252.941332 
L 109.250788 252.38215 
L 110.746395 252.38215 
L 110.746395 251.263785 
L 116.478659 251.263785 
L 116.478659 249.027056 
L 123.189569 249.027056 
L 123.189569 247.34951 
L 135.447604 247.34951 
L 135.447604 246.790327 
L 136.599426 246.790327 
L 136.599426 244.553598 
L 136.836515 244.553598 
L 136.836515 242.876052 
L 137.377325 242.876052 
L 137.377325 241.757687 
L 146.081494 241.757687 
L 146.081494 241.198505 
L 147.864973 241.198505 
L 147.864973 240.639323 
L 149.405283 240.639323 
L 149.405283 240.08014 
L 150.288834 240.08014 
L 150.288834 239.520958 
L 152.34921 239.520958 
L 152.34921 238.961776 
L 154.889367 238.961776 
L 154.889367 235.606682 
L 155.349925 235.606682 
L 155.429934 233.369954 
L 155.509573 233.369954 
L 155.509573 232.810771 
L 156.83439 232.810771 
L 156.83439 232.251589 
L 158.018648 232.251589 
L 158.018648 230.574042 
L 158.448103 230.574042 
L 158.448103 230.01486 
L 158.647844 230.01486 
L 158.647844 228.896496 
L 159.508531 228.896496 
L 159.508531 228.337313 
L 160.328169 228.337313 
L 160.328169 227.218949 
L 160.801823 227.218949 
L 160.801823 225.541402 
L 163.465361 225.541402 
L 163.482025 224.423038 
L 163.762864 224.423038 
L 163.762864 223.304673 
L 166.994756 223.304673 
L 166.994756 219.94958 
L 168.32666 219.94958 
L 168.32666 218.831215 
L 168.809832 218.831215 
L 168.809832 218.272033 
L 171.537827 218.272033 
L 171.537827 217.153669 
L 174.251378 217.153669 
L 174.251378 215.476122 
L 174.966222 215.476122 
L 174.966222 214.357757 
L 176.137877 214.357757 
L 176.137877 213.239393 
L 177.069318 213.239393 
L 177.114591 211.002664 
L 177.324302 211.002664 
L 177.324302 210.443482 
L 177.960044 210.443482 
L 178.003033 209.325117 
L 178.195166 209.325117 
L 178.209313 206.529206 
L 178.399167 206.529206 
L 178.399167 205.970024 
L 178.510692 205.970024 
L 178.510692 205.410841 
L 179.930284 205.410841 
L 179.930284 204.851659 
L 180.490388 204.851659 
L 180.490388 202.055748 
L 180.675148 202.055748 
L 180.675148 201.496566 
L 181.424291 201.496566 
L 181.424291 200.937384 
L 182.113998 200.937384 
L 182.113998 199.819019 
L 182.287764 199.819019 
L 182.287764 198.700655 
L 182.481862 198.700655 
L 182.481862 197.023108 
L 183.16831 197.023108 
L 183.16831 194.786379 
L 183.720979 194.786379 
L 183.720979 193.668014 
L 184.216596 193.668014 
L 184.251457 189.194556 
L 184.804634 189.194556 
L 184.804634 188.635374 
L 185.275064 188.635374 
L 185.275064 187.51701 
L 185.783094 187.51701 
L 185.783094 186.398645 
L 186.249986 186.398645 
L 186.249986 184.721099 
L 186.876203 184.721099 
L 186.876203 184.161916 
L 187.472158 184.161916 
L 187.472158 182.48437 
L 188.454174 182.48437 
L 188.454174 181.366005 
L 188.801275 181.366005 
L 188.888866 177.451729 
L 189.175161 177.451729 
L 189.175161 176.892547 
L 190.487359 176.892547 
L 190.487359 175.774183 
L 190.642414 175.774183 
L 190.642414 174.655818 
L 190.768864 174.655818 
L 190.768864 173.537454 
L 191.202596 173.537454 
L 191.202596 172.978271 
L 191.321709 172.978271 
L 191.321709 172.419089 
L 191.459639 172.419089 
L 191.459639 170.741543 
L 191.645077 170.741543 
L 191.645077 169.063996 
L 192.577143 169.063996 
L 192.577143 168.504814 
L 193.265081 168.504814 
L 193.265081 166.827267 
L 194.002879 166.827267 
L 194.06483 162.912991 
L 194.912164 162.912991 
L 194.912164 161.794627 
L 195.573549 161.794627 
L 195.573549 160.11708 
L 195.91514 160.11708 
L 195.91514 157.321169 
L 196.960461 157.321169 
L 196.960461 155.643622 
L 197.452133 155.643622 
L 197.452133 155.08444 
L 197.840103 155.08444 
L 197.840103 154.525258 
L 198.108786 154.525258 
L 198.108786 153.966075 
L 198.329524 153.966075 
L 198.329524 151.170164 
L 198.668313 151.170164 
L 198.668313 149.492617 
L 199.613832 149.492617 
L 199.613832 148.933435 
L 200.382055 148.933435 
L 200.382055 147.815071 
L 200.956275 147.815071 
L 200.956275 147.255888 
L 201.653506 147.255888 
L 201.687817 141.664066 
L 201.78137 141.664066 
L 201.78137 140.545702 
L 201.952758 140.545702 
L 201.952758 139.427337 
L 202.169881 139.427337 
L 202.169881 138.308973 
L 207.782634 138.308973 
L 207.782634 137.190608 
L 208.151946 137.190608 
L 208.151946 136.631426 
L 208.628319 136.631426 
L 208.628319 134.394697 
L 209.027228 134.394697 
L 209.027228 132.157968 
L 210.530875 132.157968 
L 210.530875 130.480421 
L 211.152557 130.480421 
L 211.152557 129.921239 
L 211.549441 129.921239 
L 211.549441 128.802874 
L 211.978062 128.802874 
L 211.978062 128.243692 
L 212.562832 128.243692 
L 212.562832 126.006963 
L 212.711669 126.006963 
L 212.711669 125.447781 
L 213.489854 125.447781 
L 213.489854 124.329417 
L 214.094653 124.329417 
L 214.094653 123.770234 
L 214.240413 123.770234 
L 214.240413 122.65187 
L 217.339181 122.65187 
L 217.339181 122.092688 
L 217.829265 122.092688 
L 217.829265 120.974323 
L 218.063947 120.974323 
L 218.063947 120.415141 
L 219.460526 120.415141 
L 219.460526 119.855959 
L 220.240565 119.855959 
L 220.335932 116.500865 
L 221.01606 116.500865 
L 221.01606 115.941683 
L 221.33249 115.941683 
L 221.33249 115.382501 
L 223.956139 115.382501 
L 223.956139 114.823318 
L 225.528943 114.823318 
L 225.599104 109.231496 
L 225.971173 109.231496 
L 225.971173 108.672314 
L 229.567337 108.672314 
L 229.622832 106.435585 
L 229.782619 106.435585 
L 229.782619 105.876403 
L 230.342382 105.876403 
L 230.342382 105.31722 
L 232.835119 105.31722 
L 232.881018 104.198856 
L 233.478454 104.198856 
L 233.478454 102.521309 
L 235.579783 102.521309 
L 235.618916 100.843762 
L 237.980036 100.843762 
L 237.980036 99.725398 
L 240.025422 99.725398 
L 240.055645 96.929487 
L 240.27452 96.929487 
L 240.27452 96.370304 
L 241.907402 96.370304 
L 241.907402 95.25194 
L 243.55431 95.25194 
L 243.55431 94.692758 
L 245.102212 94.692758 
L 245.102212 94.133576 
L 246.480656 94.133576 
L 246.501422 93.015211 
L 247.795256 93.015211 
L 247.795256 92.456029 
L 248.980524 92.456029 
L 248.980524 91.337664 
L 253.11266 91.337664 
L 253.11266 90.778482 
L 254.944018 90.778482 
L 254.944018 90.2193 
L 257.156742 90.2193 
L 257.167903 89.100935 
L 262.142065 89.100935 
L 262.142065 88.541753 
L 263.191249 88.541753 
L 263.191249 87.982571 
L 333.168 87.982571 
L 333.168 87.982571 
" style="fill:none;stroke:#6495ed;stroke-linecap:square;stroke-width:1.5;"/>
   </g>
   <g id="line2d_54">
    <defs>
     <path d="M -0 6 
L 6 -6 
L -6 -6 
z
" id="me7f186def6" style="stroke:#6495ed;stroke-linejoin:miter;stroke-width:1.5;"/>
    </defs>
    <g>
     <use style="fill-opacity:0;stroke:#6495ed;stroke-linejoin:miter;stroke-width:1.5;" x="168.809832" xlink:href="#me7f186def6" y="218.272033"/>
     <use style="fill-opacity:0;stroke:#6495ed;stroke-linejoin:miter;stroke-width:1.5;" x="209.027228" xlink:href="#me7f186def6" y="132.157968"/>
     <use style="fill-opacity:0;stroke:#6495ed;stroke-linejoin:miter;stroke-width:1.5;" x="263.191249" xlink:href="#me7f186def6" y="87.982571"/>
     <use style="fill-opacity:0;stroke:#6495ed;stroke-linejoin:miter;stroke-width:1.5;" x="263.191249" xlink:href="#me7f186def6" y="87.982571"/>
     <use style="fill-opacity:0;stroke:#6495ed;stroke-linejoin:miter;stroke-width:1.5;" x="333.168" xlink:href="#me7f186def6" y="87.982571"/>
    </g>
   </g>
   <g id="line2d_55">
    <path style="fill:none;stroke:#6495ed;stroke-linecap:square;stroke-width:1.5;"/>
    <g/>
   </g>
   <g id="line2d_56">
    <path clip-path="url(#pd61a84554e)" d="M 202.691626 138.308973 
" style="fill:none;stroke:#6495ed;stroke-linecap:square;stroke-width:1.5;"/>
    <defs>
     <path d="M -12 12 
L 12 -12 
M -12 -12 
L 12 12 
" id="mb7c554c75d" style="stroke:#6495ed;"/>
    </defs>
    <g clip-path="url(#pd61a84554e)">
     <use style="fill:#6495ed;stroke:#6495ed;" x="202.691626" xlink:href="#mb7c554c75d" y="138.308973"/>
    </g>
   </g>
   <g id="line2d_57">
    <defs>
     <path d="M 0 1.5 
C 0.397805 1.5 0.77937 1.341951 1.06066 1.06066 
C 1.341951 0.77937 1.5 0.397805 1.5 0 
C 1.5 -0.397805 1.341951 -0.77937 1.06066 -1.06066 
C 0.77937 -1.341951 0.397805 -1.5 0 -1.5 
C -0.397805 -1.5 -0.77937 -1.341951 -1.06066 -1.06066 
C -1.341951 -0.77937 -1.5 -0.397805 -1.5 0 
C -1.5 0.397805 -1.341951 0.77937 -1.06066 1.06066 
C -0.77937 1.341951 -0.397805 1.5 0 1.5 
z
" id="m61ff1fd15d" style="stroke:#ff0000;"/>
    </defs>
    <g>
     <use style="fill:#ff0000;stroke:#ff0000;" x="267.64379" xlink:href="#m61ff1fd15d" y="199.819019"/>
     <use style="fill:#ff0000;stroke:#ff0000;" x="267.64379" xlink:href="#m61ff1fd15d" y="199.819019"/>
    </g>
   </g>
   <g id="line2d_58">
    <path d="M 44.205749 294.88 
L 44.205749 279.782079 
L 56.12 279.782079 
L 56.12 276.426986 
L 63.08939 276.426986 
L 63.08939 275.308622 
L 68.034251 275.308622 
L 68.034251 274.190257 
L 75.003641 274.190257 
L 75.003641 272.51271 
L 77.653281 272.51271 
L 77.653281 270.835164 
L 83.784035 270.835164 
L 83.784035 270.275981 
L 85.422286 270.275981 
L 85.422286 269.157617 
L 91.862754 269.157617 
L 91.862754 268.598435 
L 92.904808 268.598435 
L 92.904808 266.920888 
L 95.698286 266.920888 
L 95.698286 266.361706 
L 96.536922 266.361706 
L 96.536922 264.684159 
L 98.100602 264.684159 
L 98.100602 263.006612 
L 100.856673 263.006612 
L 100.856673 261.329066 
L 104.305927 261.329066 
L 104.305927 260.769883 
L 106.272485 260.769883 
L 106.272485 260.210701 
L 107.612537 260.210701 
L 107.612537 259.651519 
L 109.637066 259.651519 
L 109.637066 259.092337 
L 111.448069 259.092337 
L 111.448069 258.533154 
L 111.788449 258.533154 
L 111.788449 257.973972 
L 116.73331 257.973972 
L 116.73331 256.855608 
L 117.952873 256.855608 
L 117.952873 255.737243 
L 122.298767 255.737243 
L 122.298767 255.178061 
L 136.836515 255.178061 
L 136.836515 254.618879 
L 138.4819 254.618879 
L 138.4819 253.500514 
L 144.447825 253.500514 
L 144.447825 251.263785 
L 145.569751 251.263785 
L 145.569751 250.145421 
L 159.799871 250.145421 
L 159.799871 249.027056 
L 161.186803 249.027056 
L 161.186803 247.908692 
L 161.451249 247.908692 
L 161.451249 246.790327 
L 166.302131 246.790327 
L 166.302131 245.671963 
L 169.064483 245.671963 
L 169.064483 245.112781 
L 171.094361 245.112781 
L 171.094361 244.553598 
L 177.264645 244.553598 
L 177.264645 243.435234 
L 177.714384 243.435234 
L 177.714384 242.876052 
L 178.96323 242.876052 
L 178.976759 240.639323 
L 184.236525 240.639323 
L 184.236525 240.08014 
L 189.632274 240.08014 
L 189.632274 238.402594 
L 195.788473 238.402594 
L 195.788473 237.843411 
L 197.123567 237.843411 
L 197.123567 236.725047 
L 197.587776 236.725047 
L 197.587776 235.606682 
L 200.583298 235.606682 
L 200.583298 233.929136 
L 200.924244 233.929136 
L 200.924244 233.369954 
L 201.734657 233.369954 
L 201.734657 232.810771 
L 203.300137 232.810771 
L 203.300137 232.251589 
L 204.185247 232.251589 
L 204.185247 231.133225 
L 205.22932 231.133225 
L 205.22932 230.01486 
L 206.547226 230.01486 
L 206.547226 227.778131 
L 209.157387 227.778131 
L 209.157387 227.218949 
L 211.498545 227.218949 
L 211.498545 226.659767 
L 212.436844 226.659767 
L 212.436844 226.100584 
L 214.893592 226.100584 
L 214.893592 225.541402 
L 215.368906 225.541402 
L 215.368906 224.423038 
L 215.921514 224.423038 
L 215.921514 223.304673 
L 216.296491 223.304673 
L 216.296491 222.745491 
L 216.641558 222.745491 
L 216.641558 221.067944 
L 217.93264 221.067944 
L 217.93264 220.508762 
L 220.036446 220.508762 
L 220.036446 219.390397 
L 220.16007 219.390397 
L 220.16007 218.831215 
L 221.262161 218.831215 
L 221.262161 218.272033 
L 222.958813 218.272033 
L 222.958813 217.153669 
L 224.440632 217.153669 
L 224.440632 216.594486 
L 225.379119 216.594486 
L 225.469803 213.798575 
L 226.285835 213.798575 
L 226.285835 213.239393 
L 229.448993 213.239393 
L 229.448993 211.561846 
L 230.168482 211.561846 
L 230.168482 211.002664 
L 230.302145 211.002664 
L 230.302145 210.443482 
L 235.496455 210.443482 
L 235.496455 209.884299 
L 236.005667 209.884299 
L 236.005667 208.765935 
L 238.400952 208.765935 
L 238.400952 208.206753 
L 238.966344 208.206753 
L 238.966344 207.64757 
L 243.50196 207.64757 
L 243.533611 205.970024 
L 245.381492 205.970024 
L 245.381492 205.410841 
L 247.759807 205.410841 
L 247.759807 203.733295 
L 250.092005 203.733295 
L 250.092005 203.174112 
L 253.086651 203.174112 
L 253.086651 202.61493 
L 256.408363 202.61493 
L 256.408363 202.055748 
L 257.147363 202.055748 
L 257.147363 201.496566 
L 257.855897 201.496566 
L 257.855897 200.937384 
L 258.536376 200.937384 
L 258.536376 200.378201 
L 267.64379 200.378201 
L 267.64379 199.819019 
L 333.168 199.819019 
L 333.168 199.819019 
" style="fill:none;stroke:#ff0000;stroke-linecap:square;stroke-width:1.5;"/>
   </g>
   <g id="line2d_59">
    <defs>
     <path d="M 0 -6 
L -5.196152 -3 
L -5.196152 3 
L -0 6 
L 5.196152 3 
L 5.196152 -3 
z
" id="m9a4e46bc15" style="stroke:#ff0000;stroke-linejoin:miter;stroke-width:1.5;"/>
    </defs>
    <g>
     <use style="fill-opacity:0;stroke:#ff0000;stroke-linejoin:miter;stroke-width:1.5;" x="98.100602" xlink:href="#m9a4e46bc15" y="264.684159"/>
     <use style="fill-opacity:0;stroke:#ff0000;stroke-linejoin:miter;stroke-width:1.5;" x="166.302131" xlink:href="#m9a4e46bc15" y="246.790327"/>
     <use style="fill-opacity:0;stroke:#ff0000;stroke-linejoin:miter;stroke-width:1.5;" x="230.302145" xlink:href="#m9a4e46bc15" y="210.443482"/>
     <use style="fill-opacity:0;stroke:#ff0000;stroke-linejoin:miter;stroke-width:1.5;" x="267.64379" xlink:href="#m9a4e46bc15" y="199.819019"/>
     <use style="fill-opacity:0;stroke:#ff0000;stroke-linejoin:miter;stroke-width:1.5;" x="267.64379" xlink:href="#m9a4e46bc15" y="199.819019"/>
     <use style="fill-opacity:0;stroke:#ff0000;stroke-linejoin:miter;stroke-width:1.5;" x="333.168" xlink:href="#m9a4e46bc15" y="199.819019"/>
    </g>
   </g>
   <g id="line2d_60">
    <path style="fill:none;stroke:#ff0000;stroke-linecap:square;stroke-width:1.5;"/>
    <g/>
   </g>
   <g id="line2d_61">
    <path clip-path="url(#pd61a84554e)" d="M 202.691626 232.810771 
" style="fill:none;stroke:#ff0000;stroke-linecap:square;stroke-width:1.5;"/>
    <defs>
     <path d="M -12 12 
L 12 -12 
M -12 -12 
L 12 12 
" id="mcb66cdf710" style="stroke:#ff0000;"/>
    </defs>
    <g clip-path="url(#pd61a84554e)">
     <use style="fill:#ff0000;stroke:#ff0000;" x="202.691626" xlink:href="#mcb66cdf710" y="232.810771"/>
    </g>
   </g>
   <g id="line2d_62">
    <path d="M 333.168 216.594486 
L 363.64328 289.176341 
" style="fill:none;stroke:#000080;stroke-linecap:square;stroke-width:1.5;"/>
    <g>
     <use style="fill-opacity:0;stroke:#000080;stroke-width:1.5;" x="333.168" xlink:href="#m53398e746d" y="216.594486"/>
     <use style="fill-opacity:0;stroke:#000080;stroke-width:1.5;" x="363.64328" xlink:href="#m53398e746d" y="289.176341"/>
    </g>
   </g>
   <g id="line2d_63">
    <path d="M 333.168 199.819019 
L 363.64328 220.732435 
" style="fill:none;stroke:#ff0000;stroke-linecap:square;stroke-width:1.5;"/>
    <g>
     <use style="fill-opacity:0;stroke:#ff0000;stroke-linejoin:miter;stroke-width:1.5;" x="333.168" xlink:href="#m9a4e46bc15" y="199.819019"/>
     <use style="fill-opacity:0;stroke:#ff0000;stroke-linejoin:miter;stroke-width:1.5;" x="363.64328" xlink:href="#m9a4e46bc15" y="220.732435"/>
    </g>
   </g>
   <g id="line2d_64">
    <path d="M 333.168 87.982571 
L 363.64328 152.288529 
" style="fill:none;stroke:#6495ed;stroke-linecap:square;stroke-width:1.5;"/>
    <g>
     <use style="fill-opacity:0;stroke:#6495ed;stroke-linejoin:miter;stroke-width:1.5;" x="333.168" xlink:href="#me7f186def6" y="87.982571"/>
     <use style="fill-opacity:0;stroke:#6495ed;stroke-linejoin:miter;stroke-width:1.5;" x="363.64328" xlink:href="#me7f186def6" y="152.288529"/>
    </g>
   </g>
   <g id="line2d_65">
    <path d="M 333.168 9.697057 
L 363.64328 83.844622 
" style="fill:none;stroke:#ff00ff;stroke-linecap:square;stroke-width:1.5;"/>
    <g>
     <use style="fill-opacity:0;stroke:#ff00ff;stroke-linejoin:miter;stroke-width:1.5;" x="333.168" xlink:href="#m74660fb21b" y="9.697057"/>
     <use style="fill-opacity:0;stroke:#ff00ff;stroke-linejoin:miter;stroke-width:1.5;" x="363.64328" xlink:href="#m74660fb21b" y="83.844622"/>
    </g>
   </g>
   <g id="line2d_66">
    <path d="M 333.168 9.697057 
L 363.64328 15.400716 
" style="fill:none;stroke:#ffa500;stroke-linecap:square;stroke-width:1.5;"/>
    <g>
     <use style="fill-opacity:0;stroke:#ffa500;stroke-linejoin:bevel;stroke-width:1.5;" x="333.168" xlink:href="#mba0f951e68" y="9.697057"/>
     <use style="fill-opacity:0;stroke:#ffa500;stroke-linejoin:bevel;stroke-width:1.5;" x="363.64328" xlink:href="#mba0f951e68" y="15.400716"/>
    </g>
   </g>
   <g id="line2d_67">
    <path d="M 333.168 294.88 
L 333.168 9.697057 
" style="fill:none;stroke:#000000;stroke-linecap:square;stroke-width:1.5;"/>
   </g>
   <g id="patch_3">
    <path d="M 56.12 294.88 
L 56.12 6.845228 
" style="fill:none;stroke:#000000;stroke-linecap:square;stroke-linejoin:miter;stroke-width:0.8;"/>
   </g>
   <g id="patch_4">
    <path d="M 333.168 294.88 
L 333.168 6.845228 
" style="fill:none;stroke:#000000;stroke-linecap:square;stroke-linejoin:miter;stroke-width:0.8;"/>
   </g>
   <g id="patch_5">
    <path d="M 56.12 294.88 
L 333.168 294.88 
" style="fill:none;stroke:#000000;stroke-linecap:square;stroke-linejoin:miter;stroke-width:0.8;"/>
   </g>
   <g id="patch_6">
    <path d="M 56.12 6.845228 
L 333.168 6.845228 
" style="fill:none;stroke:#000000;stroke-linecap:square;stroke-linejoin:miter;stroke-width:0.8;"/>
   </g>
   <g id="text_13">
    <!-- f23 -->
    <defs>
     <path d="M 40.578125 39.3125 
Q 47.65625 37.796875 51.625 33 
Q 55.609375 28.21875 55.609375 21.1875 
Q 55.609375 10.40625 48.1875 4.484375 
Q 40.765625 -1.421875 27.09375 -1.421875 
Q 22.515625 -1.421875 17.65625 -0.515625 
Q 12.796875 0.390625 7.625 2.203125 
L 7.625 11.71875 
Q 11.71875 9.328125 16.59375 8.109375 
Q 21.484375 6.890625 26.8125 6.890625 
Q 36.078125 6.890625 40.9375 10.546875 
Q 45.796875 14.203125 45.796875 21.1875 
Q 45.796875 27.640625 41.28125 31.265625 
Q 36.765625 34.90625 28.71875 34.90625 
L 20.21875 34.90625 
L 20.21875 43.015625 
L 29.109375 43.015625 
Q 36.375 43.015625 40.234375 45.921875 
Q 44.09375 48.828125 44.09375 54.296875 
Q 44.09375 59.90625 40.109375 62.90625 
Q 36.140625 65.921875 28.71875 65.921875 
Q 24.65625 65.921875 20.015625 65.03125 
Q 15.375 64.15625 9.8125 62.3125 
L 9.8125 71.09375 
Q 15.4375 72.65625 20.34375 73.4375 
Q 25.25 74.21875 29.59375 74.21875 
Q 40.828125 74.21875 47.359375 69.109375 
Q 53.90625 64.015625 53.90625 55.328125 
Q 53.90625 49.265625 50.4375 45.09375 
Q 46.96875 40.921875 40.578125 39.3125 
z
" id="DejaVuSans-33"/>
    </defs>
    <g transform="translate(369.18424 293.867279)scale(0.17 -0.17)">
     <use xlink:href="#DejaVuSans-66"/>
     <use x="35.205078" xlink:href="#DejaVuSans-32"/>
     <use x="98.828125" xlink:href="#DejaVuSans-33"/>
    </g>
   </g>
   <g id="text_14">
    <!-- f24 -->
    <g transform="translate(369.18424 225.423372)scale(0.17 -0.17)">
     <use xlink:href="#DejaVuSans-66"/>
     <use x="35.205078" xlink:href="#DejaVuSans-32"/>
     <use x="98.828125" xlink:href="#DejaVuSans-34"/>
    </g>
   </g>
   <g id="text_15">
    <!-- f20 -->
    <g transform="translate(369.18424 156.979466)scale(0.17 -0.17)">
     <use xlink:href="#DejaVuSans-66"/>
     <use x="35.205078" xlink:href="#DejaVuSans-32"/>
     <use x="98.828125" xlink:href="#DejaVuSans-30"/>
    </g>
   </g>
   <g id="text_16">
    <!-- f22 -->
    <g transform="translate(369.18424 88.53556)scale(0.17 -0.17)">
     <use xlink:href="#DejaVuSans-66"/>
     <use x="35.205078" xlink:href="#DejaVuSans-32"/>
     <use x="98.828125" xlink:href="#DejaVuSans-32"/>
    </g>
   </g>
   <g id="text_17">
    <!-- f21 -->
    <g transform="translate(369.18424 20.091654)scale(0.17 -0.17)">
     <use xlink:href="#DejaVuSans-66"/>
     <use x="35.205078" xlink:href="#DejaVuSans-32"/>
     <use x="98.828125" xlink:href="#DejaVuSans-31"/>
    </g>
   </g>
   <g id="text_18">
    <!-- bbob -->
    <defs>
     <path d="M 48.6875 27.296875 
Q 48.6875 37.203125 44.609375 42.84375 
Q 40.53125 48.484375 33.40625 48.484375 
Q 26.265625 48.484375 22.1875 42.84375 
Q 18.109375 37.203125 18.109375 27.296875 
Q 18.109375 17.390625 22.1875 11.75 
Q 26.265625 6.109375 33.40625 6.109375 
Q 40.53125 6.109375 44.609375 11.75 
Q 48.6875 17.390625 48.6875 27.296875 
z
M 18.109375 46.390625 
Q 20.953125 51.265625 25.265625 53.625 
Q 29.59375 56 35.59375 56 
Q 45.5625 56 51.78125 48.09375 
Q 58.015625 40.1875 58.015625 27.296875 
Q 58.015625 14.40625 51.78125 6.484375 
Q 45.5625 -1.421875 35.59375 -1.421875 
Q 29.59375 -1.421875 25.265625 0.953125 
Q 20.953125 3.328125 18.109375 8.203125 
L 18.109375 0 
L 9.078125 0 
L 9.078125 75.984375 
L 18.109375 75.984375 
z
" id="DejaVuSans-62"/>
    </defs>
    <g transform="translate(58.89048 17.475982)scale(0.102 -0.102)">
     <use xlink:href="#DejaVuSans-62"/>
     <use x="63.476562" xlink:href="#DejaVuSans-62"/>
     <use x="126.953125" xlink:href="#DejaVuSans-6f"/>
     <use x="188.134766" xlink:href="#DejaVuSans-62"/>
    </g>
    <!-- Weak structure functions, 2-D -->
    <defs>
     <path d="M 3.328125 72.90625 
L 13.28125 72.90625 
L 28.609375 11.28125 
L 43.890625 72.90625 
L 54.984375 72.90625 
L 70.3125 11.28125 
L 85.59375 72.90625 
L 95.609375 72.90625 
L 77.296875 0 
L 64.890625 0 
L 49.515625 63.28125 
L 33.984375 0 
L 21.578125 0 
z
" id="DejaVuSans-57"/>
     <path d="M 9.078125 75.984375 
L 18.109375 75.984375 
L 18.109375 31.109375 
L 44.921875 54.6875 
L 56.390625 54.6875 
L 27.390625 29.109375 
L 57.625 0 
L 45.90625 0 
L 18.109375 26.703125 
L 18.109375 0 
L 9.078125 0 
z
" id="DejaVuSans-6b"/>
     <path d="M 19.671875 64.796875 
L 19.671875 8.109375 
L 31.59375 8.109375 
Q 46.6875 8.109375 53.6875 14.9375 
Q 60.6875 21.78125 60.6875 36.53125 
Q 60.6875 51.171875 53.6875 57.984375 
Q 46.6875 64.796875 31.59375 64.796875 
z
M 9.8125 72.90625 
L 30.078125 72.90625 
Q 51.265625 72.90625 61.171875 64.09375 
Q 71.09375 55.28125 71.09375 36.53125 
Q 71.09375 17.671875 61.125 8.828125 
Q 51.171875 0 30.078125 0 
L 9.8125 0 
z
" id="DejaVuSans-44"/>
    </defs>
    <g transform="translate(58.89048 28.89775)scale(0.102 -0.102)">
     <use xlink:href="#DejaVuSans-57"/>
     <use x="98.798828" xlink:href="#DejaVuSans-65"/>
     <use x="160.322266" xlink:href="#DejaVuSans-61"/>
     <use x="221.601562" xlink:href="#DejaVuSans-6b"/>
     <use x="279.511719" xlink:href="#DejaVuSans-20"/>
     <use x="311.298828" xlink:href="#DejaVuSans-73"/>
     <use x="363.398438" xlink:href="#DejaVuSans-74"/>
     <use x="402.607422" xlink:href="#DejaVuSans-72"/>
     <use x="443.720703" xlink:href="#DejaVuSans-75"/>
     <use x="507.099609" xlink:href="#DejaVuSans-63"/>
     <use x="562.080078" xlink:href="#DejaVuSans-74"/>
     <use x="601.289062" xlink:href="#DejaVuSans-75"/>
     <use x="664.667969" xlink:href="#DejaVuSans-72"/>
     <use x="705.75" xlink:href="#DejaVuSans-65"/>
     <use x="767.273438" xlink:href="#DejaVuSans-20"/>
     <use x="799.060547" xlink:href="#DejaVuSans-66"/>
     <use x="834.265625" xlink:href="#DejaVuSans-75"/>
     <use x="897.644531" xlink:href="#DejaVuSans-6e"/>
     <use x="961.023438" xlink:href="#DejaVuSans-63"/>
     <use x="1016.003906" xlink:href="#DejaVuSans-74"/>
     <use x="1055.212891" xlink:href="#DejaVuSans-69"/>
     <use x="1082.996094" xlink:href="#DejaVuSans-6f"/>
     <use x="1144.177734" xlink:href="#DejaVuSans-6e"/>
     <use x="1207.556641" xlink:href="#DejaVuSans-73"/>
     <use x="1259.65625" xlink:href="#DejaVuSans-2c"/>
     <use x="1291.443359" xlink:href="#DejaVuSans-20"/>
     <use x="1323.230469" xlink:href="#DejaVuSans-32"/>
     <use x="1386.853516" xlink:href="#DejaVuSans-2d"/>
     <use x="1422.9375" xlink:href="#DejaVuSans-44"/>
    </g>
    <!-- 51 targets: 100..1e-08 -->
    <defs>
     <path d="M 10.796875 72.90625 
L 49.515625 72.90625 
L 49.515625 64.59375 
L 19.828125 64.59375 
L 19.828125 46.734375 
Q 21.96875 47.46875 24.109375 47.828125 
Q 26.265625 48.1875 28.421875 48.1875 
Q 40.625 48.1875 47.75 41.5 
Q 54.890625 34.8125 54.890625 23.390625 
Q 54.890625 11.625 47.5625 5.09375 
Q 40.234375 -1.421875 26.90625 -1.421875 
Q 22.3125 -1.421875 17.546875 -0.640625 
Q 12.796875 0.140625 7.71875 1.703125 
L 7.71875 11.625 
Q 12.109375 9.234375 16.796875 8.0625 
Q 21.484375 6.890625 26.703125 6.890625 
Q 35.15625 6.890625 40.078125 11.328125 
Q 45.015625 15.765625 45.015625 23.390625 
Q 45.015625 31 40.078125 35.4375 
Q 35.15625 39.890625 26.703125 39.890625 
Q 22.75 39.890625 18.8125 39.015625 
Q 14.890625 38.140625 10.796875 36.28125 
z
" id="DejaVuSans-35"/>
     <path d="M 11.71875 12.40625 
L 22.015625 12.40625 
L 22.015625 0 
L 11.71875 0 
z
M 11.71875 51.703125 
L 22.015625 51.703125 
L 22.015625 39.3125 
L 11.71875 39.3125 
z
" id="DejaVuSans-3a"/>
    </defs>
    <g transform="translate(58.89048 40.319519)scale(0.102 -0.102)">
     <use xlink:href="#DejaVuSans-35"/>
     <use x="63.623047" xlink:href="#DejaVuSans-31"/>
     <use x="127.246094" xlink:href="#DejaVuSans-20"/>
     <use x="159.033203" xlink:href="#DejaVuSans-74"/>
     <use x="198.242188" xlink:href="#DejaVuSans-61"/>
     <use x="259.521484" xlink:href="#DejaVuSans-72"/>
     <use x="300.619141" xlink:href="#DejaVuSans-67"/>
     <use x="364.095703" xlink:href="#DejaVuSans-65"/>
     <use x="425.619141" xlink:href="#DejaVuSans-74"/>
     <use x="464.828125" xlink:href="#DejaVuSans-73"/>
     <use x="516.927734" xlink:href="#DejaVuSans-3a"/>
     <use x="550.619141" xlink:href="#DejaVuSans-20"/>
     <use x="582.40625" xlink:href="#DejaVuSans-31"/>
     <use x="646.029297" xlink:href="#DejaVuSans-30"/>
     <use x="709.652344" xlink:href="#DejaVuSans-30"/>
     <use x="773.275391" xlink:href="#DejaVuSans-2e"/>
     <use x="805.0625" xlink:href="#DejaVuSans-2e"/>
     <use x="836.849609" xlink:href="#DejaVuSans-31"/>
     <use x="900.472656" xlink:href="#DejaVuSans-65"/>
     <use x="961.996094" xlink:href="#DejaVuSans-2d"/>
     <use x="998.080078" xlink:href="#DejaVuSans-30"/>
     <use x="1061.703125" xlink:href="#DejaVuSans-38"/>
    </g>
    <!-- 15 instances -->
    <g transform="translate(58.89048 51.741288)scale(0.102 -0.102)">
     <use xlink:href="#DejaVuSans-31"/>
     <use x="63.623047" xlink:href="#DejaVuSans-35"/>
     <use x="127.246094" xlink:href="#DejaVuSans-20"/>
     <use x="159.033203" xlink:href="#DejaVuSans-69"/>
     <use x="186.816406" xlink:href="#DejaVuSans-6e"/>
     <use x="250.195312" xlink:href="#DejaVuSans-73"/>
     <use x="302.294922" xlink:href="#DejaVuSans-74"/>
     <use x="341.503906" xlink:href="#DejaVuSans-61"/>
     <use x="402.783203" xlink:href="#DejaVuSans-6e"/>
     <use x="466.162109" xlink:href="#DejaVuSans-63"/>
     <use x="521.142578" xlink:href="#DejaVuSans-65"/>
     <use x="582.666016" xlink:href="#DejaVuSans-73"/>
    </g>
   </g>
   <g id="text_19">
    <!-- v0.0.0 -->
    <g style="fill:#808080;" transform="translate(178.96275 289.919965)scale(0.1 -0.1)">
     <use xlink:href="#DejaVuSans-76"/>
     <use x="59.179688" xlink:href="#DejaVuSans-30"/>
     <use x="122.802734" xlink:href="#DejaVuSans-2e"/>
     <use x="154.589844" xlink:href="#DejaVuSans-30"/>
     <use x="218.212891" xlink:href="#DejaVuSans-2e"/>
     <use x="250" xlink:href="#DejaVuSans-30"/>
    </g>
   </g>
  </g>
 </g>
 <defs>
  <clipPath id="pd61a84554e">
   <rect height="288.034772" width="277.048" x="56.12" y="6.845228"/>
  </clipPath>
 </defs>
</svg>
