<?xml version="1.0" encoding="utf-8" standalone="no"?>
<!DOCTYPE svg PUBLIC "-//W3C//DTD SVG 1.1//EN"
  "http://www.w3.org/Graphics/SVG/1.1/DTD/svg11.dtd">
<!-- Created with matplotlib (http://matplotlib.org/) -->
<svg height="345.6pt" version="1.1" viewBox="0 0 460.8 345.6" width="460.8pt" xmlns="http://www.w3.org/2000/svg" xmlns:xlink="http://www.w3.org/1999/xlink">
 <defs>
  <style type="text/css">
*{stroke-linecap:butt;stroke-linejoin:round;}
  </style>
 </defs>
 <g id="figure_1">
  <g id="patch_1">
   <path d="M 0 345.6 
L 460.8 345.6 
L 460.8 0 
L 0 0 
z
" style="fill:#ffffff;"/>
  </g>
  <g id="axes_1">
   <g id="patch_2">
    <path d="M 56.12 294.88 
L 333.168 294.88 
L 333.168 6.845228 
L 56.12 6.845228 
z
" style="fill:#ffffff;"/>
   </g>
   <g id="matplotlib.axis_1">
    <g id="xtick_1">
     <g id="line2d_1">
      <path clip-path="url(#p578f0577fe)" d="M 56.12 294.88 
L 56.12 6.845228 
" style="fill:none;stroke:#b0b0b0;stroke-linecap:square;stroke-width:0.8;"/>
     </g>
     <g id="line2d_2">
      <defs>
       <path d="M 0 0 
L 0 3.5 
" id="m3e84c8bc44" style="stroke:#000000;stroke-width:0.8;"/>
      </defs>
      <g>
       <use style="stroke:#000000;stroke-width:0.8;" x="56.12" xlink:href="#m3e84c8bc44" y="294.88"/>
      </g>
     </g>
     <g id="text_1">
      <!-- 0 -->
      <defs>
       <path d="M 31.78125 66.40625 
Q 24.171875 66.40625 20.328125 58.90625 
Q 16.5 51.421875 16.5 36.375 
Q 16.5 21.390625 20.328125 13.890625 
Q 24.171875 6.390625 31.78125 6.390625 
Q 39.453125 6.390625 43.28125 13.890625 
Q 47.125 21.390625 47.125 36.375 
Q 47.125 51.421875 43.28125 58.90625 
Q 39.453125 66.40625 31.78125 66.40625 
z
M 31.78125 74.21875 
Q 44.046875 74.21875 50.515625 64.515625 
Q 56.984375 54.828125 56.984375 36.375 
Q 56.984375 17.96875 50.515625 8.265625 
Q 44.046875 -1.421875 31.78125 -1.421875 
Q 19.53125 -1.421875 13.0625 8.265625 
Q 6.59375 17.96875 6.59375 36.375 
Q 6.59375 54.828125 13.0625 64.515625 
Q 19.53125 74.21875 31.78125 74.21875 
z
" id="DejaVuSans-30"/>
      </defs>
      <g transform="translate(49.7575 317.076875)scale(0.2 -0.2)">
       <use xlink:href="#DejaVuSans-30"/>
      </g>
     </g>
    </g>
    <g id="xtick_2">
     <g id="line2d_3">
      <path clip-path="url(#p578f0577fe)" d="M 135.276571 294.88 
L 135.276571 6.845228 
" style="fill:none;stroke:#b0b0b0;stroke-linecap:square;stroke-width:0.8;"/>
     </g>
     <g id="line2d_4">
      <g>
       <use style="stroke:#000000;stroke-width:0.8;" x="135.276571" xlink:href="#m3e84c8bc44" y="294.88"/>
      </g>
     </g>
     <g id="text_2">
      <!-- 2 -->
      <defs>
       <path d="M 19.1875 8.296875 
L 53.609375 8.296875 
L 53.609375 0 
L 7.328125 0 
L 7.328125 8.296875 
Q 12.9375 14.109375 22.625 23.890625 
Q 32.328125 33.6875 34.8125 36.53125 
Q 39.546875 41.84375 41.421875 45.53125 
Q 43.3125 49.21875 43.3125 52.78125 
Q 43.3125 58.59375 39.234375 62.25 
Q 35.15625 65.921875 28.609375 65.921875 
Q 23.96875 65.921875 18.8125 64.3125 
Q 13.671875 62.703125 7.8125 59.421875 
L 7.8125 69.390625 
Q 13.765625 71.78125 18.9375 73 
Q 24.125 74.21875 28.421875 74.21875 
Q 39.75 74.21875 46.484375 68.546875 
Q 53.21875 62.890625 53.21875 53.421875 
Q 53.21875 48.921875 51.53125 44.890625 
Q 49.859375 40.875 45.40625 35.40625 
Q 44.1875 33.984375 37.640625 27.21875 
Q 31.109375 20.453125 19.1875 8.296875 
z
" id="DejaVuSans-32"/>
      </defs>
      <g transform="translate(128.914071 317.076875)scale(0.2 -0.2)">
       <use xlink:href="#DejaVuSans-32"/>
      </g>
     </g>
    </g>
    <g id="xtick_3">
     <g id="line2d_5">
      <path clip-path="url(#p578f0577fe)" d="M 214.433143 294.88 
L 214.433143 6.845228 
" style="fill:none;stroke:#b0b0b0;stroke-linecap:square;stroke-width:0.8;"/>
     </g>
     <g id="line2d_6">
      <g>
       <use style="stroke:#000000;stroke-width:0.8;" x="214.433143" xlink:href="#m3e84c8bc44" y="294.88"/>
      </g>
     </g>
     <g id="text_3">
      <!-- 4 -->
      <defs>
       <path d="M 37.796875 64.3125 
L 12.890625 25.390625 
L 37.796875 25.390625 
z
M 35.203125 72.90625 
L 47.609375 72.90625 
L 47.609375 25.390625 
L 58.015625 25.390625 
L 58.015625 17.1875 
L 47.609375 17.1875 
L 47.609375 0 
L 37.796875 0 
L 37.796875 17.1875 
L 4.890625 17.1875 
L 4.890625 26.703125 
z
" id="DejaVuSans-34"/>
      </defs>
      <g transform="translate(208.070643 317.076875)scale(0.2 -0.2)">
       <use xlink:href="#DejaVuSans-34"/>
      </g>
     </g>
    </g>
    <g id="xtick_4">
     <g id="line2d_7">
      <path clip-path="url(#p578f0577fe)" d="M 293.589714 294.88 
L 293.589714 6.845228 
" style="fill:none;stroke:#b0b0b0;stroke-linecap:square;stroke-width:0.8;"/>
     </g>
     <g id="line2d_8">
      <g>
       <use style="stroke:#000000;stroke-width:0.8;" x="293.589714" xlink:href="#m3e84c8bc44" y="294.88"/>
      </g>
     </g>
     <g id="text_4">
      <!-- 6 -->
      <defs>
       <path d="M 33.015625 40.375 
Q 26.375 40.375 22.484375 35.828125 
Q 18.609375 31.296875 18.609375 23.390625 
Q 18.609375 15.53125 22.484375 10.953125 
Q 26.375 6.390625 33.015625 6.390625 
Q 39.65625 6.390625 43.53125 10.953125 
Q 47.40625 15.53125 47.40625 23.390625 
Q 47.40625 31.296875 43.53125 35.828125 
Q 39.65625 40.375 33.015625 40.375 
z
M 52.59375 71.296875 
L 52.59375 62.3125 
Q 48.875 64.0625 45.09375 64.984375 
Q 41.3125 65.921875 37.59375 65.921875 
Q 27.828125 65.921875 22.671875 59.328125 
Q 17.53125 52.734375 16.796875 39.40625 
Q 19.671875 43.65625 24.015625 45.921875 
Q 28.375 48.1875 33.59375 48.1875 
Q 44.578125 48.1875 50.953125 41.515625 
Q 57.328125 34.859375 57.328125 23.390625 
Q 57.328125 12.15625 50.6875 5.359375 
Q 44.046875 -1.421875 33.015625 -1.421875 
Q 20.359375 -1.421875 13.671875 8.265625 
Q 6.984375 17.96875 6.984375 36.375 
Q 6.984375 53.65625 15.1875 63.9375 
Q 23.390625 74.21875 37.203125 74.21875 
Q 40.921875 74.21875 44.703125 73.484375 
Q 48.484375 72.75 52.59375 71.296875 
z
" id="DejaVuSans-36"/>
      </defs>
      <g transform="translate(287.227214 317.076875)scale(0.2 -0.2)">
       <use xlink:href="#DejaVuSans-36"/>
      </g>
     </g>
    </g>
    <g id="xtick_5">
     <g id="line2d_9">
      <path clip-path="url(#p578f0577fe)" d="M 56.12 294.88 
L 56.12 6.845228 
" style="fill:none;stroke:#b0b0b0;stroke-linecap:square;stroke-width:0.8;"/>
     </g>
     <g id="line2d_10">
      <defs>
       <path d="M 0 0 
L 0 2 
" id="mce3d21c563" style="stroke:#000000;stroke-width:0.6;"/>
      </defs>
      <g>
       <use style="stroke:#000000;stroke-width:0.6;" x="56.12" xlink:href="#mce3d21c563" y="294.88"/>
      </g>
     </g>
    </g>
    <g id="xtick_6">
     <g id="line2d_11">
      <path clip-path="url(#p578f0577fe)" d="M 95.698286 294.88 
L 95.698286 6.845228 
" style="fill:none;stroke:#b0b0b0;stroke-linecap:square;stroke-width:0.8;"/>
     </g>
     <g id="line2d_12">
      <g>
       <use style="stroke:#000000;stroke-width:0.6;" x="95.698286" xlink:href="#mce3d21c563" y="294.88"/>
      </g>
     </g>
    </g>
    <g id="xtick_7">
     <g id="line2d_13">
      <path clip-path="url(#p578f0577fe)" d="M 135.276571 294.88 
L 135.276571 6.845228 
" style="fill:none;stroke:#b0b0b0;stroke-linecap:square;stroke-width:0.8;"/>
     </g>
     <g id="line2d_14">
      <g>
       <use style="stroke:#000000;stroke-width:0.6;" x="135.276571" xlink:href="#mce3d21c563" y="294.88"/>
      </g>
     </g>
    </g>
    <g id="xtick_8">
     <g id="line2d_15">
      <path clip-path="url(#p578f0577fe)" d="M 174.854857 294.88 
L 174.854857 6.845228 
" style="fill:none;stroke:#b0b0b0;stroke-linecap:square;stroke-width:0.8;"/>
     </g>
     <g id="line2d_16">
      <g>
       <use style="stroke:#000000;stroke-width:0.6;" x="174.854857" xlink:href="#mce3d21c563" y="294.88"/>
      </g>
     </g>
    </g>
    <g id="xtick_9">
     <g id="line2d_17">
      <path clip-path="url(#p578f0577fe)" d="M 214.433143 294.88 
L 214.433143 6.845228 
" style="fill:none;stroke:#b0b0b0;stroke-linecap:square;stroke-width:0.8;"/>
     </g>
     <g id="line2d_18">
      <g>
       <use style="stroke:#000000;stroke-width:0.6;" x="214.433143" xlink:href="#mce3d21c563" y="294.88"/>
      </g>
     </g>
    </g>
    <g id="xtick_10">
     <g id="line2d_19">
      <path clip-path="url(#p578f0577fe)" d="M 254.011429 294.88 
L 254.011429 6.845228 
" style="fill:none;stroke:#b0b0b0;stroke-linecap:square;stroke-width:0.8;"/>
     </g>
     <g id="line2d_20">
      <g>
       <use style="stroke:#000000;stroke-width:0.6;" x="254.011429" xlink:href="#mce3d21c563" y="294.88"/>
      </g>
     </g>
    </g>
    <g id="xtick_11">
     <g id="line2d_21">
      <path clip-path="url(#p578f0577fe)" d="M 293.589714 294.88 
L 293.589714 6.845228 
" style="fill:none;stroke:#b0b0b0;stroke-linecap:square;stroke-width:0.8;"/>
     </g>
     <g id="line2d_22">
      <g>
       <use style="stroke:#000000;stroke-width:0.6;" x="293.589714" xlink:href="#mce3d21c563" y="294.88"/>
      </g>
     </g>
    </g>
    <g id="xtick_12">
     <g id="line2d_23">
      <path clip-path="url(#p578f0577fe)" d="M 333.168 294.88 
L 333.168 6.845228 
" style="fill:none;stroke:#b0b0b0;stroke-linecap:square;stroke-width:0.8;"/>
     </g>
     <g id="line2d_24">
      <g>
       <use style="stroke:#000000;stroke-width:0.6;" x="333.168" xlink:href="#mce3d21c563" y="294.88"/>
      </g>
     </g>
    </g>
    <g id="text_5">
     <!-- log10(# f-evals / dimension) -->
     <defs>
      <path d="M 9.421875 75.984375 
L 18.40625 75.984375 
L 18.40625 0 
L 9.421875 0 
z
" id="DejaVuSans-6c"/>
      <path d="M 30.609375 48.390625 
Q 23.390625 48.390625 19.1875 42.75 
Q 14.984375 37.109375 14.984375 27.296875 
Q 14.984375 17.484375 19.15625 11.84375 
Q 23.34375 6.203125 30.609375 6.203125 
Q 37.796875 6.203125 41.984375 11.859375 
Q 46.1875 17.53125 46.1875 27.296875 
Q 46.1875 37.015625 41.984375 42.703125 
Q 37.796875 48.390625 30.609375 48.390625 
z
M 30.609375 56 
Q 42.328125 56 49.015625 48.375 
Q 55.71875 40.765625 55.71875 27.296875 
Q 55.71875 13.875 49.015625 6.21875 
Q 42.328125 -1.421875 30.609375 -1.421875 
Q 18.84375 -1.421875 12.171875 6.21875 
Q 5.515625 13.875 5.515625 27.296875 
Q 5.515625 40.765625 12.171875 48.375 
Q 18.84375 56 30.609375 56 
z
" id="DejaVuSans-6f"/>
      <path d="M 45.40625 27.984375 
Q 45.40625 37.75 41.375 43.109375 
Q 37.359375 48.484375 30.078125 48.484375 
Q 22.859375 48.484375 18.828125 43.109375 
Q 14.796875 37.75 14.796875 27.984375 
Q 14.796875 18.265625 18.828125 12.890625 
Q 22.859375 7.515625 30.078125 7.515625 
Q 37.359375 7.515625 41.375 12.890625 
Q 45.40625 18.265625 45.40625 27.984375 
z
M 54.390625 6.78125 
Q 54.390625 -7.171875 48.1875 -13.984375 
Q 42 -20.796875 29.203125 -20.796875 
Q 24.46875 -20.796875 20.265625 -20.09375 
Q 16.0625 -19.390625 12.109375 -17.921875 
L 12.109375 -9.1875 
Q 16.0625 -11.328125 19.921875 -12.34375 
Q 23.78125 -13.375 27.78125 -13.375 
Q 36.625 -13.375 41.015625 -8.765625 
Q 45.40625 -4.15625 45.40625 5.171875 
L 45.40625 9.625 
Q 42.625 4.78125 38.28125 2.390625 
Q 33.9375 0 27.875 0 
Q 17.828125 0 11.671875 7.65625 
Q 5.515625 15.328125 5.515625 27.984375 
Q 5.515625 40.671875 11.671875 48.328125 
Q 17.828125 56 27.875 56 
Q 33.9375 56 38.28125 53.609375 
Q 42.625 51.21875 45.40625 46.390625 
L 45.40625 54.6875 
L 54.390625 54.6875 
z
" id="DejaVuSans-67"/>
      <path d="M 12.40625 8.296875 
L 28.515625 8.296875 
L 28.515625 63.921875 
L 10.984375 60.40625 
L 10.984375 69.390625 
L 28.421875 72.90625 
L 38.28125 72.90625 
L 38.28125 8.296875 
L 54.390625 8.296875 
L 54.390625 0 
L 12.40625 0 
z
" id="DejaVuSans-31"/>
      <path d="M 31 75.875 
Q 24.46875 64.65625 21.28125 53.65625 
Q 18.109375 42.671875 18.109375 31.390625 
Q 18.109375 20.125 21.3125 9.0625 
Q 24.515625 -2 31 -13.1875 
L 23.1875 -13.1875 
Q 15.875 -1.703125 12.234375 9.375 
Q 8.59375 20.453125 8.59375 31.390625 
Q 8.59375 42.28125 12.203125 53.3125 
Q 15.828125 64.359375 23.1875 75.875 
z
" id="DejaVuSans-28"/>
      <path d="M 51.125 44 
L 36.921875 44 
L 32.8125 27.6875 
L 47.125 27.6875 
z
M 43.796875 71.78125 
L 38.71875 51.515625 
L 52.984375 51.515625 
L 58.109375 71.78125 
L 65.921875 71.78125 
L 60.890625 51.515625 
L 76.125 51.515625 
L 76.125 44 
L 58.984375 44 
L 54.984375 27.6875 
L 70.515625 27.6875 
L 70.515625 20.21875 
L 53.078125 20.21875 
L 48 0 
L 40.1875 0 
L 45.21875 20.21875 
L 30.90625 20.21875 
L 25.875 0 
L 18.015625 0 
L 23.09375 20.21875 
L 7.71875 20.21875 
L 7.71875 27.6875 
L 24.90625 27.6875 
L 29 44 
L 13.28125 44 
L 13.28125 51.515625 
L 30.90625 51.515625 
L 35.890625 71.78125 
z
" id="DejaVuSans-23"/>
      <path id="DejaVuSans-20"/>
      <path d="M 37.109375 75.984375 
L 37.109375 68.5 
L 28.515625 68.5 
Q 23.6875 68.5 21.796875 66.546875 
Q 19.921875 64.59375 19.921875 59.515625 
L 19.921875 54.6875 
L 34.71875 54.6875 
L 34.71875 47.703125 
L 19.921875 47.703125 
L 19.921875 0 
L 10.890625 0 
L 10.890625 47.703125 
L 2.296875 47.703125 
L 2.296875 54.6875 
L 10.890625 54.6875 
L 10.890625 58.5 
Q 10.890625 67.625 15.140625 71.796875 
Q 19.390625 75.984375 28.609375 75.984375 
z
" id="DejaVuSans-66"/>
      <path d="M 4.890625 31.390625 
L 31.203125 31.390625 
L 31.203125 23.390625 
L 4.890625 23.390625 
z
" id="DejaVuSans-2d"/>
      <path d="M 56.203125 29.59375 
L 56.203125 25.203125 
L 14.890625 25.203125 
Q 15.484375 15.921875 20.484375 11.0625 
Q 25.484375 6.203125 34.421875 6.203125 
Q 39.59375 6.203125 44.453125 7.46875 
Q 49.3125 8.734375 54.109375 11.28125 
L 54.109375 2.78125 
Q 49.265625 0.734375 44.1875 -0.34375 
Q 39.109375 -1.421875 33.890625 -1.421875 
Q 20.796875 -1.421875 13.15625 6.1875 
Q 5.515625 13.8125 5.515625 26.8125 
Q 5.515625 40.234375 12.765625 48.109375 
Q 20.015625 56 32.328125 56 
Q 43.359375 56 49.78125 48.890625 
Q 56.203125 41.796875 56.203125 29.59375 
z
M 47.21875 32.234375 
Q 47.125 39.59375 43.09375 43.984375 
Q 39.0625 48.390625 32.421875 48.390625 
Q 24.90625 48.390625 20.390625 44.140625 
Q 15.875 39.890625 15.1875 32.171875 
z
" id="DejaVuSans-65"/>
      <path d="M 2.984375 54.6875 
L 12.5 54.6875 
L 29.59375 8.796875 
L 46.6875 54.6875 
L 56.203125 54.6875 
L 35.6875 0 
L 23.484375 0 
z
" id="DejaVuSans-76"/>
      <path d="M 34.28125 27.484375 
Q 23.390625 27.484375 19.1875 25 
Q 14.984375 22.515625 14.984375 16.5 
Q 14.984375 11.71875 18.140625 8.90625 
Q 21.296875 6.109375 26.703125 6.109375 
Q 34.1875 6.109375 38.703125 11.40625 
Q 43.21875 16.703125 43.21875 25.484375 
L 43.21875 27.484375 
z
M 52.203125 31.203125 
L 52.203125 0 
L 43.21875 0 
L 43.21875 8.296875 
Q 40.140625 3.328125 35.546875 0.953125 
Q 30.953125 -1.421875 24.3125 -1.421875 
Q 15.921875 -1.421875 10.953125 3.296875 
Q 6 8.015625 6 15.921875 
Q 6 25.140625 12.171875 29.828125 
Q 18.359375 34.515625 30.609375 34.515625 
L 43.21875 34.515625 
L 43.21875 35.40625 
Q 43.21875 41.609375 39.140625 45 
Q 35.0625 48.390625 27.6875 48.390625 
Q 23 48.390625 18.546875 47.265625 
Q 14.109375 46.140625 10.015625 43.890625 
L 10.015625 52.203125 
Q 14.9375 54.109375 19.578125 55.046875 
Q 24.21875 56 28.609375 56 
Q 40.484375 56 46.34375 49.84375 
Q 52.203125 43.703125 52.203125 31.203125 
z
" id="DejaVuSans-61"/>
      <path d="M 44.28125 53.078125 
L 44.28125 44.578125 
Q 40.484375 46.53125 36.375 47.5 
Q 32.28125 48.484375 27.875 48.484375 
Q 21.1875 48.484375 17.84375 46.4375 
Q 14.5 44.390625 14.5 40.28125 
Q 14.5 37.15625 16.890625 35.375 
Q 19.28125 33.59375 26.515625 31.984375 
L 29.59375 31.296875 
Q 39.15625 29.25 43.1875 25.515625 
Q 47.21875 21.78125 47.21875 15.09375 
Q 47.21875 7.46875 41.1875 3.015625 
Q 35.15625 -1.421875 24.609375 -1.421875 
Q 20.21875 -1.421875 15.453125 -0.5625 
Q 10.6875 0.296875 5.421875 2 
L 5.421875 11.28125 
Q 10.40625 8.6875 15.234375 7.390625 
Q 20.0625 6.109375 24.8125 6.109375 
Q 31.15625 6.109375 34.5625 8.28125 
Q 37.984375 10.453125 37.984375 14.40625 
Q 37.984375 18.0625 35.515625 20.015625 
Q 33.0625 21.96875 24.703125 23.78125 
L 21.578125 24.515625 
Q 13.234375 26.265625 9.515625 29.90625 
Q 5.8125 33.546875 5.8125 39.890625 
Q 5.8125 47.609375 11.28125 51.796875 
Q 16.75 56 26.8125 56 
Q 31.78125 56 36.171875 55.265625 
Q 40.578125 54.546875 44.28125 53.078125 
z
" id="DejaVuSans-73"/>
      <path d="M 25.390625 72.90625 
L 33.6875 72.90625 
L 8.296875 -9.28125 
L 0 -9.28125 
z
" id="DejaVuSans-2f"/>
      <path d="M 45.40625 46.390625 
L 45.40625 75.984375 
L 54.390625 75.984375 
L 54.390625 0 
L 45.40625 0 
L 45.40625 8.203125 
Q 42.578125 3.328125 38.25 0.953125 
Q 33.9375 -1.421875 27.875 -1.421875 
Q 17.96875 -1.421875 11.734375 6.484375 
Q 5.515625 14.40625 5.515625 27.296875 
Q 5.515625 40.1875 11.734375 48.09375 
Q 17.96875 56 27.875 56 
Q 33.9375 56 38.25 53.625 
Q 42.578125 51.265625 45.40625 46.390625 
z
M 14.796875 27.296875 
Q 14.796875 17.390625 18.875 11.75 
Q 22.953125 6.109375 30.078125 6.109375 
Q 37.203125 6.109375 41.296875 11.75 
Q 45.40625 17.390625 45.40625 27.296875 
Q 45.40625 37.203125 41.296875 42.84375 
Q 37.203125 48.484375 30.078125 48.484375 
Q 22.953125 48.484375 18.875 42.84375 
Q 14.796875 37.203125 14.796875 27.296875 
z
" id="DejaVuSans-64"/>
      <path d="M 9.421875 54.6875 
L 18.40625 54.6875 
L 18.40625 0 
L 9.421875 0 
z
M 9.421875 75.984375 
L 18.40625 75.984375 
L 18.40625 64.59375 
L 9.421875 64.59375 
z
" id="DejaVuSans-69"/>
      <path d="M 52 44.1875 
Q 55.375 50.25 60.0625 53.125 
Q 64.75 56 71.09375 56 
Q 79.640625 56 84.28125 50.015625 
Q 88.921875 44.046875 88.921875 33.015625 
L 88.921875 0 
L 79.890625 0 
L 79.890625 32.71875 
Q 79.890625 40.578125 77.09375 44.375 
Q 74.3125 48.1875 68.609375 48.1875 
Q 61.625 48.1875 57.5625 43.546875 
Q 53.515625 38.921875 53.515625 30.90625 
L 53.515625 0 
L 44.484375 0 
L 44.484375 32.71875 
Q 44.484375 40.625 41.703125 44.40625 
Q 38.921875 48.1875 33.109375 48.1875 
Q 26.21875 48.1875 22.15625 43.53125 
Q 18.109375 38.875 18.109375 30.90625 
L 18.109375 0 
L 9.078125 0 
L 9.078125 54.6875 
L 18.109375 54.6875 
L 18.109375 46.1875 
Q 21.1875 51.21875 25.484375 53.609375 
Q 29.78125 56 35.6875 56 
Q 41.65625 56 45.828125 52.96875 
Q 50 49.953125 52 44.1875 
z
" id="DejaVuSans-6d"/>
      <path d="M 54.890625 33.015625 
L 54.890625 0 
L 45.90625 0 
L 45.90625 32.71875 
Q 45.90625 40.484375 42.875 44.328125 
Q 39.84375 48.1875 33.796875 48.1875 
Q 26.515625 48.1875 22.3125 43.546875 
Q 18.109375 38.921875 18.109375 30.90625 
L 18.109375 0 
L 9.078125 0 
L 9.078125 54.6875 
L 18.109375 54.6875 
L 18.109375 46.1875 
Q 21.34375 51.125 25.703125 53.5625 
Q 30.078125 56 35.796875 56 
Q 45.21875 56 50.046875 50.171875 
Q 54.890625 44.34375 54.890625 33.015625 
z
" id="DejaVuSans-6e"/>
      <path d="M 8.015625 75.875 
L 15.828125 75.875 
Q 23.140625 64.359375 26.78125 53.3125 
Q 30.421875 42.28125 30.421875 31.390625 
Q 30.421875 20.453125 26.78125 9.375 
Q 23.140625 -1.703125 15.828125 -13.1875 
L 8.015625 -13.1875 
Q 14.5 -2 17.703125 9.0625 
Q 20.90625 20.125 20.90625 31.390625 
Q 20.90625 42.671875 17.703125 53.65625 
Q 14.5 64.65625 8.015625 75.875 
z
" id="DejaVuSans-29"/>
     </defs>
     <g transform="translate(73.803219 338.153594)scale(0.17 -0.17)">
      <use xlink:href="#DejaVuSans-6c"/>
      <use x="27.783203" xlink:href="#DejaVuSans-6f"/>
      <use x="88.964844" xlink:href="#DejaVuSans-67"/>
      <use x="152.441406" xlink:href="#DejaVuSans-31"/>
      <use x="216.064453" xlink:href="#DejaVuSans-30"/>
      <use x="279.6875" xlink:href="#DejaVuSans-28"/>
      <use x="318.701172" xlink:href="#DejaVuSans-23"/>
      <use x="402.490234" xlink:href="#DejaVuSans-20"/>
      <use x="434.277344" xlink:href="#DejaVuSans-66"/>
      <use x="469.404297" xlink:href="#DejaVuSans-2d"/>
      <use x="505.488281" xlink:href="#DejaVuSans-65"/>
      <use x="567.011719" xlink:href="#DejaVuSans-76"/>
      <use x="626.191406" xlink:href="#DejaVuSans-61"/>
      <use x="687.470703" xlink:href="#DejaVuSans-6c"/>
      <use x="715.253906" xlink:href="#DejaVuSans-73"/>
      <use x="767.353516" xlink:href="#DejaVuSans-20"/>
      <use x="799.140625" xlink:href="#DejaVuSans-2f"/>
      <use x="832.832031" xlink:href="#DejaVuSans-20"/>
      <use x="864.619141" xlink:href="#DejaVuSans-64"/>
      <use x="928.095703" xlink:href="#DejaVuSans-69"/>
      <use x="955.878906" xlink:href="#DejaVuSans-6d"/>
      <use x="1053.291016" xlink:href="#DejaVuSans-65"/>
      <use x="1114.814453" xlink:href="#DejaVuSans-6e"/>
      <use x="1178.193359" xlink:href="#DejaVuSans-73"/>
      <use x="1230.292969" xlink:href="#DejaVuSans-69"/>
      <use x="1258.076172" xlink:href="#DejaVuSans-6f"/>
      <use x="1319.257812" xlink:href="#DejaVuSans-6e"/>
      <use x="1382.636719" xlink:href="#DejaVuSans-29"/>
     </g>
    </g>
   </g>
   <g id="matplotlib.axis_2">
    <g id="ytick_1">
     <g id="line2d_25">
      <path clip-path="url(#p578f0577fe)" d="M 56.12 294.88 
L 333.168 294.88 
" style="fill:none;stroke:#b0b0b0;stroke-linecap:square;stroke-width:0.8;"/>
     </g>
     <g id="line2d_26">
      <defs>
       <path d="M 0 0 
L -3.5 0 
" id="m3b18fc196c" style="stroke:#000000;stroke-width:0.8;"/>
      </defs>
      <g>
       <use style="stroke:#000000;stroke-width:0.8;" x="56.12" xlink:href="#m3b18fc196c" y="294.88"/>
      </g>
     </g>
     <g id="text_6">
      <!-- 0.0 -->
      <defs>
       <path d="M 10.6875 12.40625 
L 21 12.40625 
L 21 0 
L 10.6875 0 
z
" id="DejaVuSans-2e"/>
      </defs>
      <g transform="translate(23.675 300.95875)scale(0.16 -0.16)">
       <use xlink:href="#DejaVuSans-30"/>
       <use x="63.623047" xlink:href="#DejaVuSans-2e"/>
       <use x="95.410156" xlink:href="#DejaVuSans-30"/>
      </g>
     </g>
    </g>
    <g id="ytick_2">
     <g id="line2d_27">
      <path clip-path="url(#p578f0577fe)" d="M 56.12 237.843411 
L 333.168 237.843411 
" style="fill:none;stroke:#b0b0b0;stroke-linecap:square;stroke-width:0.8;"/>
     </g>
     <g id="line2d_28">
      <g>
       <use style="stroke:#000000;stroke-width:0.8;" x="56.12" xlink:href="#m3b18fc196c" y="237.843411"/>
      </g>
     </g>
     <g id="text_7">
      <!-- 0.2 -->
      <g transform="translate(23.675 243.922161)scale(0.16 -0.16)">
       <use xlink:href="#DejaVuSans-30"/>
       <use x="63.623047" xlink:href="#DejaVuSans-2e"/>
       <use x="95.410156" xlink:href="#DejaVuSans-32"/>
      </g>
     </g>
    </g>
    <g id="ytick_3">
     <g id="line2d_29">
      <path clip-path="url(#p578f0577fe)" d="M 56.12 180.806823 
L 333.168 180.806823 
" style="fill:none;stroke:#b0b0b0;stroke-linecap:square;stroke-width:0.8;"/>
     </g>
     <g id="line2d_30">
      <g>
       <use style="stroke:#000000;stroke-width:0.8;" x="56.12" xlink:href="#m3b18fc196c" y="180.806823"/>
      </g>
     </g>
     <g id="text_8">
      <!-- 0.4 -->
      <g transform="translate(23.675 186.885573)scale(0.16 -0.16)">
       <use xlink:href="#DejaVuSans-30"/>
       <use x="63.623047" xlink:href="#DejaVuSans-2e"/>
       <use x="95.410156" xlink:href="#DejaVuSans-34"/>
      </g>
     </g>
    </g>
    <g id="ytick_4">
     <g id="line2d_31">
      <path clip-path="url(#p578f0577fe)" d="M 56.12 123.770234 
L 333.168 123.770234 
" style="fill:none;stroke:#b0b0b0;stroke-linecap:square;stroke-width:0.8;"/>
     </g>
     <g id="line2d_32">
      <g>
       <use style="stroke:#000000;stroke-width:0.8;" x="56.12" xlink:href="#m3b18fc196c" y="123.770234"/>
      </g>
     </g>
     <g id="text_9">
      <!-- 0.6 -->
      <g transform="translate(23.675 129.848984)scale(0.16 -0.16)">
       <use xlink:href="#DejaVuSans-30"/>
       <use x="63.623047" xlink:href="#DejaVuSans-2e"/>
       <use x="95.410156" xlink:href="#DejaVuSans-36"/>
      </g>
     </g>
    </g>
    <g id="ytick_5">
     <g id="line2d_33">
      <path clip-path="url(#p578f0577fe)" d="M 56.12 66.733646 
L 333.168 66.733646 
" style="fill:none;stroke:#b0b0b0;stroke-linecap:square;stroke-width:0.8;"/>
     </g>
     <g id="line2d_34">
      <g>
       <use style="stroke:#000000;stroke-width:0.8;" x="56.12" xlink:href="#m3b18fc196c" y="66.733646"/>
      </g>
     </g>
     <g id="text_10">
      <!-- 0.8 -->
      <defs>
       <path d="M 31.78125 34.625 
Q 24.75 34.625 20.71875 30.859375 
Q 16.703125 27.09375 16.703125 20.515625 
Q 16.703125 13.921875 20.71875 10.15625 
Q 24.75 6.390625 31.78125 6.390625 
Q 38.8125 6.390625 42.859375 10.171875 
Q 46.921875 13.96875 46.921875 20.515625 
Q 46.921875 27.09375 42.890625 30.859375 
Q 38.875 34.625 31.78125 34.625 
z
M 21.921875 38.8125 
Q 15.578125 40.375 12.03125 44.71875 
Q 8.5 49.078125 8.5 55.328125 
Q 8.5 64.0625 14.71875 69.140625 
Q 20.953125 74.21875 31.78125 74.21875 
Q 42.671875 74.21875 48.875 69.140625 
Q 55.078125 64.0625 55.078125 55.328125 
Q 55.078125 49.078125 51.53125 44.71875 
Q 48 40.375 41.703125 38.8125 
Q 48.828125 37.15625 52.796875 32.3125 
Q 56.78125 27.484375 56.78125 20.515625 
Q 56.78125 9.90625 50.3125 4.234375 
Q 43.84375 -1.421875 31.78125 -1.421875 
Q 19.734375 -1.421875 13.25 4.234375 
Q 6.78125 9.90625 6.78125 20.515625 
Q 6.78125 27.484375 10.78125 32.3125 
Q 14.796875 37.15625 21.921875 38.8125 
z
M 18.3125 54.390625 
Q 18.3125 48.734375 21.84375 45.5625 
Q 25.390625 42.390625 31.78125 42.390625 
Q 38.140625 42.390625 41.71875 45.5625 
Q 45.3125 48.734375 45.3125 54.390625 
Q 45.3125 60.0625 41.71875 63.234375 
Q 38.140625 66.40625 31.78125 66.40625 
Q 25.390625 66.40625 21.84375 63.234375 
Q 18.3125 60.0625 18.3125 54.390625 
z
" id="DejaVuSans-38"/>
      </defs>
      <g transform="translate(23.675 72.812396)scale(0.16 -0.16)">
       <use xlink:href="#DejaVuSans-30"/>
       <use x="63.623047" xlink:href="#DejaVuSans-2e"/>
       <use x="95.410156" xlink:href="#DejaVuSans-38"/>
      </g>
     </g>
    </g>
    <g id="ytick_6">
     <g id="line2d_35">
      <path clip-path="url(#p578f0577fe)" d="M 56.12 9.697057 
L 333.168 9.697057 
" style="fill:none;stroke:#b0b0b0;stroke-linecap:square;stroke-width:0.8;"/>
     </g>
     <g id="line2d_36">
      <g>
       <use style="stroke:#000000;stroke-width:0.8;" x="56.12" xlink:href="#m3b18fc196c" y="9.697057"/>
      </g>
     </g>
     <g id="text_11">
      <!-- 1.0 -->
      <g transform="translate(23.675 15.775807)scale(0.16 -0.16)">
       <use xlink:href="#DejaVuSans-31"/>
       <use x="63.623047" xlink:href="#DejaVuSans-2e"/>
       <use x="95.410156" xlink:href="#DejaVuSans-30"/>
      </g>
     </g>
    </g>
    <g id="text_12">
     <!-- Fraction of function,target pairs -->
     <defs>
      <path d="M 9.8125 72.90625 
L 51.703125 72.90625 
L 51.703125 64.59375 
L 19.671875 64.59375 
L 19.671875 43.109375 
L 48.578125 43.109375 
L 48.578125 34.8125 
L 19.671875 34.8125 
L 19.671875 0 
L 9.8125 0 
z
" id="DejaVuSans-46"/>
      <path d="M 41.109375 46.296875 
Q 39.59375 47.171875 37.8125 47.578125 
Q 36.03125 48 33.890625 48 
Q 26.265625 48 22.1875 43.046875 
Q 18.109375 38.09375 18.109375 28.8125 
L 18.109375 0 
L 9.078125 0 
L 9.078125 54.6875 
L 18.109375 54.6875 
L 18.109375 46.1875 
Q 20.953125 51.171875 25.484375 53.578125 
Q 30.03125 56 36.53125 56 
Q 37.453125 56 38.578125 55.875 
Q 39.703125 55.765625 41.0625 55.515625 
z
" id="DejaVuSans-72"/>
      <path d="M 48.78125 52.59375 
L 48.78125 44.1875 
Q 44.96875 46.296875 41.140625 47.34375 
Q 37.3125 48.390625 33.40625 48.390625 
Q 24.65625 48.390625 19.8125 42.84375 
Q 14.984375 37.3125 14.984375 27.296875 
Q 14.984375 17.28125 19.8125 11.734375 
Q 24.65625 6.203125 33.40625 6.203125 
Q 37.3125 6.203125 41.140625 7.25 
Q 44.96875 8.296875 48.78125 10.40625 
L 48.78125 2.09375 
Q 45.015625 0.34375 40.984375 -0.53125 
Q 36.96875 -1.421875 32.421875 -1.421875 
Q 20.0625 -1.421875 12.78125 6.34375 
Q 5.515625 14.109375 5.515625 27.296875 
Q 5.515625 40.671875 12.859375 48.328125 
Q 20.21875 56 33.015625 56 
Q 37.15625 56 41.109375 55.140625 
Q 45.0625 54.296875 48.78125 52.59375 
z
" id="DejaVuSans-63"/>
      <path d="M 18.3125 70.21875 
L 18.3125 54.6875 
L 36.8125 54.6875 
L 36.8125 47.703125 
L 18.3125 47.703125 
L 18.3125 18.015625 
Q 18.3125 11.328125 20.140625 9.421875 
Q 21.96875 7.515625 27.59375 7.515625 
L 36.8125 7.515625 
L 36.8125 0 
L 27.59375 0 
Q 17.1875 0 13.234375 3.875 
Q 9.28125 7.765625 9.28125 18.015625 
L 9.28125 47.703125 
L 2.6875 47.703125 
L 2.6875 54.6875 
L 9.28125 54.6875 
L 9.28125 70.21875 
z
" id="DejaVuSans-74"/>
      <path d="M 8.5 21.578125 
L 8.5 54.6875 
L 17.484375 54.6875 
L 17.484375 21.921875 
Q 17.484375 14.15625 20.5 10.265625 
Q 23.53125 6.390625 29.59375 6.390625 
Q 36.859375 6.390625 41.078125 11.03125 
Q 45.3125 15.671875 45.3125 23.6875 
L 45.3125 54.6875 
L 54.296875 54.6875 
L 54.296875 0 
L 45.3125 0 
L 45.3125 8.40625 
Q 42.046875 3.421875 37.71875 1 
Q 33.40625 -1.421875 27.6875 -1.421875 
Q 18.265625 -1.421875 13.375 4.4375 
Q 8.5 10.296875 8.5 21.578125 
z
M 31.109375 56 
z
" id="DejaVuSans-75"/>
      <path d="M 11.71875 12.40625 
L 22.015625 12.40625 
L 22.015625 4 
L 14.015625 -11.625 
L 7.71875 -11.625 
L 11.71875 4 
z
" id="DejaVuSans-2c"/>
      <path d="M 18.109375 8.203125 
L 18.109375 -20.796875 
L 9.078125 -20.796875 
L 9.078125 54.6875 
L 18.109375 54.6875 
L 18.109375 46.390625 
Q 20.953125 51.265625 25.265625 53.625 
Q 29.59375 56 35.59375 56 
Q 45.5625 56 51.78125 48.09375 
Q 58.015625 40.1875 58.015625 27.296875 
Q 58.015625 14.40625 51.78125 6.484375 
Q 45.5625 -1.421875 35.59375 -1.421875 
Q 29.59375 -1.421875 25.265625 0.953125 
Q 20.953125 3.328125 18.109375 8.203125 
z
M 48.6875 27.296875 
Q 48.6875 37.203125 44.609375 42.84375 
Q 40.53125 48.484375 33.40625 48.484375 
Q 26.265625 48.484375 22.1875 42.84375 
Q 18.109375 37.203125 18.109375 27.296875 
Q 18.109375 17.390625 22.1875 11.75 
Q 26.265625 6.109375 33.40625 6.109375 
Q 40.53125 6.109375 44.609375 11.75 
Q 48.6875 17.390625 48.6875 27.296875 
z
" id="DejaVuSans-70"/>
     </defs>
     <g transform="translate(16.139531 286.001989)rotate(-90)scale(0.17 -0.17)">
      <use xlink:href="#DejaVuSans-46"/>
      <use x="57.410156" xlink:href="#DejaVuSans-72"/>
      <use x="98.523438" xlink:href="#DejaVuSans-61"/>
      <use x="159.802734" xlink:href="#DejaVuSans-63"/>
      <use x="214.783203" xlink:href="#DejaVuSans-74"/>
      <use x="253.992188" xlink:href="#DejaVuSans-69"/>
      <use x="281.775391" xlink:href="#DejaVuSans-6f"/>
      <use x="342.957031" xlink:href="#DejaVuSans-6e"/>
      <use x="406.335938" xlink:href="#DejaVuSans-20"/>
      <use x="438.123047" xlink:href="#DejaVuSans-6f"/>
      <use x="499.304688" xlink:href="#DejaVuSans-66"/>
      <use x="534.509766" xlink:href="#DejaVuSans-20"/>
      <use x="566.296875" xlink:href="#DejaVuSans-66"/>
      <use x="601.501953" xlink:href="#DejaVuSans-75"/>
      <use x="664.880859" xlink:href="#DejaVuSans-6e"/>
      <use x="728.259766" xlink:href="#DejaVuSans-63"/>
      <use x="783.240234" xlink:href="#DejaVuSans-74"/>
      <use x="822.449219" xlink:href="#DejaVuSans-69"/>
      <use x="850.232422" xlink:href="#DejaVuSans-6f"/>
      <use x="911.414062" xlink:href="#DejaVuSans-6e"/>
      <use x="974.792969" xlink:href="#DejaVuSans-2c"/>
      <use x="1006.580078" xlink:href="#DejaVuSans-74"/>
      <use x="1045.789062" xlink:href="#DejaVuSans-61"/>
      <use x="1107.068359" xlink:href="#DejaVuSans-72"/>
      <use x="1148.166016" xlink:href="#DejaVuSans-67"/>
      <use x="1211.642578" xlink:href="#DejaVuSans-65"/>
      <use x="1273.166016" xlink:href="#DejaVuSans-74"/>
      <use x="1312.375" xlink:href="#DejaVuSans-20"/>
      <use x="1344.162109" xlink:href="#DejaVuSans-70"/>
      <use x="1407.638672" xlink:href="#DejaVuSans-61"/>
      <use x="1468.917969" xlink:href="#DejaVuSans-69"/>
      <use x="1496.701172" xlink:href="#DejaVuSans-72"/>
      <use x="1537.814453" xlink:href="#DejaVuSans-73"/>
     </g>
    </g>
   </g>
   <g id="line2d_37">
    <defs>
     <path d="M 0 1.5 
C 0.397805 1.5 0.77937 1.341951 1.06066 1.06066 
C 1.341951 0.77937 1.5 0.397805 1.5 0 
C 1.5 -0.397805 1.341951 -0.77937 1.06066 -1.06066 
C 0.77937 -1.341951 0.397805 -1.5 0 -1.5 
C -0.397805 -1.5 -0.77937 -1.341951 -1.06066 -1.06066 
C -1.341951 -0.77937 -1.5 -0.397805 -1.5 0 
C -1.5 0.397805 -1.341951 0.77937 -1.06066 1.06066 
C -0.77937 1.341951 -0.397805 1.5 0 1.5 
z
" id="m0892357f39" style="stroke:#000080;"/>
    </defs>
    <g>
     <use style="fill:#000080;stroke:#000080;" x="277.943032" xlink:href="#m0892357f39" y="99.166216"/>
     <use style="fill:#000080;stroke:#000080;" x="277.943032" xlink:href="#m0892357f39" y="99.166216"/>
    </g>
   </g>
   <g id="line2d_38">
    <path d="M 44.205749 294.88 
L 44.205749 287.610631 
L 56.12 287.610631 
L 56.12 285.373902 
L 63.08939 285.373902 
L 63.08939 280.900444 
L 68.034251 280.900444 
L 68.034251 278.104533 
L 77.653281 278.104533 
L 77.653281 269.716799 
L 85.422286 269.716799 
L 85.422286 267.48007 
L 88.293717 267.48007 
L 88.293717 265.243341 
L 89.567532 265.243341 
L 89.567532 264.684159 
L 92.904808 264.684159 
L 92.904808 264.124977 
L 96.536922 264.124977 
L 96.536922 261.329066 
L 98.832144 261.329066 
L 98.832144 258.533154 
L 100.856673 258.533154 
L 100.856673 257.41479 
L 101.481783 257.41479 
L 101.481783 256.855608 
L 106.730875 256.855608 
L 106.730875 255.178061 
L 111.100812 255.178061 
L 111.100812 252.38215 
L 113.999206 252.38215 
L 113.999206 243.435234 
L 114.866043 243.435234 
L 114.866043 235.0475 
L 116.220179 235.0475 
L 116.220179 233.929136 
L 116.984244 233.929136 
L 116.984244 232.251589 
L 129.984454 232.251589 
L 129.984454 231.133225 
L 138.266591 231.133225 
L 138.266591 228.896496 
L 138.834862 228.896496 
L 138.834862 227.778131 
L 140.371179 227.778131 
L 140.434959 226.659767 
L 141.544287 226.659767 
L 141.544287 226.100584 
L 141.72241 226.100584 
L 141.72241 225.541402 
L 147.147797 225.541402 
L 147.147797 224.98222 
L 149.926191 224.98222 
L 149.926191 223.863855 
L 150.216915 223.863855 
L 150.252912 221.627126 
L 150.643983 221.627126 
L 150.643983 219.390397 
L 152.476064 219.390397 
L 152.476064 218.831215 
L 154.274423 218.831215 
L 154.302858 217.712851 
L 156.235596 217.712851 
L 156.336855 216.594486 
L 158.246014 216.594486 
L 158.246014 215.476122 
L 158.757817 215.476122 
L 158.757817 214.91694 
L 159.169411 214.91694 
L 159.169411 213.798575 
L 161.931822 213.798575 
L 161.931822 210.443482 
L 163.398544 210.443482 
L 163.398544 209.884299 
L 164.071407 209.884299 
L 164.071407 209.325117 
L 164.563224 209.325117 
L 164.563224 208.765935 
L 165.536139 208.765935 
L 165.536139 207.64757 
L 165.800133 207.64757 
L 165.800133 206.529206 
L 166.002695 206.529206 
L 166.002695 205.970024 
L 166.316261 205.970024 
L 166.316261 204.851659 
L 167.945522 204.851659 
L 167.945522 203.174112 
L 169.527625 203.174112 
L 169.527625 202.055748 
L 171.083662 202.055748 
L 171.083662 197.58229 
L 172.081589 197.58229 
L 172.081589 196.463926 
L 173.32797 196.463926 
L 173.32797 195.345561 
L 173.57972 195.345561 
L 173.57972 194.786379 
L 174.242475 194.786379 
L 174.242475 194.227197 
L 175.594991 194.227197 
L 175.594991 193.668014 
L 176.625419 193.668014 
L 176.625419 193.108832 
L 177.376333 193.108832 
L 177.405994 191.431285 
L 177.924137 191.431285 
L 177.924137 189.753739 
L 179.80831 189.753739 
L 179.80831 189.194556 
L 180.171666 189.194556 
L 180.171666 187.51701 
L 180.415925 187.51701 
L 180.415925 186.957828 
L 181.726568 186.957828 
L 181.749601 184.721099 
L 181.852871 184.721099 
L 181.915676 183.043552 
L 182.220708 183.043552 
L 182.220708 182.48437 
L 183.104609 182.48437 
L 183.104609 181.366005 
L 183.904708 181.366005 
L 183.904708 180.247641 
L 184.201635 180.247641 
L 184.201635 179.129276 
L 184.99626 179.129276 
L 184.99626 178.570094 
L 185.728397 178.570094 
L 185.728397 177.451729 
L 186.465644 177.451729 
L 186.465644 176.892547 
L 186.786288 176.892547 
L 186.786288 175.774183 
L 186.90607 175.774183 
L 186.90607 175.215 
L 187.533921 175.215 
L 187.533921 174.655818 
L 188.281895 174.655818 
L 188.281895 174.096636 
L 189.104033 174.096636 
L 189.104033 173.537454 
L 189.375722 173.537454 
L 189.460441 169.623178 
L 189.664983 169.623178 
L 189.769957 166.827267 
L 190.362299 166.827267 
L 190.362299 165.14972 
L 190.63212 165.14972 
L 190.63212 164.031356 
L 190.748422 164.031356 
L 190.748422 163.472173 
L 190.958497 163.472173 
L 190.958497 162.912991 
L 191.377671 162.912991 
L 191.377671 161.235444 
L 191.812521 161.235444 
L 191.812521 160.11708 
L 192.348822 160.11708 
L 192.382954 157.880351 
L 193.484532 157.880351 
L 193.484532 156.761987 
L 193.98312 156.761987 
L 194.070451 153.966075 
L 195.053394 153.966075 
L 195.053394 153.406893 
L 195.33764 153.406893 
L 195.33764 150.610982 
L 195.46507 150.610982 
L 195.46507 148.933435 
L 195.630099 148.933435 
L 195.630099 148.374253 
L 195.975611 148.374253 
L 195.975611 147.255888 
L 196.351265 147.255888 
L 196.351265 146.137524 
L 197.334014 146.137524 
L 197.334014 143.341613 
L 198.296594 143.341613 
L 198.296594 142.78243 
L 198.527961 142.78243 
L 198.527961 138.868155 
L 198.824584 138.868155 
L 198.824584 137.74979 
L 199.004771 137.74979 
L 199.004771 137.190608 
L 199.386409 137.190608 
L 199.386409 136.072244 
L 200.552491 136.072244 
L 200.552491 134.953879 
L 201.854777 134.953879 
L 201.854777 132.71715 
L 209.209875 132.71715 
L 209.209875 132.157968 
L 209.612734 132.157968 
L 209.651371 131.039603 
L 211.573818 131.039603 
L 211.573818 129.362057 
L 212.134974 129.362057 
L 212.134974 128.802874 
L 212.64981 128.802874 
L 212.64981 128.243692 
L 212.861112 128.243692 
L 212.861112 127.68451 
L 214.192545 127.68451 
L 214.192545 126.566145 
L 219.614433 126.566145 
L 219.614433 124.888599 
L 220.431985 124.888599 
L 220.431985 124.329417 
L 221.30082 124.329417 
L 221.30082 123.211052 
L 225.070869 123.211052 
L 225.070869 122.65187 
L 225.75148 122.65187 
L 225.75148 120.415141 
L 226.314705 120.415141 
L 226.314705 119.296776 
L 229.206193 119.296776 
L 229.206193 118.737594 
L 229.743516 118.737594 
L 229.743516 118.178412 
L 232.476988 118.178412 
L 232.476988 117.61923 
L 232.980924 117.61923 
L 232.980924 116.500865 
L 233.352842 116.500865 
L 233.352842 115.941683 
L 235.65846 115.941683 
L 235.65846 114.264136 
L 238.054352 114.264136 
L 238.054352 113.704954 
L 240.0862 113.704954 
L 240.0862 113.145772 
L 243.603824 113.145772 
L 243.603824 112.586589 
L 244.93413 112.586589 
L 244.93413 112.027407 
L 246.34654 112.027407 
L 246.34654 111.468225 
L 246.546727 111.468225 
L 246.546727 110.909043 
L 247.651652 110.909043 
L 247.651652 110.349861 
L 248.864623 110.349861 
L 248.864623 109.790678 
L 249.037666 109.790678 
L 249.037666 109.231496 
L 250.159667 109.231496 
L 250.159667 108.672314 
L 251.060512 108.672314 
L 251.060512 108.113132 
L 252.061497 108.113132 
L 252.061497 107.553949 
L 253.143512 107.553949 
L 253.143512 106.994767 
L 256.343052 106.994767 
L 256.343052 106.435585 
L 257.084805 106.435585 
L 257.179201 105.31722 
L 257.795869 105.31722 
L 257.795869 104.758038 
L 258.478682 104.758038 
L 258.478682 104.198856 
L 259.859935 104.198856 
L 259.859935 103.639674 
L 261.053031 103.639674 
L 261.053031 102.521309 
L 262.622508 102.521309 
L 262.622508 101.962127 
L 263.717066 101.962127 
L 263.717066 101.402945 
L 264.676903 101.402945 
L 264.676903 100.843762 
L 265.137442 100.843762 
L 265.137442 100.28458 
L 265.520093 100.28458 
L 265.520093 99.725398 
L 277.943032 99.725398 
L 277.943032 99.166216 
L 333.168 99.166216 
L 333.168 99.166216 
" style="fill:none;stroke:#000080;stroke-linecap:square;stroke-width:1.5;"/>
   </g>
   <g id="line2d_39">
    <defs>
     <path d="M 0 6 
C 1.591219 6 3.117479 5.367802 4.242641 4.242641 
C 5.367802 3.117479 6 1.591219 6 0 
C 6 -1.591219 5.367802 -3.117479 4.242641 -4.242641 
C 3.117479 -5.367802 1.591219 -6 0 -6 
C -1.591219 -6 -3.117479 -5.367802 -4.242641 -4.242641 
C -5.367802 -3.117479 -6 -1.591219 -6 0 
C -6 1.591219 -5.367802 3.117479 -4.242641 4.242641 
C -3.117479 5.367802 -1.591219 6 0 6 
z
" id="med7ed6bb76" style="stroke:#000080;stroke-width:1.5;"/>
    </defs>
    <g>
     <use style="fill-opacity:0;stroke:#000080;stroke-width:1.5;" x="77.653281" xlink:href="#med7ed6bb76" y="278.104533"/>
     <use style="fill-opacity:0;stroke:#000080;stroke-width:1.5;" x="147.147797" xlink:href="#med7ed6bb76" y="225.541402"/>
     <use style="fill-opacity:0;stroke:#000080;stroke-width:1.5;" x="191.812521" xlink:href="#med7ed6bb76" y="160.11708"/>
     <use style="fill-opacity:0;stroke:#000080;stroke-width:1.5;" x="252.061497" xlink:href="#med7ed6bb76" y="108.113132"/>
     <use style="fill-opacity:0;stroke:#000080;stroke-width:1.5;" x="277.943032" xlink:href="#med7ed6bb76" y="99.166216"/>
     <use style="fill-opacity:0;stroke:#000080;stroke-width:1.5;" x="333.168" xlink:href="#med7ed6bb76" y="99.166216"/>
    </g>
   </g>
   <g id="line2d_40">
    <path style="fill:none;stroke:#000080;stroke-linecap:square;stroke-width:1.5;"/>
    <g/>
   </g>
   <g id="line2d_41">
    <path clip-path="url(#p578f0577fe)" d="M 202.691626 132.71715 
" style="fill:none;stroke:#000080;stroke-linecap:square;stroke-width:1.5;"/>
    <defs>
     <path d="M -12 12 
L 12 -12 
M -12 -12 
L 12 12 
" id="m9897000e96" style="stroke:#000080;"/>
    </defs>
    <g clip-path="url(#p578f0577fe)">
     <use style="fill:#000080;stroke:#000080;" x="202.691626" xlink:href="#m9897000e96" y="132.71715"/>
    </g>
   </g>
   <g id="line2d_42">
    <defs>
     <path d="M 0 1.5 
C 0.397805 1.5 0.77937 1.341951 1.06066 1.06066 
C 1.341951 0.77937 1.5 0.397805 1.5 0 
C 1.5 -0.397805 1.341951 -0.77937 1.06066 -1.06066 
C 0.77937 -1.341951 0.397805 -1.5 0 -1.5 
C -0.397805 -1.5 -0.77937 -1.341951 -1.06066 -1.06066 
C -1.341951 -0.77937 -1.5 -0.397805 -1.5 0 
C -1.5 0.397805 -1.341951 0.77937 -1.06066 1.06066 
C -0.77937 1.341951 -0.397805 1.5 0 1.5 
z
" id="m61c1268b8b" style="stroke:#ff00ff;"/>
    </defs>
    <g>
     <use style="fill:#ff00ff;stroke:#ff00ff;" x="268.332143" xlink:href="#m61c1268b8b" y="87.982571"/>
     <use style="fill:#ff00ff;stroke:#ff00ff;" x="268.332143" xlink:href="#m61c1268b8b" y="87.982571"/>
    </g>
   </g>
   <g id="line2d_43">
    <path d="M 44.205749 294.88 
L 44.205749 261.329066 
L 71.869783 261.329066 
L 71.869783 260.769883 
L 85.422286 260.769883 
L 85.422286 256.296425 
L 90.753425 256.296425 
L 90.753425 252.941332 
L 100.856673 252.941332 
L 100.856673 250.704603 
L 107.612537 250.704603 
L 107.612537 249.586238 
L 108.85563 249.586238 
L 108.85563 247.908692 
L 113.999206 247.908692 
L 113.999206 247.34951 
L 115.420563 247.34951 
L 115.420563 246.231145 
L 116.220179 246.231145 
L 116.220179 244.553598 
L 118.417459 244.553598 
L 118.417459 242.316869 
L 120.365424 242.316869 
L 120.365424 240.639323 
L 123.36232 240.639323 
L 123.36232 240.08014 
L 133.079291 240.08014 
L 133.079291 239.520958 
L 133.936519 239.520958 
L 133.936519 238.961776 
L 136.914823 238.961776 
L 136.914823 237.843411 
L 137.070377 237.843411 
L 137.070377 237.284229 
L 137.603992 237.284229 
L 137.603992 235.606682 
L 142.015238 235.606682 
L 142.015238 231.133225 
L 142.303162 231.133225 
L 142.303162 229.455678 
L 143.515683 229.455678 
L 143.515683 228.896496 
L 145.522465 228.896496 
L 145.522465 227.778131 
L 146.39939 227.778131 
L 146.39939 226.100584 
L 146.711514 226.100584 
L 146.711514 222.745491 
L 147.446737 222.745491 
L 147.446737 222.186309 
L 148.55342 222.186309 
L 148.55342 219.94958 
L 149.367465 219.94958 
L 149.367465 218.272033 
L 150.216915 218.272033 
L 150.288834 216.035304 
L 152.507631 216.035304 
L 152.507631 215.476122 
L 153.987461 215.476122 
L 153.987461 214.357757 
L 157.365541 214.357757 
L 157.365541 213.239393 
L 157.625086 213.239393 
L 157.625086 212.121028 
L 160.147128 212.121028 
L 160.147128 211.561846 
L 161.432494 211.561846 
L 161.432494 209.884299 
L 164.516239 209.884299 
L 164.516239 208.765935 
L 165.727207 208.765935 
L 165.727207 207.088388 
L 167.634407 207.088388 
L 167.725732 204.292477 
L 167.816575 204.292477 
L 167.816575 203.174112 
L 168.07351 203.174112 
L 168.07351 202.61493 
L 168.213204 202.61493 
L 168.213204 200.937384 
L 170.001425 200.937384 
L 170.001425 200.378201 
L 170.148968 200.378201 
L 170.148968 198.141472 
L 170.704923 198.141472 
L 170.704923 197.58229 
L 172.172241 197.58229 
L 172.172241 197.023108 
L 172.559635 197.023108 
L 172.559635 194.227197 
L 172.68685 194.227197 
L 172.68685 193.668014 
L 173.468286 193.668014 
L 173.468286 192.54965 
L 174.162133 192.54965 
L 174.162133 191.431285 
L 175.929236 191.431285 
L 175.937308 189.753739 
L 176.336134 189.753739 
L 176.336134 189.194556 
L 177.670666 189.194556 
L 177.670666 187.51701 
L 179.271735 187.51701 
L 179.271735 186.957828 
L 179.633476 186.957828 
L 179.633476 186.398645 
L 180.303621 186.398645 
L 180.303621 182.48437 
L 180.52132 182.48437 
L 180.52132 181.925187 
L 180.77897 181.925187 
L 180.77897 181.366005 
L 181.37143 181.366005 
L 181.37143 180.806823 
L 181.512034 180.806823 
L 181.512034 179.688458 
L 183.221214 179.688458 
L 183.221214 179.129276 
L 183.909783 179.129276 
L 183.909783 178.010912 
L 184.756392 178.010912 
L 184.756392 176.333365 
L 186.112138 176.333365 
L 186.112138 175.774183 
L 187.289695 175.774183 
L 187.289695 172.978271 
L 187.624107 172.978271 
L 187.624107 171.859907 
L 188.203012 171.859907 
L 188.203012 169.623178 
L 188.317275 169.623178 
L 188.317275 166.827267 
L 188.461964 166.827267 
L 188.461964 165.708902 
L 189.051434 165.708902 
L 189.051434 164.590538 
L 189.312835 164.590538 
L 189.312835 164.031356 
L 189.924439 164.031356 
L 189.924439 163.472173 
L 190.180036 163.472173 
L 190.180036 162.912991 
L 190.796083 162.912991 
L 190.796083 162.353809 
L 191.039131 162.353809 
L 191.039131 161.794627 
L 192.073297 161.794627 
L 192.10798 160.676262 
L 192.327066 160.676262 
L 192.417019 156.202804 
L 192.447928 156.202804 
L 192.447928 152.847711 
L 194.486862 152.847711 
L 194.486862 152.288529 
L 195.119611 152.288529 
L 195.119611 151.729346 
L 195.573549 151.729346 
L 195.642925 148.374253 
L 196.227783 148.374253 
L 196.227783 147.255888 
L 196.393048 147.255888 
L 196.454309 146.137524 
L 197.217417 146.137524 
L 197.217417 145.578342 
L 198.373334 145.578342 
L 198.373334 145.019159 
L 198.805394 145.019159 
L 198.805394 143.900795 
L 198.920212 143.900795 
L 198.920212 142.78243 
L 199.367836 142.78243 
L 199.367836 142.223248 
L 199.668699 142.223248 
L 199.668699 141.664066 
L 200.565976 141.664066 
L 200.565976 139.986519 
L 201.106215 139.986519 
L 201.106215 135.513061 
L 201.241904 135.513061 
L 201.241904 134.394697 
L 201.581049 134.394697 
L 201.581049 133.835515 
L 206.684016 133.835515 
L 206.684016 133.276332 
L 207.090606 133.276332 
L 207.090606 132.71715 
L 207.271458 132.71715 
L 207.271458 132.157968 
L 208.879461 132.157968 
L 208.879461 131.598786 
L 209.186567 131.598786 
L 209.186567 131.039603 
L 210.225122 131.039603 
L 210.236097 127.125328 
L 210.988471 127.125328 
L 210.988471 126.006963 
L 212.085785 126.006963 
L 212.085785 125.447781 
L 212.581986 125.447781 
L 212.645996 123.211052 
L 212.974686 123.211052 
L 212.974686 122.092688 
L 213.160783 122.092688 
L 213.160783 121.533505 
L 213.57589 121.533505 
L 213.57589 119.855959 
L 213.831444 119.855959 
L 213.896295 118.178412 
L 214.059557 118.178412 
L 214.092024 117.060047 
L 217.798202 117.060047 
L 217.798202 116.500865 
L 219.530945 116.500865 
L 219.530945 115.941683 
L 220.505183 115.941683 
L 220.505183 115.382501 
L 220.895512 115.382501 
L 220.895512 114.823318 
L 221.105482 114.823318 
L 221.105482 112.027407 
L 224.473729 112.027407 
L 224.473729 110.909043 
L 226.168999 110.909043 
L 226.168999 109.790678 
L 228.738497 109.790678 
L 228.738497 108.672314 
L 229.645547 108.672314 
L 229.645547 108.113132 
L 229.951041 108.113132 
L 229.951041 107.553949 
L 230.075333 107.553949 
L 230.075333 105.876403 
L 232.149604 105.876403 
L 232.149604 105.31722 
L 233.256231 105.31722 
L 233.256231 104.198856 
L 234.999772 104.198856 
L 234.999772 101.402945 
L 237.441616 101.402945 
L 237.441616 100.843762 
L 240.303736 100.843762 
L 240.303736 100.28458 
L 243.19189 100.28458 
L 243.19189 99.725398 
L 243.781308 99.725398 
L 243.781308 99.166216 
L 244.748339 99.166216 
L 244.748339 98.607033 
L 245.287522 98.607033 
L 245.287522 98.047851 
L 246.175478 98.047851 
L 246.175478 96.929487 
L 247.493155 96.929487 
L 247.493155 96.370304 
L 247.953816 96.370304 
L 247.953816 95.811122 
L 248.716972 95.811122 
L 248.716972 94.692758 
L 249.146366 94.692758 
L 249.146366 94.133576 
L 250.930636 94.133576 
L 250.930636 93.574393 
L 251.938995 93.574393 
L 251.938995 93.015211 
L 254.651333 93.015211 
L 254.651333 92.456029 
L 256.525926 92.456029 
L 256.525926 91.896847 
L 258.394441 91.896847 
L 258.394441 91.337664 
L 259.054328 91.337664 
L 259.054328 90.778482 
L 260.894372 90.778482 
L 260.894372 89.660118 
L 262.556348 89.660118 
L 262.556348 89.100935 
L 263.076451 89.100935 
L 263.076451 88.541753 
L 268.332143 88.541753 
L 268.332143 87.982571 
L 333.168 87.982571 
L 333.168 87.982571 
" style="fill:none;stroke:#ff00ff;stroke-linecap:square;stroke-width:1.5;"/>
   </g>
   <g id="line2d_44">
    <defs>
     <path d="M -0 8.485281 
L 5.091169 0 
L 0 -8.485281 
L -5.091169 -0 
z
" id="mbd97e8416e" style="stroke:#ff00ff;stroke-linejoin:miter;stroke-width:1.5;"/>
    </defs>
    <g>
     <use style="fill-opacity:0;stroke:#ff00ff;stroke-linejoin:miter;stroke-width:1.5;" x="85.422286" xlink:href="#mbd97e8416e" y="256.296425"/>
     <use style="fill-opacity:0;stroke:#ff00ff;stroke-linejoin:miter;stroke-width:1.5;" x="147.446737" xlink:href="#mbd97e8416e" y="222.186309"/>
     <use style="fill-opacity:0;stroke:#ff00ff;stroke-linejoin:miter;stroke-width:1.5;" x="190.180036" xlink:href="#mbd97e8416e" y="162.912991"/>
     <use style="fill-opacity:0;stroke:#ff00ff;stroke-linejoin:miter;stroke-width:1.5;" x="250.930636" xlink:href="#mbd97e8416e" y="93.574393"/>
     <use style="fill-opacity:0;stroke:#ff00ff;stroke-linejoin:miter;stroke-width:1.5;" x="268.332143" xlink:href="#mbd97e8416e" y="87.982571"/>
     <use style="fill-opacity:0;stroke:#ff00ff;stroke-linejoin:miter;stroke-width:1.5;" x="333.168" xlink:href="#mbd97e8416e" y="87.982571"/>
    </g>
   </g>
   <g id="line2d_45">
    <path style="fill:none;stroke:#ff00ff;stroke-linecap:square;stroke-width:1.5;"/>
    <g/>
   </g>
   <g id="line2d_46">
    <path clip-path="url(#p578f0577fe)" d="M 202.691626 133.835515 
" style="fill:none;stroke:#ff00ff;stroke-linecap:square;stroke-width:1.5;"/>
    <defs>
     <path d="M -12 12 
L 12 -12 
M -12 -12 
L 12 12 
" id="m63e25cc76b" style="stroke:#ff00ff;"/>
    </defs>
    <g clip-path="url(#p578f0577fe)">
     <use style="fill:#ff00ff;stroke:#ff00ff;" x="202.691626" xlink:href="#m63e25cc76b" y="133.835515"/>
    </g>
   </g>
   <g id="line2d_47">
    <defs>
     <path d="M 0 1.5 
C 0.397805 1.5 0.77937 1.341951 1.06066 1.06066 
C 1.341951 0.77937 1.5 0.397805 1.5 0 
C 1.5 -0.397805 1.341951 -0.77937 1.06066 -1.06066 
C 0.77937 -1.341951 0.397805 -1.5 0 -1.5 
C -0.397805 -1.5 -0.77937 -1.341951 -1.06066 -1.06066 
C -1.341951 -0.77937 -1.5 -0.397805 -1.5 0 
C -1.5 0.397805 -1.341951 0.77937 -1.06066 1.06066 
C -0.77937 1.341951 -0.397805 1.5 0 1.5 
z
" id="m0fcf1f7de8" style="stroke:#ffa500;"/>
    </defs>
    <g>
     <use style="fill:#ffa500;stroke:#ffa500;" x="269.214076" xlink:href="#m0fcf1f7de8" y="82.390748"/>
     <use style="fill:#ffa500;stroke:#ffa500;" x="269.214076" xlink:href="#m0fcf1f7de8" y="82.390748"/>
    </g>
   </g>
   <g id="line2d_48">
    <path d="M 44.205749 294.88 
L 44.205749 292.084089 
L 56.12 292.084089 
L 56.12 288.728995 
L 63.08939 288.728995 
L 63.08939 287.610631 
L 75.003641 287.610631 
L 75.003641 284.81472 
L 79.948502 284.81472 
L 79.948502 284.255537 
L 81.973032 284.255537 
L 81.973032 282.577991 
L 83.784035 282.577991 
L 83.784035 282.018808 
L 85.422286 282.018808 
L 85.422286 281.459626 
L 86.917893 281.459626 
L 86.917893 280.900444 
L 90.753425 280.900444 
L 90.753425 274.190257 
L 91.862754 274.190257 
L 91.862754 271.394346 
L 92.904808 271.394346 
L 92.904808 264.124977 
L 93.887283 264.124977 
L 93.887283 261.329066 
L 98.100602 261.329066 
L 98.100602 255.737243 
L 98.832144 255.737243 
L 98.832144 252.38215 
L 99.533818 252.38215 
L 99.533818 251.263785 
L 103.231288 251.263785 
L 103.231288 250.704603 
L 107.177358 250.704603 
L 107.177358 249.027056 
L 111.100812 249.027056 
L 111.100812 247.908692 
L 111.788449 247.908692 
L 111.788449 247.34951 
L 113.999206 247.34951 
L 113.999206 246.790327 
L 116.984244 246.790327 
L 116.984244 245.112781 
L 121.551317 245.112781 
L 121.551317 243.435234 
L 123.189569 243.435234 
L 123.189569 240.639323 
L 136.359022 240.639323 
L 136.359022 240.08014 
L 137.301101 240.08014 
L 137.301101 238.961776 
L 137.678888 238.961776 
L 137.678888 238.402594 
L 139.249066 238.402594 
L 139.249066 236.165865 
L 140.874911 236.165865 
L 140.874911 235.0475 
L 140.998571 235.0475 
L 140.998571 234.488318 
L 142.975116 234.488318 
L 142.975116 233.369954 
L 144.895601 233.369954 
L 144.895601 232.251589 
L 145.332007 232.251589 
L 145.332007 231.692407 
L 145.989576 231.692407 
L 145.989576 231.133225 
L 146.218456 231.133225 
L 146.218456 230.01486 
L 147.404349 230.01486 
L 147.446737 226.659767 
L 152.027918 226.659767 
L 152.027918 225.541402 
L 154.556673 225.541402 
L 154.556673 224.423038 
L 156.562529 224.423038 
L 156.562529 223.863855 
L 156.686635 223.863855 
L 156.686635 222.186309 
L 156.809852 222.186309 
L 156.809852 221.627126 
L 158.018648 221.627126 
L 158.018648 221.067944 
L 158.910606 221.067944 
L 158.997308 218.831215 
L 159.487531 218.831215 
L 159.487531 218.272033 
L 161.600554 218.272033 
L 161.600554 217.712851 
L 162.785208 217.712851 
L 162.785208 217.153669 
L 163.631276 217.153669 
L 163.631276 216.594486 
L 164.547577 216.594486 
L 164.610081 214.91694 
L 164.888571 214.91694 
L 164.888571 212.680211 
L 165.402605 212.680211 
L 165.402605 212.121028 
L 166.188675 212.121028 
L 166.259673 210.443482 
L 166.872126 210.443482 
L 166.872126 209.884299 
L 167.330876 209.884299 
L 167.330876 209.325117 
L 168.035213 209.325117 
L 168.035213 208.206753 
L 168.301512 208.206753 
L 168.301512 205.410841 
L 169.052442 205.410841 
L 169.052442 203.733295 
L 169.795022 203.733295 
L 169.795022 202.055748 
L 170.103705 202.055748 
L 170.103705 200.937384 
L 170.35119 200.937384 
L 170.35119 199.819019 
L 171.714122 199.819019 
L 171.714122 198.700655 
L 171.847727 198.700655 
L 171.847727 197.58229 
L 173.062942 197.58229 
L 173.062942 195.904743 
L 173.782158 195.904743 
L 173.782158 194.227197 
L 173.909752 194.227197 
L 173.909752 192.54965 
L 176.129899 192.54965 
L 176.129899 189.753739 
L 176.795147 189.753739 
L 176.795147 189.194556 
L 182.404486 189.194556 
L 182.404486 187.51701 
L 183.331786 187.51701 
L 183.331786 186.957828 
L 183.970574 186.957828 
L 184.005937 185.280281 
L 184.181665 185.280281 
L 184.181665 184.721099 
L 184.36056 184.721099 
L 184.36056 184.161916 
L 184.688625 184.161916 
L 184.790176 182.48437 
L 184.833515 182.48437 
L 184.833515 181.366005 
L 185.489343 181.366005 
L 185.489343 178.570094 
L 186.187869 178.570094 
L 186.241126 176.892547 
L 186.901807 176.892547 
L 186.901807 176.333365 
L 188.07604 176.333365 
L 188.07604 175.215 
L 189.675872 175.215 
L 189.675872 174.655818 
L 189.978003 174.655818 
L 190.063359 173.537454 
L 190.172988 173.537454 
L 190.172988 172.978271 
L 191.029073 172.978271 
L 191.029073 171.859907 
L 191.433452 171.859907 
L 191.433452 171.300725 
L 191.764387 171.300725 
L 191.790075 166.827267 
L 192.784311 166.827267 
L 192.784311 165.708902 
L 193.232658 165.708902 
L 193.232658 165.14972 
L 193.878302 165.14972 
L 193.878302 164.590538 
L 194.146153 164.590538 
L 194.146153 163.472173 
L 194.321506 163.472173 
L 194.354705 161.794627 
L 194.753569 161.794627 
L 194.845141 158.998715 
L 195.246037 158.998715 
L 195.267018 157.321169 
L 195.658304 157.321169 
L 195.747742 153.966075 
L 195.801182 153.966075 
L 195.826572 152.847711 
L 195.9328 152.847711 
L 195.9328 152.288529 
L 196.410223 152.288529 
L 196.510477 149.492617 
L 197.889677 149.492617 
L 197.941352 147.255888 
L 198.588561 147.255888 
L 198.588561 146.696706 
L 199.624006 146.696706 
L 199.624006 145.578342 
L 199.763793 145.578342 
L 199.763793 143.341613 
L 200.038016 143.341613 
L 200.038016 141.104884 
L 200.39762 141.104884 
L 200.39762 140.545702 
L 200.562124 140.545702 
L 200.562124 139.427337 
L 201.385711 139.427337 
L 201.385711 138.308973 
L 201.524684 138.308973 
L 201.524684 136.631426 
L 201.768806 136.631426 
L 201.795718 133.835515 
L 202.358289 133.835515 
L 202.358289 132.71715 
L 202.565238 132.71715 
L 202.565238 131.598786 
L 210.005255 131.598786 
L 210.005255 131.039603 
L 211.091078 131.039603 
L 211.091078 130.480421 
L 211.503641 130.480421 
L 211.503641 129.921239 
L 211.791666 129.921239 
L 211.791666 129.362057 
L 212.39432 129.362057 
L 212.39432 126.566145 
L 213.14041 126.566145 
L 213.204224 122.092688 
L 213.965319 122.092688 
L 213.965319 121.533505 
L 214.15066 121.533505 
L 214.16376 119.855959 
L 214.5428 119.855959 
L 214.5428 119.296776 
L 218.144469 119.296776 
L 218.144469 118.737594 
L 218.648779 118.737594 
L 218.648779 118.178412 
L 219.557118 118.178412 
L 219.570509 117.060047 
L 219.751213 117.060047 
L 219.751213 115.941683 
L 220.132949 115.941683 
L 220.132949 114.823318 
L 220.653645 114.823318 
L 220.653645 114.264136 
L 221.28179 114.264136 
L 221.28179 113.145772 
L 221.464872 113.145772 
L 221.464872 112.586589 
L 225.029162 112.586589 
L 225.029162 112.027407 
L 225.170553 112.027407 
L 225.170553 111.468225 
L 225.803008 111.468225 
L 225.894136 109.790678 
L 226.300491 109.790678 
L 226.300491 107.553949 
L 229.181068 107.553949 
L 229.181068 106.994767 
L 230.102295 106.994767 
L 230.180176 105.31722 
L 230.289508 105.31722 
L 230.289508 104.758038 
L 232.51635 104.758038 
L 232.51635 104.198856 
L 233.014778 104.198856 
L 233.014778 103.639674 
L 233.343406 103.639674 
L 233.343406 101.402945 
L 236.013995 101.402945 
L 236.013995 99.166216 
L 237.709717 99.166216 
L 237.709717 98.607033 
L 238.124233 98.607033 
L 238.124233 98.047851 
L 238.324912 98.047851 
L 238.324912 96.929487 
L 239.991455 96.929487 
L 239.991455 96.370304 
L 242.022244 96.370304 
L 242.022244 95.811122 
L 242.182393 95.811122 
L 242.182393 93.574393 
L 243.384185 93.574393 
L 243.384185 93.015211 
L 243.828619 93.015211 
L 243.828619 91.896847 
L 245.330869 91.896847 
L 245.330869 91.337664 
L 252.324594 91.337664 
L 252.324594 90.2193 
L 253.256495 90.2193 
L 253.256495 89.660118 
L 254.981179 89.660118 
L 254.981179 88.541753 
L 256.548483 88.541753 
L 256.548483 87.982571 
L 257.281609 87.982571 
L 257.281609 87.423389 
L 258.660237 87.423389 
L 258.660237 86.864206 
L 259.310188 86.864206 
L 259.310188 86.305024 
L 260.540703 86.305024 
L 260.540703 85.745842 
L 261.12443 85.745842 
L 261.12443 85.18666 
L 262.23558 85.18666 
L 262.23558 84.627477 
L 262.765331 84.627477 
L 262.765331 84.068295 
L 264.263145 84.068295 
L 264.263145 83.509113 
L 268.481743 83.509113 
L 268.481743 82.949931 
L 269.214076 82.949931 
L 269.214076 82.390748 
L 333.168 82.390748 
L 333.168 82.390748 
" style="fill:none;stroke:#ffa500;stroke-linecap:square;stroke-width:1.5;"/>
   </g>
   <g id="line2d_49">
    <defs>
     <path d="M 0 -6 
L -1.347084 -1.854102 
L -5.706339 -1.854102 
L -2.179628 0.708204 
L -3.526712 4.854102 
L -0 2.291796 
L 3.526712 4.854102 
L 2.179628 0.708204 
L 5.706339 -1.854102 
L 1.347084 -1.854102 
z
" id="mc555278eb4" style="stroke:#ffa500;stroke-linejoin:bevel;stroke-width:1.5;"/>
    </defs>
    <g>
     <use style="fill-opacity:0;stroke:#ffa500;stroke-linejoin:bevel;stroke-width:1.5;" x="93.887283" xlink:href="#mc555278eb4" y="261.329066"/>
     <use style="fill-opacity:0;stroke:#ffa500;stroke-linejoin:bevel;stroke-width:1.5;" x="168.035213" xlink:href="#mc555278eb4" y="209.325117"/>
     <use style="fill-opacity:0;stroke:#ffa500;stroke-linejoin:bevel;stroke-width:1.5;" x="202.565238" xlink:href="#mc555278eb4" y="132.71715"/>
     <use style="fill-opacity:0;stroke:#ffa500;stroke-linejoin:bevel;stroke-width:1.5;" x="269.214076" xlink:href="#mc555278eb4" y="82.949931"/>
     <use style="fill-opacity:0;stroke:#ffa500;stroke-linejoin:bevel;stroke-width:1.5;" x="269.214076" xlink:href="#mc555278eb4" y="82.390748"/>
     <use style="fill-opacity:0;stroke:#ffa500;stroke-linejoin:bevel;stroke-width:1.5;" x="333.168" xlink:href="#mc555278eb4" y="82.390748"/>
    </g>
   </g>
   <g id="line2d_50">
    <path style="fill:none;stroke:#ffa500;stroke-linecap:square;stroke-width:1.5;"/>
    <g/>
   </g>
   <g id="line2d_51">
    <path clip-path="url(#p578f0577fe)" d="M 202.691626 131.598786 
" style="fill:none;stroke:#ffa500;stroke-linecap:square;stroke-width:1.5;"/>
    <defs>
     <path d="M -12 12 
L 12 -12 
M -12 -12 
L 12 12 
" id="m84b1758224" style="stroke:#ffa500;"/>
    </defs>
    <g clip-path="url(#p578f0577fe)">
     <use style="fill:#ffa500;stroke:#ffa500;" x="202.691626" xlink:href="#m84b1758224" y="131.598786"/>
    </g>
   </g>
   <g id="line2d_52">
    <defs>
     <path d="M 0 1.5 
C 0.397805 1.5 0.77937 1.341951 1.06066 1.06066 
C 1.341951 0.77937 1.5 0.397805 1.5 0 
C 1.5 -0.397805 1.341951 -0.77937 1.06066 -1.06066 
C 0.77937 -1.341951 0.397805 -1.5 0 -1.5 
C -0.397805 -1.5 -0.77937 -1.341951 -1.06066 -1.06066 
C -1.341951 -0.77937 -1.5 -0.397805 -1.5 0 
C -1.5 0.397805 -1.341951 0.77937 -1.06066 1.06066 
C -0.77937 1.341951 -0.397805 1.5 0 1.5 
z
" id="m41eb9f85d9" style="stroke:#6495ed;"/>
    </defs>
    <g>
     <use style="fill:#6495ed;stroke:#6495ed;" x="218.796098" xlink:href="#m41eb9f85d9" y="9.697057"/>
     <use style="fill:#6495ed;stroke:#6495ed;" x="218.796098" xlink:href="#m41eb9f85d9" y="9.697057"/>
    </g>
   </g>
   <g id="line2d_53">
    <path d="M 44.205749 294.88 
L 44.205749 282.577991 
L 56.12 282.577991 
L 56.12 278.663715 
L 63.08939 278.663715 
L 63.08939 268.039252 
L 68.034251 268.039252 
L 68.034251 267.48007 
L 75.003641 267.48007 
L 75.003641 262.44743 
L 77.653281 262.44743 
L 77.653281 260.210701 
L 79.948502 260.210701 
L 79.948502 259.651519 
L 85.422286 259.651519 
L 85.422286 259.092337 
L 86.917893 259.092337 
L 86.917893 256.296425 
L 93.887283 256.296425 
L 93.887283 255.737243 
L 94.816624 255.737243 
L 94.816624 254.059696 
L 96.536922 254.059696 
L 96.536922 252.941332 
L 97.336537 252.941332 
L 97.336537 251.822967 
L 98.100602 251.822967 
L 98.100602 248.467874 
L 105.317315 248.467874 
L 105.317315 246.790327 
L 107.612537 246.790327 
L 107.612537 245.671963 
L 108.036969 245.671963 
L 108.036969 244.553598 
L 110.014853 244.553598 
L 110.014853 242.316869 
L 115.420563 242.316869 
L 115.420563 240.639323 
L 116.220179 240.639323 
L 116.220179 235.606682 
L 119.09161 235.606682 
L 119.09161 231.133225 
L 119.95122 231.133225 
L 119.95122 229.455678 
L 120.968596 229.455678 
L 120.968596 228.896496 
L 128.898495 228.896496 
L 128.898495 227.778131 
L 132.279675 227.778131 
L 132.279675 225.541402 
L 137.377325 225.541402 
L 137.377325 224.98222 
L 138.553074 224.98222 
L 138.553074 223.863855 
L 139.112104 223.863855 
L 139.112104 219.94958 
L 141.66324 219.94958 
L 141.66324 218.831215 
L 142.360172 218.831215 
L 142.360172 217.153669 
L 145.042304 217.153669 
L 145.139415 207.088388 
L 146.127269 207.088388 
L 146.127269 205.970024 
L 146.489148 205.970024 
L 146.489148 204.851659 
L 146.622913 204.851659 
L 146.622913 200.378201 
L 147.657127 200.378201 
L 147.657127 195.904743 
L 148.232877 195.904743 
L 148.232877 194.786379 
L 149.367465 194.786379 
L 149.367465 191.990468 
L 150.957462 191.990468 
L 150.957462 191.431285 
L 151.400405 191.431285 
L 151.400405 189.753739 
L 153.783699 189.753739 
L 153.783699 189.194556 
L 154.245942 189.194556 
L 154.245942 186.957828 
L 156.6371 186.957828 
L 156.6371 178.010912 
L 156.956555 178.010912 
L 157.005179 176.333365 
L 157.903827 176.333365 
L 157.903827 175.774183 
L 158.757817 175.774183 
L 158.757817 174.655818 
L 161.563349 174.655818 
L 161.563349 172.978271 
L 161.73014 172.978271 
L 161.73014 171.859907 
L 162.077028 171.859907 
L 162.077028 170.18236 
L 163.196521 170.18236 
L 163.196521 169.623178 
L 163.581669 169.623178 
L 163.581669 169.063996 
L 164.578857 169.063996 
L 164.578857 167.945631 
L 165.14751 167.945631 
L 165.14751 166.268085 
L 166.259673 166.268085 
L 166.259673 165.14972 
L 170.362355 165.14972 
L 170.362355 164.590538 
L 170.517909 164.590538 
L 170.517909 153.406893 
L 172.451251 153.406893 
L 172.451251 152.847711 
L 172.80345 152.847711 
L 172.80345 152.288529 
L 173.224339 152.288529 
L 173.224339 151.170164 
L 174.811832 151.170164 
L 174.811832 149.492617 
L 175.545527 149.492617 
L 175.594991 131.598786 
L 175.660722 131.598786 
L 175.660722 130.480421 
L 176.833489 130.480421 
L 176.833489 129.921239 
L 177.17477 129.921239 
L 177.264645 114.264136 
L 178.14556 114.264136 
L 178.14556 113.704954 
L 179.31157 113.704954 
L 179.31157 107.553949 
L 179.489692 107.553949 
L 179.489692 105.876403 
L 181.241526 105.876403 
L 181.347884 101.402945 
L 181.616736 101.402945 
L 181.616736 99.725398 
L 182.613703 99.725398 
L 182.613703 93.574393 
L 183.237054 93.574393 
L 183.237054 93.015211 
L 184.900714 93.015211 
L 184.900714 86.305024 
L 185.096015 86.305024 
L 185.096015 85.18666 
L 185.833081 85.18666 
L 185.833081 84.068295 
L 186.417466 84.068295 
L 186.417466 83.509113 
L 186.743306 83.509113 
L 186.743306 79.035655 
L 188.012201 79.035655 
L 188.012201 72.325468 
L 188.504746 72.325468 
L 188.504746 71.766286 
L 188.709398 71.766286 
L 188.709398 71.207104 
L 189.043907 71.207104 
L 189.043907 59.464277 
L 190.539199 59.464277 
L 190.539199 58.345912 
L 190.860555 58.345912 
L 190.860555 56.109183 
L 191.927495 56.109183 
L 191.927495 55.550001 
L 192.386054 55.550001 
L 192.481864 52.75409 
L 193.003967 52.75409 
L 193.003967 49.958178 
L 193.388318 49.958178 
L 193.388318 39.892898 
L 194.062019 39.892898 
L 194.062019 39.333716 
L 194.315967 39.333716 
L 194.315967 24.794978 
L 194.525218 24.794978 
L 194.525218 22.558249 
L 195.021519 22.558249 
L 195.021519 21.999066 
L 195.410573 21.999066 
L 195.410573 20.880702 
L 196.585893 20.880702 
L 196.585893 20.32152 
L 197.867161 20.32152 
L 197.867161 18.084791 
L 199.437893 18.084791 
L 199.437893 17.525609 
L 200.144913 17.525609 
L 200.144913 16.966426 
L 200.571752 16.966426 
L 200.571752 15.848062 
L 200.820202 15.848062 
L 200.820202 15.28888 
L 202.138278 15.28888 
L 202.138278 14.729697 
L 203.285348 14.729697 
L 203.285348 14.170515 
L 207.029896 14.170515 
L 207.029896 13.052151 
L 208.998955 13.052151 
L 208.998955 12.492968 
L 211.822706 12.492968 
L 211.822706 11.933786 
L 213.379644 11.933786 
L 213.379644 11.374604 
L 213.61379 11.374604 
L 213.61379 10.815422 
L 218.796098 10.815422 
L 218.796098 9.697057 
L 333.168 9.697057 
L 333.168 9.697057 
" style="fill:none;stroke:#6495ed;stroke-linecap:square;stroke-width:1.5;"/>
   </g>
   <g id="line2d_54">
    <defs>
     <path d="M -0 6 
L 6 -6 
L -6 -6 
z
" id="m2044a3d9e6" style="stroke:#6495ed;stroke-linejoin:miter;stroke-width:1.5;"/>
    </defs>
    <g>
     <use style="fill-opacity:0;stroke:#6495ed;stroke-linejoin:miter;stroke-width:1.5;" x="86.917893" xlink:href="#m2044a3d9e6" y="256.296425"/>
     <use style="fill-opacity:0;stroke:#6495ed;stroke-linejoin:miter;stroke-width:1.5;" x="156.6371" xlink:href="#m2044a3d9e6" y="186.957828"/>
     <use style="fill-opacity:0;stroke:#6495ed;stroke-linejoin:miter;stroke-width:1.5;" x="199.437893" xlink:href="#m2044a3d9e6" y="17.525609"/>
     <use style="fill-opacity:0;stroke:#6495ed;stroke-linejoin:miter;stroke-width:1.5;" x="218.796098" xlink:href="#m2044a3d9e6" y="10.815422"/>
     <use style="fill-opacity:0;stroke:#6495ed;stroke-linejoin:miter;stroke-width:1.5;" x="218.796098" xlink:href="#m2044a3d9e6" y="9.697057"/>
     <use style="fill-opacity:0;stroke:#6495ed;stroke-linejoin:miter;stroke-width:1.5;" x="333.168" xlink:href="#m2044a3d9e6" y="9.697057"/>
    </g>
   </g>
   <g id="line2d_55">
    <path style="fill:none;stroke:#6495ed;stroke-linecap:square;stroke-width:1.5;"/>
    <g/>
   </g>
   <g id="line2d_56">
    <path clip-path="url(#p578f0577fe)" d="M 202.691626 14.729697 
" style="fill:none;stroke:#6495ed;stroke-linecap:square;stroke-width:1.5;"/>
    <defs>
     <path d="M -12 12 
L 12 -12 
M -12 -12 
L 12 12 
" id="m959d23391f" style="stroke:#6495ed;"/>
    </defs>
    <g clip-path="url(#p578f0577fe)">
     <use style="fill:#6495ed;stroke:#6495ed;" x="202.691626" xlink:href="#m959d23391f" y="14.729697"/>
    </g>
   </g>
   <g id="line2d_57">
    <path d="M 333.168 99.166216 
L 363.64328 289.176341 
" style="fill:none;stroke:#000080;stroke-linecap:square;stroke-width:1.5;"/>
    <g>
     <use style="fill-opacity:0;stroke:#000080;stroke-width:1.5;" x="333.168" xlink:href="#med7ed6bb76" y="99.166216"/>
     <use style="fill-opacity:0;stroke:#000080;stroke-width:1.5;" x="363.64328" xlink:href="#med7ed6bb76" y="289.176341"/>
    </g>
   </g>
   <g id="line2d_58">
    <path d="M 333.168 87.982571 
L 363.64328 197.917799 
" style="fill:none;stroke:#ff00ff;stroke-linecap:square;stroke-width:1.5;"/>
    <g>
     <use style="fill-opacity:0;stroke:#ff00ff;stroke-linejoin:miter;stroke-width:1.5;" x="333.168" xlink:href="#mbd97e8416e" y="87.982571"/>
     <use style="fill-opacity:0;stroke:#ff00ff;stroke-linejoin:miter;stroke-width:1.5;" x="363.64328" xlink:href="#mbd97e8416e" y="197.917799"/>
    </g>
   </g>
   <g id="line2d_59">
    <path d="M 333.168 82.390748 
L 363.64328 106.659258 
" style="fill:none;stroke:#ffa500;stroke-linecap:square;stroke-width:1.5;"/>
    <g>
     <use style="fill-opacity:0;stroke:#ffa500;stroke-linejoin:bevel;stroke-width:1.5;" x="333.168" xlink:href="#mc555278eb4" y="82.390748"/>
     <use style="fill-opacity:0;stroke:#ffa500;stroke-linejoin:bevel;stroke-width:1.5;" x="363.64328" xlink:href="#mc555278eb4" y="106.659258"/>
    </g>
   </g>
   <g id="line2d_60">
    <path d="M 333.168 9.697057 
L 363.64328 15.400716 
" style="fill:none;stroke:#6495ed;stroke-linecap:square;stroke-width:1.5;"/>
    <g>
     <use style="fill-opacity:0;stroke:#6495ed;stroke-linejoin:miter;stroke-width:1.5;" x="333.168" xlink:href="#m2044a3d9e6" y="9.697057"/>
     <use style="fill-opacity:0;stroke:#6495ed;stroke-linejoin:miter;stroke-width:1.5;" x="363.64328" xlink:href="#m2044a3d9e6" y="15.400716"/>
    </g>
   </g>
   <g id="line2d_61">
    <path d="M 333.168 294.88 
L 333.168 9.697057 
" style="fill:none;stroke:#000000;stroke-linecap:square;stroke-width:1.5;"/>
   </g>
   <g id="patch_3">
    <path d="M 56.12 294.88 
L 56.12 6.845228 
" style="fill:none;stroke:#000000;stroke-linecap:square;stroke-linejoin:miter;stroke-width:0.8;"/>
   </g>
   <g id="patch_4">
    <path d="M 333.168 294.88 
L 333.168 6.845228 
" style="fill:none;stroke:#000000;stroke-linecap:square;stroke-linejoin:miter;stroke-width:0.8;"/>
   </g>
   <g id="patch_5">
    <path d="M 56.12 294.88 
L 333.168 294.88 
" style="fill:none;stroke:#000000;stroke-linecap:square;stroke-linejoin:miter;stroke-width:0.8;"/>
   </g>
   <g id="patch_6">
    <path d="M 56.12 6.845228 
L 333.168 6.845228 
" style="fill:none;stroke:#000000;stroke-linecap:square;stroke-linejoin:miter;stroke-width:0.8;"/>
   </g>
   <g id="text_13">
    <!-- f8 -->
    <g transform="translate(369.18424 293.867279)scale(0.17 -0.17)">
     <use xlink:href="#DejaVuSans-66"/>
     <use x="35.205078" xlink:href="#DejaVuSans-38"/>
    </g>
   </g>
   <g id="text_14">
    <!-- f9 -->
    <defs>
     <path d="M 10.984375 1.515625 
L 10.984375 10.5 
Q 14.703125 8.734375 18.5 7.8125 
Q 22.3125 6.890625 25.984375 6.890625 
Q 35.75 6.890625 40.890625 13.453125 
Q 46.046875 20.015625 46.78125 33.40625 
Q 43.953125 29.203125 39.59375 26.953125 
Q 35.25 24.703125 29.984375 24.703125 
Q 19.046875 24.703125 12.671875 31.3125 
Q 6.296875 37.9375 6.296875 49.421875 
Q 6.296875 60.640625 12.9375 67.421875 
Q 19.578125 74.21875 30.609375 74.21875 
Q 43.265625 74.21875 49.921875 64.515625 
Q 56.59375 54.828125 56.59375 36.375 
Q 56.59375 19.140625 48.40625 8.859375 
Q 40.234375 -1.421875 26.421875 -1.421875 
Q 22.703125 -1.421875 18.890625 -0.6875 
Q 15.09375 0.046875 10.984375 1.515625 
z
M 30.609375 32.421875 
Q 37.25 32.421875 41.125 36.953125 
Q 45.015625 41.5 45.015625 49.421875 
Q 45.015625 57.28125 41.125 61.84375 
Q 37.25 66.40625 30.609375 66.40625 
Q 23.96875 66.40625 20.09375 61.84375 
Q 16.21875 57.28125 16.21875 49.421875 
Q 16.21875 41.5 20.09375 36.953125 
Q 23.96875 32.421875 30.609375 32.421875 
z
" id="DejaVuSans-39"/>
    </defs>
    <g transform="translate(369.18424 202.608737)scale(0.17 -0.17)">
     <use xlink:href="#DejaVuSans-66"/>
     <use x="35.205078" xlink:href="#DejaVuSans-39"/>
    </g>
   </g>
   <g id="text_15">
    <!-- f6 -->
    <g transform="translate(369.18424 111.350195)scale(0.17 -0.17)">
     <use xlink:href="#DejaVuSans-66"/>
     <use x="35.205078" xlink:href="#DejaVuSans-36"/>
    </g>
   </g>
   <g id="text_16">
    <!-- f7 -->
    <defs>
     <path d="M 8.203125 72.90625 
L 55.078125 72.90625 
L 55.078125 68.703125 
L 28.609375 0 
L 18.3125 0 
L 43.21875 64.59375 
L 8.203125 64.59375 
z
" id="DejaVuSans-37"/>
    </defs>
    <g transform="translate(369.18424 20.091654)scale(0.17 -0.17)">
     <use xlink:href="#DejaVuSans-66"/>
     <use x="35.205078" xlink:href="#DejaVuSans-37"/>
    </g>
   </g>
   <g id="text_17">
    <!-- bbob -->
    <defs>
     <path d="M 48.6875 27.296875 
Q 48.6875 37.203125 44.609375 42.84375 
Q 40.53125 48.484375 33.40625 48.484375 
Q 26.265625 48.484375 22.1875 42.84375 
Q 18.109375 37.203125 18.109375 27.296875 
Q 18.109375 17.390625 22.1875 11.75 
Q 26.265625 6.109375 33.40625 6.109375 
Q 40.53125 6.109375 44.609375 11.75 
Q 48.6875 17.390625 48.6875 27.296875 
z
M 18.109375 46.390625 
Q 20.953125 51.265625 25.265625 53.625 
Q 29.59375 56 35.59375 56 
Q 45.5625 56 51.78125 48.09375 
Q 58.015625 40.1875 58.015625 27.296875 
Q 58.015625 14.40625 51.78125 6.484375 
Q 45.5625 -1.421875 35.59375 -1.421875 
Q 29.59375 -1.421875 25.265625 0.953125 
Q 20.953125 3.328125 18.109375 8.203125 
L 18.109375 0 
L 9.078125 0 
L 9.078125 75.984375 
L 18.109375 75.984375 
z
" id="DejaVuSans-62"/>
    </defs>
    <g transform="translate(58.89048 17.475982)scale(0.102 -0.102)">
     <use xlink:href="#DejaVuSans-62"/>
     <use x="63.476562" xlink:href="#DejaVuSans-62"/>
     <use x="126.953125" xlink:href="#DejaVuSans-6f"/>
     <use x="188.134766" xlink:href="#DejaVuSans-62"/>
    </g>
    <!-- Misc. moderate functions, 2-D -->
    <defs>
     <path d="M 9.8125 72.90625 
L 24.515625 72.90625 
L 43.109375 23.296875 
L 61.8125 72.90625 
L 76.515625 72.90625 
L 76.515625 0 
L 66.890625 0 
L 66.890625 64.015625 
L 48.09375 14.015625 
L 38.1875 14.015625 
L 19.390625 64.015625 
L 19.390625 0 
L 9.8125 0 
z
" id="DejaVuSans-4d"/>
     <path d="M 19.671875 64.796875 
L 19.671875 8.109375 
L 31.59375 8.109375 
Q 46.6875 8.109375 53.6875 14.9375 
Q 60.6875 21.78125 60.6875 36.53125 
Q 60.6875 51.171875 53.6875 57.984375 
Q 46.6875 64.796875 31.59375 64.796875 
z
M 9.8125 72.90625 
L 30.078125 72.90625 
Q 51.265625 72.90625 61.171875 64.09375 
Q 71.09375 55.28125 71.09375 36.53125 
Q 71.09375 17.671875 61.125 8.828125 
Q 51.171875 0 30.078125 0 
L 9.8125 0 
z
" id="DejaVuSans-44"/>
    </defs>
    <g transform="translate(58.89048 28.89775)scale(0.102 -0.102)">
     <use xlink:href="#DejaVuSans-4d"/>
     <use x="86.279297" xlink:href="#DejaVuSans-69"/>
     <use x="114.0625" xlink:href="#DejaVuSans-73"/>
     <use x="166.162109" xlink:href="#DejaVuSans-63"/>
     <use x="221.142578" xlink:href="#DejaVuSans-2e"/>
     <use x="252.929688" xlink:href="#DejaVuSans-20"/>
     <use x="284.716797" xlink:href="#DejaVuSans-6d"/>
     <use x="382.128906" xlink:href="#DejaVuSans-6f"/>
     <use x="443.310547" xlink:href="#DejaVuSans-64"/>
     <use x="506.787109" xlink:href="#DejaVuSans-65"/>
     <use x="568.310547" xlink:href="#DejaVuSans-72"/>
     <use x="609.423828" xlink:href="#DejaVuSans-61"/>
     <use x="670.703125" xlink:href="#DejaVuSans-74"/>
     <use x="709.912109" xlink:href="#DejaVuSans-65"/>
     <use x="771.435547" xlink:href="#DejaVuSans-20"/>
     <use x="803.222656" xlink:href="#DejaVuSans-66"/>
     <use x="838.427734" xlink:href="#DejaVuSans-75"/>
     <use x="901.806641" xlink:href="#DejaVuSans-6e"/>
     <use x="965.185547" xlink:href="#DejaVuSans-63"/>
     <use x="1020.166016" xlink:href="#DejaVuSans-74"/>
     <use x="1059.375" xlink:href="#DejaVuSans-69"/>
     <use x="1087.158203" xlink:href="#DejaVuSans-6f"/>
     <use x="1148.339844" xlink:href="#DejaVuSans-6e"/>
     <use x="1211.71875" xlink:href="#DejaVuSans-73"/>
     <use x="1263.818359" xlink:href="#DejaVuSans-2c"/>
     <use x="1295.605469" xlink:href="#DejaVuSans-20"/>
     <use x="1327.392578" xlink:href="#DejaVuSans-32"/>
     <use x="1391.015625" xlink:href="#DejaVuSans-2d"/>
     <use x="1427.099609" xlink:href="#DejaVuSans-44"/>
    </g>
    <!-- 51 targets: 100..1e-08 -->
    <defs>
     <path d="M 10.796875 72.90625 
L 49.515625 72.90625 
L 49.515625 64.59375 
L 19.828125 64.59375 
L 19.828125 46.734375 
Q 21.96875 47.46875 24.109375 47.828125 
Q 26.265625 48.1875 28.421875 48.1875 
Q 40.625 48.1875 47.75 41.5 
Q 54.890625 34.8125 54.890625 23.390625 
Q 54.890625 11.625 47.5625 5.09375 
Q 40.234375 -1.421875 26.90625 -1.421875 
Q 22.3125 -1.421875 17.546875 -0.640625 
Q 12.796875 0.140625 7.71875 1.703125 
L 7.71875 11.625 
Q 12.109375 9.234375 16.796875 8.0625 
Q 21.484375 6.890625 26.703125 6.890625 
Q 35.15625 6.890625 40.078125 11.328125 
Q 45.015625 15.765625 45.015625 23.390625 
Q 45.015625 31 40.078125 35.4375 
Q 35.15625 39.890625 26.703125 39.890625 
Q 22.75 39.890625 18.8125 39.015625 
Q 14.890625 38.140625 10.796875 36.28125 
z
" id="DejaVuSans-35"/>
     <path d="M 11.71875 12.40625 
L 22.015625 12.40625 
L 22.015625 0 
L 11.71875 0 
z
M 11.71875 51.703125 
L 22.015625 51.703125 
L 22.015625 39.3125 
L 11.71875 39.3125 
z
" id="DejaVuSans-3a"/>
    </defs>
    <g transform="translate(58.89048 40.319519)scale(0.102 -0.102)">
     <use xlink:href="#DejaVuSans-35"/>
     <use x="63.623047" xlink:href="#DejaVuSans-31"/>
     <use x="127.246094" xlink:href="#DejaVuSans-20"/>
     <use x="159.033203" xlink:href="#DejaVuSans-74"/>
     <use x="198.242188" xlink:href="#DejaVuSans-61"/>
     <use x="259.521484" xlink:href="#DejaVuSans-72"/>
     <use x="300.619141" xlink:href="#DejaVuSans-67"/>
     <use x="364.095703" xlink:href="#DejaVuSans-65"/>
     <use x="425.619141" xlink:href="#DejaVuSans-74"/>
     <use x="464.828125" xlink:href="#DejaVuSans-73"/>
     <use x="516.927734" xlink:href="#DejaVuSans-3a"/>
     <use x="550.619141" xlink:href="#DejaVuSans-20"/>
     <use x="582.40625" xlink:href="#DejaVuSans-31"/>
     <use x="646.029297" xlink:href="#DejaVuSans-30"/>
     <use x="709.652344" xlink:href="#DejaVuSans-30"/>
     <use x="773.275391" xlink:href="#DejaVuSans-2e"/>
     <use x="805.0625" xlink:href="#DejaVuSans-2e"/>
     <use x="836.849609" xlink:href="#DejaVuSans-31"/>
     <use x="900.472656" xlink:href="#DejaVuSans-65"/>
     <use x="961.996094" xlink:href="#DejaVuSans-2d"/>
     <use x="998.080078" xlink:href="#DejaVuSans-30"/>
     <use x="1061.703125" xlink:href="#DejaVuSans-38"/>
    </g>
    <!-- 15 instances -->
    <g transform="translate(58.89048 51.741288)scale(0.102 -0.102)">
     <use xlink:href="#DejaVuSans-31"/>
     <use x="63.623047" xlink:href="#DejaVuSans-35"/>
     <use x="127.246094" xlink:href="#DejaVuSans-20"/>
     <use x="159.033203" xlink:href="#DejaVuSans-69"/>
     <use x="186.816406" xlink:href="#DejaVuSans-6e"/>
     <use x="250.195312" xlink:href="#DejaVuSans-73"/>
     <use x="302.294922" xlink:href="#DejaVuSans-74"/>
     <use x="341.503906" xlink:href="#DejaVuSans-61"/>
     <use x="402.783203" xlink:href="#DejaVuSans-6e"/>
     <use x="466.162109" xlink:href="#DejaVuSans-63"/>
     <use x="521.142578" xlink:href="#DejaVuSans-65"/>
     <use x="582.666016" xlink:href="#DejaVuSans-73"/>
    </g>
   </g>
   <g id="text_18">
    <!-- v0.0.0 -->
    <g style="fill:#808080;" transform="translate(178.96275 289.919965)scale(0.1 -0.1)">
     <use xlink:href="#DejaVuSans-76"/>
     <use x="59.179688" xlink:href="#DejaVuSans-30"/>
     <use x="122.802734" xlink:href="#DejaVuSans-2e"/>
     <use x="154.589844" xlink:href="#DejaVuSans-30"/>
     <use x="218.212891" xlink:href="#DejaVuSans-2e"/>
     <use x="250" xlink:href="#DejaVuSans-30"/>
    </g>
   </g>
  </g>
 </g>
 <defs>
  <clipPath id="p578f0577fe">
   <rect height="288.034772" width="277.048" x="56.12" y="6.845228"/>
  </clipPath>
 </defs>
</svg>
