<?xml version="1.0" encoding="utf-8" standalone="no"?>
<!DOCTYPE svg PUBLIC "-//W3C//DTD SVG 1.1//EN"
  "http://www.w3.org/Graphics/SVG/1.1/DTD/svg11.dtd">
<!-- Created with matplotlib (http://matplotlib.org/) -->
<svg height="345.6pt" version="1.1" viewBox="0 0 460.8 345.6" width="460.8pt" xmlns="http://www.w3.org/2000/svg" xmlns:xlink="http://www.w3.org/1999/xlink">
 <defs>
  <style type="text/css">
*{stroke-linecap:butt;stroke-linejoin:round;}
  </style>
 </defs>
 <g id="figure_1">
  <g id="patch_1">
   <path d="M 0 345.6 
L 460.8 345.6 
L 460.8 0 
L 0 0 
z
" style="fill:#ffffff;"/>
  </g>
  <g id="axes_1">
   <g id="patch_2">
    <path d="M 5.52 291.28 
L 450.672 291.28 
L 450.672 5.52 
L 5.52 5.52 
z
" style="fill:#ffffff;"/>
   </g>
   <g id="matplotlib.axis_1">
    <g id="xtick_1">
     <g id="line2d_1">
      <path clip-path="url(#p9ae9e425d5)" d="M 5.410718 291.28 
L 5.410718 5.52 
" style="fill:none;stroke:#b0b0b0;stroke-linecap:square;stroke-width:0.8;"/>
     </g>
     <g id="line2d_2">
      <defs>
       <path d="M 0 0 
L 0 3.5 
" id="md742b99744" style="stroke:#000000;stroke-width:0.8;"/>
      </defs>
      <g>
       <use style="stroke:#000000;stroke-width:0.8;" x="5.410718" xlink:href="#md742b99744" y="291.28"/>
      </g>
     </g>
    </g>
    <g id="xtick_2">
     <g id="line2d_3">
      <path clip-path="url(#p9ae9e425d5)" d="M 106.565567 291.28 
L 106.565567 5.52 
" style="fill:none;stroke:#b0b0b0;stroke-linecap:square;stroke-width:0.8;"/>
     </g>
     <g id="line2d_4">
      <g>
       <use style="stroke:#000000;stroke-width:0.8;" x="106.565567" xlink:href="#md742b99744" y="291.28"/>
      </g>
     </g>
     <g id="text_1">
      <!-- -4 -->
      <defs>
       <path d="M 4.890625 31.390625 
L 31.203125 31.390625 
L 31.203125 23.390625 
L 4.890625 23.390625 
z
" id="DejaVuSans-2d"/>
       <path d="M 37.796875 64.3125 
L 12.890625 25.390625 
L 37.796875 25.390625 
z
M 35.203125 72.90625 
L 47.609375 72.90625 
L 47.609375 25.390625 
L 58.015625 25.390625 
L 58.015625 17.1875 
L 47.609375 17.1875 
L 47.609375 0 
L 37.796875 0 
L 37.796875 17.1875 
L 4.890625 17.1875 
L 4.890625 26.703125 
z
" id="DejaVuSans-34"/>
      </defs>
      <g transform="translate(96.595255 313.476875)scale(0.2 -0.2)">
       <use xlink:href="#DejaVuSans-2d"/>
       <use x="36.083984" xlink:href="#DejaVuSans-34"/>
      </g>
     </g>
    </g>
    <g id="xtick_3">
     <g id="line2d_5">
      <path clip-path="url(#p9ae9e425d5)" d="M 207.720417 291.28 
L 207.720417 5.52 
" style="fill:none;stroke:#b0b0b0;stroke-linecap:square;stroke-width:0.8;"/>
     </g>
     <g id="line2d_6">
      <g>
       <use style="stroke:#000000;stroke-width:0.8;" x="207.720417" xlink:href="#md742b99744" y="291.28"/>
      </g>
     </g>
     <g id="text_2">
      <!-- 0 -->
      <defs>
       <path d="M 31.78125 66.40625 
Q 24.171875 66.40625 20.328125 58.90625 
Q 16.5 51.421875 16.5 36.375 
Q 16.5 21.390625 20.328125 13.890625 
Q 24.171875 6.390625 31.78125 6.390625 
Q 39.453125 6.390625 43.28125 13.890625 
Q 47.125 21.390625 47.125 36.375 
Q 47.125 51.421875 43.28125 58.90625 
Q 39.453125 66.40625 31.78125 66.40625 
z
M 31.78125 74.21875 
Q 44.046875 74.21875 50.515625 64.515625 
Q 56.984375 54.828125 56.984375 36.375 
Q 56.984375 17.96875 50.515625 8.265625 
Q 44.046875 -1.421875 31.78125 -1.421875 
Q 19.53125 -1.421875 13.0625 8.265625 
Q 6.59375 17.96875 6.59375 36.375 
Q 6.59375 54.828125 13.0625 64.515625 
Q 19.53125 74.21875 31.78125 74.21875 
z
" id="DejaVuSans-30"/>
      </defs>
      <g transform="translate(201.357917 313.476875)scale(0.2 -0.2)">
       <use xlink:href="#DejaVuSans-30"/>
      </g>
     </g>
    </g>
    <g id="xtick_4">
     <g id="line2d_7">
      <path clip-path="url(#p9ae9e425d5)" d="M 308.875266 291.28 
L 308.875266 5.52 
" style="fill:none;stroke:#b0b0b0;stroke-linecap:square;stroke-width:0.8;"/>
     </g>
     <g id="line2d_8">
      <g>
       <use style="stroke:#000000;stroke-width:0.8;" x="308.875266" xlink:href="#md742b99744" y="291.28"/>
      </g>
     </g>
     <g id="text_3">
      <!-- 4 -->
      <g transform="translate(302.512766 313.476875)scale(0.2 -0.2)">
       <use xlink:href="#DejaVuSans-34"/>
      </g>
     </g>
    </g>
    <g id="xtick_5">
     <g id="line2d_9">
      <path clip-path="url(#p9ae9e425d5)" d="M 410.030115 291.28 
L 410.030115 5.52 
" style="fill:none;stroke:#b0b0b0;stroke-linecap:square;stroke-width:0.8;"/>
     </g>
     <g id="line2d_10">
      <g>
       <use style="stroke:#000000;stroke-width:0.8;" x="410.030115" xlink:href="#md742b99744" y="291.28"/>
      </g>
     </g>
     <g id="text_4">
      <!-- 8 -->
      <defs>
       <path d="M 31.78125 34.625 
Q 24.75 34.625 20.71875 30.859375 
Q 16.703125 27.09375 16.703125 20.515625 
Q 16.703125 13.921875 20.71875 10.15625 
Q 24.75 6.390625 31.78125 6.390625 
Q 38.8125 6.390625 42.859375 10.171875 
Q 46.921875 13.96875 46.921875 20.515625 
Q 46.921875 27.09375 42.890625 30.859375 
Q 38.875 34.625 31.78125 34.625 
z
M 21.921875 38.8125 
Q 15.578125 40.375 12.03125 44.71875 
Q 8.5 49.078125 8.5 55.328125 
Q 8.5 64.0625 14.71875 69.140625 
Q 20.953125 74.21875 31.78125 74.21875 
Q 42.671875 74.21875 48.875 69.140625 
Q 55.078125 64.0625 55.078125 55.328125 
Q 55.078125 49.078125 51.53125 44.71875 
Q 48 40.375 41.703125 38.8125 
Q 48.828125 37.15625 52.796875 32.3125 
Q 56.78125 27.484375 56.78125 20.515625 
Q 56.78125 9.90625 50.3125 4.234375 
Q 43.84375 -1.421875 31.78125 -1.421875 
Q 19.734375 -1.421875 13.25 4.234375 
Q 6.78125 9.90625 6.78125 20.515625 
Q 6.78125 27.484375 10.78125 32.3125 
Q 14.796875 37.15625 21.921875 38.8125 
z
M 18.3125 54.390625 
Q 18.3125 48.734375 21.84375 45.5625 
Q 25.390625 42.390625 31.78125 42.390625 
Q 38.140625 42.390625 41.71875 45.5625 
Q 45.3125 48.734375 45.3125 54.390625 
Q 45.3125 60.0625 41.71875 63.234375 
Q 38.140625 66.40625 31.78125 66.40625 
Q 25.390625 66.40625 21.84375 63.234375 
Q 18.3125 60.0625 18.3125 54.390625 
z
" id="DejaVuSans-38"/>
      </defs>
      <g transform="translate(403.667615 313.476875)scale(0.2 -0.2)">
       <use xlink:href="#DejaVuSans-38"/>
      </g>
     </g>
    </g>
    <g id="text_5">
     <!-- log10 of Df -->
     <defs>
      <path d="M 9.421875 75.984375 
L 18.40625 75.984375 
L 18.40625 0 
L 9.421875 0 
z
" id="DejaVuSans-6c"/>
      <path d="M 30.609375 48.390625 
Q 23.390625 48.390625 19.1875 42.75 
Q 14.984375 37.109375 14.984375 27.296875 
Q 14.984375 17.484375 19.15625 11.84375 
Q 23.34375 6.203125 30.609375 6.203125 
Q 37.796875 6.203125 41.984375 11.859375 
Q 46.1875 17.53125 46.1875 27.296875 
Q 46.1875 37.015625 41.984375 42.703125 
Q 37.796875 48.390625 30.609375 48.390625 
z
M 30.609375 56 
Q 42.328125 56 49.015625 48.375 
Q 55.71875 40.765625 55.71875 27.296875 
Q 55.71875 13.875 49.015625 6.21875 
Q 42.328125 -1.421875 30.609375 -1.421875 
Q 18.84375 -1.421875 12.171875 6.21875 
Q 5.515625 13.875 5.515625 27.296875 
Q 5.515625 40.765625 12.171875 48.375 
Q 18.84375 56 30.609375 56 
z
" id="DejaVuSans-6f"/>
      <path d="M 45.40625 27.984375 
Q 45.40625 37.75 41.375 43.109375 
Q 37.359375 48.484375 30.078125 48.484375 
Q 22.859375 48.484375 18.828125 43.109375 
Q 14.796875 37.75 14.796875 27.984375 
Q 14.796875 18.265625 18.828125 12.890625 
Q 22.859375 7.515625 30.078125 7.515625 
Q 37.359375 7.515625 41.375 12.890625 
Q 45.40625 18.265625 45.40625 27.984375 
z
M 54.390625 6.78125 
Q 54.390625 -7.171875 48.1875 -13.984375 
Q 42 -20.796875 29.203125 -20.796875 
Q 24.46875 -20.796875 20.265625 -20.09375 
Q 16.0625 -19.390625 12.109375 -17.921875 
L 12.109375 -9.1875 
Q 16.0625 -11.328125 19.921875 -12.34375 
Q 23.78125 -13.375 27.78125 -13.375 
Q 36.625 -13.375 41.015625 -8.765625 
Q 45.40625 -4.15625 45.40625 5.171875 
L 45.40625 9.625 
Q 42.625 4.78125 38.28125 2.390625 
Q 33.9375 0 27.875 0 
Q 17.828125 0 11.671875 7.65625 
Q 5.515625 15.328125 5.515625 27.984375 
Q 5.515625 40.671875 11.671875 48.328125 
Q 17.828125 56 27.875 56 
Q 33.9375 56 38.28125 53.609375 
Q 42.625 51.21875 45.40625 46.390625 
L 45.40625 54.6875 
L 54.390625 54.6875 
z
" id="DejaVuSans-67"/>
      <path d="M 12.40625 8.296875 
L 28.515625 8.296875 
L 28.515625 63.921875 
L 10.984375 60.40625 
L 10.984375 69.390625 
L 28.421875 72.90625 
L 38.28125 72.90625 
L 38.28125 8.296875 
L 54.390625 8.296875 
L 54.390625 0 
L 12.40625 0 
z
" id="DejaVuSans-31"/>
      <path id="DejaVuSans-20"/>
      <path d="M 37.109375 75.984375 
L 37.109375 68.5 
L 28.515625 68.5 
Q 23.6875 68.5 21.796875 66.546875 
Q 19.921875 64.59375 19.921875 59.515625 
L 19.921875 54.6875 
L 34.71875 54.6875 
L 34.71875 47.703125 
L 19.921875 47.703125 
L 19.921875 0 
L 10.890625 0 
L 10.890625 47.703125 
L 2.296875 47.703125 
L 2.296875 54.6875 
L 10.890625 54.6875 
L 10.890625 58.5 
Q 10.890625 67.625 15.140625 71.796875 
Q 19.390625 75.984375 28.609375 75.984375 
z
" id="DejaVuSans-66"/>
      <path d="M 19.671875 64.796875 
L 19.671875 8.109375 
L 31.59375 8.109375 
Q 46.6875 8.109375 53.6875 14.9375 
Q 60.6875 21.78125 60.6875 36.53125 
Q 60.6875 51.171875 53.6875 57.984375 
Q 46.6875 64.796875 31.59375 64.796875 
z
M 9.8125 72.90625 
L 30.078125 72.90625 
Q 51.265625 72.90625 61.171875 64.09375 
Q 71.09375 55.28125 71.09375 36.53125 
Q 71.09375 17.671875 61.125 8.828125 
Q 51.171875 0 30.078125 0 
L 9.8125 0 
z
" id="DejaVuSans-44"/>
     </defs>
     <g transform="translate(172.910063 336.833125)scale(0.2 -0.2)">
      <use xlink:href="#DejaVuSans-6c"/>
      <use x="27.783203" xlink:href="#DejaVuSans-6f"/>
      <use x="88.964844" xlink:href="#DejaVuSans-67"/>
      <use x="152.441406" xlink:href="#DejaVuSans-31"/>
      <use x="216.064453" xlink:href="#DejaVuSans-30"/>
      <use x="279.6875" xlink:href="#DejaVuSans-20"/>
      <use x="311.474609" xlink:href="#DejaVuSans-6f"/>
      <use x="372.65625" xlink:href="#DejaVuSans-66"/>
      <use x="407.861328" xlink:href="#DejaVuSans-20"/>
      <use x="439.648438" xlink:href="#DejaVuSans-44"/>
      <use x="516.650391" xlink:href="#DejaVuSans-66"/>
     </g>
    </g>
   </g>
   <g id="matplotlib.axis_2">
    <g id="ytick_1">
     <g id="line2d_11">
      <path clip-path="url(#p9ae9e425d5)" d="M 5.52 291.28 
L 450.672 291.28 
" style="fill:none;stroke:#b0b0b0;stroke-linecap:square;stroke-width:0.8;"/>
     </g>
     <g id="line2d_12">
      <defs>
       <path d="M 0 0 
L -3.5 0 
" id="mc68450d3ca" style="stroke:#000000;stroke-width:0.8;"/>
      </defs>
      <g>
       <use style="stroke:#000000;stroke-width:0.8;" x="5.52" xlink:href="#mc68450d3ca" y="291.28"/>
      </g>
     </g>
    </g>
    <g id="ytick_2">
     <g id="line2d_13">
      <path clip-path="url(#p9ae9e425d5)" d="M 5.52 234.693861 
L 450.672 234.693861 
" style="fill:none;stroke:#b0b0b0;stroke-linecap:square;stroke-width:0.8;"/>
     </g>
     <g id="line2d_14">
      <g>
       <use style="stroke:#000000;stroke-width:0.8;" x="5.52" xlink:href="#mc68450d3ca" y="234.693861"/>
      </g>
     </g>
    </g>
    <g id="ytick_3">
     <g id="line2d_15">
      <path clip-path="url(#p9ae9e425d5)" d="M 5.52 178.107723 
L 450.672 178.107723 
" style="fill:none;stroke:#b0b0b0;stroke-linecap:square;stroke-width:0.8;"/>
     </g>
     <g id="line2d_16">
      <g>
       <use style="stroke:#000000;stroke-width:0.8;" x="5.52" xlink:href="#mc68450d3ca" y="178.107723"/>
      </g>
     </g>
    </g>
    <g id="ytick_4">
     <g id="line2d_17">
      <path clip-path="url(#p9ae9e425d5)" d="M 5.52 121.521584 
L 450.672 121.521584 
" style="fill:none;stroke:#b0b0b0;stroke-linecap:square;stroke-width:0.8;"/>
     </g>
     <g id="line2d_18">
      <g>
       <use style="stroke:#000000;stroke-width:0.8;" x="5.52" xlink:href="#mc68450d3ca" y="121.521584"/>
      </g>
     </g>
    </g>
    <g id="ytick_5">
     <g id="line2d_19">
      <path clip-path="url(#p9ae9e425d5)" d="M 5.52 64.935446 
L 450.672 64.935446 
" style="fill:none;stroke:#b0b0b0;stroke-linecap:square;stroke-width:0.8;"/>
     </g>
     <g id="line2d_20">
      <g>
       <use style="stroke:#000000;stroke-width:0.8;" x="5.52" xlink:href="#mc68450d3ca" y="64.935446"/>
      </g>
     </g>
    </g>
    <g id="ytick_6">
     <g id="line2d_21">
      <path clip-path="url(#p9ae9e425d5)" d="M 5.52 8.349307 
L 450.672 8.349307 
" style="fill:none;stroke:#b0b0b0;stroke-linecap:square;stroke-width:0.8;"/>
     </g>
     <g id="line2d_22">
      <g>
       <use style="stroke:#000000;stroke-width:0.8;" x="5.52" xlink:href="#mc68450d3ca" y="8.349307"/>
      </g>
     </g>
    </g>
   </g>
   <g id="line2d_23">
    <path clip-path="url(#p9ae9e425d5)" d="M -1 192.254257 
L -0.855664 192.254257 
L -0.855664 187.538746 
L -0.160445 187.538746 
L -0.160445 182.823234 
L 21.843379 182.823234 
L 21.843379 178.107723 
L 27.885614 178.107723 
L 27.885614 173.392211 
L 29.290619 173.392211 
L 29.290619 168.6767 
L 32.098431 168.6767 
L 32.098431 163.961188 
L 37.496436 163.961188 
L 37.496436 159.245677 
L 40.064789 159.245677 
L 40.064789 154.530165 
L 44.392 154.530165 
L 44.392 149.814653 
L 46.314726 149.814653 
L 46.314726 145.099142 
L 50.527002 145.099142 
L 50.527002 140.38363 
L 54.006363 140.38363 
L 54.006363 135.668119 
L 54.126378 135.668119 
L 54.126378 130.952607 
L 59.102767 130.952607 
L 59.102767 126.237096 
L 61.630049 126.237096 
L 61.630049 121.521584 
L 63.314575 121.521584 
L 63.314575 116.806073 
L 66.69222 116.806073 
L 66.69222 112.090561 
L 69.067696 112.090561 
L 69.067696 107.37505 
L 71.382082 107.37505 
L 71.382082 102.659538 
L 77.079604 102.659538 
L 77.079604 97.944026 
L 77.229995 97.944026 
L 77.229995 93.228515 
L 85.91725 93.228515 
L 85.91725 88.513003 
L 109.704345 88.513003 
L 109.704345 83.797492 
L 146.456374 83.797492 
L 146.456374 79.08198 
L 150.46219 79.08198 
L 150.46219 74.366469 
L 150.875255 74.366469 
L 150.875255 69.650957 
L 153.857922 69.650957 
L 153.857922 64.935446 
L 162.166896 64.935446 
L 162.166896 60.219934 
L 188.96135 60.219934 
L 188.96135 55.504422 
L 200.838095 55.504422 
L 200.838095 50.788911 
L 215.04018 50.788911 
L 215.04018 46.073399 
L 222.754184 46.073399 
L 222.754184 41.357888 
L 222.754184 41.357888 
L 222.754184 36.642376 
L 222.754184 36.642376 
L 222.754184 31.926865 
L 222.754184 31.926865 
L 222.754184 27.211353 
L 222.754184 27.211353 
L 222.754184 22.495842 
L 222.754462 22.495842 
L 222.754462 17.78033 
L 222.829159 17.78033 
L 222.829159 13.064818 
L 222.97895 13.064818 
L 222.97895 8.349307 
L 222.97895 8.349307 
L 222.97895 8.349307 
L 450.672 8.349307 
" style="fill:none;stroke:#ff0000;stroke-linecap:square;stroke-width:3;"/>
   </g>
   <g id="line2d_24">
    <path clip-path="url(#p9ae9e425d5)" d="M 235.987455 291.28 
L 235.987455 286.564488 
L 239.115717 286.564488 
L 239.115717 281.848977 
L 239.364976 281.848977 
L 239.364976 277.133465 
L 243.50327 277.133465 
L 243.50327 272.417954 
L 243.50327 272.417954 
L 243.50327 267.702442 
L 243.50327 267.702442 
L 243.50327 262.986931 
L 243.50327 262.986931 
L 243.50327 258.271419 
L 243.50327 258.271419 
L 243.50327 253.555908 
L 243.50327 253.555908 
L 243.50327 248.840396 
L 243.50327 248.840396 
L 243.50327 244.124884 
L 243.50327 244.124884 
L 243.50327 239.409373 
L 243.50327 239.409373 
L 243.50327 234.693861 
L 243.50327 234.693861 
L 243.50327 229.97835 
L 243.50327 229.97835 
L 243.50327 225.262838 
L 243.50327 225.262838 
L 243.50327 220.547327 
L 243.50327 220.547327 
L 243.50327 215.831815 
L 243.50327 215.831815 
L 243.50327 211.116304 
L 243.50327 211.116304 
L 243.50327 206.400792 
L 246.016802 206.400792 
L 246.016802 201.685281 
L 248.292858 201.685281 
L 248.292858 196.969769 
L 249.67007 196.969769 
L 249.67007 192.254257 
L 256.34956 192.254257 
L 256.34956 187.538746 
L 260.261879 187.538746 
L 260.261879 182.823234 
L 261.933709 182.823234 
L 261.933709 178.107723 
L 262.569988 178.107723 
L 262.569988 173.392211 
L 263.121217 173.392211 
L 263.121217 168.6767 
L 265.002016 168.6767 
L 265.002016 163.961188 
L 265.97417 163.961188 
L 265.97417 159.245677 
L 269.364629 159.245677 
L 269.364629 154.530165 
L 269.633192 154.530165 
L 269.633192 149.814653 
L 275.163985 149.814653 
L 275.163985 145.099142 
L 280.175178 145.099142 
L 280.175178 140.38363 
L 286.694275 140.38363 
L 286.694275 135.668119 
L 293.979806 135.668119 
L 293.979806 130.952607 
L 298.573183 130.952607 
L 298.573183 126.237096 
L 299.34511 126.237096 
L 299.34511 121.521584 
L 300.370195 121.521584 
L 300.370195 116.806073 
L 301.580043 116.806073 
L 301.580043 112.090561 
L 302.629204 112.090561 
L 302.629204 107.37505 
L 303.524159 107.37505 
L 303.524159 102.659538 
L 305.820854 102.659538 
L 305.820854 97.944026 
L 306.299308 97.944026 
L 306.299308 93.228515 
L 310.381353 93.228515 
L 310.381353 88.513003 
L 311.529091 88.513003 
L 311.529091 83.797492 
L 313.810015 83.797492 
L 313.810015 79.08198 
L 315.386506 79.08198 
L 315.386506 74.366469 
L 315.486459 74.366469 
L 315.486459 69.650957 
L 318.591142 69.650957 
L 318.591142 64.935446 
L 321.768985 64.935446 
L 321.768985 60.219934 
L 329.731563 60.219934 
L 329.731563 55.504422 
L 331.616027 55.504422 
L 331.616027 50.788911 
L 332.15502 50.788911 
L 332.15502 46.073399 
L 335.944404 46.073399 
L 335.944404 41.357888 
L 336.984156 41.357888 
L 336.984156 36.642376 
L 337.256591 36.642376 
L 337.256591 31.926865 
L 339.42619 31.926865 
L 339.42619 27.211353 
L 341.211798 27.211353 
L 341.211798 22.495842 
L 344.308403 22.495842 
L 344.308403 17.78033 
L 345.855122 17.78033 
L 345.855122 13.064818 
L 353.444777 13.064818 
L 353.444777 8.349307 
L 353.444777 8.349307 
L 353.444777 8.349307 
L 450.672 8.349307 
" style="fill:none;stroke:#00bfbf;stroke-linecap:square;stroke-width:1.5;"/>
   </g>
   <g id="line2d_25">
    <path clip-path="url(#p9ae9e425d5)" d="M 235.987455 291.28 
L 235.987455 286.564488 
L 239.115717 286.564488 
L 239.115717 281.848977 
L 239.364976 281.848977 
L 239.364976 277.133465 
L 243.50327 277.133465 
L 243.50327 272.417954 
L 243.50327 272.417954 
L 243.50327 267.702442 
L 243.50327 267.702442 
L 243.50327 262.986931 
L 243.50327 262.986931 
L 243.50327 258.271419 
L 243.50327 258.271419 
L 243.50327 253.555908 
L 243.50327 253.555908 
L 243.50327 248.840396 
L 243.50327 248.840396 
L 243.50327 244.124884 
L 243.50327 244.124884 
L 243.50327 239.409373 
L 243.50327 239.409373 
L 243.50327 234.693861 
L 243.50327 234.693861 
L 243.50327 229.97835 
L 243.50327 229.97835 
L 243.50327 225.262838 
L 243.50327 225.262838 
L 243.50327 220.547327 
L 243.50327 220.547327 
L 243.50327 215.831815 
L 243.50327 215.831815 
L 243.50327 211.116304 
L 243.50327 211.116304 
L 243.50327 206.400792 
L 244.14269 206.400792 
L 244.14269 201.685281 
L 246.016802 201.685281 
L 246.016802 196.969769 
L 247.858648 196.969769 
L 247.858648 192.254257 
L 248.292858 192.254257 
L 248.292858 187.538746 
L 249.67007 187.538746 
L 249.67007 182.823234 
L 255.621572 182.823234 
L 255.621572 178.107723 
L 256.34956 178.107723 
L 256.34956 173.392211 
L 258.597336 173.392211 
L 258.597336 168.6767 
L 260.261879 168.6767 
L 260.261879 163.961188 
L 262.569988 163.961188 
L 262.569988 159.245677 
L 263.121217 159.245677 
L 263.121217 154.530165 
L 263.288238 154.530165 
L 263.288238 149.814653 
L 264.094971 149.814653 
L 264.094971 145.099142 
L 265.930083 145.099142 
L 265.930083 140.38363 
L 269.633192 140.38363 
L 269.633192 135.668119 
L 274.971184 135.668119 
L 274.971184 130.952607 
L 276.431268 130.952607 
L 276.431268 126.237096 
L 282.182138 126.237096 
L 282.182138 121.521584 
L 285.02339 121.521584 
L 285.02339 116.806073 
L 286.694275 116.806073 
L 286.694275 112.090561 
L 291.383057 112.090561 
L 291.383057 107.37505 
L 293.979806 107.37505 
L 293.979806 102.659538 
L 296.045547 102.659538 
L 296.045547 97.944026 
L 300.370195 97.944026 
L 300.370195 93.228515 
L 301.457891 93.228515 
L 301.457891 88.513003 
L 302.629204 88.513003 
L 302.629204 83.797492 
L 303.468481 83.797492 
L 303.468481 79.08198 
L 303.524159 79.08198 
L 303.524159 74.366469 
L 305.83414 74.366469 
L 305.83414 69.650957 
L 310.11152 69.650957 
L 310.11152 64.935446 
L 311.529091 64.935446 
L 311.529091 60.219934 
L 313.810015 60.219934 
L 313.810015 55.504422 
L 315.386506 55.504422 
L 315.386506 50.788911 
L 315.480879 50.788911 
L 315.480879 46.073399 
L 315.486459 46.073399 
L 315.486459 41.357888 
L 317.561137 41.357888 
L 317.561137 36.642376 
L 318.591142 36.642376 
L 318.591142 31.926865 
L 328.192348 31.926865 
L 328.192348 27.211353 
L 329.731563 27.211353 
L 329.731563 22.495842 
L 331.616027 22.495842 
L 331.616027 17.78033 
L 334.931735 17.78033 
L 334.931735 13.064818 
L 341.203627 13.064818 
L 341.203627 8.349307 
L 341.203627 8.349307 
L 341.203627 8.349307 
L 450.672 8.349307 
" style="fill:none;stroke:#bf00bf;stroke-linecap:square;stroke-width:1.5;"/>
   </g>
   <g id="line2d_26">
    <path clip-path="url(#p9ae9e425d5)" d="M 235.987455 291.28 
L 235.987455 286.564488 
L 239.115717 286.564488 
L 239.115717 281.848977 
L 239.364976 281.848977 
L 239.364976 277.133465 
L 243.50327 277.133465 
L 243.50327 272.417954 
L 243.50327 272.417954 
L 243.50327 267.702442 
L 243.50327 267.702442 
L 243.50327 262.986931 
L 243.50327 262.986931 
L 243.50327 258.271419 
L 243.50327 258.271419 
L 243.50327 253.555908 
L 243.50327 253.555908 
L 243.50327 248.840396 
L 243.50327 248.840396 
L 243.50327 244.124884 
L 243.50327 244.124884 
L 243.50327 239.409373 
L 243.50327 239.409373 
L 243.50327 234.693861 
L 243.50327 234.693861 
L 243.50327 229.97835 
L 243.50327 229.97835 
L 243.50327 225.262838 
L 243.50327 225.262838 
L 243.50327 220.547327 
L 243.50327 220.547327 
L 243.50327 215.831815 
L 243.50327 215.831815 
L 243.50327 211.116304 
L 243.50327 211.116304 
L 243.50327 206.400792 
L 244.14269 206.400792 
L 244.14269 201.685281 
L 246.016802 201.685281 
L 246.016802 196.969769 
L 246.746737 196.969769 
L 246.746737 192.254257 
L 247.858648 192.254257 
L 247.858648 187.538746 
L 248.292858 187.538746 
L 248.292858 182.823234 
L 249.67007 182.823234 
L 249.67007 178.107723 
L 254.216753 178.107723 
L 254.216753 173.392211 
L 254.97437 173.392211 
L 254.97437 168.6767 
L 255.621572 168.6767 
L 255.621572 163.961188 
L 256.299876 163.961188 
L 256.299876 159.245677 
L 256.34956 159.245677 
L 256.34956 154.530165 
L 256.479468 154.530165 
L 256.479468 149.814653 
L 258.597336 149.814653 
L 258.597336 145.099142 
L 260.261879 145.099142 
L 260.261879 140.38363 
L 263.121217 140.38363 
L 263.121217 135.668119 
L 263.288238 135.668119 
L 263.288238 130.952607 
L 264.094971 130.952607 
L 264.094971 126.237096 
L 270.850026 126.237096 
L 270.850026 121.521584 
L 276.128473 121.521584 
L 276.128473 116.806073 
L 276.431268 116.806073 
L 276.431268 112.090561 
L 285.02339 112.090561 
L 285.02339 107.37505 
L 286.694275 107.37505 
L 286.694275 102.659538 
L 291.383057 102.659538 
L 291.383057 97.944026 
L 293.979806 97.944026 
L 293.979806 93.228515 
L 296.045547 93.228515 
L 296.045547 88.513003 
L 296.228786 88.513003 
L 296.228786 83.797492 
L 300.160529 83.797492 
L 300.160529 79.08198 
L 300.370195 79.08198 
L 300.370195 74.366469 
L 301.457891 74.366469 
L 301.457891 69.650957 
L 301.579559 69.650957 
L 301.579559 64.935446 
L 302.528555 64.935446 
L 302.528555 60.219934 
L 302.958094 60.219934 
L 302.958094 55.504422 
L 303.035633 55.504422 
L 303.035633 50.788911 
L 303.468481 50.788911 
L 303.468481 46.073399 
L 305.83414 46.073399 
L 305.83414 41.357888 
L 311.529091 41.357888 
L 311.529091 36.642376 
L 313.810015 36.642376 
L 313.810015 31.926865 
L 315.44211 31.926865 
L 315.44211 27.211353 
L 317.561137 27.211353 
L 317.561137 22.495842 
L 328.192348 22.495842 
L 328.192348 17.78033 
L 334.931735 17.78033 
L 334.931735 13.064818 
L 337.653902 13.064818 
L 337.653902 8.349307 
L 337.653902 8.349307 
L 337.653902 8.349307 
L 450.672 8.349307 
" style="fill:none;stroke:#000000;stroke-linecap:square;stroke-width:1.5;"/>
   </g>
   <g id="line2d_27">
    <path clip-path="url(#p9ae9e425d5)" d="M 235.987455 291.28 
L 235.987455 286.564488 
L 238.20039 286.564488 
L 238.20039 281.848977 
L 239.115717 281.848977 
L 239.115717 277.133465 
L 239.364976 277.133465 
L 239.364976 272.417954 
L 243.50327 272.417954 
L 243.50327 267.702442 
L 243.50327 267.702442 
L 243.50327 262.986931 
L 243.50327 262.986931 
L 243.50327 258.271419 
L 243.50327 258.271419 
L 243.50327 253.555908 
L 243.50327 253.555908 
L 243.50327 248.840396 
L 243.50327 248.840396 
L 243.50327 244.124884 
L 243.50327 244.124884 
L 243.50327 239.409373 
L 243.50327 239.409373 
L 243.50327 234.693861 
L 243.50327 234.693861 
L 243.50327 229.97835 
L 243.50327 229.97835 
L 243.50327 225.262838 
L 243.50327 225.262838 
L 243.50327 220.547327 
L 243.50327 220.547327 
L 243.50327 215.831815 
L 243.50327 215.831815 
L 243.50327 211.116304 
L 243.50327 211.116304 
L 243.50327 206.400792 
L 243.50327 206.400792 
L 243.50327 201.685281 
L 244.14269 201.685281 
L 244.14269 196.969769 
L 246.016802 196.969769 
L 246.016802 192.254257 
L 246.746737 192.254257 
L 246.746737 187.538746 
L 247.189128 187.538746 
L 247.189128 182.823234 
L 247.858648 182.823234 
L 247.858648 178.107723 
L 248.292858 178.107723 
L 248.292858 173.392211 
L 249.316266 173.392211 
L 249.316266 168.6767 
L 249.67007 168.6767 
L 249.67007 163.961188 
L 251.781009 163.961188 
L 251.781009 159.245677 
L 254.216753 159.245677 
L 254.216753 154.530165 
L 254.881538 154.530165 
L 254.881538 149.814653 
L 254.97437 149.814653 
L 254.97437 145.099142 
L 256.479468 145.099142 
L 256.479468 140.38363 
L 258.597336 140.38363 
L 258.597336 135.668119 
L 259.355212 135.668119 
L 259.355212 130.952607 
L 259.760565 130.952607 
L 259.760565 126.237096 
L 260.261879 126.237096 
L 260.261879 121.521584 
L 261.677646 121.521584 
L 261.677646 116.806073 
L 265.150053 116.806073 
L 265.150053 112.090561 
L 270.850026 112.090561 
L 270.850026 107.37505 
L 273.699819 107.37505 
L 273.699819 102.659538 
L 273.904982 102.659538 
L 273.904982 97.944026 
L 276.128473 97.944026 
L 276.128473 93.228515 
L 279.313785 93.228515 
L 279.313785 88.513003 
L 283.677847 88.513003 
L 283.677847 83.797492 
L 285.02339 83.797492 
L 285.02339 79.08198 
L 285.969841 79.08198 
L 285.969841 74.366469 
L 286.248887 74.366469 
L 286.248887 69.650957 
L 286.694275 69.650957 
L 286.694275 64.935446 
L 290.135922 64.935446 
L 290.135922 60.219934 
L 291.270734 60.219934 
L 291.270734 55.504422 
L 291.383057 55.504422 
L 291.383057 50.788911 
L 298.98413 50.788911 
L 298.98413 46.073399 
L 299.170931 46.073399 
L 299.170931 41.357888 
L 300.370195 41.357888 
L 300.370195 36.642376 
L 302.958094 36.642376 
L 302.958094 31.926865 
L 303.035633 31.926865 
L 303.035633 27.211353 
L 307.624618 27.211353 
L 307.624618 22.495842 
L 308.784723 22.495842 
L 308.784723 17.78033 
L 329.278099 17.78033 
L 329.278099 13.064818 
L 335.43491 13.064818 
L 335.43491 8.349307 
L 335.43491 8.349307 
L 335.43491 8.349307 
L 450.672 8.349307 
" style="fill:none;stroke:#00bfbf;stroke-linecap:square;stroke-width:1.5;"/>
   </g>
   <g id="line2d_28">
    <path clip-path="url(#p9ae9e425d5)" d="M 215.038693 291.28 
L 215.038693 286.564488 
L 216.795194 286.564488 
L 216.795194 281.848977 
L 219.394633 281.848977 
L 219.394633 277.133465 
L 220.534208 277.133465 
L 220.534208 272.417954 
L 224.249071 272.417954 
L 224.249071 267.702442 
L 224.958328 267.702442 
L 224.958328 262.986931 
L 225.284733 262.986931 
L 225.284733 258.271419 
L 225.452189 258.271419 
L 225.452189 253.555908 
L 226.252493 253.555908 
L 226.252493 248.840396 
L 226.755563 248.840396 
L 226.755563 244.124884 
L 227.643069 244.124884 
L 227.643069 239.409373 
L 228.580836 239.409373 
L 228.580836 234.693861 
L 230.53398 234.693861 
L 230.53398 229.97835 
L 231.319171 229.97835 
L 231.319171 225.262838 
L 232.680985 225.262838 
L 232.680985 220.547327 
L 233.356824 220.547327 
L 233.356824 215.831815 
L 233.964402 215.831815 
L 233.964402 211.116304 
L 235.020623 211.116304 
L 235.020623 206.400792 
L 235.477512 206.400792 
L 235.477512 201.685281 
L 236.870799 201.685281 
L 236.870799 196.969769 
L 237.054376 196.969769 
L 237.054376 192.254257 
L 240.338149 192.254257 
L 240.338149 187.538746 
L 240.365783 187.538746 
L 240.365783 182.823234 
L 242.304371 182.823234 
L 242.304371 178.107723 
L 242.430315 178.107723 
L 242.430315 173.392211 
L 243.50327 173.392211 
L 243.50327 168.6767 
L 243.50327 168.6767 
L 243.50327 163.961188 
L 243.50327 163.961188 
L 243.50327 159.245677 
L 243.50327 159.245677 
L 243.50327 154.530165 
L 243.50327 154.530165 
L 243.50327 149.814653 
L 243.50327 149.814653 
L 243.50327 145.099142 
L 243.50327 145.099142 
L 243.50327 140.38363 
L 243.50327 140.38363 
L 243.50327 135.668119 
L 243.50327 135.668119 
L 243.50327 130.952607 
L 243.50327 130.952607 
L 243.50327 126.237096 
L 243.50327 126.237096 
L 243.50327 121.521584 
L 243.50327 121.521584 
L 243.50327 116.806073 
L 243.50327 116.806073 
L 243.50327 112.090561 
L 243.50327 112.090561 
L 243.50327 107.37505 
L 243.50327 107.37505 
L 243.50327 102.659538 
L 245.798026 102.659538 
L 245.798026 97.944026 
L 246.479409 97.944026 
L 246.479409 93.228515 
L 247.913277 93.228515 
L 247.913277 88.513003 
L 248.771572 88.513003 
L 248.771572 83.797492 
L 249.078417 83.797492 
L 249.078417 79.08198 
L 249.563358 79.08198 
L 249.563358 74.366469 
L 249.866748 74.366469 
L 249.866748 69.650957 
L 251.806309 69.650957 
L 251.806309 64.935446 
L 253.461313 64.935446 
L 253.461313 60.219934 
L 253.780047 60.219934 
L 253.780047 55.504422 
L 254.04124 55.504422 
L 254.04124 50.788911 
L 254.628548 50.788911 
L 254.628548 46.073399 
L 256.423855 46.073399 
L 256.423855 41.357888 
L 257.297227 41.357888 
L 257.297227 36.642376 
L 258.055913 36.642376 
L 258.055913 31.926865 
L 259.790596 31.926865 
L 259.790596 27.211353 
L 260.689754 27.211353 
L 260.689754 22.495842 
L 260.762964 22.495842 
L 260.762964 17.78033 
L 263.588667 17.78033 
L 263.588667 13.064818 
L 274.999527 13.064818 
L 274.999527 8.349307 
L 274.999527 8.349307 
L 274.999527 8.349307 
L 450.672 8.349307 
" style="fill:none;stroke:#bf00bf;stroke-linecap:square;stroke-width:1.5;"/>
   </g>
   <g id="line2d_29">
    <path clip-path="url(#p9ae9e425d5)" d="M -1 258.271419 
L 23.596794 258.271419 
L 23.596794 253.555908 
L 105.291232 253.555908 
L 105.291232 248.840396 
L 124.641491 248.840396 
L 124.641491 244.124884 
L 130.423074 244.124884 
L 130.423074 239.409373 
L 132.766201 239.409373 
L 132.766201 234.693861 
L 147.00719 234.693861 
L 147.00719 229.97835 
L 148.297919 229.97835 
L 148.297919 225.262838 
L 149.179927 225.262838 
L 149.179927 220.547327 
L 150.46219 220.547327 
L 150.46219 215.831815 
L 153.857922 215.831815 
L 153.857922 211.116304 
L 155.808375 211.116304 
L 155.808375 206.400792 
L 155.858824 206.400792 
L 155.858824 201.685281 
L 158.767769 201.685281 
L 158.767769 196.969769 
L 159.454971 196.969769 
L 159.454971 192.254257 
L 159.479939 192.254257 
L 159.479939 187.538746 
L 160.677079 187.538746 
L 160.677079 182.823234 
L 160.688074 182.823234 
L 160.688074 178.107723 
L 165.097509 178.107723 
L 165.097509 173.392211 
L 170.844652 173.392211 
L 170.844652 168.6767 
L 173.402303 168.6767 
L 173.402303 163.961188 
L 175.154183 163.961188 
L 175.154183 159.245677 
L 179.289814 159.245677 
L 179.289814 154.530165 
L 181.54992 154.530165 
L 181.54992 149.814653 
L 182.625098 149.814653 
L 182.625098 145.099142 
L 183.05402 145.099142 
L 183.05402 140.38363 
L 184.738147 140.38363 
L 184.738147 135.668119 
L 185.006855 135.668119 
L 185.006855 130.952607 
L 186.93733 130.952607 
L 186.93733 126.237096 
L 188.96135 126.237096 
L 188.96135 121.521584 
L 190.77311 121.521584 
L 190.77311 116.806073 
L 190.974732 116.806073 
L 190.974732 112.090561 
L 191.148068 112.090561 
L 191.148068 107.37505 
L 192.690952 107.37505 
L 192.690952 102.659538 
L 193.219821 102.659538 
L 193.219821 97.944026 
L 193.459642 97.944026 
L 193.459642 93.228515 
L 193.907894 93.228515 
L 193.907894 88.513003 
L 200.518113 88.513003 
L 200.518113 83.797492 
L 200.838095 83.797492 
L 200.838095 79.08198 
L 201.807232 79.08198 
L 201.807232 74.366469 
L 202.872761 74.366469 
L 202.872761 69.650957 
L 203.949867 69.650957 
L 203.949867 64.935446 
L 204.315927 64.935446 
L 204.315927 60.219934 
L 205.297488 60.219934 
L 205.297488 55.504422 
L 210.906997 55.504422 
L 210.906997 50.788911 
L 215.04018 50.788911 
L 215.04018 46.073399 
L 222.769128 46.073399 
L 222.769128 41.357888 
L 222.771814 41.357888 
L 222.771814 36.642376 
L 222.789678 36.642376 
L 222.789678 31.926865 
L 222.908192 31.926865 
L 222.908192 27.211353 
L 223.122431 27.211353 
L 223.122431 22.495842 
L 228.018938 22.495842 
L 228.018938 17.78033 
L 229.36419 17.78033 
L 229.36419 13.064818 
L 230.99034 13.064818 
L 230.99034 8.349307 
L 230.99034 8.349307 
L 230.99034 8.349307 
L 450.672 8.349307 
" style="fill:none;stroke:#000000;stroke-linecap:square;stroke-width:1.5;"/>
   </g>
   <g id="patch_3">
    <path d="M 5.52 291.28 
L 5.52 5.52 
" style="fill:none;stroke:#000000;stroke-linecap:square;stroke-linejoin:miter;stroke-width:0.8;"/>
   </g>
   <g id="patch_4">
    <path d="M 450.672 291.28 
L 450.672 5.52 
" style="fill:none;stroke:#000000;stroke-linecap:square;stroke-linejoin:miter;stroke-width:0.8;"/>
   </g>
   <g id="patch_5">
    <path d="M 5.52 291.28 
L 450.672 291.28 
" style="fill:none;stroke:#000000;stroke-linecap:square;stroke-linejoin:miter;stroke-width:0.8;"/>
   </g>
   <g id="patch_6">
    <path d="M 5.52 5.52 
L 450.672 5.52 
" style="fill:none;stroke:#000000;stroke-linecap:square;stroke-linejoin:miter;stroke-width:0.8;"/>
   </g>
   <g id="text_6">
    <!-- {f6-f9}, 5-D -->
    <defs>
     <path d="M 51.125 -9.28125 
L 51.125 -16.3125 
L 48.09375 -16.3125 
Q 35.9375 -16.3125 31.8125 -12.6875 
Q 27.6875 -9.078125 27.6875 1.703125 
L 27.6875 13.375 
Q 27.6875 20.75 25.046875 23.578125 
Q 22.40625 26.421875 15.484375 26.421875 
L 12.5 26.421875 
L 12.5 33.40625 
L 15.484375 33.40625 
Q 22.46875 33.40625 25.078125 36.203125 
Q 27.6875 39.015625 27.6875 46.296875 
L 27.6875 58.015625 
Q 27.6875 68.796875 31.8125 72.390625 
Q 35.9375 75.984375 48.09375 75.984375 
L 51.125 75.984375 
L 51.125 69 
L 47.796875 69 
Q 40.921875 69 38.8125 66.84375 
Q 36.71875 64.703125 36.71875 57.8125 
L 36.71875 45.703125 
Q 36.71875 38.03125 34.5 34.5625 
Q 32.28125 31.109375 26.90625 29.890625 
Q 32.328125 28.5625 34.515625 25.09375 
Q 36.71875 21.625 36.71875 14.015625 
L 36.71875 1.90625 
Q 36.71875 -4.984375 38.8125 -7.125 
Q 40.921875 -9.28125 47.796875 -9.28125 
z
" id="DejaVuSans-7b"/>
     <path d="M 33.015625 40.375 
Q 26.375 40.375 22.484375 35.828125 
Q 18.609375 31.296875 18.609375 23.390625 
Q 18.609375 15.53125 22.484375 10.953125 
Q 26.375 6.390625 33.015625 6.390625 
Q 39.65625 6.390625 43.53125 10.953125 
Q 47.40625 15.53125 47.40625 23.390625 
Q 47.40625 31.296875 43.53125 35.828125 
Q 39.65625 40.375 33.015625 40.375 
z
M 52.59375 71.296875 
L 52.59375 62.3125 
Q 48.875 64.0625 45.09375 64.984375 
Q 41.3125 65.921875 37.59375 65.921875 
Q 27.828125 65.921875 22.671875 59.328125 
Q 17.53125 52.734375 16.796875 39.40625 
Q 19.671875 43.65625 24.015625 45.921875 
Q 28.375 48.1875 33.59375 48.1875 
Q 44.578125 48.1875 50.953125 41.515625 
Q 57.328125 34.859375 57.328125 23.390625 
Q 57.328125 12.15625 50.6875 5.359375 
Q 44.046875 -1.421875 33.015625 -1.421875 
Q 20.359375 -1.421875 13.671875 8.265625 
Q 6.984375 17.96875 6.984375 36.375 
Q 6.984375 53.65625 15.1875 63.9375 
Q 23.390625 74.21875 37.203125 74.21875 
Q 40.921875 74.21875 44.703125 73.484375 
Q 48.484375 72.75 52.59375 71.296875 
z
" id="DejaVuSans-36"/>
     <path d="M 10.984375 1.515625 
L 10.984375 10.5 
Q 14.703125 8.734375 18.5 7.8125 
Q 22.3125 6.890625 25.984375 6.890625 
Q 35.75 6.890625 40.890625 13.453125 
Q 46.046875 20.015625 46.78125 33.40625 
Q 43.953125 29.203125 39.59375 26.953125 
Q 35.25 24.703125 29.984375 24.703125 
Q 19.046875 24.703125 12.671875 31.3125 
Q 6.296875 37.9375 6.296875 49.421875 
Q 6.296875 60.640625 12.9375 67.421875 
Q 19.578125 74.21875 30.609375 74.21875 
Q 43.265625 74.21875 49.921875 64.515625 
Q 56.59375 54.828125 56.59375 36.375 
Q 56.59375 19.140625 48.40625 8.859375 
Q 40.234375 -1.421875 26.421875 -1.421875 
Q 22.703125 -1.421875 18.890625 -0.6875 
Q 15.09375 0.046875 10.984375 1.515625 
z
M 30.609375 32.421875 
Q 37.25 32.421875 41.125 36.953125 
Q 45.015625 41.5 45.015625 49.421875 
Q 45.015625 57.28125 41.125 61.84375 
Q 37.25 66.40625 30.609375 66.40625 
Q 23.96875 66.40625 20.09375 61.84375 
Q 16.21875 57.28125 16.21875 49.421875 
Q 16.21875 41.5 20.09375 36.953125 
Q 23.96875 32.421875 30.609375 32.421875 
z
" id="DejaVuSans-39"/>
     <path d="M 12.5 -9.28125 
L 15.921875 -9.28125 
Q 22.75 -9.28125 24.828125 -7.171875 
Q 26.90625 -5.078125 26.90625 1.90625 
L 26.90625 14.015625 
Q 26.90625 21.625 29.09375 25.09375 
Q 31.296875 28.5625 36.71875 29.890625 
Q 31.296875 31.109375 29.09375 34.5625 
Q 26.90625 38.03125 26.90625 45.703125 
L 26.90625 57.8125 
Q 26.90625 64.75 24.828125 66.875 
Q 22.75 69 15.921875 69 
L 12.5 69 
L 12.5 75.984375 
L 15.578125 75.984375 
Q 27.734375 75.984375 31.8125 72.390625 
Q 35.890625 68.796875 35.890625 58.015625 
L 35.890625 46.296875 
Q 35.890625 39.015625 38.515625 36.203125 
Q 41.15625 33.40625 48.09375 33.40625 
L 51.125 33.40625 
L 51.125 26.421875 
L 48.09375 26.421875 
Q 41.15625 26.421875 38.515625 23.578125 
Q 35.890625 20.75 35.890625 13.375 
L 35.890625 1.703125 
Q 35.890625 -9.078125 31.8125 -12.6875 
Q 27.734375 -16.3125 15.578125 -16.3125 
L 12.5 -16.3125 
z
" id="DejaVuSans-7d"/>
     <path d="M 11.71875 12.40625 
L 22.015625 12.40625 
L 22.015625 4 
L 14.015625 -11.625 
L 7.71875 -11.625 
L 11.71875 4 
z
" id="DejaVuSans-2c"/>
     <path d="M 10.796875 72.90625 
L 49.515625 72.90625 
L 49.515625 64.59375 
L 19.828125 64.59375 
L 19.828125 46.734375 
Q 21.96875 47.46875 24.109375 47.828125 
Q 26.265625 48.1875 28.421875 48.1875 
Q 40.625 48.1875 47.75 41.5 
Q 54.890625 34.8125 54.890625 23.390625 
Q 54.890625 11.625 47.5625 5.09375 
Q 40.234375 -1.421875 26.90625 -1.421875 
Q 22.3125 -1.421875 17.546875 -0.640625 
Q 12.796875 0.140625 7.71875 1.703125 
L 7.71875 11.625 
Q 12.109375 9.234375 16.796875 8.0625 
Q 21.484375 6.890625 26.703125 6.890625 
Q 35.15625 6.890625 40.078125 11.328125 
Q 45.015625 15.765625 45.015625 23.390625 
Q 45.015625 31 40.078125 35.4375 
Q 35.15625 39.890625 26.703125 39.890625 
Q 22.75 39.890625 18.8125 39.015625 
Q 14.890625 38.140625 10.796875 36.28125 
z
" id="DejaVuSans-35"/>
    </defs>
    <g transform="translate(321.51896 285.5648)scale(0.2 -0.2)">
     <use xlink:href="#DejaVuSans-7b"/>
     <use x="63.623047" xlink:href="#DejaVuSans-66"/>
     <use x="98.828125" xlink:href="#DejaVuSans-36"/>
     <use x="162.451172" xlink:href="#DejaVuSans-2d"/>
     <use x="198.535156" xlink:href="#DejaVuSans-66"/>
     <use x="233.740234" xlink:href="#DejaVuSans-39"/>
     <use x="297.363281" xlink:href="#DejaVuSans-7d"/>
     <use x="360.986328" xlink:href="#DejaVuSans-2c"/>
     <use x="392.773438" xlink:href="#DejaVuSans-20"/>
     <use x="424.560547" xlink:href="#DejaVuSans-35"/>
     <use x="488.183594" xlink:href="#DejaVuSans-2d"/>
     <use x="524.267578" xlink:href="#DejaVuSans-44"/>
    </g>
   </g>
   <g id="text_7">
    <!-- v0.0.0 -->
    <defs>
     <path d="M 2.984375 54.6875 
L 12.5 54.6875 
L 29.59375 8.796875 
L 46.6875 54.6875 
L 56.203125 54.6875 
L 35.6875 0 
L 23.484375 0 
z
" id="DejaVuSans-76"/>
     <path d="M 10.6875 12.40625 
L 21 12.40625 
L 21 0 
L 10.6875 0 
z
" id="DejaVuSans-2e"/>
    </defs>
    <g style="fill:#808080;" transform="translate(212.41475 286.342713)scale(0.1 -0.1)">
     <use xlink:href="#DejaVuSans-76"/>
     <use x="59.179688" xlink:href="#DejaVuSans-30"/>
     <use x="122.802734" xlink:href="#DejaVuSans-2e"/>
     <use x="154.589844" xlink:href="#DejaVuSans-30"/>
     <use x="218.212891" xlink:href="#DejaVuSans-2e"/>
     <use x="250" xlink:href="#DejaVuSans-30"/>
    </g>
   </g>
  </g>
 </g>
 <defs>
  <clipPath id="p9ae9e425d5">
   <rect height="285.76" width="445.152" x="5.52" y="5.52"/>
  </clipPath>
 </defs>
</svg>
