<?xml version="1.0" encoding="utf-8" standalone="no"?>
<!DOCTYPE svg PUBLIC "-//W3C//DTD SVG 1.1//EN"
  "http://www.w3.org/Graphics/SVG/1.1/DTD/svg11.dtd">
<!-- Created with matplotlib (http://matplotlib.org/) -->
<svg height="345.6pt" version="1.1" viewBox="0 0 460.8 345.6" width="460.8pt" xmlns="http://www.w3.org/2000/svg" xmlns:xlink="http://www.w3.org/1999/xlink">
 <defs>
  <style type="text/css">
*{stroke-linecap:butt;stroke-linejoin:round;}
  </style>
 </defs>
 <g id="figure_1">
  <g id="patch_1">
   <path d="M 0 345.6 
L 460.8 345.6 
L 460.8 0 
L 0 0 
z
" style="fill:#ffffff;"/>
  </g>
  <g id="axes_1">
   <g id="patch_2">
    <path d="M 5.52 291.28 
L 450.672 291.28 
L 450.672 5.52 
L 5.52 5.52 
z
" style="fill:#ffffff;"/>
   </g>
   <g id="matplotlib.axis_1">
    <g id="xtick_1">
     <g id="line2d_1">
      <path clip-path="url(#p6dda917dbd)" d="M 5.410718 291.28 
L 5.410718 5.52 
" style="fill:none;stroke:#b0b0b0;stroke-linecap:square;stroke-width:0.8;"/>
     </g>
     <g id="line2d_2">
      <defs>
       <path d="M 0 0 
L 0 3.5 
" id="m8519b942a9" style="stroke:#000000;stroke-width:0.8;"/>
      </defs>
      <g>
       <use style="stroke:#000000;stroke-width:0.8;" x="5.410718" xlink:href="#m8519b942a9" y="291.28"/>
      </g>
     </g>
    </g>
    <g id="xtick_2">
     <g id="line2d_3">
      <path clip-path="url(#p6dda917dbd)" d="M 106.565567 291.28 
L 106.565567 5.52 
" style="fill:none;stroke:#b0b0b0;stroke-linecap:square;stroke-width:0.8;"/>
     </g>
     <g id="line2d_4">
      <g>
       <use style="stroke:#000000;stroke-width:0.8;" x="106.565567" xlink:href="#m8519b942a9" y="291.28"/>
      </g>
     </g>
     <g id="text_1">
      <!-- -4 -->
      <defs>
       <path d="M 4.890625 31.390625 
L 31.203125 31.390625 
L 31.203125 23.390625 
L 4.890625 23.390625 
z
" id="DejaVuSans-2d"/>
       <path d="M 37.796875 64.3125 
L 12.890625 25.390625 
L 37.796875 25.390625 
z
M 35.203125 72.90625 
L 47.609375 72.90625 
L 47.609375 25.390625 
L 58.015625 25.390625 
L 58.015625 17.1875 
L 47.609375 17.1875 
L 47.609375 0 
L 37.796875 0 
L 37.796875 17.1875 
L 4.890625 17.1875 
L 4.890625 26.703125 
z
" id="DejaVuSans-34"/>
      </defs>
      <g transform="translate(96.595255 313.476875)scale(0.2 -0.2)">
       <use xlink:href="#DejaVuSans-2d"/>
       <use x="36.083984" xlink:href="#DejaVuSans-34"/>
      </g>
     </g>
    </g>
    <g id="xtick_3">
     <g id="line2d_5">
      <path clip-path="url(#p6dda917dbd)" d="M 207.720417 291.28 
L 207.720417 5.52 
" style="fill:none;stroke:#b0b0b0;stroke-linecap:square;stroke-width:0.8;"/>
     </g>
     <g id="line2d_6">
      <g>
       <use style="stroke:#000000;stroke-width:0.8;" x="207.720417" xlink:href="#m8519b942a9" y="291.28"/>
      </g>
     </g>
     <g id="text_2">
      <!-- 0 -->
      <defs>
       <path d="M 31.78125 66.40625 
Q 24.171875 66.40625 20.328125 58.90625 
Q 16.5 51.421875 16.5 36.375 
Q 16.5 21.390625 20.328125 13.890625 
Q 24.171875 6.390625 31.78125 6.390625 
Q 39.453125 6.390625 43.28125 13.890625 
Q 47.125 21.390625 47.125 36.375 
Q 47.125 51.421875 43.28125 58.90625 
Q 39.453125 66.40625 31.78125 66.40625 
z
M 31.78125 74.21875 
Q 44.046875 74.21875 50.515625 64.515625 
Q 56.984375 54.828125 56.984375 36.375 
Q 56.984375 17.96875 50.515625 8.265625 
Q 44.046875 -1.421875 31.78125 -1.421875 
Q 19.53125 -1.421875 13.0625 8.265625 
Q 6.59375 17.96875 6.59375 36.375 
Q 6.59375 54.828125 13.0625 64.515625 
Q 19.53125 74.21875 31.78125 74.21875 
z
" id="DejaVuSans-30"/>
      </defs>
      <g transform="translate(201.357917 313.476875)scale(0.2 -0.2)">
       <use xlink:href="#DejaVuSans-30"/>
      </g>
     </g>
    </g>
    <g id="xtick_4">
     <g id="line2d_7">
      <path clip-path="url(#p6dda917dbd)" d="M 308.875266 291.28 
L 308.875266 5.52 
" style="fill:none;stroke:#b0b0b0;stroke-linecap:square;stroke-width:0.8;"/>
     </g>
     <g id="line2d_8">
      <g>
       <use style="stroke:#000000;stroke-width:0.8;" x="308.875266" xlink:href="#m8519b942a9" y="291.28"/>
      </g>
     </g>
     <g id="text_3">
      <!-- 4 -->
      <g transform="translate(302.512766 313.476875)scale(0.2 -0.2)">
       <use xlink:href="#DejaVuSans-34"/>
      </g>
     </g>
    </g>
    <g id="xtick_5">
     <g id="line2d_9">
      <path clip-path="url(#p6dda917dbd)" d="M 410.030115 291.28 
L 410.030115 5.52 
" style="fill:none;stroke:#b0b0b0;stroke-linecap:square;stroke-width:0.8;"/>
     </g>
     <g id="line2d_10">
      <g>
       <use style="stroke:#000000;stroke-width:0.8;" x="410.030115" xlink:href="#m8519b942a9" y="291.28"/>
      </g>
     </g>
     <g id="text_4">
      <!-- 8 -->
      <defs>
       <path d="M 31.78125 34.625 
Q 24.75 34.625 20.71875 30.859375 
Q 16.703125 27.09375 16.703125 20.515625 
Q 16.703125 13.921875 20.71875 10.15625 
Q 24.75 6.390625 31.78125 6.390625 
Q 38.8125 6.390625 42.859375 10.171875 
Q 46.921875 13.96875 46.921875 20.515625 
Q 46.921875 27.09375 42.890625 30.859375 
Q 38.875 34.625 31.78125 34.625 
z
M 21.921875 38.8125 
Q 15.578125 40.375 12.03125 44.71875 
Q 8.5 49.078125 8.5 55.328125 
Q 8.5 64.0625 14.71875 69.140625 
Q 20.953125 74.21875 31.78125 74.21875 
Q 42.671875 74.21875 48.875 69.140625 
Q 55.078125 64.0625 55.078125 55.328125 
Q 55.078125 49.078125 51.53125 44.71875 
Q 48 40.375 41.703125 38.8125 
Q 48.828125 37.15625 52.796875 32.3125 
Q 56.78125 27.484375 56.78125 20.515625 
Q 56.78125 9.90625 50.3125 4.234375 
Q 43.84375 -1.421875 31.78125 -1.421875 
Q 19.734375 -1.421875 13.25 4.234375 
Q 6.78125 9.90625 6.78125 20.515625 
Q 6.78125 27.484375 10.78125 32.3125 
Q 14.796875 37.15625 21.921875 38.8125 
z
M 18.3125 54.390625 
Q 18.3125 48.734375 21.84375 45.5625 
Q 25.390625 42.390625 31.78125 42.390625 
Q 38.140625 42.390625 41.71875 45.5625 
Q 45.3125 48.734375 45.3125 54.390625 
Q 45.3125 60.0625 41.71875 63.234375 
Q 38.140625 66.40625 31.78125 66.40625 
Q 25.390625 66.40625 21.84375 63.234375 
Q 18.3125 60.0625 18.3125 54.390625 
z
" id="DejaVuSans-38"/>
      </defs>
      <g transform="translate(403.667615 313.476875)scale(0.2 -0.2)">
       <use xlink:href="#DejaVuSans-38"/>
      </g>
     </g>
    </g>
    <g id="text_5">
     <!-- log10 of Df -->
     <defs>
      <path d="M 9.421875 75.984375 
L 18.40625 75.984375 
L 18.40625 0 
L 9.421875 0 
z
" id="DejaVuSans-6c"/>
      <path d="M 30.609375 48.390625 
Q 23.390625 48.390625 19.1875 42.75 
Q 14.984375 37.109375 14.984375 27.296875 
Q 14.984375 17.484375 19.15625 11.84375 
Q 23.34375 6.203125 30.609375 6.203125 
Q 37.796875 6.203125 41.984375 11.859375 
Q 46.1875 17.53125 46.1875 27.296875 
Q 46.1875 37.015625 41.984375 42.703125 
Q 37.796875 48.390625 30.609375 48.390625 
z
M 30.609375 56 
Q 42.328125 56 49.015625 48.375 
Q 55.71875 40.765625 55.71875 27.296875 
Q 55.71875 13.875 49.015625 6.21875 
Q 42.328125 -1.421875 30.609375 -1.421875 
Q 18.84375 -1.421875 12.171875 6.21875 
Q 5.515625 13.875 5.515625 27.296875 
Q 5.515625 40.765625 12.171875 48.375 
Q 18.84375 56 30.609375 56 
z
" id="DejaVuSans-6f"/>
      <path d="M 45.40625 27.984375 
Q 45.40625 37.75 41.375 43.109375 
Q 37.359375 48.484375 30.078125 48.484375 
Q 22.859375 48.484375 18.828125 43.109375 
Q 14.796875 37.75 14.796875 27.984375 
Q 14.796875 18.265625 18.828125 12.890625 
Q 22.859375 7.515625 30.078125 7.515625 
Q 37.359375 7.515625 41.375 12.890625 
Q 45.40625 18.265625 45.40625 27.984375 
z
M 54.390625 6.78125 
Q 54.390625 -7.171875 48.1875 -13.984375 
Q 42 -20.796875 29.203125 -20.796875 
Q 24.46875 -20.796875 20.265625 -20.09375 
Q 16.0625 -19.390625 12.109375 -17.921875 
L 12.109375 -9.1875 
Q 16.0625 -11.328125 19.921875 -12.34375 
Q 23.78125 -13.375 27.78125 -13.375 
Q 36.625 -13.375 41.015625 -8.765625 
Q 45.40625 -4.15625 45.40625 5.171875 
L 45.40625 9.625 
Q 42.625 4.78125 38.28125 2.390625 
Q 33.9375 0 27.875 0 
Q 17.828125 0 11.671875 7.65625 
Q 5.515625 15.328125 5.515625 27.984375 
Q 5.515625 40.671875 11.671875 48.328125 
Q 17.828125 56 27.875 56 
Q 33.9375 56 38.28125 53.609375 
Q 42.625 51.21875 45.40625 46.390625 
L 45.40625 54.6875 
L 54.390625 54.6875 
z
" id="DejaVuSans-67"/>
      <path d="M 12.40625 8.296875 
L 28.515625 8.296875 
L 28.515625 63.921875 
L 10.984375 60.40625 
L 10.984375 69.390625 
L 28.421875 72.90625 
L 38.28125 72.90625 
L 38.28125 8.296875 
L 54.390625 8.296875 
L 54.390625 0 
L 12.40625 0 
z
" id="DejaVuSans-31"/>
      <path id="DejaVuSans-20"/>
      <path d="M 37.109375 75.984375 
L 37.109375 68.5 
L 28.515625 68.5 
Q 23.6875 68.5 21.796875 66.546875 
Q 19.921875 64.59375 19.921875 59.515625 
L 19.921875 54.6875 
L 34.71875 54.6875 
L 34.71875 47.703125 
L 19.921875 47.703125 
L 19.921875 0 
L 10.890625 0 
L 10.890625 47.703125 
L 2.296875 47.703125 
L 2.296875 54.6875 
L 10.890625 54.6875 
L 10.890625 58.5 
Q 10.890625 67.625 15.140625 71.796875 
Q 19.390625 75.984375 28.609375 75.984375 
z
" id="DejaVuSans-66"/>
      <path d="M 19.671875 64.796875 
L 19.671875 8.109375 
L 31.59375 8.109375 
Q 46.6875 8.109375 53.6875 14.9375 
Q 60.6875 21.78125 60.6875 36.53125 
Q 60.6875 51.171875 53.6875 57.984375 
Q 46.6875 64.796875 31.59375 64.796875 
z
M 9.8125 72.90625 
L 30.078125 72.90625 
Q 51.265625 72.90625 61.171875 64.09375 
Q 71.09375 55.28125 71.09375 36.53125 
Q 71.09375 17.671875 61.125 8.828125 
Q 51.171875 0 30.078125 0 
L 9.8125 0 
z
" id="DejaVuSans-44"/>
     </defs>
     <g transform="translate(172.910063 336.833125)scale(0.2 -0.2)">
      <use xlink:href="#DejaVuSans-6c"/>
      <use x="27.783203" xlink:href="#DejaVuSans-6f"/>
      <use x="88.964844" xlink:href="#DejaVuSans-67"/>
      <use x="152.441406" xlink:href="#DejaVuSans-31"/>
      <use x="216.064453" xlink:href="#DejaVuSans-30"/>
      <use x="279.6875" xlink:href="#DejaVuSans-20"/>
      <use x="311.474609" xlink:href="#DejaVuSans-6f"/>
      <use x="372.65625" xlink:href="#DejaVuSans-66"/>
      <use x="407.861328" xlink:href="#DejaVuSans-20"/>
      <use x="439.648438" xlink:href="#DejaVuSans-44"/>
      <use x="516.650391" xlink:href="#DejaVuSans-66"/>
     </g>
    </g>
   </g>
   <g id="matplotlib.axis_2">
    <g id="ytick_1">
     <g id="line2d_11">
      <path clip-path="url(#p6dda917dbd)" d="M 5.52 291.28 
L 450.672 291.28 
" style="fill:none;stroke:#b0b0b0;stroke-linecap:square;stroke-width:0.8;"/>
     </g>
     <g id="line2d_12">
      <defs>
       <path d="M 0 0 
L -3.5 0 
" id="m0441abac9a" style="stroke:#000000;stroke-width:0.8;"/>
      </defs>
      <g>
       <use style="stroke:#000000;stroke-width:0.8;" x="5.52" xlink:href="#m0441abac9a" y="291.28"/>
      </g>
     </g>
    </g>
    <g id="ytick_2">
     <g id="line2d_13">
      <path clip-path="url(#p6dda917dbd)" d="M 5.52 234.693861 
L 450.672 234.693861 
" style="fill:none;stroke:#b0b0b0;stroke-linecap:square;stroke-width:0.8;"/>
     </g>
     <g id="line2d_14">
      <g>
       <use style="stroke:#000000;stroke-width:0.8;" x="5.52" xlink:href="#m0441abac9a" y="234.693861"/>
      </g>
     </g>
    </g>
    <g id="ytick_3">
     <g id="line2d_15">
      <path clip-path="url(#p6dda917dbd)" d="M 5.52 178.107723 
L 450.672 178.107723 
" style="fill:none;stroke:#b0b0b0;stroke-linecap:square;stroke-width:0.8;"/>
     </g>
     <g id="line2d_16">
      <g>
       <use style="stroke:#000000;stroke-width:0.8;" x="5.52" xlink:href="#m0441abac9a" y="178.107723"/>
      </g>
     </g>
    </g>
    <g id="ytick_4">
     <g id="line2d_17">
      <path clip-path="url(#p6dda917dbd)" d="M 5.52 121.521584 
L 450.672 121.521584 
" style="fill:none;stroke:#b0b0b0;stroke-linecap:square;stroke-width:0.8;"/>
     </g>
     <g id="line2d_18">
      <g>
       <use style="stroke:#000000;stroke-width:0.8;" x="5.52" xlink:href="#m0441abac9a" y="121.521584"/>
      </g>
     </g>
    </g>
    <g id="ytick_5">
     <g id="line2d_19">
      <path clip-path="url(#p6dda917dbd)" d="M 5.52 64.935446 
L 450.672 64.935446 
" style="fill:none;stroke:#b0b0b0;stroke-linecap:square;stroke-width:0.8;"/>
     </g>
     <g id="line2d_20">
      <g>
       <use style="stroke:#000000;stroke-width:0.8;" x="5.52" xlink:href="#m0441abac9a" y="64.935446"/>
      </g>
     </g>
    </g>
    <g id="ytick_6">
     <g id="line2d_21">
      <path clip-path="url(#p6dda917dbd)" d="M 5.52 8.349307 
L 450.672 8.349307 
" style="fill:none;stroke:#b0b0b0;stroke-linecap:square;stroke-width:0.8;"/>
     </g>
     <g id="line2d_22">
      <g>
       <use style="stroke:#000000;stroke-width:0.8;" x="5.52" xlink:href="#m0441abac9a" y="8.349307"/>
      </g>
     </g>
    </g>
   </g>
   <g id="line2d_23">
    <path clip-path="url(#p6dda917dbd)" d="M -1 255.913663 
L -0.855664 255.913663 
L -0.855664 255.127745 
L -0.160445 255.127745 
L -0.160445 254.341826 
L 0.134556 254.341826 
L 0.134556 253.555908 
L 5.410718 253.555908 
L 5.410718 229.97835 
L 6.511663 229.97835 
L 6.511663 229.192431 
L 6.92735 229.192431 
L 6.92735 228.406513 
L 9.884659 228.406513 
L 9.884659 227.620594 
L 11.630178 227.620594 
L 11.630178 226.834675 
L 12.350686 226.834675 
L 12.350686 226.048757 
L 12.542527 226.048757 
L 12.542527 225.262838 
L 13.166496 225.262838 
L 13.166496 224.47692 
L 16.088968 224.47692 
L 16.088968 223.691001 
L 16.349202 223.691001 
L 16.349202 222.905083 
L 17.44281 222.905083 
L 17.44281 222.119164 
L 17.591761 222.119164 
L 17.591761 221.333245 
L 21.843379 221.333245 
L 21.906896 219.761408 
L 25.702441 219.761408 
L 25.702441 218.97549 
L 26.375157 218.97549 
L 26.375157 218.189571 
L 26.875981 218.189571 
L 26.875981 217.403652 
L 27.885614 217.403652 
L 27.885614 216.617734 
L 29.033598 216.617734 
L 29.033598 215.831815 
L 29.290619 215.831815 
L 29.290619 215.045897 
L 32.098431 215.045897 
L 32.098431 214.259978 
L 32.990127 214.259978 
L 32.990127 213.474059 
L 36.210741 213.474059 
L 36.210741 212.688141 
L 37.496436 212.688141 
L 37.496436 211.902222 
L 38.061753 211.902222 
L 38.061753 211.116304 
L 40.064789 211.116304 
L 40.064789 210.330385 
L 40.385059 210.330385 
L 40.385059 209.544466 
L 42.546399 209.544466 
L 42.546399 208.758548 
L 44.392 208.758548 
L 44.392 207.972629 
L 44.954585 207.972629 
L 44.954585 207.186711 
L 45.407324 207.186711 
L 45.407324 206.400792 
L 46.314726 206.400792 
L 46.369841 204.828955 
L 47.280347 204.828955 
L 47.280347 204.043036 
L 47.931671 204.043036 
L 47.931671 203.257118 
L 48.394893 203.257118 
L 48.394893 202.471199 
L 50.527002 202.471199 
L 50.527002 201.685281 
L 51.115522 201.685281 
L 51.115522 200.899362 
L 51.747159 200.899362 
L 51.747159 200.113443 
L 54.006363 200.113443 
L 54.006363 199.327525 
L 54.126378 199.327525 
L 54.126378 198.541606 
L 59.102767 198.541606 
L 59.102767 197.755688 
L 61.630049 197.755688 
L 61.630049 196.969769 
L 63.314575 196.969769 
L 63.314575 196.18385 
L 65.320911 196.18385 
L 65.320911 195.397932 
L 65.547069 195.397932 
L 65.547069 194.612013 
L 66.69222 194.612013 
L 66.69222 193.826095 
L 69.067696 193.826095 
L 69.067696 193.040176 
L 71.125945 193.040176 
L 71.125945 192.254257 
L 71.382082 192.254257 
L 71.382082 191.468339 
L 72.394336 191.468339 
L 72.394336 190.68242 
L 77.079604 190.68242 
L 77.079604 189.896502 
L 77.229995 189.896502 
L 77.229995 189.110583 
L 82.456436 189.110583 
L 82.506299 187.538746 
L 85.91725 187.538746 
L 85.91725 186.752827 
L 86.120399 186.752827 
L 86.120399 185.966909 
L 86.564061 185.966909 
L 86.589293 184.395072 
L 88.413194 184.395072 
L 88.413194 183.609153 
L 90.113045 183.609153 
L 90.113045 182.823234 
L 91.568667 182.823234 
L 91.568667 182.037316 
L 101.179608 182.037316 
L 101.179608 181.251397 
L 109.704345 181.251397 
L 109.704345 180.465479 
L 110.535825 180.465479 
L 110.535825 179.67956 
L 110.825938 179.67956 
L 110.825938 178.893641 
L 115.498535 178.893641 
L 115.498535 178.107723 
L 115.78183 178.107723 
L 115.78183 177.321804 
L 121.051293 177.321804 
L 121.051293 176.535886 
L 123.683107 176.535886 
L 123.683107 175.749967 
L 129.049596 175.749967 
L 129.049596 174.964048 
L 131.106201 174.964048 
L 131.106201 174.17813 
L 132.934921 174.17813 
L 132.934921 173.392211 
L 135.712615 173.392211 
L 135.712615 172.606293 
L 145.557539 172.606293 
L 145.557539 171.820374 
L 145.77672 171.820374 
L 145.77672 171.034455 
L 146.456374 171.034455 
L 146.456374 170.248537 
L 150.46219 170.248537 
L 150.46219 169.462618 
L 150.875255 169.462618 
L 150.875255 168.6767 
L 153.174912 168.6767 
L 153.174912 167.890781 
L 153.857922 167.890781 
L 153.857922 167.104862 
L 156.240837 167.104862 
L 156.240837 166.318944 
L 160.475615 166.318944 
L 160.475615 165.533025 
L 162.166896 165.533025 
L 162.246074 163.961188 
L 163.142057 163.961188 
L 163.142057 163.17527 
L 166.278907 163.17527 
L 166.386615 161.603432 
L 166.526744 161.603432 
L 166.526744 160.817514 
L 167.02708 160.817514 
L 167.02708 160.031595 
L 167.838651 160.031595 
L 167.838651 159.245677 
L 168.555267 159.245677 
L 168.555267 158.459758 
L 170.73621 158.459758 
L 170.73621 157.673839 
L 174.131704 157.673839 
L 174.131704 156.887921 
L 174.398333 156.887921 
L 174.398333 156.102002 
L 175.052342 156.102002 
L 175.052342 155.316084 
L 176.067011 155.316084 
L 176.067011 154.530165 
L 178.307826 154.530165 
L 178.405358 152.958328 
L 178.894047 152.958328 
L 178.943693 150.600572 
L 179.279983 150.600572 
L 179.279983 149.814653 
L 181.21331 149.814653 
L 181.21331 149.028735 
L 183.650443 149.028735 
L 183.650443 148.242816 
L 184.037527 148.242816 
L 184.037527 147.456898 
L 184.247833 147.456898 
L 184.247833 146.670979 
L 185.961827 146.670979 
L 185.961827 145.885061 
L 187.931611 145.885061 
L 187.931611 145.099142 
L 188.053283 145.099142 
L 188.130984 143.527305 
L 188.96135 143.527305 
L 188.96135 142.741386 
L 189.081317 142.741386 
L 189.081317 141.955468 
L 189.902389 141.955468 
L 189.965859 140.38363 
L 190.980415 140.38363 
L 190.980415 139.597712 
L 191.801184 139.597712 
L 191.801184 138.811793 
L 192.120312 138.811793 
L 192.120312 138.025875 
L 192.282631 138.025875 
L 192.282631 137.239956 
L 192.511501 137.239956 
L 192.605919 127.808933 
L 192.85443 127.808933 
L 192.85443 127.023014 
L 193.29341 127.023014 
L 193.29341 126.237096 
L 194.562131 126.237096 
L 194.562131 125.451177 
L 194.723759 125.451177 
L 194.723759 124.665259 
L 195.153063 124.665259 
L 195.153063 123.87934 
L 195.269873 123.87934 
L 195.269873 123.093421 
L 196.202996 123.093421 
L 196.202996 122.307503 
L 196.511631 122.307503 
L 196.511631 121.521584 
L 196.672654 121.521584 
L 196.672654 120.735666 
L 197.494014 120.735666 
L 197.494014 119.949747 
L 198.129817 119.949747 
L 198.129817 119.163828 
L 198.464442 119.163828 
L 198.464442 118.37791 
L 199.314675 118.37791 
L 199.314675 117.591991 
L 199.515552 117.591991 
L 199.524255 115.234235 
L 200.29959 115.234235 
L 200.29959 114.448317 
L 200.613334 114.448317 
L 200.613334 113.662398 
L 200.838095 113.662398 
L 200.838095 112.87648 
L 200.995552 112.87648 
L 201.095249 111.304642 
L 201.599349 111.304642 
L 201.599349 110.518724 
L 202.38659 110.518724 
L 202.38659 109.732805 
L 202.561475 109.732805 
L 202.561475 108.946887 
L 203.146533 108.946887 
L 203.146533 108.160968 
L 203.341005 108.160968 
L 203.341006 106.589131 
L 203.647847 106.589131 
L 203.674634 103.445457 
L 204.444552 103.445457 
L 204.444552 102.659538 
L 204.840321 102.659538 
L 204.840917 101.087701 
L 204.984253 101.087701 
L 204.984253 100.301782 
L 205.447686 100.301782 
L 205.447686 99.515864 
L 205.661959 99.515864 
L 205.661959 97.944026 
L 206.536879 97.944026 
L 206.536879 97.158108 
L 206.660857 97.158108 
L 206.76773 95.586271 
L 206.790204 95.586271 
L 206.790204 94.800352 
L 207.128213 94.800352 
L 207.173729 93.228515 
L 207.32927 93.228515 
L 207.32927 92.442596 
L 207.664913 92.442596 
L 207.664913 91.656678 
L 209.61548 91.656678 
L 209.61548 90.870759 
L 210.053339 90.870759 
L 210.129381 88.513003 
L 210.625893 88.513003 
L 210.625893 87.727085 
L 210.853395 87.727085 
L 210.853395 86.941166 
L 211.58167 86.941166 
L 211.631777 84.58341 
L 212.460578 84.58341 
L 212.460578 83.797492 
L 212.625459 83.797492 
L 212.625459 83.011573 
L 212.739015 83.011573 
L 212.739015 82.225655 
L 212.952125 82.225655 
L 212.952125 81.439736 
L 213.246709 81.439736 
L 213.246709 80.653817 
L 214.194337 80.653817 
L 214.194337 78.296062 
L 215.04018 78.296062 
L 215.083137 76.724224 
L 215.224513 76.724224 
L 215.277574 74.366469 
L 215.458014 74.366469 
L 215.458014 73.58055 
L 216.040969 73.58055 
L 216.040969 72.794631 
L 216.654956 72.794631 
L 216.654956 72.008713 
L 217.664432 72.008713 
L 217.664432 71.222794 
L 218.103702 71.222794 
L 218.174558 68.865039 
L 218.417732 68.865039 
L 218.417732 68.07912 
L 218.74526 68.07912 
L 218.74526 67.293201 
L 219.730695 67.293201 
L 219.730703 62.57769 
L 219.944655 62.57769 
L 219.944655 61.791771 
L 222.242711 61.791771 
L 222.242711 61.005853 
L 222.754184 61.005853 
L 222.829159 55.504422 
L 222.890221 55.504422 
L 222.97895 50.788911 
L 224.212421 50.788911 
L 224.212421 50.002992 
L 225.340953 50.002992 
L 225.340964 46.073399 
L 226.495662 46.073399 
L 226.495662 45.287481 
L 226.990865 45.287481 
L 226.990865 44.501562 
L 227.309882 44.501562 
L 227.343347 42.143806 
L 228.77188 42.143806 
L 228.77188 41.357888 
L 228.948649 41.357888 
L 229.036346 33.498702 
L 229.0755 33.498702 
L 229.0755 32.712783 
L 229.456693 32.712783 
L 229.509973 31.140946 
L 229.577469 31.140946 
L 229.577469 30.355028 
L 230.452788 30.355028 
L 230.517805 27.211353 
L 231.040481 27.211353 
L 231.040481 26.425435 
L 231.167976 26.425435 
L 231.167976 25.639516 
L 231.796465 25.639516 
L 231.796465 24.067679 
L 232.460522 24.067679 
L 232.460522 23.28176 
L 232.953614 23.28176 
L 232.953614 20.924004 
L 233.095991 20.924004 
L 233.18407 19.352167 
L 233.524472 19.352167 
L 233.524472 18.566249 
L 234.000383 18.566249 
L 234.000383 17.78033 
L 234.966316 17.78033 
L 234.966316 16.994411 
L 235.808691 16.994411 
L 235.808691 16.208493 
L 236.648987 16.208493 
L 236.648987 15.422574 
L 237.739424 15.422574 
L 237.739424 14.636656 
L 238.115533 14.636656 
L 238.115533 13.064818 
L 239.409076 13.064818 
L 239.409076 12.2789 
L 239.970546 12.2789 
L 240.002886 10.707063 
L 241.865914 10.707063 
L 241.865914 9.921144 
L 252.147082 9.921144 
L 252.147082 9.135226 
L 271.151797 9.135226 
L 271.151797 8.349307 
L 271.151797 8.349307 
L 450.672 8.349307 
L 450.672 8.349307 
" style="fill:none;stroke:#ff0000;stroke-linecap:square;stroke-width:3;"/>
   </g>
   <g id="line2d_24">
    <path clip-path="url(#p6dda917dbd)" d="M 192.511501 291.28 
L 192.511501 279.491221 
L 224.029726 279.491221 
L 224.029726 278.705303 
L 226.702446 278.705303 
L 226.702446 277.919384 
L 226.865464 277.919384 
L 226.865464 277.133465 
L 227.008131 277.133465 
L 227.008131 276.347547 
L 228.542221 276.347547 
L 228.638517 274.77571 
L 229.928505 274.77571 
L 229.928505 273.989791 
L 230.782922 273.989791 
L 230.782922 273.203872 
L 231.196804 273.203872 
L 231.196804 272.417954 
L 231.925653 272.417954 
L 231.925653 271.632035 
L 232.381435 271.632035 
L 232.381435 270.846117 
L 232.651533 270.846117 
L 232.651533 270.060198 
L 232.857544 270.060198 
L 232.857544 269.274279 
L 233.672715 269.274279 
L 233.672715 268.488361 
L 233.807693 268.488361 
L 233.807693 267.702442 
L 234.013417 267.702442 
L 234.013417 266.916524 
L 234.549694 266.916524 
L 234.549694 266.130605 
L 234.844035 266.130605 
L 234.844035 265.344686 
L 235.506083 265.344686 
L 235.506083 264.558768 
L 235.740883 264.558768 
L 235.740883 263.772849 
L 235.987455 263.772849 
L 235.987455 262.986931 
L 236.189163 262.986931 
L 236.237483 261.415094 
L 236.496588 261.415094 
L 236.496588 260.629175 
L 236.660106 260.629175 
L 236.660106 259.843256 
L 237.254962 259.843256 
L 237.254962 259.057338 
L 237.467311 259.057338 
L 237.467311 258.271419 
L 237.700437 258.271419 
L 237.700437 257.485501 
L 237.889202 257.485501 
L 237.889202 256.699582 
L 238.205499 256.699582 
L 238.205499 255.913663 
L 238.476873 255.913663 
L 238.569339 254.341826 
L 238.748146 254.341826 
L 238.748146 253.555908 
L 239.115717 253.555908 
L 239.115717 252.769989 
L 239.364976 252.769989 
L 239.388874 251.198152 
L 239.960277 251.198152 
L 239.970143 249.626315 
L 240.418124 249.626315 
L 240.418124 248.840396 
L 240.590664 248.840396 
L 240.590664 248.054477 
L 240.725837 248.054477 
L 240.78398 246.48264 
L 241.116735 246.48264 
L 241.116735 245.696722 
L 241.616117 245.696722 
L 241.616117 244.910803 
L 241.797319 244.910803 
L 241.797319 244.124884 
L 241.948968 244.124884 
L 241.948968 243.338966 
L 242.323918 243.338966 
L 242.323918 242.553047 
L 242.696318 242.553047 
L 242.74993 240.98121 
L 243.068225 240.98121 
L 243.068225 240.195292 
L 243.330076 240.195292 
L 243.421125 237.837536 
L 243.50327 237.837536 
L 243.50327 226.048757 
L 243.877031 226.048757 
L 243.958308 224.47692 
L 244.179744 224.47692 
L 244.179744 223.691001 
L 244.425397 223.691001 
L 244.425397 222.905083 
L 244.583348 222.905083 
L 244.583348 222.119164 
L 245.677444 222.119164 
L 245.677444 221.333245 
L 246.016802 221.333245 
L 246.069835 219.761408 
L 246.272362 219.761408 
L 246.272362 218.97549 
L 246.486496 218.97549 
L 246.580261 216.617734 
L 246.624125 216.617734 
L 246.624125 215.831815 
L 247.088631 215.831815 
L 247.15157 214.259978 
L 247.248276 214.259978 
L 247.261164 212.688141 
L 247.722115 212.688141 
L 247.722115 211.902222 
L 248.211916 211.902222 
L 248.292858 208.758548 
L 248.475813 208.758548 
L 248.530363 207.186711 
L 248.94356 207.186711 
L 248.960545 205.614873 
L 249.240935 205.614873 
L 249.328502 204.043036 
L 249.359212 204.043036 
L 249.403818 202.471199 
L 249.48054 202.471199 
L 249.582139 200.113443 
L 249.67007 200.113443 
L 249.67007 199.327525 
L 249.911707 199.327525 
L 249.954662 197.755688 
L 250.396952 197.755688 
L 250.396952 196.969769 
L 251.218863 196.969769 
L 251.31306 195.397932 
L 251.365246 195.397932 
L 251.365246 194.612013 
L 251.530854 194.612013 
L 251.530854 193.826095 
L 251.885573 193.826095 
L 251.885573 193.040176 
L 252.03509 193.040176 
L 252.095177 191.468339 
L 252.438691 191.468339 
L 252.438691 190.68242 
L 252.605734 190.68242 
L 252.611095 189.110583 
L 252.954265 189.110583 
L 252.9852 187.538746 
L 253.127818 187.538746 
L 253.145255 185.966909 
L 253.337327 185.966909 
L 253.337327 185.18099 
L 254.021653 185.18099 
L 254.131422 183.609153 
L 254.139955 183.609153 
L 254.199414 180.465479 
L 254.280703 180.465479 
L 254.322148 178.107723 
L 254.582055 178.107723 
L 254.582055 177.321804 
L 254.841352 177.321804 
L 254.949643 175.749967 
L 255.111923 175.749967 
L 255.120016 174.17813 
L 255.284118 174.17813 
L 255.284118 173.392211 
L 255.42591 173.392211 
L 255.42591 172.606293 
L 255.599592 172.606293 
L 255.599592 171.820374 
L 255.774319 171.820374 
L 255.884458 168.6767 
L 255.925318 168.6767 
L 255.925318 167.890781 
L 256.138054 167.890781 
L 256.138054 167.104862 
L 256.34956 167.104862 
L 256.34956 166.318944 
L 256.701616 166.318944 
L 256.794871 164.747107 
L 256.954124 164.747107 
L 256.954124 163.961188 
L 257.37276 163.961188 
L 257.408521 162.389351 
L 257.570057 162.389351 
L 257.640302 160.031595 
L 257.699906 160.031595 
L 257.808826 155.316084 
L 257.883969 155.316084 
L 257.883969 154.530165 
L 258.306116 154.530165 
L 258.356431 152.958328 
L 258.418493 152.958328 
L 258.418493 152.172409 
L 258.537694 152.172409 
L 258.635333 149.028735 
L 258.70838 149.028735 
L 258.70838 148.242816 
L 259.12475 148.242816 
L 259.12475 141.169549 
L 260.097438 141.169549 
L 260.133404 139.597712 
L 260.261879 139.597712 
L 260.352048 138.025875 
L 260.42614 138.025875 
L 260.42614 137.239956 
L 260.817851 137.239956 
L 260.838412 134.8822 
L 260.930415 134.8822 
L 260.975541 133.310363 
L 261.35362 133.310363 
L 261.388357 131.738526 
L 261.933709 131.738526 
L 261.933709 130.952607 
L 262.16 130.952607 
L 262.26035 129.38077 
L 262.298018 129.38077 
L 262.298018 128.594851 
L 262.569988 128.594851 
L 262.569988 127.808933 
L 262.763079 127.808933 
L 262.832388 126.237096 
L 263.121217 126.237096 
L 263.121217 125.451177 
L 263.285289 125.451177 
L 263.285289 124.665259 
L 263.548234 124.665259 
L 263.548234 123.87934 
L 264.02987 123.87934 
L 264.02987 123.093421 
L 264.159731 123.093421 
L 264.200737 121.521584 
L 264.28404 121.521584 
L 264.28404 120.735666 
L 264.462233 120.735666 
L 264.462233 119.949747 
L 264.627137 119.949747 
L 264.627137 119.163828 
L 264.91717 119.163828 
L 265.002016 116.806073 
L 265.15635 116.806073 
L 265.15635 116.020154 
L 265.384366 116.020154 
L 265.384366 115.234235 
L 265.743084 115.234235 
L 265.743084 114.448317 
L 265.97417 114.448317 
L 266.001249 112.87648 
L 266.81164 112.87648 
L 266.81164 112.090561 
L 267.817397 112.090561 
L 267.817397 111.304642 
L 268.171523 111.304642 
L 268.171523 110.518724 
L 268.371907 110.518724 
L 268.371907 109.732805 
L 268.710985 109.732805 
L 268.748605 108.160968 
L 269.207252 108.160968 
L 269.207252 107.37505 
L 269.364629 107.37505 
L 269.364629 106.589131 
L 269.633192 106.589131 
L 269.633192 105.803212 
L 272.713057 105.803212 
L 272.713057 105.017294 
L 272.994092 105.017294 
L 273.05564 103.445457 
L 274.1727 103.445457 
L 274.207801 101.873619 
L 274.322241 101.873619 
L 274.322241 101.087701 
L 275.163985 101.087701 
L 275.163985 100.301782 
L 276.165535 100.301782 
L 276.165535 99.515864 
L 277.010652 99.515864 
L 277.010652 98.729945 
L 280.175178 98.729945 
L 280.175178 97.944026 
L 280.922299 97.944026 
L 280.922299 97.158108 
L 281.474797 97.158108 
L 281.474797 96.372189 
L 281.795539 96.372189 
L 281.795539 95.586271 
L 283.426286 95.586271 
L 283.426286 94.800352 
L 283.88141 94.800352 
L 283.88141 94.014433 
L 284.102685 94.014433 
L 284.111075 92.442596 
L 285.281386 92.442596 
L 285.281386 91.656678 
L 286.189477 91.656678 
L 286.189477 90.870759 
L 286.694275 90.870759 
L 286.694275 90.08484 
L 287.717097 90.08484 
L 287.717097 89.298922 
L 287.948023 89.298922 
L 287.948023 88.513003 
L 290.396029 88.513003 
L 290.396029 87.727085 
L 293.979806 87.727085 
L 293.979806 86.941166 
L 297.451578 86.941166 
L 297.451578 86.155248 
L 298.573183 86.155248 
L 298.573183 85.369329 
L 299.34511 85.369329 
L 299.34511 84.58341 
L 300.370195 84.58341 
L 300.370195 83.797492 
L 301.580043 83.797492 
L 301.580043 83.011573 
L 302.629204 83.011573 
L 302.629204 82.225655 
L 303.524159 82.225655 
L 303.524159 81.439736 
L 304.299534 81.439736 
L 304.299534 70.436876 
L 305.820854 70.436876 
L 305.820854 69.650957 
L 306.299308 69.650957 
L 306.299308 68.865039 
L 310.381353 68.865039 
L 310.381353 68.07912 
L 311.529091 68.07912 
L 311.529091 67.293201 
L 312.411252 67.293201 
L 312.411252 66.507283 
L 313.810015 66.507283 
L 313.810015 65.721364 
L 315.386506 65.721364 
L 315.486459 64.149527 
L 318.591142 64.149527 
L 318.591142 63.363608 
L 320.635928 63.363608 
L 320.635928 62.57769 
L 321.768985 62.57769 
L 321.768985 61.791771 
L 324.516432 61.791771 
L 324.516432 61.005853 
L 326.075743 61.005853 
L 326.075743 60.219934 
L 329.731563 60.219934 
L 329.731563 59.434015 
L 331.616027 59.434015 
L 331.616027 58.648097 
L 332.15502 58.648097 
L 332.15502 57.862178 
L 333.899138 57.862178 
L 333.899138 57.07626 
L 335.010431 57.07626 
L 335.010431 56.290341 
L 335.944404 56.290341 
L 335.944404 55.504422 
L 336.984156 55.504422 
L 336.984156 54.718504 
L 337.256591 54.718504 
L 337.260533 53.146667 
L 339.42619 53.146667 
L 339.42619 52.360748 
L 341.211798 52.360748 
L 341.211798 51.574829 
L 342.638973 51.574829 
L 342.638973 50.788911 
L 344.308403 50.788911 
L 344.308403 50.002992 
L 345.408124 50.002992 
L 345.408124 49.217074 
L 345.855122 49.217074 
L 345.855122 48.431155 
L 346.00189 48.431155 
L 346.00189 47.645237 
L 348.154998 47.645237 
L 348.154998 46.859318 
L 348.289762 46.859318 
L 348.289762 46.073399 
L 350.76525 46.073399 
L 350.76525 45.287481 
L 351.829849 45.287481 
L 351.829849 44.501562 
L 353.444777 44.501562 
L 353.444777 43.715644 
L 354.051896 43.715644 
L 354.094177 42.143806 
L 357.688496 42.143806 
L 357.688496 41.357888 
L 361.933388 41.357888 
L 361.933388 40.571969 
L 364.569501 40.571969 
L 364.647386 39.000132 
L 365.53882 39.000132 
L 365.53882 38.214213 
L 365.827431 38.214213 
L 365.827431 37.428295 
L 366.709127 37.428295 
L 366.709127 36.642376 
L 367.015077 36.642376 
L 367.015077 35.856458 
L 368.433767 35.856458 
L 368.433767 35.070539 
L 368.847275 35.070539 
L 368.847275 34.28462 
L 369.515044 34.28462 
L 369.515044 33.498702 
L 370.238941 33.498702 
L 370.238941 32.712783 
L 371.216006 32.712783 
L 371.24788 31.140946 
L 373.587173 31.140946 
L 373.587173 30.355028 
L 374.580609 30.355028 
L 374.580609 29.569109 
L 378.06652 29.569109 
L 378.06652 28.78319 
L 378.977352 28.78319 
L 378.977352 27.997272 
L 379.157836 27.997272 
L 379.157836 27.211353 
L 379.667955 27.211353 
L 379.667955 26.425435 
L 380.123062 26.425435 
L 380.123062 25.639516 
L 380.408245 25.639516 
L 380.408245 24.853597 
L 382.717389 24.853597 
L 382.717389 24.067679 
L 383.160199 24.067679 
L 383.160199 23.28176 
L 383.638205 23.28176 
L 383.638205 22.495842 
L 383.761287 22.495842 
L 383.761287 21.709923 
L 384.913057 21.709923 
L 384.913057 20.924004 
L 387.661607 20.924004 
L 387.661607 20.138086 
L 389.205706 20.138086 
L 389.205706 19.352167 
L 390.042256 19.352167 
L 390.042256 18.566249 
L 390.239468 18.566249 
L 390.239468 17.78033 
L 390.585782 17.78033 
L 390.585782 16.994411 
L 391.766107 16.994411 
L 391.792622 15.422574 
L 393.010887 15.422574 
L 393.010887 14.636656 
L 394.751008 14.636656 
L 394.751008 13.850737 
L 399.142253 13.850737 
L 399.142253 13.064818 
L 399.954408 13.064818 
L 399.954408 12.2789 
L 400.397086 12.2789 
L 400.397086 11.492981 
L 404.387234 11.492981 
L 404.387234 10.707063 
L 405.257492 10.707063 
L 405.257492 9.921144 
L 415.474712 9.921144 
L 415.474712 9.135226 
L 421.702509 9.135226 
L 421.702509 8.349307 
L 421.702509 8.349307 
L 450.672 8.349307 
L 450.672 8.349307 
" style="fill:none;stroke:#00bfbf;stroke-linecap:square;stroke-width:1.5;"/>
   </g>
   <g id="line2d_25">
    <path clip-path="url(#p6dda917dbd)" d="M 192.511501 291.28 
L 192.511501 279.491221 
L 214.727665 279.491221 
L 214.727665 278.705303 
L 224.029726 278.705303 
L 224.029726 277.919384 
L 226.702446 277.919384 
L 226.702446 277.133465 
L 226.865464 277.133465 
L 226.865464 276.347547 
L 227.008131 276.347547 
L 227.008131 275.561628 
L 227.37038 275.561628 
L 227.37038 274.77571 
L 227.716128 274.77571 
L 227.716128 273.989791 
L 228.542221 273.989791 
L 228.638517 272.417954 
L 229.147623 272.417954 
L 229.147623 271.632035 
L 229.922066 271.632035 
L 229.928505 270.060198 
L 230.972423 270.060198 
L 230.972423 269.274279 
L 231.381991 269.274279 
L 231.381991 268.488361 
L 231.553937 268.488361 
L 231.553937 267.702442 
L 231.925653 267.702442 
L 231.925653 266.916524 
L 232.12437 266.916524 
L 232.12437 266.130605 
L 232.381435 266.130605 
L 232.381435 265.344686 
L 232.651533 265.344686 
L 232.711628 263.772849 
L 233.45078 263.772849 
L 233.45078 262.986931 
L 233.807693 262.986931 
L 233.807693 262.201012 
L 233.923587 262.201012 
L 234.013417 260.629175 
L 234.076388 260.629175 
L 234.076388 259.843256 
L 234.385652 259.843256 
L 234.385652 259.057338 
L 234.549694 259.057338 
L 234.591202 257.485501 
L 234.665722 257.485501 
L 234.665722 256.699582 
L 235.270362 256.699582 
L 235.270362 255.913663 
L 235.429493 255.913663 
L 235.506083 253.555908 
L 235.710625 253.555908 
L 235.740883 251.98407 
L 235.987455 251.98407 
L 235.987455 251.198152 
L 236.180718 251.198152 
L 236.237483 248.840396 
L 236.585888 248.840396 
L 236.660106 247.268559 
L 237.467311 247.268559 
L 237.467311 246.48264 
L 237.700437 246.48264 
L 237.700437 245.696722 
L 237.997542 245.696722 
L 237.997542 244.910803 
L 238.476873 244.910803 
L 238.569339 243.338966 
L 238.934113 243.338966 
L 238.934113 242.553047 
L 239.115717 242.553047 
L 239.115717 241.767129 
L 239.364976 241.767129 
L 239.364976 240.98121 
L 239.816185 240.98121 
L 239.816185 240.195292 
L 239.960277 240.195292 
L 239.960277 239.409373 
L 240.252843 239.409373 
L 240.30107 237.837536 
L 240.418124 237.837536 
L 240.418124 237.051617 
L 240.590664 237.051617 
L 240.590664 236.265699 
L 240.706052 236.265699 
L 240.801425 233.122024 
L 241.011545 233.122024 
L 241.011545 232.336106 
L 241.489641 232.336106 
L 241.489641 231.550187 
L 241.616117 231.550187 
L 241.70702 229.97835 
L 241.833997 229.97835 
L 241.833997 229.192431 
L 241.948968 229.192431 
L 241.979699 227.620594 
L 242.696318 227.620594 
L 242.751822 225.262838 
L 242.900198 225.262838 
L 242.900198 224.47692 
L 243.330076 224.47692 
L 243.399343 222.905083 
L 243.50327 222.905083 
L 243.590863 210.330385 
L 243.877031 210.330385 
L 243.877031 209.544466 
L 244.050826 209.544466 
L 244.14269 207.972629 
L 244.340248 207.972629 
L 244.425397 206.400792 
L 244.764916 206.400792 
L 244.764916 205.614873 
L 245.067057 205.614873 
L 245.067057 204.828955 
L 245.203351 204.828955 
L 245.203351 204.043036 
L 245.677444 204.043036 
L 245.677444 203.257118 
L 246.016802 203.257118 
L 246.069835 201.685281 
L 246.272362 201.685281 
L 246.272362 200.899362 
L 246.484338 200.899362 
L 246.535312 199.327525 
L 246.624125 199.327525 
L 246.654355 197.755688 
L 246.784871 197.755688 
L 246.784871 196.969769 
L 247.248276 196.969769 
L 247.248276 196.18385 
L 247.418958 196.18385 
L 247.418958 195.397932 
L 247.742566 195.397932 
L 247.742566 194.612013 
L 247.858648 194.612013 
L 247.858648 193.826095 
L 248.058504 193.826095 
L 248.163288 192.254257 
L 248.211916 192.254257 
L 248.292858 189.110583 
L 248.369417 189.110583 
L 248.475813 187.538746 
L 248.698128 187.538746 
L 248.698128 186.752827 
L 248.94356 186.752827 
L 248.960545 185.18099 
L 249.063577 185.18099 
L 249.063577 184.395072 
L 249.240935 184.395072 
L 249.240935 183.609153 
L 249.403818 183.609153 
L 249.491388 181.251397 
L 249.528041 181.251397 
L 249.528041 180.465479 
L 249.67007 180.465479 
L 249.67007 179.67956 
L 249.806382 179.67956 
L 249.911707 178.107723 
L 250.103164 178.107723 
L 250.103164 177.321804 
L 251.155684 177.321804 
L 251.162279 175.749967 
L 251.365246 175.749967 
L 251.38221 173.392211 
L 252.095177 173.392211 
L 252.119746 171.820374 
L 252.374923 171.820374 
L 252.438691 169.462618 
L 252.845442 169.462618 
L 252.954265 167.890781 
L 253.127818 167.890781 
L 253.145255 166.318944 
L 253.688704 166.318944 
L 253.688704 165.533025 
L 253.959886 165.533025 
L 254.070141 162.389351 
L 254.079735 162.389351 
L 254.168528 159.245677 
L 254.287169 159.245677 
L 254.288234 157.673839 
L 254.40991 157.673839 
L 254.40991 156.887921 
L 254.841352 156.887921 
L 254.841352 156.102002 
L 255.169033 156.102002 
L 255.23 154.530165 
L 255.29042 154.530165 
L 255.29042 153.744246 
L 255.42591 153.744246 
L 255.42591 152.958328 
L 255.621572 152.958328 
L 255.675941 151.386491 
L 255.774319 151.386491 
L 255.785675 149.814653 
L 255.935218 149.814653 
L 255.935218 149.028735 
L 256.138054 149.028735 
L 256.138054 148.242816 
L 256.34956 148.242816 
L 256.34956 147.456898 
L 256.701616 147.456898 
L 256.792456 145.885061 
L 257.204761 145.885061 
L 257.204761 145.099142 
L 257.342066 145.099142 
L 257.408521 142.741386 
L 257.570057 142.741386 
L 257.640302 140.38363 
L 257.723006 140.38363 
L 257.757468 138.811793 
L 257.883969 138.811793 
L 257.883969 138.025875 
L 258.597336 138.025875 
L 258.70838 136.454037 
L 260.097438 136.454037 
L 260.133404 134.8822 
L 260.261879 134.8822 
L 260.261879 134.096282 
L 260.400672 134.096282 
L 260.42614 132.524444 
L 260.817851 132.524444 
L 260.909735 128.594851 
L 260.930415 128.594851 
L 260.975541 127.023014 
L 261.35362 127.023014 
L 261.388357 125.451177 
L 261.681829 125.451177 
L 261.681829 124.665259 
L 262.26035 124.665259 
L 262.298018 123.093421 
L 262.569988 123.093421 
L 262.569988 122.307503 
L 262.763079 122.307503 
L 262.832388 120.735666 
L 263.121217 120.735666 
L 263.121217 119.949747 
L 263.285289 119.949747 
L 263.288238 118.37791 
L 263.65054 118.37791 
L 263.714391 116.806073 
L 264.094971 116.806073 
L 264.200737 114.448317 
L 264.28404 114.448317 
L 264.28404 113.662398 
L 264.462233 113.662398 
L 264.462233 112.87648 
L 264.91717 112.87648 
L 264.91717 112.090561 
L 265.15635 112.090561 
L 265.241763 110.518724 
L 265.384366 110.518724 
L 265.384366 109.732805 
L 265.743084 109.732805 
L 265.743084 108.946887 
L 265.930083 108.946887 
L 266.001249 107.37505 
L 266.670607 107.37505 
L 266.670607 106.589131 
L 266.81164 106.589131 
L 266.81164 105.803212 
L 266.947225 105.803212 
L 266.947225 105.017294 
L 267.817397 105.017294 
L 267.817397 104.231375 
L 268.171523 104.231375 
L 268.171523 103.445457 
L 268.710985 103.445457 
L 268.710985 102.659538 
L 269.633192 102.659538 
L 269.633192 101.873619 
L 272.071026 101.873619 
L 272.071026 101.087701 
L 272.713057 101.087701 
L 272.713057 100.301782 
L 272.994092 100.301782 
L 272.994092 99.515864 
L 273.98778 99.515864 
L 273.98778 98.729945 
L 274.971184 98.729945 
L 274.971184 97.944026 
L 276.165535 97.944026 
L 276.165535 97.158108 
L 276.431268 97.158108 
L 276.431268 96.372189 
L 277.010652 96.372189 
L 277.010652 95.586271 
L 277.57327 95.586271 
L 277.57327 94.800352 
L 279.721341 94.800352 
L 279.721341 94.014433 
L 280.266062 94.014433 
L 280.266062 93.228515 
L 280.59703 93.228515 
L 280.59703 92.442596 
L 280.922299 92.442596 
L 280.922299 91.656678 
L 281.474797 91.656678 
L 281.474797 90.870759 
L 281.795539 90.870759 
L 281.795539 90.08484 
L 282.182138 90.08484 
L 282.182138 89.298922 
L 282.604 89.298922 
L 282.604 88.513003 
L 283.834034 88.513003 
L 283.88141 86.941166 
L 284.111075 86.941166 
L 284.111075 86.155248 
L 284.27379 86.155248 
L 284.27379 85.369329 
L 285.02339 85.369329 
L 285.041404 83.797492 
L 286.694275 83.797492 
L 286.694275 83.011573 
L 290.814701 83.011573 
L 290.814701 82.225655 
L 291.383057 82.225655 
L 291.383057 81.439736 
L 292.432716 81.439736 
L 292.432716 80.653817 
L 293.442243 80.653817 
L 293.442243 79.867899 
L 293.979806 79.867899 
L 293.979806 79.08198 
L 296.045547 79.08198 
L 296.045547 78.296062 
L 297.446131 78.296062 
L 297.451578 76.724224 
L 300.370195 76.724224 
L 300.370195 75.938306 
L 301.457891 75.938306 
L 301.457891 75.152387 
L 302.629204 75.152387 
L 302.629204 74.366469 
L 303.468481 74.366469 
L 303.524159 72.794631 
L 304.299534 72.794631 
L 304.299534 65.721364 
L 305.83414 65.721364 
L 305.83414 64.935446 
L 310.11152 64.935446 
L 310.11152 64.149527 
L 311.529091 64.149527 
L 311.529091 63.363608 
L 312.292922 63.363608 
L 312.292922 62.57769 
L 312.411252 62.57769 
L 312.411252 61.791771 
L 313.810015 61.791771 
L 313.810015 61.005853 
L 315.386506 61.005853 
L 315.486459 58.648097 
L 317.561137 58.648097 
L 317.561137 57.862178 
L 318.591142 57.862178 
L 318.591142 57.07626 
L 320.635928 57.07626 
L 320.635928 56.290341 
L 321.21107 56.290341 
L 321.21107 55.504422 
L 324.516432 55.504422 
L 324.516432 54.718504 
L 326.075743 54.718504 
L 326.075743 53.932585 
L 326.832791 53.932585 
L 326.832791 53.146667 
L 328.192348 53.146667 
L 328.192348 52.360748 
L 329.731563 52.360748 
L 329.731563 51.574829 
L 331.616027 51.574829 
L 331.616027 50.788911 
L 333.899138 50.788911 
L 333.899138 50.002992 
L 334.931735 50.002992 
L 335.010431 48.431155 
L 337.260533 48.431155 
L 337.260533 47.645237 
L 341.203627 47.645237 
L 341.203627 46.859318 
L 342.316719 46.859318 
L 342.316719 46.073399 
L 342.638973 46.073399 
L 342.638973 45.287481 
L 343.609403 45.287481 
L 343.609403 44.501562 
L 344.201022 44.501562 
L 344.201022 43.715644 
L 345.762448 43.715644 
L 345.762448 42.929725 
L 346.00189 42.929725 
L 346.00189 42.143806 
L 346.171503 42.143806 
L 346.171503 41.357888 
L 347.434749 41.357888 
L 347.434749 40.571969 
L 348.154998 40.571969 
L 348.154998 39.786051 
L 348.289762 39.786051 
L 348.289762 39.000132 
L 349.992915 39.000132 
L 349.992915 38.214213 
L 350.135512 38.214213 
L 350.135512 37.428295 
L 350.76525 37.428295 
L 350.76525 36.642376 
L 353.148828 36.642376 
L 353.148828 35.856458 
L 354.051896 35.856458 
L 354.094177 34.28462 
L 355.851125 34.28462 
L 355.851125 33.498702 
L 356.967592 33.498702 
L 356.967592 32.712783 
L 361.087129 32.712783 
L 361.087129 31.926865 
L 362.745829 31.926865 
L 362.770214 30.355028 
L 364.569501 30.355028 
L 364.569501 29.569109 
L 366.086615 29.569109 
L 366.086615 28.78319 
L 367.541362 28.78319 
L 367.541362 27.997272 
L 368.044061 27.997272 
L 368.044061 27.211353 
L 370.444585 27.211353 
L 370.444585 26.425435 
L 370.615612 26.425435 
L 370.615612 25.639516 
L 371.634161 25.639516 
L 371.634161 24.853597 
L 374.580609 24.853597 
L 374.580609 24.067679 
L 374.697291 24.067679 
L 374.697291 23.28176 
L 376.289862 23.28176 
L 376.289862 22.495842 
L 376.661149 22.495842 
L 376.661149 21.709923 
L 378.977352 21.709923 
L 378.977352 20.924004 
L 381.504089 20.924004 
L 381.504089 20.138086 
L 382.717389 20.138086 
L 382.717389 19.352167 
L 383.761287 19.352167 
L 383.767702 17.78033 
L 384.913057 17.78033 
L 384.913057 16.994411 
L 387.661607 16.994411 
L 387.661607 16.208493 
L 390.042256 16.208493 
L 390.121911 14.636656 
L 391.934363 14.636656 
L 391.934363 13.850737 
L 394.477867 13.850737 
L 394.477867 13.064818 
L 395.995209 13.064818 
L 395.995209 12.2789 
L 399.142253 12.2789 
L 399.142253 11.492981 
L 399.954408 11.492981 
L 399.954408 10.707063 
L 400.397086 10.707063 
L 400.397086 9.921144 
L 413.383959 9.921144 
L 413.383959 9.135226 
L 416.926977 9.135226 
L 416.926977 8.349307 
L 416.926977 8.349307 
L 450.672 8.349307 
L 450.672 8.349307 
" style="fill:none;stroke:#bf00bf;stroke-linecap:square;stroke-width:1.5;"/>
   </g>
   <g id="line2d_26">
    <path clip-path="url(#p6dda917dbd)" d="M 192.511501 291.28 
L 192.511501 279.491221 
L 214.727665 279.491221 
L 214.727665 278.705303 
L 220.818468 278.705303 
L 220.818468 277.919384 
L 223.075717 277.919384 
L 223.075717 277.133465 
L 224.029726 277.133465 
L 224.029726 276.347547 
L 224.556303 276.347547 
L 224.556303 275.561628 
L 225.564636 275.561628 
L 225.564636 274.77571 
L 226.003067 274.77571 
L 226.003067 273.989791 
L 226.247227 273.989791 
L 226.247227 273.203872 
L 226.702446 273.203872 
L 226.702446 272.417954 
L 226.865464 272.417954 
L 226.865464 271.632035 
L 227.008131 271.632035 
L 227.008131 270.846117 
L 227.291361 270.846117 
L 227.37038 269.274279 
L 227.431844 269.274279 
L 227.431844 268.488361 
L 227.716128 268.488361 
L 227.716128 267.702442 
L 227.985541 267.702442 
L 227.985541 266.916524 
L 228.542221 266.916524 
L 228.638517 265.344686 
L 228.676301 265.344686 
L 228.676301 264.558768 
L 228.818991 264.558768 
L 228.818991 263.772849 
L 229.061719 263.772849 
L 229.147623 261.415094 
L 229.206713 261.415094 
L 229.206713 260.629175 
L 229.579765 260.629175 
L 229.579765 259.843256 
L 229.799425 259.843256 
L 229.799425 259.057338 
L 229.92357 259.057338 
L 229.943482 256.699582 
L 230.505217 256.699582 
L 230.505217 255.913663 
L 230.7533 255.913663 
L 230.7533 255.127745 
L 230.972423 255.127745 
L 230.984302 252.769989 
L 231.314724 252.769989 
L 231.381991 251.198152 
L 231.553937 251.198152 
L 231.572849 249.626315 
L 231.973654 249.626315 
L 231.973654 248.840396 
L 232.12437 248.840396 
L 232.12437 248.054477 
L 232.388529 248.054477 
L 232.388529 247.268559 
L 232.711628 247.268559 
L 232.711628 246.48264 
L 233.45078 246.48264 
L 233.45078 245.696722 
L 233.701389 245.696722 
L 233.807693 244.124884 
L 233.893001 244.124884 
L 233.936679 242.553047 
L 234.385652 242.553047 
L 234.385652 241.767129 
L 235.604723 241.767129 
L 235.604723 240.98121 
L 235.740883 240.98121 
L 235.740883 240.195292 
L 235.873365 240.195292 
L 235.873365 239.409373 
L 235.987455 239.409373 
L 235.987455 238.623454 
L 236.180718 238.623454 
L 236.237483 236.265699 
L 236.585888 236.265699 
L 236.585888 235.47978 
L 237.467311 235.47978 
L 237.467311 234.693861 
L 238.717556 234.693861 
L 238.717556 233.907943 
L 239.115717 233.907943 
L 239.115717 233.122024 
L 239.277998 233.122024 
L 239.364976 231.550187 
L 239.543602 231.550187 
L 239.637292 229.97835 
L 239.816185 229.97835 
L 239.816185 229.192431 
L 239.996843 229.192431 
L 239.996843 228.406513 
L 240.135387 228.406513 
L 240.135387 227.620594 
L 240.252843 227.620594 
L 240.26007 226.048757 
L 240.418124 226.048757 
L 240.418124 225.262838 
L 240.590664 225.262838 
L 240.597289 223.691001 
L 240.706052 223.691001 
L 240.810505 219.761408 
L 241.011545 219.761408 
L 241.011545 218.97549 
L 241.489641 218.97549 
L 241.489641 218.189571 
L 241.70702 218.189571 
L 241.70702 217.403652 
L 241.833997 217.403652 
L 241.833997 216.617734 
L 241.948968 216.617734 
L 241.948968 215.831815 
L 242.51718 215.831815 
L 242.51718 215.045897 
L 242.74993 215.045897 
L 242.751822 213.474059 
L 243.50327 213.474059 
L 243.599096 199.327525 
L 244.050826 199.327525 
L 244.14269 197.755688 
L 244.162353 197.755688 
L 244.252458 195.397932 
L 244.340248 195.397932 
L 244.365805 193.040176 
L 244.676386 193.040176 
L 244.764916 191.468339 
L 245.203351 191.468339 
L 245.203351 190.68242 
L 245.432437 190.68242 
L 245.432437 189.896502 
L 245.677444 189.896502 
L 245.750548 188.324664 
L 245.934506 188.324664 
L 246.016802 186.752827 
L 246.484338 186.752827 
L 246.484338 185.966909 
L 246.617306 185.966909 
L 246.684484 183.609153 
L 246.746737 183.609153 
L 246.784871 182.037316 
L 247.278909 182.037316 
L 247.379454 179.67956 
L 247.418958 179.67956 
L 247.418958 178.893641 
L 247.624524 178.893641 
L 247.698054 177.321804 
L 247.858648 177.321804 
L 247.858648 176.535886 
L 248.058504 176.535886 
L 248.163288 174.17813 
L 248.211916 174.17813 
L 248.292858 171.820374 
L 248.369417 171.820374 
L 248.369417 171.034455 
L 248.698128 171.034455 
L 248.698128 170.248537 
L 248.960545 170.248537 
L 248.960545 169.462618 
L 249.273863 169.462618 
L 249.273863 168.6767 
L 249.403818 168.6767 
L 249.403818 167.890781 
L 249.528041 167.890781 
L 249.528041 167.104862 
L 249.67007 167.104862 
L 249.67007 166.318944 
L 249.856696 166.318944 
L 249.856696 165.533025 
L 250.103164 165.533025 
L 250.103164 164.747107 
L 250.533196 164.747107 
L 250.533196 163.961188 
L 251.155684 163.961188 
L 251.162279 162.389351 
L 251.288943 162.389351 
L 251.397114 159.245677 
L 252.007509 159.245677 
L 252.095177 156.887921 
L 252.298036 156.887921 
L 252.298036 156.102002 
L 252.438691 156.102002 
L 252.438691 155.316084 
L 253.145255 155.316084 
L 253.145255 154.530165 
L 253.267268 154.530165 
L 253.267268 153.744246 
L 253.45108 153.744246 
L 253.45108 152.958328 
L 253.643947 152.958328 
L 253.702497 150.600572 
L 253.935856 150.600572 
L 253.992831 149.028735 
L 254.070141 149.028735 
L 254.168528 145.099142 
L 254.216753 145.099142 
L 254.216753 144.313223 
L 254.457916 144.313223 
L 254.457916 143.527305 
L 254.820298 143.527305 
L 254.820298 142.741386 
L 254.97437 142.741386 
L 254.97437 141.955468 
L 255.140113 141.955468 
L 255.140113 141.169549 
L 255.29042 141.169549 
L 255.379338 138.811793 
L 255.42591 138.811793 
L 255.42591 138.025875 
L 255.621572 138.025875 
L 255.714281 134.096282 
L 255.785675 134.096282 
L 255.785675 133.310363 
L 256.155991 133.310363 
L 256.155991 132.524444 
L 256.299876 132.524444 
L 256.34956 130.166689 
L 256.419183 130.166689 
L 256.479468 128.594851 
L 256.886715 128.594851 
L 256.886715 127.808933 
L 257.640302 127.808933 
L 257.640302 127.023014 
L 258.597336 127.023014 
L 258.70838 125.451177 
L 259.013551 125.451177 
L 259.013551 124.665259 
L 259.60294 124.665259 
L 259.60294 123.87934 
L 260.133404 123.87934 
L 260.142735 122.307503 
L 260.261879 122.307503 
L 260.261879 121.521584 
L 260.42614 121.521584 
L 260.42614 120.735666 
L 260.817851 120.735666 
L 260.838412 118.37791 
L 261.221098 118.37791 
L 261.242002 116.806073 
L 261.388357 116.806073 
L 261.388357 116.020154 
L 261.681829 116.020154 
L 261.759505 112.87648 
L 262.298018 112.87648 
L 262.298018 112.090561 
L 262.434737 112.090561 
L 262.434737 111.304642 
L 262.763079 111.304642 
L 262.763079 110.518724 
L 263.121217 110.518724 
L 263.121217 109.732805 
L 263.288238 109.732805 
L 263.288238 108.946887 
L 263.524657 108.946887 
L 263.524657 108.160968 
L 263.714391 108.160968 
L 263.714391 107.37505 
L 263.859612 107.37505 
L 263.859612 106.589131 
L 264.094971 106.589131 
L 264.200737 104.231375 
L 264.28404 104.231375 
L 264.28404 103.445457 
L 264.91717 103.445457 
L 264.91717 102.659538 
L 265.743084 102.659538 
L 265.743084 101.873619 
L 266.670607 101.873619 
L 266.670607 101.087701 
L 267.817397 101.087701 
L 267.817397 100.301782 
L 268.171523 100.301782 
L 268.21037 98.729945 
L 268.710985 98.729945 
L 268.710985 97.944026 
L 270.850026 97.944026 
L 270.850026 97.158108 
L 272.713057 97.158108 
L 272.713057 96.372189 
L 272.994092 96.372189 
L 272.994092 95.586271 
L 276.128473 95.586271 
L 276.165535 94.014433 
L 276.431268 94.014433 
L 276.534798 92.442596 
L 277.010652 92.442596 
L 277.010652 91.656678 
L 277.57327 91.656678 
L 277.57327 90.870759 
L 278.057277 90.870759 
L 278.057277 90.08484 
L 278.919917 90.08484 
L 278.919917 89.298922 
L 279.448202 89.298922 
L 279.448202 88.513003 
L 279.721341 88.513003 
L 279.721341 87.727085 
L 280.266062 87.727085 
L 280.266062 86.941166 
L 280.59703 86.941166 
L 280.59703 86.155248 
L 280.922299 86.155248 
L 280.922299 85.369329 
L 281.474797 85.369329 
L 281.474797 84.58341 
L 282.604 84.58341 
L 282.604 83.797492 
L 283.411675 83.797492 
L 283.411675 83.011573 
L 283.834034 83.011573 
L 283.834034 82.225655 
L 285.02339 82.225655 
L 285.041404 80.653817 
L 285.153656 80.653817 
L 285.153656 79.867899 
L 286.694275 79.867899 
L 286.694275 79.08198 
L 291.084734 79.08198 
L 291.084734 78.296062 
L 291.383057 78.296062 
L 291.383057 77.510143 
L 292.432716 77.510143 
L 292.432716 76.724224 
L 293.442243 76.724224 
L 293.442243 75.938306 
L 293.811207 75.938306 
L 293.811207 75.152387 
L 293.979806 75.152387 
L 293.979806 74.366469 
L 296.045547 74.366469 
L 296.045547 73.58055 
L 296.228786 73.58055 
L 296.228786 72.794631 
L 296.839549 72.794631 
L 296.839549 72.008713 
L 297.451578 72.008713 
L 297.451578 71.222794 
L 299.369932 71.222794 
L 299.369932 70.436876 
L 299.490021 70.436876 
L 299.490021 69.650957 
L 300.160529 69.650957 
L 300.160529 68.865039 
L 300.370195 68.865039 
L 300.370195 68.07912 
L 301.332446 68.07912 
L 301.332446 67.293201 
L 301.457891 67.293201 
L 301.457891 66.507283 
L 301.579559 66.507283 
L 301.579559 65.721364 
L 302.528555 65.721364 
L 302.528555 64.935446 
L 302.958094 64.935446 
L 303.035633 63.363608 
L 303.468481 63.363608 
L 303.468481 62.57769 
L 304.299534 62.57769 
L 304.299534 59.434015 
L 305.83414 59.434015 
L 305.83414 58.648097 
L 311.529091 58.648097 
L 311.529091 57.862178 
L 312.292922 57.862178 
L 312.292922 57.07626 
L 312.411252 57.07626 
L 312.411252 56.290341 
L 313.810015 56.290341 
L 313.810015 55.504422 
L 315.44211 55.504422 
L 315.44211 54.718504 
L 317.561137 54.718504 
L 317.561137 53.932585 
L 319.82469 53.932585 
L 319.82469 53.146667 
L 320.635928 53.146667 
L 320.635928 52.360748 
L 321.21107 52.360748 
L 321.21107 51.574829 
L 322.565403 51.574829 
L 322.565403 50.788911 
L 326.075743 50.788911 
L 326.075743 50.002992 
L 326.832791 50.002992 
L 326.832791 49.217074 
L 327.772399 49.217074 
L 327.772399 48.431155 
L 328.192348 48.431155 
L 328.192348 47.645237 
L 331.201526 47.645237 
L 331.201526 46.859318 
L 332.097069 46.859318 
L 332.097069 46.073399 
L 333.972576 46.073399 
L 333.972576 45.287481 
L 334.931735 45.287481 
L 335.010431 43.715644 
L 336.052448 43.715644 
L 336.052448 42.929725 
L 337.045137 42.929725 
L 337.045137 42.143806 
L 337.653902 42.143806 
L 337.653902 41.357888 
L 338.761016 41.357888 
L 338.761016 40.571969 
L 342.316719 40.571969 
L 342.316719 39.786051 
L 342.638973 39.786051 
L 342.638973 39.000132 
L 343.038902 39.000132 
L 343.11112 37.428295 
L 343.609403 37.428295 
L 343.609403 36.642376 
L 344.201022 36.642376 
L 344.201022 35.856458 
L 344.328317 35.856458 
L 344.328317 35.070539 
L 344.497457 35.070539 
L 344.497457 34.28462 
L 345.508657 34.28462 
L 345.508657 33.498702 
L 346.509169 33.498702 
L 346.509169 32.712783 
L 347.369701 32.712783 
L 347.434749 31.140946 
L 348.154998 31.140946 
L 348.154998 30.355028 
L 348.289762 30.355028 
L 348.289762 29.569109 
L 350.76525 29.569109 
L 350.76525 28.78319 
L 351.279227 28.78319 
L 351.279227 27.997272 
L 351.780252 27.997272 
L 351.780252 27.211353 
L 352.898961 27.211353 
L 352.898961 26.425435 
L 353.148828 26.425435 
L 353.148828 25.639516 
L 355.851125 25.639516 
L 355.851125 24.853597 
L 357.095547 24.853597 
L 357.095547 24.067679 
L 357.507907 24.067679 
L 357.507907 23.28176 
L 359.240924 23.28176 
L 359.240924 22.495842 
L 362.182023 22.495842 
L 362.182023 21.709923 
L 362.745829 21.709923 
L 362.745829 20.924004 
L 364.437781 20.924004 
L 364.437781 20.138086 
L 376.289862 20.138086 
L 376.289862 19.352167 
L 378.977352 19.352167 
L 378.977352 18.566249 
L 383.761287 18.566249 
L 383.767702 16.994411 
L 384.557914 16.994411 
L 384.557914 16.208493 
L 384.913057 16.208493 
L 384.913057 15.422574 
L 387.165311 15.422574 
L 387.165311 14.636656 
L 390.020366 14.636656 
L 390.121911 12.2789 
L 394.06 12.2789 
L 394.06 11.492981 
L 394.477867 11.492981 
L 394.501083 9.921144 
L 398.653078 9.921144 
L 398.653078 9.135226 
L 408.078363 9.135226 
L 408.078363 8.349307 
L 408.078363 8.349307 
L 450.672 8.349307 
L 450.672 8.349307 
" style="fill:none;stroke:#000000;stroke-linecap:square;stroke-width:1.5;"/>
   </g>
   <g id="line2d_27">
    <path clip-path="url(#p6dda917dbd)" d="M 192.511501 291.28 
L 192.511501 279.491221 
L 214.727665 279.491221 
L 214.727665 278.705303 
L 219.01572 278.705303 
L 219.01572 277.919384 
L 219.264212 277.919384 
L 219.34667 276.347547 
L 219.462835 276.347547 
L 219.462835 275.561628 
L 220.282416 275.561628 
L 220.282416 274.77571 
L 220.606951 274.77571 
L 220.6773 273.203872 
L 220.818468 273.203872 
L 220.88072 271.632035 
L 221.847889 271.632035 
L 221.847889 270.846117 
L 222.043806 270.846117 
L 222.043806 270.060198 
L 222.193201 270.060198 
L 222.248544 268.488361 
L 222.906733 268.488361 
L 222.906733 267.702442 
L 223.473149 267.702442 
L 223.473149 266.916524 
L 224.029726 266.916524 
L 224.029726 266.130605 
L 224.363248 266.130605 
L 224.363248 265.344686 
L 224.97239 265.344686 
L 224.97239 264.558768 
L 225.373218 264.558768 
L 225.373218 263.772849 
L 225.487631 263.772849 
L 225.487631 262.986931 
L 225.624714 262.986931 
L 225.624714 262.201012 
L 225.75528 262.201012 
L 225.75528 261.415094 
L 225.884037 261.415094 
L 225.884037 260.629175 
L 226.348129 260.629175 
L 226.348129 259.843256 
L 226.462565 259.843256 
L 226.462565 259.057338 
L 226.804766 259.057338 
L 226.865464 257.485501 
L 226.920078 257.485501 
L 227.008867 255.127745 
L 227.291361 255.127745 
L 227.291361 254.341826 
L 227.431844 254.341826 
L 227.431844 253.555908 
L 228.542221 253.555908 
L 228.542221 252.769989 
L 228.676301 252.769989 
L 228.765628 250.412233 
L 228.818991 250.412233 
L 228.865243 248.840396 
L 229.206713 248.840396 
L 229.279308 247.268559 
L 229.388587 247.268559 
L 229.388587 246.48264 
L 229.661122 246.48264 
L 229.691925 244.910803 
L 229.799425 244.910803 
L 229.872372 243.338966 
L 229.926752 243.338966 
L 229.928505 241.767129 
L 230.7533 241.767129 
L 230.7533 240.98121 
L 230.972423 240.98121 
L 230.982054 239.409373 
L 231.381991 239.409373 
L 231.381991 238.623454 
L 231.530267 238.623454 
L 231.572849 236.265699 
L 231.973654 236.265699 
L 231.973654 235.47978 
L 232.113504 235.47978 
L 232.12437 233.907943 
L 232.482436 233.907943 
L 232.482436 233.122024 
L 232.823597 233.122024 
L 232.823597 232.336106 
L 232.982583 232.336106 
L 232.982583 231.550187 
L 233.198838 231.550187 
L 233.226048 229.97835 
L 233.893001 229.97835 
L 233.893001 229.192431 
L 234.131391 229.192431 
L 234.131391 228.406513 
L 234.611485 228.406513 
L 234.629963 226.834675 
L 235.604723 226.834675 
L 235.604723 226.048757 
L 235.843251 226.048757 
L 235.913883 224.47692 
L 235.987455 224.47692 
L 236.009535 222.905083 
L 236.189163 222.905083 
L 236.237483 220.547327 
L 236.372998 220.547327 
L 236.409518 218.97549 
L 236.585888 218.97549 
L 236.585888 218.189571 
L 236.801034 218.189571 
L 236.806271 216.617734 
L 237.346293 216.617734 
L 237.346293 215.831815 
L 237.467311 215.831815 
L 237.467311 215.045897 
L 237.585881 215.045897 
L 237.676058 213.474059 
L 238.20039 213.474059 
L 238.20039 212.688141 
L 238.529719 212.688141 
L 238.529719 211.902222 
L 238.700098 211.902222 
L 238.700098 211.116304 
L 238.815035 211.116304 
L 238.815035 210.330385 
L 238.973768 210.330385 
L 238.973768 209.544466 
L 239.103376 209.544466 
L 239.115717 207.972629 
L 239.277998 207.972629 
L 239.364976 206.400792 
L 239.513895 206.400792 
L 239.619406 204.828955 
L 239.637292 204.828955 
L 239.637292 204.043036 
L 240.242307 204.043036 
L 240.26007 201.685281 
L 240.397628 201.685281 
L 240.397628 200.899362 
L 240.725837 200.899362 
L 240.780291 199.327525 
L 240.996495 199.327525 
L 241.051844 196.969769 
L 241.261972 196.969769 
L 241.261972 196.18385 
L 241.70702 196.18385 
L 241.70702 195.397932 
L 241.934211 195.397932 
L 241.934211 194.612013 
L 242.357982 194.612013 
L 242.357982 193.826095 
L 242.607616 193.826095 
L 242.607616 193.040176 
L 242.751822 193.040176 
L 242.751822 192.254257 
L 243.50327 192.254257 
L 243.50327 180.465479 
L 244.14269 180.465479 
L 244.252458 178.893641 
L 244.307182 178.893641 
L 244.365805 177.321804 
L 244.632044 177.321804 
L 244.724589 174.964048 
L 244.976671 174.964048 
L 244.976671 174.17813 
L 245.392572 174.17813 
L 245.486261 172.606293 
L 245.682164 172.606293 
L 245.682164 171.820374 
L 246.016802 171.820374 
L 246.016802 171.034455 
L 246.409752 171.034455 
L 246.484338 169.462618 
L 246.741876 169.462618 
L 246.746737 167.890781 
L 246.886907 167.890781 
L 246.886907 167.104862 
L 247.121568 167.104862 
L 247.189128 165.533025 
L 247.278909 165.533025 
L 247.309414 163.961188 
L 247.624524 163.961188 
L 247.624524 163.17527 
L 247.783607 163.17527 
L 247.858648 161.603432 
L 247.956861 161.603432 
L 247.956861 160.817514 
L 248.102513 160.817514 
L 248.211916 159.245677 
L 248.284091 159.245677 
L 248.369417 156.887921 
L 248.591941 156.887921 
L 248.632368 155.316084 
L 248.78792 155.316084 
L 248.78792 154.530165 
L 249.015068 154.530165 
L 249.015068 153.744246 
L 249.280245 153.744246 
L 249.316266 152.172409 
L 249.403818 152.172409 
L 249.403818 151.386491 
L 249.528041 151.386491 
L 249.528041 150.600572 
L 249.667473 150.600572 
L 249.762934 148.242816 
L 250.123583 148.242816 
L 250.123583 147.456898 
L 250.327273 147.456898 
L 250.327273 146.670979 
L 250.533196 146.670979 
L 250.533196 145.885061 
L 250.676853 145.885061 
L 250.676853 145.099142 
L 251.38221 145.099142 
L 251.38221 144.313223 
L 251.781009 144.313223 
L 251.781009 143.527305 
L 252.007509 143.527305 
L 252.095177 141.955468 
L 252.326296 141.955468 
L 252.326296 141.169549 
L 252.438691 141.169549 
L 252.438691 140.38363 
L 252.819948 140.38363 
L 252.819948 139.597712 
L 252.951425 139.597712 
L 252.951425 138.811793 
L 253.267268 138.811793 
L 253.267268 138.025875 
L 253.670145 138.025875 
L 253.702497 136.454037 
L 253.935856 136.454037 
L 253.949693 134.8822 
L 254.088966 134.8822 
L 254.138485 133.310363 
L 254.216753 133.310363 
L 254.216753 132.524444 
L 254.457916 132.524444 
L 254.541932 130.952607 
L 254.68755 130.952607 
L 254.68755 130.166689 
L 254.805928 130.166689 
L 254.882052 126.237096 
L 254.97437 126.237096 
L 254.97437 125.451177 
L 255.148533 125.451177 
L 255.148533 124.665259 
L 255.292736 124.665259 
L 255.292736 123.87934 
L 255.42591 123.87934 
L 255.42591 123.093421 
L 255.629554 123.093421 
L 255.636024 121.521584 
L 255.80055 121.521584 
L 255.80055 120.735666 
L 256.396489 120.735666 
L 256.479468 117.591991 
L 256.70485 117.591991 
L 256.70485 116.806073 
L 257.573685 116.806073 
L 257.640302 115.234235 
L 258.065563 115.234235 
L 258.067422 113.662398 
L 258.223975 113.662398 
L 258.223975 112.87648 
L 258.597028 112.87648 
L 258.597336 111.304642 
L 258.813574 111.304642 
L 258.873896 109.732805 
L 259.355212 109.732805 
L 259.412929 108.160968 
L 259.60294 108.160968 
L 259.620269 106.589131 
L 259.760565 106.589131 
L 259.849132 104.231375 
L 259.913194 104.231375 
L 259.913194 103.445457 
L 260.129264 103.445457 
L 260.129264 102.659538 
L 260.261879 102.659538 
L 260.261879 101.873619 
L 260.42614 101.873619 
L 260.506596 100.301782 
L 260.844469 100.301782 
L 260.844469 99.515864 
L 261.575153 99.515864 
L 261.677646 97.944026 
L 261.698601 97.944026 
L 261.698601 97.158108 
L 262.434737 97.158108 
L 262.434737 96.372189 
L 263.396868 96.372189 
L 263.438827 94.800352 
L 264.91717 94.800352 
L 264.91717 94.014433 
L 265.150053 94.014433 
L 265.150053 93.228515 
L 265.283469 93.228515 
L 265.283469 92.442596 
L 270.850026 92.442596 
L 270.850026 91.656678 
L 271.039722 91.656678 
L 271.039722 90.870759 
L 271.189282 90.870759 
L 271.189282 90.08484 
L 271.360244 90.08484 
L 271.360244 89.298922 
L 272.713057 89.298922 
L 272.781577 87.727085 
L 273.274194 87.727085 
L 273.274194 86.941166 
L 273.699819 86.941166 
L 273.699819 86.155248 
L 273.904982 86.155248 
L 273.904982 85.369329 
L 276.128473 85.369329 
L 276.165535 83.797492 
L 276.394244 83.797492 
L 276.394244 83.011573 
L 276.534798 83.011573 
L 276.534798 82.225655 
L 276.927968 82.225655 
L 276.927968 81.439736 
L 277.065485 81.439736 
L 277.065485 80.653817 
L 277.212391 80.653817 
L 277.212391 79.867899 
L 277.633055 79.867899 
L 277.633055 79.08198 
L 278.610081 79.08198 
L 278.610081 78.296062 
L 279.247743 78.296062 
L 279.313785 76.724224 
L 280.266062 76.724224 
L 280.266062 75.938306 
L 281.474797 75.938306 
L 281.474797 75.152387 
L 283.677847 75.152387 
L 283.677847 74.366469 
L 284.131407 74.366469 
L 284.201283 72.794631 
L 284.540001 72.794631 
L 284.540001 72.008713 
L 285.02339 72.008713 
L 285.02339 71.222794 
L 285.684647 71.222794 
L 285.684647 70.436876 
L 285.969841 70.436876 
L 285.969841 69.650957 
L 286.248887 69.650957 
L 286.248887 68.865039 
L 286.694275 68.865039 
L 286.781579 67.293201 
L 288.175699 67.293201 
L 288.175699 66.507283 
L 288.494229 66.507283 
L 288.494229 65.721364 
L 289.257817 65.721364 
L 289.257817 64.935446 
L 290.135922 64.935446 
L 290.135922 64.149527 
L 291.270734 64.149527 
L 291.270734 63.363608 
L 291.383057 63.363608 
L 291.383057 62.57769 
L 292.806934 62.57769 
L 292.806934 61.791771 
L 293.442243 61.791771 
L 293.442243 61.005853 
L 295.532014 61.005853 
L 295.6248 58.648097 
L 298.09797 58.648097 
L 298.09797 57.862178 
L 298.927309 57.862178 
L 298.98413 56.290341 
L 299.170931 56.290341 
L 299.170931 55.504422 
L 299.490021 55.504422 
L 299.490021 54.718504 
L 300.370195 54.718504 
L 300.462111 53.146667 
L 302.958094 53.146667 
L 303.035633 51.574829 
L 307.624618 51.574829 
L 307.624618 50.788911 
L 308.784723 50.788911 
L 308.784723 50.002992 
L 312.292922 50.002992 
L 312.292922 49.217074 
L 312.411252 49.217074 
L 312.411252 48.431155 
L 313.615287 48.431155 
L 313.673393 46.859318 
L 313.935306 46.859318 
L 313.935306 46.073399 
L 316.53876 46.073399 
L 316.53876 45.287481 
L 318.035217 45.287481 
L 318.035217 44.501562 
L 320.635928 44.501562 
L 320.645171 42.929725 
L 322.628142 42.929725 
L 322.628142 42.143806 
L 324.835654 42.143806 
L 324.835654 41.357888 
L 325.398277 41.357888 
L 325.398277 40.571969 
L 325.694685 40.571969 
L 325.694685 39.786051 
L 326.075743 39.786051 
L 326.075743 39.000132 
L 326.333272 39.000132 
L 326.333272 38.214213 
L 329.278099 38.214213 
L 329.342363 36.642376 
L 331.201526 36.642376 
L 331.201526 35.856458 
L 332.758875 35.856458 
L 332.758875 35.070539 
L 333.117069 35.070539 
L 333.117069 34.28462 
L 333.962347 34.28462 
L 333.962347 33.498702 
L 334.448786 33.498702 
L 334.448786 32.712783 
L 334.925478 32.712783 
L 335.010431 31.140946 
L 335.43491 31.140946 
L 335.43491 30.355028 
L 335.566223 30.355028 
L 335.566223 29.569109 
L 336.696715 29.569109 
L 336.696715 28.78319 
L 337.84476 28.78319 
L 337.84476 27.997272 
L 339.2378 27.997272 
L 339.2378 27.211353 
L 339.777233 27.211353 
L 339.777233 26.425435 
L 341.041739 26.425435 
L 341.041739 25.639516 
L 341.230049 25.639516 
L 341.253157 24.067679 
L 342.316719 24.067679 
L 342.316719 23.28176 
L 342.760649 23.28176 
L 342.760649 22.495842 
L 346.509169 22.495842 
L 346.509169 21.709923 
L 347.73084 21.709923 
L 347.73084 20.924004 
L 350.431193 20.924004 
L 350.431193 20.138086 
L 357.143756 20.138086 
L 357.143756 19.352167 
L 363.498493 19.352167 
L 363.498493 18.566249 
L 373.765305 18.566249 
L 373.765305 17.78033 
L 374.605672 17.78033 
L 374.605672 16.994411 
L 375.589682 16.994411 
L 375.589682 16.208493 
L 378.977352 16.208493 
L 378.977352 15.422574 
L 379.692605 15.422574 
L 379.692605 14.636656 
L 379.954826 14.636656 
L 379.954826 13.850737 
L 382.794332 13.850737 
L 382.794332 13.064818 
L 383.767702 13.064818 
L 383.767702 12.2789 
L 384.437308 12.2789 
L 384.437308 11.492981 
L 386.886862 11.492981 
L 386.886862 10.707063 
L 389.936121 10.707063 
L 389.936121 9.921144 
L 390.345256 9.921144 
L 390.345256 9.135226 
L 394.501083 9.135226 
L 394.501083 8.349307 
L 394.501083 8.349307 
L 450.672 8.349307 
L 450.672 8.349307 
" style="fill:none;stroke:#00bfbf;stroke-linecap:square;stroke-width:1.5;"/>
   </g>
   <g id="line2d_28">
    <path clip-path="url(#p6dda917dbd)" d="M 5.410718 291.28 
L 5.410718 279.491221 
L 181.750633 279.491221 
L 181.750633 278.705303 
L 192.511501 278.705303 
L 192.511501 266.916524 
L 195.295658 266.916524 
L 195.295658 266.130605 
L 196.482507 266.130605 
L 196.482507 265.344686 
L 197.813061 265.344686 
L 197.813061 264.558768 
L 197.939161 264.558768 
L 197.939161 263.772849 
L 198.188811 263.772849 
L 198.194106 262.201012 
L 198.930086 262.201012 
L 199.023713 260.629175 
L 199.064214 260.629175 
L 199.163286 259.057338 
L 199.82177 259.057338 
L 199.82177 258.271419 
L 200.022578 258.271419 
L 200.022578 257.485501 
L 200.272348 257.485501 
L 200.272348 256.699582 
L 202.220875 256.699582 
L 202.220875 255.913663 
L 202.39106 255.913663 
L 202.39106 255.127745 
L 202.746026 255.127745 
L 202.746026 254.341826 
L 203.412398 254.341826 
L 203.412398 253.555908 
L 203.879789 253.555908 
L 203.879789 252.769989 
L 204.034602 252.769989 
L 204.145623 251.198152 
L 205.029247 251.198152 
L 205.029247 250.412233 
L 205.437433 250.412233 
L 205.437433 249.626315 
L 207.068256 249.626315 
L 207.165371 248.054477 
L 207.418623 248.054477 
L 207.418623 247.268559 
L 208.273201 247.268559 
L 208.307435 245.696722 
L 208.737894 245.696722 
L 208.737894 244.910803 
L 209.070904 244.910803 
L 209.070904 244.124884 
L 210.841727 244.124884 
L 210.841727 243.338966 
L 211.702266 243.338966 
L 211.702266 242.553047 
L 211.835729 242.553047 
L 211.862754 240.98121 
L 212.535121 240.98121 
L 212.535121 240.195292 
L 213.27414 240.195292 
L 213.27414 239.409373 
L 213.609376 239.409373 
L 213.679293 237.837536 
L 213.774683 237.837536 
L 213.774683 237.051617 
L 214.202967 237.051617 
L 214.202967 236.265699 
L 214.440426 236.265699 
L 214.440426 235.47978 
L 214.723177 235.47978 
L 214.723177 234.693861 
L 215.038693 234.693861 
L 215.038831 233.122024 
L 215.30609 233.122024 
L 215.396974 231.550187 
L 215.489044 231.550187 
L 215.489044 230.764268 
L 215.604521 230.764268 
L 215.713016 228.406513 
L 215.781839 228.406513 
L 215.781839 227.620594 
L 215.986624 227.620594 
L 215.986624 226.834675 
L 216.600309 226.834675 
L 216.600309 226.048757 
L 216.795194 226.048757 
L 216.795194 225.262838 
L 216.915402 225.262838 
L 216.915402 224.47692 
L 217.087707 224.47692 
L 217.087707 223.691001 
L 217.283634 223.691001 
L 217.308627 222.119164 
L 217.404944 222.119164 
L 217.461782 218.97549 
L 217.523944 218.97549 
L 217.523944 218.189571 
L 217.674677 218.189571 
L 217.674677 217.403652 
L 217.789092 217.403652 
L 217.789092 216.617734 
L 218.291317 216.617734 
L 218.363934 215.045897 
L 218.60192 215.045897 
L 218.629181 213.474059 
L 218.746827 213.474059 
L 218.746827 212.688141 
L 218.910589 212.688141 
L 219.01572 211.116304 
L 219.068679 211.116304 
L 219.096498 209.544466 
L 219.264212 209.544466 
L 219.264212 208.758548 
L 219.394633 208.758548 
L 219.394633 207.972629 
L 219.608783 207.972629 
L 219.608783 207.186711 
L 219.750455 207.186711 
L 219.825357 205.614873 
L 219.8933 205.614873 
L 219.995661 203.257118 
L 220.177915 203.257118 
L 220.219464 200.899362 
L 220.381629 200.899362 
L 220.480498 199.327525 
L 220.534208 199.327525 
L 220.534208 198.541606 
L 220.6773 198.541606 
L 220.755284 196.969769 
L 221.089234 196.969769 
L 221.089234 196.18385 
L 221.31189 196.18385 
L 221.31189 195.397932 
L 221.971523 195.397932 
L 221.99399 193.826095 
L 222.123049 193.826095 
L 222.123049 193.040176 
L 222.256991 193.040176 
L 222.313981 191.468339 
L 224.249071 191.468339 
L 224.249071 190.68242 
L 224.937227 190.68242 
L 224.958328 189.110583 
L 225.284733 189.110583 
L 225.284733 188.324664 
L 225.452189 188.324664 
L 225.452189 187.538746 
L 225.565478 187.538746 
L 225.565478 186.752827 
L 226.001866 186.752827 
L 226.001866 185.966909 
L 226.252493 185.966909 
L 226.252493 185.18099 
L 226.426912 185.18099 
L 226.434129 183.609153 
L 226.743879 183.609153 
L 226.755563 182.037316 
L 227.643069 182.037316 
L 227.646802 180.465479 
L 228.541837 180.465479 
L 228.619391 178.107723 
L 229.132031 178.107723 
L 229.141813 176.535886 
L 229.297599 176.535886 
L 229.375369 174.964048 
L 230.121018 174.964048 
L 230.200337 173.392211 
L 230.256885 173.392211 
L 230.332739 171.820374 
L 230.43483 171.820374 
L 230.53398 170.248537 
L 230.606167 170.248537 
L 230.70755 168.6767 
L 230.771411 168.6767 
L 230.771411 167.890781 
L 231.319171 167.890781 
L 231.417112 166.318944 
L 231.631912 166.318944 
L 231.631912 165.533025 
L 231.897832 165.533025 
L 231.897832 164.747107 
L 232.069703 164.747107 
L 232.153524 163.17527 
L 232.218309 163.17527 
L 232.218309 162.389351 
L 232.52425 162.389351 
L 232.52425 161.603432 
L 232.680985 161.603432 
L 232.680985 160.817514 
L 232.89214 160.817514 
L 232.89214 160.031595 
L 233.082427 160.031595 
L 233.17817 158.459758 
L 233.356824 158.459758 
L 233.39515 156.102002 
L 233.47992 156.102002 
L 233.47992 155.316084 
L 233.964402 155.316084 
L 233.964402 154.530165 
L 234.223553 154.530165 
L 234.257718 152.958328 
L 234.611485 152.958328 
L 234.611485 152.172409 
L 234.956979 152.172409 
L 235.020623 150.600572 
L 235.477512 150.600572 
L 235.477512 149.814653 
L 236.801034 149.814653 
L 236.870799 148.242816 
L 237.054376 148.242816 
L 237.054376 147.456898 
L 238.18936 147.456898 
L 238.18936 146.670979 
L 238.486036 146.670979 
L 238.486036 145.885061 
L 238.800754 145.885061 
L 238.800754 145.099142 
L 238.952695 145.099142 
L 238.952695 144.313223 
L 239.339275 144.313223 
L 239.354059 142.741386 
L 239.799848 142.741386 
L 239.799848 141.955468 
L 240.338149 141.955468 
L 240.365783 140.38363 
L 240.476761 140.38363 
L 240.476761 139.597712 
L 241.307149 139.597712 
L 241.307149 138.811793 
L 242.304371 138.811793 
L 242.304371 138.025875 
L 242.430315 138.025875 
L 242.430315 137.239956 
L 242.664674 137.239956 
L 242.664674 136.454037 
L 242.954488 136.454037 
L 242.954488 135.668119 
L 243.348306 135.668119 
L 243.445184 134.096282 
L 243.50327 134.096282 
L 243.520946 121.521584 
L 244.042329 121.521584 
L 244.11022 118.37791 
L 244.435923 118.37791 
L 244.523083 116.806073 
L 244.550385 116.806073 
L 244.550385 116.020154 
L 244.967047 116.020154 
L 244.967047 115.234235 
L 245.201378 115.234235 
L 245.229412 113.662398 
L 245.704498 113.662398 
L 245.798026 112.090561 
L 246.088237 112.090561 
L 246.088237 111.304642 
L 246.199554 111.304642 
L 246.308933 109.732805 
L 246.413445 109.732805 
L 246.479409 108.160968 
L 246.635401 108.160968 
L 246.687001 106.589131 
L 247.063542 106.589131 
L 247.063542 105.803212 
L 247.253611 105.803212 
L 247.253611 105.017294 
L 247.62797 105.017294 
L 247.62797 104.231375 
L 247.850878 104.231375 
L 247.959823 101.087701 
L 247.981642 101.087701 
L 247.981642 100.301782 
L 248.128586 100.301782 
L 248.200583 97.158108 
L 248.278159 97.158108 
L 248.29528 94.800352 
L 248.396689 94.800352 
L 248.465591 93.228515 
L 248.771572 93.228515 
L 248.771572 92.442596 
L 249.078417 92.442596 
L 249.078417 91.656678 
L 249.309234 91.656678 
L 249.418768 87.727085 
L 249.467379 87.727085 
L 249.563358 86.155248 
L 249.621473 86.155248 
L 249.634449 84.58341 
L 249.830665 84.58341 
L 249.866748 83.011573 
L 249.979711 83.011573 
L 249.979711 82.225655 
L 250.363732 82.225655 
L 250.423316 79.867899 
L 250.712919 79.867899 
L 250.808462 78.296062 
L 250.907004 78.296062 
L 250.907004 77.510143 
L 251.532265 77.510143 
L 251.532265 76.724224 
L 251.801481 76.724224 
L 251.905131 73.58055 
L 252.958842 73.58055 
L 252.958842 72.794631 
L 253.461313 72.794631 
L 253.461313 72.008713 
L 253.780047 72.008713 
L 253.780047 71.222794 
L 254.04124 71.222794 
L 254.04124 70.436876 
L 254.42281 70.436876 
L 254.42281 69.650957 
L 254.628548 69.650957 
L 254.71579 68.07912 
L 255.436255 68.07912 
L 255.436255 67.293201 
L 256.207994 67.293201 
L 256.207994 66.507283 
L 256.423855 66.507283 
L 256.423855 65.721364 
L 256.781911 65.721364 
L 256.864502 64.149527 
L 256.962808 64.149527 
L 256.962808 63.363608 
L 257.208414 63.363608 
L 257.297227 61.791771 
L 257.328374 61.791771 
L 257.328374 61.005853 
L 257.499138 61.005853 
L 257.499138 60.219934 
L 258.055913 60.219934 
L 258.055913 59.434015 
L 258.526201 59.434015 
L 258.526201 58.648097 
L 259.790596 58.648097 
L 259.790596 57.862178 
L 260.064007 57.862178 
L 260.064007 57.07626 
L 260.672855 57.07626 
L 260.762964 54.718504 
L 261.959849 54.718504 
L 261.996039 53.146667 
L 262.543405 53.146667 
L 262.543405 52.360748 
L 263.571544 52.360748 
L 263.588667 50.788911 
L 263.995733 50.788911 
L 263.995733 50.002992 
L 264.168515 50.002992 
L 264.168515 49.217074 
L 264.653421 49.217074 
L 264.653421 48.431155 
L 270.00417 48.431155 
L 270.00417 47.645237 
L 270.138908 47.645237 
L 270.138908 46.859318 
L 273.631178 46.859318 
L 273.631178 46.073399 
L 274.195174 46.073399 
L 274.195174 45.287481 
L 274.999527 45.287481 
L 274.999527 44.501562 
L 275.724478 44.501562 
L 275.724478 43.715644 
L 285.550924 43.715644 
L 285.550924 42.929725 
L 296.41936 42.929725 
L 296.41936 42.143806 
L 297.495462 42.143806 
L 297.495462 41.357888 
L 299.780059 41.357888 
L 299.780059 40.571969 
L 300.948891 40.571969 
L 300.948891 39.786051 
L 302.288863 39.786051 
L 302.288863 39.000132 
L 303.40331 39.000132 
L 303.40331 38.214213 
L 303.960857 38.214213 
L 303.960857 37.428295 
L 304.691814 37.428295 
L 304.736143 35.856458 
L 305.283576 35.856458 
L 305.283576 35.070539 
L 305.491266 35.070539 
L 305.491266 34.28462 
L 305.975373 34.28462 
L 305.975373 33.498702 
L 306.479993 33.498702 
L 306.552405 31.926865 
L 306.939658 31.926865 
L 306.939658 31.140946 
L 307.170476 31.140946 
L 307.170476 30.355028 
L 310.925652 30.355028 
L 310.925652 29.569109 
L 312.411252 29.569109 
L 312.411252 28.78319 
L 313.855757 28.78319 
L 313.855757 27.997272 
L 314.411797 27.997272 
L 314.411797 27.211353 
L 315.866076 27.211353 
L 315.976269 25.639516 
L 316.62268 25.639516 
L 316.62268 24.853597 
L 317.325338 24.853597 
L 317.325338 24.067679 
L 318.304316 24.067679 
L 318.304316 23.28176 
L 320.605078 23.28176 
L 320.635928 21.709923 
L 324.288522 21.709923 
L 324.288522 20.924004 
L 325.193412 20.924004 
L 325.193412 20.138086 
L 329.778006 20.138086 
L 329.778006 19.352167 
L 336.793195 19.352167 
L 336.793195 18.566249 
L 338.44963 18.566249 
L 338.44963 17.78033 
L 340.430936 17.78033 
L 340.430936 16.994411 
L 347.462125 16.994411 
L 347.478737 15.422574 
L 350.205457 15.422574 
L 350.205457 14.636656 
L 351.745288 14.636656 
L 351.745288 13.850737 
L 353.004628 13.850737 
L 353.004628 13.064818 
L 353.23954 13.064818 
L 353.23954 12.2789 
L 353.828494 12.2789 
L 353.828494 11.492981 
L 354.800094 11.492981 
L 354.800094 10.707063 
L 356.662199 10.707063 
L 356.662199 9.921144 
L 363.270167 9.921144 
L 363.270167 9.135226 
L 367.091106 9.135226 
L 367.091106 8.349307 
L 367.091106 8.349307 
L 450.672 8.349307 
L 450.672 8.349307 
" style="fill:none;stroke:#bf00bf;stroke-linecap:square;stroke-width:1.5;"/>
   </g>
   <g id="line2d_29">
    <path clip-path="url(#p6dda917dbd)" d="M -1 274.77571 
L 4.585053 274.77571 
L 4.585053 273.989791 
L 5.410718 273.989791 
L 5.410718 262.201012 
L 6.85314 262.201012 
L 6.85314 261.415094 
L 11.508018 261.415094 
L 11.508018 260.629175 
L 11.870519 260.629175 
L 11.870519 259.843256 
L 12.766489 259.843256 
L 12.766489 259.057338 
L 14.856895 259.057338 
L 14.856895 258.271419 
L 18.92983 258.271419 
L 18.92983 257.485501 
L 21.374105 257.485501 
L 21.374105 256.699582 
L 22.114899 256.699582 
L 22.114899 255.913663 
L 22.835194 255.913663 
L 22.835194 255.127745 
L 22.965371 255.127745 
L 22.965371 254.341826 
L 23.596794 254.341826 
L 23.596794 253.555908 
L 25.241113 253.555908 
L 25.241113 252.769989 
L 31.695009 252.769989 
L 31.695009 251.98407 
L 44.40906 251.98407 
L 44.477936 250.412233 
L 74.901206 250.412233 
L 74.901206 249.626315 
L 83.065266 249.626315 
L 83.065266 248.840396 
L 87.708307 248.840396 
L 87.708307 248.054477 
L 89.553461 248.054477 
L 89.553461 247.268559 
L 92.556257 247.268559 
L 92.556257 246.48264 
L 99.435499 246.48264 
L 99.435499 245.696722 
L 100.180754 245.696722 
L 100.180754 244.910803 
L 101.613176 244.910803 
L 101.613176 244.124884 
L 101.838911 244.124884 
L 101.838911 243.338966 
L 102.186885 243.338966 
L 102.186885 242.553047 
L 102.799524 242.553047 
L 102.799524 241.767129 
L 104.179993 241.767129 
L 104.179993 240.98121 
L 105.291232 240.98121 
L 105.291232 240.195292 
L 107.320388 240.195292 
L 107.320388 239.409373 
L 109.796012 239.409373 
L 109.796012 238.623454 
L 110.51057 238.623454 
L 110.51057 237.837536 
L 120.650209 237.837536 
L 120.650209 237.051617 
L 123.527386 237.051617 
L 123.527386 236.265699 
L 124.641491 236.265699 
L 124.641491 235.47978 
L 130.423074 235.47978 
L 130.423074 234.693861 
L 132.766201 234.693861 
L 132.766201 233.907943 
L 137.498035 233.907943 
L 137.498035 233.122024 
L 140.78249 233.122024 
L 140.78249 232.336106 
L 147.00719 232.336106 
L 147.00719 231.550187 
L 148.297919 231.550187 
L 148.297919 230.764268 
L 149.179927 230.764268 
L 149.179927 229.97835 
L 150.46219 229.97835 
L 150.46219 229.192431 
L 153.235753 229.192431 
L 153.235753 228.406513 
L 153.857922 228.406513 
L 153.857922 227.620594 
L 155.808375 227.620594 
L 155.858824 226.048757 
L 157.362872 226.048757 
L 157.362872 225.262838 
L 158.767769 225.262838 
L 158.767769 224.47692 
L 159.454971 224.47692 
L 159.479939 222.905083 
L 160.677079 222.905083 
L 160.688074 221.333245 
L 163.273335 221.333245 
L 163.273335 220.547327 
L 164.479551 220.547327 
L 164.479551 219.761408 
L 165.097509 219.761408 
L 165.097509 218.97549 
L 166.057862 218.97549 
L 166.057862 218.189571 
L 168.520751 218.189571 
L 168.573097 216.617734 
L 169.228775 216.617734 
L 169.228775 215.831815 
L 170.844652 215.831815 
L 170.844652 215.045897 
L 171.554961 215.045897 
L 171.631521 213.474059 
L 172.511632 213.474059 
L 172.511632 212.688141 
L 172.859776 212.688141 
L 172.859776 211.902222 
L 173.243838 211.902222 
L 173.243838 211.116304 
L 173.402303 211.116304 
L 173.402303 210.330385 
L 175.154183 210.330385 
L 175.264591 208.758548 
L 175.823614 208.758548 
L 175.823614 207.972629 
L 176.908492 207.972629 
L 176.908492 207.186711 
L 177.128379 207.186711 
L 177.128379 206.400792 
L 178.219347 206.400792 
L 178.219347 205.614873 
L 179.006586 205.614873 
L 179.006586 204.828955 
L 179.289814 204.828955 
L 179.39942 203.257118 
L 179.587033 203.257118 
L 179.682834 201.685281 
L 180.095248 201.685281 
L 180.095248 200.899362 
L 180.86419 200.899362 
L 180.86419 200.113443 
L 181.54992 200.113443 
L 181.54992 199.327525 
L 181.789123 199.327525 
L 181.789123 198.541606 
L 182.625098 198.541606 
L 182.625098 197.755688 
L 183.05402 197.755688 
L 183.05402 196.969769 
L 183.386825 196.969769 
L 183.386825 196.18385 
L 184.452051 196.18385 
L 184.484314 193.826095 
L 184.738147 193.826095 
L 184.738147 193.040176 
L 185.006855 193.040176 
L 185.006855 192.254257 
L 185.397779 192.254257 
L 185.397779 191.468339 
L 185.778002 191.468339 
L 185.778002 190.68242 
L 186.93733 190.68242 
L 186.93733 189.896502 
L 188.903628 189.896502 
L 188.96135 188.324664 
L 189.935764 188.324664 
L 189.935764 187.538746 
L 190.77311 187.538746 
L 190.77311 186.752827 
L 190.974732 186.752827 
L 190.974732 185.966909 
L 191.122632 185.966909 
L 191.148068 184.395072 
L 192.511501 184.395072 
L 192.511501 173.392211 
L 192.63655 173.392211 
L 192.728583 171.034455 
L 193.219821 171.034455 
L 193.219821 170.248537 
L 193.342803 170.248537 
L 193.342803 169.462618 
L 193.459642 169.462618 
L 193.459642 168.6767 
L 193.907894 168.6767 
L 193.907894 167.890781 
L 194.109954 167.890781 
L 194.109954 167.104862 
L 194.664175 167.104862 
L 194.664175 166.318944 
L 195.254776 166.318944 
L 195.254776 165.533025 
L 196.239763 165.533025 
L 196.239763 164.747107 
L 196.657448 164.747107 
L 196.657448 163.961188 
L 197.02797 163.961188 
L 197.02797 163.17527 
L 197.370388 163.17527 
L 197.370388 162.389351 
L 198.002534 162.389351 
L 198.002534 161.603432 
L 199.516232 161.603432 
L 199.516232 160.817514 
L 199.698843 160.817514 
L 199.698843 160.031595 
L 199.909459 160.031595 
L 199.909459 159.245677 
L 200.082515 159.245677 
L 200.082515 158.459758 
L 200.499256 158.459758 
L 200.518113 156.887921 
L 200.838095 156.887921 
L 200.838095 156.102002 
L 201.724448 156.102002 
L 201.807232 154.530165 
L 202.011608 154.530165 
L 202.011608 153.744246 
L 202.297888 153.744246 
L 202.297888 152.958328 
L 202.872761 152.958328 
L 202.872761 152.172409 
L 203.341229 152.172409 
L 203.393841 149.814653 
L 203.477519 149.814653 
L 203.477519 149.028735 
L 203.60876 149.028735 
L 203.674644 144.313223 
L 203.848384 144.313223 
L 203.949867 141.955468 
L 204.315927 141.955468 
L 204.315927 141.169549 
L 204.456346 141.169549 
L 204.456346 140.38363 
L 204.661788 140.38363 
L 204.661788 139.597712 
L 204.831121 139.597712 
L 204.831121 138.811793 
L 205.091311 138.811793 
L 205.091311 138.025875 
L 205.297488 138.025875 
L 205.297488 137.239956 
L 205.514671 137.239956 
L 205.514671 136.454037 
L 205.662104 136.454037 
L 205.66299 134.8822 
L 205.853958 134.8822 
L 205.853958 134.096282 
L 205.990751 134.096282 
L 206.04887 132.524444 
L 206.124916 132.524444 
L 206.124916 131.738526 
L 206.660897 131.738526 
L 206.660897 130.952607 
L 207.128224 130.952607 
L 207.19606 129.38077 
L 207.301158 129.38077 
L 207.384227 127.808933 
L 207.528276 127.808933 
L 207.551148 126.237096 
L 207.665723 126.237096 
L 207.665723 125.451177 
L 207.838466 125.451177 
L 207.838466 124.665259 
L 208.467115 124.665259 
L 208.478176 123.093421 
L 209.206678 123.093421 
L 209.214052 121.521584 
L 209.387162 121.521584 
L 209.387162 120.735666 
L 209.59447 120.735666 
L 209.59447 119.949747 
L 209.743816 119.949747 
L 209.746924 118.37791 
L 210.129482 118.37791 
L 210.129482 117.591991 
L 210.374135 117.591991 
L 210.374135 116.806073 
L 210.625897 116.806073 
L 210.625897 116.020154 
L 210.906997 116.020154 
L 210.906997 115.234235 
L 211.145446 115.234235 
L 211.145446 114.448317 
L 211.413796 114.448317 
L 211.413796 113.662398 
L 211.581681 113.662398 
L 211.581858 112.090561 
L 211.759479 112.090561 
L 211.795807 109.732805 
L 212.421214 109.732805 
L 212.46062 108.160968 
L 212.626668 108.160968 
L 212.63443 106.589131 
L 212.739121 106.589131 
L 212.739121 105.803212 
L 212.952536 105.803212 
L 212.952536 105.017294 
L 213.280668 105.017294 
L 213.280668 104.231375 
L 214.194337 104.231375 
L 214.194343 101.873619 
L 214.585422 101.873619 
L 214.585422 101.087701 
L 215.04018 101.087701 
L 215.083137 99.515864 
L 215.288649 99.515864 
L 215.355292 97.944026 
L 215.926639 97.944026 
L 215.992924 96.372189 
L 216.061391 96.372189 
L 216.061391 95.586271 
L 216.568876 95.586271 
L 216.654959 94.014433 
L 216.768806 94.014433 
L 216.768806 93.228515 
L 217.232496 93.228515 
L 217.232496 92.442596 
L 217.664435 92.442596 
L 217.664435 91.656678 
L 218.124209 91.656678 
L 218.175803 89.298922 
L 218.786292 89.298922 
L 218.786292 88.513003 
L 219.730762 88.513003 
L 219.803818 85.369329 
L 219.905643 85.369329 
L 219.947196 83.797492 
L 220.182177 83.797492 
L 220.182177 83.011573 
L 220.322671 83.011573 
L 220.34976 81.439736 
L 222.087756 81.439736 
L 222.087756 80.653817 
L 222.769128 80.653817 
L 222.789678 78.296062 
L 222.89079 78.296062 
L 222.908192 74.366469 
L 223.122431 74.366469 
L 223.122431 73.58055 
L 223.29673 73.58055 
L 223.29673 72.794631 
L 224.057444 72.794631 
L 224.057444 72.008713 
L 224.233397 72.008713 
L 224.233397 71.222794 
L 225.232065 71.222794 
L 225.341581 68.07912 
L 225.344589 68.07912 
L 225.413218 66.507283 
L 226.612354 66.507283 
L 226.612354 65.721364 
L 226.990866 65.721364 
L 227.037979 63.363608 
L 227.344141 63.363608 
L 227.350921 61.791771 
L 228.018938 61.791771 
L 228.018938 61.005853 
L 228.318869 61.005853 
L 228.318869 60.219934 
L 229.03638 60.219934 
L 229.133078 53.146667 
L 229.35812 53.146667 
L 229.36419 51.574829 
L 229.507683 51.574829 
L 229.509974 50.002992 
L 229.727409 50.002992 
L 229.753569 48.431155 
L 230.451015 48.431155 
L 230.557738 45.287481 
L 230.742055 45.287481 
L 230.792083 43.715644 
L 230.99034 43.715644 
L 231.027365 42.143806 
L 231.215028 42.143806 
L 231.215028 41.357888 
L 231.796757 41.357888 
L 231.826218 39.000132 
L 232.385145 39.000132 
L 232.476752 36.642376 
L 232.561615 36.642376 
L 232.561615 35.856458 
L 232.686251 35.856458 
L 232.686251 35.070539 
L 232.953886 35.070539 
L 232.954718 32.712783 
L 233.101389 32.712783 
L 233.101389 31.926865 
L 234.000959 31.926865 
L 234.000959 31.140946 
L 234.601305 31.140946 
L 234.601305 30.355028 
L 234.879615 30.355028 
L 234.879615 29.569109 
L 235.007014 29.569109 
L 235.007014 28.78319 
L 235.255795 28.78319 
L 235.255795 27.997272 
L 235.41357 27.997272 
L 235.41357 27.211353 
L 235.958782 27.211353 
L 235.958782 26.425435 
L 236.649177 26.425435 
L 236.649177 25.639516 
L 237.805165 25.639516 
L 237.805165 24.853597 
L 238.115835 24.853597 
L 238.119481 23.28176 
L 238.664154 23.28176 
L 238.664154 22.495842 
L 238.956274 22.495842 
L 238.956274 21.709923 
L 239.409107 21.709923 
L 239.409107 20.924004 
L 239.971985 20.924004 
L 240.002889 19.352167 
L 240.312828 19.352167 
L 240.312828 18.566249 
L 241.68926 18.566249 
L 241.68926 17.78033 
L 241.868414 17.78033 
L 241.868414 16.994411 
L 242.007893 16.994411 
L 242.007893 16.208493 
L 242.266512 16.208493 
L 242.266512 15.422574 
L 244.446978 15.422574 
L 244.446978 14.636656 
L 245.412257 14.636656 
L 245.412257 13.850737 
L 247.626869 13.850737 
L 247.626869 13.064818 
L 248.250583 13.064818 
L 248.250583 12.2789 
L 250.015998 12.2789 
L 250.015998 11.492981 
L 250.728895 11.492981 
L 250.728895 10.707063 
L 256.282624 10.707063 
L 256.282624 9.921144 
L 263.650879 9.921144 
L 263.650879 9.135226 
L 271.160677 9.135226 
L 271.160677 8.349307 
L 271.160677 8.349307 
L 450.672 8.349307 
L 450.672 8.349307 
" style="fill:none;stroke:#000000;stroke-linecap:square;stroke-width:1.5;"/>
   </g>
   <g id="patch_3">
    <path d="M 5.52 291.28 
L 5.52 5.52 
" style="fill:none;stroke:#000000;stroke-linecap:square;stroke-linejoin:miter;stroke-width:0.8;"/>
   </g>
   <g id="patch_4">
    <path d="M 450.672 291.28 
L 450.672 5.52 
" style="fill:none;stroke:#000000;stroke-linecap:square;stroke-linejoin:miter;stroke-width:0.8;"/>
   </g>
   <g id="patch_5">
    <path d="M 5.52 291.28 
L 450.672 291.28 
" style="fill:none;stroke:#000000;stroke-linecap:square;stroke-linejoin:miter;stroke-width:0.8;"/>
   </g>
   <g id="patch_6">
    <path d="M 5.52 5.52 
L 450.672 5.52 
" style="fill:none;stroke:#000000;stroke-linecap:square;stroke-linejoin:miter;stroke-width:0.8;"/>
   </g>
   <g id="text_6">
    <!-- {f1-f24}, 5-D -->
    <defs>
     <path d="M 51.125 -9.28125 
L 51.125 -16.3125 
L 48.09375 -16.3125 
Q 35.9375 -16.3125 31.8125 -12.6875 
Q 27.6875 -9.078125 27.6875 1.703125 
L 27.6875 13.375 
Q 27.6875 20.75 25.046875 23.578125 
Q 22.40625 26.421875 15.484375 26.421875 
L 12.5 26.421875 
L 12.5 33.40625 
L 15.484375 33.40625 
Q 22.46875 33.40625 25.078125 36.203125 
Q 27.6875 39.015625 27.6875 46.296875 
L 27.6875 58.015625 
Q 27.6875 68.796875 31.8125 72.390625 
Q 35.9375 75.984375 48.09375 75.984375 
L 51.125 75.984375 
L 51.125 69 
L 47.796875 69 
Q 40.921875 69 38.8125 66.84375 
Q 36.71875 64.703125 36.71875 57.8125 
L 36.71875 45.703125 
Q 36.71875 38.03125 34.5 34.5625 
Q 32.28125 31.109375 26.90625 29.890625 
Q 32.328125 28.5625 34.515625 25.09375 
Q 36.71875 21.625 36.71875 14.015625 
L 36.71875 1.90625 
Q 36.71875 -4.984375 38.8125 -7.125 
Q 40.921875 -9.28125 47.796875 -9.28125 
z
" id="DejaVuSans-7b"/>
     <path d="M 19.1875 8.296875 
L 53.609375 8.296875 
L 53.609375 0 
L 7.328125 0 
L 7.328125 8.296875 
Q 12.9375 14.109375 22.625 23.890625 
Q 32.328125 33.6875 34.8125 36.53125 
Q 39.546875 41.84375 41.421875 45.53125 
Q 43.3125 49.21875 43.3125 52.78125 
Q 43.3125 58.59375 39.234375 62.25 
Q 35.15625 65.921875 28.609375 65.921875 
Q 23.96875 65.921875 18.8125 64.3125 
Q 13.671875 62.703125 7.8125 59.421875 
L 7.8125 69.390625 
Q 13.765625 71.78125 18.9375 73 
Q 24.125 74.21875 28.421875 74.21875 
Q 39.75 74.21875 46.484375 68.546875 
Q 53.21875 62.890625 53.21875 53.421875 
Q 53.21875 48.921875 51.53125 44.890625 
Q 49.859375 40.875 45.40625 35.40625 
Q 44.1875 33.984375 37.640625 27.21875 
Q 31.109375 20.453125 19.1875 8.296875 
z
" id="DejaVuSans-32"/>
     <path d="M 12.5 -9.28125 
L 15.921875 -9.28125 
Q 22.75 -9.28125 24.828125 -7.171875 
Q 26.90625 -5.078125 26.90625 1.90625 
L 26.90625 14.015625 
Q 26.90625 21.625 29.09375 25.09375 
Q 31.296875 28.5625 36.71875 29.890625 
Q 31.296875 31.109375 29.09375 34.5625 
Q 26.90625 38.03125 26.90625 45.703125 
L 26.90625 57.8125 
Q 26.90625 64.75 24.828125 66.875 
Q 22.75 69 15.921875 69 
L 12.5 69 
L 12.5 75.984375 
L 15.578125 75.984375 
Q 27.734375 75.984375 31.8125 72.390625 
Q 35.890625 68.796875 35.890625 58.015625 
L 35.890625 46.296875 
Q 35.890625 39.015625 38.515625 36.203125 
Q 41.15625 33.40625 48.09375 33.40625 
L 51.125 33.40625 
L 51.125 26.421875 
L 48.09375 26.421875 
Q 41.15625 26.421875 38.515625 23.578125 
Q 35.890625 20.75 35.890625 13.375 
L 35.890625 1.703125 
Q 35.890625 -9.078125 31.8125 -12.6875 
Q 27.734375 -16.3125 15.578125 -16.3125 
L 12.5 -16.3125 
z
" id="DejaVuSans-7d"/>
     <path d="M 11.71875 12.40625 
L 22.015625 12.40625 
L 22.015625 4 
L 14.015625 -11.625 
L 7.71875 -11.625 
L 11.71875 4 
z
" id="DejaVuSans-2c"/>
     <path d="M 10.796875 72.90625 
L 49.515625 72.90625 
L 49.515625 64.59375 
L 19.828125 64.59375 
L 19.828125 46.734375 
Q 21.96875 47.46875 24.109375 47.828125 
Q 26.265625 48.1875 28.421875 48.1875 
Q 40.625 48.1875 47.75 41.5 
Q 54.890625 34.8125 54.890625 23.390625 
Q 54.890625 11.625 47.5625 5.09375 
Q 40.234375 -1.421875 26.90625 -1.421875 
Q 22.3125 -1.421875 17.546875 -0.640625 
Q 12.796875 0.140625 7.71875 1.703125 
L 7.71875 11.625 
Q 12.109375 9.234375 16.796875 8.0625 
Q 21.484375 6.890625 26.703125 6.890625 
Q 35.15625 6.890625 40.078125 11.328125 
Q 45.015625 15.765625 45.015625 23.390625 
Q 45.015625 31 40.078125 35.4375 
Q 35.15625 39.890625 26.703125 39.890625 
Q 22.75 39.890625 18.8125 39.015625 
Q 14.890625 38.140625 10.796875 36.28125 
z
" id="DejaVuSans-35"/>
    </defs>
    <g transform="translate(308.79396 285.5648)scale(0.2 -0.2)">
     <use xlink:href="#DejaVuSans-7b"/>
     <use x="63.623047" xlink:href="#DejaVuSans-66"/>
     <use x="98.828125" xlink:href="#DejaVuSans-31"/>
     <use x="162.451172" xlink:href="#DejaVuSans-2d"/>
     <use x="198.535156" xlink:href="#DejaVuSans-66"/>
     <use x="233.740234" xlink:href="#DejaVuSans-32"/>
     <use x="297.363281" xlink:href="#DejaVuSans-34"/>
     <use x="360.986328" xlink:href="#DejaVuSans-7d"/>
     <use x="424.609375" xlink:href="#DejaVuSans-2c"/>
     <use x="456.396484" xlink:href="#DejaVuSans-20"/>
     <use x="488.183594" xlink:href="#DejaVuSans-35"/>
     <use x="551.806641" xlink:href="#DejaVuSans-2d"/>
     <use x="587.890625" xlink:href="#DejaVuSans-44"/>
    </g>
   </g>
   <g id="text_7">
    <!-- v0.0.0 -->
    <defs>
     <path d="M 2.984375 54.6875 
L 12.5 54.6875 
L 29.59375 8.796875 
L 46.6875 54.6875 
L 56.203125 54.6875 
L 35.6875 0 
L 23.484375 0 
z
" id="DejaVuSans-76"/>
     <path d="M 10.6875 12.40625 
L 21 12.40625 
L 21 0 
L 10.6875 0 
z
" id="DejaVuSans-2e"/>
    </defs>
    <g style="fill:#808080;" transform="translate(212.41475 286.342713)scale(0.1 -0.1)">
     <use xlink:href="#DejaVuSans-76"/>
     <use x="59.179688" xlink:href="#DejaVuSans-30"/>
     <use x="122.802734" xlink:href="#DejaVuSans-2e"/>
     <use x="154.589844" xlink:href="#DejaVuSans-30"/>
     <use x="218.212891" xlink:href="#DejaVuSans-2e"/>
     <use x="250" xlink:href="#DejaVuSans-30"/>
    </g>
   </g>
  </g>
 </g>
 <defs>
  <clipPath id="p6dda917dbd">
   <rect height="285.76" width="445.152" x="5.52" y="5.52"/>
  </clipPath>
 </defs>
</svg>
