<?xml version="1.0" encoding="utf-8" standalone="no"?>
<!DOCTYPE svg PUBLIC "-//W3C//DTD SVG 1.1//EN"
  "http://www.w3.org/Graphics/SVG/1.1/DTD/svg11.dtd">
<!-- Created with matplotlib (http://matplotlib.org/) -->
<svg height="345.6pt" version="1.1" viewBox="0 0 460.8 345.6" width="460.8pt" xmlns="http://www.w3.org/2000/svg" xmlns:xlink="http://www.w3.org/1999/xlink">
 <defs>
  <style type="text/css">
*{stroke-linecap:butt;stroke-linejoin:round;}
  </style>
 </defs>
 <g id="figure_1">
  <g id="patch_1">
   <path d="M 0 345.6 
L 460.8 345.6 
L 460.8 0 
L 0 0 
z
" style="fill:#ffffff;"/>
  </g>
  <g id="axes_1">
   <g id="patch_2">
    <path d="M 56.12 294.88 
L 333.168 294.88 
L 333.168 6.845228 
L 56.12 6.845228 
z
" style="fill:#ffffff;"/>
   </g>
   <g id="matplotlib.axis_1">
    <g id="xtick_1">
     <g id="line2d_1">
      <path clip-path="url(#p2b5fc8a027)" d="M 56.12 294.88 
L 56.12 6.845228 
" style="fill:none;stroke:#b0b0b0;stroke-linecap:square;stroke-width:0.8;"/>
     </g>
     <g id="line2d_2">
      <defs>
       <path d="M 0 0 
L 0 3.5 
" id="m2e2ae71f6e" style="stroke:#000000;stroke-width:0.8;"/>
      </defs>
      <g>
       <use style="stroke:#000000;stroke-width:0.8;" x="56.12" xlink:href="#m2e2ae71f6e" y="294.88"/>
      </g>
     </g>
     <g id="text_1">
      <!-- 0 -->
      <defs>
       <path d="M 31.78125 66.40625 
Q 24.171875 66.40625 20.328125 58.90625 
Q 16.5 51.421875 16.5 36.375 
Q 16.5 21.390625 20.328125 13.890625 
Q 24.171875 6.390625 31.78125 6.390625 
Q 39.453125 6.390625 43.28125 13.890625 
Q 47.125 21.390625 47.125 36.375 
Q 47.125 51.421875 43.28125 58.90625 
Q 39.453125 66.40625 31.78125 66.40625 
z
M 31.78125 74.21875 
Q 44.046875 74.21875 50.515625 64.515625 
Q 56.984375 54.828125 56.984375 36.375 
Q 56.984375 17.96875 50.515625 8.265625 
Q 44.046875 -1.421875 31.78125 -1.421875 
Q 19.53125 -1.421875 13.0625 8.265625 
Q 6.59375 17.96875 6.59375 36.375 
Q 6.59375 54.828125 13.0625 64.515625 
Q 19.53125 74.21875 31.78125 74.21875 
z
" id="DejaVuSans-30"/>
      </defs>
      <g transform="translate(49.7575 317.076875)scale(0.2 -0.2)">
       <use xlink:href="#DejaVuSans-30"/>
      </g>
     </g>
    </g>
    <g id="xtick_2">
     <g id="line2d_3">
      <path clip-path="url(#p2b5fc8a027)" d="M 135.276571 294.88 
L 135.276571 6.845228 
" style="fill:none;stroke:#b0b0b0;stroke-linecap:square;stroke-width:0.8;"/>
     </g>
     <g id="line2d_4">
      <g>
       <use style="stroke:#000000;stroke-width:0.8;" x="135.276571" xlink:href="#m2e2ae71f6e" y="294.88"/>
      </g>
     </g>
     <g id="text_2">
      <!-- 2 -->
      <defs>
       <path d="M 19.1875 8.296875 
L 53.609375 8.296875 
L 53.609375 0 
L 7.328125 0 
L 7.328125 8.296875 
Q 12.9375 14.109375 22.625 23.890625 
Q 32.328125 33.6875 34.8125 36.53125 
Q 39.546875 41.84375 41.421875 45.53125 
Q 43.3125 49.21875 43.3125 52.78125 
Q 43.3125 58.59375 39.234375 62.25 
Q 35.15625 65.921875 28.609375 65.921875 
Q 23.96875 65.921875 18.8125 64.3125 
Q 13.671875 62.703125 7.8125 59.421875 
L 7.8125 69.390625 
Q 13.765625 71.78125 18.9375 73 
Q 24.125 74.21875 28.421875 74.21875 
Q 39.75 74.21875 46.484375 68.546875 
Q 53.21875 62.890625 53.21875 53.421875 
Q 53.21875 48.921875 51.53125 44.890625 
Q 49.859375 40.875 45.40625 35.40625 
Q 44.1875 33.984375 37.640625 27.21875 
Q 31.109375 20.453125 19.1875 8.296875 
z
" id="DejaVuSans-32"/>
      </defs>
      <g transform="translate(128.914071 317.076875)scale(0.2 -0.2)">
       <use xlink:href="#DejaVuSans-32"/>
      </g>
     </g>
    </g>
    <g id="xtick_3">
     <g id="line2d_5">
      <path clip-path="url(#p2b5fc8a027)" d="M 214.433143 294.88 
L 214.433143 6.845228 
" style="fill:none;stroke:#b0b0b0;stroke-linecap:square;stroke-width:0.8;"/>
     </g>
     <g id="line2d_6">
      <g>
       <use style="stroke:#000000;stroke-width:0.8;" x="214.433143" xlink:href="#m2e2ae71f6e" y="294.88"/>
      </g>
     </g>
     <g id="text_3">
      <!-- 4 -->
      <defs>
       <path d="M 37.796875 64.3125 
L 12.890625 25.390625 
L 37.796875 25.390625 
z
M 35.203125 72.90625 
L 47.609375 72.90625 
L 47.609375 25.390625 
L 58.015625 25.390625 
L 58.015625 17.1875 
L 47.609375 17.1875 
L 47.609375 0 
L 37.796875 0 
L 37.796875 17.1875 
L 4.890625 17.1875 
L 4.890625 26.703125 
z
" id="DejaVuSans-34"/>
      </defs>
      <g transform="translate(208.070643 317.076875)scale(0.2 -0.2)">
       <use xlink:href="#DejaVuSans-34"/>
      </g>
     </g>
    </g>
    <g id="xtick_4">
     <g id="line2d_7">
      <path clip-path="url(#p2b5fc8a027)" d="M 293.589714 294.88 
L 293.589714 6.845228 
" style="fill:none;stroke:#b0b0b0;stroke-linecap:square;stroke-width:0.8;"/>
     </g>
     <g id="line2d_8">
      <g>
       <use style="stroke:#000000;stroke-width:0.8;" x="293.589714" xlink:href="#m2e2ae71f6e" y="294.88"/>
      </g>
     </g>
     <g id="text_4">
      <!-- 6 -->
      <defs>
       <path d="M 33.015625 40.375 
Q 26.375 40.375 22.484375 35.828125 
Q 18.609375 31.296875 18.609375 23.390625 
Q 18.609375 15.53125 22.484375 10.953125 
Q 26.375 6.390625 33.015625 6.390625 
Q 39.65625 6.390625 43.53125 10.953125 
Q 47.40625 15.53125 47.40625 23.390625 
Q 47.40625 31.296875 43.53125 35.828125 
Q 39.65625 40.375 33.015625 40.375 
z
M 52.59375 71.296875 
L 52.59375 62.3125 
Q 48.875 64.0625 45.09375 64.984375 
Q 41.3125 65.921875 37.59375 65.921875 
Q 27.828125 65.921875 22.671875 59.328125 
Q 17.53125 52.734375 16.796875 39.40625 
Q 19.671875 43.65625 24.015625 45.921875 
Q 28.375 48.1875 33.59375 48.1875 
Q 44.578125 48.1875 50.953125 41.515625 
Q 57.328125 34.859375 57.328125 23.390625 
Q 57.328125 12.15625 50.6875 5.359375 
Q 44.046875 -1.421875 33.015625 -1.421875 
Q 20.359375 -1.421875 13.671875 8.265625 
Q 6.984375 17.96875 6.984375 36.375 
Q 6.984375 53.65625 15.1875 63.9375 
Q 23.390625 74.21875 37.203125 74.21875 
Q 40.921875 74.21875 44.703125 73.484375 
Q 48.484375 72.75 52.59375 71.296875 
z
" id="DejaVuSans-36"/>
      </defs>
      <g transform="translate(287.227214 317.076875)scale(0.2 -0.2)">
       <use xlink:href="#DejaVuSans-36"/>
      </g>
     </g>
    </g>
    <g id="xtick_5">
     <g id="line2d_9">
      <path clip-path="url(#p2b5fc8a027)" d="M 56.12 294.88 
L 56.12 6.845228 
" style="fill:none;stroke:#b0b0b0;stroke-linecap:square;stroke-width:0.8;"/>
     </g>
     <g id="line2d_10">
      <defs>
       <path d="M 0 0 
L 0 2 
" id="m970e1e7a3b" style="stroke:#000000;stroke-width:0.6;"/>
      </defs>
      <g>
       <use style="stroke:#000000;stroke-width:0.6;" x="56.12" xlink:href="#m970e1e7a3b" y="294.88"/>
      </g>
     </g>
    </g>
    <g id="xtick_6">
     <g id="line2d_11">
      <path clip-path="url(#p2b5fc8a027)" d="M 95.698286 294.88 
L 95.698286 6.845228 
" style="fill:none;stroke:#b0b0b0;stroke-linecap:square;stroke-width:0.8;"/>
     </g>
     <g id="line2d_12">
      <g>
       <use style="stroke:#000000;stroke-width:0.6;" x="95.698286" xlink:href="#m970e1e7a3b" y="294.88"/>
      </g>
     </g>
    </g>
    <g id="xtick_7">
     <g id="line2d_13">
      <path clip-path="url(#p2b5fc8a027)" d="M 135.276571 294.88 
L 135.276571 6.845228 
" style="fill:none;stroke:#b0b0b0;stroke-linecap:square;stroke-width:0.8;"/>
     </g>
     <g id="line2d_14">
      <g>
       <use style="stroke:#000000;stroke-width:0.6;" x="135.276571" xlink:href="#m970e1e7a3b" y="294.88"/>
      </g>
     </g>
    </g>
    <g id="xtick_8">
     <g id="line2d_15">
      <path clip-path="url(#p2b5fc8a027)" d="M 174.854857 294.88 
L 174.854857 6.845228 
" style="fill:none;stroke:#b0b0b0;stroke-linecap:square;stroke-width:0.8;"/>
     </g>
     <g id="line2d_16">
      <g>
       <use style="stroke:#000000;stroke-width:0.6;" x="174.854857" xlink:href="#m970e1e7a3b" y="294.88"/>
      </g>
     </g>
    </g>
    <g id="xtick_9">
     <g id="line2d_17">
      <path clip-path="url(#p2b5fc8a027)" d="M 214.433143 294.88 
L 214.433143 6.845228 
" style="fill:none;stroke:#b0b0b0;stroke-linecap:square;stroke-width:0.8;"/>
     </g>
     <g id="line2d_18">
      <g>
       <use style="stroke:#000000;stroke-width:0.6;" x="214.433143" xlink:href="#m970e1e7a3b" y="294.88"/>
      </g>
     </g>
    </g>
    <g id="xtick_10">
     <g id="line2d_19">
      <path clip-path="url(#p2b5fc8a027)" d="M 254.011429 294.88 
L 254.011429 6.845228 
" style="fill:none;stroke:#b0b0b0;stroke-linecap:square;stroke-width:0.8;"/>
     </g>
     <g id="line2d_20">
      <g>
       <use style="stroke:#000000;stroke-width:0.6;" x="254.011429" xlink:href="#m970e1e7a3b" y="294.88"/>
      </g>
     </g>
    </g>
    <g id="xtick_11">
     <g id="line2d_21">
      <path clip-path="url(#p2b5fc8a027)" d="M 293.589714 294.88 
L 293.589714 6.845228 
" style="fill:none;stroke:#b0b0b0;stroke-linecap:square;stroke-width:0.8;"/>
     </g>
     <g id="line2d_22">
      <g>
       <use style="stroke:#000000;stroke-width:0.6;" x="293.589714" xlink:href="#m970e1e7a3b" y="294.88"/>
      </g>
     </g>
    </g>
    <g id="xtick_12">
     <g id="line2d_23">
      <path clip-path="url(#p2b5fc8a027)" d="M 333.168 294.88 
L 333.168 6.845228 
" style="fill:none;stroke:#b0b0b0;stroke-linecap:square;stroke-width:0.8;"/>
     </g>
     <g id="line2d_24">
      <g>
       <use style="stroke:#000000;stroke-width:0.6;" x="333.168" xlink:href="#m970e1e7a3b" y="294.88"/>
      </g>
     </g>
    </g>
    <g id="text_5">
     <!-- log10(# f-evals / dimension) -->
     <defs>
      <path d="M 9.421875 75.984375 
L 18.40625 75.984375 
L 18.40625 0 
L 9.421875 0 
z
" id="DejaVuSans-6c"/>
      <path d="M 30.609375 48.390625 
Q 23.390625 48.390625 19.1875 42.75 
Q 14.984375 37.109375 14.984375 27.296875 
Q 14.984375 17.484375 19.15625 11.84375 
Q 23.34375 6.203125 30.609375 6.203125 
Q 37.796875 6.203125 41.984375 11.859375 
Q 46.1875 17.53125 46.1875 27.296875 
Q 46.1875 37.015625 41.984375 42.703125 
Q 37.796875 48.390625 30.609375 48.390625 
z
M 30.609375 56 
Q 42.328125 56 49.015625 48.375 
Q 55.71875 40.765625 55.71875 27.296875 
Q 55.71875 13.875 49.015625 6.21875 
Q 42.328125 -1.421875 30.609375 -1.421875 
Q 18.84375 -1.421875 12.171875 6.21875 
Q 5.515625 13.875 5.515625 27.296875 
Q 5.515625 40.765625 12.171875 48.375 
Q 18.84375 56 30.609375 56 
z
" id="DejaVuSans-6f"/>
      <path d="M 45.40625 27.984375 
Q 45.40625 37.75 41.375 43.109375 
Q 37.359375 48.484375 30.078125 48.484375 
Q 22.859375 48.484375 18.828125 43.109375 
Q 14.796875 37.75 14.796875 27.984375 
Q 14.796875 18.265625 18.828125 12.890625 
Q 22.859375 7.515625 30.078125 7.515625 
Q 37.359375 7.515625 41.375 12.890625 
Q 45.40625 18.265625 45.40625 27.984375 
z
M 54.390625 6.78125 
Q 54.390625 -7.171875 48.1875 -13.984375 
Q 42 -20.796875 29.203125 -20.796875 
Q 24.46875 -20.796875 20.265625 -20.09375 
Q 16.0625 -19.390625 12.109375 -17.921875 
L 12.109375 -9.1875 
Q 16.0625 -11.328125 19.921875 -12.34375 
Q 23.78125 -13.375 27.78125 -13.375 
Q 36.625 -13.375 41.015625 -8.765625 
Q 45.40625 -4.15625 45.40625 5.171875 
L 45.40625 9.625 
Q 42.625 4.78125 38.28125 2.390625 
Q 33.9375 0 27.875 0 
Q 17.828125 0 11.671875 7.65625 
Q 5.515625 15.328125 5.515625 27.984375 
Q 5.515625 40.671875 11.671875 48.328125 
Q 17.828125 56 27.875 56 
Q 33.9375 56 38.28125 53.609375 
Q 42.625 51.21875 45.40625 46.390625 
L 45.40625 54.6875 
L 54.390625 54.6875 
z
" id="DejaVuSans-67"/>
      <path d="M 12.40625 8.296875 
L 28.515625 8.296875 
L 28.515625 63.921875 
L 10.984375 60.40625 
L 10.984375 69.390625 
L 28.421875 72.90625 
L 38.28125 72.90625 
L 38.28125 8.296875 
L 54.390625 8.296875 
L 54.390625 0 
L 12.40625 0 
z
" id="DejaVuSans-31"/>
      <path d="M 31 75.875 
Q 24.46875 64.65625 21.28125 53.65625 
Q 18.109375 42.671875 18.109375 31.390625 
Q 18.109375 20.125 21.3125 9.0625 
Q 24.515625 -2 31 -13.1875 
L 23.1875 -13.1875 
Q 15.875 -1.703125 12.234375 9.375 
Q 8.59375 20.453125 8.59375 31.390625 
Q 8.59375 42.28125 12.203125 53.3125 
Q 15.828125 64.359375 23.1875 75.875 
z
" id="DejaVuSans-28"/>
      <path d="M 51.125 44 
L 36.921875 44 
L 32.8125 27.6875 
L 47.125 27.6875 
z
M 43.796875 71.78125 
L 38.71875 51.515625 
L 52.984375 51.515625 
L 58.109375 71.78125 
L 65.921875 71.78125 
L 60.890625 51.515625 
L 76.125 51.515625 
L 76.125 44 
L 58.984375 44 
L 54.984375 27.6875 
L 70.515625 27.6875 
L 70.515625 20.21875 
L 53.078125 20.21875 
L 48 0 
L 40.1875 0 
L 45.21875 20.21875 
L 30.90625 20.21875 
L 25.875 0 
L 18.015625 0 
L 23.09375 20.21875 
L 7.71875 20.21875 
L 7.71875 27.6875 
L 24.90625 27.6875 
L 29 44 
L 13.28125 44 
L 13.28125 51.515625 
L 30.90625 51.515625 
L 35.890625 71.78125 
z
" id="DejaVuSans-23"/>
      <path id="DejaVuSans-20"/>
      <path d="M 37.109375 75.984375 
L 37.109375 68.5 
L 28.515625 68.5 
Q 23.6875 68.5 21.796875 66.546875 
Q 19.921875 64.59375 19.921875 59.515625 
L 19.921875 54.6875 
L 34.71875 54.6875 
L 34.71875 47.703125 
L 19.921875 47.703125 
L 19.921875 0 
L 10.890625 0 
L 10.890625 47.703125 
L 2.296875 47.703125 
L 2.296875 54.6875 
L 10.890625 54.6875 
L 10.890625 58.5 
Q 10.890625 67.625 15.140625 71.796875 
Q 19.390625 75.984375 28.609375 75.984375 
z
" id="DejaVuSans-66"/>
      <path d="M 4.890625 31.390625 
L 31.203125 31.390625 
L 31.203125 23.390625 
L 4.890625 23.390625 
z
" id="DejaVuSans-2d"/>
      <path d="M 56.203125 29.59375 
L 56.203125 25.203125 
L 14.890625 25.203125 
Q 15.484375 15.921875 20.484375 11.0625 
Q 25.484375 6.203125 34.421875 6.203125 
Q 39.59375 6.203125 44.453125 7.46875 
Q 49.3125 8.734375 54.109375 11.28125 
L 54.109375 2.78125 
Q 49.265625 0.734375 44.1875 -0.34375 
Q 39.109375 -1.421875 33.890625 -1.421875 
Q 20.796875 -1.421875 13.15625 6.1875 
Q 5.515625 13.8125 5.515625 26.8125 
Q 5.515625 40.234375 12.765625 48.109375 
Q 20.015625 56 32.328125 56 
Q 43.359375 56 49.78125 48.890625 
Q 56.203125 41.796875 56.203125 29.59375 
z
M 47.21875 32.234375 
Q 47.125 39.59375 43.09375 43.984375 
Q 39.0625 48.390625 32.421875 48.390625 
Q 24.90625 48.390625 20.390625 44.140625 
Q 15.875 39.890625 15.1875 32.171875 
z
" id="DejaVuSans-65"/>
      <path d="M 2.984375 54.6875 
L 12.5 54.6875 
L 29.59375 8.796875 
L 46.6875 54.6875 
L 56.203125 54.6875 
L 35.6875 0 
L 23.484375 0 
z
" id="DejaVuSans-76"/>
      <path d="M 34.28125 27.484375 
Q 23.390625 27.484375 19.1875 25 
Q 14.984375 22.515625 14.984375 16.5 
Q 14.984375 11.71875 18.140625 8.90625 
Q 21.296875 6.109375 26.703125 6.109375 
Q 34.1875 6.109375 38.703125 11.40625 
Q 43.21875 16.703125 43.21875 25.484375 
L 43.21875 27.484375 
z
M 52.203125 31.203125 
L 52.203125 0 
L 43.21875 0 
L 43.21875 8.296875 
Q 40.140625 3.328125 35.546875 0.953125 
Q 30.953125 -1.421875 24.3125 -1.421875 
Q 15.921875 -1.421875 10.953125 3.296875 
Q 6 8.015625 6 15.921875 
Q 6 25.140625 12.171875 29.828125 
Q 18.359375 34.515625 30.609375 34.515625 
L 43.21875 34.515625 
L 43.21875 35.40625 
Q 43.21875 41.609375 39.140625 45 
Q 35.0625 48.390625 27.6875 48.390625 
Q 23 48.390625 18.546875 47.265625 
Q 14.109375 46.140625 10.015625 43.890625 
L 10.015625 52.203125 
Q 14.9375 54.109375 19.578125 55.046875 
Q 24.21875 56 28.609375 56 
Q 40.484375 56 46.34375 49.84375 
Q 52.203125 43.703125 52.203125 31.203125 
z
" id="DejaVuSans-61"/>
      <path d="M 44.28125 53.078125 
L 44.28125 44.578125 
Q 40.484375 46.53125 36.375 47.5 
Q 32.28125 48.484375 27.875 48.484375 
Q 21.1875 48.484375 17.84375 46.4375 
Q 14.5 44.390625 14.5 40.28125 
Q 14.5 37.15625 16.890625 35.375 
Q 19.28125 33.59375 26.515625 31.984375 
L 29.59375 31.296875 
Q 39.15625 29.25 43.1875 25.515625 
Q 47.21875 21.78125 47.21875 15.09375 
Q 47.21875 7.46875 41.1875 3.015625 
Q 35.15625 -1.421875 24.609375 -1.421875 
Q 20.21875 -1.421875 15.453125 -0.5625 
Q 10.6875 0.296875 5.421875 2 
L 5.421875 11.28125 
Q 10.40625 8.6875 15.234375 7.390625 
Q 20.0625 6.109375 24.8125 6.109375 
Q 31.15625 6.109375 34.5625 8.28125 
Q 37.984375 10.453125 37.984375 14.40625 
Q 37.984375 18.0625 35.515625 20.015625 
Q 33.0625 21.96875 24.703125 23.78125 
L 21.578125 24.515625 
Q 13.234375 26.265625 9.515625 29.90625 
Q 5.8125 33.546875 5.8125 39.890625 
Q 5.8125 47.609375 11.28125 51.796875 
Q 16.75 56 26.8125 56 
Q 31.78125 56 36.171875 55.265625 
Q 40.578125 54.546875 44.28125 53.078125 
z
" id="DejaVuSans-73"/>
      <path d="M 25.390625 72.90625 
L 33.6875 72.90625 
L 8.296875 -9.28125 
L 0 -9.28125 
z
" id="DejaVuSans-2f"/>
      <path d="M 45.40625 46.390625 
L 45.40625 75.984375 
L 54.390625 75.984375 
L 54.390625 0 
L 45.40625 0 
L 45.40625 8.203125 
Q 42.578125 3.328125 38.25 0.953125 
Q 33.9375 -1.421875 27.875 -1.421875 
Q 17.96875 -1.421875 11.734375 6.484375 
Q 5.515625 14.40625 5.515625 27.296875 
Q 5.515625 40.1875 11.734375 48.09375 
Q 17.96875 56 27.875 56 
Q 33.9375 56 38.25 53.625 
Q 42.578125 51.265625 45.40625 46.390625 
z
M 14.796875 27.296875 
Q 14.796875 17.390625 18.875 11.75 
Q 22.953125 6.109375 30.078125 6.109375 
Q 37.203125 6.109375 41.296875 11.75 
Q 45.40625 17.390625 45.40625 27.296875 
Q 45.40625 37.203125 41.296875 42.84375 
Q 37.203125 48.484375 30.078125 48.484375 
Q 22.953125 48.484375 18.875 42.84375 
Q 14.796875 37.203125 14.796875 27.296875 
z
" id="DejaVuSans-64"/>
      <path d="M 9.421875 54.6875 
L 18.40625 54.6875 
L 18.40625 0 
L 9.421875 0 
z
M 9.421875 75.984375 
L 18.40625 75.984375 
L 18.40625 64.59375 
L 9.421875 64.59375 
z
" id="DejaVuSans-69"/>
      <path d="M 52 44.1875 
Q 55.375 50.25 60.0625 53.125 
Q 64.75 56 71.09375 56 
Q 79.640625 56 84.28125 50.015625 
Q 88.921875 44.046875 88.921875 33.015625 
L 88.921875 0 
L 79.890625 0 
L 79.890625 32.71875 
Q 79.890625 40.578125 77.09375 44.375 
Q 74.3125 48.1875 68.609375 48.1875 
Q 61.625 48.1875 57.5625 43.546875 
Q 53.515625 38.921875 53.515625 30.90625 
L 53.515625 0 
L 44.484375 0 
L 44.484375 32.71875 
Q 44.484375 40.625 41.703125 44.40625 
Q 38.921875 48.1875 33.109375 48.1875 
Q 26.21875 48.1875 22.15625 43.53125 
Q 18.109375 38.875 18.109375 30.90625 
L 18.109375 0 
L 9.078125 0 
L 9.078125 54.6875 
L 18.109375 54.6875 
L 18.109375 46.1875 
Q 21.1875 51.21875 25.484375 53.609375 
Q 29.78125 56 35.6875 56 
Q 41.65625 56 45.828125 52.96875 
Q 50 49.953125 52 44.1875 
z
" id="DejaVuSans-6d"/>
      <path d="M 54.890625 33.015625 
L 54.890625 0 
L 45.90625 0 
L 45.90625 32.71875 
Q 45.90625 40.484375 42.875 44.328125 
Q 39.84375 48.1875 33.796875 48.1875 
Q 26.515625 48.1875 22.3125 43.546875 
Q 18.109375 38.921875 18.109375 30.90625 
L 18.109375 0 
L 9.078125 0 
L 9.078125 54.6875 
L 18.109375 54.6875 
L 18.109375 46.1875 
Q 21.34375 51.125 25.703125 53.5625 
Q 30.078125 56 35.796875 56 
Q 45.21875 56 50.046875 50.171875 
Q 54.890625 44.34375 54.890625 33.015625 
z
" id="DejaVuSans-6e"/>
      <path d="M 8.015625 75.875 
L 15.828125 75.875 
Q 23.140625 64.359375 26.78125 53.3125 
Q 30.421875 42.28125 30.421875 31.390625 
Q 30.421875 20.453125 26.78125 9.375 
Q 23.140625 -1.703125 15.828125 -13.1875 
L 8.015625 -13.1875 
Q 14.5 -2 17.703125 9.0625 
Q 20.90625 20.125 20.90625 31.390625 
Q 20.90625 42.671875 17.703125 53.65625 
Q 14.5 64.65625 8.015625 75.875 
z
" id="DejaVuSans-29"/>
     </defs>
     <g transform="translate(73.803219 338.153594)scale(0.17 -0.17)">
      <use xlink:href="#DejaVuSans-6c"/>
      <use x="27.783203" xlink:href="#DejaVuSans-6f"/>
      <use x="88.964844" xlink:href="#DejaVuSans-67"/>
      <use x="152.441406" xlink:href="#DejaVuSans-31"/>
      <use x="216.064453" xlink:href="#DejaVuSans-30"/>
      <use x="279.6875" xlink:href="#DejaVuSans-28"/>
      <use x="318.701172" xlink:href="#DejaVuSans-23"/>
      <use x="402.490234" xlink:href="#DejaVuSans-20"/>
      <use x="434.277344" xlink:href="#DejaVuSans-66"/>
      <use x="469.404297" xlink:href="#DejaVuSans-2d"/>
      <use x="505.488281" xlink:href="#DejaVuSans-65"/>
      <use x="567.011719" xlink:href="#DejaVuSans-76"/>
      <use x="626.191406" xlink:href="#DejaVuSans-61"/>
      <use x="687.470703" xlink:href="#DejaVuSans-6c"/>
      <use x="715.253906" xlink:href="#DejaVuSans-73"/>
      <use x="767.353516" xlink:href="#DejaVuSans-20"/>
      <use x="799.140625" xlink:href="#DejaVuSans-2f"/>
      <use x="832.832031" xlink:href="#DejaVuSans-20"/>
      <use x="864.619141" xlink:href="#DejaVuSans-64"/>
      <use x="928.095703" xlink:href="#DejaVuSans-69"/>
      <use x="955.878906" xlink:href="#DejaVuSans-6d"/>
      <use x="1053.291016" xlink:href="#DejaVuSans-65"/>
      <use x="1114.814453" xlink:href="#DejaVuSans-6e"/>
      <use x="1178.193359" xlink:href="#DejaVuSans-73"/>
      <use x="1230.292969" xlink:href="#DejaVuSans-69"/>
      <use x="1258.076172" xlink:href="#DejaVuSans-6f"/>
      <use x="1319.257812" xlink:href="#DejaVuSans-6e"/>
      <use x="1382.636719" xlink:href="#DejaVuSans-29"/>
     </g>
    </g>
   </g>
   <g id="matplotlib.axis_2">
    <g id="ytick_1">
     <g id="line2d_25">
      <path clip-path="url(#p2b5fc8a027)" d="M 56.12 294.88 
L 333.168 294.88 
" style="fill:none;stroke:#b0b0b0;stroke-linecap:square;stroke-width:0.8;"/>
     </g>
     <g id="line2d_26">
      <defs>
       <path d="M 0 0 
L -3.5 0 
" id="mc90a10c118" style="stroke:#000000;stroke-width:0.8;"/>
      </defs>
      <g>
       <use style="stroke:#000000;stroke-width:0.8;" x="56.12" xlink:href="#mc90a10c118" y="294.88"/>
      </g>
     </g>
     <g id="text_6">
      <!-- 0.0 -->
      <defs>
       <path d="M 10.6875 12.40625 
L 21 12.40625 
L 21 0 
L 10.6875 0 
z
" id="DejaVuSans-2e"/>
      </defs>
      <g transform="translate(23.675 300.95875)scale(0.16 -0.16)">
       <use xlink:href="#DejaVuSans-30"/>
       <use x="63.623047" xlink:href="#DejaVuSans-2e"/>
       <use x="95.410156" xlink:href="#DejaVuSans-30"/>
      </g>
     </g>
    </g>
    <g id="ytick_2">
     <g id="line2d_27">
      <path clip-path="url(#p2b5fc8a027)" d="M 56.12 237.843411 
L 333.168 237.843411 
" style="fill:none;stroke:#b0b0b0;stroke-linecap:square;stroke-width:0.8;"/>
     </g>
     <g id="line2d_28">
      <g>
       <use style="stroke:#000000;stroke-width:0.8;" x="56.12" xlink:href="#mc90a10c118" y="237.843411"/>
      </g>
     </g>
     <g id="text_7">
      <!-- 0.2 -->
      <g transform="translate(23.675 243.922161)scale(0.16 -0.16)">
       <use xlink:href="#DejaVuSans-30"/>
       <use x="63.623047" xlink:href="#DejaVuSans-2e"/>
       <use x="95.410156" xlink:href="#DejaVuSans-32"/>
      </g>
     </g>
    </g>
    <g id="ytick_3">
     <g id="line2d_29">
      <path clip-path="url(#p2b5fc8a027)" d="M 56.12 180.806823 
L 333.168 180.806823 
" style="fill:none;stroke:#b0b0b0;stroke-linecap:square;stroke-width:0.8;"/>
     </g>
     <g id="line2d_30">
      <g>
       <use style="stroke:#000000;stroke-width:0.8;" x="56.12" xlink:href="#mc90a10c118" y="180.806823"/>
      </g>
     </g>
     <g id="text_8">
      <!-- 0.4 -->
      <g transform="translate(23.675 186.885573)scale(0.16 -0.16)">
       <use xlink:href="#DejaVuSans-30"/>
       <use x="63.623047" xlink:href="#DejaVuSans-2e"/>
       <use x="95.410156" xlink:href="#DejaVuSans-34"/>
      </g>
     </g>
    </g>
    <g id="ytick_4">
     <g id="line2d_31">
      <path clip-path="url(#p2b5fc8a027)" d="M 56.12 123.770234 
L 333.168 123.770234 
" style="fill:none;stroke:#b0b0b0;stroke-linecap:square;stroke-width:0.8;"/>
     </g>
     <g id="line2d_32">
      <g>
       <use style="stroke:#000000;stroke-width:0.8;" x="56.12" xlink:href="#mc90a10c118" y="123.770234"/>
      </g>
     </g>
     <g id="text_9">
      <!-- 0.6 -->
      <g transform="translate(23.675 129.848984)scale(0.16 -0.16)">
       <use xlink:href="#DejaVuSans-30"/>
       <use x="63.623047" xlink:href="#DejaVuSans-2e"/>
       <use x="95.410156" xlink:href="#DejaVuSans-36"/>
      </g>
     </g>
    </g>
    <g id="ytick_5">
     <g id="line2d_33">
      <path clip-path="url(#p2b5fc8a027)" d="M 56.12 66.733646 
L 333.168 66.733646 
" style="fill:none;stroke:#b0b0b0;stroke-linecap:square;stroke-width:0.8;"/>
     </g>
     <g id="line2d_34">
      <g>
       <use style="stroke:#000000;stroke-width:0.8;" x="56.12" xlink:href="#mc90a10c118" y="66.733646"/>
      </g>
     </g>
     <g id="text_10">
      <!-- 0.8 -->
      <defs>
       <path d="M 31.78125 34.625 
Q 24.75 34.625 20.71875 30.859375 
Q 16.703125 27.09375 16.703125 20.515625 
Q 16.703125 13.921875 20.71875 10.15625 
Q 24.75 6.390625 31.78125 6.390625 
Q 38.8125 6.390625 42.859375 10.171875 
Q 46.921875 13.96875 46.921875 20.515625 
Q 46.921875 27.09375 42.890625 30.859375 
Q 38.875 34.625 31.78125 34.625 
z
M 21.921875 38.8125 
Q 15.578125 40.375 12.03125 44.71875 
Q 8.5 49.078125 8.5 55.328125 
Q 8.5 64.0625 14.71875 69.140625 
Q 20.953125 74.21875 31.78125 74.21875 
Q 42.671875 74.21875 48.875 69.140625 
Q 55.078125 64.0625 55.078125 55.328125 
Q 55.078125 49.078125 51.53125 44.71875 
Q 48 40.375 41.703125 38.8125 
Q 48.828125 37.15625 52.796875 32.3125 
Q 56.78125 27.484375 56.78125 20.515625 
Q 56.78125 9.90625 50.3125 4.234375 
Q 43.84375 -1.421875 31.78125 -1.421875 
Q 19.734375 -1.421875 13.25 4.234375 
Q 6.78125 9.90625 6.78125 20.515625 
Q 6.78125 27.484375 10.78125 32.3125 
Q 14.796875 37.15625 21.921875 38.8125 
z
M 18.3125 54.390625 
Q 18.3125 48.734375 21.84375 45.5625 
Q 25.390625 42.390625 31.78125 42.390625 
Q 38.140625 42.390625 41.71875 45.5625 
Q 45.3125 48.734375 45.3125 54.390625 
Q 45.3125 60.0625 41.71875 63.234375 
Q 38.140625 66.40625 31.78125 66.40625 
Q 25.390625 66.40625 21.84375 63.234375 
Q 18.3125 60.0625 18.3125 54.390625 
z
" id="DejaVuSans-38"/>
      </defs>
      <g transform="translate(23.675 72.812396)scale(0.16 -0.16)">
       <use xlink:href="#DejaVuSans-30"/>
       <use x="63.623047" xlink:href="#DejaVuSans-2e"/>
       <use x="95.410156" xlink:href="#DejaVuSans-38"/>
      </g>
     </g>
    </g>
    <g id="ytick_6">
     <g id="line2d_35">
      <path clip-path="url(#p2b5fc8a027)" d="M 56.12 9.697057 
L 333.168 9.697057 
" style="fill:none;stroke:#b0b0b0;stroke-linecap:square;stroke-width:0.8;"/>
     </g>
     <g id="line2d_36">
      <g>
       <use style="stroke:#000000;stroke-width:0.8;" x="56.12" xlink:href="#mc90a10c118" y="9.697057"/>
      </g>
     </g>
     <g id="text_11">
      <!-- 1.0 -->
      <g transform="translate(23.675 15.775807)scale(0.16 -0.16)">
       <use xlink:href="#DejaVuSans-31"/>
       <use x="63.623047" xlink:href="#DejaVuSans-2e"/>
       <use x="95.410156" xlink:href="#DejaVuSans-30"/>
      </g>
     </g>
    </g>
    <g id="text_12">
     <!-- Fraction of function,target pairs -->
     <defs>
      <path d="M 9.8125 72.90625 
L 51.703125 72.90625 
L 51.703125 64.59375 
L 19.671875 64.59375 
L 19.671875 43.109375 
L 48.578125 43.109375 
L 48.578125 34.8125 
L 19.671875 34.8125 
L 19.671875 0 
L 9.8125 0 
z
" id="DejaVuSans-46"/>
      <path d="M 41.109375 46.296875 
Q 39.59375 47.171875 37.8125 47.578125 
Q 36.03125 48 33.890625 48 
Q 26.265625 48 22.1875 43.046875 
Q 18.109375 38.09375 18.109375 28.8125 
L 18.109375 0 
L 9.078125 0 
L 9.078125 54.6875 
L 18.109375 54.6875 
L 18.109375 46.1875 
Q 20.953125 51.171875 25.484375 53.578125 
Q 30.03125 56 36.53125 56 
Q 37.453125 56 38.578125 55.875 
Q 39.703125 55.765625 41.0625 55.515625 
z
" id="DejaVuSans-72"/>
      <path d="M 48.78125 52.59375 
L 48.78125 44.1875 
Q 44.96875 46.296875 41.140625 47.34375 
Q 37.3125 48.390625 33.40625 48.390625 
Q 24.65625 48.390625 19.8125 42.84375 
Q 14.984375 37.3125 14.984375 27.296875 
Q 14.984375 17.28125 19.8125 11.734375 
Q 24.65625 6.203125 33.40625 6.203125 
Q 37.3125 6.203125 41.140625 7.25 
Q 44.96875 8.296875 48.78125 10.40625 
L 48.78125 2.09375 
Q 45.015625 0.34375 40.984375 -0.53125 
Q 36.96875 -1.421875 32.421875 -1.421875 
Q 20.0625 -1.421875 12.78125 6.34375 
Q 5.515625 14.109375 5.515625 27.296875 
Q 5.515625 40.671875 12.859375 48.328125 
Q 20.21875 56 33.015625 56 
Q 37.15625 56 41.109375 55.140625 
Q 45.0625 54.296875 48.78125 52.59375 
z
" id="DejaVuSans-63"/>
      <path d="M 18.3125 70.21875 
L 18.3125 54.6875 
L 36.8125 54.6875 
L 36.8125 47.703125 
L 18.3125 47.703125 
L 18.3125 18.015625 
Q 18.3125 11.328125 20.140625 9.421875 
Q 21.96875 7.515625 27.59375 7.515625 
L 36.8125 7.515625 
L 36.8125 0 
L 27.59375 0 
Q 17.1875 0 13.234375 3.875 
Q 9.28125 7.765625 9.28125 18.015625 
L 9.28125 47.703125 
L 2.6875 47.703125 
L 2.6875 54.6875 
L 9.28125 54.6875 
L 9.28125 70.21875 
z
" id="DejaVuSans-74"/>
      <path d="M 8.5 21.578125 
L 8.5 54.6875 
L 17.484375 54.6875 
L 17.484375 21.921875 
Q 17.484375 14.15625 20.5 10.265625 
Q 23.53125 6.390625 29.59375 6.390625 
Q 36.859375 6.390625 41.078125 11.03125 
Q 45.3125 15.671875 45.3125 23.6875 
L 45.3125 54.6875 
L 54.296875 54.6875 
L 54.296875 0 
L 45.3125 0 
L 45.3125 8.40625 
Q 42.046875 3.421875 37.71875 1 
Q 33.40625 -1.421875 27.6875 -1.421875 
Q 18.265625 -1.421875 13.375 4.4375 
Q 8.5 10.296875 8.5 21.578125 
z
M 31.109375 56 
z
" id="DejaVuSans-75"/>
      <path d="M 11.71875 12.40625 
L 22.015625 12.40625 
L 22.015625 4 
L 14.015625 -11.625 
L 7.71875 -11.625 
L 11.71875 4 
z
" id="DejaVuSans-2c"/>
      <path d="M 18.109375 8.203125 
L 18.109375 -20.796875 
L 9.078125 -20.796875 
L 9.078125 54.6875 
L 18.109375 54.6875 
L 18.109375 46.390625 
Q 20.953125 51.265625 25.265625 53.625 
Q 29.59375 56 35.59375 56 
Q 45.5625 56 51.78125 48.09375 
Q 58.015625 40.1875 58.015625 27.296875 
Q 58.015625 14.40625 51.78125 6.484375 
Q 45.5625 -1.421875 35.59375 -1.421875 
Q 29.59375 -1.421875 25.265625 0.953125 
Q 20.953125 3.328125 18.109375 8.203125 
z
M 48.6875 27.296875 
Q 48.6875 37.203125 44.609375 42.84375 
Q 40.53125 48.484375 33.40625 48.484375 
Q 26.265625 48.484375 22.1875 42.84375 
Q 18.109375 37.203125 18.109375 27.296875 
Q 18.109375 17.390625 22.1875 11.75 
Q 26.265625 6.109375 33.40625 6.109375 
Q 40.53125 6.109375 44.609375 11.75 
Q 48.6875 17.390625 48.6875 27.296875 
z
" id="DejaVuSans-70"/>
     </defs>
     <g transform="translate(16.139531 286.001989)rotate(-90)scale(0.17 -0.17)">
      <use xlink:href="#DejaVuSans-46"/>
      <use x="57.410156" xlink:href="#DejaVuSans-72"/>
      <use x="98.523438" xlink:href="#DejaVuSans-61"/>
      <use x="159.802734" xlink:href="#DejaVuSans-63"/>
      <use x="214.783203" xlink:href="#DejaVuSans-74"/>
      <use x="253.992188" xlink:href="#DejaVuSans-69"/>
      <use x="281.775391" xlink:href="#DejaVuSans-6f"/>
      <use x="342.957031" xlink:href="#DejaVuSans-6e"/>
      <use x="406.335938" xlink:href="#DejaVuSans-20"/>
      <use x="438.123047" xlink:href="#DejaVuSans-6f"/>
      <use x="499.304688" xlink:href="#DejaVuSans-66"/>
      <use x="534.509766" xlink:href="#DejaVuSans-20"/>
      <use x="566.296875" xlink:href="#DejaVuSans-66"/>
      <use x="601.501953" xlink:href="#DejaVuSans-75"/>
      <use x="664.880859" xlink:href="#DejaVuSans-6e"/>
      <use x="728.259766" xlink:href="#DejaVuSans-63"/>
      <use x="783.240234" xlink:href="#DejaVuSans-74"/>
      <use x="822.449219" xlink:href="#DejaVuSans-69"/>
      <use x="850.232422" xlink:href="#DejaVuSans-6f"/>
      <use x="911.414062" xlink:href="#DejaVuSans-6e"/>
      <use x="974.792969" xlink:href="#DejaVuSans-2c"/>
      <use x="1006.580078" xlink:href="#DejaVuSans-74"/>
      <use x="1045.789062" xlink:href="#DejaVuSans-61"/>
      <use x="1107.068359" xlink:href="#DejaVuSans-72"/>
      <use x="1148.166016" xlink:href="#DejaVuSans-67"/>
      <use x="1211.642578" xlink:href="#DejaVuSans-65"/>
      <use x="1273.166016" xlink:href="#DejaVuSans-74"/>
      <use x="1312.375" xlink:href="#DejaVuSans-20"/>
      <use x="1344.162109" xlink:href="#DejaVuSans-70"/>
      <use x="1407.638672" xlink:href="#DejaVuSans-61"/>
      <use x="1468.917969" xlink:href="#DejaVuSans-69"/>
      <use x="1496.701172" xlink:href="#DejaVuSans-72"/>
      <use x="1537.814453" xlink:href="#DejaVuSans-73"/>
     </g>
    </g>
   </g>
   <g id="line2d_37">
    <defs>
     <path d="M 0 1.5 
C 0.397805 1.5 0.77937 1.341951 1.06066 1.06066 
C 1.341951 0.77937 1.5 0.397805 1.5 0 
C 1.5 -0.397805 1.341951 -0.77937 1.06066 -1.06066 
C 0.77937 -1.341951 0.397805 -1.5 0 -1.5 
C -0.397805 -1.5 -0.77937 -1.341951 -1.06066 -1.06066 
C -1.341951 -0.77937 -1.5 -0.397805 -1.5 0 
C -1.5 0.397805 -1.341951 0.77937 -1.06066 1.06066 
C -0.77937 1.341951 -0.397805 1.5 0 1.5 
z
" id="mf403483438" style="stroke:#000080;"/>
    </defs>
    <g>
     <use style="fill:#000080;stroke:#000080;" x="191.063695" xlink:href="#mf403483438" y="9.697057"/>
     <use style="fill:#000080;stroke:#000080;" x="191.063695" xlink:href="#mf403483438" y="9.697057"/>
    </g>
   </g>
   <g id="line2d_38">
    <path d="M 37.236359 294.88 
L 37.236359 293.761636 
L 78.452896 293.761636 
L 78.452896 292.643271 
L 100.643147 292.643271 
L 100.643147 292.084089 
L 102.667676 292.084089 
L 102.667676 291.524907 
L 105.801534 291.524907 
L 105.801534 290.406542 
L 106.426644 290.406542 
L 106.426644 289.84736 
L 108.176149 289.84736 
L 108.176149 286.492266 
L 111.675736 286.492266 
L 111.675736 285.933084 
L 120.0904 285.933084 
L 120.0904 285.373902 
L 121.929105 285.373902 
L 121.929105 283.696355 
L 122.420242 283.696355 
L 122.420242 282.577991 
L 125.000572 282.577991 
L 125.000572 282.018808 
L 128.898495 282.018808 
L 128.898495 280.900444 
L 129.788458 280.900444 
L 129.867125 279.782079 
L 133.144276 279.782079 
L 133.144276 279.222897 
L 133.337771 279.222897 
L 133.337771 278.663715 
L 134.753019 278.663715 
L 134.753019 277.545351 
L 134.929315 277.545351 
L 134.929315 276.426986 
L 135.10382 276.426986 
L 135.10382 272.51271 
L 136.705203 272.51271 
L 136.757848 270.275981 
L 137.578954 270.275981 
L 137.578954 268.598435 
L 138.505658 268.598435 
L 138.505658 268.039252 
L 139.60905 268.039252 
L 139.60905 266.920888 
L 140.60389 266.920888 
L 140.60389 265.243341 
L 140.729508 265.243341 
L 140.729508 264.124977 
L 141.019094 264.124977 
L 141.019094 263.565795 
L 141.464526 263.565795 
L 141.464526 262.44743 
L 142.092491 262.44743 
L 142.130987 257.973972 
L 142.69832 257.973972 
L 142.69832 255.737243 
L 142.883345 255.737243 
L 142.883345 253.500514 
L 143.497935 253.500514 
L 143.497935 252.38215 
L 145.411621 252.38215 
L 145.411621 250.704603 
L 145.9126 250.704603 
L 145.9126 250.145421 
L 147.190823 250.145421 
L 147.190823 249.027056 
L 148.273273 249.027056 
L 148.273273 248.467874 
L 148.724584 248.467874 
L 148.724584 247.908692 
L 149.11319 247.908692 
L 149.138788 246.790327 
L 149.417871 246.790327 
L 149.417871 245.112781 
L 149.938403 245.112781 
L 150.011494 243.435234 
L 150.06005 243.435234 
L 150.06005 242.876052 
L 152.242778 242.876052 
L 152.242778 242.316869 
L 152.518141 242.316869 
L 152.560116 240.639323 
L 153.096659 240.639323 
L 153.096659 240.08014 
L 153.258436 240.08014 
L 153.258436 238.961776 
L 154.064454 238.961776 
L 154.121973 236.725047 
L 154.649736 236.725047 
L 154.68682 235.606682 
L 154.925938 235.606682 
L 154.925938 235.0475 
L 155.659002 235.0475 
L 155.659002 234.488318 
L 155.815818 234.488318 
L 155.815818 233.929136 
L 156.294736 233.929136 
L 156.311596 232.251589 
L 157.053666 232.251589 
L 157.053666 231.692407 
L 157.546849 231.692407 
L 157.546849 231.133225 
L 158.358579 231.133225 
L 158.358579 230.01486 
L 158.816182 230.01486 
L 158.830743 227.218949 
L 159.233507 227.218949 
L 159.233507 226.659767 
L 159.62705 226.659767 
L 159.696387 224.423038 
L 159.820493 224.423038 
L 159.820493 223.863855 
L 160.625729 223.863855 
L 160.625729 223.304673 
L 161.129603 223.304673 
L 161.129603 222.745491 
L 161.828221 222.745491 
L 161.828221 222.186309 
L 162.452458 222.186309 
L 162.452458 221.067944 
L 162.906194 221.067944 
L 162.906194 219.94958 
L 163.24725 219.94958 
L 163.24725 218.831215 
L 164.157029 218.831215 
L 164.157029 218.272033 
L 164.337573 218.272033 
L 164.337573 217.712851 
L 164.474367 217.712851 
L 164.537137 214.91694 
L 165.332955 214.91694 
L 165.332955 214.357757 
L 165.481861 214.357757 
L 165.481861 213.798575 
L 166.433558 213.798575 
L 166.480253 212.121028 
L 166.985703 212.121028 
L 166.985703 210.443482 
L 167.65184 210.443482 
L 167.66055 208.765935 
L 167.936956 208.765935 
L 167.936956 207.64757 
L 168.098993 207.64757 
L 168.098993 206.529206 
L 168.376846 206.529206 
L 168.376846 205.970024 
L 168.592641 205.970024 
L 168.592641 205.410841 
L 168.846443 205.410841 
L 168.870806 204.292477 
L 168.959846 204.292477 
L 169.000166 203.174112 
L 169.717942 203.174112 
L 169.717942 202.61493 
L 170.325109 202.61493 
L 170.325109 202.055748 
L 170.657446 202.055748 
L 170.723149 199.819019 
L 171.033643 199.819019 
L 171.033643 199.259837 
L 171.190358 199.259837 
L 171.190358 198.700655 
L 171.303441 198.700655 
L 171.373742 197.023108 
L 171.741613 197.023108 
L 171.775915 195.904743 
L 171.898838 195.904743 
L 171.973527 194.786379 
L 172.229075 194.786379 
L 172.24242 193.108832 
L 172.408366 193.108832 
L 172.467717 190.312921 
L 172.716074 190.312921 
L 172.716074 189.753739 
L 172.96729 189.753739 
L 173.024745 188.076192 
L 173.164388 188.076192 
L 173.183342 185.839463 
L 173.296633 185.839463 
L 173.309175 181.925187 
L 173.681237 181.925187 
L 173.699631 179.129276 
L 173.827836 179.129276 
L 173.888552 175.215 
L 174.063425 175.215 
L 174.171078 172.419089 
L 174.218709 172.419089 
L 174.283986 170.741543 
L 174.360813 170.741543 
L 174.454901 166.268085 
L 174.728343 166.268085 
L 174.728343 165.708902 
L 174.900632 165.708902 
L 175.008863 162.353809 
L 175.059893 162.353809 
L 175.059893 161.794627 
L 175.290465 161.794627 
L 175.290465 160.676262 
L 175.418469 160.676262 
L 175.512472 158.439533 
L 175.666188 158.439533 
L 175.666188 157.880351 
L 175.948064 157.880351 
L 176.012461 156.202804 
L 176.081953 156.202804 
L 176.081953 153.406893 
L 176.278215 153.406893 
L 176.278215 152.288529 
L 176.508728 152.288529 
L 176.513931 151.170164 
L 176.633171 151.170164 
L 176.731053 149.492617 
L 176.746457 149.492617 
L 176.802822 147.815071 
L 176.894658 147.815071 
L 176.920082 145.019159 
L 177.00624 145.019159 
L 177.117103 138.308973 
L 177.142199 138.308973 
L 177.232244 133.276332 
L 177.39117 133.276332 
L 177.39117 132.71715 
L 177.60732 132.71715 
L 177.60732 132.157968 
L 178.036395 132.157968 
L 178.06494 130.480421 
L 178.15029 130.480421 
L 178.221094 127.68451 
L 178.286914 127.68451 
L 178.338455 126.566145 
L 178.468955 126.566145 
L 178.556947 120.415141 
L 178.603079 120.415141 
L 178.603079 118.737594 
L 178.754441 118.737594 
L 178.768135 117.060047 
L 178.927101 117.060047 
L 179.035263 113.704954 
L 179.12041 113.704954 
L 179.133816 110.909043 
L 179.236249 110.909043 
L 179.342489 108.113132 
L 179.390963 108.113132 
L 179.487504 104.758038 
L 179.50937 104.758038 
L 179.579154 103.080491 
L 179.631307 103.080491 
L 179.64432 98.607033 
L 179.812605 98.607033 
L 179.919619 95.811122 
L 179.932417 95.811122 
L 179.992011 93.015211 
L 180.068329 93.015211 
L 180.068329 92.456029 
L 180.245099 92.456029 
L 180.341137 86.305024 
L 180.357785 86.305024 
L 180.440782 83.509113 
L 180.56042 83.509113 
L 180.56042 81.272384 
L 180.77694 81.272384 
L 180.874097 77.358108 
L 181.058793 77.358108 
L 181.162316 71.766286 
L 181.170253 71.766286 
L 181.170253 71.207104 
L 181.300695 71.207104 
L 181.300695 70.647921 
L 181.461393 70.647921 
L 181.566403 66.733646 
L 181.743846 66.733646 
L 181.854778 62.260188 
L 181.881447 62.260188 
L 181.949837 58.345912 
L 182.006622 58.345912 
L 182.066986 54.990819 
L 182.142144 54.990819 
L 182.250543 48.839814 
L 182.291481 48.839814 
L 182.324904 46.603085 
L 182.450585 46.603085 
L 182.450585 46.043903 
L 182.57901 46.043903 
L 182.586319 44.925538 
L 182.691961 44.925538 
L 182.793348 39.892898 
L 183.0549 39.892898 
L 183.111698 38.215351 
L 183.305524 38.215351 
L 183.371977 35.41944 
L 183.76539 35.41944 
L 183.76539 34.860258 
L 184.002572 34.860258 
L 184.103228 33.182711 
L 184.209948 33.182711 
L 184.296174 30.3868 
L 184.329222 30.3868 
L 184.418138 28.150071 
L 184.568572 28.150071 
L 184.568572 27.590889 
L 185.018478 27.590889 
L 185.03433 25.35416 
L 185.198333 25.35416 
L 185.198333 24.794978 
L 185.391851 24.794978 
L 185.391851 24.235795 
L 185.610818 24.235795 
L 185.711649 21.439884 
L 186.025605 21.439884 
L 186.025605 20.32152 
L 186.138905 20.32152 
L 186.138905 19.762337 
L 186.286854 19.762337 
L 186.286854 19.203155 
L 186.509326 19.203155 
L 186.529672 18.084791 
L 188.415171 18.084791 
L 188.415171 16.966426 
L 188.673535 16.966426 
L 188.673535 16.407244 
L 188.925546 16.407244 
L 188.925546 15.848062 
L 189.186365 15.848062 
L 189.186365 14.170515 
L 190.620676 14.170515 
L 190.620676 13.611333 
L 190.823259 13.611333 
L 190.836831 11.374604 
L 191.063695 11.374604 
L 191.063695 9.697057 
L 333.168 9.697057 
L 333.168 9.697057 
" style="fill:none;stroke:#000080;stroke-linecap:square;stroke-width:1.5;"/>
   </g>
   <g id="line2d_39">
    <defs>
     <path d="M 0 6 
C 1.591219 6 3.117479 5.367802 4.242641 4.242641 
C 5.367802 3.117479 6 1.591219 6 0 
C 6 -1.591219 5.367802 -3.117479 4.242641 -4.242641 
C 3.117479 -5.367802 1.591219 -6 0 -6 
C -1.591219 -6 -3.117479 -5.367802 -4.242641 -4.242641 
C -5.367802 -3.117479 -6 -1.591219 -6 0 
C -6 1.591219 -5.367802 3.117479 -4.242641 4.242641 
C -3.117479 5.367802 -1.591219 6 0 6 
z
" id="m2884c626ca" style="stroke:#000080;stroke-width:1.5;"/>
    </defs>
    <g>
     <use style="fill-opacity:0;stroke:#000080;stroke-width:1.5;" x="111.675736" xlink:href="#m2884c626ca" y="285.933084"/>
     <use style="fill-opacity:0;stroke:#000080;stroke-width:1.5;" x="174.934884" xlink:href="#m2884c626ca" y="163.472173"/>
     <use style="fill-opacity:0;stroke:#000080;stroke-width:1.5;" x="182.142144" xlink:href="#m2884c626ca" y="54.990819"/>
     <use style="fill-opacity:0;stroke:#000080;stroke-width:1.5;" x="191.063695" xlink:href="#m2884c626ca" y="11.374604"/>
     <use style="fill-opacity:0;stroke:#000080;stroke-width:1.5;" x="191.063695" xlink:href="#m2884c626ca" y="9.697057"/>
     <use style="fill-opacity:0;stroke:#000080;stroke-width:1.5;" x="333.168" xlink:href="#m2884c626ca" y="9.697057"/>
    </g>
   </g>
   <g id="line2d_40">
    <path style="fill:none;stroke:#000080;stroke-linecap:square;stroke-width:1.5;"/>
    <g/>
   </g>
   <g id="line2d_41">
    <defs>
     <path d="M 0 1.5 
C 0.397805 1.5 0.77937 1.341951 1.06066 1.06066 
C 1.341951 0.77937 1.5 0.397805 1.5 0 
C 1.5 -0.397805 1.341951 -0.77937 1.06066 -1.06066 
C 0.77937 -1.341951 0.397805 -1.5 0 -1.5 
C -0.397805 -1.5 -0.77937 -1.341951 -1.06066 -1.06066 
C -1.341951 -0.77937 -1.5 -0.397805 -1.5 0 
C -1.5 0.397805 -1.341951 0.77937 -1.06066 1.06066 
C -0.77937 1.341951 -0.397805 1.5 0 1.5 
z
" id="m7e77129fd4" style="stroke:#ff00ff;"/>
    </defs>
    <g>
     <use style="fill:#ff00ff;stroke:#ff00ff;" x="220.138705" xlink:href="#m7e77129fd4" y="9.697057"/>
     <use style="fill:#ff00ff;stroke:#ff00ff;" x="220.138705" xlink:href="#m7e77129fd4" y="9.697057"/>
    </g>
   </g>
   <g id="line2d_42">
    <path d="M 37.236359 294.88 
L 37.236359 266.920888 
L 120.636117 266.920888 
L 120.636117 265.802523 
L 128.815257 265.802523 
L 128.815257 265.243341 
L 130.784069 265.243341 
L 130.784069 264.684159 
L 132.073821 264.684159 
L 132.073821 262.44743 
L 139.020186 262.44743 
L 139.066206 260.769883 
L 140.687737 260.769883 
L 140.687737 260.210701 
L 141.66324 260.210701 
L 141.742087 258.533154 
L 142.586342 258.533154 
L 142.586342 257.41479 
L 144.698028 257.41479 
L 144.698028 256.296425 
L 144.862829 256.296425 
L 144.960957 254.059696 
L 145.123268 254.059696 
L 145.123268 253.500514 
L 145.85077 253.500514 
L 145.85077 252.38215 
L 146.369367 252.38215 
L 146.369367 251.263785 
L 148.380535 251.263785 
L 148.380535 250.704603 
L 149.717245 250.704603 
L 149.717245 250.145421 
L 150.252912 250.145421 
L 150.252912 249.586238 
L 151.07213 249.586238 
L 151.07213 249.027056 
L 151.656375 249.027056 
L 151.656375 248.467874 
L 152.433883 248.467874 
L 152.433883 247.908692 
L 152.830481 247.908692 
L 152.851103 246.231145 
L 153.537932 246.231145 
L 153.537932 245.671963 
L 154.006742 245.671963 
L 154.045238 243.994416 
L 154.369023 243.994416 
L 154.444329 242.876052 
L 155.376636 242.876052 
L 155.447664 241.757687 
L 155.798464 241.757687 
L 155.798464 240.639323 
L 156.412409 240.639323 
L 156.412409 238.961776 
L 157.593834 238.961776 
L 157.702969 236.725047 
L 158.117543 236.725047 
L 158.117543 236.165865 
L 159.205049 236.165865 
L 159.205049 235.606682 
L 159.792992 235.606682 
L 159.792992 235.0475 
L 160.025366 235.0475 
L 160.025366 233.369954 
L 160.441186 233.369954 
L 160.507322 231.692407 
L 161.294331 231.692407 
L 161.35727 228.337313 
L 162.558234 228.337313 
L 162.558234 227.218949 
L 162.814092 227.218949 
L 162.883215 226.100584 
L 162.952061 226.100584 
L 162.952061 224.423038 
L 163.179578 224.423038 
L 163.258503 223.304673 
L 165.432369 223.304673 
L 165.442279 221.627126 
L 166.141179 221.627126 
L 166.141179 220.508762 
L 166.480253 220.508762 
L 166.480253 219.94958 
L 167.094035 219.94958 
L 167.094035 218.272033 
L 167.441472 218.272033 
L 167.441472 217.712851 
L 167.590748 217.712851 
L 167.590748 217.153669 
L 168.030953 217.153669 
L 168.030953 216.035304 
L 168.301512 216.035304 
L 168.301512 215.476122 
L 168.805759 215.476122 
L 168.838314 213.239393 
L 168.99211 213.239393 
L 168.99211 210.443482 
L 169.144542 210.443482 
L 169.144542 209.325117 
L 169.4611 209.325117 
L 169.4611 208.765935 
L 170.354912 208.765935 
L 170.354912 207.64757 
L 170.925967 207.64757 
L 170.925967 206.529206 
L 171.055097 206.529206 
L 171.112179 203.733295 
L 171.17617 203.733295 
L 171.218698 201.496566 
L 171.878412 201.496566 
L 171.953189 199.819019 
L 172.034395 199.819019 
L 172.121938 198.141472 
L 172.454546 198.141472 
L 172.546534 194.786379 
L 172.585808 194.786379 
L 172.64455 191.990468 
L 173.056582 191.990468 
L 173.094708 189.753739 
L 173.214887 189.753739 
L 173.214887 189.194556 
L 173.359251 189.194556 
L 173.359251 188.635374 
L 173.613626 188.635374 
L 173.718004 184.721099 
L 173.736359 184.721099 
L 173.80349 181.925187 
L 173.997303 181.925187 
L 173.997303 181.366005 
L 174.301746 181.366005 
L 174.390271 178.010912 
L 174.454901 178.010912 
L 174.525131 176.333365 
L 174.62994 176.333365 
L 174.62994 175.774183 
L 174.774456 175.774183 
L 174.774456 174.655818 
L 174.894917 174.655818 
L 175.003183 171.859907 
L 175.178377 171.859907 
L 175.178377 170.741543 
L 175.506957 170.741543 
L 175.556531 163.472173 
L 175.655254 163.472173 
L 175.688036 162.353809 
L 176.001745 162.353809 
L 176.033873 160.11708 
L 176.113932 160.11708 
L 176.135219 158.998715 
L 176.299299 158.998715 
L 176.299299 157.321169 
L 176.581429 157.321169 
L 176.658983 150.0518 
L 176.736189 150.0518 
L 176.833489 147.815071 
L 176.869197 147.815071 
L 176.869197 143.341613 
L 177.081906 143.341613 
L 177.16225 135.513061 
L 177.24222 135.513061 
L 177.336705 133.835515 
L 177.376333 133.835515 
L 177.435604 132.157968 
L 177.519223 132.157968 
L 177.617081 128.243692 
L 177.64633 128.243692 
L 177.719235 127.125328 
L 177.78217 127.125328 
L 177.787002 122.092688 
L 177.940902 122.092688 
L 178.041156 119.296776 
L 178.093437 119.296776 
L 178.173924 117.61923 
L 178.206956 117.61923 
L 178.315046 114.823318 
L 178.338455 114.823318 
L 178.338455 114.264136 
L 178.49679 114.264136 
L 178.49679 113.704954 
L 178.68122 113.704954 
L 178.722445 111.468225 
L 178.872764 111.468225 
L 178.949691 108.113132 
L 179.062197 108.113132 
L 179.062197 107.553949 
L 179.399762 107.553949 
L 179.50937 101.962127 
L 179.539935 101.962127 
L 179.579154 100.28458 
L 179.661656 100.28458 
L 179.717878 98.607033 
L 179.821191 98.607033 
L 179.846922 95.811122 
L 179.93668 95.811122 
L 179.93668 95.25194 
L 180.144311 95.25194 
L 180.249286 92.456029 
L 180.357785 92.456029 
L 180.403483 85.18666 
L 180.48213 85.18666 
L 180.589174 82.949931 
L 180.59738 82.949931 
L 180.646537 80.15402 
L 180.768819 80.15402 
L 180.768819 78.476473 
L 181.050804 78.476473 
L 181.158345 74.562197 
L 181.363585 74.562197 
L 181.465293 71.766286 
L 181.492574 71.766286 
L 181.519811 67.85201 
L 181.643778 67.85201 
L 181.709273 64.496917 
L 181.87764 64.496917 
L 181.927071 62.81937 
L 182.164627 62.81937 
L 182.254268 59.464277 
L 182.306344 59.464277 
L 182.361965 57.78673 
L 182.524088 57.78673 
L 182.54974 56.109183 
L 182.659245 56.109183 
L 182.673793 54.990819 
L 182.872592 54.990819 
L 182.872592 53.313272 
L 183.086872 53.313272 
L 183.178904 50.517361 
L 183.273956 50.517361 
L 183.298514 48.280632 
L 183.799474 48.280632 
L 183.799474 47.162267 
L 183.945271 47.162267 
L 184.012664 44.925538 
L 184.381968 44.925538 
L 184.427989 43.807174 
L 184.542504 43.807174 
L 184.542504 42.129627 
L 186.515141 42.129627 
L 186.515141 41.011263 
L 191.065926 41.011263 
L 191.065926 40.45208 
L 192.363311 40.45208 
L 192.363311 38.774534 
L 197.710993 38.774534 
L 197.710993 38.215351 
L 197.962277 38.215351 
L 197.962277 37.656169 
L 198.09471 37.656169 
L 198.09471 37.096987 
L 198.404662 37.096987 
L 198.404662 36.537805 
L 198.848718 36.537805 
L 198.848718 35.978622 
L 199.393282 35.978622 
L 199.416632 33.741894 
L 199.796716 33.741894 
L 199.861038 32.623529 
L 200.080326 32.623529 
L 200.080326 32.064347 
L 200.202703 32.064347 
L 200.226289 30.3868 
L 200.345034 30.3868 
L 200.386596 28.150071 
L 200.609569 28.150071 
L 200.665821 26.472524 
L 200.737148 26.472524 
L 200.841061 25.35416 
L 200.907891 25.35416 
L 200.907891 24.794978 
L 201.048269 24.794978 
L 201.152805 23.117431 
L 201.187509 23.117431 
L 201.236966 20.880702 
L 201.374692 20.880702 
L 201.374692 20.32152 
L 201.578024 20.32152 
L 201.686614 18.643973 
L 201.776585 18.643973 
L 201.776585 18.084791 
L 201.945651 18.084791 
L 202.001245 16.966426 
L 202.087239 16.966426 
L 202.087239 16.407244 
L 202.234661 16.407244 
L 202.342667 15.28888 
L 202.689924 15.28888 
L 202.73751 14.170515 
L 208.747571 14.170515 
L 208.747571 13.611333 
L 209.137127 13.611333 
L 209.137127 13.052151 
L 210.109463 13.052151 
L 210.109463 12.492968 
L 210.32619 12.492968 
L 210.32619 11.933786 
L 211.263495 11.933786 
L 211.263495 11.374604 
L 211.470317 11.374604 
L 211.470317 10.815422 
L 215.712441 10.815422 
L 215.712441 10.256239 
L 220.138705 10.256239 
L 220.138705 9.697057 
L 333.168 9.697057 
L 333.168 9.697057 
" style="fill:none;stroke:#ff00ff;stroke-linecap:square;stroke-width:1.5;"/>
   </g>
   <g id="line2d_43">
    <defs>
     <path d="M -0 8.485281 
L 5.091169 0 
L 0 -8.485281 
L -5.091169 -0 
z
" id="m12b388e529" style="stroke:#ff00ff;stroke-linejoin:miter;stroke-width:1.5;"/>
    </defs>
    <g>
     <use style="fill-opacity:0;stroke:#ff00ff;stroke-linejoin:miter;stroke-width:1.5;" x="151.656375" xlink:href="#m12b388e529" y="249.027056"/>
     <use style="fill-opacity:0;stroke:#ff00ff;stroke-linejoin:miter;stroke-width:1.5;" x="179.846922" xlink:href="#m12b388e529" y="96.370304"/>
     <use style="fill-opacity:0;stroke:#ff00ff;stroke-linejoin:miter;stroke-width:1.5;" x="220.138705" xlink:href="#m12b388e529" y="10.256239"/>
     <use style="fill-opacity:0;stroke:#ff00ff;stroke-linejoin:miter;stroke-width:1.5;" x="220.138705" xlink:href="#m12b388e529" y="9.697057"/>
     <use style="fill-opacity:0;stroke:#ff00ff;stroke-linejoin:miter;stroke-width:1.5;" x="333.168" xlink:href="#m12b388e529" y="9.697057"/>
    </g>
   </g>
   <g id="line2d_44">
    <path style="fill:none;stroke:#ff00ff;stroke-linecap:square;stroke-width:1.5;"/>
    <g/>
   </g>
   <g id="line2d_45">
    <path clip-path="url(#p2b5fc8a027)" d="M 195.722236 38.774534 
" style="fill:none;stroke:#ff00ff;stroke-linecap:square;stroke-width:1.5;"/>
    <defs>
     <path d="M -12 12 
L 12 -12 
M -12 -12 
L 12 12 
" id="m96a5d1dcdf" style="stroke:#ff00ff;"/>
    </defs>
    <g clip-path="url(#p2b5fc8a027)">
     <use style="fill:#ff00ff;stroke:#ff00ff;" x="195.722236" xlink:href="#m96a5d1dcdf" y="38.774534"/>
    </g>
   </g>
   <g id="line2d_46">
    <defs>
     <path d="M 0 1.5 
C 0.397805 1.5 0.77937 1.341951 1.06066 1.06066 
C 1.341951 0.77937 1.5 0.397805 1.5 0 
C 1.5 -0.397805 1.341951 -0.77937 1.06066 -1.06066 
C 0.77937 -1.341951 0.397805 -1.5 0 -1.5 
C -0.397805 -1.5 -0.77937 -1.341951 -1.06066 -1.06066 
C -1.341951 -0.77937 -1.5 -0.397805 -1.5 0 
C -1.5 0.397805 -1.341951 0.77937 -1.06066 1.06066 
C -0.77937 1.341951 -0.397805 1.5 0 1.5 
z
" id="m0486674315" style="stroke:#ffa500;"/>
    </defs>
    <g>
     <use style="fill:#ffa500;stroke:#ffa500;" x="184.903908" xlink:href="#m0486674315" y="9.697057"/>
     <use style="fill:#ffa500;stroke:#ffa500;" x="184.903908" xlink:href="#m0486674315" y="9.697057"/>
    </g>
   </g>
   <g id="line2d_47">
    <path d="M 37.236359 294.88 
L 37.236359 293.761636 
L 49.15061 293.761636 
L 49.15061 293.202453 
L 61.064861 293.202453 
L 61.064861 290.965724 
L 68.034251 290.965724 
L 68.034251 288.169813 
L 76.814644 288.169813 
L 76.814644 287.610631 
L 78.452896 287.610631 
L 78.452896 286.492266 
L 82.598142 286.492266 
L 82.598142 284.81472 
L 87.847234 284.81472 
L 87.847234 284.255537 
L 88.728896 284.255537 
L 88.728896 282.577991 
L 91.862754 282.577991 
L 91.862754 282.018808 
L 101.067579 282.018808 
L 101.067579 280.900444 
L 101.481783 280.900444 
L 101.481783 279.782079 
L 104.819059 279.782079 
L 104.819059 278.663715 
L 107.029816 278.663715 
L 107.029816 276.426986 
L 107.896653 276.426986 
L 107.896653 275.867804 
L 111.900428 275.867804 
L 111.900428 275.308622 
L 117.715785 275.308622 
L 117.715785 272.51271 
L 118.031182 272.51271 
L 118.031182 270.835164 
L 119.09161 270.835164 
L 119.09161 269.157617 
L 121.16504 269.157617 
L 121.16504 268.039252 
L 121.551317 268.039252 
L 121.551317 267.48007 
L 122.420242 267.48007 
L 122.420242 266.920888 
L 124.363883 266.920888 
L 124.363883 266.361706 
L 125.614517 266.361706 
L 125.614517 265.802523 
L 126.496178 265.802523 
L 126.496178 264.124977 
L 129.550274 264.124977 
L 129.550274 262.44743 
L 130.634602 262.44743 
L 130.634602 261.329066 
L 130.784069 261.329066 
L 130.784069 260.769883 
L 130.932248 260.769883 
L 131.005861 256.855608 
L 131.795457 256.855608 
L 131.795457 256.296425 
L 132.004651 256.296425 
L 132.004651 255.178061 
L 132.61738 255.178061 
L 132.61738 254.618879 
L 132.948578 254.618879 
L 132.948578 253.500514 
L 133.273515 253.500514 
L 133.273515 249.027056 
L 136.599426 249.027056 
L 136.599426 248.467874 
L 137.326546 248.467874 
L 137.326546 247.34951 
L 137.578954 247.34951 
L 137.578954 246.790327 
L 139.066206 246.790327 
L 139.066206 246.231145 
L 140.978022 246.231145 
L 140.978022 245.112781 
L 141.424506 245.112781 
L 141.504453 242.876052 
L 142.735485 242.876052 
L 142.735485 242.316869 
L 144.598384 242.316869 
L 144.698028 237.843411 
L 144.764138 237.843411 
L 144.797098 235.606682 
L 147.248023 235.606682 
L 147.248023 234.488318 
L 147.446737 234.488318 
L 147.446737 233.929136 
L 147.643181 233.929136 
L 147.643181 231.692407 
L 147.974805 231.692407 
L 148.056721 230.01486 
L 148.165338 230.01486 
L 148.165338 228.896496 
L 149.593139 228.896496 
L 149.593139 226.659767 
L 149.889502 226.659767 
L 149.889502 226.100584 
L 150.396151 226.100584 
L 150.396151 225.541402 
L 152.20002 225.541402 
L 152.20002 224.98222 
L 152.476064 224.98222 
L 152.560116 223.863855 
L 152.601988 223.863855 
L 152.601988 223.304673 
L 152.97432 223.304673 
L 153.055976 221.067944 
L 153.258436 221.067944 
L 153.258436 220.508762 
L 153.378777 220.508762 
L 153.378777 219.94958 
L 153.498281 219.94958 
L 153.498281 217.712851 
L 153.812956 217.712851 
L 153.812956 216.035304 
L 154.217413 216.035304 
L 154.236437 214.91694 
L 154.612571 214.91694 
L 154.612571 214.357757 
L 155.885057 214.357757 
L 155.885057 213.798575 
L 157.102017 213.798575 
L 157.198312 212.680211 
L 157.671858 212.680211 
L 157.671858 211.561846 
L 157.842274 211.561846 
L 157.888459 209.884299 
L 158.056752 209.884299 
L 158.117543 208.206753 
L 158.178119 208.206753 
L 158.178119 207.64757 
L 158.946785 207.64757 
L 158.946785 207.088388 
L 159.3186 207.088388 
L 159.3186 206.529206 
L 159.529506 206.529206 
L 159.543475 205.410841 
L 159.847951 205.410841 
L 159.847951 204.292477 
L 160.187524 204.292477 
L 160.187524 203.174112 
L 160.546882 203.174112 
L 160.546882 202.055748 
L 160.782346 202.055748 
L 160.873051 200.937384 
L 160.988974 200.937384 
L 160.988974 199.819019 
L 161.50739 199.819019 
L 161.532283 198.141472 
L 161.828221 198.141472 
L 161.877052 193.108832 
L 162.010628 193.108832 
L 162.010628 192.54965 
L 162.417054 192.54965 
L 162.523048 190.872103 
L 162.871714 190.872103 
L 162.929143 189.194556 
L 163.404122 189.194556 
L 163.448681 183.043552 
L 163.603734 183.043552 
L 163.603734 179.129276 
L 164.082133 179.129276 
L 164.157029 176.333365 
L 164.30585 176.333365 
L 164.369237 174.655818 
L 164.589272 174.655818 
L 164.589272 174.096636 
L 164.724085 174.096636 
L 164.724085 173.537454 
L 165.122295 173.537454 
L 165.212894 171.300725 
L 165.313003 171.300725 
L 165.392672 170.18236 
L 165.775859 170.18236 
L 165.88241 168.504814 
L 166.103088 168.504814 
L 166.150689 166.827267 
L 166.254949 166.827267 
L 166.292705 165.708902 
L 166.414844 165.708902 
L 166.414844 165.14972 
L 166.994756 165.14972 
L 167.076027 164.031356 
L 167.121011 164.031356 
L 167.147946 161.794627 
L 167.237423 161.794627 
L 167.237423 161.235444 
L 167.476712 161.235444 
L 167.476712 160.11708 
L 167.65184 160.11708 
L 167.65184 159.557898 
L 167.764723 159.557898 
L 167.799308 158.439533 
L 168.07351 158.439533 
L 168.183666 156.202804 
L 168.309899 156.202804 
L 168.309899 155.643622 
L 168.789459 155.643622 
L 168.789459 154.525258 
L 169.032355 154.525258 
L 169.032355 153.966075 
L 169.152528 153.966075 
L 169.216278 152.288529 
L 169.476776 152.288529 
L 169.554942 150.0518 
L 169.601672 150.0518 
L 169.687014 148.374253 
L 169.841104 148.374253 
L 169.841104 147.815071 
L 170.392093 147.815071 
L 170.458816 146.696706 
L 170.584146 146.696706 
L 170.584146 142.78243 
L 170.774078 142.78243 
L 170.774078 141.664066 
L 170.9763 141.664066 
L 171.083662 139.986519 
L 171.140649 139.986519 
L 171.140649 138.868155 
L 171.27524 138.868155 
L 171.310484 136.072244 
L 171.513488 136.072244 
L 171.513488 135.513061 
L 171.652107 135.513061 
L 171.652107 134.953879 
L 171.823823 134.953879 
L 171.91924 133.276332 
L 171.973527 133.276332 
L 172.034395 131.039603 
L 172.289047 131.039603 
L 172.381922 129.362057 
L 172.520302 129.362057 
L 172.553086 126.566145 
L 172.986463 126.566145 
L 172.986463 126.006963 
L 173.15174 126.006963 
L 173.227488 122.092688 
L 173.458967 122.092688 
L 173.50861 118.178412 
L 173.748584 118.178412 
L 173.779109 113.145772 
L 174.200863 113.145772 
L 174.295828 112.027407 
L 174.354916 112.027407 
L 174.396157 110.909043 
L 174.472486 110.909043 
L 174.472486 110.349861 
L 174.612516 110.349861 
L 174.612516 109.790678 
L 174.734114 109.790678 
L 174.734114 106.435585 
L 174.934884 106.435585 
L 174.951984 103.080491 
L 175.048566 103.080491 
L 175.065554 101.962127 
L 175.217691 101.962127 
L 175.217691 100.28458 
L 175.412924 100.28458 
L 175.495921 99.166216 
L 175.660722 99.166216 
L 175.704403 97.488669 
L 175.829372 97.488669 
L 175.840197 95.811122 
L 176.119256 95.811122 
L 176.220101 93.574393 
L 176.341389 93.574393 
L 176.440943 89.660118 
L 176.513931 89.660118 
L 176.617665 85.18666 
L 176.658983 85.18666 
L 176.741324 83.509113 
L 177.016348 83.509113 
L 177.107054 80.15402 
L 177.202282 80.15402 
L 177.247206 79.035655 
L 177.41587 79.035655 
L 177.45039 76.239744 
L 177.573114 76.239744 
L 177.670666 74.562197 
L 177.757992 74.562197 
L 177.806315 72.325468 
L 177.979163 72.325468 
L 178.083943 71.207104 
L 178.164474 71.207104 
L 178.164474 70.647921 
L 178.375842 70.647921 
L 178.473597 68.970375 
L 178.61229 68.970375 
L 178.61229 67.292828 
L 178.831898 67.292828 
L 178.831898 66.174463 
L 178.972251 66.174463 
L 179.026275 62.260188 
L 179.115939 62.260188 
L 179.138283 60.582641 
L 179.338075 60.582641 
L 179.439302 58.905094 
L 179.526843 58.905094 
L 179.618283 56.668365 
L 179.639983 56.668365 
L 179.713559 53.313272 
L 179.872615 53.313272 
L 179.93668 47.72145 
L 180.068329 47.72145 
L 180.068329 46.603085 
L 180.286921 46.603085 
L 180.324473 42.129627 
L 180.457333 42.129627 
L 180.457333 41.570445 
L 180.679231 41.570445 
L 180.75663 39.333716 
L 180.898301 39.333716 
L 180.974722 37.096987 
L 181.194044 37.096987 
L 181.261272 33.741894 
L 181.391028 33.741894 
L 181.391028 33.182711 
L 181.743846 33.182711 
L 181.743846 32.623529 
L 181.949837 32.623529 
L 182.051915 31.505165 
L 182.074516 31.505165 
L 182.074516 30.3868 
L 182.228171 30.3868 
L 182.324904 27.590889 
L 182.406332 27.590889 
L 182.446902 24.794978 
L 182.582665 24.794978 
L 182.691961 23.117431 
L 182.731863 23.117431 
L 182.793348 21.999066 
L 182.994345 21.999066 
L 182.994345 21.439884 
L 183.178904 21.439884 
L 183.217692 14.729697 
L 183.319535 14.729697 
L 183.319535 14.170515 
L 183.476383 14.170515 
L 183.535266 13.052151 
L 183.874222 13.052151 
L 183.98237 10.815422 
L 184.143326 10.815422 
L 184.143326 10.256239 
L 184.903908 10.256239 
L 184.903908 9.697057 
L 333.168 9.697057 
L 333.168 9.697057 
" style="fill:none;stroke:#ffa500;stroke-linecap:square;stroke-width:1.5;"/>
   </g>
   <g id="line2d_48">
    <defs>
     <path d="M 0 -6 
L -1.347084 -1.854102 
L -5.706339 -1.854102 
L -2.179628 0.708204 
L -3.526712 4.854102 
L -0 2.291796 
L 3.526712 4.854102 
L 2.179628 0.708204 
L 5.706339 -1.854102 
L 1.347084 -1.854102 
z
" id="m5eb49856d3" style="stroke:#ffa500;stroke-linejoin:bevel;stroke-width:1.5;"/>
    </defs>
    <g>
     <use style="fill-opacity:0;stroke:#ffa500;stroke-linejoin:bevel;stroke-width:1.5;" x="122.420242" xlink:href="#m5eb49856d3" y="266.920888"/>
     <use style="fill-opacity:0;stroke:#ffa500;stroke-linejoin:bevel;stroke-width:1.5;" x="166.292705" xlink:href="#m5eb49856d3" y="165.708902"/>
     <use style="fill-opacity:0;stroke:#ffa500;stroke-linejoin:bevel;stroke-width:1.5;" x="184.903908" xlink:href="#m5eb49856d3" y="10.256239"/>
     <use style="fill-opacity:0;stroke:#ffa500;stroke-linejoin:bevel;stroke-width:1.5;" x="184.903908" xlink:href="#m5eb49856d3" y="9.697057"/>
     <use style="fill-opacity:0;stroke:#ffa500;stroke-linejoin:bevel;stroke-width:1.5;" x="184.903908" xlink:href="#m5eb49856d3" y="9.697057"/>
     <use style="fill-opacity:0;stroke:#ffa500;stroke-linejoin:bevel;stroke-width:1.5;" x="333.168" xlink:href="#m5eb49856d3" y="9.697057"/>
    </g>
   </g>
   <g id="line2d_49">
    <path style="fill:none;stroke:#ffa500;stroke-linecap:square;stroke-width:1.5;"/>
    <g/>
   </g>
   <g id="line2d_50">
    <defs>
     <path d="M 0 1.5 
C 0.397805 1.5 0.77937 1.341951 1.06066 1.06066 
C 1.341951 0.77937 1.5 0.397805 1.5 0 
C 1.5 -0.397805 1.341951 -0.77937 1.06066 -1.06066 
C 0.77937 -1.341951 0.397805 -1.5 0 -1.5 
C -0.397805 -1.5 -0.77937 -1.341951 -1.06066 -1.06066 
C -1.341951 -0.77937 -1.5 -0.397805 -1.5 0 
C -1.5 0.397805 -1.341951 0.77937 -1.06066 1.06066 
C -0.77937 1.341951 -0.397805 1.5 0 1.5 
z
" id="mbd1b21ff8d" style="stroke:#6495ed;"/>
    </defs>
    <g>
     <use style="fill:#6495ed;stroke:#6495ed;" x="208.933987" xlink:href="#mbd1b21ff8d" y="9.697057"/>
     <use style="fill:#6495ed;stroke:#6495ed;" x="208.933987" xlink:href="#mbd1b21ff8d" y="9.697057"/>
    </g>
   </g>
   <g id="line2d_51">
    <path d="M 37.236359 294.88 
L 37.236359 286.492266 
L 49.15061 286.492266 
L 49.15061 282.577991 
L 56.12 282.577991 
L 56.12 282.018808 
L 61.064861 282.018808 
L 61.064861 281.459626 
L 64.900393 281.459626 
L 64.900393 276.426986 
L 72.979112 276.426986 
L 72.979112 275.867804 
L 75.003641 275.867804 
L 75.003641 271.953528 
L 76.814644 271.953528 
L 76.814644 271.394346 
L 82.598142 271.394346 
L 82.598142 268.598435 
L 87.847234 268.598435 
L 87.847234 265.802523 
L 91.131212 265.802523 
L 91.131212 265.243341 
L 92.564428 265.243341 
L 92.564428 263.565795 
L 93.887283 263.565795 
L 93.887283 261.329066 
L 96.261898 261.329066 
L 96.261898 260.769883 
L 97.336537 260.769883 
L 97.336537 259.651519 
L 106.730875 259.651519 
L 106.730875 259.092337 
L 111.675736 259.092337 
L 111.675736 257.41479 
L 114.389873 257.41479 
L 114.389873 253.500514 
L 119.526788 253.500514 
L 119.526788 252.941332 
L 120.228462 252.941332 
L 120.228462 251.822967 
L 120.501303 251.822967 
L 120.501303 251.263785 
L 121.16504 251.263785 
L 121.16504 249.586238 
L 122.420242 249.586238 
L 122.420242 249.027056 
L 124.578744 249.027056 
L 124.578744 247.908692 
L 128.731613 247.908692 
L 128.731613 243.994416 
L 129.145817 243.994416 
L 129.145817 243.435234 
L 129.550274 243.435234 
L 129.550274 242.876052 
L 131.2972 242.876052 
L 131.2972 241.198505 
L 134.634477 241.198505 
L 134.634477 239.520958 
L 136.060554 239.520958 
L 136.060554 238.961776 
L 137.326546 238.961776 
L 137.326546 238.402594 
L 138.362617 238.402594 
L 138.362617 237.284229 
L 139.653523 237.284229 
L 139.653523 234.488318 
L 140.048681 234.488318 
L 140.048681 232.810771 
L 140.936852 232.810771 
L 140.978022 230.01486 
L 141.976481 230.01486 
L 141.976481 227.778131 
L 142.623749 227.778131 
L 142.623749 227.218949 
L 144.431015 227.218949 
L 144.431015 225.541402 
L 144.797098 225.541402 
L 144.829995 223.863855 
L 144.960957 223.863855 
L 144.960957 222.745491 
L 145.411621 222.745491 
L 145.475048 221.067944 
L 146.035596 221.067944 
L 146.035596 218.831215 
L 146.843566 218.831215 
L 146.843566 217.712851 
L 147.390196 217.712851 
L 147.390196 216.035304 
L 147.809793 216.035304 
L 147.809793 214.357757 
L 148.002154 214.357757 
L 148.002154 213.798575 
L 149.392686 213.798575 
L 149.392686 212.121028 
L 149.618032 212.121028 
L 149.618032 211.561846 
L 149.864999 211.561846 
L 149.889502 210.443482 
L 150.372361 210.443482 
L 150.372361 207.088388 
L 150.632262 207.088388 
L 150.632262 205.970024 
L 150.795631 205.970024 
L 150.795631 205.410841 
L 153.015196 205.410841 
L 153.015196 203.174112 
L 153.137246 203.174112 
L 153.157504 201.496566 
L 153.871321 201.496566 
L 153.871321 199.819019 
L 154.198367 199.819019 
L 154.236437 197.023108 
L 154.331245 197.023108 
L 154.331245 195.345561 
L 154.723825 195.345561 
L 154.723825 188.635374 
L 155.125703 188.635374 
L 155.125703 180.806823 
L 155.518399 180.806823 
L 155.518399 171.859907 
L 156.294736 171.859907 
L 156.294736 170.741543 
L 156.924063 170.741543 
L 157.005179 167.945631 
L 157.389299 167.945631 
L 157.389299 167.386449 
L 157.593834 167.386449 
L 157.593834 159.557898 
L 157.934521 159.557898 
L 157.934521 157.880351 
L 158.208328 157.880351 
L 158.208328 156.202804 
L 158.830743 156.202804 
L 158.830743 152.847711 
L 159.004513 152.847711 
L 159.018915 143.341613 
L 159.417345 143.341613 
L 159.417345 134.953879 
L 159.599237 134.953879 
L 159.599237 124.888599 
L 159.724044 124.888599 
L 159.724044 122.092688 
L 159.930063 122.092688 
L 159.930063 109.790678 
L 160.093118 109.790678 
L 160.093118 109.231496 
L 160.560048 109.231496 
L 160.665017 100.28458 
L 161.078598 100.28458 
L 161.078598 95.25194 
L 161.243814 95.25194 
L 161.243814 94.133576 
L 161.742431 94.133576 
L 161.852654 91.896847 
L 161.913585 91.896847 
L 161.913585 91.337664 
L 162.034803 91.337664 
L 162.034803 90.778482 
L 162.179145 90.778482 
L 162.286612 87.423389 
L 162.393411 87.423389 
L 162.440665 85.18666 
L 162.534785 85.18666 
L 162.534785 77.358108 
L 162.974949 77.358108 
L 162.974949 75.680562 
L 163.168273 75.680562 
L 163.168273 75.121379 
L 163.348261 75.121379 
L 163.437552 73.443833 
L 163.844598 73.443833 
L 163.931355 63.937735 
L 164.092853 63.937735 
L 164.092853 62.260188 
L 164.316431 62.260188 
L 164.316431 60.582641 
L 164.495316 60.582641 
L 164.516239 57.78673 
L 164.630865 57.78673 
L 164.630865 56.668365 
L 165.212894 56.668365 
L 165.212894 54.990819 
L 165.795281 54.990819 
L 165.795281 54.431636 
L 166.188675 54.431636 
L 166.188675 53.872454 
L 167.021889 53.872454 
L 167.058 51.635725 
L 167.467909 51.635725 
L 167.467909 51.076543 
L 169.080525 51.076543 
L 169.080525 50.517361 
L 169.702485 50.517361 
L 169.702485 41.011263 
L 170.810364 41.011263 
L 170.832099 39.892898 
L 177.670666 39.892898 
L 177.670666 39.333716 
L 177.902556 39.333716 
L 177.902556 27.590889 
L 179.395363 27.590889 
L 179.395363 24.794978 
L 180.634261 24.794978 
L 180.634261 23.676613 
L 196.067587 23.676613 
L 196.067587 23.117431 
L 197.236126 23.117431 
L 197.304551 21.439884 
L 197.558745 21.439884 
L 197.558745 20.32152 
L 197.685205 20.32152 
L 197.685205 19.762337 
L 197.812249 19.762337 
L 197.872418 18.084791 
L 198.050184 18.084791 
L 198.050184 15.28888 
L 199.141298 15.28888 
L 199.141298 14.170515 
L 200.939325 14.170515 
L 200.939325 11.933786 
L 208.623499 11.933786 
L 208.733208 10.815422 
L 208.933987 10.815422 
L 208.933987 9.697057 
L 333.168 9.697057 
L 333.168 9.697057 
" style="fill:none;stroke:#6495ed;stroke-linecap:square;stroke-width:1.5;"/>
   </g>
   <g id="line2d_52">
    <defs>
     <path d="M -0 6 
L 6 -6 
L -6 -6 
z
" id="m4770304675" style="stroke:#6495ed;stroke-linejoin:miter;stroke-width:1.5;"/>
    </defs>
    <g>
     <use style="fill-opacity:0;stroke:#6495ed;stroke-linejoin:miter;stroke-width:1.5;" x="119.526788" xlink:href="#m4770304675" y="252.941332"/>
     <use style="fill-opacity:0;stroke:#6495ed;stroke-linejoin:miter;stroke-width:1.5;" x="160.560048" xlink:href="#m4770304675" y="109.231496"/>
     <use style="fill-opacity:0;stroke:#6495ed;stroke-linejoin:miter;stroke-width:1.5;" x="200.939325" xlink:href="#m4770304675" y="11.933786"/>
     <use style="fill-opacity:0;stroke:#6495ed;stroke-linejoin:miter;stroke-width:1.5;" x="208.933987" xlink:href="#m4770304675" y="9.697057"/>
     <use style="fill-opacity:0;stroke:#6495ed;stroke-linejoin:miter;stroke-width:1.5;" x="208.933987" xlink:href="#m4770304675" y="9.697057"/>
     <use style="fill-opacity:0;stroke:#6495ed;stroke-linejoin:miter;stroke-width:1.5;" x="333.168" xlink:href="#m4770304675" y="9.697057"/>
    </g>
   </g>
   <g id="line2d_53">
    <path style="fill:none;stroke:#6495ed;stroke-linecap:square;stroke-width:1.5;"/>
    <g/>
   </g>
   <g id="line2d_54">
    <path clip-path="url(#p2b5fc8a027)" d="M 195.722236 23.676613 
" style="fill:none;stroke:#6495ed;stroke-linecap:square;stroke-width:1.5;"/>
    <defs>
     <path d="M -12 12 
L 12 -12 
M -12 -12 
L 12 12 
" id="mdf5cee4c71" style="stroke:#6495ed;"/>
    </defs>
    <g clip-path="url(#p2b5fc8a027)">
     <use style="fill:#6495ed;stroke:#6495ed;" x="195.722236" xlink:href="#mdf5cee4c71" y="23.676613"/>
    </g>
   </g>
   <g id="line2d_55">
    <path d="M 333.168 9.697057 
L 363.64328 289.176341 
" style="fill:none;stroke:#ff00ff;stroke-linecap:square;stroke-width:1.5;"/>
    <g>
     <use style="fill-opacity:0;stroke:#ff00ff;stroke-linejoin:miter;stroke-width:1.5;" x="333.168" xlink:href="#m12b388e529" y="9.697057"/>
     <use style="fill-opacity:0;stroke:#ff00ff;stroke-linejoin:miter;stroke-width:1.5;" x="363.64328" xlink:href="#m12b388e529" y="289.176341"/>
    </g>
   </g>
   <g id="line2d_56">
    <path d="M 333.168 9.697057 
L 363.64328 197.917799 
" style="fill:none;stroke:#6495ed;stroke-linecap:square;stroke-width:1.5;"/>
    <g>
     <use style="fill-opacity:0;stroke:#6495ed;stroke-linejoin:miter;stroke-width:1.5;" x="333.168" xlink:href="#m4770304675" y="9.697057"/>
     <use style="fill-opacity:0;stroke:#6495ed;stroke-linejoin:miter;stroke-width:1.5;" x="363.64328" xlink:href="#m4770304675" y="197.917799"/>
    </g>
   </g>
   <g id="line2d_57">
    <path d="M 333.168 9.697057 
L 363.64328 106.659258 
" style="fill:none;stroke:#000080;stroke-linecap:square;stroke-width:1.5;"/>
    <g>
     <use style="fill-opacity:0;stroke:#000080;stroke-width:1.5;" x="333.168" xlink:href="#m2884c626ca" y="9.697057"/>
     <use style="fill-opacity:0;stroke:#000080;stroke-width:1.5;" x="363.64328" xlink:href="#m2884c626ca" y="106.659258"/>
    </g>
   </g>
   <g id="line2d_58">
    <path d="M 333.168 9.697057 
L 363.64328 15.400716 
" style="fill:none;stroke:#ffa500;stroke-linecap:square;stroke-width:1.5;"/>
    <g>
     <use style="fill-opacity:0;stroke:#ffa500;stroke-linejoin:bevel;stroke-width:1.5;" x="333.168" xlink:href="#m5eb49856d3" y="9.697057"/>
     <use style="fill-opacity:0;stroke:#ffa500;stroke-linejoin:bevel;stroke-width:1.5;" x="363.64328" xlink:href="#m5eb49856d3" y="15.400716"/>
    </g>
   </g>
   <g id="line2d_59">
    <path d="M 333.168 294.88 
L 333.168 9.697057 
" style="fill:none;stroke:#000000;stroke-linecap:square;stroke-width:1.5;"/>
   </g>
   <g id="patch_3">
    <path d="M 56.12 294.88 
L 56.12 6.845228 
" style="fill:none;stroke:#000000;stroke-linecap:square;stroke-linejoin:miter;stroke-width:0.8;"/>
   </g>
   <g id="patch_4">
    <path d="M 333.168 294.88 
L 333.168 6.845228 
" style="fill:none;stroke:#000000;stroke-linecap:square;stroke-linejoin:miter;stroke-width:0.8;"/>
   </g>
   <g id="patch_5">
    <path d="M 56.12 294.88 
L 333.168 294.88 
" style="fill:none;stroke:#000000;stroke-linecap:square;stroke-linejoin:miter;stroke-width:0.8;"/>
   </g>
   <g id="patch_6">
    <path d="M 56.12 6.845228 
L 333.168 6.845228 
" style="fill:none;stroke:#000000;stroke-linecap:square;stroke-linejoin:miter;stroke-width:0.8;"/>
   </g>
   <g id="text_13">
    <!-- f9 -->
    <defs>
     <path d="M 10.984375 1.515625 
L 10.984375 10.5 
Q 14.703125 8.734375 18.5 7.8125 
Q 22.3125 6.890625 25.984375 6.890625 
Q 35.75 6.890625 40.890625 13.453125 
Q 46.046875 20.015625 46.78125 33.40625 
Q 43.953125 29.203125 39.59375 26.953125 
Q 35.25 24.703125 29.984375 24.703125 
Q 19.046875 24.703125 12.671875 31.3125 
Q 6.296875 37.9375 6.296875 49.421875 
Q 6.296875 60.640625 12.9375 67.421875 
Q 19.578125 74.21875 30.609375 74.21875 
Q 43.265625 74.21875 49.921875 64.515625 
Q 56.59375 54.828125 56.59375 36.375 
Q 56.59375 19.140625 48.40625 8.859375 
Q 40.234375 -1.421875 26.421875 -1.421875 
Q 22.703125 -1.421875 18.890625 -0.6875 
Q 15.09375 0.046875 10.984375 1.515625 
z
M 30.609375 32.421875 
Q 37.25 32.421875 41.125 36.953125 
Q 45.015625 41.5 45.015625 49.421875 
Q 45.015625 57.28125 41.125 61.84375 
Q 37.25 66.40625 30.609375 66.40625 
Q 23.96875 66.40625 20.09375 61.84375 
Q 16.21875 57.28125 16.21875 49.421875 
Q 16.21875 41.5 20.09375 36.953125 
Q 23.96875 32.421875 30.609375 32.421875 
z
" id="DejaVuSans-39"/>
    </defs>
    <g transform="translate(369.18424 293.867279)scale(0.17 -0.17)">
     <use xlink:href="#DejaVuSans-66"/>
     <use x="35.205078" xlink:href="#DejaVuSans-39"/>
    </g>
   </g>
   <g id="text_14">
    <!-- f7 -->
    <defs>
     <path d="M 8.203125 72.90625 
L 55.078125 72.90625 
L 55.078125 68.703125 
L 28.609375 0 
L 18.3125 0 
L 43.21875 64.59375 
L 8.203125 64.59375 
z
" id="DejaVuSans-37"/>
    </defs>
    <g transform="translate(369.18424 202.608737)scale(0.17 -0.17)">
     <use xlink:href="#DejaVuSans-66"/>
     <use x="35.205078" xlink:href="#DejaVuSans-37"/>
    </g>
   </g>
   <g id="text_15">
    <!-- f8 -->
    <g transform="translate(369.18424 111.350195)scale(0.17 -0.17)">
     <use xlink:href="#DejaVuSans-66"/>
     <use x="35.205078" xlink:href="#DejaVuSans-38"/>
    </g>
   </g>
   <g id="text_16">
    <!-- f6 -->
    <g transform="translate(369.18424 20.091654)scale(0.17 -0.17)">
     <use xlink:href="#DejaVuSans-66"/>
     <use x="35.205078" xlink:href="#DejaVuSans-36"/>
    </g>
   </g>
   <g id="text_17">
    <!-- bbob -->
    <defs>
     <path d="M 48.6875 27.296875 
Q 48.6875 37.203125 44.609375 42.84375 
Q 40.53125 48.484375 33.40625 48.484375 
Q 26.265625 48.484375 22.1875 42.84375 
Q 18.109375 37.203125 18.109375 27.296875 
Q 18.109375 17.390625 22.1875 11.75 
Q 26.265625 6.109375 33.40625 6.109375 
Q 40.53125 6.109375 44.609375 11.75 
Q 48.6875 17.390625 48.6875 27.296875 
z
M 18.109375 46.390625 
Q 20.953125 51.265625 25.265625 53.625 
Q 29.59375 56 35.59375 56 
Q 45.5625 56 51.78125 48.09375 
Q 58.015625 40.1875 58.015625 27.296875 
Q 58.015625 14.40625 51.78125 6.484375 
Q 45.5625 -1.421875 35.59375 -1.421875 
Q 29.59375 -1.421875 25.265625 0.953125 
Q 20.953125 3.328125 18.109375 8.203125 
L 18.109375 0 
L 9.078125 0 
L 9.078125 75.984375 
L 18.109375 75.984375 
z
" id="DejaVuSans-62"/>
    </defs>
    <g transform="translate(58.89048 17.475982)scale(0.102 -0.102)">
     <use xlink:href="#DejaVuSans-62"/>
     <use x="63.476562" xlink:href="#DejaVuSans-62"/>
     <use x="126.953125" xlink:href="#DejaVuSans-6f"/>
     <use x="188.134766" xlink:href="#DejaVuSans-62"/>
    </g>
    <!-- Misc. moderate functions, 3-D -->
    <defs>
     <path d="M 9.8125 72.90625 
L 24.515625 72.90625 
L 43.109375 23.296875 
L 61.8125 72.90625 
L 76.515625 72.90625 
L 76.515625 0 
L 66.890625 0 
L 66.890625 64.015625 
L 48.09375 14.015625 
L 38.1875 14.015625 
L 19.390625 64.015625 
L 19.390625 0 
L 9.8125 0 
z
" id="DejaVuSans-4d"/>
     <path d="M 40.578125 39.3125 
Q 47.65625 37.796875 51.625 33 
Q 55.609375 28.21875 55.609375 21.1875 
Q 55.609375 10.40625 48.1875 4.484375 
Q 40.765625 -1.421875 27.09375 -1.421875 
Q 22.515625 -1.421875 17.65625 -0.515625 
Q 12.796875 0.390625 7.625 2.203125 
L 7.625 11.71875 
Q 11.71875 9.328125 16.59375 8.109375 
Q 21.484375 6.890625 26.8125 6.890625 
Q 36.078125 6.890625 40.9375 10.546875 
Q 45.796875 14.203125 45.796875 21.1875 
Q 45.796875 27.640625 41.28125 31.265625 
Q 36.765625 34.90625 28.71875 34.90625 
L 20.21875 34.90625 
L 20.21875 43.015625 
L 29.109375 43.015625 
Q 36.375 43.015625 40.234375 45.921875 
Q 44.09375 48.828125 44.09375 54.296875 
Q 44.09375 59.90625 40.109375 62.90625 
Q 36.140625 65.921875 28.71875 65.921875 
Q 24.65625 65.921875 20.015625 65.03125 
Q 15.375 64.15625 9.8125 62.3125 
L 9.8125 71.09375 
Q 15.4375 72.65625 20.34375 73.4375 
Q 25.25 74.21875 29.59375 74.21875 
Q 40.828125 74.21875 47.359375 69.109375 
Q 53.90625 64.015625 53.90625 55.328125 
Q 53.90625 49.265625 50.4375 45.09375 
Q 46.96875 40.921875 40.578125 39.3125 
z
" id="DejaVuSans-33"/>
     <path d="M 19.671875 64.796875 
L 19.671875 8.109375 
L 31.59375 8.109375 
Q 46.6875 8.109375 53.6875 14.9375 
Q 60.6875 21.78125 60.6875 36.53125 
Q 60.6875 51.171875 53.6875 57.984375 
Q 46.6875 64.796875 31.59375 64.796875 
z
M 9.8125 72.90625 
L 30.078125 72.90625 
Q 51.265625 72.90625 61.171875 64.09375 
Q 71.09375 55.28125 71.09375 36.53125 
Q 71.09375 17.671875 61.125 8.828125 
Q 51.171875 0 30.078125 0 
L 9.8125 0 
z
" id="DejaVuSans-44"/>
    </defs>
    <g transform="translate(58.89048 28.89775)scale(0.102 -0.102)">
     <use xlink:href="#DejaVuSans-4d"/>
     <use x="86.279297" xlink:href="#DejaVuSans-69"/>
     <use x="114.0625" xlink:href="#DejaVuSans-73"/>
     <use x="166.162109" xlink:href="#DejaVuSans-63"/>
     <use x="221.142578" xlink:href="#DejaVuSans-2e"/>
     <use x="252.929688" xlink:href="#DejaVuSans-20"/>
     <use x="284.716797" xlink:href="#DejaVuSans-6d"/>
     <use x="382.128906" xlink:href="#DejaVuSans-6f"/>
     <use x="443.310547" xlink:href="#DejaVuSans-64"/>
     <use x="506.787109" xlink:href="#DejaVuSans-65"/>
     <use x="568.310547" xlink:href="#DejaVuSans-72"/>
     <use x="609.423828" xlink:href="#DejaVuSans-61"/>
     <use x="670.703125" xlink:href="#DejaVuSans-74"/>
     <use x="709.912109" xlink:href="#DejaVuSans-65"/>
     <use x="771.435547" xlink:href="#DejaVuSans-20"/>
     <use x="803.222656" xlink:href="#DejaVuSans-66"/>
     <use x="838.427734" xlink:href="#DejaVuSans-75"/>
     <use x="901.806641" xlink:href="#DejaVuSans-6e"/>
     <use x="965.185547" xlink:href="#DejaVuSans-63"/>
     <use x="1020.166016" xlink:href="#DejaVuSans-74"/>
     <use x="1059.375" xlink:href="#DejaVuSans-69"/>
     <use x="1087.158203" xlink:href="#DejaVuSans-6f"/>
     <use x="1148.339844" xlink:href="#DejaVuSans-6e"/>
     <use x="1211.71875" xlink:href="#DejaVuSans-73"/>
     <use x="1263.818359" xlink:href="#DejaVuSans-2c"/>
     <use x="1295.605469" xlink:href="#DejaVuSans-20"/>
     <use x="1327.392578" xlink:href="#DejaVuSans-33"/>
     <use x="1391.015625" xlink:href="#DejaVuSans-2d"/>
     <use x="1427.099609" xlink:href="#DejaVuSans-44"/>
    </g>
    <!-- 51 targets: 100..1e-08 -->
    <defs>
     <path d="M 10.796875 72.90625 
L 49.515625 72.90625 
L 49.515625 64.59375 
L 19.828125 64.59375 
L 19.828125 46.734375 
Q 21.96875 47.46875 24.109375 47.828125 
Q 26.265625 48.1875 28.421875 48.1875 
Q 40.625 48.1875 47.75 41.5 
Q 54.890625 34.8125 54.890625 23.390625 
Q 54.890625 11.625 47.5625 5.09375 
Q 40.234375 -1.421875 26.90625 -1.421875 
Q 22.3125 -1.421875 17.546875 -0.640625 
Q 12.796875 0.140625 7.71875 1.703125 
L 7.71875 11.625 
Q 12.109375 9.234375 16.796875 8.0625 
Q 21.484375 6.890625 26.703125 6.890625 
Q 35.15625 6.890625 40.078125 11.328125 
Q 45.015625 15.765625 45.015625 23.390625 
Q 45.015625 31 40.078125 35.4375 
Q 35.15625 39.890625 26.703125 39.890625 
Q 22.75 39.890625 18.8125 39.015625 
Q 14.890625 38.140625 10.796875 36.28125 
z
" id="DejaVuSans-35"/>
     <path d="M 11.71875 12.40625 
L 22.015625 12.40625 
L 22.015625 0 
L 11.71875 0 
z
M 11.71875 51.703125 
L 22.015625 51.703125 
L 22.015625 39.3125 
L 11.71875 39.3125 
z
" id="DejaVuSans-3a"/>
    </defs>
    <g transform="translate(58.89048 40.319519)scale(0.102 -0.102)">
     <use xlink:href="#DejaVuSans-35"/>
     <use x="63.623047" xlink:href="#DejaVuSans-31"/>
     <use x="127.246094" xlink:href="#DejaVuSans-20"/>
     <use x="159.033203" xlink:href="#DejaVuSans-74"/>
     <use x="198.242188" xlink:href="#DejaVuSans-61"/>
     <use x="259.521484" xlink:href="#DejaVuSans-72"/>
     <use x="300.619141" xlink:href="#DejaVuSans-67"/>
     <use x="364.095703" xlink:href="#DejaVuSans-65"/>
     <use x="425.619141" xlink:href="#DejaVuSans-74"/>
     <use x="464.828125" xlink:href="#DejaVuSans-73"/>
     <use x="516.927734" xlink:href="#DejaVuSans-3a"/>
     <use x="550.619141" xlink:href="#DejaVuSans-20"/>
     <use x="582.40625" xlink:href="#DejaVuSans-31"/>
     <use x="646.029297" xlink:href="#DejaVuSans-30"/>
     <use x="709.652344" xlink:href="#DejaVuSans-30"/>
     <use x="773.275391" xlink:href="#DejaVuSans-2e"/>
     <use x="805.0625" xlink:href="#DejaVuSans-2e"/>
     <use x="836.849609" xlink:href="#DejaVuSans-31"/>
     <use x="900.472656" xlink:href="#DejaVuSans-65"/>
     <use x="961.996094" xlink:href="#DejaVuSans-2d"/>
     <use x="998.080078" xlink:href="#DejaVuSans-30"/>
     <use x="1061.703125" xlink:href="#DejaVuSans-38"/>
    </g>
    <!-- 15 instances -->
    <g transform="translate(58.89048 51.741288)scale(0.102 -0.102)">
     <use xlink:href="#DejaVuSans-31"/>
     <use x="63.623047" xlink:href="#DejaVuSans-35"/>
     <use x="127.246094" xlink:href="#DejaVuSans-20"/>
     <use x="159.033203" xlink:href="#DejaVuSans-69"/>
     <use x="186.816406" xlink:href="#DejaVuSans-6e"/>
     <use x="250.195312" xlink:href="#DejaVuSans-73"/>
     <use x="302.294922" xlink:href="#DejaVuSans-74"/>
     <use x="341.503906" xlink:href="#DejaVuSans-61"/>
     <use x="402.783203" xlink:href="#DejaVuSans-6e"/>
     <use x="466.162109" xlink:href="#DejaVuSans-63"/>
     <use x="521.142578" xlink:href="#DejaVuSans-65"/>
     <use x="582.666016" xlink:href="#DejaVuSans-73"/>
    </g>
   </g>
   <g id="text_18">
    <!-- v0.0.0 -->
    <g style="fill:#808080;" transform="translate(178.96275 289.919965)scale(0.1 -0.1)">
     <use xlink:href="#DejaVuSans-76"/>
     <use x="59.179688" xlink:href="#DejaVuSans-30"/>
     <use x="122.802734" xlink:href="#DejaVuSans-2e"/>
     <use x="154.589844" xlink:href="#DejaVuSans-30"/>
     <use x="218.212891" xlink:href="#DejaVuSans-2e"/>
     <use x="250" xlink:href="#DejaVuSans-30"/>
    </g>
   </g>
  </g>
 </g>
 <defs>
  <clipPath id="p2b5fc8a027">
   <rect height="288.034772" width="277.048" x="56.12" y="6.845228"/>
  </clipPath>
 </defs>
</svg>
