<?xml version="1.0" encoding="utf-8" standalone="no"?>
<!DOCTYPE svg PUBLIC "-//W3C//DTD SVG 1.1//EN"
  "http://www.w3.org/Graphics/SVG/1.1/DTD/svg11.dtd">
<!-- Created with matplotlib (http://matplotlib.org/) -->
<svg height="345.6pt" version="1.1" viewBox="0 0 460.8 345.6" width="460.8pt" xmlns="http://www.w3.org/2000/svg" xmlns:xlink="http://www.w3.org/1999/xlink">
 <defs>
  <style type="text/css">
*{stroke-linecap:butt;stroke-linejoin:round;}
  </style>
 </defs>
 <g id="figure_1">
  <g id="patch_1">
   <path d="M 0 345.6 
L 460.8 345.6 
L 460.8 0 
L 0 0 
z
" style="fill:#ffffff;"/>
  </g>
  <g id="axes_1">
   <g id="patch_2">
    <path d="M 56.12 294.88 
L 333.168 294.88 
L 333.168 6.845228 
L 56.12 6.845228 
z
" style="fill:#ffffff;"/>
   </g>
   <g id="matplotlib.axis_1">
    <g id="xtick_1">
     <g id="line2d_1">
      <path clip-path="url(#pfd19195acb)" d="M 56.12 294.88 
L 56.12 6.845228 
" style="fill:none;stroke:#b0b0b0;stroke-linecap:square;stroke-width:0.8;"/>
     </g>
     <g id="line2d_2">
      <defs>
       <path d="M 0 0 
L 0 3.5 
" id="m138009b638" style="stroke:#000000;stroke-width:0.8;"/>
      </defs>
      <g>
       <use style="stroke:#000000;stroke-width:0.8;" x="56.12" xlink:href="#m138009b638" y="294.88"/>
      </g>
     </g>
     <g id="text_1">
      <!-- 0 -->
      <defs>
       <path d="M 31.78125 66.40625 
Q 24.171875 66.40625 20.328125 58.90625 
Q 16.5 51.421875 16.5 36.375 
Q 16.5 21.390625 20.328125 13.890625 
Q 24.171875 6.390625 31.78125 6.390625 
Q 39.453125 6.390625 43.28125 13.890625 
Q 47.125 21.390625 47.125 36.375 
Q 47.125 51.421875 43.28125 58.90625 
Q 39.453125 66.40625 31.78125 66.40625 
z
M 31.78125 74.21875 
Q 44.046875 74.21875 50.515625 64.515625 
Q 56.984375 54.828125 56.984375 36.375 
Q 56.984375 17.96875 50.515625 8.265625 
Q 44.046875 -1.421875 31.78125 -1.421875 
Q 19.53125 -1.421875 13.0625 8.265625 
Q 6.59375 17.96875 6.59375 36.375 
Q 6.59375 54.828125 13.0625 64.515625 
Q 19.53125 74.21875 31.78125 74.21875 
z
" id="DejaVuSans-30"/>
      </defs>
      <g transform="translate(49.7575 317.076875)scale(0.2 -0.2)">
       <use xlink:href="#DejaVuSans-30"/>
      </g>
     </g>
    </g>
    <g id="xtick_2">
     <g id="line2d_3">
      <path clip-path="url(#pfd19195acb)" d="M 135.276571 294.88 
L 135.276571 6.845228 
" style="fill:none;stroke:#b0b0b0;stroke-linecap:square;stroke-width:0.8;"/>
     </g>
     <g id="line2d_4">
      <g>
       <use style="stroke:#000000;stroke-width:0.8;" x="135.276571" xlink:href="#m138009b638" y="294.88"/>
      </g>
     </g>
     <g id="text_2">
      <!-- 2 -->
      <defs>
       <path d="M 19.1875 8.296875 
L 53.609375 8.296875 
L 53.609375 0 
L 7.328125 0 
L 7.328125 8.296875 
Q 12.9375 14.109375 22.625 23.890625 
Q 32.328125 33.6875 34.8125 36.53125 
Q 39.546875 41.84375 41.421875 45.53125 
Q 43.3125 49.21875 43.3125 52.78125 
Q 43.3125 58.59375 39.234375 62.25 
Q 35.15625 65.921875 28.609375 65.921875 
Q 23.96875 65.921875 18.8125 64.3125 
Q 13.671875 62.703125 7.8125 59.421875 
L 7.8125 69.390625 
Q 13.765625 71.78125 18.9375 73 
Q 24.125 74.21875 28.421875 74.21875 
Q 39.75 74.21875 46.484375 68.546875 
Q 53.21875 62.890625 53.21875 53.421875 
Q 53.21875 48.921875 51.53125 44.890625 
Q 49.859375 40.875 45.40625 35.40625 
Q 44.1875 33.984375 37.640625 27.21875 
Q 31.109375 20.453125 19.1875 8.296875 
z
" id="DejaVuSans-32"/>
      </defs>
      <g transform="translate(128.914071 317.076875)scale(0.2 -0.2)">
       <use xlink:href="#DejaVuSans-32"/>
      </g>
     </g>
    </g>
    <g id="xtick_3">
     <g id="line2d_5">
      <path clip-path="url(#pfd19195acb)" d="M 214.433143 294.88 
L 214.433143 6.845228 
" style="fill:none;stroke:#b0b0b0;stroke-linecap:square;stroke-width:0.8;"/>
     </g>
     <g id="line2d_6">
      <g>
       <use style="stroke:#000000;stroke-width:0.8;" x="214.433143" xlink:href="#m138009b638" y="294.88"/>
      </g>
     </g>
     <g id="text_3">
      <!-- 4 -->
      <defs>
       <path d="M 37.796875 64.3125 
L 12.890625 25.390625 
L 37.796875 25.390625 
z
M 35.203125 72.90625 
L 47.609375 72.90625 
L 47.609375 25.390625 
L 58.015625 25.390625 
L 58.015625 17.1875 
L 47.609375 17.1875 
L 47.609375 0 
L 37.796875 0 
L 37.796875 17.1875 
L 4.890625 17.1875 
L 4.890625 26.703125 
z
" id="DejaVuSans-34"/>
      </defs>
      <g transform="translate(208.070643 317.076875)scale(0.2 -0.2)">
       <use xlink:href="#DejaVuSans-34"/>
      </g>
     </g>
    </g>
    <g id="xtick_4">
     <g id="line2d_7">
      <path clip-path="url(#pfd19195acb)" d="M 293.589714 294.88 
L 293.589714 6.845228 
" style="fill:none;stroke:#b0b0b0;stroke-linecap:square;stroke-width:0.8;"/>
     </g>
     <g id="line2d_8">
      <g>
       <use style="stroke:#000000;stroke-width:0.8;" x="293.589714" xlink:href="#m138009b638" y="294.88"/>
      </g>
     </g>
     <g id="text_4">
      <!-- 6 -->
      <defs>
       <path d="M 33.015625 40.375 
Q 26.375 40.375 22.484375 35.828125 
Q 18.609375 31.296875 18.609375 23.390625 
Q 18.609375 15.53125 22.484375 10.953125 
Q 26.375 6.390625 33.015625 6.390625 
Q 39.65625 6.390625 43.53125 10.953125 
Q 47.40625 15.53125 47.40625 23.390625 
Q 47.40625 31.296875 43.53125 35.828125 
Q 39.65625 40.375 33.015625 40.375 
z
M 52.59375 71.296875 
L 52.59375 62.3125 
Q 48.875 64.0625 45.09375 64.984375 
Q 41.3125 65.921875 37.59375 65.921875 
Q 27.828125 65.921875 22.671875 59.328125 
Q 17.53125 52.734375 16.796875 39.40625 
Q 19.671875 43.65625 24.015625 45.921875 
Q 28.375 48.1875 33.59375 48.1875 
Q 44.578125 48.1875 50.953125 41.515625 
Q 57.328125 34.859375 57.328125 23.390625 
Q 57.328125 12.15625 50.6875 5.359375 
Q 44.046875 -1.421875 33.015625 -1.421875 
Q 20.359375 -1.421875 13.671875 8.265625 
Q 6.984375 17.96875 6.984375 36.375 
Q 6.984375 53.65625 15.1875 63.9375 
Q 23.390625 74.21875 37.203125 74.21875 
Q 40.921875 74.21875 44.703125 73.484375 
Q 48.484375 72.75 52.59375 71.296875 
z
" id="DejaVuSans-36"/>
      </defs>
      <g transform="translate(287.227214 317.076875)scale(0.2 -0.2)">
       <use xlink:href="#DejaVuSans-36"/>
      </g>
     </g>
    </g>
    <g id="xtick_5">
     <g id="line2d_9">
      <path clip-path="url(#pfd19195acb)" d="M 56.12 294.88 
L 56.12 6.845228 
" style="fill:none;stroke:#b0b0b0;stroke-linecap:square;stroke-width:0.8;"/>
     </g>
     <g id="line2d_10">
      <defs>
       <path d="M 0 0 
L 0 2 
" id="m5f645b34aa" style="stroke:#000000;stroke-width:0.6;"/>
      </defs>
      <g>
       <use style="stroke:#000000;stroke-width:0.6;" x="56.12" xlink:href="#m5f645b34aa" y="294.88"/>
      </g>
     </g>
    </g>
    <g id="xtick_6">
     <g id="line2d_11">
      <path clip-path="url(#pfd19195acb)" d="M 95.698286 294.88 
L 95.698286 6.845228 
" style="fill:none;stroke:#b0b0b0;stroke-linecap:square;stroke-width:0.8;"/>
     </g>
     <g id="line2d_12">
      <g>
       <use style="stroke:#000000;stroke-width:0.6;" x="95.698286" xlink:href="#m5f645b34aa" y="294.88"/>
      </g>
     </g>
    </g>
    <g id="xtick_7">
     <g id="line2d_13">
      <path clip-path="url(#pfd19195acb)" d="M 135.276571 294.88 
L 135.276571 6.845228 
" style="fill:none;stroke:#b0b0b0;stroke-linecap:square;stroke-width:0.8;"/>
     </g>
     <g id="line2d_14">
      <g>
       <use style="stroke:#000000;stroke-width:0.6;" x="135.276571" xlink:href="#m5f645b34aa" y="294.88"/>
      </g>
     </g>
    </g>
    <g id="xtick_8">
     <g id="line2d_15">
      <path clip-path="url(#pfd19195acb)" d="M 174.854857 294.88 
L 174.854857 6.845228 
" style="fill:none;stroke:#b0b0b0;stroke-linecap:square;stroke-width:0.8;"/>
     </g>
     <g id="line2d_16">
      <g>
       <use style="stroke:#000000;stroke-width:0.6;" x="174.854857" xlink:href="#m5f645b34aa" y="294.88"/>
      </g>
     </g>
    </g>
    <g id="xtick_9">
     <g id="line2d_17">
      <path clip-path="url(#pfd19195acb)" d="M 214.433143 294.88 
L 214.433143 6.845228 
" style="fill:none;stroke:#b0b0b0;stroke-linecap:square;stroke-width:0.8;"/>
     </g>
     <g id="line2d_18">
      <g>
       <use style="stroke:#000000;stroke-width:0.6;" x="214.433143" xlink:href="#m5f645b34aa" y="294.88"/>
      </g>
     </g>
    </g>
    <g id="xtick_10">
     <g id="line2d_19">
      <path clip-path="url(#pfd19195acb)" d="M 254.011429 294.88 
L 254.011429 6.845228 
" style="fill:none;stroke:#b0b0b0;stroke-linecap:square;stroke-width:0.8;"/>
     </g>
     <g id="line2d_20">
      <g>
       <use style="stroke:#000000;stroke-width:0.6;" x="254.011429" xlink:href="#m5f645b34aa" y="294.88"/>
      </g>
     </g>
    </g>
    <g id="xtick_11">
     <g id="line2d_21">
      <path clip-path="url(#pfd19195acb)" d="M 293.589714 294.88 
L 293.589714 6.845228 
" style="fill:none;stroke:#b0b0b0;stroke-linecap:square;stroke-width:0.8;"/>
     </g>
     <g id="line2d_22">
      <g>
       <use style="stroke:#000000;stroke-width:0.6;" x="293.589714" xlink:href="#m5f645b34aa" y="294.88"/>
      </g>
     </g>
    </g>
    <g id="xtick_12">
     <g id="line2d_23">
      <path clip-path="url(#pfd19195acb)" d="M 333.168 294.88 
L 333.168 6.845228 
" style="fill:none;stroke:#b0b0b0;stroke-linecap:square;stroke-width:0.8;"/>
     </g>
     <g id="line2d_24">
      <g>
       <use style="stroke:#000000;stroke-width:0.6;" x="333.168" xlink:href="#m5f645b34aa" y="294.88"/>
      </g>
     </g>
    </g>
    <g id="text_5">
     <!-- log10(# f-evals / dimension) -->
     <defs>
      <path d="M 9.421875 75.984375 
L 18.40625 75.984375 
L 18.40625 0 
L 9.421875 0 
z
" id="DejaVuSans-6c"/>
      <path d="M 30.609375 48.390625 
Q 23.390625 48.390625 19.1875 42.75 
Q 14.984375 37.109375 14.984375 27.296875 
Q 14.984375 17.484375 19.15625 11.84375 
Q 23.34375 6.203125 30.609375 6.203125 
Q 37.796875 6.203125 41.984375 11.859375 
Q 46.1875 17.53125 46.1875 27.296875 
Q 46.1875 37.015625 41.984375 42.703125 
Q 37.796875 48.390625 30.609375 48.390625 
z
M 30.609375 56 
Q 42.328125 56 49.015625 48.375 
Q 55.71875 40.765625 55.71875 27.296875 
Q 55.71875 13.875 49.015625 6.21875 
Q 42.328125 -1.421875 30.609375 -1.421875 
Q 18.84375 -1.421875 12.171875 6.21875 
Q 5.515625 13.875 5.515625 27.296875 
Q 5.515625 40.765625 12.171875 48.375 
Q 18.84375 56 30.609375 56 
z
" id="DejaVuSans-6f"/>
      <path d="M 45.40625 27.984375 
Q 45.40625 37.75 41.375 43.109375 
Q 37.359375 48.484375 30.078125 48.484375 
Q 22.859375 48.484375 18.828125 43.109375 
Q 14.796875 37.75 14.796875 27.984375 
Q 14.796875 18.265625 18.828125 12.890625 
Q 22.859375 7.515625 30.078125 7.515625 
Q 37.359375 7.515625 41.375 12.890625 
Q 45.40625 18.265625 45.40625 27.984375 
z
M 54.390625 6.78125 
Q 54.390625 -7.171875 48.1875 -13.984375 
Q 42 -20.796875 29.203125 -20.796875 
Q 24.46875 -20.796875 20.265625 -20.09375 
Q 16.0625 -19.390625 12.109375 -17.921875 
L 12.109375 -9.1875 
Q 16.0625 -11.328125 19.921875 -12.34375 
Q 23.78125 -13.375 27.78125 -13.375 
Q 36.625 -13.375 41.015625 -8.765625 
Q 45.40625 -4.15625 45.40625 5.171875 
L 45.40625 9.625 
Q 42.625 4.78125 38.28125 2.390625 
Q 33.9375 0 27.875 0 
Q 17.828125 0 11.671875 7.65625 
Q 5.515625 15.328125 5.515625 27.984375 
Q 5.515625 40.671875 11.671875 48.328125 
Q 17.828125 56 27.875 56 
Q 33.9375 56 38.28125 53.609375 
Q 42.625 51.21875 45.40625 46.390625 
L 45.40625 54.6875 
L 54.390625 54.6875 
z
" id="DejaVuSans-67"/>
      <path d="M 12.40625 8.296875 
L 28.515625 8.296875 
L 28.515625 63.921875 
L 10.984375 60.40625 
L 10.984375 69.390625 
L 28.421875 72.90625 
L 38.28125 72.90625 
L 38.28125 8.296875 
L 54.390625 8.296875 
L 54.390625 0 
L 12.40625 0 
z
" id="DejaVuSans-31"/>
      <path d="M 31 75.875 
Q 24.46875 64.65625 21.28125 53.65625 
Q 18.109375 42.671875 18.109375 31.390625 
Q 18.109375 20.125 21.3125 9.0625 
Q 24.515625 -2 31 -13.1875 
L 23.1875 -13.1875 
Q 15.875 -1.703125 12.234375 9.375 
Q 8.59375 20.453125 8.59375 31.390625 
Q 8.59375 42.28125 12.203125 53.3125 
Q 15.828125 64.359375 23.1875 75.875 
z
" id="DejaVuSans-28"/>
      <path d="M 51.125 44 
L 36.921875 44 
L 32.8125 27.6875 
L 47.125 27.6875 
z
M 43.796875 71.78125 
L 38.71875 51.515625 
L 52.984375 51.515625 
L 58.109375 71.78125 
L 65.921875 71.78125 
L 60.890625 51.515625 
L 76.125 51.515625 
L 76.125 44 
L 58.984375 44 
L 54.984375 27.6875 
L 70.515625 27.6875 
L 70.515625 20.21875 
L 53.078125 20.21875 
L 48 0 
L 40.1875 0 
L 45.21875 20.21875 
L 30.90625 20.21875 
L 25.875 0 
L 18.015625 0 
L 23.09375 20.21875 
L 7.71875 20.21875 
L 7.71875 27.6875 
L 24.90625 27.6875 
L 29 44 
L 13.28125 44 
L 13.28125 51.515625 
L 30.90625 51.515625 
L 35.890625 71.78125 
z
" id="DejaVuSans-23"/>
      <path id="DejaVuSans-20"/>
      <path d="M 37.109375 75.984375 
L 37.109375 68.5 
L 28.515625 68.5 
Q 23.6875 68.5 21.796875 66.546875 
Q 19.921875 64.59375 19.921875 59.515625 
L 19.921875 54.6875 
L 34.71875 54.6875 
L 34.71875 47.703125 
L 19.921875 47.703125 
L 19.921875 0 
L 10.890625 0 
L 10.890625 47.703125 
L 2.296875 47.703125 
L 2.296875 54.6875 
L 10.890625 54.6875 
L 10.890625 58.5 
Q 10.890625 67.625 15.140625 71.796875 
Q 19.390625 75.984375 28.609375 75.984375 
z
" id="DejaVuSans-66"/>
      <path d="M 4.890625 31.390625 
L 31.203125 31.390625 
L 31.203125 23.390625 
L 4.890625 23.390625 
z
" id="DejaVuSans-2d"/>
      <path d="M 56.203125 29.59375 
L 56.203125 25.203125 
L 14.890625 25.203125 
Q 15.484375 15.921875 20.484375 11.0625 
Q 25.484375 6.203125 34.421875 6.203125 
Q 39.59375 6.203125 44.453125 7.46875 
Q 49.3125 8.734375 54.109375 11.28125 
L 54.109375 2.78125 
Q 49.265625 0.734375 44.1875 -0.34375 
Q 39.109375 -1.421875 33.890625 -1.421875 
Q 20.796875 -1.421875 13.15625 6.1875 
Q 5.515625 13.8125 5.515625 26.8125 
Q 5.515625 40.234375 12.765625 48.109375 
Q 20.015625 56 32.328125 56 
Q 43.359375 56 49.78125 48.890625 
Q 56.203125 41.796875 56.203125 29.59375 
z
M 47.21875 32.234375 
Q 47.125 39.59375 43.09375 43.984375 
Q 39.0625 48.390625 32.421875 48.390625 
Q 24.90625 48.390625 20.390625 44.140625 
Q 15.875 39.890625 15.1875 32.171875 
z
" id="DejaVuSans-65"/>
      <path d="M 2.984375 54.6875 
L 12.5 54.6875 
L 29.59375 8.796875 
L 46.6875 54.6875 
L 56.203125 54.6875 
L 35.6875 0 
L 23.484375 0 
z
" id="DejaVuSans-76"/>
      <path d="M 34.28125 27.484375 
Q 23.390625 27.484375 19.1875 25 
Q 14.984375 22.515625 14.984375 16.5 
Q 14.984375 11.71875 18.140625 8.90625 
Q 21.296875 6.109375 26.703125 6.109375 
Q 34.1875 6.109375 38.703125 11.40625 
Q 43.21875 16.703125 43.21875 25.484375 
L 43.21875 27.484375 
z
M 52.203125 31.203125 
L 52.203125 0 
L 43.21875 0 
L 43.21875 8.296875 
Q 40.140625 3.328125 35.546875 0.953125 
Q 30.953125 -1.421875 24.3125 -1.421875 
Q 15.921875 -1.421875 10.953125 3.296875 
Q 6 8.015625 6 15.921875 
Q 6 25.140625 12.171875 29.828125 
Q 18.359375 34.515625 30.609375 34.515625 
L 43.21875 34.515625 
L 43.21875 35.40625 
Q 43.21875 41.609375 39.140625 45 
Q 35.0625 48.390625 27.6875 48.390625 
Q 23 48.390625 18.546875 47.265625 
Q 14.109375 46.140625 10.015625 43.890625 
L 10.015625 52.203125 
Q 14.9375 54.109375 19.578125 55.046875 
Q 24.21875 56 28.609375 56 
Q 40.484375 56 46.34375 49.84375 
Q 52.203125 43.703125 52.203125 31.203125 
z
" id="DejaVuSans-61"/>
      <path d="M 44.28125 53.078125 
L 44.28125 44.578125 
Q 40.484375 46.53125 36.375 47.5 
Q 32.28125 48.484375 27.875 48.484375 
Q 21.1875 48.484375 17.84375 46.4375 
Q 14.5 44.390625 14.5 40.28125 
Q 14.5 37.15625 16.890625 35.375 
Q 19.28125 33.59375 26.515625 31.984375 
L 29.59375 31.296875 
Q 39.15625 29.25 43.1875 25.515625 
Q 47.21875 21.78125 47.21875 15.09375 
Q 47.21875 7.46875 41.1875 3.015625 
Q 35.15625 -1.421875 24.609375 -1.421875 
Q 20.21875 -1.421875 15.453125 -0.5625 
Q 10.6875 0.296875 5.421875 2 
L 5.421875 11.28125 
Q 10.40625 8.6875 15.234375 7.390625 
Q 20.0625 6.109375 24.8125 6.109375 
Q 31.15625 6.109375 34.5625 8.28125 
Q 37.984375 10.453125 37.984375 14.40625 
Q 37.984375 18.0625 35.515625 20.015625 
Q 33.0625 21.96875 24.703125 23.78125 
L 21.578125 24.515625 
Q 13.234375 26.265625 9.515625 29.90625 
Q 5.8125 33.546875 5.8125 39.890625 
Q 5.8125 47.609375 11.28125 51.796875 
Q 16.75 56 26.8125 56 
Q 31.78125 56 36.171875 55.265625 
Q 40.578125 54.546875 44.28125 53.078125 
z
" id="DejaVuSans-73"/>
      <path d="M 25.390625 72.90625 
L 33.6875 72.90625 
L 8.296875 -9.28125 
L 0 -9.28125 
z
" id="DejaVuSans-2f"/>
      <path d="M 45.40625 46.390625 
L 45.40625 75.984375 
L 54.390625 75.984375 
L 54.390625 0 
L 45.40625 0 
L 45.40625 8.203125 
Q 42.578125 3.328125 38.25 0.953125 
Q 33.9375 -1.421875 27.875 -1.421875 
Q 17.96875 -1.421875 11.734375 6.484375 
Q 5.515625 14.40625 5.515625 27.296875 
Q 5.515625 40.1875 11.734375 48.09375 
Q 17.96875 56 27.875 56 
Q 33.9375 56 38.25 53.625 
Q 42.578125 51.265625 45.40625 46.390625 
z
M 14.796875 27.296875 
Q 14.796875 17.390625 18.875 11.75 
Q 22.953125 6.109375 30.078125 6.109375 
Q 37.203125 6.109375 41.296875 11.75 
Q 45.40625 17.390625 45.40625 27.296875 
Q 45.40625 37.203125 41.296875 42.84375 
Q 37.203125 48.484375 30.078125 48.484375 
Q 22.953125 48.484375 18.875 42.84375 
Q 14.796875 37.203125 14.796875 27.296875 
z
" id="DejaVuSans-64"/>
      <path d="M 9.421875 54.6875 
L 18.40625 54.6875 
L 18.40625 0 
L 9.421875 0 
z
M 9.421875 75.984375 
L 18.40625 75.984375 
L 18.40625 64.59375 
L 9.421875 64.59375 
z
" id="DejaVuSans-69"/>
      <path d="M 52 44.1875 
Q 55.375 50.25 60.0625 53.125 
Q 64.75 56 71.09375 56 
Q 79.640625 56 84.28125 50.015625 
Q 88.921875 44.046875 88.921875 33.015625 
L 88.921875 0 
L 79.890625 0 
L 79.890625 32.71875 
Q 79.890625 40.578125 77.09375 44.375 
Q 74.3125 48.1875 68.609375 48.1875 
Q 61.625 48.1875 57.5625 43.546875 
Q 53.515625 38.921875 53.515625 30.90625 
L 53.515625 0 
L 44.484375 0 
L 44.484375 32.71875 
Q 44.484375 40.625 41.703125 44.40625 
Q 38.921875 48.1875 33.109375 48.1875 
Q 26.21875 48.1875 22.15625 43.53125 
Q 18.109375 38.875 18.109375 30.90625 
L 18.109375 0 
L 9.078125 0 
L 9.078125 54.6875 
L 18.109375 54.6875 
L 18.109375 46.1875 
Q 21.1875 51.21875 25.484375 53.609375 
Q 29.78125 56 35.6875 56 
Q 41.65625 56 45.828125 52.96875 
Q 50 49.953125 52 44.1875 
z
" id="DejaVuSans-6d"/>
      <path d="M 54.890625 33.015625 
L 54.890625 0 
L 45.90625 0 
L 45.90625 32.71875 
Q 45.90625 40.484375 42.875 44.328125 
Q 39.84375 48.1875 33.796875 48.1875 
Q 26.515625 48.1875 22.3125 43.546875 
Q 18.109375 38.921875 18.109375 30.90625 
L 18.109375 0 
L 9.078125 0 
L 9.078125 54.6875 
L 18.109375 54.6875 
L 18.109375 46.1875 
Q 21.34375 51.125 25.703125 53.5625 
Q 30.078125 56 35.796875 56 
Q 45.21875 56 50.046875 50.171875 
Q 54.890625 44.34375 54.890625 33.015625 
z
" id="DejaVuSans-6e"/>
      <path d="M 8.015625 75.875 
L 15.828125 75.875 
Q 23.140625 64.359375 26.78125 53.3125 
Q 30.421875 42.28125 30.421875 31.390625 
Q 30.421875 20.453125 26.78125 9.375 
Q 23.140625 -1.703125 15.828125 -13.1875 
L 8.015625 -13.1875 
Q 14.5 -2 17.703125 9.0625 
Q 20.90625 20.125 20.90625 31.390625 
Q 20.90625 42.671875 17.703125 53.65625 
Q 14.5 64.65625 8.015625 75.875 
z
" id="DejaVuSans-29"/>
     </defs>
     <g transform="translate(73.803219 338.153594)scale(0.17 -0.17)">
      <use xlink:href="#DejaVuSans-6c"/>
      <use x="27.783203" xlink:href="#DejaVuSans-6f"/>
      <use x="88.964844" xlink:href="#DejaVuSans-67"/>
      <use x="152.441406" xlink:href="#DejaVuSans-31"/>
      <use x="216.064453" xlink:href="#DejaVuSans-30"/>
      <use x="279.6875" xlink:href="#DejaVuSans-28"/>
      <use x="318.701172" xlink:href="#DejaVuSans-23"/>
      <use x="402.490234" xlink:href="#DejaVuSans-20"/>
      <use x="434.277344" xlink:href="#DejaVuSans-66"/>
      <use x="469.404297" xlink:href="#DejaVuSans-2d"/>
      <use x="505.488281" xlink:href="#DejaVuSans-65"/>
      <use x="567.011719" xlink:href="#DejaVuSans-76"/>
      <use x="626.191406" xlink:href="#DejaVuSans-61"/>
      <use x="687.470703" xlink:href="#DejaVuSans-6c"/>
      <use x="715.253906" xlink:href="#DejaVuSans-73"/>
      <use x="767.353516" xlink:href="#DejaVuSans-20"/>
      <use x="799.140625" xlink:href="#DejaVuSans-2f"/>
      <use x="832.832031" xlink:href="#DejaVuSans-20"/>
      <use x="864.619141" xlink:href="#DejaVuSans-64"/>
      <use x="928.095703" xlink:href="#DejaVuSans-69"/>
      <use x="955.878906" xlink:href="#DejaVuSans-6d"/>
      <use x="1053.291016" xlink:href="#DejaVuSans-65"/>
      <use x="1114.814453" xlink:href="#DejaVuSans-6e"/>
      <use x="1178.193359" xlink:href="#DejaVuSans-73"/>
      <use x="1230.292969" xlink:href="#DejaVuSans-69"/>
      <use x="1258.076172" xlink:href="#DejaVuSans-6f"/>
      <use x="1319.257812" xlink:href="#DejaVuSans-6e"/>
      <use x="1382.636719" xlink:href="#DejaVuSans-29"/>
     </g>
    </g>
   </g>
   <g id="matplotlib.axis_2">
    <g id="ytick_1">
     <g id="line2d_25">
      <path clip-path="url(#pfd19195acb)" d="M 56.12 294.88 
L 333.168 294.88 
" style="fill:none;stroke:#b0b0b0;stroke-linecap:square;stroke-width:0.8;"/>
     </g>
     <g id="line2d_26">
      <defs>
       <path d="M 0 0 
L -3.5 0 
" id="ma49af1b1ef" style="stroke:#000000;stroke-width:0.8;"/>
      </defs>
      <g>
       <use style="stroke:#000000;stroke-width:0.8;" x="56.12" xlink:href="#ma49af1b1ef" y="294.88"/>
      </g>
     </g>
     <g id="text_6">
      <!-- 0.0 -->
      <defs>
       <path d="M 10.6875 12.40625 
L 21 12.40625 
L 21 0 
L 10.6875 0 
z
" id="DejaVuSans-2e"/>
      </defs>
      <g transform="translate(23.675 300.95875)scale(0.16 -0.16)">
       <use xlink:href="#DejaVuSans-30"/>
       <use x="63.623047" xlink:href="#DejaVuSans-2e"/>
       <use x="95.410156" xlink:href="#DejaVuSans-30"/>
      </g>
     </g>
    </g>
    <g id="ytick_2">
     <g id="line2d_27">
      <path clip-path="url(#pfd19195acb)" d="M 56.12 237.843411 
L 333.168 237.843411 
" style="fill:none;stroke:#b0b0b0;stroke-linecap:square;stroke-width:0.8;"/>
     </g>
     <g id="line2d_28">
      <g>
       <use style="stroke:#000000;stroke-width:0.8;" x="56.12" xlink:href="#ma49af1b1ef" y="237.843411"/>
      </g>
     </g>
     <g id="text_7">
      <!-- 0.2 -->
      <g transform="translate(23.675 243.922161)scale(0.16 -0.16)">
       <use xlink:href="#DejaVuSans-30"/>
       <use x="63.623047" xlink:href="#DejaVuSans-2e"/>
       <use x="95.410156" xlink:href="#DejaVuSans-32"/>
      </g>
     </g>
    </g>
    <g id="ytick_3">
     <g id="line2d_29">
      <path clip-path="url(#pfd19195acb)" d="M 56.12 180.806823 
L 333.168 180.806823 
" style="fill:none;stroke:#b0b0b0;stroke-linecap:square;stroke-width:0.8;"/>
     </g>
     <g id="line2d_30">
      <g>
       <use style="stroke:#000000;stroke-width:0.8;" x="56.12" xlink:href="#ma49af1b1ef" y="180.806823"/>
      </g>
     </g>
     <g id="text_8">
      <!-- 0.4 -->
      <g transform="translate(23.675 186.885573)scale(0.16 -0.16)">
       <use xlink:href="#DejaVuSans-30"/>
       <use x="63.623047" xlink:href="#DejaVuSans-2e"/>
       <use x="95.410156" xlink:href="#DejaVuSans-34"/>
      </g>
     </g>
    </g>
    <g id="ytick_4">
     <g id="line2d_31">
      <path clip-path="url(#pfd19195acb)" d="M 56.12 123.770234 
L 333.168 123.770234 
" style="fill:none;stroke:#b0b0b0;stroke-linecap:square;stroke-width:0.8;"/>
     </g>
     <g id="line2d_32">
      <g>
       <use style="stroke:#000000;stroke-width:0.8;" x="56.12" xlink:href="#ma49af1b1ef" y="123.770234"/>
      </g>
     </g>
     <g id="text_9">
      <!-- 0.6 -->
      <g transform="translate(23.675 129.848984)scale(0.16 -0.16)">
       <use xlink:href="#DejaVuSans-30"/>
       <use x="63.623047" xlink:href="#DejaVuSans-2e"/>
       <use x="95.410156" xlink:href="#DejaVuSans-36"/>
      </g>
     </g>
    </g>
    <g id="ytick_5">
     <g id="line2d_33">
      <path clip-path="url(#pfd19195acb)" d="M 56.12 66.733646 
L 333.168 66.733646 
" style="fill:none;stroke:#b0b0b0;stroke-linecap:square;stroke-width:0.8;"/>
     </g>
     <g id="line2d_34">
      <g>
       <use style="stroke:#000000;stroke-width:0.8;" x="56.12" xlink:href="#ma49af1b1ef" y="66.733646"/>
      </g>
     </g>
     <g id="text_10">
      <!-- 0.8 -->
      <defs>
       <path d="M 31.78125 34.625 
Q 24.75 34.625 20.71875 30.859375 
Q 16.703125 27.09375 16.703125 20.515625 
Q 16.703125 13.921875 20.71875 10.15625 
Q 24.75 6.390625 31.78125 6.390625 
Q 38.8125 6.390625 42.859375 10.171875 
Q 46.921875 13.96875 46.921875 20.515625 
Q 46.921875 27.09375 42.890625 30.859375 
Q 38.875 34.625 31.78125 34.625 
z
M 21.921875 38.8125 
Q 15.578125 40.375 12.03125 44.71875 
Q 8.5 49.078125 8.5 55.328125 
Q 8.5 64.0625 14.71875 69.140625 
Q 20.953125 74.21875 31.78125 74.21875 
Q 42.671875 74.21875 48.875 69.140625 
Q 55.078125 64.0625 55.078125 55.328125 
Q 55.078125 49.078125 51.53125 44.71875 
Q 48 40.375 41.703125 38.8125 
Q 48.828125 37.15625 52.796875 32.3125 
Q 56.78125 27.484375 56.78125 20.515625 
Q 56.78125 9.90625 50.3125 4.234375 
Q 43.84375 -1.421875 31.78125 -1.421875 
Q 19.734375 -1.421875 13.25 4.234375 
Q 6.78125 9.90625 6.78125 20.515625 
Q 6.78125 27.484375 10.78125 32.3125 
Q 14.796875 37.15625 21.921875 38.8125 
z
M 18.3125 54.390625 
Q 18.3125 48.734375 21.84375 45.5625 
Q 25.390625 42.390625 31.78125 42.390625 
Q 38.140625 42.390625 41.71875 45.5625 
Q 45.3125 48.734375 45.3125 54.390625 
Q 45.3125 60.0625 41.71875 63.234375 
Q 38.140625 66.40625 31.78125 66.40625 
Q 25.390625 66.40625 21.84375 63.234375 
Q 18.3125 60.0625 18.3125 54.390625 
z
" id="DejaVuSans-38"/>
      </defs>
      <g transform="translate(23.675 72.812396)scale(0.16 -0.16)">
       <use xlink:href="#DejaVuSans-30"/>
       <use x="63.623047" xlink:href="#DejaVuSans-2e"/>
       <use x="95.410156" xlink:href="#DejaVuSans-38"/>
      </g>
     </g>
    </g>
    <g id="ytick_6">
     <g id="line2d_35">
      <path clip-path="url(#pfd19195acb)" d="M 56.12 9.697057 
L 333.168 9.697057 
" style="fill:none;stroke:#b0b0b0;stroke-linecap:square;stroke-width:0.8;"/>
     </g>
     <g id="line2d_36">
      <g>
       <use style="stroke:#000000;stroke-width:0.8;" x="56.12" xlink:href="#ma49af1b1ef" y="9.697057"/>
      </g>
     </g>
     <g id="text_11">
      <!-- 1.0 -->
      <g transform="translate(23.675 15.775807)scale(0.16 -0.16)">
       <use xlink:href="#DejaVuSans-31"/>
       <use x="63.623047" xlink:href="#DejaVuSans-2e"/>
       <use x="95.410156" xlink:href="#DejaVuSans-30"/>
      </g>
     </g>
    </g>
    <g id="text_12">
     <!-- Fraction of function,target pairs -->
     <defs>
      <path d="M 9.8125 72.90625 
L 51.703125 72.90625 
L 51.703125 64.59375 
L 19.671875 64.59375 
L 19.671875 43.109375 
L 48.578125 43.109375 
L 48.578125 34.8125 
L 19.671875 34.8125 
L 19.671875 0 
L 9.8125 0 
z
" id="DejaVuSans-46"/>
      <path d="M 41.109375 46.296875 
Q 39.59375 47.171875 37.8125 47.578125 
Q 36.03125 48 33.890625 48 
Q 26.265625 48 22.1875 43.046875 
Q 18.109375 38.09375 18.109375 28.8125 
L 18.109375 0 
L 9.078125 0 
L 9.078125 54.6875 
L 18.109375 54.6875 
L 18.109375 46.1875 
Q 20.953125 51.171875 25.484375 53.578125 
Q 30.03125 56 36.53125 56 
Q 37.453125 56 38.578125 55.875 
Q 39.703125 55.765625 41.0625 55.515625 
z
" id="DejaVuSans-72"/>
      <path d="M 48.78125 52.59375 
L 48.78125 44.1875 
Q 44.96875 46.296875 41.140625 47.34375 
Q 37.3125 48.390625 33.40625 48.390625 
Q 24.65625 48.390625 19.8125 42.84375 
Q 14.984375 37.3125 14.984375 27.296875 
Q 14.984375 17.28125 19.8125 11.734375 
Q 24.65625 6.203125 33.40625 6.203125 
Q 37.3125 6.203125 41.140625 7.25 
Q 44.96875 8.296875 48.78125 10.40625 
L 48.78125 2.09375 
Q 45.015625 0.34375 40.984375 -0.53125 
Q 36.96875 -1.421875 32.421875 -1.421875 
Q 20.0625 -1.421875 12.78125 6.34375 
Q 5.515625 14.109375 5.515625 27.296875 
Q 5.515625 40.671875 12.859375 48.328125 
Q 20.21875 56 33.015625 56 
Q 37.15625 56 41.109375 55.140625 
Q 45.0625 54.296875 48.78125 52.59375 
z
" id="DejaVuSans-63"/>
      <path d="M 18.3125 70.21875 
L 18.3125 54.6875 
L 36.8125 54.6875 
L 36.8125 47.703125 
L 18.3125 47.703125 
L 18.3125 18.015625 
Q 18.3125 11.328125 20.140625 9.421875 
Q 21.96875 7.515625 27.59375 7.515625 
L 36.8125 7.515625 
L 36.8125 0 
L 27.59375 0 
Q 17.1875 0 13.234375 3.875 
Q 9.28125 7.765625 9.28125 18.015625 
L 9.28125 47.703125 
L 2.6875 47.703125 
L 2.6875 54.6875 
L 9.28125 54.6875 
L 9.28125 70.21875 
z
" id="DejaVuSans-74"/>
      <path d="M 8.5 21.578125 
L 8.5 54.6875 
L 17.484375 54.6875 
L 17.484375 21.921875 
Q 17.484375 14.15625 20.5 10.265625 
Q 23.53125 6.390625 29.59375 6.390625 
Q 36.859375 6.390625 41.078125 11.03125 
Q 45.3125 15.671875 45.3125 23.6875 
L 45.3125 54.6875 
L 54.296875 54.6875 
L 54.296875 0 
L 45.3125 0 
L 45.3125 8.40625 
Q 42.046875 3.421875 37.71875 1 
Q 33.40625 -1.421875 27.6875 -1.421875 
Q 18.265625 -1.421875 13.375 4.4375 
Q 8.5 10.296875 8.5 21.578125 
z
M 31.109375 56 
z
" id="DejaVuSans-75"/>
      <path d="M 11.71875 12.40625 
L 22.015625 12.40625 
L 22.015625 4 
L 14.015625 -11.625 
L 7.71875 -11.625 
L 11.71875 4 
z
" id="DejaVuSans-2c"/>
      <path d="M 18.109375 8.203125 
L 18.109375 -20.796875 
L 9.078125 -20.796875 
L 9.078125 54.6875 
L 18.109375 54.6875 
L 18.109375 46.390625 
Q 20.953125 51.265625 25.265625 53.625 
Q 29.59375 56 35.59375 56 
Q 45.5625 56 51.78125 48.09375 
Q 58.015625 40.1875 58.015625 27.296875 
Q 58.015625 14.40625 51.78125 6.484375 
Q 45.5625 -1.421875 35.59375 -1.421875 
Q 29.59375 -1.421875 25.265625 0.953125 
Q 20.953125 3.328125 18.109375 8.203125 
z
M 48.6875 27.296875 
Q 48.6875 37.203125 44.609375 42.84375 
Q 40.53125 48.484375 33.40625 48.484375 
Q 26.265625 48.484375 22.1875 42.84375 
Q 18.109375 37.203125 18.109375 27.296875 
Q 18.109375 17.390625 22.1875 11.75 
Q 26.265625 6.109375 33.40625 6.109375 
Q 40.53125 6.109375 44.609375 11.75 
Q 48.6875 17.390625 48.6875 27.296875 
z
" id="DejaVuSans-70"/>
     </defs>
     <g transform="translate(16.139531 286.001989)rotate(-90)scale(0.17 -0.17)">
      <use xlink:href="#DejaVuSans-46"/>
      <use x="57.410156" xlink:href="#DejaVuSans-72"/>
      <use x="98.523438" xlink:href="#DejaVuSans-61"/>
      <use x="159.802734" xlink:href="#DejaVuSans-63"/>
      <use x="214.783203" xlink:href="#DejaVuSans-74"/>
      <use x="253.992188" xlink:href="#DejaVuSans-69"/>
      <use x="281.775391" xlink:href="#DejaVuSans-6f"/>
      <use x="342.957031" xlink:href="#DejaVuSans-6e"/>
      <use x="406.335938" xlink:href="#DejaVuSans-20"/>
      <use x="438.123047" xlink:href="#DejaVuSans-6f"/>
      <use x="499.304688" xlink:href="#DejaVuSans-66"/>
      <use x="534.509766" xlink:href="#DejaVuSans-20"/>
      <use x="566.296875" xlink:href="#DejaVuSans-66"/>
      <use x="601.501953" xlink:href="#DejaVuSans-75"/>
      <use x="664.880859" xlink:href="#DejaVuSans-6e"/>
      <use x="728.259766" xlink:href="#DejaVuSans-63"/>
      <use x="783.240234" xlink:href="#DejaVuSans-74"/>
      <use x="822.449219" xlink:href="#DejaVuSans-69"/>
      <use x="850.232422" xlink:href="#DejaVuSans-6f"/>
      <use x="911.414062" xlink:href="#DejaVuSans-6e"/>
      <use x="974.792969" xlink:href="#DejaVuSans-2c"/>
      <use x="1006.580078" xlink:href="#DejaVuSans-74"/>
      <use x="1045.789062" xlink:href="#DejaVuSans-61"/>
      <use x="1107.068359" xlink:href="#DejaVuSans-72"/>
      <use x="1148.166016" xlink:href="#DejaVuSans-67"/>
      <use x="1211.642578" xlink:href="#DejaVuSans-65"/>
      <use x="1273.166016" xlink:href="#DejaVuSans-74"/>
      <use x="1312.375" xlink:href="#DejaVuSans-20"/>
      <use x="1344.162109" xlink:href="#DejaVuSans-70"/>
      <use x="1407.638672" xlink:href="#DejaVuSans-61"/>
      <use x="1468.917969" xlink:href="#DejaVuSans-69"/>
      <use x="1496.701172" xlink:href="#DejaVuSans-72"/>
      <use x="1537.814453" xlink:href="#DejaVuSans-73"/>
     </g>
    </g>
   </g>
   <g id="line2d_37">
    <defs>
     <path d="M 0 1.5 
C 0.397805 1.5 0.77937 1.341951 1.06066 1.06066 
C 1.341951 0.77937 1.5 0.397805 1.5 0 
C 1.5 -0.397805 1.341951 -0.77937 1.06066 -1.06066 
C 0.77937 -1.341951 0.397805 -1.5 0 -1.5 
C -0.397805 -1.5 -0.77937 -1.341951 -1.06066 -1.06066 
C -1.341951 -0.77937 -1.5 -0.397805 -1.5 0 
C -1.5 0.397805 -1.341951 0.77937 -1.06066 1.06066 
C -0.77937 1.341951 -0.397805 1.5 0 1.5 
z
" id="m1e5d51d506" style="stroke:#000080;"/>
    </defs>
    <g>
     <use style="fill:#000080;stroke:#000080;" x="260.845945" xlink:href="#m1e5d51d506" y="194.227197"/>
     <use style="fill:#000080;stroke:#000080;" x="260.845945" xlink:href="#m1e5d51d506" y="194.227197"/>
    </g>
   </g>
   <g id="line2d_38">
    <path d="M 28.455965 294.88 
L 28.455965 270.835164 
L 40.370217 270.835164 
L 40.370217 266.920888 
L 52.284468 266.920888 
L 52.284468 265.802523 
L 56.12 265.802523 
L 56.12 263.565795 
L 59.253858 263.565795 
L 59.253858 261.329066 
L 61.903497 261.329066 
L 61.903497 259.651519 
L 66.223248 259.651519 
L 66.223248 257.973972 
L 68.034251 257.973972 
L 68.034251 257.41479 
L 69.672503 257.41479 
L 69.672503 256.855608 
L 78.137499 256.855608 
L 78.137499 256.296425 
L 82.350819 256.296425 
L 82.350819 254.618879 
L 89.567532 254.618879 
L 89.567532 252.941332 
L 105.218813 252.941332 
L 105.218813 252.38215 
L 105.60948 252.38215 
L 105.60948 251.263785 
L 109.093814 251.263785 
L 109.093814 250.704603 
L 111.170827 250.704603 
L 111.170827 250.145421 
L 113.148711 250.145421 
L 113.148711 249.586238 
L 123.635161 249.586238 
L 123.635161 249.027056 
L 125.187069 249.027056 
L 125.187069 247.34951 
L 131.049878 247.34951 
L 131.049878 246.790327 
L 131.696954 246.790327 
L 131.696954 246.231145 
L 140.204235 246.231145 
L 140.204235 245.671963 
L 141.757814 245.671963 
L 141.757814 245.112781 
L 143.946604 245.112781 
L 143.946604 244.553598 
L 144.77733 244.553598 
L 144.77733 243.994416 
L 145.757607 243.994416 
L 145.757607 243.435234 
L 149.45809 243.435234 
L 149.45809 242.316869 
L 152.438106 242.316869 
L 152.438106 241.757687 
L 157.653165 241.757687 
L 157.653165 241.198505 
L 157.995745 241.198505 
L 157.995745 240.639323 
L 159.173691 240.639323 
L 159.173691 240.08014 
L 160.475609 240.08014 
L 160.475609 239.520958 
L 163.903207 239.520958 
L 163.903207 238.402594 
L 164.722019 238.402594 
L 164.722019 237.843411 
L 169.836501 237.843411 
L 169.854904 236.165865 
L 171.405985 236.165865 
L 171.405985 235.0475 
L 171.89067 235.0475 
L 171.89067 234.488318 
L 173.051492 234.488318 
L 173.051492 233.369954 
L 175.882345 233.369954 
L 175.882345 232.810771 
L 176.304566 232.810771 
L 176.304566 232.251589 
L 176.818162 232.251589 
L 176.818162 231.133225 
L 177.02241 231.133225 
L 177.02241 230.574042 
L 177.468116 230.574042 
L 177.559412 228.896496 
L 177.891036 228.896496 
L 177.891036 228.337313 
L 178.499572 228.337313 
L 178.499572 227.778131 
L 180.051399 227.778131 
L 180.051399 227.218949 
L 180.648174 227.218949 
L 180.648174 226.659767 
L 181.45593 226.659767 
L 181.45593 226.100584 
L 182.476347 226.100584 
L 182.476347 224.98222 
L 185.536497 224.98222 
L 185.536497 224.423038 
L 185.714695 224.423038 
L 185.714695 223.863855 
L 192.08087 223.863855 
L 192.08087 223.304673 
L 195.075141 223.304673 
L 195.148138 221.627126 
L 195.753858 221.627126 
L 195.753858 221.067944 
L 197.247341 221.067944 
L 197.247341 220.508762 
L 197.53916 220.508762 
L 197.53916 219.94958 
L 198.253469 219.94958 
L 198.253469 219.390397 
L 203.228704 219.390397 
L 203.228704 218.831215 
L 203.399384 218.831215 
L 203.444397 217.712851 
L 203.976182 217.712851 
L 203.976182 217.153669 
L 204.461945 217.153669 
L 204.461945 216.594486 
L 204.837303 216.594486 
L 204.837303 216.035304 
L 208.983621 216.035304 
L 208.983621 215.476122 
L 210.034586 215.476122 
L 210.124487 214.357757 
L 213.431284 214.357757 
L 213.520333 212.680211 
L 216.590389 212.680211 
L 216.590389 212.121028 
L 216.839943 212.121028 
L 216.839943 211.561846 
L 217.252745 211.561846 
L 217.252745 211.002664 
L 219.558649 211.002664 
L 219.558649 210.443482 
L 224.386003 210.443482 
L 224.386003 209.884299 
L 225.839783 209.884299 
L 225.839783 209.325117 
L 227.541009 209.325117 
L 227.541009 208.206753 
L 227.894461 208.206753 
L 227.894461 207.64757 
L 229.078804 207.64757 
L 229.088918 206.529206 
L 229.209977 206.529206 
L 229.209977 205.970024 
L 230.508875 205.970024 
L 230.587492 204.851659 
L 230.620367 204.851659 
L 230.620367 204.292477 
L 233.03896 204.292477 
L 233.03896 203.733295 
L 235.303686 203.733295 
L 235.303686 203.174112 
L 237.251312 203.174112 
L 237.273629 202.055748 
L 237.400417 202.055748 
L 237.400417 201.496566 
L 238.9467 201.496566 
L 239.020702 200.378201 
L 240.539003 200.378201 
L 240.539003 199.819019 
L 241.347667 199.819019 
L 241.447777 198.700655 
L 242.058218 198.700655 
L 242.058218 198.141472 
L 243.485733 198.141472 
L 243.485733 197.58229 
L 244.721418 197.58229 
L 244.721418 197.023108 
L 245.307469 197.023108 
L 245.307469 196.463926 
L 245.783277 196.463926 
L 245.783277 195.904743 
L 251.027705 195.904743 
L 251.051571 194.786379 
L 260.845945 194.786379 
L 260.845945 194.227197 
L 333.168 194.227197 
L 333.168 194.227197 
" style="fill:none;stroke:#000080;stroke-linecap:square;stroke-width:1.5;"/>
   </g>
   <g id="line2d_39">
    <defs>
     <path d="M 0 6 
C 1.591219 6 3.117479 5.367802 4.242641 4.242641 
C 5.367802 3.117479 6 1.591219 6 0 
C 6 -1.591219 5.367802 -3.117479 4.242641 -4.242641 
C 3.117479 -5.367802 1.591219 -6 0 -6 
C -1.591219 -6 -3.117479 -5.367802 -4.242641 -4.242641 
C -5.367802 -3.117479 -6 -1.591219 -6 0 
C -6 1.591219 -5.367802 3.117479 -4.242641 4.242641 
C -3.117479 5.367802 -1.591219 6 0 6 
z
" id="m0bb8649e42" style="stroke:#000080;stroke-width:1.5;"/>
    </defs>
    <g>
     <use style="fill-opacity:0;stroke:#000080;stroke-width:1.5;" x="125.187069" xlink:href="#m0bb8649e42" y="247.34951"/>
     <use style="fill-opacity:0;stroke:#000080;stroke-width:1.5;" x="177.559412" xlink:href="#m0bb8649e42" y="229.455678"/>
     <use style="fill-opacity:0;stroke:#000080;stroke-width:1.5;" x="243.485733" xlink:href="#m0bb8649e42" y="198.141472"/>
     <use style="fill-opacity:0;stroke:#000080;stroke-width:1.5;" x="260.845945" xlink:href="#m0bb8649e42" y="194.227197"/>
     <use style="fill-opacity:0;stroke:#000080;stroke-width:1.5;" x="333.168" xlink:href="#m0bb8649e42" y="194.227197"/>
    </g>
   </g>
   <g id="line2d_40">
    <path style="fill:none;stroke:#000080;stroke-linecap:square;stroke-width:1.5;"/>
    <g/>
   </g>
   <g id="line2d_41">
    <path clip-path="url(#pfd19195acb)" d="M 186.941843 223.863855 
" style="fill:none;stroke:#000080;stroke-linecap:square;stroke-width:1.5;"/>
    <defs>
     <path d="M -12 12 
L 12 -12 
M -12 -12 
L 12 12 
" id="mc24d96e61c" style="stroke:#000080;"/>
    </defs>
    <g clip-path="url(#pfd19195acb)">
     <use style="fill:#000080;stroke:#000080;" x="186.941843" xlink:href="#mc24d96e61c" y="223.863855"/>
    </g>
   </g>
   <g id="line2d_42">
    <defs>
     <path d="M 0 1.5 
C 0.397805 1.5 0.77937 1.341951 1.06066 1.06066 
C 1.341951 0.77937 1.5 0.397805 1.5 0 
C 1.5 -0.397805 1.341951 -0.77937 1.06066 -1.06066 
C 0.77937 -1.341951 0.397805 -1.5 0 -1.5 
C -0.397805 -1.5 -0.77937 -1.341951 -1.06066 -1.06066 
C -1.341951 -0.77937 -1.5 -0.397805 -1.5 0 
C -1.5 0.397805 -1.341951 0.77937 -1.06066 1.06066 
C -0.77937 1.341951 -0.397805 1.5 0 1.5 
z
" id="mf1fba309cd" style="stroke:#ff00ff;"/>
    </defs>
    <g>
     <use style="fill:#ff00ff;stroke:#ff00ff;" x="244.268791" xlink:href="#mf1fba309cd" y="9.697057"/>
     <use style="fill:#ff00ff;stroke:#ff00ff;" x="244.268791" xlink:href="#mf1fba309cd" y="9.697057"/>
    </g>
   </g>
   <g id="line2d_43">
    <path d="M 28.455965 294.88 
L 28.455965 285.933084 
L 40.370217 285.933084 
L 40.370217 284.255537 
L 52.284468 284.255537 
L 52.284468 283.137173 
L 59.253858 283.137173 
L 59.253858 282.577991 
L 71.168109 282.577991 
L 71.168109 281.459626 
L 75.003641 281.459626 
L 75.003641 280.341262 
L 76.11297 280.341262 
L 76.11297 279.782079 
L 78.137499 279.782079 
L 78.137499 278.663715 
L 82.350819 278.663715 
L 82.350819 278.104533 
L 88.027221 278.104533 
L 88.027221 276.986168 
L 88.556144 276.986168 
L 88.556144 276.426986 
L 95.351029 276.426986 
L 95.351029 275.867804 
L 95.698286 275.867804 
L 95.698286 275.308622 
L 98.543252 275.308622 
L 98.543252 273.631075 
L 104.409787 273.631075 
L 104.409787 273.071893 
L 104.819059 273.071893 
L 104.819059 271.394346 
L 108.935392 271.394346 
L 108.935392 270.835164 
L 109.250788 270.835164 
L 109.250788 270.275981 
L 109.713291 270.275981 
L 109.713291 269.157617 
L 113.518374 269.157617 
L 113.518374 268.039252 
L 114.466953 268.039252 
L 114.466953 267.48007 
L 116.934349 267.48007 
L 116.934349 266.920888 
L 118.279397 266.920888 
L 118.279397 266.361706 
L 120.609239 266.361706 
L 120.609239 264.684159 
L 122.371755 264.684159 
L 122.371755 264.124977 
L 126.723846 264.124977 
L 126.723846 262.44743 
L 127.225332 262.44743 
L 127.225332 260.210701 
L 127.819033 260.210701 
L 127.92481 257.973972 
L 128.029939 257.973972 
L 128.029939 255.737243 
L 129.341145 255.737243 
L 129.341145 255.178061 
L 130.377486 255.178061 
L 130.377486 254.059696 
L 131.654565 254.059696 
L 131.654565 253.500514 
L 132.238701 253.500514 
L 132.238701 252.941332 
L 132.52349 252.941332 
L 132.52349 252.38215 
L 132.882847 252.38215 
L 132.922316 249.586238 
L 133.079291 249.586238 
L 133.079291 248.467874 
L 133.196088 248.467874 
L 133.273515 246.790327 
L 134.574897 246.790327 
L 134.574897 246.231145 
L 135.173129 246.231145 
L 135.173129 245.112781 
L 135.447604 245.112781 
L 135.447604 244.553598 
L 135.616951 244.553598 
L 135.616951 243.994416 
L 135.851269 243.994416 
L 135.851269 242.876052 
L 137.468351 242.876052 
L 137.468351 242.316869 
L 141.757814 242.316869 
L 141.757814 241.757687 
L 141.898705 241.757687 
L 141.898705 240.639323 
L 142.130987 240.639323 
L 142.130987 240.08014 
L 143.419627 240.08014 
L 143.419627 239.520958 
L 143.863366 239.520958 
L 143.884213 237.284229 
L 144.173452 237.284229 
L 144.173452 234.488318 
L 144.737725 234.488318 
L 144.737725 233.929136 
L 145.398907 233.929136 
L 145.398907 232.810771 
L 146.163802 232.810771 
L 146.163802 230.01486 
L 147.514343 230.01486 
L 147.514343 228.896496 
L 148.829074 228.896496 
L 148.829074 228.337313 
L 149.092685 228.337313 
L 149.123434 226.100584 
L 150.552348 226.100584 
L 150.594702 223.863855 
L 150.707138 223.863855 
L 150.707138 222.745491 
L 150.902149 222.745491 
L 150.902149 222.186309 
L 151.923823 222.186309 
L 151.923823 221.627126 
L 153.695627 221.627126 
L 153.695627 221.067944 
L 154.834363 221.067944 
L 154.834363 220.508762 
L 155.493675 220.508762 
L 155.493675 219.94958 
L 156.351992 219.94958 
L 156.351992 219.390397 
L 156.582447 219.390397 
L 156.622212 218.272033 
L 158.465953 218.272033 
L 158.465953 217.712851 
L 159.216438 217.712851 
L 159.216438 217.153669 
L 159.976419 217.153669 
L 159.976419 216.035304 
L 160.649313 216.035304 
L 160.649313 215.476122 
L 160.875636 215.476122 
L 160.968422 213.798575 
L 161.053039 213.798575 
L 161.053039 213.239393 
L 161.19061 213.239393 
L 161.274142 211.561846 
L 162.310402 211.561846 
L 162.310402 211.002664 
L 162.544168 211.002664 
L 162.544168 209.884299 
L 162.988667 209.884299 
L 162.988667 209.325117 
L 163.733345 209.325117 
L 163.733345 208.765935 
L 164.371346 208.765935 
L 164.371346 207.64757 
L 165.533182 207.64757 
L 165.533182 207.088388 
L 166.654702 207.088388 
L 166.654702 206.529206 
L 168.144768 206.529206 
L 168.144768 205.410841 
L 168.787828 205.410841 
L 168.807389 203.733295 
L 170.182837 203.733295 
L 170.182837 203.174112 
L 170.592959 203.174112 
L 170.592959 202.61493 
L 171.027917 202.61493 
L 171.027917 202.055748 
L 171.460518 202.055748 
L 171.539912 200.378201 
L 172.282393 200.378201 
L 172.282393 199.819019 
L 172.754963 199.819019 
L 172.754963 199.259837 
L 173.059126 199.259837 
L 173.097247 196.463926 
L 173.50737 196.463926 
L 173.50737 195.345561 
L 173.798616 195.345561 
L 173.798616 194.786379 
L 174.532138 194.786379 
L 174.532138 194.227197 
L 174.861731 194.227197 
L 174.872037 193.108832 
L 175.212081 193.108832 
L 175.212081 191.431285 
L 175.538921 191.431285 
L 175.538921 190.872103 
L 176.247598 190.872103 
L 176.247598 190.312921 
L 176.561726 190.312921 
L 176.561726 189.753739 
L 177.414882 189.753739 
L 177.414882 189.194556 
L 177.775404 189.194556 
L 177.775404 188.635374 
L 182.619174 188.635374 
L 182.619174 188.076192 
L 186.672581 188.076192 
L 186.672581 187.51701 
L 187.466382 187.51701 
L 187.487825 186.398645 
L 187.651887 186.398645 
L 187.666576 185.280281 
L 187.799835 185.280281 
L 187.882197 184.161916 
L 188.064886 184.161916 
L 188.149163 181.925187 
L 188.215657 181.925187 
L 188.313347 178.010912 
L 188.330621 178.010912 
L 188.410485 176.333365 
L 188.593857 176.333365 
L 188.690964 174.655818 
L 188.900258 174.655818 
L 188.912401 171.859907 
L 189.075499 171.859907 
L 189.075499 171.300725 
L 189.262358 171.300725 
L 189.262358 170.18236 
L 189.410397 170.18236 
L 189.500078 169.063996 
L 189.720084 169.063996 
L 189.790876 167.386449 
L 189.862813 167.386449 
L 189.923008 165.14972 
L 190.065488 165.14972 
L 190.065488 164.590538 
L 190.332987 164.590538 
L 190.424943 162.912991 
L 190.752512 162.912991 
L 190.752512 162.353809 
L 190.971962 162.353809 
L 191.02035 161.235444 
L 191.289365 161.235444 
L 191.289365 160.676262 
L 191.546426 160.676262 
L 191.546426 159.557898 
L 191.717407 159.557898 
L 191.717407 158.998715 
L 192.077084 158.998715 
L 192.077084 158.439533 
L 192.442986 158.439533 
L 192.442986 157.880351 
L 192.556288 157.880351 
L 192.556288 157.321169 
L 192.678602 157.321169 
L 192.678602 156.202804 
L 192.802471 156.202804 
L 192.802471 155.08444 
L 192.925454 155.08444 
L 192.925454 154.525258 
L 193.043985 154.525258 
L 193.043985 153.966075 
L 193.186571 153.966075 
L 193.291563 152.288529 
L 193.394749 152.288529 
L 193.394749 151.729346 
L 193.636209 151.729346 
L 193.741936 150.0518 
L 193.747663 150.0518 
L 193.856124 148.374253 
L 193.859538 148.374253 
L 193.859538 147.815071 
L 194.206476 147.815071 
L 194.306546 146.696706 
L 194.327597 146.696706 
L 194.327597 146.137524 
L 194.744385 146.137524 
L 194.744385 145.019159 
L 195.483715 145.019159 
L 195.483715 144.459977 
L 198.72199 144.459977 
L 198.72199 143.900795 
L 199.120364 143.900795 
L 199.120364 143.341613 
L 199.25972 143.341613 
L 199.25972 142.223248 
L 199.465426 142.223248 
L 199.555522 139.986519 
L 199.606096 139.986519 
L 199.639458 137.74979 
L 199.781136 137.74979 
L 199.863178 136.631426 
L 199.939239 136.631426 
L 199.943233 134.953879 
L 200.055482 134.953879 
L 200.055482 134.394697 
L 200.182761 134.394697 
L 200.269184 132.71715 
L 200.32786 132.71715 
L 200.411227 131.598786 
L 200.488775 131.598786 
L 200.488775 131.039603 
L 200.635161 131.039603 
L 200.677304 128.802874 
L 200.801597 128.802874 
L 200.889507 127.125328 
L 200.950627 127.125328 
L 201.016033 126.006963 
L 201.166943 126.006963 
L 201.166943 125.447781 
L 201.464113 125.447781 
L 201.464113 124.888599 
L 201.69431 124.888599 
L 201.69431 124.329417 
L 201.820082 124.329417 
L 201.891541 123.211052 
L 202.106968 123.211052 
L 202.106968 122.65187 
L 202.260505 122.65187 
L 202.315555 120.974323 
L 202.398148 120.974323 
L 202.400918 119.855959 
L 202.86938 119.855959 
L 202.86938 118.737594 
L 203.009603 118.737594 
L 203.009603 118.178412 
L 203.277455 118.178412 
L 203.277455 117.61923 
L 205.736198 117.61923 
L 205.736198 117.060047 
L 206.095618 117.060047 
L 206.095618 116.500865 
L 206.208043 116.500865 
L 206.294917 112.027407 
L 206.351673 112.027407 
L 206.447677 108.672314 
L 206.507748 108.672314 
L 206.507748 107.553949 
L 206.634301 107.553949 
L 206.721207 105.876403 
L 206.828556 105.876403 
L 206.915019 104.198856 
L 207.04549 104.198856 
L 207.04549 103.639674 
L 207.20746 103.639674 
L 207.20746 103.080491 
L 207.400037 103.080491 
L 207.400037 101.962127 
L 207.712892 101.962127 
L 207.712892 101.402945 
L 208.05955 101.402945 
L 208.05955 100.28458 
L 208.304844 100.28458 
L 208.402771 98.047851 
L 208.5016 98.047851 
L 208.577163 95.25194 
L 208.702848 95.25194 
L 208.702848 94.692758 
L 208.837144 94.692758 
L 208.837144 94.133576 
L 208.985981 94.133576 
L 208.985981 93.015211 
L 209.16673 93.015211 
L 209.16673 92.456029 
L 209.78727 92.456029 
L 209.78727 91.896847 
L 211.077711 91.896847 
L 211.123616 89.100935 
L 211.198471 89.100935 
L 211.284565 87.982571 
L 211.380498 87.982571 
L 211.491407 85.745842 
L 211.564274 85.745842 
L 211.606064 82.949931 
L 211.705059 82.949931 
L 211.770607 78.476473 
L 211.827508 78.476473 
L 211.827508 77.917291 
L 212.269815 77.917291 
L 212.269815 77.358108 
L 212.440512 77.358108 
L 212.473678 75.680562 
L 212.633977 75.680562 
L 212.738627 74.562197 
L 212.934786 74.562197 
L 212.934786 74.003015 
L 214.852208 74.003015 
L 214.949227 71.766286 
L 214.970231 71.766286 
L 215.048354 69.529557 
L 215.128766 69.529557 
L 215.128766 68.970375 
L 215.26785 68.970375 
L 215.348221 66.733646 
L 215.407117 66.733646 
L 215.407117 66.174463 
L 215.673038 66.174463 
L 215.762999 65.056099 
L 215.875583 65.056099 
L 215.98178 62.81937 
L 216.104802 62.81937 
L 216.104802 62.260188 
L 216.389393 62.260188 
L 216.389393 61.701006 
L 216.538459 61.701006 
L 216.570972 60.582641 
L 216.68745 60.582641 
L 216.68745 60.023459 
L 217.090638 60.023459 
L 217.090638 59.464277 
L 217.920296 59.464277 
L 218.026334 55.550001 
L 218.244456 55.550001 
L 218.301371 53.313272 
L 218.363569 53.313272 
L 218.43644 49.958178 
L 218.633574 49.958178 
L 218.673644 48.839814 
L 218.891978 48.839814 
L 218.891978 48.280632 
L 219.059575 48.280632 
L 219.076639 47.162267 
L 219.184144 47.162267 
L 219.184144 46.603085 
L 220.565684 46.603085 
L 220.592132 45.484721 
L 220.68844 45.484721 
L 220.798698 42.688809 
L 220.826449 42.688809 
L 220.848238 41.011263 
L 221.037494 41.011263 
L 221.037494 40.45208 
L 221.18899 40.45208 
L 221.18899 39.892898 
L 222.916998 39.892898 
L 222.916998 39.333716 
L 223.107534 39.333716 
L 223.158306 38.215351 
L 223.270713 38.215351 
L 223.270713 37.656169 
L 223.474869 37.656169 
L 223.555938 36.537805 
L 223.636627 36.537805 
L 223.737558 35.41944 
L 223.797075 35.41944 
L 223.797075 34.860258 
L 224.829709 34.860258 
L 224.900721 33.741894 
L 224.94218 33.741894 
L 224.94218 33.182711 
L 225.117922 33.182711 
L 225.117922 32.623529 
L 225.231097 32.623529 
L 225.231097 32.064347 
L 225.486527 32.064347 
L 225.575929 30.3868 
L 225.685423 30.3868 
L 225.704883 29.268436 
L 225.809483 29.268436 
L 225.809483 28.709253 
L 226.67277 28.709253 
L 226.727666 27.590889 
L 226.859307 27.590889 
L 226.927245 26.472524 
L 227.302192 26.472524 
L 227.302192 25.913342 
L 227.592406 25.913342 
L 227.592406 25.35416 
L 228.270786 25.35416 
L 228.360919 24.235795 
L 228.451798 24.235795 
L 228.505853 22.558249 
L 228.886821 22.558249 
L 228.886821 21.999066 
L 229.949787 21.999066 
L 229.97277 20.880702 
L 230.061352 20.880702 
L 230.145621 19.762337 
L 230.326571 19.762337 
L 230.326571 19.203155 
L 231.124972 19.203155 
L 231.124972 18.643973 
L 231.324282 18.643973 
L 231.343829 17.525609 
L 231.609491 17.525609 
L 231.648174 16.407244 
L 233.584436 16.407244 
L 233.584436 15.848062 
L 233.713021 15.848062 
L 233.713021 15.28888 
L 234.158148 15.28888 
L 234.158148 14.729697 
L 236.134733 14.729697 
L 236.144456 13.611333 
L 236.409723 13.611333 
L 236.409723 13.052151 
L 237.09934 13.052151 
L 237.09934 12.492968 
L 237.662261 12.492968 
L 237.732067 11.374604 
L 239.71475 11.374604 
L 239.71475 10.815422 
L 242.354176 10.815422 
L 242.354176 10.256239 
L 244.268791 10.256239 
L 244.268791 9.697057 
L 333.168 9.697057 
L 333.168 9.697057 
" style="fill:none;stroke:#ff00ff;stroke-linecap:square;stroke-width:1.5;"/>
   </g>
   <g id="line2d_44">
    <defs>
     <path d="M -0 8.485281 
L 5.091169 0 
L 0 -8.485281 
L -5.091169 -0 
z
" id="mf8537f8380" style="stroke:#ff00ff;stroke-linejoin:miter;stroke-width:1.5;"/>
    </defs>
    <g>
     <use style="fill-opacity:0;stroke:#ff00ff;stroke-linejoin:miter;stroke-width:1.5;" x="82.350819" xlink:href="#mf8537f8380" y="278.104533"/>
     <use style="fill-opacity:0;stroke:#ff00ff;stroke-linejoin:miter;stroke-width:1.5;" x="159.216438" xlink:href="#mf8537f8380" y="217.712851"/>
     <use style="fill-opacity:0;stroke:#ff00ff;stroke-linejoin:miter;stroke-width:1.5;" x="207.400037" xlink:href="#mf8537f8380" y="103.080491"/>
     <use style="fill-opacity:0;stroke:#ff00ff;stroke-linejoin:miter;stroke-width:1.5;" x="244.268791" xlink:href="#mf8537f8380" y="10.256239"/>
     <use style="fill-opacity:0;stroke:#ff00ff;stroke-linejoin:miter;stroke-width:1.5;" x="244.268791" xlink:href="#mf8537f8380" y="9.697057"/>
     <use style="fill-opacity:0;stroke:#ff00ff;stroke-linejoin:miter;stroke-width:1.5;" x="333.168" xlink:href="#mf8537f8380" y="9.697057"/>
    </g>
   </g>
   <g id="line2d_45">
    <path style="fill:none;stroke:#ff00ff;stroke-linecap:square;stroke-width:1.5;"/>
    <g/>
   </g>
   <g id="line2d_46">
    <path clip-path="url(#pfd19195acb)" d="M 186.941843 187.51701 
" style="fill:none;stroke:#ff00ff;stroke-linecap:square;stroke-width:1.5;"/>
    <defs>
     <path d="M -12 12 
L 12 -12 
M -12 -12 
L 12 12 
" id="m331fe24220" style="stroke:#ff00ff;"/>
    </defs>
    <g clip-path="url(#pfd19195acb)">
     <use style="fill:#ff00ff;stroke:#ff00ff;" x="186.941843" xlink:href="#m331fe24220" y="187.51701"/>
    </g>
   </g>
   <g id="line2d_47">
    <defs>
     <path d="M 0 1.5 
C 0.397805 1.5 0.77937 1.341951 1.06066 1.06066 
C 1.341951 0.77937 1.5 0.397805 1.5 0 
C 1.5 -0.397805 1.341951 -0.77937 1.06066 -1.06066 
C 0.77937 -1.341951 0.397805 -1.5 0 -1.5 
C -0.397805 -1.5 -0.77937 -1.341951 -1.06066 -1.06066 
C -1.341951 -0.77937 -1.5 -0.397805 -1.5 0 
C -1.5 0.397805 -1.341951 0.77937 -1.06066 1.06066 
C -0.77937 1.341951 -0.397805 1.5 0 1.5 
z
" id="mdb815aba49" style="stroke:#ffa500;"/>
    </defs>
    <g>
     <use style="fill:#ffa500;stroke:#ffa500;" x="239.387778" xlink:href="#mdb815aba49" y="9.697057"/>
     <use style="fill:#ffa500;stroke:#ffa500;" x="239.387778" xlink:href="#mdb815aba49" y="9.697057"/>
    </g>
   </g>
   <g id="line2d_48">
    <path d="M 28.455965 294.88 
L 28.455965 281.459626 
L 40.370217 281.459626 
L 40.370217 280.900444 
L 47.339607 280.900444 
L 47.339607 279.782079 
L 52.284468 279.782079 
L 52.284468 277.545351 
L 66.223248 277.545351 
L 66.223248 275.867804 
L 69.672503 275.867804 
L 69.672503 275.308622 
L 71.168109 275.308622 
L 71.168109 274.749439 
L 77.155024 274.749439 
L 77.155024 273.071893 
L 78.137499 273.071893 
L 78.137499 271.394346 
L 81.586754 271.394346 
L 81.586754 270.275981 
L 82.350819 270.275981 
L 82.350819 269.716799 
L 86.917893 269.716799 
L 86.917893 269.157617 
L 93.105847 269.157617 
L 93.105847 268.598435 
L 94.996612 268.598435 
L 94.996612 268.039252 
L 96.372436 268.039252 
L 96.372436 267.48007 
L 98.543252 267.48007 
L 98.543252 266.361706 
L 100.470395 266.361706 
L 100.470395 265.802523 
L 103.120034 265.802523 
L 103.120034 264.684159 
L 112.122219 264.684159 
L 112.122219 264.124977 
L 120.609239 264.124977 
L 120.609239 263.565795 
L 122.371755 263.565795 
L 122.371755 263.006612 
L 125.5541 263.006612 
L 125.5541 261.329066 
L 126.090357 261.329066 
L 126.090357 258.533154 
L 126.553378 258.533154 
L 126.553378 257.973972 
L 127.443604 257.973972 
L 127.443604 256.296425 
L 128.029939 256.296425 
L 128.029939 255.737243 
L 128.444143 255.737243 
L 128.546153 253.500514 
L 129.341145 253.500514 
L 129.341145 252.941332 
L 132.52349 252.941332 
L 132.52349 251.263785 
L 132.72406 251.263785 
L 132.72406 250.704603 
L 134.322384 250.704603 
L 134.322384 250.145421 
L 134.823755 250.145421 
L 134.823755 249.027056 
L 135.447604 249.027056 
L 135.447604 248.467874 
L 136.72628 248.467874 
L 136.72628 247.908692 
L 137.10132 247.908692 
L 137.10132 247.34951 
L 137.316373 247.34951 
L 137.316373 245.671963 
L 139.08458 245.671963 
L 139.08458 244.553598 
L 139.626853 244.553598 
L 139.626853 243.435234 
L 140.204235 243.435234 
L 140.204235 242.876052 
L 140.332797 242.876052 
L 140.332797 242.316869 
L 141.206772 242.316869 
L 141.206772 240.639323 
L 141.352234 240.639323 
L 141.424506 237.843411 
L 143.611205 237.843411 
L 143.611205 234.488318 
L 144.717888 234.488318 
L 144.717888 230.574042 
L 144.856267 230.574042 
L 144.856267 228.896496 
L 145.626324 228.896496 
L 145.626324 227.778131 
L 145.980357 227.778131 
L 145.980357 227.218949 
L 147.104664 227.218949 
L 147.104664 226.659767 
L 147.225166 226.659767 
L 147.327785 224.98222 
L 148.417919 224.98222 
L 148.417919 224.423038 
L 148.813441 224.423038 
L 148.813441 223.863855 
L 148.93811 223.863855 
L 149.046458 222.745491 
L 149.623006 222.745491 
L 149.623006 220.508762 
L 150.538207 220.508762 
L 150.636952 216.594486 
L 151.832219 216.594486 
L 151.832219 216.035304 
L 151.975949 216.035304 
L 151.975949 214.91694 
L 152.31097 214.91694 
L 152.31097 213.239393 
L 152.551729 213.239393 
L 152.551729 212.121028 
L 152.888161 212.121028 
L 152.888161 211.561846 
L 153.206025 211.561846 
L 153.230235 207.088388 
L 153.446598 207.088388 
L 153.446598 205.970024 
L 154.251642 205.970024 
L 154.251642 205.410841 
L 154.399185 205.410841 
L 154.399185 204.851659 
L 154.556673 204.851659 
L 154.556673 204.292477 
L 154.67941 204.292477 
L 154.67941 203.174112 
L 155.344578 203.174112 
L 155.344578 202.61493 
L 155.472454 202.61493 
L 155.472454 202.055748 
L 155.630973 202.055748 
L 155.630973 201.496566 
L 155.777617 201.496566 
L 155.777617 199.259837 
L 156.472615 199.259837 
L 156.472615 198.141472 
L 156.661886 198.141472 
L 156.661886 197.58229 
L 157.568792 197.58229 
L 157.568792 197.023108 
L 157.802146 197.023108 
L 157.820678 193.668014 
L 158.30464 193.668014 
L 158.30464 192.54965 
L 158.862733 192.54965 
L 158.949676 190.872103 
L 159.122254 190.872103 
L 159.182249 189.194556 
L 159.495934 189.194556 
L 159.495934 188.635374 
L 160.057921 188.635374 
L 160.057921 188.076192 
L 160.276064 188.076192 
L 160.276064 187.51701 
L 161.372341 187.51701 
L 161.372341 186.957828 
L 161.6488 186.957828 
L 161.752257 184.721099 
L 161.774346 184.721099 
L 161.803753 182.48437 
L 162.260404 182.48437 
L 162.260404 181.925187 
L 163.375097 181.925187 
L 163.375097 180.247641 
L 164.931489 180.247641 
L 164.931489 179.688458 
L 165.545004 179.688458 
L 165.545004 178.010912 
L 166.307784 178.010912 
L 166.307784 177.451729 
L 173.695954 177.451729 
L 173.695954 176.333365 
L 174.260278 176.333365 
L 174.260278 175.774183 
L 181.881447 175.774183 
L 181.881447 175.215 
L 187.459778 175.215 
L 187.459778 174.096636 
L 187.972181 174.096636 
L 188.039362 171.300725 
L 188.1031 171.300725 
L 188.117409 169.623178 
L 188.234608 169.623178 
L 188.234608 169.063996 
L 188.355716 169.063996 
L 188.458849 167.386449 
L 188.567559 167.386449 
L 188.567559 166.827267 
L 188.717073 166.827267 
L 188.79822 164.590538 
L 188.894183 164.590538 
L 188.904812 162.353809 
L 189.031856 162.353809 
L 189.12203 157.321169 
L 189.162454 157.321169 
L 189.204276 154.525258 
L 189.352813 154.525258 
L 189.373506 152.288529 
L 189.479537 152.288529 
L 189.539624 145.578342 
L 189.759128 145.578342 
L 189.841263 143.341613 
L 189.885769 143.341613 
L 189.917284 142.223248 
L 190.007214 142.223248 
L 190.112248 138.868155 
L 190.208203 138.868155 
L 190.208203 138.308973 
L 190.342764 138.308973 
L 190.442997 137.190608 
L 190.454098 137.190608 
L 190.517791 134.394697 
L 190.567473 134.394697 
L 190.626628 131.039603 
L 190.892363 131.039603 
L 190.892363 130.480421 
L 191.156716 130.480421 
L 191.156716 129.921239 
L 193.659248 129.921239 
L 193.659248 129.362057 
L 199.11366 129.362057 
L 199.117012 127.125328 
L 199.315313 127.125328 
L 199.413612 125.447781 
L 199.453925 125.447781 
L 199.517084 124.329417 
L 199.577564 124.329417 
L 199.688165 121.533505 
L 199.766617 121.533505 
L 199.859968 114.264136 
L 199.944831 114.264136 
L 200.045163 108.113132 
L 200.103817 108.113132 
L 200.185912 101.962127 
L 200.257425 101.962127 
L 200.366867 98.047851 
L 200.391007 98.047851 
L 200.480262 95.811122 
L 200.51429 95.811122 
L 200.566746 94.692758 
L 200.638996 94.692758 
L 200.736894 93.015211 
L 200.787916 93.015211 
L 200.787916 91.896847 
L 201.16843 91.896847 
L 201.266325 90.2193 
L 206.141902 90.2193 
L 206.226339 87.982571 
L 206.280008 87.982571 
L 206.346171 84.068295 
L 206.442205 84.068295 
L 206.466813 81.831566 
L 206.573042 81.831566 
L 206.67484 79.594837 
L 206.713667 79.594837 
L 206.72336 77.358108 
L 206.846204 77.358108 
L 206.948527 72.88465 
L 207.07347 72.88465 
L 207.130872 71.207104 
L 207.245626 71.207104 
L 207.348201 70.088739 
L 209.637971 70.088739 
L 209.637971 69.529557 
L 211.07186 69.529557 
L 211.162332 65.056099 
L 211.231635 65.056099 
L 211.34186 62.260188 
L 211.363656 62.260188 
L 211.448111 57.227548 
L 211.493039 57.227548 
L 211.563868 55.550001 
L 211.617001 55.550001 
L 211.714726 53.872454 
L 211.758562 53.872454 
L 211.758562 53.313272 
L 214.816945 53.313272 
L 214.900451 51.076543 
L 214.967565 51.076543 
L 215.016815 49.398996 
L 215.12051 49.398996 
L 215.22621 47.162267 
L 215.243599 47.162267 
L 215.341375 45.484721 
L 215.394769 45.484721 
L 215.394769 44.925538 
L 215.56845 44.925538 
L 215.56845 43.807174 
L 217.827149 43.807174 
L 217.921418 42.129627 
L 217.9685 42.129627 
L 217.9685 41.570445 
L 218.080916 41.570445 
L 218.169106 39.333716 
L 218.194536 39.333716 
L 218.258221 35.41944 
L 218.404818 35.41944 
L 218.464469 33.741894 
L 218.545576 33.741894 
L 218.545576 33.182711 
L 220.464328 33.182711 
L 220.464328 32.064347 
L 220.580837 32.064347 
L 220.598617 30.3868 
L 220.718277 30.3868 
L 220.829056 28.150071 
L 220.834268 28.150071 
L 220.935357 25.913342 
L 222.877711 25.913342 
L 222.98423 23.117431 
L 223.148371 23.117431 
L 223.148371 22.558249 
L 224.938636 22.558249 
L 224.994329 20.880702 
L 225.104254 20.880702 
L 225.121983 19.203155 
L 226.741615 19.203155 
L 226.760251 17.525609 
L 226.863811 17.525609 
L 226.863811 16.407244 
L 226.991272 16.407244 
L 226.991272 15.848062 
L 228.257718 15.848062 
L 228.257718 15.28888 
L 228.45119 15.28888 
L 228.465328 14.170515 
L 229.809129 14.170515 
L 229.914905 13.052151 
L 231.238888 13.052151 
L 231.238888 12.492968 
L 232.466576 12.492968 
L 232.499294 11.374604 
L 233.738421 11.374604 
L 233.738421 10.815422 
L 235.801012 10.815422 
L 235.801012 10.256239 
L 239.387778 10.256239 
L 239.387778 9.697057 
L 333.168 9.697057 
L 333.168 9.697057 
" style="fill:none;stroke:#ffa500;stroke-linecap:square;stroke-width:1.5;"/>
   </g>
   <g id="line2d_49">
    <defs>
     <path d="M 0 -6 
L -1.347084 -1.854102 
L -5.706339 -1.854102 
L -2.179628 0.708204 
L -3.526712 4.854102 
L -0 2.291796 
L 3.526712 4.854102 
L 2.179628 0.708204 
L 5.706339 -1.854102 
L 1.347084 -1.854102 
z
" id="m0ab5db5903" style="stroke:#ffa500;stroke-linejoin:bevel;stroke-width:1.5;"/>
    </defs>
    <g>
     <use style="fill-opacity:0;stroke:#ffa500;stroke-linejoin:bevel;stroke-width:1.5;" x="126.090357" xlink:href="#m0ab5db5903" y="258.533154"/>
     <use style="fill-opacity:0;stroke:#ffa500;stroke-linejoin:bevel;stroke-width:1.5;" x="193.659248" xlink:href="#m0ab5db5903" y="129.362057"/>
     <use style="fill-opacity:0;stroke:#ffa500;stroke-linejoin:bevel;stroke-width:1.5;" x="220.718277" xlink:href="#m0ab5db5903" y="30.3868"/>
     <use style="fill-opacity:0;stroke:#ffa500;stroke-linejoin:bevel;stroke-width:1.5;" x="239.387778" xlink:href="#m0ab5db5903" y="9.697057"/>
     <use style="fill-opacity:0;stroke:#ffa500;stroke-linejoin:bevel;stroke-width:1.5;" x="239.387778" xlink:href="#m0ab5db5903" y="9.697057"/>
     <use style="fill-opacity:0;stroke:#ffa500;stroke-linejoin:bevel;stroke-width:1.5;" x="333.168" xlink:href="#m0ab5db5903" y="9.697057"/>
    </g>
   </g>
   <g id="line2d_50">
    <path style="fill:none;stroke:#ffa500;stroke-linecap:square;stroke-width:1.5;"/>
    <g/>
   </g>
   <g id="line2d_51">
    <path clip-path="url(#pfd19195acb)" d="M 186.941843 175.215 
" style="fill:none;stroke:#ffa500;stroke-linecap:square;stroke-width:1.5;"/>
    <defs>
     <path d="M -12 12 
L 12 -12 
M -12 -12 
L 12 12 
" id="m01c6deefb0" style="stroke:#ffa500;"/>
    </defs>
    <g clip-path="url(#pfd19195acb)">
     <use style="fill:#ffa500;stroke:#ffa500;" x="186.941843" xlink:href="#m01c6deefb0" y="175.215"/>
    </g>
   </g>
   <g id="line2d_52">
    <defs>
     <path d="M 0 1.5 
C 0.397805 1.5 0.77937 1.341951 1.06066 1.06066 
C 1.341951 0.77937 1.5 0.397805 1.5 0 
C 1.5 -0.397805 1.341951 -0.77937 1.06066 -1.06066 
C 0.77937 -1.341951 0.397805 -1.5 0 -1.5 
C -0.397805 -1.5 -0.77937 -1.341951 -1.06066 -1.06066 
C -1.341951 -0.77937 -1.5 -0.397805 -1.5 0 
C -1.5 0.397805 -1.341951 0.77937 -1.06066 1.06066 
C -0.77937 1.341951 -0.397805 1.5 0 1.5 
z
" id="meb993cac51" style="stroke:#6495ed;"/>
    </defs>
    <g>
     <use style="fill:#6495ed;stroke:#6495ed;" x="266.352627" xlink:href="#meb993cac51" y="9.697057"/>
     <use style="fill:#6495ed;stroke:#6495ed;" x="266.352627" xlink:href="#meb993cac51" y="9.697057"/>
    </g>
   </g>
   <g id="line2d_53">
    <path d="M 75.003641 294.88 
L 75.003641 293.761636 
L 88.027221 293.761636 
L 88.027221 291.524907 
L 93.105847 291.524907 
L 93.105847 285.373902 
L 98.543252 285.373902 
L 98.543252 284.81472 
L 100.983527 284.81472 
L 100.983527 280.900444 
L 111.170827 280.900444 
L 111.170827 279.782079 
L 119.267005 279.782079 
L 119.267005 277.545351 
L 119.782703 277.545351 
L 119.782703 275.308622 
L 120.034863 275.308622 
L 120.118102 271.394346 
L 120.609239 271.394346 
L 120.609239 269.157617 
L 121.086731 269.157617 
L 121.086731 267.48007 
L 121.242993 267.48007 
L 121.242993 265.802523 
L 122.874172 265.802523 
L 122.874172 263.565795 
L 123.635161 263.565795 
L 123.635161 262.44743 
L 124.363883 262.44743 
L 124.363883 260.769883 
L 124.812029 260.769883 
L 124.812029 259.651519 
L 125.734717 259.651519 
L 125.734717 258.533154 
L 126.438787 258.533154 
L 126.438787 256.855608 
L 126.780294 256.855608 
L 126.836558 253.500514 
L 127.225332 253.500514 
L 127.334814 252.38215 
L 127.443604 252.38215 
L 127.443604 250.145421 
L 131.865471 250.145421 
L 131.865471 249.586238 
L 135.345189 249.586238 
L 135.345189 249.027056 
L 136.180564 249.027056 
L 136.180564 248.467874 
L 136.883542 248.467874 
L 136.883542 247.908692 
L 137.10132 247.908692 
L 137.10132 246.790327 
L 137.738571 246.790327 
L 137.738571 246.231145 
L 138.862788 246.231145 
L 138.862788 245.671963 
L 139.139583 245.671963 
L 139.139583 245.112781 
L 140.637478 245.112781 
L 140.637478 244.553598 
L 141.109109 244.553598 
L 141.109109 243.435234 
L 145.071495 243.435234 
L 145.071495 242.876052 
L 147.12193 242.876052 
L 147.12193 240.639323 
L 150.151929 240.639323 
L 150.151929 239.520958 
L 150.651012 239.520958 
L 150.721141 237.843411 
L 152.092658 237.843411 
L 152.092658 237.284229 
L 154.297175 237.284229 
L 154.297175 236.165865 
L 159.638163 236.165865 
L 159.638163 235.606682 
L 159.976419 235.606682 
L 159.976419 234.488318 
L 163.64118 234.488318 
L 163.64118 233.929136 
L 164.415574 233.929136 
L 164.415574 233.369954 
L 165.919066 233.369954 
L 165.919066 232.251589 
L 166.682377 232.251589 
L 166.682377 231.692407 
L 168.541427 231.692407 
L 168.541427 231.133225 
L 169.170082 231.133225 
L 169.170082 230.01486 
L 169.313044 230.01486 
L 169.313044 229.455678 
L 170.689599 229.455678 
L 170.689599 228.337313 
L 172.033045 228.337313 
L 172.033045 227.778131 
L 172.778254 227.778131 
L 172.778254 227.218949 
L 173.093439 227.218949 
L 173.093439 226.659767 
L 173.290358 226.659767 
L 173.290358 226.100584 
L 173.688597 226.100584 
L 173.688597 224.98222 
L 174.62994 224.98222 
L 174.678633 223.304673 
L 175.788179 223.304673 
L 175.788179 222.745491 
L 176.104345 222.745491 
L 176.104345 222.186309 
L 176.28876 222.186309 
L 176.28876 221.067944 
L 177.037556 221.067944 
L 177.037556 220.508762 
L 188.558268 220.508762 
L 188.558268 219.94958 
L 189.040895 219.94958 
L 189.040895 218.831215 
L 189.326171 218.831215 
L 189.326171 218.272033 
L 190.136287 218.272033 
L 190.194125 217.153669 
L 191.045834 217.153669 
L 191.045834 216.594486 
L 191.829176 216.594486 
L 191.829176 215.476122 
L 192.171489 215.476122 
L 192.209107 212.680211 
L 192.885762 212.680211 
L 192.969849 211.002664 
L 193.033243 211.002664 
L 193.142733 209.884299 
L 193.193669 209.884299 
L 193.290387 208.206753 
L 193.35144 208.206753 
L 193.35144 206.529206 
L 194.277697 206.529206 
L 194.341986 204.851659 
L 194.452269 204.851659 
L 194.452269 204.292477 
L 194.607665 204.292477 
L 194.607665 203.174112 
L 199.952017 203.174112 
L 199.952017 202.61493 
L 200.527419 202.61493 
L 200.559042 201.496566 
L 201.215964 201.496566 
L 201.215964 200.378201 
L 201.393054 200.378201 
L 201.472884 198.700655 
L 201.575603 198.700655 
L 201.669045 196.463926 
L 202.083713 196.463926 
L 202.133005 195.345561 
L 202.234661 195.345561 
L 202.321816 193.108832 
L 202.551176 193.108832 
L 202.551176 192.54965 
L 202.84646 192.54965 
L 202.91244 191.431285 
L 203.018287 191.431285 
L 203.112862 190.312921 
L 207.242492 190.312921 
L 207.242492 189.753739 
L 207.434163 189.753739 
L 207.434163 189.194556 
L 207.657405 189.194556 
L 207.750968 186.957828 
L 208.237441 186.957828 
L 208.290107 185.839463 
L 208.374919 185.839463 
L 208.425704 183.602734 
L 208.585861 183.602734 
L 208.661055 180.806823 
L 211.459967 180.806823 
L 211.459967 180.247641 
L 211.626313 180.247641 
L 211.6429 178.570094 
L 211.891794 178.570094 
L 211.891794 178.010912 
L 212.128489 178.010912 
L 212.2343 174.655818 
L 212.36352 174.655818 
L 212.459803 172.419089 
L 212.486773 172.419089 
L 212.590407 169.623178 
L 212.610295 169.623178 
L 212.716988 166.827267 
L 212.917899 166.827267 
L 212.939661 165.14972 
L 213.030167 165.14972 
L 213.030167 164.590538 
L 215.48005 164.590538 
L 215.48005 164.031356 
L 215.632369 164.031356 
L 215.700842 162.912991 
L 215.796375 162.912991 
L 215.796375 162.353809 
L 215.931757 162.353809 
L 215.992458 160.676262 
L 216.077019 160.676262 
L 216.148725 156.202804 
L 216.208356 156.202804 
L 216.208356 155.643622 
L 216.362682 155.643622 
L 216.393381 153.966075 
L 218.202544 153.966075 
L 218.202544 153.406893 
L 218.31509 153.406893 
L 218.31509 152.288529 
L 218.495438 152.288529 
L 218.599346 150.610982 
L 218.680089 150.610982 
L 218.737455 148.933435 
L 218.851616 148.933435 
L 218.952607 146.137524 
L 218.974265 146.137524 
L 219.034868 145.019159 
L 219.088967 145.019159 
L 219.175276 143.900795 
L 219.215927 143.900795 
L 219.215927 143.341613 
L 220.893387 143.341613 
L 220.893387 142.78243 
L 221.01102 142.78243 
L 221.039132 141.664066 
L 221.198501 141.664066 
L 221.24806 139.427337 
L 221.346751 139.427337 
L 221.452879 137.190608 
L 221.464758 137.190608 
L 221.552223 133.835515 
L 221.662286 133.835515 
L 221.662286 133.276332 
L 223.305626 133.276332 
L 223.405863 131.598786 
L 223.432154 131.598786 
L 223.438263 130.480421 
L 223.550074 130.480421 
L 223.650708 127.68451 
L 223.803454 127.68451 
L 223.851619 126.006963 
L 225.094827 126.006963 
L 225.094827 125.447781 
L 225.26225 125.447781 
L 225.306135 124.329417 
L 225.375209 124.329417 
L 225.43549 123.211052 
L 225.519386 123.211052 
L 225.601617 120.974323 
L 225.707202 120.974323 
L 225.750323 119.296776 
L 226.867647 119.296776 
L 226.867647 118.737594 
L 227.041036 118.737594 
L 227.125682 117.060047 
L 227.195849 117.060047 
L 227.215961 115.941683 
L 227.308857 115.941683 
L 227.395756 113.145772 
L 228.474595 113.145772 
L 228.56125 110.349861 
L 228.709757 110.349861 
L 228.810436 109.231496 
L 228.830531 109.231496 
L 228.842725 106.994767 
L 228.97069 106.994767 
L 228.979246 104.758038 
L 229.944071 104.758038 
L 229.949787 103.639674 
L 230.103676 103.639674 
L 230.155953 99.725398 
L 230.271118 99.725398 
L 230.33993 98.047851 
L 230.407925 98.047851 
L 230.407925 97.488669 
L 231.244964 97.488669 
L 231.244964 96.929487 
L 231.367334 96.929487 
L 231.445324 94.692758 
L 231.583147 94.692758 
L 231.663951 91.896847 
L 231.757305 91.896847 
L 231.757305 91.337664 
L 232.557479 91.337664 
L 232.557479 90.778482 
L 232.702739 90.778482 
L 232.788979 89.660118 
L 232.843602 89.660118 
L 232.945072 87.982571 
L 233.726565 87.982571 
L 233.726565 87.423389 
L 233.838538 87.423389 
L 233.92901 85.745842 
L 233.999747 85.745842 
L 234.095291 84.068295 
L 234.821174 84.068295 
L 234.821174 83.509113 
L 234.963263 83.509113 
L 235.037033 80.713202 
L 235.117299 80.713202 
L 235.15132 79.594837 
L 235.805672 79.594837 
L 235.850229 77.917291 
L 235.935948 77.917291 
L 235.935948 77.358108 
L 236.176505 77.358108 
L 236.176505 76.798926 
L 236.867806 76.798926 
L 236.942578 75.680562 
L 237.002052 75.680562 
L 237.075415 72.88465 
L 237.115333 72.88465 
L 237.151858 71.766286 
L 237.784369 71.766286 
L 237.860106 69.529557 
L 237.990341 69.529557 
L 238.041429 67.292828 
L 238.664599 67.292828 
L 238.765047 64.496917 
L 238.796067 64.496917 
L 238.890699 62.81937 
L 239.439377 62.81937 
L 239.439377 62.260188 
L 239.551364 62.260188 
L 239.634878 60.582641 
L 239.707878 60.582641 
L 239.715777 59.464277 
L 240.319374 59.464277 
L 240.397729 58.345912 
L 240.476181 58.345912 
L 240.495512 57.227548 
L 240.988655 57.227548 
L 241.037061 55.550001 
L 241.234178 55.550001 
L 241.234178 54.990819 
L 241.751885 54.990819 
L 241.853023 53.872454 
L 241.901284 53.872454 
L 241.901284 53.313272 
L 242.412531 53.313272 
L 242.487232 51.076543 
L 242.585015 51.076543 
L 242.632066 49.958178 
L 243.236925 49.958178 
L 243.302558 47.72145 
L 243.722298 47.72145 
L 243.819541 43.807174 
L 243.853778 43.807174 
L 243.931939 42.129627 
L 244.434803 42.129627 
L 244.493096 40.45208 
L 244.944067 40.45208 
L 244.974975 38.774534 
L 245.08685 38.774534 
L 245.08685 38.215351 
L 245.552588 38.215351 
L 245.653287 35.41944 
L 245.709325 35.41944 
L 245.709325 34.301076 
L 246.201598 34.301076 
L 246.201598 33.741894 
L 246.624621 33.741894 
L 246.733588 32.064347 
L 246.768831 32.064347 
L 246.799715 30.945982 
L 247.177363 30.945982 
L 247.266816 29.268436 
L 247.317079 29.268436 
L 247.317079 28.709253 
L 247.710006 28.709253 
L 247.779554 27.031707 
L 248.155401 27.031707 
L 248.155401 26.472524 
L 248.665908 26.472524 
L 248.700545 25.35416 
L 249.105073 25.35416 
L 249.188107 23.676613 
L 249.225342 23.676613 
L 249.256741 22.558249 
L 250.048531 22.558249 
L 250.153278 19.762337 
L 250.549232 19.762337 
L 250.549232 19.203155 
L 250.88208 19.203155 
L 250.935159 18.084791 
L 251.270649 18.084791 
L 251.270649 17.525609 
L 252.09191 17.525609 
L 252.155753 16.407244 
L 252.92925 16.407244 
L 252.92925 15.848062 
L 253.634118 15.848062 
L 253.634118 15.28888 
L 254.594602 15.28888 
L 254.594602 14.729697 
L 254.70824 14.729697 
L 254.70824 14.170515 
L 254.944327 14.170515 
L 254.944327 13.611333 
L 256.596139 13.611333 
L 256.596139 13.052151 
L 259.317309 13.052151 
L 259.317309 12.492968 
L 260.559433 12.492968 
L 260.559433 11.933786 
L 261.043797 11.933786 
L 261.043797 11.374604 
L 262.336386 11.374604 
L 262.336386 10.815422 
L 265.280974 10.815422 
L 265.280974 10.256239 
L 266.352627 10.256239 
L 266.352627 9.697057 
L 333.168 9.697057 
L 333.168 9.697057 
" style="fill:none;stroke:#6495ed;stroke-linecap:square;stroke-width:1.5;"/>
   </g>
   <g id="line2d_54">
    <defs>
     <path d="M -0 6 
L 6 -6 
L -6 -6 
z
" id="mbc2ed26fcd" style="stroke:#6495ed;stroke-linejoin:miter;stroke-width:1.5;"/>
    </defs>
    <g>
     <use style="fill-opacity:0;stroke:#6495ed;stroke-linejoin:miter;stroke-width:1.5;" x="127.443604" xlink:href="#mbc2ed26fcd" y="252.38215"/>
     <use style="fill-opacity:0;stroke:#6495ed;stroke-linejoin:miter;stroke-width:1.5;" x="192.209107" xlink:href="#mbc2ed26fcd" y="212.680211"/>
     <use style="fill-opacity:0;stroke:#6495ed;stroke-linejoin:miter;stroke-width:1.5;" x="246.733588" xlink:href="#mbc2ed26fcd" y="32.623529"/>
     <use style="fill-opacity:0;stroke:#6495ed;stroke-linejoin:miter;stroke-width:1.5;" x="266.352627" xlink:href="#mbc2ed26fcd" y="9.697057"/>
     <use style="fill-opacity:0;stroke:#6495ed;stroke-linejoin:miter;stroke-width:1.5;" x="333.168" xlink:href="#mbc2ed26fcd" y="9.697057"/>
    </g>
   </g>
   <g id="line2d_55">
    <path style="fill:none;stroke:#6495ed;stroke-linecap:square;stroke-width:1.5;"/>
    <g/>
   </g>
   <g id="line2d_56">
    <path clip-path="url(#pfd19195acb)" d="M 186.941843 220.508762 
" style="fill:none;stroke:#6495ed;stroke-linecap:square;stroke-width:1.5;"/>
    <defs>
     <path d="M -12 12 
L 12 -12 
M -12 -12 
L 12 12 
" id="m84115c76fa" style="stroke:#6495ed;"/>
    </defs>
    <g clip-path="url(#pfd19195acb)">
     <use style="fill:#6495ed;stroke:#6495ed;" x="186.941843" xlink:href="#m84115c76fa" y="220.508762"/>
    </g>
   </g>
   <g id="line2d_57">
    <defs>
     <path d="M 0 1.5 
C 0.397805 1.5 0.77937 1.341951 1.06066 1.06066 
C 1.341951 0.77937 1.5 0.397805 1.5 0 
C 1.5 -0.397805 1.341951 -0.77937 1.06066 -1.06066 
C 0.77937 -1.341951 0.397805 -1.5 0 -1.5 
C -0.397805 -1.5 -0.77937 -1.341951 -1.06066 -1.06066 
C -1.341951 -0.77937 -1.5 -0.397805 -1.5 0 
C -1.5 0.397805 -1.341951 0.77937 -1.06066 1.06066 
C -0.77937 1.341951 -0.397805 1.5 0 1.5 
z
" id="m57003a65d8" style="stroke:#ff0000;"/>
    </defs>
    <g>
     <use style="fill:#ff0000;stroke:#ff0000;" x="255.618587" xlink:href="#m57003a65d8" y="244.553598"/>
     <use style="fill:#ff0000;stroke:#ff0000;" x="255.618587" xlink:href="#m57003a65d8" y="244.553598"/>
    </g>
   </g>
   <g id="line2d_58">
    <path d="M 28.455965 294.88 
L 28.455965 289.84736 
L 40.370217 289.84736 
L 40.370217 288.728995 
L 56.12 288.728995 
L 56.12 288.169813 
L 59.253858 288.169813 
L 59.253858 287.610631 
L 66.223248 287.610631 
L 66.223248 287.051449 
L 86.335171 287.051449 
L 86.335171 286.492266 
L 88.027221 286.492266 
L 88.027221 285.933084 
L 92.70139 285.933084 
L 92.70139 284.81472 
L 100.207968 284.81472 
L 100.207968 283.696355 
L 102.667676 283.696355 
L 102.667676 283.137173 
L 105.60948 283.137173 
L 105.60948 282.577991 
L 110.311216 282.577991 
L 110.311216 282.018808 
L 120.118102 282.018808 
L 120.118102 281.459626 
L 126.031592 281.459626 
L 126.090357 279.222897 
L 130.649607 279.222897 
L 130.649607 277.545351 
L 134.139719 277.545351 
L 134.139719 276.986168 
L 134.358685 276.986168 
L 134.358685 275.867804 
L 139.996515 275.867804 
L 140.074705 274.190257 
L 143.008034 274.190257 
L 143.008034 272.51271 
L 145.682711 272.51271 
L 145.682711 271.953528 
L 150.832756 271.953528 
L 150.832756 271.394346 
L 151.527754 271.394346 
L 151.527754 270.835164 
L 152.46342 270.835164 
L 152.46342 269.716799 
L 152.912822 269.716799 
L 152.912822 269.157617 
L 156.077456 269.157617 
L 156.077456 268.598435 
L 157.408281 268.598435 
L 157.408281 267.48007 
L 158.563792 267.48007 
L 158.608082 266.361706 
L 163.199907 266.361706 
L 163.199907 265.802523 
L 164.746796 265.802523 
L 164.746796 264.684159 
L 168.017312 264.684159 
L 168.017312 264.124977 
L 168.802501 264.124977 
L 168.802501 263.006612 
L 189.111534 263.006612 
L 189.111534 262.44743 
L 189.958739 262.44743 
L 189.958739 261.888248 
L 190.233513 261.888248 
L 190.233513 261.329066 
L 190.947717 261.329066 
L 190.947717 260.769883 
L 194.316521 260.769883 
L 194.316521 260.210701 
L 200.580605 260.210701 
L 200.580605 259.651519 
L 207.267025 259.651519 
L 207.267025 259.092337 
L 211.862675 259.092337 
L 211.862675 257.973972 
L 212.218665 257.973972 
L 212.218665 257.41479 
L 215.062279 257.41479 
L 215.062279 256.855608 
L 215.774132 256.855608 
L 215.774132 256.296425 
L 221.022036 256.296425 
L 221.022036 255.737243 
L 221.231865 255.737243 
L 221.231865 254.618879 
L 222.971265 254.618879 
L 222.971265 254.059696 
L 228.367339 254.059696 
L 228.367339 253.500514 
L 228.563668 253.500514 
L 228.563668 252.941332 
L 231.488584 252.941332 
L 231.488584 252.38215 
L 232.730032 252.38215 
L 232.730032 251.822967 
L 233.787661 251.822967 
L 233.787661 251.263785 
L 236.751375 251.263785 
L 236.751375 250.145421 
L 237.674004 250.145421 
L 237.674004 249.586238 
L 237.867934 249.586238 
L 237.867934 249.027056 
L 240.177428 249.027056 
L 240.177428 248.467874 
L 241.031722 248.467874 
L 241.031722 247.908692 
L 241.818258 247.908692 
L 241.818258 247.34951 
L 243.759039 247.34951 
L 243.759039 246.790327 
L 244.300271 246.790327 
L 244.300271 246.231145 
L 249.171168 246.231145 
L 249.171168 245.671963 
L 249.585275 245.671963 
L 249.585275 245.112781 
L 255.618587 245.112781 
L 255.618587 244.553598 
L 333.168 244.553598 
L 333.168 244.553598 
" style="fill:none;stroke:#ff0000;stroke-linecap:square;stroke-width:1.5;"/>
   </g>
   <g id="line2d_59">
    <defs>
     <path d="M 0 -6 
L -5.196152 -3 
L -5.196152 3 
L -0 6 
L 5.196152 3 
L 5.196152 -3 
z
" id="mec1089cba7" style="stroke:#ff0000;stroke-linejoin:miter;stroke-width:1.5;"/>
    </defs>
    <g>
     <use style="fill-opacity:0;stroke:#ff0000;stroke-linejoin:miter;stroke-width:1.5;" x="105.60948" xlink:href="#mec1089cba7" y="282.577991"/>
     <use style="fill-opacity:0;stroke:#ff0000;stroke-linejoin:miter;stroke-width:1.5;" x="190.233513" xlink:href="#mec1089cba7" y="261.888248"/>
     <use style="fill-opacity:0;stroke:#ff0000;stroke-linejoin:miter;stroke-width:1.5;" x="237.867934" xlink:href="#mec1089cba7" y="249.586238"/>
     <use style="fill-opacity:0;stroke:#ff0000;stroke-linejoin:miter;stroke-width:1.5;" x="255.618587" xlink:href="#mec1089cba7" y="244.553598"/>
     <use style="fill-opacity:0;stroke:#ff0000;stroke-linejoin:miter;stroke-width:1.5;" x="255.618587" xlink:href="#mec1089cba7" y="244.553598"/>
     <use style="fill-opacity:0;stroke:#ff0000;stroke-linejoin:miter;stroke-width:1.5;" x="333.168" xlink:href="#mec1089cba7" y="244.553598"/>
    </g>
   </g>
   <g id="line2d_60">
    <path style="fill:none;stroke:#ff0000;stroke-linecap:square;stroke-width:1.5;"/>
    <g/>
   </g>
   <g id="line2d_61">
    <path clip-path="url(#pfd19195acb)" d="M 186.941843 263.006612 
" style="fill:none;stroke:#ff0000;stroke-linecap:square;stroke-width:1.5;"/>
    <defs>
     <path d="M -12 12 
L 12 -12 
M -12 -12 
L 12 12 
" id="m065211bc3c" style="stroke:#ff0000;"/>
    </defs>
    <g clip-path="url(#pfd19195acb)">
     <use style="fill:#ff0000;stroke:#ff0000;" x="186.941843" xlink:href="#m065211bc3c" y="263.006612"/>
    </g>
   </g>
   <g id="line2d_62">
    <path d="M 333.168 244.553598 
L 363.64328 289.176341 
" style="fill:none;stroke:#ff0000;stroke-linecap:square;stroke-width:1.5;"/>
    <g>
     <use style="fill-opacity:0;stroke:#ff0000;stroke-linejoin:miter;stroke-width:1.5;" x="333.168" xlink:href="#mec1089cba7" y="244.553598"/>
     <use style="fill-opacity:0;stroke:#ff0000;stroke-linejoin:miter;stroke-width:1.5;" x="363.64328" xlink:href="#mec1089cba7" y="289.176341"/>
    </g>
   </g>
   <g id="line2d_63">
    <path d="M 333.168 194.227197 
L 363.64328 220.732435 
" style="fill:none;stroke:#000080;stroke-linecap:square;stroke-width:1.5;"/>
    <g>
     <use style="fill-opacity:0;stroke:#000080;stroke-width:1.5;" x="333.168" xlink:href="#m0bb8649e42" y="194.227197"/>
     <use style="fill-opacity:0;stroke:#000080;stroke-width:1.5;" x="363.64328" xlink:href="#m0bb8649e42" y="220.732435"/>
    </g>
   </g>
   <g id="line2d_64">
    <path d="M 333.168 9.697057 
L 363.64328 152.288529 
" style="fill:none;stroke:#6495ed;stroke-linecap:square;stroke-width:1.5;"/>
    <g>
     <use style="fill-opacity:0;stroke:#6495ed;stroke-linejoin:miter;stroke-width:1.5;" x="333.168" xlink:href="#mbc2ed26fcd" y="9.697057"/>
     <use style="fill-opacity:0;stroke:#6495ed;stroke-linejoin:miter;stroke-width:1.5;" x="363.64328" xlink:href="#mbc2ed26fcd" y="152.288529"/>
    </g>
   </g>
   <g id="line2d_65">
    <path d="M 333.168 9.697057 
L 363.64328 83.844622 
" style="fill:none;stroke:#ff00ff;stroke-linecap:square;stroke-width:1.5;"/>
    <g>
     <use style="fill-opacity:0;stroke:#ff00ff;stroke-linejoin:miter;stroke-width:1.5;" x="333.168" xlink:href="#mf8537f8380" y="9.697057"/>
     <use style="fill-opacity:0;stroke:#ff00ff;stroke-linejoin:miter;stroke-width:1.5;" x="363.64328" xlink:href="#mf8537f8380" y="83.844622"/>
    </g>
   </g>
   <g id="line2d_66">
    <path d="M 333.168 9.697057 
L 363.64328 15.400716 
" style="fill:none;stroke:#ffa500;stroke-linecap:square;stroke-width:1.5;"/>
    <g>
     <use style="fill-opacity:0;stroke:#ffa500;stroke-linejoin:bevel;stroke-width:1.5;" x="333.168" xlink:href="#m0ab5db5903" y="9.697057"/>
     <use style="fill-opacity:0;stroke:#ffa500;stroke-linejoin:bevel;stroke-width:1.5;" x="363.64328" xlink:href="#m0ab5db5903" y="15.400716"/>
    </g>
   </g>
   <g id="line2d_67">
    <path d="M 333.168 294.88 
L 333.168 9.697057 
" style="fill:none;stroke:#000000;stroke-linecap:square;stroke-width:1.5;"/>
   </g>
   <g id="patch_3">
    <path d="M 56.12 294.88 
L 56.12 6.845228 
" style="fill:none;stroke:#000000;stroke-linecap:square;stroke-linejoin:miter;stroke-width:0.8;"/>
   </g>
   <g id="patch_4">
    <path d="M 333.168 294.88 
L 333.168 6.845228 
" style="fill:none;stroke:#000000;stroke-linecap:square;stroke-linejoin:miter;stroke-width:0.8;"/>
   </g>
   <g id="patch_5">
    <path d="M 56.12 294.88 
L 333.168 294.88 
" style="fill:none;stroke:#000000;stroke-linecap:square;stroke-linejoin:miter;stroke-width:0.8;"/>
   </g>
   <g id="patch_6">
    <path d="M 56.12 6.845228 
L 333.168 6.845228 
" style="fill:none;stroke:#000000;stroke-linecap:square;stroke-linejoin:miter;stroke-width:0.8;"/>
   </g>
   <g id="text_13">
    <!-- f24 -->
    <g transform="translate(369.18424 293.867279)scale(0.17 -0.17)">
     <use xlink:href="#DejaVuSans-66"/>
     <use x="35.205078" xlink:href="#DejaVuSans-32"/>
     <use x="98.828125" xlink:href="#DejaVuSans-34"/>
    </g>
   </g>
   <g id="text_14">
    <!-- f23 -->
    <defs>
     <path d="M 40.578125 39.3125 
Q 47.65625 37.796875 51.625 33 
Q 55.609375 28.21875 55.609375 21.1875 
Q 55.609375 10.40625 48.1875 4.484375 
Q 40.765625 -1.421875 27.09375 -1.421875 
Q 22.515625 -1.421875 17.65625 -0.515625 
Q 12.796875 0.390625 7.625 2.203125 
L 7.625 11.71875 
Q 11.71875 9.328125 16.59375 8.109375 
Q 21.484375 6.890625 26.8125 6.890625 
Q 36.078125 6.890625 40.9375 10.546875 
Q 45.796875 14.203125 45.796875 21.1875 
Q 45.796875 27.640625 41.28125 31.265625 
Q 36.765625 34.90625 28.71875 34.90625 
L 20.21875 34.90625 
L 20.21875 43.015625 
L 29.109375 43.015625 
Q 36.375 43.015625 40.234375 45.921875 
Q 44.09375 48.828125 44.09375 54.296875 
Q 44.09375 59.90625 40.109375 62.90625 
Q 36.140625 65.921875 28.71875 65.921875 
Q 24.65625 65.921875 20.015625 65.03125 
Q 15.375 64.15625 9.8125 62.3125 
L 9.8125 71.09375 
Q 15.4375 72.65625 20.34375 73.4375 
Q 25.25 74.21875 29.59375 74.21875 
Q 40.828125 74.21875 47.359375 69.109375 
Q 53.90625 64.015625 53.90625 55.328125 
Q 53.90625 49.265625 50.4375 45.09375 
Q 46.96875 40.921875 40.578125 39.3125 
z
" id="DejaVuSans-33"/>
    </defs>
    <g transform="translate(369.18424 225.423372)scale(0.17 -0.17)">
     <use xlink:href="#DejaVuSans-66"/>
     <use x="35.205078" xlink:href="#DejaVuSans-32"/>
     <use x="98.828125" xlink:href="#DejaVuSans-33"/>
    </g>
   </g>
   <g id="text_15">
    <!-- f20 -->
    <g transform="translate(369.18424 156.979466)scale(0.17 -0.17)">
     <use xlink:href="#DejaVuSans-66"/>
     <use x="35.205078" xlink:href="#DejaVuSans-32"/>
     <use x="98.828125" xlink:href="#DejaVuSans-30"/>
    </g>
   </g>
   <g id="text_16">
    <!-- f22 -->
    <g transform="translate(369.18424 88.53556)scale(0.17 -0.17)">
     <use xlink:href="#DejaVuSans-66"/>
     <use x="35.205078" xlink:href="#DejaVuSans-32"/>
     <use x="98.828125" xlink:href="#DejaVuSans-32"/>
    </g>
   </g>
   <g id="text_17">
    <!-- f21 -->
    <g transform="translate(369.18424 20.091654)scale(0.17 -0.17)">
     <use xlink:href="#DejaVuSans-66"/>
     <use x="35.205078" xlink:href="#DejaVuSans-32"/>
     <use x="98.828125" xlink:href="#DejaVuSans-31"/>
    </g>
   </g>
   <g id="text_18">
    <!-- bbob -->
    <defs>
     <path d="M 48.6875 27.296875 
Q 48.6875 37.203125 44.609375 42.84375 
Q 40.53125 48.484375 33.40625 48.484375 
Q 26.265625 48.484375 22.1875 42.84375 
Q 18.109375 37.203125 18.109375 27.296875 
Q 18.109375 17.390625 22.1875 11.75 
Q 26.265625 6.109375 33.40625 6.109375 
Q 40.53125 6.109375 44.609375 11.75 
Q 48.6875 17.390625 48.6875 27.296875 
z
M 18.109375 46.390625 
Q 20.953125 51.265625 25.265625 53.625 
Q 29.59375 56 35.59375 56 
Q 45.5625 56 51.78125 48.09375 
Q 58.015625 40.1875 58.015625 27.296875 
Q 58.015625 14.40625 51.78125 6.484375 
Q 45.5625 -1.421875 35.59375 -1.421875 
Q 29.59375 -1.421875 25.265625 0.953125 
Q 20.953125 3.328125 18.109375 8.203125 
L 18.109375 0 
L 9.078125 0 
L 9.078125 75.984375 
L 18.109375 75.984375 
z
" id="DejaVuSans-62"/>
    </defs>
    <g transform="translate(58.89048 17.475982)scale(0.102 -0.102)">
     <use xlink:href="#DejaVuSans-62"/>
     <use x="63.476562" xlink:href="#DejaVuSans-62"/>
     <use x="126.953125" xlink:href="#DejaVuSans-6f"/>
     <use x="188.134766" xlink:href="#DejaVuSans-62"/>
    </g>
    <!-- Weak structure functions, 5-D -->
    <defs>
     <path d="M 3.328125 72.90625 
L 13.28125 72.90625 
L 28.609375 11.28125 
L 43.890625 72.90625 
L 54.984375 72.90625 
L 70.3125 11.28125 
L 85.59375 72.90625 
L 95.609375 72.90625 
L 77.296875 0 
L 64.890625 0 
L 49.515625 63.28125 
L 33.984375 0 
L 21.578125 0 
z
" id="DejaVuSans-57"/>
     <path d="M 9.078125 75.984375 
L 18.109375 75.984375 
L 18.109375 31.109375 
L 44.921875 54.6875 
L 56.390625 54.6875 
L 27.390625 29.109375 
L 57.625 0 
L 45.90625 0 
L 18.109375 26.703125 
L 18.109375 0 
L 9.078125 0 
z
" id="DejaVuSans-6b"/>
     <path d="M 10.796875 72.90625 
L 49.515625 72.90625 
L 49.515625 64.59375 
L 19.828125 64.59375 
L 19.828125 46.734375 
Q 21.96875 47.46875 24.109375 47.828125 
Q 26.265625 48.1875 28.421875 48.1875 
Q 40.625 48.1875 47.75 41.5 
Q 54.890625 34.8125 54.890625 23.390625 
Q 54.890625 11.625 47.5625 5.09375 
Q 40.234375 -1.421875 26.90625 -1.421875 
Q 22.3125 -1.421875 17.546875 -0.640625 
Q 12.796875 0.140625 7.71875 1.703125 
L 7.71875 11.625 
Q 12.109375 9.234375 16.796875 8.0625 
Q 21.484375 6.890625 26.703125 6.890625 
Q 35.15625 6.890625 40.078125 11.328125 
Q 45.015625 15.765625 45.015625 23.390625 
Q 45.015625 31 40.078125 35.4375 
Q 35.15625 39.890625 26.703125 39.890625 
Q 22.75 39.890625 18.8125 39.015625 
Q 14.890625 38.140625 10.796875 36.28125 
z
" id="DejaVuSans-35"/>
     <path d="M 19.671875 64.796875 
L 19.671875 8.109375 
L 31.59375 8.109375 
Q 46.6875 8.109375 53.6875 14.9375 
Q 60.6875 21.78125 60.6875 36.53125 
Q 60.6875 51.171875 53.6875 57.984375 
Q 46.6875 64.796875 31.59375 64.796875 
z
M 9.8125 72.90625 
L 30.078125 72.90625 
Q 51.265625 72.90625 61.171875 64.09375 
Q 71.09375 55.28125 71.09375 36.53125 
Q 71.09375 17.671875 61.125 8.828125 
Q 51.171875 0 30.078125 0 
L 9.8125 0 
z
" id="DejaVuSans-44"/>
    </defs>
    <g transform="translate(58.89048 28.89775)scale(0.102 -0.102)">
     <use xlink:href="#DejaVuSans-57"/>
     <use x="98.798828" xlink:href="#DejaVuSans-65"/>
     <use x="160.322266" xlink:href="#DejaVuSans-61"/>
     <use x="221.601562" xlink:href="#DejaVuSans-6b"/>
     <use x="279.511719" xlink:href="#DejaVuSans-20"/>
     <use x="311.298828" xlink:href="#DejaVuSans-73"/>
     <use x="363.398438" xlink:href="#DejaVuSans-74"/>
     <use x="402.607422" xlink:href="#DejaVuSans-72"/>
     <use x="443.720703" xlink:href="#DejaVuSans-75"/>
     <use x="507.099609" xlink:href="#DejaVuSans-63"/>
     <use x="562.080078" xlink:href="#DejaVuSans-74"/>
     <use x="601.289062" xlink:href="#DejaVuSans-75"/>
     <use x="664.667969" xlink:href="#DejaVuSans-72"/>
     <use x="705.75" xlink:href="#DejaVuSans-65"/>
     <use x="767.273438" xlink:href="#DejaVuSans-20"/>
     <use x="799.060547" xlink:href="#DejaVuSans-66"/>
     <use x="834.265625" xlink:href="#DejaVuSans-75"/>
     <use x="897.644531" xlink:href="#DejaVuSans-6e"/>
     <use x="961.023438" xlink:href="#DejaVuSans-63"/>
     <use x="1016.003906" xlink:href="#DejaVuSans-74"/>
     <use x="1055.212891" xlink:href="#DejaVuSans-69"/>
     <use x="1082.996094" xlink:href="#DejaVuSans-6f"/>
     <use x="1144.177734" xlink:href="#DejaVuSans-6e"/>
     <use x="1207.556641" xlink:href="#DejaVuSans-73"/>
     <use x="1259.65625" xlink:href="#DejaVuSans-2c"/>
     <use x="1291.443359" xlink:href="#DejaVuSans-20"/>
     <use x="1323.230469" xlink:href="#DejaVuSans-35"/>
     <use x="1386.853516" xlink:href="#DejaVuSans-2d"/>
     <use x="1422.9375" xlink:href="#DejaVuSans-44"/>
    </g>
    <!-- 51 targets: 100..1e-08 -->
    <defs>
     <path d="M 11.71875 12.40625 
L 22.015625 12.40625 
L 22.015625 0 
L 11.71875 0 
z
M 11.71875 51.703125 
L 22.015625 51.703125 
L 22.015625 39.3125 
L 11.71875 39.3125 
z
" id="DejaVuSans-3a"/>
    </defs>
    <g transform="translate(58.89048 40.319519)scale(0.102 -0.102)">
     <use xlink:href="#DejaVuSans-35"/>
     <use x="63.623047" xlink:href="#DejaVuSans-31"/>
     <use x="127.246094" xlink:href="#DejaVuSans-20"/>
     <use x="159.033203" xlink:href="#DejaVuSans-74"/>
     <use x="198.242188" xlink:href="#DejaVuSans-61"/>
     <use x="259.521484" xlink:href="#DejaVuSans-72"/>
     <use x="300.619141" xlink:href="#DejaVuSans-67"/>
     <use x="364.095703" xlink:href="#DejaVuSans-65"/>
     <use x="425.619141" xlink:href="#DejaVuSans-74"/>
     <use x="464.828125" xlink:href="#DejaVuSans-73"/>
     <use x="516.927734" xlink:href="#DejaVuSans-3a"/>
     <use x="550.619141" xlink:href="#DejaVuSans-20"/>
     <use x="582.40625" xlink:href="#DejaVuSans-31"/>
     <use x="646.029297" xlink:href="#DejaVuSans-30"/>
     <use x="709.652344" xlink:href="#DejaVuSans-30"/>
     <use x="773.275391" xlink:href="#DejaVuSans-2e"/>
     <use x="805.0625" xlink:href="#DejaVuSans-2e"/>
     <use x="836.849609" xlink:href="#DejaVuSans-31"/>
     <use x="900.472656" xlink:href="#DejaVuSans-65"/>
     <use x="961.996094" xlink:href="#DejaVuSans-2d"/>
     <use x="998.080078" xlink:href="#DejaVuSans-30"/>
     <use x="1061.703125" xlink:href="#DejaVuSans-38"/>
    </g>
    <!-- 15 instances -->
    <g transform="translate(58.89048 51.741288)scale(0.102 -0.102)">
     <use xlink:href="#DejaVuSans-31"/>
     <use x="63.623047" xlink:href="#DejaVuSans-35"/>
     <use x="127.246094" xlink:href="#DejaVuSans-20"/>
     <use x="159.033203" xlink:href="#DejaVuSans-69"/>
     <use x="186.816406" xlink:href="#DejaVuSans-6e"/>
     <use x="250.195312" xlink:href="#DejaVuSans-73"/>
     <use x="302.294922" xlink:href="#DejaVuSans-74"/>
     <use x="341.503906" xlink:href="#DejaVuSans-61"/>
     <use x="402.783203" xlink:href="#DejaVuSans-6e"/>
     <use x="466.162109" xlink:href="#DejaVuSans-63"/>
     <use x="521.142578" xlink:href="#DejaVuSans-65"/>
     <use x="582.666016" xlink:href="#DejaVuSans-73"/>
    </g>
   </g>
   <g id="text_19">
    <!-- v0.0.0 -->
    <g style="fill:#808080;" transform="translate(178.96275 289.919965)scale(0.1 -0.1)">
     <use xlink:href="#DejaVuSans-76"/>
     <use x="59.179688" xlink:href="#DejaVuSans-30"/>
     <use x="122.802734" xlink:href="#DejaVuSans-2e"/>
     <use x="154.589844" xlink:href="#DejaVuSans-30"/>
     <use x="218.212891" xlink:href="#DejaVuSans-2e"/>
     <use x="250" xlink:href="#DejaVuSans-30"/>
    </g>
   </g>
  </g>
 </g>
 <defs>
  <clipPath id="pfd19195acb">
   <rect height="288.034772" width="277.048" x="56.12" y="6.845228"/>
  </clipPath>
 </defs>
</svg>
