<?xml version="1.0" encoding="utf-8" standalone="no"?>
<!DOCTYPE svg PUBLIC "-//W3C//DTD SVG 1.1//EN"
  "http://www.w3.org/Graphics/SVG/1.1/DTD/svg11.dtd">
<!-- Created with matplotlib (http://matplotlib.org/) -->
<svg height="345.6pt" version="1.1" viewBox="0 0 460.8 345.6" width="460.8pt" xmlns="http://www.w3.org/2000/svg" xmlns:xlink="http://www.w3.org/1999/xlink">
 <defs>
  <style type="text/css">
*{stroke-linecap:butt;stroke-linejoin:round;}
  </style>
 </defs>
 <g id="figure_1">
  <g id="patch_1">
   <path d="M 0 345.6 
L 460.8 345.6 
L 460.8 0 
L 0 0 
z
" style="fill:#ffffff;"/>
  </g>
  <g id="axes_1">
   <g id="patch_2">
    <path d="M 56.12 294.88 
L 333.168 294.88 
L 333.168 6.845228 
L 56.12 6.845228 
z
" style="fill:#ffffff;"/>
   </g>
   <g id="matplotlib.axis_1">
    <g id="xtick_1">
     <g id="line2d_1">
      <path clip-path="url(#p96fc846b46)" d="M 56.12 294.88 
L 56.12 6.845228 
" style="fill:none;stroke:#b0b0b0;stroke-linecap:square;stroke-width:0.8;"/>
     </g>
     <g id="line2d_2">
      <defs>
       <path d="M 0 0 
L 0 3.5 
" id="mc5e5bada93" style="stroke:#000000;stroke-width:0.8;"/>
      </defs>
      <g>
       <use style="stroke:#000000;stroke-width:0.8;" x="56.12" xlink:href="#mc5e5bada93" y="294.88"/>
      </g>
     </g>
     <g id="text_1">
      <!-- 0 -->
      <defs>
       <path d="M 31.78125 66.40625 
Q 24.171875 66.40625 20.328125 58.90625 
Q 16.5 51.421875 16.5 36.375 
Q 16.5 21.390625 20.328125 13.890625 
Q 24.171875 6.390625 31.78125 6.390625 
Q 39.453125 6.390625 43.28125 13.890625 
Q 47.125 21.390625 47.125 36.375 
Q 47.125 51.421875 43.28125 58.90625 
Q 39.453125 66.40625 31.78125 66.40625 
z
M 31.78125 74.21875 
Q 44.046875 74.21875 50.515625 64.515625 
Q 56.984375 54.828125 56.984375 36.375 
Q 56.984375 17.96875 50.515625 8.265625 
Q 44.046875 -1.421875 31.78125 -1.421875 
Q 19.53125 -1.421875 13.0625 8.265625 
Q 6.59375 17.96875 6.59375 36.375 
Q 6.59375 54.828125 13.0625 64.515625 
Q 19.53125 74.21875 31.78125 74.21875 
z
" id="DejaVuSans-30"/>
      </defs>
      <g transform="translate(49.7575 317.076875)scale(0.2 -0.2)">
       <use xlink:href="#DejaVuSans-30"/>
      </g>
     </g>
    </g>
    <g id="xtick_2">
     <g id="line2d_3">
      <path clip-path="url(#p96fc846b46)" d="M 135.276571 294.88 
L 135.276571 6.845228 
" style="fill:none;stroke:#b0b0b0;stroke-linecap:square;stroke-width:0.8;"/>
     </g>
     <g id="line2d_4">
      <g>
       <use style="stroke:#000000;stroke-width:0.8;" x="135.276571" xlink:href="#mc5e5bada93" y="294.88"/>
      </g>
     </g>
     <g id="text_2">
      <!-- 2 -->
      <defs>
       <path d="M 19.1875 8.296875 
L 53.609375 8.296875 
L 53.609375 0 
L 7.328125 0 
L 7.328125 8.296875 
Q 12.9375 14.109375 22.625 23.890625 
Q 32.328125 33.6875 34.8125 36.53125 
Q 39.546875 41.84375 41.421875 45.53125 
Q 43.3125 49.21875 43.3125 52.78125 
Q 43.3125 58.59375 39.234375 62.25 
Q 35.15625 65.921875 28.609375 65.921875 
Q 23.96875 65.921875 18.8125 64.3125 
Q 13.671875 62.703125 7.8125 59.421875 
L 7.8125 69.390625 
Q 13.765625 71.78125 18.9375 73 
Q 24.125 74.21875 28.421875 74.21875 
Q 39.75 74.21875 46.484375 68.546875 
Q 53.21875 62.890625 53.21875 53.421875 
Q 53.21875 48.921875 51.53125 44.890625 
Q 49.859375 40.875 45.40625 35.40625 
Q 44.1875 33.984375 37.640625 27.21875 
Q 31.109375 20.453125 19.1875 8.296875 
z
" id="DejaVuSans-32"/>
      </defs>
      <g transform="translate(128.914071 317.076875)scale(0.2 -0.2)">
       <use xlink:href="#DejaVuSans-32"/>
      </g>
     </g>
    </g>
    <g id="xtick_3">
     <g id="line2d_5">
      <path clip-path="url(#p96fc846b46)" d="M 214.433143 294.88 
L 214.433143 6.845228 
" style="fill:none;stroke:#b0b0b0;stroke-linecap:square;stroke-width:0.8;"/>
     </g>
     <g id="line2d_6">
      <g>
       <use style="stroke:#000000;stroke-width:0.8;" x="214.433143" xlink:href="#mc5e5bada93" y="294.88"/>
      </g>
     </g>
     <g id="text_3">
      <!-- 4 -->
      <defs>
       <path d="M 37.796875 64.3125 
L 12.890625 25.390625 
L 37.796875 25.390625 
z
M 35.203125 72.90625 
L 47.609375 72.90625 
L 47.609375 25.390625 
L 58.015625 25.390625 
L 58.015625 17.1875 
L 47.609375 17.1875 
L 47.609375 0 
L 37.796875 0 
L 37.796875 17.1875 
L 4.890625 17.1875 
L 4.890625 26.703125 
z
" id="DejaVuSans-34"/>
      </defs>
      <g transform="translate(208.070643 317.076875)scale(0.2 -0.2)">
       <use xlink:href="#DejaVuSans-34"/>
      </g>
     </g>
    </g>
    <g id="xtick_4">
     <g id="line2d_7">
      <path clip-path="url(#p96fc846b46)" d="M 293.589714 294.88 
L 293.589714 6.845228 
" style="fill:none;stroke:#b0b0b0;stroke-linecap:square;stroke-width:0.8;"/>
     </g>
     <g id="line2d_8">
      <g>
       <use style="stroke:#000000;stroke-width:0.8;" x="293.589714" xlink:href="#mc5e5bada93" y="294.88"/>
      </g>
     </g>
     <g id="text_4">
      <!-- 6 -->
      <defs>
       <path d="M 33.015625 40.375 
Q 26.375 40.375 22.484375 35.828125 
Q 18.609375 31.296875 18.609375 23.390625 
Q 18.609375 15.53125 22.484375 10.953125 
Q 26.375 6.390625 33.015625 6.390625 
Q 39.65625 6.390625 43.53125 10.953125 
Q 47.40625 15.53125 47.40625 23.390625 
Q 47.40625 31.296875 43.53125 35.828125 
Q 39.65625 40.375 33.015625 40.375 
z
M 52.59375 71.296875 
L 52.59375 62.3125 
Q 48.875 64.0625 45.09375 64.984375 
Q 41.3125 65.921875 37.59375 65.921875 
Q 27.828125 65.921875 22.671875 59.328125 
Q 17.53125 52.734375 16.796875 39.40625 
Q 19.671875 43.65625 24.015625 45.921875 
Q 28.375 48.1875 33.59375 48.1875 
Q 44.578125 48.1875 50.953125 41.515625 
Q 57.328125 34.859375 57.328125 23.390625 
Q 57.328125 12.15625 50.6875 5.359375 
Q 44.046875 -1.421875 33.015625 -1.421875 
Q 20.359375 -1.421875 13.671875 8.265625 
Q 6.984375 17.96875 6.984375 36.375 
Q 6.984375 53.65625 15.1875 63.9375 
Q 23.390625 74.21875 37.203125 74.21875 
Q 40.921875 74.21875 44.703125 73.484375 
Q 48.484375 72.75 52.59375 71.296875 
z
" id="DejaVuSans-36"/>
      </defs>
      <g transform="translate(287.227214 317.076875)scale(0.2 -0.2)">
       <use xlink:href="#DejaVuSans-36"/>
      </g>
     </g>
    </g>
    <g id="xtick_5">
     <g id="line2d_9">
      <path clip-path="url(#p96fc846b46)" d="M 56.12 294.88 
L 56.12 6.845228 
" style="fill:none;stroke:#b0b0b0;stroke-linecap:square;stroke-width:0.8;"/>
     </g>
     <g id="line2d_10">
      <defs>
       <path d="M 0 0 
L 0 2 
" id="m2745129115" style="stroke:#000000;stroke-width:0.6;"/>
      </defs>
      <g>
       <use style="stroke:#000000;stroke-width:0.6;" x="56.12" xlink:href="#m2745129115" y="294.88"/>
      </g>
     </g>
    </g>
    <g id="xtick_6">
     <g id="line2d_11">
      <path clip-path="url(#p96fc846b46)" d="M 95.698286 294.88 
L 95.698286 6.845228 
" style="fill:none;stroke:#b0b0b0;stroke-linecap:square;stroke-width:0.8;"/>
     </g>
     <g id="line2d_12">
      <g>
       <use style="stroke:#000000;stroke-width:0.6;" x="95.698286" xlink:href="#m2745129115" y="294.88"/>
      </g>
     </g>
    </g>
    <g id="xtick_7">
     <g id="line2d_13">
      <path clip-path="url(#p96fc846b46)" d="M 135.276571 294.88 
L 135.276571 6.845228 
" style="fill:none;stroke:#b0b0b0;stroke-linecap:square;stroke-width:0.8;"/>
     </g>
     <g id="line2d_14">
      <g>
       <use style="stroke:#000000;stroke-width:0.6;" x="135.276571" xlink:href="#m2745129115" y="294.88"/>
      </g>
     </g>
    </g>
    <g id="xtick_8">
     <g id="line2d_15">
      <path clip-path="url(#p96fc846b46)" d="M 174.854857 294.88 
L 174.854857 6.845228 
" style="fill:none;stroke:#b0b0b0;stroke-linecap:square;stroke-width:0.8;"/>
     </g>
     <g id="line2d_16">
      <g>
       <use style="stroke:#000000;stroke-width:0.6;" x="174.854857" xlink:href="#m2745129115" y="294.88"/>
      </g>
     </g>
    </g>
    <g id="xtick_9">
     <g id="line2d_17">
      <path clip-path="url(#p96fc846b46)" d="M 214.433143 294.88 
L 214.433143 6.845228 
" style="fill:none;stroke:#b0b0b0;stroke-linecap:square;stroke-width:0.8;"/>
     </g>
     <g id="line2d_18">
      <g>
       <use style="stroke:#000000;stroke-width:0.6;" x="214.433143" xlink:href="#m2745129115" y="294.88"/>
      </g>
     </g>
    </g>
    <g id="xtick_10">
     <g id="line2d_19">
      <path clip-path="url(#p96fc846b46)" d="M 254.011429 294.88 
L 254.011429 6.845228 
" style="fill:none;stroke:#b0b0b0;stroke-linecap:square;stroke-width:0.8;"/>
     </g>
     <g id="line2d_20">
      <g>
       <use style="stroke:#000000;stroke-width:0.6;" x="254.011429" xlink:href="#m2745129115" y="294.88"/>
      </g>
     </g>
    </g>
    <g id="xtick_11">
     <g id="line2d_21">
      <path clip-path="url(#p96fc846b46)" d="M 293.589714 294.88 
L 293.589714 6.845228 
" style="fill:none;stroke:#b0b0b0;stroke-linecap:square;stroke-width:0.8;"/>
     </g>
     <g id="line2d_22">
      <g>
       <use style="stroke:#000000;stroke-width:0.6;" x="293.589714" xlink:href="#m2745129115" y="294.88"/>
      </g>
     </g>
    </g>
    <g id="xtick_12">
     <g id="line2d_23">
      <path clip-path="url(#p96fc846b46)" d="M 333.168 294.88 
L 333.168 6.845228 
" style="fill:none;stroke:#b0b0b0;stroke-linecap:square;stroke-width:0.8;"/>
     </g>
     <g id="line2d_24">
      <g>
       <use style="stroke:#000000;stroke-width:0.6;" x="333.168" xlink:href="#m2745129115" y="294.88"/>
      </g>
     </g>
    </g>
    <g id="text_5">
     <!-- log10(# f-evals / dimension) -->
     <defs>
      <path d="M 9.421875 75.984375 
L 18.40625 75.984375 
L 18.40625 0 
L 9.421875 0 
z
" id="DejaVuSans-6c"/>
      <path d="M 30.609375 48.390625 
Q 23.390625 48.390625 19.1875 42.75 
Q 14.984375 37.109375 14.984375 27.296875 
Q 14.984375 17.484375 19.15625 11.84375 
Q 23.34375 6.203125 30.609375 6.203125 
Q 37.796875 6.203125 41.984375 11.859375 
Q 46.1875 17.53125 46.1875 27.296875 
Q 46.1875 37.015625 41.984375 42.703125 
Q 37.796875 48.390625 30.609375 48.390625 
z
M 30.609375 56 
Q 42.328125 56 49.015625 48.375 
Q 55.71875 40.765625 55.71875 27.296875 
Q 55.71875 13.875 49.015625 6.21875 
Q 42.328125 -1.421875 30.609375 -1.421875 
Q 18.84375 -1.421875 12.171875 6.21875 
Q 5.515625 13.875 5.515625 27.296875 
Q 5.515625 40.765625 12.171875 48.375 
Q 18.84375 56 30.609375 56 
z
" id="DejaVuSans-6f"/>
      <path d="M 45.40625 27.984375 
Q 45.40625 37.75 41.375 43.109375 
Q 37.359375 48.484375 30.078125 48.484375 
Q 22.859375 48.484375 18.828125 43.109375 
Q 14.796875 37.75 14.796875 27.984375 
Q 14.796875 18.265625 18.828125 12.890625 
Q 22.859375 7.515625 30.078125 7.515625 
Q 37.359375 7.515625 41.375 12.890625 
Q 45.40625 18.265625 45.40625 27.984375 
z
M 54.390625 6.78125 
Q 54.390625 -7.171875 48.1875 -13.984375 
Q 42 -20.796875 29.203125 -20.796875 
Q 24.46875 -20.796875 20.265625 -20.09375 
Q 16.0625 -19.390625 12.109375 -17.921875 
L 12.109375 -9.1875 
Q 16.0625 -11.328125 19.921875 -12.34375 
Q 23.78125 -13.375 27.78125 -13.375 
Q 36.625 -13.375 41.015625 -8.765625 
Q 45.40625 -4.15625 45.40625 5.171875 
L 45.40625 9.625 
Q 42.625 4.78125 38.28125 2.390625 
Q 33.9375 0 27.875 0 
Q 17.828125 0 11.671875 7.65625 
Q 5.515625 15.328125 5.515625 27.984375 
Q 5.515625 40.671875 11.671875 48.328125 
Q 17.828125 56 27.875 56 
Q 33.9375 56 38.28125 53.609375 
Q 42.625 51.21875 45.40625 46.390625 
L 45.40625 54.6875 
L 54.390625 54.6875 
z
" id="DejaVuSans-67"/>
      <path d="M 12.40625 8.296875 
L 28.515625 8.296875 
L 28.515625 63.921875 
L 10.984375 60.40625 
L 10.984375 69.390625 
L 28.421875 72.90625 
L 38.28125 72.90625 
L 38.28125 8.296875 
L 54.390625 8.296875 
L 54.390625 0 
L 12.40625 0 
z
" id="DejaVuSans-31"/>
      <path d="M 31 75.875 
Q 24.46875 64.65625 21.28125 53.65625 
Q 18.109375 42.671875 18.109375 31.390625 
Q 18.109375 20.125 21.3125 9.0625 
Q 24.515625 -2 31 -13.1875 
L 23.1875 -13.1875 
Q 15.875 -1.703125 12.234375 9.375 
Q 8.59375 20.453125 8.59375 31.390625 
Q 8.59375 42.28125 12.203125 53.3125 
Q 15.828125 64.359375 23.1875 75.875 
z
" id="DejaVuSans-28"/>
      <path d="M 51.125 44 
L 36.921875 44 
L 32.8125 27.6875 
L 47.125 27.6875 
z
M 43.796875 71.78125 
L 38.71875 51.515625 
L 52.984375 51.515625 
L 58.109375 71.78125 
L 65.921875 71.78125 
L 60.890625 51.515625 
L 76.125 51.515625 
L 76.125 44 
L 58.984375 44 
L 54.984375 27.6875 
L 70.515625 27.6875 
L 70.515625 20.21875 
L 53.078125 20.21875 
L 48 0 
L 40.1875 0 
L 45.21875 20.21875 
L 30.90625 20.21875 
L 25.875 0 
L 18.015625 0 
L 23.09375 20.21875 
L 7.71875 20.21875 
L 7.71875 27.6875 
L 24.90625 27.6875 
L 29 44 
L 13.28125 44 
L 13.28125 51.515625 
L 30.90625 51.515625 
L 35.890625 71.78125 
z
" id="DejaVuSans-23"/>
      <path id="DejaVuSans-20"/>
      <path d="M 37.109375 75.984375 
L 37.109375 68.5 
L 28.515625 68.5 
Q 23.6875 68.5 21.796875 66.546875 
Q 19.921875 64.59375 19.921875 59.515625 
L 19.921875 54.6875 
L 34.71875 54.6875 
L 34.71875 47.703125 
L 19.921875 47.703125 
L 19.921875 0 
L 10.890625 0 
L 10.890625 47.703125 
L 2.296875 47.703125 
L 2.296875 54.6875 
L 10.890625 54.6875 
L 10.890625 58.5 
Q 10.890625 67.625 15.140625 71.796875 
Q 19.390625 75.984375 28.609375 75.984375 
z
" id="DejaVuSans-66"/>
      <path d="M 4.890625 31.390625 
L 31.203125 31.390625 
L 31.203125 23.390625 
L 4.890625 23.390625 
z
" id="DejaVuSans-2d"/>
      <path d="M 56.203125 29.59375 
L 56.203125 25.203125 
L 14.890625 25.203125 
Q 15.484375 15.921875 20.484375 11.0625 
Q 25.484375 6.203125 34.421875 6.203125 
Q 39.59375 6.203125 44.453125 7.46875 
Q 49.3125 8.734375 54.109375 11.28125 
L 54.109375 2.78125 
Q 49.265625 0.734375 44.1875 -0.34375 
Q 39.109375 -1.421875 33.890625 -1.421875 
Q 20.796875 -1.421875 13.15625 6.1875 
Q 5.515625 13.8125 5.515625 26.8125 
Q 5.515625 40.234375 12.765625 48.109375 
Q 20.015625 56 32.328125 56 
Q 43.359375 56 49.78125 48.890625 
Q 56.203125 41.796875 56.203125 29.59375 
z
M 47.21875 32.234375 
Q 47.125 39.59375 43.09375 43.984375 
Q 39.0625 48.390625 32.421875 48.390625 
Q 24.90625 48.390625 20.390625 44.140625 
Q 15.875 39.890625 15.1875 32.171875 
z
" id="DejaVuSans-65"/>
      <path d="M 2.984375 54.6875 
L 12.5 54.6875 
L 29.59375 8.796875 
L 46.6875 54.6875 
L 56.203125 54.6875 
L 35.6875 0 
L 23.484375 0 
z
" id="DejaVuSans-76"/>
      <path d="M 34.28125 27.484375 
Q 23.390625 27.484375 19.1875 25 
Q 14.984375 22.515625 14.984375 16.5 
Q 14.984375 11.71875 18.140625 8.90625 
Q 21.296875 6.109375 26.703125 6.109375 
Q 34.1875 6.109375 38.703125 11.40625 
Q 43.21875 16.703125 43.21875 25.484375 
L 43.21875 27.484375 
z
M 52.203125 31.203125 
L 52.203125 0 
L 43.21875 0 
L 43.21875 8.296875 
Q 40.140625 3.328125 35.546875 0.953125 
Q 30.953125 -1.421875 24.3125 -1.421875 
Q 15.921875 -1.421875 10.953125 3.296875 
Q 6 8.015625 6 15.921875 
Q 6 25.140625 12.171875 29.828125 
Q 18.359375 34.515625 30.609375 34.515625 
L 43.21875 34.515625 
L 43.21875 35.40625 
Q 43.21875 41.609375 39.140625 45 
Q 35.0625 48.390625 27.6875 48.390625 
Q 23 48.390625 18.546875 47.265625 
Q 14.109375 46.140625 10.015625 43.890625 
L 10.015625 52.203125 
Q 14.9375 54.109375 19.578125 55.046875 
Q 24.21875 56 28.609375 56 
Q 40.484375 56 46.34375 49.84375 
Q 52.203125 43.703125 52.203125 31.203125 
z
" id="DejaVuSans-61"/>
      <path d="M 44.28125 53.078125 
L 44.28125 44.578125 
Q 40.484375 46.53125 36.375 47.5 
Q 32.28125 48.484375 27.875 48.484375 
Q 21.1875 48.484375 17.84375 46.4375 
Q 14.5 44.390625 14.5 40.28125 
Q 14.5 37.15625 16.890625 35.375 
Q 19.28125 33.59375 26.515625 31.984375 
L 29.59375 31.296875 
Q 39.15625 29.25 43.1875 25.515625 
Q 47.21875 21.78125 47.21875 15.09375 
Q 47.21875 7.46875 41.1875 3.015625 
Q 35.15625 -1.421875 24.609375 -1.421875 
Q 20.21875 -1.421875 15.453125 -0.5625 
Q 10.6875 0.296875 5.421875 2 
L 5.421875 11.28125 
Q 10.40625 8.6875 15.234375 7.390625 
Q 20.0625 6.109375 24.8125 6.109375 
Q 31.15625 6.109375 34.5625 8.28125 
Q 37.984375 10.453125 37.984375 14.40625 
Q 37.984375 18.0625 35.515625 20.015625 
Q 33.0625 21.96875 24.703125 23.78125 
L 21.578125 24.515625 
Q 13.234375 26.265625 9.515625 29.90625 
Q 5.8125 33.546875 5.8125 39.890625 
Q 5.8125 47.609375 11.28125 51.796875 
Q 16.75 56 26.8125 56 
Q 31.78125 56 36.171875 55.265625 
Q 40.578125 54.546875 44.28125 53.078125 
z
" id="DejaVuSans-73"/>
      <path d="M 25.390625 72.90625 
L 33.6875 72.90625 
L 8.296875 -9.28125 
L 0 -9.28125 
z
" id="DejaVuSans-2f"/>
      <path d="M 45.40625 46.390625 
L 45.40625 75.984375 
L 54.390625 75.984375 
L 54.390625 0 
L 45.40625 0 
L 45.40625 8.203125 
Q 42.578125 3.328125 38.25 0.953125 
Q 33.9375 -1.421875 27.875 -1.421875 
Q 17.96875 -1.421875 11.734375 6.484375 
Q 5.515625 14.40625 5.515625 27.296875 
Q 5.515625 40.1875 11.734375 48.09375 
Q 17.96875 56 27.875 56 
Q 33.9375 56 38.25 53.625 
Q 42.578125 51.265625 45.40625 46.390625 
z
M 14.796875 27.296875 
Q 14.796875 17.390625 18.875 11.75 
Q 22.953125 6.109375 30.078125 6.109375 
Q 37.203125 6.109375 41.296875 11.75 
Q 45.40625 17.390625 45.40625 27.296875 
Q 45.40625 37.203125 41.296875 42.84375 
Q 37.203125 48.484375 30.078125 48.484375 
Q 22.953125 48.484375 18.875 42.84375 
Q 14.796875 37.203125 14.796875 27.296875 
z
" id="DejaVuSans-64"/>
      <path d="M 9.421875 54.6875 
L 18.40625 54.6875 
L 18.40625 0 
L 9.421875 0 
z
M 9.421875 75.984375 
L 18.40625 75.984375 
L 18.40625 64.59375 
L 9.421875 64.59375 
z
" id="DejaVuSans-69"/>
      <path d="M 52 44.1875 
Q 55.375 50.25 60.0625 53.125 
Q 64.75 56 71.09375 56 
Q 79.640625 56 84.28125 50.015625 
Q 88.921875 44.046875 88.921875 33.015625 
L 88.921875 0 
L 79.890625 0 
L 79.890625 32.71875 
Q 79.890625 40.578125 77.09375 44.375 
Q 74.3125 48.1875 68.609375 48.1875 
Q 61.625 48.1875 57.5625 43.546875 
Q 53.515625 38.921875 53.515625 30.90625 
L 53.515625 0 
L 44.484375 0 
L 44.484375 32.71875 
Q 44.484375 40.625 41.703125 44.40625 
Q 38.921875 48.1875 33.109375 48.1875 
Q 26.21875 48.1875 22.15625 43.53125 
Q 18.109375 38.875 18.109375 30.90625 
L 18.109375 0 
L 9.078125 0 
L 9.078125 54.6875 
L 18.109375 54.6875 
L 18.109375 46.1875 
Q 21.1875 51.21875 25.484375 53.609375 
Q 29.78125 56 35.6875 56 
Q 41.65625 56 45.828125 52.96875 
Q 50 49.953125 52 44.1875 
z
" id="DejaVuSans-6d"/>
      <path d="M 54.890625 33.015625 
L 54.890625 0 
L 45.90625 0 
L 45.90625 32.71875 
Q 45.90625 40.484375 42.875 44.328125 
Q 39.84375 48.1875 33.796875 48.1875 
Q 26.515625 48.1875 22.3125 43.546875 
Q 18.109375 38.921875 18.109375 30.90625 
L 18.109375 0 
L 9.078125 0 
L 9.078125 54.6875 
L 18.109375 54.6875 
L 18.109375 46.1875 
Q 21.34375 51.125 25.703125 53.5625 
Q 30.078125 56 35.796875 56 
Q 45.21875 56 50.046875 50.171875 
Q 54.890625 44.34375 54.890625 33.015625 
z
" id="DejaVuSans-6e"/>
      <path d="M 8.015625 75.875 
L 15.828125 75.875 
Q 23.140625 64.359375 26.78125 53.3125 
Q 30.421875 42.28125 30.421875 31.390625 
Q 30.421875 20.453125 26.78125 9.375 
Q 23.140625 -1.703125 15.828125 -13.1875 
L 8.015625 -13.1875 
Q 14.5 -2 17.703125 9.0625 
Q 20.90625 20.125 20.90625 31.390625 
Q 20.90625 42.671875 17.703125 53.65625 
Q 14.5 64.65625 8.015625 75.875 
z
" id="DejaVuSans-29"/>
     </defs>
     <g transform="translate(73.803219 338.153594)scale(0.17 -0.17)">
      <use xlink:href="#DejaVuSans-6c"/>
      <use x="27.783203" xlink:href="#DejaVuSans-6f"/>
      <use x="88.964844" xlink:href="#DejaVuSans-67"/>
      <use x="152.441406" xlink:href="#DejaVuSans-31"/>
      <use x="216.064453" xlink:href="#DejaVuSans-30"/>
      <use x="279.6875" xlink:href="#DejaVuSans-28"/>
      <use x="318.701172" xlink:href="#DejaVuSans-23"/>
      <use x="402.490234" xlink:href="#DejaVuSans-20"/>
      <use x="434.277344" xlink:href="#DejaVuSans-66"/>
      <use x="469.404297" xlink:href="#DejaVuSans-2d"/>
      <use x="505.488281" xlink:href="#DejaVuSans-65"/>
      <use x="567.011719" xlink:href="#DejaVuSans-76"/>
      <use x="626.191406" xlink:href="#DejaVuSans-61"/>
      <use x="687.470703" xlink:href="#DejaVuSans-6c"/>
      <use x="715.253906" xlink:href="#DejaVuSans-73"/>
      <use x="767.353516" xlink:href="#DejaVuSans-20"/>
      <use x="799.140625" xlink:href="#DejaVuSans-2f"/>
      <use x="832.832031" xlink:href="#DejaVuSans-20"/>
      <use x="864.619141" xlink:href="#DejaVuSans-64"/>
      <use x="928.095703" xlink:href="#DejaVuSans-69"/>
      <use x="955.878906" xlink:href="#DejaVuSans-6d"/>
      <use x="1053.291016" xlink:href="#DejaVuSans-65"/>
      <use x="1114.814453" xlink:href="#DejaVuSans-6e"/>
      <use x="1178.193359" xlink:href="#DejaVuSans-73"/>
      <use x="1230.292969" xlink:href="#DejaVuSans-69"/>
      <use x="1258.076172" xlink:href="#DejaVuSans-6f"/>
      <use x="1319.257812" xlink:href="#DejaVuSans-6e"/>
      <use x="1382.636719" xlink:href="#DejaVuSans-29"/>
     </g>
    </g>
   </g>
   <g id="matplotlib.axis_2">
    <g id="ytick_1">
     <g id="line2d_25">
      <path clip-path="url(#p96fc846b46)" d="M 56.12 294.88 
L 333.168 294.88 
" style="fill:none;stroke:#b0b0b0;stroke-linecap:square;stroke-width:0.8;"/>
     </g>
     <g id="line2d_26">
      <defs>
       <path d="M 0 0 
L -3.5 0 
" id="m93a0422058" style="stroke:#000000;stroke-width:0.8;"/>
      </defs>
      <g>
       <use style="stroke:#000000;stroke-width:0.8;" x="56.12" xlink:href="#m93a0422058" y="294.88"/>
      </g>
     </g>
     <g id="text_6">
      <!-- 0.0 -->
      <defs>
       <path d="M 10.6875 12.40625 
L 21 12.40625 
L 21 0 
L 10.6875 0 
z
" id="DejaVuSans-2e"/>
      </defs>
      <g transform="translate(23.675 300.95875)scale(0.16 -0.16)">
       <use xlink:href="#DejaVuSans-30"/>
       <use x="63.623047" xlink:href="#DejaVuSans-2e"/>
       <use x="95.410156" xlink:href="#DejaVuSans-30"/>
      </g>
     </g>
    </g>
    <g id="ytick_2">
     <g id="line2d_27">
      <path clip-path="url(#p96fc846b46)" d="M 56.12 237.843411 
L 333.168 237.843411 
" style="fill:none;stroke:#b0b0b0;stroke-linecap:square;stroke-width:0.8;"/>
     </g>
     <g id="line2d_28">
      <g>
       <use style="stroke:#000000;stroke-width:0.8;" x="56.12" xlink:href="#m93a0422058" y="237.843411"/>
      </g>
     </g>
     <g id="text_7">
      <!-- 0.2 -->
      <g transform="translate(23.675 243.922161)scale(0.16 -0.16)">
       <use xlink:href="#DejaVuSans-30"/>
       <use x="63.623047" xlink:href="#DejaVuSans-2e"/>
       <use x="95.410156" xlink:href="#DejaVuSans-32"/>
      </g>
     </g>
    </g>
    <g id="ytick_3">
     <g id="line2d_29">
      <path clip-path="url(#p96fc846b46)" d="M 56.12 180.806823 
L 333.168 180.806823 
" style="fill:none;stroke:#b0b0b0;stroke-linecap:square;stroke-width:0.8;"/>
     </g>
     <g id="line2d_30">
      <g>
       <use style="stroke:#000000;stroke-width:0.8;" x="56.12" xlink:href="#m93a0422058" y="180.806823"/>
      </g>
     </g>
     <g id="text_8">
      <!-- 0.4 -->
      <g transform="translate(23.675 186.885573)scale(0.16 -0.16)">
       <use xlink:href="#DejaVuSans-30"/>
       <use x="63.623047" xlink:href="#DejaVuSans-2e"/>
       <use x="95.410156" xlink:href="#DejaVuSans-34"/>
      </g>
     </g>
    </g>
    <g id="ytick_4">
     <g id="line2d_31">
      <path clip-path="url(#p96fc846b46)" d="M 56.12 123.770234 
L 333.168 123.770234 
" style="fill:none;stroke:#b0b0b0;stroke-linecap:square;stroke-width:0.8;"/>
     </g>
     <g id="line2d_32">
      <g>
       <use style="stroke:#000000;stroke-width:0.8;" x="56.12" xlink:href="#m93a0422058" y="123.770234"/>
      </g>
     </g>
     <g id="text_9">
      <!-- 0.6 -->
      <g transform="translate(23.675 129.848984)scale(0.16 -0.16)">
       <use xlink:href="#DejaVuSans-30"/>
       <use x="63.623047" xlink:href="#DejaVuSans-2e"/>
       <use x="95.410156" xlink:href="#DejaVuSans-36"/>
      </g>
     </g>
    </g>
    <g id="ytick_5">
     <g id="line2d_33">
      <path clip-path="url(#p96fc846b46)" d="M 56.12 66.733646 
L 333.168 66.733646 
" style="fill:none;stroke:#b0b0b0;stroke-linecap:square;stroke-width:0.8;"/>
     </g>
     <g id="line2d_34">
      <g>
       <use style="stroke:#000000;stroke-width:0.8;" x="56.12" xlink:href="#m93a0422058" y="66.733646"/>
      </g>
     </g>
     <g id="text_10">
      <!-- 0.8 -->
      <defs>
       <path d="M 31.78125 34.625 
Q 24.75 34.625 20.71875 30.859375 
Q 16.703125 27.09375 16.703125 20.515625 
Q 16.703125 13.921875 20.71875 10.15625 
Q 24.75 6.390625 31.78125 6.390625 
Q 38.8125 6.390625 42.859375 10.171875 
Q 46.921875 13.96875 46.921875 20.515625 
Q 46.921875 27.09375 42.890625 30.859375 
Q 38.875 34.625 31.78125 34.625 
z
M 21.921875 38.8125 
Q 15.578125 40.375 12.03125 44.71875 
Q 8.5 49.078125 8.5 55.328125 
Q 8.5 64.0625 14.71875 69.140625 
Q 20.953125 74.21875 31.78125 74.21875 
Q 42.671875 74.21875 48.875 69.140625 
Q 55.078125 64.0625 55.078125 55.328125 
Q 55.078125 49.078125 51.53125 44.71875 
Q 48 40.375 41.703125 38.8125 
Q 48.828125 37.15625 52.796875 32.3125 
Q 56.78125 27.484375 56.78125 20.515625 
Q 56.78125 9.90625 50.3125 4.234375 
Q 43.84375 -1.421875 31.78125 -1.421875 
Q 19.734375 -1.421875 13.25 4.234375 
Q 6.78125 9.90625 6.78125 20.515625 
Q 6.78125 27.484375 10.78125 32.3125 
Q 14.796875 37.15625 21.921875 38.8125 
z
M 18.3125 54.390625 
Q 18.3125 48.734375 21.84375 45.5625 
Q 25.390625 42.390625 31.78125 42.390625 
Q 38.140625 42.390625 41.71875 45.5625 
Q 45.3125 48.734375 45.3125 54.390625 
Q 45.3125 60.0625 41.71875 63.234375 
Q 38.140625 66.40625 31.78125 66.40625 
Q 25.390625 66.40625 21.84375 63.234375 
Q 18.3125 60.0625 18.3125 54.390625 
z
" id="DejaVuSans-38"/>
      </defs>
      <g transform="translate(23.675 72.812396)scale(0.16 -0.16)">
       <use xlink:href="#DejaVuSans-30"/>
       <use x="63.623047" xlink:href="#DejaVuSans-2e"/>
       <use x="95.410156" xlink:href="#DejaVuSans-38"/>
      </g>
     </g>
    </g>
    <g id="ytick_6">
     <g id="line2d_35">
      <path clip-path="url(#p96fc846b46)" d="M 56.12 9.697057 
L 333.168 9.697057 
" style="fill:none;stroke:#b0b0b0;stroke-linecap:square;stroke-width:0.8;"/>
     </g>
     <g id="line2d_36">
      <g>
       <use style="stroke:#000000;stroke-width:0.8;" x="56.12" xlink:href="#m93a0422058" y="9.697057"/>
      </g>
     </g>
     <g id="text_11">
      <!-- 1.0 -->
      <g transform="translate(23.675 15.775807)scale(0.16 -0.16)">
       <use xlink:href="#DejaVuSans-31"/>
       <use x="63.623047" xlink:href="#DejaVuSans-2e"/>
       <use x="95.410156" xlink:href="#DejaVuSans-30"/>
      </g>
     </g>
    </g>
    <g id="text_12">
     <!-- Fraction of function,target pairs -->
     <defs>
      <path d="M 9.8125 72.90625 
L 51.703125 72.90625 
L 51.703125 64.59375 
L 19.671875 64.59375 
L 19.671875 43.109375 
L 48.578125 43.109375 
L 48.578125 34.8125 
L 19.671875 34.8125 
L 19.671875 0 
L 9.8125 0 
z
" id="DejaVuSans-46"/>
      <path d="M 41.109375 46.296875 
Q 39.59375 47.171875 37.8125 47.578125 
Q 36.03125 48 33.890625 48 
Q 26.265625 48 22.1875 43.046875 
Q 18.109375 38.09375 18.109375 28.8125 
L 18.109375 0 
L 9.078125 0 
L 9.078125 54.6875 
L 18.109375 54.6875 
L 18.109375 46.1875 
Q 20.953125 51.171875 25.484375 53.578125 
Q 30.03125 56 36.53125 56 
Q 37.453125 56 38.578125 55.875 
Q 39.703125 55.765625 41.0625 55.515625 
z
" id="DejaVuSans-72"/>
      <path d="M 48.78125 52.59375 
L 48.78125 44.1875 
Q 44.96875 46.296875 41.140625 47.34375 
Q 37.3125 48.390625 33.40625 48.390625 
Q 24.65625 48.390625 19.8125 42.84375 
Q 14.984375 37.3125 14.984375 27.296875 
Q 14.984375 17.28125 19.8125 11.734375 
Q 24.65625 6.203125 33.40625 6.203125 
Q 37.3125 6.203125 41.140625 7.25 
Q 44.96875 8.296875 48.78125 10.40625 
L 48.78125 2.09375 
Q 45.015625 0.34375 40.984375 -0.53125 
Q 36.96875 -1.421875 32.421875 -1.421875 
Q 20.0625 -1.421875 12.78125 6.34375 
Q 5.515625 14.109375 5.515625 27.296875 
Q 5.515625 40.671875 12.859375 48.328125 
Q 20.21875 56 33.015625 56 
Q 37.15625 56 41.109375 55.140625 
Q 45.0625 54.296875 48.78125 52.59375 
z
" id="DejaVuSans-63"/>
      <path d="M 18.3125 70.21875 
L 18.3125 54.6875 
L 36.8125 54.6875 
L 36.8125 47.703125 
L 18.3125 47.703125 
L 18.3125 18.015625 
Q 18.3125 11.328125 20.140625 9.421875 
Q 21.96875 7.515625 27.59375 7.515625 
L 36.8125 7.515625 
L 36.8125 0 
L 27.59375 0 
Q 17.1875 0 13.234375 3.875 
Q 9.28125 7.765625 9.28125 18.015625 
L 9.28125 47.703125 
L 2.6875 47.703125 
L 2.6875 54.6875 
L 9.28125 54.6875 
L 9.28125 70.21875 
z
" id="DejaVuSans-74"/>
      <path d="M 8.5 21.578125 
L 8.5 54.6875 
L 17.484375 54.6875 
L 17.484375 21.921875 
Q 17.484375 14.15625 20.5 10.265625 
Q 23.53125 6.390625 29.59375 6.390625 
Q 36.859375 6.390625 41.078125 11.03125 
Q 45.3125 15.671875 45.3125 23.6875 
L 45.3125 54.6875 
L 54.296875 54.6875 
L 54.296875 0 
L 45.3125 0 
L 45.3125 8.40625 
Q 42.046875 3.421875 37.71875 1 
Q 33.40625 -1.421875 27.6875 -1.421875 
Q 18.265625 -1.421875 13.375 4.4375 
Q 8.5 10.296875 8.5 21.578125 
z
M 31.109375 56 
z
" id="DejaVuSans-75"/>
      <path d="M 11.71875 12.40625 
L 22.015625 12.40625 
L 22.015625 4 
L 14.015625 -11.625 
L 7.71875 -11.625 
L 11.71875 4 
z
" id="DejaVuSans-2c"/>
      <path d="M 18.109375 8.203125 
L 18.109375 -20.796875 
L 9.078125 -20.796875 
L 9.078125 54.6875 
L 18.109375 54.6875 
L 18.109375 46.390625 
Q 20.953125 51.265625 25.265625 53.625 
Q 29.59375 56 35.59375 56 
Q 45.5625 56 51.78125 48.09375 
Q 58.015625 40.1875 58.015625 27.296875 
Q 58.015625 14.40625 51.78125 6.484375 
Q 45.5625 -1.421875 35.59375 -1.421875 
Q 29.59375 -1.421875 25.265625 0.953125 
Q 20.953125 3.328125 18.109375 8.203125 
z
M 48.6875 27.296875 
Q 48.6875 37.203125 44.609375 42.84375 
Q 40.53125 48.484375 33.40625 48.484375 
Q 26.265625 48.484375 22.1875 42.84375 
Q 18.109375 37.203125 18.109375 27.296875 
Q 18.109375 17.390625 22.1875 11.75 
Q 26.265625 6.109375 33.40625 6.109375 
Q 40.53125 6.109375 44.609375 11.75 
Q 48.6875 17.390625 48.6875 27.296875 
z
" id="DejaVuSans-70"/>
     </defs>
     <g transform="translate(16.139531 286.001989)rotate(-90)scale(0.17 -0.17)">
      <use xlink:href="#DejaVuSans-46"/>
      <use x="57.410156" xlink:href="#DejaVuSans-72"/>
      <use x="98.523438" xlink:href="#DejaVuSans-61"/>
      <use x="159.802734" xlink:href="#DejaVuSans-63"/>
      <use x="214.783203" xlink:href="#DejaVuSans-74"/>
      <use x="253.992188" xlink:href="#DejaVuSans-69"/>
      <use x="281.775391" xlink:href="#DejaVuSans-6f"/>
      <use x="342.957031" xlink:href="#DejaVuSans-6e"/>
      <use x="406.335938" xlink:href="#DejaVuSans-20"/>
      <use x="438.123047" xlink:href="#DejaVuSans-6f"/>
      <use x="499.304688" xlink:href="#DejaVuSans-66"/>
      <use x="534.509766" xlink:href="#DejaVuSans-20"/>
      <use x="566.296875" xlink:href="#DejaVuSans-66"/>
      <use x="601.501953" xlink:href="#DejaVuSans-75"/>
      <use x="664.880859" xlink:href="#DejaVuSans-6e"/>
      <use x="728.259766" xlink:href="#DejaVuSans-63"/>
      <use x="783.240234" xlink:href="#DejaVuSans-74"/>
      <use x="822.449219" xlink:href="#DejaVuSans-69"/>
      <use x="850.232422" xlink:href="#DejaVuSans-6f"/>
      <use x="911.414062" xlink:href="#DejaVuSans-6e"/>
      <use x="974.792969" xlink:href="#DejaVuSans-2c"/>
      <use x="1006.580078" xlink:href="#DejaVuSans-74"/>
      <use x="1045.789062" xlink:href="#DejaVuSans-61"/>
      <use x="1107.068359" xlink:href="#DejaVuSans-72"/>
      <use x="1148.166016" xlink:href="#DejaVuSans-67"/>
      <use x="1211.642578" xlink:href="#DejaVuSans-65"/>
      <use x="1273.166016" xlink:href="#DejaVuSans-74"/>
      <use x="1312.375" xlink:href="#DejaVuSans-20"/>
      <use x="1344.162109" xlink:href="#DejaVuSans-70"/>
      <use x="1407.638672" xlink:href="#DejaVuSans-61"/>
      <use x="1468.917969" xlink:href="#DejaVuSans-69"/>
      <use x="1496.701172" xlink:href="#DejaVuSans-72"/>
      <use x="1537.814453" xlink:href="#DejaVuSans-73"/>
     </g>
    </g>
   </g>
   <g id="line2d_37">
    <defs>
     <path d="M 0 1.5 
C 0.397805 1.5 0.77937 1.341951 1.06066 1.06066 
C 1.341951 0.77937 1.5 0.397805 1.5 0 
C 1.5 -0.397805 1.341951 -0.77937 1.06066 -1.06066 
C 0.77937 -1.341951 0.397805 -1.5 0 -1.5 
C -0.397805 -1.5 -0.77937 -1.341951 -1.06066 -1.06066 
C -1.341951 -0.77937 -1.5 -0.397805 -1.5 0 
C -1.5 0.397805 -1.341951 0.77937 -1.06066 1.06066 
C -0.77937 1.341951 -0.397805 1.5 0 1.5 
z
" id="mc4cb25d01c" style="stroke:#000080;"/>
    </defs>
    <g>
     <use style="fill:#000080;stroke:#000080;" x="256.82858" xlink:href="#mc4cb25d01c" y="194.227197"/>
     <use style="fill:#000080;stroke:#000080;" x="256.82858" xlink:href="#mc4cb25d01c" y="194.227197"/>
    </g>
   </g>
   <g id="line2d_38">
    <path d="M 152.053843 294.88 
L 152.053843 293.761636 
L 154.911319 293.761636 
L 154.911319 293.202453 
L 157.313159 293.202453 
L 157.313159 292.643271 
L 157.634451 292.643271 
L 157.634451 292.084089 
L 157.746429 292.084089 
L 157.746429 290.406542 
L 158.349601 290.406542 
L 158.376521 288.169813 
L 158.483783 288.169813 
L 158.554921 286.492266 
L 158.79286 286.492266 
L 158.79286 285.373902 
L 159.070662 285.373902 
L 159.147992 281.459626 
L 159.512728 281.459626 
L 159.579741 278.663715 
L 159.902736 278.663715 
L 159.984587 276.986168 
L 160.090413 276.986168 
L 160.106637 272.51271 
L 160.531069 272.51271 
L 160.61786 270.275981 
L 160.649313 270.275981 
L 160.649313 268.598435 
L 160.821278 268.598435 
L 160.922092 266.920888 
L 161.091363 266.920888 
L 161.152506 265.243341 
L 161.574519 265.243341 
L 161.574519 264.684159 
L 161.73014 264.684159 
L 161.766986 263.565795 
L 161.906285 263.565795 
L 161.906285 261.888248 
L 162.203085 261.888248 
L 162.203085 260.769883 
L 162.346026 260.769883 
L 162.346026 260.210701 
L 162.740052 260.210701 
L 162.760908 259.092337 
L 163.057093 259.092337 
L 163.111639 254.618879 
L 163.375097 254.618879 
L 163.468695 253.500514 
L 163.739909 253.500514 
L 163.811951 252.38215 
L 163.935681 252.38215 
L 163.935681 251.263785 
L 164.547577 251.263785 
L 164.547577 250.704603 
L 164.709617 250.704603 
L 164.709617 249.586238 
L 164.962079 249.586238 
L 164.962079 247.908692 
L 165.539094 247.908692 
L 165.539094 247.34951 
L 166.143081 247.34951 
L 166.143081 246.231145 
L 172.190315 246.231145 
L 172.190315 244.553598 
L 190.216644 244.553598 
L 190.291026 242.876052 
L 190.402696 242.876052 
L 190.490127 241.757687 
L 190.54541 241.757687 
L 190.599139 240.08014 
L 190.707464 240.08014 
L 190.707464 239.520958 
L 190.904529 239.520958 
L 190.904529 238.961776 
L 191.02035 238.961776 
L 191.10871 236.725047 
L 191.213881 236.725047 
L 191.213881 236.165865 
L 191.409193 236.165865 
L 191.436727 232.810771 
L 191.6075 232.810771 
L 191.6075 231.692407 
L 191.95167 231.692407 
L 191.991039 230.574042 
L 200.866815 230.574042 
L 200.973961 228.896496 
L 201.182556 228.896496 
L 201.250048 226.659767 
L 201.374692 226.659767 
L 201.374692 226.100584 
L 201.844411 226.100584 
L 201.844411 225.541402 
L 207.132975 225.541402 
L 207.196988 223.304673 
L 207.25398 223.304673 
L 207.350797 222.186309 
L 207.454296 222.186309 
L 207.544863 221.067944 
L 207.662503 221.067944 
L 207.662503 220.508762 
L 207.874261 220.508762 
L 207.874261 219.94958 
L 211.805091 219.94958 
L 211.896177 217.712851 
L 211.981631 217.712851 
L 212.075733 215.476122 
L 212.166185 215.476122 
L 212.166185 214.91694 
L 212.329364 214.91694 
L 212.329364 213.798575 
L 215.483284 213.798575 
L 215.483284 213.239393 
L 215.657998 213.239393 
L 215.741349 212.121028 
L 215.8642 212.121028 
L 215.8642 210.443482 
L 218.401271 210.443482 
L 218.40591 209.325117 
L 218.519305 209.325117 
L 218.571266 207.64757 
L 218.682774 207.64757 
L 218.682774 207.088388 
L 218.794631 207.088388 
L 218.794631 206.529206 
L 221.10455 206.529206 
L 221.10455 205.970024 
L 221.297477 205.970024 
L 221.297477 205.410841 
L 225.349179 205.410841 
L 225.349179 204.851659 
L 225.500256 204.851659 
L 225.500256 204.292477 
L 227.02518 204.292477 
L 227.02518 203.733295 
L 228.616921 203.733295 
L 228.616921 203.174112 
L 230.075887 203.174112 
L 230.075887 202.055748 
L 231.419622 202.055748 
L 231.419622 201.496566 
L 232.714136 201.496566 
L 232.714136 200.937384 
L 234.958577 200.937384 
L 234.958577 200.378201 
L 237.856147 200.378201 
L 237.856147 199.819019 
L 239.547776 199.819019 
L 239.547776 199.259837 
L 241.838093 199.259837 
L 241.838093 198.700655 
L 243.151458 198.700655 
L 243.151458 198.141472 
L 245.596562 198.141472 
L 245.596562 197.58229 
L 249.609141 197.58229 
L 249.609141 197.023108 
L 253.235648 197.023108 
L 253.235648 196.463926 
L 253.595138 196.463926 
L 253.595138 195.904743 
L 254.630587 195.904743 
L 254.630587 195.345561 
L 254.969803 195.345561 
L 254.969803 194.786379 
L 256.82858 194.786379 
L 256.82858 194.227197 
L 333.168 194.227197 
L 333.168 194.227197 
" style="fill:none;stroke:#000080;stroke-linecap:square;stroke-width:1.5;"/>
   </g>
   <g id="line2d_39">
    <defs>
     <path d="M 0 6 
C 1.591219 6 3.117479 5.367802 4.242641 4.242641 
C 5.367802 3.117479 6 1.591219 6 0 
C 6 -1.591219 5.367802 -3.117479 4.242641 -4.242641 
C 3.117479 -5.367802 1.591219 -6 0 -6 
C -1.591219 -6 -3.117479 -5.367802 -4.242641 -4.242641 
C -5.367802 -3.117479 -6 -1.591219 -6 0 
C -6 1.591219 -5.367802 3.117479 -4.242641 4.242641 
C -3.117479 5.367802 -1.591219 6 0 6 
z
" id="mc362909f27" style="stroke:#000080;stroke-width:1.5;"/>
    </defs>
    <g>
     <use style="fill-opacity:0;stroke:#000080;stroke-width:1.5;" x="207.25398" xlink:href="#mc362909f27" y="223.304673"/>
     <use style="fill-opacity:0;stroke:#000080;stroke-width:1.5;" x="256.82858" xlink:href="#mc362909f27" y="194.227197"/>
     <use style="fill-opacity:0;stroke:#000080;stroke-width:1.5;" x="256.82858" xlink:href="#mc362909f27" y="194.227197"/>
     <use style="fill-opacity:0;stroke:#000080;stroke-width:1.5;" x="333.168" xlink:href="#mc362909f27" y="194.227197"/>
    </g>
   </g>
   <g id="line2d_40">
    <path style="fill:none;stroke:#000080;stroke-linecap:square;stroke-width:1.5;"/>
    <g/>
   </g>
   <g id="line2d_41">
    <path clip-path="url(#p96fc846b46)" d="M 186.941843 244.553598 
" style="fill:none;stroke:#000080;stroke-linecap:square;stroke-width:1.5;"/>
    <defs>
     <path d="M -12 12 
L 12 -12 
M -12 -12 
L 12 12 
" id="m47dfd0d5e2" style="stroke:#000080;"/>
    </defs>
    <g clip-path="url(#p96fc846b46)">
     <use style="fill:#000080;stroke:#000080;" x="186.941843" xlink:href="#m47dfd0d5e2" y="244.553598"/>
    </g>
   </g>
   <g id="line2d_42">
    <defs>
     <path d="M 0 1.5 
C 0.397805 1.5 0.77937 1.341951 1.06066 1.06066 
C 1.341951 0.77937 1.5 0.397805 1.5 0 
C 1.5 -0.397805 1.341951 -0.77937 1.06066 -1.06066 
C 0.77937 -1.341951 0.397805 -1.5 0 -1.5 
C -0.397805 -1.5 -0.77937 -1.341951 -1.06066 -1.06066 
C -1.341951 -0.77937 -1.5 -0.397805 -1.5 0 
C -1.5 0.397805 -1.341951 0.77937 -1.06066 1.06066 
C -0.77937 1.341951 -0.397805 1.5 0 1.5 
z
" id="m1be7b545e2" style="stroke:#ff00ff;"/>
    </defs>
    <g>
     <use style="fill:#ff00ff;stroke:#ff00ff;" x="260.890721" xlink:href="#m1be7b545e2" y="20.880702"/>
     <use style="fill:#ff00ff;stroke:#ff00ff;" x="260.890721" xlink:href="#m1be7b545e2" y="20.880702"/>
    </g>
   </g>
   <g id="line2d_43">
    <path d="M 132.483094 294.88 
L 132.483094 293.761636 
L 133.040181 293.761636 
L 133.040181 293.202453 
L 133.992176 293.202453 
L 134.029181 292.084089 
L 134.139719 292.084089 
L 134.139719 291.524907 
L 136.503668 291.524907 
L 136.503668 290.406542 
L 138.7227 290.406542 
L 138.7227 289.84736 
L 141.328075 289.84736 
L 141.352234 287.610631 
L 143.462385 287.610631 
L 143.462385 286.492266 
L 143.69567 286.492266 
L 143.69567 285.933084 
L 144.993542 285.933084 
L 144.993542 285.373902 
L 145.49403 285.373902 
L 145.49403 284.81472 
L 145.887895 284.81472 
L 145.924939 282.577991 
L 146.272936 282.577991 
L 146.272936 282.018808 
L 146.861096 282.018808 
L 146.861096 280.900444 
L 147.208003 280.900444 
L 147.208003 280.341262 
L 148.922576 280.341262 
L 148.93811 279.222897 
L 149.427935 279.222897 
L 149.427935 278.663715 
L 150.396151 278.663715 
L 150.396151 278.104533 
L 150.818844 278.104533 
L 150.846657 276.986168 
L 150.943651 276.986168 
L 151.012598 275.867804 
L 151.163317 275.867804 
L 151.163317 274.749439 
L 152.027918 274.749439 
L 152.027918 274.190257 
L 152.526544 274.190257 
L 152.526544 273.631075 
L 153.02336 273.631075 
L 153.02336 273.071893 
L 153.470471 273.071893 
L 153.470471 272.51271 
L 153.742655 272.51271 
L 153.742655 271.953528 
L 154.033698 271.953528 
L 154.09132 270.835164 
L 154.251642 270.835164 
L 154.274423 269.716799 
L 154.834363 269.716799 
L 154.911319 268.039252 
L 156.681688 268.039252 
L 156.790197 266.920888 
L 158.331631 266.920888 
L 158.331631 265.802523 
L 158.687516 265.802523 
L 158.687516 265.243341 
L 159.31011 265.243341 
L 159.411718 263.006612 
L 159.704689 263.006612 
L 159.704689 262.44743 
L 159.861664 262.44743 
L 159.861664 261.888248 
L 160.049788 261.888248 
L 160.049788 259.651519 
L 160.945273 259.651519 
L 160.945273 258.533154 
L 161.803753 258.533154 
L 161.803753 257.41479 
L 163.64118 257.41479 
L 163.713637 253.500514 
L 163.772693 253.500514 
L 163.772693 252.38215 
L 166.454119 252.38215 
L 166.454119 251.822967 
L 166.704484 251.822967 
L 166.704484 250.704603 
L 167.24813 250.704603 
L 167.24813 250.145421 
L 167.539964 250.145421 
L 167.539964 249.586238 
L 167.801036 249.586238 
L 167.801036 247.908692 
L 168.001954 247.908692 
L 168.001954 246.790327 
L 168.753544 246.790327 
L 168.802501 244.553598 
L 168.890273 244.553598 
L 168.890273 243.994416 
L 169.642068 243.994416 
L 169.642068 243.435234 
L 170.151228 243.435234 
L 170.151228 241.757687 
L 171.870234 241.757687 
L 171.870234 241.198505 
L 172.000606 241.198505 
L 172.000606 240.08014 
L 172.863384 240.08014 
L 172.863384 238.961776 
L 173.529664 238.961776 
L 173.592674 237.843411 
L 173.965957 237.843411 
L 173.965957 237.284229 
L 174.39851 237.284229 
L 174.39851 236.165865 
L 174.525131 236.165865 
L 174.525131 235.606682 
L 175.073475 235.606682 
L 175.073475 235.0475 
L 176.446167 235.0475 
L 176.446167 234.488318 
L 177.388203 234.488318 
L 177.388203 233.929136 
L 179.114151 233.929136 
L 179.114151 233.369954 
L 179.730826 233.369954 
L 179.730826 232.810771 
L 180.648174 232.810771 
L 180.699633 231.133225 
L 181.366724 231.133225 
L 181.366724 230.574042 
L 182.058698 230.574042 
L 182.058698 229.455678 
L 182.758654 229.455678 
L 182.758654 228.896496 
L 182.974351 228.896496 
L 182.974351 228.337313 
L 183.57257 228.337313 
L 183.57257 227.218949 
L 185.58076 227.218949 
L 185.58076 226.659767 
L 185.983075 226.659767 
L 185.983075 226.100584 
L 186.625847 226.100584 
L 186.625847 225.541402 
L 186.933332 225.541402 
L 186.933332 223.304673 
L 188.396418 223.304673 
L 188.396418 222.745491 
L 188.938176 222.745491 
L 188.938176 222.186309 
L 189.305421 222.186309 
L 189.305421 221.627126 
L 189.420712 221.627126 
L 189.475132 220.508762 
L 189.800965 220.508762 
L 189.800965 219.94958 
L 190.26019 219.94958 
L 190.365088 218.831215 
L 190.753876 218.831215 
L 190.838187 217.712851 
L 190.868005 217.712851 
L 190.911284 216.035304 
L 191.176679 216.035304 
L 191.176679 215.476122 
L 191.372412 215.476122 
L 191.372412 214.357757 
L 191.558138 214.357757 
L 191.558138 213.798575 
L 191.687737 213.798575 
L 191.687737 213.239393 
L 191.822772 213.239393 
L 191.822772 212.680211 
L 192.03285 212.680211 
L 192.03285 212.121028 
L 192.189054 212.121028 
L 192.296562 211.002664 
L 192.313999 211.002664 
L 192.313999 210.443482 
L 192.504656 210.443482 
L 192.596748 208.765935 
L 192.999781 208.765935 
L 192.999781 208.206753 
L 193.319766 208.206753 
L 193.398256 207.088388 
L 193.446111 207.088388 
L 193.446111 206.529206 
L 193.842461 206.529206 
L 193.842461 205.970024 
L 195.625992 205.970024 
L 195.625992 204.851659 
L 195.99572 204.851659 
L 195.99572 204.292477 
L 196.436199 204.292477 
L 196.436199 202.61493 
L 196.587349 202.61493 
L 196.587349 202.055748 
L 196.891444 202.055748 
L 196.986567 200.378201 
L 197.25388 200.378201 
L 197.25388 199.259837 
L 197.39248 199.259837 
L 197.39248 198.700655 
L 197.542834 198.700655 
L 197.542834 198.141472 
L 197.897326 198.141472 
L 197.967355 197.023108 
L 198.054939 197.023108 
L 198.097674 194.786379 
L 198.189021 194.786379 
L 198.189021 194.227197 
L 198.383394 194.227197 
L 198.383394 193.108832 
L 198.520155 193.108832 
L 198.520155 191.990468 
L 198.698822 191.990468 
L 198.698822 190.872103 
L 198.851839 190.872103 
L 198.851839 190.312921 
L 200.040399 190.312921 
L 200.040399 189.753739 
L 200.655096 189.753739 
L 200.739944 188.635374 
L 200.931032 188.635374 
L 200.948367 187.51701 
L 201.096882 187.51701 
L 201.096882 186.957828 
L 201.432649 186.957828 
L 201.432649 186.398645 
L 201.606807 186.398645 
L 201.68493 183.602734 
L 201.741133 183.602734 
L 201.751201 182.48437 
L 201.861564 182.48437 
L 201.915057 181.366005 
L 202.116825 181.366005 
L 202.127379 179.129276 
L 202.700813 179.129276 
L 202.700813 178.570094 
L 202.937957 178.570094 
L 202.984862 176.892547 
L 203.151342 176.892547 
L 203.151342 175.774183 
L 203.740866 175.774183 
L 203.740866 175.215 
L 204.47913 175.215 
L 204.47913 174.655818 
L 204.961219 174.655818 
L 205.015412 173.537454 
L 205.133332 173.537454 
L 205.238126 171.859907 
L 205.323607 171.859907 
L 205.323607 170.741543 
L 205.5118 170.741543 
L 205.5118 170.18236 
L 205.822648 170.18236 
L 205.822648 169.623178 
L 206.571413 169.623178 
L 206.571413 169.063996 
L 207.224723 169.063996 
L 207.308702 167.945631 
L 207.35443 167.945631 
L 207.35443 167.386449 
L 207.585361 167.386449 
L 207.695095 166.268085 
L 207.762121 166.268085 
L 207.762121 165.708902 
L 207.88634 165.708902 
L 207.88634 164.590538 
L 208.090403 164.590538 
L 208.090403 164.031356 
L 208.685086 164.031356 
L 208.685086 163.472173 
L 209.231058 163.472173 
L 209.231058 162.353809 
L 209.409262 162.353809 
L 209.409262 161.794627 
L 209.5368 161.794627 
L 209.5368 161.235444 
L 209.72002 161.235444 
L 209.72002 160.676262 
L 209.9879 160.676262 
L 209.9879 160.11708 
L 210.126254 160.11708 
L 210.126254 159.557898 
L 210.374435 159.557898 
L 210.395318 158.439533 
L 210.603196 158.439533 
L 210.691889 157.321169 
L 210.768218 157.321169 
L 210.768218 156.761987 
L 211.400195 156.761987 
L 211.400195 156.202804 
L 211.581327 156.202804 
L 211.661895 155.08444 
L 211.848297 155.08444 
L 211.848297 153.966075 
L 212.027956 153.966075 
L 212.027956 153.406893 
L 212.19127 153.406893 
L 212.239768 152.288529 
L 212.367785 152.288529 
L 212.367785 151.170164 
L 212.496395 151.170164 
L 212.567431 150.0518 
L 212.625577 150.0518 
L 212.63474 148.933435 
L 212.771981 148.933435 
L 212.844152 147.815071 
L 212.93216 147.815071 
L 212.93216 146.696706 
L 213.733975 146.696706 
L 213.770814 145.578342 
L 214.035298 145.578342 
L 214.035298 145.019159 
L 214.193939 145.019159 
L 214.289882 143.341613 
L 214.306513 143.341613 
L 214.342146 142.223248 
L 214.543141 142.223248 
L 214.543141 141.664066 
L 215.347243 141.664066 
L 215.347243 141.104884 
L 215.511074 141.104884 
L 215.619219 139.427337 
L 215.633651 139.427337 
L 215.633651 138.868155 
L 215.791294 138.868155 
L 215.871789 137.74979 
L 215.989946 137.74979 
L 216.084828 136.631426 
L 216.199053 136.631426 
L 216.199053 136.072244 
L 216.378038 136.072244 
L 216.378038 135.513061 
L 216.729009 135.513061 
L 216.729009 134.953879 
L 216.844425 134.953879 
L 216.927285 133.835515 
L 216.970345 133.835515 
L 216.970345 133.276332 
L 217.109477 133.276332 
L 217.109477 132.157968 
L 217.313034 132.157968 
L 217.339471 131.039603 
L 217.448565 131.039603 
L 217.490628 129.362057 
L 217.628483 129.362057 
L 217.738317 128.243692 
L 218.465828 128.243692 
L 218.521203 127.125328 
L 218.588281 127.125328 
L 218.588281 126.566145 
L 218.699948 126.566145 
L 218.713889 125.447781 
L 218.821017 125.447781 
L 218.909474 123.770234 
L 219.099714 123.770234 
L 219.210721 122.65187 
L 219.309111 122.65187 
L 219.309111 122.092688 
L 219.624856 122.092688 
L 219.624856 121.533505 
L 219.771133 121.533505 
L 219.875646 118.178412 
L 219.98376 118.178412 
L 220.024283 117.060047 
L 220.140103 117.060047 
L 220.201409 115.382501 
L 220.255638 115.382501 
L 220.328005 114.264136 
L 221.003046 114.264136 
L 221.003046 113.704954 
L 221.152985 113.704954 
L 221.24621 112.586589 
L 221.30301 112.586589 
L 221.397949 111.468225 
L 221.743138 111.468225 
L 221.743138 110.909043 
L 222.144862 110.909043 
L 222.214083 108.672314 
L 222.33021 108.672314 
L 222.428294 106.994767 
L 222.567634 106.994767 
L 222.601225 105.876403 
L 223.486648 105.876403 
L 223.570288 104.198856 
L 223.64206 104.198856 
L 223.64206 103.639674 
L 224.271954 103.639674 
L 224.365761 101.962127 
L 224.394478 101.962127 
L 224.50064 98.607033 
L 224.563108 98.607033 
L 224.563108 98.047851 
L 224.6743 98.047851 
L 224.70818 96.929487 
L 225.35519 96.929487 
L 225.437484 94.133576 
L 225.491767 94.133576 
L 225.497728 93.015211 
L 225.627626 93.015211 
L 225.627626 92.456029 
L 226.062639 92.456029 
L 226.089705 91.337664 
L 226.332605 91.337664 
L 226.426623 87.982571 
L 226.453464 87.982571 
L 226.453464 87.423389 
L 227.102668 87.423389 
L 227.164736 86.305024 
L 227.614455 86.305024 
L 227.614455 85.745842 
L 227.817471 85.745842 
L 227.817471 85.18666 
L 228.039004 85.18666 
L 228.129892 84.068295 
L 228.756585 84.068295 
L 228.756585 83.509113 
L 229.252561 83.509113 
L 229.296053 81.831566 
L 229.418542 81.831566 
L 229.418542 81.272384 
L 229.618214 81.272384 
L 229.618214 80.713202 
L 230.103676 80.713202 
L 230.203128 78.476473 
L 230.335842 78.476473 
L 230.335842 77.917291 
L 230.659599 77.917291 
L 230.728342 76.239744 
L 230.812593 76.239744 
L 230.908961 71.766286 
L 230.928854 71.766286 
L 230.996793 70.647921 
L 231.368746 70.647921 
L 231.368746 70.088739 
L 231.694957 70.088739 
L 231.694957 69.529557 
L 232.197307 69.529557 
L 232.272968 67.85201 
L 232.572085 67.85201 
L 232.572085 67.292828 
L 232.810825 67.292828 
L 232.810825 66.733646 
L 233.240182 66.733646 
L 233.240182 66.174463 
L 233.384831 66.174463 
L 233.384831 65.615281 
L 234.100766 65.615281 
L 234.134563 64.496917 
L 234.375978 64.496917 
L 234.449838 62.260188 
L 234.572025 62.260188 
L 234.579267 61.141823 
L 235.004551 61.141823 
L 235.004551 60.582641 
L 235.141223 60.582641 
L 235.204278 59.464277 
L 235.410844 59.464277 
L 235.500694 58.345912 
L 235.530842 58.345912 
L 235.615658 56.668365 
L 236.098123 56.668365 
L 236.125004 55.550001 
L 236.482316 55.550001 
L 236.586373 53.872454 
L 236.868831 53.872454 
L 236.868831 53.313272 
L 237.356175 53.313272 
L 237.461301 50.517361 
L 237.530134 50.517361 
L 237.530134 49.958178 
L 238.207157 49.958178 
L 238.280714 47.72145 
L 238.412925 47.72145 
L 238.433954 46.603085 
L 238.790985 46.603085 
L 238.790985 46.043903 
L 239.175827 46.043903 
L 239.175827 45.484721 
L 239.588956 45.484721 
L 239.588956 44.925538 
L 239.886375 44.925538 
L 239.886375 44.366356 
L 240.053128 44.366356 
L 240.053128 43.807174 
L 240.288848 43.807174 
L 240.288848 43.247992 
L 240.639282 43.247992 
L 240.733175 42.129627 
L 240.772059 42.129627 
L 240.772059 41.570445 
L 241.237792 41.570445 
L 241.255853 40.45208 
L 241.41998 40.45208 
L 241.529339 38.774534 
L 241.555186 38.774534 
L 241.555186 38.215351 
L 242.174695 38.215351 
L 242.174695 37.656169 
L 242.807254 37.656169 
L 242.893658 35.978622 
L 243.448275 35.978622 
L 243.517223 34.860258 
L 244.078566 34.860258 
L 244.078566 33.741894 
L 244.79809 33.741894 
L 244.79809 33.182711 
L 245.847187 33.182711 
L 245.847187 32.623529 
L 246.438756 32.623529 
L 246.464106 30.3868 
L 247.527704 30.3868 
L 247.527704 29.827618 
L 247.931527 29.827618 
L 247.981008 28.709253 
L 248.424044 28.709253 
L 248.424044 28.150071 
L 248.912557 28.150071 
L 248.912557 27.590889 
L 249.425721 27.590889 
L 249.425721 27.031707 
L 250.315885 27.031707 
L 250.315885 26.472524 
L 251.138741 26.472524 
L 251.138741 25.913342 
L 252.290449 25.913342 
L 252.290449 25.35416 
L 252.673755 25.35416 
L 252.744139 24.235795 
L 253.373092 24.235795 
L 253.373092 23.676613 
L 254.448199 23.676613 
L 254.448199 23.117431 
L 257.874715 23.117431 
L 257.874715 22.558249 
L 258.135873 22.558249 
L 258.135873 21.999066 
L 259.675938 21.999066 
L 259.675938 21.439884 
L 260.890721 21.439884 
L 260.890721 20.880702 
L 333.168 20.880702 
L 333.168 20.880702 
" style="fill:none;stroke:#ff00ff;stroke-linecap:square;stroke-width:1.5;"/>
   </g>
   <g id="line2d_44">
    <defs>
     <path d="M -0 8.485281 
L 5.091169 0 
L 0 -8.485281 
L -5.091169 -0 
z
" id="m910172ef33" style="stroke:#ff00ff;stroke-linejoin:miter;stroke-width:1.5;"/>
    </defs>
    <g>
     <use style="fill-opacity:0;stroke:#ff00ff;stroke-linejoin:miter;stroke-width:1.5;" x="201.096882" xlink:href="#m910172ef33" y="187.51701"/>
     <use style="fill-opacity:0;stroke:#ff00ff;stroke-linejoin:miter;stroke-width:1.5;" x="230.812593" xlink:href="#m910172ef33" y="76.239744"/>
     <use style="fill-opacity:0;stroke:#ff00ff;stroke-linejoin:miter;stroke-width:1.5;" x="260.890721" xlink:href="#m910172ef33" y="20.880702"/>
     <use style="fill-opacity:0;stroke:#ff00ff;stroke-linejoin:miter;stroke-width:1.5;" x="260.890721" xlink:href="#m910172ef33" y="20.880702"/>
     <use style="fill-opacity:0;stroke:#ff00ff;stroke-linejoin:miter;stroke-width:1.5;" x="333.168" xlink:href="#m910172ef33" y="20.880702"/>
    </g>
   </g>
   <g id="line2d_45">
    <path style="fill:none;stroke:#ff00ff;stroke-linecap:square;stroke-width:1.5;"/>
    <g/>
   </g>
   <g id="line2d_46">
    <path clip-path="url(#p96fc846b46)" d="M 186.941843 223.304673 
" style="fill:none;stroke:#ff00ff;stroke-linecap:square;stroke-width:1.5;"/>
    <defs>
     <path d="M -12 12 
L 12 -12 
M -12 -12 
L 12 12 
" id="m634a02b5ed" style="stroke:#ff00ff;"/>
    </defs>
    <g clip-path="url(#p96fc846b46)">
     <use style="fill:#ff00ff;stroke:#ff00ff;" x="186.941843" xlink:href="#m634a02b5ed" y="223.304673"/>
    </g>
   </g>
   <g id="line2d_47">
    <defs>
     <path d="M 0 1.5 
C 0.397805 1.5 0.77937 1.341951 1.06066 1.06066 
C 1.341951 0.77937 1.5 0.397805 1.5 0 
C 1.5 -0.397805 1.341951 -0.77937 1.06066 -1.06066 
C 0.77937 -1.341951 0.397805 -1.5 0 -1.5 
C -0.397805 -1.5 -0.77937 -1.341951 -1.06066 -1.06066 
C -1.341951 -0.77937 -1.5 -0.397805 -1.5 0 
C -1.5 0.397805 -1.341951 0.77937 -1.06066 1.06066 
C -0.77937 1.341951 -0.397805 1.5 0 1.5 
z
" id="md29acd2a84" style="stroke:#ffa500;"/>
    </defs>
    <g>
     <use style="fill:#ffa500;stroke:#ffa500;" x="242.181264" xlink:href="#md29acd2a84" y="211.002664"/>
     <use style="fill:#ffa500;stroke:#ffa500;" x="242.181264" xlink:href="#md29acd2a84" y="211.002664"/>
    </g>
   </g>
   <g id="line2d_48">
    <path d="M 149.200066 294.88 
L 149.200066 294.320818 
L 150.093957 294.320818 
L 150.093957 293.761636 
L 151.176953 293.761636 
L 151.176953 292.643271 
L 155.630973 292.643271 
L 155.630973 291.524907 
L 156.442538 291.524907 
L 156.442538 290.965724 
L 157.198312 290.965724 
L 157.198312 290.406542 
L 157.968221 290.406542 
L 157.977401 289.288178 
L 158.563792 289.288178 
L 158.563792 288.728995 
L 159.293116 288.728995 
L 159.293116 288.169813 
L 160.976132 288.169813 
L 160.976132 286.492266 
L 161.182996 286.492266 
L 161.182996 285.933084 
L 161.559624 285.933084 
L 161.559624 285.373902 
L 161.678423 285.373902 
L 161.678423 284.81472 
L 162.614384 284.81472 
L 162.614384 284.255537 
L 163.050263 284.255537 
L 163.159224 283.137173 
L 164.301615 283.137173 
L 164.402949 282.018808 
L 164.980407 282.018808 
L 165.035274 280.341262 
L 165.354876 280.341262 
L 165.354876 279.782079 
L 165.674508 279.782079 
L 165.674508 278.104533 
L 165.855351 278.104533 
L 165.942177 276.426986 
L 166.710007 276.426986 
L 166.710007 275.867804 
L 167.146151 275.867804 
L 167.146151 274.749439 
L 167.764723 274.749439 
L 167.769916 273.631075 
L 172.6849 273.631075 
L 172.6849 272.51271 
L 172.913491 272.51271 
L 172.913491 271.953528 
L 173.062942 271.953528 
L 173.062942 270.835164 
L 173.802272 270.835164 
L 173.802272 269.716799 
L 174.299379 269.716799 
L 174.299379 269.157617 
L 174.751415 269.157617 
L 174.751415 268.598435 
L 174.954263 268.598435 
L 174.954263 267.48007 
L 177.41192 267.48007 
L 177.41192 266.920888 
L 178.57726 266.920888 
L 178.57726 266.361706 
L 178.892707 266.361706 
L 178.892707 265.802523 
L 179.143641 265.802523 
L 179.143641 265.243341 
L 183.395698 265.243341 
L 183.395698 264.684159 
L 189.865684 264.684159 
L 189.865684 264.124977 
L 190.219457 264.124977 
L 190.219457 263.565795 
L 190.392953 263.565795 
L 190.499815 261.329066 
L 190.678735 261.329066 
L 190.775673 259.092337 
L 191.043153 259.092337 
L 191.090005 257.973972 
L 191.167365 257.973972 
L 191.167365 256.855608 
L 191.321049 256.855608 
L 191.414441 254.618879 
L 192.190308 254.618879 
L 192.190308 254.059696 
L 192.556288 254.059696 
L 192.556288 253.500514 
L 193.259779 253.500514 
L 193.304495 251.263785 
L 193.51242 251.263785 
L 193.51242 250.704603 
L 193.876597 250.704603 
L 193.886825 249.586238 
L 194.095722 249.586238 
L 194.095722 249.027056 
L 194.309872 249.027056 
L 194.309872 248.467874 
L 194.743304 248.467874 
L 194.743304 247.34951 
L 195.395491 247.34951 
L 195.395491 246.790327 
L 197.713721 246.790327 
L 197.713721 245.671963 
L 200.196933 245.671963 
L 200.196933 245.112781 
L 200.668118 245.112781 
L 200.726977 243.435234 
L 201.066234 243.435234 
L 201.066234 242.876052 
L 201.296619 242.876052 
L 201.296619 242.316869 
L 201.464113 242.316869 
L 201.464113 241.757687 
L 202.104151 241.757687 
L 202.104151 240.08014 
L 202.670853 240.08014 
L 202.670853 238.961776 
L 202.802557 238.961776 
L 202.802557 238.402594 
L 202.93393 238.402594 
L 202.93393 237.843411 
L 203.462629 237.843411 
L 203.462629 237.284229 
L 203.597468 237.284229 
L 203.597468 236.725047 
L 204.722772 236.725047 
L 204.722772 236.165865 
L 205.616616 236.165865 
L 205.616616 235.606682 
L 207.060278 235.606682 
L 207.151364 233.929136 
L 207.345605 233.929136 
L 207.345605 233.369954 
L 207.496552 233.369954 
L 207.496552 232.251589 
L 207.758573 232.251589 
L 207.758573 231.692407 
L 208.460288 231.692407 
L 208.554432 230.574042 
L 208.789472 230.574042 
L 208.836668 229.455678 
L 209.083399 229.455678 
L 209.083399 228.896496 
L 209.950013 228.896496 
L 209.950013 228.337313 
L 211.549238 228.337313 
L 211.549238 227.778131 
L 211.693774 227.778131 
L 211.693774 227.218949 
L 211.824307 227.218949 
L 211.890997 226.100584 
L 212.783337 226.100584 
L 212.783337 225.541402 
L 215.566519 225.541402 
L 215.659599 224.423038 
L 215.961663 224.423038 
L 215.961663 223.863855 
L 216.179188 223.863855 
L 216.179188 222.745491 
L 216.353768 222.745491 
L 216.444833 221.627126 
L 218.59233 221.627126 
L 218.59233 221.067944 
L 219.15831 221.067944 
L 219.208377 219.390397 
L 219.311182 219.390397 
L 219.311182 218.831215 
L 220.97558 218.831215 
L 220.97558 218.272033 
L 221.312689 218.272033 
L 221.312689 217.712851 
L 221.744935 217.712851 
L 221.744935 217.153669 
L 223.234905 217.153669 
L 223.234905 216.594486 
L 223.495172 216.594486 
L 223.495172 216.035304 
L 223.797674 216.035304 
L 223.797674 215.476122 
L 225.881513 215.476122 
L 225.881513 214.91694 
L 228.751653 214.91694 
L 228.751653 214.357757 
L 230.377904 214.357757 
L 230.377904 213.798575 
L 231.699112 213.798575 
L 231.699112 213.239393 
L 233.066422 213.239393 
L 233.066422 212.680211 
L 234.460134 212.680211 
L 234.460134 212.121028 
L 235.194932 212.121028 
L 235.194932 211.561846 
L 242.181264 211.561846 
L 242.181264 211.002664 
L 333.168 211.002664 
L 333.168 211.002664 
" style="fill:none;stroke:#ffa500;stroke-linecap:square;stroke-width:1.5;"/>
   </g>
   <g id="line2d_49">
    <defs>
     <path d="M 0 -6 
L -1.347084 -1.854102 
L -5.706339 -1.854102 
L -2.179628 0.708204 
L -3.526712 4.854102 
L -0 2.291796 
L 3.526712 4.854102 
L 2.179628 0.708204 
L 5.706339 -1.854102 
L 1.347084 -1.854102 
z
" id="m28af267ca5" style="stroke:#ffa500;stroke-linejoin:bevel;stroke-width:1.5;"/>
    </defs>
    <g>
     <use style="fill-opacity:0;stroke:#ffa500;stroke-linejoin:bevel;stroke-width:1.5;" x="219.311182" xlink:href="#m28af267ca5" y="219.390397"/>
     <use style="fill-opacity:0;stroke:#ffa500;stroke-linejoin:bevel;stroke-width:1.5;" x="242.181264" xlink:href="#m28af267ca5" y="211.002664"/>
     <use style="fill-opacity:0;stroke:#ffa500;stroke-linejoin:bevel;stroke-width:1.5;" x="242.181264" xlink:href="#m28af267ca5" y="211.002664"/>
     <use style="fill-opacity:0;stroke:#ffa500;stroke-linejoin:bevel;stroke-width:1.5;" x="333.168" xlink:href="#m28af267ca5" y="211.002664"/>
    </g>
   </g>
   <g id="line2d_50">
    <path style="fill:none;stroke:#ffa500;stroke-linecap:square;stroke-width:1.5;"/>
    <g/>
   </g>
   <g id="line2d_51">
    <path clip-path="url(#p96fc846b46)" d="M 186.941843 264.684159 
" style="fill:none;stroke:#ffa500;stroke-linecap:square;stroke-width:1.5;"/>
    <defs>
     <path d="M -12 12 
L 12 -12 
M -12 -12 
L 12 12 
" id="mc7fee873b9" style="stroke:#ffa500;"/>
    </defs>
    <g clip-path="url(#p96fc846b46)">
     <use style="fill:#ffa500;stroke:#ffa500;" x="186.941843" xlink:href="#mc7fee873b9" y="264.684159"/>
    </g>
   </g>
   <g id="line2d_52">
    <defs>
     <path d="M 0 1.5 
C 0.397805 1.5 0.77937 1.341951 1.06066 1.06066 
C 1.341951 0.77937 1.5 0.397805 1.5 0 
C 1.5 -0.397805 1.341951 -0.77937 1.06066 -1.06066 
C 0.77937 -1.341951 0.397805 -1.5 0 -1.5 
C -0.397805 -1.5 -0.77937 -1.341951 -1.06066 -1.06066 
C -1.341951 -0.77937 -1.5 -0.397805 -1.5 0 
C -1.5 0.397805 -1.341951 0.77937 -1.06066 1.06066 
C -0.77937 1.341951 -0.397805 1.5 0 1.5 
z
" id="mf77b3e402e" style="stroke:#6495ed;"/>
    </defs>
    <g>
     <use style="fill:#6495ed;stroke:#6495ed;" x="239.852563" xlink:href="#mf77b3e402e" y="9.697057"/>
     <use style="fill:#6495ed;stroke:#6495ed;" x="239.852563" xlink:href="#mf77b3e402e" y="9.697057"/>
    </g>
   </g>
   <g id="line2d_53">
    <path d="M 99.395756 294.88 
L 99.395756 292.643271 
L 106.548983 292.643271 
L 106.548983 290.965724 
L 111.72091 290.965724 
L 111.72091 290.406542 
L 115.58349 290.406542 
L 115.58349 289.288178 
L 120.609239 289.288178 
L 120.609239 287.610631 
L 122.732117 287.610631 
L 122.732117 287.051449 
L 124.102454 287.051449 
L 124.102454 285.373902 
L 125.674722 285.373902 
L 125.674722 284.81472 
L 131.181257 284.81472 
L 131.181257 283.696355 
L 133.196088 283.696355 
L 133.196088 282.018808 
L 135.717765 282.018808 
L 135.717765 281.459626 
L 136.72628 281.459626 
L 136.72628 280.900444 
L 136.883542 280.900444 
L 136.883542 280.341262 
L 137.255203 280.341262 
L 137.255203 279.222897 
L 139.546595 279.222897 
L 139.546595 278.663715 
L 139.75979 278.663715 
L 139.865404 277.545351 
L 140.204235 277.545351 
L 140.204235 276.986168 
L 142.920112 276.986168 
L 142.920112 275.308622 
L 143.095508 275.308622 
L 143.095508 274.749439 
L 143.863366 274.749439 
L 143.863366 274.190257 
L 146.453301 274.190257 
L 146.507044 273.071893 
L 147.395858 273.071893 
L 147.395858 272.51271 
L 149.337149 272.51271 
L 149.337149 271.953528 
L 149.712298 271.953528 
L 149.712298 271.394346 
L 150.943651 271.394346 
L 150.943651 270.275981 
L 152.425434 270.275981 
L 152.425434 269.716799 
L 154.455596 269.716799 
L 154.455596 268.598435 
L 155.075074 268.598435 
L 155.075074 267.48007 
L 155.546612 267.48007 
L 155.546612 265.802523 
L 156.159258 265.802523 
L 156.159258 265.243341 
L 157.284519 265.243341 
L 157.284519 264.684159 
L 157.436716 264.684159 
L 157.436716 264.124977 
L 158.448103 264.124977 
L 158.448103 263.565795 
L 158.722702 263.565795 
L 158.722702 261.888248 
L 159.001631 261.888248 
L 159.001631 260.769883 
L 159.3186 260.769883 
L 159.3186 259.651519 
L 159.487531 259.651519 
L 159.487531 258.533154 
L 160.766748 258.533154 
L 160.79793 256.855608 
L 160.89888 256.855608 
L 160.89888 256.296425 
L 161.744888 256.296425 
L 161.825776 255.178061 
L 162.424141 255.178061 
L 162.487789 253.500514 
L 163.415273 253.500514 
L 163.415273 252.941332 
L 163.654377 252.941332 
L 163.654377 252.38215 
L 164.257094 252.38215 
L 164.257094 251.263785 
L 164.820911 251.263785 
L 164.820911 250.704603 
L 165.126332 250.704603 
L 165.126332 249.586238 
L 165.521353 249.586238 
L 165.598101 248.467874 
L 165.651034 248.467874 
L 165.727207 246.231145 
L 166.120239 246.231145 
L 166.194365 245.112781 
L 166.918556 245.112781 
L 166.918556 243.994416 
L 167.205265 243.994416 
L 167.296225 241.757687 
L 167.733538 241.757687 
L 167.733538 241.198505 
L 167.924955 241.198505 
L 167.924955 239.520958 
L 168.266243 239.520958 
L 168.266243 238.961776 
L 168.421889 238.961776 
L 168.421889 237.843411 
L 168.758446 237.843411 
L 168.768246 236.165865 
L 169.232178 236.165865 
L 169.232178 235.606682 
L 169.426563 235.606682 
L 169.426563 235.0475 
L 169.688561 235.0475 
L 169.716397 232.810771 
L 169.996865 232.810771 
L 170.092371 231.692407 
L 170.142186 231.692407 
L 170.232392 228.337313 
L 170.881263 228.337313 
L 170.881263 227.218949 
L 171.049379 227.218949 
L 171.117877 225.541402 
L 171.460518 225.541402 
L 171.531572 223.863855 
L 172.31032 223.863855 
L 172.393827 221.067944 
L 172.700494 221.067944 
L 172.778254 218.831215 
L 172.909642 218.831215 
L 172.959615 217.153669 
L 173.059126 217.153669 
L 173.112471 214.91694 
L 173.361751 214.91694 
L 173.361751 214.357757 
L 173.537089 214.357757 
L 173.596373 212.121028 
L 173.80958 212.121028 
L 173.80958 211.561846 
L 174.160343 211.561846 
L 174.167501 210.443482 
L 174.363172 210.443482 
L 174.363172 209.884299 
L 174.584601 209.884299 
L 174.584601 209.325117 
L 174.868603 209.325117 
L 174.868603 208.765935 
L 174.991819 208.765935 
L 174.991819 208.206753 
L 175.131082 208.206753 
L 175.232271 204.851659 
L 175.535617 204.851659 
L 175.588404 202.61493 
L 175.690219 202.61493 
L 175.70004 200.937384 
L 175.807704 200.937384 
L 175.875868 199.259837 
L 175.956664 199.259837 
L 175.956664 198.700655 
L 176.085154 198.700655 
L 176.085154 198.141472 
L 176.219042 198.141472 
L 176.219042 197.023108 
L 176.499358 197.023108 
L 176.602144 193.668014 
L 176.667235 193.668014 
L 176.778249 190.312921 
L 176.824294 190.312921 
L 176.934302 187.51701 
L 177.140193 187.51701 
L 177.248203 185.280281 
L 177.432645 185.280281 
L 177.432645 184.721099 
L 177.705649 184.721099 
L 177.720205 183.602734 
L 178.025917 183.602734 
L 178.025917 183.043552 
L 178.278466 183.043552 
L 178.300986 179.129276 
L 178.574492 179.129276 
L 178.682137 175.774183 
L 178.728849 175.774183 
L 178.728849 175.215 
L 178.843714 175.215 
L 178.941562 171.859907 
L 178.982168 171.859907 
L 178.982168 171.300725 
L 179.135603 171.300725 
L 179.135603 170.741543 
L 179.369828 170.741543 
L 179.438424 166.827267 
L 179.645187 166.827267 
L 179.710104 165.708902 
L 179.882882 165.708902 
L 179.964793 164.031356 
L 180.14768 164.031356 
L 180.200657 161.235444 
L 180.318637 161.235444 
L 180.318637 160.11708 
L 180.463122 160.11708 
L 180.500292 158.998715 
L 180.836109 158.998715 
L 180.89185 157.321169 
L 180.949822 157.321169 
L 180.981142 155.643622 
L 181.098683 155.643622 
L 181.098683 154.525258 
L 181.298332 154.525258 
L 181.404341 152.288529 
L 181.598169 152.288529 
L 181.639917 150.610982 
L 181.865451 150.610982 
L 181.865451 150.0518 
L 181.99528 150.0518 
L 182.056437 148.933435 
L 182.16238 148.933435 
L 182.16238 147.815071 
L 182.28107 147.815071 
L 182.305601 146.696706 
L 182.616986 146.696706 
L 182.616986 146.137524 
L 182.899164 146.137524 
L 182.96363 144.459977 
L 183.178904 144.459977 
L 183.178904 143.900795 
L 183.57464 143.900795 
L 183.64075 142.223248 
L 183.847758 142.223248 
L 183.847758 140.545702 
L 184.15467 140.545702 
L 184.206623 138.868155 
L 184.961925 138.868155 
L 184.961925 137.74979 
L 191.315773 137.74979 
L 191.315773 137.190608 
L 191.682571 137.190608 
L 191.682571 136.631426 
L 192.456572 136.631426 
L 192.456572 136.072244 
L 192.802471 136.072244 
L 192.802471 135.513061 
L 193.057104 135.513061 
L 193.057104 134.953879 
L 193.193669 134.953879 
L 193.193669 134.394697 
L 193.759112 134.394697 
L 193.759112 133.276332 
L 193.945799 133.276332 
L 193.945799 132.71715 
L 194.138318 132.71715 
L 194.138318 131.598786 
L 194.417056 131.598786 
L 194.417056 130.480421 
L 194.535614 130.480421 
L 194.570585 128.243692 
L 194.683755 128.243692 
L 194.683755 127.68451 
L 194.856419 127.68451 
L 194.856419 126.566145 
L 195.073021 126.566145 
L 195.178726 124.888599 
L 195.317268 124.888599 
L 195.392369 122.092688 
L 195.483715 122.092688 
L 195.48475 120.974323 
L 195.655742 120.974323 
L 195.719173 118.178412 
L 195.791524 118.178412 
L 195.800674 117.060047 
L 195.920188 117.060047 
L 195.920188 115.941683 
L 196.095916 115.941683 
L 196.200498 114.823318 
L 196.230262 114.823318 
L 196.249085 113.704954 
L 196.396975 113.704954 
L 196.504625 110.349861 
L 196.586378 110.349861 
L 196.686096 109.231496 
L 196.829331 109.231496 
L 196.829331 108.113132 
L 196.953334 108.113132 
L 196.953334 106.994767 
L 197.077392 106.994767 
L 197.188378 104.758038 
L 197.378577 104.758038 
L 197.378577 103.639674 
L 197.518939 103.639674 
L 197.518939 103.080491 
L 197.715539 103.080491 
L 197.715539 102.521309 
L 198.195211 102.521309 
L 198.195211 101.962127 
L 202.189165 101.962127 
L 202.189165 100.843762 
L 202.327379 100.843762 
L 202.327379 100.28458 
L 202.659946 100.28458 
L 202.732757 97.488669 
L 202.828237 97.488669 
L 202.872748 95.811122 
L 202.996234 95.811122 
L 203.070301 91.896847 
L 203.128795 91.896847 
L 203.196347 89.660118 
L 203.46328 89.660118 
L 203.46328 88.541753 
L 203.671567 88.541753 
L 203.671567 87.982571 
L 203.79904 87.982571 
L 203.853202 86.864206 
L 203.924942 86.864206 
L 204.035455 85.745842 
L 204.064387 85.745842 
L 204.170264 84.068295 
L 204.254374 84.068295 
L 204.329413 82.390748 
L 204.48097 82.390748 
L 204.48097 81.831566 
L 204.793991 81.831566 
L 204.793991 81.272384 
L 208.171256 81.272384 
L 208.220178 79.035655 
L 208.4525 79.035655 
L 208.504513 77.917291 
L 208.571363 77.917291 
L 208.650471 76.798926 
L 208.72155 76.798926 
L 208.788517 75.680562 
L 208.936827 75.680562 
L 209.029817 74.562197 
L 209.125583 74.562197 
L 209.227336 72.88465 
L 209.259881 72.88465 
L 209.306268 70.647921 
L 209.409722 70.647921 
L 209.507522 67.85201 
L 209.52354 67.85201 
L 209.590194 64.496917 
L 209.63479 64.496917 
L 209.694223 63.378552 
L 209.786819 63.378552 
L 209.786819 62.81937 
L 212.55133 62.81937 
L 212.55133 62.260188 
L 212.806404 62.260188 
L 212.900619 58.905094 
L 212.927283 58.905094 
L 213.002543 56.668365 
L 213.298494 56.668365 
L 213.3029 55.550001 
L 213.446219 55.550001 
L 213.546052 54.431636 
L 213.571011 54.431636 
L 213.664014 52.194907 
L 213.703514 52.194907 
L 213.773315 51.076543 
L 213.880505 51.076543 
L 213.983149 49.958178 
L 215.821762 49.958178 
L 215.821762 49.398996 
L 216.051381 49.398996 
L 216.051381 48.839814 
L 216.262837 48.839814 
L 216.330696 47.162267 
L 216.384791 47.162267 
L 216.458283 45.484721 
L 216.566721 45.484721 
L 216.65848 44.366356 
L 216.748549 44.366356 
L 216.820207 42.129627 
L 216.986354 42.129627 
L 217.048764 39.892898 
L 217.167045 39.892898 
L 217.261204 38.215351 
L 219.103382 38.215351 
L 219.168231 35.978622 
L 219.241934 35.978622 
L 219.241934 35.41944 
L 219.441142 35.41944 
L 219.546143 33.182711 
L 219.568087 33.182711 
L 219.671557 30.3868 
L 219.749699 30.3868 
L 219.764075 28.709253 
L 221.588989 28.709253 
L 221.684846 26.472524 
L 221.792273 26.472524 
L 221.869172 25.35416 
L 221.938621 25.35416 
L 222.034983 23.117431 
L 222.168989 23.117431 
L 222.25884 20.32152 
L 223.64568 20.32152 
L 223.671006 19.203155 
L 224.230011 19.203155 
L 224.230011 18.643973 
L 226.038156 18.643973 
L 226.038156 18.084791 
L 227.420804 18.084791 
L 227.448395 16.966426 
L 227.633605 16.966426 
L 227.633605 16.407244 
L 227.815735 16.407244 
L 227.815735 15.848062 
L 228.915563 15.848062 
L 228.915563 15.28888 
L 229.136041 15.28888 
L 229.188136 13.611333 
L 229.368873 13.611333 
L 229.368873 13.052151 
L 230.688331 13.052151 
L 230.769057 11.933786 
L 231.742744 11.933786 
L 231.742744 11.374604 
L 231.986764 11.374604 
L 231.986764 10.815422 
L 234.330991 10.815422 
L 234.330991 10.256239 
L 239.852563 10.256239 
L 239.852563 9.697057 
L 333.168 9.697057 
L 333.168 9.697057 
" style="fill:none;stroke:#6495ed;stroke-linecap:square;stroke-width:1.5;"/>
   </g>
   <g id="line2d_54">
    <defs>
     <path d="M -0 6 
L 6 -6 
L -6 -6 
z
" id="m85a2ea8d52" style="stroke:#6495ed;stroke-linejoin:miter;stroke-width:1.5;"/>
    </defs>
    <g>
     <use style="fill-opacity:0;stroke:#6495ed;stroke-linejoin:miter;stroke-width:1.5;" x="170.169298" xlink:href="#m85a2ea8d52" y="229.455678"/>
     <use style="fill-opacity:0;stroke:#6495ed;stroke-linejoin:miter;stroke-width:1.5;" x="208.936827" xlink:href="#m85a2ea8d52" y="75.680562"/>
     <use style="fill-opacity:0;stroke:#6495ed;stroke-linejoin:miter;stroke-width:1.5;" x="239.852563" xlink:href="#m85a2ea8d52" y="9.697057"/>
     <use style="fill-opacity:0;stroke:#6495ed;stroke-linejoin:miter;stroke-width:1.5;" x="239.852563" xlink:href="#m85a2ea8d52" y="9.697057"/>
     <use style="fill-opacity:0;stroke:#6495ed;stroke-linejoin:miter;stroke-width:1.5;" x="333.168" xlink:href="#m85a2ea8d52" y="9.697057"/>
    </g>
   </g>
   <g id="line2d_55">
    <path style="fill:none;stroke:#6495ed;stroke-linecap:square;stroke-width:1.5;"/>
    <g/>
   </g>
   <g id="line2d_56">
    <path clip-path="url(#p96fc846b46)" d="M 186.941843 137.74979 
" style="fill:none;stroke:#6495ed;stroke-linecap:square;stroke-width:1.5;"/>
    <defs>
     <path d="M -12 12 
L 12 -12 
M -12 -12 
L 12 12 
" id="mfdde6f315b" style="stroke:#6495ed;"/>
    </defs>
    <g clip-path="url(#p96fc846b46)">
     <use style="fill:#6495ed;stroke:#6495ed;" x="186.941843" xlink:href="#mfdde6f315b" y="137.74979"/>
    </g>
   </g>
   <g id="line2d_57">
    <defs>
     <path d="M 0 1.5 
C 0.397805 1.5 0.77937 1.341951 1.06066 1.06066 
C 1.341951 0.77937 1.5 0.397805 1.5 0 
C 1.5 -0.397805 1.341951 -0.77937 1.06066 -1.06066 
C 0.77937 -1.341951 0.397805 -1.5 0 -1.5 
C -0.397805 -1.5 -0.77937 -1.341951 -1.06066 -1.06066 
C -1.341951 -0.77937 -1.5 -0.397805 -1.5 0 
C -1.5 0.397805 -1.341951 0.77937 -1.06066 1.06066 
C -0.77937 1.341951 -0.397805 1.5 0 1.5 
z
" id="m70f41cc7bc" style="stroke:#ff0000;"/>
    </defs>
    <g>
     <use style="fill:#ff0000;stroke:#ff0000;" x="237.246025" xlink:href="#m70f41cc7bc" y="54.431636"/>
     <use style="fill:#ff0000;stroke:#ff0000;" x="237.246025" xlink:href="#m70f41cc7bc" y="54.431636"/>
    </g>
   </g>
   <g id="line2d_58">
    <path d="M 28.455965 294.88 
L 28.455965 271.394346 
L 40.370217 271.394346 
L 40.370217 270.835164 
L 47.339607 270.835164 
L 47.339607 269.157617 
L 52.284468 269.157617 
L 52.284468 268.598435 
L 56.12 268.598435 
L 56.12 265.802523 
L 59.253858 265.802523 
L 59.253858 265.243341 
L 64.198719 265.243341 
L 64.198719 264.684159 
L 66.223248 264.684159 
L 66.223248 263.565795 
L 71.168109 263.565795 
L 71.168109 263.006612 
L 73.817748 263.006612 
L 73.817748 262.44743 
L 77.155024 262.44743 
L 77.155024 261.888248 
L 80.787138 261.888248 
L 80.787138 257.41479 
L 89.069276 257.41479 
L 89.069276 255.737243 
L 96.372436 255.737243 
L 96.372436 255.178061 
L 100.728876 255.178061 
L 100.728876 254.618879 
L 105.60948 254.618879 
L 105.60948 253.500514 
L 110.746395 253.500514 
L 110.746395 252.941332 
L 111.448069 252.941332 
L 111.448069 252.38215 
L 115.034286 252.38215 
L 115.034286 251.822967 
L 120.283378 251.822967 
L 120.283378 251.263785 
L 120.447081 251.263785 
L 120.447081 250.704603 
L 120.929036 250.704603 
L 120.929036 249.586238 
L 121.086731 249.586238 
L 121.086731 249.027056 
L 121.242993 249.027056 
L 121.320594 247.908692 
L 122.516807 247.908692 
L 122.516807 246.231145 
L 122.803291 246.231145 
L 122.874172 242.876052 
L 126.780294 242.876052 
L 126.780294 241.198505 
L 126.892639 241.198505 
L 126.892639 240.639323 
L 127.115148 240.639323 
L 127.170329 239.520958 
L 128.029939 239.520958 
L 128.029939 237.284229 
L 128.186438 237.284229 
L 128.186438 235.606682 
L 128.798561 235.606682 
L 128.798561 234.488318 
L 129.437982 234.488318 
L 129.437982 233.929136 
L 130.054468 233.929136 
L 130.054468 233.369954 
L 131.354881 233.369954 
L 131.354881 231.692407 
L 131.526768 231.692407 
L 131.526768 230.574042 
L 131.990784 230.574042 
L 132.032353 229.455678 
L 132.882847 229.455678 
L 132.882847 228.896496 
L 133.503723 228.896496 
L 133.503723 227.778131 
L 134.8942 227.778131 
L 134.999329 226.100584 
L 136.180564 226.100584 
L 136.213149 223.863855 
L 137.798047 223.863855 
L 137.798047 222.186309 
L 138.890669 222.186309 
L 138.890669 220.508762 
L 139.0294 220.508762 
L 139.139583 217.712851 
L 139.46596 217.712851 
L 139.546595 215.476122 
L 140.434959 215.476122 
L 140.434959 214.91694 
L 140.812746 214.91694 
L 140.812746 213.239393 
L 141.15801 213.239393 
L 141.15801 212.680211 
L 141.496475 212.680211 
L 141.591967 209.884299 
L 142.765159 209.884299 
L 142.765159 208.206753 
L 143.398208 208.206753 
L 143.462385 206.529206 
L 143.547583 206.529206 
L 143.547583 204.851659 
L 143.69567 204.851659 
L 143.69567 203.733295 
L 143.967351 203.733295 
L 143.967351 202.61493 
L 144.717888 202.61493 
L 144.717888 202.055748 
L 144.895601 202.055748 
L 144.895601 200.378201 
L 145.129729 200.378201 
L 145.129729 198.700655 
L 145.512992 198.700655 
L 145.512992 195.904743 
L 146.182039 195.904743 
L 146.182039 195.345561 
L 146.667271 195.345561 
L 146.667271 194.786379 
L 147.225166 194.786379 
L 147.225166 192.54965 
L 147.412835 192.54965 
L 147.412835 191.990468 
L 147.615255 191.990468 
L 147.615255 191.431285 
L 148.273273 191.431285 
L 148.273273 190.872103 
L 148.561358 190.872103 
L 148.593071 189.194556 
L 148.93811 189.194556 
L 148.93811 188.635374 
L 149.533248 188.635374 
L 149.533248 188.076192 
L 150.137454 188.076192 
L 150.137454 187.51701 
L 150.338998 187.51701 
L 150.338998 186.957828 
L 150.453114 186.957828 
L 150.453114 185.839463 
L 150.679098 185.839463 
L 150.679098 184.721099 
L 151.012598 184.721099 
L 151.012598 183.602734 
L 151.8977 183.602734 
L 151.8977 182.48437 
L 152.027918 182.48437 
L 152.027918 181.366005 
L 152.374656 181.366005 
L 152.374656 180.806823 
L 153.02336 180.806823 
L 153.02336 179.688458 
L 153.230235 179.688458 
L 153.230235 179.129276 
L 153.38677 179.129276 
L 153.38677 178.570094 
L 153.518118 178.570094 
L 153.553767 177.451729 
L 153.859664 177.451729 
L 153.859664 176.333365 
L 154.376568 176.333365 
L 154.376568 175.774183 
L 154.500593 175.774183 
L 154.567867 173.537454 
L 155.042447 173.537454 
L 155.042447 172.978271 
L 155.161776 172.978271 
L 155.161776 171.300725 
L 155.376636 171.300725 
L 155.429934 169.623178 
L 155.735846 169.623178 
L 155.735846 168.504814 
L 156.472615 168.504814 
L 156.472615 167.945631 
L 157.303617 167.945631 
L 157.322695 166.268085 
L 157.446184 166.268085 
L 157.446184 165.708902 
L 157.802146 165.708902 
L 157.866922 164.031356 
L 157.92225 164.031356 
L 158.01407 161.235444 
L 158.141799 161.235444 
L 158.141799 160.11708 
L 158.439172 160.11708 
L 158.439172 159.557898 
L 159.079271 159.557898 
L 159.079271 158.998715 
L 159.403273 158.998715 
L 159.403273 158.439533 
L 159.563012 158.439533 
L 159.563012 157.880351 
L 159.960072 157.880351 
L 159.960072 155.08444 
L 160.300132 155.08444 
L 160.300132 154.525258 
L 160.751137 154.525258 
L 160.860123 152.847711 
L 160.867881 152.847711 
L 160.875636 151.729346 
L 161.160133 151.729346 
L 161.160133 151.170164 
L 161.334639 151.170164 
L 161.409962 150.0518 
L 161.707995 150.0518 
L 161.707995 148.933435 
L 162.767854 148.933435 
L 162.8164 146.696706 
L 163.036594 146.696706 
L 163.077568 145.578342 
L 163.199907 145.578342 
L 163.199907 145.019159 
L 163.42196 145.019159 
L 163.42196 144.459977 
L 164.161299 144.459977 
L 164.20607 143.341613 
L 164.339686 143.341613 
L 164.409262 141.664066 
L 164.591354 141.664066 
L 164.591354 141.104884 
L 164.913109 141.104884 
L 164.992615 138.868155 
L 165.265024 138.868155 
L 165.265024 137.74979 
L 165.651034 137.74979 
L 165.651034 137.190608 
L 166.336023 137.190608 
L 166.336023 136.631426 
L 166.649162 136.631426 
L 166.649162 136.072244 
L 166.787135 136.072244 
L 166.787135 134.953879 
L 166.967581 134.953879 
L 166.973019 132.71715 
L 167.24813 132.71715 
L 167.24813 131.598786 
L 167.481992 131.598786 
L 167.481992 131.039603 
L 167.702295 131.039603 
L 167.801036 127.68451 
L 167.883748 127.68451 
L 167.883748 127.125328 
L 168.346752 127.125328 
L 168.346752 126.006963 
L 168.640412 126.006963 
L 168.640412 125.447781 
L 168.953386 125.447781 
L 168.953386 124.888599 
L 169.136553 124.888599 
L 169.136553 124.329417 
L 169.600116 124.329417 
L 169.600116 123.211052 
L 170.196366 123.211052 
L 170.196366 120.974323 
L 170.522333 120.974323 
L 170.597363 119.855959 
L 171.092222 119.855959 
L 171.092222 118.737594 
L 171.405985 118.737594 
L 171.405985 117.61923 
L 171.647964 117.61923 
L 171.647964 117.060047 
L 171.866144 117.060047 
L 171.866144 116.500865 
L 172.2784 116.500865 
L 172.2784 115.941683 
L 172.832476 115.941683 
L 172.921187 114.823318 
L 173.051492 114.823318 
L 173.085819 113.145772 
L 173.458967 113.145772 
L 173.458967 111.468225 
L 173.570462 111.468225 
L 173.570462 110.909043 
L 173.802272 110.909043 
L 173.802272 110.349861 
L 173.994894 110.349861 
L 173.994894 109.790678 
L 174.160343 109.790678 
L 174.160343 108.672314 
L 174.45842 108.672314 
L 174.45842 107.553949 
L 175.188495 107.553949 
L 175.188495 106.435585 
L 175.505853 106.435585 
L 175.505853 105.31722 
L 175.869388 105.31722 
L 175.872628 104.198856 
L 176.527452 104.198856 
L 176.577283 103.080491 
L 177.122125 103.080491 
L 177.122125 102.521309 
L 177.420805 102.521309 
L 177.420805 101.962127 
L 177.760895 101.962127 
L 177.769602 100.843762 
L 177.997307 100.843762 
L 177.997307 99.725398 
L 178.151236 99.725398 
L 178.151236 99.166216 
L 178.281283 99.166216 
L 178.281283 98.607033 
L 178.571723 98.607033 
L 178.571723 98.047851 
L 178.971349 98.047851 
L 178.974055 96.929487 
L 179.903396 96.929487 
L 179.903396 96.370304 
L 180.527499 96.370304 
L 180.527499 95.811122 
L 181.630648 95.811122 
L 181.630648 95.25194 
L 181.906555 95.25194 
L 181.906555 94.692758 
L 182.294455 94.692758 
L 182.294455 94.133576 
L 182.721715 94.133576 
L 182.743454 92.456029 
L 184.178668 92.456029 
L 184.178668 91.337664 
L 184.577686 91.337664 
L 184.577686 90.778482 
L 185.182003 90.778482 
L 185.182003 90.2193 
L 186.44814 90.2193 
L 186.44814 89.660118 
L 186.632779 89.660118 
L 186.632779 87.982571 
L 191.798416 87.982571 
L 191.798416 87.423389 
L 192.034116 87.423389 
L 192.034116 86.864206 
L 193.697196 86.864206 
L 193.697196 85.745842 
L 194.443473 85.745842 
L 194.443473 85.18666 
L 194.874664 85.18666 
L 194.874664 84.068295 
L 195.175564 84.068295 
L 195.175564 83.509113 
L 195.94641 83.509113 
L 195.94641 82.949931 
L 196.298524 82.949931 
L 196.298524 82.390748 
L 196.688991 82.390748 
L 196.688991 81.831566 
L 197.529971 81.831566 
L 197.529971 81.272384 
L 197.808029 81.272384 
L 197.808029 80.713202 
L 201.734657 80.713202 
L 201.748325 79.594837 
L 203.556092 79.594837 
L 203.556739 78.476473 
L 203.783717 78.476473 
L 203.783717 77.917291 
L 204.305263 77.917291 
L 204.377613 76.239744 
L 204.530582 76.239744 
L 204.530582 75.680562 
L 205.258657 75.680562 
L 205.258657 74.562197 
L 205.662487 74.562197 
L 205.662487 74.003015 
L 208.498202 74.003015 
L 208.498202 73.443833 
L 209.120901 73.443833 
L 209.120901 72.88465 
L 209.262203 72.88465 
L 209.262203 72.325468 
L 209.696035 72.325468 
L 209.720924 71.207104 
L 209.812927 71.207104 
L 209.812927 70.647921 
L 210.346987 70.647921 
L 210.346987 70.088739 
L 210.648242 70.088739 
L 210.648242 69.529557 
L 213.188339 69.529557 
L 213.188339 68.970375 
L 213.335178 68.970375 
L 213.335178 68.411192 
L 213.500382 68.411192 
L 213.555823 67.292828 
L 213.751868 67.292828 
L 213.751868 66.733646 
L 214.08764 66.733646 
L 214.08764 66.174463 
L 214.508265 66.174463 
L 214.508265 65.615281 
L 216.512283 65.615281 
L 216.566721 64.496917 
L 216.68745 64.496917 
L 216.68745 63.937735 
L 217.104475 63.937735 
L 217.104475 62.81937 
L 217.308963 62.81937 
L 217.308963 62.260188 
L 219.783728 62.260188 
L 219.783728 61.701006 
L 221.77905 61.701006 
L 221.77905 61.141823 
L 222.002037 61.141823 
L 222.002037 60.582641 
L 224.288238 60.582641 
L 224.288238 60.023459 
L 226.262963 60.023459 
L 226.262963 59.464277 
L 226.471391 59.464277 
L 226.471391 58.905094 
L 227.568568 58.905094 
L 227.568568 58.345912 
L 229.165829 58.345912 
L 229.201972 57.227548 
L 229.303291 57.227548 
L 229.303291 56.668365 
L 234.201087 56.668365 
L 234.201087 56.109183 
L 234.336499 56.109183 
L 234.336499 55.550001 
L 235.61225 55.550001 
L 235.61225 54.990819 
L 237.246025 54.990819 
L 237.246025 54.431636 
L 333.168 54.431636 
L 333.168 54.431636 
" style="fill:none;stroke:#ff0000;stroke-linecap:square;stroke-width:1.5;"/>
   </g>
   <g id="line2d_59">
    <defs>
     <path d="M 0 -6 
L -5.196152 -3 
L -5.196152 3 
L -0 6 
L 5.196152 3 
L 5.196152 -3 
z
" id="m0272837895" style="stroke:#ff0000;stroke-linejoin:miter;stroke-width:1.5;"/>
    </defs>
    <g>
     <use style="fill-opacity:0;stroke:#ff0000;stroke-linejoin:miter;stroke-width:1.5;" x="130.054468" xlink:href="#m0272837895" y="233.369954"/>
     <use style="fill-opacity:0;stroke:#ff0000;stroke-linejoin:miter;stroke-width:1.5;" x="175.872628" xlink:href="#m0272837895" y="104.758038"/>
     <use style="fill-opacity:0;stroke:#ff0000;stroke-linejoin:miter;stroke-width:1.5;" x="229.303291" xlink:href="#m0272837895" y="57.227548"/>
     <use style="fill-opacity:0;stroke:#ff0000;stroke-linejoin:miter;stroke-width:1.5;" x="237.246025" xlink:href="#m0272837895" y="54.431636"/>
     <use style="fill-opacity:0;stroke:#ff0000;stroke-linejoin:miter;stroke-width:1.5;" x="237.246025" xlink:href="#m0272837895" y="54.431636"/>
     <use style="fill-opacity:0;stroke:#ff0000;stroke-linejoin:miter;stroke-width:1.5;" x="333.168" xlink:href="#m0272837895" y="54.431636"/>
    </g>
   </g>
   <g id="line2d_60">
    <path style="fill:none;stroke:#ff0000;stroke-linecap:square;stroke-width:1.5;"/>
    <g/>
   </g>
   <g id="line2d_61">
    <path clip-path="url(#p96fc846b46)" d="M 186.941843 87.982571 
" style="fill:none;stroke:#ff0000;stroke-linecap:square;stroke-width:1.5;"/>
    <defs>
     <path d="M -12 12 
L 12 -12 
M -12 -12 
L 12 12 
" id="mfc14dc5b9f" style="stroke:#ff0000;"/>
    </defs>
    <g clip-path="url(#p96fc846b46)">
     <use style="fill:#ff0000;stroke:#ff0000;" x="186.941843" xlink:href="#mfc14dc5b9f" y="87.982571"/>
    </g>
   </g>
   <g id="line2d_62">
    <path d="M 333.168 211.002664 
L 363.64328 289.176341 
" style="fill:none;stroke:#ffa500;stroke-linecap:square;stroke-width:1.5;"/>
    <g>
     <use style="fill-opacity:0;stroke:#ffa500;stroke-linejoin:bevel;stroke-width:1.5;" x="333.168" xlink:href="#m28af267ca5" y="211.002664"/>
     <use style="fill-opacity:0;stroke:#ffa500;stroke-linejoin:bevel;stroke-width:1.5;" x="363.64328" xlink:href="#m28af267ca5" y="289.176341"/>
    </g>
   </g>
   <g id="line2d_63">
    <path d="M 333.168 194.227197 
L 363.64328 220.732435 
" style="fill:none;stroke:#000080;stroke-linecap:square;stroke-width:1.5;"/>
    <g>
     <use style="fill-opacity:0;stroke:#000080;stroke-width:1.5;" x="333.168" xlink:href="#mc362909f27" y="194.227197"/>
     <use style="fill-opacity:0;stroke:#000080;stroke-width:1.5;" x="363.64328" xlink:href="#mc362909f27" y="220.732435"/>
    </g>
   </g>
   <g id="line2d_64">
    <path d="M 333.168 54.431636 
L 363.64328 152.288529 
" style="fill:none;stroke:#ff0000;stroke-linecap:square;stroke-width:1.5;"/>
    <g>
     <use style="fill-opacity:0;stroke:#ff0000;stroke-linejoin:miter;stroke-width:1.5;" x="333.168" xlink:href="#m0272837895" y="54.431636"/>
     <use style="fill-opacity:0;stroke:#ff0000;stroke-linejoin:miter;stroke-width:1.5;" x="363.64328" xlink:href="#m0272837895" y="152.288529"/>
    </g>
   </g>
   <g id="line2d_65">
    <path d="M 333.168 20.880702 
L 363.64328 83.844622 
" style="fill:none;stroke:#ff00ff;stroke-linecap:square;stroke-width:1.5;"/>
    <g>
     <use style="fill-opacity:0;stroke:#ff00ff;stroke-linejoin:miter;stroke-width:1.5;" x="333.168" xlink:href="#m910172ef33" y="20.880702"/>
     <use style="fill-opacity:0;stroke:#ff00ff;stroke-linejoin:miter;stroke-width:1.5;" x="363.64328" xlink:href="#m910172ef33" y="83.844622"/>
    </g>
   </g>
   <g id="line2d_66">
    <path d="M 333.168 9.697057 
L 363.64328 15.400716 
" style="fill:none;stroke:#6495ed;stroke-linecap:square;stroke-width:1.5;"/>
    <g>
     <use style="fill-opacity:0;stroke:#6495ed;stroke-linejoin:miter;stroke-width:1.5;" x="333.168" xlink:href="#m85a2ea8d52" y="9.697057"/>
     <use style="fill-opacity:0;stroke:#6495ed;stroke-linejoin:miter;stroke-width:1.5;" x="363.64328" xlink:href="#m85a2ea8d52" y="15.400716"/>
    </g>
   </g>
   <g id="line2d_67">
    <path d="M 333.168 294.88 
L 333.168 9.697057 
" style="fill:none;stroke:#000000;stroke-linecap:square;stroke-width:1.5;"/>
   </g>
   <g id="patch_3">
    <path d="M 56.12 294.88 
L 56.12 6.845228 
" style="fill:none;stroke:#000000;stroke-linecap:square;stroke-linejoin:miter;stroke-width:0.8;"/>
   </g>
   <g id="patch_4">
    <path d="M 333.168 294.88 
L 333.168 6.845228 
" style="fill:none;stroke:#000000;stroke-linecap:square;stroke-linejoin:miter;stroke-width:0.8;"/>
   </g>
   <g id="patch_5">
    <path d="M 56.12 294.88 
L 333.168 294.88 
" style="fill:none;stroke:#000000;stroke-linecap:square;stroke-linejoin:miter;stroke-width:0.8;"/>
   </g>
   <g id="patch_6">
    <path d="M 56.12 6.845228 
L 333.168 6.845228 
" style="fill:none;stroke:#000000;stroke-linecap:square;stroke-linejoin:miter;stroke-width:0.8;"/>
   </g>
   <g id="text_13">
    <!-- f10 -->
    <g transform="translate(369.18424 293.867279)scale(0.17 -0.17)">
     <use xlink:href="#DejaVuSans-66"/>
     <use x="35.205078" xlink:href="#DejaVuSans-31"/>
     <use x="98.828125" xlink:href="#DejaVuSans-30"/>
    </g>
   </g>
   <g id="text_14">
    <!-- f12 -->
    <g transform="translate(369.18424 225.423372)scale(0.17 -0.17)">
     <use xlink:href="#DejaVuSans-66"/>
     <use x="35.205078" xlink:href="#DejaVuSans-31"/>
     <use x="98.828125" xlink:href="#DejaVuSans-32"/>
    </g>
   </g>
   <g id="text_15">
    <!-- f14 -->
    <g transform="translate(369.18424 156.979466)scale(0.17 -0.17)">
     <use xlink:href="#DejaVuSans-66"/>
     <use x="35.205078" xlink:href="#DejaVuSans-31"/>
     <use x="98.828125" xlink:href="#DejaVuSans-34"/>
    </g>
   </g>
   <g id="text_16">
    <!-- f13 -->
    <defs>
     <path d="M 40.578125 39.3125 
Q 47.65625 37.796875 51.625 33 
Q 55.609375 28.21875 55.609375 21.1875 
Q 55.609375 10.40625 48.1875 4.484375 
Q 40.765625 -1.421875 27.09375 -1.421875 
Q 22.515625 -1.421875 17.65625 -0.515625 
Q 12.796875 0.390625 7.625 2.203125 
L 7.625 11.71875 
Q 11.71875 9.328125 16.59375 8.109375 
Q 21.484375 6.890625 26.8125 6.890625 
Q 36.078125 6.890625 40.9375 10.546875 
Q 45.796875 14.203125 45.796875 21.1875 
Q 45.796875 27.640625 41.28125 31.265625 
Q 36.765625 34.90625 28.71875 34.90625 
L 20.21875 34.90625 
L 20.21875 43.015625 
L 29.109375 43.015625 
Q 36.375 43.015625 40.234375 45.921875 
Q 44.09375 48.828125 44.09375 54.296875 
Q 44.09375 59.90625 40.109375 62.90625 
Q 36.140625 65.921875 28.71875 65.921875 
Q 24.65625 65.921875 20.015625 65.03125 
Q 15.375 64.15625 9.8125 62.3125 
L 9.8125 71.09375 
Q 15.4375 72.65625 20.34375 73.4375 
Q 25.25 74.21875 29.59375 74.21875 
Q 40.828125 74.21875 47.359375 69.109375 
Q 53.90625 64.015625 53.90625 55.328125 
Q 53.90625 49.265625 50.4375 45.09375 
Q 46.96875 40.921875 40.578125 39.3125 
z
" id="DejaVuSans-33"/>
    </defs>
    <g transform="translate(369.18424 88.53556)scale(0.17 -0.17)">
     <use xlink:href="#DejaVuSans-66"/>
     <use x="35.205078" xlink:href="#DejaVuSans-31"/>
     <use x="98.828125" xlink:href="#DejaVuSans-33"/>
    </g>
   </g>
   <g id="text_17">
    <!-- f11 -->
    <g transform="translate(369.18424 20.091654)scale(0.17 -0.17)">
     <use xlink:href="#DejaVuSans-66"/>
     <use x="35.205078" xlink:href="#DejaVuSans-31"/>
     <use x="98.828125" xlink:href="#DejaVuSans-31"/>
    </g>
   </g>
   <g id="text_18">
    <!-- bbob -->
    <defs>
     <path d="M 48.6875 27.296875 
Q 48.6875 37.203125 44.609375 42.84375 
Q 40.53125 48.484375 33.40625 48.484375 
Q 26.265625 48.484375 22.1875 42.84375 
Q 18.109375 37.203125 18.109375 27.296875 
Q 18.109375 17.390625 22.1875 11.75 
Q 26.265625 6.109375 33.40625 6.109375 
Q 40.53125 6.109375 44.609375 11.75 
Q 48.6875 17.390625 48.6875 27.296875 
z
M 18.109375 46.390625 
Q 20.953125 51.265625 25.265625 53.625 
Q 29.59375 56 35.59375 56 
Q 45.5625 56 51.78125 48.09375 
Q 58.015625 40.1875 58.015625 27.296875 
Q 58.015625 14.40625 51.78125 6.484375 
Q 45.5625 -1.421875 35.59375 -1.421875 
Q 29.59375 -1.421875 25.265625 0.953125 
Q 20.953125 3.328125 18.109375 8.203125 
L 18.109375 0 
L 9.078125 0 
L 9.078125 75.984375 
L 18.109375 75.984375 
z
" id="DejaVuSans-62"/>
    </defs>
    <g transform="translate(58.89048 17.475982)scale(0.102 -0.102)">
     <use xlink:href="#DejaVuSans-62"/>
     <use x="63.476562" xlink:href="#DejaVuSans-62"/>
     <use x="126.953125" xlink:href="#DejaVuSans-6f"/>
     <use x="188.134766" xlink:href="#DejaVuSans-62"/>
    </g>
    <!-- Ill-conditioned functions, 5-D -->
    <defs>
     <path d="M 9.8125 72.90625 
L 19.671875 72.90625 
L 19.671875 0 
L 9.8125 0 
z
" id="DejaVuSans-49"/>
     <path d="M 10.796875 72.90625 
L 49.515625 72.90625 
L 49.515625 64.59375 
L 19.828125 64.59375 
L 19.828125 46.734375 
Q 21.96875 47.46875 24.109375 47.828125 
Q 26.265625 48.1875 28.421875 48.1875 
Q 40.625 48.1875 47.75 41.5 
Q 54.890625 34.8125 54.890625 23.390625 
Q 54.890625 11.625 47.5625 5.09375 
Q 40.234375 -1.421875 26.90625 -1.421875 
Q 22.3125 -1.421875 17.546875 -0.640625 
Q 12.796875 0.140625 7.71875 1.703125 
L 7.71875 11.625 
Q 12.109375 9.234375 16.796875 8.0625 
Q 21.484375 6.890625 26.703125 6.890625 
Q 35.15625 6.890625 40.078125 11.328125 
Q 45.015625 15.765625 45.015625 23.390625 
Q 45.015625 31 40.078125 35.4375 
Q 35.15625 39.890625 26.703125 39.890625 
Q 22.75 39.890625 18.8125 39.015625 
Q 14.890625 38.140625 10.796875 36.28125 
z
" id="DejaVuSans-35"/>
     <path d="M 19.671875 64.796875 
L 19.671875 8.109375 
L 31.59375 8.109375 
Q 46.6875 8.109375 53.6875 14.9375 
Q 60.6875 21.78125 60.6875 36.53125 
Q 60.6875 51.171875 53.6875 57.984375 
Q 46.6875 64.796875 31.59375 64.796875 
z
M 9.8125 72.90625 
L 30.078125 72.90625 
Q 51.265625 72.90625 61.171875 64.09375 
Q 71.09375 55.28125 71.09375 36.53125 
Q 71.09375 17.671875 61.125 8.828125 
Q 51.171875 0 30.078125 0 
L 9.8125 0 
z
" id="DejaVuSans-44"/>
    </defs>
    <g transform="translate(58.89048 28.89775)scale(0.102 -0.102)">
     <use xlink:href="#DejaVuSans-49"/>
     <use x="29.492188" xlink:href="#DejaVuSans-6c"/>
     <use x="57.275391" xlink:href="#DejaVuSans-6c"/>
     <use x="85.058594" xlink:href="#DejaVuSans-2d"/>
     <use x="121.142578" xlink:href="#DejaVuSans-63"/>
     <use x="176.123047" xlink:href="#DejaVuSans-6f"/>
     <use x="237.304688" xlink:href="#DejaVuSans-6e"/>
     <use x="300.683594" xlink:href="#DejaVuSans-64"/>
     <use x="364.160156" xlink:href="#DejaVuSans-69"/>
     <use x="391.943359" xlink:href="#DejaVuSans-74"/>
     <use x="431.152344" xlink:href="#DejaVuSans-69"/>
     <use x="458.935547" xlink:href="#DejaVuSans-6f"/>
     <use x="520.117188" xlink:href="#DejaVuSans-6e"/>
     <use x="583.496094" xlink:href="#DejaVuSans-65"/>
     <use x="645.019531" xlink:href="#DejaVuSans-64"/>
     <use x="708.496094" xlink:href="#DejaVuSans-20"/>
     <use x="740.283203" xlink:href="#DejaVuSans-66"/>
     <use x="775.488281" xlink:href="#DejaVuSans-75"/>
     <use x="838.867188" xlink:href="#DejaVuSans-6e"/>
     <use x="902.246094" xlink:href="#DejaVuSans-63"/>
     <use x="957.226562" xlink:href="#DejaVuSans-74"/>
     <use x="996.435547" xlink:href="#DejaVuSans-69"/>
     <use x="1024.21875" xlink:href="#DejaVuSans-6f"/>
     <use x="1085.400391" xlink:href="#DejaVuSans-6e"/>
     <use x="1148.779297" xlink:href="#DejaVuSans-73"/>
     <use x="1200.878906" xlink:href="#DejaVuSans-2c"/>
     <use x="1232.666016" xlink:href="#DejaVuSans-20"/>
     <use x="1264.453125" xlink:href="#DejaVuSans-35"/>
     <use x="1328.076172" xlink:href="#DejaVuSans-2d"/>
     <use x="1364.160156" xlink:href="#DejaVuSans-44"/>
    </g>
    <!-- 51 targets: 100..1e-08 -->
    <defs>
     <path d="M 11.71875 12.40625 
L 22.015625 12.40625 
L 22.015625 0 
L 11.71875 0 
z
M 11.71875 51.703125 
L 22.015625 51.703125 
L 22.015625 39.3125 
L 11.71875 39.3125 
z
" id="DejaVuSans-3a"/>
    </defs>
    <g transform="translate(58.89048 40.319519)scale(0.102 -0.102)">
     <use xlink:href="#DejaVuSans-35"/>
     <use x="63.623047" xlink:href="#DejaVuSans-31"/>
     <use x="127.246094" xlink:href="#DejaVuSans-20"/>
     <use x="159.033203" xlink:href="#DejaVuSans-74"/>
     <use x="198.242188" xlink:href="#DejaVuSans-61"/>
     <use x="259.521484" xlink:href="#DejaVuSans-72"/>
     <use x="300.619141" xlink:href="#DejaVuSans-67"/>
     <use x="364.095703" xlink:href="#DejaVuSans-65"/>
     <use x="425.619141" xlink:href="#DejaVuSans-74"/>
     <use x="464.828125" xlink:href="#DejaVuSans-73"/>
     <use x="516.927734" xlink:href="#DejaVuSans-3a"/>
     <use x="550.619141" xlink:href="#DejaVuSans-20"/>
     <use x="582.40625" xlink:href="#DejaVuSans-31"/>
     <use x="646.029297" xlink:href="#DejaVuSans-30"/>
     <use x="709.652344" xlink:href="#DejaVuSans-30"/>
     <use x="773.275391" xlink:href="#DejaVuSans-2e"/>
     <use x="805.0625" xlink:href="#DejaVuSans-2e"/>
     <use x="836.849609" xlink:href="#DejaVuSans-31"/>
     <use x="900.472656" xlink:href="#DejaVuSans-65"/>
     <use x="961.996094" xlink:href="#DejaVuSans-2d"/>
     <use x="998.080078" xlink:href="#DejaVuSans-30"/>
     <use x="1061.703125" xlink:href="#DejaVuSans-38"/>
    </g>
    <!-- 15 instances -->
    <g transform="translate(58.89048 51.741288)scale(0.102 -0.102)">
     <use xlink:href="#DejaVuSans-31"/>
     <use x="63.623047" xlink:href="#DejaVuSans-35"/>
     <use x="127.246094" xlink:href="#DejaVuSans-20"/>
     <use x="159.033203" xlink:href="#DejaVuSans-69"/>
     <use x="186.816406" xlink:href="#DejaVuSans-6e"/>
     <use x="250.195312" xlink:href="#DejaVuSans-73"/>
     <use x="302.294922" xlink:href="#DejaVuSans-74"/>
     <use x="341.503906" xlink:href="#DejaVuSans-61"/>
     <use x="402.783203" xlink:href="#DejaVuSans-6e"/>
     <use x="466.162109" xlink:href="#DejaVuSans-63"/>
     <use x="521.142578" xlink:href="#DejaVuSans-65"/>
     <use x="582.666016" xlink:href="#DejaVuSans-73"/>
    </g>
   </g>
   <g id="text_19">
    <!-- v0.0.0 -->
    <g style="fill:#808080;" transform="translate(178.96275 289.919965)scale(0.1 -0.1)">
     <use xlink:href="#DejaVuSans-76"/>
     <use x="59.179688" xlink:href="#DejaVuSans-30"/>
     <use x="122.802734" xlink:href="#DejaVuSans-2e"/>
     <use x="154.589844" xlink:href="#DejaVuSans-30"/>
     <use x="218.212891" xlink:href="#DejaVuSans-2e"/>
     <use x="250" xlink:href="#DejaVuSans-30"/>
    </g>
   </g>
  </g>
 </g>
 <defs>
  <clipPath id="p96fc846b46">
   <rect height="288.034772" width="277.048" x="56.12" y="6.845228"/>
  </clipPath>
 </defs>
</svg>
