<?xml version="1.0" encoding="utf-8" standalone="no"?>
<!DOCTYPE svg PUBLIC "-//W3C//DTD SVG 1.1//EN"
  "http://www.w3.org/Graphics/SVG/1.1/DTD/svg11.dtd">
<!-- Created with matplotlib (http://matplotlib.org/) -->
<svg height="345.6pt" version="1.1" viewBox="0 0 460.8 345.6" width="460.8pt" xmlns="http://www.w3.org/2000/svg" xmlns:xlink="http://www.w3.org/1999/xlink">
 <defs>
  <style type="text/css">
*{stroke-linecap:butt;stroke-linejoin:round;}
  </style>
 </defs>
 <g id="figure_1">
  <g id="patch_1">
   <path d="M 0 345.6 
L 460.8 345.6 
L 460.8 0 
L 0 0 
z
" style="fill:#ffffff;"/>
  </g>
  <g id="axes_1">
   <g id="patch_2">
    <path d="M 56.12 294.88 
L 333.168 294.88 
L 333.168 6.845228 
L 56.12 6.845228 
z
" style="fill:#ffffff;"/>
   </g>
   <g id="matplotlib.axis_1">
    <g id="xtick_1">
     <g id="line2d_1">
      <path clip-path="url(#p08001dd8fe)" d="M 56.12 294.88 
L 56.12 6.845228 
" style="fill:none;stroke:#b0b0b0;stroke-linecap:square;stroke-width:0.8;"/>
     </g>
     <g id="line2d_2">
      <defs>
       <path d="M 0 0 
L 0 3.5 
" id="m620cf9ed78" style="stroke:#000000;stroke-width:0.8;"/>
      </defs>
      <g>
       <use style="stroke:#000000;stroke-width:0.8;" x="56.12" xlink:href="#m620cf9ed78" y="294.88"/>
      </g>
     </g>
     <g id="text_1">
      <!-- 0 -->
      <defs>
       <path d="M 31.78125 66.40625 
Q 24.171875 66.40625 20.328125 58.90625 
Q 16.5 51.421875 16.5 36.375 
Q 16.5 21.390625 20.328125 13.890625 
Q 24.171875 6.390625 31.78125 6.390625 
Q 39.453125 6.390625 43.28125 13.890625 
Q 47.125 21.390625 47.125 36.375 
Q 47.125 51.421875 43.28125 58.90625 
Q 39.453125 66.40625 31.78125 66.40625 
z
M 31.78125 74.21875 
Q 44.046875 74.21875 50.515625 64.515625 
Q 56.984375 54.828125 56.984375 36.375 
Q 56.984375 17.96875 50.515625 8.265625 
Q 44.046875 -1.421875 31.78125 -1.421875 
Q 19.53125 -1.421875 13.0625 8.265625 
Q 6.59375 17.96875 6.59375 36.375 
Q 6.59375 54.828125 13.0625 64.515625 
Q 19.53125 74.21875 31.78125 74.21875 
z
" id="DejaVuSans-30"/>
      </defs>
      <g transform="translate(49.7575 317.076875)scale(0.2 -0.2)">
       <use xlink:href="#DejaVuSans-30"/>
      </g>
     </g>
    </g>
    <g id="xtick_2">
     <g id="line2d_3">
      <path clip-path="url(#p08001dd8fe)" d="M 135.276571 294.88 
L 135.276571 6.845228 
" style="fill:none;stroke:#b0b0b0;stroke-linecap:square;stroke-width:0.8;"/>
     </g>
     <g id="line2d_4">
      <g>
       <use style="stroke:#000000;stroke-width:0.8;" x="135.276571" xlink:href="#m620cf9ed78" y="294.88"/>
      </g>
     </g>
     <g id="text_2">
      <!-- 2 -->
      <defs>
       <path d="M 19.1875 8.296875 
L 53.609375 8.296875 
L 53.609375 0 
L 7.328125 0 
L 7.328125 8.296875 
Q 12.9375 14.109375 22.625 23.890625 
Q 32.328125 33.6875 34.8125 36.53125 
Q 39.546875 41.84375 41.421875 45.53125 
Q 43.3125 49.21875 43.3125 52.78125 
Q 43.3125 58.59375 39.234375 62.25 
Q 35.15625 65.921875 28.609375 65.921875 
Q 23.96875 65.921875 18.8125 64.3125 
Q 13.671875 62.703125 7.8125 59.421875 
L 7.8125 69.390625 
Q 13.765625 71.78125 18.9375 73 
Q 24.125 74.21875 28.421875 74.21875 
Q 39.75 74.21875 46.484375 68.546875 
Q 53.21875 62.890625 53.21875 53.421875 
Q 53.21875 48.921875 51.53125 44.890625 
Q 49.859375 40.875 45.40625 35.40625 
Q 44.1875 33.984375 37.640625 27.21875 
Q 31.109375 20.453125 19.1875 8.296875 
z
" id="DejaVuSans-32"/>
      </defs>
      <g transform="translate(128.914071 317.076875)scale(0.2 -0.2)">
       <use xlink:href="#DejaVuSans-32"/>
      </g>
     </g>
    </g>
    <g id="xtick_3">
     <g id="line2d_5">
      <path clip-path="url(#p08001dd8fe)" d="M 214.433143 294.88 
L 214.433143 6.845228 
" style="fill:none;stroke:#b0b0b0;stroke-linecap:square;stroke-width:0.8;"/>
     </g>
     <g id="line2d_6">
      <g>
       <use style="stroke:#000000;stroke-width:0.8;" x="214.433143" xlink:href="#m620cf9ed78" y="294.88"/>
      </g>
     </g>
     <g id="text_3">
      <!-- 4 -->
      <defs>
       <path d="M 37.796875 64.3125 
L 12.890625 25.390625 
L 37.796875 25.390625 
z
M 35.203125 72.90625 
L 47.609375 72.90625 
L 47.609375 25.390625 
L 58.015625 25.390625 
L 58.015625 17.1875 
L 47.609375 17.1875 
L 47.609375 0 
L 37.796875 0 
L 37.796875 17.1875 
L 4.890625 17.1875 
L 4.890625 26.703125 
z
" id="DejaVuSans-34"/>
      </defs>
      <g transform="translate(208.070643 317.076875)scale(0.2 -0.2)">
       <use xlink:href="#DejaVuSans-34"/>
      </g>
     </g>
    </g>
    <g id="xtick_4">
     <g id="line2d_7">
      <path clip-path="url(#p08001dd8fe)" d="M 293.589714 294.88 
L 293.589714 6.845228 
" style="fill:none;stroke:#b0b0b0;stroke-linecap:square;stroke-width:0.8;"/>
     </g>
     <g id="line2d_8">
      <g>
       <use style="stroke:#000000;stroke-width:0.8;" x="293.589714" xlink:href="#m620cf9ed78" y="294.88"/>
      </g>
     </g>
     <g id="text_4">
      <!-- 6 -->
      <defs>
       <path d="M 33.015625 40.375 
Q 26.375 40.375 22.484375 35.828125 
Q 18.609375 31.296875 18.609375 23.390625 
Q 18.609375 15.53125 22.484375 10.953125 
Q 26.375 6.390625 33.015625 6.390625 
Q 39.65625 6.390625 43.53125 10.953125 
Q 47.40625 15.53125 47.40625 23.390625 
Q 47.40625 31.296875 43.53125 35.828125 
Q 39.65625 40.375 33.015625 40.375 
z
M 52.59375 71.296875 
L 52.59375 62.3125 
Q 48.875 64.0625 45.09375 64.984375 
Q 41.3125 65.921875 37.59375 65.921875 
Q 27.828125 65.921875 22.671875 59.328125 
Q 17.53125 52.734375 16.796875 39.40625 
Q 19.671875 43.65625 24.015625 45.921875 
Q 28.375 48.1875 33.59375 48.1875 
Q 44.578125 48.1875 50.953125 41.515625 
Q 57.328125 34.859375 57.328125 23.390625 
Q 57.328125 12.15625 50.6875 5.359375 
Q 44.046875 -1.421875 33.015625 -1.421875 
Q 20.359375 -1.421875 13.671875 8.265625 
Q 6.984375 17.96875 6.984375 36.375 
Q 6.984375 53.65625 15.1875 63.9375 
Q 23.390625 74.21875 37.203125 74.21875 
Q 40.921875 74.21875 44.703125 73.484375 
Q 48.484375 72.75 52.59375 71.296875 
z
" id="DejaVuSans-36"/>
      </defs>
      <g transform="translate(287.227214 317.076875)scale(0.2 -0.2)">
       <use xlink:href="#DejaVuSans-36"/>
      </g>
     </g>
    </g>
    <g id="xtick_5">
     <g id="line2d_9">
      <path clip-path="url(#p08001dd8fe)" d="M 56.12 294.88 
L 56.12 6.845228 
" style="fill:none;stroke:#b0b0b0;stroke-linecap:square;stroke-width:0.8;"/>
     </g>
     <g id="line2d_10">
      <defs>
       <path d="M 0 0 
L 0 2 
" id="m381c348df8" style="stroke:#000000;stroke-width:0.6;"/>
      </defs>
      <g>
       <use style="stroke:#000000;stroke-width:0.6;" x="56.12" xlink:href="#m381c348df8" y="294.88"/>
      </g>
     </g>
    </g>
    <g id="xtick_6">
     <g id="line2d_11">
      <path clip-path="url(#p08001dd8fe)" d="M 95.698286 294.88 
L 95.698286 6.845228 
" style="fill:none;stroke:#b0b0b0;stroke-linecap:square;stroke-width:0.8;"/>
     </g>
     <g id="line2d_12">
      <g>
       <use style="stroke:#000000;stroke-width:0.6;" x="95.698286" xlink:href="#m381c348df8" y="294.88"/>
      </g>
     </g>
    </g>
    <g id="xtick_7">
     <g id="line2d_13">
      <path clip-path="url(#p08001dd8fe)" d="M 135.276571 294.88 
L 135.276571 6.845228 
" style="fill:none;stroke:#b0b0b0;stroke-linecap:square;stroke-width:0.8;"/>
     </g>
     <g id="line2d_14">
      <g>
       <use style="stroke:#000000;stroke-width:0.6;" x="135.276571" xlink:href="#m381c348df8" y="294.88"/>
      </g>
     </g>
    </g>
    <g id="xtick_8">
     <g id="line2d_15">
      <path clip-path="url(#p08001dd8fe)" d="M 174.854857 294.88 
L 174.854857 6.845228 
" style="fill:none;stroke:#b0b0b0;stroke-linecap:square;stroke-width:0.8;"/>
     </g>
     <g id="line2d_16">
      <g>
       <use style="stroke:#000000;stroke-width:0.6;" x="174.854857" xlink:href="#m381c348df8" y="294.88"/>
      </g>
     </g>
    </g>
    <g id="xtick_9">
     <g id="line2d_17">
      <path clip-path="url(#p08001dd8fe)" d="M 214.433143 294.88 
L 214.433143 6.845228 
" style="fill:none;stroke:#b0b0b0;stroke-linecap:square;stroke-width:0.8;"/>
     </g>
     <g id="line2d_18">
      <g>
       <use style="stroke:#000000;stroke-width:0.6;" x="214.433143" xlink:href="#m381c348df8" y="294.88"/>
      </g>
     </g>
    </g>
    <g id="xtick_10">
     <g id="line2d_19">
      <path clip-path="url(#p08001dd8fe)" d="M 254.011429 294.88 
L 254.011429 6.845228 
" style="fill:none;stroke:#b0b0b0;stroke-linecap:square;stroke-width:0.8;"/>
     </g>
     <g id="line2d_20">
      <g>
       <use style="stroke:#000000;stroke-width:0.6;" x="254.011429" xlink:href="#m381c348df8" y="294.88"/>
      </g>
     </g>
    </g>
    <g id="xtick_11">
     <g id="line2d_21">
      <path clip-path="url(#p08001dd8fe)" d="M 293.589714 294.88 
L 293.589714 6.845228 
" style="fill:none;stroke:#b0b0b0;stroke-linecap:square;stroke-width:0.8;"/>
     </g>
     <g id="line2d_22">
      <g>
       <use style="stroke:#000000;stroke-width:0.6;" x="293.589714" xlink:href="#m381c348df8" y="294.88"/>
      </g>
     </g>
    </g>
    <g id="xtick_12">
     <g id="line2d_23">
      <path clip-path="url(#p08001dd8fe)" d="M 333.168 294.88 
L 333.168 6.845228 
" style="fill:none;stroke:#b0b0b0;stroke-linecap:square;stroke-width:0.8;"/>
     </g>
     <g id="line2d_24">
      <g>
       <use style="stroke:#000000;stroke-width:0.6;" x="333.168" xlink:href="#m381c348df8" y="294.88"/>
      </g>
     </g>
    </g>
    <g id="text_5">
     <!-- log10(# f-evals / dimension) -->
     <defs>
      <path d="M 9.421875 75.984375 
L 18.40625 75.984375 
L 18.40625 0 
L 9.421875 0 
z
" id="DejaVuSans-6c"/>
      <path d="M 30.609375 48.390625 
Q 23.390625 48.390625 19.1875 42.75 
Q 14.984375 37.109375 14.984375 27.296875 
Q 14.984375 17.484375 19.15625 11.84375 
Q 23.34375 6.203125 30.609375 6.203125 
Q 37.796875 6.203125 41.984375 11.859375 
Q 46.1875 17.53125 46.1875 27.296875 
Q 46.1875 37.015625 41.984375 42.703125 
Q 37.796875 48.390625 30.609375 48.390625 
z
M 30.609375 56 
Q 42.328125 56 49.015625 48.375 
Q 55.71875 40.765625 55.71875 27.296875 
Q 55.71875 13.875 49.015625 6.21875 
Q 42.328125 -1.421875 30.609375 -1.421875 
Q 18.84375 -1.421875 12.171875 6.21875 
Q 5.515625 13.875 5.515625 27.296875 
Q 5.515625 40.765625 12.171875 48.375 
Q 18.84375 56 30.609375 56 
z
" id="DejaVuSans-6f"/>
      <path d="M 45.40625 27.984375 
Q 45.40625 37.75 41.375 43.109375 
Q 37.359375 48.484375 30.078125 48.484375 
Q 22.859375 48.484375 18.828125 43.109375 
Q 14.796875 37.75 14.796875 27.984375 
Q 14.796875 18.265625 18.828125 12.890625 
Q 22.859375 7.515625 30.078125 7.515625 
Q 37.359375 7.515625 41.375 12.890625 
Q 45.40625 18.265625 45.40625 27.984375 
z
M 54.390625 6.78125 
Q 54.390625 -7.171875 48.1875 -13.984375 
Q 42 -20.796875 29.203125 -20.796875 
Q 24.46875 -20.796875 20.265625 -20.09375 
Q 16.0625 -19.390625 12.109375 -17.921875 
L 12.109375 -9.1875 
Q 16.0625 -11.328125 19.921875 -12.34375 
Q 23.78125 -13.375 27.78125 -13.375 
Q 36.625 -13.375 41.015625 -8.765625 
Q 45.40625 -4.15625 45.40625 5.171875 
L 45.40625 9.625 
Q 42.625 4.78125 38.28125 2.390625 
Q 33.9375 0 27.875 0 
Q 17.828125 0 11.671875 7.65625 
Q 5.515625 15.328125 5.515625 27.984375 
Q 5.515625 40.671875 11.671875 48.328125 
Q 17.828125 56 27.875 56 
Q 33.9375 56 38.28125 53.609375 
Q 42.625 51.21875 45.40625 46.390625 
L 45.40625 54.6875 
L 54.390625 54.6875 
z
" id="DejaVuSans-67"/>
      <path d="M 12.40625 8.296875 
L 28.515625 8.296875 
L 28.515625 63.921875 
L 10.984375 60.40625 
L 10.984375 69.390625 
L 28.421875 72.90625 
L 38.28125 72.90625 
L 38.28125 8.296875 
L 54.390625 8.296875 
L 54.390625 0 
L 12.40625 0 
z
" id="DejaVuSans-31"/>
      <path d="M 31 75.875 
Q 24.46875 64.65625 21.28125 53.65625 
Q 18.109375 42.671875 18.109375 31.390625 
Q 18.109375 20.125 21.3125 9.0625 
Q 24.515625 -2 31 -13.1875 
L 23.1875 -13.1875 
Q 15.875 -1.703125 12.234375 9.375 
Q 8.59375 20.453125 8.59375 31.390625 
Q 8.59375 42.28125 12.203125 53.3125 
Q 15.828125 64.359375 23.1875 75.875 
z
" id="DejaVuSans-28"/>
      <path d="M 51.125 44 
L 36.921875 44 
L 32.8125 27.6875 
L 47.125 27.6875 
z
M 43.796875 71.78125 
L 38.71875 51.515625 
L 52.984375 51.515625 
L 58.109375 71.78125 
L 65.921875 71.78125 
L 60.890625 51.515625 
L 76.125 51.515625 
L 76.125 44 
L 58.984375 44 
L 54.984375 27.6875 
L 70.515625 27.6875 
L 70.515625 20.21875 
L 53.078125 20.21875 
L 48 0 
L 40.1875 0 
L 45.21875 20.21875 
L 30.90625 20.21875 
L 25.875 0 
L 18.015625 0 
L 23.09375 20.21875 
L 7.71875 20.21875 
L 7.71875 27.6875 
L 24.90625 27.6875 
L 29 44 
L 13.28125 44 
L 13.28125 51.515625 
L 30.90625 51.515625 
L 35.890625 71.78125 
z
" id="DejaVuSans-23"/>
      <path id="DejaVuSans-20"/>
      <path d="M 37.109375 75.984375 
L 37.109375 68.5 
L 28.515625 68.5 
Q 23.6875 68.5 21.796875 66.546875 
Q 19.921875 64.59375 19.921875 59.515625 
L 19.921875 54.6875 
L 34.71875 54.6875 
L 34.71875 47.703125 
L 19.921875 47.703125 
L 19.921875 0 
L 10.890625 0 
L 10.890625 47.703125 
L 2.296875 47.703125 
L 2.296875 54.6875 
L 10.890625 54.6875 
L 10.890625 58.5 
Q 10.890625 67.625 15.140625 71.796875 
Q 19.390625 75.984375 28.609375 75.984375 
z
" id="DejaVuSans-66"/>
      <path d="M 4.890625 31.390625 
L 31.203125 31.390625 
L 31.203125 23.390625 
L 4.890625 23.390625 
z
" id="DejaVuSans-2d"/>
      <path d="M 56.203125 29.59375 
L 56.203125 25.203125 
L 14.890625 25.203125 
Q 15.484375 15.921875 20.484375 11.0625 
Q 25.484375 6.203125 34.421875 6.203125 
Q 39.59375 6.203125 44.453125 7.46875 
Q 49.3125 8.734375 54.109375 11.28125 
L 54.109375 2.78125 
Q 49.265625 0.734375 44.1875 -0.34375 
Q 39.109375 -1.421875 33.890625 -1.421875 
Q 20.796875 -1.421875 13.15625 6.1875 
Q 5.515625 13.8125 5.515625 26.8125 
Q 5.515625 40.234375 12.765625 48.109375 
Q 20.015625 56 32.328125 56 
Q 43.359375 56 49.78125 48.890625 
Q 56.203125 41.796875 56.203125 29.59375 
z
M 47.21875 32.234375 
Q 47.125 39.59375 43.09375 43.984375 
Q 39.0625 48.390625 32.421875 48.390625 
Q 24.90625 48.390625 20.390625 44.140625 
Q 15.875 39.890625 15.1875 32.171875 
z
" id="DejaVuSans-65"/>
      <path d="M 2.984375 54.6875 
L 12.5 54.6875 
L 29.59375 8.796875 
L 46.6875 54.6875 
L 56.203125 54.6875 
L 35.6875 0 
L 23.484375 0 
z
" id="DejaVuSans-76"/>
      <path d="M 34.28125 27.484375 
Q 23.390625 27.484375 19.1875 25 
Q 14.984375 22.515625 14.984375 16.5 
Q 14.984375 11.71875 18.140625 8.90625 
Q 21.296875 6.109375 26.703125 6.109375 
Q 34.1875 6.109375 38.703125 11.40625 
Q 43.21875 16.703125 43.21875 25.484375 
L 43.21875 27.484375 
z
M 52.203125 31.203125 
L 52.203125 0 
L 43.21875 0 
L 43.21875 8.296875 
Q 40.140625 3.328125 35.546875 0.953125 
Q 30.953125 -1.421875 24.3125 -1.421875 
Q 15.921875 -1.421875 10.953125 3.296875 
Q 6 8.015625 6 15.921875 
Q 6 25.140625 12.171875 29.828125 
Q 18.359375 34.515625 30.609375 34.515625 
L 43.21875 34.515625 
L 43.21875 35.40625 
Q 43.21875 41.609375 39.140625 45 
Q 35.0625 48.390625 27.6875 48.390625 
Q 23 48.390625 18.546875 47.265625 
Q 14.109375 46.140625 10.015625 43.890625 
L 10.015625 52.203125 
Q 14.9375 54.109375 19.578125 55.046875 
Q 24.21875 56 28.609375 56 
Q 40.484375 56 46.34375 49.84375 
Q 52.203125 43.703125 52.203125 31.203125 
z
" id="DejaVuSans-61"/>
      <path d="M 44.28125 53.078125 
L 44.28125 44.578125 
Q 40.484375 46.53125 36.375 47.5 
Q 32.28125 48.484375 27.875 48.484375 
Q 21.1875 48.484375 17.84375 46.4375 
Q 14.5 44.390625 14.5 40.28125 
Q 14.5 37.15625 16.890625 35.375 
Q 19.28125 33.59375 26.515625 31.984375 
L 29.59375 31.296875 
Q 39.15625 29.25 43.1875 25.515625 
Q 47.21875 21.78125 47.21875 15.09375 
Q 47.21875 7.46875 41.1875 3.015625 
Q 35.15625 -1.421875 24.609375 -1.421875 
Q 20.21875 -1.421875 15.453125 -0.5625 
Q 10.6875 0.296875 5.421875 2 
L 5.421875 11.28125 
Q 10.40625 8.6875 15.234375 7.390625 
Q 20.0625 6.109375 24.8125 6.109375 
Q 31.15625 6.109375 34.5625 8.28125 
Q 37.984375 10.453125 37.984375 14.40625 
Q 37.984375 18.0625 35.515625 20.015625 
Q 33.0625 21.96875 24.703125 23.78125 
L 21.578125 24.515625 
Q 13.234375 26.265625 9.515625 29.90625 
Q 5.8125 33.546875 5.8125 39.890625 
Q 5.8125 47.609375 11.28125 51.796875 
Q 16.75 56 26.8125 56 
Q 31.78125 56 36.171875 55.265625 
Q 40.578125 54.546875 44.28125 53.078125 
z
" id="DejaVuSans-73"/>
      <path d="M 25.390625 72.90625 
L 33.6875 72.90625 
L 8.296875 -9.28125 
L 0 -9.28125 
z
" id="DejaVuSans-2f"/>
      <path d="M 45.40625 46.390625 
L 45.40625 75.984375 
L 54.390625 75.984375 
L 54.390625 0 
L 45.40625 0 
L 45.40625 8.203125 
Q 42.578125 3.328125 38.25 0.953125 
Q 33.9375 -1.421875 27.875 -1.421875 
Q 17.96875 -1.421875 11.734375 6.484375 
Q 5.515625 14.40625 5.515625 27.296875 
Q 5.515625 40.1875 11.734375 48.09375 
Q 17.96875 56 27.875 56 
Q 33.9375 56 38.25 53.625 
Q 42.578125 51.265625 45.40625 46.390625 
z
M 14.796875 27.296875 
Q 14.796875 17.390625 18.875 11.75 
Q 22.953125 6.109375 30.078125 6.109375 
Q 37.203125 6.109375 41.296875 11.75 
Q 45.40625 17.390625 45.40625 27.296875 
Q 45.40625 37.203125 41.296875 42.84375 
Q 37.203125 48.484375 30.078125 48.484375 
Q 22.953125 48.484375 18.875 42.84375 
Q 14.796875 37.203125 14.796875 27.296875 
z
" id="DejaVuSans-64"/>
      <path d="M 9.421875 54.6875 
L 18.40625 54.6875 
L 18.40625 0 
L 9.421875 0 
z
M 9.421875 75.984375 
L 18.40625 75.984375 
L 18.40625 64.59375 
L 9.421875 64.59375 
z
" id="DejaVuSans-69"/>
      <path d="M 52 44.1875 
Q 55.375 50.25 60.0625 53.125 
Q 64.75 56 71.09375 56 
Q 79.640625 56 84.28125 50.015625 
Q 88.921875 44.046875 88.921875 33.015625 
L 88.921875 0 
L 79.890625 0 
L 79.890625 32.71875 
Q 79.890625 40.578125 77.09375 44.375 
Q 74.3125 48.1875 68.609375 48.1875 
Q 61.625 48.1875 57.5625 43.546875 
Q 53.515625 38.921875 53.515625 30.90625 
L 53.515625 0 
L 44.484375 0 
L 44.484375 32.71875 
Q 44.484375 40.625 41.703125 44.40625 
Q 38.921875 48.1875 33.109375 48.1875 
Q 26.21875 48.1875 22.15625 43.53125 
Q 18.109375 38.875 18.109375 30.90625 
L 18.109375 0 
L 9.078125 0 
L 9.078125 54.6875 
L 18.109375 54.6875 
L 18.109375 46.1875 
Q 21.1875 51.21875 25.484375 53.609375 
Q 29.78125 56 35.6875 56 
Q 41.65625 56 45.828125 52.96875 
Q 50 49.953125 52 44.1875 
z
" id="DejaVuSans-6d"/>
      <path d="M 54.890625 33.015625 
L 54.890625 0 
L 45.90625 0 
L 45.90625 32.71875 
Q 45.90625 40.484375 42.875 44.328125 
Q 39.84375 48.1875 33.796875 48.1875 
Q 26.515625 48.1875 22.3125 43.546875 
Q 18.109375 38.921875 18.109375 30.90625 
L 18.109375 0 
L 9.078125 0 
L 9.078125 54.6875 
L 18.109375 54.6875 
L 18.109375 46.1875 
Q 21.34375 51.125 25.703125 53.5625 
Q 30.078125 56 35.796875 56 
Q 45.21875 56 50.046875 50.171875 
Q 54.890625 44.34375 54.890625 33.015625 
z
" id="DejaVuSans-6e"/>
      <path d="M 8.015625 75.875 
L 15.828125 75.875 
Q 23.140625 64.359375 26.78125 53.3125 
Q 30.421875 42.28125 30.421875 31.390625 
Q 30.421875 20.453125 26.78125 9.375 
Q 23.140625 -1.703125 15.828125 -13.1875 
L 8.015625 -13.1875 
Q 14.5 -2 17.703125 9.0625 
Q 20.90625 20.125 20.90625 31.390625 
Q 20.90625 42.671875 17.703125 53.65625 
Q 14.5 64.65625 8.015625 75.875 
z
" id="DejaVuSans-29"/>
     </defs>
     <g transform="translate(73.803219 338.153594)scale(0.17 -0.17)">
      <use xlink:href="#DejaVuSans-6c"/>
      <use x="27.783203" xlink:href="#DejaVuSans-6f"/>
      <use x="88.964844" xlink:href="#DejaVuSans-67"/>
      <use x="152.441406" xlink:href="#DejaVuSans-31"/>
      <use x="216.064453" xlink:href="#DejaVuSans-30"/>
      <use x="279.6875" xlink:href="#DejaVuSans-28"/>
      <use x="318.701172" xlink:href="#DejaVuSans-23"/>
      <use x="402.490234" xlink:href="#DejaVuSans-20"/>
      <use x="434.277344" xlink:href="#DejaVuSans-66"/>
      <use x="469.404297" xlink:href="#DejaVuSans-2d"/>
      <use x="505.488281" xlink:href="#DejaVuSans-65"/>
      <use x="567.011719" xlink:href="#DejaVuSans-76"/>
      <use x="626.191406" xlink:href="#DejaVuSans-61"/>
      <use x="687.470703" xlink:href="#DejaVuSans-6c"/>
      <use x="715.253906" xlink:href="#DejaVuSans-73"/>
      <use x="767.353516" xlink:href="#DejaVuSans-20"/>
      <use x="799.140625" xlink:href="#DejaVuSans-2f"/>
      <use x="832.832031" xlink:href="#DejaVuSans-20"/>
      <use x="864.619141" xlink:href="#DejaVuSans-64"/>
      <use x="928.095703" xlink:href="#DejaVuSans-69"/>
      <use x="955.878906" xlink:href="#DejaVuSans-6d"/>
      <use x="1053.291016" xlink:href="#DejaVuSans-65"/>
      <use x="1114.814453" xlink:href="#DejaVuSans-6e"/>
      <use x="1178.193359" xlink:href="#DejaVuSans-73"/>
      <use x="1230.292969" xlink:href="#DejaVuSans-69"/>
      <use x="1258.076172" xlink:href="#DejaVuSans-6f"/>
      <use x="1319.257812" xlink:href="#DejaVuSans-6e"/>
      <use x="1382.636719" xlink:href="#DejaVuSans-29"/>
     </g>
    </g>
   </g>
   <g id="matplotlib.axis_2">
    <g id="ytick_1">
     <g id="line2d_25">
      <path clip-path="url(#p08001dd8fe)" d="M 56.12 294.88 
L 333.168 294.88 
" style="fill:none;stroke:#b0b0b0;stroke-linecap:square;stroke-width:0.8;"/>
     </g>
     <g id="line2d_26">
      <defs>
       <path d="M 0 0 
L -3.5 0 
" id="m9adfe5045f" style="stroke:#000000;stroke-width:0.8;"/>
      </defs>
      <g>
       <use style="stroke:#000000;stroke-width:0.8;" x="56.12" xlink:href="#m9adfe5045f" y="294.88"/>
      </g>
     </g>
     <g id="text_6">
      <!-- 0.0 -->
      <defs>
       <path d="M 10.6875 12.40625 
L 21 12.40625 
L 21 0 
L 10.6875 0 
z
" id="DejaVuSans-2e"/>
      </defs>
      <g transform="translate(23.675 300.95875)scale(0.16 -0.16)">
       <use xlink:href="#DejaVuSans-30"/>
       <use x="63.623047" xlink:href="#DejaVuSans-2e"/>
       <use x="95.410156" xlink:href="#DejaVuSans-30"/>
      </g>
     </g>
    </g>
    <g id="ytick_2">
     <g id="line2d_27">
      <path clip-path="url(#p08001dd8fe)" d="M 56.12 237.843411 
L 333.168 237.843411 
" style="fill:none;stroke:#b0b0b0;stroke-linecap:square;stroke-width:0.8;"/>
     </g>
     <g id="line2d_28">
      <g>
       <use style="stroke:#000000;stroke-width:0.8;" x="56.12" xlink:href="#m9adfe5045f" y="237.843411"/>
      </g>
     </g>
     <g id="text_7">
      <!-- 0.2 -->
      <g transform="translate(23.675 243.922161)scale(0.16 -0.16)">
       <use xlink:href="#DejaVuSans-30"/>
       <use x="63.623047" xlink:href="#DejaVuSans-2e"/>
       <use x="95.410156" xlink:href="#DejaVuSans-32"/>
      </g>
     </g>
    </g>
    <g id="ytick_3">
     <g id="line2d_29">
      <path clip-path="url(#p08001dd8fe)" d="M 56.12 180.806823 
L 333.168 180.806823 
" style="fill:none;stroke:#b0b0b0;stroke-linecap:square;stroke-width:0.8;"/>
     </g>
     <g id="line2d_30">
      <g>
       <use style="stroke:#000000;stroke-width:0.8;" x="56.12" xlink:href="#m9adfe5045f" y="180.806823"/>
      </g>
     </g>
     <g id="text_8">
      <!-- 0.4 -->
      <g transform="translate(23.675 186.885573)scale(0.16 -0.16)">
       <use xlink:href="#DejaVuSans-30"/>
       <use x="63.623047" xlink:href="#DejaVuSans-2e"/>
       <use x="95.410156" xlink:href="#DejaVuSans-34"/>
      </g>
     </g>
    </g>
    <g id="ytick_4">
     <g id="line2d_31">
      <path clip-path="url(#p08001dd8fe)" d="M 56.12 123.770234 
L 333.168 123.770234 
" style="fill:none;stroke:#b0b0b0;stroke-linecap:square;stroke-width:0.8;"/>
     </g>
     <g id="line2d_32">
      <g>
       <use style="stroke:#000000;stroke-width:0.8;" x="56.12" xlink:href="#m9adfe5045f" y="123.770234"/>
      </g>
     </g>
     <g id="text_9">
      <!-- 0.6 -->
      <g transform="translate(23.675 129.848984)scale(0.16 -0.16)">
       <use xlink:href="#DejaVuSans-30"/>
       <use x="63.623047" xlink:href="#DejaVuSans-2e"/>
       <use x="95.410156" xlink:href="#DejaVuSans-36"/>
      </g>
     </g>
    </g>
    <g id="ytick_5">
     <g id="line2d_33">
      <path clip-path="url(#p08001dd8fe)" d="M 56.12 66.733646 
L 333.168 66.733646 
" style="fill:none;stroke:#b0b0b0;stroke-linecap:square;stroke-width:0.8;"/>
     </g>
     <g id="line2d_34">
      <g>
       <use style="stroke:#000000;stroke-width:0.8;" x="56.12" xlink:href="#m9adfe5045f" y="66.733646"/>
      </g>
     </g>
     <g id="text_10">
      <!-- 0.8 -->
      <defs>
       <path d="M 31.78125 34.625 
Q 24.75 34.625 20.71875 30.859375 
Q 16.703125 27.09375 16.703125 20.515625 
Q 16.703125 13.921875 20.71875 10.15625 
Q 24.75 6.390625 31.78125 6.390625 
Q 38.8125 6.390625 42.859375 10.171875 
Q 46.921875 13.96875 46.921875 20.515625 
Q 46.921875 27.09375 42.890625 30.859375 
Q 38.875 34.625 31.78125 34.625 
z
M 21.921875 38.8125 
Q 15.578125 40.375 12.03125 44.71875 
Q 8.5 49.078125 8.5 55.328125 
Q 8.5 64.0625 14.71875 69.140625 
Q 20.953125 74.21875 31.78125 74.21875 
Q 42.671875 74.21875 48.875 69.140625 
Q 55.078125 64.0625 55.078125 55.328125 
Q 55.078125 49.078125 51.53125 44.71875 
Q 48 40.375 41.703125 38.8125 
Q 48.828125 37.15625 52.796875 32.3125 
Q 56.78125 27.484375 56.78125 20.515625 
Q 56.78125 9.90625 50.3125 4.234375 
Q 43.84375 -1.421875 31.78125 -1.421875 
Q 19.734375 -1.421875 13.25 4.234375 
Q 6.78125 9.90625 6.78125 20.515625 
Q 6.78125 27.484375 10.78125 32.3125 
Q 14.796875 37.15625 21.921875 38.8125 
z
M 18.3125 54.390625 
Q 18.3125 48.734375 21.84375 45.5625 
Q 25.390625 42.390625 31.78125 42.390625 
Q 38.140625 42.390625 41.71875 45.5625 
Q 45.3125 48.734375 45.3125 54.390625 
Q 45.3125 60.0625 41.71875 63.234375 
Q 38.140625 66.40625 31.78125 66.40625 
Q 25.390625 66.40625 21.84375 63.234375 
Q 18.3125 60.0625 18.3125 54.390625 
z
" id="DejaVuSans-38"/>
      </defs>
      <g transform="translate(23.675 72.812396)scale(0.16 -0.16)">
       <use xlink:href="#DejaVuSans-30"/>
       <use x="63.623047" xlink:href="#DejaVuSans-2e"/>
       <use x="95.410156" xlink:href="#DejaVuSans-38"/>
      </g>
     </g>
    </g>
    <g id="ytick_6">
     <g id="line2d_35">
      <path clip-path="url(#p08001dd8fe)" d="M 56.12 9.697057 
L 333.168 9.697057 
" style="fill:none;stroke:#b0b0b0;stroke-linecap:square;stroke-width:0.8;"/>
     </g>
     <g id="line2d_36">
      <g>
       <use style="stroke:#000000;stroke-width:0.8;" x="56.12" xlink:href="#m9adfe5045f" y="9.697057"/>
      </g>
     </g>
     <g id="text_11">
      <!-- 1.0 -->
      <g transform="translate(23.675 15.775807)scale(0.16 -0.16)">
       <use xlink:href="#DejaVuSans-31"/>
       <use x="63.623047" xlink:href="#DejaVuSans-2e"/>
       <use x="95.410156" xlink:href="#DejaVuSans-30"/>
      </g>
     </g>
    </g>
    <g id="text_12">
     <!-- Fraction of function,target pairs -->
     <defs>
      <path d="M 9.8125 72.90625 
L 51.703125 72.90625 
L 51.703125 64.59375 
L 19.671875 64.59375 
L 19.671875 43.109375 
L 48.578125 43.109375 
L 48.578125 34.8125 
L 19.671875 34.8125 
L 19.671875 0 
L 9.8125 0 
z
" id="DejaVuSans-46"/>
      <path d="M 41.109375 46.296875 
Q 39.59375 47.171875 37.8125 47.578125 
Q 36.03125 48 33.890625 48 
Q 26.265625 48 22.1875 43.046875 
Q 18.109375 38.09375 18.109375 28.8125 
L 18.109375 0 
L 9.078125 0 
L 9.078125 54.6875 
L 18.109375 54.6875 
L 18.109375 46.1875 
Q 20.953125 51.171875 25.484375 53.578125 
Q 30.03125 56 36.53125 56 
Q 37.453125 56 38.578125 55.875 
Q 39.703125 55.765625 41.0625 55.515625 
z
" id="DejaVuSans-72"/>
      <path d="M 48.78125 52.59375 
L 48.78125 44.1875 
Q 44.96875 46.296875 41.140625 47.34375 
Q 37.3125 48.390625 33.40625 48.390625 
Q 24.65625 48.390625 19.8125 42.84375 
Q 14.984375 37.3125 14.984375 27.296875 
Q 14.984375 17.28125 19.8125 11.734375 
Q 24.65625 6.203125 33.40625 6.203125 
Q 37.3125 6.203125 41.140625 7.25 
Q 44.96875 8.296875 48.78125 10.40625 
L 48.78125 2.09375 
Q 45.015625 0.34375 40.984375 -0.53125 
Q 36.96875 -1.421875 32.421875 -1.421875 
Q 20.0625 -1.421875 12.78125 6.34375 
Q 5.515625 14.109375 5.515625 27.296875 
Q 5.515625 40.671875 12.859375 48.328125 
Q 20.21875 56 33.015625 56 
Q 37.15625 56 41.109375 55.140625 
Q 45.0625 54.296875 48.78125 52.59375 
z
" id="DejaVuSans-63"/>
      <path d="M 18.3125 70.21875 
L 18.3125 54.6875 
L 36.8125 54.6875 
L 36.8125 47.703125 
L 18.3125 47.703125 
L 18.3125 18.015625 
Q 18.3125 11.328125 20.140625 9.421875 
Q 21.96875 7.515625 27.59375 7.515625 
L 36.8125 7.515625 
L 36.8125 0 
L 27.59375 0 
Q 17.1875 0 13.234375 3.875 
Q 9.28125 7.765625 9.28125 18.015625 
L 9.28125 47.703125 
L 2.6875 47.703125 
L 2.6875 54.6875 
L 9.28125 54.6875 
L 9.28125 70.21875 
z
" id="DejaVuSans-74"/>
      <path d="M 8.5 21.578125 
L 8.5 54.6875 
L 17.484375 54.6875 
L 17.484375 21.921875 
Q 17.484375 14.15625 20.5 10.265625 
Q 23.53125 6.390625 29.59375 6.390625 
Q 36.859375 6.390625 41.078125 11.03125 
Q 45.3125 15.671875 45.3125 23.6875 
L 45.3125 54.6875 
L 54.296875 54.6875 
L 54.296875 0 
L 45.3125 0 
L 45.3125 8.40625 
Q 42.046875 3.421875 37.71875 1 
Q 33.40625 -1.421875 27.6875 -1.421875 
Q 18.265625 -1.421875 13.375 4.4375 
Q 8.5 10.296875 8.5 21.578125 
z
M 31.109375 56 
z
" id="DejaVuSans-75"/>
      <path d="M 11.71875 12.40625 
L 22.015625 12.40625 
L 22.015625 4 
L 14.015625 -11.625 
L 7.71875 -11.625 
L 11.71875 4 
z
" id="DejaVuSans-2c"/>
      <path d="M 18.109375 8.203125 
L 18.109375 -20.796875 
L 9.078125 -20.796875 
L 9.078125 54.6875 
L 18.109375 54.6875 
L 18.109375 46.390625 
Q 20.953125 51.265625 25.265625 53.625 
Q 29.59375 56 35.59375 56 
Q 45.5625 56 51.78125 48.09375 
Q 58.015625 40.1875 58.015625 27.296875 
Q 58.015625 14.40625 51.78125 6.484375 
Q 45.5625 -1.421875 35.59375 -1.421875 
Q 29.59375 -1.421875 25.265625 0.953125 
Q 20.953125 3.328125 18.109375 8.203125 
z
M 48.6875 27.296875 
Q 48.6875 37.203125 44.609375 42.84375 
Q 40.53125 48.484375 33.40625 48.484375 
Q 26.265625 48.484375 22.1875 42.84375 
Q 18.109375 37.203125 18.109375 27.296875 
Q 18.109375 17.390625 22.1875 11.75 
Q 26.265625 6.109375 33.40625 6.109375 
Q 40.53125 6.109375 44.609375 11.75 
Q 48.6875 17.390625 48.6875 27.296875 
z
" id="DejaVuSans-70"/>
     </defs>
     <g transform="translate(16.139531 286.001989)rotate(-90)scale(0.17 -0.17)">
      <use xlink:href="#DejaVuSans-46"/>
      <use x="57.410156" xlink:href="#DejaVuSans-72"/>
      <use x="98.523438" xlink:href="#DejaVuSans-61"/>
      <use x="159.802734" xlink:href="#DejaVuSans-63"/>
      <use x="214.783203" xlink:href="#DejaVuSans-74"/>
      <use x="253.992188" xlink:href="#DejaVuSans-69"/>
      <use x="281.775391" xlink:href="#DejaVuSans-6f"/>
      <use x="342.957031" xlink:href="#DejaVuSans-6e"/>
      <use x="406.335938" xlink:href="#DejaVuSans-20"/>
      <use x="438.123047" xlink:href="#DejaVuSans-6f"/>
      <use x="499.304688" xlink:href="#DejaVuSans-66"/>
      <use x="534.509766" xlink:href="#DejaVuSans-20"/>
      <use x="566.296875" xlink:href="#DejaVuSans-66"/>
      <use x="601.501953" xlink:href="#DejaVuSans-75"/>
      <use x="664.880859" xlink:href="#DejaVuSans-6e"/>
      <use x="728.259766" xlink:href="#DejaVuSans-63"/>
      <use x="783.240234" xlink:href="#DejaVuSans-74"/>
      <use x="822.449219" xlink:href="#DejaVuSans-69"/>
      <use x="850.232422" xlink:href="#DejaVuSans-6f"/>
      <use x="911.414062" xlink:href="#DejaVuSans-6e"/>
      <use x="974.792969" xlink:href="#DejaVuSans-2c"/>
      <use x="1006.580078" xlink:href="#DejaVuSans-74"/>
      <use x="1045.789062" xlink:href="#DejaVuSans-61"/>
      <use x="1107.068359" xlink:href="#DejaVuSans-72"/>
      <use x="1148.166016" xlink:href="#DejaVuSans-67"/>
      <use x="1211.642578" xlink:href="#DejaVuSans-65"/>
      <use x="1273.166016" xlink:href="#DejaVuSans-74"/>
      <use x="1312.375" xlink:href="#DejaVuSans-20"/>
      <use x="1344.162109" xlink:href="#DejaVuSans-70"/>
      <use x="1407.638672" xlink:href="#DejaVuSans-61"/>
      <use x="1468.917969" xlink:href="#DejaVuSans-69"/>
      <use x="1496.701172" xlink:href="#DejaVuSans-72"/>
      <use x="1537.814453" xlink:href="#DejaVuSans-73"/>
     </g>
    </g>
   </g>
   <g id="line2d_37">
    <defs>
     <path d="M 0 1.5 
C 0.397805 1.5 0.77937 1.341951 1.06066 1.06066 
C 1.341951 0.77937 1.5 0.397805 1.5 0 
C 1.5 -0.397805 1.341951 -0.77937 1.06066 -1.06066 
C 0.77937 -1.341951 0.397805 -1.5 0 -1.5 
C -0.397805 -1.5 -0.77937 -1.341951 -1.06066 -1.06066 
C -1.341951 -0.77937 -1.5 -0.397805 -1.5 0 
C -1.5 0.397805 -1.341951 0.77937 -1.06066 1.06066 
C -0.77937 1.341951 -0.397805 1.5 0 1.5 
z
" id="ma2093850fa" style="stroke:#000080;"/>
    </defs>
    <g>
     <use style="fill:#000080;stroke:#000080;" x="171.036505" xlink:href="#ma2093850fa" y="9.697057"/>
     <use style="fill:#000080;stroke:#000080;" x="171.036505" xlink:href="#ma2093850fa" y="9.697057"/>
    </g>
   </g>
   <g id="line2d_38">
    <path d="M 28.455965 294.88 
L 28.455965 278.104533 
L 52.284468 278.104533 
L 52.284468 277.545351 
L 59.253858 277.545351 
L 59.253858 276.986168 
L 61.903497 276.986168 
L 61.903497 273.071893 
L 64.198719 273.071893 
L 64.198719 272.51271 
L 68.034251 272.51271 
L 68.034251 271.394346 
L 69.672503 271.394346 
L 69.672503 270.835164 
L 77.155024 270.835164 
L 77.155024 269.157617 
L 82.350819 269.157617 
L 82.350819 266.920888 
L 90.522701 266.920888 
L 90.522701 266.361706 
L 95.351029 266.361706 
L 95.351029 264.124977 
L 96.699848 264.124977 
L 96.699848 263.565795 
L 99.941473 263.565795 
L 99.941473 263.006612 
L 106.365146 263.006612 
L 106.365146 262.44743 
L 107.612537 262.44743 
L 107.612537 261.888248 
L 108.286687 261.888248 
L 108.286687 261.329066 
L 108.775496 261.329066 
L 108.775496 260.210701 
L 110.457504 260.210701 
L 110.457504 259.651519 
L 112.770924 259.651519 
L 112.770924 258.533154 
L 115.034286 258.533154 
L 115.034286 257.973972 
L 116.834124 257.973972 
L 116.834124 257.41479 
L 119.782703 257.41479 
L 119.782703 256.855608 
L 120.689748 256.855608 
L 120.689748 256.296425 
L 122.003676 256.296425 
L 122.003676 255.178061 
L 122.944762 255.178061 
L 122.944762 254.618879 
L 123.085078 254.618879 
L 123.154809 252.941332 
L 124.298898 252.941332 
L 124.298898 252.38215 
L 125.248787 252.38215 
L 125.248787 251.263785 
L 125.432625 251.263785 
L 125.432625 250.145421 
L 125.794504 250.145421 
L 125.794504 247.908692 
L 126.610389 247.908692 
L 126.610389 247.34951 
L 127.334814 247.34951 
L 127.389295 246.231145 
L 127.872003 246.231145 
L 127.977455 245.112781 
L 128.39291 245.112781 
L 128.444143 243.435234 
L 130.14738 243.435234 
L 130.14738 242.876052 
L 131.654565 242.876052 
L 131.654565 241.757687 
L 132.197629 241.757687 
L 132.238701 236.725047 
L 132.603999 236.725047 
L 132.603999 235.0475 
L 133.617681 235.0475 
L 133.617681 233.929136 
L 134.39491 233.929136 
L 134.39491 232.251589 
L 135.207679 232.251589 
L 135.207679 231.133225 
L 135.515543 231.133225 
L 135.515543 230.01486 
L 135.851269 230.01486 
L 135.851269 228.896496 
L 135.983745 228.896496 
L 135.983745 228.337313 
L 136.115208 228.337313 
L 136.115208 227.778131 
L 136.342875 227.778131 
L 136.439531 226.100584 
L 136.503668 226.100584 
L 136.503668 224.423038 
L 137.377325 224.423038 
L 137.377325 223.304673 
L 138.666344 223.304673 
L 138.666344 222.745491 
L 138.918505 222.745491 
L 139.001743 220.508762 
L 139.303546 220.508762 
L 139.303546 219.94958 
L 139.733284 219.94958 
L 139.733284 219.390397 
L 140.048681 219.390397 
L 140.074705 217.712851 
L 140.409475 217.712851 
L 140.409475 217.153669 
L 141.352234 217.153669 
L 141.352234 216.035304 
L 141.734219 216.035304 
L 141.804906 209.325117 
L 141.875303 209.325117 
L 141.875303 208.765935 
L 142.015238 208.765935 
L 142.015238 207.088388 
L 142.223028 207.088388 
L 142.223028 206.529206 
L 142.608796 206.529206 
L 142.608796 205.970024 
L 142.809574 205.970024 
L 142.809574 204.851659 
L 143.204228 204.851659 
L 143.204228 204.292477 
L 143.632361 204.292477 
L 143.632361 203.733295 
L 144.816844 203.733295 
L 144.816844 202.61493 
L 144.954432 202.61493 
L 145.05204 200.378201 
L 145.168442 200.378201 
L 145.168442 199.819019 
L 145.43702 199.819019 
L 145.49403 197.58229 
L 145.701465 197.58229 
L 145.7202 196.463926 
L 145.869343 196.463926 
L 145.906427 194.786379 
L 146.843566 194.786379 
L 146.843566 194.227197 
L 147.276552 194.227197 
L 147.378865 189.194556 
L 147.632016 189.194556 
L 147.66549 188.076192 
L 147.782136 188.076192 
L 147.864973 185.839463 
L 149.138788 185.839463 
L 149.138788 185.280281 
L 149.291576 185.280281 
L 149.291576 184.721099 
L 150.180842 184.721099 
L 150.252912 181.925187 
L 150.353304 181.925187 
L 150.438891 180.247641 
L 150.495713 180.247641 
L 150.524054 178.570094 
L 150.735133 178.570094 
L 150.735133 177.451729 
L 151.122343 177.451729 
L 151.136011 176.333365 
L 151.272106 176.333365 
L 151.272106 175.774183 
L 151.753312 175.774183 
L 151.832219 173.537454 
L 151.962932 173.537454 
L 152.066791 171.859907 
L 152.208581 171.859907 
L 152.208581 170.741543 
L 152.46342 170.741543 
L 152.46342 170.18236 
L 152.925139 170.18236 
L 152.962038 168.504814 
L 153.193908 168.504814 
L 153.290609 166.827267 
L 153.338757 166.827267 
L 153.338757 165.708902 
L 153.482395 165.708902 
L 153.482395 164.590538 
L 153.789554 164.590538 
L 153.801259 161.794627 
L 153.999032 161.794627 
L 154.022151 160.676262 
L 154.399185 160.676262 
L 154.399185 160.11708 
L 154.511824 160.11708 
L 154.511824 158.439533 
L 154.63488 158.439533 
L 154.63488 157.321169 
L 154.757061 157.321169 
L 154.757061 156.202804 
L 155.30174 156.202804 
L 155.30174 155.08444 
L 155.472454 155.08444 
L 155.55718 152.847711 
L 155.641489 152.847711 
L 155.641489 150.610982 
L 155.798464 150.610982 
L 155.850472 148.374253 
L 155.984961 148.374253 
L 156.015848 146.137524 
L 156.128628 146.137524 
L 156.189834 145.019159 
L 156.250823 145.019159 
L 156.250823 144.459977 
L 156.562529 144.459977 
L 156.562529 142.223248 
L 156.800027 142.223248 
L 156.800027 141.104884 
L 156.966291 141.104884 
L 156.966291 140.545702 
L 157.111671 140.545702 
L 157.111671 139.986519 
L 157.274962 139.986519 
L 157.303617 138.308973 
L 157.484002 138.308973 
L 157.578187 137.190608 
L 157.755728 137.190608 
L 157.755728 136.631426 
L 157.949847 136.631426 
L 157.977401 134.953879 
L 158.150886 134.953879 
L 158.150886 134.394697 
L 158.322638 134.394697 
L 158.385485 130.480421 
L 158.483783 130.480421 
L 158.483783 129.362057 
L 158.696319 129.362057 
L 158.696319 128.802874 
L 158.98433 128.802874 
L 158.98433 128.243692 
L 159.156562 128.243692 
L 159.267595 124.888599 
L 159.301615 124.888599 
L 159.301615 123.770234 
L 160.009066 123.770234 
L 160.114742 119.855959 
L 160.163298 119.855959 
L 160.227826 117.61923 
L 160.404039 117.61923 
L 160.404039 115.941683 
L 160.829054 115.941683 
L 160.883387 112.027407 
L 160.968422 112.027407 
L 161.068379 109.790678 
L 161.19061 109.790678 
L 161.274142 108.672314 
L 161.311977 108.672314 
L 161.402444 106.994767 
L 161.52233 106.994767 
L 161.52233 106.435585 
L 161.818438 106.435585 
L 161.928177 103.080491 
L 162.317533 103.080491 
L 162.424141 100.28458 
L 162.501901 100.28458 
L 162.572289 95.811122 
L 162.635392 95.811122 
L 162.635392 94.692758 
L 163.009223 94.692758 
L 163.029755 93.574393 
L 163.145642 93.574393 
L 163.199907 91.337664 
L 163.294462 91.337664 
L 163.294462 90.778482 
L 163.428644 90.778482 
L 163.455355 89.100935 
L 163.660971 89.100935 
L 163.713637 87.423389 
L 163.922699 87.423389 
L 164.032738 85.745842 
L 164.276189 85.745842 
L 164.358689 84.068295 
L 164.447095 84.068295 
L 164.522512 79.594837 
L 164.591354 79.594837 
L 164.591354 79.035655 
L 164.703413 79.035655 
L 164.734412 76.239744 
L 165.023097 76.239744 
L 165.126332 70.647921 
L 165.336943 70.647921 
L 165.336943 70.088739 
L 165.744738 70.088739 
L 165.756415 66.174463 
L 165.901712 66.174463 
L 165.95372 63.378552 
L 166.017073 63.378552 
L 166.085919 61.701006 
L 166.154491 61.701006 
L 166.154491 61.141823 
L 166.290819 61.141823 
L 166.290819 60.582641 
L 166.403606 60.582641 
L 166.510072 59.464277 
L 166.582539 59.464277 
L 166.693434 54.431636 
L 166.726563 54.431636 
L 166.754123 53.313272 
L 166.934913 53.313272 
L 166.934913 52.75409 
L 167.210629 52.75409 
L 167.25348 49.398996 
L 167.444999 49.398996 
L 167.444999 48.839814 
L 167.597741 48.839814 
L 167.650097 47.72145 
L 167.738739 47.72145 
L 167.821751 40.45208 
L 168.042879 40.45208 
L 168.042879 39.333716 
L 168.246057 39.333716 
L 168.32666 33.741894 
L 168.446861 33.741894 
L 168.446861 33.182711 
L 168.576137 33.182711 
L 168.640412 30.945982 
L 168.773143 30.945982 
L 168.841566 28.709253 
L 169.102958 28.709253 
L 169.102958 27.590889 
L 169.232178 27.590889 
L 169.322533 25.35416 
L 169.350967 25.35416 
L 169.407695 23.117431 
L 169.600116 23.117431 
L 169.628095 20.32152 
L 169.845705 20.32152 
L 169.919161 18.084791 
L 169.996865 18.084791 
L 170.092371 16.966426 
L 170.110502 16.966426 
L 170.196366 14.170515 
L 170.223392 14.170515 
L 170.331074 12.492968 
L 170.44253 12.492968 
L 170.473608 11.374604 
L 170.628164 11.374604 
L 170.628164 10.815422 
L 171.036505 10.815422 
L 171.036505 9.697057 
L 333.168 9.697057 
L 333.168 9.697057 
" style="fill:none;stroke:#000080;stroke-linecap:square;stroke-width:1.5;"/>
   </g>
   <g id="line2d_39">
    <defs>
     <path d="M 0 6 
C 1.591219 6 3.117479 5.367802 4.242641 4.242641 
C 5.367802 3.117479 6 1.591219 6 0 
C 6 -1.591219 5.367802 -3.117479 4.242641 -4.242641 
C 3.117479 -5.367802 1.591219 -6 0 -6 
C -1.591219 -6 -3.117479 -5.367802 -4.242641 -4.242641 
C -5.367802 -3.117479 -6 -1.591219 -6 0 
C -6 1.591219 -5.367802 3.117479 -4.242641 4.242641 
C -3.117479 5.367802 -1.591219 6 0 6 
z
" id="m45a501b0f7" style="stroke:#000080;stroke-width:1.5;"/>
    </defs>
    <g>
     <use style="fill-opacity:0;stroke:#000080;stroke-width:1.5;" x="69.672503" xlink:href="#m45a501b0f7" y="271.394346"/>
     <use style="fill-opacity:0;stroke:#000080;stroke-width:1.5;" x="136.503668" xlink:href="#m45a501b0f7" y="224.423038"/>
     <use style="fill-opacity:0;stroke:#000080;stroke-width:1.5;" x="165.126332" xlink:href="#m45a501b0f7" y="70.647921"/>
     <use style="fill-opacity:0;stroke:#000080;stroke-width:1.5;" x="171.036505" xlink:href="#m45a501b0f7" y="10.815422"/>
     <use style="fill-opacity:0;stroke:#000080;stroke-width:1.5;" x="171.036505" xlink:href="#m45a501b0f7" y="9.697057"/>
     <use style="fill-opacity:0;stroke:#000080;stroke-width:1.5;" x="333.168" xlink:href="#m45a501b0f7" y="9.697057"/>
    </g>
   </g>
   <g id="line2d_40">
    <path style="fill:none;stroke:#000080;stroke-linecap:square;stroke-width:1.5;"/>
    <g/>
   </g>
   <g id="line2d_41">
    <defs>
     <path d="M 0 1.5 
C 0.397805 1.5 0.77937 1.341951 1.06066 1.06066 
C 1.341951 0.77937 1.5 0.397805 1.5 0 
C 1.5 -0.397805 1.341951 -0.77937 1.06066 -1.06066 
C 0.77937 -1.341951 0.397805 -1.5 0 -1.5 
C -0.397805 -1.5 -0.77937 -1.341951 -1.06066 -1.06066 
C -1.341951 -0.77937 -1.5 -0.397805 -1.5 0 
C -1.5 0.397805 -1.341951 0.77937 -1.06066 1.06066 
C -0.77937 1.341951 -0.397805 1.5 0 1.5 
z
" id="m7de076dd5b" style="stroke:#ff00ff;"/>
    </defs>
    <g>
     <use style="fill:#ff00ff;stroke:#ff00ff;" x="255.111817" xlink:href="#m7de076dd5b" y="216.594486"/>
     <use style="fill:#ff00ff;stroke:#ff00ff;" x="255.111817" xlink:href="#m7de076dd5b" y="216.594486"/>
    </g>
   </g>
   <g id="line2d_42">
    <path d="M 148.481817 294.88 
L 148.481817 294.320818 
L 151.366735 294.320818 
L 151.366735 293.761636 
L 151.845336 293.761636 
L 151.845336 293.202453 
L 152.208581 293.202453 
L 152.208581 292.084089 
L 152.601988 292.084089 
L 152.601988 291.524907 
L 153.577492 291.524907 
L 153.577492 290.406542 
L 154.263036 290.406542 
L 154.263036 289.84736 
L 154.444329 289.84736 
L 154.444329 289.288178 
L 154.579054 289.288178 
L 154.612571 287.610631 
L 154.944195 287.610631 
L 154.944195 286.492266 
L 155.567741 286.492266 
L 155.567741 284.255537 
L 155.829688 284.255537 
L 155.829688 283.696355 
L 156.036409 283.696355 
L 156.036409 283.137173 
L 156.512635 283.137173 
L 156.512635 281.459626 
L 156.711349 281.459626 
L 156.711349 280.900444 
L 157.024591 280.900444 
L 157.102017 279.782079 
L 157.1406 279.782079 
L 157.1406 279.222897 
L 157.474555 279.222897 
L 157.474555 278.104533 
L 158.941001 278.104533 
L 158.941001 275.867804 
L 159.147992 275.867804 
L 159.147992 275.308622 
L 159.327086 275.308622 
L 159.327086 274.749439 
L 160.203656 274.749439 
L 160.203656 273.631075 
L 160.61786 273.631075 
L 160.61786 273.071893 
L 163.831547 273.071893 
L 163.831547 271.953528 
L 163.993981 271.953528 
L 163.993981 271.394346 
L 164.358689 271.394346 
L 164.358689 270.835164 
L 167.290887 270.835164 
L 167.290887 270.275981 
L 169.030747 270.275981 
L 169.030747 269.157617 
L 169.279792 269.157617 
L 169.279792 268.598435 
L 169.734929 268.598435 
L 169.734929 267.48007 
L 170.601767 267.48007 
L 170.601767 266.920888 
L 172.385892 266.920888 
L 172.385892 265.802523 
L 172.704391 265.802523 
L 172.704391 264.684159 
L 174.174655 264.684159 
L 174.174655 264.124977 
L 174.518121 264.124977 
L 174.518121 263.565795 
L 176.549271 263.565795 
L 176.549271 263.006612 
L 178.602157 263.006612 
L 178.602157 262.44743 
L 179.1998 262.44743 
L 179.202469 260.769883 
L 181.844861 260.769883 
L 181.844861 260.210701 
L 183.570499 260.210701 
L 183.570499 259.651519 
L 185.71104 259.651519 
L 185.71104 259.092337 
L 186.2491 259.092337 
L 186.2491 257.973972 
L 189.08151 257.973972 
L 189.08151 257.41479 
L 189.522059 257.41479 
L 189.522059 256.855608 
L 189.696905 256.855608 
L 189.696905 256.296425 
L 190.020022 256.296425 
L 190.083923 255.178061 
L 190.233513 255.178061 
L 190.337178 253.500514 
L 190.56196 253.500514 
L 190.570229 252.38215 
L 191.033768 252.38215 
L 191.033768 251.822967 
L 191.811239 251.822967 
L 191.811239 251.263785 
L 191.958026 251.263785 
L 191.958026 250.704603 
L 195.379875 250.704603 
L 195.418369 249.586238 
L 198.513212 249.586238 
L 198.513212 248.467874 
L 200.301285 248.467874 
L 200.301285 247.908692 
L 200.498831 247.908692 
L 200.498831 246.231145 
L 201.685652 246.231145 
L 201.685652 245.671963 
L 204.47054 245.671963 
L 204.47054 245.112781 
L 205.42493 245.112781 
L 205.42493 244.553598 
L 205.597658 244.553598 
L 205.597658 243.994416 
L 206.937897 243.994416 
L 207.021697 242.316869 
L 207.118776 242.316869 
L 207.118776 241.757687 
L 207.500669 241.757687 
L 207.500669 241.198505 
L 208.305826 241.198505 
L 208.305826 240.639323 
L 212.739006 240.639323 
L 212.739006 240.08014 
L 213.312076 240.08014 
L 213.312076 239.520958 
L 215.214059 239.520958 
L 215.214059 238.961776 
L 215.333547 238.961776 
L 215.333547 238.402594 
L 216.388166 238.402594 
L 216.388166 237.843411 
L 218.492995 237.843411 
L 218.492995 237.284229 
L 219.475274 237.284229 
L 219.475274 236.725047 
L 219.82171 236.725047 
L 219.82171 236.165865 
L 220.955598 236.165865 
L 220.955833 235.0475 
L 221.681013 235.0475 
L 221.681013 234.488318 
L 222.188924 234.488318 
L 222.188924 233.929136 
L 223.110232 233.929136 
L 223.181053 232.810771 
L 225.151123 232.810771 
L 225.151123 232.251589 
L 226.918435 232.251589 
L 226.918435 231.692407 
L 227.124532 231.692407 
L 227.124532 231.133225 
L 228.521007 231.133225 
L 228.521007 230.574042 
L 229.282437 230.574042 
L 229.282437 230.01486 
L 229.986546 230.01486 
L 229.986546 229.455678 
L 230.159121 229.455678 
L 230.159121 228.896496 
L 231.496611 228.896496 
L 231.496611 228.337313 
L 231.852651 228.337313 
L 231.852651 227.778131 
L 232.022137 227.778131 
L 232.022137 227.218949 
L 232.7375 227.218949 
L 232.7375 226.659767 
L 233.444194 226.659767 
L 233.444194 226.100584 
L 234.352798 226.100584 
L 234.352798 225.541402 
L 234.979083 225.541402 
L 234.979083 224.98222 
L 237.221573 224.98222 
L 237.221573 224.423038 
L 238.973684 224.423038 
L 238.973684 223.863855 
L 240.349997 223.863855 
L 240.349997 223.304673 
L 240.665905 223.304673 
L 240.665905 222.186309 
L 241.011008 222.186309 
L 241.011008 221.627126 
L 241.306609 221.627126 
L 241.404596 220.508762 
L 246.164683 220.508762 
L 246.164683 219.94958 
L 246.317251 219.94958 
L 246.317251 219.390397 
L 246.704268 219.390397 
L 246.704268 218.831215 
L 250.871065 218.831215 
L 250.871065 218.272033 
L 251.093949 218.272033 
L 251.093949 217.712851 
L 252.07822 217.712851 
L 252.07822 217.153669 
L 255.111817 217.153669 
L 255.111817 216.594486 
L 333.168 216.594486 
L 333.168 216.594486 
" style="fill:none;stroke:#ff00ff;stroke-linecap:square;stroke-width:1.5;"/>
   </g>
   <g id="line2d_43">
    <defs>
     <path d="M -0 8.485281 
L 5.091169 0 
L 0 -8.485281 
L -5.091169 -0 
z
" id="m16f9c9e473" style="stroke:#ff00ff;stroke-linejoin:miter;stroke-width:1.5;"/>
    </defs>
    <g>
     <use style="fill-opacity:0;stroke:#ff00ff;stroke-linejoin:miter;stroke-width:1.5;" x="240.349997" xlink:href="#m16f9c9e473" y="223.863855"/>
     <use style="fill-opacity:0;stroke:#ff00ff;stroke-linejoin:miter;stroke-width:1.5;" x="255.111817" xlink:href="#m16f9c9e473" y="216.594486"/>
     <use style="fill-opacity:0;stroke:#ff00ff;stroke-linejoin:miter;stroke-width:1.5;" x="255.111817" xlink:href="#m16f9c9e473" y="216.594486"/>
     <use style="fill-opacity:0;stroke:#ff00ff;stroke-linejoin:miter;stroke-width:1.5;" x="333.168" xlink:href="#m16f9c9e473" y="216.594486"/>
    </g>
   </g>
   <g id="line2d_44">
    <path style="fill:none;stroke:#ff00ff;stroke-linecap:square;stroke-width:1.5;"/>
    <g/>
   </g>
   <g id="line2d_45">
    <path clip-path="url(#p08001dd8fe)" d="M 186.941843 257.973972 
" style="fill:none;stroke:#ff00ff;stroke-linecap:square;stroke-width:1.5;"/>
    <defs>
     <path d="M -12 12 
L 12 -12 
M -12 -12 
L 12 12 
" id="m5bb2f98603" style="stroke:#ff00ff;"/>
    </defs>
    <g clip-path="url(#p08001dd8fe)">
     <use style="fill:#ff00ff;stroke:#ff00ff;" x="186.941843" xlink:href="#m5bb2f98603" y="257.973972"/>
    </g>
   </g>
   <g id="line2d_46">
    <defs>
     <path d="M 0 1.5 
C 0.397805 1.5 0.77937 1.341951 1.06066 1.06066 
C 1.341951 0.77937 1.5 0.397805 1.5 0 
C 1.5 -0.397805 1.341951 -0.77937 1.06066 -1.06066 
C 0.77937 -1.341951 0.397805 -1.5 0 -1.5 
C -0.397805 -1.5 -0.77937 -1.341951 -1.06066 -1.06066 
C -1.341951 -0.77937 -1.5 -0.397805 -1.5 0 
C -1.5 0.397805 -1.341951 0.77937 -1.06066 1.06066 
C -0.77937 1.341951 -0.397805 1.5 0 1.5 
z
" id="m01f821d65f" style="stroke:#ffa500;"/>
    </defs>
    <g>
     <use style="fill:#ffa500;stroke:#ffa500;" x="259.037708" xlink:href="#m01f821d65f" y="233.369954"/>
     <use style="fill:#ffa500;stroke:#ffa500;" x="259.037708" xlink:href="#m01f821d65f" y="233.369954"/>
    </g>
   </g>
   <g id="line2d_47">
    <path d="M 28.455965 294.88 
L 28.455965 294.320818 
L 52.284468 294.320818 
L 52.284468 293.761636 
L 59.253858 293.761636 
L 59.253858 292.643271 
L 71.168109 292.643271 
L 71.168109 291.524907 
L 77.155024 291.524907 
L 77.155024 290.965724 
L 79.066841 290.965724 
L 79.066841 290.406542 
L 86.335171 290.406542 
L 86.335171 289.84736 
L 97.021141 289.84736 
L 97.021141 289.288178 
L 102.895343 289.288178 
L 102.895343 288.728995 
L 111.448069 288.728995 
L 111.448069 288.169813 
L 119.782703 288.169813 
L 119.782703 287.051449 
L 120.118102 287.051449 
L 120.118102 285.933084 
L 120.283378 285.933084 
L 120.365424 283.696355 
L 121.086731 283.696355 
L 121.16504 282.577991 
L 121.627542 282.577991 
L 121.627542 282.018808 
L 124.298898 282.018808 
L 124.298898 281.459626 
L 125.187069 281.459626 
L 125.187069 280.900444 
L 126.723846 280.900444 
L 126.723846 280.341262 
L 128.186438 280.341262 
L 128.186438 279.782079 
L 130.33171 279.782079 
L 130.33171 278.663715 
L 131.181257 278.663715 
L 131.181257 278.104533 
L 131.612072 278.104533 
L 131.612072 277.545351 
L 132.238701 277.545351 
L 132.320552 275.867804 
L 133.880682 275.867804 
L 133.880682 274.749439 
L 135.06906 274.749439 
L 135.06906 274.190257 
L 136.599426 274.190257 
L 136.599426 273.631075 
L 139.276327 273.631075 
L 139.276327 273.071893 
L 139.626853 273.071893 
L 139.733284 270.835164 
L 144.255205 270.835164 
L 144.255205 270.275981 
L 145.569751 270.275981 
L 145.569751 268.598435 
L 146.218456 268.598435 
L 146.218456 268.039252 
L 147.0007 268.039252 
L 147.0007 266.920888 
L 148.984628 266.920888 
L 148.984628 266.361706 
L 149.412837 266.361706 
L 149.412837 265.802523 
L 151.136011 265.802523 
L 151.136011 265.243341 
L 151.339751 265.243341 
L 151.339751 264.684159 
L 151.975949 264.684159 
L 151.975949 264.124977 
L 152.539141 264.124977 
L 152.539141 263.006612 
L 153.565633 263.006612 
L 153.565633 262.44743 
L 154.274423 262.44743 
L 154.274423 261.888248 
L 154.701632 261.888248 
L 154.701632 260.769883 
L 155.355271 260.769883 
L 155.355271 260.210701 
L 155.546612 260.210701 
L 155.546612 258.533154 
L 155.829688 258.533154 
L 155.829688 257.973972 
L 156.331806 257.973972 
L 156.331806 257.41479 
L 157.436716 257.41479 
L 157.436716 256.855608 
L 157.783594 256.855608 
L 157.783594 256.296425 
L 158.241496 256.296425 
L 158.286622 255.178061 
L 158.669895 255.178061 
L 158.669895 254.618879 
L 163.132049 254.618879 
L 163.132049 254.059696 
L 163.502 254.059696 
L 163.502 253.500514 
L 167.000186 253.500514 
L 167.000186 252.941332 
L 167.280208 252.941332 
L 167.280208 251.822967 
L 188.776823 251.822967 
L 188.776823 251.263785 
L 189.392699 251.263785 
L 189.392699 250.704603 
L 189.907263 250.704603 
L 189.975863 249.027056 
L 191.628242 249.027056 
L 191.628242 248.467874 
L 199.798059 248.467874 
L 199.798059 247.908692 
L 200.246442 247.908692 
L 200.246442 247.34951 
L 200.36375 247.34951 
L 200.36375 246.790327 
L 206.459161 246.790327 
L 206.459161 246.231145 
L 206.871842 246.231145 
L 206.871842 245.671963 
L 211.52564 245.671963 
L 211.562649 244.553598 
L 215.242615 244.553598 
L 215.242615 243.994416 
L 218.442158 243.994416 
L 218.442158 243.435234 
L 220.993192 243.435234 
L 220.993192 242.876052 
L 221.142285 242.876052 
L 221.142285 241.757687 
L 223.214086 241.757687 
L 223.214086 241.198505 
L 226.840778 241.198505 
L 226.840778 240.639323 
L 229.891145 240.639323 
L 229.891145 240.08014 
L 231.357576 240.08014 
L 231.357576 239.520958 
L 233.844985 239.520958 
L 233.844985 238.961776 
L 234.865631 238.961776 
L 234.932311 236.725047 
L 239.476654 236.725047 
L 239.476654 236.165865 
L 241.069354 236.165865 
L 241.069354 235.606682 
L 241.746553 235.606682 
L 241.746553 235.0475 
L 249.153574 235.0475 
L 249.153574 234.488318 
L 256.208775 234.488318 
L 256.208775 233.929136 
L 259.037708 233.929136 
L 259.037708 233.369954 
L 333.168 233.369954 
L 333.168 233.369954 
" style="fill:none;stroke:#ffa500;stroke-linecap:square;stroke-width:1.5;"/>
   </g>
   <g id="line2d_48">
    <defs>
     <path d="M 0 -6 
L -1.347084 -1.854102 
L -5.706339 -1.854102 
L -2.179628 0.708204 
L -3.526712 4.854102 
L -0 2.291796 
L 3.526712 4.854102 
L 2.179628 0.708204 
L 5.706339 -1.854102 
L 1.347084 -1.854102 
z
" id="m00f74a683e" style="stroke:#ffa500;stroke-linejoin:bevel;stroke-width:1.5;"/>
    </defs>
    <g>
     <use style="fill-opacity:0;stroke:#ffa500;stroke-linejoin:bevel;stroke-width:1.5;" x="79.066841" xlink:href="#m00f74a683e" y="290.965724"/>
     <use style="fill-opacity:0;stroke:#ffa500;stroke-linejoin:bevel;stroke-width:1.5;" x="156.331806" xlink:href="#m00f74a683e" y="257.41479"/>
     <use style="fill-opacity:0;stroke:#ffa500;stroke-linejoin:bevel;stroke-width:1.5;" x="223.214086" xlink:href="#m00f74a683e" y="241.757687"/>
     <use style="fill-opacity:0;stroke:#ffa500;stroke-linejoin:bevel;stroke-width:1.5;" x="259.037708" xlink:href="#m00f74a683e" y="233.929136"/>
     <use style="fill-opacity:0;stroke:#ffa500;stroke-linejoin:bevel;stroke-width:1.5;" x="259.037708" xlink:href="#m00f74a683e" y="233.369954"/>
     <use style="fill-opacity:0;stroke:#ffa500;stroke-linejoin:bevel;stroke-width:1.5;" x="333.168" xlink:href="#m00f74a683e" y="233.369954"/>
    </g>
   </g>
   <g id="line2d_49">
    <path style="fill:none;stroke:#ffa500;stroke-linecap:square;stroke-width:1.5;"/>
    <g/>
   </g>
   <g id="line2d_50">
    <path clip-path="url(#p08001dd8fe)" d="M 186.941843 251.822967 
" style="fill:none;stroke:#ffa500;stroke-linecap:square;stroke-width:1.5;"/>
    <defs>
     <path d="M -12 12 
L 12 -12 
M -12 -12 
L 12 12 
" id="m82ed6147e3" style="stroke:#ffa500;"/>
    </defs>
    <g clip-path="url(#p08001dd8fe)">
     <use style="fill:#ffa500;stroke:#ffa500;" x="186.941843" xlink:href="#m82ed6147e3" y="251.822967"/>
    </g>
   </g>
   <g id="line2d_51">
    <defs>
     <path d="M 0 1.5 
C 0.397805 1.5 0.77937 1.341951 1.06066 1.06066 
C 1.341951 0.77937 1.5 0.397805 1.5 0 
C 1.5 -0.397805 1.341951 -0.77937 1.06066 -1.06066 
C 0.77937 -1.341951 0.397805 -1.5 0 -1.5 
C -0.397805 -1.5 -0.77937 -1.341951 -1.06066 -1.06066 
C -1.341951 -0.77937 -1.5 -0.397805 -1.5 0 
C -1.5 0.397805 -1.341951 0.77937 -1.06066 1.06066 
C -0.77937 1.341951 -0.397805 1.5 0 1.5 
z
" id="m267e2017d7" style="stroke:#6495ed;"/>
    </defs>
    <g>
     <use style="fill:#6495ed;stroke:#6495ed;" x="243.071216" xlink:href="#m267e2017d7" y="244.553598"/>
     <use style="fill:#6495ed;stroke:#6495ed;" x="243.071216" xlink:href="#m267e2017d7" y="244.553598"/>
    </g>
   </g>
   <g id="line2d_52">
    <path d="M 28.455965 294.88 
L 28.455965 294.320818 
L 64.198719 294.320818 
L 64.198719 293.761636 
L 89.069276 293.761636 
L 89.069276 293.202453 
L 93.105847 293.202453 
L 93.105847 292.643271 
L 96.372436 292.643271 
L 96.372436 291.524907 
L 104.201437 291.524907 
L 104.201437 290.965724 
L 104.409787 290.965724 
L 104.409787 288.728995 
L 106.910863 288.728995 
L 106.910863 288.169813 
L 117.811013 288.169813 
L 117.811013 287.610631 
L 122.298767 287.610631 
L 122.298767 286.492266 
L 123.7027 286.492266 
L 123.7027 285.933084 
L 126.610389 285.933084 
L 126.610389 284.81472 
L 128.495224 284.81472 
L 128.495224 283.696355 
L 128.8486 283.696355 
L 128.8486 283.137173 
L 131.441039 283.137173 
L 131.441039 282.577991 
L 133.805948 282.577991 
L 133.805948 282.018808 
L 136.278134 282.018808 
L 136.278134 281.459626 
L 137.10132 281.459626 
L 137.10132 279.782079 
L 138.609803 279.782079 
L 138.609803 279.222897 
L 138.974042 279.222897 
L 138.974042 278.663715 
L 139.411992 278.663715 
L 139.411992 278.104533 
L 140.358394 278.104533 
L 140.358394 277.545351 
L 141.206772 277.545351 
L 141.255396 275.867804 
L 141.400449 275.867804 
L 141.400449 274.749439 
L 145.701465 274.749439 
L 145.701465 273.631075 
L 146.200257 273.631075 
L 146.200257 273.071893 
L 146.843566 273.071893 
L 146.843566 272.51271 
L 147.344828 272.51271 
L 147.395858 269.716799 
L 149.215352 269.716799 
L 149.215352 269.157617 
L 151.136011 269.157617 
L 151.136011 268.598435 
L 153.084464 268.598435 
L 153.181782 267.48007 
L 155.291014 267.48007 
L 155.291014 266.361706 
L 155.714923 266.361706 
L 155.714923 265.243341 
L 157.92225 265.243341 
L 157.92225 264.684159 
L 158.09629 264.684159 
L 158.09629 264.124977 
L 158.30464 264.124977 
L 158.30464 263.565795 
L 159.596453 263.565795 
L 159.596453 261.888248 
L 162.409964 261.888248 
L 162.409964 261.329066 
L 181.37143 261.329066 
L 181.37143 260.769883 
L 188.600039 260.769883 
L 188.600039 260.210701 
L 188.853122 260.210701 
L 188.944236 259.092337 
L 189.198308 259.092337 
L 189.198308 258.533154 
L 189.630091 258.533154 
L 189.686754 257.41479 
L 189.884335 257.41479 
L 189.975863 256.296425 
L 199.838285 256.296425 
L 199.838285 255.178061 
L 200.252719 255.178061 
L 200.252719 254.618879 
L 200.390228 254.618879 
L 200.43996 253.500514 
L 201.112559 253.500514 
L 201.112559 252.941332 
L 206.257897 252.941332 
L 206.257897 252.38215 
L 207.362212 252.38215 
L 207.362212 251.822967 
L 211.268455 251.822967 
L 211.268455 251.263785 
L 211.624289 251.263785 
L 211.624289 249.586238 
L 215.25704 249.586238 
L 215.25704 249.027056 
L 218.217997 249.027056 
L 218.217997 248.467874 
L 220.847292 248.467874 
L 220.847292 247.908692 
L 225.062072 247.908692 
L 225.062072 247.34951 
L 236.802908 247.34951 
L 236.802908 246.790327 
L 238.599497 246.790327 
L 238.599497 246.231145 
L 239.427014 246.231145 
L 239.427014 245.671963 
L 241.652265 245.671963 
L 241.652265 245.112781 
L 243.071216 245.112781 
L 243.071216 244.553598 
L 333.168 244.553598 
L 333.168 244.553598 
" style="fill:none;stroke:#6495ed;stroke-linecap:square;stroke-width:1.5;"/>
   </g>
   <g id="line2d_53">
    <defs>
     <path d="M -0 6 
L 6 -6 
L -6 -6 
z
" id="m5207a68b19" style="stroke:#6495ed;stroke-linejoin:miter;stroke-width:1.5;"/>
    </defs>
    <g>
     <use style="fill-opacity:0;stroke:#6495ed;stroke-linejoin:miter;stroke-width:1.5;" x="133.805948" xlink:href="#m5207a68b19" y="282.018808"/>
     <use style="fill-opacity:0;stroke:#6495ed;stroke-linejoin:miter;stroke-width:1.5;" x="162.409964" xlink:href="#m5207a68b19" y="261.329066"/>
     <use style="fill-opacity:0;stroke:#6495ed;stroke-linejoin:miter;stroke-width:1.5;" x="243.071216" xlink:href="#m5207a68b19" y="245.112781"/>
     <use style="fill-opacity:0;stroke:#6495ed;stroke-linejoin:miter;stroke-width:1.5;" x="243.071216" xlink:href="#m5207a68b19" y="244.553598"/>
     <use style="fill-opacity:0;stroke:#6495ed;stroke-linejoin:miter;stroke-width:1.5;" x="243.071216" xlink:href="#m5207a68b19" y="244.553598"/>
     <use style="fill-opacity:0;stroke:#6495ed;stroke-linejoin:miter;stroke-width:1.5;" x="333.168" xlink:href="#m5207a68b19" y="244.553598"/>
    </g>
   </g>
   <g id="line2d_54">
    <path style="fill:none;stroke:#6495ed;stroke-linecap:square;stroke-width:1.5;"/>
    <g/>
   </g>
   <g id="line2d_55">
    <path clip-path="url(#p08001dd8fe)" d="M 186.941843 260.769883 
" style="fill:none;stroke:#6495ed;stroke-linecap:square;stroke-width:1.5;"/>
    <defs>
     <path d="M -12 12 
L 12 -12 
M -12 -12 
L 12 12 
" id="m6b951f87bf" style="stroke:#6495ed;"/>
    </defs>
    <g clip-path="url(#p08001dd8fe)">
     <use style="fill:#6495ed;stroke:#6495ed;" x="186.941843" xlink:href="#m6b951f87bf" y="260.769883"/>
    </g>
   </g>
   <g id="line2d_56">
    <defs>
     <path d="M 0 1.5 
C 0.397805 1.5 0.77937 1.341951 1.06066 1.06066 
C 1.341951 0.77937 1.5 0.397805 1.5 0 
C 1.5 -0.397805 1.341951 -0.77937 1.06066 -1.06066 
C 0.77937 -1.341951 0.397805 -1.5 0 -1.5 
C -0.397805 -1.5 -0.77937 -1.341951 -1.06066 -1.06066 
C -1.341951 -0.77937 -1.5 -0.397805 -1.5 0 
C -1.5 0.397805 -1.341951 0.77937 -1.06066 1.06066 
C -0.77937 1.341951 -0.397805 1.5 0 1.5 
z
" id="m1ece1a4210" style="stroke:#ff0000;"/>
    </defs>
    <g>
     <use style="fill:#ff0000;stroke:#ff0000;" x="141.133577" xlink:href="#m1ece1a4210" y="9.697057"/>
     <use style="fill:#ff0000;stroke:#ff0000;" x="141.133577" xlink:href="#m1ece1a4210" y="9.697057"/>
    </g>
   </g>
   <g id="line2d_57">
    <path d="M 40.370217 294.88 
L 40.370217 290.965724 
L 47.339607 290.965724 
L 47.339607 288.169813 
L 56.12 288.169813 
L 56.12 284.81472 
L 59.253858 284.81472 
L 59.253858 283.696355 
L 64.198719 283.696355 
L 64.198719 283.137173 
L 66.223248 283.137173 
L 66.223248 282.577991 
L 71.168109 282.577991 
L 71.168109 282.018808 
L 82.350819 282.018808 
L 82.350819 280.900444 
L 91.862754 280.900444 
L 91.862754 280.341262 
L 94.634732 280.341262 
L 94.634732 279.222897 
L 103.120034 279.222897 
L 103.120034 278.663715 
L 105.218813 278.663715 
L 105.218813 278.104533 
L 105.415256 278.104533 
L 105.415256 277.545351 
L 108.451173 277.545351 
L 108.451173 259.092337 
L 108.6141 259.092337 
L 108.6141 258.533154 
L 109.093814 258.533154 
L 109.093814 256.296425 
L 109.406343 256.296425 
L 109.406343 255.737243 
L 110.163674 255.737243 
L 110.163674 255.178061 
L 110.311216 255.178061 
L 110.311216 253.500514 
L 110.88904 253.500514 
L 110.88904 252.941332 
L 111.170827 252.941332 
L 111.170827 251.822967 
L 111.310007 251.822967 
L 111.310007 251.263785 
L 113.396034 251.263785 
L 113.396034 250.704603 
L 113.999206 250.704603 
L 113.999206 250.145421 
L 114.23467 250.145421 
L 114.23467 249.586238 
L 116.324038 249.586238 
L 116.324038 249.027056 
L 117.523731 249.027056 
L 117.523731 247.908692 
L 117.905717 247.908692 
L 117.905717 247.34951 
L 119.782703 247.34951 
L 119.782703 245.671963 
L 119.95122 245.671963 
L 120.034863 241.198505 
L 120.283378 241.198505 
L 120.283378 226.100584 
L 120.929036 226.100584 
L 120.929036 225.541402 
L 121.397846 225.541402 
L 121.397846 213.239393 
L 121.627542 213.239393 
L 121.627542 211.561846 
L 122.588877 211.561846 
L 122.588877 210.443482 
L 123.7027 210.443482 
L 123.7027 208.765935 
L 125.432625 208.765935 
L 125.432625 207.088388 
L 125.734717 207.088388 
L 125.734717 189.753739 
L 126.438787 189.753739 
L 126.438787 189.194556 
L 126.667211 189.194556 
L 126.723846 174.096636 
L 126.780294 174.096636 
L 126.780294 171.859907 
L 126.892639 171.859907 
L 126.948537 170.741543 
L 127.115148 170.741543 
L 127.225332 155.08444 
L 127.443604 155.08444 
L 127.443604 137.74979 
L 127.7659 137.74979 
L 127.819033 136.072244 
L 128.082264 136.072244 
L 128.082264 135.513061 
L 128.495224 135.513061 
L 128.495224 123.770234 
L 130.007824 123.770234 
L 130.007824 123.211052 
L 131.483957 123.211052 
L 131.569473 103.639674 
L 131.654565 103.639674 
L 131.739239 90.778482 
L 131.781419 90.778482 
L 131.781419 75.680562 
L 132.442602 75.680562 
L 132.442602 56.668365 
L 132.684132 56.668365 
L 132.684132 54.990819 
L 133.617681 54.990819 
L 133.617681 54.431636 
L 134.859013 54.431636 
L 134.859013 39.892898 
L 135.413533 39.892898 
L 135.413533 22.558249 
L 141.133577 22.558249 
L 141.133577 9.697057 
L 333.168 9.697057 
L 333.168 9.697057 
" style="fill:none;stroke:#ff0000;stroke-linecap:square;stroke-width:1.5;"/>
   </g>
   <g id="line2d_58">
    <defs>
     <path d="M 0 -6 
L -5.196152 -3 
L -5.196152 3 
L -0 6 
L 5.196152 3 
L 5.196152 -3 
z
" id="m70de3c67df" style="stroke:#ff0000;stroke-linejoin:miter;stroke-width:1.5;"/>
    </defs>
    <g>
     <use style="fill-opacity:0;stroke:#ff0000;stroke-linejoin:miter;stroke-width:1.5;" x="91.862754" xlink:href="#m70de3c67df" y="280.341262"/>
     <use style="fill-opacity:0;stroke:#ff0000;stroke-linejoin:miter;stroke-width:1.5;" x="128.495224" xlink:href="#m70de3c67df" y="135.513061"/>
     <use style="fill-opacity:0;stroke:#ff0000;stroke-linejoin:miter;stroke-width:1.5;" x="141.133577" xlink:href="#m70de3c67df" y="22.558249"/>
     <use style="fill-opacity:0;stroke:#ff0000;stroke-linejoin:miter;stroke-width:1.5;" x="141.133577" xlink:href="#m70de3c67df" y="9.697057"/>
     <use style="fill-opacity:0;stroke:#ff0000;stroke-linejoin:miter;stroke-width:1.5;" x="141.133577" xlink:href="#m70de3c67df" y="9.697057"/>
     <use style="fill-opacity:0;stroke:#ff0000;stroke-linejoin:miter;stroke-width:1.5;" x="333.168" xlink:href="#m70de3c67df" y="9.697057"/>
    </g>
   </g>
   <g id="line2d_59">
    <path style="fill:none;stroke:#ff0000;stroke-linecap:square;stroke-width:1.5;"/>
    <g/>
   </g>
   <g id="line2d_60">
    <path d="M 333.168 244.553598 
L 363.64328 289.176341 
" style="fill:none;stroke:#6495ed;stroke-linecap:square;stroke-width:1.5;"/>
    <g>
     <use style="fill-opacity:0;stroke:#6495ed;stroke-linejoin:miter;stroke-width:1.5;" x="333.168" xlink:href="#m5207a68b19" y="244.553598"/>
     <use style="fill-opacity:0;stroke:#6495ed;stroke-linejoin:miter;stroke-width:1.5;" x="363.64328" xlink:href="#m5207a68b19" y="289.176341"/>
    </g>
   </g>
   <g id="line2d_61">
    <path d="M 333.168 233.369954 
L 363.64328 220.732435 
" style="fill:none;stroke:#ffa500;stroke-linecap:square;stroke-width:1.5;"/>
    <g>
     <use style="fill-opacity:0;stroke:#ffa500;stroke-linejoin:bevel;stroke-width:1.5;" x="333.168" xlink:href="#m00f74a683e" y="233.369954"/>
     <use style="fill-opacity:0;stroke:#ffa500;stroke-linejoin:bevel;stroke-width:1.5;" x="363.64328" xlink:href="#m00f74a683e" y="220.732435"/>
    </g>
   </g>
   <g id="line2d_62">
    <path d="M 333.168 216.594486 
L 363.64328 152.288529 
" style="fill:none;stroke:#ff00ff;stroke-linecap:square;stroke-width:1.5;"/>
    <g>
     <use style="fill-opacity:0;stroke:#ff00ff;stroke-linejoin:miter;stroke-width:1.5;" x="333.168" xlink:href="#m16f9c9e473" y="216.594486"/>
     <use style="fill-opacity:0;stroke:#ff00ff;stroke-linejoin:miter;stroke-width:1.5;" x="363.64328" xlink:href="#m16f9c9e473" y="152.288529"/>
    </g>
   </g>
   <g id="line2d_63">
    <path d="M 333.168 9.697057 
L 363.64328 83.844622 
" style="fill:none;stroke:#000080;stroke-linecap:square;stroke-width:1.5;"/>
    <g>
     <use style="fill-opacity:0;stroke:#000080;stroke-width:1.5;" x="333.168" xlink:href="#m45a501b0f7" y="9.697057"/>
     <use style="fill-opacity:0;stroke:#000080;stroke-width:1.5;" x="363.64328" xlink:href="#m45a501b0f7" y="83.844622"/>
    </g>
   </g>
   <g id="line2d_64">
    <path d="M 333.168 9.697057 
L 363.64328 15.400716 
" style="fill:none;stroke:#ff0000;stroke-linecap:square;stroke-width:1.5;"/>
    <g>
     <use style="fill-opacity:0;stroke:#ff0000;stroke-linejoin:miter;stroke-width:1.5;" x="333.168" xlink:href="#m70de3c67df" y="9.697057"/>
     <use style="fill-opacity:0;stroke:#ff0000;stroke-linejoin:miter;stroke-width:1.5;" x="363.64328" xlink:href="#m70de3c67df" y="15.400716"/>
    </g>
   </g>
   <g id="line2d_65">
    <path d="M 333.168 294.88 
L 333.168 9.697057 
" style="fill:none;stroke:#000000;stroke-linecap:square;stroke-width:1.5;"/>
   </g>
   <g id="patch_3">
    <path d="M 56.12 294.88 
L 56.12 6.845228 
" style="fill:none;stroke:#000000;stroke-linecap:square;stroke-linejoin:miter;stroke-width:0.8;"/>
   </g>
   <g id="patch_4">
    <path d="M 333.168 294.88 
L 333.168 6.845228 
" style="fill:none;stroke:#000000;stroke-linecap:square;stroke-linejoin:miter;stroke-width:0.8;"/>
   </g>
   <g id="patch_5">
    <path d="M 56.12 294.88 
L 333.168 294.88 
" style="fill:none;stroke:#000000;stroke-linecap:square;stroke-linejoin:miter;stroke-width:0.8;"/>
   </g>
   <g id="patch_6">
    <path d="M 56.12 6.845228 
L 333.168 6.845228 
" style="fill:none;stroke:#000000;stroke-linecap:square;stroke-linejoin:miter;stroke-width:0.8;"/>
   </g>
   <g id="text_13">
    <!-- f4 -->
    <g transform="translate(369.18424 293.867279)scale(0.17 -0.17)">
     <use xlink:href="#DejaVuSans-66"/>
     <use x="35.205078" xlink:href="#DejaVuSans-34"/>
    </g>
   </g>
   <g id="text_14">
    <!-- f3 -->
    <defs>
     <path d="M 40.578125 39.3125 
Q 47.65625 37.796875 51.625 33 
Q 55.609375 28.21875 55.609375 21.1875 
Q 55.609375 10.40625 48.1875 4.484375 
Q 40.765625 -1.421875 27.09375 -1.421875 
Q 22.515625 -1.421875 17.65625 -0.515625 
Q 12.796875 0.390625 7.625 2.203125 
L 7.625 11.71875 
Q 11.71875 9.328125 16.59375 8.109375 
Q 21.484375 6.890625 26.8125 6.890625 
Q 36.078125 6.890625 40.9375 10.546875 
Q 45.796875 14.203125 45.796875 21.1875 
Q 45.796875 27.640625 41.28125 31.265625 
Q 36.765625 34.90625 28.71875 34.90625 
L 20.21875 34.90625 
L 20.21875 43.015625 
L 29.109375 43.015625 
Q 36.375 43.015625 40.234375 45.921875 
Q 44.09375 48.828125 44.09375 54.296875 
Q 44.09375 59.90625 40.109375 62.90625 
Q 36.140625 65.921875 28.71875 65.921875 
Q 24.65625 65.921875 20.015625 65.03125 
Q 15.375 64.15625 9.8125 62.3125 
L 9.8125 71.09375 
Q 15.4375 72.65625 20.34375 73.4375 
Q 25.25 74.21875 29.59375 74.21875 
Q 40.828125 74.21875 47.359375 69.109375 
Q 53.90625 64.015625 53.90625 55.328125 
Q 53.90625 49.265625 50.4375 45.09375 
Q 46.96875 40.921875 40.578125 39.3125 
z
" id="DejaVuSans-33"/>
    </defs>
    <g transform="translate(369.18424 225.423372)scale(0.17 -0.17)">
     <use xlink:href="#DejaVuSans-66"/>
     <use x="35.205078" xlink:href="#DejaVuSans-33"/>
    </g>
   </g>
   <g id="text_15">
    <!-- f2 -->
    <g transform="translate(369.18424 156.979466)scale(0.17 -0.17)">
     <use xlink:href="#DejaVuSans-66"/>
     <use x="35.205078" xlink:href="#DejaVuSans-32"/>
    </g>
   </g>
   <g id="text_16">
    <!-- f1 -->
    <g transform="translate(369.18424 88.53556)scale(0.17 -0.17)">
     <use xlink:href="#DejaVuSans-66"/>
     <use x="35.205078" xlink:href="#DejaVuSans-31"/>
    </g>
   </g>
   <g id="text_17">
    <!-- f5 -->
    <defs>
     <path d="M 10.796875 72.90625 
L 49.515625 72.90625 
L 49.515625 64.59375 
L 19.828125 64.59375 
L 19.828125 46.734375 
Q 21.96875 47.46875 24.109375 47.828125 
Q 26.265625 48.1875 28.421875 48.1875 
Q 40.625 48.1875 47.75 41.5 
Q 54.890625 34.8125 54.890625 23.390625 
Q 54.890625 11.625 47.5625 5.09375 
Q 40.234375 -1.421875 26.90625 -1.421875 
Q 22.3125 -1.421875 17.546875 -0.640625 
Q 12.796875 0.140625 7.71875 1.703125 
L 7.71875 11.625 
Q 12.109375 9.234375 16.796875 8.0625 
Q 21.484375 6.890625 26.703125 6.890625 
Q 35.15625 6.890625 40.078125 11.328125 
Q 45.015625 15.765625 45.015625 23.390625 
Q 45.015625 31 40.078125 35.4375 
Q 35.15625 39.890625 26.703125 39.890625 
Q 22.75 39.890625 18.8125 39.015625 
Q 14.890625 38.140625 10.796875 36.28125 
z
" id="DejaVuSans-35"/>
    </defs>
    <g transform="translate(369.18424 20.091654)scale(0.17 -0.17)">
     <use xlink:href="#DejaVuSans-66"/>
     <use x="35.205078" xlink:href="#DejaVuSans-35"/>
    </g>
   </g>
   <g id="text_18">
    <!-- bbob -->
    <defs>
     <path d="M 48.6875 27.296875 
Q 48.6875 37.203125 44.609375 42.84375 
Q 40.53125 48.484375 33.40625 48.484375 
Q 26.265625 48.484375 22.1875 42.84375 
Q 18.109375 37.203125 18.109375 27.296875 
Q 18.109375 17.390625 22.1875 11.75 
Q 26.265625 6.109375 33.40625 6.109375 
Q 40.53125 6.109375 44.609375 11.75 
Q 48.6875 17.390625 48.6875 27.296875 
z
M 18.109375 46.390625 
Q 20.953125 51.265625 25.265625 53.625 
Q 29.59375 56 35.59375 56 
Q 45.5625 56 51.78125 48.09375 
Q 58.015625 40.1875 58.015625 27.296875 
Q 58.015625 14.40625 51.78125 6.484375 
Q 45.5625 -1.421875 35.59375 -1.421875 
Q 29.59375 -1.421875 25.265625 0.953125 
Q 20.953125 3.328125 18.109375 8.203125 
L 18.109375 0 
L 9.078125 0 
L 9.078125 75.984375 
L 18.109375 75.984375 
z
" id="DejaVuSans-62"/>
    </defs>
    <g transform="translate(58.89048 17.475982)scale(0.102 -0.102)">
     <use xlink:href="#DejaVuSans-62"/>
     <use x="63.476562" xlink:href="#DejaVuSans-62"/>
     <use x="126.953125" xlink:href="#DejaVuSans-6f"/>
     <use x="188.134766" xlink:href="#DejaVuSans-62"/>
    </g>
    <!-- Separable functions, 5-D -->
    <defs>
     <path d="M 53.515625 70.515625 
L 53.515625 60.890625 
Q 47.90625 63.578125 42.921875 64.890625 
Q 37.9375 66.21875 33.296875 66.21875 
Q 25.25 66.21875 20.875 63.09375 
Q 16.5 59.96875 16.5 54.203125 
Q 16.5 49.359375 19.40625 46.890625 
Q 22.3125 44.4375 30.421875 42.921875 
L 36.375 41.703125 
Q 47.40625 39.59375 52.65625 34.296875 
Q 57.90625 29 57.90625 20.125 
Q 57.90625 9.515625 50.796875 4.046875 
Q 43.703125 -1.421875 29.984375 -1.421875 
Q 24.8125 -1.421875 18.96875 -0.25 
Q 13.140625 0.921875 6.890625 3.21875 
L 6.890625 13.375 
Q 12.890625 10.015625 18.65625 8.296875 
Q 24.421875 6.59375 29.984375 6.59375 
Q 38.421875 6.59375 43.015625 9.90625 
Q 47.609375 13.234375 47.609375 19.390625 
Q 47.609375 24.75 44.3125 27.78125 
Q 41.015625 30.8125 33.5 32.328125 
L 27.484375 33.5 
Q 16.453125 35.6875 11.515625 40.375 
Q 6.59375 45.0625 6.59375 53.421875 
Q 6.59375 63.09375 13.40625 68.65625 
Q 20.21875 74.21875 32.171875 74.21875 
Q 37.3125 74.21875 42.625 73.28125 
Q 47.953125 72.359375 53.515625 70.515625 
z
" id="DejaVuSans-53"/>
     <path d="M 19.671875 64.796875 
L 19.671875 8.109375 
L 31.59375 8.109375 
Q 46.6875 8.109375 53.6875 14.9375 
Q 60.6875 21.78125 60.6875 36.53125 
Q 60.6875 51.171875 53.6875 57.984375 
Q 46.6875 64.796875 31.59375 64.796875 
z
M 9.8125 72.90625 
L 30.078125 72.90625 
Q 51.265625 72.90625 61.171875 64.09375 
Q 71.09375 55.28125 71.09375 36.53125 
Q 71.09375 17.671875 61.125 8.828125 
Q 51.171875 0 30.078125 0 
L 9.8125 0 
z
" id="DejaVuSans-44"/>
    </defs>
    <g transform="translate(58.89048 28.89775)scale(0.102 -0.102)">
     <use xlink:href="#DejaVuSans-53"/>
     <use x="63.476562" xlink:href="#DejaVuSans-65"/>
     <use x="125" xlink:href="#DejaVuSans-70"/>
     <use x="188.476562" xlink:href="#DejaVuSans-61"/>
     <use x="249.755859" xlink:href="#DejaVuSans-72"/>
     <use x="290.869141" xlink:href="#DejaVuSans-61"/>
     <use x="352.148438" xlink:href="#DejaVuSans-62"/>
     <use x="415.625" xlink:href="#DejaVuSans-6c"/>
     <use x="443.408203" xlink:href="#DejaVuSans-65"/>
     <use x="504.931641" xlink:href="#DejaVuSans-20"/>
     <use x="536.71875" xlink:href="#DejaVuSans-66"/>
     <use x="571.923828" xlink:href="#DejaVuSans-75"/>
     <use x="635.302734" xlink:href="#DejaVuSans-6e"/>
     <use x="698.681641" xlink:href="#DejaVuSans-63"/>
     <use x="753.662109" xlink:href="#DejaVuSans-74"/>
     <use x="792.871094" xlink:href="#DejaVuSans-69"/>
     <use x="820.654297" xlink:href="#DejaVuSans-6f"/>
     <use x="881.835938" xlink:href="#DejaVuSans-6e"/>
     <use x="945.214844" xlink:href="#DejaVuSans-73"/>
     <use x="997.314453" xlink:href="#DejaVuSans-2c"/>
     <use x="1029.101562" xlink:href="#DejaVuSans-20"/>
     <use x="1060.888672" xlink:href="#DejaVuSans-35"/>
     <use x="1124.511719" xlink:href="#DejaVuSans-2d"/>
     <use x="1160.595703" xlink:href="#DejaVuSans-44"/>
    </g>
    <!-- 51 targets: 100..1e-08 -->
    <defs>
     <path d="M 11.71875 12.40625 
L 22.015625 12.40625 
L 22.015625 0 
L 11.71875 0 
z
M 11.71875 51.703125 
L 22.015625 51.703125 
L 22.015625 39.3125 
L 11.71875 39.3125 
z
" id="DejaVuSans-3a"/>
    </defs>
    <g transform="translate(58.89048 40.319519)scale(0.102 -0.102)">
     <use xlink:href="#DejaVuSans-35"/>
     <use x="63.623047" xlink:href="#DejaVuSans-31"/>
     <use x="127.246094" xlink:href="#DejaVuSans-20"/>
     <use x="159.033203" xlink:href="#DejaVuSans-74"/>
     <use x="198.242188" xlink:href="#DejaVuSans-61"/>
     <use x="259.521484" xlink:href="#DejaVuSans-72"/>
     <use x="300.619141" xlink:href="#DejaVuSans-67"/>
     <use x="364.095703" xlink:href="#DejaVuSans-65"/>
     <use x="425.619141" xlink:href="#DejaVuSans-74"/>
     <use x="464.828125" xlink:href="#DejaVuSans-73"/>
     <use x="516.927734" xlink:href="#DejaVuSans-3a"/>
     <use x="550.619141" xlink:href="#DejaVuSans-20"/>
     <use x="582.40625" xlink:href="#DejaVuSans-31"/>
     <use x="646.029297" xlink:href="#DejaVuSans-30"/>
     <use x="709.652344" xlink:href="#DejaVuSans-30"/>
     <use x="773.275391" xlink:href="#DejaVuSans-2e"/>
     <use x="805.0625" xlink:href="#DejaVuSans-2e"/>
     <use x="836.849609" xlink:href="#DejaVuSans-31"/>
     <use x="900.472656" xlink:href="#DejaVuSans-65"/>
     <use x="961.996094" xlink:href="#DejaVuSans-2d"/>
     <use x="998.080078" xlink:href="#DejaVuSans-30"/>
     <use x="1061.703125" xlink:href="#DejaVuSans-38"/>
    </g>
    <!-- 15 instances -->
    <g transform="translate(58.89048 51.741288)scale(0.102 -0.102)">
     <use xlink:href="#DejaVuSans-31"/>
     <use x="63.623047" xlink:href="#DejaVuSans-35"/>
     <use x="127.246094" xlink:href="#DejaVuSans-20"/>
     <use x="159.033203" xlink:href="#DejaVuSans-69"/>
     <use x="186.816406" xlink:href="#DejaVuSans-6e"/>
     <use x="250.195312" xlink:href="#DejaVuSans-73"/>
     <use x="302.294922" xlink:href="#DejaVuSans-74"/>
     <use x="341.503906" xlink:href="#DejaVuSans-61"/>
     <use x="402.783203" xlink:href="#DejaVuSans-6e"/>
     <use x="466.162109" xlink:href="#DejaVuSans-63"/>
     <use x="521.142578" xlink:href="#DejaVuSans-65"/>
     <use x="582.666016" xlink:href="#DejaVuSans-73"/>
    </g>
   </g>
   <g id="text_19">
    <!-- v0.0.0 -->
    <g style="fill:#808080;" transform="translate(178.96275 289.919965)scale(0.1 -0.1)">
     <use xlink:href="#DejaVuSans-76"/>
     <use x="59.179688" xlink:href="#DejaVuSans-30"/>
     <use x="122.802734" xlink:href="#DejaVuSans-2e"/>
     <use x="154.589844" xlink:href="#DejaVuSans-30"/>
     <use x="218.212891" xlink:href="#DejaVuSans-2e"/>
     <use x="250" xlink:href="#DejaVuSans-30"/>
    </g>
   </g>
  </g>
 </g>
 <defs>
  <clipPath id="p08001dd8fe">
   <rect height="288.034772" width="277.048" x="56.12" y="6.845228"/>
  </clipPath>
 </defs>
</svg>
