<?xml version="1.0" encoding="utf-8" standalone="no"?>
<!DOCTYPE svg PUBLIC "-//W3C//DTD SVG 1.1//EN"
  "http://www.w3.org/Graphics/SVG/1.1/DTD/svg11.dtd">
<!-- Created with matplotlib (http://matplotlib.org/) -->
<svg height="345.6pt" version="1.1" viewBox="0 0 460.8 345.6" width="460.8pt" xmlns="http://www.w3.org/2000/svg" xmlns:xlink="http://www.w3.org/1999/xlink">
 <defs>
  <style type="text/css">
*{stroke-linecap:butt;stroke-linejoin:round;}
  </style>
 </defs>
 <g id="figure_1">
  <g id="patch_1">
   <path d="M 0 345.6 
L 460.8 345.6 
L 460.8 0 
L 0 0 
z
" style="fill:#ffffff;"/>
  </g>
  <g id="axes_1">
   <g id="patch_2">
    <path d="M 56.12 294.88 
L 333.168 294.88 
L 333.168 24.84 
L 56.12 24.84 
z
" style="fill:#ffffff;"/>
   </g>
   <g id="matplotlib.axis_1">
    <g id="xtick_1">
     <g id="line2d_1">
      <path clip-path="url(#p39f7b8e9cc)" d="M 56.12 294.88 
L 56.12 24.84 
" style="fill:none;stroke:#b0b0b0;stroke-linecap:square;stroke-width:0.8;"/>
     </g>
     <g id="line2d_2">
      <defs>
       <path d="M 0 0 
L 0 3.5 
" id="mef266eb365" style="stroke:#000000;stroke-width:0.8;"/>
      </defs>
      <g>
       <use style="stroke:#000000;stroke-width:0.8;" x="56.12" xlink:href="#mef266eb365" y="294.88"/>
      </g>
     </g>
     <g id="text_1">
      <!-- 0 -->
      <defs>
       <path d="M 31.78125 66.40625 
Q 24.171875 66.40625 20.328125 58.90625 
Q 16.5 51.421875 16.5 36.375 
Q 16.5 21.390625 20.328125 13.890625 
Q 24.171875 6.390625 31.78125 6.390625 
Q 39.453125 6.390625 43.28125 13.890625 
Q 47.125 21.390625 47.125 36.375 
Q 47.125 51.421875 43.28125 58.90625 
Q 39.453125 66.40625 31.78125 66.40625 
z
M 31.78125 74.21875 
Q 44.046875 74.21875 50.515625 64.515625 
Q 56.984375 54.828125 56.984375 36.375 
Q 56.984375 17.96875 50.515625 8.265625 
Q 44.046875 -1.421875 31.78125 -1.421875 
Q 19.53125 -1.421875 13.0625 8.265625 
Q 6.59375 17.96875 6.59375 36.375 
Q 6.59375 54.828125 13.0625 64.515625 
Q 19.53125 74.21875 31.78125 74.21875 
z
" id="DejaVuSans-30"/>
      </defs>
      <g transform="translate(49.7575 317.076875)scale(0.2 -0.2)">
       <use xlink:href="#DejaVuSans-30"/>
      </g>
     </g>
    </g>
    <g id="xtick_2">
     <g id="line2d_3">
      <path clip-path="url(#p39f7b8e9cc)" d="M 135.276571 294.88 
L 135.276571 24.84 
" style="fill:none;stroke:#b0b0b0;stroke-linecap:square;stroke-width:0.8;"/>
     </g>
     <g id="line2d_4">
      <g>
       <use style="stroke:#000000;stroke-width:0.8;" x="135.276571" xlink:href="#mef266eb365" y="294.88"/>
      </g>
     </g>
     <g id="text_2">
      <!-- 2 -->
      <defs>
       <path d="M 19.1875 8.296875 
L 53.609375 8.296875 
L 53.609375 0 
L 7.328125 0 
L 7.328125 8.296875 
Q 12.9375 14.109375 22.625 23.890625 
Q 32.328125 33.6875 34.8125 36.53125 
Q 39.546875 41.84375 41.421875 45.53125 
Q 43.3125 49.21875 43.3125 52.78125 
Q 43.3125 58.59375 39.234375 62.25 
Q 35.15625 65.921875 28.609375 65.921875 
Q 23.96875 65.921875 18.8125 64.3125 
Q 13.671875 62.703125 7.8125 59.421875 
L 7.8125 69.390625 
Q 13.765625 71.78125 18.9375 73 
Q 24.125 74.21875 28.421875 74.21875 
Q 39.75 74.21875 46.484375 68.546875 
Q 53.21875 62.890625 53.21875 53.421875 
Q 53.21875 48.921875 51.53125 44.890625 
Q 49.859375 40.875 45.40625 35.40625 
Q 44.1875 33.984375 37.640625 27.21875 
Q 31.109375 20.453125 19.1875 8.296875 
z
" id="DejaVuSans-32"/>
      </defs>
      <g transform="translate(128.914071 317.076875)scale(0.2 -0.2)">
       <use xlink:href="#DejaVuSans-32"/>
      </g>
     </g>
    </g>
    <g id="xtick_3">
     <g id="line2d_5">
      <path clip-path="url(#p39f7b8e9cc)" d="M 214.433143 294.88 
L 214.433143 24.84 
" style="fill:none;stroke:#b0b0b0;stroke-linecap:square;stroke-width:0.8;"/>
     </g>
     <g id="line2d_6">
      <g>
       <use style="stroke:#000000;stroke-width:0.8;" x="214.433143" xlink:href="#mef266eb365" y="294.88"/>
      </g>
     </g>
     <g id="text_3">
      <!-- 4 -->
      <defs>
       <path d="M 37.796875 64.3125 
L 12.890625 25.390625 
L 37.796875 25.390625 
z
M 35.203125 72.90625 
L 47.609375 72.90625 
L 47.609375 25.390625 
L 58.015625 25.390625 
L 58.015625 17.1875 
L 47.609375 17.1875 
L 47.609375 0 
L 37.796875 0 
L 37.796875 17.1875 
L 4.890625 17.1875 
L 4.890625 26.703125 
z
" id="DejaVuSans-34"/>
      </defs>
      <g transform="translate(208.070643 317.076875)scale(0.2 -0.2)">
       <use xlink:href="#DejaVuSans-34"/>
      </g>
     </g>
    </g>
    <g id="xtick_4">
     <g id="line2d_7">
      <path clip-path="url(#p39f7b8e9cc)" d="M 293.589714 294.88 
L 293.589714 24.84 
" style="fill:none;stroke:#b0b0b0;stroke-linecap:square;stroke-width:0.8;"/>
     </g>
     <g id="line2d_8">
      <g>
       <use style="stroke:#000000;stroke-width:0.8;" x="293.589714" xlink:href="#mef266eb365" y="294.88"/>
      </g>
     </g>
     <g id="text_4">
      <!-- 6 -->
      <defs>
       <path d="M 33.015625 40.375 
Q 26.375 40.375 22.484375 35.828125 
Q 18.609375 31.296875 18.609375 23.390625 
Q 18.609375 15.53125 22.484375 10.953125 
Q 26.375 6.390625 33.015625 6.390625 
Q 39.65625 6.390625 43.53125 10.953125 
Q 47.40625 15.53125 47.40625 23.390625 
Q 47.40625 31.296875 43.53125 35.828125 
Q 39.65625 40.375 33.015625 40.375 
z
M 52.59375 71.296875 
L 52.59375 62.3125 
Q 48.875 64.0625 45.09375 64.984375 
Q 41.3125 65.921875 37.59375 65.921875 
Q 27.828125 65.921875 22.671875 59.328125 
Q 17.53125 52.734375 16.796875 39.40625 
Q 19.671875 43.65625 24.015625 45.921875 
Q 28.375 48.1875 33.59375 48.1875 
Q 44.578125 48.1875 50.953125 41.515625 
Q 57.328125 34.859375 57.328125 23.390625 
Q 57.328125 12.15625 50.6875 5.359375 
Q 44.046875 -1.421875 33.015625 -1.421875 
Q 20.359375 -1.421875 13.671875 8.265625 
Q 6.984375 17.96875 6.984375 36.375 
Q 6.984375 53.65625 15.1875 63.9375 
Q 23.390625 74.21875 37.203125 74.21875 
Q 40.921875 74.21875 44.703125 73.484375 
Q 48.484375 72.75 52.59375 71.296875 
z
" id="DejaVuSans-36"/>
      </defs>
      <g transform="translate(287.227214 317.076875)scale(0.2 -0.2)">
       <use xlink:href="#DejaVuSans-36"/>
      </g>
     </g>
    </g>
    <g id="xtick_5">
     <g id="line2d_9">
      <path clip-path="url(#p39f7b8e9cc)" d="M 56.12 294.88 
L 56.12 24.84 
" style="fill:none;stroke:#b0b0b0;stroke-linecap:square;stroke-width:0.8;"/>
     </g>
     <g id="line2d_10">
      <defs>
       <path d="M 0 0 
L 0 2 
" id="meea12d60af" style="stroke:#000000;stroke-width:0.6;"/>
      </defs>
      <g>
       <use style="stroke:#000000;stroke-width:0.6;" x="56.12" xlink:href="#meea12d60af" y="294.88"/>
      </g>
     </g>
    </g>
    <g id="xtick_6">
     <g id="line2d_11">
      <path clip-path="url(#p39f7b8e9cc)" d="M 95.698286 294.88 
L 95.698286 24.84 
" style="fill:none;stroke:#b0b0b0;stroke-linecap:square;stroke-width:0.8;"/>
     </g>
     <g id="line2d_12">
      <g>
       <use style="stroke:#000000;stroke-width:0.6;" x="95.698286" xlink:href="#meea12d60af" y="294.88"/>
      </g>
     </g>
    </g>
    <g id="xtick_7">
     <g id="line2d_13">
      <path clip-path="url(#p39f7b8e9cc)" d="M 135.276571 294.88 
L 135.276571 24.84 
" style="fill:none;stroke:#b0b0b0;stroke-linecap:square;stroke-width:0.8;"/>
     </g>
     <g id="line2d_14">
      <g>
       <use style="stroke:#000000;stroke-width:0.6;" x="135.276571" xlink:href="#meea12d60af" y="294.88"/>
      </g>
     </g>
    </g>
    <g id="xtick_8">
     <g id="line2d_15">
      <path clip-path="url(#p39f7b8e9cc)" d="M 174.854857 294.88 
L 174.854857 24.84 
" style="fill:none;stroke:#b0b0b0;stroke-linecap:square;stroke-width:0.8;"/>
     </g>
     <g id="line2d_16">
      <g>
       <use style="stroke:#000000;stroke-width:0.6;" x="174.854857" xlink:href="#meea12d60af" y="294.88"/>
      </g>
     </g>
    </g>
    <g id="xtick_9">
     <g id="line2d_17">
      <path clip-path="url(#p39f7b8e9cc)" d="M 214.433143 294.88 
L 214.433143 24.84 
" style="fill:none;stroke:#b0b0b0;stroke-linecap:square;stroke-width:0.8;"/>
     </g>
     <g id="line2d_18">
      <g>
       <use style="stroke:#000000;stroke-width:0.6;" x="214.433143" xlink:href="#meea12d60af" y="294.88"/>
      </g>
     </g>
    </g>
    <g id="xtick_10">
     <g id="line2d_19">
      <path clip-path="url(#p39f7b8e9cc)" d="M 254.011429 294.88 
L 254.011429 24.84 
" style="fill:none;stroke:#b0b0b0;stroke-linecap:square;stroke-width:0.8;"/>
     </g>
     <g id="line2d_20">
      <g>
       <use style="stroke:#000000;stroke-width:0.6;" x="254.011429" xlink:href="#meea12d60af" y="294.88"/>
      </g>
     </g>
    </g>
    <g id="xtick_11">
     <g id="line2d_21">
      <path clip-path="url(#p39f7b8e9cc)" d="M 293.589714 294.88 
L 293.589714 24.84 
" style="fill:none;stroke:#b0b0b0;stroke-linecap:square;stroke-width:0.8;"/>
     </g>
     <g id="line2d_22">
      <g>
       <use style="stroke:#000000;stroke-width:0.6;" x="293.589714" xlink:href="#meea12d60af" y="294.88"/>
      </g>
     </g>
    </g>
    <g id="xtick_12">
     <g id="line2d_23">
      <path clip-path="url(#p39f7b8e9cc)" d="M 333.168 294.88 
L 333.168 24.84 
" style="fill:none;stroke:#b0b0b0;stroke-linecap:square;stroke-width:0.8;"/>
     </g>
     <g id="line2d_24">
      <g>
       <use style="stroke:#000000;stroke-width:0.6;" x="333.168" xlink:href="#meea12d60af" y="294.88"/>
      </g>
     </g>
    </g>
    <g id="text_5">
     <!-- log10(# f-evals / dimension) -->
     <defs>
      <path d="M 9.421875 75.984375 
L 18.40625 75.984375 
L 18.40625 0 
L 9.421875 0 
z
" id="DejaVuSans-6c"/>
      <path d="M 30.609375 48.390625 
Q 23.390625 48.390625 19.1875 42.75 
Q 14.984375 37.109375 14.984375 27.296875 
Q 14.984375 17.484375 19.15625 11.84375 
Q 23.34375 6.203125 30.609375 6.203125 
Q 37.796875 6.203125 41.984375 11.859375 
Q 46.1875 17.53125 46.1875 27.296875 
Q 46.1875 37.015625 41.984375 42.703125 
Q 37.796875 48.390625 30.609375 48.390625 
z
M 30.609375 56 
Q 42.328125 56 49.015625 48.375 
Q 55.71875 40.765625 55.71875 27.296875 
Q 55.71875 13.875 49.015625 6.21875 
Q 42.328125 -1.421875 30.609375 -1.421875 
Q 18.84375 -1.421875 12.171875 6.21875 
Q 5.515625 13.875 5.515625 27.296875 
Q 5.515625 40.765625 12.171875 48.375 
Q 18.84375 56 30.609375 56 
z
" id="DejaVuSans-6f"/>
      <path d="M 45.40625 27.984375 
Q 45.40625 37.75 41.375 43.109375 
Q 37.359375 48.484375 30.078125 48.484375 
Q 22.859375 48.484375 18.828125 43.109375 
Q 14.796875 37.75 14.796875 27.984375 
Q 14.796875 18.265625 18.828125 12.890625 
Q 22.859375 7.515625 30.078125 7.515625 
Q 37.359375 7.515625 41.375 12.890625 
Q 45.40625 18.265625 45.40625 27.984375 
z
M 54.390625 6.78125 
Q 54.390625 -7.171875 48.1875 -13.984375 
Q 42 -20.796875 29.203125 -20.796875 
Q 24.46875 -20.796875 20.265625 -20.09375 
Q 16.0625 -19.390625 12.109375 -17.921875 
L 12.109375 -9.1875 
Q 16.0625 -11.328125 19.921875 -12.34375 
Q 23.78125 -13.375 27.78125 -13.375 
Q 36.625 -13.375 41.015625 -8.765625 
Q 45.40625 -4.15625 45.40625 5.171875 
L 45.40625 9.625 
Q 42.625 4.78125 38.28125 2.390625 
Q 33.9375 0 27.875 0 
Q 17.828125 0 11.671875 7.65625 
Q 5.515625 15.328125 5.515625 27.984375 
Q 5.515625 40.671875 11.671875 48.328125 
Q 17.828125 56 27.875 56 
Q 33.9375 56 38.28125 53.609375 
Q 42.625 51.21875 45.40625 46.390625 
L 45.40625 54.6875 
L 54.390625 54.6875 
z
" id="DejaVuSans-67"/>
      <path d="M 12.40625 8.296875 
L 28.515625 8.296875 
L 28.515625 63.921875 
L 10.984375 60.40625 
L 10.984375 69.390625 
L 28.421875 72.90625 
L 38.28125 72.90625 
L 38.28125 8.296875 
L 54.390625 8.296875 
L 54.390625 0 
L 12.40625 0 
z
" id="DejaVuSans-31"/>
      <path d="M 31 75.875 
Q 24.46875 64.65625 21.28125 53.65625 
Q 18.109375 42.671875 18.109375 31.390625 
Q 18.109375 20.125 21.3125 9.0625 
Q 24.515625 -2 31 -13.1875 
L 23.1875 -13.1875 
Q 15.875 -1.703125 12.234375 9.375 
Q 8.59375 20.453125 8.59375 31.390625 
Q 8.59375 42.28125 12.203125 53.3125 
Q 15.828125 64.359375 23.1875 75.875 
z
" id="DejaVuSans-28"/>
      <path d="M 51.125 44 
L 36.921875 44 
L 32.8125 27.6875 
L 47.125 27.6875 
z
M 43.796875 71.78125 
L 38.71875 51.515625 
L 52.984375 51.515625 
L 58.109375 71.78125 
L 65.921875 71.78125 
L 60.890625 51.515625 
L 76.125 51.515625 
L 76.125 44 
L 58.984375 44 
L 54.984375 27.6875 
L 70.515625 27.6875 
L 70.515625 20.21875 
L 53.078125 20.21875 
L 48 0 
L 40.1875 0 
L 45.21875 20.21875 
L 30.90625 20.21875 
L 25.875 0 
L 18.015625 0 
L 23.09375 20.21875 
L 7.71875 20.21875 
L 7.71875 27.6875 
L 24.90625 27.6875 
L 29 44 
L 13.28125 44 
L 13.28125 51.515625 
L 30.90625 51.515625 
L 35.890625 71.78125 
z
" id="DejaVuSans-23"/>
      <path id="DejaVuSans-20"/>
      <path d="M 37.109375 75.984375 
L 37.109375 68.5 
L 28.515625 68.5 
Q 23.6875 68.5 21.796875 66.546875 
Q 19.921875 64.59375 19.921875 59.515625 
L 19.921875 54.6875 
L 34.71875 54.6875 
L 34.71875 47.703125 
L 19.921875 47.703125 
L 19.921875 0 
L 10.890625 0 
L 10.890625 47.703125 
L 2.296875 47.703125 
L 2.296875 54.6875 
L 10.890625 54.6875 
L 10.890625 58.5 
Q 10.890625 67.625 15.140625 71.796875 
Q 19.390625 75.984375 28.609375 75.984375 
z
" id="DejaVuSans-66"/>
      <path d="M 4.890625 31.390625 
L 31.203125 31.390625 
L 31.203125 23.390625 
L 4.890625 23.390625 
z
" id="DejaVuSans-2d"/>
      <path d="M 56.203125 29.59375 
L 56.203125 25.203125 
L 14.890625 25.203125 
Q 15.484375 15.921875 20.484375 11.0625 
Q 25.484375 6.203125 34.421875 6.203125 
Q 39.59375 6.203125 44.453125 7.46875 
Q 49.3125 8.734375 54.109375 11.28125 
L 54.109375 2.78125 
Q 49.265625 0.734375 44.1875 -0.34375 
Q 39.109375 -1.421875 33.890625 -1.421875 
Q 20.796875 -1.421875 13.15625 6.1875 
Q 5.515625 13.8125 5.515625 26.8125 
Q 5.515625 40.234375 12.765625 48.109375 
Q 20.015625 56 32.328125 56 
Q 43.359375 56 49.78125 48.890625 
Q 56.203125 41.796875 56.203125 29.59375 
z
M 47.21875 32.234375 
Q 47.125 39.59375 43.09375 43.984375 
Q 39.0625 48.390625 32.421875 48.390625 
Q 24.90625 48.390625 20.390625 44.140625 
Q 15.875 39.890625 15.1875 32.171875 
z
" id="DejaVuSans-65"/>
      <path d="M 2.984375 54.6875 
L 12.5 54.6875 
L 29.59375 8.796875 
L 46.6875 54.6875 
L 56.203125 54.6875 
L 35.6875 0 
L 23.484375 0 
z
" id="DejaVuSans-76"/>
      <path d="M 34.28125 27.484375 
Q 23.390625 27.484375 19.1875 25 
Q 14.984375 22.515625 14.984375 16.5 
Q 14.984375 11.71875 18.140625 8.90625 
Q 21.296875 6.109375 26.703125 6.109375 
Q 34.1875 6.109375 38.703125 11.40625 
Q 43.21875 16.703125 43.21875 25.484375 
L 43.21875 27.484375 
z
M 52.203125 31.203125 
L 52.203125 0 
L 43.21875 0 
L 43.21875 8.296875 
Q 40.140625 3.328125 35.546875 0.953125 
Q 30.953125 -1.421875 24.3125 -1.421875 
Q 15.921875 -1.421875 10.953125 3.296875 
Q 6 8.015625 6 15.921875 
Q 6 25.140625 12.171875 29.828125 
Q 18.359375 34.515625 30.609375 34.515625 
L 43.21875 34.515625 
L 43.21875 35.40625 
Q 43.21875 41.609375 39.140625 45 
Q 35.0625 48.390625 27.6875 48.390625 
Q 23 48.390625 18.546875 47.265625 
Q 14.109375 46.140625 10.015625 43.890625 
L 10.015625 52.203125 
Q 14.9375 54.109375 19.578125 55.046875 
Q 24.21875 56 28.609375 56 
Q 40.484375 56 46.34375 49.84375 
Q 52.203125 43.703125 52.203125 31.203125 
z
" id="DejaVuSans-61"/>
      <path d="M 44.28125 53.078125 
L 44.28125 44.578125 
Q 40.484375 46.53125 36.375 47.5 
Q 32.28125 48.484375 27.875 48.484375 
Q 21.1875 48.484375 17.84375 46.4375 
Q 14.5 44.390625 14.5 40.28125 
Q 14.5 37.15625 16.890625 35.375 
Q 19.28125 33.59375 26.515625 31.984375 
L 29.59375 31.296875 
Q 39.15625 29.25 43.1875 25.515625 
Q 47.21875 21.78125 47.21875 15.09375 
Q 47.21875 7.46875 41.1875 3.015625 
Q 35.15625 -1.421875 24.609375 -1.421875 
Q 20.21875 -1.421875 15.453125 -0.5625 
Q 10.6875 0.296875 5.421875 2 
L 5.421875 11.28125 
Q 10.40625 8.6875 15.234375 7.390625 
Q 20.0625 6.109375 24.8125 6.109375 
Q 31.15625 6.109375 34.5625 8.28125 
Q 37.984375 10.453125 37.984375 14.40625 
Q 37.984375 18.0625 35.515625 20.015625 
Q 33.0625 21.96875 24.703125 23.78125 
L 21.578125 24.515625 
Q 13.234375 26.265625 9.515625 29.90625 
Q 5.8125 33.546875 5.8125 39.890625 
Q 5.8125 47.609375 11.28125 51.796875 
Q 16.75 56 26.8125 56 
Q 31.78125 56 36.171875 55.265625 
Q 40.578125 54.546875 44.28125 53.078125 
z
" id="DejaVuSans-73"/>
      <path d="M 25.390625 72.90625 
L 33.6875 72.90625 
L 8.296875 -9.28125 
L 0 -9.28125 
z
" id="DejaVuSans-2f"/>
      <path d="M 45.40625 46.390625 
L 45.40625 75.984375 
L 54.390625 75.984375 
L 54.390625 0 
L 45.40625 0 
L 45.40625 8.203125 
Q 42.578125 3.328125 38.25 0.953125 
Q 33.9375 -1.421875 27.875 -1.421875 
Q 17.96875 -1.421875 11.734375 6.484375 
Q 5.515625 14.40625 5.515625 27.296875 
Q 5.515625 40.1875 11.734375 48.09375 
Q 17.96875 56 27.875 56 
Q 33.9375 56 38.25 53.625 
Q 42.578125 51.265625 45.40625 46.390625 
z
M 14.796875 27.296875 
Q 14.796875 17.390625 18.875 11.75 
Q 22.953125 6.109375 30.078125 6.109375 
Q 37.203125 6.109375 41.296875 11.75 
Q 45.40625 17.390625 45.40625 27.296875 
Q 45.40625 37.203125 41.296875 42.84375 
Q 37.203125 48.484375 30.078125 48.484375 
Q 22.953125 48.484375 18.875 42.84375 
Q 14.796875 37.203125 14.796875 27.296875 
z
" id="DejaVuSans-64"/>
      <path d="M 9.421875 54.6875 
L 18.40625 54.6875 
L 18.40625 0 
L 9.421875 0 
z
M 9.421875 75.984375 
L 18.40625 75.984375 
L 18.40625 64.59375 
L 9.421875 64.59375 
z
" id="DejaVuSans-69"/>
      <path d="M 52 44.1875 
Q 55.375 50.25 60.0625 53.125 
Q 64.75 56 71.09375 56 
Q 79.640625 56 84.28125 50.015625 
Q 88.921875 44.046875 88.921875 33.015625 
L 88.921875 0 
L 79.890625 0 
L 79.890625 32.71875 
Q 79.890625 40.578125 77.09375 44.375 
Q 74.3125 48.1875 68.609375 48.1875 
Q 61.625 48.1875 57.5625 43.546875 
Q 53.515625 38.921875 53.515625 30.90625 
L 53.515625 0 
L 44.484375 0 
L 44.484375 32.71875 
Q 44.484375 40.625 41.703125 44.40625 
Q 38.921875 48.1875 33.109375 48.1875 
Q 26.21875 48.1875 22.15625 43.53125 
Q 18.109375 38.875 18.109375 30.90625 
L 18.109375 0 
L 9.078125 0 
L 9.078125 54.6875 
L 18.109375 54.6875 
L 18.109375 46.1875 
Q 21.1875 51.21875 25.484375 53.609375 
Q 29.78125 56 35.6875 56 
Q 41.65625 56 45.828125 52.96875 
Q 50 49.953125 52 44.1875 
z
" id="DejaVuSans-6d"/>
      <path d="M 54.890625 33.015625 
L 54.890625 0 
L 45.90625 0 
L 45.90625 32.71875 
Q 45.90625 40.484375 42.875 44.328125 
Q 39.84375 48.1875 33.796875 48.1875 
Q 26.515625 48.1875 22.3125 43.546875 
Q 18.109375 38.921875 18.109375 30.90625 
L 18.109375 0 
L 9.078125 0 
L 9.078125 54.6875 
L 18.109375 54.6875 
L 18.109375 46.1875 
Q 21.34375 51.125 25.703125 53.5625 
Q 30.078125 56 35.796875 56 
Q 45.21875 56 50.046875 50.171875 
Q 54.890625 44.34375 54.890625 33.015625 
z
" id="DejaVuSans-6e"/>
      <path d="M 8.015625 75.875 
L 15.828125 75.875 
Q 23.140625 64.359375 26.78125 53.3125 
Q 30.421875 42.28125 30.421875 31.390625 
Q 30.421875 20.453125 26.78125 9.375 
Q 23.140625 -1.703125 15.828125 -13.1875 
L 8.015625 -13.1875 
Q 14.5 -2 17.703125 9.0625 
Q 20.90625 20.125 20.90625 31.390625 
Q 20.90625 42.671875 17.703125 53.65625 
Q 14.5 64.65625 8.015625 75.875 
z
" id="DejaVuSans-29"/>
     </defs>
     <g transform="translate(73.803219 338.153594)scale(0.17 -0.17)">
      <use xlink:href="#DejaVuSans-6c"/>
      <use x="27.783203" xlink:href="#DejaVuSans-6f"/>
      <use x="88.964844" xlink:href="#DejaVuSans-67"/>
      <use x="152.441406" xlink:href="#DejaVuSans-31"/>
      <use x="216.064453" xlink:href="#DejaVuSans-30"/>
      <use x="279.6875" xlink:href="#DejaVuSans-28"/>
      <use x="318.701172" xlink:href="#DejaVuSans-23"/>
      <use x="402.490234" xlink:href="#DejaVuSans-20"/>
      <use x="434.277344" xlink:href="#DejaVuSans-66"/>
      <use x="469.404297" xlink:href="#DejaVuSans-2d"/>
      <use x="505.488281" xlink:href="#DejaVuSans-65"/>
      <use x="567.011719" xlink:href="#DejaVuSans-76"/>
      <use x="626.191406" xlink:href="#DejaVuSans-61"/>
      <use x="687.470703" xlink:href="#DejaVuSans-6c"/>
      <use x="715.253906" xlink:href="#DejaVuSans-73"/>
      <use x="767.353516" xlink:href="#DejaVuSans-20"/>
      <use x="799.140625" xlink:href="#DejaVuSans-2f"/>
      <use x="832.832031" xlink:href="#DejaVuSans-20"/>
      <use x="864.619141" xlink:href="#DejaVuSans-64"/>
      <use x="928.095703" xlink:href="#DejaVuSans-69"/>
      <use x="955.878906" xlink:href="#DejaVuSans-6d"/>
      <use x="1053.291016" xlink:href="#DejaVuSans-65"/>
      <use x="1114.814453" xlink:href="#DejaVuSans-6e"/>
      <use x="1178.193359" xlink:href="#DejaVuSans-73"/>
      <use x="1230.292969" xlink:href="#DejaVuSans-69"/>
      <use x="1258.076172" xlink:href="#DejaVuSans-6f"/>
      <use x="1319.257812" xlink:href="#DejaVuSans-6e"/>
      <use x="1382.636719" xlink:href="#DejaVuSans-29"/>
     </g>
    </g>
   </g>
   <g id="matplotlib.axis_2">
    <g id="ytick_1">
     <g id="line2d_25">
      <path clip-path="url(#p39f7b8e9cc)" d="M 56.12 294.88 
L 333.168 294.88 
" style="fill:none;stroke:#b0b0b0;stroke-linecap:square;stroke-width:0.8;"/>
     </g>
     <g id="line2d_26">
      <defs>
       <path d="M 0 0 
L -3.5 0 
" id="m29deb64442" style="stroke:#000000;stroke-width:0.8;"/>
      </defs>
      <g>
       <use style="stroke:#000000;stroke-width:0.8;" x="56.12" xlink:href="#m29deb64442" y="294.88"/>
      </g>
     </g>
     <g id="text_6">
      <!-- 0.0 -->
      <defs>
       <path d="M 10.6875 12.40625 
L 21 12.40625 
L 21 0 
L 10.6875 0 
z
" id="DejaVuSans-2e"/>
      </defs>
      <g transform="translate(23.675 300.95875)scale(0.16 -0.16)">
       <use xlink:href="#DejaVuSans-30"/>
       <use x="63.623047" xlink:href="#DejaVuSans-2e"/>
       <use x="95.410156" xlink:href="#DejaVuSans-30"/>
      </g>
     </g>
    </g>
    <g id="ytick_2">
     <g id="line2d_27">
      <path clip-path="url(#p39f7b8e9cc)" d="M 56.12 241.406733 
L 333.168 241.406733 
" style="fill:none;stroke:#b0b0b0;stroke-linecap:square;stroke-width:0.8;"/>
     </g>
     <g id="line2d_28">
      <g>
       <use style="stroke:#000000;stroke-width:0.8;" x="56.12" xlink:href="#m29deb64442" y="241.406733"/>
      </g>
     </g>
     <g id="text_7">
      <!-- 0.2 -->
      <g transform="translate(23.675 247.485483)scale(0.16 -0.16)">
       <use xlink:href="#DejaVuSans-30"/>
       <use x="63.623047" xlink:href="#DejaVuSans-2e"/>
       <use x="95.410156" xlink:href="#DejaVuSans-32"/>
      </g>
     </g>
    </g>
    <g id="ytick_3">
     <g id="line2d_29">
      <path clip-path="url(#p39f7b8e9cc)" d="M 56.12 187.933465 
L 333.168 187.933465 
" style="fill:none;stroke:#b0b0b0;stroke-linecap:square;stroke-width:0.8;"/>
     </g>
     <g id="line2d_30">
      <g>
       <use style="stroke:#000000;stroke-width:0.8;" x="56.12" xlink:href="#m29deb64442" y="187.933465"/>
      </g>
     </g>
     <g id="text_8">
      <!-- 0.4 -->
      <g transform="translate(23.675 194.012215)scale(0.16 -0.16)">
       <use xlink:href="#DejaVuSans-30"/>
       <use x="63.623047" xlink:href="#DejaVuSans-2e"/>
       <use x="95.410156" xlink:href="#DejaVuSans-34"/>
      </g>
     </g>
    </g>
    <g id="ytick_4">
     <g id="line2d_31">
      <path clip-path="url(#p39f7b8e9cc)" d="M 56.12 134.460198 
L 333.168 134.460198 
" style="fill:none;stroke:#b0b0b0;stroke-linecap:square;stroke-width:0.8;"/>
     </g>
     <g id="line2d_32">
      <g>
       <use style="stroke:#000000;stroke-width:0.8;" x="56.12" xlink:href="#m29deb64442" y="134.460198"/>
      </g>
     </g>
     <g id="text_9">
      <!-- 0.6 -->
      <g transform="translate(23.675 140.538948)scale(0.16 -0.16)">
       <use xlink:href="#DejaVuSans-30"/>
       <use x="63.623047" xlink:href="#DejaVuSans-2e"/>
       <use x="95.410156" xlink:href="#DejaVuSans-36"/>
      </g>
     </g>
    </g>
    <g id="ytick_5">
     <g id="line2d_33">
      <path clip-path="url(#p39f7b8e9cc)" d="M 56.12 80.986931 
L 333.168 80.986931 
" style="fill:none;stroke:#b0b0b0;stroke-linecap:square;stroke-width:0.8;"/>
     </g>
     <g id="line2d_34">
      <g>
       <use style="stroke:#000000;stroke-width:0.8;" x="56.12" xlink:href="#m29deb64442" y="80.986931"/>
      </g>
     </g>
     <g id="text_10">
      <!-- 0.8 -->
      <defs>
       <path d="M 31.78125 34.625 
Q 24.75 34.625 20.71875 30.859375 
Q 16.703125 27.09375 16.703125 20.515625 
Q 16.703125 13.921875 20.71875 10.15625 
Q 24.75 6.390625 31.78125 6.390625 
Q 38.8125 6.390625 42.859375 10.171875 
Q 46.921875 13.96875 46.921875 20.515625 
Q 46.921875 27.09375 42.890625 30.859375 
Q 38.875 34.625 31.78125 34.625 
z
M 21.921875 38.8125 
Q 15.578125 40.375 12.03125 44.71875 
Q 8.5 49.078125 8.5 55.328125 
Q 8.5 64.0625 14.71875 69.140625 
Q 20.953125 74.21875 31.78125 74.21875 
Q 42.671875 74.21875 48.875 69.140625 
Q 55.078125 64.0625 55.078125 55.328125 
Q 55.078125 49.078125 51.53125 44.71875 
Q 48 40.375 41.703125 38.8125 
Q 48.828125 37.15625 52.796875 32.3125 
Q 56.78125 27.484375 56.78125 20.515625 
Q 56.78125 9.90625 50.3125 4.234375 
Q 43.84375 -1.421875 31.78125 -1.421875 
Q 19.734375 -1.421875 13.25 4.234375 
Q 6.78125 9.90625 6.78125 20.515625 
Q 6.78125 27.484375 10.78125 32.3125 
Q 14.796875 37.15625 21.921875 38.8125 
z
M 18.3125 54.390625 
Q 18.3125 48.734375 21.84375 45.5625 
Q 25.390625 42.390625 31.78125 42.390625 
Q 38.140625 42.390625 41.71875 45.5625 
Q 45.3125 48.734375 45.3125 54.390625 
Q 45.3125 60.0625 41.71875 63.234375 
Q 38.140625 66.40625 31.78125 66.40625 
Q 25.390625 66.40625 21.84375 63.234375 
Q 18.3125 60.0625 18.3125 54.390625 
z
" id="DejaVuSans-38"/>
      </defs>
      <g transform="translate(23.675 87.065681)scale(0.16 -0.16)">
       <use xlink:href="#DejaVuSans-30"/>
       <use x="63.623047" xlink:href="#DejaVuSans-2e"/>
       <use x="95.410156" xlink:href="#DejaVuSans-38"/>
      </g>
     </g>
    </g>
    <g id="ytick_6">
     <g id="line2d_35">
      <path clip-path="url(#p39f7b8e9cc)" d="M 56.12 27.513663 
L 333.168 27.513663 
" style="fill:none;stroke:#b0b0b0;stroke-linecap:square;stroke-width:0.8;"/>
     </g>
     <g id="line2d_36">
      <g>
       <use style="stroke:#000000;stroke-width:0.8;" x="56.12" xlink:href="#m29deb64442" y="27.513663"/>
      </g>
     </g>
     <g id="text_11">
      <!-- 1.0 -->
      <g transform="translate(23.675 33.592413)scale(0.16 -0.16)">
       <use xlink:href="#DejaVuSans-31"/>
       <use x="63.623047" xlink:href="#DejaVuSans-2e"/>
       <use x="95.410156" xlink:href="#DejaVuSans-30"/>
      </g>
     </g>
    </g>
    <g id="text_12">
     <!-- Fraction of function,target pairs -->
     <defs>
      <path d="M 9.8125 72.90625 
L 51.703125 72.90625 
L 51.703125 64.59375 
L 19.671875 64.59375 
L 19.671875 43.109375 
L 48.578125 43.109375 
L 48.578125 34.8125 
L 19.671875 34.8125 
L 19.671875 0 
L 9.8125 0 
z
" id="DejaVuSans-46"/>
      <path d="M 41.109375 46.296875 
Q 39.59375 47.171875 37.8125 47.578125 
Q 36.03125 48 33.890625 48 
Q 26.265625 48 22.1875 43.046875 
Q 18.109375 38.09375 18.109375 28.8125 
L 18.109375 0 
L 9.078125 0 
L 9.078125 54.6875 
L 18.109375 54.6875 
L 18.109375 46.1875 
Q 20.953125 51.171875 25.484375 53.578125 
Q 30.03125 56 36.53125 56 
Q 37.453125 56 38.578125 55.875 
Q 39.703125 55.765625 41.0625 55.515625 
z
" id="DejaVuSans-72"/>
      <path d="M 48.78125 52.59375 
L 48.78125 44.1875 
Q 44.96875 46.296875 41.140625 47.34375 
Q 37.3125 48.390625 33.40625 48.390625 
Q 24.65625 48.390625 19.8125 42.84375 
Q 14.984375 37.3125 14.984375 27.296875 
Q 14.984375 17.28125 19.8125 11.734375 
Q 24.65625 6.203125 33.40625 6.203125 
Q 37.3125 6.203125 41.140625 7.25 
Q 44.96875 8.296875 48.78125 10.40625 
L 48.78125 2.09375 
Q 45.015625 0.34375 40.984375 -0.53125 
Q 36.96875 -1.421875 32.421875 -1.421875 
Q 20.0625 -1.421875 12.78125 6.34375 
Q 5.515625 14.109375 5.515625 27.296875 
Q 5.515625 40.671875 12.859375 48.328125 
Q 20.21875 56 33.015625 56 
Q 37.15625 56 41.109375 55.140625 
Q 45.0625 54.296875 48.78125 52.59375 
z
" id="DejaVuSans-63"/>
      <path d="M 18.3125 70.21875 
L 18.3125 54.6875 
L 36.8125 54.6875 
L 36.8125 47.703125 
L 18.3125 47.703125 
L 18.3125 18.015625 
Q 18.3125 11.328125 20.140625 9.421875 
Q 21.96875 7.515625 27.59375 7.515625 
L 36.8125 7.515625 
L 36.8125 0 
L 27.59375 0 
Q 17.1875 0 13.234375 3.875 
Q 9.28125 7.765625 9.28125 18.015625 
L 9.28125 47.703125 
L 2.6875 47.703125 
L 2.6875 54.6875 
L 9.28125 54.6875 
L 9.28125 70.21875 
z
" id="DejaVuSans-74"/>
      <path d="M 8.5 21.578125 
L 8.5 54.6875 
L 17.484375 54.6875 
L 17.484375 21.921875 
Q 17.484375 14.15625 20.5 10.265625 
Q 23.53125 6.390625 29.59375 6.390625 
Q 36.859375 6.390625 41.078125 11.03125 
Q 45.3125 15.671875 45.3125 23.6875 
L 45.3125 54.6875 
L 54.296875 54.6875 
L 54.296875 0 
L 45.3125 0 
L 45.3125 8.40625 
Q 42.046875 3.421875 37.71875 1 
Q 33.40625 -1.421875 27.6875 -1.421875 
Q 18.265625 -1.421875 13.375 4.4375 
Q 8.5 10.296875 8.5 21.578125 
z
M 31.109375 56 
z
" id="DejaVuSans-75"/>
      <path d="M 11.71875 12.40625 
L 22.015625 12.40625 
L 22.015625 4 
L 14.015625 -11.625 
L 7.71875 -11.625 
L 11.71875 4 
z
" id="DejaVuSans-2c"/>
      <path d="M 18.109375 8.203125 
L 18.109375 -20.796875 
L 9.078125 -20.796875 
L 9.078125 54.6875 
L 18.109375 54.6875 
L 18.109375 46.390625 
Q 20.953125 51.265625 25.265625 53.625 
Q 29.59375 56 35.59375 56 
Q 45.5625 56 51.78125 48.09375 
Q 58.015625 40.1875 58.015625 27.296875 
Q 58.015625 14.40625 51.78125 6.484375 
Q 45.5625 -1.421875 35.59375 -1.421875 
Q 29.59375 -1.421875 25.265625 0.953125 
Q 20.953125 3.328125 18.109375 8.203125 
z
M 48.6875 27.296875 
Q 48.6875 37.203125 44.609375 42.84375 
Q 40.53125 48.484375 33.40625 48.484375 
Q 26.265625 48.484375 22.1875 42.84375 
Q 18.109375 37.203125 18.109375 27.296875 
Q 18.109375 17.390625 22.1875 11.75 
Q 26.265625 6.109375 33.40625 6.109375 
Q 40.53125 6.109375 44.609375 11.75 
Q 48.6875 17.390625 48.6875 27.296875 
z
" id="DejaVuSans-70"/>
     </defs>
     <g transform="translate(16.139531 294.999375)rotate(-90)scale(0.17 -0.17)">
      <use xlink:href="#DejaVuSans-46"/>
      <use x="57.410156" xlink:href="#DejaVuSans-72"/>
      <use x="98.523438" xlink:href="#DejaVuSans-61"/>
      <use x="159.802734" xlink:href="#DejaVuSans-63"/>
      <use x="214.783203" xlink:href="#DejaVuSans-74"/>
      <use x="253.992188" xlink:href="#DejaVuSans-69"/>
      <use x="281.775391" xlink:href="#DejaVuSans-6f"/>
      <use x="342.957031" xlink:href="#DejaVuSans-6e"/>
      <use x="406.335938" xlink:href="#DejaVuSans-20"/>
      <use x="438.123047" xlink:href="#DejaVuSans-6f"/>
      <use x="499.304688" xlink:href="#DejaVuSans-66"/>
      <use x="534.509766" xlink:href="#DejaVuSans-20"/>
      <use x="566.296875" xlink:href="#DejaVuSans-66"/>
      <use x="601.501953" xlink:href="#DejaVuSans-75"/>
      <use x="664.880859" xlink:href="#DejaVuSans-6e"/>
      <use x="728.259766" xlink:href="#DejaVuSans-63"/>
      <use x="783.240234" xlink:href="#DejaVuSans-74"/>
      <use x="822.449219" xlink:href="#DejaVuSans-69"/>
      <use x="850.232422" xlink:href="#DejaVuSans-6f"/>
      <use x="911.414062" xlink:href="#DejaVuSans-6e"/>
      <use x="974.792969" xlink:href="#DejaVuSans-2c"/>
      <use x="1006.580078" xlink:href="#DejaVuSans-74"/>
      <use x="1045.789062" xlink:href="#DejaVuSans-61"/>
      <use x="1107.068359" xlink:href="#DejaVuSans-72"/>
      <use x="1148.166016" xlink:href="#DejaVuSans-67"/>
      <use x="1211.642578" xlink:href="#DejaVuSans-65"/>
      <use x="1273.166016" xlink:href="#DejaVuSans-74"/>
      <use x="1312.375" xlink:href="#DejaVuSans-20"/>
      <use x="1344.162109" xlink:href="#DejaVuSans-70"/>
      <use x="1407.638672" xlink:href="#DejaVuSans-61"/>
      <use x="1468.917969" xlink:href="#DejaVuSans-69"/>
      <use x="1496.701172" xlink:href="#DejaVuSans-72"/>
      <use x="1537.814453" xlink:href="#DejaVuSans-73"/>
     </g>
    </g>
   </g>
   <g id="line2d_37">
    <defs>
     <path d="M 0 1.5 
C 0.397805 1.5 0.77937 1.341951 1.06066 1.06066 
C 1.341951 0.77937 1.5 0.397805 1.5 0 
C 1.5 -0.397805 1.341951 -0.77937 1.06066 -1.06066 
C 0.77937 -1.341951 0.397805 -1.5 0 -1.5 
C -0.397805 -1.5 -0.77937 -1.341951 -1.06066 -1.06066 
C -1.341951 -0.77937 -1.5 -0.397805 -1.5 0 
C -1.5 0.397805 -1.341951 0.77937 -1.06066 1.06066 
C -0.77937 1.341951 -0.397805 1.5 0 1.5 
z
" id="meb43d30fdf" style="stroke:#00bfbf;"/>
    </defs>
    <g>
     <use style="fill:#00bfbf;stroke:#00bfbf;" x="200.247227" xlink:href="#meb43d30fdf" y="27.513663"/>
     <use style="fill:#00bfbf;stroke:#00bfbf;" x="200.247227" xlink:href="#meb43d30fdf" y="27.513663"/>
    </g>
   </g>
   <g id="line2d_38">
    <path d="M 44.205749 294.88 
L 44.205749 292.258761 
L 56.12 292.258761 
L 56.12 291.734514 
L 63.08939 291.734514 
L 63.08939 285.967789 
L 68.034251 285.967789 
L 68.034251 283.34655 
L 75.003641 283.34655 
L 75.003641 281.773807 
L 77.653281 281.773807 
L 77.653281 277.055578 
L 79.948502 277.055578 
L 79.948502 273.385844 
L 81.973032 273.385844 
L 81.973032 272.861596 
L 83.784035 272.861596 
L 83.784035 272.337348 
L 86.917893 272.337348 
L 86.917893 269.716109 
L 93.887283 269.716109 
L 93.887283 268.143366 
L 97.336537 268.143366 
L 97.336537 266.570623 
L 102.084955 266.570623 
L 102.084955 265.522128 
L 103.777005 265.522128 
L 103.777005 264.473632 
L 106.272485 264.473632 
L 106.272485 263.425137 
L 107.177358 263.425137 
L 107.177358 262.376641 
L 108.451173 262.376641 
L 108.451173 261.328146 
L 110.014853 261.328146 
L 110.014853 259.755403 
L 115.691256 259.755403 
L 115.691256 258.18266 
L 127.334814 258.18266 
L 127.334814 255.561421 
L 127.470694 255.561421 
L 127.470694 255.037173 
L 128.39291 255.037173 
L 128.39291 253.988678 
L 129.268157 253.988678 
L 129.268157 253.46443 
L 130.100987 253.46443 
L 130.100987 252.415935 
L 130.33171 252.415935 
L 130.33171 251.891687 
L 132.381685 251.891687 
L 132.381685 251.367439 
L 132.684132 251.367439 
L 132.684132 250.843192 
L 137.070377 250.843192 
L 137.070377 250.318944 
L 137.827708 250.318944 
L 137.827708 249.794696 
L 140.113666 249.794696 
L 140.113666 249.270448 
L 141.72241 249.270448 
L 141.72241 248.221953 
L 142.473629 248.221953 
L 142.473629 247.697705 
L 143.029944 247.697705 
L 143.084598 246.64921 
L 144.346715 246.64921 
L 144.346715 245.600714 
L 144.598384 245.600714 
L 144.598384 244.552219 
L 145.4275 244.552219 
L 145.4275 244.027971 
L 147.147797 244.027971 
L 147.147797 243.503724 
L 147.276552 243.503724 
L 147.276552 238.785494 
L 150.431775 238.785494 
L 150.431775 237.736999 
L 152.381011 237.736999 
L 152.381011 236.164255 
L 153.987461 236.164255 
L 154.045238 235.11576 
L 155.376636 235.11576 
L 155.376636 234.591512 
L 156.387261 234.591512 
L 156.387261 234.067265 
L 156.980885 234.067265 
L 156.980885 233.543017 
L 157.102017 233.543017 
L 157.102017 233.018769 
L 158.954011 233.018769 
L 158.954011 232.494521 
L 159.297366 232.494521 
L 159.297366 231.970274 
L 160.066049 231.970274 
L 160.106637 229.349035 
L 160.606051 229.349035 
L 160.606051 228.824787 
L 160.995391 228.824787 
L 161.033844 226.203549 
L 161.148691 226.203549 
L 161.224831 225.155053 
L 161.931822 225.155053 
L 161.931822 223.058063 
L 162.802544 223.058063 
L 162.802544 221.485319 
L 163.111639 221.485319 
L 163.111639 219.912576 
L 165.387704 219.912576 
L 165.387704 218.339833 
L 166.512865 218.339833 
L 166.512865 217.815585 
L 166.748614 217.815585 
L 166.748614 217.291338 
L 167.224031 217.291338 
L 167.224031 215.194347 
L 168.846443 215.194347 
L 168.846443 214.670099 
L 169.220254 214.670099 
L 169.220254 213.621604 
L 169.350967 213.621604 
L 169.457179 212.573108 
L 169.504175 212.573108 
L 169.504175 211.524613 
L 169.702485 211.524613 
L 169.714079 209.95187 
L 170.462515 209.95187 
L 170.462515 207.854879 
L 170.65013 207.854879 
L 170.65013 207.330631 
L 170.922366 207.330631 
L 170.997826 205.757888 
L 171.179718 205.757888 
L 171.179718 204.709392 
L 171.765632 204.709392 
L 171.857961 203.136649 
L 172.101776 203.136649 
L 172.101776 202.612401 
L 172.579268 202.612401 
L 172.579268 202.088154 
L 172.706339 202.088154 
L 172.706339 201.563906 
L 173.3655 201.563906 
L 173.3655 199.991163 
L 173.524094 199.991163 
L 173.524094 198.41842 
L 173.745528 198.41842 
L 173.763853 194.224438 
L 174.045417 194.224438 
L 174.090402 192.127447 
L 175.059893 192.127447 
L 175.059893 191.603199 
L 175.304425 191.603199 
L 175.304425 190.554704 
L 175.529008 190.554704 
L 175.529008 190.030456 
L 175.652519 190.030456 
L 175.652519 189.506209 
L 175.823958 189.506209 
L 175.823958 188.981961 
L 175.985658 188.981961 
L 175.985658 188.457713 
L 176.469654 188.457713 
L 176.469654 187.933465 
L 176.648663 187.933465 
L 176.648663 186.88497 
L 176.902289 186.88497 
L 176.948004 185.836474 
L 177.634149 185.836474 
L 177.634149 184.263731 
L 177.794247 184.263731 
L 177.794247 183.739484 
L 178.202241 183.739484 
L 178.300986 182.16674 
L 178.45502 182.16674 
L 178.45502 181.642493 
L 178.586947 181.642493 
L 178.586947 181.118245 
L 178.827351 181.118245 
L 178.827351 180.593997 
L 179.104757 180.593997 
L 179.138283 179.545502 
L 179.344695 179.545502 
L 179.423936 177.448511 
L 179.555198 177.448511 
L 179.620455 175.35152 
L 179.685465 175.35152 
L 179.685465 174.827272 
L 180.152732 174.827272 
L 180.209471 173.778777 
L 180.303621 173.778777 
L 180.409705 171.157538 
L 180.502767 171.157538 
L 180.502767 170.633291 
L 180.699633 170.633291 
L 180.77897 167.487804 
L 180.936554 167.487804 
L 181.032815 166.439309 
L 181.353774 166.439309 
L 181.353774 165.390813 
L 181.98393 165.390813 
L 182.063219 164.342318 
L 182.448743 164.342318 
L 182.547909 160.148336 
L 182.624644 160.148336 
L 182.646506 158.051345 
L 183.051344 158.051345 
L 183.051344 156.478602 
L 183.431218 156.478602 
L 183.441651 154.905859 
L 183.72611 154.905859 
L 183.833491 153.333116 
L 184.026111 153.333116 
L 184.026111 151.236125 
L 184.678922 151.236125 
L 184.678922 150.711877 
L 184.876744 150.711877 
L 184.938996 148.614886 
L 185.072316 148.614886 
L 185.129138 147.566391 
L 185.251611 147.566391 
L 185.251611 146.517896 
L 185.433701 146.517896 
L 185.433701 145.4694 
L 185.69641 145.4694 
L 185.796741 142.848162 
L 186.227827 142.848162 
L 186.236694 141.275418 
L 186.417466 141.275418 
L 186.417466 139.178427 
L 186.548544 139.178427 
L 186.605036 134.984446 
L 186.859113 134.984446 
L 186.859113 134.460198 
L 187.037719 134.460198 
L 187.037719 133.93595 
L 187.277184 133.93595 
L 187.310527 132.363207 
L 187.40189 132.363207 
L 187.40189 131.838959 
L 187.799025 131.838959 
L 187.89991 130.790464 
L 187.936083 130.790464 
L 187.936083 130.266216 
L 188.072057 130.266216 
L 188.095942 127.12073 
L 188.419075 127.12073 
L 188.442482 124.499491 
L 188.774528 124.499491 
L 188.793637 121.878253 
L 188.904053 121.878253 
L 188.911642 120.30551 
L 189.57762 120.30551 
L 189.57762 119.257014 
L 189.906547 119.257014 
L 189.906547 118.208519 
L 190.034954 118.208519 
L 190.141232 109.296308 
L 190.302926 109.296308 
L 190.302926 108.77206 
L 190.51157 108.77206 
L 190.51157 108.247812 
L 190.676682 108.247812 
L 190.676682 107.723564 
L 190.802881 107.723564 
L 190.802881 107.199317 
L 190.95176 107.199317 
L 191.012295 104.578078 
L 191.065926 104.578078 
L 191.065926 104.05383 
L 191.209235 104.05383 
L 191.298612 99.335601 
L 191.449823 99.335601 
L 191.485786 96.714362 
L 191.71934 96.714362 
L 191.774025 94.093124 
L 191.902012 94.093124 
L 191.930678 93.044628 
L 192.019558 93.044628 
L 192.082763 91.471885 
L 192.386054 91.471885 
L 192.454103 87.277903 
L 192.841753 87.277903 
L 192.944066 82.035426 
L 193.152813 82.035426 
L 193.200173 80.462683 
L 193.467078 80.462683 
L 193.472898 79.414188 
L 193.629291 79.414188 
L 193.701216 76.792949 
L 193.97747 76.792949 
L 194.00852 75.220206 
L 194.132159 75.220206 
L 194.182484 72.598967 
L 194.382322 72.598967 
L 194.478632 71.550472 
L 194.552562 71.550472 
L 194.552562 71.026224 
L 194.9389 71.026224 
L 195.045431 68.929233 
L 195.172402 68.929233 
L 195.172402 68.404985 
L 195.340251 68.404985 
L 195.384561 66.832242 
L 195.686463 66.832242 
L 195.788473 65.259499 
L 195.824034 65.259499 
L 195.905041 63.162508 
L 195.940362 63.162508 
L 196.013297 61.065517 
L 196.095916 61.065517 
L 196.158244 58.968526 
L 196.235217 58.968526 
L 196.2476 57.920031 
L 196.461646 57.920031 
L 196.461646 54.774545 
L 196.58832 54.774545 
L 196.629531 52.153306 
L 196.783798 52.153306 
L 196.886674 50.056315 
L 196.912893 50.056315 
L 196.912893 49.532068 
L 197.104735 49.532068 
L 197.125919 47.959324 
L 197.433658 47.959324 
L 197.433658 46.910829 
L 197.551097 46.910829 
L 197.647213 43.765343 
L 197.740524 43.765343 
L 197.837847 35.901627 
L 197.855892 35.901627 
L 197.855892 35.377379 
L 198.186367 35.377379 
L 198.281204 32.231893 
L 198.76695 32.231893 
L 198.76695 31.183397 
L 199.58939 31.183397 
L 199.58939 30.65915 
L 199.739563 30.65915 
L 199.792017 28.562159 
L 200.247227 28.562159 
L 200.247227 27.513663 
L 333.168 27.513663 
L 333.168 27.513663 
" style="fill:none;stroke:#00bfbf;stroke-linecap:square;stroke-width:1.5;"/>
   </g>
   <g id="line2d_39">
    <defs>
     <path d="M -6 0 
L 6 0 
M 0 6 
L 0 -6 
" id="mf0c9e1cfee" style="stroke:#00bfbf;stroke-width:1.5;"/>
    </defs>
    <g>
     <use style="fill-opacity:0;stroke:#00bfbf;stroke-width:1.5;" x="83.784035" xlink:href="#mf0c9e1cfee" y="272.337348"/>
     <use style="fill-opacity:0;stroke:#00bfbf;stroke-width:1.5;" x="160.066049" xlink:href="#mf0c9e1cfee" y="231.970274"/>
     <use style="fill-opacity:0;stroke:#00bfbf;stroke-width:1.5;" x="190.676682" xlink:href="#mf0c9e1cfee" y="108.247812"/>
     <use style="fill-opacity:0;stroke:#00bfbf;stroke-width:1.5;" x="198.281204" xlink:href="#mf0c9e1cfee" y="32.231893"/>
     <use style="fill-opacity:0;stroke:#00bfbf;stroke-width:1.5;" x="200.247227" xlink:href="#mf0c9e1cfee" y="27.513663"/>
     <use style="fill-opacity:0;stroke:#00bfbf;stroke-width:1.5;" x="333.168" xlink:href="#mf0c9e1cfee" y="27.513663"/>
    </g>
   </g>
   <g id="line2d_40">
    <path style="fill:none;stroke:#00bfbf;stroke-linecap:square;stroke-width:1.5;"/>
    <g/>
   </g>
   <g id="line2d_41">
    <defs>
     <path d="M 0 1.5 
C 0.397805 1.5 0.77937 1.341951 1.06066 1.06066 
C 1.341951 0.77937 1.5 0.397805 1.5 0 
C 1.5 -0.397805 1.341951 -0.77937 1.06066 -1.06066 
C 0.77937 -1.341951 0.397805 -1.5 0 -1.5 
C -0.397805 -1.5 -0.77937 -1.341951 -1.06066 -1.06066 
C -1.341951 -0.77937 -1.5 -0.397805 -1.5 0 
C -1.5 0.397805 -1.341951 0.77937 -1.06066 1.06066 
C -0.77937 1.341951 -0.397805 1.5 0 1.5 
z
" id="m7a0bb7e654" style="stroke:#008000;"/>
    </defs>
    <g>
     <use style="fill:#008000;stroke:#008000;" x="256.296764" xlink:href="#m7a0bb7e654" y="27.513663"/>
     <use style="fill:#008000;stroke:#008000;" x="256.296764" xlink:href="#m7a0bb7e654" y="27.513663"/>
    </g>
   </g>
   <g id="line2d_42">
    <path d="M 37.236359 294.88 
L 37.236359 283.870798 
L 49.15061 283.870798 
L 49.15061 281.773807 
L 56.12 281.773807 
L 56.12 278.104073 
L 61.064861 278.104073 
L 61.064861 277.579825 
L 70.68389 277.579825 
L 70.68389 276.007082 
L 78.452896 276.007082 
L 78.452896 275.482834 
L 79.948502 275.482834 
L 79.948502 274.434339 
L 93.238578 274.434339 
L 93.238578 272.861596 
L 96.807615 272.861596 
L 96.807615 272.337348 
L 104.478679 272.337348 
L 104.478679 270.764605 
L 104.819059 270.764605 
L 104.819059 270.240357 
L 105.801534 270.240357 
L 105.801534 268.667614 
L 111.675736 268.667614 
L 111.675736 267.094871 
L 111.900428 267.094871 
L 111.900428 266.570623 
L 112.341186 266.570623 
L 112.341186 265.522128 
L 113.999206 265.522128 
L 113.999206 264.99788 
L 115.145539 264.99788 
L 115.145539 263.949385 
L 125.714742 263.949385 
L 125.714742 262.900889 
L 126.591406 262.900889 
L 126.591406 261.852394 
L 130.178239 261.852394 
L 130.178239 260.279651 
L 130.932248 260.279651 
L 131.005861 258.706907 
L 133.967462 258.706907 
L 133.967462 257.658412 
L 137.528768 257.658412 
L 137.528768 257.134164 
L 138.121538 257.134164 
L 138.121538 255.561421 
L 141.182408 255.561421 
L 141.182408 255.037173 
L 142.69832 255.037173 
L 142.69832 254.512926 
L 144.193927 254.512926 
L 144.193927 253.46443 
L 145.31604 253.46443 
L 145.31604 252.940182 
L 147.046984 252.940182 
L 147.046984 252.415935 
L 147.361855 252.415935 
L 147.446737 251.367439 
L 147.503094 251.367439 
L 147.503094 250.318944 
L 148.138248 250.318944 
L 148.138248 249.794696 
L 148.326988 249.794696 
L 148.326988 248.746201 
L 149.010418 248.746201 
L 149.010418 247.697705 
L 149.962801 247.697705 
L 149.962801 247.173458 
L 152.242778 247.173458 
L 152.242778 246.64921 
L 153.675994 246.64921 
L 153.773935 244.552219 
L 153.987461 244.552219 
L 154.083649 242.455228 
L 154.217413 242.455228 
L 154.217413 241.406733 
L 154.331245 241.406733 
L 154.331245 240.882485 
L 154.925938 240.882485 
L 154.925938 240.358237 
L 155.500742 240.358237 
L 155.500742 239.83399 
L 156.429154 239.83399 
L 156.429154 238.785494 
L 156.940317 238.785494 
L 156.940317 238.261246 
L 158.522353 238.261246 
L 158.522353 237.736999 
L 159.076402 237.736999 
L 159.133698 236.164255 
L 159.737856 236.164255 
L 159.806748 234.591512 
L 160.58635 234.591512 
L 160.58635 234.067265 
L 160.963281 234.067265 
L 160.963281 233.543017 
L 161.332122 233.543017 
L 161.332122 232.494521 
L 161.482461 232.494521 
L 161.482461 231.970274 
L 161.594359 231.970274 
L 161.594359 230.921778 
L 162.179145 230.921778 
L 162.179145 230.397531 
L 162.744689 230.397531 
L 162.744689 229.349035 
L 164.30585 229.349035 
L 164.30585 228.824787 
L 165.202851 228.824787 
L 165.202851 228.30054 
L 165.57059 228.30054 
L 165.57059 227.252044 
L 165.766139 227.252044 
L 165.766139 226.727797 
L 166.226577 226.727797 
L 166.226577 226.203549 
L 167.165879 226.203549 
L 167.165879 225.679301 
L 167.590748 225.679301 
L 167.590748 224.630806 
L 167.91981 224.630806 
L 167.91981 222.533815 
L 168.124439 222.533815 
L 168.200551 220.961072 
L 168.740465 220.961072 
L 168.740465 220.436824 
L 169.072506 220.436824 
L 169.072506 219.912576 
L 169.184432 219.912576 
L 169.184432 219.388328 
L 169.398253 219.388328 
L 169.398253 218.864081 
L 169.554942 218.864081 
L 169.554942 218.339833 
L 169.687014 218.339833 
L 169.687014 216.76709 
L 170.242885 216.76709 
L 170.27283 214.670099 
L 171.154866 214.670099 
L 171.154866 213.621604 
L 172.39515 213.621604 
L 172.39515 213.097356 
L 172.8518 213.097356 
L 172.8518 212.04886 
L 172.992849 212.04886 
L 172.992849 211.524613 
L 173.742472 211.524613 
L 173.742472 211.000365 
L 175.01454 211.000365 
L 175.01454 210.476117 
L 175.138973 210.476117 
L 175.200853 207.854879 
L 175.737092 207.854879 
L 175.769718 205.757888 
L 176.183016 205.757888 
L 176.183016 205.23364 
L 176.451389 205.23364 
L 176.451389 203.660897 
L 176.648663 203.660897 
L 176.648663 202.612401 
L 176.915 202.612401 
L 176.915 202.088154 
L 177.122125 202.088154 
L 177.122125 201.563906 
L 177.60732 201.563906 
L 177.60732 200.515411 
L 178.093437 200.515411 
L 178.093437 199.991163 
L 178.881832 199.991163 
L 178.881832 198.942667 
L 179.057711 198.942667 
L 179.057711 198.41842 
L 179.408557 198.41842 
L 179.408557 197.894172 
L 179.544297 197.894172 
L 179.544297 197.369924 
L 180.946606 197.369924 
L 180.946606 196.845677 
L 181.441876 196.845677 
L 181.441876 196.321429 
L 181.743846 196.321429 
L 181.743846 195.272933 
L 182.391556 195.272933 
L 182.391556 194.748686 
L 182.524088 194.748686 
L 182.524088 194.224438 
L 182.901317 194.224438 
L 182.901317 193.70019 
L 183.669593 193.70019 
L 183.669593 193.175943 
L 185.113373 193.175943 
L 185.113373 192.651695 
L 186.034577 192.651695 
L 186.115114 190.030456 
L 186.380877 190.030456 
L 186.380877 188.981961 
L 187.027845 188.981961 
L 187.09825 186.88497 
L 188.877466 186.88497 
L 188.877466 186.360722 
L 190.510418 186.360722 
L 190.510418 185.312227 
L 190.805146 185.312227 
L 190.805146 184.787979 
L 191.243496 184.787979 
L 191.243496 183.739484 
L 192.043814 183.739484 
L 192.043814 183.215236 
L 192.64037 183.215236 
L 192.64037 182.690988 
L 192.76411 182.690988 
L 192.76411 182.16674 
L 193.042792 182.16674 
L 193.042792 181.642493 
L 194.24101 181.642493 
L 194.351941 180.06975 
L 195.174159 180.06975 
L 195.174159 178.497006 
L 197.040237 178.497006 
L 197.147077 177.448511 
L 197.183065 177.448511 
L 197.183065 176.924263 
L 197.302998 176.924263 
L 197.302998 176.400016 
L 197.434428 176.400016 
L 197.434428 175.35152 
L 198.076913 175.35152 
L 198.076913 174.827272 
L 198.28487 174.827272 
L 198.28487 174.303025 
L 198.734848 174.303025 
L 198.734848 173.778777 
L 198.879901 173.778777 
L 198.971702 171.681786 
L 199.086817 171.681786 
L 199.086817 171.157538 
L 199.412514 171.157538 
L 199.412514 170.633291 
L 199.667346 170.633291 
L 199.753701 169.060547 
L 199.783286 169.060547 
L 199.890439 166.963557 
L 200.257686 166.963557 
L 200.272057 165.915061 
L 200.398268 165.915061 
L 200.406044 164.866566 
L 200.57111 164.866566 
L 200.57111 164.342318 
L 200.9895 164.342318 
L 200.9895 163.81807 
L 201.384487 163.81807 
L 201.463869 162.245327 
L 201.616712 162.245327 
L 201.616712 161.721079 
L 201.789741 161.721079 
L 201.855372 159.099841 
L 202.030744 159.099841 
L 202.030744 158.575593 
L 202.232331 158.575593 
L 202.232331 158.051345 
L 202.464949 158.051345 
L 202.464949 157.00285 
L 203.086939 157.00285 
L 203.086939 155.430107 
L 203.307253 155.430107 
L 203.307253 154.905859 
L 203.466317 154.905859 
L 203.495572 153.857364 
L 203.592732 153.857364 
L 203.592732 152.808868 
L 203.833256 152.808868 
L 203.859775 151.236125 
L 204.622687 151.236125 
L 204.622687 150.711877 
L 204.82428 150.711877 
L 204.82428 149.663382 
L 205.227363 149.663382 
L 205.227363 148.614886 
L 205.40169 148.614886 
L 205.40169 148.090639 
L 205.542581 148.090639 
L 205.542581 147.042143 
L 205.895488 147.042143 
L 205.895488 145.993648 
L 206.164533 145.993648 
L 206.164533 144.945152 
L 206.40934 144.945152 
L 206.40934 144.420905 
L 206.911825 144.420905 
L 206.911825 143.896657 
L 207.364633 143.896657 
L 207.364633 143.372409 
L 208.59053 143.372409 
L 208.59053 142.848162 
L 208.730813 142.848162 
L 208.730813 142.323914 
L 208.983621 142.323914 
L 208.983621 141.799666 
L 209.325559 141.799666 
L 209.325559 140.751171 
L 209.652506 140.751171 
L 209.752098 139.178427 
L 209.786669 139.178427 
L 209.786669 138.65418 
L 210.053373 138.65418 
L 210.133025 137.081437 
L 210.231342 137.081437 
L 210.231342 136.557189 
L 210.593313 136.557189 
L 210.593313 135.508693 
L 210.936586 135.508693 
L 211.024139 133.93595 
L 211.078547 133.93595 
L 211.079939 132.887455 
L 211.336372 132.887455 
L 211.336372 132.363207 
L 211.645057 132.363207 
L 211.645057 131.838959 
L 211.958885 131.838959 
L 211.958885 131.314712 
L 212.18239 131.314712 
L 212.18239 130.790464 
L 212.783084 130.790464 
L 212.783084 130.266216 
L 213.037875 130.266216 
L 213.037875 129.741969 
L 213.238653 129.741969 
L 213.24725 128.693473 
L 213.46502 128.693473 
L 213.466232 127.644978 
L 213.624303 127.644978 
L 213.675275 126.072235 
L 214.42512 126.072235 
L 214.42512 125.547987 
L 215.391409 125.547987 
L 215.391409 125.023739 
L 215.706589 125.023739 
L 215.706589 124.499491 
L 215.860192 124.499491 
L 215.860192 123.975244 
L 216.100538 123.975244 
L 216.13119 122.4025 
L 216.254284 122.4025 
L 216.259952 121.354005 
L 216.445445 121.354005 
L 216.546568 120.30551 
L 216.64307 120.30551 
L 216.707439 118.208519 
L 216.793558 118.208519 
L 216.902092 115.063032 
L 216.975387 115.063032 
L 217.060176 112.441794 
L 217.448181 112.441794 
L 217.492355 111.393298 
L 217.647503 111.393298 
L 217.754099 110.344803 
L 218.53565 110.344803 
L 218.53565 109.296308 
L 218.703166 109.296308 
L 218.703166 108.77206 
L 218.819863 108.77206 
L 218.857553 107.723564 
L 219.105128 107.723564 
L 219.105128 107.199317 
L 219.218269 107.199317 
L 219.245139 106.150821 
L 220.110315 106.150821 
L 220.110315 105.626573 
L 220.550198 105.626573 
L 220.659429 103.529583 
L 220.844293 103.529583 
L 220.897085 101.956839 
L 221.107814 101.956839 
L 221.152442 100.908344 
L 221.224379 100.908344 
L 221.327887 98.811353 
L 221.357784 98.811353 
L 221.423529 96.714362 
L 221.476856 96.714362 
L 221.559945 95.141619 
L 221.759756 95.141619 
L 221.782936 94.093124 
L 221.973537 94.093124 
L 221.973537 93.568876 
L 222.315945 93.568876 
L 222.315945 93.044628 
L 222.508997 93.044628 
L 222.579052 90.42339 
L 222.833976 90.42339 
L 222.882758 89.374894 
L 223.030711 89.374894 
L 223.120812 87.277903 
L 224.471653 87.277903 
L 224.471653 86.753656 
L 224.632885 86.753656 
L 224.679352 85.180912 
L 224.88769 85.180912 
L 224.88769 84.656665 
L 225.351062 84.656665 
L 225.423463 80.986931 
L 225.632883 80.986931 
L 225.632883 80.462683 
L 225.754001 80.462683 
L 225.806999 78.88994 
L 225.959749 78.88994 
L 225.959749 77.841444 
L 226.429987 77.841444 
L 226.429987 77.317197 
L 227.604339 77.317197 
L 227.706551 76.268701 
L 228.084844 76.268701 
L 228.172658 74.695958 
L 228.41211 74.695958 
L 228.5152 73.647463 
L 228.547745 73.647463 
L 228.600596 71.026224 
L 228.69057 71.026224 
L 228.761913 69.977729 
L 228.91655 69.977729 
L 228.995805 67.880738 
L 229.092533 67.880738 
L 229.092533 67.35649 
L 229.89823 67.35649 
L 229.951971 66.307995 
L 230.028453 66.307995 
L 230.028453 65.783747 
L 230.225501 65.783747 
L 230.225501 65.259499 
L 230.803886 65.259499 
L 230.803886 64.735251 
L 230.921962 64.735251 
L 230.921962 64.211004 
L 231.121891 64.211004 
L 231.121891 63.686756 
L 231.243628 63.686756 
L 231.243628 63.162508 
L 232.023743 63.162508 
L 232.023743 62.638261 
L 232.392248 62.638261 
L 232.426878 61.589765 
L 232.558118 61.589765 
L 232.558118 61.065517 
L 232.669534 61.065517 
L 232.719041 58.968526 
L 233.11797 58.968526 
L 233.211612 57.395783 
L 233.292895 57.395783 
L 233.331102 56.347288 
L 234.056735 56.347288 
L 234.149599 55.298792 
L 234.218964 55.298792 
L 234.218964 54.774545 
L 234.608665 54.774545 
L 234.608665 54.250297 
L 234.844955 54.250297 
L 234.901651 52.677554 
L 235.026593 52.677554 
L 235.026593 52.153306 
L 235.940375 52.153306 
L 235.940375 51.104811 
L 236.251989 51.104811 
L 236.349281 49.532068 
L 236.680351 49.532068 
L 236.680351 49.00782 
L 236.809268 49.00782 
L 236.828274 47.435077 
L 237.49015 47.435077 
L 237.49015 46.910829 
L 237.618063 46.910829 
L 237.618063 46.386581 
L 237.754919 46.386581 
L 237.859783 45.338086 
L 237.967363 45.338086 
L 237.967363 44.813838 
L 238.102633 44.813838 
L 238.102633 44.28959 
L 238.226372 44.28959 
L 238.287123 43.241095 
L 238.984345 43.241095 
L 238.984345 42.716847 
L 239.246714 42.716847 
L 239.246714 42.192599 
L 239.460845 42.192599 
L 239.460845 41.668352 
L 239.591793 41.668352 
L 239.591793 41.144104 
L 240.376844 41.144104 
L 240.376844 40.619856 
L 240.561396 40.619856 
L 240.589566 39.571361 
L 241.982434 39.571361 
L 242.087778 38.522865 
L 243.051867 38.522865 
L 243.095929 37.47437 
L 243.208547 37.47437 
L 243.208547 36.950122 
L 243.841048 36.950122 
L 243.841048 36.425875 
L 244.042175 36.425875 
L 244.042175 35.901627 
L 244.154779 35.901627 
L 244.252099 34.853131 
L 246.207987 34.853131 
L 246.207987 34.328884 
L 247.016494 34.328884 
L 247.073122 32.756141 
L 248.722429 32.756141 
L 248.722429 32.231893 
L 249.492192 32.231893 
L 249.59362 31.183397 
L 250.18456 31.183397 
L 250.18456 30.65915 
L 251.550663 30.65915 
L 251.550663 30.134902 
L 252.120152 30.134902 
L 252.120152 29.086407 
L 253.552434 29.086407 
L 253.552434 28.562159 
L 255.044313 28.562159 
L 255.044313 28.037911 
L 256.296764 28.037911 
L 256.296764 27.513663 
L 333.168 27.513663 
L 333.168 27.513663 
" style="fill:none;stroke:#008000;stroke-linecap:square;stroke-width:1.5;"/>
   </g>
   <g id="line2d_43">
    <defs>
     <path d="M -0 6 
L 6 -6 
L -6 -6 
z
" id="me60b04f373" style="stroke:#008000;stroke-linejoin:miter;stroke-width:1.5;"/>
    </defs>
    <g>
     <use style="fill-opacity:0;stroke:#008000;stroke-linejoin:miter;stroke-width:1.5;" x="79.948502" xlink:href="#me60b04f373" y="274.434339"/>
     <use style="fill-opacity:0;stroke:#008000;stroke-linejoin:miter;stroke-width:1.5;" x="162.744689" xlink:href="#me60b04f373" y="229.349035"/>
     <use style="fill-opacity:0;stroke:#008000;stroke-linejoin:miter;stroke-width:1.5;" x="216.793558" xlink:href="#me60b04f373" y="117.160023"/>
     <use style="fill-opacity:0;stroke:#008000;stroke-linejoin:miter;stroke-width:1.5;" x="244.252099" xlink:href="#me60b04f373" y="35.377379"/>
     <use style="fill-opacity:0;stroke:#008000;stroke-linejoin:miter;stroke-width:1.5;" x="256.296764" xlink:href="#me60b04f373" y="27.513663"/>
     <use style="fill-opacity:0;stroke:#008000;stroke-linejoin:miter;stroke-width:1.5;" x="333.168" xlink:href="#me60b04f373" y="27.513663"/>
    </g>
   </g>
   <g id="line2d_44">
    <path style="fill:none;stroke:#008000;stroke-linecap:square;stroke-width:1.5;"/>
    <g/>
   </g>
   <g id="line2d_45">
    <path clip-path="url(#p39f7b8e9cc)" d="M 195.722236 178.497006 
" style="fill:none;stroke:#008000;stroke-linecap:square;stroke-width:1.5;"/>
    <defs>
     <path d="M -12 12 
L 12 -12 
M -12 -12 
L 12 12 
" id="m3cf8a26471" style="stroke:#008000;"/>
    </defs>
    <g clip-path="url(#p39f7b8e9cc)">
     <use style="fill:#008000;stroke:#008000;" x="195.722236" xlink:href="#m3cf8a26471" y="178.497006"/>
    </g>
   </g>
   <g id="line2d_46">
    <defs>
     <path d="M 0 1.5 
C 0.397805 1.5 0.77937 1.341951 1.06066 1.06066 
C 1.341951 0.77937 1.5 0.397805 1.5 0 
C 1.5 -0.397805 1.341951 -0.77937 1.06066 -1.06066 
C 0.77937 -1.341951 0.397805 -1.5 0 -1.5 
C -0.397805 -1.5 -0.77937 -1.341951 -1.06066 -1.06066 
C -1.341951 -0.77937 -1.5 -0.397805 -1.5 0 
C -1.5 0.397805 -1.341951 0.77937 -1.06066 1.06066 
C -0.77937 1.341951 -0.397805 1.5 0 1.5 
z
" id="m59fe127031" style="stroke:#0000ff;"/>
    </defs>
    <g>
     <use style="fill:#0000ff;stroke:#0000ff;" x="261.09915" xlink:href="#m59fe127031" y="190.030456"/>
     <use style="fill:#0000ff;stroke:#0000ff;" x="261.09915" xlink:href="#m59fe127031" y="190.030456"/>
    </g>
   </g>
   <g id="line2d_47">
    <path d="M 28.455965 294.88 
L 28.455965 290.161771 
L 40.370217 290.161771 
L 40.370217 288.06478 
L 47.339607 288.06478 
L 47.339607 287.016284 
L 52.284468 287.016284 
L 52.284468 285.967789 
L 59.253858 285.967789 
L 59.253858 284.395046 
L 61.903497 284.395046 
L 61.903497 282.298055 
L 64.198719 282.298055 
L 64.198719 280.725312 
L 69.672503 280.725312 
L 69.672503 280.201064 
L 71.168109 280.201064 
L 71.168109 279.152568 
L 75.003641 279.152568 
L 75.003641 278.104073 
L 88.556144 278.104073 
L 88.556144 277.579825 
L 90.05175 277.579825 
L 90.05175 277.055578 
L 100.728876 277.055578 
L 100.728876 276.007082 
L 104.201437 276.007082 
L 104.201437 275.482834 
L 107.439785 275.482834 
L 107.439785 274.958587 
L 109.406343 274.958587 
L 109.406343 274.434339 
L 109.560502 274.434339 
L 109.560502 273.385844 
L 114.922307 273.385844 
L 114.922307 272.861596 
L 115.58349 272.861596 
L 115.58349 271.8131 
L 120.034863 271.8131 
L 120.118102 270.240357 
L 121.16504 270.240357 
L 121.16504 269.191862 
L 123.567356 269.191862 
L 123.567356 268.667614 
L 126.265455 268.667614 
L 126.265455 267.619119 
L 126.381204 267.619119 
L 126.381204 267.094871 
L 128.082264 267.094871 
L 128.082264 266.570623 
L 129.389632 266.570623 
L 129.389632 263.949385 
L 130.054468 263.949385 
L 130.054468 262.900889 
L 130.961731 262.900889 
L 130.961731 261.328146 
L 132.603999 261.328146 
L 132.603999 260.803898 
L 133.465568 260.803898 
L 133.465568 260.279651 
L 133.843356 260.279651 
L 133.843356 259.755403 
L 133.992176 259.755403 
L 133.992176 259.231155 
L 134.39491 259.231155 
L 134.39491 258.706907 
L 134.574897 258.706907 
L 134.574897 256.609917 
L 135.06906 256.609917 
L 135.06906 256.085669 
L 136.082436 256.085669 
L 136.082436 255.561421 
L 137.008324 255.561421 
L 137.008324 255.037173 
L 138.52464 255.037173 
L 138.52464 254.512926 
L 139.865404 254.512926 
L 139.865404 253.988678 
L 141.496475 253.988678 
L 141.496475 253.46443 
L 144.07071 253.46443 
L 144.07071 252.940182 
L 144.193927 252.940182 
L 144.193927 251.891687 
L 145.168442 251.891687 
L 145.168442 251.367439 
L 145.456044 251.367439 
L 145.456044 250.318944 
L 146.05397 250.318944 
L 146.05397 249.270448 
L 146.755644 249.270448 
L 146.755644 248.746201 
L 147.293646 248.746201 
L 147.361855 247.173458 
L 148.240964 247.173458 
L 148.240964 246.64921 
L 149.046458 246.64921 
L 149.154128 244.552219 
L 150.22412 244.552219 
L 150.22412 243.503724 
L 150.735133 243.503724 
L 150.735133 242.979476 
L 151.687278 242.979476 
L 151.687278 241.93098 
L 151.832219 241.93098 
L 151.910766 239.83399 
L 153.278551 239.83399 
L 153.290609 238.785494 
L 153.660271 238.785494 
L 153.660271 238.261246 
L 154.194556 238.261246 
L 154.194556 237.736999 
L 154.944195 237.736999 
L 154.998849 236.688503 
L 155.578296 236.688503 
L 155.578296 236.164255 
L 156.472615 236.164255 
L 156.472615 235.640008 
L 157.121319 235.640008 
L 157.121319 235.11576 
L 157.866922 235.11576 
L 157.866922 234.067265 
L 158.331631 234.067265 
L 158.331631 233.018769 
L 158.696319 233.018769 
L 158.696319 232.494521 
L 159.079271 232.494521 
L 159.156562 231.446026 
L 160.171377 231.446026 
L 160.171377 230.921778 
L 160.324166 230.921778 
L 160.324166 230.397531 
L 160.782346 230.397531 
L 160.782346 229.873283 
L 161.898981 229.873283 
L 161.898981 229.349035 
L 162.360255 229.349035 
L 162.452458 227.776292 
L 162.781739 227.776292 
L 162.781739 227.252044 
L 163.707062 227.252044 
L 163.707062 226.727797 
L 165.999818 226.727797 
L 165.999818 225.679301 
L 166.171591 225.679301 
L 166.171591 224.630806 
L 167.476712 224.630806 
L 167.476712 224.106558 
L 167.738739 224.106558 
L 167.738739 223.58231 
L 170.20538 223.58231 
L 170.20538 223.058063 
L 172.069466 223.058063 
L 172.069466 222.533815 
L 174.359634 222.533815 
L 174.359634 222.009567 
L 188.383905 222.009567 
L 188.383905 221.485319 
L 189.211733 221.485319 
L 189.211733 220.961072 
L 189.425131 220.961072 
L 189.425131 220.436824 
L 189.826882 220.436824 
L 189.921577 218.864081 
L 190.099508 218.864081 
L 190.099508 218.339833 
L 190.759328 218.339833 
L 190.759328 217.291338 
L 190.897771 217.291338 
L 190.897771 216.76709 
L 191.434107 216.76709 
L 191.434107 216.242842 
L 191.807393 216.242842 
L 191.807393 215.194347 
L 196.441095 215.194347 
L 196.441095 214.670099 
L 196.688026 214.670099 
L 196.688026 214.145851 
L 199.63458 214.145851 
L 199.63458 213.621604 
L 199.778717 213.621604 
L 199.778717 213.097356 
L 200.476391 213.097356 
L 200.476391 212.573108 
L 200.749854 212.573108 
L 200.749854 212.04886 
L 200.870599 212.04886 
L 200.870599 211.524613 
L 201.016784 211.524613 
L 201.016784 211.000365 
L 202.139332 211.000365 
L 202.139332 210.476117 
L 202.560095 210.476117 
L 202.560095 209.95187 
L 206.657555 209.95187 
L 206.657555 209.427622 
L 206.841927 209.427622 
L 206.841927 208.379126 
L 207.176027 208.379126 
L 207.176027 207.854879 
L 207.456876 207.854879 
L 207.519696 206.282136 
L 209.605224 206.282136 
L 209.605224 205.757888 
L 209.720472 205.757888 
L 209.720472 205.23364 
L 211.599579 205.23364 
L 211.599579 204.709392 
L 211.953061 204.709392 
L 212.056401 203.660897 
L 212.121805 203.660897 
L 212.121805 203.136649 
L 212.490237 203.136649 
L 212.490237 202.612401 
L 215.440218 202.612401 
L 215.440218 202.088154 
L 215.642305 202.088154 
L 215.642305 201.563906 
L 215.995284 201.563906 
L 215.995284 201.039658 
L 221.136001 201.039658 
L 221.136001 200.515411 
L 225.177638 200.515411 
L 225.177638 199.991163 
L 226.942361 199.991163 
L 227.046153 198.41842 
L 227.783985 198.41842 
L 227.783985 197.894172 
L 228.637244 197.894172 
L 228.637244 197.369924 
L 230.713549 197.369924 
L 230.713549 196.845677 
L 232.010148 196.845677 
L 232.010148 196.321429 
L 233.215763 196.321429 
L 233.215763 195.797181 
L 234.929494 195.797181 
L 234.929494 194.748686 
L 236.859229 194.748686 
L 236.859229 194.224438 
L 237.982394 194.224438 
L 237.982394 193.70019 
L 241.021551 193.70019 
L 241.021551 193.175943 
L 243.107689 193.175943 
L 243.107689 192.651695 
L 245.835464 192.651695 
L 245.835464 192.127447 
L 248.898121 192.127447 
L 248.898121 191.603199 
L 249.359428 191.603199 
L 249.359428 191.078952 
L 251.288743 191.078952 
L 251.288743 190.554704 
L 261.09915 190.554704 
L 261.09915 190.030456 
L 333.168 190.030456 
L 333.168 190.030456 
" style="fill:none;stroke:#0000ff;stroke-linecap:square;stroke-width:1.5;"/>
   </g>
   <g id="line2d_48">
    <defs>
     <path d="M 0 -6 
L -1.347084 -1.854102 
L -5.706339 -1.854102 
L -2.179628 0.708204 
L -3.526712 4.854102 
L -0 2.291796 
L 3.526712 4.854102 
L 2.179628 0.708204 
L 5.706339 -1.854102 
L 1.347084 -1.854102 
z
" id="me9a4f3e296" style="stroke:#0000ff;stroke-linejoin:bevel;stroke-width:1.5;"/>
    </defs>
    <g>
     <use style="fill-opacity:0;stroke:#0000ff;stroke-linejoin:bevel;stroke-width:1.5;" x="104.201437" xlink:href="#me9a4f3e296" y="276.007082"/>
     <use style="fill-opacity:0;stroke:#0000ff;stroke-linejoin:bevel;stroke-width:1.5;" x="174.359634" xlink:href="#me9a4f3e296" y="222.533815"/>
     <use style="fill-opacity:0;stroke:#0000ff;stroke-linejoin:bevel;stroke-width:1.5;" x="226.942361" xlink:href="#me9a4f3e296" y="199.991163"/>
     <use style="fill-opacity:0;stroke:#0000ff;stroke-linejoin:bevel;stroke-width:1.5;" x="261.09915" xlink:href="#me9a4f3e296" y="190.030456"/>
     <use style="fill-opacity:0;stroke:#0000ff;stroke-linejoin:bevel;stroke-width:1.5;" x="261.09915" xlink:href="#me9a4f3e296" y="190.030456"/>
     <use style="fill-opacity:0;stroke:#0000ff;stroke-linejoin:bevel;stroke-width:1.5;" x="333.168" xlink:href="#me9a4f3e296" y="190.030456"/>
    </g>
   </g>
   <g id="line2d_49">
    <path style="fill:none;stroke:#0000ff;stroke-linecap:square;stroke-width:1.5;"/>
    <g/>
   </g>
   <g id="line2d_50">
    <path clip-path="url(#p39f7b8e9cc)" d="M 186.941843 222.009567 
" style="fill:none;stroke:#0000ff;stroke-linecap:square;stroke-width:1.5;"/>
    <defs>
     <path d="M -12 12 
L 12 -12 
M -12 -12 
L 12 12 
" id="m35b87ebe3a" style="stroke:#0000ff;"/>
    </defs>
    <g clip-path="url(#p39f7b8e9cc)">
     <use style="fill:#0000ff;stroke:#0000ff;" x="186.941843" xlink:href="#m35b87ebe3a" y="222.009567"/>
    </g>
   </g>
   <g id="line2d_51">
    <defs>
     <path d="M 0 1.5 
C 0.397805 1.5 0.77937 1.341951 1.06066 1.06066 
C 1.341951 0.77937 1.5 0.397805 1.5 0 
C 1.5 -0.397805 1.341951 -0.77937 1.06066 -1.06066 
C 0.77937 -1.341951 0.397805 -1.5 0 -1.5 
C -0.397805 -1.5 -0.77937 -1.341951 -1.06066 -1.06066 
C -1.341951 -0.77937 -1.5 -0.397805 -1.5 0 
C -1.5 0.397805 -1.341951 0.77937 -1.06066 1.06066 
C -0.77937 1.341951 -0.397805 1.5 0 1.5 
z
" id="mecb9849039" style="stroke:#000000;"/>
    </defs>
    <g>
     <use style="stroke:#000000;" x="237.678939" xlink:href="#mecb9849039" y="237.212751"/>
     <use style="stroke:#000000;" x="237.678939" xlink:href="#mecb9849039" y="237.212751"/>
    </g>
   </g>
   <g id="line2d_52">
    <path d="M 16.541714 294.88 
L 16.541714 287.016284 
L 28.455965 287.016284 
L 28.455965 285.967789 
L 44.205749 285.967789 
L 44.205749 285.443541 
L 49.989246 285.443541 
L 49.989246 284.919293 
L 52.284468 284.919293 
L 52.284468 284.395046 
L 56.12 284.395046 
L 56.12 283.870798 
L 65.240773 283.870798 
L 65.240773 283.34655 
L 68.034251 283.34655 
L 68.034251 282.822302 
L 82.350819 282.822302 
L 82.350819 282.298055 
L 88.027221 282.298055 
L 88.027221 281.249559 
L 101.966002 281.249559 
L 101.966002 280.201064 
L 107.952917 280.201064 
L 107.952917 279.152568 
L 110.089425 279.152568 
L 110.089425 278.628321 
L 112.449632 278.628321 
L 112.449632 277.579825 
L 112.643127 277.579825 
L 112.643127 277.055578 
L 114.058375 277.055578 
L 114.058375 276.53133 
L 115.034286 276.53133 
L 115.034286 276.007082 
L 115.691256 276.007082 
L 115.691256 275.482834 
L 116.324038 275.482834 
L 116.427273 273.385844 
L 117.905717 273.385844 
L 117.905717 272.337348 
L 120.849643 272.337348 
L 120.849643 271.8131 
L 121.929105 271.8131 
L 121.929105 271.288853 
L 125.217956 271.288853 
L 125.217956 270.764605 
L 125.764637 270.764605 
L 125.764637 269.191862 
L 127.497741 269.191862 
L 127.497741 268.667614 
L 127.7659 268.667614 
L 127.7659 267.619119 
L 129.219326 267.619119 
L 129.219326 267.094871 
L 129.725264 267.094871 
L 129.725264 266.570623 
L 130.627094 266.570623 
L 130.627094 264.99788 
L 131.865471 264.99788 
L 131.865471 263.949385 
L 133.446459 263.949385 
L 133.446459 263.425137 
L 133.730889 263.425137 
L 133.730889 262.900889 
L 134.358685 262.900889 
L 134.358685 262.376641 
L 135.934186 262.376641 
L 135.934186 261.852394 
L 136.487656 261.852394 
L 136.487656 261.328146 
L 137.872104 261.328146 
L 137.872104 260.803898 
L 140.009571 260.803898 
L 140.009571 259.755403 
L 141.376358 259.755403 
L 141.376358 259.231155 
L 142.50752 259.231155 
L 142.50752 258.706907 
L 142.887025 258.706907 
L 142.887025 258.18266 
L 147.606868 258.18266 
L 147.606868 257.658412 
L 149.704875 257.658412 
L 149.704875 257.134164 
L 153.151429 257.134164 
L 153.151429 255.037173 
L 156.447555 255.037173 
L 156.447555 254.512926 
L 156.612279 254.512926 
L 156.612279 253.988678 
L 176.569506 253.988678 
L 176.569506 253.46443 
L 176.710493 253.46443 
L 176.818162 252.415935 
L 177.134172 252.415935 
L 177.134172 251.891687 
L 177.491723 251.891687 
L 177.491723 251.367439 
L 178.574492 251.367439 
L 178.653222 250.318944 
L 180.048858 250.318944 
L 180.090736 248.746201 
L 188.256692 248.746201 
L 188.256692 248.221953 
L 194.750328 248.221953 
L 194.798878 246.64921 
L 194.906812 246.64921 
L 194.906812 246.124962 
L 195.206629 246.124962 
L 195.206629 245.600714 
L 195.445367 245.600714 
L 195.445367 244.552219 
L 199.492094 244.552219 
L 199.492094 244.027971 
L 203.199982 244.027971 
L 203.199982 243.503724 
L 203.628435 243.503724 
L 203.628435 242.979476 
L 208.861168 242.979476 
L 208.861168 242.455228 
L 211.091287 242.455228 
L 211.091287 241.93098 
L 211.267629 241.93098 
L 211.267629 241.406733 
L 213.114447 241.406733 
L 213.114447 240.882485 
L 213.43092 240.882485 
L 213.43092 239.83399 
L 216.67629 239.83399 
L 216.766267 238.261246 
L 218.03679 238.261246 
L 218.03679 237.736999 
L 237.678939 237.736999 
L 237.678939 237.212751 
L 333.168 237.212751 
L 333.168 237.212751 
" style="fill:none;stroke:#000000;stroke-linecap:square;stroke-width:1.5;"/>
   </g>
   <g id="line2d_53">
    <defs>
     <path d="M 0 6 
C 1.591219 6 3.117479 5.367802 4.242641 4.242641 
C 5.367802 3.117479 6 1.591219 6 0 
C 6 -1.591219 5.367802 -3.117479 4.242641 -4.242641 
C 3.117479 -5.367802 1.591219 -6 0 -6 
C -1.591219 -6 -3.117479 -5.367802 -4.242641 -4.242641 
C -5.367802 -3.117479 -6 -1.591219 -6 0 
C -6 1.591219 -5.367802 3.117479 -4.242641 4.242641 
C -3.117479 5.367802 -1.591219 6 0 6 
z
" id="mb691e22a56" style="stroke:#000000;stroke-width:1.5;"/>
    </defs>
    <g>
     <use style="fill-opacity:0;stroke:#000000;stroke-width:1.5;" x="135.934186" xlink:href="#mb691e22a56" y="262.376641"/>
     <use style="fill-opacity:0;stroke:#000000;stroke-width:1.5;" x="195.445367" xlink:href="#mb691e22a56" y="244.552219"/>
     <use style="fill-opacity:0;stroke:#000000;stroke-width:1.5;" x="237.678939" xlink:href="#mb691e22a56" y="237.212751"/>
     <use style="fill-opacity:0;stroke:#000000;stroke-width:1.5;" x="237.678939" xlink:href="#mb691e22a56" y="237.212751"/>
     <use style="fill-opacity:0;stroke:#000000;stroke-width:1.5;" x="333.168" xlink:href="#mb691e22a56" y="237.212751"/>
    </g>
   </g>
   <g id="line2d_54">
    <path style="fill:none;stroke:#000000;stroke-linecap:square;stroke-width:1.5;"/>
    <g/>
   </g>
   <g id="line2d_55">
    <path clip-path="url(#p39f7b8e9cc)" d="M 175.027591 253.988678 
" style="fill:none;stroke:#000000;stroke-linecap:square;stroke-width:1.5;"/>
    <defs>
     <path d="M -12 12 
L 12 -12 
M -12 -12 
L 12 12 
" id="mbe86fe8edd" style="stroke:#000000;"/>
    </defs>
    <g clip-path="url(#p39f7b8e9cc)">
     <use style="stroke:#000000;" x="175.027591" xlink:href="#mbe86fe8edd" y="253.988678"/>
    </g>
   </g>
   <g id="line2d_56">
    <defs>
     <path d="M 0 1.5 
C 0.397805 1.5 0.77937 1.341951 1.06066 1.06066 
C 1.341951 0.77937 1.5 0.397805 1.5 0 
C 1.5 -0.397805 1.341951 -0.77937 1.06066 -1.06066 
C 0.77937 -1.341951 0.397805 -1.5 0 -1.5 
C -0.397805 -1.5 -0.77937 -1.341951 -1.06066 -1.06066 
C -1.341951 -0.77937 -1.5 -0.397805 -1.5 0 
C -1.5 0.397805 -1.341951 0.77937 -1.06066 1.06066 
C -0.77937 1.341951 -0.397805 1.5 0 1.5 
z
" id="m8f5e931bde" style="stroke:#ff0000;"/>
    </defs>
    <g>
     <use style="fill:#ff0000;stroke:#ff0000;" x="215.644788" xlink:href="#m8f5e931bde" y="263.425137"/>
     <use style="fill:#ff0000;stroke:#ff0000;" x="215.644788" xlink:href="#m8f5e931bde" y="263.425137"/>
    </g>
   </g>
   <g id="line2d_57">
    <path d="M 4.627463 294.88 
L 4.627463 288.589027 
L 45.844 288.589027 
L 45.844 287.540532 
L 64.198719 287.540532 
L 64.198719 287.016284 
L 64.727642 287.016284 
L 64.727642 285.967789 
L 88.942422 285.967789 
L 88.942422 285.443541 
L 92.391676 285.443541 
L 92.391676 284.395046 
L 97.336537 284.395046 
L 97.336537 283.870798 
L 99.04567 283.870798 
L 99.04567 283.34655 
L 99.602435 283.34655 
L 99.602435 282.822302 
L 99.67078 282.822302 
L 99.67078 282.298055 
L 103.39683 282.298055 
L 103.39683 281.249559 
L 104.357935 281.249559 
L 104.357935 280.725312 
L 104.409787 280.725312 
L 104.409787 279.676816 
L 105.415256 279.676816 
L 105.415256 278.104073 
L 107.952917 278.104073 
L 107.952917 277.055578 
L 113.969545 277.055578 
L 113.969545 276.007082 
L 114.866043 276.007082 
L 114.866043 275.482834 
L 120.929036 275.482834 
L 120.929036 274.958587 
L 128.302884 274.958587 
L 128.302884 273.910091 
L 135.285164 273.910091 
L 135.285164 273.385844 
L 142.365863 273.385844 
L 142.365863 272.337348 
L 165.24399 272.337348 
L 165.24399 271.8131 
L 166.21995 271.8131 
L 166.21995 271.288853 
L 167.401297 271.288853 
L 167.401297 270.764605 
L 168.531498 270.764605 
L 168.531498 270.240357 
L 177.02241 270.240357 
L 177.02241 268.667614 
L 182.531421 268.667614 
L 182.531421 268.143366 
L 187.499772 268.143366 
L 187.499772 267.619119 
L 187.772698 267.619119 
L 187.772698 267.094871 
L 201.344352 267.094871 
L 201.344352 266.046375 
L 203.109541 266.046375 
L 203.109541 265.522128 
L 206.174448 265.522128 
L 206.174448 264.99788 
L 213.028302 264.99788 
L 213.028302 264.473632 
L 215.644788 264.473632 
L 215.644788 263.425137 
L 333.168 263.425137 
" style="fill:none;stroke:#ff0000;stroke-linecap:square;stroke-width:1.5;"/>
   </g>
   <g id="line2d_58">
    <defs>
     <path d="M -6 6 
L 6 6 
L 6 -6 
L -6 -6 
z
" id="mdb51ee651d" style="stroke:#ff0000;stroke-linejoin:miter;stroke-width:1.5;"/>
    </defs>
    <g>
     <use style="fill-opacity:0;stroke:#ff0000;stroke-linejoin:miter;stroke-width:1.5;" x="88.942422" xlink:href="#mdb51ee651d" y="285.967789"/>
     <use style="fill-opacity:0;stroke:#ff0000;stroke-linejoin:miter;stroke-width:1.5;" x="128.302884" xlink:href="#mdb51ee651d" y="273.910091"/>
     <use style="fill-opacity:0;stroke:#ff0000;stroke-linejoin:miter;stroke-width:1.5;" x="215.644788" xlink:href="#mdb51ee651d" y="264.473632"/>
     <use style="fill-opacity:0;stroke:#ff0000;stroke-linejoin:miter;stroke-width:1.5;" x="215.644788" xlink:href="#mdb51ee651d" y="263.425137"/>
     <use style="fill-opacity:0;stroke:#ff0000;stroke-linejoin:miter;stroke-width:1.5;" x="215.644788" xlink:href="#mdb51ee651d" y="263.425137"/>
     <use style="fill-opacity:0;stroke:#ff0000;stroke-linejoin:miter;stroke-width:1.5;" x="333.168" xlink:href="#mdb51ee651d" y="263.425137"/>
    </g>
   </g>
   <g id="line2d_59">
    <path style="fill:none;stroke:#ff0000;stroke-linecap:square;stroke-width:1.5;"/>
    <g/>
   </g>
   <g id="line2d_60">
    <path clip-path="url(#p39f7b8e9cc)" d="M 163.11334 272.337348 
" style="fill:none;stroke:#ff0000;stroke-linecap:square;stroke-width:1.5;"/>
    <defs>
     <path d="M -12 12 
L 12 -12 
M -12 -12 
L 12 12 
" id="mb37f0e2c71" style="stroke:#ff0000;"/>
    </defs>
    <g clip-path="url(#p39f7b8e9cc)">
     <use style="fill:#ff0000;stroke:#ff0000;" x="163.11334" xlink:href="#mb37f0e2c71" y="272.337348"/>
    </g>
   </g>
   <g id="line2d_61">
    <defs>
     <path d="M 0 1.5 
C 0.397805 1.5 0.77937 1.341951 1.06066 1.06066 
C 1.341951 0.77937 1.5 0.397805 1.5 0 
C 1.5 -0.397805 1.341951 -0.77937 1.06066 -1.06066 
C 0.77937 -1.341951 0.397805 -1.5 0 -1.5 
C -0.397805 -1.5 -0.77937 -1.341951 -1.06066 -1.06066 
C -1.341951 -0.77937 -1.5 -0.397805 -1.5 0 
C -1.5 0.397805 -1.341951 0.77937 -1.06066 1.06066 
C -0.77937 1.341951 -0.397805 1.5 0 1.5 
z
" id="m065527df47" style="stroke:#bf00bf;"/>
    </defs>
    <g>
     <use style="fill:#bf00bf;stroke:#bf00bf;" x="213.8639" xlink:href="#m065527df47" y="268.667614"/>
     <use style="fill:#bf00bf;stroke:#bf00bf;" x="213.8639" xlink:href="#m065527df47" y="268.667614"/>
    </g>
   </g>
   <g id="line2d_62">
    <path d="M -1 289.113275 
L 57.758252 289.113275 
L 57.758252 288.589027 
L 67.377281 288.589027 
L 67.377281 287.540532 
L 84.039949 287.540532 
L 84.039949 285.967789 
L 85.808564 285.967789 
L 85.808564 285.443541 
L 89.005966 285.443541 
L 89.005966 284.395046 
L 91.2615 284.395046 
L 91.2615 283.870798 
L 93.934963 283.870798 
L 93.934963 283.34655 
L 97.988135 283.34655 
L 97.988135 282.298055 
L 99.602435 282.298055 
L 99.602435 281.773807 
L 99.975011 281.773807 
L 99.975011 280.725312 
L 102.724876 280.725312 
L 102.724876 280.201064 
L 103.937397 280.201064 
L 103.937397 279.676816 
L 110.126589 279.676816 
L 110.126589 279.152568 
L 110.710548 279.152568 
L 110.710548 278.628321 
L 116.984244 278.628321 
L 116.984244 277.579825 
L 120.436895 277.579825 
L 120.436895 277.055578 
L 120.988342 277.055578 
L 120.988342 276.53133 
L 127.225332 276.53133 
L 127.225332 276.007082 
L 140.447686 276.007082 
L 140.447686 274.958587 
L 155.005668 274.958587 
L 155.005668 274.434339 
L 164.535049 274.434339 
L 164.535049 273.910091 
L 165.590736 273.910091 
L 165.590736 272.861596 
L 179.897308 272.861596 
L 179.897308 272.337348 
L 185.391619 272.337348 
L 185.391619 271.8131 
L 196.937407 271.8131 
L 196.937407 271.288853 
L 198.098452 271.288853 
L 198.098452 270.764605 
L 203.7822 270.764605 
L 203.7822 270.240357 
L 204.570443 270.240357 
L 204.570443 269.716109 
L 207.405082 269.716109 
L 207.405082 269.191862 
L 213.8639 269.191862 
L 213.8639 268.667614 
L 333.168 268.667614 
" style="fill:none;stroke:#bf00bf;stroke-linecap:square;stroke-width:1.5;"/>
   </g>
   <g id="line2d_63">
    <defs>
     <path d="M -0 8.485281 
L 8.485281 0 
L 0 -8.485281 
L -8.485281 -0 
z
" id="ma3b3c5c798" style="stroke:#bf00bf;stroke-linejoin:miter;stroke-width:1.5;"/>
    </defs>
    <g>
     <use style="fill-opacity:0;stroke:#bf00bf;stroke-linejoin:miter;stroke-width:1.5;" x="110.710548" xlink:href="#ma3b3c5c798" y="279.152568"/>
     <use style="fill-opacity:0;stroke:#bf00bf;stroke-linejoin:miter;stroke-width:1.5;" x="185.391619" xlink:href="#ma3b3c5c798" y="271.8131"/>
     <use style="fill-opacity:0;stroke:#bf00bf;stroke-linejoin:miter;stroke-width:1.5;" x="213.8639" xlink:href="#ma3b3c5c798" y="268.667614"/>
     <use style="fill-opacity:0;stroke:#bf00bf;stroke-linejoin:miter;stroke-width:1.5;" x="213.8639" xlink:href="#ma3b3c5c798" y="268.667614"/>
     <use style="fill-opacity:0;stroke:#bf00bf;stroke-linejoin:miter;stroke-width:1.5;" x="333.168" xlink:href="#ma3b3c5c798" y="268.667614"/>
    </g>
   </g>
   <g id="line2d_64">
    <path style="fill:none;stroke:#bf00bf;stroke-linecap:square;stroke-width:1.5;"/>
    <g/>
   </g>
   <g id="line2d_65">
    <path clip-path="url(#p39f7b8e9cc)" d="M 151.199089 274.958587 
" style="fill:none;stroke:#bf00bf;stroke-linecap:square;stroke-width:1.5;"/>
    <defs>
     <path d="M -12 12 
L 12 -12 
M -12 -12 
L 12 12 
" id="mde5aa7e89c" style="stroke:#bf00bf;"/>
    </defs>
    <g clip-path="url(#p39f7b8e9cc)">
     <use style="fill:#bf00bf;stroke:#bf00bf;" x="151.199089" xlink:href="#mde5aa7e89c" y="274.958587"/>
    </g>
   </g>
   <g id="line2d_66">
    <path d="M 333.168 268.667614 
L 363.64328 289.532673 
" style="fill:none;stroke:#bf00bf;stroke-linecap:square;stroke-width:1.5;"/>
    <g>
     <use style="fill-opacity:0;stroke:#bf00bf;stroke-linejoin:miter;stroke-width:1.5;" x="333.168" xlink:href="#ma3b3c5c798" y="268.667614"/>
     <use style="fill-opacity:0;stroke:#bf00bf;stroke-linejoin:miter;stroke-width:1.5;" x="363.64328" xlink:href="#ma3b3c5c798" y="289.532673"/>
    </g>
   </g>
   <g id="line2d_67">
    <path d="M 333.168 263.425137 
L 363.64328 238.198337 
" style="fill:none;stroke:#ff0000;stroke-linecap:square;stroke-width:1.5;"/>
    <g>
     <use style="fill-opacity:0;stroke:#ff0000;stroke-linejoin:miter;stroke-width:1.5;" x="333.168" xlink:href="#mdb51ee651d" y="263.425137"/>
     <use style="fill-opacity:0;stroke:#ff0000;stroke-linejoin:miter;stroke-width:1.5;" x="363.64328" xlink:href="#mdb51ee651d" y="238.198337"/>
    </g>
   </g>
   <g id="line2d_68">
    <path d="M 333.168 237.212751 
L 363.64328 186.864 
" style="fill:none;stroke:#000000;stroke-linecap:square;stroke-width:1.5;"/>
    <g>
     <use style="fill-opacity:0;stroke:#000000;stroke-width:1.5;" x="333.168" xlink:href="#mb691e22a56" y="237.212751"/>
     <use style="fill-opacity:0;stroke:#000000;stroke-width:1.5;" x="363.64328" xlink:href="#mb691e22a56" y="186.864"/>
    </g>
   </g>
   <g id="line2d_69">
    <path d="M 333.168 190.030456 
L 363.64328 135.529663 
" style="fill:none;stroke:#0000ff;stroke-linecap:square;stroke-width:1.5;"/>
    <g>
     <use style="fill-opacity:0;stroke:#0000ff;stroke-linejoin:bevel;stroke-width:1.5;" x="333.168" xlink:href="#me9a4f3e296" y="190.030456"/>
     <use style="fill-opacity:0;stroke:#0000ff;stroke-linejoin:bevel;stroke-width:1.5;" x="363.64328" xlink:href="#me9a4f3e296" y="135.529663"/>
    </g>
   </g>
   <g id="line2d_70">
    <path d="M 333.168 27.513663 
L 363.64328 84.195327 
" style="fill:none;stroke:#008000;stroke-linecap:square;stroke-width:1.5;"/>
    <g>
     <use style="fill-opacity:0;stroke:#008000;stroke-linejoin:miter;stroke-width:1.5;" x="333.168" xlink:href="#me60b04f373" y="27.513663"/>
     <use style="fill-opacity:0;stroke:#008000;stroke-linejoin:miter;stroke-width:1.5;" x="363.64328" xlink:href="#me60b04f373" y="84.195327"/>
    </g>
   </g>
   <g id="line2d_71">
    <path d="M 333.168 27.513663 
L 363.64328 32.86099 
" style="fill:none;stroke:#00bfbf;stroke-linecap:square;stroke-width:1.5;"/>
    <g>
     <use style="fill-opacity:0;stroke:#00bfbf;stroke-width:1.5;" x="333.168" xlink:href="#mf0c9e1cfee" y="27.513663"/>
     <use style="fill-opacity:0;stroke:#00bfbf;stroke-width:1.5;" x="363.64328" xlink:href="#mf0c9e1cfee" y="32.86099"/>
    </g>
   </g>
   <g id="line2d_72">
    <path d="M 333.168 294.88 
L 333.168 27.513663 
" style="fill:none;stroke:#000000;stroke-linecap:square;stroke-width:1.5;"/>
   </g>
   <g id="patch_3">
    <path d="M 56.12 294.88 
L 56.12 24.84 
" style="fill:none;stroke:#000000;stroke-linecap:square;stroke-linejoin:miter;stroke-width:0.8;"/>
   </g>
   <g id="patch_4">
    <path d="M 333.168 294.88 
L 333.168 24.84 
" style="fill:none;stroke:#000000;stroke-linecap:square;stroke-linejoin:miter;stroke-width:0.8;"/>
   </g>
   <g id="patch_5">
    <path d="M 56.12 294.88 
L 333.168 294.88 
" style="fill:none;stroke:#000000;stroke-linecap:square;stroke-linejoin:miter;stroke-width:0.8;"/>
   </g>
   <g id="patch_6">
    <path d="M 56.12 24.84 
L 333.168 24.84 
" style="fill:none;stroke:#000000;stroke-linecap:square;stroke-linejoin:miter;stroke-width:0.8;"/>
   </g>
   <g id="text_13">
    <!-- 40-D -->
    <defs>
     <path d="M 19.671875 64.796875 
L 19.671875 8.109375 
L 31.59375 8.109375 
Q 46.6875 8.109375 53.6875 14.9375 
Q 60.6875 21.78125 60.6875 36.53125 
Q 60.6875 51.171875 53.6875 57.984375 
Q 46.6875 64.796875 31.59375 64.796875 
z
M 9.8125 72.90625 
L 30.078125 72.90625 
Q 51.265625 72.90625 61.171875 64.09375 
Q 71.09375 55.28125 71.09375 36.53125 
Q 71.09375 17.671875 61.125 8.828125 
Q 51.171875 0 30.078125 0 
L 9.8125 0 
z
" id="DejaVuSans-44"/>
    </defs>
    <g transform="translate(369.18424 294.223611)scale(0.17 -0.17)">
     <use xlink:href="#DejaVuSans-34"/>
     <use x="63.623047" xlink:href="#DejaVuSans-30"/>
     <use x="127.246094" xlink:href="#DejaVuSans-2d"/>
     <use x="163.330078" xlink:href="#DejaVuSans-44"/>
    </g>
   </g>
   <g id="text_14">
    <!-- 20-D -->
    <g transform="translate(369.18424 242.889274)scale(0.17 -0.17)">
     <use xlink:href="#DejaVuSans-32"/>
     <use x="63.623047" xlink:href="#DejaVuSans-30"/>
     <use x="127.246094" xlink:href="#DejaVuSans-2d"/>
     <use x="163.330078" xlink:href="#DejaVuSans-44"/>
    </g>
   </g>
   <g id="text_15">
    <!-- 10-D -->
    <g transform="translate(369.18424 191.554937)scale(0.17 -0.17)">
     <use xlink:href="#DejaVuSans-31"/>
     <use x="63.623047" xlink:href="#DejaVuSans-30"/>
     <use x="127.246094" xlink:href="#DejaVuSans-2d"/>
     <use x="163.330078" xlink:href="#DejaVuSans-44"/>
    </g>
   </g>
   <g id="text_16">
    <!-- 5-D -->
    <defs>
     <path d="M 10.796875 72.90625 
L 49.515625 72.90625 
L 49.515625 64.59375 
L 19.828125 64.59375 
L 19.828125 46.734375 
Q 21.96875 47.46875 24.109375 47.828125 
Q 26.265625 48.1875 28.421875 48.1875 
Q 40.625 48.1875 47.75 41.5 
Q 54.890625 34.8125 54.890625 23.390625 
Q 54.890625 11.625 47.5625 5.09375 
Q 40.234375 -1.421875 26.90625 -1.421875 
Q 22.3125 -1.421875 17.546875 -0.640625 
Q 12.796875 0.140625 7.71875 1.703125 
L 7.71875 11.625 
Q 12.109375 9.234375 16.796875 8.0625 
Q 21.484375 6.890625 26.703125 6.890625 
Q 35.15625 6.890625 40.078125 11.328125 
Q 45.015625 15.765625 45.015625 23.390625 
Q 45.015625 31 40.078125 35.4375 
Q 35.15625 39.890625 26.703125 39.890625 
Q 22.75 39.890625 18.8125 39.015625 
Q 14.890625 38.140625 10.796875 36.28125 
z
" id="DejaVuSans-35"/>
    </defs>
    <g transform="translate(369.18424 140.220601)scale(0.17 -0.17)">
     <use xlink:href="#DejaVuSans-35"/>
     <use x="63.623047" xlink:href="#DejaVuSans-2d"/>
     <use x="99.707031" xlink:href="#DejaVuSans-44"/>
    </g>
   </g>
   <g id="text_17">
    <!-- 3-D -->
    <defs>
     <path d="M 40.578125 39.3125 
Q 47.65625 37.796875 51.625 33 
Q 55.609375 28.21875 55.609375 21.1875 
Q 55.609375 10.40625 48.1875 4.484375 
Q 40.765625 -1.421875 27.09375 -1.421875 
Q 22.515625 -1.421875 17.65625 -0.515625 
Q 12.796875 0.390625 7.625 2.203125 
L 7.625 11.71875 
Q 11.71875 9.328125 16.59375 8.109375 
Q 21.484375 6.890625 26.8125 6.890625 
Q 36.078125 6.890625 40.9375 10.546875 
Q 45.796875 14.203125 45.796875 21.1875 
Q 45.796875 27.640625 41.28125 31.265625 
Q 36.765625 34.90625 28.71875 34.90625 
L 20.21875 34.90625 
L 20.21875 43.015625 
L 29.109375 43.015625 
Q 36.375 43.015625 40.234375 45.921875 
Q 44.09375 48.828125 44.09375 54.296875 
Q 44.09375 59.90625 40.109375 62.90625 
Q 36.140625 65.921875 28.71875 65.921875 
Q 24.65625 65.921875 20.015625 65.03125 
Q 15.375 64.15625 9.8125 62.3125 
L 9.8125 71.09375 
Q 15.4375 72.65625 20.34375 73.4375 
Q 25.25 74.21875 29.59375 74.21875 
Q 40.828125 74.21875 47.359375 69.109375 
Q 53.90625 64.015625 53.90625 55.328125 
Q 53.90625 49.265625 50.4375 45.09375 
Q 46.96875 40.921875 40.578125 39.3125 
z
" id="DejaVuSans-33"/>
    </defs>
    <g transform="translate(369.18424 88.886264)scale(0.17 -0.17)">
     <use xlink:href="#DejaVuSans-33"/>
     <use x="63.623047" xlink:href="#DejaVuSans-2d"/>
     <use x="99.707031" xlink:href="#DejaVuSans-44"/>
    </g>
   </g>
   <g id="text_18">
    <!-- 2-D -->
    <g transform="translate(369.18424 37.551928)scale(0.17 -0.17)">
     <use xlink:href="#DejaVuSans-32"/>
     <use x="63.623047" xlink:href="#DejaVuSans-2d"/>
     <use x="99.707031" xlink:href="#DejaVuSans-44"/>
    </g>
   </g>
   <g id="text_19">
    <!-- bbob f18 -->
    <defs>
     <path d="M 48.6875 27.296875 
Q 48.6875 37.203125 44.609375 42.84375 
Q 40.53125 48.484375 33.40625 48.484375 
Q 26.265625 48.484375 22.1875 42.84375 
Q 18.109375 37.203125 18.109375 27.296875 
Q 18.109375 17.390625 22.1875 11.75 
Q 26.265625 6.109375 33.40625 6.109375 
Q 40.53125 6.109375 44.609375 11.75 
Q 48.6875 17.390625 48.6875 27.296875 
z
M 18.109375 46.390625 
Q 20.953125 51.265625 25.265625 53.625 
Q 29.59375 56 35.59375 56 
Q 45.5625 56 51.78125 48.09375 
Q 58.015625 40.1875 58.015625 27.296875 
Q 58.015625 14.40625 51.78125 6.484375 
Q 45.5625 -1.421875 35.59375 -1.421875 
Q 29.59375 -1.421875 25.265625 0.953125 
Q 20.953125 3.328125 18.109375 8.203125 
L 18.109375 0 
L 9.078125 0 
L 9.078125 75.984375 
L 18.109375 75.984375 
z
" id="DejaVuSans-62"/>
    </defs>
    <g transform="translate(58.89048 35.290806)scale(0.102 -0.102)">
     <use xlink:href="#DejaVuSans-62"/>
     <use x="63.476562" xlink:href="#DejaVuSans-62"/>
     <use x="126.953125" xlink:href="#DejaVuSans-6f"/>
     <use x="188.134766" xlink:href="#DejaVuSans-62"/>
     <use x="251.611328" xlink:href="#DejaVuSans-20"/>
     <use x="283.398438" xlink:href="#DejaVuSans-66"/>
     <use x="318.603516" xlink:href="#DejaVuSans-31"/>
     <use x="382.226562" xlink:href="#DejaVuSans-38"/>
    </g>
    <!-- 51 targets: 100..1e-08 -->
    <defs>
     <path d="M 11.71875 12.40625 
L 22.015625 12.40625 
L 22.015625 0 
L 11.71875 0 
z
M 11.71875 51.703125 
L 22.015625 51.703125 
L 22.015625 39.3125 
L 11.71875 39.3125 
z
" id="DejaVuSans-3a"/>
    </defs>
    <g transform="translate(58.89048 46.712575)scale(0.102 -0.102)">
     <use xlink:href="#DejaVuSans-35"/>
     <use x="63.623047" xlink:href="#DejaVuSans-31"/>
     <use x="127.246094" xlink:href="#DejaVuSans-20"/>
     <use x="159.033203" xlink:href="#DejaVuSans-74"/>
     <use x="198.242188" xlink:href="#DejaVuSans-61"/>
     <use x="259.521484" xlink:href="#DejaVuSans-72"/>
     <use x="300.619141" xlink:href="#DejaVuSans-67"/>
     <use x="364.095703" xlink:href="#DejaVuSans-65"/>
     <use x="425.619141" xlink:href="#DejaVuSans-74"/>
     <use x="464.828125" xlink:href="#DejaVuSans-73"/>
     <use x="516.927734" xlink:href="#DejaVuSans-3a"/>
     <use x="550.619141" xlink:href="#DejaVuSans-20"/>
     <use x="582.40625" xlink:href="#DejaVuSans-31"/>
     <use x="646.029297" xlink:href="#DejaVuSans-30"/>
     <use x="709.652344" xlink:href="#DejaVuSans-30"/>
     <use x="773.275391" xlink:href="#DejaVuSans-2e"/>
     <use x="805.0625" xlink:href="#DejaVuSans-2e"/>
     <use x="836.849609" xlink:href="#DejaVuSans-31"/>
     <use x="900.472656" xlink:href="#DejaVuSans-65"/>
     <use x="961.996094" xlink:href="#DejaVuSans-2d"/>
     <use x="998.080078" xlink:href="#DejaVuSans-30"/>
     <use x="1061.703125" xlink:href="#DejaVuSans-38"/>
    </g>
    <!-- 15 instances -->
    <g transform="translate(58.89048 58.134344)scale(0.102 -0.102)">
     <use xlink:href="#DejaVuSans-31"/>
     <use x="63.623047" xlink:href="#DejaVuSans-35"/>
     <use x="127.246094" xlink:href="#DejaVuSans-20"/>
     <use x="159.033203" xlink:href="#DejaVuSans-69"/>
     <use x="186.816406" xlink:href="#DejaVuSans-6e"/>
     <use x="250.195312" xlink:href="#DejaVuSans-73"/>
     <use x="302.294922" xlink:href="#DejaVuSans-74"/>
     <use x="341.503906" xlink:href="#DejaVuSans-61"/>
     <use x="402.783203" xlink:href="#DejaVuSans-6e"/>
     <use x="466.162109" xlink:href="#DejaVuSans-63"/>
     <use x="521.142578" xlink:href="#DejaVuSans-65"/>
     <use x="582.666016" xlink:href="#DejaVuSans-73"/>
    </g>
   </g>
   <g id="text_20">
    <!-- v0.0.0 -->
    <g style="fill:#808080;" transform="translate(178.96275 290.099912)scale(0.1 -0.1)">
     <use xlink:href="#DejaVuSans-76"/>
     <use x="59.179688" xlink:href="#DejaVuSans-30"/>
     <use x="122.802734" xlink:href="#DejaVuSans-2e"/>
     <use x="154.589844" xlink:href="#DejaVuSans-30"/>
     <use x="218.212891" xlink:href="#DejaVuSans-2e"/>
     <use x="250" xlink:href="#DejaVuSans-30"/>
    </g>
   </g>
   <g id="text_21">
    <!-- 18 Schaffer F7, condition 1000 -->
    <defs>
     <path d="M 53.515625 70.515625 
L 53.515625 60.890625 
Q 47.90625 63.578125 42.921875 64.890625 
Q 37.9375 66.21875 33.296875 66.21875 
Q 25.25 66.21875 20.875 63.09375 
Q 16.5 59.96875 16.5 54.203125 
Q 16.5 49.359375 19.40625 46.890625 
Q 22.3125 44.4375 30.421875 42.921875 
L 36.375 41.703125 
Q 47.40625 39.59375 52.65625 34.296875 
Q 57.90625 29 57.90625 20.125 
Q 57.90625 9.515625 50.796875 4.046875 
Q 43.703125 -1.421875 29.984375 -1.421875 
Q 24.8125 -1.421875 18.96875 -0.25 
Q 13.140625 0.921875 6.890625 3.21875 
L 6.890625 13.375 
Q 12.890625 10.015625 18.65625 8.296875 
Q 24.421875 6.59375 29.984375 6.59375 
Q 38.421875 6.59375 43.015625 9.90625 
Q 47.609375 13.234375 47.609375 19.390625 
Q 47.609375 24.75 44.3125 27.78125 
Q 41.015625 30.8125 33.5 32.328125 
L 27.484375 33.5 
Q 16.453125 35.6875 11.515625 40.375 
Q 6.59375 45.0625 6.59375 53.421875 
Q 6.59375 63.09375 13.40625 68.65625 
Q 20.21875 74.21875 32.171875 74.21875 
Q 37.3125 74.21875 42.625 73.28125 
Q 47.953125 72.359375 53.515625 70.515625 
z
" id="DejaVuSans-53"/>
     <path d="M 54.890625 33.015625 
L 54.890625 0 
L 45.90625 0 
L 45.90625 32.71875 
Q 45.90625 40.484375 42.875 44.328125 
Q 39.84375 48.1875 33.796875 48.1875 
Q 26.515625 48.1875 22.3125 43.546875 
Q 18.109375 38.921875 18.109375 30.90625 
L 18.109375 0 
L 9.078125 0 
L 9.078125 75.984375 
L 18.109375 75.984375 
L 18.109375 46.1875 
Q 21.34375 51.125 25.703125 53.5625 
Q 30.078125 56 35.796875 56 
Q 45.21875 56 50.046875 50.171875 
Q 54.890625 44.34375 54.890625 33.015625 
z
" id="DejaVuSans-68"/>
     <path d="M 8.203125 72.90625 
L 55.078125 72.90625 
L 55.078125 68.703125 
L 28.609375 0 
L 18.3125 0 
L 43.21875 64.59375 
L 8.203125 64.59375 
z
" id="DejaVuSans-37"/>
    </defs>
    <g transform="translate(40.611187 18.84)scale(0.2 -0.2)">
     <use xlink:href="#DejaVuSans-31"/>
     <use x="63.623047" xlink:href="#DejaVuSans-38"/>
     <use x="127.246094" xlink:href="#DejaVuSans-20"/>
     <use x="159.033203" xlink:href="#DejaVuSans-53"/>
     <use x="222.509766" xlink:href="#DejaVuSans-63"/>
     <use x="277.490234" xlink:href="#DejaVuSans-68"/>
     <use x="340.869141" xlink:href="#DejaVuSans-61"/>
     <use x="402.148438" xlink:href="#DejaVuSans-66"/>
     <use x="437.353516" xlink:href="#DejaVuSans-66"/>
     <use x="472.558594" xlink:href="#DejaVuSans-65"/>
     <use x="534.082031" xlink:href="#DejaVuSans-72"/>
     <use x="575.195312" xlink:href="#DejaVuSans-20"/>
     <use x="606.982422" xlink:href="#DejaVuSans-46"/>
     <use x="664.501953" xlink:href="#DejaVuSans-37"/>
     <use x="728.125" xlink:href="#DejaVuSans-2c"/>
     <use x="759.912109" xlink:href="#DejaVuSans-20"/>
     <use x="791.699219" xlink:href="#DejaVuSans-63"/>
     <use x="846.679688" xlink:href="#DejaVuSans-6f"/>
     <use x="907.861328" xlink:href="#DejaVuSans-6e"/>
     <use x="971.240234" xlink:href="#DejaVuSans-64"/>
     <use x="1034.716797" xlink:href="#DejaVuSans-69"/>
     <use x="1062.5" xlink:href="#DejaVuSans-74"/>
     <use x="1101.708984" xlink:href="#DejaVuSans-69"/>
     <use x="1129.492188" xlink:href="#DejaVuSans-6f"/>
     <use x="1190.673828" xlink:href="#DejaVuSans-6e"/>
     <use x="1254.052734" xlink:href="#DejaVuSans-20"/>
     <use x="1285.839844" xlink:href="#DejaVuSans-31"/>
     <use x="1349.462891" xlink:href="#DejaVuSans-30"/>
     <use x="1413.085938" xlink:href="#DejaVuSans-30"/>
     <use x="1476.708984" xlink:href="#DejaVuSans-30"/>
    </g>
   </g>
  </g>
 </g>
 <defs>
  <clipPath id="p39f7b8e9cc">
   <rect height="270.04" width="277.048" x="56.12" y="24.84"/>
  </clipPath>
 </defs>
</svg>
