<?xml version="1.0" encoding="utf-8" standalone="no"?>
<!DOCTYPE svg PUBLIC "-//W3C//DTD SVG 1.1//EN"
  "http://www.w3.org/Graphics/SVG/1.1/DTD/svg11.dtd">
<!-- Created with matplotlib (http://matplotlib.org/) -->
<svg height="345.6pt" version="1.1" viewBox="0 0 460.8 345.6" width="460.8pt" xmlns="http://www.w3.org/2000/svg" xmlns:xlink="http://www.w3.org/1999/xlink">
 <defs>
  <style type="text/css">
*{stroke-linecap:butt;stroke-linejoin:round;}
  </style>
 </defs>
 <g id="figure_1">
  <g id="patch_1">
   <path d="M 0 345.6 
L 460.8 345.6 
L 460.8 0 
L 0 0 
z
" style="fill:#ffffff;"/>
  </g>
  <g id="axes_1">
   <g id="patch_2">
    <path d="M 56.12 294.88 
L 333.168 294.88 
L 333.168 24.84 
L 56.12 24.84 
z
" style="fill:#ffffff;"/>
   </g>
   <g id="matplotlib.axis_1">
    <g id="xtick_1">
     <g id="line2d_1">
      <path clip-path="url(#p3c69d13f96)" d="M 56.12 294.88 
L 56.12 24.84 
" style="fill:none;stroke:#b0b0b0;stroke-linecap:square;stroke-width:0.8;"/>
     </g>
     <g id="line2d_2">
      <defs>
       <path d="M 0 0 
L 0 3.5 
" id="m53974947d9" style="stroke:#000000;stroke-width:0.8;"/>
      </defs>
      <g>
       <use style="stroke:#000000;stroke-width:0.8;" x="56.12" xlink:href="#m53974947d9" y="294.88"/>
      </g>
     </g>
     <g id="text_1">
      <!-- 0 -->
      <defs>
       <path d="M 31.78125 66.40625 
Q 24.171875 66.40625 20.328125 58.90625 
Q 16.5 51.421875 16.5 36.375 
Q 16.5 21.390625 20.328125 13.890625 
Q 24.171875 6.390625 31.78125 6.390625 
Q 39.453125 6.390625 43.28125 13.890625 
Q 47.125 21.390625 47.125 36.375 
Q 47.125 51.421875 43.28125 58.90625 
Q 39.453125 66.40625 31.78125 66.40625 
z
M 31.78125 74.21875 
Q 44.046875 74.21875 50.515625 64.515625 
Q 56.984375 54.828125 56.984375 36.375 
Q 56.984375 17.96875 50.515625 8.265625 
Q 44.046875 -1.421875 31.78125 -1.421875 
Q 19.53125 -1.421875 13.0625 8.265625 
Q 6.59375 17.96875 6.59375 36.375 
Q 6.59375 54.828125 13.0625 64.515625 
Q 19.53125 74.21875 31.78125 74.21875 
z
" id="DejaVuSans-30"/>
      </defs>
      <g transform="translate(49.7575 317.076875)scale(0.2 -0.2)">
       <use xlink:href="#DejaVuSans-30"/>
      </g>
     </g>
    </g>
    <g id="xtick_2">
     <g id="line2d_3">
      <path clip-path="url(#p3c69d13f96)" d="M 135.276571 294.88 
L 135.276571 24.84 
" style="fill:none;stroke:#b0b0b0;stroke-linecap:square;stroke-width:0.8;"/>
     </g>
     <g id="line2d_4">
      <g>
       <use style="stroke:#000000;stroke-width:0.8;" x="135.276571" xlink:href="#m53974947d9" y="294.88"/>
      </g>
     </g>
     <g id="text_2">
      <!-- 2 -->
      <defs>
       <path d="M 19.1875 8.296875 
L 53.609375 8.296875 
L 53.609375 0 
L 7.328125 0 
L 7.328125 8.296875 
Q 12.9375 14.109375 22.625 23.890625 
Q 32.328125 33.6875 34.8125 36.53125 
Q 39.546875 41.84375 41.421875 45.53125 
Q 43.3125 49.21875 43.3125 52.78125 
Q 43.3125 58.59375 39.234375 62.25 
Q 35.15625 65.921875 28.609375 65.921875 
Q 23.96875 65.921875 18.8125 64.3125 
Q 13.671875 62.703125 7.8125 59.421875 
L 7.8125 69.390625 
Q 13.765625 71.78125 18.9375 73 
Q 24.125 74.21875 28.421875 74.21875 
Q 39.75 74.21875 46.484375 68.546875 
Q 53.21875 62.890625 53.21875 53.421875 
Q 53.21875 48.921875 51.53125 44.890625 
Q 49.859375 40.875 45.40625 35.40625 
Q 44.1875 33.984375 37.640625 27.21875 
Q 31.109375 20.453125 19.1875 8.296875 
z
" id="DejaVuSans-32"/>
      </defs>
      <g transform="translate(128.914071 317.076875)scale(0.2 -0.2)">
       <use xlink:href="#DejaVuSans-32"/>
      </g>
     </g>
    </g>
    <g id="xtick_3">
     <g id="line2d_5">
      <path clip-path="url(#p3c69d13f96)" d="M 214.433143 294.88 
L 214.433143 24.84 
" style="fill:none;stroke:#b0b0b0;stroke-linecap:square;stroke-width:0.8;"/>
     </g>
     <g id="line2d_6">
      <g>
       <use style="stroke:#000000;stroke-width:0.8;" x="214.433143" xlink:href="#m53974947d9" y="294.88"/>
      </g>
     </g>
     <g id="text_3">
      <!-- 4 -->
      <defs>
       <path d="M 37.796875 64.3125 
L 12.890625 25.390625 
L 37.796875 25.390625 
z
M 35.203125 72.90625 
L 47.609375 72.90625 
L 47.609375 25.390625 
L 58.015625 25.390625 
L 58.015625 17.1875 
L 47.609375 17.1875 
L 47.609375 0 
L 37.796875 0 
L 37.796875 17.1875 
L 4.890625 17.1875 
L 4.890625 26.703125 
z
" id="DejaVuSans-34"/>
      </defs>
      <g transform="translate(208.070643 317.076875)scale(0.2 -0.2)">
       <use xlink:href="#DejaVuSans-34"/>
      </g>
     </g>
    </g>
    <g id="xtick_4">
     <g id="line2d_7">
      <path clip-path="url(#p3c69d13f96)" d="M 293.589714 294.88 
L 293.589714 24.84 
" style="fill:none;stroke:#b0b0b0;stroke-linecap:square;stroke-width:0.8;"/>
     </g>
     <g id="line2d_8">
      <g>
       <use style="stroke:#000000;stroke-width:0.8;" x="293.589714" xlink:href="#m53974947d9" y="294.88"/>
      </g>
     </g>
     <g id="text_4">
      <!-- 6 -->
      <defs>
       <path d="M 33.015625 40.375 
Q 26.375 40.375 22.484375 35.828125 
Q 18.609375 31.296875 18.609375 23.390625 
Q 18.609375 15.53125 22.484375 10.953125 
Q 26.375 6.390625 33.015625 6.390625 
Q 39.65625 6.390625 43.53125 10.953125 
Q 47.40625 15.53125 47.40625 23.390625 
Q 47.40625 31.296875 43.53125 35.828125 
Q 39.65625 40.375 33.015625 40.375 
z
M 52.59375 71.296875 
L 52.59375 62.3125 
Q 48.875 64.0625 45.09375 64.984375 
Q 41.3125 65.921875 37.59375 65.921875 
Q 27.828125 65.921875 22.671875 59.328125 
Q 17.53125 52.734375 16.796875 39.40625 
Q 19.671875 43.65625 24.015625 45.921875 
Q 28.375 48.1875 33.59375 48.1875 
Q 44.578125 48.1875 50.953125 41.515625 
Q 57.328125 34.859375 57.328125 23.390625 
Q 57.328125 12.15625 50.6875 5.359375 
Q 44.046875 -1.421875 33.015625 -1.421875 
Q 20.359375 -1.421875 13.671875 8.265625 
Q 6.984375 17.96875 6.984375 36.375 
Q 6.984375 53.65625 15.1875 63.9375 
Q 23.390625 74.21875 37.203125 74.21875 
Q 40.921875 74.21875 44.703125 73.484375 
Q 48.484375 72.75 52.59375 71.296875 
z
" id="DejaVuSans-36"/>
      </defs>
      <g transform="translate(287.227214 317.076875)scale(0.2 -0.2)">
       <use xlink:href="#DejaVuSans-36"/>
      </g>
     </g>
    </g>
    <g id="xtick_5">
     <g id="line2d_9">
      <path clip-path="url(#p3c69d13f96)" d="M 56.12 294.88 
L 56.12 24.84 
" style="fill:none;stroke:#b0b0b0;stroke-linecap:square;stroke-width:0.8;"/>
     </g>
     <g id="line2d_10">
      <defs>
       <path d="M 0 0 
L 0 2 
" id="m44e920498c" style="stroke:#000000;stroke-width:0.6;"/>
      </defs>
      <g>
       <use style="stroke:#000000;stroke-width:0.6;" x="56.12" xlink:href="#m44e920498c" y="294.88"/>
      </g>
     </g>
    </g>
    <g id="xtick_6">
     <g id="line2d_11">
      <path clip-path="url(#p3c69d13f96)" d="M 95.698286 294.88 
L 95.698286 24.84 
" style="fill:none;stroke:#b0b0b0;stroke-linecap:square;stroke-width:0.8;"/>
     </g>
     <g id="line2d_12">
      <g>
       <use style="stroke:#000000;stroke-width:0.6;" x="95.698286" xlink:href="#m44e920498c" y="294.88"/>
      </g>
     </g>
    </g>
    <g id="xtick_7">
     <g id="line2d_13">
      <path clip-path="url(#p3c69d13f96)" d="M 135.276571 294.88 
L 135.276571 24.84 
" style="fill:none;stroke:#b0b0b0;stroke-linecap:square;stroke-width:0.8;"/>
     </g>
     <g id="line2d_14">
      <g>
       <use style="stroke:#000000;stroke-width:0.6;" x="135.276571" xlink:href="#m44e920498c" y="294.88"/>
      </g>
     </g>
    </g>
    <g id="xtick_8">
     <g id="line2d_15">
      <path clip-path="url(#p3c69d13f96)" d="M 174.854857 294.88 
L 174.854857 24.84 
" style="fill:none;stroke:#b0b0b0;stroke-linecap:square;stroke-width:0.8;"/>
     </g>
     <g id="line2d_16">
      <g>
       <use style="stroke:#000000;stroke-width:0.6;" x="174.854857" xlink:href="#m44e920498c" y="294.88"/>
      </g>
     </g>
    </g>
    <g id="xtick_9">
     <g id="line2d_17">
      <path clip-path="url(#p3c69d13f96)" d="M 214.433143 294.88 
L 214.433143 24.84 
" style="fill:none;stroke:#b0b0b0;stroke-linecap:square;stroke-width:0.8;"/>
     </g>
     <g id="line2d_18">
      <g>
       <use style="stroke:#000000;stroke-width:0.6;" x="214.433143" xlink:href="#m44e920498c" y="294.88"/>
      </g>
     </g>
    </g>
    <g id="xtick_10">
     <g id="line2d_19">
      <path clip-path="url(#p3c69d13f96)" d="M 254.011429 294.88 
L 254.011429 24.84 
" style="fill:none;stroke:#b0b0b0;stroke-linecap:square;stroke-width:0.8;"/>
     </g>
     <g id="line2d_20">
      <g>
       <use style="stroke:#000000;stroke-width:0.6;" x="254.011429" xlink:href="#m44e920498c" y="294.88"/>
      </g>
     </g>
    </g>
    <g id="xtick_11">
     <g id="line2d_21">
      <path clip-path="url(#p3c69d13f96)" d="M 293.589714 294.88 
L 293.589714 24.84 
" style="fill:none;stroke:#b0b0b0;stroke-linecap:square;stroke-width:0.8;"/>
     </g>
     <g id="line2d_22">
      <g>
       <use style="stroke:#000000;stroke-width:0.6;" x="293.589714" xlink:href="#m44e920498c" y="294.88"/>
      </g>
     </g>
    </g>
    <g id="xtick_12">
     <g id="line2d_23">
      <path clip-path="url(#p3c69d13f96)" d="M 333.168 294.88 
L 333.168 24.84 
" style="fill:none;stroke:#b0b0b0;stroke-linecap:square;stroke-width:0.8;"/>
     </g>
     <g id="line2d_24">
      <g>
       <use style="stroke:#000000;stroke-width:0.6;" x="333.168" xlink:href="#m44e920498c" y="294.88"/>
      </g>
     </g>
    </g>
    <g id="text_5">
     <!-- log10(# f-evals / dimension) -->
     <defs>
      <path d="M 9.421875 75.984375 
L 18.40625 75.984375 
L 18.40625 0 
L 9.421875 0 
z
" id="DejaVuSans-6c"/>
      <path d="M 30.609375 48.390625 
Q 23.390625 48.390625 19.1875 42.75 
Q 14.984375 37.109375 14.984375 27.296875 
Q 14.984375 17.484375 19.15625 11.84375 
Q 23.34375 6.203125 30.609375 6.203125 
Q 37.796875 6.203125 41.984375 11.859375 
Q 46.1875 17.53125 46.1875 27.296875 
Q 46.1875 37.015625 41.984375 42.703125 
Q 37.796875 48.390625 30.609375 48.390625 
z
M 30.609375 56 
Q 42.328125 56 49.015625 48.375 
Q 55.71875 40.765625 55.71875 27.296875 
Q 55.71875 13.875 49.015625 6.21875 
Q 42.328125 -1.421875 30.609375 -1.421875 
Q 18.84375 -1.421875 12.171875 6.21875 
Q 5.515625 13.875 5.515625 27.296875 
Q 5.515625 40.765625 12.171875 48.375 
Q 18.84375 56 30.609375 56 
z
" id="DejaVuSans-6f"/>
      <path d="M 45.40625 27.984375 
Q 45.40625 37.75 41.375 43.109375 
Q 37.359375 48.484375 30.078125 48.484375 
Q 22.859375 48.484375 18.828125 43.109375 
Q 14.796875 37.75 14.796875 27.984375 
Q 14.796875 18.265625 18.828125 12.890625 
Q 22.859375 7.515625 30.078125 7.515625 
Q 37.359375 7.515625 41.375 12.890625 
Q 45.40625 18.265625 45.40625 27.984375 
z
M 54.390625 6.78125 
Q 54.390625 -7.171875 48.1875 -13.984375 
Q 42 -20.796875 29.203125 -20.796875 
Q 24.46875 -20.796875 20.265625 -20.09375 
Q 16.0625 -19.390625 12.109375 -17.921875 
L 12.109375 -9.1875 
Q 16.0625 -11.328125 19.921875 -12.34375 
Q 23.78125 -13.375 27.78125 -13.375 
Q 36.625 -13.375 41.015625 -8.765625 
Q 45.40625 -4.15625 45.40625 5.171875 
L 45.40625 9.625 
Q 42.625 4.78125 38.28125 2.390625 
Q 33.9375 0 27.875 0 
Q 17.828125 0 11.671875 7.65625 
Q 5.515625 15.328125 5.515625 27.984375 
Q 5.515625 40.671875 11.671875 48.328125 
Q 17.828125 56 27.875 56 
Q 33.9375 56 38.28125 53.609375 
Q 42.625 51.21875 45.40625 46.390625 
L 45.40625 54.6875 
L 54.390625 54.6875 
z
" id="DejaVuSans-67"/>
      <path d="M 12.40625 8.296875 
L 28.515625 8.296875 
L 28.515625 63.921875 
L 10.984375 60.40625 
L 10.984375 69.390625 
L 28.421875 72.90625 
L 38.28125 72.90625 
L 38.28125 8.296875 
L 54.390625 8.296875 
L 54.390625 0 
L 12.40625 0 
z
" id="DejaVuSans-31"/>
      <path d="M 31 75.875 
Q 24.46875 64.65625 21.28125 53.65625 
Q 18.109375 42.671875 18.109375 31.390625 
Q 18.109375 20.125 21.3125 9.0625 
Q 24.515625 -2 31 -13.1875 
L 23.1875 -13.1875 
Q 15.875 -1.703125 12.234375 9.375 
Q 8.59375 20.453125 8.59375 31.390625 
Q 8.59375 42.28125 12.203125 53.3125 
Q 15.828125 64.359375 23.1875 75.875 
z
" id="DejaVuSans-28"/>
      <path d="M 51.125 44 
L 36.921875 44 
L 32.8125 27.6875 
L 47.125 27.6875 
z
M 43.796875 71.78125 
L 38.71875 51.515625 
L 52.984375 51.515625 
L 58.109375 71.78125 
L 65.921875 71.78125 
L 60.890625 51.515625 
L 76.125 51.515625 
L 76.125 44 
L 58.984375 44 
L 54.984375 27.6875 
L 70.515625 27.6875 
L 70.515625 20.21875 
L 53.078125 20.21875 
L 48 0 
L 40.1875 0 
L 45.21875 20.21875 
L 30.90625 20.21875 
L 25.875 0 
L 18.015625 0 
L 23.09375 20.21875 
L 7.71875 20.21875 
L 7.71875 27.6875 
L 24.90625 27.6875 
L 29 44 
L 13.28125 44 
L 13.28125 51.515625 
L 30.90625 51.515625 
L 35.890625 71.78125 
z
" id="DejaVuSans-23"/>
      <path id="DejaVuSans-20"/>
      <path d="M 37.109375 75.984375 
L 37.109375 68.5 
L 28.515625 68.5 
Q 23.6875 68.5 21.796875 66.546875 
Q 19.921875 64.59375 19.921875 59.515625 
L 19.921875 54.6875 
L 34.71875 54.6875 
L 34.71875 47.703125 
L 19.921875 47.703125 
L 19.921875 0 
L 10.890625 0 
L 10.890625 47.703125 
L 2.296875 47.703125 
L 2.296875 54.6875 
L 10.890625 54.6875 
L 10.890625 58.5 
Q 10.890625 67.625 15.140625 71.796875 
Q 19.390625 75.984375 28.609375 75.984375 
z
" id="DejaVuSans-66"/>
      <path d="M 4.890625 31.390625 
L 31.203125 31.390625 
L 31.203125 23.390625 
L 4.890625 23.390625 
z
" id="DejaVuSans-2d"/>
      <path d="M 56.203125 29.59375 
L 56.203125 25.203125 
L 14.890625 25.203125 
Q 15.484375 15.921875 20.484375 11.0625 
Q 25.484375 6.203125 34.421875 6.203125 
Q 39.59375 6.203125 44.453125 7.46875 
Q 49.3125 8.734375 54.109375 11.28125 
L 54.109375 2.78125 
Q 49.265625 0.734375 44.1875 -0.34375 
Q 39.109375 -1.421875 33.890625 -1.421875 
Q 20.796875 -1.421875 13.15625 6.1875 
Q 5.515625 13.8125 5.515625 26.8125 
Q 5.515625 40.234375 12.765625 48.109375 
Q 20.015625 56 32.328125 56 
Q 43.359375 56 49.78125 48.890625 
Q 56.203125 41.796875 56.203125 29.59375 
z
M 47.21875 32.234375 
Q 47.125 39.59375 43.09375 43.984375 
Q 39.0625 48.390625 32.421875 48.390625 
Q 24.90625 48.390625 20.390625 44.140625 
Q 15.875 39.890625 15.1875 32.171875 
z
" id="DejaVuSans-65"/>
      <path d="M 2.984375 54.6875 
L 12.5 54.6875 
L 29.59375 8.796875 
L 46.6875 54.6875 
L 56.203125 54.6875 
L 35.6875 0 
L 23.484375 0 
z
" id="DejaVuSans-76"/>
      <path d="M 34.28125 27.484375 
Q 23.390625 27.484375 19.1875 25 
Q 14.984375 22.515625 14.984375 16.5 
Q 14.984375 11.71875 18.140625 8.90625 
Q 21.296875 6.109375 26.703125 6.109375 
Q 34.1875 6.109375 38.703125 11.40625 
Q 43.21875 16.703125 43.21875 25.484375 
L 43.21875 27.484375 
z
M 52.203125 31.203125 
L 52.203125 0 
L 43.21875 0 
L 43.21875 8.296875 
Q 40.140625 3.328125 35.546875 0.953125 
Q 30.953125 -1.421875 24.3125 -1.421875 
Q 15.921875 -1.421875 10.953125 3.296875 
Q 6 8.015625 6 15.921875 
Q 6 25.140625 12.171875 29.828125 
Q 18.359375 34.515625 30.609375 34.515625 
L 43.21875 34.515625 
L 43.21875 35.40625 
Q 43.21875 41.609375 39.140625 45 
Q 35.0625 48.390625 27.6875 48.390625 
Q 23 48.390625 18.546875 47.265625 
Q 14.109375 46.140625 10.015625 43.890625 
L 10.015625 52.203125 
Q 14.9375 54.109375 19.578125 55.046875 
Q 24.21875 56 28.609375 56 
Q 40.484375 56 46.34375 49.84375 
Q 52.203125 43.703125 52.203125 31.203125 
z
" id="DejaVuSans-61"/>
      <path d="M 44.28125 53.078125 
L 44.28125 44.578125 
Q 40.484375 46.53125 36.375 47.5 
Q 32.28125 48.484375 27.875 48.484375 
Q 21.1875 48.484375 17.84375 46.4375 
Q 14.5 44.390625 14.5 40.28125 
Q 14.5 37.15625 16.890625 35.375 
Q 19.28125 33.59375 26.515625 31.984375 
L 29.59375 31.296875 
Q 39.15625 29.25 43.1875 25.515625 
Q 47.21875 21.78125 47.21875 15.09375 
Q 47.21875 7.46875 41.1875 3.015625 
Q 35.15625 -1.421875 24.609375 -1.421875 
Q 20.21875 -1.421875 15.453125 -0.5625 
Q 10.6875 0.296875 5.421875 2 
L 5.421875 11.28125 
Q 10.40625 8.6875 15.234375 7.390625 
Q 20.0625 6.109375 24.8125 6.109375 
Q 31.15625 6.109375 34.5625 8.28125 
Q 37.984375 10.453125 37.984375 14.40625 
Q 37.984375 18.0625 35.515625 20.015625 
Q 33.0625 21.96875 24.703125 23.78125 
L 21.578125 24.515625 
Q 13.234375 26.265625 9.515625 29.90625 
Q 5.8125 33.546875 5.8125 39.890625 
Q 5.8125 47.609375 11.28125 51.796875 
Q 16.75 56 26.8125 56 
Q 31.78125 56 36.171875 55.265625 
Q 40.578125 54.546875 44.28125 53.078125 
z
" id="DejaVuSans-73"/>
      <path d="M 25.390625 72.90625 
L 33.6875 72.90625 
L 8.296875 -9.28125 
L 0 -9.28125 
z
" id="DejaVuSans-2f"/>
      <path d="M 45.40625 46.390625 
L 45.40625 75.984375 
L 54.390625 75.984375 
L 54.390625 0 
L 45.40625 0 
L 45.40625 8.203125 
Q 42.578125 3.328125 38.25 0.953125 
Q 33.9375 -1.421875 27.875 -1.421875 
Q 17.96875 -1.421875 11.734375 6.484375 
Q 5.515625 14.40625 5.515625 27.296875 
Q 5.515625 40.1875 11.734375 48.09375 
Q 17.96875 56 27.875 56 
Q 33.9375 56 38.25 53.625 
Q 42.578125 51.265625 45.40625 46.390625 
z
M 14.796875 27.296875 
Q 14.796875 17.390625 18.875 11.75 
Q 22.953125 6.109375 30.078125 6.109375 
Q 37.203125 6.109375 41.296875 11.75 
Q 45.40625 17.390625 45.40625 27.296875 
Q 45.40625 37.203125 41.296875 42.84375 
Q 37.203125 48.484375 30.078125 48.484375 
Q 22.953125 48.484375 18.875 42.84375 
Q 14.796875 37.203125 14.796875 27.296875 
z
" id="DejaVuSans-64"/>
      <path d="M 9.421875 54.6875 
L 18.40625 54.6875 
L 18.40625 0 
L 9.421875 0 
z
M 9.421875 75.984375 
L 18.40625 75.984375 
L 18.40625 64.59375 
L 9.421875 64.59375 
z
" id="DejaVuSans-69"/>
      <path d="M 52 44.1875 
Q 55.375 50.25 60.0625 53.125 
Q 64.75 56 71.09375 56 
Q 79.640625 56 84.28125 50.015625 
Q 88.921875 44.046875 88.921875 33.015625 
L 88.921875 0 
L 79.890625 0 
L 79.890625 32.71875 
Q 79.890625 40.578125 77.09375 44.375 
Q 74.3125 48.1875 68.609375 48.1875 
Q 61.625 48.1875 57.5625 43.546875 
Q 53.515625 38.921875 53.515625 30.90625 
L 53.515625 0 
L 44.484375 0 
L 44.484375 32.71875 
Q 44.484375 40.625 41.703125 44.40625 
Q 38.921875 48.1875 33.109375 48.1875 
Q 26.21875 48.1875 22.15625 43.53125 
Q 18.109375 38.875 18.109375 30.90625 
L 18.109375 0 
L 9.078125 0 
L 9.078125 54.6875 
L 18.109375 54.6875 
L 18.109375 46.1875 
Q 21.1875 51.21875 25.484375 53.609375 
Q 29.78125 56 35.6875 56 
Q 41.65625 56 45.828125 52.96875 
Q 50 49.953125 52 44.1875 
z
" id="DejaVuSans-6d"/>
      <path d="M 54.890625 33.015625 
L 54.890625 0 
L 45.90625 0 
L 45.90625 32.71875 
Q 45.90625 40.484375 42.875 44.328125 
Q 39.84375 48.1875 33.796875 48.1875 
Q 26.515625 48.1875 22.3125 43.546875 
Q 18.109375 38.921875 18.109375 30.90625 
L 18.109375 0 
L 9.078125 0 
L 9.078125 54.6875 
L 18.109375 54.6875 
L 18.109375 46.1875 
Q 21.34375 51.125 25.703125 53.5625 
Q 30.078125 56 35.796875 56 
Q 45.21875 56 50.046875 50.171875 
Q 54.890625 44.34375 54.890625 33.015625 
z
" id="DejaVuSans-6e"/>
      <path d="M 8.015625 75.875 
L 15.828125 75.875 
Q 23.140625 64.359375 26.78125 53.3125 
Q 30.421875 42.28125 30.421875 31.390625 
Q 30.421875 20.453125 26.78125 9.375 
Q 23.140625 -1.703125 15.828125 -13.1875 
L 8.015625 -13.1875 
Q 14.5 -2 17.703125 9.0625 
Q 20.90625 20.125 20.90625 31.390625 
Q 20.90625 42.671875 17.703125 53.65625 
Q 14.5 64.65625 8.015625 75.875 
z
" id="DejaVuSans-29"/>
     </defs>
     <g transform="translate(73.803219 338.153594)scale(0.17 -0.17)">
      <use xlink:href="#DejaVuSans-6c"/>
      <use x="27.783203" xlink:href="#DejaVuSans-6f"/>
      <use x="88.964844" xlink:href="#DejaVuSans-67"/>
      <use x="152.441406" xlink:href="#DejaVuSans-31"/>
      <use x="216.064453" xlink:href="#DejaVuSans-30"/>
      <use x="279.6875" xlink:href="#DejaVuSans-28"/>
      <use x="318.701172" xlink:href="#DejaVuSans-23"/>
      <use x="402.490234" xlink:href="#DejaVuSans-20"/>
      <use x="434.277344" xlink:href="#DejaVuSans-66"/>
      <use x="469.404297" xlink:href="#DejaVuSans-2d"/>
      <use x="505.488281" xlink:href="#DejaVuSans-65"/>
      <use x="567.011719" xlink:href="#DejaVuSans-76"/>
      <use x="626.191406" xlink:href="#DejaVuSans-61"/>
      <use x="687.470703" xlink:href="#DejaVuSans-6c"/>
      <use x="715.253906" xlink:href="#DejaVuSans-73"/>
      <use x="767.353516" xlink:href="#DejaVuSans-20"/>
      <use x="799.140625" xlink:href="#DejaVuSans-2f"/>
      <use x="832.832031" xlink:href="#DejaVuSans-20"/>
      <use x="864.619141" xlink:href="#DejaVuSans-64"/>
      <use x="928.095703" xlink:href="#DejaVuSans-69"/>
      <use x="955.878906" xlink:href="#DejaVuSans-6d"/>
      <use x="1053.291016" xlink:href="#DejaVuSans-65"/>
      <use x="1114.814453" xlink:href="#DejaVuSans-6e"/>
      <use x="1178.193359" xlink:href="#DejaVuSans-73"/>
      <use x="1230.292969" xlink:href="#DejaVuSans-69"/>
      <use x="1258.076172" xlink:href="#DejaVuSans-6f"/>
      <use x="1319.257812" xlink:href="#DejaVuSans-6e"/>
      <use x="1382.636719" xlink:href="#DejaVuSans-29"/>
     </g>
    </g>
   </g>
   <g id="matplotlib.axis_2">
    <g id="ytick_1">
     <g id="line2d_25">
      <path clip-path="url(#p3c69d13f96)" d="M 56.12 294.88 
L 333.168 294.88 
" style="fill:none;stroke:#b0b0b0;stroke-linecap:square;stroke-width:0.8;"/>
     </g>
     <g id="line2d_26">
      <defs>
       <path d="M 0 0 
L -3.5 0 
" id="m9d860129e2" style="stroke:#000000;stroke-width:0.8;"/>
      </defs>
      <g>
       <use style="stroke:#000000;stroke-width:0.8;" x="56.12" xlink:href="#m9d860129e2" y="294.88"/>
      </g>
     </g>
     <g id="text_6">
      <!-- 0.0 -->
      <defs>
       <path d="M 10.6875 12.40625 
L 21 12.40625 
L 21 0 
L 10.6875 0 
z
" id="DejaVuSans-2e"/>
      </defs>
      <g transform="translate(23.675 300.95875)scale(0.16 -0.16)">
       <use xlink:href="#DejaVuSans-30"/>
       <use x="63.623047" xlink:href="#DejaVuSans-2e"/>
       <use x="95.410156" xlink:href="#DejaVuSans-30"/>
      </g>
     </g>
    </g>
    <g id="ytick_2">
     <g id="line2d_27">
      <path clip-path="url(#p3c69d13f96)" d="M 56.12 241.406733 
L 333.168 241.406733 
" style="fill:none;stroke:#b0b0b0;stroke-linecap:square;stroke-width:0.8;"/>
     </g>
     <g id="line2d_28">
      <g>
       <use style="stroke:#000000;stroke-width:0.8;" x="56.12" xlink:href="#m9d860129e2" y="241.406733"/>
      </g>
     </g>
     <g id="text_7">
      <!-- 0.2 -->
      <g transform="translate(23.675 247.485483)scale(0.16 -0.16)">
       <use xlink:href="#DejaVuSans-30"/>
       <use x="63.623047" xlink:href="#DejaVuSans-2e"/>
       <use x="95.410156" xlink:href="#DejaVuSans-32"/>
      </g>
     </g>
    </g>
    <g id="ytick_3">
     <g id="line2d_29">
      <path clip-path="url(#p3c69d13f96)" d="M 56.12 187.933465 
L 333.168 187.933465 
" style="fill:none;stroke:#b0b0b0;stroke-linecap:square;stroke-width:0.8;"/>
     </g>
     <g id="line2d_30">
      <g>
       <use style="stroke:#000000;stroke-width:0.8;" x="56.12" xlink:href="#m9d860129e2" y="187.933465"/>
      </g>
     </g>
     <g id="text_8">
      <!-- 0.4 -->
      <g transform="translate(23.675 194.012215)scale(0.16 -0.16)">
       <use xlink:href="#DejaVuSans-30"/>
       <use x="63.623047" xlink:href="#DejaVuSans-2e"/>
       <use x="95.410156" xlink:href="#DejaVuSans-34"/>
      </g>
     </g>
    </g>
    <g id="ytick_4">
     <g id="line2d_31">
      <path clip-path="url(#p3c69d13f96)" d="M 56.12 134.460198 
L 333.168 134.460198 
" style="fill:none;stroke:#b0b0b0;stroke-linecap:square;stroke-width:0.8;"/>
     </g>
     <g id="line2d_32">
      <g>
       <use style="stroke:#000000;stroke-width:0.8;" x="56.12" xlink:href="#m9d860129e2" y="134.460198"/>
      </g>
     </g>
     <g id="text_9">
      <!-- 0.6 -->
      <g transform="translate(23.675 140.538948)scale(0.16 -0.16)">
       <use xlink:href="#DejaVuSans-30"/>
       <use x="63.623047" xlink:href="#DejaVuSans-2e"/>
       <use x="95.410156" xlink:href="#DejaVuSans-36"/>
      </g>
     </g>
    </g>
    <g id="ytick_5">
     <g id="line2d_33">
      <path clip-path="url(#p3c69d13f96)" d="M 56.12 80.986931 
L 333.168 80.986931 
" style="fill:none;stroke:#b0b0b0;stroke-linecap:square;stroke-width:0.8;"/>
     </g>
     <g id="line2d_34">
      <g>
       <use style="stroke:#000000;stroke-width:0.8;" x="56.12" xlink:href="#m9d860129e2" y="80.986931"/>
      </g>
     </g>
     <g id="text_10">
      <!-- 0.8 -->
      <defs>
       <path d="M 31.78125 34.625 
Q 24.75 34.625 20.71875 30.859375 
Q 16.703125 27.09375 16.703125 20.515625 
Q 16.703125 13.921875 20.71875 10.15625 
Q 24.75 6.390625 31.78125 6.390625 
Q 38.8125 6.390625 42.859375 10.171875 
Q 46.921875 13.96875 46.921875 20.515625 
Q 46.921875 27.09375 42.890625 30.859375 
Q 38.875 34.625 31.78125 34.625 
z
M 21.921875 38.8125 
Q 15.578125 40.375 12.03125 44.71875 
Q 8.5 49.078125 8.5 55.328125 
Q 8.5 64.0625 14.71875 69.140625 
Q 20.953125 74.21875 31.78125 74.21875 
Q 42.671875 74.21875 48.875 69.140625 
Q 55.078125 64.0625 55.078125 55.328125 
Q 55.078125 49.078125 51.53125 44.71875 
Q 48 40.375 41.703125 38.8125 
Q 48.828125 37.15625 52.796875 32.3125 
Q 56.78125 27.484375 56.78125 20.515625 
Q 56.78125 9.90625 50.3125 4.234375 
Q 43.84375 -1.421875 31.78125 -1.421875 
Q 19.734375 -1.421875 13.25 4.234375 
Q 6.78125 9.90625 6.78125 20.515625 
Q 6.78125 27.484375 10.78125 32.3125 
Q 14.796875 37.15625 21.921875 38.8125 
z
M 18.3125 54.390625 
Q 18.3125 48.734375 21.84375 45.5625 
Q 25.390625 42.390625 31.78125 42.390625 
Q 38.140625 42.390625 41.71875 45.5625 
Q 45.3125 48.734375 45.3125 54.390625 
Q 45.3125 60.0625 41.71875 63.234375 
Q 38.140625 66.40625 31.78125 66.40625 
Q 25.390625 66.40625 21.84375 63.234375 
Q 18.3125 60.0625 18.3125 54.390625 
z
" id="DejaVuSans-38"/>
      </defs>
      <g transform="translate(23.675 87.065681)scale(0.16 -0.16)">
       <use xlink:href="#DejaVuSans-30"/>
       <use x="63.623047" xlink:href="#DejaVuSans-2e"/>
       <use x="95.410156" xlink:href="#DejaVuSans-38"/>
      </g>
     </g>
    </g>
    <g id="ytick_6">
     <g id="line2d_35">
      <path clip-path="url(#p3c69d13f96)" d="M 56.12 27.513663 
L 333.168 27.513663 
" style="fill:none;stroke:#b0b0b0;stroke-linecap:square;stroke-width:0.8;"/>
     </g>
     <g id="line2d_36">
      <g>
       <use style="stroke:#000000;stroke-width:0.8;" x="56.12" xlink:href="#m9d860129e2" y="27.513663"/>
      </g>
     </g>
     <g id="text_11">
      <!-- 1.0 -->
      <g transform="translate(23.675 33.592413)scale(0.16 -0.16)">
       <use xlink:href="#DejaVuSans-31"/>
       <use x="63.623047" xlink:href="#DejaVuSans-2e"/>
       <use x="95.410156" xlink:href="#DejaVuSans-30"/>
      </g>
     </g>
    </g>
    <g id="text_12">
     <!-- Fraction of function,target pairs -->
     <defs>
      <path d="M 9.8125 72.90625 
L 51.703125 72.90625 
L 51.703125 64.59375 
L 19.671875 64.59375 
L 19.671875 43.109375 
L 48.578125 43.109375 
L 48.578125 34.8125 
L 19.671875 34.8125 
L 19.671875 0 
L 9.8125 0 
z
" id="DejaVuSans-46"/>
      <path d="M 41.109375 46.296875 
Q 39.59375 47.171875 37.8125 47.578125 
Q 36.03125 48 33.890625 48 
Q 26.265625 48 22.1875 43.046875 
Q 18.109375 38.09375 18.109375 28.8125 
L 18.109375 0 
L 9.078125 0 
L 9.078125 54.6875 
L 18.109375 54.6875 
L 18.109375 46.1875 
Q 20.953125 51.171875 25.484375 53.578125 
Q 30.03125 56 36.53125 56 
Q 37.453125 56 38.578125 55.875 
Q 39.703125 55.765625 41.0625 55.515625 
z
" id="DejaVuSans-72"/>
      <path d="M 48.78125 52.59375 
L 48.78125 44.1875 
Q 44.96875 46.296875 41.140625 47.34375 
Q 37.3125 48.390625 33.40625 48.390625 
Q 24.65625 48.390625 19.8125 42.84375 
Q 14.984375 37.3125 14.984375 27.296875 
Q 14.984375 17.28125 19.8125 11.734375 
Q 24.65625 6.203125 33.40625 6.203125 
Q 37.3125 6.203125 41.140625 7.25 
Q 44.96875 8.296875 48.78125 10.40625 
L 48.78125 2.09375 
Q 45.015625 0.34375 40.984375 -0.53125 
Q 36.96875 -1.421875 32.421875 -1.421875 
Q 20.0625 -1.421875 12.78125 6.34375 
Q 5.515625 14.109375 5.515625 27.296875 
Q 5.515625 40.671875 12.859375 48.328125 
Q 20.21875 56 33.015625 56 
Q 37.15625 56 41.109375 55.140625 
Q 45.0625 54.296875 48.78125 52.59375 
z
" id="DejaVuSans-63"/>
      <path d="M 18.3125 70.21875 
L 18.3125 54.6875 
L 36.8125 54.6875 
L 36.8125 47.703125 
L 18.3125 47.703125 
L 18.3125 18.015625 
Q 18.3125 11.328125 20.140625 9.421875 
Q 21.96875 7.515625 27.59375 7.515625 
L 36.8125 7.515625 
L 36.8125 0 
L 27.59375 0 
Q 17.1875 0 13.234375 3.875 
Q 9.28125 7.765625 9.28125 18.015625 
L 9.28125 47.703125 
L 2.6875 47.703125 
L 2.6875 54.6875 
L 9.28125 54.6875 
L 9.28125 70.21875 
z
" id="DejaVuSans-74"/>
      <path d="M 8.5 21.578125 
L 8.5 54.6875 
L 17.484375 54.6875 
L 17.484375 21.921875 
Q 17.484375 14.15625 20.5 10.265625 
Q 23.53125 6.390625 29.59375 6.390625 
Q 36.859375 6.390625 41.078125 11.03125 
Q 45.3125 15.671875 45.3125 23.6875 
L 45.3125 54.6875 
L 54.296875 54.6875 
L 54.296875 0 
L 45.3125 0 
L 45.3125 8.40625 
Q 42.046875 3.421875 37.71875 1 
Q 33.40625 -1.421875 27.6875 -1.421875 
Q 18.265625 -1.421875 13.375 4.4375 
Q 8.5 10.296875 8.5 21.578125 
z
M 31.109375 56 
z
" id="DejaVuSans-75"/>
      <path d="M 11.71875 12.40625 
L 22.015625 12.40625 
L 22.015625 4 
L 14.015625 -11.625 
L 7.71875 -11.625 
L 11.71875 4 
z
" id="DejaVuSans-2c"/>
      <path d="M 18.109375 8.203125 
L 18.109375 -20.796875 
L 9.078125 -20.796875 
L 9.078125 54.6875 
L 18.109375 54.6875 
L 18.109375 46.390625 
Q 20.953125 51.265625 25.265625 53.625 
Q 29.59375 56 35.59375 56 
Q 45.5625 56 51.78125 48.09375 
Q 58.015625 40.1875 58.015625 27.296875 
Q 58.015625 14.40625 51.78125 6.484375 
Q 45.5625 -1.421875 35.59375 -1.421875 
Q 29.59375 -1.421875 25.265625 0.953125 
Q 20.953125 3.328125 18.109375 8.203125 
z
M 48.6875 27.296875 
Q 48.6875 37.203125 44.609375 42.84375 
Q 40.53125 48.484375 33.40625 48.484375 
Q 26.265625 48.484375 22.1875 42.84375 
Q 18.109375 37.203125 18.109375 27.296875 
Q 18.109375 17.390625 22.1875 11.75 
Q 26.265625 6.109375 33.40625 6.109375 
Q 40.53125 6.109375 44.609375 11.75 
Q 48.6875 17.390625 48.6875 27.296875 
z
" id="DejaVuSans-70"/>
     </defs>
     <g transform="translate(16.139531 294.999375)rotate(-90)scale(0.17 -0.17)">
      <use xlink:href="#DejaVuSans-46"/>
      <use x="57.410156" xlink:href="#DejaVuSans-72"/>
      <use x="98.523438" xlink:href="#DejaVuSans-61"/>
      <use x="159.802734" xlink:href="#DejaVuSans-63"/>
      <use x="214.783203" xlink:href="#DejaVuSans-74"/>
      <use x="253.992188" xlink:href="#DejaVuSans-69"/>
      <use x="281.775391" xlink:href="#DejaVuSans-6f"/>
      <use x="342.957031" xlink:href="#DejaVuSans-6e"/>
      <use x="406.335938" xlink:href="#DejaVuSans-20"/>
      <use x="438.123047" xlink:href="#DejaVuSans-6f"/>
      <use x="499.304688" xlink:href="#DejaVuSans-66"/>
      <use x="534.509766" xlink:href="#DejaVuSans-20"/>
      <use x="566.296875" xlink:href="#DejaVuSans-66"/>
      <use x="601.501953" xlink:href="#DejaVuSans-75"/>
      <use x="664.880859" xlink:href="#DejaVuSans-6e"/>
      <use x="728.259766" xlink:href="#DejaVuSans-63"/>
      <use x="783.240234" xlink:href="#DejaVuSans-74"/>
      <use x="822.449219" xlink:href="#DejaVuSans-69"/>
      <use x="850.232422" xlink:href="#DejaVuSans-6f"/>
      <use x="911.414062" xlink:href="#DejaVuSans-6e"/>
      <use x="974.792969" xlink:href="#DejaVuSans-2c"/>
      <use x="1006.580078" xlink:href="#DejaVuSans-74"/>
      <use x="1045.789062" xlink:href="#DejaVuSans-61"/>
      <use x="1107.068359" xlink:href="#DejaVuSans-72"/>
      <use x="1148.166016" xlink:href="#DejaVuSans-67"/>
      <use x="1211.642578" xlink:href="#DejaVuSans-65"/>
      <use x="1273.166016" xlink:href="#DejaVuSans-74"/>
      <use x="1312.375" xlink:href="#DejaVuSans-20"/>
      <use x="1344.162109" xlink:href="#DejaVuSans-70"/>
      <use x="1407.638672" xlink:href="#DejaVuSans-61"/>
      <use x="1468.917969" xlink:href="#DejaVuSans-69"/>
      <use x="1496.701172" xlink:href="#DejaVuSans-72"/>
      <use x="1537.814453" xlink:href="#DejaVuSans-73"/>
     </g>
    </g>
   </g>
   <g id="line2d_37">
    <defs>
     <path d="M 0 1.5 
C 0.397805 1.5 0.77937 1.341951 1.06066 1.06066 
C 1.341951 0.77937 1.5 0.397805 1.5 0 
C 1.5 -0.397805 1.341951 -0.77937 1.06066 -1.06066 
C 0.77937 -1.341951 0.397805 -1.5 0 -1.5 
C -0.397805 -1.5 -0.77937 -1.341951 -1.06066 -1.06066 
C -1.341951 -0.77937 -1.5 -0.397805 -1.5 0 
C -1.5 0.397805 -1.341951 0.77937 -1.06066 1.06066 
C -0.77937 1.341951 -0.397805 1.5 0 1.5 
z
" id="m0e423f9568" style="stroke:#00bfbf;"/>
    </defs>
    <g>
     <use style="fill:#00bfbf;stroke:#00bfbf;" x="272.756141" xlink:href="#m0e423f9568" y="32.756141"/>
     <use style="fill:#00bfbf;stroke:#00bfbf;" x="272.756141" xlink:href="#m0e423f9568" y="32.756141"/>
    </g>
   </g>
   <g id="line2d_38">
    <path d="M 44.205749 294.88 
L 44.205749 278.104073 
L 56.12 278.104073 
L 56.12 277.055578 
L 63.08939 277.055578 
L 63.08939 272.861596 
L 68.034251 272.861596 
L 68.034251 268.667614 
L 71.869783 268.667614 
L 71.869783 264.99788 
L 81.973032 264.99788 
L 81.973032 264.473632 
L 83.784035 264.473632 
L 83.784035 263.425137 
L 88.293717 263.425137 
L 88.293717 262.900889 
L 89.567532 262.900889 
L 89.567532 262.376641 
L 91.862754 262.376641 
L 91.862754 261.852394 
L 94.816624 261.852394 
L 94.816624 259.755403 
L 96.536922 259.755403 
L 96.536922 258.706907 
L 97.336537 258.706907 
L 97.336537 258.18266 
L 99.533818 258.18266 
L 99.533818 257.658412 
L 104.305927 257.658412 
L 104.305927 257.134164 
L 104.819059 257.134164 
L 104.819059 256.609917 
L 107.612537 256.609917 
L 107.612537 255.561421 
L 109.250788 255.561421 
L 109.250788 255.037173 
L 110.746395 255.037173 
L 110.746395 254.512926 
L 119.310576 254.512926 
L 119.310576 253.988678 
L 120.15957 253.988678 
L 120.15957 252.415935 
L 132.583907 252.415935 
L 132.583907 251.891687 
L 137.377325 251.891687 
L 137.453213 248.746201 
L 144.747635 248.746201 
L 144.747635 247.697705 
L 153.458539 247.697705 
L 153.458539 246.64921 
L 154.971544 246.64921 
L 154.971544 246.124962 
L 157.365541 246.124962 
L 157.365541 244.552219 
L 158.647844 244.552219 
L 158.647844 244.027971 
L 159.799871 244.027971 
L 159.799871 243.503724 
L 160.645384 243.503724 
L 160.645384 241.93098 
L 163.631276 241.93098 
L 163.631276 241.406733 
L 163.925945 241.406733 
L 163.925945 240.882485 
L 171.328079 240.882485 
L 171.328079 240.358237 
L 172.11186 240.358237 
L 172.182285 239.309742 
L 172.352124 239.309742 
L 172.352124 238.785494 
L 175.379612 238.785494 
L 175.379612 237.736999 
L 175.693493 237.736999 
L 175.693493 236.688503 
L 176.58661 236.688503 
L 176.58661 236.164255 
L 178.195166 236.164255 
L 178.195166 235.11576 
L 179.555198 235.11576 
L 179.555198 234.591512 
L 180.240912 234.591512 
L 180.278565 233.543017 
L 181.098683 233.543017 
L 181.098683 232.494521 
L 181.978253 232.494521 
L 181.978253 231.446026 
L 182.387859 231.446026 
L 182.387859 230.397531 
L 184.071417 230.397531 
L 184.071417 229.873283 
L 184.905504 229.873283 
L 184.905504 228.824787 
L 185.828543 228.824787 
L 185.828543 227.776292 
L 185.941641 227.776292 
L 185.941641 226.727797 
L 186.249986 226.727797 
L 186.249986 225.679301 
L 186.631046 225.679301 
L 186.631046 225.155053 
L 187.239595 225.155053 
L 187.239595 224.630806 
L 187.476282 224.630806 
L 187.476282 223.58231 
L 187.656785 223.58231 
L 187.693473 222.533815 
L 188.293696 222.533815 
L 188.297628 220.436824 
L 188.481424 220.436824 
L 188.524157 218.864081 
L 189.171425 218.864081 
L 189.212479 217.815585 
L 189.294294 217.815585 
L 189.305421 216.76709 
L 189.694005 216.76709 
L 189.694005 216.242842 
L 190.348347 216.242842 
L 190.348347 215.718594 
L 190.880865 215.718594 
L 190.880865 214.670099 
L 191.374384 214.670099 
L 191.380957 212.04886 
L 191.563991 212.04886 
L 191.563991 210.476117 
L 191.774025 210.476117 
L 191.774025 209.95187 
L 191.956119 209.95187 
L 192.041706 207.330631 
L 192.136305 207.330631 
L 192.136305 205.757888 
L 192.478782 205.757888 
L 192.481864 204.709392 
L 192.932061 204.709392 
L 192.932061 203.660897 
L 193.108295 203.660897 
L 193.188345 201.563906 
L 193.356127 201.563906 
L 193.38247 200.515411 
L 193.484532 200.515411 
L 193.528088 198.942667 
L 193.769982 198.942667 
L 193.835626 196.321429 
L 193.889665 196.321429 
L 193.889665 195.797181 
L 194.104137 195.797181 
L 194.207591 194.224438 
L 194.354705 194.224438 
L 194.354705 193.70019 
L 194.609844 193.70019 
L 194.609844 193.175943 
L 194.796723 193.175943 
L 194.880026 191.603199 
L 194.925537 191.603199 
L 194.986921 189.506209 
L 195.130182 189.506209 
L 195.130182 188.981961 
L 195.407974 188.981961 
L 195.493547 183.215236 
L 195.658304 183.215236 
L 195.665989 181.118245 
L 195.937842 181.118245 
L 195.990695 178.497006 
L 196.299511 178.497006 
L 196.299511 177.972759 
L 196.515353 177.972759 
L 196.573751 176.400016 
L 196.677888 176.400016 
L 196.706838 171.157538 
L 196.917656 171.157538 
L 196.962836 168.5363 
L 197.172902 168.5363 
L 197.172902 166.963557 
L 197.313085 166.963557 
L 197.368839 165.390813 
L 197.631231 165.390813 
L 197.6609 163.293823 
L 197.878423 163.293823 
L 197.878423 162.769575 
L 198.021924 162.769575 
L 198.021924 161.721079 
L 198.274605 161.721079 
L 198.303185 160.148336 
L 198.486718 160.148336 
L 198.521456 159.099841 
L 198.70054 159.099841 
L 198.756256 155.954354 
L 198.920212 155.954354 
L 198.956201 153.857364 
L 199.241426 153.857364 
L 199.241426 153.333116 
L 199.355444 153.333116 
L 199.355444 152.28462 
L 199.546533 152.28462 
L 199.65246 149.663382 
L 199.785973 149.663382 
L 199.785973 149.139134 
L 200.01417 149.139134 
L 200.01417 148.614886 
L 200.146886 148.614886 
L 200.227598 146.517896 
L 200.33723 146.517896 
L 200.395675 144.945152 
L 200.531278 144.945152 
L 200.589068 142.848162 
L 200.671563 142.848162 
L 200.671563 140.226923 
L 200.850534 140.226923 
L 200.96004 133.93595 
L 201.106215 133.93595 
L 201.106215 133.411703 
L 201.293665 133.411703 
L 201.383875 131.838959 
L 201.469961 131.838959 
L 201.551981 129.741969 
L 201.602818 129.741969 
L 201.602818 128.693473 
L 201.849416 128.693473 
L 201.950982 126.072235 
L 202.016591 126.072235 
L 202.030744 122.926748 
L 202.257364 122.926748 
L 202.30442 121.354005 
L 202.551519 121.354005 
L 202.606331 118.732766 
L 208.929253 118.732766 
L 209.038994 117.160023 
L 209.695582 117.160023 
L 209.745326 116.111528 
L 209.864574 116.111528 
L 209.955144 114.538785 
L 210.445464 114.538785 
L 210.445464 114.014537 
L 210.610497 114.014537 
L 210.610497 113.490289 
L 210.76226 113.490289 
L 210.787778 111.917546 
L 211.140071 111.917546 
L 211.181657 110.869051 
L 211.446475 110.869051 
L 211.499564 108.247812 
L 211.564681 108.247812 
L 211.665933 106.675069 
L 211.799682 106.675069 
L 211.872653 105.102326 
L 211.960208 105.102326 
L 211.960208 104.578078 
L 212.358479 104.578078 
L 212.455175 103.529583 
L 212.55133 103.529583 
L 212.55133 103.005335 
L 212.750574 103.005335 
L 212.83095 100.908344 
L 212.9672 100.908344 
L 212.9672 100.384096 
L 213.105165 100.384096 
L 213.214376 98.811353 
L 213.31923 98.811353 
L 213.386952 97.23861 
L 213.540622 97.23861 
L 213.625504 94.617371 
L 213.732364 94.617371 
L 213.831444 93.044628 
L 213.921105 93.044628 
L 214.024388 90.947637 
L 214.070093 90.947637 
L 214.133177 89.374894 
L 214.271673 89.374894 
L 214.372015 87.802151 
L 214.390117 87.802151 
L 214.492342 85.180912 
L 218.139621 85.180912 
L 218.139621 84.656665 
L 219.279316 84.656665 
L 219.373706 83.083922 
L 219.536694 83.083922 
L 219.550738 82.035426 
L 220.233207 82.035426 
L 220.316412 80.986931 
L 220.3603 80.986931 
L 220.412574 79.938435 
L 220.533532 79.938435 
L 220.533532 79.414188 
L 220.660227 79.414188 
L 220.660227 78.88994 
L 220.772329 78.88994 
L 220.843504 76.792949 
L 220.902592 76.792949 
L 221.004923 75.744454 
L 221.017232 75.744454 
L 221.121797 74.695958 
L 221.15031 74.695958 
L 221.177616 73.123215 
L 221.304854 73.123215 
L 221.413988 69.977729 
L 221.431729 69.977729 
L 221.534947 68.929233 
L 225.014309 68.929233 
L 225.014309 68.404985 
L 225.297549 68.404985 
L 225.297549 67.35649 
L 225.478393 67.35649 
L 225.517672 66.307995 
L 225.921468 66.307995 
L 225.921468 65.783747 
L 226.094154 65.783747 
L 226.2024 62.638261 
L 226.285403 62.638261 
L 226.357275 61.589765 
L 226.40231 61.589765 
L 226.412587 60.54127 
L 228.612025 60.54127 
L 228.612025 60.017022 
L 229.058189 60.017022 
L 229.161743 58.968526 
L 229.414876 58.968526 
L 229.414876 57.920031 
L 229.637032 57.920031 
L 229.667524 56.347288 
L 229.771003 56.347288 
L 229.771003 55.82304 
L 229.890305 55.82304 
L 229.890305 55.298792 
L 230.01573 55.298792 
L 230.022324 54.250297 
L 230.269681 54.250297 
L 230.269681 53.726049 
L 233.141718 53.726049 
L 233.203252 51.629058 
L 233.264279 51.629058 
L 233.354843 50.580563 
L 235.752946 50.580563 
L 235.752946 50.056315 
L 235.897038 50.056315 
L 235.946276 49.00782 
L 237.85245 49.00782 
L 237.85245 48.483572 
L 238.220128 48.483572 
L 238.265727 46.910829 
L 240.136557 46.910829 
L 240.136557 46.386581 
L 240.268595 46.386581 
L 240.274903 44.813838 
L 242.135122 44.813838 
L 242.189233 43.241095 
L 243.752609 43.241095 
L 243.75776 41.144104 
L 245.262948 41.144104 
L 245.262948 40.619856 
L 249.126737 40.619856 
L 249.126737 40.095609 
L 251.293515 40.095609 
L 251.293515 39.571361 
L 253.231691 39.571361 
L 253.231691 39.047113 
L 254.099808 39.047113 
L 254.1169 37.998618 
L 254.942471 37.998618 
L 254.942471 37.47437 
L 255.761278 37.47437 
L 255.761278 36.950122 
L 257.987469 36.950122 
L 257.987469 36.425875 
L 261.663947 36.425875 
L 261.6738 35.377379 
L 262.220874 35.377379 
L 262.220874 34.853131 
L 265.620947 34.853131 
L 265.620947 34.328884 
L 266.490068 34.328884 
L 266.490068 33.804636 
L 272.461919 33.804636 
L 272.461919 33.280388 
L 272.756141 33.280388 
L 272.756141 32.756141 
L 333.168 32.756141 
L 333.168 32.756141 
" style="fill:none;stroke:#00bfbf;stroke-linecap:square;stroke-width:1.5;"/>
   </g>
   <g id="line2d_39">
    <defs>
     <path d="M -6 0 
L 6 0 
M 0 6 
L 0 -6 
" id="m64bea9e0e1" style="stroke:#00bfbf;stroke-width:1.5;"/>
    </defs>
    <g>
     <use style="fill-opacity:0;stroke:#00bfbf;stroke-width:1.5;" x="63.08939" xlink:href="#m64bea9e0e1" y="272.861596"/>
     <use style="fill-opacity:0;stroke:#00bfbf;stroke-width:1.5;" x="160.645384" xlink:href="#m64bea9e0e1" y="243.503724"/>
     <use style="fill-opacity:0;stroke:#00bfbf;stroke-width:1.5;" x="202.016591" xlink:href="#m64bea9e0e1" y="126.072235"/>
     <use style="fill-opacity:0;stroke:#00bfbf;stroke-width:1.5;" x="245.262948" xlink:href="#m64bea9e0e1" y="41.144104"/>
     <use style="fill-opacity:0;stroke:#00bfbf;stroke-width:1.5;" x="272.756141" xlink:href="#m64bea9e0e1" y="32.756141"/>
     <use style="fill-opacity:0;stroke:#00bfbf;stroke-width:1.5;" x="333.168" xlink:href="#m64bea9e0e1" y="32.756141"/>
    </g>
   </g>
   <g id="line2d_40">
    <path style="fill:none;stroke:#00bfbf;stroke-linecap:square;stroke-width:1.5;"/>
    <g/>
   </g>
   <g id="line2d_41">
    <path clip-path="url(#p3c69d13f96)" d="M 202.691626 118.732766 
" style="fill:none;stroke:#00bfbf;stroke-linecap:square;stroke-width:1.5;"/>
    <defs>
     <path d="M -12 12 
L 12 -12 
M -12 -12 
L 12 12 
" id="m3a7cc36d5a" style="stroke:#00bfbf;"/>
    </defs>
    <g clip-path="url(#p3c69d13f96)">
     <use style="fill:#00bfbf;stroke:#00bfbf;" x="202.691626" xlink:href="#m3a7cc36d5a" y="118.732766"/>
    </g>
   </g>
   <g id="line2d_42">
    <defs>
     <path d="M 0 1.5 
C 0.397805 1.5 0.77937 1.341951 1.06066 1.06066 
C 1.341951 0.77937 1.5 0.397805 1.5 0 
C 1.5 -0.397805 1.341951 -0.77937 1.06066 -1.06066 
C 0.77937 -1.341951 0.397805 -1.5 0 -1.5 
C -0.397805 -1.5 -0.77937 -1.341951 -1.06066 -1.06066 
C -1.341951 -0.77937 -1.5 -0.397805 -1.5 0 
C -1.5 0.397805 -1.341951 0.77937 -1.06066 1.06066 
C -0.77937 1.341951 -0.397805 1.5 0 1.5 
z
" id="ma7d0f4734b" style="stroke:#008000;"/>
    </defs>
    <g>
     <use style="fill:#008000;stroke:#008000;" x="273.059161" xlink:href="#ma7d0f4734b" y="100.908344"/>
     <use style="fill:#008000;stroke:#008000;" x="273.059161" xlink:href="#ma7d0f4734b" y="100.908344"/>
    </g>
   </g>
   <g id="line2d_43">
    <path d="M 37.236359 294.88 
L 37.236359 275.482834 
L 49.15061 275.482834 
L 49.15061 273.385844 
L 56.12 273.385844 
L 56.12 271.8131 
L 61.064861 271.8131 
L 61.064861 269.716109 
L 64.900393 269.716109 
L 64.900393 268.667614 
L 68.034251 268.667614 
L 68.034251 266.570623 
L 70.68389 266.570623 
L 70.68389 265.522128 
L 75.003641 265.522128 
L 75.003641 264.473632 
L 79.948502 264.473632 
L 79.948502 263.949385 
L 90.367147 263.949385 
L 90.367147 262.900889 
L 91.862754 262.900889 
L 91.862754 262.376641 
L 92.564428 262.376641 
L 92.564428 261.852394 
L 93.887283 261.852394 
L 93.887283 260.279651 
L 95.698286 260.279651 
L 95.698286 259.755403 
L 102.281398 259.755403 
L 102.281398 259.231155 
L 103.777005 259.231155 
L 103.777005 258.706907 
L 106.11693 258.706907 
L 106.11693 258.18266 
L 108.451173 258.18266 
L 108.451173 257.134164 
L 110.746395 257.134164 
L 110.746395 256.609917 
L 112.341186 256.609917 
L 112.341186 254.512926 
L 113.599452 254.512926 
L 113.599452 253.988678 
L 118.795247 253.988678 
L 118.795247 253.46443 
L 120.902613 253.46443 
L 120.902613 252.415935 
L 122.176427 252.415935 
L 122.176427 251.367439 
L 123.131597 251.367439 
L 123.131597 250.843192 
L 125.104431 250.843192 
L 125.104431 249.794696 
L 127.694799 249.794696 
L 127.694799 249.270448 
L 138.834862 249.270448 
L 138.834862 248.746201 
L 144.960957 248.746201 
L 144.960957 248.221953 
L 145.123268 248.221953 
L 145.155547 246.64921 
L 150.749113 246.64921 
L 150.749113 246.124962 
L 152.871701 246.124962 
L 152.871701 245.600714 
L 153.015196 245.600714 
L 153.015196 244.027971 
L 167.756066 244.027971 
L 167.756066 243.503724 
L 172.074855 243.503724 
L 172.074855 242.979476 
L 172.566182 242.979476 
L 172.566182 242.455228 
L 172.819582 242.455228 
L 172.819582 241.93098 
L 173.11374 241.93098 
L 173.11374 240.358237 
L 173.827836 240.358237 
L 173.827836 239.309742 
L 174.854857 239.309742 
L 174.854857 238.261246 
L 175.279289 238.261246 
L 175.279289 237.736999 
L 177.182277 237.736999 
L 177.182277 236.688503 
L 177.597554 236.688503 
L 177.597554 236.164255 
L 177.883351 236.164255 
L 177.883351 235.640008 
L 178.895425 235.640008 
L 178.895425 234.591512 
L 179.868336 234.591512 
L 179.868336 233.543017 
L 180.182176 233.543017 
L 180.182176 233.018769 
L 180.37026 233.018769 
L 180.37026 232.494521 
L 181.182152 232.494521 
L 181.182152 231.970274 
L 181.508143 231.970274 
L 181.508143 231.446026 
L 181.915676 231.446026 
L 181.915676 230.397531 
L 182.699223 230.397531 
L 182.699223 229.349035 
L 183.210646 229.349035 
L 183.210646 228.824787 
L 183.326537 228.824787 
L 183.326537 228.30054 
L 184.029471 228.30054 
L 184.12663 226.727797 
L 184.332524 226.727797 
L 184.332524 226.203549 
L 184.823893 226.203549 
L 184.823893 225.155053 
L 185.935628 225.155053 
L 185.935628 223.58231 
L 186.239648 223.58231 
L 186.316291 222.533815 
L 186.869084 222.533815 
L 186.869084 222.009567 
L 187.235413 222.009567 
L 187.274402 220.436824 
L 187.533921 220.436824 
L 187.533921 219.912576 
L 187.811163 219.912576 
L 187.811163 219.388328 
L 187.948125 219.388328 
L 187.966838 216.76709 
L 188.073385 216.76709 
L 188.113171 215.194347 
L 189.645607 215.194347 
L 189.727803 213.621604 
L 189.797602 213.621604 
L 189.797602 212.573108 
L 190.02666 212.573108 
L 190.069271 209.95187 
L 190.210548 209.95187 
L 190.304092 208.903374 
L 190.408724 208.903374 
L 190.408724 207.854879 
L 190.654987 207.854879 
L 190.654987 207.330631 
L 190.900024 207.330631 
L 190.900024 206.806383 
L 191.159379 206.806383 
L 191.159379 206.282136 
L 191.48252 206.282136 
L 191.48252 205.757888 
L 191.62997 205.757888 
L 191.731149 204.709392 
L 191.769742 204.709392 
L 191.769742 203.136649 
L 192.064878 203.136649 
L 192.064878 202.612401 
L 192.408767 202.612401 
L 192.472615 198.942667 
L 192.605726 198.942667 
L 192.605726 198.41842 
L 192.905018 198.41842 
L 192.983026 196.321429 
L 193.04478 196.321429 
L 193.04478 195.797181 
L 193.175523 195.797181 
L 193.266062 193.70019 
L 193.360032 193.70019 
L 193.360032 193.175943 
L 193.523253 193.175943 
L 193.523253 192.127447 
L 193.786178 192.127447 
L 193.788083 190.554704 
L 194.015099 190.554704 
L 194.022615 188.981961 
L 194.131226 188.981961 
L 194.174107 187.933465 
L 194.291018 187.933465 
L 194.34088 186.88497 
L 194.573496 186.88497 
L 194.573496 186.360722 
L 194.91038 186.360722 
L 194.983368 185.312227 
L 195.103742 185.312227 
L 195.165372 183.215236 
L 195.30193 183.215236 
L 195.402774 181.642493 
L 195.720534 181.642493 
L 195.720534 181.118245 
L 201.204835 181.118245 
L 201.204835 180.593997 
L 202.787221 180.593997 
L 202.787221 180.06975 
L 203.430493 180.06975 
L 203.430493 179.545502 
L 203.773706 179.545502 
L 203.773706 179.021254 
L 204.249608 179.021254 
L 204.249608 177.972759 
L 204.378641 177.972759 
L 204.378641 177.448511 
L 204.640928 177.448511 
L 204.640928 176.924263 
L 204.857317 176.924263 
L 204.928182 174.303025 
L 205.076942 174.303025 
L 205.176387 172.206034 
L 205.441372 172.206034 
L 205.551229 169.584795 
L 205.60781 169.584795 
L 205.60781 168.012052 
L 205.904901 168.012052 
L 205.944378 166.439309 
L 206.059472 166.439309 
L 206.059472 165.915061 
L 206.34984 165.915061 
L 206.410253 163.81807 
L 206.605596 163.81807 
L 206.605596 162.769575 
L 206.804103 162.769575 
L 206.879846 159.624089 
L 206.93577 159.624089 
L 206.981793 158.051345 
L 207.071712 158.051345 
L 207.071712 157.527098 
L 207.230997 157.527098 
L 207.333486 154.905859 
L 207.454296 154.905859 
L 207.454296 153.857364 
L 212.503961 153.857364 
L 212.503961 153.333116 
L 213.042224 153.333116 
L 213.076978 152.28462 
L 213.24418 152.28462 
L 213.24418 151.760373 
L 213.628507 151.760373 
L 213.684254 150.711877 
L 213.819573 150.711877 
L 213.819573 150.18763 
L 213.962669 150.18763 
L 213.962669 149.663382 
L 214.141921 149.663382 
L 214.23143 148.614886 
L 214.336616 148.614886 
L 214.336616 148.090639 
L 214.500048 148.090639 
L 214.568399 147.042143 
L 217.789013 147.042143 
L 217.789013 146.517896 
L 217.905508 146.517896 
L 217.905508 145.993648 
L 218.08944 145.993648 
L 218.08944 145.4694 
L 218.217262 145.4694 
L 218.299816 143.896657 
L 218.38152 143.896657 
L 218.38152 143.372409 
L 218.539712 143.372409 
L 218.539712 142.848162 
L 218.689753 142.848162 
L 218.725498 141.275418 
L 218.905764 141.275418 
L 218.905764 140.751171 
L 219.070603 140.751171 
L 219.070603 140.226923 
L 219.20395 140.226923 
L 219.20395 139.702675 
L 219.355214 139.702675 
L 219.399905 138.129932 
L 219.471428 138.129932 
L 219.471428 137.605684 
L 222.806541 137.605684 
L 222.85856 136.557189 
L 223.050852 136.557189 
L 223.127377 133.93595 
L 223.230029 133.93595 
L 223.264339 132.887455 
L 225.696375 132.887455 
L 225.804634 131.838959 
L 225.882219 131.838959 
L 225.882219 131.314712 
L 226.01942 131.314712 
L 226.118122 130.266216 
L 226.131472 130.266216 
L 226.14829 129.217721 
L 226.386025 129.217721 
L 226.472415 126.596482 
L 226.519845 126.596482 
L 226.519845 126.072235 
L 228.599339 126.072235 
L 228.703064 125.023739 
L 228.804179 125.023739 
L 228.906432 123.450996 
L 228.939231 123.450996 
L 229.010288 122.4025 
L 229.058312 122.4025 
L 229.11791 120.30551 
L 229.169524 120.30551 
L 229.169524 119.781262 
L 231.176487 119.781262 
L 231.260642 118.732766 
L 231.325526 118.732766 
L 231.419622 116.111528 
L 231.450945 116.111528 
L 231.450945 115.58728 
L 233.489329 115.58728 
L 233.489329 115.063032 
L 234.696487 115.063032 
L 234.696487 114.538785 
L 235.116439 114.538785 
L 235.222579 112.966042 
L 235.240347 112.966042 
L 235.264238 111.393298 
L 236.750093 111.393298 
L 236.787121 109.820555 
L 236.884078 109.820555 
L 236.884078 109.296308 
L 238.38368 109.296308 
L 238.38368 108.247812 
L 239.810073 108.247812 
L 239.810073 107.723564 
L 240.842392 107.723564 
L 240.842392 107.199317 
L 240.985648 107.199317 
L 241.041059 106.150821 
L 242.229364 106.150821 
L 242.262423 105.102326 
L 243.330568 105.102326 
L 243.330568 104.578078 
L 245.360512 104.578078 
L 245.360512 104.05383 
L 247.184371 104.05383 
L 247.184371 103.529583 
L 248.03979 103.529583 
L 248.03979 103.005335 
L 249.583244 103.005335 
L 249.583244 102.481087 
L 252.976803 102.481087 
L 252.976803 101.956839 
L 255.27471 101.956839 
L 255.27471 101.432592 
L 273.059161 101.432592 
L 273.059161 100.908344 
L 333.168 100.908344 
L 333.168 100.908344 
" style="fill:none;stroke:#008000;stroke-linecap:square;stroke-width:1.5;"/>
   </g>
   <g id="line2d_44">
    <defs>
     <path d="M -0 6 
L 6 -6 
L -6 -6 
z
" id="m39b19be5af" style="stroke:#008000;stroke-linejoin:miter;stroke-width:1.5;"/>
    </defs>
    <g>
     <use style="fill-opacity:0;stroke:#008000;stroke-linejoin:miter;stroke-width:1.5;" x="95.698286" xlink:href="#m39b19be5af" y="260.279651"/>
     <use style="fill-opacity:0;stroke:#008000;stroke-linejoin:miter;stroke-width:1.5;" x="153.015196" xlink:href="#m39b19be5af" y="245.600714"/>
     <use style="fill-opacity:0;stroke:#008000;stroke-linejoin:miter;stroke-width:1.5;" x="205.441372" xlink:href="#m39b19be5af" y="172.206034"/>
     <use style="fill-opacity:0;stroke:#008000;stroke-linejoin:miter;stroke-width:1.5;" x="255.27471" xlink:href="#m39b19be5af" y="101.432592"/>
     <use style="fill-opacity:0;stroke:#008000;stroke-linejoin:miter;stroke-width:1.5;" x="273.059161" xlink:href="#m39b19be5af" y="100.908344"/>
     <use style="fill-opacity:0;stroke:#008000;stroke-linejoin:miter;stroke-width:1.5;" x="333.168" xlink:href="#m39b19be5af" y="100.908344"/>
    </g>
   </g>
   <g id="line2d_45">
    <path style="fill:none;stroke:#008000;stroke-linecap:square;stroke-width:1.5;"/>
    <g/>
   </g>
   <g id="line2d_46">
    <path clip-path="url(#p3c69d13f96)" d="M 195.722236 181.118245 
" style="fill:none;stroke:#008000;stroke-linecap:square;stroke-width:1.5;"/>
    <defs>
     <path d="M -12 12 
L 12 -12 
M -12 -12 
L 12 12 
" id="m944f33ab7d" style="stroke:#008000;"/>
    </defs>
    <g clip-path="url(#p3c69d13f96)">
     <use style="fill:#008000;stroke:#008000;" x="195.722236" xlink:href="#m944f33ab7d" y="181.118245"/>
    </g>
   </g>
   <g id="line2d_47">
    <defs>
     <path d="M 0 1.5 
C 0.397805 1.5 0.77937 1.341951 1.06066 1.06066 
C 1.341951 0.77937 1.5 0.397805 1.5 0 
C 1.5 -0.397805 1.341951 -0.77937 1.06066 -1.06066 
C 0.77937 -1.341951 0.397805 -1.5 0 -1.5 
C -0.397805 -1.5 -0.77937 -1.341951 -1.06066 -1.06066 
C -1.341951 -0.77937 -1.5 -0.397805 -1.5 0 
C -1.5 0.397805 -1.341951 0.77937 -1.06066 1.06066 
C -0.77937 1.341951 -0.397805 1.5 0 1.5 
z
" id="m1eaf79d075" style="stroke:#0000ff;"/>
    </defs>
    <g>
     <use style="fill:#0000ff;stroke:#0000ff;" x="258.344967" xlink:href="#m1eaf79d075" y="200.515411"/>
     <use style="fill:#0000ff;stroke:#0000ff;" x="258.344967" xlink:href="#m1eaf79d075" y="200.515411"/>
    </g>
   </g>
   <g id="line2d_48">
    <path d="M 28.455965 294.88 
L 28.455965 269.716109 
L 40.370217 269.716109 
L 40.370217 267.094871 
L 47.339607 267.094871 
L 47.339607 266.570623 
L 52.284468 266.570623 
L 52.284468 265.522128 
L 56.12 265.522128 
L 56.12 263.949385 
L 59.253858 263.949385 
L 59.253858 263.425137 
L 61.903497 263.425137 
L 61.903497 261.852394 
L 66.223248 261.852394 
L 66.223248 261.328146 
L 68.034251 261.328146 
L 68.034251 260.803898 
L 73.817748 260.803898 
L 73.817748 259.231155 
L 75.003641 259.231155 
L 75.003641 258.706907 
L 78.137499 258.706907 
L 78.137499 258.18266 
L 84.458185 258.18266 
L 84.458185 256.609917 
L 86.917893 256.609917 
L 86.917893 256.085669 
L 95.698286 256.085669 
L 95.698286 255.037173 
L 96.038666 255.037173 
L 96.038666 254.512926 
L 105.218813 254.512926 
L 105.218813 253.988678 
L 105.60948 253.988678 
L 105.60948 253.46443 
L 109.093814 253.46443 
L 109.093814 252.415935 
L 124.875107 252.415935 
L 124.875107 251.891687 
L 125.187069 251.891687 
L 125.187069 250.843192 
L 131.049878 250.843192 
L 131.049878 250.318944 
L 132.882847 250.318944 
L 132.882847 249.794696 
L 140.204235 249.794696 
L 140.204235 249.270448 
L 141.757814 249.270448 
L 141.757814 248.746201 
L 143.312265 248.746201 
L 143.312265 248.221953 
L 143.946604 248.221953 
L 143.946604 247.697705 
L 144.77733 247.697705 
L 144.77733 247.173458 
L 149.45809 247.173458 
L 149.45809 246.124962 
L 157.417765 246.124962 
L 157.417765 245.076467 
L 157.653165 245.076467 
L 157.653165 244.027971 
L 160.475609 244.027971 
L 160.475609 242.455228 
L 162.188725 242.455228 
L 162.188725 241.93098 
L 163.903207 241.93098 
L 163.903207 241.406733 
L 168.822044 241.406733 
L 168.822044 240.358237 
L 169.07411 240.358237 
L 169.07411 239.83399 
L 169.836501 239.83399 
L 169.836501 239.309742 
L 170.250376 239.309742 
L 170.250376 238.785494 
L 171.027917 238.785494 
L 171.027917 238.261246 
L 171.405985 238.261246 
L 171.405985 236.688503 
L 171.89067 236.688503 
L 171.89067 236.164255 
L 173.051492 236.164255 
L 173.051492 235.640008 
L 173.309175 235.640008 
L 173.309175 234.591512 
L 177.02241 234.591512 
L 177.02241 234.067265 
L 177.468116 234.067265 
L 177.468116 233.018769 
L 178.306612 233.018769 
L 178.306612 232.494521 
L 178.499572 232.494521 
L 178.499572 231.446026 
L 179.425254 231.446026 
L 179.425254 230.921778 
L 180.648174 230.921778 
L 180.648174 230.397531 
L 182.256503 230.397531 
L 182.256503 229.873283 
L 183.233887 229.873283 
L 183.233887 229.349035 
L 183.558072 229.349035 
L 183.558072 228.30054 
L 183.788575 228.30054 
L 183.788575 226.727797 
L 185.536497 226.727797 
L 185.536497 226.203549 
L 192.348822 226.203549 
L 192.348822 225.679301 
L 195.075141 225.679301 
L 195.075141 224.630806 
L 195.753858 224.630806 
L 195.753858 224.106558 
L 196.001748 224.106558 
L 196.001748 223.58231 
L 198.253469 223.58231 
L 198.253469 223.058063 
L 203.820725 223.058063 
L 203.820725 222.009567 
L 204.837303 222.009567 
L 204.837303 221.485319 
L 205.369684 221.485319 
L 205.426091 220.436824 
L 209.757965 220.436824 
L 209.757965 219.912576 
L 210.429633 219.912576 
L 210.429633 219.388328 
L 213.191665 219.388328 
L 213.191665 218.864081 
L 214.019811 218.864081 
L 214.019811 217.815585 
L 216.590389 217.815585 
L 216.590389 216.76709 
L 216.766567 216.76709 
L 216.766567 216.242842 
L 217.071483 216.242842 
L 217.071483 215.718594 
L 219.409001 215.718594 
L 219.409001 215.194347 
L 219.558649 215.194347 
L 219.621044 214.145851 
L 220.219341 214.145851 
L 220.219341 213.621604 
L 222.014206 213.621604 
L 222.014206 213.097356 
L 223.951496 213.097356 
L 223.951496 212.573108 
L 224.386003 212.573108 
L 224.386003 212.04886 
L 225.839783 212.04886 
L 225.839783 211.524613 
L 227.541009 211.524613 
L 227.541009 210.476117 
L 229.088918 210.476117 
L 229.088918 209.95187 
L 229.209977 209.95187 
L 229.209977 209.427622 
L 230.620367 209.427622 
L 230.620367 208.379126 
L 231.820428 208.379126 
L 231.893281 207.330631 
L 233.296375 207.330631 
L 233.296375 206.806383 
L 234.240335 206.806383 
L 234.26692 205.757888 
L 236.462575 205.757888 
L 236.462575 205.23364 
L 237.251312 205.23364 
L 237.273629 203.660897 
L 238.169353 203.660897 
L 238.169353 203.136649 
L 238.952398 203.136649 
L 238.952398 202.612401 
L 244.721418 202.612401 
L 244.721418 202.088154 
L 248.854463 202.088154 
L 248.854463 201.563906 
L 250.609591 201.563906 
L 250.609591 201.039658 
L 258.344967 201.039658 
L 258.344967 200.515411 
L 333.168 200.515411 
L 333.168 200.515411 
" style="fill:none;stroke:#0000ff;stroke-linecap:square;stroke-width:1.5;"/>
   </g>
   <g id="line2d_49">
    <defs>
     <path d="M 0 -6 
L -1.347084 -1.854102 
L -5.706339 -1.854102 
L -2.179628 0.708204 
L -3.526712 4.854102 
L -0 2.291796 
L 3.526712 4.854102 
L 2.179628 0.708204 
L 5.706339 -1.854102 
L 1.347084 -1.854102 
z
" id="m298d1c6e1d" style="stroke:#0000ff;stroke-linejoin:bevel;stroke-width:1.5;"/>
    </defs>
    <g>
     <use style="fill-opacity:0;stroke:#0000ff;stroke-linejoin:bevel;stroke-width:1.5;" x="86.917893" xlink:href="#m298d1c6e1d" y="256.085669"/>
     <use style="fill-opacity:0;stroke:#0000ff;stroke-linejoin:bevel;stroke-width:1.5;" x="180.648174" xlink:href="#m298d1c6e1d" y="230.397531"/>
     <use style="fill-opacity:0;stroke:#0000ff;stroke-linejoin:bevel;stroke-width:1.5;" x="244.721418" xlink:href="#m298d1c6e1d" y="202.612401"/>
     <use style="fill-opacity:0;stroke:#0000ff;stroke-linejoin:bevel;stroke-width:1.5;" x="258.344967" xlink:href="#m298d1c6e1d" y="200.515411"/>
     <use style="fill-opacity:0;stroke:#0000ff;stroke-linejoin:bevel;stroke-width:1.5;" x="258.344967" xlink:href="#m298d1c6e1d" y="200.515411"/>
     <use style="fill-opacity:0;stroke:#0000ff;stroke-linejoin:bevel;stroke-width:1.5;" x="333.168" xlink:href="#m298d1c6e1d" y="200.515411"/>
    </g>
   </g>
   <g id="line2d_50">
    <path style="fill:none;stroke:#0000ff;stroke-linecap:square;stroke-width:1.5;"/>
    <g/>
   </g>
   <g id="line2d_51">
    <path clip-path="url(#p3c69d13f96)" d="M 186.941843 226.203549 
" style="fill:none;stroke:#0000ff;stroke-linecap:square;stroke-width:1.5;"/>
    <defs>
     <path d="M -12 12 
L 12 -12 
M -12 -12 
L 12 12 
" id="m126894896c" style="stroke:#0000ff;"/>
    </defs>
    <g clip-path="url(#p3c69d13f96)">
     <use style="fill:#0000ff;stroke:#0000ff;" x="186.941843" xlink:href="#m126894896c" y="226.203549"/>
    </g>
   </g>
   <g id="line2d_52">
    <defs>
     <path d="M 0 1.5 
C 0.397805 1.5 0.77937 1.341951 1.06066 1.06066 
C 1.341951 0.77937 1.5 0.397805 1.5 0 
C 1.5 -0.397805 1.341951 -0.77937 1.06066 -1.06066 
C 0.77937 -1.341951 0.397805 -1.5 0 -1.5 
C -0.397805 -1.5 -0.77937 -1.341951 -1.06066 -1.06066 
C -1.341951 -0.77937 -1.5 -0.397805 -1.5 0 
C -1.5 0.397805 -1.341951 0.77937 -1.06066 1.06066 
C -0.77937 1.341951 -0.397805 1.5 0 1.5 
z
" id="meb93598fd5" style="stroke:#000000;"/>
    </defs>
    <g>
     <use style="stroke:#000000;" x="234.510773" xlink:href="#meb93598fd5" y="221.485319"/>
     <use style="stroke:#000000;" x="234.510773" xlink:href="#meb93598fd5" y="221.485319"/>
    </g>
   </g>
   <g id="line2d_53">
    <path d="M 16.541714 294.88 
L 16.541714 271.8131 
L 28.455965 271.8131 
L 28.455965 269.716109 
L 35.425356 269.716109 
L 35.425356 268.667614 
L 40.370217 268.667614 
L 40.370217 266.046375 
L 44.205749 266.046375 
L 44.205749 261.852394 
L 52.284468 261.852394 
L 52.284468 261.328146 
L 59.253858 261.328146 
L 59.253858 260.803898 
L 60.629683 260.803898 
L 60.629683 259.755403 
L 63.08939 259.755403 
L 63.08939 259.231155 
L 71.869783 259.231155 
L 71.869783 258.706907 
L 79.513324 258.706907 
L 79.513324 258.18266 
L 85.732 258.18266 
L 85.732 257.134164 
L 86.335171 257.134164 
L 86.335171 256.609917 
L 94.816624 256.609917 
L 94.816624 255.037173 
L 105.60948 255.037173 
L 105.60948 253.988678 
L 106.730875 253.988678 
L 106.730875 253.46443 
L 108.935392 253.46443 
L 108.935392 252.415935 
L 109.406343 252.415935 
L 109.406343 251.891687 
L 119.223324 251.891687 
L 119.223324 251.367439 
L 141.084606 251.367439 
L 141.084606 250.843192 
L 142.754037 250.843192 
L 142.754037 250.318944 
L 148.151798 250.318944 
L 148.151798 249.270448 
L 152.931294 249.270448 
L 152.931294 247.697705 
L 153.145352 247.697705 
L 153.145352 245.600714 
L 154.25734 245.600714 
L 154.25734 245.076467 
L 154.971544 245.076467 
L 154.971544 244.552219 
L 157.053666 244.552219 
L 157.053666 244.027971 
L 157.981989 244.027971 
L 157.981989 242.979476 
L 158.612504 242.979476 
L 158.612504 241.93098 
L 158.683112 241.93098 
L 158.683112 241.406733 
L 161.942756 241.406733 
L 161.942756 240.882485 
L 162.06618 240.882485 
L 162.06618 240.358237 
L 162.537131 240.358237 
L 162.537131 238.785494 
L 167.119214 238.785494 
L 167.119214 238.261246 
L 170.200874 238.261246 
L 170.200874 237.736999 
L 170.393578 237.736999 
L 170.393578 237.212751 
L 170.643543 237.212751 
L 170.643543 236.688503 
L 172.710234 236.688503 
L 172.710234 236.164255 
L 173.470149 236.164255 
L 173.470149 235.11576 
L 179.277052 235.11576 
L 179.277052 234.591512 
L 180.623615 234.591512 
L 180.623615 234.067265 
L 181.615576 234.067265 
L 181.615576 233.543017 
L 183.613923 233.543017 
L 183.613923 232.494521 
L 184.78053 232.494521 
L 184.78053 231.970274 
L 190.572984 231.970274 
L 190.572984 231.446026 
L 192.447928 231.446026 
L 192.447928 230.921778 
L 192.947666 230.921778 
L 192.947666 230.397531 
L 193.172957 230.397531 
L 193.172957 229.873283 
L 196.415127 229.873283 
L 196.415127 229.349035 
L 197.770459 229.349035 
L 197.770459 228.824787 
L 198.207586 228.824787 
L 198.207586 227.776292 
L 201.859421 227.776292 
L 201.859421 227.252044 
L 210.254957 227.252044 
L 210.254957 226.727797 
L 214.322436 226.727797 
L 214.322436 226.203549 
L 218.897944 226.203549 
L 218.897944 225.679301 
L 220.187394 225.679301 
L 220.187394 224.630806 
L 221.302318 224.630806 
L 221.302318 224.106558 
L 222.507994 224.106558 
L 222.507994 223.58231 
L 226.378992 223.58231 
L 226.378992 223.058063 
L 228.030122 223.058063 
L 228.030122 222.533815 
L 233.395557 222.533815 
L 233.395557 222.009567 
L 234.510773 222.009567 
L 234.510773 221.485319 
L 333.168 221.485319 
" style="fill:none;stroke:#000000;stroke-linecap:square;stroke-width:1.5;"/>
   </g>
   <g id="line2d_54">
    <defs>
     <path d="M 0 6 
C 1.591219 6 3.117479 5.367802 4.242641 4.242641 
C 5.367802 3.117479 6 1.591219 6 0 
C 6 -1.591219 5.367802 -3.117479 4.242641 -4.242641 
C 3.117479 -5.367802 1.591219 -6 0 -6 
C -1.591219 -6 -3.117479 -5.367802 -4.242641 -4.242641 
C -5.367802 -3.117479 -6 -1.591219 -6 0 
C -6 1.591219 -5.367802 3.117479 -4.242641 4.242641 
C -3.117479 5.367802 -1.591219 6 0 6 
z
" id="m86c43056b0" style="stroke:#000000;stroke-width:1.5;"/>
    </defs>
    <g>
     <use style="fill-opacity:0;stroke:#000000;stroke-width:1.5;" x="63.08939" xlink:href="#m86c43056b0" y="259.231155"/>
     <use style="fill-opacity:0;stroke:#000000;stroke-width:1.5;" x="119.223324" xlink:href="#m86c43056b0" y="251.367439"/>
     <use style="fill-opacity:0;stroke:#000000;stroke-width:1.5;" x="198.207586" xlink:href="#m86c43056b0" y="228.824787"/>
     <use style="fill-opacity:0;stroke:#000000;stroke-width:1.5;" x="234.510773" xlink:href="#m86c43056b0" y="222.009567"/>
     <use style="fill-opacity:0;stroke:#000000;stroke-width:1.5;" x="234.510773" xlink:href="#m86c43056b0" y="221.485319"/>
     <use style="fill-opacity:0;stroke:#000000;stroke-width:1.5;" x="333.168" xlink:href="#m86c43056b0" y="221.485319"/>
    </g>
   </g>
   <g id="line2d_55">
    <path style="fill:none;stroke:#000000;stroke-linecap:square;stroke-width:1.5;"/>
    <g/>
   </g>
   <g id="line2d_56">
    <path clip-path="url(#p3c69d13f96)" d="M 175.027591 235.11576 
" style="fill:none;stroke:#000000;stroke-linecap:square;stroke-width:1.5;"/>
    <defs>
     <path d="M -12 12 
L 12 -12 
M -12 -12 
L 12 12 
" id="m0674eb4177" style="stroke:#000000;"/>
    </defs>
    <g clip-path="url(#p3c69d13f96)">
     <use style="stroke:#000000;" x="175.027591" xlink:href="#m0674eb4177" y="235.11576"/>
    </g>
   </g>
   <g id="line2d_57">
    <defs>
     <path d="M 0 1.5 
C 0.397805 1.5 0.77937 1.341951 1.06066 1.06066 
C 1.341951 0.77937 1.5 0.397805 1.5 0 
C 1.5 -0.397805 1.341951 -0.77937 1.06066 -1.06066 
C 0.77937 -1.341951 0.397805 -1.5 0 -1.5 
C -0.397805 -1.5 -0.77937 -1.341951 -1.06066 -1.06066 
C -1.341951 -0.77937 -1.5 -0.397805 -1.5 0 
C -1.5 0.397805 -1.341951 0.77937 -1.06066 1.06066 
C -0.77937 1.341951 -0.397805 1.5 0 1.5 
z
" id="m50962bc91a" style="stroke:#ff0000;"/>
    </defs>
    <g>
     <use style="fill:#ff0000;stroke:#ff0000;" x="209.077297" xlink:href="#m50962bc91a" y="237.212751"/>
     <use style="fill:#ff0000;stroke:#ff0000;" x="209.077297" xlink:href="#m50962bc91a" y="237.212751"/>
    </g>
   </g>
   <g id="line2d_58">
    <path d="M 4.627463 294.88 
L 4.627463 270.240357 
L 16.541714 270.240357 
L 16.541714 266.570623 
L 23.511104 266.570623 
L 23.511104 266.046375 
L 28.455965 266.046375 
L 28.455965 264.473632 
L 35.425356 264.473632 
L 35.425356 263.949385 
L 38.074995 263.949385 
L 38.074995 263.425137 
L 44.205749 263.425137 
L 44.205749 262.376641 
L 51.175139 262.376641 
L 51.175139 261.852394 
L 52.284468 261.852394 
L 52.284468 260.803898 
L 57.758252 260.803898 
L 57.758252 259.755403 
L 66.694199 259.755403 
L 66.694199 259.231155 
L 79.73229 259.231155 
L 79.73229 258.706907 
L 81.39031 258.706907 
L 81.39031 258.18266 
L 103.231288 258.18266 
L 103.231288 257.658412 
L 103.990531 257.658412 
L 103.990531 256.609917 
L 119.88822 256.609917 
L 119.88822 256.085669 
L 124.89084 256.085669 
L 124.89084 255.037173 
L 130.806377 255.037173 
L 130.806377 253.988678 
L 133.541793 253.988678 
L 133.541793 252.940182 
L 137.916386 252.940182 
L 137.916386 252.415935 
L 140.587071 252.415935 
L 140.587071 251.891687 
L 144.234803 251.891687 
L 144.234803 251.367439 
L 144.260302 251.367439 
L 144.260302 250.843192 
L 144.513229 250.843192 
L 144.513229 249.794696 
L 145.422738 249.794696 
L 145.422738 249.270448 
L 145.957288 249.270448 
L 145.957288 248.746201 
L 146.122697 248.746201 
L 146.122697 248.221953 
L 148.895357 248.221953 
L 148.895357 247.697705 
L 150.421096 247.697705 
L 150.421096 247.173458 
L 151.766488 247.173458 
L 151.766488 246.64921 
L 155.86345 246.64921 
L 155.86345 246.124962 
L 156.83439 246.124962 
L 156.83439 245.600714 
L 157.188707 245.600714 
L 157.188707 244.552219 
L 157.507597 244.552219 
L 157.507597 244.027971 
L 158.59702 244.027971 
L 158.59702 242.979476 
L 158.936662 242.979476 
L 158.936662 242.455228 
L 161.158227 242.455228 
L 161.158227 241.93098 
L 172.319286 241.93098 
L 172.319286 241.406733 
L 174.381734 241.406733 
L 174.381734 240.882485 
L 177.960761 240.882485 
L 177.960761 240.358237 
L 178.857337 240.358237 
L 178.857337 239.309742 
L 190.403739 239.309742 
L 190.403739 238.785494 
L 207.686444 238.785494 
L 207.686444 238.261246 
L 208.342612 238.261246 
L 208.342612 237.736999 
L 209.077297 237.736999 
L 209.077297 237.212751 
L 333.168 237.212751 
" style="fill:none;stroke:#ff0000;stroke-linecap:square;stroke-width:1.5;"/>
   </g>
   <g id="line2d_59">
    <defs>
     <path d="M -6 6 
L 6 6 
L 6 -6 
L -6 -6 
z
" id="m8116a4b55f" style="stroke:#ff0000;stroke-linejoin:miter;stroke-width:1.5;"/>
    </defs>
    <g>
     <use style="fill-opacity:0;stroke:#ff0000;stroke-linejoin:miter;stroke-width:1.5;" x="124.89084" xlink:href="#m8116a4b55f" y="255.037173"/>
     <use style="fill-opacity:0;stroke:#ff0000;stroke-linejoin:miter;stroke-width:1.5;" x="190.403739" xlink:href="#m8116a4b55f" y="238.785494"/>
     <use style="fill-opacity:0;stroke:#ff0000;stroke-linejoin:miter;stroke-width:1.5;" x="209.077297" xlink:href="#m8116a4b55f" y="237.212751"/>
     <use style="fill-opacity:0;stroke:#ff0000;stroke-linejoin:miter;stroke-width:1.5;" x="209.077297" xlink:href="#m8116a4b55f" y="237.212751"/>
     <use style="fill-opacity:0;stroke:#ff0000;stroke-linejoin:miter;stroke-width:1.5;" x="333.168" xlink:href="#m8116a4b55f" y="237.212751"/>
    </g>
   </g>
   <g id="line2d_60">
    <path style="fill:none;stroke:#ff0000;stroke-linecap:square;stroke-width:1.5;"/>
    <g/>
   </g>
   <g id="line2d_61">
    <path clip-path="url(#p3c69d13f96)" d="M 163.11334 241.93098 
" style="fill:none;stroke:#ff0000;stroke-linecap:square;stroke-width:1.5;"/>
    <defs>
     <path d="M -12 12 
L 12 -12 
M -12 -12 
L 12 12 
" id="mb6a828ed54" style="stroke:#ff0000;"/>
    </defs>
    <g clip-path="url(#p3c69d13f96)">
     <use style="fill:#ff0000;stroke:#ff0000;" x="163.11334" xlink:href="#mb6a828ed54" y="241.93098"/>
    </g>
   </g>
   <g id="line2d_62">
    <defs>
     <path d="M 0 1.5 
C 0.397805 1.5 0.77937 1.341951 1.06066 1.06066 
C 1.341951 0.77937 1.5 0.397805 1.5 0 
C 1.5 -0.397805 1.341951 -0.77937 1.06066 -1.06066 
C 0.77937 -1.341951 0.397805 -1.5 0 -1.5 
C -0.397805 -1.5 -0.77937 -1.341951 -1.06066 -1.06066 
C -1.341951 -0.77937 -1.5 -0.397805 -1.5 0 
C -1.5 0.397805 -1.341951 0.77937 -1.06066 1.06066 
C -0.77937 1.341951 -0.397805 1.5 0 1.5 
z
" id="m40e2f6f3be" style="stroke:#bf00bf;"/>
    </defs>
    <g>
     <use style="fill:#bf00bf;stroke:#bf00bf;" x="218.961822" xlink:href="#m40e2f6f3be" y="242.455228"/>
     <use style="fill:#bf00bf;stroke:#bf00bf;" x="218.961822" xlink:href="#m40e2f6f3be" y="242.455228"/>
    </g>
   </g>
   <g id="line2d_63">
    <path d="M -1 270.240357 
L 4.627463 270.240357 
L 4.627463 267.094871 
L 20.377246 267.094871 
L 20.377246 266.570623 
L 32.291498 266.570623 
L 32.291498 265.522128 
L 38.074995 265.522128 
L 38.074995 263.949385 
L 49.364136 263.949385 
L 49.364136 262.900889 
L 91.482579 262.900889 
L 91.482579 262.376641 
L 103.064136 262.376641 
L 103.064136 260.803898 
L 107.910736 260.803898 
L 107.910736 259.755403 
L 108.994971 259.755403 
L 108.994971 259.231155 
L 112.770924 259.231155 
L 112.770924 258.18266 
L 122.516807 258.18266 
L 122.516807 257.658412 
L 125.047386 257.658412 
L 125.047386 257.134164 
L 130.129997 257.134164 
L 130.129997 256.085669 
L 130.17053 256.085669 
L 130.17053 255.561421 
L 131.622705 255.561421 
L 131.622705 255.037173 
L 136.156084 255.037173 
L 136.156084 254.512926 
L 139.653523 254.512926 
L 139.653523 253.46443 
L 140.045425 253.46443 
L 140.045425 252.940182 
L 141.922075 252.940182 
L 141.922075 251.891687 
L 150.315726 251.891687 
L 150.315726 251.367439 
L 156.316651 251.367439 
L 156.316651 250.843192 
L 159.093253 250.843192 
L 159.093253 250.318944 
L 162.677333 250.318944 
L 162.677333 249.794696 
L 167.201241 249.794696 
L 167.201241 249.270448 
L 167.338863 249.270448 
L 167.338863 248.746201 
L 167.509685 248.746201 
L 167.509685 248.221953 
L 180.616548 248.221953 
L 180.616548 247.173458 
L 180.679741 247.173458 
L 180.679741 246.64921 
L 183.47031 246.64921 
L 183.47031 246.124962 
L 183.590674 246.124962 
L 183.590674 245.600714 
L 188.058508 245.600714 
L 188.058508 245.076467 
L 191.676436 245.076467 
L 191.676436 244.552219 
L 199.423493 244.552219 
L 199.423493 244.027971 
L 203.147034 244.027971 
L 203.147034 243.503724 
L 204.74438 243.503724 
L 204.74438 242.979476 
L 218.961822 242.979476 
L 218.961822 242.455228 
L 333.168 242.455228 
" style="fill:none;stroke:#bf00bf;stroke-linecap:square;stroke-width:1.5;"/>
   </g>
   <g id="line2d_64">
    <defs>
     <path d="M -0 8.485281 
L 8.485281 0 
L 0 -8.485281 
L -8.485281 -0 
z
" id="mc71892dbca" style="stroke:#bf00bf;stroke-linejoin:miter;stroke-width:1.5;"/>
    </defs>
    <g>
     <use style="fill-opacity:0;stroke:#bf00bf;stroke-linejoin:miter;stroke-width:1.5;" x="167.509685" xlink:href="#mc71892dbca" y="248.746201"/>
     <use style="fill-opacity:0;stroke:#bf00bf;stroke-linejoin:miter;stroke-width:1.5;" x="218.961822" xlink:href="#mc71892dbca" y="242.979476"/>
     <use style="fill-opacity:0;stroke:#bf00bf;stroke-linejoin:miter;stroke-width:1.5;" x="218.961822" xlink:href="#mc71892dbca" y="242.455228"/>
     <use style="fill-opacity:0;stroke:#bf00bf;stroke-linejoin:miter;stroke-width:1.5;" x="218.961822" xlink:href="#mc71892dbca" y="242.455228"/>
     <use style="fill-opacity:0;stroke:#bf00bf;stroke-linejoin:miter;stroke-width:1.5;" x="333.168" xlink:href="#mc71892dbca" y="242.455228"/>
    </g>
   </g>
   <g id="line2d_65">
    <path style="fill:none;stroke:#bf00bf;stroke-linecap:square;stroke-width:1.5;"/>
    <g/>
   </g>
   <g id="line2d_66">
    <path clip-path="url(#p3c69d13f96)" d="M 151.199089 251.367439 
" style="fill:none;stroke:#bf00bf;stroke-linecap:square;stroke-width:1.5;"/>
    <defs>
     <path d="M -12 12 
L 12 -12 
M -12 -12 
L 12 12 
" id="m61faf05a82" style="stroke:#bf00bf;"/>
    </defs>
    <g clip-path="url(#p3c69d13f96)">
     <use style="fill:#bf00bf;stroke:#bf00bf;" x="151.199089" xlink:href="#m61faf05a82" y="251.367439"/>
    </g>
   </g>
   <g id="line2d_67">
    <path d="M 333.168 242.455228 
L 363.64328 289.532673 
" style="fill:none;stroke:#bf00bf;stroke-linecap:square;stroke-width:1.5;"/>
    <g>
     <use style="fill-opacity:0;stroke:#bf00bf;stroke-linejoin:miter;stroke-width:1.5;" x="333.168" xlink:href="#mc71892dbca" y="242.455228"/>
     <use style="fill-opacity:0;stroke:#bf00bf;stroke-linejoin:miter;stroke-width:1.5;" x="363.64328" xlink:href="#mc71892dbca" y="289.532673"/>
    </g>
   </g>
   <g id="line2d_68">
    <path d="M 333.168 237.212751 
L 363.64328 238.198337 
" style="fill:none;stroke:#ff0000;stroke-linecap:square;stroke-width:1.5;"/>
    <g>
     <use style="fill-opacity:0;stroke:#ff0000;stroke-linejoin:miter;stroke-width:1.5;" x="333.168" xlink:href="#m8116a4b55f" y="237.212751"/>
     <use style="fill-opacity:0;stroke:#ff0000;stroke-linejoin:miter;stroke-width:1.5;" x="363.64328" xlink:href="#m8116a4b55f" y="238.198337"/>
    </g>
   </g>
   <g id="line2d_69">
    <path d="M 333.168 221.485319 
L 363.64328 186.864 
" style="fill:none;stroke:#000000;stroke-linecap:square;stroke-width:1.5;"/>
    <g>
     <use style="fill-opacity:0;stroke:#000000;stroke-width:1.5;" x="333.168" xlink:href="#m86c43056b0" y="221.485319"/>
     <use style="fill-opacity:0;stroke:#000000;stroke-width:1.5;" x="363.64328" xlink:href="#m86c43056b0" y="186.864"/>
    </g>
   </g>
   <g id="line2d_70">
    <path d="M 333.168 200.515411 
L 363.64328 135.529663 
" style="fill:none;stroke:#0000ff;stroke-linecap:square;stroke-width:1.5;"/>
    <g>
     <use style="fill-opacity:0;stroke:#0000ff;stroke-linejoin:bevel;stroke-width:1.5;" x="333.168" xlink:href="#m298d1c6e1d" y="200.515411"/>
     <use style="fill-opacity:0;stroke:#0000ff;stroke-linejoin:bevel;stroke-width:1.5;" x="363.64328" xlink:href="#m298d1c6e1d" y="135.529663"/>
    </g>
   </g>
   <g id="line2d_71">
    <path d="M 333.168 100.908344 
L 363.64328 84.195327 
" style="fill:none;stroke:#008000;stroke-linecap:square;stroke-width:1.5;"/>
    <g>
     <use style="fill-opacity:0;stroke:#008000;stroke-linejoin:miter;stroke-width:1.5;" x="333.168" xlink:href="#m39b19be5af" y="100.908344"/>
     <use style="fill-opacity:0;stroke:#008000;stroke-linejoin:miter;stroke-width:1.5;" x="363.64328" xlink:href="#m39b19be5af" y="84.195327"/>
    </g>
   </g>
   <g id="line2d_72">
    <path d="M 333.168 32.756141 
L 363.64328 32.86099 
" style="fill:none;stroke:#00bfbf;stroke-linecap:square;stroke-width:1.5;"/>
    <g>
     <use style="fill-opacity:0;stroke:#00bfbf;stroke-width:1.5;" x="333.168" xlink:href="#m64bea9e0e1" y="32.756141"/>
     <use style="fill-opacity:0;stroke:#00bfbf;stroke-width:1.5;" x="363.64328" xlink:href="#m64bea9e0e1" y="32.86099"/>
    </g>
   </g>
   <g id="line2d_73">
    <path d="M 333.168 294.88 
L 333.168 27.513663 
" style="fill:none;stroke:#000000;stroke-linecap:square;stroke-width:1.5;"/>
   </g>
   <g id="patch_3">
    <path d="M 56.12 294.88 
L 56.12 24.84 
" style="fill:none;stroke:#000000;stroke-linecap:square;stroke-linejoin:miter;stroke-width:0.8;"/>
   </g>
   <g id="patch_4">
    <path d="M 333.168 294.88 
L 333.168 24.84 
" style="fill:none;stroke:#000000;stroke-linecap:square;stroke-linejoin:miter;stroke-width:0.8;"/>
   </g>
   <g id="patch_5">
    <path d="M 56.12 294.88 
L 333.168 294.88 
" style="fill:none;stroke:#000000;stroke-linecap:square;stroke-linejoin:miter;stroke-width:0.8;"/>
   </g>
   <g id="patch_6">
    <path d="M 56.12 24.84 
L 333.168 24.84 
" style="fill:none;stroke:#000000;stroke-linecap:square;stroke-linejoin:miter;stroke-width:0.8;"/>
   </g>
   <g id="text_13">
    <!-- 40-D -->
    <defs>
     <path d="M 19.671875 64.796875 
L 19.671875 8.109375 
L 31.59375 8.109375 
Q 46.6875 8.109375 53.6875 14.9375 
Q 60.6875 21.78125 60.6875 36.53125 
Q 60.6875 51.171875 53.6875 57.984375 
Q 46.6875 64.796875 31.59375 64.796875 
z
M 9.8125 72.90625 
L 30.078125 72.90625 
Q 51.265625 72.90625 61.171875 64.09375 
Q 71.09375 55.28125 71.09375 36.53125 
Q 71.09375 17.671875 61.125 8.828125 
Q 51.171875 0 30.078125 0 
L 9.8125 0 
z
" id="DejaVuSans-44"/>
    </defs>
    <g transform="translate(369.18424 294.223611)scale(0.17 -0.17)">
     <use xlink:href="#DejaVuSans-34"/>
     <use x="63.623047" xlink:href="#DejaVuSans-30"/>
     <use x="127.246094" xlink:href="#DejaVuSans-2d"/>
     <use x="163.330078" xlink:href="#DejaVuSans-44"/>
    </g>
   </g>
   <g id="text_14">
    <!-- 20-D -->
    <g transform="translate(369.18424 242.889274)scale(0.17 -0.17)">
     <use xlink:href="#DejaVuSans-32"/>
     <use x="63.623047" xlink:href="#DejaVuSans-30"/>
     <use x="127.246094" xlink:href="#DejaVuSans-2d"/>
     <use x="163.330078" xlink:href="#DejaVuSans-44"/>
    </g>
   </g>
   <g id="text_15">
    <!-- 10-D -->
    <g transform="translate(369.18424 191.554937)scale(0.17 -0.17)">
     <use xlink:href="#DejaVuSans-31"/>
     <use x="63.623047" xlink:href="#DejaVuSans-30"/>
     <use x="127.246094" xlink:href="#DejaVuSans-2d"/>
     <use x="163.330078" xlink:href="#DejaVuSans-44"/>
    </g>
   </g>
   <g id="text_16">
    <!-- 5-D -->
    <defs>
     <path d="M 10.796875 72.90625 
L 49.515625 72.90625 
L 49.515625 64.59375 
L 19.828125 64.59375 
L 19.828125 46.734375 
Q 21.96875 47.46875 24.109375 47.828125 
Q 26.265625 48.1875 28.421875 48.1875 
Q 40.625 48.1875 47.75 41.5 
Q 54.890625 34.8125 54.890625 23.390625 
Q 54.890625 11.625 47.5625 5.09375 
Q 40.234375 -1.421875 26.90625 -1.421875 
Q 22.3125 -1.421875 17.546875 -0.640625 
Q 12.796875 0.140625 7.71875 1.703125 
L 7.71875 11.625 
Q 12.109375 9.234375 16.796875 8.0625 
Q 21.484375 6.890625 26.703125 6.890625 
Q 35.15625 6.890625 40.078125 11.328125 
Q 45.015625 15.765625 45.015625 23.390625 
Q 45.015625 31 40.078125 35.4375 
Q 35.15625 39.890625 26.703125 39.890625 
Q 22.75 39.890625 18.8125 39.015625 
Q 14.890625 38.140625 10.796875 36.28125 
z
" id="DejaVuSans-35"/>
    </defs>
    <g transform="translate(369.18424 140.220601)scale(0.17 -0.17)">
     <use xlink:href="#DejaVuSans-35"/>
     <use x="63.623047" xlink:href="#DejaVuSans-2d"/>
     <use x="99.707031" xlink:href="#DejaVuSans-44"/>
    </g>
   </g>
   <g id="text_17">
    <!-- 3-D -->
    <defs>
     <path d="M 40.578125 39.3125 
Q 47.65625 37.796875 51.625 33 
Q 55.609375 28.21875 55.609375 21.1875 
Q 55.609375 10.40625 48.1875 4.484375 
Q 40.765625 -1.421875 27.09375 -1.421875 
Q 22.515625 -1.421875 17.65625 -0.515625 
Q 12.796875 0.390625 7.625 2.203125 
L 7.625 11.71875 
Q 11.71875 9.328125 16.59375 8.109375 
Q 21.484375 6.890625 26.8125 6.890625 
Q 36.078125 6.890625 40.9375 10.546875 
Q 45.796875 14.203125 45.796875 21.1875 
Q 45.796875 27.640625 41.28125 31.265625 
Q 36.765625 34.90625 28.71875 34.90625 
L 20.21875 34.90625 
L 20.21875 43.015625 
L 29.109375 43.015625 
Q 36.375 43.015625 40.234375 45.921875 
Q 44.09375 48.828125 44.09375 54.296875 
Q 44.09375 59.90625 40.109375 62.90625 
Q 36.140625 65.921875 28.71875 65.921875 
Q 24.65625 65.921875 20.015625 65.03125 
Q 15.375 64.15625 9.8125 62.3125 
L 9.8125 71.09375 
Q 15.4375 72.65625 20.34375 73.4375 
Q 25.25 74.21875 29.59375 74.21875 
Q 40.828125 74.21875 47.359375 69.109375 
Q 53.90625 64.015625 53.90625 55.328125 
Q 53.90625 49.265625 50.4375 45.09375 
Q 46.96875 40.921875 40.578125 39.3125 
z
" id="DejaVuSans-33"/>
    </defs>
    <g transform="translate(369.18424 88.886264)scale(0.17 -0.17)">
     <use xlink:href="#DejaVuSans-33"/>
     <use x="63.623047" xlink:href="#DejaVuSans-2d"/>
     <use x="99.707031" xlink:href="#DejaVuSans-44"/>
    </g>
   </g>
   <g id="text_18">
    <!-- 2-D -->
    <g transform="translate(369.18424 37.551928)scale(0.17 -0.17)">
     <use xlink:href="#DejaVuSans-32"/>
     <use x="63.623047" xlink:href="#DejaVuSans-2d"/>
     <use x="99.707031" xlink:href="#DejaVuSans-44"/>
    </g>
   </g>
   <g id="text_19">
    <!-- bbob f23 -->
    <defs>
     <path d="M 48.6875 27.296875 
Q 48.6875 37.203125 44.609375 42.84375 
Q 40.53125 48.484375 33.40625 48.484375 
Q 26.265625 48.484375 22.1875 42.84375 
Q 18.109375 37.203125 18.109375 27.296875 
Q 18.109375 17.390625 22.1875 11.75 
Q 26.265625 6.109375 33.40625 6.109375 
Q 40.53125 6.109375 44.609375 11.75 
Q 48.6875 17.390625 48.6875 27.296875 
z
M 18.109375 46.390625 
Q 20.953125 51.265625 25.265625 53.625 
Q 29.59375 56 35.59375 56 
Q 45.5625 56 51.78125 48.09375 
Q 58.015625 40.1875 58.015625 27.296875 
Q 58.015625 14.40625 51.78125 6.484375 
Q 45.5625 -1.421875 35.59375 -1.421875 
Q 29.59375 -1.421875 25.265625 0.953125 
Q 20.953125 3.328125 18.109375 8.203125 
L 18.109375 0 
L 9.078125 0 
L 9.078125 75.984375 
L 18.109375 75.984375 
z
" id="DejaVuSans-62"/>
    </defs>
    <g transform="translate(58.89048 35.290806)scale(0.102 -0.102)">
     <use xlink:href="#DejaVuSans-62"/>
     <use x="63.476562" xlink:href="#DejaVuSans-62"/>
     <use x="126.953125" xlink:href="#DejaVuSans-6f"/>
     <use x="188.134766" xlink:href="#DejaVuSans-62"/>
     <use x="251.611328" xlink:href="#DejaVuSans-20"/>
     <use x="283.398438" xlink:href="#DejaVuSans-66"/>
     <use x="318.603516" xlink:href="#DejaVuSans-32"/>
     <use x="382.226562" xlink:href="#DejaVuSans-33"/>
    </g>
    <!-- 51 targets: 100..1e-08 -->
    <defs>
     <path d="M 11.71875 12.40625 
L 22.015625 12.40625 
L 22.015625 0 
L 11.71875 0 
z
M 11.71875 51.703125 
L 22.015625 51.703125 
L 22.015625 39.3125 
L 11.71875 39.3125 
z
" id="DejaVuSans-3a"/>
    </defs>
    <g transform="translate(58.89048 46.712575)scale(0.102 -0.102)">
     <use xlink:href="#DejaVuSans-35"/>
     <use x="63.623047" xlink:href="#DejaVuSans-31"/>
     <use x="127.246094" xlink:href="#DejaVuSans-20"/>
     <use x="159.033203" xlink:href="#DejaVuSans-74"/>
     <use x="198.242188" xlink:href="#DejaVuSans-61"/>
     <use x="259.521484" xlink:href="#DejaVuSans-72"/>
     <use x="300.619141" xlink:href="#DejaVuSans-67"/>
     <use x="364.095703" xlink:href="#DejaVuSans-65"/>
     <use x="425.619141" xlink:href="#DejaVuSans-74"/>
     <use x="464.828125" xlink:href="#DejaVuSans-73"/>
     <use x="516.927734" xlink:href="#DejaVuSans-3a"/>
     <use x="550.619141" xlink:href="#DejaVuSans-20"/>
     <use x="582.40625" xlink:href="#DejaVuSans-31"/>
     <use x="646.029297" xlink:href="#DejaVuSans-30"/>
     <use x="709.652344" xlink:href="#DejaVuSans-30"/>
     <use x="773.275391" xlink:href="#DejaVuSans-2e"/>
     <use x="805.0625" xlink:href="#DejaVuSans-2e"/>
     <use x="836.849609" xlink:href="#DejaVuSans-31"/>
     <use x="900.472656" xlink:href="#DejaVuSans-65"/>
     <use x="961.996094" xlink:href="#DejaVuSans-2d"/>
     <use x="998.080078" xlink:href="#DejaVuSans-30"/>
     <use x="1061.703125" xlink:href="#DejaVuSans-38"/>
    </g>
    <!-- 15 instances -->
    <g transform="translate(58.89048 58.134344)scale(0.102 -0.102)">
     <use xlink:href="#DejaVuSans-31"/>
     <use x="63.623047" xlink:href="#DejaVuSans-35"/>
     <use x="127.246094" xlink:href="#DejaVuSans-20"/>
     <use x="159.033203" xlink:href="#DejaVuSans-69"/>
     <use x="186.816406" xlink:href="#DejaVuSans-6e"/>
     <use x="250.195312" xlink:href="#DejaVuSans-73"/>
     <use x="302.294922" xlink:href="#DejaVuSans-74"/>
     <use x="341.503906" xlink:href="#DejaVuSans-61"/>
     <use x="402.783203" xlink:href="#DejaVuSans-6e"/>
     <use x="466.162109" xlink:href="#DejaVuSans-63"/>
     <use x="521.142578" xlink:href="#DejaVuSans-65"/>
     <use x="582.666016" xlink:href="#DejaVuSans-73"/>
    </g>
   </g>
   <g id="text_20">
    <!-- v0.0.0 -->
    <g style="fill:#808080;" transform="translate(178.96275 290.099912)scale(0.1 -0.1)">
     <use xlink:href="#DejaVuSans-76"/>
     <use x="59.179688" xlink:href="#DejaVuSans-30"/>
     <use x="122.802734" xlink:href="#DejaVuSans-2e"/>
     <use x="154.589844" xlink:href="#DejaVuSans-30"/>
     <use x="218.212891" xlink:href="#DejaVuSans-2e"/>
     <use x="250" xlink:href="#DejaVuSans-30"/>
    </g>
   </g>
   <g id="text_21">
    <!-- 23 Katsuuras -->
    <defs>
     <path d="M 9.8125 72.90625 
L 19.671875 72.90625 
L 19.671875 42.09375 
L 52.390625 72.90625 
L 65.09375 72.90625 
L 28.90625 38.921875 
L 67.671875 0 
L 54.6875 0 
L 19.671875 35.109375 
L 19.671875 0 
L 9.8125 0 
z
" id="DejaVuSans-4b"/>
    </defs>
    <g transform="translate(128.803375 18.84)scale(0.2 -0.2)">
     <use xlink:href="#DejaVuSans-32"/>
     <use x="63.623047" xlink:href="#DejaVuSans-33"/>
     <use x="127.246094" xlink:href="#DejaVuSans-20"/>
     <use x="159.033203" xlink:href="#DejaVuSans-4b"/>
     <use x="224.59375" xlink:href="#DejaVuSans-61"/>
     <use x="285.873047" xlink:href="#DejaVuSans-74"/>
     <use x="325.082031" xlink:href="#DejaVuSans-73"/>
     <use x="377.181641" xlink:href="#DejaVuSans-75"/>
     <use x="440.560547" xlink:href="#DejaVuSans-75"/>
     <use x="503.939453" xlink:href="#DejaVuSans-72"/>
     <use x="545.052734" xlink:href="#DejaVuSans-61"/>
     <use x="606.332031" xlink:href="#DejaVuSans-73"/>
    </g>
   </g>
  </g>
 </g>
 <defs>
  <clipPath id="p3c69d13f96">
   <rect height="270.04" width="277.048" x="56.12" y="24.84"/>
  </clipPath>
 </defs>
</svg>
