<?xml version="1.0" encoding="utf-8" standalone="no"?>
<!DOCTYPE svg PUBLIC "-//W3C//DTD SVG 1.1//EN"
  "http://www.w3.org/Graphics/SVG/1.1/DTD/svg11.dtd">
<!-- Created with matplotlib (http://matplotlib.org/) -->
<svg height="345.6pt" version="1.1" viewBox="0 0 460.8 345.6" width="460.8pt" xmlns="http://www.w3.org/2000/svg" xmlns:xlink="http://www.w3.org/1999/xlink">
 <defs>
  <style type="text/css">
*{stroke-linecap:butt;stroke-linejoin:round;}
  </style>
 </defs>
 <g id="figure_1">
  <g id="patch_1">
   <path d="M 0 345.6 
L 460.8 345.6 
L 460.8 0 
L 0 0 
z
" style="fill:#ffffff;"/>
  </g>
  <g id="axes_1">
   <g id="patch_2">
    <path d="M 56.12 294.88 
L 333.168 294.88 
L 333.168 24.84 
L 56.12 24.84 
z
" style="fill:#ffffff;"/>
   </g>
   <g id="matplotlib.axis_1">
    <g id="xtick_1">
     <g id="line2d_1">
      <path clip-path="url(#p51c70e56e7)" d="M 56.12 294.88 
L 56.12 24.84 
" style="fill:none;stroke:#b0b0b0;stroke-linecap:square;stroke-width:0.8;"/>
     </g>
     <g id="line2d_2">
      <defs>
       <path d="M 0 0 
L 0 3.5 
" id="mbca28dc84b" style="stroke:#000000;stroke-width:0.8;"/>
      </defs>
      <g>
       <use style="stroke:#000000;stroke-width:0.8;" x="56.12" xlink:href="#mbca28dc84b" y="294.88"/>
      </g>
     </g>
     <g id="text_1">
      <!-- 0 -->
      <defs>
       <path d="M 31.78125 66.40625 
Q 24.171875 66.40625 20.328125 58.90625 
Q 16.5 51.421875 16.5 36.375 
Q 16.5 21.390625 20.328125 13.890625 
Q 24.171875 6.390625 31.78125 6.390625 
Q 39.453125 6.390625 43.28125 13.890625 
Q 47.125 21.390625 47.125 36.375 
Q 47.125 51.421875 43.28125 58.90625 
Q 39.453125 66.40625 31.78125 66.40625 
z
M 31.78125 74.21875 
Q 44.046875 74.21875 50.515625 64.515625 
Q 56.984375 54.828125 56.984375 36.375 
Q 56.984375 17.96875 50.515625 8.265625 
Q 44.046875 -1.421875 31.78125 -1.421875 
Q 19.53125 -1.421875 13.0625 8.265625 
Q 6.59375 17.96875 6.59375 36.375 
Q 6.59375 54.828125 13.0625 64.515625 
Q 19.53125 74.21875 31.78125 74.21875 
z
" id="DejaVuSans-30"/>
      </defs>
      <g transform="translate(49.7575 317.076875)scale(0.2 -0.2)">
       <use xlink:href="#DejaVuSans-30"/>
      </g>
     </g>
    </g>
    <g id="xtick_2">
     <g id="line2d_3">
      <path clip-path="url(#p51c70e56e7)" d="M 135.276571 294.88 
L 135.276571 24.84 
" style="fill:none;stroke:#b0b0b0;stroke-linecap:square;stroke-width:0.8;"/>
     </g>
     <g id="line2d_4">
      <g>
       <use style="stroke:#000000;stroke-width:0.8;" x="135.276571" xlink:href="#mbca28dc84b" y="294.88"/>
      </g>
     </g>
     <g id="text_2">
      <!-- 2 -->
      <defs>
       <path d="M 19.1875 8.296875 
L 53.609375 8.296875 
L 53.609375 0 
L 7.328125 0 
L 7.328125 8.296875 
Q 12.9375 14.109375 22.625 23.890625 
Q 32.328125 33.6875 34.8125 36.53125 
Q 39.546875 41.84375 41.421875 45.53125 
Q 43.3125 49.21875 43.3125 52.78125 
Q 43.3125 58.59375 39.234375 62.25 
Q 35.15625 65.921875 28.609375 65.921875 
Q 23.96875 65.921875 18.8125 64.3125 
Q 13.671875 62.703125 7.8125 59.421875 
L 7.8125 69.390625 
Q 13.765625 71.78125 18.9375 73 
Q 24.125 74.21875 28.421875 74.21875 
Q 39.75 74.21875 46.484375 68.546875 
Q 53.21875 62.890625 53.21875 53.421875 
Q 53.21875 48.921875 51.53125 44.890625 
Q 49.859375 40.875 45.40625 35.40625 
Q 44.1875 33.984375 37.640625 27.21875 
Q 31.109375 20.453125 19.1875 8.296875 
z
" id="DejaVuSans-32"/>
      </defs>
      <g transform="translate(128.914071 317.076875)scale(0.2 -0.2)">
       <use xlink:href="#DejaVuSans-32"/>
      </g>
     </g>
    </g>
    <g id="xtick_3">
     <g id="line2d_5">
      <path clip-path="url(#p51c70e56e7)" d="M 214.433143 294.88 
L 214.433143 24.84 
" style="fill:none;stroke:#b0b0b0;stroke-linecap:square;stroke-width:0.8;"/>
     </g>
     <g id="line2d_6">
      <g>
       <use style="stroke:#000000;stroke-width:0.8;" x="214.433143" xlink:href="#mbca28dc84b" y="294.88"/>
      </g>
     </g>
     <g id="text_3">
      <!-- 4 -->
      <defs>
       <path d="M 37.796875 64.3125 
L 12.890625 25.390625 
L 37.796875 25.390625 
z
M 35.203125 72.90625 
L 47.609375 72.90625 
L 47.609375 25.390625 
L 58.015625 25.390625 
L 58.015625 17.1875 
L 47.609375 17.1875 
L 47.609375 0 
L 37.796875 0 
L 37.796875 17.1875 
L 4.890625 17.1875 
L 4.890625 26.703125 
z
" id="DejaVuSans-34"/>
      </defs>
      <g transform="translate(208.070643 317.076875)scale(0.2 -0.2)">
       <use xlink:href="#DejaVuSans-34"/>
      </g>
     </g>
    </g>
    <g id="xtick_4">
     <g id="line2d_7">
      <path clip-path="url(#p51c70e56e7)" d="M 293.589714 294.88 
L 293.589714 24.84 
" style="fill:none;stroke:#b0b0b0;stroke-linecap:square;stroke-width:0.8;"/>
     </g>
     <g id="line2d_8">
      <g>
       <use style="stroke:#000000;stroke-width:0.8;" x="293.589714" xlink:href="#mbca28dc84b" y="294.88"/>
      </g>
     </g>
     <g id="text_4">
      <!-- 6 -->
      <defs>
       <path d="M 33.015625 40.375 
Q 26.375 40.375 22.484375 35.828125 
Q 18.609375 31.296875 18.609375 23.390625 
Q 18.609375 15.53125 22.484375 10.953125 
Q 26.375 6.390625 33.015625 6.390625 
Q 39.65625 6.390625 43.53125 10.953125 
Q 47.40625 15.53125 47.40625 23.390625 
Q 47.40625 31.296875 43.53125 35.828125 
Q 39.65625 40.375 33.015625 40.375 
z
M 52.59375 71.296875 
L 52.59375 62.3125 
Q 48.875 64.0625 45.09375 64.984375 
Q 41.3125 65.921875 37.59375 65.921875 
Q 27.828125 65.921875 22.671875 59.328125 
Q 17.53125 52.734375 16.796875 39.40625 
Q 19.671875 43.65625 24.015625 45.921875 
Q 28.375 48.1875 33.59375 48.1875 
Q 44.578125 48.1875 50.953125 41.515625 
Q 57.328125 34.859375 57.328125 23.390625 
Q 57.328125 12.15625 50.6875 5.359375 
Q 44.046875 -1.421875 33.015625 -1.421875 
Q 20.359375 -1.421875 13.671875 8.265625 
Q 6.984375 17.96875 6.984375 36.375 
Q 6.984375 53.65625 15.1875 63.9375 
Q 23.390625 74.21875 37.203125 74.21875 
Q 40.921875 74.21875 44.703125 73.484375 
Q 48.484375 72.75 52.59375 71.296875 
z
" id="DejaVuSans-36"/>
      </defs>
      <g transform="translate(287.227214 317.076875)scale(0.2 -0.2)">
       <use xlink:href="#DejaVuSans-36"/>
      </g>
     </g>
    </g>
    <g id="xtick_5">
     <g id="line2d_9">
      <path clip-path="url(#p51c70e56e7)" d="M 56.12 294.88 
L 56.12 24.84 
" style="fill:none;stroke:#b0b0b0;stroke-linecap:square;stroke-width:0.8;"/>
     </g>
     <g id="line2d_10">
      <defs>
       <path d="M 0 0 
L 0 2 
" id="m8358143ead" style="stroke:#000000;stroke-width:0.6;"/>
      </defs>
      <g>
       <use style="stroke:#000000;stroke-width:0.6;" x="56.12" xlink:href="#m8358143ead" y="294.88"/>
      </g>
     </g>
    </g>
    <g id="xtick_6">
     <g id="line2d_11">
      <path clip-path="url(#p51c70e56e7)" d="M 95.698286 294.88 
L 95.698286 24.84 
" style="fill:none;stroke:#b0b0b0;stroke-linecap:square;stroke-width:0.8;"/>
     </g>
     <g id="line2d_12">
      <g>
       <use style="stroke:#000000;stroke-width:0.6;" x="95.698286" xlink:href="#m8358143ead" y="294.88"/>
      </g>
     </g>
    </g>
    <g id="xtick_7">
     <g id="line2d_13">
      <path clip-path="url(#p51c70e56e7)" d="M 135.276571 294.88 
L 135.276571 24.84 
" style="fill:none;stroke:#b0b0b0;stroke-linecap:square;stroke-width:0.8;"/>
     </g>
     <g id="line2d_14">
      <g>
       <use style="stroke:#000000;stroke-width:0.6;" x="135.276571" xlink:href="#m8358143ead" y="294.88"/>
      </g>
     </g>
    </g>
    <g id="xtick_8">
     <g id="line2d_15">
      <path clip-path="url(#p51c70e56e7)" d="M 174.854857 294.88 
L 174.854857 24.84 
" style="fill:none;stroke:#b0b0b0;stroke-linecap:square;stroke-width:0.8;"/>
     </g>
     <g id="line2d_16">
      <g>
       <use style="stroke:#000000;stroke-width:0.6;" x="174.854857" xlink:href="#m8358143ead" y="294.88"/>
      </g>
     </g>
    </g>
    <g id="xtick_9">
     <g id="line2d_17">
      <path clip-path="url(#p51c70e56e7)" d="M 214.433143 294.88 
L 214.433143 24.84 
" style="fill:none;stroke:#b0b0b0;stroke-linecap:square;stroke-width:0.8;"/>
     </g>
     <g id="line2d_18">
      <g>
       <use style="stroke:#000000;stroke-width:0.6;" x="214.433143" xlink:href="#m8358143ead" y="294.88"/>
      </g>
     </g>
    </g>
    <g id="xtick_10">
     <g id="line2d_19">
      <path clip-path="url(#p51c70e56e7)" d="M 254.011429 294.88 
L 254.011429 24.84 
" style="fill:none;stroke:#b0b0b0;stroke-linecap:square;stroke-width:0.8;"/>
     </g>
     <g id="line2d_20">
      <g>
       <use style="stroke:#000000;stroke-width:0.6;" x="254.011429" xlink:href="#m8358143ead" y="294.88"/>
      </g>
     </g>
    </g>
    <g id="xtick_11">
     <g id="line2d_21">
      <path clip-path="url(#p51c70e56e7)" d="M 293.589714 294.88 
L 293.589714 24.84 
" style="fill:none;stroke:#b0b0b0;stroke-linecap:square;stroke-width:0.8;"/>
     </g>
     <g id="line2d_22">
      <g>
       <use style="stroke:#000000;stroke-width:0.6;" x="293.589714" xlink:href="#m8358143ead" y="294.88"/>
      </g>
     </g>
    </g>
    <g id="xtick_12">
     <g id="line2d_23">
      <path clip-path="url(#p51c70e56e7)" d="M 333.168 294.88 
L 333.168 24.84 
" style="fill:none;stroke:#b0b0b0;stroke-linecap:square;stroke-width:0.8;"/>
     </g>
     <g id="line2d_24">
      <g>
       <use style="stroke:#000000;stroke-width:0.6;" x="333.168" xlink:href="#m8358143ead" y="294.88"/>
      </g>
     </g>
    </g>
    <g id="text_5">
     <!-- log10(# f-evals / dimension) -->
     <defs>
      <path d="M 9.421875 75.984375 
L 18.40625 75.984375 
L 18.40625 0 
L 9.421875 0 
z
" id="DejaVuSans-6c"/>
      <path d="M 30.609375 48.390625 
Q 23.390625 48.390625 19.1875 42.75 
Q 14.984375 37.109375 14.984375 27.296875 
Q 14.984375 17.484375 19.15625 11.84375 
Q 23.34375 6.203125 30.609375 6.203125 
Q 37.796875 6.203125 41.984375 11.859375 
Q 46.1875 17.53125 46.1875 27.296875 
Q 46.1875 37.015625 41.984375 42.703125 
Q 37.796875 48.390625 30.609375 48.390625 
z
M 30.609375 56 
Q 42.328125 56 49.015625 48.375 
Q 55.71875 40.765625 55.71875 27.296875 
Q 55.71875 13.875 49.015625 6.21875 
Q 42.328125 -1.421875 30.609375 -1.421875 
Q 18.84375 -1.421875 12.171875 6.21875 
Q 5.515625 13.875 5.515625 27.296875 
Q 5.515625 40.765625 12.171875 48.375 
Q 18.84375 56 30.609375 56 
z
" id="DejaVuSans-6f"/>
      <path d="M 45.40625 27.984375 
Q 45.40625 37.75 41.375 43.109375 
Q 37.359375 48.484375 30.078125 48.484375 
Q 22.859375 48.484375 18.828125 43.109375 
Q 14.796875 37.75 14.796875 27.984375 
Q 14.796875 18.265625 18.828125 12.890625 
Q 22.859375 7.515625 30.078125 7.515625 
Q 37.359375 7.515625 41.375 12.890625 
Q 45.40625 18.265625 45.40625 27.984375 
z
M 54.390625 6.78125 
Q 54.390625 -7.171875 48.1875 -13.984375 
Q 42 -20.796875 29.203125 -20.796875 
Q 24.46875 -20.796875 20.265625 -20.09375 
Q 16.0625 -19.390625 12.109375 -17.921875 
L 12.109375 -9.1875 
Q 16.0625 -11.328125 19.921875 -12.34375 
Q 23.78125 -13.375 27.78125 -13.375 
Q 36.625 -13.375 41.015625 -8.765625 
Q 45.40625 -4.15625 45.40625 5.171875 
L 45.40625 9.625 
Q 42.625 4.78125 38.28125 2.390625 
Q 33.9375 0 27.875 0 
Q 17.828125 0 11.671875 7.65625 
Q 5.515625 15.328125 5.515625 27.984375 
Q 5.515625 40.671875 11.671875 48.328125 
Q 17.828125 56 27.875 56 
Q 33.9375 56 38.28125 53.609375 
Q 42.625 51.21875 45.40625 46.390625 
L 45.40625 54.6875 
L 54.390625 54.6875 
z
" id="DejaVuSans-67"/>
      <path d="M 12.40625 8.296875 
L 28.515625 8.296875 
L 28.515625 63.921875 
L 10.984375 60.40625 
L 10.984375 69.390625 
L 28.421875 72.90625 
L 38.28125 72.90625 
L 38.28125 8.296875 
L 54.390625 8.296875 
L 54.390625 0 
L 12.40625 0 
z
" id="DejaVuSans-31"/>
      <path d="M 31 75.875 
Q 24.46875 64.65625 21.28125 53.65625 
Q 18.109375 42.671875 18.109375 31.390625 
Q 18.109375 20.125 21.3125 9.0625 
Q 24.515625 -2 31 -13.1875 
L 23.1875 -13.1875 
Q 15.875 -1.703125 12.234375 9.375 
Q 8.59375 20.453125 8.59375 31.390625 
Q 8.59375 42.28125 12.203125 53.3125 
Q 15.828125 64.359375 23.1875 75.875 
z
" id="DejaVuSans-28"/>
      <path d="M 51.125 44 
L 36.921875 44 
L 32.8125 27.6875 
L 47.125 27.6875 
z
M 43.796875 71.78125 
L 38.71875 51.515625 
L 52.984375 51.515625 
L 58.109375 71.78125 
L 65.921875 71.78125 
L 60.890625 51.515625 
L 76.125 51.515625 
L 76.125 44 
L 58.984375 44 
L 54.984375 27.6875 
L 70.515625 27.6875 
L 70.515625 20.21875 
L 53.078125 20.21875 
L 48 0 
L 40.1875 0 
L 45.21875 20.21875 
L 30.90625 20.21875 
L 25.875 0 
L 18.015625 0 
L 23.09375 20.21875 
L 7.71875 20.21875 
L 7.71875 27.6875 
L 24.90625 27.6875 
L 29 44 
L 13.28125 44 
L 13.28125 51.515625 
L 30.90625 51.515625 
L 35.890625 71.78125 
z
" id="DejaVuSans-23"/>
      <path id="DejaVuSans-20"/>
      <path d="M 37.109375 75.984375 
L 37.109375 68.5 
L 28.515625 68.5 
Q 23.6875 68.5 21.796875 66.546875 
Q 19.921875 64.59375 19.921875 59.515625 
L 19.921875 54.6875 
L 34.71875 54.6875 
L 34.71875 47.703125 
L 19.921875 47.703125 
L 19.921875 0 
L 10.890625 0 
L 10.890625 47.703125 
L 2.296875 47.703125 
L 2.296875 54.6875 
L 10.890625 54.6875 
L 10.890625 58.5 
Q 10.890625 67.625 15.140625 71.796875 
Q 19.390625 75.984375 28.609375 75.984375 
z
" id="DejaVuSans-66"/>
      <path d="M 4.890625 31.390625 
L 31.203125 31.390625 
L 31.203125 23.390625 
L 4.890625 23.390625 
z
" id="DejaVuSans-2d"/>
      <path d="M 56.203125 29.59375 
L 56.203125 25.203125 
L 14.890625 25.203125 
Q 15.484375 15.921875 20.484375 11.0625 
Q 25.484375 6.203125 34.421875 6.203125 
Q 39.59375 6.203125 44.453125 7.46875 
Q 49.3125 8.734375 54.109375 11.28125 
L 54.109375 2.78125 
Q 49.265625 0.734375 44.1875 -0.34375 
Q 39.109375 -1.421875 33.890625 -1.421875 
Q 20.796875 -1.421875 13.15625 6.1875 
Q 5.515625 13.8125 5.515625 26.8125 
Q 5.515625 40.234375 12.765625 48.109375 
Q 20.015625 56 32.328125 56 
Q 43.359375 56 49.78125 48.890625 
Q 56.203125 41.796875 56.203125 29.59375 
z
M 47.21875 32.234375 
Q 47.125 39.59375 43.09375 43.984375 
Q 39.0625 48.390625 32.421875 48.390625 
Q 24.90625 48.390625 20.390625 44.140625 
Q 15.875 39.890625 15.1875 32.171875 
z
" id="DejaVuSans-65"/>
      <path d="M 2.984375 54.6875 
L 12.5 54.6875 
L 29.59375 8.796875 
L 46.6875 54.6875 
L 56.203125 54.6875 
L 35.6875 0 
L 23.484375 0 
z
" id="DejaVuSans-76"/>
      <path d="M 34.28125 27.484375 
Q 23.390625 27.484375 19.1875 25 
Q 14.984375 22.515625 14.984375 16.5 
Q 14.984375 11.71875 18.140625 8.90625 
Q 21.296875 6.109375 26.703125 6.109375 
Q 34.1875 6.109375 38.703125 11.40625 
Q 43.21875 16.703125 43.21875 25.484375 
L 43.21875 27.484375 
z
M 52.203125 31.203125 
L 52.203125 0 
L 43.21875 0 
L 43.21875 8.296875 
Q 40.140625 3.328125 35.546875 0.953125 
Q 30.953125 -1.421875 24.3125 -1.421875 
Q 15.921875 -1.421875 10.953125 3.296875 
Q 6 8.015625 6 15.921875 
Q 6 25.140625 12.171875 29.828125 
Q 18.359375 34.515625 30.609375 34.515625 
L 43.21875 34.515625 
L 43.21875 35.40625 
Q 43.21875 41.609375 39.140625 45 
Q 35.0625 48.390625 27.6875 48.390625 
Q 23 48.390625 18.546875 47.265625 
Q 14.109375 46.140625 10.015625 43.890625 
L 10.015625 52.203125 
Q 14.9375 54.109375 19.578125 55.046875 
Q 24.21875 56 28.609375 56 
Q 40.484375 56 46.34375 49.84375 
Q 52.203125 43.703125 52.203125 31.203125 
z
" id="DejaVuSans-61"/>
      <path d="M 44.28125 53.078125 
L 44.28125 44.578125 
Q 40.484375 46.53125 36.375 47.5 
Q 32.28125 48.484375 27.875 48.484375 
Q 21.1875 48.484375 17.84375 46.4375 
Q 14.5 44.390625 14.5 40.28125 
Q 14.5 37.15625 16.890625 35.375 
Q 19.28125 33.59375 26.515625 31.984375 
L 29.59375 31.296875 
Q 39.15625 29.25 43.1875 25.515625 
Q 47.21875 21.78125 47.21875 15.09375 
Q 47.21875 7.46875 41.1875 3.015625 
Q 35.15625 -1.421875 24.609375 -1.421875 
Q 20.21875 -1.421875 15.453125 -0.5625 
Q 10.6875 0.296875 5.421875 2 
L 5.421875 11.28125 
Q 10.40625 8.6875 15.234375 7.390625 
Q 20.0625 6.109375 24.8125 6.109375 
Q 31.15625 6.109375 34.5625 8.28125 
Q 37.984375 10.453125 37.984375 14.40625 
Q 37.984375 18.0625 35.515625 20.015625 
Q 33.0625 21.96875 24.703125 23.78125 
L 21.578125 24.515625 
Q 13.234375 26.265625 9.515625 29.90625 
Q 5.8125 33.546875 5.8125 39.890625 
Q 5.8125 47.609375 11.28125 51.796875 
Q 16.75 56 26.8125 56 
Q 31.78125 56 36.171875 55.265625 
Q 40.578125 54.546875 44.28125 53.078125 
z
" id="DejaVuSans-73"/>
      <path d="M 25.390625 72.90625 
L 33.6875 72.90625 
L 8.296875 -9.28125 
L 0 -9.28125 
z
" id="DejaVuSans-2f"/>
      <path d="M 45.40625 46.390625 
L 45.40625 75.984375 
L 54.390625 75.984375 
L 54.390625 0 
L 45.40625 0 
L 45.40625 8.203125 
Q 42.578125 3.328125 38.25 0.953125 
Q 33.9375 -1.421875 27.875 -1.421875 
Q 17.96875 -1.421875 11.734375 6.484375 
Q 5.515625 14.40625 5.515625 27.296875 
Q 5.515625 40.1875 11.734375 48.09375 
Q 17.96875 56 27.875 56 
Q 33.9375 56 38.25 53.625 
Q 42.578125 51.265625 45.40625 46.390625 
z
M 14.796875 27.296875 
Q 14.796875 17.390625 18.875 11.75 
Q 22.953125 6.109375 30.078125 6.109375 
Q 37.203125 6.109375 41.296875 11.75 
Q 45.40625 17.390625 45.40625 27.296875 
Q 45.40625 37.203125 41.296875 42.84375 
Q 37.203125 48.484375 30.078125 48.484375 
Q 22.953125 48.484375 18.875 42.84375 
Q 14.796875 37.203125 14.796875 27.296875 
z
" id="DejaVuSans-64"/>
      <path d="M 9.421875 54.6875 
L 18.40625 54.6875 
L 18.40625 0 
L 9.421875 0 
z
M 9.421875 75.984375 
L 18.40625 75.984375 
L 18.40625 64.59375 
L 9.421875 64.59375 
z
" id="DejaVuSans-69"/>
      <path d="M 52 44.1875 
Q 55.375 50.25 60.0625 53.125 
Q 64.75 56 71.09375 56 
Q 79.640625 56 84.28125 50.015625 
Q 88.921875 44.046875 88.921875 33.015625 
L 88.921875 0 
L 79.890625 0 
L 79.890625 32.71875 
Q 79.890625 40.578125 77.09375 44.375 
Q 74.3125 48.1875 68.609375 48.1875 
Q 61.625 48.1875 57.5625 43.546875 
Q 53.515625 38.921875 53.515625 30.90625 
L 53.515625 0 
L 44.484375 0 
L 44.484375 32.71875 
Q 44.484375 40.625 41.703125 44.40625 
Q 38.921875 48.1875 33.109375 48.1875 
Q 26.21875 48.1875 22.15625 43.53125 
Q 18.109375 38.875 18.109375 30.90625 
L 18.109375 0 
L 9.078125 0 
L 9.078125 54.6875 
L 18.109375 54.6875 
L 18.109375 46.1875 
Q 21.1875 51.21875 25.484375 53.609375 
Q 29.78125 56 35.6875 56 
Q 41.65625 56 45.828125 52.96875 
Q 50 49.953125 52 44.1875 
z
" id="DejaVuSans-6d"/>
      <path d="M 54.890625 33.015625 
L 54.890625 0 
L 45.90625 0 
L 45.90625 32.71875 
Q 45.90625 40.484375 42.875 44.328125 
Q 39.84375 48.1875 33.796875 48.1875 
Q 26.515625 48.1875 22.3125 43.546875 
Q 18.109375 38.921875 18.109375 30.90625 
L 18.109375 0 
L 9.078125 0 
L 9.078125 54.6875 
L 18.109375 54.6875 
L 18.109375 46.1875 
Q 21.34375 51.125 25.703125 53.5625 
Q 30.078125 56 35.796875 56 
Q 45.21875 56 50.046875 50.171875 
Q 54.890625 44.34375 54.890625 33.015625 
z
" id="DejaVuSans-6e"/>
      <path d="M 8.015625 75.875 
L 15.828125 75.875 
Q 23.140625 64.359375 26.78125 53.3125 
Q 30.421875 42.28125 30.421875 31.390625 
Q 30.421875 20.453125 26.78125 9.375 
Q 23.140625 -1.703125 15.828125 -13.1875 
L 8.015625 -13.1875 
Q 14.5 -2 17.703125 9.0625 
Q 20.90625 20.125 20.90625 31.390625 
Q 20.90625 42.671875 17.703125 53.65625 
Q 14.5 64.65625 8.015625 75.875 
z
" id="DejaVuSans-29"/>
     </defs>
     <g transform="translate(73.803219 338.153594)scale(0.17 -0.17)">
      <use xlink:href="#DejaVuSans-6c"/>
      <use x="27.783203" xlink:href="#DejaVuSans-6f"/>
      <use x="88.964844" xlink:href="#DejaVuSans-67"/>
      <use x="152.441406" xlink:href="#DejaVuSans-31"/>
      <use x="216.064453" xlink:href="#DejaVuSans-30"/>
      <use x="279.6875" xlink:href="#DejaVuSans-28"/>
      <use x="318.701172" xlink:href="#DejaVuSans-23"/>
      <use x="402.490234" xlink:href="#DejaVuSans-20"/>
      <use x="434.277344" xlink:href="#DejaVuSans-66"/>
      <use x="469.404297" xlink:href="#DejaVuSans-2d"/>
      <use x="505.488281" xlink:href="#DejaVuSans-65"/>
      <use x="567.011719" xlink:href="#DejaVuSans-76"/>
      <use x="626.191406" xlink:href="#DejaVuSans-61"/>
      <use x="687.470703" xlink:href="#DejaVuSans-6c"/>
      <use x="715.253906" xlink:href="#DejaVuSans-73"/>
      <use x="767.353516" xlink:href="#DejaVuSans-20"/>
      <use x="799.140625" xlink:href="#DejaVuSans-2f"/>
      <use x="832.832031" xlink:href="#DejaVuSans-20"/>
      <use x="864.619141" xlink:href="#DejaVuSans-64"/>
      <use x="928.095703" xlink:href="#DejaVuSans-69"/>
      <use x="955.878906" xlink:href="#DejaVuSans-6d"/>
      <use x="1053.291016" xlink:href="#DejaVuSans-65"/>
      <use x="1114.814453" xlink:href="#DejaVuSans-6e"/>
      <use x="1178.193359" xlink:href="#DejaVuSans-73"/>
      <use x="1230.292969" xlink:href="#DejaVuSans-69"/>
      <use x="1258.076172" xlink:href="#DejaVuSans-6f"/>
      <use x="1319.257812" xlink:href="#DejaVuSans-6e"/>
      <use x="1382.636719" xlink:href="#DejaVuSans-29"/>
     </g>
    </g>
   </g>
   <g id="matplotlib.axis_2">
    <g id="ytick_1">
     <g id="line2d_25">
      <path clip-path="url(#p51c70e56e7)" d="M 56.12 294.88 
L 333.168 294.88 
" style="fill:none;stroke:#b0b0b0;stroke-linecap:square;stroke-width:0.8;"/>
     </g>
     <g id="line2d_26">
      <defs>
       <path d="M 0 0 
L -3.5 0 
" id="m304bfbbc71" style="stroke:#000000;stroke-width:0.8;"/>
      </defs>
      <g>
       <use style="stroke:#000000;stroke-width:0.8;" x="56.12" xlink:href="#m304bfbbc71" y="294.88"/>
      </g>
     </g>
     <g id="text_6">
      <!-- 0.0 -->
      <defs>
       <path d="M 10.6875 12.40625 
L 21 12.40625 
L 21 0 
L 10.6875 0 
z
" id="DejaVuSans-2e"/>
      </defs>
      <g transform="translate(23.675 300.95875)scale(0.16 -0.16)">
       <use xlink:href="#DejaVuSans-30"/>
       <use x="63.623047" xlink:href="#DejaVuSans-2e"/>
       <use x="95.410156" xlink:href="#DejaVuSans-30"/>
      </g>
     </g>
    </g>
    <g id="ytick_2">
     <g id="line2d_27">
      <path clip-path="url(#p51c70e56e7)" d="M 56.12 241.406733 
L 333.168 241.406733 
" style="fill:none;stroke:#b0b0b0;stroke-linecap:square;stroke-width:0.8;"/>
     </g>
     <g id="line2d_28">
      <g>
       <use style="stroke:#000000;stroke-width:0.8;" x="56.12" xlink:href="#m304bfbbc71" y="241.406733"/>
      </g>
     </g>
     <g id="text_7">
      <!-- 0.2 -->
      <g transform="translate(23.675 247.485483)scale(0.16 -0.16)">
       <use xlink:href="#DejaVuSans-30"/>
       <use x="63.623047" xlink:href="#DejaVuSans-2e"/>
       <use x="95.410156" xlink:href="#DejaVuSans-32"/>
      </g>
     </g>
    </g>
    <g id="ytick_3">
     <g id="line2d_29">
      <path clip-path="url(#p51c70e56e7)" d="M 56.12 187.933465 
L 333.168 187.933465 
" style="fill:none;stroke:#b0b0b0;stroke-linecap:square;stroke-width:0.8;"/>
     </g>
     <g id="line2d_30">
      <g>
       <use style="stroke:#000000;stroke-width:0.8;" x="56.12" xlink:href="#m304bfbbc71" y="187.933465"/>
      </g>
     </g>
     <g id="text_8">
      <!-- 0.4 -->
      <g transform="translate(23.675 194.012215)scale(0.16 -0.16)">
       <use xlink:href="#DejaVuSans-30"/>
       <use x="63.623047" xlink:href="#DejaVuSans-2e"/>
       <use x="95.410156" xlink:href="#DejaVuSans-34"/>
      </g>
     </g>
    </g>
    <g id="ytick_4">
     <g id="line2d_31">
      <path clip-path="url(#p51c70e56e7)" d="M 56.12 134.460198 
L 333.168 134.460198 
" style="fill:none;stroke:#b0b0b0;stroke-linecap:square;stroke-width:0.8;"/>
     </g>
     <g id="line2d_32">
      <g>
       <use style="stroke:#000000;stroke-width:0.8;" x="56.12" xlink:href="#m304bfbbc71" y="134.460198"/>
      </g>
     </g>
     <g id="text_9">
      <!-- 0.6 -->
      <g transform="translate(23.675 140.538948)scale(0.16 -0.16)">
       <use xlink:href="#DejaVuSans-30"/>
       <use x="63.623047" xlink:href="#DejaVuSans-2e"/>
       <use x="95.410156" xlink:href="#DejaVuSans-36"/>
      </g>
     </g>
    </g>
    <g id="ytick_5">
     <g id="line2d_33">
      <path clip-path="url(#p51c70e56e7)" d="M 56.12 80.986931 
L 333.168 80.986931 
" style="fill:none;stroke:#b0b0b0;stroke-linecap:square;stroke-width:0.8;"/>
     </g>
     <g id="line2d_34">
      <g>
       <use style="stroke:#000000;stroke-width:0.8;" x="56.12" xlink:href="#m304bfbbc71" y="80.986931"/>
      </g>
     </g>
     <g id="text_10">
      <!-- 0.8 -->
      <defs>
       <path d="M 31.78125 34.625 
Q 24.75 34.625 20.71875 30.859375 
Q 16.703125 27.09375 16.703125 20.515625 
Q 16.703125 13.921875 20.71875 10.15625 
Q 24.75 6.390625 31.78125 6.390625 
Q 38.8125 6.390625 42.859375 10.171875 
Q 46.921875 13.96875 46.921875 20.515625 
Q 46.921875 27.09375 42.890625 30.859375 
Q 38.875 34.625 31.78125 34.625 
z
M 21.921875 38.8125 
Q 15.578125 40.375 12.03125 44.71875 
Q 8.5 49.078125 8.5 55.328125 
Q 8.5 64.0625 14.71875 69.140625 
Q 20.953125 74.21875 31.78125 74.21875 
Q 42.671875 74.21875 48.875 69.140625 
Q 55.078125 64.0625 55.078125 55.328125 
Q 55.078125 49.078125 51.53125 44.71875 
Q 48 40.375 41.703125 38.8125 
Q 48.828125 37.15625 52.796875 32.3125 
Q 56.78125 27.484375 56.78125 20.515625 
Q 56.78125 9.90625 50.3125 4.234375 
Q 43.84375 -1.421875 31.78125 -1.421875 
Q 19.734375 -1.421875 13.25 4.234375 
Q 6.78125 9.90625 6.78125 20.515625 
Q 6.78125 27.484375 10.78125 32.3125 
Q 14.796875 37.15625 21.921875 38.8125 
z
M 18.3125 54.390625 
Q 18.3125 48.734375 21.84375 45.5625 
Q 25.390625 42.390625 31.78125 42.390625 
Q 38.140625 42.390625 41.71875 45.5625 
Q 45.3125 48.734375 45.3125 54.390625 
Q 45.3125 60.0625 41.71875 63.234375 
Q 38.140625 66.40625 31.78125 66.40625 
Q 25.390625 66.40625 21.84375 63.234375 
Q 18.3125 60.0625 18.3125 54.390625 
z
" id="DejaVuSans-38"/>
      </defs>
      <g transform="translate(23.675 87.065681)scale(0.16 -0.16)">
       <use xlink:href="#DejaVuSans-30"/>
       <use x="63.623047" xlink:href="#DejaVuSans-2e"/>
       <use x="95.410156" xlink:href="#DejaVuSans-38"/>
      </g>
     </g>
    </g>
    <g id="ytick_6">
     <g id="line2d_35">
      <path clip-path="url(#p51c70e56e7)" d="M 56.12 27.513663 
L 333.168 27.513663 
" style="fill:none;stroke:#b0b0b0;stroke-linecap:square;stroke-width:0.8;"/>
     </g>
     <g id="line2d_36">
      <g>
       <use style="stroke:#000000;stroke-width:0.8;" x="56.12" xlink:href="#m304bfbbc71" y="27.513663"/>
      </g>
     </g>
     <g id="text_11">
      <!-- 1.0 -->
      <g transform="translate(23.675 33.592413)scale(0.16 -0.16)">
       <use xlink:href="#DejaVuSans-31"/>
       <use x="63.623047" xlink:href="#DejaVuSans-2e"/>
       <use x="95.410156" xlink:href="#DejaVuSans-30"/>
      </g>
     </g>
    </g>
    <g id="text_12">
     <!-- Fraction of function,target pairs -->
     <defs>
      <path d="M 9.8125 72.90625 
L 51.703125 72.90625 
L 51.703125 64.59375 
L 19.671875 64.59375 
L 19.671875 43.109375 
L 48.578125 43.109375 
L 48.578125 34.8125 
L 19.671875 34.8125 
L 19.671875 0 
L 9.8125 0 
z
" id="DejaVuSans-46"/>
      <path d="M 41.109375 46.296875 
Q 39.59375 47.171875 37.8125 47.578125 
Q 36.03125 48 33.890625 48 
Q 26.265625 48 22.1875 43.046875 
Q 18.109375 38.09375 18.109375 28.8125 
L 18.109375 0 
L 9.078125 0 
L 9.078125 54.6875 
L 18.109375 54.6875 
L 18.109375 46.1875 
Q 20.953125 51.171875 25.484375 53.578125 
Q 30.03125 56 36.53125 56 
Q 37.453125 56 38.578125 55.875 
Q 39.703125 55.765625 41.0625 55.515625 
z
" id="DejaVuSans-72"/>
      <path d="M 48.78125 52.59375 
L 48.78125 44.1875 
Q 44.96875 46.296875 41.140625 47.34375 
Q 37.3125 48.390625 33.40625 48.390625 
Q 24.65625 48.390625 19.8125 42.84375 
Q 14.984375 37.3125 14.984375 27.296875 
Q 14.984375 17.28125 19.8125 11.734375 
Q 24.65625 6.203125 33.40625 6.203125 
Q 37.3125 6.203125 41.140625 7.25 
Q 44.96875 8.296875 48.78125 10.40625 
L 48.78125 2.09375 
Q 45.015625 0.34375 40.984375 -0.53125 
Q 36.96875 -1.421875 32.421875 -1.421875 
Q 20.0625 -1.421875 12.78125 6.34375 
Q 5.515625 14.109375 5.515625 27.296875 
Q 5.515625 40.671875 12.859375 48.328125 
Q 20.21875 56 33.015625 56 
Q 37.15625 56 41.109375 55.140625 
Q 45.0625 54.296875 48.78125 52.59375 
z
" id="DejaVuSans-63"/>
      <path d="M 18.3125 70.21875 
L 18.3125 54.6875 
L 36.8125 54.6875 
L 36.8125 47.703125 
L 18.3125 47.703125 
L 18.3125 18.015625 
Q 18.3125 11.328125 20.140625 9.421875 
Q 21.96875 7.515625 27.59375 7.515625 
L 36.8125 7.515625 
L 36.8125 0 
L 27.59375 0 
Q 17.1875 0 13.234375 3.875 
Q 9.28125 7.765625 9.28125 18.015625 
L 9.28125 47.703125 
L 2.6875 47.703125 
L 2.6875 54.6875 
L 9.28125 54.6875 
L 9.28125 70.21875 
z
" id="DejaVuSans-74"/>
      <path d="M 8.5 21.578125 
L 8.5 54.6875 
L 17.484375 54.6875 
L 17.484375 21.921875 
Q 17.484375 14.15625 20.5 10.265625 
Q 23.53125 6.390625 29.59375 6.390625 
Q 36.859375 6.390625 41.078125 11.03125 
Q 45.3125 15.671875 45.3125 23.6875 
L 45.3125 54.6875 
L 54.296875 54.6875 
L 54.296875 0 
L 45.3125 0 
L 45.3125 8.40625 
Q 42.046875 3.421875 37.71875 1 
Q 33.40625 -1.421875 27.6875 -1.421875 
Q 18.265625 -1.421875 13.375 4.4375 
Q 8.5 10.296875 8.5 21.578125 
z
M 31.109375 56 
z
" id="DejaVuSans-75"/>
      <path d="M 11.71875 12.40625 
L 22.015625 12.40625 
L 22.015625 4 
L 14.015625 -11.625 
L 7.71875 -11.625 
L 11.71875 4 
z
" id="DejaVuSans-2c"/>
      <path d="M 18.109375 8.203125 
L 18.109375 -20.796875 
L 9.078125 -20.796875 
L 9.078125 54.6875 
L 18.109375 54.6875 
L 18.109375 46.390625 
Q 20.953125 51.265625 25.265625 53.625 
Q 29.59375 56 35.59375 56 
Q 45.5625 56 51.78125 48.09375 
Q 58.015625 40.1875 58.015625 27.296875 
Q 58.015625 14.40625 51.78125 6.484375 
Q 45.5625 -1.421875 35.59375 -1.421875 
Q 29.59375 -1.421875 25.265625 0.953125 
Q 20.953125 3.328125 18.109375 8.203125 
z
M 48.6875 27.296875 
Q 48.6875 37.203125 44.609375 42.84375 
Q 40.53125 48.484375 33.40625 48.484375 
Q 26.265625 48.484375 22.1875 42.84375 
Q 18.109375 37.203125 18.109375 27.296875 
Q 18.109375 17.390625 22.1875 11.75 
Q 26.265625 6.109375 33.40625 6.109375 
Q 40.53125 6.109375 44.609375 11.75 
Q 48.6875 17.390625 48.6875 27.296875 
z
" id="DejaVuSans-70"/>
     </defs>
     <g transform="translate(16.139531 294.999375)rotate(-90)scale(0.17 -0.17)">
      <use xlink:href="#DejaVuSans-46"/>
      <use x="57.410156" xlink:href="#DejaVuSans-72"/>
      <use x="98.523438" xlink:href="#DejaVuSans-61"/>
      <use x="159.802734" xlink:href="#DejaVuSans-63"/>
      <use x="214.783203" xlink:href="#DejaVuSans-74"/>
      <use x="253.992188" xlink:href="#DejaVuSans-69"/>
      <use x="281.775391" xlink:href="#DejaVuSans-6f"/>
      <use x="342.957031" xlink:href="#DejaVuSans-6e"/>
      <use x="406.335938" xlink:href="#DejaVuSans-20"/>
      <use x="438.123047" xlink:href="#DejaVuSans-6f"/>
      <use x="499.304688" xlink:href="#DejaVuSans-66"/>
      <use x="534.509766" xlink:href="#DejaVuSans-20"/>
      <use x="566.296875" xlink:href="#DejaVuSans-66"/>
      <use x="601.501953" xlink:href="#DejaVuSans-75"/>
      <use x="664.880859" xlink:href="#DejaVuSans-6e"/>
      <use x="728.259766" xlink:href="#DejaVuSans-63"/>
      <use x="783.240234" xlink:href="#DejaVuSans-74"/>
      <use x="822.449219" xlink:href="#DejaVuSans-69"/>
      <use x="850.232422" xlink:href="#DejaVuSans-6f"/>
      <use x="911.414062" xlink:href="#DejaVuSans-6e"/>
      <use x="974.792969" xlink:href="#DejaVuSans-2c"/>
      <use x="1006.580078" xlink:href="#DejaVuSans-74"/>
      <use x="1045.789062" xlink:href="#DejaVuSans-61"/>
      <use x="1107.068359" xlink:href="#DejaVuSans-72"/>
      <use x="1148.166016" xlink:href="#DejaVuSans-67"/>
      <use x="1211.642578" xlink:href="#DejaVuSans-65"/>
      <use x="1273.166016" xlink:href="#DejaVuSans-74"/>
      <use x="1312.375" xlink:href="#DejaVuSans-20"/>
      <use x="1344.162109" xlink:href="#DejaVuSans-70"/>
      <use x="1407.638672" xlink:href="#DejaVuSans-61"/>
      <use x="1468.917969" xlink:href="#DejaVuSans-69"/>
      <use x="1496.701172" xlink:href="#DejaVuSans-72"/>
      <use x="1537.814453" xlink:href="#DejaVuSans-73"/>
     </g>
    </g>
   </g>
   <g id="line2d_37">
    <defs>
     <path d="M 0 1.5 
C 0.397805 1.5 0.77937 1.341951 1.06066 1.06066 
C 1.341951 0.77937 1.5 0.397805 1.5 0 
C 1.5 -0.397805 1.341951 -0.77937 1.06066 -1.06066 
C 0.77937 -1.341951 0.397805 -1.5 0 -1.5 
C -0.397805 -1.5 -0.77937 -1.341951 -1.06066 -1.06066 
C -1.341951 -0.77937 -1.5 -0.397805 -1.5 0 
C -1.5 0.397805 -1.341951 0.77937 -1.06066 1.06066 
C -0.77937 1.341951 -0.397805 1.5 0 1.5 
z
" id="m1806eb3446" style="stroke:#00bfbf;"/>
    </defs>
    <g>
     <use style="fill:#00bfbf;stroke:#00bfbf;" x="173.309175" xlink:href="#m1806eb3446" y="27.513663"/>
     <use style="fill:#00bfbf;stroke:#00bfbf;" x="173.309175" xlink:href="#m1806eb3446" y="27.513663"/>
    </g>
   </g>
   <g id="line2d_38">
    <path d="M 44.205749 294.88 
L 44.205749 266.046375 
L 56.12 266.046375 
L 56.12 261.852394 
L 63.08939 261.852394 
L 63.08939 259.755403 
L 68.034251 259.755403 
L 68.034251 257.658412 
L 71.869783 257.658412 
L 71.869783 253.46443 
L 75.003641 253.46443 
L 75.003641 252.940182 
L 83.784035 252.940182 
L 83.784035 252.415935 
L 85.422286 252.415935 
L 85.422286 251.891687 
L 86.917893 251.891687 
L 86.917893 250.843192 
L 88.293717 250.843192 
L 88.293717 245.600714 
L 92.904808 245.600714 
L 92.904808 244.552219 
L 93.887283 244.552219 
L 93.887283 242.455228 
L 95.698286 242.455228 
L 95.698286 241.93098 
L 97.336537 241.93098 
L 97.336537 240.882485 
L 102.667676 240.882485 
L 102.667676 240.358237 
L 104.305927 240.358237 
L 104.305927 238.261246 
L 104.819059 238.261246 
L 104.819059 237.736999 
L 108.451173 237.736999 
L 108.451173 234.591512 
L 109.250788 234.591512 
L 109.250788 232.494521 
L 109.637066 232.494521 
L 109.637066 231.446026 
L 110.384516 231.446026 
L 110.384516 229.873283 
L 111.448069 229.873283 
L 111.448069 228.824787 
L 118.869818 228.824787 
L 118.869818 228.30054 
L 121.551317 228.30054 
L 121.551317 226.727797 
L 122.114929 226.727797 
L 122.114929 224.106558 
L 123.533353 224.106558 
L 123.533353 223.58231 
L 123.7027 223.58231 
L 123.7027 223.058063 
L 124.843597 223.058063 
L 124.843597 222.009567 
L 125.000572 222.009567 
L 125.000572 220.436824 
L 126.92061 220.436824 
L 126.92061 218.339833 
L 131.548134 218.339833 
L 131.548134 214.145851 
L 131.865471 214.145851 
L 131.865471 213.621604 
L 133.465568 213.621604 
L 133.465568 207.330631 
L 134.753019 207.330631 
L 134.753019 205.757888 
L 135.616951 205.757888 
L 135.701004 201.563906 
L 136.033161 201.563906 
L 136.033161 200.515411 
L 137.070377 200.515411 
L 137.070377 199.991163 
L 137.901638 199.991163 
L 137.901638 194.224438 
L 138.266591 194.224438 
L 138.266591 193.70019 
L 138.904592 193.70019 
L 138.904592 193.175943 
L 140.178407 193.175943 
L 140.178407 192.127447 
L 141.95707 192.127447 
L 141.95707 191.603199 
L 142.530078 191.603199 
L 142.530078 188.457713 
L 144.091308 188.457713 
L 144.142694 180.593997 
L 144.295937 180.593997 
L 144.295937 179.545502 
L 144.698028 179.545502 
L 144.698028 179.021254 
L 145.37982 179.021254 
L 145.475048 173.778777 
L 145.85077 173.778777 
L 145.897164 171.681786 
L 148.55342 171.681786 
L 148.55342 171.157538 
L 149.778964 171.157538 
L 149.778964 169.584795 
L 150.072167 169.584795 
L 150.072167 169.060547 
L 150.502803 169.060547 
L 150.502803 168.5363 
L 150.957462 168.5363 
L 150.957462 168.012052 
L 151.094972 168.012052 
L 151.094972 166.439309 
L 151.332999 166.439309 
L 151.332999 164.342318 
L 151.634268 164.342318 
L 151.634268 155.954354 
L 152.027918 155.954354 
L 152.027918 152.808868 
L 152.157156 152.808868 
L 152.189314 149.139134 
L 152.28543 149.139134 
L 152.28543 147.042143 
L 152.539141 147.042143 
L 152.539141 145.993648 
L 153.278551 145.993648 
L 153.278551 142.848162 
L 153.754391 142.848162 
L 153.754391 142.323914 
L 153.929489 142.323914 
L 153.929489 141.799666 
L 154.834363 141.799666 
L 154.861887 138.129932 
L 155.026111 138.129932 
L 155.026111 132.887455 
L 155.667752 132.887455 
L 155.667752 130.266216 
L 156.858892 130.266216 
L 156.858892 129.741969 
L 157.02944 129.741969 
L 157.053666 128.169225 
L 157.246258 128.169225 
L 157.246258 127.12073 
L 157.765022 127.12073 
L 157.765022 126.072235 
L 157.995745 126.072235 
L 157.995745 122.926748 
L 158.313642 122.926748 
L 158.313642 116.635776 
L 158.470412 116.635776 
L 158.470412 116.111528 
L 159.233507 116.111528 
L 159.233507 115.58728 
L 159.382144 115.58728 
L 159.466505 113.490289 
L 159.592276 113.490289 
L 159.592276 112.441794 
L 160.268033 112.441794 
L 160.268033 111.917546 
L 160.447811 111.917546 
L 160.507322 105.102326 
L 161.243814 105.102326 
L 161.243814 102.481087 
L 161.394923 102.481087 
L 161.469983 98.287105 
L 161.693215 98.287105 
L 161.693215 95.665867 
L 162.040842 95.665867 
L 162.040842 95.141619 
L 162.715689 95.141619 
L 162.819862 90.947637 
L 163.077568 90.947637 
L 163.077568 89.899142 
L 163.24725 89.899142 
L 163.24725 89.374894 
L 163.398544 89.374894 
L 163.398544 87.277903 
L 163.598221 87.277903 
L 163.64778 86.229408 
L 163.844598 86.229408 
L 163.844598 84.132417 
L 163.958377 84.132417 
L 163.958377 83.083922 
L 164.85785 83.083922 
L 164.919238 82.035426 
L 165.071755 82.035426 
L 165.086933 79.938435 
L 165.207874 79.938435 
L 165.207874 78.365692 
L 165.609878 78.365692 
L 165.609878 74.695958 
L 165.945063 74.695958 
L 166.031439 73.123215 
L 166.217109 73.123215 
L 166.217109 71.026224 
L 166.858446 71.026224 
L 166.858446 68.929233 
L 167.264176 68.929233 
L 167.264176 60.54127 
L 167.476712 60.54127 
L 167.529438 54.250297 
L 167.673606 54.250297 
L 167.673606 53.726049 
L 167.855361 53.726049 
L 167.855361 52.153306 
L 168.351772 52.153306 
L 168.351772 50.056315 
L 168.551352 50.056315 
L 168.563749 45.862334 
L 168.967918 45.862334 
L 168.99211 40.095609 
L 169.196381 40.095609 
L 169.196381 39.571361 
L 169.586109 39.571361 
L 169.586109 38.522865 
L 169.967196 38.522865 
L 169.967196 35.377379 
L 170.395806 35.377379 
L 170.395806 34.853131 
L 170.737715 34.853131 
L 170.737715 31.707645 
L 171.370234 31.707645 
L 171.370234 30.65915 
L 171.683143 30.65915 
L 171.683143 30.134902 
L 172.061379 30.134902 
L 172.121938 28.037911 
L 173.309175 28.037911 
L 173.309175 27.513663 
L 333.168 27.513663 
L 333.168 27.513663 
" style="fill:none;stroke:#00bfbf;stroke-linecap:square;stroke-width:1.5;"/>
   </g>
   <g id="line2d_39">
    <defs>
     <path d="M -6 0 
L 6 0 
M 0 6 
L 0 -6 
" id="m7eca0a28eb" style="stroke:#00bfbf;stroke-width:1.5;"/>
    </defs>
    <g>
     <use style="fill-opacity:0;stroke:#00bfbf;stroke-width:1.5;" x="131.865471" xlink:href="#m7eca0a28eb" y="213.621604"/>
     <use style="fill-opacity:0;stroke:#00bfbf;stroke-width:1.5;" x="163.958377" xlink:href="#m7eca0a28eb" y="84.132417"/>
     <use style="fill-opacity:0;stroke:#00bfbf;stroke-width:1.5;" x="173.309175" xlink:href="#m7eca0a28eb" y="28.037911"/>
     <use style="fill-opacity:0;stroke:#00bfbf;stroke-width:1.5;" x="173.309175" xlink:href="#m7eca0a28eb" y="27.513663"/>
     <use style="fill-opacity:0;stroke:#00bfbf;stroke-width:1.5;" x="173.309175" xlink:href="#m7eca0a28eb" y="27.513663"/>
     <use style="fill-opacity:0;stroke:#00bfbf;stroke-width:1.5;" x="333.168" xlink:href="#m7eca0a28eb" y="27.513663"/>
    </g>
   </g>
   <g id="line2d_40">
    <path style="fill:none;stroke:#00bfbf;stroke-linecap:square;stroke-width:1.5;"/>
    <g/>
   </g>
   <g id="line2d_41">
    <defs>
     <path d="M 0 1.5 
C 0.397805 1.5 0.77937 1.341951 1.06066 1.06066 
C 1.341951 0.77937 1.5 0.397805 1.5 0 
C 1.5 -0.397805 1.341951 -0.77937 1.06066 -1.06066 
C 0.77937 -1.341951 0.397805 -1.5 0 -1.5 
C -0.397805 -1.5 -0.77937 -1.341951 -1.06066 -1.06066 
C -1.341951 -0.77937 -1.5 -0.397805 -1.5 0 
C -1.5 0.397805 -1.341951 0.77937 -1.06066 1.06066 
C -0.77937 1.341951 -0.397805 1.5 0 1.5 
z
" id="md7061837d2" style="stroke:#008000;"/>
    </defs>
    <g>
     <use style="fill:#008000;stroke:#008000;" x="209.371769" xlink:href="#md7061837d2" y="27.513663"/>
     <use style="fill:#008000;stroke:#008000;" x="209.371769" xlink:href="#md7061837d2" y="27.513663"/>
    </g>
   </g>
   <g id="line2d_42">
    <path d="M 37.236359 294.88 
L 37.236359 273.910091 
L 49.15061 273.910091 
L 49.15061 272.337348 
L 56.12 272.337348 
L 56.12 268.667614 
L 61.064861 268.667614 
L 61.064861 267.619119 
L 64.900393 267.619119 
L 64.900393 264.99788 
L 72.979112 264.99788 
L 72.979112 264.473632 
L 76.814644 264.473632 
L 76.814644 262.900889 
L 79.948502 262.900889 
L 79.948502 262.376641 
L 81.324327 262.376641 
L 81.324327 260.279651 
L 84.893363 260.279651 
L 84.893363 258.706907 
L 87.847234 258.706907 
L 87.847234 257.658412 
L 88.728896 257.658412 
L 88.728896 256.609917 
L 91.862754 256.609917 
L 91.862754 255.561421 
L 96.261898 255.561421 
L 96.261898 255.037173 
L 97.849669 255.037173 
L 97.849669 254.512926 
L 103.415125 254.512926 
L 103.415125 252.940182 
L 108.988361 252.940182 
L 108.988361 252.415935 
L 111.448069 252.415935 
L 111.448069 251.891687 
L 112.122219 251.891687 
L 112.122219 251.367439 
L 112.98183 251.367439 
L 112.98183 249.794696 
L 115.145539 249.794696 
L 115.145539 249.270448 
L 118.031182 249.270448 
L 118.031182 247.173458 
L 121.551317 247.173458 
L 121.551317 246.64921 
L 124.363883 246.64921 
L 124.363883 246.124962 
L 125.000572 246.124962 
L 125.000572 245.600714 
L 127.42552 245.600714 
L 127.42552 245.076467 
L 129.470141 245.076467 
L 129.470141 244.027971 
L 130.709498 244.027971 
L 130.709498 241.406733 
L 131.935202 241.406733 
L 131.935202 238.785494 
L 132.61738 238.785494 
L 132.61738 237.736999 
L 133.967462 237.736999 
L 133.967462 236.164255 
L 134.213018 236.164255 
L 134.213018 233.543017 
L 135.10382 233.543017 
L 135.10382 233.018769 
L 136.966831 233.018769 
L 136.966831 232.494521 
L 138.072914 232.494521 
L 138.072914 230.921778 
L 138.314671 230.921778 
L 138.314671 230.397531 
L 139.653523 230.397531 
L 139.742124 228.30054 
L 139.874176 228.30054 
L 139.874176 227.776292 
L 140.477347 227.776292 
L 140.477347 227.252044 
L 140.687737 227.252044 
L 140.687737 226.727797 
L 141.58403 226.727797 
L 141.58403 226.203549 
L 142.130987 226.203549 
L 142.130987 224.630806 
L 143.029944 224.630806 
L 143.029944 223.58231 
L 143.533413 223.58231 
L 143.533413 220.961072 
L 144.022553 220.961072 
L 144.022553 219.388328 
L 144.295937 219.388328 
L 144.295937 216.242842 
L 144.895601 216.242842 
L 144.895601 215.718594 
L 145.058527 215.718594 
L 145.058527 214.145851 
L 145.757607 214.145851 
L 145.757607 213.621604 
L 145.881713 213.621604 
L 145.881713 213.097356 
L 146.608101 213.097356 
L 146.608101 212.573108 
L 147.018071 212.573108 
L 147.018071 212.04886 
L 147.333468 212.04886 
L 147.41849 209.427622 
L 147.782136 209.427622 
L 147.782136 208.379126 
L 147.919977 208.379126 
L 148.029459 205.23364 
L 148.056721 205.23364 
L 148.138248 203.136649 
L 148.645797 203.136649 
L 148.645797 202.612401 
L 148.932933 202.612401 
L 148.932933 201.039658 
L 150.276868 201.039658 
L 150.300791 197.369924 
L 150.443634 197.369924 
L 150.490985 194.748686 
L 151.501022 194.748686 
L 151.501022 193.70019 
L 151.634268 193.70019 
L 151.634268 192.651695 
L 152.327976 192.651695 
L 152.412754 188.457713 
L 152.643759 188.457713 
L 152.726997 187.409218 
L 153.07633 187.409218 
L 153.07633 186.88497 
L 153.197948 186.88497 
L 153.197948 184.263731 
L 153.968159 184.263731 
L 153.968159 183.739484 
L 154.179301 183.739484 
L 154.255441 179.021254 
L 154.331245 179.021254 
L 154.331245 177.972759 
L 154.556673 177.972759 
L 154.556673 176.924263 
L 155.143749 176.924263 
L 155.215743 171.681786 
L 155.781093 171.681786 
L 155.867773 168.5363 
L 156.005559 168.5363 
L 156.005559 167.487804 
L 156.159258 167.487804 
L 156.159258 165.390813 
L 156.328439 165.390813 
L 156.37887 164.342318 
L 156.529282 164.342318 
L 156.529282 160.672584 
L 156.760671 160.672584 
L 156.809852 157.00285 
L 157.021357 157.00285 
L 157.021357 156.478602 
L 157.134175 156.478602 
L 157.134175 155.954354 
L 157.294071 155.954354 
L 157.294071 154.381611 
L 157.436716 154.381611 
L 157.484002 149.663382 
L 157.734023 149.663382 
L 157.734023 148.614886 
L 157.949847 148.614886 
L 157.949847 148.090639 
L 158.208328 148.090639 
L 158.223412 144.945152 
L 158.328634 144.945152 
L 158.328634 143.896657 
L 158.72856 143.896657 
L 158.72856 138.129932 
L 158.859827 138.129932 
L 158.917848 134.984446 
L 159.233507 134.984446 
L 159.304447 122.4025 
L 159.360989 122.4025 
L 159.375095 120.829757 
L 159.806748 120.829757 
L 159.806748 120.30551 
L 159.984587 120.30551 
L 159.984587 119.781262 
L 160.361486 119.781262 
L 160.361486 118.732766 
L 160.651931 118.732766 
L 160.717262 114.014537 
L 161.332122 114.014537 
L 161.332122 112.441794 
L 161.803753 112.441794 
L 161.803753 111.917546 
L 161.986418 111.917546 
L 161.986418 111.393298 
L 162.11915 111.393298 
L 162.131166 108.247812 
L 162.322285 108.247812 
L 162.322285 106.675069 
L 162.464243 106.675069 
L 162.569947 104.05383 
L 162.790989 104.05383 
L 162.894708 97.23861 
L 162.997806 97.23861 
L 163.020633 94.093124 
L 163.537454 94.093124 
L 163.548519 91.471885 
L 164.071407 91.471885 
L 164.071407 90.42339 
L 164.252847 90.42339 
L 164.30585 86.753656 
L 164.463883 86.753656 
L 164.505781 84.132417 
L 164.578857 84.132417 
L 164.59968 82.035426 
L 164.970227 82.035426 
L 165.000749 79.938435 
L 165.14247 79.938435 
L 165.14247 79.414188 
L 165.491743 79.414188 
L 165.590245 78.365692 
L 165.688186 78.365692 
L 165.746684 76.792949 
L 165.949873 76.792949 
L 165.959489 74.17171 
L 166.245497 74.17171 
L 166.330379 67.35649 
L 166.433558 67.35649 
L 166.433558 66.307995 
L 166.675001 66.307995 
L 166.675001 64.211004 
L 167.174838 64.211004 
L 167.174838 63.686756 
L 167.406159 63.686756 
L 167.406159 62.114013 
L 167.738739 62.114013 
L 167.738739 60.017022 
L 168.426886 60.017022 
L 168.518249 58.444279 
L 168.567879 58.444279 
L 168.567879 57.920031 
L 169.024313 57.920031 
L 169.096552 54.250297 
L 196.109232 54.250297 
L 196.195532 53.201802 
L 196.37176 53.201802 
L 196.466535 52.153306 
L 196.551064 52.153306 
L 196.560791 51.104811 
L 196.726913 51.104811 
L 196.798989 49.532068 
L 196.861212 49.532068 
L 196.902569 48.483572 
L 196.981823 48.483572 
L 197.052841 46.910829 
L 197.327815 46.910829 
L 197.395877 45.338086 
L 197.612185 45.338086 
L 197.680651 42.716847 
L 197.736741 42.716847 
L 197.830322 41.144104 
L 197.981685 41.144104 
L 198.082848 36.950122 
L 198.093228 36.950122 
L 198.112488 35.901627 
L 198.221717 35.901627 
L 198.322943 34.328884 
L 198.468598 34.328884 
L 198.523625 32.231893 
L 198.579917 32.231893 
L 198.591441 31.183397 
L 198.711983 31.183397 
L 198.803261 29.610654 
L 199.020931 29.610654 
L 199.020931 29.086407 
L 208.280275 29.086407 
L 208.280275 28.562159 
L 208.580063 28.562159 
L 208.580063 28.037911 
L 209.371769 28.037911 
L 209.371769 27.513663 
L 333.168 27.513663 
L 333.168 27.513663 
" style="fill:none;stroke:#008000;stroke-linecap:square;stroke-width:1.5;"/>
   </g>
   <g id="line2d_43">
    <defs>
     <path d="M -0 6 
L 6 -6 
L -6 -6 
z
" id="m2802ddc071" style="stroke:#008000;stroke-linejoin:miter;stroke-width:1.5;"/>
    </defs>
    <g>
     <use style="fill-opacity:0;stroke:#008000;stroke-linejoin:miter;stroke-width:1.5;" x="134.213018" xlink:href="#m2802ddc071" y="236.164255"/>
     <use style="fill-opacity:0;stroke:#008000;stroke-linejoin:miter;stroke-width:1.5;" x="158.917848" xlink:href="#m2802ddc071" y="134.984446"/>
     <use style="fill-opacity:0;stroke:#008000;stroke-linejoin:miter;stroke-width:1.5;" x="199.020931" xlink:href="#m2802ddc071" y="29.610654"/>
     <use style="fill-opacity:0;stroke:#008000;stroke-linejoin:miter;stroke-width:1.5;" x="209.371769" xlink:href="#m2802ddc071" y="27.513663"/>
     <use style="fill-opacity:0;stroke:#008000;stroke-linejoin:miter;stroke-width:1.5;" x="209.371769" xlink:href="#m2802ddc071" y="27.513663"/>
     <use style="fill-opacity:0;stroke:#008000;stroke-linejoin:miter;stroke-width:1.5;" x="333.168" xlink:href="#m2802ddc071" y="27.513663"/>
    </g>
   </g>
   <g id="line2d_44">
    <path style="fill:none;stroke:#008000;stroke-linecap:square;stroke-width:1.5;"/>
    <g/>
   </g>
   <g id="line2d_45">
    <path clip-path="url(#p51c70e56e7)" d="M 195.722236 54.250297 
" style="fill:none;stroke:#008000;stroke-linecap:square;stroke-width:1.5;"/>
    <defs>
     <path d="M -12 12 
L 12 -12 
M -12 -12 
L 12 12 
" id="m760ae6909c" style="stroke:#008000;"/>
    </defs>
    <g clip-path="url(#p51c70e56e7)">
     <use style="fill:#008000;stroke:#008000;" x="195.722236" xlink:href="#m760ae6909c" y="54.250297"/>
    </g>
   </g>
   <g id="line2d_46">
    <defs>
     <path d="M 0 1.5 
C 0.397805 1.5 0.77937 1.341951 1.06066 1.06066 
C 1.341951 0.77937 1.5 0.397805 1.5 0 
C 1.5 -0.397805 1.341951 -0.77937 1.06066 -1.06066 
C 0.77937 -1.341951 0.397805 -1.5 0 -1.5 
C -0.397805 -1.5 -0.77937 -1.341951 -1.06066 -1.06066 
C -1.341951 -0.77937 -1.5 -0.397805 -1.5 0 
C -1.5 0.397805 -1.341951 0.77937 -1.06066 1.06066 
C -0.77937 1.341951 -0.397805 1.5 0 1.5 
z
" id="mb563545fa9" style="stroke:#0000ff;"/>
    </defs>
    <g>
     <use style="fill:#0000ff;stroke:#0000ff;" x="237.689649" xlink:href="#mb563545fa9" y="27.513663"/>
     <use style="fill:#0000ff;stroke:#0000ff;" x="237.689649" xlink:href="#mb563545fa9" y="27.513663"/>
    </g>
   </g>
   <g id="line2d_47">
    <path d="M 28.455965 294.88 
L 28.455965 284.395046 
L 40.370217 284.395046 
L 40.370217 283.870798 
L 47.339607 283.870798 
L 47.339607 281.249559 
L 52.284468 281.249559 
L 52.284468 280.201064 
L 66.223248 280.201064 
L 66.223248 277.055578 
L 71.168109 277.055578 
L 71.168109 276.53133 
L 73.817748 276.53133 
L 73.817748 275.482834 
L 77.155024 275.482834 
L 77.155024 273.910091 
L 78.137499 273.910091 
L 78.137499 272.337348 
L 81.586754 272.337348 
L 81.586754 270.764605 
L 82.350819 270.764605 
L 82.350819 270.240357 
L 86.917893 270.240357 
L 86.917893 269.716109 
L 88.027221 269.716109 
L 88.027221 269.191862 
L 90.05175 269.191862 
L 90.05175 268.667614 
L 93.105847 268.667614 
L 93.105847 267.619119 
L 96.372436 267.619119 
L 96.372436 266.570623 
L 98.543252 266.570623 
L 98.543252 266.046375 
L 103.120034 266.046375 
L 103.120034 265.522128 
L 110.88904 265.522128 
L 110.88904 263.425137 
L 112.122219 263.425137 
L 112.122219 262.900889 
L 125.5541 262.900889 
L 125.5541 262.376641 
L 126.090357 262.376641 
L 126.090357 260.803898 
L 126.553378 260.803898 
L 126.553378 259.755403 
L 127.004254 259.755403 
L 127.004254 259.231155 
L 127.443604 259.231155 
L 127.443604 258.18266 
L 128.029939 258.18266 
L 128.029939 257.658412 
L 129.341145 257.658412 
L 129.341145 257.134164 
L 132.52349 257.134164 
L 132.52349 255.037173 
L 132.72406 255.037173 
L 132.72406 254.512926 
L 134.322384 254.512926 
L 134.322384 253.988678 
L 134.823755 253.988678 
L 134.823755 253.46443 
L 135.447604 253.46443 
L 135.447604 252.940182 
L 135.650622 252.940182 
L 135.650622 252.415935 
L 136.72628 252.415935 
L 136.72628 251.891687 
L 137.316373 251.891687 
L 137.316373 251.367439 
L 139.08458 251.367439 
L 139.08458 249.794696 
L 139.626853 249.794696 
L 139.626853 247.697705 
L 140.204235 247.697705 
L 140.204235 247.173458 
L 140.332797 247.173458 
L 140.332797 246.64921 
L 141.352234 246.64921 
L 141.352234 246.124962 
L 142.314579 246.124962 
L 142.314579 244.552219 
L 143.182539 244.552219 
L 143.182539 244.027971 
L 143.611205 244.027971 
L 143.716722 242.455228 
L 144.717888 242.455228 
L 144.717888 240.358237 
L 144.856267 240.358237 
L 144.856267 239.83399 
L 145.626324 239.83399 
L 145.626324 238.785494 
L 145.980357 238.785494 
L 145.980357 237.736999 
L 147.104664 237.736999 
L 147.104664 237.212751 
L 147.815319 237.212751 
L 147.815319 236.688503 
L 148.417919 236.688503 
L 148.417919 235.640008 
L 148.860298 235.640008 
L 148.860298 234.591512 
L 149.046458 234.591512 
L 149.046458 234.067265 
L 149.623006 234.067265 
L 149.623006 233.018769 
L 150.538207 233.018769 
L 150.636952 230.921778 
L 151.779655 230.921778 
L 151.832219 229.349035 
L 151.962932 229.349035 
L 151.975949 228.30054 
L 152.31097 228.30054 
L 152.31097 226.727797 
L 153.206025 226.727797 
L 153.206025 225.679301 
L 153.541892 225.679301 
L 153.541892 225.155053 
L 154.399185 225.155053 
L 154.399185 224.106558 
L 154.534263 224.106558 
L 154.556673 221.485319 
L 154.67941 221.485319 
L 154.67941 220.961072 
L 155.344578 220.961072 
L 155.344578 218.864081 
L 155.472454 218.864081 
L 155.472454 218.339833 
L 155.630973 218.339833 
L 155.630973 217.291338 
L 155.777617 217.291338 
L 155.777617 215.718594 
L 156.661886 215.718594 
L 156.661886 215.194347 
L 157.568792 215.194347 
L 157.568792 214.145851 
L 157.802146 214.145851 
L 157.820678 211.524613 
L 158.105402 211.524613 
L 158.105402 210.476117 
L 158.30464 210.476117 
L 158.30464 209.95187 
L 158.862733 209.95187 
L 158.862733 209.427622 
L 159.182249 209.427622 
L 159.182249 208.903374 
L 159.445454 208.903374 
L 159.445454 208.379126 
L 160.057921 208.379126 
L 160.057921 207.854879 
L 160.276064 207.854879 
L 160.276064 207.330631 
L 160.805716 207.330631 
L 160.821278 205.23364 
L 161.752257 205.23364 
L 161.803753 203.136649 
L 162.037219 203.136649 
L 162.037219 202.612401 
L 162.174353 202.612401 
L 162.174353 201.039658 
L 163.375097 201.039658 
L 163.375097 199.991163 
L 163.68074 199.991163 
L 163.68074 198.942667 
L 165.545004 198.942667 
L 165.545004 198.41842 
L 173.695954 198.41842 
L 173.695954 197.894172 
L 174.260278 197.894172 
L 174.260278 197.369924 
L 187.459778 197.369924 
L 187.459778 196.321429 
L 187.874139 196.321429 
L 187.972181 194.748686 
L 188.004205 194.748686 
L 188.1031 193.175943 
L 188.117409 193.175943 
L 188.177692 192.127447 
L 188.234608 192.127447 
L 188.278746 187.409218 
L 188.355716 187.409218 
L 188.429222 185.312227 
L 188.678663 185.312227 
L 188.740078 182.690988 
L 188.79822 182.690988 
L 188.904812 179.021254 
L 189.031856 179.021254 
L 189.12203 174.827272 
L 189.162454 174.827272 
L 189.204276 171.681786 
L 189.333576 171.681786 
L 189.373506 168.012052 
L 189.479537 168.012052 
L 189.51913 166.439309 
L 189.63882 166.439309 
L 189.646092 165.390813 
L 189.806728 165.390813 
L 189.917284 162.245327 
L 190.007214 162.245327 
L 190.112248 159.099841 
L 190.208203 159.099841 
L 190.230703 158.051345 
L 190.339971 158.051345 
L 190.442997 154.905859 
L 190.454098 154.905859 
L 190.454098 153.857364 
L 190.567473 153.857364 
L 190.626628 151.236125 
L 190.892363 151.236125 
L 190.892363 150.711877 
L 191.292008 150.711877 
L 191.292008 149.139134 
L 193.478716 149.139134 
L 193.478716 148.614886 
L 193.659248 148.614886 
L 193.659248 148.090639 
L 196.511452 148.090639 
L 196.511452 147.566391 
L 199.328562 147.566391 
L 199.413612 145.4694 
L 199.453925 145.4694 
L 199.533451 143.372409 
L 199.583274 143.372409 
L 199.693028 139.178427 
L 199.773071 139.178427 
L 199.865585 137.081437 
L 199.965582 137.081437 
L 200.024507 133.411703 
L 200.103817 133.411703 
L 200.185912 127.644978 
L 200.257425 127.644978 
L 200.366867 122.926748 
L 200.391007 122.926748 
L 200.48568 120.30551 
L 200.638996 120.30551 
L 200.736894 118.208519 
L 200.778789 118.208519 
L 200.797038 117.160023 
L 201.16843 117.160023 
L 201.16843 116.111528 
L 206.141902 116.111528 
L 206.226339 113.490289 
L 206.268956 113.490289 
L 206.335712 110.869051 
L 206.384649 110.869051 
L 206.466813 106.150821 
L 206.501205 106.150821 
L 206.573042 101.432592 
L 206.613184 101.432592 
L 206.713667 98.811353 
L 206.728205 98.811353 
L 206.832836 96.714362 
L 206.847273 96.714362 
L 206.948527 92.520381 
L 206.984621 92.520381 
L 206.984621 91.996133 
L 207.101932 91.996133 
L 207.143485 89.899142 
L 207.221586 89.899142 
L 207.221586 89.374894 
L 210.901299 89.374894 
L 211.008203 88.326399 
L 211.07186 88.326399 
L 211.11236 87.277903 
L 211.191415 87.277903 
L 211.27961 84.656665 
L 211.317152 84.656665 
L 211.410445 80.462683 
L 211.440748 80.462683 
L 211.541511 78.365692 
L 211.563868 78.365692 
L 211.617001 77.317197 
L 211.714726 77.317197 
L 211.717947 76.268701 
L 211.924842 76.268701 
L 212.017672 75.220206 
L 214.860258 75.220206 
L 214.945557 73.647463 
L 214.993539 73.647463 
L 215.082153 71.550472 
L 215.11985 71.550472 
L 215.22621 64.211004 
L 215.286506 64.211004 
L 215.383062 63.162508 
L 215.400944 63.162508 
L 215.400944 62.638261 
L 217.921418 62.638261 
L 217.985563 61.589765 
L 218.041668 61.589765 
L 218.137543 55.298792 
L 218.165786 55.298792 
L 218.26675 49.532068 
L 218.310427 49.532068 
L 218.408092 47.959324 
L 220.667165 47.959324 
L 220.758059 45.862334 
L 220.801547 45.862334 
L 220.895748 44.813838 
L 221.012427 44.813838 
L 221.082382 43.765343 
L 222.836015 43.765343 
L 222.941115 42.716847 
L 222.963313 42.716847 
L 223.023066 41.668352 
L 223.074504 41.668352 
L 223.131799 40.095609 
L 224.88089 40.095609 
L 224.975723 39.047113 
L 225.056144 39.047113 
L 225.121983 37.47437 
L 226.657752 37.47437 
L 226.743463 35.377379 
L 228.335674 35.377379 
L 228.393911 33.804636 
L 228.45119 33.804636 
L 228.527973 32.231893 
L 229.868332 32.231893 
L 229.868332 31.707645 
L 231.229574 31.707645 
L 231.244189 30.65915 
L 232.450676 30.65915 
L 232.450676 30.134902 
L 232.593252 30.134902 
L 232.593252 29.610654 
L 234.665085 29.610654 
L 234.665085 29.086407 
L 235.723285 29.086407 
L 235.802202 28.037911 
L 237.689649 28.037911 
L 237.689649 27.513663 
L 333.168 27.513663 
L 333.168 27.513663 
" style="fill:none;stroke:#0000ff;stroke-linecap:square;stroke-width:1.5;"/>
   </g>
   <g id="line2d_48">
    <defs>
     <path d="M 0 -6 
L -1.347084 -1.854102 
L -5.706339 -1.854102 
L -2.179628 0.708204 
L -3.526712 4.854102 
L -0 2.291796 
L 3.526712 4.854102 
L 2.179628 0.708204 
L 5.706339 -1.854102 
L 1.347084 -1.854102 
z
" id="m179937f23c" style="stroke:#0000ff;stroke-linejoin:bevel;stroke-width:1.5;"/>
    </defs>
    <g>
     <use style="fill-opacity:0;stroke:#0000ff;stroke-linejoin:bevel;stroke-width:1.5;" x="98.543252" xlink:href="#m179937f23c" y="266.046375"/>
     <use style="fill-opacity:0;stroke:#0000ff;stroke-linejoin:bevel;stroke-width:1.5;" x="163.68074" xlink:href="#m179937f23c" y="198.942667"/>
     <use style="fill-opacity:0;stroke:#0000ff;stroke-linejoin:bevel;stroke-width:1.5;" x="211.617001" xlink:href="#m179937f23c" y="77.317197"/>
     <use style="fill-opacity:0;stroke:#0000ff;stroke-linejoin:bevel;stroke-width:1.5;" x="237.689649" xlink:href="#m179937f23c" y="28.037911"/>
     <use style="fill-opacity:0;stroke:#0000ff;stroke-linejoin:bevel;stroke-width:1.5;" x="237.689649" xlink:href="#m179937f23c" y="27.513663"/>
     <use style="fill-opacity:0;stroke:#0000ff;stroke-linejoin:bevel;stroke-width:1.5;" x="333.168" xlink:href="#m179937f23c" y="27.513663"/>
    </g>
   </g>
   <g id="line2d_49">
    <path style="fill:none;stroke:#0000ff;stroke-linecap:square;stroke-width:1.5;"/>
    <g/>
   </g>
   <g id="line2d_50">
    <path clip-path="url(#p51c70e56e7)" d="M 186.941843 197.369924 
" style="fill:none;stroke:#0000ff;stroke-linecap:square;stroke-width:1.5;"/>
    <defs>
     <path d="M -12 12 
L 12 -12 
M -12 -12 
L 12 12 
" id="mb9491f14cc" style="stroke:#0000ff;"/>
    </defs>
    <g clip-path="url(#p51c70e56e7)">
     <use style="fill:#0000ff;stroke:#0000ff;" x="186.941843" xlink:href="#mb9491f14cc" y="197.369924"/>
    </g>
   </g>
   <g id="line2d_51">
    <defs>
     <path d="M 0 1.5 
C 0.397805 1.5 0.77937 1.341951 1.06066 1.06066 
C 1.341951 0.77937 1.5 0.397805 1.5 0 
C 1.5 -0.397805 1.341951 -0.77937 1.06066 -1.06066 
C 0.77937 -1.341951 0.397805 -1.5 0 -1.5 
C -0.397805 -1.5 -0.77937 -1.341951 -1.06066 -1.06066 
C -1.341951 -0.77937 -1.5 -0.397805 -1.5 0 
C -1.5 0.397805 -1.341951 0.77937 -1.06066 1.06066 
C -0.77937 1.341951 -0.397805 1.5 0 1.5 
z
" id="m16b281b53c" style="stroke:#000000;"/>
    </defs>
    <g>
     <use style="stroke:#000000;" x="249.07532" xlink:href="#m16b281b53c" y="69.453481"/>
     <use style="stroke:#000000;" x="249.07532" xlink:href="#m16b281b53c" y="69.453481"/>
    </g>
   </g>
   <g id="line2d_52">
    <path d="M 16.541714 294.88 
L 16.541714 288.06478 
L 47.339607 288.06478 
L 47.339607 287.540532 
L 63.08939 287.540532 
L 63.08939 286.492036 
L 68.872887 286.492036 
L 68.872887 285.443541 
L 81.973032 285.443541 
L 81.973032 284.395046 
L 83.08236 284.395046 
L 83.08236 283.870798 
L 84.124415 283.870798 
L 84.124415 282.822302 
L 105.317315 282.822302 
L 105.317315 281.249559 
L 108.532829 281.249559 
L 108.532829 280.725312 
L 110.237603 280.725312 
L 110.237603 279.676816 
L 111.989488 279.676816 
L 111.989488 278.628321 
L 112.319414 278.628321 
L 112.319414 278.104073 
L 115.256077 278.104073 
L 115.256077 277.579825 
L 120.689748 277.579825 
L 120.689748 277.055578 
L 123.154809 277.055578 
L 123.154809 276.53133 
L 124.748719 276.53133 
L 124.748719 275.482834 
L 125.217956 275.482834 
L 125.217956 274.958587 
L 125.523811 274.958587 
L 125.523811 273.910091 
L 125.674722 273.910091 
L 125.674722 273.385844 
L 126.002135 273.385844 
L 126.002135 272.861596 
L 126.836558 272.861596 
L 126.836558 271.8131 
L 127.92481 271.8131 
L 127.92481 270.240357 
L 128.948245 270.240357 
L 128.948245 269.191862 
L 129.606147 269.191862 
L 129.606147 268.667614 
L 130.216736 268.667614 
L 130.216736 268.143366 
L 130.514085 268.143366 
L 130.514085 267.094871 
L 132.583907 267.094871 
L 132.583907 266.570623 
L 133.617681 266.570623 
L 133.712073 264.473632 
L 134.139719 264.473632 
L 134.139719 263.949385 
L 134.592793 263.949385 
L 134.592793 263.425137 
L 135.03423 263.425137 
L 135.03423 262.376641 
L 135.967241 262.376641 
L 136.000233 261.328146 
L 136.294342 261.328146 
L 136.294342 260.803898 
L 137.362107 260.803898 
L 137.362107 260.279651 
L 138.4819 260.279651 
L 138.581462 258.706907 
L 139.852237 258.706907 
L 139.852237 258.18266 
L 139.996515 258.18266 
L 140.009571 257.134164 
L 140.536516 257.134164 
L 140.536516 256.085669 
L 140.750355 256.085669 
L 140.750355 255.561421 
L 140.986245 255.561421 
L 140.986245 255.037173 
L 141.267531 255.037173 
L 141.267531 254.512926 
L 141.400449 254.512926 
L 141.484501 253.46443 
L 141.639516 253.46443 
L 141.639516 252.940182 
L 142.575104 252.940182 
L 142.620012 251.891687 
L 143.430327 251.891687 
L 143.430327 251.367439 
L 143.832047 251.367439 
L 143.832047 250.318944 
L 145.022816 250.318944 
L 145.022816 249.794696 
L 145.322428 249.794696 
L 145.322428 249.270448 
L 145.701465 249.270448 
L 145.701465 248.746201 
L 146.507044 248.746201 
L 146.507044 248.221953 
L 147.276552 248.221953 
L 147.276552 247.697705 
L 148.045821 247.697705 
L 148.045821 246.124962 
L 148.569291 246.124962 
L 148.569291 245.600714 
L 148.852497 245.600714 
L 148.852497 244.552219 
L 149.092685 244.552219 
L 149.184767 243.503724 
L 149.756771 243.503724 
L 149.793743 241.93098 
L 153.350772 241.93098 
L 153.350772 241.406733 
L 153.624843 241.406733 
L 153.624843 240.882485 
L 154.740451 240.882485 
L 154.740451 239.83399 
L 157.126141 239.83399 
L 157.126141 239.309742 
L 159.11796 239.309742 
L 159.122254 237.212751 
L 167.277537 237.212751 
L 167.277537 236.688503 
L 175.545527 236.688503 
L 175.545527 236.164255 
L 176.209513 236.164255 
L 176.209513 235.11576 
L 176.347169 235.11576 
L 176.439898 233.543017 
L 176.472783 233.543017 
L 176.472783 233.018769 
L 176.62852 233.018769 
L 176.716663 231.970274 
L 176.848802 231.970274 
L 176.870217 230.921778 
L 176.972335 230.921778 
L 176.972335 230.397531 
L 177.116098 230.397531 
L 177.221264 228.30054 
L 177.284057 228.30054 
L 177.284057 227.776292 
L 177.428206 227.776292 
L 177.532957 226.727797 
L 177.620983 226.727797 
L 177.711473 224.106558 
L 177.792798 224.106558 
L 177.895357 222.533815 
L 178.021628 222.533815 
L 178.021628 222.009567 
L 178.195166 222.009567 
L 178.195166 221.485319 
L 178.418736 221.485319 
L 178.478702 219.388328 
L 178.557871 219.388328 
L 178.591097 217.291338 
L 179.315548 217.291338 
L 179.40416 215.194347 
L 179.632175 215.194347 
L 179.646488 214.145851 
L 179.769612 214.145851 
L 179.769612 213.621604 
L 180.522556 213.621604 
L 180.522556 213.097356 
L 180.765569 213.097356 
L 180.765569 212.573108 
L 181.227295 212.573108 
L 181.227295 211.524613 
L 182.057568 211.524613 
L 182.057568 211.000365 
L 183.49996 211.000365 
L 183.49996 209.95187 
L 187.542139 209.95187 
L 187.542139 209.427622 
L 187.654336 209.427622 
L 187.654336 208.903374 
L 187.791739 208.903374 
L 187.857207 207.854879 
L 187.943309 207.854879 
L 188.017797 206.806383 
L 188.11582 206.806383 
L 188.184026 205.23364 
L 188.240132 205.23364 
L 188.240132 203.660897 
L 188.390163 203.660897 
L 188.435464 201.563906 
L 188.503969 201.563906 
L 188.598493 200.515411 
L 188.724745 200.515411 
L 188.797457 198.942667 
L 188.874425 198.942667 
L 188.938934 197.369924 
L 189.219188 197.369924 
L 189.269048 195.272933 
L 189.405974 195.272933 
L 189.475866 193.175943 
L 189.907979 193.175943 
L 189.907979 192.651695 
L 190.049872 192.651695 
L 190.049872 191.603199 
L 190.813752 191.603199 
L 190.813752 190.554704 
L 194.39501 190.554704 
L 194.482473 188.457713 
L 194.581499 188.457713 
L 194.585318 187.409218 
L 194.743304 187.409218 
L 194.853198 185.836474 
L 194.862861 185.836474 
L 194.968262 183.215236 
L 195.033213 183.215236 
L 195.117496 181.118245 
L 195.223454 181.118245 
L 195.268067 180.06975 
L 195.351209 180.06975 
L 195.351209 179.545502 
L 195.486303 179.545502 
L 195.592591 176.400016 
L 195.823019 176.400016 
L 195.823019 175.875768 
L 197.22116 175.875768 
L 197.22116 175.35152 
L 199.294176 175.35152 
L 199.294176 174.827272 
L 199.407021 174.827272 
L 199.488404 172.730281 
L 199.542037 172.730281 
L 199.574708 171.157538 
L 199.731884 171.157538 
L 199.808929 168.012052 
L 199.849532 168.012052 
L 199.889638 166.439309 
L 200.032455 166.439309 
L 200.127933 164.866566 
L 200.16976 164.866566 
L 200.16976 164.342318 
L 200.309497 164.342318 
L 200.368036 163.293823 
L 200.627871 163.293823 
L 200.627871 162.769575 
L 202.983523 162.769575 
L 203.04298 161.196832 
L 203.099241 161.196832 
L 203.195686 157.00285 
L 203.230024 157.00285 
L 203.333611 155.430107 
L 203.373563 155.430107 
L 203.373563 154.381611 
L 203.518508 154.381611 
L 203.602633 152.808868 
L 203.720041 152.808868 
L 203.750469 151.760373 
L 203.845248 151.760373 
L 203.911632 149.663382 
L 204.752985 149.663382 
L 204.752985 148.090639 
L 206.069075 148.090639 
L 206.146634 147.042143 
L 206.216362 147.042143 
L 206.321941 143.372409 
L 206.414273 143.372409 
L 206.517286 142.323914 
L 206.58797 142.323914 
L 206.683746 139.702675 
L 206.792132 139.702675 
L 206.792132 139.178427 
L 208.741668 139.178427 
L 208.823571 138.129932 
L 208.856176 138.129932 
L 208.905798 136.032941 
L 209.069784 136.032941 
L 209.073307 134.984446 
L 209.213369 134.984446 
L 209.320623 131.838959 
L 210.990361 131.838959 
L 211.089408 130.266216 
L 211.133407 130.266216 
L 211.213817 128.169225 
L 211.27424 128.169225 
L 211.324568 126.596482 
L 212.087361 126.596482 
L 212.087361 126.072235 
L 213.103122 126.072235 
L 213.130771 125.023739 
L 213.371784 125.023739 
L 213.373795 123.975244 
L 213.604954 123.975244 
L 213.604954 123.450996 
L 213.733796 123.450996 
L 213.733796 122.926748 
L 214.772849 122.926748 
L 214.828372 121.354005 
L 214.944555 121.354005 
L 215.010168 119.257014 
L 215.067416 119.257014 
L 215.086125 118.208519 
L 215.453182 118.208519 
L 215.453182 117.684271 
L 216.395988 117.684271 
L 216.496741 114.538785 
L 216.51944 114.538785 
L 216.596756 112.441794 
L 216.688204 112.441794 
L 216.733521 110.869051 
L 217.936285 110.869051 
L 217.9531 109.820555 
L 218.063251 109.820555 
L 218.174222 107.723564 
L 218.188872 107.723564 
L 218.298351 106.150821 
L 218.350846 106.150821 
L 218.350846 105.102326 
L 219.32955 105.102326 
L 219.392136 103.005335 
L 219.458729 103.005335 
L 219.492058 101.432592 
L 219.631844 101.432592 
L 219.680426 100.384096 
L 220.555696 100.384096 
L 220.660227 98.811353 
L 220.720304 98.811353 
L 220.817322 96.714362 
L 221.754144 96.714362 
L 221.845848 94.617371 
L 221.884333 94.617371 
L 221.975014 93.044628 
L 222.963941 93.044628 
L 222.963941 91.996133 
L 224.010771 91.996133 
L 224.017072 90.42339 
L 224.851663 90.42339 
L 224.942833 89.374894 
L 225.838455 89.374894 
L 225.892901 87.802151 
L 226.65446 87.802151 
L 226.730608 86.753656 
L 226.889396 86.753656 
L 226.889396 86.229408 
L 227.503525 86.229408 
L 227.589128 85.180912 
L 227.680193 85.180912 
L 227.680193 84.656665 
L 228.381852 84.656665 
L 228.396733 83.608169 
L 229.137576 83.608169 
L 229.243995 82.559674 
L 229.81784 82.559674 
L 229.823598 81.511178 
L 230.104298 81.511178 
L 230.104298 80.986931 
L 230.477341 80.986931 
L 230.534964 79.938435 
L 230.626063 79.938435 
L 230.626063 79.414188 
L 230.788184 79.414188 
L 230.788184 78.88994 
L 231.238564 78.88994 
L 231.238564 78.365692 
L 231.901744 78.365692 
L 231.901744 77.841444 
L 232.491181 77.841444 
L 232.491181 77.317197 
L 233.06148 77.317197 
L 233.06148 76.792949 
L 234.212022 76.792949 
L 234.247718 75.744454 
L 235.795507 75.744454 
L 235.795507 75.220206 
L 236.774397 75.220206 
L 236.774397 74.695958 
L 238.126399 74.695958 
L 238.126399 74.17171 
L 238.620005 74.17171 
L 238.620005 73.647463 
L 238.9583 73.647463 
L 238.977188 72.598967 
L 239.370141 72.598967 
L 239.370141 72.074719 
L 239.817978 72.074719 
L 239.817978 71.550472 
L 240.22679 71.550472 
L 240.22679 71.026224 
L 242.707048 71.026224 
L 242.707048 70.501976 
L 243.348487 70.501976 
L 243.348487 69.977729 
L 249.07532 69.977729 
L 249.07532 69.453481 
L 333.168 69.453481 
L 333.168 69.453481 
" style="fill:none;stroke:#000000;stroke-linecap:square;stroke-width:1.5;"/>
   </g>
   <g id="line2d_53">
    <defs>
     <path d="M 0 6 
C 1.591219 6 3.117479 5.367802 4.242641 4.242641 
C 5.367802 3.117479 6 1.591219 6 0 
C 6 -1.591219 5.367802 -3.117479 4.242641 -4.242641 
C 3.117479 -5.367802 1.591219 -6 0 -6 
C -1.591219 -6 -3.117479 -5.367802 -4.242641 -4.242641 
C -5.367802 -3.117479 -6 -1.591219 -6 0 
C -6 1.591219 -5.367802 3.117479 -4.242641 4.242641 
C -3.117479 5.367802 -1.591219 6 0 6 
z
" id="m564b6c6928" style="stroke:#000000;stroke-width:1.5;"/>
    </defs>
    <g>
     <use style="fill-opacity:0;stroke:#000000;stroke-width:1.5;" x="84.124415" xlink:href="#m564b6c6928" y="283.870798"/>
     <use style="fill-opacity:0;stroke:#000000;stroke-width:1.5;" x="178.021628" xlink:href="#m564b6c6928" y="222.009567"/>
     <use style="fill-opacity:0;stroke:#000000;stroke-width:1.5;" x="211.27424" xlink:href="#m564b6c6928" y="128.169225"/>
     <use style="fill-opacity:0;stroke:#000000;stroke-width:1.5;" x="249.07532" xlink:href="#m564b6c6928" y="69.977729"/>
     <use style="fill-opacity:0;stroke:#000000;stroke-width:1.5;" x="249.07532" xlink:href="#m564b6c6928" y="69.453481"/>
     <use style="fill-opacity:0;stroke:#000000;stroke-width:1.5;" x="333.168" xlink:href="#m564b6c6928" y="69.453481"/>
    </g>
   </g>
   <g id="line2d_54">
    <path style="fill:none;stroke:#000000;stroke-linecap:square;stroke-width:1.5;"/>
    <g/>
   </g>
   <g id="line2d_55">
    <path clip-path="url(#p51c70e56e7)" d="M 175.027591 236.688503 
" style="fill:none;stroke:#000000;stroke-linecap:square;stroke-width:1.5;"/>
    <defs>
     <path d="M -12 12 
L 12 -12 
M -12 -12 
L 12 12 
" id="m322b953a49" style="stroke:#000000;"/>
    </defs>
    <g clip-path="url(#p51c70e56e7)">
     <use style="stroke:#000000;" x="175.027591" xlink:href="#m322b953a49" y="236.688503"/>
    </g>
   </g>
   <g id="line2d_56">
    <defs>
     <path d="M 0 1.5 
C 0.397805 1.5 0.77937 1.341951 1.06066 1.06066 
C 1.341951 0.77937 1.5 0.397805 1.5 0 
C 1.5 -0.397805 1.341951 -0.77937 1.06066 -1.06066 
C 0.77937 -1.341951 0.397805 -1.5 0 -1.5 
C -0.397805 -1.5 -0.77937 -1.341951 -1.06066 -1.06066 
C -1.341951 -0.77937 -1.5 -0.397805 -1.5 0 
C -1.5 0.397805 -1.341951 0.77937 -1.06066 1.06066 
C -0.77937 1.341951 -0.397805 1.5 0 1.5 
z
" id="m70ebd304a5" style="stroke:#ff0000;"/>
    </defs>
    <g>
     <use style="fill:#ff0000;stroke:#ff0000;" x="226.330197" xlink:href="#m70ebd304a5" y="237.212751"/>
     <use style="fill:#ff0000;stroke:#ff0000;" x="226.330197" xlink:href="#m70ebd304a5" y="237.212751"/>
    </g>
   </g>
   <g id="line2d_57">
    <path d="M 4.627463 294.88 
L 4.627463 289.637523 
L 103.341826 289.637523 
L 103.341826 288.589027 
L 104.919872 288.589027 
L 104.919872 288.06478 
L 107.698266 288.06478 
L 107.698266 287.016284 
L 108.369127 287.016284 
L 108.410199 285.967789 
L 109.445012 285.967789 
L 109.445012 285.443541 
L 111.653105 285.443541 
L 111.653105 284.919293 
L 112.089133 284.919293 
L 112.089133 284.395046 
L 112.675165 284.395046 
L 112.675165 283.34655 
L 112.866152 283.34655 
L 112.866152 282.298055 
L 115.637457 282.298055 
L 115.637457 281.773807 
L 116.168013 281.773807 
L 116.168013 280.725312 
L 119.719081 280.725312 
L 119.824987 279.152568 
L 120.076533 279.152568 
L 120.076533 278.104073 
L 120.528351 278.104073 
L 120.528351 277.579825 
L 121.835433 277.579825 
L 121.835433 277.055578 
L 122.243822 277.055578 
L 122.243822 276.007082 
L 125.156126 276.007082 
L 125.156126 275.482834 
L 125.386849 275.482834 
L 125.386849 274.958587 
L 126.279966 274.958587 
L 126.279966 274.434339 
L 126.539096 274.434339 
L 126.539096 273.385844 
L 127.898427 273.385844 
L 127.898427 272.861596 
L 129.437982 272.861596 
L 129.437982 272.337348 
L 130.377486 272.337348 
L 130.377486 271.8131 
L 130.548066 271.8131 
L 130.548066 271.288853 
L 130.716969 271.288853 
L 130.716969 270.764605 
L 131.462512 270.764605 
L 131.473238 269.716109 
L 131.696954 269.716109 
L 131.696954 267.619119 
L 132.704108 267.619119 
L 132.704108 267.094871 
L 134.176407 267.094871 
L 134.176407 266.570623 
L 135.345189 266.570623 
L 135.345189 266.046375 
L 135.583215 266.046375 
L 135.583215 264.99788 
L 137.270516 264.99788 
L 137.270516 264.473632 
L 139.917968 264.473632 
L 139.917968 262.900889 
L 140.139592 262.900889 
L 140.139592 262.376641 
L 140.479464 262.376641 
L 140.479464 261.852394 
L 142.337391 261.852394 
L 142.337391 261.328146 
L 143.008034 261.328146 
L 143.008034 260.803898 
L 144.90542 260.803898 
L 144.90542 260.279651 
L 146.003395 260.279651 
L 146.003395 259.755403 
L 164.739057 259.755403 
L 164.739057 259.231155 
L 165.020051 259.231155 
L 165.020051 258.706907 
L 165.49915 258.706907 
L 165.49915 258.18266 
L 165.791398 258.18266 
L 165.795766 257.134164 
L 166.229889 257.134164 
L 166.229889 256.085669 
L 167.338863 256.085669 
L 167.338863 255.037173 
L 167.760828 255.037173 
L 167.760828 253.988678 
L 176.007372 253.988678 
L 176.113134 252.940182 
L 176.19839 252.940182 
L 176.19839 251.891687 
L 177.14922 251.891687 
L 177.14922 251.367439 
L 177.775404 251.367439 
L 177.775404 250.843192 
L 182.786307 250.843192 
L 182.786307 250.318944 
L 183.440087 250.318944 
L 183.440087 249.794696 
L 183.689652 249.794696 
L 183.689652 249.270448 
L 184.940908 249.270448 
L 184.940908 248.221953 
L 187.652703 248.221953 
L 187.652703 247.697705 
L 187.775535 247.697705 
L 187.775535 247.173458 
L 191.348396 247.173458 
L 191.447532 246.124962 
L 191.657692 246.124962 
L 191.657692 245.600714 
L 194.647926 245.600714 
L 194.647926 245.076467 
L 196.922655 245.076467 
L 196.974468 244.027971 
L 197.306801 244.027971 
L 197.306801 243.503724 
L 199.215199 243.503724 
L 199.215199 242.979476 
L 200.019936 242.979476 
L 200.019936 242.455228 
L 201.256154 242.455228 
L 201.256154 241.93098 
L 204.735619 241.93098 
L 204.80829 240.358237 
L 208.852134 240.358237 
L 208.852134 239.83399 
L 209.855267 239.83399 
L 209.855267 239.309742 
L 210.013148 239.309742 
L 210.013148 238.785494 
L 212.956902 238.785494 
L 212.956902 238.261246 
L 214.002812 238.261246 
L 214.002812 237.736999 
L 226.330197 237.736999 
L 226.330197 237.212751 
L 333.168 237.212751 
L 333.168 237.212751 
" style="fill:none;stroke:#ff0000;stroke-linecap:square;stroke-width:1.5;"/>
   </g>
   <g id="line2d_58">
    <defs>
     <path d="M -6 6 
L 6 6 
L 6 -6 
L -6 -6 
z
" id="m67788b4fd8" style="stroke:#ff0000;stroke-linejoin:miter;stroke-width:1.5;"/>
    </defs>
    <g>
     <use style="fill-opacity:0;stroke:#ff0000;stroke-linejoin:miter;stroke-width:1.5;" x="131.462512" xlink:href="#m67788b4fd8" y="270.240357"/>
     <use style="fill-opacity:0;stroke:#ff0000;stroke-linejoin:miter;stroke-width:1.5;" x="191.348396" xlink:href="#m67788b4fd8" y="246.64921"/>
     <use style="fill-opacity:0;stroke:#ff0000;stroke-linejoin:miter;stroke-width:1.5;" x="226.330197" xlink:href="#m67788b4fd8" y="237.736999"/>
     <use style="fill-opacity:0;stroke:#ff0000;stroke-linejoin:miter;stroke-width:1.5;" x="226.330197" xlink:href="#m67788b4fd8" y="237.212751"/>
     <use style="fill-opacity:0;stroke:#ff0000;stroke-linejoin:miter;stroke-width:1.5;" x="333.168" xlink:href="#m67788b4fd8" y="237.212751"/>
    </g>
   </g>
   <g id="line2d_59">
    <path style="fill:none;stroke:#ff0000;stroke-linecap:square;stroke-width:1.5;"/>
    <g/>
   </g>
   <g id="line2d_60">
    <path clip-path="url(#p51c70e56e7)" d="M 163.11334 259.755403 
" style="fill:none;stroke:#ff0000;stroke-linecap:square;stroke-width:1.5;"/>
    <defs>
     <path d="M -12 12 
L 12 -12 
M -12 -12 
L 12 12 
" id="mef5f204ed1" style="stroke:#ff0000;"/>
    </defs>
    <g clip-path="url(#p51c70e56e7)">
     <use style="fill:#ff0000;stroke:#ff0000;" x="163.11334" xlink:href="#mef5f204ed1" y="259.755403"/>
    </g>
   </g>
   <g id="line2d_61">
    <defs>
     <path d="M 0 1.5 
C 0.397805 1.5 0.77937 1.341951 1.06066 1.06066 
C 1.341951 0.77937 1.5 0.397805 1.5 0 
C 1.5 -0.397805 1.341951 -0.77937 1.06066 -1.06066 
C 0.77937 -1.341951 0.397805 -1.5 0 -1.5 
C -0.397805 -1.5 -0.77937 -1.341951 -1.06066 -1.06066 
C -1.341951 -0.77937 -1.5 -0.397805 -1.5 0 
C -1.5 0.397805 -1.341951 0.77937 -1.06066 1.06066 
C -0.77937 1.341951 -0.397805 1.5 0 1.5 
z
" id="mca4125868d" style="stroke:#bf00bf;"/>
    </defs>
    <g>
     <use style="fill:#bf00bf;stroke:#bf00bf;" x="206.709694" xlink:href="#mca4125868d" y="268.667614"/>
     <use style="fill:#bf00bf;stroke:#bf00bf;" x="206.709694" xlink:href="#mca4125868d" y="268.667614"/>
    </g>
   </g>
   <g id="line2d_62">
    <path d="M -1 289.637523 
L 101.512449 289.637523 
L 101.512449 289.113275 
L 109.152847 289.113275 
L 109.152847 288.589027 
L 113.226383 288.589027 
L 113.226383 288.06478 
L 113.999206 288.06478 
L 113.999206 287.540532 
L 114.738772 287.540532 
L 114.738772 286.492036 
L 114.894198 286.492036 
L 114.894198 285.967789 
L 115.062167 285.967789 
L 115.062167 285.443541 
L 118.53167 285.443541 
L 118.53167 284.395046 
L 119.612517 284.395046 
L 119.612517 283.870798 
L 119.846091 283.870798 
L 119.846091 283.34655 
L 121.570405 283.34655 
L 121.570405 282.298055 
L 123.668964 282.298055 
L 123.668964 281.773807 
L 128.495224 281.773807 
L 128.495224 281.249559 
L 128.886035 281.249559 
L 128.886035 280.725312 
L 153.067682 280.725312 
L 153.067682 280.201064 
L 153.596744 280.201064 
L 153.596744 279.676816 
L 154.020707 279.676816 
L 154.020707 279.152568 
L 154.309959 279.152568 
L 154.309959 278.628321 
L 154.355338 278.628321 
L 154.355338 278.104073 
L 155.265513 278.104073 
L 155.265513 277.579825 
L 155.348588 277.579825 
L 155.348588 277.055578 
L 156.189834 277.055578 
L 156.189834 276.53133 
L 164.35394 276.53133 
L 164.35394 275.482834 
L 164.429765 275.482834 
L 164.429765 274.958587 
L 171.547727 274.958587 
L 171.547727 274.434339 
L 171.579991 274.434339 
L 171.579991 273.910091 
L 176.137877 273.910091 
L 176.137877 273.385844 
L 179.377096 273.385844 
L 179.377096 272.337348 
L 182.720356 272.337348 
L 182.720356 271.8131 
L 187.487207 271.8131 
L 187.487207 271.288853 
L 187.505949 271.288853 
L 187.505949 270.764605 
L 189.468706 270.764605 
L 189.468706 270.240357 
L 192.647952 270.240357 
L 192.647952 269.716109 
L 202.911852 269.716109 
L 202.911852 269.191862 
L 206.709694 269.191862 
L 206.709694 268.667614 
L 333.168 268.667614 
" style="fill:none;stroke:#bf00bf;stroke-linecap:square;stroke-width:1.5;"/>
   </g>
   <g id="line2d_63">
    <defs>
     <path d="M -0 8.485281 
L 8.485281 0 
L 0 -8.485281 
L -8.485281 -0 
z
" id="mc36e0ca76b" style="stroke:#bf00bf;stroke-linejoin:miter;stroke-width:1.5;"/>
    </defs>
    <g>
     <use style="fill-opacity:0;stroke:#bf00bf;stroke-linejoin:miter;stroke-width:1.5;" x="128.886035" xlink:href="#mc36e0ca76b" y="280.725312"/>
     <use style="fill-opacity:0;stroke:#bf00bf;stroke-linejoin:miter;stroke-width:1.5;" x="206.709694" xlink:href="#mc36e0ca76b" y="269.191862"/>
     <use style="fill-opacity:0;stroke:#bf00bf;stroke-linejoin:miter;stroke-width:1.5;" x="206.709694" xlink:href="#mc36e0ca76b" y="268.667614"/>
     <use style="fill-opacity:0;stroke:#bf00bf;stroke-linejoin:miter;stroke-width:1.5;" x="206.709694" xlink:href="#mc36e0ca76b" y="268.667614"/>
     <use style="fill-opacity:0;stroke:#bf00bf;stroke-linejoin:miter;stroke-width:1.5;" x="333.168" xlink:href="#mc36e0ca76b" y="268.667614"/>
    </g>
   </g>
   <g id="line2d_64">
    <path style="fill:none;stroke:#bf00bf;stroke-linecap:square;stroke-width:1.5;"/>
    <g/>
   </g>
   <g id="line2d_65">
    <path clip-path="url(#p51c70e56e7)" d="M 151.199089 280.725312 
" style="fill:none;stroke:#bf00bf;stroke-linecap:square;stroke-width:1.5;"/>
    <defs>
     <path d="M -12 12 
L 12 -12 
M -12 -12 
L 12 12 
" id="m2e27bbaeff" style="stroke:#bf00bf;"/>
    </defs>
    <g clip-path="url(#p51c70e56e7)">
     <use style="fill:#bf00bf;stroke:#bf00bf;" x="151.199089" xlink:href="#m2e27bbaeff" y="280.725312"/>
    </g>
   </g>
   <g id="line2d_66">
    <path d="M 333.168 268.667614 
L 363.64328 289.532673 
" style="fill:none;stroke:#bf00bf;stroke-linecap:square;stroke-width:1.5;"/>
    <g>
     <use style="fill-opacity:0;stroke:#bf00bf;stroke-linejoin:miter;stroke-width:1.5;" x="333.168" xlink:href="#mc36e0ca76b" y="268.667614"/>
     <use style="fill-opacity:0;stroke:#bf00bf;stroke-linejoin:miter;stroke-width:1.5;" x="363.64328" xlink:href="#mc36e0ca76b" y="289.532673"/>
    </g>
   </g>
   <g id="line2d_67">
    <path d="M 333.168 237.212751 
L 363.64328 238.198337 
" style="fill:none;stroke:#ff0000;stroke-linecap:square;stroke-width:1.5;"/>
    <g>
     <use style="fill-opacity:0;stroke:#ff0000;stroke-linejoin:miter;stroke-width:1.5;" x="333.168" xlink:href="#m67788b4fd8" y="237.212751"/>
     <use style="fill-opacity:0;stroke:#ff0000;stroke-linejoin:miter;stroke-width:1.5;" x="363.64328" xlink:href="#m67788b4fd8" y="238.198337"/>
    </g>
   </g>
   <g id="line2d_68">
    <path d="M 333.168 69.453481 
L 363.64328 186.864 
" style="fill:none;stroke:#000000;stroke-linecap:square;stroke-width:1.5;"/>
    <g>
     <use style="fill-opacity:0;stroke:#000000;stroke-width:1.5;" x="333.168" xlink:href="#m564b6c6928" y="69.453481"/>
     <use style="fill-opacity:0;stroke:#000000;stroke-width:1.5;" x="363.64328" xlink:href="#m564b6c6928" y="186.864"/>
    </g>
   </g>
   <g id="line2d_69">
    <path d="M 333.168 27.513663 
L 363.64328 135.529663 
" style="fill:none;stroke:#0000ff;stroke-linecap:square;stroke-width:1.5;"/>
    <g>
     <use style="fill-opacity:0;stroke:#0000ff;stroke-linejoin:bevel;stroke-width:1.5;" x="333.168" xlink:href="#m179937f23c" y="27.513663"/>
     <use style="fill-opacity:0;stroke:#0000ff;stroke-linejoin:bevel;stroke-width:1.5;" x="363.64328" xlink:href="#m179937f23c" y="135.529663"/>
    </g>
   </g>
   <g id="line2d_70">
    <path d="M 333.168 27.513663 
L 363.64328 84.195327 
" style="fill:none;stroke:#008000;stroke-linecap:square;stroke-width:1.5;"/>
    <g>
     <use style="fill-opacity:0;stroke:#008000;stroke-linejoin:miter;stroke-width:1.5;" x="333.168" xlink:href="#m2802ddc071" y="27.513663"/>
     <use style="fill-opacity:0;stroke:#008000;stroke-linejoin:miter;stroke-width:1.5;" x="363.64328" xlink:href="#m2802ddc071" y="84.195327"/>
    </g>
   </g>
   <g id="line2d_71">
    <path d="M 333.168 27.513663 
L 363.64328 32.86099 
" style="fill:none;stroke:#00bfbf;stroke-linecap:square;stroke-width:1.5;"/>
    <g>
     <use style="fill-opacity:0;stroke:#00bfbf;stroke-width:1.5;" x="333.168" xlink:href="#m7eca0a28eb" y="27.513663"/>
     <use style="fill-opacity:0;stroke:#00bfbf;stroke-width:1.5;" x="363.64328" xlink:href="#m7eca0a28eb" y="32.86099"/>
    </g>
   </g>
   <g id="line2d_72">
    <path d="M 333.168 294.88 
L 333.168 27.513663 
" style="fill:none;stroke:#000000;stroke-linecap:square;stroke-width:1.5;"/>
   </g>
   <g id="patch_3">
    <path d="M 56.12 294.88 
L 56.12 24.84 
" style="fill:none;stroke:#000000;stroke-linecap:square;stroke-linejoin:miter;stroke-width:0.8;"/>
   </g>
   <g id="patch_4">
    <path d="M 333.168 294.88 
L 333.168 24.84 
" style="fill:none;stroke:#000000;stroke-linecap:square;stroke-linejoin:miter;stroke-width:0.8;"/>
   </g>
   <g id="patch_5">
    <path d="M 56.12 294.88 
L 333.168 294.88 
" style="fill:none;stroke:#000000;stroke-linecap:square;stroke-linejoin:miter;stroke-width:0.8;"/>
   </g>
   <g id="patch_6">
    <path d="M 56.12 24.84 
L 333.168 24.84 
" style="fill:none;stroke:#000000;stroke-linecap:square;stroke-linejoin:miter;stroke-width:0.8;"/>
   </g>
   <g id="text_13">
    <!-- 40-D -->
    <defs>
     <path d="M 19.671875 64.796875 
L 19.671875 8.109375 
L 31.59375 8.109375 
Q 46.6875 8.109375 53.6875 14.9375 
Q 60.6875 21.78125 60.6875 36.53125 
Q 60.6875 51.171875 53.6875 57.984375 
Q 46.6875 64.796875 31.59375 64.796875 
z
M 9.8125 72.90625 
L 30.078125 72.90625 
Q 51.265625 72.90625 61.171875 64.09375 
Q 71.09375 55.28125 71.09375 36.53125 
Q 71.09375 17.671875 61.125 8.828125 
Q 51.171875 0 30.078125 0 
L 9.8125 0 
z
" id="DejaVuSans-44"/>
    </defs>
    <g transform="translate(369.18424 294.223611)scale(0.17 -0.17)">
     <use xlink:href="#DejaVuSans-34"/>
     <use x="63.623047" xlink:href="#DejaVuSans-30"/>
     <use x="127.246094" xlink:href="#DejaVuSans-2d"/>
     <use x="163.330078" xlink:href="#DejaVuSans-44"/>
    </g>
   </g>
   <g id="text_14">
    <!-- 20-D -->
    <g transform="translate(369.18424 242.889274)scale(0.17 -0.17)">
     <use xlink:href="#DejaVuSans-32"/>
     <use x="63.623047" xlink:href="#DejaVuSans-30"/>
     <use x="127.246094" xlink:href="#DejaVuSans-2d"/>
     <use x="163.330078" xlink:href="#DejaVuSans-44"/>
    </g>
   </g>
   <g id="text_15">
    <!-- 10-D -->
    <g transform="translate(369.18424 191.554937)scale(0.17 -0.17)">
     <use xlink:href="#DejaVuSans-31"/>
     <use x="63.623047" xlink:href="#DejaVuSans-30"/>
     <use x="127.246094" xlink:href="#DejaVuSans-2d"/>
     <use x="163.330078" xlink:href="#DejaVuSans-44"/>
    </g>
   </g>
   <g id="text_16">
    <!-- 5-D -->
    <defs>
     <path d="M 10.796875 72.90625 
L 49.515625 72.90625 
L 49.515625 64.59375 
L 19.828125 64.59375 
L 19.828125 46.734375 
Q 21.96875 47.46875 24.109375 47.828125 
Q 26.265625 48.1875 28.421875 48.1875 
Q 40.625 48.1875 47.75 41.5 
Q 54.890625 34.8125 54.890625 23.390625 
Q 54.890625 11.625 47.5625 5.09375 
Q 40.234375 -1.421875 26.90625 -1.421875 
Q 22.3125 -1.421875 17.546875 -0.640625 
Q 12.796875 0.140625 7.71875 1.703125 
L 7.71875 11.625 
Q 12.109375 9.234375 16.796875 8.0625 
Q 21.484375 6.890625 26.703125 6.890625 
Q 35.15625 6.890625 40.078125 11.328125 
Q 45.015625 15.765625 45.015625 23.390625 
Q 45.015625 31 40.078125 35.4375 
Q 35.15625 39.890625 26.703125 39.890625 
Q 22.75 39.890625 18.8125 39.015625 
Q 14.890625 38.140625 10.796875 36.28125 
z
" id="DejaVuSans-35"/>
    </defs>
    <g transform="translate(369.18424 140.220601)scale(0.17 -0.17)">
     <use xlink:href="#DejaVuSans-35"/>
     <use x="63.623047" xlink:href="#DejaVuSans-2d"/>
     <use x="99.707031" xlink:href="#DejaVuSans-44"/>
    </g>
   </g>
   <g id="text_17">
    <!-- 3-D -->
    <defs>
     <path d="M 40.578125 39.3125 
Q 47.65625 37.796875 51.625 33 
Q 55.609375 28.21875 55.609375 21.1875 
Q 55.609375 10.40625 48.1875 4.484375 
Q 40.765625 -1.421875 27.09375 -1.421875 
Q 22.515625 -1.421875 17.65625 -0.515625 
Q 12.796875 0.390625 7.625 2.203125 
L 7.625 11.71875 
Q 11.71875 9.328125 16.59375 8.109375 
Q 21.484375 6.890625 26.8125 6.890625 
Q 36.078125 6.890625 40.9375 10.546875 
Q 45.796875 14.203125 45.796875 21.1875 
Q 45.796875 27.640625 41.28125 31.265625 
Q 36.765625 34.90625 28.71875 34.90625 
L 20.21875 34.90625 
L 20.21875 43.015625 
L 29.109375 43.015625 
Q 36.375 43.015625 40.234375 45.921875 
Q 44.09375 48.828125 44.09375 54.296875 
Q 44.09375 59.90625 40.109375 62.90625 
Q 36.140625 65.921875 28.71875 65.921875 
Q 24.65625 65.921875 20.015625 65.03125 
Q 15.375 64.15625 9.8125 62.3125 
L 9.8125 71.09375 
Q 15.4375 72.65625 20.34375 73.4375 
Q 25.25 74.21875 29.59375 74.21875 
Q 40.828125 74.21875 47.359375 69.109375 
Q 53.90625 64.015625 53.90625 55.328125 
Q 53.90625 49.265625 50.4375 45.09375 
Q 46.96875 40.921875 40.578125 39.3125 
z
" id="DejaVuSans-33"/>
    </defs>
    <g transform="translate(369.18424 88.886264)scale(0.17 -0.17)">
     <use xlink:href="#DejaVuSans-33"/>
     <use x="63.623047" xlink:href="#DejaVuSans-2d"/>
     <use x="99.707031" xlink:href="#DejaVuSans-44"/>
    </g>
   </g>
   <g id="text_18">
    <!-- 2-D -->
    <g transform="translate(369.18424 37.551928)scale(0.17 -0.17)">
     <use xlink:href="#DejaVuSans-32"/>
     <use x="63.623047" xlink:href="#DejaVuSans-2d"/>
     <use x="99.707031" xlink:href="#DejaVuSans-44"/>
    </g>
   </g>
   <g id="text_19">
    <!-- bbob f21 -->
    <defs>
     <path d="M 48.6875 27.296875 
Q 48.6875 37.203125 44.609375 42.84375 
Q 40.53125 48.484375 33.40625 48.484375 
Q 26.265625 48.484375 22.1875 42.84375 
Q 18.109375 37.203125 18.109375 27.296875 
Q 18.109375 17.390625 22.1875 11.75 
Q 26.265625 6.109375 33.40625 6.109375 
Q 40.53125 6.109375 44.609375 11.75 
Q 48.6875 17.390625 48.6875 27.296875 
z
M 18.109375 46.390625 
Q 20.953125 51.265625 25.265625 53.625 
Q 29.59375 56 35.59375 56 
Q 45.5625 56 51.78125 48.09375 
Q 58.015625 40.1875 58.015625 27.296875 
Q 58.015625 14.40625 51.78125 6.484375 
Q 45.5625 -1.421875 35.59375 -1.421875 
Q 29.59375 -1.421875 25.265625 0.953125 
Q 20.953125 3.328125 18.109375 8.203125 
L 18.109375 0 
L 9.078125 0 
L 9.078125 75.984375 
L 18.109375 75.984375 
z
" id="DejaVuSans-62"/>
    </defs>
    <g transform="translate(58.89048 35.290806)scale(0.102 -0.102)">
     <use xlink:href="#DejaVuSans-62"/>
     <use x="63.476562" xlink:href="#DejaVuSans-62"/>
     <use x="126.953125" xlink:href="#DejaVuSans-6f"/>
     <use x="188.134766" xlink:href="#DejaVuSans-62"/>
     <use x="251.611328" xlink:href="#DejaVuSans-20"/>
     <use x="283.398438" xlink:href="#DejaVuSans-66"/>
     <use x="318.603516" xlink:href="#DejaVuSans-32"/>
     <use x="382.226562" xlink:href="#DejaVuSans-31"/>
    </g>
    <!-- 51 targets: 100..1e-08 -->
    <defs>
     <path d="M 11.71875 12.40625 
L 22.015625 12.40625 
L 22.015625 0 
L 11.71875 0 
z
M 11.71875 51.703125 
L 22.015625 51.703125 
L 22.015625 39.3125 
L 11.71875 39.3125 
z
" id="DejaVuSans-3a"/>
    </defs>
    <g transform="translate(58.89048 46.712575)scale(0.102 -0.102)">
     <use xlink:href="#DejaVuSans-35"/>
     <use x="63.623047" xlink:href="#DejaVuSans-31"/>
     <use x="127.246094" xlink:href="#DejaVuSans-20"/>
     <use x="159.033203" xlink:href="#DejaVuSans-74"/>
     <use x="198.242188" xlink:href="#DejaVuSans-61"/>
     <use x="259.521484" xlink:href="#DejaVuSans-72"/>
     <use x="300.619141" xlink:href="#DejaVuSans-67"/>
     <use x="364.095703" xlink:href="#DejaVuSans-65"/>
     <use x="425.619141" xlink:href="#DejaVuSans-74"/>
     <use x="464.828125" xlink:href="#DejaVuSans-73"/>
     <use x="516.927734" xlink:href="#DejaVuSans-3a"/>
     <use x="550.619141" xlink:href="#DejaVuSans-20"/>
     <use x="582.40625" xlink:href="#DejaVuSans-31"/>
     <use x="646.029297" xlink:href="#DejaVuSans-30"/>
     <use x="709.652344" xlink:href="#DejaVuSans-30"/>
     <use x="773.275391" xlink:href="#DejaVuSans-2e"/>
     <use x="805.0625" xlink:href="#DejaVuSans-2e"/>
     <use x="836.849609" xlink:href="#DejaVuSans-31"/>
     <use x="900.472656" xlink:href="#DejaVuSans-65"/>
     <use x="961.996094" xlink:href="#DejaVuSans-2d"/>
     <use x="998.080078" xlink:href="#DejaVuSans-30"/>
     <use x="1061.703125" xlink:href="#DejaVuSans-38"/>
    </g>
    <!-- 15 instances -->
    <g transform="translate(58.89048 58.134344)scale(0.102 -0.102)">
     <use xlink:href="#DejaVuSans-31"/>
     <use x="63.623047" xlink:href="#DejaVuSans-35"/>
     <use x="127.246094" xlink:href="#DejaVuSans-20"/>
     <use x="159.033203" xlink:href="#DejaVuSans-69"/>
     <use x="186.816406" xlink:href="#DejaVuSans-6e"/>
     <use x="250.195312" xlink:href="#DejaVuSans-73"/>
     <use x="302.294922" xlink:href="#DejaVuSans-74"/>
     <use x="341.503906" xlink:href="#DejaVuSans-61"/>
     <use x="402.783203" xlink:href="#DejaVuSans-6e"/>
     <use x="466.162109" xlink:href="#DejaVuSans-63"/>
     <use x="521.142578" xlink:href="#DejaVuSans-65"/>
     <use x="582.666016" xlink:href="#DejaVuSans-73"/>
    </g>
   </g>
   <g id="text_20">
    <!-- v0.0.0 -->
    <g style="fill:#808080;" transform="translate(178.96275 290.099912)scale(0.1 -0.1)">
     <use xlink:href="#DejaVuSans-76"/>
     <use x="59.179688" xlink:href="#DejaVuSans-30"/>
     <use x="122.802734" xlink:href="#DejaVuSans-2e"/>
     <use x="154.589844" xlink:href="#DejaVuSans-30"/>
     <use x="218.212891" xlink:href="#DejaVuSans-2e"/>
     <use x="250" xlink:href="#DejaVuSans-30"/>
    </g>
   </g>
   <g id="text_21">
    <!-- 21 Gallagher 101 peaks -->
    <defs>
     <path d="M 59.515625 10.40625 
L 59.515625 29.984375 
L 43.40625 29.984375 
L 43.40625 38.09375 
L 69.28125 38.09375 
L 69.28125 6.78125 
Q 63.578125 2.734375 56.6875 0.65625 
Q 49.8125 -1.421875 42 -1.421875 
Q 24.90625 -1.421875 15.25 8.5625 
Q 5.609375 18.5625 5.609375 36.375 
Q 5.609375 54.25 15.25 64.234375 
Q 24.90625 74.21875 42 74.21875 
Q 49.125 74.21875 55.546875 72.453125 
Q 61.96875 70.703125 67.390625 67.28125 
L 67.390625 56.78125 
Q 61.921875 61.421875 55.765625 63.765625 
Q 49.609375 66.109375 42.828125 66.109375 
Q 29.4375 66.109375 22.71875 58.640625 
Q 16.015625 51.171875 16.015625 36.375 
Q 16.015625 21.625 22.71875 14.15625 
Q 29.4375 6.6875 42.828125 6.6875 
Q 48.046875 6.6875 52.140625 7.59375 
Q 56.25 8.5 59.515625 10.40625 
z
" id="DejaVuSans-47"/>
     <path d="M 54.890625 33.015625 
L 54.890625 0 
L 45.90625 0 
L 45.90625 32.71875 
Q 45.90625 40.484375 42.875 44.328125 
Q 39.84375 48.1875 33.796875 48.1875 
Q 26.515625 48.1875 22.3125 43.546875 
Q 18.109375 38.921875 18.109375 30.90625 
L 18.109375 0 
L 9.078125 0 
L 9.078125 75.984375 
L 18.109375 75.984375 
L 18.109375 46.1875 
Q 21.34375 51.125 25.703125 53.5625 
Q 30.078125 56 35.796875 56 
Q 45.21875 56 50.046875 50.171875 
Q 54.890625 44.34375 54.890625 33.015625 
z
" id="DejaVuSans-68"/>
     <path d="M 9.078125 75.984375 
L 18.109375 75.984375 
L 18.109375 31.109375 
L 44.921875 54.6875 
L 56.390625 54.6875 
L 27.390625 29.109375 
L 57.625 0 
L 45.90625 0 
L 18.109375 26.703125 
L 18.109375 0 
L 9.078125 0 
z
" id="DejaVuSans-6b"/>
    </defs>
    <g transform="translate(75.1565 18.84)scale(0.2 -0.2)">
     <use xlink:href="#DejaVuSans-32"/>
     <use x="63.623047" xlink:href="#DejaVuSans-31"/>
     <use x="127.246094" xlink:href="#DejaVuSans-20"/>
     <use x="159.033203" xlink:href="#DejaVuSans-47"/>
     <use x="236.523438" xlink:href="#DejaVuSans-61"/>
     <use x="297.802734" xlink:href="#DejaVuSans-6c"/>
     <use x="325.585938" xlink:href="#DejaVuSans-6c"/>
     <use x="353.369141" xlink:href="#DejaVuSans-61"/>
     <use x="414.648438" xlink:href="#DejaVuSans-67"/>
     <use x="478.125" xlink:href="#DejaVuSans-68"/>
     <use x="541.503906" xlink:href="#DejaVuSans-65"/>
     <use x="603.027344" xlink:href="#DejaVuSans-72"/>
     <use x="644.140625" xlink:href="#DejaVuSans-20"/>
     <use x="675.927734" xlink:href="#DejaVuSans-31"/>
     <use x="739.550781" xlink:href="#DejaVuSans-30"/>
     <use x="803.173828" xlink:href="#DejaVuSans-31"/>
     <use x="866.796875" xlink:href="#DejaVuSans-20"/>
     <use x="898.583984" xlink:href="#DejaVuSans-70"/>
     <use x="962.060547" xlink:href="#DejaVuSans-65"/>
     <use x="1023.583984" xlink:href="#DejaVuSans-61"/>
     <use x="1084.863281" xlink:href="#DejaVuSans-6b"/>
     <use x="1142.773438" xlink:href="#DejaVuSans-73"/>
    </g>
   </g>
  </g>
 </g>
 <defs>
  <clipPath id="p51c70e56e7">
   <rect height="270.04" width="277.048" x="56.12" y="24.84"/>
  </clipPath>
 </defs>
</svg>
