<?xml version="1.0" encoding="utf-8" standalone="no"?>
<!DOCTYPE svg PUBLIC "-//W3C//DTD SVG 1.1//EN"
  "http://www.w3.org/Graphics/SVG/1.1/DTD/svg11.dtd">
<!-- Created with matplotlib (http://matplotlib.org/) -->
<svg height="345.6pt" version="1.1" viewBox="0 0 460.8 345.6" width="460.8pt" xmlns="http://www.w3.org/2000/svg" xmlns:xlink="http://www.w3.org/1999/xlink">
 <defs>
  <style type="text/css">
*{stroke-linecap:butt;stroke-linejoin:round;}
  </style>
 </defs>
 <g id="figure_1">
  <g id="patch_1">
   <path d="M 0 345.6 
L 460.8 345.6 
L 460.8 0 
L 0 0 
z
" style="fill:#ffffff;"/>
  </g>
  <g id="axes_1">
   <g id="patch_2">
    <path d="M 56.12 294.88 
L 333.168 294.88 
L 333.168 6.845228 
L 56.12 6.845228 
z
" style="fill:#ffffff;"/>
   </g>
   <g id="matplotlib.axis_1">
    <g id="xtick_1">
     <g id="line2d_1">
      <path clip-path="url(#p4635a651d5)" d="M 56.12 294.88 
L 56.12 6.845228 
" style="fill:none;stroke:#b0b0b0;stroke-linecap:square;stroke-width:0.8;"/>
     </g>
     <g id="line2d_2">
      <defs>
       <path d="M 0 0 
L 0 3.5 
" id="m3f9520f4a6" style="stroke:#000000;stroke-width:0.8;"/>
      </defs>
      <g>
       <use style="stroke:#000000;stroke-width:0.8;" x="56.12" xlink:href="#m3f9520f4a6" y="294.88"/>
      </g>
     </g>
     <g id="text_1">
      <!-- 0 -->
      <defs>
       <path d="M 31.78125 66.40625 
Q 24.171875 66.40625 20.328125 58.90625 
Q 16.5 51.421875 16.5 36.375 
Q 16.5 21.390625 20.328125 13.890625 
Q 24.171875 6.390625 31.78125 6.390625 
Q 39.453125 6.390625 43.28125 13.890625 
Q 47.125 21.390625 47.125 36.375 
Q 47.125 51.421875 43.28125 58.90625 
Q 39.453125 66.40625 31.78125 66.40625 
z
M 31.78125 74.21875 
Q 44.046875 74.21875 50.515625 64.515625 
Q 56.984375 54.828125 56.984375 36.375 
Q 56.984375 17.96875 50.515625 8.265625 
Q 44.046875 -1.421875 31.78125 -1.421875 
Q 19.53125 -1.421875 13.0625 8.265625 
Q 6.59375 17.96875 6.59375 36.375 
Q 6.59375 54.828125 13.0625 64.515625 
Q 19.53125 74.21875 31.78125 74.21875 
z
" id="DejaVuSans-30"/>
      </defs>
      <g transform="translate(49.7575 317.076875)scale(0.2 -0.2)">
       <use xlink:href="#DejaVuSans-30"/>
      </g>
     </g>
    </g>
    <g id="xtick_2">
     <g id="line2d_3">
      <path clip-path="url(#p4635a651d5)" d="M 135.276571 294.88 
L 135.276571 6.845228 
" style="fill:none;stroke:#b0b0b0;stroke-linecap:square;stroke-width:0.8;"/>
     </g>
     <g id="line2d_4">
      <g>
       <use style="stroke:#000000;stroke-width:0.8;" x="135.276571" xlink:href="#m3f9520f4a6" y="294.88"/>
      </g>
     </g>
     <g id="text_2">
      <!-- 2 -->
      <defs>
       <path d="M 19.1875 8.296875 
L 53.609375 8.296875 
L 53.609375 0 
L 7.328125 0 
L 7.328125 8.296875 
Q 12.9375 14.109375 22.625 23.890625 
Q 32.328125 33.6875 34.8125 36.53125 
Q 39.546875 41.84375 41.421875 45.53125 
Q 43.3125 49.21875 43.3125 52.78125 
Q 43.3125 58.59375 39.234375 62.25 
Q 35.15625 65.921875 28.609375 65.921875 
Q 23.96875 65.921875 18.8125 64.3125 
Q 13.671875 62.703125 7.8125 59.421875 
L 7.8125 69.390625 
Q 13.765625 71.78125 18.9375 73 
Q 24.125 74.21875 28.421875 74.21875 
Q 39.75 74.21875 46.484375 68.546875 
Q 53.21875 62.890625 53.21875 53.421875 
Q 53.21875 48.921875 51.53125 44.890625 
Q 49.859375 40.875 45.40625 35.40625 
Q 44.1875 33.984375 37.640625 27.21875 
Q 31.109375 20.453125 19.1875 8.296875 
z
" id="DejaVuSans-32"/>
      </defs>
      <g transform="translate(128.914071 317.076875)scale(0.2 -0.2)">
       <use xlink:href="#DejaVuSans-32"/>
      </g>
     </g>
    </g>
    <g id="xtick_3">
     <g id="line2d_5">
      <path clip-path="url(#p4635a651d5)" d="M 214.433143 294.88 
L 214.433143 6.845228 
" style="fill:none;stroke:#b0b0b0;stroke-linecap:square;stroke-width:0.8;"/>
     </g>
     <g id="line2d_6">
      <g>
       <use style="stroke:#000000;stroke-width:0.8;" x="214.433143" xlink:href="#m3f9520f4a6" y="294.88"/>
      </g>
     </g>
     <g id="text_3">
      <!-- 4 -->
      <defs>
       <path d="M 37.796875 64.3125 
L 12.890625 25.390625 
L 37.796875 25.390625 
z
M 35.203125 72.90625 
L 47.609375 72.90625 
L 47.609375 25.390625 
L 58.015625 25.390625 
L 58.015625 17.1875 
L 47.609375 17.1875 
L 47.609375 0 
L 37.796875 0 
L 37.796875 17.1875 
L 4.890625 17.1875 
L 4.890625 26.703125 
z
" id="DejaVuSans-34"/>
      </defs>
      <g transform="translate(208.070643 317.076875)scale(0.2 -0.2)">
       <use xlink:href="#DejaVuSans-34"/>
      </g>
     </g>
    </g>
    <g id="xtick_4">
     <g id="line2d_7">
      <path clip-path="url(#p4635a651d5)" d="M 293.589714 294.88 
L 293.589714 6.845228 
" style="fill:none;stroke:#b0b0b0;stroke-linecap:square;stroke-width:0.8;"/>
     </g>
     <g id="line2d_8">
      <g>
       <use style="stroke:#000000;stroke-width:0.8;" x="293.589714" xlink:href="#m3f9520f4a6" y="294.88"/>
      </g>
     </g>
     <g id="text_4">
      <!-- 6 -->
      <defs>
       <path d="M 33.015625 40.375 
Q 26.375 40.375 22.484375 35.828125 
Q 18.609375 31.296875 18.609375 23.390625 
Q 18.609375 15.53125 22.484375 10.953125 
Q 26.375 6.390625 33.015625 6.390625 
Q 39.65625 6.390625 43.53125 10.953125 
Q 47.40625 15.53125 47.40625 23.390625 
Q 47.40625 31.296875 43.53125 35.828125 
Q 39.65625 40.375 33.015625 40.375 
z
M 52.59375 71.296875 
L 52.59375 62.3125 
Q 48.875 64.0625 45.09375 64.984375 
Q 41.3125 65.921875 37.59375 65.921875 
Q 27.828125 65.921875 22.671875 59.328125 
Q 17.53125 52.734375 16.796875 39.40625 
Q 19.671875 43.65625 24.015625 45.921875 
Q 28.375 48.1875 33.59375 48.1875 
Q 44.578125 48.1875 50.953125 41.515625 
Q 57.328125 34.859375 57.328125 23.390625 
Q 57.328125 12.15625 50.6875 5.359375 
Q 44.046875 -1.421875 33.015625 -1.421875 
Q 20.359375 -1.421875 13.671875 8.265625 
Q 6.984375 17.96875 6.984375 36.375 
Q 6.984375 53.65625 15.1875 63.9375 
Q 23.390625 74.21875 37.203125 74.21875 
Q 40.921875 74.21875 44.703125 73.484375 
Q 48.484375 72.75 52.59375 71.296875 
z
" id="DejaVuSans-36"/>
      </defs>
      <g transform="translate(287.227214 317.076875)scale(0.2 -0.2)">
       <use xlink:href="#DejaVuSans-36"/>
      </g>
     </g>
    </g>
    <g id="xtick_5">
     <g id="line2d_9">
      <path clip-path="url(#p4635a651d5)" d="M 56.12 294.88 
L 56.12 6.845228 
" style="fill:none;stroke:#b0b0b0;stroke-linecap:square;stroke-width:0.8;"/>
     </g>
     <g id="line2d_10">
      <defs>
       <path d="M 0 0 
L 0 2 
" id="mf1212dc934" style="stroke:#000000;stroke-width:0.6;"/>
      </defs>
      <g>
       <use style="stroke:#000000;stroke-width:0.6;" x="56.12" xlink:href="#mf1212dc934" y="294.88"/>
      </g>
     </g>
    </g>
    <g id="xtick_6">
     <g id="line2d_11">
      <path clip-path="url(#p4635a651d5)" d="M 95.698286 294.88 
L 95.698286 6.845228 
" style="fill:none;stroke:#b0b0b0;stroke-linecap:square;stroke-width:0.8;"/>
     </g>
     <g id="line2d_12">
      <g>
       <use style="stroke:#000000;stroke-width:0.6;" x="95.698286" xlink:href="#mf1212dc934" y="294.88"/>
      </g>
     </g>
    </g>
    <g id="xtick_7">
     <g id="line2d_13">
      <path clip-path="url(#p4635a651d5)" d="M 135.276571 294.88 
L 135.276571 6.845228 
" style="fill:none;stroke:#b0b0b0;stroke-linecap:square;stroke-width:0.8;"/>
     </g>
     <g id="line2d_14">
      <g>
       <use style="stroke:#000000;stroke-width:0.6;" x="135.276571" xlink:href="#mf1212dc934" y="294.88"/>
      </g>
     </g>
    </g>
    <g id="xtick_8">
     <g id="line2d_15">
      <path clip-path="url(#p4635a651d5)" d="M 174.854857 294.88 
L 174.854857 6.845228 
" style="fill:none;stroke:#b0b0b0;stroke-linecap:square;stroke-width:0.8;"/>
     </g>
     <g id="line2d_16">
      <g>
       <use style="stroke:#000000;stroke-width:0.6;" x="174.854857" xlink:href="#mf1212dc934" y="294.88"/>
      </g>
     </g>
    </g>
    <g id="xtick_9">
     <g id="line2d_17">
      <path clip-path="url(#p4635a651d5)" d="M 214.433143 294.88 
L 214.433143 6.845228 
" style="fill:none;stroke:#b0b0b0;stroke-linecap:square;stroke-width:0.8;"/>
     </g>
     <g id="line2d_18">
      <g>
       <use style="stroke:#000000;stroke-width:0.6;" x="214.433143" xlink:href="#mf1212dc934" y="294.88"/>
      </g>
     </g>
    </g>
    <g id="xtick_10">
     <g id="line2d_19">
      <path clip-path="url(#p4635a651d5)" d="M 254.011429 294.88 
L 254.011429 6.845228 
" style="fill:none;stroke:#b0b0b0;stroke-linecap:square;stroke-width:0.8;"/>
     </g>
     <g id="line2d_20">
      <g>
       <use style="stroke:#000000;stroke-width:0.6;" x="254.011429" xlink:href="#mf1212dc934" y="294.88"/>
      </g>
     </g>
    </g>
    <g id="xtick_11">
     <g id="line2d_21">
      <path clip-path="url(#p4635a651d5)" d="M 293.589714 294.88 
L 293.589714 6.845228 
" style="fill:none;stroke:#b0b0b0;stroke-linecap:square;stroke-width:0.8;"/>
     </g>
     <g id="line2d_22">
      <g>
       <use style="stroke:#000000;stroke-width:0.6;" x="293.589714" xlink:href="#mf1212dc934" y="294.88"/>
      </g>
     </g>
    </g>
    <g id="xtick_12">
     <g id="line2d_23">
      <path clip-path="url(#p4635a651d5)" d="M 333.168 294.88 
L 333.168 6.845228 
" style="fill:none;stroke:#b0b0b0;stroke-linecap:square;stroke-width:0.8;"/>
     </g>
     <g id="line2d_24">
      <g>
       <use style="stroke:#000000;stroke-width:0.6;" x="333.168" xlink:href="#mf1212dc934" y="294.88"/>
      </g>
     </g>
    </g>
    <g id="text_5">
     <!-- log10(# f-evals / dimension) -->
     <defs>
      <path d="M 9.421875 75.984375 
L 18.40625 75.984375 
L 18.40625 0 
L 9.421875 0 
z
" id="DejaVuSans-6c"/>
      <path d="M 30.609375 48.390625 
Q 23.390625 48.390625 19.1875 42.75 
Q 14.984375 37.109375 14.984375 27.296875 
Q 14.984375 17.484375 19.15625 11.84375 
Q 23.34375 6.203125 30.609375 6.203125 
Q 37.796875 6.203125 41.984375 11.859375 
Q 46.1875 17.53125 46.1875 27.296875 
Q 46.1875 37.015625 41.984375 42.703125 
Q 37.796875 48.390625 30.609375 48.390625 
z
M 30.609375 56 
Q 42.328125 56 49.015625 48.375 
Q 55.71875 40.765625 55.71875 27.296875 
Q 55.71875 13.875 49.015625 6.21875 
Q 42.328125 -1.421875 30.609375 -1.421875 
Q 18.84375 -1.421875 12.171875 6.21875 
Q 5.515625 13.875 5.515625 27.296875 
Q 5.515625 40.765625 12.171875 48.375 
Q 18.84375 56 30.609375 56 
z
" id="DejaVuSans-6f"/>
      <path d="M 45.40625 27.984375 
Q 45.40625 37.75 41.375 43.109375 
Q 37.359375 48.484375 30.078125 48.484375 
Q 22.859375 48.484375 18.828125 43.109375 
Q 14.796875 37.75 14.796875 27.984375 
Q 14.796875 18.265625 18.828125 12.890625 
Q 22.859375 7.515625 30.078125 7.515625 
Q 37.359375 7.515625 41.375 12.890625 
Q 45.40625 18.265625 45.40625 27.984375 
z
M 54.390625 6.78125 
Q 54.390625 -7.171875 48.1875 -13.984375 
Q 42 -20.796875 29.203125 -20.796875 
Q 24.46875 -20.796875 20.265625 -20.09375 
Q 16.0625 -19.390625 12.109375 -17.921875 
L 12.109375 -9.1875 
Q 16.0625 -11.328125 19.921875 -12.34375 
Q 23.78125 -13.375 27.78125 -13.375 
Q 36.625 -13.375 41.015625 -8.765625 
Q 45.40625 -4.15625 45.40625 5.171875 
L 45.40625 9.625 
Q 42.625 4.78125 38.28125 2.390625 
Q 33.9375 0 27.875 0 
Q 17.828125 0 11.671875 7.65625 
Q 5.515625 15.328125 5.515625 27.984375 
Q 5.515625 40.671875 11.671875 48.328125 
Q 17.828125 56 27.875 56 
Q 33.9375 56 38.28125 53.609375 
Q 42.625 51.21875 45.40625 46.390625 
L 45.40625 54.6875 
L 54.390625 54.6875 
z
" id="DejaVuSans-67"/>
      <path d="M 12.40625 8.296875 
L 28.515625 8.296875 
L 28.515625 63.921875 
L 10.984375 60.40625 
L 10.984375 69.390625 
L 28.421875 72.90625 
L 38.28125 72.90625 
L 38.28125 8.296875 
L 54.390625 8.296875 
L 54.390625 0 
L 12.40625 0 
z
" id="DejaVuSans-31"/>
      <path d="M 31 75.875 
Q 24.46875 64.65625 21.28125 53.65625 
Q 18.109375 42.671875 18.109375 31.390625 
Q 18.109375 20.125 21.3125 9.0625 
Q 24.515625 -2 31 -13.1875 
L 23.1875 -13.1875 
Q 15.875 -1.703125 12.234375 9.375 
Q 8.59375 20.453125 8.59375 31.390625 
Q 8.59375 42.28125 12.203125 53.3125 
Q 15.828125 64.359375 23.1875 75.875 
z
" id="DejaVuSans-28"/>
      <path d="M 51.125 44 
L 36.921875 44 
L 32.8125 27.6875 
L 47.125 27.6875 
z
M 43.796875 71.78125 
L 38.71875 51.515625 
L 52.984375 51.515625 
L 58.109375 71.78125 
L 65.921875 71.78125 
L 60.890625 51.515625 
L 76.125 51.515625 
L 76.125 44 
L 58.984375 44 
L 54.984375 27.6875 
L 70.515625 27.6875 
L 70.515625 20.21875 
L 53.078125 20.21875 
L 48 0 
L 40.1875 0 
L 45.21875 20.21875 
L 30.90625 20.21875 
L 25.875 0 
L 18.015625 0 
L 23.09375 20.21875 
L 7.71875 20.21875 
L 7.71875 27.6875 
L 24.90625 27.6875 
L 29 44 
L 13.28125 44 
L 13.28125 51.515625 
L 30.90625 51.515625 
L 35.890625 71.78125 
z
" id="DejaVuSans-23"/>
      <path id="DejaVuSans-20"/>
      <path d="M 37.109375 75.984375 
L 37.109375 68.5 
L 28.515625 68.5 
Q 23.6875 68.5 21.796875 66.546875 
Q 19.921875 64.59375 19.921875 59.515625 
L 19.921875 54.6875 
L 34.71875 54.6875 
L 34.71875 47.703125 
L 19.921875 47.703125 
L 19.921875 0 
L 10.890625 0 
L 10.890625 47.703125 
L 2.296875 47.703125 
L 2.296875 54.6875 
L 10.890625 54.6875 
L 10.890625 58.5 
Q 10.890625 67.625 15.140625 71.796875 
Q 19.390625 75.984375 28.609375 75.984375 
z
" id="DejaVuSans-66"/>
      <path d="M 4.890625 31.390625 
L 31.203125 31.390625 
L 31.203125 23.390625 
L 4.890625 23.390625 
z
" id="DejaVuSans-2d"/>
      <path d="M 56.203125 29.59375 
L 56.203125 25.203125 
L 14.890625 25.203125 
Q 15.484375 15.921875 20.484375 11.0625 
Q 25.484375 6.203125 34.421875 6.203125 
Q 39.59375 6.203125 44.453125 7.46875 
Q 49.3125 8.734375 54.109375 11.28125 
L 54.109375 2.78125 
Q 49.265625 0.734375 44.1875 -0.34375 
Q 39.109375 -1.421875 33.890625 -1.421875 
Q 20.796875 -1.421875 13.15625 6.1875 
Q 5.515625 13.8125 5.515625 26.8125 
Q 5.515625 40.234375 12.765625 48.109375 
Q 20.015625 56 32.328125 56 
Q 43.359375 56 49.78125 48.890625 
Q 56.203125 41.796875 56.203125 29.59375 
z
M 47.21875 32.234375 
Q 47.125 39.59375 43.09375 43.984375 
Q 39.0625 48.390625 32.421875 48.390625 
Q 24.90625 48.390625 20.390625 44.140625 
Q 15.875 39.890625 15.1875 32.171875 
z
" id="DejaVuSans-65"/>
      <path d="M 2.984375 54.6875 
L 12.5 54.6875 
L 29.59375 8.796875 
L 46.6875 54.6875 
L 56.203125 54.6875 
L 35.6875 0 
L 23.484375 0 
z
" id="DejaVuSans-76"/>
      <path d="M 34.28125 27.484375 
Q 23.390625 27.484375 19.1875 25 
Q 14.984375 22.515625 14.984375 16.5 
Q 14.984375 11.71875 18.140625 8.90625 
Q 21.296875 6.109375 26.703125 6.109375 
Q 34.1875 6.109375 38.703125 11.40625 
Q 43.21875 16.703125 43.21875 25.484375 
L 43.21875 27.484375 
z
M 52.203125 31.203125 
L 52.203125 0 
L 43.21875 0 
L 43.21875 8.296875 
Q 40.140625 3.328125 35.546875 0.953125 
Q 30.953125 -1.421875 24.3125 -1.421875 
Q 15.921875 -1.421875 10.953125 3.296875 
Q 6 8.015625 6 15.921875 
Q 6 25.140625 12.171875 29.828125 
Q 18.359375 34.515625 30.609375 34.515625 
L 43.21875 34.515625 
L 43.21875 35.40625 
Q 43.21875 41.609375 39.140625 45 
Q 35.0625 48.390625 27.6875 48.390625 
Q 23 48.390625 18.546875 47.265625 
Q 14.109375 46.140625 10.015625 43.890625 
L 10.015625 52.203125 
Q 14.9375 54.109375 19.578125 55.046875 
Q 24.21875 56 28.609375 56 
Q 40.484375 56 46.34375 49.84375 
Q 52.203125 43.703125 52.203125 31.203125 
z
" id="DejaVuSans-61"/>
      <path d="M 44.28125 53.078125 
L 44.28125 44.578125 
Q 40.484375 46.53125 36.375 47.5 
Q 32.28125 48.484375 27.875 48.484375 
Q 21.1875 48.484375 17.84375 46.4375 
Q 14.5 44.390625 14.5 40.28125 
Q 14.5 37.15625 16.890625 35.375 
Q 19.28125 33.59375 26.515625 31.984375 
L 29.59375 31.296875 
Q 39.15625 29.25 43.1875 25.515625 
Q 47.21875 21.78125 47.21875 15.09375 
Q 47.21875 7.46875 41.1875 3.015625 
Q 35.15625 -1.421875 24.609375 -1.421875 
Q 20.21875 -1.421875 15.453125 -0.5625 
Q 10.6875 0.296875 5.421875 2 
L 5.421875 11.28125 
Q 10.40625 8.6875 15.234375 7.390625 
Q 20.0625 6.109375 24.8125 6.109375 
Q 31.15625 6.109375 34.5625 8.28125 
Q 37.984375 10.453125 37.984375 14.40625 
Q 37.984375 18.0625 35.515625 20.015625 
Q 33.0625 21.96875 24.703125 23.78125 
L 21.578125 24.515625 
Q 13.234375 26.265625 9.515625 29.90625 
Q 5.8125 33.546875 5.8125 39.890625 
Q 5.8125 47.609375 11.28125 51.796875 
Q 16.75 56 26.8125 56 
Q 31.78125 56 36.171875 55.265625 
Q 40.578125 54.546875 44.28125 53.078125 
z
" id="DejaVuSans-73"/>
      <path d="M 25.390625 72.90625 
L 33.6875 72.90625 
L 8.296875 -9.28125 
L 0 -9.28125 
z
" id="DejaVuSans-2f"/>
      <path d="M 45.40625 46.390625 
L 45.40625 75.984375 
L 54.390625 75.984375 
L 54.390625 0 
L 45.40625 0 
L 45.40625 8.203125 
Q 42.578125 3.328125 38.25 0.953125 
Q 33.9375 -1.421875 27.875 -1.421875 
Q 17.96875 -1.421875 11.734375 6.484375 
Q 5.515625 14.40625 5.515625 27.296875 
Q 5.515625 40.1875 11.734375 48.09375 
Q 17.96875 56 27.875 56 
Q 33.9375 56 38.25 53.625 
Q 42.578125 51.265625 45.40625 46.390625 
z
M 14.796875 27.296875 
Q 14.796875 17.390625 18.875 11.75 
Q 22.953125 6.109375 30.078125 6.109375 
Q 37.203125 6.109375 41.296875 11.75 
Q 45.40625 17.390625 45.40625 27.296875 
Q 45.40625 37.203125 41.296875 42.84375 
Q 37.203125 48.484375 30.078125 48.484375 
Q 22.953125 48.484375 18.875 42.84375 
Q 14.796875 37.203125 14.796875 27.296875 
z
" id="DejaVuSans-64"/>
      <path d="M 9.421875 54.6875 
L 18.40625 54.6875 
L 18.40625 0 
L 9.421875 0 
z
M 9.421875 75.984375 
L 18.40625 75.984375 
L 18.40625 64.59375 
L 9.421875 64.59375 
z
" id="DejaVuSans-69"/>
      <path d="M 52 44.1875 
Q 55.375 50.25 60.0625 53.125 
Q 64.75 56 71.09375 56 
Q 79.640625 56 84.28125 50.015625 
Q 88.921875 44.046875 88.921875 33.015625 
L 88.921875 0 
L 79.890625 0 
L 79.890625 32.71875 
Q 79.890625 40.578125 77.09375 44.375 
Q 74.3125 48.1875 68.609375 48.1875 
Q 61.625 48.1875 57.5625 43.546875 
Q 53.515625 38.921875 53.515625 30.90625 
L 53.515625 0 
L 44.484375 0 
L 44.484375 32.71875 
Q 44.484375 40.625 41.703125 44.40625 
Q 38.921875 48.1875 33.109375 48.1875 
Q 26.21875 48.1875 22.15625 43.53125 
Q 18.109375 38.875 18.109375 30.90625 
L 18.109375 0 
L 9.078125 0 
L 9.078125 54.6875 
L 18.109375 54.6875 
L 18.109375 46.1875 
Q 21.1875 51.21875 25.484375 53.609375 
Q 29.78125 56 35.6875 56 
Q 41.65625 56 45.828125 52.96875 
Q 50 49.953125 52 44.1875 
z
" id="DejaVuSans-6d"/>
      <path d="M 54.890625 33.015625 
L 54.890625 0 
L 45.90625 0 
L 45.90625 32.71875 
Q 45.90625 40.484375 42.875 44.328125 
Q 39.84375 48.1875 33.796875 48.1875 
Q 26.515625 48.1875 22.3125 43.546875 
Q 18.109375 38.921875 18.109375 30.90625 
L 18.109375 0 
L 9.078125 0 
L 9.078125 54.6875 
L 18.109375 54.6875 
L 18.109375 46.1875 
Q 21.34375 51.125 25.703125 53.5625 
Q 30.078125 56 35.796875 56 
Q 45.21875 56 50.046875 50.171875 
Q 54.890625 44.34375 54.890625 33.015625 
z
" id="DejaVuSans-6e"/>
      <path d="M 8.015625 75.875 
L 15.828125 75.875 
Q 23.140625 64.359375 26.78125 53.3125 
Q 30.421875 42.28125 30.421875 31.390625 
Q 30.421875 20.453125 26.78125 9.375 
Q 23.140625 -1.703125 15.828125 -13.1875 
L 8.015625 -13.1875 
Q 14.5 -2 17.703125 9.0625 
Q 20.90625 20.125 20.90625 31.390625 
Q 20.90625 42.671875 17.703125 53.65625 
Q 14.5 64.65625 8.015625 75.875 
z
" id="DejaVuSans-29"/>
     </defs>
     <g transform="translate(73.803219 338.153594)scale(0.17 -0.17)">
      <use xlink:href="#DejaVuSans-6c"/>
      <use x="27.783203" xlink:href="#DejaVuSans-6f"/>
      <use x="88.964844" xlink:href="#DejaVuSans-67"/>
      <use x="152.441406" xlink:href="#DejaVuSans-31"/>
      <use x="216.064453" xlink:href="#DejaVuSans-30"/>
      <use x="279.6875" xlink:href="#DejaVuSans-28"/>
      <use x="318.701172" xlink:href="#DejaVuSans-23"/>
      <use x="402.490234" xlink:href="#DejaVuSans-20"/>
      <use x="434.277344" xlink:href="#DejaVuSans-66"/>
      <use x="469.404297" xlink:href="#DejaVuSans-2d"/>
      <use x="505.488281" xlink:href="#DejaVuSans-65"/>
      <use x="567.011719" xlink:href="#DejaVuSans-76"/>
      <use x="626.191406" xlink:href="#DejaVuSans-61"/>
      <use x="687.470703" xlink:href="#DejaVuSans-6c"/>
      <use x="715.253906" xlink:href="#DejaVuSans-73"/>
      <use x="767.353516" xlink:href="#DejaVuSans-20"/>
      <use x="799.140625" xlink:href="#DejaVuSans-2f"/>
      <use x="832.832031" xlink:href="#DejaVuSans-20"/>
      <use x="864.619141" xlink:href="#DejaVuSans-64"/>
      <use x="928.095703" xlink:href="#DejaVuSans-69"/>
      <use x="955.878906" xlink:href="#DejaVuSans-6d"/>
      <use x="1053.291016" xlink:href="#DejaVuSans-65"/>
      <use x="1114.814453" xlink:href="#DejaVuSans-6e"/>
      <use x="1178.193359" xlink:href="#DejaVuSans-73"/>
      <use x="1230.292969" xlink:href="#DejaVuSans-69"/>
      <use x="1258.076172" xlink:href="#DejaVuSans-6f"/>
      <use x="1319.257812" xlink:href="#DejaVuSans-6e"/>
      <use x="1382.636719" xlink:href="#DejaVuSans-29"/>
     </g>
    </g>
   </g>
   <g id="matplotlib.axis_2">
    <g id="ytick_1">
     <g id="line2d_25">
      <path clip-path="url(#p4635a651d5)" d="M 56.12 294.88 
L 333.168 294.88 
" style="fill:none;stroke:#b0b0b0;stroke-linecap:square;stroke-width:0.8;"/>
     </g>
     <g id="line2d_26">
      <defs>
       <path d="M 0 0 
L -3.5 0 
" id="m9a0c8642c3" style="stroke:#000000;stroke-width:0.8;"/>
      </defs>
      <g>
       <use style="stroke:#000000;stroke-width:0.8;" x="56.12" xlink:href="#m9a0c8642c3" y="294.88"/>
      </g>
     </g>
     <g id="text_6">
      <!-- 0.0 -->
      <defs>
       <path d="M 10.6875 12.40625 
L 21 12.40625 
L 21 0 
L 10.6875 0 
z
" id="DejaVuSans-2e"/>
      </defs>
      <g transform="translate(23.675 300.95875)scale(0.16 -0.16)">
       <use xlink:href="#DejaVuSans-30"/>
       <use x="63.623047" xlink:href="#DejaVuSans-2e"/>
       <use x="95.410156" xlink:href="#DejaVuSans-30"/>
      </g>
     </g>
    </g>
    <g id="ytick_2">
     <g id="line2d_27">
      <path clip-path="url(#p4635a651d5)" d="M 56.12 237.843411 
L 333.168 237.843411 
" style="fill:none;stroke:#b0b0b0;stroke-linecap:square;stroke-width:0.8;"/>
     </g>
     <g id="line2d_28">
      <g>
       <use style="stroke:#000000;stroke-width:0.8;" x="56.12" xlink:href="#m9a0c8642c3" y="237.843411"/>
      </g>
     </g>
     <g id="text_7">
      <!-- 0.2 -->
      <g transform="translate(23.675 243.922161)scale(0.16 -0.16)">
       <use xlink:href="#DejaVuSans-30"/>
       <use x="63.623047" xlink:href="#DejaVuSans-2e"/>
       <use x="95.410156" xlink:href="#DejaVuSans-32"/>
      </g>
     </g>
    </g>
    <g id="ytick_3">
     <g id="line2d_29">
      <path clip-path="url(#p4635a651d5)" d="M 56.12 180.806823 
L 333.168 180.806823 
" style="fill:none;stroke:#b0b0b0;stroke-linecap:square;stroke-width:0.8;"/>
     </g>
     <g id="line2d_30">
      <g>
       <use style="stroke:#000000;stroke-width:0.8;" x="56.12" xlink:href="#m9a0c8642c3" y="180.806823"/>
      </g>
     </g>
     <g id="text_8">
      <!-- 0.4 -->
      <g transform="translate(23.675 186.885573)scale(0.16 -0.16)">
       <use xlink:href="#DejaVuSans-30"/>
       <use x="63.623047" xlink:href="#DejaVuSans-2e"/>
       <use x="95.410156" xlink:href="#DejaVuSans-34"/>
      </g>
     </g>
    </g>
    <g id="ytick_4">
     <g id="line2d_31">
      <path clip-path="url(#p4635a651d5)" d="M 56.12 123.770234 
L 333.168 123.770234 
" style="fill:none;stroke:#b0b0b0;stroke-linecap:square;stroke-width:0.8;"/>
     </g>
     <g id="line2d_32">
      <g>
       <use style="stroke:#000000;stroke-width:0.8;" x="56.12" xlink:href="#m9a0c8642c3" y="123.770234"/>
      </g>
     </g>
     <g id="text_9">
      <!-- 0.6 -->
      <g transform="translate(23.675 129.848984)scale(0.16 -0.16)">
       <use xlink:href="#DejaVuSans-30"/>
       <use x="63.623047" xlink:href="#DejaVuSans-2e"/>
       <use x="95.410156" xlink:href="#DejaVuSans-36"/>
      </g>
     </g>
    </g>
    <g id="ytick_5">
     <g id="line2d_33">
      <path clip-path="url(#p4635a651d5)" d="M 56.12 66.733646 
L 333.168 66.733646 
" style="fill:none;stroke:#b0b0b0;stroke-linecap:square;stroke-width:0.8;"/>
     </g>
     <g id="line2d_34">
      <g>
       <use style="stroke:#000000;stroke-width:0.8;" x="56.12" xlink:href="#m9a0c8642c3" y="66.733646"/>
      </g>
     </g>
     <g id="text_10">
      <!-- 0.8 -->
      <defs>
       <path d="M 31.78125 34.625 
Q 24.75 34.625 20.71875 30.859375 
Q 16.703125 27.09375 16.703125 20.515625 
Q 16.703125 13.921875 20.71875 10.15625 
Q 24.75 6.390625 31.78125 6.390625 
Q 38.8125 6.390625 42.859375 10.171875 
Q 46.921875 13.96875 46.921875 20.515625 
Q 46.921875 27.09375 42.890625 30.859375 
Q 38.875 34.625 31.78125 34.625 
z
M 21.921875 38.8125 
Q 15.578125 40.375 12.03125 44.71875 
Q 8.5 49.078125 8.5 55.328125 
Q 8.5 64.0625 14.71875 69.140625 
Q 20.953125 74.21875 31.78125 74.21875 
Q 42.671875 74.21875 48.875 69.140625 
Q 55.078125 64.0625 55.078125 55.328125 
Q 55.078125 49.078125 51.53125 44.71875 
Q 48 40.375 41.703125 38.8125 
Q 48.828125 37.15625 52.796875 32.3125 
Q 56.78125 27.484375 56.78125 20.515625 
Q 56.78125 9.90625 50.3125 4.234375 
Q 43.84375 -1.421875 31.78125 -1.421875 
Q 19.734375 -1.421875 13.25 4.234375 
Q 6.78125 9.90625 6.78125 20.515625 
Q 6.78125 27.484375 10.78125 32.3125 
Q 14.796875 37.15625 21.921875 38.8125 
z
M 18.3125 54.390625 
Q 18.3125 48.734375 21.84375 45.5625 
Q 25.390625 42.390625 31.78125 42.390625 
Q 38.140625 42.390625 41.71875 45.5625 
Q 45.3125 48.734375 45.3125 54.390625 
Q 45.3125 60.0625 41.71875 63.234375 
Q 38.140625 66.40625 31.78125 66.40625 
Q 25.390625 66.40625 21.84375 63.234375 
Q 18.3125 60.0625 18.3125 54.390625 
z
" id="DejaVuSans-38"/>
      </defs>
      <g transform="translate(23.675 72.812396)scale(0.16 -0.16)">
       <use xlink:href="#DejaVuSans-30"/>
       <use x="63.623047" xlink:href="#DejaVuSans-2e"/>
       <use x="95.410156" xlink:href="#DejaVuSans-38"/>
      </g>
     </g>
    </g>
    <g id="ytick_6">
     <g id="line2d_35">
      <path clip-path="url(#p4635a651d5)" d="M 56.12 9.697057 
L 333.168 9.697057 
" style="fill:none;stroke:#b0b0b0;stroke-linecap:square;stroke-width:0.8;"/>
     </g>
     <g id="line2d_36">
      <g>
       <use style="stroke:#000000;stroke-width:0.8;" x="56.12" xlink:href="#m9a0c8642c3" y="9.697057"/>
      </g>
     </g>
     <g id="text_11">
      <!-- 1.0 -->
      <g transform="translate(23.675 15.775807)scale(0.16 -0.16)">
       <use xlink:href="#DejaVuSans-31"/>
       <use x="63.623047" xlink:href="#DejaVuSans-2e"/>
       <use x="95.410156" xlink:href="#DejaVuSans-30"/>
      </g>
     </g>
    </g>
    <g id="text_12">
     <!-- Fraction of function,target pairs -->
     <defs>
      <path d="M 9.8125 72.90625 
L 51.703125 72.90625 
L 51.703125 64.59375 
L 19.671875 64.59375 
L 19.671875 43.109375 
L 48.578125 43.109375 
L 48.578125 34.8125 
L 19.671875 34.8125 
L 19.671875 0 
L 9.8125 0 
z
" id="DejaVuSans-46"/>
      <path d="M 41.109375 46.296875 
Q 39.59375 47.171875 37.8125 47.578125 
Q 36.03125 48 33.890625 48 
Q 26.265625 48 22.1875 43.046875 
Q 18.109375 38.09375 18.109375 28.8125 
L 18.109375 0 
L 9.078125 0 
L 9.078125 54.6875 
L 18.109375 54.6875 
L 18.109375 46.1875 
Q 20.953125 51.171875 25.484375 53.578125 
Q 30.03125 56 36.53125 56 
Q 37.453125 56 38.578125 55.875 
Q 39.703125 55.765625 41.0625 55.515625 
z
" id="DejaVuSans-72"/>
      <path d="M 48.78125 52.59375 
L 48.78125 44.1875 
Q 44.96875 46.296875 41.140625 47.34375 
Q 37.3125 48.390625 33.40625 48.390625 
Q 24.65625 48.390625 19.8125 42.84375 
Q 14.984375 37.3125 14.984375 27.296875 
Q 14.984375 17.28125 19.8125 11.734375 
Q 24.65625 6.203125 33.40625 6.203125 
Q 37.3125 6.203125 41.140625 7.25 
Q 44.96875 8.296875 48.78125 10.40625 
L 48.78125 2.09375 
Q 45.015625 0.34375 40.984375 -0.53125 
Q 36.96875 -1.421875 32.421875 -1.421875 
Q 20.0625 -1.421875 12.78125 6.34375 
Q 5.515625 14.109375 5.515625 27.296875 
Q 5.515625 40.671875 12.859375 48.328125 
Q 20.21875 56 33.015625 56 
Q 37.15625 56 41.109375 55.140625 
Q 45.0625 54.296875 48.78125 52.59375 
z
" id="DejaVuSans-63"/>
      <path d="M 18.3125 70.21875 
L 18.3125 54.6875 
L 36.8125 54.6875 
L 36.8125 47.703125 
L 18.3125 47.703125 
L 18.3125 18.015625 
Q 18.3125 11.328125 20.140625 9.421875 
Q 21.96875 7.515625 27.59375 7.515625 
L 36.8125 7.515625 
L 36.8125 0 
L 27.59375 0 
Q 17.1875 0 13.234375 3.875 
Q 9.28125 7.765625 9.28125 18.015625 
L 9.28125 47.703125 
L 2.6875 47.703125 
L 2.6875 54.6875 
L 9.28125 54.6875 
L 9.28125 70.21875 
z
" id="DejaVuSans-74"/>
      <path d="M 8.5 21.578125 
L 8.5 54.6875 
L 17.484375 54.6875 
L 17.484375 21.921875 
Q 17.484375 14.15625 20.5 10.265625 
Q 23.53125 6.390625 29.59375 6.390625 
Q 36.859375 6.390625 41.078125 11.03125 
Q 45.3125 15.671875 45.3125 23.6875 
L 45.3125 54.6875 
L 54.296875 54.6875 
L 54.296875 0 
L 45.3125 0 
L 45.3125 8.40625 
Q 42.046875 3.421875 37.71875 1 
Q 33.40625 -1.421875 27.6875 -1.421875 
Q 18.265625 -1.421875 13.375 4.4375 
Q 8.5 10.296875 8.5 21.578125 
z
M 31.109375 56 
z
" id="DejaVuSans-75"/>
      <path d="M 11.71875 12.40625 
L 22.015625 12.40625 
L 22.015625 4 
L 14.015625 -11.625 
L 7.71875 -11.625 
L 11.71875 4 
z
" id="DejaVuSans-2c"/>
      <path d="M 18.109375 8.203125 
L 18.109375 -20.796875 
L 9.078125 -20.796875 
L 9.078125 54.6875 
L 18.109375 54.6875 
L 18.109375 46.390625 
Q 20.953125 51.265625 25.265625 53.625 
Q 29.59375 56 35.59375 56 
Q 45.5625 56 51.78125 48.09375 
Q 58.015625 40.1875 58.015625 27.296875 
Q 58.015625 14.40625 51.78125 6.484375 
Q 45.5625 -1.421875 35.59375 -1.421875 
Q 29.59375 -1.421875 25.265625 0.953125 
Q 20.953125 3.328125 18.109375 8.203125 
z
M 48.6875 27.296875 
Q 48.6875 37.203125 44.609375 42.84375 
Q 40.53125 48.484375 33.40625 48.484375 
Q 26.265625 48.484375 22.1875 42.84375 
Q 18.109375 37.203125 18.109375 27.296875 
Q 18.109375 17.390625 22.1875 11.75 
Q 26.265625 6.109375 33.40625 6.109375 
Q 40.53125 6.109375 44.609375 11.75 
Q 48.6875 17.390625 48.6875 27.296875 
z
" id="DejaVuSans-70"/>
     </defs>
     <g transform="translate(16.139531 286.001989)rotate(-90)scale(0.17 -0.17)">
      <use xlink:href="#DejaVuSans-46"/>
      <use x="57.410156" xlink:href="#DejaVuSans-72"/>
      <use x="98.523438" xlink:href="#DejaVuSans-61"/>
      <use x="159.802734" xlink:href="#DejaVuSans-63"/>
      <use x="214.783203" xlink:href="#DejaVuSans-74"/>
      <use x="253.992188" xlink:href="#DejaVuSans-69"/>
      <use x="281.775391" xlink:href="#DejaVuSans-6f"/>
      <use x="342.957031" xlink:href="#DejaVuSans-6e"/>
      <use x="406.335938" xlink:href="#DejaVuSans-20"/>
      <use x="438.123047" xlink:href="#DejaVuSans-6f"/>
      <use x="499.304688" xlink:href="#DejaVuSans-66"/>
      <use x="534.509766" xlink:href="#DejaVuSans-20"/>
      <use x="566.296875" xlink:href="#DejaVuSans-66"/>
      <use x="601.501953" xlink:href="#DejaVuSans-75"/>
      <use x="664.880859" xlink:href="#DejaVuSans-6e"/>
      <use x="728.259766" xlink:href="#DejaVuSans-63"/>
      <use x="783.240234" xlink:href="#DejaVuSans-74"/>
      <use x="822.449219" xlink:href="#DejaVuSans-69"/>
      <use x="850.232422" xlink:href="#DejaVuSans-6f"/>
      <use x="911.414062" xlink:href="#DejaVuSans-6e"/>
      <use x="974.792969" xlink:href="#DejaVuSans-2c"/>
      <use x="1006.580078" xlink:href="#DejaVuSans-74"/>
      <use x="1045.789062" xlink:href="#DejaVuSans-61"/>
      <use x="1107.068359" xlink:href="#DejaVuSans-72"/>
      <use x="1148.166016" xlink:href="#DejaVuSans-67"/>
      <use x="1211.642578" xlink:href="#DejaVuSans-65"/>
      <use x="1273.166016" xlink:href="#DejaVuSans-74"/>
      <use x="1312.375" xlink:href="#DejaVuSans-20"/>
      <use x="1344.162109" xlink:href="#DejaVuSans-70"/>
      <use x="1407.638672" xlink:href="#DejaVuSans-61"/>
      <use x="1468.917969" xlink:href="#DejaVuSans-69"/>
      <use x="1496.701172" xlink:href="#DejaVuSans-72"/>
      <use x="1537.814453" xlink:href="#DejaVuSans-73"/>
     </g>
    </g>
   </g>
   <g id="line2d_37">
    <defs>
     <path d="M 0 1.5 
C 0.397805 1.5 0.77937 1.341951 1.06066 1.06066 
C 1.341951 0.77937 1.5 0.397805 1.5 0 
C 1.5 -0.397805 1.341951 -0.77937 1.06066 -1.06066 
C 0.77937 -1.341951 0.397805 -1.5 0 -1.5 
C -0.397805 -1.5 -0.77937 -1.341951 -1.06066 -1.06066 
C -1.341951 -0.77937 -1.5 -0.397805 -1.5 0 
C -1.5 0.397805 -1.341951 0.77937 -1.06066 1.06066 
C -0.77937 1.341951 -0.397805 1.5 0 1.5 
z
" id="m788b60871e" style="stroke:#000080;"/>
    </defs>
    <g>
     <use style="fill:#000080;stroke:#000080;" x="249.655113" xlink:href="#m788b60871e" y="216.594486"/>
     <use style="fill:#000080;stroke:#000080;" x="249.655113" xlink:href="#m788b60871e" y="216.594486"/>
    </g>
   </g>
   <g id="line2d_38">
    <path d="M 16.541714 294.88 
L 16.541714 270.275981 
L 28.455965 270.275981 
L 28.455965 268.039252 
L 35.425356 268.039252 
L 35.425356 265.243341 
L 40.370217 265.243341 
L 40.370217 263.565795 
L 44.205749 263.565795 
L 44.205749 260.210701 
L 52.284468 260.210701 
L 52.284468 259.092337 
L 56.12 259.092337 
L 56.12 258.533154 
L 57.758252 258.533154 
L 57.758252 256.855608 
L 63.08939 256.855608 
L 63.08939 256.296425 
L 67.15259 256.296425 
L 67.15259 255.737243 
L 77.155024 255.737243 
L 77.155024 255.178061 
L 79.513324 255.178061 
L 79.513324 254.618879 
L 85.732 254.618879 
L 85.732 253.500514 
L 88.293717 253.500514 
L 88.293717 252.941332 
L 94.816624 252.941332 
L 94.816624 252.38215 
L 95.174734 252.38215 
L 95.174734 251.822967 
L 105.60948 251.822967 
L 105.60948 251.263785 
L 106.730875 251.263785 
L 106.730875 250.704603 
L 108.935392 250.704603 
L 108.935392 250.145421 
L 109.406343 250.145421 
L 109.406343 249.027056 
L 116.220179 249.027056 
L 116.220179 248.467874 
L 116.375733 248.467874 
L 116.375733 247.34951 
L 136.977214 247.34951 
L 136.977214 246.231145 
L 142.754037 246.231145 
L 142.754037 245.671963 
L 143.084598 245.671963 
L 143.084598 245.112781 
L 145.748263 245.112781 
L 145.748263 244.553598 
L 147.980278 244.553598 
L 147.980278 243.435234 
L 148.151798 243.435234 
L 148.151798 242.316869 
L 148.656323 242.316869 
L 148.656323 241.757687 
L 149.838006 241.757687 
L 149.838006 241.198505 
L 151.995456 241.198505 
L 151.995456 240.639323 
L 153.145352 240.639323 
L 153.145352 240.08014 
L 154.393533 240.08014 
L 154.393533 239.520958 
L 154.971544 239.520958 
L 154.971544 238.961776 
L 157.403538 238.961776 
L 157.403538 238.402594 
L 157.981989 238.402594 
L 157.981989 237.843411 
L 158.612504 237.843411 
L 158.612504 236.725047 
L 161.942756 236.725047 
L 161.942756 236.165865 
L 166.347305 236.165865 
L 166.347305 235.606682 
L 166.781638 235.606682 
L 166.781638 234.488318 
L 167.568877 234.488318 
L 167.568877 233.369954 
L 171.957937 233.369954 
L 171.957937 232.810771 
L 172.272409 232.810771 
L 172.272409 232.251589 
L 172.710234 232.251589 
L 172.710234 231.692407 
L 172.863384 231.692407 
L 172.863384 231.133225 
L 179.025376 231.133225 
L 179.025376 230.574042 
L 179.277052 230.574042 
L 179.277052 230.01486 
L 184.697353 230.01486 
L 184.697353 229.455678 
L 185.822187 229.455678 
L 185.822187 228.896496 
L 189.978003 228.896496 
L 189.978003 228.337313 
L 192.500962 228.337313 
L 192.500962 227.778131 
L 193.041002 227.778131 
L 193.041002 227.218949 
L 196.398448 227.218949 
L 196.398448 226.659767 
L 197.770459 226.659767 
L 197.770459 226.100584 
L 198.13853 226.100584 
L 198.13853 225.541402 
L 201.828673 225.541402 
L 201.859421 224.423038 
L 203.629724 224.423038 
L 203.629724 223.863855 
L 205.350452 223.863855 
L 205.395875 222.186309 
L 207.588177 222.186309 
L 207.588177 221.627126 
L 207.884831 221.627126 
L 207.884831 221.067944 
L 208.068762 221.067944 
L 208.162594 219.94958 
L 212.479649 219.94958 
L 212.479649 219.390397 
L 215.986649 219.390397 
L 215.986649 218.831215 
L 218.918612 218.831215 
L 218.918612 218.272033 
L 223.560487 218.272033 
L 223.560487 217.712851 
L 237.926968 217.712851 
L 237.926968 217.153669 
L 249.655113 217.153669 
L 249.655113 216.594486 
L 333.168 216.594486 
L 333.168 216.594486 
" style="fill:none;stroke:#000080;stroke-linecap:square;stroke-width:1.5;"/>
   </g>
   <g id="line2d_39">
    <defs>
     <path d="M 0 6 
C 1.591219 6 3.117479 5.367802 4.242641 4.242641 
C 5.367802 3.117479 6 1.591219 6 0 
C 6 -1.591219 5.367802 -3.117479 4.242641 -4.242641 
C 3.117479 -5.367802 1.591219 -6 0 -6 
C -1.591219 -6 -3.117479 -5.367802 -4.242641 -4.242641 
C -5.367802 -3.117479 -6 -1.591219 -6 0 
C -6 1.591219 -5.367802 3.117479 -4.242641 4.242641 
C -3.117479 5.367802 -1.591219 6 0 6 
z
" id="m1482f567d5" style="stroke:#000080;stroke-width:1.5;"/>
    </defs>
    <g>
     <use style="fill-opacity:0;stroke:#000080;stroke-width:1.5;" x="109.406343" xlink:href="#m1482f567d5" y="250.145421"/>
     <use style="fill-opacity:0;stroke:#000080;stroke-width:1.5;" x="179.277052" xlink:href="#m1482f567d5" y="230.01486"/>
     <use style="fill-opacity:0;stroke:#000080;stroke-width:1.5;" x="249.655113" xlink:href="#m1482f567d5" y="217.153669"/>
     <use style="fill-opacity:0;stroke:#000080;stroke-width:1.5;" x="249.655113" xlink:href="#m1482f567d5" y="216.594486"/>
     <use style="fill-opacity:0;stroke:#000080;stroke-width:1.5;" x="333.168" xlink:href="#m1482f567d5" y="216.594486"/>
    </g>
   </g>
   <g id="line2d_40">
    <path style="fill:none;stroke:#000080;stroke-linecap:square;stroke-width:1.5;"/>
    <g/>
   </g>
   <g id="line2d_41">
    <path clip-path="url(#p4635a651d5)" d="M 175.027591 231.133225 
" style="fill:none;stroke:#000080;stroke-linecap:square;stroke-width:1.5;"/>
    <defs>
     <path d="M -12 12 
L 12 -12 
M -12 -12 
L 12 12 
" id="mf406846d07" style="stroke:#000080;"/>
    </defs>
    <g clip-path="url(#p4635a651d5)">
     <use style="fill:#000080;stroke:#000080;" x="175.027591" xlink:href="#mf406846d07" y="231.133225"/>
    </g>
   </g>
   <g id="line2d_42">
    <defs>
     <path d="M 0 1.5 
C 0.397805 1.5 0.77937 1.341951 1.06066 1.06066 
C 1.341951 0.77937 1.5 0.397805 1.5 0 
C 1.5 -0.397805 1.341951 -0.77937 1.06066 -1.06066 
C 0.77937 -1.341951 0.397805 -1.5 0 -1.5 
C -0.397805 -1.5 -0.77937 -1.341951 -1.06066 -1.06066 
C -1.341951 -0.77937 -1.5 -0.397805 -1.5 0 
C -1.5 0.397805 -1.341951 0.77937 -1.06066 1.06066 
C -0.77937 1.341951 -0.397805 1.5 0 1.5 
z
" id="m12d8f72ba0" style="stroke:#ff00ff;"/>
    </defs>
    <g>
     <use style="fill:#ff00ff;stroke:#ff00ff;" x="247.846903" xlink:href="#m12d8f72ba0" y="149.492617"/>
     <use style="fill:#ff00ff;stroke:#ff00ff;" x="247.846903" xlink:href="#m12d8f72ba0" y="149.492617"/>
    </g>
   </g>
   <g id="line2d_43">
    <path d="M 16.541714 294.88 
L 16.541714 289.288178 
L 66.223248 289.288178 
L 66.223248 288.728995 
L 80.372935 288.728995 
L 80.372935 288.169813 
L 90.981092 288.169813 
L 90.981092 287.610631 
L 92.287186 287.610631 
L 92.287186 287.051449 
L 99.395756 287.051449 
L 99.395756 286.492266 
L 102.320419 286.492266 
L 102.320419 285.373902 
L 110.457504 285.373902 
L 110.457504 284.81472 
L 112.897778 284.81472 
L 112.897778 283.696355 
L 113.457313 283.696355 
L 113.457313 283.137173 
L 114.809594 283.137173 
L 114.809594 282.018808 
L 116.115688 282.018808 
L 116.115688 280.900444 
L 117.182386 280.900444 
L 117.182386 280.341262 
L 117.329507 280.341262 
L 117.329507 279.782079 
L 117.999901 279.782079 
L 117.999901 279.222897 
L 119.003236 279.222897 
L 119.04748 277.545351 
L 119.782703 277.545351 
L 119.782703 276.986168 
L 120.118102 276.986168 
L 120.118102 276.426986 
L 120.528351 276.426986 
L 120.528351 275.867804 
L 121.436343 275.867804 
L 121.436343 274.190257 
L 121.665528 274.190257 
L 121.70343 273.071893 
L 121.891697 273.071893 
L 121.891697 272.51271 
L 122.114929 272.51271 
L 122.114929 271.953528 
L 122.480659 271.953528 
L 122.480659 270.275981 
L 122.660646 270.275981 
L 122.660646 269.716799 
L 124.003384 269.716799 
L 124.003384 269.157617 
L 124.780403 269.157617 
L 124.780403 268.598435 
L 124.937954 268.598435 
L 125.000572 267.48007 
L 125.674722 267.48007 
L 125.674722 266.920888 
L 125.972626 266.920888 
L 125.972626 266.361706 
L 126.581907 266.361706 
L 126.581907 265.802523 
L 126.948537 265.802523 
L 126.948537 264.124977 
L 127.197852 264.124977 
L 127.197852 263.565795 
L 128.367236 263.565795 
L 128.367236 263.006612 
L 129.413824 263.006612 
L 129.413824 262.44743 
L 129.558267 262.44743 
L 129.558267 261.329066 
L 130.67209 261.329066 
L 130.67209 260.210701 
L 131.289977 260.210701 
L 131.289977 258.533154 
L 131.41954 258.533154 
L 131.41954 257.973972 
L 131.990784 257.973972 
L 131.990784 257.41479 
L 133.955092 257.41479 
L 133.955092 255.737243 
L 134.102952 255.737243 
L 134.102952 255.178061 
L 137.039379 255.178061 
L 137.085856 254.059696 
L 138.09238 254.059696 
L 138.09238 253.500514 
L 139.001743 253.500514 
L 139.001743 252.38215 
L 139.208091 252.38215 
L 139.208091 251.822967 
L 139.825874 251.822967 
L 139.825874 251.263785 
L 140.574447 251.263785 
L 140.574447 250.145421 
L 141.182408 250.145421 
L 141.194594 249.027056 
L 141.460528 249.027056 
L 141.460528 248.467874 
L 141.898705 248.467874 
L 141.898705 247.908692 
L 142.200064 247.908692 
L 142.200064 247.34951 
L 142.776273 247.34951 
L 142.776273 245.671963 
L 143.95698 245.671963 
L 143.95698 245.112781 
L 144.498158 245.112781 
L 144.498158 244.553598 
L 145.032563 244.553598 
L 145.05204 243.435234 
L 145.503514 243.435234 
L 145.503514 242.876052 
L 147.078732 242.876052 
L 147.078732 242.316869 
L 148.281341 242.316869 
L 148.281341 241.198505 
L 151.359993 241.198505 
L 151.359993 240.639323 
L 151.634268 240.639323 
L 151.634268 239.520958 
L 153.601184 239.520958 
L 153.601184 238.961776 
L 154.790233 238.961776 
L 154.790233 238.402594 
L 155.413962 238.402594 
L 155.413962 237.843411 
L 156.336855 237.843411 
L 156.336855 237.284229 
L 157.02944 237.284229 
L 157.02944 236.165865 
L 158.327135 236.165865 
L 158.327135 235.606682 
L 159.65898 235.606682 
L 159.65898 235.0475 
L 176.059533 235.0475 
L 176.129899 233.929136 
L 176.206336 233.929136 
L 176.206336 233.369954 
L 176.507166 233.369954 
L 176.535247 231.692407 
L 176.664141 231.692407 
L 176.664141 230.01486 
L 176.870217 230.01486 
L 176.870217 229.455678 
L 177.273607 229.455678 
L 177.273607 227.778131 
L 177.456301 227.778131 
L 177.476972 226.659767 
L 177.71584 226.659767 
L 177.794247 225.541402 
L 177.865086 225.541402 
L 177.865086 224.98222 
L 178.317857 224.98222 
L 178.427116 223.304673 
L 179.238469 223.304673 
L 179.271735 222.186309 
L 179.643887 222.186309 
L 179.643887 221.067944 
L 181.863164 221.067944 
L 181.863164 220.508762 
L 187.465556 220.508762 
L 187.465556 219.94958 
L 187.779587 219.94958 
L 187.779587 219.390397 
L 188.10151 219.390397 
L 188.102305 218.272033 
L 188.338467 218.272033 
L 188.338467 217.712851 
L 188.571429 217.712851 
L 188.571429 217.153669 
L 188.721677 217.153669 
L 188.721677 216.594486 
L 189.4045 216.594486 
L 189.4045 216.035304 
L 190.697209 216.035304 
L 190.697209 215.476122 
L 194.373489 215.476122 
L 194.474241 214.357757 
L 194.692971 214.357757 
L 194.759509 212.680211 
L 194.883778 212.680211 
L 194.883778 212.121028 
L 195.079381 212.121028 
L 195.079381 211.002664 
L 195.484233 211.002664 
L 195.484233 210.443482 
L 195.741624 210.443482 
L 195.741624 209.884299 
L 196.107901 209.884299 
L 196.107901 209.325117 
L 196.503649 209.325117 
L 196.503649 208.765935 
L 199.280069 208.765935 
L 199.280069 208.206753 
L 199.445705 208.206753 
L 199.496193 205.970024 
L 200.009397 205.970024 
L 200.049132 204.851659 
L 200.131488 204.851659 
L 200.131488 204.292477 
L 200.836133 204.292477 
L 200.836133 203.733295 
L 203.164922 203.733295 
L 203.205598 202.61493 
L 203.362111 202.61493 
L 203.362111 202.055748 
L 204.043008 202.055748 
L 204.043008 201.496566 
L 206.220797 201.496566 
L 206.318634 199.259837 
L 206.386022 199.259837 
L 206.386022 198.700655 
L 206.686174 198.700655 
L 206.686174 198.141472 
L 206.830161 198.141472 
L 206.876912 195.904743 
L 208.778011 195.904743 
L 208.843808 194.786379 
L 209.003906 194.786379 
L 209.003906 194.227197 
L 209.143597 194.227197 
L 209.143597 193.668014 
L 209.634336 193.668014 
L 209.634336 193.108832 
L 210.98364 193.108832 
L 211.035663 191.431285 
L 211.192453 191.431285 
L 211.233913 190.312921 
L 211.419869 190.312921 
L 211.479777 189.194556 
L 211.564884 189.194556 
L 211.564884 188.635374 
L 213.030913 188.635374 
L 213.105351 185.839463 
L 214.903462 185.839463 
L 214.977726 184.161916 
L 215.076524 184.161916 
L 215.076524 183.602734 
L 216.49857 183.602734 
L 216.55214 180.806823 
L 216.825592 180.806823 
L 216.825592 180.247641 
L 216.990798 180.247641 
L 216.990798 179.688458 
L 217.973117 179.688458 
L 217.973117 179.129276 
L 218.425406 179.129276 
L 218.425406 178.570094 
L 219.299142 178.570094 
L 219.402309 176.892547 
L 219.608837 176.892547 
L 219.608837 176.333365 
L 220.559909 176.333365 
L 220.631847 174.655818 
L 220.884296 174.655818 
L 220.884296 174.096636 
L 221.704448 174.096636 
L 221.801681 172.978271 
L 222.003587 172.978271 
L 222.003587 171.859907 
L 222.84687 171.859907 
L 222.84687 171.300725 
L 223.840684 171.300725 
L 223.840684 170.741543 
L 224.135262 170.741543 
L 224.135262 170.18236 
L 224.841909 170.18236 
L 224.89801 168.504814 
L 224.972185 168.504814 
L 224.972185 167.945631 
L 225.09529 167.945631 
L 225.169265 166.827267 
L 225.914948 166.827267 
L 225.940751 165.708902 
L 226.78289 165.708902 
L 226.78289 165.14972 
L 227.472642 165.14972 
L 227.472642 164.590538 
L 227.58449 164.590538 
L 227.690291 163.472173 
L 228.294285 163.472173 
L 228.294285 162.912991 
L 228.474975 162.912991 
L 228.474975 162.353809 
L 229.225395 162.353809 
L 229.225395 161.794627 
L 229.922934 161.794627 
L 229.922934 161.235444 
L 230.491866 161.235444 
L 230.491866 160.676262 
L 231.121847 160.676262 
L 231.121847 160.11708 
L 231.298077 160.11708 
L 231.298077 159.557898 
L 231.817177 159.557898 
L 231.817177 158.998715 
L 233.560671 158.998715 
L 233.647837 157.321169 
L 234.673664 157.321169 
L 234.673664 156.761987 
L 235.78067 156.761987 
L 235.78067 156.202804 
L 236.689897 156.202804 
L 236.689897 155.08444 
L 237.677827 155.08444 
L 237.677827 154.525258 
L 238.553255 154.525258 
L 238.553255 153.966075 
L 238.93187 153.966075 
L 238.93187 153.406893 
L 239.76467 153.406893 
L 239.76467 152.847711 
L 240.157851 152.847711 
L 240.157851 152.288529 
L 241.618152 152.288529 
L 241.646372 151.170164 
L 243.747519 151.170164 
L 243.747519 150.610982 
L 244.965173 150.610982 
L 244.965173 150.0518 
L 247.846903 150.0518 
L 247.846903 149.492617 
L 333.168 149.492617 
L 333.168 149.492617 
" style="fill:none;stroke:#ff00ff;stroke-linecap:square;stroke-width:1.5;"/>
   </g>
   <g id="line2d_44">
    <defs>
     <path d="M -0 8.485281 
L 5.091169 0 
L 0 -8.485281 
L -5.091169 -0 
z
" id="m80b0fd9e11" style="stroke:#ff00ff;stroke-linejoin:miter;stroke-width:1.5;"/>
    </defs>
    <g>
     <use style="fill-opacity:0;stroke:#ff00ff;stroke-linejoin:miter;stroke-width:1.5;" x="117.329507" xlink:href="#m80b0fd9e11" y="279.782079"/>
     <use style="fill-opacity:0;stroke:#ff00ff;stroke-linejoin:miter;stroke-width:1.5;" x="179.643887" xlink:href="#m80b0fd9e11" y="221.067944"/>
     <use style="fill-opacity:0;stroke:#ff00ff;stroke-linejoin:miter;stroke-width:1.5;" x="233.647837" xlink:href="#m80b0fd9e11" y="157.321169"/>
     <use style="fill-opacity:0;stroke:#ff00ff;stroke-linejoin:miter;stroke-width:1.5;" x="247.846903" xlink:href="#m80b0fd9e11" y="149.492617"/>
     <use style="fill-opacity:0;stroke:#ff00ff;stroke-linejoin:miter;stroke-width:1.5;" x="247.846903" xlink:href="#m80b0fd9e11" y="149.492617"/>
     <use style="fill-opacity:0;stroke:#ff00ff;stroke-linejoin:miter;stroke-width:1.5;" x="333.168" xlink:href="#m80b0fd9e11" y="149.492617"/>
    </g>
   </g>
   <g id="line2d_45">
    <path style="fill:none;stroke:#ff00ff;stroke-linecap:square;stroke-width:1.5;"/>
    <g/>
   </g>
   <g id="line2d_46">
    <path clip-path="url(#p4635a651d5)" d="M 175.027591 235.0475 
" style="fill:none;stroke:#ff00ff;stroke-linecap:square;stroke-width:1.5;"/>
    <defs>
     <path d="M -12 12 
L 12 -12 
M -12 -12 
L 12 12 
" id="mc0f718ecb8" style="stroke:#ff00ff;"/>
    </defs>
    <g clip-path="url(#p4635a651d5)">
     <use style="fill:#ff00ff;stroke:#ff00ff;" x="175.027591" xlink:href="#mc0f718ecb8" y="235.0475"/>
    </g>
   </g>
   <g id="line2d_47">
    <defs>
     <path d="M 0 1.5 
C 0.397805 1.5 0.77937 1.341951 1.06066 1.06066 
C 1.341951 0.77937 1.5 0.397805 1.5 0 
C 1.5 -0.397805 1.341951 -0.77937 1.06066 -1.06066 
C 0.77937 -1.341951 0.397805 -1.5 0 -1.5 
C -0.397805 -1.5 -0.77937 -1.341951 -1.06066 -1.06066 
C -1.341951 -0.77937 -1.5 -0.397805 -1.5 0 
C -1.5 0.397805 -1.341951 0.77937 -1.06066 1.06066 
C -0.77937 1.341951 -0.397805 1.5 0 1.5 
z
" id="m24cb5a8743" style="stroke:#ffa500;"/>
    </defs>
    <g>
     <use style="fill:#ffa500;stroke:#ffa500;" x="254.798224" xlink:href="#m24cb5a8743" y="54.431636"/>
     <use style="fill:#ffa500;stroke:#ffa500;" x="254.798224" xlink:href="#m24cb5a8743" y="54.431636"/>
    </g>
   </g>
   <g id="line2d_48">
    <path d="M 16.541714 294.88 
L 16.541714 286.492266 
L 63.08939 286.492266 
L 63.08939 285.373902 
L 71.869783 285.373902 
L 71.869783 284.255537 
L 77.155024 284.255537 
L 77.155024 283.696355 
L 83.08236 283.696355 
L 83.08236 283.137173 
L 84.124415 283.137173 
L 84.124415 282.577991 
L 99.533818 282.577991 
L 99.533818 282.018808 
L 108.369127 282.018808 
L 108.369127 281.459626 
L 108.532829 281.459626 
L 108.532829 280.900444 
L 110.237603 280.900444 
L 110.237603 279.782079 
L 111.030511 279.782079 
L 111.030511 279.222897 
L 111.653105 279.222897 
L 111.653105 278.663715 
L 111.989488 278.663715 
L 111.989488 278.104533 
L 112.514373 278.104533 
L 112.514373 277.545351 
L 115.090002 277.545351 
L 115.090002 276.986168 
L 115.256077 276.986168 
L 115.256077 276.426986 
L 119.655222 276.426986 
L 119.655222 275.308622 
L 120.689748 275.308622 
L 120.689748 274.749439 
L 121.891697 274.749439 
L 121.891697 273.631075 
L 122.944762 273.631075 
L 122.944762 273.071893 
L 124.748719 273.071893 
L 124.748719 272.51271 
L 125.523811 272.51271 
L 125.523811 271.953528 
L 126.002135 271.953528 
L 126.002135 271.394346 
L 126.836558 271.394346 
L 126.92061 269.157617 
L 127.004254 269.157617 
L 127.004254 267.48007 
L 127.551708 267.48007 
L 127.551708 266.920888 
L 128.948245 266.920888 
L 128.948245 265.802523 
L 129.341145 265.802523 
L 129.341145 264.684159 
L 129.582224 264.684159 
L 129.606147 262.44743 
L 130.216736 262.44743 
L 130.216736 261.888248 
L 130.67209 261.888248 
L 130.67209 261.329066 
L 132.503304 261.329066 
L 132.503304 260.769883 
L 132.783777 260.769883 
L 132.783777 259.651519 
L 133.693236 259.651519 
L 133.712073 258.533154 
L 134.139719 258.533154 
L 134.139719 257.973972 
L 134.592793 257.973972 
L 134.592793 257.41479 
L 135.03423 257.41479 
L 135.03423 256.855608 
L 135.684226 256.855608 
L 135.684226 256.296425 
L 136.000233 256.296425 
L 136.000233 255.178061 
L 136.992776 255.178061 
L 136.992776 254.059696 
L 137.573942 254.059696 
L 137.573942 253.500514 
L 138.4819 253.500514 
L 138.581462 251.822967 
L 140.009571 251.822967 
L 140.009571 251.263785 
L 141.267531 251.263785 
L 141.267531 250.704603 
L 141.484501 250.704603 
L 141.484501 250.145421 
L 141.639516 250.145421 
L 141.639516 249.586238 
L 142.280305 249.586238 
L 142.371552 246.790327 
L 142.620012 246.790327 
L 142.620012 245.671963 
L 143.193387 245.671963 
L 143.193387 245.112781 
L 143.419627 245.112781 
L 143.419627 243.994416 
L 143.832047 243.994416 
L 143.832047 243.435234 
L 144.447825 243.435234 
L 144.447825 242.876052 
L 145.022816 242.876052 
L 145.022816 241.757687 
L 145.701465 241.757687 
L 145.701465 241.198505 
L 146.507044 241.198505 
L 146.507044 240.639323 
L 146.667271 240.639323 
L 146.667271 240.08014 
L 147.564873 240.08014 
L 147.564873 239.520958 
L 148.045821 239.520958 
L 148.1274 238.402594 
L 148.273273 238.402594 
L 148.273273 237.284229 
L 148.852497 237.284229 
L 148.891465 235.606682 
L 149.615544 235.606682 
L 149.615544 235.0475 
L 149.793743 235.0475 
L 149.793743 234.488318 
L 151.053835 234.488318 
L 151.053835 233.929136 
L 152.658355 233.929136 
L 152.658355 233.369954 
L 153.350772 233.369954 
L 153.350772 232.810771 
L 153.748524 232.810771 
L 153.748524 231.692407 
L 154.740451 231.692407 
L 154.740451 230.574042 
L 155.307101 230.574042 
L 155.317817 229.455678 
L 156.839293 229.455678 
L 156.839293 228.896496 
L 159.11796 228.896496 
L 159.11796 227.778131 
L 163.294462 227.778131 
L 163.294462 226.100584 
L 167.277537 226.100584 
L 167.277537 225.541402 
L 176.179304 225.541402 
L 176.206336 224.423038 
L 176.472783 224.423038 
L 176.513411 223.304673 
L 176.62852 223.304673 
L 176.687333 222.186309 
L 176.812028 222.186309 
L 176.870217 221.067944 
L 176.964735 221.067944 
L 176.964735 220.508762 
L 177.132667 220.508762 
L 177.132667 219.94958 
L 177.249699 219.94958 
L 177.300464 217.712851 
L 177.41192 217.712851 
L 177.434125 214.357757 
L 177.532957 214.357757 
L 177.620983 212.121028 
L 177.708562 212.121028 
L 177.708562 210.443482 
L 177.837653 210.443482 
L 177.895357 208.765935 
L 178.021628 208.765935 
L 178.021628 208.206753 
L 178.195166 208.206753 
L 178.291137 206.529206 
L 178.418736 206.529206 
L 178.418736 205.970024 
L 178.557871 205.970024 
L 178.591097 204.292477 
L 178.697263 204.292477 
L 178.697263 203.174112 
L 179.376435 203.174112 
L 179.400202 202.055748 
L 180.148943 202.055748 
L 180.148943 201.496566 
L 180.410949 201.496566 
L 180.410949 200.937384 
L 187.760939 200.937384 
L 187.760939 200.378201 
L 187.876557 200.378201 
L 187.876557 199.819019 
L 188.08878 199.819019 
L 188.131706 197.58229 
L 188.287403 197.58229 
L 188.390163 195.345561 
L 188.404234 195.345561 
L 188.503969 194.227197 
L 188.572203 194.227197 
L 188.664814 193.108832 
L 188.724745 193.108832 
L 188.811962 190.312921 
L 188.938934 190.312921 
L 188.938934 189.753739 
L 189.058958 189.753739 
L 189.058958 189.194556 
L 189.248972 189.194556 
L 189.269048 187.51701 
L 189.397863 187.51701 
L 189.397863 186.398645 
L 189.735278 186.398645 
L 189.843419 184.161916 
L 189.907979 184.161916 
L 189.907979 183.602734 
L 190.049872 183.602734 
L 190.049872 183.043552 
L 190.319711 183.043552 
L 190.319711 182.48437 
L 194.189183 182.48437 
L 194.189183 181.925187 
L 194.526859 181.925187 
L 194.635966 179.688458 
L 194.684297 179.688458 
L 194.713555 177.451729 
L 194.799416 177.451729 
L 194.819873 175.774183 
L 194.968262 175.774183 
L 195.078851 174.655818 
L 195.117496 174.655818 
L 195.170293 173.537454 
L 195.403814 173.537454 
L 195.483198 171.300725 
L 195.640361 171.300725 
L 195.641387 170.18236 
L 195.823019 170.18236 
L 195.823019 169.623178 
L 196.044388 169.623178 
L 196.044388 169.063996 
L 196.235217 169.063996 
L 196.235217 168.504814 
L 199.220198 168.504814 
L 199.269275 166.268085 
L 199.335597 166.268085 
L 199.402488 164.031356 
L 199.488404 164.031356 
L 199.574708 161.794627 
L 199.602837 161.794627 
L 199.690597 160.11708 
L 199.739159 160.11708 
L 199.816575 158.439533 
L 199.889638 158.439533 
L 199.947226 156.761987 
L 200.032455 156.761987 
L 200.127933 154.525258 
L 200.168972 154.525258 
L 200.168972 153.966075 
L 200.403064 153.966075 
L 200.403064 153.406893 
L 203.042313 153.406893 
L 203.15333 151.729346 
L 203.222766 151.729346 
L 203.291594 149.492617 
L 203.395791 149.492617 
L 203.490917 147.255888 
L 203.518508 147.255888 
L 203.602633 145.578342 
L 203.639067 145.578342 
L 203.749829 142.78243 
L 204.346422 142.78243 
L 204.346422 142.223248 
L 204.752985 142.223248 
L 204.752985 141.664066 
L 206.142737 141.664066 
L 206.216362 139.986519 
L 206.321941 139.986519 
L 206.386296 138.868155 
L 206.517286 138.868155 
L 206.58797 137.190608 
L 206.635925 137.190608 
L 206.712321 134.394697 
L 206.807943 134.394697 
L 206.807943 133.835515 
L 208.765586 133.835515 
L 208.856176 131.039603 
L 208.905798 131.039603 
L 208.905798 129.921239 
L 209.02605 129.921239 
L 209.069784 128.802874 
L 209.157154 128.802874 
L 209.238036 126.006963 
L 209.320623 126.006963 
L 209.42192 123.770234 
L 209.509811 123.770234 
L 209.509811 123.211052 
L 211.024768 123.211052 
L 211.104226 121.533505 
L 211.345357 121.533505 
L 211.38173 119.855959 
L 211.512404 119.855959 
L 211.512404 119.296776 
L 211.679053 119.296776 
L 211.679053 118.737594 
L 212.980298 118.737594 
L 213.066497 116.500865 
L 213.130771 116.500865 
L 213.192959 115.382501 
L 213.243505 115.382501 
L 213.339391 112.586589 
L 213.371784 112.586589 
L 213.390788 110.909043 
L 213.483316 110.909043 
L 213.535733 109.790678 
L 214.893592 109.790678 
L 214.908479 106.994767 
L 215.010168 106.994767 
L 215.096712 104.198856 
L 215.127775 104.198856 
L 215.14345 102.521309 
L 215.274071 102.521309 
L 215.336646 101.402945 
L 215.66744 101.402945 
L 215.66744 100.843762 
L 216.46363 100.843762 
L 216.567784 98.607033 
L 216.690917 98.607033 
L 216.690917 98.047851 
L 217.9531 98.047851 
L 218.036651 96.929487 
L 218.077301 96.929487 
L 218.111196 94.692758 
L 218.237983 94.692758 
L 218.237983 94.133576 
L 218.628861 94.133576 
L 218.628861 93.574393 
L 219.300049 93.574393 
L 219.311182 92.456029 
L 219.458729 92.456029 
L 219.517012 90.778482 
L 219.57599 90.778482 
L 219.680426 89.660118 
L 220.6039 89.660118 
L 220.708258 88.541753 
L 220.76246 88.541753 
L 220.869291 86.305024 
L 221.767835 86.305024 
L 221.767835 85.18666 
L 222.065882 85.18666 
L 222.065882 84.627477 
L 222.874345 84.627477 
L 222.874345 84.068295 
L 224.0153 84.068295 
L 224.079848 82.949931 
L 224.230108 82.949931 
L 224.230108 82.390748 
L 225.746052 82.390748 
L 225.790496 81.272384 
L 225.874006 81.272384 
L 225.892901 80.15402 
L 225.993383 80.15402 
L 226.026952 79.035655 
L 226.706974 79.035655 
L 226.782136 77.358108 
L 227.059103 77.358108 
L 227.059103 76.798926 
L 227.486723 76.798926 
L 227.592806 75.680562 
L 227.710627 75.680562 
L 227.710627 75.121379 
L 228.306405 75.121379 
L 228.397572 72.325468 
L 229.105616 72.325468 
L 229.105616 71.766286 
L 229.780718 71.766286 
L 229.880022 70.647921 
L 230.552468 70.647921 
L 230.552468 70.088739 
L 231.128616 70.088739 
L 231.128616 69.529557 
L 231.929033 69.529557 
L 231.952806 68.411192 
L 232.079371 68.411192 
L 232.079371 67.85201 
L 232.491181 67.85201 
L 232.491181 66.733646 
L 234.247718 66.733646 
L 234.271528 65.615281 
L 234.674035 65.615281 
L 234.674035 65.056099 
L 236.924891 65.056099 
L 236.924891 64.496917 
L 237.236449 64.496917 
L 237.236449 63.937735 
L 238.539942 63.937735 
L 238.539942 63.378552 
L 238.70598 63.378552 
L 238.70598 62.81937 
L 239.772346 62.81937 
L 239.772346 62.260188 
L 240.162199 62.260188 
L 240.196292 61.141823 
L 240.549576 61.141823 
L 240.593193 58.905094 
L 241.671023 58.905094 
L 241.671023 58.345912 
L 242.354413 58.345912 
L 242.354413 57.78673 
L 243.370815 57.78673 
L 243.370815 57.227548 
L 244.106115 57.227548 
L 244.106115 56.668365 
L 246.047011 56.668365 
L 246.047011 56.109183 
L 247.63527 56.109183 
L 247.63527 55.550001 
L 252.8102 55.550001 
L 252.8102 54.990819 
L 254.798224 54.990819 
L 254.798224 54.431636 
L 333.168 54.431636 
L 333.168 54.431636 
" style="fill:none;stroke:#ffa500;stroke-linecap:square;stroke-width:1.5;"/>
   </g>
   <g id="line2d_49">
    <defs>
     <path d="M 0 -6 
L -1.347084 -1.854102 
L -5.706339 -1.854102 
L -2.179628 0.708204 
L -3.526712 4.854102 
L -0 2.291796 
L 3.526712 4.854102 
L 2.179628 0.708204 
L 5.706339 -1.854102 
L 1.347084 -1.854102 
z
" id="m3d3f18ba28" style="stroke:#ffa500;stroke-linejoin:bevel;stroke-width:1.5;"/>
    </defs>
    <g>
     <use style="fill-opacity:0;stroke:#ffa500;stroke-linejoin:bevel;stroke-width:1.5;" x="77.155024" xlink:href="#m3d3f18ba28" y="283.696355"/>
     <use style="fill-opacity:0;stroke:#ffa500;stroke-linejoin:bevel;stroke-width:1.5;" x="151.053835" xlink:href="#m3d3f18ba28" y="233.929136"/>
     <use style="fill-opacity:0;stroke:#ffa500;stroke-linejoin:bevel;stroke-width:1.5;" x="212.980298" xlink:href="#m3d3f18ba28" y="118.737594"/>
     <use style="fill-opacity:0;stroke:#ffa500;stroke-linejoin:bevel;stroke-width:1.5;" x="254.798224" xlink:href="#m3d3f18ba28" y="54.990819"/>
     <use style="fill-opacity:0;stroke:#ffa500;stroke-linejoin:bevel;stroke-width:1.5;" x="254.798224" xlink:href="#m3d3f18ba28" y="54.431636"/>
     <use style="fill-opacity:0;stroke:#ffa500;stroke-linejoin:bevel;stroke-width:1.5;" x="333.168" xlink:href="#m3d3f18ba28" y="54.431636"/>
    </g>
   </g>
   <g id="line2d_50">
    <path style="fill:none;stroke:#ffa500;stroke-linecap:square;stroke-width:1.5;"/>
    <g/>
   </g>
   <g id="line2d_51">
    <path clip-path="url(#p4635a651d5)" d="M 175.027591 225.541402 
" style="fill:none;stroke:#ffa500;stroke-linecap:square;stroke-width:1.5;"/>
    <defs>
     <path d="M -12 12 
L 12 -12 
M -12 -12 
L 12 12 
" id="mf5799d666f" style="stroke:#ffa500;"/>
    </defs>
    <g clip-path="url(#p4635a651d5)">
     <use style="fill:#ffa500;stroke:#ffa500;" x="175.027591" xlink:href="#mf5799d666f" y="225.541402"/>
    </g>
   </g>
   <g id="line2d_52">
    <defs>
     <path d="M 0 1.5 
C 0.397805 1.5 0.77937 1.341951 1.06066 1.06066 
C 1.341951 0.77937 1.5 0.397805 1.5 0 
C 1.5 -0.397805 1.341951 -0.77937 1.06066 -1.06066 
C 0.77937 -1.341951 0.397805 -1.5 0 -1.5 
C -0.397805 -1.5 -0.77937 -1.341951 -1.06066 -1.06066 
C -1.341951 -0.77937 -1.5 -0.397805 -1.5 0 
C -1.5 0.397805 -1.341951 0.77937 -1.06066 1.06066 
C -0.77937 1.341951 -0.397805 1.5 0 1.5 
z
" id="m37fcca260d" style="stroke:#6495ed;"/>
    </defs>
    <g>
     <use style="fill:#6495ed;stroke:#6495ed;" x="214.856737" xlink:href="#m37fcca260d" y="238.961776"/>
     <use style="fill:#6495ed;stroke:#6495ed;" x="214.856737" xlink:href="#m37fcca260d" y="238.961776"/>
    </g>
   </g>
   <g id="line2d_53">
    <path d="M 114.866043 294.88 
L 114.866043 294.320818 
L 117.715785 294.320818 
L 117.715785 293.202453 
L 118.046801 293.202453 
L 118.046801 292.084089 
L 120.076533 292.084089 
L 120.076533 286.492266 
L 120.609239 286.492266 
L 120.609239 284.81472 
L 120.849643 284.81472 
L 120.849643 284.255537 
L 120.968596 284.255537 
L 120.968596 283.696355 
L 121.008065 283.696355 
L 121.008065 278.104533 
L 121.281837 278.104533 
L 121.281837 276.986168 
L 121.778985 276.986168 
L 121.778985 272.51271 
L 122.55288 272.51271 
L 122.55288 270.275981 
L 123.293428 270.275981 
L 123.293428 269.716799 
L 123.430938 269.716799 
L 123.430938 269.157617 
L 123.533353 269.157617 
L 123.533353 268.598435 
L 123.836987 268.598435 
L 123.836987 267.48007 
L 123.937018 267.48007 
L 123.937018 266.920888 
L 124.102454 266.920888 
L 124.102454 265.802523 
L 124.460903 265.802523 
L 124.460903 263.565795 
L 124.621395 263.565795 
L 124.621395 261.329066 
L 125.248787 261.329066 
L 125.248787 260.769883 
L 125.764637 260.769883 
L 125.764637 260.210701 
L 126.178129 260.210701 
L 126.178129 259.651519 
L 126.723846 259.651519 
L 126.723846 257.973972 
L 127.7659 257.973972 
L 127.7659 255.737243 
L 127.845538 255.737243 
L 127.845538 254.059696 
L 128.315773 254.059696 
L 128.315773 252.941332 
L 129.31685 252.941332 
L 129.31685 252.38215 
L 130.239792 252.38215 
L 130.239792 251.263785 
L 131.505376 251.263785 
L 131.505376 250.704603 
L 134.231294 250.704603 
L 134.231294 249.586238 
L 136.583504 249.586238 
L 136.583504 249.027056 
L 137.422898 249.027056 
L 137.422898 247.34951 
L 139.001743 247.34951 
L 139.001743 246.790327 
L 139.653523 246.790327 
L 139.653523 246.231145 
L 140.434959 246.231145 
L 140.434959 245.671963 
L 140.936852 245.671963 
L 140.936852 245.112781 
L 142.07321 245.112781 
L 142.07321 243.994416 
L 142.942135 243.994416 
L 142.942135 243.435234 
L 178.04306 243.435234 
L 178.04306 242.876052 
L 178.414545 242.876052 
L 178.414545 241.757687 
L 188.515619 241.757687 
L 188.515619 241.198505 
L 188.718608 241.198505 
L 188.718608 240.639323 
L 194.733574 240.639323 
L 194.733574 240.08014 
L 206.216639 240.08014 
L 206.216639 239.520958 
L 214.856737 239.520958 
L 214.856737 238.961776 
L 333.168 238.961776 
" style="fill:none;stroke:#6495ed;stroke-linecap:square;stroke-width:1.5;"/>
   </g>
   <g id="line2d_54">
    <defs>
     <path d="M -0 6 
L 6 -6 
L -6 -6 
z
" id="m948ea0ce2a" style="stroke:#6495ed;stroke-linejoin:miter;stroke-width:1.5;"/>
    </defs>
    <g>
     <use style="fill-opacity:0;stroke:#6495ed;stroke-linejoin:miter;stroke-width:1.5;" x="131.505376" xlink:href="#m948ea0ce2a" y="250.704603"/>
     <use style="fill-opacity:0;stroke:#6495ed;stroke-linejoin:miter;stroke-width:1.5;" x="214.856737" xlink:href="#m948ea0ce2a" y="239.520958"/>
     <use style="fill-opacity:0;stroke:#6495ed;stroke-linejoin:miter;stroke-width:1.5;" x="214.856737" xlink:href="#m948ea0ce2a" y="239.520958"/>
     <use style="fill-opacity:0;stroke:#6495ed;stroke-linejoin:miter;stroke-width:1.5;" x="214.856737" xlink:href="#m948ea0ce2a" y="238.961776"/>
     <use style="fill-opacity:0;stroke:#6495ed;stroke-linejoin:miter;stroke-width:1.5;" x="333.168" xlink:href="#m948ea0ce2a" y="238.961776"/>
    </g>
   </g>
   <g id="line2d_55">
    <path style="fill:none;stroke:#6495ed;stroke-linecap:square;stroke-width:1.5;"/>
    <g/>
   </g>
   <g id="line2d_56">
    <path clip-path="url(#p4635a651d5)" d="M 175.027591 243.435234 
" style="fill:none;stroke:#6495ed;stroke-linecap:square;stroke-width:1.5;"/>
    <defs>
     <path d="M -12 12 
L 12 -12 
M -12 -12 
L 12 12 
" id="mcf61cc9209" style="stroke:#6495ed;"/>
    </defs>
    <g clip-path="url(#p4635a651d5)">
     <use style="fill:#6495ed;stroke:#6495ed;" x="175.027591" xlink:href="#mcf61cc9209" y="243.435234"/>
    </g>
   </g>
   <g id="line2d_57">
    <defs>
     <path d="M 0 1.5 
C 0.397805 1.5 0.77937 1.341951 1.06066 1.06066 
C 1.341951 0.77937 1.5 0.397805 1.5 0 
C 1.5 -0.397805 1.341951 -0.77937 1.06066 -1.06066 
C 0.77937 -1.341951 0.397805 -1.5 0 -1.5 
C -0.397805 -1.5 -0.77937 -1.341951 -1.06066 -1.06066 
C -1.341951 -0.77937 -1.5 -0.397805 -1.5 0 
C -1.5 0.397805 -1.341951 0.77937 -1.06066 1.06066 
C -0.77937 1.341951 -0.397805 1.5 0 1.5 
z
" id="m871bbdb228" style="stroke:#ff0000;"/>
    </defs>
    <g>
     <use style="fill:#ff0000;stroke:#ff0000;" x="226.250089" xlink:href="#m871bbdb228" y="266.920888"/>
     <use style="fill:#ff0000;stroke:#ff0000;" x="226.250089" xlink:href="#m871bbdb228" y="266.920888"/>
    </g>
   </g>
   <g id="line2d_58">
    <path d="M 116.631902 294.88 
L 116.631902 294.320818 
L 120.076533 294.320818 
L 120.076533 293.761636 
L 121.242993 293.761636 
L 121.242993 293.202453 
L 123.567356 293.202453 
L 123.567356 292.084089 
L 123.7027 292.084089 
L 123.7027 291.524907 
L 124.036471 291.524907 
L 124.036471 290.965724 
L 124.298898 290.965724 
L 124.298898 290.406542 
L 126.381204 290.406542 
L 126.381204 289.84736 
L 127.443604 289.84736 
L 127.443604 289.288178 
L 138.820881 289.288178 
L 138.820881 288.169813 
L 139.573389 288.169813 
L 139.573389 287.610631 
L 141.424506 287.610631 
L 141.424506 287.051449 
L 142.43967 287.051449 
L 142.43967 286.492266 
L 146.453301 286.492266 
L 146.453301 285.373902 
L 147.757207 285.373902 
L 147.757207 284.255537 
L 150.566477 284.255537 
L 150.566477 283.696355 
L 151.95642 283.696355 
L 151.95642 283.137173 
L 152.90666 283.137173 
L 152.90666 282.577991 
L 155.307101 282.577991 
L 155.307101 282.018808 
L 155.419288 282.018808 
L 155.419288 281.459626 
L 157.346511 281.459626 
L 157.346511 280.900444 
L 159.675615 280.900444 
L 159.675615 280.341262 
L 160.840712 280.341262 
L 160.840712 279.782079 
L 161.202024 279.782079 
L 161.202024 279.222897 
L 162.055325 279.222897 
L 162.055325 278.663715 
L 164.946791 278.663715 
L 164.946791 278.104533 
L 168.605832 278.104533 
L 168.605832 276.986168 
L 171.666597 276.986168 
L 171.666597 276.426986 
L 177.791349 276.426986 
L 177.791349 275.867804 
L 178.86006 275.867804 
L 178.86006 275.308622 
L 179.017283 275.308622 
L 179.017283 274.749439 
L 180.000507 274.749439 
L 180.000507 273.631075 
L 181.272319 273.631075 
L 181.272319 273.071893 
L 182.630112 273.071893 
L 182.630112 272.51271 
L 184.029135 272.51271 
L 184.029135 271.953528 
L 198.07543 271.953528 
L 198.07543 271.394346 
L 200.642447 271.394346 
L 200.642447 270.835164 
L 200.766231 270.835164 
L 200.766231 270.275981 
L 204.236341 270.275981 
L 204.236341 269.716799 
L 208.03338 269.716799 
L 208.03338 269.157617 
L 210.087122 269.157617 
L 210.087122 268.598435 
L 212.452282 268.598435 
L 212.452282 268.039252 
L 217.483433 268.039252 
L 217.483433 267.48007 
L 226.250089 267.48007 
L 226.250089 266.920888 
L 333.168 266.920888 
" style="fill:none;stroke:#ff0000;stroke-linecap:square;stroke-width:1.5;"/>
   </g>
   <g id="line2d_59">
    <defs>
     <path d="M 0 -6 
L -5.196152 -3 
L -5.196152 3 
L -0 6 
L 5.196152 3 
L 5.196152 -3 
z
" id="m7a45de4cf9" style="stroke:#ff0000;stroke-linejoin:miter;stroke-width:1.5;"/>
    </defs>
    <g>
     <use style="fill-opacity:0;stroke:#ff0000;stroke-linejoin:miter;stroke-width:1.5;" x="157.346511" xlink:href="#m7a45de4cf9" y="280.900444"/>
     <use style="fill-opacity:0;stroke:#ff0000;stroke-linejoin:miter;stroke-width:1.5;" x="226.250089" xlink:href="#m7a45de4cf9" y="267.48007"/>
     <use style="fill-opacity:0;stroke:#ff0000;stroke-linejoin:miter;stroke-width:1.5;" x="226.250089" xlink:href="#m7a45de4cf9" y="266.920888"/>
     <use style="fill-opacity:0;stroke:#ff0000;stroke-linejoin:miter;stroke-width:1.5;" x="226.250089" xlink:href="#m7a45de4cf9" y="266.920888"/>
     <use style="fill-opacity:0;stroke:#ff0000;stroke-linejoin:miter;stroke-width:1.5;" x="333.168" xlink:href="#m7a45de4cf9" y="266.920888"/>
    </g>
   </g>
   <g id="line2d_60">
    <path style="fill:none;stroke:#ff0000;stroke-linecap:square;stroke-width:1.5;"/>
    <g/>
   </g>
   <g id="line2d_61">
    <path clip-path="url(#p4635a651d5)" d="M 175.027591 276.426986 
" style="fill:none;stroke:#ff0000;stroke-linecap:square;stroke-width:1.5;"/>
    <defs>
     <path d="M -12 12 
L 12 -12 
M -12 -12 
L 12 12 
" id="mcd5fa16bf4" style="stroke:#ff0000;"/>
    </defs>
    <g clip-path="url(#p4635a651d5)">
     <use style="fill:#ff0000;stroke:#ff0000;" x="175.027591" xlink:href="#mcd5fa16bf4" y="276.426986"/>
    </g>
   </g>
   <g id="line2d_62">
    <path d="M 333.168 266.920888 
L 363.64328 289.176341 
" style="fill:none;stroke:#ff0000;stroke-linecap:square;stroke-width:1.5;"/>
    <g>
     <use style="fill-opacity:0;stroke:#ff0000;stroke-linejoin:miter;stroke-width:1.5;" x="333.168" xlink:href="#m7a45de4cf9" y="266.920888"/>
     <use style="fill-opacity:0;stroke:#ff0000;stroke-linejoin:miter;stroke-width:1.5;" x="363.64328" xlink:href="#m7a45de4cf9" y="289.176341"/>
    </g>
   </g>
   <g id="line2d_63">
    <path d="M 333.168 238.961776 
L 363.64328 220.732435 
" style="fill:none;stroke:#6495ed;stroke-linecap:square;stroke-width:1.5;"/>
    <g>
     <use style="fill-opacity:0;stroke:#6495ed;stroke-linejoin:miter;stroke-width:1.5;" x="333.168" xlink:href="#m948ea0ce2a" y="238.961776"/>
     <use style="fill-opacity:0;stroke:#6495ed;stroke-linejoin:miter;stroke-width:1.5;" x="363.64328" xlink:href="#m948ea0ce2a" y="220.732435"/>
    </g>
   </g>
   <g id="line2d_64">
    <path d="M 333.168 216.594486 
L 363.64328 152.288529 
" style="fill:none;stroke:#000080;stroke-linecap:square;stroke-width:1.5;"/>
    <g>
     <use style="fill-opacity:0;stroke:#000080;stroke-width:1.5;" x="333.168" xlink:href="#m1482f567d5" y="216.594486"/>
     <use style="fill-opacity:0;stroke:#000080;stroke-width:1.5;" x="363.64328" xlink:href="#m1482f567d5" y="152.288529"/>
    </g>
   </g>
   <g id="line2d_65">
    <path d="M 333.168 149.492617 
L 363.64328 83.844622 
" style="fill:none;stroke:#ff00ff;stroke-linecap:square;stroke-width:1.5;"/>
    <g>
     <use style="fill-opacity:0;stroke:#ff00ff;stroke-linejoin:miter;stroke-width:1.5;" x="333.168" xlink:href="#m80b0fd9e11" y="149.492617"/>
     <use style="fill-opacity:0;stroke:#ff00ff;stroke-linejoin:miter;stroke-width:1.5;" x="363.64328" xlink:href="#m80b0fd9e11" y="83.844622"/>
    </g>
   </g>
   <g id="line2d_66">
    <path d="M 333.168 54.431636 
L 363.64328 15.400716 
" style="fill:none;stroke:#ffa500;stroke-linecap:square;stroke-width:1.5;"/>
    <g>
     <use style="fill-opacity:0;stroke:#ffa500;stroke-linejoin:bevel;stroke-width:1.5;" x="333.168" xlink:href="#m3d3f18ba28" y="54.431636"/>
     <use style="fill-opacity:0;stroke:#ffa500;stroke-linejoin:bevel;stroke-width:1.5;" x="363.64328" xlink:href="#m3d3f18ba28" y="15.400716"/>
    </g>
   </g>
   <g id="line2d_67">
    <path d="M 333.168 294.88 
L 333.168 9.697057 
" style="fill:none;stroke:#000000;stroke-linecap:square;stroke-width:1.5;"/>
   </g>
   <g id="patch_3">
    <path d="M 56.12 294.88 
L 56.12 6.845228 
" style="fill:none;stroke:#000000;stroke-linecap:square;stroke-linejoin:miter;stroke-width:0.8;"/>
   </g>
   <g id="patch_4">
    <path d="M 333.168 294.88 
L 333.168 6.845228 
" style="fill:none;stroke:#000000;stroke-linecap:square;stroke-linejoin:miter;stroke-width:0.8;"/>
   </g>
   <g id="patch_5">
    <path d="M 56.12 294.88 
L 333.168 294.88 
" style="fill:none;stroke:#000000;stroke-linecap:square;stroke-linejoin:miter;stroke-width:0.8;"/>
   </g>
   <g id="patch_6">
    <path d="M 56.12 6.845228 
L 333.168 6.845228 
" style="fill:none;stroke:#000000;stroke-linecap:square;stroke-linejoin:miter;stroke-width:0.8;"/>
   </g>
   <g id="text_13">
    <!-- f24 -->
    <g transform="translate(369.18424 293.867279)scale(0.17 -0.17)">
     <use xlink:href="#DejaVuSans-66"/>
     <use x="35.205078" xlink:href="#DejaVuSans-32"/>
     <use x="98.828125" xlink:href="#DejaVuSans-34"/>
    </g>
   </g>
   <g id="text_14">
    <!-- f20 -->
    <g transform="translate(369.18424 225.423372)scale(0.17 -0.17)">
     <use xlink:href="#DejaVuSans-66"/>
     <use x="35.205078" xlink:href="#DejaVuSans-32"/>
     <use x="98.828125" xlink:href="#DejaVuSans-30"/>
    </g>
   </g>
   <g id="text_15">
    <!-- f23 -->
    <defs>
     <path d="M 40.578125 39.3125 
Q 47.65625 37.796875 51.625 33 
Q 55.609375 28.21875 55.609375 21.1875 
Q 55.609375 10.40625 48.1875 4.484375 
Q 40.765625 -1.421875 27.09375 -1.421875 
Q 22.515625 -1.421875 17.65625 -0.515625 
Q 12.796875 0.390625 7.625 2.203125 
L 7.625 11.71875 
Q 11.71875 9.328125 16.59375 8.109375 
Q 21.484375 6.890625 26.8125 6.890625 
Q 36.078125 6.890625 40.9375 10.546875 
Q 45.796875 14.203125 45.796875 21.1875 
Q 45.796875 27.640625 41.28125 31.265625 
Q 36.765625 34.90625 28.71875 34.90625 
L 20.21875 34.90625 
L 20.21875 43.015625 
L 29.109375 43.015625 
Q 36.375 43.015625 40.234375 45.921875 
Q 44.09375 48.828125 44.09375 54.296875 
Q 44.09375 59.90625 40.109375 62.90625 
Q 36.140625 65.921875 28.71875 65.921875 
Q 24.65625 65.921875 20.015625 65.03125 
Q 15.375 64.15625 9.8125 62.3125 
L 9.8125 71.09375 
Q 15.4375 72.65625 20.34375 73.4375 
Q 25.25 74.21875 29.59375 74.21875 
Q 40.828125 74.21875 47.359375 69.109375 
Q 53.90625 64.015625 53.90625 55.328125 
Q 53.90625 49.265625 50.4375 45.09375 
Q 46.96875 40.921875 40.578125 39.3125 
z
" id="DejaVuSans-33"/>
    </defs>
    <g transform="translate(369.18424 156.979466)scale(0.17 -0.17)">
     <use xlink:href="#DejaVuSans-66"/>
     <use x="35.205078" xlink:href="#DejaVuSans-32"/>
     <use x="98.828125" xlink:href="#DejaVuSans-33"/>
    </g>
   </g>
   <g id="text_16">
    <!-- f22 -->
    <g transform="translate(369.18424 88.53556)scale(0.17 -0.17)">
     <use xlink:href="#DejaVuSans-66"/>
     <use x="35.205078" xlink:href="#DejaVuSans-32"/>
     <use x="98.828125" xlink:href="#DejaVuSans-32"/>
    </g>
   </g>
   <g id="text_17">
    <!-- f21 -->
    <g transform="translate(369.18424 20.091654)scale(0.17 -0.17)">
     <use xlink:href="#DejaVuSans-66"/>
     <use x="35.205078" xlink:href="#DejaVuSans-32"/>
     <use x="98.828125" xlink:href="#DejaVuSans-31"/>
    </g>
   </g>
   <g id="text_18">
    <!-- bbob -->
    <defs>
     <path d="M 48.6875 27.296875 
Q 48.6875 37.203125 44.609375 42.84375 
Q 40.53125 48.484375 33.40625 48.484375 
Q 26.265625 48.484375 22.1875 42.84375 
Q 18.109375 37.203125 18.109375 27.296875 
Q 18.109375 17.390625 22.1875 11.75 
Q 26.265625 6.109375 33.40625 6.109375 
Q 40.53125 6.109375 44.609375 11.75 
Q 48.6875 17.390625 48.6875 27.296875 
z
M 18.109375 46.390625 
Q 20.953125 51.265625 25.265625 53.625 
Q 29.59375 56 35.59375 56 
Q 45.5625 56 51.78125 48.09375 
Q 58.015625 40.1875 58.015625 27.296875 
Q 58.015625 14.40625 51.78125 6.484375 
Q 45.5625 -1.421875 35.59375 -1.421875 
Q 29.59375 -1.421875 25.265625 0.953125 
Q 20.953125 3.328125 18.109375 8.203125 
L 18.109375 0 
L 9.078125 0 
L 9.078125 75.984375 
L 18.109375 75.984375 
z
" id="DejaVuSans-62"/>
    </defs>
    <g transform="translate(58.89048 17.475982)scale(0.102 -0.102)">
     <use xlink:href="#DejaVuSans-62"/>
     <use x="63.476562" xlink:href="#DejaVuSans-62"/>
     <use x="126.953125" xlink:href="#DejaVuSans-6f"/>
     <use x="188.134766" xlink:href="#DejaVuSans-62"/>
    </g>
    <!-- Weak structure functions, 10-D -->
    <defs>
     <path d="M 3.328125 72.90625 
L 13.28125 72.90625 
L 28.609375 11.28125 
L 43.890625 72.90625 
L 54.984375 72.90625 
L 70.3125 11.28125 
L 85.59375 72.90625 
L 95.609375 72.90625 
L 77.296875 0 
L 64.890625 0 
L 49.515625 63.28125 
L 33.984375 0 
L 21.578125 0 
z
" id="DejaVuSans-57"/>
     <path d="M 9.078125 75.984375 
L 18.109375 75.984375 
L 18.109375 31.109375 
L 44.921875 54.6875 
L 56.390625 54.6875 
L 27.390625 29.109375 
L 57.625 0 
L 45.90625 0 
L 18.109375 26.703125 
L 18.109375 0 
L 9.078125 0 
z
" id="DejaVuSans-6b"/>
     <path d="M 19.671875 64.796875 
L 19.671875 8.109375 
L 31.59375 8.109375 
Q 46.6875 8.109375 53.6875 14.9375 
Q 60.6875 21.78125 60.6875 36.53125 
Q 60.6875 51.171875 53.6875 57.984375 
Q 46.6875 64.796875 31.59375 64.796875 
z
M 9.8125 72.90625 
L 30.078125 72.90625 
Q 51.265625 72.90625 61.171875 64.09375 
Q 71.09375 55.28125 71.09375 36.53125 
Q 71.09375 17.671875 61.125 8.828125 
Q 51.171875 0 30.078125 0 
L 9.8125 0 
z
" id="DejaVuSans-44"/>
    </defs>
    <g transform="translate(58.89048 28.89775)scale(0.102 -0.102)">
     <use xlink:href="#DejaVuSans-57"/>
     <use x="98.798828" xlink:href="#DejaVuSans-65"/>
     <use x="160.322266" xlink:href="#DejaVuSans-61"/>
     <use x="221.601562" xlink:href="#DejaVuSans-6b"/>
     <use x="279.511719" xlink:href="#DejaVuSans-20"/>
     <use x="311.298828" xlink:href="#DejaVuSans-73"/>
     <use x="363.398438" xlink:href="#DejaVuSans-74"/>
     <use x="402.607422" xlink:href="#DejaVuSans-72"/>
     <use x="443.720703" xlink:href="#DejaVuSans-75"/>
     <use x="507.099609" xlink:href="#DejaVuSans-63"/>
     <use x="562.080078" xlink:href="#DejaVuSans-74"/>
     <use x="601.289062" xlink:href="#DejaVuSans-75"/>
     <use x="664.667969" xlink:href="#DejaVuSans-72"/>
     <use x="705.75" xlink:href="#DejaVuSans-65"/>
     <use x="767.273438" xlink:href="#DejaVuSans-20"/>
     <use x="799.060547" xlink:href="#DejaVuSans-66"/>
     <use x="834.265625" xlink:href="#DejaVuSans-75"/>
     <use x="897.644531" xlink:href="#DejaVuSans-6e"/>
     <use x="961.023438" xlink:href="#DejaVuSans-63"/>
     <use x="1016.003906" xlink:href="#DejaVuSans-74"/>
     <use x="1055.212891" xlink:href="#DejaVuSans-69"/>
     <use x="1082.996094" xlink:href="#DejaVuSans-6f"/>
     <use x="1144.177734" xlink:href="#DejaVuSans-6e"/>
     <use x="1207.556641" xlink:href="#DejaVuSans-73"/>
     <use x="1259.65625" xlink:href="#DejaVuSans-2c"/>
     <use x="1291.443359" xlink:href="#DejaVuSans-20"/>
     <use x="1323.230469" xlink:href="#DejaVuSans-31"/>
     <use x="1386.853516" xlink:href="#DejaVuSans-30"/>
     <use x="1450.476562" xlink:href="#DejaVuSans-2d"/>
     <use x="1486.560547" xlink:href="#DejaVuSans-44"/>
    </g>
    <!-- 51 targets: 100..1e-08 -->
    <defs>
     <path d="M 10.796875 72.90625 
L 49.515625 72.90625 
L 49.515625 64.59375 
L 19.828125 64.59375 
L 19.828125 46.734375 
Q 21.96875 47.46875 24.109375 47.828125 
Q 26.265625 48.1875 28.421875 48.1875 
Q 40.625 48.1875 47.75 41.5 
Q 54.890625 34.8125 54.890625 23.390625 
Q 54.890625 11.625 47.5625 5.09375 
Q 40.234375 -1.421875 26.90625 -1.421875 
Q 22.3125 -1.421875 17.546875 -0.640625 
Q 12.796875 0.140625 7.71875 1.703125 
L 7.71875 11.625 
Q 12.109375 9.234375 16.796875 8.0625 
Q 21.484375 6.890625 26.703125 6.890625 
Q 35.15625 6.890625 40.078125 11.328125 
Q 45.015625 15.765625 45.015625 23.390625 
Q 45.015625 31 40.078125 35.4375 
Q 35.15625 39.890625 26.703125 39.890625 
Q 22.75 39.890625 18.8125 39.015625 
Q 14.890625 38.140625 10.796875 36.28125 
z
" id="DejaVuSans-35"/>
     <path d="M 11.71875 12.40625 
L 22.015625 12.40625 
L 22.015625 0 
L 11.71875 0 
z
M 11.71875 51.703125 
L 22.015625 51.703125 
L 22.015625 39.3125 
L 11.71875 39.3125 
z
" id="DejaVuSans-3a"/>
    </defs>
    <g transform="translate(58.89048 40.319519)scale(0.102 -0.102)">
     <use xlink:href="#DejaVuSans-35"/>
     <use x="63.623047" xlink:href="#DejaVuSans-31"/>
     <use x="127.246094" xlink:href="#DejaVuSans-20"/>
     <use x="159.033203" xlink:href="#DejaVuSans-74"/>
     <use x="198.242188" xlink:href="#DejaVuSans-61"/>
     <use x="259.521484" xlink:href="#DejaVuSans-72"/>
     <use x="300.619141" xlink:href="#DejaVuSans-67"/>
     <use x="364.095703" xlink:href="#DejaVuSans-65"/>
     <use x="425.619141" xlink:href="#DejaVuSans-74"/>
     <use x="464.828125" xlink:href="#DejaVuSans-73"/>
     <use x="516.927734" xlink:href="#DejaVuSans-3a"/>
     <use x="550.619141" xlink:href="#DejaVuSans-20"/>
     <use x="582.40625" xlink:href="#DejaVuSans-31"/>
     <use x="646.029297" xlink:href="#DejaVuSans-30"/>
     <use x="709.652344" xlink:href="#DejaVuSans-30"/>
     <use x="773.275391" xlink:href="#DejaVuSans-2e"/>
     <use x="805.0625" xlink:href="#DejaVuSans-2e"/>
     <use x="836.849609" xlink:href="#DejaVuSans-31"/>
     <use x="900.472656" xlink:href="#DejaVuSans-65"/>
     <use x="961.996094" xlink:href="#DejaVuSans-2d"/>
     <use x="998.080078" xlink:href="#DejaVuSans-30"/>
     <use x="1061.703125" xlink:href="#DejaVuSans-38"/>
    </g>
    <!-- 15 instances -->
    <g transform="translate(58.89048 51.741288)scale(0.102 -0.102)">
     <use xlink:href="#DejaVuSans-31"/>
     <use x="63.623047" xlink:href="#DejaVuSans-35"/>
     <use x="127.246094" xlink:href="#DejaVuSans-20"/>
     <use x="159.033203" xlink:href="#DejaVuSans-69"/>
     <use x="186.816406" xlink:href="#DejaVuSans-6e"/>
     <use x="250.195312" xlink:href="#DejaVuSans-73"/>
     <use x="302.294922" xlink:href="#DejaVuSans-74"/>
     <use x="341.503906" xlink:href="#DejaVuSans-61"/>
     <use x="402.783203" xlink:href="#DejaVuSans-6e"/>
     <use x="466.162109" xlink:href="#DejaVuSans-63"/>
     <use x="521.142578" xlink:href="#DejaVuSans-65"/>
     <use x="582.666016" xlink:href="#DejaVuSans-73"/>
    </g>
   </g>
   <g id="text_19">
    <!-- v0.0.0 -->
    <g style="fill:#808080;" transform="translate(178.96275 289.919965)scale(0.1 -0.1)">
     <use xlink:href="#DejaVuSans-76"/>
     <use x="59.179688" xlink:href="#DejaVuSans-30"/>
     <use x="122.802734" xlink:href="#DejaVuSans-2e"/>
     <use x="154.589844" xlink:href="#DejaVuSans-30"/>
     <use x="218.212891" xlink:href="#DejaVuSans-2e"/>
     <use x="250" xlink:href="#DejaVuSans-30"/>
    </g>
   </g>
  </g>
 </g>
 <defs>
  <clipPath id="p4635a651d5">
   <rect height="288.034772" width="277.048" x="56.12" y="6.845228"/>
  </clipPath>
 </defs>
</svg>
