<?xml version="1.0" encoding="utf-8" standalone="no"?>
<!DOCTYPE svg PUBLIC "-//W3C//DTD SVG 1.1//EN"
  "http://www.w3.org/Graphics/SVG/1.1/DTD/svg11.dtd">
<!-- Created with matplotlib (http://matplotlib.org/) -->
<svg height="345.6pt" version="1.1" viewBox="0 0 460.8 345.6" width="460.8pt" xmlns="http://www.w3.org/2000/svg" xmlns:xlink="http://www.w3.org/1999/xlink">
 <defs>
  <style type="text/css">
*{stroke-linecap:butt;stroke-linejoin:round;}
  </style>
 </defs>
 <g id="figure_1">
  <g id="patch_1">
   <path d="M 0 345.6 
L 460.8 345.6 
L 460.8 0 
L 0 0 
z
" style="fill:#ffffff;"/>
  </g>
  <g id="axes_1">
   <g id="patch_2">
    <path d="M 56.12 294.88 
L 333.168 294.88 
L 333.168 24.84 
L 56.12 24.84 
z
" style="fill:#ffffff;"/>
   </g>
   <g id="matplotlib.axis_1">
    <g id="xtick_1">
     <g id="line2d_1">
      <path clip-path="url(#pda17421035)" d="M 56.12 294.88 
L 56.12 24.84 
" style="fill:none;stroke:#b0b0b0;stroke-linecap:square;stroke-width:0.8;"/>
     </g>
     <g id="line2d_2">
      <defs>
       <path d="M 0 0 
L 0 3.5 
" id="m109d406093" style="stroke:#000000;stroke-width:0.8;"/>
      </defs>
      <g>
       <use style="stroke:#000000;stroke-width:0.8;" x="56.12" xlink:href="#m109d406093" y="294.88"/>
      </g>
     </g>
     <g id="text_1">
      <!-- 0 -->
      <defs>
       <path d="M 31.78125 66.40625 
Q 24.171875 66.40625 20.328125 58.90625 
Q 16.5 51.421875 16.5 36.375 
Q 16.5 21.390625 20.328125 13.890625 
Q 24.171875 6.390625 31.78125 6.390625 
Q 39.453125 6.390625 43.28125 13.890625 
Q 47.125 21.390625 47.125 36.375 
Q 47.125 51.421875 43.28125 58.90625 
Q 39.453125 66.40625 31.78125 66.40625 
z
M 31.78125 74.21875 
Q 44.046875 74.21875 50.515625 64.515625 
Q 56.984375 54.828125 56.984375 36.375 
Q 56.984375 17.96875 50.515625 8.265625 
Q 44.046875 -1.421875 31.78125 -1.421875 
Q 19.53125 -1.421875 13.0625 8.265625 
Q 6.59375 17.96875 6.59375 36.375 
Q 6.59375 54.828125 13.0625 64.515625 
Q 19.53125 74.21875 31.78125 74.21875 
z
" id="DejaVuSans-30"/>
      </defs>
      <g transform="translate(49.7575 317.076875)scale(0.2 -0.2)">
       <use xlink:href="#DejaVuSans-30"/>
      </g>
     </g>
    </g>
    <g id="xtick_2">
     <g id="line2d_3">
      <path clip-path="url(#pda17421035)" d="M 135.276571 294.88 
L 135.276571 24.84 
" style="fill:none;stroke:#b0b0b0;stroke-linecap:square;stroke-width:0.8;"/>
     </g>
     <g id="line2d_4">
      <g>
       <use style="stroke:#000000;stroke-width:0.8;" x="135.276571" xlink:href="#m109d406093" y="294.88"/>
      </g>
     </g>
     <g id="text_2">
      <!-- 2 -->
      <defs>
       <path d="M 19.1875 8.296875 
L 53.609375 8.296875 
L 53.609375 0 
L 7.328125 0 
L 7.328125 8.296875 
Q 12.9375 14.109375 22.625 23.890625 
Q 32.328125 33.6875 34.8125 36.53125 
Q 39.546875 41.84375 41.421875 45.53125 
Q 43.3125 49.21875 43.3125 52.78125 
Q 43.3125 58.59375 39.234375 62.25 
Q 35.15625 65.921875 28.609375 65.921875 
Q 23.96875 65.921875 18.8125 64.3125 
Q 13.671875 62.703125 7.8125 59.421875 
L 7.8125 69.390625 
Q 13.765625 71.78125 18.9375 73 
Q 24.125 74.21875 28.421875 74.21875 
Q 39.75 74.21875 46.484375 68.546875 
Q 53.21875 62.890625 53.21875 53.421875 
Q 53.21875 48.921875 51.53125 44.890625 
Q 49.859375 40.875 45.40625 35.40625 
Q 44.1875 33.984375 37.640625 27.21875 
Q 31.109375 20.453125 19.1875 8.296875 
z
" id="DejaVuSans-32"/>
      </defs>
      <g transform="translate(128.914071 317.076875)scale(0.2 -0.2)">
       <use xlink:href="#DejaVuSans-32"/>
      </g>
     </g>
    </g>
    <g id="xtick_3">
     <g id="line2d_5">
      <path clip-path="url(#pda17421035)" d="M 214.433143 294.88 
L 214.433143 24.84 
" style="fill:none;stroke:#b0b0b0;stroke-linecap:square;stroke-width:0.8;"/>
     </g>
     <g id="line2d_6">
      <g>
       <use style="stroke:#000000;stroke-width:0.8;" x="214.433143" xlink:href="#m109d406093" y="294.88"/>
      </g>
     </g>
     <g id="text_3">
      <!-- 4 -->
      <defs>
       <path d="M 37.796875 64.3125 
L 12.890625 25.390625 
L 37.796875 25.390625 
z
M 35.203125 72.90625 
L 47.609375 72.90625 
L 47.609375 25.390625 
L 58.015625 25.390625 
L 58.015625 17.1875 
L 47.609375 17.1875 
L 47.609375 0 
L 37.796875 0 
L 37.796875 17.1875 
L 4.890625 17.1875 
L 4.890625 26.703125 
z
" id="DejaVuSans-34"/>
      </defs>
      <g transform="translate(208.070643 317.076875)scale(0.2 -0.2)">
       <use xlink:href="#DejaVuSans-34"/>
      </g>
     </g>
    </g>
    <g id="xtick_4">
     <g id="line2d_7">
      <path clip-path="url(#pda17421035)" d="M 293.589714 294.88 
L 293.589714 24.84 
" style="fill:none;stroke:#b0b0b0;stroke-linecap:square;stroke-width:0.8;"/>
     </g>
     <g id="line2d_8">
      <g>
       <use style="stroke:#000000;stroke-width:0.8;" x="293.589714" xlink:href="#m109d406093" y="294.88"/>
      </g>
     </g>
     <g id="text_4">
      <!-- 6 -->
      <defs>
       <path d="M 33.015625 40.375 
Q 26.375 40.375 22.484375 35.828125 
Q 18.609375 31.296875 18.609375 23.390625 
Q 18.609375 15.53125 22.484375 10.953125 
Q 26.375 6.390625 33.015625 6.390625 
Q 39.65625 6.390625 43.53125 10.953125 
Q 47.40625 15.53125 47.40625 23.390625 
Q 47.40625 31.296875 43.53125 35.828125 
Q 39.65625 40.375 33.015625 40.375 
z
M 52.59375 71.296875 
L 52.59375 62.3125 
Q 48.875 64.0625 45.09375 64.984375 
Q 41.3125 65.921875 37.59375 65.921875 
Q 27.828125 65.921875 22.671875 59.328125 
Q 17.53125 52.734375 16.796875 39.40625 
Q 19.671875 43.65625 24.015625 45.921875 
Q 28.375 48.1875 33.59375 48.1875 
Q 44.578125 48.1875 50.953125 41.515625 
Q 57.328125 34.859375 57.328125 23.390625 
Q 57.328125 12.15625 50.6875 5.359375 
Q 44.046875 -1.421875 33.015625 -1.421875 
Q 20.359375 -1.421875 13.671875 8.265625 
Q 6.984375 17.96875 6.984375 36.375 
Q 6.984375 53.65625 15.1875 63.9375 
Q 23.390625 74.21875 37.203125 74.21875 
Q 40.921875 74.21875 44.703125 73.484375 
Q 48.484375 72.75 52.59375 71.296875 
z
" id="DejaVuSans-36"/>
      </defs>
      <g transform="translate(287.227214 317.076875)scale(0.2 -0.2)">
       <use xlink:href="#DejaVuSans-36"/>
      </g>
     </g>
    </g>
    <g id="xtick_5">
     <g id="line2d_9">
      <path clip-path="url(#pda17421035)" d="M 56.12 294.88 
L 56.12 24.84 
" style="fill:none;stroke:#b0b0b0;stroke-linecap:square;stroke-width:0.8;"/>
     </g>
     <g id="line2d_10">
      <defs>
       <path d="M 0 0 
L 0 2 
" id="m9cfab40f64" style="stroke:#000000;stroke-width:0.6;"/>
      </defs>
      <g>
       <use style="stroke:#000000;stroke-width:0.6;" x="56.12" xlink:href="#m9cfab40f64" y="294.88"/>
      </g>
     </g>
    </g>
    <g id="xtick_6">
     <g id="line2d_11">
      <path clip-path="url(#pda17421035)" d="M 95.698286 294.88 
L 95.698286 24.84 
" style="fill:none;stroke:#b0b0b0;stroke-linecap:square;stroke-width:0.8;"/>
     </g>
     <g id="line2d_12">
      <g>
       <use style="stroke:#000000;stroke-width:0.6;" x="95.698286" xlink:href="#m9cfab40f64" y="294.88"/>
      </g>
     </g>
    </g>
    <g id="xtick_7">
     <g id="line2d_13">
      <path clip-path="url(#pda17421035)" d="M 135.276571 294.88 
L 135.276571 24.84 
" style="fill:none;stroke:#b0b0b0;stroke-linecap:square;stroke-width:0.8;"/>
     </g>
     <g id="line2d_14">
      <g>
       <use style="stroke:#000000;stroke-width:0.6;" x="135.276571" xlink:href="#m9cfab40f64" y="294.88"/>
      </g>
     </g>
    </g>
    <g id="xtick_8">
     <g id="line2d_15">
      <path clip-path="url(#pda17421035)" d="M 174.854857 294.88 
L 174.854857 24.84 
" style="fill:none;stroke:#b0b0b0;stroke-linecap:square;stroke-width:0.8;"/>
     </g>
     <g id="line2d_16">
      <g>
       <use style="stroke:#000000;stroke-width:0.6;" x="174.854857" xlink:href="#m9cfab40f64" y="294.88"/>
      </g>
     </g>
    </g>
    <g id="xtick_9">
     <g id="line2d_17">
      <path clip-path="url(#pda17421035)" d="M 214.433143 294.88 
L 214.433143 24.84 
" style="fill:none;stroke:#b0b0b0;stroke-linecap:square;stroke-width:0.8;"/>
     </g>
     <g id="line2d_18">
      <g>
       <use style="stroke:#000000;stroke-width:0.6;" x="214.433143" xlink:href="#m9cfab40f64" y="294.88"/>
      </g>
     </g>
    </g>
    <g id="xtick_10">
     <g id="line2d_19">
      <path clip-path="url(#pda17421035)" d="M 254.011429 294.88 
L 254.011429 24.84 
" style="fill:none;stroke:#b0b0b0;stroke-linecap:square;stroke-width:0.8;"/>
     </g>
     <g id="line2d_20">
      <g>
       <use style="stroke:#000000;stroke-width:0.6;" x="254.011429" xlink:href="#m9cfab40f64" y="294.88"/>
      </g>
     </g>
    </g>
    <g id="xtick_11">
     <g id="line2d_21">
      <path clip-path="url(#pda17421035)" d="M 293.589714 294.88 
L 293.589714 24.84 
" style="fill:none;stroke:#b0b0b0;stroke-linecap:square;stroke-width:0.8;"/>
     </g>
     <g id="line2d_22">
      <g>
       <use style="stroke:#000000;stroke-width:0.6;" x="293.589714" xlink:href="#m9cfab40f64" y="294.88"/>
      </g>
     </g>
    </g>
    <g id="xtick_12">
     <g id="line2d_23">
      <path clip-path="url(#pda17421035)" d="M 333.168 294.88 
L 333.168 24.84 
" style="fill:none;stroke:#b0b0b0;stroke-linecap:square;stroke-width:0.8;"/>
     </g>
     <g id="line2d_24">
      <g>
       <use style="stroke:#000000;stroke-width:0.6;" x="333.168" xlink:href="#m9cfab40f64" y="294.88"/>
      </g>
     </g>
    </g>
    <g id="text_5">
     <!-- log10(# f-evals / dimension) -->
     <defs>
      <path d="M 9.421875 75.984375 
L 18.40625 75.984375 
L 18.40625 0 
L 9.421875 0 
z
" id="DejaVuSans-6c"/>
      <path d="M 30.609375 48.390625 
Q 23.390625 48.390625 19.1875 42.75 
Q 14.984375 37.109375 14.984375 27.296875 
Q 14.984375 17.484375 19.15625 11.84375 
Q 23.34375 6.203125 30.609375 6.203125 
Q 37.796875 6.203125 41.984375 11.859375 
Q 46.1875 17.53125 46.1875 27.296875 
Q 46.1875 37.015625 41.984375 42.703125 
Q 37.796875 48.390625 30.609375 48.390625 
z
M 30.609375 56 
Q 42.328125 56 49.015625 48.375 
Q 55.71875 40.765625 55.71875 27.296875 
Q 55.71875 13.875 49.015625 6.21875 
Q 42.328125 -1.421875 30.609375 -1.421875 
Q 18.84375 -1.421875 12.171875 6.21875 
Q 5.515625 13.875 5.515625 27.296875 
Q 5.515625 40.765625 12.171875 48.375 
Q 18.84375 56 30.609375 56 
z
" id="DejaVuSans-6f"/>
      <path d="M 45.40625 27.984375 
Q 45.40625 37.75 41.375 43.109375 
Q 37.359375 48.484375 30.078125 48.484375 
Q 22.859375 48.484375 18.828125 43.109375 
Q 14.796875 37.75 14.796875 27.984375 
Q 14.796875 18.265625 18.828125 12.890625 
Q 22.859375 7.515625 30.078125 7.515625 
Q 37.359375 7.515625 41.375 12.890625 
Q 45.40625 18.265625 45.40625 27.984375 
z
M 54.390625 6.78125 
Q 54.390625 -7.171875 48.1875 -13.984375 
Q 42 -20.796875 29.203125 -20.796875 
Q 24.46875 -20.796875 20.265625 -20.09375 
Q 16.0625 -19.390625 12.109375 -17.921875 
L 12.109375 -9.1875 
Q 16.0625 -11.328125 19.921875 -12.34375 
Q 23.78125 -13.375 27.78125 -13.375 
Q 36.625 -13.375 41.015625 -8.765625 
Q 45.40625 -4.15625 45.40625 5.171875 
L 45.40625 9.625 
Q 42.625 4.78125 38.28125 2.390625 
Q 33.9375 0 27.875 0 
Q 17.828125 0 11.671875 7.65625 
Q 5.515625 15.328125 5.515625 27.984375 
Q 5.515625 40.671875 11.671875 48.328125 
Q 17.828125 56 27.875 56 
Q 33.9375 56 38.28125 53.609375 
Q 42.625 51.21875 45.40625 46.390625 
L 45.40625 54.6875 
L 54.390625 54.6875 
z
" id="DejaVuSans-67"/>
      <path d="M 12.40625 8.296875 
L 28.515625 8.296875 
L 28.515625 63.921875 
L 10.984375 60.40625 
L 10.984375 69.390625 
L 28.421875 72.90625 
L 38.28125 72.90625 
L 38.28125 8.296875 
L 54.390625 8.296875 
L 54.390625 0 
L 12.40625 0 
z
" id="DejaVuSans-31"/>
      <path d="M 31 75.875 
Q 24.46875 64.65625 21.28125 53.65625 
Q 18.109375 42.671875 18.109375 31.390625 
Q 18.109375 20.125 21.3125 9.0625 
Q 24.515625 -2 31 -13.1875 
L 23.1875 -13.1875 
Q 15.875 -1.703125 12.234375 9.375 
Q 8.59375 20.453125 8.59375 31.390625 
Q 8.59375 42.28125 12.203125 53.3125 
Q 15.828125 64.359375 23.1875 75.875 
z
" id="DejaVuSans-28"/>
      <path d="M 51.125 44 
L 36.921875 44 
L 32.8125 27.6875 
L 47.125 27.6875 
z
M 43.796875 71.78125 
L 38.71875 51.515625 
L 52.984375 51.515625 
L 58.109375 71.78125 
L 65.921875 71.78125 
L 60.890625 51.515625 
L 76.125 51.515625 
L 76.125 44 
L 58.984375 44 
L 54.984375 27.6875 
L 70.515625 27.6875 
L 70.515625 20.21875 
L 53.078125 20.21875 
L 48 0 
L 40.1875 0 
L 45.21875 20.21875 
L 30.90625 20.21875 
L 25.875 0 
L 18.015625 0 
L 23.09375 20.21875 
L 7.71875 20.21875 
L 7.71875 27.6875 
L 24.90625 27.6875 
L 29 44 
L 13.28125 44 
L 13.28125 51.515625 
L 30.90625 51.515625 
L 35.890625 71.78125 
z
" id="DejaVuSans-23"/>
      <path id="DejaVuSans-20"/>
      <path d="M 37.109375 75.984375 
L 37.109375 68.5 
L 28.515625 68.5 
Q 23.6875 68.5 21.796875 66.546875 
Q 19.921875 64.59375 19.921875 59.515625 
L 19.921875 54.6875 
L 34.71875 54.6875 
L 34.71875 47.703125 
L 19.921875 47.703125 
L 19.921875 0 
L 10.890625 0 
L 10.890625 47.703125 
L 2.296875 47.703125 
L 2.296875 54.6875 
L 10.890625 54.6875 
L 10.890625 58.5 
Q 10.890625 67.625 15.140625 71.796875 
Q 19.390625 75.984375 28.609375 75.984375 
z
" id="DejaVuSans-66"/>
      <path d="M 4.890625 31.390625 
L 31.203125 31.390625 
L 31.203125 23.390625 
L 4.890625 23.390625 
z
" id="DejaVuSans-2d"/>
      <path d="M 56.203125 29.59375 
L 56.203125 25.203125 
L 14.890625 25.203125 
Q 15.484375 15.921875 20.484375 11.0625 
Q 25.484375 6.203125 34.421875 6.203125 
Q 39.59375 6.203125 44.453125 7.46875 
Q 49.3125 8.734375 54.109375 11.28125 
L 54.109375 2.78125 
Q 49.265625 0.734375 44.1875 -0.34375 
Q 39.109375 -1.421875 33.890625 -1.421875 
Q 20.796875 -1.421875 13.15625 6.1875 
Q 5.515625 13.8125 5.515625 26.8125 
Q 5.515625 40.234375 12.765625 48.109375 
Q 20.015625 56 32.328125 56 
Q 43.359375 56 49.78125 48.890625 
Q 56.203125 41.796875 56.203125 29.59375 
z
M 47.21875 32.234375 
Q 47.125 39.59375 43.09375 43.984375 
Q 39.0625 48.390625 32.421875 48.390625 
Q 24.90625 48.390625 20.390625 44.140625 
Q 15.875 39.890625 15.1875 32.171875 
z
" id="DejaVuSans-65"/>
      <path d="M 2.984375 54.6875 
L 12.5 54.6875 
L 29.59375 8.796875 
L 46.6875 54.6875 
L 56.203125 54.6875 
L 35.6875 0 
L 23.484375 0 
z
" id="DejaVuSans-76"/>
      <path d="M 34.28125 27.484375 
Q 23.390625 27.484375 19.1875 25 
Q 14.984375 22.515625 14.984375 16.5 
Q 14.984375 11.71875 18.140625 8.90625 
Q 21.296875 6.109375 26.703125 6.109375 
Q 34.1875 6.109375 38.703125 11.40625 
Q 43.21875 16.703125 43.21875 25.484375 
L 43.21875 27.484375 
z
M 52.203125 31.203125 
L 52.203125 0 
L 43.21875 0 
L 43.21875 8.296875 
Q 40.140625 3.328125 35.546875 0.953125 
Q 30.953125 -1.421875 24.3125 -1.421875 
Q 15.921875 -1.421875 10.953125 3.296875 
Q 6 8.015625 6 15.921875 
Q 6 25.140625 12.171875 29.828125 
Q 18.359375 34.515625 30.609375 34.515625 
L 43.21875 34.515625 
L 43.21875 35.40625 
Q 43.21875 41.609375 39.140625 45 
Q 35.0625 48.390625 27.6875 48.390625 
Q 23 48.390625 18.546875 47.265625 
Q 14.109375 46.140625 10.015625 43.890625 
L 10.015625 52.203125 
Q 14.9375 54.109375 19.578125 55.046875 
Q 24.21875 56 28.609375 56 
Q 40.484375 56 46.34375 49.84375 
Q 52.203125 43.703125 52.203125 31.203125 
z
" id="DejaVuSans-61"/>
      <path d="M 44.28125 53.078125 
L 44.28125 44.578125 
Q 40.484375 46.53125 36.375 47.5 
Q 32.28125 48.484375 27.875 48.484375 
Q 21.1875 48.484375 17.84375 46.4375 
Q 14.5 44.390625 14.5 40.28125 
Q 14.5 37.15625 16.890625 35.375 
Q 19.28125 33.59375 26.515625 31.984375 
L 29.59375 31.296875 
Q 39.15625 29.25 43.1875 25.515625 
Q 47.21875 21.78125 47.21875 15.09375 
Q 47.21875 7.46875 41.1875 3.015625 
Q 35.15625 -1.421875 24.609375 -1.421875 
Q 20.21875 -1.421875 15.453125 -0.5625 
Q 10.6875 0.296875 5.421875 2 
L 5.421875 11.28125 
Q 10.40625 8.6875 15.234375 7.390625 
Q 20.0625 6.109375 24.8125 6.109375 
Q 31.15625 6.109375 34.5625 8.28125 
Q 37.984375 10.453125 37.984375 14.40625 
Q 37.984375 18.0625 35.515625 20.015625 
Q 33.0625 21.96875 24.703125 23.78125 
L 21.578125 24.515625 
Q 13.234375 26.265625 9.515625 29.90625 
Q 5.8125 33.546875 5.8125 39.890625 
Q 5.8125 47.609375 11.28125 51.796875 
Q 16.75 56 26.8125 56 
Q 31.78125 56 36.171875 55.265625 
Q 40.578125 54.546875 44.28125 53.078125 
z
" id="DejaVuSans-73"/>
      <path d="M 25.390625 72.90625 
L 33.6875 72.90625 
L 8.296875 -9.28125 
L 0 -9.28125 
z
" id="DejaVuSans-2f"/>
      <path d="M 45.40625 46.390625 
L 45.40625 75.984375 
L 54.390625 75.984375 
L 54.390625 0 
L 45.40625 0 
L 45.40625 8.203125 
Q 42.578125 3.328125 38.25 0.953125 
Q 33.9375 -1.421875 27.875 -1.421875 
Q 17.96875 -1.421875 11.734375 6.484375 
Q 5.515625 14.40625 5.515625 27.296875 
Q 5.515625 40.1875 11.734375 48.09375 
Q 17.96875 56 27.875 56 
Q 33.9375 56 38.25 53.625 
Q 42.578125 51.265625 45.40625 46.390625 
z
M 14.796875 27.296875 
Q 14.796875 17.390625 18.875 11.75 
Q 22.953125 6.109375 30.078125 6.109375 
Q 37.203125 6.109375 41.296875 11.75 
Q 45.40625 17.390625 45.40625 27.296875 
Q 45.40625 37.203125 41.296875 42.84375 
Q 37.203125 48.484375 30.078125 48.484375 
Q 22.953125 48.484375 18.875 42.84375 
Q 14.796875 37.203125 14.796875 27.296875 
z
" id="DejaVuSans-64"/>
      <path d="M 9.421875 54.6875 
L 18.40625 54.6875 
L 18.40625 0 
L 9.421875 0 
z
M 9.421875 75.984375 
L 18.40625 75.984375 
L 18.40625 64.59375 
L 9.421875 64.59375 
z
" id="DejaVuSans-69"/>
      <path d="M 52 44.1875 
Q 55.375 50.25 60.0625 53.125 
Q 64.75 56 71.09375 56 
Q 79.640625 56 84.28125 50.015625 
Q 88.921875 44.046875 88.921875 33.015625 
L 88.921875 0 
L 79.890625 0 
L 79.890625 32.71875 
Q 79.890625 40.578125 77.09375 44.375 
Q 74.3125 48.1875 68.609375 48.1875 
Q 61.625 48.1875 57.5625 43.546875 
Q 53.515625 38.921875 53.515625 30.90625 
L 53.515625 0 
L 44.484375 0 
L 44.484375 32.71875 
Q 44.484375 40.625 41.703125 44.40625 
Q 38.921875 48.1875 33.109375 48.1875 
Q 26.21875 48.1875 22.15625 43.53125 
Q 18.109375 38.875 18.109375 30.90625 
L 18.109375 0 
L 9.078125 0 
L 9.078125 54.6875 
L 18.109375 54.6875 
L 18.109375 46.1875 
Q 21.1875 51.21875 25.484375 53.609375 
Q 29.78125 56 35.6875 56 
Q 41.65625 56 45.828125 52.96875 
Q 50 49.953125 52 44.1875 
z
" id="DejaVuSans-6d"/>
      <path d="M 54.890625 33.015625 
L 54.890625 0 
L 45.90625 0 
L 45.90625 32.71875 
Q 45.90625 40.484375 42.875 44.328125 
Q 39.84375 48.1875 33.796875 48.1875 
Q 26.515625 48.1875 22.3125 43.546875 
Q 18.109375 38.921875 18.109375 30.90625 
L 18.109375 0 
L 9.078125 0 
L 9.078125 54.6875 
L 18.109375 54.6875 
L 18.109375 46.1875 
Q 21.34375 51.125 25.703125 53.5625 
Q 30.078125 56 35.796875 56 
Q 45.21875 56 50.046875 50.171875 
Q 54.890625 44.34375 54.890625 33.015625 
z
" id="DejaVuSans-6e"/>
      <path d="M 8.015625 75.875 
L 15.828125 75.875 
Q 23.140625 64.359375 26.78125 53.3125 
Q 30.421875 42.28125 30.421875 31.390625 
Q 30.421875 20.453125 26.78125 9.375 
Q 23.140625 -1.703125 15.828125 -13.1875 
L 8.015625 -13.1875 
Q 14.5 -2 17.703125 9.0625 
Q 20.90625 20.125 20.90625 31.390625 
Q 20.90625 42.671875 17.703125 53.65625 
Q 14.5 64.65625 8.015625 75.875 
z
" id="DejaVuSans-29"/>
     </defs>
     <g transform="translate(73.803219 338.153594)scale(0.17 -0.17)">
      <use xlink:href="#DejaVuSans-6c"/>
      <use x="27.783203" xlink:href="#DejaVuSans-6f"/>
      <use x="88.964844" xlink:href="#DejaVuSans-67"/>
      <use x="152.441406" xlink:href="#DejaVuSans-31"/>
      <use x="216.064453" xlink:href="#DejaVuSans-30"/>
      <use x="279.6875" xlink:href="#DejaVuSans-28"/>
      <use x="318.701172" xlink:href="#DejaVuSans-23"/>
      <use x="402.490234" xlink:href="#DejaVuSans-20"/>
      <use x="434.277344" xlink:href="#DejaVuSans-66"/>
      <use x="469.404297" xlink:href="#DejaVuSans-2d"/>
      <use x="505.488281" xlink:href="#DejaVuSans-65"/>
      <use x="567.011719" xlink:href="#DejaVuSans-76"/>
      <use x="626.191406" xlink:href="#DejaVuSans-61"/>
      <use x="687.470703" xlink:href="#DejaVuSans-6c"/>
      <use x="715.253906" xlink:href="#DejaVuSans-73"/>
      <use x="767.353516" xlink:href="#DejaVuSans-20"/>
      <use x="799.140625" xlink:href="#DejaVuSans-2f"/>
      <use x="832.832031" xlink:href="#DejaVuSans-20"/>
      <use x="864.619141" xlink:href="#DejaVuSans-64"/>
      <use x="928.095703" xlink:href="#DejaVuSans-69"/>
      <use x="955.878906" xlink:href="#DejaVuSans-6d"/>
      <use x="1053.291016" xlink:href="#DejaVuSans-65"/>
      <use x="1114.814453" xlink:href="#DejaVuSans-6e"/>
      <use x="1178.193359" xlink:href="#DejaVuSans-73"/>
      <use x="1230.292969" xlink:href="#DejaVuSans-69"/>
      <use x="1258.076172" xlink:href="#DejaVuSans-6f"/>
      <use x="1319.257812" xlink:href="#DejaVuSans-6e"/>
      <use x="1382.636719" xlink:href="#DejaVuSans-29"/>
     </g>
    </g>
   </g>
   <g id="matplotlib.axis_2">
    <g id="ytick_1">
     <g id="line2d_25">
      <path clip-path="url(#pda17421035)" d="M 56.12 294.88 
L 333.168 294.88 
" style="fill:none;stroke:#b0b0b0;stroke-linecap:square;stroke-width:0.8;"/>
     </g>
     <g id="line2d_26">
      <defs>
       <path d="M 0 0 
L -3.5 0 
" id="m8c60e1053f" style="stroke:#000000;stroke-width:0.8;"/>
      </defs>
      <g>
       <use style="stroke:#000000;stroke-width:0.8;" x="56.12" xlink:href="#m8c60e1053f" y="294.88"/>
      </g>
     </g>
     <g id="text_6">
      <!-- 0.0 -->
      <defs>
       <path d="M 10.6875 12.40625 
L 21 12.40625 
L 21 0 
L 10.6875 0 
z
" id="DejaVuSans-2e"/>
      </defs>
      <g transform="translate(23.675 300.95875)scale(0.16 -0.16)">
       <use xlink:href="#DejaVuSans-30"/>
       <use x="63.623047" xlink:href="#DejaVuSans-2e"/>
       <use x="95.410156" xlink:href="#DejaVuSans-30"/>
      </g>
     </g>
    </g>
    <g id="ytick_2">
     <g id="line2d_27">
      <path clip-path="url(#pda17421035)" d="M 56.12 241.406733 
L 333.168 241.406733 
" style="fill:none;stroke:#b0b0b0;stroke-linecap:square;stroke-width:0.8;"/>
     </g>
     <g id="line2d_28">
      <g>
       <use style="stroke:#000000;stroke-width:0.8;" x="56.12" xlink:href="#m8c60e1053f" y="241.406733"/>
      </g>
     </g>
     <g id="text_7">
      <!-- 0.2 -->
      <g transform="translate(23.675 247.485483)scale(0.16 -0.16)">
       <use xlink:href="#DejaVuSans-30"/>
       <use x="63.623047" xlink:href="#DejaVuSans-2e"/>
       <use x="95.410156" xlink:href="#DejaVuSans-32"/>
      </g>
     </g>
    </g>
    <g id="ytick_3">
     <g id="line2d_29">
      <path clip-path="url(#pda17421035)" d="M 56.12 187.933465 
L 333.168 187.933465 
" style="fill:none;stroke:#b0b0b0;stroke-linecap:square;stroke-width:0.8;"/>
     </g>
     <g id="line2d_30">
      <g>
       <use style="stroke:#000000;stroke-width:0.8;" x="56.12" xlink:href="#m8c60e1053f" y="187.933465"/>
      </g>
     </g>
     <g id="text_8">
      <!-- 0.4 -->
      <g transform="translate(23.675 194.012215)scale(0.16 -0.16)">
       <use xlink:href="#DejaVuSans-30"/>
       <use x="63.623047" xlink:href="#DejaVuSans-2e"/>
       <use x="95.410156" xlink:href="#DejaVuSans-34"/>
      </g>
     </g>
    </g>
    <g id="ytick_4">
     <g id="line2d_31">
      <path clip-path="url(#pda17421035)" d="M 56.12 134.460198 
L 333.168 134.460198 
" style="fill:none;stroke:#b0b0b0;stroke-linecap:square;stroke-width:0.8;"/>
     </g>
     <g id="line2d_32">
      <g>
       <use style="stroke:#000000;stroke-width:0.8;" x="56.12" xlink:href="#m8c60e1053f" y="134.460198"/>
      </g>
     </g>
     <g id="text_9">
      <!-- 0.6 -->
      <g transform="translate(23.675 140.538948)scale(0.16 -0.16)">
       <use xlink:href="#DejaVuSans-30"/>
       <use x="63.623047" xlink:href="#DejaVuSans-2e"/>
       <use x="95.410156" xlink:href="#DejaVuSans-36"/>
      </g>
     </g>
    </g>
    <g id="ytick_5">
     <g id="line2d_33">
      <path clip-path="url(#pda17421035)" d="M 56.12 80.986931 
L 333.168 80.986931 
" style="fill:none;stroke:#b0b0b0;stroke-linecap:square;stroke-width:0.8;"/>
     </g>
     <g id="line2d_34">
      <g>
       <use style="stroke:#000000;stroke-width:0.8;" x="56.12" xlink:href="#m8c60e1053f" y="80.986931"/>
      </g>
     </g>
     <g id="text_10">
      <!-- 0.8 -->
      <defs>
       <path d="M 31.78125 34.625 
Q 24.75 34.625 20.71875 30.859375 
Q 16.703125 27.09375 16.703125 20.515625 
Q 16.703125 13.921875 20.71875 10.15625 
Q 24.75 6.390625 31.78125 6.390625 
Q 38.8125 6.390625 42.859375 10.171875 
Q 46.921875 13.96875 46.921875 20.515625 
Q 46.921875 27.09375 42.890625 30.859375 
Q 38.875 34.625 31.78125 34.625 
z
M 21.921875 38.8125 
Q 15.578125 40.375 12.03125 44.71875 
Q 8.5 49.078125 8.5 55.328125 
Q 8.5 64.0625 14.71875 69.140625 
Q 20.953125 74.21875 31.78125 74.21875 
Q 42.671875 74.21875 48.875 69.140625 
Q 55.078125 64.0625 55.078125 55.328125 
Q 55.078125 49.078125 51.53125 44.71875 
Q 48 40.375 41.703125 38.8125 
Q 48.828125 37.15625 52.796875 32.3125 
Q 56.78125 27.484375 56.78125 20.515625 
Q 56.78125 9.90625 50.3125 4.234375 
Q 43.84375 -1.421875 31.78125 -1.421875 
Q 19.734375 -1.421875 13.25 4.234375 
Q 6.78125 9.90625 6.78125 20.515625 
Q 6.78125 27.484375 10.78125 32.3125 
Q 14.796875 37.15625 21.921875 38.8125 
z
M 18.3125 54.390625 
Q 18.3125 48.734375 21.84375 45.5625 
Q 25.390625 42.390625 31.78125 42.390625 
Q 38.140625 42.390625 41.71875 45.5625 
Q 45.3125 48.734375 45.3125 54.390625 
Q 45.3125 60.0625 41.71875 63.234375 
Q 38.140625 66.40625 31.78125 66.40625 
Q 25.390625 66.40625 21.84375 63.234375 
Q 18.3125 60.0625 18.3125 54.390625 
z
" id="DejaVuSans-38"/>
      </defs>
      <g transform="translate(23.675 87.065681)scale(0.16 -0.16)">
       <use xlink:href="#DejaVuSans-30"/>
       <use x="63.623047" xlink:href="#DejaVuSans-2e"/>
       <use x="95.410156" xlink:href="#DejaVuSans-38"/>
      </g>
     </g>
    </g>
    <g id="ytick_6">
     <g id="line2d_35">
      <path clip-path="url(#pda17421035)" d="M 56.12 27.513663 
L 333.168 27.513663 
" style="fill:none;stroke:#b0b0b0;stroke-linecap:square;stroke-width:0.8;"/>
     </g>
     <g id="line2d_36">
      <g>
       <use style="stroke:#000000;stroke-width:0.8;" x="56.12" xlink:href="#m8c60e1053f" y="27.513663"/>
      </g>
     </g>
     <g id="text_11">
      <!-- 1.0 -->
      <g transform="translate(23.675 33.592413)scale(0.16 -0.16)">
       <use xlink:href="#DejaVuSans-31"/>
       <use x="63.623047" xlink:href="#DejaVuSans-2e"/>
       <use x="95.410156" xlink:href="#DejaVuSans-30"/>
      </g>
     </g>
    </g>
    <g id="text_12">
     <!-- Fraction of function,target pairs -->
     <defs>
      <path d="M 9.8125 72.90625 
L 51.703125 72.90625 
L 51.703125 64.59375 
L 19.671875 64.59375 
L 19.671875 43.109375 
L 48.578125 43.109375 
L 48.578125 34.8125 
L 19.671875 34.8125 
L 19.671875 0 
L 9.8125 0 
z
" id="DejaVuSans-46"/>
      <path d="M 41.109375 46.296875 
Q 39.59375 47.171875 37.8125 47.578125 
Q 36.03125 48 33.890625 48 
Q 26.265625 48 22.1875 43.046875 
Q 18.109375 38.09375 18.109375 28.8125 
L 18.109375 0 
L 9.078125 0 
L 9.078125 54.6875 
L 18.109375 54.6875 
L 18.109375 46.1875 
Q 20.953125 51.171875 25.484375 53.578125 
Q 30.03125 56 36.53125 56 
Q 37.453125 56 38.578125 55.875 
Q 39.703125 55.765625 41.0625 55.515625 
z
" id="DejaVuSans-72"/>
      <path d="M 48.78125 52.59375 
L 48.78125 44.1875 
Q 44.96875 46.296875 41.140625 47.34375 
Q 37.3125 48.390625 33.40625 48.390625 
Q 24.65625 48.390625 19.8125 42.84375 
Q 14.984375 37.3125 14.984375 27.296875 
Q 14.984375 17.28125 19.8125 11.734375 
Q 24.65625 6.203125 33.40625 6.203125 
Q 37.3125 6.203125 41.140625 7.25 
Q 44.96875 8.296875 48.78125 10.40625 
L 48.78125 2.09375 
Q 45.015625 0.34375 40.984375 -0.53125 
Q 36.96875 -1.421875 32.421875 -1.421875 
Q 20.0625 -1.421875 12.78125 6.34375 
Q 5.515625 14.109375 5.515625 27.296875 
Q 5.515625 40.671875 12.859375 48.328125 
Q 20.21875 56 33.015625 56 
Q 37.15625 56 41.109375 55.140625 
Q 45.0625 54.296875 48.78125 52.59375 
z
" id="DejaVuSans-63"/>
      <path d="M 18.3125 70.21875 
L 18.3125 54.6875 
L 36.8125 54.6875 
L 36.8125 47.703125 
L 18.3125 47.703125 
L 18.3125 18.015625 
Q 18.3125 11.328125 20.140625 9.421875 
Q 21.96875 7.515625 27.59375 7.515625 
L 36.8125 7.515625 
L 36.8125 0 
L 27.59375 0 
Q 17.1875 0 13.234375 3.875 
Q 9.28125 7.765625 9.28125 18.015625 
L 9.28125 47.703125 
L 2.6875 47.703125 
L 2.6875 54.6875 
L 9.28125 54.6875 
L 9.28125 70.21875 
z
" id="DejaVuSans-74"/>
      <path d="M 8.5 21.578125 
L 8.5 54.6875 
L 17.484375 54.6875 
L 17.484375 21.921875 
Q 17.484375 14.15625 20.5 10.265625 
Q 23.53125 6.390625 29.59375 6.390625 
Q 36.859375 6.390625 41.078125 11.03125 
Q 45.3125 15.671875 45.3125 23.6875 
L 45.3125 54.6875 
L 54.296875 54.6875 
L 54.296875 0 
L 45.3125 0 
L 45.3125 8.40625 
Q 42.046875 3.421875 37.71875 1 
Q 33.40625 -1.421875 27.6875 -1.421875 
Q 18.265625 -1.421875 13.375 4.4375 
Q 8.5 10.296875 8.5 21.578125 
z
M 31.109375 56 
z
" id="DejaVuSans-75"/>
      <path d="M 11.71875 12.40625 
L 22.015625 12.40625 
L 22.015625 4 
L 14.015625 -11.625 
L 7.71875 -11.625 
L 11.71875 4 
z
" id="DejaVuSans-2c"/>
      <path d="M 18.109375 8.203125 
L 18.109375 -20.796875 
L 9.078125 -20.796875 
L 9.078125 54.6875 
L 18.109375 54.6875 
L 18.109375 46.390625 
Q 20.953125 51.265625 25.265625 53.625 
Q 29.59375 56 35.59375 56 
Q 45.5625 56 51.78125 48.09375 
Q 58.015625 40.1875 58.015625 27.296875 
Q 58.015625 14.40625 51.78125 6.484375 
Q 45.5625 -1.421875 35.59375 -1.421875 
Q 29.59375 -1.421875 25.265625 0.953125 
Q 20.953125 3.328125 18.109375 8.203125 
z
M 48.6875 27.296875 
Q 48.6875 37.203125 44.609375 42.84375 
Q 40.53125 48.484375 33.40625 48.484375 
Q 26.265625 48.484375 22.1875 42.84375 
Q 18.109375 37.203125 18.109375 27.296875 
Q 18.109375 17.390625 22.1875 11.75 
Q 26.265625 6.109375 33.40625 6.109375 
Q 40.53125 6.109375 44.609375 11.75 
Q 48.6875 17.390625 48.6875 27.296875 
z
" id="DejaVuSans-70"/>
     </defs>
     <g transform="translate(16.139531 294.999375)rotate(-90)scale(0.17 -0.17)">
      <use xlink:href="#DejaVuSans-46"/>
      <use x="57.410156" xlink:href="#DejaVuSans-72"/>
      <use x="98.523438" xlink:href="#DejaVuSans-61"/>
      <use x="159.802734" xlink:href="#DejaVuSans-63"/>
      <use x="214.783203" xlink:href="#DejaVuSans-74"/>
      <use x="253.992188" xlink:href="#DejaVuSans-69"/>
      <use x="281.775391" xlink:href="#DejaVuSans-6f"/>
      <use x="342.957031" xlink:href="#DejaVuSans-6e"/>
      <use x="406.335938" xlink:href="#DejaVuSans-20"/>
      <use x="438.123047" xlink:href="#DejaVuSans-6f"/>
      <use x="499.304688" xlink:href="#DejaVuSans-66"/>
      <use x="534.509766" xlink:href="#DejaVuSans-20"/>
      <use x="566.296875" xlink:href="#DejaVuSans-66"/>
      <use x="601.501953" xlink:href="#DejaVuSans-75"/>
      <use x="664.880859" xlink:href="#DejaVuSans-6e"/>
      <use x="728.259766" xlink:href="#DejaVuSans-63"/>
      <use x="783.240234" xlink:href="#DejaVuSans-74"/>
      <use x="822.449219" xlink:href="#DejaVuSans-69"/>
      <use x="850.232422" xlink:href="#DejaVuSans-6f"/>
      <use x="911.414062" xlink:href="#DejaVuSans-6e"/>
      <use x="974.792969" xlink:href="#DejaVuSans-2c"/>
      <use x="1006.580078" xlink:href="#DejaVuSans-74"/>
      <use x="1045.789062" xlink:href="#DejaVuSans-61"/>
      <use x="1107.068359" xlink:href="#DejaVuSans-72"/>
      <use x="1148.166016" xlink:href="#DejaVuSans-67"/>
      <use x="1211.642578" xlink:href="#DejaVuSans-65"/>
      <use x="1273.166016" xlink:href="#DejaVuSans-74"/>
      <use x="1312.375" xlink:href="#DejaVuSans-20"/>
      <use x="1344.162109" xlink:href="#DejaVuSans-70"/>
      <use x="1407.638672" xlink:href="#DejaVuSans-61"/>
      <use x="1468.917969" xlink:href="#DejaVuSans-69"/>
      <use x="1496.701172" xlink:href="#DejaVuSans-72"/>
      <use x="1537.814453" xlink:href="#DejaVuSans-73"/>
     </g>
    </g>
   </g>
   <g id="line2d_37">
    <defs>
     <path d="M 0 1.5 
C 0.397805 1.5 0.77937 1.341951 1.06066 1.06066 
C 1.341951 0.77937 1.5 0.397805 1.5 0 
C 1.5 -0.397805 1.341951 -0.77937 1.06066 -1.06066 
C 0.77937 -1.341951 0.397805 -1.5 0 -1.5 
C -0.397805 -1.5 -0.77937 -1.341951 -1.06066 -1.06066 
C -1.341951 -0.77937 -1.5 -0.397805 -1.5 0 
C -1.5 0.397805 -1.341951 0.77937 -1.06066 1.06066 
C -0.77937 1.341951 -0.397805 1.5 0 1.5 
z
" id="m1134bdeabb" style="stroke:#00bfbf;"/>
    </defs>
    <g>
     <use style="fill:#00bfbf;stroke:#00bfbf;" x="197.447516" xlink:href="#m1134bdeabb" y="27.513663"/>
     <use style="fill:#00bfbf;stroke:#00bfbf;" x="197.447516" xlink:href="#m1134bdeabb" y="27.513663"/>
    </g>
   </g>
   <g id="line2d_38">
    <path d="M 56.12 294.88 
L 56.12 293.831505 
L 63.08939 293.831505 
L 63.08939 288.06478 
L 68.034251 288.06478 
L 68.034251 287.016284 
L 71.869783 287.016284 
L 71.869783 285.443541 
L 77.653281 285.443541 
L 77.653281 276.53133 
L 79.948502 276.53133 
L 79.948502 273.910091 
L 83.784035 273.910091 
L 83.784035 272.861596 
L 86.917893 272.861596 
L 86.917893 268.667614 
L 88.293717 268.667614 
L 88.293717 267.619119 
L 93.887283 267.619119 
L 93.887283 266.046375 
L 94.816624 266.046375 
L 94.816624 262.376641 
L 98.832144 262.376641 
L 98.832144 260.803898 
L 99.533818 260.803898 
L 99.533818 257.134164 
L 100.207968 257.134164 
L 100.207968 256.609917 
L 100.856673 256.609917 
L 100.856673 255.037173 
L 103.777005 255.037173 
L 103.777005 253.988678 
L 106.730875 253.988678 
L 106.730875 253.46443 
L 108.85563 253.46443 
L 108.85563 252.940182 
L 110.014853 252.940182 
L 110.014853 252.415935 
L 112.770924 252.415935 
L 112.770924 251.891687 
L 116.73331 251.891687 
L 116.73331 250.843192 
L 117.231566 250.843192 
L 117.231566 250.318944 
L 118.417459 250.318944 
L 118.417459 249.794696 
L 120.769881 249.794696 
L 120.769881 249.270448 
L 123.015063 249.270448 
L 123.015063 248.746201 
L 126.638823 248.746201 
L 126.638823 248.221953 
L 130.33171 248.221953 
L 130.33171 245.600714 
L 134.753019 245.600714 
L 134.753019 244.027971 
L 135.447604 244.027971 
L 135.447604 243.503724 
L 137.603992 243.503724 
L 137.603992 242.979476 
L 139.586771 242.979476 
L 139.586771 242.455228 
L 140.812746 242.455228 
L 140.812746 241.93098 
L 143.247524 241.93098 
L 143.247524 241.406733 
L 143.515683 241.406733 
L 143.515683 239.309742 
L 143.988072 239.309742 
L 143.988072 238.261246 
L 144.84642 238.261246 
L 144.84642 236.688503 
L 145.616908 236.688503 
L 145.616908 236.164255 
L 146.172923 236.164255 
L 146.172923 235.11576 
L 149.593139 235.11576 
L 149.593139 234.067265 
L 150.360453 234.067265 
L 150.360453 233.543017 
L 150.538207 233.543017 
L 150.538207 231.446026 
L 153.428671 231.446026 
L 153.428671 229.349035 
L 153.842163 229.349035 
L 153.842163 226.727797 
L 154.274423 226.727797 
L 154.274423 225.679301 
L 156.159258 225.679301 
L 156.159258 225.155053 
L 156.512635 225.155053 
L 156.512635 224.630806 
L 156.980885 224.630806 
L 156.980885 223.058063 
L 158.223412 223.058063 
L 158.223412 221.485319 
L 159.169411 221.485319 
L 159.212168 219.912576 
L 159.360989 219.912576 
L 159.445454 218.864081 
L 160.126894 218.864081 
L 160.126894 218.339833 
L 160.328169 218.339833 
L 160.427929 216.76709 
L 161.394923 216.76709 
L 161.394923 214.145851 
L 161.748573 214.145851 
L 161.748573 213.621604 
L 161.895329 213.621604 
L 161.895329 212.573108 
L 162.381577 212.573108 
L 162.452458 211.000365 
L 162.523048 211.000365 
L 162.523048 209.95187 
L 163.431985 209.95187 
L 163.448681 207.854879 
L 163.925945 207.854879 
L 163.925945 207.330631 
L 164.919238 207.330631 
L 164.919238 204.709392 
L 165.056564 204.709392 
L 165.056564 203.136649 
L 165.491743 203.136649 
L 165.491743 199.991163 
L 166.145934 199.991163 
L 166.145934 197.369924 
L 167.489909 197.369924 
L 167.529438 195.797181 
L 167.673606 195.797181 
L 167.751736 192.651695 
L 167.803626 192.651695 
L 167.803626 190.030456 
L 168.009635 190.030456 
L 168.009635 189.506209 
L 169.327275 189.506209 
L 169.398253 186.88497 
L 169.504175 186.88497 
L 169.504175 186.360722 
L 169.621105 186.360722 
L 169.621105 184.263731 
L 170.137663 184.263731 
L 170.227893 181.642493 
L 170.384663 181.642493 
L 170.384663 181.118245 
L 170.911559 181.118245 
L 170.911559 180.593997 
L 171.222238 180.593997 
L 171.222238 179.021254 
L 171.433273 179.021254 
L 171.433273 177.972759 
L 171.589867 177.972759 
L 171.610638 175.875768 
L 172.222398 175.875768 
L 172.312313 174.303025 
L 172.608676 174.303025 
L 172.68685 170.633291 
L 173.005615 170.633291 
L 173.005615 170.109043 
L 173.158065 170.109043 
L 173.224339 168.012052 
L 173.763853 168.012052 
L 173.782158 163.81807 
L 174.349016 163.81807 
L 174.349016 157.527098 
L 174.533889 157.527098 
L 174.612516 153.857364 
L 174.785965 153.857364 
L 174.785965 153.333116 
L 175.068383 153.333116 
L 175.161501 148.614886 
L 175.220496 148.614886 
L 175.220496 147.566391 
L 175.437865 147.566391 
L 175.495921 137.605684 
L 175.709856 137.605684 
L 175.709856 136.557189 
L 176.025847 136.557189 
L 176.025847 134.460198 
L 176.153822 134.460198 
L 176.153822 133.93595 
L 176.539923 133.93595 
L 176.539923 132.887455 
L 176.695056 132.887455 
L 176.725915 130.790464 
L 176.848802 130.790464 
L 176.917541 126.596482 
L 177.114591 126.596482 
L 177.114591 125.547987 
L 177.316856 125.547987 
L 177.398583 121.878253 
L 177.575559 121.878253 
L 177.575559 120.829757 
L 177.808728 120.829757 
L 177.808728 117.684271 
L 178.166837 117.684271 
L 178.195166 115.063032 
L 178.820529 115.063032 
L 178.820529 114.014537 
L 178.942917 114.014537 
L 178.942917 112.966042 
L 179.118175 112.966042 
L 179.191788 110.869051 
L 179.397563 110.869051 
L 179.397563 109.820555 
L 179.535572 109.820555 
L 179.535572 108.247812 
L 180.045046 108.247812 
L 180.045046 106.675069 
L 180.558364 106.675069 
L 180.558364 106.150821 
L 180.675148 106.150821 
L 180.754597 99.335601 
L 180.791143 99.335601 
L 180.85188 97.23861 
L 180.942586 97.23861 
L 180.942586 95.665867 
L 181.564465 95.665867 
L 181.67463 90.947637 
L 181.772604 90.947637 
L 181.789836 87.277903 
L 181.966892 87.277903 
L 181.966892 86.753656 
L 182.080162 86.753656 
L 182.170244 83.608169 
L 182.254268 83.608169 
L 182.254268 82.559674 
L 182.547909 82.559674 
L 182.547909 81.511178 
L 182.722803 81.511178 
L 182.722803 80.462683 
L 182.858211 80.462683 
L 182.858211 79.938435 
L 183.16831 79.938435 
L 183.16831 79.414188 
L 183.399881 79.414188 
L 183.399881 78.365692 
L 183.623214 78.365692 
L 183.70558 74.695958 
L 183.833491 74.695958 
L 183.935139 73.123215 
L 184.005937 73.123215 
L 184.081469 67.880738 
L 184.151668 67.880738 
L 184.231545 65.783747 
L 184.340774 65.783747 
L 184.340774 65.259499 
L 184.488613 65.259499 
L 184.488613 63.686756 
L 184.843131 63.686756 
L 184.843131 63.162508 
L 184.972423 63.162508 
L 185.077058 61.065517 
L 185.096015 61.065517 
L 185.105485 58.968526 
L 185.298485 58.968526 
L 185.298485 58.444279 
L 185.668944 58.444279 
L 185.755767 55.82304 
L 186.00016 55.82304 
L 186.07191 53.201802 
L 186.178977 53.201802 
L 186.178977 52.677554 
L 186.500598 52.677554 
L 186.500598 51.629058 
L 186.760512 51.629058 
L 186.760512 50.580563 
L 186.901807 50.580563 
L 186.96565 47.435077 
L 187.117912 47.435077 
L 187.180959 45.862334 
L 187.352116 45.862334 
L 187.377021 44.28959 
L 187.640454 44.28959 
L 187.717889 42.716847 
L 188.301559 42.716847 
L 188.301559 42.192599 
L 188.438584 42.192599 
L 188.438584 40.619856 
L 189.301713 40.619856 
L 189.305421 39.047113 
L 189.654087 39.047113 
L 189.654087 38.522865 
L 190.539199 38.522865 
L 190.539199 37.47437 
L 190.880865 37.47437 
L 190.880865 36.425875 
L 191.215871 36.425875 
L 191.215871 35.901627 
L 191.544473 35.901627 
L 191.544473 35.377379 
L 191.825334 35.377379 
L 191.825334 32.756141 
L 193.565747 32.756141 
L 193.565747 31.707645 
L 195.72734 31.707645 
L 195.72734 30.65915 
L 196.32171 30.65915 
L 196.32171 29.086407 
L 197.215077 29.086407 
L 197.215077 28.037911 
L 197.447516 28.037911 
L 197.447516 27.513663 
L 333.168 27.513663 
L 333.168 27.513663 
" style="fill:none;stroke:#00bfbf;stroke-linecap:square;stroke-width:1.5;"/>
   </g>
   <g id="line2d_39">
    <defs>
     <path d="M -6 0 
L 6 0 
M 0 6 
L 0 -6 
" id="md6d15d8c6b" style="stroke:#00bfbf;stroke-width:1.5;"/>
    </defs>
    <g>
     <use style="fill-opacity:0;stroke:#00bfbf;stroke-width:1.5;" x="165.491743" xlink:href="#md6d15d8c6b" y="199.991163"/>
     <use style="fill-opacity:0;stroke:#00bfbf;stroke-width:1.5;" x="180.045046" xlink:href="#md6d15d8c6b" y="108.247812"/>
     <use style="fill-opacity:0;stroke:#00bfbf;stroke-width:1.5;" x="197.447516" xlink:href="#md6d15d8c6b" y="27.513663"/>
     <use style="fill-opacity:0;stroke:#00bfbf;stroke-width:1.5;" x="197.447516" xlink:href="#md6d15d8c6b" y="27.513663"/>
     <use style="fill-opacity:0;stroke:#00bfbf;stroke-width:1.5;" x="333.168" xlink:href="#md6d15d8c6b" y="27.513663"/>
    </g>
   </g>
   <g id="line2d_40">
    <path style="fill:none;stroke:#00bfbf;stroke-linecap:square;stroke-width:1.5;"/>
    <g/>
   </g>
   <g id="line2d_41">
    <defs>
     <path d="M 0 1.5 
C 0.397805 1.5 0.77937 1.341951 1.06066 1.06066 
C 1.341951 0.77937 1.5 0.397805 1.5 0 
C 1.5 -0.397805 1.341951 -0.77937 1.06066 -1.06066 
C 0.77937 -1.341951 0.397805 -1.5 0 -1.5 
C -0.397805 -1.5 -0.77937 -1.341951 -1.06066 -1.06066 
C -1.341951 -0.77937 -1.5 -0.397805 -1.5 0 
C -1.5 0.397805 -1.341951 0.77937 -1.06066 1.06066 
C -0.77937 1.341951 -0.397805 1.5 0 1.5 
z
" id="m420c8bfd0b" style="stroke:#008000;"/>
    </defs>
    <g>
     <use style="fill:#008000;stroke:#008000;" x="229.903122" xlink:href="#m420c8bfd0b" y="27.513663"/>
     <use style="fill:#008000;stroke:#008000;" x="229.903122" xlink:href="#m420c8bfd0b" y="27.513663"/>
    </g>
   </g>
   <g id="line2d_42">
    <path d="M 56.12 294.88 
L 56.12 292.783009 
L 61.064861 292.783009 
L 61.064861 290.161771 
L 70.68389 290.161771 
L 70.68389 286.492036 
L 85.935418 286.492036 
L 85.935418 285.443541 
L 86.917893 285.443541 
L 86.917893 282.822302 
L 88.728896 282.822302 
L 88.728896 281.249559 
L 89.567532 281.249559 
L 89.567532 279.152568 
L 93.887283 279.152568 
L 93.887283 278.628321 
L 98.832144 278.628321 
L 98.832144 276.007082 
L 103.777005 276.007082 
L 103.777005 274.958587 
L 106.426644 274.958587 
L 106.426644 269.716109 
L 107.029816 269.716109 
L 107.029816 269.191862 
L 107.323646 269.191862 
L 107.323646 266.570623 
L 107.896653 266.570623 
L 107.896653 266.046375 
L 109.76392 266.046375 
L 109.76392 264.99788 
L 111.675736 264.99788 
L 111.675736 264.473632 
L 115.329377 264.473632 
L 115.329377 263.949385 
L 117.231566 263.949385 
L 117.231566 261.852394 
L 118.340895 261.852394 
L 118.340895 261.328146 
L 119.95122 261.328146 
L 119.95122 260.279651 
L 120.365424 260.279651 
L 120.365424 259.231155 
L 122.540864 259.231155 
L 122.540864 258.706907 
L 123.589988 258.706907 
L 123.589988 255.037173 
L 124.363883 255.037173 
L 124.363883 252.415935 
L 126.207287 252.415935 
L 126.207287 251.891687 
L 129.70943 251.891687 
L 129.70943 250.843192 
L 132.948578 250.843192 
L 132.948578 249.794696 
L 133.529112 249.794696 
L 133.529112 249.270448 
L 135.784647 249.270448 
L 135.784647 248.746201 
L 135.950722 248.746201 
L 135.950722 248.221953 
L 136.652396 248.221953 
L 136.652396 247.697705 
L 137.018682 247.697705 
L 137.018682 246.64921 
L 137.728638 246.64921 
L 137.728638 246.124962 
L 137.975251 246.124962 
L 138.024152 245.076467 
L 143.918903 245.076467 
L 143.918903 244.027971 
L 145.155547 244.027971 
L 145.155547 242.979476 
L 146.157718 242.979476 
L 146.218456 241.93098 
L 146.755644 241.93098 
L 146.755644 240.882485 
L 147.446737 240.882485 
L 147.446737 240.358237 
L 148.165338 240.358237 
L 148.165338 239.83399 
L 148.984628 239.83399 
L 148.984628 239.309742 
L 149.493205 239.309742 
L 149.493205 238.785494 
L 149.889502 238.785494 
L 149.889502 237.212751 
L 152.643759 237.212751 
L 152.643759 236.688503 
L 152.892274 236.688503 
L 152.892274 235.640008 
L 153.197948 235.640008 
L 153.197948 234.591512 
L 153.812956 234.591512 
L 153.812956 233.018769 
L 154.198367 233.018769 
L 154.198367 232.494521 
L 154.962432 232.494521 
L 154.962432 231.446026 
L 156.005559 231.446026 
L 156.005559 230.921778 
L 156.907793 230.921778 
L 156.907793 229.349035 
L 157.609467 229.349035 
L 157.609467 228.824787 
L 158.961235 228.824787 
L 159.047683 224.630806 
L 159.219284 224.630806 
L 159.219284 223.58231 
L 160.106637 223.58231 
L 160.106637 223.058063 
L 160.361486 223.058063 
L 160.361486 222.533815 
L 160.546882 222.533815 
L 160.546882 222.009567 
L 161.053039 222.009567 
L 161.129603 218.339833 
L 161.65621 218.339833 
L 161.65621 217.291338 
L 161.791506 217.291338 
L 161.815992 216.242842 
L 162.756276 216.242842 
L 162.756276 215.194347 
L 162.929143 215.194347 
L 162.997806 212.573108 
L 163.100289 212.573108 
L 163.100289 212.04886 
L 163.24725 212.04886 
L 163.269748 208.903374 
L 163.392964 208.903374 
L 163.392964 207.330631 
L 163.504218 207.330631 
L 163.504218 206.806383 
L 163.768325 206.806383 
L 163.855467 205.757888 
L 164.006909 205.757888 
L 164.006909 205.23364 
L 164.14635 205.23364 
L 164.220967 203.136649 
L 164.263461 203.136649 
L 164.263461 202.612401 
L 165.04136 202.612401 
L 165.04136 202.088154 
L 165.222932 202.088154 
L 165.222932 201.039658 
L 165.36284 201.039658 
L 165.36284 199.991163 
L 165.688186 199.991163 
L 165.727207 197.894172 
L 167.058 197.894172 
L 167.058 197.369924 
L 167.467909 197.369924 
L 167.467909 196.321429 
L 167.902647 196.321429 
L 168.005368 193.70019 
L 168.309899 193.70019 
L 168.309899 191.603199 
L 168.426886 191.603199 
L 168.426886 189.506209 
L 170.039378 189.506209 
L 170.039378 188.457713 
L 170.280309 188.457713 
L 170.354912 184.787979 
L 170.458816 184.787979 
L 170.547379 181.642493 
L 170.584146 181.642493 
L 170.584146 181.118245 
L 170.997826 181.118245 
L 171.097926 180.06975 
L 171.803307 180.06975 
L 171.803307 179.545502 
L 172.101776 179.545502 
L 172.101776 176.924263 
L 172.368685 176.924263 
L 172.454546 174.827272 
L 172.748487 174.827272 
L 172.82603 172.730281 
L 172.92888 172.730281 
L 172.92888 171.157538 
L 173.214887 171.157538 
L 173.214887 170.633291 
L 173.465181 170.633291 
L 173.465181 168.5363 
L 173.619783 168.5363 
L 173.632092 166.963557 
L 173.821753 166.963557 
L 173.821753 165.915061 
L 174.057424 165.915061 
L 174.057424 164.866566 
L 174.301746 164.866566 
L 174.349016 163.293823 
L 174.5076 163.293823 
L 174.560138 160.148336 
L 174.906346 160.148336 
L 174.969068 158.575593 
L 176.209513 158.575593 
L 176.209513 158.051345 
L 176.378134 158.051345 
L 176.378134 155.954354 
L 176.802822 155.954354 
L 176.823273 154.905859 
L 176.925162 154.905859 
L 176.945467 153.857364 
L 177.331745 153.857364 
L 177.331745 153.333116 
L 177.714384 153.333116 
L 177.743468 151.760373 
L 177.825607 151.760373 
L 177.825607 151.236125 
L 177.95526 151.236125 
L 178.05543 148.614886 
L 178.083943 148.614886 
L 178.083943 147.042143 
L 178.206956 147.042143 
L 178.282221 141.275418 
L 178.450372 141.275418 
L 178.450372 140.226923 
L 178.566184 140.226923 
L 178.644492 137.605684 
L 178.958718 137.605684 
L 178.990278 136.557189 
L 179.218479 136.557189 
L 179.218479 134.984446 
L 179.333661 134.984446 
L 179.36454 132.887455 
L 179.452461 132.887455 
L 179.553018 129.741969 
L 179.587857 129.741969 
L 179.587857 129.217721 
L 179.730826 129.217721 
L 179.730826 127.644978 
L 179.966496 127.644978 
L 179.966496 126.596482 
L 180.490388 126.596482 
L 180.490388 126.072235 
L 181.042811 126.072235 
L 181.142456 124.499491 
L 181.367508 124.499491 
L 181.367508 122.926748 
L 196.278106 122.926748 
L 196.278106 121.878253 
L 196.87713 121.878253 
L 196.87713 121.354005 
L 197.089026 121.354005 
L 197.112584 120.30551 
L 197.431347 120.30551 
L 197.47904 119.257014 
L 197.63656 119.257014 
L 197.645691 118.208519 
L 197.869414 118.208519 
L 197.960784 116.111528 
L 198.078397 116.111528 
L 198.161284 112.441794 
L 198.211414 112.441794 
L 198.273138 111.393298 
L 198.414849 111.393298 
L 198.485994 109.296308 
L 198.674763 109.296308 
L 198.763387 106.675069 
L 198.987189 106.675069 
L 198.987189 105.626573 
L 199.18448 105.626573 
L 199.285741 101.956839 
L 199.296802 101.956839 
L 199.401527 99.859849 
L 199.653814 99.859849 
L 199.748317 97.23861 
L 199.767155 97.23861 
L 199.855687 96.190115 
L 199.883761 96.190115 
L 199.917123 92.520381 
L 200.113309 92.520381 
L 200.204014 90.42339 
L 200.29946 90.42339 
L 200.356734 89.374894 
L 200.553133 89.374894 
L 200.663268 87.277903 
L 200.738419 87.277903 
L 200.847377 83.608169 
L 200.868833 83.608169 
L 200.953138 81.511178 
L 201.230791 81.511178 
L 201.230791 80.462683 
L 201.386935 80.462683 
L 201.386935 78.88994 
L 201.655314 78.88994 
L 201.655314 77.841444 
L 202.186829 77.841444 
L 202.186829 77.317197 
L 208.223632 77.317197 
L 208.223632 76.268701 
L 208.620285 76.268701 
L 208.620285 75.744454 
L 208.779444 75.744454 
L 208.871545 74.695958 
L 208.899237 74.695958 
L 208.899237 73.647463 
L 209.186178 73.647463 
L 209.192397 72.598967 
L 209.346369 72.598967 
L 209.346369 72.074719 
L 209.464583 72.074719 
L 209.53939 67.880738 
L 209.714441 67.880738 
L 209.799428 65.259499 
L 209.842886 65.259499 
L 209.945848 63.686756 
L 209.965921 63.686756 
L 210.031181 61.589765 
L 210.221097 61.589765 
L 210.283938 60.017022 
L 210.366887 60.017022 
L 210.418347 56.347288 
L 210.479752 56.347288 
L 210.543812 54.774545 
L 210.600475 54.774545 
L 210.701146 51.629058 
L 210.857759 51.629058 
L 210.857759 51.104811 
L 215.099027 51.104811 
L 215.168886 49.532068 
L 215.351806 49.532068 
L 215.439029 48.483572 
L 215.580031 48.483572 
L 215.680499 47.435077 
L 215.761302 47.435077 
L 215.845949 46.386581 
L 215.877585 46.386581 
L 215.897591 44.813838 
L 215.997795 44.813838 
L 216.107816 43.765343 
L 216.179395 43.765343 
L 216.271797 41.668352 
L 216.305743 41.668352 
L 216.305743 41.144104 
L 216.489728 41.144104 
L 216.545555 39.571361 
L 216.844923 39.571361 
L 216.844923 39.047113 
L 219.902759 39.047113 
L 219.902759 37.998618 
L 220.113198 37.998618 
L 220.193707 36.950122 
L 220.346292 36.950122 
L 220.346292 36.425875 
L 220.489078 36.425875 
L 220.511621 34.853131 
L 220.921457 34.853131 
L 220.997885 33.804636 
L 221.035777 33.804636 
L 221.035777 33.280388 
L 224.038088 33.280388 
L 224.038088 32.756141 
L 224.234871 32.756141 
L 224.234871 32.231893 
L 224.522698 32.231893 
L 224.522698 31.707645 
L 224.678405 31.707645 
L 224.678405 31.183397 
L 226.951435 31.183397 
L 226.951435 30.65915 
L 227.245134 30.65915 
L 227.245134 30.134902 
L 227.552337 30.134902 
L 227.552337 29.610654 
L 229.493423 29.610654 
L 229.493423 29.086407 
L 229.628868 29.086407 
L 229.628868 28.562159 
L 229.789537 28.562159 
L 229.789537 28.037911 
L 229.903122 28.037911 
L 229.903122 27.513663 
L 333.168 27.513663 
L 333.168 27.513663 
" style="fill:none;stroke:#008000;stroke-linecap:square;stroke-width:1.5;"/>
   </g>
   <g id="line2d_43">
    <defs>
     <path d="M -0 6 
L 6 -6 
L -6 -6 
z
" id="m40ec1e3b9e" style="stroke:#008000;stroke-linejoin:miter;stroke-width:1.5;"/>
    </defs>
    <g>
     <use style="fill-opacity:0;stroke:#008000;stroke-linejoin:miter;stroke-width:1.5;" x="98.832144" xlink:href="#m40ec1e3b9e" y="276.007082"/>
     <use style="fill-opacity:0;stroke:#008000;stroke-linejoin:miter;stroke-width:1.5;" x="176.945467" xlink:href="#m40ec1e3b9e" y="154.381611"/>
     <use style="fill-opacity:0;stroke:#008000;stroke-linejoin:miter;stroke-width:1.5;" x="221.035777" xlink:href="#m40ec1e3b9e" y="33.280388"/>
     <use style="fill-opacity:0;stroke:#008000;stroke-linejoin:miter;stroke-width:1.5;" x="229.903122" xlink:href="#m40ec1e3b9e" y="27.513663"/>
     <use style="fill-opacity:0;stroke:#008000;stroke-linejoin:miter;stroke-width:1.5;" x="333.168" xlink:href="#m40ec1e3b9e" y="27.513663"/>
    </g>
   </g>
   <g id="line2d_44">
    <path style="fill:none;stroke:#008000;stroke-linecap:square;stroke-width:1.5;"/>
    <g/>
   </g>
   <g id="line2d_45">
    <path clip-path="url(#pda17421035)" d="M 195.722236 122.926748 
" style="fill:none;stroke:#008000;stroke-linecap:square;stroke-width:1.5;"/>
    <defs>
     <path d="M -12 12 
L 12 -12 
M -12 -12 
L 12 12 
" id="m7a54fae328" style="stroke:#008000;"/>
    </defs>
    <g clip-path="url(#pda17421035)">
     <use style="fill:#008000;stroke:#008000;" x="195.722236" xlink:href="#m7a54fae328" y="122.926748"/>
    </g>
   </g>
   <g id="line2d_46">
    <defs>
     <path d="M 0 1.5 
C 0.397805 1.5 0.77937 1.341951 1.06066 1.06066 
C 1.341951 0.77937 1.5 0.397805 1.5 0 
C 1.5 -0.397805 1.341951 -0.77937 1.06066 -1.06066 
C 0.77937 -1.341951 0.397805 -1.5 0 -1.5 
C -0.397805 -1.5 -0.77937 -1.341951 -1.06066 -1.06066 
C -1.341951 -0.77937 -1.5 -0.397805 -1.5 0 
C -1.5 0.397805 -1.341951 0.77937 -1.06066 1.06066 
C -0.77937 1.341951 -0.397805 1.5 0 1.5 
z
" id="mde4a05351a" style="stroke:#0000ff;"/>
    </defs>
    <g>
     <use style="fill:#0000ff;stroke:#0000ff;" x="261.663363" xlink:href="#mde4a05351a" y="27.513663"/>
     <use style="fill:#0000ff;stroke:#0000ff;" x="261.663363" xlink:href="#mde4a05351a" y="27.513663"/>
    </g>
   </g>
   <g id="line2d_47">
    <path d="M 75.003641 294.88 
L 75.003641 293.831505 
L 88.027221 293.831505 
L 88.027221 290.686018 
L 93.105847 290.686018 
L 93.105847 287.540532 
L 98.543252 287.540532 
L 98.543252 287.016284 
L 100.983527 287.016284 
L 100.983527 283.870798 
L 111.170827 283.870798 
L 111.170827 281.249559 
L 119.267005 281.249559 
L 119.267005 278.628321 
L 119.697821 278.628321 
L 119.782703 274.958587 
L 120.118102 274.958587 
L 120.118102 272.337348 
L 120.609239 272.337348 
L 120.609239 271.288853 
L 121.086731 271.288853 
L 121.086731 269.191862 
L 121.242993 269.191862 
L 121.242993 267.619119 
L 122.874172 267.619119 
L 122.874172 265.522128 
L 123.635161 265.522128 
L 123.635161 263.949385 
L 124.363883 263.949385 
L 124.363883 262.376641 
L 124.493121 262.376641 
L 124.493121 261.852394 
L 124.812029 261.852394 
L 124.812029 261.328146 
L 126.438787 261.328146 
L 126.438787 260.279651 
L 126.723846 260.279651 
L 126.780294 259.231155 
L 126.836558 259.231155 
L 126.836558 257.658412 
L 126.948537 257.658412 
L 126.948537 257.134164 
L 127.225332 257.134164 
L 127.334814 254.512926 
L 127.443604 254.512926 
L 127.443604 251.891687 
L 127.872003 251.891687 
L 127.872003 251.367439 
L 135.345189 251.367439 
L 135.345189 250.843192 
L 136.180564 250.843192 
L 136.180564 249.794696 
L 136.883542 249.794696 
L 136.883542 249.270448 
L 138.862788 249.270448 
L 138.862788 248.746201 
L 139.139583 248.746201 
L 139.139583 248.221953 
L 140.637478 248.221953 
L 140.637478 247.697705 
L 141.109109 247.697705 
L 141.109109 246.124962 
L 143.590024 246.124962 
L 143.590024 245.600714 
L 145.071495 245.600714 
L 145.071495 245.076467 
L 147.12193 245.076467 
L 147.12193 244.552219 
L 148.875888 244.552219 
L 148.875888 244.027971 
L 151.858442 244.027971 
L 151.858442 243.503724 
L 153.719157 243.503724 
L 153.719157 242.979476 
L 155.31246 242.979476 
L 155.31246 241.93098 
L 159.976419 241.93098 
L 159.976419 239.309742 
L 163.64118 239.309742 
L 163.64118 238.785494 
L 166.682377 238.785494 
L 166.682377 238.261246 
L 167.25348 238.261246 
L 167.25348 236.688503 
L 167.826926 236.688503 
L 167.826926 235.640008 
L 168.266243 235.640008 
L 168.266243 235.11576 
L 168.541427 235.11576 
L 168.541427 234.591512 
L 169.170082 234.591512 
L 169.170082 234.067265 
L 171.747106 234.067265 
L 171.747106 232.494521 
L 172.033045 232.494521 
L 172.033045 231.446026 
L 172.246421 231.446026 
L 172.246421 230.921778 
L 172.610634 230.921778 
L 172.610634 230.397531 
L 173.290358 230.397531 
L 173.290358 228.824787 
L 173.947846 228.824787 
L 173.947846 228.30054 
L 174.313576 228.30054 
L 174.313576 227.252044 
L 174.62994 227.252044 
L 174.678633 225.155053 
L 175.788179 225.155053 
L 175.788179 224.630806 
L 176.28876 224.630806 
L 176.28876 224.106558 
L 188.723211 224.106558 
L 188.723211 223.58231 
L 189.268304 223.58231 
L 189.326171 221.485319 
L 190.136287 221.485319 
L 190.194125 219.912576 
L 190.926136 219.912576 
L 190.926136 218.339833 
L 191.376356 218.339833 
L 191.376356 217.815585 
L 191.689028 217.815585 
L 191.689028 217.291338 
L 191.829176 217.291338 
L 191.938951 215.194347 
L 192.00879 215.194347 
L 192.00879 214.670099 
L 193.033243 214.670099 
L 193.142733 213.097356 
L 193.290387 213.097356 
L 193.35144 211.524613 
L 193.676508 211.524613 
L 193.779702 209.427622 
L 194.16852 209.427622 
L 194.16852 207.854879 
L 199.683301 207.854879 
L 199.683301 207.330631 
L 199.937642 207.330631 
L 199.937642 206.282136 
L 200.208734 206.282136 
L 200.208734 205.757888 
L 200.527419 205.757888 
L 200.559042 202.612401 
L 200.940079 202.612401 
L 201.030284 201.039658 
L 201.215964 201.039658 
L 201.215964 200.515411 
L 201.535608 200.515411 
L 201.535608 199.466915 
L 201.669045 199.466915 
L 201.669045 198.942667 
L 202.264692 198.942667 
L 202.357942 196.845677 
L 202.432042 196.845677 
L 202.432042 195.797181 
L 202.91244 195.797181 
L 202.951371 194.224438 
L 203.112862 194.224438 
L 203.112862 193.175943 
L 206.957558 193.175943 
L 206.979318 192.127447 
L 207.258677 192.127447 
L 207.305059 191.078952 
L 207.434163 191.078952 
L 207.503756 189.506209 
L 207.613499 189.506209 
L 207.685426 186.360722 
L 207.750968 186.360722 
L 207.766175 185.312227 
L 207.918511 185.312227 
L 207.981671 184.263731 
L 208.149964 184.263731 
L 208.211787 183.215236 
L 208.290107 183.215236 
L 208.374919 181.118245 
L 208.418876 181.118245 
L 208.425704 180.06975 
L 208.633137 180.06975 
L 208.661055 177.972759 
L 208.777056 177.972759 
L 208.777056 177.448511 
L 211.319624 177.448511 
L 211.319624 176.924263 
L 211.626313 176.924263 
L 211.6429 175.875768 
L 211.891794 175.875768 
L 211.891794 175.35152 
L 212.04416 175.35152 
L 212.128489 174.303025 
L 212.183827 174.303025 
L 212.246016 171.157538 
L 212.412309 171.157538 
L 212.507165 169.584795 
L 212.558999 169.584795 
L 212.610295 167.487804 
L 212.939661 167.487804 
L 213.030167 165.390813 
L 215.159771 165.390813 
L 215.159771 164.342318 
L 215.294028 164.342318 
L 215.294028 163.293823 
L 215.47002 163.293823 
L 215.508813 162.245327 
L 215.589033 162.245327 
L 215.666 160.672584 
L 215.745809 160.672584 
L 215.786846 159.624089 
L 216.077019 159.624089 
L 216.126622 158.575593 
L 216.362682 158.575593 
L 216.393381 157.527098 
L 218.326332 157.527098 
L 218.326332 157.00285 
L 218.599346 157.00285 
L 218.599346 156.478602 
L 218.729425 156.478602 
L 218.818087 153.857364 
L 218.884284 153.857364 
L 218.902848 152.808868 
L 219.016183 152.808868 
L 219.088967 151.236125 
L 219.175276 151.236125 
L 219.241934 149.663382 
L 220.786825 149.663382 
L 220.786825 149.139134 
L 221.01102 149.139134 
L 221.01102 148.090639 
L 221.178544 148.090639 
L 221.178544 147.566391 
L 221.434131 147.566391 
L 221.434131 147.042143 
L 221.549042 147.042143 
L 221.549042 146.517896 
L 221.662286 146.517896 
L 221.662286 145.993648 
L 223.117908 145.993648 
L 223.12641 144.420905 
L 223.405863 144.420905 
L 223.438263 142.848162 
L 223.564226 142.848162 
L 223.629179 139.702675 
L 223.685461 139.702675 
L 223.685461 139.178427 
L 223.803454 139.178427 
L 223.851619 137.605684 
L 225.200254 137.605684 
L 225.286949 134.984446 
L 225.493212 134.984446 
L 225.541917 133.411703 
L 227.099542 133.411703 
L 227.195849 130.790464 
L 227.279902 130.790464 
L 227.340036 129.741969 
L 227.420966 129.741969 
L 227.420966 129.217721 
L 228.480821 129.217721 
L 228.56125 127.644978 
L 228.632579 127.644978 
L 228.632579 127.12073 
L 228.754941 127.12073 
L 228.850454 125.023739 
L 228.876883 125.023739 
L 228.979246 122.4025 
L 229.949787 122.4025 
L 230.03599 121.354005 
L 230.138178 121.354005 
L 230.155953 120.30551 
L 230.252639 120.30551 
L 230.282332 117.684271 
L 230.386739 117.684271 
L 230.440738 115.063032 
L 231.459245 115.063032 
L 231.567549 111.917546 
L 231.583147 111.917546 
L 231.665717 109.820555 
L 231.726914 109.820555 
L 231.726914 109.296308 
L 232.557479 109.296308 
L 232.617258 108.247812 
L 232.677306 108.247812 
L 232.774084 104.578078 
L 232.811769 104.578078 
L 232.86232 101.432592 
L 232.951862 101.432592 
L 232.951862 100.908344 
L 233.721977 100.908344 
L 233.721977 100.384096 
L 233.877957 100.384096 
L 233.984984 97.23861 
L 233.994019 97.23861 
L 233.994019 96.714362 
L 234.121774 96.714362 
L 234.121774 96.190115 
L 234.979811 96.190115 
L 235.08869 94.093124 
L 235.096028 94.093124 
L 235.177665 91.471885 
L 235.846174 91.471885 
L 235.846174 90.947637 
L 235.999688 90.947637 
L 236.091883 87.277903 
L 236.867806 87.277903 
L 236.942578 84.656665 
L 237.002052 84.656665 
L 237.0837 82.035426 
L 237.124333 82.035426 
L 237.151858 80.462683 
L 237.740131 80.462683 
L 237.740131 79.938435 
L 237.933233 79.938435 
L 238.02767 76.792949 
L 238.609017 76.792949 
L 238.696806 75.220206 
L 238.814137 75.220206 
L 238.814137 74.17171 
L 239.439377 74.17171 
L 239.53142 71.550472 
L 239.551364 71.550472 
L 239.6612 69.977729 
L 239.669437 69.977729 
L 239.707878 68.929233 
L 240.319374 68.929233 
L 240.411992 66.307995 
L 240.487964 66.307995 
L 240.487964 65.783747 
L 241.241406 65.783747 
L 241.241406 65.259499 
L 241.787204 65.259499 
L 241.861599 63.686756 
L 241.901284 63.686756 
L 241.901284 63.162508 
L 242.412531 63.162508 
L 242.514699 61.589765 
L 242.566025 61.589765 
L 242.635931 57.920031 
L 243.113652 57.920031 
L 243.113652 57.395783 
L 243.264056 57.395783 
L 243.296147 56.347288 
L 243.756105 56.347288 
L 243.858123 54.774545 
L 244.434803 54.774545 
L 244.545051 52.153306 
L 244.559475 52.153306 
L 244.559475 51.104811 
L 244.944067 51.104811 
L 244.98015 50.056315 
L 245.057068 50.056315 
L 245.083845 49.00782 
L 245.606319 49.00782 
L 245.638858 47.435077 
L 246.254745 47.435077 
L 246.268559 46.386581 
L 246.652653 46.386581 
L 246.759765 44.813838 
L 247.194647 44.813838 
L 247.249605 43.765343 
L 247.320022 43.765343 
L 247.320022 43.241095 
L 248.18534 43.241095 
L 248.267502 41.668352 
L 248.315644 41.668352 
L 248.315644 41.144104 
L 248.74581 41.144104 
L 248.792633 39.571361 
L 249.160686 39.571361 
L 249.256741 38.522865 
L 249.615091 38.522865 
L 249.713062 37.47437 
L 250.069471 37.47437 
L 250.127442 36.425875 
L 250.582502 36.425875 
L 250.582502 35.901627 
L 250.901577 35.901627 
L 250.935159 34.853131 
L 251.406073 34.853131 
L 251.406073 34.328884 
L 251.782398 34.328884 
L 251.782398 33.804636 
L 252.193587 33.804636 
L 252.193587 33.280388 
L 253.55547 33.280388 
L 253.55547 32.756141 
L 253.985454 32.756141 
L 253.985454 32.231893 
L 254.371514 32.231893 
L 254.371514 31.707645 
L 254.643978 31.707645 
L 254.699787 30.65915 
L 255.337339 30.65915 
L 255.337339 29.610654 
L 258.517726 29.610654 
L 258.517726 29.086407 
L 258.812942 29.086407 
L 258.812942 28.562159 
L 260.566008 28.562159 
L 260.566008 28.037911 
L 261.663363 28.037911 
L 261.663363 27.513663 
L 333.168 27.513663 
L 333.168 27.513663 
" style="fill:none;stroke:#0000ff;stroke-linecap:square;stroke-width:1.5;"/>
   </g>
   <g id="line2d_48">
    <defs>
     <path d="M 0 -6 
L -1.347084 -1.854102 
L -5.706339 -1.854102 
L -2.179628 0.708204 
L -3.526712 4.854102 
L -0 2.291796 
L 3.526712 4.854102 
L 2.179628 0.708204 
L 5.706339 -1.854102 
L 1.347084 -1.854102 
z
" id="md057cf0be4" style="stroke:#0000ff;stroke-linejoin:bevel;stroke-width:1.5;"/>
    </defs>
    <g>
     <use style="fill-opacity:0;stroke:#0000ff;stroke-linejoin:bevel;stroke-width:1.5;" x="123.635161" xlink:href="#md057cf0be4" y="265.522128"/>
     <use style="fill-opacity:0;stroke:#0000ff;stroke-linejoin:bevel;stroke-width:1.5;" x="213.030167" xlink:href="#md057cf0be4" y="165.390813"/>
     <use style="fill-opacity:0;stroke:#0000ff;stroke-linejoin:bevel;stroke-width:1.5;" x="245.083845" xlink:href="#md057cf0be4" y="49.532068"/>
     <use style="fill-opacity:0;stroke:#0000ff;stroke-linejoin:bevel;stroke-width:1.5;" x="261.663363" xlink:href="#md057cf0be4" y="27.513663"/>
     <use style="fill-opacity:0;stroke:#0000ff;stroke-linejoin:bevel;stroke-width:1.5;" x="333.168" xlink:href="#md057cf0be4" y="27.513663"/>
    </g>
   </g>
   <g id="line2d_49">
    <path style="fill:none;stroke:#0000ff;stroke-linecap:square;stroke-width:1.5;"/>
    <g/>
   </g>
   <g id="line2d_50">
    <path clip-path="url(#pda17421035)" d="M 186.941843 224.106558 
" style="fill:none;stroke:#0000ff;stroke-linecap:square;stroke-width:1.5;"/>
    <defs>
     <path d="M -12 12 
L 12 -12 
M -12 -12 
L 12 12 
" id="m4b303ec375" style="stroke:#0000ff;"/>
    </defs>
    <g clip-path="url(#pda17421035)">
     <use style="fill:#0000ff;stroke:#0000ff;" x="186.941843" xlink:href="#m4b303ec375" y="224.106558"/>
    </g>
   </g>
   <g id="line2d_51">
    <defs>
     <path d="M 0 1.5 
C 0.397805 1.5 0.77937 1.341951 1.06066 1.06066 
C 1.341951 0.77937 1.5 0.397805 1.5 0 
C 1.5 -0.397805 1.341951 -0.77937 1.06066 -1.06066 
C 0.77937 -1.341951 0.397805 -1.5 0 -1.5 
C -0.397805 -1.5 -0.77937 -1.341951 -1.06066 -1.06066 
C -1.341951 -0.77937 -1.5 -0.397805 -1.5 0 
C -1.5 0.397805 -1.341951 0.77937 -1.06066 1.06066 
C -0.77937 1.341951 -0.397805 1.5 0 1.5 
z
" id="m38b1bfc2cc" style="stroke:#000000;"/>
    </defs>
    <g>
     <use style="stroke:#000000;" x="222.889381" xlink:href="#m38b1bfc2cc" y="242.455228"/>
     <use style="stroke:#000000;" x="222.889381" xlink:href="#m38b1bfc2cc" y="242.455228"/>
    </g>
   </g>
   <g id="line2d_52">
    <path d="M 114.809594 294.88 
L 114.809594 293.831505 
L 114.866043 293.831505 
L 114.866043 293.307257 
L 116.580973 293.307257 
L 116.580973 292.783009 
L 117.715785 292.783009 
L 117.715785 290.161771 
L 118.046801 290.161771 
L 118.046801 289.637523 
L 119.824987 289.637523 
L 119.824987 289.113275 
L 120.076533 289.113275 
L 120.076533 286.492036 
L 120.609239 286.492036 
L 120.609239 285.443541 
L 120.849643 285.443541 
L 120.849643 284.395046 
L 120.968596 284.395046 
L 120.968596 283.870798 
L 121.008065 283.870798 
L 121.008065 278.628321 
L 121.281837 278.628321 
L 121.281837 277.055578 
L 121.778985 277.055578 
L 121.778985 274.434339 
L 122.55288 274.434339 
L 122.55288 272.861596 
L 123.293428 272.861596 
L 123.293428 270.764605 
L 123.430938 270.764605 
L 123.430938 269.191862 
L 123.533353 269.191862 
L 123.533353 268.143366 
L 123.836987 268.143366 
L 123.836987 266.570623 
L 123.937018 266.570623 
L 123.937018 266.046375 
L 124.168185 266.046375 
L 124.168185 263.949385 
L 124.460903 263.949385 
L 124.460903 262.900889 
L 124.589417 262.900889 
L 124.589417 261.328146 
L 125.674722 261.328146 
L 125.674722 260.803898 
L 126.178129 260.803898 
L 126.178129 260.279651 
L 126.695551 260.279651 
L 126.695551 259.231155 
L 126.723846 259.231155 
L 126.723846 257.134164 
L 127.225332 257.134164 
L 127.225332 256.085669 
L 127.845538 256.085669 
L 127.845538 255.037173 
L 128.315773 255.037173 
L 128.315773 253.988678 
L 130.239792 253.988678 
L 130.239792 252.940182 
L 131.505376 252.940182 
L 131.505376 251.891687 
L 135.767951 251.891687 
L 135.767951 250.843192 
L 136.391271 250.843192 
L 136.391271 249.794696 
L 139.653523 249.794696 
L 139.653523 249.270448 
L 140.434959 249.270448 
L 140.434959 248.746201 
L 140.936852 248.746201 
L 140.936852 247.697705 
L 148.829074 247.697705 
L 148.829074 245.076467 
L 177.251194 245.076467 
L 177.251194 244.552219 
L 177.385236 244.552219 
L 177.385236 244.027971 
L 188.089576 244.027971 
L 188.089576 243.503724 
L 203.338528 243.503724 
L 203.338528 242.979476 
L 222.889381 242.979476 
L 222.889381 242.455228 
L 333.168 242.455228 
" style="fill:none;stroke:#000000;stroke-linecap:square;stroke-width:1.5;"/>
   </g>
   <g id="line2d_53">
    <defs>
     <path d="M 0 6 
C 1.591219 6 3.117479 5.367802 4.242641 4.242641 
C 5.367802 3.117479 6 1.591219 6 0 
C 6 -1.591219 5.367802 -3.117479 4.242641 -4.242641 
C 3.117479 -5.367802 1.591219 -6 0 -6 
C -1.591219 -6 -3.117479 -5.367802 -4.242641 -4.242641 
C -5.367802 -3.117479 -6 -1.591219 -6 0 
C -6 1.591219 -5.367802 3.117479 -4.242641 4.242641 
C -3.117479 5.367802 -1.591219 6 0 6 
z
" id="m85441713fc" style="stroke:#000000;stroke-width:1.5;"/>
    </defs>
    <g>
     <use style="fill-opacity:0;stroke:#000000;stroke-width:1.5;" x="177.385236" xlink:href="#m85441713fc" y="244.552219"/>
     <use style="fill-opacity:0;stroke:#000000;stroke-width:1.5;" x="222.889381" xlink:href="#m85441713fc" y="242.979476"/>
     <use style="fill-opacity:0;stroke:#000000;stroke-width:1.5;" x="222.889381" xlink:href="#m85441713fc" y="242.455228"/>
     <use style="fill-opacity:0;stroke:#000000;stroke-width:1.5;" x="222.889381" xlink:href="#m85441713fc" y="242.455228"/>
     <use style="fill-opacity:0;stroke:#000000;stroke-width:1.5;" x="333.168" xlink:href="#m85441713fc" y="242.455228"/>
    </g>
   </g>
   <g id="line2d_54">
    <path style="fill:none;stroke:#000000;stroke-linecap:square;stroke-width:1.5;"/>
    <g/>
   </g>
   <g id="line2d_55">
    <path clip-path="url(#pda17421035)" d="M 175.027591 245.076467 
" style="fill:none;stroke:#000000;stroke-linecap:square;stroke-width:1.5;"/>
    <defs>
     <path d="M -12 12 
L 12 -12 
M -12 -12 
L 12 12 
" id="m9d2b1ba17f" style="stroke:#000000;"/>
    </defs>
    <g clip-path="url(#pda17421035)">
     <use style="stroke:#000000;" x="175.027591" xlink:href="#m9d2b1ba17f" y="245.076467"/>
    </g>
   </g>
   <g id="line2d_56">
    <defs>
     <path d="M 0 1.5 
C 0.397805 1.5 0.77937 1.341951 1.06066 1.06066 
C 1.341951 0.77937 1.5 0.397805 1.5 0 
C 1.5 -0.397805 1.341951 -0.77937 1.06066 -1.06066 
C 0.77937 -1.341951 0.397805 -1.5 0 -1.5 
C -0.397805 -1.5 -0.77937 -1.341951 -1.06066 -1.06066 
C -1.341951 -0.77937 -1.5 -0.397805 -1.5 0 
C -1.5 0.397805 -1.341951 0.77937 -1.06066 1.06066 
C -0.77937 1.341951 -0.397805 1.5 0 1.5 
z
" id="m1b6975f5e9" style="stroke:#ff0000;"/>
    </defs>
    <g>
     <use style="fill:#ff0000;stroke:#ff0000;" x="167.260166" xlink:href="#m1b6975f5e9" y="247.697705"/>
     <use style="fill:#ff0000;stroke:#ff0000;" x="167.260166" xlink:href="#m1b6975f5e9" y="247.697705"/>
    </g>
   </g>
   <g id="line2d_57">
    <path d="M 114.553255 294.88 
L 114.553255 293.831505 
L 114.639127 293.831505 
L 114.639127 293.307257 
L 115.50222 293.307257 
L 115.50222 292.258761 
L 116.758569 292.258761 
L 116.758569 290.161771 
L 116.884309 290.161771 
L 116.884309 289.113275 
L 117.10835 289.113275 
L 117.10835 288.589027 
L 117.571946 288.589027 
L 117.571946 285.443541 
L 117.644016 285.443541 
L 117.644016 284.395046 
L 118.802718 284.395046 
L 118.802718 283.870798 
L 118.958878 283.870798 
L 118.958878 280.725312 
L 119.397387 280.725312 
L 119.397387 280.201064 
L 119.719081 280.201064 
L 119.719081 279.676816 
L 119.782703 279.676816 
L 119.782703 279.152568 
L 119.803858 279.152568 
L 119.803858 276.007082 
L 120.118102 276.007082 
L 120.118102 274.958587 
L 120.406301 274.958587 
L 120.406301 272.861596 
L 120.447081 272.861596 
L 120.447081 271.8131 
L 121.106342 271.8131 
L 121.106342 271.288853 
L 121.797821 271.288853 
L 121.797821 270.240357 
L 121.985063 270.240357 
L 121.985063 269.716109 
L 122.022268 269.716109 
L 122.022268 268.667614 
L 123.465144 268.667614 
L 123.465144 267.619119 
L 123.550363 267.619119 
L 123.550363 266.570623 
L 123.567356 266.570623 
L 123.567356 265.522128 
L 123.736371 265.522128 
L 123.736371 263.949385 
L 124.266312 263.949385 
L 124.266312 262.900889 
L 125.109607 262.900889 
L 125.109607 260.803898 
L 125.217956 260.803898 
L 125.217956 259.755403 
L 125.233378 259.755403 
L 125.233378 259.231155 
L 125.310285 259.231155 
L 125.310285 258.706907 
L 125.356265 258.706907 
L 125.356265 258.18266 
L 125.386849 258.18266 
L 125.386849 257.658412 
L 125.447856 257.658412 
L 125.447856 257.134164 
L 125.734717 257.134164 
L 125.734717 256.609917 
L 126.864621 256.609917 
L 126.864621 256.085669 
L 127.239056 256.085669 
L 127.239056 255.561421 
L 127.28016 255.561421 
L 127.28016 255.037173 
L 128.328654 255.037173 
L 128.328654 254.512926 
L 128.495224 254.512926 
L 128.495224 253.988678 
L 130.411737 253.988678 
L 130.411737 253.46443 
L 132.320552 253.46443 
L 132.320552 252.415935 
L 138.6875 252.415935 
L 138.6875 251.891687 
L 138.862788 251.891687 
L 138.862788 251.367439 
L 140.787817 251.367439 
L 140.787817 250.843192 
L 156.319177 250.843192 
L 156.319177 249.794696 
L 165.734514 249.794696 
L 165.734514 248.746201 
L 167.260166 248.746201 
L 167.260166 247.697705 
L 333.168 247.697705 
" style="fill:none;stroke:#ff0000;stroke-linecap:square;stroke-width:1.5;"/>
   </g>
   <g id="line2d_58">
    <defs>
     <path d="M -6 6 
L 6 6 
L 6 -6 
L -6 -6 
z
" id="m03544e1edb" style="stroke:#ff0000;stroke-linejoin:miter;stroke-width:1.5;"/>
    </defs>
    <g>
     <use style="fill-opacity:0;stroke:#ff0000;stroke-linejoin:miter;stroke-width:1.5;" x="156.319177" xlink:href="#m03544e1edb" y="250.843192"/>
     <use style="fill-opacity:0;stroke:#ff0000;stroke-linejoin:miter;stroke-width:1.5;" x="167.260166" xlink:href="#m03544e1edb" y="248.746201"/>
     <use style="fill-opacity:0;stroke:#ff0000;stroke-linejoin:miter;stroke-width:1.5;" x="167.260166" xlink:href="#m03544e1edb" y="247.697705"/>
     <use style="fill-opacity:0;stroke:#ff0000;stroke-linejoin:miter;stroke-width:1.5;" x="167.260166" xlink:href="#m03544e1edb" y="247.697705"/>
     <use style="fill-opacity:0;stroke:#ff0000;stroke-linejoin:miter;stroke-width:1.5;" x="333.168" xlink:href="#m03544e1edb" y="247.697705"/>
    </g>
   </g>
   <g id="line2d_59">
    <path style="fill:none;stroke:#ff0000;stroke-linecap:square;stroke-width:1.5;"/>
    <g/>
   </g>
   <g id="line2d_60">
    <path clip-path="url(#pda17421035)" d="M 163.11334 249.794696 
" style="fill:none;stroke:#ff0000;stroke-linecap:square;stroke-width:1.5;"/>
    <defs>
     <path d="M -12 12 
L 12 -12 
M -12 -12 
L 12 12 
" id="mb7aa7f63f8" style="stroke:#ff0000;"/>
    </defs>
    <g clip-path="url(#pda17421035)">
     <use style="fill:#ff0000;stroke:#ff0000;" x="163.11334" xlink:href="#mb7aa7f63f8" y="249.794696"/>
    </g>
   </g>
   <g id="line2d_61">
    <defs>
     <path d="M 0 1.5 
C 0.397805 1.5 0.77937 1.341951 1.06066 1.06066 
C 1.341951 0.77937 1.5 0.397805 1.5 0 
C 1.5 -0.397805 1.341951 -0.77937 1.06066 -1.06066 
C 0.77937 -1.341951 0.397805 -1.5 0 -1.5 
C -0.397805 -1.5 -0.77937 -1.341951 -1.06066 -1.06066 
C -1.341951 -0.77937 -1.5 -0.397805 -1.5 0 
C -1.5 0.397805 -1.341951 0.77937 -1.06066 1.06066 
C -0.77937 1.341951 -0.397805 1.5 0 1.5 
z
" id="m539d3eed57" style="stroke:#bf00bf;"/>
    </defs>
    <g>
     <use style="fill:#bf00bf;stroke:#bf00bf;" x="175.74947" xlink:href="#m539d3eed57" y="252.940182"/>
     <use style="fill:#bf00bf;stroke:#bf00bf;" x="175.74947" xlink:href="#m539d3eed57" y="252.940182"/>
    </g>
   </g>
   <g id="line2d_62">
    <path d="M 114.7813 294.88 
L 114.7813 293.831505 
L 115.997372 293.831505 
L 115.997372 292.258761 
L 118.679018 292.258761 
L 118.679018 291.734514 
L 119.069559 291.734514 
L 119.069559 291.210266 
L 120.819776 291.210266 
L 120.819776 290.686018 
L 121.252712 290.686018 
L 121.252712 290.161771 
L 121.608517 290.161771 
L 121.608517 288.589027 
L 121.675011 288.589027 
L 121.675011 287.540532 
L 122.362648 287.540532 
L 122.362648 287.016284 
L 122.534853 287.016284 
L 122.534853 285.967789 
L 123.085078 285.967789 
L 123.085078 284.395046 
L 123.430938 284.395046 
L 123.430938 283.870798 
L 123.439496 283.870798 
L 123.439496 283.34655 
L 123.643618 283.34655 
L 123.643618 282.822302 
L 123.7027 282.822302 
L 123.7027 281.773807 
L 124.363883 281.773807 
L 124.363883 281.249559 
L 124.444771 281.249559 
L 124.444771 280.201064 
L 124.83571 280.201064 
L 124.83571 279.676816 
L 125.023995 279.676816 
L 125.023995 278.628321 
L 125.086301 278.628321 
L 125.086301 277.055578 
L 125.478279 277.055578 
L 125.478279 276.53133 
L 125.801963 276.53133 
L 125.801963 274.958587 
L 125.898633 274.958587 
L 125.898633 274.434339 
L 125.972626 274.434339 
L 125.972626 273.385844 
L 126.517651 273.385844 
L 126.517651 272.861596 
L 126.553378 272.861596 
L 126.553378 272.337348 
L 126.6743 272.337348 
L 126.6743 271.8131 
L 127.045923 271.8131 
L 127.045923 271.288853 
L 127.273317 271.288853 
L 127.273317 270.764605 
L 127.436824 270.764605 
L 127.436824 270.240357 
L 127.88522 270.240357 
L 127.88522 269.716109 
L 127.911623 269.716109 
L 127.911623 269.191862 
L 127.951152 269.191862 
L 127.951152 268.667614 
L 127.957732 268.667614 
L 127.957732 268.143366 
L 128.495224 268.143366 
L 128.495224 267.619119 
L 129.213212 267.619119 
L 129.213212 267.094871 
L 130.182093 267.094871 
L 130.182093 266.046375 
L 131.649259 266.046375 
L 131.649259 265.522128 
L 133.000983 265.522128 
L 133.000983 264.99788 
L 136.535647 264.99788 
L 136.535647 264.473632 
L 136.988887 264.473632 
L 136.988887 263.949385 
L 137.753459 263.949385 
L 137.753459 263.425137 
L 140.126634 263.425137 
L 140.126634 262.900889 
L 154.449964 262.900889 
L 154.449964 262.376641 
L 154.597217 262.376641 
L 154.597217 261.852394 
L 154.605594 261.852394 
L 154.605594 261.328146 
L 154.73214 261.328146 
L 154.73214 260.803898 
L 154.739066 260.803898 
L 154.739066 260.279651 
L 154.918173 260.279651 
L 154.918173 259.755403 
L 155.547933 259.755403 
L 155.547933 259.231155 
L 155.634918 259.231155 
L 155.634918 258.706907 
L 156.696525 258.706907 
L 156.696525 258.18266 
L 156.822125 258.18266 
L 156.822125 257.658412 
L 164.7669 257.658412 
L 164.7669 257.134164 
L 165.195818 257.134164 
L 165.195818 256.609917 
L 165.266525 256.609917 
L 165.266525 256.085669 
L 165.861878 256.085669 
L 165.861878 255.561421 
L 165.862603 255.561421 
L 165.862603 255.037173 
L 166.080193 255.037173 
L 166.080193 254.512926 
L 166.653317 254.512926 
L 166.653317 253.988678 
L 172.521779 253.988678 
L 172.521779 253.46443 
L 175.74947 253.46443 
L 175.74947 252.940182 
L 333.168 252.940182 
" style="fill:none;stroke:#bf00bf;stroke-linecap:square;stroke-width:1.5;"/>
   </g>
   <g id="line2d_63">
    <defs>
     <path d="M -0 8.485281 
L 8.485281 0 
L 0 -8.485281 
L -8.485281 -0 
z
" id="m71e94260e8" style="stroke:#bf00bf;stroke-linejoin:miter;stroke-width:1.5;"/>
    </defs>
    <g>
     <use style="fill-opacity:0;stroke:#bf00bf;stroke-linejoin:miter;stroke-width:1.5;" x="175.74947" xlink:href="#m71e94260e8" y="253.46443"/>
     <use style="fill-opacity:0;stroke:#bf00bf;stroke-linejoin:miter;stroke-width:1.5;" x="175.74947" xlink:href="#m71e94260e8" y="253.46443"/>
     <use style="fill-opacity:0;stroke:#bf00bf;stroke-linejoin:miter;stroke-width:1.5;" x="175.74947" xlink:href="#m71e94260e8" y="252.940182"/>
     <use style="fill-opacity:0;stroke:#bf00bf;stroke-linejoin:miter;stroke-width:1.5;" x="175.74947" xlink:href="#m71e94260e8" y="252.940182"/>
     <use style="fill-opacity:0;stroke:#bf00bf;stroke-linejoin:miter;stroke-width:1.5;" x="333.168" xlink:href="#m71e94260e8" y="252.940182"/>
    </g>
   </g>
   <g id="line2d_64">
    <path style="fill:none;stroke:#bf00bf;stroke-linecap:square;stroke-width:1.5;"/>
    <g/>
   </g>
   <g id="line2d_65">
    <path clip-path="url(#pda17421035)" d="M 151.199089 262.900889 
" style="fill:none;stroke:#bf00bf;stroke-linecap:square;stroke-width:1.5;"/>
    <defs>
     <path d="M -12 12 
L 12 -12 
M -12 -12 
L 12 12 
" id="m617e2847e4" style="stroke:#bf00bf;"/>
    </defs>
    <g clip-path="url(#pda17421035)">
     <use style="fill:#bf00bf;stroke:#bf00bf;" x="151.199089" xlink:href="#m617e2847e4" y="262.900889"/>
    </g>
   </g>
   <g id="line2d_66">
    <path d="M 333.168 252.940182 
L 363.64328 289.532673 
" style="fill:none;stroke:#bf00bf;stroke-linecap:square;stroke-width:1.5;"/>
    <g>
     <use style="fill-opacity:0;stroke:#bf00bf;stroke-linejoin:miter;stroke-width:1.5;" x="333.168" xlink:href="#m71e94260e8" y="252.940182"/>
     <use style="fill-opacity:0;stroke:#bf00bf;stroke-linejoin:miter;stroke-width:1.5;" x="363.64328" xlink:href="#m71e94260e8" y="289.532673"/>
    </g>
   </g>
   <g id="line2d_67">
    <path d="M 333.168 247.697705 
L 363.64328 238.198337 
" style="fill:none;stroke:#ff0000;stroke-linecap:square;stroke-width:1.5;"/>
    <g>
     <use style="fill-opacity:0;stroke:#ff0000;stroke-linejoin:miter;stroke-width:1.5;" x="333.168" xlink:href="#m03544e1edb" y="247.697705"/>
     <use style="fill-opacity:0;stroke:#ff0000;stroke-linejoin:miter;stroke-width:1.5;" x="363.64328" xlink:href="#m03544e1edb" y="238.198337"/>
    </g>
   </g>
   <g id="line2d_68">
    <path d="M 333.168 242.455228 
L 363.64328 186.864 
" style="fill:none;stroke:#000000;stroke-linecap:square;stroke-width:1.5;"/>
    <g>
     <use style="fill-opacity:0;stroke:#000000;stroke-width:1.5;" x="333.168" xlink:href="#m85441713fc" y="242.455228"/>
     <use style="fill-opacity:0;stroke:#000000;stroke-width:1.5;" x="363.64328" xlink:href="#m85441713fc" y="186.864"/>
    </g>
   </g>
   <g id="line2d_69">
    <path d="M 333.168 27.513663 
L 363.64328 135.529663 
" style="fill:none;stroke:#0000ff;stroke-linecap:square;stroke-width:1.5;"/>
    <g>
     <use style="fill-opacity:0;stroke:#0000ff;stroke-linejoin:bevel;stroke-width:1.5;" x="333.168" xlink:href="#md057cf0be4" y="27.513663"/>
     <use style="fill-opacity:0;stroke:#0000ff;stroke-linejoin:bevel;stroke-width:1.5;" x="363.64328" xlink:href="#md057cf0be4" y="135.529663"/>
    </g>
   </g>
   <g id="line2d_70">
    <path d="M 333.168 27.513663 
L 363.64328 84.195327 
" style="fill:none;stroke:#008000;stroke-linecap:square;stroke-width:1.5;"/>
    <g>
     <use style="fill-opacity:0;stroke:#008000;stroke-linejoin:miter;stroke-width:1.5;" x="333.168" xlink:href="#m40ec1e3b9e" y="27.513663"/>
     <use style="fill-opacity:0;stroke:#008000;stroke-linejoin:miter;stroke-width:1.5;" x="363.64328" xlink:href="#m40ec1e3b9e" y="84.195327"/>
    </g>
   </g>
   <g id="line2d_71">
    <path d="M 333.168 27.513663 
L 363.64328 32.86099 
" style="fill:none;stroke:#00bfbf;stroke-linecap:square;stroke-width:1.5;"/>
    <g>
     <use style="fill-opacity:0;stroke:#00bfbf;stroke-width:1.5;" x="333.168" xlink:href="#md6d15d8c6b" y="27.513663"/>
     <use style="fill-opacity:0;stroke:#00bfbf;stroke-width:1.5;" x="363.64328" xlink:href="#md6d15d8c6b" y="32.86099"/>
    </g>
   </g>
   <g id="line2d_72">
    <path d="M 333.168 294.88 
L 333.168 27.513663 
" style="fill:none;stroke:#000000;stroke-linecap:square;stroke-width:1.5;"/>
   </g>
   <g id="patch_3">
    <path d="M 56.12 294.88 
L 56.12 24.84 
" style="fill:none;stroke:#000000;stroke-linecap:square;stroke-linejoin:miter;stroke-width:0.8;"/>
   </g>
   <g id="patch_4">
    <path d="M 333.168 294.88 
L 333.168 24.84 
" style="fill:none;stroke:#000000;stroke-linecap:square;stroke-linejoin:miter;stroke-width:0.8;"/>
   </g>
   <g id="patch_5">
    <path d="M 56.12 294.88 
L 333.168 294.88 
" style="fill:none;stroke:#000000;stroke-linecap:square;stroke-linejoin:miter;stroke-width:0.8;"/>
   </g>
   <g id="patch_6">
    <path d="M 56.12 24.84 
L 333.168 24.84 
" style="fill:none;stroke:#000000;stroke-linecap:square;stroke-linejoin:miter;stroke-width:0.8;"/>
   </g>
   <g id="text_13">
    <!-- 40-D -->
    <defs>
     <path d="M 19.671875 64.796875 
L 19.671875 8.109375 
L 31.59375 8.109375 
Q 46.6875 8.109375 53.6875 14.9375 
Q 60.6875 21.78125 60.6875 36.53125 
Q 60.6875 51.171875 53.6875 57.984375 
Q 46.6875 64.796875 31.59375 64.796875 
z
M 9.8125 72.90625 
L 30.078125 72.90625 
Q 51.265625 72.90625 61.171875 64.09375 
Q 71.09375 55.28125 71.09375 36.53125 
Q 71.09375 17.671875 61.125 8.828125 
Q 51.171875 0 30.078125 0 
L 9.8125 0 
z
" id="DejaVuSans-44"/>
    </defs>
    <g transform="translate(369.18424 294.223611)scale(0.17 -0.17)">
     <use xlink:href="#DejaVuSans-34"/>
     <use x="63.623047" xlink:href="#DejaVuSans-30"/>
     <use x="127.246094" xlink:href="#DejaVuSans-2d"/>
     <use x="163.330078" xlink:href="#DejaVuSans-44"/>
    </g>
   </g>
   <g id="text_14">
    <!-- 20-D -->
    <g transform="translate(369.18424 242.889274)scale(0.17 -0.17)">
     <use xlink:href="#DejaVuSans-32"/>
     <use x="63.623047" xlink:href="#DejaVuSans-30"/>
     <use x="127.246094" xlink:href="#DejaVuSans-2d"/>
     <use x="163.330078" xlink:href="#DejaVuSans-44"/>
    </g>
   </g>
   <g id="text_15">
    <!-- 10-D -->
    <g transform="translate(369.18424 191.554937)scale(0.17 -0.17)">
     <use xlink:href="#DejaVuSans-31"/>
     <use x="63.623047" xlink:href="#DejaVuSans-30"/>
     <use x="127.246094" xlink:href="#DejaVuSans-2d"/>
     <use x="163.330078" xlink:href="#DejaVuSans-44"/>
    </g>
   </g>
   <g id="text_16">
    <!-- 5-D -->
    <defs>
     <path d="M 10.796875 72.90625 
L 49.515625 72.90625 
L 49.515625 64.59375 
L 19.828125 64.59375 
L 19.828125 46.734375 
Q 21.96875 47.46875 24.109375 47.828125 
Q 26.265625 48.1875 28.421875 48.1875 
Q 40.625 48.1875 47.75 41.5 
Q 54.890625 34.8125 54.890625 23.390625 
Q 54.890625 11.625 47.5625 5.09375 
Q 40.234375 -1.421875 26.90625 -1.421875 
Q 22.3125 -1.421875 17.546875 -0.640625 
Q 12.796875 0.140625 7.71875 1.703125 
L 7.71875 11.625 
Q 12.109375 9.234375 16.796875 8.0625 
Q 21.484375 6.890625 26.703125 6.890625 
Q 35.15625 6.890625 40.078125 11.328125 
Q 45.015625 15.765625 45.015625 23.390625 
Q 45.015625 31 40.078125 35.4375 
Q 35.15625 39.890625 26.703125 39.890625 
Q 22.75 39.890625 18.8125 39.015625 
Q 14.890625 38.140625 10.796875 36.28125 
z
" id="DejaVuSans-35"/>
    </defs>
    <g transform="translate(369.18424 140.220601)scale(0.17 -0.17)">
     <use xlink:href="#DejaVuSans-35"/>
     <use x="63.623047" xlink:href="#DejaVuSans-2d"/>
     <use x="99.707031" xlink:href="#DejaVuSans-44"/>
    </g>
   </g>
   <g id="text_17">
    <!-- 3-D -->
    <defs>
     <path d="M 40.578125 39.3125 
Q 47.65625 37.796875 51.625 33 
Q 55.609375 28.21875 55.609375 21.1875 
Q 55.609375 10.40625 48.1875 4.484375 
Q 40.765625 -1.421875 27.09375 -1.421875 
Q 22.515625 -1.421875 17.65625 -0.515625 
Q 12.796875 0.390625 7.625 2.203125 
L 7.625 11.71875 
Q 11.71875 9.328125 16.59375 8.109375 
Q 21.484375 6.890625 26.8125 6.890625 
Q 36.078125 6.890625 40.9375 10.546875 
Q 45.796875 14.203125 45.796875 21.1875 
Q 45.796875 27.640625 41.28125 31.265625 
Q 36.765625 34.90625 28.71875 34.90625 
L 20.21875 34.90625 
L 20.21875 43.015625 
L 29.109375 43.015625 
Q 36.375 43.015625 40.234375 45.921875 
Q 44.09375 48.828125 44.09375 54.296875 
Q 44.09375 59.90625 40.109375 62.90625 
Q 36.140625 65.921875 28.71875 65.921875 
Q 24.65625 65.921875 20.015625 65.03125 
Q 15.375 64.15625 9.8125 62.3125 
L 9.8125 71.09375 
Q 15.4375 72.65625 20.34375 73.4375 
Q 25.25 74.21875 29.59375 74.21875 
Q 40.828125 74.21875 47.359375 69.109375 
Q 53.90625 64.015625 53.90625 55.328125 
Q 53.90625 49.265625 50.4375 45.09375 
Q 46.96875 40.921875 40.578125 39.3125 
z
" id="DejaVuSans-33"/>
    </defs>
    <g transform="translate(369.18424 88.886264)scale(0.17 -0.17)">
     <use xlink:href="#DejaVuSans-33"/>
     <use x="63.623047" xlink:href="#DejaVuSans-2d"/>
     <use x="99.707031" xlink:href="#DejaVuSans-44"/>
    </g>
   </g>
   <g id="text_18">
    <!-- 2-D -->
    <g transform="translate(369.18424 37.551928)scale(0.17 -0.17)">
     <use xlink:href="#DejaVuSans-32"/>
     <use x="63.623047" xlink:href="#DejaVuSans-2d"/>
     <use x="99.707031" xlink:href="#DejaVuSans-44"/>
    </g>
   </g>
   <g id="text_19">
    <!-- bbob f20 -->
    <defs>
     <path d="M 48.6875 27.296875 
Q 48.6875 37.203125 44.609375 42.84375 
Q 40.53125 48.484375 33.40625 48.484375 
Q 26.265625 48.484375 22.1875 42.84375 
Q 18.109375 37.203125 18.109375 27.296875 
Q 18.109375 17.390625 22.1875 11.75 
Q 26.265625 6.109375 33.40625 6.109375 
Q 40.53125 6.109375 44.609375 11.75 
Q 48.6875 17.390625 48.6875 27.296875 
z
M 18.109375 46.390625 
Q 20.953125 51.265625 25.265625 53.625 
Q 29.59375 56 35.59375 56 
Q 45.5625 56 51.78125 48.09375 
Q 58.015625 40.1875 58.015625 27.296875 
Q 58.015625 14.40625 51.78125 6.484375 
Q 45.5625 -1.421875 35.59375 -1.421875 
Q 29.59375 -1.421875 25.265625 0.953125 
Q 20.953125 3.328125 18.109375 8.203125 
L 18.109375 0 
L 9.078125 0 
L 9.078125 75.984375 
L 18.109375 75.984375 
z
" id="DejaVuSans-62"/>
    </defs>
    <g transform="translate(58.89048 35.290806)scale(0.102 -0.102)">
     <use xlink:href="#DejaVuSans-62"/>
     <use x="63.476562" xlink:href="#DejaVuSans-62"/>
     <use x="126.953125" xlink:href="#DejaVuSans-6f"/>
     <use x="188.134766" xlink:href="#DejaVuSans-62"/>
     <use x="251.611328" xlink:href="#DejaVuSans-20"/>
     <use x="283.398438" xlink:href="#DejaVuSans-66"/>
     <use x="318.603516" xlink:href="#DejaVuSans-32"/>
     <use x="382.226562" xlink:href="#DejaVuSans-30"/>
    </g>
    <!-- 51 targets: 100..1e-08 -->
    <defs>
     <path d="M 11.71875 12.40625 
L 22.015625 12.40625 
L 22.015625 0 
L 11.71875 0 
z
M 11.71875 51.703125 
L 22.015625 51.703125 
L 22.015625 39.3125 
L 11.71875 39.3125 
z
" id="DejaVuSans-3a"/>
    </defs>
    <g transform="translate(58.89048 46.712575)scale(0.102 -0.102)">
     <use xlink:href="#DejaVuSans-35"/>
     <use x="63.623047" xlink:href="#DejaVuSans-31"/>
     <use x="127.246094" xlink:href="#DejaVuSans-20"/>
     <use x="159.033203" xlink:href="#DejaVuSans-74"/>
     <use x="198.242188" xlink:href="#DejaVuSans-61"/>
     <use x="259.521484" xlink:href="#DejaVuSans-72"/>
     <use x="300.619141" xlink:href="#DejaVuSans-67"/>
     <use x="364.095703" xlink:href="#DejaVuSans-65"/>
     <use x="425.619141" xlink:href="#DejaVuSans-74"/>
     <use x="464.828125" xlink:href="#DejaVuSans-73"/>
     <use x="516.927734" xlink:href="#DejaVuSans-3a"/>
     <use x="550.619141" xlink:href="#DejaVuSans-20"/>
     <use x="582.40625" xlink:href="#DejaVuSans-31"/>
     <use x="646.029297" xlink:href="#DejaVuSans-30"/>
     <use x="709.652344" xlink:href="#DejaVuSans-30"/>
     <use x="773.275391" xlink:href="#DejaVuSans-2e"/>
     <use x="805.0625" xlink:href="#DejaVuSans-2e"/>
     <use x="836.849609" xlink:href="#DejaVuSans-31"/>
     <use x="900.472656" xlink:href="#DejaVuSans-65"/>
     <use x="961.996094" xlink:href="#DejaVuSans-2d"/>
     <use x="998.080078" xlink:href="#DejaVuSans-30"/>
     <use x="1061.703125" xlink:href="#DejaVuSans-38"/>
    </g>
    <!-- 15 instances -->
    <g transform="translate(58.89048 58.134344)scale(0.102 -0.102)">
     <use xlink:href="#DejaVuSans-31"/>
     <use x="63.623047" xlink:href="#DejaVuSans-35"/>
     <use x="127.246094" xlink:href="#DejaVuSans-20"/>
     <use x="159.033203" xlink:href="#DejaVuSans-69"/>
     <use x="186.816406" xlink:href="#DejaVuSans-6e"/>
     <use x="250.195312" xlink:href="#DejaVuSans-73"/>
     <use x="302.294922" xlink:href="#DejaVuSans-74"/>
     <use x="341.503906" xlink:href="#DejaVuSans-61"/>
     <use x="402.783203" xlink:href="#DejaVuSans-6e"/>
     <use x="466.162109" xlink:href="#DejaVuSans-63"/>
     <use x="521.142578" xlink:href="#DejaVuSans-65"/>
     <use x="582.666016" xlink:href="#DejaVuSans-73"/>
    </g>
   </g>
   <g id="text_20">
    <!-- v0.0.0 -->
    <g style="fill:#808080;" transform="translate(178.96275 290.099912)scale(0.1 -0.1)">
     <use xlink:href="#DejaVuSans-76"/>
     <use x="59.179688" xlink:href="#DejaVuSans-30"/>
     <use x="122.802734" xlink:href="#DejaVuSans-2e"/>
     <use x="154.589844" xlink:href="#DejaVuSans-30"/>
     <use x="218.212891" xlink:href="#DejaVuSans-2e"/>
     <use x="250" xlink:href="#DejaVuSans-30"/>
    </g>
   </g>
   <g id="text_21">
    <!-- 20 Schwefel x*sin(x) -->
    <defs>
     <path d="M 53.515625 70.515625 
L 53.515625 60.890625 
Q 47.90625 63.578125 42.921875 64.890625 
Q 37.9375 66.21875 33.296875 66.21875 
Q 25.25 66.21875 20.875 63.09375 
Q 16.5 59.96875 16.5 54.203125 
Q 16.5 49.359375 19.40625 46.890625 
Q 22.3125 44.4375 30.421875 42.921875 
L 36.375 41.703125 
Q 47.40625 39.59375 52.65625 34.296875 
Q 57.90625 29 57.90625 20.125 
Q 57.90625 9.515625 50.796875 4.046875 
Q 43.703125 -1.421875 29.984375 -1.421875 
Q 24.8125 -1.421875 18.96875 -0.25 
Q 13.140625 0.921875 6.890625 3.21875 
L 6.890625 13.375 
Q 12.890625 10.015625 18.65625 8.296875 
Q 24.421875 6.59375 29.984375 6.59375 
Q 38.421875 6.59375 43.015625 9.90625 
Q 47.609375 13.234375 47.609375 19.390625 
Q 47.609375 24.75 44.3125 27.78125 
Q 41.015625 30.8125 33.5 32.328125 
L 27.484375 33.5 
Q 16.453125 35.6875 11.515625 40.375 
Q 6.59375 45.0625 6.59375 53.421875 
Q 6.59375 63.09375 13.40625 68.65625 
Q 20.21875 74.21875 32.171875 74.21875 
Q 37.3125 74.21875 42.625 73.28125 
Q 47.953125 72.359375 53.515625 70.515625 
z
" id="DejaVuSans-53"/>
     <path d="M 54.890625 33.015625 
L 54.890625 0 
L 45.90625 0 
L 45.90625 32.71875 
Q 45.90625 40.484375 42.875 44.328125 
Q 39.84375 48.1875 33.796875 48.1875 
Q 26.515625 48.1875 22.3125 43.546875 
Q 18.109375 38.921875 18.109375 30.90625 
L 18.109375 0 
L 9.078125 0 
L 9.078125 75.984375 
L 18.109375 75.984375 
L 18.109375 46.1875 
Q 21.34375 51.125 25.703125 53.5625 
Q 30.078125 56 35.796875 56 
Q 45.21875 56 50.046875 50.171875 
Q 54.890625 44.34375 54.890625 33.015625 
z
" id="DejaVuSans-68"/>
     <path d="M 4.203125 54.6875 
L 13.1875 54.6875 
L 24.421875 12.015625 
L 35.59375 54.6875 
L 46.1875 54.6875 
L 57.421875 12.015625 
L 68.609375 54.6875 
L 77.59375 54.6875 
L 63.28125 0 
L 52.6875 0 
L 40.921875 44.828125 
L 29.109375 0 
L 18.5 0 
z
" id="DejaVuSans-77"/>
     <path d="M 54.890625 54.6875 
L 35.109375 28.078125 
L 55.90625 0 
L 45.3125 0 
L 29.390625 21.484375 
L 13.484375 0 
L 2.875 0 
L 24.125 28.609375 
L 4.6875 54.6875 
L 15.28125 54.6875 
L 29.78125 35.203125 
L 44.28125 54.6875 
z
" id="DejaVuSans-78"/>
     <path d="M 47.015625 60.890625 
L 29.5 51.421875 
L 47.015625 41.890625 
L 44.1875 37.109375 
L 27.78125 47.015625 
L 27.78125 28.609375 
L 22.21875 28.609375 
L 22.21875 47.015625 
L 5.8125 37.109375 
L 2.984375 41.890625 
L 20.515625 51.421875 
L 2.984375 60.890625 
L 5.8125 65.71875 
L 22.21875 55.8125 
L 22.21875 74.21875 
L 27.78125 74.21875 
L 27.78125 55.8125 
L 44.1875 65.71875 
z
" id="DejaVuSans-2a"/>
    </defs>
    <g transform="translate(91.629937 18.84)scale(0.2 -0.2)">
     <use xlink:href="#DejaVuSans-32"/>
     <use x="63.623047" xlink:href="#DejaVuSans-30"/>
     <use x="127.246094" xlink:href="#DejaVuSans-20"/>
     <use x="159.033203" xlink:href="#DejaVuSans-53"/>
     <use x="222.509766" xlink:href="#DejaVuSans-63"/>
     <use x="277.490234" xlink:href="#DejaVuSans-68"/>
     <use x="340.869141" xlink:href="#DejaVuSans-77"/>
     <use x="422.65625" xlink:href="#DejaVuSans-65"/>
     <use x="484.179688" xlink:href="#DejaVuSans-66"/>
     <use x="519.384766" xlink:href="#DejaVuSans-65"/>
     <use x="580.908203" xlink:href="#DejaVuSans-6c"/>
     <use x="608.691406" xlink:href="#DejaVuSans-20"/>
     <use x="640.478516" xlink:href="#DejaVuSans-78"/>
     <use x="699.658203" xlink:href="#DejaVuSans-2a"/>
     <use x="749.658203" xlink:href="#DejaVuSans-73"/>
     <use x="801.757812" xlink:href="#DejaVuSans-69"/>
     <use x="829.541016" xlink:href="#DejaVuSans-6e"/>
     <use x="892.919922" xlink:href="#DejaVuSans-28"/>
     <use x="931.933594" xlink:href="#DejaVuSans-78"/>
     <use x="991.113281" xlink:href="#DejaVuSans-29"/>
    </g>
   </g>
  </g>
 </g>
 <defs>
  <clipPath id="pda17421035">
   <rect height="270.04" width="277.048" x="56.12" y="24.84"/>
  </clipPath>
 </defs>
</svg>
