<?xml version="1.0" encoding="utf-8" standalone="no"?>
<!DOCTYPE svg PUBLIC "-//W3C//DTD SVG 1.1//EN"
  "http://www.w3.org/Graphics/SVG/1.1/DTD/svg11.dtd">
<!-- Created with matplotlib (http://matplotlib.org/) -->
<svg height="345.6pt" version="1.1" viewBox="0 0 460.8 345.6" width="460.8pt" xmlns="http://www.w3.org/2000/svg" xmlns:xlink="http://www.w3.org/1999/xlink">
 <defs>
  <style type="text/css">
*{stroke-linecap:butt;stroke-linejoin:round;}
  </style>
 </defs>
 <g id="figure_1">
  <g id="patch_1">
   <path d="M 0 345.6 
L 460.8 345.6 
L 460.8 0 
L 0 0 
z
" style="fill:#ffffff;"/>
  </g>
  <g id="axes_1">
   <g id="patch_2">
    <path d="M 5.52 291.28 
L 450.672 291.28 
L 450.672 5.52 
L 5.52 5.52 
z
" style="fill:#ffffff;"/>
   </g>
   <g id="matplotlib.axis_1">
    <g id="xtick_1">
     <g id="line2d_1">
      <path clip-path="url(#p5652a0fda4)" d="M 5.410531 291.28 
L 5.410531 5.52 
" style="fill:none;stroke:#b0b0b0;stroke-linecap:square;stroke-width:0.8;"/>
     </g>
     <g id="line2d_2">
      <defs>
       <path d="M 0 0 
L 0 3.5 
" id="m15db5c807f" style="stroke:#000000;stroke-width:0.8;"/>
      </defs>
      <g>
       <use style="stroke:#000000;stroke-width:0.8;" x="5.410531" xlink:href="#m15db5c807f" y="291.28"/>
      </g>
     </g>
    </g>
    <g id="xtick_2">
     <g id="line2d_3">
      <path clip-path="url(#p5652a0fda4)" d="M 106.738664 291.28 
L 106.738664 5.52 
" style="fill:none;stroke:#b0b0b0;stroke-linecap:square;stroke-width:0.8;"/>
     </g>
     <g id="line2d_4">
      <g>
       <use style="stroke:#000000;stroke-width:0.8;" x="106.738664" xlink:href="#m15db5c807f" y="291.28"/>
      </g>
     </g>
     <g id="text_1">
      <!-- -4 -->
      <defs>
       <path d="M 4.890625 31.390625 
L 31.203125 31.390625 
L 31.203125 23.390625 
L 4.890625 23.390625 
z
" id="DejaVuSans-2d"/>
       <path d="M 37.796875 64.3125 
L 12.890625 25.390625 
L 37.796875 25.390625 
z
M 35.203125 72.90625 
L 47.609375 72.90625 
L 47.609375 25.390625 
L 58.015625 25.390625 
L 58.015625 17.1875 
L 47.609375 17.1875 
L 47.609375 0 
L 37.796875 0 
L 37.796875 17.1875 
L 4.890625 17.1875 
L 4.890625 26.703125 
z
" id="DejaVuSans-34"/>
      </defs>
      <g transform="translate(96.768351 313.476875)scale(0.2 -0.2)">
       <use xlink:href="#DejaVuSans-2d"/>
       <use x="36.083984" xlink:href="#DejaVuSans-34"/>
      </g>
     </g>
    </g>
    <g id="xtick_3">
     <g id="line2d_5">
      <path clip-path="url(#p5652a0fda4)" d="M 208.066797 291.28 
L 208.066797 5.52 
" style="fill:none;stroke:#b0b0b0;stroke-linecap:square;stroke-width:0.8;"/>
     </g>
     <g id="line2d_6">
      <g>
       <use style="stroke:#000000;stroke-width:0.8;" x="208.066797" xlink:href="#m15db5c807f" y="291.28"/>
      </g>
     </g>
     <g id="text_2">
      <!-- 0 -->
      <defs>
       <path d="M 31.78125 66.40625 
Q 24.171875 66.40625 20.328125 58.90625 
Q 16.5 51.421875 16.5 36.375 
Q 16.5 21.390625 20.328125 13.890625 
Q 24.171875 6.390625 31.78125 6.390625 
Q 39.453125 6.390625 43.28125 13.890625 
Q 47.125 21.390625 47.125 36.375 
Q 47.125 51.421875 43.28125 58.90625 
Q 39.453125 66.40625 31.78125 66.40625 
z
M 31.78125 74.21875 
Q 44.046875 74.21875 50.515625 64.515625 
Q 56.984375 54.828125 56.984375 36.375 
Q 56.984375 17.96875 50.515625 8.265625 
Q 44.046875 -1.421875 31.78125 -1.421875 
Q 19.53125 -1.421875 13.0625 8.265625 
Q 6.59375 17.96875 6.59375 36.375 
Q 6.59375 54.828125 13.0625 64.515625 
Q 19.53125 74.21875 31.78125 74.21875 
z
" id="DejaVuSans-30"/>
      </defs>
      <g transform="translate(201.704297 313.476875)scale(0.2 -0.2)">
       <use xlink:href="#DejaVuSans-30"/>
      </g>
     </g>
    </g>
    <g id="xtick_4">
     <g id="line2d_7">
      <path clip-path="url(#p5652a0fda4)" d="M 309.39493 291.28 
L 309.39493 5.52 
" style="fill:none;stroke:#b0b0b0;stroke-linecap:square;stroke-width:0.8;"/>
     </g>
     <g id="line2d_8">
      <g>
       <use style="stroke:#000000;stroke-width:0.8;" x="309.39493" xlink:href="#m15db5c807f" y="291.28"/>
      </g>
     </g>
     <g id="text_3">
      <!-- 4 -->
      <g transform="translate(303.03243 313.476875)scale(0.2 -0.2)">
       <use xlink:href="#DejaVuSans-34"/>
      </g>
     </g>
    </g>
    <g id="xtick_5">
     <g id="line2d_9">
      <path clip-path="url(#p5652a0fda4)" d="M 410.723063 291.28 
L 410.723063 5.52 
" style="fill:none;stroke:#b0b0b0;stroke-linecap:square;stroke-width:0.8;"/>
     </g>
     <g id="line2d_10">
      <g>
       <use style="stroke:#000000;stroke-width:0.8;" x="410.723063" xlink:href="#m15db5c807f" y="291.28"/>
      </g>
     </g>
     <g id="text_4">
      <!-- 8 -->
      <defs>
       <path d="M 31.78125 34.625 
Q 24.75 34.625 20.71875 30.859375 
Q 16.703125 27.09375 16.703125 20.515625 
Q 16.703125 13.921875 20.71875 10.15625 
Q 24.75 6.390625 31.78125 6.390625 
Q 38.8125 6.390625 42.859375 10.171875 
Q 46.921875 13.96875 46.921875 20.515625 
Q 46.921875 27.09375 42.890625 30.859375 
Q 38.875 34.625 31.78125 34.625 
z
M 21.921875 38.8125 
Q 15.578125 40.375 12.03125 44.71875 
Q 8.5 49.078125 8.5 55.328125 
Q 8.5 64.0625 14.71875 69.140625 
Q 20.953125 74.21875 31.78125 74.21875 
Q 42.671875 74.21875 48.875 69.140625 
Q 55.078125 64.0625 55.078125 55.328125 
Q 55.078125 49.078125 51.53125 44.71875 
Q 48 40.375 41.703125 38.8125 
Q 48.828125 37.15625 52.796875 32.3125 
Q 56.78125 27.484375 56.78125 20.515625 
Q 56.78125 9.90625 50.3125 4.234375 
Q 43.84375 -1.421875 31.78125 -1.421875 
Q 19.734375 -1.421875 13.25 4.234375 
Q 6.78125 9.90625 6.78125 20.515625 
Q 6.78125 27.484375 10.78125 32.3125 
Q 14.796875 37.15625 21.921875 38.8125 
z
M 18.3125 54.390625 
Q 18.3125 48.734375 21.84375 45.5625 
Q 25.390625 42.390625 31.78125 42.390625 
Q 38.140625 42.390625 41.71875 45.5625 
Q 45.3125 48.734375 45.3125 54.390625 
Q 45.3125 60.0625 41.71875 63.234375 
Q 38.140625 66.40625 31.78125 66.40625 
Q 25.390625 66.40625 21.84375 63.234375 
Q 18.3125 60.0625 18.3125 54.390625 
z
" id="DejaVuSans-38"/>
      </defs>
      <g transform="translate(404.360563 313.476875)scale(0.2 -0.2)">
       <use xlink:href="#DejaVuSans-38"/>
      </g>
     </g>
    </g>
    <g id="text_5">
     <!-- log10 of Df -->
     <defs>
      <path d="M 9.421875 75.984375 
L 18.40625 75.984375 
L 18.40625 0 
L 9.421875 0 
z
" id="DejaVuSans-6c"/>
      <path d="M 30.609375 48.390625 
Q 23.390625 48.390625 19.1875 42.75 
Q 14.984375 37.109375 14.984375 27.296875 
Q 14.984375 17.484375 19.15625 11.84375 
Q 23.34375 6.203125 30.609375 6.203125 
Q 37.796875 6.203125 41.984375 11.859375 
Q 46.1875 17.53125 46.1875 27.296875 
Q 46.1875 37.015625 41.984375 42.703125 
Q 37.796875 48.390625 30.609375 48.390625 
z
M 30.609375 56 
Q 42.328125 56 49.015625 48.375 
Q 55.71875 40.765625 55.71875 27.296875 
Q 55.71875 13.875 49.015625 6.21875 
Q 42.328125 -1.421875 30.609375 -1.421875 
Q 18.84375 -1.421875 12.171875 6.21875 
Q 5.515625 13.875 5.515625 27.296875 
Q 5.515625 40.765625 12.171875 48.375 
Q 18.84375 56 30.609375 56 
z
" id="DejaVuSans-6f"/>
      <path d="M 45.40625 27.984375 
Q 45.40625 37.75 41.375 43.109375 
Q 37.359375 48.484375 30.078125 48.484375 
Q 22.859375 48.484375 18.828125 43.109375 
Q 14.796875 37.75 14.796875 27.984375 
Q 14.796875 18.265625 18.828125 12.890625 
Q 22.859375 7.515625 30.078125 7.515625 
Q 37.359375 7.515625 41.375 12.890625 
Q 45.40625 18.265625 45.40625 27.984375 
z
M 54.390625 6.78125 
Q 54.390625 -7.171875 48.1875 -13.984375 
Q 42 -20.796875 29.203125 -20.796875 
Q 24.46875 -20.796875 20.265625 -20.09375 
Q 16.0625 -19.390625 12.109375 -17.921875 
L 12.109375 -9.1875 
Q 16.0625 -11.328125 19.921875 -12.34375 
Q 23.78125 -13.375 27.78125 -13.375 
Q 36.625 -13.375 41.015625 -8.765625 
Q 45.40625 -4.15625 45.40625 5.171875 
L 45.40625 9.625 
Q 42.625 4.78125 38.28125 2.390625 
Q 33.9375 0 27.875 0 
Q 17.828125 0 11.671875 7.65625 
Q 5.515625 15.328125 5.515625 27.984375 
Q 5.515625 40.671875 11.671875 48.328125 
Q 17.828125 56 27.875 56 
Q 33.9375 56 38.28125 53.609375 
Q 42.625 51.21875 45.40625 46.390625 
L 45.40625 54.6875 
L 54.390625 54.6875 
z
" id="DejaVuSans-67"/>
      <path d="M 12.40625 8.296875 
L 28.515625 8.296875 
L 28.515625 63.921875 
L 10.984375 60.40625 
L 10.984375 69.390625 
L 28.421875 72.90625 
L 38.28125 72.90625 
L 38.28125 8.296875 
L 54.390625 8.296875 
L 54.390625 0 
L 12.40625 0 
z
" id="DejaVuSans-31"/>
      <path id="DejaVuSans-20"/>
      <path d="M 37.109375 75.984375 
L 37.109375 68.5 
L 28.515625 68.5 
Q 23.6875 68.5 21.796875 66.546875 
Q 19.921875 64.59375 19.921875 59.515625 
L 19.921875 54.6875 
L 34.71875 54.6875 
L 34.71875 47.703125 
L 19.921875 47.703125 
L 19.921875 0 
L 10.890625 0 
L 10.890625 47.703125 
L 2.296875 47.703125 
L 2.296875 54.6875 
L 10.890625 54.6875 
L 10.890625 58.5 
Q 10.890625 67.625 15.140625 71.796875 
Q 19.390625 75.984375 28.609375 75.984375 
z
" id="DejaVuSans-66"/>
      <path d="M 19.671875 64.796875 
L 19.671875 8.109375 
L 31.59375 8.109375 
Q 46.6875 8.109375 53.6875 14.9375 
Q 60.6875 21.78125 60.6875 36.53125 
Q 60.6875 51.171875 53.6875 57.984375 
Q 46.6875 64.796875 31.59375 64.796875 
z
M 9.8125 72.90625 
L 30.078125 72.90625 
Q 51.265625 72.90625 61.171875 64.09375 
Q 71.09375 55.28125 71.09375 36.53125 
Q 71.09375 17.671875 61.125 8.828125 
Q 51.171875 0 30.078125 0 
L 9.8125 0 
z
" id="DejaVuSans-44"/>
     </defs>
     <g transform="translate(172.910063 336.833125)scale(0.2 -0.2)">
      <use xlink:href="#DejaVuSans-6c"/>
      <use x="27.783203" xlink:href="#DejaVuSans-6f"/>
      <use x="88.964844" xlink:href="#DejaVuSans-67"/>
      <use x="152.441406" xlink:href="#DejaVuSans-31"/>
      <use x="216.064453" xlink:href="#DejaVuSans-30"/>
      <use x="279.6875" xlink:href="#DejaVuSans-20"/>
      <use x="311.474609" xlink:href="#DejaVuSans-6f"/>
      <use x="372.65625" xlink:href="#DejaVuSans-66"/>
      <use x="407.861328" xlink:href="#DejaVuSans-20"/>
      <use x="439.648438" xlink:href="#DejaVuSans-44"/>
      <use x="516.650391" xlink:href="#DejaVuSans-66"/>
     </g>
    </g>
   </g>
   <g id="matplotlib.axis_2">
    <g id="ytick_1">
     <g id="line2d_11">
      <path clip-path="url(#p5652a0fda4)" d="M 5.52 291.28 
L 450.672 291.28 
" style="fill:none;stroke:#b0b0b0;stroke-linecap:square;stroke-width:0.8;"/>
     </g>
     <g id="line2d_12">
      <defs>
       <path d="M 0 0 
L -3.5 0 
" id="m1f9fe7c11b" style="stroke:#000000;stroke-width:0.8;"/>
      </defs>
      <g>
       <use style="stroke:#000000;stroke-width:0.8;" x="5.52" xlink:href="#m1f9fe7c11b" y="291.28"/>
      </g>
     </g>
    </g>
    <g id="ytick_2">
     <g id="line2d_13">
      <path clip-path="url(#p5652a0fda4)" d="M 5.52 234.693861 
L 450.672 234.693861 
" style="fill:none;stroke:#b0b0b0;stroke-linecap:square;stroke-width:0.8;"/>
     </g>
     <g id="line2d_14">
      <g>
       <use style="stroke:#000000;stroke-width:0.8;" x="5.52" xlink:href="#m1f9fe7c11b" y="234.693861"/>
      </g>
     </g>
    </g>
    <g id="ytick_3">
     <g id="line2d_15">
      <path clip-path="url(#p5652a0fda4)" d="M 5.52 178.107723 
L 450.672 178.107723 
" style="fill:none;stroke:#b0b0b0;stroke-linecap:square;stroke-width:0.8;"/>
     </g>
     <g id="line2d_16">
      <g>
       <use style="stroke:#000000;stroke-width:0.8;" x="5.52" xlink:href="#m1f9fe7c11b" y="178.107723"/>
      </g>
     </g>
    </g>
    <g id="ytick_4">
     <g id="line2d_17">
      <path clip-path="url(#p5652a0fda4)" d="M 5.52 121.521584 
L 450.672 121.521584 
" style="fill:none;stroke:#b0b0b0;stroke-linecap:square;stroke-width:0.8;"/>
     </g>
     <g id="line2d_18">
      <g>
       <use style="stroke:#000000;stroke-width:0.8;" x="5.52" xlink:href="#m1f9fe7c11b" y="121.521584"/>
      </g>
     </g>
    </g>
    <g id="ytick_5">
     <g id="line2d_19">
      <path clip-path="url(#p5652a0fda4)" d="M 5.52 64.935446 
L 450.672 64.935446 
" style="fill:none;stroke:#b0b0b0;stroke-linecap:square;stroke-width:0.8;"/>
     </g>
     <g id="line2d_20">
      <g>
       <use style="stroke:#000000;stroke-width:0.8;" x="5.52" xlink:href="#m1f9fe7c11b" y="64.935446"/>
      </g>
     </g>
    </g>
    <g id="ytick_6">
     <g id="line2d_21">
      <path clip-path="url(#p5652a0fda4)" d="M 5.52 8.349307 
L 450.672 8.349307 
" style="fill:none;stroke:#b0b0b0;stroke-linecap:square;stroke-width:0.8;"/>
     </g>
     <g id="line2d_22">
      <g>
       <use style="stroke:#000000;stroke-width:0.8;" x="5.52" xlink:href="#m1f9fe7c11b" y="8.349307"/>
      </g>
     </g>
    </g>
   </g>
   <g id="line2d_23">
    <path clip-path="url(#p5652a0fda4)" d="M -1 246.011089 
L 27.187166 246.011089 
L 27.187166 242.23868 
L 77.238979 242.23868 
L 77.238979 238.466271 
L 174.62185 238.466271 
L 174.62185 234.693861 
L 187.479178 234.693861 
L 187.479178 230.921452 
L 188.994938 230.921452 
L 188.994938 227.149043 
L 194.654048 227.149043 
L 194.654048 223.376634 
L 197.285705 223.376634 
L 197.395048 212.059406 
L 198.887085 212.059406 
L 198.887085 208.286997 
L 199.257836 208.286997 
L 199.257836 204.514587 
L 199.847877 204.514587 
L 199.904609 196.969769 
L 200.536284 196.969769 
L 200.536284 193.19736 
L 201.696908 193.19736 
L 201.696908 189.42495 
L 202.303209 189.42495 
L 202.303209 185.652541 
L 202.429399 185.652541 
L 202.429399 181.880132 
L 203.019459 181.880132 
L 203.019459 178.107723 
L 203.679884 178.107723 
L 203.679884 174.335314 
L 204.014084 174.335314 
L 204.014084 163.018086 
L 204.309645 163.018086 
L 204.309645 159.245677 
L 206.004813 159.245677 
L 206.004813 151.700858 
L 207.005422 151.700858 
L 207.086531 140.38363 
L 207.268375 140.38363 
L 207.268375 136.611221 
L 207.474343 136.611221 
L 207.474343 132.838812 
L 208.769601 132.838812 
L 208.769601 129.066403 
L 209.555589 129.066403 
L 209.556221 121.521584 
L 209.991309 121.521584 
L 209.991309 117.749175 
L 210.479888 117.749175 
L 210.479888 113.976766 
L 212.530699 113.976766 
L 212.530699 110.204356 
L 212.822115 110.204356 
L 212.822115 106.431947 
L 212.980242 106.431947 
L 212.980242 102.659538 
L 213.292054 102.659538 
L 213.3656 95.114719 
L 214.551808 95.114719 
L 214.551808 91.34231 
L 215.344579 91.34231 
L 215.44213 80.025083 
L 216.326462 80.025083 
L 216.326462 76.252673 
L 219.454335 76.252673 
L 219.454335 72.480264 
L 220.758972 72.480264 
L 220.758972 68.707855 
L 225.910312 68.707855 
L 225.910312 64.935446 
L 227.854848 64.935446 
L 227.951538 57.390627 
L 228.191823 57.390627 
L 228.191823 53.618218 
L 229.437297 53.618218 
L 229.437297 49.845809 
L 230.947735 49.845809 
L 230.947735 46.073399 
L 231.414436 46.073399 
L 231.414436 42.30099 
L 232.070895 42.30099 
L 232.070895 38.528581 
L 232.551148 38.528581 
L 232.551148 34.756172 
L 232.932022 34.756172 
L 232.932022 30.983762 
L 233.461219 30.983762 
L 233.461219 27.211353 
L 233.658965 27.211353 
L 233.658965 23.438944 
L 234.20921 23.438944 
L 234.20921 19.666535 
L 234.391085 19.666535 
L 234.391085 15.894125 
L 234.739967 15.894125 
L 234.739967 12.121716 
L 237.128967 12.121716 
L 237.128967 8.349307 
L 237.128967 8.349307 
L 450.672 8.349307 
L 450.672 8.349307 
" style="fill:none;stroke:#ff0000;stroke-linecap:square;stroke-width:3;"/>
   </g>
   <g id="line2d_24">
    <path clip-path="url(#p5652a0fda4)" d="M 223.520908 291.28 
L 223.520908 287.507591 
L 226.538885 287.507591 
L 226.538885 283.735182 
L 228.92427 283.735182 
L 228.92427 279.962772 
L 229.816383 279.962772 
L 229.816383 276.190363 
L 230.901691 276.190363 
L 230.901691 272.417954 
L 232.313498 272.417954 
L 232.313498 268.645545 
L 234.658191 268.645545 
L 234.658191 264.873135 
L 234.942034 264.873135 
L 234.942034 261.100726 
L 235.106582 261.100726 
L 235.106582 257.328317 
L 235.648225 257.328317 
L 235.648225 253.555908 
L 236.240421 253.555908 
L 236.240421 249.783498 
L 236.884192 249.783498 
L 236.884192 246.011089 
L 237.056062 246.011089 
L 237.056062 242.23868 
L 237.864649 242.23868 
L 237.864649 238.466271 
L 238.287263 238.466271 
L 238.287263 234.693861 
L 238.636084 234.693861 
L 238.636084 230.921452 
L 240.236209 230.921452 
L 240.236209 227.149043 
L 240.484338 227.149043 
L 240.484338 223.376634 
L 241.128758 223.376634 
L 241.128758 219.604224 
L 242.338082 219.604224 
L 242.338082 215.831815 
L 246.899285 215.831815 
L 246.899285 212.059406 
L 247.03715 212.059406 
L 247.03715 208.286997 
L 247.249432 208.286997 
L 247.249432 204.514587 
L 248.289038 204.514587 
L 248.289038 200.742178 
L 249.377573 200.742178 
L 249.377573 196.969769 
L 249.776922 196.969769 
L 249.776922 193.19736 
L 250.040225 193.19736 
L 250.040225 189.42495 
L 250.179126 189.42495 
L 250.179126 185.652541 
L 250.373392 185.652541 
L 250.373392 181.880132 
L 250.816439 181.880132 
L 250.892023 170.562904 
L 252.307611 170.562904 
L 252.307611 166.790495 
L 252.517575 166.790495 
L 252.517575 163.018086 
L 252.861677 163.018086 
L 252.861677 159.245677 
L 253.029871 159.245677 
L 253.029871 155.473267 
L 253.378133 155.473267 
L 253.378133 151.700858 
L 253.569451 151.700858 
L 253.569451 147.928449 
L 254.190303 147.928449 
L 254.190303 144.15604 
L 254.565854 144.15604 
L 254.625415 129.066403 
L 254.706844 129.066403 
L 254.713321 121.521584 
L 254.908901 121.521584 
L 254.908901 117.749175 
L 255.268453 117.749175 
L 255.37693 110.204356 
L 255.539488 110.204356 
L 255.547595 102.659538 
L 255.711977 102.659538 
L 255.711977 98.887129 
L 256.027993 98.887129 
L 256.027993 95.114719 
L 256.214394 95.114719 
L 256.313346 83.797492 
L 257.84002 83.797492 
L 257.84002 80.025083 
L 258.171559 80.025083 
L 258.241011 72.480264 
L 258.316283 72.480264 
L 258.316283 68.707855 
L 259.142106 68.707855 
L 259.142106 64.935446 
L 299.584708 64.935446 
L 299.584708 61.163036 
L 304.81136 61.163036 
L 304.81136 8.349307 
L 304.81136 8.349307 
L 450.672 8.349307 
L 450.672 8.349307 
" style="fill:none;stroke:#00bfbf;stroke-linecap:square;stroke-width:1.5;"/>
   </g>
   <g id="line2d_25">
    <path clip-path="url(#p5652a0fda4)" d="M 223.520908 291.28 
L 223.520908 287.507591 
L 226.538885 287.507591 
L 226.538885 283.735182 
L 228.92427 283.735182 
L 228.92427 279.962772 
L 229.509873 279.962772 
L 229.509873 276.190363 
L 229.816383 276.190363 
L 229.816383 272.417954 
L 230.901691 272.417954 
L 230.901691 268.645545 
L 231.476009 268.645545 
L 231.476009 264.873135 
L 231.873572 264.873135 
L 231.873572 261.100726 
L 232.247884 261.100726 
L 232.247884 257.328317 
L 232.850225 257.328317 
L 232.850225 253.555908 
L 233.04115 253.555908 
L 233.04115 249.783498 
L 234.942034 249.783498 
L 234.942034 246.011089 
L 235.546937 246.011089 
L 235.648225 234.693861 
L 236.099346 234.693861 
L 236.099346 230.921452 
L 237.751025 230.921452 
L 237.751025 227.149043 
L 237.864649 227.149043 
L 237.864649 223.376634 
L 238.287263 223.376634 
L 238.287263 219.604224 
L 238.636084 219.604224 
L 238.636084 215.831815 
L 240.236209 215.831815 
L 240.236209 212.059406 
L 241.128758 212.059406 
L 241.128758 208.286997 
L 242.845079 208.286997 
L 242.845079 204.514587 
L 244.028534 204.514587 
L 244.090625 196.969769 
L 244.42073 196.969769 
L 244.42073 193.19736 
L 244.700797 193.19736 
L 244.700797 189.42495 
L 245.220882 189.42495 
L 245.220882 185.652541 
L 246.023105 185.652541 
L 246.023105 181.880132 
L 246.670945 181.880132 
L 246.670945 178.107723 
L 247.249432 178.107723 
L 247.249432 174.335314 
L 248.289038 174.335314 
L 248.289038 170.562904 
L 248.494544 170.562904 
L 248.494544 166.790495 
L 249.377573 166.790495 
L 249.377573 163.018086 
L 249.720313 163.018086 
L 249.720313 159.245677 
L 250.373392 159.245677 
L 250.373392 155.473267 
L 250.870052 155.473267 
L 250.870052 151.700858 
L 252.517575 151.700858 
L 252.517575 147.928449 
L 252.861677 147.928449 
L 252.861677 144.15604 
L 253.029871 144.15604 
L 253.029871 140.38363 
L 253.378133 140.38363 
L 253.378133 136.611221 
L 253.569451 136.611221 
L 253.569451 132.838812 
L 253.724624 132.838812 
L 253.792119 125.293993 
L 254.181747 125.293993 
L 254.275413 117.749175 
L 254.456609 117.749175 
L 254.565854 102.659538 
L 254.594477 102.659538 
L 254.682057 95.114719 
L 255.159838 95.114719 
L 255.268453 83.797492 
L 255.457285 83.797492 
L 255.457285 80.025083 
L 256.214394 80.025083 
L 256.214394 76.252673 
L 257.84002 76.252673 
L 257.84002 72.480264 
L 258.092645 72.480264 
L 258.171559 64.935446 
L 292.199494 64.935446 
L 292.199494 61.163036 
L 294.356896 61.163036 
L 294.356896 57.390627 
L 299.182554 57.390627 
L 299.182554 53.618218 
L 299.584708 53.618218 
L 299.584708 49.845809 
L 300.992707 49.845809 
L 300.992707 46.073399 
L 304.81136 46.073399 
L 304.81136 8.349307 
L 304.81136 8.349307 
L 450.672 8.349307 
L 450.672 8.349307 
" style="fill:none;stroke:#bf00bf;stroke-linecap:square;stroke-width:1.5;"/>
   </g>
   <g id="line2d_26">
    <path clip-path="url(#p5652a0fda4)" d="M 223.333428 291.28 
L 223.333428 287.507591 
L 223.520908 287.507591 
L 223.520908 283.735182 
L 225.918077 283.735182 
L 225.918077 279.962772 
L 226.538885 279.962772 
L 226.538885 276.190363 
L 227.011441 276.190363 
L 227.011441 272.417954 
L 227.414221 272.417954 
L 227.414221 268.645545 
L 228.92427 268.645545 
L 228.92427 264.873135 
L 229.345016 264.873135 
L 229.345016 261.100726 
L 229.509873 261.100726 
L 229.509873 257.328317 
L 229.816383 257.328317 
L 229.816383 253.555908 
L 230.901691 253.555908 
L 230.901691 249.783498 
L 231.476009 249.783498 
L 231.476009 246.011089 
L 231.873572 246.011089 
L 231.873572 242.23868 
L 232.247884 242.23868 
L 232.247884 238.466271 
L 232.420557 238.466271 
L 232.420557 234.693861 
L 232.688566 234.693861 
L 232.688566 230.921452 
L 233.478379 230.921452 
L 233.478379 227.149043 
L 234.262372 227.149043 
L 234.262372 223.376634 
L 234.61537 223.376634 
L 234.61537 219.604224 
L 237.864649 219.604224 
L 237.864649 215.831815 
L 238.135849 215.831815 
L 238.135849 212.059406 
L 238.287263 212.059406 
L 238.287263 208.286997 
L 238.636084 208.286997 
L 238.636084 204.514587 
L 238.937152 204.514587 
L 238.937152 200.742178 
L 240.236209 200.742178 
L 240.236209 196.969769 
L 240.593808 196.969769 
L 240.593808 193.19736 
L 241.266526 193.19736 
L 241.266526 189.42495 
L 242.580727 189.42495 
L 242.580727 185.652541 
L 244.028534 185.652541 
L 244.090625 178.107723 
L 244.42073 178.107723 
L 244.42073 174.335314 
L 244.700797 174.335314 
L 244.700797 170.562904 
L 245.163559 170.562904 
L 245.220882 163.018086 
L 245.797139 163.018086 
L 245.797139 159.245677 
L 246.023105 159.245677 
L 246.023105 155.473267 
L 246.670945 155.473267 
L 246.670945 151.700858 
L 247.565795 151.700858 
L 247.565795 147.928449 
L 248.114502 147.928449 
L 248.114502 144.15604 
L 248.289038 144.15604 
L 248.289038 140.38363 
L 249.228155 140.38363 
L 249.228155 136.611221 
L 250.373392 136.611221 
L 250.373392 132.838812 
L 252.517575 132.838812 
L 252.517575 129.066403 
L 252.861677 129.066403 
L 252.937984 117.749175 
L 253.029871 117.749175 
L 253.029871 113.976766 
L 254.181747 113.976766 
L 254.210838 102.659538 
L 254.456609 102.659538 
L 254.510472 95.114719 
L 254.594477 95.114719 
L 254.682057 87.569901 
L 255.0598 87.569901 
L 255.159838 80.025083 
L 255.457285 80.025083 
L 255.457285 76.252673 
L 256.214394 76.252673 
L 256.214394 72.480264 
L 257.047459 72.480264 
L 257.047459 68.707855 
L 257.84002 68.707855 
L 257.84002 64.935446 
L 272.418067 64.935446 
L 272.418067 61.163036 
L 277.087414 61.163036 
L 277.087414 57.390627 
L 282.723169 57.390627 
L 282.723169 53.618218 
L 292.199494 53.618218 
L 292.199494 49.845809 
L 294.356896 49.845809 
L 294.356896 46.073399 
L 294.645214 46.073399 
L 294.645214 42.30099 
L 299.584708 42.30099 
L 299.584708 38.528581 
L 300.992707 38.528581 
L 300.992707 34.756172 
L 302.419319 34.756172 
L 302.419319 30.983762 
L 302.684792 30.983762 
L 302.684792 27.211353 
L 304.81136 27.211353 
L 304.81136 8.349307 
L 304.81136 8.349307 
L 450.672 8.349307 
L 450.672 8.349307 
" style="fill:none;stroke:#000000;stroke-linecap:square;stroke-width:1.5;"/>
   </g>
   <g id="line2d_27">
    <path clip-path="url(#p5652a0fda4)" d="M 212.78421 291.28 
L 212.78421 287.507591 
L 214.521228 287.507591 
L 214.521228 283.735182 
L 221.598821 283.735182 
L 221.598821 279.962772 
L 222.454321 279.962772 
L 222.454321 276.190363 
L 222.894693 276.190363 
L 222.894693 272.417954 
L 224.108944 272.417954 
L 224.108944 268.645545 
L 224.509281 268.645545 
L 224.509281 264.873135 
L 224.997567 264.873135 
L 225.066852 257.328317 
L 225.205074 257.328317 
L 225.314183 249.783498 
L 225.967376 249.783498 
L 225.967376 246.011089 
L 226.538885 246.011089 
L 226.538885 242.23868 
L 227.414221 242.23868 
L 227.414221 238.466271 
L 227.62272 238.466271 
L 227.62272 234.693861 
L 228.563619 234.693861 
L 228.563619 230.921452 
L 228.679392 230.921452 
L 228.679392 227.149043 
L 228.92427 227.149043 
L 228.92427 223.376634 
L 229.908878 223.376634 
L 229.908878 219.604224 
L 230.901691 219.604224 
L 230.901691 215.831815 
L 231.38722 215.831815 
L 231.476009 208.286997 
L 231.873572 208.286997 
L 231.942595 200.742178 
L 233.478379 200.742178 
L 233.54059 193.19736 
L 234.299851 193.19736 
L 234.299851 189.42495 
L 237.864649 189.42495 
L 237.864649 185.652541 
L 238.135849 185.652541 
L 238.135849 181.880132 
L 238.334092 181.880132 
L 238.399494 174.335314 
L 238.732383 174.335314 
L 238.732383 170.562904 
L 240.126437 170.562904 
L 240.126437 166.790495 
L 240.492642 166.790495 
L 240.593808 159.245677 
L 240.771397 159.245677 
L 240.771397 155.473267 
L 241.028805 155.473267 
L 241.028805 151.700858 
L 241.266526 151.700858 
L 241.266526 147.928449 
L 241.925443 147.928449 
L 241.925443 144.15604 
L 242.580727 144.15604 
L 242.580727 140.38363 
L 242.871865 140.38363 
L 242.87649 132.838812 
L 244.090625 132.838812 
L 244.090625 129.066403 
L 244.585873 129.066403 
L 244.585873 125.293993 
L 245.623778 125.293993 
L 245.623778 121.521584 
L 245.797139 121.521584 
L 245.797139 117.749175 
L 246.670945 117.749175 
L 246.670945 113.976766 
L 247.739358 113.976766 
L 247.739358 110.204356 
L 248.211497 110.204356 
L 248.289038 102.659538 
L 251.303051 102.659538 
L 251.303051 98.887129 
L 251.798789 98.887129 
L 251.798789 95.114719 
L 252.198501 95.114719 
L 252.198501 91.34231 
L 252.517575 91.34231 
L 252.517575 87.569901 
L 252.861677 87.569901 
L 252.861677 83.797492 
L 253.511438 83.797492 
L 253.513007 76.252673 
L 253.875297 76.252673 
L 253.875297 72.480264 
L 254.022541 72.480264 
L 254.022541 68.707855 
L 254.594477 68.707855 
L 254.682057 61.163036 
L 255.67012 61.163036 
L 255.67012 57.390627 
L 272.418067 57.390627 
L 272.418067 53.618218 
L 281.920579 53.618218 
L 281.920579 49.845809 
L 282.723169 49.845809 
L 282.723169 46.073399 
L 289.50526 46.073399 
L 289.50526 42.30099 
L 289.885386 42.30099 
L 289.885386 38.528581 
L 290.42737 38.528581 
L 290.502337 30.983762 
L 290.718571 30.983762 
L 290.718571 27.211353 
L 291.695737 27.211353 
L 291.695737 23.438944 
L 295.19271 23.438944 
L 295.19271 19.666535 
L 295.924755 19.666535 
L 295.924755 15.894125 
L 296.676819 15.894125 
L 296.676819 12.121716 
L 296.956316 12.121716 
L 296.956316 8.349307 
L 296.956316 8.349307 
L 450.672 8.349307 
L 450.672 8.349307 
" style="fill:none;stroke:#00bfbf;stroke-linecap:square;stroke-width:1.5;"/>
   </g>
   <g id="line2d_28">
    <path clip-path="url(#p5652a0fda4)" d="M 148.21668 291.28 
L 148.21668 287.507591 
L 189.689837 287.507591 
L 189.689837 283.735182 
L 190.722414 283.735182 
L 190.722414 279.962772 
L 200.448479 279.962772 
L 200.448479 276.190363 
L 201.051719 276.190363 
L 201.051719 272.417954 
L 204.983227 272.417954 
L 204.983227 268.645545 
L 207.787672 268.645545 
L 207.787672 264.873135 
L 213.677205 264.873135 
L 213.677205 261.100726 
L 214.521228 261.100726 
L 214.521228 257.328317 
L 215.661702 257.328317 
L 215.765319 249.783498 
L 215.81907 249.783498 
L 215.921417 234.693861 
L 216.063062 234.693861 
L 216.063062 230.921452 
L 216.598564 230.921452 
L 216.643798 223.376634 
L 216.830783 223.376634 
L 216.830783 219.604224 
L 217.2583 219.604224 
L 217.2583 215.831815 
L 217.739422 215.831815 
L 217.777896 204.514587 
L 218.024476 204.514587 
L 218.10129 196.969769 
L 218.345275 196.969769 
L 218.34911 189.42495 
L 218.549599 189.42495 
L 218.549599 185.652541 
L 218.666462 185.652541 
L 218.666462 181.880132 
L 218.836636 181.880132 
L 218.876062 174.335314 
L 219.111441 174.335314 
L 219.165779 166.790495 
L 219.326192 166.790495 
L 219.326192 163.018086 
L 219.667415 163.018086 
L 219.667415 159.245677 
L 219.796373 159.245677 
L 219.834911 151.700858 
L 220.414849 151.700858 
L 220.414849 147.928449 
L 220.911266 147.928449 
L 220.935686 140.38363 
L 221.115385 140.38363 
L 221.115385 136.611221 
L 221.230995 136.611221 
L 221.230995 132.838812 
L 221.914177 132.838812 
L 221.914177 129.066403 
L 222.106959 129.066403 
L 222.181036 121.521584 
L 222.486433 121.521584 
L 222.486433 117.749175 
L 222.806316 117.749175 
L 222.907946 110.204356 
L 222.972603 110.204356 
L 222.972603 106.431947 
L 223.132986 106.431947 
L 223.132986 102.659538 
L 223.522849 102.659538 
L 223.522849 98.887129 
L 225.409755 98.887129 
L 225.409755 95.114719 
L 227.346831 95.114719 
L 227.346831 91.34231 
L 228.92427 91.34231 
L 228.92427 87.569901 
L 229.106751 87.569901 
L 229.106751 83.797492 
L 231.553782 83.797492 
L 231.553782 80.025083 
L 231.748502 80.025083 
L 231.854889 72.480264 
L 231.984621 72.480264 
L 231.984621 68.707855 
L 233.045637 68.707855 
L 233.045637 64.935446 
L 237.197019 64.935446 
L 237.197019 61.163036 
L 242.842835 61.163036 
L 242.842835 57.390627 
L 243.210586 57.390627 
L 243.210586 53.618218 
L 243.906061 53.618218 
L 243.906061 49.845809 
L 244.376783 49.845809 
L 244.376783 46.073399 
L 245.163024 46.073399 
L 245.163024 42.30099 
L 245.364602 42.30099 
L 245.426684 34.756172 
L 245.65606 34.756172 
L 245.65606 30.983762 
L 246.127659 30.983762 
L 246.127659 27.211353 
L 246.438101 27.211353 
L 246.438101 23.438944 
L 246.670945 23.438944 
L 246.670945 19.666535 
L 246.864837 19.666535 
L 246.864837 15.894125 
L 248.228743 15.894125 
L 248.296736 8.349307 
L 248.296736 8.349307 
L 450.672 8.349307 
L 450.672 8.349307 
" style="fill:none;stroke:#bf00bf;stroke-linecap:square;stroke-width:1.5;"/>
   </g>
   <g id="line2d_29">
    <path clip-path="url(#p5652a0fda4)" d="M -1 253.555908 
L 8.296086 253.555908 
L 8.296086 249.783498 
L 53.842067 249.783498 
L 53.842067 246.011089 
L 94.720332 246.011089 
L 94.720332 242.23868 
L 143.946315 242.23868 
L 143.946315 238.466271 
L 194.776392 238.466271 
L 194.776392 234.693861 
L 198.338593 234.693861 
L 198.42384 227.149043 
L 199.700982 227.149043 
L 199.700982 223.376634 
L 199.847877 223.376634 
L 199.847877 219.604224 
L 200.738939 219.604224 
L 200.738939 215.831815 
L 201.016733 215.831815 
L 201.059736 208.286997 
L 201.241837 208.286997 
L 201.241837 204.514587 
L 202.303213 204.514587 
L 202.303213 200.742178 
L 203.134773 200.742178 
L 203.134773 196.969769 
L 203.679884 196.969769 
L 203.679884 193.19736 
L 204.014084 193.19736 
L 204.014084 178.107723 
L 204.250896 178.107723 
L 204.309645 170.562904 
L 205.511046 170.562904 
L 205.511046 166.790495 
L 205.633447 166.790495 
L 205.633447 163.018086 
L 206.004813 163.018086 
L 206.006564 155.473267 
L 207.005423 155.473267 
L 207.005423 151.700858 
L 207.268376 151.700858 
L 207.268376 147.928449 
L 207.474343 147.928449 
L 207.474343 144.15604 
L 208.566595 144.15604 
L 208.566595 140.38363 
L 208.769601 140.38363 
L 208.769601 136.611221 
L 209.555589 136.611221 
L 209.58118 129.066403 
L 210.453674 129.066403 
L 210.479888 121.521584 
L 211.297186 121.521584 
L 211.297186 117.749175 
L 212.530699 117.749175 
L 212.530699 113.976766 
L 212.822115 113.976766 
L 212.822115 110.204356 
L 212.980242 110.204356 
L 212.980242 106.431947 
L 213.261083 106.431947 
L 213.365601 98.887129 
L 214.551808 98.887129 
L 214.551808 95.114719 
L 214.951194 95.114719 
L 214.951194 91.34231 
L 215.344579 91.34231 
L 215.44213 80.025083 
L 216.326462 80.025083 
L 216.326462 76.252673 
L 220.758972 76.252673 
L 220.758972 72.480264 
L 222.533405 72.480264 
L 222.533405 68.707855 
L 225.910312 68.707855 
L 225.910312 64.935446 
L 227.959533 64.935446 
L 227.959533 61.163036 
L 228.382435 61.163036 
L 228.476109 53.618218 
L 229.43732 53.618218 
L 229.43732 49.845809 
L 231.414465 49.845809 
L 231.414465 46.073399 
L 232.557689 46.073399 
L 232.557689 42.30099 
L 233.35575 42.30099 
L 233.35575 38.528581 
L 233.754807 38.528581 
L 233.754807 34.756172 
L 233.898116 34.756172 
L 233.898116 30.983762 
L 234.024209 30.983762 
L 234.024209 27.211353 
L 234.254653 27.211353 
L 234.254653 23.438944 
L 234.415775 23.438944 
L 234.501933 15.894125 
L 234.97416 15.894125 
L 234.97416 12.121716 
L 238.09696 12.121716 
L 238.09696 8.349307 
L 238.09696 8.349307 
L 450.672 8.349307 
L 450.672 8.349307 
" style="fill:none;stroke:#000000;stroke-linecap:square;stroke-width:1.5;"/>
   </g>
   <g id="patch_3">
    <path d="M 5.52 291.28 
L 5.52 5.52 
" style="fill:none;stroke:#000000;stroke-linecap:square;stroke-linejoin:miter;stroke-width:0.8;"/>
   </g>
   <g id="patch_4">
    <path d="M 450.672 291.28 
L 450.672 5.52 
" style="fill:none;stroke:#000000;stroke-linecap:square;stroke-linejoin:miter;stroke-width:0.8;"/>
   </g>
   <g id="patch_5">
    <path d="M 5.52 291.28 
L 450.672 291.28 
" style="fill:none;stroke:#000000;stroke-linecap:square;stroke-linejoin:miter;stroke-width:0.8;"/>
   </g>
   <g id="patch_6">
    <path d="M 5.52 5.52 
L 450.672 5.52 
" style="fill:none;stroke:#000000;stroke-linecap:square;stroke-linejoin:miter;stroke-width:0.8;"/>
   </g>
   <g id="text_6">
    <!-- {f20-f24}, 5-D -->
    <defs>
     <path d="M 51.125 -9.28125 
L 51.125 -16.3125 
L 48.09375 -16.3125 
Q 35.9375 -16.3125 31.8125 -12.6875 
Q 27.6875 -9.078125 27.6875 1.703125 
L 27.6875 13.375 
Q 27.6875 20.75 25.046875 23.578125 
Q 22.40625 26.421875 15.484375 26.421875 
L 12.5 26.421875 
L 12.5 33.40625 
L 15.484375 33.40625 
Q 22.46875 33.40625 25.078125 36.203125 
Q 27.6875 39.015625 27.6875 46.296875 
L 27.6875 58.015625 
Q 27.6875 68.796875 31.8125 72.390625 
Q 35.9375 75.984375 48.09375 75.984375 
L 51.125 75.984375 
L 51.125 69 
L 47.796875 69 
Q 40.921875 69 38.8125 66.84375 
Q 36.71875 64.703125 36.71875 57.8125 
L 36.71875 45.703125 
Q 36.71875 38.03125 34.5 34.5625 
Q 32.28125 31.109375 26.90625 29.890625 
Q 32.328125 28.5625 34.515625 25.09375 
Q 36.71875 21.625 36.71875 14.015625 
L 36.71875 1.90625 
Q 36.71875 -4.984375 38.8125 -7.125 
Q 40.921875 -9.28125 47.796875 -9.28125 
z
" id="DejaVuSans-7b"/>
     <path d="M 19.1875 8.296875 
L 53.609375 8.296875 
L 53.609375 0 
L 7.328125 0 
L 7.328125 8.296875 
Q 12.9375 14.109375 22.625 23.890625 
Q 32.328125 33.6875 34.8125 36.53125 
Q 39.546875 41.84375 41.421875 45.53125 
Q 43.3125 49.21875 43.3125 52.78125 
Q 43.3125 58.59375 39.234375 62.25 
Q 35.15625 65.921875 28.609375 65.921875 
Q 23.96875 65.921875 18.8125 64.3125 
Q 13.671875 62.703125 7.8125 59.421875 
L 7.8125 69.390625 
Q 13.765625 71.78125 18.9375 73 
Q 24.125 74.21875 28.421875 74.21875 
Q 39.75 74.21875 46.484375 68.546875 
Q 53.21875 62.890625 53.21875 53.421875 
Q 53.21875 48.921875 51.53125 44.890625 
Q 49.859375 40.875 45.40625 35.40625 
Q 44.1875 33.984375 37.640625 27.21875 
Q 31.109375 20.453125 19.1875 8.296875 
z
" id="DejaVuSans-32"/>
     <path d="M 12.5 -9.28125 
L 15.921875 -9.28125 
Q 22.75 -9.28125 24.828125 -7.171875 
Q 26.90625 -5.078125 26.90625 1.90625 
L 26.90625 14.015625 
Q 26.90625 21.625 29.09375 25.09375 
Q 31.296875 28.5625 36.71875 29.890625 
Q 31.296875 31.109375 29.09375 34.5625 
Q 26.90625 38.03125 26.90625 45.703125 
L 26.90625 57.8125 
Q 26.90625 64.75 24.828125 66.875 
Q 22.75 69 15.921875 69 
L 12.5 69 
L 12.5 75.984375 
L 15.578125 75.984375 
Q 27.734375 75.984375 31.8125 72.390625 
Q 35.890625 68.796875 35.890625 58.015625 
L 35.890625 46.296875 
Q 35.890625 39.015625 38.515625 36.203125 
Q 41.15625 33.40625 48.09375 33.40625 
L 51.125 33.40625 
L 51.125 26.421875 
L 48.09375 26.421875 
Q 41.15625 26.421875 38.515625 23.578125 
Q 35.890625 20.75 35.890625 13.375 
L 35.890625 1.703125 
Q 35.890625 -9.078125 31.8125 -12.6875 
Q 27.734375 -16.3125 15.578125 -16.3125 
L 12.5 -16.3125 
z
" id="DejaVuSans-7d"/>
     <path d="M 11.71875 12.40625 
L 22.015625 12.40625 
L 22.015625 4 
L 14.015625 -11.625 
L 7.71875 -11.625 
L 11.71875 4 
z
" id="DejaVuSans-2c"/>
     <path d="M 10.796875 72.90625 
L 49.515625 72.90625 
L 49.515625 64.59375 
L 19.828125 64.59375 
L 19.828125 46.734375 
Q 21.96875 47.46875 24.109375 47.828125 
Q 26.265625 48.1875 28.421875 48.1875 
Q 40.625 48.1875 47.75 41.5 
Q 54.890625 34.8125 54.890625 23.390625 
Q 54.890625 11.625 47.5625 5.09375 
Q 40.234375 -1.421875 26.90625 -1.421875 
Q 22.3125 -1.421875 17.546875 -0.640625 
Q 12.796875 0.140625 7.71875 1.703125 
L 7.71875 11.625 
Q 12.109375 9.234375 16.796875 8.0625 
Q 21.484375 6.890625 26.703125 6.890625 
Q 35.15625 6.890625 40.078125 11.328125 
Q 45.015625 15.765625 45.015625 23.390625 
Q 45.015625 31 40.078125 35.4375 
Q 35.15625 39.890625 26.703125 39.890625 
Q 22.75 39.890625 18.8125 39.015625 
Q 14.890625 38.140625 10.796875 36.28125 
z
" id="DejaVuSans-35"/>
    </defs>
    <g transform="translate(296.06896 285.5648)scale(0.2 -0.2)">
     <use xlink:href="#DejaVuSans-7b"/>
     <use x="63.623047" xlink:href="#DejaVuSans-66"/>
     <use x="98.828125" xlink:href="#DejaVuSans-32"/>
     <use x="162.451172" xlink:href="#DejaVuSans-30"/>
     <use x="226.074219" xlink:href="#DejaVuSans-2d"/>
     <use x="262.158203" xlink:href="#DejaVuSans-66"/>
     <use x="297.363281" xlink:href="#DejaVuSans-32"/>
     <use x="360.986328" xlink:href="#DejaVuSans-34"/>
     <use x="424.609375" xlink:href="#DejaVuSans-7d"/>
     <use x="488.232422" xlink:href="#DejaVuSans-2c"/>
     <use x="520.019531" xlink:href="#DejaVuSans-20"/>
     <use x="551.806641" xlink:href="#DejaVuSans-35"/>
     <use x="615.429688" xlink:href="#DejaVuSans-2d"/>
     <use x="651.513672" xlink:href="#DejaVuSans-44"/>
    </g>
   </g>
   <g id="text_7">
    <!-- v0.0.0 -->
    <defs>
     <path d="M 2.984375 54.6875 
L 12.5 54.6875 
L 29.59375 8.796875 
L 46.6875 54.6875 
L 56.203125 54.6875 
L 35.6875 0 
L 23.484375 0 
z
" id="DejaVuSans-76"/>
     <path d="M 10.6875 12.40625 
L 21 12.40625 
L 21 0 
L 10.6875 0 
z
" id="DejaVuSans-2e"/>
    </defs>
    <g style="fill:#808080;" transform="translate(212.41475 286.342713)scale(0.1 -0.1)">
     <use xlink:href="#DejaVuSans-76"/>
     <use x="59.179688" xlink:href="#DejaVuSans-30"/>
     <use x="122.802734" xlink:href="#DejaVuSans-2e"/>
     <use x="154.589844" xlink:href="#DejaVuSans-30"/>
     <use x="218.212891" xlink:href="#DejaVuSans-2e"/>
     <use x="250" xlink:href="#DejaVuSans-30"/>
    </g>
   </g>
  </g>
 </g>
 <defs>
  <clipPath id="p5652a0fda4">
   <rect height="285.76" width="445.152" x="5.52" y="5.52"/>
  </clipPath>
 </defs>
</svg>
