<?xml version="1.0" encoding="utf-8" standalone="no"?>
<!DOCTYPE svg PUBLIC "-//W3C//DTD SVG 1.1//EN"
  "http://www.w3.org/Graphics/SVG/1.1/DTD/svg11.dtd">
<!-- Created with matplotlib (http://matplotlib.org/) -->
<svg height="345.6pt" version="1.1" viewBox="0 0 460.8 345.6" width="460.8pt" xmlns="http://www.w3.org/2000/svg" xmlns:xlink="http://www.w3.org/1999/xlink">
 <defs>
  <style type="text/css">
*{stroke-linecap:butt;stroke-linejoin:round;}
  </style>
 </defs>
 <g id="figure_1">
  <g id="patch_1">
   <path d="M 0 345.6 
L 460.8 345.6 
L 460.8 0 
L 0 0 
z
" style="fill:#ffffff;"/>
  </g>
  <g id="axes_1">
   <g id="patch_2">
    <path d="M 5.52 291.28 
L 450.672 291.28 
L 450.672 5.52 
L 5.52 5.52 
z
" style="fill:#ffffff;"/>
   </g>
   <g id="matplotlib.axis_1">
    <g id="xtick_1">
     <g id="line2d_1">
      <path clip-path="url(#pe12c326835)" d="M 5.410531 291.28 
L 5.410531 5.52 
" style="fill:none;stroke:#b0b0b0;stroke-linecap:square;stroke-width:0.8;"/>
     </g>
     <g id="line2d_2">
      <defs>
       <path d="M 0 0 
L 0 3.5 
" id="m67a8d8cd09" style="stroke:#000000;stroke-width:0.8;"/>
      </defs>
      <g>
       <use style="stroke:#000000;stroke-width:0.8;" x="5.410531" xlink:href="#m67a8d8cd09" y="291.28"/>
      </g>
     </g>
    </g>
    <g id="xtick_2">
     <g id="line2d_3">
      <path clip-path="url(#pe12c326835)" d="M 106.738664 291.28 
L 106.738664 5.52 
" style="fill:none;stroke:#b0b0b0;stroke-linecap:square;stroke-width:0.8;"/>
     </g>
     <g id="line2d_4">
      <g>
       <use style="stroke:#000000;stroke-width:0.8;" x="106.738664" xlink:href="#m67a8d8cd09" y="291.28"/>
      </g>
     </g>
     <g id="text_1">
      <!-- -4 -->
      <defs>
       <path d="M 4.890625 31.390625 
L 31.203125 31.390625 
L 31.203125 23.390625 
L 4.890625 23.390625 
z
" id="DejaVuSans-2d"/>
       <path d="M 37.796875 64.3125 
L 12.890625 25.390625 
L 37.796875 25.390625 
z
M 35.203125 72.90625 
L 47.609375 72.90625 
L 47.609375 25.390625 
L 58.015625 25.390625 
L 58.015625 17.1875 
L 47.609375 17.1875 
L 47.609375 0 
L 37.796875 0 
L 37.796875 17.1875 
L 4.890625 17.1875 
L 4.890625 26.703125 
z
" id="DejaVuSans-34"/>
      </defs>
      <g transform="translate(96.768351 313.476875)scale(0.2 -0.2)">
       <use xlink:href="#DejaVuSans-2d"/>
       <use x="36.083984" xlink:href="#DejaVuSans-34"/>
      </g>
     </g>
    </g>
    <g id="xtick_3">
     <g id="line2d_5">
      <path clip-path="url(#pe12c326835)" d="M 208.066797 291.28 
L 208.066797 5.52 
" style="fill:none;stroke:#b0b0b0;stroke-linecap:square;stroke-width:0.8;"/>
     </g>
     <g id="line2d_6">
      <g>
       <use style="stroke:#000000;stroke-width:0.8;" x="208.066797" xlink:href="#m67a8d8cd09" y="291.28"/>
      </g>
     </g>
     <g id="text_2">
      <!-- 0 -->
      <defs>
       <path d="M 31.78125 66.40625 
Q 24.171875 66.40625 20.328125 58.90625 
Q 16.5 51.421875 16.5 36.375 
Q 16.5 21.390625 20.328125 13.890625 
Q 24.171875 6.390625 31.78125 6.390625 
Q 39.453125 6.390625 43.28125 13.890625 
Q 47.125 21.390625 47.125 36.375 
Q 47.125 51.421875 43.28125 58.90625 
Q 39.453125 66.40625 31.78125 66.40625 
z
M 31.78125 74.21875 
Q 44.046875 74.21875 50.515625 64.515625 
Q 56.984375 54.828125 56.984375 36.375 
Q 56.984375 17.96875 50.515625 8.265625 
Q 44.046875 -1.421875 31.78125 -1.421875 
Q 19.53125 -1.421875 13.0625 8.265625 
Q 6.59375 17.96875 6.59375 36.375 
Q 6.59375 54.828125 13.0625 64.515625 
Q 19.53125 74.21875 31.78125 74.21875 
z
" id="DejaVuSans-30"/>
      </defs>
      <g transform="translate(201.704297 313.476875)scale(0.2 -0.2)">
       <use xlink:href="#DejaVuSans-30"/>
      </g>
     </g>
    </g>
    <g id="xtick_4">
     <g id="line2d_7">
      <path clip-path="url(#pe12c326835)" d="M 309.39493 291.28 
L 309.39493 5.52 
" style="fill:none;stroke:#b0b0b0;stroke-linecap:square;stroke-width:0.8;"/>
     </g>
     <g id="line2d_8">
      <g>
       <use style="stroke:#000000;stroke-width:0.8;" x="309.39493" xlink:href="#m67a8d8cd09" y="291.28"/>
      </g>
     </g>
     <g id="text_3">
      <!-- 4 -->
      <g transform="translate(303.03243 313.476875)scale(0.2 -0.2)">
       <use xlink:href="#DejaVuSans-34"/>
      </g>
     </g>
    </g>
    <g id="xtick_5">
     <g id="line2d_9">
      <path clip-path="url(#pe12c326835)" d="M 410.723063 291.28 
L 410.723063 5.52 
" style="fill:none;stroke:#b0b0b0;stroke-linecap:square;stroke-width:0.8;"/>
     </g>
     <g id="line2d_10">
      <g>
       <use style="stroke:#000000;stroke-width:0.8;" x="410.723063" xlink:href="#m67a8d8cd09" y="291.28"/>
      </g>
     </g>
     <g id="text_4">
      <!-- 8 -->
      <defs>
       <path d="M 31.78125 34.625 
Q 24.75 34.625 20.71875 30.859375 
Q 16.703125 27.09375 16.703125 20.515625 
Q 16.703125 13.921875 20.71875 10.15625 
Q 24.75 6.390625 31.78125 6.390625 
Q 38.8125 6.390625 42.859375 10.171875 
Q 46.921875 13.96875 46.921875 20.515625 
Q 46.921875 27.09375 42.890625 30.859375 
Q 38.875 34.625 31.78125 34.625 
z
M 21.921875 38.8125 
Q 15.578125 40.375 12.03125 44.71875 
Q 8.5 49.078125 8.5 55.328125 
Q 8.5 64.0625 14.71875 69.140625 
Q 20.953125 74.21875 31.78125 74.21875 
Q 42.671875 74.21875 48.875 69.140625 
Q 55.078125 64.0625 55.078125 55.328125 
Q 55.078125 49.078125 51.53125 44.71875 
Q 48 40.375 41.703125 38.8125 
Q 48.828125 37.15625 52.796875 32.3125 
Q 56.78125 27.484375 56.78125 20.515625 
Q 56.78125 9.90625 50.3125 4.234375 
Q 43.84375 -1.421875 31.78125 -1.421875 
Q 19.734375 -1.421875 13.25 4.234375 
Q 6.78125 9.90625 6.78125 20.515625 
Q 6.78125 27.484375 10.78125 32.3125 
Q 14.796875 37.15625 21.921875 38.8125 
z
M 18.3125 54.390625 
Q 18.3125 48.734375 21.84375 45.5625 
Q 25.390625 42.390625 31.78125 42.390625 
Q 38.140625 42.390625 41.71875 45.5625 
Q 45.3125 48.734375 45.3125 54.390625 
Q 45.3125 60.0625 41.71875 63.234375 
Q 38.140625 66.40625 31.78125 66.40625 
Q 25.390625 66.40625 21.84375 63.234375 
Q 18.3125 60.0625 18.3125 54.390625 
z
" id="DejaVuSans-38"/>
      </defs>
      <g transform="translate(404.360563 313.476875)scale(0.2 -0.2)">
       <use xlink:href="#DejaVuSans-38"/>
      </g>
     </g>
    </g>
    <g id="text_5">
     <!-- log10 of Df -->
     <defs>
      <path d="M 9.421875 75.984375 
L 18.40625 75.984375 
L 18.40625 0 
L 9.421875 0 
z
" id="DejaVuSans-6c"/>
      <path d="M 30.609375 48.390625 
Q 23.390625 48.390625 19.1875 42.75 
Q 14.984375 37.109375 14.984375 27.296875 
Q 14.984375 17.484375 19.15625 11.84375 
Q 23.34375 6.203125 30.609375 6.203125 
Q 37.796875 6.203125 41.984375 11.859375 
Q 46.1875 17.53125 46.1875 27.296875 
Q 46.1875 37.015625 41.984375 42.703125 
Q 37.796875 48.390625 30.609375 48.390625 
z
M 30.609375 56 
Q 42.328125 56 49.015625 48.375 
Q 55.71875 40.765625 55.71875 27.296875 
Q 55.71875 13.875 49.015625 6.21875 
Q 42.328125 -1.421875 30.609375 -1.421875 
Q 18.84375 -1.421875 12.171875 6.21875 
Q 5.515625 13.875 5.515625 27.296875 
Q 5.515625 40.765625 12.171875 48.375 
Q 18.84375 56 30.609375 56 
z
" id="DejaVuSans-6f"/>
      <path d="M 45.40625 27.984375 
Q 45.40625 37.75 41.375 43.109375 
Q 37.359375 48.484375 30.078125 48.484375 
Q 22.859375 48.484375 18.828125 43.109375 
Q 14.796875 37.75 14.796875 27.984375 
Q 14.796875 18.265625 18.828125 12.890625 
Q 22.859375 7.515625 30.078125 7.515625 
Q 37.359375 7.515625 41.375 12.890625 
Q 45.40625 18.265625 45.40625 27.984375 
z
M 54.390625 6.78125 
Q 54.390625 -7.171875 48.1875 -13.984375 
Q 42 -20.796875 29.203125 -20.796875 
Q 24.46875 -20.796875 20.265625 -20.09375 
Q 16.0625 -19.390625 12.109375 -17.921875 
L 12.109375 -9.1875 
Q 16.0625 -11.328125 19.921875 -12.34375 
Q 23.78125 -13.375 27.78125 -13.375 
Q 36.625 -13.375 41.015625 -8.765625 
Q 45.40625 -4.15625 45.40625 5.171875 
L 45.40625 9.625 
Q 42.625 4.78125 38.28125 2.390625 
Q 33.9375 0 27.875 0 
Q 17.828125 0 11.671875 7.65625 
Q 5.515625 15.328125 5.515625 27.984375 
Q 5.515625 40.671875 11.671875 48.328125 
Q 17.828125 56 27.875 56 
Q 33.9375 56 38.28125 53.609375 
Q 42.625 51.21875 45.40625 46.390625 
L 45.40625 54.6875 
L 54.390625 54.6875 
z
" id="DejaVuSans-67"/>
      <path d="M 12.40625 8.296875 
L 28.515625 8.296875 
L 28.515625 63.921875 
L 10.984375 60.40625 
L 10.984375 69.390625 
L 28.421875 72.90625 
L 38.28125 72.90625 
L 38.28125 8.296875 
L 54.390625 8.296875 
L 54.390625 0 
L 12.40625 0 
z
" id="DejaVuSans-31"/>
      <path id="DejaVuSans-20"/>
      <path d="M 37.109375 75.984375 
L 37.109375 68.5 
L 28.515625 68.5 
Q 23.6875 68.5 21.796875 66.546875 
Q 19.921875 64.59375 19.921875 59.515625 
L 19.921875 54.6875 
L 34.71875 54.6875 
L 34.71875 47.703125 
L 19.921875 47.703125 
L 19.921875 0 
L 10.890625 0 
L 10.890625 47.703125 
L 2.296875 47.703125 
L 2.296875 54.6875 
L 10.890625 54.6875 
L 10.890625 58.5 
Q 10.890625 67.625 15.140625 71.796875 
Q 19.390625 75.984375 28.609375 75.984375 
z
" id="DejaVuSans-66"/>
      <path d="M 19.671875 64.796875 
L 19.671875 8.109375 
L 31.59375 8.109375 
Q 46.6875 8.109375 53.6875 14.9375 
Q 60.6875 21.78125 60.6875 36.53125 
Q 60.6875 51.171875 53.6875 57.984375 
Q 46.6875 64.796875 31.59375 64.796875 
z
M 9.8125 72.90625 
L 30.078125 72.90625 
Q 51.265625 72.90625 61.171875 64.09375 
Q 71.09375 55.28125 71.09375 36.53125 
Q 71.09375 17.671875 61.125 8.828125 
Q 51.171875 0 30.078125 0 
L 9.8125 0 
z
" id="DejaVuSans-44"/>
     </defs>
     <g transform="translate(172.910063 336.833125)scale(0.2 -0.2)">
      <use xlink:href="#DejaVuSans-6c"/>
      <use x="27.783203" xlink:href="#DejaVuSans-6f"/>
      <use x="88.964844" xlink:href="#DejaVuSans-67"/>
      <use x="152.441406" xlink:href="#DejaVuSans-31"/>
      <use x="216.064453" xlink:href="#DejaVuSans-30"/>
      <use x="279.6875" xlink:href="#DejaVuSans-20"/>
      <use x="311.474609" xlink:href="#DejaVuSans-6f"/>
      <use x="372.65625" xlink:href="#DejaVuSans-66"/>
      <use x="407.861328" xlink:href="#DejaVuSans-20"/>
      <use x="439.648438" xlink:href="#DejaVuSans-44"/>
      <use x="516.650391" xlink:href="#DejaVuSans-66"/>
     </g>
    </g>
   </g>
   <g id="matplotlib.axis_2">
    <g id="ytick_1">
     <g id="line2d_11">
      <path clip-path="url(#pe12c326835)" d="M 5.52 291.28 
L 450.672 291.28 
" style="fill:none;stroke:#b0b0b0;stroke-linecap:square;stroke-width:0.8;"/>
     </g>
     <g id="line2d_12">
      <defs>
       <path d="M 0 0 
L -3.5 0 
" id="md43db5c3ad" style="stroke:#000000;stroke-width:0.8;"/>
      </defs>
      <g>
       <use style="stroke:#000000;stroke-width:0.8;" x="5.52" xlink:href="#md43db5c3ad" y="291.28"/>
      </g>
     </g>
    </g>
    <g id="ytick_2">
     <g id="line2d_13">
      <path clip-path="url(#pe12c326835)" d="M 5.52 234.693861 
L 450.672 234.693861 
" style="fill:none;stroke:#b0b0b0;stroke-linecap:square;stroke-width:0.8;"/>
     </g>
     <g id="line2d_14">
      <g>
       <use style="stroke:#000000;stroke-width:0.8;" x="5.52" xlink:href="#md43db5c3ad" y="234.693861"/>
      </g>
     </g>
    </g>
    <g id="ytick_3">
     <g id="line2d_15">
      <path clip-path="url(#pe12c326835)" d="M 5.52 178.107723 
L 450.672 178.107723 
" style="fill:none;stroke:#b0b0b0;stroke-linecap:square;stroke-width:0.8;"/>
     </g>
     <g id="line2d_16">
      <g>
       <use style="stroke:#000000;stroke-width:0.8;" x="5.52" xlink:href="#md43db5c3ad" y="178.107723"/>
      </g>
     </g>
    </g>
    <g id="ytick_4">
     <g id="line2d_17">
      <path clip-path="url(#pe12c326835)" d="M 5.52 121.521584 
L 450.672 121.521584 
" style="fill:none;stroke:#b0b0b0;stroke-linecap:square;stroke-width:0.8;"/>
     </g>
     <g id="line2d_18">
      <g>
       <use style="stroke:#000000;stroke-width:0.8;" x="5.52" xlink:href="#md43db5c3ad" y="121.521584"/>
      </g>
     </g>
    </g>
    <g id="ytick_5">
     <g id="line2d_19">
      <path clip-path="url(#pe12c326835)" d="M 5.52 64.935446 
L 450.672 64.935446 
" style="fill:none;stroke:#b0b0b0;stroke-linecap:square;stroke-width:0.8;"/>
     </g>
     <g id="line2d_20">
      <g>
       <use style="stroke:#000000;stroke-width:0.8;" x="5.52" xlink:href="#md43db5c3ad" y="64.935446"/>
      </g>
     </g>
    </g>
    <g id="ytick_6">
     <g id="line2d_21">
      <path clip-path="url(#pe12c326835)" d="M 5.52 8.349307 
L 450.672 8.349307 
" style="fill:none;stroke:#b0b0b0;stroke-linecap:square;stroke-width:0.8;"/>
     </g>
     <g id="line2d_22">
      <g>
       <use style="stroke:#000000;stroke-width:0.8;" x="5.52" xlink:href="#md43db5c3ad" y="8.349307"/>
      </g>
     </g>
    </g>
   </g>
   <g id="line2d_23">
    <path clip-path="url(#pe12c326835)" d="M 78.14267 291.28 
L 78.14267 287.507591 
L 80.476087 287.507591 
L 80.476087 283.735182 
L 100.697423 283.735182 
L 100.697423 279.962772 
L 101.44237 279.962772 
L 101.44237 276.190363 
L 130.175233 276.190363 
L 130.175233 272.417954 
L 140.884779 272.417954 
L 140.884779 268.645545 
L 142.756755 268.645545 
L 142.756755 264.873135 
L 145.21115 264.873135 
L 145.21115 261.100726 
L 145.765996 261.100726 
L 145.765996 257.328317 
L 151.071523 257.328317 
L 151.071523 253.555908 
L 155.075627 253.555908 
L 155.075627 249.783498 
L 158.751108 249.783498 
L 158.751108 246.011089 
L 161.675912 246.011089 
L 161.675912 242.23868 
L 163.002094 242.23868 
L 163.002094 238.466271 
L 164.838087 238.466271 
L 164.838087 234.693861 
L 168.834623 234.693861 
L 168.85316 227.149043 
L 173.802666 227.149043 
L 173.802666 223.376634 
L 174.526558 223.376634 
L 174.526558 219.604224 
L 176.005181 219.604224 
L 176.005181 215.831815 
L 177.313453 215.831815 
L 177.313453 212.059406 
L 178.068501 212.059406 
L 178.068501 208.286997 
L 178.518223 208.286997 
L 178.518223 204.514587 
L 180.743491 204.514587 
L 180.743491 200.742178 
L 182.158909 200.742178 
L 182.158909 196.969769 
L 182.353394 196.969769 
L 182.353394 193.19736 
L 182.887917 193.19736 
L 182.887917 189.42495 
L 183.408959 189.42495 
L 183.408959 185.652541 
L 184.365305 185.652541 
L 184.365305 181.880132 
L 184.565277 181.880132 
L 184.565277 178.107723 
L 185.658453 178.107723 
L 185.658453 174.335314 
L 188.071212 174.335314 
L 188.071212 170.562904 
L 188.498499 170.562904 
L 188.498499 166.790495 
L 190.662221 166.790495 
L 190.662221 163.018086 
L 190.820317 163.018086 
L 190.869213 155.473267 
L 192.831828 155.473267 
L 192.831828 121.521584 
L 194.65664 121.521584 
L 194.65664 117.749175 
L 195.706066 117.749175 
L 195.706066 113.976766 
L 199.308052 113.976766 
L 199.308052 110.204356 
L 199.545512 110.204356 
L 199.545512 106.431947 
L 201.96438 106.431947 
L 201.96438 102.659538 
L 203.27809 102.659538 
L 203.27809 98.887129 
L 204.515615 98.887129 
L 204.515615 95.114719 
L 205.745214 95.114719 
L 205.745214 91.34231 
L 208.011199 91.34231 
L 208.011199 87.569901 
L 209.329466 87.569901 
L 209.329466 83.797492 
L 210.671707 83.797492 
L 210.671707 80.025083 
L 210.878742 80.025083 
L 210.878742 76.252673 
L 211.711536 76.252673 
L 211.711536 72.480264 
L 212.4314 72.480264 
L 212.4314 68.707855 
L 215.444494 68.707855 
L 215.444494 64.935446 
L 215.6369 64.935446 
L 215.6369 57.390627 
L 215.814743 57.390627 
L 215.814743 53.618218 
L 217.767149 53.618218 
L 217.767149 49.845809 
L 220.09765 49.845809 
L 220.09765 42.30099 
L 220.235693 42.30099 
L 220.235693 38.528581 
L 223.262588 38.528581 
L 223.262602 30.983762 
L 227.723343 30.983762 
L 227.723343 23.438944 
L 229.419242 23.438944 
L 229.419242 19.666535 
L 230.88829 19.666535 
L 230.888297 12.121716 
L 237.803956 12.121716 
L 237.803956 8.349307 
L 237.803956 8.349307 
L 450.672 8.349307 
L 450.672 8.349307 
" style="fill:none;stroke:#ff0000;stroke-linecap:square;stroke-width:3;"/>
   </g>
   <g id="line2d_24">
    <path clip-path="url(#pe12c326835)" d="M 192.831828 291.28 
L 192.831828 234.693861 
L 230.312929 234.693861 
L 230.312929 230.921452 
L 231.16881 230.921452 
L 231.16881 227.149043 
L 233.040622 227.149043 
L 233.040622 223.376634 
L 235.225364 223.376634 
L 235.23688 215.831815 
L 235.900062 215.831815 
L 235.986518 208.286997 
L 238.782167 208.286997 
L 238.782167 204.514587 
L 239.16452 204.514587 
L 239.16452 200.742178 
L 239.288612 200.742178 
L 239.288612 196.969769 
L 240.361886 196.969769 
L 240.37177 189.42495 
L 242.079208 189.42495 
L 242.079208 185.652541 
L 243.475159 185.652541 
L 243.475159 181.880132 
L 243.806843 181.880132 
L 243.806843 178.107723 
L 245.983931 178.107723 
L 246.088847 170.562904 
L 246.478968 170.562904 
L 246.478968 166.790495 
L 247.565499 166.790495 
L 247.565499 163.018086 
L 248.590706 163.018086 
L 248.688469 151.700858 
L 249.360558 151.700858 
L 249.360558 147.928449 
L 249.511051 147.928449 
L 249.511051 144.15604 
L 249.74616 144.15604 
L 249.74616 140.38363 
L 250.000231 140.38363 
L 250.000231 136.611221 
L 250.252295 136.611221 
L 250.252295 132.838812 
L 250.530854 132.838812 
L 250.530854 129.066403 
L 251.662513 129.066403 
L 251.662513 125.293993 
L 252.457384 125.293993 
L 252.457384 121.521584 
L 253.286907 121.521584 
L 253.286907 117.749175 
L 253.666505 117.749175 
L 253.666505 113.976766 
L 254.330801 113.976766 
L 254.330801 110.204356 
L 255.854013 110.204356 
L 255.854013 106.431947 
L 257.384845 106.431947 
L 257.384845 102.659538 
L 258.016529 102.659538 
L 258.016529 98.887129 
L 258.131905 98.887129 
L 258.131905 95.114719 
L 258.281481 95.114719 
L 258.281481 91.34231 
L 259.068934 91.34231 
L 259.068934 87.569901 
L 259.618947 87.569901 
L 259.618947 83.797492 
L 259.763612 83.797492 
L 259.763612 80.025083 
L 260.533544 80.025083 
L 260.533544 76.252673 
L 261.791877 76.252673 
L 261.791877 72.480264 
L 261.903892 72.480264 
L 261.903892 68.707855 
L 262.395264 68.707855 
L 262.395264 64.935446 
L 262.569056 64.935446 
L 262.677659 53.618218 
L 262.700161 53.618218 
L 262.700161 49.845809 
L 263.203751 49.845809 
L 263.273179 42.30099 
L 263.341094 42.30099 
L 263.341094 38.528581 
L 263.726855 38.528581 
L 263.726855 34.756172 
L 264.039924 34.756172 
L 264.039924 30.983762 
L 264.472712 30.983762 
L 264.472712 27.211353 
L 264.905815 27.211353 
L 264.905815 23.438944 
L 265.399149 23.438944 
L 265.399149 19.666535 
L 265.829529 19.666535 
L 265.829529 15.894125 
L 269.467954 15.894125 
L 269.467954 12.121716 
L 273.513943 12.121716 
L 273.513943 8.349307 
L 273.513943 8.349307 
L 450.672 8.349307 
L 450.672 8.349307 
" style="fill:none;stroke:#00bfbf;stroke-linecap:square;stroke-width:1.5;"/>
   </g>
   <g id="line2d_25">
    <path clip-path="url(#pe12c326835)" d="M 192.831828 291.28 
L 192.831828 234.693861 
L 229.228606 234.693861 
L 229.228606 230.921452 
L 230.311254 230.921452 
L 230.312929 223.376634 
L 231.16881 223.376634 
L 231.16881 219.604224 
L 233.040622 219.604224 
L 233.040622 215.831815 
L 233.471297 215.831815 
L 233.471297 212.059406 
L 234.505565 212.059406 
L 234.505565 208.286997 
L 235.225364 208.286997 
L 235.23688 200.742178 
L 235.900062 200.742178 
L 235.986518 193.19736 
L 237.040154 193.19736 
L 237.040154 189.42495 
L 237.813673 189.42495 
L 237.813673 185.652541 
L 238.285541 185.652541 
L 238.285541 181.880132 
L 238.675958 181.880132 
L 238.675958 178.107723 
L 240.37177 178.107723 
L 240.37177 174.335314 
L 242.079208 174.335314 
L 242.079208 170.562904 
L 243.806843 170.562904 
L 243.883757 163.018086 
L 243.985496 163.018086 
L 243.985496 159.245677 
L 246.088847 159.245677 
L 246.088847 155.473267 
L 246.478968 155.473267 
L 246.478968 151.700858 
L 248.009638 151.700858 
L 248.009638 147.928449 
L 248.364242 147.928449 
L 248.364242 144.15604 
L 248.679624 144.15604 
L 248.704079 132.838812 
L 249.178123 132.838812 
L 249.178123 129.066403 
L 249.511051 129.066403 
L 249.511051 125.293993 
L 249.74616 125.293993 
L 249.74616 121.521584 
L 249.961629 121.521584 
L 249.961629 117.749175 
L 250.252295 117.749175 
L 250.252295 113.976766 
L 250.977378 113.976766 
L 250.977378 110.204356 
L 251.201772 110.204356 
L 251.201772 106.431947 
L 251.338792 106.431947 
L 251.338792 102.659538 
L 251.662513 102.659538 
L 251.662513 98.887129 
L 252.155634 98.887129 
L 252.155634 95.114719 
L 252.28922 95.114719 
L 252.28922 91.34231 
L 252.457384 91.34231 
L 252.457384 87.569901 
L 252.644565 87.569901 
L 252.644565 83.797492 
L 253.194079 83.797492 
L 253.194079 80.025083 
L 253.624654 80.025083 
L 253.624654 76.252673 
L 254.827262 76.252673 
L 254.827262 72.480264 
L 255.447541 72.480264 
L 255.498434 64.935446 
L 255.854013 64.935446 
L 255.854013 61.163036 
L 259.23815 61.163036 
L 259.23815 57.390627 
L 260.533544 57.390627 
L 260.533544 53.618218 
L 261.791877 53.618218 
L 261.791877 49.845809 
L 261.903892 49.845809 
L 261.903892 46.073399 
L 262.395264 46.073399 
L 262.395264 42.30099 
L 262.599638 42.30099 
L 262.700161 30.983762 
L 262.897451 30.983762 
L 262.897451 27.211353 
L 263.273179 27.211353 
L 263.341094 19.666535 
L 264.472712 19.666535 
L 264.472712 15.894125 
L 265.667122 15.894125 
L 265.667122 12.121716 
L 265.829529 12.121716 
L 265.829529 8.349307 
L 265.829529 8.349307 
L 450.672 8.349307 
L 450.672 8.349307 
" style="fill:none;stroke:#bf00bf;stroke-linecap:square;stroke-width:1.5;"/>
   </g>
   <g id="line2d_26">
    <path clip-path="url(#pe12c326835)" d="M 192.831828 291.28 
L 192.831828 234.693861 
L 223.398554 234.693861 
L 223.398554 230.921452 
L 229.228606 230.921452 
L 229.228606 227.149043 
L 229.480156 227.149043 
L 229.480156 223.376634 
L 230.311254 223.376634 
L 230.311254 219.604224 
L 231.16881 219.604224 
L 231.16881 215.831815 
L 231.377345 215.831815 
L 231.377345 212.059406 
L 232.479627 212.059406 
L 232.479627 208.286997 
L 232.806674 208.286997 
L 232.806674 204.514587 
L 233.040622 204.514587 
L 233.040622 200.742178 
L 233.1936 200.742178 
L 233.1936 196.969769 
L 234.505565 196.969769 
L 234.555723 189.42495 
L 236.391187 189.42495 
L 236.391187 185.652541 
L 237.040154 185.652541 
L 237.040154 181.880132 
L 237.813673 181.880132 
L 237.813673 178.107723 
L 238.675958 178.107723 
L 238.675958 174.335314 
L 239.152209 174.335314 
L 239.250413 166.790495 
L 239.461481 166.790495 
L 239.461481 163.018086 
L 241.696759 163.018086 
L 241.696759 159.245677 
L 242.079208 159.245677 
L 242.079208 155.473267 
L 243.594527 155.473267 
L 243.594527 151.700858 
L 243.806843 151.700858 
L 243.883757 144.15604 
L 244.30924 144.15604 
L 244.30924 140.38363 
L 244.79614 140.38363 
L 244.79614 136.611221 
L 244.980084 136.611221 
L 244.980084 132.838812 
L 245.183883 132.838812 
L 245.183883 129.066403 
L 245.581368 129.066403 
L 245.581368 125.293993 
L 246.088847 125.293993 
L 246.088847 121.521584 
L 246.816193 121.521584 
L 246.816193 117.749175 
L 247.989703 117.749175 
L 247.989703 113.976766 
L 248.308084 113.976766 
L 248.364242 106.431947 
L 248.679624 106.431947 
L 248.688469 98.887129 
L 249.74616 98.887129 
L 249.771114 91.34231 
L 249.961629 91.34231 
L 249.961629 87.569901 
L 250.361595 87.569901 
L 250.383876 80.025083 
L 250.960056 80.025083 
L 250.960056 76.252673 
L 251.326428 76.252673 
L 251.326428 72.480264 
L 252.422283 72.480264 
L 252.457384 64.935446 
L 252.644565 64.935446 
L 252.644565 61.163036 
L 253.189656 61.163036 
L 253.189656 57.390627 
L 255.498434 57.390627 
L 255.498434 53.618218 
L 255.854013 53.618218 
L 255.854013 49.845809 
L 257.972703 49.845809 
L 257.972703 46.073399 
L 258.541437 46.073399 
L 258.541437 42.30099 
L 258.910759 42.30099 
L 258.910759 38.528581 
L 259.23815 38.528581 
L 259.23815 34.756172 
L 261.791877 34.756172 
L 261.791877 30.983762 
L 262.395264 30.983762 
L 262.395264 27.211353 
L 262.633977 27.211353 
L 262.700161 19.666535 
L 263.341094 19.666535 
L 263.341094 15.894125 
L 265.319109 15.894125 
L 265.319109 12.121716 
L 265.667122 12.121716 
L 265.667122 8.349307 
L 265.667122 8.349307 
L 450.672 8.349307 
L 450.672 8.349307 
" style="fill:none;stroke:#000000;stroke-linecap:square;stroke-width:1.5;"/>
   </g>
   <g id="line2d_27">
    <path clip-path="url(#pe12c326835)" d="M 192.831828 291.28 
L 192.831828 234.693861 
L 221.076725 234.693861 
L 221.076725 230.921452 
L 223.398554 230.921452 
L 223.398554 227.149043 
L 223.92651 227.149043 
L 223.92651 223.376634 
L 224.063502 223.376634 
L 224.063502 219.604224 
L 227.028723 219.604224 
L 227.028723 215.831815 
L 227.316729 215.831815 
L 227.340291 208.286997 
L 228.800238 208.286997 
L 228.800238 204.514587 
L 229.228606 204.514587 
L 229.228606 200.742178 
L 229.480156 200.742178 
L 229.551937 193.19736 
L 230.233573 193.19736 
L 230.233573 189.42495 
L 231.06821 189.42495 
L 231.06821 185.652541 
L 231.555506 185.652541 
L 231.555506 181.880132 
L 232.396991 181.880132 
L 232.396991 178.107723 
L 232.552747 178.107723 
L 232.552747 174.335314 
L 233.216625 174.335314 
L 233.216625 170.562904 
L 234.555723 170.562904 
L 234.555723 166.790495 
L 238.675958 166.790495 
L 238.728249 159.245677 
L 239.152209 159.245677 
L 239.152209 155.473267 
L 239.461481 155.473267 
L 239.487358 147.928449 
L 239.994367 147.928449 
L 239.994367 144.15604 
L 240.521612 144.15604 
L 240.583916 136.611221 
L 240.672331 136.611221 
L 240.672331 132.838812 
L 241.696759 132.838812 
L 241.696759 129.066403 
L 241.902407 129.066403 
L 241.902407 125.293993 
L 242.079208 125.293993 
L 242.079208 121.521584 
L 242.991242 121.521584 
L 242.991242 117.749175 
L 243.594527 117.749175 
L 243.594527 113.976766 
L 243.768295 113.976766 
L 243.768295 110.204356 
L 243.883757 110.204356 
L 243.883757 106.431947 
L 244.050593 106.431947 
L 244.050593 102.659538 
L 244.30924 102.659538 
L 244.30924 98.887129 
L 244.557202 98.887129 
L 244.624509 91.34231 
L 244.79614 91.34231 
L 244.79614 87.569901 
L 245.314896 87.569901 
L 245.314896 83.797492 
L 246.088847 83.797492 
L 246.088847 80.025083 
L 246.365569 80.025083 
L 246.365569 76.252673 
L 247.164987 76.252673 
L 247.164987 72.480264 
L 247.504266 72.480264 
L 247.504266 68.707855 
L 248.72141 68.707855 
L 248.72141 64.935446 
L 251.326428 64.935446 
L 251.326428 61.163036 
L 251.616794 61.163036 
L 251.616794 57.390627 
L 253.189656 57.390627 
L 253.189656 53.618218 
L 254.643029 53.618218 
L 254.643029 49.845809 
L 255.823356 49.845809 
L 255.854013 42.30099 
L 257.618438 42.30099 
L 257.652046 34.756172 
L 258.541437 34.756172 
L 258.541437 30.983762 
L 258.910759 30.983762 
L 258.910759 27.211353 
L 259.23815 27.211353 
L 259.23815 23.438944 
L 259.359894 23.438944 
L 259.359894 19.666535 
L 261.622444 19.666535 
L 261.622444 15.894125 
L 262.75814 15.894125 
L 262.846543 8.349307 
L 262.846543 8.349307 
L 450.672 8.349307 
L 450.672 8.349307 
" style="fill:none;stroke:#00bfbf;stroke-linecap:square;stroke-width:1.5;"/>
   </g>
   <g id="line2d_28">
    <path clip-path="url(#pe12c326835)" d="M 192.831828 291.28 
L 192.831828 234.693861 
L 204.033839 234.693861 
L 204.033839 230.921452 
L 204.816351 230.921452 
L 204.816351 227.149043 
L 207.39832 227.149043 
L 207.39832 223.376634 
L 210.120454 223.376634 
L 210.120454 219.604224 
L 211.781561 219.604224 
L 211.781561 215.831815 
L 212.024994 215.831815 
L 212.039097 208.286997 
L 212.566832 208.286997 
L 212.566832 204.514587 
L 212.770024 204.514587 
L 212.770024 200.742178 
L 214.909896 200.742178 
L 214.909896 196.969769 
L 215.375614 196.969769 
L 215.375614 193.19736 
L 215.657587 193.19736 
L 215.657587 189.42495 
L 216.11991 189.42495 
L 216.11991 185.652541 
L 216.511581 185.652541 
L 216.511581 181.880132 
L 219.248719 181.880132 
L 219.248719 178.107723 
L 219.505287 178.107723 
L 219.505287 174.335314 
L 219.788414 174.335314 
L 219.788414 170.562904 
L 221.41001 170.562904 
L 221.41001 166.790495 
L 222.334985 166.790495 
L 222.334985 163.018086 
L 225.725881 163.018086 
L 225.725881 159.245677 
L 226.708659 159.245677 
L 226.708659 155.473267 
L 227.054137 155.473267 
L 227.054137 151.700858 
L 227.344762 151.700858 
L 227.344762 147.928449 
L 228.374148 147.928449 
L 228.374148 144.15604 
L 228.740628 144.15604 
L 228.740628 140.38363 
L 229.158441 140.38363 
L 229.158441 136.611221 
L 229.631565 136.611221 
L 229.631565 132.838812 
L 230.879113 132.838812 
L 230.879113 129.066403 
L 231.06821 129.066403 
L 231.06821 125.293993 
L 231.319627 125.293993 
L 231.319627 121.521584 
L 231.981748 121.521584 
L 232.005864 113.976766 
L 232.118385 113.976766 
L 232.118385 110.204356 
L 233.336096 110.204356 
L 233.336096 106.431947 
L 233.46487 106.431947 
L 233.557897 98.887129 
L 233.876946 98.887129 
L 233.876946 95.114719 
L 233.994565 95.114719 
L 234.098988 83.797492 
L 234.369236 83.797492 
L 234.369236 80.025083 
L 234.653035 80.025083 
L 234.653035 76.252673 
L 235.437723 76.252673 
L 235.437723 72.480264 
L 235.678949 72.480264 
L 235.678949 68.707855 
L 237.320419 68.707855 
L 237.320419 64.935446 
L 240.608192 64.935446 
L 240.608192 61.163036 
L 240.767099 61.163036 
L 240.767099 57.390627 
L 241.544617 57.390627 
L 241.544617 53.618218 
L 241.755433 53.618218 
L 241.755433 49.845809 
L 242.542882 49.845809 
L 242.542882 46.073399 
L 244.536002 46.073399 
L 244.536002 42.30099 
L 245.049029 42.30099 
L 245.049029 38.528581 
L 245.226413 38.528581 
L 245.226413 34.756172 
L 245.740215 34.756172 
L 245.759408 27.211353 
L 245.900258 27.211353 
L 245.900258 23.438944 
L 246.354876 23.438944 
L 246.354876 19.666535 
L 247.009086 19.666535 
L 247.009086 15.894125 
L 248.424502 15.894125 
L 248.424502 12.121716 
L 248.667038 12.121716 
L 248.667038 8.349307 
L 248.667038 8.349307 
L 450.672 8.349307 
L 450.672 8.349307 
" style="fill:none;stroke:#bf00bf;stroke-linecap:square;stroke-width:1.5;"/>
   </g>
   <g id="line2d_29">
    <path clip-path="url(#pe12c326835)" d="M 106.356102 291.28 
L 106.356102 287.507591 
L 107.48016 287.507591 
L 107.48016 283.735182 
L 113.173974 283.735182 
L 113.173974 279.962772 
L 124.923038 279.962772 
L 124.923038 276.190363 
L 131.556384 276.190363 
L 131.556384 272.417954 
L 141.192971 272.417954 
L 141.192971 268.645545 
L 143.326578 268.645545 
L 143.326578 264.873135 
L 145.782972 264.873135 
L 145.782972 261.100726 
L 146.641413 261.100726 
L 146.641413 257.328317 
L 151.716551 257.328317 
L 151.716551 253.555908 
L 156.220771 253.555908 
L 156.220771 249.783498 
L 159.479312 249.783498 
L 159.479312 246.011089 
L 162.611854 246.011089 
L 162.611854 242.23868 
L 163.184906 242.23868 
L 163.184906 238.466271 
L 164.960445 238.466271 
L 164.960445 234.693861 
L 169.901052 234.693861 
L 169.901052 230.921452 
L 172.919983 230.921452 
L 172.919983 227.149043 
L 174.142532 227.149043 
L 174.142532 223.376634 
L 176.284335 223.376634 
L 176.284335 219.604224 
L 177.754494 219.604224 
L 177.754494 215.831815 
L 178.655978 215.831815 
L 178.655978 212.059406 
L 180.844504 212.059406 
L 180.844504 208.286997 
L 182.089386 208.286997 
L 182.089386 204.514587 
L 182.452043 204.514587 
L 182.452043 200.742178 
L 182.781707 200.742178 
L 182.781707 196.969769 
L 183.044982 196.969769 
L 183.044982 193.19736 
L 183.562755 193.19736 
L 183.562755 189.42495 
L 184.460232 189.42495 
L 184.460232 185.652541 
L 186.489924 185.652541 
L 186.489924 181.880132 
L 187.155313 181.880132 
L 187.155313 178.107723 
L 189.216325 178.107723 
L 189.216325 174.335314 
L 190.714959 174.335314 
L 190.714959 170.562904 
L 191.224573 170.562904 
L 191.224573 166.790495 
L 191.76705 166.790495 
L 191.76705 163.018086 
L 192.831828 163.018086 
L 192.831828 121.521584 
L 194.893054 121.521584 
L 194.893054 117.749175 
L 197.539087 117.749175 
L 197.539087 113.976766 
L 199.330871 113.976766 
L 199.330871 110.204356 
L 202.755427 110.204356 
L 202.755427 106.431947 
L 203.33185 106.431947 
L 203.33185 102.659538 
L 204.827266 102.659538 
L 204.827266 98.887129 
L 205.97351 98.887129 
L 205.97351 95.114719 
L 208.01147 95.114719 
L 208.01147 91.34231 
L 210.040714 91.34231 
L 210.040714 87.569901 
L 210.764348 87.569901 
L 210.764348 83.797492 
L 211.267528 83.797492 
L 211.267528 80.025083 
L 211.852698 80.025083 
L 211.852698 76.252673 
L 212.455716 76.252673 
L 212.455716 72.480264 
L 213.43036 72.480264 
L 213.43036 68.707855 
L 215.563411 68.707855 
L 215.641555 57.390627 
L 218.445297 57.390627 
L 218.445297 53.618218 
L 219.359657 53.618218 
L 219.359657 49.845809 
L 220.097664 49.845809 
L 220.098094 42.30099 
L 223.199027 42.30099 
L 223.262625 30.983762 
L 227.723343 30.983762 
L 227.723351 23.438944 
L 229.419245 23.438944 
L 229.419245 19.666535 
L 230.88829 19.666535 
L 230.888297 12.121716 
L 237.966099 12.121716 
L 237.966099 8.349307 
L 237.966099 8.349307 
L 450.672 8.349307 
L 450.672 8.349307 
" style="fill:none;stroke:#000000;stroke-linecap:square;stroke-width:1.5;"/>
   </g>
   <g id="patch_3">
    <path d="M 5.52 291.28 
L 5.52 5.52 
" style="fill:none;stroke:#000000;stroke-linecap:square;stroke-linejoin:miter;stroke-width:0.8;"/>
   </g>
   <g id="patch_4">
    <path d="M 450.672 291.28 
L 450.672 5.52 
" style="fill:none;stroke:#000000;stroke-linecap:square;stroke-linejoin:miter;stroke-width:0.8;"/>
   </g>
   <g id="patch_5">
    <path d="M 5.52 291.28 
L 450.672 291.28 
" style="fill:none;stroke:#000000;stroke-linecap:square;stroke-linejoin:miter;stroke-width:0.8;"/>
   </g>
   <g id="patch_6">
    <path d="M 5.52 5.52 
L 450.672 5.52 
" style="fill:none;stroke:#000000;stroke-linecap:square;stroke-linejoin:miter;stroke-width:0.8;"/>
   </g>
   <g id="text_6">
    <!-- {f15-f19}, 5-D -->
    <defs>
     <path d="M 51.125 -9.28125 
L 51.125 -16.3125 
L 48.09375 -16.3125 
Q 35.9375 -16.3125 31.8125 -12.6875 
Q 27.6875 -9.078125 27.6875 1.703125 
L 27.6875 13.375 
Q 27.6875 20.75 25.046875 23.578125 
Q 22.40625 26.421875 15.484375 26.421875 
L 12.5 26.421875 
L 12.5 33.40625 
L 15.484375 33.40625 
Q 22.46875 33.40625 25.078125 36.203125 
Q 27.6875 39.015625 27.6875 46.296875 
L 27.6875 58.015625 
Q 27.6875 68.796875 31.8125 72.390625 
Q 35.9375 75.984375 48.09375 75.984375 
L 51.125 75.984375 
L 51.125 69 
L 47.796875 69 
Q 40.921875 69 38.8125 66.84375 
Q 36.71875 64.703125 36.71875 57.8125 
L 36.71875 45.703125 
Q 36.71875 38.03125 34.5 34.5625 
Q 32.28125 31.109375 26.90625 29.890625 
Q 32.328125 28.5625 34.515625 25.09375 
Q 36.71875 21.625 36.71875 14.015625 
L 36.71875 1.90625 
Q 36.71875 -4.984375 38.8125 -7.125 
Q 40.921875 -9.28125 47.796875 -9.28125 
z
" id="DejaVuSans-7b"/>
     <path d="M 10.796875 72.90625 
L 49.515625 72.90625 
L 49.515625 64.59375 
L 19.828125 64.59375 
L 19.828125 46.734375 
Q 21.96875 47.46875 24.109375 47.828125 
Q 26.265625 48.1875 28.421875 48.1875 
Q 40.625 48.1875 47.75 41.5 
Q 54.890625 34.8125 54.890625 23.390625 
Q 54.890625 11.625 47.5625 5.09375 
Q 40.234375 -1.421875 26.90625 -1.421875 
Q 22.3125 -1.421875 17.546875 -0.640625 
Q 12.796875 0.140625 7.71875 1.703125 
L 7.71875 11.625 
Q 12.109375 9.234375 16.796875 8.0625 
Q 21.484375 6.890625 26.703125 6.890625 
Q 35.15625 6.890625 40.078125 11.328125 
Q 45.015625 15.765625 45.015625 23.390625 
Q 45.015625 31 40.078125 35.4375 
Q 35.15625 39.890625 26.703125 39.890625 
Q 22.75 39.890625 18.8125 39.015625 
Q 14.890625 38.140625 10.796875 36.28125 
z
" id="DejaVuSans-35"/>
     <path d="M 10.984375 1.515625 
L 10.984375 10.5 
Q 14.703125 8.734375 18.5 7.8125 
Q 22.3125 6.890625 25.984375 6.890625 
Q 35.75 6.890625 40.890625 13.453125 
Q 46.046875 20.015625 46.78125 33.40625 
Q 43.953125 29.203125 39.59375 26.953125 
Q 35.25 24.703125 29.984375 24.703125 
Q 19.046875 24.703125 12.671875 31.3125 
Q 6.296875 37.9375 6.296875 49.421875 
Q 6.296875 60.640625 12.9375 67.421875 
Q 19.578125 74.21875 30.609375 74.21875 
Q 43.265625 74.21875 49.921875 64.515625 
Q 56.59375 54.828125 56.59375 36.375 
Q 56.59375 19.140625 48.40625 8.859375 
Q 40.234375 -1.421875 26.421875 -1.421875 
Q 22.703125 -1.421875 18.890625 -0.6875 
Q 15.09375 0.046875 10.984375 1.515625 
z
M 30.609375 32.421875 
Q 37.25 32.421875 41.125 36.953125 
Q 45.015625 41.5 45.015625 49.421875 
Q 45.015625 57.28125 41.125 61.84375 
Q 37.25 66.40625 30.609375 66.40625 
Q 23.96875 66.40625 20.09375 61.84375 
Q 16.21875 57.28125 16.21875 49.421875 
Q 16.21875 41.5 20.09375 36.953125 
Q 23.96875 32.421875 30.609375 32.421875 
z
" id="DejaVuSans-39"/>
     <path d="M 12.5 -9.28125 
L 15.921875 -9.28125 
Q 22.75 -9.28125 24.828125 -7.171875 
Q 26.90625 -5.078125 26.90625 1.90625 
L 26.90625 14.015625 
Q 26.90625 21.625 29.09375 25.09375 
Q 31.296875 28.5625 36.71875 29.890625 
Q 31.296875 31.109375 29.09375 34.5625 
Q 26.90625 38.03125 26.90625 45.703125 
L 26.90625 57.8125 
Q 26.90625 64.75 24.828125 66.875 
Q 22.75 69 15.921875 69 
L 12.5 69 
L 12.5 75.984375 
L 15.578125 75.984375 
Q 27.734375 75.984375 31.8125 72.390625 
Q 35.890625 68.796875 35.890625 58.015625 
L 35.890625 46.296875 
Q 35.890625 39.015625 38.515625 36.203125 
Q 41.15625 33.40625 48.09375 33.40625 
L 51.125 33.40625 
L 51.125 26.421875 
L 48.09375 26.421875 
Q 41.15625 26.421875 38.515625 23.578125 
Q 35.890625 20.75 35.890625 13.375 
L 35.890625 1.703125 
Q 35.890625 -9.078125 31.8125 -12.6875 
Q 27.734375 -16.3125 15.578125 -16.3125 
L 12.5 -16.3125 
z
" id="DejaVuSans-7d"/>
     <path d="M 11.71875 12.40625 
L 22.015625 12.40625 
L 22.015625 4 
L 14.015625 -11.625 
L 7.71875 -11.625 
L 11.71875 4 
z
" id="DejaVuSans-2c"/>
    </defs>
    <g transform="translate(296.06896 285.5648)scale(0.2 -0.2)">
     <use xlink:href="#DejaVuSans-7b"/>
     <use x="63.623047" xlink:href="#DejaVuSans-66"/>
     <use x="98.828125" xlink:href="#DejaVuSans-31"/>
     <use x="162.451172" xlink:href="#DejaVuSans-35"/>
     <use x="226.074219" xlink:href="#DejaVuSans-2d"/>
     <use x="262.158203" xlink:href="#DejaVuSans-66"/>
     <use x="297.363281" xlink:href="#DejaVuSans-31"/>
     <use x="360.986328" xlink:href="#DejaVuSans-39"/>
     <use x="424.609375" xlink:href="#DejaVuSans-7d"/>
     <use x="488.232422" xlink:href="#DejaVuSans-2c"/>
     <use x="520.019531" xlink:href="#DejaVuSans-20"/>
     <use x="551.806641" xlink:href="#DejaVuSans-35"/>
     <use x="615.429688" xlink:href="#DejaVuSans-2d"/>
     <use x="651.513672" xlink:href="#DejaVuSans-44"/>
    </g>
   </g>
   <g id="text_7">
    <!-- v0.0.0 -->
    <defs>
     <path d="M 2.984375 54.6875 
L 12.5 54.6875 
L 29.59375 8.796875 
L 46.6875 54.6875 
L 56.203125 54.6875 
L 35.6875 0 
L 23.484375 0 
z
" id="DejaVuSans-76"/>
     <path d="M 10.6875 12.40625 
L 21 12.40625 
L 21 0 
L 10.6875 0 
z
" id="DejaVuSans-2e"/>
    </defs>
    <g style="fill:#808080;" transform="translate(212.41475 286.342713)scale(0.1 -0.1)">
     <use xlink:href="#DejaVuSans-76"/>
     <use x="59.179688" xlink:href="#DejaVuSans-30"/>
     <use x="122.802734" xlink:href="#DejaVuSans-2e"/>
     <use x="154.589844" xlink:href="#DejaVuSans-30"/>
     <use x="218.212891" xlink:href="#DejaVuSans-2e"/>
     <use x="250" xlink:href="#DejaVuSans-30"/>
    </g>
   </g>
  </g>
 </g>
 <defs>
  <clipPath id="pe12c326835">
   <rect height="285.76" width="445.152" x="5.52" y="5.52"/>
  </clipPath>
 </defs>
</svg>
