<?xml version="1.0" encoding="utf-8" standalone="no"?>
<!DOCTYPE svg PUBLIC "-//W3C//DTD SVG 1.1//EN"
  "http://www.w3.org/Graphics/SVG/1.1/DTD/svg11.dtd">
<!-- Created with matplotlib (http://matplotlib.org/) -->
<svg height="345.6pt" version="1.1" viewBox="0 0 460.8 345.6" width="460.8pt" xmlns="http://www.w3.org/2000/svg" xmlns:xlink="http://www.w3.org/1999/xlink">
 <defs>
  <style type="text/css">
*{stroke-linecap:butt;stroke-linejoin:round;}
  </style>
 </defs>
 <g id="figure_1">
  <g id="patch_1">
   <path d="M 0 345.6 
L 460.8 345.6 
L 460.8 0 
L 0 0 
z
" style="fill:#ffffff;"/>
  </g>
  <g id="axes_1">
   <g id="patch_2">
    <path d="M 5.52 291.28 
L 450.672 291.28 
L 450.672 5.52 
L 5.52 5.52 
z
" style="fill:#ffffff;"/>
   </g>
   <g id="matplotlib.axis_1">
    <g id="xtick_1">
     <g id="line2d_1">
      <path clip-path="url(#p7abb7bce22)" d="M 5.410826 291.28 
L 5.410826 5.52 
" style="fill:none;stroke:#b0b0b0;stroke-linecap:square;stroke-width:0.8;"/>
     </g>
     <g id="line2d_2">
      <defs>
       <path d="M 0 0 
L 0 3.5 
" id="mb119206517" style="stroke:#000000;stroke-width:0.8;"/>
      </defs>
      <g>
       <use style="stroke:#000000;stroke-width:0.8;" x="5.410826" xlink:href="#mb119206517" y="291.28"/>
      </g>
     </g>
    </g>
    <g id="xtick_2">
     <g id="line2d_3">
      <path clip-path="url(#p7abb7bce22)" d="M 106.465894 291.28 
L 106.465894 5.52 
" style="fill:none;stroke:#b0b0b0;stroke-linecap:square;stroke-width:0.8;"/>
     </g>
     <g id="line2d_4">
      <g>
       <use style="stroke:#000000;stroke-width:0.8;" x="106.465894" xlink:href="#mb119206517" y="291.28"/>
      </g>
     </g>
     <g id="text_1">
      <!-- -4 -->
      <defs>
       <path d="M 4.890625 31.390625 
L 31.203125 31.390625 
L 31.203125 23.390625 
L 4.890625 23.390625 
z
" id="DejaVuSans-2d"/>
       <path d="M 37.796875 64.3125 
L 12.890625 25.390625 
L 37.796875 25.390625 
z
M 35.203125 72.90625 
L 47.609375 72.90625 
L 47.609375 25.390625 
L 58.015625 25.390625 
L 58.015625 17.1875 
L 47.609375 17.1875 
L 47.609375 0 
L 37.796875 0 
L 37.796875 17.1875 
L 4.890625 17.1875 
L 4.890625 26.703125 
z
" id="DejaVuSans-34"/>
      </defs>
      <g transform="translate(96.495582 313.476875)scale(0.2 -0.2)">
       <use xlink:href="#DejaVuSans-2d"/>
       <use x="36.083984" xlink:href="#DejaVuSans-34"/>
      </g>
     </g>
    </g>
    <g id="xtick_3">
     <g id="line2d_5">
      <path clip-path="url(#p7abb7bce22)" d="M 207.520963 291.28 
L 207.520963 5.52 
" style="fill:none;stroke:#b0b0b0;stroke-linecap:square;stroke-width:0.8;"/>
     </g>
     <g id="line2d_6">
      <g>
       <use style="stroke:#000000;stroke-width:0.8;" x="207.520963" xlink:href="#mb119206517" y="291.28"/>
      </g>
     </g>
     <g id="text_2">
      <!-- 0 -->
      <defs>
       <path d="M 31.78125 66.40625 
Q 24.171875 66.40625 20.328125 58.90625 
Q 16.5 51.421875 16.5 36.375 
Q 16.5 21.390625 20.328125 13.890625 
Q 24.171875 6.390625 31.78125 6.390625 
Q 39.453125 6.390625 43.28125 13.890625 
Q 47.125 21.390625 47.125 36.375 
Q 47.125 51.421875 43.28125 58.90625 
Q 39.453125 66.40625 31.78125 66.40625 
z
M 31.78125 74.21875 
Q 44.046875 74.21875 50.515625 64.515625 
Q 56.984375 54.828125 56.984375 36.375 
Q 56.984375 17.96875 50.515625 8.265625 
Q 44.046875 -1.421875 31.78125 -1.421875 
Q 19.53125 -1.421875 13.0625 8.265625 
Q 6.59375 17.96875 6.59375 36.375 
Q 6.59375 54.828125 13.0625 64.515625 
Q 19.53125 74.21875 31.78125 74.21875 
z
" id="DejaVuSans-30"/>
      </defs>
      <g transform="translate(201.158463 313.476875)scale(0.2 -0.2)">
       <use xlink:href="#DejaVuSans-30"/>
      </g>
     </g>
    </g>
    <g id="xtick_4">
     <g id="line2d_7">
      <path clip-path="url(#p7abb7bce22)" d="M 308.576031 291.28 
L 308.576031 5.52 
" style="fill:none;stroke:#b0b0b0;stroke-linecap:square;stroke-width:0.8;"/>
     </g>
     <g id="line2d_8">
      <g>
       <use style="stroke:#000000;stroke-width:0.8;" x="308.576031" xlink:href="#mb119206517" y="291.28"/>
      </g>
     </g>
     <g id="text_3">
      <!-- 4 -->
      <g transform="translate(302.213531 313.476875)scale(0.2 -0.2)">
       <use xlink:href="#DejaVuSans-34"/>
      </g>
     </g>
    </g>
    <g id="xtick_5">
     <g id="line2d_9">
      <path clip-path="url(#p7abb7bce22)" d="M 409.631099 291.28 
L 409.631099 5.52 
" style="fill:none;stroke:#b0b0b0;stroke-linecap:square;stroke-width:0.8;"/>
     </g>
     <g id="line2d_10">
      <g>
       <use style="stroke:#000000;stroke-width:0.8;" x="409.631099" xlink:href="#mb119206517" y="291.28"/>
      </g>
     </g>
     <g id="text_4">
      <!-- 8 -->
      <defs>
       <path d="M 31.78125 34.625 
Q 24.75 34.625 20.71875 30.859375 
Q 16.703125 27.09375 16.703125 20.515625 
Q 16.703125 13.921875 20.71875 10.15625 
Q 24.75 6.390625 31.78125 6.390625 
Q 38.8125 6.390625 42.859375 10.171875 
Q 46.921875 13.96875 46.921875 20.515625 
Q 46.921875 27.09375 42.890625 30.859375 
Q 38.875 34.625 31.78125 34.625 
z
M 21.921875 38.8125 
Q 15.578125 40.375 12.03125 44.71875 
Q 8.5 49.078125 8.5 55.328125 
Q 8.5 64.0625 14.71875 69.140625 
Q 20.953125 74.21875 31.78125 74.21875 
Q 42.671875 74.21875 48.875 69.140625 
Q 55.078125 64.0625 55.078125 55.328125 
Q 55.078125 49.078125 51.53125 44.71875 
Q 48 40.375 41.703125 38.8125 
Q 48.828125 37.15625 52.796875 32.3125 
Q 56.78125 27.484375 56.78125 20.515625 
Q 56.78125 9.90625 50.3125 4.234375 
Q 43.84375 -1.421875 31.78125 -1.421875 
Q 19.734375 -1.421875 13.25 4.234375 
Q 6.78125 9.90625 6.78125 20.515625 
Q 6.78125 27.484375 10.78125 32.3125 
Q 14.796875 37.15625 21.921875 38.8125 
z
M 18.3125 54.390625 
Q 18.3125 48.734375 21.84375 45.5625 
Q 25.390625 42.390625 31.78125 42.390625 
Q 38.140625 42.390625 41.71875 45.5625 
Q 45.3125 48.734375 45.3125 54.390625 
Q 45.3125 60.0625 41.71875 63.234375 
Q 38.140625 66.40625 31.78125 66.40625 
Q 25.390625 66.40625 21.84375 63.234375 
Q 18.3125 60.0625 18.3125 54.390625 
z
" id="DejaVuSans-38"/>
      </defs>
      <g transform="translate(403.268599 313.476875)scale(0.2 -0.2)">
       <use xlink:href="#DejaVuSans-38"/>
      </g>
     </g>
    </g>
    <g id="text_5">
     <!-- log10 of Df -->
     <defs>
      <path d="M 9.421875 75.984375 
L 18.40625 75.984375 
L 18.40625 0 
L 9.421875 0 
z
" id="DejaVuSans-6c"/>
      <path d="M 30.609375 48.390625 
Q 23.390625 48.390625 19.1875 42.75 
Q 14.984375 37.109375 14.984375 27.296875 
Q 14.984375 17.484375 19.15625 11.84375 
Q 23.34375 6.203125 30.609375 6.203125 
Q 37.796875 6.203125 41.984375 11.859375 
Q 46.1875 17.53125 46.1875 27.296875 
Q 46.1875 37.015625 41.984375 42.703125 
Q 37.796875 48.390625 30.609375 48.390625 
z
M 30.609375 56 
Q 42.328125 56 49.015625 48.375 
Q 55.71875 40.765625 55.71875 27.296875 
Q 55.71875 13.875 49.015625 6.21875 
Q 42.328125 -1.421875 30.609375 -1.421875 
Q 18.84375 -1.421875 12.171875 6.21875 
Q 5.515625 13.875 5.515625 27.296875 
Q 5.515625 40.765625 12.171875 48.375 
Q 18.84375 56 30.609375 56 
z
" id="DejaVuSans-6f"/>
      <path d="M 45.40625 27.984375 
Q 45.40625 37.75 41.375 43.109375 
Q 37.359375 48.484375 30.078125 48.484375 
Q 22.859375 48.484375 18.828125 43.109375 
Q 14.796875 37.75 14.796875 27.984375 
Q 14.796875 18.265625 18.828125 12.890625 
Q 22.859375 7.515625 30.078125 7.515625 
Q 37.359375 7.515625 41.375 12.890625 
Q 45.40625 18.265625 45.40625 27.984375 
z
M 54.390625 6.78125 
Q 54.390625 -7.171875 48.1875 -13.984375 
Q 42 -20.796875 29.203125 -20.796875 
Q 24.46875 -20.796875 20.265625 -20.09375 
Q 16.0625 -19.390625 12.109375 -17.921875 
L 12.109375 -9.1875 
Q 16.0625 -11.328125 19.921875 -12.34375 
Q 23.78125 -13.375 27.78125 -13.375 
Q 36.625 -13.375 41.015625 -8.765625 
Q 45.40625 -4.15625 45.40625 5.171875 
L 45.40625 9.625 
Q 42.625 4.78125 38.28125 2.390625 
Q 33.9375 0 27.875 0 
Q 17.828125 0 11.671875 7.65625 
Q 5.515625 15.328125 5.515625 27.984375 
Q 5.515625 40.671875 11.671875 48.328125 
Q 17.828125 56 27.875 56 
Q 33.9375 56 38.28125 53.609375 
Q 42.625 51.21875 45.40625 46.390625 
L 45.40625 54.6875 
L 54.390625 54.6875 
z
" id="DejaVuSans-67"/>
      <path d="M 12.40625 8.296875 
L 28.515625 8.296875 
L 28.515625 63.921875 
L 10.984375 60.40625 
L 10.984375 69.390625 
L 28.421875 72.90625 
L 38.28125 72.90625 
L 38.28125 8.296875 
L 54.390625 8.296875 
L 54.390625 0 
L 12.40625 0 
z
" id="DejaVuSans-31"/>
      <path id="DejaVuSans-20"/>
      <path d="M 37.109375 75.984375 
L 37.109375 68.5 
L 28.515625 68.5 
Q 23.6875 68.5 21.796875 66.546875 
Q 19.921875 64.59375 19.921875 59.515625 
L 19.921875 54.6875 
L 34.71875 54.6875 
L 34.71875 47.703125 
L 19.921875 47.703125 
L 19.921875 0 
L 10.890625 0 
L 10.890625 47.703125 
L 2.296875 47.703125 
L 2.296875 54.6875 
L 10.890625 54.6875 
L 10.890625 58.5 
Q 10.890625 67.625 15.140625 71.796875 
Q 19.390625 75.984375 28.609375 75.984375 
z
" id="DejaVuSans-66"/>
      <path d="M 19.671875 64.796875 
L 19.671875 8.109375 
L 31.59375 8.109375 
Q 46.6875 8.109375 53.6875 14.9375 
Q 60.6875 21.78125 60.6875 36.53125 
Q 60.6875 51.171875 53.6875 57.984375 
Q 46.6875 64.796875 31.59375 64.796875 
z
M 9.8125 72.90625 
L 30.078125 72.90625 
Q 51.265625 72.90625 61.171875 64.09375 
Q 71.09375 55.28125 71.09375 36.53125 
Q 71.09375 17.671875 61.125 8.828125 
Q 51.171875 0 30.078125 0 
L 9.8125 0 
z
" id="DejaVuSans-44"/>
     </defs>
     <g transform="translate(172.910063 336.833125)scale(0.2 -0.2)">
      <use xlink:href="#DejaVuSans-6c"/>
      <use x="27.783203" xlink:href="#DejaVuSans-6f"/>
      <use x="88.964844" xlink:href="#DejaVuSans-67"/>
      <use x="152.441406" xlink:href="#DejaVuSans-31"/>
      <use x="216.064453" xlink:href="#DejaVuSans-30"/>
      <use x="279.6875" xlink:href="#DejaVuSans-20"/>
      <use x="311.474609" xlink:href="#DejaVuSans-6f"/>
      <use x="372.65625" xlink:href="#DejaVuSans-66"/>
      <use x="407.861328" xlink:href="#DejaVuSans-20"/>
      <use x="439.648438" xlink:href="#DejaVuSans-44"/>
      <use x="516.650391" xlink:href="#DejaVuSans-66"/>
     </g>
    </g>
   </g>
   <g id="matplotlib.axis_2">
    <g id="ytick_1">
     <g id="line2d_11">
      <path clip-path="url(#p7abb7bce22)" d="M 5.52 291.28 
L 450.672 291.28 
" style="fill:none;stroke:#b0b0b0;stroke-linecap:square;stroke-width:0.8;"/>
     </g>
     <g id="line2d_12">
      <defs>
       <path d="M 0 0 
L -3.5 0 
" id="m5e846c3040" style="stroke:#000000;stroke-width:0.8;"/>
      </defs>
      <g>
       <use style="stroke:#000000;stroke-width:0.8;" x="5.52" xlink:href="#m5e846c3040" y="291.28"/>
      </g>
     </g>
    </g>
    <g id="ytick_2">
     <g id="line2d_13">
      <path clip-path="url(#p7abb7bce22)" d="M 5.52 234.693861 
L 450.672 234.693861 
" style="fill:none;stroke:#b0b0b0;stroke-linecap:square;stroke-width:0.8;"/>
     </g>
     <g id="line2d_14">
      <g>
       <use style="stroke:#000000;stroke-width:0.8;" x="5.52" xlink:href="#m5e846c3040" y="234.693861"/>
      </g>
     </g>
    </g>
    <g id="ytick_3">
     <g id="line2d_15">
      <path clip-path="url(#p7abb7bce22)" d="M 5.52 178.107723 
L 450.672 178.107723 
" style="fill:none;stroke:#b0b0b0;stroke-linecap:square;stroke-width:0.8;"/>
     </g>
     <g id="line2d_16">
      <g>
       <use style="stroke:#000000;stroke-width:0.8;" x="5.52" xlink:href="#m5e846c3040" y="178.107723"/>
      </g>
     </g>
    </g>
    <g id="ytick_4">
     <g id="line2d_17">
      <path clip-path="url(#p7abb7bce22)" d="M 5.52 121.521584 
L 450.672 121.521584 
" style="fill:none;stroke:#b0b0b0;stroke-linecap:square;stroke-width:0.8;"/>
     </g>
     <g id="line2d_18">
      <g>
       <use style="stroke:#000000;stroke-width:0.8;" x="5.52" xlink:href="#m5e846c3040" y="121.521584"/>
      </g>
     </g>
    </g>
    <g id="ytick_5">
     <g id="line2d_19">
      <path clip-path="url(#p7abb7bce22)" d="M 5.52 64.935446 
L 450.672 64.935446 
" style="fill:none;stroke:#b0b0b0;stroke-linecap:square;stroke-width:0.8;"/>
     </g>
     <g id="line2d_20">
      <g>
       <use style="stroke:#000000;stroke-width:0.8;" x="5.52" xlink:href="#m5e846c3040" y="64.935446"/>
      </g>
     </g>
    </g>
    <g id="ytick_6">
     <g id="line2d_21">
      <path clip-path="url(#p7abb7bce22)" d="M 5.52 8.349307 
L 450.672 8.349307 
" style="fill:none;stroke:#b0b0b0;stroke-linecap:square;stroke-width:0.8;"/>
     </g>
     <g id="line2d_22">
      <g>
       <use style="stroke:#000000;stroke-width:0.8;" x="5.52" xlink:href="#m5e846c3040" y="8.349307"/>
      </g>
     </g>
    </g>
   </g>
   <g id="line2d_23">
    <path clip-path="url(#p7abb7bce22)" d="M 207.26735 291.28 
L 207.26735 287.507591 
L 207.633507 287.507591 
L 207.633507 283.735182 
L 208.079876 283.735182 
L 208.079876 279.962772 
L 210.487792 279.962772 
L 210.487792 276.190363 
L 210.933412 276.190363 
L 210.933412 272.417954 
L 211.054041 272.417954 
L 211.054041 268.645545 
L 211.821195 268.645545 
L 211.825405 261.100726 
L 212.277005 261.100726 
L 212.277005 257.328317 
L 213.505963 257.328317 
L 213.505963 253.555908 
L 214.286261 253.555908 
L 214.286261 249.783498 
L 215.507835 249.783498 
L 215.507835 246.011089 
L 217.474677 246.011089 
L 217.474677 242.23868 
L 218.878049 242.23868 
L 218.878049 238.466271 
L 222.415418 238.466271 
L 222.415418 234.693861 
L 239.422863 234.693861 
L 239.422863 230.921452 
L 243.589125 230.921452 
L 243.589125 227.149043 
L 243.767817 227.149043 
L 243.767817 223.376634 
L 244.746127 223.376634 
L 244.789812 215.831815 
L 244.887362 215.831815 
L 244.887362 212.059406 
L 245.186349 212.059406 
L 245.186349 208.286997 
L 245.576055 208.286997 
L 245.576055 204.514587 
L 246.295436 204.514587 
L 246.295436 200.742178 
L 247.459187 200.742178 
L 247.459187 196.969769 
L 247.804687 196.969769 
L 247.804687 193.19736 
L 248.41716 193.19736 
L 248.41716 189.42495 
L 248.779342 189.42495 
L 248.779342 185.652541 
L 250.555054 185.652541 
L 250.555054 181.880132 
L 252.505979 181.880132 
L 252.505979 178.107723 
L 262.24532 178.107723 
L 262.24532 174.335314 
L 265.655129 174.335314 
L 265.655129 170.562904 
L 266.071858 170.562904 
L 266.071858 166.790495 
L 267.243844 166.790495 
L 267.243844 163.018086 
L 267.975948 163.018086 
L 267.975948 159.245677 
L 268.108753 159.245677 
L 268.140717 147.928449 
L 270.12424 147.928449 
L 270.12424 144.15604 
L 270.546199 144.15604 
L 270.546199 140.38363 
L 271.096941 140.38363 
L 271.096941 136.611221 
L 271.947332 136.611221 
L 271.947332 132.838812 
L 272.713747 132.838812 
L 272.713747 129.066403 
L 273.698907 129.066403 
L 273.747765 121.521584 
L 307.341815 121.521584 
L 307.341815 117.749175 
L 310.646218 117.749175 
L 310.646218 113.976766 
L 310.784151 113.976766 
L 310.784151 110.204356 
L 311.101621 110.204356 
L 311.101621 106.431947 
L 312.91852 106.431947 
L 312.91852 102.659538 
L 313.930736 102.659538 
L 313.930736 98.887129 
L 315.29415 98.887129 
L 315.29415 95.114719 
L 316.739004 95.114719 
L 316.739004 91.34231 
L 317.71466 91.34231 
L 317.71466 87.569901 
L 320.284755 87.569901 
L 320.284755 83.797492 
L 323.575311 83.797492 
L 323.575311 80.025083 
L 324.417828 80.025083 
L 324.417828 76.252673 
L 325.825608 76.252673 
L 325.825608 72.480264 
L 326.408406 72.480264 
L 326.408406 68.707855 
L 328.901913 68.707855 
L 328.901913 64.935446 
L 361.443571 64.935446 
L 361.443571 61.163036 
L 361.635367 61.163036 
L 361.635367 57.390627 
L 362.994537 57.390627 
L 362.994537 53.618218 
L 363.143024 53.618218 
L 363.143024 49.845809 
L 365.329211 49.845809 
L 365.329211 46.073399 
L 365.702014 46.073399 
L 365.702014 42.30099 
L 368.950051 42.30099 
L 368.950051 38.528581 
L 369.342715 38.528581 
L 369.342715 34.756172 
L 371.875511 34.756172 
L 371.875511 30.983762 
L 373.498633 30.983762 
L 373.498633 27.211353 
L 375.465642 27.211353 
L 375.465642 23.438944 
L 376.508663 23.438944 
L 376.508663 19.666535 
L 377.072803 19.666535 
L 377.072803 15.894125 
L 377.359859 15.894125 
L 377.359859 12.121716 
L 380.192161 12.121716 
L 380.192161 8.349307 
L 380.192161 8.349307 
L 450.672 8.349307 
L 450.672 8.349307 
" style="fill:none;stroke:#ff0000;stroke-linecap:square;stroke-width:3;"/>
   </g>
   <g id="line2d_24">
    <path clip-path="url(#p7abb7bce22)" d="M 238.553332 291.28 
L 238.553332 287.507591 
L 242.485122 287.507591 
L 242.485122 283.735182 
L 246.046096 283.735182 
L 246.046096 279.962772 
L 246.765622 279.962772 
L 246.765622 276.190363 
L 247.081121 276.190363 
L 247.081121 272.417954 
L 247.794005 272.417954 
L 247.794005 268.645545 
L 249.621322 268.645545 
L 249.621322 264.873135 
L 249.960505 264.873135 
L 249.960505 261.100726 
L 250.618506 261.100726 
L 250.618506 257.328317 
L 250.774046 257.328317 
L 250.868389 249.783498 
L 251.036174 249.783498 
L 251.036174 246.011089 
L 251.511324 246.011089 
L 251.511324 242.23868 
L 256.557079 242.23868 
L 256.557079 238.466271 
L 262.499489 238.466271 
L 262.499489 234.693861 
L 287.565506 234.693861 
L 287.565506 230.921452 
L 289.462309 230.921452 
L 289.462309 227.149043 
L 289.601549 227.149043 
L 289.601549 223.376634 
L 290.505388 223.376634 
L 290.505388 219.604224 
L 291.0193 219.604224 
L 291.109809 212.059406 
L 291.284528 212.059406 
L 291.284528 208.286997 
L 291.966507 208.286997 
L 292.006405 196.969769 
L 292.38958 196.969769 
L 292.419597 189.42495 
L 292.823933 189.42495 
L 292.823933 185.652541 
L 293.142475 185.652541 
L 293.142475 181.880132 
L 294.04492 181.880132 
L 294.04492 178.107723 
L 297.998767 178.107723 
L 297.998767 174.335314 
L 312.393053 174.335314 
L 312.393053 170.562904 
L 314.528165 170.562904 
L 314.528165 166.790495 
L 320.822174 166.790495 
L 320.822174 163.018086 
L 323.172921 163.018086 
L 323.172921 159.245677 
L 324.6823 159.245677 
L 324.6823 155.473267 
L 333.680015 155.473267 
L 333.680015 151.700858 
L 334.621573 151.700858 
L 334.621573 147.928449 
L 337.387871 147.928449 
L 337.387871 144.15604 
L 338.798065 144.15604 
L 338.798065 140.38363 
L 339.023603 140.38363 
L 339.023603 136.611221 
L 341.372906 136.611221 
L 341.372906 132.838812 
L 350.861454 132.838812 
L 350.861454 129.066403 
L 351.562395 129.066403 
L 351.562395 125.293993 
L 359.216467 125.293993 
L 359.216467 121.521584 
L 363.384483 121.521584 
L 363.384483 117.749175 
L 366.621129 117.749175 
L 366.621129 113.976766 
L 368.289945 113.976766 
L 368.289945 110.204356 
L 372.05305 110.204356 
L 372.05305 106.431947 
L 373.724691 106.431947 
L 373.724691 102.659538 
L 375.078959 102.659538 
L 375.078959 98.887129 
L 376.257097 98.887129 
L 376.257097 95.114719 
L 376.67409 95.114719 
L 376.67409 91.34231 
L 376.99478 91.34231 
L 376.99478 87.569901 
L 379.875453 87.569901 
L 379.875453 83.797492 
L 380.734789 83.797492 
L 380.734789 80.025083 
L 381.079457 80.025083 
L 381.079457 76.252673 
L 384.29502 76.252673 
L 384.29502 72.480264 
L 385.494122 72.480264 
L 385.494122 68.707855 
L 390.181588 68.707855 
L 390.181588 64.935446 
L 408.599409 64.935446 
L 408.599409 61.163036 
L 409.146881 61.163036 
L 409.146881 57.390627 
L 414.986062 57.390627 
L 414.986062 53.618218 
L 415.210142 53.618218 
L 415.210142 49.845809 
L 415.937672 49.845809 
L 415.937672 46.073399 
L 416.116695 46.073399 
L 416.116695 42.30099 
L 417.466357 42.30099 
L 417.466357 38.528581 
L 418.433023 38.528581 
L 418.433023 34.756172 
L 421.157298 34.756172 
L 421.157298 30.983762 
L 422.096911 30.983762 
L 422.096911 27.211353 
L 424.695744 27.211353 
L 424.695744 23.438944 
L 425.605715 23.438944 
L 425.605715 19.666535 
L 426.095084 19.666535 
L 426.095084 15.894125 
L 428.586748 15.894125 
L 428.586748 12.121716 
L 429.469087 12.121716 
L 429.469087 8.349307 
L 429.469087 8.349307 
L 450.672 8.349307 
L 450.672 8.349307 
" style="fill:none;stroke:#00bfbf;stroke-linecap:square;stroke-width:1.5;"/>
   </g>
   <g id="line2d_25">
    <path clip-path="url(#p7abb7bce22)" d="M 238.553332 291.28 
L 238.553332 287.507591 
L 242.485122 287.507591 
L 242.485122 283.735182 
L 246.046096 283.735182 
L 246.046096 279.962772 
L 246.765622 279.962772 
L 246.765622 276.190363 
L 247.081121 276.190363 
L 247.081121 272.417954 
L 247.794005 272.417954 
L 247.794005 268.645545 
L 247.913504 268.645545 
L 247.913504 264.873135 
L 248.623185 264.873135 
L 248.623185 261.100726 
L 249.621322 261.100726 
L 249.621322 257.328317 
L 249.960505 257.328317 
L 249.960505 253.555908 
L 250.618506 253.555908 
L 250.618506 249.783498 
L 250.739565 249.783498 
L 250.739565 246.011089 
L 250.868389 246.011089 
L 250.868389 242.23868 
L 251.036174 242.23868 
L 251.036174 238.466271 
L 252.710568 238.466271 
L 252.710568 234.693861 
L 285.913431 234.693861 
L 285.913431 230.921452 
L 287.565506 230.921452 
L 287.565506 227.149043 
L 289.462309 227.149043 
L 289.462309 223.376634 
L 289.601549 223.376634 
L 289.601549 219.604224 
L 290.505388 219.604224 
L 290.505388 215.831815 
L 291.0193 215.831815 
L 291.109809 208.286997 
L 291.284528 208.286997 
L 291.284528 204.514587 
L 291.966507 204.514587 
L 292.006405 193.19736 
L 292.38958 193.19736 
L 292.419597 185.652541 
L 292.823933 185.652541 
L 292.823933 181.880132 
L 293.142475 181.880132 
L 293.237927 174.335314 
L 294.403326 174.335314 
L 294.403326 170.562904 
L 296.919975 170.562904 
L 296.919975 166.790495 
L 302.732385 166.790495 
L 302.732385 163.018086 
L 308.31344 163.018086 
L 308.31344 159.245677 
L 312.743593 159.245677 
L 312.743593 155.473267 
L 313.999789 155.473267 
L 313.999789 151.700858 
L 318.920937 151.700858 
L 318.920937 147.928449 
L 321.796629 147.928449 
L 321.796629 144.15604 
L 323.172921 144.15604 
L 323.172921 140.38363 
L 326.463504 140.38363 
L 326.463504 136.611221 
L 329.854498 136.611221 
L 329.854498 132.838812 
L 337.387871 132.838812 
L 337.387871 129.066403 
L 338.798065 129.066403 
L 338.798065 125.293993 
L 351.36927 125.293993 
L 351.36927 121.521584 
L 361.220687 121.521584 
L 361.220687 117.749175 
L 363.384483 117.749175 
L 363.384483 113.976766 
L 366.621129 113.976766 
L 366.621129 110.204356 
L 368.289945 110.204356 
L 368.335183 102.659538 
L 372.05305 102.659538 
L 372.05305 98.887129 
L 373.724691 98.887129 
L 373.724691 95.114719 
L 375.078959 95.114719 
L 375.078959 91.34231 
L 376.510953 91.34231 
L 376.510953 87.569901 
L 376.67409 87.569901 
L 376.67409 83.797492 
L 379.875453 83.797492 
L 379.929862 76.252673 
L 381.056875 76.252673 
L 381.056875 72.480264 
L 385.173524 72.480264 
L 385.173524 68.707855 
L 385.494122 68.707855 
L 385.494122 64.935446 
L 408.599409 64.935446 
L 408.599409 61.163036 
L 409.146881 61.163036 
L 409.146881 57.390627 
L 414.986062 57.390627 
L 414.986062 53.618218 
L 415.210142 53.618218 
L 415.210142 49.845809 
L 415.937672 49.845809 
L 415.937672 46.073399 
L 416.116695 46.073399 
L 416.116695 42.30099 
L 416.435515 42.30099 
L 416.435515 38.528581 
L 417.466357 38.528581 
L 417.466357 34.756172 
L 418.433023 34.756172 
L 418.433023 30.983762 
L 422.096911 30.983762 
L 422.096911 27.211353 
L 424.266198 27.211353 
L 424.266198 23.438944 
L 424.695744 23.438944 
L 424.695744 19.666535 
L 426.095084 19.666535 
L 426.095084 15.894125 
L 427.445664 15.894125 
L 427.445664 12.121716 
L 429.469087 12.121716 
L 429.469087 8.349307 
L 429.469087 8.349307 
L 450.672 8.349307 
L 450.672 8.349307 
" style="fill:none;stroke:#bf00bf;stroke-linecap:square;stroke-width:1.5;"/>
   </g>
   <g id="line2d_26">
    <path clip-path="url(#p7abb7bce22)" d="M 238.553332 291.28 
L 238.553332 287.507591 
L 241.252002 287.507591 
L 241.252002 283.735182 
L 241.58022 283.735182 
L 241.58022 279.962772 
L 242.485122 279.962772 
L 242.485122 276.190363 
L 246.046096 276.190363 
L 246.046096 272.417954 
L 246.765622 272.417954 
L 246.765622 268.645545 
L 247.081121 268.645545 
L 247.081121 264.873135 
L 247.913504 264.873135 
L 247.913504 261.100726 
L 248.623185 261.100726 
L 248.623185 257.328317 
L 249.603356 257.328317 
L 249.621322 249.783498 
L 249.960505 249.783498 
L 249.960505 246.011089 
L 250.618506 246.011089 
L 250.618506 242.23868 
L 250.739565 242.23868 
L 250.739565 238.466271 
L 250.868389 238.466271 
L 250.868389 234.693861 
L 266.303456 234.693861 
L 266.303456 230.921452 
L 272.809941 230.921452 
L 272.809941 227.149043 
L 273.743042 227.149043 
L 273.743042 223.376634 
L 285.913431 223.376634 
L 285.913431 219.604224 
L 287.565506 219.604224 
L 287.565506 215.831815 
L 289.462309 215.831815 
L 289.462309 212.059406 
L 289.601549 212.059406 
L 289.668721 204.514587 
L 290.505388 204.514587 
L 290.505388 200.742178 
L 291.0193 200.742178 
L 291.109809 193.19736 
L 291.213105 193.19736 
L 291.284528 181.880132 
L 291.966507 181.880132 
L 291.990548 174.335314 
L 292.38958 174.335314 
L 292.419597 166.790495 
L 292.823933 166.790495 
L 292.823933 163.018086 
L 293.142475 163.018086 
L 293.237927 155.473267 
L 296.919975 155.473267 
L 296.919975 151.700858 
L 300.442864 151.700858 
L 300.442864 147.928449 
L 300.681285 147.928449 
L 300.681285 144.15604 
L 302.732385 144.15604 
L 302.732385 140.38363 
L 312.743593 140.38363 
L 312.743593 136.611221 
L 313.999789 136.611221 
L 313.999789 132.838812 
L 316.001309 132.838812 
L 316.001309 129.066403 
L 316.970154 129.066403 
L 316.970154 125.293993 
L 326.01548 125.293993 
L 326.01548 121.521584 
L 361.220687 121.521584 
L 361.220687 117.749175 
L 362.659082 117.749175 
L 362.659082 113.976766 
L 363.202476 113.976766 
L 363.202476 110.204356 
L 363.384483 110.204356 
L 363.384483 106.431947 
L 364.087032 106.431947 
L 364.087032 102.659538 
L 364.881253 102.659538 
L 364.881253 98.887129 
L 365.697412 98.887129 
L 365.697412 95.114719 
L 368.289945 95.114719 
L 368.335183 87.569901 
L 369.770849 87.569901 
L 369.770849 83.797492 
L 371.809043 83.797492 
L 371.809043 80.025083 
L 375.072907 80.025083 
L 375.072907 76.252673 
L 376.510953 76.252673 
L 376.510953 72.480264 
L 378.259562 72.480264 
L 378.259562 68.707855 
L 385.173524 68.707855 
L 385.173524 64.935446 
L 408.599409 64.935446 
L 408.599409 61.163036 
L 409.146881 61.163036 
L 409.146881 57.390627 
L 411.195201 57.390627 
L 411.195201 53.618218 
L 414.986062 53.618218 
L 414.986062 49.845809 
L 415.210142 49.845809 
L 415.220281 42.30099 
L 415.640325 42.30099 
L 415.640325 38.528581 
L 416.116695 38.528581 
L 416.116695 34.756172 
L 416.435515 34.756172 
L 416.435515 30.983762 
L 417.466357 30.983762 
L 417.466357 27.211353 
L 417.618663 27.211353 
L 417.618663 23.438944 
L 420.595474 23.438944 
L 420.595474 19.666535 
L 423.400227 19.666535 
L 423.400227 15.894125 
L 423.529384 15.894125 
L 423.529384 12.121716 
L 424.185162 12.121716 
L 424.185162 8.349307 
L 424.185162 8.349307 
L 450.672 8.349307 
L 450.672 8.349307 
" style="fill:none;stroke:#000000;stroke-linecap:square;stroke-width:1.5;"/>
   </g>
   <g id="line2d_27">
    <path clip-path="url(#p7abb7bce22)" d="M 238.553332 291.28 
L 238.553332 287.507591 
L 241.252002 287.507591 
L 241.252002 283.735182 
L 241.58022 283.735182 
L 241.58022 279.962772 
L 242.485122 279.962772 
L 242.485122 276.190363 
L 243.373897 276.190363 
L 243.373897 272.417954 
L 246.046096 272.417954 
L 246.046096 268.645545 
L 246.765622 268.645545 
L 246.765622 264.873135 
L 247.081121 264.873135 
L 247.081121 261.100726 
L 247.913504 261.100726 
L 247.913504 257.328317 
L 248.123619 257.328317 
L 248.123619 253.555908 
L 248.261126 253.555908 
L 248.261126 249.783498 
L 248.623185 249.783498 
L 248.723843 238.466271 
L 250.317977 238.466271 
L 250.317977 234.693861 
L 265.28808 234.693861 
L 265.28808 230.921452 
L 266.303456 230.921452 
L 266.303456 227.149043 
L 268.990331 227.149043 
L 268.990331 223.376634 
L 269.476844 223.376634 
L 269.476844 219.604224 
L 270.10344 219.604224 
L 270.10344 215.831815 
L 271.647412 215.831815 
L 271.647412 212.059406 
L 272.809941 212.059406 
L 272.809941 208.286997 
L 273.701402 208.286997 
L 273.701402 204.514587 
L 276.087331 204.514587 
L 276.087331 200.742178 
L 276.6081 200.742178 
L 276.6081 196.969769 
L 283.248982 196.969769 
L 283.248982 193.19736 
L 287.565506 193.19736 
L 287.565506 189.42495 
L 288.33724 189.42495 
L 288.33724 185.652541 
L 289.020625 185.652541 
L 289.020625 181.880132 
L 289.462309 181.880132 
L 289.462309 178.107723 
L 289.601549 178.107723 
L 289.601549 174.335314 
L 290.242176 174.335314 
L 290.242176 170.562904 
L 290.505388 170.562904 
L 290.505388 166.790495 
L 290.665156 166.790495 
L 290.775027 155.473267 
L 291.0193 155.473267 
L 291.109809 144.15604 
L 291.216146 144.15604 
L 291.284528 136.611221 
L 291.509688 136.611221 
L 291.509688 132.838812 
L 291.803434 132.838812 
L 291.803434 129.066403 
L 291.966507 129.066403 
L 291.966507 125.293993 
L 297.528494 125.293993 
L 297.528494 121.521584 
L 352.071057 121.521584 
L 352.071057 117.749175 
L 359.924419 117.749175 
L 359.924419 113.976766 
L 361.220687 113.976766 
L 361.220687 110.204356 
L 362.659082 110.204356 
L 362.659082 106.431947 
L 363.112336 106.431947 
L 363.202476 98.887129 
L 363.47816 98.887129 
L 363.47816 95.114719 
L 363.878138 95.114719 
L 363.878138 91.34231 
L 364.087032 91.34231 
L 364.087032 87.569901 
L 364.881253 87.569901 
L 364.881253 83.797492 
L 366.163084 83.797492 
L 366.163084 80.025083 
L 367.22811 80.025083 
L 367.22811 76.252673 
L 368.031418 76.252673 
L 368.105183 68.707855 
L 371.588667 68.707855 
L 371.588667 64.935446 
L 408.599409 64.935446 
L 408.599409 61.163036 
L 409.146881 61.163036 
L 409.146881 57.390627 
L 410.607714 57.390627 
L 410.607714 53.618218 
L 411.195201 53.618218 
L 411.195201 49.845809 
L 411.529714 49.845809 
L 411.529714 46.073399 
L 411.91036 46.073399 
L 411.91036 42.30099 
L 413.493207 42.30099 
L 413.493207 38.528581 
L 415.210142 38.528581 
L 415.250672 30.983762 
L 416.116695 30.983762 
L 416.116695 27.211353 
L 416.435515 27.211353 
L 416.435515 23.438944 
L 417.454186 23.438944 
L 417.454186 19.666535 
L 420.595474 19.666535 
L 420.595474 15.894125 
L 421.060792 15.894125 
L 421.068541 8.349307 
L 421.068541 8.349307 
L 450.672 8.349307 
L 450.672 8.349307 
" style="fill:none;stroke:#00bfbf;stroke-linecap:square;stroke-width:1.5;"/>
   </g>
   <g id="line2d_28">
    <path clip-path="url(#p7abb7bce22)" d="M 214.583758 291.28 
L 214.583758 287.507591 
L 216.411116 287.507591 
L 216.411116 283.735182 
L 218.404799 283.735182 
L 218.404799 279.962772 
L 218.595133 279.962772 
L 218.595133 276.190363 
L 221.181762 276.190363 
L 221.181762 272.417954 
L 221.481672 272.417954 
L 221.481672 268.645545 
L 223.155096 268.645545 
L 223.155096 264.873135 
L 223.369216 264.873135 
L 223.409921 257.328317 
L 224.091898 257.328317 
L 224.091898 253.555908 
L 224.553413 253.555908 
L 224.553413 249.783498 
L 225.797737 249.783498 
L 225.797737 246.011089 
L 226.038134 246.011089 
L 226.115509 238.466271 
L 229.060449 238.466271 
L 229.060449 234.693861 
L 251.137859 234.693861 
L 251.137859 230.921452 
L 251.851737 230.921452 
L 251.851737 227.149043 
L 252.082323 227.149043 
L 252.082323 223.376634 
L 253.1976 223.376634 
L 253.1976 219.604224 
L 255.57269 219.604224 
L 255.601171 212.059406 
L 255.91499 212.059406 
L 255.91499 208.286997 
L 256.367001 208.286997 
L 256.367001 204.514587 
L 257.613961 204.514587 
L 257.65301 196.969769 
L 258.62656 196.969769 
L 258.62656 193.19736 
L 259.484699 193.19736 
L 259.484699 189.42495 
L 260.793459 189.42495 
L 260.793459 185.652541 
L 262.8602 185.652541 
L 262.8602 181.880132 
L 265.255635 181.880132 
L 265.255635 178.107723 
L 267.975093 178.107723 
L 267.975093 174.335314 
L 270.878579 174.335314 
L 270.878579 170.562904 
L 271.089082 170.562904 
L 271.089082 166.790495 
L 271.660792 166.790495 
L 271.660792 163.018086 
L 271.83672 163.018086 
L 271.83672 159.245677 
L 272.391935 159.245677 
L 272.391935 155.473267 
L 273.702614 155.473267 
L 273.702614 151.700858 
L 273.851179 151.700858 
L 273.851179 147.928449 
L 275.867171 147.928449 
L 275.867171 144.15604 
L 276.457349 144.15604 
L 276.457349 140.38363 
L 276.751236 140.38363 
L 276.751236 136.611221 
L 277.33226 136.611221 
L 277.33226 132.838812 
L 277.539687 132.838812 
L 277.539687 129.066403 
L 279.627879 129.066403 
L 279.627879 125.293993 
L 280.245615 125.293993 
L 280.245615 121.521584 
L 313.068302 121.521584 
L 313.068302 117.749175 
L 314.967338 117.749175 
L 314.967338 113.976766 
L 316.063993 113.976766 
L 316.063993 110.204356 
L 319.169213 110.204356 
L 319.169213 106.431947 
L 319.562194 106.431947 
L 319.562194 102.659538 
L 320.254177 102.659538 
L 320.254177 98.887129 
L 321.382239 98.887129 
L 321.382239 95.114719 
L 324.860651 95.114719 
L 324.860651 91.34231 
L 326.5406 91.34231 
L 326.5406 87.569901 
L 329.111255 87.569901 
L 329.178729 80.025083 
L 330.409816 80.025083 
L 330.409816 76.252673 
L 331.318567 76.252673 
L 331.318567 72.480264 
L 331.494236 72.480264 
L 331.494236 68.707855 
L 331.846731 68.707855 
L 331.846731 64.935446 
L 369.13383 64.935446 
L 369.13383 61.163036 
L 369.85018 61.163036 
L 369.85018 57.390627 
L 371.350737 57.390627 
L 371.350737 53.618218 
L 374.218155 53.618218 
L 374.218155 49.845809 
L 375.367154 49.845809 
L 375.367154 46.073399 
L 377.722366 46.073399 
L 377.722366 42.30099 
L 379.901406 42.30099 
L 379.901406 38.528581 
L 381.0862 38.528581 
L 381.0862 34.756172 
L 382.703821 34.756172 
L 382.703821 30.983762 
L 383.45451 30.983762 
L 383.45451 27.211353 
L 384.609231 27.211353 
L 384.609231 23.438944 
L 387.459789 23.438944 
L 387.51425 15.894125 
L 388.568793 15.894125 
L 388.568793 12.121716 
L 389.055565 12.121716 
L 389.055565 8.349307 
L 389.055565 8.349307 
L 450.672 8.349307 
L 450.672 8.349307 
" style="fill:none;stroke:#bf00bf;stroke-linecap:square;stroke-width:1.5;"/>
   </g>
   <g id="line2d_29">
    <path clip-path="url(#p7abb7bce22)" d="M 207.267388 291.28 
L 207.267388 287.507591 
L 207.633507 287.507591 
L 207.633507 283.735182 
L 208.089788 283.735182 
L 208.089788 279.962772 
L 210.487792 279.962772 
L 210.487792 276.190363 
L 210.933471 276.190363 
L 210.933471 272.417954 
L 211.054115 272.417954 
L 211.054115 268.645545 
L 211.821888 268.645545 
L 211.825405 261.100726 
L 212.277013 261.100726 
L 212.277013 257.328317 
L 213.505963 257.328317 
L 213.505963 253.555908 
L 214.286383 253.555908 
L 214.286383 249.783498 
L 215.507835 249.783498 
L 215.507835 246.011089 
L 217.475244 246.011089 
L 217.475244 242.23868 
L 218.878049 242.23868 
L 218.878049 238.466271 
L 222.415418 238.466271 
L 222.415418 234.693861 
L 239.422889 234.693861 
L 239.422889 230.921452 
L 243.589125 230.921452 
L 243.589125 227.149043 
L 243.771243 227.149043 
L 243.771243 223.376634 
L 244.746127 223.376634 
L 244.789812 215.831815 
L 244.887362 215.831815 
L 244.887362 212.059406 
L 245.186349 212.059406 
L 245.186349 208.286997 
L 245.579186 208.286997 
L 245.579186 204.514587 
L 246.295547 204.514587 
L 246.295547 200.742178 
L 247.459187 200.742178 
L 247.459187 196.969769 
L 247.804704 196.969769 
L 247.804704 193.19736 
L 248.417522 193.19736 
L 248.417522 189.42495 
L 248.779947 189.42495 
L 248.779947 185.652541 
L 250.555054 185.652541 
L 250.555054 181.880132 
L 252.510686 181.880132 
L 252.510686 178.107723 
L 262.24532 178.107723 
L 262.24532 174.335314 
L 265.656614 174.335314 
L 265.656614 170.562904 
L 266.071858 170.562904 
L 266.071858 166.790495 
L 267.243844 166.790495 
L 267.243844 163.018086 
L 267.975948 163.018086 
L 267.975948 159.245677 
L 268.108753 159.245677 
L 268.140738 147.928449 
L 270.125784 147.928449 
L 270.125784 144.15604 
L 270.546207 144.15604 
L 270.546207 140.38363 
L 271.097001 140.38363 
L 271.097001 136.611221 
L 271.947332 136.611221 
L 271.947332 132.838812 
L 272.723019 132.838812 
L 272.723019 129.066403 
L 273.698907 129.066403 
L 273.753726 121.521584 
L 307.341815 121.521584 
L 307.341815 117.749175 
L 310.646218 117.749175 
L 310.646218 113.976766 
L 310.784151 113.976766 
L 310.784151 110.204356 
L 311.101621 110.204356 
L 311.101621 106.431947 
L 312.91852 106.431947 
L 312.91852 102.659538 
L 313.930736 102.659538 
L 313.930736 98.887129 
L 315.29415 98.887129 
L 315.29415 95.114719 
L 316.739004 95.114719 
L 316.739004 91.34231 
L 317.718637 91.34231 
L 317.718637 87.569901 
L 320.284755 87.569901 
L 320.284755 83.797492 
L 323.575549 83.797492 
L 323.575549 80.025083 
L 324.41785 80.025083 
L 324.41785 76.252673 
L 325.825608 76.252673 
L 325.825608 72.480264 
L 326.408406 72.480264 
L 326.408406 68.707855 
L 328.901913 68.707855 
L 328.901913 64.935446 
L 361.443571 64.935446 
L 361.443571 61.163036 
L 361.635367 61.163036 
L 361.635367 57.390627 
L 362.997905 57.390627 
L 362.997905 53.618218 
L 363.143124 53.618218 
L 363.143124 49.845809 
L 365.329211 49.845809 
L 365.329211 46.073399 
L 365.702095 46.073399 
L 365.702095 42.30099 
L 368.950051 42.30099 
L 368.950051 38.528581 
L 369.342715 38.528581 
L 369.342715 34.756172 
L 371.877313 34.756172 
L 371.877313 30.983762 
L 373.498642 30.983762 
L 373.498642 27.211353 
L 375.465642 27.211353 
L 375.465642 23.438944 
L 376.508663 23.438944 
L 376.508663 19.666535 
L 377.072803 19.666535 
L 377.072803 15.894125 
L 377.361259 15.894125 
L 377.361259 12.121716 
L 380.197929 12.121716 
L 380.197929 8.349307 
L 380.197929 8.349307 
L 450.672 8.349307 
L 450.672 8.349307 
" style="fill:none;stroke:#000000;stroke-linecap:square;stroke-width:1.5;"/>
   </g>
   <g id="patch_3">
    <path d="M 5.52 291.28 
L 5.52 5.52 
" style="fill:none;stroke:#000000;stroke-linecap:square;stroke-linejoin:miter;stroke-width:0.8;"/>
   </g>
   <g id="patch_4">
    <path d="M 450.672 291.28 
L 450.672 5.52 
" style="fill:none;stroke:#000000;stroke-linecap:square;stroke-linejoin:miter;stroke-width:0.8;"/>
   </g>
   <g id="patch_5">
    <path d="M 5.52 291.28 
L 450.672 291.28 
" style="fill:none;stroke:#000000;stroke-linecap:square;stroke-linejoin:miter;stroke-width:0.8;"/>
   </g>
   <g id="patch_6">
    <path d="M 5.52 5.52 
L 450.672 5.52 
" style="fill:none;stroke:#000000;stroke-linecap:square;stroke-linejoin:miter;stroke-width:0.8;"/>
   </g>
   <g id="text_6">
    <!-- {f10-f14}, 20-D -->
    <defs>
     <path d="M 51.125 -9.28125 
L 51.125 -16.3125 
L 48.09375 -16.3125 
Q 35.9375 -16.3125 31.8125 -12.6875 
Q 27.6875 -9.078125 27.6875 1.703125 
L 27.6875 13.375 
Q 27.6875 20.75 25.046875 23.578125 
Q 22.40625 26.421875 15.484375 26.421875 
L 12.5 26.421875 
L 12.5 33.40625 
L 15.484375 33.40625 
Q 22.46875 33.40625 25.078125 36.203125 
Q 27.6875 39.015625 27.6875 46.296875 
L 27.6875 58.015625 
Q 27.6875 68.796875 31.8125 72.390625 
Q 35.9375 75.984375 48.09375 75.984375 
L 51.125 75.984375 
L 51.125 69 
L 47.796875 69 
Q 40.921875 69 38.8125 66.84375 
Q 36.71875 64.703125 36.71875 57.8125 
L 36.71875 45.703125 
Q 36.71875 38.03125 34.5 34.5625 
Q 32.28125 31.109375 26.90625 29.890625 
Q 32.328125 28.5625 34.515625 25.09375 
Q 36.71875 21.625 36.71875 14.015625 
L 36.71875 1.90625 
Q 36.71875 -4.984375 38.8125 -7.125 
Q 40.921875 -9.28125 47.796875 -9.28125 
z
" id="DejaVuSans-7b"/>
     <path d="M 12.5 -9.28125 
L 15.921875 -9.28125 
Q 22.75 -9.28125 24.828125 -7.171875 
Q 26.90625 -5.078125 26.90625 1.90625 
L 26.90625 14.015625 
Q 26.90625 21.625 29.09375 25.09375 
Q 31.296875 28.5625 36.71875 29.890625 
Q 31.296875 31.109375 29.09375 34.5625 
Q 26.90625 38.03125 26.90625 45.703125 
L 26.90625 57.8125 
Q 26.90625 64.75 24.828125 66.875 
Q 22.75 69 15.921875 69 
L 12.5 69 
L 12.5 75.984375 
L 15.578125 75.984375 
Q 27.734375 75.984375 31.8125 72.390625 
Q 35.890625 68.796875 35.890625 58.015625 
L 35.890625 46.296875 
Q 35.890625 39.015625 38.515625 36.203125 
Q 41.15625 33.40625 48.09375 33.40625 
L 51.125 33.40625 
L 51.125 26.421875 
L 48.09375 26.421875 
Q 41.15625 26.421875 38.515625 23.578125 
Q 35.890625 20.75 35.890625 13.375 
L 35.890625 1.703125 
Q 35.890625 -9.078125 31.8125 -12.6875 
Q 27.734375 -16.3125 15.578125 -16.3125 
L 12.5 -16.3125 
z
" id="DejaVuSans-7d"/>
     <path d="M 11.71875 12.40625 
L 22.015625 12.40625 
L 22.015625 4 
L 14.015625 -11.625 
L 7.71875 -11.625 
L 11.71875 4 
z
" id="DejaVuSans-2c"/>
     <path d="M 19.1875 8.296875 
L 53.609375 8.296875 
L 53.609375 0 
L 7.328125 0 
L 7.328125 8.296875 
Q 12.9375 14.109375 22.625 23.890625 
Q 32.328125 33.6875 34.8125 36.53125 
Q 39.546875 41.84375 41.421875 45.53125 
Q 43.3125 49.21875 43.3125 52.78125 
Q 43.3125 58.59375 39.234375 62.25 
Q 35.15625 65.921875 28.609375 65.921875 
Q 23.96875 65.921875 18.8125 64.3125 
Q 13.671875 62.703125 7.8125 59.421875 
L 7.8125 69.390625 
Q 13.765625 71.78125 18.9375 73 
Q 24.125 74.21875 28.421875 74.21875 
Q 39.75 74.21875 46.484375 68.546875 
Q 53.21875 62.890625 53.21875 53.421875 
Q 53.21875 48.921875 51.53125 44.890625 
Q 49.859375 40.875 45.40625 35.40625 
Q 44.1875 33.984375 37.640625 27.21875 
Q 31.109375 20.453125 19.1875 8.296875 
z
" id="DejaVuSans-32"/>
    </defs>
    <g transform="translate(283.34396 285.5648)scale(0.2 -0.2)">
     <use xlink:href="#DejaVuSans-7b"/>
     <use x="63.623047" xlink:href="#DejaVuSans-66"/>
     <use x="98.828125" xlink:href="#DejaVuSans-31"/>
     <use x="162.451172" xlink:href="#DejaVuSans-30"/>
     <use x="226.074219" xlink:href="#DejaVuSans-2d"/>
     <use x="262.158203" xlink:href="#DejaVuSans-66"/>
     <use x="297.363281" xlink:href="#DejaVuSans-31"/>
     <use x="360.986328" xlink:href="#DejaVuSans-34"/>
     <use x="424.609375" xlink:href="#DejaVuSans-7d"/>
     <use x="488.232422" xlink:href="#DejaVuSans-2c"/>
     <use x="520.019531" xlink:href="#DejaVuSans-20"/>
     <use x="551.806641" xlink:href="#DejaVuSans-32"/>
     <use x="615.429688" xlink:href="#DejaVuSans-30"/>
     <use x="679.052734" xlink:href="#DejaVuSans-2d"/>
     <use x="715.136719" xlink:href="#DejaVuSans-44"/>
    </g>
   </g>
   <g id="text_7">
    <!-- v0.0.0 -->
    <defs>
     <path d="M 2.984375 54.6875 
L 12.5 54.6875 
L 29.59375 8.796875 
L 46.6875 54.6875 
L 56.203125 54.6875 
L 35.6875 0 
L 23.484375 0 
z
" id="DejaVuSans-76"/>
     <path d="M 10.6875 12.40625 
L 21 12.40625 
L 21 0 
L 10.6875 0 
z
" id="DejaVuSans-2e"/>
    </defs>
    <g style="fill:#808080;" transform="translate(212.41475 286.342713)scale(0.1 -0.1)">
     <use xlink:href="#DejaVuSans-76"/>
     <use x="59.179688" xlink:href="#DejaVuSans-30"/>
     <use x="122.802734" xlink:href="#DejaVuSans-2e"/>
     <use x="154.589844" xlink:href="#DejaVuSans-30"/>
     <use x="218.212891" xlink:href="#DejaVuSans-2e"/>
     <use x="250" xlink:href="#DejaVuSans-30"/>
    </g>
   </g>
  </g>
 </g>
 <defs>
  <clipPath id="p7abb7bce22">
   <rect height="285.76" width="445.152" x="5.52" y="5.52"/>
  </clipPath>
 </defs>
</svg>
