<?xml version="1.0" encoding="utf-8" standalone="no"?>
<!DOCTYPE svg PUBLIC "-//W3C//DTD SVG 1.1//EN"
  "http://www.w3.org/Graphics/SVG/1.1/DTD/svg11.dtd">
<!-- Created with matplotlib (http://matplotlib.org/) -->
<svg height="345.6pt" version="1.1" viewBox="0 0 460.8 345.6" width="460.8pt" xmlns="http://www.w3.org/2000/svg" xmlns:xlink="http://www.w3.org/1999/xlink">
 <defs>
  <style type="text/css">
*{stroke-linecap:butt;stroke-linejoin:round;}
  </style>
 </defs>
 <g id="figure_1">
  <g id="patch_1">
   <path d="M 0 345.6 
L 460.8 345.6 
L 460.8 0 
L 0 0 
z
" style="fill:#ffffff;"/>
  </g>
  <g id="axes_1">
   <g id="patch_2">
    <path d="M 56.12 294.88 
L 333.168 294.88 
L 333.168 6.845228 
L 56.12 6.845228 
z
" style="fill:#ffffff;"/>
   </g>
   <g id="matplotlib.axis_1">
    <g id="xtick_1">
     <g id="line2d_1">
      <path clip-path="url(#pb26b6b7017)" d="M 56.12 294.88 
L 56.12 6.845228 
" style="fill:none;stroke:#b0b0b0;stroke-linecap:square;stroke-width:0.8;"/>
     </g>
     <g id="line2d_2">
      <defs>
       <path d="M 0 0 
L 0 3.5 
" id="m5e798ae072" style="stroke:#000000;stroke-width:0.8;"/>
      </defs>
      <g>
       <use style="stroke:#000000;stroke-width:0.8;" x="56.12" xlink:href="#m5e798ae072" y="294.88"/>
      </g>
     </g>
     <g id="text_1">
      <!-- 0 -->
      <defs>
       <path d="M 31.78125 66.40625 
Q 24.171875 66.40625 20.328125 58.90625 
Q 16.5 51.421875 16.5 36.375 
Q 16.5 21.390625 20.328125 13.890625 
Q 24.171875 6.390625 31.78125 6.390625 
Q 39.453125 6.390625 43.28125 13.890625 
Q 47.125 21.390625 47.125 36.375 
Q 47.125 51.421875 43.28125 58.90625 
Q 39.453125 66.40625 31.78125 66.40625 
z
M 31.78125 74.21875 
Q 44.046875 74.21875 50.515625 64.515625 
Q 56.984375 54.828125 56.984375 36.375 
Q 56.984375 17.96875 50.515625 8.265625 
Q 44.046875 -1.421875 31.78125 -1.421875 
Q 19.53125 -1.421875 13.0625 8.265625 
Q 6.59375 17.96875 6.59375 36.375 
Q 6.59375 54.828125 13.0625 64.515625 
Q 19.53125 74.21875 31.78125 74.21875 
z
" id="DejaVuSans-30"/>
      </defs>
      <g transform="translate(49.7575 317.076875)scale(0.2 -0.2)">
       <use xlink:href="#DejaVuSans-30"/>
      </g>
     </g>
    </g>
    <g id="xtick_2">
     <g id="line2d_3">
      <path clip-path="url(#pb26b6b7017)" d="M 135.276571 294.88 
L 135.276571 6.845228 
" style="fill:none;stroke:#b0b0b0;stroke-linecap:square;stroke-width:0.8;"/>
     </g>
     <g id="line2d_4">
      <g>
       <use style="stroke:#000000;stroke-width:0.8;" x="135.276571" xlink:href="#m5e798ae072" y="294.88"/>
      </g>
     </g>
     <g id="text_2">
      <!-- 2 -->
      <defs>
       <path d="M 19.1875 8.296875 
L 53.609375 8.296875 
L 53.609375 0 
L 7.328125 0 
L 7.328125 8.296875 
Q 12.9375 14.109375 22.625 23.890625 
Q 32.328125 33.6875 34.8125 36.53125 
Q 39.546875 41.84375 41.421875 45.53125 
Q 43.3125 49.21875 43.3125 52.78125 
Q 43.3125 58.59375 39.234375 62.25 
Q 35.15625 65.921875 28.609375 65.921875 
Q 23.96875 65.921875 18.8125 64.3125 
Q 13.671875 62.703125 7.8125 59.421875 
L 7.8125 69.390625 
Q 13.765625 71.78125 18.9375 73 
Q 24.125 74.21875 28.421875 74.21875 
Q 39.75 74.21875 46.484375 68.546875 
Q 53.21875 62.890625 53.21875 53.421875 
Q 53.21875 48.921875 51.53125 44.890625 
Q 49.859375 40.875 45.40625 35.40625 
Q 44.1875 33.984375 37.640625 27.21875 
Q 31.109375 20.453125 19.1875 8.296875 
z
" id="DejaVuSans-32"/>
      </defs>
      <g transform="translate(128.914071 317.076875)scale(0.2 -0.2)">
       <use xlink:href="#DejaVuSans-32"/>
      </g>
     </g>
    </g>
    <g id="xtick_3">
     <g id="line2d_5">
      <path clip-path="url(#pb26b6b7017)" d="M 214.433143 294.88 
L 214.433143 6.845228 
" style="fill:none;stroke:#b0b0b0;stroke-linecap:square;stroke-width:0.8;"/>
     </g>
     <g id="line2d_6">
      <g>
       <use style="stroke:#000000;stroke-width:0.8;" x="214.433143" xlink:href="#m5e798ae072" y="294.88"/>
      </g>
     </g>
     <g id="text_3">
      <!-- 4 -->
      <defs>
       <path d="M 37.796875 64.3125 
L 12.890625 25.390625 
L 37.796875 25.390625 
z
M 35.203125 72.90625 
L 47.609375 72.90625 
L 47.609375 25.390625 
L 58.015625 25.390625 
L 58.015625 17.1875 
L 47.609375 17.1875 
L 47.609375 0 
L 37.796875 0 
L 37.796875 17.1875 
L 4.890625 17.1875 
L 4.890625 26.703125 
z
" id="DejaVuSans-34"/>
      </defs>
      <g transform="translate(208.070643 317.076875)scale(0.2 -0.2)">
       <use xlink:href="#DejaVuSans-34"/>
      </g>
     </g>
    </g>
    <g id="xtick_4">
     <g id="line2d_7">
      <path clip-path="url(#pb26b6b7017)" d="M 293.589714 294.88 
L 293.589714 6.845228 
" style="fill:none;stroke:#b0b0b0;stroke-linecap:square;stroke-width:0.8;"/>
     </g>
     <g id="line2d_8">
      <g>
       <use style="stroke:#000000;stroke-width:0.8;" x="293.589714" xlink:href="#m5e798ae072" y="294.88"/>
      </g>
     </g>
     <g id="text_4">
      <!-- 6 -->
      <defs>
       <path d="M 33.015625 40.375 
Q 26.375 40.375 22.484375 35.828125 
Q 18.609375 31.296875 18.609375 23.390625 
Q 18.609375 15.53125 22.484375 10.953125 
Q 26.375 6.390625 33.015625 6.390625 
Q 39.65625 6.390625 43.53125 10.953125 
Q 47.40625 15.53125 47.40625 23.390625 
Q 47.40625 31.296875 43.53125 35.828125 
Q 39.65625 40.375 33.015625 40.375 
z
M 52.59375 71.296875 
L 52.59375 62.3125 
Q 48.875 64.0625 45.09375 64.984375 
Q 41.3125 65.921875 37.59375 65.921875 
Q 27.828125 65.921875 22.671875 59.328125 
Q 17.53125 52.734375 16.796875 39.40625 
Q 19.671875 43.65625 24.015625 45.921875 
Q 28.375 48.1875 33.59375 48.1875 
Q 44.578125 48.1875 50.953125 41.515625 
Q 57.328125 34.859375 57.328125 23.390625 
Q 57.328125 12.15625 50.6875 5.359375 
Q 44.046875 -1.421875 33.015625 -1.421875 
Q 20.359375 -1.421875 13.671875 8.265625 
Q 6.984375 17.96875 6.984375 36.375 
Q 6.984375 53.65625 15.1875 63.9375 
Q 23.390625 74.21875 37.203125 74.21875 
Q 40.921875 74.21875 44.703125 73.484375 
Q 48.484375 72.75 52.59375 71.296875 
z
" id="DejaVuSans-36"/>
      </defs>
      <g transform="translate(287.227214 317.076875)scale(0.2 -0.2)">
       <use xlink:href="#DejaVuSans-36"/>
      </g>
     </g>
    </g>
    <g id="xtick_5">
     <g id="line2d_9">
      <path clip-path="url(#pb26b6b7017)" d="M 56.12 294.88 
L 56.12 6.845228 
" style="fill:none;stroke:#b0b0b0;stroke-linecap:square;stroke-width:0.8;"/>
     </g>
     <g id="line2d_10">
      <defs>
       <path d="M 0 0 
L 0 2 
" id="mdd4f735105" style="stroke:#000000;stroke-width:0.6;"/>
      </defs>
      <g>
       <use style="stroke:#000000;stroke-width:0.6;" x="56.12" xlink:href="#mdd4f735105" y="294.88"/>
      </g>
     </g>
    </g>
    <g id="xtick_6">
     <g id="line2d_11">
      <path clip-path="url(#pb26b6b7017)" d="M 95.698286 294.88 
L 95.698286 6.845228 
" style="fill:none;stroke:#b0b0b0;stroke-linecap:square;stroke-width:0.8;"/>
     </g>
     <g id="line2d_12">
      <g>
       <use style="stroke:#000000;stroke-width:0.6;" x="95.698286" xlink:href="#mdd4f735105" y="294.88"/>
      </g>
     </g>
    </g>
    <g id="xtick_7">
     <g id="line2d_13">
      <path clip-path="url(#pb26b6b7017)" d="M 135.276571 294.88 
L 135.276571 6.845228 
" style="fill:none;stroke:#b0b0b0;stroke-linecap:square;stroke-width:0.8;"/>
     </g>
     <g id="line2d_14">
      <g>
       <use style="stroke:#000000;stroke-width:0.6;" x="135.276571" xlink:href="#mdd4f735105" y="294.88"/>
      </g>
     </g>
    </g>
    <g id="xtick_8">
     <g id="line2d_15">
      <path clip-path="url(#pb26b6b7017)" d="M 174.854857 294.88 
L 174.854857 6.845228 
" style="fill:none;stroke:#b0b0b0;stroke-linecap:square;stroke-width:0.8;"/>
     </g>
     <g id="line2d_16">
      <g>
       <use style="stroke:#000000;stroke-width:0.6;" x="174.854857" xlink:href="#mdd4f735105" y="294.88"/>
      </g>
     </g>
    </g>
    <g id="xtick_9">
     <g id="line2d_17">
      <path clip-path="url(#pb26b6b7017)" d="M 214.433143 294.88 
L 214.433143 6.845228 
" style="fill:none;stroke:#b0b0b0;stroke-linecap:square;stroke-width:0.8;"/>
     </g>
     <g id="line2d_18">
      <g>
       <use style="stroke:#000000;stroke-width:0.6;" x="214.433143" xlink:href="#mdd4f735105" y="294.88"/>
      </g>
     </g>
    </g>
    <g id="xtick_10">
     <g id="line2d_19">
      <path clip-path="url(#pb26b6b7017)" d="M 254.011429 294.88 
L 254.011429 6.845228 
" style="fill:none;stroke:#b0b0b0;stroke-linecap:square;stroke-width:0.8;"/>
     </g>
     <g id="line2d_20">
      <g>
       <use style="stroke:#000000;stroke-width:0.6;" x="254.011429" xlink:href="#mdd4f735105" y="294.88"/>
      </g>
     </g>
    </g>
    <g id="xtick_11">
     <g id="line2d_21">
      <path clip-path="url(#pb26b6b7017)" d="M 293.589714 294.88 
L 293.589714 6.845228 
" style="fill:none;stroke:#b0b0b0;stroke-linecap:square;stroke-width:0.8;"/>
     </g>
     <g id="line2d_22">
      <g>
       <use style="stroke:#000000;stroke-width:0.6;" x="293.589714" xlink:href="#mdd4f735105" y="294.88"/>
      </g>
     </g>
    </g>
    <g id="xtick_12">
     <g id="line2d_23">
      <path clip-path="url(#pb26b6b7017)" d="M 333.168 294.88 
L 333.168 6.845228 
" style="fill:none;stroke:#b0b0b0;stroke-linecap:square;stroke-width:0.8;"/>
     </g>
     <g id="line2d_24">
      <g>
       <use style="stroke:#000000;stroke-width:0.6;" x="333.168" xlink:href="#mdd4f735105" y="294.88"/>
      </g>
     </g>
    </g>
    <g id="text_5">
     <!-- log10(# f-evals / dimension) -->
     <defs>
      <path d="M 9.421875 75.984375 
L 18.40625 75.984375 
L 18.40625 0 
L 9.421875 0 
z
" id="DejaVuSans-6c"/>
      <path d="M 30.609375 48.390625 
Q 23.390625 48.390625 19.1875 42.75 
Q 14.984375 37.109375 14.984375 27.296875 
Q 14.984375 17.484375 19.15625 11.84375 
Q 23.34375 6.203125 30.609375 6.203125 
Q 37.796875 6.203125 41.984375 11.859375 
Q 46.1875 17.53125 46.1875 27.296875 
Q 46.1875 37.015625 41.984375 42.703125 
Q 37.796875 48.390625 30.609375 48.390625 
z
M 30.609375 56 
Q 42.328125 56 49.015625 48.375 
Q 55.71875 40.765625 55.71875 27.296875 
Q 55.71875 13.875 49.015625 6.21875 
Q 42.328125 -1.421875 30.609375 -1.421875 
Q 18.84375 -1.421875 12.171875 6.21875 
Q 5.515625 13.875 5.515625 27.296875 
Q 5.515625 40.765625 12.171875 48.375 
Q 18.84375 56 30.609375 56 
z
" id="DejaVuSans-6f"/>
      <path d="M 45.40625 27.984375 
Q 45.40625 37.75 41.375 43.109375 
Q 37.359375 48.484375 30.078125 48.484375 
Q 22.859375 48.484375 18.828125 43.109375 
Q 14.796875 37.75 14.796875 27.984375 
Q 14.796875 18.265625 18.828125 12.890625 
Q 22.859375 7.515625 30.078125 7.515625 
Q 37.359375 7.515625 41.375 12.890625 
Q 45.40625 18.265625 45.40625 27.984375 
z
M 54.390625 6.78125 
Q 54.390625 -7.171875 48.1875 -13.984375 
Q 42 -20.796875 29.203125 -20.796875 
Q 24.46875 -20.796875 20.265625 -20.09375 
Q 16.0625 -19.390625 12.109375 -17.921875 
L 12.109375 -9.1875 
Q 16.0625 -11.328125 19.921875 -12.34375 
Q 23.78125 -13.375 27.78125 -13.375 
Q 36.625 -13.375 41.015625 -8.765625 
Q 45.40625 -4.15625 45.40625 5.171875 
L 45.40625 9.625 
Q 42.625 4.78125 38.28125 2.390625 
Q 33.9375 0 27.875 0 
Q 17.828125 0 11.671875 7.65625 
Q 5.515625 15.328125 5.515625 27.984375 
Q 5.515625 40.671875 11.671875 48.328125 
Q 17.828125 56 27.875 56 
Q 33.9375 56 38.28125 53.609375 
Q 42.625 51.21875 45.40625 46.390625 
L 45.40625 54.6875 
L 54.390625 54.6875 
z
" id="DejaVuSans-67"/>
      <path d="M 12.40625 8.296875 
L 28.515625 8.296875 
L 28.515625 63.921875 
L 10.984375 60.40625 
L 10.984375 69.390625 
L 28.421875 72.90625 
L 38.28125 72.90625 
L 38.28125 8.296875 
L 54.390625 8.296875 
L 54.390625 0 
L 12.40625 0 
z
" id="DejaVuSans-31"/>
      <path d="M 31 75.875 
Q 24.46875 64.65625 21.28125 53.65625 
Q 18.109375 42.671875 18.109375 31.390625 
Q 18.109375 20.125 21.3125 9.0625 
Q 24.515625 -2 31 -13.1875 
L 23.1875 -13.1875 
Q 15.875 -1.703125 12.234375 9.375 
Q 8.59375 20.453125 8.59375 31.390625 
Q 8.59375 42.28125 12.203125 53.3125 
Q 15.828125 64.359375 23.1875 75.875 
z
" id="DejaVuSans-28"/>
      <path d="M 51.125 44 
L 36.921875 44 
L 32.8125 27.6875 
L 47.125 27.6875 
z
M 43.796875 71.78125 
L 38.71875 51.515625 
L 52.984375 51.515625 
L 58.109375 71.78125 
L 65.921875 71.78125 
L 60.890625 51.515625 
L 76.125 51.515625 
L 76.125 44 
L 58.984375 44 
L 54.984375 27.6875 
L 70.515625 27.6875 
L 70.515625 20.21875 
L 53.078125 20.21875 
L 48 0 
L 40.1875 0 
L 45.21875 20.21875 
L 30.90625 20.21875 
L 25.875 0 
L 18.015625 0 
L 23.09375 20.21875 
L 7.71875 20.21875 
L 7.71875 27.6875 
L 24.90625 27.6875 
L 29 44 
L 13.28125 44 
L 13.28125 51.515625 
L 30.90625 51.515625 
L 35.890625 71.78125 
z
" id="DejaVuSans-23"/>
      <path id="DejaVuSans-20"/>
      <path d="M 37.109375 75.984375 
L 37.109375 68.5 
L 28.515625 68.5 
Q 23.6875 68.5 21.796875 66.546875 
Q 19.921875 64.59375 19.921875 59.515625 
L 19.921875 54.6875 
L 34.71875 54.6875 
L 34.71875 47.703125 
L 19.921875 47.703125 
L 19.921875 0 
L 10.890625 0 
L 10.890625 47.703125 
L 2.296875 47.703125 
L 2.296875 54.6875 
L 10.890625 54.6875 
L 10.890625 58.5 
Q 10.890625 67.625 15.140625 71.796875 
Q 19.390625 75.984375 28.609375 75.984375 
z
" id="DejaVuSans-66"/>
      <path d="M 4.890625 31.390625 
L 31.203125 31.390625 
L 31.203125 23.390625 
L 4.890625 23.390625 
z
" id="DejaVuSans-2d"/>
      <path d="M 56.203125 29.59375 
L 56.203125 25.203125 
L 14.890625 25.203125 
Q 15.484375 15.921875 20.484375 11.0625 
Q 25.484375 6.203125 34.421875 6.203125 
Q 39.59375 6.203125 44.453125 7.46875 
Q 49.3125 8.734375 54.109375 11.28125 
L 54.109375 2.78125 
Q 49.265625 0.734375 44.1875 -0.34375 
Q 39.109375 -1.421875 33.890625 -1.421875 
Q 20.796875 -1.421875 13.15625 6.1875 
Q 5.515625 13.8125 5.515625 26.8125 
Q 5.515625 40.234375 12.765625 48.109375 
Q 20.015625 56 32.328125 56 
Q 43.359375 56 49.78125 48.890625 
Q 56.203125 41.796875 56.203125 29.59375 
z
M 47.21875 32.234375 
Q 47.125 39.59375 43.09375 43.984375 
Q 39.0625 48.390625 32.421875 48.390625 
Q 24.90625 48.390625 20.390625 44.140625 
Q 15.875 39.890625 15.1875 32.171875 
z
" id="DejaVuSans-65"/>
      <path d="M 2.984375 54.6875 
L 12.5 54.6875 
L 29.59375 8.796875 
L 46.6875 54.6875 
L 56.203125 54.6875 
L 35.6875 0 
L 23.484375 0 
z
" id="DejaVuSans-76"/>
      <path d="M 34.28125 27.484375 
Q 23.390625 27.484375 19.1875 25 
Q 14.984375 22.515625 14.984375 16.5 
Q 14.984375 11.71875 18.140625 8.90625 
Q 21.296875 6.109375 26.703125 6.109375 
Q 34.1875 6.109375 38.703125 11.40625 
Q 43.21875 16.703125 43.21875 25.484375 
L 43.21875 27.484375 
z
M 52.203125 31.203125 
L 52.203125 0 
L 43.21875 0 
L 43.21875 8.296875 
Q 40.140625 3.328125 35.546875 0.953125 
Q 30.953125 -1.421875 24.3125 -1.421875 
Q 15.921875 -1.421875 10.953125 3.296875 
Q 6 8.015625 6 15.921875 
Q 6 25.140625 12.171875 29.828125 
Q 18.359375 34.515625 30.609375 34.515625 
L 43.21875 34.515625 
L 43.21875 35.40625 
Q 43.21875 41.609375 39.140625 45 
Q 35.0625 48.390625 27.6875 48.390625 
Q 23 48.390625 18.546875 47.265625 
Q 14.109375 46.140625 10.015625 43.890625 
L 10.015625 52.203125 
Q 14.9375 54.109375 19.578125 55.046875 
Q 24.21875 56 28.609375 56 
Q 40.484375 56 46.34375 49.84375 
Q 52.203125 43.703125 52.203125 31.203125 
z
" id="DejaVuSans-61"/>
      <path d="M 44.28125 53.078125 
L 44.28125 44.578125 
Q 40.484375 46.53125 36.375 47.5 
Q 32.28125 48.484375 27.875 48.484375 
Q 21.1875 48.484375 17.84375 46.4375 
Q 14.5 44.390625 14.5 40.28125 
Q 14.5 37.15625 16.890625 35.375 
Q 19.28125 33.59375 26.515625 31.984375 
L 29.59375 31.296875 
Q 39.15625 29.25 43.1875 25.515625 
Q 47.21875 21.78125 47.21875 15.09375 
Q 47.21875 7.46875 41.1875 3.015625 
Q 35.15625 -1.421875 24.609375 -1.421875 
Q 20.21875 -1.421875 15.453125 -0.5625 
Q 10.6875 0.296875 5.421875 2 
L 5.421875 11.28125 
Q 10.40625 8.6875 15.234375 7.390625 
Q 20.0625 6.109375 24.8125 6.109375 
Q 31.15625 6.109375 34.5625 8.28125 
Q 37.984375 10.453125 37.984375 14.40625 
Q 37.984375 18.0625 35.515625 20.015625 
Q 33.0625 21.96875 24.703125 23.78125 
L 21.578125 24.515625 
Q 13.234375 26.265625 9.515625 29.90625 
Q 5.8125 33.546875 5.8125 39.890625 
Q 5.8125 47.609375 11.28125 51.796875 
Q 16.75 56 26.8125 56 
Q 31.78125 56 36.171875 55.265625 
Q 40.578125 54.546875 44.28125 53.078125 
z
" id="DejaVuSans-73"/>
      <path d="M 25.390625 72.90625 
L 33.6875 72.90625 
L 8.296875 -9.28125 
L 0 -9.28125 
z
" id="DejaVuSans-2f"/>
      <path d="M 45.40625 46.390625 
L 45.40625 75.984375 
L 54.390625 75.984375 
L 54.390625 0 
L 45.40625 0 
L 45.40625 8.203125 
Q 42.578125 3.328125 38.25 0.953125 
Q 33.9375 -1.421875 27.875 -1.421875 
Q 17.96875 -1.421875 11.734375 6.484375 
Q 5.515625 14.40625 5.515625 27.296875 
Q 5.515625 40.1875 11.734375 48.09375 
Q 17.96875 56 27.875 56 
Q 33.9375 56 38.25 53.625 
Q 42.578125 51.265625 45.40625 46.390625 
z
M 14.796875 27.296875 
Q 14.796875 17.390625 18.875 11.75 
Q 22.953125 6.109375 30.078125 6.109375 
Q 37.203125 6.109375 41.296875 11.75 
Q 45.40625 17.390625 45.40625 27.296875 
Q 45.40625 37.203125 41.296875 42.84375 
Q 37.203125 48.484375 30.078125 48.484375 
Q 22.953125 48.484375 18.875 42.84375 
Q 14.796875 37.203125 14.796875 27.296875 
z
" id="DejaVuSans-64"/>
      <path d="M 9.421875 54.6875 
L 18.40625 54.6875 
L 18.40625 0 
L 9.421875 0 
z
M 9.421875 75.984375 
L 18.40625 75.984375 
L 18.40625 64.59375 
L 9.421875 64.59375 
z
" id="DejaVuSans-69"/>
      <path d="M 52 44.1875 
Q 55.375 50.25 60.0625 53.125 
Q 64.75 56 71.09375 56 
Q 79.640625 56 84.28125 50.015625 
Q 88.921875 44.046875 88.921875 33.015625 
L 88.921875 0 
L 79.890625 0 
L 79.890625 32.71875 
Q 79.890625 40.578125 77.09375 44.375 
Q 74.3125 48.1875 68.609375 48.1875 
Q 61.625 48.1875 57.5625 43.546875 
Q 53.515625 38.921875 53.515625 30.90625 
L 53.515625 0 
L 44.484375 0 
L 44.484375 32.71875 
Q 44.484375 40.625 41.703125 44.40625 
Q 38.921875 48.1875 33.109375 48.1875 
Q 26.21875 48.1875 22.15625 43.53125 
Q 18.109375 38.875 18.109375 30.90625 
L 18.109375 0 
L 9.078125 0 
L 9.078125 54.6875 
L 18.109375 54.6875 
L 18.109375 46.1875 
Q 21.1875 51.21875 25.484375 53.609375 
Q 29.78125 56 35.6875 56 
Q 41.65625 56 45.828125 52.96875 
Q 50 49.953125 52 44.1875 
z
" id="DejaVuSans-6d"/>
      <path d="M 54.890625 33.015625 
L 54.890625 0 
L 45.90625 0 
L 45.90625 32.71875 
Q 45.90625 40.484375 42.875 44.328125 
Q 39.84375 48.1875 33.796875 48.1875 
Q 26.515625 48.1875 22.3125 43.546875 
Q 18.109375 38.921875 18.109375 30.90625 
L 18.109375 0 
L 9.078125 0 
L 9.078125 54.6875 
L 18.109375 54.6875 
L 18.109375 46.1875 
Q 21.34375 51.125 25.703125 53.5625 
Q 30.078125 56 35.796875 56 
Q 45.21875 56 50.046875 50.171875 
Q 54.890625 44.34375 54.890625 33.015625 
z
" id="DejaVuSans-6e"/>
      <path d="M 8.015625 75.875 
L 15.828125 75.875 
Q 23.140625 64.359375 26.78125 53.3125 
Q 30.421875 42.28125 30.421875 31.390625 
Q 30.421875 20.453125 26.78125 9.375 
Q 23.140625 -1.703125 15.828125 -13.1875 
L 8.015625 -13.1875 
Q 14.5 -2 17.703125 9.0625 
Q 20.90625 20.125 20.90625 31.390625 
Q 20.90625 42.671875 17.703125 53.65625 
Q 14.5 64.65625 8.015625 75.875 
z
" id="DejaVuSans-29"/>
     </defs>
     <g transform="translate(73.803219 338.153594)scale(0.17 -0.17)">
      <use xlink:href="#DejaVuSans-6c"/>
      <use x="27.783203" xlink:href="#DejaVuSans-6f"/>
      <use x="88.964844" xlink:href="#DejaVuSans-67"/>
      <use x="152.441406" xlink:href="#DejaVuSans-31"/>
      <use x="216.064453" xlink:href="#DejaVuSans-30"/>
      <use x="279.6875" xlink:href="#DejaVuSans-28"/>
      <use x="318.701172" xlink:href="#DejaVuSans-23"/>
      <use x="402.490234" xlink:href="#DejaVuSans-20"/>
      <use x="434.277344" xlink:href="#DejaVuSans-66"/>
      <use x="469.404297" xlink:href="#DejaVuSans-2d"/>
      <use x="505.488281" xlink:href="#DejaVuSans-65"/>
      <use x="567.011719" xlink:href="#DejaVuSans-76"/>
      <use x="626.191406" xlink:href="#DejaVuSans-61"/>
      <use x="687.470703" xlink:href="#DejaVuSans-6c"/>
      <use x="715.253906" xlink:href="#DejaVuSans-73"/>
      <use x="767.353516" xlink:href="#DejaVuSans-20"/>
      <use x="799.140625" xlink:href="#DejaVuSans-2f"/>
      <use x="832.832031" xlink:href="#DejaVuSans-20"/>
      <use x="864.619141" xlink:href="#DejaVuSans-64"/>
      <use x="928.095703" xlink:href="#DejaVuSans-69"/>
      <use x="955.878906" xlink:href="#DejaVuSans-6d"/>
      <use x="1053.291016" xlink:href="#DejaVuSans-65"/>
      <use x="1114.814453" xlink:href="#DejaVuSans-6e"/>
      <use x="1178.193359" xlink:href="#DejaVuSans-73"/>
      <use x="1230.292969" xlink:href="#DejaVuSans-69"/>
      <use x="1258.076172" xlink:href="#DejaVuSans-6f"/>
      <use x="1319.257812" xlink:href="#DejaVuSans-6e"/>
      <use x="1382.636719" xlink:href="#DejaVuSans-29"/>
     </g>
    </g>
   </g>
   <g id="matplotlib.axis_2">
    <g id="ytick_1">
     <g id="line2d_25">
      <path clip-path="url(#pb26b6b7017)" d="M 56.12 294.88 
L 333.168 294.88 
" style="fill:none;stroke:#b0b0b0;stroke-linecap:square;stroke-width:0.8;"/>
     </g>
     <g id="line2d_26">
      <defs>
       <path d="M 0 0 
L -3.5 0 
" id="m07b3fcaa55" style="stroke:#000000;stroke-width:0.8;"/>
      </defs>
      <g>
       <use style="stroke:#000000;stroke-width:0.8;" x="56.12" xlink:href="#m07b3fcaa55" y="294.88"/>
      </g>
     </g>
     <g id="text_6">
      <!-- 0.0 -->
      <defs>
       <path d="M 10.6875 12.40625 
L 21 12.40625 
L 21 0 
L 10.6875 0 
z
" id="DejaVuSans-2e"/>
      </defs>
      <g transform="translate(23.675 300.95875)scale(0.16 -0.16)">
       <use xlink:href="#DejaVuSans-30"/>
       <use x="63.623047" xlink:href="#DejaVuSans-2e"/>
       <use x="95.410156" xlink:href="#DejaVuSans-30"/>
      </g>
     </g>
    </g>
    <g id="ytick_2">
     <g id="line2d_27">
      <path clip-path="url(#pb26b6b7017)" d="M 56.12 237.843411 
L 333.168 237.843411 
" style="fill:none;stroke:#b0b0b0;stroke-linecap:square;stroke-width:0.8;"/>
     </g>
     <g id="line2d_28">
      <g>
       <use style="stroke:#000000;stroke-width:0.8;" x="56.12" xlink:href="#m07b3fcaa55" y="237.843411"/>
      </g>
     </g>
     <g id="text_7">
      <!-- 0.2 -->
      <g transform="translate(23.675 243.922161)scale(0.16 -0.16)">
       <use xlink:href="#DejaVuSans-30"/>
       <use x="63.623047" xlink:href="#DejaVuSans-2e"/>
       <use x="95.410156" xlink:href="#DejaVuSans-32"/>
      </g>
     </g>
    </g>
    <g id="ytick_3">
     <g id="line2d_29">
      <path clip-path="url(#pb26b6b7017)" d="M 56.12 180.806823 
L 333.168 180.806823 
" style="fill:none;stroke:#b0b0b0;stroke-linecap:square;stroke-width:0.8;"/>
     </g>
     <g id="line2d_30">
      <g>
       <use style="stroke:#000000;stroke-width:0.8;" x="56.12" xlink:href="#m07b3fcaa55" y="180.806823"/>
      </g>
     </g>
     <g id="text_8">
      <!-- 0.4 -->
      <g transform="translate(23.675 186.885573)scale(0.16 -0.16)">
       <use xlink:href="#DejaVuSans-30"/>
       <use x="63.623047" xlink:href="#DejaVuSans-2e"/>
       <use x="95.410156" xlink:href="#DejaVuSans-34"/>
      </g>
     </g>
    </g>
    <g id="ytick_4">
     <g id="line2d_31">
      <path clip-path="url(#pb26b6b7017)" d="M 56.12 123.770234 
L 333.168 123.770234 
" style="fill:none;stroke:#b0b0b0;stroke-linecap:square;stroke-width:0.8;"/>
     </g>
     <g id="line2d_32">
      <g>
       <use style="stroke:#000000;stroke-width:0.8;" x="56.12" xlink:href="#m07b3fcaa55" y="123.770234"/>
      </g>
     </g>
     <g id="text_9">
      <!-- 0.6 -->
      <g transform="translate(23.675 129.848984)scale(0.16 -0.16)">
       <use xlink:href="#DejaVuSans-30"/>
       <use x="63.623047" xlink:href="#DejaVuSans-2e"/>
       <use x="95.410156" xlink:href="#DejaVuSans-36"/>
      </g>
     </g>
    </g>
    <g id="ytick_5">
     <g id="line2d_33">
      <path clip-path="url(#pb26b6b7017)" d="M 56.12 66.733646 
L 333.168 66.733646 
" style="fill:none;stroke:#b0b0b0;stroke-linecap:square;stroke-width:0.8;"/>
     </g>
     <g id="line2d_34">
      <g>
       <use style="stroke:#000000;stroke-width:0.8;" x="56.12" xlink:href="#m07b3fcaa55" y="66.733646"/>
      </g>
     </g>
     <g id="text_10">
      <!-- 0.8 -->
      <defs>
       <path d="M 31.78125 34.625 
Q 24.75 34.625 20.71875 30.859375 
Q 16.703125 27.09375 16.703125 20.515625 
Q 16.703125 13.921875 20.71875 10.15625 
Q 24.75 6.390625 31.78125 6.390625 
Q 38.8125 6.390625 42.859375 10.171875 
Q 46.921875 13.96875 46.921875 20.515625 
Q 46.921875 27.09375 42.890625 30.859375 
Q 38.875 34.625 31.78125 34.625 
z
M 21.921875 38.8125 
Q 15.578125 40.375 12.03125 44.71875 
Q 8.5 49.078125 8.5 55.328125 
Q 8.5 64.0625 14.71875 69.140625 
Q 20.953125 74.21875 31.78125 74.21875 
Q 42.671875 74.21875 48.875 69.140625 
Q 55.078125 64.0625 55.078125 55.328125 
Q 55.078125 49.078125 51.53125 44.71875 
Q 48 40.375 41.703125 38.8125 
Q 48.828125 37.15625 52.796875 32.3125 
Q 56.78125 27.484375 56.78125 20.515625 
Q 56.78125 9.90625 50.3125 4.234375 
Q 43.84375 -1.421875 31.78125 -1.421875 
Q 19.734375 -1.421875 13.25 4.234375 
Q 6.78125 9.90625 6.78125 20.515625 
Q 6.78125 27.484375 10.78125 32.3125 
Q 14.796875 37.15625 21.921875 38.8125 
z
M 18.3125 54.390625 
Q 18.3125 48.734375 21.84375 45.5625 
Q 25.390625 42.390625 31.78125 42.390625 
Q 38.140625 42.390625 41.71875 45.5625 
Q 45.3125 48.734375 45.3125 54.390625 
Q 45.3125 60.0625 41.71875 63.234375 
Q 38.140625 66.40625 31.78125 66.40625 
Q 25.390625 66.40625 21.84375 63.234375 
Q 18.3125 60.0625 18.3125 54.390625 
z
" id="DejaVuSans-38"/>
      </defs>
      <g transform="translate(23.675 72.812396)scale(0.16 -0.16)">
       <use xlink:href="#DejaVuSans-30"/>
       <use x="63.623047" xlink:href="#DejaVuSans-2e"/>
       <use x="95.410156" xlink:href="#DejaVuSans-38"/>
      </g>
     </g>
    </g>
    <g id="ytick_6">
     <g id="line2d_35">
      <path clip-path="url(#pb26b6b7017)" d="M 56.12 9.697057 
L 333.168 9.697057 
" style="fill:none;stroke:#b0b0b0;stroke-linecap:square;stroke-width:0.8;"/>
     </g>
     <g id="line2d_36">
      <g>
       <use style="stroke:#000000;stroke-width:0.8;" x="56.12" xlink:href="#m07b3fcaa55" y="9.697057"/>
      </g>
     </g>
     <g id="text_11">
      <!-- 1.0 -->
      <g transform="translate(23.675 15.775807)scale(0.16 -0.16)">
       <use xlink:href="#DejaVuSans-31"/>
       <use x="63.623047" xlink:href="#DejaVuSans-2e"/>
       <use x="95.410156" xlink:href="#DejaVuSans-30"/>
      </g>
     </g>
    </g>
    <g id="text_12">
     <!-- Fraction of function,target pairs -->
     <defs>
      <path d="M 9.8125 72.90625 
L 51.703125 72.90625 
L 51.703125 64.59375 
L 19.671875 64.59375 
L 19.671875 43.109375 
L 48.578125 43.109375 
L 48.578125 34.8125 
L 19.671875 34.8125 
L 19.671875 0 
L 9.8125 0 
z
" id="DejaVuSans-46"/>
      <path d="M 41.109375 46.296875 
Q 39.59375 47.171875 37.8125 47.578125 
Q 36.03125 48 33.890625 48 
Q 26.265625 48 22.1875 43.046875 
Q 18.109375 38.09375 18.109375 28.8125 
L 18.109375 0 
L 9.078125 0 
L 9.078125 54.6875 
L 18.109375 54.6875 
L 18.109375 46.1875 
Q 20.953125 51.171875 25.484375 53.578125 
Q 30.03125 56 36.53125 56 
Q 37.453125 56 38.578125 55.875 
Q 39.703125 55.765625 41.0625 55.515625 
z
" id="DejaVuSans-72"/>
      <path d="M 48.78125 52.59375 
L 48.78125 44.1875 
Q 44.96875 46.296875 41.140625 47.34375 
Q 37.3125 48.390625 33.40625 48.390625 
Q 24.65625 48.390625 19.8125 42.84375 
Q 14.984375 37.3125 14.984375 27.296875 
Q 14.984375 17.28125 19.8125 11.734375 
Q 24.65625 6.203125 33.40625 6.203125 
Q 37.3125 6.203125 41.140625 7.25 
Q 44.96875 8.296875 48.78125 10.40625 
L 48.78125 2.09375 
Q 45.015625 0.34375 40.984375 -0.53125 
Q 36.96875 -1.421875 32.421875 -1.421875 
Q 20.0625 -1.421875 12.78125 6.34375 
Q 5.515625 14.109375 5.515625 27.296875 
Q 5.515625 40.671875 12.859375 48.328125 
Q 20.21875 56 33.015625 56 
Q 37.15625 56 41.109375 55.140625 
Q 45.0625 54.296875 48.78125 52.59375 
z
" id="DejaVuSans-63"/>
      <path d="M 18.3125 70.21875 
L 18.3125 54.6875 
L 36.8125 54.6875 
L 36.8125 47.703125 
L 18.3125 47.703125 
L 18.3125 18.015625 
Q 18.3125 11.328125 20.140625 9.421875 
Q 21.96875 7.515625 27.59375 7.515625 
L 36.8125 7.515625 
L 36.8125 0 
L 27.59375 0 
Q 17.1875 0 13.234375 3.875 
Q 9.28125 7.765625 9.28125 18.015625 
L 9.28125 47.703125 
L 2.6875 47.703125 
L 2.6875 54.6875 
L 9.28125 54.6875 
L 9.28125 70.21875 
z
" id="DejaVuSans-74"/>
      <path d="M 8.5 21.578125 
L 8.5 54.6875 
L 17.484375 54.6875 
L 17.484375 21.921875 
Q 17.484375 14.15625 20.5 10.265625 
Q 23.53125 6.390625 29.59375 6.390625 
Q 36.859375 6.390625 41.078125 11.03125 
Q 45.3125 15.671875 45.3125 23.6875 
L 45.3125 54.6875 
L 54.296875 54.6875 
L 54.296875 0 
L 45.3125 0 
L 45.3125 8.40625 
Q 42.046875 3.421875 37.71875 1 
Q 33.40625 -1.421875 27.6875 -1.421875 
Q 18.265625 -1.421875 13.375 4.4375 
Q 8.5 10.296875 8.5 21.578125 
z
M 31.109375 56 
z
" id="DejaVuSans-75"/>
      <path d="M 11.71875 12.40625 
L 22.015625 12.40625 
L 22.015625 4 
L 14.015625 -11.625 
L 7.71875 -11.625 
L 11.71875 4 
z
" id="DejaVuSans-2c"/>
      <path d="M 18.109375 8.203125 
L 18.109375 -20.796875 
L 9.078125 -20.796875 
L 9.078125 54.6875 
L 18.109375 54.6875 
L 18.109375 46.390625 
Q 20.953125 51.265625 25.265625 53.625 
Q 29.59375 56 35.59375 56 
Q 45.5625 56 51.78125 48.09375 
Q 58.015625 40.1875 58.015625 27.296875 
Q 58.015625 14.40625 51.78125 6.484375 
Q 45.5625 -1.421875 35.59375 -1.421875 
Q 29.59375 -1.421875 25.265625 0.953125 
Q 20.953125 3.328125 18.109375 8.203125 
z
M 48.6875 27.296875 
Q 48.6875 37.203125 44.609375 42.84375 
Q 40.53125 48.484375 33.40625 48.484375 
Q 26.265625 48.484375 22.1875 42.84375 
Q 18.109375 37.203125 18.109375 27.296875 
Q 18.109375 17.390625 22.1875 11.75 
Q 26.265625 6.109375 33.40625 6.109375 
Q 40.53125 6.109375 44.609375 11.75 
Q 48.6875 17.390625 48.6875 27.296875 
z
" id="DejaVuSans-70"/>
     </defs>
     <g transform="translate(16.139531 286.001989)rotate(-90)scale(0.17 -0.17)">
      <use xlink:href="#DejaVuSans-46"/>
      <use x="57.410156" xlink:href="#DejaVuSans-72"/>
      <use x="98.523438" xlink:href="#DejaVuSans-61"/>
      <use x="159.802734" xlink:href="#DejaVuSans-63"/>
      <use x="214.783203" xlink:href="#DejaVuSans-74"/>
      <use x="253.992188" xlink:href="#DejaVuSans-69"/>
      <use x="281.775391" xlink:href="#DejaVuSans-6f"/>
      <use x="342.957031" xlink:href="#DejaVuSans-6e"/>
      <use x="406.335938" xlink:href="#DejaVuSans-20"/>
      <use x="438.123047" xlink:href="#DejaVuSans-6f"/>
      <use x="499.304688" xlink:href="#DejaVuSans-66"/>
      <use x="534.509766" xlink:href="#DejaVuSans-20"/>
      <use x="566.296875" xlink:href="#DejaVuSans-66"/>
      <use x="601.501953" xlink:href="#DejaVuSans-75"/>
      <use x="664.880859" xlink:href="#DejaVuSans-6e"/>
      <use x="728.259766" xlink:href="#DejaVuSans-63"/>
      <use x="783.240234" xlink:href="#DejaVuSans-74"/>
      <use x="822.449219" xlink:href="#DejaVuSans-69"/>
      <use x="850.232422" xlink:href="#DejaVuSans-6f"/>
      <use x="911.414062" xlink:href="#DejaVuSans-6e"/>
      <use x="974.792969" xlink:href="#DejaVuSans-2c"/>
      <use x="1006.580078" xlink:href="#DejaVuSans-74"/>
      <use x="1045.789062" xlink:href="#DejaVuSans-61"/>
      <use x="1107.068359" xlink:href="#DejaVuSans-72"/>
      <use x="1148.166016" xlink:href="#DejaVuSans-67"/>
      <use x="1211.642578" xlink:href="#DejaVuSans-65"/>
      <use x="1273.166016" xlink:href="#DejaVuSans-74"/>
      <use x="1312.375" xlink:href="#DejaVuSans-20"/>
      <use x="1344.162109" xlink:href="#DejaVuSans-70"/>
      <use x="1407.638672" xlink:href="#DejaVuSans-61"/>
      <use x="1468.917969" xlink:href="#DejaVuSans-69"/>
      <use x="1496.701172" xlink:href="#DejaVuSans-72"/>
      <use x="1537.814453" xlink:href="#DejaVuSans-73"/>
     </g>
    </g>
   </g>
   <g id="line2d_37">
    <defs>
     <path d="M 0 1.5 
C 0.397805 1.5 0.77937 1.341951 1.06066 1.06066 
C 1.341951 0.77937 1.5 0.397805 1.5 0 
C 1.5 -0.397805 1.341951 -0.77937 1.06066 -1.06066 
C 0.77937 -1.341951 0.397805 -1.5 0 -1.5 
C -0.397805 -1.5 -0.77937 -1.341951 -1.06066 -1.06066 
C -1.341951 -0.77937 -1.5 -0.397805 -1.5 0 
C -1.5 0.397805 -1.341951 0.77937 -1.06066 1.06066 
C -0.77937 1.341951 -0.397805 1.5 0 1.5 
z
" id="m51c7231625" style="stroke:#000080;"/>
    </defs>
    <g>
     <use style="fill:#000080;stroke:#000080;" x="224.925851" xlink:href="#m51c7231625" y="9.697057"/>
     <use style="fill:#000080;stroke:#000080;" x="224.925851" xlink:href="#m51c7231625" y="9.697057"/>
    </g>
   </g>
   <g id="line2d_38">
    <path d="M 119.310576 294.88 
L 119.310576 294.320818 
L 121.551317 294.320818 
L 121.551317 291.524907 
L 130.67209 291.524907 
L 130.67209 290.965724 
L 132.684132 290.965724 
L 132.684132 289.288178 
L 134.574897 289.288178 
L 134.574897 287.610631 
L 135.190413 287.610631 
L 135.190413 287.051449 
L 138.623956 287.051449 
L 138.623956 284.81472 
L 144.895601 284.81472 
L 144.895601 281.459626 
L 145.4275 281.459626 
L 145.4275 279.782079 
L 148.273273 279.782079 
L 148.273273 276.986168 
L 149.962801 276.986168 
L 149.962801 275.867804 
L 152.124937 275.867804 
L 152.124937 270.275981 
L 152.912822 270.275981 
L 152.912822 268.598435 
L 153.187846 268.598435 
L 153.187846 266.361706 
L 154.556673 266.361706 
L 154.556673 265.802523 
L 155.296378 265.802523 
L 155.296378 264.124977 
L 157.695196 264.124977 
L 157.695196 263.565795 
L 158.268586 263.565795 
L 158.268586 261.329066 
L 159.018915 261.329066 
L 159.018915 256.855608 
L 159.276106 256.855608 
L 159.276106 255.737243 
L 161.053039 255.737243 
L 161.053039 254.618879 
L 161.224831 254.618879 
L 161.224831 254.059696 
L 163.565102 254.059696 
L 163.565102 252.38215 
L 163.958377 252.38215 
L 163.958377 251.822967 
L 164.500549 251.822967 
L 164.500549 251.263785 
L 165.447232 251.263785 
L 165.447232 250.704603 
L 166.202898 250.704603 
L 166.202898 249.586238 
L 166.554703 249.586238 
L 166.554703 248.467874 
L 168.736376 248.467874 
L 168.736376 247.908692 
L 169.339125 247.908692 
L 169.339125 245.112781 
L 170.001425 245.112781 
L 170.001425 243.994416 
L 170.362355 243.994416 
L 170.406943 241.757687 
L 170.900745 241.757687 
L 170.900745 237.284229 
L 171.094361 237.284229 
L 171.094361 236.165865 
L 171.765632 236.165865 
L 171.765632 235.606682 
L 172.01075 235.606682 
L 172.01075 234.488318 
L 172.461133 234.488318 
L 172.461133 233.929136 
L 172.589076 233.929136 
L 172.589076 232.251589 
L 172.93849 232.251589 
L 172.93849 231.133225 
L 173.082009 231.133225 
L 173.082009 230.574042 
L 174.117336 230.574042 
L 174.171078 227.218949 
L 174.286947 227.218949 
L 174.286947 226.100584 
L 174.612516 226.100584 
L 174.62123 224.423038 
L 174.8892 224.423038 
L 174.8892 223.863855 
L 175.0429 223.863855 
L 175.0429 223.304673 
L 175.529008 223.304673 
L 175.529008 222.745491 
L 175.693493 222.745491 
L 175.693493 222.186309 
L 175.840197 222.186309 
L 175.945376 217.153669 
L 176.656404 217.153669 
L 176.656404 216.035304 
L 177.287041 216.035304 
L 177.287041 214.357757 
L 177.413401 214.357757 
L 177.413401 209.884299 
L 178.124256 209.884299 
L 178.124256 208.765935 
L 178.286914 208.765935 
L 178.286914 207.088388 
L 178.93614 207.088388 
L 178.93614 206.529206 
L 179.14498 206.529206 
L 179.198465 204.292477 
L 179.522476 204.292477 
L 179.522476 203.174112 
L 179.814752 203.174112 
L 179.814752 202.61493 
L 180.076788 202.61493 
L 180.076788 196.463926 
L 180.196878 196.463926 
L 180.196878 195.345561 
L 180.347382 195.345561 
L 180.409705 194.227197 
L 180.626072 194.227197 
L 180.669021 191.990468 
L 181.07476 191.990468 
L 181.07476 190.872103 
L 181.377312 190.872103 
L 181.377312 189.753739 
L 181.784094 189.753739 
L 181.864307 187.51701 
L 181.944149 187.51701 
L 181.955524 185.280281 
L 182.198298 185.280281 
L 182.298914 183.602734 
L 182.641043 183.602734 
L 182.679246 179.688458 
L 182.793348 179.688458 
L 182.793348 177.451729 
L 183.046008 177.451729 
L 183.046008 175.215 
L 183.258151 175.215 
L 183.326537 171.859907 
L 183.56118 171.859907 
L 183.659298 166.827267 
L 183.889472 166.827267 
L 183.889472 164.590538 
L 184.136649 164.590538 
L 184.136649 164.031356 
L 184.251457 164.031356 
L 184.251457 161.794627 
L 184.571828 161.794627 
L 184.6595 158.998715 
L 184.693475 158.998715 
L 184.785354 157.321169 
L 184.833515 157.321169 
L 184.929434 155.643622 
L 185.03433 155.643622 
L 185.062827 151.729346 
L 185.317199 151.729346 
L 185.317199 147.815071 
L 185.746649 147.815071 
L 185.837618 146.137524 
L 185.869344 146.137524 
L 185.910049 141.104884 
L 186.285381 141.104884 
L 186.285381 139.986519 
L 186.417466 139.986519 
L 186.417466 137.190608 
L 186.62238 137.190608 
L 186.657018 134.394697 
L 186.829163 134.394697 
L 186.829163 132.71715 
L 187.210302 132.71715 
L 187.285526 131.039603 
L 187.360422 131.039603 
L 187.360422 129.921239 
L 187.56677 129.921239 
L 187.673101 126.006963 
L 187.843487 126.006963 
L 187.843487 124.888599 
L 187.988201 124.888599 
L 187.988201 124.329417 
L 188.171357 124.329417 
L 188.266147 121.533505 
L 188.504746 121.533505 
L 188.55517 118.737594 
L 188.82798 118.737594 
L 188.82798 118.178412 
L 189.036376 118.178412 
L 189.070238 115.382501 
L 189.621357 115.382501 
L 189.621357 114.823318 
L 189.910127 114.823318 
L 189.960166 113.704954 
L 190.038507 113.704954 
L 190.073999 112.027407 
L 190.397129 112.027407 
L 190.501198 108.672314 
L 190.604641 108.672314 
L 190.604641 108.113132 
L 190.847002 108.113132 
L 190.955129 105.31722 
L 191.15272 105.31722 
L 191.15272 104.198856 
L 191.275485 104.198856 
L 191.275485 103.080491 
L 191.403943 103.080491 
L 191.417064 100.28458 
L 191.518415 100.28458 
L 191.570492 96.370304 
L 191.674175 96.370304 
L 191.780447 93.574393 
L 191.834937 93.574393 
L 191.937042 91.896847 
L 191.949763 91.896847 
L 191.997381 88.541753 
L 192.076453 88.541753 
L 192.076453 85.745842 
L 192.202216 85.745842 
L 192.311509 82.390748 
L 192.348822 82.390748 
L 192.407735 77.917291 
L 192.62 77.917291 
L 192.650547 71.766286 
L 192.935063 71.766286 
L 192.935063 71.207104 
L 193.078552 71.207104 
L 193.078552 70.088739 
L 193.268025 70.088739 
L 193.268025 68.970375 
L 193.635056 68.970375 
L 193.660975 65.056099 
L 194.118154 65.056099 
L 194.118154 64.496917 
L 194.285468 64.496917 
L 194.285468 63.937735 
L 194.794029 63.937735 
L 194.842455 60.023459 
L 194.9389 60.023459 
L 194.9389 59.464277 
L 195.172402 59.464277 
L 195.201368 58.345912 
L 195.361117 58.345912 
L 195.361117 55.550001 
L 195.811342 55.550001 
L 195.894936 53.872454 
L 195.930278 53.872454 
L 196.018315 51.076543 
L 196.272339 51.076543 
L 196.32171 48.280632 
L 196.495842 48.280632 
L 196.495842 47.72145 
L 196.61742 47.72145 
L 196.61742 43.807174 
L 196.874744 43.807174 
L 196.948581 41.011263 
L 197.154124 41.011263 
L 197.170556 39.892898 
L 197.27115 39.892898 
L 197.27115 38.215351 
L 198.314164 38.215351 
L 198.325137 36.537805 
L 198.425758 36.537805 
L 198.495409 33.182711 
L 198.958315 33.182711 
L 198.958315 31.505165 
L 199.802086 31.505165 
L 199.802086 29.827618 
L 200.32747 29.827618 
L 200.32747 28.709253 
L 200.774604 28.709253 
L 200.774604 28.150071 
L 200.903486 28.150071 
L 200.903486 27.590889 
L 202.429278 27.590889 
L 202.429278 25.913342 
L 208.206356 25.913342 
L 208.206356 25.35416 
L 208.687248 25.35416 
L 208.687248 24.235795 
L 208.837858 24.235795 
L 208.837858 23.676613 
L 209.035465 23.676613 
L 209.035465 23.117431 
L 209.736292 23.117431 
L 209.736292 22.558249 
L 210.020816 22.558249 
L 210.020816 21.999066 
L 210.149205 21.999066 
L 210.187756 20.32152 
L 210.297426 20.32152 
L 210.308355 18.084791 
L 210.52764 18.084791 
L 210.52764 17.525609 
L 210.667298 17.525609 
L 210.756939 15.848062 
L 210.848233 15.848062 
L 210.848233 15.28888 
L 211.052411 15.28888 
L 211.052411 14.729697 
L 211.973105 14.729697 
L 211.973105 13.052151 
L 213.221755 13.052151 
L 213.221755 12.492968 
L 218.571266 12.492968 
L 218.571266 11.933786 
L 219.163532 11.933786 
L 219.272184 10.815422 
L 224.663403 10.815422 
L 224.663403 10.256239 
L 224.925851 10.256239 
L 224.925851 9.697057 
L 333.168 9.697057 
L 333.168 9.697057 
" style="fill:none;stroke:#000080;stroke-linecap:square;stroke-width:1.5;"/>
   </g>
   <g id="line2d_39">
    <defs>
     <path d="M 0 6 
C 1.591219 6 3.117479 5.367802 4.242641 4.242641 
C 5.367802 3.117479 6 1.591219 6 0 
C 6 -1.591219 5.367802 -3.117479 4.242641 -4.242641 
C 3.117479 -5.367802 1.591219 -6 0 -6 
C -1.591219 -6 -3.117479 -5.367802 -4.242641 -4.242641 
C -5.367802 -3.117479 -6 -1.591219 -6 0 
C -6 1.591219 -5.367802 3.117479 -4.242641 4.242641 
C -3.117479 5.367802 -1.591219 6 0 6 
z
" id="m53e1c6dbf3" style="stroke:#000080;stroke-width:1.5;"/>
    </defs>
    <g>
     <use style="fill-opacity:0;stroke:#000080;stroke-width:1.5;" x="183.046008" xlink:href="#m53e1c6dbf3" y="175.215"/>
     <use style="fill-opacity:0;stroke:#000080;stroke-width:1.5;" x="197.170556" xlink:href="#m53e1c6dbf3" y="40.45208"/>
     <use style="fill-opacity:0;stroke:#000080;stroke-width:1.5;" x="224.925851" xlink:href="#m53e1c6dbf3" y="9.697057"/>
     <use style="fill-opacity:0;stroke:#000080;stroke-width:1.5;" x="224.925851" xlink:href="#m53e1c6dbf3" y="9.697057"/>
     <use style="fill-opacity:0;stroke:#000080;stroke-width:1.5;" x="333.168" xlink:href="#m53e1c6dbf3" y="9.697057"/>
    </g>
   </g>
   <g id="line2d_40">
    <path style="fill:none;stroke:#000080;stroke-linecap:square;stroke-width:1.5;"/>
    <g/>
   </g>
   <g id="line2d_41">
    <path clip-path="url(#pb26b6b7017)" d="M 202.691626 25.913342 
" style="fill:none;stroke:#000080;stroke-linecap:square;stroke-width:1.5;"/>
    <defs>
     <path d="M -12 12 
L 12 -12 
M -12 -12 
L 12 12 
" id="mafe324a512" style="stroke:#000080;"/>
    </defs>
    <g clip-path="url(#pb26b6b7017)">
     <use style="fill:#000080;stroke:#000080;" x="202.691626" xlink:href="#mafe324a512" y="25.913342"/>
    </g>
   </g>
   <g id="line2d_42">
    <defs>
     <path d="M 0 1.5 
C 0.397805 1.5 0.77937 1.341951 1.06066 1.06066 
C 1.341951 0.77937 1.5 0.397805 1.5 0 
C 1.5 -0.397805 1.341951 -0.77937 1.06066 -1.06066 
C 0.77937 -1.341951 0.397805 -1.5 0 -1.5 
C -0.397805 -1.5 -0.77937 -1.341951 -1.06066 -1.06066 
C -1.341951 -0.77937 -1.5 -0.397805 -1.5 0 
C -1.5 0.397805 -1.341951 0.77937 -1.06066 1.06066 
C -0.77937 1.341951 -0.397805 1.5 0 1.5 
z
" id="m36cb33f6af" style="stroke:#ff00ff;"/>
    </defs>
    <g>
     <use style="fill:#ff00ff;stroke:#ff00ff;" x="201.97761" xlink:href="#m36cb33f6af" y="9.697057"/>
     <use style="fill:#ff00ff;stroke:#ff00ff;" x="201.97761" xlink:href="#m36cb33f6af" y="9.697057"/>
    </g>
   </g>
   <g id="line2d_43">
    <path d="M 68.034251 294.88 
L 68.034251 290.406542 
L 81.973032 290.406542 
L 81.973032 288.728995 
L 83.784035 288.728995 
L 83.784035 285.373902 
L 85.422286 285.373902 
L 85.422286 283.696355 
L 86.917893 283.696355 
L 86.917893 282.018808 
L 90.753425 282.018808 
L 90.753425 281.459626 
L 93.887283 281.459626 
L 93.887283 280.341262 
L 95.698286 280.341262 
L 95.698286 279.222897 
L 98.832144 279.222897 
L 98.832144 278.104533 
L 101.481783 278.104533 
L 101.481783 276.986168 
L 103.231288 276.986168 
L 103.231288 276.426986 
L 112.449632 276.426986 
L 112.449632 275.308622 
L 113.700266 275.308622 
L 113.700266 273.071893 
L 116.220179 273.071893 
L 116.220179 271.394346 
L 116.478659 271.394346 
L 116.478659 269.157617 
L 116.984244 269.157617 
L 116.984244 268.598435 
L 120.568842 268.598435 
L 120.568842 268.039252 
L 128.264156 268.039252 
L 128.264156 266.920888 
L 132.882847 266.920888 
L 132.882847 265.802523 
L 133.176677 265.802523 
L 133.176677 265.243341 
L 135.10382 265.243341 
L 135.10382 264.684159 
L 137.301101 264.684159 
L 137.301101 263.565795 
L 137.528768 263.565795 
L 137.528768 263.006612 
L 138.121538 263.006612 
L 138.121538 262.44743 
L 140.561812 262.44743 
L 140.561812 261.888248 
L 142.360172 261.888248 
L 142.360172 260.769883 
L 142.920112 260.769883 
L 142.920112 260.210701 
L 143.779723 260.210701 
L 143.779723 259.651519 
L 144.993542 259.651519 
L 144.993542 257.41479 
L 145.897164 257.41479 
L 145.897164 256.855608 
L 146.622913 256.855608 
L 146.622913 255.178061 
L 147.947413 255.178061 
L 147.947413 254.618879 
L 148.070335 254.618879 
L 148.070335 253.500514 
L 148.232877 253.500514 
L 148.232877 252.941332 
L 148.393896 252.941332 
L 148.393896 252.38215 
L 150.180842 252.38215 
L 150.180842 250.704603 
L 151.733528 250.704603 
L 151.733528 250.145421 
L 152.189314 250.145421 
L 152.189314 248.467874 
L 154.245942 248.467874 
L 154.331245 247.34951 
L 154.38788 247.34951 
L 154.38788 246.790327 
L 156.6371 246.790327 
L 156.711349 245.671963 
L 157.222302 245.671963 
L 157.246258 244.553598 
L 157.413024 244.553598 
L 157.413024 241.757687 
L 157.857683 241.757687 
L 157.857683 240.639323 
L 158.018648 240.639323 
L 158.018648 240.08014 
L 160.126894 240.08014 
L 160.126894 239.520958 
L 160.487508 239.520958 
L 160.58635 235.606682 
L 160.645384 235.606682 
L 160.645384 235.0475 
L 161.033844 235.0475 
L 161.033844 234.488318 
L 161.600554 234.488318 
L 161.600554 233.929136 
L 161.711688 233.929136 
L 161.711688 233.369954 
L 161.931822 233.369954 
L 161.931822 232.810771 
L 162.256827 232.810771 
L 162.256827 231.133225 
L 162.715689 231.133225 
L 162.715689 230.01486 
L 163.548519 230.01486 
L 163.548519 228.337313 
L 163.97457 228.337313 
L 163.97457 225.541402 
L 164.94985 225.541402 
L 164.94985 224.98222 
L 166.428881 224.98222 
L 166.428881 223.863855 
L 167.634407 223.863855 
L 167.634407 222.745491 
L 168.451851 222.745491 
L 168.451851 221.627126 
L 168.785382 221.627126 
L 168.822044 220.508762 
L 169.44541 220.508762 
L 169.492438 219.390397 
L 170.473608 219.390397 
L 170.506844 218.272033 
L 170.889924 218.272033 
L 170.889924 216.594486 
L 171.147759 216.594486 
L 171.147759 215.476122 
L 171.475171 215.476122 
L 171.475171 214.91694 
L 172.071487 214.91694 
L 172.081589 211.002664 
L 172.919264 211.002664 
L 172.919264 209.325117 
L 173.091534 209.325117 
L 173.091534 208.765935 
L 173.280942 208.765935 
L 173.346745 207.088388 
L 173.827836 207.088388 
L 173.827836 206.529206 
L 174.242475 206.529206 
L 174.242475 205.970024 
L 174.419679 205.970024 
L 174.498828 204.851659 
L 175.02589 204.851659 
L 175.02589 204.292477 
L 175.570277 204.292477 
L 175.636102 200.378201 
L 175.77515 200.378201 
L 175.77515 199.819019 
L 175.888821 199.819019 
L 175.969557 197.58229 
L 176.609906 197.58229 
L 176.633171 193.668014 
L 176.955611 193.668014 
L 176.955611 190.872103 
L 177.435604 190.872103 
L 177.435604 190.312921 
L 177.612201 190.312921 
L 177.707106 186.398645 
L 178.293952 186.398645 
L 178.293952 185.280281 
L 178.642194 185.280281 
L 178.704135 183.043552 
L 179.178427 183.043552 
L 179.178427 181.925187 
L 180.12113 181.925187 
L 180.159046 179.129276 
L 180.52132 179.129276 
L 180.56453 178.010912 
L 180.809387 178.010912 
L 180.821539 175.215 
L 181.978253 175.215 
L 182.063219 172.978271 
L 182.125262 172.978271 
L 182.125262 172.419089 
L 182.553401 172.419089 
L 182.591799 171.300725 
L 183.01396 171.300725 
L 183.077997 168.504814 
L 183.566358 168.504814 
L 183.576709 167.386449 
L 183.88439 167.386449 
L 183.88439 166.268085 
L 184.051296 166.268085 
L 184.096536 164.031356 
L 184.221581 164.031356 
L 184.241504 162.353809 
L 184.601102 162.353809 
L 184.62059 158.439533 
L 184.886336 158.439533 
L 184.886336 157.880351 
L 185.039083 157.880351 
L 185.119681 152.847711 
L 185.456907 152.847711 
L 185.567861 146.137524 
L 185.955163 146.137524 
L 185.955163 145.578342 
L 186.294218 145.578342 
L 186.294218 145.019159 
L 186.430619 145.019159 
L 186.430619 142.78243 
L 186.661342 142.78243 
L 186.756212 140.545702 
L 186.871932 140.545702 
L 186.871932 139.986519 
L 187.016554 139.986519 
L 187.117912 138.308973 
L 187.381168 138.308973 
L 187.472158 136.631426 
L 187.831373 136.631426 
L 187.831373 136.072244 
L 187.984197 136.072244 
L 187.984197 133.276332 
L 188.489201 133.276332 
L 188.593857 131.039603 
L 188.617027 131.039603 
L 188.617027 130.480421 
L 188.81654 130.480421 
L 188.862255 128.243692 
L 188.957105 128.243692 
L 188.957105 126.566145 
L 189.100281 126.566145 
L 189.100281 126.006963 
L 189.257154 126.006963 
L 189.279448 122.65187 
L 189.431021 122.65187 
L 189.431021 122.092688 
L 189.628635 122.092688 
L 189.650453 120.974323 
L 189.935165 120.974323 
L 190.013619 117.61923 
L 190.073999 117.61923 
L 190.073999 117.060047 
L 190.194125 117.060047 
L 190.194125 116.500865 
L 190.344858 116.500865 
L 190.414518 112.027407 
L 190.656129 112.027407 
L 190.717713 110.349861 
L 190.95176 110.349861 
L 190.95176 108.672314 
L 191.182663 108.672314 
L 191.182663 104.198856 
L 191.321709 104.198856 
L 191.321709 103.639674 
L 191.453096 103.639674 
L 191.528191 101.962127 
L 191.57699 101.962127 
L 191.57699 99.166216 
L 191.834937 99.166216 
L 191.870104 96.929487 
L 192.048029 96.929487 
L 192.048029 95.811122 
L 192.286589 95.811122 
L 192.339501 93.574393 
L 192.534179 93.574393 
L 192.613884 92.456029 
L 192.802471 92.456029 
L 192.802471 91.896847 
L 193.02787 91.896847 
L 193.02787 90.778482 
L 193.25035 90.778482 
L 193.253297 88.541753 
L 193.718433 88.541753 
L 193.718433 87.982571 
L 193.93504 87.982571 
L 193.93504 86.305024 
L 194.07326 86.305024 
L 194.078879 81.831566 
L 194.193647 81.831566 
L 194.221524 80.15402 
L 194.327044 80.15402 
L 194.351941 79.035655 
L 194.626175 79.035655 
L 194.626175 77.358108 
L 194.791334 77.358108 
L 194.896102 75.680562 
L 194.933556 75.680562 
L 194.933556 75.121379 
L 195.066658 75.121379 
L 195.066658 74.562197 
L 195.306289 74.562197 
L 195.306289 74.003015 
L 195.630099 74.003015 
L 195.681347 71.766286 
L 195.813882 71.766286 
L 195.912616 66.733646 
L 195.935321 66.733646 
L 196.028348 63.378552 
L 196.09092 63.378552 
L 196.190565 60.023459 
L 196.272339 60.023459 
L 196.348804 56.109183 
L 196.464091 56.109183 
L 196.464091 55.550001 
L 196.624688 55.550001 
L 196.644053 53.872454 
L 196.76459 53.872454 
L 196.781398 51.635725 
L 196.924797 51.635725 
L 196.924797 51.076543 
L 197.10238 51.076543 
L 197.128271 48.839814 
L 197.426725 48.839814 
L 197.426725 47.72145 
L 197.619806 47.72145 
L 197.649495 46.043903 
L 197.835589 46.043903 
L 197.912164 43.247992 
L 198.10212 43.247992 
L 198.10212 41.570445 
L 198.243773 41.570445 
L 198.287801 40.45208 
L 198.38864 40.45208 
L 198.38864 39.892898 
L 198.536632 39.892898 
L 198.536632 39.333716 
L 198.676913 39.333716 
L 198.676913 37.656169 
L 198.822453 37.656169 
L 198.877777 34.860258 
L 199.084718 34.860258 
L 199.149664 31.505165 
L 199.448172 31.505165 
L 199.546533 28.709253 
L 199.573076 28.709253 
L 199.573076 28.150071 
L 199.695054 28.150071 
L 199.76581 26.472524 
L 199.860369 26.472524 
L 199.860369 25.913342 
L 200.111332 25.913342 
L 200.190242 24.235795 
L 200.247227 24.235795 
L 200.317704 21.439884 
L 200.360632 21.439884 
L 200.376215 19.203155 
L 200.62173 19.203155 
L 200.717435 15.848062 
L 200.850534 15.848062 
L 200.850534 15.28888 
L 201.134184 15.28888 
L 201.134184 14.170515 
L 201.522863 14.170515 
L 201.522863 11.933786 
L 201.658928 11.933786 
L 201.682404 10.256239 
L 201.97761 10.256239 
L 201.97761 9.697057 
L 333.168 9.697057 
L 333.168 9.697057 
" style="fill:none;stroke:#ff00ff;stroke-linecap:square;stroke-width:1.5;"/>
   </g>
   <g id="line2d_44">
    <defs>
     <path d="M -0 8.485281 
L 5.091169 0 
L 0 -8.485281 
L -5.091169 -0 
z
" id="m714c726a13" style="stroke:#ff00ff;stroke-linejoin:miter;stroke-width:1.5;"/>
    </defs>
    <g>
     <use style="fill-opacity:0;stroke:#ff00ff;stroke-linejoin:miter;stroke-width:1.5;" x="177.435604" xlink:href="#m714c726a13" y="190.312921"/>
     <use style="fill-opacity:0;stroke:#ff00ff;stroke-linejoin:miter;stroke-width:1.5;" x="200.850534" xlink:href="#m714c726a13" y="15.28888"/>
     <use style="fill-opacity:0;stroke:#ff00ff;stroke-linejoin:miter;stroke-width:1.5;" x="201.97761" xlink:href="#m714c726a13" y="9.697057"/>
     <use style="fill-opacity:0;stroke:#ff00ff;stroke-linejoin:miter;stroke-width:1.5;" x="201.97761" xlink:href="#m714c726a13" y="9.697057"/>
     <use style="fill-opacity:0;stroke:#ff00ff;stroke-linejoin:miter;stroke-width:1.5;" x="333.168" xlink:href="#m714c726a13" y="9.697057"/>
    </g>
   </g>
   <g id="line2d_45">
    <path style="fill:none;stroke:#ff00ff;stroke-linecap:square;stroke-width:1.5;"/>
    <g/>
   </g>
   <g id="line2d_46">
    <defs>
     <path d="M 0 1.5 
C 0.397805 1.5 0.77937 1.341951 1.06066 1.06066 
C 1.341951 0.77937 1.5 0.397805 1.5 0 
C 1.5 -0.397805 1.341951 -0.77937 1.06066 -1.06066 
C 0.77937 -1.341951 0.397805 -1.5 0 -1.5 
C -0.397805 -1.5 -0.77937 -1.341951 -1.06066 -1.06066 
C -1.341951 -0.77937 -1.5 -0.397805 -1.5 0 
C -1.5 0.397805 -1.341951 0.77937 -1.06066 1.06066 
C -0.77937 1.341951 -0.397805 1.5 0 1.5 
z
" id="m9049142319" style="stroke:#ffa500;"/>
    </defs>
    <g>
     <use style="fill:#ffa500;stroke:#ffa500;" x="196.188081" xlink:href="#m9049142319" y="9.697057"/>
     <use style="fill:#ffa500;stroke:#ffa500;" x="196.188081" xlink:href="#m9049142319" y="9.697057"/>
    </g>
   </g>
   <g id="line2d_47">
    <path d="M 128.520707 294.88 
L 128.520707 290.406542 
L 131.115693 290.406542 
L 131.115693 288.728995 
L 135.016789 288.728995 
L 135.016789 286.492266 
L 136.115208 286.492266 
L 136.115208 285.933084 
L 141.781376 285.933084 
L 141.781376 284.81472 
L 144.245007 284.81472 
L 144.245007 284.255537 
L 146.035596 284.255537 
L 146.081494 282.577991 
L 150.502803 282.577991 
L 150.502803 282.018808 
L 150.679098 282.018808 
L 150.679098 281.459626 
L 152.157156 281.459626 
L 152.157156 280.900444 
L 152.381011 280.900444 
L 152.381011 278.104533 
L 152.539141 278.104533 
L 152.539141 276.986168 
L 152.664606 276.986168 
L 152.664606 274.190257 
L 154.074054 274.190257 
L 154.102822 271.394346 
L 155.693974 271.394346 
L 155.693974 270.275981 
L 156.6371 270.275981 
L 156.6371 269.157617 
L 156.932191 269.157617 
L 156.932191 265.243341 
L 157.341751 265.243341 
L 157.341751 264.684159 
L 157.88077 264.684159 
L 157.88077 263.006612 
L 159.424376 263.006612 
L 159.424376 262.44743 
L 159.799871 262.44743 
L 159.820493 260.769883 
L 164.103566 260.769883 
L 164.135664 258.533154 
L 165.491743 258.533154 
L 165.58042 256.296425 
L 165.756415 256.296425 
L 165.756415 255.178061 
L 166.665777 255.178061 
L 166.665777 253.500514 
L 167.224031 253.500514 
L 167.224031 252.38215 
L 168.858629 252.38215 
L 168.870806 251.263785 
L 169.374626 251.263785 
L 169.374626 250.704603 
L 169.760379 250.704603 
L 169.760379 249.586238 
L 170.126351 249.586238 
L 170.126351 249.027056 
L 171.264652 249.027056 
L 171.264652 247.908692 
L 171.516967 247.908692 
L 171.548248 246.231145 
L 172.784071 246.231145 
L 172.784071 245.671963 
L 172.957695 245.671963 
L 172.957695 243.994416 
L 173.346745 243.994416 
L 173.430981 241.198505 
L 173.644391 241.198505 
L 173.644391 238.961776 
L 173.873393 238.961776 
L 173.91883 236.725047 
L 174.081414 236.725047 
L 174.180019 232.810771 
L 174.490052 232.810771 
L 174.490052 231.692407 
L 174.603797 231.692407 
L 174.603797 230.574042 
L 174.820445 230.574042 
L 174.906346 227.218949 
L 174.957681 227.218949 
L 174.957681 225.541402 
L 175.46277 225.541402 
L 175.46277 224.98222 
L 175.660722 224.98222 
L 175.660722 223.863855 
L 176.113932 223.863855 
L 176.137877 222.186309 
L 176.265025 222.186309 
L 176.265025 219.94958 
L 176.58661 219.94958 
L 176.58661 219.390397 
L 176.909917 219.390397 
L 176.955611 218.272033 
L 177.34662 218.272033 
L 177.34662 217.712851 
L 177.743468 217.712851 
L 177.844876 216.035304 
L 178.117149 216.035304 
L 178.117149 209.325117 
L 178.745305 209.325117 
L 178.745305 205.410841 
L 178.88863 205.410841 
L 178.93614 201.496566 
L 179.626967 201.496566 
L 179.724353 195.904743 
L 179.930284 195.904743 
L 179.930284 194.786379 
L 180.378572 194.786379 
L 180.378572 194.227197 
L 180.527499 194.227197 
L 180.601482 189.753739 
L 180.900316 189.753739 
L 180.990767 188.635374 
L 181.277052 188.635374 
L 181.353774 185.839463 
L 181.482836 185.839463 
L 181.482836 185.280281 
L 181.605134 185.280281 
L 181.605134 183.043552 
L 181.84715 183.043552 
L 181.84715 182.48437 
L 182.034944 182.48437 
L 182.119631 177.451729 
L 182.298914 177.451729 
L 182.298914 176.892547 
L 182.503906 176.892547 
L 182.503906 175.215 
L 182.960412 175.215 
L 182.960412 174.655818 
L 183.226496 174.655818 
L 183.300267 172.419089 
L 183.488522 172.419089 
L 183.56118 171.300725 
L 183.648996 171.300725 
L 183.695306 165.708902 
L 183.782441 165.708902 
L 183.818192 164.031356 
L 183.89963 164.031356 
L 184.000889 160.676262 
L 184.046262 160.676262 
L 184.081469 157.880351 
L 184.201635 157.880351 
L 184.211611 156.202804 
L 184.335824 156.202804 
L 184.424706 152.847711 
L 184.586471 152.847711 
L 184.586471 152.288529 
L 184.977193 152.288529 
L 185.048585 149.492617 
L 185.119681 149.492617 
L 185.171631 143.341613 
L 185.251611 143.341613 
L 185.335893 139.986519 
L 185.447628 139.986519 
L 185.535574 135.513061 
L 185.577075 135.513061 
L 185.636846 132.71715 
L 185.937131 132.71715 
L 186.009145 127.68451 
L 186.089801 127.68451 
L 186.121065 124.888599 
L 186.395522 124.888599 
L 186.435001 123.211052 
L 186.57464 123.211052 
L 186.57464 122.65187 
L 186.829163 122.65187 
L 186.86766 115.382501 
L 186.982634 115.382501 
L 186.982634 114.823318 
L 187.247955 114.823318 
L 187.247955 114.264136 
L 187.443259 114.264136 
L 187.443259 113.145772 
L 187.636368 113.145772 
L 187.636368 112.586589 
L 187.944112 112.586589 
L 188.04814 109.231496 
L 188.450278 109.231496 
L 188.450278 107.553949 
L 188.574524 107.553949 
L 188.647873 105.31722 
L 188.732413 105.31722 
L 188.835603 104.198856 
L 188.888866 104.198856 
L 188.972232 100.28458 
L 189.009993 100.28458 
L 189.092775 95.25194 
L 189.257154 95.25194 
L 189.257154 93.574393 
L 189.464115 93.574393 
L 189.515468 90.778482 
L 189.588564 90.778482 
L 189.675872 86.305024 
L 189.834793 86.305024 
L 189.942312 82.390748 
L 189.992258 82.390748 
L 190.088175 79.035655 
L 190.165936 79.035655 
L 190.165936 78.476473 
L 190.37624 78.476473 
L 190.452711 74.562197 
L 190.608078 74.562197 
L 190.669834 72.325468 
L 190.727955 72.325468 
L 190.823259 68.411192 
L 190.924787 68.411192 
L 190.924787 65.615281 
L 191.508633 65.615281 
L 191.596471 61.141823 
L 191.774025 61.141823 
L 191.841337 56.668365 
L 192.136305 56.668365 
L 192.239767 52.194907 
L 192.469531 52.194907 
L 192.518809 50.517361 
L 192.641388 50.517361 
L 192.747933 41.570445 
L 192.859852 41.570445 
L 192.935063 36.537805 
L 193.01891 36.537805 
L 193.075574 33.182711 
L 193.17651 33.182711 
L 193.17651 32.064347 
L 193.318005 32.064347 
L 193.388318 27.590889 
L 193.64946 27.590889 
L 193.658097 26.472524 
L 193.841322 26.472524 
L 193.90102 23.676613 
L 194.070451 23.676613 
L 194.179692 19.203155 
L 194.299338 19.203155 
L 194.365757 16.966426 
L 194.456666 16.966426 
L 194.456666 15.848062 
L 194.829017 15.848062 
L 194.829017 14.729697 
L 195.07196 14.729697 
L 195.07196 14.170515 
L 195.256531 14.170515 
L 195.282737 12.492968 
L 195.405374 12.492968 
L 195.405374 11.374604 
L 195.689021 11.374604 
L 195.689021 10.815422 
L 196.188081 10.815422 
L 196.188081 9.697057 
L 333.168 9.697057 
L 333.168 9.697057 
" style="fill:none;stroke:#ffa500;stroke-linecap:square;stroke-width:1.5;"/>
   </g>
   <g id="line2d_48">
    <defs>
     <path d="M 0 -6 
L -1.347084 -1.854102 
L -5.706339 -1.854102 
L -2.179628 0.708204 
L -3.526712 4.854102 
L -0 2.291796 
L 3.526712 4.854102 
L 2.179628 0.708204 
L 5.706339 -1.854102 
L 1.347084 -1.854102 
z
" id="m7005143ea5" style="stroke:#ffa500;stroke-linejoin:bevel;stroke-width:1.5;"/>
    </defs>
    <g>
     <use style="fill-opacity:0;stroke:#ffa500;stroke-linejoin:bevel;stroke-width:1.5;" x="175.660722" xlink:href="#m7005143ea5" y="224.98222"/>
     <use style="fill-opacity:0;stroke:#ffa500;stroke-linejoin:bevel;stroke-width:1.5;" x="191.596471" xlink:href="#m7005143ea5" y="61.141823"/>
     <use style="fill-opacity:0;stroke:#ffa500;stroke-linejoin:bevel;stroke-width:1.5;" x="196.188081" xlink:href="#m7005143ea5" y="10.815422"/>
     <use style="fill-opacity:0;stroke:#ffa500;stroke-linejoin:bevel;stroke-width:1.5;" x="196.188081" xlink:href="#m7005143ea5" y="9.697057"/>
     <use style="fill-opacity:0;stroke:#ffa500;stroke-linejoin:bevel;stroke-width:1.5;" x="333.168" xlink:href="#m7005143ea5" y="9.697057"/>
    </g>
   </g>
   <g id="line2d_49">
    <path style="fill:none;stroke:#ffa500;stroke-linecap:square;stroke-width:1.5;"/>
    <g/>
   </g>
   <g id="line2d_50">
    <defs>
     <path d="M 0 1.5 
C 0.397805 1.5 0.77937 1.341951 1.06066 1.06066 
C 1.341951 0.77937 1.5 0.397805 1.5 0 
C 1.5 -0.397805 1.341951 -0.77937 1.06066 -1.06066 
C 0.77937 -1.341951 0.397805 -1.5 0 -1.5 
C -0.397805 -1.5 -0.77937 -1.341951 -1.06066 -1.06066 
C -1.341951 -0.77937 -1.5 -0.397805 -1.5 0 
C -1.5 0.397805 -1.341951 0.77937 -1.06066 1.06066 
C -0.77937 1.341951 -0.397805 1.5 0 1.5 
z
" id="m7f08ee9e38" style="stroke:#6495ed;"/>
    </defs>
    <g>
     <use style="fill:#6495ed;stroke:#6495ed;" x="196.752575" xlink:href="#m7f08ee9e38" y="9.697057"/>
     <use style="fill:#6495ed;stroke:#6495ed;" x="196.752575" xlink:href="#m7f08ee9e38" y="9.697057"/>
    </g>
   </g>
   <g id="line2d_51">
    <path d="M 104.819059 294.88 
L 104.819059 292.084089 
L 114.866043 292.084089 
L 114.866043 291.524907 
L 119.310576 291.524907 
L 119.310576 288.169813 
L 131.654565 288.169813 
L 131.654565 287.610631 
L 139.112104 287.610631 
L 139.112104 287.051449 
L 141.603867 287.051449 
L 141.603867 285.373902 
L 143.247524 285.373902 
L 143.247524 284.81472 
L 146.218456 284.81472 
L 146.218456 282.577991 
L 146.354335 282.577991 
L 146.444328 279.782079 
L 149.962801 279.782079 
L 149.962801 277.545351 
L 151.601053 277.545351 
L 151.601053 276.986168 
L 152.97432 276.986168 
L 152.97432 275.867804 
L 155.242663 275.867804 
L 155.242663 274.749439 
L 157.174289 274.749439 
L 157.174289 271.953528 
L 158.109956 271.953528 
L 158.109956 269.716799 
L 158.313642 269.716799 
L 158.313642 268.598435 
L 158.910606 268.598435 
L 158.910606 265.243341 
L 160.487508 265.243341 
L 160.487508 263.565795 
L 161.243814 263.565795 
L 161.243814 260.769883 
L 162.733095 260.769883 
L 162.733095 260.210701 
L 163.581669 260.210701 
L 163.64778 257.973972 
L 165.132385 257.973972 
L 165.132385 257.41479 
L 165.668643 257.41479 
L 165.668643 256.296425 
L 165.930625 256.296425 
L 165.930625 255.737243 
L 166.17444 255.737243 
L 166.17444 255.178061 
L 166.789884 255.178061 
L 166.789884 252.941332 
L 167.116518 252.941332 
L 167.116518 251.263785 
L 167.357484 251.263785 
L 167.397319 248.467874 
L 167.932671 248.467874 
L 167.945522 247.34951 
L 168.086256 247.34951 
L 168.086256 246.790327 
L 168.364314 246.790327 
L 168.364314 245.112781 
L 169.112563 245.112781 
L 169.112563 243.994416 
L 169.679273 243.994416 
L 169.679273 241.198505 
L 169.806554 241.198505 
L 169.806554 240.639323 
L 170.227893 240.639323 
L 170.250376 238.402594 
L 170.94396 238.402594 
L 170.94396 234.488318 
L 171.190358 234.488318 
L 171.190358 232.810771 
L 171.338628 232.810771 
L 171.338628 232.251589 
L 171.724437 232.251589 
L 171.755342 231.133225 
L 172.362063 231.133225 
L 172.362063 228.896496 
L 172.520302 228.896496 
L 172.569455 226.100584 
L 172.813131 226.100584 
L 172.813131 225.541402 
L 173.148576 225.541402 
L 173.148576 222.745491 
L 174.242475 222.745491 
L 174.242475 221.627126 
L 174.568879 221.627126 
L 174.568879 221.067944 
L 174.854857 221.067944 
L 174.949136 218.831215 
L 175.840197 218.831215 
L 175.840197 217.712851 
L 177.137183 217.712851 
L 177.137183 217.153669 
L 177.685251 217.153669 
L 177.728932 216.035304 
L 178.003033 216.035304 
L 178.003033 215.476122 
L 178.216382 215.476122 
L 178.24463 212.680211 
L 178.441074 212.680211 
L 178.441074 210.443482 
L 178.929361 210.443482 
L 178.929361 207.64757 
L 179.165056 207.64757 
L 179.165056 207.088388 
L 179.782521 207.088388 
L 179.782521 206.529206 
L 179.968623 206.529206 
L 180.045046 203.733295 
L 180.303621 203.733295 
L 180.303621 203.174112 
L 180.583016 203.174112 
L 180.613782 198.700655 
L 180.711862 198.700655 
L 180.736295 197.023108 
L 180.912404 197.023108 
L 180.990767 194.786379 
L 181.086726 194.786379 
L 181.086726 191.990468 
L 181.294787 191.990468 
L 181.394944 190.312921 
L 181.576094 190.312921 
L 181.645707 187.51701 
L 181.77835 187.51701 
L 181.875736 183.043552 
L 181.921375 183.043552 
L 181.921375 182.48437 
L 182.040603 182.48437 
L 182.040603 181.366005 
L 182.164627 181.366005 
L 182.164627 176.892547 
L 182.365666 176.892547 
L 182.45979 174.096636 
L 183.024649 174.096636 
L 183.072669 172.419089 
L 183.52489 172.419089 
L 183.597394 166.268085 
L 183.659298 166.268085 
L 183.659298 162.912991 
L 183.807985 162.912991 
L 183.874222 161.794627 
L 183.965516 161.794627 
L 183.965516 161.235444 
L 184.166673 161.235444 
L 184.266375 158.998715 
L 184.296174 158.998715 
L 184.296174 156.202804 
L 184.527823 156.202804 
L 184.527823 155.08444 
L 184.683774 155.08444 
L 184.722542 153.966075 
L 185.005785 153.966075 
L 185.086539 149.492617 
L 185.12441 149.492617 
L 185.176346 140.545702 
L 185.480082 140.545702 
L 185.493971 134.953879 
L 185.914565 134.953879 
L 185.919081 133.276332 
L 186.080857 133.276332 
L 186.080857 132.71715 
L 186.294218 132.71715 
L 186.399913 126.006963 
L 187.016554 126.006963 
L 187.113701 122.65187 
L 187.155768 122.65187 
L 187.256311 116.500865 
L 187.268838 116.500865 
L 187.352116 115.382501 
L 187.58727 115.382501 
L 187.58727 114.264136 
L 187.843487 114.264136 
L 187.843487 112.027407 
L 187.972181 112.027407 
L 188.072057 109.790678 
L 188.123765 109.790678 
L 188.206964 106.435585 
L 188.242498 106.435585 
L 188.242498 105.31722 
L 188.454174 105.31722 
L 188.454174 104.758038 
L 188.597721 104.758038 
L 188.597721 103.639674 
L 188.766879 103.639674 
L 188.85845 96.370304 
L 188.892664 96.370304 
L 188.892664 92.456029 
L 189.047671 92.456029 
L 189.137762 85.745842 
L 189.205022 85.745842 
L 189.312835 80.15402 
L 189.515468 80.15402 
L 189.624996 74.562197 
L 189.751904 74.562197 
L 189.784386 72.88465 
L 189.870707 72.88465 
L 189.870707 71.766286 
L 190.077544 71.766286 
L 190.095259 67.292828 
L 190.239835 67.292828 
L 190.299427 65.615281 
L 190.58056 65.615281 
L 190.597764 63.378552 
L 190.751831 63.378552 
L 190.751831 62.81937 
L 190.921412 62.81937 
L 191.015652 60.023459 
L 191.069272 60.023459 
L 191.162707 58.345912 
L 191.407225 58.345912 
L 191.407225 57.78673 
L 191.534706 57.78673 
L 191.635367 52.75409 
L 191.683863 52.75409 
L 191.706448 48.839814 
L 191.873298 48.839814 
L 191.873298 47.72145 
L 192.035381 47.72145 
L 192.073297 45.484721 
L 192.295939 45.484721 
L 192.295939 44.925538 
L 192.420112 44.925538 
L 192.484946 42.688809 
L 192.674945 42.688809 
L 192.760068 39.892898 
L 192.889976 39.892898 
L 192.908025 37.656169 
L 193.129084 37.656169 
L 193.226756 30.3868 
L 193.247403 30.3868 
L 193.247403 28.709253 
L 193.475807 28.709253 
L 193.475807 28.150071 
L 193.609098 28.150071 
L 193.609098 27.590889 
L 193.832777 27.590889 
L 193.932207 24.235795 
L 194.053583 24.235795 
L 194.160136 21.999066 
L 194.210378 21.999066 
L 194.213165 20.32152 
L 194.329812 20.32152 
L 194.329812 18.643973 
L 194.563487 18.643973 
L 194.563487 17.525609 
L 194.901458 17.525609 
L 194.928211 14.729697 
L 195.978126 14.729697 
L 196.060914 13.611333 
L 196.503161 13.611333 
L 196.503161 12.492968 
L 196.752575 12.492968 
L 196.752575 9.697057 
L 333.168 9.697057 
L 333.168 9.697057 
" style="fill:none;stroke:#6495ed;stroke-linecap:square;stroke-width:1.5;"/>
   </g>
   <g id="line2d_52">
    <defs>
     <path d="M -0 6 
L 6 -6 
L -6 -6 
z
" id="m9ecfc22acc" style="stroke:#6495ed;stroke-linejoin:miter;stroke-width:1.5;"/>
    </defs>
    <g>
     <use style="fill-opacity:0;stroke:#6495ed;stroke-linejoin:miter;stroke-width:1.5;" x="158.109956" xlink:href="#m9ecfc22acc" y="269.716799"/>
     <use style="fill-opacity:0;stroke:#6495ed;stroke-linejoin:miter;stroke-width:1.5;" x="188.597721" xlink:href="#m9ecfc22acc" y="104.758038"/>
     <use style="fill-opacity:0;stroke:#6495ed;stroke-linejoin:miter;stroke-width:1.5;" x="196.752575" xlink:href="#m9ecfc22acc" y="12.492968"/>
     <use style="fill-opacity:0;stroke:#6495ed;stroke-linejoin:miter;stroke-width:1.5;" x="196.752575" xlink:href="#m9ecfc22acc" y="9.697057"/>
     <use style="fill-opacity:0;stroke:#6495ed;stroke-linejoin:miter;stroke-width:1.5;" x="333.168" xlink:href="#m9ecfc22acc" y="9.697057"/>
    </g>
   </g>
   <g id="line2d_53">
    <path style="fill:none;stroke:#6495ed;stroke-linecap:square;stroke-width:1.5;"/>
    <g/>
   </g>
   <g id="line2d_54">
    <defs>
     <path d="M 0 1.5 
C 0.397805 1.5 0.77937 1.341951 1.06066 1.06066 
C 1.341951 0.77937 1.5 0.397805 1.5 0 
C 1.5 -0.397805 1.341951 -0.77937 1.06066 -1.06066 
C 0.77937 -1.341951 0.397805 -1.5 0 -1.5 
C -0.397805 -1.5 -0.77937 -1.341951 -1.06066 -1.06066 
C -1.341951 -0.77937 -1.5 -0.397805 -1.5 0 
C -1.5 0.397805 -1.341951 0.77937 -1.06066 1.06066 
C -0.77937 1.341951 -0.397805 1.5 0 1.5 
z
" id="ma992cc2a71" style="stroke:#ff0000;"/>
    </defs>
    <g>
     <use style="fill:#ff0000;stroke:#ff0000;" x="198.441018" xlink:href="#ma992cc2a71" y="9.697057"/>
     <use style="fill:#ff0000;stroke:#ff0000;" x="198.441018" xlink:href="#ma992cc2a71" y="9.697057"/>
    </g>
   </g>
   <g id="line2d_55">
    <path d="M 44.205749 294.88 
L 44.205749 260.210701 
L 56.12 260.210701 
L 56.12 250.145421 
L 68.034251 250.145421 
L 68.034251 248.467874 
L 71.869783 248.467874 
L 71.869783 245.671963 
L 75.003641 245.671963 
L 75.003641 245.112781 
L 77.653281 245.112781 
L 77.653281 242.876052 
L 79.948502 242.876052 
L 79.948502 241.757687 
L 81.973032 241.757687 
L 81.973032 240.639323 
L 85.422286 240.639323 
L 85.422286 240.08014 
L 89.567532 240.08014 
L 89.567532 239.520958 
L 94.816624 239.520958 
L 94.816624 237.843411 
L 103.231288 237.843411 
L 103.231288 237.284229 
L 103.777005 237.284229 
L 103.777005 236.725047 
L 106.730875 236.725047 
L 106.730875 232.810771 
L 108.036969 232.810771 
L 108.036969 230.574042 
L 108.451173 230.574042 
L 108.451173 229.455678 
L 111.448069 229.455678 
L 111.448069 227.778131 
L 113.396034 227.778131 
L 113.396034 226.100584 
L 115.420563 226.100584 
L 115.420563 222.186309 
L 117.715785 222.186309 
L 117.715785 221.627126 
L 121.16504 221.627126 
L 121.16504 219.94958 
L 122.114929 219.94958 
L 122.114929 217.712851 
L 129.748989 217.712851 
L 129.748989 216.594486 
L 132.073821 216.594486 
L 132.073821 214.357757 
L 134.39491 214.357757 
L 134.39491 213.798575 
L 137.301101 213.798575 
L 137.301101 212.680211 
L 137.528768 212.680211 
L 137.528768 211.561846 
L 137.975251 211.561846 
L 137.975251 208.765935 
L 138.266591 208.765935 
L 138.266591 208.206753 
L 138.834862 208.206753 
L 138.834862 207.64757 
L 139.112104 207.64757 
L 139.112104 206.529206 
L 140.307161 206.529206 
L 140.307161 202.61493 
L 141.424506 202.61493 
L 141.424506 200.937384 
L 142.473629 200.937384 
L 142.473629 200.378201 
L 145.569751 200.378201 
L 145.569751 199.819019 
L 146.218456 199.819019 
L 146.218456 198.700655 
L 149.555732 198.700655 
L 149.555732 197.58229 
L 150.573538 197.58229 
L 150.573538 195.904743 
L 150.991943 195.904743 
L 150.991943 195.345561 
L 152.221413 195.345561 
L 152.221413 194.786379 
L 152.476064 194.786379 
L 152.476064 194.227197 
L 153.035598 194.227197 
L 153.035598 193.668014 
L 154.751526 193.668014 
L 154.751526 193.108832 
L 154.889367 193.108832 
L 154.889367 192.54965 
L 155.720156 192.54965 
L 155.720156 189.194556 
L 155.954019 189.194556 
L 156.056945 186.957828 
L 156.311596 186.957828 
L 156.311596 183.602734 
L 156.932191 183.602734 
L 156.932191 181.925187 
L 157.765022 181.925187 
L 157.765022 180.806823 
L 157.903827 180.806823 
L 157.903827 179.688458 
L 159.190803 179.688458 
L 159.190803 178.570094 
L 159.445454 178.570094 
L 159.445454 177.451729 
L 159.592276 177.451729 
L 159.592276 172.978271 
L 160.467671 172.978271 
L 160.546882 169.623178 
L 160.801823 169.623178 
L 160.801823 169.063996 
L 161.053039 169.063996 
L 161.053039 168.504814 
L 161.35727 168.504814 
L 161.35727 167.945631 
L 162.61088 167.945631 
L 162.61088 165.14972 
L 163.381799 165.14972 
L 163.381799 163.472173 
L 163.762864 163.472173 
L 163.762864 161.794627 
L 163.990747 161.794627 
L 163.990747 160.676262 
L 164.827073 160.676262 
L 164.827073 158.439533 
L 165.58042 158.439533 
L 165.58042 157.321169 
L 165.887238 157.321169 
L 165.887238 156.202804 
L 166.540769 156.202804 
L 166.540769 155.643622 
L 166.817341 155.643622 
L 166.817341 153.966075 
L 166.994756 153.966075 
L 166.994756 153.406893 
L 167.224031 153.406893 
L 167.250805 150.610982 
L 167.686652 150.610982 
L 167.686652 150.0518 
L 168.711821 150.0518 
L 168.711821 147.815071 
L 170.081029 147.815071 
L 170.081029 147.255888 
L 170.562096 147.255888 
L 170.661102 145.578342 
L 170.683027 145.578342 
L 170.683027 145.019159 
L 171.179718 145.019159 
L 171.179718 144.459977 
L 171.359705 144.459977 
L 171.401782 141.104884 
L 173.836957 141.104884 
L 173.836957 140.545702 
L 174.206814 140.545702 
L 174.269172 134.953879 
L 175.220496 134.953879 
L 175.220496 133.835515 
L 175.446171 133.835515 
L 175.520742 132.71715 
L 175.677115 132.71715 
L 175.677115 131.598786 
L 175.9615 131.598786 
L 176.05793 129.362057 
L 176.169753 129.362057 
L 176.27294 126.566145 
L 176.493109 126.566145 
L 176.493109 126.006963 
L 177.472545 126.006963 
L 177.472545 124.329417 
L 177.707106 124.329417 
L 177.772503 119.855959 
L 178.223449 119.855959 
L 178.272831 118.178412 
L 179.285024 118.178412 
L 179.285024 115.382501 
L 179.456846 115.382501 
L 179.561735 113.145772 
L 179.620455 113.145772 
L 179.620455 111.468225 
L 180.051399 111.468225 
L 180.127455 109.231496 
L 180.309879 109.231496 
L 180.309879 108.672314 
L 180.900316 108.672314 
L 180.900316 108.113132 
L 181.086726 108.113132 
L 181.086726 106.994767 
L 181.205927 106.994767 
L 181.205927 106.435585 
L 181.377312 106.435585 
L 181.436016 103.080491 
L 181.955524 103.080491 
L 181.955524 102.521309 
L 182.19269 102.521309 
L 182.19269 100.28458 
L 182.354559 100.28458 
L 182.354559 99.725398 
L 182.766249 99.725398 
L 182.842018 98.047851 
L 182.912077 98.047851 
L 182.912077 96.370304 
L 183.384191 96.370304 
L 183.384191 94.692758 
L 183.848776 94.692758 
L 183.848776 94.133576 
L 184.345723 94.133576 
L 184.444395 91.896847 
L 184.981962 91.896847 
L 184.981962 90.778482 
L 185.10075 90.778482 
L 185.110218 89.100935 
L 185.265687 89.100935 
L 185.265687 87.423389 
L 185.387195 87.423389 
L 185.493971 86.305024 
L 186.022614 86.305024 
L 186.121065 85.18666 
L 186.408692 85.18666 
L 186.408692 84.068295 
L 186.743306 84.068295 
L 186.743306 83.509113 
L 187.063084 83.509113 
L 187.134747 81.831566 
L 187.364573 81.831566 
L 187.364573 80.713202 
L 187.501008 80.713202 
L 187.501008 79.594837 
L 187.701616 79.594837 
L 187.701616 79.035655 
L 187.87978 79.035655 
L 187.976188 76.798926 
L 188.036169 76.798926 
L 188.131706 72.88465 
L 188.151543 72.88465 
L 188.151543 72.325468 
L 188.325127 72.325468 
L 188.419075 71.207104 
L 188.461964 71.207104 
L 188.485313 68.970375 
L 188.578392 68.970375 
L 188.578392 68.411192 
L 188.831792 68.411192 
L 188.831792 67.85201 
L 189.115283 67.85201 
L 189.115283 66.174463 
L 189.294294 66.174463 
L 189.294294 65.056099 
L 189.493478 65.056099 
L 189.493478 62.81937 
L 189.895803 62.81937 
L 189.902966 61.141823 
L 190.056262 61.141823 
L 190.141232 56.668365 
L 190.225784 56.668365 
L 190.295927 53.872454 
L 190.337876 53.872454 
L 190.37624 51.635725 
L 190.452711 51.635725 
L 190.452711 51.076543 
L 190.604641 51.076543 
L 190.652701 49.398996 
L 190.721128 49.398996 
L 190.809676 47.72145 
L 191.008938 47.72145 
L 191.008938 47.162267 
L 191.162707 47.162267 
L 191.235765 43.807174 
L 191.278791 43.807174 
L 191.278791 42.688809 
L 191.557487 42.688809 
L 191.654782 39.892898 
L 191.876491 39.892898 
L 191.889256 38.215351 
L 192.048029 38.215351 
L 192.148879 33.741894 
L 192.189681 33.741894 
L 192.189681 32.623529 
L 192.454103 32.623529 
L 192.454103 31.505165 
L 192.729715 31.505165 
L 192.766132 29.827618 
L 192.856837 29.827618 
L 192.862867 25.913342 
L 193.012935 25.913342 
L 193.024884 23.117431 
L 193.347337 23.117431 
L 193.347337 22.558249 
L 193.732768 22.558249 
L 193.732768 21.439884 
L 194.291018 21.439884 
L 194.338114 20.32152 
L 194.50879 20.32152 
L 194.50879 19.762337 
L 195.175037 19.762337 
L 195.175037 19.203155 
L 195.389767 19.203155 
L 195.467661 16.966426 
L 195.594134 16.966426 
L 195.594134 15.848062 
L 195.818959 15.848062 
L 195.818959 14.170515 
L 195.957995 14.170515 
L 195.957995 13.052151 
L 196.920036 13.052151 
L 196.920036 11.374604 
L 197.440589 11.374604 
L 197.440589 10.815422 
L 197.670018 10.815422 
L 197.670018 10.256239 
L 198.441018 10.256239 
L 198.441018 9.697057 
L 333.168 9.697057 
L 333.168 9.697057 
" style="fill:none;stroke:#ff0000;stroke-linecap:square;stroke-width:1.5;"/>
   </g>
   <g id="line2d_56">
    <defs>
     <path d="M 0 -6 
L -5.196152 -3 
L -5.196152 3 
L -0 6 
L 5.196152 3 
L 5.196152 -3 
z
" id="mc57f46d058" style="stroke:#ff0000;stroke-linejoin:miter;stroke-width:1.5;"/>
    </defs>
    <g>
     <use style="fill-opacity:0;stroke:#ff0000;stroke-linejoin:miter;stroke-width:1.5;" x="75.003641" xlink:href="#mc57f46d058" y="245.112781"/>
     <use style="fill-opacity:0;stroke:#ff0000;stroke-linejoin:miter;stroke-width:1.5;" x="159.190803" xlink:href="#mc57f46d058" y="179.688458"/>
     <use style="fill-opacity:0;stroke:#ff0000;stroke-linejoin:miter;stroke-width:1.5;" x="185.110218" xlink:href="#mc57f46d058" y="89.100935"/>
     <use style="fill-opacity:0;stroke:#ff0000;stroke-linejoin:miter;stroke-width:1.5;" x="198.441018" xlink:href="#mc57f46d058" y="10.256239"/>
     <use style="fill-opacity:0;stroke:#ff0000;stroke-linejoin:miter;stroke-width:1.5;" x="198.441018" xlink:href="#mc57f46d058" y="9.697057"/>
     <use style="fill-opacity:0;stroke:#ff0000;stroke-linejoin:miter;stroke-width:1.5;" x="333.168" xlink:href="#mc57f46d058" y="9.697057"/>
    </g>
   </g>
   <g id="line2d_57">
    <path style="fill:none;stroke:#ff0000;stroke-linecap:square;stroke-width:1.5;"/>
    <g/>
   </g>
   <g id="line2d_58">
    <path d="M 333.168 9.697057 
L 363.64328 289.176341 
" style="fill:none;stroke:#000080;stroke-linecap:square;stroke-width:1.5;"/>
    <g>
     <use style="fill-opacity:0;stroke:#000080;stroke-width:1.5;" x="333.168" xlink:href="#m53e1c6dbf3" y="9.697057"/>
     <use style="fill-opacity:0;stroke:#000080;stroke-width:1.5;" x="363.64328" xlink:href="#m53e1c6dbf3" y="289.176341"/>
    </g>
   </g>
   <g id="line2d_59">
    <path d="M 333.168 9.697057 
L 363.64328 220.732435 
" style="fill:none;stroke:#ff00ff;stroke-linecap:square;stroke-width:1.5;"/>
    <g>
     <use style="fill-opacity:0;stroke:#ff00ff;stroke-linejoin:miter;stroke-width:1.5;" x="333.168" xlink:href="#m714c726a13" y="9.697057"/>
     <use style="fill-opacity:0;stroke:#ff00ff;stroke-linejoin:miter;stroke-width:1.5;" x="363.64328" xlink:href="#m714c726a13" y="220.732435"/>
    </g>
   </g>
   <g id="line2d_60">
    <path d="M 333.168 9.697057 
L 363.64328 152.288529 
" style="fill:none;stroke:#ff0000;stroke-linecap:square;stroke-width:1.5;"/>
    <g>
     <use style="fill-opacity:0;stroke:#ff0000;stroke-linejoin:miter;stroke-width:1.5;" x="333.168" xlink:href="#mc57f46d058" y="9.697057"/>
     <use style="fill-opacity:0;stroke:#ff0000;stroke-linejoin:miter;stroke-width:1.5;" x="363.64328" xlink:href="#mc57f46d058" y="152.288529"/>
    </g>
   </g>
   <g id="line2d_61">
    <path d="M 333.168 9.697057 
L 363.64328 83.844622 
" style="fill:none;stroke:#6495ed;stroke-linecap:square;stroke-width:1.5;"/>
    <g>
     <use style="fill-opacity:0;stroke:#6495ed;stroke-linejoin:miter;stroke-width:1.5;" x="333.168" xlink:href="#m9ecfc22acc" y="9.697057"/>
     <use style="fill-opacity:0;stroke:#6495ed;stroke-linejoin:miter;stroke-width:1.5;" x="363.64328" xlink:href="#m9ecfc22acc" y="83.844622"/>
    </g>
   </g>
   <g id="line2d_62">
    <path d="M 333.168 9.697057 
L 363.64328 15.400716 
" style="fill:none;stroke:#ffa500;stroke-linecap:square;stroke-width:1.5;"/>
    <g>
     <use style="fill-opacity:0;stroke:#ffa500;stroke-linejoin:bevel;stroke-width:1.5;" x="333.168" xlink:href="#m7005143ea5" y="9.697057"/>
     <use style="fill-opacity:0;stroke:#ffa500;stroke-linejoin:bevel;stroke-width:1.5;" x="363.64328" xlink:href="#m7005143ea5" y="15.400716"/>
    </g>
   </g>
   <g id="line2d_63">
    <path d="M 333.168 294.88 
L 333.168 9.697057 
" style="fill:none;stroke:#000000;stroke-linecap:square;stroke-width:1.5;"/>
   </g>
   <g id="patch_3">
    <path d="M 56.12 294.88 
L 56.12 6.845228 
" style="fill:none;stroke:#000000;stroke-linecap:square;stroke-linejoin:miter;stroke-width:0.8;"/>
   </g>
   <g id="patch_4">
    <path d="M 333.168 294.88 
L 333.168 6.845228 
" style="fill:none;stroke:#000000;stroke-linecap:square;stroke-linejoin:miter;stroke-width:0.8;"/>
   </g>
   <g id="patch_5">
    <path d="M 56.12 294.88 
L 333.168 294.88 
" style="fill:none;stroke:#000000;stroke-linecap:square;stroke-linejoin:miter;stroke-width:0.8;"/>
   </g>
   <g id="patch_6">
    <path d="M 56.12 6.845228 
L 333.168 6.845228 
" style="fill:none;stroke:#000000;stroke-linecap:square;stroke-linejoin:miter;stroke-width:0.8;"/>
   </g>
   <g id="text_13">
    <!-- f12 -->
    <g transform="translate(369.18424 293.867279)scale(0.17 -0.17)">
     <use xlink:href="#DejaVuSans-66"/>
     <use x="35.205078" xlink:href="#DejaVuSans-31"/>
     <use x="98.828125" xlink:href="#DejaVuSans-32"/>
    </g>
   </g>
   <g id="text_14">
    <!-- f13 -->
    <defs>
     <path d="M 40.578125 39.3125 
Q 47.65625 37.796875 51.625 33 
Q 55.609375 28.21875 55.609375 21.1875 
Q 55.609375 10.40625 48.1875 4.484375 
Q 40.765625 -1.421875 27.09375 -1.421875 
Q 22.515625 -1.421875 17.65625 -0.515625 
Q 12.796875 0.390625 7.625 2.203125 
L 7.625 11.71875 
Q 11.71875 9.328125 16.59375 8.109375 
Q 21.484375 6.890625 26.8125 6.890625 
Q 36.078125 6.890625 40.9375 10.546875 
Q 45.796875 14.203125 45.796875 21.1875 
Q 45.796875 27.640625 41.28125 31.265625 
Q 36.765625 34.90625 28.71875 34.90625 
L 20.21875 34.90625 
L 20.21875 43.015625 
L 29.109375 43.015625 
Q 36.375 43.015625 40.234375 45.921875 
Q 44.09375 48.828125 44.09375 54.296875 
Q 44.09375 59.90625 40.109375 62.90625 
Q 36.140625 65.921875 28.71875 65.921875 
Q 24.65625 65.921875 20.015625 65.03125 
Q 15.375 64.15625 9.8125 62.3125 
L 9.8125 71.09375 
Q 15.4375 72.65625 20.34375 73.4375 
Q 25.25 74.21875 29.59375 74.21875 
Q 40.828125 74.21875 47.359375 69.109375 
Q 53.90625 64.015625 53.90625 55.328125 
Q 53.90625 49.265625 50.4375 45.09375 
Q 46.96875 40.921875 40.578125 39.3125 
z
" id="DejaVuSans-33"/>
    </defs>
    <g transform="translate(369.18424 225.423372)scale(0.17 -0.17)">
     <use xlink:href="#DejaVuSans-66"/>
     <use x="35.205078" xlink:href="#DejaVuSans-31"/>
     <use x="98.828125" xlink:href="#DejaVuSans-33"/>
    </g>
   </g>
   <g id="text_15">
    <!-- f14 -->
    <g transform="translate(369.18424 156.979466)scale(0.17 -0.17)">
     <use xlink:href="#DejaVuSans-66"/>
     <use x="35.205078" xlink:href="#DejaVuSans-31"/>
     <use x="98.828125" xlink:href="#DejaVuSans-34"/>
    </g>
   </g>
   <g id="text_16">
    <!-- f11 -->
    <g transform="translate(369.18424 88.53556)scale(0.17 -0.17)">
     <use xlink:href="#DejaVuSans-66"/>
     <use x="35.205078" xlink:href="#DejaVuSans-31"/>
     <use x="98.828125" xlink:href="#DejaVuSans-31"/>
    </g>
   </g>
   <g id="text_17">
    <!-- f10 -->
    <g transform="translate(369.18424 20.091654)scale(0.17 -0.17)">
     <use xlink:href="#DejaVuSans-66"/>
     <use x="35.205078" xlink:href="#DejaVuSans-31"/>
     <use x="98.828125" xlink:href="#DejaVuSans-30"/>
    </g>
   </g>
   <g id="text_18">
    <!-- bbob -->
    <defs>
     <path d="M 48.6875 27.296875 
Q 48.6875 37.203125 44.609375 42.84375 
Q 40.53125 48.484375 33.40625 48.484375 
Q 26.265625 48.484375 22.1875 42.84375 
Q 18.109375 37.203125 18.109375 27.296875 
Q 18.109375 17.390625 22.1875 11.75 
Q 26.265625 6.109375 33.40625 6.109375 
Q 40.53125 6.109375 44.609375 11.75 
Q 48.6875 17.390625 48.6875 27.296875 
z
M 18.109375 46.390625 
Q 20.953125 51.265625 25.265625 53.625 
Q 29.59375 56 35.59375 56 
Q 45.5625 56 51.78125 48.09375 
Q 58.015625 40.1875 58.015625 27.296875 
Q 58.015625 14.40625 51.78125 6.484375 
Q 45.5625 -1.421875 35.59375 -1.421875 
Q 29.59375 -1.421875 25.265625 0.953125 
Q 20.953125 3.328125 18.109375 8.203125 
L 18.109375 0 
L 9.078125 0 
L 9.078125 75.984375 
L 18.109375 75.984375 
z
" id="DejaVuSans-62"/>
    </defs>
    <g transform="translate(58.89048 17.475982)scale(0.102 -0.102)">
     <use xlink:href="#DejaVuSans-62"/>
     <use x="63.476562" xlink:href="#DejaVuSans-62"/>
     <use x="126.953125" xlink:href="#DejaVuSans-6f"/>
     <use x="188.134766" xlink:href="#DejaVuSans-62"/>
    </g>
    <!-- Ill-conditioned functions, 2-D -->
    <defs>
     <path d="M 9.8125 72.90625 
L 19.671875 72.90625 
L 19.671875 0 
L 9.8125 0 
z
" id="DejaVuSans-49"/>
     <path d="M 19.671875 64.796875 
L 19.671875 8.109375 
L 31.59375 8.109375 
Q 46.6875 8.109375 53.6875 14.9375 
Q 60.6875 21.78125 60.6875 36.53125 
Q 60.6875 51.171875 53.6875 57.984375 
Q 46.6875 64.796875 31.59375 64.796875 
z
M 9.8125 72.90625 
L 30.078125 72.90625 
Q 51.265625 72.90625 61.171875 64.09375 
Q 71.09375 55.28125 71.09375 36.53125 
Q 71.09375 17.671875 61.125 8.828125 
Q 51.171875 0 30.078125 0 
L 9.8125 0 
z
" id="DejaVuSans-44"/>
    </defs>
    <g transform="translate(58.89048 28.89775)scale(0.102 -0.102)">
     <use xlink:href="#DejaVuSans-49"/>
     <use x="29.492188" xlink:href="#DejaVuSans-6c"/>
     <use x="57.275391" xlink:href="#DejaVuSans-6c"/>
     <use x="85.058594" xlink:href="#DejaVuSans-2d"/>
     <use x="121.142578" xlink:href="#DejaVuSans-63"/>
     <use x="176.123047" xlink:href="#DejaVuSans-6f"/>
     <use x="237.304688" xlink:href="#DejaVuSans-6e"/>
     <use x="300.683594" xlink:href="#DejaVuSans-64"/>
     <use x="364.160156" xlink:href="#DejaVuSans-69"/>
     <use x="391.943359" xlink:href="#DejaVuSans-74"/>
     <use x="431.152344" xlink:href="#DejaVuSans-69"/>
     <use x="458.935547" xlink:href="#DejaVuSans-6f"/>
     <use x="520.117188" xlink:href="#DejaVuSans-6e"/>
     <use x="583.496094" xlink:href="#DejaVuSans-65"/>
     <use x="645.019531" xlink:href="#DejaVuSans-64"/>
     <use x="708.496094" xlink:href="#DejaVuSans-20"/>
     <use x="740.283203" xlink:href="#DejaVuSans-66"/>
     <use x="775.488281" xlink:href="#DejaVuSans-75"/>
     <use x="838.867188" xlink:href="#DejaVuSans-6e"/>
     <use x="902.246094" xlink:href="#DejaVuSans-63"/>
     <use x="957.226562" xlink:href="#DejaVuSans-74"/>
     <use x="996.435547" xlink:href="#DejaVuSans-69"/>
     <use x="1024.21875" xlink:href="#DejaVuSans-6f"/>
     <use x="1085.400391" xlink:href="#DejaVuSans-6e"/>
     <use x="1148.779297" xlink:href="#DejaVuSans-73"/>
     <use x="1200.878906" xlink:href="#DejaVuSans-2c"/>
     <use x="1232.666016" xlink:href="#DejaVuSans-20"/>
     <use x="1264.453125" xlink:href="#DejaVuSans-32"/>
     <use x="1328.076172" xlink:href="#DejaVuSans-2d"/>
     <use x="1364.160156" xlink:href="#DejaVuSans-44"/>
    </g>
    <!-- 51 targets: 100..1e-08 -->
    <defs>
     <path d="M 10.796875 72.90625 
L 49.515625 72.90625 
L 49.515625 64.59375 
L 19.828125 64.59375 
L 19.828125 46.734375 
Q 21.96875 47.46875 24.109375 47.828125 
Q 26.265625 48.1875 28.421875 48.1875 
Q 40.625 48.1875 47.75 41.5 
Q 54.890625 34.8125 54.890625 23.390625 
Q 54.890625 11.625 47.5625 5.09375 
Q 40.234375 -1.421875 26.90625 -1.421875 
Q 22.3125 -1.421875 17.546875 -0.640625 
Q 12.796875 0.140625 7.71875 1.703125 
L 7.71875 11.625 
Q 12.109375 9.234375 16.796875 8.0625 
Q 21.484375 6.890625 26.703125 6.890625 
Q 35.15625 6.890625 40.078125 11.328125 
Q 45.015625 15.765625 45.015625 23.390625 
Q 45.015625 31 40.078125 35.4375 
Q 35.15625 39.890625 26.703125 39.890625 
Q 22.75 39.890625 18.8125 39.015625 
Q 14.890625 38.140625 10.796875 36.28125 
z
" id="DejaVuSans-35"/>
     <path d="M 11.71875 12.40625 
L 22.015625 12.40625 
L 22.015625 0 
L 11.71875 0 
z
M 11.71875 51.703125 
L 22.015625 51.703125 
L 22.015625 39.3125 
L 11.71875 39.3125 
z
" id="DejaVuSans-3a"/>
    </defs>
    <g transform="translate(58.89048 40.319519)scale(0.102 -0.102)">
     <use xlink:href="#DejaVuSans-35"/>
     <use x="63.623047" xlink:href="#DejaVuSans-31"/>
     <use x="127.246094" xlink:href="#DejaVuSans-20"/>
     <use x="159.033203" xlink:href="#DejaVuSans-74"/>
     <use x="198.242188" xlink:href="#DejaVuSans-61"/>
     <use x="259.521484" xlink:href="#DejaVuSans-72"/>
     <use x="300.619141" xlink:href="#DejaVuSans-67"/>
     <use x="364.095703" xlink:href="#DejaVuSans-65"/>
     <use x="425.619141" xlink:href="#DejaVuSans-74"/>
     <use x="464.828125" xlink:href="#DejaVuSans-73"/>
     <use x="516.927734" xlink:href="#DejaVuSans-3a"/>
     <use x="550.619141" xlink:href="#DejaVuSans-20"/>
     <use x="582.40625" xlink:href="#DejaVuSans-31"/>
     <use x="646.029297" xlink:href="#DejaVuSans-30"/>
     <use x="709.652344" xlink:href="#DejaVuSans-30"/>
     <use x="773.275391" xlink:href="#DejaVuSans-2e"/>
     <use x="805.0625" xlink:href="#DejaVuSans-2e"/>
     <use x="836.849609" xlink:href="#DejaVuSans-31"/>
     <use x="900.472656" xlink:href="#DejaVuSans-65"/>
     <use x="961.996094" xlink:href="#DejaVuSans-2d"/>
     <use x="998.080078" xlink:href="#DejaVuSans-30"/>
     <use x="1061.703125" xlink:href="#DejaVuSans-38"/>
    </g>
    <!-- 15 instances -->
    <g transform="translate(58.89048 51.741288)scale(0.102 -0.102)">
     <use xlink:href="#DejaVuSans-31"/>
     <use x="63.623047" xlink:href="#DejaVuSans-35"/>
     <use x="127.246094" xlink:href="#DejaVuSans-20"/>
     <use x="159.033203" xlink:href="#DejaVuSans-69"/>
     <use x="186.816406" xlink:href="#DejaVuSans-6e"/>
     <use x="250.195312" xlink:href="#DejaVuSans-73"/>
     <use x="302.294922" xlink:href="#DejaVuSans-74"/>
     <use x="341.503906" xlink:href="#DejaVuSans-61"/>
     <use x="402.783203" xlink:href="#DejaVuSans-6e"/>
     <use x="466.162109" xlink:href="#DejaVuSans-63"/>
     <use x="521.142578" xlink:href="#DejaVuSans-65"/>
     <use x="582.666016" xlink:href="#DejaVuSans-73"/>
    </g>
   </g>
   <g id="text_19">
    <!-- v0.0.0 -->
    <g style="fill:#808080;" transform="translate(178.96275 289.919965)scale(0.1 -0.1)">
     <use xlink:href="#DejaVuSans-76"/>
     <use x="59.179688" xlink:href="#DejaVuSans-30"/>
     <use x="122.802734" xlink:href="#DejaVuSans-2e"/>
     <use x="154.589844" xlink:href="#DejaVuSans-30"/>
     <use x="218.212891" xlink:href="#DejaVuSans-2e"/>
     <use x="250" xlink:href="#DejaVuSans-30"/>
    </g>
   </g>
  </g>
 </g>
 <defs>
  <clipPath id="pb26b6b7017">
   <rect height="288.034772" width="277.048" x="56.12" y="6.845228"/>
  </clipPath>
 </defs>
</svg>
