<?xml version="1.0" encoding="utf-8" standalone="no"?>
<!DOCTYPE svg PUBLIC "-//W3C//DTD SVG 1.1//EN"
  "http://www.w3.org/Graphics/SVG/1.1/DTD/svg11.dtd">
<!-- Created with matplotlib (http://matplotlib.org/) -->
<svg height="345.6pt" version="1.1" viewBox="0 0 460.8 345.6" width="460.8pt" xmlns="http://www.w3.org/2000/svg" xmlns:xlink="http://www.w3.org/1999/xlink">
 <defs>
  <style type="text/css">
*{stroke-linecap:butt;stroke-linejoin:round;}
  </style>
 </defs>
 <g id="figure_1">
  <g id="patch_1">
   <path d="M 0 345.6 
L 460.8 345.6 
L 460.8 0 
L 0 0 
z
" style="fill:#ffffff;"/>
  </g>
  <g id="axes_1">
   <g id="patch_2">
    <path d="M 56.12 294.88 
L 333.168 294.88 
L 333.168 6.845228 
L 56.12 6.845228 
z
" style="fill:#ffffff;"/>
   </g>
   <g id="matplotlib.axis_1">
    <g id="xtick_1">
     <g id="line2d_1">
      <path clip-path="url(#p4b2413bf48)" d="M 56.12 294.88 
L 56.12 6.845228 
" style="fill:none;stroke:#b0b0b0;stroke-linecap:square;stroke-width:0.8;"/>
     </g>
     <g id="line2d_2">
      <defs>
       <path d="M 0 0 
L 0 3.5 
" id="md4b447b091" style="stroke:#000000;stroke-width:0.8;"/>
      </defs>
      <g>
       <use style="stroke:#000000;stroke-width:0.8;" x="56.12" xlink:href="#md4b447b091" y="294.88"/>
      </g>
     </g>
     <g id="text_1">
      <!-- 0 -->
      <defs>
       <path d="M 31.78125 66.40625 
Q 24.171875 66.40625 20.328125 58.90625 
Q 16.5 51.421875 16.5 36.375 
Q 16.5 21.390625 20.328125 13.890625 
Q 24.171875 6.390625 31.78125 6.390625 
Q 39.453125 6.390625 43.28125 13.890625 
Q 47.125 21.390625 47.125 36.375 
Q 47.125 51.421875 43.28125 58.90625 
Q 39.453125 66.40625 31.78125 66.40625 
z
M 31.78125 74.21875 
Q 44.046875 74.21875 50.515625 64.515625 
Q 56.984375 54.828125 56.984375 36.375 
Q 56.984375 17.96875 50.515625 8.265625 
Q 44.046875 -1.421875 31.78125 -1.421875 
Q 19.53125 -1.421875 13.0625 8.265625 
Q 6.59375 17.96875 6.59375 36.375 
Q 6.59375 54.828125 13.0625 64.515625 
Q 19.53125 74.21875 31.78125 74.21875 
z
" id="DejaVuSans-30"/>
      </defs>
      <g transform="translate(49.7575 317.076875)scale(0.2 -0.2)">
       <use xlink:href="#DejaVuSans-30"/>
      </g>
     </g>
    </g>
    <g id="xtick_2">
     <g id="line2d_3">
      <path clip-path="url(#p4b2413bf48)" d="M 135.276571 294.88 
L 135.276571 6.845228 
" style="fill:none;stroke:#b0b0b0;stroke-linecap:square;stroke-width:0.8;"/>
     </g>
     <g id="line2d_4">
      <g>
       <use style="stroke:#000000;stroke-width:0.8;" x="135.276571" xlink:href="#md4b447b091" y="294.88"/>
      </g>
     </g>
     <g id="text_2">
      <!-- 2 -->
      <defs>
       <path d="M 19.1875 8.296875 
L 53.609375 8.296875 
L 53.609375 0 
L 7.328125 0 
L 7.328125 8.296875 
Q 12.9375 14.109375 22.625 23.890625 
Q 32.328125 33.6875 34.8125 36.53125 
Q 39.546875 41.84375 41.421875 45.53125 
Q 43.3125 49.21875 43.3125 52.78125 
Q 43.3125 58.59375 39.234375 62.25 
Q 35.15625 65.921875 28.609375 65.921875 
Q 23.96875 65.921875 18.8125 64.3125 
Q 13.671875 62.703125 7.8125 59.421875 
L 7.8125 69.390625 
Q 13.765625 71.78125 18.9375 73 
Q 24.125 74.21875 28.421875 74.21875 
Q 39.75 74.21875 46.484375 68.546875 
Q 53.21875 62.890625 53.21875 53.421875 
Q 53.21875 48.921875 51.53125 44.890625 
Q 49.859375 40.875 45.40625 35.40625 
Q 44.1875 33.984375 37.640625 27.21875 
Q 31.109375 20.453125 19.1875 8.296875 
z
" id="DejaVuSans-32"/>
      </defs>
      <g transform="translate(128.914071 317.076875)scale(0.2 -0.2)">
       <use xlink:href="#DejaVuSans-32"/>
      </g>
     </g>
    </g>
    <g id="xtick_3">
     <g id="line2d_5">
      <path clip-path="url(#p4b2413bf48)" d="M 214.433143 294.88 
L 214.433143 6.845228 
" style="fill:none;stroke:#b0b0b0;stroke-linecap:square;stroke-width:0.8;"/>
     </g>
     <g id="line2d_6">
      <g>
       <use style="stroke:#000000;stroke-width:0.8;" x="214.433143" xlink:href="#md4b447b091" y="294.88"/>
      </g>
     </g>
     <g id="text_3">
      <!-- 4 -->
      <defs>
       <path d="M 37.796875 64.3125 
L 12.890625 25.390625 
L 37.796875 25.390625 
z
M 35.203125 72.90625 
L 47.609375 72.90625 
L 47.609375 25.390625 
L 58.015625 25.390625 
L 58.015625 17.1875 
L 47.609375 17.1875 
L 47.609375 0 
L 37.796875 0 
L 37.796875 17.1875 
L 4.890625 17.1875 
L 4.890625 26.703125 
z
" id="DejaVuSans-34"/>
      </defs>
      <g transform="translate(208.070643 317.076875)scale(0.2 -0.2)">
       <use xlink:href="#DejaVuSans-34"/>
      </g>
     </g>
    </g>
    <g id="xtick_4">
     <g id="line2d_7">
      <path clip-path="url(#p4b2413bf48)" d="M 293.589714 294.88 
L 293.589714 6.845228 
" style="fill:none;stroke:#b0b0b0;stroke-linecap:square;stroke-width:0.8;"/>
     </g>
     <g id="line2d_8">
      <g>
       <use style="stroke:#000000;stroke-width:0.8;" x="293.589714" xlink:href="#md4b447b091" y="294.88"/>
      </g>
     </g>
     <g id="text_4">
      <!-- 6 -->
      <defs>
       <path d="M 33.015625 40.375 
Q 26.375 40.375 22.484375 35.828125 
Q 18.609375 31.296875 18.609375 23.390625 
Q 18.609375 15.53125 22.484375 10.953125 
Q 26.375 6.390625 33.015625 6.390625 
Q 39.65625 6.390625 43.53125 10.953125 
Q 47.40625 15.53125 47.40625 23.390625 
Q 47.40625 31.296875 43.53125 35.828125 
Q 39.65625 40.375 33.015625 40.375 
z
M 52.59375 71.296875 
L 52.59375 62.3125 
Q 48.875 64.0625 45.09375 64.984375 
Q 41.3125 65.921875 37.59375 65.921875 
Q 27.828125 65.921875 22.671875 59.328125 
Q 17.53125 52.734375 16.796875 39.40625 
Q 19.671875 43.65625 24.015625 45.921875 
Q 28.375 48.1875 33.59375 48.1875 
Q 44.578125 48.1875 50.953125 41.515625 
Q 57.328125 34.859375 57.328125 23.390625 
Q 57.328125 12.15625 50.6875 5.359375 
Q 44.046875 -1.421875 33.015625 -1.421875 
Q 20.359375 -1.421875 13.671875 8.265625 
Q 6.984375 17.96875 6.984375 36.375 
Q 6.984375 53.65625 15.1875 63.9375 
Q 23.390625 74.21875 37.203125 74.21875 
Q 40.921875 74.21875 44.703125 73.484375 
Q 48.484375 72.75 52.59375 71.296875 
z
" id="DejaVuSans-36"/>
      </defs>
      <g transform="translate(287.227214 317.076875)scale(0.2 -0.2)">
       <use xlink:href="#DejaVuSans-36"/>
      </g>
     </g>
    </g>
    <g id="xtick_5">
     <g id="line2d_9">
      <path clip-path="url(#p4b2413bf48)" d="M 56.12 294.88 
L 56.12 6.845228 
" style="fill:none;stroke:#b0b0b0;stroke-linecap:square;stroke-width:0.8;"/>
     </g>
     <g id="line2d_10">
      <defs>
       <path d="M 0 0 
L 0 2 
" id="m48acfae47d" style="stroke:#000000;stroke-width:0.6;"/>
      </defs>
      <g>
       <use style="stroke:#000000;stroke-width:0.6;" x="56.12" xlink:href="#m48acfae47d" y="294.88"/>
      </g>
     </g>
    </g>
    <g id="xtick_6">
     <g id="line2d_11">
      <path clip-path="url(#p4b2413bf48)" d="M 95.698286 294.88 
L 95.698286 6.845228 
" style="fill:none;stroke:#b0b0b0;stroke-linecap:square;stroke-width:0.8;"/>
     </g>
     <g id="line2d_12">
      <g>
       <use style="stroke:#000000;stroke-width:0.6;" x="95.698286" xlink:href="#m48acfae47d" y="294.88"/>
      </g>
     </g>
    </g>
    <g id="xtick_7">
     <g id="line2d_13">
      <path clip-path="url(#p4b2413bf48)" d="M 135.276571 294.88 
L 135.276571 6.845228 
" style="fill:none;stroke:#b0b0b0;stroke-linecap:square;stroke-width:0.8;"/>
     </g>
     <g id="line2d_14">
      <g>
       <use style="stroke:#000000;stroke-width:0.6;" x="135.276571" xlink:href="#m48acfae47d" y="294.88"/>
      </g>
     </g>
    </g>
    <g id="xtick_8">
     <g id="line2d_15">
      <path clip-path="url(#p4b2413bf48)" d="M 174.854857 294.88 
L 174.854857 6.845228 
" style="fill:none;stroke:#b0b0b0;stroke-linecap:square;stroke-width:0.8;"/>
     </g>
     <g id="line2d_16">
      <g>
       <use style="stroke:#000000;stroke-width:0.6;" x="174.854857" xlink:href="#m48acfae47d" y="294.88"/>
      </g>
     </g>
    </g>
    <g id="xtick_9">
     <g id="line2d_17">
      <path clip-path="url(#p4b2413bf48)" d="M 214.433143 294.88 
L 214.433143 6.845228 
" style="fill:none;stroke:#b0b0b0;stroke-linecap:square;stroke-width:0.8;"/>
     </g>
     <g id="line2d_18">
      <g>
       <use style="stroke:#000000;stroke-width:0.6;" x="214.433143" xlink:href="#m48acfae47d" y="294.88"/>
      </g>
     </g>
    </g>
    <g id="xtick_10">
     <g id="line2d_19">
      <path clip-path="url(#p4b2413bf48)" d="M 254.011429 294.88 
L 254.011429 6.845228 
" style="fill:none;stroke:#b0b0b0;stroke-linecap:square;stroke-width:0.8;"/>
     </g>
     <g id="line2d_20">
      <g>
       <use style="stroke:#000000;stroke-width:0.6;" x="254.011429" xlink:href="#m48acfae47d" y="294.88"/>
      </g>
     </g>
    </g>
    <g id="xtick_11">
     <g id="line2d_21">
      <path clip-path="url(#p4b2413bf48)" d="M 293.589714 294.88 
L 293.589714 6.845228 
" style="fill:none;stroke:#b0b0b0;stroke-linecap:square;stroke-width:0.8;"/>
     </g>
     <g id="line2d_22">
      <g>
       <use style="stroke:#000000;stroke-width:0.6;" x="293.589714" xlink:href="#m48acfae47d" y="294.88"/>
      </g>
     </g>
    </g>
    <g id="xtick_12">
     <g id="line2d_23">
      <path clip-path="url(#p4b2413bf48)" d="M 333.168 294.88 
L 333.168 6.845228 
" style="fill:none;stroke:#b0b0b0;stroke-linecap:square;stroke-width:0.8;"/>
     </g>
     <g id="line2d_24">
      <g>
       <use style="stroke:#000000;stroke-width:0.6;" x="333.168" xlink:href="#m48acfae47d" y="294.88"/>
      </g>
     </g>
    </g>
    <g id="text_5">
     <!-- log10(# f-evals / dimension) -->
     <defs>
      <path d="M 9.421875 75.984375 
L 18.40625 75.984375 
L 18.40625 0 
L 9.421875 0 
z
" id="DejaVuSans-6c"/>
      <path d="M 30.609375 48.390625 
Q 23.390625 48.390625 19.1875 42.75 
Q 14.984375 37.109375 14.984375 27.296875 
Q 14.984375 17.484375 19.15625 11.84375 
Q 23.34375 6.203125 30.609375 6.203125 
Q 37.796875 6.203125 41.984375 11.859375 
Q 46.1875 17.53125 46.1875 27.296875 
Q 46.1875 37.015625 41.984375 42.703125 
Q 37.796875 48.390625 30.609375 48.390625 
z
M 30.609375 56 
Q 42.328125 56 49.015625 48.375 
Q 55.71875 40.765625 55.71875 27.296875 
Q 55.71875 13.875 49.015625 6.21875 
Q 42.328125 -1.421875 30.609375 -1.421875 
Q 18.84375 -1.421875 12.171875 6.21875 
Q 5.515625 13.875 5.515625 27.296875 
Q 5.515625 40.765625 12.171875 48.375 
Q 18.84375 56 30.609375 56 
z
" id="DejaVuSans-6f"/>
      <path d="M 45.40625 27.984375 
Q 45.40625 37.75 41.375 43.109375 
Q 37.359375 48.484375 30.078125 48.484375 
Q 22.859375 48.484375 18.828125 43.109375 
Q 14.796875 37.75 14.796875 27.984375 
Q 14.796875 18.265625 18.828125 12.890625 
Q 22.859375 7.515625 30.078125 7.515625 
Q 37.359375 7.515625 41.375 12.890625 
Q 45.40625 18.265625 45.40625 27.984375 
z
M 54.390625 6.78125 
Q 54.390625 -7.171875 48.1875 -13.984375 
Q 42 -20.796875 29.203125 -20.796875 
Q 24.46875 -20.796875 20.265625 -20.09375 
Q 16.0625 -19.390625 12.109375 -17.921875 
L 12.109375 -9.1875 
Q 16.0625 -11.328125 19.921875 -12.34375 
Q 23.78125 -13.375 27.78125 -13.375 
Q 36.625 -13.375 41.015625 -8.765625 
Q 45.40625 -4.15625 45.40625 5.171875 
L 45.40625 9.625 
Q 42.625 4.78125 38.28125 2.390625 
Q 33.9375 0 27.875 0 
Q 17.828125 0 11.671875 7.65625 
Q 5.515625 15.328125 5.515625 27.984375 
Q 5.515625 40.671875 11.671875 48.328125 
Q 17.828125 56 27.875 56 
Q 33.9375 56 38.28125 53.609375 
Q 42.625 51.21875 45.40625 46.390625 
L 45.40625 54.6875 
L 54.390625 54.6875 
z
" id="DejaVuSans-67"/>
      <path d="M 12.40625 8.296875 
L 28.515625 8.296875 
L 28.515625 63.921875 
L 10.984375 60.40625 
L 10.984375 69.390625 
L 28.421875 72.90625 
L 38.28125 72.90625 
L 38.28125 8.296875 
L 54.390625 8.296875 
L 54.390625 0 
L 12.40625 0 
z
" id="DejaVuSans-31"/>
      <path d="M 31 75.875 
Q 24.46875 64.65625 21.28125 53.65625 
Q 18.109375 42.671875 18.109375 31.390625 
Q 18.109375 20.125 21.3125 9.0625 
Q 24.515625 -2 31 -13.1875 
L 23.1875 -13.1875 
Q 15.875 -1.703125 12.234375 9.375 
Q 8.59375 20.453125 8.59375 31.390625 
Q 8.59375 42.28125 12.203125 53.3125 
Q 15.828125 64.359375 23.1875 75.875 
z
" id="DejaVuSans-28"/>
      <path d="M 51.125 44 
L 36.921875 44 
L 32.8125 27.6875 
L 47.125 27.6875 
z
M 43.796875 71.78125 
L 38.71875 51.515625 
L 52.984375 51.515625 
L 58.109375 71.78125 
L 65.921875 71.78125 
L 60.890625 51.515625 
L 76.125 51.515625 
L 76.125 44 
L 58.984375 44 
L 54.984375 27.6875 
L 70.515625 27.6875 
L 70.515625 20.21875 
L 53.078125 20.21875 
L 48 0 
L 40.1875 0 
L 45.21875 20.21875 
L 30.90625 20.21875 
L 25.875 0 
L 18.015625 0 
L 23.09375 20.21875 
L 7.71875 20.21875 
L 7.71875 27.6875 
L 24.90625 27.6875 
L 29 44 
L 13.28125 44 
L 13.28125 51.515625 
L 30.90625 51.515625 
L 35.890625 71.78125 
z
" id="DejaVuSans-23"/>
      <path id="DejaVuSans-20"/>
      <path d="M 37.109375 75.984375 
L 37.109375 68.5 
L 28.515625 68.5 
Q 23.6875 68.5 21.796875 66.546875 
Q 19.921875 64.59375 19.921875 59.515625 
L 19.921875 54.6875 
L 34.71875 54.6875 
L 34.71875 47.703125 
L 19.921875 47.703125 
L 19.921875 0 
L 10.890625 0 
L 10.890625 47.703125 
L 2.296875 47.703125 
L 2.296875 54.6875 
L 10.890625 54.6875 
L 10.890625 58.5 
Q 10.890625 67.625 15.140625 71.796875 
Q 19.390625 75.984375 28.609375 75.984375 
z
" id="DejaVuSans-66"/>
      <path d="M 4.890625 31.390625 
L 31.203125 31.390625 
L 31.203125 23.390625 
L 4.890625 23.390625 
z
" id="DejaVuSans-2d"/>
      <path d="M 56.203125 29.59375 
L 56.203125 25.203125 
L 14.890625 25.203125 
Q 15.484375 15.921875 20.484375 11.0625 
Q 25.484375 6.203125 34.421875 6.203125 
Q 39.59375 6.203125 44.453125 7.46875 
Q 49.3125 8.734375 54.109375 11.28125 
L 54.109375 2.78125 
Q 49.265625 0.734375 44.1875 -0.34375 
Q 39.109375 -1.421875 33.890625 -1.421875 
Q 20.796875 -1.421875 13.15625 6.1875 
Q 5.515625 13.8125 5.515625 26.8125 
Q 5.515625 40.234375 12.765625 48.109375 
Q 20.015625 56 32.328125 56 
Q 43.359375 56 49.78125 48.890625 
Q 56.203125 41.796875 56.203125 29.59375 
z
M 47.21875 32.234375 
Q 47.125 39.59375 43.09375 43.984375 
Q 39.0625 48.390625 32.421875 48.390625 
Q 24.90625 48.390625 20.390625 44.140625 
Q 15.875 39.890625 15.1875 32.171875 
z
" id="DejaVuSans-65"/>
      <path d="M 2.984375 54.6875 
L 12.5 54.6875 
L 29.59375 8.796875 
L 46.6875 54.6875 
L 56.203125 54.6875 
L 35.6875 0 
L 23.484375 0 
z
" id="DejaVuSans-76"/>
      <path d="M 34.28125 27.484375 
Q 23.390625 27.484375 19.1875 25 
Q 14.984375 22.515625 14.984375 16.5 
Q 14.984375 11.71875 18.140625 8.90625 
Q 21.296875 6.109375 26.703125 6.109375 
Q 34.1875 6.109375 38.703125 11.40625 
Q 43.21875 16.703125 43.21875 25.484375 
L 43.21875 27.484375 
z
M 52.203125 31.203125 
L 52.203125 0 
L 43.21875 0 
L 43.21875 8.296875 
Q 40.140625 3.328125 35.546875 0.953125 
Q 30.953125 -1.421875 24.3125 -1.421875 
Q 15.921875 -1.421875 10.953125 3.296875 
Q 6 8.015625 6 15.921875 
Q 6 25.140625 12.171875 29.828125 
Q 18.359375 34.515625 30.609375 34.515625 
L 43.21875 34.515625 
L 43.21875 35.40625 
Q 43.21875 41.609375 39.140625 45 
Q 35.0625 48.390625 27.6875 48.390625 
Q 23 48.390625 18.546875 47.265625 
Q 14.109375 46.140625 10.015625 43.890625 
L 10.015625 52.203125 
Q 14.9375 54.109375 19.578125 55.046875 
Q 24.21875 56 28.609375 56 
Q 40.484375 56 46.34375 49.84375 
Q 52.203125 43.703125 52.203125 31.203125 
z
" id="DejaVuSans-61"/>
      <path d="M 44.28125 53.078125 
L 44.28125 44.578125 
Q 40.484375 46.53125 36.375 47.5 
Q 32.28125 48.484375 27.875 48.484375 
Q 21.1875 48.484375 17.84375 46.4375 
Q 14.5 44.390625 14.5 40.28125 
Q 14.5 37.15625 16.890625 35.375 
Q 19.28125 33.59375 26.515625 31.984375 
L 29.59375 31.296875 
Q 39.15625 29.25 43.1875 25.515625 
Q 47.21875 21.78125 47.21875 15.09375 
Q 47.21875 7.46875 41.1875 3.015625 
Q 35.15625 -1.421875 24.609375 -1.421875 
Q 20.21875 -1.421875 15.453125 -0.5625 
Q 10.6875 0.296875 5.421875 2 
L 5.421875 11.28125 
Q 10.40625 8.6875 15.234375 7.390625 
Q 20.0625 6.109375 24.8125 6.109375 
Q 31.15625 6.109375 34.5625 8.28125 
Q 37.984375 10.453125 37.984375 14.40625 
Q 37.984375 18.0625 35.515625 20.015625 
Q 33.0625 21.96875 24.703125 23.78125 
L 21.578125 24.515625 
Q 13.234375 26.265625 9.515625 29.90625 
Q 5.8125 33.546875 5.8125 39.890625 
Q 5.8125 47.609375 11.28125 51.796875 
Q 16.75 56 26.8125 56 
Q 31.78125 56 36.171875 55.265625 
Q 40.578125 54.546875 44.28125 53.078125 
z
" id="DejaVuSans-73"/>
      <path d="M 25.390625 72.90625 
L 33.6875 72.90625 
L 8.296875 -9.28125 
L 0 -9.28125 
z
" id="DejaVuSans-2f"/>
      <path d="M 45.40625 46.390625 
L 45.40625 75.984375 
L 54.390625 75.984375 
L 54.390625 0 
L 45.40625 0 
L 45.40625 8.203125 
Q 42.578125 3.328125 38.25 0.953125 
Q 33.9375 -1.421875 27.875 -1.421875 
Q 17.96875 -1.421875 11.734375 6.484375 
Q 5.515625 14.40625 5.515625 27.296875 
Q 5.515625 40.1875 11.734375 48.09375 
Q 17.96875 56 27.875 56 
Q 33.9375 56 38.25 53.625 
Q 42.578125 51.265625 45.40625 46.390625 
z
M 14.796875 27.296875 
Q 14.796875 17.390625 18.875 11.75 
Q 22.953125 6.109375 30.078125 6.109375 
Q 37.203125 6.109375 41.296875 11.75 
Q 45.40625 17.390625 45.40625 27.296875 
Q 45.40625 37.203125 41.296875 42.84375 
Q 37.203125 48.484375 30.078125 48.484375 
Q 22.953125 48.484375 18.875 42.84375 
Q 14.796875 37.203125 14.796875 27.296875 
z
" id="DejaVuSans-64"/>
      <path d="M 9.421875 54.6875 
L 18.40625 54.6875 
L 18.40625 0 
L 9.421875 0 
z
M 9.421875 75.984375 
L 18.40625 75.984375 
L 18.40625 64.59375 
L 9.421875 64.59375 
z
" id="DejaVuSans-69"/>
      <path d="M 52 44.1875 
Q 55.375 50.25 60.0625 53.125 
Q 64.75 56 71.09375 56 
Q 79.640625 56 84.28125 50.015625 
Q 88.921875 44.046875 88.921875 33.015625 
L 88.921875 0 
L 79.890625 0 
L 79.890625 32.71875 
Q 79.890625 40.578125 77.09375 44.375 
Q 74.3125 48.1875 68.609375 48.1875 
Q 61.625 48.1875 57.5625 43.546875 
Q 53.515625 38.921875 53.515625 30.90625 
L 53.515625 0 
L 44.484375 0 
L 44.484375 32.71875 
Q 44.484375 40.625 41.703125 44.40625 
Q 38.921875 48.1875 33.109375 48.1875 
Q 26.21875 48.1875 22.15625 43.53125 
Q 18.109375 38.875 18.109375 30.90625 
L 18.109375 0 
L 9.078125 0 
L 9.078125 54.6875 
L 18.109375 54.6875 
L 18.109375 46.1875 
Q 21.1875 51.21875 25.484375 53.609375 
Q 29.78125 56 35.6875 56 
Q 41.65625 56 45.828125 52.96875 
Q 50 49.953125 52 44.1875 
z
" id="DejaVuSans-6d"/>
      <path d="M 54.890625 33.015625 
L 54.890625 0 
L 45.90625 0 
L 45.90625 32.71875 
Q 45.90625 40.484375 42.875 44.328125 
Q 39.84375 48.1875 33.796875 48.1875 
Q 26.515625 48.1875 22.3125 43.546875 
Q 18.109375 38.921875 18.109375 30.90625 
L 18.109375 0 
L 9.078125 0 
L 9.078125 54.6875 
L 18.109375 54.6875 
L 18.109375 46.1875 
Q 21.34375 51.125 25.703125 53.5625 
Q 30.078125 56 35.796875 56 
Q 45.21875 56 50.046875 50.171875 
Q 54.890625 44.34375 54.890625 33.015625 
z
" id="DejaVuSans-6e"/>
      <path d="M 8.015625 75.875 
L 15.828125 75.875 
Q 23.140625 64.359375 26.78125 53.3125 
Q 30.421875 42.28125 30.421875 31.390625 
Q 30.421875 20.453125 26.78125 9.375 
Q 23.140625 -1.703125 15.828125 -13.1875 
L 8.015625 -13.1875 
Q 14.5 -2 17.703125 9.0625 
Q 20.90625 20.125 20.90625 31.390625 
Q 20.90625 42.671875 17.703125 53.65625 
Q 14.5 64.65625 8.015625 75.875 
z
" id="DejaVuSans-29"/>
     </defs>
     <g transform="translate(73.803219 338.153594)scale(0.17 -0.17)">
      <use xlink:href="#DejaVuSans-6c"/>
      <use x="27.783203" xlink:href="#DejaVuSans-6f"/>
      <use x="88.964844" xlink:href="#DejaVuSans-67"/>
      <use x="152.441406" xlink:href="#DejaVuSans-31"/>
      <use x="216.064453" xlink:href="#DejaVuSans-30"/>
      <use x="279.6875" xlink:href="#DejaVuSans-28"/>
      <use x="318.701172" xlink:href="#DejaVuSans-23"/>
      <use x="402.490234" xlink:href="#DejaVuSans-20"/>
      <use x="434.277344" xlink:href="#DejaVuSans-66"/>
      <use x="469.404297" xlink:href="#DejaVuSans-2d"/>
      <use x="505.488281" xlink:href="#DejaVuSans-65"/>
      <use x="567.011719" xlink:href="#DejaVuSans-76"/>
      <use x="626.191406" xlink:href="#DejaVuSans-61"/>
      <use x="687.470703" xlink:href="#DejaVuSans-6c"/>
      <use x="715.253906" xlink:href="#DejaVuSans-73"/>
      <use x="767.353516" xlink:href="#DejaVuSans-20"/>
      <use x="799.140625" xlink:href="#DejaVuSans-2f"/>
      <use x="832.832031" xlink:href="#DejaVuSans-20"/>
      <use x="864.619141" xlink:href="#DejaVuSans-64"/>
      <use x="928.095703" xlink:href="#DejaVuSans-69"/>
      <use x="955.878906" xlink:href="#DejaVuSans-6d"/>
      <use x="1053.291016" xlink:href="#DejaVuSans-65"/>
      <use x="1114.814453" xlink:href="#DejaVuSans-6e"/>
      <use x="1178.193359" xlink:href="#DejaVuSans-73"/>
      <use x="1230.292969" xlink:href="#DejaVuSans-69"/>
      <use x="1258.076172" xlink:href="#DejaVuSans-6f"/>
      <use x="1319.257812" xlink:href="#DejaVuSans-6e"/>
      <use x="1382.636719" xlink:href="#DejaVuSans-29"/>
     </g>
    </g>
   </g>
   <g id="matplotlib.axis_2">
    <g id="ytick_1">
     <g id="line2d_25">
      <path clip-path="url(#p4b2413bf48)" d="M 56.12 294.88 
L 333.168 294.88 
" style="fill:none;stroke:#b0b0b0;stroke-linecap:square;stroke-width:0.8;"/>
     </g>
     <g id="line2d_26">
      <defs>
       <path d="M 0 0 
L -3.5 0 
" id="m34a41470f6" style="stroke:#000000;stroke-width:0.8;"/>
      </defs>
      <g>
       <use style="stroke:#000000;stroke-width:0.8;" x="56.12" xlink:href="#m34a41470f6" y="294.88"/>
      </g>
     </g>
     <g id="text_6">
      <!-- 0.0 -->
      <defs>
       <path d="M 10.6875 12.40625 
L 21 12.40625 
L 21 0 
L 10.6875 0 
z
" id="DejaVuSans-2e"/>
      </defs>
      <g transform="translate(23.675 300.95875)scale(0.16 -0.16)">
       <use xlink:href="#DejaVuSans-30"/>
       <use x="63.623047" xlink:href="#DejaVuSans-2e"/>
       <use x="95.410156" xlink:href="#DejaVuSans-30"/>
      </g>
     </g>
    </g>
    <g id="ytick_2">
     <g id="line2d_27">
      <path clip-path="url(#p4b2413bf48)" d="M 56.12 237.843411 
L 333.168 237.843411 
" style="fill:none;stroke:#b0b0b0;stroke-linecap:square;stroke-width:0.8;"/>
     </g>
     <g id="line2d_28">
      <g>
       <use style="stroke:#000000;stroke-width:0.8;" x="56.12" xlink:href="#m34a41470f6" y="237.843411"/>
      </g>
     </g>
     <g id="text_7">
      <!-- 0.2 -->
      <g transform="translate(23.675 243.922161)scale(0.16 -0.16)">
       <use xlink:href="#DejaVuSans-30"/>
       <use x="63.623047" xlink:href="#DejaVuSans-2e"/>
       <use x="95.410156" xlink:href="#DejaVuSans-32"/>
      </g>
     </g>
    </g>
    <g id="ytick_3">
     <g id="line2d_29">
      <path clip-path="url(#p4b2413bf48)" d="M 56.12 180.806823 
L 333.168 180.806823 
" style="fill:none;stroke:#b0b0b0;stroke-linecap:square;stroke-width:0.8;"/>
     </g>
     <g id="line2d_30">
      <g>
       <use style="stroke:#000000;stroke-width:0.8;" x="56.12" xlink:href="#m34a41470f6" y="180.806823"/>
      </g>
     </g>
     <g id="text_8">
      <!-- 0.4 -->
      <g transform="translate(23.675 186.885573)scale(0.16 -0.16)">
       <use xlink:href="#DejaVuSans-30"/>
       <use x="63.623047" xlink:href="#DejaVuSans-2e"/>
       <use x="95.410156" xlink:href="#DejaVuSans-34"/>
      </g>
     </g>
    </g>
    <g id="ytick_4">
     <g id="line2d_31">
      <path clip-path="url(#p4b2413bf48)" d="M 56.12 123.770234 
L 333.168 123.770234 
" style="fill:none;stroke:#b0b0b0;stroke-linecap:square;stroke-width:0.8;"/>
     </g>
     <g id="line2d_32">
      <g>
       <use style="stroke:#000000;stroke-width:0.8;" x="56.12" xlink:href="#m34a41470f6" y="123.770234"/>
      </g>
     </g>
     <g id="text_9">
      <!-- 0.6 -->
      <g transform="translate(23.675 129.848984)scale(0.16 -0.16)">
       <use xlink:href="#DejaVuSans-30"/>
       <use x="63.623047" xlink:href="#DejaVuSans-2e"/>
       <use x="95.410156" xlink:href="#DejaVuSans-36"/>
      </g>
     </g>
    </g>
    <g id="ytick_5">
     <g id="line2d_33">
      <path clip-path="url(#p4b2413bf48)" d="M 56.12 66.733646 
L 333.168 66.733646 
" style="fill:none;stroke:#b0b0b0;stroke-linecap:square;stroke-width:0.8;"/>
     </g>
     <g id="line2d_34">
      <g>
       <use style="stroke:#000000;stroke-width:0.8;" x="56.12" xlink:href="#m34a41470f6" y="66.733646"/>
      </g>
     </g>
     <g id="text_10">
      <!-- 0.8 -->
      <defs>
       <path d="M 31.78125 34.625 
Q 24.75 34.625 20.71875 30.859375 
Q 16.703125 27.09375 16.703125 20.515625 
Q 16.703125 13.921875 20.71875 10.15625 
Q 24.75 6.390625 31.78125 6.390625 
Q 38.8125 6.390625 42.859375 10.171875 
Q 46.921875 13.96875 46.921875 20.515625 
Q 46.921875 27.09375 42.890625 30.859375 
Q 38.875 34.625 31.78125 34.625 
z
M 21.921875 38.8125 
Q 15.578125 40.375 12.03125 44.71875 
Q 8.5 49.078125 8.5 55.328125 
Q 8.5 64.0625 14.71875 69.140625 
Q 20.953125 74.21875 31.78125 74.21875 
Q 42.671875 74.21875 48.875 69.140625 
Q 55.078125 64.0625 55.078125 55.328125 
Q 55.078125 49.078125 51.53125 44.71875 
Q 48 40.375 41.703125 38.8125 
Q 48.828125 37.15625 52.796875 32.3125 
Q 56.78125 27.484375 56.78125 20.515625 
Q 56.78125 9.90625 50.3125 4.234375 
Q 43.84375 -1.421875 31.78125 -1.421875 
Q 19.734375 -1.421875 13.25 4.234375 
Q 6.78125 9.90625 6.78125 20.515625 
Q 6.78125 27.484375 10.78125 32.3125 
Q 14.796875 37.15625 21.921875 38.8125 
z
M 18.3125 54.390625 
Q 18.3125 48.734375 21.84375 45.5625 
Q 25.390625 42.390625 31.78125 42.390625 
Q 38.140625 42.390625 41.71875 45.5625 
Q 45.3125 48.734375 45.3125 54.390625 
Q 45.3125 60.0625 41.71875 63.234375 
Q 38.140625 66.40625 31.78125 66.40625 
Q 25.390625 66.40625 21.84375 63.234375 
Q 18.3125 60.0625 18.3125 54.390625 
z
" id="DejaVuSans-38"/>
      </defs>
      <g transform="translate(23.675 72.812396)scale(0.16 -0.16)">
       <use xlink:href="#DejaVuSans-30"/>
       <use x="63.623047" xlink:href="#DejaVuSans-2e"/>
       <use x="95.410156" xlink:href="#DejaVuSans-38"/>
      </g>
     </g>
    </g>
    <g id="ytick_6">
     <g id="line2d_35">
      <path clip-path="url(#p4b2413bf48)" d="M 56.12 9.697057 
L 333.168 9.697057 
" style="fill:none;stroke:#b0b0b0;stroke-linecap:square;stroke-width:0.8;"/>
     </g>
     <g id="line2d_36">
      <g>
       <use style="stroke:#000000;stroke-width:0.8;" x="56.12" xlink:href="#m34a41470f6" y="9.697057"/>
      </g>
     </g>
     <g id="text_11">
      <!-- 1.0 -->
      <g transform="translate(23.675 15.775807)scale(0.16 -0.16)">
       <use xlink:href="#DejaVuSans-31"/>
       <use x="63.623047" xlink:href="#DejaVuSans-2e"/>
       <use x="95.410156" xlink:href="#DejaVuSans-30"/>
      </g>
     </g>
    </g>
    <g id="text_12">
     <!-- Fraction of function,target pairs -->
     <defs>
      <path d="M 9.8125 72.90625 
L 51.703125 72.90625 
L 51.703125 64.59375 
L 19.671875 64.59375 
L 19.671875 43.109375 
L 48.578125 43.109375 
L 48.578125 34.8125 
L 19.671875 34.8125 
L 19.671875 0 
L 9.8125 0 
z
" id="DejaVuSans-46"/>
      <path d="M 41.109375 46.296875 
Q 39.59375 47.171875 37.8125 47.578125 
Q 36.03125 48 33.890625 48 
Q 26.265625 48 22.1875 43.046875 
Q 18.109375 38.09375 18.109375 28.8125 
L 18.109375 0 
L 9.078125 0 
L 9.078125 54.6875 
L 18.109375 54.6875 
L 18.109375 46.1875 
Q 20.953125 51.171875 25.484375 53.578125 
Q 30.03125 56 36.53125 56 
Q 37.453125 56 38.578125 55.875 
Q 39.703125 55.765625 41.0625 55.515625 
z
" id="DejaVuSans-72"/>
      <path d="M 48.78125 52.59375 
L 48.78125 44.1875 
Q 44.96875 46.296875 41.140625 47.34375 
Q 37.3125 48.390625 33.40625 48.390625 
Q 24.65625 48.390625 19.8125 42.84375 
Q 14.984375 37.3125 14.984375 27.296875 
Q 14.984375 17.28125 19.8125 11.734375 
Q 24.65625 6.203125 33.40625 6.203125 
Q 37.3125 6.203125 41.140625 7.25 
Q 44.96875 8.296875 48.78125 10.40625 
L 48.78125 2.09375 
Q 45.015625 0.34375 40.984375 -0.53125 
Q 36.96875 -1.421875 32.421875 -1.421875 
Q 20.0625 -1.421875 12.78125 6.34375 
Q 5.515625 14.109375 5.515625 27.296875 
Q 5.515625 40.671875 12.859375 48.328125 
Q 20.21875 56 33.015625 56 
Q 37.15625 56 41.109375 55.140625 
Q 45.0625 54.296875 48.78125 52.59375 
z
" id="DejaVuSans-63"/>
      <path d="M 18.3125 70.21875 
L 18.3125 54.6875 
L 36.8125 54.6875 
L 36.8125 47.703125 
L 18.3125 47.703125 
L 18.3125 18.015625 
Q 18.3125 11.328125 20.140625 9.421875 
Q 21.96875 7.515625 27.59375 7.515625 
L 36.8125 7.515625 
L 36.8125 0 
L 27.59375 0 
Q 17.1875 0 13.234375 3.875 
Q 9.28125 7.765625 9.28125 18.015625 
L 9.28125 47.703125 
L 2.6875 47.703125 
L 2.6875 54.6875 
L 9.28125 54.6875 
L 9.28125 70.21875 
z
" id="DejaVuSans-74"/>
      <path d="M 8.5 21.578125 
L 8.5 54.6875 
L 17.484375 54.6875 
L 17.484375 21.921875 
Q 17.484375 14.15625 20.5 10.265625 
Q 23.53125 6.390625 29.59375 6.390625 
Q 36.859375 6.390625 41.078125 11.03125 
Q 45.3125 15.671875 45.3125 23.6875 
L 45.3125 54.6875 
L 54.296875 54.6875 
L 54.296875 0 
L 45.3125 0 
L 45.3125 8.40625 
Q 42.046875 3.421875 37.71875 1 
Q 33.40625 -1.421875 27.6875 -1.421875 
Q 18.265625 -1.421875 13.375 4.4375 
Q 8.5 10.296875 8.5 21.578125 
z
M 31.109375 56 
z
" id="DejaVuSans-75"/>
      <path d="M 11.71875 12.40625 
L 22.015625 12.40625 
L 22.015625 4 
L 14.015625 -11.625 
L 7.71875 -11.625 
L 11.71875 4 
z
" id="DejaVuSans-2c"/>
      <path d="M 18.109375 8.203125 
L 18.109375 -20.796875 
L 9.078125 -20.796875 
L 9.078125 54.6875 
L 18.109375 54.6875 
L 18.109375 46.390625 
Q 20.953125 51.265625 25.265625 53.625 
Q 29.59375 56 35.59375 56 
Q 45.5625 56 51.78125 48.09375 
Q 58.015625 40.1875 58.015625 27.296875 
Q 58.015625 14.40625 51.78125 6.484375 
Q 45.5625 -1.421875 35.59375 -1.421875 
Q 29.59375 -1.421875 25.265625 0.953125 
Q 20.953125 3.328125 18.109375 8.203125 
z
M 48.6875 27.296875 
Q 48.6875 37.203125 44.609375 42.84375 
Q 40.53125 48.484375 33.40625 48.484375 
Q 26.265625 48.484375 22.1875 42.84375 
Q 18.109375 37.203125 18.109375 27.296875 
Q 18.109375 17.390625 22.1875 11.75 
Q 26.265625 6.109375 33.40625 6.109375 
Q 40.53125 6.109375 44.609375 11.75 
Q 48.6875 17.390625 48.6875 27.296875 
z
" id="DejaVuSans-70"/>
     </defs>
     <g transform="translate(16.139531 286.001989)rotate(-90)scale(0.17 -0.17)">
      <use xlink:href="#DejaVuSans-46"/>
      <use x="57.410156" xlink:href="#DejaVuSans-72"/>
      <use x="98.523438" xlink:href="#DejaVuSans-61"/>
      <use x="159.802734" xlink:href="#DejaVuSans-63"/>
      <use x="214.783203" xlink:href="#DejaVuSans-74"/>
      <use x="253.992188" xlink:href="#DejaVuSans-69"/>
      <use x="281.775391" xlink:href="#DejaVuSans-6f"/>
      <use x="342.957031" xlink:href="#DejaVuSans-6e"/>
      <use x="406.335938" xlink:href="#DejaVuSans-20"/>
      <use x="438.123047" xlink:href="#DejaVuSans-6f"/>
      <use x="499.304688" xlink:href="#DejaVuSans-66"/>
      <use x="534.509766" xlink:href="#DejaVuSans-20"/>
      <use x="566.296875" xlink:href="#DejaVuSans-66"/>
      <use x="601.501953" xlink:href="#DejaVuSans-75"/>
      <use x="664.880859" xlink:href="#DejaVuSans-6e"/>
      <use x="728.259766" xlink:href="#DejaVuSans-63"/>
      <use x="783.240234" xlink:href="#DejaVuSans-74"/>
      <use x="822.449219" xlink:href="#DejaVuSans-69"/>
      <use x="850.232422" xlink:href="#DejaVuSans-6f"/>
      <use x="911.414062" xlink:href="#DejaVuSans-6e"/>
      <use x="974.792969" xlink:href="#DejaVuSans-2c"/>
      <use x="1006.580078" xlink:href="#DejaVuSans-74"/>
      <use x="1045.789062" xlink:href="#DejaVuSans-61"/>
      <use x="1107.068359" xlink:href="#DejaVuSans-72"/>
      <use x="1148.166016" xlink:href="#DejaVuSans-67"/>
      <use x="1211.642578" xlink:href="#DejaVuSans-65"/>
      <use x="1273.166016" xlink:href="#DejaVuSans-74"/>
      <use x="1312.375" xlink:href="#DejaVuSans-20"/>
      <use x="1344.162109" xlink:href="#DejaVuSans-70"/>
      <use x="1407.638672" xlink:href="#DejaVuSans-61"/>
      <use x="1468.917969" xlink:href="#DejaVuSans-69"/>
      <use x="1496.701172" xlink:href="#DejaVuSans-72"/>
      <use x="1537.814453" xlink:href="#DejaVuSans-73"/>
     </g>
    </g>
   </g>
   <g id="line2d_37">
    <defs>
     <path d="M 0 1.5 
C 0.397805 1.5 0.77937 1.341951 1.06066 1.06066 
C 1.341951 0.77937 1.5 0.397805 1.5 0 
C 1.5 -0.397805 1.341951 -0.77937 1.06066 -1.06066 
C 0.77937 -1.341951 0.397805 -1.5 0 -1.5 
C -0.397805 -1.5 -0.77937 -1.341951 -1.06066 -1.06066 
C -1.341951 -0.77937 -1.5 -0.397805 -1.5 0 
C -1.5 0.397805 -1.341951 0.77937 -1.06066 1.06066 
C -0.77937 1.341951 -0.397805 1.5 0 1.5 
z
" id="m8f437dd3d9" style="stroke:#000080;"/>
    </defs>
    <g>
     <use style="fill:#000080;stroke:#000080;" x="240.43185" xlink:href="#m8f437dd3d9" y="9.697057"/>
     <use style="fill:#000080;stroke:#000080;" x="240.43185" xlink:href="#m8f437dd3d9" y="9.697057"/>
    </g>
   </g>
   <g id="line2d_38">
    <path d="M 44.205749 294.88 
L 44.205749 294.320818 
L 56.12 294.320818 
L 56.12 293.761636 
L 63.08939 293.761636 
L 63.08939 293.202453 
L 68.034251 293.202453 
L 68.034251 289.84736 
L 71.869783 289.84736 
L 71.869783 283.137173 
L 75.003641 283.137173 
L 75.003641 280.900444 
L 77.653281 280.900444 
L 77.653281 278.663715 
L 83.784035 278.663715 
L 83.784035 276.426986 
L 85.422286 276.426986 
L 85.422286 271.394346 
L 88.293717 271.394346 
L 88.293717 270.835164 
L 89.567532 270.835164 
L 89.567532 270.275981 
L 92.904808 270.275981 
L 92.904808 269.157617 
L 94.816624 269.157617 
L 94.816624 268.039252 
L 95.698286 268.039252 
L 95.698286 266.920888 
L 97.336537 266.920888 
L 97.336537 261.329066 
L 98.832144 261.329066 
L 98.832144 260.769883 
L 100.856673 260.769883 
L 100.856673 260.210701 
L 105.317315 260.210701 
L 105.317315 258.533154 
L 106.730875 258.533154 
L 106.730875 257.41479 
L 113.396034 257.41479 
L 113.396034 256.855608 
L 116.220179 256.855608 
L 116.220179 255.178061 
L 117.715785 255.178061 
L 117.715785 254.618879 
L 118.417459 254.618879 
L 118.417459 254.059696 
L 119.09161 254.059696 
L 119.09161 252.941332 
L 119.310576 252.941332 
L 119.310576 252.38215 
L 121.929105 252.38215 
L 121.929105 251.822967 
L 126.780294 251.822967 
L 126.780294 251.263785 
L 132.483094 251.263785 
L 132.483094 250.704603 
L 137.070377 250.704603 
L 137.070377 250.145421 
L 139.653523 250.145421 
L 139.653523 249.027056 
L 142.07321 249.027056 
L 142.07321 248.467874 
L 142.69832 248.467874 
L 142.69832 247.908692 
L 144.245007 247.908692 
L 144.245007 245.671963 
L 145.042304 245.671963 
L 145.042304 244.553598 
L 145.522465 244.553598 
L 145.522465 243.994416 
L 147.57328 243.994416 
L 147.57328 242.316869 
L 152.507631 242.316869 
L 152.507631 240.639323 
L 152.758108 240.639323 
L 152.758108 239.520958 
L 152.88199 239.520958 
L 152.88199 238.961776 
L 153.871321 238.961776 
L 153.871321 237.843411 
L 154.751526 237.843411 
L 154.751526 237.284229 
L 155.080505 237.284229 
L 155.134728 235.606682 
L 155.349925 235.606682 
L 155.349925 233.929136 
L 156.311596 233.929136 
L 156.387261 232.251589 
L 158.845291 232.251589 
L 158.845291 231.692407 
L 159.550455 231.692407 
L 159.550455 231.133225 
L 159.717134 231.133225 
L 159.717134 230.01486 
L 159.902736 230.01486 
L 159.902736 227.218949 
L 161.895329 227.218949 
L 161.895329 225.541402 
L 163.482025 225.541402 
L 163.548519 223.863855 
L 164.183699 223.863855 
L 164.183699 223.304673 
L 164.453392 223.304673 
L 164.453392 222.186309 
L 165.268026 222.186309 
L 165.357863 221.067944 
L 165.565672 221.067944 
L 165.668643 219.390397 
L 165.887238 219.390397 
L 165.887238 218.272033 
L 166.160193 218.272033 
L 166.160193 217.712851 
L 166.484916 217.712851 
L 166.484916 217.153669 
L 166.748614 217.153669 
L 166.748614 216.594486 
L 167.91981 216.594486 
L 167.91981 216.035304 
L 168.576137 216.035304 
L 168.613248 214.91694 
L 168.748641 214.91694 
L 168.846443 212.121028 
L 169.016268 212.121028 
L 169.016268 211.561846 
L 169.362801 211.561846 
L 169.362801 211.002664 
L 170.035586 211.002664 
L 170.035586 210.443482 
L 171.083662 210.443482 
L 171.083662 209.884299 
L 171.939617 209.884299 
L 171.939617 209.325117 
L 172.948095 209.325117 
L 172.996041 207.64757 
L 173.205429 207.64757 
L 173.205429 206.529206 
L 173.561198 206.529206 
L 173.561198 205.970024 
L 174.295828 205.970024 
L 174.40204 204.851659 
L 174.708129 204.851659 
L 174.708129 204.292477 
L 175.437865 204.292477 
L 175.437865 203.174112 
L 175.742534 203.174112 
L 175.742534 202.61493 
L 176.461828 202.61493 
L 176.469654 201.496566 
L 176.702776 201.496566 
L 176.702776 200.937384 
L 176.932779 200.937384 
L 176.932779 197.58229 
L 177.34662 197.58229 
L 177.34662 197.023108 
L 178.138461 197.023108 
L 178.138461 196.463926 
L 178.552327 196.463926 
L 178.552327 195.345561 
L 178.786377 195.345561 
L 178.861422 193.108832 
L 179.104757 193.108832 
L 179.104757 192.54965 
L 179.291664 192.54965 
L 179.291664 190.312921 
L 179.40416 190.312921 
L 179.40416 189.194556 
L 179.763153 189.194556 
L 179.827627 188.076192 
L 179.949464 188.076192 
L 180.045046 185.839463 
L 180.309879 185.839463 
L 180.309879 185.280281 
L 180.471802 185.280281 
L 180.527499 184.161916 
L 180.613782 184.161916 
L 180.613782 183.602734 
L 180.942586 183.602734 
L 180.942586 182.48437 
L 181.140469 182.48437 
L 181.140469 181.366005 
L 181.57028 181.366005 
L 181.57028 180.247641 
L 181.961209 180.247641 
L 181.961209 179.688458 
L 182.360113 179.688458 
L 182.360113 179.129276 
L 182.547909 179.129276 
L 182.547909 178.570094 
L 182.684696 178.570094 
L 182.760825 176.892547 
L 182.933576 176.892547 
L 182.933576 175.774183 
L 183.06734 175.774183 
L 183.06734 174.655818 
L 183.818192 174.655818 
L 183.909783 173.537454 
L 183.930071 173.537454 
L 183.930071 172.978271 
L 184.226564 172.978271 
L 184.330873 168.504814 
L 184.532718 168.504814 
L 184.532718 166.827267 
L 184.73222 166.827267 
L 184.73222 166.268085 
L 184.919866 166.268085 
L 185.010546 162.912991 
L 185.256305 162.912991 
L 185.321874 161.794627 
L 185.521717 161.794627 
L 185.623071 158.439533 
L 185.778543 158.439533 
L 185.851222 155.08444 
L 186.307465 155.08444 
L 186.307465 153.966075 
L 186.786288 153.966075 
L 186.871932 152.288529 
L 186.940141 152.288529 
L 186.969897 148.933435 
L 187.147363 148.933435 
L 187.176763 146.696706 
L 187.607744 146.696706 
L 187.607744 145.019159 
L 188.016198 145.019159 
L 188.016198 144.459977 
L 188.199058 144.459977 
L 188.199058 143.341613 
L 188.40736 143.341613 
L 188.469751 140.545702 
L 188.58226 140.545702 
L 188.58226 139.986519 
L 188.797457 139.986519 
L 188.797457 137.74979 
L 189.167688 137.74979 
L 189.167688 134.953879 
L 189.570319 134.953879 
L 189.570319 134.394697 
L 189.737448 134.394697 
L 189.737448 133.835515 
L 189.942312 133.835515 
L 189.942312 132.157968 
L 190.39365 132.157968 
L 190.452711 130.480421 
L 190.52539 130.480421 
L 190.52539 129.921239 
L 190.659556 129.921239 
L 190.659556 129.362057 
L 191.079307 129.362057 
L 191.079307 128.802874 
L 191.298612 128.802874 
L 191.397379 125.447781 
L 191.426899 125.447781 
L 191.426899 124.329417 
L 191.831737 124.329417 
L 191.834937 122.65187 
L 192.10483 122.65187 
L 192.170862 120.974323 
L 192.398446 120.974323 
L 192.398446 119.855959 
L 192.814567 119.855959 
L 192.814567 118.737594 
L 192.962058 118.737594 
L 193.01891 117.61923 
L 193.19426 117.61923 
L 193.214946 114.823318 
L 193.332677 114.823318 
L 193.332677 113.704954 
L 193.838474 113.704954 
L 193.838474 113.145772 
L 194.095722 113.145772 
L 194.095722 112.027407 
L 194.560757 112.027407 
L 194.560757 111.468225 
L 194.723838 111.468225 
L 194.810186 110.349861 
L 194.917515 110.349861 
L 194.954922 108.672314 
L 195.056047 108.672314 
L 195.153943 106.994767 
L 195.185574 106.994767 
L 195.209259 104.758038 
L 195.321972 104.758038 
L 195.428758 100.28458 
L 195.467661 100.28458 
L 195.467661 98.607033 
L 195.686463 98.607033 
L 195.729892 93.574393 
L 195.927756 93.574393 
L 196.02584 91.896847 
L 196.105904 91.896847 
L 196.215386 90.2193 
L 196.622266 90.2193 
L 196.658562 87.423389 
L 196.79819 87.423389 
L 196.79819 86.864206 
L 196.967585 86.864206 
L 196.967585 85.745842 
L 197.111799 85.745842 
L 197.203372 81.272384 
L 197.472894 81.272384 
L 197.48672 79.594837 
L 197.66546 79.594837 
L 197.66546 78.476473 
L 197.983923 78.476473 
L 198.004052 75.680562 
L 198.11545 75.680562 
L 198.204051 72.88465 
L 198.322943 72.88465 
L 198.4323 69.529557 
L 198.784047 69.529557 
L 198.784047 68.970375 
L 199.015312 68.970375 
L 199.086817 65.615281 
L 199.141298 65.615281 
L 199.206031 61.701006 
L 199.435837 61.701006 
L 199.513809 59.464277 
L 199.571036 59.464277 
L 199.62604 57.78673 
L 199.824217 57.78673 
L 199.868393 56.109183 
L 199.980332 56.109183 
L 200.077685 54.431636 
L 200.109354 54.431636 
L 200.109354 53.872454 
L 200.280544 53.872454 
L 200.376215 52.75409 
L 200.457798 52.75409 
L 200.567901 49.398996 
L 200.774604 49.398996 
L 200.805016 48.280632 
L 200.886483 48.280632 
L 200.886483 47.162267 
L 201.111813 47.162267 
L 201.111813 46.043903 
L 201.407729 46.043903 
L 201.517398 43.247992 
L 201.593751 43.247992 
L 201.602818 41.011263 
L 201.901165 41.011263 
L 201.990023 35.978622 
L 202.06078 35.978622 
L 202.120695 33.741894 
L 202.197924 33.741894 
L 202.30442 25.913342 
L 202.482758 25.913342 
L 202.532637 24.794978 
L 202.616589 24.794978 
L 202.616589 24.235795 
L 213.756517 24.235795 
L 213.756517 23.117431 
L 214.065704 23.117431 
L 214.065704 21.439884 
L 214.203871 21.439884 
L 214.227371 19.762337 
L 214.322782 19.762337 
L 214.411644 18.643973 
L 214.50176 18.643973 
L 214.50176 18.084791 
L 221.013716 18.084791 
L 221.013716 17.525609 
L 221.308311 17.525609 
L 221.413416 16.407244 
L 221.419713 16.407244 
L 221.493962 14.170515 
L 226.369725 14.170515 
L 226.468149 13.052151 
L 230.020936 13.052151 
L 230.020936 12.492968 
L 230.262497 12.492968 
L 230.262497 11.933786 
L 233.360559 11.933786 
L 233.360559 11.374604 
L 236.072664 11.374604 
L 236.074128 10.256239 
L 240.43185 10.256239 
L 240.43185 9.697057 
L 333.168 9.697057 
L 333.168 9.697057 
" style="fill:none;stroke:#000080;stroke-linecap:square;stroke-width:1.5;"/>
   </g>
   <g id="line2d_39">
    <defs>
     <path d="M 0 6 
C 1.591219 6 3.117479 5.367802 4.242641 4.242641 
C 5.367802 3.117479 6 1.591219 6 0 
C 6 -1.591219 5.367802 -3.117479 4.242641 -4.242641 
C 3.117479 -5.367802 1.591219 -6 0 -6 
C -1.591219 -6 -3.117479 -5.367802 -4.242641 -4.242641 
C -5.367802 -3.117479 -6 -1.591219 -6 0 
C -6 1.591219 -5.367802 3.117479 -4.242641 4.242641 
C -3.117479 5.367802 -1.591219 6 0 6 
z
" id="m1771b20e4e" style="stroke:#000080;stroke-width:1.5;"/>
    </defs>
    <g>
     <use style="fill-opacity:0;stroke:#000080;stroke-width:1.5;" x="132.483094" xlink:href="#m1771b20e4e" y="251.263785"/>
     <use style="fill-opacity:0;stroke:#000080;stroke-width:1.5;" x="179.291664" xlink:href="#m1771b20e4e" y="192.54965"/>
     <use style="fill-opacity:0;stroke:#000080;stroke-width:1.5;" x="199.824217" xlink:href="#m1771b20e4e" y="57.78673"/>
     <use style="fill-opacity:0;stroke:#000080;stroke-width:1.5;" x="240.43185" xlink:href="#m1771b20e4e" y="10.256239"/>
     <use style="fill-opacity:0;stroke:#000080;stroke-width:1.5;" x="240.43185" xlink:href="#m1771b20e4e" y="9.697057"/>
     <use style="fill-opacity:0;stroke:#000080;stroke-width:1.5;" x="333.168" xlink:href="#m1771b20e4e" y="9.697057"/>
    </g>
   </g>
   <g id="line2d_40">
    <path style="fill:none;stroke:#000080;stroke-linecap:square;stroke-width:1.5;"/>
    <g/>
   </g>
   <g id="line2d_41">
    <path clip-path="url(#p4b2413bf48)" d="M 202.691626 24.235795 
" style="fill:none;stroke:#000080;stroke-linecap:square;stroke-width:1.5;"/>
    <defs>
     <path d="M -12 12 
L 12 -12 
M -12 -12 
L 12 12 
" id="mdfcf406ea1" style="stroke:#000080;"/>
    </defs>
    <g clip-path="url(#p4b2413bf48)">
     <use style="fill:#000080;stroke:#000080;" x="202.691626" xlink:href="#mdfcf406ea1" y="24.235795"/>
    </g>
   </g>
   <g id="line2d_42">
    <defs>
     <path d="M 0 1.5 
C 0.397805 1.5 0.77937 1.341951 1.06066 1.06066 
C 1.341951 0.77937 1.5 0.397805 1.5 0 
C 1.5 -0.397805 1.341951 -0.77937 1.06066 -1.06066 
C 0.77937 -1.341951 0.397805 -1.5 0 -1.5 
C -0.397805 -1.5 -0.77937 -1.341951 -1.06066 -1.06066 
C -1.341951 -0.77937 -1.5 -0.397805 -1.5 0 
C -1.5 0.397805 -1.341951 0.77937 -1.06066 1.06066 
C -0.77937 1.341951 -0.397805 1.5 0 1.5 
z
" id="m1c3a96d7f5" style="stroke:#ff00ff;"/>
    </defs>
    <g>
     <use style="fill:#ff00ff;stroke:#ff00ff;" x="222.547813" xlink:href="#m1c3a96d7f5" y="9.697057"/>
     <use style="fill:#ff00ff;stroke:#ff00ff;" x="222.547813" xlink:href="#m1c3a96d7f5" y="9.697057"/>
    </g>
   </g>
   <g id="line2d_43">
    <path d="M 44.205749 294.88 
L 44.205749 216.594486 
L 63.08939 216.594486 
L 63.08939 215.476122 
L 110.014853 215.476122 
L 110.014853 214.91694 
L 118.186736 214.91694 
L 118.186736 213.798575 
L 121.929105 213.798575 
L 121.929105 212.121028 
L 124.036471 212.121028 
L 124.036471 211.561846 
L 132.684132 211.561846 
L 132.684132 211.002664 
L 136.914823 211.002664 
L 136.914823 210.443482 
L 141.544287 210.443482 
L 141.544287 209.884299 
L 144.346715 209.884299 
L 144.346715 208.765935 
L 149.480672 208.765935 
L 149.480672 207.64757 
L 152.633326 207.64757 
L 152.633326 204.851659 
L 153.607102 204.851659 
L 153.607102 203.733295 
L 155.824488 203.733295 
L 155.824488 202.055748 
L 156.005559 202.055748 
L 156.005559 200.937384 
L 157.341751 200.937384 
L 157.341751 198.700655 
L 157.765022 198.700655 
L 157.765022 195.345561 
L 158.492691 195.345561 
L 158.492691 194.227197 
L 158.954011 194.227197 
L 158.954011 193.668014 
L 159.3186 193.668014 
L 159.3186 191.431285 
L 161.35727 191.431285 
L 161.413719 189.194556 
L 162.575801 189.194556 
L 162.645887 186.957828 
L 162.733095 186.957828 
L 162.733095 185.280281 
L 164.103566 185.280281 
L 164.167702 179.688458 
L 165.192802 179.688458 
L 165.192802 176.892547 
L 165.930625 176.892547 
L 165.930625 174.655818 
L 166.103088 174.655818 
L 166.103088 172.419089 
L 166.302131 172.419089 
L 166.302131 171.300725 
L 166.803618 171.300725 
L 166.885795 169.623178 
L 166.926736 169.623178 
L 166.926736 167.386449 
L 168.736376 167.386449 
L 168.736376 166.827267 
L 170.092371 166.827267 
L 170.092371 162.912991 
L 170.672068 162.912991 
L 170.672068 160.676262 
L 170.987066 160.676262 
L 171.040797 159.557898 
L 171.190358 159.557898 
L 171.190358 157.880351 
L 171.475171 157.880351 
L 171.475171 156.761987 
L 172.696597 156.761987 
L 172.696597 151.729346 
L 172.976879 151.729346 
L 173.062942 150.0518 
L 173.167548 150.0518 
L 173.167548 145.019159 
L 173.909752 145.019159 
L 173.927903 143.900795 
L 174.090402 143.900795 
L 174.108362 142.78243 
L 174.794591 142.78243 
L 174.794591 139.986519 
L 175.296051 139.986519 
L 175.296051 138.308973 
L 175.46277 138.308973 
L 175.46277 137.190608 
L 175.578519 137.190608 
L 175.578519 136.072244 
L 176.296665 136.072244 
L 176.296665 134.953879 
L 176.578838 134.953879 
L 176.578838 133.835515 
L 177.099513 133.835515 
L 177.099513 133.276332 
L 177.287041 133.276332 
L 177.287041 131.598786 
L 177.560881 131.598786 
L 177.626836 129.362057 
L 177.787002 129.362057 
L 177.787002 126.566145 
L 177.924137 126.566145 
L 177.938508 121.533505 
L 178.195166 121.533505 
L 178.195166 120.974323 
L 178.517638 120.974323 
L 178.517638 118.178412 
L 179.131583 118.178412 
L 179.131583 115.941683 
L 179.324828 115.941683 
L 179.324828 113.145772 
L 179.443689 113.145772 
L 179.443689 112.586589 
L 179.574801 112.586589 
L 179.574801 110.349861 
L 180.662892 110.349861 
L 180.736295 107.553949 
L 180.990767 107.553949 
L 180.990767 105.876403 
L 181.288878 105.876403 
L 181.288878 105.31722 
L 181.558647 105.31722 
L 181.645707 103.080491 
L 181.989606 103.080491 
L 182.080162 99.725398 
L 182.382314 99.725398 
L 182.448743 97.488669 
L 182.536919 97.488669 
L 182.569868 94.133576 
L 182.668339 94.133576 
L 182.777094 91.337664 
L 183.136489 91.337664 
L 183.152407 89.100935 
L 183.431218 89.100935 
L 183.483321 84.068295 
L 183.612891 84.068295 
L 183.612891 79.035655 
L 183.772212 79.035655 
L 183.833491 74.003015 
L 184.141657 74.003015 
L 184.141657 72.88465 
L 184.335824 72.88465 
L 184.335824 70.088739 
L 185.260996 70.088739 
L 185.260996 68.970375 
L 185.410464 68.970375 
L 185.410464 68.411192 
L 185.563253 68.411192 
L 185.563253 67.292828 
L 185.77399 67.292828 
L 185.77399 63.378552 
L 185.973176 63.378552 
L 185.973176 62.81937 
L 186.859113 62.81937 
L 186.961401 60.582641 
L 187.176763 60.582641 
L 187.176763 58.905094 
L 187.310527 58.905094 
L 187.381168 55.550001 
L 187.685327 55.550001 
L 187.685327 54.431636 
L 187.907955 54.431636 
L 187.907955 53.313272 
L 188.562914 53.313272 
L 188.562914 52.75409 
L 188.697879 52.75409 
L 188.697879 50.517361 
L 189.449414 50.517361 
L 189.449414 49.958178 
L 189.813208 49.958178 
L 189.813208 49.398996 
L 190.243346 49.398996 
L 190.243346 48.839814 
L 191.072618 48.839814 
L 191.072618 47.72145 
L 191.706448 47.72145 
L 191.706448 46.603085 
L 192.130015 46.603085 
L 192.167723 43.807174 
L 192.844771 43.807174 
L 192.844771 43.247992 
L 195.146027 43.247992 
L 195.146027 40.45208 
L 197.217417 40.45208 
L 197.217417 38.774534 
L 197.876171 38.774534 
L 197.876171 37.656169 
L 198.80966 37.656169 
L 198.80966 37.096987 
L 199.212282 37.096987 
L 199.212282 35.978622 
L 199.419377 35.978622 
L 199.419377 34.301076 
L 199.796045 34.301076 
L 199.796045 33.182711 
L 199.914456 33.182711 
L 200.002235 30.3868 
L 200.465547 30.3868 
L 200.465547 29.827618 
L 201.037031 29.827618 
L 201.037031 24.235795 
L 201.590123 24.235795 
L 201.590123 23.676613 
L 201.961638 23.676613 
L 201.961638 20.880702 
L 202.620007 20.880702 
L 202.620007 19.762337 
L 204.295655 19.762337 
L 204.295655 18.643973 
L 204.529664 18.643973 
L 204.529664 18.084791 
L 206.248214 18.084791 
L 206.248214 17.525609 
L 206.395627 17.525609 
L 206.458614 15.848062 
L 206.620496 15.848062 
L 206.67187 14.729697 
L 207.12088 14.729697 
L 207.12088 14.170515 
L 207.375434 14.170515 
L 207.375434 13.611333 
L 207.54435 13.611333 
L 207.54435 13.052151 
L 208.461261 13.052151 
L 208.461261 12.492968 
L 208.601795 12.492968 
L 208.601795 11.933786 
L 212.085785 11.933786 
L 212.133992 10.815422 
L 212.366235 10.815422 
L 212.366235 10.256239 
L 222.547813 10.256239 
L 222.547813 9.697057 
L 333.168 9.697057 
L 333.168 9.697057 
" style="fill:none;stroke:#ff00ff;stroke-linecap:square;stroke-width:1.5;"/>
   </g>
   <g id="line2d_44">
    <defs>
     <path d="M -0 8.485281 
L 5.091169 0 
L 0 -8.485281 
L -5.091169 -0 
z
" id="m346da7683c" style="stroke:#ff00ff;stroke-linejoin:miter;stroke-width:1.5;"/>
    </defs>
    <g>
     <use style="fill-opacity:0;stroke:#ff00ff;stroke-linejoin:miter;stroke-width:1.5;" x="152.633326" xlink:href="#m346da7683c" y="207.64757"/>
     <use style="fill-opacity:0;stroke:#ff00ff;stroke-linejoin:miter;stroke-width:1.5;" x="183.772212" xlink:href="#m346da7683c" y="79.035655"/>
     <use style="fill-opacity:0;stroke:#ff00ff;stroke-linejoin:miter;stroke-width:1.5;" x="222.547813" xlink:href="#m346da7683c" y="10.256239"/>
     <use style="fill-opacity:0;stroke:#ff00ff;stroke-linejoin:miter;stroke-width:1.5;" x="222.547813" xlink:href="#m346da7683c" y="9.697057"/>
     <use style="fill-opacity:0;stroke:#ff00ff;stroke-linejoin:miter;stroke-width:1.5;" x="333.168" xlink:href="#m346da7683c" y="9.697057"/>
    </g>
   </g>
   <g id="line2d_45">
    <path style="fill:none;stroke:#ff00ff;stroke-linecap:square;stroke-width:1.5;"/>
    <g/>
   </g>
   <g id="line2d_46">
    <path clip-path="url(#p4b2413bf48)" d="M 202.691626 19.762337 
" style="fill:none;stroke:#ff00ff;stroke-linecap:square;stroke-width:1.5;"/>
    <defs>
     <path d="M -12 12 
L 12 -12 
M -12 -12 
L 12 12 
" id="m3a06f5fa68" style="stroke:#ff00ff;"/>
    </defs>
    <g clip-path="url(#p4b2413bf48)">
     <use style="fill:#ff00ff;stroke:#ff00ff;" x="202.691626" xlink:href="#m3a06f5fa68" y="19.762337"/>
    </g>
   </g>
   <g id="line2d_47">
    <defs>
     <path d="M 0 1.5 
C 0.397805 1.5 0.77937 1.341951 1.06066 1.06066 
C 1.341951 0.77937 1.5 0.397805 1.5 0 
C 1.5 -0.397805 1.341951 -0.77937 1.06066 -1.06066 
C 0.77937 -1.341951 0.397805 -1.5 0 -1.5 
C -0.397805 -1.5 -0.77937 -1.341951 -1.06066 -1.06066 
C -1.341951 -0.77937 -1.5 -0.397805 -1.5 0 
C -1.5 0.397805 -1.341951 0.77937 -1.06066 1.06066 
C -0.77937 1.341951 -0.397805 1.5 0 1.5 
z
" id="m946c31477e" style="stroke:#ffa500;"/>
    </defs>
    <g>
     <use style="fill:#ffa500;stroke:#ffa500;" x="221.20082" xlink:href="#m946c31477e" y="9.697057"/>
     <use style="fill:#ffa500;stroke:#ffa500;" x="221.20082" xlink:href="#m946c31477e" y="9.697057"/>
    </g>
   </g>
   <g id="line2d_48">
    <path d="M 44.205749 294.88 
L 44.205749 284.255537 
L 56.12 284.255537 
L 56.12 275.867804 
L 63.08939 275.867804 
L 63.08939 269.157617 
L 75.003641 269.157617 
L 75.003641 268.598435 
L 81.973032 268.598435 
L 81.973032 268.039252 
L 83.784035 268.039252 
L 83.784035 266.920888 
L 85.422286 266.920888 
L 85.422286 261.888248 
L 88.293717 261.888248 
L 88.293717 260.769883 
L 89.567532 260.769883 
L 89.567532 260.210701 
L 92.904808 260.210701 
L 92.904808 259.651519 
L 94.816624 259.651519 
L 94.816624 257.973972 
L 102.084955 257.973972 
L 102.084955 257.41479 
L 103.777005 257.41479 
L 103.777005 255.737243 
L 104.819059 255.737243 
L 104.819059 255.178061 
L 108.85563 255.178061 
L 108.85563 253.500514 
L 111.448069 253.500514 
L 111.448069 252.941332 
L 112.449632 252.941332 
L 112.449632 251.822967 
L 115.957752 251.822967 
L 115.957752 251.263785 
L 116.478659 251.263785 
L 116.478659 250.145421 
L 116.73331 250.145421 
L 116.73331 248.467874 
L 117.231566 248.467874 
L 117.231566 247.34951 
L 119.310576 247.34951 
L 119.310576 246.231145 
L 119.95122 246.231145 
L 119.95122 244.553598 
L 121.16504 244.553598 
L 121.16504 243.994416 
L 121.359263 243.994416 
L 121.359263 240.08014 
L 124.685175 240.08014 
L 124.685175 239.520958 
L 128.39291 239.520958 
L 128.39291 237.843411 
L 129.022601 237.843411 
L 129.022601 237.284229 
L 129.984454 237.284229 
L 129.984454 236.165865 
L 136.278134 236.165865 
L 136.278134 235.606682 
L 136.67882 235.606682 
L 136.67882 234.488318 
L 137.603992 234.488318 
L 137.678888 227.778131 
L 138.694545 227.778131 
L 138.694545 227.218949 
L 142.920112 227.218949 
L 142.920112 226.659767 
L 144.295937 226.659767 
L 144.295937 226.100584 
L 145.522465 226.100584 
L 145.522465 225.541402 
L 147.446737 225.541402 
L 147.446737 224.98222 
L 149.138788 224.98222 
L 149.138788 224.423038 
L 153.871321 224.423038 
L 153.871321 223.863855 
L 154.102822 223.863855 
L 154.102822 222.186309 
L 154.779183 222.186309 
L 154.779183 221.067944 
L 157.005179 221.067944 
L 157.005179 220.508762 
L 158.223412 220.508762 
L 158.223412 219.390397 
L 159.861664 219.390397 
L 159.861664 218.272033 
L 160.723782 218.272033 
L 160.723782 217.712851 
L 161.840442 217.712851 
L 161.840442 217.153669 
L 163.431985 217.153669 
L 163.431985 216.594486 
L 163.730061 216.594486 
L 163.730061 216.035304 
L 163.893453 216.035304 
L 163.893453 214.357757 
L 164.055305 214.357757 
L 164.055305 212.121028 
L 164.295262 212.121028 
L 164.295262 210.443482 
L 164.453392 210.443482 
L 164.453392 208.206753 
L 164.811664 208.206753 
L 164.811664 205.970024 
L 165.222932 205.970024 
L 165.222932 204.851659 
L 166.103088 204.851659 
L 166.103088 203.733295 
L 166.302131 203.733295 
L 166.302131 203.174112 
L 166.526822 203.174112 
L 166.526822 202.61493 
L 167.699689 202.61493 
L 167.699689 202.055748 
L 168.213204 202.055748 
L 168.251106 199.819019 
L 168.46432 199.819019 
L 168.46432 197.023108 
L 169.44541 197.023108 
L 169.44541 195.904743 
L 169.609448 195.904743 
L 169.609448 194.227197 
L 169.944339 194.227197 
L 169.944339 193.668014 
L 170.239138 193.668014 
L 170.317651 192.54965 
L 170.573125 192.54965 
L 170.573125 191.990468 
L 171.11574 191.990468 
L 171.11574 189.753739 
L 171.693475 189.753739 
L 171.693475 188.635374 
L 172.071487 188.635374 
L 172.071487 186.398645 
L 172.421573 186.398645 
L 172.471009 183.602734 
L 172.774374 183.602734 
L 172.774374 182.48437 
L 174.153183 182.48437 
L 174.242475 180.806823 
L 174.295828 180.806823 
L 174.295828 180.247641 
L 174.463696 180.247641 
L 174.498828 176.333365 
L 175.000343 176.333365 
L 175.000343 174.655818 
L 175.479353 174.655818 
L 175.553781 172.419089 
L 176.430491 172.419089 
L 176.430491 169.063996 
L 176.58661 169.063996 
L 176.671875 165.708902 
L 176.841147 165.708902 
L 176.909917 164.031356 
L 177.122125 164.031356 
L 177.122125 163.472173 
L 177.457778 163.472173 
L 177.457778 161.235444 
L 177.72166 161.235444 
L 177.743468 158.998715 
L 178.286914 158.998715 
L 178.308018 154.525258 
L 178.690389 154.525258 
L 178.752157 151.170164 
L 178.834171 151.170164 
L 178.834171 150.610982 
L 178.98352 150.610982 
L 178.98352 150.0518 
L 179.205139 150.0518 
L 179.205139 148.933435 
L 179.397563 148.933435 
L 179.397563 145.578342 
L 179.50937 145.578342 
L 179.50937 145.019159 
L 179.75023 145.019159 
L 179.75023 142.78243 
L 179.962239 142.78243 
L 180.000507 141.104884 
L 180.190579 141.104884 
L 180.190579 140.545702 
L 180.552196 140.545702 
L 180.589174 138.308973 
L 180.681272 138.308973 
L 180.681272 136.631426 
L 180.96067 136.631426 
L 180.96067 134.953879 
L 181.140469 134.953879 
L 181.140469 132.71715 
L 182.164627 132.71715 
L 182.237496 128.243692 
L 182.382314 128.243692 
L 182.481862 125.447781 
L 182.52042 125.447781 
L 182.525922 123.770234 
L 182.74997 123.770234 
L 182.74997 119.855959 
L 183.06201 119.855959 
L 183.125869 116.500865 
L 183.178904 116.500865 
L 183.268689 109.790678 
L 183.399881 109.790678 
L 183.399881 109.231496 
L 183.52489 109.231496 
L 183.535266 108.113132 
L 183.72611 108.113132 
L 183.72611 107.553949 
L 184.081469 107.553949 
L 184.101555 103.080491 
L 184.454231 103.080491 
L 184.454231 99.166216 
L 184.649781 99.166216 
L 184.649781 95.811122 
L 185.498599 95.811122 
L 185.54019 94.133576 
L 185.919081 94.133576 
L 186.00016 92.456029 
L 186.404303 92.456029 
L 186.404303 90.2193 
L 186.531125 90.2193 
L 186.600697 87.423389 
L 186.717465 87.423389 
L 186.717465 82.949931 
L 186.863387 82.949931 
L 186.863387 77.917291 
L 186.986878 77.917291 
L 186.986878 77.358108 
L 187.151566 77.358108 
L 187.151566 75.121379 
L 187.310527 75.121379 
L 187.310527 74.003015 
L 187.53803 74.003015 
L 187.636368 70.088739 
L 187.689401 70.088739 
L 187.689401 69.529557 
L 188.04016 69.529557 
L 188.123765 63.937735 
L 188.340821 63.937735 
L 188.438584 58.905094 
L 188.682508 58.905094 
L 188.697879 57.78673 
L 188.820355 57.78673 
L 188.820355 55.550001 
L 188.957105 55.550001 
L 188.96467 49.958178 
L 189.541087 49.958178 
L 189.646819 46.043903 
L 190.017177 46.043903 
L 190.0314 42.129627 
L 190.316914 42.129627 
L 190.316914 37.656169 
L 190.676682 37.656169 
L 190.676682 37.096987 
L 190.819864 37.096987 
L 190.914661 33.741894 
L 191.162707 33.741894 
L 191.162707 33.182711 
L 191.809316 33.182711 
L 191.809316 32.623529 
L 192.205349 32.623529 
L 192.211612 28.150071 
L 196.010787 28.150071 
L 196.010787 27.590889 
L 199.560831 27.590889 
L 199.560831 27.031707 
L 200.162665 27.031707 
L 200.162665 25.913342 
L 200.360632 25.913342 
L 200.360632 25.35416 
L 200.554418 25.35416 
L 200.554418 24.794978 
L 201.542887 24.794978 
L 201.542887 23.676613 
L 202.551519 23.676613 
L 202.551519 18.643973 
L 205.312799 18.643973 
L 205.417671 16.966426 
L 206.067397 16.966426 
L 206.088358 15.848062 
L 206.304849 15.848062 
L 206.413451 14.729697 
L 206.521372 14.729697 
L 206.570327 13.611333 
L 207.257111 13.611333 
L 207.257111 13.052151 
L 207.792754 13.052151 
L 207.792754 12.492968 
L 209.077767 12.492968 
L 209.077767 11.933786 
L 209.627517 11.933786 
L 209.675191 10.815422 
L 214.041102 10.815422 
L 214.041102 10.256239 
L 221.20082 10.256239 
L 221.20082 9.697057 
L 333.168 9.697057 
L 333.168 9.697057 
" style="fill:none;stroke:#ffa500;stroke-linecap:square;stroke-width:1.5;"/>
   </g>
   <g id="line2d_49">
    <defs>
     <path d="M 0 -6 
L -1.347084 -1.854102 
L -5.706339 -1.854102 
L -2.179628 0.708204 
L -3.526712 4.854102 
L -0 2.291796 
L 3.526712 4.854102 
L 2.179628 0.708204 
L 5.706339 -1.854102 
L 1.347084 -1.854102 
z
" id="m99599e4920" style="stroke:#ffa500;stroke-linejoin:bevel;stroke-width:1.5;"/>
    </defs>
    <g>
     <use style="fill-opacity:0;stroke:#ffa500;stroke-linejoin:bevel;stroke-width:1.5;" x="124.685175" xlink:href="#m99599e4920" y="239.520958"/>
     <use style="fill-opacity:0;stroke:#ffa500;stroke-linejoin:bevel;stroke-width:1.5;" x="184.101555" xlink:href="#m99599e4920" y="103.080491"/>
     <use style="fill-opacity:0;stroke:#ffa500;stroke-linejoin:bevel;stroke-width:1.5;" x="221.20082" xlink:href="#m99599e4920" y="10.256239"/>
     <use style="fill-opacity:0;stroke:#ffa500;stroke-linejoin:bevel;stroke-width:1.5;" x="221.20082" xlink:href="#m99599e4920" y="9.697057"/>
     <use style="fill-opacity:0;stroke:#ffa500;stroke-linejoin:bevel;stroke-width:1.5;" x="221.20082" xlink:href="#m99599e4920" y="9.697057"/>
     <use style="fill-opacity:0;stroke:#ffa500;stroke-linejoin:bevel;stroke-width:1.5;" x="333.168" xlink:href="#m99599e4920" y="9.697057"/>
    </g>
   </g>
   <g id="line2d_50">
    <path style="fill:none;stroke:#ffa500;stroke-linecap:square;stroke-width:1.5;"/>
    <g/>
   </g>
   <g id="line2d_51">
    <path clip-path="url(#p4b2413bf48)" d="M 202.691626 18.643973 
" style="fill:none;stroke:#ffa500;stroke-linecap:square;stroke-width:1.5;"/>
    <defs>
     <path d="M -12 12 
L 12 -12 
M -12 -12 
L 12 12 
" id="me4623a24ab" style="stroke:#ffa500;"/>
    </defs>
    <g clip-path="url(#p4b2413bf48)">
     <use style="fill:#ffa500;stroke:#ffa500;" x="202.691626" xlink:href="#me4623a24ab" y="18.643973"/>
    </g>
   </g>
   <g id="line2d_52">
    <defs>
     <path d="M 0 1.5 
C 0.397805 1.5 0.77937 1.341951 1.06066 1.06066 
C 1.341951 0.77937 1.5 0.397805 1.5 0 
C 1.5 -0.397805 1.341951 -0.77937 1.06066 -1.06066 
C 0.77937 -1.341951 0.397805 -1.5 0 -1.5 
C -0.397805 -1.5 -0.77937 -1.341951 -1.06066 -1.06066 
C -1.341951 -0.77937 -1.5 -0.397805 -1.5 0 
C -1.5 0.397805 -1.341951 0.77937 -1.06066 1.06066 
C -0.77937 1.341951 -0.397805 1.5 0 1.5 
z
" id="m26130c3616" style="stroke:#6495ed;"/>
    </defs>
    <g>
     <use style="fill:#6495ed;stroke:#6495ed;" x="202.618298" xlink:href="#m26130c3616" y="9.697057"/>
     <use style="fill:#6495ed;stroke:#6495ed;" x="202.618298" xlink:href="#m26130c3616" y="9.697057"/>
    </g>
   </g>
   <g id="line2d_53">
    <path d="M 44.205749 294.88 
L 44.205749 271.394346 
L 56.12 271.394346 
L 56.12 266.920888 
L 63.08939 266.920888 
L 63.08939 261.888248 
L 68.034251 261.888248 
L 68.034251 260.769883 
L 75.003641 260.769883 
L 75.003641 260.210701 
L 79.948502 260.210701 
L 79.948502 257.41479 
L 81.973032 257.41479 
L 81.973032 256.855608 
L 83.784035 256.855608 
L 83.784035 254.618879 
L 85.422286 254.618879 
L 85.422286 254.059696 
L 86.917893 254.059696 
L 86.917893 252.941332 
L 88.293717 252.941332 
L 88.293717 250.145421 
L 89.567532 250.145421 
L 89.567532 249.027056 
L 90.753425 249.027056 
L 90.753425 248.467874 
L 92.904808 248.467874 
L 92.904808 247.908692 
L 98.832144 247.908692 
L 98.832144 247.34951 
L 100.856673 247.34951 
L 100.856673 246.231145 
L 108.85563 246.231145 
L 108.85563 245.671963 
L 112.122219 245.671963 
L 112.122219 243.435234 
L 117.475381 243.435234 
L 117.475381 242.316869 
L 120.15957 242.316869 
L 120.15957 240.639323 
L 124.52528 240.639323 
L 124.52528 240.08014 
L 129.268157 240.08014 
L 129.268157 239.520958 
L 131.865471 239.520958 
L 131.865471 238.402594 
L 137.901638 238.402594 
L 137.901638 237.284229 
L 138.33866 237.284229 
L 138.33866 236.165865 
L 138.623956 236.165865 
L 138.623956 235.606682 
L 139.586771 235.606682 
L 139.586771 234.488318 
L 140.62489 234.488318 
L 140.62489 233.369954 
L 142.015238 233.369954 
L 142.015238 232.810771 
L 142.864932 232.810771 
L 142.864932 232.251589 
L 143.621786 232.251589 
L 143.621786 230.01486 
L 143.779723 230.01486 
L 143.779723 229.455678 
L 145.284061 229.455678 
L 145.284061 228.896496 
L 147.018071 228.896496 
L 147.018071 226.659767 
L 147.319256 226.659767 
L 147.319256 225.541402 
L 148.232877 225.541402 
L 148.232877 223.863855 
L 148.55342 223.863855 
L 148.55342 223.304673 
L 148.672099 223.304673 
L 148.672099 221.627126 
L 148.868095 221.627126 
L 148.868095 219.94958 
L 150.714141 219.94958 
L 150.714141 219.390397 
L 152.253451 219.390397 
L 152.253451 218.272033 
L 153.90043 218.272033 
L 153.90043 217.712851 
L 154.998849 217.712851 
L 154.998849 217.153669 
L 156.311596 217.153669 
L 156.311596 216.594486 
L 156.661886 216.594486 
L 156.661886 216.035304 
L 157.053666 216.035304 
L 157.053666 215.476122 
L 157.198312 215.476122 
L 157.198312 214.91694 
L 158.492691 214.91694 
L 158.603658 212.121028 
L 158.888862 212.121028 
L 158.888862 211.561846 
L 159.923235 211.561846 
L 159.923235 211.002664 
L 160.106637 211.002664 
L 160.106637 209.325117 
L 160.368142 209.325117 
L 160.368142 208.206753 
L 160.782346 208.206753 
L 160.782346 207.64757 
L 161.394923 207.64757 
L 161.394923 206.529206 
L 162.292562 206.529206 
L 162.292562 205.970024 
L 163.331467 205.970024 
L 163.331467 204.851659 
L 163.448681 204.851659 
L 163.531919 203.733295 
L 163.68074 203.733295 
L 163.68074 203.174112 
L 163.877183 203.174112 
L 163.877183 202.055748 
L 163.990747 202.055748 
L 164.055305 199.259837 
L 164.85785 199.259837 
L 164.85785 198.700655 
L 165.14751 198.700655 
L 165.14751 198.141472 
L 165.901712 198.141472 
L 165.901712 196.463926 
L 167.777701 196.463926 
L 167.881169 195.345561 
L 167.894059 195.345561 
L 167.894059 194.786379 
L 168.022429 194.786379 
L 168.022429 194.227197 
L 168.870806 194.227197 
L 168.919431 192.54965 
L 169.339125 192.54965 
L 169.339125 191.431285 
L 169.978614 191.431285 
L 169.978614 190.312921 
L 170.115032 190.312921 
L 170.115032 189.753739 
L 170.484694 189.753739 
L 170.484694 189.194556 
L 170.803113 189.194556 
L 170.803113 188.635374 
L 170.954746 188.635374 
L 170.954746 187.51701 
L 171.745046 187.51701 
L 171.745046 186.398645 
L 171.939617 186.398645 
L 171.939617 185.839463 
L 172.618467 185.839463 
L 172.618467 184.161916 
L 173.072478 184.161916 
L 173.101054 182.48437 
L 173.458967 182.48437 
L 173.458967 181.925187 
L 173.690436 181.925187 
L 173.718004 178.570094 
L 174.117336 178.570094 
L 174.153183 176.892547 
L 174.829055 176.892547 
L 174.829055 176.333365 
L 175.051398 176.333365 
L 175.051398 175.774183 
L 175.421241 175.774183 
L 175.421241 175.215 
L 175.693493 175.215 
L 175.693493 172.978271 
L 176.555499 172.978271 
L 176.555499 172.419089 
L 176.725915 172.419089 
L 176.725915 171.859907 
L 177.122125 171.859907 
L 177.122125 171.300725 
L 177.301955 171.300725 
L 177.301955 170.741543 
L 177.428206 170.741543 
L 177.524129 169.623178 
L 178.265785 169.623178 
L 178.293952 167.945631 
L 178.875031 167.945631 
L 178.929361 165.708902 
L 179.351313 165.708902 
L 179.351313 164.590538 
L 179.50937 164.590538 
L 179.50937 161.794627 
L 179.665987 161.794627 
L 179.665987 161.235444 
L 180.089469 161.235444 
L 180.089469 158.439533 
L 180.434571 158.439533 
L 180.515138 156.202804 
L 180.742398 156.202804 
L 180.742398 155.08444 
L 181.194044 155.08444 
L 181.259298 148.933435 
L 181.529528 148.933435 
L 181.529528 148.374253 
L 181.881447 148.374253 
L 181.915676 146.696706 
L 182.125262 146.696706 
L 182.125262 146.137524 
L 182.531421 146.137524 
L 182.531421 144.459977 
L 182.668339 144.459977 
L 182.755398 141.664066 
L 182.981851 141.664066 
L 182.981851 140.545702 
L 183.828393 140.545702 
L 183.879307 138.308973 
L 184.041226 138.308973 
L 184.106573 137.190608 
L 184.18666 137.190608 
L 184.18666 136.631426 
L 184.473886 136.631426 
L 184.522927 133.276332 
L 184.693475 133.276332 
L 184.693475 132.71715 
L 185.110218 132.71715 
L 185.110218 132.157968 
L 185.600089 132.157968 
L 185.600089 131.598786 
L 185.783094 131.598786 
L 185.787644 130.480421 
L 185.941641 130.480421 
L 185.941641 129.921239 
L 186.399913 129.921239 
L 186.465644 128.802874 
L 186.618046 128.802874 
L 186.721774 124.329417 
L 186.86766 124.329417 
L 186.940141 120.415141 
L 187.53803 120.415141 
L 187.620018 119.296776 
L 187.717889 119.296776 
L 187.717889 118.737594 
L 187.87978 118.737594 
L 187.87978 118.178412 
L 188.419075 118.178412 
L 188.516395 106.994767 
L 188.609307 106.994767 
L 188.609307 105.876403 
L 188.850838 105.876403 
L 188.850838 105.31722 
L 189.445737 105.31722 
L 189.449414 101.402945 
L 189.60679 101.402945 
L 189.639548 100.28458 
L 190.779076 100.28458 
L 190.779076 99.166216 
L 191.146059 99.166216 
L 191.219189 95.25194 
L 191.46291 95.25194 
L 191.505371 90.778482 
L 191.696772 90.778482 
L 191.696772 90.2193 
L 191.828536 90.2193 
L 191.828536 87.982571 
L 192.233514 87.982571 
L 192.233514 86.864206 
L 192.451016 86.864206 
L 192.45719 84.068295 
L 192.604706 84.068295 
L 192.687131 82.949931 
L 192.905018 82.949931 
L 192.986019 76.798926 
L 193.238557 76.798926 
L 193.315069 73.443833 
L 193.767122 73.443833 
L 193.767122 72.88465 
L 193.991591 72.88465 
L 193.991591 72.325468 
L 194.174107 72.325468 
L 194.174107 71.766286 
L 194.329812 71.766286 
L 194.420911 69.529557 
L 194.60712 69.529557 
L 194.618011 67.292828 
L 194.812877 67.292828 
L 194.812877 66.174463 
L 194.992248 66.174463 
L 194.992248 65.615281 
L 195.148666 65.615281 
L 195.193473 64.496917 
L 195.301058 64.496917 
L 195.301058 63.937735 
L 195.712023 63.937735 
L 195.712023 63.378552 
L 196.030855 63.378552 
L 196.030855 61.141823 
L 196.397957 61.141823 
L 196.397957 60.582641 
L 196.668228 60.582641 
L 196.735738 59.464277 
L 196.850857 59.464277 
L 196.943827 57.227548 
L 196.981823 57.227548 
L 196.981823 56.668365 
L 197.140027 56.668365 
L 197.210396 53.872454 
L 197.352596 53.872454 
L 197.352596 53.313272 
L 197.465976 53.313272 
L 197.465976 52.75409 
L 197.585486 52.75409 
L 197.585486 52.194907 
L 197.706445 52.194907 
L 197.706445 51.635725 
L 197.909916 51.635725 
L 197.932376 49.398996 
L 198.048698 49.398996 
L 198.144295 47.162267 
L 198.395196 47.162267 
L 198.499753 44.925538 
L 198.532297 44.925538 
L 198.532297 43.247992 
L 198.666162 43.247992 
L 198.704832 41.011263 
L 198.779775 41.011263 
L 198.826715 38.774534 
L 198.905372 38.774534 
L 198.992114 37.656169 
L 199.030058 37.656169 
L 199.07632 35.978622 
L 199.141298 35.978622 
L 199.172651 33.182711 
L 199.289198 33.182711 
L 199.386409 30.945982 
L 199.425551 30.945982 
L 199.530179 28.709253 
L 199.695054 28.709253 
L 199.800072 24.235795 
L 199.95042 24.235795 
L 200.05191 21.439884 
L 200.109354 21.439884 
L 200.200081 19.203155 
L 200.229562 19.203155 
L 200.229562 18.643973 
L 200.409283 18.643973 
L 200.409283 18.084791 
L 200.61213 18.084791 
L 200.617891 16.966426 
L 200.772701 16.966426 
L 200.772701 16.407244 
L 200.958158 16.407244 
L 201.068853 15.28888 
L 201.293665 15.28888 
L 201.293665 13.052151 
L 202.204927 13.052151 
L 202.204927 11.374604 
L 202.618298 11.374604 
L 202.618298 9.697057 
L 333.168 9.697057 
L 333.168 9.697057 
" style="fill:none;stroke:#6495ed;stroke-linecap:square;stroke-width:1.5;"/>
   </g>
   <g id="line2d_54">
    <defs>
     <path d="M -0 6 
L 6 -6 
L -6 -6 
z
" id="m19296b56c2" style="stroke:#6495ed;stroke-linejoin:miter;stroke-width:1.5;"/>
    </defs>
    <g>
     <use style="fill-opacity:0;stroke:#6495ed;stroke-linejoin:miter;stroke-width:1.5;" x="148.868095" xlink:href="#m19296b56c2" y="219.94958"/>
     <use style="fill-opacity:0;stroke:#6495ed;stroke-linejoin:miter;stroke-width:1.5;" x="192.45719" xlink:href="#m19296b56c2" y="86.305024"/>
     <use style="fill-opacity:0;stroke:#6495ed;stroke-linejoin:miter;stroke-width:1.5;" x="202.618298" xlink:href="#m19296b56c2" y="11.374604"/>
     <use style="fill-opacity:0;stroke:#6495ed;stroke-linejoin:miter;stroke-width:1.5;" x="202.618298" xlink:href="#m19296b56c2" y="9.697057"/>
     <use style="fill-opacity:0;stroke:#6495ed;stroke-linejoin:miter;stroke-width:1.5;" x="202.618298" xlink:href="#m19296b56c2" y="9.697057"/>
     <use style="fill-opacity:0;stroke:#6495ed;stroke-linejoin:miter;stroke-width:1.5;" x="333.168" xlink:href="#m19296b56c2" y="9.697057"/>
    </g>
   </g>
   <g id="line2d_55">
    <path style="fill:none;stroke:#6495ed;stroke-linecap:square;stroke-width:1.5;"/>
    <g/>
   </g>
   <g id="line2d_56">
    <defs>
     <path d="M 0 1.5 
C 0.397805 1.5 0.77937 1.341951 1.06066 1.06066 
C 1.341951 0.77937 1.5 0.397805 1.5 0 
C 1.5 -0.397805 1.341951 -0.77937 1.06066 -1.06066 
C 0.77937 -1.341951 0.397805 -1.5 0 -1.5 
C -0.397805 -1.5 -0.77937 -1.341951 -1.06066 -1.06066 
C -1.341951 -0.77937 -1.5 -0.397805 -1.5 0 
C -1.5 0.397805 -1.341951 0.77937 -1.06066 1.06066 
C -0.77937 1.341951 -0.397805 1.5 0 1.5 
z
" id="m57e3fc695c" style="stroke:#ff0000;"/>
    </defs>
    <g>
     <use style="fill:#ff0000;stroke:#ff0000;" x="195.19084" xlink:href="#m57e3fc695c" y="9.697057"/>
     <use style="fill:#ff0000;stroke:#ff0000;" x="195.19084" xlink:href="#m57e3fc695c" y="9.697057"/>
    </g>
   </g>
   <g id="line2d_57">
    <path d="M 44.205749 294.88 
L 44.205749 284.255537 
L 68.034251 284.255537 
L 68.034251 283.137173 
L 71.869783 283.137173 
L 71.869783 282.018808 
L 75.003641 282.018808 
L 75.003641 280.341262 
L 77.653281 280.341262 
L 77.653281 279.222897 
L 79.948502 279.222897 
L 79.948502 277.545351 
L 81.973032 277.545351 
L 81.973032 275.308622 
L 83.784035 275.308622 
L 83.784035 274.749439 
L 86.917893 274.749439 
L 86.917893 273.631075 
L 91.862754 273.631075 
L 91.862754 271.953528 
L 92.904808 271.953528 
L 92.904808 269.716799 
L 98.100602 269.716799 
L 98.100602 266.920888 
L 98.832144 266.920888 
L 98.832144 265.802523 
L 105.801534 265.802523 
L 105.801534 265.243341 
L 106.730875 265.243341 
L 106.730875 264.684159 
L 108.85563 264.684159 
L 108.85563 264.124977 
L 114.293036 264.124977 
L 114.293036 263.006612 
L 122.660646 263.006612 
L 122.660646 262.44743 
L 126.780294 262.44743 
L 126.780294 261.888248 
L 129.389632 261.888248 
L 129.389632 260.210701 
L 130.784069 260.210701 
L 130.784069 259.651519 
L 131.760342 259.651519 
L 131.760342 259.092337 
L 132.882847 259.092337 
L 132.882847 257.41479 
L 134.304205 257.41479 
L 134.304205 256.296425 
L 136.033161 256.296425 
L 136.033161 254.618879 
L 142.015238 254.618879 
L 142.015238 254.059696 
L 142.360172 254.059696 
L 142.360172 252.941332 
L 142.754037 252.941332 
L 142.754037 251.822967 
L 147.404349 251.822967 
L 147.489022 250.704603 
L 149.061881 250.704603 
L 149.061881 249.586238 
L 150.108469 249.586238 
L 150.108469 249.027056 
L 150.679098 249.027056 
L 150.679098 247.908692 
L 151.060698 247.908692 
L 151.060698 247.34951 
L 151.832219 247.34951 
L 151.832219 246.790327 
L 153.035598 246.790327 
L 153.096659 245.671963 
L 153.987461 245.671963 
L 153.987461 245.112781 
L 154.217413 245.112781 
L 154.217413 243.994416 
L 156.980885 243.994416 
L 156.980885 240.639323 
L 158.823464 240.639323 
L 158.823464 239.520958 
L 159.882212 239.520958 
L 159.882212 238.961776 
L 160.106637 238.961776 
L 160.106637 237.843411 
L 160.368142 237.843411 
L 160.368142 234.488318 
L 161.95004 234.488318 
L 161.95004 232.810771 
L 162.61088 232.810771 
L 162.61088 228.896496 
L 163.779242 228.896496 
L 163.779242 226.100584 
L 164.247538 226.100584 
L 164.247538 224.98222 
L 164.484845 224.98222 
L 164.484845 224.423038 
L 164.641248 224.423038 
L 164.74989 220.508762 
L 165.14751 220.508762 
L 165.14751 219.390397 
L 166.217109 219.390397 
L 166.217109 217.712851 
L 166.651932 217.712851 
L 166.651932 217.153669 
L 167.423824 217.153669 
L 167.423824 216.035304 
L 168.41439 216.035304 
L 168.41439 213.239393 
L 168.711821 213.239393 
L 168.724103 209.884299 
L 169.632754 209.884299 
L 169.632754 208.765935 
L 171.296395 208.765935 
L 171.296395 207.64757 
L 171.464706 207.64757 
L 171.464706 207.088388 
L 171.847727 207.088388 
L 171.847727 205.970024 
L 172.03102 205.970024 
L 172.03102 205.410841 
L 172.212378 205.410841 
L 172.252422 202.61493 
L 172.569455 202.61493 
L 172.569455 200.378201 
L 172.793763 200.378201 
L 172.793763 199.819019 
L 173.195967 199.819019 
L 173.195967 198.141472 
L 173.440315 198.141472 
L 173.440315 196.463926 
L 173.745528 196.463926 
L 173.745528 194.786379 
L 174.304704 194.786379 
L 174.410862 190.312921 
L 174.62994 190.312921 
L 174.699459 186.957828 
L 174.872037 186.957828 
L 174.966222 184.721099 
L 175.0429 184.721099 
L 175.0429 183.043552 
L 175.354586 183.043552 
L 175.362932 177.451729 
L 175.594991 177.451729 
L 175.594991 176.333365 
L 175.921161 176.333365 
L 176.009783 172.978271 
L 176.555499 172.978271 
L 176.594379 171.300725 
L 176.848802 171.300725 
L 176.871745 169.623178 
L 177.24222 169.623178 
L 177.24222 169.063996 
L 177.368909 169.063996 
L 177.368909 164.590538 
L 177.808728 164.590538 
L 177.808728 164.031356 
L 177.924137 164.031356 
L 177.924137 163.472173 
L 178.152655 163.472173 
L 178.152655 161.235444 
L 178.607685 161.235444 
L 178.669751 157.880351 
L 179.077889 157.880351 
L 179.104757 155.643622 
L 179.377757 155.643622 
L 179.377757 155.08444 
L 179.600904 155.08444 
L 179.600904 153.966075 
L 179.923886 153.966075 
L 179.923886 153.406893 
L 180.215764 153.406893 
L 180.215764 151.170164 
L 180.353624 151.170164 
L 180.428358 147.255888 
L 180.77897 147.255888 
L 180.857942 143.341613 
L 181.199986 143.341613 
L 181.199986 142.78243 
L 181.389069 142.78243 
L 181.389069 141.664066 
L 181.616736 141.664066 
L 181.616736 139.986519 
L 182.029283 139.986519 
L 182.097088 137.74979 
L 182.170244 137.74979 
L 182.170244 136.631426 
L 182.387859 136.631426 
L 182.492888 132.71715 
L 182.553401 132.71715 
L 182.60823 130.480421 
L 182.798763 130.480421 
L 182.798763 127.68451 
L 183.056678 127.68451 
L 183.072669 123.770234 
L 183.363248 123.770234 
L 183.389422 122.65187 
L 183.493723 122.65187 
L 183.493723 122.092688 
L 183.985738 122.092688 
L 184.086493 119.855959 
L 184.181665 119.855959 
L 184.231545 117.060047 
L 184.345723 117.060047 
L 184.355616 113.704954 
L 184.483706 113.704954 
L 184.562059 111.468225 
L 184.678922 111.468225 
L 184.678922 109.790678 
L 184.962879 109.790678 
L 185.072316 105.31722 
L 185.377879 105.31722 
L 185.456907 99.166216 
L 185.498599 99.166216 
L 185.498599 98.047851 
L 185.623071 98.047851 
L 185.636846 94.692758 
L 185.787644 94.692758 
L 185.787644 93.574393 
L 186.080857 93.574393 
L 186.080857 93.015211 
L 186.236694 93.015211 
L 186.285381 90.778482 
L 186.364754 90.778482 
L 186.435001 84.627477 
L 186.57464 84.627477 
L 186.57464 84.068295 
L 186.708843 84.068295 
L 186.803451 81.831566 
L 186.910333 81.831566 
L 186.935886 77.917291 
L 187.088411 77.917291 
L 187.189348 75.680562 
L 187.218676 75.680562 
L 187.298031 74.562197 
L 187.595462 74.562197 
L 187.664945 66.733646 
L 187.778777 66.733646 
L 187.87978 62.81937 
L 188.222766 62.81937 
L 188.321201 58.905094 
L 188.446381 58.905094 
L 188.446381 58.345912 
L 188.659426 58.345912 
L 188.766879 55.550001 
L 188.793637 55.550001 
L 188.862255 52.194907 
L 189.077754 52.194907 
L 189.130272 49.958178 
L 189.227383 49.958178 
L 189.264588 47.72145 
L 189.563016 47.72145 
L 189.563016 46.043903 
L 189.748291 46.043903 
L 189.813208 43.247992 
L 189.899385 43.247992 
L 189.899385 42.129627 
L 190.105879 42.129627 
L 190.148294 41.011263 
L 190.260891 41.011263 
L 190.355325 37.656169 
L 190.400608 37.656169 
L 190.473508 34.301076 
L 190.857168 34.301076 
L 190.914661 30.3868 
L 190.975327 30.3868 
L 190.975327 29.268436 
L 191.092679 29.268436 
L 191.092679 28.709253 
L 191.209235 28.709253 
L 191.305215 25.913342 
L 191.73866 25.913342 
L 191.73866 25.35416 
L 192.013224 25.35416 
L 192.085917 24.235795 
L 192.158304 24.235795 
L 192.249141 20.880702 
L 192.475699 20.880702 
L 192.571012 16.407244 
L 192.811544 16.407244 
L 192.811544 15.848062 
L 193.179469 15.848062 
L 193.179469 14.729697 
L 193.655219 14.729697 
L 193.655219 11.933786 
L 194.769764 11.933786 
L 194.769764 10.815422 
L 195.19084 10.815422 
L 195.19084 9.697057 
L 333.168 9.697057 
L 333.168 9.697057 
" style="fill:none;stroke:#ff0000;stroke-linecap:square;stroke-width:1.5;"/>
   </g>
   <g id="line2d_58">
    <defs>
     <path d="M 0 -6 
L -5.196152 -3 
L -5.196152 3 
L -0 6 
L 5.196152 3 
L 5.196152 -3 
z
" id="m1296b3fb2c" style="stroke:#ff0000;stroke-linejoin:miter;stroke-width:1.5;"/>
    </defs>
    <g>
     <use style="fill-opacity:0;stroke:#ff0000;stroke-linejoin:miter;stroke-width:1.5;" x="98.832144" xlink:href="#m1296b3fb2c" y="266.920888"/>
     <use style="fill-opacity:0;stroke:#ff0000;stroke-linejoin:miter;stroke-width:1.5;" x="154.217413" xlink:href="#m1296b3fb2c" y="245.112781"/>
     <use style="fill-opacity:0;stroke:#ff0000;stroke-linejoin:miter;stroke-width:1.5;" x="188.321201" xlink:href="#m1296b3fb2c" y="58.905094"/>
     <use style="fill-opacity:0;stroke:#ff0000;stroke-linejoin:miter;stroke-width:1.5;" x="195.19084" xlink:href="#m1296b3fb2c" y="10.815422"/>
     <use style="fill-opacity:0;stroke:#ff0000;stroke-linejoin:miter;stroke-width:1.5;" x="195.19084" xlink:href="#m1296b3fb2c" y="9.697057"/>
     <use style="fill-opacity:0;stroke:#ff0000;stroke-linejoin:miter;stroke-width:1.5;" x="333.168" xlink:href="#m1296b3fb2c" y="9.697057"/>
    </g>
   </g>
   <g id="line2d_59">
    <path style="fill:none;stroke:#ff0000;stroke-linecap:square;stroke-width:1.5;"/>
    <g/>
   </g>
   <g id="line2d_60">
    <path d="M 333.168 9.697057 
L 363.64328 289.176341 
" style="fill:none;stroke:#000080;stroke-linecap:square;stroke-width:1.5;"/>
    <g>
     <use style="fill-opacity:0;stroke:#000080;stroke-width:1.5;" x="333.168" xlink:href="#m1771b20e4e" y="9.697057"/>
     <use style="fill-opacity:0;stroke:#000080;stroke-width:1.5;" x="363.64328" xlink:href="#m1771b20e4e" y="289.176341"/>
    </g>
   </g>
   <g id="line2d_61">
    <path d="M 333.168 9.697057 
L 363.64328 220.732435 
" style="fill:none;stroke:#ff00ff;stroke-linecap:square;stroke-width:1.5;"/>
    <g>
     <use style="fill-opacity:0;stroke:#ff00ff;stroke-linejoin:miter;stroke-width:1.5;" x="333.168" xlink:href="#m346da7683c" y="9.697057"/>
     <use style="fill-opacity:0;stroke:#ff00ff;stroke-linejoin:miter;stroke-width:1.5;" x="363.64328" xlink:href="#m346da7683c" y="220.732435"/>
    </g>
   </g>
   <g id="line2d_62">
    <path d="M 333.168 9.697057 
L 363.64328 152.288529 
" style="fill:none;stroke:#ffa500;stroke-linecap:square;stroke-width:1.5;"/>
    <g>
     <use style="fill-opacity:0;stroke:#ffa500;stroke-linejoin:bevel;stroke-width:1.5;" x="333.168" xlink:href="#m99599e4920" y="9.697057"/>
     <use style="fill-opacity:0;stroke:#ffa500;stroke-linejoin:bevel;stroke-width:1.5;" x="363.64328" xlink:href="#m99599e4920" y="152.288529"/>
    </g>
   </g>
   <g id="line2d_63">
    <path d="M 333.168 9.697057 
L 363.64328 83.844622 
" style="fill:none;stroke:#6495ed;stroke-linecap:square;stroke-width:1.5;"/>
    <g>
     <use style="fill-opacity:0;stroke:#6495ed;stroke-linejoin:miter;stroke-width:1.5;" x="333.168" xlink:href="#m19296b56c2" y="9.697057"/>
     <use style="fill-opacity:0;stroke:#6495ed;stroke-linejoin:miter;stroke-width:1.5;" x="363.64328" xlink:href="#m19296b56c2" y="83.844622"/>
    </g>
   </g>
   <g id="line2d_64">
    <path d="M 333.168 9.697057 
L 363.64328 15.400716 
" style="fill:none;stroke:#ff0000;stroke-linecap:square;stroke-width:1.5;"/>
    <g>
     <use style="fill-opacity:0;stroke:#ff0000;stroke-linejoin:miter;stroke-width:1.5;" x="333.168" xlink:href="#m1296b3fb2c" y="9.697057"/>
     <use style="fill-opacity:0;stroke:#ff0000;stroke-linejoin:miter;stroke-width:1.5;" x="363.64328" xlink:href="#m1296b3fb2c" y="15.400716"/>
    </g>
   </g>
   <g id="line2d_65">
    <path d="M 333.168 294.88 
L 333.168 9.697057 
" style="fill:none;stroke:#000000;stroke-linecap:square;stroke-width:1.5;"/>
   </g>
   <g id="patch_3">
    <path d="M 56.12 294.88 
L 56.12 6.845228 
" style="fill:none;stroke:#000000;stroke-linecap:square;stroke-linejoin:miter;stroke-width:0.8;"/>
   </g>
   <g id="patch_4">
    <path d="M 333.168 294.88 
L 333.168 6.845228 
" style="fill:none;stroke:#000000;stroke-linecap:square;stroke-linejoin:miter;stroke-width:0.8;"/>
   </g>
   <g id="patch_5">
    <path d="M 56.12 294.88 
L 333.168 294.88 
" style="fill:none;stroke:#000000;stroke-linecap:square;stroke-linejoin:miter;stroke-width:0.8;"/>
   </g>
   <g id="patch_6">
    <path d="M 56.12 6.845228 
L 333.168 6.845228 
" style="fill:none;stroke:#000000;stroke-linecap:square;stroke-linejoin:miter;stroke-width:0.8;"/>
   </g>
   <g id="text_13">
    <!-- f18 -->
    <g transform="translate(369.18424 293.867279)scale(0.17 -0.17)">
     <use xlink:href="#DejaVuSans-66"/>
     <use x="35.205078" xlink:href="#DejaVuSans-31"/>
     <use x="98.828125" xlink:href="#DejaVuSans-38"/>
    </g>
   </g>
   <g id="text_14">
    <!-- f19 -->
    <defs>
     <path d="M 10.984375 1.515625 
L 10.984375 10.5 
Q 14.703125 8.734375 18.5 7.8125 
Q 22.3125 6.890625 25.984375 6.890625 
Q 35.75 6.890625 40.890625 13.453125 
Q 46.046875 20.015625 46.78125 33.40625 
Q 43.953125 29.203125 39.59375 26.953125 
Q 35.25 24.703125 29.984375 24.703125 
Q 19.046875 24.703125 12.671875 31.3125 
Q 6.296875 37.9375 6.296875 49.421875 
Q 6.296875 60.640625 12.9375 67.421875 
Q 19.578125 74.21875 30.609375 74.21875 
Q 43.265625 74.21875 49.921875 64.515625 
Q 56.59375 54.828125 56.59375 36.375 
Q 56.59375 19.140625 48.40625 8.859375 
Q 40.234375 -1.421875 26.421875 -1.421875 
Q 22.703125 -1.421875 18.890625 -0.6875 
Q 15.09375 0.046875 10.984375 1.515625 
z
M 30.609375 32.421875 
Q 37.25 32.421875 41.125 36.953125 
Q 45.015625 41.5 45.015625 49.421875 
Q 45.015625 57.28125 41.125 61.84375 
Q 37.25 66.40625 30.609375 66.40625 
Q 23.96875 66.40625 20.09375 61.84375 
Q 16.21875 57.28125 16.21875 49.421875 
Q 16.21875 41.5 20.09375 36.953125 
Q 23.96875 32.421875 30.609375 32.421875 
z
" id="DejaVuSans-39"/>
    </defs>
    <g transform="translate(369.18424 225.423372)scale(0.17 -0.17)">
     <use xlink:href="#DejaVuSans-66"/>
     <use x="35.205078" xlink:href="#DejaVuSans-31"/>
     <use x="98.828125" xlink:href="#DejaVuSans-39"/>
    </g>
   </g>
   <g id="text_15">
    <!-- f16 -->
    <g transform="translate(369.18424 156.979466)scale(0.17 -0.17)">
     <use xlink:href="#DejaVuSans-66"/>
     <use x="35.205078" xlink:href="#DejaVuSans-31"/>
     <use x="98.828125" xlink:href="#DejaVuSans-36"/>
    </g>
   </g>
   <g id="text_16">
    <!-- f17 -->
    <defs>
     <path d="M 8.203125 72.90625 
L 55.078125 72.90625 
L 55.078125 68.703125 
L 28.609375 0 
L 18.3125 0 
L 43.21875 64.59375 
L 8.203125 64.59375 
z
" id="DejaVuSans-37"/>
    </defs>
    <g transform="translate(369.18424 88.53556)scale(0.17 -0.17)">
     <use xlink:href="#DejaVuSans-66"/>
     <use x="35.205078" xlink:href="#DejaVuSans-31"/>
     <use x="98.828125" xlink:href="#DejaVuSans-37"/>
    </g>
   </g>
   <g id="text_17">
    <!-- f15 -->
    <defs>
     <path d="M 10.796875 72.90625 
L 49.515625 72.90625 
L 49.515625 64.59375 
L 19.828125 64.59375 
L 19.828125 46.734375 
Q 21.96875 47.46875 24.109375 47.828125 
Q 26.265625 48.1875 28.421875 48.1875 
Q 40.625 48.1875 47.75 41.5 
Q 54.890625 34.8125 54.890625 23.390625 
Q 54.890625 11.625 47.5625 5.09375 
Q 40.234375 -1.421875 26.90625 -1.421875 
Q 22.3125 -1.421875 17.546875 -0.640625 
Q 12.796875 0.140625 7.71875 1.703125 
L 7.71875 11.625 
Q 12.109375 9.234375 16.796875 8.0625 
Q 21.484375 6.890625 26.703125 6.890625 
Q 35.15625 6.890625 40.078125 11.328125 
Q 45.015625 15.765625 45.015625 23.390625 
Q 45.015625 31 40.078125 35.4375 
Q 35.15625 39.890625 26.703125 39.890625 
Q 22.75 39.890625 18.8125 39.015625 
Q 14.890625 38.140625 10.796875 36.28125 
z
" id="DejaVuSans-35"/>
    </defs>
    <g transform="translate(369.18424 20.091654)scale(0.17 -0.17)">
     <use xlink:href="#DejaVuSans-66"/>
     <use x="35.205078" xlink:href="#DejaVuSans-31"/>
     <use x="98.828125" xlink:href="#DejaVuSans-35"/>
    </g>
   </g>
   <g id="text_18">
    <!-- bbob -->
    <defs>
     <path d="M 48.6875 27.296875 
Q 48.6875 37.203125 44.609375 42.84375 
Q 40.53125 48.484375 33.40625 48.484375 
Q 26.265625 48.484375 22.1875 42.84375 
Q 18.109375 37.203125 18.109375 27.296875 
Q 18.109375 17.390625 22.1875 11.75 
Q 26.265625 6.109375 33.40625 6.109375 
Q 40.53125 6.109375 44.609375 11.75 
Q 48.6875 17.390625 48.6875 27.296875 
z
M 18.109375 46.390625 
Q 20.953125 51.265625 25.265625 53.625 
Q 29.59375 56 35.59375 56 
Q 45.5625 56 51.78125 48.09375 
Q 58.015625 40.1875 58.015625 27.296875 
Q 58.015625 14.40625 51.78125 6.484375 
Q 45.5625 -1.421875 35.59375 -1.421875 
Q 29.59375 -1.421875 25.265625 0.953125 
Q 20.953125 3.328125 18.109375 8.203125 
L 18.109375 0 
L 9.078125 0 
L 9.078125 75.984375 
L 18.109375 75.984375 
z
" id="DejaVuSans-62"/>
    </defs>
    <g transform="translate(58.89048 17.475982)scale(0.102 -0.102)">
     <use xlink:href="#DejaVuSans-62"/>
     <use x="63.476562" xlink:href="#DejaVuSans-62"/>
     <use x="126.953125" xlink:href="#DejaVuSans-6f"/>
     <use x="188.134766" xlink:href="#DejaVuSans-62"/>
    </g>
    <!-- Multi-modal functions, 2-D -->
    <defs>
     <path d="M 9.8125 72.90625 
L 24.515625 72.90625 
L 43.109375 23.296875 
L 61.8125 72.90625 
L 76.515625 72.90625 
L 76.515625 0 
L 66.890625 0 
L 66.890625 64.015625 
L 48.09375 14.015625 
L 38.1875 14.015625 
L 19.390625 64.015625 
L 19.390625 0 
L 9.8125 0 
z
" id="DejaVuSans-4d"/>
     <path d="M 19.671875 64.796875 
L 19.671875 8.109375 
L 31.59375 8.109375 
Q 46.6875 8.109375 53.6875 14.9375 
Q 60.6875 21.78125 60.6875 36.53125 
Q 60.6875 51.171875 53.6875 57.984375 
Q 46.6875 64.796875 31.59375 64.796875 
z
M 9.8125 72.90625 
L 30.078125 72.90625 
Q 51.265625 72.90625 61.171875 64.09375 
Q 71.09375 55.28125 71.09375 36.53125 
Q 71.09375 17.671875 61.125 8.828125 
Q 51.171875 0 30.078125 0 
L 9.8125 0 
z
" id="DejaVuSans-44"/>
    </defs>
    <g transform="translate(58.89048 28.89775)scale(0.102 -0.102)">
     <use xlink:href="#DejaVuSans-4d"/>
     <use x="86.279297" xlink:href="#DejaVuSans-75"/>
     <use x="149.658203" xlink:href="#DejaVuSans-6c"/>
     <use x="177.441406" xlink:href="#DejaVuSans-74"/>
     <use x="216.650391" xlink:href="#DejaVuSans-69"/>
     <use x="244.433594" xlink:href="#DejaVuSans-2d"/>
     <use x="280.517578" xlink:href="#DejaVuSans-6d"/>
     <use x="377.929688" xlink:href="#DejaVuSans-6f"/>
     <use x="439.111328" xlink:href="#DejaVuSans-64"/>
     <use x="502.587891" xlink:href="#DejaVuSans-61"/>
     <use x="563.867188" xlink:href="#DejaVuSans-6c"/>
     <use x="591.650391" xlink:href="#DejaVuSans-20"/>
     <use x="623.4375" xlink:href="#DejaVuSans-66"/>
     <use x="658.642578" xlink:href="#DejaVuSans-75"/>
     <use x="722.021484" xlink:href="#DejaVuSans-6e"/>
     <use x="785.400391" xlink:href="#DejaVuSans-63"/>
     <use x="840.380859" xlink:href="#DejaVuSans-74"/>
     <use x="879.589844" xlink:href="#DejaVuSans-69"/>
     <use x="907.373047" xlink:href="#DejaVuSans-6f"/>
     <use x="968.554688" xlink:href="#DejaVuSans-6e"/>
     <use x="1031.933594" xlink:href="#DejaVuSans-73"/>
     <use x="1084.033203" xlink:href="#DejaVuSans-2c"/>
     <use x="1115.820312" xlink:href="#DejaVuSans-20"/>
     <use x="1147.607422" xlink:href="#DejaVuSans-32"/>
     <use x="1211.230469" xlink:href="#DejaVuSans-2d"/>
     <use x="1247.314453" xlink:href="#DejaVuSans-44"/>
    </g>
    <!-- 51 targets: 100..1e-08 -->
    <defs>
     <path d="M 11.71875 12.40625 
L 22.015625 12.40625 
L 22.015625 0 
L 11.71875 0 
z
M 11.71875 51.703125 
L 22.015625 51.703125 
L 22.015625 39.3125 
L 11.71875 39.3125 
z
" id="DejaVuSans-3a"/>
    </defs>
    <g transform="translate(58.89048 40.319519)scale(0.102 -0.102)">
     <use xlink:href="#DejaVuSans-35"/>
     <use x="63.623047" xlink:href="#DejaVuSans-31"/>
     <use x="127.246094" xlink:href="#DejaVuSans-20"/>
     <use x="159.033203" xlink:href="#DejaVuSans-74"/>
     <use x="198.242188" xlink:href="#DejaVuSans-61"/>
     <use x="259.521484" xlink:href="#DejaVuSans-72"/>
     <use x="300.619141" xlink:href="#DejaVuSans-67"/>
     <use x="364.095703" xlink:href="#DejaVuSans-65"/>
     <use x="425.619141" xlink:href="#DejaVuSans-74"/>
     <use x="464.828125" xlink:href="#DejaVuSans-73"/>
     <use x="516.927734" xlink:href="#DejaVuSans-3a"/>
     <use x="550.619141" xlink:href="#DejaVuSans-20"/>
     <use x="582.40625" xlink:href="#DejaVuSans-31"/>
     <use x="646.029297" xlink:href="#DejaVuSans-30"/>
     <use x="709.652344" xlink:href="#DejaVuSans-30"/>
     <use x="773.275391" xlink:href="#DejaVuSans-2e"/>
     <use x="805.0625" xlink:href="#DejaVuSans-2e"/>
     <use x="836.849609" xlink:href="#DejaVuSans-31"/>
     <use x="900.472656" xlink:href="#DejaVuSans-65"/>
     <use x="961.996094" xlink:href="#DejaVuSans-2d"/>
     <use x="998.080078" xlink:href="#DejaVuSans-30"/>
     <use x="1061.703125" xlink:href="#DejaVuSans-38"/>
    </g>
    <!-- 15 instances -->
    <g transform="translate(58.89048 51.741288)scale(0.102 -0.102)">
     <use xlink:href="#DejaVuSans-31"/>
     <use x="63.623047" xlink:href="#DejaVuSans-35"/>
     <use x="127.246094" xlink:href="#DejaVuSans-20"/>
     <use x="159.033203" xlink:href="#DejaVuSans-69"/>
     <use x="186.816406" xlink:href="#DejaVuSans-6e"/>
     <use x="250.195312" xlink:href="#DejaVuSans-73"/>
     <use x="302.294922" xlink:href="#DejaVuSans-74"/>
     <use x="341.503906" xlink:href="#DejaVuSans-61"/>
     <use x="402.783203" xlink:href="#DejaVuSans-6e"/>
     <use x="466.162109" xlink:href="#DejaVuSans-63"/>
     <use x="521.142578" xlink:href="#DejaVuSans-65"/>
     <use x="582.666016" xlink:href="#DejaVuSans-73"/>
    </g>
   </g>
   <g id="text_19">
    <!-- v0.0.0 -->
    <g style="fill:#808080;" transform="translate(178.96275 289.919965)scale(0.1 -0.1)">
     <use xlink:href="#DejaVuSans-76"/>
     <use x="59.179688" xlink:href="#DejaVuSans-30"/>
     <use x="122.802734" xlink:href="#DejaVuSans-2e"/>
     <use x="154.589844" xlink:href="#DejaVuSans-30"/>
     <use x="218.212891" xlink:href="#DejaVuSans-2e"/>
     <use x="250" xlink:href="#DejaVuSans-30"/>
    </g>
   </g>
  </g>
 </g>
 <defs>
  <clipPath id="p4b2413bf48">
   <rect height="288.034772" width="277.048" x="56.12" y="6.845228"/>
  </clipPath>
 </defs>
</svg>
