<?xml version="1.0" encoding="utf-8" standalone="no"?>
<!DOCTYPE svg PUBLIC "-//W3C//DTD SVG 1.1//EN"
  "http://www.w3.org/Graphics/SVG/1.1/DTD/svg11.dtd">
<!-- Created with matplotlib (http://matplotlib.org/) -->
<svg height="345.6pt" version="1.1" viewBox="0 0 460.8 345.6" width="460.8pt" xmlns="http://www.w3.org/2000/svg" xmlns:xlink="http://www.w3.org/1999/xlink">
 <defs>
  <style type="text/css">
*{stroke-linecap:butt;stroke-linejoin:round;}
  </style>
 </defs>
 <g id="figure_1">
  <g id="patch_1">
   <path d="M 0 345.6 
L 460.8 345.6 
L 460.8 0 
L 0 0 
z
" style="fill:#ffffff;"/>
  </g>
  <g id="axes_1">
   <g id="patch_2">
    <path d="M 56.12 294.88 
L 333.168 294.88 
L 333.168 6.845228 
L 56.12 6.845228 
z
" style="fill:#ffffff;"/>
   </g>
   <g id="matplotlib.axis_1">
    <g id="xtick_1">
     <g id="line2d_1">
      <path clip-path="url(#pac6b6dc968)" d="M 56.12 294.88 
L 56.12 6.845228 
" style="fill:none;stroke:#b0b0b0;stroke-linecap:square;stroke-width:0.8;"/>
     </g>
     <g id="line2d_2">
      <defs>
       <path d="M 0 0 
L 0 3.5 
" id="m63a84b7ddb" style="stroke:#000000;stroke-width:0.8;"/>
      </defs>
      <g>
       <use style="stroke:#000000;stroke-width:0.8;" x="56.12" xlink:href="#m63a84b7ddb" y="294.88"/>
      </g>
     </g>
     <g id="text_1">
      <!-- 0 -->
      <defs>
       <path d="M 31.78125 66.40625 
Q 24.171875 66.40625 20.328125 58.90625 
Q 16.5 51.421875 16.5 36.375 
Q 16.5 21.390625 20.328125 13.890625 
Q 24.171875 6.390625 31.78125 6.390625 
Q 39.453125 6.390625 43.28125 13.890625 
Q 47.125 21.390625 47.125 36.375 
Q 47.125 51.421875 43.28125 58.90625 
Q 39.453125 66.40625 31.78125 66.40625 
z
M 31.78125 74.21875 
Q 44.046875 74.21875 50.515625 64.515625 
Q 56.984375 54.828125 56.984375 36.375 
Q 56.984375 17.96875 50.515625 8.265625 
Q 44.046875 -1.421875 31.78125 -1.421875 
Q 19.53125 -1.421875 13.0625 8.265625 
Q 6.59375 17.96875 6.59375 36.375 
Q 6.59375 54.828125 13.0625 64.515625 
Q 19.53125 74.21875 31.78125 74.21875 
z
" id="DejaVuSans-30"/>
      </defs>
      <g transform="translate(49.7575 317.076875)scale(0.2 -0.2)">
       <use xlink:href="#DejaVuSans-30"/>
      </g>
     </g>
    </g>
    <g id="xtick_2">
     <g id="line2d_3">
      <path clip-path="url(#pac6b6dc968)" d="M 135.276571 294.88 
L 135.276571 6.845228 
" style="fill:none;stroke:#b0b0b0;stroke-linecap:square;stroke-width:0.8;"/>
     </g>
     <g id="line2d_4">
      <g>
       <use style="stroke:#000000;stroke-width:0.8;" x="135.276571" xlink:href="#m63a84b7ddb" y="294.88"/>
      </g>
     </g>
     <g id="text_2">
      <!-- 2 -->
      <defs>
       <path d="M 19.1875 8.296875 
L 53.609375 8.296875 
L 53.609375 0 
L 7.328125 0 
L 7.328125 8.296875 
Q 12.9375 14.109375 22.625 23.890625 
Q 32.328125 33.6875 34.8125 36.53125 
Q 39.546875 41.84375 41.421875 45.53125 
Q 43.3125 49.21875 43.3125 52.78125 
Q 43.3125 58.59375 39.234375 62.25 
Q 35.15625 65.921875 28.609375 65.921875 
Q 23.96875 65.921875 18.8125 64.3125 
Q 13.671875 62.703125 7.8125 59.421875 
L 7.8125 69.390625 
Q 13.765625 71.78125 18.9375 73 
Q 24.125 74.21875 28.421875 74.21875 
Q 39.75 74.21875 46.484375 68.546875 
Q 53.21875 62.890625 53.21875 53.421875 
Q 53.21875 48.921875 51.53125 44.890625 
Q 49.859375 40.875 45.40625 35.40625 
Q 44.1875 33.984375 37.640625 27.21875 
Q 31.109375 20.453125 19.1875 8.296875 
z
" id="DejaVuSans-32"/>
      </defs>
      <g transform="translate(128.914071 317.076875)scale(0.2 -0.2)">
       <use xlink:href="#DejaVuSans-32"/>
      </g>
     </g>
    </g>
    <g id="xtick_3">
     <g id="line2d_5">
      <path clip-path="url(#pac6b6dc968)" d="M 214.433143 294.88 
L 214.433143 6.845228 
" style="fill:none;stroke:#b0b0b0;stroke-linecap:square;stroke-width:0.8;"/>
     </g>
     <g id="line2d_6">
      <g>
       <use style="stroke:#000000;stroke-width:0.8;" x="214.433143" xlink:href="#m63a84b7ddb" y="294.88"/>
      </g>
     </g>
     <g id="text_3">
      <!-- 4 -->
      <defs>
       <path d="M 37.796875 64.3125 
L 12.890625 25.390625 
L 37.796875 25.390625 
z
M 35.203125 72.90625 
L 47.609375 72.90625 
L 47.609375 25.390625 
L 58.015625 25.390625 
L 58.015625 17.1875 
L 47.609375 17.1875 
L 47.609375 0 
L 37.796875 0 
L 37.796875 17.1875 
L 4.890625 17.1875 
L 4.890625 26.703125 
z
" id="DejaVuSans-34"/>
      </defs>
      <g transform="translate(208.070643 317.076875)scale(0.2 -0.2)">
       <use xlink:href="#DejaVuSans-34"/>
      </g>
     </g>
    </g>
    <g id="xtick_4">
     <g id="line2d_7">
      <path clip-path="url(#pac6b6dc968)" d="M 293.589714 294.88 
L 293.589714 6.845228 
" style="fill:none;stroke:#b0b0b0;stroke-linecap:square;stroke-width:0.8;"/>
     </g>
     <g id="line2d_8">
      <g>
       <use style="stroke:#000000;stroke-width:0.8;" x="293.589714" xlink:href="#m63a84b7ddb" y="294.88"/>
      </g>
     </g>
     <g id="text_4">
      <!-- 6 -->
      <defs>
       <path d="M 33.015625 40.375 
Q 26.375 40.375 22.484375 35.828125 
Q 18.609375 31.296875 18.609375 23.390625 
Q 18.609375 15.53125 22.484375 10.953125 
Q 26.375 6.390625 33.015625 6.390625 
Q 39.65625 6.390625 43.53125 10.953125 
Q 47.40625 15.53125 47.40625 23.390625 
Q 47.40625 31.296875 43.53125 35.828125 
Q 39.65625 40.375 33.015625 40.375 
z
M 52.59375 71.296875 
L 52.59375 62.3125 
Q 48.875 64.0625 45.09375 64.984375 
Q 41.3125 65.921875 37.59375 65.921875 
Q 27.828125 65.921875 22.671875 59.328125 
Q 17.53125 52.734375 16.796875 39.40625 
Q 19.671875 43.65625 24.015625 45.921875 
Q 28.375 48.1875 33.59375 48.1875 
Q 44.578125 48.1875 50.953125 41.515625 
Q 57.328125 34.859375 57.328125 23.390625 
Q 57.328125 12.15625 50.6875 5.359375 
Q 44.046875 -1.421875 33.015625 -1.421875 
Q 20.359375 -1.421875 13.671875 8.265625 
Q 6.984375 17.96875 6.984375 36.375 
Q 6.984375 53.65625 15.1875 63.9375 
Q 23.390625 74.21875 37.203125 74.21875 
Q 40.921875 74.21875 44.703125 73.484375 
Q 48.484375 72.75 52.59375 71.296875 
z
" id="DejaVuSans-36"/>
      </defs>
      <g transform="translate(287.227214 317.076875)scale(0.2 -0.2)">
       <use xlink:href="#DejaVuSans-36"/>
      </g>
     </g>
    </g>
    <g id="xtick_5">
     <g id="line2d_9">
      <path clip-path="url(#pac6b6dc968)" d="M 56.12 294.88 
L 56.12 6.845228 
" style="fill:none;stroke:#b0b0b0;stroke-linecap:square;stroke-width:0.8;"/>
     </g>
     <g id="line2d_10">
      <defs>
       <path d="M 0 0 
L 0 2 
" id="m37cbf8a260" style="stroke:#000000;stroke-width:0.6;"/>
      </defs>
      <g>
       <use style="stroke:#000000;stroke-width:0.6;" x="56.12" xlink:href="#m37cbf8a260" y="294.88"/>
      </g>
     </g>
    </g>
    <g id="xtick_6">
     <g id="line2d_11">
      <path clip-path="url(#pac6b6dc968)" d="M 95.698286 294.88 
L 95.698286 6.845228 
" style="fill:none;stroke:#b0b0b0;stroke-linecap:square;stroke-width:0.8;"/>
     </g>
     <g id="line2d_12">
      <g>
       <use style="stroke:#000000;stroke-width:0.6;" x="95.698286" xlink:href="#m37cbf8a260" y="294.88"/>
      </g>
     </g>
    </g>
    <g id="xtick_7">
     <g id="line2d_13">
      <path clip-path="url(#pac6b6dc968)" d="M 135.276571 294.88 
L 135.276571 6.845228 
" style="fill:none;stroke:#b0b0b0;stroke-linecap:square;stroke-width:0.8;"/>
     </g>
     <g id="line2d_14">
      <g>
       <use style="stroke:#000000;stroke-width:0.6;" x="135.276571" xlink:href="#m37cbf8a260" y="294.88"/>
      </g>
     </g>
    </g>
    <g id="xtick_8">
     <g id="line2d_15">
      <path clip-path="url(#pac6b6dc968)" d="M 174.854857 294.88 
L 174.854857 6.845228 
" style="fill:none;stroke:#b0b0b0;stroke-linecap:square;stroke-width:0.8;"/>
     </g>
     <g id="line2d_16">
      <g>
       <use style="stroke:#000000;stroke-width:0.6;" x="174.854857" xlink:href="#m37cbf8a260" y="294.88"/>
      </g>
     </g>
    </g>
    <g id="xtick_9">
     <g id="line2d_17">
      <path clip-path="url(#pac6b6dc968)" d="M 214.433143 294.88 
L 214.433143 6.845228 
" style="fill:none;stroke:#b0b0b0;stroke-linecap:square;stroke-width:0.8;"/>
     </g>
     <g id="line2d_18">
      <g>
       <use style="stroke:#000000;stroke-width:0.6;" x="214.433143" xlink:href="#m37cbf8a260" y="294.88"/>
      </g>
     </g>
    </g>
    <g id="xtick_10">
     <g id="line2d_19">
      <path clip-path="url(#pac6b6dc968)" d="M 254.011429 294.88 
L 254.011429 6.845228 
" style="fill:none;stroke:#b0b0b0;stroke-linecap:square;stroke-width:0.8;"/>
     </g>
     <g id="line2d_20">
      <g>
       <use style="stroke:#000000;stroke-width:0.6;" x="254.011429" xlink:href="#m37cbf8a260" y="294.88"/>
      </g>
     </g>
    </g>
    <g id="xtick_11">
     <g id="line2d_21">
      <path clip-path="url(#pac6b6dc968)" d="M 293.589714 294.88 
L 293.589714 6.845228 
" style="fill:none;stroke:#b0b0b0;stroke-linecap:square;stroke-width:0.8;"/>
     </g>
     <g id="line2d_22">
      <g>
       <use style="stroke:#000000;stroke-width:0.6;" x="293.589714" xlink:href="#m37cbf8a260" y="294.88"/>
      </g>
     </g>
    </g>
    <g id="xtick_12">
     <g id="line2d_23">
      <path clip-path="url(#pac6b6dc968)" d="M 333.168 294.88 
L 333.168 6.845228 
" style="fill:none;stroke:#b0b0b0;stroke-linecap:square;stroke-width:0.8;"/>
     </g>
     <g id="line2d_24">
      <g>
       <use style="stroke:#000000;stroke-width:0.6;" x="333.168" xlink:href="#m37cbf8a260" y="294.88"/>
      </g>
     </g>
    </g>
    <g id="text_5">
     <!-- log10(# f-evals / dimension) -->
     <defs>
      <path d="M 9.421875 75.984375 
L 18.40625 75.984375 
L 18.40625 0 
L 9.421875 0 
z
" id="DejaVuSans-6c"/>
      <path d="M 30.609375 48.390625 
Q 23.390625 48.390625 19.1875 42.75 
Q 14.984375 37.109375 14.984375 27.296875 
Q 14.984375 17.484375 19.15625 11.84375 
Q 23.34375 6.203125 30.609375 6.203125 
Q 37.796875 6.203125 41.984375 11.859375 
Q 46.1875 17.53125 46.1875 27.296875 
Q 46.1875 37.015625 41.984375 42.703125 
Q 37.796875 48.390625 30.609375 48.390625 
z
M 30.609375 56 
Q 42.328125 56 49.015625 48.375 
Q 55.71875 40.765625 55.71875 27.296875 
Q 55.71875 13.875 49.015625 6.21875 
Q 42.328125 -1.421875 30.609375 -1.421875 
Q 18.84375 -1.421875 12.171875 6.21875 
Q 5.515625 13.875 5.515625 27.296875 
Q 5.515625 40.765625 12.171875 48.375 
Q 18.84375 56 30.609375 56 
z
" id="DejaVuSans-6f"/>
      <path d="M 45.40625 27.984375 
Q 45.40625 37.75 41.375 43.109375 
Q 37.359375 48.484375 30.078125 48.484375 
Q 22.859375 48.484375 18.828125 43.109375 
Q 14.796875 37.75 14.796875 27.984375 
Q 14.796875 18.265625 18.828125 12.890625 
Q 22.859375 7.515625 30.078125 7.515625 
Q 37.359375 7.515625 41.375 12.890625 
Q 45.40625 18.265625 45.40625 27.984375 
z
M 54.390625 6.78125 
Q 54.390625 -7.171875 48.1875 -13.984375 
Q 42 -20.796875 29.203125 -20.796875 
Q 24.46875 -20.796875 20.265625 -20.09375 
Q 16.0625 -19.390625 12.109375 -17.921875 
L 12.109375 -9.1875 
Q 16.0625 -11.328125 19.921875 -12.34375 
Q 23.78125 -13.375 27.78125 -13.375 
Q 36.625 -13.375 41.015625 -8.765625 
Q 45.40625 -4.15625 45.40625 5.171875 
L 45.40625 9.625 
Q 42.625 4.78125 38.28125 2.390625 
Q 33.9375 0 27.875 0 
Q 17.828125 0 11.671875 7.65625 
Q 5.515625 15.328125 5.515625 27.984375 
Q 5.515625 40.671875 11.671875 48.328125 
Q 17.828125 56 27.875 56 
Q 33.9375 56 38.28125 53.609375 
Q 42.625 51.21875 45.40625 46.390625 
L 45.40625 54.6875 
L 54.390625 54.6875 
z
" id="DejaVuSans-67"/>
      <path d="M 12.40625 8.296875 
L 28.515625 8.296875 
L 28.515625 63.921875 
L 10.984375 60.40625 
L 10.984375 69.390625 
L 28.421875 72.90625 
L 38.28125 72.90625 
L 38.28125 8.296875 
L 54.390625 8.296875 
L 54.390625 0 
L 12.40625 0 
z
" id="DejaVuSans-31"/>
      <path d="M 31 75.875 
Q 24.46875 64.65625 21.28125 53.65625 
Q 18.109375 42.671875 18.109375 31.390625 
Q 18.109375 20.125 21.3125 9.0625 
Q 24.515625 -2 31 -13.1875 
L 23.1875 -13.1875 
Q 15.875 -1.703125 12.234375 9.375 
Q 8.59375 20.453125 8.59375 31.390625 
Q 8.59375 42.28125 12.203125 53.3125 
Q 15.828125 64.359375 23.1875 75.875 
z
" id="DejaVuSans-28"/>
      <path d="M 51.125 44 
L 36.921875 44 
L 32.8125 27.6875 
L 47.125 27.6875 
z
M 43.796875 71.78125 
L 38.71875 51.515625 
L 52.984375 51.515625 
L 58.109375 71.78125 
L 65.921875 71.78125 
L 60.890625 51.515625 
L 76.125 51.515625 
L 76.125 44 
L 58.984375 44 
L 54.984375 27.6875 
L 70.515625 27.6875 
L 70.515625 20.21875 
L 53.078125 20.21875 
L 48 0 
L 40.1875 0 
L 45.21875 20.21875 
L 30.90625 20.21875 
L 25.875 0 
L 18.015625 0 
L 23.09375 20.21875 
L 7.71875 20.21875 
L 7.71875 27.6875 
L 24.90625 27.6875 
L 29 44 
L 13.28125 44 
L 13.28125 51.515625 
L 30.90625 51.515625 
L 35.890625 71.78125 
z
" id="DejaVuSans-23"/>
      <path id="DejaVuSans-20"/>
      <path d="M 37.109375 75.984375 
L 37.109375 68.5 
L 28.515625 68.5 
Q 23.6875 68.5 21.796875 66.546875 
Q 19.921875 64.59375 19.921875 59.515625 
L 19.921875 54.6875 
L 34.71875 54.6875 
L 34.71875 47.703125 
L 19.921875 47.703125 
L 19.921875 0 
L 10.890625 0 
L 10.890625 47.703125 
L 2.296875 47.703125 
L 2.296875 54.6875 
L 10.890625 54.6875 
L 10.890625 58.5 
Q 10.890625 67.625 15.140625 71.796875 
Q 19.390625 75.984375 28.609375 75.984375 
z
" id="DejaVuSans-66"/>
      <path d="M 4.890625 31.390625 
L 31.203125 31.390625 
L 31.203125 23.390625 
L 4.890625 23.390625 
z
" id="DejaVuSans-2d"/>
      <path d="M 56.203125 29.59375 
L 56.203125 25.203125 
L 14.890625 25.203125 
Q 15.484375 15.921875 20.484375 11.0625 
Q 25.484375 6.203125 34.421875 6.203125 
Q 39.59375 6.203125 44.453125 7.46875 
Q 49.3125 8.734375 54.109375 11.28125 
L 54.109375 2.78125 
Q 49.265625 0.734375 44.1875 -0.34375 
Q 39.109375 -1.421875 33.890625 -1.421875 
Q 20.796875 -1.421875 13.15625 6.1875 
Q 5.515625 13.8125 5.515625 26.8125 
Q 5.515625 40.234375 12.765625 48.109375 
Q 20.015625 56 32.328125 56 
Q 43.359375 56 49.78125 48.890625 
Q 56.203125 41.796875 56.203125 29.59375 
z
M 47.21875 32.234375 
Q 47.125 39.59375 43.09375 43.984375 
Q 39.0625 48.390625 32.421875 48.390625 
Q 24.90625 48.390625 20.390625 44.140625 
Q 15.875 39.890625 15.1875 32.171875 
z
" id="DejaVuSans-65"/>
      <path d="M 2.984375 54.6875 
L 12.5 54.6875 
L 29.59375 8.796875 
L 46.6875 54.6875 
L 56.203125 54.6875 
L 35.6875 0 
L 23.484375 0 
z
" id="DejaVuSans-76"/>
      <path d="M 34.28125 27.484375 
Q 23.390625 27.484375 19.1875 25 
Q 14.984375 22.515625 14.984375 16.5 
Q 14.984375 11.71875 18.140625 8.90625 
Q 21.296875 6.109375 26.703125 6.109375 
Q 34.1875 6.109375 38.703125 11.40625 
Q 43.21875 16.703125 43.21875 25.484375 
L 43.21875 27.484375 
z
M 52.203125 31.203125 
L 52.203125 0 
L 43.21875 0 
L 43.21875 8.296875 
Q 40.140625 3.328125 35.546875 0.953125 
Q 30.953125 -1.421875 24.3125 -1.421875 
Q 15.921875 -1.421875 10.953125 3.296875 
Q 6 8.015625 6 15.921875 
Q 6 25.140625 12.171875 29.828125 
Q 18.359375 34.515625 30.609375 34.515625 
L 43.21875 34.515625 
L 43.21875 35.40625 
Q 43.21875 41.609375 39.140625 45 
Q 35.0625 48.390625 27.6875 48.390625 
Q 23 48.390625 18.546875 47.265625 
Q 14.109375 46.140625 10.015625 43.890625 
L 10.015625 52.203125 
Q 14.9375 54.109375 19.578125 55.046875 
Q 24.21875 56 28.609375 56 
Q 40.484375 56 46.34375 49.84375 
Q 52.203125 43.703125 52.203125 31.203125 
z
" id="DejaVuSans-61"/>
      <path d="M 44.28125 53.078125 
L 44.28125 44.578125 
Q 40.484375 46.53125 36.375 47.5 
Q 32.28125 48.484375 27.875 48.484375 
Q 21.1875 48.484375 17.84375 46.4375 
Q 14.5 44.390625 14.5 40.28125 
Q 14.5 37.15625 16.890625 35.375 
Q 19.28125 33.59375 26.515625 31.984375 
L 29.59375 31.296875 
Q 39.15625 29.25 43.1875 25.515625 
Q 47.21875 21.78125 47.21875 15.09375 
Q 47.21875 7.46875 41.1875 3.015625 
Q 35.15625 -1.421875 24.609375 -1.421875 
Q 20.21875 -1.421875 15.453125 -0.5625 
Q 10.6875 0.296875 5.421875 2 
L 5.421875 11.28125 
Q 10.40625 8.6875 15.234375 7.390625 
Q 20.0625 6.109375 24.8125 6.109375 
Q 31.15625 6.109375 34.5625 8.28125 
Q 37.984375 10.453125 37.984375 14.40625 
Q 37.984375 18.0625 35.515625 20.015625 
Q 33.0625 21.96875 24.703125 23.78125 
L 21.578125 24.515625 
Q 13.234375 26.265625 9.515625 29.90625 
Q 5.8125 33.546875 5.8125 39.890625 
Q 5.8125 47.609375 11.28125 51.796875 
Q 16.75 56 26.8125 56 
Q 31.78125 56 36.171875 55.265625 
Q 40.578125 54.546875 44.28125 53.078125 
z
" id="DejaVuSans-73"/>
      <path d="M 25.390625 72.90625 
L 33.6875 72.90625 
L 8.296875 -9.28125 
L 0 -9.28125 
z
" id="DejaVuSans-2f"/>
      <path d="M 45.40625 46.390625 
L 45.40625 75.984375 
L 54.390625 75.984375 
L 54.390625 0 
L 45.40625 0 
L 45.40625 8.203125 
Q 42.578125 3.328125 38.25 0.953125 
Q 33.9375 -1.421875 27.875 -1.421875 
Q 17.96875 -1.421875 11.734375 6.484375 
Q 5.515625 14.40625 5.515625 27.296875 
Q 5.515625 40.1875 11.734375 48.09375 
Q 17.96875 56 27.875 56 
Q 33.9375 56 38.25 53.625 
Q 42.578125 51.265625 45.40625 46.390625 
z
M 14.796875 27.296875 
Q 14.796875 17.390625 18.875 11.75 
Q 22.953125 6.109375 30.078125 6.109375 
Q 37.203125 6.109375 41.296875 11.75 
Q 45.40625 17.390625 45.40625 27.296875 
Q 45.40625 37.203125 41.296875 42.84375 
Q 37.203125 48.484375 30.078125 48.484375 
Q 22.953125 48.484375 18.875 42.84375 
Q 14.796875 37.203125 14.796875 27.296875 
z
" id="DejaVuSans-64"/>
      <path d="M 9.421875 54.6875 
L 18.40625 54.6875 
L 18.40625 0 
L 9.421875 0 
z
M 9.421875 75.984375 
L 18.40625 75.984375 
L 18.40625 64.59375 
L 9.421875 64.59375 
z
" id="DejaVuSans-69"/>
      <path d="M 52 44.1875 
Q 55.375 50.25 60.0625 53.125 
Q 64.75 56 71.09375 56 
Q 79.640625 56 84.28125 50.015625 
Q 88.921875 44.046875 88.921875 33.015625 
L 88.921875 0 
L 79.890625 0 
L 79.890625 32.71875 
Q 79.890625 40.578125 77.09375 44.375 
Q 74.3125 48.1875 68.609375 48.1875 
Q 61.625 48.1875 57.5625 43.546875 
Q 53.515625 38.921875 53.515625 30.90625 
L 53.515625 0 
L 44.484375 0 
L 44.484375 32.71875 
Q 44.484375 40.625 41.703125 44.40625 
Q 38.921875 48.1875 33.109375 48.1875 
Q 26.21875 48.1875 22.15625 43.53125 
Q 18.109375 38.875 18.109375 30.90625 
L 18.109375 0 
L 9.078125 0 
L 9.078125 54.6875 
L 18.109375 54.6875 
L 18.109375 46.1875 
Q 21.1875 51.21875 25.484375 53.609375 
Q 29.78125 56 35.6875 56 
Q 41.65625 56 45.828125 52.96875 
Q 50 49.953125 52 44.1875 
z
" id="DejaVuSans-6d"/>
      <path d="M 54.890625 33.015625 
L 54.890625 0 
L 45.90625 0 
L 45.90625 32.71875 
Q 45.90625 40.484375 42.875 44.328125 
Q 39.84375 48.1875 33.796875 48.1875 
Q 26.515625 48.1875 22.3125 43.546875 
Q 18.109375 38.921875 18.109375 30.90625 
L 18.109375 0 
L 9.078125 0 
L 9.078125 54.6875 
L 18.109375 54.6875 
L 18.109375 46.1875 
Q 21.34375 51.125 25.703125 53.5625 
Q 30.078125 56 35.796875 56 
Q 45.21875 56 50.046875 50.171875 
Q 54.890625 44.34375 54.890625 33.015625 
z
" id="DejaVuSans-6e"/>
      <path d="M 8.015625 75.875 
L 15.828125 75.875 
Q 23.140625 64.359375 26.78125 53.3125 
Q 30.421875 42.28125 30.421875 31.390625 
Q 30.421875 20.453125 26.78125 9.375 
Q 23.140625 -1.703125 15.828125 -13.1875 
L 8.015625 -13.1875 
Q 14.5 -2 17.703125 9.0625 
Q 20.90625 20.125 20.90625 31.390625 
Q 20.90625 42.671875 17.703125 53.65625 
Q 14.5 64.65625 8.015625 75.875 
z
" id="DejaVuSans-29"/>
     </defs>
     <g transform="translate(73.803219 338.153594)scale(0.17 -0.17)">
      <use xlink:href="#DejaVuSans-6c"/>
      <use x="27.783203" xlink:href="#DejaVuSans-6f"/>
      <use x="88.964844" xlink:href="#DejaVuSans-67"/>
      <use x="152.441406" xlink:href="#DejaVuSans-31"/>
      <use x="216.064453" xlink:href="#DejaVuSans-30"/>
      <use x="279.6875" xlink:href="#DejaVuSans-28"/>
      <use x="318.701172" xlink:href="#DejaVuSans-23"/>
      <use x="402.490234" xlink:href="#DejaVuSans-20"/>
      <use x="434.277344" xlink:href="#DejaVuSans-66"/>
      <use x="469.404297" xlink:href="#DejaVuSans-2d"/>
      <use x="505.488281" xlink:href="#DejaVuSans-65"/>
      <use x="567.011719" xlink:href="#DejaVuSans-76"/>
      <use x="626.191406" xlink:href="#DejaVuSans-61"/>
      <use x="687.470703" xlink:href="#DejaVuSans-6c"/>
      <use x="715.253906" xlink:href="#DejaVuSans-73"/>
      <use x="767.353516" xlink:href="#DejaVuSans-20"/>
      <use x="799.140625" xlink:href="#DejaVuSans-2f"/>
      <use x="832.832031" xlink:href="#DejaVuSans-20"/>
      <use x="864.619141" xlink:href="#DejaVuSans-64"/>
      <use x="928.095703" xlink:href="#DejaVuSans-69"/>
      <use x="955.878906" xlink:href="#DejaVuSans-6d"/>
      <use x="1053.291016" xlink:href="#DejaVuSans-65"/>
      <use x="1114.814453" xlink:href="#DejaVuSans-6e"/>
      <use x="1178.193359" xlink:href="#DejaVuSans-73"/>
      <use x="1230.292969" xlink:href="#DejaVuSans-69"/>
      <use x="1258.076172" xlink:href="#DejaVuSans-6f"/>
      <use x="1319.257812" xlink:href="#DejaVuSans-6e"/>
      <use x="1382.636719" xlink:href="#DejaVuSans-29"/>
     </g>
    </g>
   </g>
   <g id="matplotlib.axis_2">
    <g id="ytick_1">
     <g id="line2d_25">
      <path clip-path="url(#pac6b6dc968)" d="M 56.12 294.88 
L 333.168 294.88 
" style="fill:none;stroke:#b0b0b0;stroke-linecap:square;stroke-width:0.8;"/>
     </g>
     <g id="line2d_26">
      <defs>
       <path d="M 0 0 
L -3.5 0 
" id="m330196c3aa" style="stroke:#000000;stroke-width:0.8;"/>
      </defs>
      <g>
       <use style="stroke:#000000;stroke-width:0.8;" x="56.12" xlink:href="#m330196c3aa" y="294.88"/>
      </g>
     </g>
     <g id="text_6">
      <!-- 0.0 -->
      <defs>
       <path d="M 10.6875 12.40625 
L 21 12.40625 
L 21 0 
L 10.6875 0 
z
" id="DejaVuSans-2e"/>
      </defs>
      <g transform="translate(23.675 300.95875)scale(0.16 -0.16)">
       <use xlink:href="#DejaVuSans-30"/>
       <use x="63.623047" xlink:href="#DejaVuSans-2e"/>
       <use x="95.410156" xlink:href="#DejaVuSans-30"/>
      </g>
     </g>
    </g>
    <g id="ytick_2">
     <g id="line2d_27">
      <path clip-path="url(#pac6b6dc968)" d="M 56.12 237.843411 
L 333.168 237.843411 
" style="fill:none;stroke:#b0b0b0;stroke-linecap:square;stroke-width:0.8;"/>
     </g>
     <g id="line2d_28">
      <g>
       <use style="stroke:#000000;stroke-width:0.8;" x="56.12" xlink:href="#m330196c3aa" y="237.843411"/>
      </g>
     </g>
     <g id="text_7">
      <!-- 0.2 -->
      <g transform="translate(23.675 243.922161)scale(0.16 -0.16)">
       <use xlink:href="#DejaVuSans-30"/>
       <use x="63.623047" xlink:href="#DejaVuSans-2e"/>
       <use x="95.410156" xlink:href="#DejaVuSans-32"/>
      </g>
     </g>
    </g>
    <g id="ytick_3">
     <g id="line2d_29">
      <path clip-path="url(#pac6b6dc968)" d="M 56.12 180.806823 
L 333.168 180.806823 
" style="fill:none;stroke:#b0b0b0;stroke-linecap:square;stroke-width:0.8;"/>
     </g>
     <g id="line2d_30">
      <g>
       <use style="stroke:#000000;stroke-width:0.8;" x="56.12" xlink:href="#m330196c3aa" y="180.806823"/>
      </g>
     </g>
     <g id="text_8">
      <!-- 0.4 -->
      <g transform="translate(23.675 186.885573)scale(0.16 -0.16)">
       <use xlink:href="#DejaVuSans-30"/>
       <use x="63.623047" xlink:href="#DejaVuSans-2e"/>
       <use x="95.410156" xlink:href="#DejaVuSans-34"/>
      </g>
     </g>
    </g>
    <g id="ytick_4">
     <g id="line2d_31">
      <path clip-path="url(#pac6b6dc968)" d="M 56.12 123.770234 
L 333.168 123.770234 
" style="fill:none;stroke:#b0b0b0;stroke-linecap:square;stroke-width:0.8;"/>
     </g>
     <g id="line2d_32">
      <g>
       <use style="stroke:#000000;stroke-width:0.8;" x="56.12" xlink:href="#m330196c3aa" y="123.770234"/>
      </g>
     </g>
     <g id="text_9">
      <!-- 0.6 -->
      <g transform="translate(23.675 129.848984)scale(0.16 -0.16)">
       <use xlink:href="#DejaVuSans-30"/>
       <use x="63.623047" xlink:href="#DejaVuSans-2e"/>
       <use x="95.410156" xlink:href="#DejaVuSans-36"/>
      </g>
     </g>
    </g>
    <g id="ytick_5">
     <g id="line2d_33">
      <path clip-path="url(#pac6b6dc968)" d="M 56.12 66.733646 
L 333.168 66.733646 
" style="fill:none;stroke:#b0b0b0;stroke-linecap:square;stroke-width:0.8;"/>
     </g>
     <g id="line2d_34">
      <g>
       <use style="stroke:#000000;stroke-width:0.8;" x="56.12" xlink:href="#m330196c3aa" y="66.733646"/>
      </g>
     </g>
     <g id="text_10">
      <!-- 0.8 -->
      <defs>
       <path d="M 31.78125 34.625 
Q 24.75 34.625 20.71875 30.859375 
Q 16.703125 27.09375 16.703125 20.515625 
Q 16.703125 13.921875 20.71875 10.15625 
Q 24.75 6.390625 31.78125 6.390625 
Q 38.8125 6.390625 42.859375 10.171875 
Q 46.921875 13.96875 46.921875 20.515625 
Q 46.921875 27.09375 42.890625 30.859375 
Q 38.875 34.625 31.78125 34.625 
z
M 21.921875 38.8125 
Q 15.578125 40.375 12.03125 44.71875 
Q 8.5 49.078125 8.5 55.328125 
Q 8.5 64.0625 14.71875 69.140625 
Q 20.953125 74.21875 31.78125 74.21875 
Q 42.671875 74.21875 48.875 69.140625 
Q 55.078125 64.0625 55.078125 55.328125 
Q 55.078125 49.078125 51.53125 44.71875 
Q 48 40.375 41.703125 38.8125 
Q 48.828125 37.15625 52.796875 32.3125 
Q 56.78125 27.484375 56.78125 20.515625 
Q 56.78125 9.90625 50.3125 4.234375 
Q 43.84375 -1.421875 31.78125 -1.421875 
Q 19.734375 -1.421875 13.25 4.234375 
Q 6.78125 9.90625 6.78125 20.515625 
Q 6.78125 27.484375 10.78125 32.3125 
Q 14.796875 37.15625 21.921875 38.8125 
z
M 18.3125 54.390625 
Q 18.3125 48.734375 21.84375 45.5625 
Q 25.390625 42.390625 31.78125 42.390625 
Q 38.140625 42.390625 41.71875 45.5625 
Q 45.3125 48.734375 45.3125 54.390625 
Q 45.3125 60.0625 41.71875 63.234375 
Q 38.140625 66.40625 31.78125 66.40625 
Q 25.390625 66.40625 21.84375 63.234375 
Q 18.3125 60.0625 18.3125 54.390625 
z
" id="DejaVuSans-38"/>
      </defs>
      <g transform="translate(23.675 72.812396)scale(0.16 -0.16)">
       <use xlink:href="#DejaVuSans-30"/>
       <use x="63.623047" xlink:href="#DejaVuSans-2e"/>
       <use x="95.410156" xlink:href="#DejaVuSans-38"/>
      </g>
     </g>
    </g>
    <g id="ytick_6">
     <g id="line2d_35">
      <path clip-path="url(#pac6b6dc968)" d="M 56.12 9.697057 
L 333.168 9.697057 
" style="fill:none;stroke:#b0b0b0;stroke-linecap:square;stroke-width:0.8;"/>
     </g>
     <g id="line2d_36">
      <g>
       <use style="stroke:#000000;stroke-width:0.8;" x="56.12" xlink:href="#m330196c3aa" y="9.697057"/>
      </g>
     </g>
     <g id="text_11">
      <!-- 1.0 -->
      <g transform="translate(23.675 15.775807)scale(0.16 -0.16)">
       <use xlink:href="#DejaVuSans-31"/>
       <use x="63.623047" xlink:href="#DejaVuSans-2e"/>
       <use x="95.410156" xlink:href="#DejaVuSans-30"/>
      </g>
     </g>
    </g>
    <g id="text_12">
     <!-- Fraction of function,target pairs -->
     <defs>
      <path d="M 9.8125 72.90625 
L 51.703125 72.90625 
L 51.703125 64.59375 
L 19.671875 64.59375 
L 19.671875 43.109375 
L 48.578125 43.109375 
L 48.578125 34.8125 
L 19.671875 34.8125 
L 19.671875 0 
L 9.8125 0 
z
" id="DejaVuSans-46"/>
      <path d="M 41.109375 46.296875 
Q 39.59375 47.171875 37.8125 47.578125 
Q 36.03125 48 33.890625 48 
Q 26.265625 48 22.1875 43.046875 
Q 18.109375 38.09375 18.109375 28.8125 
L 18.109375 0 
L 9.078125 0 
L 9.078125 54.6875 
L 18.109375 54.6875 
L 18.109375 46.1875 
Q 20.953125 51.171875 25.484375 53.578125 
Q 30.03125 56 36.53125 56 
Q 37.453125 56 38.578125 55.875 
Q 39.703125 55.765625 41.0625 55.515625 
z
" id="DejaVuSans-72"/>
      <path d="M 48.78125 52.59375 
L 48.78125 44.1875 
Q 44.96875 46.296875 41.140625 47.34375 
Q 37.3125 48.390625 33.40625 48.390625 
Q 24.65625 48.390625 19.8125 42.84375 
Q 14.984375 37.3125 14.984375 27.296875 
Q 14.984375 17.28125 19.8125 11.734375 
Q 24.65625 6.203125 33.40625 6.203125 
Q 37.3125 6.203125 41.140625 7.25 
Q 44.96875 8.296875 48.78125 10.40625 
L 48.78125 2.09375 
Q 45.015625 0.34375 40.984375 -0.53125 
Q 36.96875 -1.421875 32.421875 -1.421875 
Q 20.0625 -1.421875 12.78125 6.34375 
Q 5.515625 14.109375 5.515625 27.296875 
Q 5.515625 40.671875 12.859375 48.328125 
Q 20.21875 56 33.015625 56 
Q 37.15625 56 41.109375 55.140625 
Q 45.0625 54.296875 48.78125 52.59375 
z
" id="DejaVuSans-63"/>
      <path d="M 18.3125 70.21875 
L 18.3125 54.6875 
L 36.8125 54.6875 
L 36.8125 47.703125 
L 18.3125 47.703125 
L 18.3125 18.015625 
Q 18.3125 11.328125 20.140625 9.421875 
Q 21.96875 7.515625 27.59375 7.515625 
L 36.8125 7.515625 
L 36.8125 0 
L 27.59375 0 
Q 17.1875 0 13.234375 3.875 
Q 9.28125 7.765625 9.28125 18.015625 
L 9.28125 47.703125 
L 2.6875 47.703125 
L 2.6875 54.6875 
L 9.28125 54.6875 
L 9.28125 70.21875 
z
" id="DejaVuSans-74"/>
      <path d="M 8.5 21.578125 
L 8.5 54.6875 
L 17.484375 54.6875 
L 17.484375 21.921875 
Q 17.484375 14.15625 20.5 10.265625 
Q 23.53125 6.390625 29.59375 6.390625 
Q 36.859375 6.390625 41.078125 11.03125 
Q 45.3125 15.671875 45.3125 23.6875 
L 45.3125 54.6875 
L 54.296875 54.6875 
L 54.296875 0 
L 45.3125 0 
L 45.3125 8.40625 
Q 42.046875 3.421875 37.71875 1 
Q 33.40625 -1.421875 27.6875 -1.421875 
Q 18.265625 -1.421875 13.375 4.4375 
Q 8.5 10.296875 8.5 21.578125 
z
M 31.109375 56 
z
" id="DejaVuSans-75"/>
      <path d="M 11.71875 12.40625 
L 22.015625 12.40625 
L 22.015625 4 
L 14.015625 -11.625 
L 7.71875 -11.625 
L 11.71875 4 
z
" id="DejaVuSans-2c"/>
      <path d="M 18.109375 8.203125 
L 18.109375 -20.796875 
L 9.078125 -20.796875 
L 9.078125 54.6875 
L 18.109375 54.6875 
L 18.109375 46.390625 
Q 20.953125 51.265625 25.265625 53.625 
Q 29.59375 56 35.59375 56 
Q 45.5625 56 51.78125 48.09375 
Q 58.015625 40.1875 58.015625 27.296875 
Q 58.015625 14.40625 51.78125 6.484375 
Q 45.5625 -1.421875 35.59375 -1.421875 
Q 29.59375 -1.421875 25.265625 0.953125 
Q 20.953125 3.328125 18.109375 8.203125 
z
M 48.6875 27.296875 
Q 48.6875 37.203125 44.609375 42.84375 
Q 40.53125 48.484375 33.40625 48.484375 
Q 26.265625 48.484375 22.1875 42.84375 
Q 18.109375 37.203125 18.109375 27.296875 
Q 18.109375 17.390625 22.1875 11.75 
Q 26.265625 6.109375 33.40625 6.109375 
Q 40.53125 6.109375 44.609375 11.75 
Q 48.6875 17.390625 48.6875 27.296875 
z
" id="DejaVuSans-70"/>
     </defs>
     <g transform="translate(16.139531 286.001989)rotate(-90)scale(0.17 -0.17)">
      <use xlink:href="#DejaVuSans-46"/>
      <use x="57.410156" xlink:href="#DejaVuSans-72"/>
      <use x="98.523438" xlink:href="#DejaVuSans-61"/>
      <use x="159.802734" xlink:href="#DejaVuSans-63"/>
      <use x="214.783203" xlink:href="#DejaVuSans-74"/>
      <use x="253.992188" xlink:href="#DejaVuSans-69"/>
      <use x="281.775391" xlink:href="#DejaVuSans-6f"/>
      <use x="342.957031" xlink:href="#DejaVuSans-6e"/>
      <use x="406.335938" xlink:href="#DejaVuSans-20"/>
      <use x="438.123047" xlink:href="#DejaVuSans-6f"/>
      <use x="499.304688" xlink:href="#DejaVuSans-66"/>
      <use x="534.509766" xlink:href="#DejaVuSans-20"/>
      <use x="566.296875" xlink:href="#DejaVuSans-66"/>
      <use x="601.501953" xlink:href="#DejaVuSans-75"/>
      <use x="664.880859" xlink:href="#DejaVuSans-6e"/>
      <use x="728.259766" xlink:href="#DejaVuSans-63"/>
      <use x="783.240234" xlink:href="#DejaVuSans-74"/>
      <use x="822.449219" xlink:href="#DejaVuSans-69"/>
      <use x="850.232422" xlink:href="#DejaVuSans-6f"/>
      <use x="911.414062" xlink:href="#DejaVuSans-6e"/>
      <use x="974.792969" xlink:href="#DejaVuSans-2c"/>
      <use x="1006.580078" xlink:href="#DejaVuSans-74"/>
      <use x="1045.789062" xlink:href="#DejaVuSans-61"/>
      <use x="1107.068359" xlink:href="#DejaVuSans-72"/>
      <use x="1148.166016" xlink:href="#DejaVuSans-67"/>
      <use x="1211.642578" xlink:href="#DejaVuSans-65"/>
      <use x="1273.166016" xlink:href="#DejaVuSans-74"/>
      <use x="1312.375" xlink:href="#DejaVuSans-20"/>
      <use x="1344.162109" xlink:href="#DejaVuSans-70"/>
      <use x="1407.638672" xlink:href="#DejaVuSans-61"/>
      <use x="1468.917969" xlink:href="#DejaVuSans-69"/>
      <use x="1496.701172" xlink:href="#DejaVuSans-72"/>
      <use x="1537.814453" xlink:href="#DejaVuSans-73"/>
     </g>
    </g>
   </g>
   <g id="line2d_37">
    <defs>
     <path d="M 0 1.5 
C 0.397805 1.5 0.77937 1.341951 1.06066 1.06066 
C 1.341951 0.77937 1.5 0.397805 1.5 0 
C 1.5 -0.397805 1.341951 -0.77937 1.06066 -1.06066 
C 0.77937 -1.341951 0.397805 -1.5 0 -1.5 
C -0.397805 -1.5 -0.77937 -1.341951 -1.06066 -1.06066 
C -1.341951 -0.77937 -1.5 -0.397805 -1.5 0 
C -1.5 0.397805 -1.341951 0.77937 -1.06066 1.06066 
C -0.77937 1.341951 -0.397805 1.5 0 1.5 
z
" id="m71b4c64158" style="stroke:#000080;"/>
    </defs>
    <g>
     <use style="fill:#000080;stroke:#000080;" x="195.694987" xlink:href="#m71b4c64158" y="9.697057"/>
     <use style="fill:#000080;stroke:#000080;" x="195.694987" xlink:href="#m71b4c64158" y="9.697057"/>
    </g>
   </g>
   <g id="line2d_38">
    <path d="M 78.452896 294.88 
L 78.452896 293.761636 
L 84.893363 293.761636 
L 84.893363 291.524907 
L 93.238578 291.524907 
L 93.238578 290.406542 
L 102.667676 290.406542 
L 102.667676 287.610631 
L 116.220179 287.610631 
L 116.220179 285.933084 
L 119.09161 285.933084 
L 119.09161 285.373902 
L 122.176427 285.373902 
L 122.176427 284.81472 
L 126.207287 284.81472 
L 126.207287 283.696355 
L 128.815257 283.696355 
L 128.815257 282.018808 
L 129.308744 282.018808 
L 129.308744 281.459626 
L 129.630036 281.459626 
L 129.630036 278.663715 
L 130.33171 278.663715 
L 130.33171 277.545351 
L 131.152148 277.545351 
L 131.152148 276.426986 
L 131.583684 276.426986 
L 131.583684 275.308622 
L 133.014059 275.308622 
L 133.014059 274.190257 
L 134.87075 274.190257 
L 134.87075 273.631075 
L 135.504239 273.631075 
L 135.504239 273.071893 
L 136.278134 273.071893 
L 136.278134 271.394346 
L 136.492995 271.394346 
L 136.546293 268.039252 
L 137.070377 268.039252 
L 137.070377 267.48007 
L 138.218376 267.48007 
L 138.314671 264.684159 
L 138.88138 264.684159 
L 138.974042 261.888248 
L 140.60389 261.888248 
L 140.60389 260.769883 
L 141.504453 260.769883 
L 141.504453 260.210701 
L 141.702709 260.210701 
L 141.742087 257.41479 
L 142.511282 257.41479 
L 142.511282 256.855608 
L 142.623749 256.855608 
L 142.623749 255.737243 
L 142.809574 255.737243 
L 142.809574 255.178061 
L 143.674593 255.178061 
L 143.674593 254.618879 
L 144.464619 254.618879 
L 144.464619 254.059696 
L 144.797098 254.059696 
L 144.895601 252.941332 
L 145.058527 252.941332 
L 145.090928 251.263785 
L 145.219924 251.263785 
L 145.219924 250.704603 
L 146.814308 250.704603 
L 146.814308 250.145421 
L 147.361855 250.145421 
L 147.361855 249.586238 
L 148.056721 249.586238 
L 148.056721 247.908692 
L 148.192385 247.908692 
L 148.192385 246.231145 
L 148.460544 246.231145 
L 148.460544 245.112781 
L 148.698361 245.112781 
L 148.698361 244.553598 
L 148.907027 244.553598 
L 148.907027 243.994416 
L 149.061881 243.994416 
L 149.061881 243.435234 
L 150.608797 243.435234 
L 150.632262 241.198505 
L 150.91138 241.198505 
L 150.91138 238.402594 
L 152.539141 238.402594 
L 152.539141 237.843411 
L 152.789162 237.843411 
L 152.789162 236.725047 
L 154.519307 236.725047 
L 154.519307 235.0475 
L 154.668288 235.0475 
L 154.668288 234.488318 
L 155.035189 234.488318 
L 155.089554 233.369954 
L 156.661886 233.369954 
L 156.661886 232.251589 
L 158.132707 232.251589 
L 158.147858 230.01486 
L 158.4034 230.01486 
L 158.4034 228.337313 
L 161.35727 228.337313 
L 161.35727 227.218949 
L 162.095093 227.218949 
L 162.095093 226.100584 
L 163.691712 226.100584 
L 163.724588 222.186309 
L 163.833723 222.186309 
L 163.931355 220.508762 
L 165.253008 220.508762 
L 165.253008 219.94958 
L 165.382734 219.94958 
L 165.382734 218.831215 
L 165.756415 218.831215 
L 165.756415 217.712851 
L 166.302131 217.712851 
L 166.302131 216.035304 
L 166.489577 216.035304 
L 166.489577 215.476122 
L 167.048979 215.476122 
L 167.048979 213.798575 
L 167.264176 213.798575 
L 167.299782 207.64757 
L 168.022429 207.64757 
L 168.132912 203.174112 
L 168.208987 203.174112 
L 168.208987 201.496566 
L 168.32666 201.496566 
L 168.32666 200.937384 
L 168.927521 200.937384 
L 168.927521 200.378201 
L 169.200362 200.378201 
L 169.200362 199.259837 
L 169.31937 199.259837 
L 169.429706 196.463926 
L 169.53153 196.463926 
L 169.53153 195.345561 
L 169.864099 195.345561 
L 169.864099 194.227197 
L 170.584146 194.227197 
L 170.584146 191.990468 
L 170.933166 191.990468 
L 170.933166 191.431285 
L 171.190358 191.431285 
L 171.190358 190.872103 
L 171.436768 190.872103 
L 171.436768 190.312921 
L 171.720999 190.312921 
L 171.782767 189.194556 
L 171.885223 189.194556 
L 171.885223 188.635374 
L 172.17559 188.635374 
L 172.275737 183.602734 
L 172.421573 183.602734 
L 172.454546 182.48437 
L 172.533423 182.48437 
L 172.533423 181.925187 
L 172.793763 181.925187 
L 172.793763 181.366005 
L 173.018371 181.366005 
L 173.062942 179.688458 
L 173.601304 179.688458 
L 173.632092 174.655818 
L 173.730243 174.655818 
L 173.754693 173.537454 
L 173.876426 173.537454 
L 173.876426 172.978271 
L 174.182998 172.978271 
L 174.182998 171.300725 
L 174.349016 171.300725 
L 174.349016 169.623178 
L 174.854857 169.623178 
L 174.917767 167.945631 
L 175.0429 167.945631 
L 175.0429 166.827267 
L 175.256916 166.827267 
L 175.256916 165.708902 
L 175.379612 165.708902 
L 175.468299 162.353809 
L 175.512472 162.353809 
L 175.523497 160.676262 
L 175.726202 160.676262 
L 175.726202 160.11708 
L 176.461828 160.11708 
L 176.555499 157.880351 
L 176.684757 157.880351 
L 176.736189 156.761987 
L 176.797706 156.761987 
L 176.859002 152.847711 
L 176.915 152.847711 
L 176.975881 151.729346 
L 177.061761 151.729346 
L 177.167259 147.255888 
L 177.24222 147.255888 
L 177.24222 146.137524 
L 177.504496 146.137524 
L 177.60732 143.341613 
L 178.173924 143.341613 
L 178.188088 141.664066 
L 178.361831 141.664066 
L 178.468955 138.868155 
L 178.473597 138.868155 
L 178.566184 134.394697 
L 178.607685 134.394697 
L 178.694972 131.039603 
L 178.890895 131.039603 
L 178.981267 127.68451 
L 179.098044 127.68451 
L 179.142748 126.566145 
L 179.31157 126.566145 
L 179.42174 123.770234 
L 179.448076 123.770234 
L 179.47875 122.092688 
L 179.60525 122.092688 
L 179.60525 121.533505 
L 179.893997 121.533505 
L 179.975005 120.415141 
L 180.055633 120.415141 
L 180.114802 116.500865 
L 180.173768 116.500865 
L 180.278565 114.264136 
L 180.453197 114.264136 
L 180.494516 112.027407 
L 180.613782 112.027407 
L 180.613782 110.909043 
L 180.768819 110.909043 
L 180.805334 108.672314 
L 181.042811 108.672314 
L 181.042811 108.113132 
L 181.201966 108.113132 
L 181.292818 106.435585 
L 181.320373 106.435585 
L 181.426246 104.758038 
L 181.53924 104.758038 
L 181.593524 100.28458 
L 181.670776 100.28458 
L 181.670776 99.725398 
L 181.961209 99.725398 
L 182.063219 98.047851 
L 182.22444 98.047851 
L 182.302629 96.370304 
L 182.406332 96.370304 
L 182.43216 94.692758 
L 182.560722 94.692758 
L 182.666521 92.456029 
L 182.717364 92.456029 
L 182.74997 89.660118 
L 182.872592 89.660118 
L 182.92283 88.541753 
L 183.00148 88.541753 
L 183.00148 86.864206 
L 183.143565 86.864206 
L 183.143565 84.627477 
L 183.309028 84.627477 
L 183.344028 82.949931 
L 183.420779 82.949931 
L 183.493723 80.713202 
L 183.830092 80.713202 
L 183.938517 76.798926 
L 183.97563 76.798926 
L 183.99584 75.680562 
L 184.106573 75.680562 
L 184.13331 72.88465 
L 184.249798 72.88465 
L 184.352319 67.85201 
L 184.636813 67.85201 
L 184.733833 66.174463 
L 184.759613 66.174463 
L 184.849538 63.378552 
L 184.96447 63.378552 
L 184.993084 61.141823 
L 185.078639 61.141823 
L 185.078639 60.582641 
L 185.248482 60.582641 
L 185.354566 58.905094 
L 185.370111 58.905094 
L 185.456907 56.109183 
L 185.632256 56.109183 
L 185.632256 52.75409 
L 185.929613 52.75409 
L 186.040556 48.839814 
L 186.218955 48.839814 
L 186.218955 46.603085 
L 186.570294 46.603085 
L 186.662784 44.925538 
L 186.800592 44.925538 
L 186.908912 42.688809 
L 186.974144 42.688809 
L 186.974144 41.570445 
L 187.173965 41.570445 
L 187.218676 38.774534 
L 187.349347 38.774534 
L 187.393604 37.656169 
L 187.577706 37.656169 
L 187.577706 37.096987 
L 187.886492 37.096987 
L 187.92939 34.860258 
L 188.036169 34.860258 
L 188.073385 33.182711 
L 188.160792 33.182711 
L 188.181915 32.064347 
L 188.420377 32.064347 
L 188.420377 30.945982 
L 188.681226 30.945982 
L 188.681226 30.3868 
L 189.362178 30.3868 
L 189.362178 29.827618 
L 189.51913 29.827618 
L 189.60679 27.590889 
L 190.095259 27.590889 
L 190.095259 26.472524 
L 190.387848 26.472524 
L 190.387848 25.35416 
L 190.620676 25.35416 
L 190.620676 24.794978 
L 191.110491 24.794978 
L 191.110491 24.235795 
L 191.878619 24.235795 
L 191.942343 21.999066 
L 192.153069 21.999066 
L 192.153069 18.643973 
L 193.727036 18.643973 
L 193.727036 15.848062 
L 193.920873 15.848062 
L 193.920873 14.170515 
L 194.999349 14.170515 
L 195.079028 12.492968 
L 195.121373 12.492968 
L 195.121373 10.815422 
L 195.694987 10.815422 
L 195.694987 9.697057 
L 333.168 9.697057 
L 333.168 9.697057 
" style="fill:none;stroke:#000080;stroke-linecap:square;stroke-width:1.5;"/>
   </g>
   <g id="line2d_39">
    <defs>
     <path d="M 0 6 
C 1.591219 6 3.117479 5.367802 4.242641 4.242641 
C 5.367802 3.117479 6 1.591219 6 0 
C 6 -1.591219 5.367802 -3.117479 4.242641 -4.242641 
C 3.117479 -5.367802 1.591219 -6 0 -6 
C -1.591219 -6 -3.117479 -5.367802 -4.242641 -4.242641 
C -5.367802 -3.117479 -6 -1.591219 -6 0 
C -6 1.591219 -5.367802 3.117479 -4.242641 4.242641 
C -3.117479 5.367802 -1.591219 6 0 6 
z
" id="m8e97efc676" style="stroke:#000080;stroke-width:1.5;"/>
    </defs>
    <g>
     <use style="fill-opacity:0;stroke:#000080;stroke-width:1.5;" x="163.691712" xlink:href="#m8e97efc676" y="226.100584"/>
     <use style="fill-opacity:0;stroke:#000080;stroke-width:1.5;" x="179.448076" xlink:href="#m8e97efc676" y="123.770234"/>
     <use style="fill-opacity:0;stroke:#000080;stroke-width:1.5;" x="195.694987" xlink:href="#m8e97efc676" y="10.815422"/>
     <use style="fill-opacity:0;stroke:#000080;stroke-width:1.5;" x="195.694987" xlink:href="#m8e97efc676" y="9.697057"/>
     <use style="fill-opacity:0;stroke:#000080;stroke-width:1.5;" x="333.168" xlink:href="#m8e97efc676" y="9.697057"/>
    </g>
   </g>
   <g id="line2d_40">
    <path style="fill:none;stroke:#000080;stroke-linecap:square;stroke-width:1.5;"/>
    <g/>
   </g>
   <g id="line2d_41">
    <defs>
     <path d="M 0 1.5 
C 0.397805 1.5 0.77937 1.341951 1.06066 1.06066 
C 1.341951 0.77937 1.5 0.397805 1.5 0 
C 1.5 -0.397805 1.341951 -0.77937 1.06066 -1.06066 
C 0.77937 -1.341951 0.397805 -1.5 0 -1.5 
C -0.397805 -1.5 -0.77937 -1.341951 -1.06066 -1.06066 
C -1.341951 -0.77937 -1.5 -0.397805 -1.5 0 
C -1.5 0.397805 -1.341951 0.77937 -1.06066 1.06066 
C -0.77937 1.341951 -0.397805 1.5 0 1.5 
z
" id="m47713488d9" style="stroke:#ff00ff;"/>
    </defs>
    <g>
     <use style="fill:#ff00ff;stroke:#ff00ff;" x="189.905353" xlink:href="#m47713488d9" y="9.697057"/>
     <use style="fill:#ff00ff;stroke:#ff00ff;" x="189.905353" xlink:href="#m47713488d9" y="9.697057"/>
    </g>
   </g>
   <g id="line2d_42">
    <path d="M 37.236359 294.88 
L 37.236359 266.920888 
L 130.784069 266.920888 
L 130.784069 264.684159 
L 131.51251 264.684159 
L 131.51251 264.124977 
L 132.684132 264.124977 
L 132.684132 263.565795 
L 137.87703 263.565795 
L 137.87703 263.006612 
L 139.519758 263.006612 
L 139.519758 262.44743 
L 139.742124 262.44743 
L 139.742124 260.210701 
L 141.141725 260.210701 
L 141.141725 255.737243 
L 141.58403 255.737243 
L 141.58403 255.178061 
L 143.391063 255.178061 
L 143.391063 254.618879 
L 143.884213 254.618879 
L 143.884213 254.059696 
L 144.125582 254.059696 
L 144.125582 253.500514 
L 144.363608 253.500514 
L 144.397345 252.38215 
L 144.56504 252.38215 
L 144.664877 250.704603 
L 144.698028 250.704603 
L 144.698028 248.467874 
L 147.726689 248.467874 
L 147.726689 247.908692 
L 147.947413 247.908692 
L 147.947413 247.34951 
L 151.411614 247.34951 
L 151.411614 246.790327 
L 151.854074 246.790327 
L 151.854074 246.231145 
L 154.255441 246.231145 
L 154.255441 244.553598 
L 154.500593 244.553598 
L 154.538 242.876052 
L 154.723825 242.876052 
L 154.723825 240.639323 
L 155.05333 240.639323 
L 155.107638 238.402594 
L 156.022705 238.402594 
L 156.125221 236.725047 
L 156.227131 236.725047 
L 156.227131 235.606682 
L 157.037519 235.606682 
L 157.037519 235.0475 
L 157.309979 235.0475 
L 157.309979 233.929136 
L 157.499736 233.929136 
L 157.499736 232.810771 
L 157.888459 232.810771 
L 157.995745 231.133225 
L 158.04152 231.133225 
L 158.04152 230.574042 
L 158.596282 230.574042 
L 158.596282 230.01486 
L 159.38919 230.01486 
L 159.38919 228.896496 
L 159.682542 228.896496 
L 159.682542 228.337313 
L 160.268033 228.337313 
L 160.268033 227.778131 
L 160.507322 227.778131 
L 160.612613 223.304673 
L 160.847184 223.304673 
L 160.847184 222.745491 
L 161.606747 222.745491 
L 161.668554 221.627126 
L 162.779425 221.627126 
L 162.779425 220.508762 
L 163.691712 220.508762 
L 163.691712 219.94958 
L 163.855467 219.94958 
L 163.909707 218.272033 
L 164.421883 218.272033 
L 164.421883 217.712851 
L 164.980407 217.712851 
L 164.980407 217.153669 
L 165.182748 217.153669 
L 165.293028 215.476122 
L 165.804984 215.476122 
L 165.804984 214.91694 
L 166.179186 214.91694 
L 166.179186 214.357757 
L 166.320968 214.357757 
L 166.320968 213.798575 
L 167.174838 213.798575 
L 167.174838 212.680211 
L 168.797611 212.680211 
L 168.838314 211.561846 
L 168.935608 211.561846 
L 168.935608 211.002664 
L 169.311462 211.002664 
L 169.390381 209.325117 
L 169.717942 209.325117 
L 169.717942 208.206753 
L 169.963389 208.206753 
L 169.963389 207.64757 
L 170.347466 207.64757 
L 170.347466 204.292477 
L 170.481 204.292477 
L 170.554739 201.496566 
L 170.853806 201.496566 
L 170.853806 199.819019 
L 171.083662 199.819019 
L 171.083662 198.700655 
L 171.317524 198.700655 
L 171.422783 194.786379 
L 171.714122 194.786379 
L 171.755342 192.54965 
L 172.335547 192.54965 
L 172.428173 191.431285 
L 173.075655 191.431285 
L 173.075655 190.312921 
L 173.309175 190.312921 
L 173.309175 189.753739 
L 173.656682 189.753739 
L 173.7608 184.721099 
L 173.791304 184.721099 
L 173.791304 183.043552 
L 173.979226 183.043552 
L 173.979226 181.925187 
L 174.283986 181.925187 
L 174.360813 180.247641 
L 174.693677 180.247641 
L 174.693677 179.129276 
L 174.843394 179.129276 
L 174.951984 175.774183 
L 175.037232 175.774183 
L 175.116416 174.096636 
L 175.290465 174.096636 
L 175.335097 171.300725 
L 175.429555 171.300725 
L 175.46277 170.18236 
L 175.747974 170.18236 
L 175.764285 169.063996 
L 176.461828 169.063996 
L 176.571062 166.268085 
L 176.705349 166.268085 
L 176.807937 164.590538 
L 176.920082 164.590538 
L 176.960681 162.353809 
L 177.056721 162.353809 
L 177.071836 160.676262 
L 177.212275 160.676262 
L 177.257174 156.761987 
L 177.38128 156.761987 
L 177.38128 156.202804 
L 177.538839 156.202804 
L 177.558433 152.847711 
L 177.704679 152.847711 
L 177.704679 152.288529 
L 178.022105 152.288529 
L 178.088691 146.696706 
L 178.333776 146.696706 
L 178.441074 143.900795 
L 178.487517 143.900795 
L 178.584641 141.664066 
L 178.790935 141.664066 
L 178.872764 139.427337 
L 178.945175 139.427337 
L 179.039755 137.74979 
L 179.066682 137.74979 
L 179.169514 134.953879 
L 179.196239 134.953879 
L 179.289451 132.157968 
L 179.32041 132.157968 
L 179.38216 130.480421 
L 179.452461 130.480421 
L 179.452461 129.362057 
L 179.622626 129.362057 
L 179.622626 128.802874 
L 179.975005 128.802874 
L 179.996259 127.125328 
L 180.089469 127.125328 
L 180.089469 125.447781 
L 180.215764 125.447781 
L 180.270204 122.092688 
L 180.395183 122.092688 
L 180.502767 118.737594 
L 180.535735 118.737594 
L 180.634261 114.264136 
L 180.699633 114.264136 
L 180.77288 112.027407 
L 180.938565 112.027407 
L 181.034815 108.113132 
L 181.066779 108.113132 
L 181.102667 105.31722 
L 181.277052 105.31722 
L 181.379272 102.521309 
L 181.465293 102.521309 
L 181.566403 100.28458 
L 181.904274 100.28458 
L 181.911877 98.607033 
L 182.082044 98.607033 
L 182.175858 95.25194 
L 182.19456 95.25194 
L 182.198298 93.015211 
L 182.34715 93.015211 
L 182.450585 89.100935 
L 182.535086 89.100935 
L 182.535086 88.541753 
L 182.851016 88.541753 
L 182.951472 87.423389 
L 183.111698 87.423389 
L 183.125869 85.18666 
L 183.452078 85.18666 
L 183.517968 78.476473 
L 183.600839 78.476473 
L 183.676454 76.798926 
L 183.830092 76.798926 
L 183.925001 75.680562 
L 183.999206 75.680562 
L 183.999206 74.562197 
L 184.13331 74.562197 
L 184.176669 69.529557 
L 184.292865 69.529557 
L 184.349021 67.85201 
L 184.450953 67.85201 
L 184.519662 63.378552 
L 184.64654 63.378552 
L 184.720929 60.023459 
L 184.884738 60.023459 
L 184.951738 58.345912 
L 185.141739 58.345912 
L 185.192054 54.990819 
L 185.264124 54.990819 
L 185.332778 47.72145 
L 185.419762 47.72145 
L 185.521717 46.043903 
L 185.616946 46.043903 
L 185.616946 44.925538 
L 185.763362 44.925538 
L 185.781577 40.45208 
L 185.917576 40.45208 
L 186.028596 35.41944 
L 186.236694 35.41944 
L 186.325113 28.709253 
L 186.459812 28.709253 
L 186.567395 25.913342 
L 186.578986 25.913342 
L 186.628158 24.235795 
L 186.78915 24.235795 
L 186.886164 20.32152 
L 186.937304 20.32152 
L 187.019377 18.643973 
L 187.070123 18.643973 
L 187.137551 17.525609 
L 187.185154 17.525609 
L 187.185154 16.407244 
L 187.886492 16.407244 
L 187.905273 13.611333 
L 188.057445 13.611333 
L 188.097268 11.374604 
L 188.650441 11.374604 
L 188.650441 10.256239 
L 189.905353 10.256239 
L 189.905353 9.697057 
L 333.168 9.697057 
L 333.168 9.697057 
" style="fill:none;stroke:#ff00ff;stroke-linecap:square;stroke-width:1.5;"/>
   </g>
   <g id="line2d_43">
    <defs>
     <path d="M -0 8.485281 
L 5.091169 0 
L 0 -8.485281 
L -5.091169 -0 
z
" id="m4d1fd40a47" style="stroke:#ff00ff;stroke-linejoin:miter;stroke-width:1.5;"/>
    </defs>
    <g>
     <use style="fill-opacity:0;stroke:#ff00ff;stroke-linejoin:miter;stroke-width:1.5;" x="173.979226" xlink:href="#m4d1fd40a47" y="181.925187"/>
     <use style="fill-opacity:0;stroke:#ff00ff;stroke-linejoin:miter;stroke-width:1.5;" x="186.78915" xlink:href="#m4d1fd40a47" y="24.235795"/>
     <use style="fill-opacity:0;stroke:#ff00ff;stroke-linejoin:miter;stroke-width:1.5;" x="189.905353" xlink:href="#m4d1fd40a47" y="9.697057"/>
     <use style="fill-opacity:0;stroke:#ff00ff;stroke-linejoin:miter;stroke-width:1.5;" x="189.905353" xlink:href="#m4d1fd40a47" y="9.697057"/>
     <use style="fill-opacity:0;stroke:#ff00ff;stroke-linejoin:miter;stroke-width:1.5;" x="333.168" xlink:href="#m4d1fd40a47" y="9.697057"/>
    </g>
   </g>
   <g id="line2d_44">
    <path style="fill:none;stroke:#ff00ff;stroke-linecap:square;stroke-width:1.5;"/>
    <g/>
   </g>
   <g id="line2d_45">
    <defs>
     <path d="M 0 1.5 
C 0.397805 1.5 0.77937 1.341951 1.06066 1.06066 
C 1.341951 0.77937 1.5 0.397805 1.5 0 
C 1.5 -0.397805 1.341951 -0.77937 1.06066 -1.06066 
C 0.77937 -1.341951 0.397805 -1.5 0 -1.5 
C -0.397805 -1.5 -0.77937 -1.341951 -1.06066 -1.06066 
C -1.341951 -0.77937 -1.5 -0.397805 -1.5 0 
C -1.5 0.397805 -1.341951 0.77937 -1.06066 1.06066 
C -0.77937 1.341951 -0.397805 1.5 0 1.5 
z
" id="me3ecb3cf68" style="stroke:#ffa500;"/>
    </defs>
    <g>
     <use style="fill:#ffa500;stroke:#ffa500;" x="192.810536" xlink:href="#me3ecb3cf68" y="9.697057"/>
     <use style="fill:#ffa500;stroke:#ffa500;" x="192.810536" xlink:href="#me3ecb3cf68" y="9.697057"/>
    </g>
   </g>
   <g id="line2d_46">
    <path d="M 49.15061 294.88 
L 49.15061 294.320818 
L 56.12 294.320818 
L 56.12 293.761636 
L 61.064861 293.761636 
L 61.064861 293.202453 
L 76.814644 293.202453 
L 76.814644 288.728995 
L 78.452896 288.728995 
L 78.452896 287.051449 
L 79.948502 287.051449 
L 79.948502 285.933084 
L 81.324327 285.933084 
L 81.324327 280.900444 
L 83.784035 280.900444 
L 83.784035 279.782079 
L 84.893363 279.782079 
L 84.893363 278.663715 
L 86.917893 278.663715 
L 86.917893 278.104533 
L 87.847234 278.104533 
L 87.847234 277.545351 
L 89.567532 277.545351 
L 89.567532 274.749439 
L 91.862754 274.749439 
L 91.862754 274.190257 
L 94.512393 274.190257 
L 94.512393 273.071893 
L 98.832144 273.071893 
L 98.832144 272.51271 
L 100.207968 272.51271 
L 100.207968 271.953528 
L 114.195649 271.953528 
L 114.195649 271.394346 
L 116.901005 271.394346 
L 116.901005 269.716799 
L 117.06708 269.716799 
L 117.06708 269.157617 
L 117.55589 269.157617 
L 117.55589 268.039252 
L 118.340895 268.039252 
L 118.340895 267.48007 
L 119.95122 267.48007 
L 119.95122 266.920888 
L 120.0904 266.920888 
L 120.0904 266.361706 
L 122.053211 266.361706 
L 122.053211 264.684159 
L 125.814387 264.684159 
L 125.814387 263.565795 
L 128.39291 263.565795 
L 128.39291 262.44743 
L 129.470141 262.44743 
L 129.470141 260.769883 
L 129.70943 260.769883 
L 129.70943 260.210701 
L 133.209017 260.210701 
L 133.273515 258.533154 
L 135.333772 258.533154 
L 135.333772 257.41479 
L 135.72893 257.41479 
L 135.784647 256.296425 
L 137.018682 256.296425 
L 137.018682 255.737243 
L 137.975251 255.737243 
L 137.975251 255.178061 
L 140.519632 255.178061 
L 140.519632 254.059696 
L 140.812746 254.059696 
L 140.812746 253.500514 
L 141.263487 253.500514 
L 141.344185 252.38215 
L 141.58403 252.38215 
L 141.66324 249.586238 
L 141.702709 249.586238 
L 141.702709 249.027056 
L 142.130987 249.027056 
L 142.130987 248.467874 
L 143.319443 248.467874 
L 143.319443 247.908692 
L 144.531632 247.908692 
L 144.531632 246.790327 
L 145.090928 246.790327 
L 145.090928 246.231145 
L 145.284061 246.231145 
L 145.284061 245.671963 
L 147.361855 245.671963 
L 147.390196 244.553598 
L 147.474939 244.553598 
L 147.474939 243.435234 
L 147.837405 243.435234 
L 147.837405 242.876052 
L 148.002154 242.876052 
L 148.002154 242.316869 
L 148.21939 242.316869 
L 148.273273 241.198505 
L 148.540183 241.198505 
L 148.540183 240.639323 
L 149.593139 240.639323 
L 149.593139 240.08014 
L 149.987165 240.08014 
L 150.084276 236.725047 
L 150.514612 236.725047 
L 150.538207 235.606682 
L 151.276624 235.606682 
L 151.276624 235.0475 
L 152.306716 235.0475 
L 152.306716 233.929136 
L 152.622886 233.929136 
L 152.622886 233.369954 
L 152.953845 233.369954 
L 152.953845 231.692407 
L 153.358778 231.692407 
L 153.358778 230.01486 
L 154.406717 230.01486 
L 154.481859 228.896496 
L 154.815989 228.896496 
L 154.815989 228.337313 
L 155.089554 228.337313 
L 155.143749 226.659767 
L 155.323172 226.659767 
L 155.323172 223.863855 
L 157.085915 223.863855 
L 157.166274 222.186309 
L 157.26221 222.186309 
L 157.26221 221.627126 
L 157.656282 221.627126 
L 157.718503 217.153669 
L 158.343613 217.153669 
L 158.343613 214.357757 
L 158.946785 214.357757 
L 158.990099 212.680211 
L 159.147992 212.680211 
L 159.162274 211.561846 
L 159.445454 211.561846 
L 159.529506 210.443482 
L 159.792992 210.443482 
L 159.792992 209.884299 
L 159.957346 209.884299 
L 159.957346 208.765935 
L 160.560048 208.765935 
L 160.560048 208.206753 
L 161.231161 208.206753 
L 161.269091 207.088388 
L 161.815992 207.088388 
L 161.877052 205.970024 
L 161.974301 205.970024 
L 161.998527 204.292477 
L 162.310402 204.292477 
L 162.310402 203.174112 
L 162.825631 203.174112 
L 162.825631 202.61493 
L 163.625771 202.61493 
L 163.68074 200.937384 
L 163.779242 200.937384 
L 163.844598 198.700655 
L 164.796241 198.700655 
L 164.796241 197.58229 
L 165.412532 197.58229 
L 165.412532 195.904743 
L 165.988305 195.904743 
L 165.988305 194.786379 
L 166.169692 194.786379 
L 166.254949 193.668014 
L 166.339784 193.668014 
L 166.339784 193.108832 
L 166.591808 193.108832 
L 166.591808 192.54965 
L 166.73943 192.54965 
L 166.73943 191.990468 
L 167.039954 191.990468 
L 167.039954 191.431285 
L 167.335314 191.431285 
L 167.335314 189.753739 
L 167.529438 189.753739 
L 167.573253 188.076192 
L 167.695344 188.076192 
L 167.695344 186.957828 
L 167.825201 186.957828 
L 167.825201 183.602734 
L 168.030953 183.602734 
L 168.030953 183.043552 
L 168.208987 183.043552 
L 168.208987 181.366005 
L 168.376846 181.366005 
L 168.376846 180.806823 
L 168.88703 180.806823 
L 168.88703 180.247641 
L 169.032355 180.247641 
L 169.032355 179.129276 
L 169.523718 179.129276 
L 169.547142 175.215 
L 169.679273 175.215 
L 169.679273 174.096636 
L 169.902355 174.096636 
L 169.986221 170.18236 
L 170.122579 170.18236 
L 170.20538 168.504814 
L 170.257864 168.504814 
L 170.310189 164.031356 
L 171.289346 164.031356 
L 171.338628 162.912991 
L 171.789617 162.912991 
L 171.789617 161.794627 
L 172.081589 161.794627 
L 172.081589 160.676262 
L 172.302345 160.676262 
L 172.302345 160.11708 
L 172.520302 160.11708 
L 172.61194 156.202804 
L 173.018371 156.202804 
L 173.018371 155.643622 
L 173.377992 155.643622 
L 173.377992 155.08444 
L 173.490011 155.08444 
L 173.576635 150.0518 
L 173.961129 150.0518 
L 173.961129 147.815071 
L 174.425554 147.815071 
L 174.431428 145.578342 
L 174.682106 145.578342 
L 174.682106 145.019159 
L 174.951984 145.019159 
L 174.951984 143.900795 
L 175.523497 143.900795 
L 175.589502 139.986519 
L 175.980293 139.986519 
L 176.087287 138.308973 
L 176.23597 138.308973 
L 176.336134 136.631426 
L 176.638336 136.631426 
L 176.736189 133.835515 
L 176.761848 133.835515 
L 176.807937 131.039603 
L 176.915 131.039603 
L 177.00624 125.447781 
L 177.376333 125.447781 
L 177.376333 124.888599 
L 177.533937 124.888599 
L 177.533937 123.770234 
L 177.767667 123.770234 
L 177.767667 122.65187 
L 177.998262 122.65187 
L 178.003033 119.855959 
L 178.13136 119.855959 
L 178.13136 119.296776 
L 178.338455 119.296776 
L 178.338455 118.737594 
L 178.501425 118.737594 
L 178.603079 116.500865 
L 178.662865 116.500865 
L 178.694972 114.264136 
L 178.781818 114.264136 
L 178.827351 112.586589 
L 179.133816 112.586589 
L 179.133816 110.909043 
L 179.245128 110.909043 
L 179.245128 109.790678 
L 179.47875 109.790678 
L 179.47875 108.113132 
L 180.000507 108.113132 
L 180.000507 107.553949 
L 180.399333 107.553949 
L 180.444921 105.876403 
L 180.511015 105.876403 
L 180.511015 105.31722 
L 180.801281 105.31722 
L 180.890237 103.080491 
L 180.926495 103.080491 
L 180.926495 102.521309 
L 181.102667 102.521309 
L 181.166285 100.28458 
L 181.237574 100.28458 
L 181.265218 99.166216 
L 181.663067 99.166216 
L 181.663067 98.607033 
L 181.786008 98.607033 
L 181.870023 96.370304 
L 182.130891 96.370304 
L 182.220708 93.015211 
L 182.380465 93.015211 
L 182.380465 91.896847 
L 182.560722 91.896847 
L 182.641043 88.541753 
L 182.691961 88.541753 
L 182.691961 87.982571 
L 182.947894 87.982571 
L 182.947894 87.423389 
L 183.104609 87.423389 
L 183.178904 84.068295 
L 183.238813 84.068295 
L 183.305524 80.713202 
L 183.424259 80.713202 
L 183.483321 76.798926 
L 183.628374 76.798926 
L 183.700443 72.88465 
L 183.76539 72.88465 
L 183.796069 70.088739 
L 183.908091 70.088739 
L 184.012664 66.174463 
L 184.153336 66.174463 
L 184.153336 65.615281 
L 184.565316 65.615281 
L 184.594601 63.937735 
L 184.717701 63.937735 
L 184.807846 62.81937 
L 184.862347 62.81937 
L 184.951738 60.023459 
L 185.056499 60.023459 
L 185.166915 57.78673 
L 185.192054 57.78673 
L 185.232826 55.550001 
L 185.326548 55.550001 
L 185.326548 53.313272 
L 185.453815 53.313272 
L 185.558643 49.398996 
L 185.745128 49.398996 
L 185.796741 47.72145 
L 185.863305 47.72145 
L 185.950657 43.807174 
L 185.980676 43.807174 
L 185.980676 43.247992 
L 186.106184 43.247992 
L 186.106184 42.688809 
L 186.928792 42.688809 
L 187.002429 40.45208 
L 187.357654 40.45208 
L 187.379786 37.656169 
L 187.470783 37.656169 
L 187.470783 37.096987 
L 187.640454 37.096987 
L 187.716534 34.860258 
L 187.819249 34.860258 
L 187.907955 30.945982 
L 187.996205 30.945982 
L 188.054787 29.268436 
L 188.179276 29.268436 
L 188.245128 27.031707 
L 188.461964 27.031707 
L 188.461964 25.913342 
L 188.575814 25.913342 
L 188.59128 22.558249 
L 188.841952 22.558249 
L 188.872397 21.439884 
L 189.00622 21.439884 
L 189.038886 20.32152 
L 189.253435 20.32152 
L 189.302949 18.084791 
L 189.423658 18.084791 
L 189.465339 16.966426 
L 189.797602 16.966426 
L 189.84797 14.729697 
L 190.052713 14.729697 
L 190.052713 13.611333 
L 190.501198 13.611333 
L 190.501198 13.052151 
L 190.931534 13.052151 
L 190.931534 11.933786 
L 191.604041 11.933786 
L 191.604041 11.374604 
L 192.810536 11.374604 
L 192.810536 9.697057 
L 333.168 9.697057 
L 333.168 9.697057 
" style="fill:none;stroke:#ffa500;stroke-linecap:square;stroke-width:1.5;"/>
   </g>
   <g id="line2d_47">
    <defs>
     <path d="M 0 -6 
L -1.347084 -1.854102 
L -5.706339 -1.854102 
L -2.179628 0.708204 
L -3.526712 4.854102 
L -0 2.291796 
L 3.526712 4.854102 
L 2.179628 0.708204 
L 5.706339 -1.854102 
L 1.347084 -1.854102 
z
" id="ma2148f717f" style="stroke:#ffa500;stroke-linejoin:bevel;stroke-width:1.5;"/>
    </defs>
    <g>
     <use style="fill-opacity:0;stroke:#ffa500;stroke-linejoin:bevel;stroke-width:1.5;" x="122.053211" xlink:href="#ma2148f717f" y="266.361706"/>
     <use style="fill-opacity:0;stroke:#ffa500;stroke-linejoin:bevel;stroke-width:1.5;" x="171.338628" xlink:href="#ma2148f717f" y="163.472173"/>
     <use style="fill-opacity:0;stroke:#ffa500;stroke-linejoin:bevel;stroke-width:1.5;" x="185.863305" xlink:href="#ma2148f717f" y="46.603085"/>
     <use style="fill-opacity:0;stroke:#ffa500;stroke-linejoin:bevel;stroke-width:1.5;" x="192.810536" xlink:href="#ma2148f717f" y="11.374604"/>
     <use style="fill-opacity:0;stroke:#ffa500;stroke-linejoin:bevel;stroke-width:1.5;" x="192.810536" xlink:href="#ma2148f717f" y="9.697057"/>
     <use style="fill-opacity:0;stroke:#ffa500;stroke-linejoin:bevel;stroke-width:1.5;" x="333.168" xlink:href="#ma2148f717f" y="9.697057"/>
    </g>
   </g>
   <g id="line2d_48">
    <path style="fill:none;stroke:#ffa500;stroke-linecap:square;stroke-width:1.5;"/>
    <g/>
   </g>
   <g id="line2d_49">
    <defs>
     <path d="M 0 1.5 
C 0.397805 1.5 0.77937 1.341951 1.06066 1.06066 
C 1.341951 0.77937 1.5 0.397805 1.5 0 
C 1.5 -0.397805 1.341951 -0.77937 1.06066 -1.06066 
C 0.77937 -1.341951 0.397805 -1.5 0 -1.5 
C -0.397805 -1.5 -0.77937 -1.341951 -1.06066 -1.06066 
C -1.341951 -0.77937 -1.5 -0.397805 -1.5 0 
C -1.5 0.397805 -1.341951 0.77937 -1.06066 1.06066 
C -0.77937 1.341951 -0.397805 1.5 0 1.5 
z
" id="m8cb4594aec" style="stroke:#6495ed;"/>
    </defs>
    <g>
     <use style="fill:#6495ed;stroke:#6495ed;" x="211.802019" xlink:href="#m8cb4594aec" y="9.697057"/>
     <use style="fill:#6495ed;stroke:#6495ed;" x="211.802019" xlink:href="#m8cb4594aec" y="9.697057"/>
    </g>
   </g>
   <g id="line2d_50">
    <path d="M 37.236359 294.88 
L 37.236359 285.933084 
L 49.15061 285.933084 
L 49.15061 284.81472 
L 56.12 284.81472 
L 56.12 283.137173 
L 61.064861 283.137173 
L 61.064861 281.459626 
L 68.034251 281.459626 
L 68.034251 279.222897 
L 70.68389 279.222897 
L 70.68389 276.426986 
L 76.814644 276.426986 
L 76.814644 275.867804 
L 78.452896 275.867804 
L 78.452896 274.749439 
L 79.948502 274.749439 
L 79.948502 271.394346 
L 82.598142 271.394346 
L 82.598142 270.275981 
L 83.784035 270.275981 
L 83.784035 268.598435 
L 84.893363 268.598435 
L 84.893363 268.039252 
L 85.935418 268.039252 
L 85.935418 266.920888 
L 90.367147 266.920888 
L 90.367147 266.361706 
L 91.131212 266.361706 
L 91.131212 265.802523 
L 91.862754 265.802523 
L 91.862754 261.888248 
L 93.887283 261.888248 
L 93.887283 260.769883 
L 95.698286 260.769883 
L 95.698286 257.973972 
L 99.303095 257.973972 
L 99.303095 251.263785 
L 107.896653 251.263785 
L 107.896653 250.704603 
L 111.900428 250.704603 
L 111.900428 250.145421 
L 113.396034 250.145421 
L 113.396034 249.586238 
L 113.999206 249.586238 
L 113.999206 248.467874 
L 116.73331 248.467874 
L 116.73331 247.34951 
L 118.645127 247.34951 
L 118.645127 246.231145 
L 119.09161 246.231145 
L 119.09161 245.112781 
L 121.034327 245.112781 
L 121.034327 243.994416 
L 122.053211 243.994416 
L 122.053211 243.435234 
L 127.151955 243.435234 
L 127.243628 242.316869 
L 129.70943 242.316869 
L 129.70943 241.757687 
L 131.583684 241.757687 
L 131.583684 239.520958 
L 132.684132 239.520958 
L 132.684132 237.843411 
L 133.529112 237.843411 
L 133.529112 237.284229 
L 133.718347 237.284229 
L 133.718347 235.0475 
L 138.458109 235.0475 
L 138.458109 234.488318 
L 138.788217 234.488318 
L 138.788217 232.810771 
L 143.391063 232.810771 
L 143.391063 232.251589 
L 145.443364 232.251589 
L 145.475048 230.574042 
L 146.518964 230.574042 
L 146.518964 229.455678 
L 148.21939 229.455678 
L 148.21939 228.896496 
L 148.566647 228.896496 
L 148.566647 227.778131 
L 148.9588 227.778131 
L 148.9588 226.100584 
L 151.026355 226.100584 
L 151.026355 224.98222 
L 151.788427 224.98222 
L 151.788427 223.863855 
L 152.114184 223.863855 
L 152.114184 222.186309 
L 152.497115 222.186309 
L 152.497115 220.508762 
L 152.706225 220.508762 
L 152.706225 219.94958 
L 152.851103 219.94958 
L 152.851103 219.390397 
L 153.478421 219.390397 
L 153.478421 218.831215 
L 153.890733 218.831215 
L 153.890733 216.594486 
L 154.444329 216.594486 
L 154.444329 216.035304 
L 155.447664 216.035304 
L 155.447664 214.91694 
L 156.445883 214.91694 
L 156.512635 212.680211 
L 156.956555 212.680211 
L 157.021357 208.206753 
L 157.118104 208.206753 
L 157.134175 205.970024 
L 157.420925 205.970024 
L 157.420925 204.292477 
L 157.765022 204.292477 
L 157.765022 203.174112 
L 157.888459 203.174112 
L 157.888459 202.61493 
L 158.07197 202.61493 
L 158.162995 190.872103 
L 158.208328 190.872103 
L 158.208328 190.312921 
L 158.975673 190.312921 
L 158.975673 188.076192 
L 159.105074 188.076192 
L 159.105074 187.51701 
L 159.233507 187.51701 
L 159.233507 186.957828 
L 159.585313 186.957828 
L 159.599237 184.161916 
L 161.705532 184.161916 
L 161.705532 183.043552 
L 161.840442 183.043552 
L 161.877052 179.129276 
L 162.155172 179.129276 
L 162.191119 177.451729 
L 162.357885 177.451729 
L 162.357885 175.774183 
L 162.593349 175.774183 
L 162.593349 171.300725 
L 162.814092 171.300725 
L 162.814092 165.14972 
L 162.929143 165.14972 
L 162.929143 163.472173 
L 163.337066 163.472173 
L 163.337066 152.847711 
L 163.877183 152.847711 
L 163.877183 139.986519 
L 164.369237 139.986519 
L 164.463883 138.308973 
L 164.682717 138.308973 
L 164.682717 136.072244 
L 165.332955 136.072244 
L 165.332955 134.394697 
L 165.609878 134.394697 
L 165.668643 128.243692 
L 165.853416 128.243692 
L 165.853416 127.68451 
L 166.292705 127.68451 
L 166.39611 126.566145 
L 166.405479 126.566145 
L 166.405479 117.61923 
L 166.647315 117.61923 
L 166.711847 108.672314 
L 166.812768 108.672314 
L 166.812768 107.553949 
L 167.129994 107.553949 
L 167.210629 101.402945 
L 167.308672 101.402945 
L 167.308672 100.843762 
L 167.582003 100.843762 
L 167.582003 90.778482 
L 168.082008 90.778482 
L 168.132912 81.272384 
L 168.715916 81.272384 
L 168.715916 80.713202 
L 168.895136 80.713202 
L 168.895136 68.970375 
L 169.609448 68.970375 
L 169.702485 67.85201 
L 169.756525 67.85201 
L 169.787329 66.174463 
L 169.909996 66.174463 
L 169.909996 65.615281 
L 170.077246 65.615281 
L 170.077246 63.378552 
L 170.458816 63.378552 
L 170.458816 62.260188 
L 170.664758 62.260188 
L 170.664758 60.023459 
L 171.27524 60.023459 
L 171.338628 57.227548 
L 171.478658 57.227548 
L 171.478658 54.990819 
L 171.926035 54.990819 
L 171.926035 53.872454 
L 172.308991 53.872454 
L 172.308991 52.75409 
L 172.553086 52.75409 
L 172.553086 51.635725 
L 173.440315 51.635725 
L 173.440315 49.958178 
L 173.607466 49.958178 
L 173.607466 49.398996 
L 174.123316 49.398996 
L 174.123316 48.839814 
L 174.991819 48.839814 
L 174.991819 47.72145 
L 175.627888 47.72145 
L 175.627888 46.603085 
L 175.802282 46.603085 
L 175.802282 46.043903 
L 176.534728 46.043903 
L 176.534728 45.484721 
L 177.54374 45.484721 
L 177.54374 44.366356 
L 178.045915 44.366356 
L 178.045915 39.892898 
L 180.000507 39.892898 
L 180.000507 38.774534 
L 184.675687 38.774534 
L 184.675687 38.215351 
L 184.967652 38.215351 
L 184.980372 35.41944 
L 185.398058 35.41944 
L 185.398058 25.35416 
L 186.737567 25.35416 
L 186.737567 21.999066 
L 187.266055 21.999066 
L 187.266055 20.880702 
L 196.177312 20.880702 
L 196.177312 20.32152 
L 196.758984 20.32152 
L 196.758984 19.762337 
L 197.544976 19.762337 
L 197.544976 18.643973 
L 198.085814 18.643973 
L 198.085814 16.966426 
L 198.303917 16.966426 
L 198.303917 16.407244 
L 198.468598 16.407244 
L 198.468598 15.848062 
L 198.591441 15.848062 
L 198.628842 14.170515 
L 198.777638 14.170515 
L 198.777638 13.611333 
L 198.967476 13.611333 
L 198.998444 11.933786 
L 199.156633 11.933786 
L 199.156633 11.374604 
L 209.19939 11.374604 
L 209.19939 10.256239 
L 211.802019 10.256239 
L 211.802019 9.697057 
L 333.168 9.697057 
L 333.168 9.697057 
" style="fill:none;stroke:#6495ed;stroke-linecap:square;stroke-width:1.5;"/>
   </g>
   <g id="line2d_51">
    <defs>
     <path d="M -0 6 
L 6 -6 
L -6 -6 
z
" id="m00ea15f6a3" style="stroke:#6495ed;stroke-linejoin:miter;stroke-width:1.5;"/>
    </defs>
    <g>
     <use style="fill-opacity:0;stroke:#6495ed;stroke-linejoin:miter;stroke-width:1.5;" x="93.887283" xlink:href="#m00ea15f6a3" y="260.769883"/>
     <use style="fill-opacity:0;stroke:#6495ed;stroke-linejoin:miter;stroke-width:1.5;" x="164.463883" xlink:href="#m00ea15f6a3" y="138.308973"/>
     <use style="fill-opacity:0;stroke:#6495ed;stroke-linejoin:miter;stroke-width:1.5;" x="184.980372" xlink:href="#m00ea15f6a3" y="37.096987"/>
     <use style="fill-opacity:0;stroke:#6495ed;stroke-linejoin:miter;stroke-width:1.5;" x="211.802019" xlink:href="#m00ea15f6a3" y="9.697057"/>
     <use style="fill-opacity:0;stroke:#6495ed;stroke-linejoin:miter;stroke-width:1.5;" x="211.802019" xlink:href="#m00ea15f6a3" y="9.697057"/>
     <use style="fill-opacity:0;stroke:#6495ed;stroke-linejoin:miter;stroke-width:1.5;" x="333.168" xlink:href="#m00ea15f6a3" y="9.697057"/>
    </g>
   </g>
   <g id="line2d_52">
    <path style="fill:none;stroke:#6495ed;stroke-linecap:square;stroke-width:1.5;"/>
    <g/>
   </g>
   <g id="line2d_53">
    <path clip-path="url(#pac6b6dc968)" d="M 195.722236 20.880702 
" style="fill:none;stroke:#6495ed;stroke-linecap:square;stroke-width:1.5;"/>
    <defs>
     <path d="M -12 12 
L 12 -12 
M -12 -12 
L 12 12 
" id="mc315fd157c" style="stroke:#6495ed;"/>
    </defs>
    <g clip-path="url(#pac6b6dc968)">
     <use style="fill:#6495ed;stroke:#6495ed;" x="195.722236" xlink:href="#mc315fd157c" y="20.880702"/>
    </g>
   </g>
   <g id="line2d_54">
    <path d="M 333.168 9.697057 
L 363.64328 289.176341 
" style="fill:none;stroke:#6495ed;stroke-linecap:square;stroke-width:1.5;"/>
    <g>
     <use style="fill-opacity:0;stroke:#6495ed;stroke-linejoin:miter;stroke-width:1.5;" x="333.168" xlink:href="#m00ea15f6a3" y="9.697057"/>
     <use style="fill-opacity:0;stroke:#6495ed;stroke-linejoin:miter;stroke-width:1.5;" x="363.64328" xlink:href="#m00ea15f6a3" y="289.176341"/>
    </g>
   </g>
   <g id="line2d_55">
    <path d="M 333.168 9.697057 
L 363.64328 197.917799 
" style="fill:none;stroke:#000080;stroke-linecap:square;stroke-width:1.5;"/>
    <g>
     <use style="fill-opacity:0;stroke:#000080;stroke-width:1.5;" x="333.168" xlink:href="#m8e97efc676" y="9.697057"/>
     <use style="fill-opacity:0;stroke:#000080;stroke-width:1.5;" x="363.64328" xlink:href="#m8e97efc676" y="197.917799"/>
    </g>
   </g>
   <g id="line2d_56">
    <path d="M 333.168 9.697057 
L 363.64328 106.659258 
" style="fill:none;stroke:#ffa500;stroke-linecap:square;stroke-width:1.5;"/>
    <g>
     <use style="fill-opacity:0;stroke:#ffa500;stroke-linejoin:bevel;stroke-width:1.5;" x="333.168" xlink:href="#ma2148f717f" y="9.697057"/>
     <use style="fill-opacity:0;stroke:#ffa500;stroke-linejoin:bevel;stroke-width:1.5;" x="363.64328" xlink:href="#ma2148f717f" y="106.659258"/>
    </g>
   </g>
   <g id="line2d_57">
    <path d="M 333.168 9.697057 
L 363.64328 15.400716 
" style="fill:none;stroke:#ff00ff;stroke-linecap:square;stroke-width:1.5;"/>
    <g>
     <use style="fill-opacity:0;stroke:#ff00ff;stroke-linejoin:miter;stroke-width:1.5;" x="333.168" xlink:href="#m4d1fd40a47" y="9.697057"/>
     <use style="fill-opacity:0;stroke:#ff00ff;stroke-linejoin:miter;stroke-width:1.5;" x="363.64328" xlink:href="#m4d1fd40a47" y="15.400716"/>
    </g>
   </g>
   <g id="line2d_58">
    <path d="M 333.168 294.88 
L 333.168 9.697057 
" style="fill:none;stroke:#000000;stroke-linecap:square;stroke-width:1.5;"/>
   </g>
   <g id="patch_3">
    <path d="M 56.12 294.88 
L 56.12 6.845228 
" style="fill:none;stroke:#000000;stroke-linecap:square;stroke-linejoin:miter;stroke-width:0.8;"/>
   </g>
   <g id="patch_4">
    <path d="M 333.168 294.88 
L 333.168 6.845228 
" style="fill:none;stroke:#000000;stroke-linecap:square;stroke-linejoin:miter;stroke-width:0.8;"/>
   </g>
   <g id="patch_5">
    <path d="M 56.12 294.88 
L 333.168 294.88 
" style="fill:none;stroke:#000000;stroke-linecap:square;stroke-linejoin:miter;stroke-width:0.8;"/>
   </g>
   <g id="patch_6">
    <path d="M 56.12 6.845228 
L 333.168 6.845228 
" style="fill:none;stroke:#000000;stroke-linecap:square;stroke-linejoin:miter;stroke-width:0.8;"/>
   </g>
   <g id="text_13">
    <!-- f7 -->
    <defs>
     <path d="M 8.203125 72.90625 
L 55.078125 72.90625 
L 55.078125 68.703125 
L 28.609375 0 
L 18.3125 0 
L 43.21875 64.59375 
L 8.203125 64.59375 
z
" id="DejaVuSans-37"/>
    </defs>
    <g transform="translate(369.18424 293.867279)scale(0.17 -0.17)">
     <use xlink:href="#DejaVuSans-66"/>
     <use x="35.205078" xlink:href="#DejaVuSans-37"/>
    </g>
   </g>
   <g id="text_14">
    <!-- f8 -->
    <g transform="translate(369.18424 202.608737)scale(0.17 -0.17)">
     <use xlink:href="#DejaVuSans-66"/>
     <use x="35.205078" xlink:href="#DejaVuSans-38"/>
    </g>
   </g>
   <g id="text_15">
    <!-- f6 -->
    <g transform="translate(369.18424 111.350195)scale(0.17 -0.17)">
     <use xlink:href="#DejaVuSans-66"/>
     <use x="35.205078" xlink:href="#DejaVuSans-36"/>
    </g>
   </g>
   <g id="text_16">
    <!-- f9 -->
    <defs>
     <path d="M 10.984375 1.515625 
L 10.984375 10.5 
Q 14.703125 8.734375 18.5 7.8125 
Q 22.3125 6.890625 25.984375 6.890625 
Q 35.75 6.890625 40.890625 13.453125 
Q 46.046875 20.015625 46.78125 33.40625 
Q 43.953125 29.203125 39.59375 26.953125 
Q 35.25 24.703125 29.984375 24.703125 
Q 19.046875 24.703125 12.671875 31.3125 
Q 6.296875 37.9375 6.296875 49.421875 
Q 6.296875 60.640625 12.9375 67.421875 
Q 19.578125 74.21875 30.609375 74.21875 
Q 43.265625 74.21875 49.921875 64.515625 
Q 56.59375 54.828125 56.59375 36.375 
Q 56.59375 19.140625 48.40625 8.859375 
Q 40.234375 -1.421875 26.421875 -1.421875 
Q 22.703125 -1.421875 18.890625 -0.6875 
Q 15.09375 0.046875 10.984375 1.515625 
z
M 30.609375 32.421875 
Q 37.25 32.421875 41.125 36.953125 
Q 45.015625 41.5 45.015625 49.421875 
Q 45.015625 57.28125 41.125 61.84375 
Q 37.25 66.40625 30.609375 66.40625 
Q 23.96875 66.40625 20.09375 61.84375 
Q 16.21875 57.28125 16.21875 49.421875 
Q 16.21875 41.5 20.09375 36.953125 
Q 23.96875 32.421875 30.609375 32.421875 
z
" id="DejaVuSans-39"/>
    </defs>
    <g transform="translate(369.18424 20.091654)scale(0.17 -0.17)">
     <use xlink:href="#DejaVuSans-66"/>
     <use x="35.205078" xlink:href="#DejaVuSans-39"/>
    </g>
   </g>
   <g id="text_17">
    <!-- bbob -->
    <defs>
     <path d="M 48.6875 27.296875 
Q 48.6875 37.203125 44.609375 42.84375 
Q 40.53125 48.484375 33.40625 48.484375 
Q 26.265625 48.484375 22.1875 42.84375 
Q 18.109375 37.203125 18.109375 27.296875 
Q 18.109375 17.390625 22.1875 11.75 
Q 26.265625 6.109375 33.40625 6.109375 
Q 40.53125 6.109375 44.609375 11.75 
Q 48.6875 17.390625 48.6875 27.296875 
z
M 18.109375 46.390625 
Q 20.953125 51.265625 25.265625 53.625 
Q 29.59375 56 35.59375 56 
Q 45.5625 56 51.78125 48.09375 
Q 58.015625 40.1875 58.015625 27.296875 
Q 58.015625 14.40625 51.78125 6.484375 
Q 45.5625 -1.421875 35.59375 -1.421875 
Q 29.59375 -1.421875 25.265625 0.953125 
Q 20.953125 3.328125 18.109375 8.203125 
L 18.109375 0 
L 9.078125 0 
L 9.078125 75.984375 
L 18.109375 75.984375 
z
" id="DejaVuSans-62"/>
    </defs>
    <g transform="translate(58.89048 17.475982)scale(0.102 -0.102)">
     <use xlink:href="#DejaVuSans-62"/>
     <use x="63.476562" xlink:href="#DejaVuSans-62"/>
     <use x="126.953125" xlink:href="#DejaVuSans-6f"/>
     <use x="188.134766" xlink:href="#DejaVuSans-62"/>
    </g>
    <!-- Misc. moderate functions, 3-D -->
    <defs>
     <path d="M 9.8125 72.90625 
L 24.515625 72.90625 
L 43.109375 23.296875 
L 61.8125 72.90625 
L 76.515625 72.90625 
L 76.515625 0 
L 66.890625 0 
L 66.890625 64.015625 
L 48.09375 14.015625 
L 38.1875 14.015625 
L 19.390625 64.015625 
L 19.390625 0 
L 9.8125 0 
z
" id="DejaVuSans-4d"/>
     <path d="M 40.578125 39.3125 
Q 47.65625 37.796875 51.625 33 
Q 55.609375 28.21875 55.609375 21.1875 
Q 55.609375 10.40625 48.1875 4.484375 
Q 40.765625 -1.421875 27.09375 -1.421875 
Q 22.515625 -1.421875 17.65625 -0.515625 
Q 12.796875 0.390625 7.625 2.203125 
L 7.625 11.71875 
Q 11.71875 9.328125 16.59375 8.109375 
Q 21.484375 6.890625 26.8125 6.890625 
Q 36.078125 6.890625 40.9375 10.546875 
Q 45.796875 14.203125 45.796875 21.1875 
Q 45.796875 27.640625 41.28125 31.265625 
Q 36.765625 34.90625 28.71875 34.90625 
L 20.21875 34.90625 
L 20.21875 43.015625 
L 29.109375 43.015625 
Q 36.375 43.015625 40.234375 45.921875 
Q 44.09375 48.828125 44.09375 54.296875 
Q 44.09375 59.90625 40.109375 62.90625 
Q 36.140625 65.921875 28.71875 65.921875 
Q 24.65625 65.921875 20.015625 65.03125 
Q 15.375 64.15625 9.8125 62.3125 
L 9.8125 71.09375 
Q 15.4375 72.65625 20.34375 73.4375 
Q 25.25 74.21875 29.59375 74.21875 
Q 40.828125 74.21875 47.359375 69.109375 
Q 53.90625 64.015625 53.90625 55.328125 
Q 53.90625 49.265625 50.4375 45.09375 
Q 46.96875 40.921875 40.578125 39.3125 
z
" id="DejaVuSans-33"/>
     <path d="M 19.671875 64.796875 
L 19.671875 8.109375 
L 31.59375 8.109375 
Q 46.6875 8.109375 53.6875 14.9375 
Q 60.6875 21.78125 60.6875 36.53125 
Q 60.6875 51.171875 53.6875 57.984375 
Q 46.6875 64.796875 31.59375 64.796875 
z
M 9.8125 72.90625 
L 30.078125 72.90625 
Q 51.265625 72.90625 61.171875 64.09375 
Q 71.09375 55.28125 71.09375 36.53125 
Q 71.09375 17.671875 61.125 8.828125 
Q 51.171875 0 30.078125 0 
L 9.8125 0 
z
" id="DejaVuSans-44"/>
    </defs>
    <g transform="translate(58.89048 28.89775)scale(0.102 -0.102)">
     <use xlink:href="#DejaVuSans-4d"/>
     <use x="86.279297" xlink:href="#DejaVuSans-69"/>
     <use x="114.0625" xlink:href="#DejaVuSans-73"/>
     <use x="166.162109" xlink:href="#DejaVuSans-63"/>
     <use x="221.142578" xlink:href="#DejaVuSans-2e"/>
     <use x="252.929688" xlink:href="#DejaVuSans-20"/>
     <use x="284.716797" xlink:href="#DejaVuSans-6d"/>
     <use x="382.128906" xlink:href="#DejaVuSans-6f"/>
     <use x="443.310547" xlink:href="#DejaVuSans-64"/>
     <use x="506.787109" xlink:href="#DejaVuSans-65"/>
     <use x="568.310547" xlink:href="#DejaVuSans-72"/>
     <use x="609.423828" xlink:href="#DejaVuSans-61"/>
     <use x="670.703125" xlink:href="#DejaVuSans-74"/>
     <use x="709.912109" xlink:href="#DejaVuSans-65"/>
     <use x="771.435547" xlink:href="#DejaVuSans-20"/>
     <use x="803.222656" xlink:href="#DejaVuSans-66"/>
     <use x="838.427734" xlink:href="#DejaVuSans-75"/>
     <use x="901.806641" xlink:href="#DejaVuSans-6e"/>
     <use x="965.185547" xlink:href="#DejaVuSans-63"/>
     <use x="1020.166016" xlink:href="#DejaVuSans-74"/>
     <use x="1059.375" xlink:href="#DejaVuSans-69"/>
     <use x="1087.158203" xlink:href="#DejaVuSans-6f"/>
     <use x="1148.339844" xlink:href="#DejaVuSans-6e"/>
     <use x="1211.71875" xlink:href="#DejaVuSans-73"/>
     <use x="1263.818359" xlink:href="#DejaVuSans-2c"/>
     <use x="1295.605469" xlink:href="#DejaVuSans-20"/>
     <use x="1327.392578" xlink:href="#DejaVuSans-33"/>
     <use x="1391.015625" xlink:href="#DejaVuSans-2d"/>
     <use x="1427.099609" xlink:href="#DejaVuSans-44"/>
    </g>
    <!-- 51 targets: 100..1e-08 -->
    <defs>
     <path d="M 10.796875 72.90625 
L 49.515625 72.90625 
L 49.515625 64.59375 
L 19.828125 64.59375 
L 19.828125 46.734375 
Q 21.96875 47.46875 24.109375 47.828125 
Q 26.265625 48.1875 28.421875 48.1875 
Q 40.625 48.1875 47.75 41.5 
Q 54.890625 34.8125 54.890625 23.390625 
Q 54.890625 11.625 47.5625 5.09375 
Q 40.234375 -1.421875 26.90625 -1.421875 
Q 22.3125 -1.421875 17.546875 -0.640625 
Q 12.796875 0.140625 7.71875 1.703125 
L 7.71875 11.625 
Q 12.109375 9.234375 16.796875 8.0625 
Q 21.484375 6.890625 26.703125 6.890625 
Q 35.15625 6.890625 40.078125 11.328125 
Q 45.015625 15.765625 45.015625 23.390625 
Q 45.015625 31 40.078125 35.4375 
Q 35.15625 39.890625 26.703125 39.890625 
Q 22.75 39.890625 18.8125 39.015625 
Q 14.890625 38.140625 10.796875 36.28125 
z
" id="DejaVuSans-35"/>
     <path d="M 11.71875 12.40625 
L 22.015625 12.40625 
L 22.015625 0 
L 11.71875 0 
z
M 11.71875 51.703125 
L 22.015625 51.703125 
L 22.015625 39.3125 
L 11.71875 39.3125 
z
" id="DejaVuSans-3a"/>
    </defs>
    <g transform="translate(58.89048 40.319519)scale(0.102 -0.102)">
     <use xlink:href="#DejaVuSans-35"/>
     <use x="63.623047" xlink:href="#DejaVuSans-31"/>
     <use x="127.246094" xlink:href="#DejaVuSans-20"/>
     <use x="159.033203" xlink:href="#DejaVuSans-74"/>
     <use x="198.242188" xlink:href="#DejaVuSans-61"/>
     <use x="259.521484" xlink:href="#DejaVuSans-72"/>
     <use x="300.619141" xlink:href="#DejaVuSans-67"/>
     <use x="364.095703" xlink:href="#DejaVuSans-65"/>
     <use x="425.619141" xlink:href="#DejaVuSans-74"/>
     <use x="464.828125" xlink:href="#DejaVuSans-73"/>
     <use x="516.927734" xlink:href="#DejaVuSans-3a"/>
     <use x="550.619141" xlink:href="#DejaVuSans-20"/>
     <use x="582.40625" xlink:href="#DejaVuSans-31"/>
     <use x="646.029297" xlink:href="#DejaVuSans-30"/>
     <use x="709.652344" xlink:href="#DejaVuSans-30"/>
     <use x="773.275391" xlink:href="#DejaVuSans-2e"/>
     <use x="805.0625" xlink:href="#DejaVuSans-2e"/>
     <use x="836.849609" xlink:href="#DejaVuSans-31"/>
     <use x="900.472656" xlink:href="#DejaVuSans-65"/>
     <use x="961.996094" xlink:href="#DejaVuSans-2d"/>
     <use x="998.080078" xlink:href="#DejaVuSans-30"/>
     <use x="1061.703125" xlink:href="#DejaVuSans-38"/>
    </g>
    <!-- 15 instances -->
    <g transform="translate(58.89048 51.741288)scale(0.102 -0.102)">
     <use xlink:href="#DejaVuSans-31"/>
     <use x="63.623047" xlink:href="#DejaVuSans-35"/>
     <use x="127.246094" xlink:href="#DejaVuSans-20"/>
     <use x="159.033203" xlink:href="#DejaVuSans-69"/>
     <use x="186.816406" xlink:href="#DejaVuSans-6e"/>
     <use x="250.195312" xlink:href="#DejaVuSans-73"/>
     <use x="302.294922" xlink:href="#DejaVuSans-74"/>
     <use x="341.503906" xlink:href="#DejaVuSans-61"/>
     <use x="402.783203" xlink:href="#DejaVuSans-6e"/>
     <use x="466.162109" xlink:href="#DejaVuSans-63"/>
     <use x="521.142578" xlink:href="#DejaVuSans-65"/>
     <use x="582.666016" xlink:href="#DejaVuSans-73"/>
    </g>
   </g>
   <g id="text_18">
    <!-- v0.0.0 -->
    <g style="fill:#808080;" transform="translate(178.96275 289.919965)scale(0.1 -0.1)">
     <use xlink:href="#DejaVuSans-76"/>
     <use x="59.179688" xlink:href="#DejaVuSans-30"/>
     <use x="122.802734" xlink:href="#DejaVuSans-2e"/>
     <use x="154.589844" xlink:href="#DejaVuSans-30"/>
     <use x="218.212891" xlink:href="#DejaVuSans-2e"/>
     <use x="250" xlink:href="#DejaVuSans-30"/>
    </g>
   </g>
  </g>
 </g>
 <defs>
  <clipPath id="pac6b6dc968">
   <rect height="288.034772" width="277.048" x="56.12" y="6.845228"/>
  </clipPath>
 </defs>
</svg>
