<?xml version="1.0" encoding="utf-8" standalone="no"?>
<!DOCTYPE svg PUBLIC "-//W3C//DTD SVG 1.1//EN"
  "http://www.w3.org/Graphics/SVG/1.1/DTD/svg11.dtd">
<!-- Created with matplotlib (http://matplotlib.org/) -->
<svg height="345.6pt" version="1.1" viewBox="0 0 460.8 345.6" width="460.8pt" xmlns="http://www.w3.org/2000/svg" xmlns:xlink="http://www.w3.org/1999/xlink">
 <defs>
  <style type="text/css">
*{stroke-linecap:butt;stroke-linejoin:round;}
  </style>
 </defs>
 <g id="figure_1">
  <g id="patch_1">
   <path d="M 0 345.6 
L 460.8 345.6 
L 460.8 0 
L 0 0 
z
" style="fill:#ffffff;"/>
  </g>
  <g id="axes_1">
   <g id="patch_2">
    <path d="M 56.12 294.88 
L 333.168 294.88 
L 333.168 24.84 
L 56.12 24.84 
z
" style="fill:#ffffff;"/>
   </g>
   <g id="matplotlib.axis_1">
    <g id="xtick_1">
     <g id="line2d_1">
      <path clip-path="url(#pdb24124e5f)" d="M 56.12 294.88 
L 56.12 24.84 
" style="fill:none;stroke:#b0b0b0;stroke-linecap:square;stroke-width:0.8;"/>
     </g>
     <g id="line2d_2">
      <defs>
       <path d="M 0 0 
L 0 3.5 
" id="md9d957d05d" style="stroke:#000000;stroke-width:0.8;"/>
      </defs>
      <g>
       <use style="stroke:#000000;stroke-width:0.8;" x="56.12" xlink:href="#md9d957d05d" y="294.88"/>
      </g>
     </g>
     <g id="text_1">
      <!-- 0 -->
      <defs>
       <path d="M 31.78125 66.40625 
Q 24.171875 66.40625 20.328125 58.90625 
Q 16.5 51.421875 16.5 36.375 
Q 16.5 21.390625 20.328125 13.890625 
Q 24.171875 6.390625 31.78125 6.390625 
Q 39.453125 6.390625 43.28125 13.890625 
Q 47.125 21.390625 47.125 36.375 
Q 47.125 51.421875 43.28125 58.90625 
Q 39.453125 66.40625 31.78125 66.40625 
z
M 31.78125 74.21875 
Q 44.046875 74.21875 50.515625 64.515625 
Q 56.984375 54.828125 56.984375 36.375 
Q 56.984375 17.96875 50.515625 8.265625 
Q 44.046875 -1.421875 31.78125 -1.421875 
Q 19.53125 -1.421875 13.0625 8.265625 
Q 6.59375 17.96875 6.59375 36.375 
Q 6.59375 54.828125 13.0625 64.515625 
Q 19.53125 74.21875 31.78125 74.21875 
z
" id="DejaVuSans-30"/>
      </defs>
      <g transform="translate(49.7575 317.076875)scale(0.2 -0.2)">
       <use xlink:href="#DejaVuSans-30"/>
      </g>
     </g>
    </g>
    <g id="xtick_2">
     <g id="line2d_3">
      <path clip-path="url(#pdb24124e5f)" d="M 135.276571 294.88 
L 135.276571 24.84 
" style="fill:none;stroke:#b0b0b0;stroke-linecap:square;stroke-width:0.8;"/>
     </g>
     <g id="line2d_4">
      <g>
       <use style="stroke:#000000;stroke-width:0.8;" x="135.276571" xlink:href="#md9d957d05d" y="294.88"/>
      </g>
     </g>
     <g id="text_2">
      <!-- 2 -->
      <defs>
       <path d="M 19.1875 8.296875 
L 53.609375 8.296875 
L 53.609375 0 
L 7.328125 0 
L 7.328125 8.296875 
Q 12.9375 14.109375 22.625 23.890625 
Q 32.328125 33.6875 34.8125 36.53125 
Q 39.546875 41.84375 41.421875 45.53125 
Q 43.3125 49.21875 43.3125 52.78125 
Q 43.3125 58.59375 39.234375 62.25 
Q 35.15625 65.921875 28.609375 65.921875 
Q 23.96875 65.921875 18.8125 64.3125 
Q 13.671875 62.703125 7.8125 59.421875 
L 7.8125 69.390625 
Q 13.765625 71.78125 18.9375 73 
Q 24.125 74.21875 28.421875 74.21875 
Q 39.75 74.21875 46.484375 68.546875 
Q 53.21875 62.890625 53.21875 53.421875 
Q 53.21875 48.921875 51.53125 44.890625 
Q 49.859375 40.875 45.40625 35.40625 
Q 44.1875 33.984375 37.640625 27.21875 
Q 31.109375 20.453125 19.1875 8.296875 
z
" id="DejaVuSans-32"/>
      </defs>
      <g transform="translate(128.914071 317.076875)scale(0.2 -0.2)">
       <use xlink:href="#DejaVuSans-32"/>
      </g>
     </g>
    </g>
    <g id="xtick_3">
     <g id="line2d_5">
      <path clip-path="url(#pdb24124e5f)" d="M 214.433143 294.88 
L 214.433143 24.84 
" style="fill:none;stroke:#b0b0b0;stroke-linecap:square;stroke-width:0.8;"/>
     </g>
     <g id="line2d_6">
      <g>
       <use style="stroke:#000000;stroke-width:0.8;" x="214.433143" xlink:href="#md9d957d05d" y="294.88"/>
      </g>
     </g>
     <g id="text_3">
      <!-- 4 -->
      <defs>
       <path d="M 37.796875 64.3125 
L 12.890625 25.390625 
L 37.796875 25.390625 
z
M 35.203125 72.90625 
L 47.609375 72.90625 
L 47.609375 25.390625 
L 58.015625 25.390625 
L 58.015625 17.1875 
L 47.609375 17.1875 
L 47.609375 0 
L 37.796875 0 
L 37.796875 17.1875 
L 4.890625 17.1875 
L 4.890625 26.703125 
z
" id="DejaVuSans-34"/>
      </defs>
      <g transform="translate(208.070643 317.076875)scale(0.2 -0.2)">
       <use xlink:href="#DejaVuSans-34"/>
      </g>
     </g>
    </g>
    <g id="xtick_4">
     <g id="line2d_7">
      <path clip-path="url(#pdb24124e5f)" d="M 293.589714 294.88 
L 293.589714 24.84 
" style="fill:none;stroke:#b0b0b0;stroke-linecap:square;stroke-width:0.8;"/>
     </g>
     <g id="line2d_8">
      <g>
       <use style="stroke:#000000;stroke-width:0.8;" x="293.589714" xlink:href="#md9d957d05d" y="294.88"/>
      </g>
     </g>
     <g id="text_4">
      <!-- 6 -->
      <defs>
       <path d="M 33.015625 40.375 
Q 26.375 40.375 22.484375 35.828125 
Q 18.609375 31.296875 18.609375 23.390625 
Q 18.609375 15.53125 22.484375 10.953125 
Q 26.375 6.390625 33.015625 6.390625 
Q 39.65625 6.390625 43.53125 10.953125 
Q 47.40625 15.53125 47.40625 23.390625 
Q 47.40625 31.296875 43.53125 35.828125 
Q 39.65625 40.375 33.015625 40.375 
z
M 52.59375 71.296875 
L 52.59375 62.3125 
Q 48.875 64.0625 45.09375 64.984375 
Q 41.3125 65.921875 37.59375 65.921875 
Q 27.828125 65.921875 22.671875 59.328125 
Q 17.53125 52.734375 16.796875 39.40625 
Q 19.671875 43.65625 24.015625 45.921875 
Q 28.375 48.1875 33.59375 48.1875 
Q 44.578125 48.1875 50.953125 41.515625 
Q 57.328125 34.859375 57.328125 23.390625 
Q 57.328125 12.15625 50.6875 5.359375 
Q 44.046875 -1.421875 33.015625 -1.421875 
Q 20.359375 -1.421875 13.671875 8.265625 
Q 6.984375 17.96875 6.984375 36.375 
Q 6.984375 53.65625 15.1875 63.9375 
Q 23.390625 74.21875 37.203125 74.21875 
Q 40.921875 74.21875 44.703125 73.484375 
Q 48.484375 72.75 52.59375 71.296875 
z
" id="DejaVuSans-36"/>
      </defs>
      <g transform="translate(287.227214 317.076875)scale(0.2 -0.2)">
       <use xlink:href="#DejaVuSans-36"/>
      </g>
     </g>
    </g>
    <g id="xtick_5">
     <g id="line2d_9">
      <path clip-path="url(#pdb24124e5f)" d="M 56.12 294.88 
L 56.12 24.84 
" style="fill:none;stroke:#b0b0b0;stroke-linecap:square;stroke-width:0.8;"/>
     </g>
     <g id="line2d_10">
      <defs>
       <path d="M 0 0 
L 0 2 
" id="m5b1b60e642" style="stroke:#000000;stroke-width:0.6;"/>
      </defs>
      <g>
       <use style="stroke:#000000;stroke-width:0.6;" x="56.12" xlink:href="#m5b1b60e642" y="294.88"/>
      </g>
     </g>
    </g>
    <g id="xtick_6">
     <g id="line2d_11">
      <path clip-path="url(#pdb24124e5f)" d="M 95.698286 294.88 
L 95.698286 24.84 
" style="fill:none;stroke:#b0b0b0;stroke-linecap:square;stroke-width:0.8;"/>
     </g>
     <g id="line2d_12">
      <g>
       <use style="stroke:#000000;stroke-width:0.6;" x="95.698286" xlink:href="#m5b1b60e642" y="294.88"/>
      </g>
     </g>
    </g>
    <g id="xtick_7">
     <g id="line2d_13">
      <path clip-path="url(#pdb24124e5f)" d="M 135.276571 294.88 
L 135.276571 24.84 
" style="fill:none;stroke:#b0b0b0;stroke-linecap:square;stroke-width:0.8;"/>
     </g>
     <g id="line2d_14">
      <g>
       <use style="stroke:#000000;stroke-width:0.6;" x="135.276571" xlink:href="#m5b1b60e642" y="294.88"/>
      </g>
     </g>
    </g>
    <g id="xtick_8">
     <g id="line2d_15">
      <path clip-path="url(#pdb24124e5f)" d="M 174.854857 294.88 
L 174.854857 24.84 
" style="fill:none;stroke:#b0b0b0;stroke-linecap:square;stroke-width:0.8;"/>
     </g>
     <g id="line2d_16">
      <g>
       <use style="stroke:#000000;stroke-width:0.6;" x="174.854857" xlink:href="#m5b1b60e642" y="294.88"/>
      </g>
     </g>
    </g>
    <g id="xtick_9">
     <g id="line2d_17">
      <path clip-path="url(#pdb24124e5f)" d="M 214.433143 294.88 
L 214.433143 24.84 
" style="fill:none;stroke:#b0b0b0;stroke-linecap:square;stroke-width:0.8;"/>
     </g>
     <g id="line2d_18">
      <g>
       <use style="stroke:#000000;stroke-width:0.6;" x="214.433143" xlink:href="#m5b1b60e642" y="294.88"/>
      </g>
     </g>
    </g>
    <g id="xtick_10">
     <g id="line2d_19">
      <path clip-path="url(#pdb24124e5f)" d="M 254.011429 294.88 
L 254.011429 24.84 
" style="fill:none;stroke:#b0b0b0;stroke-linecap:square;stroke-width:0.8;"/>
     </g>
     <g id="line2d_20">
      <g>
       <use style="stroke:#000000;stroke-width:0.6;" x="254.011429" xlink:href="#m5b1b60e642" y="294.88"/>
      </g>
     </g>
    </g>
    <g id="xtick_11">
     <g id="line2d_21">
      <path clip-path="url(#pdb24124e5f)" d="M 293.589714 294.88 
L 293.589714 24.84 
" style="fill:none;stroke:#b0b0b0;stroke-linecap:square;stroke-width:0.8;"/>
     </g>
     <g id="line2d_22">
      <g>
       <use style="stroke:#000000;stroke-width:0.6;" x="293.589714" xlink:href="#m5b1b60e642" y="294.88"/>
      </g>
     </g>
    </g>
    <g id="xtick_12">
     <g id="line2d_23">
      <path clip-path="url(#pdb24124e5f)" d="M 333.168 294.88 
L 333.168 24.84 
" style="fill:none;stroke:#b0b0b0;stroke-linecap:square;stroke-width:0.8;"/>
     </g>
     <g id="line2d_24">
      <g>
       <use style="stroke:#000000;stroke-width:0.6;" x="333.168" xlink:href="#m5b1b60e642" y="294.88"/>
      </g>
     </g>
    </g>
    <g id="text_5">
     <!-- log10(# f-evals / dimension) -->
     <defs>
      <path d="M 9.421875 75.984375 
L 18.40625 75.984375 
L 18.40625 0 
L 9.421875 0 
z
" id="DejaVuSans-6c"/>
      <path d="M 30.609375 48.390625 
Q 23.390625 48.390625 19.1875 42.75 
Q 14.984375 37.109375 14.984375 27.296875 
Q 14.984375 17.484375 19.15625 11.84375 
Q 23.34375 6.203125 30.609375 6.203125 
Q 37.796875 6.203125 41.984375 11.859375 
Q 46.1875 17.53125 46.1875 27.296875 
Q 46.1875 37.015625 41.984375 42.703125 
Q 37.796875 48.390625 30.609375 48.390625 
z
M 30.609375 56 
Q 42.328125 56 49.015625 48.375 
Q 55.71875 40.765625 55.71875 27.296875 
Q 55.71875 13.875 49.015625 6.21875 
Q 42.328125 -1.421875 30.609375 -1.421875 
Q 18.84375 -1.421875 12.171875 6.21875 
Q 5.515625 13.875 5.515625 27.296875 
Q 5.515625 40.765625 12.171875 48.375 
Q 18.84375 56 30.609375 56 
z
" id="DejaVuSans-6f"/>
      <path d="M 45.40625 27.984375 
Q 45.40625 37.75 41.375 43.109375 
Q 37.359375 48.484375 30.078125 48.484375 
Q 22.859375 48.484375 18.828125 43.109375 
Q 14.796875 37.75 14.796875 27.984375 
Q 14.796875 18.265625 18.828125 12.890625 
Q 22.859375 7.515625 30.078125 7.515625 
Q 37.359375 7.515625 41.375 12.890625 
Q 45.40625 18.265625 45.40625 27.984375 
z
M 54.390625 6.78125 
Q 54.390625 -7.171875 48.1875 -13.984375 
Q 42 -20.796875 29.203125 -20.796875 
Q 24.46875 -20.796875 20.265625 -20.09375 
Q 16.0625 -19.390625 12.109375 -17.921875 
L 12.109375 -9.1875 
Q 16.0625 -11.328125 19.921875 -12.34375 
Q 23.78125 -13.375 27.78125 -13.375 
Q 36.625 -13.375 41.015625 -8.765625 
Q 45.40625 -4.15625 45.40625 5.171875 
L 45.40625 9.625 
Q 42.625 4.78125 38.28125 2.390625 
Q 33.9375 0 27.875 0 
Q 17.828125 0 11.671875 7.65625 
Q 5.515625 15.328125 5.515625 27.984375 
Q 5.515625 40.671875 11.671875 48.328125 
Q 17.828125 56 27.875 56 
Q 33.9375 56 38.28125 53.609375 
Q 42.625 51.21875 45.40625 46.390625 
L 45.40625 54.6875 
L 54.390625 54.6875 
z
" id="DejaVuSans-67"/>
      <path d="M 12.40625 8.296875 
L 28.515625 8.296875 
L 28.515625 63.921875 
L 10.984375 60.40625 
L 10.984375 69.390625 
L 28.421875 72.90625 
L 38.28125 72.90625 
L 38.28125 8.296875 
L 54.390625 8.296875 
L 54.390625 0 
L 12.40625 0 
z
" id="DejaVuSans-31"/>
      <path d="M 31 75.875 
Q 24.46875 64.65625 21.28125 53.65625 
Q 18.109375 42.671875 18.109375 31.390625 
Q 18.109375 20.125 21.3125 9.0625 
Q 24.515625 -2 31 -13.1875 
L 23.1875 -13.1875 
Q 15.875 -1.703125 12.234375 9.375 
Q 8.59375 20.453125 8.59375 31.390625 
Q 8.59375 42.28125 12.203125 53.3125 
Q 15.828125 64.359375 23.1875 75.875 
z
" id="DejaVuSans-28"/>
      <path d="M 51.125 44 
L 36.921875 44 
L 32.8125 27.6875 
L 47.125 27.6875 
z
M 43.796875 71.78125 
L 38.71875 51.515625 
L 52.984375 51.515625 
L 58.109375 71.78125 
L 65.921875 71.78125 
L 60.890625 51.515625 
L 76.125 51.515625 
L 76.125 44 
L 58.984375 44 
L 54.984375 27.6875 
L 70.515625 27.6875 
L 70.515625 20.21875 
L 53.078125 20.21875 
L 48 0 
L 40.1875 0 
L 45.21875 20.21875 
L 30.90625 20.21875 
L 25.875 0 
L 18.015625 0 
L 23.09375 20.21875 
L 7.71875 20.21875 
L 7.71875 27.6875 
L 24.90625 27.6875 
L 29 44 
L 13.28125 44 
L 13.28125 51.515625 
L 30.90625 51.515625 
L 35.890625 71.78125 
z
" id="DejaVuSans-23"/>
      <path id="DejaVuSans-20"/>
      <path d="M 37.109375 75.984375 
L 37.109375 68.5 
L 28.515625 68.5 
Q 23.6875 68.5 21.796875 66.546875 
Q 19.921875 64.59375 19.921875 59.515625 
L 19.921875 54.6875 
L 34.71875 54.6875 
L 34.71875 47.703125 
L 19.921875 47.703125 
L 19.921875 0 
L 10.890625 0 
L 10.890625 47.703125 
L 2.296875 47.703125 
L 2.296875 54.6875 
L 10.890625 54.6875 
L 10.890625 58.5 
Q 10.890625 67.625 15.140625 71.796875 
Q 19.390625 75.984375 28.609375 75.984375 
z
" id="DejaVuSans-66"/>
      <path d="M 4.890625 31.390625 
L 31.203125 31.390625 
L 31.203125 23.390625 
L 4.890625 23.390625 
z
" id="DejaVuSans-2d"/>
      <path d="M 56.203125 29.59375 
L 56.203125 25.203125 
L 14.890625 25.203125 
Q 15.484375 15.921875 20.484375 11.0625 
Q 25.484375 6.203125 34.421875 6.203125 
Q 39.59375 6.203125 44.453125 7.46875 
Q 49.3125 8.734375 54.109375 11.28125 
L 54.109375 2.78125 
Q 49.265625 0.734375 44.1875 -0.34375 
Q 39.109375 -1.421875 33.890625 -1.421875 
Q 20.796875 -1.421875 13.15625 6.1875 
Q 5.515625 13.8125 5.515625 26.8125 
Q 5.515625 40.234375 12.765625 48.109375 
Q 20.015625 56 32.328125 56 
Q 43.359375 56 49.78125 48.890625 
Q 56.203125 41.796875 56.203125 29.59375 
z
M 47.21875 32.234375 
Q 47.125 39.59375 43.09375 43.984375 
Q 39.0625 48.390625 32.421875 48.390625 
Q 24.90625 48.390625 20.390625 44.140625 
Q 15.875 39.890625 15.1875 32.171875 
z
" id="DejaVuSans-65"/>
      <path d="M 2.984375 54.6875 
L 12.5 54.6875 
L 29.59375 8.796875 
L 46.6875 54.6875 
L 56.203125 54.6875 
L 35.6875 0 
L 23.484375 0 
z
" id="DejaVuSans-76"/>
      <path d="M 34.28125 27.484375 
Q 23.390625 27.484375 19.1875 25 
Q 14.984375 22.515625 14.984375 16.5 
Q 14.984375 11.71875 18.140625 8.90625 
Q 21.296875 6.109375 26.703125 6.109375 
Q 34.1875 6.109375 38.703125 11.40625 
Q 43.21875 16.703125 43.21875 25.484375 
L 43.21875 27.484375 
z
M 52.203125 31.203125 
L 52.203125 0 
L 43.21875 0 
L 43.21875 8.296875 
Q 40.140625 3.328125 35.546875 0.953125 
Q 30.953125 -1.421875 24.3125 -1.421875 
Q 15.921875 -1.421875 10.953125 3.296875 
Q 6 8.015625 6 15.921875 
Q 6 25.140625 12.171875 29.828125 
Q 18.359375 34.515625 30.609375 34.515625 
L 43.21875 34.515625 
L 43.21875 35.40625 
Q 43.21875 41.609375 39.140625 45 
Q 35.0625 48.390625 27.6875 48.390625 
Q 23 48.390625 18.546875 47.265625 
Q 14.109375 46.140625 10.015625 43.890625 
L 10.015625 52.203125 
Q 14.9375 54.109375 19.578125 55.046875 
Q 24.21875 56 28.609375 56 
Q 40.484375 56 46.34375 49.84375 
Q 52.203125 43.703125 52.203125 31.203125 
z
" id="DejaVuSans-61"/>
      <path d="M 44.28125 53.078125 
L 44.28125 44.578125 
Q 40.484375 46.53125 36.375 47.5 
Q 32.28125 48.484375 27.875 48.484375 
Q 21.1875 48.484375 17.84375 46.4375 
Q 14.5 44.390625 14.5 40.28125 
Q 14.5 37.15625 16.890625 35.375 
Q 19.28125 33.59375 26.515625 31.984375 
L 29.59375 31.296875 
Q 39.15625 29.25 43.1875 25.515625 
Q 47.21875 21.78125 47.21875 15.09375 
Q 47.21875 7.46875 41.1875 3.015625 
Q 35.15625 -1.421875 24.609375 -1.421875 
Q 20.21875 -1.421875 15.453125 -0.5625 
Q 10.6875 0.296875 5.421875 2 
L 5.421875 11.28125 
Q 10.40625 8.6875 15.234375 7.390625 
Q 20.0625 6.109375 24.8125 6.109375 
Q 31.15625 6.109375 34.5625 8.28125 
Q 37.984375 10.453125 37.984375 14.40625 
Q 37.984375 18.0625 35.515625 20.015625 
Q 33.0625 21.96875 24.703125 23.78125 
L 21.578125 24.515625 
Q 13.234375 26.265625 9.515625 29.90625 
Q 5.8125 33.546875 5.8125 39.890625 
Q 5.8125 47.609375 11.28125 51.796875 
Q 16.75 56 26.8125 56 
Q 31.78125 56 36.171875 55.265625 
Q 40.578125 54.546875 44.28125 53.078125 
z
" id="DejaVuSans-73"/>
      <path d="M 25.390625 72.90625 
L 33.6875 72.90625 
L 8.296875 -9.28125 
L 0 -9.28125 
z
" id="DejaVuSans-2f"/>
      <path d="M 45.40625 46.390625 
L 45.40625 75.984375 
L 54.390625 75.984375 
L 54.390625 0 
L 45.40625 0 
L 45.40625 8.203125 
Q 42.578125 3.328125 38.25 0.953125 
Q 33.9375 -1.421875 27.875 -1.421875 
Q 17.96875 -1.421875 11.734375 6.484375 
Q 5.515625 14.40625 5.515625 27.296875 
Q 5.515625 40.1875 11.734375 48.09375 
Q 17.96875 56 27.875 56 
Q 33.9375 56 38.25 53.625 
Q 42.578125 51.265625 45.40625 46.390625 
z
M 14.796875 27.296875 
Q 14.796875 17.390625 18.875 11.75 
Q 22.953125 6.109375 30.078125 6.109375 
Q 37.203125 6.109375 41.296875 11.75 
Q 45.40625 17.390625 45.40625 27.296875 
Q 45.40625 37.203125 41.296875 42.84375 
Q 37.203125 48.484375 30.078125 48.484375 
Q 22.953125 48.484375 18.875 42.84375 
Q 14.796875 37.203125 14.796875 27.296875 
z
" id="DejaVuSans-64"/>
      <path d="M 9.421875 54.6875 
L 18.40625 54.6875 
L 18.40625 0 
L 9.421875 0 
z
M 9.421875 75.984375 
L 18.40625 75.984375 
L 18.40625 64.59375 
L 9.421875 64.59375 
z
" id="DejaVuSans-69"/>
      <path d="M 52 44.1875 
Q 55.375 50.25 60.0625 53.125 
Q 64.75 56 71.09375 56 
Q 79.640625 56 84.28125 50.015625 
Q 88.921875 44.046875 88.921875 33.015625 
L 88.921875 0 
L 79.890625 0 
L 79.890625 32.71875 
Q 79.890625 40.578125 77.09375 44.375 
Q 74.3125 48.1875 68.609375 48.1875 
Q 61.625 48.1875 57.5625 43.546875 
Q 53.515625 38.921875 53.515625 30.90625 
L 53.515625 0 
L 44.484375 0 
L 44.484375 32.71875 
Q 44.484375 40.625 41.703125 44.40625 
Q 38.921875 48.1875 33.109375 48.1875 
Q 26.21875 48.1875 22.15625 43.53125 
Q 18.109375 38.875 18.109375 30.90625 
L 18.109375 0 
L 9.078125 0 
L 9.078125 54.6875 
L 18.109375 54.6875 
L 18.109375 46.1875 
Q 21.1875 51.21875 25.484375 53.609375 
Q 29.78125 56 35.6875 56 
Q 41.65625 56 45.828125 52.96875 
Q 50 49.953125 52 44.1875 
z
" id="DejaVuSans-6d"/>
      <path d="M 54.890625 33.015625 
L 54.890625 0 
L 45.90625 0 
L 45.90625 32.71875 
Q 45.90625 40.484375 42.875 44.328125 
Q 39.84375 48.1875 33.796875 48.1875 
Q 26.515625 48.1875 22.3125 43.546875 
Q 18.109375 38.921875 18.109375 30.90625 
L 18.109375 0 
L 9.078125 0 
L 9.078125 54.6875 
L 18.109375 54.6875 
L 18.109375 46.1875 
Q 21.34375 51.125 25.703125 53.5625 
Q 30.078125 56 35.796875 56 
Q 45.21875 56 50.046875 50.171875 
Q 54.890625 44.34375 54.890625 33.015625 
z
" id="DejaVuSans-6e"/>
      <path d="M 8.015625 75.875 
L 15.828125 75.875 
Q 23.140625 64.359375 26.78125 53.3125 
Q 30.421875 42.28125 30.421875 31.390625 
Q 30.421875 20.453125 26.78125 9.375 
Q 23.140625 -1.703125 15.828125 -13.1875 
L 8.015625 -13.1875 
Q 14.5 -2 17.703125 9.0625 
Q 20.90625 20.125 20.90625 31.390625 
Q 20.90625 42.671875 17.703125 53.65625 
Q 14.5 64.65625 8.015625 75.875 
z
" id="DejaVuSans-29"/>
     </defs>
     <g transform="translate(73.803219 338.153594)scale(0.17 -0.17)">
      <use xlink:href="#DejaVuSans-6c"/>
      <use x="27.783203" xlink:href="#DejaVuSans-6f"/>
      <use x="88.964844" xlink:href="#DejaVuSans-67"/>
      <use x="152.441406" xlink:href="#DejaVuSans-31"/>
      <use x="216.064453" xlink:href="#DejaVuSans-30"/>
      <use x="279.6875" xlink:href="#DejaVuSans-28"/>
      <use x="318.701172" xlink:href="#DejaVuSans-23"/>
      <use x="402.490234" xlink:href="#DejaVuSans-20"/>
      <use x="434.277344" xlink:href="#DejaVuSans-66"/>
      <use x="469.404297" xlink:href="#DejaVuSans-2d"/>
      <use x="505.488281" xlink:href="#DejaVuSans-65"/>
      <use x="567.011719" xlink:href="#DejaVuSans-76"/>
      <use x="626.191406" xlink:href="#DejaVuSans-61"/>
      <use x="687.470703" xlink:href="#DejaVuSans-6c"/>
      <use x="715.253906" xlink:href="#DejaVuSans-73"/>
      <use x="767.353516" xlink:href="#DejaVuSans-20"/>
      <use x="799.140625" xlink:href="#DejaVuSans-2f"/>
      <use x="832.832031" xlink:href="#DejaVuSans-20"/>
      <use x="864.619141" xlink:href="#DejaVuSans-64"/>
      <use x="928.095703" xlink:href="#DejaVuSans-69"/>
      <use x="955.878906" xlink:href="#DejaVuSans-6d"/>
      <use x="1053.291016" xlink:href="#DejaVuSans-65"/>
      <use x="1114.814453" xlink:href="#DejaVuSans-6e"/>
      <use x="1178.193359" xlink:href="#DejaVuSans-73"/>
      <use x="1230.292969" xlink:href="#DejaVuSans-69"/>
      <use x="1258.076172" xlink:href="#DejaVuSans-6f"/>
      <use x="1319.257812" xlink:href="#DejaVuSans-6e"/>
      <use x="1382.636719" xlink:href="#DejaVuSans-29"/>
     </g>
    </g>
   </g>
   <g id="matplotlib.axis_2">
    <g id="ytick_1">
     <g id="line2d_25">
      <path clip-path="url(#pdb24124e5f)" d="M 56.12 294.88 
L 333.168 294.88 
" style="fill:none;stroke:#b0b0b0;stroke-linecap:square;stroke-width:0.8;"/>
     </g>
     <g id="line2d_26">
      <defs>
       <path d="M 0 0 
L -3.5 0 
" id="m98e7bed4bf" style="stroke:#000000;stroke-width:0.8;"/>
      </defs>
      <g>
       <use style="stroke:#000000;stroke-width:0.8;" x="56.12" xlink:href="#m98e7bed4bf" y="294.88"/>
      </g>
     </g>
     <g id="text_6">
      <!-- 0.0 -->
      <defs>
       <path d="M 10.6875 12.40625 
L 21 12.40625 
L 21 0 
L 10.6875 0 
z
" id="DejaVuSans-2e"/>
      </defs>
      <g transform="translate(23.675 300.95875)scale(0.16 -0.16)">
       <use xlink:href="#DejaVuSans-30"/>
       <use x="63.623047" xlink:href="#DejaVuSans-2e"/>
       <use x="95.410156" xlink:href="#DejaVuSans-30"/>
      </g>
     </g>
    </g>
    <g id="ytick_2">
     <g id="line2d_27">
      <path clip-path="url(#pdb24124e5f)" d="M 56.12 241.406733 
L 333.168 241.406733 
" style="fill:none;stroke:#b0b0b0;stroke-linecap:square;stroke-width:0.8;"/>
     </g>
     <g id="line2d_28">
      <g>
       <use style="stroke:#000000;stroke-width:0.8;" x="56.12" xlink:href="#m98e7bed4bf" y="241.406733"/>
      </g>
     </g>
     <g id="text_7">
      <!-- 0.2 -->
      <g transform="translate(23.675 247.485483)scale(0.16 -0.16)">
       <use xlink:href="#DejaVuSans-30"/>
       <use x="63.623047" xlink:href="#DejaVuSans-2e"/>
       <use x="95.410156" xlink:href="#DejaVuSans-32"/>
      </g>
     </g>
    </g>
    <g id="ytick_3">
     <g id="line2d_29">
      <path clip-path="url(#pdb24124e5f)" d="M 56.12 187.933465 
L 333.168 187.933465 
" style="fill:none;stroke:#b0b0b0;stroke-linecap:square;stroke-width:0.8;"/>
     </g>
     <g id="line2d_30">
      <g>
       <use style="stroke:#000000;stroke-width:0.8;" x="56.12" xlink:href="#m98e7bed4bf" y="187.933465"/>
      </g>
     </g>
     <g id="text_8">
      <!-- 0.4 -->
      <g transform="translate(23.675 194.012215)scale(0.16 -0.16)">
       <use xlink:href="#DejaVuSans-30"/>
       <use x="63.623047" xlink:href="#DejaVuSans-2e"/>
       <use x="95.410156" xlink:href="#DejaVuSans-34"/>
      </g>
     </g>
    </g>
    <g id="ytick_4">
     <g id="line2d_31">
      <path clip-path="url(#pdb24124e5f)" d="M 56.12 134.460198 
L 333.168 134.460198 
" style="fill:none;stroke:#b0b0b0;stroke-linecap:square;stroke-width:0.8;"/>
     </g>
     <g id="line2d_32">
      <g>
       <use style="stroke:#000000;stroke-width:0.8;" x="56.12" xlink:href="#m98e7bed4bf" y="134.460198"/>
      </g>
     </g>
     <g id="text_9">
      <!-- 0.6 -->
      <g transform="translate(23.675 140.538948)scale(0.16 -0.16)">
       <use xlink:href="#DejaVuSans-30"/>
       <use x="63.623047" xlink:href="#DejaVuSans-2e"/>
       <use x="95.410156" xlink:href="#DejaVuSans-36"/>
      </g>
     </g>
    </g>
    <g id="ytick_5">
     <g id="line2d_33">
      <path clip-path="url(#pdb24124e5f)" d="M 56.12 80.986931 
L 333.168 80.986931 
" style="fill:none;stroke:#b0b0b0;stroke-linecap:square;stroke-width:0.8;"/>
     </g>
     <g id="line2d_34">
      <g>
       <use style="stroke:#000000;stroke-width:0.8;" x="56.12" xlink:href="#m98e7bed4bf" y="80.986931"/>
      </g>
     </g>
     <g id="text_10">
      <!-- 0.8 -->
      <defs>
       <path d="M 31.78125 34.625 
Q 24.75 34.625 20.71875 30.859375 
Q 16.703125 27.09375 16.703125 20.515625 
Q 16.703125 13.921875 20.71875 10.15625 
Q 24.75 6.390625 31.78125 6.390625 
Q 38.8125 6.390625 42.859375 10.171875 
Q 46.921875 13.96875 46.921875 20.515625 
Q 46.921875 27.09375 42.890625 30.859375 
Q 38.875 34.625 31.78125 34.625 
z
M 21.921875 38.8125 
Q 15.578125 40.375 12.03125 44.71875 
Q 8.5 49.078125 8.5 55.328125 
Q 8.5 64.0625 14.71875 69.140625 
Q 20.953125 74.21875 31.78125 74.21875 
Q 42.671875 74.21875 48.875 69.140625 
Q 55.078125 64.0625 55.078125 55.328125 
Q 55.078125 49.078125 51.53125 44.71875 
Q 48 40.375 41.703125 38.8125 
Q 48.828125 37.15625 52.796875 32.3125 
Q 56.78125 27.484375 56.78125 20.515625 
Q 56.78125 9.90625 50.3125 4.234375 
Q 43.84375 -1.421875 31.78125 -1.421875 
Q 19.734375 -1.421875 13.25 4.234375 
Q 6.78125 9.90625 6.78125 20.515625 
Q 6.78125 27.484375 10.78125 32.3125 
Q 14.796875 37.15625 21.921875 38.8125 
z
M 18.3125 54.390625 
Q 18.3125 48.734375 21.84375 45.5625 
Q 25.390625 42.390625 31.78125 42.390625 
Q 38.140625 42.390625 41.71875 45.5625 
Q 45.3125 48.734375 45.3125 54.390625 
Q 45.3125 60.0625 41.71875 63.234375 
Q 38.140625 66.40625 31.78125 66.40625 
Q 25.390625 66.40625 21.84375 63.234375 
Q 18.3125 60.0625 18.3125 54.390625 
z
" id="DejaVuSans-38"/>
      </defs>
      <g transform="translate(23.675 87.065681)scale(0.16 -0.16)">
       <use xlink:href="#DejaVuSans-30"/>
       <use x="63.623047" xlink:href="#DejaVuSans-2e"/>
       <use x="95.410156" xlink:href="#DejaVuSans-38"/>
      </g>
     </g>
    </g>
    <g id="ytick_6">
     <g id="line2d_35">
      <path clip-path="url(#pdb24124e5f)" d="M 56.12 27.513663 
L 333.168 27.513663 
" style="fill:none;stroke:#b0b0b0;stroke-linecap:square;stroke-width:0.8;"/>
     </g>
     <g id="line2d_36">
      <g>
       <use style="stroke:#000000;stroke-width:0.8;" x="56.12" xlink:href="#m98e7bed4bf" y="27.513663"/>
      </g>
     </g>
     <g id="text_11">
      <!-- 1.0 -->
      <g transform="translate(23.675 33.592413)scale(0.16 -0.16)">
       <use xlink:href="#DejaVuSans-31"/>
       <use x="63.623047" xlink:href="#DejaVuSans-2e"/>
       <use x="95.410156" xlink:href="#DejaVuSans-30"/>
      </g>
     </g>
    </g>
    <g id="text_12">
     <!-- Fraction of function,target pairs -->
     <defs>
      <path d="M 9.8125 72.90625 
L 51.703125 72.90625 
L 51.703125 64.59375 
L 19.671875 64.59375 
L 19.671875 43.109375 
L 48.578125 43.109375 
L 48.578125 34.8125 
L 19.671875 34.8125 
L 19.671875 0 
L 9.8125 0 
z
" id="DejaVuSans-46"/>
      <path d="M 41.109375 46.296875 
Q 39.59375 47.171875 37.8125 47.578125 
Q 36.03125 48 33.890625 48 
Q 26.265625 48 22.1875 43.046875 
Q 18.109375 38.09375 18.109375 28.8125 
L 18.109375 0 
L 9.078125 0 
L 9.078125 54.6875 
L 18.109375 54.6875 
L 18.109375 46.1875 
Q 20.953125 51.171875 25.484375 53.578125 
Q 30.03125 56 36.53125 56 
Q 37.453125 56 38.578125 55.875 
Q 39.703125 55.765625 41.0625 55.515625 
z
" id="DejaVuSans-72"/>
      <path d="M 48.78125 52.59375 
L 48.78125 44.1875 
Q 44.96875 46.296875 41.140625 47.34375 
Q 37.3125 48.390625 33.40625 48.390625 
Q 24.65625 48.390625 19.8125 42.84375 
Q 14.984375 37.3125 14.984375 27.296875 
Q 14.984375 17.28125 19.8125 11.734375 
Q 24.65625 6.203125 33.40625 6.203125 
Q 37.3125 6.203125 41.140625 7.25 
Q 44.96875 8.296875 48.78125 10.40625 
L 48.78125 2.09375 
Q 45.015625 0.34375 40.984375 -0.53125 
Q 36.96875 -1.421875 32.421875 -1.421875 
Q 20.0625 -1.421875 12.78125 6.34375 
Q 5.515625 14.109375 5.515625 27.296875 
Q 5.515625 40.671875 12.859375 48.328125 
Q 20.21875 56 33.015625 56 
Q 37.15625 56 41.109375 55.140625 
Q 45.0625 54.296875 48.78125 52.59375 
z
" id="DejaVuSans-63"/>
      <path d="M 18.3125 70.21875 
L 18.3125 54.6875 
L 36.8125 54.6875 
L 36.8125 47.703125 
L 18.3125 47.703125 
L 18.3125 18.015625 
Q 18.3125 11.328125 20.140625 9.421875 
Q 21.96875 7.515625 27.59375 7.515625 
L 36.8125 7.515625 
L 36.8125 0 
L 27.59375 0 
Q 17.1875 0 13.234375 3.875 
Q 9.28125 7.765625 9.28125 18.015625 
L 9.28125 47.703125 
L 2.6875 47.703125 
L 2.6875 54.6875 
L 9.28125 54.6875 
L 9.28125 70.21875 
z
" id="DejaVuSans-74"/>
      <path d="M 8.5 21.578125 
L 8.5 54.6875 
L 17.484375 54.6875 
L 17.484375 21.921875 
Q 17.484375 14.15625 20.5 10.265625 
Q 23.53125 6.390625 29.59375 6.390625 
Q 36.859375 6.390625 41.078125 11.03125 
Q 45.3125 15.671875 45.3125 23.6875 
L 45.3125 54.6875 
L 54.296875 54.6875 
L 54.296875 0 
L 45.3125 0 
L 45.3125 8.40625 
Q 42.046875 3.421875 37.71875 1 
Q 33.40625 -1.421875 27.6875 -1.421875 
Q 18.265625 -1.421875 13.375 4.4375 
Q 8.5 10.296875 8.5 21.578125 
z
M 31.109375 56 
z
" id="DejaVuSans-75"/>
      <path d="M 11.71875 12.40625 
L 22.015625 12.40625 
L 22.015625 4 
L 14.015625 -11.625 
L 7.71875 -11.625 
L 11.71875 4 
z
" id="DejaVuSans-2c"/>
      <path d="M 18.109375 8.203125 
L 18.109375 -20.796875 
L 9.078125 -20.796875 
L 9.078125 54.6875 
L 18.109375 54.6875 
L 18.109375 46.390625 
Q 20.953125 51.265625 25.265625 53.625 
Q 29.59375 56 35.59375 56 
Q 45.5625 56 51.78125 48.09375 
Q 58.015625 40.1875 58.015625 27.296875 
Q 58.015625 14.40625 51.78125 6.484375 
Q 45.5625 -1.421875 35.59375 -1.421875 
Q 29.59375 -1.421875 25.265625 0.953125 
Q 20.953125 3.328125 18.109375 8.203125 
z
M 48.6875 27.296875 
Q 48.6875 37.203125 44.609375 42.84375 
Q 40.53125 48.484375 33.40625 48.484375 
Q 26.265625 48.484375 22.1875 42.84375 
Q 18.109375 37.203125 18.109375 27.296875 
Q 18.109375 17.390625 22.1875 11.75 
Q 26.265625 6.109375 33.40625 6.109375 
Q 40.53125 6.109375 44.609375 11.75 
Q 48.6875 17.390625 48.6875 27.296875 
z
" id="DejaVuSans-70"/>
     </defs>
     <g transform="translate(16.139531 294.999375)rotate(-90)scale(0.17 -0.17)">
      <use xlink:href="#DejaVuSans-46"/>
      <use x="57.410156" xlink:href="#DejaVuSans-72"/>
      <use x="98.523438" xlink:href="#DejaVuSans-61"/>
      <use x="159.802734" xlink:href="#DejaVuSans-63"/>
      <use x="214.783203" xlink:href="#DejaVuSans-74"/>
      <use x="253.992188" xlink:href="#DejaVuSans-69"/>
      <use x="281.775391" xlink:href="#DejaVuSans-6f"/>
      <use x="342.957031" xlink:href="#DejaVuSans-6e"/>
      <use x="406.335938" xlink:href="#DejaVuSans-20"/>
      <use x="438.123047" xlink:href="#DejaVuSans-6f"/>
      <use x="499.304688" xlink:href="#DejaVuSans-66"/>
      <use x="534.509766" xlink:href="#DejaVuSans-20"/>
      <use x="566.296875" xlink:href="#DejaVuSans-66"/>
      <use x="601.501953" xlink:href="#DejaVuSans-75"/>
      <use x="664.880859" xlink:href="#DejaVuSans-6e"/>
      <use x="728.259766" xlink:href="#DejaVuSans-63"/>
      <use x="783.240234" xlink:href="#DejaVuSans-74"/>
      <use x="822.449219" xlink:href="#DejaVuSans-69"/>
      <use x="850.232422" xlink:href="#DejaVuSans-6f"/>
      <use x="911.414062" xlink:href="#DejaVuSans-6e"/>
      <use x="974.792969" xlink:href="#DejaVuSans-2c"/>
      <use x="1006.580078" xlink:href="#DejaVuSans-74"/>
      <use x="1045.789062" xlink:href="#DejaVuSans-61"/>
      <use x="1107.068359" xlink:href="#DejaVuSans-72"/>
      <use x="1148.166016" xlink:href="#DejaVuSans-67"/>
      <use x="1211.642578" xlink:href="#DejaVuSans-65"/>
      <use x="1273.166016" xlink:href="#DejaVuSans-74"/>
      <use x="1312.375" xlink:href="#DejaVuSans-20"/>
      <use x="1344.162109" xlink:href="#DejaVuSans-70"/>
      <use x="1407.638672" xlink:href="#DejaVuSans-61"/>
      <use x="1468.917969" xlink:href="#DejaVuSans-69"/>
      <use x="1496.701172" xlink:href="#DejaVuSans-72"/>
      <use x="1537.814453" xlink:href="#DejaVuSans-73"/>
     </g>
    </g>
   </g>
   <g id="line2d_37">
    <defs>
     <path d="M 0 1.5 
C 0.397805 1.5 0.77937 1.341951 1.06066 1.06066 
C 1.341951 0.77937 1.5 0.397805 1.5 0 
C 1.5 -0.397805 1.341951 -0.77937 1.06066 -1.06066 
C 0.77937 -1.341951 0.397805 -1.5 0 -1.5 
C -0.397805 -1.5 -0.77937 -1.341951 -1.06066 -1.06066 
C -1.341951 -0.77937 -1.5 -0.397805 -1.5 0 
C -1.5 0.397805 -1.341951 0.77937 -1.06066 1.06066 
C -0.77937 1.341951 -0.397805 1.5 0 1.5 
z
" id="m1be00f209a" style="stroke:#00bfbf;"/>
    </defs>
    <g>
     <use style="fill:#00bfbf;stroke:#00bfbf;" x="195.480609" xlink:href="#m1be00f209a" y="27.513663"/>
     <use style="fill:#00bfbf;stroke:#00bfbf;" x="195.480609" xlink:href="#m1be00f209a" y="27.513663"/>
    </g>
   </g>
   <g id="line2d_38">
    <path d="M 81.973032 294.88 
L 81.973032 292.783009 
L 101.481783 292.783009 
L 101.481783 292.258761 
L 128.773486 292.258761 
L 128.773486 291.734514 
L 132.882847 291.734514 
L 132.882847 290.686018 
L 142.69832 290.686018 
L 142.69832 288.589027 
L 143.408921 288.589027 
L 143.515683 287.016284 
L 147.864973 287.016284 
L 147.864973 284.919293 
L 148.192385 284.919293 
L 148.192385 283.34655 
L 148.829074 283.34655 
L 148.829074 281.773807 
L 149.100377 281.773807 
L 149.138788 279.676816 
L 149.704875 279.676816 
L 149.704875 279.152568 
L 150.818844 279.152568 
L 150.818844 277.579825 
L 153.725034 277.579825 
L 153.725034 277.055578 
L 155.242663 277.055578 
L 155.242663 276.53133 
L 156.809852 276.53133 
L 156.809852 275.482834 
L 157.695196 275.482834 
L 157.741778 273.385844 
L 158.132707 273.385844 
L 158.132707 272.337348 
L 159.696387 272.337348 
L 159.696387 270.240357 
L 160.227826 270.240357 
L 160.227826 269.716109 
L 162.767854 269.716109 
L 162.767854 268.667614 
L 163.515304 268.667614 
L 163.515304 267.619119 
L 163.942169 267.619119 
L 163.942169 265.522128 
L 165.609878 265.522128 
L 165.609878 264.99788 
L 165.945063 264.99788 
L 165.945063 264.473632 
L 166.202898 264.473632 
L 166.28799 259.755403 
L 166.858446 259.755403 
L 166.858446 258.706907 
L 167.503095 258.706907 
L 167.503095 256.085669 
L 167.932671 256.085669 
L 167.932671 255.037173 
L 168.137148 255.037173 
L 168.137148 254.512926 
L 169.256002 254.512926 
L 169.362801 251.891687 
L 169.562739 251.891687 
L 169.562739 251.367439 
L 169.748816 251.367439 
L 169.783482 249.270448 
L 169.944339 249.270448 
L 169.944339 248.221953 
L 171.475171 248.221953 
L 171.558662 240.882485 
L 171.734745 240.882485 
L 171.734745 239.83399 
L 172.051265 239.83399 
L 172.051265 239.309742 
L 172.451251 239.309742 
L 172.530144 236.164255 
L 172.754963 236.164255 
L 172.754963 235.11576 
L 173.139082 235.11576 
L 173.139082 234.591512 
L 173.280942 234.591512 
L 173.280942 233.543017 
L 173.440315 233.543017 
L 173.440315 231.970274 
L 173.955093 231.970274 
L 173.955093 229.873283 
L 174.251378 229.873283 
L 174.251378 229.349035 
L 174.454901 229.349035 
L 174.454901 228.30054 
L 174.673422 228.30054 
L 174.742766 226.203549 
L 174.966222 226.203549 
L 175.008863 224.106558 
L 175.161501 224.106558 
L 175.228907 222.533815 
L 175.594991 222.533815 
L 175.594991 221.485319 
L 175.799571 221.485319 
L 175.799571 218.864081 
L 176.217455 218.864081 
L 176.320357 217.291338 
L 176.772101 217.291338 
L 176.825827 215.718594 
L 177.167259 215.718594 
L 177.167259 215.194347 
L 177.2945 215.194347 
L 177.331745 213.097356 
L 177.465163 213.097356 
L 177.465163 212.04886 
L 177.967216 212.04886 
L 178.031633 211.000365 
L 178.286914 211.000365 
L 178.392173 209.427622 
L 178.413147 209.427622 
L 178.413147 206.806383 
L 178.779539 206.806383 
L 178.779539 206.282136 
L 178.976759 206.282136 
L 179.050979 202.088154 
L 179.397563 202.088154 
L 179.397563 199.466915 
L 179.542117 199.466915 
L 179.561735 198.41842 
L 179.678975 198.41842 
L 179.678975 197.894172 
L 179.923886 197.894172 
L 179.994135 194.748686 
L 180.045046 194.748686 
L 180.095806 191.078952 
L 180.184277 191.078952 
L 180.184277 189.506209 
L 180.453197 189.506209 
L 180.453197 186.88497 
L 180.966693 186.88497 
L 181.068775 183.739484 
L 181.223735 183.739484 
L 181.271136 181.642493 
L 181.383191 181.642493 
L 181.383191 181.118245 
L 181.576094 181.118245 
L 181.576094 180.06975 
L 181.80705 180.06975 
L 181.852871 178.497006 
L 181.99528 178.497006 
L 181.99528 175.875768 
L 182.153389 175.875768 
L 182.220708 173.778777 
L 182.503906 173.778777 
L 182.503906 172.206034 
L 182.641043 172.206034 
L 182.74997 163.81807 
L 182.933576 163.81807 
L 182.987207 159.099841 
L 183.131179 159.099841 
L 183.131179 157.527098 
L 183.34228 157.527098 
L 183.34228 157.00285 
L 183.530079 157.00285 
L 183.628374 153.333116 
L 183.761978 153.333116 
L 183.761978 152.808868 
L 183.99584 152.808868 
L 183.99584 151.236125 
L 184.320966 151.236125 
L 184.375384 148.090639 
L 184.434553 148.090639 
L 184.498424 145.993648 
L 184.547395 145.993648 
L 184.547395 142.323914 
L 184.712858 142.323914 
L 184.712858 138.65418 
L 185.10075 138.65418 
L 185.176346 136.557189 
L 185.331221 136.557189 
L 185.331221 133.411703 
L 185.554031 133.411703 
L 185.554031 132.363207 
L 185.673525 132.363207 
L 185.769436 128.693473 
L 185.982175 128.693473 
L 186.07191 125.023739 
L 186.103207 125.023739 
L 186.134446 121.354005 
L 186.435001 121.354005 
L 186.435001 120.30551 
L 186.548544 120.30551 
L 186.587673 119.257014 
L 186.661342 119.257014 
L 186.661342 118.732766 
L 186.829163 118.732766 
L 186.863387 115.58728 
L 187.109488 115.58728 
L 187.21449 114.538785 
L 187.227047 114.538785 
L 187.323014 112.441794 
L 187.794977 112.441794 
L 187.794977 107.723564 
L 187.915996 107.723564 
L 188.004205 104.578078 
L 188.332975 104.578078 
L 188.399545 103.529583 
L 188.824168 103.529583 
L 188.892664 98.287105 
L 188.979791 98.287105 
L 188.991123 93.044628 
L 189.190098 93.044628 
L 189.286873 91.996133 
L 189.386796 91.996133 
L 189.386796 91.471885 
L 189.733832 91.471885 
L 189.733832 90.42339 
L 189.89222 90.42339 
L 189.974437 87.802151 
L 190.091717 87.802151 
L 190.127099 85.180912 
L 190.204685 85.180912 
L 190.306424 81.511178 
L 190.355325 81.511178 
L 190.355325 80.986931 
L 190.707464 80.986931 
L 190.768864 75.744454 
L 191.045834 75.744454 
L 191.11939 68.404985 
L 191.225821 68.404985 
L 191.305215 62.638261 
L 191.351359 62.638261 
L 191.377671 60.017022 
L 191.638604 60.017022 
L 191.73866 55.298792 
L 191.924312 55.298792 
L 191.959297 53.201802 
L 192.044868 53.201802 
L 192.044868 51.104811 
L 192.274116 51.104811 
L 192.37055 46.386581 
L 192.413925 46.386581 
L 192.475699 44.813838 
L 192.73579 44.813838 
L 192.73579 44.28959 
L 192.923051 44.28959 
L 193.01891 40.619856 
L 193.203129 40.619856 
L 193.203129 40.095609 
L 193.408772 40.095609 
L 193.478716 38.522865 
L 193.606211 38.522865 
L 193.689728 35.377379 
L 193.761401 35.377379 
L 193.767122 33.804636 
L 194.291018 33.804636 
L 194.291018 32.756141 
L 194.415403 32.756141 
L 194.415403 32.231893 
L 194.544363 32.231893 
L 194.568948 31.183397 
L 194.726543 31.183397 
L 194.726543 30.65915 
L 194.871982 30.65915 
L 194.917515 28.562159 
L 195.090507 28.562159 
L 195.090507 28.037911 
L 195.480609 28.037911 
L 195.480609 27.513663 
L 333.168 27.513663 
L 333.168 27.513663 
" style="fill:none;stroke:#00bfbf;stroke-linecap:square;stroke-width:1.5;"/>
   </g>
   <g id="line2d_39">
    <defs>
     <path d="M -6 0 
L 6 0 
M 0 6 
L 0 -6 
" id="m45ddd389c2" style="stroke:#00bfbf;stroke-width:1.5;"/>
    </defs>
    <g>
     <use style="fill-opacity:0;stroke:#00bfbf;stroke-width:1.5;" x="176.772101" xlink:href="#m45ddd389c2" y="217.291338"/>
     <use style="fill-opacity:0;stroke:#00bfbf;stroke-width:1.5;" x="191.651547" xlink:href="#m45ddd389c2" y="57.395783"/>
     <use style="fill-opacity:0;stroke:#00bfbf;stroke-width:1.5;" x="195.480609" xlink:href="#m45ddd389c2" y="27.513663"/>
     <use style="fill-opacity:0;stroke:#00bfbf;stroke-width:1.5;" x="195.480609" xlink:href="#m45ddd389c2" y="27.513663"/>
     <use style="fill-opacity:0;stroke:#00bfbf;stroke-width:1.5;" x="333.168" xlink:href="#m45ddd389c2" y="27.513663"/>
    </g>
   </g>
   <g id="line2d_40">
    <path style="fill:none;stroke:#00bfbf;stroke-linecap:square;stroke-width:1.5;"/>
    <g/>
   </g>
   <g id="line2d_41">
    <defs>
     <path d="M 0 1.5 
C 0.397805 1.5 0.77937 1.341951 1.06066 1.06066 
C 1.341951 0.77937 1.5 0.397805 1.5 0 
C 1.5 -0.397805 1.341951 -0.77937 1.06066 -1.06066 
C 0.77937 -1.341951 0.397805 -1.5 0 -1.5 
C -0.397805 -1.5 -0.77937 -1.341951 -1.06066 -1.06066 
C -1.341951 -0.77937 -1.5 -0.397805 -1.5 0 
C -1.5 0.397805 -1.341951 0.77937 -1.06066 1.06066 
C -0.77937 1.341951 -0.397805 1.5 0 1.5 
z
" id="m9a10360b66" style="stroke:#008000;"/>
    </defs>
    <g>
     <use style="fill:#008000;stroke:#008000;" x="190.636696" xlink:href="#m9a10360b66" y="27.513663"/>
     <use style="fill:#008000;stroke:#008000;" x="190.636696" xlink:href="#m9a10360b66" y="27.513663"/>
    </g>
   </g>
   <g id="line2d_42">
    <path d="M 137.827708 294.88 
L 137.827708 294.355752 
L 144.664877 294.355752 
L 144.664877 291.210266 
L 152.327976 291.210266 
L 152.327976 290.686018 
L 152.581065 290.686018 
L 152.581065 289.113275 
L 154.556673 289.113275 
L 154.556673 288.589027 
L 155.358833 288.589027 
L 155.358833 287.016284 
L 155.746298 287.016284 
L 155.746298 282.822302 
L 156.294736 282.822302 
L 156.294736 281.249559 
L 158.4034 281.249559 
L 158.4034 279.152568 
L 158.932322 279.152568 
L 158.932322 278.628321 
L 159.276106 278.628321 
L 159.276106 278.104073 
L 159.875365 278.104073 
L 159.875365 277.579825 
L 160.374795 277.579825 
L 160.374795 277.055578 
L 161.014628 277.055578 
L 161.014628 276.53133 
L 163.325865 276.53133 
L 163.325865 276.007082 
L 164.274068 276.007082 
L 164.274068 275.482834 
L 164.672359 275.482834 
L 164.672359 274.958587 
L 165.14247 274.958587 
L 165.14247 274.434339 
L 165.785573 274.434339 
L 165.785573 273.385844 
L 166.330379 273.385844 
L 166.330379 272.337348 
L 167.971196 272.337348 
L 167.971196 271.8131 
L 168.617367 271.8131 
L 168.617367 271.288853 
L 168.935608 271.288853 
L 168.935608 270.764605 
L 169.818078 270.764605 
L 169.818078 269.191862 
L 170.399519 269.191862 
L 170.399519 268.667614 
L 170.517909 268.667614 
L 170.517909 268.143366 
L 171.033643 268.143366 
L 171.033643 267.619119 
L 171.408785 267.619119 
L 171.408785 266.570623 
L 171.679697 266.570623 
L 171.748479 264.473632 
L 171.926035 264.473632 
L 171.926035 262.900889 
L 172.142077 262.900889 
L 172.24242 259.755403 
L 172.421573 259.755403 
L 172.421573 258.706907 
L 172.559635 258.706907 
L 172.559635 258.18266 
L 172.806677 258.18266 
L 172.806677 257.658412 
L 173.0693 257.658412 
L 173.0693 256.609917 
L 173.221189 256.609917 
L 173.227488 255.561421 
L 173.352999 255.561421 
L 173.352999 255.037173 
L 173.724125 255.037173 
L 173.779109 249.794696 
L 173.88249 249.794696 
L 173.88249 248.221953 
L 173.997303 248.221953 
L 173.997303 247.697705 
L 174.272136 247.697705 
L 174.301746 245.600714 
L 174.425554 245.600714 
L 174.525131 241.93098 
L 174.682106 241.93098 
L 174.70524 238.261246 
L 174.940586 238.261246 
L 175.048566 234.591512 
L 175.088178 234.591512 
L 175.133337 232.494521 
L 175.374054 232.494521 
L 175.379612 228.30054 
L 175.512472 228.30054 
L 175.562031 226.203549 
L 175.737092 226.203549 
L 175.737092 224.106558 
L 175.980293 224.106558 
L 176.081953 219.912576 
L 176.161789 219.912576 
L 176.161789 219.388328 
L 176.378134 219.388328 
L 176.435718 216.76709 
L 176.524332 216.76709 
L 176.602144 213.621604 
L 176.684757 213.621604 
L 176.684757 213.097356 
L 176.864101 213.097356 
L 176.940393 211.524613 
L 177.016348 211.524613 
L 177.117103 207.330631 
L 177.167259 207.330631 
L 177.167259 206.806383 
L 177.514316 206.806383 
L 177.621959 202.088154 
L 177.791832 202.088154 
L 177.878547 198.942667 
L 178.007803 198.942667 
L 178.06494 193.175943 
L 178.178647 193.175943 
L 178.263436 187.933465 
L 178.459666 187.933465 
L 178.473597 185.836474 
L 178.598471 185.836474 
L 178.690389 184.787979 
L 178.749874 184.787979 
L 178.749874 183.739484 
L 179.039755 183.739484 
L 179.039755 179.545502 
L 179.151675 179.545502 
L 179.151675 179.021254 
L 179.31599 179.021254 
L 179.38216 176.400016 
L 179.70492 176.400016 
L 179.743764 174.827272 
L 179.821191 174.827272 
L 179.928152 169.584795 
L 179.945204 169.584795 
L 180.055633 163.81807 
L 180.093694 163.81807 
L 180.093694 163.293823 
L 180.228342 163.293823 
L 180.257656 161.721079 
L 180.56864 161.721079 
L 180.675148 159.624089 
L 180.736295 159.624089 
L 180.768819 158.051345 
L 181.030815 158.051345 
L 181.030815 157.00285 
L 181.237574 157.00285 
L 181.324306 154.905859 
L 181.523699 154.905859 
L 181.58578 152.28462 
L 181.732329 152.28462 
L 181.743846 150.18763 
L 181.873832 150.18763 
L 181.904274 148.090639 
L 182.291481 148.090639 
L 182.291481 147.042143 
L 182.450585 147.042143 
L 182.54974 143.896657 
L 182.648326 143.896657 
L 182.717364 138.65418 
L 182.840218 138.65418 
L 182.854614 137.605684 
L 183.008612 137.605684 
L 183.093969 133.93595 
L 183.196546 133.93595 
L 183.196546 133.411703 
L 183.333536 133.411703 
L 183.431218 129.217721 
L 183.621494 129.217721 
L 183.621494 128.693473 
L 183.741491 128.693473 
L 183.741491 128.169225 
L 183.860656 128.169225 
L 183.860656 127.644978 
L 184.005937 127.644978 
L 184.005937 127.12073 
L 184.160006 127.12073 
L 184.246481 119.257014 
L 184.312706 119.257014 
L 184.352319 114.538785 
L 184.454231 114.538785 
L 184.562059 110.344803 
L 184.627081 110.344803 
L 184.737057 108.77206 
L 184.740281 108.77206 
L 184.849538 106.150821 
L 184.852741 106.150821 
L 184.900714 104.05383 
L 184.980372 104.05383 
L 185.088119 102.481087 
L 185.125986 102.481087 
L 185.217156 98.287105 
L 185.388747 98.287105 
L 185.388747 96.190115 
L 185.521717 96.190115 
L 185.610818 93.044628 
L 185.641435 93.044628 
L 185.708602 91.471885 
L 185.763362 91.471885 
L 185.8482 89.899142 
L 185.884431 89.899142 
L 185.908543 87.277903 
L 186.001657 87.277903 
L 186.06445 86.229408 
L 186.195275 86.229408 
L 186.195275 84.656665 
L 186.330991 84.656665 
L 186.427697 81.511178 
L 186.491866 81.511178 
L 186.573192 79.938435 
L 186.62238 79.938435 
L 186.67431 78.88994 
L 186.737567 78.88994 
L 186.769108 75.220206 
L 187.002429 75.220206 
L 187.044769 72.598967 
L 187.115105 72.598967 
L 187.199129 70.501976 
L 187.238201 70.501976 
L 187.238201 67.35649 
L 187.468032 67.35649 
L 187.555827 63.686756 
L 187.596828 63.686756 
L 187.662225 59.492774 
L 187.708398 59.492774 
L 187.770671 57.395783 
L 187.830026 57.395783 
L 187.830026 56.347288 
L 187.993537 56.347288 
L 188.073385 51.629058 
L 188.118468 51.629058 
L 188.118468 50.580563 
L 188.297628 50.580563 
L 188.37347 48.483572 
L 188.487905 48.483572 
L 188.596433 45.338086 
L 188.696598 45.338086 
L 188.696598 44.28959 
L 188.887599 44.28959 
L 188.902788 43.241095 
L 189.013764 43.241095 
L 189.106534 42.192599 
L 189.16395 42.192599 
L 189.248476 41.144104 
L 189.283161 41.144104 
L 189.337524 40.095609 
L 189.40155 40.095609 
L 189.487365 38.522865 
L 189.684337 38.522865 
L 189.792798 34.853131 
L 189.833595 34.853131 
L 189.914899 32.756141 
L 190.040876 32.756141 
L 190.059811 31.707645 
L 190.182385 31.707645 
L 190.287758 29.610654 
L 190.306424 29.610654 
L 190.306424 28.562159 
L 190.431889 28.562159 
L 190.431889 28.037911 
L 190.636696 28.037911 
L 190.636696 27.513663 
L 333.168 27.513663 
L 333.168 27.513663 
" style="fill:none;stroke:#008000;stroke-linecap:square;stroke-width:1.5;"/>
   </g>
   <g id="line2d_43">
    <defs>
     <path d="M -0 6 
L 6 -6 
L -6 -6 
z
" id="m050ba3f2bf" style="stroke:#008000;stroke-linejoin:miter;stroke-width:1.5;"/>
    </defs>
    <g>
     <use style="fill-opacity:0;stroke:#008000;stroke-linejoin:miter;stroke-width:1.5;" x="175.088178" xlink:href="#m050ba3f2bf" y="233.543017"/>
     <use style="fill-opacity:0;stroke:#008000;stroke-linejoin:miter;stroke-width:1.5;" x="185.656723" xlink:href="#m050ba3f2bf" y="92.520381"/>
     <use style="fill-opacity:0;stroke:#008000;stroke-linejoin:miter;stroke-width:1.5;" x="190.636696" xlink:href="#m050ba3f2bf" y="28.037911"/>
     <use style="fill-opacity:0;stroke:#008000;stroke-linejoin:miter;stroke-width:1.5;" x="190.636696" xlink:href="#m050ba3f2bf" y="27.513663"/>
     <use style="fill-opacity:0;stroke:#008000;stroke-linejoin:miter;stroke-width:1.5;" x="333.168" xlink:href="#m050ba3f2bf" y="27.513663"/>
    </g>
   </g>
   <g id="line2d_44">
    <path style="fill:none;stroke:#008000;stroke-linecap:square;stroke-width:1.5;"/>
    <g/>
   </g>
   <g id="line2d_45">
    <defs>
     <path d="M 0 1.5 
C 0.397805 1.5 0.77937 1.341951 1.06066 1.06066 
C 1.341951 0.77937 1.5 0.397805 1.5 0 
C 1.5 -0.397805 1.341951 -0.77937 1.06066 -1.06066 
C 0.77937 -1.341951 0.397805 -1.5 0 -1.5 
C -0.397805 -1.5 -0.77937 -1.341951 -1.06066 -1.06066 
C -1.341951 -0.77937 -1.5 -0.397805 -1.5 0 
C -1.5 0.397805 -1.341951 0.77937 -1.06066 1.06066 
C -0.77937 1.341951 -0.397805 1.5 0 1.5 
z
" id="mb7c562023a" style="stroke:#0000ff;"/>
    </defs>
    <g>
     <use style="fill:#0000ff;stroke:#0000ff;" x="248.000478" xlink:href="#mb7c562023a" y="27.513663"/>
     <use style="fill:#0000ff;stroke:#0000ff;" x="248.000478" xlink:href="#mb7c562023a" y="27.513663"/>
    </g>
   </g>
   <g id="line2d_46">
    <path d="M 153.719157 294.88 
L 153.719157 294.355752 
L 154.768126 294.355752 
L 154.768126 293.307257 
L 157.188707 293.307257 
L 157.188707 292.783009 
L 157.64381 292.783009 
L 157.64381 292.258761 
L 158.087174 292.258761 
L 158.087174 291.734514 
L 158.295634 291.734514 
L 158.295634 289.113275 
L 158.975673 289.113275 
L 158.975673 288.589027 
L 160.041651 288.589027 
L 160.041651 287.016284 
L 160.538977 287.016284 
L 160.538977 285.967789 
L 161.236223 285.967789 
L 161.236223 284.919293 
L 162.051706 284.919293 
L 162.051706 284.395046 
L 163.361684 284.395046 
L 163.361684 283.870798 
L 163.64778 283.870798 
L 163.64778 282.822302 
L 163.883693 282.822302 
L 163.883693 281.773807 
L 165.035274 281.773807 
L 165.035274 280.201064 
L 165.598101 280.201064 
L 165.598101 279.676816 
L 165.71551 279.676816 
L 165.71551 279.152568 
L 166.017073 279.152568 
L 166.103088 277.055578 
L 166.165893 277.055578 
L 166.165893 276.007082 
L 166.352943 276.007082 
L 166.437298 274.434339 
L 167.048979 274.434339 
L 167.129994 272.337348 
L 167.24813 272.337348 
L 167.280208 271.288853 
L 167.42912 271.288853 
L 167.42912 270.240357 
L 167.87859 270.240357 
L 167.87859 269.716109 
L 168.007075 269.716109 
L 168.093899 268.667614 
L 168.52653 268.667614 
L 168.52653 268.143366 
L 168.929139 268.143366 
L 168.929139 267.619119 
L 169.078921 267.619119 
L 169.078921 266.570623 
L 169.22264 266.570623 
L 169.22264 265.522128 
L 169.360435 265.522128 
L 169.360435 263.949385 
L 169.697845 263.949385 
L 169.697845 263.425137 
L 169.928321 263.425137 
L 169.928321 262.376641 
L 170.478044 262.376641 
L 170.478044 261.852394 
L 170.742083 261.852394 
L 170.742083 260.803898 
L 171.443757 260.803898 
L 171.443757 260.279651 
L 171.870234 260.279651 
L 171.870234 259.755403 
L 172.274406 259.755403 
L 172.358088 257.658412 
L 173.001786 257.658412 
L 173.101054 255.561421 
L 173.432848 255.561421 
L 173.432848 255.037173 
L 173.677556 255.037173 
L 173.677556 253.988678 
L 173.802272 253.988678 
L 173.802272 253.46443 
L 174.327761 253.46443 
L 174.327761 252.940182 
L 174.817 252.940182 
L 174.865167 251.891687 
L 175.141227 251.891687 
L 175.141227 251.367439 
L 175.762111 251.367439 
L 175.762111 250.843192 
L 176.037083 250.843192 
L 176.037083 250.318944 
L 176.199979 250.318944 
L 176.209513 248.746201 
L 176.909917 248.746201 
L 176.909917 247.697705 
L 177.067807 247.697705 
L 177.067807 247.173458 
L 177.435604 247.173458 
L 177.54178 245.600714 
L 177.711473 245.600714 
L 177.711473 245.076467 
L 177.994444 245.076467 
L 178.057333 242.455228 
L 178.182424 242.455228 
L 178.182424 241.93098 
L 178.521804 241.93098 
L 178.615974 238.261246 
L 178.64633 238.261246 
L 178.753527 236.164255 
L 178.835534 236.164255 
L 178.86006 231.970274 
L 179.106099 231.970274 
L 179.183773 230.397531 
L 179.277052 230.397531 
L 179.277052 229.873283 
L 179.895706 229.873283 
L 179.921326 228.824787 
L 180.05648 228.824787 
L 180.157783 227.252044 
L 180.215764 227.252044 
L 180.240912 225.679301 
L 180.343635 225.679301 
L 180.453197 222.009567 
L 180.505242 222.009567 
L 180.505242 221.485319 
L 180.645719 221.485319 
L 180.692291 217.291338 
L 180.845816 217.291338 
L 180.942586 214.145851 
L 180.957054 214.145851 
L 181.057995 211.524613 
L 181.11541 211.524613 
L 181.167872 204.709392 
L 181.383191 204.709392 
L 181.451247 202.612401 
L 181.523699 202.612401 
L 181.621375 199.466915 
L 181.66538 199.466915 
L 181.672318 197.894172 
L 181.801314 197.894172 
L 181.892865 194.748686 
L 182.036076 194.748686 
L 182.099344 191.078952 
L 182.173613 191.078952 
L 182.191569 190.030456 
L 182.390077 190.030456 
L 182.410024 188.457713 
L 182.505007 188.457713 
L 182.549008 185.836474 
L 182.726065 185.836474 
L 182.81716 181.642493 
L 182.937873 181.642493 
L 183.02358 177.448511 
L 183.085452 177.448511 
L 183.19584 172.206034 
L 183.267636 172.206034 
L 183.267636 171.157538 
L 183.408243 171.157538 
L 183.49996 167.487804 
L 183.57464 167.487804 
L 183.653117 163.81807 
L 183.753786 163.81807 
L 183.837568 159.099841 
L 183.951347 159.099841 
L 184.007955 154.381611 
L 184.106573 154.381611 
L 184.214602 150.711877 
L 184.222578 150.711877 
L 184.222578 149.663382 
L 184.414853 149.663382 
L 184.475851 148.090639 
L 184.585495 148.090639 
L 184.640056 142.848162 
L 184.760257 142.848162 
L 184.787283 141.799666 
L 184.89113 141.799666 
L 184.984822 138.65418 
L 185.022918 138.65418 
L 185.053333 135.508693 
L 185.155591 135.508693 
L 185.185773 133.93595 
L 185.279751 133.93595 
L 185.296613 131.838959 
L 185.403021 131.838959 
L 185.486565 130.266216 
L 185.525414 130.266216 
L 185.532803 129.217721 
L 185.665279 129.217721 
L 185.760325 126.072235 
L 185.785825 126.072235 
L 185.889256 123.975244 
L 185.900107 123.975244 
L 185.99027 117.160023 
L 186.060271 117.160023 
L 186.117495 113.490289 
L 186.277423 113.490289 
L 186.34098 108.247812 
L 186.439382 108.247812 
L 186.544191 105.102326 
L 186.563337 105.102326 
L 186.67431 100.384096 
L 186.691585 100.384096 
L 186.786288 92.520381 
L 186.817169 92.520381 
L 186.854837 91.471885 
L 195.604417 91.471885 
L 195.604417 90.947637 
L 196.304447 90.947637 
L 196.321217 89.899142 
L 196.653243 89.899142 
L 196.738144 88.850646 
L 196.858982 88.850646 
L 196.917179 87.802151 
L 197.209928 87.802151 
L 197.290266 85.70516 
L 197.355382 85.70516 
L 197.451671 83.608169 
L 197.496853 83.608169 
L 197.531809 80.986931 
L 197.667283 80.986931 
L 197.743702 79.938435 
L 197.869414 79.938435 
L 197.905421 78.88994 
L 198.053156 78.88994 
L 198.159807 77.317197 
L 198.291319 77.317197 
L 198.386892 74.695958 
L 198.422704 74.695958 
L 198.422704 73.647463 
L 198.558288 73.647463 
L 198.658418 71.550472 
L 198.708265 71.550472 
L 198.812646 68.404985 
L 198.822027 68.404985 
L 198.822027 67.880738 
L 203.868464 67.880738 
L 203.868464 67.35649 
L 204.167141 67.35649 
L 204.167141 66.307995 
L 204.388717 66.307995 
L 204.388717 65.783747 
L 204.665219 65.783747 
L 204.745739 64.211004 
L 204.931369 64.211004 
L 204.954656 62.638261 
L 205.078917 62.638261 
L 205.17403 61.065517 
L 205.19758 61.065517 
L 205.272721 58.968526 
L 205.364441 58.968526 
L 205.364441 58.444279 
L 205.501976 58.444279 
L 205.55507 56.871536 
L 205.61317 56.871536 
L 205.674508 55.82304 
L 205.727073 55.82304 
L 205.80278 52.153306 
L 209.035936 52.153306 
L 209.035936 51.629058 
L 210.280145 51.629058 
L 210.310759 50.056315 
L 210.488547 50.056315 
L 210.597181 47.435077 
L 210.708121 47.435077 
L 210.754171 44.813838 
L 214.289189 44.813838 
L 214.289189 44.28959 
L 214.412504 44.28959 
L 214.481204 43.241095 
L 214.552703 43.241095 
L 214.588511 41.668352 
L 217.233478 41.668352 
L 217.233478 41.144104 
L 217.434714 41.144104 
L 217.476235 40.095609 
L 217.674095 40.095609 
L 217.698278 38.522865 
L 219.901675 38.522865 
L 219.901675 37.998618 
L 220.123076 37.998618 
L 220.123076 37.47437 
L 220.290637 37.47437 
L 220.351409 35.901627 
L 222.362967 35.901627 
L 222.362967 35.377379 
L 222.583689 35.377379 
L 222.583689 34.853131 
L 224.684528 34.853131 
L 224.684528 34.328884 
L 226.263308 34.328884 
L 226.334154 33.280388 
L 227.989395 33.280388 
L 227.989395 32.756141 
L 229.53988 32.756141 
L 229.646753 31.183397 
L 232.25128 31.183397 
L 232.28587 30.134902 
L 237.418028 30.134902 
L 237.418028 29.610654 
L 239.184707 29.610654 
L 239.261181 28.562159 
L 239.988346 28.562159 
L 239.988346 28.037911 
L 248.000478 28.037911 
L 248.000478 27.513663 
L 333.168 27.513663 
L 333.168 27.513663 
" style="fill:none;stroke:#0000ff;stroke-linecap:square;stroke-width:1.5;"/>
   </g>
   <g id="line2d_47">
    <defs>
     <path d="M 0 -6 
L -1.347084 -1.854102 
L -5.706339 -1.854102 
L -2.179628 0.708204 
L -3.526712 4.854102 
L -0 2.291796 
L 3.526712 4.854102 
L 2.179628 0.708204 
L 5.706339 -1.854102 
L 1.347084 -1.854102 
z
" id="m8910703454" style="stroke:#0000ff;stroke-linejoin:bevel;stroke-width:1.5;"/>
    </defs>
    <g>
     <use style="fill-opacity:0;stroke:#0000ff;stroke-linejoin:bevel;stroke-width:1.5;" x="186.092483" xlink:href="#m8910703454" y="115.58728"/>
     <use style="fill-opacity:0;stroke:#0000ff;stroke-linejoin:bevel;stroke-width:1.5;" x="248.000478" xlink:href="#m8910703454" y="28.037911"/>
     <use style="fill-opacity:0;stroke:#0000ff;stroke-linejoin:bevel;stroke-width:1.5;" x="248.000478" xlink:href="#m8910703454" y="27.513663"/>
     <use style="fill-opacity:0;stroke:#0000ff;stroke-linejoin:bevel;stroke-width:1.5;" x="333.168" xlink:href="#m8910703454" y="27.513663"/>
    </g>
   </g>
   <g id="line2d_48">
    <path style="fill:none;stroke:#0000ff;stroke-linecap:square;stroke-width:1.5;"/>
    <g/>
   </g>
   <g id="line2d_49">
    <path clip-path="url(#pdb24124e5f)" d="M 186.941843 91.471885 
" style="fill:none;stroke:#0000ff;stroke-linecap:square;stroke-width:1.5;"/>
    <defs>
     <path d="M -12 12 
L 12 -12 
M -12 -12 
L 12 12 
" id="m9e4da0e0a8" style="stroke:#0000ff;"/>
    </defs>
    <g clip-path="url(#pdb24124e5f)">
     <use style="fill:#0000ff;stroke:#0000ff;" x="186.941843" xlink:href="#m9e4da0e0a8" y="91.471885"/>
    </g>
   </g>
   <g id="line2d_50">
    <defs>
     <path d="M 0 1.5 
C 0.397805 1.5 0.77937 1.341951 1.06066 1.06066 
C 1.341951 0.77937 1.5 0.397805 1.5 0 
C 1.5 -0.397805 1.341951 -0.77937 1.06066 -1.06066 
C 0.77937 -1.341951 0.397805 -1.5 0 -1.5 
C -0.397805 -1.5 -0.77937 -1.341951 -1.06066 -1.06066 
C -1.341951 -0.77937 -1.5 -0.397805 -1.5 0 
C -1.5 0.397805 -1.341951 0.77937 -1.06066 1.06066 
C -0.77937 1.341951 -0.397805 1.5 0 1.5 
z
" id="m39f415fa85" style="stroke:#000000;"/>
    </defs>
    <g>
     <use style="stroke:#000000;" x="237.964303" xlink:href="#m39f415fa85" y="289.637523"/>
     <use style="stroke:#000000;" x="237.964303" xlink:href="#m39f415fa85" y="289.637523"/>
    </g>
   </g>
   <g id="line2d_51">
    <path d="M 173.611162 294.88 
L 173.611162 294.355752 
L 202.417524 294.355752 
L 202.417524 293.831505 
L 210.599544 293.831505 
L 210.599544 293.307257 
L 212.643135 293.307257 
L 212.643135 292.258761 
L 216.120079 292.258761 
L 216.120079 291.734514 
L 217.626057 291.734514 
L 217.626057 291.210266 
L 228.863228 291.210266 
L 228.863228 290.686018 
L 230.301189 290.686018 
L 230.301189 290.161771 
L 237.964303 290.161771 
L 237.964303 289.637523 
L 333.168 289.637523 
" style="fill:none;stroke:#000000;stroke-linecap:square;stroke-width:1.5;"/>
   </g>
   <g id="line2d_52">
    <defs>
     <path d="M 0 6 
C 1.591219 6 3.117479 5.367802 4.242641 4.242641 
C 5.367802 3.117479 6 1.591219 6 0 
C 6 -1.591219 5.367802 -3.117479 4.242641 -4.242641 
C 3.117479 -5.367802 1.591219 -6 0 -6 
C -1.591219 -6 -3.117479 -5.367802 -4.242641 -4.242641 
C -5.367802 -3.117479 -6 -1.591219 -6 0 
C -6 1.591219 -5.367802 3.117479 -4.242641 4.242641 
C -3.117479 5.367802 -1.591219 6 0 6 
z
" id="m57701eea77" style="stroke:#000000;stroke-width:1.5;"/>
    </defs>
    <g>
     <use style="fill-opacity:0;stroke:#000000;stroke-width:1.5;" x="230.301189" xlink:href="#m57701eea77" y="290.161771"/>
     <use style="fill-opacity:0;stroke:#000000;stroke-width:1.5;" x="237.964303" xlink:href="#m57701eea77" y="289.637523"/>
     <use style="fill-opacity:0;stroke:#000000;stroke-width:1.5;" x="237.964303" xlink:href="#m57701eea77" y="289.637523"/>
     <use style="fill-opacity:0;stroke:#000000;stroke-width:1.5;" x="333.168" xlink:href="#m57701eea77" y="289.637523"/>
    </g>
   </g>
   <g id="line2d_53">
    <path style="fill:none;stroke:#000000;stroke-linecap:square;stroke-width:1.5;"/>
    <g/>
   </g>
   <g id="line2d_54">
    <path clip-path="url(#pdb24124e5f)" d="M 175.027591 294.355752 
" style="fill:none;stroke:#000000;stroke-linecap:square;stroke-width:1.5;"/>
    <defs>
     <path d="M -12 12 
L 12 -12 
M -12 -12 
L 12 12 
" id="m24eff2af8c" style="stroke:#000000;"/>
    </defs>
    <g clip-path="url(#pdb24124e5f)">
     <use style="stroke:#000000;" x="175.027591" xlink:href="#m24eff2af8c" y="294.355752"/>
    </g>
   </g>
   <g id="line2d_55">
    <path clip-path="url(#pdb24124e5f)" d="M 56.12 294.88 
L 56.12 294.88 
L 56.12 294.88 
L 56.12 294.88 
L 333.168 294.88 
" style="fill:none;stroke:#ff0000;stroke-linecap:square;stroke-width:1.5;"/>
   </g>
   <g id="line2d_56">
    <defs>
     <path d="M -6 6 
L 6 6 
L 6 -6 
L -6 -6 
z
" id="m3bac5a0cf1" style="stroke:#ff0000;stroke-linejoin:miter;stroke-width:1.5;"/>
    </defs>
    <g clip-path="url(#pdb24124e5f)">
     <use style="fill-opacity:0;stroke:#ff0000;stroke-linejoin:miter;stroke-width:1.5;" x="56.12" xlink:href="#m3bac5a0cf1" y="294.88"/>
    </g>
   </g>
   <g id="line2d_57">
    <path clip-path="url(#pdb24124e5f)" style="fill:none;stroke:#ff0000;stroke-linecap:square;stroke-width:1.5;"/>
    <g clip-path="url(#pdb24124e5f)">
     <use style="fill-opacity:0;stroke:#ff0000;stroke-linejoin:miter;stroke-width:1.5;" x="-1" xlink:href="#m3bac5a0cf1" y="562.246337"/>
     <use style="fill-opacity:0;stroke:#ff0000;stroke-linejoin:miter;stroke-width:1.5;" x="333.168" xlink:href="#m3bac5a0cf1" y="562.246337"/>
    </g>
   </g>
   <g id="line2d_58">
    <path clip-path="url(#pdb24124e5f)" d="M 56.12 294.88 
L 56.12 294.88 
L 56.12 294.88 
L 56.12 294.88 
L 333.168 294.88 
" style="fill:none;stroke:#bf00bf;stroke-linecap:square;stroke-width:1.5;"/>
   </g>
   <g id="line2d_59">
    <defs>
     <path d="M -0 8.485281 
L 8.485281 0 
L 0 -8.485281 
L -8.485281 -0 
z
" id="m0f8c5fc0e0" style="stroke:#bf00bf;stroke-linejoin:miter;stroke-width:1.5;"/>
    </defs>
    <g clip-path="url(#pdb24124e5f)">
     <use style="fill-opacity:0;stroke:#bf00bf;stroke-linejoin:miter;stroke-width:1.5;" x="56.12" xlink:href="#m0f8c5fc0e0" y="294.88"/>
    </g>
   </g>
   <g id="line2d_60">
    <path clip-path="url(#pdb24124e5f)" style="fill:none;stroke:#bf00bf;stroke-linecap:square;stroke-width:1.5;"/>
    <g clip-path="url(#pdb24124e5f)">
     <use style="fill-opacity:0;stroke:#bf00bf;stroke-linejoin:miter;stroke-width:1.5;" x="-1" xlink:href="#m0f8c5fc0e0" y="562.246337"/>
     <use style="fill-opacity:0;stroke:#bf00bf;stroke-linejoin:miter;stroke-width:1.5;" x="333.168" xlink:href="#m0f8c5fc0e0" y="562.246337"/>
    </g>
   </g>
   <g id="line2d_61">
    <path d="M 333.168 294.88 
L 363.64328 289.532673 
" style="fill:none;stroke:#bf00bf;stroke-linecap:square;stroke-width:1.5;"/>
    <g>
     <use style="fill-opacity:0;stroke:#bf00bf;stroke-linejoin:miter;stroke-width:1.5;" x="333.168" xlink:href="#m0f8c5fc0e0" y="294.88"/>
     <use style="fill-opacity:0;stroke:#bf00bf;stroke-linejoin:miter;stroke-width:1.5;" x="363.64328" xlink:href="#m0f8c5fc0e0" y="289.532673"/>
    </g>
   </g>
   <g id="line2d_62">
    <path d="M 333.168 294.88 
L 363.64328 238.198337 
" style="fill:none;stroke:#ff0000;stroke-linecap:square;stroke-width:1.5;"/>
    <g>
     <use style="fill-opacity:0;stroke:#ff0000;stroke-linejoin:miter;stroke-width:1.5;" x="333.168" xlink:href="#m3bac5a0cf1" y="294.88"/>
     <use style="fill-opacity:0;stroke:#ff0000;stroke-linejoin:miter;stroke-width:1.5;" x="363.64328" xlink:href="#m3bac5a0cf1" y="238.198337"/>
    </g>
   </g>
   <g id="line2d_63">
    <path d="M 333.168 289.637523 
L 363.64328 186.864 
" style="fill:none;stroke:#000000;stroke-linecap:square;stroke-width:1.5;"/>
    <g>
     <use style="fill-opacity:0;stroke:#000000;stroke-width:1.5;" x="333.168" xlink:href="#m57701eea77" y="289.637523"/>
     <use style="fill-opacity:0;stroke:#000000;stroke-width:1.5;" x="363.64328" xlink:href="#m57701eea77" y="186.864"/>
    </g>
   </g>
   <g id="line2d_64">
    <path d="M 333.168 27.513663 
L 363.64328 135.529663 
" style="fill:none;stroke:#0000ff;stroke-linecap:square;stroke-width:1.5;"/>
    <g>
     <use style="fill-opacity:0;stroke:#0000ff;stroke-linejoin:bevel;stroke-width:1.5;" x="333.168" xlink:href="#m8910703454" y="27.513663"/>
     <use style="fill-opacity:0;stroke:#0000ff;stroke-linejoin:bevel;stroke-width:1.5;" x="363.64328" xlink:href="#m8910703454" y="135.529663"/>
    </g>
   </g>
   <g id="line2d_65">
    <path d="M 333.168 27.513663 
L 363.64328 84.195327 
" style="fill:none;stroke:#00bfbf;stroke-linecap:square;stroke-width:1.5;"/>
    <g>
     <use style="fill-opacity:0;stroke:#00bfbf;stroke-width:1.5;" x="333.168" xlink:href="#m45ddd389c2" y="27.513663"/>
     <use style="fill-opacity:0;stroke:#00bfbf;stroke-width:1.5;" x="363.64328" xlink:href="#m45ddd389c2" y="84.195327"/>
    </g>
   </g>
   <g id="line2d_66">
    <path d="M 333.168 27.513663 
L 363.64328 32.86099 
" style="fill:none;stroke:#008000;stroke-linecap:square;stroke-width:1.5;"/>
    <g>
     <use style="fill-opacity:0;stroke:#008000;stroke-linejoin:miter;stroke-width:1.5;" x="333.168" xlink:href="#m050ba3f2bf" y="27.513663"/>
     <use style="fill-opacity:0;stroke:#008000;stroke-linejoin:miter;stroke-width:1.5;" x="363.64328" xlink:href="#m050ba3f2bf" y="32.86099"/>
    </g>
   </g>
   <g id="line2d_67">
    <path d="M 333.168 294.88 
L 333.168 27.513663 
" style="fill:none;stroke:#000000;stroke-linecap:square;stroke-width:1.5;"/>
   </g>
   <g id="patch_3">
    <path d="M 56.12 294.88 
L 56.12 24.84 
" style="fill:none;stroke:#000000;stroke-linecap:square;stroke-linejoin:miter;stroke-width:0.8;"/>
   </g>
   <g id="patch_4">
    <path d="M 333.168 294.88 
L 333.168 24.84 
" style="fill:none;stroke:#000000;stroke-linecap:square;stroke-linejoin:miter;stroke-width:0.8;"/>
   </g>
   <g id="patch_5">
    <path d="M 56.12 294.88 
L 333.168 294.88 
" style="fill:none;stroke:#000000;stroke-linecap:square;stroke-linejoin:miter;stroke-width:0.8;"/>
   </g>
   <g id="patch_6">
    <path d="M 56.12 24.84 
L 333.168 24.84 
" style="fill:none;stroke:#000000;stroke-linecap:square;stroke-linejoin:miter;stroke-width:0.8;"/>
   </g>
   <g id="text_13">
    <!-- 40-D -->
    <defs>
     <path d="M 19.671875 64.796875 
L 19.671875 8.109375 
L 31.59375 8.109375 
Q 46.6875 8.109375 53.6875 14.9375 
Q 60.6875 21.78125 60.6875 36.53125 
Q 60.6875 51.171875 53.6875 57.984375 
Q 46.6875 64.796875 31.59375 64.796875 
z
M 9.8125 72.90625 
L 30.078125 72.90625 
Q 51.265625 72.90625 61.171875 64.09375 
Q 71.09375 55.28125 71.09375 36.53125 
Q 71.09375 17.671875 61.125 8.828125 
Q 51.171875 0 30.078125 0 
L 9.8125 0 
z
" id="DejaVuSans-44"/>
    </defs>
    <g transform="translate(369.18424 294.223611)scale(0.17 -0.17)">
     <use xlink:href="#DejaVuSans-34"/>
     <use x="63.623047" xlink:href="#DejaVuSans-30"/>
     <use x="127.246094" xlink:href="#DejaVuSans-2d"/>
     <use x="163.330078" xlink:href="#DejaVuSans-44"/>
    </g>
   </g>
   <g id="text_14">
    <!-- 20-D -->
    <g transform="translate(369.18424 242.889274)scale(0.17 -0.17)">
     <use xlink:href="#DejaVuSans-32"/>
     <use x="63.623047" xlink:href="#DejaVuSans-30"/>
     <use x="127.246094" xlink:href="#DejaVuSans-2d"/>
     <use x="163.330078" xlink:href="#DejaVuSans-44"/>
    </g>
   </g>
   <g id="text_15">
    <!-- 10-D -->
    <g transform="translate(369.18424 191.554937)scale(0.17 -0.17)">
     <use xlink:href="#DejaVuSans-31"/>
     <use x="63.623047" xlink:href="#DejaVuSans-30"/>
     <use x="127.246094" xlink:href="#DejaVuSans-2d"/>
     <use x="163.330078" xlink:href="#DejaVuSans-44"/>
    </g>
   </g>
   <g id="text_16">
    <!-- 5-D -->
    <defs>
     <path d="M 10.796875 72.90625 
L 49.515625 72.90625 
L 49.515625 64.59375 
L 19.828125 64.59375 
L 19.828125 46.734375 
Q 21.96875 47.46875 24.109375 47.828125 
Q 26.265625 48.1875 28.421875 48.1875 
Q 40.625 48.1875 47.75 41.5 
Q 54.890625 34.8125 54.890625 23.390625 
Q 54.890625 11.625 47.5625 5.09375 
Q 40.234375 -1.421875 26.90625 -1.421875 
Q 22.3125 -1.421875 17.546875 -0.640625 
Q 12.796875 0.140625 7.71875 1.703125 
L 7.71875 11.625 
Q 12.109375 9.234375 16.796875 8.0625 
Q 21.484375 6.890625 26.703125 6.890625 
Q 35.15625 6.890625 40.078125 11.328125 
Q 45.015625 15.765625 45.015625 23.390625 
Q 45.015625 31 40.078125 35.4375 
Q 35.15625 39.890625 26.703125 39.890625 
Q 22.75 39.890625 18.8125 39.015625 
Q 14.890625 38.140625 10.796875 36.28125 
z
" id="DejaVuSans-35"/>
    </defs>
    <g transform="translate(369.18424 140.220601)scale(0.17 -0.17)">
     <use xlink:href="#DejaVuSans-35"/>
     <use x="63.623047" xlink:href="#DejaVuSans-2d"/>
     <use x="99.707031" xlink:href="#DejaVuSans-44"/>
    </g>
   </g>
   <g id="text_17">
    <!-- 2-D -->
    <g transform="translate(369.18424 88.886264)scale(0.17 -0.17)">
     <use xlink:href="#DejaVuSans-32"/>
     <use x="63.623047" xlink:href="#DejaVuSans-2d"/>
     <use x="99.707031" xlink:href="#DejaVuSans-44"/>
    </g>
   </g>
   <g id="text_18">
    <!-- 3-D -->
    <defs>
     <path d="M 40.578125 39.3125 
Q 47.65625 37.796875 51.625 33 
Q 55.609375 28.21875 55.609375 21.1875 
Q 55.609375 10.40625 48.1875 4.484375 
Q 40.765625 -1.421875 27.09375 -1.421875 
Q 22.515625 -1.421875 17.65625 -0.515625 
Q 12.796875 0.390625 7.625 2.203125 
L 7.625 11.71875 
Q 11.71875 9.328125 16.59375 8.109375 
Q 21.484375 6.890625 26.8125 6.890625 
Q 36.078125 6.890625 40.9375 10.546875 
Q 45.796875 14.203125 45.796875 21.1875 
Q 45.796875 27.640625 41.28125 31.265625 
Q 36.765625 34.90625 28.71875 34.90625 
L 20.21875 34.90625 
L 20.21875 43.015625 
L 29.109375 43.015625 
Q 36.375 43.015625 40.234375 45.921875 
Q 44.09375 48.828125 44.09375 54.296875 
Q 44.09375 59.90625 40.109375 62.90625 
Q 36.140625 65.921875 28.71875 65.921875 
Q 24.65625 65.921875 20.015625 65.03125 
Q 15.375 64.15625 9.8125 62.3125 
L 9.8125 71.09375 
Q 15.4375 72.65625 20.34375 73.4375 
Q 25.25 74.21875 29.59375 74.21875 
Q 40.828125 74.21875 47.359375 69.109375 
Q 53.90625 64.015625 53.90625 55.328125 
Q 53.90625 49.265625 50.4375 45.09375 
Q 46.96875 40.921875 40.578125 39.3125 
z
" id="DejaVuSans-33"/>
    </defs>
    <g transform="translate(369.18424 37.551928)scale(0.17 -0.17)">
     <use xlink:href="#DejaVuSans-33"/>
     <use x="63.623047" xlink:href="#DejaVuSans-2d"/>
     <use x="99.707031" xlink:href="#DejaVuSans-44"/>
    </g>
   </g>
   <g id="text_19">
    <!-- bbob f2 -->
    <defs>
     <path d="M 48.6875 27.296875 
Q 48.6875 37.203125 44.609375 42.84375 
Q 40.53125 48.484375 33.40625 48.484375 
Q 26.265625 48.484375 22.1875 42.84375 
Q 18.109375 37.203125 18.109375 27.296875 
Q 18.109375 17.390625 22.1875 11.75 
Q 26.265625 6.109375 33.40625 6.109375 
Q 40.53125 6.109375 44.609375 11.75 
Q 48.6875 17.390625 48.6875 27.296875 
z
M 18.109375 46.390625 
Q 20.953125 51.265625 25.265625 53.625 
Q 29.59375 56 35.59375 56 
Q 45.5625 56 51.78125 48.09375 
Q 58.015625 40.1875 58.015625 27.296875 
Q 58.015625 14.40625 51.78125 6.484375 
Q 45.5625 -1.421875 35.59375 -1.421875 
Q 29.59375 -1.421875 25.265625 0.953125 
Q 20.953125 3.328125 18.109375 8.203125 
L 18.109375 0 
L 9.078125 0 
L 9.078125 75.984375 
L 18.109375 75.984375 
z
" id="DejaVuSans-62"/>
    </defs>
    <g transform="translate(58.89048 35.290806)scale(0.102 -0.102)">
     <use xlink:href="#DejaVuSans-62"/>
     <use x="63.476562" xlink:href="#DejaVuSans-62"/>
     <use x="126.953125" xlink:href="#DejaVuSans-6f"/>
     <use x="188.134766" xlink:href="#DejaVuSans-62"/>
     <use x="251.611328" xlink:href="#DejaVuSans-20"/>
     <use x="283.398438" xlink:href="#DejaVuSans-66"/>
     <use x="318.603516" xlink:href="#DejaVuSans-32"/>
    </g>
    <!-- 51 targets: 100..1e-08 -->
    <defs>
     <path d="M 11.71875 12.40625 
L 22.015625 12.40625 
L 22.015625 0 
L 11.71875 0 
z
M 11.71875 51.703125 
L 22.015625 51.703125 
L 22.015625 39.3125 
L 11.71875 39.3125 
z
" id="DejaVuSans-3a"/>
    </defs>
    <g transform="translate(58.89048 46.712575)scale(0.102 -0.102)">
     <use xlink:href="#DejaVuSans-35"/>
     <use x="63.623047" xlink:href="#DejaVuSans-31"/>
     <use x="127.246094" xlink:href="#DejaVuSans-20"/>
     <use x="159.033203" xlink:href="#DejaVuSans-74"/>
     <use x="198.242188" xlink:href="#DejaVuSans-61"/>
     <use x="259.521484" xlink:href="#DejaVuSans-72"/>
     <use x="300.619141" xlink:href="#DejaVuSans-67"/>
     <use x="364.095703" xlink:href="#DejaVuSans-65"/>
     <use x="425.619141" xlink:href="#DejaVuSans-74"/>
     <use x="464.828125" xlink:href="#DejaVuSans-73"/>
     <use x="516.927734" xlink:href="#DejaVuSans-3a"/>
     <use x="550.619141" xlink:href="#DejaVuSans-20"/>
     <use x="582.40625" xlink:href="#DejaVuSans-31"/>
     <use x="646.029297" xlink:href="#DejaVuSans-30"/>
     <use x="709.652344" xlink:href="#DejaVuSans-30"/>
     <use x="773.275391" xlink:href="#DejaVuSans-2e"/>
     <use x="805.0625" xlink:href="#DejaVuSans-2e"/>
     <use x="836.849609" xlink:href="#DejaVuSans-31"/>
     <use x="900.472656" xlink:href="#DejaVuSans-65"/>
     <use x="961.996094" xlink:href="#DejaVuSans-2d"/>
     <use x="998.080078" xlink:href="#DejaVuSans-30"/>
     <use x="1061.703125" xlink:href="#DejaVuSans-38"/>
    </g>
    <!-- 15 instances -->
    <g transform="translate(58.89048 58.134344)scale(0.102 -0.102)">
     <use xlink:href="#DejaVuSans-31"/>
     <use x="63.623047" xlink:href="#DejaVuSans-35"/>
     <use x="127.246094" xlink:href="#DejaVuSans-20"/>
     <use x="159.033203" xlink:href="#DejaVuSans-69"/>
     <use x="186.816406" xlink:href="#DejaVuSans-6e"/>
     <use x="250.195312" xlink:href="#DejaVuSans-73"/>
     <use x="302.294922" xlink:href="#DejaVuSans-74"/>
     <use x="341.503906" xlink:href="#DejaVuSans-61"/>
     <use x="402.783203" xlink:href="#DejaVuSans-6e"/>
     <use x="466.162109" xlink:href="#DejaVuSans-63"/>
     <use x="521.142578" xlink:href="#DejaVuSans-65"/>
     <use x="582.666016" xlink:href="#DejaVuSans-73"/>
    </g>
   </g>
   <g id="text_20">
    <!-- v0.0.0 -->
    <g style="fill:#808080;" transform="translate(178.96275 290.099912)scale(0.1 -0.1)">
     <use xlink:href="#DejaVuSans-76"/>
     <use x="59.179688" xlink:href="#DejaVuSans-30"/>
     <use x="122.802734" xlink:href="#DejaVuSans-2e"/>
     <use x="154.589844" xlink:href="#DejaVuSans-30"/>
     <use x="218.212891" xlink:href="#DejaVuSans-2e"/>
     <use x="250" xlink:href="#DejaVuSans-30"/>
    </g>
   </g>
   <g id="text_21">
    <!-- 2 Ellipsoid separable -->
    <defs>
     <path d="M 9.8125 72.90625 
L 55.90625 72.90625 
L 55.90625 64.59375 
L 19.671875 64.59375 
L 19.671875 43.015625 
L 54.390625 43.015625 
L 54.390625 34.71875 
L 19.671875 34.71875 
L 19.671875 8.296875 
L 56.78125 8.296875 
L 56.78125 0 
L 9.8125 0 
z
" id="DejaVuSans-45"/>
    </defs>
    <g transform="translate(91.111187 18.84)scale(0.2 -0.2)">
     <use xlink:href="#DejaVuSans-32"/>
     <use x="63.623047" xlink:href="#DejaVuSans-20"/>
     <use x="95.410156" xlink:href="#DejaVuSans-45"/>
     <use x="158.59375" xlink:href="#DejaVuSans-6c"/>
     <use x="186.376953" xlink:href="#DejaVuSans-6c"/>
     <use x="214.160156" xlink:href="#DejaVuSans-69"/>
     <use x="241.943359" xlink:href="#DejaVuSans-70"/>
     <use x="305.419922" xlink:href="#DejaVuSans-73"/>
     <use x="357.519531" xlink:href="#DejaVuSans-6f"/>
     <use x="418.701172" xlink:href="#DejaVuSans-69"/>
     <use x="446.484375" xlink:href="#DejaVuSans-64"/>
     <use x="509.960938" xlink:href="#DejaVuSans-20"/>
     <use x="541.748047" xlink:href="#DejaVuSans-73"/>
     <use x="593.847656" xlink:href="#DejaVuSans-65"/>
     <use x="655.371094" xlink:href="#DejaVuSans-70"/>
     <use x="718.847656" xlink:href="#DejaVuSans-61"/>
     <use x="780.126953" xlink:href="#DejaVuSans-72"/>
     <use x="821.240234" xlink:href="#DejaVuSans-61"/>
     <use x="882.519531" xlink:href="#DejaVuSans-62"/>
     <use x="945.996094" xlink:href="#DejaVuSans-6c"/>
     <use x="973.779297" xlink:href="#DejaVuSans-65"/>
    </g>
   </g>
  </g>
 </g>
 <defs>
  <clipPath id="pdb24124e5f">
   <rect height="270.04" width="277.048" x="56.12" y="24.84"/>
  </clipPath>
 </defs>
</svg>
