<?xml version="1.0" encoding="utf-8" standalone="no"?>
<!DOCTYPE svg PUBLIC "-//W3C//DTD SVG 1.1//EN"
  "http://www.w3.org/Graphics/SVG/1.1/DTD/svg11.dtd">
<!-- Created with matplotlib (http://matplotlib.org/) -->
<svg height="345.6pt" version="1.1" viewBox="0 0 460.8 345.6" width="460.8pt" xmlns="http://www.w3.org/2000/svg" xmlns:xlink="http://www.w3.org/1999/xlink">
 <defs>
  <style type="text/css">
*{stroke-linecap:butt;stroke-linejoin:round;}
  </style>
 </defs>
 <g id="figure_1">
  <g id="patch_1">
   <path d="M 0 345.6 
L 460.8 345.6 
L 460.8 0 
L 0 0 
z
" style="fill:#ffffff;"/>
  </g>
  <g id="axes_1">
   <g id="patch_2">
    <path d="M 56.12 294.88 
L 333.168 294.88 
L 333.168 24.84 
L 56.12 24.84 
z
" style="fill:#ffffff;"/>
   </g>
   <g id="matplotlib.axis_1">
    <g id="xtick_1">
     <g id="line2d_1">
      <path clip-path="url(#p57d7752b52)" d="M 56.12 294.88 
L 56.12 24.84 
" style="fill:none;stroke:#b0b0b0;stroke-linecap:square;stroke-width:0.8;"/>
     </g>
     <g id="line2d_2">
      <defs>
       <path d="M 0 0 
L 0 3.5 
" id="m36d2f56d1d" style="stroke:#000000;stroke-width:0.8;"/>
      </defs>
      <g>
       <use style="stroke:#000000;stroke-width:0.8;" x="56.12" xlink:href="#m36d2f56d1d" y="294.88"/>
      </g>
     </g>
     <g id="text_1">
      <!-- 0 -->
      <defs>
       <path d="M 31.78125 66.40625 
Q 24.171875 66.40625 20.328125 58.90625 
Q 16.5 51.421875 16.5 36.375 
Q 16.5 21.390625 20.328125 13.890625 
Q 24.171875 6.390625 31.78125 6.390625 
Q 39.453125 6.390625 43.28125 13.890625 
Q 47.125 21.390625 47.125 36.375 
Q 47.125 51.421875 43.28125 58.90625 
Q 39.453125 66.40625 31.78125 66.40625 
z
M 31.78125 74.21875 
Q 44.046875 74.21875 50.515625 64.515625 
Q 56.984375 54.828125 56.984375 36.375 
Q 56.984375 17.96875 50.515625 8.265625 
Q 44.046875 -1.421875 31.78125 -1.421875 
Q 19.53125 -1.421875 13.0625 8.265625 
Q 6.59375 17.96875 6.59375 36.375 
Q 6.59375 54.828125 13.0625 64.515625 
Q 19.53125 74.21875 31.78125 74.21875 
z
" id="DejaVuSans-30"/>
      </defs>
      <g transform="translate(49.7575 317.076875)scale(0.2 -0.2)">
       <use xlink:href="#DejaVuSans-30"/>
      </g>
     </g>
    </g>
    <g id="xtick_2">
     <g id="line2d_3">
      <path clip-path="url(#p57d7752b52)" d="M 135.276571 294.88 
L 135.276571 24.84 
" style="fill:none;stroke:#b0b0b0;stroke-linecap:square;stroke-width:0.8;"/>
     </g>
     <g id="line2d_4">
      <g>
       <use style="stroke:#000000;stroke-width:0.8;" x="135.276571" xlink:href="#m36d2f56d1d" y="294.88"/>
      </g>
     </g>
     <g id="text_2">
      <!-- 2 -->
      <defs>
       <path d="M 19.1875 8.296875 
L 53.609375 8.296875 
L 53.609375 0 
L 7.328125 0 
L 7.328125 8.296875 
Q 12.9375 14.109375 22.625 23.890625 
Q 32.328125 33.6875 34.8125 36.53125 
Q 39.546875 41.84375 41.421875 45.53125 
Q 43.3125 49.21875 43.3125 52.78125 
Q 43.3125 58.59375 39.234375 62.25 
Q 35.15625 65.921875 28.609375 65.921875 
Q 23.96875 65.921875 18.8125 64.3125 
Q 13.671875 62.703125 7.8125 59.421875 
L 7.8125 69.390625 
Q 13.765625 71.78125 18.9375 73 
Q 24.125 74.21875 28.421875 74.21875 
Q 39.75 74.21875 46.484375 68.546875 
Q 53.21875 62.890625 53.21875 53.421875 
Q 53.21875 48.921875 51.53125 44.890625 
Q 49.859375 40.875 45.40625 35.40625 
Q 44.1875 33.984375 37.640625 27.21875 
Q 31.109375 20.453125 19.1875 8.296875 
z
" id="DejaVuSans-32"/>
      </defs>
      <g transform="translate(128.914071 317.076875)scale(0.2 -0.2)">
       <use xlink:href="#DejaVuSans-32"/>
      </g>
     </g>
    </g>
    <g id="xtick_3">
     <g id="line2d_5">
      <path clip-path="url(#p57d7752b52)" d="M 214.433143 294.88 
L 214.433143 24.84 
" style="fill:none;stroke:#b0b0b0;stroke-linecap:square;stroke-width:0.8;"/>
     </g>
     <g id="line2d_6">
      <g>
       <use style="stroke:#000000;stroke-width:0.8;" x="214.433143" xlink:href="#m36d2f56d1d" y="294.88"/>
      </g>
     </g>
     <g id="text_3">
      <!-- 4 -->
      <defs>
       <path d="M 37.796875 64.3125 
L 12.890625 25.390625 
L 37.796875 25.390625 
z
M 35.203125 72.90625 
L 47.609375 72.90625 
L 47.609375 25.390625 
L 58.015625 25.390625 
L 58.015625 17.1875 
L 47.609375 17.1875 
L 47.609375 0 
L 37.796875 0 
L 37.796875 17.1875 
L 4.890625 17.1875 
L 4.890625 26.703125 
z
" id="DejaVuSans-34"/>
      </defs>
      <g transform="translate(208.070643 317.076875)scale(0.2 -0.2)">
       <use xlink:href="#DejaVuSans-34"/>
      </g>
     </g>
    </g>
    <g id="xtick_4">
     <g id="line2d_7">
      <path clip-path="url(#p57d7752b52)" d="M 293.589714 294.88 
L 293.589714 24.84 
" style="fill:none;stroke:#b0b0b0;stroke-linecap:square;stroke-width:0.8;"/>
     </g>
     <g id="line2d_8">
      <g>
       <use style="stroke:#000000;stroke-width:0.8;" x="293.589714" xlink:href="#m36d2f56d1d" y="294.88"/>
      </g>
     </g>
     <g id="text_4">
      <!-- 6 -->
      <defs>
       <path d="M 33.015625 40.375 
Q 26.375 40.375 22.484375 35.828125 
Q 18.609375 31.296875 18.609375 23.390625 
Q 18.609375 15.53125 22.484375 10.953125 
Q 26.375 6.390625 33.015625 6.390625 
Q 39.65625 6.390625 43.53125 10.953125 
Q 47.40625 15.53125 47.40625 23.390625 
Q 47.40625 31.296875 43.53125 35.828125 
Q 39.65625 40.375 33.015625 40.375 
z
M 52.59375 71.296875 
L 52.59375 62.3125 
Q 48.875 64.0625 45.09375 64.984375 
Q 41.3125 65.921875 37.59375 65.921875 
Q 27.828125 65.921875 22.671875 59.328125 
Q 17.53125 52.734375 16.796875 39.40625 
Q 19.671875 43.65625 24.015625 45.921875 
Q 28.375 48.1875 33.59375 48.1875 
Q 44.578125 48.1875 50.953125 41.515625 
Q 57.328125 34.859375 57.328125 23.390625 
Q 57.328125 12.15625 50.6875 5.359375 
Q 44.046875 -1.421875 33.015625 -1.421875 
Q 20.359375 -1.421875 13.671875 8.265625 
Q 6.984375 17.96875 6.984375 36.375 
Q 6.984375 53.65625 15.1875 63.9375 
Q 23.390625 74.21875 37.203125 74.21875 
Q 40.921875 74.21875 44.703125 73.484375 
Q 48.484375 72.75 52.59375 71.296875 
z
" id="DejaVuSans-36"/>
      </defs>
      <g transform="translate(287.227214 317.076875)scale(0.2 -0.2)">
       <use xlink:href="#DejaVuSans-36"/>
      </g>
     </g>
    </g>
    <g id="xtick_5">
     <g id="line2d_9">
      <path clip-path="url(#p57d7752b52)" d="M 56.12 294.88 
L 56.12 24.84 
" style="fill:none;stroke:#b0b0b0;stroke-linecap:square;stroke-width:0.8;"/>
     </g>
     <g id="line2d_10">
      <defs>
       <path d="M 0 0 
L 0 2 
" id="mca8d6aed80" style="stroke:#000000;stroke-width:0.6;"/>
      </defs>
      <g>
       <use style="stroke:#000000;stroke-width:0.6;" x="56.12" xlink:href="#mca8d6aed80" y="294.88"/>
      </g>
     </g>
    </g>
    <g id="xtick_6">
     <g id="line2d_11">
      <path clip-path="url(#p57d7752b52)" d="M 95.698286 294.88 
L 95.698286 24.84 
" style="fill:none;stroke:#b0b0b0;stroke-linecap:square;stroke-width:0.8;"/>
     </g>
     <g id="line2d_12">
      <g>
       <use style="stroke:#000000;stroke-width:0.6;" x="95.698286" xlink:href="#mca8d6aed80" y="294.88"/>
      </g>
     </g>
    </g>
    <g id="xtick_7">
     <g id="line2d_13">
      <path clip-path="url(#p57d7752b52)" d="M 135.276571 294.88 
L 135.276571 24.84 
" style="fill:none;stroke:#b0b0b0;stroke-linecap:square;stroke-width:0.8;"/>
     </g>
     <g id="line2d_14">
      <g>
       <use style="stroke:#000000;stroke-width:0.6;" x="135.276571" xlink:href="#mca8d6aed80" y="294.88"/>
      </g>
     </g>
    </g>
    <g id="xtick_8">
     <g id="line2d_15">
      <path clip-path="url(#p57d7752b52)" d="M 174.854857 294.88 
L 174.854857 24.84 
" style="fill:none;stroke:#b0b0b0;stroke-linecap:square;stroke-width:0.8;"/>
     </g>
     <g id="line2d_16">
      <g>
       <use style="stroke:#000000;stroke-width:0.6;" x="174.854857" xlink:href="#mca8d6aed80" y="294.88"/>
      </g>
     </g>
    </g>
    <g id="xtick_9">
     <g id="line2d_17">
      <path clip-path="url(#p57d7752b52)" d="M 214.433143 294.88 
L 214.433143 24.84 
" style="fill:none;stroke:#b0b0b0;stroke-linecap:square;stroke-width:0.8;"/>
     </g>
     <g id="line2d_18">
      <g>
       <use style="stroke:#000000;stroke-width:0.6;" x="214.433143" xlink:href="#mca8d6aed80" y="294.88"/>
      </g>
     </g>
    </g>
    <g id="xtick_10">
     <g id="line2d_19">
      <path clip-path="url(#p57d7752b52)" d="M 254.011429 294.88 
L 254.011429 24.84 
" style="fill:none;stroke:#b0b0b0;stroke-linecap:square;stroke-width:0.8;"/>
     </g>
     <g id="line2d_20">
      <g>
       <use style="stroke:#000000;stroke-width:0.6;" x="254.011429" xlink:href="#mca8d6aed80" y="294.88"/>
      </g>
     </g>
    </g>
    <g id="xtick_11">
     <g id="line2d_21">
      <path clip-path="url(#p57d7752b52)" d="M 293.589714 294.88 
L 293.589714 24.84 
" style="fill:none;stroke:#b0b0b0;stroke-linecap:square;stroke-width:0.8;"/>
     </g>
     <g id="line2d_22">
      <g>
       <use style="stroke:#000000;stroke-width:0.6;" x="293.589714" xlink:href="#mca8d6aed80" y="294.88"/>
      </g>
     </g>
    </g>
    <g id="xtick_12">
     <g id="line2d_23">
      <path clip-path="url(#p57d7752b52)" d="M 333.168 294.88 
L 333.168 24.84 
" style="fill:none;stroke:#b0b0b0;stroke-linecap:square;stroke-width:0.8;"/>
     </g>
     <g id="line2d_24">
      <g>
       <use style="stroke:#000000;stroke-width:0.6;" x="333.168" xlink:href="#mca8d6aed80" y="294.88"/>
      </g>
     </g>
    </g>
    <g id="text_5">
     <!-- log10(# f-evals / dimension) -->
     <defs>
      <path d="M 9.421875 75.984375 
L 18.40625 75.984375 
L 18.40625 0 
L 9.421875 0 
z
" id="DejaVuSans-6c"/>
      <path d="M 30.609375 48.390625 
Q 23.390625 48.390625 19.1875 42.75 
Q 14.984375 37.109375 14.984375 27.296875 
Q 14.984375 17.484375 19.15625 11.84375 
Q 23.34375 6.203125 30.609375 6.203125 
Q 37.796875 6.203125 41.984375 11.859375 
Q 46.1875 17.53125 46.1875 27.296875 
Q 46.1875 37.015625 41.984375 42.703125 
Q 37.796875 48.390625 30.609375 48.390625 
z
M 30.609375 56 
Q 42.328125 56 49.015625 48.375 
Q 55.71875 40.765625 55.71875 27.296875 
Q 55.71875 13.875 49.015625 6.21875 
Q 42.328125 -1.421875 30.609375 -1.421875 
Q 18.84375 -1.421875 12.171875 6.21875 
Q 5.515625 13.875 5.515625 27.296875 
Q 5.515625 40.765625 12.171875 48.375 
Q 18.84375 56 30.609375 56 
z
" id="DejaVuSans-6f"/>
      <path d="M 45.40625 27.984375 
Q 45.40625 37.75 41.375 43.109375 
Q 37.359375 48.484375 30.078125 48.484375 
Q 22.859375 48.484375 18.828125 43.109375 
Q 14.796875 37.75 14.796875 27.984375 
Q 14.796875 18.265625 18.828125 12.890625 
Q 22.859375 7.515625 30.078125 7.515625 
Q 37.359375 7.515625 41.375 12.890625 
Q 45.40625 18.265625 45.40625 27.984375 
z
M 54.390625 6.78125 
Q 54.390625 -7.171875 48.1875 -13.984375 
Q 42 -20.796875 29.203125 -20.796875 
Q 24.46875 -20.796875 20.265625 -20.09375 
Q 16.0625 -19.390625 12.109375 -17.921875 
L 12.109375 -9.1875 
Q 16.0625 -11.328125 19.921875 -12.34375 
Q 23.78125 -13.375 27.78125 -13.375 
Q 36.625 -13.375 41.015625 -8.765625 
Q 45.40625 -4.15625 45.40625 5.171875 
L 45.40625 9.625 
Q 42.625 4.78125 38.28125 2.390625 
Q 33.9375 0 27.875 0 
Q 17.828125 0 11.671875 7.65625 
Q 5.515625 15.328125 5.515625 27.984375 
Q 5.515625 40.671875 11.671875 48.328125 
Q 17.828125 56 27.875 56 
Q 33.9375 56 38.28125 53.609375 
Q 42.625 51.21875 45.40625 46.390625 
L 45.40625 54.6875 
L 54.390625 54.6875 
z
" id="DejaVuSans-67"/>
      <path d="M 12.40625 8.296875 
L 28.515625 8.296875 
L 28.515625 63.921875 
L 10.984375 60.40625 
L 10.984375 69.390625 
L 28.421875 72.90625 
L 38.28125 72.90625 
L 38.28125 8.296875 
L 54.390625 8.296875 
L 54.390625 0 
L 12.40625 0 
z
" id="DejaVuSans-31"/>
      <path d="M 31 75.875 
Q 24.46875 64.65625 21.28125 53.65625 
Q 18.109375 42.671875 18.109375 31.390625 
Q 18.109375 20.125 21.3125 9.0625 
Q 24.515625 -2 31 -13.1875 
L 23.1875 -13.1875 
Q 15.875 -1.703125 12.234375 9.375 
Q 8.59375 20.453125 8.59375 31.390625 
Q 8.59375 42.28125 12.203125 53.3125 
Q 15.828125 64.359375 23.1875 75.875 
z
" id="DejaVuSans-28"/>
      <path d="M 51.125 44 
L 36.921875 44 
L 32.8125 27.6875 
L 47.125 27.6875 
z
M 43.796875 71.78125 
L 38.71875 51.515625 
L 52.984375 51.515625 
L 58.109375 71.78125 
L 65.921875 71.78125 
L 60.890625 51.515625 
L 76.125 51.515625 
L 76.125 44 
L 58.984375 44 
L 54.984375 27.6875 
L 70.515625 27.6875 
L 70.515625 20.21875 
L 53.078125 20.21875 
L 48 0 
L 40.1875 0 
L 45.21875 20.21875 
L 30.90625 20.21875 
L 25.875 0 
L 18.015625 0 
L 23.09375 20.21875 
L 7.71875 20.21875 
L 7.71875 27.6875 
L 24.90625 27.6875 
L 29 44 
L 13.28125 44 
L 13.28125 51.515625 
L 30.90625 51.515625 
L 35.890625 71.78125 
z
" id="DejaVuSans-23"/>
      <path id="DejaVuSans-20"/>
      <path d="M 37.109375 75.984375 
L 37.109375 68.5 
L 28.515625 68.5 
Q 23.6875 68.5 21.796875 66.546875 
Q 19.921875 64.59375 19.921875 59.515625 
L 19.921875 54.6875 
L 34.71875 54.6875 
L 34.71875 47.703125 
L 19.921875 47.703125 
L 19.921875 0 
L 10.890625 0 
L 10.890625 47.703125 
L 2.296875 47.703125 
L 2.296875 54.6875 
L 10.890625 54.6875 
L 10.890625 58.5 
Q 10.890625 67.625 15.140625 71.796875 
Q 19.390625 75.984375 28.609375 75.984375 
z
" id="DejaVuSans-66"/>
      <path d="M 4.890625 31.390625 
L 31.203125 31.390625 
L 31.203125 23.390625 
L 4.890625 23.390625 
z
" id="DejaVuSans-2d"/>
      <path d="M 56.203125 29.59375 
L 56.203125 25.203125 
L 14.890625 25.203125 
Q 15.484375 15.921875 20.484375 11.0625 
Q 25.484375 6.203125 34.421875 6.203125 
Q 39.59375 6.203125 44.453125 7.46875 
Q 49.3125 8.734375 54.109375 11.28125 
L 54.109375 2.78125 
Q 49.265625 0.734375 44.1875 -0.34375 
Q 39.109375 -1.421875 33.890625 -1.421875 
Q 20.796875 -1.421875 13.15625 6.1875 
Q 5.515625 13.8125 5.515625 26.8125 
Q 5.515625 40.234375 12.765625 48.109375 
Q 20.015625 56 32.328125 56 
Q 43.359375 56 49.78125 48.890625 
Q 56.203125 41.796875 56.203125 29.59375 
z
M 47.21875 32.234375 
Q 47.125 39.59375 43.09375 43.984375 
Q 39.0625 48.390625 32.421875 48.390625 
Q 24.90625 48.390625 20.390625 44.140625 
Q 15.875 39.890625 15.1875 32.171875 
z
" id="DejaVuSans-65"/>
      <path d="M 2.984375 54.6875 
L 12.5 54.6875 
L 29.59375 8.796875 
L 46.6875 54.6875 
L 56.203125 54.6875 
L 35.6875 0 
L 23.484375 0 
z
" id="DejaVuSans-76"/>
      <path d="M 34.28125 27.484375 
Q 23.390625 27.484375 19.1875 25 
Q 14.984375 22.515625 14.984375 16.5 
Q 14.984375 11.71875 18.140625 8.90625 
Q 21.296875 6.109375 26.703125 6.109375 
Q 34.1875 6.109375 38.703125 11.40625 
Q 43.21875 16.703125 43.21875 25.484375 
L 43.21875 27.484375 
z
M 52.203125 31.203125 
L 52.203125 0 
L 43.21875 0 
L 43.21875 8.296875 
Q 40.140625 3.328125 35.546875 0.953125 
Q 30.953125 -1.421875 24.3125 -1.421875 
Q 15.921875 -1.421875 10.953125 3.296875 
Q 6 8.015625 6 15.921875 
Q 6 25.140625 12.171875 29.828125 
Q 18.359375 34.515625 30.609375 34.515625 
L 43.21875 34.515625 
L 43.21875 35.40625 
Q 43.21875 41.609375 39.140625 45 
Q 35.0625 48.390625 27.6875 48.390625 
Q 23 48.390625 18.546875 47.265625 
Q 14.109375 46.140625 10.015625 43.890625 
L 10.015625 52.203125 
Q 14.9375 54.109375 19.578125 55.046875 
Q 24.21875 56 28.609375 56 
Q 40.484375 56 46.34375 49.84375 
Q 52.203125 43.703125 52.203125 31.203125 
z
" id="DejaVuSans-61"/>
      <path d="M 44.28125 53.078125 
L 44.28125 44.578125 
Q 40.484375 46.53125 36.375 47.5 
Q 32.28125 48.484375 27.875 48.484375 
Q 21.1875 48.484375 17.84375 46.4375 
Q 14.5 44.390625 14.5 40.28125 
Q 14.5 37.15625 16.890625 35.375 
Q 19.28125 33.59375 26.515625 31.984375 
L 29.59375 31.296875 
Q 39.15625 29.25 43.1875 25.515625 
Q 47.21875 21.78125 47.21875 15.09375 
Q 47.21875 7.46875 41.1875 3.015625 
Q 35.15625 -1.421875 24.609375 -1.421875 
Q 20.21875 -1.421875 15.453125 -0.5625 
Q 10.6875 0.296875 5.421875 2 
L 5.421875 11.28125 
Q 10.40625 8.6875 15.234375 7.390625 
Q 20.0625 6.109375 24.8125 6.109375 
Q 31.15625 6.109375 34.5625 8.28125 
Q 37.984375 10.453125 37.984375 14.40625 
Q 37.984375 18.0625 35.515625 20.015625 
Q 33.0625 21.96875 24.703125 23.78125 
L 21.578125 24.515625 
Q 13.234375 26.265625 9.515625 29.90625 
Q 5.8125 33.546875 5.8125 39.890625 
Q 5.8125 47.609375 11.28125 51.796875 
Q 16.75 56 26.8125 56 
Q 31.78125 56 36.171875 55.265625 
Q 40.578125 54.546875 44.28125 53.078125 
z
" id="DejaVuSans-73"/>
      <path d="M 25.390625 72.90625 
L 33.6875 72.90625 
L 8.296875 -9.28125 
L 0 -9.28125 
z
" id="DejaVuSans-2f"/>
      <path d="M 45.40625 46.390625 
L 45.40625 75.984375 
L 54.390625 75.984375 
L 54.390625 0 
L 45.40625 0 
L 45.40625 8.203125 
Q 42.578125 3.328125 38.25 0.953125 
Q 33.9375 -1.421875 27.875 -1.421875 
Q 17.96875 -1.421875 11.734375 6.484375 
Q 5.515625 14.40625 5.515625 27.296875 
Q 5.515625 40.1875 11.734375 48.09375 
Q 17.96875 56 27.875 56 
Q 33.9375 56 38.25 53.625 
Q 42.578125 51.265625 45.40625 46.390625 
z
M 14.796875 27.296875 
Q 14.796875 17.390625 18.875 11.75 
Q 22.953125 6.109375 30.078125 6.109375 
Q 37.203125 6.109375 41.296875 11.75 
Q 45.40625 17.390625 45.40625 27.296875 
Q 45.40625 37.203125 41.296875 42.84375 
Q 37.203125 48.484375 30.078125 48.484375 
Q 22.953125 48.484375 18.875 42.84375 
Q 14.796875 37.203125 14.796875 27.296875 
z
" id="DejaVuSans-64"/>
      <path d="M 9.421875 54.6875 
L 18.40625 54.6875 
L 18.40625 0 
L 9.421875 0 
z
M 9.421875 75.984375 
L 18.40625 75.984375 
L 18.40625 64.59375 
L 9.421875 64.59375 
z
" id="DejaVuSans-69"/>
      <path d="M 52 44.1875 
Q 55.375 50.25 60.0625 53.125 
Q 64.75 56 71.09375 56 
Q 79.640625 56 84.28125 50.015625 
Q 88.921875 44.046875 88.921875 33.015625 
L 88.921875 0 
L 79.890625 0 
L 79.890625 32.71875 
Q 79.890625 40.578125 77.09375 44.375 
Q 74.3125 48.1875 68.609375 48.1875 
Q 61.625 48.1875 57.5625 43.546875 
Q 53.515625 38.921875 53.515625 30.90625 
L 53.515625 0 
L 44.484375 0 
L 44.484375 32.71875 
Q 44.484375 40.625 41.703125 44.40625 
Q 38.921875 48.1875 33.109375 48.1875 
Q 26.21875 48.1875 22.15625 43.53125 
Q 18.109375 38.875 18.109375 30.90625 
L 18.109375 0 
L 9.078125 0 
L 9.078125 54.6875 
L 18.109375 54.6875 
L 18.109375 46.1875 
Q 21.1875 51.21875 25.484375 53.609375 
Q 29.78125 56 35.6875 56 
Q 41.65625 56 45.828125 52.96875 
Q 50 49.953125 52 44.1875 
z
" id="DejaVuSans-6d"/>
      <path d="M 54.890625 33.015625 
L 54.890625 0 
L 45.90625 0 
L 45.90625 32.71875 
Q 45.90625 40.484375 42.875 44.328125 
Q 39.84375 48.1875 33.796875 48.1875 
Q 26.515625 48.1875 22.3125 43.546875 
Q 18.109375 38.921875 18.109375 30.90625 
L 18.109375 0 
L 9.078125 0 
L 9.078125 54.6875 
L 18.109375 54.6875 
L 18.109375 46.1875 
Q 21.34375 51.125 25.703125 53.5625 
Q 30.078125 56 35.796875 56 
Q 45.21875 56 50.046875 50.171875 
Q 54.890625 44.34375 54.890625 33.015625 
z
" id="DejaVuSans-6e"/>
      <path d="M 8.015625 75.875 
L 15.828125 75.875 
Q 23.140625 64.359375 26.78125 53.3125 
Q 30.421875 42.28125 30.421875 31.390625 
Q 30.421875 20.453125 26.78125 9.375 
Q 23.140625 -1.703125 15.828125 -13.1875 
L 8.015625 -13.1875 
Q 14.5 -2 17.703125 9.0625 
Q 20.90625 20.125 20.90625 31.390625 
Q 20.90625 42.671875 17.703125 53.65625 
Q 14.5 64.65625 8.015625 75.875 
z
" id="DejaVuSans-29"/>
     </defs>
     <g transform="translate(73.803219 338.153594)scale(0.17 -0.17)">
      <use xlink:href="#DejaVuSans-6c"/>
      <use x="27.783203" xlink:href="#DejaVuSans-6f"/>
      <use x="88.964844" xlink:href="#DejaVuSans-67"/>
      <use x="152.441406" xlink:href="#DejaVuSans-31"/>
      <use x="216.064453" xlink:href="#DejaVuSans-30"/>
      <use x="279.6875" xlink:href="#DejaVuSans-28"/>
      <use x="318.701172" xlink:href="#DejaVuSans-23"/>
      <use x="402.490234" xlink:href="#DejaVuSans-20"/>
      <use x="434.277344" xlink:href="#DejaVuSans-66"/>
      <use x="469.404297" xlink:href="#DejaVuSans-2d"/>
      <use x="505.488281" xlink:href="#DejaVuSans-65"/>
      <use x="567.011719" xlink:href="#DejaVuSans-76"/>
      <use x="626.191406" xlink:href="#DejaVuSans-61"/>
      <use x="687.470703" xlink:href="#DejaVuSans-6c"/>
      <use x="715.253906" xlink:href="#DejaVuSans-73"/>
      <use x="767.353516" xlink:href="#DejaVuSans-20"/>
      <use x="799.140625" xlink:href="#DejaVuSans-2f"/>
      <use x="832.832031" xlink:href="#DejaVuSans-20"/>
      <use x="864.619141" xlink:href="#DejaVuSans-64"/>
      <use x="928.095703" xlink:href="#DejaVuSans-69"/>
      <use x="955.878906" xlink:href="#DejaVuSans-6d"/>
      <use x="1053.291016" xlink:href="#DejaVuSans-65"/>
      <use x="1114.814453" xlink:href="#DejaVuSans-6e"/>
      <use x="1178.193359" xlink:href="#DejaVuSans-73"/>
      <use x="1230.292969" xlink:href="#DejaVuSans-69"/>
      <use x="1258.076172" xlink:href="#DejaVuSans-6f"/>
      <use x="1319.257812" xlink:href="#DejaVuSans-6e"/>
      <use x="1382.636719" xlink:href="#DejaVuSans-29"/>
     </g>
    </g>
   </g>
   <g id="matplotlib.axis_2">
    <g id="ytick_1">
     <g id="line2d_25">
      <path clip-path="url(#p57d7752b52)" d="M 56.12 294.88 
L 333.168 294.88 
" style="fill:none;stroke:#b0b0b0;stroke-linecap:square;stroke-width:0.8;"/>
     </g>
     <g id="line2d_26">
      <defs>
       <path d="M 0 0 
L -3.5 0 
" id="m809615a00a" style="stroke:#000000;stroke-width:0.8;"/>
      </defs>
      <g>
       <use style="stroke:#000000;stroke-width:0.8;" x="56.12" xlink:href="#m809615a00a" y="294.88"/>
      </g>
     </g>
     <g id="text_6">
      <!-- 0.0 -->
      <defs>
       <path d="M 10.6875 12.40625 
L 21 12.40625 
L 21 0 
L 10.6875 0 
z
" id="DejaVuSans-2e"/>
      </defs>
      <g transform="translate(23.675 300.95875)scale(0.16 -0.16)">
       <use xlink:href="#DejaVuSans-30"/>
       <use x="63.623047" xlink:href="#DejaVuSans-2e"/>
       <use x="95.410156" xlink:href="#DejaVuSans-30"/>
      </g>
     </g>
    </g>
    <g id="ytick_2">
     <g id="line2d_27">
      <path clip-path="url(#p57d7752b52)" d="M 56.12 241.406733 
L 333.168 241.406733 
" style="fill:none;stroke:#b0b0b0;stroke-linecap:square;stroke-width:0.8;"/>
     </g>
     <g id="line2d_28">
      <g>
       <use style="stroke:#000000;stroke-width:0.8;" x="56.12" xlink:href="#m809615a00a" y="241.406733"/>
      </g>
     </g>
     <g id="text_7">
      <!-- 0.2 -->
      <g transform="translate(23.675 247.485483)scale(0.16 -0.16)">
       <use xlink:href="#DejaVuSans-30"/>
       <use x="63.623047" xlink:href="#DejaVuSans-2e"/>
       <use x="95.410156" xlink:href="#DejaVuSans-32"/>
      </g>
     </g>
    </g>
    <g id="ytick_3">
     <g id="line2d_29">
      <path clip-path="url(#p57d7752b52)" d="M 56.12 187.933465 
L 333.168 187.933465 
" style="fill:none;stroke:#b0b0b0;stroke-linecap:square;stroke-width:0.8;"/>
     </g>
     <g id="line2d_30">
      <g>
       <use style="stroke:#000000;stroke-width:0.8;" x="56.12" xlink:href="#m809615a00a" y="187.933465"/>
      </g>
     </g>
     <g id="text_8">
      <!-- 0.4 -->
      <g transform="translate(23.675 194.012215)scale(0.16 -0.16)">
       <use xlink:href="#DejaVuSans-30"/>
       <use x="63.623047" xlink:href="#DejaVuSans-2e"/>
       <use x="95.410156" xlink:href="#DejaVuSans-34"/>
      </g>
     </g>
    </g>
    <g id="ytick_4">
     <g id="line2d_31">
      <path clip-path="url(#p57d7752b52)" d="M 56.12 134.460198 
L 333.168 134.460198 
" style="fill:none;stroke:#b0b0b0;stroke-linecap:square;stroke-width:0.8;"/>
     </g>
     <g id="line2d_32">
      <g>
       <use style="stroke:#000000;stroke-width:0.8;" x="56.12" xlink:href="#m809615a00a" y="134.460198"/>
      </g>
     </g>
     <g id="text_9">
      <!-- 0.6 -->
      <g transform="translate(23.675 140.538948)scale(0.16 -0.16)">
       <use xlink:href="#DejaVuSans-30"/>
       <use x="63.623047" xlink:href="#DejaVuSans-2e"/>
       <use x="95.410156" xlink:href="#DejaVuSans-36"/>
      </g>
     </g>
    </g>
    <g id="ytick_5">
     <g id="line2d_33">
      <path clip-path="url(#p57d7752b52)" d="M 56.12 80.986931 
L 333.168 80.986931 
" style="fill:none;stroke:#b0b0b0;stroke-linecap:square;stroke-width:0.8;"/>
     </g>
     <g id="line2d_34">
      <g>
       <use style="stroke:#000000;stroke-width:0.8;" x="56.12" xlink:href="#m809615a00a" y="80.986931"/>
      </g>
     </g>
     <g id="text_10">
      <!-- 0.8 -->
      <defs>
       <path d="M 31.78125 34.625 
Q 24.75 34.625 20.71875 30.859375 
Q 16.703125 27.09375 16.703125 20.515625 
Q 16.703125 13.921875 20.71875 10.15625 
Q 24.75 6.390625 31.78125 6.390625 
Q 38.8125 6.390625 42.859375 10.171875 
Q 46.921875 13.96875 46.921875 20.515625 
Q 46.921875 27.09375 42.890625 30.859375 
Q 38.875 34.625 31.78125 34.625 
z
M 21.921875 38.8125 
Q 15.578125 40.375 12.03125 44.71875 
Q 8.5 49.078125 8.5 55.328125 
Q 8.5 64.0625 14.71875 69.140625 
Q 20.953125 74.21875 31.78125 74.21875 
Q 42.671875 74.21875 48.875 69.140625 
Q 55.078125 64.0625 55.078125 55.328125 
Q 55.078125 49.078125 51.53125 44.71875 
Q 48 40.375 41.703125 38.8125 
Q 48.828125 37.15625 52.796875 32.3125 
Q 56.78125 27.484375 56.78125 20.515625 
Q 56.78125 9.90625 50.3125 4.234375 
Q 43.84375 -1.421875 31.78125 -1.421875 
Q 19.734375 -1.421875 13.25 4.234375 
Q 6.78125 9.90625 6.78125 20.515625 
Q 6.78125 27.484375 10.78125 32.3125 
Q 14.796875 37.15625 21.921875 38.8125 
z
M 18.3125 54.390625 
Q 18.3125 48.734375 21.84375 45.5625 
Q 25.390625 42.390625 31.78125 42.390625 
Q 38.140625 42.390625 41.71875 45.5625 
Q 45.3125 48.734375 45.3125 54.390625 
Q 45.3125 60.0625 41.71875 63.234375 
Q 38.140625 66.40625 31.78125 66.40625 
Q 25.390625 66.40625 21.84375 63.234375 
Q 18.3125 60.0625 18.3125 54.390625 
z
" id="DejaVuSans-38"/>
      </defs>
      <g transform="translate(23.675 87.065681)scale(0.16 -0.16)">
       <use xlink:href="#DejaVuSans-30"/>
       <use x="63.623047" xlink:href="#DejaVuSans-2e"/>
       <use x="95.410156" xlink:href="#DejaVuSans-38"/>
      </g>
     </g>
    </g>
    <g id="ytick_6">
     <g id="line2d_35">
      <path clip-path="url(#p57d7752b52)" d="M 56.12 27.513663 
L 333.168 27.513663 
" style="fill:none;stroke:#b0b0b0;stroke-linecap:square;stroke-width:0.8;"/>
     </g>
     <g id="line2d_36">
      <g>
       <use style="stroke:#000000;stroke-width:0.8;" x="56.12" xlink:href="#m809615a00a" y="27.513663"/>
      </g>
     </g>
     <g id="text_11">
      <!-- 1.0 -->
      <g transform="translate(23.675 33.592413)scale(0.16 -0.16)">
       <use xlink:href="#DejaVuSans-31"/>
       <use x="63.623047" xlink:href="#DejaVuSans-2e"/>
       <use x="95.410156" xlink:href="#DejaVuSans-30"/>
      </g>
     </g>
    </g>
    <g id="text_12">
     <!-- Fraction of function,target pairs -->
     <defs>
      <path d="M 9.8125 72.90625 
L 51.703125 72.90625 
L 51.703125 64.59375 
L 19.671875 64.59375 
L 19.671875 43.109375 
L 48.578125 43.109375 
L 48.578125 34.8125 
L 19.671875 34.8125 
L 19.671875 0 
L 9.8125 0 
z
" id="DejaVuSans-46"/>
      <path d="M 41.109375 46.296875 
Q 39.59375 47.171875 37.8125 47.578125 
Q 36.03125 48 33.890625 48 
Q 26.265625 48 22.1875 43.046875 
Q 18.109375 38.09375 18.109375 28.8125 
L 18.109375 0 
L 9.078125 0 
L 9.078125 54.6875 
L 18.109375 54.6875 
L 18.109375 46.1875 
Q 20.953125 51.171875 25.484375 53.578125 
Q 30.03125 56 36.53125 56 
Q 37.453125 56 38.578125 55.875 
Q 39.703125 55.765625 41.0625 55.515625 
z
" id="DejaVuSans-72"/>
      <path d="M 48.78125 52.59375 
L 48.78125 44.1875 
Q 44.96875 46.296875 41.140625 47.34375 
Q 37.3125 48.390625 33.40625 48.390625 
Q 24.65625 48.390625 19.8125 42.84375 
Q 14.984375 37.3125 14.984375 27.296875 
Q 14.984375 17.28125 19.8125 11.734375 
Q 24.65625 6.203125 33.40625 6.203125 
Q 37.3125 6.203125 41.140625 7.25 
Q 44.96875 8.296875 48.78125 10.40625 
L 48.78125 2.09375 
Q 45.015625 0.34375 40.984375 -0.53125 
Q 36.96875 -1.421875 32.421875 -1.421875 
Q 20.0625 -1.421875 12.78125 6.34375 
Q 5.515625 14.109375 5.515625 27.296875 
Q 5.515625 40.671875 12.859375 48.328125 
Q 20.21875 56 33.015625 56 
Q 37.15625 56 41.109375 55.140625 
Q 45.0625 54.296875 48.78125 52.59375 
z
" id="DejaVuSans-63"/>
      <path d="M 18.3125 70.21875 
L 18.3125 54.6875 
L 36.8125 54.6875 
L 36.8125 47.703125 
L 18.3125 47.703125 
L 18.3125 18.015625 
Q 18.3125 11.328125 20.140625 9.421875 
Q 21.96875 7.515625 27.59375 7.515625 
L 36.8125 7.515625 
L 36.8125 0 
L 27.59375 0 
Q 17.1875 0 13.234375 3.875 
Q 9.28125 7.765625 9.28125 18.015625 
L 9.28125 47.703125 
L 2.6875 47.703125 
L 2.6875 54.6875 
L 9.28125 54.6875 
L 9.28125 70.21875 
z
" id="DejaVuSans-74"/>
      <path d="M 8.5 21.578125 
L 8.5 54.6875 
L 17.484375 54.6875 
L 17.484375 21.921875 
Q 17.484375 14.15625 20.5 10.265625 
Q 23.53125 6.390625 29.59375 6.390625 
Q 36.859375 6.390625 41.078125 11.03125 
Q 45.3125 15.671875 45.3125 23.6875 
L 45.3125 54.6875 
L 54.296875 54.6875 
L 54.296875 0 
L 45.3125 0 
L 45.3125 8.40625 
Q 42.046875 3.421875 37.71875 1 
Q 33.40625 -1.421875 27.6875 -1.421875 
Q 18.265625 -1.421875 13.375 4.4375 
Q 8.5 10.296875 8.5 21.578125 
z
M 31.109375 56 
z
" id="DejaVuSans-75"/>
      <path d="M 11.71875 12.40625 
L 22.015625 12.40625 
L 22.015625 4 
L 14.015625 -11.625 
L 7.71875 -11.625 
L 11.71875 4 
z
" id="DejaVuSans-2c"/>
      <path d="M 18.109375 8.203125 
L 18.109375 -20.796875 
L 9.078125 -20.796875 
L 9.078125 54.6875 
L 18.109375 54.6875 
L 18.109375 46.390625 
Q 20.953125 51.265625 25.265625 53.625 
Q 29.59375 56 35.59375 56 
Q 45.5625 56 51.78125 48.09375 
Q 58.015625 40.1875 58.015625 27.296875 
Q 58.015625 14.40625 51.78125 6.484375 
Q 45.5625 -1.421875 35.59375 -1.421875 
Q 29.59375 -1.421875 25.265625 0.953125 
Q 20.953125 3.328125 18.109375 8.203125 
z
M 48.6875 27.296875 
Q 48.6875 37.203125 44.609375 42.84375 
Q 40.53125 48.484375 33.40625 48.484375 
Q 26.265625 48.484375 22.1875 42.84375 
Q 18.109375 37.203125 18.109375 27.296875 
Q 18.109375 17.390625 22.1875 11.75 
Q 26.265625 6.109375 33.40625 6.109375 
Q 40.53125 6.109375 44.609375 11.75 
Q 48.6875 17.390625 48.6875 27.296875 
z
" id="DejaVuSans-70"/>
     </defs>
     <g transform="translate(16.139531 294.999375)rotate(-90)scale(0.17 -0.17)">
      <use xlink:href="#DejaVuSans-46"/>
      <use x="57.410156" xlink:href="#DejaVuSans-72"/>
      <use x="98.523438" xlink:href="#DejaVuSans-61"/>
      <use x="159.802734" xlink:href="#DejaVuSans-63"/>
      <use x="214.783203" xlink:href="#DejaVuSans-74"/>
      <use x="253.992188" xlink:href="#DejaVuSans-69"/>
      <use x="281.775391" xlink:href="#DejaVuSans-6f"/>
      <use x="342.957031" xlink:href="#DejaVuSans-6e"/>
      <use x="406.335938" xlink:href="#DejaVuSans-20"/>
      <use x="438.123047" xlink:href="#DejaVuSans-6f"/>
      <use x="499.304688" xlink:href="#DejaVuSans-66"/>
      <use x="534.509766" xlink:href="#DejaVuSans-20"/>
      <use x="566.296875" xlink:href="#DejaVuSans-66"/>
      <use x="601.501953" xlink:href="#DejaVuSans-75"/>
      <use x="664.880859" xlink:href="#DejaVuSans-6e"/>
      <use x="728.259766" xlink:href="#DejaVuSans-63"/>
      <use x="783.240234" xlink:href="#DejaVuSans-74"/>
      <use x="822.449219" xlink:href="#DejaVuSans-69"/>
      <use x="850.232422" xlink:href="#DejaVuSans-6f"/>
      <use x="911.414062" xlink:href="#DejaVuSans-6e"/>
      <use x="974.792969" xlink:href="#DejaVuSans-2c"/>
      <use x="1006.580078" xlink:href="#DejaVuSans-74"/>
      <use x="1045.789062" xlink:href="#DejaVuSans-61"/>
      <use x="1107.068359" xlink:href="#DejaVuSans-72"/>
      <use x="1148.166016" xlink:href="#DejaVuSans-67"/>
      <use x="1211.642578" xlink:href="#DejaVuSans-65"/>
      <use x="1273.166016" xlink:href="#DejaVuSans-74"/>
      <use x="1312.375" xlink:href="#DejaVuSans-20"/>
      <use x="1344.162109" xlink:href="#DejaVuSans-70"/>
      <use x="1407.638672" xlink:href="#DejaVuSans-61"/>
      <use x="1468.917969" xlink:href="#DejaVuSans-69"/>
      <use x="1496.701172" xlink:href="#DejaVuSans-72"/>
      <use x="1537.814453" xlink:href="#DejaVuSans-73"/>
     </g>
    </g>
   </g>
   <g id="line2d_37">
    <defs>
     <path d="M 0 1.5 
C 0.397805 1.5 0.77937 1.341951 1.06066 1.06066 
C 1.341951 0.77937 1.5 0.397805 1.5 0 
C 1.5 -0.397805 1.341951 -0.77937 1.06066 -1.06066 
C 0.77937 -1.341951 0.397805 -1.5 0 -1.5 
C -0.397805 -1.5 -0.77937 -1.341951 -1.06066 -1.06066 
C -1.341951 -0.77937 -1.5 -0.397805 -1.5 0 
C -1.5 0.397805 -1.341951 0.77937 -1.06066 1.06066 
C -0.77937 1.341951 -0.397805 1.5 0 1.5 
z
" id="m0691d8432a" style="stroke:#00bfbf;"/>
    </defs>
    <g>
     <use style="fill:#00bfbf;stroke:#00bfbf;" x="238.408409" xlink:href="#m0691d8432a" y="27.513663"/>
     <use style="fill:#00bfbf;stroke:#00bfbf;" x="238.408409" xlink:href="#m0691d8432a" y="27.513663"/>
    </g>
   </g>
   <g id="line2d_38">
    <path d="M 44.205749 294.88 
L 44.205749 293.831505 
L 56.12 293.831505 
L 56.12 292.258761 
L 63.08939 292.258761 
L 63.08939 290.686018 
L 68.034251 290.686018 
L 68.034251 289.113275 
L 71.869783 289.113275 
L 71.869783 286.492036 
L 75.003641 286.492036 
L 75.003641 285.967789 
L 77.653281 285.967789 
L 77.653281 282.822302 
L 81.973032 282.822302 
L 81.973032 282.298055 
L 83.784035 282.298055 
L 83.784035 280.201064 
L 85.422286 280.201064 
L 85.422286 272.861596 
L 92.904808 272.861596 
L 92.904808 272.337348 
L 94.816624 272.337348 
L 94.816624 267.619119 
L 95.698286 267.619119 
L 95.698286 266.570623 
L 97.336537 266.570623 
L 97.336537 263.949385 
L 106.730875 263.949385 
L 106.730875 263.425137 
L 107.177358 263.425137 
L 107.177358 262.900889 
L 113.396034 262.900889 
L 113.396034 262.376641 
L 116.220179 262.376641 
L 116.220179 260.803898 
L 117.715785 260.803898 
L 117.715785 260.279651 
L 119.09161 260.279651 
L 119.09161 259.755403 
L 121.359263 259.755403 
L 121.359263 258.706907 
L 125.764637 258.706907 
L 125.764637 258.18266 
L 126.780294 258.18266 
L 126.780294 257.658412 
L 134.213018 257.658412 
L 134.213018 256.609917 
L 135.784647 256.609917 
L 135.784647 255.561421 
L 137.070377 255.561421 
L 137.070377 254.512926 
L 138.694545 254.512926 
L 138.694545 253.988678 
L 139.653523 253.988678 
L 139.653523 253.46443 
L 142.07321 253.46443 
L 142.07321 252.415935 
L 142.69832 252.415935 
L 142.69832 249.794696 
L 143.936221 249.794696 
L 143.936221 248.746201 
L 144.245007 248.746201 
L 144.346715 247.173458 
L 152.507631 247.173458 
L 152.507631 246.124962 
L 152.88199 246.124962 
L 152.88199 245.600714 
L 153.428671 245.600714 
L 153.428671 244.552219 
L 153.871321 244.552219 
L 153.871321 243.503724 
L 154.751526 243.503724 
L 154.751526 241.93098 
L 155.080505 241.93098 
L 155.134728 240.882485 
L 155.349925 240.882485 
L 155.349925 240.358237 
L 156.311596 240.358237 
L 156.336855 239.309742 
L 158.845291 239.309742 
L 158.845291 238.785494 
L 159.550455 238.785494 
L 159.550455 238.261246 
L 159.717134 238.261246 
L 159.717134 237.736999 
L 159.902736 237.736999 
L 159.902736 235.640008 
L 161.167758 235.640008 
L 161.205828 234.591512 
L 161.526063 234.591512 
L 161.526063 233.543017 
L 161.895329 233.543017 
L 161.895329 233.018769 
L 163.482025 233.018769 
L 163.548519 230.921778 
L 164.183699 230.921778 
L 164.183699 229.873283 
L 164.453392 229.873283 
L 164.453392 229.349035 
L 165.268026 229.349035 
L 165.357863 228.30054 
L 165.565672 228.30054 
L 165.65397 227.252044 
L 165.887238 227.252044 
L 165.887238 226.727797 
L 166.160193 226.727797 
L 166.160193 225.155053 
L 166.748614 225.155053 
L 166.748614 224.630806 
L 167.91981 224.630806 
L 167.91981 223.58231 
L 168.364314 223.58231 
L 168.364314 222.533815 
L 168.748641 222.533815 
L 168.809832 220.436824 
L 169.016268 220.436824 
L 169.064483 218.339833 
L 169.148535 218.339833 
L 169.148535 217.291338 
L 169.362801 217.291338 
L 169.362801 215.718594 
L 169.492438 215.718594 
L 169.492438 215.194347 
L 170.035586 215.194347 
L 170.035586 214.670099 
L 171.939617 214.670099 
L 171.939617 213.097356 
L 173.005615 213.097356 
L 173.110569 211.524613 
L 173.205429 211.524613 
L 173.205429 211.000365 
L 173.616705 211.000365 
L 173.616705 210.476117 
L 173.81871 210.476117 
L 173.81871 209.95187 
L 174.295828 209.95187 
L 174.393214 208.379126 
L 175.304425 208.379126 
L 175.304425 207.330631 
L 175.437865 207.330631 
L 175.437865 206.806383 
L 175.742534 206.806383 
L 175.742534 206.282136 
L 176.304566 206.282136 
L 176.304566 205.757888 
L 176.461828 205.757888 
L 176.532129 202.612401 
L 176.702776 202.612401 
L 176.702776 202.088154 
L 176.932779 202.088154 
L 176.932779 201.563906 
L 177.34662 201.563906 
L 177.34662 200.515411 
L 177.866529 200.515411 
L 177.866529 199.466915 
L 178.138461 199.466915 
L 178.138461 198.942667 
L 178.329095 198.942667 
L 178.329095 198.41842 
L 178.607685 198.41842 
L 178.607685 197.894172 
L 178.786377 197.894172 
L 178.861422 194.748686 
L 179.291664 194.748686 
L 179.291664 194.224438 
L 179.40416 194.224438 
L 179.40416 192.651695 
L 179.763153 192.651695 
L 179.763153 190.554704 
L 179.949464 190.554704 
L 180.045046 188.981961 
L 180.471802 188.981961 
L 180.527499 187.409218 
L 180.942586 187.409218 
L 180.942586 185.836474 
L 182.085806 185.836474 
L 182.085806 184.787979 
L 182.360113 184.787979 
L 182.360113 183.739484 
L 182.547909 183.739484 
L 182.547909 183.215236 
L 182.684696 183.215236 
L 182.760825 182.16674 
L 183.52489 182.16674 
L 183.52489 181.642493 
L 183.818192 181.642493 
L 183.909783 180.593997 
L 183.930071 180.593997 
L 183.930071 180.06975 
L 184.226564 180.06975 
L 184.226564 178.497006 
L 184.532718 178.497006 
L 184.532718 177.972759 
L 184.644919 177.972759 
L 184.73222 176.400016 
L 184.919866 176.400016 
L 185.010546 173.254529 
L 185.256305 173.254529 
L 185.256305 171.681786 
L 185.521717 171.681786 
L 185.623071 166.439309 
L 186.307465 166.439309 
L 186.382342 164.866566 
L 186.829163 164.866566 
L 186.940141 160.148336 
L 186.969897 160.148336 
L 186.969897 156.478602 
L 187.159969 156.478602 
L 187.210302 154.905859 
L 187.607744 154.905859 
L 187.624107 153.857364 
L 188.171357 153.857364 
L 188.171357 153.333116 
L 188.40736 153.333116 
L 188.469751 151.236125 
L 188.797457 151.236125 
L 188.797457 149.663382 
L 188.92681 149.663382 
L 188.92681 148.090639 
L 189.167688 148.090639 
L 189.167688 146.517896 
L 189.570319 146.517896 
L 189.570319 145.993648 
L 189.942312 145.993648 
L 190.0314 142.848162 
L 190.123564 142.848162 
L 190.123564 142.323914 
L 190.52539 142.323914 
L 190.52539 141.799666 
L 190.683527 141.799666 
L 190.683527 141.275418 
L 190.826653 141.275418 
L 190.826653 140.751171 
L 191.374384 140.751171 
L 191.426899 138.65418 
L 192.10483 138.65418 
L 192.10483 137.605684 
L 192.398446 137.605684 
L 192.463362 134.984446 
L 192.766132 134.984446 
L 192.814567 133.411703 
L 192.962058 133.411703 
L 193.01891 130.790464 
L 193.114237 130.790464 
L 193.214946 126.596482 
L 193.706957 126.596482 
L 193.706957 126.072235 
L 193.838474 126.072235 
L 193.852709 125.023739 
L 194.146153 125.023739 
L 194.193647 122.4025 
L 194.723838 122.4025 
L 194.810186 120.30551 
L 194.917515 120.30551 
L 195.000236 118.208519 
L 195.056047 118.208519 
L 195.056047 117.684271 
L 195.185574 117.684271 
L 195.209259 115.063032 
L 195.428758 115.063032 
L 195.467661 114.014537 
L 195.686463 114.014537 
L 195.729892 112.966042 
L 195.927756 112.966042 
L 196.02584 111.393298 
L 196.105904 111.393298 
L 196.215386 109.820555 
L 196.250076 109.820555 
L 196.250076 109.296308 
L 196.473867 109.296308 
L 196.473867 108.77206 
L 196.622266 108.77206 
L 196.658562 107.199317 
L 196.79819 107.199317 
L 196.79819 106.675069 
L 196.967585 106.675069 
L 197.041025 102.481087 
L 197.111799 102.481087 
L 197.203372 97.762858 
L 197.433658 97.762858 
L 197.48672 96.190115 
L 197.66546 96.190115 
L 197.742794 94.617371 
L 197.803959 94.617371 
L 197.803959 92.520381 
L 197.943595 92.520381 
L 198.008522 87.802151 
L 198.11545 87.802151 
L 198.204051 83.608169 
L 198.322943 83.608169 
L 198.4323 82.035426 
L 198.499753 82.035426 
L 198.499753 80.986931 
L 198.784047 80.986931 
L 198.784047 78.88994 
L 199.000553 78.88994 
L 199.086817 75.744454 
L 199.172651 75.744454 
L 199.206031 74.695958 
L 199.435837 74.695958 
L 199.435837 73.123215 
L 199.571036 73.123215 
L 199.62604 72.074719 
L 199.824217 72.074719 
L 199.868393 70.501976 
L 199.980332 70.501976 
L 200.077685 69.453481 
L 200.109354 69.453481 
L 200.109354 68.929233 
L 200.280544 68.929233 
L 200.343083 66.832242 
L 200.457798 66.832242 
L 200.479101 65.259499 
L 200.805016 65.259499 
L 200.852428 64.211004 
L 200.948744 64.211004 
L 200.948744 63.686756 
L 201.111813 63.686756 
L 201.201124 62.638261 
L 201.273349 62.638261 
L 201.273349 62.114013 
L 201.402227 62.114013 
L 201.429719 60.017022 
L 201.602818 60.017022 
L 201.602818 59.492774 
L 201.877986 59.492774 
L 201.970513 55.82304 
L 201.990023 55.82304 
L 202.08195 52.677554 
L 202.197924 52.677554 
L 202.30442 45.862334 
L 202.482758 45.862334 
L 202.532637 43.765343 
L 202.616589 43.765343 
L 202.616589 42.716847 
L 213.911363 42.716847 
L 213.911363 42.192599 
L 214.028788 42.192599 
L 214.028788 41.668352 
L 214.24302 41.668352 
L 214.322782 40.619856 
L 214.361662 40.619856 
L 214.413365 37.998618 
L 214.483775 37.998618 
L 214.50176 35.377379 
L 221.013716 35.377379 
L 221.013716 34.853131 
L 221.308311 34.853131 
L 221.387056 32.756141 
L 221.423147 32.756141 
L 221.446022 31.707645 
L 221.550291 31.707645 
L 221.550291 31.183397 
L 226.339657 31.183397 
L 226.379164 30.134902 
L 226.468149 30.134902 
L 226.468149 29.610654 
L 230.262497 29.610654 
L 230.26455 28.562159 
L 236.053374 28.562159 
L 236.053374 28.037911 
L 238.408409 28.037911 
L 238.408409 27.513663 
L 333.168 27.513663 
L 333.168 27.513663 
" style="fill:none;stroke:#00bfbf;stroke-linecap:square;stroke-width:1.5;"/>
   </g>
   <g id="line2d_39">
    <defs>
     <path d="M -6 0 
L 6 0 
M 0 6 
L 0 -6 
" id="m0113e3059f" style="stroke:#00bfbf;stroke-width:1.5;"/>
    </defs>
    <g>
     <use style="fill-opacity:0;stroke:#00bfbf;stroke-width:1.5;" x="97.336537" xlink:href="#m0113e3059f" y="266.570623"/>
     <use style="fill-opacity:0;stroke:#00bfbf;stroke-width:1.5;" x="163.482025" xlink:href="#m0113e3059f" y="233.018769"/>
     <use style="fill-opacity:0;stroke:#00bfbf;stroke-width:1.5;" x="193.114237" xlink:href="#m0113e3059f" y="129.741969"/>
     <use style="fill-opacity:0;stroke:#00bfbf;stroke-width:1.5;" x="221.013716" xlink:href="#m0113e3059f" y="35.377379"/>
     <use style="fill-opacity:0;stroke:#00bfbf;stroke-width:1.5;" x="238.408409" xlink:href="#m0113e3059f" y="27.513663"/>
     <use style="fill-opacity:0;stroke:#00bfbf;stroke-width:1.5;" x="333.168" xlink:href="#m0113e3059f" y="27.513663"/>
    </g>
   </g>
   <g id="line2d_40">
    <path style="fill:none;stroke:#00bfbf;stroke-linecap:square;stroke-width:1.5;"/>
    <g/>
   </g>
   <g id="line2d_41">
    <path clip-path="url(#p57d7752b52)" d="M 202.691626 42.716847 
" style="fill:none;stroke:#00bfbf;stroke-linecap:square;stroke-width:1.5;"/>
    <defs>
     <path d="M -12 12 
L 12 -12 
M -12 -12 
L 12 12 
" id="mac369dc948" style="stroke:#00bfbf;"/>
    </defs>
    <g clip-path="url(#p57d7752b52)">
     <use style="fill:#00bfbf;stroke:#00bfbf;" x="202.691626" xlink:href="#mac369dc948" y="42.716847"/>
    </g>
   </g>
   <g id="line2d_42">
    <defs>
     <path d="M 0 1.5 
C 0.397805 1.5 0.77937 1.341951 1.06066 1.06066 
C 1.341951 0.77937 1.5 0.397805 1.5 0 
C 1.5 -0.397805 1.341951 -0.77937 1.06066 -1.06066 
C 0.77937 -1.341951 0.397805 -1.5 0 -1.5 
C -0.397805 -1.5 -0.77937 -1.341951 -1.06066 -1.06066 
C -1.341951 -0.77937 -1.5 -0.397805 -1.5 0 
C -1.5 0.397805 -1.341951 0.77937 -1.06066 1.06066 
C -0.77937 1.341951 -0.397805 1.5 0 1.5 
z
" id="meab0702f64" style="stroke:#008000;"/>
    </defs>
    <g>
     <use style="fill:#008000;stroke:#008000;" x="258.684506" xlink:href="#meab0702f64" y="48.483572"/>
     <use style="fill:#008000;stroke:#008000;" x="258.684506" xlink:href="#meab0702f64" y="48.483572"/>
    </g>
   </g>
   <g id="line2d_43">
    <path d="M 37.236359 294.88 
L 37.236359 285.443541 
L 49.15061 285.443541 
L 49.15061 284.395046 
L 61.064861 284.395046 
L 61.064861 283.34655 
L 64.900393 283.34655 
L 64.900393 282.822302 
L 70.68389 282.822302 
L 70.68389 281.773807 
L 72.979112 281.773807 
L 72.979112 281.249559 
L 76.814644 281.249559 
L 76.814644 280.201064 
L 78.452896 280.201064 
L 78.452896 279.676816 
L 81.324327 279.676816 
L 81.324327 278.104073 
L 82.598142 278.104073 
L 82.598142 277.055578 
L 83.784035 277.055578 
L 83.784035 276.007082 
L 85.935418 276.007082 
L 85.935418 275.482834 
L 94.512393 275.482834 
L 94.512393 274.958587 
L 98.832144 274.958587 
L 98.832144 273.910091 
L 99.761485 273.910091 
L 99.761485 272.337348 
L 102.667676 272.337348 
L 102.667676 271.8131 
L 104.478679 271.8131 
L 104.478679 269.716109 
L 105.480242 269.716109 
L 105.480242 268.667614 
L 108.988361 268.667614 
L 108.988361 266.570623 
L 109.509269 266.570623 
L 109.509269 266.046375 
L 110.505991 266.046375 
L 110.505991 265.522128 
L 112.98183 265.522128 
L 112.98183 264.473632 
L 124.036471 264.473632 
L 124.036471 263.949385 
L 125.814387 263.949385 
L 125.814387 263.425137 
L 126.496178 263.425137 
L 126.496178 262.376641 
L 130.33171 262.376641 
L 130.33171 261.852394 
L 131.2972 261.852394 
L 131.2972 261.328146 
L 133.144276 261.328146 
L 133.144276 260.279651 
L 134.574897 260.279651 
L 134.574897 259.231155 
L 137.121917 259.231155 
L 137.121917 258.706907 
L 138.600361 258.706907 
L 138.600361 257.134164 
L 139.874176 257.134164 
L 139.874176 256.085669 
L 140.392465 256.085669 
L 140.392465 255.561421 
L 140.561812 255.561421 
L 140.561812 255.037173 
L 142.360172 255.037173 
L 142.360172 254.512926 
L 143.533413 254.512926 
L 143.533413 252.940182 
L 144.022553 252.940182 
L 144.091308 251.891687 
L 144.227997 251.891687 
L 144.227997 250.843192 
L 144.631663 250.843192 
L 144.631663 249.794696 
L 146.429362 249.794696 
L 146.429362 249.270448 
L 146.726237 249.270448 
L 146.726237 248.221953 
L 146.901931 248.221953 
L 146.901931 247.697705 
L 147.503094 247.697705 
L 147.503094 247.173458 
L 148.111115 247.173458 
L 148.111115 246.64921 
L 149.31691 246.64921 
L 149.31691 245.600714 
L 149.791281 245.600714 
L 149.791281 244.552219 
L 152.20002 244.552219 
L 152.20002 242.979476 
L 152.412754 242.979476 
L 152.412754 242.455228 
L 153.418704 242.455228 
L 153.418704 241.93098 
L 154.98065 241.93098 
L 155.017028 240.358237 
L 155.919572 240.358237 
L 155.919572 239.309742 
L 156.445883 239.309742 
L 156.445883 238.261246 
L 157.995745 238.261246 
L 157.995745 237.212751 
L 158.462979 237.212751 
L 158.462979 236.688503 
L 161.014628 236.688503 
L 161.014628 236.164255 
L 161.382381 236.164255 
L 161.382381 235.640008 
L 161.65621 235.640008 
L 161.680889 234.067265 
L 161.791506 234.067265 
L 161.791506 233.543017 
L 162.767854 233.543017 
L 162.837164 230.921778 
L 163.054817 230.921778 
L 163.054817 229.873283 
L 163.24725 229.873283 
L 163.280986 227.776292 
L 163.833723 227.776292 
L 163.833723 226.727797 
L 164.135664 226.727797 
L 164.157029 225.679301 
L 164.610081 225.679301 
L 164.610081 224.630806 
L 164.816802 224.630806 
L 164.816802 224.106558 
L 165.091989 224.106558 
L 165.091989 223.58231 
L 165.37279 223.58231 
L 165.37279 222.533815 
L 165.491743 222.533815 
L 165.491743 222.009567 
L 166.179186 222.009567 
L 166.179186 220.961072 
L 166.349185 220.961072 
L 166.349185 220.436824 
L 167.747405 220.436824 
L 167.764723 218.864081 
L 168.468475 218.864081 
L 168.468475 218.339833 
L 168.88703 218.339833 
L 168.88703 217.815585 
L 169.256002 217.815585 
L 169.256002 216.242842 
L 169.671528 216.242842 
L 169.671528 215.718594 
L 169.810396 215.718594 
L 169.810396 215.194347 
L 170.016616 215.194347 
L 170.031794 213.621604 
L 170.436604 213.621604 
L 170.436604 212.04886 
L 170.554739 212.04886 
L 170.554739 211.524613 
L 171.239923 211.524613 
L 171.239923 211.000365 
L 171.534352 211.000365 
L 171.534352 210.476117 
L 171.932828 210.476117 
L 171.932828 208.903374 
L 172.553086 208.903374 
L 172.553086 208.379126 
L 172.74201 208.379126 
L 172.800222 207.330631 
L 173.177026 207.330631 
L 173.189656 206.282136 
L 173.296633 206.282136 
L 173.384234 203.660897 
L 173.452752 203.660897 
L 173.514805 202.612401 
L 174.437299 202.612401 
L 174.437299 201.563906 
L 174.554309 201.563906 
L 174.554309 201.039658 
L 174.80896 201.039658 
L 174.80896 200.515411 
L 174.923475 200.515411 
L 174.923475 199.991163 
L 175.105126 199.991163 
L 175.105126 198.942667 
L 175.2233 198.942667 
L 175.2233 198.41842 
L 176.156478 198.41842 
L 176.251824 196.321429 
L 176.612493 196.321429 
L 176.612493 195.797181 
L 177.331745 195.797181 
L 177.331745 193.175943 
L 178.012572 193.175943 
L 178.012572 192.651695 
L 178.777259 192.651695 
L 178.777259 191.603199 
L 178.913533 191.603199 
L 178.913533 190.554704 
L 179.231808 190.554704 
L 179.258437 189.506209 
L 179.443689 189.506209 
L 179.443689 188.981961 
L 179.64432 188.981961 
L 179.64432 188.457713 
L 180.494516 188.457713 
L 180.494516 187.933465 
L 180.662892 187.933465 
L 180.666978 186.360722 
L 180.918444 186.360722 
L 181.006797 184.263731 
L 181.07875 184.263731 
L 181.134506 181.642493 
L 181.383191 181.642493 
L 181.480888 180.06975 
L 181.900472 180.06975 
L 181.900472 179.545502 
L 183.382446 179.545502 
L 183.483321 177.972759 
L 183.823293 177.972759 
L 183.823293 177.448511 
L 184.042905 177.448511 
L 184.042905 176.924263 
L 184.775705 176.924263 
L 184.843131 175.875768 
L 185.031161 175.875768 
L 185.031161 175.35152 
L 185.866325 175.35152 
L 185.866325 174.827272 
L 186.500598 174.827272 
L 186.506417 173.254529 
L 186.749043 173.254529 
L 186.749043 172.730281 
L 186.934467 172.730281 
L 187.033488 170.633291 
L 187.399129 170.633291 
L 187.484528 165.915061 
L 187.588635 165.915061 
L 187.588635 163.81807 
L 187.96951 163.81807 
L 187.96951 161.196832 
L 189.013764 161.196832 
L 189.013764 160.672584 
L 189.386796 160.672584 
L 189.445737 159.099841 
L 189.883857 159.099841 
L 189.912513 157.00285 
L 190.54495 157.00285 
L 190.54495 156.478602 
L 190.700628 156.478602 
L 190.700628 155.954354 
L 191.163816 155.954354 
L 191.203702 154.381611 
L 191.543388 154.381611 
L 191.580239 152.28462 
L 191.836004 152.28462 
L 191.836004 150.711877 
L 192.182365 150.711877 
L 192.226216 149.663382 
L 192.62 149.663382 
L 192.707422 148.614886 
L 192.804488 148.614886 
L 192.844771 145.993648 
L 193.026874 145.993648 
L 193.08252 142.323914 
L 193.32681 142.323914 
L 193.389293 140.751171 
L 193.43795 140.751171 
L 193.43795 139.702675 
L 193.613908 139.702675 
L 193.717477 137.605684 
L 194.17783 137.605684 
L 194.2373 136.557189 
L 194.770664 136.557189 
L 194.770664 135.508693 
L 195.036578 135.508693 
L 195.036578 134.984446 
L 195.244288 134.984446 
L 195.354164 132.363207 
L 195.544344 132.363207 
L 195.652325 129.217721 
L 196.867581 129.217721 
L 196.867581 128.693473 
L 197.257927 128.693473 
L 197.257927 128.169225 
L 198.220245 128.169225 
L 198.220245 127.644978 
L 198.854392 127.644978 
L 198.854392 127.12073 
L 199.44132 127.12073 
L 199.44132 126.596482 
L 199.565594 126.596482 
L 199.565594 126.072235 
L 199.822206 126.072235 
L 199.866388 125.023739 
L 200.097485 125.023739 
L 200.12385 123.975244 
L 200.499089 123.975244 
L 200.522271 122.4025 
L 201.412618 122.4025 
L 201.412618 121.354005 
L 201.638436 121.354005 
L 201.707049 119.257014 
L 201.78137 119.257014 
L 201.842266 116.635776 
L 202.079011 116.635776 
L 202.079011 116.111528 
L 202.550947 116.111528 
L 202.550947 115.58728 
L 202.69673 115.58728 
L 202.77029 114.014537 
L 203.28754 114.014537 
L 203.316007 112.441794 
L 203.40548 112.441794 
L 203.40548 111.917546 
L 203.636813 111.917546 
L 203.728908 110.344803 
L 204.16131 110.344803 
L 204.193565 108.247812 
L 204.607472 108.247812 
L 204.607472 107.723564 
L 204.775108 107.723564 
L 204.840306 106.675069 
L 204.896279 106.675069 
L 204.964002 104.578078 
L 205.41525 104.578078 
L 205.41525 103.529583 
L 205.802969 103.529583 
L 205.802969 101.956839 
L 205.957517 101.956839 
L 205.957517 101.432592 
L 206.195094 101.432592 
L 206.195094 100.384096 
L 206.33608 100.384096 
L 206.367253 97.762858 
L 206.480469 97.762858 
L 206.480469 97.23861 
L 206.614628 97.23861 
L 206.725334 95.141619 
L 206.820171 95.141619 
L 206.881624 93.568876 
L 207.087531 93.568876 
L 207.087531 93.044628 
L 207.565722 93.044628 
L 207.601567 91.471885 
L 209.674435 91.471885 
L 209.674435 90.42339 
L 209.808428 90.42339 
L 209.808428 89.899142 
L 210.357448 89.899142 
L 210.357448 89.374894 
L 210.888066 89.374894 
L 210.959744 87.277903 
L 211.107077 87.277903 
L 211.107077 86.753656 
L 211.38775 86.753656 
L 211.475082 85.70516 
L 211.643709 85.70516 
L 211.643709 85.180912 
L 211.921129 85.180912 
L 211.921129 84.656665 
L 212.101869 84.656665 
L 212.101869 84.132417 
L 212.271635 84.132417 
L 212.373987 83.083922 
L 212.64695 83.083922 
L 212.64695 82.559674 
L 212.828434 82.559674 
L 212.897487 80.462683 
L 213.227594 80.462683 
L 213.332979 78.88994 
L 213.504979 78.88994 
L 213.504979 78.365692 
L 213.693229 78.365692 
L 213.770219 76.268701 
L 213.820167 76.268701 
L 213.877665 75.220206 
L 214.48406 75.220206 
L 214.551906 73.123215 
L 216.224368 73.123215 
L 216.224368 72.598967 
L 216.359096 72.598967 
L 216.359096 72.074719 
L 216.71898 72.074719 
L 216.71898 71.550472 
L 216.898121 71.550472 
L 216.898121 71.026224 
L 217.257704 71.026224 
L 217.257704 70.501976 
L 217.707752 70.501976 
L 217.707752 69.977729 
L 217.849238 69.977729 
L 217.849238 69.453481 
L 218.102867 69.453481 
L 218.102867 68.929233 
L 218.266383 68.929233 
L 218.266383 68.404985 
L 218.870835 68.404985 
L 218.915478 66.832242 
L 219.459457 66.832242 
L 219.459457 66.307995 
L 221.296785 66.307995 
L 221.361231 65.259499 
L 222.298188 65.259499 
L 222.298188 64.735251 
L 222.627851 64.735251 
L 222.627851 64.211004 
L 222.953055 64.211004 
L 222.953055 63.686756 
L 223.353226 63.686756 
L 223.357999 62.114013 
L 225.120322 62.114013 
L 225.120322 61.589765 
L 225.613461 61.589765 
L 225.687149 60.54127 
L 225.978492 60.54127 
L 225.978492 60.017022 
L 226.159878 60.017022 
L 226.159878 59.492774 
L 226.459328 59.492774 
L 226.508496 57.395783 
L 228.665555 57.395783 
L 228.665555 56.871536 
L 228.957454 56.871536 
L 228.957454 56.347288 
L 231.412156 56.347288 
L 231.444344 55.298792 
L 232.677663 55.298792 
L 232.677663 54.774545 
L 235.258268 54.774545 
L 235.258268 54.250297 
L 236.932429 54.250297 
L 236.932429 53.726049 
L 238.404006 53.726049 
L 238.404006 53.201802 
L 241.057988 53.201802 
L 241.057988 52.677554 
L 244.39986 52.677554 
L 244.39986 52.153306 
L 248.836464 52.153306 
L 248.836464 51.629058 
L 249.601249 51.629058 
L 249.601249 51.104811 
L 255.811376 51.104811 
L 255.811376 50.580563 
L 258.237777 50.580563 
L 258.237777 49.532068 
L 258.684506 49.532068 
L 258.684506 48.483572 
L 333.168 48.483572 
L 333.168 48.483572 
" style="fill:none;stroke:#008000;stroke-linecap:square;stroke-width:1.5;"/>
   </g>
   <g id="line2d_44">
    <defs>
     <path d="M -0 6 
L 6 -6 
L -6 -6 
z
" id="m7bbf0808a3" style="stroke:#008000;stroke-linejoin:miter;stroke-width:1.5;"/>
    </defs>
    <g>
     <use style="fill-opacity:0;stroke:#008000;stroke-linejoin:miter;stroke-width:1.5;" x="112.98183" xlink:href="#m7bbf0808a3" y="264.473632"/>
     <use style="fill-opacity:0;stroke:#008000;stroke-linejoin:miter;stroke-width:1.5;" x="165.37279" xlink:href="#m7bbf0808a3" y="223.58231"/>
     <use style="fill-opacity:0;stroke:#008000;stroke-linejoin:miter;stroke-width:1.5;" x="205.41525" xlink:href="#m7bbf0808a3" y="104.578078"/>
     <use style="fill-opacity:0;stroke:#008000;stroke-linejoin:miter;stroke-width:1.5;" x="258.684506" xlink:href="#m7bbf0808a3" y="49.532068"/>
     <use style="fill-opacity:0;stroke:#008000;stroke-linejoin:miter;stroke-width:1.5;" x="258.684506" xlink:href="#m7bbf0808a3" y="48.483572"/>
     <use style="fill-opacity:0;stroke:#008000;stroke-linejoin:miter;stroke-width:1.5;" x="333.168" xlink:href="#m7bbf0808a3" y="48.483572"/>
    </g>
   </g>
   <g id="line2d_45">
    <path style="fill:none;stroke:#008000;stroke-linecap:square;stroke-width:1.5;"/>
    <g/>
   </g>
   <g id="line2d_46">
    <path clip-path="url(#p57d7752b52)" d="M 195.722236 129.217721 
" style="fill:none;stroke:#008000;stroke-linecap:square;stroke-width:1.5;"/>
    <defs>
     <path d="M -12 12 
L 12 -12 
M -12 -12 
L 12 12 
" id="m70f0207004" style="stroke:#008000;"/>
    </defs>
    <g clip-path="url(#p57d7752b52)">
     <use style="fill:#008000;stroke:#008000;" x="195.722236" xlink:href="#m70f0207004" y="129.217721"/>
    </g>
   </g>
   <g id="line2d_47">
    <defs>
     <path d="M 0 1.5 
C 0.397805 1.5 0.77937 1.341951 1.06066 1.06066 
C 1.341951 0.77937 1.5 0.397805 1.5 0 
C 1.5 -0.397805 1.341951 -0.77937 1.06066 -1.06066 
C 0.77937 -1.341951 0.397805 -1.5 0 -1.5 
C -0.397805 -1.5 -0.77937 -1.341951 -1.06066 -1.06066 
C -1.341951 -0.77937 -1.5 -0.397805 -1.5 0 
C -1.5 0.397805 -1.341951 0.77937 -1.06066 1.06066 
C -0.77937 1.341951 -0.397805 1.5 0 1.5 
z
" id="m98bd5c38bb" style="stroke:#0000ff;"/>
    </defs>
    <g>
     <use style="fill:#0000ff;stroke:#0000ff;" x="251.008475" xlink:href="#m98bd5c38bb" y="190.030456"/>
     <use style="fill:#0000ff;stroke:#0000ff;" x="251.008475" xlink:href="#m98bd5c38bb" y="190.030456"/>
    </g>
   </g>
   <g id="line2d_48">
    <path d="M 28.455965 294.88 
L 28.455965 289.637523 
L 47.339607 289.637523 
L 47.339607 288.589027 
L 52.284468 288.589027 
L 52.284468 288.06478 
L 56.12 288.06478 
L 56.12 287.540532 
L 61.903497 287.540532 
L 61.903497 287.016284 
L 64.198719 287.016284 
L 64.198719 285.967789 
L 66.223248 285.967789 
L 66.223248 284.395046 
L 68.034251 284.395046 
L 68.034251 283.870798 
L 69.672503 283.870798 
L 69.672503 283.34655 
L 71.168109 283.34655 
L 71.168109 282.298055 
L 79.066841 282.298055 
L 79.066841 281.773807 
L 80.787138 281.773807 
L 80.787138 281.249559 
L 81.586754 281.249559 
L 81.586754 280.201064 
L 85.106889 280.201064 
L 85.106889 279.676816 
L 90.522701 279.676816 
L 90.522701 279.152568 
L 91.862754 279.152568 
L 91.862754 278.628321 
L 93.105847 278.628321 
L 93.105847 278.104073 
L 93.887283 278.104073 
L 93.887283 277.055578 
L 102.436953 277.055578 
L 102.436953 276.53133 
L 108.935392 276.53133 
L 108.935392 276.007082 
L 109.250788 276.007082 
L 109.250788 274.434339 
L 116.529892 274.434339 
L 116.529892 272.861596 
L 117.620026 272.861596 
L 117.620026 270.764605 
L 119.267005 270.764605 
L 119.267005 270.240357 
L 120.283378 270.240357 
L 120.283378 269.716109 
L 120.929036 269.716109 
L 120.929036 268.667614 
L 122.660646 268.667614 
L 122.732117 267.619119 
L 123.499282 267.619119 
L 123.499282 266.570623 
L 126.031592 266.570623 
L 126.031592 266.046375 
L 127.659138 266.046375 
L 127.659138 265.522128 
L 128.029939 265.522128 
L 128.029939 264.473632 
L 132.402015 264.473632 
L 132.442602 263.425137 
L 133.196088 263.425137 
L 133.196088 262.900889 
L 133.427329 262.900889 
L 133.427329 262.376641 
L 137.10132 262.376641 
L 137.10132 261.852394 
L 137.618997 261.852394 
L 137.618997 261.328146 
L 138.496158 261.328146 
L 138.496158 260.803898 
L 140.255775 260.803898 
L 140.255775 259.755403 
L 141.084606 259.755403 
L 141.109109 258.706907 
L 143.716722 258.706907 
L 143.716722 258.18266 
L 145.43702 258.18266 
L 145.43702 256.609917 
L 147.104664 256.609917 
L 147.190823 255.561421 
L 147.242311 255.561421 
L 147.276552 253.988678 
L 147.914484 253.988678 
L 147.914484 253.46443 
L 148.208593 253.46443 
L 148.208593 252.415935 
L 149.261127 252.415935 
L 149.367465 251.367439 
L 149.488193 251.367439 
L 149.488193 250.318944 
L 150.693124 250.318944 
L 150.693124 249.794696 
L 151.353248 249.794696 
L 151.353248 249.270448 
L 152.34921 249.270448 
L 152.34921 248.746201 
L 152.488698 248.746201 
L 152.488698 248.221953 
L 152.937447 248.221953 
L 152.937447 247.697705 
L 153.266485 247.697705 
L 153.266485 247.173458 
L 154.342587 247.173458 
L 154.342587 246.124962 
L 154.734911 246.124962 
L 154.734911 245.600714 
L 155.429934 245.600714 
L 155.493675 244.552219 
L 155.68349 244.552219 
L 155.68349 244.027971 
L 159.746137 244.027971 
L 159.746137 242.979476 
L 160.554783 242.979476 
L 160.554783 241.93098 
L 160.960709 241.93098 
L 160.960709 241.406733 
L 161.920882 241.406733 
L 161.920882 240.882485 
L 162.217433 240.882485 
L 162.217433 240.358237 
L 163.280986 240.358237 
L 163.375097 238.785494 
L 163.759587 238.785494 
L 163.759587 237.212751 
L 164.006909 237.212751 
L 164.006909 235.640008 
L 164.503688 235.640008 
L 164.503688 235.11576 
L 165.029187 235.11576 
L 165.029187 234.591512 
L 167.697082 234.591512 
L 167.697082 234.067265 
L 168.831808 234.067265 
L 168.831808 233.543017 
L 169.189213 233.543017 
L 169.189213 232.494521 
L 170.44253 232.494521 
L 170.44253 231.970274 
L 171.109329 231.970274 
L 171.109329 231.446026 
L 171.380757 231.446026 
L 171.380757 230.921778 
L 173.503652 230.921778 
L 173.518521 228.824787 
L 177.02847 228.824787 
L 177.02847 227.776292 
L 183.210646 227.776292 
L 183.210646 227.252044 
L 189.498612 227.252044 
L 189.500078 226.203549 
L 190.144763 226.203549 
L 190.154647 224.630806 
L 190.970616 224.630806 
L 191.064587 223.58231 
L 191.667066 223.58231 
L 191.667066 223.058063 
L 191.797133 223.058063 
L 191.797133 222.533815 
L 192.46151 222.533815 
L 192.514503 221.485319 
L 193.418114 221.485319 
L 193.422784 220.436824 
L 194.644665 220.436824 
L 194.644665 219.912576 
L 198.029068 219.912576 
L 198.029068 219.388328 
L 200.358293 219.388328 
L 200.358293 218.864081 
L 200.783353 218.864081 
L 200.783353 218.339833 
L 201.175866 218.339833 
L 201.175866 217.291338 
L 201.454607 217.291338 
L 201.454607 216.242842 
L 205.278578 216.242842 
L 205.278578 215.718594 
L 207.653325 215.718594 
L 207.653325 215.194347 
L 207.890365 215.194347 
L 207.890365 214.670099 
L 208.793291 214.670099 
L 208.793291 213.621604 
L 209.834503 213.621604 
L 209.834503 213.097356 
L 210.361805 213.097356 
L 210.361805 212.573108 
L 212.118659 212.573108 
L 212.118659 212.04886 
L 212.341792 212.04886 
L 212.341792 211.524613 
L 213.861324 211.524613 
L 213.861324 211.000365 
L 215.452534 211.000365 
L 215.452534 210.476117 
L 215.86072 210.476117 
L 215.86072 209.95187 
L 216.111039 209.95187 
L 216.111039 209.427622 
L 216.435962 209.427622 
L 216.435962 208.903374 
L 217.121536 208.903374 
L 217.121536 208.379126 
L 218.255194 208.379126 
L 218.255194 207.330631 
L 218.677941 207.330631 
L 218.677941 206.282136 
L 218.791696 206.282136 
L 218.791696 205.757888 
L 219.287612 205.757888 
L 219.287612 205.23364 
L 219.860862 205.23364 
L 219.860862 204.185145 
L 221.149264 204.185145 
L 221.149264 203.660897 
L 221.304854 203.660897 
L 221.304854 203.136649 
L 221.716154 203.136649 
L 221.716154 202.612401 
L 223.187045 202.612401 
L 223.187045 202.088154 
L 223.858375 202.088154 
L 223.858375 201.563906 
L 224.52875 201.563906 
L 224.52875 201.039658 
L 225.054476 201.039658 
L 225.054476 200.515411 
L 225.756373 200.515411 
L 225.756373 199.991163 
L 227.072209 199.991163 
L 227.072209 199.466915 
L 227.465476 199.466915 
L 227.465476 198.942667 
L 228.010941 198.942667 
L 228.010941 198.41842 
L 228.660998 198.41842 
L 228.660998 197.894172 
L 230.905138 197.894172 
L 230.905138 197.369924 
L 233.381521 197.369924 
L 233.381521 196.845677 
L 233.759318 196.845677 
L 233.759318 196.321429 
L 234.36962 196.321429 
L 234.36962 195.797181 
L 235.425243 195.797181 
L 235.425243 195.272933 
L 235.545645 195.272933 
L 235.545645 194.748686 
L 236.203264 194.748686 
L 236.203264 194.224438 
L 236.941836 194.224438 
L 236.941836 193.70019 
L 237.359888 193.70019 
L 237.359888 193.175943 
L 239.99907 193.175943 
L 239.99907 192.127447 
L 242.123559 192.127447 
L 242.123559 191.603199 
L 242.654312 191.603199 
L 242.654312 191.078952 
L 249.81978 191.078952 
L 249.81978 190.554704 
L 251.008475 190.554704 
L 251.008475 190.030456 
L 333.168 190.030456 
L 333.168 190.030456 
" style="fill:none;stroke:#0000ff;stroke-linecap:square;stroke-width:1.5;"/>
   </g>
   <g id="line2d_49">
    <defs>
     <path d="M 0 -6 
L -1.347084 -1.854102 
L -5.706339 -1.854102 
L -2.179628 0.708204 
L -3.526712 4.854102 
L -0 2.291796 
L 3.526712 4.854102 
L 2.179628 0.708204 
L 5.706339 -1.854102 
L 1.347084 -1.854102 
z
" id="m05b8fee628" style="stroke:#0000ff;stroke-linejoin:bevel;stroke-width:1.5;"/>
    </defs>
    <g>
     <use style="fill-opacity:0;stroke:#0000ff;stroke-linejoin:bevel;stroke-width:1.5;" x="109.250788" xlink:href="#m05b8fee628" y="274.434339"/>
     <use style="fill-opacity:0;stroke:#0000ff;stroke-linejoin:bevel;stroke-width:1.5;" x="177.02847" xlink:href="#m05b8fee628" y="228.824787"/>
     <use style="fill-opacity:0;stroke:#0000ff;stroke-linejoin:bevel;stroke-width:1.5;" x="242.123559" xlink:href="#m05b8fee628" y="192.127447"/>
     <use style="fill-opacity:0;stroke:#0000ff;stroke-linejoin:bevel;stroke-width:1.5;" x="251.008475" xlink:href="#m05b8fee628" y="190.030456"/>
     <use style="fill-opacity:0;stroke:#0000ff;stroke-linejoin:bevel;stroke-width:1.5;" x="251.008475" xlink:href="#m05b8fee628" y="190.030456"/>
     <use style="fill-opacity:0;stroke:#0000ff;stroke-linejoin:bevel;stroke-width:1.5;" x="333.168" xlink:href="#m05b8fee628" y="190.030456"/>
    </g>
   </g>
   <g id="line2d_50">
    <path style="fill:none;stroke:#0000ff;stroke-linecap:square;stroke-width:1.5;"/>
    <g/>
   </g>
   <g id="line2d_51">
    <path clip-path="url(#p57d7752b52)" d="M 186.941843 227.252044 
" style="fill:none;stroke:#0000ff;stroke-linecap:square;stroke-width:1.5;"/>
    <defs>
     <path d="M -12 12 
L 12 -12 
M -12 -12 
L 12 12 
" id="m47167dd586" style="stroke:#0000ff;"/>
    </defs>
    <g clip-path="url(#p57d7752b52)">
     <use style="fill:#0000ff;stroke:#0000ff;" x="186.941843" xlink:href="#m47167dd586" y="227.252044"/>
    </g>
   </g>
   <g id="line2d_52">
    <defs>
     <path d="M 0 1.5 
C 0.397805 1.5 0.77937 1.341951 1.06066 1.06066 
C 1.341951 0.77937 1.5 0.397805 1.5 0 
C 1.5 -0.397805 1.341951 -0.77937 1.06066 -1.06066 
C 0.77937 -1.341951 0.397805 -1.5 0 -1.5 
C -0.397805 -1.5 -0.77937 -1.341951 -1.06066 -1.06066 
C -1.341951 -0.77937 -1.5 -0.397805 -1.5 0 
C -1.5 0.397805 -1.341951 0.77937 -1.06066 1.06066 
C -0.77937 1.341951 -0.397805 1.5 0 1.5 
z
" id="m91e1b01ef8" style="stroke:#000000;"/>
    </defs>
    <g>
     <use style="stroke:#000000;" x="241.391134" xlink:href="#m91e1b01ef8" y="231.970274"/>
     <use style="stroke:#000000;" x="241.391134" xlink:href="#m91e1b01ef8" y="231.970274"/>
    </g>
   </g>
   <g id="line2d_53">
    <path d="M 16.541714 294.88 
L 16.541714 289.637523 
L 28.455965 289.637523 
L 28.455965 289.113275 
L 35.425356 289.113275 
L 35.425356 287.540532 
L 54.308997 287.540532 
L 54.308997 285.967789 
L 56.12 285.967789 
L 56.12 285.443541 
L 57.758252 285.443541 
L 57.758252 284.919293 
L 61.903497 284.919293 
L 61.903497 283.34655 
L 67.15259 283.34655 
L 67.15259 282.822302 
L 79.948502 282.822302 
L 79.948502 281.249559 
L 85.732 281.249559 
L 85.732 280.201064 
L 90.981092 280.201064 
L 90.981092 279.676816 
L 93.105847 279.676816 
L 93.105847 278.628321 
L 103.341826 278.628321 
L 103.341826 277.055578 
L 110.237603 277.055578 
L 110.237603 276.53133 
L 115.744887 276.53133 
L 115.744887 276.007082 
L 116.682681 276.007082 
L 116.682681 275.482834 
L 117.133064 275.482834 
L 117.133064 273.910091 
L 120.689748 273.910091 
L 120.689748 273.385844 
L 121.551317 273.385844 
L 121.551317 272.337348 
L 122.803291 272.337348 
L 122.803291 271.8131 
L 123.499282 271.8131 
L 123.499282 271.288853 
L 124.493121 271.288853 
L 124.493121 270.764605 
L 125.614517 270.764605 
L 125.614517 270.240357 
L 126.723846 270.240357 
L 126.723846 269.716109 
L 127.845538 269.716109 
L 127.845538 269.191862 
L 128.13443 269.191862 
L 128.13443 268.667614 
L 129.606147 268.667614 
L 129.606147 268.143366 
L 134.859013 268.143366 
L 134.859013 267.094871 
L 135.600092 267.094871 
L 135.600092 266.046375 
L 136.615334 266.046375 
L 136.694654 264.99788 
L 138.019268 264.99788 
L 138.019268 264.473632 
L 139.249066 264.473632 
L 139.249066 262.900889 
L 140.281488 262.900889 
L 140.281488 261.852394 
L 141.279657 261.852394 
L 141.279657 261.328146 
L 143.832047 261.328146 
L 143.832047 260.803898 
L 146.227548 260.803898 
L 146.227548 260.279651 
L 146.381382 260.279651 
L 146.381382 259.755403 
L 147.429795 259.755403 
L 147.429795 259.231155 
L 149.169454 259.231155 
L 149.169454 258.706907 
L 151.163317 258.706907 
L 151.163317 257.658412 
L 151.949905 257.658412 
L 151.949905 256.609917 
L 153.066156 256.609917 
L 153.066156 256.085669 
L 155.829688 256.085669 
L 155.829688 255.561421 
L 156.67674 255.561421 
L 156.67674 255.037173 
L 157.159859 255.037173 
L 157.159859 254.512926 
L 157.46983 254.512926 
L 157.46983 253.988678 
L 163.38515 253.988678 
L 163.38515 253.46443 
L 165.553865 253.46443 
L 165.553865 252.940182 
L 167.183793 252.940182 
L 167.183793 252.415935 
L 177.620983 252.415935 
L 177.620983 251.891687 
L 178.855975 251.891687 
L 178.855975 251.367439 
L 179.041551 251.367439 
L 179.041551 250.843192 
L 179.253114 250.843192 
L 179.253114 250.318944 
L 188.600811 250.318944 
L 188.600811 249.270448 
L 189.184125 249.270448 
L 189.184125 248.746201 
L 189.546937 248.746201 
L 189.546937 247.173458 
L 189.787271 247.173458 
L 189.787271 246.64921 
L 191.672236 246.64921 
L 191.672236 246.124962 
L 195.438103 246.124962 
L 195.438103 245.600714 
L 196.599966 245.600714 
L 196.599966 245.076467 
L 197.204777 245.076467 
L 197.204777 244.552219 
L 206.605867 244.552219 
L 206.605867 244.027971 
L 208.965675 244.027971 
L 208.965675 243.503724 
L 213.319046 243.503724 
L 213.319046 242.979476 
L 215.66184 242.979476 
L 215.66184 242.455228 
L 216.748099 242.455228 
L 216.748099 241.93098 
L 219.542951 241.93098 
L 219.542951 240.882485 
L 222.147715 240.882485 
L 222.147715 240.358237 
L 224.006143 240.358237 
L 224.070824 239.309742 
L 224.973209 239.309742 
L 225.018859 238.261246 
L 225.187479 238.261246 
L 225.187479 237.736999 
L 225.888753 237.736999 
L 225.888753 237.212751 
L 226.693418 237.212751 
L 226.693418 236.688503 
L 226.951241 236.688503 
L 226.951241 236.164255 
L 227.58537 236.164255 
L 227.58537 235.640008 
L 228.412212 235.640008 
L 228.412212 235.11576 
L 231.362392 235.11576 
L 231.362392 234.591512 
L 232.50338 234.591512 
L 232.50338 234.067265 
L 233.20527 234.067265 
L 233.20527 233.018769 
L 234.869558 233.018769 
L 234.869558 232.494521 
L 241.391134 232.494521 
L 241.391134 231.970274 
L 333.168 231.970274 
L 333.168 231.970274 
" style="fill:none;stroke:#000000;stroke-linecap:square;stroke-width:1.5;"/>
   </g>
   <g id="line2d_54">
    <defs>
     <path d="M 0 6 
C 1.591219 6 3.117479 5.367802 4.242641 4.242641 
C 5.367802 3.117479 6 1.591219 6 0 
C 6 -1.591219 5.367802 -3.117479 4.242641 -4.242641 
C 3.117479 -5.367802 1.591219 -6 0 -6 
C -1.591219 -6 -3.117479 -5.367802 -4.242641 -4.242641 
C -5.367802 -3.117479 -6 -1.591219 -6 0 
C -6 1.591219 -5.367802 3.117479 -4.242641 4.242641 
C -3.117479 5.367802 -1.591219 6 0 6 
z
" id="mbc83ec8f79" style="stroke:#000000;stroke-width:1.5;"/>
    </defs>
    <g>
     <use style="fill-opacity:0;stroke:#000000;stroke-width:1.5;" x="128.13443" xlink:href="#mbc83ec8f79" y="268.667614"/>
     <use style="fill-opacity:0;stroke:#000000;stroke-width:1.5;" x="197.204777" xlink:href="#mbc83ec8f79" y="245.076467"/>
     <use style="fill-opacity:0;stroke:#000000;stroke-width:1.5;" x="241.391134" xlink:href="#mbc83ec8f79" y="232.494521"/>
     <use style="fill-opacity:0;stroke:#000000;stroke-width:1.5;" x="241.391134" xlink:href="#mbc83ec8f79" y="231.970274"/>
     <use style="fill-opacity:0;stroke:#000000;stroke-width:1.5;" x="241.391134" xlink:href="#mbc83ec8f79" y="231.970274"/>
     <use style="fill-opacity:0;stroke:#000000;stroke-width:1.5;" x="333.168" xlink:href="#mbc83ec8f79" y="231.970274"/>
    </g>
   </g>
   <g id="line2d_55">
    <path style="fill:none;stroke:#000000;stroke-linecap:square;stroke-width:1.5;"/>
    <g/>
   </g>
   <g id="line2d_56">
    <path clip-path="url(#p57d7752b52)" d="M 175.027591 252.415935 
" style="fill:none;stroke:#000000;stroke-linecap:square;stroke-width:1.5;"/>
    <defs>
     <path d="M -12 12 
L 12 -12 
M -12 -12 
L 12 12 
" id="mbf1fa83849" style="stroke:#000000;"/>
    </defs>
    <g clip-path="url(#p57d7752b52)">
     <use style="stroke:#000000;" x="175.027591" xlink:href="#mbf1fa83849" y="252.415935"/>
    </g>
   </g>
   <g id="line2d_57">
    <defs>
     <path d="M 0 1.5 
C 0.397805 1.5 0.77937 1.341951 1.06066 1.06066 
C 1.341951 0.77937 1.5 0.397805 1.5 0 
C 1.5 -0.397805 1.341951 -0.77937 1.06066 -1.06066 
C 0.77937 -1.341951 0.397805 -1.5 0 -1.5 
C -0.397805 -1.5 -0.77937 -1.341951 -1.06066 -1.06066 
C -1.341951 -0.77937 -1.5 -0.397805 -1.5 0 
C -1.5 0.397805 -1.341951 0.77937 -1.06066 1.06066 
C -0.77937 1.341951 -0.397805 1.5 0 1.5 
z
" id="m1fbeec0e0f" style="stroke:#ff0000;"/>
    </defs>
    <g>
     <use style="fill:#ff0000;stroke:#ff0000;" x="225.40701" xlink:href="#m1fbeec0e0f" y="263.425137"/>
     <use style="fill:#ff0000;stroke:#ff0000;" x="225.40701" xlink:href="#m1fbeec0e0f" y="263.425137"/>
    </g>
   </g>
   <g id="line2d_58">
    <path d="M 4.627463 294.88 
L 4.627463 290.161771 
L 23.511104 290.161771 
L 23.511104 289.637523 
L 48.715431 289.637523 
L 48.715431 289.113275 
L 49.989246 289.113275 
L 49.989246 288.589027 
L 75.003641 288.589027 
L 75.003641 288.06478 
L 77.155024 288.06478 
L 77.155024 287.016284 
L 77.405958 287.016284 
L 77.405958 286.492036 
L 102.084955 286.492036 
L 102.084955 285.967789 
L 103.451658 285.967789 
L 103.451658 284.919293 
L 103.506312 284.919293 
L 103.506312 283.870798 
L 105.60948 283.870798 
L 105.60948 283.34655 
L 107.044627 283.34655 
L 107.044627 282.822302 
L 108.85563 282.822302 
L 108.85563 281.773807 
L 110.746395 281.773807 
L 110.746395 281.249559 
L 113.241875 281.249559 
L 113.241875 280.725312 
L 116.168013 280.725312 
L 116.168013 279.152568 
L 117.739642 279.152568 
L 117.739642 278.628321 
L 123.102538 278.628321 
L 123.102538 278.104073 
L 124.315167 278.104073 
L 124.315167 277.055578 
L 125.294931 277.055578 
L 125.294931 276.53133 
L 126.836558 276.53133 
L 126.836558 275.482834 
L 129.034962 275.482834 
L 129.034962 274.434339 
L 133.465568 274.434339 
L 133.465568 273.385844 
L 134.981852 273.385844 
L 134.981852 272.861596 
L 138.403266 272.861596 
L 138.403266 272.337348 
L 150.912534 272.337348 
L 150.912534 271.288853 
L 151.094972 271.288853 
L 151.094972 270.764605 
L 155.586208 270.764605 
L 155.586208 270.240357 
L 165.689163 270.240357 
L 165.689163 269.716109 
L 167.509685 269.716109 
L 167.509685 269.191862 
L 167.555741 269.191862 
L 167.555741 268.667614 
L 171.504439 268.667614 
L 171.504439 268.143366 
L 178.806193 268.143366 
L 178.806193 267.619119 
L 179.730179 267.619119 
L 179.730179 267.094871 
L 184.605976 267.094871 
L 184.605976 266.046375 
L 185.055707 266.046375 
L 185.055707 265.522128 
L 189.285388 265.522128 
L 189.285388 264.99788 
L 192.677078 264.99788 
L 192.677078 264.473632 
L 197.938884 264.473632 
L 197.938884 263.949385 
L 225.40701 263.949385 
L 225.40701 263.425137 
L 333.168 263.425137 
" style="fill:none;stroke:#ff0000;stroke-linecap:square;stroke-width:1.5;"/>
   </g>
   <g id="line2d_59">
    <defs>
     <path d="M -6 6 
L 6 6 
L 6 -6 
L -6 -6 
z
" id="mec3f66866f" style="stroke:#ff0000;stroke-linejoin:miter;stroke-width:1.5;"/>
    </defs>
    <g>
     <use style="fill-opacity:0;stroke:#ff0000;stroke-linejoin:miter;stroke-width:1.5;" x="107.044627" xlink:href="#mec3f66866f" y="283.34655"/>
     <use style="fill-opacity:0;stroke:#ff0000;stroke-linejoin:miter;stroke-width:1.5;" x="197.938884" xlink:href="#mec3f66866f" y="264.473632"/>
     <use style="fill-opacity:0;stroke:#ff0000;stroke-linejoin:miter;stroke-width:1.5;" x="225.40701" xlink:href="#mec3f66866f" y="263.949385"/>
     <use style="fill-opacity:0;stroke:#ff0000;stroke-linejoin:miter;stroke-width:1.5;" x="225.40701" xlink:href="#mec3f66866f" y="263.425137"/>
     <use style="fill-opacity:0;stroke:#ff0000;stroke-linejoin:miter;stroke-width:1.5;" x="333.168" xlink:href="#mec3f66866f" y="263.425137"/>
    </g>
   </g>
   <g id="line2d_60">
    <path style="fill:none;stroke:#ff0000;stroke-linecap:square;stroke-width:1.5;"/>
    <g/>
   </g>
   <g id="line2d_61">
    <path clip-path="url(#p57d7752b52)" d="M 163.11334 270.240357 
" style="fill:none;stroke:#ff0000;stroke-linecap:square;stroke-width:1.5;"/>
    <defs>
     <path d="M -12 12 
L 12 -12 
M -12 -12 
L 12 12 
" id="m6f5fede163" style="stroke:#ff0000;"/>
    </defs>
    <g clip-path="url(#p57d7752b52)">
     <use style="fill:#ff0000;stroke:#ff0000;" x="163.11334" xlink:href="#m6f5fede163" y="270.240357"/>
    </g>
   </g>
   <g id="line2d_62">
    <defs>
     <path d="M 0 1.5 
C 0.397805 1.5 0.77937 1.341951 1.06066 1.06066 
C 1.341951 0.77937 1.5 0.397805 1.5 0 
C 1.5 -0.397805 1.341951 -0.77937 1.06066 -1.06066 
C 0.77937 -1.341951 0.397805 -1.5 0 -1.5 
C -0.397805 -1.5 -0.77937 -1.341951 -1.06066 -1.06066 
C -1.341951 -0.77937 -1.5 -0.397805 -1.5 0 
C -1.5 0.397805 -1.341951 0.77937 -1.06066 1.06066 
C -0.77937 1.341951 -0.397805 1.5 0 1.5 
z
" id="meee7fe3af2" style="stroke:#bf00bf;"/>
    </defs>
    <g>
     <use style="fill:#bf00bf;stroke:#bf00bf;" x="158.341741" xlink:href="#meee7fe3af2" y="273.910091"/>
     <use style="fill:#bf00bf;stroke:#bf00bf;" x="158.341741" xlink:href="#meee7fe3af2" y="273.910091"/>
    </g>
   </g>
   <g id="line2d_63">
    <path d="M -1 289.113275 
L 45.044385 289.113275 
L 45.044385 288.589027 
L 55.684822 288.589027 
L 55.684822 287.540532 
L 57.363093 287.540532 
L 57.363093 285.967789 
L 64.727642 285.967789 
L 64.727642 285.443541 
L 69.277344 285.443541 
L 69.277344 284.919293 
L 94.497039 284.919293 
L 94.497039 284.395046 
L 98.360198 284.395046 
L 98.360198 283.870798 
L 100.696777 283.870798 
L 100.696777 283.34655 
L 101.296625 283.34655 
L 101.296625 282.822302 
L 110.584491 282.822302 
L 110.584491 282.298055 
L 115.851649 282.298055 
L 115.851649 281.773807 
L 119.633883 281.773807 
L 119.633883 280.725312 
L 129.659852 280.725312 
L 129.659852 280.201064 
L 130.39462 280.201064 
L 130.39462 279.676816 
L 144.538318 279.676816 
L 144.538318 278.628321 
L 144.949537 278.628321 
L 144.949537 277.579825 
L 151.918928 277.579825 
L 151.918928 277.055578 
L 154.813691 277.055578 
L 154.813691 276.53133 
L 155.517517 276.53133 
L 155.517517 276.007082 
L 155.68349 276.007082 
L 155.68349 275.482834 
L 157.0355 275.482834 
L 157.0355 274.434339 
L 158.341741 274.434339 
L 158.341741 273.910091 
L 333.168 273.910091 
" style="fill:none;stroke:#bf00bf;stroke-linecap:square;stroke-width:1.5;"/>
   </g>
   <g id="line2d_64">
    <defs>
     <path d="M -0 8.485281 
L 8.485281 0 
L 0 -8.485281 
L -8.485281 -0 
z
" id="mf6d50f89a3" style="stroke:#bf00bf;stroke-linejoin:miter;stroke-width:1.5;"/>
    </defs>
    <g>
     <use style="fill-opacity:0;stroke:#bf00bf;stroke-linejoin:miter;stroke-width:1.5;" x="130.39462" xlink:href="#mf6d50f89a3" y="279.676816"/>
     <use style="fill-opacity:0;stroke:#bf00bf;stroke-linejoin:miter;stroke-width:1.5;" x="158.341741" xlink:href="#mf6d50f89a3" y="274.434339"/>
     <use style="fill-opacity:0;stroke:#bf00bf;stroke-linejoin:miter;stroke-width:1.5;" x="158.341741" xlink:href="#mf6d50f89a3" y="273.910091"/>
     <use style="fill-opacity:0;stroke:#bf00bf;stroke-linejoin:miter;stroke-width:1.5;" x="158.341741" xlink:href="#mf6d50f89a3" y="273.910091"/>
     <use style="fill-opacity:0;stroke:#bf00bf;stroke-linejoin:miter;stroke-width:1.5;" x="333.168" xlink:href="#mf6d50f89a3" y="273.910091"/>
    </g>
   </g>
   <g id="line2d_65">
    <path style="fill:none;stroke:#bf00bf;stroke-linecap:square;stroke-width:1.5;"/>
    <g/>
   </g>
   <g id="line2d_66">
    <path clip-path="url(#p57d7752b52)" d="M 151.199089 277.579825 
" style="fill:none;stroke:#bf00bf;stroke-linecap:square;stroke-width:1.5;"/>
    <defs>
     <path d="M -12 12 
L 12 -12 
M -12 -12 
L 12 12 
" id="m7a43693e27" style="stroke:#bf00bf;"/>
    </defs>
    <g clip-path="url(#p57d7752b52)">
     <use style="fill:#bf00bf;stroke:#bf00bf;" x="151.199089" xlink:href="#m7a43693e27" y="277.579825"/>
    </g>
   </g>
   <g id="line2d_67">
    <path d="M 333.168 273.910091 
L 363.64328 289.532673 
" style="fill:none;stroke:#bf00bf;stroke-linecap:square;stroke-width:1.5;"/>
    <g>
     <use style="fill-opacity:0;stroke:#bf00bf;stroke-linejoin:miter;stroke-width:1.5;" x="333.168" xlink:href="#mf6d50f89a3" y="273.910091"/>
     <use style="fill-opacity:0;stroke:#bf00bf;stroke-linejoin:miter;stroke-width:1.5;" x="363.64328" xlink:href="#mf6d50f89a3" y="289.532673"/>
    </g>
   </g>
   <g id="line2d_68">
    <path d="M 333.168 263.425137 
L 363.64328 238.198337 
" style="fill:none;stroke:#ff0000;stroke-linecap:square;stroke-width:1.5;"/>
    <g>
     <use style="fill-opacity:0;stroke:#ff0000;stroke-linejoin:miter;stroke-width:1.5;" x="333.168" xlink:href="#mec3f66866f" y="263.425137"/>
     <use style="fill-opacity:0;stroke:#ff0000;stroke-linejoin:miter;stroke-width:1.5;" x="363.64328" xlink:href="#mec3f66866f" y="238.198337"/>
    </g>
   </g>
   <g id="line2d_69">
    <path d="M 333.168 231.970274 
L 363.64328 186.864 
" style="fill:none;stroke:#000000;stroke-linecap:square;stroke-width:1.5;"/>
    <g>
     <use style="fill-opacity:0;stroke:#000000;stroke-width:1.5;" x="333.168" xlink:href="#mbc83ec8f79" y="231.970274"/>
     <use style="fill-opacity:0;stroke:#000000;stroke-width:1.5;" x="363.64328" xlink:href="#mbc83ec8f79" y="186.864"/>
    </g>
   </g>
   <g id="line2d_70">
    <path d="M 333.168 190.030456 
L 363.64328 135.529663 
" style="fill:none;stroke:#0000ff;stroke-linecap:square;stroke-width:1.5;"/>
    <g>
     <use style="fill-opacity:0;stroke:#0000ff;stroke-linejoin:bevel;stroke-width:1.5;" x="333.168" xlink:href="#m05b8fee628" y="190.030456"/>
     <use style="fill-opacity:0;stroke:#0000ff;stroke-linejoin:bevel;stroke-width:1.5;" x="363.64328" xlink:href="#m05b8fee628" y="135.529663"/>
    </g>
   </g>
   <g id="line2d_71">
    <path d="M 333.168 48.483572 
L 363.64328 84.195327 
" style="fill:none;stroke:#008000;stroke-linecap:square;stroke-width:1.5;"/>
    <g>
     <use style="fill-opacity:0;stroke:#008000;stroke-linejoin:miter;stroke-width:1.5;" x="333.168" xlink:href="#m7bbf0808a3" y="48.483572"/>
     <use style="fill-opacity:0;stroke:#008000;stroke-linejoin:miter;stroke-width:1.5;" x="363.64328" xlink:href="#m7bbf0808a3" y="84.195327"/>
    </g>
   </g>
   <g id="line2d_72">
    <path d="M 333.168 27.513663 
L 363.64328 32.86099 
" style="fill:none;stroke:#00bfbf;stroke-linecap:square;stroke-width:1.5;"/>
    <g>
     <use style="fill-opacity:0;stroke:#00bfbf;stroke-width:1.5;" x="333.168" xlink:href="#m0113e3059f" y="27.513663"/>
     <use style="fill-opacity:0;stroke:#00bfbf;stroke-width:1.5;" x="363.64328" xlink:href="#m0113e3059f" y="32.86099"/>
    </g>
   </g>
   <g id="line2d_73">
    <path d="M 333.168 294.88 
L 333.168 27.513663 
" style="fill:none;stroke:#000000;stroke-linecap:square;stroke-width:1.5;"/>
   </g>
   <g id="patch_3">
    <path d="M 56.12 294.88 
L 56.12 24.84 
" style="fill:none;stroke:#000000;stroke-linecap:square;stroke-linejoin:miter;stroke-width:0.8;"/>
   </g>
   <g id="patch_4">
    <path d="M 333.168 294.88 
L 333.168 24.84 
" style="fill:none;stroke:#000000;stroke-linecap:square;stroke-linejoin:miter;stroke-width:0.8;"/>
   </g>
   <g id="patch_5">
    <path d="M 56.12 294.88 
L 333.168 294.88 
" style="fill:none;stroke:#000000;stroke-linecap:square;stroke-linejoin:miter;stroke-width:0.8;"/>
   </g>
   <g id="patch_6">
    <path d="M 56.12 24.84 
L 333.168 24.84 
" style="fill:none;stroke:#000000;stroke-linecap:square;stroke-linejoin:miter;stroke-width:0.8;"/>
   </g>
   <g id="text_13">
    <!-- 40-D -->
    <defs>
     <path d="M 19.671875 64.796875 
L 19.671875 8.109375 
L 31.59375 8.109375 
Q 46.6875 8.109375 53.6875 14.9375 
Q 60.6875 21.78125 60.6875 36.53125 
Q 60.6875 51.171875 53.6875 57.984375 
Q 46.6875 64.796875 31.59375 64.796875 
z
M 9.8125 72.90625 
L 30.078125 72.90625 
Q 51.265625 72.90625 61.171875 64.09375 
Q 71.09375 55.28125 71.09375 36.53125 
Q 71.09375 17.671875 61.125 8.828125 
Q 51.171875 0 30.078125 0 
L 9.8125 0 
z
" id="DejaVuSans-44"/>
    </defs>
    <g transform="translate(369.18424 294.223611)scale(0.17 -0.17)">
     <use xlink:href="#DejaVuSans-34"/>
     <use x="63.623047" xlink:href="#DejaVuSans-30"/>
     <use x="127.246094" xlink:href="#DejaVuSans-2d"/>
     <use x="163.330078" xlink:href="#DejaVuSans-44"/>
    </g>
   </g>
   <g id="text_14">
    <!-- 20-D -->
    <g transform="translate(369.18424 242.889274)scale(0.17 -0.17)">
     <use xlink:href="#DejaVuSans-32"/>
     <use x="63.623047" xlink:href="#DejaVuSans-30"/>
     <use x="127.246094" xlink:href="#DejaVuSans-2d"/>
     <use x="163.330078" xlink:href="#DejaVuSans-44"/>
    </g>
   </g>
   <g id="text_15">
    <!-- 10-D -->
    <g transform="translate(369.18424 191.554937)scale(0.17 -0.17)">
     <use xlink:href="#DejaVuSans-31"/>
     <use x="63.623047" xlink:href="#DejaVuSans-30"/>
     <use x="127.246094" xlink:href="#DejaVuSans-2d"/>
     <use x="163.330078" xlink:href="#DejaVuSans-44"/>
    </g>
   </g>
   <g id="text_16">
    <!-- 5-D -->
    <defs>
     <path d="M 10.796875 72.90625 
L 49.515625 72.90625 
L 49.515625 64.59375 
L 19.828125 64.59375 
L 19.828125 46.734375 
Q 21.96875 47.46875 24.109375 47.828125 
Q 26.265625 48.1875 28.421875 48.1875 
Q 40.625 48.1875 47.75 41.5 
Q 54.890625 34.8125 54.890625 23.390625 
Q 54.890625 11.625 47.5625 5.09375 
Q 40.234375 -1.421875 26.90625 -1.421875 
Q 22.3125 -1.421875 17.546875 -0.640625 
Q 12.796875 0.140625 7.71875 1.703125 
L 7.71875 11.625 
Q 12.109375 9.234375 16.796875 8.0625 
Q 21.484375 6.890625 26.703125 6.890625 
Q 35.15625 6.890625 40.078125 11.328125 
Q 45.015625 15.765625 45.015625 23.390625 
Q 45.015625 31 40.078125 35.4375 
Q 35.15625 39.890625 26.703125 39.890625 
Q 22.75 39.890625 18.8125 39.015625 
Q 14.890625 38.140625 10.796875 36.28125 
z
" id="DejaVuSans-35"/>
    </defs>
    <g transform="translate(369.18424 140.220601)scale(0.17 -0.17)">
     <use xlink:href="#DejaVuSans-35"/>
     <use x="63.623047" xlink:href="#DejaVuSans-2d"/>
     <use x="99.707031" xlink:href="#DejaVuSans-44"/>
    </g>
   </g>
   <g id="text_17">
    <!-- 3-D -->
    <defs>
     <path d="M 40.578125 39.3125 
Q 47.65625 37.796875 51.625 33 
Q 55.609375 28.21875 55.609375 21.1875 
Q 55.609375 10.40625 48.1875 4.484375 
Q 40.765625 -1.421875 27.09375 -1.421875 
Q 22.515625 -1.421875 17.65625 -0.515625 
Q 12.796875 0.390625 7.625 2.203125 
L 7.625 11.71875 
Q 11.71875 9.328125 16.59375 8.109375 
Q 21.484375 6.890625 26.8125 6.890625 
Q 36.078125 6.890625 40.9375 10.546875 
Q 45.796875 14.203125 45.796875 21.1875 
Q 45.796875 27.640625 41.28125 31.265625 
Q 36.765625 34.90625 28.71875 34.90625 
L 20.21875 34.90625 
L 20.21875 43.015625 
L 29.109375 43.015625 
Q 36.375 43.015625 40.234375 45.921875 
Q 44.09375 48.828125 44.09375 54.296875 
Q 44.09375 59.90625 40.109375 62.90625 
Q 36.140625 65.921875 28.71875 65.921875 
Q 24.65625 65.921875 20.015625 65.03125 
Q 15.375 64.15625 9.8125 62.3125 
L 9.8125 71.09375 
Q 15.4375 72.65625 20.34375 73.4375 
Q 25.25 74.21875 29.59375 74.21875 
Q 40.828125 74.21875 47.359375 69.109375 
Q 53.90625 64.015625 53.90625 55.328125 
Q 53.90625 49.265625 50.4375 45.09375 
Q 46.96875 40.921875 40.578125 39.3125 
z
" id="DejaVuSans-33"/>
    </defs>
    <g transform="translate(369.18424 88.886264)scale(0.17 -0.17)">
     <use xlink:href="#DejaVuSans-33"/>
     <use x="63.623047" xlink:href="#DejaVuSans-2d"/>
     <use x="99.707031" xlink:href="#DejaVuSans-44"/>
    </g>
   </g>
   <g id="text_18">
    <!-- 2-D -->
    <g transform="translate(369.18424 37.551928)scale(0.17 -0.17)">
     <use xlink:href="#DejaVuSans-32"/>
     <use x="63.623047" xlink:href="#DejaVuSans-2d"/>
     <use x="99.707031" xlink:href="#DejaVuSans-44"/>
    </g>
   </g>
   <g id="text_19">
    <!-- bbob f18 -->
    <defs>
     <path d="M 48.6875 27.296875 
Q 48.6875 37.203125 44.609375 42.84375 
Q 40.53125 48.484375 33.40625 48.484375 
Q 26.265625 48.484375 22.1875 42.84375 
Q 18.109375 37.203125 18.109375 27.296875 
Q 18.109375 17.390625 22.1875 11.75 
Q 26.265625 6.109375 33.40625 6.109375 
Q 40.53125 6.109375 44.609375 11.75 
Q 48.6875 17.390625 48.6875 27.296875 
z
M 18.109375 46.390625 
Q 20.953125 51.265625 25.265625 53.625 
Q 29.59375 56 35.59375 56 
Q 45.5625 56 51.78125 48.09375 
Q 58.015625 40.1875 58.015625 27.296875 
Q 58.015625 14.40625 51.78125 6.484375 
Q 45.5625 -1.421875 35.59375 -1.421875 
Q 29.59375 -1.421875 25.265625 0.953125 
Q 20.953125 3.328125 18.109375 8.203125 
L 18.109375 0 
L 9.078125 0 
L 9.078125 75.984375 
L 18.109375 75.984375 
z
" id="DejaVuSans-62"/>
    </defs>
    <g transform="translate(58.89048 35.290806)scale(0.102 -0.102)">
     <use xlink:href="#DejaVuSans-62"/>
     <use x="63.476562" xlink:href="#DejaVuSans-62"/>
     <use x="126.953125" xlink:href="#DejaVuSans-6f"/>
     <use x="188.134766" xlink:href="#DejaVuSans-62"/>
     <use x="251.611328" xlink:href="#DejaVuSans-20"/>
     <use x="283.398438" xlink:href="#DejaVuSans-66"/>
     <use x="318.603516" xlink:href="#DejaVuSans-31"/>
     <use x="382.226562" xlink:href="#DejaVuSans-38"/>
    </g>
    <!-- 51 targets: 100..1e-08 -->
    <defs>
     <path d="M 11.71875 12.40625 
L 22.015625 12.40625 
L 22.015625 0 
L 11.71875 0 
z
M 11.71875 51.703125 
L 22.015625 51.703125 
L 22.015625 39.3125 
L 11.71875 39.3125 
z
" id="DejaVuSans-3a"/>
    </defs>
    <g transform="translate(58.89048 46.712575)scale(0.102 -0.102)">
     <use xlink:href="#DejaVuSans-35"/>
     <use x="63.623047" xlink:href="#DejaVuSans-31"/>
     <use x="127.246094" xlink:href="#DejaVuSans-20"/>
     <use x="159.033203" xlink:href="#DejaVuSans-74"/>
     <use x="198.242188" xlink:href="#DejaVuSans-61"/>
     <use x="259.521484" xlink:href="#DejaVuSans-72"/>
     <use x="300.619141" xlink:href="#DejaVuSans-67"/>
     <use x="364.095703" xlink:href="#DejaVuSans-65"/>
     <use x="425.619141" xlink:href="#DejaVuSans-74"/>
     <use x="464.828125" xlink:href="#DejaVuSans-73"/>
     <use x="516.927734" xlink:href="#DejaVuSans-3a"/>
     <use x="550.619141" xlink:href="#DejaVuSans-20"/>
     <use x="582.40625" xlink:href="#DejaVuSans-31"/>
     <use x="646.029297" xlink:href="#DejaVuSans-30"/>
     <use x="709.652344" xlink:href="#DejaVuSans-30"/>
     <use x="773.275391" xlink:href="#DejaVuSans-2e"/>
     <use x="805.0625" xlink:href="#DejaVuSans-2e"/>
     <use x="836.849609" xlink:href="#DejaVuSans-31"/>
     <use x="900.472656" xlink:href="#DejaVuSans-65"/>
     <use x="961.996094" xlink:href="#DejaVuSans-2d"/>
     <use x="998.080078" xlink:href="#DejaVuSans-30"/>
     <use x="1061.703125" xlink:href="#DejaVuSans-38"/>
    </g>
    <!-- 15 instances -->
    <g transform="translate(58.89048 58.134344)scale(0.102 -0.102)">
     <use xlink:href="#DejaVuSans-31"/>
     <use x="63.623047" xlink:href="#DejaVuSans-35"/>
     <use x="127.246094" xlink:href="#DejaVuSans-20"/>
     <use x="159.033203" xlink:href="#DejaVuSans-69"/>
     <use x="186.816406" xlink:href="#DejaVuSans-6e"/>
     <use x="250.195312" xlink:href="#DejaVuSans-73"/>
     <use x="302.294922" xlink:href="#DejaVuSans-74"/>
     <use x="341.503906" xlink:href="#DejaVuSans-61"/>
     <use x="402.783203" xlink:href="#DejaVuSans-6e"/>
     <use x="466.162109" xlink:href="#DejaVuSans-63"/>
     <use x="521.142578" xlink:href="#DejaVuSans-65"/>
     <use x="582.666016" xlink:href="#DejaVuSans-73"/>
    </g>
   </g>
   <g id="text_20">
    <!-- v0.0.0 -->
    <g style="fill:#808080;" transform="translate(178.96275 290.099912)scale(0.1 -0.1)">
     <use xlink:href="#DejaVuSans-76"/>
     <use x="59.179688" xlink:href="#DejaVuSans-30"/>
     <use x="122.802734" xlink:href="#DejaVuSans-2e"/>
     <use x="154.589844" xlink:href="#DejaVuSans-30"/>
     <use x="218.212891" xlink:href="#DejaVuSans-2e"/>
     <use x="250" xlink:href="#DejaVuSans-30"/>
    </g>
   </g>
   <g id="text_21">
    <!-- 18 Schaffer F7, condition 1000 -->
    <defs>
     <path d="M 53.515625 70.515625 
L 53.515625 60.890625 
Q 47.90625 63.578125 42.921875 64.890625 
Q 37.9375 66.21875 33.296875 66.21875 
Q 25.25 66.21875 20.875 63.09375 
Q 16.5 59.96875 16.5 54.203125 
Q 16.5 49.359375 19.40625 46.890625 
Q 22.3125 44.4375 30.421875 42.921875 
L 36.375 41.703125 
Q 47.40625 39.59375 52.65625 34.296875 
Q 57.90625 29 57.90625 20.125 
Q 57.90625 9.515625 50.796875 4.046875 
Q 43.703125 -1.421875 29.984375 -1.421875 
Q 24.8125 -1.421875 18.96875 -0.25 
Q 13.140625 0.921875 6.890625 3.21875 
L 6.890625 13.375 
Q 12.890625 10.015625 18.65625 8.296875 
Q 24.421875 6.59375 29.984375 6.59375 
Q 38.421875 6.59375 43.015625 9.90625 
Q 47.609375 13.234375 47.609375 19.390625 
Q 47.609375 24.75 44.3125 27.78125 
Q 41.015625 30.8125 33.5 32.328125 
L 27.484375 33.5 
Q 16.453125 35.6875 11.515625 40.375 
Q 6.59375 45.0625 6.59375 53.421875 
Q 6.59375 63.09375 13.40625 68.65625 
Q 20.21875 74.21875 32.171875 74.21875 
Q 37.3125 74.21875 42.625 73.28125 
Q 47.953125 72.359375 53.515625 70.515625 
z
" id="DejaVuSans-53"/>
     <path d="M 54.890625 33.015625 
L 54.890625 0 
L 45.90625 0 
L 45.90625 32.71875 
Q 45.90625 40.484375 42.875 44.328125 
Q 39.84375 48.1875 33.796875 48.1875 
Q 26.515625 48.1875 22.3125 43.546875 
Q 18.109375 38.921875 18.109375 30.90625 
L 18.109375 0 
L 9.078125 0 
L 9.078125 75.984375 
L 18.109375 75.984375 
L 18.109375 46.1875 
Q 21.34375 51.125 25.703125 53.5625 
Q 30.078125 56 35.796875 56 
Q 45.21875 56 50.046875 50.171875 
Q 54.890625 44.34375 54.890625 33.015625 
z
" id="DejaVuSans-68"/>
     <path d="M 8.203125 72.90625 
L 55.078125 72.90625 
L 55.078125 68.703125 
L 28.609375 0 
L 18.3125 0 
L 43.21875 64.59375 
L 8.203125 64.59375 
z
" id="DejaVuSans-37"/>
    </defs>
    <g transform="translate(40.611187 18.84)scale(0.2 -0.2)">
     <use xlink:href="#DejaVuSans-31"/>
     <use x="63.623047" xlink:href="#DejaVuSans-38"/>
     <use x="127.246094" xlink:href="#DejaVuSans-20"/>
     <use x="159.033203" xlink:href="#DejaVuSans-53"/>
     <use x="222.509766" xlink:href="#DejaVuSans-63"/>
     <use x="277.490234" xlink:href="#DejaVuSans-68"/>
     <use x="340.869141" xlink:href="#DejaVuSans-61"/>
     <use x="402.148438" xlink:href="#DejaVuSans-66"/>
     <use x="437.353516" xlink:href="#DejaVuSans-66"/>
     <use x="472.558594" xlink:href="#DejaVuSans-65"/>
     <use x="534.082031" xlink:href="#DejaVuSans-72"/>
     <use x="575.195312" xlink:href="#DejaVuSans-20"/>
     <use x="606.982422" xlink:href="#DejaVuSans-46"/>
     <use x="664.501953" xlink:href="#DejaVuSans-37"/>
     <use x="728.125" xlink:href="#DejaVuSans-2c"/>
     <use x="759.912109" xlink:href="#DejaVuSans-20"/>
     <use x="791.699219" xlink:href="#DejaVuSans-63"/>
     <use x="846.679688" xlink:href="#DejaVuSans-6f"/>
     <use x="907.861328" xlink:href="#DejaVuSans-6e"/>
     <use x="971.240234" xlink:href="#DejaVuSans-64"/>
     <use x="1034.716797" xlink:href="#DejaVuSans-69"/>
     <use x="1062.5" xlink:href="#DejaVuSans-74"/>
     <use x="1101.708984" xlink:href="#DejaVuSans-69"/>
     <use x="1129.492188" xlink:href="#DejaVuSans-6f"/>
     <use x="1190.673828" xlink:href="#DejaVuSans-6e"/>
     <use x="1254.052734" xlink:href="#DejaVuSans-20"/>
     <use x="1285.839844" xlink:href="#DejaVuSans-31"/>
     <use x="1349.462891" xlink:href="#DejaVuSans-30"/>
     <use x="1413.085938" xlink:href="#DejaVuSans-30"/>
     <use x="1476.708984" xlink:href="#DejaVuSans-30"/>
    </g>
   </g>
  </g>
 </g>
 <defs>
  <clipPath id="p57d7752b52">
   <rect height="270.04" width="277.048" x="56.12" y="24.84"/>
  </clipPath>
 </defs>
</svg>
