<?xml version="1.0" encoding="utf-8" standalone="no"?>
<!DOCTYPE svg PUBLIC "-//W3C//DTD SVG 1.1//EN"
  "http://www.w3.org/Graphics/SVG/1.1/DTD/svg11.dtd">
<!-- Created with matplotlib (http://matplotlib.org/) -->
<svg height="345.6pt" version="1.1" viewBox="0 0 460.8 345.6" width="460.8pt" xmlns="http://www.w3.org/2000/svg" xmlns:xlink="http://www.w3.org/1999/xlink">
 <defs>
  <style type="text/css">
*{stroke-linecap:butt;stroke-linejoin:round;}
  </style>
 </defs>
 <g id="figure_1">
  <g id="patch_1">
   <path d="M 0 345.6 
L 460.8 345.6 
L 460.8 0 
L 0 0 
z
" style="fill:#ffffff;"/>
  </g>
  <g id="axes_1">
   <g id="patch_2">
    <path d="M 56.12 294.88 
L 333.168 294.88 
L 333.168 24.84 
L 56.12 24.84 
z
" style="fill:#ffffff;"/>
   </g>
   <g id="matplotlib.axis_1">
    <g id="xtick_1">
     <g id="line2d_1">
      <path clip-path="url(#p570d271e41)" d="M 56.12 294.88 
L 56.12 24.84 
" style="fill:none;stroke:#b0b0b0;stroke-linecap:square;stroke-width:0.8;"/>
     </g>
     <g id="line2d_2">
      <defs>
       <path d="M 0 0 
L 0 3.5 
" id="m41835363e9" style="stroke:#000000;stroke-width:0.8;"/>
      </defs>
      <g>
       <use style="stroke:#000000;stroke-width:0.8;" x="56.12" xlink:href="#m41835363e9" y="294.88"/>
      </g>
     </g>
     <g id="text_1">
      <!-- 0 -->
      <defs>
       <path d="M 31.78125 66.40625 
Q 24.171875 66.40625 20.328125 58.90625 
Q 16.5 51.421875 16.5 36.375 
Q 16.5 21.390625 20.328125 13.890625 
Q 24.171875 6.390625 31.78125 6.390625 
Q 39.453125 6.390625 43.28125 13.890625 
Q 47.125 21.390625 47.125 36.375 
Q 47.125 51.421875 43.28125 58.90625 
Q 39.453125 66.40625 31.78125 66.40625 
z
M 31.78125 74.21875 
Q 44.046875 74.21875 50.515625 64.515625 
Q 56.984375 54.828125 56.984375 36.375 
Q 56.984375 17.96875 50.515625 8.265625 
Q 44.046875 -1.421875 31.78125 -1.421875 
Q 19.53125 -1.421875 13.0625 8.265625 
Q 6.59375 17.96875 6.59375 36.375 
Q 6.59375 54.828125 13.0625 64.515625 
Q 19.53125 74.21875 31.78125 74.21875 
z
" id="DejaVuSans-30"/>
      </defs>
      <g transform="translate(49.7575 317.076875)scale(0.2 -0.2)">
       <use xlink:href="#DejaVuSans-30"/>
      </g>
     </g>
    </g>
    <g id="xtick_2">
     <g id="line2d_3">
      <path clip-path="url(#p570d271e41)" d="M 135.276571 294.88 
L 135.276571 24.84 
" style="fill:none;stroke:#b0b0b0;stroke-linecap:square;stroke-width:0.8;"/>
     </g>
     <g id="line2d_4">
      <g>
       <use style="stroke:#000000;stroke-width:0.8;" x="135.276571" xlink:href="#m41835363e9" y="294.88"/>
      </g>
     </g>
     <g id="text_2">
      <!-- 2 -->
      <defs>
       <path d="M 19.1875 8.296875 
L 53.609375 8.296875 
L 53.609375 0 
L 7.328125 0 
L 7.328125 8.296875 
Q 12.9375 14.109375 22.625 23.890625 
Q 32.328125 33.6875 34.8125 36.53125 
Q 39.546875 41.84375 41.421875 45.53125 
Q 43.3125 49.21875 43.3125 52.78125 
Q 43.3125 58.59375 39.234375 62.25 
Q 35.15625 65.921875 28.609375 65.921875 
Q 23.96875 65.921875 18.8125 64.3125 
Q 13.671875 62.703125 7.8125 59.421875 
L 7.8125 69.390625 
Q 13.765625 71.78125 18.9375 73 
Q 24.125 74.21875 28.421875 74.21875 
Q 39.75 74.21875 46.484375 68.546875 
Q 53.21875 62.890625 53.21875 53.421875 
Q 53.21875 48.921875 51.53125 44.890625 
Q 49.859375 40.875 45.40625 35.40625 
Q 44.1875 33.984375 37.640625 27.21875 
Q 31.109375 20.453125 19.1875 8.296875 
z
" id="DejaVuSans-32"/>
      </defs>
      <g transform="translate(128.914071 317.076875)scale(0.2 -0.2)">
       <use xlink:href="#DejaVuSans-32"/>
      </g>
     </g>
    </g>
    <g id="xtick_3">
     <g id="line2d_5">
      <path clip-path="url(#p570d271e41)" d="M 214.433143 294.88 
L 214.433143 24.84 
" style="fill:none;stroke:#b0b0b0;stroke-linecap:square;stroke-width:0.8;"/>
     </g>
     <g id="line2d_6">
      <g>
       <use style="stroke:#000000;stroke-width:0.8;" x="214.433143" xlink:href="#m41835363e9" y="294.88"/>
      </g>
     </g>
     <g id="text_3">
      <!-- 4 -->
      <defs>
       <path d="M 37.796875 64.3125 
L 12.890625 25.390625 
L 37.796875 25.390625 
z
M 35.203125 72.90625 
L 47.609375 72.90625 
L 47.609375 25.390625 
L 58.015625 25.390625 
L 58.015625 17.1875 
L 47.609375 17.1875 
L 47.609375 0 
L 37.796875 0 
L 37.796875 17.1875 
L 4.890625 17.1875 
L 4.890625 26.703125 
z
" id="DejaVuSans-34"/>
      </defs>
      <g transform="translate(208.070643 317.076875)scale(0.2 -0.2)">
       <use xlink:href="#DejaVuSans-34"/>
      </g>
     </g>
    </g>
    <g id="xtick_4">
     <g id="line2d_7">
      <path clip-path="url(#p570d271e41)" d="M 293.589714 294.88 
L 293.589714 24.84 
" style="fill:none;stroke:#b0b0b0;stroke-linecap:square;stroke-width:0.8;"/>
     </g>
     <g id="line2d_8">
      <g>
       <use style="stroke:#000000;stroke-width:0.8;" x="293.589714" xlink:href="#m41835363e9" y="294.88"/>
      </g>
     </g>
     <g id="text_4">
      <!-- 6 -->
      <defs>
       <path d="M 33.015625 40.375 
Q 26.375 40.375 22.484375 35.828125 
Q 18.609375 31.296875 18.609375 23.390625 
Q 18.609375 15.53125 22.484375 10.953125 
Q 26.375 6.390625 33.015625 6.390625 
Q 39.65625 6.390625 43.53125 10.953125 
Q 47.40625 15.53125 47.40625 23.390625 
Q 47.40625 31.296875 43.53125 35.828125 
Q 39.65625 40.375 33.015625 40.375 
z
M 52.59375 71.296875 
L 52.59375 62.3125 
Q 48.875 64.0625 45.09375 64.984375 
Q 41.3125 65.921875 37.59375 65.921875 
Q 27.828125 65.921875 22.671875 59.328125 
Q 17.53125 52.734375 16.796875 39.40625 
Q 19.671875 43.65625 24.015625 45.921875 
Q 28.375 48.1875 33.59375 48.1875 
Q 44.578125 48.1875 50.953125 41.515625 
Q 57.328125 34.859375 57.328125 23.390625 
Q 57.328125 12.15625 50.6875 5.359375 
Q 44.046875 -1.421875 33.015625 -1.421875 
Q 20.359375 -1.421875 13.671875 8.265625 
Q 6.984375 17.96875 6.984375 36.375 
Q 6.984375 53.65625 15.1875 63.9375 
Q 23.390625 74.21875 37.203125 74.21875 
Q 40.921875 74.21875 44.703125 73.484375 
Q 48.484375 72.75 52.59375 71.296875 
z
" id="DejaVuSans-36"/>
      </defs>
      <g transform="translate(287.227214 317.076875)scale(0.2 -0.2)">
       <use xlink:href="#DejaVuSans-36"/>
      </g>
     </g>
    </g>
    <g id="xtick_5">
     <g id="line2d_9">
      <path clip-path="url(#p570d271e41)" d="M 56.12 294.88 
L 56.12 24.84 
" style="fill:none;stroke:#b0b0b0;stroke-linecap:square;stroke-width:0.8;"/>
     </g>
     <g id="line2d_10">
      <defs>
       <path d="M 0 0 
L 0 2 
" id="m52520a6f8f" style="stroke:#000000;stroke-width:0.6;"/>
      </defs>
      <g>
       <use style="stroke:#000000;stroke-width:0.6;" x="56.12" xlink:href="#m52520a6f8f" y="294.88"/>
      </g>
     </g>
    </g>
    <g id="xtick_6">
     <g id="line2d_11">
      <path clip-path="url(#p570d271e41)" d="M 95.698286 294.88 
L 95.698286 24.84 
" style="fill:none;stroke:#b0b0b0;stroke-linecap:square;stroke-width:0.8;"/>
     </g>
     <g id="line2d_12">
      <g>
       <use style="stroke:#000000;stroke-width:0.6;" x="95.698286" xlink:href="#m52520a6f8f" y="294.88"/>
      </g>
     </g>
    </g>
    <g id="xtick_7">
     <g id="line2d_13">
      <path clip-path="url(#p570d271e41)" d="M 135.276571 294.88 
L 135.276571 24.84 
" style="fill:none;stroke:#b0b0b0;stroke-linecap:square;stroke-width:0.8;"/>
     </g>
     <g id="line2d_14">
      <g>
       <use style="stroke:#000000;stroke-width:0.6;" x="135.276571" xlink:href="#m52520a6f8f" y="294.88"/>
      </g>
     </g>
    </g>
    <g id="xtick_8">
     <g id="line2d_15">
      <path clip-path="url(#p570d271e41)" d="M 174.854857 294.88 
L 174.854857 24.84 
" style="fill:none;stroke:#b0b0b0;stroke-linecap:square;stroke-width:0.8;"/>
     </g>
     <g id="line2d_16">
      <g>
       <use style="stroke:#000000;stroke-width:0.6;" x="174.854857" xlink:href="#m52520a6f8f" y="294.88"/>
      </g>
     </g>
    </g>
    <g id="xtick_9">
     <g id="line2d_17">
      <path clip-path="url(#p570d271e41)" d="M 214.433143 294.88 
L 214.433143 24.84 
" style="fill:none;stroke:#b0b0b0;stroke-linecap:square;stroke-width:0.8;"/>
     </g>
     <g id="line2d_18">
      <g>
       <use style="stroke:#000000;stroke-width:0.6;" x="214.433143" xlink:href="#m52520a6f8f" y="294.88"/>
      </g>
     </g>
    </g>
    <g id="xtick_10">
     <g id="line2d_19">
      <path clip-path="url(#p570d271e41)" d="M 254.011429 294.88 
L 254.011429 24.84 
" style="fill:none;stroke:#b0b0b0;stroke-linecap:square;stroke-width:0.8;"/>
     </g>
     <g id="line2d_20">
      <g>
       <use style="stroke:#000000;stroke-width:0.6;" x="254.011429" xlink:href="#m52520a6f8f" y="294.88"/>
      </g>
     </g>
    </g>
    <g id="xtick_11">
     <g id="line2d_21">
      <path clip-path="url(#p570d271e41)" d="M 293.589714 294.88 
L 293.589714 24.84 
" style="fill:none;stroke:#b0b0b0;stroke-linecap:square;stroke-width:0.8;"/>
     </g>
     <g id="line2d_22">
      <g>
       <use style="stroke:#000000;stroke-width:0.6;" x="293.589714" xlink:href="#m52520a6f8f" y="294.88"/>
      </g>
     </g>
    </g>
    <g id="xtick_12">
     <g id="line2d_23">
      <path clip-path="url(#p570d271e41)" d="M 333.168 294.88 
L 333.168 24.84 
" style="fill:none;stroke:#b0b0b0;stroke-linecap:square;stroke-width:0.8;"/>
     </g>
     <g id="line2d_24">
      <g>
       <use style="stroke:#000000;stroke-width:0.6;" x="333.168" xlink:href="#m52520a6f8f" y="294.88"/>
      </g>
     </g>
    </g>
    <g id="text_5">
     <!-- log10(# f-evals / dimension) -->
     <defs>
      <path d="M 9.421875 75.984375 
L 18.40625 75.984375 
L 18.40625 0 
L 9.421875 0 
z
" id="DejaVuSans-6c"/>
      <path d="M 30.609375 48.390625 
Q 23.390625 48.390625 19.1875 42.75 
Q 14.984375 37.109375 14.984375 27.296875 
Q 14.984375 17.484375 19.15625 11.84375 
Q 23.34375 6.203125 30.609375 6.203125 
Q 37.796875 6.203125 41.984375 11.859375 
Q 46.1875 17.53125 46.1875 27.296875 
Q 46.1875 37.015625 41.984375 42.703125 
Q 37.796875 48.390625 30.609375 48.390625 
z
M 30.609375 56 
Q 42.328125 56 49.015625 48.375 
Q 55.71875 40.765625 55.71875 27.296875 
Q 55.71875 13.875 49.015625 6.21875 
Q 42.328125 -1.421875 30.609375 -1.421875 
Q 18.84375 -1.421875 12.171875 6.21875 
Q 5.515625 13.875 5.515625 27.296875 
Q 5.515625 40.765625 12.171875 48.375 
Q 18.84375 56 30.609375 56 
z
" id="DejaVuSans-6f"/>
      <path d="M 45.40625 27.984375 
Q 45.40625 37.75 41.375 43.109375 
Q 37.359375 48.484375 30.078125 48.484375 
Q 22.859375 48.484375 18.828125 43.109375 
Q 14.796875 37.75 14.796875 27.984375 
Q 14.796875 18.265625 18.828125 12.890625 
Q 22.859375 7.515625 30.078125 7.515625 
Q 37.359375 7.515625 41.375 12.890625 
Q 45.40625 18.265625 45.40625 27.984375 
z
M 54.390625 6.78125 
Q 54.390625 -7.171875 48.1875 -13.984375 
Q 42 -20.796875 29.203125 -20.796875 
Q 24.46875 -20.796875 20.265625 -20.09375 
Q 16.0625 -19.390625 12.109375 -17.921875 
L 12.109375 -9.1875 
Q 16.0625 -11.328125 19.921875 -12.34375 
Q 23.78125 -13.375 27.78125 -13.375 
Q 36.625 -13.375 41.015625 -8.765625 
Q 45.40625 -4.15625 45.40625 5.171875 
L 45.40625 9.625 
Q 42.625 4.78125 38.28125 2.390625 
Q 33.9375 0 27.875 0 
Q 17.828125 0 11.671875 7.65625 
Q 5.515625 15.328125 5.515625 27.984375 
Q 5.515625 40.671875 11.671875 48.328125 
Q 17.828125 56 27.875 56 
Q 33.9375 56 38.28125 53.609375 
Q 42.625 51.21875 45.40625 46.390625 
L 45.40625 54.6875 
L 54.390625 54.6875 
z
" id="DejaVuSans-67"/>
      <path d="M 12.40625 8.296875 
L 28.515625 8.296875 
L 28.515625 63.921875 
L 10.984375 60.40625 
L 10.984375 69.390625 
L 28.421875 72.90625 
L 38.28125 72.90625 
L 38.28125 8.296875 
L 54.390625 8.296875 
L 54.390625 0 
L 12.40625 0 
z
" id="DejaVuSans-31"/>
      <path d="M 31 75.875 
Q 24.46875 64.65625 21.28125 53.65625 
Q 18.109375 42.671875 18.109375 31.390625 
Q 18.109375 20.125 21.3125 9.0625 
Q 24.515625 -2 31 -13.1875 
L 23.1875 -13.1875 
Q 15.875 -1.703125 12.234375 9.375 
Q 8.59375 20.453125 8.59375 31.390625 
Q 8.59375 42.28125 12.203125 53.3125 
Q 15.828125 64.359375 23.1875 75.875 
z
" id="DejaVuSans-28"/>
      <path d="M 51.125 44 
L 36.921875 44 
L 32.8125 27.6875 
L 47.125 27.6875 
z
M 43.796875 71.78125 
L 38.71875 51.515625 
L 52.984375 51.515625 
L 58.109375 71.78125 
L 65.921875 71.78125 
L 60.890625 51.515625 
L 76.125 51.515625 
L 76.125 44 
L 58.984375 44 
L 54.984375 27.6875 
L 70.515625 27.6875 
L 70.515625 20.21875 
L 53.078125 20.21875 
L 48 0 
L 40.1875 0 
L 45.21875 20.21875 
L 30.90625 20.21875 
L 25.875 0 
L 18.015625 0 
L 23.09375 20.21875 
L 7.71875 20.21875 
L 7.71875 27.6875 
L 24.90625 27.6875 
L 29 44 
L 13.28125 44 
L 13.28125 51.515625 
L 30.90625 51.515625 
L 35.890625 71.78125 
z
" id="DejaVuSans-23"/>
      <path id="DejaVuSans-20"/>
      <path d="M 37.109375 75.984375 
L 37.109375 68.5 
L 28.515625 68.5 
Q 23.6875 68.5 21.796875 66.546875 
Q 19.921875 64.59375 19.921875 59.515625 
L 19.921875 54.6875 
L 34.71875 54.6875 
L 34.71875 47.703125 
L 19.921875 47.703125 
L 19.921875 0 
L 10.890625 0 
L 10.890625 47.703125 
L 2.296875 47.703125 
L 2.296875 54.6875 
L 10.890625 54.6875 
L 10.890625 58.5 
Q 10.890625 67.625 15.140625 71.796875 
Q 19.390625 75.984375 28.609375 75.984375 
z
" id="DejaVuSans-66"/>
      <path d="M 4.890625 31.390625 
L 31.203125 31.390625 
L 31.203125 23.390625 
L 4.890625 23.390625 
z
" id="DejaVuSans-2d"/>
      <path d="M 56.203125 29.59375 
L 56.203125 25.203125 
L 14.890625 25.203125 
Q 15.484375 15.921875 20.484375 11.0625 
Q 25.484375 6.203125 34.421875 6.203125 
Q 39.59375 6.203125 44.453125 7.46875 
Q 49.3125 8.734375 54.109375 11.28125 
L 54.109375 2.78125 
Q 49.265625 0.734375 44.1875 -0.34375 
Q 39.109375 -1.421875 33.890625 -1.421875 
Q 20.796875 -1.421875 13.15625 6.1875 
Q 5.515625 13.8125 5.515625 26.8125 
Q 5.515625 40.234375 12.765625 48.109375 
Q 20.015625 56 32.328125 56 
Q 43.359375 56 49.78125 48.890625 
Q 56.203125 41.796875 56.203125 29.59375 
z
M 47.21875 32.234375 
Q 47.125 39.59375 43.09375 43.984375 
Q 39.0625 48.390625 32.421875 48.390625 
Q 24.90625 48.390625 20.390625 44.140625 
Q 15.875 39.890625 15.1875 32.171875 
z
" id="DejaVuSans-65"/>
      <path d="M 2.984375 54.6875 
L 12.5 54.6875 
L 29.59375 8.796875 
L 46.6875 54.6875 
L 56.203125 54.6875 
L 35.6875 0 
L 23.484375 0 
z
" id="DejaVuSans-76"/>
      <path d="M 34.28125 27.484375 
Q 23.390625 27.484375 19.1875 25 
Q 14.984375 22.515625 14.984375 16.5 
Q 14.984375 11.71875 18.140625 8.90625 
Q 21.296875 6.109375 26.703125 6.109375 
Q 34.1875 6.109375 38.703125 11.40625 
Q 43.21875 16.703125 43.21875 25.484375 
L 43.21875 27.484375 
z
M 52.203125 31.203125 
L 52.203125 0 
L 43.21875 0 
L 43.21875 8.296875 
Q 40.140625 3.328125 35.546875 0.953125 
Q 30.953125 -1.421875 24.3125 -1.421875 
Q 15.921875 -1.421875 10.953125 3.296875 
Q 6 8.015625 6 15.921875 
Q 6 25.140625 12.171875 29.828125 
Q 18.359375 34.515625 30.609375 34.515625 
L 43.21875 34.515625 
L 43.21875 35.40625 
Q 43.21875 41.609375 39.140625 45 
Q 35.0625 48.390625 27.6875 48.390625 
Q 23 48.390625 18.546875 47.265625 
Q 14.109375 46.140625 10.015625 43.890625 
L 10.015625 52.203125 
Q 14.9375 54.109375 19.578125 55.046875 
Q 24.21875 56 28.609375 56 
Q 40.484375 56 46.34375 49.84375 
Q 52.203125 43.703125 52.203125 31.203125 
z
" id="DejaVuSans-61"/>
      <path d="M 44.28125 53.078125 
L 44.28125 44.578125 
Q 40.484375 46.53125 36.375 47.5 
Q 32.28125 48.484375 27.875 48.484375 
Q 21.1875 48.484375 17.84375 46.4375 
Q 14.5 44.390625 14.5 40.28125 
Q 14.5 37.15625 16.890625 35.375 
Q 19.28125 33.59375 26.515625 31.984375 
L 29.59375 31.296875 
Q 39.15625 29.25 43.1875 25.515625 
Q 47.21875 21.78125 47.21875 15.09375 
Q 47.21875 7.46875 41.1875 3.015625 
Q 35.15625 -1.421875 24.609375 -1.421875 
Q 20.21875 -1.421875 15.453125 -0.5625 
Q 10.6875 0.296875 5.421875 2 
L 5.421875 11.28125 
Q 10.40625 8.6875 15.234375 7.390625 
Q 20.0625 6.109375 24.8125 6.109375 
Q 31.15625 6.109375 34.5625 8.28125 
Q 37.984375 10.453125 37.984375 14.40625 
Q 37.984375 18.0625 35.515625 20.015625 
Q 33.0625 21.96875 24.703125 23.78125 
L 21.578125 24.515625 
Q 13.234375 26.265625 9.515625 29.90625 
Q 5.8125 33.546875 5.8125 39.890625 
Q 5.8125 47.609375 11.28125 51.796875 
Q 16.75 56 26.8125 56 
Q 31.78125 56 36.171875 55.265625 
Q 40.578125 54.546875 44.28125 53.078125 
z
" id="DejaVuSans-73"/>
      <path d="M 25.390625 72.90625 
L 33.6875 72.90625 
L 8.296875 -9.28125 
L 0 -9.28125 
z
" id="DejaVuSans-2f"/>
      <path d="M 45.40625 46.390625 
L 45.40625 75.984375 
L 54.390625 75.984375 
L 54.390625 0 
L 45.40625 0 
L 45.40625 8.203125 
Q 42.578125 3.328125 38.25 0.953125 
Q 33.9375 -1.421875 27.875 -1.421875 
Q 17.96875 -1.421875 11.734375 6.484375 
Q 5.515625 14.40625 5.515625 27.296875 
Q 5.515625 40.1875 11.734375 48.09375 
Q 17.96875 56 27.875 56 
Q 33.9375 56 38.25 53.625 
Q 42.578125 51.265625 45.40625 46.390625 
z
M 14.796875 27.296875 
Q 14.796875 17.390625 18.875 11.75 
Q 22.953125 6.109375 30.078125 6.109375 
Q 37.203125 6.109375 41.296875 11.75 
Q 45.40625 17.390625 45.40625 27.296875 
Q 45.40625 37.203125 41.296875 42.84375 
Q 37.203125 48.484375 30.078125 48.484375 
Q 22.953125 48.484375 18.875 42.84375 
Q 14.796875 37.203125 14.796875 27.296875 
z
" id="DejaVuSans-64"/>
      <path d="M 9.421875 54.6875 
L 18.40625 54.6875 
L 18.40625 0 
L 9.421875 0 
z
M 9.421875 75.984375 
L 18.40625 75.984375 
L 18.40625 64.59375 
L 9.421875 64.59375 
z
" id="DejaVuSans-69"/>
      <path d="M 52 44.1875 
Q 55.375 50.25 60.0625 53.125 
Q 64.75 56 71.09375 56 
Q 79.640625 56 84.28125 50.015625 
Q 88.921875 44.046875 88.921875 33.015625 
L 88.921875 0 
L 79.890625 0 
L 79.890625 32.71875 
Q 79.890625 40.578125 77.09375 44.375 
Q 74.3125 48.1875 68.609375 48.1875 
Q 61.625 48.1875 57.5625 43.546875 
Q 53.515625 38.921875 53.515625 30.90625 
L 53.515625 0 
L 44.484375 0 
L 44.484375 32.71875 
Q 44.484375 40.625 41.703125 44.40625 
Q 38.921875 48.1875 33.109375 48.1875 
Q 26.21875 48.1875 22.15625 43.53125 
Q 18.109375 38.875 18.109375 30.90625 
L 18.109375 0 
L 9.078125 0 
L 9.078125 54.6875 
L 18.109375 54.6875 
L 18.109375 46.1875 
Q 21.1875 51.21875 25.484375 53.609375 
Q 29.78125 56 35.6875 56 
Q 41.65625 56 45.828125 52.96875 
Q 50 49.953125 52 44.1875 
z
" id="DejaVuSans-6d"/>
      <path d="M 54.890625 33.015625 
L 54.890625 0 
L 45.90625 0 
L 45.90625 32.71875 
Q 45.90625 40.484375 42.875 44.328125 
Q 39.84375 48.1875 33.796875 48.1875 
Q 26.515625 48.1875 22.3125 43.546875 
Q 18.109375 38.921875 18.109375 30.90625 
L 18.109375 0 
L 9.078125 0 
L 9.078125 54.6875 
L 18.109375 54.6875 
L 18.109375 46.1875 
Q 21.34375 51.125 25.703125 53.5625 
Q 30.078125 56 35.796875 56 
Q 45.21875 56 50.046875 50.171875 
Q 54.890625 44.34375 54.890625 33.015625 
z
" id="DejaVuSans-6e"/>
      <path d="M 8.015625 75.875 
L 15.828125 75.875 
Q 23.140625 64.359375 26.78125 53.3125 
Q 30.421875 42.28125 30.421875 31.390625 
Q 30.421875 20.453125 26.78125 9.375 
Q 23.140625 -1.703125 15.828125 -13.1875 
L 8.015625 -13.1875 
Q 14.5 -2 17.703125 9.0625 
Q 20.90625 20.125 20.90625 31.390625 
Q 20.90625 42.671875 17.703125 53.65625 
Q 14.5 64.65625 8.015625 75.875 
z
" id="DejaVuSans-29"/>
     </defs>
     <g transform="translate(73.803219 338.153594)scale(0.17 -0.17)">
      <use xlink:href="#DejaVuSans-6c"/>
      <use x="27.783203" xlink:href="#DejaVuSans-6f"/>
      <use x="88.964844" xlink:href="#DejaVuSans-67"/>
      <use x="152.441406" xlink:href="#DejaVuSans-31"/>
      <use x="216.064453" xlink:href="#DejaVuSans-30"/>
      <use x="279.6875" xlink:href="#DejaVuSans-28"/>
      <use x="318.701172" xlink:href="#DejaVuSans-23"/>
      <use x="402.490234" xlink:href="#DejaVuSans-20"/>
      <use x="434.277344" xlink:href="#DejaVuSans-66"/>
      <use x="469.404297" xlink:href="#DejaVuSans-2d"/>
      <use x="505.488281" xlink:href="#DejaVuSans-65"/>
      <use x="567.011719" xlink:href="#DejaVuSans-76"/>
      <use x="626.191406" xlink:href="#DejaVuSans-61"/>
      <use x="687.470703" xlink:href="#DejaVuSans-6c"/>
      <use x="715.253906" xlink:href="#DejaVuSans-73"/>
      <use x="767.353516" xlink:href="#DejaVuSans-20"/>
      <use x="799.140625" xlink:href="#DejaVuSans-2f"/>
      <use x="832.832031" xlink:href="#DejaVuSans-20"/>
      <use x="864.619141" xlink:href="#DejaVuSans-64"/>
      <use x="928.095703" xlink:href="#DejaVuSans-69"/>
      <use x="955.878906" xlink:href="#DejaVuSans-6d"/>
      <use x="1053.291016" xlink:href="#DejaVuSans-65"/>
      <use x="1114.814453" xlink:href="#DejaVuSans-6e"/>
      <use x="1178.193359" xlink:href="#DejaVuSans-73"/>
      <use x="1230.292969" xlink:href="#DejaVuSans-69"/>
      <use x="1258.076172" xlink:href="#DejaVuSans-6f"/>
      <use x="1319.257812" xlink:href="#DejaVuSans-6e"/>
      <use x="1382.636719" xlink:href="#DejaVuSans-29"/>
     </g>
    </g>
   </g>
   <g id="matplotlib.axis_2">
    <g id="ytick_1">
     <g id="line2d_25">
      <path clip-path="url(#p570d271e41)" d="M 56.12 294.88 
L 333.168 294.88 
" style="fill:none;stroke:#b0b0b0;stroke-linecap:square;stroke-width:0.8;"/>
     </g>
     <g id="line2d_26">
      <defs>
       <path d="M 0 0 
L -3.5 0 
" id="md13e22ace5" style="stroke:#000000;stroke-width:0.8;"/>
      </defs>
      <g>
       <use style="stroke:#000000;stroke-width:0.8;" x="56.12" xlink:href="#md13e22ace5" y="294.88"/>
      </g>
     </g>
     <g id="text_6">
      <!-- 0.0 -->
      <defs>
       <path d="M 10.6875 12.40625 
L 21 12.40625 
L 21 0 
L 10.6875 0 
z
" id="DejaVuSans-2e"/>
      </defs>
      <g transform="translate(23.675 300.95875)scale(0.16 -0.16)">
       <use xlink:href="#DejaVuSans-30"/>
       <use x="63.623047" xlink:href="#DejaVuSans-2e"/>
       <use x="95.410156" xlink:href="#DejaVuSans-30"/>
      </g>
     </g>
    </g>
    <g id="ytick_2">
     <g id="line2d_27">
      <path clip-path="url(#p570d271e41)" d="M 56.12 241.406733 
L 333.168 241.406733 
" style="fill:none;stroke:#b0b0b0;stroke-linecap:square;stroke-width:0.8;"/>
     </g>
     <g id="line2d_28">
      <g>
       <use style="stroke:#000000;stroke-width:0.8;" x="56.12" xlink:href="#md13e22ace5" y="241.406733"/>
      </g>
     </g>
     <g id="text_7">
      <!-- 0.2 -->
      <g transform="translate(23.675 247.485483)scale(0.16 -0.16)">
       <use xlink:href="#DejaVuSans-30"/>
       <use x="63.623047" xlink:href="#DejaVuSans-2e"/>
       <use x="95.410156" xlink:href="#DejaVuSans-32"/>
      </g>
     </g>
    </g>
    <g id="ytick_3">
     <g id="line2d_29">
      <path clip-path="url(#p570d271e41)" d="M 56.12 187.933465 
L 333.168 187.933465 
" style="fill:none;stroke:#b0b0b0;stroke-linecap:square;stroke-width:0.8;"/>
     </g>
     <g id="line2d_30">
      <g>
       <use style="stroke:#000000;stroke-width:0.8;" x="56.12" xlink:href="#md13e22ace5" y="187.933465"/>
      </g>
     </g>
     <g id="text_8">
      <!-- 0.4 -->
      <g transform="translate(23.675 194.012215)scale(0.16 -0.16)">
       <use xlink:href="#DejaVuSans-30"/>
       <use x="63.623047" xlink:href="#DejaVuSans-2e"/>
       <use x="95.410156" xlink:href="#DejaVuSans-34"/>
      </g>
     </g>
    </g>
    <g id="ytick_4">
     <g id="line2d_31">
      <path clip-path="url(#p570d271e41)" d="M 56.12 134.460198 
L 333.168 134.460198 
" style="fill:none;stroke:#b0b0b0;stroke-linecap:square;stroke-width:0.8;"/>
     </g>
     <g id="line2d_32">
      <g>
       <use style="stroke:#000000;stroke-width:0.8;" x="56.12" xlink:href="#md13e22ace5" y="134.460198"/>
      </g>
     </g>
     <g id="text_9">
      <!-- 0.6 -->
      <g transform="translate(23.675 140.538948)scale(0.16 -0.16)">
       <use xlink:href="#DejaVuSans-30"/>
       <use x="63.623047" xlink:href="#DejaVuSans-2e"/>
       <use x="95.410156" xlink:href="#DejaVuSans-36"/>
      </g>
     </g>
    </g>
    <g id="ytick_5">
     <g id="line2d_33">
      <path clip-path="url(#p570d271e41)" d="M 56.12 80.986931 
L 333.168 80.986931 
" style="fill:none;stroke:#b0b0b0;stroke-linecap:square;stroke-width:0.8;"/>
     </g>
     <g id="line2d_34">
      <g>
       <use style="stroke:#000000;stroke-width:0.8;" x="56.12" xlink:href="#md13e22ace5" y="80.986931"/>
      </g>
     </g>
     <g id="text_10">
      <!-- 0.8 -->
      <defs>
       <path d="M 31.78125 34.625 
Q 24.75 34.625 20.71875 30.859375 
Q 16.703125 27.09375 16.703125 20.515625 
Q 16.703125 13.921875 20.71875 10.15625 
Q 24.75 6.390625 31.78125 6.390625 
Q 38.8125 6.390625 42.859375 10.171875 
Q 46.921875 13.96875 46.921875 20.515625 
Q 46.921875 27.09375 42.890625 30.859375 
Q 38.875 34.625 31.78125 34.625 
z
M 21.921875 38.8125 
Q 15.578125 40.375 12.03125 44.71875 
Q 8.5 49.078125 8.5 55.328125 
Q 8.5 64.0625 14.71875 69.140625 
Q 20.953125 74.21875 31.78125 74.21875 
Q 42.671875 74.21875 48.875 69.140625 
Q 55.078125 64.0625 55.078125 55.328125 
Q 55.078125 49.078125 51.53125 44.71875 
Q 48 40.375 41.703125 38.8125 
Q 48.828125 37.15625 52.796875 32.3125 
Q 56.78125 27.484375 56.78125 20.515625 
Q 56.78125 9.90625 50.3125 4.234375 
Q 43.84375 -1.421875 31.78125 -1.421875 
Q 19.734375 -1.421875 13.25 4.234375 
Q 6.78125 9.90625 6.78125 20.515625 
Q 6.78125 27.484375 10.78125 32.3125 
Q 14.796875 37.15625 21.921875 38.8125 
z
M 18.3125 54.390625 
Q 18.3125 48.734375 21.84375 45.5625 
Q 25.390625 42.390625 31.78125 42.390625 
Q 38.140625 42.390625 41.71875 45.5625 
Q 45.3125 48.734375 45.3125 54.390625 
Q 45.3125 60.0625 41.71875 63.234375 
Q 38.140625 66.40625 31.78125 66.40625 
Q 25.390625 66.40625 21.84375 63.234375 
Q 18.3125 60.0625 18.3125 54.390625 
z
" id="DejaVuSans-38"/>
      </defs>
      <g transform="translate(23.675 87.065681)scale(0.16 -0.16)">
       <use xlink:href="#DejaVuSans-30"/>
       <use x="63.623047" xlink:href="#DejaVuSans-2e"/>
       <use x="95.410156" xlink:href="#DejaVuSans-38"/>
      </g>
     </g>
    </g>
    <g id="ytick_6">
     <g id="line2d_35">
      <path clip-path="url(#p570d271e41)" d="M 56.12 27.513663 
L 333.168 27.513663 
" style="fill:none;stroke:#b0b0b0;stroke-linecap:square;stroke-width:0.8;"/>
     </g>
     <g id="line2d_36">
      <g>
       <use style="stroke:#000000;stroke-width:0.8;" x="56.12" xlink:href="#md13e22ace5" y="27.513663"/>
      </g>
     </g>
     <g id="text_11">
      <!-- 1.0 -->
      <g transform="translate(23.675 33.592413)scale(0.16 -0.16)">
       <use xlink:href="#DejaVuSans-31"/>
       <use x="63.623047" xlink:href="#DejaVuSans-2e"/>
       <use x="95.410156" xlink:href="#DejaVuSans-30"/>
      </g>
     </g>
    </g>
    <g id="text_12">
     <!-- Fraction of function,target pairs -->
     <defs>
      <path d="M 9.8125 72.90625 
L 51.703125 72.90625 
L 51.703125 64.59375 
L 19.671875 64.59375 
L 19.671875 43.109375 
L 48.578125 43.109375 
L 48.578125 34.8125 
L 19.671875 34.8125 
L 19.671875 0 
L 9.8125 0 
z
" id="DejaVuSans-46"/>
      <path d="M 41.109375 46.296875 
Q 39.59375 47.171875 37.8125 47.578125 
Q 36.03125 48 33.890625 48 
Q 26.265625 48 22.1875 43.046875 
Q 18.109375 38.09375 18.109375 28.8125 
L 18.109375 0 
L 9.078125 0 
L 9.078125 54.6875 
L 18.109375 54.6875 
L 18.109375 46.1875 
Q 20.953125 51.171875 25.484375 53.578125 
Q 30.03125 56 36.53125 56 
Q 37.453125 56 38.578125 55.875 
Q 39.703125 55.765625 41.0625 55.515625 
z
" id="DejaVuSans-72"/>
      <path d="M 48.78125 52.59375 
L 48.78125 44.1875 
Q 44.96875 46.296875 41.140625 47.34375 
Q 37.3125 48.390625 33.40625 48.390625 
Q 24.65625 48.390625 19.8125 42.84375 
Q 14.984375 37.3125 14.984375 27.296875 
Q 14.984375 17.28125 19.8125 11.734375 
Q 24.65625 6.203125 33.40625 6.203125 
Q 37.3125 6.203125 41.140625 7.25 
Q 44.96875 8.296875 48.78125 10.40625 
L 48.78125 2.09375 
Q 45.015625 0.34375 40.984375 -0.53125 
Q 36.96875 -1.421875 32.421875 -1.421875 
Q 20.0625 -1.421875 12.78125 6.34375 
Q 5.515625 14.109375 5.515625 27.296875 
Q 5.515625 40.671875 12.859375 48.328125 
Q 20.21875 56 33.015625 56 
Q 37.15625 56 41.109375 55.140625 
Q 45.0625 54.296875 48.78125 52.59375 
z
" id="DejaVuSans-63"/>
      <path d="M 18.3125 70.21875 
L 18.3125 54.6875 
L 36.8125 54.6875 
L 36.8125 47.703125 
L 18.3125 47.703125 
L 18.3125 18.015625 
Q 18.3125 11.328125 20.140625 9.421875 
Q 21.96875 7.515625 27.59375 7.515625 
L 36.8125 7.515625 
L 36.8125 0 
L 27.59375 0 
Q 17.1875 0 13.234375 3.875 
Q 9.28125 7.765625 9.28125 18.015625 
L 9.28125 47.703125 
L 2.6875 47.703125 
L 2.6875 54.6875 
L 9.28125 54.6875 
L 9.28125 70.21875 
z
" id="DejaVuSans-74"/>
      <path d="M 8.5 21.578125 
L 8.5 54.6875 
L 17.484375 54.6875 
L 17.484375 21.921875 
Q 17.484375 14.15625 20.5 10.265625 
Q 23.53125 6.390625 29.59375 6.390625 
Q 36.859375 6.390625 41.078125 11.03125 
Q 45.3125 15.671875 45.3125 23.6875 
L 45.3125 54.6875 
L 54.296875 54.6875 
L 54.296875 0 
L 45.3125 0 
L 45.3125 8.40625 
Q 42.046875 3.421875 37.71875 1 
Q 33.40625 -1.421875 27.6875 -1.421875 
Q 18.265625 -1.421875 13.375 4.4375 
Q 8.5 10.296875 8.5 21.578125 
z
M 31.109375 56 
z
" id="DejaVuSans-75"/>
      <path d="M 11.71875 12.40625 
L 22.015625 12.40625 
L 22.015625 4 
L 14.015625 -11.625 
L 7.71875 -11.625 
L 11.71875 4 
z
" id="DejaVuSans-2c"/>
      <path d="M 18.109375 8.203125 
L 18.109375 -20.796875 
L 9.078125 -20.796875 
L 9.078125 54.6875 
L 18.109375 54.6875 
L 18.109375 46.390625 
Q 20.953125 51.265625 25.265625 53.625 
Q 29.59375 56 35.59375 56 
Q 45.5625 56 51.78125 48.09375 
Q 58.015625 40.1875 58.015625 27.296875 
Q 58.015625 14.40625 51.78125 6.484375 
Q 45.5625 -1.421875 35.59375 -1.421875 
Q 29.59375 -1.421875 25.265625 0.953125 
Q 20.953125 3.328125 18.109375 8.203125 
z
M 48.6875 27.296875 
Q 48.6875 37.203125 44.609375 42.84375 
Q 40.53125 48.484375 33.40625 48.484375 
Q 26.265625 48.484375 22.1875 42.84375 
Q 18.109375 37.203125 18.109375 27.296875 
Q 18.109375 17.390625 22.1875 11.75 
Q 26.265625 6.109375 33.40625 6.109375 
Q 40.53125 6.109375 44.609375 11.75 
Q 48.6875 17.390625 48.6875 27.296875 
z
" id="DejaVuSans-70"/>
     </defs>
     <g transform="translate(16.139531 294.999375)rotate(-90)scale(0.17 -0.17)">
      <use xlink:href="#DejaVuSans-46"/>
      <use x="57.410156" xlink:href="#DejaVuSans-72"/>
      <use x="98.523438" xlink:href="#DejaVuSans-61"/>
      <use x="159.802734" xlink:href="#DejaVuSans-63"/>
      <use x="214.783203" xlink:href="#DejaVuSans-74"/>
      <use x="253.992188" xlink:href="#DejaVuSans-69"/>
      <use x="281.775391" xlink:href="#DejaVuSans-6f"/>
      <use x="342.957031" xlink:href="#DejaVuSans-6e"/>
      <use x="406.335938" xlink:href="#DejaVuSans-20"/>
      <use x="438.123047" xlink:href="#DejaVuSans-6f"/>
      <use x="499.304688" xlink:href="#DejaVuSans-66"/>
      <use x="534.509766" xlink:href="#DejaVuSans-20"/>
      <use x="566.296875" xlink:href="#DejaVuSans-66"/>
      <use x="601.501953" xlink:href="#DejaVuSans-75"/>
      <use x="664.880859" xlink:href="#DejaVuSans-6e"/>
      <use x="728.259766" xlink:href="#DejaVuSans-63"/>
      <use x="783.240234" xlink:href="#DejaVuSans-74"/>
      <use x="822.449219" xlink:href="#DejaVuSans-69"/>
      <use x="850.232422" xlink:href="#DejaVuSans-6f"/>
      <use x="911.414062" xlink:href="#DejaVuSans-6e"/>
      <use x="974.792969" xlink:href="#DejaVuSans-2c"/>
      <use x="1006.580078" xlink:href="#DejaVuSans-74"/>
      <use x="1045.789062" xlink:href="#DejaVuSans-61"/>
      <use x="1107.068359" xlink:href="#DejaVuSans-72"/>
      <use x="1148.166016" xlink:href="#DejaVuSans-67"/>
      <use x="1211.642578" xlink:href="#DejaVuSans-65"/>
      <use x="1273.166016" xlink:href="#DejaVuSans-74"/>
      <use x="1312.375" xlink:href="#DejaVuSans-20"/>
      <use x="1344.162109" xlink:href="#DejaVuSans-70"/>
      <use x="1407.638672" xlink:href="#DejaVuSans-61"/>
      <use x="1468.917969" xlink:href="#DejaVuSans-69"/>
      <use x="1496.701172" xlink:href="#DejaVuSans-72"/>
      <use x="1537.814453" xlink:href="#DejaVuSans-73"/>
     </g>
    </g>
   </g>
   <g id="line2d_37">
    <defs>
     <path d="M 0 1.5 
C 0.397805 1.5 0.77937 1.341951 1.06066 1.06066 
C 1.341951 0.77937 1.5 0.397805 1.5 0 
C 1.5 -0.397805 1.341951 -0.77937 1.06066 -1.06066 
C 0.77937 -1.341951 0.397805 -1.5 0 -1.5 
C -0.397805 -1.5 -0.77937 -1.341951 -1.06066 -1.06066 
C -1.341951 -0.77937 -1.5 -0.397805 -1.5 0 
C -1.5 0.397805 -1.341951 0.77937 -1.06066 1.06066 
C -0.77937 1.341951 -0.397805 1.5 0 1.5 
z
" id="md2a3db82d8" style="stroke:#00bfbf;"/>
    </defs>
    <g>
     <use style="fill:#00bfbf;stroke:#00bfbf;" x="196.807778" xlink:href="#md2a3db82d8" y="27.513663"/>
     <use style="fill:#00bfbf;stroke:#00bfbf;" x="196.807778" xlink:href="#md2a3db82d8" y="27.513663"/>
    </g>
   </g>
   <g id="line2d_38">
    <path d="M 90.753425 294.88 
L 90.753425 294.355752 
L 93.887283 294.355752 
L 93.887283 293.831505 
L 106.730875 293.831505 
L 106.730875 288.589027 
L 109.637066 288.589027 
L 109.637066 287.016284 
L 119.310576 287.016284 
L 119.310576 284.395046 
L 124.52528 284.395046 
L 124.52528 282.822302 
L 129.268157 282.822302 
L 129.268157 282.298055 
L 129.630036 282.298055 
L 129.630036 281.773807 
L 130.895323 281.773807 
L 130.895323 280.725312 
L 133.079291 280.725312 
L 133.079291 280.201064 
L 139.720016 280.201064 
L 139.720016 279.676816 
L 150.180842 279.676816 
L 150.180842 278.628321 
L 153.218134 278.628321 
L 153.218134 277.579825 
L 153.666169 277.579825 
L 153.666169 275.482834 
L 155.509573 275.482834 
L 155.509573 274.958587 
L 157.625086 274.958587 
L 157.625086 273.910091 
L 159.487531 273.910091 
L 159.487531 273.385844 
L 161.858757 273.385844 
L 161.858757 272.861596 
L 162.185133 272.861596 
L 162.185133 272.337348 
L 162.54065 272.337348 
L 162.54065 271.8131 
L 162.663364 271.8131 
L 162.663364 270.764605 
L 163.145642 270.764605 
L 163.145642 270.240357 
L 163.877183 270.240357 
L 163.97457 267.619119 
L 164.279369 267.619119 
L 164.279369 266.570623 
L 165.476919 266.570623 
L 165.476919 264.99788 
L 165.741817 264.99788 
L 165.741817 260.803898 
L 165.988305 260.803898 
L 165.988305 260.279651 
L 166.344485 260.279651 
L 166.344485 259.755403 
L 166.651932 259.755403 
L 166.651932 259.231155 
L 169.076516 259.231155 
L 169.076516 258.706907 
L 169.690883 258.706907 
L 169.690883 258.18266 
L 170.058322 258.18266 
L 170.058322 257.658412 
L 170.418071 257.658412 
L 170.418071 256.085669 
L 170.628164 256.085669 
L 170.628164 255.561421 
L 171.030064 255.561421 
L 171.030064 253.46443 
L 171.847727 253.46443 
L 171.878412 250.843192 
L 172.222398 250.843192 
L 172.222398 250.318944 
L 172.371995 250.318944 
L 172.371995 249.270448 
L 172.598879 249.270448 
L 172.628253 246.124962 
L 173.195967 246.124962 
L 173.299769 245.076467 
L 174.045417 245.076467 
L 174.117336 242.455228 
L 174.224653 242.455228 
L 174.224653 241.93098 
L 175.085351 241.93098 
L 175.161501 238.261246 
L 175.840197 238.261246 
L 175.840197 237.212751 
L 176.073949 237.212751 
L 176.089954 235.640008 
L 176.367644 235.640008 
L 176.367644 233.543017 
L 176.609906 233.543017 
L 176.702776 231.446026 
L 176.749024 231.446026 
L 176.749024 230.921778 
L 176.879386 230.921778 
L 176.879386 230.397531 
L 177.309407 230.397531 
L 177.383753 228.30054 
L 177.509407 228.30054 
L 177.604879 227.252044 
L 178.038776 227.252044 
L 178.102926 224.106558 
L 178.279874 224.106558 
L 178.279874 222.009567 
L 178.427116 222.009567 
L 178.427116 219.388328 
L 178.573107 219.388328 
L 178.573107 217.815585 
L 178.793213 217.815585 
L 178.834171 216.242842 
L 178.915795 216.242842 
L 178.915795 215.718594 
L 179.06444 215.718594 
L 179.06444 215.194347 
L 179.238469 215.194347 
L 179.324828 212.573108 
L 179.469992 212.573108 
L 179.50937 211.000365 
L 179.872615 211.000365 
L 179.872615 209.427622 
L 180.076788 209.427622 
L 180.184277 207.330631 
L 180.278565 207.330631 
L 180.328641 203.660897 
L 180.403483 203.660897 
L 180.502767 197.894172 
L 180.711862 197.894172 
L 180.711862 197.369924 
L 181.277052 197.369924 
L 181.318406 191.078952 
L 181.406689 191.078952 
L 181.412559 189.506209 
L 181.657282 189.506209 
L 181.732329 187.933465 
L 181.927071 187.933465 
L 182.034944 185.312227 
L 182.040603 185.312227 
L 182.040603 183.739484 
L 182.231902 183.739484 
L 182.24868 182.16674 
L 182.536919 182.16674 
L 182.536919 181.642493 
L 182.809587 181.642493 
L 182.809587 179.545502 
L 183.194782 179.545502 
L 183.289747 178.497006 
L 183.347524 178.497006 
L 183.347524 176.924263 
L 183.685025 176.924263 
L 183.685025 176.400016 
L 183.807985 176.400016 
L 183.807985 175.35152 
L 184.005937 175.35152 
L 184.005937 174.827272 
L 184.424706 174.827272 
L 184.42963 173.254529 
L 184.746728 173.254529 
L 184.852741 166.439309 
L 185.12441 166.439309 
L 185.232826 163.81807 
L 185.251611 163.81807 
L 185.312523 161.196832 
L 185.368557 161.196832 
L 185.452268 153.857364 
L 185.489343 153.857364 
L 185.586284 149.139134 
L 185.901011 149.139134 
L 185.941641 147.566391 
L 186.16563 147.566391 
L 186.16563 146.517896 
L 186.2898 146.517896 
L 186.2898 145.4694 
L 186.408692 145.4694 
L 186.413079 143.372409 
L 186.596357 143.372409 
L 186.691585 139.178427 
L 186.820597 139.178427 
L 186.93163 133.93595 
L 186.97839 133.93595 
L 186.97839 133.411703 
L 187.247955 133.411703 
L 187.264663 129.217721 
L 187.397748 129.217721 
L 187.397748 127.644978 
L 187.509242 127.644978 
L 187.58727 126.072235 
L 187.677177 126.072235 
L 187.705686 121.354005 
L 187.851559 121.354005 
L 187.924034 119.781262 
L 188.080023 119.781262 
L 188.183234 116.111528 
L 188.277959 116.111528 
L 188.301559 115.063032 
L 188.473642 115.063032 
L 188.512513 110.869051 
L 188.597721 110.869051 
L 188.597721 108.77206 
L 188.805093 108.77206 
L 188.805093 108.247812 
L 188.994898 108.247812 
L 188.994898 107.199317 
L 189.279448 107.199317 
L 189.279448 106.675069 
L 189.419975 106.675069 
L 189.419975 106.150821 
L 189.588564 106.150821 
L 189.60679 103.005335 
L 189.806007 103.005335 
L 189.906547 99.859849 
L 190.130634 99.859849 
L 190.176512 97.23861 
L 190.351836 97.23861 
L 190.351836 96.190115 
L 190.680105 96.190115 
L 190.772269 92.520381 
L 190.813073 92.520381 
L 190.833439 90.947637 
L 190.931534 90.947637 
L 191.039131 88.850646 
L 191.065926 88.850646 
L 191.065926 87.802151 
L 191.265564 87.802151 
L 191.338187 84.132417 
L 191.397379 84.132417 
L 191.397379 83.083922 
L 191.573741 83.083922 
L 191.661248 80.462683 
L 191.7676 80.462683 
L 191.815725 76.268701 
L 191.981523 76.268701 
L 192.019558 74.695958 
L 192.10483 74.695958 
L 192.164584 72.074719 
L 192.252265 72.074719 
L 192.355033 69.977729 
L 192.481864 69.977729 
L 192.506503 68.929233 
L 192.616942 68.929233 
L 192.702352 65.783747 
L 192.826655 65.783747 
L 192.908025 63.162508 
L 192.938065 63.162508 
L 192.974043 59.492774 
L 193.051738 59.492774 
L 193.143919 55.82304 
L 193.170589 55.82304 
L 193.220852 54.774545 
L 193.32094 54.774545 
L 193.32094 53.726049 
L 193.635056 53.726049 
L 193.729902 47.435077 
L 193.778559 47.435077 
L 193.798554 45.862334 
L 194.070451 45.862334 
L 194.179692 44.28959 
L 194.349176 44.28959 
L 194.434671 40.095609 
L 194.566218 40.095609 
L 194.626175 37.998618 
L 194.758969 37.998618 
L 194.758969 37.47437 
L 195.196105 37.47437 
L 195.198736 36.425875 
L 195.472841 36.425875 
L 195.472841 34.853131 
L 195.67367 34.853131 
L 195.678788 33.804636 
L 196.207944 33.804636 
L 196.210425 31.183397 
L 196.454309 31.183397 
L 196.554307 29.610654 
L 196.807778 29.610654 
L 196.807778 27.513663 
L 333.168 27.513663 
L 333.168 27.513663 
" style="fill:none;stroke:#00bfbf;stroke-linecap:square;stroke-width:1.5;"/>
   </g>
   <g id="line2d_39">
    <defs>
     <path d="M -6 0 
L 6 0 
M 0 6 
L 0 -6 
" id="m5582000176" style="stroke:#00bfbf;stroke-width:1.5;"/>
    </defs>
    <g>
     <use style="fill-opacity:0;stroke:#00bfbf;stroke-width:1.5;" x="159.487531" xlink:href="#m5582000176" y="273.910091"/>
     <use style="fill-opacity:0;stroke:#00bfbf;stroke-width:1.5;" x="189.60679" xlink:href="#m5582000176" y="103.005335"/>
     <use style="fill-opacity:0;stroke:#00bfbf;stroke-width:1.5;" x="196.807778" xlink:href="#m5582000176" y="29.610654"/>
     <use style="fill-opacity:0;stroke:#00bfbf;stroke-width:1.5;" x="196.807778" xlink:href="#m5582000176" y="27.513663"/>
     <use style="fill-opacity:0;stroke:#00bfbf;stroke-width:1.5;" x="333.168" xlink:href="#m5582000176" y="27.513663"/>
    </g>
   </g>
   <g id="line2d_40">
    <path style="fill:none;stroke:#00bfbf;stroke-linecap:square;stroke-width:1.5;"/>
    <g/>
   </g>
   <g id="line2d_41">
    <defs>
     <path d="M 0 1.5 
C 0.397805 1.5 0.77937 1.341951 1.06066 1.06066 
C 1.341951 0.77937 1.5 0.397805 1.5 0 
C 1.5 -0.397805 1.341951 -0.77937 1.06066 -1.06066 
C 0.77937 -1.341951 0.397805 -1.5 0 -1.5 
C -0.397805 -1.5 -0.77937 -1.341951 -1.06066 -1.06066 
C -1.341951 -0.77937 -1.5 -0.397805 -1.5 0 
C -1.5 0.397805 -1.341951 0.77937 -1.06066 1.06066 
C -0.77937 1.341951 -0.397805 1.5 0 1.5 
z
" id="m785590d912" style="stroke:#008000;"/>
    </defs>
    <g>
     <use style="fill:#008000;stroke:#008000;" x="194.337191" xlink:href="#m785590d912" y="27.513663"/>
     <use style="fill:#008000;stroke:#008000;" x="194.337191" xlink:href="#m785590d912" y="27.513663"/>
    </g>
   </g>
   <g id="line2d_42">
    <path d="M 111.448069 294.88 
L 111.448069 292.783009 
L 131.07916 292.783009 
L 131.07916 292.258761 
L 137.678888 292.258761 
L 137.678888 291.210266 
L 143.533413 291.210266 
L 143.533413 290.686018 
L 154.68682 290.686018 
L 154.68682 289.637523 
L 155.763705 289.637523 
L 155.763705 289.113275 
L 156.125221 289.113275 
L 156.227131 287.540532 
L 157.934521 287.540532 
L 157.934521 285.967789 
L 158.358579 285.967789 
L 158.358579 285.443541 
L 158.787024 285.443541 
L 158.787024 284.919293 
L 159.710221 284.919293 
L 159.751656 281.773807 
L 159.889056 281.773807 
L 159.889056 280.725312 
L 160.924669 280.725312 
L 160.924669 279.676816 
L 161.50739 279.676816 
L 161.50739 279.152568 
L 162.274704 279.152568 
L 162.274704 278.628321 
L 162.49955 278.628321 
L 162.49955 278.104073 
L 162.825631 278.104073 
L 162.906194 271.8131 
L 163.97457 271.8131 
L 163.996136 270.240357 
L 164.14635 270.240357 
L 164.14635 269.716109 
L 166.103088 269.716109 
L 166.103088 269.191862 
L 167.695344 269.191862 
L 167.695344 268.667614 
L 168.410222 268.667614 
L 168.410222 268.143366 
L 169.578323 268.143366 
L 169.578323 267.619119 
L 169.955771 267.619119 
L 169.955771 266.570623 
L 170.347466 266.570623 
L 170.362355 265.522128 
L 170.918764 265.522128 
L 170.983478 263.425137 
L 171.090795 263.425137 
L 171.090795 262.376641 
L 171.720999 262.376641 
L 171.720999 260.803898 
L 172.82603 260.803898 
L 172.82603 260.279651 
L 174.624134 260.279651 
L 174.624134 259.231155 
L 174.894917 259.231155 
L 174.940586 257.658412 
L 175.127698 257.658412 
L 175.127698 256.609917 
L 175.429555 256.609917 
L 175.429555 255.561421 
L 175.616929 255.561421 
L 175.616929 254.512926 
L 175.747974 254.512926 
L 175.747974 253.46443 
L 175.937308 253.46443 
L 176.012461 250.843192 
L 176.304566 250.843192 
L 176.409567 248.746201 
L 176.513931 248.746201 
L 176.534728 246.124962 
L 176.792588 246.124962 
L 176.792588 245.600714 
L 177.117103 245.600714 
L 177.117103 245.076467 
L 177.563328 245.076467 
L 177.578004 244.027971 
L 177.675529 244.027971 
L 177.675529 242.979476 
L 177.801489 242.979476 
L 177.801489 242.455228 
L 178.022105 242.455228 
L 178.022105 241.93098 
L 178.15029 241.93098 
L 178.197525 240.882485 
L 178.380509 240.882485 
L 178.482878 237.736999 
L 178.543084 237.736999 
L 178.598471 234.067265 
L 178.736165 234.067265 
L 178.777259 231.970274 
L 178.958718 231.970274 
L 179.02178 229.873283 
L 179.38216 229.873283 
L 179.47875 224.106558 
L 179.730826 224.106558 
L 179.838349 222.533815 
L 179.842636 222.533815 
L 179.949464 217.815585 
L 180.034452 217.815585 
L 180.034452 217.291338 
L 180.148522 217.291338 
L 180.16115 215.194347 
L 180.278565 215.194347 
L 180.278565 212.573108 
L 180.391032 212.573108 
L 180.391032 210.476117 
L 180.511015 210.476117 
L 180.593277 208.379126 
L 180.650628 208.379126 
L 180.732226 204.185145 
L 180.789115 204.185145 
L 180.866022 202.088154 
L 181.126551 202.088154 
L 181.237574 197.894172 
L 181.249427 197.894172 
L 181.316439 195.272933 
L 181.469193 195.272933 
L 181.566403 191.078952 
L 181.593524 191.078952 
L 181.686185 189.506209 
L 181.755355 189.506209 
L 181.866213 187.933465 
L 181.919475 187.933465 
L 182.017956 184.263731 
L 182.051915 184.263731 
L 182.059452 183.215236 
L 182.287764 183.215236 
L 182.369367 179.545502 
L 182.439532 179.545502 
L 182.439532 179.021254 
L 182.60823 179.021254 
L 182.619174 173.778777 
L 182.74997 173.778777 
L 182.74997 172.206034 
L 182.897729 172.206034 
L 182.940737 170.109043 
L 183.295008 170.109043 
L 183.316034 166.963557 
L 183.531808 166.963557 
L 183.604283 163.293823 
L 183.666162 163.293823 
L 183.772212 159.624089 
L 183.908091 159.624089 
L 184.002572 154.381611 
L 184.056328 154.381611 
L 184.13331 150.711877 
L 184.236525 150.711877 
L 184.335824 147.566391 
L 184.450953 147.566391 
L 184.555543 143.372409 
L 184.766052 143.372409 
L 184.833515 139.702675 
L 184.948553 139.702675 
L 185.040667 136.557189 
L 185.245352 136.557189 
L 185.282875 135.508693 
L 185.360786 135.508693 
L 185.450722 134.460198 
L 185.549419 134.460198 
L 185.616946 129.217721 
L 185.732962 129.217721 
L 185.833081 125.023739 
L 185.980676 125.023739 
L 185.980676 123.975244 
L 186.106184 123.975244 
L 186.144847 120.30551 
L 186.260317 120.30551 
L 186.260317 118.208519 
L 186.413079 118.208519 
L 186.486043 115.58728 
L 186.570294 115.58728 
L 186.570294 114.538785 
L 186.688707 114.538785 
L 186.688707 114.014537 
L 186.809168 114.014537 
L 186.869084 110.869051 
L 187.027845 110.869051 
L 187.120719 109.296308 
L 187.140355 109.296308 
L 187.140355 107.723564 
L 187.291085 107.723564 
L 187.37149 105.626573 
L 187.410172 105.626573 
L 187.465281 103.529583 
L 187.53118 103.529583 
L 187.610473 99.335601 
L 187.643177 99.335601 
L 187.721955 97.762858 
L 187.92939 97.762858 
L 187.92939 97.23861 
L 188.054787 97.23861 
L 188.131706 93.044628 
L 188.173997 93.044628 
L 188.281895 89.899142 
L 188.485313 89.899142 
L 188.485313 87.802151 
L 188.627315 87.802151 
L 188.637597 84.656665 
L 188.778352 84.656665 
L 188.778352 84.132417 
L 188.910377 84.132417 
L 188.983569 78.88994 
L 189.161457 78.88994 
L 189.203779 76.792949 
L 189.300477 76.792949 
L 189.391716 74.17171 
L 189.426112 74.17171 
L 189.521571 71.026224 
L 189.689172 71.026224 
L 189.703669 68.404985 
L 189.835991 68.404985 
L 189.933973 64.735251 
L 189.964925 64.735251 
L 189.99582 62.638261 
L 190.158881 62.638261 
L 190.184734 61.065517 
L 190.383206 61.065517 
L 190.491973 57.920031 
L 190.616096 57.920031 
L 190.682386 55.298792 
L 190.782479 55.298792 
L 190.827784 52.153306 
L 191.045834 52.153306 
L 191.045834 51.104811 
L 191.289806 51.104811 
L 191.289806 50.580563 
L 191.486875 50.580563 
L 191.486875 48.483572 
L 191.726856 48.483572 
L 191.786866 44.28959 
L 192.127917 44.28959 
L 192.157257 39.047113 
L 192.272036 39.047113 
L 192.272036 37.998618 
L 192.439691 37.998618 
L 192.439691 37.47437 
L 193.145896 37.47437 
L 193.226756 35.377379 
L 193.322897 35.377379 
L 193.389293 30.65915 
L 193.517451 30.65915 
L 193.517451 30.134902 
L 193.774747 30.134902 
L 193.801408 28.037911 
L 194.337191 28.037911 
L 194.337191 27.513663 
L 333.168 27.513663 
L 333.168 27.513663 
" style="fill:none;stroke:#008000;stroke-linecap:square;stroke-width:1.5;"/>
   </g>
   <g id="line2d_43">
    <defs>
     <path d="M -0 6 
L 6 -6 
L -6 -6 
z
" id="m66b7e3c0f5" style="stroke:#008000;stroke-linejoin:miter;stroke-width:1.5;"/>
    </defs>
    <g>
     <use style="fill-opacity:0;stroke:#008000;stroke-linejoin:miter;stroke-width:1.5;" x="181.686185" xlink:href="#m66b7e3c0f5" y="190.554704"/>
     <use style="fill-opacity:0;stroke:#008000;stroke-linejoin:miter;stroke-width:1.5;" x="194.337191" xlink:href="#m66b7e3c0f5" y="28.037911"/>
     <use style="fill-opacity:0;stroke:#008000;stroke-linejoin:miter;stroke-width:1.5;" x="194.337191" xlink:href="#m66b7e3c0f5" y="27.513663"/>
     <use style="fill-opacity:0;stroke:#008000;stroke-linejoin:miter;stroke-width:1.5;" x="194.337191" xlink:href="#m66b7e3c0f5" y="27.513663"/>
     <use style="fill-opacity:0;stroke:#008000;stroke-linejoin:miter;stroke-width:1.5;" x="333.168" xlink:href="#m66b7e3c0f5" y="27.513663"/>
    </g>
   </g>
   <g id="line2d_44">
    <path style="fill:none;stroke:#008000;stroke-linecap:square;stroke-width:1.5;"/>
    <g/>
   </g>
   <g id="line2d_45">
    <defs>
     <path d="M 0 1.5 
C 0.397805 1.5 0.77937 1.341951 1.06066 1.06066 
C 1.341951 0.77937 1.5 0.397805 1.5 0 
C 1.5 -0.397805 1.341951 -0.77937 1.06066 -1.06066 
C 0.77937 -1.341951 0.397805 -1.5 0 -1.5 
C -0.397805 -1.5 -0.77937 -1.341951 -1.06066 -1.06066 
C -1.341951 -0.77937 -1.5 -0.397805 -1.5 0 
C -1.5 0.397805 -1.341951 0.77937 -1.06066 1.06066 
C -0.77937 1.341951 -0.397805 1.5 0 1.5 
z
" id="m5cb3e8350d" style="stroke:#0000ff;"/>
    </defs>
    <g>
     <use style="fill:#0000ff;stroke:#0000ff;" x="259.183968" xlink:href="#m5cb3e8350d" y="27.513663"/>
     <use style="fill:#0000ff;stroke:#0000ff;" x="259.183968" xlink:href="#m5cb3e8350d" y="27.513663"/>
    </g>
   </g>
   <g id="line2d_46">
    <path d="M 148.257126 294.88 
L 148.257126 293.831505 
L 149.276358 293.831505 
L 149.352314 292.258761 
L 156.731095 292.258761 
L 156.731095 291.210266 
L 157.531159 291.210266 
L 157.531159 290.686018 
L 159.233507 290.686018 
L 159.233507 290.161771 
L 160.372134 290.161771 
L 160.372134 289.637523 
L 161.596837 289.637523 
L 161.596837 288.589027 
L 162.968086 288.589027 
L 162.968086 287.540532 
L 164.090709 287.540532 
L 164.090709 287.016284 
L 164.320661 287.016284 
L 164.320661 286.492036 
L 164.497409 286.492036 
L 164.497409 284.919293 
L 165.791398 284.919293 
L 165.791398 283.34655 
L 166.148787 283.34655 
L 166.211426 281.773807 
L 166.504485 281.773807 
L 166.576976 280.725312 
L 167.021889 280.725312 
L 167.092235 278.104073 
L 167.258829 278.104073 
L 167.258829 277.579825 
L 167.58725 277.579825 
L 167.618703 276.007082 
L 167.75953 276.007082 
L 167.821751 274.958587 
L 168.068408 274.958587 
L 168.068408 274.434339 
L 168.180287 274.434339 
L 168.180287 273.385844 
L 168.331686 273.385844 
L 168.341732 271.8131 
L 168.733922 271.8131 
L 168.773143 270.764605 
L 169.22741 270.764605 
L 169.317789 269.191862 
L 169.688561 269.191862 
L 169.688561 268.667614 
L 169.864099 268.667614 
L 169.864099 268.143366 
L 170.241386 268.143366 
L 170.241386 267.094871 
L 170.915883 267.094871 
L 170.915883 266.046375 
L 171.105054 266.046375 
L 171.147759 264.99788 
L 171.30485 264.99788 
L 171.355492 263.425137 
L 171.493992 263.425137 
L 171.493992 262.376641 
L 172.182285 262.376641 
L 172.182285 261.852394 
L 173.074385 261.852394 
L 173.074385 260.803898 
L 173.91883 260.803898 
L 173.91883 260.279651 
L 174.030997 260.279651 
L 174.030997 259.231155 
L 174.865167 259.231155 
L 174.865167 258.706907 
L 175.43288 258.706907 
L 175.43288 258.18266 
L 175.914697 258.18266 
L 175.914697 257.658412 
L 177.122125 257.658412 
L 177.122125 256.609917 
L 177.538839 256.609917 
L 177.538839 256.085669 
L 178.00017 256.085669 
L 178.00017 255.561421 
L 178.292545 255.561421 
L 178.385176 252.940182 
L 178.557871 252.940182 
L 178.615974 249.794696 
L 178.832807 249.794696 
L 178.832807 249.270448 
L 179.046939 249.270448 
L 179.114151 246.64921 
L 179.250453 246.64921 
L 179.290336 245.600714 
L 179.390963 245.600714 
L 179.501502 243.503724 
L 179.678975 243.503724 
L 179.681571 240.358237 
L 179.839207 240.358237 
L 179.890577 238.785494 
L 180.117333 238.785494 
L 180.117333 236.688503 
L 180.235885 236.688503 
L 180.235885 236.164255 
L 180.348631 236.164255 
L 180.450714 229.873283 
L 180.670246 229.873283 
L 180.724083 227.252044 
L 180.787492 227.252044 
L 180.88943 226.203549 
L 180.959465 226.203549 
L 181.005195 224.630806 
L 181.141661 224.630806 
L 181.177394 221.485319 
L 181.369077 221.485319 
L 181.387894 219.912576 
L 181.607455 219.912576 
L 181.607455 218.339833 
L 181.759956 218.339833 
L 181.759956 217.291338 
L 181.906555 217.291338 
L 181.965756 214.145851 
L 182.027018 214.145851 
L 182.085806 211.524613 
L 182.151141 211.524613 
L 182.240852 209.427622 
L 182.287764 209.427622 
L 182.287764 208.903374 
L 182.441007 208.903374 
L 182.522621 206.806383 
L 182.577547 206.806383 
L 182.641043 204.709392 
L 182.713012 204.709392 
L 182.762995 201.039658 
L 182.832295 201.039658 
L 182.832295 198.942667 
L 182.946463 198.942667 
L 183.0364 197.894172 
L 183.206417 197.894172 
L 183.263421 193.175943 
L 183.372675 193.175943 
L 183.39779 187.933465 
L 183.516584 187.933465 
L 183.624246 185.836474 
L 183.648996 185.836474 
L 183.68811 182.16674 
L 183.792663 182.16674 
L 183.825333 180.593997 
L 183.97563 180.593997 
L 184.072423 176.924263 
L 184.192651 176.924263 
L 184.206623 174.827272 
L 184.41091 174.827272 
L 184.420765 173.778777 
L 184.605001 173.778777 
L 184.694444 169.060547 
L 184.775705 169.060547 
L 184.775705 168.5363 
L 184.923694 168.5363 
L 185.000071 164.342318 
L 185.148037 164.342318 
L 185.247856 160.148336 
L 185.30223 160.148336 
L 185.408603 158.051345 
L 185.443916 158.051345 
L 185.532803 155.430107 
L 185.567861 155.430107 
L 185.641435 153.857364 
L 185.780363 153.857364 
L 185.891065 152.28462 
L 185.901915 152.28462 
L 185.968674 148.614886 
L 186.024409 148.614886 
L 186.088906 145.993648 
L 186.14247 145.993648 
L 186.226053 140.751171 
L 186.288032 140.751171 
L 186.388494 139.178427 
L 186.465644 139.178427 
L 186.509326 136.032941 
L 186.606771 136.032941 
L 186.679494 134.460198 
L 186.743306 134.460198 
L 186.844572 129.741969 
L 186.859967 129.741969 
L 186.875349 127.644978 
L 190.490127 127.644978 
L 190.490127 127.12073 
L 191.347408 127.12073 
L 191.428865 126.072235 
L 191.77017 126.072235 
L 191.77017 125.547987 
L 191.955484 125.547987 
L 191.955484 125.023739 
L 192.191562 125.023739 
L 192.191562 124.499491 
L 192.330176 124.499491 
L 192.356275 123.450996 
L 192.518194 123.450996 
L 192.518194 122.926748 
L 192.646884 122.926748 
L 192.712694 121.878253 
L 193.346751 121.878253 
L 193.346751 121.354005 
L 194.638141 121.354005 
L 194.638141 120.829757 
L 195.384041 120.829757 
L 195.443292 119.781262 
L 195.669061 119.781262 
L 195.669061 119.257014 
L 195.828094 119.257014 
L 195.91514 118.208519 
L 196.026844 118.208519 
L 196.026844 117.684271 
L 196.294574 117.684271 
L 196.393048 116.111528 
L 196.45969 116.111528 
L 196.54263 115.063032 
L 196.573751 115.063032 
L 196.665812 112.966042 
L 196.752575 112.966042 
L 196.839858 110.869051 
L 196.871402 110.869051 
L 196.974231 108.77206 
L 197.014054 108.77206 
L 197.100024 107.199317 
L 197.168679 107.199317 
L 197.168679 106.675069 
L 197.302378 106.675069 
L 197.41285 103.529583 
L 197.419326 103.529583 
L 197.464593 100.908344 
L 197.690973 100.908344 
L 197.798079 98.811353 
L 197.815263 98.811353 
L 197.898226 97.762858 
L 197.95929 97.762858 
L 198.019244 96.190115 
L 198.070977 96.190115 
L 198.166008 93.568876 
L 198.236718 93.568876 
L 198.34224 90.42339 
L 198.356261 90.42339 
L 198.453217 88.850646 
L 198.478458 88.850646 
L 198.532297 87.277903 
L 198.617918 87.277903 
L 198.72542 83.083922 
L 198.788746 83.083922 
L 198.826289 80.986931 
L 201.387914 80.986931 
L 201.387914 80.462683 
L 201.86942 80.462683 
L 201.975481 79.414188 
L 203.627146 79.414188 
L 203.707535 78.365692 
L 203.910364 78.365692 
L 203.910364 77.841444 
L 204.053072 77.841444 
L 204.053072 77.317197 
L 204.224515 77.317197 
L 204.286663 76.268701 
L 204.354148 76.268701 
L 204.354148 75.744454 
L 204.497523 75.744454 
L 204.497523 75.220206 
L 204.673712 75.220206 
L 204.673712 74.695958 
L 204.805431 74.695958 
L 204.881104 73.647463 
L 204.937343 73.647463 
L 205.009465 72.074719 
L 205.124472 72.074719 
L 205.198756 69.453481 
L 205.265691 69.453481 
L 205.356282 67.35649 
L 205.464944 67.35649 
L 205.574651 65.259499 
L 209.873989 65.259499 
L 209.873989 64.735251 
L 210.031477 64.735251 
L 210.031477 64.211004 
L 210.247284 64.211004 
L 210.296333 63.162508 
L 210.38836 63.162508 
L 210.38836 62.638261 
L 210.500652 62.638261 
L 210.500652 62.114013 
L 210.620371 62.114013 
L 210.720925 58.444279 
L 210.738835 58.444279 
L 210.738835 57.920031 
L 213.687007 57.920031 
L 213.687007 57.395783 
L 214.017346 57.395783 
L 214.090095 55.82304 
L 214.18871 55.82304 
L 214.18871 55.298792 
L 214.435549 55.298792 
L 214.542458 54.250297 
L 214.57897 54.250297 
L 214.57897 53.726049 
L 217.336568 53.726049 
L 217.392802 50.580563 
L 217.619061 50.580563 
L 217.718735 47.435077 
L 220.092434 47.435077 
L 220.092434 46.386581 
L 220.281588 46.386581 
L 220.380864 43.765343 
L 222.334986 43.765343 
L 222.425055 42.716847 
L 222.449224 42.716847 
L 222.535909 41.668352 
L 224.441401 41.668352 
L 224.441401 41.144104 
L 226.279364 41.144104 
L 226.279364 40.095609 
L 227.970012 40.095609 
L 227.970012 39.571361 
L 229.587493 39.571361 
L 229.608548 38.522865 
L 232.155797 38.522865 
L 232.169522 36.950122 
L 232.299371 36.950122 
L 232.299371 36.425875 
L 233.329385 36.425875 
L 233.351585 35.377379 
L 234.39676 35.377379 
L 234.469567 33.804636 
L 234.579054 33.804636 
L 234.579054 33.280388 
L 235.519253 33.280388 
L 235.519253 32.231893 
L 239.963611 32.231893 
L 239.963611 31.707645 
L 240.746865 31.707645 
L 240.746865 31.183397 
L 241.468329 31.183397 
L 241.468329 30.65915 
L 244.150956 30.65915 
L 244.150956 29.610654 
L 245.311233 29.610654 
L 245.311233 29.086407 
L 246.969418 29.086407 
L 246.969418 28.562159 
L 249.865433 28.562159 
L 249.865433 28.037911 
L 259.183968 28.037911 
L 259.183968 27.513663 
L 333.168 27.513663 
L 333.168 27.513663 
" style="fill:none;stroke:#0000ff;stroke-linecap:square;stroke-width:1.5;"/>
   </g>
   <g id="line2d_47">
    <defs>
     <path d="M 0 -6 
L -1.347084 -1.854102 
L -5.706339 -1.854102 
L -2.179628 0.708204 
L -3.526712 4.854102 
L -0 2.291796 
L 3.526712 4.854102 
L 2.179628 0.708204 
L 5.706339 -1.854102 
L 1.347084 -1.854102 
z
" id="mac5b9bd5e0" style="stroke:#0000ff;stroke-linejoin:bevel;stroke-width:1.5;"/>
    </defs>
    <g>
     <use style="fill-opacity:0;stroke:#0000ff;stroke-linejoin:bevel;stroke-width:1.5;" x="183.648996" xlink:href="#mac5b9bd5e0" y="185.836474"/>
     <use style="fill-opacity:0;stroke:#0000ff;stroke-linejoin:bevel;stroke-width:1.5;" x="205.464944" xlink:href="#mac5b9bd5e0" y="66.832242"/>
     <use style="fill-opacity:0;stroke:#0000ff;stroke-linejoin:bevel;stroke-width:1.5;" x="259.183968" xlink:href="#mac5b9bd5e0" y="27.513663"/>
     <use style="fill-opacity:0;stroke:#0000ff;stroke-linejoin:bevel;stroke-width:1.5;" x="259.183968" xlink:href="#mac5b9bd5e0" y="27.513663"/>
     <use style="fill-opacity:0;stroke:#0000ff;stroke-linejoin:bevel;stroke-width:1.5;" x="333.168" xlink:href="#mac5b9bd5e0" y="27.513663"/>
    </g>
   </g>
   <g id="line2d_48">
    <path style="fill:none;stroke:#0000ff;stroke-linecap:square;stroke-width:1.5;"/>
    <g/>
   </g>
   <g id="line2d_49">
    <path clip-path="url(#p570d271e41)" d="M 186.941843 127.644978 
" style="fill:none;stroke:#0000ff;stroke-linecap:square;stroke-width:1.5;"/>
    <defs>
     <path d="M -12 12 
L 12 -12 
M -12 -12 
L 12 12 
" id="m5ae7d751f0" style="stroke:#0000ff;"/>
    </defs>
    <g clip-path="url(#p570d271e41)">
     <use style="fill:#0000ff;stroke:#0000ff;" x="186.941843" xlink:href="#m5ae7d751f0" y="127.644978"/>
    </g>
   </g>
   <g id="line2d_50">
    <defs>
     <path d="M 0 1.5 
C 0.397805 1.5 0.77937 1.341951 1.06066 1.06066 
C 1.341951 0.77937 1.5 0.397805 1.5 0 
C 1.5 -0.397805 1.341951 -0.77937 1.06066 -1.06066 
C 0.77937 -1.341951 0.397805 -1.5 0 -1.5 
C -0.397805 -1.5 -0.77937 -1.341951 -1.06066 -1.06066 
C -1.341951 -0.77937 -1.5 -0.397805 -1.5 0 
C -1.5 0.397805 -1.341951 0.77937 -1.06066 1.06066 
C -0.77937 1.341951 -0.397805 1.5 0 1.5 
z
" id="me5eea4a9ed" style="stroke:#000000;"/>
    </defs>
    <g>
     <use style="stroke:#000000;" x="243.818328" xlink:href="#me5eea4a9ed" y="273.910091"/>
     <use style="stroke:#000000;" x="243.818328" xlink:href="#me5eea4a9ed" y="273.910091"/>
    </g>
   </g>
   <g id="line2d_51">
    <path d="M 168.481762 294.88 
L 168.481762 294.355752 
L 169.239329 294.355752 
L 169.239329 293.307257 
L 169.951199 293.307257 
L 169.951199 292.258761 
L 171.344954 292.258761 
L 171.344954 291.734514 
L 183.573605 291.734514 
L 183.573605 290.686018 
L 185.198961 290.686018 
L 185.198961 290.161771 
L 191.740591 290.161771 
L 191.740591 289.637523 
L 191.993576 289.637523 
L 191.993576 289.113275 
L 192.189681 289.113275 
L 192.189681 288.06478 
L 197.254347 288.06478 
L 197.254347 287.540532 
L 197.581363 287.540532 
L 197.581363 287.016284 
L 200.917076 287.016284 
L 200.917076 285.967789 
L 201.676628 285.967789 
L 201.676628 284.919293 
L 202.015529 284.919293 
L 202.015529 284.395046 
L 204.359708 284.395046 
L 204.359708 283.870798 
L 204.98387 283.870798 
L 204.98387 283.34655 
L 205.263933 283.34655 
L 205.263933 282.822302 
L 207.994925 282.822302 
L 207.994925 282.298055 
L 210.076052 282.298055 
L 210.076052 281.249559 
L 214.052704 281.249559 
L 214.052704 280.725312 
L 214.105869 280.725312 
L 214.105869 279.676816 
L 217.280003 279.676816 
L 217.280003 279.152568 
L 218.691631 279.152568 
L 218.691631 278.628321 
L 222.340955 278.628321 
L 222.340955 278.104073 
L 223.434293 278.104073 
L 223.434293 277.579825 
L 226.245767 277.579825 
L 226.245767 277.055578 
L 226.271942 277.055578 
L 226.271942 276.53133 
L 228.706835 276.53133 
L 228.706835 276.007082 
L 229.515309 276.007082 
L 229.515309 275.482834 
L 234.427886 275.482834 
L 234.427886 274.958587 
L 234.977783 274.958587 
L 234.977783 274.434339 
L 243.818328 274.434339 
L 243.818328 273.910091 
L 333.168 273.910091 
" style="fill:none;stroke:#000000;stroke-linecap:square;stroke-width:1.5;"/>
   </g>
   <g id="line2d_52">
    <defs>
     <path d="M 0 6 
C 1.591219 6 3.117479 5.367802 4.242641 4.242641 
C 5.367802 3.117479 6 1.591219 6 0 
C 6 -1.591219 5.367802 -3.117479 4.242641 -4.242641 
C 3.117479 -5.367802 1.591219 -6 0 -6 
C -1.591219 -6 -3.117479 -5.367802 -4.242641 -4.242641 
C -5.367802 -3.117479 -6 -1.591219 -6 0 
C -6 1.591219 -5.367802 3.117479 -4.242641 4.242641 
C -3.117479 5.367802 -1.591219 6 0 6 
z
" id="m570568bea9" style="stroke:#000000;stroke-width:1.5;"/>
    </defs>
    <g>
     <use style="fill-opacity:0;stroke:#000000;stroke-width:1.5;" x="217.280003" xlink:href="#m570568bea9" y="279.676816"/>
     <use style="fill-opacity:0;stroke:#000000;stroke-width:1.5;" x="243.818328" xlink:href="#m570568bea9" y="274.434339"/>
     <use style="fill-opacity:0;stroke:#000000;stroke-width:1.5;" x="243.818328" xlink:href="#m570568bea9" y="273.910091"/>
     <use style="fill-opacity:0;stroke:#000000;stroke-width:1.5;" x="333.168" xlink:href="#m570568bea9" y="273.910091"/>
    </g>
   </g>
   <g id="line2d_53">
    <path style="fill:none;stroke:#000000;stroke-linecap:square;stroke-width:1.5;"/>
    <g/>
   </g>
   <g id="line2d_54">
    <path clip-path="url(#p570d271e41)" d="M 175.027591 291.734514 
" style="fill:none;stroke:#000000;stroke-linecap:square;stroke-width:1.5;"/>
    <defs>
     <path d="M -12 12 
L 12 -12 
M -12 -12 
L 12 12 
" id="m4c1ebff623" style="stroke:#000000;"/>
    </defs>
    <g clip-path="url(#p570d271e41)">
     <use style="stroke:#000000;" x="175.027591" xlink:href="#m4c1ebff623" y="291.734514"/>
    </g>
   </g>
   <g id="line2d_55">
    <path clip-path="url(#p570d271e41)" d="M 56.12 294.88 
L 56.12 294.88 
L 56.12 294.88 
L 56.12 294.88 
L 333.168 294.88 
" style="fill:none;stroke:#ff0000;stroke-linecap:square;stroke-width:1.5;"/>
   </g>
   <g id="line2d_56">
    <defs>
     <path d="M -6 6 
L 6 6 
L 6 -6 
L -6 -6 
z
" id="m09962e2c88" style="stroke:#ff0000;stroke-linejoin:miter;stroke-width:1.5;"/>
    </defs>
    <g clip-path="url(#p570d271e41)">
     <use style="fill-opacity:0;stroke:#ff0000;stroke-linejoin:miter;stroke-width:1.5;" x="56.12" xlink:href="#m09962e2c88" y="294.88"/>
    </g>
   </g>
   <g id="line2d_57">
    <path clip-path="url(#p570d271e41)" style="fill:none;stroke:#ff0000;stroke-linecap:square;stroke-width:1.5;"/>
    <g clip-path="url(#p570d271e41)">
     <use style="fill-opacity:0;stroke:#ff0000;stroke-linejoin:miter;stroke-width:1.5;" x="-1" xlink:href="#m09962e2c88" y="562.246337"/>
     <use style="fill-opacity:0;stroke:#ff0000;stroke-linejoin:miter;stroke-width:1.5;" x="333.168" xlink:href="#m09962e2c88" y="562.246337"/>
    </g>
   </g>
   <g id="line2d_58">
    <path clip-path="url(#p570d271e41)" d="M 56.12 294.88 
L 56.12 294.88 
L 56.12 294.88 
L 56.12 294.88 
L 333.168 294.88 
" style="fill:none;stroke:#bf00bf;stroke-linecap:square;stroke-width:1.5;"/>
   </g>
   <g id="line2d_59">
    <defs>
     <path d="M -0 8.485281 
L 8.485281 0 
L 0 -8.485281 
L -8.485281 -0 
z
" id="mb62c5b4702" style="stroke:#bf00bf;stroke-linejoin:miter;stroke-width:1.5;"/>
    </defs>
    <g clip-path="url(#p570d271e41)">
     <use style="fill-opacity:0;stroke:#bf00bf;stroke-linejoin:miter;stroke-width:1.5;" x="56.12" xlink:href="#mb62c5b4702" y="294.88"/>
    </g>
   </g>
   <g id="line2d_60">
    <path clip-path="url(#p570d271e41)" style="fill:none;stroke:#bf00bf;stroke-linecap:square;stroke-width:1.5;"/>
    <g clip-path="url(#p570d271e41)">
     <use style="fill-opacity:0;stroke:#bf00bf;stroke-linejoin:miter;stroke-width:1.5;" x="-1" xlink:href="#mb62c5b4702" y="562.246337"/>
     <use style="fill-opacity:0;stroke:#bf00bf;stroke-linejoin:miter;stroke-width:1.5;" x="333.168" xlink:href="#mb62c5b4702" y="562.246337"/>
    </g>
   </g>
   <g id="line2d_61">
    <path d="M 333.168 294.88 
L 363.64328 289.532673 
" style="fill:none;stroke:#bf00bf;stroke-linecap:square;stroke-width:1.5;"/>
    <g>
     <use style="fill-opacity:0;stroke:#bf00bf;stroke-linejoin:miter;stroke-width:1.5;" x="333.168" xlink:href="#mb62c5b4702" y="294.88"/>
     <use style="fill-opacity:0;stroke:#bf00bf;stroke-linejoin:miter;stroke-width:1.5;" x="363.64328" xlink:href="#mb62c5b4702" y="289.532673"/>
    </g>
   </g>
   <g id="line2d_62">
    <path d="M 333.168 294.88 
L 363.64328 238.198337 
" style="fill:none;stroke:#ff0000;stroke-linecap:square;stroke-width:1.5;"/>
    <g>
     <use style="fill-opacity:0;stroke:#ff0000;stroke-linejoin:miter;stroke-width:1.5;" x="333.168" xlink:href="#m09962e2c88" y="294.88"/>
     <use style="fill-opacity:0;stroke:#ff0000;stroke-linejoin:miter;stroke-width:1.5;" x="363.64328" xlink:href="#m09962e2c88" y="238.198337"/>
    </g>
   </g>
   <g id="line2d_63">
    <path d="M 333.168 273.910091 
L 363.64328 186.864 
" style="fill:none;stroke:#000000;stroke-linecap:square;stroke-width:1.5;"/>
    <g>
     <use style="fill-opacity:0;stroke:#000000;stroke-width:1.5;" x="333.168" xlink:href="#m570568bea9" y="273.910091"/>
     <use style="fill-opacity:0;stroke:#000000;stroke-width:1.5;" x="363.64328" xlink:href="#m570568bea9" y="186.864"/>
    </g>
   </g>
   <g id="line2d_64">
    <path d="M 333.168 27.513663 
L 363.64328 135.529663 
" style="fill:none;stroke:#0000ff;stroke-linecap:square;stroke-width:1.5;"/>
    <g>
     <use style="fill-opacity:0;stroke:#0000ff;stroke-linejoin:bevel;stroke-width:1.5;" x="333.168" xlink:href="#mac5b9bd5e0" y="27.513663"/>
     <use style="fill-opacity:0;stroke:#0000ff;stroke-linejoin:bevel;stroke-width:1.5;" x="363.64328" xlink:href="#mac5b9bd5e0" y="135.529663"/>
    </g>
   </g>
   <g id="line2d_65">
    <path d="M 333.168 27.513663 
L 363.64328 84.195327 
" style="fill:none;stroke:#00bfbf;stroke-linecap:square;stroke-width:1.5;"/>
    <g>
     <use style="fill-opacity:0;stroke:#00bfbf;stroke-width:1.5;" x="333.168" xlink:href="#m5582000176" y="27.513663"/>
     <use style="fill-opacity:0;stroke:#00bfbf;stroke-width:1.5;" x="363.64328" xlink:href="#m5582000176" y="84.195327"/>
    </g>
   </g>
   <g id="line2d_66">
    <path d="M 333.168 27.513663 
L 363.64328 32.86099 
" style="fill:none;stroke:#008000;stroke-linecap:square;stroke-width:1.5;"/>
    <g>
     <use style="fill-opacity:0;stroke:#008000;stroke-linejoin:miter;stroke-width:1.5;" x="333.168" xlink:href="#m66b7e3c0f5" y="27.513663"/>
     <use style="fill-opacity:0;stroke:#008000;stroke-linejoin:miter;stroke-width:1.5;" x="363.64328" xlink:href="#m66b7e3c0f5" y="32.86099"/>
    </g>
   </g>
   <g id="line2d_67">
    <path d="M 333.168 294.88 
L 333.168 27.513663 
" style="fill:none;stroke:#000000;stroke-linecap:square;stroke-width:1.5;"/>
   </g>
   <g id="patch_3">
    <path d="M 56.12 294.88 
L 56.12 24.84 
" style="fill:none;stroke:#000000;stroke-linecap:square;stroke-linejoin:miter;stroke-width:0.8;"/>
   </g>
   <g id="patch_4">
    <path d="M 333.168 294.88 
L 333.168 24.84 
" style="fill:none;stroke:#000000;stroke-linecap:square;stroke-linejoin:miter;stroke-width:0.8;"/>
   </g>
   <g id="patch_5">
    <path d="M 56.12 294.88 
L 333.168 294.88 
" style="fill:none;stroke:#000000;stroke-linecap:square;stroke-linejoin:miter;stroke-width:0.8;"/>
   </g>
   <g id="patch_6">
    <path d="M 56.12 24.84 
L 333.168 24.84 
" style="fill:none;stroke:#000000;stroke-linecap:square;stroke-linejoin:miter;stroke-width:0.8;"/>
   </g>
   <g id="text_13">
    <!-- 40-D -->
    <defs>
     <path d="M 19.671875 64.796875 
L 19.671875 8.109375 
L 31.59375 8.109375 
Q 46.6875 8.109375 53.6875 14.9375 
Q 60.6875 21.78125 60.6875 36.53125 
Q 60.6875 51.171875 53.6875 57.984375 
Q 46.6875 64.796875 31.59375 64.796875 
z
M 9.8125 72.90625 
L 30.078125 72.90625 
Q 51.265625 72.90625 61.171875 64.09375 
Q 71.09375 55.28125 71.09375 36.53125 
Q 71.09375 17.671875 61.125 8.828125 
Q 51.171875 0 30.078125 0 
L 9.8125 0 
z
" id="DejaVuSans-44"/>
    </defs>
    <g transform="translate(369.18424 294.223611)scale(0.17 -0.17)">
     <use xlink:href="#DejaVuSans-34"/>
     <use x="63.623047" xlink:href="#DejaVuSans-30"/>
     <use x="127.246094" xlink:href="#DejaVuSans-2d"/>
     <use x="163.330078" xlink:href="#DejaVuSans-44"/>
    </g>
   </g>
   <g id="text_14">
    <!-- 20-D -->
    <g transform="translate(369.18424 242.889274)scale(0.17 -0.17)">
     <use xlink:href="#DejaVuSans-32"/>
     <use x="63.623047" xlink:href="#DejaVuSans-30"/>
     <use x="127.246094" xlink:href="#DejaVuSans-2d"/>
     <use x="163.330078" xlink:href="#DejaVuSans-44"/>
    </g>
   </g>
   <g id="text_15">
    <!-- 10-D -->
    <g transform="translate(369.18424 191.554937)scale(0.17 -0.17)">
     <use xlink:href="#DejaVuSans-31"/>
     <use x="63.623047" xlink:href="#DejaVuSans-30"/>
     <use x="127.246094" xlink:href="#DejaVuSans-2d"/>
     <use x="163.330078" xlink:href="#DejaVuSans-44"/>
    </g>
   </g>
   <g id="text_16">
    <!-- 5-D -->
    <defs>
     <path d="M 10.796875 72.90625 
L 49.515625 72.90625 
L 49.515625 64.59375 
L 19.828125 64.59375 
L 19.828125 46.734375 
Q 21.96875 47.46875 24.109375 47.828125 
Q 26.265625 48.1875 28.421875 48.1875 
Q 40.625 48.1875 47.75 41.5 
Q 54.890625 34.8125 54.890625 23.390625 
Q 54.890625 11.625 47.5625 5.09375 
Q 40.234375 -1.421875 26.90625 -1.421875 
Q 22.3125 -1.421875 17.546875 -0.640625 
Q 12.796875 0.140625 7.71875 1.703125 
L 7.71875 11.625 
Q 12.109375 9.234375 16.796875 8.0625 
Q 21.484375 6.890625 26.703125 6.890625 
Q 35.15625 6.890625 40.078125 11.328125 
Q 45.015625 15.765625 45.015625 23.390625 
Q 45.015625 31 40.078125 35.4375 
Q 35.15625 39.890625 26.703125 39.890625 
Q 22.75 39.890625 18.8125 39.015625 
Q 14.890625 38.140625 10.796875 36.28125 
z
" id="DejaVuSans-35"/>
    </defs>
    <g transform="translate(369.18424 140.220601)scale(0.17 -0.17)">
     <use xlink:href="#DejaVuSans-35"/>
     <use x="63.623047" xlink:href="#DejaVuSans-2d"/>
     <use x="99.707031" xlink:href="#DejaVuSans-44"/>
    </g>
   </g>
   <g id="text_17">
    <!-- 2-D -->
    <g transform="translate(369.18424 88.886264)scale(0.17 -0.17)">
     <use xlink:href="#DejaVuSans-32"/>
     <use x="63.623047" xlink:href="#DejaVuSans-2d"/>
     <use x="99.707031" xlink:href="#DejaVuSans-44"/>
    </g>
   </g>
   <g id="text_18">
    <!-- 3-D -->
    <defs>
     <path d="M 40.578125 39.3125 
Q 47.65625 37.796875 51.625 33 
Q 55.609375 28.21875 55.609375 21.1875 
Q 55.609375 10.40625 48.1875 4.484375 
Q 40.765625 -1.421875 27.09375 -1.421875 
Q 22.515625 -1.421875 17.65625 -0.515625 
Q 12.796875 0.390625 7.625 2.203125 
L 7.625 11.71875 
Q 11.71875 9.328125 16.59375 8.109375 
Q 21.484375 6.890625 26.8125 6.890625 
Q 36.078125 6.890625 40.9375 10.546875 
Q 45.796875 14.203125 45.796875 21.1875 
Q 45.796875 27.640625 41.28125 31.265625 
Q 36.765625 34.90625 28.71875 34.90625 
L 20.21875 34.90625 
L 20.21875 43.015625 
L 29.109375 43.015625 
Q 36.375 43.015625 40.234375 45.921875 
Q 44.09375 48.828125 44.09375 54.296875 
Q 44.09375 59.90625 40.109375 62.90625 
Q 36.140625 65.921875 28.71875 65.921875 
Q 24.65625 65.921875 20.015625 65.03125 
Q 15.375 64.15625 9.8125 62.3125 
L 9.8125 71.09375 
Q 15.4375 72.65625 20.34375 73.4375 
Q 25.25 74.21875 29.59375 74.21875 
Q 40.828125 74.21875 47.359375 69.109375 
Q 53.90625 64.015625 53.90625 55.328125 
Q 53.90625 49.265625 50.4375 45.09375 
Q 46.96875 40.921875 40.578125 39.3125 
z
" id="DejaVuSans-33"/>
    </defs>
    <g transform="translate(369.18424 37.551928)scale(0.17 -0.17)">
     <use xlink:href="#DejaVuSans-33"/>
     <use x="63.623047" xlink:href="#DejaVuSans-2d"/>
     <use x="99.707031" xlink:href="#DejaVuSans-44"/>
    </g>
   </g>
   <g id="text_19">
    <!-- bbob f10 -->
    <defs>
     <path d="M 48.6875 27.296875 
Q 48.6875 37.203125 44.609375 42.84375 
Q 40.53125 48.484375 33.40625 48.484375 
Q 26.265625 48.484375 22.1875 42.84375 
Q 18.109375 37.203125 18.109375 27.296875 
Q 18.109375 17.390625 22.1875 11.75 
Q 26.265625 6.109375 33.40625 6.109375 
Q 40.53125 6.109375 44.609375 11.75 
Q 48.6875 17.390625 48.6875 27.296875 
z
M 18.109375 46.390625 
Q 20.953125 51.265625 25.265625 53.625 
Q 29.59375 56 35.59375 56 
Q 45.5625 56 51.78125 48.09375 
Q 58.015625 40.1875 58.015625 27.296875 
Q 58.015625 14.40625 51.78125 6.484375 
Q 45.5625 -1.421875 35.59375 -1.421875 
Q 29.59375 -1.421875 25.265625 0.953125 
Q 20.953125 3.328125 18.109375 8.203125 
L 18.109375 0 
L 9.078125 0 
L 9.078125 75.984375 
L 18.109375 75.984375 
z
" id="DejaVuSans-62"/>
    </defs>
    <g transform="translate(58.89048 35.290806)scale(0.102 -0.102)">
     <use xlink:href="#DejaVuSans-62"/>
     <use x="63.476562" xlink:href="#DejaVuSans-62"/>
     <use x="126.953125" xlink:href="#DejaVuSans-6f"/>
     <use x="188.134766" xlink:href="#DejaVuSans-62"/>
     <use x="251.611328" xlink:href="#DejaVuSans-20"/>
     <use x="283.398438" xlink:href="#DejaVuSans-66"/>
     <use x="318.603516" xlink:href="#DejaVuSans-31"/>
     <use x="382.226562" xlink:href="#DejaVuSans-30"/>
    </g>
    <!-- 51 targets: 100..1e-08 -->
    <defs>
     <path d="M 11.71875 12.40625 
L 22.015625 12.40625 
L 22.015625 0 
L 11.71875 0 
z
M 11.71875 51.703125 
L 22.015625 51.703125 
L 22.015625 39.3125 
L 11.71875 39.3125 
z
" id="DejaVuSans-3a"/>
    </defs>
    <g transform="translate(58.89048 46.712575)scale(0.102 -0.102)">
     <use xlink:href="#DejaVuSans-35"/>
     <use x="63.623047" xlink:href="#DejaVuSans-31"/>
     <use x="127.246094" xlink:href="#DejaVuSans-20"/>
     <use x="159.033203" xlink:href="#DejaVuSans-74"/>
     <use x="198.242188" xlink:href="#DejaVuSans-61"/>
     <use x="259.521484" xlink:href="#DejaVuSans-72"/>
     <use x="300.619141" xlink:href="#DejaVuSans-67"/>
     <use x="364.095703" xlink:href="#DejaVuSans-65"/>
     <use x="425.619141" xlink:href="#DejaVuSans-74"/>
     <use x="464.828125" xlink:href="#DejaVuSans-73"/>
     <use x="516.927734" xlink:href="#DejaVuSans-3a"/>
     <use x="550.619141" xlink:href="#DejaVuSans-20"/>
     <use x="582.40625" xlink:href="#DejaVuSans-31"/>
     <use x="646.029297" xlink:href="#DejaVuSans-30"/>
     <use x="709.652344" xlink:href="#DejaVuSans-30"/>
     <use x="773.275391" xlink:href="#DejaVuSans-2e"/>
     <use x="805.0625" xlink:href="#DejaVuSans-2e"/>
     <use x="836.849609" xlink:href="#DejaVuSans-31"/>
     <use x="900.472656" xlink:href="#DejaVuSans-65"/>
     <use x="961.996094" xlink:href="#DejaVuSans-2d"/>
     <use x="998.080078" xlink:href="#DejaVuSans-30"/>
     <use x="1061.703125" xlink:href="#DejaVuSans-38"/>
    </g>
    <!-- 15 instances -->
    <g transform="translate(58.89048 58.134344)scale(0.102 -0.102)">
     <use xlink:href="#DejaVuSans-31"/>
     <use x="63.623047" xlink:href="#DejaVuSans-35"/>
     <use x="127.246094" xlink:href="#DejaVuSans-20"/>
     <use x="159.033203" xlink:href="#DejaVuSans-69"/>
     <use x="186.816406" xlink:href="#DejaVuSans-6e"/>
     <use x="250.195312" xlink:href="#DejaVuSans-73"/>
     <use x="302.294922" xlink:href="#DejaVuSans-74"/>
     <use x="341.503906" xlink:href="#DejaVuSans-61"/>
     <use x="402.783203" xlink:href="#DejaVuSans-6e"/>
     <use x="466.162109" xlink:href="#DejaVuSans-63"/>
     <use x="521.142578" xlink:href="#DejaVuSans-65"/>
     <use x="582.666016" xlink:href="#DejaVuSans-73"/>
    </g>
   </g>
   <g id="text_20">
    <!-- v0.0.0 -->
    <g style="fill:#808080;" transform="translate(178.96275 290.099912)scale(0.1 -0.1)">
     <use xlink:href="#DejaVuSans-76"/>
     <use x="59.179688" xlink:href="#DejaVuSans-30"/>
     <use x="122.802734" xlink:href="#DejaVuSans-2e"/>
     <use x="154.589844" xlink:href="#DejaVuSans-30"/>
     <use x="218.212891" xlink:href="#DejaVuSans-2e"/>
     <use x="250" xlink:href="#DejaVuSans-30"/>
    </g>
   </g>
   <g id="text_21">
    <!-- 10 Ellipsoid -->
    <defs>
     <path d="M 9.8125 72.90625 
L 55.90625 72.90625 
L 55.90625 64.59375 
L 19.671875 64.59375 
L 19.671875 43.015625 
L 54.390625 43.015625 
L 54.390625 34.71875 
L 19.671875 34.71875 
L 19.671875 8.296875 
L 56.78125 8.296875 
L 56.78125 0 
L 9.8125 0 
z
" id="DejaVuSans-45"/>
    </defs>
    <g transform="translate(137.284625 18.84)scale(0.2 -0.2)">
     <use xlink:href="#DejaVuSans-31"/>
     <use x="63.623047" xlink:href="#DejaVuSans-30"/>
     <use x="127.246094" xlink:href="#DejaVuSans-20"/>
     <use x="159.033203" xlink:href="#DejaVuSans-45"/>
     <use x="222.216797" xlink:href="#DejaVuSans-6c"/>
     <use x="250" xlink:href="#DejaVuSans-6c"/>
     <use x="277.783203" xlink:href="#DejaVuSans-69"/>
     <use x="305.566406" xlink:href="#DejaVuSans-70"/>
     <use x="369.042969" xlink:href="#DejaVuSans-73"/>
     <use x="421.142578" xlink:href="#DejaVuSans-6f"/>
     <use x="482.324219" xlink:href="#DejaVuSans-69"/>
     <use x="510.107422" xlink:href="#DejaVuSans-64"/>
    </g>
   </g>
  </g>
 </g>
 <defs>
  <clipPath id="p570d271e41">
   <rect height="270.04" width="277.048" x="56.12" y="24.84"/>
  </clipPath>
 </defs>
</svg>
