<?xml version="1.0" encoding="utf-8" standalone="no"?>
<!DOCTYPE svg PUBLIC "-//W3C//DTD SVG 1.1//EN"
  "http://www.w3.org/Graphics/SVG/1.1/DTD/svg11.dtd">
<!-- Created with matplotlib (http://matplotlib.org/) -->
<svg height="345.6pt" version="1.1" viewBox="0 0 460.8 345.6" width="460.8pt" xmlns="http://www.w3.org/2000/svg" xmlns:xlink="http://www.w3.org/1999/xlink">
 <defs>
  <style type="text/css">
*{stroke-linecap:butt;stroke-linejoin:round;}
  </style>
 </defs>
 <g id="figure_1">
  <g id="patch_1">
   <path d="M 0 345.6 
L 460.8 345.6 
L 460.8 0 
L 0 0 
z
" style="fill:#ffffff;"/>
  </g>
  <g id="axes_1">
   <g id="patch_2">
    <path d="M 56.12 294.88 
L 333.168 294.88 
L 333.168 24.84 
L 56.12 24.84 
z
" style="fill:#ffffff;"/>
   </g>
   <g id="matplotlib.axis_1">
    <g id="xtick_1">
     <g id="line2d_1">
      <path clip-path="url(#pdc27dc8c5e)" d="M 56.12 294.88 
L 56.12 24.84 
" style="fill:none;stroke:#b0b0b0;stroke-linecap:square;stroke-width:0.8;"/>
     </g>
     <g id="line2d_2">
      <defs>
       <path d="M 0 0 
L 0 3.5 
" id="m9158959307" style="stroke:#000000;stroke-width:0.8;"/>
      </defs>
      <g>
       <use style="stroke:#000000;stroke-width:0.8;" x="56.12" xlink:href="#m9158959307" y="294.88"/>
      </g>
     </g>
     <g id="text_1">
      <!-- 0 -->
      <defs>
       <path d="M 31.78125 66.40625 
Q 24.171875 66.40625 20.328125 58.90625 
Q 16.5 51.421875 16.5 36.375 
Q 16.5 21.390625 20.328125 13.890625 
Q 24.171875 6.390625 31.78125 6.390625 
Q 39.453125 6.390625 43.28125 13.890625 
Q 47.125 21.390625 47.125 36.375 
Q 47.125 51.421875 43.28125 58.90625 
Q 39.453125 66.40625 31.78125 66.40625 
z
M 31.78125 74.21875 
Q 44.046875 74.21875 50.515625 64.515625 
Q 56.984375 54.828125 56.984375 36.375 
Q 56.984375 17.96875 50.515625 8.265625 
Q 44.046875 -1.421875 31.78125 -1.421875 
Q 19.53125 -1.421875 13.0625 8.265625 
Q 6.59375 17.96875 6.59375 36.375 
Q 6.59375 54.828125 13.0625 64.515625 
Q 19.53125 74.21875 31.78125 74.21875 
z
" id="DejaVuSans-30"/>
      </defs>
      <g transform="translate(49.7575 317.076875)scale(0.2 -0.2)">
       <use xlink:href="#DejaVuSans-30"/>
      </g>
     </g>
    </g>
    <g id="xtick_2">
     <g id="line2d_3">
      <path clip-path="url(#pdc27dc8c5e)" d="M 135.276571 294.88 
L 135.276571 24.84 
" style="fill:none;stroke:#b0b0b0;stroke-linecap:square;stroke-width:0.8;"/>
     </g>
     <g id="line2d_4">
      <g>
       <use style="stroke:#000000;stroke-width:0.8;" x="135.276571" xlink:href="#m9158959307" y="294.88"/>
      </g>
     </g>
     <g id="text_2">
      <!-- 2 -->
      <defs>
       <path d="M 19.1875 8.296875 
L 53.609375 8.296875 
L 53.609375 0 
L 7.328125 0 
L 7.328125 8.296875 
Q 12.9375 14.109375 22.625 23.890625 
Q 32.328125 33.6875 34.8125 36.53125 
Q 39.546875 41.84375 41.421875 45.53125 
Q 43.3125 49.21875 43.3125 52.78125 
Q 43.3125 58.59375 39.234375 62.25 
Q 35.15625 65.921875 28.609375 65.921875 
Q 23.96875 65.921875 18.8125 64.3125 
Q 13.671875 62.703125 7.8125 59.421875 
L 7.8125 69.390625 
Q 13.765625 71.78125 18.9375 73 
Q 24.125 74.21875 28.421875 74.21875 
Q 39.75 74.21875 46.484375 68.546875 
Q 53.21875 62.890625 53.21875 53.421875 
Q 53.21875 48.921875 51.53125 44.890625 
Q 49.859375 40.875 45.40625 35.40625 
Q 44.1875 33.984375 37.640625 27.21875 
Q 31.109375 20.453125 19.1875 8.296875 
z
" id="DejaVuSans-32"/>
      </defs>
      <g transform="translate(128.914071 317.076875)scale(0.2 -0.2)">
       <use xlink:href="#DejaVuSans-32"/>
      </g>
     </g>
    </g>
    <g id="xtick_3">
     <g id="line2d_5">
      <path clip-path="url(#pdc27dc8c5e)" d="M 214.433143 294.88 
L 214.433143 24.84 
" style="fill:none;stroke:#b0b0b0;stroke-linecap:square;stroke-width:0.8;"/>
     </g>
     <g id="line2d_6">
      <g>
       <use style="stroke:#000000;stroke-width:0.8;" x="214.433143" xlink:href="#m9158959307" y="294.88"/>
      </g>
     </g>
     <g id="text_3">
      <!-- 4 -->
      <defs>
       <path d="M 37.796875 64.3125 
L 12.890625 25.390625 
L 37.796875 25.390625 
z
M 35.203125 72.90625 
L 47.609375 72.90625 
L 47.609375 25.390625 
L 58.015625 25.390625 
L 58.015625 17.1875 
L 47.609375 17.1875 
L 47.609375 0 
L 37.796875 0 
L 37.796875 17.1875 
L 4.890625 17.1875 
L 4.890625 26.703125 
z
" id="DejaVuSans-34"/>
      </defs>
      <g transform="translate(208.070643 317.076875)scale(0.2 -0.2)">
       <use xlink:href="#DejaVuSans-34"/>
      </g>
     </g>
    </g>
    <g id="xtick_4">
     <g id="line2d_7">
      <path clip-path="url(#pdc27dc8c5e)" d="M 293.589714 294.88 
L 293.589714 24.84 
" style="fill:none;stroke:#b0b0b0;stroke-linecap:square;stroke-width:0.8;"/>
     </g>
     <g id="line2d_8">
      <g>
       <use style="stroke:#000000;stroke-width:0.8;" x="293.589714" xlink:href="#m9158959307" y="294.88"/>
      </g>
     </g>
     <g id="text_4">
      <!-- 6 -->
      <defs>
       <path d="M 33.015625 40.375 
Q 26.375 40.375 22.484375 35.828125 
Q 18.609375 31.296875 18.609375 23.390625 
Q 18.609375 15.53125 22.484375 10.953125 
Q 26.375 6.390625 33.015625 6.390625 
Q 39.65625 6.390625 43.53125 10.953125 
Q 47.40625 15.53125 47.40625 23.390625 
Q 47.40625 31.296875 43.53125 35.828125 
Q 39.65625 40.375 33.015625 40.375 
z
M 52.59375 71.296875 
L 52.59375 62.3125 
Q 48.875 64.0625 45.09375 64.984375 
Q 41.3125 65.921875 37.59375 65.921875 
Q 27.828125 65.921875 22.671875 59.328125 
Q 17.53125 52.734375 16.796875 39.40625 
Q 19.671875 43.65625 24.015625 45.921875 
Q 28.375 48.1875 33.59375 48.1875 
Q 44.578125 48.1875 50.953125 41.515625 
Q 57.328125 34.859375 57.328125 23.390625 
Q 57.328125 12.15625 50.6875 5.359375 
Q 44.046875 -1.421875 33.015625 -1.421875 
Q 20.359375 -1.421875 13.671875 8.265625 
Q 6.984375 17.96875 6.984375 36.375 
Q 6.984375 53.65625 15.1875 63.9375 
Q 23.390625 74.21875 37.203125 74.21875 
Q 40.921875 74.21875 44.703125 73.484375 
Q 48.484375 72.75 52.59375 71.296875 
z
" id="DejaVuSans-36"/>
      </defs>
      <g transform="translate(287.227214 317.076875)scale(0.2 -0.2)">
       <use xlink:href="#DejaVuSans-36"/>
      </g>
     </g>
    </g>
    <g id="xtick_5">
     <g id="line2d_9">
      <path clip-path="url(#pdc27dc8c5e)" d="M 56.12 294.88 
L 56.12 24.84 
" style="fill:none;stroke:#b0b0b0;stroke-linecap:square;stroke-width:0.8;"/>
     </g>
     <g id="line2d_10">
      <defs>
       <path d="M 0 0 
L 0 2 
" id="mabd15d77a8" style="stroke:#000000;stroke-width:0.6;"/>
      </defs>
      <g>
       <use style="stroke:#000000;stroke-width:0.6;" x="56.12" xlink:href="#mabd15d77a8" y="294.88"/>
      </g>
     </g>
    </g>
    <g id="xtick_6">
     <g id="line2d_11">
      <path clip-path="url(#pdc27dc8c5e)" d="M 95.698286 294.88 
L 95.698286 24.84 
" style="fill:none;stroke:#b0b0b0;stroke-linecap:square;stroke-width:0.8;"/>
     </g>
     <g id="line2d_12">
      <g>
       <use style="stroke:#000000;stroke-width:0.6;" x="95.698286" xlink:href="#mabd15d77a8" y="294.88"/>
      </g>
     </g>
    </g>
    <g id="xtick_7">
     <g id="line2d_13">
      <path clip-path="url(#pdc27dc8c5e)" d="M 135.276571 294.88 
L 135.276571 24.84 
" style="fill:none;stroke:#b0b0b0;stroke-linecap:square;stroke-width:0.8;"/>
     </g>
     <g id="line2d_14">
      <g>
       <use style="stroke:#000000;stroke-width:0.6;" x="135.276571" xlink:href="#mabd15d77a8" y="294.88"/>
      </g>
     </g>
    </g>
    <g id="xtick_8">
     <g id="line2d_15">
      <path clip-path="url(#pdc27dc8c5e)" d="M 174.854857 294.88 
L 174.854857 24.84 
" style="fill:none;stroke:#b0b0b0;stroke-linecap:square;stroke-width:0.8;"/>
     </g>
     <g id="line2d_16">
      <g>
       <use style="stroke:#000000;stroke-width:0.6;" x="174.854857" xlink:href="#mabd15d77a8" y="294.88"/>
      </g>
     </g>
    </g>
    <g id="xtick_9">
     <g id="line2d_17">
      <path clip-path="url(#pdc27dc8c5e)" d="M 214.433143 294.88 
L 214.433143 24.84 
" style="fill:none;stroke:#b0b0b0;stroke-linecap:square;stroke-width:0.8;"/>
     </g>
     <g id="line2d_18">
      <g>
       <use style="stroke:#000000;stroke-width:0.6;" x="214.433143" xlink:href="#mabd15d77a8" y="294.88"/>
      </g>
     </g>
    </g>
    <g id="xtick_10">
     <g id="line2d_19">
      <path clip-path="url(#pdc27dc8c5e)" d="M 254.011429 294.88 
L 254.011429 24.84 
" style="fill:none;stroke:#b0b0b0;stroke-linecap:square;stroke-width:0.8;"/>
     </g>
     <g id="line2d_20">
      <g>
       <use style="stroke:#000000;stroke-width:0.6;" x="254.011429" xlink:href="#mabd15d77a8" y="294.88"/>
      </g>
     </g>
    </g>
    <g id="xtick_11">
     <g id="line2d_21">
      <path clip-path="url(#pdc27dc8c5e)" d="M 293.589714 294.88 
L 293.589714 24.84 
" style="fill:none;stroke:#b0b0b0;stroke-linecap:square;stroke-width:0.8;"/>
     </g>
     <g id="line2d_22">
      <g>
       <use style="stroke:#000000;stroke-width:0.6;" x="293.589714" xlink:href="#mabd15d77a8" y="294.88"/>
      </g>
     </g>
    </g>
    <g id="xtick_12">
     <g id="line2d_23">
      <path clip-path="url(#pdc27dc8c5e)" d="M 333.168 294.88 
L 333.168 24.84 
" style="fill:none;stroke:#b0b0b0;stroke-linecap:square;stroke-width:0.8;"/>
     </g>
     <g id="line2d_24">
      <g>
       <use style="stroke:#000000;stroke-width:0.6;" x="333.168" xlink:href="#mabd15d77a8" y="294.88"/>
      </g>
     </g>
    </g>
    <g id="text_5">
     <!-- log10(# f-evals / dimension) -->
     <defs>
      <path d="M 9.421875 75.984375 
L 18.40625 75.984375 
L 18.40625 0 
L 9.421875 0 
z
" id="DejaVuSans-6c"/>
      <path d="M 30.609375 48.390625 
Q 23.390625 48.390625 19.1875 42.75 
Q 14.984375 37.109375 14.984375 27.296875 
Q 14.984375 17.484375 19.15625 11.84375 
Q 23.34375 6.203125 30.609375 6.203125 
Q 37.796875 6.203125 41.984375 11.859375 
Q 46.1875 17.53125 46.1875 27.296875 
Q 46.1875 37.015625 41.984375 42.703125 
Q 37.796875 48.390625 30.609375 48.390625 
z
M 30.609375 56 
Q 42.328125 56 49.015625 48.375 
Q 55.71875 40.765625 55.71875 27.296875 
Q 55.71875 13.875 49.015625 6.21875 
Q 42.328125 -1.421875 30.609375 -1.421875 
Q 18.84375 -1.421875 12.171875 6.21875 
Q 5.515625 13.875 5.515625 27.296875 
Q 5.515625 40.765625 12.171875 48.375 
Q 18.84375 56 30.609375 56 
z
" id="DejaVuSans-6f"/>
      <path d="M 45.40625 27.984375 
Q 45.40625 37.75 41.375 43.109375 
Q 37.359375 48.484375 30.078125 48.484375 
Q 22.859375 48.484375 18.828125 43.109375 
Q 14.796875 37.75 14.796875 27.984375 
Q 14.796875 18.265625 18.828125 12.890625 
Q 22.859375 7.515625 30.078125 7.515625 
Q 37.359375 7.515625 41.375 12.890625 
Q 45.40625 18.265625 45.40625 27.984375 
z
M 54.390625 6.78125 
Q 54.390625 -7.171875 48.1875 -13.984375 
Q 42 -20.796875 29.203125 -20.796875 
Q 24.46875 -20.796875 20.265625 -20.09375 
Q 16.0625 -19.390625 12.109375 -17.921875 
L 12.109375 -9.1875 
Q 16.0625 -11.328125 19.921875 -12.34375 
Q 23.78125 -13.375 27.78125 -13.375 
Q 36.625 -13.375 41.015625 -8.765625 
Q 45.40625 -4.15625 45.40625 5.171875 
L 45.40625 9.625 
Q 42.625 4.78125 38.28125 2.390625 
Q 33.9375 0 27.875 0 
Q 17.828125 0 11.671875 7.65625 
Q 5.515625 15.328125 5.515625 27.984375 
Q 5.515625 40.671875 11.671875 48.328125 
Q 17.828125 56 27.875 56 
Q 33.9375 56 38.28125 53.609375 
Q 42.625 51.21875 45.40625 46.390625 
L 45.40625 54.6875 
L 54.390625 54.6875 
z
" id="DejaVuSans-67"/>
      <path d="M 12.40625 8.296875 
L 28.515625 8.296875 
L 28.515625 63.921875 
L 10.984375 60.40625 
L 10.984375 69.390625 
L 28.421875 72.90625 
L 38.28125 72.90625 
L 38.28125 8.296875 
L 54.390625 8.296875 
L 54.390625 0 
L 12.40625 0 
z
" id="DejaVuSans-31"/>
      <path d="M 31 75.875 
Q 24.46875 64.65625 21.28125 53.65625 
Q 18.109375 42.671875 18.109375 31.390625 
Q 18.109375 20.125 21.3125 9.0625 
Q 24.515625 -2 31 -13.1875 
L 23.1875 -13.1875 
Q 15.875 -1.703125 12.234375 9.375 
Q 8.59375 20.453125 8.59375 31.390625 
Q 8.59375 42.28125 12.203125 53.3125 
Q 15.828125 64.359375 23.1875 75.875 
z
" id="DejaVuSans-28"/>
      <path d="M 51.125 44 
L 36.921875 44 
L 32.8125 27.6875 
L 47.125 27.6875 
z
M 43.796875 71.78125 
L 38.71875 51.515625 
L 52.984375 51.515625 
L 58.109375 71.78125 
L 65.921875 71.78125 
L 60.890625 51.515625 
L 76.125 51.515625 
L 76.125 44 
L 58.984375 44 
L 54.984375 27.6875 
L 70.515625 27.6875 
L 70.515625 20.21875 
L 53.078125 20.21875 
L 48 0 
L 40.1875 0 
L 45.21875 20.21875 
L 30.90625 20.21875 
L 25.875 0 
L 18.015625 0 
L 23.09375 20.21875 
L 7.71875 20.21875 
L 7.71875 27.6875 
L 24.90625 27.6875 
L 29 44 
L 13.28125 44 
L 13.28125 51.515625 
L 30.90625 51.515625 
L 35.890625 71.78125 
z
" id="DejaVuSans-23"/>
      <path id="DejaVuSans-20"/>
      <path d="M 37.109375 75.984375 
L 37.109375 68.5 
L 28.515625 68.5 
Q 23.6875 68.5 21.796875 66.546875 
Q 19.921875 64.59375 19.921875 59.515625 
L 19.921875 54.6875 
L 34.71875 54.6875 
L 34.71875 47.703125 
L 19.921875 47.703125 
L 19.921875 0 
L 10.890625 0 
L 10.890625 47.703125 
L 2.296875 47.703125 
L 2.296875 54.6875 
L 10.890625 54.6875 
L 10.890625 58.5 
Q 10.890625 67.625 15.140625 71.796875 
Q 19.390625 75.984375 28.609375 75.984375 
z
" id="DejaVuSans-66"/>
      <path d="M 4.890625 31.390625 
L 31.203125 31.390625 
L 31.203125 23.390625 
L 4.890625 23.390625 
z
" id="DejaVuSans-2d"/>
      <path d="M 56.203125 29.59375 
L 56.203125 25.203125 
L 14.890625 25.203125 
Q 15.484375 15.921875 20.484375 11.0625 
Q 25.484375 6.203125 34.421875 6.203125 
Q 39.59375 6.203125 44.453125 7.46875 
Q 49.3125 8.734375 54.109375 11.28125 
L 54.109375 2.78125 
Q 49.265625 0.734375 44.1875 -0.34375 
Q 39.109375 -1.421875 33.890625 -1.421875 
Q 20.796875 -1.421875 13.15625 6.1875 
Q 5.515625 13.8125 5.515625 26.8125 
Q 5.515625 40.234375 12.765625 48.109375 
Q 20.015625 56 32.328125 56 
Q 43.359375 56 49.78125 48.890625 
Q 56.203125 41.796875 56.203125 29.59375 
z
M 47.21875 32.234375 
Q 47.125 39.59375 43.09375 43.984375 
Q 39.0625 48.390625 32.421875 48.390625 
Q 24.90625 48.390625 20.390625 44.140625 
Q 15.875 39.890625 15.1875 32.171875 
z
" id="DejaVuSans-65"/>
      <path d="M 2.984375 54.6875 
L 12.5 54.6875 
L 29.59375 8.796875 
L 46.6875 54.6875 
L 56.203125 54.6875 
L 35.6875 0 
L 23.484375 0 
z
" id="DejaVuSans-76"/>
      <path d="M 34.28125 27.484375 
Q 23.390625 27.484375 19.1875 25 
Q 14.984375 22.515625 14.984375 16.5 
Q 14.984375 11.71875 18.140625 8.90625 
Q 21.296875 6.109375 26.703125 6.109375 
Q 34.1875 6.109375 38.703125 11.40625 
Q 43.21875 16.703125 43.21875 25.484375 
L 43.21875 27.484375 
z
M 52.203125 31.203125 
L 52.203125 0 
L 43.21875 0 
L 43.21875 8.296875 
Q 40.140625 3.328125 35.546875 0.953125 
Q 30.953125 -1.421875 24.3125 -1.421875 
Q 15.921875 -1.421875 10.953125 3.296875 
Q 6 8.015625 6 15.921875 
Q 6 25.140625 12.171875 29.828125 
Q 18.359375 34.515625 30.609375 34.515625 
L 43.21875 34.515625 
L 43.21875 35.40625 
Q 43.21875 41.609375 39.140625 45 
Q 35.0625 48.390625 27.6875 48.390625 
Q 23 48.390625 18.546875 47.265625 
Q 14.109375 46.140625 10.015625 43.890625 
L 10.015625 52.203125 
Q 14.9375 54.109375 19.578125 55.046875 
Q 24.21875 56 28.609375 56 
Q 40.484375 56 46.34375 49.84375 
Q 52.203125 43.703125 52.203125 31.203125 
z
" id="DejaVuSans-61"/>
      <path d="M 44.28125 53.078125 
L 44.28125 44.578125 
Q 40.484375 46.53125 36.375 47.5 
Q 32.28125 48.484375 27.875 48.484375 
Q 21.1875 48.484375 17.84375 46.4375 
Q 14.5 44.390625 14.5 40.28125 
Q 14.5 37.15625 16.890625 35.375 
Q 19.28125 33.59375 26.515625 31.984375 
L 29.59375 31.296875 
Q 39.15625 29.25 43.1875 25.515625 
Q 47.21875 21.78125 47.21875 15.09375 
Q 47.21875 7.46875 41.1875 3.015625 
Q 35.15625 -1.421875 24.609375 -1.421875 
Q 20.21875 -1.421875 15.453125 -0.5625 
Q 10.6875 0.296875 5.421875 2 
L 5.421875 11.28125 
Q 10.40625 8.6875 15.234375 7.390625 
Q 20.0625 6.109375 24.8125 6.109375 
Q 31.15625 6.109375 34.5625 8.28125 
Q 37.984375 10.453125 37.984375 14.40625 
Q 37.984375 18.0625 35.515625 20.015625 
Q 33.0625 21.96875 24.703125 23.78125 
L 21.578125 24.515625 
Q 13.234375 26.265625 9.515625 29.90625 
Q 5.8125 33.546875 5.8125 39.890625 
Q 5.8125 47.609375 11.28125 51.796875 
Q 16.75 56 26.8125 56 
Q 31.78125 56 36.171875 55.265625 
Q 40.578125 54.546875 44.28125 53.078125 
z
" id="DejaVuSans-73"/>
      <path d="M 25.390625 72.90625 
L 33.6875 72.90625 
L 8.296875 -9.28125 
L 0 -9.28125 
z
" id="DejaVuSans-2f"/>
      <path d="M 45.40625 46.390625 
L 45.40625 75.984375 
L 54.390625 75.984375 
L 54.390625 0 
L 45.40625 0 
L 45.40625 8.203125 
Q 42.578125 3.328125 38.25 0.953125 
Q 33.9375 -1.421875 27.875 -1.421875 
Q 17.96875 -1.421875 11.734375 6.484375 
Q 5.515625 14.40625 5.515625 27.296875 
Q 5.515625 40.1875 11.734375 48.09375 
Q 17.96875 56 27.875 56 
Q 33.9375 56 38.25 53.625 
Q 42.578125 51.265625 45.40625 46.390625 
z
M 14.796875 27.296875 
Q 14.796875 17.390625 18.875 11.75 
Q 22.953125 6.109375 30.078125 6.109375 
Q 37.203125 6.109375 41.296875 11.75 
Q 45.40625 17.390625 45.40625 27.296875 
Q 45.40625 37.203125 41.296875 42.84375 
Q 37.203125 48.484375 30.078125 48.484375 
Q 22.953125 48.484375 18.875 42.84375 
Q 14.796875 37.203125 14.796875 27.296875 
z
" id="DejaVuSans-64"/>
      <path d="M 9.421875 54.6875 
L 18.40625 54.6875 
L 18.40625 0 
L 9.421875 0 
z
M 9.421875 75.984375 
L 18.40625 75.984375 
L 18.40625 64.59375 
L 9.421875 64.59375 
z
" id="DejaVuSans-69"/>
      <path d="M 52 44.1875 
Q 55.375 50.25 60.0625 53.125 
Q 64.75 56 71.09375 56 
Q 79.640625 56 84.28125 50.015625 
Q 88.921875 44.046875 88.921875 33.015625 
L 88.921875 0 
L 79.890625 0 
L 79.890625 32.71875 
Q 79.890625 40.578125 77.09375 44.375 
Q 74.3125 48.1875 68.609375 48.1875 
Q 61.625 48.1875 57.5625 43.546875 
Q 53.515625 38.921875 53.515625 30.90625 
L 53.515625 0 
L 44.484375 0 
L 44.484375 32.71875 
Q 44.484375 40.625 41.703125 44.40625 
Q 38.921875 48.1875 33.109375 48.1875 
Q 26.21875 48.1875 22.15625 43.53125 
Q 18.109375 38.875 18.109375 30.90625 
L 18.109375 0 
L 9.078125 0 
L 9.078125 54.6875 
L 18.109375 54.6875 
L 18.109375 46.1875 
Q 21.1875 51.21875 25.484375 53.609375 
Q 29.78125 56 35.6875 56 
Q 41.65625 56 45.828125 52.96875 
Q 50 49.953125 52 44.1875 
z
" id="DejaVuSans-6d"/>
      <path d="M 54.890625 33.015625 
L 54.890625 0 
L 45.90625 0 
L 45.90625 32.71875 
Q 45.90625 40.484375 42.875 44.328125 
Q 39.84375 48.1875 33.796875 48.1875 
Q 26.515625 48.1875 22.3125 43.546875 
Q 18.109375 38.921875 18.109375 30.90625 
L 18.109375 0 
L 9.078125 0 
L 9.078125 54.6875 
L 18.109375 54.6875 
L 18.109375 46.1875 
Q 21.34375 51.125 25.703125 53.5625 
Q 30.078125 56 35.796875 56 
Q 45.21875 56 50.046875 50.171875 
Q 54.890625 44.34375 54.890625 33.015625 
z
" id="DejaVuSans-6e"/>
      <path d="M 8.015625 75.875 
L 15.828125 75.875 
Q 23.140625 64.359375 26.78125 53.3125 
Q 30.421875 42.28125 30.421875 31.390625 
Q 30.421875 20.453125 26.78125 9.375 
Q 23.140625 -1.703125 15.828125 -13.1875 
L 8.015625 -13.1875 
Q 14.5 -2 17.703125 9.0625 
Q 20.90625 20.125 20.90625 31.390625 
Q 20.90625 42.671875 17.703125 53.65625 
Q 14.5 64.65625 8.015625 75.875 
z
" id="DejaVuSans-29"/>
     </defs>
     <g transform="translate(73.803219 338.153594)scale(0.17 -0.17)">
      <use xlink:href="#DejaVuSans-6c"/>
      <use x="27.783203" xlink:href="#DejaVuSans-6f"/>
      <use x="88.964844" xlink:href="#DejaVuSans-67"/>
      <use x="152.441406" xlink:href="#DejaVuSans-31"/>
      <use x="216.064453" xlink:href="#DejaVuSans-30"/>
      <use x="279.6875" xlink:href="#DejaVuSans-28"/>
      <use x="318.701172" xlink:href="#DejaVuSans-23"/>
      <use x="402.490234" xlink:href="#DejaVuSans-20"/>
      <use x="434.277344" xlink:href="#DejaVuSans-66"/>
      <use x="469.404297" xlink:href="#DejaVuSans-2d"/>
      <use x="505.488281" xlink:href="#DejaVuSans-65"/>
      <use x="567.011719" xlink:href="#DejaVuSans-76"/>
      <use x="626.191406" xlink:href="#DejaVuSans-61"/>
      <use x="687.470703" xlink:href="#DejaVuSans-6c"/>
      <use x="715.253906" xlink:href="#DejaVuSans-73"/>
      <use x="767.353516" xlink:href="#DejaVuSans-20"/>
      <use x="799.140625" xlink:href="#DejaVuSans-2f"/>
      <use x="832.832031" xlink:href="#DejaVuSans-20"/>
      <use x="864.619141" xlink:href="#DejaVuSans-64"/>
      <use x="928.095703" xlink:href="#DejaVuSans-69"/>
      <use x="955.878906" xlink:href="#DejaVuSans-6d"/>
      <use x="1053.291016" xlink:href="#DejaVuSans-65"/>
      <use x="1114.814453" xlink:href="#DejaVuSans-6e"/>
      <use x="1178.193359" xlink:href="#DejaVuSans-73"/>
      <use x="1230.292969" xlink:href="#DejaVuSans-69"/>
      <use x="1258.076172" xlink:href="#DejaVuSans-6f"/>
      <use x="1319.257812" xlink:href="#DejaVuSans-6e"/>
      <use x="1382.636719" xlink:href="#DejaVuSans-29"/>
     </g>
    </g>
   </g>
   <g id="matplotlib.axis_2">
    <g id="ytick_1">
     <g id="line2d_25">
      <path clip-path="url(#pdc27dc8c5e)" d="M 56.12 294.88 
L 333.168 294.88 
" style="fill:none;stroke:#b0b0b0;stroke-linecap:square;stroke-width:0.8;"/>
     </g>
     <g id="line2d_26">
      <defs>
       <path d="M 0 0 
L -3.5 0 
" id="mc41e2e12d7" style="stroke:#000000;stroke-width:0.8;"/>
      </defs>
      <g>
       <use style="stroke:#000000;stroke-width:0.8;" x="56.12" xlink:href="#mc41e2e12d7" y="294.88"/>
      </g>
     </g>
     <g id="text_6">
      <!-- 0.0 -->
      <defs>
       <path d="M 10.6875 12.40625 
L 21 12.40625 
L 21 0 
L 10.6875 0 
z
" id="DejaVuSans-2e"/>
      </defs>
      <g transform="translate(23.675 300.95875)scale(0.16 -0.16)">
       <use xlink:href="#DejaVuSans-30"/>
       <use x="63.623047" xlink:href="#DejaVuSans-2e"/>
       <use x="95.410156" xlink:href="#DejaVuSans-30"/>
      </g>
     </g>
    </g>
    <g id="ytick_2">
     <g id="line2d_27">
      <path clip-path="url(#pdc27dc8c5e)" d="M 56.12 241.406733 
L 333.168 241.406733 
" style="fill:none;stroke:#b0b0b0;stroke-linecap:square;stroke-width:0.8;"/>
     </g>
     <g id="line2d_28">
      <g>
       <use style="stroke:#000000;stroke-width:0.8;" x="56.12" xlink:href="#mc41e2e12d7" y="241.406733"/>
      </g>
     </g>
     <g id="text_7">
      <!-- 0.2 -->
      <g transform="translate(23.675 247.485483)scale(0.16 -0.16)">
       <use xlink:href="#DejaVuSans-30"/>
       <use x="63.623047" xlink:href="#DejaVuSans-2e"/>
       <use x="95.410156" xlink:href="#DejaVuSans-32"/>
      </g>
     </g>
    </g>
    <g id="ytick_3">
     <g id="line2d_29">
      <path clip-path="url(#pdc27dc8c5e)" d="M 56.12 187.933465 
L 333.168 187.933465 
" style="fill:none;stroke:#b0b0b0;stroke-linecap:square;stroke-width:0.8;"/>
     </g>
     <g id="line2d_30">
      <g>
       <use style="stroke:#000000;stroke-width:0.8;" x="56.12" xlink:href="#mc41e2e12d7" y="187.933465"/>
      </g>
     </g>
     <g id="text_8">
      <!-- 0.4 -->
      <g transform="translate(23.675 194.012215)scale(0.16 -0.16)">
       <use xlink:href="#DejaVuSans-30"/>
       <use x="63.623047" xlink:href="#DejaVuSans-2e"/>
       <use x="95.410156" xlink:href="#DejaVuSans-34"/>
      </g>
     </g>
    </g>
    <g id="ytick_4">
     <g id="line2d_31">
      <path clip-path="url(#pdc27dc8c5e)" d="M 56.12 134.460198 
L 333.168 134.460198 
" style="fill:none;stroke:#b0b0b0;stroke-linecap:square;stroke-width:0.8;"/>
     </g>
     <g id="line2d_32">
      <g>
       <use style="stroke:#000000;stroke-width:0.8;" x="56.12" xlink:href="#mc41e2e12d7" y="134.460198"/>
      </g>
     </g>
     <g id="text_9">
      <!-- 0.6 -->
      <g transform="translate(23.675 140.538948)scale(0.16 -0.16)">
       <use xlink:href="#DejaVuSans-30"/>
       <use x="63.623047" xlink:href="#DejaVuSans-2e"/>
       <use x="95.410156" xlink:href="#DejaVuSans-36"/>
      </g>
     </g>
    </g>
    <g id="ytick_5">
     <g id="line2d_33">
      <path clip-path="url(#pdc27dc8c5e)" d="M 56.12 80.986931 
L 333.168 80.986931 
" style="fill:none;stroke:#b0b0b0;stroke-linecap:square;stroke-width:0.8;"/>
     </g>
     <g id="line2d_34">
      <g>
       <use style="stroke:#000000;stroke-width:0.8;" x="56.12" xlink:href="#mc41e2e12d7" y="80.986931"/>
      </g>
     </g>
     <g id="text_10">
      <!-- 0.8 -->
      <defs>
       <path d="M 31.78125 34.625 
Q 24.75 34.625 20.71875 30.859375 
Q 16.703125 27.09375 16.703125 20.515625 
Q 16.703125 13.921875 20.71875 10.15625 
Q 24.75 6.390625 31.78125 6.390625 
Q 38.8125 6.390625 42.859375 10.171875 
Q 46.921875 13.96875 46.921875 20.515625 
Q 46.921875 27.09375 42.890625 30.859375 
Q 38.875 34.625 31.78125 34.625 
z
M 21.921875 38.8125 
Q 15.578125 40.375 12.03125 44.71875 
Q 8.5 49.078125 8.5 55.328125 
Q 8.5 64.0625 14.71875 69.140625 
Q 20.953125 74.21875 31.78125 74.21875 
Q 42.671875 74.21875 48.875 69.140625 
Q 55.078125 64.0625 55.078125 55.328125 
Q 55.078125 49.078125 51.53125 44.71875 
Q 48 40.375 41.703125 38.8125 
Q 48.828125 37.15625 52.796875 32.3125 
Q 56.78125 27.484375 56.78125 20.515625 
Q 56.78125 9.90625 50.3125 4.234375 
Q 43.84375 -1.421875 31.78125 -1.421875 
Q 19.734375 -1.421875 13.25 4.234375 
Q 6.78125 9.90625 6.78125 20.515625 
Q 6.78125 27.484375 10.78125 32.3125 
Q 14.796875 37.15625 21.921875 38.8125 
z
M 18.3125 54.390625 
Q 18.3125 48.734375 21.84375 45.5625 
Q 25.390625 42.390625 31.78125 42.390625 
Q 38.140625 42.390625 41.71875 45.5625 
Q 45.3125 48.734375 45.3125 54.390625 
Q 45.3125 60.0625 41.71875 63.234375 
Q 38.140625 66.40625 31.78125 66.40625 
Q 25.390625 66.40625 21.84375 63.234375 
Q 18.3125 60.0625 18.3125 54.390625 
z
" id="DejaVuSans-38"/>
      </defs>
      <g transform="translate(23.675 87.065681)scale(0.16 -0.16)">
       <use xlink:href="#DejaVuSans-30"/>
       <use x="63.623047" xlink:href="#DejaVuSans-2e"/>
       <use x="95.410156" xlink:href="#DejaVuSans-38"/>
      </g>
     </g>
    </g>
    <g id="ytick_6">
     <g id="line2d_35">
      <path clip-path="url(#pdc27dc8c5e)" d="M 56.12 27.513663 
L 333.168 27.513663 
" style="fill:none;stroke:#b0b0b0;stroke-linecap:square;stroke-width:0.8;"/>
     </g>
     <g id="line2d_36">
      <g>
       <use style="stroke:#000000;stroke-width:0.8;" x="56.12" xlink:href="#mc41e2e12d7" y="27.513663"/>
      </g>
     </g>
     <g id="text_11">
      <!-- 1.0 -->
      <g transform="translate(23.675 33.592413)scale(0.16 -0.16)">
       <use xlink:href="#DejaVuSans-31"/>
       <use x="63.623047" xlink:href="#DejaVuSans-2e"/>
       <use x="95.410156" xlink:href="#DejaVuSans-30"/>
      </g>
     </g>
    </g>
    <g id="text_12">
     <!-- Fraction of function,target pairs -->
     <defs>
      <path d="M 9.8125 72.90625 
L 51.703125 72.90625 
L 51.703125 64.59375 
L 19.671875 64.59375 
L 19.671875 43.109375 
L 48.578125 43.109375 
L 48.578125 34.8125 
L 19.671875 34.8125 
L 19.671875 0 
L 9.8125 0 
z
" id="DejaVuSans-46"/>
      <path d="M 41.109375 46.296875 
Q 39.59375 47.171875 37.8125 47.578125 
Q 36.03125 48 33.890625 48 
Q 26.265625 48 22.1875 43.046875 
Q 18.109375 38.09375 18.109375 28.8125 
L 18.109375 0 
L 9.078125 0 
L 9.078125 54.6875 
L 18.109375 54.6875 
L 18.109375 46.1875 
Q 20.953125 51.171875 25.484375 53.578125 
Q 30.03125 56 36.53125 56 
Q 37.453125 56 38.578125 55.875 
Q 39.703125 55.765625 41.0625 55.515625 
z
" id="DejaVuSans-72"/>
      <path d="M 48.78125 52.59375 
L 48.78125 44.1875 
Q 44.96875 46.296875 41.140625 47.34375 
Q 37.3125 48.390625 33.40625 48.390625 
Q 24.65625 48.390625 19.8125 42.84375 
Q 14.984375 37.3125 14.984375 27.296875 
Q 14.984375 17.28125 19.8125 11.734375 
Q 24.65625 6.203125 33.40625 6.203125 
Q 37.3125 6.203125 41.140625 7.25 
Q 44.96875 8.296875 48.78125 10.40625 
L 48.78125 2.09375 
Q 45.015625 0.34375 40.984375 -0.53125 
Q 36.96875 -1.421875 32.421875 -1.421875 
Q 20.0625 -1.421875 12.78125 6.34375 
Q 5.515625 14.109375 5.515625 27.296875 
Q 5.515625 40.671875 12.859375 48.328125 
Q 20.21875 56 33.015625 56 
Q 37.15625 56 41.109375 55.140625 
Q 45.0625 54.296875 48.78125 52.59375 
z
" id="DejaVuSans-63"/>
      <path d="M 18.3125 70.21875 
L 18.3125 54.6875 
L 36.8125 54.6875 
L 36.8125 47.703125 
L 18.3125 47.703125 
L 18.3125 18.015625 
Q 18.3125 11.328125 20.140625 9.421875 
Q 21.96875 7.515625 27.59375 7.515625 
L 36.8125 7.515625 
L 36.8125 0 
L 27.59375 0 
Q 17.1875 0 13.234375 3.875 
Q 9.28125 7.765625 9.28125 18.015625 
L 9.28125 47.703125 
L 2.6875 47.703125 
L 2.6875 54.6875 
L 9.28125 54.6875 
L 9.28125 70.21875 
z
" id="DejaVuSans-74"/>
      <path d="M 8.5 21.578125 
L 8.5 54.6875 
L 17.484375 54.6875 
L 17.484375 21.921875 
Q 17.484375 14.15625 20.5 10.265625 
Q 23.53125 6.390625 29.59375 6.390625 
Q 36.859375 6.390625 41.078125 11.03125 
Q 45.3125 15.671875 45.3125 23.6875 
L 45.3125 54.6875 
L 54.296875 54.6875 
L 54.296875 0 
L 45.3125 0 
L 45.3125 8.40625 
Q 42.046875 3.421875 37.71875 1 
Q 33.40625 -1.421875 27.6875 -1.421875 
Q 18.265625 -1.421875 13.375 4.4375 
Q 8.5 10.296875 8.5 21.578125 
z
M 31.109375 56 
z
" id="DejaVuSans-75"/>
      <path d="M 11.71875 12.40625 
L 22.015625 12.40625 
L 22.015625 4 
L 14.015625 -11.625 
L 7.71875 -11.625 
L 11.71875 4 
z
" id="DejaVuSans-2c"/>
      <path d="M 18.109375 8.203125 
L 18.109375 -20.796875 
L 9.078125 -20.796875 
L 9.078125 54.6875 
L 18.109375 54.6875 
L 18.109375 46.390625 
Q 20.953125 51.265625 25.265625 53.625 
Q 29.59375 56 35.59375 56 
Q 45.5625 56 51.78125 48.09375 
Q 58.015625 40.1875 58.015625 27.296875 
Q 58.015625 14.40625 51.78125 6.484375 
Q 45.5625 -1.421875 35.59375 -1.421875 
Q 29.59375 -1.421875 25.265625 0.953125 
Q 20.953125 3.328125 18.109375 8.203125 
z
M 48.6875 27.296875 
Q 48.6875 37.203125 44.609375 42.84375 
Q 40.53125 48.484375 33.40625 48.484375 
Q 26.265625 48.484375 22.1875 42.84375 
Q 18.109375 37.203125 18.109375 27.296875 
Q 18.109375 17.390625 22.1875 11.75 
Q 26.265625 6.109375 33.40625 6.109375 
Q 40.53125 6.109375 44.609375 11.75 
Q 48.6875 17.390625 48.6875 27.296875 
z
" id="DejaVuSans-70"/>
     </defs>
     <g transform="translate(16.139531 294.999375)rotate(-90)scale(0.17 -0.17)">
      <use xlink:href="#DejaVuSans-46"/>
      <use x="57.410156" xlink:href="#DejaVuSans-72"/>
      <use x="98.523438" xlink:href="#DejaVuSans-61"/>
      <use x="159.802734" xlink:href="#DejaVuSans-63"/>
      <use x="214.783203" xlink:href="#DejaVuSans-74"/>
      <use x="253.992188" xlink:href="#DejaVuSans-69"/>
      <use x="281.775391" xlink:href="#DejaVuSans-6f"/>
      <use x="342.957031" xlink:href="#DejaVuSans-6e"/>
      <use x="406.335938" xlink:href="#DejaVuSans-20"/>
      <use x="438.123047" xlink:href="#DejaVuSans-6f"/>
      <use x="499.304688" xlink:href="#DejaVuSans-66"/>
      <use x="534.509766" xlink:href="#DejaVuSans-20"/>
      <use x="566.296875" xlink:href="#DejaVuSans-66"/>
      <use x="601.501953" xlink:href="#DejaVuSans-75"/>
      <use x="664.880859" xlink:href="#DejaVuSans-6e"/>
      <use x="728.259766" xlink:href="#DejaVuSans-63"/>
      <use x="783.240234" xlink:href="#DejaVuSans-74"/>
      <use x="822.449219" xlink:href="#DejaVuSans-69"/>
      <use x="850.232422" xlink:href="#DejaVuSans-6f"/>
      <use x="911.414062" xlink:href="#DejaVuSans-6e"/>
      <use x="974.792969" xlink:href="#DejaVuSans-2c"/>
      <use x="1006.580078" xlink:href="#DejaVuSans-74"/>
      <use x="1045.789062" xlink:href="#DejaVuSans-61"/>
      <use x="1107.068359" xlink:href="#DejaVuSans-72"/>
      <use x="1148.166016" xlink:href="#DejaVuSans-67"/>
      <use x="1211.642578" xlink:href="#DejaVuSans-65"/>
      <use x="1273.166016" xlink:href="#DejaVuSans-74"/>
      <use x="1312.375" xlink:href="#DejaVuSans-20"/>
      <use x="1344.162109" xlink:href="#DejaVuSans-70"/>
      <use x="1407.638672" xlink:href="#DejaVuSans-61"/>
      <use x="1468.917969" xlink:href="#DejaVuSans-69"/>
      <use x="1496.701172" xlink:href="#DejaVuSans-72"/>
      <use x="1537.814453" xlink:href="#DejaVuSans-73"/>
     </g>
    </g>
   </g>
   <g id="line2d_37">
    <defs>
     <path d="M 0 1.5 
C 0.397805 1.5 0.77937 1.341951 1.06066 1.06066 
C 1.341951 0.77937 1.5 0.397805 1.5 0 
C 1.5 -0.397805 1.341951 -0.77937 1.06066 -1.06066 
C 0.77937 -1.341951 0.397805 -1.5 0 -1.5 
C -0.397805 -1.5 -0.77937 -1.341951 -1.06066 -1.06066 
C -1.341951 -0.77937 -1.5 -0.397805 -1.5 0 
C -1.5 0.397805 -1.341951 0.77937 -1.06066 1.06066 
C -0.77937 1.341951 -0.397805 1.5 0 1.5 
z
" id="m9c4e937c3b" style="stroke:#00bfbf;"/>
    </defs>
    <g>
     <use style="fill:#00bfbf;stroke:#00bfbf;" x="196.752575" xlink:href="#m9c4e937c3b" y="27.513663"/>
     <use style="fill:#00bfbf;stroke:#00bfbf;" x="196.752575" xlink:href="#m9c4e937c3b" y="27.513663"/>
    </g>
   </g>
   <g id="line2d_38">
    <path d="M 104.819059 294.88 
L 104.819059 293.307257 
L 114.866043 293.307257 
L 114.866043 292.783009 
L 116.478659 292.783009 
L 116.478659 291.734514 
L 119.310576 291.734514 
L 119.310576 290.161771 
L 131.654565 290.161771 
L 131.654565 284.395046 
L 139.112104 284.395046 
L 139.112104 283.870798 
L 141.603867 283.870798 
L 141.603867 281.773807 
L 146.218456 281.773807 
L 146.218456 280.725312 
L 146.354335 280.725312 
L 146.444328 277.055578 
L 149.962801 277.055578 
L 149.962801 274.958587 
L 151.601053 274.958587 
L 151.601053 274.434339 
L 152.97432 274.434339 
L 152.97432 273.910091 
L 154.302858 273.910091 
L 154.302858 273.385844 
L 155.242663 273.385844 
L 155.242663 272.337348 
L 156.031271 272.337348 
L 156.031271 270.764605 
L 157.174289 270.764605 
L 157.174289 268.143366 
L 158.109956 268.143366 
L 158.109956 266.570623 
L 158.910606 266.570623 
L 158.910606 264.99788 
L 159.984587 264.99788 
L 159.984587 264.473632 
L 160.487508 264.473632 
L 160.487508 261.852394 
L 161.243814 261.852394 
L 161.243814 257.134164 
L 162.733095 257.134164 
L 162.733095 256.609917 
L 162.992095 256.609917 
L 162.992095 256.085669 
L 163.581669 256.085669 
L 163.64778 253.988678 
L 165.132385 253.988678 
L 165.132385 253.46443 
L 165.930625 253.46443 
L 165.945063 252.415935 
L 166.789884 252.415935 
L 166.789884 249.270448 
L 167.116518 249.270448 
L 167.116518 248.746201 
L 167.397319 248.746201 
L 167.397319 247.173458 
L 167.945522 247.173458 
L 167.945522 246.124962 
L 168.086256 246.124962 
L 168.086256 245.600714 
L 168.364314 245.600714 
L 168.364314 244.027971 
L 168.809832 244.027971 
L 168.809832 243.503724 
L 169.112563 243.503724 
L 169.112563 242.979476 
L 169.679273 242.979476 
L 169.679273 241.93098 
L 170.227893 241.93098 
L 170.250376 239.83399 
L 170.440308 239.83399 
L 170.440308 239.309742 
L 170.94396 239.309742 
L 170.94396 236.688503 
L 171.190358 236.688503 
L 171.190358 236.164255 
L 171.338628 236.164255 
L 171.338628 235.640008 
L 171.755342 235.640008 
L 171.755342 235.11576 
L 172.020888 235.11576 
L 172.020888 234.067265 
L 172.232412 234.067265 
L 172.232412 233.543017 
L 172.569455 233.543017 
L 172.569455 229.873283 
L 172.813131 229.873283 
L 172.813131 228.824787 
L 173.148576 228.824787 
L 173.148576 228.30054 
L 174.242475 228.30054 
L 174.242475 227.252044 
L 174.568879 227.252044 
L 174.568879 226.203549 
L 174.854857 226.203549 
L 174.949136 225.155053 
L 175.619669 225.155053 
L 175.619669 224.106558 
L 175.840197 224.106558 
L 175.840197 223.58231 
L 176.033873 223.58231 
L 176.033873 220.961072 
L 176.422647 220.961072 
L 176.430491 219.912576 
L 177.137183 219.912576 
L 177.137183 219.388328 
L 177.301955 219.388328 
L 177.301955 218.864081 
L 177.560881 218.864081 
L 177.560881 216.76709 
L 177.685251 216.76709 
L 177.728932 215.194347 
L 177.960044 215.194347 
L 178.003033 213.621604 
L 178.216382 213.621604 
L 178.24463 209.95187 
L 178.441074 209.95187 
L 178.441074 208.903374 
L 178.929361 208.903374 
L 179.003786 206.806383 
L 179.423936 206.806383 
L 179.423936 205.757888 
L 179.968623 205.757888 
L 180.045046 200.515411 
L 180.583016 200.515411 
L 180.613782 196.845677 
L 180.711862 196.845677 
L 180.736295 195.272933 
L 180.924483 195.272933 
L 180.924483 194.748686 
L 181.086726 194.748686 
L 181.086726 191.078952 
L 181.324306 191.078952 
L 181.394944 188.457713 
L 181.645707 188.457713 
L 181.645707 187.933465 
L 181.77835 187.933465 
L 181.875736 183.215236 
L 181.921375 183.215236 
L 181.921375 182.690988 
L 182.040603 182.690988 
L 182.040603 182.16674 
L 182.164627 182.16674 
L 182.164627 177.448511 
L 182.365666 177.448511 
L 182.365666 176.924263 
L 183.024649 176.924263 
L 183.024649 176.400016 
L 183.52489 176.400016 
L 183.597394 171.681786 
L 183.659298 171.681786 
L 183.659298 169.060547 
L 183.874222 169.060547 
L 183.965516 167.487804 
L 184.166673 167.487804 
L 184.266375 164.866566 
L 184.286247 164.866566 
L 184.296174 160.672584 
L 184.449314 160.672584 
L 184.527823 159.099841 
L 184.683774 159.099841 
L 184.722542 158.051345 
L 185.010546 158.051345 
L 185.086539 157.00285 
L 185.12441 157.00285 
L 185.176346 152.808868 
L 185.480082 152.808868 
L 185.493971 146.517896 
L 185.914565 146.517896 
L 185.914565 145.993648 
L 186.080857 145.993648 
L 186.080857 145.4694 
L 186.294218 145.4694 
L 186.399913 138.65418 
L 186.421851 138.65418 
L 186.421851 137.605684 
L 186.587673 137.605684 
L 186.587673 136.557189 
L 187.016554 136.557189 
L 187.113701 132.887455 
L 187.155768 132.887455 
L 187.256311 128.693473 
L 187.268838 128.693473 
L 187.372873 126.072235 
L 187.58727 126.072235 
L 187.58727 125.547987 
L 187.843487 125.547987 
L 187.843487 123.975244 
L 187.972181 123.975244 
L 188.072057 120.829757 
L 188.123765 120.829757 
L 188.206964 116.111528 
L 188.242498 116.111528 
L 188.242498 115.063032 
L 188.360418 115.063032 
L 188.360418 114.538785 
L 188.500861 114.538785 
L 188.597721 111.393298 
L 188.766879 111.393298 
L 188.85845 105.626573 
L 188.892664 105.626573 
L 188.892664 103.529583 
L 189.047671 103.529583 
L 189.137762 97.762858 
L 189.205022 97.762858 
L 189.312835 94.093124 
L 189.515468 94.093124 
L 189.624996 91.471885 
L 189.751904 91.471885 
L 189.784386 89.899142 
L 189.870707 89.899142 
L 189.870707 88.326399 
L 189.988695 88.326399 
L 190.095259 83.608169 
L 190.239835 83.608169 
L 190.299427 79.938435 
L 190.566784 79.938435 
L 190.597764 78.365692 
L 190.751831 78.365692 
L 190.751831 77.317197 
L 191.015652 77.317197 
L 191.109378 75.744454 
L 191.162707 75.744454 
L 191.249016 74.17171 
L 191.35465 74.17171 
L 191.407225 72.598967 
L 191.534706 72.598967 
L 191.635367 67.880738 
L 191.683863 67.880738 
L 191.696772 63.686756 
L 191.873298 63.686756 
L 191.981523 61.065517 
L 192.010057 61.065517 
L 192.073297 58.968526 
L 192.261633 58.968526 
L 192.261633 58.444279 
L 192.484946 58.444279 
L 192.484946 57.395783 
L 192.671897 57.395783 
L 192.726677 53.726049 
L 192.889976 53.726049 
L 192.908025 51.104811 
L 193.129084 51.104811 
L 193.226756 45.862334 
L 193.247403 45.862334 
L 193.247403 45.338086 
L 193.475807 45.338086 
L 193.475807 44.813838 
L 193.609098 44.813838 
L 193.609098 43.241095 
L 193.792843 43.241095 
L 193.832777 40.619856 
L 193.932207 40.619856 
L 193.932207 40.095609 
L 194.047956 40.095609 
L 194.053583 38.522865 
L 194.160136 38.522865 
L 194.210378 35.901627 
L 194.329812 35.901627 
L 194.329812 35.377379 
L 194.563487 35.377379 
L 194.631615 33.804636 
L 194.901458 33.804636 
L 194.928211 30.65915 
L 196.060914 30.65915 
L 196.060914 30.134902 
L 196.366024 30.134902 
L 196.366024 29.610654 
L 196.503161 29.610654 
L 196.503161 29.086407 
L 196.752575 29.086407 
L 196.752575 27.513663 
L 333.168 27.513663 
L 333.168 27.513663 
" style="fill:none;stroke:#00bfbf;stroke-linecap:square;stroke-width:1.5;"/>
   </g>
   <g id="line2d_39">
    <defs>
     <path d="M -6 0 
L 6 0 
M 0 6 
L 0 -6 
" id="m25d86fa9ae" style="stroke:#00bfbf;stroke-width:1.5;"/>
    </defs>
    <g>
     <use style="fill-opacity:0;stroke:#00bfbf;stroke-width:1.5;" x="170.227893" xlink:href="#m25d86fa9ae" y="240.358237"/>
     <use style="fill-opacity:0;stroke:#00bfbf;stroke-width:1.5;" x="188.597721" xlink:href="#m25d86fa9ae" y="111.393298"/>
     <use style="fill-opacity:0;stroke:#00bfbf;stroke-width:1.5;" x="196.752575" xlink:href="#m25d86fa9ae" y="29.086407"/>
     <use style="fill-opacity:0;stroke:#00bfbf;stroke-width:1.5;" x="196.752575" xlink:href="#m25d86fa9ae" y="27.513663"/>
     <use style="fill-opacity:0;stroke:#00bfbf;stroke-width:1.5;" x="333.168" xlink:href="#m25d86fa9ae" y="27.513663"/>
    </g>
   </g>
   <g id="line2d_40">
    <path style="fill:none;stroke:#00bfbf;stroke-linecap:square;stroke-width:1.5;"/>
    <g/>
   </g>
   <g id="line2d_41">
    <defs>
     <path d="M 0 1.5 
C 0.397805 1.5 0.77937 1.341951 1.06066 1.06066 
C 1.341951 0.77937 1.5 0.397805 1.5 0 
C 1.5 -0.397805 1.341951 -0.77937 1.06066 -1.06066 
C 0.77937 -1.341951 0.397805 -1.5 0 -1.5 
C -0.397805 -1.5 -0.77937 -1.341951 -1.06066 -1.06066 
C -1.341951 -0.77937 -1.5 -0.397805 -1.5 0 
C -1.5 0.397805 -1.341951 0.77937 -1.06066 1.06066 
C -0.77937 1.341951 -0.397805 1.5 0 1.5 
z
" id="ma0e388807c" style="stroke:#008000;"/>
    </defs>
    <g>
     <use style="fill:#008000;stroke:#008000;" x="195.592419" xlink:href="#ma0e388807c" y="27.513663"/>
     <use style="fill:#008000;stroke:#008000;" x="195.592419" xlink:href="#ma0e388807c" y="27.513663"/>
    </g>
   </g>
   <g id="line2d_42">
    <path d="M 61.064861 294.88 
L 61.064861 293.831505 
L 112.341186 293.831505 
L 112.341186 292.783009 
L 122.298767 292.783009 
L 122.298767 292.258761 
L 125.412295 292.258761 
L 125.412295 291.734514 
L 135.560688 291.734514 
L 135.560688 289.637523 
L 139.874176 289.637523 
L 139.874176 288.589027 
L 140.26435 288.589027 
L 140.26435 288.06478 
L 141.182408 288.06478 
L 141.182408 286.492036 
L 144.56504 286.492036 
L 144.56504 285.967789 
L 144.993542 285.967789 
L 144.993542 284.919293 
L 146.309161 284.919293 
L 146.309161 284.395046 
L 147.333468 284.395046 
L 147.333468 283.34655 
L 147.446737 283.34655 
L 147.446737 281.249559 
L 152.306716 281.249559 
L 152.327976 279.676816 
L 153.258436 279.676816 
L 153.258436 279.152568 
L 155.197773 279.152568 
L 155.197773 278.104073 
L 155.483068 278.104073 
L 155.483068 274.958587 
L 155.746298 274.958587 
L 155.798464 273.910091 
L 156.022705 273.910091 
L 156.022705 272.861596 
L 157.405119 272.861596 
L 157.405119 271.288853 
L 157.546849 271.288853 
L 157.546849 270.764605 
L 157.826851 270.764605 
L 157.826851 270.240357 
L 158.448103 270.240357 
L 158.448103 268.667614 
L 158.888862 268.667614 
L 158.990099 267.619119 
L 159.105074 267.619119 
L 159.105074 266.570623 
L 159.599237 266.570623 
L 159.599237 265.522128 
L 160.533705 265.522128 
L 160.533705 264.99788 
L 160.743325 264.99788 
L 160.743325 264.473632 
L 161.167758 264.473632 
L 161.243814 261.852394 
L 162.083052 261.852394 
L 162.083052 260.279651 
L 162.393411 260.279651 
L 162.452458 258.18266 
L 162.848688 258.18266 
L 162.860205 257.134164 
L 163.156961 257.134164 
L 163.24725 255.561421 
L 163.548519 255.561421 
L 163.548519 255.037173 
L 164.505781 255.037173 
L 164.505781 254.512926 
L 164.661995 254.512926 
L 164.661995 253.988678 
L 164.785952 253.988678 
L 164.785952 252.940182 
L 165.501618 252.940182 
L 165.550912 251.891687 
L 165.668643 251.891687 
L 165.707708 250.843192 
L 165.959489 250.843192 
L 165.959489 250.318944 
L 166.141179 250.318944 
L 166.141179 249.794696 
L 166.386735 249.794696 
L 166.386735 249.270448 
L 166.665777 249.270448 
L 166.665777 248.746201 
L 166.876683 248.746201 
L 166.876683 248.221953 
L 167.003805 248.221953 
L 167.003805 247.173458 
L 167.174838 247.173458 
L 167.174838 245.076467 
L 167.290887 245.076467 
L 167.290887 244.027971 
L 167.669255 244.027971 
L 167.669255 242.455228 
L 167.954084 242.455228 
L 167.954084 241.93098 
L 168.666712 241.93098 
L 168.666712 241.406733 
L 169.413987 241.406733 
L 169.413987 239.83399 
L 169.671528 239.83399 
L 169.725666 238.261246 
L 170.414363 238.261246 
L 170.414363 237.736999 
L 170.562096 237.736999 
L 170.562096 236.688503 
L 170.759542 236.688503 
L 170.759542 235.640008 
L 171.154866 235.640008 
L 171.154866 234.067265 
L 171.464706 234.067265 
L 171.464706 233.018769 
L 172.579268 233.018769 
L 172.670593 229.873283 
L 173.452752 229.873283 
L 173.452752 228.824787 
L 173.724125 228.824787 
L 173.779109 224.630806 
L 173.846074 224.630806 
L 173.912779 223.058063 
L 174.484198 223.058063 
L 174.536808 221.485319 
L 174.641546 221.485319 
L 174.641546 220.961072 
L 175.133337 220.961072 
L 175.133337 220.436824 
L 175.296051 220.436824 
L 175.296051 216.76709 
L 175.540022 216.76709 
L 175.540022 216.242842 
L 175.764285 216.242842 
L 175.851014 214.670099 
L 175.948064 214.670099 
L 176.017817 213.097356 
L 176.183016 213.097356 
L 176.183016 212.573108 
L 176.399096 212.573108 
L 176.399096 210.476117 
L 176.617665 210.476117 
L 176.648663 206.806383 
L 177.061761 206.806383 
L 177.112079 205.23364 
L 177.361483 205.23364 
L 177.361483 204.709392 
L 177.489757 204.709392 
L 177.489757 204.185145 
L 177.907354 204.185145 
L 177.907354 203.136649 
L 178.083943 203.136649 
L 178.083943 202.612401 
L 178.202241 202.612401 
L 178.305674 199.466915 
L 178.427116 199.466915 
L 178.427116 198.942667 
L 178.556947 198.942667 
L 178.621497 196.321429 
L 178.922579 196.321429 
L 179.012785 192.127447 
L 179.066682 192.127447 
L 179.066682 191.603199 
L 179.368946 191.603199 
L 179.368946 191.078952 
L 179.483128 191.078952 
L 179.592207 188.981961 
L 179.700598 188.981961 
L 179.769612 187.409218 
L 179.838349 187.409218 
L 179.915352 185.312227 
L 180.169563 185.312227 
L 180.173768 184.263731 
L 180.295273 184.263731 
L 180.361944 179.021254 
L 180.882169 179.021254 
L 180.946606 177.448511 
L 181.082738 177.448511 
L 181.170253 176.400016 
L 181.269164 176.400016 
L 181.269164 175.35152 
L 181.543123 175.35152 
L 181.639917 171.681786 
L 181.678483 171.681786 
L 181.705427 170.633291 
L 181.900472 170.633291 
L 181.900472 170.109043 
L 182.070751 170.109043 
L 182.070751 168.012052 
L 182.246816 168.012052 
L 182.324904 166.963557 
L 182.630112 166.963557 
L 182.681063 165.390813 
L 182.764441 165.390813 
L 182.764441 163.81807 
L 182.972922 163.81807 
L 182.983637 162.769575 
L 183.238813 162.769575 
L 183.326537 161.196832 
L 183.371977 161.196832 
L 183.385935 159.099841 
L 183.493723 159.099841 
L 183.57326 157.527098 
L 183.833491 157.527098 
L 183.843683 154.905859 
L 183.952022 154.905859 
L 184.056328 150.711877 
L 184.170006 150.711877 
L 184.170006 149.663382 
L 184.299481 149.663382 
L 184.345723 147.042143 
L 184.414853 147.042143 
L 184.51313 143.372409 
L 184.545765 143.372409 
L 184.614096 142.323914 
L 184.675687 142.323914 
L 184.782138 140.751171 
L 184.862347 140.751171 
L 184.948553 136.032941 
L 184.983551 136.032941 
L 185.072316 130.790464 
L 185.176346 130.790464 
L 185.251611 125.547987 
L 185.394955 125.547987 
L 185.484713 122.4025 
L 185.668944 122.4025 
L 185.717741 119.257014 
L 185.781577 119.257014 
L 185.887447 117.160023 
L 185.917576 117.160023 
L 186.001657 112.966042 
L 186.08533 112.966042 
L 186.150788 111.393298 
L 186.245556 111.393298 
L 186.330991 106.675069 
L 186.369152 106.675069 
L 186.474389 104.578078 
L 186.529672 104.578078 
L 186.529672 102.481087 
L 186.648365 102.481087 
L 186.749043 98.287105 
L 186.823453 98.287105 
L 186.908912 96.190115 
L 186.982634 96.190115 
L 187.01373 94.093124 
L 187.145961 94.093124 
L 187.240988 88.326399 
L 187.29942 88.326399 
L 187.385315 85.70516 
L 187.71111 85.70516 
L 187.749037 83.608169 
L 187.862315 83.608169 
L 187.89991 78.88994 
L 188.03883 78.88994 
L 188.139643 74.17171 
L 188.173997 74.17171 
L 188.181915 71.550472 
L 188.292385 71.550472 
L 188.329052 69.453481 
L 188.433384 69.453481 
L 188.526744 65.259499 
L 188.586126 65.259499 
L 188.599008 63.686756 
L 188.79873 63.686756 
L 188.902788 60.54127 
L 189.003705 60.54127 
L 189.071491 56.871536 
L 189.248476 56.871536 
L 189.342457 55.298792 
L 189.384336 55.298792 
L 189.487365 53.726049 
L 189.516689 53.726049 
L 189.516689 53.201802 
L 189.684337 53.201802 
L 189.684337 52.677554 
L 190.02429 52.677554 
L 190.095259 51.104811 
L 190.269073 51.104811 
L 190.32274 45.862334 
L 190.533447 45.862334 
L 190.636696 42.192599 
L 190.71202 42.192599 
L 190.764324 39.571361 
L 191.007818 39.571361 
L 191.007818 39.047113 
L 191.806111 39.047113 
L 191.806111 37.47437 
L 191.963533 37.47437 
L 191.963533 36.425875 
L 192.213699 36.425875 
L 192.242892 34.328884 
L 192.689161 34.328884 
L 192.689161 32.231893 
L 192.856837 32.231893 
L 192.856837 31.183397 
L 193.698345 31.183397 
L 193.698345 30.65915 
L 194.207591 30.65915 
L 194.207591 30.134902 
L 194.638866 30.134902 
L 194.638866 29.086407 
L 195.521978 29.086407 
L 195.592419 27.513663 
L 333.168 27.513663 
L 333.168 27.513663 
" style="fill:none;stroke:#008000;stroke-linecap:square;stroke-width:1.5;"/>
   </g>
   <g id="line2d_43">
    <defs>
     <path d="M -0 6 
L 6 -6 
L -6 -6 
z
" id="m9ea6c0e618" style="stroke:#008000;stroke-linejoin:miter;stroke-width:1.5;"/>
    </defs>
    <g>
     <use style="fill-opacity:0;stroke:#008000;stroke-linejoin:miter;stroke-width:1.5;" x="163.24725" xlink:href="#m9ea6c0e618" y="256.609917"/>
     <use style="fill-opacity:0;stroke:#008000;stroke-linejoin:miter;stroke-width:1.5;" x="187.145961" xlink:href="#m9ea6c0e618" y="93.044628"/>
     <use style="fill-opacity:0;stroke:#008000;stroke-linejoin:miter;stroke-width:1.5;" x="195.592419" xlink:href="#m9ea6c0e618" y="27.513663"/>
     <use style="fill-opacity:0;stroke:#008000;stroke-linejoin:miter;stroke-width:1.5;" x="195.592419" xlink:href="#m9ea6c0e618" y="27.513663"/>
     <use style="fill-opacity:0;stroke:#008000;stroke-linejoin:miter;stroke-width:1.5;" x="333.168" xlink:href="#m9ea6c0e618" y="27.513663"/>
    </g>
   </g>
   <g id="line2d_44">
    <path style="fill:none;stroke:#008000;stroke-linecap:square;stroke-width:1.5;"/>
    <g/>
   </g>
   <g id="line2d_45">
    <defs>
     <path d="M 0 1.5 
C 0.397805 1.5 0.77937 1.341951 1.06066 1.06066 
C 1.341951 0.77937 1.5 0.397805 1.5 0 
C 1.5 -0.397805 1.341951 -0.77937 1.06066 -1.06066 
C 0.77937 -1.341951 0.397805 -1.5 0 -1.5 
C -0.397805 -1.5 -0.77937 -1.341951 -1.06066 -1.06066 
C -1.341951 -0.77937 -1.5 -0.397805 -1.5 0 
C -1.5 0.397805 -1.341951 0.77937 -1.06066 1.06066 
C -0.77937 1.341951 -0.397805 1.5 0 1.5 
z
" id="m9aada81767" style="stroke:#0000ff;"/>
    </defs>
    <g>
     <use style="fill:#0000ff;stroke:#0000ff;" x="237.498987" xlink:href="#m9aada81767" y="27.513663"/>
     <use style="fill:#0000ff;stroke:#0000ff;" x="237.498987" xlink:href="#m9aada81767" y="27.513663"/>
    </g>
   </g>
   <g id="line2d_46">
    <path d="M 129.437982 294.88 
L 129.437982 293.831505 
L 131.654565 293.831505 
L 131.654565 292.258761 
L 132.156459 292.258761 
L 132.156459 290.161771 
L 138.581462 290.161771 
L 138.581462 289.113275 
L 140.687737 289.113275 
L 140.687737 288.589027 
L 143.462385 288.589027 
L 143.462385 288.06478 
L 145.245608 288.06478 
L 145.245608 287.016284 
L 146.072324 287.016284 
L 146.072324 286.492036 
L 146.218456 286.492036 
L 146.218456 285.967789 
L 148.782132 285.967789 
L 148.782132 285.443541 
L 149.741959 285.443541 
L 149.741959 284.395046 
L 149.889502 284.395046 
L 149.889502 282.822302 
L 150.594702 282.822302 
L 150.594702 282.298055 
L 150.874425 282.298055 
L 150.874425 281.773807 
L 153.434649 281.773807 
L 153.434649 281.249559 
L 154.194556 281.249559 
L 154.194556 279.676816 
L 154.523047 279.676816 
L 154.534263 277.579825 
L 155.525456 277.579825 
L 155.525456 277.055578 
L 156.392294 277.055578 
L 156.392294 276.007082 
L 156.592397 276.007082 
L 156.592397 275.482834 
L 156.898024 275.482834 
L 156.898024 274.958587 
L 158.241496 274.958587 
L 158.241496 274.434339 
L 158.376521 274.434339 
L 158.41235 272.861596 
L 158.80161 272.861596 
L 158.80161 271.8131 
L 159.462297 271.8131 
L 159.462297 270.240357 
L 159.604803 270.240357 
L 159.604803 269.716109 
L 159.935523 269.716109 
L 159.935523 269.191862 
L 160.227826 269.191862 
L 160.227826 268.667614 
L 160.696383 268.667614 
L 160.696383 267.619119 
L 161.394923 267.619119 
L 161.417476 266.570623 
L 161.862418 266.570623 
L 161.862418 266.046375 
L 162.21026 266.046375 
L 162.21026 265.522128 
L 163.226976 265.522128 
L 163.301196 264.473632 
L 163.739909 264.473632 
L 163.739909 263.949385 
L 163.903207 263.949385 
L 163.903207 263.425137 
L 164.019828 263.425137 
L 164.071407 262.376641 
L 164.257094 262.376641 
L 164.257094 261.852394 
L 164.390315 261.852394 
L 164.434493 260.279651 
L 164.666141 260.279651 
L 164.666141 259.755403 
L 165.651034 259.755403 
L 165.656906 257.658412 
L 165.936402 257.658412 
L 165.936402 257.134164 
L 166.22847 257.134164 
L 166.22847 255.561421 
L 166.687906 255.561421 
L 166.687906 255.037173 
L 166.951255 255.037173 
L 167.048979 253.988678 
L 167.221352 253.988678 
L 167.322886 252.940182 
L 167.529438 252.940182 
L 167.608225 251.891687 
L 167.971196 251.891687 
L 167.971196 250.843192 
L 168.251106 250.843192 
L 168.251106 249.794696 
L 168.386866 249.794696 
L 168.471797 248.221953 
L 168.521562 248.221953 
L 168.521562 247.697705 
L 168.73883 247.697705 
L 168.77804 246.124962 
L 169.03557 246.124962 
L 169.03557 245.600714 
L 169.22264 245.600714 
L 169.27028 244.027971 
L 169.341494 244.027971 
L 169.435989 242.979476 
L 169.707124 242.979476 
L 169.776554 240.358237 
L 170.110502 240.358237 
L 170.196366 238.785494 
L 170.667683 238.785494 
L 170.667683 238.261246 
L 171.032212 238.261246 
L 171.040797 236.688503 
L 171.639677 236.688503 
L 171.639677 236.164255 
L 171.878412 236.164255 
L 171.927394 233.018769 
L 172.125968 233.018769 
L 172.146102 231.970274 
L 172.274406 231.970274 
L 172.274406 230.921778 
L 172.421573 230.921778 
L 172.421573 229.873283 
L 173.116276 229.873283 
L 173.199753 228.824787 
L 173.48877 228.824787 
L 173.596373 227.776292 
L 173.600072 227.776292 
L 173.688597 226.203549 
L 173.835134 226.203549 
L 173.835134 225.155053 
L 173.976814 225.155053 
L 173.976814 224.106558 
L 174.221087 224.106558 
L 174.221087 223.058063 
L 174.370245 223.058063 
L 174.444342 221.485319 
L 174.751415 221.485319 
L 174.751415 220.961072 
L 174.923475 220.961072 
L 174.923475 220.436824 
L 175.175003 220.436824 
L 175.265869 218.864081 
L 175.452812 218.864081 
L 175.535617 215.718594 
L 175.621313 215.718594 
L 175.709856 214.145851 
L 176.088354 214.145851 
L 176.09795 211.524613 
L 176.215867 211.524613 
L 176.314042 209.95187 
L 176.4493 209.95187 
L 176.521213 206.806383 
L 176.564839 206.806383 
L 176.62697 204.185145 
L 176.732081 204.185145 
L 176.732081 203.136649 
L 176.955611 203.136649 
L 176.970815 202.088154 
L 177.140193 202.088154 
L 177.245212 200.515411 
L 177.417844 200.515411 
L 177.420805 199.466915 
L 177.711473 199.466915 
L 177.810175 196.845677 
L 177.856428 196.845677 
L 177.856428 196.321429 
L 178.011618 196.321429 
L 178.011618 195.797181 
L 178.292545 195.797181 
L 178.368371 194.224438 
L 178.51347 194.224438 
L 178.602157 188.457713 
L 178.643573 188.457713 
L 178.643573 187.933465 
L 178.797313 187.933465 
L 178.876392 184.787979 
L 178.957816 184.787979 
L 178.998384 183.215236 
L 179.157029 183.215236 
L 179.207807 182.16674 
L 179.348666 182.16674 
L 179.448953 179.545502 
L 179.475247 179.545502 
L 179.582636 175.875768 
L 179.69714 175.875768 
L 179.800578 172.730281 
L 179.81604 172.730281 
L 179.890577 170.633291 
L 179.990311 170.633291 
L 179.990311 170.109043 
L 180.145153 170.109043 
L 180.223312 167.487804 
L 180.648174 167.487804 
L 180.719196 165.915061 
L 180.804524 165.915061 
L 180.903943 163.293823 
L 181.060391 163.293823 
L 181.170253 157.527098 
L 181.201174 157.527098 
L 181.291242 154.905859 
L 181.394944 154.905859 
L 181.458272 152.28462 
L 181.516701 152.28462 
L 181.623694 149.139134 
L 181.628331 149.139134 
L 181.628331 148.614886 
L 181.85859 148.614886 
L 181.904274 144.945152 
L 182.042866 144.945152 
L 182.12864 138.129932 
L 182.189325 138.129932 
L 182.249797 135.508693 
L 182.305601 135.508693 
L 182.414454 131.314712 
L 182.445428 131.314712 
L 182.445428 130.790464 
L 182.592895 130.790464 
L 182.686876 127.12073 
L 182.704304 127.12073 
L 182.79768 124.499491 
L 182.849577 124.499491 
L 182.940021 121.878253 
L 182.961485 121.878253 
L 182.987207 120.30551 
L 183.130117 120.30551 
L 183.178904 117.160023 
L 183.25077 117.160023 
L 183.25077 115.58728 
L 183.366391 115.58728 
L 183.454163 114.014537 
L 183.543563 114.014537 
L 183.597394 110.869051 
L 183.792663 110.869051 
L 183.811047 109.296308 
L 183.941219 109.296308 
L 184.038204 103.005335 
L 184.120615 103.005335 
L 184.194648 100.384096 
L 184.254442 100.384096 
L 184.254442 99.859849 
L 184.414853 99.859849 
L 184.464062 95.665867 
L 184.569874 95.665867 
L 184.653669 93.044628 
L 184.771844 93.044628 
L 184.821968 88.850646 
L 184.900714 88.850646 
L 184.992448 84.132417 
L 185.022918 84.132417 
L 185.131029 78.88994 
L 185.153702 78.88994 
L 185.223426 77.317197 
L 185.397437 77.317197 
L 185.475449 74.17171 
L 185.71104 74.17171 
L 185.780363 71.550472 
L 185.824003 71.550472 
L 185.896491 68.404985 
L 186.002856 68.404985 
L 186.081752 66.307995 
L 186.129987 66.307995 
L 186.135338 64.735251 
L 186.265037 64.735251 
L 186.293334 62.638261 
L 186.409569 62.638261 
L 186.465644 58.968526 
L 186.563337 58.968526 
L 186.651826 54.250297 
L 186.68295 54.250297 
L 186.76567 51.104811 
L 186.825737 51.104811 
L 186.936737 48.483572 
L 195.287974 48.483572 
L 195.287974 47.959324 
L 195.475431 47.959324 
L 195.475431 47.435077 
L 196.22927 47.435077 
L 196.22927 46.910829 
L 196.693817 46.910829 
L 196.693817 46.386581 
L 196.94763 46.386581 
L 196.94763 45.862334 
L 197.246407 45.862334 
L 197.246407 45.338086 
L 197.36188 45.338086 
L 197.36188 44.28959 
L 197.564861 44.28959 
L 197.564861 43.765343 
L 197.819782 43.765343 
L 197.819782 43.241095 
L 198.165123 43.241095 
L 198.181943 41.668352 
L 198.418341 41.668352 
L 198.487153 39.571361 
L 198.610152 39.571361 
L 198.711697 38.522865 
L 198.826289 38.522865 
L 198.853541 36.425875 
L 204.942718 36.425875 
L 204.942718 35.377379 
L 205.217571 35.377379 
L 205.249861 34.328884 
L 205.367936 34.328884 
L 205.446978 33.280388 
L 205.482313 33.280388 
L 205.542966 32.231893 
L 205.659051 32.231893 
L 205.659051 31.707645 
L 210.259998 31.707645 
L 210.259998 31.183397 
L 213.988795 31.183397 
L 213.988795 30.65915 
L 214.258655 30.65915 
L 214.332813 29.086407 
L 214.433143 29.086407 
L 214.433143 28.562159 
L 217.729806 28.562159 
L 217.729806 28.037911 
L 237.498987 28.037911 
L 237.498987 27.513663 
L 333.168 27.513663 
L 333.168 27.513663 
" style="fill:none;stroke:#0000ff;stroke-linecap:square;stroke-width:1.5;"/>
   </g>
   <g id="line2d_47">
    <defs>
     <path d="M 0 -6 
L -1.347084 -1.854102 
L -5.706339 -1.854102 
L -2.179628 0.708204 
L -3.526712 4.854102 
L -0 2.291796 
L 3.526712 4.854102 
L 2.179628 0.708204 
L 5.706339 -1.854102 
L 1.347084 -1.854102 
z
" id="m0e8443a40b" style="stroke:#0000ff;stroke-linejoin:bevel;stroke-width:1.5;"/>
    </defs>
    <g>
     <use style="fill-opacity:0;stroke:#0000ff;stroke-linejoin:bevel;stroke-width:1.5;" x="172.146102" xlink:href="#m0e8443a40b" y="232.494521"/>
     <use style="fill-opacity:0;stroke:#0000ff;stroke-linejoin:bevel;stroke-width:1.5;" x="184.952375" xlink:href="#m0e8443a40b" y="87.802151"/>
     <use style="fill-opacity:0;stroke:#0000ff;stroke-linejoin:bevel;stroke-width:1.5;" x="237.498987" xlink:href="#m0e8443a40b" y="28.037911"/>
     <use style="fill-opacity:0;stroke:#0000ff;stroke-linejoin:bevel;stroke-width:1.5;" x="237.498987" xlink:href="#m0e8443a40b" y="27.513663"/>
     <use style="fill-opacity:0;stroke:#0000ff;stroke-linejoin:bevel;stroke-width:1.5;" x="333.168" xlink:href="#m0e8443a40b" y="27.513663"/>
    </g>
   </g>
   <g id="line2d_48">
    <path style="fill:none;stroke:#0000ff;stroke-linecap:square;stroke-width:1.5;"/>
    <g/>
   </g>
   <g id="line2d_49">
    <path clip-path="url(#pdc27dc8c5e)" d="M 186.941843 48.483572 
" style="fill:none;stroke:#0000ff;stroke-linecap:square;stroke-width:1.5;"/>
    <defs>
     <path d="M -12 12 
L 12 -12 
M -12 -12 
L 12 12 
" id="mdde92dd9a1" style="stroke:#0000ff;"/>
    </defs>
    <g clip-path="url(#pdc27dc8c5e)">
     <use style="fill:#0000ff;stroke:#0000ff;" x="186.941843" xlink:href="#mdde92dd9a1" y="48.483572"/>
    </g>
   </g>
   <g id="line2d_50">
    <defs>
     <path d="M 0 1.5 
C 0.397805 1.5 0.77937 1.341951 1.06066 1.06066 
C 1.341951 0.77937 1.5 0.397805 1.5 0 
C 1.5 -0.397805 1.341951 -0.77937 1.06066 -1.06066 
C 0.77937 -1.341951 0.397805 -1.5 0 -1.5 
C -0.397805 -1.5 -0.77937 -1.341951 -1.06066 -1.06066 
C -1.341951 -0.77937 -1.5 -0.397805 -1.5 0 
C -1.5 0.397805 -1.341951 0.77937 -1.06066 1.06066 
C -0.77937 1.341951 -0.397805 1.5 0 1.5 
z
" id="me8179879b0" style="stroke:#000000;"/>
    </defs>
    <g>
     <use style="stroke:#000000;" x="231.5379" xlink:href="#me8179879b0" y="242.455228"/>
     <use style="stroke:#000000;" x="231.5379" xlink:href="#me8179879b0" y="242.455228"/>
    </g>
   </g>
   <g id="line2d_51">
    <path d="M 134.646368 294.88 
L 134.646368 294.355752 
L 137.14763 294.355752 
L 137.14763 293.831505 
L 141.145798 293.831505 
L 141.145798 292.258761 
L 141.922075 292.258761 
L 141.922075 291.210266 
L 145.264845 291.210266 
L 145.264845 290.686018 
L 145.95267 290.686018 
L 145.95267 290.161771 
L 147.581683 290.161771 
L 147.581683 289.637523 
L 148.95363 289.637523 
L 148.95363 289.113275 
L 150.818844 289.113275 
L 150.818844 288.589027 
L 151.910766 288.589027 
L 151.910766 287.540532 
L 152.986593 287.540532 
L 152.986593 287.016284 
L 154.325572 287.016284 
L 154.38788 284.919293 
L 154.768126 284.919293 
L 154.768126 284.395046 
L 155.075074 284.395046 
L 155.075074 283.870798 
L 155.509573 283.870798 
L 155.604655 280.201064 
L 156.020991 280.201064 
L 156.020991 278.628321 
L 157.389299 278.628321 
L 157.389299 278.104073 
L 158.814726 278.104073 
L 158.814726 277.579825 
L 159.147992 277.579825 
L 159.147992 277.055578 
L 160.352164 277.055578 
L 160.352164 276.007082 
L 160.751137 276.007082 
L 160.751137 275.482834 
L 161.52233 275.482834 
L 161.52233 274.958587 
L 161.997317 274.958587 
L 162.029971 273.910091 
L 163.311292 273.910091 
L 163.311292 273.385844 
L 165.16262 273.385844 
L 165.16262 272.861596 
L 165.741817 272.861596 
L 165.832123 271.8131 
L 165.985426 271.8131 
L 165.985426 271.288853 
L 167.463505 271.288853 
L 167.463505 270.240357 
L 168.228375 270.240357 
L 168.258676 268.667614 
L 168.489231 268.667614 
L 168.489231 268.143366 
L 168.814718 268.143366 
L 168.814718 267.619119 
L 169.466589 267.619119 
L 169.466589 267.094871 
L 170.757361 267.094871 
L 170.757361 266.570623 
L 171.668666 266.570623 
L 171.668666 266.046375 
L 172.170232 266.046375 
L 172.170232 265.522128 
L 172.565528 265.522128 
L 172.565528 264.99788 
L 173.35425 264.99788 
L 173.35425 264.473632 
L 173.618552 264.473632 
L 173.618552 263.949385 
L 174.932032 263.949385 
L 174.932032 263.425137 
L 179.638682 263.425137 
L 179.638682 262.900889 
L 179.850778 262.900889 
L 179.850778 262.376641 
L 180.774098 262.376641 
L 180.774098 261.852394 
L 180.944998 261.852394 
L 181.041212 260.803898 
L 181.632966 260.803898 
L 181.632966 259.755403 
L 182.70757 259.755403 
L 182.70757 259.231155 
L 183.170429 259.231155 
L 183.170429 258.18266 
L 183.344378 258.18266 
L 183.344378 257.658412 
L 183.57257 257.658412 
L 183.57257 257.134164 
L 184.178668 257.134164 
L 184.178668 256.609917 
L 185.344298 256.609917 
L 185.344298 256.085669 
L 185.787644 256.085669 
L 185.787644 255.561421 
L 186.434125 255.561421 
L 186.434125 255.037173 
L 186.722636 255.037173 
L 186.722636 254.512926 
L 190.153941 254.512926 
L 190.153941 253.988678 
L 191.739947 253.988678 
L 191.739947 253.46443 
L 192.253514 253.46443 
L 192.253514 252.940182 
L 192.602258 252.940182 
L 192.602258 252.415935 
L 193.454268 252.415935 
L 193.454268 251.891687 
L 198.514514 251.891687 
L 198.604109 250.843192 
L 202.369737 250.843192 
L 202.369737 250.318944 
L 202.604279 250.318944 
L 202.604279 249.794696 
L 204.231363 249.794696 
L 204.231363 249.270448 
L 205.557663 249.270448 
L 205.557663 248.221953 
L 207.72991 248.221953 
L 207.72991 247.697705 
L 210.481194 247.697705 
L 210.481194 247.173458 
L 214.223544 247.173458 
L 214.223544 246.64921 
L 214.505526 246.64921 
L 214.505526 246.124962 
L 217.421718 246.124962 
L 217.421718 245.600714 
L 219.082017 245.600714 
L 219.082017 245.076467 
L 219.724197 245.076467 
L 219.724197 244.552219 
L 222.446636 244.552219 
L 222.446636 244.027971 
L 222.657348 244.027971 
L 222.657348 243.503724 
L 225.585724 243.503724 
L 225.585724 242.979476 
L 231.5379 242.979476 
L 231.5379 242.455228 
L 333.168 242.455228 
L 333.168 242.455228 
" style="fill:none;stroke:#000000;stroke-linecap:square;stroke-width:1.5;"/>
   </g>
   <g id="line2d_52">
    <defs>
     <path d="M 0 6 
C 1.591219 6 3.117479 5.367802 4.242641 4.242641 
C 5.367802 3.117479 6 1.591219 6 0 
C 6 -1.591219 5.367802 -3.117479 4.242641 -4.242641 
C 3.117479 -5.367802 1.591219 -6 0 -6 
C -1.591219 -6 -3.117479 -5.367802 -4.242641 -4.242641 
C -5.367802 -3.117479 -6 -1.591219 -6 0 
C -6 1.591219 -5.367802 3.117479 -4.242641 4.242641 
C -3.117479 5.367802 -1.591219 6 0 6 
z
" id="m53af161b62" style="stroke:#000000;stroke-width:1.5;"/>
    </defs>
    <g>
     <use style="fill-opacity:0;stroke:#000000;stroke-width:1.5;" x="207.72991" xlink:href="#m53af161b62" y="247.697705"/>
     <use style="fill-opacity:0;stroke:#000000;stroke-width:1.5;" x="231.5379" xlink:href="#m53af161b62" y="242.979476"/>
     <use style="fill-opacity:0;stroke:#000000;stroke-width:1.5;" x="231.5379" xlink:href="#m53af161b62" y="242.455228"/>
     <use style="fill-opacity:0;stroke:#000000;stroke-width:1.5;" x="231.5379" xlink:href="#m53af161b62" y="242.455228"/>
     <use style="fill-opacity:0;stroke:#000000;stroke-width:1.5;" x="333.168" xlink:href="#m53af161b62" y="242.455228"/>
    </g>
   </g>
   <g id="line2d_53">
    <path style="fill:none;stroke:#000000;stroke-linecap:square;stroke-width:1.5;"/>
    <g/>
   </g>
   <g id="line2d_54">
    <path clip-path="url(#pdc27dc8c5e)" d="M 175.027591 263.425137 
" style="fill:none;stroke:#000000;stroke-linecap:square;stroke-width:1.5;"/>
    <defs>
     <path d="M -12 12 
L 12 -12 
M -12 -12 
L 12 12 
" id="m6c06f59d3a" style="stroke:#000000;"/>
    </defs>
    <g clip-path="url(#pdc27dc8c5e)">
     <use style="stroke:#000000;" x="175.027591" xlink:href="#m6c06f59d3a" y="263.425137"/>
    </g>
   </g>
   <g id="line2d_55">
    <defs>
     <path d="M 0 1.5 
C 0.397805 1.5 0.77937 1.341951 1.06066 1.06066 
C 1.341951 0.77937 1.5 0.397805 1.5 0 
C 1.5 -0.397805 1.341951 -0.77937 1.06066 -1.06066 
C 0.77937 -1.341951 0.397805 -1.5 0 -1.5 
C -0.397805 -1.5 -0.77937 -1.341951 -1.06066 -1.06066 
C -1.341951 -0.77937 -1.5 -0.397805 -1.5 0 
C -1.5 0.397805 -1.341951 0.77937 -1.06066 1.06066 
C -0.77937 1.341951 -0.397805 1.5 0 1.5 
z
" id="mc72f7fbdfd" style="stroke:#ff0000;"/>
    </defs>
    <g>
     <use style="fill:#ff0000;stroke:#ff0000;" x="219.001563" xlink:href="#mc72f7fbdfd" y="279.152568"/>
     <use style="fill:#ff0000;stroke:#ff0000;" x="219.001563" xlink:href="#mc72f7fbdfd" y="279.152568"/>
    </g>
   </g>
   <g id="line2d_56">
    <path d="M 140.605991 294.88 
L 140.605991 294.355752 
L 142.848343 294.355752 
L 142.848343 293.831505 
L 149.295379 293.831505 
L 149.295379 292.783009 
L 152.368298 292.783009 
L 152.368298 291.734514 
L 152.96818 291.734514 
L 152.96818 290.686018 
L 153.935295 290.686018 
L 153.935295 290.161771 
L 155.274912 290.161771 
L 155.274912 289.637523 
L 158.465953 289.637523 
L 158.465953 289.113275 
L 159.871941 289.113275 
L 159.871941 288.06478 
L 162.554719 288.06478 
L 162.554719 287.540532 
L 167.004258 287.540532 
L 167.004258 287.016284 
L 169.471291 287.016284 
L 169.471291 286.492036 
L 171.457377 286.492036 
L 171.457377 285.967789 
L 173.483186 285.967789 
L 173.483186 285.443541 
L 174.75055 285.443541 
L 174.75055 284.919293 
L 179.70103 284.919293 
L 179.70103 284.395046 
L 180.982947 284.395046 
L 180.982947 283.870798 
L 184.818599 283.870798 
L 184.818599 283.34655 
L 192.251016 283.34655 
L 192.251016 282.822302 
L 192.801564 282.822302 
L 192.801564 282.298055 
L 196.133589 282.298055 
L 196.133589 281.773807 
L 198.482806 281.773807 
L 198.482806 281.249559 
L 208.262809 281.249559 
L 208.262809 280.201064 
L 213.568029 280.201064 
L 213.568029 279.676816 
L 219.001563 279.676816 
L 219.001563 279.152568 
L 333.168 279.152568 
" style="fill:none;stroke:#ff0000;stroke-linecap:square;stroke-width:1.5;"/>
   </g>
   <g id="line2d_57">
    <defs>
     <path d="M -6 6 
L 6 6 
L 6 -6 
L -6 -6 
z
" id="m46e8364533" style="stroke:#ff0000;stroke-linejoin:miter;stroke-width:1.5;"/>
    </defs>
    <g>
     <use style="fill-opacity:0;stroke:#ff0000;stroke-linejoin:miter;stroke-width:1.5;" x="184.818599" xlink:href="#m46e8364533" y="283.870798"/>
     <use style="fill-opacity:0;stroke:#ff0000;stroke-linejoin:miter;stroke-width:1.5;" x="219.001563" xlink:href="#m46e8364533" y="279.676816"/>
     <use style="fill-opacity:0;stroke:#ff0000;stroke-linejoin:miter;stroke-width:1.5;" x="219.001563" xlink:href="#m46e8364533" y="279.152568"/>
     <use style="fill-opacity:0;stroke:#ff0000;stroke-linejoin:miter;stroke-width:1.5;" x="219.001563" xlink:href="#m46e8364533" y="279.152568"/>
     <use style="fill-opacity:0;stroke:#ff0000;stroke-linejoin:miter;stroke-width:1.5;" x="333.168" xlink:href="#m46e8364533" y="279.152568"/>
    </g>
   </g>
   <g id="line2d_58">
    <path style="fill:none;stroke:#ff0000;stroke-linecap:square;stroke-width:1.5;"/>
    <g/>
   </g>
   <g id="line2d_59">
    <path clip-path="url(#pdc27dc8c5e)" d="M 163.11334 287.540532 
" style="fill:none;stroke:#ff0000;stroke-linecap:square;stroke-width:1.5;"/>
    <defs>
     <path d="M -12 12 
L 12 -12 
M -12 -12 
L 12 12 
" id="m9ec623ffaf" style="stroke:#ff0000;"/>
    </defs>
    <g clip-path="url(#pdc27dc8c5e)">
     <use style="fill:#ff0000;stroke:#ff0000;" x="163.11334" xlink:href="#m9ec623ffaf" y="287.540532"/>
    </g>
   </g>
   <g id="line2d_60">
    <path clip-path="url(#pdc27dc8c5e)" d="M 56.12 294.88 
L 56.12 294.88 
L 56.12 294.88 
L 56.12 294.88 
L 333.168 294.88 
" style="fill:none;stroke:#bf00bf;stroke-linecap:square;stroke-width:1.5;"/>
   </g>
   <g id="line2d_61">
    <defs>
     <path d="M -0 8.485281 
L 8.485281 0 
L 0 -8.485281 
L -8.485281 -0 
z
" id="m687aedd772" style="stroke:#bf00bf;stroke-linejoin:miter;stroke-width:1.5;"/>
    </defs>
    <g clip-path="url(#pdc27dc8c5e)">
     <use style="fill-opacity:0;stroke:#bf00bf;stroke-linejoin:miter;stroke-width:1.5;" x="56.12" xlink:href="#m687aedd772" y="294.88"/>
    </g>
   </g>
   <g id="line2d_62">
    <path clip-path="url(#pdc27dc8c5e)" style="fill:none;stroke:#bf00bf;stroke-linecap:square;stroke-width:1.5;"/>
    <g clip-path="url(#pdc27dc8c5e)">
     <use style="fill-opacity:0;stroke:#bf00bf;stroke-linejoin:miter;stroke-width:1.5;" x="-1" xlink:href="#m687aedd772" y="562.246337"/>
     <use style="fill-opacity:0;stroke:#bf00bf;stroke-linejoin:miter;stroke-width:1.5;" x="333.168" xlink:href="#m687aedd772" y="562.246337"/>
    </g>
   </g>
   <g id="line2d_63">
    <path d="M 333.168 294.88 
L 363.64328 289.532673 
" style="fill:none;stroke:#bf00bf;stroke-linecap:square;stroke-width:1.5;"/>
    <g>
     <use style="fill-opacity:0;stroke:#bf00bf;stroke-linejoin:miter;stroke-width:1.5;" x="333.168" xlink:href="#m687aedd772" y="294.88"/>
     <use style="fill-opacity:0;stroke:#bf00bf;stroke-linejoin:miter;stroke-width:1.5;" x="363.64328" xlink:href="#m687aedd772" y="289.532673"/>
    </g>
   </g>
   <g id="line2d_64">
    <path d="M 333.168 279.152568 
L 363.64328 238.198337 
" style="fill:none;stroke:#ff0000;stroke-linecap:square;stroke-width:1.5;"/>
    <g>
     <use style="fill-opacity:0;stroke:#ff0000;stroke-linejoin:miter;stroke-width:1.5;" x="333.168" xlink:href="#m46e8364533" y="279.152568"/>
     <use style="fill-opacity:0;stroke:#ff0000;stroke-linejoin:miter;stroke-width:1.5;" x="363.64328" xlink:href="#m46e8364533" y="238.198337"/>
    </g>
   </g>
   <g id="line2d_65">
    <path d="M 333.168 242.455228 
L 363.64328 186.864 
" style="fill:none;stroke:#000000;stroke-linecap:square;stroke-width:1.5;"/>
    <g>
     <use style="fill-opacity:0;stroke:#000000;stroke-width:1.5;" x="333.168" xlink:href="#m53af161b62" y="242.455228"/>
     <use style="fill-opacity:0;stroke:#000000;stroke-width:1.5;" x="363.64328" xlink:href="#m53af161b62" y="186.864"/>
    </g>
   </g>
   <g id="line2d_66">
    <path d="M 333.168 27.513663 
L 363.64328 135.529663 
" style="fill:none;stroke:#0000ff;stroke-linecap:square;stroke-width:1.5;"/>
    <g>
     <use style="fill-opacity:0;stroke:#0000ff;stroke-linejoin:bevel;stroke-width:1.5;" x="333.168" xlink:href="#m0e8443a40b" y="27.513663"/>
     <use style="fill-opacity:0;stroke:#0000ff;stroke-linejoin:bevel;stroke-width:1.5;" x="363.64328" xlink:href="#m0e8443a40b" y="135.529663"/>
    </g>
   </g>
   <g id="line2d_67">
    <path d="M 333.168 27.513663 
L 363.64328 84.195327 
" style="fill:none;stroke:#00bfbf;stroke-linecap:square;stroke-width:1.5;"/>
    <g>
     <use style="fill-opacity:0;stroke:#00bfbf;stroke-width:1.5;" x="333.168" xlink:href="#m25d86fa9ae" y="27.513663"/>
     <use style="fill-opacity:0;stroke:#00bfbf;stroke-width:1.5;" x="363.64328" xlink:href="#m25d86fa9ae" y="84.195327"/>
    </g>
   </g>
   <g id="line2d_68">
    <path d="M 333.168 27.513663 
L 363.64328 32.86099 
" style="fill:none;stroke:#008000;stroke-linecap:square;stroke-width:1.5;"/>
    <g>
     <use style="fill-opacity:0;stroke:#008000;stroke-linejoin:miter;stroke-width:1.5;" x="333.168" xlink:href="#m9ea6c0e618" y="27.513663"/>
     <use style="fill-opacity:0;stroke:#008000;stroke-linejoin:miter;stroke-width:1.5;" x="363.64328" xlink:href="#m9ea6c0e618" y="32.86099"/>
    </g>
   </g>
   <g id="line2d_69">
    <path d="M 333.168 294.88 
L 333.168 27.513663 
" style="fill:none;stroke:#000000;stroke-linecap:square;stroke-width:1.5;"/>
   </g>
   <g id="patch_3">
    <path d="M 56.12 294.88 
L 56.12 24.84 
" style="fill:none;stroke:#000000;stroke-linecap:square;stroke-linejoin:miter;stroke-width:0.8;"/>
   </g>
   <g id="patch_4">
    <path d="M 333.168 294.88 
L 333.168 24.84 
" style="fill:none;stroke:#000000;stroke-linecap:square;stroke-linejoin:miter;stroke-width:0.8;"/>
   </g>
   <g id="patch_5">
    <path d="M 56.12 294.88 
L 333.168 294.88 
" style="fill:none;stroke:#000000;stroke-linecap:square;stroke-linejoin:miter;stroke-width:0.8;"/>
   </g>
   <g id="patch_6">
    <path d="M 56.12 24.84 
L 333.168 24.84 
" style="fill:none;stroke:#000000;stroke-linecap:square;stroke-linejoin:miter;stroke-width:0.8;"/>
   </g>
   <g id="text_13">
    <!-- 40-D -->
    <defs>
     <path d="M 19.671875 64.796875 
L 19.671875 8.109375 
L 31.59375 8.109375 
Q 46.6875 8.109375 53.6875 14.9375 
Q 60.6875 21.78125 60.6875 36.53125 
Q 60.6875 51.171875 53.6875 57.984375 
Q 46.6875 64.796875 31.59375 64.796875 
z
M 9.8125 72.90625 
L 30.078125 72.90625 
Q 51.265625 72.90625 61.171875 64.09375 
Q 71.09375 55.28125 71.09375 36.53125 
Q 71.09375 17.671875 61.125 8.828125 
Q 51.171875 0 30.078125 0 
L 9.8125 0 
z
" id="DejaVuSans-44"/>
    </defs>
    <g transform="translate(369.18424 294.223611)scale(0.17 -0.17)">
     <use xlink:href="#DejaVuSans-34"/>
     <use x="63.623047" xlink:href="#DejaVuSans-30"/>
     <use x="127.246094" xlink:href="#DejaVuSans-2d"/>
     <use x="163.330078" xlink:href="#DejaVuSans-44"/>
    </g>
   </g>
   <g id="text_14">
    <!-- 20-D -->
    <g transform="translate(369.18424 242.889274)scale(0.17 -0.17)">
     <use xlink:href="#DejaVuSans-32"/>
     <use x="63.623047" xlink:href="#DejaVuSans-30"/>
     <use x="127.246094" xlink:href="#DejaVuSans-2d"/>
     <use x="163.330078" xlink:href="#DejaVuSans-44"/>
    </g>
   </g>
   <g id="text_15">
    <!-- 10-D -->
    <g transform="translate(369.18424 191.554937)scale(0.17 -0.17)">
     <use xlink:href="#DejaVuSans-31"/>
     <use x="63.623047" xlink:href="#DejaVuSans-30"/>
     <use x="127.246094" xlink:href="#DejaVuSans-2d"/>
     <use x="163.330078" xlink:href="#DejaVuSans-44"/>
    </g>
   </g>
   <g id="text_16">
    <!-- 5-D -->
    <defs>
     <path d="M 10.796875 72.90625 
L 49.515625 72.90625 
L 49.515625 64.59375 
L 19.828125 64.59375 
L 19.828125 46.734375 
Q 21.96875 47.46875 24.109375 47.828125 
Q 26.265625 48.1875 28.421875 48.1875 
Q 40.625 48.1875 47.75 41.5 
Q 54.890625 34.8125 54.890625 23.390625 
Q 54.890625 11.625 47.5625 5.09375 
Q 40.234375 -1.421875 26.90625 -1.421875 
Q 22.3125 -1.421875 17.546875 -0.640625 
Q 12.796875 0.140625 7.71875 1.703125 
L 7.71875 11.625 
Q 12.109375 9.234375 16.796875 8.0625 
Q 21.484375 6.890625 26.703125 6.890625 
Q 35.15625 6.890625 40.078125 11.328125 
Q 45.015625 15.765625 45.015625 23.390625 
Q 45.015625 31 40.078125 35.4375 
Q 35.15625 39.890625 26.703125 39.890625 
Q 22.75 39.890625 18.8125 39.015625 
Q 14.890625 38.140625 10.796875 36.28125 
z
" id="DejaVuSans-35"/>
    </defs>
    <g transform="translate(369.18424 140.220601)scale(0.17 -0.17)">
     <use xlink:href="#DejaVuSans-35"/>
     <use x="63.623047" xlink:href="#DejaVuSans-2d"/>
     <use x="99.707031" xlink:href="#DejaVuSans-44"/>
    </g>
   </g>
   <g id="text_17">
    <!-- 2-D -->
    <g transform="translate(369.18424 88.886264)scale(0.17 -0.17)">
     <use xlink:href="#DejaVuSans-32"/>
     <use x="63.623047" xlink:href="#DejaVuSans-2d"/>
     <use x="99.707031" xlink:href="#DejaVuSans-44"/>
    </g>
   </g>
   <g id="text_18">
    <!-- 3-D -->
    <defs>
     <path d="M 40.578125 39.3125 
Q 47.65625 37.796875 51.625 33 
Q 55.609375 28.21875 55.609375 21.1875 
Q 55.609375 10.40625 48.1875 4.484375 
Q 40.765625 -1.421875 27.09375 -1.421875 
Q 22.515625 -1.421875 17.65625 -0.515625 
Q 12.796875 0.390625 7.625 2.203125 
L 7.625 11.71875 
Q 11.71875 9.328125 16.59375 8.109375 
Q 21.484375 6.890625 26.8125 6.890625 
Q 36.078125 6.890625 40.9375 10.546875 
Q 45.796875 14.203125 45.796875 21.1875 
Q 45.796875 27.640625 41.28125 31.265625 
Q 36.765625 34.90625 28.71875 34.90625 
L 20.21875 34.90625 
L 20.21875 43.015625 
L 29.109375 43.015625 
Q 36.375 43.015625 40.234375 45.921875 
Q 44.09375 48.828125 44.09375 54.296875 
Q 44.09375 59.90625 40.109375 62.90625 
Q 36.140625 65.921875 28.71875 65.921875 
Q 24.65625 65.921875 20.015625 65.03125 
Q 15.375 64.15625 9.8125 62.3125 
L 9.8125 71.09375 
Q 15.4375 72.65625 20.34375 73.4375 
Q 25.25 74.21875 29.59375 74.21875 
Q 40.828125 74.21875 47.359375 69.109375 
Q 53.90625 64.015625 53.90625 55.328125 
Q 53.90625 49.265625 50.4375 45.09375 
Q 46.96875 40.921875 40.578125 39.3125 
z
" id="DejaVuSans-33"/>
    </defs>
    <g transform="translate(369.18424 37.551928)scale(0.17 -0.17)">
     <use xlink:href="#DejaVuSans-33"/>
     <use x="63.623047" xlink:href="#DejaVuSans-2d"/>
     <use x="99.707031" xlink:href="#DejaVuSans-44"/>
    </g>
   </g>
   <g id="text_19">
    <!-- bbob f11 -->
    <defs>
     <path d="M 48.6875 27.296875 
Q 48.6875 37.203125 44.609375 42.84375 
Q 40.53125 48.484375 33.40625 48.484375 
Q 26.265625 48.484375 22.1875 42.84375 
Q 18.109375 37.203125 18.109375 27.296875 
Q 18.109375 17.390625 22.1875 11.75 
Q 26.265625 6.109375 33.40625 6.109375 
Q 40.53125 6.109375 44.609375 11.75 
Q 48.6875 17.390625 48.6875 27.296875 
z
M 18.109375 46.390625 
Q 20.953125 51.265625 25.265625 53.625 
Q 29.59375 56 35.59375 56 
Q 45.5625 56 51.78125 48.09375 
Q 58.015625 40.1875 58.015625 27.296875 
Q 58.015625 14.40625 51.78125 6.484375 
Q 45.5625 -1.421875 35.59375 -1.421875 
Q 29.59375 -1.421875 25.265625 0.953125 
Q 20.953125 3.328125 18.109375 8.203125 
L 18.109375 0 
L 9.078125 0 
L 9.078125 75.984375 
L 18.109375 75.984375 
z
" id="DejaVuSans-62"/>
    </defs>
    <g transform="translate(58.89048 35.290806)scale(0.102 -0.102)">
     <use xlink:href="#DejaVuSans-62"/>
     <use x="63.476562" xlink:href="#DejaVuSans-62"/>
     <use x="126.953125" xlink:href="#DejaVuSans-6f"/>
     <use x="188.134766" xlink:href="#DejaVuSans-62"/>
     <use x="251.611328" xlink:href="#DejaVuSans-20"/>
     <use x="283.398438" xlink:href="#DejaVuSans-66"/>
     <use x="318.603516" xlink:href="#DejaVuSans-31"/>
     <use x="382.226562" xlink:href="#DejaVuSans-31"/>
    </g>
    <!-- 51 targets: 100..1e-08 -->
    <defs>
     <path d="M 11.71875 12.40625 
L 22.015625 12.40625 
L 22.015625 0 
L 11.71875 0 
z
M 11.71875 51.703125 
L 22.015625 51.703125 
L 22.015625 39.3125 
L 11.71875 39.3125 
z
" id="DejaVuSans-3a"/>
    </defs>
    <g transform="translate(58.89048 46.712575)scale(0.102 -0.102)">
     <use xlink:href="#DejaVuSans-35"/>
     <use x="63.623047" xlink:href="#DejaVuSans-31"/>
     <use x="127.246094" xlink:href="#DejaVuSans-20"/>
     <use x="159.033203" xlink:href="#DejaVuSans-74"/>
     <use x="198.242188" xlink:href="#DejaVuSans-61"/>
     <use x="259.521484" xlink:href="#DejaVuSans-72"/>
     <use x="300.619141" xlink:href="#DejaVuSans-67"/>
     <use x="364.095703" xlink:href="#DejaVuSans-65"/>
     <use x="425.619141" xlink:href="#DejaVuSans-74"/>
     <use x="464.828125" xlink:href="#DejaVuSans-73"/>
     <use x="516.927734" xlink:href="#DejaVuSans-3a"/>
     <use x="550.619141" xlink:href="#DejaVuSans-20"/>
     <use x="582.40625" xlink:href="#DejaVuSans-31"/>
     <use x="646.029297" xlink:href="#DejaVuSans-30"/>
     <use x="709.652344" xlink:href="#DejaVuSans-30"/>
     <use x="773.275391" xlink:href="#DejaVuSans-2e"/>
     <use x="805.0625" xlink:href="#DejaVuSans-2e"/>
     <use x="836.849609" xlink:href="#DejaVuSans-31"/>
     <use x="900.472656" xlink:href="#DejaVuSans-65"/>
     <use x="961.996094" xlink:href="#DejaVuSans-2d"/>
     <use x="998.080078" xlink:href="#DejaVuSans-30"/>
     <use x="1061.703125" xlink:href="#DejaVuSans-38"/>
    </g>
    <!-- 15 instances -->
    <g transform="translate(58.89048 58.134344)scale(0.102 -0.102)">
     <use xlink:href="#DejaVuSans-31"/>
     <use x="63.623047" xlink:href="#DejaVuSans-35"/>
     <use x="127.246094" xlink:href="#DejaVuSans-20"/>
     <use x="159.033203" xlink:href="#DejaVuSans-69"/>
     <use x="186.816406" xlink:href="#DejaVuSans-6e"/>
     <use x="250.195312" xlink:href="#DejaVuSans-73"/>
     <use x="302.294922" xlink:href="#DejaVuSans-74"/>
     <use x="341.503906" xlink:href="#DejaVuSans-61"/>
     <use x="402.783203" xlink:href="#DejaVuSans-6e"/>
     <use x="466.162109" xlink:href="#DejaVuSans-63"/>
     <use x="521.142578" xlink:href="#DejaVuSans-65"/>
     <use x="582.666016" xlink:href="#DejaVuSans-73"/>
    </g>
   </g>
   <g id="text_20">
    <!-- v0.0.0 -->
    <g style="fill:#808080;" transform="translate(178.96275 290.099912)scale(0.1 -0.1)">
     <use xlink:href="#DejaVuSans-76"/>
     <use x="59.179688" xlink:href="#DejaVuSans-30"/>
     <use x="122.802734" xlink:href="#DejaVuSans-2e"/>
     <use x="154.589844" xlink:href="#DejaVuSans-30"/>
     <use x="218.212891" xlink:href="#DejaVuSans-2e"/>
     <use x="250" xlink:href="#DejaVuSans-30"/>
    </g>
   </g>
   <g id="text_21">
    <!-- 11 Discus -->
    <g transform="translate(146.008062 18.84)scale(0.2 -0.2)">
     <use xlink:href="#DejaVuSans-31"/>
     <use x="63.623047" xlink:href="#DejaVuSans-31"/>
     <use x="127.246094" xlink:href="#DejaVuSans-20"/>
     <use x="159.033203" xlink:href="#DejaVuSans-44"/>
     <use x="236.035156" xlink:href="#DejaVuSans-69"/>
     <use x="263.818359" xlink:href="#DejaVuSans-73"/>
     <use x="315.917969" xlink:href="#DejaVuSans-63"/>
     <use x="370.898438" xlink:href="#DejaVuSans-75"/>
     <use x="434.277344" xlink:href="#DejaVuSans-73"/>
    </g>
   </g>
  </g>
 </g>
 <defs>
  <clipPath id="pdc27dc8c5e">
   <rect height="270.04" width="277.048" x="56.12" y="24.84"/>
  </clipPath>
 </defs>
</svg>
