<?xml version="1.0" encoding="utf-8" standalone="no"?>
<!DOCTYPE svg PUBLIC "-//W3C//DTD SVG 1.1//EN"
  "http://www.w3.org/Graphics/SVG/1.1/DTD/svg11.dtd">
<!-- Created with matplotlib (http://matplotlib.org/) -->
<svg height="345.6pt" version="1.1" viewBox="0 0 460.8 345.6" width="460.8pt" xmlns="http://www.w3.org/2000/svg" xmlns:xlink="http://www.w3.org/1999/xlink">
 <defs>
  <style type="text/css">
*{stroke-linecap:butt;stroke-linejoin:round;}
  </style>
 </defs>
 <g id="figure_1">
  <g id="patch_1">
   <path d="M 0 345.6 
L 460.8 345.6 
L 460.8 0 
L 0 0 
z
" style="fill:#ffffff;"/>
  </g>
  <g id="axes_1">
   <g id="patch_2">
    <path d="M 59.72 291.28 
L 450.672 291.28 
L 450.672 6.845228 
L 59.72 6.845228 
z
" style="fill:#ffffff;"/>
   </g>
   <g id="line2d_1">
    <path clip-path="url(#pe3df543e22)" d="M 321.307761 291.28 
L 321.307761 287.525086 
L 325.195538 287.525086 
L 325.195538 283.770171 
L 326.5808 283.770171 
L 326.5808 280.015257 
L 327.090791 280.015257 
L 327.090791 276.260342 
L 327.539905 276.260342 
L 327.539905 272.505428 
L 328.426521 272.505428 
L 328.426521 268.750513 
L 328.481429 268.750513 
L 328.481429 264.995599 
L 328.809654 264.995599 
L 328.809654 261.240684 
L 330.998087 261.240684 
L 330.998087 257.48577 
L 332.33907 257.48577 
L 332.33907 253.730855 
L 332.896037 253.730855 
L 332.896037 249.975941 
L 333.247352 249.975941 
L 333.247352 246.221026 
L 350.502343 246.221026 
L 350.502343 242.466112 
L 357.38379 242.466112 
L 357.38379 238.711197 
L 357.757597 238.711197 
L 357.757597 234.956283 
L 363.367911 234.956283 
L 363.367911 231.201368 
L 363.783616 231.201368 
L 363.783616 227.446454 
L 370.718576 227.446454 
L 370.718576 223.691539 
L 383.31608 223.691539 
L 383.31608 219.936625 
L 383.916432 219.936625 
L 383.916432 216.18171 
L 387.950453 216.18171 
L 387.950453 212.426796 
L 400.467392 212.426796 
L 400.467392 208.671881 
L 410.789991 208.671881 
L 410.789991 204.916967 
L 436.783604 204.916967 
L 436.783604 201.162052 
L 441.052807 201.162052 
L 441.052807 197.407138 
L 447.553443 197.407138 
L 447.553443 193.652223 
L 461.8 193.652223 
" style="fill:none;stroke:#f5deb3;stroke-linecap:square;stroke-width:1.5;"/>
   </g>
   <g id="line2d_2"/>
   <g id="line2d_3">
    <path clip-path="url(#pe3df543e22)" d="M 195.280541 291.28 
L 195.280541 287.525086 
L 196.727595 287.525086 
L 196.727595 283.770171 
L 209.874133 283.770171 
L 209.874133 280.015257 
L 295.026078 280.015257 
L 295.026078 276.260342 
L 316.550602 276.260342 
L 316.550602 272.505428 
L 362.808351 272.505428 
L 362.808351 268.750513 
L 375.394672 268.750513 
L 375.394672 264.995599 
L 381.783765 264.995599 
L 381.783765 261.240684 
L 395.29652 261.240684 
L 395.29652 257.48577 
L 397.676604 257.48577 
L 397.676604 253.730855 
L 404.143619 253.730855 
L 404.143619 249.975941 
L 412.067273 249.975941 
L 412.067273 246.221026 
L 418.332633 246.221026 
L 418.332633 242.466112 
L 421.191219 242.466112 
L 421.191219 238.711197 
L 426.925451 238.711197 
L 426.925451 234.956283 
L 453.168276 234.956283 
L 453.168276 231.201368 
L 456.03216 231.201368 
L 456.03216 227.446454 
L 457.708791 227.446454 
L 457.708791 223.691539 
L 458.163506 223.691539 
L 458.163506 219.936625 
L 458.983233 219.936625 
L 458.983233 216.18171 
L 459.293739 216.18171 
L 459.293739 212.426796 
L 461.130809 212.426796 
L 461.130809 208.671881 
L 461.267528 208.671881 
L 461.267528 204.916967 
L 461.8 204.916967 
" style="fill:none;stroke:#f5deb3;stroke-linecap:square;stroke-width:1.5;"/>
   </g>
   <g id="line2d_4">
    <path clip-path="url(#pe3df543e22)" d="M 335.927131 291.28 
L 335.927131 287.525086 
L 343.135176 287.525086 
L 343.135176 283.770171 
L 344.519158 283.770171 
L 344.519158 280.015257 
L 344.639502 280.015257 
L 344.639502 276.260342 
L 344.799524 276.260342 
L 344.799524 272.505428 
L 346.874056 272.505428 
L 346.874056 268.750513 
L 347.748895 268.750513 
L 347.748895 264.995599 
L 349.564435 264.995599 
L 349.564435 261.240684 
L 349.85485 261.240684 
L 349.85485 257.48577 
L 351.703552 257.48577 
L 351.703552 253.730855 
L 352.945529 253.730855 
L 352.945529 249.975941 
L 353.689992 249.975941 
L 353.689992 246.221026 
L 354.490013 246.221026 
L 354.490013 242.466112 
L 354.721025 242.466112 
L 354.721025 238.711197 
L 355.179955 238.711197 
L 355.179955 234.956283 
L 355.50527 234.956283 
L 355.602464 227.446454 
L 355.634821 227.446454 
L 355.634821 223.691539 
L 355.989411 223.691539 
L 355.989411 219.936625 
L 356.117749 219.936625 
L 356.117749 216.18171 
L 356.373466 216.18171 
L 356.373466 212.426796 
L 357.602175 212.426796 
L 357.602175 208.671881 
L 358.588847 208.671881 
L 358.588847 204.916967 
L 358.984331 204.916967 
L 358.984331 201.162052 
L 359.16584 201.162052 
L 359.16584 197.407138 
L 360.004504 197.407138 
L 360.004504 193.652223 
L 360.123203 193.652223 
L 360.123203 189.897309 
L 362.128734 189.897309 
L 362.128734 186.142394 
L 362.639288 186.142394 
L 362.639288 182.38748 
L 363.032907 182.38748 
L 363.032907 178.632565 
L 363.534597 178.632565 
L 363.534597 174.877651 
L 364.305392 174.877651 
L 364.414567 167.367822 
L 364.713609 167.367822 
L 364.713609 163.612907 
L 365.627063 163.612907 
L 365.627063 159.857993 
L 366.41978 159.857993 
L 366.41978 156.103079 
L 366.837613 156.103079 
L 366.837613 152.348164 
L 366.967492 152.348164 
L 367.019351 144.838335 
L 367.432355 144.838335 
L 367.458058 137.328506 
L 368.197899 137.328506 
L 368.273829 129.818677 
L 368.701995 129.818677 
L 368.752134 122.308848 
L 369.473698 122.308848 
L 369.498399 114.799019 
L 369.793896 114.799019 
L 369.842981 107.28919 
L 370.694454 107.28919 
L 370.694454 103.534276 
L 371.031131 103.534276 
L 371.031131 99.779361 
L 373.738971 99.779361 
L 373.738971 96.024447 
L 376.913233 96.024447 
L 376.913233 92.269532 
L 378.740089 92.269532 
L 378.740089 88.514618 
L 380.464317 88.514618 
L 380.464317 84.759703 
L 385.459763 84.759703 
L 385.459763 81.004789 
L 395.59456 81.004789 
L 395.59456 77.249874 
L 396.023669 77.249874 
L 396.023669 73.49496 
L 397.662333 73.49496 
L 397.662333 69.740045 
L 398.244201 69.740045 
L 398.244201 65.985131 
L 398.567752 65.985131 
L 398.567752 62.230216 
L 402.416511 62.230216 
L 402.416511 58.475302 
L 406.576085 58.475302 
L 406.576085 54.720387 
L 416.978755 54.720387 
L 416.978755 50.965473 
L 422.65081 50.965473 
L 422.65081 47.210558 
L 429.745201 47.210558 
L 429.745201 43.455644 
L 429.981582 43.455644 
L 429.981582 39.700729 
L 435.351018 39.700729 
L 435.351018 35.945815 
L 442.91959 35.945815 
L 442.91959 32.1909 
L 446.752902 32.1909 
L 446.752902 28.435986 
L 461.8 28.435986 
L 461.8 28.435986 
" style="fill:none;stroke:#f5deb3;stroke-linecap:square;stroke-width:1.5;"/>
   </g>
   <g id="line2d_5">
    <path clip-path="url(#pe3df543e22)" d="M 395.236704 291.28 
L 395.236704 287.525086 
L 396.726135 287.525086 
L 396.726135 283.770171 
L 410.535122 283.770171 
L 410.535122 280.015257 
L 411.39438 280.015257 
L 411.39438 276.260342 
L 411.75363 276.260342 
L 411.75363 272.505428 
L 421.640627 272.505428 
L 421.640627 268.750513 
L 430.405855 268.750513 
L 430.405855 264.995599 
L 441.468143 264.995599 
L 441.468143 261.240684 
L 441.940459 261.240684 
L 441.940459 257.48577 
L 444.01373 257.48577 
L 444.01373 253.730855 
L 451.233394 253.730855 
L 451.233394 249.975941 
L 452.323333 249.975941 
L 452.323333 246.221026 
L 457.227639 246.221026 
L 457.227639 242.466112 
L 459.272237 242.466112 
L 459.272237 238.711197 
L 461.8 238.711197 
" style="fill:none;stroke:#f5deb3;stroke-linecap:square;stroke-width:1.5;"/>
   </g>
   <g id="line2d_6"/>
   <g id="line2d_7">
    <path clip-path="url(#pe3df543e22)" d="M 371.317965 291.28 
L 371.317965 287.525086 
L 372.14553 287.525086 
L 372.14553 283.770171 
L 372.867545 283.770171 
L 372.867545 280.015257 
L 373.625151 280.015257 
L 373.625151 276.260342 
L 373.784428 276.260342 
L 373.784428 272.505428 
L 376.246259 272.505428 
L 376.246259 268.750513 
L 376.440791 268.750513 
L 376.440791 264.995599 
L 377.211632 264.995599 
L 377.211632 261.240684 
L 377.67707 261.240684 
L 377.719174 253.730855 
L 377.992012 253.730855 
L 378.075672 242.466112 
L 378.180056 242.466112 
L 378.180056 238.711197 
L 378.305036 238.711197 
L 378.305036 234.956283 
L 378.740089 234.956283 
L 378.82254 227.446454 
L 378.904859 227.446454 
L 378.966512 219.936625 
L 379.171489 219.936625 
L 379.232822 204.916967 
L 379.902704 204.916967 
L 379.902704 201.162052 
L 380.103986 201.162052 
L 380.103986 197.407138 
L 380.484262 197.407138 
L 380.484262 193.652223 
L 381.373842 193.652223 
L 381.373842 189.897309 
L 381.686461 189.897309 
L 381.686461 186.142394 
L 382.016547 186.142394 
L 382.055242 178.632565 
L 382.209729 178.632565 
L 382.209729 174.877651 
L 382.382974 174.877651 
L 382.382974 171.122736 
L 382.823074 171.122736 
L 382.918251 163.612907 
L 383.56082 163.612907 
L 383.579598 156.103079 
L 383.879115 156.103079 
L 383.879115 152.348164 
L 385.041774 152.348164 
L 385.041774 148.59325 
L 385.820488 148.59325 
L 385.820488 144.838335 
L 386.445725 144.838335 
L 386.445725 141.083421 
L 386.569865 141.083421 
L 386.605278 133.573592 
L 386.85249 133.573592 
L 386.85249 129.818677 
L 387.098518 129.818677 
L 387.098518 126.063763 
L 388.311287 126.063763 
L 388.396827 118.553934 
L 389.479347 118.553934 
L 389.479347 114.799019 
L 393.455538 114.799019 
L 393.455538 111.044105 
L 393.795207 111.044105 
L 393.795207 107.28919 
L 398.903211 107.28919 
L 398.903211 103.534276 
L 399.097889 103.534276 
L 399.097889 99.779361 
L 401.364948 99.779361 
L 401.364948 96.024447 
L 402.869886 96.024447 
L 402.869886 92.269532 
L 403.062971 92.269532 
L 403.062971 88.514618 
L 404.569592 88.514618 
L 404.669309 81.004789 
L 405.496931 81.004789 
L 405.496931 77.249874 
L 405.704821 77.249874 
L 405.753614 69.740045 
L 406.731833 69.740045 
L 406.731833 65.985131 
L 408.252272 65.985131 
L 408.252272 62.230216 
L 408.737742 62.230216 
L 408.737742 58.475302 
L 410.446175 58.475302 
L 410.446175 54.720387 
L 413.502645 54.720387 
L 413.502645 50.965473 
L 414.241752 50.965473 
L 414.241752 47.210558 
L 416.99835 47.210558 
L 416.99835 43.455644 
L 419.90229 43.455644 
L 419.90229 39.700729 
L 427.623133 39.700729 
L 427.623133 35.945815 
L 437.346954 35.945815 
L 437.346954 32.1909 
L 449.431576 32.1909 
L 449.431576 28.435986 
L 452.519934 28.435986 
L 452.519934 24.681072 
L 456.782588 24.681072 
L 456.782588 20.926157 
L 457.611143 20.926157 
L 457.611143 17.171243 
L 461.8 17.171243 
L 461.8 17.171243 
" style="fill:none;stroke:#f5deb3;stroke-linecap:square;stroke-width:1.5;"/>
   </g>
   <g id="line2d_8">
    <path clip-path="url(#pe3df543e22)" style="fill:none;stroke:#f5deb3;stroke-linecap:square;stroke-width:1.5;"/>
   </g>
   <g id="line2d_9">
    <path clip-path="url(#pe3df543e22)" d="M 364.713609 291.28 
L 364.713609 287.525086 
L 365.998521 287.525086 
L 365.998521 283.770171 
L 366.993428 283.770171 
L 366.993428 280.015257 
L 368.626695 280.015257 
L 368.626695 276.260342 
L 369.051942 276.260342 
L 369.051942 272.505428 
L 369.201193 272.505428 
L 369.201193 268.750513 
L 370.014408 268.750513 
L 370.014408 264.995599 
L 370.887111 264.995599 
L 370.887111 261.240684 
L 371.460783 261.240684 
L 371.460783 257.48577 
L 371.745235 257.48577 
L 371.839703 249.975941 
L 371.886872 249.975941 
L 371.91044 242.466112 
L 372.658971 242.466112 
L 372.658971 238.711197 
L 372.959973 238.711197 
L 372.959973 234.956283 
L 373.190319 234.956283 
L 373.213297 227.446454 
L 373.396751 227.446454 
L 373.396751 223.691539 
L 373.556737 223.691539 
L 373.556737 219.936625 
L 373.875223 219.936625 
L 373.875223 216.18171 
L 373.988491 216.18171 
L 373.988491 212.426796 
L 374.662904 212.426796 
L 374.662904 208.671881 
L 375.218228 208.671881 
L 375.218228 204.916967 
L 375.482667 204.916967 
L 375.482667 201.162052 
L 375.701997 201.162052 
L 375.701997 197.407138 
L 376.050989 197.407138 
L 376.159564 186.142394 
L 376.46236 186.142394 
L 376.57007 167.367822 
L 376.634588 167.367822 
L 376.634588 163.612907 
L 376.977322 163.612907 
L 376.977322 159.857993 
L 377.296571 159.857993 
L 377.317784 152.348164 
L 378.096566 152.348164 
L 378.159196 144.838335 
L 378.760714 144.838335 
L 378.760714 141.083421 
L 379.212386 141.083421 
L 379.314487 133.573592 
L 379.882533 133.573592 
L 379.882533 129.818677 
L 380.003444 129.818677 
L 380.003444 126.063763 
L 380.344488 126.063763 
L 380.344488 122.308848 
L 381.62799 122.308848 
L 381.725405 114.799019 
L 381.744866 114.799019 
L 381.744866 111.044105 
L 383.032231 111.044105 
L 383.032231 107.28919 
L 383.916432 107.28919 
L 383.916432 103.534276 
L 390.588686 103.534276 
L 390.588686 99.779361 
L 391.43345 99.779361 
L 391.43345 96.024447 
L 392.359583 96.024447 
L 392.359583 92.269532 
L 393.902814 92.269532 
L 393.902814 88.514618 
L 394.209027 88.514618 
L 394.209027 84.759703 
L 396.023669 84.759703 
L 396.023669 81.004789 
L 397.961186 81.004789 
L 397.961186 77.249874 
L 398.230087 77.249874 
L 398.230087 73.49496 
L 398.693806 73.49496 
L 398.693806 69.740045 
L 401.098659 69.740045 
L 401.098659 65.985131 
L 402.364441 65.985131 
L 402.364441 62.230216 
L 403.204107 62.230216 
L 403.204107 58.475302 
L 406.239014 58.475302 
L 406.239014 54.720387 
L 415.909395 54.720387 
L 415.909395 50.965473 
L 416.129041 50.965473 
L 416.129041 47.210558 
L 417.369232 47.210558 
L 417.369232 43.455644 
L 424.146833 43.455644 
L 424.146833 39.700729 
L 431.266294 39.700729 
L 431.266294 35.945815 
L 432.945105 35.945815 
L 432.945105 32.1909 
L 434.067383 32.1909 
L 434.067383 28.435986 
L 434.522054 28.435986 
L 434.522054 24.681072 
L 436.267887 24.681072 
L 436.267887 20.926157 
L 438.49414 20.926157 
L 438.49414 17.171243 
L 442.937329 17.171243 
L 442.937329 13.416328 
L 446.278707 13.416328 
L 446.278707 9.661414 
L 446.278707 9.661414 
L 450.672 9.661414 
L 450.672 9.661414 
" style="fill:none;stroke:#f5deb3;stroke-linecap:square;stroke-width:1.5;"/>
   </g>
   <g id="line2d_10">
    <path clip-path="url(#pe3df543e22)" style="fill:none;stroke:#f5deb3;stroke-linecap:square;stroke-width:1.5;"/>
   </g>
   <g id="line2d_11">
    <path clip-path="url(#pe3df543e22)" style="fill:none;stroke:#f5deb3;stroke-linecap:square;stroke-width:1.5;"/>
   </g>
   <g id="line2d_12">
    <path clip-path="url(#pe3df543e22)" d="M 322.616149 291.28 
L 322.616149 287.525086 
L 384.380623 287.525086 
L 384.380623 283.770171 
L 387.500166 283.770171 
L 387.500166 280.015257 
L 460.03647 280.015257 
L 460.03647 276.260342 
L 461.8 276.260342 
" style="fill:none;stroke:#f5deb3;stroke-linecap:square;stroke-width:1.5;"/>
   </g>
   <g id="line2d_13"/>
   <g id="line2d_14">
    <path clip-path="url(#pe3df543e22)" d="M 356.912674 291.28 
L 356.912674 287.525086 
L 363.83879 287.525086 
L 363.83879 283.770171 
L 378.26341 283.770171 
L 378.26341 280.015257 
L 380.003444 280.015257 
L 380.003444 276.260342 
L 386.08938 276.260342 
L 386.08938 272.505428 
L 386.516699 272.505428 
L 386.516699 268.750513 
L 389.896086 268.750513 
L 389.896086 264.995599 
L 393.99487 264.995599 
L 393.99487 261.240684 
L 395.086859 261.240684 
L 395.086859 257.48577 
L 400.911432 257.48577 
L 400.911432 253.730855 
L 402.194848 253.730855 
L 402.194848 249.975941 
L 404.005044 249.975941 
L 404.005044 246.221026 
L 405.251273 246.221026 
L 405.251273 242.466112 
L 410.812094 242.466112 
L 410.812094 238.711197 
L 415.23463 238.711197 
L 415.23463 234.956283 
L 415.83931 234.956283 
L 415.83931 231.201368 
L 417.446973 231.201368 
L 417.446973 227.446454 
L 418.131812 227.446454 
L 418.131812 223.691539 
L 428.601432 223.691539 
L 428.601432 219.936625 
L 429.905449 219.936625 
L 429.905449 216.18171 
L 435.110616 216.18171 
L 435.110616 212.426796 
L 438.981704 212.426796 
L 438.981704 208.671881 
L 439.729657 208.671881 
L 439.729657 204.916967 
L 442.378598 204.916967 
L 442.378598 201.162052 
L 445.271808 201.162052 
L 445.271808 197.407138 
L 447.407337 197.407138 
L 447.407337 193.652223 
L 448.654704 193.652223 
L 448.654704 189.897309 
L 452.283922 189.897309 
L 452.283922 186.142394 
L 453.255397 186.142394 
L 453.255397 182.38748 
L 461.8 182.38748 
" style="fill:none;stroke:#f5deb3;stroke-linecap:square;stroke-width:1.5;"/>
   </g>
   <g id="line2d_15"/>
   <g id="line2d_16"/>
   <g id="line2d_17">
    <path clip-path="url(#pe3df543e22)" d="M 441.236457 291.28 
L 441.236457 287.525086 
L 442.901846 287.525086 
L 442.901846 283.770171 
L 444.40589 283.770171 
L 444.40589 280.015257 
L 444.988574 280.015257 
L 444.988574 276.260342 
L 447.477737 276.260342 
L 447.477737 272.505428 
L 448.058891 272.505428 
L 448.058891 268.750513 
L 448.256487 268.750513 
L 448.256487 264.995599 
L 448.591196 264.995599 
L 448.591196 261.240684 
L 449.48885 261.240684 
L 449.551258 253.730855 
L 450.616031 253.730855 
L 450.692337 238.711197 
L 452.328257 238.711197 
L 452.382392 231.201368 
L 452.662001 231.201368 
L 452.686456 223.691539 
L 453.119812 223.691539 
L 453.119812 219.936625 
L 453.419555 219.936625 
L 453.419555 216.18171 
L 453.951861 216.18171 
L 453.951861 212.426796 
L 454.303691 212.426796 
L 454.303691 208.671881 
L 454.901947 208.671881 
L 454.901947 204.916967 
L 455.289202 204.916967 
L 455.289202 201.162052 
L 456.46102 201.162052 
L 456.46102 197.407138 
L 456.732899 197.407138 
L 456.732899 193.652223 
L 456.985362 193.652223 
L 456.985362 189.897309 
L 457.164936 189.897309 
L 457.232115 182.38748 
L 457.486595 182.38748 
L 457.557802 174.877651 
L 457.761975 174.877651 
L 457.761975 171.122736 
L 458.343395 171.122736 
L 458.343395 167.367822 
L 458.622944 167.367822 
L 458.622944 163.612907 
L 459.396825 163.612907 
L 459.396825 159.857993 
L 460.027993 159.857993 
L 460.027993 156.103079 
L 460.214152 156.103079 
L 460.302763 148.59325 
L 461.548111 148.59325 
L 461.548111 144.838335 
L 461.8 144.838335 
L 461.8 144.838335 
" style="fill:none;stroke:#f5deb3;stroke-linecap:square;stroke-width:1.5;"/>
   </g>
   <g id="line2d_18">
    <path clip-path="url(#pe3df543e22)" d="M 271.552674 291.28 
L 271.552674 287.525086 
L 307.406338 287.525086 
L 307.406338 283.770171 
L 309.034589 283.770171 
L 309.034589 280.015257 
L 317.646474 280.015257 
L 317.646474 276.260342 
L 318.653045 276.260342 
L 318.653045 272.505428 
L 334.433938 272.505428 
L 334.433938 268.750513 
L 338.789287 268.750513 
L 338.789287 264.995599 
L 356.149783 264.995599 
L 356.149783 261.240684 
L 360.389277 261.240684 
L 360.389277 257.48577 
L 377.360184 257.48577 
L 377.360184 253.730855 
L 378.01294 253.730855 
L 378.01294 249.975941 
L 385.622403 249.975941 
L 385.622403 246.221026 
L 390.325938 246.221026 
L 390.325938 242.466112 
L 392.343756 242.466112 
L 392.343756 238.711197 
L 392.549129 238.711197 
L 392.549129 234.956283 
L 392.675106 234.956283 
L 392.675106 231.201368 
L 398.328802 231.201368 
L 398.328802 227.446454 
L 399.26417 227.446454 
L 399.26417 223.691539 
L 399.964922 223.691539 
L 399.964922 219.936625 
L 400.10121 219.936625 
L 400.10121 216.18171 
L 400.790711 216.18171 
L 400.790711 212.426796 
L 401.563763 212.426796 
L 401.563763 208.671881 
L 407.065696 208.671881 
L 407.065696 204.916967 
L 412.421863 204.916967 
L 412.421863 201.162052 
L 412.635581 201.162052 
L 412.635581 197.407138 
L 416.949349 197.407138 
L 416.949349 193.652223 
L 418.722464 193.652223 
L 418.722464 189.897309 
L 420.179252 189.897309 
L 420.179252 186.142394 
L 435.814894 186.142394 
L 435.814894 182.38748 
L 440.905412 182.38748 
L 440.905412 178.632565 
L 457.930029 178.632565 
L 457.930029 174.877651 
L 461.8 174.877651 
" style="fill:none;stroke:#f5deb3;stroke-linecap:square;stroke-width:1.5;"/>
   </g>
   <g id="line2d_19">
    <path clip-path="url(#pe3df543e22)" style="fill:none;stroke:#f5deb3;stroke-linecap:square;stroke-width:1.5;"/>
   </g>
   <g id="line2d_20">
    <path clip-path="url(#pe3df543e22)" d="M 290.403227 291.28 
L 290.403227 287.525086 
L 296.068041 287.525086 
L 296.068041 283.770171 
L 300.511764 283.770171 
L 300.511764 280.015257 
L 301.541949 280.015257 
L 301.541949 276.260342 
L 303.631436 276.260342 
L 303.631436 268.750513 
L 303.986304 268.750513 
L 303.986304 264.995599 
L 304.862896 264.995599 
L 304.862896 261.240684 
L 305.295645 261.240684 
L 305.295645 257.48577 
L 307.074401 257.48577 
L 307.157587 249.975941 
L 308.470554 249.975941 
L 308.470554 246.221026 
L 309.513168 246.221026 
L 309.513168 242.466112 
L 312.818395 242.466112 
L 312.818395 238.711197 
L 313.923105 238.711197 
L 313.923105 231.201368 
L 316.481328 231.201368 
L 316.481328 227.446454 
L 318.852014 227.446454 
L 318.852014 223.691539 
L 322.554595 223.691539 
L 322.554595 216.18171 
L 322.983934 216.18171 
L 322.983934 212.426796 
L 323.711696 212.426796 
L 323.711696 208.671881 
L 324.25083 208.671881 
L 324.25083 204.916967 
L 325.137 204.916967 
L 325.137 201.162052 
L 327.762998 201.162052 
L 327.762998 197.407138 
L 328.591071 197.407138 
L 328.591071 193.652223 
L 329.567454 193.652223 
L 329.567454 189.897309 
L 330.578334 189.897309 
L 330.578334 186.142394 
L 333.844071 186.142394 
L 333.844071 182.38748 
L 333.992174 182.38748 
L 334.041447 174.877651 
L 334.531594 174.877651 
L 334.531594 171.122736 
L 335.641493 171.122736 
L 335.68921 163.612907 
L 337.88332 163.612907 
L 337.88332 159.857993 
L 341.500347 159.857993 
L 341.500347 156.103079 
L 342.051092 156.103079 
L 342.051092 152.348164 
L 344.317955 152.348164 
L 344.317955 148.59325 
L 344.438771 148.59325 
L 344.438771 144.838335 
L 350.323301 144.838335 
L 350.323301 141.083421 
L 351.106459 141.083421 
L 351.106459 137.328506 
L 351.282796 137.328506 
L 351.282796 133.573592 
L 352.155515 133.573592 
L 352.155515 129.818677 
L 352.603537 129.818677 
L 352.706374 122.308848 
L 360.418756 122.308848 
L 360.418756 118.553934 
L 366.759528 118.553934 
L 366.759528 114.799019 
L 367.56074 114.799019 
L 367.56074 111.044105 
L 370.355557 111.044105 
L 370.355557 107.28919 
L 375.460682 107.28919 
L 375.460682 103.534276 
L 376.159564 103.534276 
L 376.159564 99.779361 
L 378.80194 99.779361 
L 378.80194 96.024447 
L 384.084024 96.024447 
L 384.084024 92.269532 
L 386.940492 92.269532 
L 386.940492 88.514618 
L 389.713137 88.514618 
L 389.713137 84.759703 
L 390.17755 84.759703 
L 390.17755 81.004789 
L 394.800942 81.004789 
L 394.800942 77.249874 
L 395.026798 77.249874 
L 395.026798 73.49496 
L 396.914745 73.49496 
L 396.914745 69.740045 
L 398.721776 69.740045 
L 398.721776 65.985131 
L 400.696619 65.985131 
L 400.696619 62.230216 
L 402.921446 62.230216 
L 402.921446 58.475302 
L 415.688806 58.475302 
L 415.688806 54.720387 
L 420.14241 54.720387 
L 420.14241 50.965473 
L 420.728735 50.965473 
L 420.728735 47.210558 
L 427.861532 47.210558 
L 427.861532 43.455644 
L 434.249735 43.455644 
L 434.249735 39.700729 
L 441.898248 39.700729 
L 441.898248 35.945815 
L 455.456265 35.945815 
L 455.456265 32.1909 
L 461.8 32.1909 
L 461.8 32.1909 
" style="fill:none;stroke:#f5deb3;stroke-linecap:square;stroke-width:1.5;"/>
   </g>
   <g id="line2d_21"/>
   <g id="line2d_22">
    <path clip-path="url(#pe3df543e22)" d="M 288.645917 291.28 
L 288.645917 287.525086 
L 291.203175 287.525086 
L 291.203175 283.770171 
L 296.581203 283.770171 
L 296.581203 280.015257 
L 297.190305 280.015257 
L 297.190305 276.260342 
L 297.991367 276.260342 
L 297.991367 272.505428 
L 298.189695 272.505428 
L 298.189695 268.750513 
L 298.682192 268.750513 
L 298.682192 264.995599 
L 299.267022 264.995599 
L 299.36385 257.48577 
L 300.511764 257.48577 
L 300.511764 253.730855 
L 301.634586 253.730855 
L 301.634586 249.975941 
L 303.631436 249.975941 
L 303.631436 246.221026 
L 305.036433 246.221026 
L 305.036433 242.466112 
L 306.656441 242.466112 
L 306.656441 238.711197 
L 307.406338 238.711197 
L 307.406338 234.956283 
L 307.571505 234.956283 
L 307.571505 231.201368 
L 307.900256 231.201368 
L 307.900256 227.446454 
L 310.690462 227.446454 
L 310.690462 223.691539 
L 311.992903 223.691539 
L 311.992903 219.936625 
L 312.967069 219.936625 
L 312.967069 216.18171 
L 314.141224 216.18171 
L 314.141224 212.426796 
L 322.307637 212.426796 
L 322.307637 208.671881 
L 322.983934 208.671881 
L 322.983934 204.916967 
L 323.651441 204.916967 
L 323.651441 201.162052 
L 326.237971 201.162052 
L 326.237971 197.407138 
L 328.371553 197.407138 
L 328.371553 193.652223 
L 331.050316 193.652223 
L 331.050316 189.897309 
L 332.288136 189.897309 
L 332.288136 186.142394 
L 334.433938 186.142394 
L 334.433938 182.38748 
L 338.834169 182.38748 
L 338.834169 178.632565 
L 340.684639 178.632565 
L 340.684639 174.877651 
L 341.28694 174.877651 
L 341.28694 171.122736 
L 342.261354 171.122736 
L 342.261354 167.367822 
L 342.595994 167.367822 
L 342.595994 163.612907 
L 344.398531 163.612907 
L 344.398531 159.857993 
L 345.513518 159.857993 
L 345.513518 156.103079 
L 349.272369 156.103079 
L 349.272369 152.348164 
L 353.991462 152.348164 
L 353.991462 148.59325 
L 354.852567 148.59325 
L 354.852567 144.838335 
L 355.602464 144.838335 
L 355.602464 141.083421 
L 358.128703 141.083421 
L 358.128703 137.328506 
L 360.653981 137.328506 
L 360.653981 133.573592 
L 363.395729 133.573592 
L 363.395729 129.818677 
L 364.632225 129.818677 
L 364.632225 126.063763 
L 365.972077 126.063763 
L 365.972077 122.308848 
L 367.458058 122.308848 
L 367.56074 114.799019 
L 367.637618 114.799019 
L 367.637618 111.044105 
L 368.802224 111.044105 
L 368.802224 107.28919 
L 369.62173 107.28919 
L 369.62173 103.534276 
L 370.597854 103.534276 
L 370.597854 99.779361 
L 374.930209 99.779361 
L 374.952422 92.269532 
L 378.075672 92.269532 
L 378.075672 88.514618 
L 379.599295 88.514618 
L 379.599295 84.759703 
L 380.184278 84.759703 
L 380.184278 81.004789 
L 383.24054 81.004789 
L 383.24054 77.249874 
L 383.990985 77.249874 
L 383.990985 73.49496 
L 384.54671 73.49496 
L 384.54671 69.740045 
L 384.950454 69.740045 
L 384.950454 65.985131 
L 385.26028 65.985131 
L 385.26028 62.230216 
L 385.766541 62.230216 
L 385.838458 54.720387 
L 389.244487 54.720387 
L 389.244487 50.965473 
L 397.304273 50.965473 
L 397.304273 47.210558 
L 398.721776 47.210558 
L 398.721776 43.455644 
L 404.51966 43.455644 
L 404.51966 39.700729 
L 405.016805 39.700729 
L 405.016805 35.945815 
L 408.449325 35.945815 
L 408.449325 32.1909 
L 409.332513 32.1909 
L 409.332513 28.435986 
L 410.856271 28.435986 
L 410.856271 24.681072 
L 420.004017 24.681072 
L 420.004017 20.926157 
L 420.792461 20.926157 
L 420.792461 17.171243 
L 436.66351 17.171243 
L 436.66351 13.416328 
L 448.090985 13.416328 
L 448.090985 9.661414 
L 448.090985 9.661414 
L 450.672 9.661414 
L 450.672 9.661414 
" style="fill:none;stroke:#f5deb3;stroke-linecap:square;stroke-width:1.5;"/>
   </g>
   <g id="line2d_23">
    <path clip-path="url(#pe3df543e22)" style="fill:none;stroke:#f5deb3;stroke-linecap:square;stroke-width:1.5;"/>
   </g>
   <g id="line2d_24">
    <path clip-path="url(#pe3df543e22)" d="M 347.974685 291.28 
L 347.974685 287.525086 
L 350.359159 287.525086 
L 350.359159 283.770171 
L 356.405341 283.770171 
L 356.405341 280.015257 
L 357.133066 280.015257 
L 357.133066 276.260342 
L 357.258581 276.260342 
L 357.258581 272.505428 
L 357.415045 272.505428 
L 357.415045 268.750513 
L 358.036177 268.750513 
L 358.036177 264.995599 
L 358.527732 264.995599 
L 358.527732 261.240684 
L 362.014585 261.240684 
L 362.043146 253.730855 
L 362.469666 253.730855 
L 362.469666 249.975941 
L 362.892675 249.975941 
L 362.892675 246.221026 
L 363.479095 246.221026 
L 363.479095 242.466112 
L 364.387295 242.466112 
L 364.387295 238.711197 
L 364.903005 238.711197 
L 364.903005 234.956283 
L 366.077771 234.956283 
L 366.077771 231.201368 
L 366.550718 231.201368 
L 366.550718 227.446454 
L 368.02029 227.446454 
L 368.02029 223.691539 
L 368.977154 223.691539 
L 369.051942 216.18171 
L 370.622022 216.18171 
L 370.622022 212.426796 
L 372.122069 212.426796 
L 372.122069 208.671881 
L 373.006125 208.671881 
L 373.006125 204.916967 
L 374.75216 204.916967 
L 374.75216 201.162052 
L 374.974625 201.162052 
L 375.085497 193.652223 
L 375.416685 193.652223 
L 375.416685 189.897309 
L 376.072722 189.897309 
L 376.072722 186.142394 
L 376.20293 186.142394 
L 376.20293 182.38748 
L 376.548546 182.38748 
L 376.634588 174.877651 
L 377.296571 174.877651 
L 377.296571 171.122736 
L 378.117451 171.122736 
L 378.117451 167.367822 
L 378.408955 167.367822 
L 378.408955 163.612907 
L 379.639853 163.612907 
L 379.639853 159.857993 
L 380.64354 159.857993 
L 380.64354 156.103079 
L 381.019857 156.103079 
L 381.098731 148.59325 
L 382.65131 148.59325 
L 382.65131 144.838335 
L 384.102612 144.838335 
L 384.102612 141.083421 
L 384.748979 141.083421 
L 384.748979 137.328506 
L 385.89233 137.328506 
L 385.89233 133.573592 
L 386.516699 133.573592 
L 386.516699 129.818677 
L 386.676031 129.818677 
L 386.676031 126.063763 
L 389.362051 126.063763 
L 389.362051 122.308848 
L 390.260041 122.308848 
L 390.260041 118.553934 
L 392.375405 118.553934 
L 392.375405 114.799019 
L 393.066804 114.799019 
L 393.066804 111.044105 
L 393.779816 111.044105 
L 393.779816 107.28919 
L 394.604394 107.28919 
L 394.604394 103.534276 
L 395.026798 103.534276 
L 395.026798 99.779361 
L 395.460656 99.779361 
L 395.460656 96.024447 
L 397.304273 96.024447 
L 397.304273 92.269532 
L 398.819551 92.269532 
L 398.861398 84.759703 
L 398.986735 84.759703 
L 398.986735 81.004789 
L 399.663808 81.004789 
L 399.663808 77.249874 
L 400.345621 77.249874 
L 400.345621 73.49496 
L 401.431305 73.49496 
L 401.431305 69.740045 
L 401.774987 69.740045 
L 401.774987 65.985131 
L 402.818273 65.985131 
L 402.818273 62.230216 
L 402.947207 62.230216 
L 402.947207 58.475302 
L 408.194171 58.475302 
L 408.194171 54.720387 
L 409.886737 54.720387 
L 409.886737 50.965473 
L 411.285019 50.965473 
L 411.285019 47.210558 
L 411.797005 47.210558 
L 411.797005 43.455644 
L 422.148201 43.455644 
L 422.148201 39.700729 
L 426.788009 39.700729 
L 426.788009 35.945815 
L 433.274382 35.945815 
L 433.274382 32.1909 
L 448.860563 32.1909 
L 448.860563 28.435986 
L 449.034109 28.435986 
L 449.034109 24.681072 
L 453.371328 24.681072 
L 453.371328 20.926157 
L 457.375136 20.926157 
L 457.375136 17.171243 
L 461.8 17.171243 
L 461.8 17.171243 
" style="fill:none;stroke:#f5deb3;stroke-linecap:square;stroke-width:1.5;"/>
   </g>
   <g id="line2d_25"/>
   <g id="line2d_26">
    <path clip-path="url(#pe3df543e22)" d="M 410.889379 291.28 
L 410.889379 287.525086 
L 412.72082 287.525086 
L 412.72082 283.770171 
L 413.857911 283.770171 
L 413.951542 276.260342 
L 414.003486 276.260342 
L 414.003486 272.505428 
L 414.169353 272.505428 
L 414.169353 268.750513 
L 414.314049 268.750513 
L 414.314049 264.995599 
L 419.567953 264.995599 
L 419.605209 257.48577 
L 419.855985 257.48577 
L 419.855985 253.730855 
L 420.372241 253.730855 
L 420.372241 249.975941 
L 420.500498 249.975941 
L 420.500498 246.221026 
L 420.783362 246.221026 
L 420.88336 238.711197 
L 421.001288 238.711197 
L 421.001288 234.956283 
L 421.18219 234.956283 
L 421.254373 227.446454 
L 421.524158 227.446454 
L 421.524158 223.691539 
L 421.640627 223.691539 
L 421.640627 219.936625 
L 422.015115 219.936625 
L 422.015115 216.18171 
L 422.20134 216.18171 
L 422.20134 212.426796 
L 422.378072 212.426796 
L 422.378072 208.671881 
L 422.773509 208.671881 
L 422.826004 197.407138 
L 423.148548 197.407138 
L 423.148548 193.652223 
L 423.51224 193.652223 
L 423.572606 182.38748 
L 423.624292 182.38748 
L 423.624292 178.632565 
L 427.901158 178.632565 
L 427.956583 167.367822 
L 428.311465 167.367822 
L 428.389996 159.857993 
L 428.889771 159.857993 
L 428.889771 156.103079 
L 429.153311 156.103079 
L 429.230566 148.59325 
L 429.913067 148.59325 
L 429.913067 144.838335 
L 430.360564 144.838335 
L 430.360564 141.083421 
L 431.035765 141.083421 
L 431.035765 137.328506 
L 435.494722 137.328506 
L 435.494722 133.573592 
L 436.166817 133.573592 
L 436.180304 126.063763 
L 436.6301 126.063763 
L 436.6301 122.308848 
L 437.003051 122.308848 
L 437.003051 118.553934 
L 442.174998 118.553934 
L 442.174998 114.799019 
L 443.659373 114.799019 
L 443.665202 107.28919 
L 443.857185 107.28919 
L 443.897816 96.024447 
L 444.29086 96.024447 
L 444.29086 92.269532 
L 447.645223 92.269532 
L 447.645223 88.514618 
L 448.32041 88.514618 
L 448.32041 84.759703 
L 448.707567 84.759703 
L 448.818403 73.49496 
L 449.686216 73.49496 
L 449.686216 69.740045 
L 452.910894 69.740045 
L 452.910894 65.985131 
L 453.032462 65.985131 
L 453.032462 62.230216 
L 453.563966 62.230216 
L 453.563966 58.475302 
L 454.369983 58.475302 
L 454.388908 50.965473 
L 458.931299 50.965473 
L 458.931299 47.210558 
L 461.8 47.210558 
L 461.8 47.210558 
" style="fill:none;stroke:#f5deb3;stroke-linecap:square;stroke-width:1.5;"/>
   </g>
   <g id="line2d_27"/>
   <g id="line2d_28">
    <path clip-path="url(#pe3df543e22)" d="M 339.767736 291.28 
L 339.767736 287.525086 
L 340.293683 287.525086 
L 340.293683 283.770171 
L 341.627967 283.770171 
L 341.627967 280.015257 
L 343.831828 280.015257 
L 343.831828 276.260342 
L 344.196854 276.260342 
L 344.196854 272.505428 
L 344.719576 272.505428 
L 344.719576 268.750513 
L 346.488994 268.750513 
L 346.488994 264.995599 
L 348.534854 264.995599 
L 348.534854 261.240684 
L 348.720228 261.240684 
L 348.720228 257.48577 
L 350.323301 257.48577 
L 350.323301 253.730855 
L 350.964952 253.730855 
L 350.964952 249.975941 
L 351.247577 249.975941 
L 351.247577 246.221026 
L 352.534864 246.221026 
L 352.534864 242.466112 
L 353.689992 242.466112 
L 353.689992 238.711197 
L 353.891168 238.711197 
L 353.891168 234.956283 
L 354.291173 234.956283 
L 354.291173 231.201368 
L 354.490013 231.201368 
L 354.490013 227.446454 
L 354.983773 227.446454 
L 354.983773 223.691539 
L 355.375391 223.691539 
L 355.375391 219.936625 
L 355.731771 219.936625 
L 355.731771 216.18171 
L 355.957277 216.18171 
L 355.957277 212.426796 
L 356.78631 212.426796 
L 356.78631 208.671881 
L 357.038728 208.671881 
L 357.038728 204.916967 
L 357.227231 204.916967 
L 357.227231 201.162052 
L 358.497147 201.162052 
L 358.497147 197.407138 
L 359.196029 197.407138 
L 359.196029 193.652223 
L 359.436906 193.652223 
L 359.436906 189.897309 
L 360.712619 189.897309 
L 360.712619 186.142394 
L 361.613053 186.142394 
L 361.613053 182.38748 
L 362.723889 182.38748 
L 362.723889 178.632565 
L 363.256485 178.632565 
L 363.256485 174.877651 
L 364.360009 174.877651 
L 364.360009 171.122736 
L 365.839654 171.122736 
L 365.839654 167.367822 
L 366.498383 167.367822 
L 366.498383 163.612907 
L 366.811598 163.612907 
L 366.811598 159.857993 
L 367.045262 159.857993 
L 367.045262 156.103079 
L 368.626695 156.103079 
L 368.626695 152.348164 
L 368.82725 152.348164 
L 368.82725 148.59325 
L 369.424259 148.59325 
L 369.424259 144.838335 
L 369.62173 144.838335 
L 369.62173 141.083421 
L 370.112111 141.083421 
L 370.112111 137.328506 
L 370.355557 137.328506 
L 370.355557 133.573592 
L 370.549486 133.573592 
L 370.549486 129.818677 
L 371.15084 129.818677 
L 371.15084 126.063763 
L 372.051623 126.063763 
L 372.051623 122.308848 
L 372.612506 122.308848 
L 372.612506 118.553934 
L 373.075275 118.553934 
L 373.075275 114.799019 
L 373.213297 114.799019 
L 373.305106 103.534276 
L 374.214281 103.534276 
L 374.214281 99.779361 
L 375.460682 99.779361 
L 375.460682 96.024447 
L 376.763382 96.024447 
L 376.763382 92.269532 
L 377.147835 92.269532 
L 377.147835 88.514618 
L 378.05477 88.514618 
L 378.05477 84.759703 
L 378.346629 84.759703 
L 378.346629 81.004789 
L 379.943024 81.004789 
L 379.943024 77.249874 
L 380.782504 77.249874 
L 380.782504 73.49496 
L 381.275757 73.49496 
L 381.275757 69.740045 
L 381.666978 69.740045 
L 381.666978 65.985131 
L 383.127022 65.985131 
L 383.127022 62.230216 
L 383.56082 62.230216 
L 383.56082 58.475302 
L 384.046829 58.475302 
L 384.046829 54.720387 
L 384.657137 54.720387 
L 384.657137 50.965473 
L 385.060018 50.965473 
L 385.060018 47.210558 
L 386.196543 47.210558 
L 386.196543 43.455644 
L 388.396827 43.455644 
L 388.396827 39.700729 
L 388.822406 39.700729 
L 388.822406 35.945815 
L 389.378824 35.945815 
L 389.378824 32.1909 
L 407.338327 32.1909 
L 407.338327 28.435986 
L 408.240657 28.435986 
L 408.240657 24.681072 
L 411.677635 24.681072 
L 411.677635 20.926157 
L 414.714995 20.926157 
L 414.714995 17.171243 
L 417.69882 17.171243 
L 417.69882 13.416328 
L 434.396548 13.416328 
L 434.396548 9.661414 
L 434.396548 9.661414 
L 450.672 9.661414 
L 450.672 9.661414 
" style="fill:none;stroke:#f5deb3;stroke-linecap:square;stroke-width:1.5;"/>
   </g>
   <g id="line2d_29">
    <path clip-path="url(#pe3df543e22)" d="M 424.266014 291.28 
L 424.266014 287.525086 
L 424.266014 287.525086 
L 424.266014 283.770171 
L 424.266014 283.770171 
L 424.266014 280.015257 
L 458.26011 280.015257 
L 458.26011 276.260342 
L 458.26011 276.260342 
L 458.26011 272.505428 
L 458.26011 272.505428 
L 458.26011 268.750513 
L 458.26011 268.750513 
" style="fill:none;stroke:#f5deb3;stroke-linecap:square;stroke-width:1.5;"/>
   </g>
   <g id="line2d_30"/>
   <g id="matplotlib.axis_1">
    <g id="xtick_1">
     <g id="line2d_31">
      <path clip-path="url(#pe3df543e22)" d="M 59.72 291.28 
L 59.72 6.845228 
" style="fill:none;stroke:#b0b0b0;stroke-linecap:square;stroke-width:0.8;"/>
     </g>
     <g id="line2d_32">
      <defs>
       <path d="M 0 0 
L 0 3.5 
" id="m4d15b64e7a" style="stroke:#000000;stroke-width:0.8;"/>
      </defs>
      <g>
       <use style="stroke:#000000;stroke-width:0.8;" x="59.72" xlink:href="#m4d15b64e7a" y="291.28"/>
      </g>
     </g>
     <g id="text_1">
      <!-- 0 -->
      <defs>
       <path d="M 31.78125 66.40625 
Q 24.171875 66.40625 20.328125 58.90625 
Q 16.5 51.421875 16.5 36.375 
Q 16.5 21.390625 20.328125 13.890625 
Q 24.171875 6.390625 31.78125 6.390625 
Q 39.453125 6.390625 43.28125 13.890625 
Q 47.125 21.390625 47.125 36.375 
Q 47.125 51.421875 43.28125 58.90625 
Q 39.453125 66.40625 31.78125 66.40625 
z
M 31.78125 74.21875 
Q 44.046875 74.21875 50.515625 64.515625 
Q 56.984375 54.828125 56.984375 36.375 
Q 56.984375 17.96875 50.515625 8.265625 
Q 44.046875 -1.421875 31.78125 -1.421875 
Q 19.53125 -1.421875 13.0625 8.265625 
Q 6.59375 17.96875 6.59375 36.375 
Q 6.59375 54.828125 13.0625 64.515625 
Q 19.53125 74.21875 31.78125 74.21875 
z
" id="DejaVuSans-30"/>
      </defs>
      <g transform="translate(53.3575 313.476875)scale(0.2 -0.2)">
       <use xlink:href="#DejaVuSans-30"/>
      </g>
     </g>
    </g>
    <g id="xtick_2">
     <g id="line2d_33">
      <path clip-path="url(#pe3df543e22)" d="M 296.273922 291.28 
L 296.273922 6.845228 
" style="fill:none;stroke:#b0b0b0;stroke-linecap:square;stroke-width:0.8;"/>
     </g>
     <g id="line2d_34">
      <g>
       <use style="stroke:#000000;stroke-width:0.8;" x="296.273922" xlink:href="#m4d15b64e7a" y="291.28"/>
      </g>
     </g>
     <g id="text_2">
      <!-- 2 -->
      <defs>
       <path d="M 19.1875 8.296875 
L 53.609375 8.296875 
L 53.609375 0 
L 7.328125 0 
L 7.328125 8.296875 
Q 12.9375 14.109375 22.625 23.890625 
Q 32.328125 33.6875 34.8125 36.53125 
Q 39.546875 41.84375 41.421875 45.53125 
Q 43.3125 49.21875 43.3125 52.78125 
Q 43.3125 58.59375 39.234375 62.25 
Q 35.15625 65.921875 28.609375 65.921875 
Q 23.96875 65.921875 18.8125 64.3125 
Q 13.671875 62.703125 7.8125 59.421875 
L 7.8125 69.390625 
Q 13.765625 71.78125 18.9375 73 
Q 24.125 74.21875 28.421875 74.21875 
Q 39.75 74.21875 46.484375 68.546875 
Q 53.21875 62.890625 53.21875 53.421875 
Q 53.21875 48.921875 51.53125 44.890625 
Q 49.859375 40.875 45.40625 35.40625 
Q 44.1875 33.984375 37.640625 27.21875 
Q 31.109375 20.453125 19.1875 8.296875 
z
" id="DejaVuSans-32"/>
      </defs>
      <g transform="translate(289.911422 313.476875)scale(0.2 -0.2)">
       <use xlink:href="#DejaVuSans-32"/>
      </g>
     </g>
    </g>
    <g id="xtick_3">
     <g id="line2d_35">
      <path clip-path="url(#pe3df543e22)" d="M 95.324913 291.28 
L 95.324913 6.845228 
" style="fill:none;stroke:#b0b0b0;stroke-linecap:square;stroke-width:0.8;"/>
     </g>
     <g id="line2d_36">
      <defs>
       <path d="M 0 0 
L 0 2 
" id="m831c090b2b" style="stroke:#000000;stroke-width:0.6;"/>
      </defs>
      <g>
       <use style="stroke:#000000;stroke-width:0.6;" x="95.324913" xlink:href="#m831c090b2b" y="291.28"/>
      </g>
     </g>
    </g>
    <g id="xtick_4">
     <g id="line2d_37">
      <path clip-path="url(#pe3df543e22)" d="M 116.152452 291.28 
L 116.152452 6.845228 
" style="fill:none;stroke:#b0b0b0;stroke-linecap:square;stroke-width:0.8;"/>
     </g>
     <g id="line2d_38">
      <g>
       <use style="stroke:#000000;stroke-width:0.6;" x="116.152452" xlink:href="#m831c090b2b" y="291.28"/>
      </g>
     </g>
    </g>
    <g id="xtick_5">
     <g id="line2d_39">
      <path clip-path="url(#pe3df543e22)" d="M 130.929826 291.28 
L 130.929826 6.845228 
" style="fill:none;stroke:#b0b0b0;stroke-linecap:square;stroke-width:0.8;"/>
     </g>
     <g id="line2d_40">
      <g>
       <use style="stroke:#000000;stroke-width:0.6;" x="130.929826" xlink:href="#m831c090b2b" y="291.28"/>
      </g>
     </g>
    </g>
    <g id="xtick_6">
     <g id="line2d_41">
      <path clip-path="url(#pe3df543e22)" d="M 142.392048 291.28 
L 142.392048 6.845228 
" style="fill:none;stroke:#b0b0b0;stroke-linecap:square;stroke-width:0.8;"/>
     </g>
     <g id="line2d_42">
      <g>
       <use style="stroke:#000000;stroke-width:0.6;" x="142.392048" xlink:href="#m831c090b2b" y="291.28"/>
      </g>
     </g>
    </g>
    <g id="xtick_7">
     <g id="line2d_43">
      <path clip-path="url(#pe3df543e22)" d="M 151.757365 291.28 
L 151.757365 6.845228 
" style="fill:none;stroke:#b0b0b0;stroke-linecap:square;stroke-width:0.8;"/>
     </g>
     <g id="line2d_44">
      <g>
       <use style="stroke:#000000;stroke-width:0.6;" x="151.757365" xlink:href="#m831c090b2b" y="291.28"/>
      </g>
     </g>
    </g>
    <g id="xtick_8">
     <g id="line2d_45">
      <path clip-path="url(#pe3df543e22)" d="M 159.675628 291.28 
L 159.675628 6.845228 
" style="fill:none;stroke:#b0b0b0;stroke-linecap:square;stroke-width:0.8;"/>
     </g>
     <g id="line2d_46">
      <g>
       <use style="stroke:#000000;stroke-width:0.6;" x="159.675628" xlink:href="#m831c090b2b" y="291.28"/>
      </g>
     </g>
    </g>
    <g id="xtick_9">
     <g id="line2d_47">
      <path clip-path="url(#pe3df543e22)" d="M 166.534739 291.28 
L 166.534739 6.845228 
" style="fill:none;stroke:#b0b0b0;stroke-linecap:square;stroke-width:0.8;"/>
     </g>
     <g id="line2d_48">
      <g>
       <use style="stroke:#000000;stroke-width:0.6;" x="166.534739" xlink:href="#m831c090b2b" y="291.28"/>
      </g>
     </g>
    </g>
    <g id="xtick_10">
     <g id="line2d_49">
      <path clip-path="url(#pe3df543e22)" d="M 172.584904 291.28 
L 172.584904 6.845228 
" style="fill:none;stroke:#b0b0b0;stroke-linecap:square;stroke-width:0.8;"/>
     </g>
     <g id="line2d_50">
      <g>
       <use style="stroke:#000000;stroke-width:0.6;" x="172.584904" xlink:href="#m831c090b2b" y="291.28"/>
      </g>
     </g>
    </g>
    <g id="xtick_11">
     <g id="line2d_51">
      <path clip-path="url(#pe3df543e22)" d="M 213.601874 291.28 
L 213.601874 6.845228 
" style="fill:none;stroke:#b0b0b0;stroke-linecap:square;stroke-width:0.8;"/>
     </g>
     <g id="line2d_52">
      <g>
       <use style="stroke:#000000;stroke-width:0.6;" x="213.601874" xlink:href="#m831c090b2b" y="291.28"/>
      </g>
     </g>
    </g>
    <g id="xtick_12">
     <g id="line2d_53">
      <path clip-path="url(#pe3df543e22)" d="M 234.429413 291.28 
L 234.429413 6.845228 
" style="fill:none;stroke:#b0b0b0;stroke-linecap:square;stroke-width:0.8;"/>
     </g>
     <g id="line2d_54">
      <g>
       <use style="stroke:#000000;stroke-width:0.6;" x="234.429413" xlink:href="#m831c090b2b" y="291.28"/>
      </g>
     </g>
    </g>
    <g id="xtick_13">
     <g id="line2d_55">
      <path clip-path="url(#pe3df543e22)" d="M 249.206787 291.28 
L 249.206787 6.845228 
" style="fill:none;stroke:#b0b0b0;stroke-linecap:square;stroke-width:0.8;"/>
     </g>
     <g id="line2d_56">
      <g>
       <use style="stroke:#000000;stroke-width:0.6;" x="249.206787" xlink:href="#m831c090b2b" y="291.28"/>
      </g>
     </g>
    </g>
    <g id="xtick_14">
     <g id="line2d_57">
      <path clip-path="url(#pe3df543e22)" d="M 260.669009 291.28 
L 260.669009 6.845228 
" style="fill:none;stroke:#b0b0b0;stroke-linecap:square;stroke-width:0.8;"/>
     </g>
     <g id="line2d_58">
      <g>
       <use style="stroke:#000000;stroke-width:0.6;" x="260.669009" xlink:href="#m831c090b2b" y="291.28"/>
      </g>
     </g>
    </g>
    <g id="xtick_15">
     <g id="line2d_59">
      <path clip-path="url(#pe3df543e22)" d="M 270.034326 291.28 
L 270.034326 6.845228 
" style="fill:none;stroke:#b0b0b0;stroke-linecap:square;stroke-width:0.8;"/>
     </g>
     <g id="line2d_60">
      <g>
       <use style="stroke:#000000;stroke-width:0.6;" x="270.034326" xlink:href="#m831c090b2b" y="291.28"/>
      </g>
     </g>
    </g>
    <g id="xtick_16">
     <g id="line2d_61">
      <path clip-path="url(#pe3df543e22)" d="M 277.952589 291.28 
L 277.952589 6.845228 
" style="fill:none;stroke:#b0b0b0;stroke-linecap:square;stroke-width:0.8;"/>
     </g>
     <g id="line2d_62">
      <g>
       <use style="stroke:#000000;stroke-width:0.6;" x="277.952589" xlink:href="#m831c090b2b" y="291.28"/>
      </g>
     </g>
    </g>
    <g id="xtick_17">
     <g id="line2d_63">
      <path clip-path="url(#pe3df543e22)" d="M 284.8117 291.28 
L 284.8117 6.845228 
" style="fill:none;stroke:#b0b0b0;stroke-linecap:square;stroke-width:0.8;"/>
     </g>
     <g id="line2d_64">
      <g>
       <use style="stroke:#000000;stroke-width:0.6;" x="284.8117" xlink:href="#m831c090b2b" y="291.28"/>
      </g>
     </g>
    </g>
    <g id="xtick_18">
     <g id="line2d_65">
      <path clip-path="url(#pe3df543e22)" d="M 290.861865 291.28 
L 290.861865 6.845228 
" style="fill:none;stroke:#b0b0b0;stroke-linecap:square;stroke-width:0.8;"/>
     </g>
     <g id="line2d_66">
      <g>
       <use style="stroke:#000000;stroke-width:0.6;" x="290.861865" xlink:href="#m831c090b2b" y="291.28"/>
      </g>
     </g>
    </g>
    <g id="xtick_19">
     <g id="line2d_67">
      <path clip-path="url(#pe3df543e22)" d="M 331.878835 291.28 
L 331.878835 6.845228 
" style="fill:none;stroke:#b0b0b0;stroke-linecap:square;stroke-width:0.8;"/>
     </g>
     <g id="line2d_68">
      <g>
       <use style="stroke:#000000;stroke-width:0.6;" x="331.878835" xlink:href="#m831c090b2b" y="291.28"/>
      </g>
     </g>
    </g>
    <g id="xtick_20">
     <g id="line2d_69">
      <path clip-path="url(#pe3df543e22)" d="M 352.706374 291.28 
L 352.706374 6.845228 
" style="fill:none;stroke:#b0b0b0;stroke-linecap:square;stroke-width:0.8;"/>
     </g>
     <g id="line2d_70">
      <g>
       <use style="stroke:#000000;stroke-width:0.6;" x="352.706374" xlink:href="#m831c090b2b" y="291.28"/>
      </g>
     </g>
    </g>
    <g id="xtick_21">
     <g id="line2d_71">
      <path clip-path="url(#pe3df543e22)" d="M 367.483748 291.28 
L 367.483748 6.845228 
" style="fill:none;stroke:#b0b0b0;stroke-linecap:square;stroke-width:0.8;"/>
     </g>
     <g id="line2d_72">
      <g>
       <use style="stroke:#000000;stroke-width:0.6;" x="367.483748" xlink:href="#m831c090b2b" y="291.28"/>
      </g>
     </g>
    </g>
    <g id="xtick_22">
     <g id="line2d_73">
      <path clip-path="url(#pe3df543e22)" d="M 378.945969 291.28 
L 378.945969 6.845228 
" style="fill:none;stroke:#b0b0b0;stroke-linecap:square;stroke-width:0.8;"/>
     </g>
     <g id="line2d_74">
      <g>
       <use style="stroke:#000000;stroke-width:0.6;" x="378.945969" xlink:href="#m831c090b2b" y="291.28"/>
      </g>
     </g>
    </g>
    <g id="xtick_23">
     <g id="line2d_75">
      <path clip-path="url(#pe3df543e22)" d="M 388.311287 291.28 
L 388.311287 6.845228 
" style="fill:none;stroke:#b0b0b0;stroke-linecap:square;stroke-width:0.8;"/>
     </g>
     <g id="line2d_76">
      <g>
       <use style="stroke:#000000;stroke-width:0.6;" x="388.311287" xlink:href="#m831c090b2b" y="291.28"/>
      </g>
     </g>
    </g>
    <g id="xtick_24">
     <g id="line2d_77">
      <path clip-path="url(#pe3df543e22)" d="M 396.229549 291.28 
L 396.229549 6.845228 
" style="fill:none;stroke:#b0b0b0;stroke-linecap:square;stroke-width:0.8;"/>
     </g>
     <g id="line2d_78">
      <g>
       <use style="stroke:#000000;stroke-width:0.6;" x="396.229549" xlink:href="#m831c090b2b" y="291.28"/>
      </g>
     </g>
    </g>
    <g id="xtick_25">
     <g id="line2d_79">
      <path clip-path="url(#pe3df543e22)" d="M 403.088661 291.28 
L 403.088661 6.845228 
" style="fill:none;stroke:#b0b0b0;stroke-linecap:square;stroke-width:0.8;"/>
     </g>
     <g id="line2d_80">
      <g>
       <use style="stroke:#000000;stroke-width:0.6;" x="403.088661" xlink:href="#m831c090b2b" y="291.28"/>
      </g>
     </g>
    </g>
    <g id="xtick_26">
     <g id="line2d_81">
      <path clip-path="url(#pe3df543e22)" d="M 409.138826 291.28 
L 409.138826 6.845228 
" style="fill:none;stroke:#b0b0b0;stroke-linecap:square;stroke-width:0.8;"/>
     </g>
     <g id="line2d_82">
      <g>
       <use style="stroke:#000000;stroke-width:0.6;" x="409.138826" xlink:href="#m831c090b2b" y="291.28"/>
      </g>
     </g>
    </g>
    <g id="xtick_27">
     <g id="line2d_83">
      <path clip-path="url(#pe3df543e22)" d="M 450.155795 291.28 
L 450.155795 6.845228 
" style="fill:none;stroke:#b0b0b0;stroke-linecap:square;stroke-width:0.8;"/>
     </g>
     <g id="line2d_84">
      <g>
       <use style="stroke:#000000;stroke-width:0.6;" x="450.155795" xlink:href="#m831c090b2b" y="291.28"/>
      </g>
     </g>
    </g>
    <g id="text_3">
     <!-- log10 of FEvals / DIM -->
     <defs>
      <path d="M 9.421875 75.984375 
L 18.40625 75.984375 
L 18.40625 0 
L 9.421875 0 
z
" id="DejaVuSans-6c"/>
      <path d="M 30.609375 48.390625 
Q 23.390625 48.390625 19.1875 42.75 
Q 14.984375 37.109375 14.984375 27.296875 
Q 14.984375 17.484375 19.15625 11.84375 
Q 23.34375 6.203125 30.609375 6.203125 
Q 37.796875 6.203125 41.984375 11.859375 
Q 46.1875 17.53125 46.1875 27.296875 
Q 46.1875 37.015625 41.984375 42.703125 
Q 37.796875 48.390625 30.609375 48.390625 
z
M 30.609375 56 
Q 42.328125 56 49.015625 48.375 
Q 55.71875 40.765625 55.71875 27.296875 
Q 55.71875 13.875 49.015625 6.21875 
Q 42.328125 -1.421875 30.609375 -1.421875 
Q 18.84375 -1.421875 12.171875 6.21875 
Q 5.515625 13.875 5.515625 27.296875 
Q 5.515625 40.765625 12.171875 48.375 
Q 18.84375 56 30.609375 56 
z
" id="DejaVuSans-6f"/>
      <path d="M 45.40625 27.984375 
Q 45.40625 37.75 41.375 43.109375 
Q 37.359375 48.484375 30.078125 48.484375 
Q 22.859375 48.484375 18.828125 43.109375 
Q 14.796875 37.75 14.796875 27.984375 
Q 14.796875 18.265625 18.828125 12.890625 
Q 22.859375 7.515625 30.078125 7.515625 
Q 37.359375 7.515625 41.375 12.890625 
Q 45.40625 18.265625 45.40625 27.984375 
z
M 54.390625 6.78125 
Q 54.390625 -7.171875 48.1875 -13.984375 
Q 42 -20.796875 29.203125 -20.796875 
Q 24.46875 -20.796875 20.265625 -20.09375 
Q 16.0625 -19.390625 12.109375 -17.921875 
L 12.109375 -9.1875 
Q 16.0625 -11.328125 19.921875 -12.34375 
Q 23.78125 -13.375 27.78125 -13.375 
Q 36.625 -13.375 41.015625 -8.765625 
Q 45.40625 -4.15625 45.40625 5.171875 
L 45.40625 9.625 
Q 42.625 4.78125 38.28125 2.390625 
Q 33.9375 0 27.875 0 
Q 17.828125 0 11.671875 7.65625 
Q 5.515625 15.328125 5.515625 27.984375 
Q 5.515625 40.671875 11.671875 48.328125 
Q 17.828125 56 27.875 56 
Q 33.9375 56 38.28125 53.609375 
Q 42.625 51.21875 45.40625 46.390625 
L 45.40625 54.6875 
L 54.390625 54.6875 
z
" id="DejaVuSans-67"/>
      <path d="M 12.40625 8.296875 
L 28.515625 8.296875 
L 28.515625 63.921875 
L 10.984375 60.40625 
L 10.984375 69.390625 
L 28.421875 72.90625 
L 38.28125 72.90625 
L 38.28125 8.296875 
L 54.390625 8.296875 
L 54.390625 0 
L 12.40625 0 
z
" id="DejaVuSans-31"/>
      <path id="DejaVuSans-20"/>
      <path d="M 37.109375 75.984375 
L 37.109375 68.5 
L 28.515625 68.5 
Q 23.6875 68.5 21.796875 66.546875 
Q 19.921875 64.59375 19.921875 59.515625 
L 19.921875 54.6875 
L 34.71875 54.6875 
L 34.71875 47.703125 
L 19.921875 47.703125 
L 19.921875 0 
L 10.890625 0 
L 10.890625 47.703125 
L 2.296875 47.703125 
L 2.296875 54.6875 
L 10.890625 54.6875 
L 10.890625 58.5 
Q 10.890625 67.625 15.140625 71.796875 
Q 19.390625 75.984375 28.609375 75.984375 
z
" id="DejaVuSans-66"/>
      <path d="M 9.8125 72.90625 
L 51.703125 72.90625 
L 51.703125 64.59375 
L 19.671875 64.59375 
L 19.671875 43.109375 
L 48.578125 43.109375 
L 48.578125 34.8125 
L 19.671875 34.8125 
L 19.671875 0 
L 9.8125 0 
z
" id="DejaVuSans-46"/>
      <path d="M 9.8125 72.90625 
L 55.90625 72.90625 
L 55.90625 64.59375 
L 19.671875 64.59375 
L 19.671875 43.015625 
L 54.390625 43.015625 
L 54.390625 34.71875 
L 19.671875 34.71875 
L 19.671875 8.296875 
L 56.78125 8.296875 
L 56.78125 0 
L 9.8125 0 
z
" id="DejaVuSans-45"/>
      <path d="M 2.984375 54.6875 
L 12.5 54.6875 
L 29.59375 8.796875 
L 46.6875 54.6875 
L 56.203125 54.6875 
L 35.6875 0 
L 23.484375 0 
z
" id="DejaVuSans-76"/>
      <path d="M 34.28125 27.484375 
Q 23.390625 27.484375 19.1875 25 
Q 14.984375 22.515625 14.984375 16.5 
Q 14.984375 11.71875 18.140625 8.90625 
Q 21.296875 6.109375 26.703125 6.109375 
Q 34.1875 6.109375 38.703125 11.40625 
Q 43.21875 16.703125 43.21875 25.484375 
L 43.21875 27.484375 
z
M 52.203125 31.203125 
L 52.203125 0 
L 43.21875 0 
L 43.21875 8.296875 
Q 40.140625 3.328125 35.546875 0.953125 
Q 30.953125 -1.421875 24.3125 -1.421875 
Q 15.921875 -1.421875 10.953125 3.296875 
Q 6 8.015625 6 15.921875 
Q 6 25.140625 12.171875 29.828125 
Q 18.359375 34.515625 30.609375 34.515625 
L 43.21875 34.515625 
L 43.21875 35.40625 
Q 43.21875 41.609375 39.140625 45 
Q 35.0625 48.390625 27.6875 48.390625 
Q 23 48.390625 18.546875 47.265625 
Q 14.109375 46.140625 10.015625 43.890625 
L 10.015625 52.203125 
Q 14.9375 54.109375 19.578125 55.046875 
Q 24.21875 56 28.609375 56 
Q 40.484375 56 46.34375 49.84375 
Q 52.203125 43.703125 52.203125 31.203125 
z
" id="DejaVuSans-61"/>
      <path d="M 44.28125 53.078125 
L 44.28125 44.578125 
Q 40.484375 46.53125 36.375 47.5 
Q 32.28125 48.484375 27.875 48.484375 
Q 21.1875 48.484375 17.84375 46.4375 
Q 14.5 44.390625 14.5 40.28125 
Q 14.5 37.15625 16.890625 35.375 
Q 19.28125 33.59375 26.515625 31.984375 
L 29.59375 31.296875 
Q 39.15625 29.25 43.1875 25.515625 
Q 47.21875 21.78125 47.21875 15.09375 
Q 47.21875 7.46875 41.1875 3.015625 
Q 35.15625 -1.421875 24.609375 -1.421875 
Q 20.21875 -1.421875 15.453125 -0.5625 
Q 10.6875 0.296875 5.421875 2 
L 5.421875 11.28125 
Q 10.40625 8.6875 15.234375 7.390625 
Q 20.0625 6.109375 24.8125 6.109375 
Q 31.15625 6.109375 34.5625 8.28125 
Q 37.984375 10.453125 37.984375 14.40625 
Q 37.984375 18.0625 35.515625 20.015625 
Q 33.0625 21.96875 24.703125 23.78125 
L 21.578125 24.515625 
Q 13.234375 26.265625 9.515625 29.90625 
Q 5.8125 33.546875 5.8125 39.890625 
Q 5.8125 47.609375 11.28125 51.796875 
Q 16.75 56 26.8125 56 
Q 31.78125 56 36.171875 55.265625 
Q 40.578125 54.546875 44.28125 53.078125 
z
" id="DejaVuSans-73"/>
      <path d="M 25.390625 72.90625 
L 33.6875 72.90625 
L 8.296875 -9.28125 
L 0 -9.28125 
z
" id="DejaVuSans-2f"/>
      <path d="M 19.671875 64.796875 
L 19.671875 8.109375 
L 31.59375 8.109375 
Q 46.6875 8.109375 53.6875 14.9375 
Q 60.6875 21.78125 60.6875 36.53125 
Q 60.6875 51.171875 53.6875 57.984375 
Q 46.6875 64.796875 31.59375 64.796875 
z
M 9.8125 72.90625 
L 30.078125 72.90625 
Q 51.265625 72.90625 61.171875 64.09375 
Q 71.09375 55.28125 71.09375 36.53125 
Q 71.09375 17.671875 61.125 8.828125 
Q 51.171875 0 30.078125 0 
L 9.8125 0 
z
" id="DejaVuSans-44"/>
      <path d="M 9.8125 72.90625 
L 19.671875 72.90625 
L 19.671875 0 
L 9.8125 0 
z
" id="DejaVuSans-49"/>
      <path d="M 9.8125 72.90625 
L 24.515625 72.90625 
L 43.109375 23.296875 
L 61.8125 72.90625 
L 76.515625 72.90625 
L 76.515625 0 
L 66.890625 0 
L 66.890625 64.015625 
L 48.09375 14.015625 
L 38.1875 14.015625 
L 19.390625 64.015625 
L 19.390625 0 
L 9.8125 0 
z
" id="DejaVuSans-4d"/>
     </defs>
     <g transform="translate(150.122563 336.833125)scale(0.2 -0.2)">
      <use xlink:href="#DejaVuSans-6c"/>
      <use x="27.783203" xlink:href="#DejaVuSans-6f"/>
      <use x="88.964844" xlink:href="#DejaVuSans-67"/>
      <use x="152.441406" xlink:href="#DejaVuSans-31"/>
      <use x="216.064453" xlink:href="#DejaVuSans-30"/>
      <use x="279.6875" xlink:href="#DejaVuSans-20"/>
      <use x="311.474609" xlink:href="#DejaVuSans-6f"/>
      <use x="372.65625" xlink:href="#DejaVuSans-66"/>
      <use x="407.861328" xlink:href="#DejaVuSans-20"/>
      <use x="439.648438" xlink:href="#DejaVuSans-46"/>
      <use x="497.167969" xlink:href="#DejaVuSans-45"/>
      <use x="560.351562" xlink:href="#DejaVuSans-76"/>
      <use x="619.53125" xlink:href="#DejaVuSans-61"/>
      <use x="680.810547" xlink:href="#DejaVuSans-6c"/>
      <use x="708.59375" xlink:href="#DejaVuSans-73"/>
      <use x="760.693359" xlink:href="#DejaVuSans-20"/>
      <use x="792.480469" xlink:href="#DejaVuSans-2f"/>
      <use x="826.171875" xlink:href="#DejaVuSans-20"/>
      <use x="857.958984" xlink:href="#DejaVuSans-44"/>
      <use x="934.960938" xlink:href="#DejaVuSans-49"/>
      <use x="964.453125" xlink:href="#DejaVuSans-4d"/>
     </g>
    </g>
   </g>
   <g id="matplotlib.axis_2">
    <g id="ytick_1">
     <g id="line2d_85">
      <path clip-path="url(#pe3df543e22)" d="M 59.72 291.28 
L 450.672 291.28 
" style="fill:none;stroke:#b0b0b0;stroke-linecap:square;stroke-width:0.8;"/>
     </g>
     <g id="line2d_86">
      <defs>
       <path d="M 0 0 
L -3.5 0 
" id="ma526c966ea" style="stroke:#000000;stroke-width:0.8;"/>
      </defs>
      <g>
       <use style="stroke:#000000;stroke-width:0.8;" x="59.72" xlink:href="#ma526c966ea" y="291.28"/>
      </g>
     </g>
     <g id="text_4">
      <!-- 0.0 -->
      <defs>
       <path d="M 10.6875 12.40625 
L 21 12.40625 
L 21 0 
L 10.6875 0 
z
" id="DejaVuSans-2e"/>
      </defs>
      <g transform="translate(27.275 297.35875)scale(0.16 -0.16)">
       <use xlink:href="#DejaVuSans-30"/>
       <use x="63.623047" xlink:href="#DejaVuSans-2e"/>
       <use x="95.410156" xlink:href="#DejaVuSans-30"/>
      </g>
     </g>
    </g>
    <g id="ytick_2">
     <g id="line2d_87">
      <path clip-path="url(#pe3df543e22)" d="M 59.72 234.956283 
L 450.672 234.956283 
" style="fill:none;stroke:#b0b0b0;stroke-linecap:square;stroke-width:0.8;"/>
     </g>
     <g id="line2d_88">
      <g>
       <use style="stroke:#000000;stroke-width:0.8;" x="59.72" xlink:href="#ma526c966ea" y="234.956283"/>
      </g>
     </g>
     <g id="text_5">
      <!-- 0.2 -->
      <g transform="translate(27.275 241.035033)scale(0.16 -0.16)">
       <use xlink:href="#DejaVuSans-30"/>
       <use x="63.623047" xlink:href="#DejaVuSans-2e"/>
       <use x="95.410156" xlink:href="#DejaVuSans-32"/>
      </g>
     </g>
    </g>
    <g id="ytick_3">
     <g id="line2d_89">
      <path clip-path="url(#pe3df543e22)" d="M 59.72 178.632565 
L 450.672 178.632565 
" style="fill:none;stroke:#b0b0b0;stroke-linecap:square;stroke-width:0.8;"/>
     </g>
     <g id="line2d_90">
      <g>
       <use style="stroke:#000000;stroke-width:0.8;" x="59.72" xlink:href="#ma526c966ea" y="178.632565"/>
      </g>
     </g>
     <g id="text_6">
      <!-- 0.4 -->
      <defs>
       <path d="M 37.796875 64.3125 
L 12.890625 25.390625 
L 37.796875 25.390625 
z
M 35.203125 72.90625 
L 47.609375 72.90625 
L 47.609375 25.390625 
L 58.015625 25.390625 
L 58.015625 17.1875 
L 47.609375 17.1875 
L 47.609375 0 
L 37.796875 0 
L 37.796875 17.1875 
L 4.890625 17.1875 
L 4.890625 26.703125 
z
" id="DejaVuSans-34"/>
      </defs>
      <g transform="translate(27.275 184.711315)scale(0.16 -0.16)">
       <use xlink:href="#DejaVuSans-30"/>
       <use x="63.623047" xlink:href="#DejaVuSans-2e"/>
       <use x="95.410156" xlink:href="#DejaVuSans-34"/>
      </g>
     </g>
    </g>
    <g id="ytick_4">
     <g id="line2d_91">
      <path clip-path="url(#pe3df543e22)" d="M 59.72 122.308848 
L 450.672 122.308848 
" style="fill:none;stroke:#b0b0b0;stroke-linecap:square;stroke-width:0.8;"/>
     </g>
     <g id="line2d_92">
      <g>
       <use style="stroke:#000000;stroke-width:0.8;" x="59.72" xlink:href="#ma526c966ea" y="122.308848"/>
      </g>
     </g>
     <g id="text_7">
      <!-- 0.6 -->
      <defs>
       <path d="M 33.015625 40.375 
Q 26.375 40.375 22.484375 35.828125 
Q 18.609375 31.296875 18.609375 23.390625 
Q 18.609375 15.53125 22.484375 10.953125 
Q 26.375 6.390625 33.015625 6.390625 
Q 39.65625 6.390625 43.53125 10.953125 
Q 47.40625 15.53125 47.40625 23.390625 
Q 47.40625 31.296875 43.53125 35.828125 
Q 39.65625 40.375 33.015625 40.375 
z
M 52.59375 71.296875 
L 52.59375 62.3125 
Q 48.875 64.0625 45.09375 64.984375 
Q 41.3125 65.921875 37.59375 65.921875 
Q 27.828125 65.921875 22.671875 59.328125 
Q 17.53125 52.734375 16.796875 39.40625 
Q 19.671875 43.65625 24.015625 45.921875 
Q 28.375 48.1875 33.59375 48.1875 
Q 44.578125 48.1875 50.953125 41.515625 
Q 57.328125 34.859375 57.328125 23.390625 
Q 57.328125 12.15625 50.6875 5.359375 
Q 44.046875 -1.421875 33.015625 -1.421875 
Q 20.359375 -1.421875 13.671875 8.265625 
Q 6.984375 17.96875 6.984375 36.375 
Q 6.984375 53.65625 15.1875 63.9375 
Q 23.390625 74.21875 37.203125 74.21875 
Q 40.921875 74.21875 44.703125 73.484375 
Q 48.484375 72.75 52.59375 71.296875 
z
" id="DejaVuSans-36"/>
      </defs>
      <g transform="translate(27.275 128.387598)scale(0.16 -0.16)">
       <use xlink:href="#DejaVuSans-30"/>
       <use x="63.623047" xlink:href="#DejaVuSans-2e"/>
       <use x="95.410156" xlink:href="#DejaVuSans-36"/>
      </g>
     </g>
    </g>
    <g id="ytick_5">
     <g id="line2d_93">
      <path clip-path="url(#pe3df543e22)" d="M 59.72 65.985131 
L 450.672 65.985131 
" style="fill:none;stroke:#b0b0b0;stroke-linecap:square;stroke-width:0.8;"/>
     </g>
     <g id="line2d_94">
      <g>
       <use style="stroke:#000000;stroke-width:0.8;" x="59.72" xlink:href="#ma526c966ea" y="65.985131"/>
      </g>
     </g>
     <g id="text_8">
      <!-- 0.8 -->
      <defs>
       <path d="M 31.78125 34.625 
Q 24.75 34.625 20.71875 30.859375 
Q 16.703125 27.09375 16.703125 20.515625 
Q 16.703125 13.921875 20.71875 10.15625 
Q 24.75 6.390625 31.78125 6.390625 
Q 38.8125 6.390625 42.859375 10.171875 
Q 46.921875 13.96875 46.921875 20.515625 
Q 46.921875 27.09375 42.890625 30.859375 
Q 38.875 34.625 31.78125 34.625 
z
M 21.921875 38.8125 
Q 15.578125 40.375 12.03125 44.71875 
Q 8.5 49.078125 8.5 55.328125 
Q 8.5 64.0625 14.71875 69.140625 
Q 20.953125 74.21875 31.78125 74.21875 
Q 42.671875 74.21875 48.875 69.140625 
Q 55.078125 64.0625 55.078125 55.328125 
Q 55.078125 49.078125 51.53125 44.71875 
Q 48 40.375 41.703125 38.8125 
Q 48.828125 37.15625 52.796875 32.3125 
Q 56.78125 27.484375 56.78125 20.515625 
Q 56.78125 9.90625 50.3125 4.234375 
Q 43.84375 -1.421875 31.78125 -1.421875 
Q 19.734375 -1.421875 13.25 4.234375 
Q 6.78125 9.90625 6.78125 20.515625 
Q 6.78125 27.484375 10.78125 32.3125 
Q 14.796875 37.15625 21.921875 38.8125 
z
M 18.3125 54.390625 
Q 18.3125 48.734375 21.84375 45.5625 
Q 25.390625 42.390625 31.78125 42.390625 
Q 38.140625 42.390625 41.71875 45.5625 
Q 45.3125 48.734375 45.3125 54.390625 
Q 45.3125 60.0625 41.71875 63.234375 
Q 38.140625 66.40625 31.78125 66.40625 
Q 25.390625 66.40625 21.84375 63.234375 
Q 18.3125 60.0625 18.3125 54.390625 
z
" id="DejaVuSans-38"/>
      </defs>
      <g transform="translate(27.275 72.063881)scale(0.16 -0.16)">
       <use xlink:href="#DejaVuSans-30"/>
       <use x="63.623047" xlink:href="#DejaVuSans-2e"/>
       <use x="95.410156" xlink:href="#DejaVuSans-38"/>
      </g>
     </g>
    </g>
    <g id="ytick_6">
     <g id="line2d_95">
      <path clip-path="url(#pe3df543e22)" d="M 59.72 9.661414 
L 450.672 9.661414 
" style="fill:none;stroke:#b0b0b0;stroke-linecap:square;stroke-width:0.8;"/>
     </g>
     <g id="line2d_96">
      <g>
       <use style="stroke:#000000;stroke-width:0.8;" x="59.72" xlink:href="#ma526c966ea" y="9.661414"/>
      </g>
     </g>
     <g id="text_9">
      <!-- 1.0 -->
      <g transform="translate(27.275 15.740164)scale(0.16 -0.16)">
       <use xlink:href="#DejaVuSans-31"/>
       <use x="63.623047" xlink:href="#DejaVuSans-2e"/>
       <use x="95.410156" xlink:href="#DejaVuSans-30"/>
      </g>
     </g>
    </g>
    <g id="text_10">
     <!-- proportion of trials -->
     <defs>
      <path d="M 18.109375 8.203125 
L 18.109375 -20.796875 
L 9.078125 -20.796875 
L 9.078125 54.6875 
L 18.109375 54.6875 
L 18.109375 46.390625 
Q 20.953125 51.265625 25.265625 53.625 
Q 29.59375 56 35.59375 56 
Q 45.5625 56 51.78125 48.09375 
Q 58.015625 40.1875 58.015625 27.296875 
Q 58.015625 14.40625 51.78125 6.484375 
Q 45.5625 -1.421875 35.59375 -1.421875 
Q 29.59375 -1.421875 25.265625 0.953125 
Q 20.953125 3.328125 18.109375 8.203125 
z
M 48.6875 27.296875 
Q 48.6875 37.203125 44.609375 42.84375 
Q 40.53125 48.484375 33.40625 48.484375 
Q 26.265625 48.484375 22.1875 42.84375 
Q 18.109375 37.203125 18.109375 27.296875 
Q 18.109375 17.390625 22.1875 11.75 
Q 26.265625 6.109375 33.40625 6.109375 
Q 40.53125 6.109375 44.609375 11.75 
Q 48.6875 17.390625 48.6875 27.296875 
z
" id="DejaVuSans-70"/>
      <path d="M 41.109375 46.296875 
Q 39.59375 47.171875 37.8125 47.578125 
Q 36.03125 48 33.890625 48 
Q 26.265625 48 22.1875 43.046875 
Q 18.109375 38.09375 18.109375 28.8125 
L 18.109375 0 
L 9.078125 0 
L 9.078125 54.6875 
L 18.109375 54.6875 
L 18.109375 46.1875 
Q 20.953125 51.171875 25.484375 53.578125 
Q 30.03125 56 36.53125 56 
Q 37.453125 56 38.578125 55.875 
Q 39.703125 55.765625 41.0625 55.515625 
z
" id="DejaVuSans-72"/>
      <path d="M 18.3125 70.21875 
L 18.3125 54.6875 
L 36.8125 54.6875 
L 36.8125 47.703125 
L 18.3125 47.703125 
L 18.3125 18.015625 
Q 18.3125 11.328125 20.140625 9.421875 
Q 21.96875 7.515625 27.59375 7.515625 
L 36.8125 7.515625 
L 36.8125 0 
L 27.59375 0 
Q 17.1875 0 13.234375 3.875 
Q 9.28125 7.765625 9.28125 18.015625 
L 9.28125 47.703125 
L 2.6875 47.703125 
L 2.6875 54.6875 
L 9.28125 54.6875 
L 9.28125 70.21875 
z
" id="DejaVuSans-74"/>
      <path d="M 9.421875 54.6875 
L 18.40625 54.6875 
L 18.40625 0 
L 9.421875 0 
z
M 9.421875 75.984375 
L 18.40625 75.984375 
L 18.40625 64.59375 
L 9.421875 64.59375 
z
" id="DejaVuSans-69"/>
      <path d="M 54.890625 33.015625 
L 54.890625 0 
L 45.90625 0 
L 45.90625 32.71875 
Q 45.90625 40.484375 42.875 44.328125 
Q 39.84375 48.1875 33.796875 48.1875 
Q 26.515625 48.1875 22.3125 43.546875 
Q 18.109375 38.921875 18.109375 30.90625 
L 18.109375 0 
L 9.078125 0 
L 9.078125 54.6875 
L 18.109375 54.6875 
L 18.109375 46.1875 
Q 21.34375 51.125 25.703125 53.5625 
Q 30.078125 56 35.796875 56 
Q 45.21875 56 50.046875 50.171875 
Q 54.890625 44.34375 54.890625 33.015625 
z
" id="DejaVuSans-6e"/>
     </defs>
     <g transform="translate(19.115625 242.290739)rotate(-90)scale(0.2 -0.2)">
      <use xlink:href="#DejaVuSans-70"/>
      <use x="63.476562" xlink:href="#DejaVuSans-72"/>
      <use x="104.558594" xlink:href="#DejaVuSans-6f"/>
      <use x="165.740234" xlink:href="#DejaVuSans-70"/>
      <use x="229.216797" xlink:href="#DejaVuSans-6f"/>
      <use x="290.398438" xlink:href="#DejaVuSans-72"/>
      <use x="331.511719" xlink:href="#DejaVuSans-74"/>
      <use x="370.720703" xlink:href="#DejaVuSans-69"/>
      <use x="398.503906" xlink:href="#DejaVuSans-6f"/>
      <use x="459.685547" xlink:href="#DejaVuSans-6e"/>
      <use x="523.064453" xlink:href="#DejaVuSans-20"/>
      <use x="554.851562" xlink:href="#DejaVuSans-6f"/>
      <use x="616.033203" xlink:href="#DejaVuSans-66"/>
      <use x="651.238281" xlink:href="#DejaVuSans-20"/>
      <use x="683.025391" xlink:href="#DejaVuSans-74"/>
      <use x="722.234375" xlink:href="#DejaVuSans-72"/>
      <use x="763.347656" xlink:href="#DejaVuSans-69"/>
      <use x="791.130859" xlink:href="#DejaVuSans-61"/>
      <use x="852.410156" xlink:href="#DejaVuSans-6c"/>
      <use x="880.193359" xlink:href="#DejaVuSans-73"/>
     </g>
    </g>
   </g>
   <g id="line2d_97">
    <path clip-path="url(#pe3df543e22)" d="M -1 272.505428 
L 59.72 272.505428 
L 59.72 268.750513 
L 59.72 268.750513 
L 59.72 264.995599 
L 69.085317 264.995599 
L 69.085317 261.240684 
L 89.912856 261.240684 
L 89.912856 257.48577 
L 116.152452 257.48577 
L 116.152452 253.730855 
L 116.152452 253.730855 
L 116.152452 249.975941 
L 122.581711 249.975941 
L 122.581711 246.221026 
L 133.436032 246.221026 
L 133.436032 242.466112 
L 133.436032 242.466112 
L 133.436032 238.711197 
L 158.186624 238.711197 
L 158.186624 234.956283 
L 258.785689 234.956283 
L 258.785689 231.201368 
L 302.186925 231.201368 
L 302.186925 227.446454 
L 319.116112 227.446454 
L 319.116112 223.691539 
L 329.835409 223.691539 
L 329.835409 219.936625 
L 336.914537 219.936625 
L 336.914537 216.18171 
L 337.100481 216.18171 
L 337.100481 212.426796 
L 339.591217 212.426796 
L 339.591217 208.671881 
L 341.244152 208.671881 
L 341.244152 204.916967 
L 343.093901 204.916967 
L 343.093901 201.162052 
L 349.308968 201.162052 
L 349.308968 197.407138 
L 350.645128 197.407138 
L 350.645128 193.652223 
L 354.819713 193.652223 
L 354.819713 189.897309 
L 358.680383 189.897309 
L 358.680383 186.142394 
L 359.974786 186.142394 
L 359.974786 182.38748 
L 361.785523 182.38748 
L 361.785523 178.632565 
L 365.306519 178.632565 
L 365.306519 174.877651 
L 365.627063 174.877651 
L 365.627063 171.122736 
L 366.341057 171.122736 
L 366.341057 167.367822 
L 366.811598 167.367822 
L 366.811598 163.612907 
L 368.096483 163.612907 
L 368.096483 159.857993 
L 368.902257 159.857993 
L 368.902257 156.103079 
L 369.126622 156.103079 
L 369.126622 152.348164 
L 370.112111 152.348164 
L 370.112111 148.59325 
L 371.745235 148.59325 
L 371.745235 144.838335 
L 373.121324 144.838335 
L 373.121324 141.083421 
L 373.190319 141.083421 
L 373.190319 137.328506 
L 373.602356 137.328506 
L 373.602356 133.573592 
L 374.326804 133.573592 
L 374.326804 129.818677 
L 375.019002 129.818677 
L 375.019002 126.063763 
L 375.328577 126.063763 
L 375.328577 122.308848 
L 375.680106 122.308848 
L 375.680106 118.553934 
L 377.254119 118.553934 
L 377.254119 114.799019 
L 377.487173 114.799019 
L 377.487173 111.044105 
L 377.971076 111.044105 
L 377.971076 107.28919 
L 381.079024 107.28919 
L 381.079024 103.534276 
L 381.334631 103.534276 
L 381.334631 99.779361 
L 385.041774 99.779361 
L 385.041774 96.024447 
L 387.273533 96.024447 
L 387.273533 92.269532 
L 388.448083 92.269532 
L 388.448083 88.514618 
L 390.342399 88.514618 
L 390.342399 84.759703 
L 400.494413 84.759703 
L 400.494413 81.004789 
L 403.344856 81.004789 
L 403.344856 77.249874 
L 405.631544 77.249874 
L 405.631544 73.49496 
L 412.496766 73.49496 
L 412.496766 69.740045 
L 426.763716 69.740045 
L 426.763716 65.985131 
L 426.763716 65.985131 
L 426.763716 65.985131 
L 450.672 65.985131 
" style="fill:none;stroke:#000000;stroke-linecap:square;stroke-width:1.5;"/>
   </g>
   <g id="line2d_98">
    <path clip-path="url(#pe3df543e22)" style="fill:none;stroke:#000000;stroke-linecap:square;stroke-width:1.5;"/>
   </g>
   <g id="line2d_99">
    <path clip-path="url(#pe3df543e22)" d="M 307.818265 291.28 
L 307.818265 287.525086 
L 312.818395 287.525086 
L 312.818395 283.770171 
L 316.481328 283.770171 
L 316.481328 280.015257 
L 317.578663 280.015257 
L 317.578663 276.260342 
L 319.965173 276.260342 
L 319.965173 272.505428 
L 320.54487 272.505428 
L 320.54487 268.750513 
L 320.736658 268.750513 
L 320.736658 264.995599 
L 320.991266 264.995599 
L 320.991266 261.240684 
L 321.433815 261.240684 
L 321.433815 257.48577 
L 323.044976 257.48577 
L 323.044976 253.730855 
L 325.019723 253.730855 
L 325.019723 249.975941 
L 325.719399 249.975941 
L 325.719399 246.221026 
L 326.00814 246.221026 
L 326.00814 242.466112 
L 326.864753 242.466112 
L 326.864753 238.711197 
L 327.595769 238.711197 
L 327.595769 234.956283 
L 381.256118 234.956283 
L 381.256118 231.201368 
L 387.795031 231.201368 
L 387.795031 227.446454 
L 391.43345 227.446454 
L 391.43345 223.691539 
L 391.834695 223.691539 
L 391.834695 219.936625 
L 394.876338 219.936625 
L 394.876338 216.18171 
L 399.167238 216.18171 
L 399.167238 212.426796 
L 404.619475 212.426796 
L 404.619475 208.671881 
L 410.088837 208.671881 
L 410.088837 204.916967 
L 410.612825 204.916967 
L 410.612825 201.162052 
L 415.668706 201.162052 
L 415.668706 197.407138 
L 416.585287 197.407138 
L 416.585287 193.652223 
L 418.361258 193.652223 
L 418.361258 189.897309 
L 419.465359 189.897309 
L 419.465359 186.142394 
L 423.209342 186.142394 
L 423.209342 182.38748 
L 426.128038 182.38748 
L 426.128038 178.632565 
L 436.743604 178.632565 
L 436.743604 174.877651 
L 440.578409 174.877651 
L 440.578409 171.122736 
L 440.578409 171.122736 
L 440.578409 171.122736 
L 450.672 171.122736 
" style="fill:none;stroke:#00bfbf;stroke-linecap:square;stroke-width:1.5;"/>
   </g>
   <g id="line2d_100">
    <path clip-path="url(#pe3df543e22)" style="fill:none;stroke:#00bfbf;stroke-linecap:square;stroke-width:1.5;"/>
   </g>
   <g id="line2d_101">
    <path clip-path="url(#pe3df543e22)" d="M 384.932171 291.28 
L 384.932171 287.525086 
L 385.078256 287.525086 
L 385.078256 283.770171 
L 388.584516 283.770171 
L 388.584516 280.015257 
L 392.517587 280.015257 
L 392.517587 276.260342 
L 393.718207 276.260342 
L 393.718207 272.505428 
L 397.462127 272.505428 
L 397.462127 268.750513 
L 400.250711 268.750513 
L 400.250711 264.995599 
L 404.244166 264.995599 
L 404.244166 261.240684 
L 404.619475 261.240684 
L 404.619475 257.48577 
L 406.069645 257.48577 
L 406.069645 253.730855 
L 406.827444 253.730855 
L 406.827444 249.975941 
L 410.712556 249.975941 
L 410.712556 246.221026 
L 413.060368 246.221026 
L 413.060368 242.466112 
L 415.678757 242.466112 
L 415.678757 238.711197 
L 423.529495 238.711197 
L 423.529495 234.956283 
L 423.941877 234.956283 
L 423.941877 231.201368 
L 426.885065 231.201368 
L 426.885065 227.446454 
L 428.043559 227.446454 
L 428.043559 223.691539 
L 428.051458 223.691539 
L 428.051458 219.936625 
L 436.770274 219.936625 
L 436.770274 216.18171 
L 436.770274 216.18171 
L 436.770274 216.18171 
L 450.672 216.18171 
" style="fill:none;stroke:#bf00bf;stroke-linecap:square;stroke-width:1.5;"/>
   </g>
   <g id="line2d_102">
    <path clip-path="url(#pe3df543e22)" style="fill:none;stroke:#bf00bf;stroke-linecap:square;stroke-width:1.5;"/>
   </g>
   <g id="line2d_103">
    <path clip-path="url(#pe3df543e22)" d="M 430.87901 291.28 
L 430.87901 287.525086 
L 436.816914 287.525086 
L 436.816914 283.770171 
L 440.168266 283.770171 
L 440.168266 280.015257 
L 441.425542 280.015257 
L 441.425542 276.260342 
L 441.425542 276.260342 
L 441.425542 276.260342 
L 450.672 276.260342 
" style="fill:none;stroke:#ff0000;stroke-linecap:square;stroke-width:3;"/>
   </g>
   <g id="line2d_104">
    <path clip-path="url(#pe3df543e22)" style="fill:none;stroke:#ff0000;stroke-linecap:square;stroke-width:3;"/>
   </g>
   <g id="line2d_105">
    <path clip-path="url(#pe3df543e22)" d="M 450.672 291.28 
L 450.672 6.845228 
" style="fill:none;stroke:#000000;stroke-linecap:square;stroke-width:1.5;"/>
   </g>
   <g id="patch_3">
    <path d="M 59.72 291.28 
L 59.72 6.845228 
" style="fill:none;stroke:#000000;stroke-linecap:square;stroke-linejoin:miter;stroke-width:0.8;"/>
   </g>
   <g id="patch_4">
    <path d="M 450.672 291.28 
L 450.672 6.845228 
" style="fill:none;stroke:#000000;stroke-linecap:square;stroke-linejoin:miter;stroke-width:0.8;"/>
   </g>
   <g id="patch_5">
    <path d="M 59.72 291.28 
L 450.672 291.28 
" style="fill:none;stroke:#000000;stroke-linecap:square;stroke-linejoin:miter;stroke-width:0.8;"/>
   </g>
   <g id="patch_6">
    <path d="M 59.72 6.845228 
L 450.672 6.845228 
" style="fill:none;stroke:#000000;stroke-linecap:square;stroke-linejoin:miter;stroke-width:0.8;"/>
   </g>
   <g id="text_11">
    <!-- {f10-f14}, 5-D -->
    <defs>
     <path d="M 51.125 -9.28125 
L 51.125 -16.3125 
L 48.09375 -16.3125 
Q 35.9375 -16.3125 31.8125 -12.6875 
Q 27.6875 -9.078125 27.6875 1.703125 
L 27.6875 13.375 
Q 27.6875 20.75 25.046875 23.578125 
Q 22.40625 26.421875 15.484375 26.421875 
L 12.5 26.421875 
L 12.5 33.40625 
L 15.484375 33.40625 
Q 22.46875 33.40625 25.078125 36.203125 
Q 27.6875 39.015625 27.6875 46.296875 
L 27.6875 58.015625 
Q 27.6875 68.796875 31.8125 72.390625 
Q 35.9375 75.984375 48.09375 75.984375 
L 51.125 75.984375 
L 51.125 69 
L 47.796875 69 
Q 40.921875 69 38.8125 66.84375 
Q 36.71875 64.703125 36.71875 57.8125 
L 36.71875 45.703125 
Q 36.71875 38.03125 34.5 34.5625 
Q 32.28125 31.109375 26.90625 29.890625 
Q 32.328125 28.5625 34.515625 25.09375 
Q 36.71875 21.625 36.71875 14.015625 
L 36.71875 1.90625 
Q 36.71875 -4.984375 38.8125 -7.125 
Q 40.921875 -9.28125 47.796875 -9.28125 
z
" id="DejaVuSans-7b"/>
     <path d="M 4.890625 31.390625 
L 31.203125 31.390625 
L 31.203125 23.390625 
L 4.890625 23.390625 
z
" id="DejaVuSans-2d"/>
     <path d="M 12.5 -9.28125 
L 15.921875 -9.28125 
Q 22.75 -9.28125 24.828125 -7.171875 
Q 26.90625 -5.078125 26.90625 1.90625 
L 26.90625 14.015625 
Q 26.90625 21.625 29.09375 25.09375 
Q 31.296875 28.5625 36.71875 29.890625 
Q 31.296875 31.109375 29.09375 34.5625 
Q 26.90625 38.03125 26.90625 45.703125 
L 26.90625 57.8125 
Q 26.90625 64.75 24.828125 66.875 
Q 22.75 69 15.921875 69 
L 12.5 69 
L 12.5 75.984375 
L 15.578125 75.984375 
Q 27.734375 75.984375 31.8125 72.390625 
Q 35.890625 68.796875 35.890625 58.015625 
L 35.890625 46.296875 
Q 35.890625 39.015625 38.515625 36.203125 
Q 41.15625 33.40625 48.09375 33.40625 
L 51.125 33.40625 
L 51.125 26.421875 
L 48.09375 26.421875 
Q 41.15625 26.421875 38.515625 23.578125 
Q 35.890625 20.75 35.890625 13.375 
L 35.890625 1.703125 
Q 35.890625 -9.078125 31.8125 -12.6875 
Q 27.734375 -16.3125 15.578125 -16.3125 
L 12.5 -16.3125 
z
" id="DejaVuSans-7d"/>
     <path d="M 11.71875 12.40625 
L 22.015625 12.40625 
L 22.015625 4 
L 14.015625 -11.625 
L 7.71875 -11.625 
L 11.71875 4 
z
" id="DejaVuSans-2c"/>
     <path d="M 10.796875 72.90625 
L 49.515625 72.90625 
L 49.515625 64.59375 
L 19.828125 64.59375 
L 19.828125 46.734375 
Q 21.96875 47.46875 24.109375 47.828125 
Q 26.265625 48.1875 28.421875 48.1875 
Q 40.625 48.1875 47.75 41.5 
Q 54.890625 34.8125 54.890625 23.390625 
Q 54.890625 11.625 47.5625 5.09375 
Q 40.234375 -1.421875 26.90625 -1.421875 
Q 22.3125 -1.421875 17.546875 -0.640625 
Q 12.796875 0.140625 7.71875 1.703125 
L 7.71875 11.625 
Q 12.109375 9.234375 16.796875 8.0625 
Q 21.484375 6.890625 26.703125 6.890625 
Q 35.15625 6.890625 40.078125 11.328125 
Q 45.015625 15.765625 45.015625 23.390625 
Q 45.015625 31 40.078125 35.4375 
Q 35.15625 39.890625 26.703125 39.890625 
Q 22.75 39.890625 18.8125 39.015625 
Q 14.890625 38.140625 10.796875 36.28125 
z
" id="DejaVuSans-35"/>
    </defs>
    <g transform="translate(182.346 27.730798)scale(0.2 -0.2)">
     <use xlink:href="#DejaVuSans-7b"/>
     <use x="63.623047" xlink:href="#DejaVuSans-66"/>
     <use x="98.828125" xlink:href="#DejaVuSans-31"/>
     <use x="162.451172" xlink:href="#DejaVuSans-30"/>
     <use x="226.074219" xlink:href="#DejaVuSans-2d"/>
     <use x="262.158203" xlink:href="#DejaVuSans-66"/>
     <use x="297.363281" xlink:href="#DejaVuSans-31"/>
     <use x="360.986328" xlink:href="#DejaVuSans-34"/>
     <use x="424.609375" xlink:href="#DejaVuSans-7d"/>
     <use x="488.232422" xlink:href="#DejaVuSans-2c"/>
     <use x="520.019531" xlink:href="#DejaVuSans-20"/>
     <use x="551.806641" xlink:href="#DejaVuSans-35"/>
     <use x="615.429688" xlink:href="#DejaVuSans-2d"/>
     <use x="651.513672" xlink:href="#DejaVuSans-44"/>
    </g>
   </g>
   <g id="text_12">
    <!-- absolute targets -->
    <defs>
     <path d="M 48.6875 27.296875 
Q 48.6875 37.203125 44.609375 42.84375 
Q 40.53125 48.484375 33.40625 48.484375 
Q 26.265625 48.484375 22.1875 42.84375 
Q 18.109375 37.203125 18.109375 27.296875 
Q 18.109375 17.390625 22.1875 11.75 
Q 26.265625 6.109375 33.40625 6.109375 
Q 40.53125 6.109375 44.609375 11.75 
Q 48.6875 17.390625 48.6875 27.296875 
z
M 18.109375 46.390625 
Q 20.953125 51.265625 25.265625 53.625 
Q 29.59375 56 35.59375 56 
Q 45.5625 56 51.78125 48.09375 
Q 58.015625 40.1875 58.015625 27.296875 
Q 58.015625 14.40625 51.78125 6.484375 
Q 45.5625 -1.421875 35.59375 -1.421875 
Q 29.59375 -1.421875 25.265625 0.953125 
Q 20.953125 3.328125 18.109375 8.203125 
L 18.109375 0 
L 9.078125 0 
L 9.078125 75.984375 
L 18.109375 75.984375 
z
" id="DejaVuSans-62"/>
     <path d="M 8.5 21.578125 
L 8.5 54.6875 
L 17.484375 54.6875 
L 17.484375 21.921875 
Q 17.484375 14.15625 20.5 10.265625 
Q 23.53125 6.390625 29.59375 6.390625 
Q 36.859375 6.390625 41.078125 11.03125 
Q 45.3125 15.671875 45.3125 23.6875 
L 45.3125 54.6875 
L 54.296875 54.6875 
L 54.296875 0 
L 45.3125 0 
L 45.3125 8.40625 
Q 42.046875 3.421875 37.71875 1 
Q 33.40625 -1.421875 27.6875 -1.421875 
Q 18.265625 -1.421875 13.375 4.4375 
Q 8.5 10.296875 8.5 21.578125 
z
M 31.109375 56 
z
" id="DejaVuSans-75"/>
     <path d="M 56.203125 29.59375 
L 56.203125 25.203125 
L 14.890625 25.203125 
Q 15.484375 15.921875 20.484375 11.0625 
Q 25.484375 6.203125 34.421875 6.203125 
Q 39.59375 6.203125 44.453125 7.46875 
Q 49.3125 8.734375 54.109375 11.28125 
L 54.109375 2.78125 
Q 49.265625 0.734375 44.1875 -0.34375 
Q 39.109375 -1.421875 33.890625 -1.421875 
Q 20.796875 -1.421875 13.15625 6.1875 
Q 5.515625 13.8125 5.515625 26.8125 
Q 5.515625 40.234375 12.765625 48.109375 
Q 20.015625 56 32.328125 56 
Q 43.359375 56 49.78125 48.890625 
Q 56.203125 41.796875 56.203125 29.59375 
z
M 47.21875 32.234375 
Q 47.125 39.59375 43.09375 43.984375 
Q 39.0625 48.390625 32.421875 48.390625 
Q 24.90625 48.390625 20.390625 44.140625 
Q 15.875 39.890625 15.1875 32.171875 
z
" id="DejaVuSans-65"/>
    </defs>
    <g transform="translate(59.72 601.060445)scale(0.14 -0.14)">
     <use xlink:href="#DejaVuSans-61"/>
     <use x="61.279297" xlink:href="#DejaVuSans-62"/>
     <use x="124.755859" xlink:href="#DejaVuSans-73"/>
     <use x="176.855469" xlink:href="#DejaVuSans-6f"/>
     <use x="238.037109" xlink:href="#DejaVuSans-6c"/>
     <use x="265.820312" xlink:href="#DejaVuSans-75"/>
     <use x="329.199219" xlink:href="#DejaVuSans-74"/>
     <use x="368.408203" xlink:href="#DejaVuSans-65"/>
     <use x="429.931641" xlink:href="#DejaVuSans-20"/>
     <use x="461.71875" xlink:href="#DejaVuSans-74"/>
     <use x="500.927734" xlink:href="#DejaVuSans-61"/>
     <use x="562.207031" xlink:href="#DejaVuSans-72"/>
     <use x="603.304688" xlink:href="#DejaVuSans-67"/>
     <use x="666.78125" xlink:href="#DejaVuSans-65"/>
     <use x="728.304688" xlink:href="#DejaVuSans-74"/>
     <use x="767.513672" xlink:href="#DejaVuSans-73"/>
    </g>
   </g>
   <g id="text_13">
    <!-- v0.0.0 -->
    <g style="fill:#808080;" transform="translate(239.51475 286.355965)scale(0.1 -0.1)">
     <use xlink:href="#DejaVuSans-76"/>
     <use x="59.179688" xlink:href="#DejaVuSans-30"/>
     <use x="122.802734" xlink:href="#DejaVuSans-2e"/>
     <use x="154.589844" xlink:href="#DejaVuSans-30"/>
     <use x="218.212891" xlink:href="#DejaVuSans-2e"/>
     <use x="250" xlink:href="#DejaVuSans-30"/>
    </g>
   </g>
   <g id="legend_1">
    <g id="patch_7">
     <path d="M 73.72 140.270228 
L 202.941875 140.270228 
Q 206.941875 140.270228 206.941875 136.270228 
L 206.941875 20.845228 
Q 206.941875 16.845228 202.941875 16.845228 
L 73.72 16.845228 
Q 69.72 16.845228 69.72 20.845228 
L 69.72 136.270228 
Q 69.72 140.270228 73.72 140.270228 
z
" style="fill:#ffffff;opacity:0.2;stroke:#cccccc;stroke-linejoin:miter;"/>
    </g>
    <g id="line2d_106">
     <path d="M 77.72 33.042103 
L 117.72 33.042103 
" style="fill:none;stroke:#000000;stroke-linecap:square;stroke-width:1.5;"/>
    </g>
    <g id="line2d_107"/>
    <g id="text_14">
     <!-- 1: 5/5 -->
     <defs>
      <path d="M 11.71875 12.40625 
L 22.015625 12.40625 
L 22.015625 0 
L 11.71875 0 
z
M 11.71875 51.703125 
L 22.015625 51.703125 
L 22.015625 39.3125 
L 11.71875 39.3125 
z
" id="DejaVuSans-3a"/>
     </defs>
     <g transform="translate(133.72 40.042103)scale(0.2 -0.2)">
      <use xlink:href="#DejaVuSans-31"/>
      <use x="63.623047" xlink:href="#DejaVuSans-3a"/>
      <use x="97.314453" xlink:href="#DejaVuSans-20"/>
      <use x="129.101562" xlink:href="#DejaVuSans-35"/>
      <use x="192.724609" xlink:href="#DejaVuSans-2f"/>
      <use x="226.416016" xlink:href="#DejaVuSans-35"/>
     </g>
    </g>
    <g id="line2d_108">
     <path d="M 77.72 62.398353 
L 117.72 62.398353 
" style="fill:none;stroke:#00bfbf;stroke-linecap:square;stroke-width:1.5;"/>
    </g>
    <g id="line2d_109"/>
    <g id="text_15">
     <!-- -1: 4/5 -->
     <g transform="translate(133.72 69.398353)scale(0.2 -0.2)">
      <use xlink:href="#DejaVuSans-2d"/>
      <use x="36.083984" xlink:href="#DejaVuSans-31"/>
      <use x="99.707031" xlink:href="#DejaVuSans-3a"/>
      <use x="133.398438" xlink:href="#DejaVuSans-20"/>
      <use x="165.185547" xlink:href="#DejaVuSans-34"/>
      <use x="228.808594" xlink:href="#DejaVuSans-2f"/>
      <use x="262.5" xlink:href="#DejaVuSans-35"/>
     </g>
    </g>
    <g id="line2d_110">
     <path d="M 77.72 91.754603 
L 117.72 91.754603 
" style="fill:none;stroke:#bf00bf;stroke-linecap:square;stroke-width:1.5;"/>
    </g>
    <g id="line2d_111"/>
    <g id="text_16">
     <!-- -4: 3/5 -->
     <defs>
      <path d="M 40.578125 39.3125 
Q 47.65625 37.796875 51.625 33 
Q 55.609375 28.21875 55.609375 21.1875 
Q 55.609375 10.40625 48.1875 4.484375 
Q 40.765625 -1.421875 27.09375 -1.421875 
Q 22.515625 -1.421875 17.65625 -0.515625 
Q 12.796875 0.390625 7.625 2.203125 
L 7.625 11.71875 
Q 11.71875 9.328125 16.59375 8.109375 
Q 21.484375 6.890625 26.8125 6.890625 
Q 36.078125 6.890625 40.9375 10.546875 
Q 45.796875 14.203125 45.796875 21.1875 
Q 45.796875 27.640625 41.28125 31.265625 
Q 36.765625 34.90625 28.71875 34.90625 
L 20.21875 34.90625 
L 20.21875 43.015625 
L 29.109375 43.015625 
Q 36.375 43.015625 40.234375 45.921875 
Q 44.09375 48.828125 44.09375 54.296875 
Q 44.09375 59.90625 40.109375 62.90625 
Q 36.140625 65.921875 28.71875 65.921875 
Q 24.65625 65.921875 20.015625 65.03125 
Q 15.375 64.15625 9.8125 62.3125 
L 9.8125 71.09375 
Q 15.4375 72.65625 20.34375 73.4375 
Q 25.25 74.21875 29.59375 74.21875 
Q 40.828125 74.21875 47.359375 69.109375 
Q 53.90625 64.015625 53.90625 55.328125 
Q 53.90625 49.265625 50.4375 45.09375 
Q 46.96875 40.921875 40.578125 39.3125 
z
" id="DejaVuSans-33"/>
     </defs>
     <g transform="translate(133.72 98.754603)scale(0.2 -0.2)">
      <use xlink:href="#DejaVuSans-2d"/>
      <use x="36.083984" xlink:href="#DejaVuSans-34"/>
      <use x="99.707031" xlink:href="#DejaVuSans-3a"/>
      <use x="133.398438" xlink:href="#DejaVuSans-20"/>
      <use x="165.185547" xlink:href="#DejaVuSans-33"/>
      <use x="228.808594" xlink:href="#DejaVuSans-2f"/>
      <use x="262.5" xlink:href="#DejaVuSans-35"/>
     </g>
    </g>
    <g id="line2d_112">
     <path d="M 77.72 121.110853 
L 117.72 121.110853 
" style="fill:none;stroke:#ff0000;stroke-linecap:square;stroke-width:3;"/>
    </g>
    <g id="line2d_113"/>
    <g id="text_17">
     <!-- -8: 1/5 -->
     <g transform="translate(133.72 128.110853)scale(0.2 -0.2)">
      <use xlink:href="#DejaVuSans-2d"/>
      <use x="36.083984" xlink:href="#DejaVuSans-38"/>
      <use x="99.707031" xlink:href="#DejaVuSans-3a"/>
      <use x="133.398438" xlink:href="#DejaVuSans-20"/>
      <use x="165.185547" xlink:href="#DejaVuSans-31"/>
      <use x="228.808594" xlink:href="#DejaVuSans-2f"/>
      <use x="262.5" xlink:href="#DejaVuSans-35"/>
     </g>
    </g>
   </g>
  </g>
 </g>
 <defs>
  <clipPath id="pe3df543e22">
   <rect height="284.434772" width="390.952" x="59.72" y="6.845228"/>
  </clipPath>
 </defs>
</svg>
