<?xml version="1.0" encoding="utf-8" standalone="no"?>
<!DOCTYPE svg PUBLIC "-//W3C//DTD SVG 1.1//EN"
  "http://www.w3.org/Graphics/SVG/1.1/DTD/svg11.dtd">
<!-- Created with matplotlib (http://matplotlib.org/) -->
<svg height="345.6pt" version="1.1" viewBox="0 0 460.8 345.6" width="460.8pt" xmlns="http://www.w3.org/2000/svg" xmlns:xlink="http://www.w3.org/1999/xlink">
 <defs>
  <style type="text/css">
*{stroke-linecap:butt;stroke-linejoin:round;}
  </style>
 </defs>
 <g id="figure_1">
  <g id="patch_1">
   <path d="M 0 345.6 
L 460.8 345.6 
L 460.8 0 
L 0 0 
z
" style="fill:#ffffff;"/>
  </g>
  <g id="axes_1">
   <g id="patch_2">
    <path d="M 71.646973 291.28 
L 446.847 291.28 
L 446.847 5.52 
L 71.646973 5.52 
z
" style="fill:#ffffff;"/>
   </g>
   <g id="matplotlib.axis_1">
    <g id="xtick_1">
     <g id="line2d_1">
      <path clip-path="url(#pb8171c6c20)" d="M 71.646973 291.28 
L 71.646973 5.52 
" style="fill:none;stroke:#b0b0b0;stroke-linecap:square;stroke-width:0.8;"/>
     </g>
     <g id="line2d_2">
      <defs>
       <path d="M 0 0 
L 0 3.5 
" id="m72878903a8" style="stroke:#000000;stroke-width:0.8;"/>
      </defs>
      <g>
       <use style="stroke:#000000;stroke-width:0.8;" x="71.646973" xlink:href="#m72878903a8" y="291.28"/>
      </g>
     </g>
     <g id="text_1">
      <!-- -1 -->
      <defs>
       <path d="M 4.890625 31.390625 
L 31.203125 31.390625 
L 31.203125 23.390625 
L 4.890625 23.390625 
z
" id="DejaVuSans-2d"/>
       <path d="M 12.40625 8.296875 
L 28.515625 8.296875 
L 28.515625 63.921875 
L 10.984375 60.40625 
L 10.984375 69.390625 
L 28.421875 72.90625 
L 38.28125 72.90625 
L 38.28125 8.296875 
L 54.390625 8.296875 
L 54.390625 0 
L 12.40625 0 
z
" id="DejaVuSans-31"/>
      </defs>
      <g transform="translate(61.67666 313.476875)scale(0.2 -0.2)">
       <use xlink:href="#DejaVuSans-2d"/>
       <use x="36.083984" xlink:href="#DejaVuSans-31"/>
      </g>
     </g>
    </g>
    <g id="xtick_2">
     <g id="line2d_3">
      <path clip-path="url(#pb8171c6c20)" d="M 259.246986 291.28 
L 259.246986 5.52 
" style="fill:none;stroke:#b0b0b0;stroke-linecap:square;stroke-width:0.8;"/>
     </g>
     <g id="line2d_4">
      <g>
       <use style="stroke:#000000;stroke-width:0.8;" x="259.246986" xlink:href="#m72878903a8" y="291.28"/>
      </g>
     </g>
     <g id="text_2">
      <!-- 0 -->
      <defs>
       <path d="M 31.78125 66.40625 
Q 24.171875 66.40625 20.328125 58.90625 
Q 16.5 51.421875 16.5 36.375 
Q 16.5 21.390625 20.328125 13.890625 
Q 24.171875 6.390625 31.78125 6.390625 
Q 39.453125 6.390625 43.28125 13.890625 
Q 47.125 21.390625 47.125 36.375 
Q 47.125 51.421875 43.28125 58.90625 
Q 39.453125 66.40625 31.78125 66.40625 
z
M 31.78125 74.21875 
Q 44.046875 74.21875 50.515625 64.515625 
Q 56.984375 54.828125 56.984375 36.375 
Q 56.984375 17.96875 50.515625 8.265625 
Q 44.046875 -1.421875 31.78125 -1.421875 
Q 19.53125 -1.421875 13.0625 8.265625 
Q 6.59375 17.96875 6.59375 36.375 
Q 6.59375 54.828125 13.0625 64.515625 
Q 19.53125 74.21875 31.78125 74.21875 
z
" id="DejaVuSans-30"/>
      </defs>
      <g transform="translate(252.884486 313.476875)scale(0.2 -0.2)">
       <use xlink:href="#DejaVuSans-30"/>
      </g>
     </g>
    </g>
    <g id="xtick_3">
     <g id="line2d_5">
      <path clip-path="url(#pb8171c6c20)" d="M 446.847 291.28 
L 446.847 5.52 
" style="fill:none;stroke:#b0b0b0;stroke-linecap:square;stroke-width:0.8;"/>
     </g>
     <g id="line2d_6">
      <g>
       <use style="stroke:#000000;stroke-width:0.8;" x="446.847" xlink:href="#m72878903a8" y="291.28"/>
      </g>
     </g>
     <g id="text_3">
      <!-- 1 -->
      <g transform="translate(440.4845 313.476875)scale(0.2 -0.2)">
       <use xlink:href="#DejaVuSans-31"/>
      </g>
     </g>
    </g>
    <g id="xtick_4">
     <g id="line2d_7">
      <defs>
       <path d="M 0 0 
L 0 2 
" id="m6ec2bd41ba" style="stroke:#000000;stroke-width:0.6;"/>
      </defs>
      <g>
       <use style="stroke:#000000;stroke-width:0.6;" x="80.231078" xlink:href="#m6ec2bd41ba" y="291.28"/>
      </g>
     </g>
     <g id="text_4">
      <!-- $\mathdefault{1.11111\times10^{-1}}$ -->
      <defs>
       <path d="M 10.6875 12.40625 
L 21 12.40625 
L 21 0 
L 10.6875 0 
z
" id="DejaVuSans-2e"/>
       <path d="M 70.125 53.71875 
L 47.796875 31.296875 
L 70.125 8.984375 
L 64.3125 3.078125 
L 41.890625 25.484375 
L 19.484375 3.078125 
L 13.71875 8.984375 
L 35.984375 31.296875 
L 13.71875 53.71875 
L 19.484375 59.625 
L 41.890625 37.203125 
L 64.3125 59.625 
z
" id="DejaVuSans-d7"/>
       <path d="M 10.59375 35.5 
L 73.1875 35.5 
L 73.1875 27.203125 
L 10.59375 27.203125 
z
" id="DejaVuSans-2212"/>
      </defs>
      <g transform="translate(3.131078 311.876875)scale(0.2 -0.2)">
       <use transform="translate(0 0.684375)" xlink:href="#DejaVuSans-31"/>
       <use transform="translate(63.623047 0.684375)" xlink:href="#DejaVuSans-2e"/>
       <use transform="translate(95.410156 0.684375)" xlink:href="#DejaVuSans-31"/>
       <use transform="translate(159.033203 0.684375)" xlink:href="#DejaVuSans-31"/>
       <use transform="translate(222.65625 0.684375)" xlink:href="#DejaVuSans-31"/>
       <use transform="translate(286.279297 0.684375)" xlink:href="#DejaVuSans-31"/>
       <use transform="translate(349.902344 0.684375)" xlink:href="#DejaVuSans-31"/>
       <use transform="translate(433.007812 0.684375)" xlink:href="#DejaVuSans-d7"/>
       <use transform="translate(536.279297 0.684375)" xlink:href="#DejaVuSans-31"/>
       <use transform="translate(599.902344 0.684375)" xlink:href="#DejaVuSans-30"/>
       <use transform="translate(664.482422 38.965625)scale(0.7)" xlink:href="#DejaVuSans-2212"/>
       <use transform="translate(723.134766 38.965625)scale(0.7)" xlink:href="#DejaVuSans-31"/>
      </g>
     </g>
    </g>
    <g id="xtick_5">
     <g id="line2d_8">
      <g>
       <use style="stroke:#000000;stroke-width:0.6;" x="89.827292" xlink:href="#m6ec2bd41ba" y="291.28"/>
      </g>
     </g>
     <g id="text_5">
      <!-- $\mathdefault{1.25\times10^{-1}}$ -->
      <defs>
       <path d="M 19.1875 8.296875 
L 53.609375 8.296875 
L 53.609375 0 
L 7.328125 0 
L 7.328125 8.296875 
Q 12.9375 14.109375 22.625 23.890625 
Q 32.328125 33.6875 34.8125 36.53125 
Q 39.546875 41.84375 41.421875 45.53125 
Q 43.3125 49.21875 43.3125 52.78125 
Q 43.3125 58.59375 39.234375 62.25 
Q 35.15625 65.921875 28.609375 65.921875 
Q 23.96875 65.921875 18.8125 64.3125 
Q 13.671875 62.703125 7.8125 59.421875 
L 7.8125 69.390625 
Q 13.765625 71.78125 18.9375 73 
Q 24.125 74.21875 28.421875 74.21875 
Q 39.75 74.21875 46.484375 68.546875 
Q 53.21875 62.890625 53.21875 53.421875 
Q 53.21875 48.921875 51.53125 44.890625 
Q 49.859375 40.875 45.40625 35.40625 
Q 44.1875 33.984375 37.640625 27.21875 
Q 31.109375 20.453125 19.1875 8.296875 
z
" id="DejaVuSans-32"/>
       <path d="M 10.796875 72.90625 
L 49.515625 72.90625 
L 49.515625 64.59375 
L 19.828125 64.59375 
L 19.828125 46.734375 
Q 21.96875 47.46875 24.109375 47.828125 
Q 26.265625 48.1875 28.421875 48.1875 
Q 40.625 48.1875 47.75 41.5 
Q 54.890625 34.8125 54.890625 23.390625 
Q 54.890625 11.625 47.5625 5.09375 
Q 40.234375 -1.421875 26.90625 -1.421875 
Q 22.3125 -1.421875 17.546875 -0.640625 
Q 12.796875 0.140625 7.71875 1.703125 
L 7.71875 11.625 
Q 12.109375 9.234375 16.796875 8.0625 
Q 21.484375 6.890625 26.703125 6.890625 
Q 35.15625 6.890625 40.078125 11.328125 
Q 45.015625 15.765625 45.015625 23.390625 
Q 45.015625 31 40.078125 35.4375 
Q 35.15625 39.890625 26.703125 39.890625 
Q 22.75 39.890625 18.8125 39.015625 
Q 14.890625 38.140625 10.796875 36.28125 
z
" id="DejaVuSans-35"/>
      </defs>
      <g transform="translate(31.827292 311.876875)scale(0.2 -0.2)">
       <use transform="translate(0 0.684375)" xlink:href="#DejaVuSans-31"/>
       <use transform="translate(63.623047 0.684375)" xlink:href="#DejaVuSans-2e"/>
       <use transform="translate(95.332031 0.684375)" xlink:href="#DejaVuSans-32"/>
       <use transform="translate(158.955078 0.684375)" xlink:href="#DejaVuSans-35"/>
       <use transform="translate(242.060547 0.684375)" xlink:href="#DejaVuSans-d7"/>
       <use transform="translate(345.332031 0.684375)" xlink:href="#DejaVuSans-31"/>
       <use transform="translate(408.955078 0.684375)" xlink:href="#DejaVuSans-30"/>
       <use transform="translate(473.535156 38.965625)scale(0.7)" xlink:href="#DejaVuSans-2212"/>
       <use transform="translate(532.1875 38.965625)scale(0.7)" xlink:href="#DejaVuSans-31"/>
      </g>
     </g>
    </g>
    <g id="xtick_6">
     <g id="line2d_9">
      <g>
       <use style="stroke:#000000;stroke-width:0.6;" x="100.706582" xlink:href="#m6ec2bd41ba" y="291.28"/>
      </g>
     </g>
     <g id="text_6">
      <!-- $\mathdefault{1.42857\times10^{-1}}$ -->
      <defs>
       <path d="M 37.796875 64.3125 
L 12.890625 25.390625 
L 37.796875 25.390625 
z
M 35.203125 72.90625 
L 47.609375 72.90625 
L 47.609375 25.390625 
L 58.015625 25.390625 
L 58.015625 17.1875 
L 47.609375 17.1875 
L 47.609375 0 
L 37.796875 0 
L 37.796875 17.1875 
L 4.890625 17.1875 
L 4.890625 26.703125 
z
" id="DejaVuSans-34"/>
       <path d="M 31.78125 34.625 
Q 24.75 34.625 20.71875 30.859375 
Q 16.703125 27.09375 16.703125 20.515625 
Q 16.703125 13.921875 20.71875 10.15625 
Q 24.75 6.390625 31.78125 6.390625 
Q 38.8125 6.390625 42.859375 10.171875 
Q 46.921875 13.96875 46.921875 20.515625 
Q 46.921875 27.09375 42.890625 30.859375 
Q 38.875 34.625 31.78125 34.625 
z
M 21.921875 38.8125 
Q 15.578125 40.375 12.03125 44.71875 
Q 8.5 49.078125 8.5 55.328125 
Q 8.5 64.0625 14.71875 69.140625 
Q 20.953125 74.21875 31.78125 74.21875 
Q 42.671875 74.21875 48.875 69.140625 
Q 55.078125 64.0625 55.078125 55.328125 
Q 55.078125 49.078125 51.53125 44.71875 
Q 48 40.375 41.703125 38.8125 
Q 48.828125 37.15625 52.796875 32.3125 
Q 56.78125 27.484375 56.78125 20.515625 
Q 56.78125 9.90625 50.3125 4.234375 
Q 43.84375 -1.421875 31.78125 -1.421875 
Q 19.734375 -1.421875 13.25 4.234375 
Q 6.78125 9.90625 6.78125 20.515625 
Q 6.78125 27.484375 10.78125 32.3125 
Q 14.796875 37.15625 21.921875 38.8125 
z
M 18.3125 54.390625 
Q 18.3125 48.734375 21.84375 45.5625 
Q 25.390625 42.390625 31.78125 42.390625 
Q 38.140625 42.390625 41.71875 45.5625 
Q 45.3125 48.734375 45.3125 54.390625 
Q 45.3125 60.0625 41.71875 63.234375 
Q 38.140625 66.40625 31.78125 66.40625 
Q 25.390625 66.40625 21.84375 63.234375 
Q 18.3125 60.0625 18.3125 54.390625 
z
" id="DejaVuSans-38"/>
       <path d="M 8.203125 72.90625 
L 55.078125 72.90625 
L 55.078125 68.703125 
L 28.609375 0 
L 18.3125 0 
L 43.21875 64.59375 
L 8.203125 64.59375 
z
" id="DejaVuSans-37"/>
      </defs>
      <g transform="translate(23.606582 311.876875)scale(0.2 -0.2)">
       <use transform="translate(0 0.684375)" xlink:href="#DejaVuSans-31"/>
       <use transform="translate(63.623047 0.684375)" xlink:href="#DejaVuSans-2e"/>
       <use transform="translate(95.410156 0.684375)" xlink:href="#DejaVuSans-34"/>
       <use transform="translate(159.033203 0.684375)" xlink:href="#DejaVuSans-32"/>
       <use transform="translate(222.65625 0.684375)" xlink:href="#DejaVuSans-38"/>
       <use transform="translate(286.279297 0.684375)" xlink:href="#DejaVuSans-35"/>
       <use transform="translate(349.792969 0.684375)" xlink:href="#DejaVuSans-37"/>
       <use transform="translate(432.898438 0.684375)" xlink:href="#DejaVuSans-d7"/>
       <use transform="translate(536.169922 0.684375)" xlink:href="#DejaVuSans-31"/>
       <use transform="translate(599.792969 0.684375)" xlink:href="#DejaVuSans-30"/>
       <use transform="translate(664.373047 38.965625)scale(0.7)" xlink:href="#DejaVuSans-2212"/>
       <use transform="translate(723.025391 38.965625)scale(0.7)" xlink:href="#DejaVuSans-31"/>
      </g>
     </g>
    </g>
    <g id="xtick_7">
     <g id="line2d_10">
      <g>
       <use style="stroke:#000000;stroke-width:0.6;" x="113.265801" xlink:href="#m6ec2bd41ba" y="291.28"/>
      </g>
     </g>
    </g>
    <g id="xtick_8">
     <g id="line2d_11">
      <g>
       <use style="stroke:#000000;stroke-width:0.6;" x="128.120204" xlink:href="#m6ec2bd41ba" y="291.28"/>
      </g>
     </g>
    </g>
    <g id="xtick_9">
     <g id="line2d_12">
      <g>
       <use style="stroke:#000000;stroke-width:0.6;" x="146.300524" xlink:href="#m6ec2bd41ba" y="291.28"/>
      </g>
     </g>
    </g>
    <g id="xtick_10">
     <g id="line2d_13">
      <g>
       <use style="stroke:#000000;stroke-width:0.6;" x="169.739032" xlink:href="#m6ec2bd41ba" y="291.28"/>
      </g>
     </g>
    </g>
    <g id="xtick_11">
     <g id="line2d_14">
      <g>
       <use style="stroke:#000000;stroke-width:0.6;" x="202.773755" xlink:href="#m6ec2bd41ba" y="291.28"/>
      </g>
     </g>
    </g>
    <g id="xtick_12">
     <g id="line2d_15">
      <g>
       <use style="stroke:#000000;stroke-width:0.6;" x="315.720218" xlink:href="#m6ec2bd41ba" y="291.28"/>
      </g>
     </g>
    </g>
    <g id="xtick_13">
     <g id="line2d_16">
      <g>
       <use style="stroke:#000000;stroke-width:0.6;" x="348.75494" xlink:href="#m6ec2bd41ba" y="291.28"/>
      </g>
     </g>
    </g>
    <g id="xtick_14">
     <g id="line2d_17">
      <g>
       <use style="stroke:#000000;stroke-width:0.6;" x="372.193449" xlink:href="#m6ec2bd41ba" y="291.28"/>
      </g>
     </g>
    </g>
    <g id="xtick_15">
     <g id="line2d_18">
      <g>
       <use style="stroke:#000000;stroke-width:0.6;" x="390.373769" xlink:href="#m6ec2bd41ba" y="291.28"/>
      </g>
     </g>
    </g>
    <g id="xtick_16">
     <g id="line2d_19">
      <g>
       <use style="stroke:#000000;stroke-width:0.6;" x="405.228172" xlink:href="#m6ec2bd41ba" y="291.28"/>
      </g>
     </g>
    </g>
    <g id="xtick_17">
     <g id="line2d_20">
      <g>
       <use style="stroke:#000000;stroke-width:0.6;" x="417.78739" xlink:href="#m6ec2bd41ba" y="291.28"/>
      </g>
     </g>
    </g>
    <g id="xtick_18">
     <g id="line2d_21">
      <g>
       <use style="stroke:#000000;stroke-width:0.6;" x="428.66668" xlink:href="#m6ec2bd41ba" y="291.28"/>
      </g>
     </g>
    </g>
    <g id="xtick_19">
     <g id="line2d_22">
      <g>
       <use style="stroke:#000000;stroke-width:0.6;" x="438.262894" xlink:href="#m6ec2bd41ba" y="291.28"/>
      </g>
     </g>
    </g>
    <g id="text_7">
     <!-- log10 of FEvals ratio -->
     <defs>
      <path d="M 9.421875 75.984375 
L 18.40625 75.984375 
L 18.40625 0 
L 9.421875 0 
z
" id="DejaVuSans-6c"/>
      <path d="M 30.609375 48.390625 
Q 23.390625 48.390625 19.1875 42.75 
Q 14.984375 37.109375 14.984375 27.296875 
Q 14.984375 17.484375 19.15625 11.84375 
Q 23.34375 6.203125 30.609375 6.203125 
Q 37.796875 6.203125 41.984375 11.859375 
Q 46.1875 17.53125 46.1875 27.296875 
Q 46.1875 37.015625 41.984375 42.703125 
Q 37.796875 48.390625 30.609375 48.390625 
z
M 30.609375 56 
Q 42.328125 56 49.015625 48.375 
Q 55.71875 40.765625 55.71875 27.296875 
Q 55.71875 13.875 49.015625 6.21875 
Q 42.328125 -1.421875 30.609375 -1.421875 
Q 18.84375 -1.421875 12.171875 6.21875 
Q 5.515625 13.875 5.515625 27.296875 
Q 5.515625 40.765625 12.171875 48.375 
Q 18.84375 56 30.609375 56 
z
" id="DejaVuSans-6f"/>
      <path d="M 45.40625 27.984375 
Q 45.40625 37.75 41.375 43.109375 
Q 37.359375 48.484375 30.078125 48.484375 
Q 22.859375 48.484375 18.828125 43.109375 
Q 14.796875 37.75 14.796875 27.984375 
Q 14.796875 18.265625 18.828125 12.890625 
Q 22.859375 7.515625 30.078125 7.515625 
Q 37.359375 7.515625 41.375 12.890625 
Q 45.40625 18.265625 45.40625 27.984375 
z
M 54.390625 6.78125 
Q 54.390625 -7.171875 48.1875 -13.984375 
Q 42 -20.796875 29.203125 -20.796875 
Q 24.46875 -20.796875 20.265625 -20.09375 
Q 16.0625 -19.390625 12.109375 -17.921875 
L 12.109375 -9.1875 
Q 16.0625 -11.328125 19.921875 -12.34375 
Q 23.78125 -13.375 27.78125 -13.375 
Q 36.625 -13.375 41.015625 -8.765625 
Q 45.40625 -4.15625 45.40625 5.171875 
L 45.40625 9.625 
Q 42.625 4.78125 38.28125 2.390625 
Q 33.9375 0 27.875 0 
Q 17.828125 0 11.671875 7.65625 
Q 5.515625 15.328125 5.515625 27.984375 
Q 5.515625 40.671875 11.671875 48.328125 
Q 17.828125 56 27.875 56 
Q 33.9375 56 38.28125 53.609375 
Q 42.625 51.21875 45.40625 46.390625 
L 45.40625 54.6875 
L 54.390625 54.6875 
z
" id="DejaVuSans-67"/>
      <path id="DejaVuSans-20"/>
      <path d="M 37.109375 75.984375 
L 37.109375 68.5 
L 28.515625 68.5 
Q 23.6875 68.5 21.796875 66.546875 
Q 19.921875 64.59375 19.921875 59.515625 
L 19.921875 54.6875 
L 34.71875 54.6875 
L 34.71875 47.703125 
L 19.921875 47.703125 
L 19.921875 0 
L 10.890625 0 
L 10.890625 47.703125 
L 2.296875 47.703125 
L 2.296875 54.6875 
L 10.890625 54.6875 
L 10.890625 58.5 
Q 10.890625 67.625 15.140625 71.796875 
Q 19.390625 75.984375 28.609375 75.984375 
z
" id="DejaVuSans-66"/>
      <path d="M 9.8125 72.90625 
L 51.703125 72.90625 
L 51.703125 64.59375 
L 19.671875 64.59375 
L 19.671875 43.109375 
L 48.578125 43.109375 
L 48.578125 34.8125 
L 19.671875 34.8125 
L 19.671875 0 
L 9.8125 0 
z
" id="DejaVuSans-46"/>
      <path d="M 9.8125 72.90625 
L 55.90625 72.90625 
L 55.90625 64.59375 
L 19.671875 64.59375 
L 19.671875 43.015625 
L 54.390625 43.015625 
L 54.390625 34.71875 
L 19.671875 34.71875 
L 19.671875 8.296875 
L 56.78125 8.296875 
L 56.78125 0 
L 9.8125 0 
z
" id="DejaVuSans-45"/>
      <path d="M 2.984375 54.6875 
L 12.5 54.6875 
L 29.59375 8.796875 
L 46.6875 54.6875 
L 56.203125 54.6875 
L 35.6875 0 
L 23.484375 0 
z
" id="DejaVuSans-76"/>
      <path d="M 34.28125 27.484375 
Q 23.390625 27.484375 19.1875 25 
Q 14.984375 22.515625 14.984375 16.5 
Q 14.984375 11.71875 18.140625 8.90625 
Q 21.296875 6.109375 26.703125 6.109375 
Q 34.1875 6.109375 38.703125 11.40625 
Q 43.21875 16.703125 43.21875 25.484375 
L 43.21875 27.484375 
z
M 52.203125 31.203125 
L 52.203125 0 
L 43.21875 0 
L 43.21875 8.296875 
Q 40.140625 3.328125 35.546875 0.953125 
Q 30.953125 -1.421875 24.3125 -1.421875 
Q 15.921875 -1.421875 10.953125 3.296875 
Q 6 8.015625 6 15.921875 
Q 6 25.140625 12.171875 29.828125 
Q 18.359375 34.515625 30.609375 34.515625 
L 43.21875 34.515625 
L 43.21875 35.40625 
Q 43.21875 41.609375 39.140625 45 
Q 35.0625 48.390625 27.6875 48.390625 
Q 23 48.390625 18.546875 47.265625 
Q 14.109375 46.140625 10.015625 43.890625 
L 10.015625 52.203125 
Q 14.9375 54.109375 19.578125 55.046875 
Q 24.21875 56 28.609375 56 
Q 40.484375 56 46.34375 49.84375 
Q 52.203125 43.703125 52.203125 31.203125 
z
" id="DejaVuSans-61"/>
      <path d="M 44.28125 53.078125 
L 44.28125 44.578125 
Q 40.484375 46.53125 36.375 47.5 
Q 32.28125 48.484375 27.875 48.484375 
Q 21.1875 48.484375 17.84375 46.4375 
Q 14.5 44.390625 14.5 40.28125 
Q 14.5 37.15625 16.890625 35.375 
Q 19.28125 33.59375 26.515625 31.984375 
L 29.59375 31.296875 
Q 39.15625 29.25 43.1875 25.515625 
Q 47.21875 21.78125 47.21875 15.09375 
Q 47.21875 7.46875 41.1875 3.015625 
Q 35.15625 -1.421875 24.609375 -1.421875 
Q 20.21875 -1.421875 15.453125 -0.5625 
Q 10.6875 0.296875 5.421875 2 
L 5.421875 11.28125 
Q 10.40625 8.6875 15.234375 7.390625 
Q 20.0625 6.109375 24.8125 6.109375 
Q 31.15625 6.109375 34.5625 8.28125 
Q 37.984375 10.453125 37.984375 14.40625 
Q 37.984375 18.0625 35.515625 20.015625 
Q 33.0625 21.96875 24.703125 23.78125 
L 21.578125 24.515625 
Q 13.234375 26.265625 9.515625 29.90625 
Q 5.8125 33.546875 5.8125 39.890625 
Q 5.8125 47.609375 11.28125 51.796875 
Q 16.75 56 26.8125 56 
Q 31.78125 56 36.171875 55.265625 
Q 40.578125 54.546875 44.28125 53.078125 
z
" id="DejaVuSans-73"/>
      <path d="M 41.109375 46.296875 
Q 39.59375 47.171875 37.8125 47.578125 
Q 36.03125 48 33.890625 48 
Q 26.265625 48 22.1875 43.046875 
Q 18.109375 38.09375 18.109375 28.8125 
L 18.109375 0 
L 9.078125 0 
L 9.078125 54.6875 
L 18.109375 54.6875 
L 18.109375 46.1875 
Q 20.953125 51.171875 25.484375 53.578125 
Q 30.03125 56 36.53125 56 
Q 37.453125 56 38.578125 55.875 
Q 39.703125 55.765625 41.0625 55.515625 
z
" id="DejaVuSans-72"/>
      <path d="M 18.3125 70.21875 
L 18.3125 54.6875 
L 36.8125 54.6875 
L 36.8125 47.703125 
L 18.3125 47.703125 
L 18.3125 18.015625 
Q 18.3125 11.328125 20.140625 9.421875 
Q 21.96875 7.515625 27.59375 7.515625 
L 36.8125 7.515625 
L 36.8125 0 
L 27.59375 0 
Q 17.1875 0 13.234375 3.875 
Q 9.28125 7.765625 9.28125 18.015625 
L 9.28125 47.703125 
L 2.6875 47.703125 
L 2.6875 54.6875 
L 9.28125 54.6875 
L 9.28125 70.21875 
z
" id="DejaVuSans-74"/>
      <path d="M 9.421875 54.6875 
L 18.40625 54.6875 
L 18.40625 0 
L 9.421875 0 
z
M 9.421875 75.984375 
L 18.40625 75.984375 
L 18.40625 64.59375 
L 9.421875 64.59375 
z
" id="DejaVuSans-69"/>
     </defs>
     <g transform="translate(156.942299 336.833125)scale(0.2 -0.2)">
      <use xlink:href="#DejaVuSans-6c"/>
      <use x="27.783203" xlink:href="#DejaVuSans-6f"/>
      <use x="88.964844" xlink:href="#DejaVuSans-67"/>
      <use x="152.441406" xlink:href="#DejaVuSans-31"/>
      <use x="216.064453" xlink:href="#DejaVuSans-30"/>
      <use x="279.6875" xlink:href="#DejaVuSans-20"/>
      <use x="311.474609" xlink:href="#DejaVuSans-6f"/>
      <use x="372.65625" xlink:href="#DejaVuSans-66"/>
      <use x="407.861328" xlink:href="#DejaVuSans-20"/>
      <use x="439.648438" xlink:href="#DejaVuSans-46"/>
      <use x="497.167969" xlink:href="#DejaVuSans-45"/>
      <use x="560.351562" xlink:href="#DejaVuSans-76"/>
      <use x="619.53125" xlink:href="#DejaVuSans-61"/>
      <use x="680.810547" xlink:href="#DejaVuSans-6c"/>
      <use x="708.59375" xlink:href="#DejaVuSans-73"/>
      <use x="760.693359" xlink:href="#DejaVuSans-20"/>
      <use x="792.480469" xlink:href="#DejaVuSans-72"/>
      <use x="833.59375" xlink:href="#DejaVuSans-61"/>
      <use x="894.873047" xlink:href="#DejaVuSans-74"/>
      <use x="934.082031" xlink:href="#DejaVuSans-69"/>
      <use x="961.865234" xlink:href="#DejaVuSans-6f"/>
     </g>
    </g>
   </g>
   <g id="matplotlib.axis_2">
    <g id="ytick_1">
     <g id="line2d_23">
      <path clip-path="url(#pb8171c6c20)" d="M 71.646973 288.478431 
L 446.847 288.478431 
" style="fill:none;stroke:#b0b0b0;stroke-linecap:square;stroke-width:0.8;"/>
     </g>
     <g id="line2d_24">
      <defs>
       <path d="M 0 0 
L -3.5 0 
" id="mb427a24aa0" style="stroke:#000000;stroke-width:0.8;"/>
      </defs>
      <g>
       <use style="stroke:#000000;stroke-width:0.8;" x="71.646973" xlink:href="#mb427a24aa0" y="288.478431"/>
      </g>
     </g>
    </g>
    <g id="ytick_2">
     <g id="line2d_25">
      <path clip-path="url(#pb8171c6c20)" d="M 71.646973 218.439216 
L 446.847 218.439216 
" style="fill:none;stroke:#b0b0b0;stroke-linecap:square;stroke-width:0.8;"/>
     </g>
     <g id="line2d_26">
      <g>
       <use style="stroke:#000000;stroke-width:0.8;" x="71.646973" xlink:href="#mb427a24aa0" y="218.439216"/>
      </g>
     </g>
    </g>
    <g id="ytick_3">
     <g id="line2d_27">
      <path clip-path="url(#pb8171c6c20)" d="M 71.646973 148.4 
L 446.847 148.4 
" style="fill:none;stroke:#b0b0b0;stroke-linecap:square;stroke-width:0.8;"/>
     </g>
     <g id="line2d_28">
      <g>
       <use style="stroke:#000000;stroke-width:0.8;" x="71.646973" xlink:href="#mb427a24aa0" y="148.4"/>
      </g>
     </g>
    </g>
    <g id="ytick_4">
     <g id="line2d_29">
      <path clip-path="url(#pb8171c6c20)" d="M 71.646973 78.360784 
L 446.847 78.360784 
" style="fill:none;stroke:#b0b0b0;stroke-linecap:square;stroke-width:0.8;"/>
     </g>
     <g id="line2d_30">
      <g>
       <use style="stroke:#000000;stroke-width:0.8;" x="71.646973" xlink:href="#mb427a24aa0" y="78.360784"/>
      </g>
     </g>
    </g>
    <g id="ytick_5">
     <g id="line2d_31">
      <path clip-path="url(#pb8171c6c20)" d="M 71.646973 8.321569 
L 446.847 8.321569 
" style="fill:none;stroke:#b0b0b0;stroke-linecap:square;stroke-width:0.8;"/>
     </g>
     <g id="line2d_32">
      <g>
       <use style="stroke:#000000;stroke-width:0.8;" x="71.646973" xlink:href="#mb427a24aa0" y="8.321569"/>
      </g>
     </g>
    </g>
    <g id="text_8">
     <!-- proportion of trials -->
     <defs>
      <path d="M 18.109375 8.203125 
L 18.109375 -20.796875 
L 9.078125 -20.796875 
L 9.078125 54.6875 
L 18.109375 54.6875 
L 18.109375 46.390625 
Q 20.953125 51.265625 25.265625 53.625 
Q 29.59375 56 35.59375 56 
Q 45.5625 56 51.78125 48.09375 
Q 58.015625 40.1875 58.015625 27.296875 
Q 58.015625 14.40625 51.78125 6.484375 
Q 45.5625 -1.421875 35.59375 -1.421875 
Q 29.59375 -1.421875 25.265625 0.953125 
Q 20.953125 3.328125 18.109375 8.203125 
z
M 48.6875 27.296875 
Q 48.6875 37.203125 44.609375 42.84375 
Q 40.53125 48.484375 33.40625 48.484375 
Q 26.265625 48.484375 22.1875 42.84375 
Q 18.109375 37.203125 18.109375 27.296875 
Q 18.109375 17.390625 22.1875 11.75 
Q 26.265625 6.109375 33.40625 6.109375 
Q 40.53125 6.109375 44.609375 11.75 
Q 48.6875 17.390625 48.6875 27.296875 
z
" id="DejaVuSans-70"/>
      <path d="M 54.890625 33.015625 
L 54.890625 0 
L 45.90625 0 
L 45.90625 32.71875 
Q 45.90625 40.484375 42.875 44.328125 
Q 39.84375 48.1875 33.796875 48.1875 
Q 26.515625 48.1875 22.3125 43.546875 
Q 18.109375 38.921875 18.109375 30.90625 
L 18.109375 0 
L 9.078125 0 
L 9.078125 54.6875 
L 18.109375 54.6875 
L 18.109375 46.1875 
Q 21.34375 51.125 25.703125 53.5625 
Q 30.078125 56 35.796875 56 
Q 45.21875 56 50.046875 50.171875 
Q 54.890625 44.34375 54.890625 33.015625 
z
" id="DejaVuSans-6e"/>
     </defs>
     <g transform="translate(56.487598 241.628125)rotate(-90)scale(0.2 -0.2)">
      <use xlink:href="#DejaVuSans-70"/>
      <use x="63.476562" xlink:href="#DejaVuSans-72"/>
      <use x="104.558594" xlink:href="#DejaVuSans-6f"/>
      <use x="165.740234" xlink:href="#DejaVuSans-70"/>
      <use x="229.216797" xlink:href="#DejaVuSans-6f"/>
      <use x="290.398438" xlink:href="#DejaVuSans-72"/>
      <use x="331.511719" xlink:href="#DejaVuSans-74"/>
      <use x="370.720703" xlink:href="#DejaVuSans-69"/>
      <use x="398.503906" xlink:href="#DejaVuSans-6f"/>
      <use x="459.685547" xlink:href="#DejaVuSans-6e"/>
      <use x="523.064453" xlink:href="#DejaVuSans-20"/>
      <use x="554.851562" xlink:href="#DejaVuSans-6f"/>
      <use x="616.033203" xlink:href="#DejaVuSans-66"/>
      <use x="651.238281" xlink:href="#DejaVuSans-20"/>
      <use x="683.025391" xlink:href="#DejaVuSans-74"/>
      <use x="722.234375" xlink:href="#DejaVuSans-72"/>
      <use x="763.347656" xlink:href="#DejaVuSans-69"/>
      <use x="791.130859" xlink:href="#DejaVuSans-61"/>
      <use x="852.410156" xlink:href="#DejaVuSans-6c"/>
      <use x="880.193359" xlink:href="#DejaVuSans-73"/>
     </g>
    </g>
   </g>
   <g id="line2d_33">
    <path clip-path="url(#pb8171c6c20)" d="M 71.646973 288.478431 
L 88.011188 288.478431 
L 88.011188 288.167146 
L 90.639599 288.167146 
L 90.639599 287.855861 
L 101.089088 287.855861 
L 101.089088 287.544575 
L 103.717499 287.544575 
L 103.717499 287.23329 
L 114.386502 287.23329 
L 114.386502 286.922004 
L 116.907688 286.922004 
L 117.014912 286.299434 
L 117.844177 286.299434 
L 117.844177 285.988148 
L 119.269408 285.988148 
L 119.269408 285.676863 
L 119.50939 285.676863 
L 119.536098 285.054292 
L 120.472587 285.054292 
L 120.472587 284.743007 
L 121.897818 284.743007 
L 121.897818 284.431721 
L 122.1378 284.431721 
L 122.1378 284.120436 
L 124.208718 284.120436 
L 124.208718 283.80915 
L 126.271452 283.80915 
L 126.271452 283.497865 
L 126.7954 283.497865 
L 126.837128 282.875294 
L 127.322739 282.875294 
L 127.322739 282.564009 
L 128.899862 282.564009 
L 128.899862 282.252723 
L 129.42381 282.252723 
L 129.42381 281.941438 
L 129.951149 281.941438 
L 129.951149 281.630153 
L 141.439819 281.630153 
L 141.439819 281.318867 
L 144.068229 281.318867 
L 144.068229 281.007582 
L 148.329018 281.007582 
L 148.329018 280.696296 
L 150.957428 280.696296 
L 150.957428 280.385011 
L 151.469719 280.385011 
L 151.469719 280.073725 
L 154.098129 280.073725 
L 154.098129 279.76244 
L 155.696936 279.76244 
L 155.696936 279.451155 
L 159.306174 279.451155 
L 159.306174 279.139869 
L 161.934585 279.139869 
L 161.934585 278.828584 
L 166.76702 278.828584 
L 166.76702 278.517298 
L 168.774836 278.517298 
L 168.774836 278.206013 
L 176.27911 278.206013 
L 176.27911 277.894728 
L 179.651158 277.894728 
L 179.651158 277.583442 
L 182.072249 277.583442 
L 182.072249 277.272157 
L 184.593435 277.272157 
L 184.593435 276.960871 
L 185.529924 276.960871 
L 185.529924 276.649586 
L 186.955156 276.649586 
L 186.955156 276.338301 
L 187.195137 276.338301 
L 187.195137 276.027015 
L 189.163249 276.027015 
L 189.163249 275.71573 
L 189.854987 275.71573 
L 189.854987 275.404444 
L 190.268943 275.404444 
L 190.268943 275.093159 
L 190.503322 275.093159 
L 190.503322 274.781874 
L 191.894465 274.781874 
L 191.894465 274.470588 
L 193.957199 274.470588 
L 193.957199 274.159303 
L 194.481147 274.159303 
L 194.481147 273.848017 
L 194.714062 273.848017 
L 194.714062 273.536732 
L 194.962638 273.536732 
L 195.008487 272.914161 
L 198.714605 272.914161 
L 198.714605 272.602876 
L 199.367078 272.602876 
L 199.367078 272.29159 
L 200.015413 272.29159 
L 200.015413 271.980305 
L 203.279804 271.980305 
L 203.346843 271.357734 
L 203.90873 271.357734 
L 203.90873 271.046449 
L 204.173025 271.046449 
L 204.173025 270.735163 
L 204.474728 270.735163 
L 204.474728 270.423878 
L 207.791962 270.423878 
L 207.791962 270.112593 
L 208.226696 270.112593 
L 208.226696 269.801307 
L 208.486682 269.801307 
L 208.486682 269.490022 
L 209.125566 269.490022 
L 209.125566 269.178736 
L 209.238983 269.178736 
L 209.238983 268.867451 
L 212.791894 268.867451 
L 212.848499 268.24488 
L 213.685115 268.24488 
L 213.685115 267.933595 
L 213.833416 267.933595 
L 213.833416 267.622309 
L 215.575816 267.622309 
L 215.651681 266.999739 
L 216.014765 266.999739 
L 216.014765 266.688453 
L 216.644256 266.688453 
L 216.644256 266.377168 
L 216.98663 266.377168 
L 216.98663 266.065882 
L 219.155466 266.065882 
L 219.165442 265.443312 
L 219.98246 265.443312 
L 219.98246 265.132026 
L 220.101931 265.132026 
L 220.13839 264.509455 
L 220.72517 264.509455 
L 220.74047 263.886885 
L 221.089376 263.886885 
L 221.089376 263.575599 
L 221.370821 263.575599 
L 221.370821 263.264314 
L 221.527163 263.264314 
L 221.622536 262.641743 
L 221.714332 262.641743 
L 221.767144 262.019172 
L 222.123122 262.019172 
L 222.123122 261.707887 
L 223.240251 261.707887 
L 223.345507 261.085316 
L 223.610562 261.085316 
L 223.610562 260.774031 
L 224.547051 260.774031 
L 224.547051 260.462745 
L 225.614289 260.462745 
L 225.710886 259.840174 
L 225.818353 259.840174 
L 225.818353 259.528889 
L 225.972282 259.528889 
L 225.972282 259.217603 
L 226.212264 259.217603 
L 226.286703 258.595033 
L 226.466472 258.595033 
L 226.466472 258.283747 
L 226.991922 258.283747 
L 226.991922 257.972462 
L 228.417471 257.972462 
L 228.459955 257.349891 
L 228.529206 257.349891 
L 228.529206 257.038606 
L 228.933509 257.038606 
L 228.933509 256.72732 
L 229.053154 256.72732 
L 229.089885 256.104749 
L 229.178184 256.104749 
L 229.252247 255.482179 
L 229.49455 255.482179 
L 229.580494 254.859608 
L 229.650481 254.859608 
L 229.650481 254.548322 
L 230.119416 254.548322 
L 230.119416 254.237037 
L 230.245262 254.237037 
L 230.284043 253.614466 
L 230.911591 253.614466 
L 230.911591 253.303181 
L 231.045857 253.303181 
L 231.051368 252.68061 
L 231.226422 252.68061 
L 231.276334 252.058039 
L 231.57465 252.058039 
L 231.57465 251.746754 
L 231.833365 251.746754 
L 231.881943 251.124183 
L 232.222984 251.124183 
L 232.326951 250.501612 
L 232.411964 250.501612 
L 232.411964 250.190327 
L 232.551033 250.190327 
L 232.551033 249.879041 
L 232.805229 249.879041 
L 232.805229 249.567756 
L 232.974326 249.567756 
L 232.975286 248.945185 
L 233.340596 248.945185 
L 233.340596 248.6339 
L 233.498274 248.6339 
L 233.50626 248.011329 
L 233.741718 248.011329 
L 233.80307 247.388758 
L 234.025613 247.388758 
L 234.025613 247.077473 
L 234.178674 247.077473 
L 234.207765 246.454902 
L 234.391926 246.454902 
L 234.391926 246.143617 
L 234.966435 246.143617 
L 234.966435 245.832331 
L 235.166949 245.832331 
L 235.184571 245.20976 
L 235.317178 245.20976 
L 235.406931 244.58719 
L 235.970292 244.58719 
L 236.039141 243.964619 
L 236.12439 243.964619 
L 236.206049 243.342048 
L 236.6823 243.342048 
L 236.6823 243.030763 
L 236.834983 243.030763 
L 236.834983 242.719477 
L 237.235838 242.719477 
L 237.235838 242.408192 
L 237.434601 242.408192 
L 237.537779 241.785621 
L 237.942116 241.785621 
L 237.942116 241.474336 
L 238.584143 241.474336 
L 238.663784 240.851765 
L 239.167043 240.851765 
L 239.256557 240.229194 
L 239.312119 240.229194 
L 239.312119 239.917908 
L 239.463076 239.917908 
L 239.463076 239.606623 
L 239.616652 239.606623 
L 239.616652 239.295338 
L 240.106259 239.295338 
L 240.106259 238.984052 
L 240.294399 238.984052 
L 240.330244 238.361481 
L 240.434268 238.361481 
L 240.434268 238.050196 
L 241.186569 238.050196 
L 241.186569 237.738911 
L 241.589591 237.738911 
L 241.699299 237.11634 
L 241.924054 237.11634 
L 242.021637 236.493769 
L 242.092771 236.493769 
L 242.168993 235.871198 
L 242.256084 235.871198 
L 242.256084 235.559913 
L 242.371713 235.559913 
L 242.371713 235.248627 
L 242.692941 235.248627 
L 242.692941 234.937342 
L 242.888806 234.937342 
L 242.888806 234.626057 
L 243.129401 234.626057 
L 243.22028 234.003486 
L 243.285451 234.003486 
L 243.285451 233.6922 
L 243.528432 233.6922 
L 243.528432 233.380915 
L 243.697573 233.380915 
L 243.794609 232.447059 
L 243.935507 232.447059 
L 243.935507 232.135773 
L 244.051383 232.135773 
L 244.123757 231.201917 
L 244.354234 231.201917 
L 244.44121 230.579346 
L 244.651333 230.579346 
L 244.651333 230.268061 
L 244.999466 230.268061 
L 244.999466 229.956776 
L 245.310856 229.956776 
L 245.316823 229.334205 
L 245.67794 229.334205 
L 245.751768 228.711634 
L 245.892687 228.711634 
L 245.989236 228.089063 
L 246.328219 228.089063 
L 246.416878 227.466492 
L 246.574531 227.466492 
L 246.644988 226.532636 
L 246.771031 226.532636 
L 246.85421 225.910065 
L 246.972749 225.910065 
L 247.045811 224.976209 
L 247.100483 224.976209 
L 247.100483 224.664924 
L 247.523402 224.664924 
L 247.616782 223.731068 
L 247.850574 223.731068 
L 247.850574 223.419782 
L 248.06871 223.419782 
L 248.142693 222.174641 
L 248.395078 222.174641 
L 248.438549 221.55207 
L 248.804931 221.55207 
L 248.804931 221.240784 
L 248.975439 221.240784 
L 248.995045 220.618214 
L 249.128743 220.618214 
L 249.128743 220.306928 
L 249.477345 220.306928 
L 249.477345 219.995643 
L 249.600773 219.995643 
L 249.621669 219.373072 
L 249.775931 219.373072 
L 249.775931 219.061786 
L 250.001628 219.061786 
L 250.001628 218.750501 
L 250.273187 218.750501 
L 250.303569 218.12793 
L 250.558158 218.12793 
L 250.66288 216.882789 
L 250.674042 216.882789 
L 250.707906 216.260218 
L 250.893793 216.260218 
L 250.975983 215.326362 
L 251.224252 215.326362 
L 251.224252 215.015076 
L 251.38032 215.015076 
L 251.435869 214.392505 
L 251.60323 214.392505 
L 251.693165 213.458649 
L 251.78233 213.458649 
L 251.800419 212.836078 
L 251.98339 212.836078 
L 252.088601 212.213508 
L 252.223371 212.213508 
L 252.244943 211.590937 
L 252.526898 211.590937 
L 252.560334 210.968366 
L 252.981821 210.968366 
L 252.981821 210.657081 
L 253.202828 210.657081 
L 253.220596 210.03451 
L 253.33323 210.03451 
L 253.33323 209.723224 
L 253.544857 209.723224 
L 253.630985 209.100654 
L 253.727473 209.100654 
L 253.739261 208.478083 
L 253.981565 208.478083 
L 253.981565 208.166797 
L 254.139336 208.166797 
L 254.139336 207.855512 
L 254.322861 207.855512 
L 254.400742 206.921656 
L 254.483921 206.921656 
L 254.483921 206.61037 
L 254.787671 206.61037 
L 254.86472 205.9878 
L 255.031892 205.9878 
L 255.031892 205.676514 
L 255.187837 205.676514 
L 255.267911 205.053943 
L 255.351089 205.053943 
L 255.351089 204.742658 
L 255.553078 204.742658 
L 255.553497 204.120087 
L 255.982582 204.120087 
L 256.023778 203.497516 
L 256.297822 203.497516 
L 256.30538 202.874946 
L 256.764463 202.874946 
L 256.785359 201.941089 
L 256.922699 201.941089 
L 257.030438 201.007233 
L 257.113617 201.007233 
L 257.113617 200.695948 
L 257.325349 200.695948 
L 257.42117 199.762092 
L 257.439733 199.762092 
L 257.439733 199.450806 
L 257.651647 199.450806 
L 257.651647 199.139521 
L 257.868964 199.139521 
L 257.868964 198.828235 
L 258.054403 198.828235 
L 258.074683 198.205664 
L 258.172593 198.205664 
L 258.280711 196.960523 
L 258.44088 196.960523 
L 258.44088 196.649237 
L 258.646967 196.649237 
L 258.702738 195.715381 
L 258.853963 195.715381 
L 258.920874 195.09281 
L 258.985433 195.09281 
L 259.088323 194.158954 
L 259.246986 194.158954 
L 259.343921 193.536383 
L 259.36038 193.536383 
L 259.36038 193.225098 
L 259.509382 193.225098 
L 259.509382 192.913813 
L 259.721131 192.913813 
L 259.811601 191.979956 
L 259.879619 191.979956 
L 259.942603 190.734815 
L 260.036721 190.734815 
L 260.036721 190.423529 
L 260.172833 190.423529 
L 260.242915 189.800959 
L 260.380157 189.800959 
L 260.484015 188.867102 
L 260.646256 188.867102 
L 260.676385 188.244532 
L 260.85085 188.244532 
L 260.878845 187.621961 
L 261.05257 187.621961 
L 261.112567 186.376819 
L 261.207939 186.376819 
L 261.305997 185.442963 
L 261.354544 185.442963 
L 261.437723 184.509107 
L 261.483658 184.509107 
L 261.563929 183.886536 
L 261.692491 183.886536 
L 261.702122 183.263965 
L 261.858052 183.263965 
L 261.895833 182.641394 
L 262.072945 182.641394 
L 262.13415 181.707538 
L 262.192848 181.707538 
L 262.192848 181.396253 
L 262.304076 181.396253 
L 262.304076 181.084967 
L 262.454423 181.084967 
L 262.544058 180.151111 
L 262.610354 180.151111 
L 262.674124 179.217255 
L 262.774535 179.217255 
L 262.774535 178.905969 
L 262.998954 178.905969 
L 263.057759 178.283399 
L 263.162053 178.283399 
L 263.252505 177.660828 
L 263.380189 177.660828 
L 263.44873 176.726972 
L 263.497143 176.726972 
L 263.597147 176.104401 
L 263.890392 176.104401 
L 263.963374 175.170545 
L 264.030509 175.170545 
L 264.109179 174.547974 
L 264.175621 174.547974 
L 264.226559 173.302832 
L 264.487369 173.302832 
L 264.487369 172.991547 
L 265.01339 172.991547 
L 265.101012 172.368976 
L 265.150166 172.368976 
L 265.191347 171.43512 
L 265.331704 171.43512 
L 265.375713 170.812549 
L 265.477306 170.812549 
L 265.542356 169.878693 
L 265.807765 169.878693 
L 265.861845 169.256122 
L 265.96935 169.256122 
L 266.009048 168.322266 
L 266.19045 168.322266 
L 266.19045 168.01098 
L 266.400329 168.01098 
L 266.400329 167.699695 
L 266.575397 167.699695 
L 266.675283 167.077124 
L 266.738086 167.077124 
L 266.821265 165.831983 
L 266.914021 165.831983 
L 266.985251 165.209412 
L 267.132157 165.209412 
L 267.139351 164.586841 
L 267.243386 164.586841 
L 267.243386 164.275556 
L 267.36726 164.275556 
L 267.473863 163.341699 
L 267.529178 163.341699 
L 267.564153 162.719129 
L 267.651267 162.719129 
L 267.651267 162.407843 
L 267.781093 162.407843 
L 267.793144 161.473987 
L 267.962395 161.473987 
L 268.063542 160.851416 
L 268.177513 160.851416 
L 268.237445 159.294989 
L 268.457373 159.294989 
L 268.501499 158.049847 
L 268.60276 158.049847 
L 268.676927 157.427277 
L 268.760106 157.427277 
L 268.791257 156.804706 
L 268.888226 156.804706 
L 268.947187 156.182135 
L 269.000031 156.182135 
L 269.015449 155.559564 
L 269.197968 155.559564 
L 269.30612 154.314423 
L 269.536597 154.314423 
L 269.571209 153.380566 
L 269.698196 153.380566 
L 269.698196 153.069281 
L 269.830068 153.069281 
L 269.830068 152.757996 
L 270.000137 152.757996 
L 270.101463 151.824139 
L 270.163391 151.824139 
L 270.221996 151.201569 
L 270.306648 151.201569 
L 270.409587 149.956427 
L 270.425263 149.956427 
L 270.523129 149.333856 
L 270.558498 149.333856 
L 270.665244 148.088715 
L 270.879467 148.088715 
L 270.959233 147.466144 
L 270.998378 147.466144 
L 270.998378 147.154858 
L 271.191307 147.154858 
L 271.281253 146.532288 
L 271.360088 146.532288 
L 271.360088 146.221002 
L 271.47922 146.221002 
L 271.514707 145.287146 
L 271.593084 145.287146 
L 271.697356 144.35329 
L 271.723026 144.35329 
L 271.806205 143.730719 
L 272.066366 143.730719 
L 272.12977 142.485577 
L 272.247001 142.485577 
L 272.247001 142.174292 
L 272.37244 142.174292 
L 272.47795 141.240436 
L 272.49734 141.240436 
L 272.590576 140.617865 
L 272.636828 140.617865 
L 272.730723 139.372723 
L 272.779891 139.372723 
L 272.779891 139.061438 
L 272.923129 139.061438 
L 272.923129 138.750153 
L 273.130148 138.750153 
L 273.184228 138.127582 
L 273.345969 138.127582 
L 273.345969 137.816296 
L 273.524743 137.816296 
L 273.59804 136.259869 
L 273.670223 136.259869 
L 273.670223 135.948584 
L 274.101389 135.948584 
L 274.153801 135.014728 
L 274.22278 135.014728 
L 274.275851 134.392157 
L 274.628729 134.392157 
L 274.691198 133.458301 
L 274.883927 133.458301 
L 274.883927 133.147015 
L 275.203716 133.147015 
L 275.21205 132.524444 
L 275.339533 132.524444 
L 275.370358 131.279303 
L 275.536881 131.279303 
L 275.643978 130.345447 
L 275.998969 130.345447 
L 276.087167 129.722876 
L 276.176247 129.722876 
L 276.176247 129.41159 
L 276.388796 129.41159 
L 276.455691 128.477734 
L 276.567001 128.477734 
L 276.611622 127.855163 
L 276.779022 127.855163 
L 276.779022 127.543878 
L 277.142267 127.543878 
L 277.20708 126.921307 
L 277.311659 126.921307 
L 277.407456 125.987451 
L 277.427306 125.987451 
L 277.427306 125.676166 
L 277.607935 125.676166 
L 277.607935 125.36488 
L 277.891545 125.36488 
L 277.991921 124.119739 
L 278.040264 124.119739 
L 278.117765 123.497168 
L 278.187563 123.497168 
L 278.187563 123.185882 
L 278.310266 123.185882 
L 278.314213 122.563312 
L 278.478594 122.563312 
L 278.58298 121.31817 
L 278.607277 121.31817 
L 278.607277 121.006885 
L 278.745984 121.006885 
L 278.828034 119.761743 
L 278.885039 119.761743 
L 278.885039 119.450458 
L 279.508169 119.450458 
L 279.508169 119.139172 
L 279.682157 119.139172 
L 279.684525 118.516601 
L 279.798848 118.516601 
L 279.798848 118.205316 
L 280.076724 118.205316 
L 280.076724 117.894031 
L 280.253265 117.894031 
L 280.253265 117.582745 
L 280.446998 117.582745 
L 280.493247 116.960174 
L 280.564168 116.960174 
L 280.630375 116.337603 
L 280.953994 116.337603 
L 281.043 115.092462 
L 281.077287 115.092462 
L 281.170061 114.158606 
L 281.220761 114.158606 
L 281.220761 113.84732 
L 281.336314 113.84732 
L 281.426217 112.913464 
L 281.457388 112.913464 
L 281.457388 112.602179 
L 281.738617 112.602179 
L 281.847215 111.357037 
L 282.032832 111.357037 
L 282.129013 110.423181 
L 282.250968 110.423181 
L 282.287923 109.80061 
L 282.376657 109.80061 
L 282.399371 108.866754 
L 282.53335 108.866754 
L 282.606814 108.244183 
L 282.856479 108.244183 
L 282.856479 107.932898 
L 282.973388 107.932898 
L 282.973388 107.621612 
L 283.29968 107.621612 
L 283.29968 107.310327 
L 283.460702 107.310327 
L 283.558747 106.376471 
L 283.616633 106.376471 
L 283.616633 106.065185 
L 283.930428 106.065185 
L 283.930428 105.7539 
L 284.183701 105.7539 
L 284.280206 104.820044 
L 284.336751 104.820044 
L 284.422739 104.197473 
L 284.474487 104.197473 
L 284.508875 103.263617 
L 284.592054 103.263617 
L 284.592054 102.952331 
L 284.704964 102.952331 
L 284.704964 102.641046 
L 285.068067 102.641046 
L 285.165636 102.018475 
L 285.192574 102.018475 
L 285.292481 101.084619 
L 285.693336 101.084619 
L 285.693336 100.773333 
L 285.864766 100.773333 
L 285.86927 100.150763 
L 285.995277 100.150763 
L 285.998681 99.528192 
L 286.207835 99.528192 
L 286.207835 99.216906 
L 286.399613 99.216906 
L 286.399613 98.905621 
L 286.660608 98.905621 
L 286.660608 98.594336 
L 286.787789 98.594336 
L 286.787789 98.28305 
L 286.982851 98.28305 
L 287.061463 97.037908 
L 287.127507 97.037908 
L 287.127507 96.726623 
L 287.255309 96.726623 
L 287.363404 96.104052 
L 287.417908 96.104052 
L 287.417908 95.792767 
L 287.583631 95.792767 
L 287.631186 95.170196 
L 287.729902 95.170196 
L 287.779257 94.23634 
L 287.897729 94.23634 
L 287.986463 93.302484 
L 288.116014 93.302484 
L 288.181876 92.679913 
L 288.286427 92.679913 
L 288.337806 91.434771 
L 288.400011 91.434771 
L 288.509463 90.500915 
L 288.521095 90.500915 
L 288.555942 89.878344 
L 288.690763 89.878344 
L 288.745808 89.255773 
L 288.885195 89.255773 
L 288.962096 88.010632 
L 289.009235 88.010632 
L 289.095867 87.388061 
L 289.24615 87.388061 
L 289.24615 87.076776 
L 289.496014 87.076776 
L 289.598147 86.454205 
L 289.913748 86.454205 
L 289.913748 86.142919 
L 290.029082 86.142919 
L 290.131884 85.209063 
L 290.265675 85.209063 
L 290.265675 84.897778 
L 290.778462 84.897778 
L 290.86474 83.652636 
L 290.89625 83.652636 
L 290.908043 83.030065 
L 291.030649 83.030065 
L 291.11778 81.784924 
L 291.288115 81.784924 
L 291.385838 80.539782 
L 291.497548 80.539782 
L 291.594163 79.605926 
L 291.637046 79.605926 
L 291.654429 78.983355 
L 291.90469 78.983355 
L 291.967138 78.049499 
L 292.020156 78.049499 
L 292.090501 77.115643 
L 292.18168 77.115643 
L 292.205601 76.493072 
L 292.370123 76.493072 
L 292.370123 76.181786 
L 292.582535 76.181786 
L 292.658778 74.936645 
L 292.884476 74.936645 
L 292.884476 74.625359 
L 293.288813 74.625359 
L 293.39237 74.002789 
L 293.581645 74.002789 
L 293.632351 73.380218 
L 293.751255 73.380218 
L 293.846677 72.446362 
L 293.904282 72.446362 
L 293.904282 72.135076 
L 294.032016 72.135076 
L 294.057463 71.512505 
L 294.425876 71.512505 
L 294.504387 70.889935 
L 294.734864 70.889935 
L 294.734864 70.578649 
L 295.149878 70.578649 
L 295.149878 70.267364 
L 295.362365 70.267364 
L 295.362365 69.956078 
L 295.503309 69.956078 
L 295.503309 69.644793 
L 295.635007 69.644793 
L 295.719926 69.022222 
L 295.842469 69.022222 
L 295.890206 68.399651 
L 296.071864 68.399651 
L 296.089884 67.777081 
L 296.696313 67.777081 
L 296.787597 67.15451 
L 296.871436 67.15451 
L 296.871436 66.843224 
L 296.982884 66.843224 
L 297.027578 66.220654 
L 297.155889 66.220654 
L 297.266823 65.598083 
L 297.422754 65.598083 
L 297.439991 64.975512 
L 297.571668 64.975512 
L 297.65665 64.352941 
L 297.794459 64.352941 
L 297.812581 63.419085 
L 298.204476 63.419085 
L 298.204476 63.1078 
L 298.331679 63.1078 
L 298.363014 62.485229 
L 298.669626 62.485229 
L 298.775708 61.551373 
L 298.998696 61.551373 
L 298.998696 61.240087 
L 299.388522 61.240087 
L 299.484872 60.617516 
L 299.973181 60.617516 
L 299.973181 60.306231 
L 300.279862 60.306231 
L 300.279862 59.994946 
L 300.394413 59.994946 
L 300.47317 59.061089 
L 300.547953 59.061089 
L 300.61138 58.127233 
L 300.751184 58.127233 
L 300.829516 57.504662 
L 300.918361 57.504662 
L 300.965721 56.882092 
L 301.300888 56.882092 
L 301.375027 55.948235 
L 301.445701 55.948235 
L 301.445701 55.63695 
L 301.701218 55.63695 
L 301.726906 55.014379 
L 302.340843 55.014379 
L 302.423676 53.457952 
L 302.487968 53.457952 
L 302.57132 52.835381 
L 302.625573 52.835381 
L 302.625573 52.524096 
L 302.740201 52.524096 
L 302.838856 51.901525 
L 302.961064 51.901525 
L 302.961064 51.59024 
L 303.094895 51.59024 
L 303.094895 51.278954 
L 303.26785 51.278954 
L 303.26785 50.967669 
L 303.458761 50.967669 
L 303.54194 50.033813 
L 303.748317 50.033813 
L 303.78964 49.411242 
L 303.901001 49.411242 
L 303.901001 49.099956 
L 304.033534 49.099956 
L 304.116713 48.477386 
L 304.23667 48.477386 
L 304.313588 47.543529 
L 304.499 47.543529 
L 304.499 47.232244 
L 304.81867 47.232244 
L 304.840928 46.609673 
L 304.974601 46.609673 
L 304.974601 46.298388 
L 305.24129 46.298388 
L 305.29115 45.675817 
L 305.374309 45.675817 
L 305.374309 45.364532 
L 306.225782 45.364532 
L 306.308961 44.741961 
L 306.550542 44.741961 
L 306.612164 43.808105 
L 306.863472 43.808105 
L 306.863472 43.496819 
L 307.279173 43.496819 
L 307.351366 42.874248 
L 307.53244 42.874248 
L 307.53244 42.562963 
L 307.816068 42.562963 
L 307.911982 41.629107 
L 308.034204 41.629107 
L 308.034204 41.317821 
L 308.365263 41.317821 
L 308.365263 41.006536 
L 308.486754 41.006536 
L 308.595432 40.383965 
L 309.215384 40.383965 
L 309.312875 39.761394 
L 309.4626 39.761394 
L 309.4626 39.450109 
L 309.696327 39.450109 
L 309.73339 38.827538 
L 310.046194 38.827538 
L 310.086154 38.204967 
L 310.318715 38.204967 
L 310.379939 37.582397 
L 310.462029 37.582397 
L 310.480996 36.959826 
L 310.656413 36.959826 
L 310.679003 36.337255 
L 310.893488 36.337255 
L 310.96128 35.403399 
L 311.225128 35.403399 
L 311.225128 35.092113 
L 312.081236 35.092113 
L 312.130489 34.469542 
L 312.453576 34.469542 
L 312.453576 34.158257 
L 312.928241 34.158257 
L 312.928241 33.846972 
L 313.085736 33.846972 
L 313.085736 33.535686 
L 313.969105 33.535686 
L 313.969105 33.224401 
L 314.764946 33.224401 
L 314.764946 32.913115 
L 315.165801 32.913115 
L 315.254463 32.290545 
L 315.457822 32.290545 
L 315.562781 31.045403 
L 315.872079 31.045403 
L 315.872079 30.734118 
L 316.901016 30.734118 
L 316.901016 30.422832 
L 317.110323 30.422832 
L 317.110323 30.111547 
L 317.248174 30.111547 
L 317.290843 29.177691 
L 318.572978 29.177691 
L 318.572978 28.866405 
L 318.842195 28.866405 
L 318.842195 28.55512 
L 318.958007 28.55512 
L 318.958007 28.243834 
L 319.077285 28.243834 
L 319.077285 27.932549 
L 319.233215 27.932549 
L 319.233215 27.621264 
L 320.137215 27.621264 
L 320.137215 27.309978 
L 320.290031 27.309978 
L 320.290031 26.998693 
L 320.651104 26.998693 
L 320.651104 26.687407 
L 320.809157 26.687407 
L 320.809157 26.376122 
L 320.932776 26.376122 
L 320.932776 26.064837 
L 321.225876 26.064837 
L 321.225876 25.753551 
L 321.788742 25.753551 
L 321.788742 25.442266 
L 322.190502 25.442266 
L 322.190502 25.13098 
L 322.363514 25.13098 
L 322.45198 24.50841 
L 322.672668 24.50841 
L 322.672668 24.197124 
L 322.871617 24.197124 
L 322.871617 23.885839 
L 323.418124 23.885839 
L 323.418124 23.574553 
L 324.452863 23.574553 
L 324.555763 22.951983 
L 324.975775 22.951983 
L 324.975775 22.640697 
L 325.54433 22.640697 
L 325.592681 22.018126 
L 325.67861 22.018126 
L 325.67861 21.706841 
L 325.847206 21.706841 
L 325.917716 21.08427 
L 326.474452 21.08427 
L 326.474452 20.772985 
L 326.875307 20.772985 
L 326.875307 20.461699 
L 327.177248 20.461699 
L 327.177248 20.150414 
L 327.581585 20.150414 
L 327.581585 19.839129 
L 327.781734 19.839129 
L 327.781734 19.527843 
L 327.927498 19.527843 
L 327.927498 19.216558 
L 328.679799 19.216558 
L 328.679799 18.905272 
L 328.987907 18.905272 
L 328.987907 18.593987 
L 329.379595 18.593987 
L 329.379595 18.282702 
L 329.539827 18.282702 
L 329.539827 17.971416 
L 331.506789 17.971416 
L 331.506789 17.660131 
L 333.429136 17.660131 
L 333.429136 17.348845 
L 334.713756 17.348845 
L 334.713756 17.03756 
L 335.016632 17.03756 
L 335.016632 16.726275 
L 336.68528 16.726275 
L 336.744516 16.103704 
L 336.824363 16.103704 
L 336.824363 15.792418 
L 337.253836 15.792418 
L 337.253836 15.481133 
L 337.837729 15.481133 
L 337.837729 15.169847 
L 338.703565 15.169847 
L 338.711477 14.547277 
L 339.087101 14.547277 
L 339.087101 14.235991 
L 339.661874 14.235991 
L 339.661874 13.924706 
L 341.239018 13.924706 
L 341.239018 13.61342 
L 341.854122 13.61342 
L 341.854122 13.302135 
L 342.681067 13.302135 
L 342.681067 12.99085 
L 346.423262 12.99085 
L 346.423262 12.679564 
L 347.945945 12.679564 
L 347.945945 12.368279 
L 349.547235 12.368279 
L 349.547235 12.056993 
L 349.686078 12.056993 
L 349.686078 11.745708 
L 350.492184 11.745708 
L 350.492184 11.434423 
L 354.407251 11.434423 
L 354.407251 11.123137 
L 354.625387 11.123137 
L 354.625387 10.811852 
L 357.653451 10.811852 
L 357.653451 10.500566 
L 358.228223 10.500566 
L 358.228223 10.189281 
L 360.420472 10.189281 
L 360.420472 9.877996 
L 363.492199 9.877996 
L 363.492199 9.56671 
L 363.882026 9.56671 
L 363.882026 9.255425 
L 371.044046 9.255425 
L 371.044046 8.944139 
L 383.335699 8.944139 
L 383.335699 8.632854 
L 385.302661 8.632854 
L 385.302661 8.321569 
L 446.847 8.321569 
L 446.847 8.321569 
" style="fill:none;stroke:#000000;stroke-linecap:square;stroke-width:3;"/>
   </g>
   <g id="line2d_34">
    <path clip-path="url(#pb8171c6c20)" style="fill:none;stroke:#000000;stroke-linecap:square;stroke-width:3;"/>
   </g>
   <g id="line2d_35">
    <path clip-path="url(#pb8171c6c20)" d="M 71.646973 144.939024 
L 199.771801 144.939024 
L 199.771801 144.574711 
L 213.599206 144.574711 
L 213.599206 144.210398 
L 217.965048 144.210398 
L 217.965048 143.846085 
L 219.652012 143.846085 
L 219.652012 143.481772 
L 224.011672 143.481772 
L 224.011672 143.117458 
L 224.37831 143.117458 
L 224.37831 142.753145 
L 224.703337 142.753145 
L 224.703337 142.388832 
L 227.588064 142.388832 
L 227.588064 142.024519 
L 228.322472 142.024519 
L 228.322472 141.660206 
L 228.853115 141.660206 
L 228.853574 140.931579 
L 230.479955 140.931579 
L 230.479955 140.567266 
L 234.417152 140.567266 
L 234.509858 139.838639 
L 234.862125 139.838639 
L 234.862125 139.474326 
L 235.376765 139.474326 
L 235.376765 139.110013 
L 239.416322 139.110013 
L 239.416322 138.7457 
L 240.469958 138.7457 
L 240.562664 137.65276 
L 240.974563 137.65276 
L 240.974563 137.288447 
L 241.343602 137.288447 
L 241.343602 136.924134 
L 242.563673 136.924134 
L 242.563673 136.55982 
L 243.720024 136.55982 
L 243.774054 135.831194 
L 244.325578 135.831194 
L 244.325578 135.466881 
L 245.093738 135.466881 
L 245.093738 135.102568 
L 245.346607 135.102568 
L 245.346607 134.738254 
L 245.469128 134.738254 
L 245.521283 134.009628 
L 245.61399 134.009628 
L 245.61399 133.645315 
L 245.781312 133.645315 
L 245.781312 133.281002 
L 247.027369 133.281002 
L 247.027369 132.916688 
L 247.396408 132.916688 
L 247.405116 132.188062 
L 247.523834 132.188062 
L 247.523834 131.823749 
L 248.720548 131.823749 
L 248.720548 131.459435 
L 248.916127 131.459435 
L 248.916127 131.095122 
L 249.873368 131.095122 
L 249.873368 130.730809 
L 250.520454 130.730809 
L 250.520454 130.366496 
L 251.146544 130.366496 
L 251.146544 130.002183 
L 251.498461 130.002183 
L 251.498461 129.637869 
L 252.078695 129.637869 
L 252.078695 129.273556 
L 252.447734 129.273556 
L 252.497158 128.54493 
L 253.118466 128.54493 
L 253.118466 128.180617 
L 253.57664 128.180617 
L 253.57664 127.816303 
L 255.680071 127.816303 
L 255.772777 127.087677 
L 256.19471 127.087677 
L 256.287417 125.630424 
L 256.669837 125.630424 
L 256.669837 125.266111 
L 257.134297 125.266111 
L 257.134297 124.901798 
L 258.549964 124.901798 
L 258.627966 124.173171 
L 259.919291 124.173171 
L 259.919291 123.808858 
L 260.220682 123.808858 
L 260.267546 123.080232 
L 260.679241 123.080232 
L 260.679241 122.715918 
L 261.193881 122.715918 
L 261.193881 122.351605 
L 262.237482 122.351605 
L 262.326055 121.622979 
L 262.606521 121.622979 
L 262.606521 121.258665 
L 262.752122 121.258665 
L 262.752122 120.894352 
L 263.121161 120.894352 
L 263.121161 120.530039 
L 263.415016 120.530039 
L 263.519992 119.801413 
L 263.60129 119.801413 
L 263.605797 119.072786 
L 263.902933 119.072786 
L 263.902933 118.708473 
L 264.575466 118.708473 
L 264.575466 118.34416 
L 264.70079 118.34416 
L 264.712817 117.615533 
L 264.92795 117.615533 
L 265.018475 116.886907 
L 265.143524 116.886907 
L 265.236231 116.15828 
L 265.740437 116.15828 
L 265.740437 115.793967 
L 266.356657 115.793967 
L 266.36686 115.065341 
L 266.606771 115.065341 
L 266.606771 114.701028 
L 266.871297 114.701028 
L 266.92852 113.972401 
L 267.54996 113.972401 
L 267.54996 113.608088 
L 267.701168 113.608088 
L 267.701168 113.243775 
L 268.361435 113.243775 
L 268.425368 112.515148 
L 268.786753 112.515148 
L 268.786753 112.150835 
L 269.301393 112.150835 
L 269.310551 111.422209 
L 269.467822 111.422209 
L 269.542233 110.693582 
L 269.707443 110.693582 
L 269.707443 110.329269 
L 270.142694 110.329269 
L 270.142694 109.964956 
L 270.71914 109.964956 
L 270.71914 109.600643 
L 270.980756 109.600643 
L 270.980756 109.236329 
L 271.370173 109.236329 
L 271.370173 108.872016 
L 271.700936 108.872016 
L 271.793243 108.14339 
L 272.069975 108.14339 
L 272.071085 107.414763 
L 272.316407 107.414763 
L 272.409113 106.686137 
L 272.519327 106.686137 
L 272.542611 105.95751 
L 272.981326 105.95751 
L 272.981326 105.593197 
L 273.112977 105.593197 
L 273.112977 105.228884 
L 273.760077 105.228884 
L 273.760077 104.864571 
L 274.093012 104.864571 
L 274.093012 104.500258 
L 274.274717 104.500258 
L 274.274717 104.135944 
L 274.519147 104.135944 
L 274.519147 103.771631 
L 275.327545 103.771631 
L 275.363357 103.043005 
L 275.82011 103.043005 
L 275.82011 102.678691 
L 276.032082 102.678691 
L 276.032082 102.314378 
L 276.211616 102.314378 
L 276.211616 101.950065 
L 276.844568 101.950065 
L 276.844568 101.585752 
L 277.068254 101.585752 
L 277.160961 100.857125 
L 277.315577 100.857125 
L 277.36077 100.128499 
L 278.032652 100.128499 
L 278.032652 99.764186 
L 278.250206 99.764186 
L 278.250206 99.399873 
L 278.784462 99.399873 
L 278.873818 98.671246 
L 279.242857 98.671246 
L 279.242857 98.306933 
L 280.145818 98.306933 
L 280.145818 97.94262 
L 280.414682 97.94262 
L 280.448891 97.213993 
L 282.067425 97.213993 
L 282.096181 96.485367 
L 282.741492 96.485367 
L 282.741492 96.121054 
L 282.906065 96.121054 
L 282.992993 95.028114 
L 283.211722 95.028114 
L 283.282374 93.935174 
L 283.625666 93.935174 
L 283.625666 93.570861 
L 283.802078 93.570861 
L 283.802078 93.206548 
L 283.994705 93.206548 
L 283.997719 92.477921 
L 284.463172 92.477921 
L 284.555228 91.749295 
L 284.677934 91.749295 
L 284.677934 91.384982 
L 285.192574 91.384982 
L 285.197143 90.656355 
L 285.423089 90.656355 
L 285.423089 90.292042 
L 285.559964 90.292042 
L 285.559964 89.927729 
L 286.190869 89.927729 
L 286.21607 89.199102 
L 286.705509 89.199102 
L 286.705509 88.834789 
L 287.003356 88.834789 
L 287.003356 88.470476 
L 287.424717 88.470476 
L 287.517996 87.013223 
L 287.744841 87.013223 
L 287.744841 86.64891 
L 287.925368 86.64891 
L 287.948035 85.920284 
L 288.143614 85.920284 
L 288.191439 85.191657 
L 288.564577 85.191657 
L 288.564577 84.827344 
L 288.706079 84.827344 
L 288.706079 84.463031 
L 289.381688 84.463031 
L 289.396671 83.734404 
L 290.174937 83.734404 
L 290.247184 83.005778 
L 290.396413 83.005778 
L 290.396413 82.641465 
L 290.562486 82.641465 
L 290.623086 81.548525 
L 291.088109 81.548525 
L 291.132555 80.819899 
L 291.306225 80.819899 
L 291.306225 80.455585 
L 291.537085 80.455585 
L 291.629792 79.726959 
L 292.281709 79.726959 
L 292.345954 78.998332 
L 292.423887 78.998332 
L 292.423887 78.634019 
L 292.984707 78.634019 
L 292.984707 78.269706 
L 293.562863 78.269706 
L 293.562863 77.905393 
L 293.751451 77.905393 
L 293.79459 77.176766 
L 293.982129 77.176766 
L 293.982129 76.812453 
L 294.100248 76.812453 
L 294.141388 76.083827 
L 294.351168 76.083827 
L 294.351168 75.719514 
L 295.148261 75.719514 
L 295.148261 75.3552 
L 295.355931 75.3552 
L 295.355931 74.990887 
L 295.654323 74.990887 
L 295.654323 74.626574 
L 295.870571 74.626574 
L 295.870571 74.262261 
L 296.466809 74.262261 
L 296.536256 73.533634 
L 296.643946 73.533634 
L 296.643946 73.169321 
L 296.97771 73.169321 
L 296.97771 72.805008 
L 297.231869 72.805008 
L 297.231869 72.440695 
L 297.654892 72.440695 
L 297.654892 72.076381 
L 298.094497 72.076381 
L 298.101303 71.347755 
L 298.381022 71.347755 
L 298.463536 70.619128 
L 298.642139 70.619128 
L 298.642139 70.254815 
L 299.146779 70.254815 
L 299.146779 69.890502 
L 299.448169 69.890502 
L 299.448169 69.526189 
L 300.036923 69.526189 
L 300.046977 68.797562 
L 300.531399 68.797562 
L 300.531399 68.433249 
L 300.93474 68.433249 
L 300.93474 68.068936 
L 301.31427 68.068936 
L 301.31427 67.704623 
L 302.190966 67.704623 
L 302.213672 66.611683 
L 302.827205 66.611683 
L 302.827205 66.24737 
L 303.639692 66.24737 
L 303.639692 65.883057 
L 303.753212 65.883057 
L 303.802954 65.15443 
L 304.31761 65.15443 
L 304.31761 64.790117 
L 304.620024 64.790117 
L 304.71273 63.697177 
L 304.819384 63.697177 
L 304.88842 62.604238 
L 305.504724 62.604238 
L 305.504724 62.239925 
L 306.066118 62.239925 
L 306.066118 61.875611 
L 307.209805 61.875611 
L 307.209805 61.511298 
L 307.579053 61.511298 
L 307.579053 61.146985 
L 307.866236 61.146985 
L 307.866236 60.782672 
L 308.39154 60.782672 
L 308.39154 60.418358 
L 308.743313 60.418358 
L 308.83602 59.689732 
L 309.028932 59.689732 
L 309.028932 59.325419 
L 309.530665 59.325419 
L 309.619194 57.868166 
L 310.416924 57.868166 
L 310.416924 57.503853 
L 311.06513 57.503853 
L 311.157836 56.775226 
L 311.177435 56.775226 
L 311.177435 56.410913 
L 311.546475 56.410913 
L 311.579405 55.682287 
L 311.823265 55.682287 
L 311.823265 55.317973 
L 311.961653 55.317973 
L 311.992267 54.589347 
L 312.760203 54.589347 
L 312.760203 54.225034 
L 313.079492 54.225034 
L 313.079492 53.860721 
L 313.742484 53.860721 
L 313.742484 53.496407 
L 313.870375 53.496407 
L 313.870375 53.132094 
L 314.569397 53.132094 
L 314.662103 52.039154 
L 315.29661 52.039154 
L 315.300725 51.310528 
L 315.669764 51.310528 
L 315.760581 50.581902 
L 316.0643 50.581902 
L 316.0643 50.217588 
L 316.422581 50.217588 
L 316.422581 49.853275 
L 316.744114 49.853275 
L 316.744114 49.488962 
L 317.461892 49.488962 
L 317.554599 48.760336 
L 317.622541 48.760336 
L 317.726706 48.031709 
L 317.935516 48.031709 
L 317.991581 47.303083 
L 318.748002 47.303083 
L 318.748002 46.938769 
L 319.4199 46.938769 
L 319.429586 46.210143 
L 319.568567 46.210143 
L 319.568567 45.84583 
L 319.809359 45.84583 
L 319.809359 45.481517 
L 319.936085 45.481517 
L 319.936085 45.117203 
L 320.534949 45.117203 
L 320.57874 44.388577 
L 321.126808 44.388577 
L 321.126808 44.024264 
L 321.495848 44.024264 
L 321.495848 43.659951 
L 321.741716 43.659951 
L 321.849996 42.931324 
L 322.047884 42.931324 
L 322.047884 42.567011 
L 322.318116 42.567011 
L 322.318116 42.202698 
L 322.461062 42.202698 
L 322.461062 41.838384 
L 322.70003 41.838384 
L 322.70003 41.474071 
L 322.860371 41.474071 
L 322.860371 41.109758 
L 324.019304 41.109758 
L 324.048454 40.381132 
L 324.171812 40.381132 
L 324.171812 40.016818 
L 324.388343 40.016818 
L 324.388343 39.652505 
L 325.245983 39.652505 
L 325.245983 39.288192 
L 325.908673 39.288192 
L 325.908673 38.923879 
L 326.430484 38.923879 
L 326.430484 38.559566 
L 326.82332 38.559566 
L 326.82332 38.195252 
L 327.100577 38.195252 
L 327.100577 37.830939 
L 327.676079 37.830939 
L 327.676079 37.466626 
L 328.138478 37.466626 
L 328.138478 37.102313 
L 328.791314 37.102313 
L 328.791314 36.737999 
L 329.145136 36.737999 
L 329.145136 36.373686 
L 330.568574 36.373686 
L 330.568574 36.009373 
L 331.212946 36.009373 
L 331.212946 35.64506 
L 332.614641 35.64506 
L 332.649403 34.916433 
L 333.617888 34.916433 
L 333.617888 34.55212 
L 334.890628 34.55212 
L 334.890628 34.187807 
L 335.130823 34.187807 
L 335.130823 33.823494 
L 335.541899 33.823494 
L 335.541899 33.45918 
L 335.943309 33.45918 
L 335.943309 33.094867 
L 337.131392 33.094867 
L 337.131392 32.730554 
L 337.741177 32.730554 
L 337.741177 32.366241 
L 339.254112 32.366241 
L 339.254112 32.001928 
L 339.513423 32.001928 
L 339.513423 31.637614 
L 340.062994 31.637614 
L 340.066599 30.908988 
L 341.254682 30.908988 
L 341.254682 30.544675 
L 341.575928 30.544675 
L 341.575928 30.180362 
L 342.388415 30.180362 
L 342.388415 29.816048 
L 343.567261 29.816048 
L 343.636712 28.723109 
L 344.295884 28.723109 
L 344.295884 28.358795 
L 345.080196 28.358795 
L 345.080196 27.994482 
L 345.892682 27.994482 
L 345.958529 27.265856 
L 346.459756 27.265856 
L 346.459756 26.901543 
L 347.080765 26.901543 
L 347.080765 26.537229 
L 347.972691 26.537229 
L 347.972691 26.172916 
L 348.10639 26.172916 
L 348.185925 25.44429 
L 348.419174 25.44429 
L 348.419174 25.079977 
L 348.785177 25.079977 
L 348.785177 24.715663 
L 349.462796 24.715663 
L 349.462796 24.35135 
L 349.97326 24.35135 
L 349.97326 23.987037 
L 350.74099 23.987037 
L 350.74099 23.622724 
L 352.355291 23.622724 
L 352.355291 23.25841 
L 353.027368 23.25841 
L 353.027368 22.894097 
L 354.245257 22.894097 
L 354.245257 22.529784 
L 357.088345 22.529784 
L 357.137752 21.801158 
L 367.948307 21.801158 
L 367.948307 21.436844 
L 374.047621 21.436844 
L 374.047621 21.072531 
L 396.245338 21.072531 
L 396.245338 20.708218 
L 446.847 20.708218 
L 446.847 20.708218 
" style="fill:none;stroke:#00bfbf;stroke-linecap:square;stroke-width:3;"/>
   </g>
   <g id="line2d_36">
    <path clip-path="url(#pb8171c6c20)" style="fill:none;stroke:#00bfbf;stroke-linecap:square;stroke-width:3;"/>
   </g>
   <g id="line2d_37">
    <path clip-path="url(#pb8171c6c20)" d="M 71.646973 92.129177 
L 198.098695 92.129177 
L 198.098695 91.730093 
L 220.548806 91.730093 
L 220.548806 91.331009 
L 229.993651 91.331009 
L 229.993651 90.931926 
L 233.693557 90.931926 
L 233.693557 90.532842 
L 234.634187 90.532842 
L 234.634187 90.133758 
L 234.992873 90.133758 
L 234.992873 89.734674 
L 236.649944 89.734674 
L 236.649944 89.33559 
L 240.386604 89.33559 
L 240.386604 88.936506 
L 242.58787 88.936506 
L 242.614225 88.138339 
L 244.289648 88.138339 
L 244.289648 87.739255 
L 245.281086 87.739255 
L 245.281086 87.340171 
L 246.484631 87.340171 
L 246.484631 86.941087 
L 248.220605 86.941087 
L 248.240233 86.142919 
L 250.345739 86.142919 
L 250.345739 85.743836 
L 251.368481 85.743836 
L 251.368481 85.344752 
L 252.443762 85.344752 
L 252.443762 84.945668 
L 253.551293 84.945668 
L 253.551293 84.546584 
L 254.214174 84.546584 
L 254.214174 84.1475 
L 256.112445 84.1475 
L 256.112445 83.748416 
L 257.084298 83.748416 
L 257.084298 83.349332 
L 257.442984 83.349332 
L 257.442984 82.950249 
L 259.100054 82.950249 
L 259.100054 82.551165 
L 259.359753 82.551165 
L 259.359753 82.152081 
L 260.694224 82.152081 
L 260.694224 81.752997 
L 262.836714 81.752997 
L 262.836714 81.353913 
L 265.064336 81.353913 
L 265.064336 80.954829 
L 265.588513 80.954829 
L 265.588513 80.555745 
L 266.739759 80.555745 
L 266.739759 80.156662 
L 268.221408 80.156662 
L 268.221408 79.757578 
L 268.934742 79.757578 
L 268.934742 79.358494 
L 270.229049 79.358494 
L 270.229049 78.95941 
L 270.587735 78.95941 
L 270.690344 77.762159 
L 272.244806 77.762159 
L 272.328448 76.963991 
L 272.489776 76.963991 
L 272.489776 76.564907 
L 272.722247 76.564907 
L 272.722247 76.165823 
L 273.152657 76.165823 
L 273.240691 75.367655 
L 273.497319 75.367655 
L 273.497319 74.968572 
L 273.818592 74.968572 
L 273.903572 74.170404 
L 274.482827 74.170404 
L 274.482827 73.77132 
L 274.626302 73.77132 
L 274.653878 72.973152 
L 275.050928 72.973152 
L 275.050928 72.574068 
L 275.316759 72.574068 
L 275.316759 72.174985 
L 275.801843 72.174985 
L 275.801843 71.775901 
L 275.981466 71.775901 
L 275.981466 71.376817 
L 277.176043 71.376817 
L 277.21503 70.578649 
L 278.209087 70.578649 
L 278.298236 69.780482 
L 279.04915 69.780482 
L 279.123362 68.982314 
L 279.482048 68.982314 
L 279.482048 68.58323 
L 279.88451 68.58323 
L 279.88451 68.184146 
L 280.462338 68.184146 
L 280.462338 67.785062 
L 281.139119 67.785062 
L 281.139119 67.385978 
L 281.816578 67.385978 
L 281.816578 66.986895 
L 282.079493 66.986895 
L 282.175264 66.188727 
L 282.240695 66.188727 
L 282.240695 65.789643 
L 283.815467 65.789643 
L 283.835095 64.592391 
L 284.875779 64.592391 
L 284.875779 64.193308 
L 286.881231 64.193308 
L 286.963343 63.39514 
L 287.1034 63.39514 
L 287.1034 62.996056 
L 287.239917 62.996056 
L 287.239917 62.596972 
L 287.568995 62.596972 
L 287.568995 62.197888 
L 288.700849 62.197888 
L 288.778823 61.399721 
L 288.896987 61.399721 
L 288.896987 61.000637 
L 289.36373 61.000637 
L 289.36373 60.601553 
L 289.796616 60.601553 
L 289.796616 60.202469 
L 290.973806 60.202469 
L 290.973806 59.803385 
L 291.262 59.803385 
L 291.266931 59.005218 
L 291.472039 59.005218 
L 291.472039 58.606134 
L 292.017846 58.606134 
L 292.017846 58.20705 
L 292.435802 58.20705 
L 292.435802 57.807966 
L 292.58918 57.807966 
L 292.633647 57.009798 
L 292.709781 57.009798 
L 292.729408 56.211631 
L 293.186716 56.211631 
L 293.186716 55.812547 
L 293.431033 55.812547 
L 293.431033 55.413463 
L 293.564785 55.413463 
L 293.667022 54.615295 
L 294.3157 54.615295 
L 294.3157 54.216211 
L 294.509308 54.216211 
L 294.599904 53.418044 
L 294.861269 53.418044 
L 294.861269 53.01896 
L 295.402997 53.01896 
L 295.422624 52.220792 
L 295.728887 52.220792 
L 295.728887 51.821708 
L 295.857657 51.821708 
L 295.857657 51.422624 
L 296.536692 51.422624 
L 296.536692 51.023541 
L 297.229716 51.023541 
L 297.229716 50.624457 
L 297.588402 50.624457 
L 297.588402 50.225373 
L 298.550873 50.225373 
L 298.550873 49.826289 
L 298.731674 49.826289 
L 298.731674 49.427205 
L 299.245472 49.427205 
L 299.245472 49.028121 
L 299.442907 49.028121 
L 299.442907 48.629037 
L 300.116364 48.629037 
L 300.116364 48.229954 
L 300.467649 48.229954 
L 300.487277 47.431786 
L 302.982132 47.431786 
L 302.982132 47.032702 
L 303.615525 47.032702 
L 303.615525 46.633618 
L 304.617204 46.633618 
L 304.617204 46.234534 
L 304.7569 46.234534 
L 304.7569 45.835451 
L 305.115586 45.835451 
L 305.209754 45.037283 
L 306.772657 45.037283 
L 306.772657 44.638199 
L 306.885177 44.638199 
L 306.885177 44.239115 
L 307.478004 44.239115 
L 307.478004 43.840031 
L 308.646874 43.840031 
L 308.646874 43.440947 
L 309.080159 43.440947 
L 309.080159 43.041864 
L 309.257739 43.041864 
L 309.257739 42.64278 
L 309.616425 42.64278 
L 309.616425 42.243696 
L 309.775857 42.243696 
L 309.775857 41.844612 
L 310.509317 41.844612 
L 310.509317 41.445528 
L 310.816134 41.445528 
L 310.835762 40.64736 
L 311.273496 40.64736 
L 311.300273 39.849193 
L 312.736938 39.849193 
L 312.736938 39.450109 
L 313.96401 39.450109 
L 313.96401 39.051025 
L 314.412361 39.051025 
L 314.412361 38.651941 
L 315.010156 38.651941 
L 315.010156 38.252857 
L 316.607344 38.252857 
L 316.607344 37.853774 
L 317.237778 37.853774 
L 317.237778 37.45469 
L 318.343318 37.45469 
L 318.38139 36.257438 
L 318.9132 36.257438 
L 318.9132 35.858354 
L 319.132304 35.858354 
L 319.132304 35.45927 
L 320.545492 35.45927 
L 320.545492 35.060187 
L 321.108183 35.060187 
L 321.108183 34.661103 
L 321.491194 34.661103 
L 321.491194 34.262019 
L 322.844158 34.262019 
L 322.863785 33.463851 
L 325.992034 33.463851 
L 325.992034 33.064767 
L 330.238756 33.064767 
L 330.238756 32.665683 
L 330.989671 32.665683 
L 330.989671 32.2666 
L 332.402858 32.2666 
L 332.402858 31.867516 
L 334.592462 31.867516 
L 334.592462 31.468432 
L 346.449829 31.468432 
L 346.449829 31.069348 
L 446.847 31.069348 
L 446.847 31.069348 
" style="fill:none;stroke:#bf00bf;stroke-linecap:square;stroke-width:3;"/>
   </g>
   <g id="line2d_38">
    <path clip-path="url(#pb8171c6c20)" style="fill:none;stroke:#bf00bf;stroke-linecap:square;stroke-width:3;"/>
   </g>
   <g id="line2d_39">
    <path clip-path="url(#pb8171c6c20)" d="M 71.646973 80.954829 
L 245.42263 80.954829 
L 245.42263 80.263084 
L 245.480006 80.263084 
L 245.480006 79.571339 
L 253.620146 79.571339 
L 253.620146 78.879593 
L 253.632805 78.879593 
L 253.632805 78.187848 
L 253.677522 78.187848 
L 253.677522 77.496103 
L 261.694001 77.496103 
L 261.694001 76.804357 
L 261.751377 76.804357 
L 261.751377 76.112612 
L 261.830321 76.112612 
L 261.830321 75.420867 
L 263.493824 75.420867 
L 263.493824 74.729121 
L 268.853964 74.729121 
L 268.853964 74.037376 
L 269.904176 74.037376 
L 269.904176 73.345631 
L 270.894631 73.345631 
L 270.894631 72.653885 
L 271.69134 72.653885 
L 271.69134 71.96214 
L 272.257052 71.96214 
L 272.257052 71.270395 
L 272.314428 71.270395 
L 272.314428 70.578649 
L 275.605167 70.578649 
L 275.605167 69.886904 
L 277.05148 69.886904 
L 277.05148 69.195159 
L 279.092147 69.195159 
L 279.092147 68.503413 
L 279.765196 68.503413 
L 279.765196 67.811668 
L 280.467227 67.811668 
L 280.467227 67.119923 
L 283.802683 67.119923 
L 283.802683 66.428177 
L 285.125335 66.428177 
L 285.125335 65.736432 
L 287.166003 65.736432 
L 287.166003 65.044687 
L 290.328246 65.044687 
L 290.328246 64.352941 
L 291.581624 64.352941 
L 291.581624 63.661196 
L 291.639 63.661196 
L 291.639 62.96945 
L 291.876539 62.96945 
L 291.876539 62.277705 
L 295.688386 62.277705 
L 295.688386 61.58596 
L 297.729054 61.58596 
L 297.729054 60.894214 
L 298.197214 60.894214 
L 298.197214 60.202469 
L 299.791799 60.202469 
L 299.791799 59.510724 
L 301.881511 59.510724 
L 301.881511 58.818978 
L 302.439589 58.818978 
L 302.439589 58.127233 
L 306.39473 58.127233 
L 306.39473 57.435488 
L 309.652818 57.435488 
L 309.652818 56.743742 
L 310.079027 56.743742 
L 310.079027 56.051997 
L 314.468586 56.051997 
L 314.468586 55.360252 
L 315.012958 55.360252 
L 315.012958 54.668506 
L 317.053626 54.668506 
L 317.053626 53.976761 
L 318.152882 53.976761 
L 318.152882 53.285016 
L 321.764161 53.285016 
L 321.764161 52.59327 
L 325.031637 52.59327 
L 325.031637 51.901525 
L 328.715933 51.901525 
L 328.715933 51.20978 
L 344.356209 51.20978 
L 344.356209 50.518034 
L 348.040505 50.518034 
L 348.040505 49.826289 
L 446.847 49.826289 
" style="fill:none;stroke:#ff0000;stroke-linecap:square;stroke-width:3;"/>
   </g>
   <g id="line2d_40">
    <path clip-path="url(#pb8171c6c20)" style="fill:none;stroke:#ff0000;stroke-linecap:square;stroke-width:3;"/>
   </g>
   <g id="line2d_41">
    <path clip-path="url(#pb8171c6c20)" d="M 259.246986 291.28 
L 259.246986 5.52 
" style="fill:none;stroke:#000000;stroke-linecap:square;stroke-width:1.5;"/>
   </g>
   <g id="line2d_42">
    <path clip-path="url(#pb8171c6c20)" d="M 71.646973 148.4 
L 446.847 148.4 
" style="fill:none;stroke:#000000;stroke-dasharray:2,3.3;stroke-dashoffset:0;stroke-width:2;"/>
   </g>
   <g id="patch_3">
    <path d="M 71.646973 291.28 
L 71.646973 5.52 
" style="fill:none;stroke:#000000;stroke-linecap:square;stroke-linejoin:miter;stroke-width:0.8;"/>
   </g>
   <g id="patch_4">
    <path d="M 446.847 291.28 
L 446.847 5.52 
" style="fill:none;stroke:#000000;stroke-linecap:square;stroke-linejoin:miter;stroke-width:0.8;"/>
   </g>
   <g id="patch_5">
    <path d="M 71.646973 291.28 
L 446.847 291.28 
" style="fill:none;stroke:#000000;stroke-linecap:square;stroke-linejoin:miter;stroke-width:0.8;"/>
   </g>
   <g id="patch_6">
    <path d="M 71.646973 5.52 
L 446.847 5.52 
" style="fill:none;stroke:#000000;stroke-linecap:square;stroke-linejoin:miter;stroke-width:0.8;"/>
   </g>
   <g id="text_9">
    <!-- f6-f9,5-D -->
    <defs>
     <path d="M 33.015625 40.375 
Q 26.375 40.375 22.484375 35.828125 
Q 18.609375 31.296875 18.609375 23.390625 
Q 18.609375 15.53125 22.484375 10.953125 
Q 26.375 6.390625 33.015625 6.390625 
Q 39.65625 6.390625 43.53125 10.953125 
Q 47.40625 15.53125 47.40625 23.390625 
Q 47.40625 31.296875 43.53125 35.828125 
Q 39.65625 40.375 33.015625 40.375 
z
M 52.59375 71.296875 
L 52.59375 62.3125 
Q 48.875 64.0625 45.09375 64.984375 
Q 41.3125 65.921875 37.59375 65.921875 
Q 27.828125 65.921875 22.671875 59.328125 
Q 17.53125 52.734375 16.796875 39.40625 
Q 19.671875 43.65625 24.015625 45.921875 
Q 28.375 48.1875 33.59375 48.1875 
Q 44.578125 48.1875 50.953125 41.515625 
Q 57.328125 34.859375 57.328125 23.390625 
Q 57.328125 12.15625 50.6875 5.359375 
Q 44.046875 -1.421875 33.015625 -1.421875 
Q 20.359375 -1.421875 13.671875 8.265625 
Q 6.984375 17.96875 6.984375 36.375 
Q 6.984375 53.65625 15.1875 63.9375 
Q 23.390625 74.21875 37.203125 74.21875 
Q 40.921875 74.21875 44.703125 73.484375 
Q 48.484375 72.75 52.59375 71.296875 
z
" id="DejaVuSans-36"/>
     <path d="M 10.984375 1.515625 
L 10.984375 10.5 
Q 14.703125 8.734375 18.5 7.8125 
Q 22.3125 6.890625 25.984375 6.890625 
Q 35.75 6.890625 40.890625 13.453125 
Q 46.046875 20.015625 46.78125 33.40625 
Q 43.953125 29.203125 39.59375 26.953125 
Q 35.25 24.703125 29.984375 24.703125 
Q 19.046875 24.703125 12.671875 31.3125 
Q 6.296875 37.9375 6.296875 49.421875 
Q 6.296875 60.640625 12.9375 67.421875 
Q 19.578125 74.21875 30.609375 74.21875 
Q 43.265625 74.21875 49.921875 64.515625 
Q 56.59375 54.828125 56.59375 36.375 
Q 56.59375 19.140625 48.40625 8.859375 
Q 40.234375 -1.421875 26.421875 -1.421875 
Q 22.703125 -1.421875 18.890625 -0.6875 
Q 15.09375 0.046875 10.984375 1.515625 
z
M 30.609375 32.421875 
Q 37.25 32.421875 41.125 36.953125 
Q 45.015625 41.5 45.015625 49.421875 
Q 45.015625 57.28125 41.125 61.84375 
Q 37.25 66.40625 30.609375 66.40625 
Q 23.96875 66.40625 20.09375 61.84375 
Q 16.21875 57.28125 16.21875 49.421875 
Q 16.21875 41.5 20.09375 36.953125 
Q 23.96875 32.421875 30.609375 32.421875 
z
" id="DejaVuSans-39"/>
     <path d="M 11.71875 12.40625 
L 22.015625 12.40625 
L 22.015625 4 
L 14.015625 -11.625 
L 7.71875 -11.625 
L 11.71875 4 
z
" id="DejaVuSans-2c"/>
     <path d="M 19.671875 64.796875 
L 19.671875 8.109375 
L 31.59375 8.109375 
Q 46.6875 8.109375 53.6875 14.9375 
Q 60.6875 21.78125 60.6875 36.53125 
Q 60.6875 51.171875 53.6875 57.984375 
Q 46.6875 64.796875 31.59375 64.796875 
z
M 9.8125 72.90625 
L 30.078125 72.90625 
Q 51.265625 72.90625 61.171875 64.09375 
Q 71.09375 55.28125 71.09375 36.53125 
Q 71.09375 17.671875 61.125 8.828125 
Q 51.171875 0 30.078125 0 
L 9.8125 0 
z
" id="DejaVuSans-44"/>
    </defs>
    <g transform="translate(350.899249 285.5648)scale(0.2 -0.2)">
     <use xlink:href="#DejaVuSans-66"/>
     <use x="35.205078" xlink:href="#DejaVuSans-36"/>
     <use x="98.828125" xlink:href="#DejaVuSans-2d"/>
     <use x="134.912109" xlink:href="#DejaVuSans-66"/>
     <use x="170.117188" xlink:href="#DejaVuSans-39"/>
     <use x="233.740234" xlink:href="#DejaVuSans-2c"/>
     <use x="265.527344" xlink:href="#DejaVuSans-35"/>
     <use x="329.150391" xlink:href="#DejaVuSans-2d"/>
     <use x="365.234375" xlink:href="#DejaVuSans-44"/>
    </g>
   </g>
   <g id="text_10">
    <!-- v0.0.0 -->
    <g style="fill:#808080;" transform="translate(243.565736 286.342713)scale(0.1 -0.1)">
     <use xlink:href="#DejaVuSans-76"/>
     <use x="59.179688" xlink:href="#DejaVuSans-30"/>
     <use x="122.802734" xlink:href="#DejaVuSans-2e"/>
     <use x="154.589844" xlink:href="#DejaVuSans-30"/>
     <use x="218.212891" xlink:href="#DejaVuSans-2e"/>
     <use x="250" xlink:href="#DejaVuSans-30"/>
    </g>
   </g>
   <g id="legend_1">
    <g id="patch_7">
     <path d="M 303.625125 281.28 
L 432.847 281.28 
Q 436.847 281.28 436.847 277.28 
L 436.847 161.855 
Q 436.847 157.855 432.847 157.855 
L 303.625125 157.855 
Q 299.625125 157.855 299.625125 161.855 
L 299.625125 277.28 
Q 299.625125 281.28 303.625125 281.28 
z
" style="fill:#ffffff;opacity:0.2;stroke:#cccccc;stroke-linejoin:miter;"/>
    </g>
    <g id="line2d_43">
     <path d="M 307.625125 174.051875 
L 347.625125 174.051875 
" style="fill:none;stroke:#000000;stroke-linecap:square;stroke-width:3;"/>
    </g>
    <g id="line2d_44"/>
    <g id="text_11">
     <!-- 1: 4/4 -->
     <defs>
      <path d="M 11.71875 12.40625 
L 22.015625 12.40625 
L 22.015625 0 
L 11.71875 0 
z
M 11.71875 51.703125 
L 22.015625 51.703125 
L 22.015625 39.3125 
L 11.71875 39.3125 
z
" id="DejaVuSans-3a"/>
      <path d="M 25.390625 72.90625 
L 33.6875 72.90625 
L 8.296875 -9.28125 
L 0 -9.28125 
z
" id="DejaVuSans-2f"/>
     </defs>
     <g transform="translate(363.625125 181.051875)scale(0.2 -0.2)">
      <use xlink:href="#DejaVuSans-31"/>
      <use x="63.623047" xlink:href="#DejaVuSans-3a"/>
      <use x="97.314453" xlink:href="#DejaVuSans-20"/>
      <use x="129.101562" xlink:href="#DejaVuSans-34"/>
      <use x="192.724609" xlink:href="#DejaVuSans-2f"/>
      <use x="226.416016" xlink:href="#DejaVuSans-34"/>
     </g>
    </g>
    <g id="line2d_45">
     <path d="M 307.625125 203.408125 
L 347.625125 203.408125 
" style="fill:none;stroke:#00bfbf;stroke-linecap:square;stroke-width:3;"/>
    </g>
    <g id="line2d_46"/>
    <g id="text_12">
     <!-- -1: 4/4 -->
     <g transform="translate(363.625125 210.408125)scale(0.2 -0.2)">
      <use xlink:href="#DejaVuSans-2d"/>
      <use x="36.083984" xlink:href="#DejaVuSans-31"/>
      <use x="99.707031" xlink:href="#DejaVuSans-3a"/>
      <use x="133.398438" xlink:href="#DejaVuSans-20"/>
      <use x="165.185547" xlink:href="#DejaVuSans-34"/>
      <use x="228.808594" xlink:href="#DejaVuSans-2f"/>
      <use x="262.5" xlink:href="#DejaVuSans-34"/>
     </g>
    </g>
    <g id="line2d_47">
     <path d="M 307.625125 232.764375 
L 347.625125 232.764375 
" style="fill:none;stroke:#bf00bf;stroke-linecap:square;stroke-width:3;"/>
    </g>
    <g id="line2d_48"/>
    <g id="text_13">
     <!-- -4: 4/2 -->
     <g transform="translate(363.625125 239.764375)scale(0.2 -0.2)">
      <use xlink:href="#DejaVuSans-2d"/>
      <use x="36.083984" xlink:href="#DejaVuSans-34"/>
      <use x="99.707031" xlink:href="#DejaVuSans-3a"/>
      <use x="133.398438" xlink:href="#DejaVuSans-20"/>
      <use x="165.185547" xlink:href="#DejaVuSans-34"/>
      <use x="228.808594" xlink:href="#DejaVuSans-2f"/>
      <use x="262.5" xlink:href="#DejaVuSans-32"/>
     </g>
    </g>
    <g id="line2d_49">
     <path d="M 307.625125 262.120625 
L 347.625125 262.120625 
" style="fill:none;stroke:#ff0000;stroke-linecap:square;stroke-width:3;"/>
    </g>
    <g id="line2d_50"/>
    <g id="text_14">
     <!-- -8: 3/2 -->
     <defs>
      <path d="M 40.578125 39.3125 
Q 47.65625 37.796875 51.625 33 
Q 55.609375 28.21875 55.609375 21.1875 
Q 55.609375 10.40625 48.1875 4.484375 
Q 40.765625 -1.421875 27.09375 -1.421875 
Q 22.515625 -1.421875 17.65625 -0.515625 
Q 12.796875 0.390625 7.625 2.203125 
L 7.625 11.71875 
Q 11.71875 9.328125 16.59375 8.109375 
Q 21.484375 6.890625 26.8125 6.890625 
Q 36.078125 6.890625 40.9375 10.546875 
Q 45.796875 14.203125 45.796875 21.1875 
Q 45.796875 27.640625 41.28125 31.265625 
Q 36.765625 34.90625 28.71875 34.90625 
L 20.21875 34.90625 
L 20.21875 43.015625 
L 29.109375 43.015625 
Q 36.375 43.015625 40.234375 45.921875 
Q 44.09375 48.828125 44.09375 54.296875 
Q 44.09375 59.90625 40.109375 62.90625 
Q 36.140625 65.921875 28.71875 65.921875 
Q 24.65625 65.921875 20.015625 65.03125 
Q 15.375 64.15625 9.8125 62.3125 
L 9.8125 71.09375 
Q 15.4375 72.65625 20.34375 73.4375 
Q 25.25 74.21875 29.59375 74.21875 
Q 40.828125 74.21875 47.359375 69.109375 
Q 53.90625 64.015625 53.90625 55.328125 
Q 53.90625 49.265625 50.4375 45.09375 
Q 46.96875 40.921875 40.578125 39.3125 
z
" id="DejaVuSans-33"/>
     </defs>
     <g transform="translate(363.625125 269.120625)scale(0.2 -0.2)">
      <use xlink:href="#DejaVuSans-2d"/>
      <use x="36.083984" xlink:href="#DejaVuSans-38"/>
      <use x="99.707031" xlink:href="#DejaVuSans-3a"/>
      <use x="133.398438" xlink:href="#DejaVuSans-20"/>
      <use x="165.185547" xlink:href="#DejaVuSans-33"/>
      <use x="228.808594" xlink:href="#DejaVuSans-2f"/>
      <use x="262.5" xlink:href="#DejaVuSans-32"/>
     </g>
    </g>
   </g>
  </g>
 </g>
 <defs>
  <clipPath id="pb8171c6c20">
   <rect height="285.76" width="375.200027" x="71.646973" y="5.52"/>
  </clipPath>
 </defs>
</svg>
