<?xml version="1.0" encoding="utf-8" standalone="no"?>
<!DOCTYPE svg PUBLIC "-//W3C//DTD SVG 1.1//EN"
  "http://www.w3.org/Graphics/SVG/1.1/DTD/svg11.dtd">
<!-- Created with matplotlib (http://matplotlib.org/) -->
<svg height="345.6pt" version="1.1" viewBox="0 0 460.8 345.6" width="460.8pt" xmlns="http://www.w3.org/2000/svg" xmlns:xlink="http://www.w3.org/1999/xlink">
 <defs>
  <style type="text/css">
*{stroke-linecap:butt;stroke-linejoin:round;}
  </style>
 </defs>
 <g id="figure_1">
  <g id="patch_1">
   <path d="M 0 345.6 
L 460.8 345.6 
L 460.8 0 
L 0 0 
z
" style="fill:#ffffff;"/>
  </g>
  <g id="axes_1">
   <g id="patch_2">
    <path d="M 41.464706 291.28 
L 450.672 291.28 
L 450.672 5.52 
L 41.464706 5.52 
z
" style="fill:#ffffff;"/>
   </g>
   <g id="matplotlib.axis_1">
    <g id="xtick_1">
     <g id="line2d_1">
      <path clip-path="url(#p7ac267d2f0)" d="M 81.596854 291.28 
L 81.596854 5.52 
" style="fill:none;stroke:#b0b0b0;stroke-linecap:square;stroke-width:0.8;"/>
     </g>
     <g id="line2d_2">
      <defs>
       <path d="M 0 0 
L 0 3.5 
" id="m0b9f553c42" style="stroke:#000000;stroke-width:0.8;"/>
      </defs>
      <g>
       <use style="stroke:#000000;stroke-width:0.8;" x="81.596854" xlink:href="#m0b9f553c42" y="291.28"/>
      </g>
     </g>
     <g id="text_1">
      <!-- -2 -->
      <defs>
       <path d="M 4.890625 31.390625 
L 31.203125 31.390625 
L 31.203125 23.390625 
L 4.890625 23.390625 
z
" id="DejaVuSans-2d"/>
       <path d="M 19.1875 8.296875 
L 53.609375 8.296875 
L 53.609375 0 
L 7.328125 0 
L 7.328125 8.296875 
Q 12.9375 14.109375 22.625 23.890625 
Q 32.328125 33.6875 34.8125 36.53125 
Q 39.546875 41.84375 41.421875 45.53125 
Q 43.3125 49.21875 43.3125 52.78125 
Q 43.3125 58.59375 39.234375 62.25 
Q 35.15625 65.921875 28.609375 65.921875 
Q 23.96875 65.921875 18.8125 64.3125 
Q 13.671875 62.703125 7.8125 59.421875 
L 7.8125 69.390625 
Q 13.765625 71.78125 18.9375 73 
Q 24.125 74.21875 28.421875 74.21875 
Q 39.75 74.21875 46.484375 68.546875 
Q 53.21875 62.890625 53.21875 53.421875 
Q 53.21875 48.921875 51.53125 44.890625 
Q 49.859375 40.875 45.40625 35.40625 
Q 44.1875 33.984375 37.640625 27.21875 
Q 31.109375 20.453125 19.1875 8.296875 
z
" id="DejaVuSans-32"/>
      </defs>
      <g transform="translate(71.626542 313.476875)scale(0.2 -0.2)">
       <use xlink:href="#DejaVuSans-2d"/>
       <use x="36.083984" xlink:href="#DejaVuSans-32"/>
      </g>
     </g>
    </g>
    <g id="xtick_2">
     <g id="line2d_3">
      <path clip-path="url(#p7ac267d2f0)" d="M 163.832604 291.28 
L 163.832604 5.52 
" style="fill:none;stroke:#b0b0b0;stroke-linecap:square;stroke-width:0.8;"/>
     </g>
     <g id="line2d_4">
      <g>
       <use style="stroke:#000000;stroke-width:0.8;" x="163.832604" xlink:href="#m0b9f553c42" y="291.28"/>
      </g>
     </g>
     <g id="text_2">
      <!-- -1 -->
      <defs>
       <path d="M 12.40625 8.296875 
L 28.515625 8.296875 
L 28.515625 63.921875 
L 10.984375 60.40625 
L 10.984375 69.390625 
L 28.421875 72.90625 
L 38.28125 72.90625 
L 38.28125 8.296875 
L 54.390625 8.296875 
L 54.390625 0 
L 12.40625 0 
z
" id="DejaVuSans-31"/>
      </defs>
      <g transform="translate(153.862291 313.476875)scale(0.2 -0.2)">
       <use xlink:href="#DejaVuSans-2d"/>
       <use x="36.083984" xlink:href="#DejaVuSans-31"/>
      </g>
     </g>
    </g>
    <g id="xtick_3">
     <g id="line2d_5">
      <path clip-path="url(#p7ac267d2f0)" d="M 246.068353 291.28 
L 246.068353 5.52 
" style="fill:none;stroke:#b0b0b0;stroke-linecap:square;stroke-width:0.8;"/>
     </g>
     <g id="line2d_6">
      <g>
       <use style="stroke:#000000;stroke-width:0.8;" x="246.068353" xlink:href="#m0b9f553c42" y="291.28"/>
      </g>
     </g>
     <g id="text_3">
      <!-- 0 -->
      <defs>
       <path d="M 31.78125 66.40625 
Q 24.171875 66.40625 20.328125 58.90625 
Q 16.5 51.421875 16.5 36.375 
Q 16.5 21.390625 20.328125 13.890625 
Q 24.171875 6.390625 31.78125 6.390625 
Q 39.453125 6.390625 43.28125 13.890625 
Q 47.125 21.390625 47.125 36.375 
Q 47.125 51.421875 43.28125 58.90625 
Q 39.453125 66.40625 31.78125 66.40625 
z
M 31.78125 74.21875 
Q 44.046875 74.21875 50.515625 64.515625 
Q 56.984375 54.828125 56.984375 36.375 
Q 56.984375 17.96875 50.515625 8.265625 
Q 44.046875 -1.421875 31.78125 -1.421875 
Q 19.53125 -1.421875 13.0625 8.265625 
Q 6.59375 17.96875 6.59375 36.375 
Q 6.59375 54.828125 13.0625 64.515625 
Q 19.53125 74.21875 31.78125 74.21875 
z
" id="DejaVuSans-30"/>
      </defs>
      <g transform="translate(239.705853 313.476875)scale(0.2 -0.2)">
       <use xlink:href="#DejaVuSans-30"/>
      </g>
     </g>
    </g>
    <g id="xtick_4">
     <g id="line2d_7">
      <path clip-path="url(#p7ac267d2f0)" d="M 328.304103 291.28 
L 328.304103 5.52 
" style="fill:none;stroke:#b0b0b0;stroke-linecap:square;stroke-width:0.8;"/>
     </g>
     <g id="line2d_8">
      <g>
       <use style="stroke:#000000;stroke-width:0.8;" x="328.304103" xlink:href="#m0b9f553c42" y="291.28"/>
      </g>
     </g>
     <g id="text_4">
      <!-- 1 -->
      <g transform="translate(321.941603 313.476875)scale(0.2 -0.2)">
       <use xlink:href="#DejaVuSans-31"/>
      </g>
     </g>
    </g>
    <g id="xtick_5">
     <g id="line2d_9">
      <path clip-path="url(#p7ac267d2f0)" d="M 410.539852 291.28 
L 410.539852 5.52 
" style="fill:none;stroke:#b0b0b0;stroke-linecap:square;stroke-width:0.8;"/>
     </g>
     <g id="line2d_10">
      <g>
       <use style="stroke:#000000;stroke-width:0.8;" x="410.539852" xlink:href="#m0b9f553c42" y="291.28"/>
      </g>
     </g>
     <g id="text_5">
      <!-- 2 -->
      <g transform="translate(404.177352 313.476875)scale(0.2 -0.2)">
       <use xlink:href="#DejaVuSans-32"/>
      </g>
     </g>
    </g>
    <g id="xtick_6">
     <g id="line2d_11">
      <defs>
       <path d="M 0 0 
L 0 2 
" id="me84096b062" style="stroke:#000000;stroke-width:0.6;"/>
      </defs>
      <g>
       <use style="stroke:#000000;stroke-width:0.6;" x="42.36043" xlink:href="#me84096b062" y="291.28"/>
      </g>
     </g>
    </g>
    <g id="xtick_7">
     <g id="line2d_12">
      <g>
       <use style="stroke:#000000;stroke-width:0.6;" x="56.841427" xlink:href="#me84096b062" y="291.28"/>
      </g>
     </g>
    </g>
    <g id="xtick_8">
     <g id="line2d_13">
      <g>
       <use style="stroke:#000000;stroke-width:0.6;" x="85.359756" xlink:href="#me84096b062" y="291.28"/>
      </g>
     </g>
     <g id="text_6">
      <!-- $\mathdefault{1.11111\times10^{-2}}$ -->
      <defs>
       <path d="M 10.6875 12.40625 
L 21 12.40625 
L 21 0 
L 10.6875 0 
z
" id="DejaVuSans-2e"/>
       <path d="M 70.125 53.71875 
L 47.796875 31.296875 
L 70.125 8.984375 
L 64.3125 3.078125 
L 41.890625 25.484375 
L 19.484375 3.078125 
L 13.71875 8.984375 
L 35.984375 31.296875 
L 13.71875 53.71875 
L 19.484375 59.625 
L 41.890625 37.203125 
L 64.3125 59.625 
z
" id="DejaVuSans-d7"/>
       <path d="M 10.59375 35.5 
L 73.1875 35.5 
L 73.1875 27.203125 
L 10.59375 27.203125 
z
" id="DejaVuSans-2212"/>
      </defs>
      <g transform="translate(8.259756 311.876875)scale(0.2 -0.2)">
       <use transform="translate(0 0.765625)" xlink:href="#DejaVuSans-31"/>
       <use transform="translate(63.623047 0.765625)" xlink:href="#DejaVuSans-2e"/>
       <use transform="translate(95.410156 0.765625)" xlink:href="#DejaVuSans-31"/>
       <use transform="translate(159.033203 0.765625)" xlink:href="#DejaVuSans-31"/>
       <use transform="translate(222.65625 0.765625)" xlink:href="#DejaVuSans-31"/>
       <use transform="translate(286.279297 0.765625)" xlink:href="#DejaVuSans-31"/>
       <use transform="translate(349.902344 0.765625)" xlink:href="#DejaVuSans-31"/>
       <use transform="translate(433.007812 0.765625)" xlink:href="#DejaVuSans-d7"/>
       <use transform="translate(536.279297 0.765625)" xlink:href="#DejaVuSans-31"/>
       <use transform="translate(599.902344 0.765625)" xlink:href="#DejaVuSans-30"/>
       <use transform="translate(664.482422 39.046875)scale(0.7)" xlink:href="#DejaVuSans-2212"/>
       <use transform="translate(723.134766 39.046875)scale(0.7)" xlink:href="#DejaVuSans-32"/>
      </g>
     </g>
    </g>
    <g id="xtick_9">
     <g id="line2d_14">
      <g>
       <use style="stroke:#000000;stroke-width:0.6;" x="89.566322" xlink:href="#me84096b062" y="291.28"/>
      </g>
     </g>
     <g id="text_7">
      <!-- $\mathdefault{1.25\times10^{-2}}$ -->
      <defs>
       <path d="M 10.796875 72.90625 
L 49.515625 72.90625 
L 49.515625 64.59375 
L 19.828125 64.59375 
L 19.828125 46.734375 
Q 21.96875 47.46875 24.109375 47.828125 
Q 26.265625 48.1875 28.421875 48.1875 
Q 40.625 48.1875 47.75 41.5 
Q 54.890625 34.8125 54.890625 23.390625 
Q 54.890625 11.625 47.5625 5.09375 
Q 40.234375 -1.421875 26.90625 -1.421875 
Q 22.3125 -1.421875 17.546875 -0.640625 
Q 12.796875 0.140625 7.71875 1.703125 
L 7.71875 11.625 
Q 12.109375 9.234375 16.796875 8.0625 
Q 21.484375 6.890625 26.703125 6.890625 
Q 35.15625 6.890625 40.078125 11.328125 
Q 45.015625 15.765625 45.015625 23.390625 
Q 45.015625 31 40.078125 35.4375 
Q 35.15625 39.890625 26.703125 39.890625 
Q 22.75 39.890625 18.8125 39.015625 
Q 14.890625 38.140625 10.796875 36.28125 
z
" id="DejaVuSans-35"/>
      </defs>
      <g transform="translate(31.566322 311.876875)scale(0.2 -0.2)">
       <use transform="translate(0 0.765625)" xlink:href="#DejaVuSans-31"/>
       <use transform="translate(63.623047 0.765625)" xlink:href="#DejaVuSans-2e"/>
       <use transform="translate(95.332031 0.765625)" xlink:href="#DejaVuSans-32"/>
       <use transform="translate(158.955078 0.765625)" xlink:href="#DejaVuSans-35"/>
       <use transform="translate(242.060547 0.765625)" xlink:href="#DejaVuSans-d7"/>
       <use transform="translate(345.332031 0.765625)" xlink:href="#DejaVuSans-31"/>
       <use transform="translate(408.955078 0.765625)" xlink:href="#DejaVuSans-30"/>
       <use transform="translate(473.535156 39.046875)scale(0.7)" xlink:href="#DejaVuSans-2212"/>
       <use transform="translate(532.1875 39.046875)scale(0.7)" xlink:href="#DejaVuSans-32"/>
      </g>
     </g>
    </g>
    <g id="xtick_10">
     <g id="line2d_15">
      <g>
       <use style="stroke:#000000;stroke-width:0.6;" x="94.335333" xlink:href="#me84096b062" y="291.28"/>
      </g>
     </g>
     <g id="text_8">
      <!-- $\mathdefault{1.42857\times10^{-2}}$ -->
      <defs>
       <path d="M 37.796875 64.3125 
L 12.890625 25.390625 
L 37.796875 25.390625 
z
M 35.203125 72.90625 
L 47.609375 72.90625 
L 47.609375 25.390625 
L 58.015625 25.390625 
L 58.015625 17.1875 
L 47.609375 17.1875 
L 47.609375 0 
L 37.796875 0 
L 37.796875 17.1875 
L 4.890625 17.1875 
L 4.890625 26.703125 
z
" id="DejaVuSans-34"/>
       <path d="M 31.78125 34.625 
Q 24.75 34.625 20.71875 30.859375 
Q 16.703125 27.09375 16.703125 20.515625 
Q 16.703125 13.921875 20.71875 10.15625 
Q 24.75 6.390625 31.78125 6.390625 
Q 38.8125 6.390625 42.859375 10.171875 
Q 46.921875 13.96875 46.921875 20.515625 
Q 46.921875 27.09375 42.890625 30.859375 
Q 38.875 34.625 31.78125 34.625 
z
M 21.921875 38.8125 
Q 15.578125 40.375 12.03125 44.71875 
Q 8.5 49.078125 8.5 55.328125 
Q 8.5 64.0625 14.71875 69.140625 
Q 20.953125 74.21875 31.78125 74.21875 
Q 42.671875 74.21875 48.875 69.140625 
Q 55.078125 64.0625 55.078125 55.328125 
Q 55.078125 49.078125 51.53125 44.71875 
Q 48 40.375 41.703125 38.8125 
Q 48.828125 37.15625 52.796875 32.3125 
Q 56.78125 27.484375 56.78125 20.515625 
Q 56.78125 9.90625 50.3125 4.234375 
Q 43.84375 -1.421875 31.78125 -1.421875 
Q 19.734375 -1.421875 13.25 4.234375 
Q 6.78125 9.90625 6.78125 20.515625 
Q 6.78125 27.484375 10.78125 32.3125 
Q 14.796875 37.15625 21.921875 38.8125 
z
M 18.3125 54.390625 
Q 18.3125 48.734375 21.84375 45.5625 
Q 25.390625 42.390625 31.78125 42.390625 
Q 38.140625 42.390625 41.71875 45.5625 
Q 45.3125 48.734375 45.3125 54.390625 
Q 45.3125 60.0625 41.71875 63.234375 
Q 38.140625 66.40625 31.78125 66.40625 
Q 25.390625 66.40625 21.84375 63.234375 
Q 18.3125 60.0625 18.3125 54.390625 
z
" id="DejaVuSans-38"/>
       <path d="M 8.203125 72.90625 
L 55.078125 72.90625 
L 55.078125 68.703125 
L 28.609375 0 
L 18.3125 0 
L 43.21875 64.59375 
L 8.203125 64.59375 
z
" id="DejaVuSans-37"/>
      </defs>
      <g transform="translate(17.235333 311.876875)scale(0.2 -0.2)">
       <use transform="translate(0 0.765625)" xlink:href="#DejaVuSans-31"/>
       <use transform="translate(63.623047 0.765625)" xlink:href="#DejaVuSans-2e"/>
       <use transform="translate(95.410156 0.765625)" xlink:href="#DejaVuSans-34"/>
       <use transform="translate(159.033203 0.765625)" xlink:href="#DejaVuSans-32"/>
       <use transform="translate(222.65625 0.765625)" xlink:href="#DejaVuSans-38"/>
       <use transform="translate(286.279297 0.765625)" xlink:href="#DejaVuSans-35"/>
       <use transform="translate(349.792969 0.765625)" xlink:href="#DejaVuSans-37"/>
       <use transform="translate(432.898438 0.765625)" xlink:href="#DejaVuSans-d7"/>
       <use transform="translate(536.169922 0.765625)" xlink:href="#DejaVuSans-31"/>
       <use transform="translate(599.792969 0.765625)" xlink:href="#DejaVuSans-30"/>
       <use transform="translate(664.373047 39.046875)scale(0.7)" xlink:href="#DejaVuSans-2212"/>
       <use transform="translate(723.025391 39.046875)scale(0.7)" xlink:href="#DejaVuSans-32"/>
      </g>
     </g>
    </g>
    <g id="xtick_11">
     <g id="line2d_16">
      <g>
       <use style="stroke:#000000;stroke-width:0.6;" x="99.840752" xlink:href="#me84096b062" y="291.28"/>
      </g>
     </g>
    </g>
    <g id="xtick_12">
     <g id="line2d_17">
      <g>
       <use style="stroke:#000000;stroke-width:0.6;" x="106.352281" xlink:href="#me84096b062" y="291.28"/>
      </g>
     </g>
    </g>
    <g id="xtick_13">
     <g id="line2d_18">
      <g>
       <use style="stroke:#000000;stroke-width:0.6;" x="114.321749" xlink:href="#me84096b062" y="291.28"/>
      </g>
     </g>
    </g>
    <g id="xtick_14">
     <g id="line2d_19">
      <g>
       <use style="stroke:#000000;stroke-width:0.6;" x="124.59618" xlink:href="#me84096b062" y="291.28"/>
      </g>
     </g>
    </g>
    <g id="xtick_15">
     <g id="line2d_20">
      <g>
       <use style="stroke:#000000;stroke-width:0.6;" x="139.077176" xlink:href="#me84096b062" y="291.28"/>
      </g>
     </g>
    </g>
    <g id="xtick_16">
     <g id="line2d_21">
      <g>
       <use style="stroke:#000000;stroke-width:0.6;" x="167.595505" xlink:href="#me84096b062" y="291.28"/>
      </g>
     </g>
     <g id="text_9">
      <!-- $\mathdefault{1.11111\times10^{-1}}$ -->
      <g transform="translate(90.495505 311.876875)scale(0.2 -0.2)">
       <use transform="translate(0 0.684375)" xlink:href="#DejaVuSans-31"/>
       <use transform="translate(63.623047 0.684375)" xlink:href="#DejaVuSans-2e"/>
       <use transform="translate(95.410156 0.684375)" xlink:href="#DejaVuSans-31"/>
       <use transform="translate(159.033203 0.684375)" xlink:href="#DejaVuSans-31"/>
       <use transform="translate(222.65625 0.684375)" xlink:href="#DejaVuSans-31"/>
       <use transform="translate(286.279297 0.684375)" xlink:href="#DejaVuSans-31"/>
       <use transform="translate(349.902344 0.684375)" xlink:href="#DejaVuSans-31"/>
       <use transform="translate(433.007812 0.684375)" xlink:href="#DejaVuSans-d7"/>
       <use transform="translate(536.279297 0.684375)" xlink:href="#DejaVuSans-31"/>
       <use transform="translate(599.902344 0.684375)" xlink:href="#DejaVuSans-30"/>
       <use transform="translate(664.482422 38.965625)scale(0.7)" xlink:href="#DejaVuSans-2212"/>
       <use transform="translate(723.134766 38.965625)scale(0.7)" xlink:href="#DejaVuSans-31"/>
      </g>
     </g>
    </g>
    <g id="xtick_17">
     <g id="line2d_22">
      <g>
       <use style="stroke:#000000;stroke-width:0.6;" x="171.802071" xlink:href="#me84096b062" y="291.28"/>
      </g>
     </g>
     <g id="text_10">
      <!-- $\mathdefault{1.25\times10^{-1}}$ -->
      <g transform="translate(113.802071 311.876875)scale(0.2 -0.2)">
       <use transform="translate(0 0.684375)" xlink:href="#DejaVuSans-31"/>
       <use transform="translate(63.623047 0.684375)" xlink:href="#DejaVuSans-2e"/>
       <use transform="translate(95.332031 0.684375)" xlink:href="#DejaVuSans-32"/>
       <use transform="translate(158.955078 0.684375)" xlink:href="#DejaVuSans-35"/>
       <use transform="translate(242.060547 0.684375)" xlink:href="#DejaVuSans-d7"/>
       <use transform="translate(345.332031 0.684375)" xlink:href="#DejaVuSans-31"/>
       <use transform="translate(408.955078 0.684375)" xlink:href="#DejaVuSans-30"/>
       <use transform="translate(473.535156 38.965625)scale(0.7)" xlink:href="#DejaVuSans-2212"/>
       <use transform="translate(532.1875 38.965625)scale(0.7)" xlink:href="#DejaVuSans-31"/>
      </g>
     </g>
    </g>
    <g id="xtick_18">
     <g id="line2d_23">
      <g>
       <use style="stroke:#000000;stroke-width:0.6;" x="176.571082" xlink:href="#me84096b062" y="291.28"/>
      </g>
     </g>
     <g id="text_11">
      <!-- $\mathdefault{1.42857\times10^{-1}}$ -->
      <g transform="translate(99.471082 311.876875)scale(0.2 -0.2)">
       <use transform="translate(0 0.684375)" xlink:href="#DejaVuSans-31"/>
       <use transform="translate(63.623047 0.684375)" xlink:href="#DejaVuSans-2e"/>
       <use transform="translate(95.410156 0.684375)" xlink:href="#DejaVuSans-34"/>
       <use transform="translate(159.033203 0.684375)" xlink:href="#DejaVuSans-32"/>
       <use transform="translate(222.65625 0.684375)" xlink:href="#DejaVuSans-38"/>
       <use transform="translate(286.279297 0.684375)" xlink:href="#DejaVuSans-35"/>
       <use transform="translate(349.792969 0.684375)" xlink:href="#DejaVuSans-37"/>
       <use transform="translate(432.898438 0.684375)" xlink:href="#DejaVuSans-d7"/>
       <use transform="translate(536.169922 0.684375)" xlink:href="#DejaVuSans-31"/>
       <use transform="translate(599.792969 0.684375)" xlink:href="#DejaVuSans-30"/>
       <use transform="translate(664.373047 38.965625)scale(0.7)" xlink:href="#DejaVuSans-2212"/>
       <use transform="translate(723.025391 38.965625)scale(0.7)" xlink:href="#DejaVuSans-31"/>
      </g>
     </g>
    </g>
    <g id="xtick_19">
     <g id="line2d_24">
      <g>
       <use style="stroke:#000000;stroke-width:0.6;" x="182.076502" xlink:href="#me84096b062" y="291.28"/>
      </g>
     </g>
    </g>
    <g id="xtick_20">
     <g id="line2d_25">
      <g>
       <use style="stroke:#000000;stroke-width:0.6;" x="188.588031" xlink:href="#me84096b062" y="291.28"/>
      </g>
     </g>
    </g>
    <g id="xtick_21">
     <g id="line2d_26">
      <g>
       <use style="stroke:#000000;stroke-width:0.6;" x="196.557498" xlink:href="#me84096b062" y="291.28"/>
      </g>
     </g>
    </g>
    <g id="xtick_22">
     <g id="line2d_27">
      <g>
       <use style="stroke:#000000;stroke-width:0.6;" x="206.831929" xlink:href="#me84096b062" y="291.28"/>
      </g>
     </g>
    </g>
    <g id="xtick_23">
     <g id="line2d_28">
      <g>
       <use style="stroke:#000000;stroke-width:0.6;" x="221.312926" xlink:href="#me84096b062" y="291.28"/>
      </g>
     </g>
    </g>
    <g id="xtick_24">
     <g id="line2d_29">
      <g>
       <use style="stroke:#000000;stroke-width:0.6;" x="270.82378" xlink:href="#me84096b062" y="291.28"/>
      </g>
     </g>
    </g>
    <g id="xtick_25">
     <g id="line2d_30">
      <g>
       <use style="stroke:#000000;stroke-width:0.6;" x="285.304777" xlink:href="#me84096b062" y="291.28"/>
      </g>
     </g>
    </g>
    <g id="xtick_26">
     <g id="line2d_31">
      <g>
       <use style="stroke:#000000;stroke-width:0.6;" x="295.579208" xlink:href="#me84096b062" y="291.28"/>
      </g>
     </g>
    </g>
    <g id="xtick_27">
     <g id="line2d_32">
      <g>
       <use style="stroke:#000000;stroke-width:0.6;" x="303.548675" xlink:href="#me84096b062" y="291.28"/>
      </g>
     </g>
    </g>
    <g id="xtick_28">
     <g id="line2d_33">
      <g>
       <use style="stroke:#000000;stroke-width:0.6;" x="310.060204" xlink:href="#me84096b062" y="291.28"/>
      </g>
     </g>
    </g>
    <g id="xtick_29">
     <g id="line2d_34">
      <g>
       <use style="stroke:#000000;stroke-width:0.6;" x="315.565624" xlink:href="#me84096b062" y="291.28"/>
      </g>
     </g>
    </g>
    <g id="xtick_30">
     <g id="line2d_35">
      <g>
       <use style="stroke:#000000;stroke-width:0.6;" x="320.334635" xlink:href="#me84096b062" y="291.28"/>
      </g>
     </g>
    </g>
    <g id="xtick_31">
     <g id="line2d_36">
      <g>
       <use style="stroke:#000000;stroke-width:0.6;" x="324.541201" xlink:href="#me84096b062" y="291.28"/>
      </g>
     </g>
    </g>
    <g id="xtick_32">
     <g id="line2d_37">
      <g>
       <use style="stroke:#000000;stroke-width:0.6;" x="353.05953" xlink:href="#me84096b062" y="291.28"/>
      </g>
     </g>
    </g>
    <g id="xtick_33">
     <g id="line2d_38">
      <g>
       <use style="stroke:#000000;stroke-width:0.6;" x="367.540527" xlink:href="#me84096b062" y="291.28"/>
      </g>
     </g>
    </g>
    <g id="xtick_34">
     <g id="line2d_39">
      <g>
       <use style="stroke:#000000;stroke-width:0.6;" x="377.814957" xlink:href="#me84096b062" y="291.28"/>
      </g>
     </g>
    </g>
    <g id="xtick_35">
     <g id="line2d_40">
      <g>
       <use style="stroke:#000000;stroke-width:0.6;" x="385.784425" xlink:href="#me84096b062" y="291.28"/>
      </g>
     </g>
    </g>
    <g id="xtick_36">
     <g id="line2d_41">
      <g>
       <use style="stroke:#000000;stroke-width:0.6;" x="392.295954" xlink:href="#me84096b062" y="291.28"/>
      </g>
     </g>
    </g>
    <g id="xtick_37">
     <g id="line2d_42">
      <g>
       <use style="stroke:#000000;stroke-width:0.6;" x="397.801373" xlink:href="#me84096b062" y="291.28"/>
      </g>
     </g>
    </g>
    <g id="xtick_38">
     <g id="line2d_43">
      <g>
       <use style="stroke:#000000;stroke-width:0.6;" x="402.570385" xlink:href="#me84096b062" y="291.28"/>
      </g>
     </g>
    </g>
    <g id="xtick_39">
     <g id="line2d_44">
      <g>
       <use style="stroke:#000000;stroke-width:0.6;" x="406.776951" xlink:href="#me84096b062" y="291.28"/>
      </g>
     </g>
    </g>
    <g id="xtick_40">
     <g id="line2d_45">
      <g>
       <use style="stroke:#000000;stroke-width:0.6;" x="435.295279" xlink:href="#me84096b062" y="291.28"/>
      </g>
     </g>
    </g>
    <g id="xtick_41">
     <g id="line2d_46">
      <g>
       <use style="stroke:#000000;stroke-width:0.6;" x="449.776276" xlink:href="#me84096b062" y="291.28"/>
      </g>
     </g>
    </g>
    <g id="text_12">
     <!-- log10 of FEvals ratio -->
     <defs>
      <path d="M 9.421875 75.984375 
L 18.40625 75.984375 
L 18.40625 0 
L 9.421875 0 
z
" id="DejaVuSans-6c"/>
      <path d="M 30.609375 48.390625 
Q 23.390625 48.390625 19.1875 42.75 
Q 14.984375 37.109375 14.984375 27.296875 
Q 14.984375 17.484375 19.15625 11.84375 
Q 23.34375 6.203125 30.609375 6.203125 
Q 37.796875 6.203125 41.984375 11.859375 
Q 46.1875 17.53125 46.1875 27.296875 
Q 46.1875 37.015625 41.984375 42.703125 
Q 37.796875 48.390625 30.609375 48.390625 
z
M 30.609375 56 
Q 42.328125 56 49.015625 48.375 
Q 55.71875 40.765625 55.71875 27.296875 
Q 55.71875 13.875 49.015625 6.21875 
Q 42.328125 -1.421875 30.609375 -1.421875 
Q 18.84375 -1.421875 12.171875 6.21875 
Q 5.515625 13.875 5.515625 27.296875 
Q 5.515625 40.765625 12.171875 48.375 
Q 18.84375 56 30.609375 56 
z
" id="DejaVuSans-6f"/>
      <path d="M 45.40625 27.984375 
Q 45.40625 37.75 41.375 43.109375 
Q 37.359375 48.484375 30.078125 48.484375 
Q 22.859375 48.484375 18.828125 43.109375 
Q 14.796875 37.75 14.796875 27.984375 
Q 14.796875 18.265625 18.828125 12.890625 
Q 22.859375 7.515625 30.078125 7.515625 
Q 37.359375 7.515625 41.375 12.890625 
Q 45.40625 18.265625 45.40625 27.984375 
z
M 54.390625 6.78125 
Q 54.390625 -7.171875 48.1875 -13.984375 
Q 42 -20.796875 29.203125 -20.796875 
Q 24.46875 -20.796875 20.265625 -20.09375 
Q 16.0625 -19.390625 12.109375 -17.921875 
L 12.109375 -9.1875 
Q 16.0625 -11.328125 19.921875 -12.34375 
Q 23.78125 -13.375 27.78125 -13.375 
Q 36.625 -13.375 41.015625 -8.765625 
Q 45.40625 -4.15625 45.40625 5.171875 
L 45.40625 9.625 
Q 42.625 4.78125 38.28125 2.390625 
Q 33.9375 0 27.875 0 
Q 17.828125 0 11.671875 7.65625 
Q 5.515625 15.328125 5.515625 27.984375 
Q 5.515625 40.671875 11.671875 48.328125 
Q 17.828125 56 27.875 56 
Q 33.9375 56 38.28125 53.609375 
Q 42.625 51.21875 45.40625 46.390625 
L 45.40625 54.6875 
L 54.390625 54.6875 
z
" id="DejaVuSans-67"/>
      <path id="DejaVuSans-20"/>
      <path d="M 37.109375 75.984375 
L 37.109375 68.5 
L 28.515625 68.5 
Q 23.6875 68.5 21.796875 66.546875 
Q 19.921875 64.59375 19.921875 59.515625 
L 19.921875 54.6875 
L 34.71875 54.6875 
L 34.71875 47.703125 
L 19.921875 47.703125 
L 19.921875 0 
L 10.890625 0 
L 10.890625 47.703125 
L 2.296875 47.703125 
L 2.296875 54.6875 
L 10.890625 54.6875 
L 10.890625 58.5 
Q 10.890625 67.625 15.140625 71.796875 
Q 19.390625 75.984375 28.609375 75.984375 
z
" id="DejaVuSans-66"/>
      <path d="M 9.8125 72.90625 
L 51.703125 72.90625 
L 51.703125 64.59375 
L 19.671875 64.59375 
L 19.671875 43.109375 
L 48.578125 43.109375 
L 48.578125 34.8125 
L 19.671875 34.8125 
L 19.671875 0 
L 9.8125 0 
z
" id="DejaVuSans-46"/>
      <path d="M 9.8125 72.90625 
L 55.90625 72.90625 
L 55.90625 64.59375 
L 19.671875 64.59375 
L 19.671875 43.015625 
L 54.390625 43.015625 
L 54.390625 34.71875 
L 19.671875 34.71875 
L 19.671875 8.296875 
L 56.78125 8.296875 
L 56.78125 0 
L 9.8125 0 
z
" id="DejaVuSans-45"/>
      <path d="M 2.984375 54.6875 
L 12.5 54.6875 
L 29.59375 8.796875 
L 46.6875 54.6875 
L 56.203125 54.6875 
L 35.6875 0 
L 23.484375 0 
z
" id="DejaVuSans-76"/>
      <path d="M 34.28125 27.484375 
Q 23.390625 27.484375 19.1875 25 
Q 14.984375 22.515625 14.984375 16.5 
Q 14.984375 11.71875 18.140625 8.90625 
Q 21.296875 6.109375 26.703125 6.109375 
Q 34.1875 6.109375 38.703125 11.40625 
Q 43.21875 16.703125 43.21875 25.484375 
L 43.21875 27.484375 
z
M 52.203125 31.203125 
L 52.203125 0 
L 43.21875 0 
L 43.21875 8.296875 
Q 40.140625 3.328125 35.546875 0.953125 
Q 30.953125 -1.421875 24.3125 -1.421875 
Q 15.921875 -1.421875 10.953125 3.296875 
Q 6 8.015625 6 15.921875 
Q 6 25.140625 12.171875 29.828125 
Q 18.359375 34.515625 30.609375 34.515625 
L 43.21875 34.515625 
L 43.21875 35.40625 
Q 43.21875 41.609375 39.140625 45 
Q 35.0625 48.390625 27.6875 48.390625 
Q 23 48.390625 18.546875 47.265625 
Q 14.109375 46.140625 10.015625 43.890625 
L 10.015625 52.203125 
Q 14.9375 54.109375 19.578125 55.046875 
Q 24.21875 56 28.609375 56 
Q 40.484375 56 46.34375 49.84375 
Q 52.203125 43.703125 52.203125 31.203125 
z
" id="DejaVuSans-61"/>
      <path d="M 44.28125 53.078125 
L 44.28125 44.578125 
Q 40.484375 46.53125 36.375 47.5 
Q 32.28125 48.484375 27.875 48.484375 
Q 21.1875 48.484375 17.84375 46.4375 
Q 14.5 44.390625 14.5 40.28125 
Q 14.5 37.15625 16.890625 35.375 
Q 19.28125 33.59375 26.515625 31.984375 
L 29.59375 31.296875 
Q 39.15625 29.25 43.1875 25.515625 
Q 47.21875 21.78125 47.21875 15.09375 
Q 47.21875 7.46875 41.1875 3.015625 
Q 35.15625 -1.421875 24.609375 -1.421875 
Q 20.21875 -1.421875 15.453125 -0.5625 
Q 10.6875 0.296875 5.421875 2 
L 5.421875 11.28125 
Q 10.40625 8.6875 15.234375 7.390625 
Q 20.0625 6.109375 24.8125 6.109375 
Q 31.15625 6.109375 34.5625 8.28125 
Q 37.984375 10.453125 37.984375 14.40625 
Q 37.984375 18.0625 35.515625 20.015625 
Q 33.0625 21.96875 24.703125 23.78125 
L 21.578125 24.515625 
Q 13.234375 26.265625 9.515625 29.90625 
Q 5.8125 33.546875 5.8125 39.890625 
Q 5.8125 47.609375 11.28125 51.796875 
Q 16.75 56 26.8125 56 
Q 31.78125 56 36.171875 55.265625 
Q 40.578125 54.546875 44.28125 53.078125 
z
" id="DejaVuSans-73"/>
      <path d="M 41.109375 46.296875 
Q 39.59375 47.171875 37.8125 47.578125 
Q 36.03125 48 33.890625 48 
Q 26.265625 48 22.1875 43.046875 
Q 18.109375 38.09375 18.109375 28.8125 
L 18.109375 0 
L 9.078125 0 
L 9.078125 54.6875 
L 18.109375 54.6875 
L 18.109375 46.1875 
Q 20.953125 51.171875 25.484375 53.578125 
Q 30.03125 56 36.53125 56 
Q 37.453125 56 38.578125 55.875 
Q 39.703125 55.765625 41.0625 55.515625 
z
" id="DejaVuSans-72"/>
      <path d="M 18.3125 70.21875 
L 18.3125 54.6875 
L 36.8125 54.6875 
L 36.8125 47.703125 
L 18.3125 47.703125 
L 18.3125 18.015625 
Q 18.3125 11.328125 20.140625 9.421875 
Q 21.96875 7.515625 27.59375 7.515625 
L 36.8125 7.515625 
L 36.8125 0 
L 27.59375 0 
Q 17.1875 0 13.234375 3.875 
Q 9.28125 7.765625 9.28125 18.015625 
L 9.28125 47.703125 
L 2.6875 47.703125 
L 2.6875 54.6875 
L 9.28125 54.6875 
L 9.28125 70.21875 
z
" id="DejaVuSans-74"/>
      <path d="M 9.421875 54.6875 
L 18.40625 54.6875 
L 18.40625 0 
L 9.421875 0 
z
M 9.421875 75.984375 
L 18.40625 75.984375 
L 18.40625 64.59375 
L 9.421875 64.59375 
z
" id="DejaVuSans-69"/>
     </defs>
     <g transform="translate(143.763666 336.833125)scale(0.2 -0.2)">
      <use xlink:href="#DejaVuSans-6c"/>
      <use x="27.783203" xlink:href="#DejaVuSans-6f"/>
      <use x="88.964844" xlink:href="#DejaVuSans-67"/>
      <use x="152.441406" xlink:href="#DejaVuSans-31"/>
      <use x="216.064453" xlink:href="#DejaVuSans-30"/>
      <use x="279.6875" xlink:href="#DejaVuSans-20"/>
      <use x="311.474609" xlink:href="#DejaVuSans-6f"/>
      <use x="372.65625" xlink:href="#DejaVuSans-66"/>
      <use x="407.861328" xlink:href="#DejaVuSans-20"/>
      <use x="439.648438" xlink:href="#DejaVuSans-46"/>
      <use x="497.167969" xlink:href="#DejaVuSans-45"/>
      <use x="560.351562" xlink:href="#DejaVuSans-76"/>
      <use x="619.53125" xlink:href="#DejaVuSans-61"/>
      <use x="680.810547" xlink:href="#DejaVuSans-6c"/>
      <use x="708.59375" xlink:href="#DejaVuSans-73"/>
      <use x="760.693359" xlink:href="#DejaVuSans-20"/>
      <use x="792.480469" xlink:href="#DejaVuSans-72"/>
      <use x="833.59375" xlink:href="#DejaVuSans-61"/>
      <use x="894.873047" xlink:href="#DejaVuSans-74"/>
      <use x="934.082031" xlink:href="#DejaVuSans-69"/>
      <use x="961.865234" xlink:href="#DejaVuSans-6f"/>
     </g>
    </g>
   </g>
   <g id="matplotlib.axis_2">
    <g id="ytick_1">
     <g id="line2d_47">
      <path clip-path="url(#p7ac267d2f0)" d="M 41.464706 288.478431 
L 450.672 288.478431 
" style="fill:none;stroke:#b0b0b0;stroke-linecap:square;stroke-width:0.8;"/>
     </g>
     <g id="line2d_48">
      <defs>
       <path d="M 0 0 
L -3.5 0 
" id="m70e9cdadd4" style="stroke:#000000;stroke-width:0.8;"/>
      </defs>
      <g>
       <use style="stroke:#000000;stroke-width:0.8;" x="41.464706" xlink:href="#m70e9cdadd4" y="288.478431"/>
      </g>
     </g>
    </g>
    <g id="ytick_2">
     <g id="line2d_49">
      <path clip-path="url(#p7ac267d2f0)" d="M 41.464706 218.439216 
L 450.672 218.439216 
" style="fill:none;stroke:#b0b0b0;stroke-linecap:square;stroke-width:0.8;"/>
     </g>
     <g id="line2d_50">
      <g>
       <use style="stroke:#000000;stroke-width:0.8;" x="41.464706" xlink:href="#m70e9cdadd4" y="218.439216"/>
      </g>
     </g>
    </g>
    <g id="ytick_3">
     <g id="line2d_51">
      <path clip-path="url(#p7ac267d2f0)" d="M 41.464706 148.4 
L 450.672 148.4 
" style="fill:none;stroke:#b0b0b0;stroke-linecap:square;stroke-width:0.8;"/>
     </g>
     <g id="line2d_52">
      <g>
       <use style="stroke:#000000;stroke-width:0.8;" x="41.464706" xlink:href="#m70e9cdadd4" y="148.4"/>
      </g>
     </g>
    </g>
    <g id="ytick_4">
     <g id="line2d_53">
      <path clip-path="url(#p7ac267d2f0)" d="M 41.464706 78.360784 
L 450.672 78.360784 
" style="fill:none;stroke:#b0b0b0;stroke-linecap:square;stroke-width:0.8;"/>
     </g>
     <g id="line2d_54">
      <g>
       <use style="stroke:#000000;stroke-width:0.8;" x="41.464706" xlink:href="#m70e9cdadd4" y="78.360784"/>
      </g>
     </g>
    </g>
    <g id="ytick_5">
     <g id="line2d_55">
      <path clip-path="url(#p7ac267d2f0)" d="M 41.464706 8.321569 
L 450.672 8.321569 
" style="fill:none;stroke:#b0b0b0;stroke-linecap:square;stroke-width:0.8;"/>
     </g>
     <g id="line2d_56">
      <g>
       <use style="stroke:#000000;stroke-width:0.8;" x="41.464706" xlink:href="#m70e9cdadd4" y="8.321569"/>
      </g>
     </g>
    </g>
    <g id="text_13">
     <!-- proportion of trials -->
     <defs>
      <path d="M 18.109375 8.203125 
L 18.109375 -20.796875 
L 9.078125 -20.796875 
L 9.078125 54.6875 
L 18.109375 54.6875 
L 18.109375 46.390625 
Q 20.953125 51.265625 25.265625 53.625 
Q 29.59375 56 35.59375 56 
Q 45.5625 56 51.78125 48.09375 
Q 58.015625 40.1875 58.015625 27.296875 
Q 58.015625 14.40625 51.78125 6.484375 
Q 45.5625 -1.421875 35.59375 -1.421875 
Q 29.59375 -1.421875 25.265625 0.953125 
Q 20.953125 3.328125 18.109375 8.203125 
z
M 48.6875 27.296875 
Q 48.6875 37.203125 44.609375 42.84375 
Q 40.53125 48.484375 33.40625 48.484375 
Q 26.265625 48.484375 22.1875 42.84375 
Q 18.109375 37.203125 18.109375 27.296875 
Q 18.109375 17.390625 22.1875 11.75 
Q 26.265625 6.109375 33.40625 6.109375 
Q 40.53125 6.109375 44.609375 11.75 
Q 48.6875 17.390625 48.6875 27.296875 
z
" id="DejaVuSans-70"/>
      <path d="M 54.890625 33.015625 
L 54.890625 0 
L 45.90625 0 
L 45.90625 32.71875 
Q 45.90625 40.484375 42.875 44.328125 
Q 39.84375 48.1875 33.796875 48.1875 
Q 26.515625 48.1875 22.3125 43.546875 
Q 18.109375 38.921875 18.109375 30.90625 
L 18.109375 0 
L 9.078125 0 
L 9.078125 54.6875 
L 18.109375 54.6875 
L 18.109375 46.1875 
Q 21.34375 51.125 25.703125 53.5625 
Q 30.078125 56 35.796875 56 
Q 45.21875 56 50.046875 50.171875 
Q 54.890625 44.34375 54.890625 33.015625 
z
" id="DejaVuSans-6e"/>
     </defs>
     <g transform="translate(26.305331 241.628125)rotate(-90)scale(0.2 -0.2)">
      <use xlink:href="#DejaVuSans-70"/>
      <use x="63.476562" xlink:href="#DejaVuSans-72"/>
      <use x="104.558594" xlink:href="#DejaVuSans-6f"/>
      <use x="165.740234" xlink:href="#DejaVuSans-70"/>
      <use x="229.216797" xlink:href="#DejaVuSans-6f"/>
      <use x="290.398438" xlink:href="#DejaVuSans-72"/>
      <use x="331.511719" xlink:href="#DejaVuSans-74"/>
      <use x="370.720703" xlink:href="#DejaVuSans-69"/>
      <use x="398.503906" xlink:href="#DejaVuSans-6f"/>
      <use x="459.685547" xlink:href="#DejaVuSans-6e"/>
      <use x="523.064453" xlink:href="#DejaVuSans-20"/>
      <use x="554.851562" xlink:href="#DejaVuSans-6f"/>
      <use x="616.033203" xlink:href="#DejaVuSans-66"/>
      <use x="651.238281" xlink:href="#DejaVuSans-20"/>
      <use x="683.025391" xlink:href="#DejaVuSans-74"/>
      <use x="722.234375" xlink:href="#DejaVuSans-72"/>
      <use x="763.347656" xlink:href="#DejaVuSans-69"/>
      <use x="791.130859" xlink:href="#DejaVuSans-61"/>
      <use x="852.410156" xlink:href="#DejaVuSans-6c"/>
      <use x="880.193359" xlink:href="#DejaVuSans-73"/>
     </g>
    </g>
   </g>
   <g id="line2d_57">
    <path clip-path="url(#p7ac267d2f0)" d="M 41.464706 285.482101 
L 57.791458 285.482101 
L 57.791458 285.232407 
L 66.819469 285.232407 
L 66.819469 284.982713 
L 68.388265 284.982713 
L 68.388265 284.733019 
L 70.484119 284.733019 
L 70.484119 284.483325 
L 71.210989 284.483325 
L 71.210989 284.23363 
L 76.995648 284.23363 
L 76.995648 283.983936 
L 81.329994 283.983936 
L 81.329994 283.734242 
L 97.535789 283.734242 
L 97.535789 283.484548 
L 104.951532 283.484548 
L 104.951532 282.735465 
L 105.12365 282.735465 
L 105.12365 282.485771 
L 105.64504 282.485771 
L 105.64504 282.236077 
L 110.115183 282.236077 
L 110.115183 281.486995 
L 125.806958 281.486995 
L 125.806958 280.737912 
L 127.060228 280.737912 
L 127.060228 279.988829 
L 129.706959 279.988829 
L 129.706959 279.739135 
L 131.829239 279.739135 
L 131.829239 279.489441 
L 134.87061 279.489441 
L 134.87061 279.239747 
L 140.909092 279.239747 
L 140.909092 278.490664 
L 144.187956 278.490664 
L 144.187956 277.991276 
L 144.881464 277.991276 
L 144.881464 277.741582 
L 149.351607 277.741582 
L 149.351607 277.242194 
L 150.562385 277.242194 
L 150.562385 276.992499 
L 151.815655 276.992499 
L 151.815655 276.742805 
L 153.907945 276.742805 
L 153.907945 276.493111 
L 154.462387 276.493111 
L 154.462387 275.494334 
L 157.321074 275.494334 
L 157.321074 274.745252 
L 159.626038 274.745252 
L 159.626038 274.495558 
L 161.249705 274.495558 
L 161.249705 274.245863 
L 162.477671 274.245863 
L 162.477671 273.996169 
L 162.935957 273.996169 
L 162.935957 273.746475 
L 163.832604 273.746475 
L 163.832604 272.997393 
L 164.504753 272.997393 
L 164.504753 272.747698 
L 164.736817 272.747698 
L 164.736817 272.498004 
L 165.043382 272.498004 
L 165.043382 271.998616 
L 165.66452 271.998616 
L 165.66452 271.748922 
L 166.296652 271.748922 
L 166.296652 271.249533 
L 166.600607 271.249533 
L 166.600607 270.999839 
L 167.327477 270.999839 
L 167.327477 270.750145 
L 167.595505 270.750145 
L 167.595505 270.001063 
L 171.505683 270.001063 
L 171.505683 269.751368 
L 172.964072 269.751368 
L 173.074479 269.25198 
L 173.112136 269.25198 
L 173.112136 269.002286 
L 174.448803 269.002286 
L 174.448803 268.752592 
L 175.170333 268.752592 
L 175.170333 268.502897 
L 175.317812 268.502897 
L 175.317812 268.253203 
L 175.897203 268.253203 
L 175.897203 268.003509 
L 176.571082 268.003509 
L 176.571082 267.004732 
L 177.446482 267.004732 
L 177.5168 266.505344 
L 178.553956 266.505344 
L 178.553956 266.25565 
L 179.217814 266.25565 
L 179.217814 265.756262 
L 179.612454 265.756262 
L 179.612454 265.506567 
L 179.826023 265.506567 
L 179.826023 265.256873 
L 180.145516 265.256873 
L 180.145516 264.757485 
L 180.653424 264.757485 
L 180.723247 264.258097 
L 181.681862 264.258097 
L 181.681862 264.008402 
L 182.076502 264.008402 
L 182.076502 262.759931 
L 183.42438 262.759931 
L 183.42438 262.510237 
L 184.381465 262.510237 
L 184.381465 262.260543 
L 185.98488 262.260543 
L 186.016208 261.761155 
L 187.187281 261.761155 
L 187.187281 261.012072 
L 188.327656 261.012072 
L 188.327656 260.762378 
L 188.588031 260.762378 
L 188.588031 260.26299 
L 189.828859 260.26299 
L 189.828859 260.013296 
L 190.419947 260.013296 
L 190.419947 259.763601 
L 190.59124 259.763601 
L 190.59124 259.513907 
L 192.350932 259.513907 
L 192.350932 258.515131 
L 192.740195 258.515131 
L 192.740195 258.015742 
L 193.652277 258.015742 
L 193.720072 257.016966 
L 194.238927 257.016966 
L 194.238927 256.767271 
L 195.304228 256.767271 
L 195.304228 256.517577 
L 195.754891 256.517577 
L 195.803317 256.018189 
L 196.419693 256.018189 
L 196.419693 255.768495 
L 196.557498 255.768495 
L 196.557498 255.019412 
L 197.888629 255.019412 
L 197.888629 254.769718 
L 199.209544 254.769718 
L 199.209544 254.520024 
L 200.07324 254.520024 
L 200.07324 254.27033 
L 201.240138 254.27033 
L 201.32651 253.521247 
L 201.761528 253.521247 
L 201.761528 253.271553 
L 202.222003 253.271553 
L 202.222003 253.021859 
L 203.069028 253.021859 
L 203.069028 252.52247 
L 203.973241 252.52247 
L 203.973241 252.272776 
L 204.234575 252.272776 
L 204.279806 251.773388 
L 204.855126 251.773388 
L 204.860972 251.274 
L 205.447705 251.274 
L 205.533076 250.774611 
L 206.831929 250.774611 
L 206.854963 248.777058 
L 206.993481 248.777058 
L 207.016501 248.277669 
L 207.223478 248.277669 
L 207.223478 248.027975 
L 208.042707 248.027975 
L 208.042707 247.278893 
L 208.288908 247.278893 
L 208.288908 247.029199 
L 209.112355 247.029199 
L 209.112355 246.779504 
L 209.295977 246.779504 
L 209.295977 246.030422 
L 209.809864 246.030422 
L 209.839225 245.531034 
L 210.331254 245.531034 
L 210.414397 244.781951 
L 210.849028 244.781951 
L 210.849028 244.532257 
L 211.446666 244.532257 
L 211.446666 244.282563 
L 211.614998 244.282563 
L 211.614998 244.032868 
L 211.776207 244.032868 
L 211.776207 243.783174 
L 212.429575 243.783174 
L 212.429575 243.53348 
L 212.699936 243.53348 
L 212.699936 243.283786 
L 212.813363 243.283786 
L 212.813363 243.034092 
L 213.343458 243.034092 
L 213.343458 242.784398 
L 214.08543 242.784398 
L 214.08543 242.534703 
L 214.293489 242.534703 
L 214.314398 242.035315 
L 214.912831 242.035315 
L 214.982654 241.286233 
L 215.171739 241.286233 
L 215.175374 240.786844 
L 215.623884 240.786844 
L 215.623884 240.53715 
L 215.807506 240.53715 
L 215.807506 240.037762 
L 216.004281 240.037762 
L 216.004281 239.788068 
L 216.167727 239.788068 
L 216.267118 239.288679 
L 216.595762 239.288679 
L 216.595762 239.038985 
L 216.82403 239.038985 
L 216.82403 238.789291 
L 217.10636 238.789291 
L 217.204883 238.289902 
L 217.276348 238.289902 
L 217.276348 238.040208 
L 218.103749 238.040208 
L 218.173572 237.54082 
L 218.47695 237.54082 
L 218.47695 237.291126 
L 218.867127 237.291126 
L 218.867127 237.041432 
L 219.304351 237.041432 
L 219.38194 236.292349 
L 219.904283 236.292349 
L 219.95823 235.792961 
L 220.244287 235.792961 
L 220.244287 235.543267 
L 220.628718 235.543267 
L 220.628718 235.293572 
L 221.17635 235.293572 
L 221.17635 235.043878 
L 221.312926 235.043878 
L 221.376759 234.294796 
L 221.625148 234.294796 
L 221.625148 234.045102 
L 221.75659 234.045102 
L 221.804018 233.545713 
L 222.003751 233.545713 
L 222.073574 233.046325 
L 222.413914 233.046325 
L 222.413914 232.796631 
L 222.587063 232.796631 
L 222.587063 232.546936 
L 223.144842 232.546936 
L 223.231844 231.54816 
L 223.321501 231.54816 
L 223.321501 231.298466 
L 223.435205 231.298466 
L 223.435205 231.048771 
L 223.685981 231.048771 
L 223.685981 230.799077 
L 223.959657 230.799077 
L 223.959657 230.549383 
L 224.088266 230.549383 
L 224.088266 230.299689 
L 224.513382 230.299689 
L 224.583205 229.800301 
L 224.635807 229.800301 
L 224.635807 229.550606 
L 224.890297 229.550606 
L 224.890297 229.300912 
L 225.507083 229.300912 
L 225.535439 228.801524 
L 225.777982 228.801524 
L 225.777982 228.55183 
L 226.081937 228.55183 
L 226.081937 228.302136 
L 226.5488 228.302136 
L 226.627902 227.553053 
L 226.781621 227.553053 
L 226.818345 227.053665 
L 226.978583 227.053665 
L 226.999602 226.054888 
L 227.279184 226.054888 
L 227.335207 225.305805 
L 227.408018 225.305805 
L 227.408018 225.056111 
L 227.713021 225.056111 
L 227.713021 224.806417 
L 227.945727 224.806417 
L 227.973022 224.307029 
L 228.479786 224.307029 
L 228.550569 223.557946 
L 228.728669 223.557946 
L 228.728669 223.308252 
L 228.840978 223.308252 
L 228.931971 222.808864 
L 229.402009 222.808864 
L 229.402009 222.55917 
L 229.540527 222.55917 
L 229.540527 222.309475 
L 229.677983 222.309475 
L 229.740636 221.810087 
L 229.844839 221.810087 
L 229.844839 221.560393 
L 230.062724 221.560393 
L 230.062724 221.310699 
L 230.190521 221.310699 
L 230.190521 220.81131 
L 230.835954 220.81131 
L 230.835954 220.561616 
L 230.996555 220.561616 
L 231.024911 220.062228 
L 231.179186 220.062228 
L 231.179186 219.812534 
L 231.391122 219.812534 
L 231.391122 219.313145 
L 231.587356 219.313145 
L 231.689252 218.314369 
L 232.148036 218.314369 
L 232.187615 217.81498 
L 232.259856 217.81498 
L 232.318521 217.065898 
L 232.393713 217.065898 
L 232.393713 216.816204 
L 232.889854 216.816204 
L 232.944918 216.067121 
L 233.253643 216.067121 
L 233.329874 215.567733 
L 233.393707 215.567733 
L 233.49768 214.319262 
L 233.688817 214.319262 
L 233.688817 214.069568 
L 233.828652 214.069568 
L 233.828652 213.819873 
L 234.090522 213.819873 
L 234.090522 213.320485 
L 234.293365 213.320485 
L 234.293365 213.070791 
L 234.430863 213.070791 
L 234.521855 212.321708 
L 234.938909 212.321708 
L 234.976621 211.82232 
L 235.077427 211.82232 
L 235.077427 211.572626 
L 235.295983 211.572626 
L 235.338954 210.823543 
L 235.589254 210.823543 
L 235.655914 209.824767 
L 235.70293 209.824767 
L 235.793922 209.075684 
L 235.924506 209.075684 
L 236.021586 208.576296 
L 236.049942 208.576296 
L 236.049942 208.326602 
L 236.164025 208.326602 
L 236.164025 208.076907 
L 236.372854 208.076907 
L 236.372854 207.827213 
L 236.515453 207.827213 
L 236.621323 205.82966 
L 236.647983 205.82966 
L 236.698136 204.081801 
L 236.946442 204.081801 
L 236.946442 203.832107 
L 237.092776 203.832107 
L 237.153644 203.332718 
L 237.22471 203.332718 
L 237.22471 202.83333 
L 237.429989 202.83333 
L 237.499812 202.333941 
L 237.578581 202.333941 
L 237.578581 202.084247 
L 237.718785 202.084247 
L 237.718785 201.834553 
L 237.832026 201.834553 
L 237.832026 201.584859 
L 237.983598 201.584859 
L 237.983598 201.335165 
L 238.098886 201.335165 
L 238.098886 200.835776 
L 238.379001 200.835776 
L 238.487525 200.336388 
L 238.641974 200.336388 
L 238.67033 199.837 
L 238.780492 199.837 
L 238.808848 199.337611 
L 238.932973 199.337611 
L 238.932973 199.087917 
L 239.113922 199.087917 
L 239.206402 197.839446 
L 239.238956 197.839446 
L 239.320564 196.84067 
L 239.556824 196.84067 
L 239.663276 195.841893 
L 240.047434 195.841893 
L 240.152889 194.094034 
L 240.51352 194.094034 
L 240.524708 193.594645 
L 240.785455 193.594645 
L 240.785455 193.344951 
L 240.997952 193.344951 
L 241.107913 192.595869 
L 241.243231 192.595869 
L 241.341483 191.846786 
L 241.451677 191.846786 
L 241.451677 191.597092 
L 241.748587 191.597092 
L 241.770274 191.097704 
L 241.861787 191.097704 
L 241.970101 190.098927 
L 242.305452 190.098927 
L 242.305452 189.599539 
L 242.436035 189.599539 
L 242.541858 189.10015 
L 242.636038 189.10015 
L 242.705633 188.351068 
L 242.761445 188.351068 
L 242.761445 188.101374 
L 242.910279 188.101374 
L 242.960782 187.352291 
L 243.175764 187.352291 
L 243.255684 186.603209 
L 243.470999 186.603209 
L 243.506053 186.10382 
L 243.751886 186.10382 
L 243.75913 185.604432 
L 243.968885 185.604432 
L 243.991891 185.105044 
L 244.172194 185.105044 
L 244.273275 183.856573 
L 244.295556 183.856573 
L 244.295556 183.606878 
L 244.679708 183.606878 
L 244.679708 183.357184 
L 244.796286 183.357184 
L 244.809056 182.857796 
L 245.006133 182.857796 
L 245.104221 182.108713 
L 245.130995 182.108713 
L 245.240952 181.609325 
L 245.414522 181.609325 
L 245.414522 181.359631 
L 245.705766 181.359631 
L 245.810485 180.360854 
L 245.832093 180.360854 
L 245.832093 179.861466 
L 246.004406 179.861466 
L 246.111151 118.686393 
L 246.138176 118.686393 
L 246.205453 118.187005 
L 246.323003 118.187005 
L 246.323003 117.937311 
L 246.436883 117.937311 
L 246.436883 117.687617 
L 246.605424 117.687617 
L 246.682525 117.188228 
L 246.737548 117.188228 
L 246.770381 116.68884 
L 246.895754 116.68884 
L 246.987106 115.690063 
L 247.041561 115.690063 
L 247.041561 115.440369 
L 247.360159 115.440369 
L 247.360159 115.190675 
L 247.75476 115.190675 
L 247.757298 114.691287 
L 248.313629 114.691287 
L 248.411129 113.69251 
L 248.430874 113.69251 
L 248.430874 113.442816 
L 248.569392 113.442816 
L 248.632226 112.444039 
L 248.708095 112.444039 
L 248.760902 110.945874 
L 248.870057 110.945874 
L 248.870057 110.69618 
L 249.141029 110.69618 
L 249.210852 110.196791 
L 249.258501 110.196791 
L 249.361785 109.697403 
L 249.424689 109.697403 
L 249.52945 108.199238 
L 249.55272 108.199238 
L 249.567678 107.69985 
L 249.709094 107.69985 
L 249.709094 107.450156 
L 249.831255 107.450156 
L 249.864819 106.451379 
L 250.115834 106.451379 
L 250.206827 105.202908 
L 250.398941 105.202908 
L 250.398941 104.953214 
L 250.620467 104.953214 
L 250.620467 104.70352 
L 250.837364 104.70352 
L 250.848712 104.204131 
L 251.015492 104.204131 
L 251.121515 103.704743 
L 251.39981 103.704743 
L 251.39981 103.455049 
L 251.517662 103.455049 
L 251.573772 102.95566 
L 251.671008 102.95566 
L 251.771217 101.956884 
L 252.089106 101.956884 
L 252.169837 101.207801 
L 252.22721 101.207801 
L 252.22721 100.958107 
L 252.415729 100.958107 
L 252.498409 99.95933 
L 252.568232 99.95933 
L 252.579882 99.459942 
L 252.725604 99.459942 
L 252.725604 99.210248 
L 253.019903 99.210248 
L 253.019903 98.960554 
L 253.217369 98.960554 
L 253.30244 98.211471 
L 253.412159 98.211471 
L 253.440515 97.712083 
L 253.668569 97.712083 
L 253.765536 96.963 
L 253.856528 96.963 
L 253.94424 96.463612 
L 254.005485 96.463612 
L 254.037821 95.964224 
L 254.30615 95.964224 
L 254.30615 95.714529 
L 254.472486 95.714529 
L 254.569986 95.215141 
L 254.588698 95.215141 
L 254.665194 94.715753 
L 254.791083 94.715753 
L 254.881668 94.216364 
L 255.04393 94.216364 
L 255.047475 93.716976 
L 255.232959 93.716976 
L 255.243788 93.217588 
L 255.398294 93.217588 
L 255.398294 92.967893 
L 255.645497 92.967893 
L 255.645497 92.718199 
L 255.852008 92.718199 
L 255.878098 92.218811 
L 256.071189 92.218811 
L 256.125165 91.719423 
L 256.271894 91.719423 
L 256.342784 90.470952 
L 256.684552 90.470952 
L 256.747649 89.971563 
L 256.815262 89.971563 
L 256.815262 89.721869 
L 257.048314 89.721869 
L 257.133859 89.222481 
L 257.318271 89.222481 
L 257.411423 88.473398 
L 257.788914 88.473398 
L 257.829865 87.97401 
L 258.155125 87.97401 
L 258.265886 86.975233 
L 258.316464 86.975233 
L 258.404404 86.475845 
L 258.472338 86.475845 
L 258.472338 86.226151 
L 258.635062 86.226151 
L 258.635062 85.976457 
L 258.806832 85.976457 
L 258.806832 85.227374 
L 258.982525 85.227374 
L 258.982525 84.727986 
L 259.35771 84.727986 
L 259.35771 84.478292 
L 259.653857 84.478292 
L 259.728898 83.729209 
L 260.172641 83.729209 
L 260.172641 83.479515 
L 260.481257 83.479515 
L 260.54935 82.730432 
L 260.732033 82.730432 
L 260.823026 82.231044 
L 260.853305 82.231044 
L 260.853305 81.98135 
L 261.218247 81.98135 
L 261.227801 81.232267 
L 261.453563 81.232267 
L 261.546398 80.483185 
L 261.625682 80.483185 
L 261.673844 79.734102 
L 261.816301 79.734102 
L 261.909823 79.234714 
L 262.045647 79.234714 
L 262.147071 78.735326 
L 262.180434 78.735326 
L 262.25995 77.736549 
L 262.505294 77.736549 
L 262.505294 77.486855 
L 262.726533 77.486855 
L 262.726533 77.237161 
L 262.976176 77.237161 
L 263.04513 76.737772 
L 263.196081 76.737772 
L 263.303558 75.98869 
L 263.501724 75.98869 
L 263.501724 75.738995 
L 263.840497 75.738995 
L 263.840497 75.489301 
L 264.063245 75.489301 
L 264.130959 74.740219 
L 264.284768 74.740219 
L 264.312251 73.491748 
L 264.58518 73.491748 
L 264.60952 72.742665 
L 265.313441 72.742665 
L 265.318361 72.243277 
L 265.561977 72.243277 
L 265.561977 71.993583 
L 265.935919 71.993583 
L 266.018045 71.494195 
L 266.083912 71.494195 
L 266.188375 70.994806 
L 266.24417 70.994806 
L 266.24417 70.745112 
L 266.372234 70.745112 
L 266.376234 69.996029 
L 266.582661 69.996029 
L 266.582661 69.746335 
L 266.694832 69.746335 
L 266.694832 69.496641 
L 266.841331 69.496641 
L 266.882237 68.997253 
L 267.467729 68.997253 
L 267.530428 68.497864 
L 267.648302 68.497864 
L 267.71621 67.998476 
L 267.965093 67.998476 
L 268.006685 67.499088 
L 268.182366 67.499088 
L 268.182366 67.249394 
L 268.294901 67.249394 
L 268.320884 66.750005 
L 268.978091 66.750005 
L 268.978091 66.500311 
L 269.423031 66.500311 
L 269.46172 66.000923 
L 269.600238 66.000923 
L 269.704961 65.25184 
L 269.733614 65.25184 
L 269.733614 65.002146 
L 270.270056 65.002146 
L 270.270056 64.752452 
L 270.457474 64.752452 
L 270.564037 64.253064 
L 270.82378 64.253064 
L 270.895665 63.254287 
L 271.085426 63.254287 
L 271.097456 62.754898 
L 271.554945 62.754898 
L 271.554945 62.505204 
L 272.039641 62.505204 
L 272.057803 62.005816 
L 272.17643 62.005816 
L 272.17643 61.756122 
L 272.299439 61.756122 
L 272.407193 61.256733 
L 273.03607 61.256733 
L 273.03607 61.007039 
L 273.342732 61.007039 
L 273.342732 60.757345 
L 273.455784 60.757345 
L 273.455784 60.507651 
L 273.661329 60.507651 
L 273.756977 60.008263 
L 273.960095 60.008263 
L 273.960095 59.508874 
L 274.481484 59.508874 
L 274.481484 59.009486 
L 275.036331 59.009486 
L 275.036331 58.759792 
L 275.25801 58.759792 
L 275.286366 58.260403 
L 275.48962 58.260403 
L 275.48962 58.010709 
L 275.882762 58.010709 
L 275.882762 57.761015 
L 276.3292 57.761015 
L 276.404152 57.261627 
L 276.499141 57.261627 
L 276.499141 57.011932 
L 276.700111 57.011932 
L 276.700111 56.762238 
L 277.723949 56.762238 
L 277.778495 56.26285 
L 277.896665 56.26285 
L 277.923165 55.763462 
L 278.19299 55.763462 
L 278.19299 55.513767 
L 279.167226 55.513767 
L 279.202519 55.014379 
L 279.645664 55.014379 
L 279.645664 54.764685 
L 279.823966 54.764685 
L 279.823966 54.514991 
L 280.167053 54.514991 
L 280.269039 54.015602 
L 281.098211 54.015602 
L 281.098211 53.765908 
L 281.956121 53.765908 
L 281.956121 53.516214 
L 282.449964 53.516214 
L 282.449964 53.26652 
L 282.921695 53.26652 
L 282.95255 52.767132 
L 283.235475 52.767132 
L 283.235475 52.517437 
L 283.509699 52.517437 
L 283.548093 52.018049 
L 283.736222 52.018049 
L 283.736222 51.768355 
L 284.231905 51.768355 
L 284.231905 51.518661 
L 285.046909 51.518661 
L 285.046909 51.268966 
L 285.304777 51.268966 
L 285.347575 49.271413 
L 285.542084 49.271413 
L 285.542084 49.021719 
L 285.680602 49.021719 
L 285.680602 48.772025 
L 286.762716 48.772025 
L 286.762716 48.522331 
L 286.976029 48.522331 
L 286.976029 48.272636 
L 287.856901 48.272636 
L 287.856901 48.022942 
L 288.33127 48.022942 
L 288.37829 47.523554 
L 288.505233 47.523554 
L 288.505233 47.27386 
L 289.067679 47.27386 
L 289.067679 46.524777 
L 289.536148 46.524777 
L 289.536148 46.275083 
L 290.037826 46.275083 
L 290.037826 46.025389 
L 290.559215 46.025389 
L 290.559215 45.775695 
L 291.116695 45.775695 
L 291.116695 45.526 
L 291.324084 45.526 
L 291.324084 45.276306 
L 291.845473 45.276306 
L 291.845473 45.026612 
L 292.471637 45.026612 
L 292.471637 44.776918 
L 292.72052 44.776918 
L 292.72052 44.527224 
L 293.858859 44.527224 
L 293.858859 44.27753 
L 294.881921 44.27753 
L 294.881921 44.027835 
L 295.282883 44.027835 
L 295.282883 43.778141 
L 295.579208 43.778141 
L 295.579208 42.779365 
L 296.029761 42.779365 
L 296.093095 42.279976 
L 296.614484 42.279976 
L 296.614484 42.030282 
L 297.269626 42.030282 
L 297.269626 41.780588 
L 299.315839 41.780588 
L 299.315839 41.530894 
L 299.87794 41.530894 
L 299.87794 41.2812 
L 300.312269 41.2812 
L 300.312269 41.031505 
L 300.665684 41.031505 
L 300.665684 40.532117 
L 301.383495 40.532117 
L 301.383495 40.282423 
L 302.090737 40.282423 
L 302.090737 40.032729 
L 302.588351 40.032729 
L 302.588351 39.783034 
L 303.365053 39.783034 
L 303.365053 39.53334 
L 303.617622 39.53334 
L 303.617622 39.283646 
L 304.139012 39.283646 
L 304.139012 39.033952 
L 304.798401 39.033952 
L 304.798401 38.784258 
L 305.853638 38.784258 
L 305.853638 38.534564 
L 306.077755 38.534564 
L 306.077755 38.284869 
L 306.351252 38.284869 
L 306.351252 38.035175 
L 310.32185 38.035175 
L 310.32185 37.785481 
L 313.717908 37.785481 
L 313.717908 37.286093 
L 314.562489 37.286093 
L 314.562489 37.036399 
L 314.829216 37.036399 
L 314.829216 36.786704 
L 315.565624 36.786704 
L 315.640576 35.787928 
L 316.743414 35.787928 
L 316.743414 35.538234 
L 317.751736 35.538234 
L 317.751736 35.288539 
L 318.029672 35.288539 
L 318.029672 35.038845 
L 319.403477 35.038845 
L 319.403477 34.789151 
L 320.334635 34.789151 
L 320.334635 33.790374 
L 320.704737 33.790374 
L 320.704737 33.54068 
L 321.238849 33.54068 
L 321.238849 33.290986 
L 322.158119 33.290986 
L 322.158119 33.041292 
L 322.798683 33.041292 
L 322.798683 32.791598 
L 324.541201 32.791598 
L 324.541201 32.042515 
L 326.690092 32.042515 
L 326.690092 31.792821 
L 327.614714 31.792821 
L 327.614714 31.543127 
L 328.304103 31.543127 
L 328.304103 29.295879 
L 329.795639 29.295879 
L 329.795639 29.046185 
L 330.08615 29.046185 
L 330.177204 28.297103 
L 330.323211 28.297103 
L 330.323211 28.047408 
L 331.081897 28.047408 
L 331.081897 27.797714 
L 331.708061 27.797714 
L 331.708061 27.048632 
L 332.008817 27.048632 
L 332.008817 26.798937 
L 333.573262 26.798937 
L 333.573262 26.299549 
L 335.495929 26.299549 
L 335.495929 26.049855 
L 335.771718 26.049855 
L 335.850908 25.550467 
L 338.578533 25.550467 
L 338.578533 25.300772 
L 339.258831 25.300772 
L 339.258831 25.051078 
L 343.375436 25.051078 
L 343.375436 24.801384 
L 343.982955 24.801384 
L 343.982955 24.55169 
L 345.090062 24.55169 
L 345.090062 24.301996 
L 346.16388 24.301996 
L 346.16388 24.052302 
L 347.450138 24.052302 
L 347.516888 23.303219 
L 349.650992 23.303219 
L 349.650992 23.053525 
L 350.912946 23.053525 
L 350.93725 22.304442 
L 352.219149 22.304442 
L 352.219149 22.054748 
L 352.835614 22.054748 
L 352.835614 21.805054 
L 355.706261 21.805054 
L 355.706261 21.55536 
L 356.598515 21.55536 
L 356.598515 21.305666 
L 359.743677 21.305666 
L 359.743677 21.055971 
L 363.230789 21.055971 
L 363.230789 20.806277 
L 364.809752 20.806277 
L 364.809752 20.556583 
L 366.990677 20.556583 
L 366.990677 20.306889 
L 368.276935 20.306889 
L 368.276935 20.057195 
L 373.045946 20.057195 
L 373.045946 19.807501 
L 380.570474 19.807501 
L 380.570474 19.557806 
L 384.326486 19.557806 
L 384.326486 18.808724 
L 450.672 18.808724 
L 450.672 18.808724 
" style="fill:none;stroke:#000000;stroke-linecap:square;stroke-width:3;"/>
   </g>
   <g id="line2d_58">
    <path clip-path="url(#p7ac267d2f0)" style="fill:none;stroke:#000000;stroke-linecap:square;stroke-width:3;"/>
   </g>
   <g id="line2d_59">
    <path clip-path="url(#p7ac267d2f0)" d="M 41.464706 218.439216 
L 220.913877 218.439216 
L 220.913877 217.900452 
L 223.935353 217.900452 
L 223.935353 217.361689 
L 224.06786 217.361689 
L 224.06786 216.822926 
L 227.089337 216.822926 
L 227.089337 216.284163 
L 230.709666 216.284163 
L 230.709666 215.7454 
L 233.731143 215.7454 
L 233.731143 215.206637 
L 237.554825 215.206637 
L 237.554825 214.667873 
L 239.514281 214.667873 
L 239.514281 214.12911 
L 241.396392 214.12911 
L 241.396392 213.590347 
L 242.135631 213.590347 
L 242.135631 213.051584 
L 242.668265 213.051584 
L 242.668265 212.512821 
L 242.784414 212.512821 
L 242.784414 211.974057 
L 244.550376 211.974057 
L 244.550376 211.435294 
L 245.661485 211.435294 
L 245.661485 210.896531 
L 245.77392 210.896531 
L 245.77392 210.357768 
L 246.265309 210.357768 
L 246.310268 209.280241 
L 246.908734 209.280241 
L 246.914092 208.202715 
L 248.006051 208.202715 
L 248.091815 207.125189 
L 248.808451 207.125189 
L 248.808451 206.586425 
L 249.299774 206.586425 
L 249.310071 204.970136 
L 249.875211 204.970136 
L 249.903598 203.892609 
L 250.244477 203.892609 
L 250.244477 203.353846 
L 250.434587 203.353846 
L 250.434587 202.815083 
L 251.038412 202.815083 
L 251.04843 201.737557 
L 251.160035 201.737557 
L 251.192182 200.66003 
L 251.617669 200.66003 
L 251.697213 199.582504 
L 252.221493 199.582504 
L 252.221493 199.043741 
L 252.561928 199.043741 
L 252.561928 198.504977 
L 252.68479 198.504977 
L 252.68479 197.966214 
L 252.829833 197.966214 
L 252.829833 197.427451 
L 252.967869 197.427451 
L 252.967869 196.888688 
L 253.246807 196.888688 
L 253.333573 195.272398 
L 253.360921 195.272398 
L 253.433657 193.656109 
L 254.004889 193.656109 
L 254.009704 192.578582 
L 254.13206 192.578582 
L 254.13206 192.039819 
L 254.379078 192.039819 
L 254.379078 191.501056 
L 254.686719 191.501056 
L 254.780843 189.346003 
L 255.027861 189.346003 
L 255.027861 188.80724 
L 255.821533 188.80724 
L 255.821533 188.268477 
L 256.210589 188.268477 
L 256.210589 187.729713 
L 256.323079 187.729713 
L 256.40079 186.652187 
L 256.49391 186.652187 
L 256.49391 186.113424 
L 256.881508 186.113424 
L 256.881508 185.574661 
L 256.99921 185.574661 
L 257.004614 184.497134 
L 257.382902 184.497134 
L 257.457893 183.419608 
L 257.530291 183.419608 
L 257.530291 182.880845 
L 257.770349 182.880845 
L 257.801841 181.803318 
L 258.017367 181.803318 
L 258.017367 181.264555 
L 258.130226 181.264555 
L 258.216778 179.648265 
L 258.446937 179.648265 
L 258.446937 179.109502 
L 258.640975 179.109502 
L 258.640975 178.570739 
L 258.76439 178.570739 
L 258.806832 176.954449 
L 258.905163 176.954449 
L 258.905163 176.415686 
L 259.152181 176.415686 
L 259.152181 175.876923 
L 259.317105 175.876923 
L 259.317105 175.33816 
L 259.736443 175.33816 
L 259.736443 174.799397 
L 259.853138 174.799397 
L 259.853138 174.260633 
L 260.088244 174.260633 
L 260.088244 173.72187 
L 260.335262 173.72187 
L 260.42437 172.105581 
L 260.519797 172.105581 
L 260.611276 170.489291 
L 260.787475 170.489291 
L 260.787475 169.950528 
L 261.100501 169.950528 
L 261.100501 169.411765 
L 261.300408 169.411765 
L 261.385639 168.334238 
L 261.436258 168.334238 
L 261.436258 167.795475 
L 261.547426 167.795475 
L 261.654611 166.717949 
L 261.87164 166.717949 
L 261.87164 166.179186 
L 262.034422 166.179186 
L 262.118658 165.101659 
L 262.517867 165.101659 
L 262.560309 164.024133 
L 262.837692 164.024133 
L 262.837692 163.48537 
L 263.042596 163.48537 
L 263.042596 162.946606 
L 263.267911 162.946606 
L 263.267911 162.407843 
L 264.015234 162.407843 
L 264.049856 161.330317 
L 264.425764 161.330317 
L 264.425764 160.791554 
L 264.621088 160.791554 
L 264.724647 159.175264 
L 264.839899 159.175264 
L 264.900717 158.097738 
L 265.023928 158.097738 
L 265.123388 157.020211 
L 265.488683 157.020211 
L 265.560578 155.942685 
L 266.158742 155.942685 
L 266.158742 155.403922 
L 266.743659 155.403922 
L 266.759748 154.326395 
L 267.338841 154.326395 
L 267.435879 152.171342 
L 267.955823 152.171342 
L 268.053336 151.093816 
L 268.086164 151.093816 
L 268.128606 150.01629 
L 268.207018 150.01629 
L 268.207018 149.477526 
L 268.454036 149.477526 
L 268.553987 147.322474 
L 268.702119 147.322474 
L 268.702119 146.78371 
L 268.844882 146.78371 
L 268.844882 146.244947 
L 269.125219 146.244947 
L 269.125219 145.706184 
L 269.613002 145.706184 
L 269.613002 145.167421 
L 270.726993 145.167421 
L 270.796084 143.551131 
L 270.956466 143.551131 
L 270.956466 143.012368 
L 271.691625 143.012368 
L 271.691625 142.473605 
L 272.008247 142.473605 
L 272.008247 141.934842 
L 272.57948 141.934842 
L 272.57948 141.396078 
L 272.826439 141.396078 
L 272.826439 140.857315 
L 274.00952 140.857315 
L 274.00952 140.318552 
L 274.856656 140.318552 
L 274.899097 138.702262 
L 275.221684 138.702262 
L 275.221684 138.163499 
L 275.460597 138.163499 
L 275.460597 137.624736 
L 275.792916 137.624736 
L 275.792916 137.085973 
L 277.336652 137.085973 
L 277.336652 136.54721 
L 278.914858 136.54721 
L 278.914858 136.008446 
L 282.128294 136.008446 
L 282.128294 135.469683 
L 282.577408 135.469683 
L 282.577408 134.93092 
L 450.672 134.93092 
L 450.672 134.93092 
" style="fill:none;stroke:#00bfbf;stroke-linecap:square;stroke-width:3;"/>
   </g>
   <g id="line2d_60">
    <path clip-path="url(#p7ac267d2f0)" style="fill:none;stroke:#00bfbf;stroke-linecap:square;stroke-width:3;"/>
   </g>
   <g id="line2d_61">
    <path clip-path="url(#p7ac267d2f0)" d="M 42.794946 288.478431 
L 41.464706 288.478431 
L 450.672 288.478431 
L 461.8 288.478431 
" style="fill:none;stroke:#bf00bf;stroke-linecap:square;stroke-width:3;"/>
   </g>
   <g id="line2d_62"/>
   <g id="line2d_63">
    <path clip-path="url(#p7ac267d2f0)" d="M 246.068353 291.28 
L 246.068353 5.52 
" style="fill:none;stroke:#000000;stroke-linecap:square;stroke-width:1.5;"/>
   </g>
   <g id="line2d_64">
    <path clip-path="url(#p7ac267d2f0)" d="M 41.464706 148.4 
L 450.672 148.4 
" style="fill:none;stroke:#000000;stroke-dasharray:2,3.3;stroke-dashoffset:0;stroke-width:2;"/>
   </g>
   <g id="patch_3">
    <path d="M 41.464706 291.28 
L 41.464706 5.52 
" style="fill:none;stroke:#000000;stroke-linecap:square;stroke-linejoin:miter;stroke-width:0.8;"/>
   </g>
   <g id="patch_4">
    <path d="M 450.672 291.28 
L 450.672 5.52 
" style="fill:none;stroke:#000000;stroke-linecap:square;stroke-linejoin:miter;stroke-width:0.8;"/>
   </g>
   <g id="patch_5">
    <path d="M 41.464706 291.28 
L 450.672 291.28 
" style="fill:none;stroke:#000000;stroke-linecap:square;stroke-linejoin:miter;stroke-width:0.8;"/>
   </g>
   <g id="patch_6">
    <path d="M 41.464706 5.52 
L 450.672 5.52 
" style="fill:none;stroke:#000000;stroke-linecap:square;stroke-linejoin:miter;stroke-width:0.8;"/>
   </g>
   <g id="text_14">
    <!-- f15-f19,5-D -->
    <defs>
     <path d="M 10.984375 1.515625 
L 10.984375 10.5 
Q 14.703125 8.734375 18.5 7.8125 
Q 22.3125 6.890625 25.984375 6.890625 
Q 35.75 6.890625 40.890625 13.453125 
Q 46.046875 20.015625 46.78125 33.40625 
Q 43.953125 29.203125 39.59375 26.953125 
Q 35.25 24.703125 29.984375 24.703125 
Q 19.046875 24.703125 12.671875 31.3125 
Q 6.296875 37.9375 6.296875 49.421875 
Q 6.296875 60.640625 12.9375 67.421875 
Q 19.578125 74.21875 30.609375 74.21875 
Q 43.265625 74.21875 49.921875 64.515625 
Q 56.59375 54.828125 56.59375 36.375 
Q 56.59375 19.140625 48.40625 8.859375 
Q 40.234375 -1.421875 26.421875 -1.421875 
Q 22.703125 -1.421875 18.890625 -0.6875 
Q 15.09375 0.046875 10.984375 1.515625 
z
M 30.609375 32.421875 
Q 37.25 32.421875 41.125 36.953125 
Q 45.015625 41.5 45.015625 49.421875 
Q 45.015625 57.28125 41.125 61.84375 
Q 37.25 66.40625 30.609375 66.40625 
Q 23.96875 66.40625 20.09375 61.84375 
Q 16.21875 57.28125 16.21875 49.421875 
Q 16.21875 41.5 20.09375 36.953125 
Q 23.96875 32.421875 30.609375 32.421875 
z
" id="DejaVuSans-39"/>
     <path d="M 11.71875 12.40625 
L 22.015625 12.40625 
L 22.015625 4 
L 14.015625 -11.625 
L 7.71875 -11.625 
L 11.71875 4 
z
" id="DejaVuSans-2c"/>
     <path d="M 19.671875 64.796875 
L 19.671875 8.109375 
L 31.59375 8.109375 
Q 46.6875 8.109375 53.6875 14.9375 
Q 60.6875 21.78125 60.6875 36.53125 
Q 60.6875 51.171875 53.6875 57.984375 
Q 46.6875 64.796875 31.59375 64.796875 
z
M 9.8125 72.90625 
L 30.078125 72.90625 
Q 51.265625 72.90625 61.171875 64.09375 
Q 71.09375 55.28125 71.09375 36.53125 
Q 71.09375 17.671875 61.125 8.828125 
Q 51.171875 0 30.078125 0 
L 9.8125 0 
z
" id="DejaVuSans-44"/>
    </defs>
    <g transform="translate(328.594104 285.5648)scale(0.2 -0.2)">
     <use xlink:href="#DejaVuSans-66"/>
     <use x="35.205078" xlink:href="#DejaVuSans-31"/>
     <use x="98.828125" xlink:href="#DejaVuSans-35"/>
     <use x="162.451172" xlink:href="#DejaVuSans-2d"/>
     <use x="198.535156" xlink:href="#DejaVuSans-66"/>
     <use x="233.740234" xlink:href="#DejaVuSans-31"/>
     <use x="297.363281" xlink:href="#DejaVuSans-39"/>
     <use x="360.986328" xlink:href="#DejaVuSans-2c"/>
     <use x="392.773438" xlink:href="#DejaVuSans-35"/>
     <use x="456.396484" xlink:href="#DejaVuSans-2d"/>
     <use x="492.480469" xlink:href="#DejaVuSans-44"/>
    </g>
   </g>
   <g id="text_15">
    <!-- v0.0.0 -->
    <g style="fill:#808080;" transform="translate(230.387103 286.342713)scale(0.1 -0.1)">
     <use xlink:href="#DejaVuSans-76"/>
     <use x="59.179688" xlink:href="#DejaVuSans-30"/>
     <use x="122.802734" xlink:href="#DejaVuSans-2e"/>
     <use x="154.589844" xlink:href="#DejaVuSans-30"/>
     <use x="218.212891" xlink:href="#DejaVuSans-2e"/>
     <use x="250" xlink:href="#DejaVuSans-30"/>
    </g>
   </g>
   <g id="legend_1">
    <g id="patch_7">
     <path d="M 55.464706 138.945 
L 184.686581 138.945 
Q 188.686581 138.945 188.686581 134.945 
L 188.686581 19.52 
Q 188.686581 15.52 184.686581 15.52 
L 55.464706 15.52 
Q 51.464706 15.52 51.464706 19.52 
L 51.464706 134.945 
Q 51.464706 138.945 55.464706 138.945 
z
" style="fill:#ffffff;opacity:0.2;stroke:#cccccc;stroke-linejoin:miter;"/>
    </g>
    <g id="line2d_65">
     <path d="M 59.464706 31.716875 
L 99.464706 31.716875 
" style="fill:none;stroke:#000000;stroke-linecap:square;stroke-width:3;"/>
    </g>
    <g id="line2d_66"/>
    <g id="text_16">
     <!-- 1: 5/5 -->
     <defs>
      <path d="M 11.71875 12.40625 
L 22.015625 12.40625 
L 22.015625 0 
L 11.71875 0 
z
M 11.71875 51.703125 
L 22.015625 51.703125 
L 22.015625 39.3125 
L 11.71875 39.3125 
z
" id="DejaVuSans-3a"/>
      <path d="M 25.390625 72.90625 
L 33.6875 72.90625 
L 8.296875 -9.28125 
L 0 -9.28125 
z
" id="DejaVuSans-2f"/>
     </defs>
     <g transform="translate(115.464706 38.716875)scale(0.2 -0.2)">
      <use xlink:href="#DejaVuSans-31"/>
      <use x="63.623047" xlink:href="#DejaVuSans-3a"/>
      <use x="97.314453" xlink:href="#DejaVuSans-20"/>
      <use x="129.101562" xlink:href="#DejaVuSans-35"/>
      <use x="192.724609" xlink:href="#DejaVuSans-2f"/>
      <use x="226.416016" xlink:href="#DejaVuSans-35"/>
     </g>
    </g>
    <g id="line2d_67">
     <path d="M 59.464706 61.073125 
L 99.464706 61.073125 
" style="fill:none;stroke:#00bfbf;stroke-linecap:square;stroke-width:3;"/>
    </g>
    <g id="line2d_68"/>
    <g id="text_17">
     <!-- -1: 4/4 -->
     <g transform="translate(115.464706 68.073125)scale(0.2 -0.2)">
      <use xlink:href="#DejaVuSans-2d"/>
      <use x="36.083984" xlink:href="#DejaVuSans-31"/>
      <use x="99.707031" xlink:href="#DejaVuSans-3a"/>
      <use x="133.398438" xlink:href="#DejaVuSans-20"/>
      <use x="165.185547" xlink:href="#DejaVuSans-34"/>
      <use x="228.808594" xlink:href="#DejaVuSans-2f"/>
      <use x="262.5" xlink:href="#DejaVuSans-34"/>
     </g>
    </g>
    <g id="line2d_69">
     <path d="M 59.464706 90.429375 
L 99.464706 90.429375 
" style="fill:none;stroke:#bf00bf;stroke-linecap:square;stroke-width:3;"/>
    </g>
    <g id="line2d_70"/>
    <g id="text_18">
     <!-- -4: 0/2 -->
     <g transform="translate(115.464706 97.429375)scale(0.2 -0.2)">
      <use xlink:href="#DejaVuSans-2d"/>
      <use x="36.083984" xlink:href="#DejaVuSans-34"/>
      <use x="99.707031" xlink:href="#DejaVuSans-3a"/>
      <use x="133.398438" xlink:href="#DejaVuSans-20"/>
      <use x="165.185547" xlink:href="#DejaVuSans-30"/>
      <use x="228.808594" xlink:href="#DejaVuSans-2f"/>
      <use x="262.5" xlink:href="#DejaVuSans-32"/>
     </g>
    </g>
    <g id="line2d_71">
     <path d="M 59.464706 119.785625 
L 99.464706 119.785625 
" style="fill:none;stroke:#ff0000;stroke-linecap:square;stroke-width:3;"/>
    </g>
    <g id="line2d_72"/>
    <g id="text_19">
     <!-- -8: 0/0 -->
     <g transform="translate(115.464706 126.785625)scale(0.2 -0.2)">
      <use xlink:href="#DejaVuSans-2d"/>
      <use x="36.083984" xlink:href="#DejaVuSans-38"/>
      <use x="99.707031" xlink:href="#DejaVuSans-3a"/>
      <use x="133.398438" xlink:href="#DejaVuSans-20"/>
      <use x="165.185547" xlink:href="#DejaVuSans-30"/>
      <use x="228.808594" xlink:href="#DejaVuSans-2f"/>
      <use x="262.5" xlink:href="#DejaVuSans-30"/>
     </g>
    </g>
   </g>
  </g>
 </g>
 <defs>
  <clipPath id="p7ac267d2f0">
   <rect height="285.76" width="409.207294" x="41.464706" y="5.52"/>
  </clipPath>
 </defs>
</svg>
