<?xml version="1.0" encoding="utf-8" standalone="no"?>
<!DOCTYPE svg PUBLIC "-//W3C//DTD SVG 1.1//EN"
  "http://www.w3.org/Graphics/SVG/1.1/DTD/svg11.dtd">
<!-- Created with matplotlib (http://matplotlib.org/) -->
<svg height="345.6pt" version="1.1" viewBox="0 0 460.8 345.6" width="460.8pt" xmlns="http://www.w3.org/2000/svg" xmlns:xlink="http://www.w3.org/1999/xlink">
 <defs>
  <style type="text/css">
*{stroke-linecap:butt;stroke-linejoin:round;}
  </style>
 </defs>
 <g id="figure_1">
  <g id="patch_1">
   <path d="M 0 345.6 
L 460.8 345.6 
L 460.8 0 
L 0 0 
z
" style="fill:#ffffff;"/>
  </g>
  <g id="axes_1">
   <g id="patch_2">
    <path d="M 56.12 294.88 
L 333.168 294.88 
L 333.168 6.845228 
L 56.12 6.845228 
z
" style="fill:#ffffff;"/>
   </g>
   <g id="line2d_1">
    <path d="M 44.205749 294.88 
L 44.205749 283.696355 
L 56.12 283.696355 
L 56.12 278.104533 
L 63.08939 278.104533 
L 63.08939 274.749439 
L 68.034251 274.749439 
L 68.034251 222.186309 
L 71.869783 222.186309 
L 71.869783 219.94958 
L 75.003641 219.94958 
L 75.003641 174.096636 
L 77.653281 174.096636 
L 77.653281 172.978271 
L 79.948502 172.978271 
L 79.948502 171.859907 
L 83.784035 171.859907 
L 83.784035 170.741543 
L 86.917893 170.741543 
L 86.917893 169.623178 
L 88.293717 169.623178 
L 88.293717 168.504814 
L 89.567532 168.504814 
L 89.567532 167.386449 
L 90.753425 167.386449 
L 90.753425 164.031356 
L 91.862754 164.031356 
L 91.862754 162.912991 
L 93.887283 162.912991 
L 93.887283 161.794627 
L 94.816624 161.794627 
L 94.816624 157.321169 
L 95.698286 157.321169 
L 95.698286 155.08444 
L 97.336537 155.08444 
L 97.336537 152.847711 
L 98.832144 152.847711 
L 98.832144 149.492617 
L 99.533818 149.492617 
L 99.533818 141.664066 
L 100.207968 141.664066 
L 100.207968 132.71715 
L 100.856673 132.71715 
L 100.856673 127.125328 
L 101.481783 127.125328 
L 101.481783 117.060047 
L 102.084955 117.060047 
L 102.084955 111.468225 
L 102.667676 111.468225 
L 102.667676 106.994767 
L 108.85563 106.994767 
L 108.85563 105.876403 
L 125.310285 105.876403 
L 125.310285 104.758038 
L 126.496178 104.758038 
L 126.496178 103.639674 
L 138.553074 103.639674 
L 138.553074 102.521309 
L 140.498503 102.521309 
L 140.498503 101.402945 
L 142.809574 101.402945 
L 142.809574 100.28458 
L 144.598384 100.28458 
L 144.598384 99.166216 
L 147.531203 99.166216 
L 147.531203 98.047851 
L 147.782136 98.047851 
L 147.782136 96.929487 
L 148.984628 96.929487 
L 149.061881 86.864206 
L 149.100377 86.864206 
L 149.138788 82.390748 
L 149.215352 82.390748 
L 149.291576 73.443833 
L 149.329562 73.443833 
L 149.405283 61.141823 
L 149.555732 61.141823 
L 149.630465 58.905094 
L 149.66771 58.905094 
L 149.741959 52.194907 
L 149.778964 52.194907 
L 149.778964 47.72145 
L 150.324681 47.72145 
L 150.360453 44.366356 
L 150.888293 44.366356 
L 150.922912 41.011263 
L 151.060698 41.011263 
L 151.060698 39.892898 
L 151.299196 39.892898 
L 151.299196 38.774534 
L 151.799385 38.774534 
L 151.799385 37.656169 
L 152.253451 37.656169 
L 152.34921 30.945982 
L 152.444438 30.945982 
L 152.476064 25.35416 
L 152.726997 25.35416 
L 152.726997 21.999066 
L 152.943598 21.999066 
L 152.943598 20.880702 
L 153.066156 20.880702 
L 153.157504 15.28888 
L 153.187846 15.28888 
L 153.248369 9.697057 
L 333.168 9.697057 
L 333.168 9.697057 
" style="fill:none;stroke:#f5deb3;stroke-linecap:square;stroke-width:4;"/>
   </g>
   <g id="line2d_2">
    <defs>
     <path d="M -0 7.778175 
L 7.778175 0 
L 0 -7.778175 
L -7.778175 -0 
z
" id="mab76fa95e7" style="stroke:#f5deb3;stroke-linejoin:miter;stroke-width:1.5;"/>
    </defs>
    <g>
     <use style="fill:#f5deb3;stroke:#f5deb3;stroke-linejoin:miter;stroke-width:1.5;" x="71.869783" xlink:href="#mab76fa95e7" y="219.94958"/>
     <use style="fill:#f5deb3;stroke:#f5deb3;stroke-linejoin:miter;stroke-width:1.5;" x="102.667676" xlink:href="#mab76fa95e7" y="111.468225"/>
     <use style="fill:#f5deb3;stroke:#f5deb3;stroke-linejoin:miter;stroke-width:1.5;" x="153.248369" xlink:href="#mab76fa95e7" y="10.815422"/>
     <use style="fill:#f5deb3;stroke:#f5deb3;stroke-linejoin:miter;stroke-width:1.5;" x="153.248369" xlink:href="#mab76fa95e7" y="9.697057"/>
     <use style="fill:#f5deb3;stroke:#f5deb3;stroke-linejoin:miter;stroke-width:1.5;" x="153.248369" xlink:href="#mab76fa95e7" y="9.697057"/>
     <use style="fill:#f5deb3;stroke:#f5deb3;stroke-linejoin:miter;stroke-width:1.5;" x="333.168" xlink:href="#mab76fa95e7" y="9.697057"/>
    </g>
   </g>
   <g id="line2d_3">
    <path style="fill:none;stroke:#f5deb3;stroke-linecap:square;stroke-width:4;"/>
    <g/>
   </g>
   <g id="line2d_4">
    <path d="M 333.168 9.697057 
L 363.64328 15.400716 
" style="fill:none;stroke:#f5deb3;stroke-linecap:square;stroke-width:4;"/>
    <g>
     <use style="fill:#f5deb3;stroke:#f5deb3;stroke-linejoin:miter;stroke-width:1.5;" x="333.168" xlink:href="#mab76fa95e7" y="9.697057"/>
     <use style="fill:#f5deb3;stroke:#f5deb3;stroke-linejoin:miter;stroke-width:1.5;" x="363.64328" xlink:href="#mab76fa95e7" y="15.400716"/>
    </g>
   </g>
   <g id="matplotlib.axis_1">
    <g id="xtick_1">
     <g id="line2d_5">
      <path clip-path="url(#p585cd15fa0)" d="M 56.12 294.88 
L 56.12 6.845228 
" style="fill:none;stroke:#b0b0b0;stroke-linecap:square;stroke-width:0.8;"/>
     </g>
     <g id="line2d_6">
      <defs>
       <path d="M 0 0 
L 0 3.5 
" id="m49d0863371" style="stroke:#000000;stroke-width:0.8;"/>
      </defs>
      <g>
       <use style="stroke:#000000;stroke-width:0.8;" x="56.12" xlink:href="#m49d0863371" y="294.88"/>
      </g>
     </g>
     <g id="text_1">
      <!-- 0 -->
      <defs>
       <path d="M 31.78125 66.40625 
Q 24.171875 66.40625 20.328125 58.90625 
Q 16.5 51.421875 16.5 36.375 
Q 16.5 21.390625 20.328125 13.890625 
Q 24.171875 6.390625 31.78125 6.390625 
Q 39.453125 6.390625 43.28125 13.890625 
Q 47.125 21.390625 47.125 36.375 
Q 47.125 51.421875 43.28125 58.90625 
Q 39.453125 66.40625 31.78125 66.40625 
z
M 31.78125 74.21875 
Q 44.046875 74.21875 50.515625 64.515625 
Q 56.984375 54.828125 56.984375 36.375 
Q 56.984375 17.96875 50.515625 8.265625 
Q 44.046875 -1.421875 31.78125 -1.421875 
Q 19.53125 -1.421875 13.0625 8.265625 
Q 6.59375 17.96875 6.59375 36.375 
Q 6.59375 54.828125 13.0625 64.515625 
Q 19.53125 74.21875 31.78125 74.21875 
z
" id="DejaVuSans-30"/>
      </defs>
      <g transform="translate(49.7575 317.076875)scale(0.2 -0.2)">
       <use xlink:href="#DejaVuSans-30"/>
      </g>
     </g>
    </g>
    <g id="xtick_2">
     <g id="line2d_7">
      <path clip-path="url(#p585cd15fa0)" d="M 135.276571 294.88 
L 135.276571 6.845228 
" style="fill:none;stroke:#b0b0b0;stroke-linecap:square;stroke-width:0.8;"/>
     </g>
     <g id="line2d_8">
      <g>
       <use style="stroke:#000000;stroke-width:0.8;" x="135.276571" xlink:href="#m49d0863371" y="294.88"/>
      </g>
     </g>
     <g id="text_2">
      <!-- 2 -->
      <defs>
       <path d="M 19.1875 8.296875 
L 53.609375 8.296875 
L 53.609375 0 
L 7.328125 0 
L 7.328125 8.296875 
Q 12.9375 14.109375 22.625 23.890625 
Q 32.328125 33.6875 34.8125 36.53125 
Q 39.546875 41.84375 41.421875 45.53125 
Q 43.3125 49.21875 43.3125 52.78125 
Q 43.3125 58.59375 39.234375 62.25 
Q 35.15625 65.921875 28.609375 65.921875 
Q 23.96875 65.921875 18.8125 64.3125 
Q 13.671875 62.703125 7.8125 59.421875 
L 7.8125 69.390625 
Q 13.765625 71.78125 18.9375 73 
Q 24.125 74.21875 28.421875 74.21875 
Q 39.75 74.21875 46.484375 68.546875 
Q 53.21875 62.890625 53.21875 53.421875 
Q 53.21875 48.921875 51.53125 44.890625 
Q 49.859375 40.875 45.40625 35.40625 
Q 44.1875 33.984375 37.640625 27.21875 
Q 31.109375 20.453125 19.1875 8.296875 
z
" id="DejaVuSans-32"/>
      </defs>
      <g transform="translate(128.914071 317.076875)scale(0.2 -0.2)">
       <use xlink:href="#DejaVuSans-32"/>
      </g>
     </g>
    </g>
    <g id="xtick_3">
     <g id="line2d_9">
      <path clip-path="url(#p585cd15fa0)" d="M 214.433143 294.88 
L 214.433143 6.845228 
" style="fill:none;stroke:#b0b0b0;stroke-linecap:square;stroke-width:0.8;"/>
     </g>
     <g id="line2d_10">
      <g>
       <use style="stroke:#000000;stroke-width:0.8;" x="214.433143" xlink:href="#m49d0863371" y="294.88"/>
      </g>
     </g>
     <g id="text_3">
      <!-- 4 -->
      <defs>
       <path d="M 37.796875 64.3125 
L 12.890625 25.390625 
L 37.796875 25.390625 
z
M 35.203125 72.90625 
L 47.609375 72.90625 
L 47.609375 25.390625 
L 58.015625 25.390625 
L 58.015625 17.1875 
L 47.609375 17.1875 
L 47.609375 0 
L 37.796875 0 
L 37.796875 17.1875 
L 4.890625 17.1875 
L 4.890625 26.703125 
z
" id="DejaVuSans-34"/>
      </defs>
      <g transform="translate(208.070643 317.076875)scale(0.2 -0.2)">
       <use xlink:href="#DejaVuSans-34"/>
      </g>
     </g>
    </g>
    <g id="xtick_4">
     <g id="line2d_11">
      <path clip-path="url(#p585cd15fa0)" d="M 293.589714 294.88 
L 293.589714 6.845228 
" style="fill:none;stroke:#b0b0b0;stroke-linecap:square;stroke-width:0.8;"/>
     </g>
     <g id="line2d_12">
      <g>
       <use style="stroke:#000000;stroke-width:0.8;" x="293.589714" xlink:href="#m49d0863371" y="294.88"/>
      </g>
     </g>
     <g id="text_4">
      <!-- 6 -->
      <defs>
       <path d="M 33.015625 40.375 
Q 26.375 40.375 22.484375 35.828125 
Q 18.609375 31.296875 18.609375 23.390625 
Q 18.609375 15.53125 22.484375 10.953125 
Q 26.375 6.390625 33.015625 6.390625 
Q 39.65625 6.390625 43.53125 10.953125 
Q 47.40625 15.53125 47.40625 23.390625 
Q 47.40625 31.296875 43.53125 35.828125 
Q 39.65625 40.375 33.015625 40.375 
z
M 52.59375 71.296875 
L 52.59375 62.3125 
Q 48.875 64.0625 45.09375 64.984375 
Q 41.3125 65.921875 37.59375 65.921875 
Q 27.828125 65.921875 22.671875 59.328125 
Q 17.53125 52.734375 16.796875 39.40625 
Q 19.671875 43.65625 24.015625 45.921875 
Q 28.375 48.1875 33.59375 48.1875 
Q 44.578125 48.1875 50.953125 41.515625 
Q 57.328125 34.859375 57.328125 23.390625 
Q 57.328125 12.15625 50.6875 5.359375 
Q 44.046875 -1.421875 33.015625 -1.421875 
Q 20.359375 -1.421875 13.671875 8.265625 
Q 6.984375 17.96875 6.984375 36.375 
Q 6.984375 53.65625 15.1875 63.9375 
Q 23.390625 74.21875 37.203125 74.21875 
Q 40.921875 74.21875 44.703125 73.484375 
Q 48.484375 72.75 52.59375 71.296875 
z
" id="DejaVuSans-36"/>
      </defs>
      <g transform="translate(287.227214 317.076875)scale(0.2 -0.2)">
       <use xlink:href="#DejaVuSans-36"/>
      </g>
     </g>
    </g>
    <g id="xtick_5">
     <g id="line2d_13">
      <path clip-path="url(#p585cd15fa0)" d="M 56.12 294.88 
L 56.12 6.845228 
" style="fill:none;stroke:#b0b0b0;stroke-linecap:square;stroke-width:0.8;"/>
     </g>
     <g id="line2d_14">
      <defs>
       <path d="M 0 0 
L 0 2 
" id="mc9d67d4a88" style="stroke:#000000;stroke-width:0.6;"/>
      </defs>
      <g>
       <use style="stroke:#000000;stroke-width:0.6;" x="56.12" xlink:href="#mc9d67d4a88" y="294.88"/>
      </g>
     </g>
    </g>
    <g id="xtick_6">
     <g id="line2d_15">
      <path clip-path="url(#p585cd15fa0)" d="M 95.698286 294.88 
L 95.698286 6.845228 
" style="fill:none;stroke:#b0b0b0;stroke-linecap:square;stroke-width:0.8;"/>
     </g>
     <g id="line2d_16">
      <g>
       <use style="stroke:#000000;stroke-width:0.6;" x="95.698286" xlink:href="#mc9d67d4a88" y="294.88"/>
      </g>
     </g>
    </g>
    <g id="xtick_7">
     <g id="line2d_17">
      <path clip-path="url(#p585cd15fa0)" d="M 135.276571 294.88 
L 135.276571 6.845228 
" style="fill:none;stroke:#b0b0b0;stroke-linecap:square;stroke-width:0.8;"/>
     </g>
     <g id="line2d_18">
      <g>
       <use style="stroke:#000000;stroke-width:0.6;" x="135.276571" xlink:href="#mc9d67d4a88" y="294.88"/>
      </g>
     </g>
    </g>
    <g id="xtick_8">
     <g id="line2d_19">
      <path clip-path="url(#p585cd15fa0)" d="M 174.854857 294.88 
L 174.854857 6.845228 
" style="fill:none;stroke:#b0b0b0;stroke-linecap:square;stroke-width:0.8;"/>
     </g>
     <g id="line2d_20">
      <g>
       <use style="stroke:#000000;stroke-width:0.6;" x="174.854857" xlink:href="#mc9d67d4a88" y="294.88"/>
      </g>
     </g>
    </g>
    <g id="xtick_9">
     <g id="line2d_21">
      <path clip-path="url(#p585cd15fa0)" d="M 214.433143 294.88 
L 214.433143 6.845228 
" style="fill:none;stroke:#b0b0b0;stroke-linecap:square;stroke-width:0.8;"/>
     </g>
     <g id="line2d_22">
      <g>
       <use style="stroke:#000000;stroke-width:0.6;" x="214.433143" xlink:href="#mc9d67d4a88" y="294.88"/>
      </g>
     </g>
    </g>
    <g id="xtick_10">
     <g id="line2d_23">
      <path clip-path="url(#p585cd15fa0)" d="M 254.011429 294.88 
L 254.011429 6.845228 
" style="fill:none;stroke:#b0b0b0;stroke-linecap:square;stroke-width:0.8;"/>
     </g>
     <g id="line2d_24">
      <g>
       <use style="stroke:#000000;stroke-width:0.6;" x="254.011429" xlink:href="#mc9d67d4a88" y="294.88"/>
      </g>
     </g>
    </g>
    <g id="xtick_11">
     <g id="line2d_25">
      <path clip-path="url(#p585cd15fa0)" d="M 293.589714 294.88 
L 293.589714 6.845228 
" style="fill:none;stroke:#b0b0b0;stroke-linecap:square;stroke-width:0.8;"/>
     </g>
     <g id="line2d_26">
      <g>
       <use style="stroke:#000000;stroke-width:0.6;" x="293.589714" xlink:href="#mc9d67d4a88" y="294.88"/>
      </g>
     </g>
    </g>
    <g id="xtick_12">
     <g id="line2d_27">
      <path clip-path="url(#p585cd15fa0)" d="M 333.168 294.88 
L 333.168 6.845228 
" style="fill:none;stroke:#b0b0b0;stroke-linecap:square;stroke-width:0.8;"/>
     </g>
     <g id="line2d_28">
      <g>
       <use style="stroke:#000000;stroke-width:0.6;" x="333.168" xlink:href="#mc9d67d4a88" y="294.88"/>
      </g>
     </g>
    </g>
    <g id="text_5">
     <!-- log10(# f-evals / dimension) -->
     <defs>
      <path d="M 9.421875 75.984375 
L 18.40625 75.984375 
L 18.40625 0 
L 9.421875 0 
z
" id="DejaVuSans-6c"/>
      <path d="M 30.609375 48.390625 
Q 23.390625 48.390625 19.1875 42.75 
Q 14.984375 37.109375 14.984375 27.296875 
Q 14.984375 17.484375 19.15625 11.84375 
Q 23.34375 6.203125 30.609375 6.203125 
Q 37.796875 6.203125 41.984375 11.859375 
Q 46.1875 17.53125 46.1875 27.296875 
Q 46.1875 37.015625 41.984375 42.703125 
Q 37.796875 48.390625 30.609375 48.390625 
z
M 30.609375 56 
Q 42.328125 56 49.015625 48.375 
Q 55.71875 40.765625 55.71875 27.296875 
Q 55.71875 13.875 49.015625 6.21875 
Q 42.328125 -1.421875 30.609375 -1.421875 
Q 18.84375 -1.421875 12.171875 6.21875 
Q 5.515625 13.875 5.515625 27.296875 
Q 5.515625 40.765625 12.171875 48.375 
Q 18.84375 56 30.609375 56 
z
" id="DejaVuSans-6f"/>
      <path d="M 45.40625 27.984375 
Q 45.40625 37.75 41.375 43.109375 
Q 37.359375 48.484375 30.078125 48.484375 
Q 22.859375 48.484375 18.828125 43.109375 
Q 14.796875 37.75 14.796875 27.984375 
Q 14.796875 18.265625 18.828125 12.890625 
Q 22.859375 7.515625 30.078125 7.515625 
Q 37.359375 7.515625 41.375 12.890625 
Q 45.40625 18.265625 45.40625 27.984375 
z
M 54.390625 6.78125 
Q 54.390625 -7.171875 48.1875 -13.984375 
Q 42 -20.796875 29.203125 -20.796875 
Q 24.46875 -20.796875 20.265625 -20.09375 
Q 16.0625 -19.390625 12.109375 -17.921875 
L 12.109375 -9.1875 
Q 16.0625 -11.328125 19.921875 -12.34375 
Q 23.78125 -13.375 27.78125 -13.375 
Q 36.625 -13.375 41.015625 -8.765625 
Q 45.40625 -4.15625 45.40625 5.171875 
L 45.40625 9.625 
Q 42.625 4.78125 38.28125 2.390625 
Q 33.9375 0 27.875 0 
Q 17.828125 0 11.671875 7.65625 
Q 5.515625 15.328125 5.515625 27.984375 
Q 5.515625 40.671875 11.671875 48.328125 
Q 17.828125 56 27.875 56 
Q 33.9375 56 38.28125 53.609375 
Q 42.625 51.21875 45.40625 46.390625 
L 45.40625 54.6875 
L 54.390625 54.6875 
z
" id="DejaVuSans-67"/>
      <path d="M 12.40625 8.296875 
L 28.515625 8.296875 
L 28.515625 63.921875 
L 10.984375 60.40625 
L 10.984375 69.390625 
L 28.421875 72.90625 
L 38.28125 72.90625 
L 38.28125 8.296875 
L 54.390625 8.296875 
L 54.390625 0 
L 12.40625 0 
z
" id="DejaVuSans-31"/>
      <path d="M 31 75.875 
Q 24.46875 64.65625 21.28125 53.65625 
Q 18.109375 42.671875 18.109375 31.390625 
Q 18.109375 20.125 21.3125 9.0625 
Q 24.515625 -2 31 -13.1875 
L 23.1875 -13.1875 
Q 15.875 -1.703125 12.234375 9.375 
Q 8.59375 20.453125 8.59375 31.390625 
Q 8.59375 42.28125 12.203125 53.3125 
Q 15.828125 64.359375 23.1875 75.875 
z
" id="DejaVuSans-28"/>
      <path d="M 51.125 44 
L 36.921875 44 
L 32.8125 27.6875 
L 47.125 27.6875 
z
M 43.796875 71.78125 
L 38.71875 51.515625 
L 52.984375 51.515625 
L 58.109375 71.78125 
L 65.921875 71.78125 
L 60.890625 51.515625 
L 76.125 51.515625 
L 76.125 44 
L 58.984375 44 
L 54.984375 27.6875 
L 70.515625 27.6875 
L 70.515625 20.21875 
L 53.078125 20.21875 
L 48 0 
L 40.1875 0 
L 45.21875 20.21875 
L 30.90625 20.21875 
L 25.875 0 
L 18.015625 0 
L 23.09375 20.21875 
L 7.71875 20.21875 
L 7.71875 27.6875 
L 24.90625 27.6875 
L 29 44 
L 13.28125 44 
L 13.28125 51.515625 
L 30.90625 51.515625 
L 35.890625 71.78125 
z
" id="DejaVuSans-23"/>
      <path id="DejaVuSans-20"/>
      <path d="M 37.109375 75.984375 
L 37.109375 68.5 
L 28.515625 68.5 
Q 23.6875 68.5 21.796875 66.546875 
Q 19.921875 64.59375 19.921875 59.515625 
L 19.921875 54.6875 
L 34.71875 54.6875 
L 34.71875 47.703125 
L 19.921875 47.703125 
L 19.921875 0 
L 10.890625 0 
L 10.890625 47.703125 
L 2.296875 47.703125 
L 2.296875 54.6875 
L 10.890625 54.6875 
L 10.890625 58.5 
Q 10.890625 67.625 15.140625 71.796875 
Q 19.390625 75.984375 28.609375 75.984375 
z
" id="DejaVuSans-66"/>
      <path d="M 4.890625 31.390625 
L 31.203125 31.390625 
L 31.203125 23.390625 
L 4.890625 23.390625 
z
" id="DejaVuSans-2d"/>
      <path d="M 56.203125 29.59375 
L 56.203125 25.203125 
L 14.890625 25.203125 
Q 15.484375 15.921875 20.484375 11.0625 
Q 25.484375 6.203125 34.421875 6.203125 
Q 39.59375 6.203125 44.453125 7.46875 
Q 49.3125 8.734375 54.109375 11.28125 
L 54.109375 2.78125 
Q 49.265625 0.734375 44.1875 -0.34375 
Q 39.109375 -1.421875 33.890625 -1.421875 
Q 20.796875 -1.421875 13.15625 6.1875 
Q 5.515625 13.8125 5.515625 26.8125 
Q 5.515625 40.234375 12.765625 48.109375 
Q 20.015625 56 32.328125 56 
Q 43.359375 56 49.78125 48.890625 
Q 56.203125 41.796875 56.203125 29.59375 
z
M 47.21875 32.234375 
Q 47.125 39.59375 43.09375 43.984375 
Q 39.0625 48.390625 32.421875 48.390625 
Q 24.90625 48.390625 20.390625 44.140625 
Q 15.875 39.890625 15.1875 32.171875 
z
" id="DejaVuSans-65"/>
      <path d="M 2.984375 54.6875 
L 12.5 54.6875 
L 29.59375 8.796875 
L 46.6875 54.6875 
L 56.203125 54.6875 
L 35.6875 0 
L 23.484375 0 
z
" id="DejaVuSans-76"/>
      <path d="M 34.28125 27.484375 
Q 23.390625 27.484375 19.1875 25 
Q 14.984375 22.515625 14.984375 16.5 
Q 14.984375 11.71875 18.140625 8.90625 
Q 21.296875 6.109375 26.703125 6.109375 
Q 34.1875 6.109375 38.703125 11.40625 
Q 43.21875 16.703125 43.21875 25.484375 
L 43.21875 27.484375 
z
M 52.203125 31.203125 
L 52.203125 0 
L 43.21875 0 
L 43.21875 8.296875 
Q 40.140625 3.328125 35.546875 0.953125 
Q 30.953125 -1.421875 24.3125 -1.421875 
Q 15.921875 -1.421875 10.953125 3.296875 
Q 6 8.015625 6 15.921875 
Q 6 25.140625 12.171875 29.828125 
Q 18.359375 34.515625 30.609375 34.515625 
L 43.21875 34.515625 
L 43.21875 35.40625 
Q 43.21875 41.609375 39.140625 45 
Q 35.0625 48.390625 27.6875 48.390625 
Q 23 48.390625 18.546875 47.265625 
Q 14.109375 46.140625 10.015625 43.890625 
L 10.015625 52.203125 
Q 14.9375 54.109375 19.578125 55.046875 
Q 24.21875 56 28.609375 56 
Q 40.484375 56 46.34375 49.84375 
Q 52.203125 43.703125 52.203125 31.203125 
z
" id="DejaVuSans-61"/>
      <path d="M 44.28125 53.078125 
L 44.28125 44.578125 
Q 40.484375 46.53125 36.375 47.5 
Q 32.28125 48.484375 27.875 48.484375 
Q 21.1875 48.484375 17.84375 46.4375 
Q 14.5 44.390625 14.5 40.28125 
Q 14.5 37.15625 16.890625 35.375 
Q 19.28125 33.59375 26.515625 31.984375 
L 29.59375 31.296875 
Q 39.15625 29.25 43.1875 25.515625 
Q 47.21875 21.78125 47.21875 15.09375 
Q 47.21875 7.46875 41.1875 3.015625 
Q 35.15625 -1.421875 24.609375 -1.421875 
Q 20.21875 -1.421875 15.453125 -0.5625 
Q 10.6875 0.296875 5.421875 2 
L 5.421875 11.28125 
Q 10.40625 8.6875 15.234375 7.390625 
Q 20.0625 6.109375 24.8125 6.109375 
Q 31.15625 6.109375 34.5625 8.28125 
Q 37.984375 10.453125 37.984375 14.40625 
Q 37.984375 18.0625 35.515625 20.015625 
Q 33.0625 21.96875 24.703125 23.78125 
L 21.578125 24.515625 
Q 13.234375 26.265625 9.515625 29.90625 
Q 5.8125 33.546875 5.8125 39.890625 
Q 5.8125 47.609375 11.28125 51.796875 
Q 16.75 56 26.8125 56 
Q 31.78125 56 36.171875 55.265625 
Q 40.578125 54.546875 44.28125 53.078125 
z
" id="DejaVuSans-73"/>
      <path d="M 25.390625 72.90625 
L 33.6875 72.90625 
L 8.296875 -9.28125 
L 0 -9.28125 
z
" id="DejaVuSans-2f"/>
      <path d="M 45.40625 46.390625 
L 45.40625 75.984375 
L 54.390625 75.984375 
L 54.390625 0 
L 45.40625 0 
L 45.40625 8.203125 
Q 42.578125 3.328125 38.25 0.953125 
Q 33.9375 -1.421875 27.875 -1.421875 
Q 17.96875 -1.421875 11.734375 6.484375 
Q 5.515625 14.40625 5.515625 27.296875 
Q 5.515625 40.1875 11.734375 48.09375 
Q 17.96875 56 27.875 56 
Q 33.9375 56 38.25 53.625 
Q 42.578125 51.265625 45.40625 46.390625 
z
M 14.796875 27.296875 
Q 14.796875 17.390625 18.875 11.75 
Q 22.953125 6.109375 30.078125 6.109375 
Q 37.203125 6.109375 41.296875 11.75 
Q 45.40625 17.390625 45.40625 27.296875 
Q 45.40625 37.203125 41.296875 42.84375 
Q 37.203125 48.484375 30.078125 48.484375 
Q 22.953125 48.484375 18.875 42.84375 
Q 14.796875 37.203125 14.796875 27.296875 
z
" id="DejaVuSans-64"/>
      <path d="M 9.421875 54.6875 
L 18.40625 54.6875 
L 18.40625 0 
L 9.421875 0 
z
M 9.421875 75.984375 
L 18.40625 75.984375 
L 18.40625 64.59375 
L 9.421875 64.59375 
z
" id="DejaVuSans-69"/>
      <path d="M 52 44.1875 
Q 55.375 50.25 60.0625 53.125 
Q 64.75 56 71.09375 56 
Q 79.640625 56 84.28125 50.015625 
Q 88.921875 44.046875 88.921875 33.015625 
L 88.921875 0 
L 79.890625 0 
L 79.890625 32.71875 
Q 79.890625 40.578125 77.09375 44.375 
Q 74.3125 48.1875 68.609375 48.1875 
Q 61.625 48.1875 57.5625 43.546875 
Q 53.515625 38.921875 53.515625 30.90625 
L 53.515625 0 
L 44.484375 0 
L 44.484375 32.71875 
Q 44.484375 40.625 41.703125 44.40625 
Q 38.921875 48.1875 33.109375 48.1875 
Q 26.21875 48.1875 22.15625 43.53125 
Q 18.109375 38.875 18.109375 30.90625 
L 18.109375 0 
L 9.078125 0 
L 9.078125 54.6875 
L 18.109375 54.6875 
L 18.109375 46.1875 
Q 21.1875 51.21875 25.484375 53.609375 
Q 29.78125 56 35.6875 56 
Q 41.65625 56 45.828125 52.96875 
Q 50 49.953125 52 44.1875 
z
" id="DejaVuSans-6d"/>
      <path d="M 54.890625 33.015625 
L 54.890625 0 
L 45.90625 0 
L 45.90625 32.71875 
Q 45.90625 40.484375 42.875 44.328125 
Q 39.84375 48.1875 33.796875 48.1875 
Q 26.515625 48.1875 22.3125 43.546875 
Q 18.109375 38.921875 18.109375 30.90625 
L 18.109375 0 
L 9.078125 0 
L 9.078125 54.6875 
L 18.109375 54.6875 
L 18.109375 46.1875 
Q 21.34375 51.125 25.703125 53.5625 
Q 30.078125 56 35.796875 56 
Q 45.21875 56 50.046875 50.171875 
Q 54.890625 44.34375 54.890625 33.015625 
z
" id="DejaVuSans-6e"/>
      <path d="M 8.015625 75.875 
L 15.828125 75.875 
Q 23.140625 64.359375 26.78125 53.3125 
Q 30.421875 42.28125 30.421875 31.390625 
Q 30.421875 20.453125 26.78125 9.375 
Q 23.140625 -1.703125 15.828125 -13.1875 
L 8.015625 -13.1875 
Q 14.5 -2 17.703125 9.0625 
Q 20.90625 20.125 20.90625 31.390625 
Q 20.90625 42.671875 17.703125 53.65625 
Q 14.5 64.65625 8.015625 75.875 
z
" id="DejaVuSans-29"/>
     </defs>
     <g transform="translate(73.803219 338.153594)scale(0.17 -0.17)">
      <use xlink:href="#DejaVuSans-6c"/>
      <use x="27.783203" xlink:href="#DejaVuSans-6f"/>
      <use x="88.964844" xlink:href="#DejaVuSans-67"/>
      <use x="152.441406" xlink:href="#DejaVuSans-31"/>
      <use x="216.064453" xlink:href="#DejaVuSans-30"/>
      <use x="279.6875" xlink:href="#DejaVuSans-28"/>
      <use x="318.701172" xlink:href="#DejaVuSans-23"/>
      <use x="402.490234" xlink:href="#DejaVuSans-20"/>
      <use x="434.277344" xlink:href="#DejaVuSans-66"/>
      <use x="469.404297" xlink:href="#DejaVuSans-2d"/>
      <use x="505.488281" xlink:href="#DejaVuSans-65"/>
      <use x="567.011719" xlink:href="#DejaVuSans-76"/>
      <use x="626.191406" xlink:href="#DejaVuSans-61"/>
      <use x="687.470703" xlink:href="#DejaVuSans-6c"/>
      <use x="715.253906" xlink:href="#DejaVuSans-73"/>
      <use x="767.353516" xlink:href="#DejaVuSans-20"/>
      <use x="799.140625" xlink:href="#DejaVuSans-2f"/>
      <use x="832.832031" xlink:href="#DejaVuSans-20"/>
      <use x="864.619141" xlink:href="#DejaVuSans-64"/>
      <use x="928.095703" xlink:href="#DejaVuSans-69"/>
      <use x="955.878906" xlink:href="#DejaVuSans-6d"/>
      <use x="1053.291016" xlink:href="#DejaVuSans-65"/>
      <use x="1114.814453" xlink:href="#DejaVuSans-6e"/>
      <use x="1178.193359" xlink:href="#DejaVuSans-73"/>
      <use x="1230.292969" xlink:href="#DejaVuSans-69"/>
      <use x="1258.076172" xlink:href="#DejaVuSans-6f"/>
      <use x="1319.257812" xlink:href="#DejaVuSans-6e"/>
      <use x="1382.636719" xlink:href="#DejaVuSans-29"/>
     </g>
    </g>
   </g>
   <g id="matplotlib.axis_2">
    <g id="ytick_1">
     <g id="line2d_29">
      <path clip-path="url(#p585cd15fa0)" d="M 56.12 294.88 
L 333.168 294.88 
" style="fill:none;stroke:#b0b0b0;stroke-linecap:square;stroke-width:0.8;"/>
     </g>
     <g id="line2d_30">
      <defs>
       <path d="M 0 0 
L -3.5 0 
" id="maa7088ff83" style="stroke:#000000;stroke-width:0.8;"/>
      </defs>
      <g>
       <use style="stroke:#000000;stroke-width:0.8;" x="56.12" xlink:href="#maa7088ff83" y="294.88"/>
      </g>
     </g>
     <g id="text_6">
      <!-- 0.0 -->
      <defs>
       <path d="M 10.6875 12.40625 
L 21 12.40625 
L 21 0 
L 10.6875 0 
z
" id="DejaVuSans-2e"/>
      </defs>
      <g transform="translate(23.675 300.95875)scale(0.16 -0.16)">
       <use xlink:href="#DejaVuSans-30"/>
       <use x="63.623047" xlink:href="#DejaVuSans-2e"/>
       <use x="95.410156" xlink:href="#DejaVuSans-30"/>
      </g>
     </g>
    </g>
    <g id="ytick_2">
     <g id="line2d_31">
      <path clip-path="url(#p585cd15fa0)" d="M 56.12 237.843411 
L 333.168 237.843411 
" style="fill:none;stroke:#b0b0b0;stroke-linecap:square;stroke-width:0.8;"/>
     </g>
     <g id="line2d_32">
      <g>
       <use style="stroke:#000000;stroke-width:0.8;" x="56.12" xlink:href="#maa7088ff83" y="237.843411"/>
      </g>
     </g>
     <g id="text_7">
      <!-- 0.2 -->
      <g transform="translate(23.675 243.922161)scale(0.16 -0.16)">
       <use xlink:href="#DejaVuSans-30"/>
       <use x="63.623047" xlink:href="#DejaVuSans-2e"/>
       <use x="95.410156" xlink:href="#DejaVuSans-32"/>
      </g>
     </g>
    </g>
    <g id="ytick_3">
     <g id="line2d_33">
      <path clip-path="url(#p585cd15fa0)" d="M 56.12 180.806823 
L 333.168 180.806823 
" style="fill:none;stroke:#b0b0b0;stroke-linecap:square;stroke-width:0.8;"/>
     </g>
     <g id="line2d_34">
      <g>
       <use style="stroke:#000000;stroke-width:0.8;" x="56.12" xlink:href="#maa7088ff83" y="180.806823"/>
      </g>
     </g>
     <g id="text_8">
      <!-- 0.4 -->
      <g transform="translate(23.675 186.885573)scale(0.16 -0.16)">
       <use xlink:href="#DejaVuSans-30"/>
       <use x="63.623047" xlink:href="#DejaVuSans-2e"/>
       <use x="95.410156" xlink:href="#DejaVuSans-34"/>
      </g>
     </g>
    </g>
    <g id="ytick_4">
     <g id="line2d_35">
      <path clip-path="url(#p585cd15fa0)" d="M 56.12 123.770234 
L 333.168 123.770234 
" style="fill:none;stroke:#b0b0b0;stroke-linecap:square;stroke-width:0.8;"/>
     </g>
     <g id="line2d_36">
      <g>
       <use style="stroke:#000000;stroke-width:0.8;" x="56.12" xlink:href="#maa7088ff83" y="123.770234"/>
      </g>
     </g>
     <g id="text_9">
      <!-- 0.6 -->
      <g transform="translate(23.675 129.848984)scale(0.16 -0.16)">
       <use xlink:href="#DejaVuSans-30"/>
       <use x="63.623047" xlink:href="#DejaVuSans-2e"/>
       <use x="95.410156" xlink:href="#DejaVuSans-36"/>
      </g>
     </g>
    </g>
    <g id="ytick_5">
     <g id="line2d_37">
      <path clip-path="url(#p585cd15fa0)" d="M 56.12 66.733646 
L 333.168 66.733646 
" style="fill:none;stroke:#b0b0b0;stroke-linecap:square;stroke-width:0.8;"/>
     </g>
     <g id="line2d_38">
      <g>
       <use style="stroke:#000000;stroke-width:0.8;" x="56.12" xlink:href="#maa7088ff83" y="66.733646"/>
      </g>
     </g>
     <g id="text_10">
      <!-- 0.8 -->
      <defs>
       <path d="M 31.78125 34.625 
Q 24.75 34.625 20.71875 30.859375 
Q 16.703125 27.09375 16.703125 20.515625 
Q 16.703125 13.921875 20.71875 10.15625 
Q 24.75 6.390625 31.78125 6.390625 
Q 38.8125 6.390625 42.859375 10.171875 
Q 46.921875 13.96875 46.921875 20.515625 
Q 46.921875 27.09375 42.890625 30.859375 
Q 38.875 34.625 31.78125 34.625 
z
M 21.921875 38.8125 
Q 15.578125 40.375 12.03125 44.71875 
Q 8.5 49.078125 8.5 55.328125 
Q 8.5 64.0625 14.71875 69.140625 
Q 20.953125 74.21875 31.78125 74.21875 
Q 42.671875 74.21875 48.875 69.140625 
Q 55.078125 64.0625 55.078125 55.328125 
Q 55.078125 49.078125 51.53125 44.71875 
Q 48 40.375 41.703125 38.8125 
Q 48.828125 37.15625 52.796875 32.3125 
Q 56.78125 27.484375 56.78125 20.515625 
Q 56.78125 9.90625 50.3125 4.234375 
Q 43.84375 -1.421875 31.78125 -1.421875 
Q 19.734375 -1.421875 13.25 4.234375 
Q 6.78125 9.90625 6.78125 20.515625 
Q 6.78125 27.484375 10.78125 32.3125 
Q 14.796875 37.15625 21.921875 38.8125 
z
M 18.3125 54.390625 
Q 18.3125 48.734375 21.84375 45.5625 
Q 25.390625 42.390625 31.78125 42.390625 
Q 38.140625 42.390625 41.71875 45.5625 
Q 45.3125 48.734375 45.3125 54.390625 
Q 45.3125 60.0625 41.71875 63.234375 
Q 38.140625 66.40625 31.78125 66.40625 
Q 25.390625 66.40625 21.84375 63.234375 
Q 18.3125 60.0625 18.3125 54.390625 
z
" id="DejaVuSans-38"/>
      </defs>
      <g transform="translate(23.675 72.812396)scale(0.16 -0.16)">
       <use xlink:href="#DejaVuSans-30"/>
       <use x="63.623047" xlink:href="#DejaVuSans-2e"/>
       <use x="95.410156" xlink:href="#DejaVuSans-38"/>
      </g>
     </g>
    </g>
    <g id="ytick_6">
     <g id="line2d_39">
      <path clip-path="url(#p585cd15fa0)" d="M 56.12 9.697057 
L 333.168 9.697057 
" style="fill:none;stroke:#b0b0b0;stroke-linecap:square;stroke-width:0.8;"/>
     </g>
     <g id="line2d_40">
      <g>
       <use style="stroke:#000000;stroke-width:0.8;" x="56.12" xlink:href="#maa7088ff83" y="9.697057"/>
      </g>
     </g>
     <g id="text_11">
      <!-- 1.0 -->
      <g transform="translate(23.675 15.775807)scale(0.16 -0.16)">
       <use xlink:href="#DejaVuSans-31"/>
       <use x="63.623047" xlink:href="#DejaVuSans-2e"/>
       <use x="95.410156" xlink:href="#DejaVuSans-30"/>
      </g>
     </g>
    </g>
    <g id="text_12">
     <!-- Fraction of function,target pairs -->
     <defs>
      <path d="M 9.8125 72.90625 
L 51.703125 72.90625 
L 51.703125 64.59375 
L 19.671875 64.59375 
L 19.671875 43.109375 
L 48.578125 43.109375 
L 48.578125 34.8125 
L 19.671875 34.8125 
L 19.671875 0 
L 9.8125 0 
z
" id="DejaVuSans-46"/>
      <path d="M 41.109375 46.296875 
Q 39.59375 47.171875 37.8125 47.578125 
Q 36.03125 48 33.890625 48 
Q 26.265625 48 22.1875 43.046875 
Q 18.109375 38.09375 18.109375 28.8125 
L 18.109375 0 
L 9.078125 0 
L 9.078125 54.6875 
L 18.109375 54.6875 
L 18.109375 46.1875 
Q 20.953125 51.171875 25.484375 53.578125 
Q 30.03125 56 36.53125 56 
Q 37.453125 56 38.578125 55.875 
Q 39.703125 55.765625 41.0625 55.515625 
z
" id="DejaVuSans-72"/>
      <path d="M 48.78125 52.59375 
L 48.78125 44.1875 
Q 44.96875 46.296875 41.140625 47.34375 
Q 37.3125 48.390625 33.40625 48.390625 
Q 24.65625 48.390625 19.8125 42.84375 
Q 14.984375 37.3125 14.984375 27.296875 
Q 14.984375 17.28125 19.8125 11.734375 
Q 24.65625 6.203125 33.40625 6.203125 
Q 37.3125 6.203125 41.140625 7.25 
Q 44.96875 8.296875 48.78125 10.40625 
L 48.78125 2.09375 
Q 45.015625 0.34375 40.984375 -0.53125 
Q 36.96875 -1.421875 32.421875 -1.421875 
Q 20.0625 -1.421875 12.78125 6.34375 
Q 5.515625 14.109375 5.515625 27.296875 
Q 5.515625 40.671875 12.859375 48.328125 
Q 20.21875 56 33.015625 56 
Q 37.15625 56 41.109375 55.140625 
Q 45.0625 54.296875 48.78125 52.59375 
z
" id="DejaVuSans-63"/>
      <path d="M 18.3125 70.21875 
L 18.3125 54.6875 
L 36.8125 54.6875 
L 36.8125 47.703125 
L 18.3125 47.703125 
L 18.3125 18.015625 
Q 18.3125 11.328125 20.140625 9.421875 
Q 21.96875 7.515625 27.59375 7.515625 
L 36.8125 7.515625 
L 36.8125 0 
L 27.59375 0 
Q 17.1875 0 13.234375 3.875 
Q 9.28125 7.765625 9.28125 18.015625 
L 9.28125 47.703125 
L 2.6875 47.703125 
L 2.6875 54.6875 
L 9.28125 54.6875 
L 9.28125 70.21875 
z
" id="DejaVuSans-74"/>
      <path d="M 8.5 21.578125 
L 8.5 54.6875 
L 17.484375 54.6875 
L 17.484375 21.921875 
Q 17.484375 14.15625 20.5 10.265625 
Q 23.53125 6.390625 29.59375 6.390625 
Q 36.859375 6.390625 41.078125 11.03125 
Q 45.3125 15.671875 45.3125 23.6875 
L 45.3125 54.6875 
L 54.296875 54.6875 
L 54.296875 0 
L 45.3125 0 
L 45.3125 8.40625 
Q 42.046875 3.421875 37.71875 1 
Q 33.40625 -1.421875 27.6875 -1.421875 
Q 18.265625 -1.421875 13.375 4.4375 
Q 8.5 10.296875 8.5 21.578125 
z
M 31.109375 56 
z
" id="DejaVuSans-75"/>
      <path d="M 11.71875 12.40625 
L 22.015625 12.40625 
L 22.015625 4 
L 14.015625 -11.625 
L 7.71875 -11.625 
L 11.71875 4 
z
" id="DejaVuSans-2c"/>
      <path d="M 18.109375 8.203125 
L 18.109375 -20.796875 
L 9.078125 -20.796875 
L 9.078125 54.6875 
L 18.109375 54.6875 
L 18.109375 46.390625 
Q 20.953125 51.265625 25.265625 53.625 
Q 29.59375 56 35.59375 56 
Q 45.5625 56 51.78125 48.09375 
Q 58.015625 40.1875 58.015625 27.296875 
Q 58.015625 14.40625 51.78125 6.484375 
Q 45.5625 -1.421875 35.59375 -1.421875 
Q 29.59375 -1.421875 25.265625 0.953125 
Q 20.953125 3.328125 18.109375 8.203125 
z
M 48.6875 27.296875 
Q 48.6875 37.203125 44.609375 42.84375 
Q 40.53125 48.484375 33.40625 48.484375 
Q 26.265625 48.484375 22.1875 42.84375 
Q 18.109375 37.203125 18.109375 27.296875 
Q 18.109375 17.390625 22.1875 11.75 
Q 26.265625 6.109375 33.40625 6.109375 
Q 40.53125 6.109375 44.609375 11.75 
Q 48.6875 17.390625 48.6875 27.296875 
z
" id="DejaVuSans-70"/>
     </defs>
     <g transform="translate(16.139531 286.001989)rotate(-90)scale(0.17 -0.17)">
      <use xlink:href="#DejaVuSans-46"/>
      <use x="57.410156" xlink:href="#DejaVuSans-72"/>
      <use x="98.523438" xlink:href="#DejaVuSans-61"/>
      <use x="159.802734" xlink:href="#DejaVuSans-63"/>
      <use x="214.783203" xlink:href="#DejaVuSans-74"/>
      <use x="253.992188" xlink:href="#DejaVuSans-69"/>
      <use x="281.775391" xlink:href="#DejaVuSans-6f"/>
      <use x="342.957031" xlink:href="#DejaVuSans-6e"/>
      <use x="406.335938" xlink:href="#DejaVuSans-20"/>
      <use x="438.123047" xlink:href="#DejaVuSans-6f"/>
      <use x="499.304688" xlink:href="#DejaVuSans-66"/>
      <use x="534.509766" xlink:href="#DejaVuSans-20"/>
      <use x="566.296875" xlink:href="#DejaVuSans-66"/>
      <use x="601.501953" xlink:href="#DejaVuSans-75"/>
      <use x="664.880859" xlink:href="#DejaVuSans-6e"/>
      <use x="728.259766" xlink:href="#DejaVuSans-63"/>
      <use x="783.240234" xlink:href="#DejaVuSans-74"/>
      <use x="822.449219" xlink:href="#DejaVuSans-69"/>
      <use x="850.232422" xlink:href="#DejaVuSans-6f"/>
      <use x="911.414062" xlink:href="#DejaVuSans-6e"/>
      <use x="974.792969" xlink:href="#DejaVuSans-2c"/>
      <use x="1006.580078" xlink:href="#DejaVuSans-74"/>
      <use x="1045.789062" xlink:href="#DejaVuSans-61"/>
      <use x="1107.068359" xlink:href="#DejaVuSans-72"/>
      <use x="1148.166016" xlink:href="#DejaVuSans-67"/>
      <use x="1211.642578" xlink:href="#DejaVuSans-65"/>
      <use x="1273.166016" xlink:href="#DejaVuSans-74"/>
      <use x="1312.375" xlink:href="#DejaVuSans-20"/>
      <use x="1344.162109" xlink:href="#DejaVuSans-70"/>
      <use x="1407.638672" xlink:href="#DejaVuSans-61"/>
      <use x="1468.917969" xlink:href="#DejaVuSans-69"/>
      <use x="1496.701172" xlink:href="#DejaVuSans-72"/>
      <use x="1537.814453" xlink:href="#DejaVuSans-73"/>
     </g>
    </g>
   </g>
   <g id="line2d_41">
    <defs>
     <path d="M 0 1.5 
C 0.397805 1.5 0.77937 1.341951 1.06066 1.06066 
C 1.341951 0.77937 1.5 0.397805 1.5 0 
C 1.5 -0.397805 1.341951 -0.77937 1.06066 -1.06066 
C 0.77937 -1.341951 0.397805 -1.5 0 -1.5 
C -0.397805 -1.5 -0.77937 -1.341951 -1.06066 -1.06066 
C -1.341951 -0.77937 -1.5 -0.397805 -1.5 0 
C -1.5 0.397805 -1.341951 0.77937 -1.06066 1.06066 
C -0.77937 1.341951 -0.397805 1.5 0 1.5 
z
" id="mcbf7e8948c" style="stroke:#f5deb3;"/>
    </defs>
    <g>
     <use style="fill:#f5deb3;stroke:#f5deb3;" x="153.248369" xlink:href="#mcbf7e8948c" y="9.697057"/>
     <use style="fill:#f5deb3;stroke:#f5deb3;" x="153.248369" xlink:href="#mcbf7e8948c" y="9.697057"/>
    </g>
   </g>
   <g id="line2d_42">
    <defs>
     <path d="M 0 1.5 
C 0.397805 1.5 0.77937 1.341951 1.06066 1.06066 
C 1.341951 0.77937 1.5 0.397805 1.5 0 
C 1.5 -0.397805 1.341951 -0.77937 1.06066 -1.06066 
C 0.77937 -1.341951 0.397805 -1.5 0 -1.5 
C -0.397805 -1.5 -0.77937 -1.341951 -1.06066 -1.06066 
C -1.341951 -0.77937 -1.5 -0.397805 -1.5 0 
C -1.5 0.397805 -1.341951 0.77937 -1.06066 1.06066 
C -0.77937 1.341951 -0.397805 1.5 0 1.5 
z
" id="mfeeb8c2819" style="stroke:#000080;"/>
    </defs>
    <g>
     <use style="fill:#000080;stroke:#000080;" x="220.76579" xlink:href="#mfeeb8c2819" y="9.697057"/>
     <use style="fill:#000080;stroke:#000080;" x="220.76579" xlink:href="#mfeeb8c2819" y="9.697057"/>
    </g>
   </g>
   <g id="line2d_43">
    <path d="M 44.205749 294.88 
L 44.205749 280.453098 
L 56.12 280.453098 
L 56.12 278.775551 
L 63.08939 278.775551 
L 63.08939 277.545351 
L 68.034251 277.545351 
L 68.034251 276.650659 
L 71.869783 276.650659 
L 71.869783 275.867804 
L 75.003641 275.867804 
L 75.003641 274.41393 
L 77.653281 274.41393 
L 77.653281 273.183729 
L 79.948502 273.183729 
L 79.948502 273.071893 
L 81.973032 273.071893 
L 81.973032 272.289037 
L 83.784035 272.289037 
L 83.784035 271.058837 
L 85.422286 271.058837 
L 85.422286 270.387818 
L 86.917893 270.387818 
L 86.917893 269.716799 
L 88.293717 269.716799 
L 88.293717 269.157617 
L 89.567532 269.157617 
L 89.567532 268.822108 
L 90.753425 268.822108 
L 90.753425 268.374762 
L 91.862754 268.374762 
L 91.862754 268.151089 
L 92.904808 268.151089 
L 92.904808 268.039252 
L 94.816624 268.039252 
L 94.816624 267.927416 
L 95.698286 267.927416 
L 95.698286 267.48007 
L 96.536922 267.48007 
L 96.536922 266.809052 
L 97.336537 266.809052 
L 97.336537 265.690687 
L 98.100602 265.690687 
L 98.100602 265.578851 
L 98.832144 265.578851 
L 98.832144 265.467014 
L 99.533818 265.467014 
L 99.533818 264.684159 
L 100.207968 264.684159 
L 100.207968 264.572323 
L 100.856673 264.572323 
L 100.856673 264.01314 
L 103.231288 264.01314 
L 103.231288 263.789467 
L 104.305927 263.789467 
L 104.305927 263.118449 
L 105.317315 263.118449 
L 105.317315 263.006612 
L 105.801534 263.006612 
L 105.801534 262.671103 
L 106.730875 262.671103 
L 106.730875 262.223757 
L 107.177358 262.223757 
L 107.177358 262.111921 
L 108.451173 262.111921 
L 108.451173 261.776411 
L 109.250788 261.776411 
L 109.250788 261.664575 
L 109.637066 261.664575 
L 109.637066 261.552738 
L 110.384516 261.552738 
L 110.384516 261.440902 
L 111.448069 261.440902 
L 111.448069 261.105393 
L 112.122219 261.105393 
L 112.122219 260.88172 
L 113.700266 260.88172 
L 113.700266 259.651519 
L 115.957752 259.651519 
L 115.957752 259.539682 
L 116.478659 259.539682 
L 116.478659 259.427846 
L 117.475381 259.427846 
L 117.475381 259.204173 
L 119.95122 259.204173 
L 119.95122 259.092337 
L 120.15957 259.092337 
L 120.15957 258.756827 
L 120.365424 258.756827 
L 120.365424 258.644991 
L 122.660646 258.644991 
L 122.660646 258.085809 
L 123.015063 258.085809 
L 123.015063 257.973972 
L 123.7027 257.973972 
L 123.7027 249.474402 
L 123.870396 249.474402 
L 123.870396 242.428706 
L 124.036471 242.428706 
L 124.036471 239.409122 
L 124.200956 239.409122 
L 124.200956 231.356897 
L 124.363883 231.356897 
L 124.363883 225.317729 
L 124.52528 225.317729 
L 124.52528 221.291617 
L 124.685175 221.291617 
L 124.685175 217.601014 
L 124.843597 217.601014 
L 124.843597 212.009192 
L 125.913457 212.009192 
L 125.913457 209.213281 
L 126.638823 209.213281 
L 126.638823 209.101444 
L 127.197852 209.101444 
L 127.197852 208.765935 
L 127.739271 208.765935 
L 127.739271 208.542262 
L 127.872003 208.542262 
L 127.872003 208.318589 
L 128.898495 208.318589 
L 128.898495 208.094916 
L 129.022601 208.094916 
L 129.022601 207.64757 
L 129.145817 207.64757 
L 129.145817 207.535734 
L 129.268157 207.535734 
L 129.268157 207.423898 
L 129.748989 207.423898 
L 129.748989 206.529206 
L 131.005861 206.529206 
L 131.005861 205.858187 
L 131.224827 205.858187 
L 131.333273 205.410841 
L 131.654565 205.410841 
L 131.654565 205.299005 
L 132.483094 205.299005 
L 132.483094 205.075332 
L 133.176677 205.075332 
L 133.176677 204.963496 
L 133.465568 204.963496 
L 133.465568 204.627986 
L 133.843356 204.627986 
L 133.843356 204.51615 
L 134.664189 204.51615 
L 134.753019 203.956968 
L 135.616951 203.956968 
L 135.616951 203.845131 
L 135.867885 203.845131 
L 135.950722 203.397785 
L 137.224536 203.397785 
L 137.224536 202.95044 
L 137.528768 202.95044 
L 137.528768 202.838603 
L 137.827708 202.838603 
L 137.827708 202.726767 
L 138.33866 202.726767 
L 138.33866 202.391257 
L 138.974042 202.391257 
L 138.974042 202.055748 
L 139.519758 202.055748 
L 139.519758 201.720239 
L 139.852237 201.720239 
L 139.852237 201.608402 
L 140.048681 201.608402 
L 140.048681 201.161056 
L 140.812746 201.161056 
L 140.812746 201.04922 
L 141.182408 201.04922 
L 141.182408 200.825547 
L 141.95707 200.825547 
L 141.95707 200.713711 
L 142.69832 200.713711 
L 142.69832 200.601874 
L 143.193387 200.601874 
L 143.193387 199.707183 
L 143.727238 199.707183 
L 143.727238 199.036164 
L 144.193927 199.036164 
L 144.193927 198.812491 
L 144.797098 198.812491 
L 144.797098 198.588818 
L 145.187766 198.588818 
L 145.187766 198.253309 
L 145.332007 198.253309 
L 145.332007 198.141472 
L 145.85077 198.141472 
L 145.85077 197.917799 
L 146.57844 197.917799 
L 146.667271 197.358617 
L 147.190823 197.358617 
L 147.190823 196.911271 
L 147.489022 196.911271 
L 147.489022 196.799435 
L 147.615255 196.799435 
L 147.615255 196.687599 
L 148.750766 196.687599 
L 148.750766 196.575762 
L 149.061881 196.575762 
L 149.061881 196.240253 
L 149.291576 196.240253 
L 149.367465 195.904743 
L 149.66771 195.904743 
L 149.741959 195.457398 
L 149.852735 195.457398 
L 149.852735 195.345561 
L 150.360453 195.345561 
L 150.431775 194.898215 
L 150.784014 194.898215 
L 150.784014 194.674542 
L 151.129178 194.674542 
L 151.197387 193.779851 
L 151.601053 193.779851 
L 151.667418 193.556178 
L 151.766488 193.556178 
L 151.766488 193.108832 
L 151.8977 193.108832 
L 151.995456 192.437813 
L 152.189314 192.437813 
L 152.253451 192.102304 
L 152.69583 192.102304 
L 152.69583 191.990468 
L 152.820161 191.990468 
L 152.820161 191.766795 
L 153.248369 191.766795 
L 153.248369 191.431285 
L 154.045238 191.431285 
L 154.045238 191.095776 
L 154.38788 191.095776 
L 154.38788 190.98394 
L 154.500593 190.98394 
L 154.584645 190.760267 
L 154.723825 190.760267 
L 154.723825 190.64843 
L 154.944195 190.64843 
L 154.944195 189.865575 
L 155.242663 189.865575 
L 155.242663 189.641902 
L 155.376636 189.641902 
L 155.376636 189.306393 
L 155.720156 189.306393 
L 155.798464 188.635374 
L 156.031271 188.635374 
L 156.031271 188.076192 
L 156.512635 188.076192 
L 156.512635 187.964356 
L 156.661886 187.964356 
L 156.661886 187.628846 
L 156.88336 187.628846 
L 156.88336 187.51701 
L 157.02944 187.51701 
L 157.02944 187.293337 
L 157.317927 187.293337 
L 157.317927 186.957828 
L 157.625086 186.957828 
L 157.625086 186.845991 
L 157.834564 186.845991 
L 157.834564 186.734155 
L 158.064362 186.734155 
L 158.132707 186.398645 
L 158.336125 186.398645 
L 158.358579 185.951299 
L 158.669895 185.951299 
L 158.669895 185.839463 
L 158.80161 185.839463 
L 158.823464 184.832935 
L 159.083575 184.832935 
L 159.083575 184.609262 
L 159.212168 184.609262 
L 159.276106 183.826407 
L 159.339807 183.826407 
L 159.339807 183.267225 
L 159.717134 183.267225 
L 159.737856 183.043552 
L 159.841091 183.043552 
L 159.923235 182.48437 
L 159.984587 182.48437 
L 159.984587 182.372533 
L 160.187524 182.372533 
L 160.187524 182.14886 
L 160.487508 182.14886 
L 160.487508 181.254169 
L 160.801823 181.254169 
L 160.879512 180.918659 
L 161.014628 180.918659 
L 161.014628 180.58315 
L 161.129603 180.58315 
L 161.224831 180.135804 
L 161.262775 180.135804 
L 161.262775 179.912131 
L 161.413719 179.912131 
L 161.413719 179.800295 
L 161.637678 179.800295 
L 161.637678 179.464785 
L 161.858757 179.464785 
L 161.858757 179.129276 
L 162.274704 179.129276 
L 162.274704 178.905603 
L 162.628392 178.905603 
L 162.733095 177.787239 
L 162.767854 177.787239 
L 162.767854 177.563566 
L 163.060507 177.563566 
L 163.077568 177.004384 
L 163.196521 177.004384 
L 163.297829 175.55051 
L 163.314656 175.55051 
L 163.314656 175.103164 
L 163.598221 175.103164 
L 163.598221 174.991328 
L 163.762864 174.991328 
L 163.811951 174.767655 
L 163.958377 174.767655 
L 163.958377 174.655818 
L 164.087494 174.655818 
L 164.087494 174.432145 
L 164.437645 174.432145 
L 164.437645 174.096636 
L 164.610081 174.096636 
L 164.656811 173.201944 
L 164.74989 173.201944 
L 164.780805 172.754599 
L 165.14751 172.754599 
L 165.222932 172.419089 
L 165.313003 172.419089 
L 165.313003 172.307253 
L 165.536139 172.307253 
L 165.58042 171.748071 
L 165.785573 171.748071 
L 165.785573 171.636234 
L 165.901712 171.636234 
L 165.901712 171.524398 
L 166.031439 171.524398 
L 166.045792 170.965215 
L 166.28799 170.965215 
L 166.386735 170.070524 
L 166.484916 170.070524 
L 166.582539 169.735014 
L 166.59644 169.735014 
L 166.624209 169.399505 
L 166.789884 169.399505 
L 166.789884 169.287669 
L 166.967581 169.287669 
L 166.994756 168.840323 
L 167.370773 168.840323 
L 167.437061 168.169304 
L 167.595119 168.169304 
L 167.634407 167.721958 
L 167.855361 167.721958 
L 167.855361 167.610122 
L 168.07351 167.610122 
L 168.111721 167.05094 
L 168.213204 167.05094 
L 168.225847 166.491757 
L 168.46432 166.491757 
L 168.46432 166.156248 
L 168.576137 166.156248 
L 168.576137 165.932575 
L 168.822044 165.932575 
L 168.822044 165.037884 
L 168.980018 165.037884 
L 169.028335 164.814211 
L 169.184432 164.814211 
L 169.184432 164.702374 
L 169.327275 164.702374 
L 169.374626 164.143192 
L 169.551042 164.143192 
L 169.656029 163.807683 
L 169.679273 163.807683 
L 169.679273 163.360337 
L 169.967196 163.360337 
L 169.967196 163.136664 
L 170.295255 163.136664 
L 170.362355 162.465645 
L 170.484694 162.465645 
L 170.540016 161.794627 
L 170.606169 161.794627 
L 170.715861 160.899935 
L 170.868263 160.899935 
L 170.933166 160.228916 
L 171.211617 160.228916 
L 171.211617 160.11708 
L 171.338628 160.11708 
L 171.412286 159.557898 
L 171.464706 159.557898 
L 171.548248 158.998715 
L 171.652107 158.998715 
L 171.714122 157.321169 
L 171.806728 157.321169 
L 171.847727 156.761987 
L 171.91924 156.761987 
L 172.000606 156.314641 
L 172.212378 156.314641 
L 172.232412 155.979131 
L 172.371995 155.979131 
L 172.480879 155.531786 
L 172.608676 155.531786 
L 172.677098 155.08444 
L 172.832476 155.08444 
L 172.919264 154.637094 
L 173.043854 154.637094 
L 173.043854 154.525258 
L 173.158065 154.525258 
L 173.214887 153.854239 
L 173.318575 153.854239 
L 173.412297 151.058328 
L 173.4776 151.058328 
L 173.4776 150.946491 
L 173.607466 150.946491 
L 173.662824 150.163636 
L 173.773008 150.163636 
L 173.88249 149.380781 
L 174.072422 149.380781 
L 174.180019 148.597926 
L 174.313576 148.597926 
L 174.313576 148.262416 
L 174.428491 148.262416 
L 174.498828 147.479561 
L 174.542643 147.479561 
L 174.542643 147.367725 
L 174.673422 147.367725 
L 174.673422 147.032216 
L 174.829055 147.032216 
L 174.8892 146.137524 
L 174.957681 146.137524 
L 175.034397 144.459977 
L 175.195237 144.459977 
L 175.237315 144.124468 
L 175.337882 144.124468 
L 175.437865 143.453449 
L 175.454472 143.453449 
L 175.553781 142.78243 
L 175.594991 142.78243 
L 175.685306 142.335085 
L 175.758849 142.335085 
L 175.864526 141.887739 
L 175.896911 141.887739 
L 175.993704 140.881211 
L 176.05793 140.881211 
L 176.129899 140.657538 
L 176.201569 140.657538 
L 176.27294 139.65101 
L 176.336134 139.65101 
L 176.430491 139.091828 
L 176.461828 139.091828 
L 176.571062 137.973463 
L 176.58661 137.973463 
L 176.687333 136.966935 
L 176.718206 136.966935 
L 176.818162 136.519589 
L 176.848802 136.519589 
L 176.909917 136.18408 
L 177.031499 136.18408 
L 177.122125 134.61837 
L 177.159745 134.61837 
L 177.159745 134.394697 
L 177.324302 134.394697 
L 177.405994 133.388169 
L 177.479924 133.388169 
L 177.553537 132.940823 
L 177.794247 132.940823 
L 177.837653 132.157968 
L 178.003033 132.157968 
L 178.110039 131.039603 
L 178.13136 131.039603 
L 178.237572 130.368585 
L 178.258736 130.368585 
L 178.300986 128.579202 
L 178.406159 128.579202 
L 178.413147 128.355529 
L 178.531522 128.355529 
L 178.642194 127.572674 
L 178.669751 127.572674 
L 178.752157 126.901655 
L 178.786377 126.901655 
L 178.88863 126.230636 
L 178.909008 126.230636 
L 178.909008 126.1188 
L 179.050979 126.1188 
L 179.12488 124.888599 
L 179.165056 124.888599 
L 179.271735 123.658398 
L 179.450269 123.658398 
L 179.555198 121.980851 
L 179.633476 121.980851 
L 179.737296 120.75065 
L 179.756693 120.75065 
L 179.853349 119.073103 
L 179.89186 119.073103 
L 179.994135 117.395557 
L 180.013244 117.395557 
L 180.10214 117.060047 
L 180.140098 117.060047 
L 180.146416 116.724538 
L 180.322389 116.724538 
L 180.409705 116.277192 
L 180.434571 116.277192 
L 180.533677 115.829846 
L 180.619928 115.829846 
L 180.73019 113.145772 
L 180.760694 113.145772 
L 180.760694 113.033935 
L 180.894269 113.033935 
L 180.978734 110.797206 
L 181.07476 110.797206 
L 181.12854 109.343332 
L 181.271136 109.343332 
L 181.377312 108.224968 
L 181.406689 108.224968 
L 181.50036 106.659258 
L 181.558647 106.659258 
L 181.558647 105.876403 
L 181.69196 105.876403 
L 181.720805 105.093547 
L 181.80705 105.093547 
L 181.909976 104.198856 
L 181.921375 104.198856 
L 181.99528 103.304164 
L 182.034944 103.304164 
L 182.130891 100.843762 
L 182.181471 100.843762 
L 182.24868 100.508253 
L 182.415561 100.508253 
L 182.503906 98.942543 
L 182.602755 98.942543 
L 182.701038 97.264996 
L 182.722803 97.264996 
L 182.831214 96.370304 
L 182.858211 96.370304 
L 182.928204 95.811122 
L 183.06734 95.811122 
L 183.141796 95.140104 
L 183.194782 95.140104 
L 183.289747 94.469085 
L 183.34228 94.469085 
L 183.431218 93.68623 
L 183.472913 93.68623 
L 183.556 92.344192 
L 183.592225 92.344192 
L 183.690166 91.449501 
L 183.715848 91.449501 
L 183.802879 91.002155 
L 183.97563 91.002155 
L 184.051296 88.877262 
L 184.096536 88.877262 
L 184.18666 88.206244 
L 184.281281 88.206244 
L 184.306095 87.758898 
L 184.409924 87.758898 
L 184.483706 86.416861 
L 184.522927 86.416861 
L 184.562059 85.745842 
L 184.640056 85.745842 
L 184.640056 85.18666 
L 184.761223 85.18666 
L 184.828705 83.620949 
L 184.92465 83.620949 
L 184.99626 82.949931 
L 185.043834 82.949931 
L 185.13859 82.055239 
L 185.157479 82.055239 
L 185.166915 81.607893 
L 185.270376 81.607893 
L 185.368557 81.160548 
L 185.429056 81.160548 
L 185.456907 80.489529 
L 185.558643 80.489529 
L 185.641435 79.706674 
L 185.700983 79.706674 
L 185.723831 79.147491 
L 185.824003 79.147491 
L 185.905531 78.140963 
L 185.964172 78.140963 
L 186.058479 76.910763 
L 186.183423 76.910763 
L 186.183423 76.575253 
L 186.303051 76.575253 
L 186.408692 76.239744 
L 186.430619 76.239744 
L 186.526767 75.680562 
L 186.596357 75.680562 
L 186.67431 74.674034 
L 186.842005 74.674034 
L 186.940141 74.226688 
L 187.012318 74.226688 
L 187.113701 71.989959 
L 187.13054 71.989959 
L 187.239595 71.31894 
L 187.273011 71.31894 
L 187.360422 70.871594 
L 187.443259 70.871594 
L 187.513358 70.200576 
L 187.607744 70.200576 
L 187.689401 69.75323 
L 187.891861 69.75323 
L 187.992203 68.18752 
L 188.012201 68.18752 
L 188.044151 67.069155 
L 188.191148 67.069155 
L 188.297628 66.621809 
L 188.321201 66.621809 
L 188.395636 64.608753 
L 188.434684 64.608753 
L 188.434684 64.496917 
L 188.578392 64.496917 
L 188.678663 63.602225 
L 188.690195 63.602225 
L 188.770704 63.154879 
L 188.824168 63.154879 
L 188.923019 62.036515 
L 188.968451 62.036515 
L 188.968451 61.924678 
L 189.08151 61.924678 
L 189.111534 61.365496 
L 189.201292 61.365496 
L 189.234831 60.470805 
L 189.342457 60.470805 
L 189.423658 59.576113 
L 189.460441 59.576113 
L 189.541087 58.457749 
L 189.624996 58.457749 
L 189.694005 57.227548 
L 189.759128 57.227548 
L 189.831197 56.444692 
L 189.874295 56.444692 
L 189.985132 54.878982 
L 190.002942 54.878982 
L 190.034954 54.3198 
L 190.116492 54.3198 
L 190.18356 52.194907 
L 190.288926 52.194907 
L 190.369271 49.734506 
L 190.463113 49.734506 
L 190.556445 49.175323 
L 190.611515 49.175323 
L 190.714297 47.72145 
L 190.741602 47.72145 
L 190.762053 46.938594 
L 190.867328 46.938594 
L 190.95176 46.267576 
L 190.99214 46.267576 
L 191.085994 45.596557 
L 191.106039 45.596557 
L 191.192632 44.366356 
L 191.232451 44.366356 
L 191.325006 43.024319 
L 191.344774 43.024319 
L 191.449823 41.905954 
L 191.472718 41.905954 
L 191.475986 41.682281 
L 191.586733 41.682281 
L 191.62889 40.004735 
L 191.71934 40.004735 
L 191.825334 38.215351 
L 191.841337 38.215351 
L 191.841337 37.991679 
L 191.972001 37.991679 
L 192.041706 37.096987 
L 192.11113 37.096987 
L 192.19595 35.531277 
L 192.255388 35.531277 
L 192.351928 34.972094 
L 192.426297 34.972094 
L 192.475699 34.412912 
L 192.671897 34.412912 
L 192.754001 33.070875 
L 192.865881 33.070875 
L 192.899003 32.511693 
L 192.997987 32.511693 
L 193.090455 31.617001 
L 193.126116 31.617001 
L 193.197217 31.057819 
L 193.25035 31.057819 
L 193.353197 30.610473 
L 193.38247 30.610473 
L 193.484532 29.268436 
L 193.504871 29.268436 
L 193.597548 27.926398 
L 193.629291 27.926398 
L 193.698345 27.25538 
L 193.881144 27.25538 
L 193.98312 25.913342 
L 193.994413 25.913342 
L 193.994413 25.801506 
L 194.199226 25.801506 
L 194.307654 24.906814 
L 194.324275 24.906814 
L 194.360232 24.571305 
L 194.750868 24.571305 
L 194.853198 23.900286 
L 194.880026 23.900286 
L 194.984256 22.558249 
L 195.087859 22.558249 
L 195.135465 21.999066 
L 195.201368 21.999066 
L 195.201368 21.88723 
L 195.389767 21.88723 
L 195.459887 21.439884 
L 196.481195 21.439884 
L 196.51779 21.104375 
L 196.631952 21.104375 
L 196.631952 20.657029 
L 196.75017 20.657029 
L 196.75017 20.545193 
L 197.154124 20.545193 
L 197.154124 20.32152 
L 197.352596 20.32152 
L 197.433658 19.650501 
L 197.583195 19.650501 
L 197.583195 19.426828 
L 198.055384 19.426828 
L 198.055384 18.4203 
L 198.188579 18.4203 
L 198.188579 18.084791 
L 198.860773 18.084791 
L 198.860773 17.861118 
L 198.998444 17.861118 
L 199.053205 17.525609 
L 199.137113 17.525609 
L 199.137113 17.413772 
L 199.260135 17.413772 
L 199.260135 17.301936 
L 199.691002 17.301936 
L 199.691002 17.190099 
L 199.952416 17.190099 
L 199.952416 16.966426 
L 200.290331 16.966426 
L 200.290331 16.630917 
L 200.46361 16.630917 
L 200.46361 16.407244 
L 200.823996 16.407244 
L 200.823996 16.183571 
L 200.969447 16.183571 
L 201.022035 15.736225 
L 201.121138 15.736225 
L 201.201124 15.400716 
L 201.394889 15.400716 
L 201.490046 14.506024 
L 202.113657 14.506024 
L 202.113657 14.282352 
L 202.506855 14.282352 
L 202.506855 14.170515 
L 204.541893 14.170515 
L 204.541893 14.058679 
L 205.801076 14.058679 
L 205.801076 13.946842 
L 206.971625 13.946842 
L 207.066875 13.499496 
L 207.101142 13.499496 
L 207.101142 13.38766 
L 207.397449 13.38766 
L 207.397449 13.275823 
L 207.873505 13.275823 
L 207.873505 13.163987 
L 209.208711 13.163987 
L 209.208711 13.052151 
L 209.368692 13.052151 
L 209.368692 12.828478 
L 209.498592 12.828478 
L 209.504317 12.604805 
L 209.619559 12.604805 
L 209.65591 12.381132 
L 209.844383 12.381132 
L 209.876902 12.157459 
L 210.092876 12.157459 
L 210.092876 12.045623 
L 210.340009 12.045623 
L 210.437876 11.82195 
L 210.467128 11.82195 
L 210.545967 11.48644 
L 211.387066 11.48644 
L 211.387066 11.374604 
L 211.753541 11.374604 
L 211.841703 10.927258 
L 211.92146 10.927258 
L 211.92146 10.815422 
L 212.4436 10.815422 
L 212.4436 10.703585 
L 212.858286 10.703585 
L 212.920339 10.479912 
L 212.984974 10.479912 
L 212.984974 10.368076 
L 213.978561 10.368076 
L 213.978561 10.256239 
L 214.592258 10.256239 
L 214.592258 10.144403 
L 217.025719 10.144403 
L 217.025719 10.032566 
L 219.369192 10.032566 
L 219.369192 9.92073 
L 220.709809 9.92073 
L 220.76579 9.697057 
L 333.168 9.697057 
L 333.168 9.697057 
" style="fill:none;stroke:#000080;stroke-linecap:square;stroke-width:1.5;"/>
   </g>
   <g id="line2d_44">
    <defs>
     <path d="M 0 6 
C 1.591219 6 3.117479 5.367802 4.242641 4.242641 
C 5.367802 3.117479 6 1.591219 6 0 
C 6 -1.591219 5.367802 -3.117479 4.242641 -4.242641 
C 3.117479 -5.367802 1.591219 -6 0 -6 
C -1.591219 -6 -3.117479 -5.367802 -4.242641 -4.242641 
C -5.367802 -3.117479 -6 -1.591219 -6 0 
C -6 1.591219 -5.367802 3.117479 -4.242641 4.242641 
C -3.117479 5.367802 -1.591219 6 0 6 
z
" id="m4b11088d8b" style="stroke:#000080;stroke-width:1.5;"/>
    </defs>
    <g>
     <use style="fill-opacity:0;stroke:#000080;stroke-width:1.5;" x="144.193927" xlink:href="#m4b11088d8b" y="198.812491"/>
     <use style="fill-opacity:0;stroke:#000080;stroke-width:1.5;" x="182.679246" xlink:href="#m4b11088d8b" y="98.607033"/>
     <use style="fill-opacity:0;stroke:#000080;stroke-width:1.5;" x="220.76579" xlink:href="#m4b11088d8b" y="9.808894"/>
     <use style="fill-opacity:0;stroke:#000080;stroke-width:1.5;" x="220.76579" xlink:href="#m4b11088d8b" y="9.697057"/>
     <use style="fill-opacity:0;stroke:#000080;stroke-width:1.5;" x="220.76579" xlink:href="#m4b11088d8b" y="9.697057"/>
     <use style="fill-opacity:0;stroke:#000080;stroke-width:1.5;" x="333.168" xlink:href="#m4b11088d8b" y="9.697057"/>
    </g>
   </g>
   <g id="line2d_45">
    <path style="fill:none;stroke:#000080;stroke-linecap:square;stroke-width:1.5;"/>
    <g/>
   </g>
   <g id="line2d_46">
    <path clip-path="url(#p585cd15fa0)" d="M 202.691626 14.170515 
" style="fill:none;stroke:#000080;stroke-linecap:square;stroke-width:1.5;"/>
    <defs>
     <path d="M -12 12 
L 12 -12 
M -12 -12 
L 12 12 
" id="me29fcaa0e6" style="stroke:#000080;"/>
    </defs>
    <g clip-path="url(#p585cd15fa0)">
     <use style="fill:#000080;stroke:#000080;" x="202.691626" xlink:href="#me29fcaa0e6" y="14.170515"/>
    </g>
   </g>
   <g id="line2d_47">
    <defs>
     <path d="M 0 1.5 
C 0.397805 1.5 0.77937 1.341951 1.06066 1.06066 
C 1.341951 0.77937 1.5 0.397805 1.5 0 
C 1.5 -0.397805 1.341951 -0.77937 1.06066 -1.06066 
C 0.77937 -1.341951 0.397805 -1.5 0 -1.5 
C -0.397805 -1.5 -0.77937 -1.341951 -1.06066 -1.06066 
C -1.341951 -0.77937 -1.5 -0.397805 -1.5 0 
C -1.5 0.397805 -1.341951 0.77937 -1.06066 1.06066 
C -0.77937 1.341951 -0.397805 1.5 0 1.5 
z
" id="m737b506fea" style="stroke:#ff00ff;"/>
    </defs>
    <g>
     <use style="fill:#ff00ff;stroke:#ff00ff;" x="242.858208" xlink:href="#m737b506fea" y="9.697057"/>
     <use style="fill:#ff00ff;stroke:#ff00ff;" x="242.858208" xlink:href="#m737b506fea" y="9.697057"/>
    </g>
   </g>
   <g id="line2d_48">
    <path d="M 44.205749 294.88 
L 44.205749 280.564935 
L 56.12 280.564935 
L 56.12 277.545351 
L 63.08939 277.545351 
L 63.08939 276.091477 
L 68.034251 276.091477 
L 68.034251 274.861276 
L 71.869783 274.861276 
L 71.869783 274.190257 
L 75.003641 274.190257 
L 75.003641 273.071893 
L 77.653281 273.071893 
L 77.653281 272.065365 
L 79.948502 272.065365 
L 79.948502 271.953528 
L 81.973032 271.953528 
L 81.973032 271.841692 
L 83.784035 271.841692 
L 83.784035 271.729855 
L 85.422286 271.729855 
L 85.422286 270.947 
L 86.917893 270.947 
L 86.917893 270.052309 
L 88.293717 270.052309 
L 88.293717 269.940472 
L 90.753425 269.940472 
L 90.753425 269.716799 
L 93.887283 269.716799 
L 93.887283 269.604963 
L 94.816624 269.604963 
L 94.816624 268.933944 
L 95.698286 268.933944 
L 95.698286 268.039252 
L 97.336537 268.039252 
L 97.336537 267.927416 
L 99.533818 267.927416 
L 99.533818 267.48007 
L 100.207968 267.48007 
L 100.207968 266.026196 
L 101.481783 266.026196 
L 101.481783 265.019668 
L 102.667676 265.019668 
L 102.667676 264.572323 
L 103.777005 264.572323 
L 103.777005 263.230285 
L 104.819059 263.230285 
L 104.819059 263.118449 
L 107.612537 263.118449 
L 107.612537 263.006612 
L 108.036969 263.006612 
L 108.036969 262.782939 
L 109.637066 262.782939 
L 109.637066 262.44743 
L 110.014853 262.44743 
L 110.014853 262.111921 
L 111.788449 262.111921 
L 111.788449 260.322538 
L 112.770924 260.322538 
L 112.770924 260.210701 
L 113.700266 260.210701 
L 113.700266 259.763355 
L 113.999206 259.763355 
L 113.999206 259.427846 
L 114.293036 259.427846 
L 114.293036 258.9805 
L 114.581927 258.9805 
L 114.581927 258.421318 
L 117.231566 258.421318 
L 117.231566 258.197645 
L 117.475381 258.197645 
L 117.475381 257.862136 
L 117.715785 257.862136 
L 117.715785 257.526626 
L 117.952873 257.526626 
L 117.952873 257.41479 
L 118.186736 257.41479 
L 118.186736 257.302953 
L 118.417459 257.302953 
L 118.417459 257.079281 
L 118.869818 257.079281 
L 118.869818 256.743771 
L 119.310576 256.743771 
L 119.310576 256.408262 
L 119.526788 256.408262 
L 119.526788 256.296425 
L 119.740314 256.296425 
L 119.740314 255.960916 
L 119.95122 255.960916 
L 119.95122 255.737243 
L 120.15957 255.737243 
L 120.15957 255.51357 
L 120.568842 255.51357 
L 120.568842 255.178061 
L 121.359263 255.178061 
L 121.359263 255.066224 
L 123.36232 255.066224 
L 123.36232 254.954388 
L 123.7027 254.954388 
L 123.7027 254.059696 
L 123.870396 254.059696 
L 123.870396 253.836024 
L 124.036471 253.836024 
L 124.036471 253.724187 
L 124.200956 253.724187 
L 124.200956 253.276841 
L 124.363883 253.276841 
L 124.363883 250.592767 
L 124.52528 250.592767 
L 124.52528 250.48093 
L 124.685175 250.48093 
L 124.685175 247.573182 
L 125.000572 247.573182 
L 125.000572 244.218089 
L 125.156126 244.218089 
L 125.156126 244.106253 
L 125.913457 244.106253 
L 125.913457 241.310341 
L 126.061 241.310341 
L 126.061 241.198505 
L 126.207287 241.198505 
L 126.207287 240.527486 
L 126.638823 240.527486 
L 126.638823 237.172393 
L 126.780294 237.172393 
L 126.780294 231.58057 
L 127.197852 231.58057 
L 127.197852 231.356897 
L 127.334814 231.356897 
L 127.334814 231.245061 
L 127.470694 231.245061 
L 127.470694 231.133225 
L 127.605507 231.133225 
L 127.605507 228.11364 
L 127.739271 228.11364 
L 127.739271 223.975692 
L 128.13443 223.975692 
L 128.13443 221.738963 
L 128.264156 221.738963 
L 128.264156 221.403454 
L 128.39291 221.403454 
L 128.39291 221.291617 
L 128.647561 221.291617 
L 128.647561 217.489178 
L 129.022601 217.489178 
L 129.022601 214.693267 
L 129.268157 214.693267 
L 129.268157 214.469594 
L 129.630036 214.469594 
L 129.630036 213.910412 
L 129.867125 213.910412 
L 129.867125 211.45001 
L 130.33171 211.45001 
L 130.33171 211.338173 
L 131.115693 211.338173 
L 131.224827 205.410841 
L 131.333273 205.410841 
L 131.333273 204.404313 
L 132.98135 204.404313 
L 132.98135 204.068804 
L 135.616951 204.068804 
L 135.616951 203.956968 
L 136.519665 203.956968 
L 136.519665 203.845131 
L 136.67882 203.845131 
L 136.67882 203.174112 
L 137.453213 203.174112 
L 137.528768 202.838603 
L 137.678888 202.838603 
L 137.678888 202.726767 
L 137.827708 202.726767 
L 137.827708 202.61493 
L 137.975251 202.61493 
L 137.975251 201.943912 
L 138.904592 201.943912 
L 138.904592 201.04922 
L 139.180721 201.04922 
L 139.249066 200.601874 
L 140.113666 200.601874 
L 140.178407 200.154528 
L 140.498503 200.154528 
L 140.498503 199.930855 
L 140.687737 199.930855 
L 140.687737 199.819019 
L 141.544287 199.819019 
L 141.544287 199.595346 
L 141.72241 199.595346 
L 141.72241 199.48351 
L 142.07321 199.48351 
L 142.07321 199.371673 
L 142.18857 199.371673 
L 142.18857 199.148 
L 142.416994 199.148 
L 142.473629 198.700655 
L 143.139078 198.700655 
L 143.139078 198.365145 
L 143.568817 198.365145 
L 143.621786 197.917799 
L 144.498158 197.917799 
L 144.498158 197.58229 
L 144.747635 197.58229 
L 144.747635 197.246781 
L 144.944641 197.246781 
L 144.993542 196.687599 
L 145.139415 196.687599 
L 145.139415 196.575762 
L 145.284061 196.575762 
L 145.284061 196.128416 
L 145.4275 196.128416 
L 145.4275 196.01658 
L 145.804252 196.01658 
L 145.804252 195.904743 
L 146.711514 195.904743 
L 146.711514 195.457398 
L 147.104664 195.457398 
L 147.104664 195.121888 
L 147.740567 195.121888 
L 147.740567 195.010052 
L 148.111115 195.010052 
L 148.111115 194.786379 
L 148.55342 194.786379 
L 148.55342 194.674542 
L 148.711478 194.674542 
L 148.711478 194.11536 
L 148.984628 194.11536 
L 148.984628 193.668014 
L 149.215352 193.668014 
L 149.215352 193.444342 
L 149.926191 193.444342 
L 149.962801 192.325977 
L 150.324681 192.325977 
L 150.324681 192.102304 
L 150.784014 192.102304 
L 150.818844 191.654958 
L 150.922912 191.654958 
L 150.922912 191.543122 
L 151.53443 191.543122 
L 151.53443 190.98394 
L 151.733528 190.98394 
L 151.733528 190.536594 
L 152.027918 190.536594 
L 152.027918 190.424757 
L 152.157156 190.424757 
L 152.157156 190.312921 
L 152.28543 190.312921 
L 152.28543 190.201085 
L 152.444438 190.201085 
L 152.444438 189.530066 
L 152.601988 189.530066 
L 152.601988 189.418229 
L 153.36878 189.418229 
L 153.36878 188.747211 
L 153.488354 188.747211 
L 153.488354 188.523538 
L 153.666169 188.523538 
L 153.666169 188.299865 
L 154.359586 188.299865 
L 154.359586 187.964356 
L 154.528656 187.964356 
L 154.528656 187.51701 
L 154.998849 187.51701 
L 154.998849 186.957828 
L 155.456522 186.957828 
L 155.562461 186.622318 
L 155.798464 186.622318 
L 155.902323 185.839463 
L 156.005559 185.839463 
L 156.08258 185.392117 
L 156.336855 185.392117 
L 156.336855 185.056608 
L 156.462595 185.056608 
L 156.462595 184.944771 
L 156.6371 184.944771 
L 156.6371 184.609262 
L 156.760671 184.609262 
L 156.785279 184.385589 
L 156.907793 184.385589 
L 156.956555 183.826407 
L 157.150232 183.826407 
L 157.198312 183.043552 
L 157.270181 183.043552 
L 157.317927 182.14886 
L 157.554689 182.14886 
L 157.625086 181.366005 
L 157.671858 181.366005 
L 157.671858 181.142332 
L 158.109956 181.142332 
L 158.155428 180.471314 
L 159.190803 180.471314 
L 159.190803 180.359477 
L 159.424376 180.359477 
L 159.487531 179.912131 
L 159.654819 179.912131 
L 159.737856 178.793767 
L 159.923235 178.793767 
L 160.025366 178.458257 
L 160.086355 178.458257 
L 160.086355 178.010912 
L 160.247941 178.010912 
L 160.247941 177.899075 
L 160.467671 177.899075 
L 160.487508 177.451729 
L 160.58635 177.451729 
L 160.625729 177.11622 
L 160.743325 177.11622 
L 160.840712 175.886019 
L 160.860123 175.886019 
L 160.860123 175.662346 
L 160.995391 175.662346 
L 161.014628 175.438673 
L 161.167758 175.438673 
L 161.262775 174.879491 
L 161.693215 174.879491 
L 161.73014 174.320309 
L 161.913585 174.320309 
L 161.913585 174.096636 
L 162.077028 174.096636 
L 162.185133 173.872963 
L 162.487789 173.872963 
L 162.487789 173.761127 
L 162.61088 173.761127 
L 162.61088 173.64929 
L 162.733095 173.64929 
L 162.819862 173.313781 
L 162.974949 173.313781 
L 163.077568 172.419089 
L 163.213447 172.419089 
L 163.24725 171.859907 
L 163.348261 171.859907 
L 163.381799 171.524398 
L 163.465361 171.524398 
L 163.548519 170.853379 
L 163.631276 170.853379 
L 163.631276 170.741543 
L 163.746471 170.741543 
L 163.811951 170.51787 
L 163.925945 170.51787 
L 163.925945 170.406033 
L 164.039189 170.406033 
L 164.071407 169.623178 
L 164.437645 169.623178 
L 164.469126 169.063996 
L 164.610081 169.063996 
L 164.610081 167.945631 
L 164.842468 167.945631 
L 164.842468 167.610122 
L 164.965135 167.610122 
L 165.04136 167.05094 
L 165.342922 167.05094 
L 165.402605 164.366865 
L 165.595155 164.366865 
L 165.595155 164.255029 
L 165.771 164.255029 
L 165.771 164.143192 
L 165.945063 164.143192 
L 165.945063 164.031356 
L 166.060134 164.031356 
L 166.060134 163.472173 
L 166.202898 163.472173 
L 166.202898 162.912991 
L 166.428881 162.912991 
L 166.512865 162.241972 
L 166.540769 162.241972 
L 166.568627 161.794627 
L 166.831054 161.794627 
L 166.9131 161.459117 
L 167.008328 161.459117 
L 167.116518 160.899935 
L 167.156915 160.899935 
L 167.264176 159.893407 
L 167.317557 159.893407 
L 167.357484 158.886879 
L 167.463505 158.886879 
L 167.516272 158.663206 
L 167.608225 158.663206 
L 167.712715 157.433005 
L 167.725732 157.433005 
L 167.725732 157.209332 
L 168.263721 157.209332 
L 168.263721 156.985659 
L 168.38937 156.985659 
L 168.46432 156.538314 
L 168.588516 156.538314 
L 168.687231 155.196276 
L 168.846443 155.196276 
L 168.943691 154.637094 
L 168.980018 154.637094 
L 168.980018 154.301585 
L 169.124562 154.301585 
L 169.208322 153.51873 
L 169.279792 153.51873 
L 169.315417 153.295057 
L 169.714079 153.295057 
L 169.714079 152.847711 
L 169.967196 152.847711 
L 169.978614 152.624038 
L 170.148968 152.624038 
L 170.250376 150.722818 
L 170.284046 150.722818 
L 170.340017 150.275473 
L 170.418071 150.275473 
L 170.451415 149.939963 
L 170.737715 149.939963 
L 170.813988 149.268944 
L 170.987066 149.268944 
L 171.062243 148.821599 
L 171.11574 148.821599 
L 171.222238 147.703234 
L 171.232851 147.703234 
L 171.338628 147.032216 
L 171.412286 147.032216 
L 171.48563 146.24936 
L 171.548248 146.24936 
L 171.56907 145.242832 
L 171.765632 145.242832 
L 171.857961 144.907323 
L 171.878412 144.907323 
L 171.929432 143.900795 
L 172.041145 143.900795 
L 172.142077 143.453449 
L 172.302345 143.453449 
L 172.381922 142.223248 
L 172.480879 142.223248 
L 172.579268 141.664066 
L 172.628253 141.664066 
L 172.66734 141.440393 
L 172.93849 141.440393 
L 173.024745 140.545702 
L 173.053401 140.545702 
L 173.101054 140.098356 
L 173.177026 140.098356 
L 173.271521 138.197136 
L 173.318575 138.197136 
L 173.421641 137.637954 
L 173.514805 137.637954 
L 173.514805 137.526117 
L 173.745528 137.526117 
L 173.782158 136.407753 
L 173.964147 136.407753 
L 174.045417 135.401225 
L 174.171078 135.401225 
L 174.215736 134.506533 
L 174.340163 134.506533 
L 174.419679 133.611842 
L 174.498828 133.611842 
L 174.603797 132.046131 
L 174.612516 132.046131 
L 174.656042 130.927767 
L 174.734114 130.927767 
L 174.734114 130.704094 
L 174.863449 130.704094 
L 174.923475 129.809402 
L 174.983291 129.809402 
L 175.093829 128.914711 
L 175.127698 128.914711 
L 175.161501 127.908183 
L 175.321162 127.908183 
L 175.412924 126.901655 
L 175.46277 126.901655 
L 175.553781 125.671454 
L 175.619669 125.671454 
L 175.677115 124.888599 
L 175.73437 124.888599 
L 175.832079 124.21758 
L 175.880726 124.21758 
L 175.9615 123.322888 
L 176.089954 123.322888 
L 176.153822 122.092688 
L 176.225392 122.092688 
L 176.304566 120.75065 
L 176.359772 120.75065 
L 176.391238 120.303304 
L 176.508728 120.303304 
L 176.609906 118.402085 
L 176.640919 118.402085 
L 176.741324 117.954739 
L 176.833489 117.954739 
L 176.940393 116.724538 
L 176.955611 116.724538 
L 176.955611 116.500865 
L 177.114591 116.500865 
L 177.114591 116.165356 
L 177.309407 116.165356 
L 177.368909 114.1523 
L 177.45039 114.1523 
L 177.531486 112.698426 
L 177.582894 112.698426 
L 177.61952 111.356389 
L 177.714384 111.356389 
L 177.801489 109.343332 
L 178.031633 109.343332 
L 178.124256 108.224968 
L 178.152655 108.224968 
L 178.230512 107.553949 
L 178.329095 107.553949 
L 178.434096 106.994767 
L 178.510692 106.994767 
L 178.510692 106.882931 
L 178.649087 106.882931 
L 178.745305 105.876403 
L 178.820529 105.876403 
L 178.861422 105.093547 
L 178.997033 105.093547 
L 179.044245 102.968655 
L 179.151675 102.968655 
L 179.225145 101.962127 
L 179.291664 101.962127 
L 179.397563 101.067435 
L 179.443689 101.067435 
L 179.522476 100.396417 
L 179.65299 100.396417 
L 179.75023 99.389889 
L 179.834061 99.389889 
L 179.904677 97.600505 
L 179.949464 97.600505 
L 180.051399 96.705814 
L 180.076788 96.705814 
L 180.146416 95.363776 
L 180.196878 95.363776 
L 180.247193 94.804594 
L 180.341137 94.804594 
L 180.372338 94.245412 
L 180.465603 94.245412 
L 180.546025 93.798066 
L 180.650628 93.798066 
L 180.73019 92.903375 
L 180.785058 92.903375 
L 180.857942 92.679702 
L 180.924483 92.679702 
L 180.99678 91.78501 
L 181.04481 91.78501 
L 181.152389 89.100935 
L 181.1643 89.100935 
L 181.1643 88.65359 
L 181.312505 88.65359 
L 181.389069 86.75237 
L 181.459442 86.75237 
L 181.529528 86.081351 
L 181.59933 86.081351 
L 181.605134 85.298496 
L 181.738089 85.298496 
L 181.738089 84.962987 
L 181.85859 84.962987 
L 181.949837 84.068295 
L 182.029283 84.068295 
L 182.102727 83.509113 
L 182.170244 83.509113 
L 182.231902 81.71973 
L 182.304487 81.71973 
L 182.376766 80.601365 
L 182.443217 80.601365 
L 182.531421 77.917291 
L 182.591799 77.917291 
L 182.668339 77.246272 
L 182.711924 77.246272 
L 182.809587 76.35158 
L 182.92283 76.35158 
L 182.976494 76.127907 
L 183.06734 76.127907 
L 183.16831 75.792398 
L 183.24233 75.792398 
L 183.352767 74.562197 
L 183.384191 74.562197 
L 183.457289 73.779342 
L 183.504118 73.779342 
L 183.612891 73.443833 
L 183.643843 73.443833 
L 183.648996 72.88465 
L 183.843683 72.88465 
L 183.930071 71.878122 
L 183.965516 71.878122 
L 184.061359 70.647921 
L 184.12663 70.647921 
L 184.181665 70.312412 
L 184.241504 70.312412 
L 184.31601 69.305884 
L 184.444395 69.305884 
L 184.552284 68.970375 
L 184.557172 68.970375 
L 184.644919 67.516501 
L 184.741893 67.516501 
L 184.799816 66.509973 
L 184.867147 66.509973 
L 184.89113 65.838954 
L 185.001023 65.838954 
L 185.10075 65.167935 
L 185.12441 65.167935 
L 185.195194 64.273244 
L 185.237524 64.273244 
L 185.307845 62.931206 
L 185.359231 62.931206 
L 185.387195 62.036515 
L 185.470816 62.036515 
L 185.544805 61.141823 
L 185.595489 61.141823 
L 185.659779 60.806314 
L 185.787644 60.806314 
L 185.860285 60.135295 
L 185.923595 60.135295 
L 186.018125 59.240604 
L 186.07191 59.240604 
L 186.152272 58.681421 
L 186.241126 58.681421 
L 186.294218 57.451221 
L 186.404303 57.451221 
L 186.509326 56.444692 
L 186.539837 56.444692 
L 186.639708 55.214492 
L 186.691585 55.214492 
L 186.799162 54.207964 
L 186.803451 54.207964 
L 186.884742 52.865926 
L 186.918855 52.865926 
L 186.999602 51.523889 
L 187.063084 51.523889 
L 187.126332 50.181851 
L 187.227047 50.181851 
L 187.227047 49.734506 
L 187.430859 49.734506 
L 187.517472 49.063487 
L 187.542139 49.063487 
L 187.648621 48.056959 
L 187.664945 48.056959 
L 187.75039 47.050431 
L 187.786879 47.050431 
L 187.811163 46.379412 
L 187.924034 46.379412 
L 187.936083 45.82023 
L 188.044151 45.82023 
L 188.11582 44.701865 
L 188.187191 44.701865 
L 188.285829 43.471665 
L 188.348662 43.471665 
L 188.442482 43.024319 
L 188.512513 43.024319 
L 188.520277 42.576973 
L 188.678663 42.576973 
L 188.736246 41.570445 
L 188.831792 41.570445 
L 188.923019 40.78759 
L 188.960888 40.78759 
L 188.998673 40.45208 
L 189.092775 40.45208 
L 189.16395 40.004735 
L 189.231108 40.004735 
L 189.309128 39.557389 
L 189.349855 39.557389 
L 189.43838 38.550861 
L 189.581269 38.550861 
L 189.624996 38.215351 
L 189.701253 38.215351 
L 189.751904 37.432496 
L 189.834793 37.432496 
L 189.93159 35.643113 
L 189.99582 35.643113 
L 189.99582 35.41944 
L 190.222269 35.41944 
L 190.267904 34.189239 
L 190.424943 34.189239 
L 190.424943 33.965566 
L 190.570229 33.965566 
L 190.570229 33.85373 
L 191.045834 33.85373 
L 191.045834 33.741894 
L 191.377671 33.741894 
L 191.377671 33.518221 
L 191.638604 33.518221 
L 191.638604 32.399856 
L 192.512657 32.399856 
L 192.512657 32.064347 
L 193.117208 32.064347 
L 193.117208 31.95251 
L 194.495088 31.95251 
L 194.495088 31.393328 
L 195.755387 31.393328 
L 195.755387 31.281492 
L 196.314314 31.281492 
L 196.314314 31.057819 
L 196.869969 31.057819 
L 196.869969 30.834146 
L 198.270204 30.834146 
L 198.270204 30.722309 
L 198.597201 30.722309 
L 198.597201 30.610473 
L 203.876725 30.610473 
L 203.876725 30.274964 
L 204.377613 30.274964 
L 204.377613 30.163127 
L 204.514367 30.163127 
L 204.514367 30.051291 
L 204.882303 30.051291 
L 204.971952 29.715781 
L 205.191107 29.715781 
L 205.273307 29.044763 
L 205.339077 29.044763 
L 205.374052 28.597417 
L 205.557951 28.597417 
L 205.582419 28.373744 
L 205.749877 28.373744 
L 205.749877 28.261908 
L 205.984702 28.261908 
L 206.04921 27.590889 
L 206.162216 27.590889 
L 206.162216 27.479052 
L 206.313122 27.479052 
L 206.313122 27.367216 
L 206.500932 27.367216 
L 206.590683 27.031707 
L 206.619142 27.031707 
L 206.725783 26.472524 
L 206.89984 26.472524 
L 206.988862 26.137015 
L 207.18389 26.137015 
L 207.24667 25.801506 
L 207.340413 25.801506 
L 207.340413 25.689669 
L 207.514813 25.689669 
L 207.595598 25.35416 
L 207.654345 25.35416 
L 207.654345 25.130487 
L 207.826867 25.130487 
L 207.849572 24.459468 
L 207.975165 24.459468 
L 208.081203 24.235795 
L 208.277816 24.235795 
L 208.277816 24.123959 
L 208.468558 24.123959 
L 208.557094 23.229267 
L 208.707645 23.229267 
L 208.765108 23.005594 
L 209.373307 23.005594 
L 209.373307 22.446412 
L 209.488282 22.446412 
L 209.488282 22.222739 
L 209.952914 22.222739 
L 209.952914 21.88723 
L 210.259121 21.88723 
L 210.259121 21.663557 
L 210.916913 21.663557 
L 210.991621 21.216211 
L 211.485287 21.216211 
L 211.485287 20.992538 
L 211.711303 20.992538 
L 211.711303 20.880702 
L 215.18562 20.880702 
L 215.18562 20.768866 
L 215.469534 20.768866 
L 215.469534 20.657029 
L 215.604935 20.657029 
L 215.604935 20.433356 
L 215.736092 20.433356 
L 215.783827 20.209683 
L 215.92309 20.209683 
L 215.999364 19.874174 
L 216.111974 19.874174 
L 216.20293 19.650501 
L 216.232368 19.650501 
L 216.232368 19.314992 
L 216.347311 19.314992 
L 216.428618 18.979482 
L 216.741037 18.979482 
L 216.741037 18.643973 
L 216.888438 18.643973 
L 216.998351 18.308464 
L 217.033848 18.308464 
L 217.033848 18.084791 
L 217.232163 18.084791 
L 217.232163 17.972954 
L 217.377602 17.972954 
L 217.449863 17.637445 
L 217.624915 17.637445 
L 217.716747 17.301936 
L 217.744414 17.301936 
L 217.787599 16.85459 
L 217.909487 16.85459 
L 217.909487 16.742753 
L 218.269363 16.742753 
L 218.337977 16.51908 
L 218.617142 16.51908 
L 218.617142 16.183571 
L 219.844936 16.183571 
L 219.844936 15.736225 
L 220.224005 15.736225 
L 220.224005 15.624389 
L 222.359174 15.624389 
L 222.44944 15.28888 
L 222.479603 15.28888 
L 222.486597 14.95337 
L 222.992798 14.95337 
L 223.095389 14.617861 
L 223.130141 14.617861 
L 223.206659 14.394188 
L 223.341287 14.394188 
L 223.42095 14.058679 
L 223.471822 14.058679 
L 223.522544 13.723169 
L 223.675323 13.723169 
L 223.675323 13.611333 
L 223.994124 13.611333 
L 224.102192 13.38766 
L 224.15109 13.38766 
L 224.15109 13.275823 
L 225.030554 13.275823 
L 225.1337 13.052151 
L 227.253425 13.052151 
L 227.352605 12.716641 
L 227.415717 12.716641 
L 227.499507 12.381132 
L 227.589288 12.381132 
L 227.69927 12.157459 
L 227.823939 12.157459 
L 227.930475 11.933786 
L 228.095846 11.933786 
L 228.095846 11.82195 
L 228.487272 11.82195 
L 228.487272 11.710113 
L 228.642508 11.710113 
L 228.642508 11.48644 
L 228.999734 11.48644 
L 228.999734 11.262767 
L 230.86699 11.262767 
L 230.86699 11.150931 
L 231.391447 11.150931 
L 231.391447 11.039095 
L 231.512783 11.039095 
L 231.518509 10.815422 
L 231.847409 10.815422 
L 231.847409 10.703585 
L 232.074013 10.703585 
L 232.074013 10.591749 
L 233.874573 10.591749 
L 233.947633 10.368076 
L 234.006353 10.368076 
L 234.084062 10.144403 
L 235.30384 10.144403 
L 235.30384 10.032566 
L 236.776739 10.032566 
L 236.776739 9.92073 
L 239.42601 9.92073 
L 239.42601 9.808894 
L 242.858208 9.808894 
L 242.858208 9.697057 
L 333.168 9.697057 
L 333.168 9.697057 
" style="fill:none;stroke:#ff00ff;stroke-linecap:square;stroke-width:1.5;"/>
   </g>
   <g id="line2d_49">
    <defs>
     <path d="M -0 8.485281 
L 5.091169 0 
L 0 -8.485281 
L -5.091169 -0 
z
" id="m2f45440fc3" style="stroke:#ff00ff;stroke-linejoin:miter;stroke-width:1.5;"/>
    </defs>
    <g>
     <use style="fill-opacity:0;stroke:#ff00ff;stroke-linejoin:miter;stroke-width:1.5;" x="126.780294" xlink:href="#m2f45440fc3" y="237.172393"/>
     <use style="fill-opacity:0;stroke:#ff00ff;stroke-linejoin:miter;stroke-width:1.5;" x="171.158418" xlink:href="#m2f45440fc3" y="148.15058"/>
     <use style="fill-opacity:0;stroke:#ff00ff;stroke-linejoin:miter;stroke-width:1.5;" x="227.415717" xlink:href="#m2f45440fc3" y="12.716641"/>
     <use style="fill-opacity:0;stroke:#ff00ff;stroke-linejoin:miter;stroke-width:1.5;" x="242.858208" xlink:href="#m2f45440fc3" y="9.697057"/>
     <use style="fill-opacity:0;stroke:#ff00ff;stroke-linejoin:miter;stroke-width:1.5;" x="242.858208" xlink:href="#m2f45440fc3" y="9.697057"/>
     <use style="fill-opacity:0;stroke:#ff00ff;stroke-linejoin:miter;stroke-width:1.5;" x="333.168" xlink:href="#m2f45440fc3" y="9.697057"/>
    </g>
   </g>
   <g id="line2d_50">
    <path style="fill:none;stroke:#ff00ff;stroke-linecap:square;stroke-width:1.5;"/>
    <g/>
   </g>
   <g id="line2d_51">
    <path clip-path="url(#p585cd15fa0)" d="M 202.691626 30.610473 
" style="fill:none;stroke:#ff00ff;stroke-linecap:square;stroke-width:1.5;"/>
    <defs>
     <path d="M -12 12 
L 12 -12 
M -12 -12 
L 12 12 
" id="m7ab9e74170" style="stroke:#ff00ff;"/>
    </defs>
    <g clip-path="url(#p585cd15fa0)">
     <use style="fill:#ff00ff;stroke:#ff00ff;" x="202.691626" xlink:href="#m7ab9e74170" y="30.610473"/>
    </g>
   </g>
   <g id="line2d_52">
    <path d="M 333.168 9.697057 
L 363.64328 289.176341 
" style="fill:none;stroke:#ff00ff;stroke-linecap:square;stroke-width:1.5;"/>
    <g>
     <use style="fill-opacity:0;stroke:#ff00ff;stroke-linejoin:miter;stroke-width:1.5;" x="333.168" xlink:href="#m2f45440fc3" y="9.697057"/>
     <use style="fill-opacity:0;stroke:#ff00ff;stroke-linejoin:miter;stroke-width:1.5;" x="363.64328" xlink:href="#m2f45440fc3" y="289.176341"/>
    </g>
   </g>
   <g id="line2d_53">
    <path d="M 333.168 9.697057 
L 363.64328 152.288529 
" style="fill:none;stroke:#000080;stroke-linecap:square;stroke-width:1.5;"/>
    <g>
     <use style="fill-opacity:0;stroke:#000080;stroke-width:1.5;" x="333.168" xlink:href="#m4b11088d8b" y="9.697057"/>
     <use style="fill-opacity:0;stroke:#000080;stroke-width:1.5;" x="363.64328" xlink:href="#m4b11088d8b" y="152.288529"/>
    </g>
   </g>
   <g id="line2d_54">
    <path d="M 333.168 294.88 
L 333.168 9.697057 
" style="fill:none;stroke:#000000;stroke-linecap:square;stroke-width:1.5;"/>
   </g>
   <g id="patch_3">
    <path d="M 56.12 294.88 
L 56.12 6.845228 
" style="fill:none;stroke:#000000;stroke-linecap:square;stroke-linejoin:miter;stroke-width:0.8;"/>
   </g>
   <g id="patch_4">
    <path d="M 333.168 294.88 
L 333.168 6.845228 
" style="fill:none;stroke:#000000;stroke-linecap:square;stroke-linejoin:miter;stroke-width:0.8;"/>
   </g>
   <g id="patch_5">
    <path d="M 56.12 294.88 
L 333.168 294.88 
" style="fill:none;stroke:#000000;stroke-linecap:square;stroke-linejoin:miter;stroke-width:0.8;"/>
   </g>
   <g id="patch_6">
    <path d="M 56.12 6.845228 
L 333.168 6.845228 
" style="fill:none;stroke:#000000;stroke-linecap:square;stroke-linejoin:miter;stroke-width:0.8;"/>
   </g>
   <g id="text_13">
    <!-- PSO2 -->
    <defs>
     <path d="M 19.671875 64.796875 
L 19.671875 37.40625 
L 32.078125 37.40625 
Q 38.96875 37.40625 42.71875 40.96875 
Q 46.484375 44.53125 46.484375 51.125 
Q 46.484375 57.671875 42.71875 61.234375 
Q 38.96875 64.796875 32.078125 64.796875 
z
M 9.8125 72.90625 
L 32.078125 72.90625 
Q 44.34375 72.90625 50.609375 67.359375 
Q 56.890625 61.8125 56.890625 51.125 
Q 56.890625 40.328125 50.609375 34.8125 
Q 44.34375 29.296875 32.078125 29.296875 
L 19.671875 29.296875 
L 19.671875 0 
L 9.8125 0 
z
" id="DejaVuSans-50"/>
     <path d="M 53.515625 70.515625 
L 53.515625 60.890625 
Q 47.90625 63.578125 42.921875 64.890625 
Q 37.9375 66.21875 33.296875 66.21875 
Q 25.25 66.21875 20.875 63.09375 
Q 16.5 59.96875 16.5 54.203125 
Q 16.5 49.359375 19.40625 46.890625 
Q 22.3125 44.4375 30.421875 42.921875 
L 36.375 41.703125 
Q 47.40625 39.59375 52.65625 34.296875 
Q 57.90625 29 57.90625 20.125 
Q 57.90625 9.515625 50.796875 4.046875 
Q 43.703125 -1.421875 29.984375 -1.421875 
Q 24.8125 -1.421875 18.96875 -0.25 
Q 13.140625 0.921875 6.890625 3.21875 
L 6.890625 13.375 
Q 12.890625 10.015625 18.65625 8.296875 
Q 24.421875 6.59375 29.984375 6.59375 
Q 38.421875 6.59375 43.015625 9.90625 
Q 47.609375 13.234375 47.609375 19.390625 
Q 47.609375 24.75 44.3125 27.78125 
Q 41.015625 30.8125 33.5 32.328125 
L 27.484375 33.5 
Q 16.453125 35.6875 11.515625 40.375 
Q 6.59375 45.0625 6.59375 53.421875 
Q 6.59375 63.09375 13.40625 68.65625 
Q 20.21875 74.21875 32.171875 74.21875 
Q 37.3125 74.21875 42.625 73.28125 
Q 47.953125 72.359375 53.515625 70.515625 
z
" id="DejaVuSans-53"/>
     <path d="M 39.40625 66.21875 
Q 28.65625 66.21875 22.328125 58.203125 
Q 16.015625 50.203125 16.015625 36.375 
Q 16.015625 22.609375 22.328125 14.59375 
Q 28.65625 6.59375 39.40625 6.59375 
Q 50.140625 6.59375 56.421875 14.59375 
Q 62.703125 22.609375 62.703125 36.375 
Q 62.703125 50.203125 56.421875 58.203125 
Q 50.140625 66.21875 39.40625 66.21875 
z
M 39.40625 74.21875 
Q 54.734375 74.21875 63.90625 63.9375 
Q 73.09375 53.65625 73.09375 36.375 
Q 73.09375 19.140625 63.90625 8.859375 
Q 54.734375 -1.421875 39.40625 -1.421875 
Q 24.03125 -1.421875 14.8125 8.828125 
Q 5.609375 19.09375 5.609375 36.375 
Q 5.609375 53.65625 14.8125 63.9375 
Q 24.03125 74.21875 39.40625 74.21875 
z
" id="DejaVuSans-4f"/>
    </defs>
    <g transform="translate(369.18424 293.867279)scale(0.17 -0.17)">
     <use xlink:href="#DejaVuSans-50"/>
     <use x="60.302734" xlink:href="#DejaVuSans-53"/>
     <use x="123.779297" xlink:href="#DejaVuSans-4f"/>
     <use x="202.490234" xlink:href="#DejaVuSans-32"/>
    </g>
   </g>
   <g id="text_14">
    <!-- PSO1 -->
    <g transform="translate(369.18424 156.979466)scale(0.17 -0.17)">
     <use xlink:href="#DejaVuSans-50"/>
     <use x="60.302734" xlink:href="#DejaVuSans-53"/>
     <use x="123.779297" xlink:href="#DejaVuSans-4f"/>
     <use x="202.490234" xlink:href="#DejaVuSans-31"/>
    </g>
   </g>
   <g id="text_15">
    <!-- best 2009 -->
    <defs>
     <path d="M 48.6875 27.296875 
Q 48.6875 37.203125 44.609375 42.84375 
Q 40.53125 48.484375 33.40625 48.484375 
Q 26.265625 48.484375 22.1875 42.84375 
Q 18.109375 37.203125 18.109375 27.296875 
Q 18.109375 17.390625 22.1875 11.75 
Q 26.265625 6.109375 33.40625 6.109375 
Q 40.53125 6.109375 44.609375 11.75 
Q 48.6875 17.390625 48.6875 27.296875 
z
M 18.109375 46.390625 
Q 20.953125 51.265625 25.265625 53.625 
Q 29.59375 56 35.59375 56 
Q 45.5625 56 51.78125 48.09375 
Q 58.015625 40.1875 58.015625 27.296875 
Q 58.015625 14.40625 51.78125 6.484375 
Q 45.5625 -1.421875 35.59375 -1.421875 
Q 29.59375 -1.421875 25.265625 0.953125 
Q 20.953125 3.328125 18.109375 8.203125 
L 18.109375 0 
L 9.078125 0 
L 9.078125 75.984375 
L 18.109375 75.984375 
z
" id="DejaVuSans-62"/>
     <path d="M 10.984375 1.515625 
L 10.984375 10.5 
Q 14.703125 8.734375 18.5 7.8125 
Q 22.3125 6.890625 25.984375 6.890625 
Q 35.75 6.890625 40.890625 13.453125 
Q 46.046875 20.015625 46.78125 33.40625 
Q 43.953125 29.203125 39.59375 26.953125 
Q 35.25 24.703125 29.984375 24.703125 
Q 19.046875 24.703125 12.671875 31.3125 
Q 6.296875 37.9375 6.296875 49.421875 
Q 6.296875 60.640625 12.9375 67.421875 
Q 19.578125 74.21875 30.609375 74.21875 
Q 43.265625 74.21875 49.921875 64.515625 
Q 56.59375 54.828125 56.59375 36.375 
Q 56.59375 19.140625 48.40625 8.859375 
Q 40.234375 -1.421875 26.421875 -1.421875 
Q 22.703125 -1.421875 18.890625 -0.6875 
Q 15.09375 0.046875 10.984375 1.515625 
z
M 30.609375 32.421875 
Q 37.25 32.421875 41.125 36.953125 
Q 45.015625 41.5 45.015625 49.421875 
Q 45.015625 57.28125 41.125 61.84375 
Q 37.25 66.40625 30.609375 66.40625 
Q 23.96875 66.40625 20.09375 61.84375 
Q 16.21875 57.28125 16.21875 49.421875 
Q 16.21875 41.5 20.09375 36.953125 
Q 23.96875 32.421875 30.609375 32.421875 
z
" id="DejaVuSans-39"/>
    </defs>
    <g transform="translate(369.18424 20.091654)scale(0.17 -0.17)">
     <use xlink:href="#DejaVuSans-62"/>
     <use x="63.476562" xlink:href="#DejaVuSans-65"/>
     <use x="125" xlink:href="#DejaVuSans-73"/>
     <use x="177.099609" xlink:href="#DejaVuSans-74"/>
     <use x="216.308594" xlink:href="#DejaVuSans-20"/>
     <use x="248.095703" xlink:href="#DejaVuSans-32"/>
     <use x="311.71875" xlink:href="#DejaVuSans-30"/>
     <use x="375.341797" xlink:href="#DejaVuSans-30"/>
     <use x="438.964844" xlink:href="#DejaVuSans-39"/>
    </g>
   </g>
   <g id="text_16">
    <!-- bbob f1-f5, 2-D -->
    <defs>
     <path d="M 10.796875 72.90625 
L 49.515625 72.90625 
L 49.515625 64.59375 
L 19.828125 64.59375 
L 19.828125 46.734375 
Q 21.96875 47.46875 24.109375 47.828125 
Q 26.265625 48.1875 28.421875 48.1875 
Q 40.625 48.1875 47.75 41.5 
Q 54.890625 34.8125 54.890625 23.390625 
Q 54.890625 11.625 47.5625 5.09375 
Q 40.234375 -1.421875 26.90625 -1.421875 
Q 22.3125 -1.421875 17.546875 -0.640625 
Q 12.796875 0.140625 7.71875 1.703125 
L 7.71875 11.625 
Q 12.109375 9.234375 16.796875 8.0625 
Q 21.484375 6.890625 26.703125 6.890625 
Q 35.15625 6.890625 40.078125 11.328125 
Q 45.015625 15.765625 45.015625 23.390625 
Q 45.015625 31 40.078125 35.4375 
Q 35.15625 39.890625 26.703125 39.890625 
Q 22.75 39.890625 18.8125 39.015625 
Q 14.890625 38.140625 10.796875 36.28125 
z
" id="DejaVuSans-35"/>
     <path d="M 19.671875 64.796875 
L 19.671875 8.109375 
L 31.59375 8.109375 
Q 46.6875 8.109375 53.6875 14.9375 
Q 60.6875 21.78125 60.6875 36.53125 
Q 60.6875 51.171875 53.6875 57.984375 
Q 46.6875 64.796875 31.59375 64.796875 
z
M 9.8125 72.90625 
L 30.078125 72.90625 
Q 51.265625 72.90625 61.171875 64.09375 
Q 71.09375 55.28125 71.09375 36.53125 
Q 71.09375 17.671875 61.125 8.828125 
Q 51.171875 0 30.078125 0 
L 9.8125 0 
z
" id="DejaVuSans-44"/>
    </defs>
    <g transform="translate(58.89048 17.475982)scale(0.102 -0.102)">
     <use xlink:href="#DejaVuSans-62"/>
     <use x="63.476562" xlink:href="#DejaVuSans-62"/>
     <use x="126.953125" xlink:href="#DejaVuSans-6f"/>
     <use x="188.134766" xlink:href="#DejaVuSans-62"/>
     <use x="251.611328" xlink:href="#DejaVuSans-20"/>
     <use x="283.398438" xlink:href="#DejaVuSans-66"/>
     <use x="318.603516" xlink:href="#DejaVuSans-31"/>
     <use x="382.226562" xlink:href="#DejaVuSans-2d"/>
     <use x="418.310547" xlink:href="#DejaVuSans-66"/>
     <use x="453.515625" xlink:href="#DejaVuSans-35"/>
     <use x="517.138672" xlink:href="#DejaVuSans-2c"/>
     <use x="548.925781" xlink:href="#DejaVuSans-20"/>
     <use x="580.712891" xlink:href="#DejaVuSans-32"/>
     <use x="644.335938" xlink:href="#DejaVuSans-2d"/>
     <use x="680.419922" xlink:href="#DejaVuSans-44"/>
    </g>
    <!-- 51 targets: 100..1e-08 -->
    <defs>
     <path d="M 11.71875 12.40625 
L 22.015625 12.40625 
L 22.015625 0 
L 11.71875 0 
z
M 11.71875 51.703125 
L 22.015625 51.703125 
L 22.015625 39.3125 
L 11.71875 39.3125 
z
" id="DejaVuSans-3a"/>
    </defs>
    <g transform="translate(58.89048 28.89775)scale(0.102 -0.102)">
     <use xlink:href="#DejaVuSans-35"/>
     <use x="63.623047" xlink:href="#DejaVuSans-31"/>
     <use x="127.246094" xlink:href="#DejaVuSans-20"/>
     <use x="159.033203" xlink:href="#DejaVuSans-74"/>
     <use x="198.242188" xlink:href="#DejaVuSans-61"/>
     <use x="259.521484" xlink:href="#DejaVuSans-72"/>
     <use x="300.619141" xlink:href="#DejaVuSans-67"/>
     <use x="364.095703" xlink:href="#DejaVuSans-65"/>
     <use x="425.619141" xlink:href="#DejaVuSans-74"/>
     <use x="464.828125" xlink:href="#DejaVuSans-73"/>
     <use x="516.927734" xlink:href="#DejaVuSans-3a"/>
     <use x="550.619141" xlink:href="#DejaVuSans-20"/>
     <use x="582.40625" xlink:href="#DejaVuSans-31"/>
     <use x="646.029297" xlink:href="#DejaVuSans-30"/>
     <use x="709.652344" xlink:href="#DejaVuSans-30"/>
     <use x="773.275391" xlink:href="#DejaVuSans-2e"/>
     <use x="805.0625" xlink:href="#DejaVuSans-2e"/>
     <use x="836.849609" xlink:href="#DejaVuSans-31"/>
     <use x="900.472656" xlink:href="#DejaVuSans-65"/>
     <use x="961.996094" xlink:href="#DejaVuSans-2d"/>
     <use x="998.080078" xlink:href="#DejaVuSans-30"/>
     <use x="1061.703125" xlink:href="#DejaVuSans-38"/>
    </g>
    <!-- 15 instances -->
    <g transform="translate(58.89048 40.319519)scale(0.102 -0.102)">
     <use xlink:href="#DejaVuSans-31"/>
     <use x="63.623047" xlink:href="#DejaVuSans-35"/>
     <use x="127.246094" xlink:href="#DejaVuSans-20"/>
     <use x="159.033203" xlink:href="#DejaVuSans-69"/>
     <use x="186.816406" xlink:href="#DejaVuSans-6e"/>
     <use x="250.195312" xlink:href="#DejaVuSans-73"/>
     <use x="302.294922" xlink:href="#DejaVuSans-74"/>
     <use x="341.503906" xlink:href="#DejaVuSans-61"/>
     <use x="402.783203" xlink:href="#DejaVuSans-6e"/>
     <use x="466.162109" xlink:href="#DejaVuSans-63"/>
     <use x="521.142578" xlink:href="#DejaVuSans-65"/>
     <use x="582.666016" xlink:href="#DejaVuSans-73"/>
    </g>
   </g>
   <g id="text_17">
    <!-- v0.0.0 -->
    <g style="fill:#808080;" transform="translate(178.96275 289.919965)scale(0.1 -0.1)">
     <use xlink:href="#DejaVuSans-76"/>
     <use x="59.179688" xlink:href="#DejaVuSans-30"/>
     <use x="122.802734" xlink:href="#DejaVuSans-2e"/>
     <use x="154.589844" xlink:href="#DejaVuSans-30"/>
     <use x="218.212891" xlink:href="#DejaVuSans-2e"/>
     <use x="250" xlink:href="#DejaVuSans-30"/>
    </g>
   </g>
  </g>
 </g>
 <defs>
  <clipPath id="p585cd15fa0">
   <rect height="288.034772" width="277.048" x="56.12" y="6.845228"/>
  </clipPath>
 </defs>
</svg>
