<?xml version="1.0" encoding="utf-8" standalone="no"?>
<!DOCTYPE svg PUBLIC "-//W3C//DTD SVG 1.1//EN"
  "http://www.w3.org/Graphics/SVG/1.1/DTD/svg11.dtd">
<!-- Created with matplotlib (http://matplotlib.org/) -->
<svg height="345.6pt" version="1.1" viewBox="0 0 460.8 345.6" width="460.8pt" xmlns="http://www.w3.org/2000/svg" xmlns:xlink="http://www.w3.org/1999/xlink">
 <defs>
  <style type="text/css">
*{stroke-linecap:butt;stroke-linejoin:round;}
  </style>
 </defs>
 <g id="figure_1">
  <g id="patch_1">
   <path d="M 0 345.6 
L 460.8 345.6 
L 460.8 0 
L 0 0 
z
" style="fill:#ffffff;"/>
  </g>
  <g id="axes_1">
   <g id="patch_2">
    <path d="M 56.12 294.88 
L 333.168 294.88 
L 333.168 6.845228 
L 56.12 6.845228 
z
" style="fill:#ffffff;"/>
   </g>
   <g id="line2d_1">
    <path d="M 28.455965 294.88 
L 28.455965 273.631075 
L 40.370217 273.631075 
L 40.370217 270.275981 
L 47.339607 270.275981 
L 47.339607 269.157617 
L 56.12 269.157617 
L 56.12 266.920888 
L 61.903497 266.920888 
L 61.903497 265.802523 
L 72.543934 265.802523 
L 72.543934 264.684159 
L 76.11297 264.684159 
L 76.11297 263.565795 
L 79.948502 263.565795 
L 79.948502 262.44743 
L 83.08236 262.44743 
L 83.08236 261.329066 
L 84.458185 261.329066 
L 84.458185 260.210701 
L 94.26507 260.210701 
L 94.26507 259.092337 
L 97.336537 259.092337 
L 97.336537 257.973972 
L 97.950482 257.973972 
L 97.950482 256.855608 
L 98.249422 256.855608 
L 98.249422 255.737243 
L 108.120612 255.737243 
L 108.120612 254.618879 
L 109.250788 254.618879 
L 109.250788 253.500514 
L 110.746395 253.500514 
L 110.746395 252.38215 
L 114.117341 252.38215 
L 114.117341 251.263785 
L 115.798351 251.263785 
L 115.798351 250.145421 
L 116.934349 250.145421 
L 116.934349 249.027056 
L 117.905717 249.027056 
L 117.905717 247.908692 
L 118.735356 247.908692 
L 118.735356 246.790327 
L 119.003236 246.790327 
L 119.003236 245.671963 
L 120.769881 245.671963 
L 120.769881 244.553598 
L 122.803291 244.553598 
L 122.803291 242.316869 
L 125.854083 242.316869 
L 125.854083 241.198505 
L 127.497741 241.198505 
L 127.497741 240.08014 
L 128.341524 240.08014 
L 128.341524 238.961776 
L 129.772681 238.961776 
L 129.772681 237.843411 
L 130.468672 237.843411 
L 130.468672 236.725047 
L 130.649607 236.725047 
L 130.649607 235.606682 
L 131.949115 235.606682 
L 131.949115 234.488318 
L 133.579779 234.488318 
L 133.579779 233.369954 
L 134.788423 233.369954 
L 134.788423 232.251589 
L 135.650622 232.251589 
L 135.650622 231.133225 
L 136.180564 231.133225 
L 136.180564 230.01486 
L 138.381758 230.01486 
L 138.381758 228.896496 
L 138.750809 228.896496 
L 138.750809 227.778131 
L 140.434959 227.778131 
L 140.434959 226.659767 
L 142.428336 226.659767 
L 142.428336 225.541402 
L 144.295937 225.541402 
L 144.295937 224.423038 
L 145.36071 224.423038 
L 145.36071 223.304673 
L 148.497755 223.304673 
L 148.497755 222.186309 
L 150.035789 222.186309 
L 150.035789 221.067944 
L 150.209706 221.067944 
L 150.209706 219.94958 
L 155.129314 219.94958 
L 155.129314 218.831215 
L 157.746429 218.831215 
L 157.746429 217.712851 
L 159.479124 217.712851 
L 159.479124 216.594486 
L 160.009066 216.594486 
L 160.033511 214.357757 
L 161.137241 214.357757 
L 161.137241 213.239393 
L 162.677333 213.239393 
L 162.677333 212.121028 
L 164.019828 212.121028 
L 164.019828 211.002664 
L 165.259017 211.002664 
L 165.259017 209.884299 
L 165.651034 209.884299 
L 165.651034 208.765935 
L 166.515657 208.765935 
L 166.515657 207.64757 
L 167.423824 207.64757 
L 167.423824 206.529206 
L 167.655324 206.529206 
L 167.655324 205.410841 
L 168.109176 205.410841 
L 168.109176 204.292477 
L 169.22741 204.292477 
L 169.22741 203.174112 
L 169.534653 203.174112 
L 169.534653 202.055748 
L 169.932899 202.055748 
L 169.932899 200.937384 
L 170.268342 200.937384 
L 170.268342 199.819019 
L 170.881263 199.819019 
L 170.881263 198.700655 
L 171.122149 198.700655 
L 171.12642 196.463926 
L 171.939617 196.463926 
L 171.939617 195.345561 
L 172.346158 195.345561 
L 172.346158 194.227197 
L 173.108667 194.227197 
L 173.108667 193.108832 
L 173.802272 193.108832 
L 173.802272 191.990468 
L 174.138853 191.990468 
L 174.138853 190.872103 
L 174.66821 190.872103 
L 174.66821 189.753739 
L 175.422905 189.753739 
L 175.422905 188.635374 
L 176.940393 188.635374 
L 176.940393 187.51701 
L 177.094987 187.51701 
L 177.094987 186.398645 
L 178.080144 186.398645 
L 178.080144 185.280281 
L 178.574492 185.280281 
L 178.574492 184.161916 
L 178.965937 184.161916 
L 178.965937 183.043552 
L 180.135042 183.043552 
L 180.135042 181.925187 
L 181.167872 181.925187 
L 181.167872 180.806823 
L 181.317226 180.806823 
L 181.399643 178.570094 
L 181.556319 178.570094 
L 181.556319 177.451729 
L 181.672318 177.451729 
L 181.672318 176.333365 
L 181.897429 176.333365 
L 181.897429 175.215 
L 182.171367 175.215 
L 182.171367 174.096636 
L 182.334548 174.096636 
L 182.334548 172.978271 
L 182.452058 172.978271 
L 182.452058 171.859907 
L 182.610419 171.859907 
L 182.610419 170.741543 
L 182.791182 170.741543 
L 182.791182 169.623178 
L 182.997913 169.623178 
L 183.042806 167.386449 
L 183.113116 167.386449 
L 183.113116 166.268085 
L 183.238109 166.268085 
L 183.347524 162.912991 
L 183.472913 162.912991 
L 183.472913 161.794627 
L 183.6325 161.794627 
L 183.6325 160.676262 
L 183.876256 160.676262 
L 183.876256 159.557898 
L 184.066389 159.557898 
L 184.066389 158.439533 
L 184.31601 158.439533 
L 184.31601 157.321169 
L 184.454231 157.321169 
L 184.454231 156.202804 
L 184.992448 156.202804 
L 184.992448 155.08444 
L 185.174461 155.08444 
L 185.174461 153.966075 
L 185.484713 153.966075 
L 185.54019 151.729346 
L 186.178087 151.729346 
L 186.178087 150.610982 
L 186.323349 150.610982 
L 186.323349 149.492617 
L 187.047024 149.492617 
L 187.151566 146.137524 
L 187.218676 146.137524 
L 187.317188 142.78243 
L 187.40686 142.78243 
L 187.421759 140.545702 
L 187.524053 140.545702 
L 187.540496 138.308973 
L 187.695917 138.308973 
L 187.695917 137.190608 
L 187.887029 137.190608 
L 187.887029 136.072244 
L 188.052129 136.072244 
L 188.052129 134.953879 
L 188.258268 134.953879 
L 188.258268 133.835515 
L 188.405797 133.835515 
L 188.405797 132.71715 
L 188.569107 132.71715 
L 188.675586 130.480421 
L 188.706327 130.480421 
L 188.813488 127.125328 
L 188.963914 127.125328 
L 189.045412 124.888599 
L 189.083013 124.888599 
L 189.18039 122.65187 
L 189.25641 122.65187 
L 189.332095 120.415141 
L 189.38532 120.415141 
L 189.45162 118.178412 
L 189.517665 118.178412 
L 189.628635 114.823318 
L 189.685304 114.823318 
L 189.769236 110.349861 
L 189.842701 110.349861 
L 189.902966 106.994767 
L 189.990121 106.994767 
L 190.089592 103.639674 
L 190.1377 103.639674 
L 190.211017 99.166216 
L 190.264398 99.166216 
L 190.289626 96.929487 
L 190.440221 96.929487 
L 190.440221 95.811122 
L 190.56196 95.811122 
L 190.655444 93.574393 
L 190.744331 93.574393 
L 190.843612 91.337664 
L 190.927486 91.337664 
L 191.016323 89.100935 
L 197.776349 89.100935 
L 197.776349 87.982571 
L 197.903622 87.982571 
L 198.001369 85.745842 
L 198.066523 85.745842 
L 198.132319 83.509113 
L 198.213769 83.509113 
L 198.300109 81.272384 
L 198.377271 81.272384 
L 198.461054 77.917291 
L 198.56175 77.917291 
L 198.659279 74.562197 
L 198.685938 74.562197 
L 198.745984 72.325468 
L 198.810087 72.325468 
L 198.877352 70.088739 
L 198.934193 70.088739 
L 199.038899 66.733646 
L 199.063295 66.733646 
L 199.15301 64.496917 
L 199.228109 64.496917 
L 199.331873 61.141823 
L 199.369901 61.141823 
L 199.4309 58.905094 
L 199.506437 58.905094 
L 199.575932 55.550001 
L 199.64271 55.550001 
L 199.715704 52.194907 
L 199.772265 52.194907 
L 199.813356 49.958178 
L 199.892041 49.958178 
L 199.971962 46.603085 
L 200.038016 46.603085 
L 200.09511 44.366356 
L 227.162769 44.366356 
L 227.162769 43.247992 
L 229.463625 43.247992 
L 229.568976 35.41944 
L 229.575246 35.41944 
L 229.684589 23.117431 
L 229.69025 23.117431 
L 229.799008 11.933786 
L 229.81194 11.933786 
L 229.821772 9.697057 
L 333.168 9.697057 
L 333.168 9.697057 
" style="fill:none;stroke:#f5deb3;stroke-linecap:square;stroke-width:4;"/>
   </g>
   <g id="line2d_2">
    <defs>
     <path d="M -0 7.778175 
L 7.778175 0 
L 0 -7.778175 
L -7.778175 -0 
z
" id="m68f7c7ef28" style="stroke:#f5deb3;stroke-linejoin:miter;stroke-width:1.5;"/>
    </defs>
    <g>
     <use style="fill:#f5deb3;stroke:#f5deb3;stroke-linejoin:miter;stroke-width:1.5;" x="94.26507" xlink:href="#m68f7c7ef28" y="259.092337"/>
     <use style="fill:#f5deb3;stroke:#f5deb3;stroke-linejoin:miter;stroke-width:1.5;" x="167.655324" xlink:href="#m68f7c7ef28" y="205.410841"/>
     <use style="fill:#f5deb3;stroke:#f5deb3;stroke-linejoin:miter;stroke-width:1.5;" x="189.842701" xlink:href="#m68f7c7ef28" y="110.349861"/>
     <use style="fill:#f5deb3;stroke:#f5deb3;stroke-linejoin:miter;stroke-width:1.5;" x="229.60158" xlink:href="#m68f7c7ef28" y="33.182711"/>
     <use style="fill:#f5deb3;stroke:#f5deb3;stroke-linejoin:miter;stroke-width:1.5;" x="229.821772" xlink:href="#m68f7c7ef28" y="9.697057"/>
     <use style="fill:#f5deb3;stroke:#f5deb3;stroke-linejoin:miter;stroke-width:1.5;" x="333.168" xlink:href="#m68f7c7ef28" y="9.697057"/>
    </g>
   </g>
   <g id="line2d_3">
    <path style="fill:none;stroke:#f5deb3;stroke-linecap:square;stroke-width:4;"/>
    <g/>
   </g>
   <g id="line2d_4">
    <path d="M 333.168 9.697057 
L 363.64328 15.400716 
" style="fill:none;stroke:#f5deb3;stroke-linecap:square;stroke-width:4;"/>
    <g>
     <use style="fill:#f5deb3;stroke:#f5deb3;stroke-linejoin:miter;stroke-width:1.5;" x="333.168" xlink:href="#m68f7c7ef28" y="9.697057"/>
     <use style="fill:#f5deb3;stroke:#f5deb3;stroke-linejoin:miter;stroke-width:1.5;" x="363.64328" xlink:href="#m68f7c7ef28" y="15.400716"/>
    </g>
   </g>
   <g id="matplotlib.axis_1">
    <g id="xtick_1">
     <g id="line2d_5">
      <path clip-path="url(#peed23ce457)" d="M 56.12 294.88 
L 56.12 6.845228 
" style="fill:none;stroke:#b0b0b0;stroke-linecap:square;stroke-width:0.8;"/>
     </g>
     <g id="line2d_6">
      <defs>
       <path d="M 0 0 
L 0 3.5 
" id="mab3765b1f0" style="stroke:#000000;stroke-width:0.8;"/>
      </defs>
      <g>
       <use style="stroke:#000000;stroke-width:0.8;" x="56.12" xlink:href="#mab3765b1f0" y="294.88"/>
      </g>
     </g>
     <g id="text_1">
      <!-- 0 -->
      <defs>
       <path d="M 31.78125 66.40625 
Q 24.171875 66.40625 20.328125 58.90625 
Q 16.5 51.421875 16.5 36.375 
Q 16.5 21.390625 20.328125 13.890625 
Q 24.171875 6.390625 31.78125 6.390625 
Q 39.453125 6.390625 43.28125 13.890625 
Q 47.125 21.390625 47.125 36.375 
Q 47.125 51.421875 43.28125 58.90625 
Q 39.453125 66.40625 31.78125 66.40625 
z
M 31.78125 74.21875 
Q 44.046875 74.21875 50.515625 64.515625 
Q 56.984375 54.828125 56.984375 36.375 
Q 56.984375 17.96875 50.515625 8.265625 
Q 44.046875 -1.421875 31.78125 -1.421875 
Q 19.53125 -1.421875 13.0625 8.265625 
Q 6.59375 17.96875 6.59375 36.375 
Q 6.59375 54.828125 13.0625 64.515625 
Q 19.53125 74.21875 31.78125 74.21875 
z
" id="DejaVuSans-30"/>
      </defs>
      <g transform="translate(49.7575 317.076875)scale(0.2 -0.2)">
       <use xlink:href="#DejaVuSans-30"/>
      </g>
     </g>
    </g>
    <g id="xtick_2">
     <g id="line2d_7">
      <path clip-path="url(#peed23ce457)" d="M 135.276571 294.88 
L 135.276571 6.845228 
" style="fill:none;stroke:#b0b0b0;stroke-linecap:square;stroke-width:0.8;"/>
     </g>
     <g id="line2d_8">
      <g>
       <use style="stroke:#000000;stroke-width:0.8;" x="135.276571" xlink:href="#mab3765b1f0" y="294.88"/>
      </g>
     </g>
     <g id="text_2">
      <!-- 2 -->
      <defs>
       <path d="M 19.1875 8.296875 
L 53.609375 8.296875 
L 53.609375 0 
L 7.328125 0 
L 7.328125 8.296875 
Q 12.9375 14.109375 22.625 23.890625 
Q 32.328125 33.6875 34.8125 36.53125 
Q 39.546875 41.84375 41.421875 45.53125 
Q 43.3125 49.21875 43.3125 52.78125 
Q 43.3125 58.59375 39.234375 62.25 
Q 35.15625 65.921875 28.609375 65.921875 
Q 23.96875 65.921875 18.8125 64.3125 
Q 13.671875 62.703125 7.8125 59.421875 
L 7.8125 69.390625 
Q 13.765625 71.78125 18.9375 73 
Q 24.125 74.21875 28.421875 74.21875 
Q 39.75 74.21875 46.484375 68.546875 
Q 53.21875 62.890625 53.21875 53.421875 
Q 53.21875 48.921875 51.53125 44.890625 
Q 49.859375 40.875 45.40625 35.40625 
Q 44.1875 33.984375 37.640625 27.21875 
Q 31.109375 20.453125 19.1875 8.296875 
z
" id="DejaVuSans-32"/>
      </defs>
      <g transform="translate(128.914071 317.076875)scale(0.2 -0.2)">
       <use xlink:href="#DejaVuSans-32"/>
      </g>
     </g>
    </g>
    <g id="xtick_3">
     <g id="line2d_9">
      <path clip-path="url(#peed23ce457)" d="M 214.433143 294.88 
L 214.433143 6.845228 
" style="fill:none;stroke:#b0b0b0;stroke-linecap:square;stroke-width:0.8;"/>
     </g>
     <g id="line2d_10">
      <g>
       <use style="stroke:#000000;stroke-width:0.8;" x="214.433143" xlink:href="#mab3765b1f0" y="294.88"/>
      </g>
     </g>
     <g id="text_3">
      <!-- 4 -->
      <defs>
       <path d="M 37.796875 64.3125 
L 12.890625 25.390625 
L 37.796875 25.390625 
z
M 35.203125 72.90625 
L 47.609375 72.90625 
L 47.609375 25.390625 
L 58.015625 25.390625 
L 58.015625 17.1875 
L 47.609375 17.1875 
L 47.609375 0 
L 37.796875 0 
L 37.796875 17.1875 
L 4.890625 17.1875 
L 4.890625 26.703125 
z
" id="DejaVuSans-34"/>
      </defs>
      <g transform="translate(208.070643 317.076875)scale(0.2 -0.2)">
       <use xlink:href="#DejaVuSans-34"/>
      </g>
     </g>
    </g>
    <g id="xtick_4">
     <g id="line2d_11">
      <path clip-path="url(#peed23ce457)" d="M 293.589714 294.88 
L 293.589714 6.845228 
" style="fill:none;stroke:#b0b0b0;stroke-linecap:square;stroke-width:0.8;"/>
     </g>
     <g id="line2d_12">
      <g>
       <use style="stroke:#000000;stroke-width:0.8;" x="293.589714" xlink:href="#mab3765b1f0" y="294.88"/>
      </g>
     </g>
     <g id="text_4">
      <!-- 6 -->
      <defs>
       <path d="M 33.015625 40.375 
Q 26.375 40.375 22.484375 35.828125 
Q 18.609375 31.296875 18.609375 23.390625 
Q 18.609375 15.53125 22.484375 10.953125 
Q 26.375 6.390625 33.015625 6.390625 
Q 39.65625 6.390625 43.53125 10.953125 
Q 47.40625 15.53125 47.40625 23.390625 
Q 47.40625 31.296875 43.53125 35.828125 
Q 39.65625 40.375 33.015625 40.375 
z
M 52.59375 71.296875 
L 52.59375 62.3125 
Q 48.875 64.0625 45.09375 64.984375 
Q 41.3125 65.921875 37.59375 65.921875 
Q 27.828125 65.921875 22.671875 59.328125 
Q 17.53125 52.734375 16.796875 39.40625 
Q 19.671875 43.65625 24.015625 45.921875 
Q 28.375 48.1875 33.59375 48.1875 
Q 44.578125 48.1875 50.953125 41.515625 
Q 57.328125 34.859375 57.328125 23.390625 
Q 57.328125 12.15625 50.6875 5.359375 
Q 44.046875 -1.421875 33.015625 -1.421875 
Q 20.359375 -1.421875 13.671875 8.265625 
Q 6.984375 17.96875 6.984375 36.375 
Q 6.984375 53.65625 15.1875 63.9375 
Q 23.390625 74.21875 37.203125 74.21875 
Q 40.921875 74.21875 44.703125 73.484375 
Q 48.484375 72.75 52.59375 71.296875 
z
" id="DejaVuSans-36"/>
      </defs>
      <g transform="translate(287.227214 317.076875)scale(0.2 -0.2)">
       <use xlink:href="#DejaVuSans-36"/>
      </g>
     </g>
    </g>
    <g id="xtick_5">
     <g id="line2d_13">
      <path clip-path="url(#peed23ce457)" d="M 56.12 294.88 
L 56.12 6.845228 
" style="fill:none;stroke:#b0b0b0;stroke-linecap:square;stroke-width:0.8;"/>
     </g>
     <g id="line2d_14">
      <defs>
       <path d="M 0 0 
L 0 2 
" id="mf6ca1caa91" style="stroke:#000000;stroke-width:0.6;"/>
      </defs>
      <g>
       <use style="stroke:#000000;stroke-width:0.6;" x="56.12" xlink:href="#mf6ca1caa91" y="294.88"/>
      </g>
     </g>
    </g>
    <g id="xtick_6">
     <g id="line2d_15">
      <path clip-path="url(#peed23ce457)" d="M 95.698286 294.88 
L 95.698286 6.845228 
" style="fill:none;stroke:#b0b0b0;stroke-linecap:square;stroke-width:0.8;"/>
     </g>
     <g id="line2d_16">
      <g>
       <use style="stroke:#000000;stroke-width:0.6;" x="95.698286" xlink:href="#mf6ca1caa91" y="294.88"/>
      </g>
     </g>
    </g>
    <g id="xtick_7">
     <g id="line2d_17">
      <path clip-path="url(#peed23ce457)" d="M 135.276571 294.88 
L 135.276571 6.845228 
" style="fill:none;stroke:#b0b0b0;stroke-linecap:square;stroke-width:0.8;"/>
     </g>
     <g id="line2d_18">
      <g>
       <use style="stroke:#000000;stroke-width:0.6;" x="135.276571" xlink:href="#mf6ca1caa91" y="294.88"/>
      </g>
     </g>
    </g>
    <g id="xtick_8">
     <g id="line2d_19">
      <path clip-path="url(#peed23ce457)" d="M 174.854857 294.88 
L 174.854857 6.845228 
" style="fill:none;stroke:#b0b0b0;stroke-linecap:square;stroke-width:0.8;"/>
     </g>
     <g id="line2d_20">
      <g>
       <use style="stroke:#000000;stroke-width:0.6;" x="174.854857" xlink:href="#mf6ca1caa91" y="294.88"/>
      </g>
     </g>
    </g>
    <g id="xtick_9">
     <g id="line2d_21">
      <path clip-path="url(#peed23ce457)" d="M 214.433143 294.88 
L 214.433143 6.845228 
" style="fill:none;stroke:#b0b0b0;stroke-linecap:square;stroke-width:0.8;"/>
     </g>
     <g id="line2d_22">
      <g>
       <use style="stroke:#000000;stroke-width:0.6;" x="214.433143" xlink:href="#mf6ca1caa91" y="294.88"/>
      </g>
     </g>
    </g>
    <g id="xtick_10">
     <g id="line2d_23">
      <path clip-path="url(#peed23ce457)" d="M 254.011429 294.88 
L 254.011429 6.845228 
" style="fill:none;stroke:#b0b0b0;stroke-linecap:square;stroke-width:0.8;"/>
     </g>
     <g id="line2d_24">
      <g>
       <use style="stroke:#000000;stroke-width:0.6;" x="254.011429" xlink:href="#mf6ca1caa91" y="294.88"/>
      </g>
     </g>
    </g>
    <g id="xtick_11">
     <g id="line2d_25">
      <path clip-path="url(#peed23ce457)" d="M 293.589714 294.88 
L 293.589714 6.845228 
" style="fill:none;stroke:#b0b0b0;stroke-linecap:square;stroke-width:0.8;"/>
     </g>
     <g id="line2d_26">
      <g>
       <use style="stroke:#000000;stroke-width:0.6;" x="293.589714" xlink:href="#mf6ca1caa91" y="294.88"/>
      </g>
     </g>
    </g>
    <g id="xtick_12">
     <g id="line2d_27">
      <path clip-path="url(#peed23ce457)" d="M 333.168 294.88 
L 333.168 6.845228 
" style="fill:none;stroke:#b0b0b0;stroke-linecap:square;stroke-width:0.8;"/>
     </g>
     <g id="line2d_28">
      <g>
       <use style="stroke:#000000;stroke-width:0.6;" x="333.168" xlink:href="#mf6ca1caa91" y="294.88"/>
      </g>
     </g>
    </g>
    <g id="text_5">
     <!-- log10(# f-evals / dimension) -->
     <defs>
      <path d="M 9.421875 75.984375 
L 18.40625 75.984375 
L 18.40625 0 
L 9.421875 0 
z
" id="DejaVuSans-6c"/>
      <path d="M 30.609375 48.390625 
Q 23.390625 48.390625 19.1875 42.75 
Q 14.984375 37.109375 14.984375 27.296875 
Q 14.984375 17.484375 19.15625 11.84375 
Q 23.34375 6.203125 30.609375 6.203125 
Q 37.796875 6.203125 41.984375 11.859375 
Q 46.1875 17.53125 46.1875 27.296875 
Q 46.1875 37.015625 41.984375 42.703125 
Q 37.796875 48.390625 30.609375 48.390625 
z
M 30.609375 56 
Q 42.328125 56 49.015625 48.375 
Q 55.71875 40.765625 55.71875 27.296875 
Q 55.71875 13.875 49.015625 6.21875 
Q 42.328125 -1.421875 30.609375 -1.421875 
Q 18.84375 -1.421875 12.171875 6.21875 
Q 5.515625 13.875 5.515625 27.296875 
Q 5.515625 40.765625 12.171875 48.375 
Q 18.84375 56 30.609375 56 
z
" id="DejaVuSans-6f"/>
      <path d="M 45.40625 27.984375 
Q 45.40625 37.75 41.375 43.109375 
Q 37.359375 48.484375 30.078125 48.484375 
Q 22.859375 48.484375 18.828125 43.109375 
Q 14.796875 37.75 14.796875 27.984375 
Q 14.796875 18.265625 18.828125 12.890625 
Q 22.859375 7.515625 30.078125 7.515625 
Q 37.359375 7.515625 41.375 12.890625 
Q 45.40625 18.265625 45.40625 27.984375 
z
M 54.390625 6.78125 
Q 54.390625 -7.171875 48.1875 -13.984375 
Q 42 -20.796875 29.203125 -20.796875 
Q 24.46875 -20.796875 20.265625 -20.09375 
Q 16.0625 -19.390625 12.109375 -17.921875 
L 12.109375 -9.1875 
Q 16.0625 -11.328125 19.921875 -12.34375 
Q 23.78125 -13.375 27.78125 -13.375 
Q 36.625 -13.375 41.015625 -8.765625 
Q 45.40625 -4.15625 45.40625 5.171875 
L 45.40625 9.625 
Q 42.625 4.78125 38.28125 2.390625 
Q 33.9375 0 27.875 0 
Q 17.828125 0 11.671875 7.65625 
Q 5.515625 15.328125 5.515625 27.984375 
Q 5.515625 40.671875 11.671875 48.328125 
Q 17.828125 56 27.875 56 
Q 33.9375 56 38.28125 53.609375 
Q 42.625 51.21875 45.40625 46.390625 
L 45.40625 54.6875 
L 54.390625 54.6875 
z
" id="DejaVuSans-67"/>
      <path d="M 12.40625 8.296875 
L 28.515625 8.296875 
L 28.515625 63.921875 
L 10.984375 60.40625 
L 10.984375 69.390625 
L 28.421875 72.90625 
L 38.28125 72.90625 
L 38.28125 8.296875 
L 54.390625 8.296875 
L 54.390625 0 
L 12.40625 0 
z
" id="DejaVuSans-31"/>
      <path d="M 31 75.875 
Q 24.46875 64.65625 21.28125 53.65625 
Q 18.109375 42.671875 18.109375 31.390625 
Q 18.109375 20.125 21.3125 9.0625 
Q 24.515625 -2 31 -13.1875 
L 23.1875 -13.1875 
Q 15.875 -1.703125 12.234375 9.375 
Q 8.59375 20.453125 8.59375 31.390625 
Q 8.59375 42.28125 12.203125 53.3125 
Q 15.828125 64.359375 23.1875 75.875 
z
" id="DejaVuSans-28"/>
      <path d="M 51.125 44 
L 36.921875 44 
L 32.8125 27.6875 
L 47.125 27.6875 
z
M 43.796875 71.78125 
L 38.71875 51.515625 
L 52.984375 51.515625 
L 58.109375 71.78125 
L 65.921875 71.78125 
L 60.890625 51.515625 
L 76.125 51.515625 
L 76.125 44 
L 58.984375 44 
L 54.984375 27.6875 
L 70.515625 27.6875 
L 70.515625 20.21875 
L 53.078125 20.21875 
L 48 0 
L 40.1875 0 
L 45.21875 20.21875 
L 30.90625 20.21875 
L 25.875 0 
L 18.015625 0 
L 23.09375 20.21875 
L 7.71875 20.21875 
L 7.71875 27.6875 
L 24.90625 27.6875 
L 29 44 
L 13.28125 44 
L 13.28125 51.515625 
L 30.90625 51.515625 
L 35.890625 71.78125 
z
" id="DejaVuSans-23"/>
      <path id="DejaVuSans-20"/>
      <path d="M 37.109375 75.984375 
L 37.109375 68.5 
L 28.515625 68.5 
Q 23.6875 68.5 21.796875 66.546875 
Q 19.921875 64.59375 19.921875 59.515625 
L 19.921875 54.6875 
L 34.71875 54.6875 
L 34.71875 47.703125 
L 19.921875 47.703125 
L 19.921875 0 
L 10.890625 0 
L 10.890625 47.703125 
L 2.296875 47.703125 
L 2.296875 54.6875 
L 10.890625 54.6875 
L 10.890625 58.5 
Q 10.890625 67.625 15.140625 71.796875 
Q 19.390625 75.984375 28.609375 75.984375 
z
" id="DejaVuSans-66"/>
      <path d="M 4.890625 31.390625 
L 31.203125 31.390625 
L 31.203125 23.390625 
L 4.890625 23.390625 
z
" id="DejaVuSans-2d"/>
      <path d="M 56.203125 29.59375 
L 56.203125 25.203125 
L 14.890625 25.203125 
Q 15.484375 15.921875 20.484375 11.0625 
Q 25.484375 6.203125 34.421875 6.203125 
Q 39.59375 6.203125 44.453125 7.46875 
Q 49.3125 8.734375 54.109375 11.28125 
L 54.109375 2.78125 
Q 49.265625 0.734375 44.1875 -0.34375 
Q 39.109375 -1.421875 33.890625 -1.421875 
Q 20.796875 -1.421875 13.15625 6.1875 
Q 5.515625 13.8125 5.515625 26.8125 
Q 5.515625 40.234375 12.765625 48.109375 
Q 20.015625 56 32.328125 56 
Q 43.359375 56 49.78125 48.890625 
Q 56.203125 41.796875 56.203125 29.59375 
z
M 47.21875 32.234375 
Q 47.125 39.59375 43.09375 43.984375 
Q 39.0625 48.390625 32.421875 48.390625 
Q 24.90625 48.390625 20.390625 44.140625 
Q 15.875 39.890625 15.1875 32.171875 
z
" id="DejaVuSans-65"/>
      <path d="M 2.984375 54.6875 
L 12.5 54.6875 
L 29.59375 8.796875 
L 46.6875 54.6875 
L 56.203125 54.6875 
L 35.6875 0 
L 23.484375 0 
z
" id="DejaVuSans-76"/>
      <path d="M 34.28125 27.484375 
Q 23.390625 27.484375 19.1875 25 
Q 14.984375 22.515625 14.984375 16.5 
Q 14.984375 11.71875 18.140625 8.90625 
Q 21.296875 6.109375 26.703125 6.109375 
Q 34.1875 6.109375 38.703125 11.40625 
Q 43.21875 16.703125 43.21875 25.484375 
L 43.21875 27.484375 
z
M 52.203125 31.203125 
L 52.203125 0 
L 43.21875 0 
L 43.21875 8.296875 
Q 40.140625 3.328125 35.546875 0.953125 
Q 30.953125 -1.421875 24.3125 -1.421875 
Q 15.921875 -1.421875 10.953125 3.296875 
Q 6 8.015625 6 15.921875 
Q 6 25.140625 12.171875 29.828125 
Q 18.359375 34.515625 30.609375 34.515625 
L 43.21875 34.515625 
L 43.21875 35.40625 
Q 43.21875 41.609375 39.140625 45 
Q 35.0625 48.390625 27.6875 48.390625 
Q 23 48.390625 18.546875 47.265625 
Q 14.109375 46.140625 10.015625 43.890625 
L 10.015625 52.203125 
Q 14.9375 54.109375 19.578125 55.046875 
Q 24.21875 56 28.609375 56 
Q 40.484375 56 46.34375 49.84375 
Q 52.203125 43.703125 52.203125 31.203125 
z
" id="DejaVuSans-61"/>
      <path d="M 44.28125 53.078125 
L 44.28125 44.578125 
Q 40.484375 46.53125 36.375 47.5 
Q 32.28125 48.484375 27.875 48.484375 
Q 21.1875 48.484375 17.84375 46.4375 
Q 14.5 44.390625 14.5 40.28125 
Q 14.5 37.15625 16.890625 35.375 
Q 19.28125 33.59375 26.515625 31.984375 
L 29.59375 31.296875 
Q 39.15625 29.25 43.1875 25.515625 
Q 47.21875 21.78125 47.21875 15.09375 
Q 47.21875 7.46875 41.1875 3.015625 
Q 35.15625 -1.421875 24.609375 -1.421875 
Q 20.21875 -1.421875 15.453125 -0.5625 
Q 10.6875 0.296875 5.421875 2 
L 5.421875 11.28125 
Q 10.40625 8.6875 15.234375 7.390625 
Q 20.0625 6.109375 24.8125 6.109375 
Q 31.15625 6.109375 34.5625 8.28125 
Q 37.984375 10.453125 37.984375 14.40625 
Q 37.984375 18.0625 35.515625 20.015625 
Q 33.0625 21.96875 24.703125 23.78125 
L 21.578125 24.515625 
Q 13.234375 26.265625 9.515625 29.90625 
Q 5.8125 33.546875 5.8125 39.890625 
Q 5.8125 47.609375 11.28125 51.796875 
Q 16.75 56 26.8125 56 
Q 31.78125 56 36.171875 55.265625 
Q 40.578125 54.546875 44.28125 53.078125 
z
" id="DejaVuSans-73"/>
      <path d="M 25.390625 72.90625 
L 33.6875 72.90625 
L 8.296875 -9.28125 
L 0 -9.28125 
z
" id="DejaVuSans-2f"/>
      <path d="M 45.40625 46.390625 
L 45.40625 75.984375 
L 54.390625 75.984375 
L 54.390625 0 
L 45.40625 0 
L 45.40625 8.203125 
Q 42.578125 3.328125 38.25 0.953125 
Q 33.9375 -1.421875 27.875 -1.421875 
Q 17.96875 -1.421875 11.734375 6.484375 
Q 5.515625 14.40625 5.515625 27.296875 
Q 5.515625 40.1875 11.734375 48.09375 
Q 17.96875 56 27.875 56 
Q 33.9375 56 38.25 53.625 
Q 42.578125 51.265625 45.40625 46.390625 
z
M 14.796875 27.296875 
Q 14.796875 17.390625 18.875 11.75 
Q 22.953125 6.109375 30.078125 6.109375 
Q 37.203125 6.109375 41.296875 11.75 
Q 45.40625 17.390625 45.40625 27.296875 
Q 45.40625 37.203125 41.296875 42.84375 
Q 37.203125 48.484375 30.078125 48.484375 
Q 22.953125 48.484375 18.875 42.84375 
Q 14.796875 37.203125 14.796875 27.296875 
z
" id="DejaVuSans-64"/>
      <path d="M 9.421875 54.6875 
L 18.40625 54.6875 
L 18.40625 0 
L 9.421875 0 
z
M 9.421875 75.984375 
L 18.40625 75.984375 
L 18.40625 64.59375 
L 9.421875 64.59375 
z
" id="DejaVuSans-69"/>
      <path d="M 52 44.1875 
Q 55.375 50.25 60.0625 53.125 
Q 64.75 56 71.09375 56 
Q 79.640625 56 84.28125 50.015625 
Q 88.921875 44.046875 88.921875 33.015625 
L 88.921875 0 
L 79.890625 0 
L 79.890625 32.71875 
Q 79.890625 40.578125 77.09375 44.375 
Q 74.3125 48.1875 68.609375 48.1875 
Q 61.625 48.1875 57.5625 43.546875 
Q 53.515625 38.921875 53.515625 30.90625 
L 53.515625 0 
L 44.484375 0 
L 44.484375 32.71875 
Q 44.484375 40.625 41.703125 44.40625 
Q 38.921875 48.1875 33.109375 48.1875 
Q 26.21875 48.1875 22.15625 43.53125 
Q 18.109375 38.875 18.109375 30.90625 
L 18.109375 0 
L 9.078125 0 
L 9.078125 54.6875 
L 18.109375 54.6875 
L 18.109375 46.1875 
Q 21.1875 51.21875 25.484375 53.609375 
Q 29.78125 56 35.6875 56 
Q 41.65625 56 45.828125 52.96875 
Q 50 49.953125 52 44.1875 
z
" id="DejaVuSans-6d"/>
      <path d="M 54.890625 33.015625 
L 54.890625 0 
L 45.90625 0 
L 45.90625 32.71875 
Q 45.90625 40.484375 42.875 44.328125 
Q 39.84375 48.1875 33.796875 48.1875 
Q 26.515625 48.1875 22.3125 43.546875 
Q 18.109375 38.921875 18.109375 30.90625 
L 18.109375 0 
L 9.078125 0 
L 9.078125 54.6875 
L 18.109375 54.6875 
L 18.109375 46.1875 
Q 21.34375 51.125 25.703125 53.5625 
Q 30.078125 56 35.796875 56 
Q 45.21875 56 50.046875 50.171875 
Q 54.890625 44.34375 54.890625 33.015625 
z
" id="DejaVuSans-6e"/>
      <path d="M 8.015625 75.875 
L 15.828125 75.875 
Q 23.140625 64.359375 26.78125 53.3125 
Q 30.421875 42.28125 30.421875 31.390625 
Q 30.421875 20.453125 26.78125 9.375 
Q 23.140625 -1.703125 15.828125 -13.1875 
L 8.015625 -13.1875 
Q 14.5 -2 17.703125 9.0625 
Q 20.90625 20.125 20.90625 31.390625 
Q 20.90625 42.671875 17.703125 53.65625 
Q 14.5 64.65625 8.015625 75.875 
z
" id="DejaVuSans-29"/>
     </defs>
     <g transform="translate(73.803219 338.153594)scale(0.17 -0.17)">
      <use xlink:href="#DejaVuSans-6c"/>
      <use x="27.783203" xlink:href="#DejaVuSans-6f"/>
      <use x="88.964844" xlink:href="#DejaVuSans-67"/>
      <use x="152.441406" xlink:href="#DejaVuSans-31"/>
      <use x="216.064453" xlink:href="#DejaVuSans-30"/>
      <use x="279.6875" xlink:href="#DejaVuSans-28"/>
      <use x="318.701172" xlink:href="#DejaVuSans-23"/>
      <use x="402.490234" xlink:href="#DejaVuSans-20"/>
      <use x="434.277344" xlink:href="#DejaVuSans-66"/>
      <use x="469.404297" xlink:href="#DejaVuSans-2d"/>
      <use x="505.488281" xlink:href="#DejaVuSans-65"/>
      <use x="567.011719" xlink:href="#DejaVuSans-76"/>
      <use x="626.191406" xlink:href="#DejaVuSans-61"/>
      <use x="687.470703" xlink:href="#DejaVuSans-6c"/>
      <use x="715.253906" xlink:href="#DejaVuSans-73"/>
      <use x="767.353516" xlink:href="#DejaVuSans-20"/>
      <use x="799.140625" xlink:href="#DejaVuSans-2f"/>
      <use x="832.832031" xlink:href="#DejaVuSans-20"/>
      <use x="864.619141" xlink:href="#DejaVuSans-64"/>
      <use x="928.095703" xlink:href="#DejaVuSans-69"/>
      <use x="955.878906" xlink:href="#DejaVuSans-6d"/>
      <use x="1053.291016" xlink:href="#DejaVuSans-65"/>
      <use x="1114.814453" xlink:href="#DejaVuSans-6e"/>
      <use x="1178.193359" xlink:href="#DejaVuSans-73"/>
      <use x="1230.292969" xlink:href="#DejaVuSans-69"/>
      <use x="1258.076172" xlink:href="#DejaVuSans-6f"/>
      <use x="1319.257812" xlink:href="#DejaVuSans-6e"/>
      <use x="1382.636719" xlink:href="#DejaVuSans-29"/>
     </g>
    </g>
   </g>
   <g id="matplotlib.axis_2">
    <g id="ytick_1">
     <g id="line2d_29">
      <path clip-path="url(#peed23ce457)" d="M 56.12 294.88 
L 333.168 294.88 
" style="fill:none;stroke:#b0b0b0;stroke-linecap:square;stroke-width:0.8;"/>
     </g>
     <g id="line2d_30">
      <defs>
       <path d="M 0 0 
L -3.5 0 
" id="m9bbd1efbf6" style="stroke:#000000;stroke-width:0.8;"/>
      </defs>
      <g>
       <use style="stroke:#000000;stroke-width:0.8;" x="56.12" xlink:href="#m9bbd1efbf6" y="294.88"/>
      </g>
     </g>
     <g id="text_6">
      <!-- 0.0 -->
      <defs>
       <path d="M 10.6875 12.40625 
L 21 12.40625 
L 21 0 
L 10.6875 0 
z
" id="DejaVuSans-2e"/>
      </defs>
      <g transform="translate(23.675 300.95875)scale(0.16 -0.16)">
       <use xlink:href="#DejaVuSans-30"/>
       <use x="63.623047" xlink:href="#DejaVuSans-2e"/>
       <use x="95.410156" xlink:href="#DejaVuSans-30"/>
      </g>
     </g>
    </g>
    <g id="ytick_2">
     <g id="line2d_31">
      <path clip-path="url(#peed23ce457)" d="M 56.12 237.843411 
L 333.168 237.843411 
" style="fill:none;stroke:#b0b0b0;stroke-linecap:square;stroke-width:0.8;"/>
     </g>
     <g id="line2d_32">
      <g>
       <use style="stroke:#000000;stroke-width:0.8;" x="56.12" xlink:href="#m9bbd1efbf6" y="237.843411"/>
      </g>
     </g>
     <g id="text_7">
      <!-- 0.2 -->
      <g transform="translate(23.675 243.922161)scale(0.16 -0.16)">
       <use xlink:href="#DejaVuSans-30"/>
       <use x="63.623047" xlink:href="#DejaVuSans-2e"/>
       <use x="95.410156" xlink:href="#DejaVuSans-32"/>
      </g>
     </g>
    </g>
    <g id="ytick_3">
     <g id="line2d_33">
      <path clip-path="url(#peed23ce457)" d="M 56.12 180.806823 
L 333.168 180.806823 
" style="fill:none;stroke:#b0b0b0;stroke-linecap:square;stroke-width:0.8;"/>
     </g>
     <g id="line2d_34">
      <g>
       <use style="stroke:#000000;stroke-width:0.8;" x="56.12" xlink:href="#m9bbd1efbf6" y="180.806823"/>
      </g>
     </g>
     <g id="text_8">
      <!-- 0.4 -->
      <g transform="translate(23.675 186.885573)scale(0.16 -0.16)">
       <use xlink:href="#DejaVuSans-30"/>
       <use x="63.623047" xlink:href="#DejaVuSans-2e"/>
       <use x="95.410156" xlink:href="#DejaVuSans-34"/>
      </g>
     </g>
    </g>
    <g id="ytick_4">
     <g id="line2d_35">
      <path clip-path="url(#peed23ce457)" d="M 56.12 123.770234 
L 333.168 123.770234 
" style="fill:none;stroke:#b0b0b0;stroke-linecap:square;stroke-width:0.8;"/>
     </g>
     <g id="line2d_36">
      <g>
       <use style="stroke:#000000;stroke-width:0.8;" x="56.12" xlink:href="#m9bbd1efbf6" y="123.770234"/>
      </g>
     </g>
     <g id="text_9">
      <!-- 0.6 -->
      <g transform="translate(23.675 129.848984)scale(0.16 -0.16)">
       <use xlink:href="#DejaVuSans-30"/>
       <use x="63.623047" xlink:href="#DejaVuSans-2e"/>
       <use x="95.410156" xlink:href="#DejaVuSans-36"/>
      </g>
     </g>
    </g>
    <g id="ytick_5">
     <g id="line2d_37">
      <path clip-path="url(#peed23ce457)" d="M 56.12 66.733646 
L 333.168 66.733646 
" style="fill:none;stroke:#b0b0b0;stroke-linecap:square;stroke-width:0.8;"/>
     </g>
     <g id="line2d_38">
      <g>
       <use style="stroke:#000000;stroke-width:0.8;" x="56.12" xlink:href="#m9bbd1efbf6" y="66.733646"/>
      </g>
     </g>
     <g id="text_10">
      <!-- 0.8 -->
      <defs>
       <path d="M 31.78125 34.625 
Q 24.75 34.625 20.71875 30.859375 
Q 16.703125 27.09375 16.703125 20.515625 
Q 16.703125 13.921875 20.71875 10.15625 
Q 24.75 6.390625 31.78125 6.390625 
Q 38.8125 6.390625 42.859375 10.171875 
Q 46.921875 13.96875 46.921875 20.515625 
Q 46.921875 27.09375 42.890625 30.859375 
Q 38.875 34.625 31.78125 34.625 
z
M 21.921875 38.8125 
Q 15.578125 40.375 12.03125 44.71875 
Q 8.5 49.078125 8.5 55.328125 
Q 8.5 64.0625 14.71875 69.140625 
Q 20.953125 74.21875 31.78125 74.21875 
Q 42.671875 74.21875 48.875 69.140625 
Q 55.078125 64.0625 55.078125 55.328125 
Q 55.078125 49.078125 51.53125 44.71875 
Q 48 40.375 41.703125 38.8125 
Q 48.828125 37.15625 52.796875 32.3125 
Q 56.78125 27.484375 56.78125 20.515625 
Q 56.78125 9.90625 50.3125 4.234375 
Q 43.84375 -1.421875 31.78125 -1.421875 
Q 19.734375 -1.421875 13.25 4.234375 
Q 6.78125 9.90625 6.78125 20.515625 
Q 6.78125 27.484375 10.78125 32.3125 
Q 14.796875 37.15625 21.921875 38.8125 
z
M 18.3125 54.390625 
Q 18.3125 48.734375 21.84375 45.5625 
Q 25.390625 42.390625 31.78125 42.390625 
Q 38.140625 42.390625 41.71875 45.5625 
Q 45.3125 48.734375 45.3125 54.390625 
Q 45.3125 60.0625 41.71875 63.234375 
Q 38.140625 66.40625 31.78125 66.40625 
Q 25.390625 66.40625 21.84375 63.234375 
Q 18.3125 60.0625 18.3125 54.390625 
z
" id="DejaVuSans-38"/>
      </defs>
      <g transform="translate(23.675 72.812396)scale(0.16 -0.16)">
       <use xlink:href="#DejaVuSans-30"/>
       <use x="63.623047" xlink:href="#DejaVuSans-2e"/>
       <use x="95.410156" xlink:href="#DejaVuSans-38"/>
      </g>
     </g>
    </g>
    <g id="ytick_6">
     <g id="line2d_39">
      <path clip-path="url(#peed23ce457)" d="M 56.12 9.697057 
L 333.168 9.697057 
" style="fill:none;stroke:#b0b0b0;stroke-linecap:square;stroke-width:0.8;"/>
     </g>
     <g id="line2d_40">
      <g>
       <use style="stroke:#000000;stroke-width:0.8;" x="56.12" xlink:href="#m9bbd1efbf6" y="9.697057"/>
      </g>
     </g>
     <g id="text_11">
      <!-- 1.0 -->
      <g transform="translate(23.675 15.775807)scale(0.16 -0.16)">
       <use xlink:href="#DejaVuSans-31"/>
       <use x="63.623047" xlink:href="#DejaVuSans-2e"/>
       <use x="95.410156" xlink:href="#DejaVuSans-30"/>
      </g>
     </g>
    </g>
    <g id="text_12">
     <!-- Fraction of function,target pairs -->
     <defs>
      <path d="M 9.8125 72.90625 
L 51.703125 72.90625 
L 51.703125 64.59375 
L 19.671875 64.59375 
L 19.671875 43.109375 
L 48.578125 43.109375 
L 48.578125 34.8125 
L 19.671875 34.8125 
L 19.671875 0 
L 9.8125 0 
z
" id="DejaVuSans-46"/>
      <path d="M 41.109375 46.296875 
Q 39.59375 47.171875 37.8125 47.578125 
Q 36.03125 48 33.890625 48 
Q 26.265625 48 22.1875 43.046875 
Q 18.109375 38.09375 18.109375 28.8125 
L 18.109375 0 
L 9.078125 0 
L 9.078125 54.6875 
L 18.109375 54.6875 
L 18.109375 46.1875 
Q 20.953125 51.171875 25.484375 53.578125 
Q 30.03125 56 36.53125 56 
Q 37.453125 56 38.578125 55.875 
Q 39.703125 55.765625 41.0625 55.515625 
z
" id="DejaVuSans-72"/>
      <path d="M 48.78125 52.59375 
L 48.78125 44.1875 
Q 44.96875 46.296875 41.140625 47.34375 
Q 37.3125 48.390625 33.40625 48.390625 
Q 24.65625 48.390625 19.8125 42.84375 
Q 14.984375 37.3125 14.984375 27.296875 
Q 14.984375 17.28125 19.8125 11.734375 
Q 24.65625 6.203125 33.40625 6.203125 
Q 37.3125 6.203125 41.140625 7.25 
Q 44.96875 8.296875 48.78125 10.40625 
L 48.78125 2.09375 
Q 45.015625 0.34375 40.984375 -0.53125 
Q 36.96875 -1.421875 32.421875 -1.421875 
Q 20.0625 -1.421875 12.78125 6.34375 
Q 5.515625 14.109375 5.515625 27.296875 
Q 5.515625 40.671875 12.859375 48.328125 
Q 20.21875 56 33.015625 56 
Q 37.15625 56 41.109375 55.140625 
Q 45.0625 54.296875 48.78125 52.59375 
z
" id="DejaVuSans-63"/>
      <path d="M 18.3125 70.21875 
L 18.3125 54.6875 
L 36.8125 54.6875 
L 36.8125 47.703125 
L 18.3125 47.703125 
L 18.3125 18.015625 
Q 18.3125 11.328125 20.140625 9.421875 
Q 21.96875 7.515625 27.59375 7.515625 
L 36.8125 7.515625 
L 36.8125 0 
L 27.59375 0 
Q 17.1875 0 13.234375 3.875 
Q 9.28125 7.765625 9.28125 18.015625 
L 9.28125 47.703125 
L 2.6875 47.703125 
L 2.6875 54.6875 
L 9.28125 54.6875 
L 9.28125 70.21875 
z
" id="DejaVuSans-74"/>
      <path d="M 8.5 21.578125 
L 8.5 54.6875 
L 17.484375 54.6875 
L 17.484375 21.921875 
Q 17.484375 14.15625 20.5 10.265625 
Q 23.53125 6.390625 29.59375 6.390625 
Q 36.859375 6.390625 41.078125 11.03125 
Q 45.3125 15.671875 45.3125 23.6875 
L 45.3125 54.6875 
L 54.296875 54.6875 
L 54.296875 0 
L 45.3125 0 
L 45.3125 8.40625 
Q 42.046875 3.421875 37.71875 1 
Q 33.40625 -1.421875 27.6875 -1.421875 
Q 18.265625 -1.421875 13.375 4.4375 
Q 8.5 10.296875 8.5 21.578125 
z
M 31.109375 56 
z
" id="DejaVuSans-75"/>
      <path d="M 11.71875 12.40625 
L 22.015625 12.40625 
L 22.015625 4 
L 14.015625 -11.625 
L 7.71875 -11.625 
L 11.71875 4 
z
" id="DejaVuSans-2c"/>
      <path d="M 18.109375 8.203125 
L 18.109375 -20.796875 
L 9.078125 -20.796875 
L 9.078125 54.6875 
L 18.109375 54.6875 
L 18.109375 46.390625 
Q 20.953125 51.265625 25.265625 53.625 
Q 29.59375 56 35.59375 56 
Q 45.5625 56 51.78125 48.09375 
Q 58.015625 40.1875 58.015625 27.296875 
Q 58.015625 14.40625 51.78125 6.484375 
Q 45.5625 -1.421875 35.59375 -1.421875 
Q 29.59375 -1.421875 25.265625 0.953125 
Q 20.953125 3.328125 18.109375 8.203125 
z
M 48.6875 27.296875 
Q 48.6875 37.203125 44.609375 42.84375 
Q 40.53125 48.484375 33.40625 48.484375 
Q 26.265625 48.484375 22.1875 42.84375 
Q 18.109375 37.203125 18.109375 27.296875 
Q 18.109375 17.390625 22.1875 11.75 
Q 26.265625 6.109375 33.40625 6.109375 
Q 40.53125 6.109375 44.609375 11.75 
Q 48.6875 17.390625 48.6875 27.296875 
z
" id="DejaVuSans-70"/>
     </defs>
     <g transform="translate(16.139531 286.001989)rotate(-90)scale(0.17 -0.17)">
      <use xlink:href="#DejaVuSans-46"/>
      <use x="57.410156" xlink:href="#DejaVuSans-72"/>
      <use x="98.523438" xlink:href="#DejaVuSans-61"/>
      <use x="159.802734" xlink:href="#DejaVuSans-63"/>
      <use x="214.783203" xlink:href="#DejaVuSans-74"/>
      <use x="253.992188" xlink:href="#DejaVuSans-69"/>
      <use x="281.775391" xlink:href="#DejaVuSans-6f"/>
      <use x="342.957031" xlink:href="#DejaVuSans-6e"/>
      <use x="406.335938" xlink:href="#DejaVuSans-20"/>
      <use x="438.123047" xlink:href="#DejaVuSans-6f"/>
      <use x="499.304688" xlink:href="#DejaVuSans-66"/>
      <use x="534.509766" xlink:href="#DejaVuSans-20"/>
      <use x="566.296875" xlink:href="#DejaVuSans-66"/>
      <use x="601.501953" xlink:href="#DejaVuSans-75"/>
      <use x="664.880859" xlink:href="#DejaVuSans-6e"/>
      <use x="728.259766" xlink:href="#DejaVuSans-63"/>
      <use x="783.240234" xlink:href="#DejaVuSans-74"/>
      <use x="822.449219" xlink:href="#DejaVuSans-69"/>
      <use x="850.232422" xlink:href="#DejaVuSans-6f"/>
      <use x="911.414062" xlink:href="#DejaVuSans-6e"/>
      <use x="974.792969" xlink:href="#DejaVuSans-2c"/>
      <use x="1006.580078" xlink:href="#DejaVuSans-74"/>
      <use x="1045.789062" xlink:href="#DejaVuSans-61"/>
      <use x="1107.068359" xlink:href="#DejaVuSans-72"/>
      <use x="1148.166016" xlink:href="#DejaVuSans-67"/>
      <use x="1211.642578" xlink:href="#DejaVuSans-65"/>
      <use x="1273.166016" xlink:href="#DejaVuSans-74"/>
      <use x="1312.375" xlink:href="#DejaVuSans-20"/>
      <use x="1344.162109" xlink:href="#DejaVuSans-70"/>
      <use x="1407.638672" xlink:href="#DejaVuSans-61"/>
      <use x="1468.917969" xlink:href="#DejaVuSans-69"/>
      <use x="1496.701172" xlink:href="#DejaVuSans-72"/>
      <use x="1537.814453" xlink:href="#DejaVuSans-73"/>
     </g>
    </g>
   </g>
   <g id="line2d_41">
    <defs>
     <path d="M 0 1.5 
C 0.397805 1.5 0.77937 1.341951 1.06066 1.06066 
C 1.341951 0.77937 1.5 0.397805 1.5 0 
C 1.5 -0.397805 1.341951 -0.77937 1.06066 -1.06066 
C 0.77937 -1.341951 0.397805 -1.5 0 -1.5 
C -0.397805 -1.5 -0.77937 -1.341951 -1.06066 -1.06066 
C -1.341951 -0.77937 -1.5 -0.397805 -1.5 0 
C -1.5 0.397805 -1.341951 0.77937 -1.06066 1.06066 
C -0.77937 1.341951 -0.397805 1.5 0 1.5 
z
" id="m5b95f22d7c" style="stroke:#f5deb3;"/>
    </defs>
    <g>
     <use style="fill:#f5deb3;stroke:#f5deb3;" x="229.821772" xlink:href="#m5b95f22d7c" y="9.697057"/>
     <use style="fill:#f5deb3;stroke:#f5deb3;" x="229.821772" xlink:href="#m5b95f22d7c" y="9.697057"/>
    </g>
   </g>
   <g id="line2d_42">
    <defs>
     <path d="M 0 1.5 
C 0.397805 1.5 0.77937 1.341951 1.06066 1.06066 
C 1.341951 0.77937 1.5 0.397805 1.5 0 
C 1.5 -0.397805 1.341951 -0.77937 1.06066 -1.06066 
C 0.77937 -1.341951 0.397805 -1.5 0 -1.5 
C -0.397805 -1.5 -0.77937 -1.341951 -1.06066 -1.06066 
C -1.341951 -0.77937 -1.5 -0.397805 -1.5 0 
C -1.5 0.397805 -1.341951 0.77937 -1.06066 1.06066 
C -0.77937 1.341951 -0.397805 1.5 0 1.5 
z
" id="m25081102ec" style="stroke:#000080;"/>
    </defs>
    <g>
     <use style="fill:#000080;stroke:#000080;" x="259.309657" xlink:href="#m25081102ec" y="181.925187"/>
     <use style="fill:#000080;stroke:#000080;" x="259.309657" xlink:href="#m25081102ec" y="181.925187"/>
    </g>
   </g>
   <g id="line2d_43">
    <path d="M 28.455965 294.88 
L 28.455965 271.729855 
L 40.370217 271.729855 
L 40.370217 269.940472 
L 47.339607 269.940472 
L 47.339607 269.157617 
L 52.284468 269.157617 
L 52.284468 268.262925 
L 56.12 268.262925 
L 56.12 268.151089 
L 59.253858 268.151089 
L 59.253858 267.032724 
L 61.903497 267.032724 
L 61.903497 266.809052 
L 64.198719 266.809052 
L 64.198719 266.473542 
L 66.223248 266.473542 
L 66.223248 265.91436 
L 68.034251 265.91436 
L 68.034251 265.243341 
L 69.672503 265.243341 
L 69.672503 265.131505 
L 73.817748 265.131505 
L 73.817748 265.019668 
L 75.003641 265.019668 
L 75.003641 264.684159 
L 76.11297 264.684159 
L 76.11297 264.460486 
L 77.155024 264.460486 
L 77.155024 264.236813 
L 80.787138 264.236813 
L 80.787138 264.01314 
L 81.586754 264.01314 
L 81.586754 263.901304 
L 83.08236 263.901304 
L 83.08236 263.565795 
L 85.106889 263.565795 
L 85.106889 263.453958 
L 86.917893 263.453958 
L 86.917893 263.342122 
L 89.069276 263.342122 
L 89.069276 263.230285 
L 89.567532 263.230285 
L 89.567532 262.894776 
L 91.427575 262.894776 
L 91.427575 262.671103 
L 93.887283 262.671103 
L 93.887283 262.559266 
L 94.996612 262.559266 
L 94.996612 261.888248 
L 96.372436 261.888248 
L 96.372436 261.664575 
L 97.646251 261.664575 
L 97.646251 261.440902 
L 98.249422 261.440902 
L 98.249422 261.329066 
L 98.543252 261.329066 
L 98.543252 260.88172 
L 98.832144 260.88172 
L 98.832144 260.658047 
L 99.11626 260.658047 
L 99.11626 260.210701 
L 99.941473 260.210701 
L 99.941473 260.098865 
L 100.207968 260.098865 
L 100.207968 259.875192 
L 102.667676 259.875192 
L 102.667676 259.427846 
L 103.777005 259.427846 
L 103.777005 259.316009 
L 104.201437 259.316009 
L 104.201437 258.868664 
L 105.60948 258.868664 
L 105.60948 258.756827 
L 106.548983 258.756827 
L 106.548983 258.644991 
L 110.602556 258.644991 
L 110.602556 258.533154 
L 111.170827 258.533154 
L 111.170827 258.421318 
L 118.645127 258.421318 
L 118.645127 258.309481 
L 119.003236 258.309481 
L 119.003236 258.085809 
L 119.354037 258.085809 
L 119.354037 257.862136 
L 119.697821 257.862136 
L 119.697821 257.750299 
L 120.689748 257.750299 
L 120.769881 257.526626 
L 120.849643 257.526626 
L 120.849643 257.191117 
L 121.320594 257.191117 
L 121.320594 257.079281 
L 122.225468 257.079281 
L 122.225468 256.967444 
L 122.444434 256.967444 
L 122.444434 256.855608 
L 123.769975 256.855608 
L 123.769975 256.743771 
L 124.102454 256.743771 
L 124.102454 256.408262 
L 125.310285 256.408262 
L 125.310285 256.296425 
L 126.148921 256.296425 
L 126.148921 255.960916 
L 127.443604 255.960916 
L 127.443604 255.84908 
L 127.977455 255.84908 
L 127.977455 255.737243 
L 128.238289 255.737243 
L 128.238289 255.625407 
L 128.698042 255.625407 
L 128.698042 255.51357 
L 128.898495 255.51357 
L 128.898495 255.289897 
L 130.239792 255.289897 
L 130.239792 255.178061 
L 131.093782 255.178061 
L 131.093782 254.954388 
L 131.949115 254.954388 
L 131.949115 254.842552 
L 132.644112 254.842552 
L 132.644112 254.171533 
L 132.803637 254.171533 
L 132.803637 253.724187 
L 133.465568 253.724187 
L 133.465568 253.612351 
L 133.880682 253.612351 
L 133.955092 253.276841 
L 134.322384 253.276841 
L 134.322384 252.941332 
L 134.467131 252.941332 
L 134.467131 252.493986 
L 135.684226 252.493986 
L 135.684226 252.38215 
L 135.851269 252.38215 
L 135.851269 252.158477 
L 136.016705 252.158477 
L 136.016705 252.04664 
L 136.407373 252.04664 
L 136.407373 251.934804 
L 136.757848 251.934804 
L 136.82081 251.711131 
L 137.163039 251.711131 
L 137.163039 251.599295 
L 137.498586 251.599295 
L 137.498586 251.375622 
L 137.857318 251.375622 
L 137.857318 251.151949 
L 138.121538 251.151949 
L 138.121538 251.040112 
L 138.381758 251.040112 
L 138.381758 250.928276 
L 138.946296 250.928276 
L 138.946296 250.816439 
L 139.194412 250.816439 
L 139.303546 250.369094 
L 139.733284 250.369094 
L 139.733284 250.257257 
L 140.048681 250.257257 
L 140.048681 250.033584 
L 140.230025 250.033584 
L 140.230025 249.809911 
L 140.358394 249.809911 
L 140.460404 249.586238 
L 140.936852 249.586238 
L 141.035496 249.362566 
L 141.15801 249.362566 
L 141.15801 249.027056 
L 141.279657 249.027056 
L 141.279657 248.91522 
L 142.084781 248.91522 
L 142.084781 248.803383 
L 142.268865 248.803383 
L 142.268865 248.691547 
L 142.428336 248.691547 
L 142.496231 248.356038 
L 143.160822 248.356038 
L 143.160822 248.244201 
L 143.419627 248.244201 
L 143.419627 248.132365 
L 143.69567 248.132365 
L 143.69567 247.908692 
L 143.925832 247.908692 
L 144.008769 247.685019 
L 144.538318 247.685019 
L 144.538318 247.461346 
L 144.816844 247.461346 
L 144.816844 247.014 
L 145.813566 247.014 
L 145.813566 246.790327 
L 145.961904 246.790327 
L 145.961904 246.566654 
L 146.57844 246.566654 
L 146.57844 246.454818 
L 146.702675 246.454818 
L 146.790867 246.119309 
L 147.225166 246.119309 
L 147.327785 245.671963 
L 147.429795 245.671963 
L 147.514343 245.336453 
L 147.698898 245.336453 
L 147.698898 245.224617 
L 147.815319 245.224617 
L 147.815319 245.112781 
L 148.143669 245.112781 
L 148.224786 244.889108 
L 148.577222 244.889108 
L 148.640531 244.553598 
L 149.123434 244.553598 
L 149.169454 244.218089 
L 149.623006 244.218089 
L 149.623006 243.994416 
L 150.108469 243.994416 
L 150.108469 243.88258 
L 150.353304 243.88258 
L 150.453114 243.658907 
L 150.481525 243.658907 
L 150.481525 243.54707 
L 150.651012 243.54707 
L 150.651012 243.435234 
L 150.957462 243.435234 
L 150.957462 243.323397 
L 151.122343 243.323397 
L 151.163317 242.764215 
L 151.258545 242.764215 
L 151.339751 242.316869 
L 151.48764 242.316869 
L 151.48764 242.205033 
L 151.620989 242.205033 
L 151.620989 242.093196 
L 151.923823 242.093196 
L 151.923823 241.98136 
L 152.336473 241.98136 
L 152.438106 241.757687 
L 152.526544 241.757687 
L 152.539141 241.422178 
L 153.206025 241.422178 
L 153.218134 240.974832 
L 153.338757 240.974832 
L 153.338757 240.862996 
L 153.458539 240.862996 
L 153.553767 240.303813 
L 153.636661 240.303813 
L 153.636661 240.191977 
L 153.76612 240.191977 
L 153.76612 239.968304 
L 153.929489 239.968304 
L 153.929489 239.856467 
L 154.217413 239.856467 
L 154.217413 239.744631 
L 154.38788 239.744631 
L 154.466857 239.520958 
L 154.612571 239.520958 
L 154.612571 239.297285 
L 154.779183 239.297285 
L 154.779183 239.185449 
L 155.05333 239.185449 
L 155.05333 238.849939 
L 155.194176 238.849939 
L 155.30174 238.51443 
L 155.472454 238.51443 
L 155.472454 238.178921 
L 155.860855 238.178921 
L 155.860855 238.067084 
L 156.005559 238.067084 
L 156.005559 237.843411 
L 156.362076 237.843411 
L 156.362076 237.731575 
L 156.492636 237.731575 
L 156.492636 237.507902 
L 156.898024 237.507902 
L 156.898024 237.284229 
L 157.198312 237.284229 
L 157.198312 237.060556 
L 157.427243 237.060556 
L 157.427243 236.94872 
L 157.587577 236.94872 
L 157.681197 236.613211 
L 157.709184 236.613211 
L 157.709184 236.389538 
L 158.078053 236.389538 
L 158.078053 236.277701 
L 158.572659 236.277701 
L 158.572659 236.165865 
L 158.784106 236.165865 
L 158.784106 236.054028 
L 159.122254 236.054028 
L 159.122254 235.942192 
L 159.984587 235.942192 
L 160.057921 235.606682 
L 160.187524 235.606682 
L 160.187524 235.38301 
L 160.680707 235.38301 
L 160.782346 235.159337 
L 160.914358 235.159337 
L 160.914358 235.0475 
L 161.053039 235.0475 
L 161.053039 234.935664 
L 161.266565 234.935664 
L 161.266565 234.711991 
L 161.477471 234.711991 
L 161.477471 234.600154 
L 161.693215 234.600154 
L 161.693215 234.376482 
L 161.884365 234.376482 
L 161.884365 234.264645 
L 162.102314 234.264645 
L 162.102314 233.929136 
L 162.303269 233.929136 
L 162.303269 233.817299 
L 162.607375 233.817299 
L 162.607375 233.705463 
L 162.885514 233.705463 
L 162.940606 233.258117 
L 163.01607 233.258117 
L 163.01607 233.034444 
L 164.01337 233.034444 
L 164.052083 232.698935 
L 164.282549 232.698935 
L 164.383994 232.027916 
L 164.497409 232.027916 
L 164.497409 231.804243 
L 164.919238 231.804243 
L 164.919238 231.692407 
L 165.071755 231.692407 
L 165.108159 231.356897 
L 165.277031 231.356897 
L 165.36682 231.021388 
L 165.550912 231.021388 
L 165.550912 230.909552 
L 165.727207 230.909552 
L 165.727207 230.797715 
L 166.063001 230.797715 
L 166.063001 230.685879 
L 166.268173 230.685879 
L 166.268173 230.574042 
L 166.63253 230.574042 
L 166.63253 230.238533 
L 166.759629 230.238533 
L 166.759629 230.126697 
L 167.086834 230.126697 
L 167.086834 230.01486 
L 167.24813 230.01486 
L 167.24813 229.903024 
L 167.376085 229.903024 
L 167.376085 229.679351 
L 167.503095 229.679351 
L 167.503095 229.343841 
L 167.644869 229.343841 
L 167.733538 228.560986 
L 167.795853 228.560986 
L 167.795853 228.337313 
L 168.001954 228.337313 
L 168.001954 228.225477 
L 168.256153 228.225477 
L 168.256153 228.11364 
L 168.880542 228.11364 
L 168.880542 227.778131 
L 169.374626 227.778131 
L 169.374626 227.666295 
L 169.54402 227.666295 
L 169.54402 227.554458 
L 169.702485 227.554458 
L 169.702485 227.107112 
L 169.845705 227.107112 
L 169.919161 226.88344 
L 170.632559 226.88344 
L 170.724606 226.659767 
L 170.772625 226.659767 
L 170.772625 226.54793 
L 171.837486 226.54793 
L 171.878412 226.212421 
L 172.073508 226.212421 
L 172.073508 225.988748 
L 172.712181 225.988748 
L 172.743305 225.765075 
L 173.180816 225.765075 
L 173.260209 225.429566 
L 173.429113 225.429566 
L 173.429113 225.094056 
L 173.540801 225.094056 
L 173.540801 224.98222 
L 174.016565 224.98222 
L 174.110158 224.758547 
L 174.253159 224.758547 
L 174.267394 224.423038 
L 174.39498 224.423038 
L 174.39498 224.199365 
L 174.521626 224.199365 
L 174.521626 224.087528 
L 174.957681 224.087528 
L 174.957681 223.975692 
L 175.495921 223.975692 
L 175.578519 223.640183 
L 175.882345 223.640183 
L 175.917929 223.41651 
L 176.075551 223.41651 
L 176.075551 223.192837 
L 176.219042 223.192837 
L 176.219042 223.081 
L 176.642468 223.081 
L 176.642468 222.969164 
L 177.013316 222.969164 
L 177.013316 222.857327 
L 177.760895 222.857327 
L 177.760895 222.633654 
L 178.613211 222.633654 
L 178.613211 222.521818 
L 179.80831 222.521818 
L 179.80831 222.409982 
L 180.162833 222.409982 
L 180.162833 222.186309 
L 180.959465 222.186309 
L 180.959465 222.074472 
L 182.236378 222.074472 
L 182.236378 221.850799 
L 184.260409 221.850799 
L 184.260409 221.738963 
L 185.503225 221.738963 
L 185.503225 221.51529 
L 186.650096 221.51529 
L 186.650096 221.403454 
L 188.694037 221.403454 
L 188.737013 221.179781 
L 188.982058 221.179781 
L 189.092025 220.956108 
L 189.320245 220.956108 
L 189.361685 220.732435 
L 189.551324 220.732435 
L 189.57178 220.508762 
L 189.701253 220.508762 
L 189.701253 220.396926 
L 189.980142 220.396926 
L 189.980142 220.285089 
L 190.208203 220.285089 
L 190.317614 219.94958 
L 190.342764 219.94958 
L 190.342764 219.725907 
L 190.628001 219.725907 
L 190.73478 219.390397 
L 190.742967 219.390397 
L 190.842256 218.943052 
L 190.909933 218.943052 
L 191.017666 218.04836 
L 191.171357 218.04836 
L 191.187316 217.601014 
L 191.295971 217.601014 
L 191.390812 216.48265 
L 191.456368 216.48265 
L 191.541218 216.258977 
L 191.648959 216.258977 
L 191.648959 216.035304 
L 191.834297 216.035304 
L 191.936406 215.587958 
L 192.128756 215.587958 
L 192.225382 215.364285 
L 192.364966 215.364285 
L 192.428152 215.028776 
L 192.593074 215.028776 
L 192.623668 214.805103 
L 192.837527 214.805103 
L 192.837527 214.58143 
L 193.18302 214.58143 
L 193.18302 214.469594 
L 193.429785 214.469594 
L 193.486857 214.245921 
L 193.677658 214.245921 
L 193.677658 214.134084 
L 193.827648 214.134084 
L 193.827648 214.022248 
L 194.096844 214.022248 
L 194.205361 213.463066 
L 194.213165 213.463066 
L 194.317629 212.792047 
L 194.598948 212.792047 
L 194.598948 212.680211 
L 195.656767 212.680211 
L 195.656767 212.568374 
L 195.798641 212.568374 
L 195.798641 212.456538 
L 197.066065 212.456538 
L 197.066065 212.344701 
L 200.150438 212.344701 
L 200.150438 212.232865 
L 200.280935 212.232865 
L 200.281718 212.009192 
L 200.547479 212.009192 
L 200.547479 211.897355 
L 200.797798 211.897355 
L 200.885727 211.561846 
L 201.019785 211.561846 
L 201.109574 211.338173 
L 201.149827 211.338173 
L 201.189242 211.1145 
L 201.326122 211.1145 
L 201.427521 210.778991 
L 201.532696 210.778991 
L 201.572697 210.443482 
L 201.780653 210.443482 
L 201.780653 210.331645 
L 202.108377 210.331645 
L 202.108377 210.219809 
L 202.383602 210.219809 
L 202.494122 209.54879 
L 202.551862 209.54879 
L 202.551862 209.436954 
L 202.868706 209.436954 
L 202.906392 209.101444 
L 203.026967 209.101444 
L 203.026967 208.989608 
L 203.397425 208.989608 
L 203.432014 208.765935 
L 203.54055 208.765935 
L 203.54055 208.654098 
L 205.359196 208.654098 
L 205.359196 208.542262 
L 205.728784 208.542262 
L 205.728784 208.318589 
L 207.377767 208.318589 
L 207.465643 208.094916 
L 207.541784 208.094916 
L 207.610432 207.759407 
L 207.655365 207.759407 
L 207.715942 207.423898 
L 207.922528 207.423898 
L 207.922528 207.200225 
L 208.162842 207.200225 
L 208.270437 206.641042 
L 208.287649 206.641042 
L 208.375408 206.417369 
L 208.439351 206.417369 
L 208.542814 206.193697 
L 208.601795 206.193697 
L 208.652877 205.634514 
L 208.951494 205.634514 
L 209.007206 205.299005 
L 209.085745 205.299005 
L 209.085745 205.187169 
L 209.30951 205.187169 
L 209.30951 205.075332 
L 210.697871 205.075332 
L 210.697871 204.963496 
L 211.553709 204.963496 
L 211.553709 204.851659 
L 211.858283 204.851659 
L 211.907729 204.51615 
L 212.014902 204.51615 
L 212.1041 204.180641 
L 212.366622 204.180641 
L 212.472137 203.956968 
L 212.55248 203.956968 
L 212.629778 203.397785 
L 212.717368 203.397785 
L 212.717368 203.285949 
L 212.856968 203.285949 
L 212.914519 202.61493 
L 212.981982 202.61493 
L 212.981982 202.503094 
L 213.120942 202.503094 
L 213.120942 202.391257 
L 213.271665 202.391257 
L 213.271665 202.279421 
L 213.447311 202.279421 
L 213.447311 202.167584 
L 214.327625 202.167584 
L 214.327625 202.055748 
L 215.403543 202.055748 
L 215.403543 201.943912 
L 215.608628 201.943912 
L 215.66568 201.608402 
L 215.800503 201.608402 
L 215.836025 201.272893 
L 216.114156 201.272893 
L 216.180741 200.937384 
L 216.324846 200.937384 
L 216.342082 200.713711 
L 216.548797 200.713711 
L 216.56824 200.490038 
L 216.779768 200.490038 
L 216.779768 200.378201 
L 218.498152 200.378201 
L 218.579371 200.042692 
L 218.679015 200.042692 
L 218.710941 199.707183 
L 218.974001 199.707183 
L 219.014866 199.371673 
L 219.18284 199.371673 
L 219.245312 198.924327 
L 219.390203 198.924327 
L 219.390461 198.700655 
L 219.806879 198.700655 
L 219.806879 198.588818 
L 221.022739 198.588818 
L 221.111544 198.141472 
L 221.174365 198.141472 
L 221.276942 197.917799 
L 221.319599 197.917799 
L 221.319599 197.694127 
L 221.452651 197.694127 
L 221.53381 197.470454 
L 221.647154 197.470454 
L 221.687776 197.134944 
L 221.825624 197.134944 
L 221.825624 197.023108 
L 222.176002 197.023108 
L 222.176002 196.799435 
L 222.648397 196.799435 
L 222.648397 196.687599 
L 223.674018 196.687599 
L 223.674018 196.575762 
L 223.937066 196.575762 
L 223.937066 196.463926 
L 225.43694 196.463926 
L 225.486889 196.240253 
L 225.56334 196.240253 
L 225.56334 196.128416 
L 225.695245 196.128416 
L 225.695245 196.01658 
L 226.114464 196.01658 
L 226.176726 195.68107 
L 227.058196 195.68107 
L 227.058196 195.569234 
L 227.22168 195.569234 
L 227.32559 195.010052 
L 227.564725 195.010052 
L 227.564725 194.898215 
L 227.789992 194.898215 
L 227.789992 194.786379 
L 228.603058 194.786379 
L 228.677066 194.45087 
L 228.849265 194.45087 
L 228.892158 194.003524 
L 229.180703 194.003524 
L 229.180703 193.891687 
L 229.316601 193.891687 
L 229.368296 193.668014 
L 230.103538 193.668014 
L 230.202716 193.444342 
L 230.240583 193.444342 
L 230.327799 193.220669 
L 230.392174 193.220669 
L 230.398829 192.996996 
L 230.766266 192.996996 
L 230.766266 192.885159 
L 231.39478 192.885159 
L 231.499159 192.437813 
L 231.513419 192.437813 
L 231.513419 192.325977 
L 231.630107 192.325977 
L 231.71849 191.878631 
L 232.656956 191.878631 
L 232.739871 191.543122 
L 232.77503 191.543122 
L 232.861732 191.095776 
L 232.944018 191.095776 
L 232.944018 190.872103 
L 233.220142 190.872103 
L 233.220142 190.760267 
L 233.850096 190.760267 
L 233.850096 190.536594 
L 233.993909 190.536594 
L 233.993909 190.424757 
L 234.148434 190.424757 
L 234.192922 190.201085 
L 234.908407 190.201085 
L 234.918536 189.977412 
L 235.040661 189.977412 
L 235.088173 189.753739 
L 235.179002 189.753739 
L 235.179002 189.641902 
L 235.403437 189.641902 
L 235.403437 189.530066 
L 235.623876 189.530066 
L 235.623876 189.418229 
L 236.011937 189.418229 
L 236.098415 189.08272 
L 236.170003 189.08272 
L 236.223596 188.859047 
L 236.896489 188.859047 
L 236.896489 188.747211 
L 237.05579 188.747211 
L 237.123507 188.523538 
L 237.822323 188.523538 
L 237.925522 188.188028 
L 237.962642 188.188028 
L 238.026886 187.852519 
L 238.074998 187.852519 
L 238.074998 187.740683 
L 238.841828 187.740683 
L 238.841828 187.628846 
L 239.573993 187.628846 
L 239.610661 187.405173 
L 239.816094 187.405173 
L 239.816094 187.293337 
L 240.42988 187.293337 
L 240.482904 187.069664 
L 240.591392 187.069664 
L 240.591392 186.957828 
L 241.103553 186.957828 
L 241.103553 186.734155 
L 241.944693 186.734155 
L 241.944693 186.510482 
L 242.108793 186.510482 
L 242.108793 186.398645 
L 243.153009 186.398645 
L 243.153009 186.286809 
L 243.29185 186.286809 
L 243.29185 186.174972 
L 243.775323 186.174972 
L 243.775323 186.063136 
L 243.927799 186.063136 
L 243.987094 185.839463 
L 245.216017 185.839463 
L 245.216017 185.727627 
L 245.615006 185.727627 
L 245.615006 185.61579 
L 246.142799 185.61579 
L 246.171844 185.392117 
L 246.259549 185.392117 
L 246.311334 185.056608 
L 246.79621 185.056608 
L 246.79621 184.944771 
L 247.197765 184.944771 
L 247.228449 184.721099 
L 247.344663 184.721099 
L 247.344663 184.497426 
L 247.858167 184.497426 
L 247.869031 184.273753 
L 248.312436 184.273753 
L 248.3389 184.05008 
L 248.786717 184.05008 
L 248.786717 183.938243 
L 249.000758 183.938243 
L 249.000758 183.826407 
L 249.23002 183.826407 
L 249.23002 183.714571 
L 249.667843 183.714571 
L 249.705688 183.379061 
L 250.109204 183.379061 
L 250.109204 183.267225 
L 250.484735 183.267225 
L 250.572973 183.043552 
L 250.615791 183.043552 
L 250.615791 182.931715 
L 252.905913 182.931715 
L 252.946193 182.596206 
L 253.251716 182.596206 
L 253.251716 182.48437 
L 255.064189 182.48437 
L 255.064189 182.372533 
L 256.232235 182.372533 
L 256.294477 182.14886 
L 257.826707 182.14886 
L 257.826707 182.037024 
L 259.309657 182.037024 
L 259.309657 181.925187 
L 333.168 181.925187 
L 333.168 181.925187 
" style="fill:none;stroke:#000080;stroke-linecap:square;stroke-width:1.5;"/>
   </g>
   <g id="line2d_44">
    <defs>
     <path d="M 0 6 
C 1.591219 6 3.117479 5.367802 4.242641 4.242641 
C 5.367802 3.117479 6 1.591219 6 0 
C 6 -1.591219 5.367802 -3.117479 4.242641 -4.242641 
C 3.117479 -5.367802 1.591219 -6 0 -6 
C -1.591219 -6 -3.117479 -5.367802 -4.242641 -4.242641 
C -5.367802 -3.117479 -6 -1.591219 -6 0 
C -6 1.591219 -5.367802 3.117479 -4.242641 4.242641 
C -3.117479 5.367802 -1.591219 6 0 6 
z
" id="m5472704615" style="stroke:#000080;stroke-width:1.5;"/>
    </defs>
    <g>
     <use style="fill-opacity:0;stroke:#000080;stroke-width:1.5;" x="124.102454" xlink:href="#m5472704615" y="256.408262"/>
     <use style="fill-opacity:0;stroke:#000080;stroke-width:1.5;" x="191.390812" xlink:href="#m5472704615" y="216.48265"/>
     <use style="fill-opacity:0;stroke:#000080;stroke-width:1.5;" x="243.987094" xlink:href="#m5472704615" y="185.951299"/>
     <use style="fill-opacity:0;stroke:#000080;stroke-width:1.5;" x="259.309657" xlink:href="#m5472704615" y="181.925187"/>
     <use style="fill-opacity:0;stroke:#000080;stroke-width:1.5;" x="259.309657" xlink:href="#m5472704615" y="181.925187"/>
     <use style="fill-opacity:0;stroke:#000080;stroke-width:1.5;" x="333.168" xlink:href="#m5472704615" y="181.925187"/>
    </g>
   </g>
   <g id="line2d_45">
    <path style="fill:none;stroke:#000080;stroke-linecap:square;stroke-width:1.5;"/>
    <g/>
   </g>
   <g id="line2d_46">
    <path clip-path="url(#peed23ce457)" d="M 186.941843 221.403454 
" style="fill:none;stroke:#000080;stroke-linecap:square;stroke-width:1.5;"/>
    <defs>
     <path d="M -12 12 
L 12 -12 
M -12 -12 
L 12 12 
" id="mf8e9559915" style="stroke:#000080;"/>
    </defs>
    <g clip-path="url(#peed23ce457)">
     <use style="fill:#000080;stroke:#000080;" x="186.941843" xlink:href="#mf8e9559915" y="221.403454"/>
    </g>
   </g>
   <g id="line2d_47">
    <defs>
     <path d="M 0 1.5 
C 0.397805 1.5 0.77937 1.341951 1.06066 1.06066 
C 1.341951 0.77937 1.5 0.397805 1.5 0 
C 1.5 -0.397805 1.341951 -0.77937 1.06066 -1.06066 
C 0.77937 -1.341951 0.397805 -1.5 0 -1.5 
C -0.397805 -1.5 -0.77937 -1.341951 -1.06066 -1.06066 
C -1.341951 -0.77937 -1.5 -0.397805 -1.5 0 
C -1.5 0.397805 -1.341951 0.77937 -1.06066 1.06066 
C -0.77937 1.341951 -0.397805 1.5 0 1.5 
z
" id="m3c98d43b3f" style="stroke:#ff00ff;"/>
    </defs>
    <g>
     <use style="fill:#ff00ff;stroke:#ff00ff;" x="264.547659" xlink:href="#m3c98d43b3f" y="166.268085"/>
     <use style="fill:#ff00ff;stroke:#ff00ff;" x="264.547659" xlink:href="#m3c98d43b3f" y="166.268085"/>
    </g>
   </g>
   <g id="line2d_48">
    <path d="M 28.455965 294.88 
L 28.455965 272.624547 
L 40.370217 272.624547 
L 40.370217 271.058837 
L 47.339607 271.058837 
L 47.339607 269.604963 
L 52.284468 269.604963 
L 52.284468 269.157617 
L 56.12 269.157617 
L 56.12 268.486598 
L 59.253858 268.486598 
L 59.253858 267.81558 
L 61.903497 267.81558 
L 61.903497 267.591907 
L 66.223248 267.591907 
L 66.223248 267.48007 
L 68.034251 267.48007 
L 68.034251 267.032724 
L 69.672503 267.032724 
L 69.672503 266.809052 
L 71.168109 266.809052 
L 71.168109 266.697215 
L 72.543934 266.697215 
L 72.543934 266.249869 
L 73.817748 266.249869 
L 73.817748 265.91436 
L 75.003641 265.91436 
L 75.003641 265.802523 
L 77.155024 265.802523 
L 77.155024 265.578851 
L 79.948502 265.578851 
L 79.948502 265.467014 
L 81.586754 265.467014 
L 81.586754 265.355178 
L 83.08236 265.355178 
L 83.08236 264.907832 
L 85.732 264.907832 
L 85.732 264.795995 
L 86.335171 264.795995 
L 86.335171 264.684159 
L 86.917893 264.684159 
L 86.917893 264.236813 
L 88.556144 264.236813 
L 88.556144 264.01314 
L 89.069276 264.01314 
L 89.069276 263.901304 
L 89.567532 263.901304 
L 89.567532 263.677631 
L 91.427575 263.677631 
L 91.427575 263.453958 
L 92.287186 263.453958 
L 92.287186 263.342122 
L 93.105847 263.342122 
L 93.105847 263.006612 
L 93.887283 263.006612 
L 93.887283 262.894776 
L 94.26507 262.894776 
L 94.26507 262.782939 
L 96.372436 262.782939 
L 96.372436 262.671103 
L 97.950482 262.671103 
L 97.950482 262.559266 
L 98.249422 262.559266 
L 98.249422 262.335594 
L 98.543252 262.335594 
L 98.543252 262.111921 
L 99.11626 262.111921 
L 99.11626 262.000084 
L 99.941473 262.000084 
L 99.941473 261.888248 
L 100.983527 261.888248 
L 100.983527 261.776411 
L 101.966002 261.776411 
L 101.966002 261.664575 
L 102.20309 261.664575 
L 102.20309 261.440902 
L 102.436953 261.440902 
L 102.436953 260.993556 
L 103.341826 260.993556 
L 103.341826 260.88172 
L 103.990531 260.88172 
L 103.990531 260.769883 
L 106.365146 260.769883 
L 106.365146 260.658047 
L 107.26528 260.658047 
L 107.26528 260.322538 
L 108.935392 260.322538 
L 108.935392 260.210701 
L 109.713291 260.210701 
L 109.713291 259.875192 
L 109.864733 259.875192 
L 109.864733 259.651519 
L 110.602556 259.651519 
L 110.602556 259.539682 
L 114.351204 259.539682 
L 114.351204 259.427846 
L 114.696138 259.427846 
L 114.696138 259.316009 
L 116.220179 259.316009 
L 116.220179 259.204173 
L 119.867168 259.204173 
L 119.867168 258.868664 
L 120.283378 258.868664 
L 120.283378 258.644991 
L 120.528351 258.644991 
L 120.609239 258.197645 
L 120.849643 258.197645 
L 120.849643 258.085809 
L 121.242993 258.085809 
L 121.242993 257.750299 
L 121.397846 257.750299 
L 121.397846 257.526626 
L 122.077925 257.526626 
L 122.077925 257.302953 
L 122.444434 257.302953 
L 122.444434 257.191117 
L 123.085078 257.191117 
L 123.085078 257.079281 
L 123.293428 257.079281 
L 123.293428 256.967444 
L 123.7027 256.967444 
L 123.769975 256.520098 
L 123.836987 256.520098 
L 123.836987 256.408262 
L 124.685175 256.408262 
L 124.685175 256.184589 
L 124.812029 256.184589 
L 124.812029 255.960916 
L 125.614517 255.960916 
L 125.614517 255.737243 
L 126.667211 255.737243 
L 126.667211 255.51357 
L 127.389295 255.51357 
L 127.497741 255.289897 
L 127.659138 255.289897 
L 127.659138 255.178061 
L 127.819033 255.178061 
L 127.872003 254.842552 
L 127.977455 254.842552 
L 127.977455 254.507042 
L 128.289984 254.507042 
L 128.39291 254.059696 
L 128.698042 254.059696 
L 128.698042 253.94786 
L 129.819968 253.94786 
L 129.867125 253.724187 
L 129.961052 253.724187 
L 130.007824 253.388678 
L 130.739365 253.388678 
L 130.739365 253.276841 
L 131.137575 253.276841 
L 131.137575 253.053168 
L 131.268288 253.053168 
L 131.268288 252.829495 
L 131.569473 252.829495 
L 131.569473 252.717659 
L 131.696954 252.717659 
L 131.696954 252.38215 
L 131.990784 252.38215 
L 131.990784 252.270313 
L 132.11519 252.270313 
L 132.11519 252.04664 
L 132.238701 252.04664 
L 132.238701 251.711131 
L 132.644112 251.711131 
L 132.72406 251.375622 
L 134.717542 251.375622 
L 134.717542 251.263785 
L 135.345189 251.263785 
L 135.447604 250.816439 
L 135.616951 250.816439 
L 135.684226 250.369094 
L 135.950722 250.369094 
L 135.950722 250.033584 
L 136.082436 250.033584 
L 136.082436 249.921748 
L 136.694654 249.921748 
L 136.694654 249.809911 
L 137.008324 249.809911 
L 137.10132 249.474402 
L 137.798047 249.474402 
L 137.798047 249.362566 
L 137.945844 249.362566 
L 137.945844 249.250729 
L 138.121538 249.250729 
L 138.121538 249.138893 
L 138.324271 249.138893 
L 138.324271 248.91522 
L 138.553074 248.91522 
L 138.553074 248.691547 
L 138.694545 248.691547 
L 138.694545 248.57971 
L 138.918505 248.57971 
L 138.946296 248.244201 
L 139.139583 248.244201 
L 139.139583 248.132365 
L 139.276327 248.132365 
L 139.276327 247.685019 
L 139.438997 247.685019 
L 139.49288 247.125837 
L 139.812678 247.125837 
L 139.812678 247.014 
L 140.230025 247.014 
L 140.230025 246.902164 
L 141.303883 246.902164 
L 141.303883 246.790327 
L 141.424506 246.790327 
L 141.424506 246.678491 
L 141.710592 246.678491 
L 141.710592 246.342981 
L 142.154044 246.342981 
L 142.154044 246.119309 
L 142.268865 246.119309 
L 142.268865 246.007472 
L 142.675983 246.007472 
L 142.675983 245.895636 
L 142.875982 245.895636 
L 142.875982 245.783799 
L 143.204228 245.783799 
L 143.204228 245.671963 
L 143.505037 245.671963 
L 143.590024 245.336453 
L 143.967351 245.336453 
L 143.967351 245.000944 
L 144.618359 245.000944 
L 144.618359 244.777271 
L 144.915234 244.777271 
L 144.915234 244.553598 
L 145.226349 244.553598 
L 145.303255 243.994416 
L 145.398907 243.994416 
L 145.398907 243.88258 
L 145.512992 243.88258 
L 145.512992 243.770743 
L 145.757607 243.770743 
L 145.757607 243.54707 
L 146.017203 243.54707 
L 146.017203 243.435234 
L 146.254795 243.435234 
L 146.327245 242.540542 
L 146.560619 242.540542 
L 146.560619 242.316869 
L 146.702675 242.316869 
L 146.702675 242.205033 
L 147.378865 242.205033 
L 147.378865 242.093196 
L 147.548046 242.093196 
L 147.615255 241.645851 
L 147.682202 241.645851 
L 147.715578 241.422178 
L 147.980278 241.422178 
L 148.013081 240.974832 
L 148.1274 240.974832 
L 148.1274 240.862996 
L 148.829074 240.862996 
L 148.829074 240.751159 
L 149.108066 240.751159 
L 149.108066 240.527486 
L 149.230624 240.527486 
L 149.306781 240.191977 
L 149.352314 240.191977 
L 149.427935 239.968304 
L 149.771569 239.968304 
L 149.815889 239.520958 
L 150.021216 239.520958 
L 150.122968 238.961776 
L 150.281655 238.961776 
L 150.310351 238.626267 
L 150.396151 238.626267 
L 150.396151 238.51443 
L 150.707138 238.51443 
L 150.721141 238.178921 
L 150.957462 238.178921 
L 150.957462 237.955248 
L 151.541104 237.955248 
L 151.581093 237.396066 
L 151.923823 237.396066 
L 151.975949 237.060556 
L 152.564308 237.060556 
L 152.564308 236.836883 
L 152.801568 236.836883 
L 152.826354 236.501374 
L 152.937447 236.501374 
L 152.937447 236.054028 
L 153.121023 236.054028 
L 153.121023 235.830355 
L 153.518118 235.830355 
L 153.518118 235.718519 
L 153.777841 235.718519 
L 153.777841 235.494846 
L 153.906246 235.494846 
L 153.906246 235.38301 
L 154.114315 235.38301 
L 154.114315 235.271173 
L 154.24024 235.271173 
L 154.24024 235.159337 
L 154.353922 235.159337 
L 154.353922 235.0475 
L 154.567867 235.0475 
L 154.567867 234.935664 
L 154.723825 234.935664 
L 154.768126 234.600154 
L 154.977008 234.600154 
L 154.977008 234.488318 
L 155.09679 234.488318 
L 155.140141 234.264645 
L 155.226516 234.264645 
L 155.226516 234.152809 
L 155.344578 234.152809 
L 155.440574 233.593626 
L 155.609922 233.593626 
L 155.68349 232.922608 
L 155.984961 232.922608 
L 156.005559 232.698935 
L 156.271104 232.698935 
L 156.271104 232.587098 
L 156.602341 232.587098 
L 156.67179 232.139753 
L 156.721225 232.139753 
L 156.750818 231.58057 
L 156.868684 231.58057 
L 156.907793 231.245061 
L 156.985746 231.245061 
L 157.092358 230.797715 
L 157.709184 230.797715 
L 157.709184 230.574042 
L 158.023225 230.574042 
L 158.114508 229.903024 
L 158.205309 229.903024 
L 158.241496 229.679351 
L 158.322638 229.679351 
L 158.322638 229.455678 
L 158.492691 229.455678 
L 158.563792 229.008332 
L 158.766584 229.008332 
L 158.836564 228.784659 
L 158.914951 228.784659 
L 158.914951 228.560986 
L 159.165129 228.560986 
L 159.165129 228.337313 
L 159.403273 228.337313 
L 159.504333 228.001804 
L 159.529506 228.001804 
L 159.563012 227.778131 
L 159.746137 227.778131 
L 159.746137 227.554458 
L 160.082296 227.554458 
L 160.114742 227.330785 
L 160.499399 227.330785 
L 160.609988 226.54793 
L 160.735511 226.54793 
L 160.829054 225.988748 
L 160.875636 225.988748 
L 160.875636 225.876911 
L 161.014628 225.876911 
L 161.045364 225.653239 
L 161.243814 225.653239 
L 161.319534 225.205893 
L 161.469983 225.205893 
L 161.559624 224.870383 
L 161.633969 224.870383 
L 161.641386 224.534874 
L 161.766986 224.534874 
L 161.83311 223.975692 
L 161.906285 223.975692 
L 161.906285 223.863855 
L 162.203085 223.863855 
L 162.203085 223.752019 
L 162.781739 223.752019 
L 162.781739 223.640183 
L 162.919967 223.640183 
L 162.919967 223.528346 
L 163.04343 223.528346 
L 163.04343 223.192837 
L 163.307927 223.192837 
L 163.307927 223.081 
L 163.575044 223.081 
L 163.621366 222.857327 
L 163.700485 222.857327 
L 163.700485 222.745491 
L 163.844598 222.745491 
L 163.8902 222.186309 
L 164.058527 222.186309 
L 164.058527 222.074472 
L 164.396633 222.074472 
L 164.402949 221.738963 
L 164.572606 221.738963 
L 164.628788 221.51529 
L 164.906977 221.51529 
L 164.980407 221.291617 
L 165.126332 221.291617 
L 165.126332 221.179781 
L 165.277031 221.179781 
L 165.318991 220.956108 
L 165.550912 220.956108 
L 165.550912 220.844271 
L 165.662775 220.844271 
L 165.76225 220.285089 
L 166.040052 220.285089 
L 166.114524 219.94958 
L 166.754123 219.94958 
L 166.847495 219.61407 
L 167.25348 219.61407 
L 167.25348 219.502234 
L 167.550483 219.502234 
L 167.608225 219.166725 
L 167.780295 219.166725 
L 167.888904 218.831215 
L 168.063306 218.831215 
L 168.063306 218.607542 
L 168.536463 218.607542 
L 168.571183 218.383869 
L 168.748641 218.383869 
L 168.768246 218.04836 
L 168.924285 218.04836 
L 168.938842 217.601014 
L 169.369897 217.601014 
L 169.379354 217.377341 
L 169.711761 217.377341 
L 169.711761 217.265505 
L 169.900826 217.265505 
L 169.992304 216.929996 
L 170.096905 216.929996 
L 170.096905 216.706323 
L 170.277318 216.706323 
L 170.362355 216.48265 
L 170.623767 216.48265 
L 170.623767 216.370813 
L 171.443757 216.370813 
L 171.468893 216.035304 
L 172.270411 216.035304 
L 172.377952 215.587958 
L 172.630209 215.587958 
L 172.72775 215.252449 
L 172.754963 215.252449 
L 172.758847 215.028776 
L 172.98263 215.028776 
L 172.997957 214.805103 
L 173.473875 214.805103 
L 173.544511 214.357757 
L 173.80958 214.357757 
L 173.915199 214.134084 
L 174.138853 214.134084 
L 174.246037 213.910412 
L 174.416152 213.910412 
L 174.416152 213.798575 
L 174.570626 213.798575 
L 174.570626 213.686739 
L 174.991819 213.686739 
L 174.991819 213.574902 
L 175.30275 213.574902 
L 175.30275 213.239393 
L 175.598283 213.239393 
L 175.598283 213.01572 
L 175.859663 213.01572 
L 175.882345 212.680211 
L 176.075551 212.680211 
L 176.075551 212.456538 
L 176.493109 212.456538 
L 176.493109 212.344701 
L 177.408957 212.344701 
L 177.408957 212.009192 
L 178.162584 212.009192 
L 178.162584 211.897355 
L 178.334711 211.897355 
L 178.334711 211.785519 
L 178.64633 211.785519 
L 178.64633 211.561846 
L 179.060403 211.561846 
L 179.060403 211.45001 
L 179.303611 211.45001 
L 179.303611 211.338173 
L 180.172927 211.338173 
L 180.172927 211.226337 
L 182.314513 211.226337 
L 182.314513 211.1145 
L 183.288695 211.1145 
L 183.288695 211.002664 
L 188.488424 211.002664 
L 188.488424 210.778991 
L 188.640167 210.778991 
L 188.640167 210.667155 
L 188.840937 210.667155 
L 188.840937 210.555318 
L 188.972988 210.555318 
L 188.972988 210.443482 
L 189.123529 210.443482 
L 189.123529 210.331645 
L 189.332095 210.331645 
L 189.336537 210.107972 
L 189.445737 210.107972 
L 189.482473 209.660626 
L 189.568859 209.660626 
L 189.568859 209.54879 
L 189.887203 209.54879 
L 189.991546 209.101444 
L 190.212424 209.101444 
L 190.291026 208.654098 
L 190.34416 208.654098 
L 190.377633 208.318589 
L 190.492896 208.318589 
L 190.590884 207.98308 
L 190.654073 207.98308 
L 190.763415 207.759407 
L 190.76614 207.759407 
L 190.76614 207.64757 
L 190.880188 207.64757 
L 190.950412 207.200225 
L 191.035109 207.200225 
L 191.043153 206.864715 
L 191.151388 206.864715 
L 191.241729 206.529206 
L 191.314453 206.529206 
L 191.420999 206.08186 
L 191.555536 206.08186 
L 191.575041 205.746351 
L 191.775309 205.746351 
L 191.775309 205.634514 
L 191.989771 205.634514 
L 192.066983 205.299005 
L 192.10735 205.299005 
L 192.215368 204.963496 
L 192.226633 204.963496 
L 192.315244 204.51615 
L 192.366207 204.51615 
L 192.391012 204.180641 
L 192.564879 204.180641 
L 192.564879 204.068804 
L 192.687131 204.068804 
L 192.687131 203.956968 
L 192.80973 203.956968 
L 192.80973 203.845131 
L 192.923051 203.845131 
L 192.923051 203.621458 
L 193.040405 203.621458 
L 193.047564 203.285949 
L 193.186571 203.285949 
L 193.187754 203.062276 
L 193.421616 203.062276 
L 193.430952 202.838603 
L 193.630444 202.838603 
L 193.709827 202.61493 
L 193.779702 202.61493 
L 193.779702 202.503094 
L 194.003443 202.503094 
L 194.003443 202.391257 
L 194.469849 202.391257 
L 194.469849 202.279421 
L 194.716262 202.279421 
L 194.742223 201.720239 
L 195.020987 201.720239 
L 195.08574 201.384729 
L 195.457814 201.384729 
L 195.457814 201.161056 
L 200.005419 201.161056 
L 200.019737 200.937384 
L 200.384002 200.937384 
L 200.433752 200.601874 
L 200.563665 200.601874 
L 200.61213 200.266365 
L 200.750616 200.266365 
L 200.750616 200.154528 
L 200.968695 200.154528 
L 201.023535 199.930855 
L 201.195927 199.930855 
L 201.272979 199.595346 
L 201.348216 199.595346 
L 201.348216 199.48351 
L 201.506462 199.48351 
L 201.608981 199.036164 
L 201.715936 199.036164 
L 201.768447 198.812491 
L 201.840836 198.812491 
L 201.840836 198.700655 
L 201.961993 198.700655 
L 201.961993 198.588818 
L 202.301635 198.588818 
L 202.405071 198.141472 
L 202.454831 198.141472 
L 202.454831 197.917799 
L 202.684477 197.917799 
L 202.72053 197.358617 
L 202.80729 197.358617 
L 202.826211 196.911271 
L 203.366038 196.911271 
L 203.366038 196.799435 
L 203.566445 196.799435 
L 203.566445 196.687599 
L 203.851293 196.687599 
L 203.851293 196.463926 
L 204.41706 196.463926 
L 204.41706 196.240253 
L 206.659717 196.240253 
L 206.661338 196.01658 
L 206.88678 196.01658 
L 206.992573 195.68107 
L 207.067139 195.68107 
L 207.140333 195.233725 
L 207.278496 195.233725 
L 207.364806 194.786379 
L 207.445007 194.786379 
L 207.445007 194.674542 
L 207.60992 194.674542 
L 207.708826 194.45087 
L 207.725086 194.45087 
L 207.820808 193.668014 
L 207.860661 193.668014 
L 207.880301 193.220669 
L 208.1073 193.220669 
L 208.19944 192.885159 
L 208.261579 192.885159 
L 208.266993 192.661486 
L 208.418876 192.661486 
L 208.514702 192.325977 
L 208.6288 192.325977 
L 208.6288 192.102304 
L 208.824762 192.102304 
L 208.829526 191.878631 
L 208.959531 191.878631 
L 208.959531 191.766795 
L 209.155051 191.766795 
L 209.155051 191.654958 
L 210.257368 191.654958 
L 210.257368 191.431285 
L 211.55127 191.431285 
L 211.653006 191.095776 
L 211.674815 191.095776 
L 211.674815 190.98394 
L 211.848297 190.98394 
L 211.947501 190.536594 
L 212.050874 190.536594 
L 212.050874 190.424757 
L 212.201059 190.424757 
L 212.302923 189.753739 
L 212.489468 189.753739 
L 212.579306 189.418229 
L 212.629014 189.418229 
L 212.629014 189.306393 
L 212.872032 189.306393 
L 212.872032 189.08272 
L 213.067428 189.08272 
L 213.07115 188.747211 
L 213.292617 188.747211 
L 213.292617 188.635374 
L 214.196728 188.635374 
L 214.196728 188.411701 
L 215.236711 188.411701 
L 215.236711 188.299865 
L 215.508168 188.299865 
L 215.508168 188.188028 
L 215.637819 188.188028 
L 215.698607 187.964356 
L 215.797963 187.964356 
L 215.84901 187.628846 
L 215.916312 187.628846 
L 215.949392 187.293337 
L 216.069207 187.293337 
L 216.136899 186.957828 
L 216.257273 186.957828 
L 216.342082 186.622318 
L 216.467448 186.622318 
L 216.467448 186.286809 
L 216.652438 186.286809 
L 216.652438 186.174972 
L 217.399457 186.174972 
L 217.399457 185.951299 
L 218.311524 185.951299 
L 218.41682 185.727627 
L 218.439163 185.727627 
L 218.494895 185.503954 
L 218.568564 185.503954 
L 218.568564 185.392117 
L 218.706115 185.392117 
L 218.787427 185.056608 
L 218.840713 185.056608 
L 218.866497 184.721099 
L 218.967665 184.721099 
L 219.048803 184.05008 
L 219.123019 184.05008 
L 219.181015 183.714571 
L 219.307299 183.714571 
L 219.39381 183.490898 
L 219.457318 183.490898 
L 219.46168 183.267225 
L 220.098122 183.267225 
L 220.098122 183.155388 
L 220.811986 183.155388 
L 220.892207 182.931715 
L 221.071872 182.931715 
L 221.182955 182.596206 
L 221.250835 182.596206 
L 221.250835 182.48437 
L 221.432987 182.48437 
L 221.503306 182.260697 
L 221.584907 182.260697 
L 221.688452 182.037024 
L 221.871849 182.037024 
L 221.895917 181.813351 
L 222.169866 181.813351 
L 222.169866 181.701514 
L 222.349525 181.701514 
L 222.349525 181.589678 
L 223.233257 181.589678 
L 223.336783 181.254169 
L 223.414427 181.254169 
L 223.467961 180.806823 
L 223.537326 180.806823 
L 223.642864 180.359477 
L 223.663171 180.359477 
L 223.767542 179.912131 
L 224.252355 179.912131 
L 224.252355 179.800295 
L 225.221189 179.800295 
L 225.221189 179.688458 
L 225.360106 179.688458 
L 225.46917 179.241113 
L 225.537413 179.241113 
L 225.646078 178.793767 
L 225.675059 178.793767 
L 225.727885 178.570094 
L 226.969072 178.570094 
L 226.977193 178.346421 
L 227.205009 178.346421 
L 227.267361 178.122748 
L 227.377473 178.122748 
L 227.477712 177.675402 
L 227.521755 177.675402 
L 227.521755 177.563566 
L 228.68682 177.563566 
L 228.767637 177.339893 
L 228.839008 177.339893 
L 228.947656 176.557038 
L 229.08027 176.557038 
L 229.096683 176.333365 
L 229.312551 176.333365 
L 229.312551 176.221528 
L 229.431333 176.221528 
L 229.431333 176.109692 
L 230.322207 176.109692 
L 230.389728 175.886019 
L 230.516025 175.886019 
L 230.548767 175.55051 
L 231.376188 175.55051 
L 231.376188 175.438673 
L 231.545714 175.438673 
L 231.545714 175.326837 
L 231.704273 175.326837 
L 231.771102 174.543982 
L 232.011384 174.543982 
L 232.011384 174.432145 
L 232.754677 174.432145 
L 232.857731 174.096636 
L 232.93617 174.096636 
L 232.991846 173.872963 
L 233.720522 173.872963 
L 233.720522 173.761127 
L 233.949124 173.761127 
L 234.057796 173.425617 
L 234.182573 173.425617 
L 234.182573 173.313781 
L 234.343409 173.313781 
L 234.343409 173.201944 
L 234.90078 173.201944 
L 234.90078 173.090108 
L 235.06966 173.090108 
L 235.153585 172.866435 
L 235.249395 172.866435 
L 235.249395 172.642762 
L 236.013995 172.642762 
L 236.084374 172.419089 
L 236.163499 172.419089 
L 236.243034 172.08358 
L 236.816094 172.08358 
L 236.892022 171.859907 
L 236.963538 171.859907 
L 236.975212 171.636234 
L 237.202845 171.636234 
L 237.202845 171.524398 
L 237.337865 171.524398 
L 237.412431 171.300725 
L 237.886214 171.300725 
L 237.934284 171.077052 
L 238.102171 171.077052 
L 238.102171 170.965215 
L 238.230333 170.965215 
L 238.230333 170.853379 
L 238.676348 170.853379 
L 238.751354 170.406033 
L 238.861177 170.406033 
L 238.956773 170.070524 
L 239.575665 170.070524 
L 239.680836 169.846851 
L 240.351443 169.846851 
L 240.351443 169.735014 
L 240.748575 169.735014 
L 240.748575 169.623178 
L 241.047296 169.623178 
L 241.10348 169.287669 
L 241.161078 169.287669 
L 241.242562 169.063996 
L 241.900658 169.063996 
L 241.900658 168.952159 
L 243.077712 168.952159 
L 243.077712 168.840323 
L 243.235316 168.840323 
L 243.235316 168.61665 
L 243.820287 168.61665 
L 243.923657 168.281141 
L 244.437323 168.281141 
L 244.437323 168.169304 
L 244.751197 168.169304 
L 244.751197 168.057468 
L 245.090316 168.057468 
L 245.090316 167.945631 
L 246.2253 167.945631 
L 246.2253 167.833795 
L 246.711891 167.833795 
L 246.711891 167.721958 
L 248.251889 167.721958 
L 248.251889 167.610122 
L 249.196389 167.610122 
L 249.196389 167.498286 
L 249.413687 167.498286 
L 249.413687 167.386449 
L 249.677666 167.386449 
L 249.677666 167.274613 
L 251.672659 167.274613 
L 251.672659 167.162776 
L 252.925186 167.162776 
L 252.925186 167.05094 
L 253.615272 167.05094 
L 253.615272 166.939103 
L 254.716227 166.939103 
L 254.716227 166.827267 
L 256.275382 166.827267 
L 256.275382 166.71543 
L 257.451761 166.71543 
L 257.451761 166.603594 
L 258.21194 166.603594 
L 258.21194 166.491757 
L 260.260537 166.491757 
L 260.260537 166.379921 
L 264.547659 166.379921 
L 264.547659 166.268085 
L 333.168 166.268085 
L 333.168 166.268085 
" style="fill:none;stroke:#ff00ff;stroke-linecap:square;stroke-width:1.5;"/>
   </g>
   <g id="line2d_49">
    <defs>
     <path d="M -0 8.485281 
L 5.091169 0 
L 0 -8.485281 
L -5.091169 -0 
z
" id="m5168dc2f4a" style="stroke:#ff00ff;stroke-linejoin:miter;stroke-width:1.5;"/>
    </defs>
    <g>
     <use style="fill-opacity:0;stroke:#ff00ff;stroke-linejoin:miter;stroke-width:1.5;" x="129.867125" xlink:href="#m5168dc2f4a" y="253.836024"/>
     <use style="fill-opacity:0;stroke:#ff00ff;stroke-linejoin:miter;stroke-width:1.5;" x="192.061931" xlink:href="#m5168dc2f4a" y="205.410841"/>
     <use style="fill-opacity:0;stroke:#ff00ff;stroke-linejoin:miter;stroke-width:1.5;" x="234.343409" xlink:href="#m5168dc2f4a" y="173.201944"/>
     <use style="fill-opacity:0;stroke:#ff00ff;stroke-linejoin:miter;stroke-width:1.5;" x="264.547659" xlink:href="#m5168dc2f4a" y="166.268085"/>
     <use style="fill-opacity:0;stroke:#ff00ff;stroke-linejoin:miter;stroke-width:1.5;" x="264.547659" xlink:href="#m5168dc2f4a" y="166.268085"/>
     <use style="fill-opacity:0;stroke:#ff00ff;stroke-linejoin:miter;stroke-width:1.5;" x="333.168" xlink:href="#m5168dc2f4a" y="166.268085"/>
    </g>
   </g>
   <g id="line2d_50">
    <path style="fill:none;stroke:#ff00ff;stroke-linecap:square;stroke-width:1.5;"/>
    <g/>
   </g>
   <g id="line2d_51">
    <path clip-path="url(#peed23ce457)" d="M 186.941843 211.002664 
" style="fill:none;stroke:#ff00ff;stroke-linecap:square;stroke-width:1.5;"/>
    <defs>
     <path d="M -12 12 
L 12 -12 
M -12 -12 
L 12 12 
" id="m2cb590676f" style="stroke:#ff00ff;"/>
    </defs>
    <g clip-path="url(#peed23ce457)">
     <use style="fill:#ff00ff;stroke:#ff00ff;" x="186.941843" xlink:href="#m2cb590676f" y="211.002664"/>
    </g>
   </g>
   <g id="line2d_52">
    <path d="M 333.168 181.925187 
L 363.64328 289.176341 
" style="fill:none;stroke:#000080;stroke-linecap:square;stroke-width:1.5;"/>
    <g>
     <use style="fill-opacity:0;stroke:#000080;stroke-width:1.5;" x="333.168" xlink:href="#m5472704615" y="181.925187"/>
     <use style="fill-opacity:0;stroke:#000080;stroke-width:1.5;" x="363.64328" xlink:href="#m5472704615" y="289.176341"/>
    </g>
   </g>
   <g id="line2d_53">
    <path d="M 333.168 166.268085 
L 363.64328 152.288529 
" style="fill:none;stroke:#ff00ff;stroke-linecap:square;stroke-width:1.5;"/>
    <g>
     <use style="fill-opacity:0;stroke:#ff00ff;stroke-linejoin:miter;stroke-width:1.5;" x="333.168" xlink:href="#m5168dc2f4a" y="166.268085"/>
     <use style="fill-opacity:0;stroke:#ff00ff;stroke-linejoin:miter;stroke-width:1.5;" x="363.64328" xlink:href="#m5168dc2f4a" y="152.288529"/>
    </g>
   </g>
   <g id="line2d_54">
    <path d="M 333.168 294.88 
L 333.168 9.697057 
" style="fill:none;stroke:#000000;stroke-linecap:square;stroke-width:1.5;"/>
   </g>
   <g id="patch_3">
    <path d="M 56.12 294.88 
L 56.12 6.845228 
" style="fill:none;stroke:#000000;stroke-linecap:square;stroke-linejoin:miter;stroke-width:0.8;"/>
   </g>
   <g id="patch_4">
    <path d="M 333.168 294.88 
L 333.168 6.845228 
" style="fill:none;stroke:#000000;stroke-linecap:square;stroke-linejoin:miter;stroke-width:0.8;"/>
   </g>
   <g id="patch_5">
    <path d="M 56.12 294.88 
L 333.168 294.88 
" style="fill:none;stroke:#000000;stroke-linecap:square;stroke-linejoin:miter;stroke-width:0.8;"/>
   </g>
   <g id="patch_6">
    <path d="M 56.12 6.845228 
L 333.168 6.845228 
" style="fill:none;stroke:#000000;stroke-linecap:square;stroke-linejoin:miter;stroke-width:0.8;"/>
   </g>
   <g id="text_13">
    <!-- PSO1 -->
    <defs>
     <path d="M 19.671875 64.796875 
L 19.671875 37.40625 
L 32.078125 37.40625 
Q 38.96875 37.40625 42.71875 40.96875 
Q 46.484375 44.53125 46.484375 51.125 
Q 46.484375 57.671875 42.71875 61.234375 
Q 38.96875 64.796875 32.078125 64.796875 
z
M 9.8125 72.90625 
L 32.078125 72.90625 
Q 44.34375 72.90625 50.609375 67.359375 
Q 56.890625 61.8125 56.890625 51.125 
Q 56.890625 40.328125 50.609375 34.8125 
Q 44.34375 29.296875 32.078125 29.296875 
L 19.671875 29.296875 
L 19.671875 0 
L 9.8125 0 
z
" id="DejaVuSans-50"/>
     <path d="M 53.515625 70.515625 
L 53.515625 60.890625 
Q 47.90625 63.578125 42.921875 64.890625 
Q 37.9375 66.21875 33.296875 66.21875 
Q 25.25 66.21875 20.875 63.09375 
Q 16.5 59.96875 16.5 54.203125 
Q 16.5 49.359375 19.40625 46.890625 
Q 22.3125 44.4375 30.421875 42.921875 
L 36.375 41.703125 
Q 47.40625 39.59375 52.65625 34.296875 
Q 57.90625 29 57.90625 20.125 
Q 57.90625 9.515625 50.796875 4.046875 
Q 43.703125 -1.421875 29.984375 -1.421875 
Q 24.8125 -1.421875 18.96875 -0.25 
Q 13.140625 0.921875 6.890625 3.21875 
L 6.890625 13.375 
Q 12.890625 10.015625 18.65625 8.296875 
Q 24.421875 6.59375 29.984375 6.59375 
Q 38.421875 6.59375 43.015625 9.90625 
Q 47.609375 13.234375 47.609375 19.390625 
Q 47.609375 24.75 44.3125 27.78125 
Q 41.015625 30.8125 33.5 32.328125 
L 27.484375 33.5 
Q 16.453125 35.6875 11.515625 40.375 
Q 6.59375 45.0625 6.59375 53.421875 
Q 6.59375 63.09375 13.40625 68.65625 
Q 20.21875 74.21875 32.171875 74.21875 
Q 37.3125 74.21875 42.625 73.28125 
Q 47.953125 72.359375 53.515625 70.515625 
z
" id="DejaVuSans-53"/>
     <path d="M 39.40625 66.21875 
Q 28.65625 66.21875 22.328125 58.203125 
Q 16.015625 50.203125 16.015625 36.375 
Q 16.015625 22.609375 22.328125 14.59375 
Q 28.65625 6.59375 39.40625 6.59375 
Q 50.140625 6.59375 56.421875 14.59375 
Q 62.703125 22.609375 62.703125 36.375 
Q 62.703125 50.203125 56.421875 58.203125 
Q 50.140625 66.21875 39.40625 66.21875 
z
M 39.40625 74.21875 
Q 54.734375 74.21875 63.90625 63.9375 
Q 73.09375 53.65625 73.09375 36.375 
Q 73.09375 19.140625 63.90625 8.859375 
Q 54.734375 -1.421875 39.40625 -1.421875 
Q 24.03125 -1.421875 14.8125 8.828125 
Q 5.609375 19.09375 5.609375 36.375 
Q 5.609375 53.65625 14.8125 63.9375 
Q 24.03125 74.21875 39.40625 74.21875 
z
" id="DejaVuSans-4f"/>
    </defs>
    <g transform="translate(369.18424 293.867279)scale(0.17 -0.17)">
     <use xlink:href="#DejaVuSans-50"/>
     <use x="60.302734" xlink:href="#DejaVuSans-53"/>
     <use x="123.779297" xlink:href="#DejaVuSans-4f"/>
     <use x="202.490234" xlink:href="#DejaVuSans-31"/>
    </g>
   </g>
   <g id="text_14">
    <!-- PSO2 -->
    <g transform="translate(369.18424 156.979466)scale(0.17 -0.17)">
     <use xlink:href="#DejaVuSans-50"/>
     <use x="60.302734" xlink:href="#DejaVuSans-53"/>
     <use x="123.779297" xlink:href="#DejaVuSans-4f"/>
     <use x="202.490234" xlink:href="#DejaVuSans-32"/>
    </g>
   </g>
   <g id="text_15">
    <!-- best 2009 -->
    <defs>
     <path d="M 48.6875 27.296875 
Q 48.6875 37.203125 44.609375 42.84375 
Q 40.53125 48.484375 33.40625 48.484375 
Q 26.265625 48.484375 22.1875 42.84375 
Q 18.109375 37.203125 18.109375 27.296875 
Q 18.109375 17.390625 22.1875 11.75 
Q 26.265625 6.109375 33.40625 6.109375 
Q 40.53125 6.109375 44.609375 11.75 
Q 48.6875 17.390625 48.6875 27.296875 
z
M 18.109375 46.390625 
Q 20.953125 51.265625 25.265625 53.625 
Q 29.59375 56 35.59375 56 
Q 45.5625 56 51.78125 48.09375 
Q 58.015625 40.1875 58.015625 27.296875 
Q 58.015625 14.40625 51.78125 6.484375 
Q 45.5625 -1.421875 35.59375 -1.421875 
Q 29.59375 -1.421875 25.265625 0.953125 
Q 20.953125 3.328125 18.109375 8.203125 
L 18.109375 0 
L 9.078125 0 
L 9.078125 75.984375 
L 18.109375 75.984375 
z
" id="DejaVuSans-62"/>
     <path d="M 10.984375 1.515625 
L 10.984375 10.5 
Q 14.703125 8.734375 18.5 7.8125 
Q 22.3125 6.890625 25.984375 6.890625 
Q 35.75 6.890625 40.890625 13.453125 
Q 46.046875 20.015625 46.78125 33.40625 
Q 43.953125 29.203125 39.59375 26.953125 
Q 35.25 24.703125 29.984375 24.703125 
Q 19.046875 24.703125 12.671875 31.3125 
Q 6.296875 37.9375 6.296875 49.421875 
Q 6.296875 60.640625 12.9375 67.421875 
Q 19.578125 74.21875 30.609375 74.21875 
Q 43.265625 74.21875 49.921875 64.515625 
Q 56.59375 54.828125 56.59375 36.375 
Q 56.59375 19.140625 48.40625 8.859375 
Q 40.234375 -1.421875 26.421875 -1.421875 
Q 22.703125 -1.421875 18.890625 -0.6875 
Q 15.09375 0.046875 10.984375 1.515625 
z
M 30.609375 32.421875 
Q 37.25 32.421875 41.125 36.953125 
Q 45.015625 41.5 45.015625 49.421875 
Q 45.015625 57.28125 41.125 61.84375 
Q 37.25 66.40625 30.609375 66.40625 
Q 23.96875 66.40625 20.09375 61.84375 
Q 16.21875 57.28125 16.21875 49.421875 
Q 16.21875 41.5 20.09375 36.953125 
Q 23.96875 32.421875 30.609375 32.421875 
z
" id="DejaVuSans-39"/>
    </defs>
    <g transform="translate(369.18424 20.091654)scale(0.17 -0.17)">
     <use xlink:href="#DejaVuSans-62"/>
     <use x="63.476562" xlink:href="#DejaVuSans-65"/>
     <use x="125" xlink:href="#DejaVuSans-73"/>
     <use x="177.099609" xlink:href="#DejaVuSans-74"/>
     <use x="216.308594" xlink:href="#DejaVuSans-20"/>
     <use x="248.095703" xlink:href="#DejaVuSans-32"/>
     <use x="311.71875" xlink:href="#DejaVuSans-30"/>
     <use x="375.341797" xlink:href="#DejaVuSans-30"/>
     <use x="438.964844" xlink:href="#DejaVuSans-39"/>
    </g>
   </g>
   <g id="text_16">
    <!-- bbob f15-f19, 5-D -->
    <defs>
     <path d="M 10.796875 72.90625 
L 49.515625 72.90625 
L 49.515625 64.59375 
L 19.828125 64.59375 
L 19.828125 46.734375 
Q 21.96875 47.46875 24.109375 47.828125 
Q 26.265625 48.1875 28.421875 48.1875 
Q 40.625 48.1875 47.75 41.5 
Q 54.890625 34.8125 54.890625 23.390625 
Q 54.890625 11.625 47.5625 5.09375 
Q 40.234375 -1.421875 26.90625 -1.421875 
Q 22.3125 -1.421875 17.546875 -0.640625 
Q 12.796875 0.140625 7.71875 1.703125 
L 7.71875 11.625 
Q 12.109375 9.234375 16.796875 8.0625 
Q 21.484375 6.890625 26.703125 6.890625 
Q 35.15625 6.890625 40.078125 11.328125 
Q 45.015625 15.765625 45.015625 23.390625 
Q 45.015625 31 40.078125 35.4375 
Q 35.15625 39.890625 26.703125 39.890625 
Q 22.75 39.890625 18.8125 39.015625 
Q 14.890625 38.140625 10.796875 36.28125 
z
" id="DejaVuSans-35"/>
     <path d="M 19.671875 64.796875 
L 19.671875 8.109375 
L 31.59375 8.109375 
Q 46.6875 8.109375 53.6875 14.9375 
Q 60.6875 21.78125 60.6875 36.53125 
Q 60.6875 51.171875 53.6875 57.984375 
Q 46.6875 64.796875 31.59375 64.796875 
z
M 9.8125 72.90625 
L 30.078125 72.90625 
Q 51.265625 72.90625 61.171875 64.09375 
Q 71.09375 55.28125 71.09375 36.53125 
Q 71.09375 17.671875 61.125 8.828125 
Q 51.171875 0 30.078125 0 
L 9.8125 0 
z
" id="DejaVuSans-44"/>
    </defs>
    <g transform="translate(58.89048 17.475982)scale(0.102 -0.102)">
     <use xlink:href="#DejaVuSans-62"/>
     <use x="63.476562" xlink:href="#DejaVuSans-62"/>
     <use x="126.953125" xlink:href="#DejaVuSans-6f"/>
     <use x="188.134766" xlink:href="#DejaVuSans-62"/>
     <use x="251.611328" xlink:href="#DejaVuSans-20"/>
     <use x="283.398438" xlink:href="#DejaVuSans-66"/>
     <use x="318.603516" xlink:href="#DejaVuSans-31"/>
     <use x="382.226562" xlink:href="#DejaVuSans-35"/>
     <use x="445.849609" xlink:href="#DejaVuSans-2d"/>
     <use x="481.933594" xlink:href="#DejaVuSans-66"/>
     <use x="517.138672" xlink:href="#DejaVuSans-31"/>
     <use x="580.761719" xlink:href="#DejaVuSans-39"/>
     <use x="644.384766" xlink:href="#DejaVuSans-2c"/>
     <use x="676.171875" xlink:href="#DejaVuSans-20"/>
     <use x="707.958984" xlink:href="#DejaVuSans-35"/>
     <use x="771.582031" xlink:href="#DejaVuSans-2d"/>
     <use x="807.666016" xlink:href="#DejaVuSans-44"/>
    </g>
    <!-- 51 targets: 100..1e-08 -->
    <defs>
     <path d="M 11.71875 12.40625 
L 22.015625 12.40625 
L 22.015625 0 
L 11.71875 0 
z
M 11.71875 51.703125 
L 22.015625 51.703125 
L 22.015625 39.3125 
L 11.71875 39.3125 
z
" id="DejaVuSans-3a"/>
    </defs>
    <g transform="translate(58.89048 28.89775)scale(0.102 -0.102)">
     <use xlink:href="#DejaVuSans-35"/>
     <use x="63.623047" xlink:href="#DejaVuSans-31"/>
     <use x="127.246094" xlink:href="#DejaVuSans-20"/>
     <use x="159.033203" xlink:href="#DejaVuSans-74"/>
     <use x="198.242188" xlink:href="#DejaVuSans-61"/>
     <use x="259.521484" xlink:href="#DejaVuSans-72"/>
     <use x="300.619141" xlink:href="#DejaVuSans-67"/>
     <use x="364.095703" xlink:href="#DejaVuSans-65"/>
     <use x="425.619141" xlink:href="#DejaVuSans-74"/>
     <use x="464.828125" xlink:href="#DejaVuSans-73"/>
     <use x="516.927734" xlink:href="#DejaVuSans-3a"/>
     <use x="550.619141" xlink:href="#DejaVuSans-20"/>
     <use x="582.40625" xlink:href="#DejaVuSans-31"/>
     <use x="646.029297" xlink:href="#DejaVuSans-30"/>
     <use x="709.652344" xlink:href="#DejaVuSans-30"/>
     <use x="773.275391" xlink:href="#DejaVuSans-2e"/>
     <use x="805.0625" xlink:href="#DejaVuSans-2e"/>
     <use x="836.849609" xlink:href="#DejaVuSans-31"/>
     <use x="900.472656" xlink:href="#DejaVuSans-65"/>
     <use x="961.996094" xlink:href="#DejaVuSans-2d"/>
     <use x="998.080078" xlink:href="#DejaVuSans-30"/>
     <use x="1061.703125" xlink:href="#DejaVuSans-38"/>
    </g>
    <!-- 15 instances -->
    <g transform="translate(58.89048 40.319519)scale(0.102 -0.102)">
     <use xlink:href="#DejaVuSans-31"/>
     <use x="63.623047" xlink:href="#DejaVuSans-35"/>
     <use x="127.246094" xlink:href="#DejaVuSans-20"/>
     <use x="159.033203" xlink:href="#DejaVuSans-69"/>
     <use x="186.816406" xlink:href="#DejaVuSans-6e"/>
     <use x="250.195312" xlink:href="#DejaVuSans-73"/>
     <use x="302.294922" xlink:href="#DejaVuSans-74"/>
     <use x="341.503906" xlink:href="#DejaVuSans-61"/>
     <use x="402.783203" xlink:href="#DejaVuSans-6e"/>
     <use x="466.162109" xlink:href="#DejaVuSans-63"/>
     <use x="521.142578" xlink:href="#DejaVuSans-65"/>
     <use x="582.666016" xlink:href="#DejaVuSans-73"/>
    </g>
   </g>
   <g id="text_17">
    <!-- v0.0.0 -->
    <g style="fill:#808080;" transform="translate(178.96275 289.919965)scale(0.1 -0.1)">
     <use xlink:href="#DejaVuSans-76"/>
     <use x="59.179688" xlink:href="#DejaVuSans-30"/>
     <use x="122.802734" xlink:href="#DejaVuSans-2e"/>
     <use x="154.589844" xlink:href="#DejaVuSans-30"/>
     <use x="218.212891" xlink:href="#DejaVuSans-2e"/>
     <use x="250" xlink:href="#DejaVuSans-30"/>
    </g>
   </g>
  </g>
 </g>
 <defs>
  <clipPath id="peed23ce457">
   <rect height="288.034772" width="277.048" x="56.12" y="6.845228"/>
  </clipPath>
 </defs>
</svg>
