<?xml version="1.0" encoding="utf-8" standalone="no"?>
<!DOCTYPE svg PUBLIC "-//W3C//DTD SVG 1.1//EN"
  "http://www.w3.org/Graphics/SVG/1.1/DTD/svg11.dtd">
<!-- Created with matplotlib (http://matplotlib.org/) -->
<svg height="345.6pt" version="1.1" viewBox="0 0 460.8 345.6" width="460.8pt" xmlns="http://www.w3.org/2000/svg" xmlns:xlink="http://www.w3.org/1999/xlink">
 <defs>
  <style type="text/css">
*{stroke-linecap:butt;stroke-linejoin:round;}
  </style>
 </defs>
 <g id="figure_1">
  <g id="patch_1">
   <path d="M 0 345.6 
L 460.8 345.6 
L 460.8 0 
L 0 0 
z
" style="fill:#ffffff;"/>
  </g>
  <g id="axes_1">
   <g id="patch_2">
    <path d="M 56.12 294.88 
L 333.168 294.88 
L 333.168 6.845228 
L 56.12 6.845228 
z
" style="fill:#ffffff;"/>
   </g>
   <g id="line2d_1">
    <path d="M 16.541714 294.88 
L 16.541714 293.761636 
L 35.425356 293.761636 
L 35.425356 292.643271 
L 52.284468 292.643271 
L 52.284468 291.524907 
L 64.198719 291.524907 
L 64.198719 289.288178 
L 67.15259 289.288178 
L 67.15259 288.169813 
L 68.034251 288.169813 
L 68.034251 233.369954 
L 69.672503 233.369954 
L 69.672503 227.778131 
L 70.436568 227.778131 
L 70.436568 180.806823 
L 89.320209 180.806823 
L 89.320209 179.688458 
L 95.351029 179.688458 
L 95.351029 178.570094 
L 101.358566 178.570094 
L 101.358566 177.451729 
L 102.320419 177.451729 
L 102.320419 176.333365 
L 106.272485 176.333365 
L 106.365146 170.741543 
L 106.45731 170.741543 
L 106.45731 169.623178 
L 106.64017 169.623178 
L 106.730875 162.912991 
L 106.821105 162.912991 
L 106.910863 148.374253 
L 107.000154 148.374253 
L 107.088985 129.362057 
L 107.177358 129.362057 
L 107.26528 119.296776 
L 119.003236 119.296776 
L 119.003236 118.178412 
L 132.563791 118.178412 
L 132.563791 117.060047 
L 137.362107 117.060047 
L 137.362107 115.941683 
L 141.388408 115.941683 
L 141.388408 114.823318 
L 141.55622 114.823318 
L 141.55622 113.704954 
L 144.787217 113.704954 
L 144.787217 112.586589 
L 144.983773 112.586589 
L 144.983773 111.468225 
L 146.453301 111.468225 
L 146.453301 110.349861 
L 149.092685 110.349861 
L 149.092685 109.231496 
L 151.081271 109.231496 
L 151.081271 108.113132 
L 151.995456 108.113132 
L 151.995456 106.994767 
L 154.696079 106.994767 
L 154.696079 105.876403 
L 157.23668 105.876403 
L 157.346511 95.811122 
L 157.365541 95.811122 
L 157.46983 84.627477 
L 157.484002 84.627477 
L 157.59227 47.72145 
L 157.653165 47.72145 
L 157.741778 43.247992 
L 157.77431 43.247992 
L 157.79751 37.656169 
L 157.92225 37.656169 
L 158.032375 24.235795 
L 158.078053 24.235795 
L 158.105402 18.643973 
L 193.01652 18.643973 
L 193.01891 9.697057 
L 333.168 9.697057 
L 333.168 9.697057 
" style="fill:none;stroke:#f5deb3;stroke-linecap:square;stroke-width:4;"/>
   </g>
   <g id="line2d_2">
    <defs>
     <path d="M -0 7.778175 
L 7.778175 0 
L 0 -7.778175 
L -7.778175 -0 
z
" id="m273374795f" style="stroke:#f5deb3;stroke-linejoin:miter;stroke-width:1.5;"/>
    </defs>
    <g>
     <use style="fill:#f5deb3;stroke:#f5deb3;stroke-linejoin:miter;stroke-width:1.5;" x="70.436568" xlink:href="#m273374795f" y="227.778131"/>
     <use style="fill:#f5deb3;stroke:#f5deb3;stroke-linejoin:miter;stroke-width:1.5;" x="157.332225" xlink:href="#m273374795f" y="99.166216"/>
     <use style="fill:#f5deb3;stroke:#f5deb3;stroke-linejoin:miter;stroke-width:1.5;" x="193.01891" xlink:href="#m273374795f" y="11.933786"/>
     <use style="fill:#f5deb3;stroke:#f5deb3;stroke-linejoin:miter;stroke-width:1.5;" x="193.01891" xlink:href="#m273374795f" y="9.697057"/>
     <use style="fill:#f5deb3;stroke:#f5deb3;stroke-linejoin:miter;stroke-width:1.5;" x="193.01891" xlink:href="#m273374795f" y="9.697057"/>
     <use style="fill:#f5deb3;stroke:#f5deb3;stroke-linejoin:miter;stroke-width:1.5;" x="333.168" xlink:href="#m273374795f" y="9.697057"/>
    </g>
   </g>
   <g id="line2d_3">
    <path style="fill:none;stroke:#f5deb3;stroke-linecap:square;stroke-width:4;"/>
    <g/>
   </g>
   <g id="line2d_4">
    <path d="M 333.168 9.697057 
L 363.64328 15.400716 
" style="fill:none;stroke:#f5deb3;stroke-linecap:square;stroke-width:4;"/>
    <g>
     <use style="fill:#f5deb3;stroke:#f5deb3;stroke-linejoin:miter;stroke-width:1.5;" x="333.168" xlink:href="#m273374795f" y="9.697057"/>
     <use style="fill:#f5deb3;stroke:#f5deb3;stroke-linejoin:miter;stroke-width:1.5;" x="363.64328" xlink:href="#m273374795f" y="15.400716"/>
    </g>
   </g>
   <g id="matplotlib.axis_1">
    <g id="xtick_1">
     <g id="line2d_5">
      <path clip-path="url(#p5a609e1648)" d="M 56.12 294.88 
L 56.12 6.845228 
" style="fill:none;stroke:#b0b0b0;stroke-linecap:square;stroke-width:0.8;"/>
     </g>
     <g id="line2d_6">
      <defs>
       <path d="M 0 0 
L 0 3.5 
" id="m947450a86b" style="stroke:#000000;stroke-width:0.8;"/>
      </defs>
      <g>
       <use style="stroke:#000000;stroke-width:0.8;" x="56.12" xlink:href="#m947450a86b" y="294.88"/>
      </g>
     </g>
     <g id="text_1">
      <!-- 0 -->
      <defs>
       <path d="M 31.78125 66.40625 
Q 24.171875 66.40625 20.328125 58.90625 
Q 16.5 51.421875 16.5 36.375 
Q 16.5 21.390625 20.328125 13.890625 
Q 24.171875 6.390625 31.78125 6.390625 
Q 39.453125 6.390625 43.28125 13.890625 
Q 47.125 21.390625 47.125 36.375 
Q 47.125 51.421875 43.28125 58.90625 
Q 39.453125 66.40625 31.78125 66.40625 
z
M 31.78125 74.21875 
Q 44.046875 74.21875 50.515625 64.515625 
Q 56.984375 54.828125 56.984375 36.375 
Q 56.984375 17.96875 50.515625 8.265625 
Q 44.046875 -1.421875 31.78125 -1.421875 
Q 19.53125 -1.421875 13.0625 8.265625 
Q 6.59375 17.96875 6.59375 36.375 
Q 6.59375 54.828125 13.0625 64.515625 
Q 19.53125 74.21875 31.78125 74.21875 
z
" id="DejaVuSans-30"/>
      </defs>
      <g transform="translate(49.7575 317.076875)scale(0.2 -0.2)">
       <use xlink:href="#DejaVuSans-30"/>
      </g>
     </g>
    </g>
    <g id="xtick_2">
     <g id="line2d_7">
      <path clip-path="url(#p5a609e1648)" d="M 135.276571 294.88 
L 135.276571 6.845228 
" style="fill:none;stroke:#b0b0b0;stroke-linecap:square;stroke-width:0.8;"/>
     </g>
     <g id="line2d_8">
      <g>
       <use style="stroke:#000000;stroke-width:0.8;" x="135.276571" xlink:href="#m947450a86b" y="294.88"/>
      </g>
     </g>
     <g id="text_2">
      <!-- 2 -->
      <defs>
       <path d="M 19.1875 8.296875 
L 53.609375 8.296875 
L 53.609375 0 
L 7.328125 0 
L 7.328125 8.296875 
Q 12.9375 14.109375 22.625 23.890625 
Q 32.328125 33.6875 34.8125 36.53125 
Q 39.546875 41.84375 41.421875 45.53125 
Q 43.3125 49.21875 43.3125 52.78125 
Q 43.3125 58.59375 39.234375 62.25 
Q 35.15625 65.921875 28.609375 65.921875 
Q 23.96875 65.921875 18.8125 64.3125 
Q 13.671875 62.703125 7.8125 59.421875 
L 7.8125 69.390625 
Q 13.765625 71.78125 18.9375 73 
Q 24.125 74.21875 28.421875 74.21875 
Q 39.75 74.21875 46.484375 68.546875 
Q 53.21875 62.890625 53.21875 53.421875 
Q 53.21875 48.921875 51.53125 44.890625 
Q 49.859375 40.875 45.40625 35.40625 
Q 44.1875 33.984375 37.640625 27.21875 
Q 31.109375 20.453125 19.1875 8.296875 
z
" id="DejaVuSans-32"/>
      </defs>
      <g transform="translate(128.914071 317.076875)scale(0.2 -0.2)">
       <use xlink:href="#DejaVuSans-32"/>
      </g>
     </g>
    </g>
    <g id="xtick_3">
     <g id="line2d_9">
      <path clip-path="url(#p5a609e1648)" d="M 214.433143 294.88 
L 214.433143 6.845228 
" style="fill:none;stroke:#b0b0b0;stroke-linecap:square;stroke-width:0.8;"/>
     </g>
     <g id="line2d_10">
      <g>
       <use style="stroke:#000000;stroke-width:0.8;" x="214.433143" xlink:href="#m947450a86b" y="294.88"/>
      </g>
     </g>
     <g id="text_3">
      <!-- 4 -->
      <defs>
       <path d="M 37.796875 64.3125 
L 12.890625 25.390625 
L 37.796875 25.390625 
z
M 35.203125 72.90625 
L 47.609375 72.90625 
L 47.609375 25.390625 
L 58.015625 25.390625 
L 58.015625 17.1875 
L 47.609375 17.1875 
L 47.609375 0 
L 37.796875 0 
L 37.796875 17.1875 
L 4.890625 17.1875 
L 4.890625 26.703125 
z
" id="DejaVuSans-34"/>
      </defs>
      <g transform="translate(208.070643 317.076875)scale(0.2 -0.2)">
       <use xlink:href="#DejaVuSans-34"/>
      </g>
     </g>
    </g>
    <g id="xtick_4">
     <g id="line2d_11">
      <path clip-path="url(#p5a609e1648)" d="M 293.589714 294.88 
L 293.589714 6.845228 
" style="fill:none;stroke:#b0b0b0;stroke-linecap:square;stroke-width:0.8;"/>
     </g>
     <g id="line2d_12">
      <g>
       <use style="stroke:#000000;stroke-width:0.8;" x="293.589714" xlink:href="#m947450a86b" y="294.88"/>
      </g>
     </g>
     <g id="text_4">
      <!-- 6 -->
      <defs>
       <path d="M 33.015625 40.375 
Q 26.375 40.375 22.484375 35.828125 
Q 18.609375 31.296875 18.609375 23.390625 
Q 18.609375 15.53125 22.484375 10.953125 
Q 26.375 6.390625 33.015625 6.390625 
Q 39.65625 6.390625 43.53125 10.953125 
Q 47.40625 15.53125 47.40625 23.390625 
Q 47.40625 31.296875 43.53125 35.828125 
Q 39.65625 40.375 33.015625 40.375 
z
M 52.59375 71.296875 
L 52.59375 62.3125 
Q 48.875 64.0625 45.09375 64.984375 
Q 41.3125 65.921875 37.59375 65.921875 
Q 27.828125 65.921875 22.671875 59.328125 
Q 17.53125 52.734375 16.796875 39.40625 
Q 19.671875 43.65625 24.015625 45.921875 
Q 28.375 48.1875 33.59375 48.1875 
Q 44.578125 48.1875 50.953125 41.515625 
Q 57.328125 34.859375 57.328125 23.390625 
Q 57.328125 12.15625 50.6875 5.359375 
Q 44.046875 -1.421875 33.015625 -1.421875 
Q 20.359375 -1.421875 13.671875 8.265625 
Q 6.984375 17.96875 6.984375 36.375 
Q 6.984375 53.65625 15.1875 63.9375 
Q 23.390625 74.21875 37.203125 74.21875 
Q 40.921875 74.21875 44.703125 73.484375 
Q 48.484375 72.75 52.59375 71.296875 
z
" id="DejaVuSans-36"/>
      </defs>
      <g transform="translate(287.227214 317.076875)scale(0.2 -0.2)">
       <use xlink:href="#DejaVuSans-36"/>
      </g>
     </g>
    </g>
    <g id="xtick_5">
     <g id="line2d_13">
      <path clip-path="url(#p5a609e1648)" d="M 56.12 294.88 
L 56.12 6.845228 
" style="fill:none;stroke:#b0b0b0;stroke-linecap:square;stroke-width:0.8;"/>
     </g>
     <g id="line2d_14">
      <defs>
       <path d="M 0 0 
L 0 2 
" id="m41ccbb9317" style="stroke:#000000;stroke-width:0.6;"/>
      </defs>
      <g>
       <use style="stroke:#000000;stroke-width:0.6;" x="56.12" xlink:href="#m41ccbb9317" y="294.88"/>
      </g>
     </g>
    </g>
    <g id="xtick_6">
     <g id="line2d_15">
      <path clip-path="url(#p5a609e1648)" d="M 95.698286 294.88 
L 95.698286 6.845228 
" style="fill:none;stroke:#b0b0b0;stroke-linecap:square;stroke-width:0.8;"/>
     </g>
     <g id="line2d_16">
      <g>
       <use style="stroke:#000000;stroke-width:0.6;" x="95.698286" xlink:href="#m41ccbb9317" y="294.88"/>
      </g>
     </g>
    </g>
    <g id="xtick_7">
     <g id="line2d_17">
      <path clip-path="url(#p5a609e1648)" d="M 135.276571 294.88 
L 135.276571 6.845228 
" style="fill:none;stroke:#b0b0b0;stroke-linecap:square;stroke-width:0.8;"/>
     </g>
     <g id="line2d_18">
      <g>
       <use style="stroke:#000000;stroke-width:0.6;" x="135.276571" xlink:href="#m41ccbb9317" y="294.88"/>
      </g>
     </g>
    </g>
    <g id="xtick_8">
     <g id="line2d_19">
      <path clip-path="url(#p5a609e1648)" d="M 174.854857 294.88 
L 174.854857 6.845228 
" style="fill:none;stroke:#b0b0b0;stroke-linecap:square;stroke-width:0.8;"/>
     </g>
     <g id="line2d_20">
      <g>
       <use style="stroke:#000000;stroke-width:0.6;" x="174.854857" xlink:href="#m41ccbb9317" y="294.88"/>
      </g>
     </g>
    </g>
    <g id="xtick_9">
     <g id="line2d_21">
      <path clip-path="url(#p5a609e1648)" d="M 214.433143 294.88 
L 214.433143 6.845228 
" style="fill:none;stroke:#b0b0b0;stroke-linecap:square;stroke-width:0.8;"/>
     </g>
     <g id="line2d_22">
      <g>
       <use style="stroke:#000000;stroke-width:0.6;" x="214.433143" xlink:href="#m41ccbb9317" y="294.88"/>
      </g>
     </g>
    </g>
    <g id="xtick_10">
     <g id="line2d_23">
      <path clip-path="url(#p5a609e1648)" d="M 254.011429 294.88 
L 254.011429 6.845228 
" style="fill:none;stroke:#b0b0b0;stroke-linecap:square;stroke-width:0.8;"/>
     </g>
     <g id="line2d_24">
      <g>
       <use style="stroke:#000000;stroke-width:0.6;" x="254.011429" xlink:href="#m41ccbb9317" y="294.88"/>
      </g>
     </g>
    </g>
    <g id="xtick_11">
     <g id="line2d_25">
      <path clip-path="url(#p5a609e1648)" d="M 293.589714 294.88 
L 293.589714 6.845228 
" style="fill:none;stroke:#b0b0b0;stroke-linecap:square;stroke-width:0.8;"/>
     </g>
     <g id="line2d_26">
      <g>
       <use style="stroke:#000000;stroke-width:0.6;" x="293.589714" xlink:href="#m41ccbb9317" y="294.88"/>
      </g>
     </g>
    </g>
    <g id="xtick_12">
     <g id="line2d_27">
      <path clip-path="url(#p5a609e1648)" d="M 333.168 294.88 
L 333.168 6.845228 
" style="fill:none;stroke:#b0b0b0;stroke-linecap:square;stroke-width:0.8;"/>
     </g>
     <g id="line2d_28">
      <g>
       <use style="stroke:#000000;stroke-width:0.6;" x="333.168" xlink:href="#m41ccbb9317" y="294.88"/>
      </g>
     </g>
    </g>
    <g id="text_5">
     <!-- log10(# f-evals / dimension) -->
     <defs>
      <path d="M 9.421875 75.984375 
L 18.40625 75.984375 
L 18.40625 0 
L 9.421875 0 
z
" id="DejaVuSans-6c"/>
      <path d="M 30.609375 48.390625 
Q 23.390625 48.390625 19.1875 42.75 
Q 14.984375 37.109375 14.984375 27.296875 
Q 14.984375 17.484375 19.15625 11.84375 
Q 23.34375 6.203125 30.609375 6.203125 
Q 37.796875 6.203125 41.984375 11.859375 
Q 46.1875 17.53125 46.1875 27.296875 
Q 46.1875 37.015625 41.984375 42.703125 
Q 37.796875 48.390625 30.609375 48.390625 
z
M 30.609375 56 
Q 42.328125 56 49.015625 48.375 
Q 55.71875 40.765625 55.71875 27.296875 
Q 55.71875 13.875 49.015625 6.21875 
Q 42.328125 -1.421875 30.609375 -1.421875 
Q 18.84375 -1.421875 12.171875 6.21875 
Q 5.515625 13.875 5.515625 27.296875 
Q 5.515625 40.765625 12.171875 48.375 
Q 18.84375 56 30.609375 56 
z
" id="DejaVuSans-6f"/>
      <path d="M 45.40625 27.984375 
Q 45.40625 37.75 41.375 43.109375 
Q 37.359375 48.484375 30.078125 48.484375 
Q 22.859375 48.484375 18.828125 43.109375 
Q 14.796875 37.75 14.796875 27.984375 
Q 14.796875 18.265625 18.828125 12.890625 
Q 22.859375 7.515625 30.078125 7.515625 
Q 37.359375 7.515625 41.375 12.890625 
Q 45.40625 18.265625 45.40625 27.984375 
z
M 54.390625 6.78125 
Q 54.390625 -7.171875 48.1875 -13.984375 
Q 42 -20.796875 29.203125 -20.796875 
Q 24.46875 -20.796875 20.265625 -20.09375 
Q 16.0625 -19.390625 12.109375 -17.921875 
L 12.109375 -9.1875 
Q 16.0625 -11.328125 19.921875 -12.34375 
Q 23.78125 -13.375 27.78125 -13.375 
Q 36.625 -13.375 41.015625 -8.765625 
Q 45.40625 -4.15625 45.40625 5.171875 
L 45.40625 9.625 
Q 42.625 4.78125 38.28125 2.390625 
Q 33.9375 0 27.875 0 
Q 17.828125 0 11.671875 7.65625 
Q 5.515625 15.328125 5.515625 27.984375 
Q 5.515625 40.671875 11.671875 48.328125 
Q 17.828125 56 27.875 56 
Q 33.9375 56 38.28125 53.609375 
Q 42.625 51.21875 45.40625 46.390625 
L 45.40625 54.6875 
L 54.390625 54.6875 
z
" id="DejaVuSans-67"/>
      <path d="M 12.40625 8.296875 
L 28.515625 8.296875 
L 28.515625 63.921875 
L 10.984375 60.40625 
L 10.984375 69.390625 
L 28.421875 72.90625 
L 38.28125 72.90625 
L 38.28125 8.296875 
L 54.390625 8.296875 
L 54.390625 0 
L 12.40625 0 
z
" id="DejaVuSans-31"/>
      <path d="M 31 75.875 
Q 24.46875 64.65625 21.28125 53.65625 
Q 18.109375 42.671875 18.109375 31.390625 
Q 18.109375 20.125 21.3125 9.0625 
Q 24.515625 -2 31 -13.1875 
L 23.1875 -13.1875 
Q 15.875 -1.703125 12.234375 9.375 
Q 8.59375 20.453125 8.59375 31.390625 
Q 8.59375 42.28125 12.203125 53.3125 
Q 15.828125 64.359375 23.1875 75.875 
z
" id="DejaVuSans-28"/>
      <path d="M 51.125 44 
L 36.921875 44 
L 32.8125 27.6875 
L 47.125 27.6875 
z
M 43.796875 71.78125 
L 38.71875 51.515625 
L 52.984375 51.515625 
L 58.109375 71.78125 
L 65.921875 71.78125 
L 60.890625 51.515625 
L 76.125 51.515625 
L 76.125 44 
L 58.984375 44 
L 54.984375 27.6875 
L 70.515625 27.6875 
L 70.515625 20.21875 
L 53.078125 20.21875 
L 48 0 
L 40.1875 0 
L 45.21875 20.21875 
L 30.90625 20.21875 
L 25.875 0 
L 18.015625 0 
L 23.09375 20.21875 
L 7.71875 20.21875 
L 7.71875 27.6875 
L 24.90625 27.6875 
L 29 44 
L 13.28125 44 
L 13.28125 51.515625 
L 30.90625 51.515625 
L 35.890625 71.78125 
z
" id="DejaVuSans-23"/>
      <path id="DejaVuSans-20"/>
      <path d="M 37.109375 75.984375 
L 37.109375 68.5 
L 28.515625 68.5 
Q 23.6875 68.5 21.796875 66.546875 
Q 19.921875 64.59375 19.921875 59.515625 
L 19.921875 54.6875 
L 34.71875 54.6875 
L 34.71875 47.703125 
L 19.921875 47.703125 
L 19.921875 0 
L 10.890625 0 
L 10.890625 47.703125 
L 2.296875 47.703125 
L 2.296875 54.6875 
L 10.890625 54.6875 
L 10.890625 58.5 
Q 10.890625 67.625 15.140625 71.796875 
Q 19.390625 75.984375 28.609375 75.984375 
z
" id="DejaVuSans-66"/>
      <path d="M 4.890625 31.390625 
L 31.203125 31.390625 
L 31.203125 23.390625 
L 4.890625 23.390625 
z
" id="DejaVuSans-2d"/>
      <path d="M 56.203125 29.59375 
L 56.203125 25.203125 
L 14.890625 25.203125 
Q 15.484375 15.921875 20.484375 11.0625 
Q 25.484375 6.203125 34.421875 6.203125 
Q 39.59375 6.203125 44.453125 7.46875 
Q 49.3125 8.734375 54.109375 11.28125 
L 54.109375 2.78125 
Q 49.265625 0.734375 44.1875 -0.34375 
Q 39.109375 -1.421875 33.890625 -1.421875 
Q 20.796875 -1.421875 13.15625 6.1875 
Q 5.515625 13.8125 5.515625 26.8125 
Q 5.515625 40.234375 12.765625 48.109375 
Q 20.015625 56 32.328125 56 
Q 43.359375 56 49.78125 48.890625 
Q 56.203125 41.796875 56.203125 29.59375 
z
M 47.21875 32.234375 
Q 47.125 39.59375 43.09375 43.984375 
Q 39.0625 48.390625 32.421875 48.390625 
Q 24.90625 48.390625 20.390625 44.140625 
Q 15.875 39.890625 15.1875 32.171875 
z
" id="DejaVuSans-65"/>
      <path d="M 2.984375 54.6875 
L 12.5 54.6875 
L 29.59375 8.796875 
L 46.6875 54.6875 
L 56.203125 54.6875 
L 35.6875 0 
L 23.484375 0 
z
" id="DejaVuSans-76"/>
      <path d="M 34.28125 27.484375 
Q 23.390625 27.484375 19.1875 25 
Q 14.984375 22.515625 14.984375 16.5 
Q 14.984375 11.71875 18.140625 8.90625 
Q 21.296875 6.109375 26.703125 6.109375 
Q 34.1875 6.109375 38.703125 11.40625 
Q 43.21875 16.703125 43.21875 25.484375 
L 43.21875 27.484375 
z
M 52.203125 31.203125 
L 52.203125 0 
L 43.21875 0 
L 43.21875 8.296875 
Q 40.140625 3.328125 35.546875 0.953125 
Q 30.953125 -1.421875 24.3125 -1.421875 
Q 15.921875 -1.421875 10.953125 3.296875 
Q 6 8.015625 6 15.921875 
Q 6 25.140625 12.171875 29.828125 
Q 18.359375 34.515625 30.609375 34.515625 
L 43.21875 34.515625 
L 43.21875 35.40625 
Q 43.21875 41.609375 39.140625 45 
Q 35.0625 48.390625 27.6875 48.390625 
Q 23 48.390625 18.546875 47.265625 
Q 14.109375 46.140625 10.015625 43.890625 
L 10.015625 52.203125 
Q 14.9375 54.109375 19.578125 55.046875 
Q 24.21875 56 28.609375 56 
Q 40.484375 56 46.34375 49.84375 
Q 52.203125 43.703125 52.203125 31.203125 
z
" id="DejaVuSans-61"/>
      <path d="M 44.28125 53.078125 
L 44.28125 44.578125 
Q 40.484375 46.53125 36.375 47.5 
Q 32.28125 48.484375 27.875 48.484375 
Q 21.1875 48.484375 17.84375 46.4375 
Q 14.5 44.390625 14.5 40.28125 
Q 14.5 37.15625 16.890625 35.375 
Q 19.28125 33.59375 26.515625 31.984375 
L 29.59375 31.296875 
Q 39.15625 29.25 43.1875 25.515625 
Q 47.21875 21.78125 47.21875 15.09375 
Q 47.21875 7.46875 41.1875 3.015625 
Q 35.15625 -1.421875 24.609375 -1.421875 
Q 20.21875 -1.421875 15.453125 -0.5625 
Q 10.6875 0.296875 5.421875 2 
L 5.421875 11.28125 
Q 10.40625 8.6875 15.234375 7.390625 
Q 20.0625 6.109375 24.8125 6.109375 
Q 31.15625 6.109375 34.5625 8.28125 
Q 37.984375 10.453125 37.984375 14.40625 
Q 37.984375 18.0625 35.515625 20.015625 
Q 33.0625 21.96875 24.703125 23.78125 
L 21.578125 24.515625 
Q 13.234375 26.265625 9.515625 29.90625 
Q 5.8125 33.546875 5.8125 39.890625 
Q 5.8125 47.609375 11.28125 51.796875 
Q 16.75 56 26.8125 56 
Q 31.78125 56 36.171875 55.265625 
Q 40.578125 54.546875 44.28125 53.078125 
z
" id="DejaVuSans-73"/>
      <path d="M 25.390625 72.90625 
L 33.6875 72.90625 
L 8.296875 -9.28125 
L 0 -9.28125 
z
" id="DejaVuSans-2f"/>
      <path d="M 45.40625 46.390625 
L 45.40625 75.984375 
L 54.390625 75.984375 
L 54.390625 0 
L 45.40625 0 
L 45.40625 8.203125 
Q 42.578125 3.328125 38.25 0.953125 
Q 33.9375 -1.421875 27.875 -1.421875 
Q 17.96875 -1.421875 11.734375 6.484375 
Q 5.515625 14.40625 5.515625 27.296875 
Q 5.515625 40.1875 11.734375 48.09375 
Q 17.96875 56 27.875 56 
Q 33.9375 56 38.25 53.625 
Q 42.578125 51.265625 45.40625 46.390625 
z
M 14.796875 27.296875 
Q 14.796875 17.390625 18.875 11.75 
Q 22.953125 6.109375 30.078125 6.109375 
Q 37.203125 6.109375 41.296875 11.75 
Q 45.40625 17.390625 45.40625 27.296875 
Q 45.40625 37.203125 41.296875 42.84375 
Q 37.203125 48.484375 30.078125 48.484375 
Q 22.953125 48.484375 18.875 42.84375 
Q 14.796875 37.203125 14.796875 27.296875 
z
" id="DejaVuSans-64"/>
      <path d="M 9.421875 54.6875 
L 18.40625 54.6875 
L 18.40625 0 
L 9.421875 0 
z
M 9.421875 75.984375 
L 18.40625 75.984375 
L 18.40625 64.59375 
L 9.421875 64.59375 
z
" id="DejaVuSans-69"/>
      <path d="M 52 44.1875 
Q 55.375 50.25 60.0625 53.125 
Q 64.75 56 71.09375 56 
Q 79.640625 56 84.28125 50.015625 
Q 88.921875 44.046875 88.921875 33.015625 
L 88.921875 0 
L 79.890625 0 
L 79.890625 32.71875 
Q 79.890625 40.578125 77.09375 44.375 
Q 74.3125 48.1875 68.609375 48.1875 
Q 61.625 48.1875 57.5625 43.546875 
Q 53.515625 38.921875 53.515625 30.90625 
L 53.515625 0 
L 44.484375 0 
L 44.484375 32.71875 
Q 44.484375 40.625 41.703125 44.40625 
Q 38.921875 48.1875 33.109375 48.1875 
Q 26.21875 48.1875 22.15625 43.53125 
Q 18.109375 38.875 18.109375 30.90625 
L 18.109375 0 
L 9.078125 0 
L 9.078125 54.6875 
L 18.109375 54.6875 
L 18.109375 46.1875 
Q 21.1875 51.21875 25.484375 53.609375 
Q 29.78125 56 35.6875 56 
Q 41.65625 56 45.828125 52.96875 
Q 50 49.953125 52 44.1875 
z
" id="DejaVuSans-6d"/>
      <path d="M 54.890625 33.015625 
L 54.890625 0 
L 45.90625 0 
L 45.90625 32.71875 
Q 45.90625 40.484375 42.875 44.328125 
Q 39.84375 48.1875 33.796875 48.1875 
Q 26.515625 48.1875 22.3125 43.546875 
Q 18.109375 38.921875 18.109375 30.90625 
L 18.109375 0 
L 9.078125 0 
L 9.078125 54.6875 
L 18.109375 54.6875 
L 18.109375 46.1875 
Q 21.34375 51.125 25.703125 53.5625 
Q 30.078125 56 35.796875 56 
Q 45.21875 56 50.046875 50.171875 
Q 54.890625 44.34375 54.890625 33.015625 
z
" id="DejaVuSans-6e"/>
      <path d="M 8.015625 75.875 
L 15.828125 75.875 
Q 23.140625 64.359375 26.78125 53.3125 
Q 30.421875 42.28125 30.421875 31.390625 
Q 30.421875 20.453125 26.78125 9.375 
Q 23.140625 -1.703125 15.828125 -13.1875 
L 8.015625 -13.1875 
Q 14.5 -2 17.703125 9.0625 
Q 20.90625 20.125 20.90625 31.390625 
Q 20.90625 42.671875 17.703125 53.65625 
Q 14.5 64.65625 8.015625 75.875 
z
" id="DejaVuSans-29"/>
     </defs>
     <g transform="translate(73.803219 338.153594)scale(0.17 -0.17)">
      <use xlink:href="#DejaVuSans-6c"/>
      <use x="27.783203" xlink:href="#DejaVuSans-6f"/>
      <use x="88.964844" xlink:href="#DejaVuSans-67"/>
      <use x="152.441406" xlink:href="#DejaVuSans-31"/>
      <use x="216.064453" xlink:href="#DejaVuSans-30"/>
      <use x="279.6875" xlink:href="#DejaVuSans-28"/>
      <use x="318.701172" xlink:href="#DejaVuSans-23"/>
      <use x="402.490234" xlink:href="#DejaVuSans-20"/>
      <use x="434.277344" xlink:href="#DejaVuSans-66"/>
      <use x="469.404297" xlink:href="#DejaVuSans-2d"/>
      <use x="505.488281" xlink:href="#DejaVuSans-65"/>
      <use x="567.011719" xlink:href="#DejaVuSans-76"/>
      <use x="626.191406" xlink:href="#DejaVuSans-61"/>
      <use x="687.470703" xlink:href="#DejaVuSans-6c"/>
      <use x="715.253906" xlink:href="#DejaVuSans-73"/>
      <use x="767.353516" xlink:href="#DejaVuSans-20"/>
      <use x="799.140625" xlink:href="#DejaVuSans-2f"/>
      <use x="832.832031" xlink:href="#DejaVuSans-20"/>
      <use x="864.619141" xlink:href="#DejaVuSans-64"/>
      <use x="928.095703" xlink:href="#DejaVuSans-69"/>
      <use x="955.878906" xlink:href="#DejaVuSans-6d"/>
      <use x="1053.291016" xlink:href="#DejaVuSans-65"/>
      <use x="1114.814453" xlink:href="#DejaVuSans-6e"/>
      <use x="1178.193359" xlink:href="#DejaVuSans-73"/>
      <use x="1230.292969" xlink:href="#DejaVuSans-69"/>
      <use x="1258.076172" xlink:href="#DejaVuSans-6f"/>
      <use x="1319.257812" xlink:href="#DejaVuSans-6e"/>
      <use x="1382.636719" xlink:href="#DejaVuSans-29"/>
     </g>
    </g>
   </g>
   <g id="matplotlib.axis_2">
    <g id="ytick_1">
     <g id="line2d_29">
      <path clip-path="url(#p5a609e1648)" d="M 56.12 294.88 
L 333.168 294.88 
" style="fill:none;stroke:#b0b0b0;stroke-linecap:square;stroke-width:0.8;"/>
     </g>
     <g id="line2d_30">
      <defs>
       <path d="M 0 0 
L -3.5 0 
" id="m8cc692be3e" style="stroke:#000000;stroke-width:0.8;"/>
      </defs>
      <g>
       <use style="stroke:#000000;stroke-width:0.8;" x="56.12" xlink:href="#m8cc692be3e" y="294.88"/>
      </g>
     </g>
     <g id="text_6">
      <!-- 0.0 -->
      <defs>
       <path d="M 10.6875 12.40625 
L 21 12.40625 
L 21 0 
L 10.6875 0 
z
" id="DejaVuSans-2e"/>
      </defs>
      <g transform="translate(23.675 300.95875)scale(0.16 -0.16)">
       <use xlink:href="#DejaVuSans-30"/>
       <use x="63.623047" xlink:href="#DejaVuSans-2e"/>
       <use x="95.410156" xlink:href="#DejaVuSans-30"/>
      </g>
     </g>
    </g>
    <g id="ytick_2">
     <g id="line2d_31">
      <path clip-path="url(#p5a609e1648)" d="M 56.12 237.843411 
L 333.168 237.843411 
" style="fill:none;stroke:#b0b0b0;stroke-linecap:square;stroke-width:0.8;"/>
     </g>
     <g id="line2d_32">
      <g>
       <use style="stroke:#000000;stroke-width:0.8;" x="56.12" xlink:href="#m8cc692be3e" y="237.843411"/>
      </g>
     </g>
     <g id="text_7">
      <!-- 0.2 -->
      <g transform="translate(23.675 243.922161)scale(0.16 -0.16)">
       <use xlink:href="#DejaVuSans-30"/>
       <use x="63.623047" xlink:href="#DejaVuSans-2e"/>
       <use x="95.410156" xlink:href="#DejaVuSans-32"/>
      </g>
     </g>
    </g>
    <g id="ytick_3">
     <g id="line2d_33">
      <path clip-path="url(#p5a609e1648)" d="M 56.12 180.806823 
L 333.168 180.806823 
" style="fill:none;stroke:#b0b0b0;stroke-linecap:square;stroke-width:0.8;"/>
     </g>
     <g id="line2d_34">
      <g>
       <use style="stroke:#000000;stroke-width:0.8;" x="56.12" xlink:href="#m8cc692be3e" y="180.806823"/>
      </g>
     </g>
     <g id="text_8">
      <!-- 0.4 -->
      <g transform="translate(23.675 186.885573)scale(0.16 -0.16)">
       <use xlink:href="#DejaVuSans-30"/>
       <use x="63.623047" xlink:href="#DejaVuSans-2e"/>
       <use x="95.410156" xlink:href="#DejaVuSans-34"/>
      </g>
     </g>
    </g>
    <g id="ytick_4">
     <g id="line2d_35">
      <path clip-path="url(#p5a609e1648)" d="M 56.12 123.770234 
L 333.168 123.770234 
" style="fill:none;stroke:#b0b0b0;stroke-linecap:square;stroke-width:0.8;"/>
     </g>
     <g id="line2d_36">
      <g>
       <use style="stroke:#000000;stroke-width:0.8;" x="56.12" xlink:href="#m8cc692be3e" y="123.770234"/>
      </g>
     </g>
     <g id="text_9">
      <!-- 0.6 -->
      <g transform="translate(23.675 129.848984)scale(0.16 -0.16)">
       <use xlink:href="#DejaVuSans-30"/>
       <use x="63.623047" xlink:href="#DejaVuSans-2e"/>
       <use x="95.410156" xlink:href="#DejaVuSans-36"/>
      </g>
     </g>
    </g>
    <g id="ytick_5">
     <g id="line2d_37">
      <path clip-path="url(#p5a609e1648)" d="M 56.12 66.733646 
L 333.168 66.733646 
" style="fill:none;stroke:#b0b0b0;stroke-linecap:square;stroke-width:0.8;"/>
     </g>
     <g id="line2d_38">
      <g>
       <use style="stroke:#000000;stroke-width:0.8;" x="56.12" xlink:href="#m8cc692be3e" y="66.733646"/>
      </g>
     </g>
     <g id="text_10">
      <!-- 0.8 -->
      <defs>
       <path d="M 31.78125 34.625 
Q 24.75 34.625 20.71875 30.859375 
Q 16.703125 27.09375 16.703125 20.515625 
Q 16.703125 13.921875 20.71875 10.15625 
Q 24.75 6.390625 31.78125 6.390625 
Q 38.8125 6.390625 42.859375 10.171875 
Q 46.921875 13.96875 46.921875 20.515625 
Q 46.921875 27.09375 42.890625 30.859375 
Q 38.875 34.625 31.78125 34.625 
z
M 21.921875 38.8125 
Q 15.578125 40.375 12.03125 44.71875 
Q 8.5 49.078125 8.5 55.328125 
Q 8.5 64.0625 14.71875 69.140625 
Q 20.953125 74.21875 31.78125 74.21875 
Q 42.671875 74.21875 48.875 69.140625 
Q 55.078125 64.0625 55.078125 55.328125 
Q 55.078125 49.078125 51.53125 44.71875 
Q 48 40.375 41.703125 38.8125 
Q 48.828125 37.15625 52.796875 32.3125 
Q 56.78125 27.484375 56.78125 20.515625 
Q 56.78125 9.90625 50.3125 4.234375 
Q 43.84375 -1.421875 31.78125 -1.421875 
Q 19.734375 -1.421875 13.25 4.234375 
Q 6.78125 9.90625 6.78125 20.515625 
Q 6.78125 27.484375 10.78125 32.3125 
Q 14.796875 37.15625 21.921875 38.8125 
z
M 18.3125 54.390625 
Q 18.3125 48.734375 21.84375 45.5625 
Q 25.390625 42.390625 31.78125 42.390625 
Q 38.140625 42.390625 41.71875 45.5625 
Q 45.3125 48.734375 45.3125 54.390625 
Q 45.3125 60.0625 41.71875 63.234375 
Q 38.140625 66.40625 31.78125 66.40625 
Q 25.390625 66.40625 21.84375 63.234375 
Q 18.3125 60.0625 18.3125 54.390625 
z
" id="DejaVuSans-38"/>
      </defs>
      <g transform="translate(23.675 72.812396)scale(0.16 -0.16)">
       <use xlink:href="#DejaVuSans-30"/>
       <use x="63.623047" xlink:href="#DejaVuSans-2e"/>
       <use x="95.410156" xlink:href="#DejaVuSans-38"/>
      </g>
     </g>
    </g>
    <g id="ytick_6">
     <g id="line2d_39">
      <path clip-path="url(#p5a609e1648)" d="M 56.12 9.697057 
L 333.168 9.697057 
" style="fill:none;stroke:#b0b0b0;stroke-linecap:square;stroke-width:0.8;"/>
     </g>
     <g id="line2d_40">
      <g>
       <use style="stroke:#000000;stroke-width:0.8;" x="56.12" xlink:href="#m8cc692be3e" y="9.697057"/>
      </g>
     </g>
     <g id="text_11">
      <!-- 1.0 -->
      <g transform="translate(23.675 15.775807)scale(0.16 -0.16)">
       <use xlink:href="#DejaVuSans-31"/>
       <use x="63.623047" xlink:href="#DejaVuSans-2e"/>
       <use x="95.410156" xlink:href="#DejaVuSans-30"/>
      </g>
     </g>
    </g>
    <g id="text_12">
     <!-- Fraction of function,target pairs -->
     <defs>
      <path d="M 9.8125 72.90625 
L 51.703125 72.90625 
L 51.703125 64.59375 
L 19.671875 64.59375 
L 19.671875 43.109375 
L 48.578125 43.109375 
L 48.578125 34.8125 
L 19.671875 34.8125 
L 19.671875 0 
L 9.8125 0 
z
" id="DejaVuSans-46"/>
      <path d="M 41.109375 46.296875 
Q 39.59375 47.171875 37.8125 47.578125 
Q 36.03125 48 33.890625 48 
Q 26.265625 48 22.1875 43.046875 
Q 18.109375 38.09375 18.109375 28.8125 
L 18.109375 0 
L 9.078125 0 
L 9.078125 54.6875 
L 18.109375 54.6875 
L 18.109375 46.1875 
Q 20.953125 51.171875 25.484375 53.578125 
Q 30.03125 56 36.53125 56 
Q 37.453125 56 38.578125 55.875 
Q 39.703125 55.765625 41.0625 55.515625 
z
" id="DejaVuSans-72"/>
      <path d="M 48.78125 52.59375 
L 48.78125 44.1875 
Q 44.96875 46.296875 41.140625 47.34375 
Q 37.3125 48.390625 33.40625 48.390625 
Q 24.65625 48.390625 19.8125 42.84375 
Q 14.984375 37.3125 14.984375 27.296875 
Q 14.984375 17.28125 19.8125 11.734375 
Q 24.65625 6.203125 33.40625 6.203125 
Q 37.3125 6.203125 41.140625 7.25 
Q 44.96875 8.296875 48.78125 10.40625 
L 48.78125 2.09375 
Q 45.015625 0.34375 40.984375 -0.53125 
Q 36.96875 -1.421875 32.421875 -1.421875 
Q 20.0625 -1.421875 12.78125 6.34375 
Q 5.515625 14.109375 5.515625 27.296875 
Q 5.515625 40.671875 12.859375 48.328125 
Q 20.21875 56 33.015625 56 
Q 37.15625 56 41.109375 55.140625 
Q 45.0625 54.296875 48.78125 52.59375 
z
" id="DejaVuSans-63"/>
      <path d="M 18.3125 70.21875 
L 18.3125 54.6875 
L 36.8125 54.6875 
L 36.8125 47.703125 
L 18.3125 47.703125 
L 18.3125 18.015625 
Q 18.3125 11.328125 20.140625 9.421875 
Q 21.96875 7.515625 27.59375 7.515625 
L 36.8125 7.515625 
L 36.8125 0 
L 27.59375 0 
Q 17.1875 0 13.234375 3.875 
Q 9.28125 7.765625 9.28125 18.015625 
L 9.28125 47.703125 
L 2.6875 47.703125 
L 2.6875 54.6875 
L 9.28125 54.6875 
L 9.28125 70.21875 
z
" id="DejaVuSans-74"/>
      <path d="M 8.5 21.578125 
L 8.5 54.6875 
L 17.484375 54.6875 
L 17.484375 21.921875 
Q 17.484375 14.15625 20.5 10.265625 
Q 23.53125 6.390625 29.59375 6.390625 
Q 36.859375 6.390625 41.078125 11.03125 
Q 45.3125 15.671875 45.3125 23.6875 
L 45.3125 54.6875 
L 54.296875 54.6875 
L 54.296875 0 
L 45.3125 0 
L 45.3125 8.40625 
Q 42.046875 3.421875 37.71875 1 
Q 33.40625 -1.421875 27.6875 -1.421875 
Q 18.265625 -1.421875 13.375 4.4375 
Q 8.5 10.296875 8.5 21.578125 
z
M 31.109375 56 
z
" id="DejaVuSans-75"/>
      <path d="M 11.71875 12.40625 
L 22.015625 12.40625 
L 22.015625 4 
L 14.015625 -11.625 
L 7.71875 -11.625 
L 11.71875 4 
z
" id="DejaVuSans-2c"/>
      <path d="M 18.109375 8.203125 
L 18.109375 -20.796875 
L 9.078125 -20.796875 
L 9.078125 54.6875 
L 18.109375 54.6875 
L 18.109375 46.390625 
Q 20.953125 51.265625 25.265625 53.625 
Q 29.59375 56 35.59375 56 
Q 45.5625 56 51.78125 48.09375 
Q 58.015625 40.1875 58.015625 27.296875 
Q 58.015625 14.40625 51.78125 6.484375 
Q 45.5625 -1.421875 35.59375 -1.421875 
Q 29.59375 -1.421875 25.265625 0.953125 
Q 20.953125 3.328125 18.109375 8.203125 
z
M 48.6875 27.296875 
Q 48.6875 37.203125 44.609375 42.84375 
Q 40.53125 48.484375 33.40625 48.484375 
Q 26.265625 48.484375 22.1875 42.84375 
Q 18.109375 37.203125 18.109375 27.296875 
Q 18.109375 17.390625 22.1875 11.75 
Q 26.265625 6.109375 33.40625 6.109375 
Q 40.53125 6.109375 44.609375 11.75 
Q 48.6875 17.390625 48.6875 27.296875 
z
" id="DejaVuSans-70"/>
     </defs>
     <g transform="translate(16.139531 286.001989)rotate(-90)scale(0.17 -0.17)">
      <use xlink:href="#DejaVuSans-46"/>
      <use x="57.410156" xlink:href="#DejaVuSans-72"/>
      <use x="98.523438" xlink:href="#DejaVuSans-61"/>
      <use x="159.802734" xlink:href="#DejaVuSans-63"/>
      <use x="214.783203" xlink:href="#DejaVuSans-74"/>
      <use x="253.992188" xlink:href="#DejaVuSans-69"/>
      <use x="281.775391" xlink:href="#DejaVuSans-6f"/>
      <use x="342.957031" xlink:href="#DejaVuSans-6e"/>
      <use x="406.335938" xlink:href="#DejaVuSans-20"/>
      <use x="438.123047" xlink:href="#DejaVuSans-6f"/>
      <use x="499.304688" xlink:href="#DejaVuSans-66"/>
      <use x="534.509766" xlink:href="#DejaVuSans-20"/>
      <use x="566.296875" xlink:href="#DejaVuSans-66"/>
      <use x="601.501953" xlink:href="#DejaVuSans-75"/>
      <use x="664.880859" xlink:href="#DejaVuSans-6e"/>
      <use x="728.259766" xlink:href="#DejaVuSans-63"/>
      <use x="783.240234" xlink:href="#DejaVuSans-74"/>
      <use x="822.449219" xlink:href="#DejaVuSans-69"/>
      <use x="850.232422" xlink:href="#DejaVuSans-6f"/>
      <use x="911.414062" xlink:href="#DejaVuSans-6e"/>
      <use x="974.792969" xlink:href="#DejaVuSans-2c"/>
      <use x="1006.580078" xlink:href="#DejaVuSans-74"/>
      <use x="1045.789062" xlink:href="#DejaVuSans-61"/>
      <use x="1107.068359" xlink:href="#DejaVuSans-72"/>
      <use x="1148.166016" xlink:href="#DejaVuSans-67"/>
      <use x="1211.642578" xlink:href="#DejaVuSans-65"/>
      <use x="1273.166016" xlink:href="#DejaVuSans-74"/>
      <use x="1312.375" xlink:href="#DejaVuSans-20"/>
      <use x="1344.162109" xlink:href="#DejaVuSans-70"/>
      <use x="1407.638672" xlink:href="#DejaVuSans-61"/>
      <use x="1468.917969" xlink:href="#DejaVuSans-69"/>
      <use x="1496.701172" xlink:href="#DejaVuSans-72"/>
      <use x="1537.814453" xlink:href="#DejaVuSans-73"/>
     </g>
    </g>
   </g>
   <g id="line2d_41">
    <defs>
     <path d="M 0 1.5 
C 0.397805 1.5 0.77937 1.341951 1.06066 1.06066 
C 1.341951 0.77937 1.5 0.397805 1.5 0 
C 1.5 -0.397805 1.341951 -0.77937 1.06066 -1.06066 
C 0.77937 -1.341951 0.397805 -1.5 0 -1.5 
C -0.397805 -1.5 -0.77937 -1.341951 -1.06066 -1.06066 
C -1.341951 -0.77937 -1.5 -0.397805 -1.5 0 
C -1.5 0.397805 -1.341951 0.77937 -1.06066 1.06066 
C -0.77937 1.341951 -0.397805 1.5 0 1.5 
z
" id="m12dfb15c53" style="stroke:#f5deb3;"/>
    </defs>
    <g>
     <use style="fill:#f5deb3;stroke:#f5deb3;" x="193.01891" xlink:href="#m12dfb15c53" y="9.697057"/>
     <use style="fill:#f5deb3;stroke:#f5deb3;" x="193.01891" xlink:href="#m12dfb15c53" y="9.697057"/>
    </g>
   </g>
   <g id="line2d_42">
    <defs>
     <path d="M 0 1.5 
C 0.397805 1.5 0.77937 1.341951 1.06066 1.06066 
C 1.341951 0.77937 1.5 0.397805 1.5 0 
C 1.5 -0.397805 1.341951 -0.77937 1.06066 -1.06066 
C 0.77937 -1.341951 0.397805 -1.5 0 -1.5 
C -0.397805 -1.5 -0.77937 -1.341951 -1.06066 -1.06066 
C -1.341951 -0.77937 -1.5 -0.397805 -1.5 0 
C -1.5 0.397805 -1.341951 0.77937 -1.06066 1.06066 
C -0.77937 1.341951 -0.397805 1.5 0 1.5 
z
" id="m3ee7c5959c" style="stroke:#000080;"/>
    </defs>
    <g>
     <use style="fill:#000080;stroke:#000080;" x="254.808697" xlink:href="#m3ee7c5959c" y="171.859907"/>
     <use style="fill:#000080;stroke:#000080;" x="254.808697" xlink:href="#m3ee7c5959c" y="171.859907"/>
    </g>
   </g>
   <g id="line2d_43">
    <path d="M 16.541714 294.88 
L 16.541714 293.202453 
L 40.370217 293.202453 
L 40.370217 292.97878 
L 49.989246 292.97878 
L 49.989246 292.866944 
L 60.629683 292.866944 
L 60.629683 292.755107 
L 64.198719 292.755107 
L 64.198719 292.643271 
L 78.137499 292.643271 
L 78.137499 292.419598 
L 81.973032 292.419598 
L 81.973032 292.307762 
L 89.567532 292.307762 
L 89.567532 292.195925 
L 91.427575 292.195925 
L 91.427575 291.972252 
L 92.287186 291.972252 
L 92.287186 291.860416 
L 96.038666 291.860416 
L 96.038666 291.189397 
L 96.206361 291.189397 
L 96.206361 290.742051 
L 96.536922 290.742051 
L 96.536922 290.406542 
L 96.699848 290.406542 
L 96.699848 290.294706 
L 97.021141 290.294706 
L 97.021141 290.071033 
L 97.179562 290.071033 
L 97.179562 289.84736 
L 97.646251 289.84736 
L 97.646251 289.735523 
L 98.100602 289.735523 
L 98.100602 289.623687 
L 98.688305 289.623687 
L 98.688305 289.51185 
L 99.67078 289.51185 
L 99.67078 289.064505 
L 101.604122 289.064505 
L 101.604122 288.840832 
L 101.966002 288.840832 
L 101.966002 288.728995 
L 104.819059 288.728995 
L 104.819059 288.617159 
L 107.612537 288.617159 
L 107.612537 288.393486 
L 107.783569 288.393486 
L 107.868452 287.498794 
L 108.036969 287.498794 
L 108.120612 287.051449 
L 108.369127 287.051449 
L 108.369127 286.939612 
L 108.694987 286.939612 
L 108.694987 286.715939 
L 109.093814 286.715939 
L 109.093814 286.492266 
L 109.406343 286.492266 
L 109.406343 286.38043 
L 109.713291 286.38043 
L 109.713291 286.268593 
L 110.163674 286.268593 
L 110.163674 286.156757 
L 110.602556 286.156757 
L 110.674626 285.933084 
L 110.88904 285.933084 
L 110.88904 285.821248 
L 111.72091 285.821248 
L 111.72091 284.47921 
L 113.148711 284.47921 
L 113.148711 284.367374 
L 113.700266 284.367374 
L 113.700266 284.255537 
L 114.639127 284.255537 
L 114.696138 283.696355 
L 114.75296 283.696355 
L 114.75296 283.472682 
L 114.978388 283.472682 
L 115.034286 283.137173 
L 115.145539 283.137173 
L 115.200897 279.44657 
L 115.420563 279.44657 
L 115.420563 278.775551 
L 115.904782 278.775551 
L 115.904782 278.440042 
L 116.063204 278.440042 
L 116.168013 277.769023 
L 116.427273 277.769023 
L 116.427273 277.657187 
L 116.682681 277.657187 
L 116.682681 277.433514 
L 117.182386 277.433514 
L 117.231566 275.420458 
L 117.763465 275.420458 
L 117.763465 275.196785 
L 117.905717 275.196785 
L 117.905717 275.084949 
L 119.612517 275.084949 
L 119.697821 263.565795 
L 119.782703 263.565795 
L 119.867168 262.671103 
L 119.95122 262.671103 
L 120.034863 257.191117 
L 120.528351 257.191117 
L 120.609239 256.743771 
L 120.64954 256.743771 
L 120.689748 252.941332 
L 120.968596 252.941332 
L 121.008065 252.605823 
L 121.086731 252.605823 
L 121.086731 252.38215 
L 121.281837 252.38215 
L 121.281837 249.027056 
L 121.816638 249.027056 
L 121.816638 246.231145 
L 122.838768 246.231145 
L 122.838768 246.119309 
L 123.903739 246.119309 
L 123.903739 245.895636 
L 124.036471 245.895636 
L 124.102454 245.560126 
L 124.266312 245.560126 
L 124.266312 245.336453 
L 124.589417 245.336453 
L 124.589417 242.093196 
L 125.125128 242.093196 
L 125.125128 241.98136 
L 125.463074 241.98136 
L 125.463074 241.869524 
L 125.764637 241.869524 
L 125.764637 241.645851 
L 125.883796 241.645851 
L 125.883796 238.961776 
L 126.061 238.961776 
L 126.061 238.738103 
L 126.438787 238.738103 
L 126.438787 238.626267 
L 126.695551 238.626267 
L 126.780294 238.402594 
L 127.142761 238.402594 
L 127.142761 238.290757 
L 127.362076 238.290757 
L 127.362076 238.178921 
L 128.341524 238.178921 
L 128.341524 238.067084 
L 129.071994 238.067084 
L 129.071994 237.843411 
L 129.413824 237.843411 
L 129.413824 237.731575 
L 129.653893 237.731575 
L 129.748989 234.376482 
L 129.843562 234.376482 
L 129.843562 234.264645 
L 130.445921 234.264645 
L 130.445921 234.152809 
L 132.218178 234.152809 
L 132.218178 234.040972 
L 132.503304 234.040972 
L 132.563791 233.705463 
L 133.674378 233.705463 
L 133.749684 233.48179 
L 134.358685 233.48179 
L 134.358685 233.369954 
L 134.681992 233.369954 
L 134.681992 233.146281 
L 135.24216 233.146281 
L 135.24216 233.034444 
L 135.650622 233.034444 
L 135.650622 232.810771 
L 135.767951 232.810771 
L 135.767951 232.698935 
L 135.983745 232.698935 
L 136.049602 232.251589 
L 136.180564 232.251589 
L 136.180564 231.91608 
L 136.914823 231.91608 
L 137.008324 231.58057 
L 137.085856 231.58057 
L 137.085856 231.133225 
L 137.528768 231.133225 
L 137.603992 230.685879 
L 137.886877 230.685879 
L 137.901638 230.462206 
L 138.165183 230.462206 
L 138.165183 230.350369 
L 138.439053 230.350369 
L 138.510405 225.765075 
L 138.581462 225.765075 
L 138.595638 225.429566 
L 138.987898 225.429566 
L 138.987898 225.094056 
L 139.384945 225.094056 
L 139.384945 224.646711 
L 139.825874 224.646711 
L 139.825874 224.534874 
L 140.048681 224.534874 
L 140.15254 224.311201 
L 140.473113 224.311201 
L 140.473113 224.199365 
L 140.637478 224.199365 
L 140.637478 224.087528 
L 140.998571 224.087528 
L 141.084606 223.863855 
L 141.15801 223.863855 
L 141.243253 223.528346 
L 141.291774 223.528346 
L 141.291774 223.41651 
L 141.66324 223.41651 
L 141.698766 223.192837 
L 142.371552 223.192837 
L 142.371552 223.081 
L 143.312265 223.081 
L 143.312265 222.969164 
L 143.526323 222.969164 
L 143.579424 222.745491 
L 143.685135 222.745491 
L 143.685135 222.633654 
L 144.050088 222.633654 
L 144.050088 222.521818 
L 144.224593 222.521818 
L 144.326422 222.186309 
L 144.478043 222.186309 
L 144.478043 222.074472 
L 144.628338 222.074472 
L 144.678145 221.738963 
L 144.787217 221.738963 
L 144.787217 221.51529 
L 144.90542 221.51529 
L 144.90542 221.291617 
L 145.264845 221.291617 
L 145.264845 221.179781 
L 145.579193 221.179781 
L 145.579193 221.067944 
L 146.381382 221.067944 
L 146.381382 220.732435 
L 146.542779 220.732435 
L 146.560619 220.285089 
L 146.738006 220.285089 
L 146.738006 220.173253 
L 147.412835 220.173253 
L 147.412835 220.061416 
L 148.1274 220.061416 
L 148.1274 219.94958 
L 148.240964 219.94958 
L 148.337711 219.502234 
L 148.529586 219.502234 
L 148.529586 219.390397 
L 148.899248 219.390397 
L 148.922576 219.166725 
L 149.031022 219.166725 
L 149.061881 218.831215 
L 149.450556 218.831215 
L 149.450556 218.719379 
L 149.712298 218.719379 
L 149.712298 218.607542 
L 150.079434 218.607542 
L 150.079434 218.495706 
L 150.417534 218.495706 
L 150.417534 218.272033 
L 150.552348 218.272033 
L 150.552348 217.936524 
L 150.665061 217.936524 
L 150.686112 217.712851 
L 150.88136 217.712851 
L 150.88136 217.601014 
L 151.142842 217.601014 
L 151.142842 217.489178 
L 151.292427 217.489178 
L 151.292427 217.377341 
L 151.845336 217.377341 
L 151.871538 217.041832 
L 152.368298 217.041832 
L 152.368298 216.818159 
L 152.539141 216.818159 
L 152.539141 216.706323 
L 152.764323 216.706323 
L 152.795366 216.258977 
L 152.900496 216.258977 
L 152.931294 215.923468 
L 153.434649 215.923468 
L 153.434649 215.699795 
L 153.601184 215.699795 
L 153.601184 215.587958 
L 153.725034 215.587958 
L 153.725034 215.364285 
L 154.234536 215.364285 
L 154.331245 215.140612 
L 154.466857 215.140612 
L 154.478109 214.805103 
L 154.718279 214.805103 
L 154.812312 214.134084 
L 154.850883 214.134084 
L 154.850883 213.910412 
L 155.258795 213.910412 
L 155.258795 213.798575 
L 155.641489 213.798575 
L 155.641489 213.686739 
L 155.798464 213.686739 
L 155.855664 213.01572 
L 156.179648 213.01572 
L 156.281236 212.344701 
L 156.331806 212.344701 
L 156.397325 212.121028 
L 156.651976 212.121028 
L 156.651976 212.009192 
L 156.927315 212.009192 
L 156.927315 211.897355 
L 157.068186 211.897355 
L 157.1406 211.561846 
L 157.44145 211.561846 
L 157.44145 211.45001 
L 157.755728 211.45001 
L 157.755728 211.338173 
L 157.945251 211.338173 
L 157.945251 211.002664 
L 158.173584 211.002664 
L 158.268586 210.443482 
L 158.291129 210.443482 
L 158.322638 209.996136 
L 158.563792 209.996136 
L 158.563792 209.884299 
L 158.927981 209.884299 
L 158.945339 209.660626 
L 159.100776 209.660626 
L 159.100776 209.325117 
L 159.403273 209.325117 
L 159.403273 209.101444 
L 159.57556 209.101444 
L 159.654819 208.765935 
L 159.960072 208.765935 
L 159.960072 208.654098 
L 160.078236 208.654098 
L 160.078236 208.542262 
L 160.368142 208.542262 
L 160.396068 208.094916 
L 160.751137 208.094916 
L 160.770649 207.759407 
L 161.053039 207.759407 
L 161.114317 207.312061 
L 161.179187 207.312061 
L 161.179187 207.200225 
L 161.387399 207.200225 
L 161.387399 206.976552 
L 161.533527 206.976552 
L 161.533527 206.864715 
L 161.957322 206.864715 
L 161.957322 206.752879 
L 162.152773 206.752879 
L 162.256827 206.529206 
L 162.27113 206.529206 
L 162.27113 206.417369 
L 162.621389 206.417369 
L 162.698265 205.970024 
L 162.96122 205.970024 
L 163.063921 205.634514 
L 163.098018 205.634514 
L 163.142244 205.187169 
L 163.378448 205.187169 
L 163.378448 205.075332 
L 163.782516 205.075332 
L 163.782516 204.963496 
L 164.129249 204.963496 
L 164.135664 204.739823 
L 164.301615 204.739823 
L 164.399791 204.51615 
L 164.425036 204.51615 
L 164.425036 204.404313 
L 164.591354 204.404313 
L 164.625672 204.068804 
L 164.712719 204.068804 
L 164.712719 203.956968 
L 164.971246 203.956968 
L 164.971246 203.733295 
L 165.123304 203.733295 
L 165.222932 203.509622 
L 165.450203 203.509622 
L 165.450203 203.397785 
L 165.583368 203.397785 
L 165.606935 202.95044 
L 165.803044 202.95044 
L 165.803044 202.838603 
L 165.973903 202.838603 
L 166.077328 202.61493 
L 166.125953 202.61493 
L 166.214268 202.391257 
L 166.64362 202.391257 
L 166.707246 201.943912 
L 166.997472 201.943912 
L 167.051686 201.496566 
L 167.207947 201.496566 
L 167.207947 201.384729 
L 167.45822 201.384729 
L 167.45822 201.272893 
L 167.837271 201.272893 
L 167.837271 201.161056 
L 168.009635 201.161056 
L 168.040324 200.601874 
L 168.134607 200.601874 
L 168.205613 200.154528 
L 168.304029 200.154528 
L 168.304029 200.042692 
L 168.41689 200.042692 
L 168.491721 199.707183 
L 168.563749 199.707183 
L 168.563749 199.595346 
L 168.701989 199.595346 
L 168.763347 198.924327 
L 168.902428 198.924327 
L 168.943691 198.588818 
L 169.134156 198.588818 
L 169.215482 198.365145 
L 169.30355 198.365145 
L 169.30355 198.253309 
L 169.450119 198.253309 
L 169.525281 197.694127 
L 169.68624 197.694127 
L 169.711761 197.358617 
L 169.946626 197.358617 
L 169.996865 197.134944 
L 170.07195 197.134944 
L 170.07195 196.911271 
L 170.241386 196.911271 
L 170.328838 196.687599 
L 170.366819 196.687599 
L 170.366819 196.463926 
L 170.689599 196.463926 
L 170.720234 196.240253 
L 170.816163 196.240253 
L 170.816163 196.128416 
L 170.950433 196.128416 
L 171.006429 195.68107 
L 171.077239 195.68107 
L 171.077239 195.569234 
L 171.215866 195.569234 
L 171.215866 195.457398 
L 171.575311 195.457398 
L 171.658318 195.233725 
L 171.816987 195.233725 
L 171.878412 194.674542 
L 171.929432 194.674542 
L 171.929432 194.562706 
L 172.471009 194.562706 
L 172.526208 194.339033 
L 172.696597 194.339033 
L 172.780193 194.003524 
L 172.901941 194.003524 
L 172.901941 193.891687 
L 173.061034 193.891687 
L 173.061034 193.668014 
L 173.258323 193.668014 
L 173.316695 193.220669 
L 173.427246 193.220669 
L 173.533377 192.773323 
L 173.538945 192.773323 
L 173.620399 192.437813 
L 173.651767 192.437813 
L 173.655453 192.102304 
L 173.855185 192.102304 
L 173.88249 191.878631 
L 173.989472 191.878631 
L 174.099384 191.543122 
L 174.187168 191.543122 
L 174.187168 191.431285 
L 174.361403 191.431285 
L 174.361403 191.319449 
L 174.519873 191.319449 
L 174.53564 191.095776 
L 174.636904 191.095776 
L 174.69599 190.424757 
L 174.789416 190.424757 
L 174.789416 190.312921 
L 174.949136 190.312921 
L 174.949136 189.977412 
L 177.150724 189.977412 
L 177.150724 189.865575 
L 177.651687 189.865575 
L 177.734748 189.641902 
L 178.030204 189.641902 
L 178.030204 189.530066 
L 178.291137 189.530066 
L 178.291137 189.418229 
L 178.427116 189.418229 
L 178.427116 189.306393 
L 179.89827 189.306393 
L 179.89827 189.194556 
L 180.014517 189.194556 
L 180.03869 188.970884 
L 180.440782 188.970884 
L 180.534912 188.635374 
L 180.896688 188.635374 
L 180.896688 188.523538 
L 181.126154 188.523538 
L 181.126154 188.411701 
L 181.245082 188.411701 
L 181.245082 188.299865 
L 181.62949 188.299865 
L 181.62949 188.188028 
L 181.946424 188.188028 
L 181.946424 188.076192 
L 182.40227 188.076192 
L 182.40227 187.964356 
L 182.729327 187.964356 
L 182.729327 187.852519 
L 183.060944 187.852519 
L 183.060944 187.51701 
L 183.391514 187.51701 
L 183.412423 187.293337 
L 183.968551 187.293337 
L 183.982707 187.069664 
L 184.093523 187.069664 
L 184.150667 186.734155 
L 184.409924 186.734155 
L 184.409924 186.622318 
L 184.588422 186.622318 
L 184.642001 186.398645 
L 184.714796 186.398645 
L 184.714796 186.286809 
L 185.023869 186.286809 
L 185.023869 186.174972 
L 185.141425 186.174972 
L 185.141425 186.063136 
L 185.71104 186.063136 
L 185.815829 185.503954 
L 185.959668 185.503954 
L 185.959668 185.392117 
L 186.161178 185.392117 
L 186.161178 185.280281 
L 186.430619 185.280281 
L 186.48313 185.056608 
L 186.772546 185.056608 
L 186.823167 184.497426 
L 188.035371 184.497426 
L 188.035371 184.385589 
L 188.960131 184.385589 
L 188.960131 184.273753 
L 189.549131 184.273753 
L 189.627908 183.938243 
L 190.267203 183.938243 
L 190.332289 183.602734 
L 190.964557 183.602734 
L 190.964557 183.490898 
L 191.996113 183.490898 
L 191.996113 183.379061 
L 192.392251 183.379061 
L 192.392251 183.267225 
L 192.906221 183.267225 
L 192.938665 182.931715 
L 193.100566 182.931715 
L 193.186571 182.596206 
L 193.280387 182.596206 
L 193.280387 182.48437 
L 193.572112 182.48437 
L 193.572112 182.372533 
L 193.748809 182.372533 
L 193.832207 182.037024 
L 194.999703 182.037024 
L 194.999703 181.925187 
L 195.739074 181.925187 
L 195.739074 181.701514 
L 195.949433 181.701514 
L 195.949433 181.589678 
L 196.2758 181.589678 
L 196.2758 181.477842 
L 197.024942 181.477842 
L 197.024942 181.366005 
L 197.778614 181.366005 
L 197.778614 181.254169 
L 198.073649 181.254169 
L 198.073649 181.142332 
L 198.315481 181.142332 
L 198.396944 180.918659 
L 198.628268 180.918659 
L 198.691952 180.694986 
L 200.251542 180.694986 
L 200.251542 180.58315 
L 200.406951 180.58315 
L 200.406951 180.471314 
L 200.633626 180.471314 
L 200.633626 180.359477 
L 200.863787 180.359477 
L 200.863787 180.247641 
L 201.75192 180.247641 
L 201.75192 180.135804 
L 201.907222 180.135804 
L 201.907222 180.023968 
L 202.219626 180.023968 
L 202.315903 179.800295 
L 202.624107 179.800295 
L 202.624107 179.688458 
L 203.60812 179.688458 
L 203.60812 179.576622 
L 204.316104 179.576622 
L 204.316104 179.352949 
L 204.773802 179.352949 
L 204.773802 179.241113 
L 204.944509 179.241113 
L 204.944509 179.129276 
L 205.598807 179.129276 
L 205.598807 179.01744 
L 205.769237 179.01744 
L 205.769237 178.905603 
L 206.76369 178.905603 
L 206.76369 178.793767 
L 207.115093 178.793767 
L 207.115093 178.570094 
L 208.23325 178.570094 
L 208.281013 178.346421 
L 209.633654 178.346421 
L 209.633654 178.234585 
L 210.113883 178.234585 
L 210.113883 178.122748 
L 210.558893 178.122748 
L 210.643957 177.899075 
L 210.740753 177.899075 
L 210.752042 177.563566 
L 211.746508 177.563566 
L 211.746508 177.339893 
L 212.624241 177.339893 
L 212.657245 177.11622 
L 213.426 177.11622 
L 213.429098 176.892547 
L 214.082729 176.892547 
L 214.082729 176.780711 
L 214.386498 176.780711 
L 214.44122 176.557038 
L 214.591237 176.557038 
L 214.591237 176.445201 
L 215.757908 176.445201 
L 215.757908 176.333365 
L 216.090604 176.333365 
L 216.120858 176.109692 
L 216.222612 176.109692 
L 216.222612 175.997856 
L 217.611919 175.997856 
L 217.711635 175.774183 
L 218.217583 175.774183 
L 218.217583 175.662346 
L 219.104299 175.662346 
L 219.104299 175.55051 
L 220.008508 175.55051 
L 220.008508 175.438673 
L 220.21885 175.438673 
L 220.21885 175.326837 
L 220.378918 175.326837 
L 220.378918 175.215 
L 220.846937 175.215 
L 220.916625 174.991328 
L 221.565508 174.991328 
L 221.565508 174.879491 
L 222.067536 174.879491 
L 222.067536 174.767655 
L 222.24477 174.767655 
L 222.351802 174.543982 
L 222.599942 174.543982 
L 222.675447 174.320309 
L 223.420848 174.320309 
L 223.420848 174.208472 
L 223.646988 174.208472 
L 223.71804 173.872963 
L 224.318728 173.872963 
L 224.413628 173.64929 
L 224.700993 173.64929 
L 224.700993 173.537454 
L 225.26884 173.537454 
L 225.26884 173.425617 
L 225.567207 173.425617 
L 225.567207 173.313781 
L 226.169173 173.313781 
L 226.169173 173.201944 
L 226.435859 173.201944 
L 226.508298 172.866435 
L 230.148308 172.866435 
L 230.148308 172.754599 
L 232.298398 172.754599 
L 232.298398 172.642762 
L 235.48868 172.642762 
L 235.48868 172.530926 
L 236.100511 172.530926 
L 236.132398 172.307253 
L 236.619311 172.307253 
L 236.619311 172.195416 
L 238.259797 172.195416 
L 238.259797 172.08358 
L 240.018557 172.08358 
L 240.018557 171.971743 
L 254.808697 171.971743 
L 254.808697 171.859907 
L 333.168 171.859907 
L 333.168 171.859907 
" style="fill:none;stroke:#000080;stroke-linecap:square;stroke-width:1.5;"/>
   </g>
   <g id="line2d_44">
    <defs>
     <path d="M 0 6 
C 1.591219 6 3.117479 5.367802 4.242641 4.242641 
C 5.367802 3.117479 6 1.591219 6 0 
C 6 -1.591219 5.367802 -3.117479 4.242641 -4.242641 
C 3.117479 -5.367802 1.591219 -6 0 -6 
C -1.591219 -6 -3.117479 -5.367802 -4.242641 -4.242641 
C -5.367802 -3.117479 -6 -1.591219 -6 0 
C -6 1.591219 -5.367802 3.117479 -4.242641 4.242641 
C -3.117479 5.367802 -1.591219 6 0 6 
z
" id="md6cc52b837" style="stroke:#000080;stroke-width:1.5;"/>
    </defs>
    <g>
     <use style="fill-opacity:0;stroke:#000080;stroke-width:1.5;" x="81.973032" xlink:href="#md6cc52b837" y="292.307762"/>
     <use style="fill-opacity:0;stroke:#000080;stroke-width:1.5;" x="136.049602" xlink:href="#md6cc52b837" y="232.251589"/>
     <use style="fill-opacity:0;stroke:#000080;stroke-width:1.5;" x="215.757908" xlink:href="#md6cc52b837" y="176.445201"/>
     <use style="fill-opacity:0;stroke:#000080;stroke-width:1.5;" x="254.808697" xlink:href="#md6cc52b837" y="171.971743"/>
     <use style="fill-opacity:0;stroke:#000080;stroke-width:1.5;" x="254.808697" xlink:href="#md6cc52b837" y="171.859907"/>
     <use style="fill-opacity:0;stroke:#000080;stroke-width:1.5;" x="333.168" xlink:href="#md6cc52b837" y="171.859907"/>
    </g>
   </g>
   <g id="line2d_45">
    <path style="fill:none;stroke:#000080;stroke-linecap:square;stroke-width:1.5;"/>
    <g/>
   </g>
   <g id="line2d_46">
    <path clip-path="url(#p5a609e1648)" d="M 175.027591 189.977412 
" style="fill:none;stroke:#000080;stroke-linecap:square;stroke-width:1.5;"/>
    <defs>
     <path d="M -12 12 
L 12 -12 
M -12 -12 
L 12 12 
" id="m3598a3d47e" style="stroke:#000080;"/>
    </defs>
    <g clip-path="url(#p5a609e1648)">
     <use style="fill:#000080;stroke:#000080;" x="175.027591" xlink:href="#m3598a3d47e" y="189.977412"/>
    </g>
   </g>
   <g id="line2d_47">
    <defs>
     <path d="M 0 1.5 
C 0.397805 1.5 0.77937 1.341951 1.06066 1.06066 
C 1.341951 0.77937 1.5 0.397805 1.5 0 
C 1.5 -0.397805 1.341951 -0.77937 1.06066 -1.06066 
C 0.77937 -1.341951 0.397805 -1.5 0 -1.5 
C -0.397805 -1.5 -0.77937 -1.341951 -1.06066 -1.06066 
C -1.341951 -0.77937 -1.5 -0.397805 -1.5 0 
C -1.5 0.397805 -1.341951 0.77937 -1.06066 1.06066 
C -0.77937 1.341951 -0.397805 1.5 0 1.5 
z
" id="me517a7aa2e" style="stroke:#ff00ff;"/>
    </defs>
    <g>
     <use style="fill:#ff00ff;stroke:#ff00ff;" x="234.732915" xlink:href="#me517a7aa2e" y="188.635374"/>
     <use style="fill:#ff00ff;stroke:#ff00ff;" x="234.732915" xlink:href="#me517a7aa2e" y="188.635374"/>
    </g>
   </g>
   <g id="line2d_48">
    <path d="M 16.541714 294.88 
L 16.541714 292.531435 
L 35.425356 292.531435 
L 35.425356 292.419598 
L 68.034251 292.419598 
L 68.034251 292.307762 
L 74.42092 292.307762 
L 74.42092 292.084089 
L 75.567254 292.084089 
L 75.567254 291.972252 
L 78.60845 291.972252 
L 78.60845 291.860416 
L 85.106889 291.860416 
L 85.106889 291.748579 
L 85.732 291.748579 
L 85.732 291.524907 
L 93.695229 291.524907 
L 93.695229 291.301234 
L 94.077214 291.301234 
L 94.077214 291.189397 
L 94.26507 291.189397 
L 94.26507 291.077561 
L 95.525534 291.077561 
L 95.525534 290.853888 
L 96.372436 290.853888 
L 96.372436 290.742051 
L 96.536922 290.742051 
L 96.536922 290.630215 
L 96.861245 290.630215 
L 96.861245 290.518379 
L 97.021141 290.518379 
L 97.021141 289.959196 
L 97.646251 289.959196 
L 97.646251 289.84736 
L 97.79904 289.84736 
L 97.79904 289.735523 
L 100.075237 289.735523 
L 100.075237 289.623687 
L 101.725597 289.623687 
L 101.725597 289.51185 
L 104.096307 289.51185 
L 104.096307 289.176341 
L 106.272485 289.176341 
L 106.272485 289.064505 
L 107.352754 289.064505 
L 107.352754 288.952668 
L 108.120612 288.952668 
L 108.20385 288.505322 
L 108.286687 288.505322 
L 108.286687 288.393486 
L 108.532829 288.393486 
L 108.532829 288.169813 
L 108.775496 288.169813 
L 108.85563 287.610631 
L 109.406343 287.610631 
L 109.483595 287.275122 
L 110.163674 287.275122 
L 110.163674 286.939612 
L 110.457504 286.939612 
L 110.457504 286.827776 
L 110.674626 286.827776 
L 110.674626 286.715939 
L 111.516686 286.715939 
L 111.516686 286.604103 
L 112.319414 286.604103 
L 112.319414 286.38043 
L 113.148711 286.38043 
L 113.148711 286.268593 
L 114.176106 286.268593 
L 114.176106 286.156757 
L 114.75296 286.156757 
L 114.75296 285.709411 
L 114.978388 285.709411 
L 114.978388 285.485738 
L 115.090002 285.485738 
L 115.090002 285.373902 
L 115.256077 285.373902 
L 115.365909 285.150229 
L 115.475044 285.150229 
L 115.529352 284.81472 
L 115.691256 284.81472 
L 115.798351 284.47921 
L 115.904782 284.47921 
L 115.957752 284.255537 
L 116.783791 284.255537 
L 116.783791 284.143701 
L 117.231566 284.143701 
L 117.231566 284.031865 
L 118.371562 284.031865 
L 118.371562 283.920028 
L 118.554421 283.920028 
L 118.554421 283.808192 
L 118.869818 283.808192 
L 118.869818 283.584519 
L 119.655222 283.584519 
L 119.740314 283.025336 
L 119.95122 283.025336 
L 120.034863 282.130645 
L 120.076533 282.130645 
L 120.15957 279.111061 
L 120.242208 279.111061 
L 120.242208 278.775551 
L 120.568842 278.775551 
L 120.568842 278.440042 
L 120.809808 278.440042 
L 120.809808 278.328206 
L 120.929036 278.328206 
L 121.008065 277.992696 
L 121.12593 277.992696 
L 121.12593 274.973112 
L 121.242993 274.973112 
L 121.320594 274.749439 
L 121.359263 274.749439 
L 121.359263 274.525766 
L 121.741249 274.525766 
L 121.741249 274.41393 
L 122.077925 274.41393 
L 122.077925 274.190257 
L 122.660646 274.190257 
L 122.660646 274.078421 
L 123.224258 274.078421 
L 123.258878 273.854748 
L 123.465144 273.854748 
L 123.499282 273.071893 
L 123.601292 273.071893 
L 123.7027 272.84822 
L 123.836987 272.84822 
L 123.903739 272.51271 
L 124.135351 272.51271 
L 124.135351 272.400874 
L 124.363883 272.400874 
L 124.396284 269.157617 
L 124.685175 269.157617 
L 124.748719 268.933944 
L 124.812029 268.933944 
L 124.812029 268.822108 
L 124.937954 268.822108 
L 125.031795 268.598435 
L 125.187069 268.598435 
L 125.187069 268.486598 
L 125.340952 268.486598 
L 125.340952 268.374762 
L 125.5541 268.374762 
L 125.5541 268.262925 
L 125.764637 268.262925 
L 125.764637 268.151089 
L 126.438787 268.151089 
L 126.438787 268.039252 
L 126.553378 268.039252 
L 126.610389 267.256397 
L 126.695551 267.256397 
L 126.695551 267.144561 
L 126.892639 267.144561 
L 126.892639 264.01314 
L 127.05979 264.01314 
L 127.142761 263.677631 
L 127.28016 263.677631 
L 127.334814 263.453958 
L 127.712602 263.453958 
L 127.712602 263.342122 
L 127.977455 263.342122 
L 128.056122 263.118449 
L 128.212383 263.118449 
L 128.212383 262.894776 
L 128.495224 262.894776 
L 128.495224 262.223757 
L 129.194858 262.223757 
L 129.243759 257.079281 
L 129.341145 257.079281 
L 129.437982 250.369094 
L 129.510254 250.369094 
L 129.510254 250.257257 
L 129.677716 250.257257 
L 129.748989 247.34951 
L 129.796341 247.34951 
L 129.867125 246.902164 
L 129.937618 246.902164 
L 129.961052 246.566654 
L 130.262818 246.566654 
L 130.262818 246.342981 
L 130.42314 246.342981 
L 130.42314 246.231145 
L 131.071844 246.231145 
L 131.071844 245.895636 
L 131.548134 245.895636 
L 131.590786 245.336453 
L 131.718109 245.336453 
L 131.718109 245.224617 
L 131.865471 245.224617 
L 131.907344 244.777271 
L 132.032353 244.777271 
L 132.135837 244.553598 
L 132.156459 244.553598 
L 132.238701 244.218089 
L 132.543652 244.218089 
L 132.543652 241.310341 
L 133.503723 241.310341 
L 133.560797 237.619739 
L 133.617681 237.619739 
L 133.693236 237.396066 
L 133.787214 237.396066 
L 133.880682 236.836883 
L 134.53905 236.836883 
L 134.53905 236.725047 
L 134.964358 236.725047 
L 135.03423 236.501374 
L 135.345189 236.501374 
L 135.345189 236.389538 
L 135.834638 236.389538 
L 135.834638 236.165865 
L 135.950722 236.165865 
L 135.983745 233.369954 
L 136.294342 233.369954 
L 136.294342 233.258117 
L 136.77361 233.258117 
L 136.77361 233.146281 
L 136.946047 233.146281 
L 137.008324 232.698935 
L 137.178434 232.698935 
L 137.178434 232.587098 
L 137.498586 232.587098 
L 137.498586 232.475262 
L 138.09238 232.475262 
L 138.09238 232.363425 
L 138.439053 232.363425 
L 138.538863 231.468734 
L 138.567274 231.468734 
L 138.652226 230.909552 
L 138.750809 230.909552 
L 138.764847 230.685879 
L 139.153307 230.685879 
L 139.153307 230.574042 
L 139.586771 230.574042 
L 139.626853 230.126697 
L 139.706738 230.126697 
L 139.812678 229.567514 
L 139.87856 229.567514 
L 139.957287 226.324257 
L 140.009571 226.324257 
L 140.048681 226.100584 
L 140.242905 226.100584 
L 140.319984 223.081 
L 140.73785 223.081 
L 140.73785 222.969164 
L 140.887317 222.969164 
L 140.887317 222.745491 
L 141.109109 222.745491 
L 141.109109 222.633654 
L 141.255396 222.633654 
L 141.328075 222.409982 
L 141.520398 222.409982 
L 141.520398 222.298145 
L 141.757814 222.298145 
L 141.757814 222.074472 
L 141.910394 222.074472 
L 141.95707 221.850799 
L 142.394288 221.850799 
L 142.496231 221.291617 
L 142.597572 221.291617 
L 142.597572 221.067944 
L 142.731772 221.067944 
L 142.765159 220.732435 
L 142.997068 220.732435 
L 142.997068 220.285089 
L 143.419627 220.285089 
L 143.473058 220.061416 
L 143.737748 220.061416 
L 143.737748 219.94958 
L 144.050088 219.94958 
L 144.050088 219.837743 
L 144.204155 219.837743 
L 144.204155 219.725907 
L 144.427651 219.725907 
L 144.508207 219.166725 
L 144.578385 219.166725 
L 144.578385 218.943052 
L 144.737725 218.943052 
L 144.737725 218.831215 
L 145.110339 218.831215 
L 145.110339 218.719379 
L 145.332007 218.719379 
L 145.398907 218.383869 
L 145.484542 218.383869 
L 145.503514 218.04836 
L 145.682711 218.04836 
L 145.682711 217.824687 
L 146.072324 217.824687 
L 146.13641 217.153669 
L 146.34531 217.153669 
L 146.34531 217.041832 
L 146.605138 217.041832 
L 146.658408 216.818159 
L 146.755644 216.818159 
L 146.755644 216.594486 
L 147.156411 216.594486 
L 147.216586 216.370813 
L 147.310724 216.370813 
L 147.404349 216.035304 
L 147.505907 216.035304 
L 147.615255 215.587958 
L 147.807029 215.587958 
L 147.807029 215.364285 
L 147.972068 215.364285 
L 148.053996 212.456538 
L 148.143669 212.456538 
L 148.151798 212.232865 
L 148.393896 212.232865 
L 148.393896 211.897355 
L 148.930344 211.897355 
L 148.976884 211.673683 
L 149.069587 211.673683 
L 149.169454 211.226337 
L 149.630465 211.226337 
L 149.630465 211.002664 
L 149.786355 211.002664 
L 149.786355 210.890827 
L 149.904187 210.890827 
L 149.904187 210.667155 
L 150.159162 210.667155 
L 150.159162 210.555318 
L 150.417534 210.555318 
L 150.481525 210.107972 
L 150.545279 210.107972 
L 150.643983 209.772463 
L 150.672081 209.772463 
L 150.672081 209.660626 
L 150.874425 209.660626 
L 150.874425 209.54879 
L 151.012598 209.54879 
L 151.122343 208.877771 
L 151.447433 208.877771 
L 151.447433 208.765935 
L 151.720327 208.765935 
L 151.740126 208.542262 
L 152.034403 208.542262 
L 152.034403 208.206753 
L 152.182887 208.206753 
L 152.182887 208.094916 
L 152.361937 208.094916 
L 152.368298 207.871243 
L 152.482382 207.871243 
L 152.551729 207.64757 
L 153.004986 207.64757 
L 153.017238 207.423898 
L 153.139273 207.423898 
L 153.230235 207.200225 
L 153.290609 207.200225 
L 153.290609 207.088388 
L 153.476434 207.088388 
L 153.476434 206.976552 
L 153.589342 206.976552 
L 153.589342 206.864715 
L 153.754391 206.864715 
L 153.754391 206.641042 
L 153.888792 206.641042 
L 153.888792 206.529206 
L 154.205988 206.529206 
L 154.205988 206.417369 
L 154.489355 206.417369 
L 154.489355 206.305533 
L 154.734911 206.305533 
L 154.734911 206.193697 
L 155.291014 206.193697 
L 155.360615 205.746351 
L 155.408635 205.746351 
L 155.408635 205.634514 
L 155.824488 205.634514 
L 155.881602 204.963496 
L 156.031271 204.963496 
L 156.031271 204.851659 
L 156.331806 204.851659 
L 156.387261 204.51615 
L 156.487633 204.51615 
L 156.487633 204.292477 
L 156.839293 204.292477 
L 156.839293 204.068804 
L 157.474555 204.068804 
L 157.474555 203.956968 
L 157.788234 203.956968 
L 157.788234 203.845131 
L 158.00949 203.845131 
L 158.018648 203.509622 
L 158.182654 203.509622 
L 158.182654 203.285949 
L 158.461492 203.285949 
L 158.461492 203.174112 
L 158.683112 203.174112 
L 158.683112 202.838603 
L 158.832198 202.838603 
L 158.832198 202.726767 
L 159.096477 202.726767 
L 159.199352 202.055748 
L 159.579741 202.055748 
L 159.579741 201.943912 
L 159.968248 201.943912 
L 160.033511 201.608402 
L 161.141058 201.608402 
L 161.141058 201.496566 
L 161.3535 201.496566 
L 161.3535 201.161056 
L 161.552172 201.161056 
L 161.552172 201.04922 
L 161.884365 201.04922 
L 161.993685 200.378201 
L 162.296132 200.378201 
L 162.296132 200.266365 
L 162.638891 200.266365 
L 162.638891 200.154528 
L 164.029511 200.154528 
L 164.029511 200.042692 
L 164.494269 200.042692 
L 164.494269 199.930855 
L 167.460863 199.930855 
L 167.460863 199.707183 
L 178.084418 199.707183 
L 178.101503 199.48351 
L 178.721987 199.48351 
L 178.721987 199.259837 
L 179.343371 199.259837 
L 179.343371 199.036164 
L 179.763153 199.036164 
L 179.809599 198.700655 
L 180.019609 198.700655 
L 180.033604 198.476982 
L 180.209471 198.476982 
L 180.209471 198.365145 
L 180.505242 198.365145 
L 180.505242 198.253309 
L 180.684946 198.253309 
L 180.788709 197.917799 
L 181.011203 197.917799 
L 181.030415 197.58229 
L 181.36437 197.58229 
L 181.36437 197.470454 
L 181.620215 197.470454 
L 181.728873 197.246781 
L 181.827685 197.246781 
L 181.864307 196.799435 
L 182.266558 196.799435 
L 182.266558 196.687599 
L 182.469726 196.687599 
L 182.469726 196.575762 
L 183.570499 196.575762 
L 183.571534 196.352089 
L 184.867147 196.352089 
L 184.867147 196.240253 
L 188.339252 196.240253 
L 188.339252 196.128416 
L 189.472195 196.128416 
L 189.472195 196.01658 
L 189.618444 196.01658 
L 189.618444 195.904743 
L 189.834793 195.904743 
L 189.834793 195.792907 
L 190.049872 195.792907 
L 190.052713 195.569234 
L 190.191309 195.569234 
L 190.192717 195.345561 
L 190.402696 195.345561 
L 190.49428 195.010052 
L 190.552307 195.010052 
L 190.552307 194.898215 
L 190.697893 194.898215 
L 190.697893 194.562706 
L 190.832082 194.562706 
L 190.939627 194.339033 
L 192.473232 194.339033 
L 192.473232 194.227197 
L 196.153266 194.227197 
L 196.153266 194.11536 
L 196.29408 194.11536 
L 196.320231 193.779851 
L 196.49389 193.779851 
L 196.504137 193.556178 
L 197.253413 193.556178 
L 197.253413 193.444342 
L 197.789028 193.444342 
L 197.894177 193.220669 
L 199.74522 193.220669 
L 199.74522 192.996996 
L 200.377383 192.996996 
L 200.377383 192.885159 
L 200.522014 192.885159 
L 200.558271 192.661486 
L 200.828549 192.661486 
L 200.828549 192.54965 
L 201.465575 192.54965 
L 201.465575 192.437813 
L 203.710742 192.437813 
L 203.710742 192.325977 
L 204.065958 192.325977 
L 204.065958 192.214141 
L 204.227939 192.214141 
L 204.227939 192.102304 
L 204.460103 192.102304 
L 204.460103 191.990468 
L 205.190224 191.990468 
L 205.190224 191.878631 
L 206.528724 191.878631 
L 206.528724 191.766795 
L 206.678889 191.766795 
L 206.678889 191.654958 
L 207.072152 191.654958 
L 207.115093 191.431285 
L 207.263895 191.431285 
L 207.263895 191.207613 
L 209.62979 191.207613 
L 209.715271 190.98394 
L 209.987455 190.98394 
L 209.987455 190.872103 
L 210.296115 190.872103 
L 210.296115 190.760267 
L 211.300454 190.760267 
L 211.300454 190.424757 
L 211.414338 190.424757 
L 211.414338 190.312921 
L 215.483284 190.312921 
L 215.483284 190.201085 
L 216.53268 190.201085 
L 216.53268 190.089248 
L 217.17833 190.089248 
L 217.17833 189.977412 
L 218.422681 189.977412 
L 218.422681 189.865575 
L 219.443711 189.865575 
L 219.443711 189.753739 
L 219.672317 189.753739 
L 219.672317 189.641902 
L 219.794427 189.641902 
L 219.794427 189.530066 
L 222.951694 189.530066 
L 222.951694 189.418229 
L 223.238201 189.418229 
L 223.332277 189.194556 
L 224.248179 189.194556 
L 224.248179 189.08272 
L 225.218895 189.08272 
L 225.218895 188.970884 
L 234.282365 188.970884 
L 234.341088 188.747211 
L 234.732915 188.747211 
L 234.732915 188.635374 
L 333.168 188.635374 
L 333.168 188.635374 
" style="fill:none;stroke:#ff00ff;stroke-linecap:square;stroke-width:1.5;"/>
   </g>
   <g id="line2d_49">
    <defs>
     <path d="M -0 8.485281 
L 5.091169 0 
L 0 -8.485281 
L -5.091169 -0 
z
" id="mddd51e1807" style="stroke:#ff00ff;stroke-linejoin:miter;stroke-width:1.5;"/>
    </defs>
    <g>
     <use style="fill-opacity:0;stroke:#ff00ff;stroke-linejoin:miter;stroke-width:1.5;" x="85.732" xlink:href="#mddd51e1807" y="291.748579"/>
     <use style="fill-opacity:0;stroke:#ff00ff;stroke-linejoin:miter;stroke-width:1.5;" x="140.048681" xlink:href="#mddd51e1807" y="226.100584"/>
     <use style="fill-opacity:0;stroke:#ff00ff;stroke-linejoin:miter;stroke-width:1.5;" x="205.190224" xlink:href="#mddd51e1807" y="191.990468"/>
     <use style="fill-opacity:0;stroke:#ff00ff;stroke-linejoin:miter;stroke-width:1.5;" x="234.732915" xlink:href="#mddd51e1807" y="188.747211"/>
     <use style="fill-opacity:0;stroke:#ff00ff;stroke-linejoin:miter;stroke-width:1.5;" x="234.732915" xlink:href="#mddd51e1807" y="188.635374"/>
     <use style="fill-opacity:0;stroke:#ff00ff;stroke-linejoin:miter;stroke-width:1.5;" x="333.168" xlink:href="#mddd51e1807" y="188.635374"/>
    </g>
   </g>
   <g id="line2d_50">
    <path style="fill:none;stroke:#ff00ff;stroke-linecap:square;stroke-width:1.5;"/>
    <g/>
   </g>
   <g id="line2d_51">
    <path clip-path="url(#p5a609e1648)" d="M 175.027591 199.707183 
" style="fill:none;stroke:#ff00ff;stroke-linecap:square;stroke-width:1.5;"/>
    <defs>
     <path d="M -12 12 
L 12 -12 
M -12 -12 
L 12 12 
" id="m0141ceec65" style="stroke:#ff00ff;"/>
    </defs>
    <g clip-path="url(#p5a609e1648)">
     <use style="fill:#ff00ff;stroke:#ff00ff;" x="175.027591" xlink:href="#m0141ceec65" y="199.707183"/>
    </g>
   </g>
   <g id="line2d_52">
    <path d="M 333.168 188.635374 
L 363.64328 289.176341 
" style="fill:none;stroke:#ff00ff;stroke-linecap:square;stroke-width:1.5;"/>
    <g>
     <use style="fill-opacity:0;stroke:#ff00ff;stroke-linejoin:miter;stroke-width:1.5;" x="333.168" xlink:href="#mddd51e1807" y="188.635374"/>
     <use style="fill-opacity:0;stroke:#ff00ff;stroke-linejoin:miter;stroke-width:1.5;" x="363.64328" xlink:href="#mddd51e1807" y="289.176341"/>
    </g>
   </g>
   <g id="line2d_53">
    <path d="M 333.168 171.859907 
L 363.64328 152.288529 
" style="fill:none;stroke:#000080;stroke-linecap:square;stroke-width:1.5;"/>
    <g>
     <use style="fill-opacity:0;stroke:#000080;stroke-width:1.5;" x="333.168" xlink:href="#md6cc52b837" y="171.859907"/>
     <use style="fill-opacity:0;stroke:#000080;stroke-width:1.5;" x="363.64328" xlink:href="#md6cc52b837" y="152.288529"/>
    </g>
   </g>
   <g id="line2d_54">
    <path d="M 333.168 294.88 
L 333.168 9.697057 
" style="fill:none;stroke:#000000;stroke-linecap:square;stroke-width:1.5;"/>
   </g>
   <g id="patch_3">
    <path d="M 56.12 294.88 
L 56.12 6.845228 
" style="fill:none;stroke:#000000;stroke-linecap:square;stroke-linejoin:miter;stroke-width:0.8;"/>
   </g>
   <g id="patch_4">
    <path d="M 333.168 294.88 
L 333.168 6.845228 
" style="fill:none;stroke:#000000;stroke-linecap:square;stroke-linejoin:miter;stroke-width:0.8;"/>
   </g>
   <g id="patch_5">
    <path d="M 56.12 294.88 
L 333.168 294.88 
" style="fill:none;stroke:#000000;stroke-linecap:square;stroke-linejoin:miter;stroke-width:0.8;"/>
   </g>
   <g id="patch_6">
    <path d="M 56.12 6.845228 
L 333.168 6.845228 
" style="fill:none;stroke:#000000;stroke-linecap:square;stroke-linejoin:miter;stroke-width:0.8;"/>
   </g>
   <g id="text_13">
    <!-- PSO2 -->
    <defs>
     <path d="M 19.671875 64.796875 
L 19.671875 37.40625 
L 32.078125 37.40625 
Q 38.96875 37.40625 42.71875 40.96875 
Q 46.484375 44.53125 46.484375 51.125 
Q 46.484375 57.671875 42.71875 61.234375 
Q 38.96875 64.796875 32.078125 64.796875 
z
M 9.8125 72.90625 
L 32.078125 72.90625 
Q 44.34375 72.90625 50.609375 67.359375 
Q 56.890625 61.8125 56.890625 51.125 
Q 56.890625 40.328125 50.609375 34.8125 
Q 44.34375 29.296875 32.078125 29.296875 
L 19.671875 29.296875 
L 19.671875 0 
L 9.8125 0 
z
" id="DejaVuSans-50"/>
     <path d="M 53.515625 70.515625 
L 53.515625 60.890625 
Q 47.90625 63.578125 42.921875 64.890625 
Q 37.9375 66.21875 33.296875 66.21875 
Q 25.25 66.21875 20.875 63.09375 
Q 16.5 59.96875 16.5 54.203125 
Q 16.5 49.359375 19.40625 46.890625 
Q 22.3125 44.4375 30.421875 42.921875 
L 36.375 41.703125 
Q 47.40625 39.59375 52.65625 34.296875 
Q 57.90625 29 57.90625 20.125 
Q 57.90625 9.515625 50.796875 4.046875 
Q 43.703125 -1.421875 29.984375 -1.421875 
Q 24.8125 -1.421875 18.96875 -0.25 
Q 13.140625 0.921875 6.890625 3.21875 
L 6.890625 13.375 
Q 12.890625 10.015625 18.65625 8.296875 
Q 24.421875 6.59375 29.984375 6.59375 
Q 38.421875 6.59375 43.015625 9.90625 
Q 47.609375 13.234375 47.609375 19.390625 
Q 47.609375 24.75 44.3125 27.78125 
Q 41.015625 30.8125 33.5 32.328125 
L 27.484375 33.5 
Q 16.453125 35.6875 11.515625 40.375 
Q 6.59375 45.0625 6.59375 53.421875 
Q 6.59375 63.09375 13.40625 68.65625 
Q 20.21875 74.21875 32.171875 74.21875 
Q 37.3125 74.21875 42.625 73.28125 
Q 47.953125 72.359375 53.515625 70.515625 
z
" id="DejaVuSans-53"/>
     <path d="M 39.40625 66.21875 
Q 28.65625 66.21875 22.328125 58.203125 
Q 16.015625 50.203125 16.015625 36.375 
Q 16.015625 22.609375 22.328125 14.59375 
Q 28.65625 6.59375 39.40625 6.59375 
Q 50.140625 6.59375 56.421875 14.59375 
Q 62.703125 22.609375 62.703125 36.375 
Q 62.703125 50.203125 56.421875 58.203125 
Q 50.140625 66.21875 39.40625 66.21875 
z
M 39.40625 74.21875 
Q 54.734375 74.21875 63.90625 63.9375 
Q 73.09375 53.65625 73.09375 36.375 
Q 73.09375 19.140625 63.90625 8.859375 
Q 54.734375 -1.421875 39.40625 -1.421875 
Q 24.03125 -1.421875 14.8125 8.828125 
Q 5.609375 19.09375 5.609375 36.375 
Q 5.609375 53.65625 14.8125 63.9375 
Q 24.03125 74.21875 39.40625 74.21875 
z
" id="DejaVuSans-4f"/>
    </defs>
    <g transform="translate(369.18424 293.867279)scale(0.17 -0.17)">
     <use xlink:href="#DejaVuSans-50"/>
     <use x="60.302734" xlink:href="#DejaVuSans-53"/>
     <use x="123.779297" xlink:href="#DejaVuSans-4f"/>
     <use x="202.490234" xlink:href="#DejaVuSans-32"/>
    </g>
   </g>
   <g id="text_14">
    <!-- PSO1 -->
    <g transform="translate(369.18424 156.979466)scale(0.17 -0.17)">
     <use xlink:href="#DejaVuSans-50"/>
     <use x="60.302734" xlink:href="#DejaVuSans-53"/>
     <use x="123.779297" xlink:href="#DejaVuSans-4f"/>
     <use x="202.490234" xlink:href="#DejaVuSans-31"/>
    </g>
   </g>
   <g id="text_15">
    <!-- best 2009 -->
    <defs>
     <path d="M 48.6875 27.296875 
Q 48.6875 37.203125 44.609375 42.84375 
Q 40.53125 48.484375 33.40625 48.484375 
Q 26.265625 48.484375 22.1875 42.84375 
Q 18.109375 37.203125 18.109375 27.296875 
Q 18.109375 17.390625 22.1875 11.75 
Q 26.265625 6.109375 33.40625 6.109375 
Q 40.53125 6.109375 44.609375 11.75 
Q 48.6875 17.390625 48.6875 27.296875 
z
M 18.109375 46.390625 
Q 20.953125 51.265625 25.265625 53.625 
Q 29.59375 56 35.59375 56 
Q 45.5625 56 51.78125 48.09375 
Q 58.015625 40.1875 58.015625 27.296875 
Q 58.015625 14.40625 51.78125 6.484375 
Q 45.5625 -1.421875 35.59375 -1.421875 
Q 29.59375 -1.421875 25.265625 0.953125 
Q 20.953125 3.328125 18.109375 8.203125 
L 18.109375 0 
L 9.078125 0 
L 9.078125 75.984375 
L 18.109375 75.984375 
z
" id="DejaVuSans-62"/>
     <path d="M 10.984375 1.515625 
L 10.984375 10.5 
Q 14.703125 8.734375 18.5 7.8125 
Q 22.3125 6.890625 25.984375 6.890625 
Q 35.75 6.890625 40.890625 13.453125 
Q 46.046875 20.015625 46.78125 33.40625 
Q 43.953125 29.203125 39.59375 26.953125 
Q 35.25 24.703125 29.984375 24.703125 
Q 19.046875 24.703125 12.671875 31.3125 
Q 6.296875 37.9375 6.296875 49.421875 
Q 6.296875 60.640625 12.9375 67.421875 
Q 19.578125 74.21875 30.609375 74.21875 
Q 43.265625 74.21875 49.921875 64.515625 
Q 56.59375 54.828125 56.59375 36.375 
Q 56.59375 19.140625 48.40625 8.859375 
Q 40.234375 -1.421875 26.421875 -1.421875 
Q 22.703125 -1.421875 18.890625 -0.6875 
Q 15.09375 0.046875 10.984375 1.515625 
z
M 30.609375 32.421875 
Q 37.25 32.421875 41.125 36.953125 
Q 45.015625 41.5 45.015625 49.421875 
Q 45.015625 57.28125 41.125 61.84375 
Q 37.25 66.40625 30.609375 66.40625 
Q 23.96875 66.40625 20.09375 61.84375 
Q 16.21875 57.28125 16.21875 49.421875 
Q 16.21875 41.5 20.09375 36.953125 
Q 23.96875 32.421875 30.609375 32.421875 
z
" id="DejaVuSans-39"/>
    </defs>
    <g transform="translate(369.18424 20.091654)scale(0.17 -0.17)">
     <use xlink:href="#DejaVuSans-62"/>
     <use x="63.476562" xlink:href="#DejaVuSans-65"/>
     <use x="125" xlink:href="#DejaVuSans-73"/>
     <use x="177.099609" xlink:href="#DejaVuSans-74"/>
     <use x="216.308594" xlink:href="#DejaVuSans-20"/>
     <use x="248.095703" xlink:href="#DejaVuSans-32"/>
     <use x="311.71875" xlink:href="#DejaVuSans-30"/>
     <use x="375.341797" xlink:href="#DejaVuSans-30"/>
     <use x="438.964844" xlink:href="#DejaVuSans-39"/>
    </g>
   </g>
   <g id="text_16">
    <!-- bbob f1-f5, 10-D -->
    <defs>
     <path d="M 10.796875 72.90625 
L 49.515625 72.90625 
L 49.515625 64.59375 
L 19.828125 64.59375 
L 19.828125 46.734375 
Q 21.96875 47.46875 24.109375 47.828125 
Q 26.265625 48.1875 28.421875 48.1875 
Q 40.625 48.1875 47.75 41.5 
Q 54.890625 34.8125 54.890625 23.390625 
Q 54.890625 11.625 47.5625 5.09375 
Q 40.234375 -1.421875 26.90625 -1.421875 
Q 22.3125 -1.421875 17.546875 -0.640625 
Q 12.796875 0.140625 7.71875 1.703125 
L 7.71875 11.625 
Q 12.109375 9.234375 16.796875 8.0625 
Q 21.484375 6.890625 26.703125 6.890625 
Q 35.15625 6.890625 40.078125 11.328125 
Q 45.015625 15.765625 45.015625 23.390625 
Q 45.015625 31 40.078125 35.4375 
Q 35.15625 39.890625 26.703125 39.890625 
Q 22.75 39.890625 18.8125 39.015625 
Q 14.890625 38.140625 10.796875 36.28125 
z
" id="DejaVuSans-35"/>
     <path d="M 19.671875 64.796875 
L 19.671875 8.109375 
L 31.59375 8.109375 
Q 46.6875 8.109375 53.6875 14.9375 
Q 60.6875 21.78125 60.6875 36.53125 
Q 60.6875 51.171875 53.6875 57.984375 
Q 46.6875 64.796875 31.59375 64.796875 
z
M 9.8125 72.90625 
L 30.078125 72.90625 
Q 51.265625 72.90625 61.171875 64.09375 
Q 71.09375 55.28125 71.09375 36.53125 
Q 71.09375 17.671875 61.125 8.828125 
Q 51.171875 0 30.078125 0 
L 9.8125 0 
z
" id="DejaVuSans-44"/>
    </defs>
    <g transform="translate(58.89048 17.475982)scale(0.102 -0.102)">
     <use xlink:href="#DejaVuSans-62"/>
     <use x="63.476562" xlink:href="#DejaVuSans-62"/>
     <use x="126.953125" xlink:href="#DejaVuSans-6f"/>
     <use x="188.134766" xlink:href="#DejaVuSans-62"/>
     <use x="251.611328" xlink:href="#DejaVuSans-20"/>
     <use x="283.398438" xlink:href="#DejaVuSans-66"/>
     <use x="318.603516" xlink:href="#DejaVuSans-31"/>
     <use x="382.226562" xlink:href="#DejaVuSans-2d"/>
     <use x="418.310547" xlink:href="#DejaVuSans-66"/>
     <use x="453.515625" xlink:href="#DejaVuSans-35"/>
     <use x="517.138672" xlink:href="#DejaVuSans-2c"/>
     <use x="548.925781" xlink:href="#DejaVuSans-20"/>
     <use x="580.712891" xlink:href="#DejaVuSans-31"/>
     <use x="644.335938" xlink:href="#DejaVuSans-30"/>
     <use x="707.958984" xlink:href="#DejaVuSans-2d"/>
     <use x="744.042969" xlink:href="#DejaVuSans-44"/>
    </g>
    <!-- 51 targets: 100..1e-08 -->
    <defs>
     <path d="M 11.71875 12.40625 
L 22.015625 12.40625 
L 22.015625 0 
L 11.71875 0 
z
M 11.71875 51.703125 
L 22.015625 51.703125 
L 22.015625 39.3125 
L 11.71875 39.3125 
z
" id="DejaVuSans-3a"/>
    </defs>
    <g transform="translate(58.89048 28.89775)scale(0.102 -0.102)">
     <use xlink:href="#DejaVuSans-35"/>
     <use x="63.623047" xlink:href="#DejaVuSans-31"/>
     <use x="127.246094" xlink:href="#DejaVuSans-20"/>
     <use x="159.033203" xlink:href="#DejaVuSans-74"/>
     <use x="198.242188" xlink:href="#DejaVuSans-61"/>
     <use x="259.521484" xlink:href="#DejaVuSans-72"/>
     <use x="300.619141" xlink:href="#DejaVuSans-67"/>
     <use x="364.095703" xlink:href="#DejaVuSans-65"/>
     <use x="425.619141" xlink:href="#DejaVuSans-74"/>
     <use x="464.828125" xlink:href="#DejaVuSans-73"/>
     <use x="516.927734" xlink:href="#DejaVuSans-3a"/>
     <use x="550.619141" xlink:href="#DejaVuSans-20"/>
     <use x="582.40625" xlink:href="#DejaVuSans-31"/>
     <use x="646.029297" xlink:href="#DejaVuSans-30"/>
     <use x="709.652344" xlink:href="#DejaVuSans-30"/>
     <use x="773.275391" xlink:href="#DejaVuSans-2e"/>
     <use x="805.0625" xlink:href="#DejaVuSans-2e"/>
     <use x="836.849609" xlink:href="#DejaVuSans-31"/>
     <use x="900.472656" xlink:href="#DejaVuSans-65"/>
     <use x="961.996094" xlink:href="#DejaVuSans-2d"/>
     <use x="998.080078" xlink:href="#DejaVuSans-30"/>
     <use x="1061.703125" xlink:href="#DejaVuSans-38"/>
    </g>
    <!-- 15 instances -->
    <g transform="translate(58.89048 40.319519)scale(0.102 -0.102)">
     <use xlink:href="#DejaVuSans-31"/>
     <use x="63.623047" xlink:href="#DejaVuSans-35"/>
     <use x="127.246094" xlink:href="#DejaVuSans-20"/>
     <use x="159.033203" xlink:href="#DejaVuSans-69"/>
     <use x="186.816406" xlink:href="#DejaVuSans-6e"/>
     <use x="250.195312" xlink:href="#DejaVuSans-73"/>
     <use x="302.294922" xlink:href="#DejaVuSans-74"/>
     <use x="341.503906" xlink:href="#DejaVuSans-61"/>
     <use x="402.783203" xlink:href="#DejaVuSans-6e"/>
     <use x="466.162109" xlink:href="#DejaVuSans-63"/>
     <use x="521.142578" xlink:href="#DejaVuSans-65"/>
     <use x="582.666016" xlink:href="#DejaVuSans-73"/>
    </g>
   </g>
   <g id="text_17">
    <!-- v0.0.0 -->
    <g style="fill:#808080;" transform="translate(178.96275 289.919965)scale(0.1 -0.1)">
     <use xlink:href="#DejaVuSans-76"/>
     <use x="59.179688" xlink:href="#DejaVuSans-30"/>
     <use x="122.802734" xlink:href="#DejaVuSans-2e"/>
     <use x="154.589844" xlink:href="#DejaVuSans-30"/>
     <use x="218.212891" xlink:href="#DejaVuSans-2e"/>
     <use x="250" xlink:href="#DejaVuSans-30"/>
    </g>
   </g>
  </g>
 </g>
 <defs>
  <clipPath id="p5a609e1648">
   <rect height="288.034772" width="277.048" x="56.12" y="6.845228"/>
  </clipPath>
 </defs>
</svg>
