<?xml version="1.0" encoding="utf-8" standalone="no"?>
<!DOCTYPE svg PUBLIC "-//W3C//DTD SVG 1.1//EN"
  "http://www.w3.org/Graphics/SVG/1.1/DTD/svg11.dtd">
<!-- Created with matplotlib (http://matplotlib.org/) -->
<svg height="345.6pt" version="1.1" viewBox="0 0 460.8 345.6" width="460.8pt" xmlns="http://www.w3.org/2000/svg" xmlns:xlink="http://www.w3.org/1999/xlink">
 <defs>
  <style type="text/css">
*{stroke-linecap:butt;stroke-linejoin:round;}
  </style>
 </defs>
 <g id="figure_1">
  <g id="patch_1">
   <path d="M 0 345.6 
L 460.8 345.6 
L 460.8 0 
L 0 0 
z
" style="fill:#ffffff;"/>
  </g>
  <g id="axes_1">
   <g id="patch_2">
    <path d="M 56.12 294.88 
L 333.168 294.88 
L 333.168 6.845228 
L 56.12 6.845228 
z
" style="fill:#ffffff;"/>
   </g>
   <g id="matplotlib.axis_1">
    <g id="xtick_1">
     <g id="line2d_1">
      <path clip-path="url(#p5a6d4db360)" d="M 56.12 294.88 
L 56.12 6.845228 
" style="fill:none;stroke:#b0b0b0;stroke-linecap:square;stroke-width:0.8;"/>
     </g>
     <g id="line2d_2">
      <defs>
       <path d="M 0 0 
L 0 3.5 
" id="m750542072f" style="stroke:#000000;stroke-width:0.8;"/>
      </defs>
      <g>
       <use style="stroke:#000000;stroke-width:0.8;" x="56.12" xlink:href="#m750542072f" y="294.88"/>
      </g>
     </g>
     <g id="text_1">
      <!-- 0 -->
      <defs>
       <path d="M 31.78125 66.40625 
Q 24.171875 66.40625 20.328125 58.90625 
Q 16.5 51.421875 16.5 36.375 
Q 16.5 21.390625 20.328125 13.890625 
Q 24.171875 6.390625 31.78125 6.390625 
Q 39.453125 6.390625 43.28125 13.890625 
Q 47.125 21.390625 47.125 36.375 
Q 47.125 51.421875 43.28125 58.90625 
Q 39.453125 66.40625 31.78125 66.40625 
z
M 31.78125 74.21875 
Q 44.046875 74.21875 50.515625 64.515625 
Q 56.984375 54.828125 56.984375 36.375 
Q 56.984375 17.96875 50.515625 8.265625 
Q 44.046875 -1.421875 31.78125 -1.421875 
Q 19.53125 -1.421875 13.0625 8.265625 
Q 6.59375 17.96875 6.59375 36.375 
Q 6.59375 54.828125 13.0625 64.515625 
Q 19.53125 74.21875 31.78125 74.21875 
z
" id="DejaVuSans-30"/>
      </defs>
      <g transform="translate(49.7575 317.076875)scale(0.2 -0.2)">
       <use xlink:href="#DejaVuSans-30"/>
      </g>
     </g>
    </g>
    <g id="xtick_2">
     <g id="line2d_3">
      <path clip-path="url(#p5a6d4db360)" d="M 135.276571 294.88 
L 135.276571 6.845228 
" style="fill:none;stroke:#b0b0b0;stroke-linecap:square;stroke-width:0.8;"/>
     </g>
     <g id="line2d_4">
      <g>
       <use style="stroke:#000000;stroke-width:0.8;" x="135.276571" xlink:href="#m750542072f" y="294.88"/>
      </g>
     </g>
     <g id="text_2">
      <!-- 2 -->
      <defs>
       <path d="M 19.1875 8.296875 
L 53.609375 8.296875 
L 53.609375 0 
L 7.328125 0 
L 7.328125 8.296875 
Q 12.9375 14.109375 22.625 23.890625 
Q 32.328125 33.6875 34.8125 36.53125 
Q 39.546875 41.84375 41.421875 45.53125 
Q 43.3125 49.21875 43.3125 52.78125 
Q 43.3125 58.59375 39.234375 62.25 
Q 35.15625 65.921875 28.609375 65.921875 
Q 23.96875 65.921875 18.8125 64.3125 
Q 13.671875 62.703125 7.8125 59.421875 
L 7.8125 69.390625 
Q 13.765625 71.78125 18.9375 73 
Q 24.125 74.21875 28.421875 74.21875 
Q 39.75 74.21875 46.484375 68.546875 
Q 53.21875 62.890625 53.21875 53.421875 
Q 53.21875 48.921875 51.53125 44.890625 
Q 49.859375 40.875 45.40625 35.40625 
Q 44.1875 33.984375 37.640625 27.21875 
Q 31.109375 20.453125 19.1875 8.296875 
z
" id="DejaVuSans-32"/>
      </defs>
      <g transform="translate(128.914071 317.076875)scale(0.2 -0.2)">
       <use xlink:href="#DejaVuSans-32"/>
      </g>
     </g>
    </g>
    <g id="xtick_3">
     <g id="line2d_5">
      <path clip-path="url(#p5a6d4db360)" d="M 214.433143 294.88 
L 214.433143 6.845228 
" style="fill:none;stroke:#b0b0b0;stroke-linecap:square;stroke-width:0.8;"/>
     </g>
     <g id="line2d_6">
      <g>
       <use style="stroke:#000000;stroke-width:0.8;" x="214.433143" xlink:href="#m750542072f" y="294.88"/>
      </g>
     </g>
     <g id="text_3">
      <!-- 4 -->
      <defs>
       <path d="M 37.796875 64.3125 
L 12.890625 25.390625 
L 37.796875 25.390625 
z
M 35.203125 72.90625 
L 47.609375 72.90625 
L 47.609375 25.390625 
L 58.015625 25.390625 
L 58.015625 17.1875 
L 47.609375 17.1875 
L 47.609375 0 
L 37.796875 0 
L 37.796875 17.1875 
L 4.890625 17.1875 
L 4.890625 26.703125 
z
" id="DejaVuSans-34"/>
      </defs>
      <g transform="translate(208.070643 317.076875)scale(0.2 -0.2)">
       <use xlink:href="#DejaVuSans-34"/>
      </g>
     </g>
    </g>
    <g id="xtick_4">
     <g id="line2d_7">
      <path clip-path="url(#p5a6d4db360)" d="M 293.589714 294.88 
L 293.589714 6.845228 
" style="fill:none;stroke:#b0b0b0;stroke-linecap:square;stroke-width:0.8;"/>
     </g>
     <g id="line2d_8">
      <g>
       <use style="stroke:#000000;stroke-width:0.8;" x="293.589714" xlink:href="#m750542072f" y="294.88"/>
      </g>
     </g>
     <g id="text_4">
      <!-- 6 -->
      <defs>
       <path d="M 33.015625 40.375 
Q 26.375 40.375 22.484375 35.828125 
Q 18.609375 31.296875 18.609375 23.390625 
Q 18.609375 15.53125 22.484375 10.953125 
Q 26.375 6.390625 33.015625 6.390625 
Q 39.65625 6.390625 43.53125 10.953125 
Q 47.40625 15.53125 47.40625 23.390625 
Q 47.40625 31.296875 43.53125 35.828125 
Q 39.65625 40.375 33.015625 40.375 
z
M 52.59375 71.296875 
L 52.59375 62.3125 
Q 48.875 64.0625 45.09375 64.984375 
Q 41.3125 65.921875 37.59375 65.921875 
Q 27.828125 65.921875 22.671875 59.328125 
Q 17.53125 52.734375 16.796875 39.40625 
Q 19.671875 43.65625 24.015625 45.921875 
Q 28.375 48.1875 33.59375 48.1875 
Q 44.578125 48.1875 50.953125 41.515625 
Q 57.328125 34.859375 57.328125 23.390625 
Q 57.328125 12.15625 50.6875 5.359375 
Q 44.046875 -1.421875 33.015625 -1.421875 
Q 20.359375 -1.421875 13.671875 8.265625 
Q 6.984375 17.96875 6.984375 36.375 
Q 6.984375 53.65625 15.1875 63.9375 
Q 23.390625 74.21875 37.203125 74.21875 
Q 40.921875 74.21875 44.703125 73.484375 
Q 48.484375 72.75 52.59375 71.296875 
z
" id="DejaVuSans-36"/>
      </defs>
      <g transform="translate(287.227214 317.076875)scale(0.2 -0.2)">
       <use xlink:href="#DejaVuSans-36"/>
      </g>
     </g>
    </g>
    <g id="xtick_5">
     <g id="line2d_9">
      <path clip-path="url(#p5a6d4db360)" d="M 56.12 294.88 
L 56.12 6.845228 
" style="fill:none;stroke:#b0b0b0;stroke-linecap:square;stroke-width:0.8;"/>
     </g>
     <g id="line2d_10">
      <defs>
       <path d="M 0 0 
L 0 2 
" id="m671735ef1b" style="stroke:#000000;stroke-width:0.6;"/>
      </defs>
      <g>
       <use style="stroke:#000000;stroke-width:0.6;" x="56.12" xlink:href="#m671735ef1b" y="294.88"/>
      </g>
     </g>
    </g>
    <g id="xtick_6">
     <g id="line2d_11">
      <path clip-path="url(#p5a6d4db360)" d="M 95.698286 294.88 
L 95.698286 6.845228 
" style="fill:none;stroke:#b0b0b0;stroke-linecap:square;stroke-width:0.8;"/>
     </g>
     <g id="line2d_12">
      <g>
       <use style="stroke:#000000;stroke-width:0.6;" x="95.698286" xlink:href="#m671735ef1b" y="294.88"/>
      </g>
     </g>
    </g>
    <g id="xtick_7">
     <g id="line2d_13">
      <path clip-path="url(#p5a6d4db360)" d="M 135.276571 294.88 
L 135.276571 6.845228 
" style="fill:none;stroke:#b0b0b0;stroke-linecap:square;stroke-width:0.8;"/>
     </g>
     <g id="line2d_14">
      <g>
       <use style="stroke:#000000;stroke-width:0.6;" x="135.276571" xlink:href="#m671735ef1b" y="294.88"/>
      </g>
     </g>
    </g>
    <g id="xtick_8">
     <g id="line2d_15">
      <path clip-path="url(#p5a6d4db360)" d="M 174.854857 294.88 
L 174.854857 6.845228 
" style="fill:none;stroke:#b0b0b0;stroke-linecap:square;stroke-width:0.8;"/>
     </g>
     <g id="line2d_16">
      <g>
       <use style="stroke:#000000;stroke-width:0.6;" x="174.854857" xlink:href="#m671735ef1b" y="294.88"/>
      </g>
     </g>
    </g>
    <g id="xtick_9">
     <g id="line2d_17">
      <path clip-path="url(#p5a6d4db360)" d="M 214.433143 294.88 
L 214.433143 6.845228 
" style="fill:none;stroke:#b0b0b0;stroke-linecap:square;stroke-width:0.8;"/>
     </g>
     <g id="line2d_18">
      <g>
       <use style="stroke:#000000;stroke-width:0.6;" x="214.433143" xlink:href="#m671735ef1b" y="294.88"/>
      </g>
     </g>
    </g>
    <g id="xtick_10">
     <g id="line2d_19">
      <path clip-path="url(#p5a6d4db360)" d="M 254.011429 294.88 
L 254.011429 6.845228 
" style="fill:none;stroke:#b0b0b0;stroke-linecap:square;stroke-width:0.8;"/>
     </g>
     <g id="line2d_20">
      <g>
       <use style="stroke:#000000;stroke-width:0.6;" x="254.011429" xlink:href="#m671735ef1b" y="294.88"/>
      </g>
     </g>
    </g>
    <g id="xtick_11">
     <g id="line2d_21">
      <path clip-path="url(#p5a6d4db360)" d="M 293.589714 294.88 
L 293.589714 6.845228 
" style="fill:none;stroke:#b0b0b0;stroke-linecap:square;stroke-width:0.8;"/>
     </g>
     <g id="line2d_22">
      <g>
       <use style="stroke:#000000;stroke-width:0.6;" x="293.589714" xlink:href="#m671735ef1b" y="294.88"/>
      </g>
     </g>
    </g>
    <g id="xtick_12">
     <g id="line2d_23">
      <path clip-path="url(#p5a6d4db360)" d="M 333.168 294.88 
L 333.168 6.845228 
" style="fill:none;stroke:#b0b0b0;stroke-linecap:square;stroke-width:0.8;"/>
     </g>
     <g id="line2d_24">
      <g>
       <use style="stroke:#000000;stroke-width:0.6;" x="333.168" xlink:href="#m671735ef1b" y="294.88"/>
      </g>
     </g>
    </g>
    <g id="text_5">
     <!-- log10(# f-evals / dimension) -->
     <defs>
      <path d="M 9.421875 75.984375 
L 18.40625 75.984375 
L 18.40625 0 
L 9.421875 0 
z
" id="DejaVuSans-6c"/>
      <path d="M 30.609375 48.390625 
Q 23.390625 48.390625 19.1875 42.75 
Q 14.984375 37.109375 14.984375 27.296875 
Q 14.984375 17.484375 19.15625 11.84375 
Q 23.34375 6.203125 30.609375 6.203125 
Q 37.796875 6.203125 41.984375 11.859375 
Q 46.1875 17.53125 46.1875 27.296875 
Q 46.1875 37.015625 41.984375 42.703125 
Q 37.796875 48.390625 30.609375 48.390625 
z
M 30.609375 56 
Q 42.328125 56 49.015625 48.375 
Q 55.71875 40.765625 55.71875 27.296875 
Q 55.71875 13.875 49.015625 6.21875 
Q 42.328125 -1.421875 30.609375 -1.421875 
Q 18.84375 -1.421875 12.171875 6.21875 
Q 5.515625 13.875 5.515625 27.296875 
Q 5.515625 40.765625 12.171875 48.375 
Q 18.84375 56 30.609375 56 
z
" id="DejaVuSans-6f"/>
      <path d="M 45.40625 27.984375 
Q 45.40625 37.75 41.375 43.109375 
Q 37.359375 48.484375 30.078125 48.484375 
Q 22.859375 48.484375 18.828125 43.109375 
Q 14.796875 37.75 14.796875 27.984375 
Q 14.796875 18.265625 18.828125 12.890625 
Q 22.859375 7.515625 30.078125 7.515625 
Q 37.359375 7.515625 41.375 12.890625 
Q 45.40625 18.265625 45.40625 27.984375 
z
M 54.390625 6.78125 
Q 54.390625 -7.171875 48.1875 -13.984375 
Q 42 -20.796875 29.203125 -20.796875 
Q 24.46875 -20.796875 20.265625 -20.09375 
Q 16.0625 -19.390625 12.109375 -17.921875 
L 12.109375 -9.1875 
Q 16.0625 -11.328125 19.921875 -12.34375 
Q 23.78125 -13.375 27.78125 -13.375 
Q 36.625 -13.375 41.015625 -8.765625 
Q 45.40625 -4.15625 45.40625 5.171875 
L 45.40625 9.625 
Q 42.625 4.78125 38.28125 2.390625 
Q 33.9375 0 27.875 0 
Q 17.828125 0 11.671875 7.65625 
Q 5.515625 15.328125 5.515625 27.984375 
Q 5.515625 40.671875 11.671875 48.328125 
Q 17.828125 56 27.875 56 
Q 33.9375 56 38.28125 53.609375 
Q 42.625 51.21875 45.40625 46.390625 
L 45.40625 54.6875 
L 54.390625 54.6875 
z
" id="DejaVuSans-67"/>
      <path d="M 12.40625 8.296875 
L 28.515625 8.296875 
L 28.515625 63.921875 
L 10.984375 60.40625 
L 10.984375 69.390625 
L 28.421875 72.90625 
L 38.28125 72.90625 
L 38.28125 8.296875 
L 54.390625 8.296875 
L 54.390625 0 
L 12.40625 0 
z
" id="DejaVuSans-31"/>
      <path d="M 31 75.875 
Q 24.46875 64.65625 21.28125 53.65625 
Q 18.109375 42.671875 18.109375 31.390625 
Q 18.109375 20.125 21.3125 9.0625 
Q 24.515625 -2 31 -13.1875 
L 23.1875 -13.1875 
Q 15.875 -1.703125 12.234375 9.375 
Q 8.59375 20.453125 8.59375 31.390625 
Q 8.59375 42.28125 12.203125 53.3125 
Q 15.828125 64.359375 23.1875 75.875 
z
" id="DejaVuSans-28"/>
      <path d="M 51.125 44 
L 36.921875 44 
L 32.8125 27.6875 
L 47.125 27.6875 
z
M 43.796875 71.78125 
L 38.71875 51.515625 
L 52.984375 51.515625 
L 58.109375 71.78125 
L 65.921875 71.78125 
L 60.890625 51.515625 
L 76.125 51.515625 
L 76.125 44 
L 58.984375 44 
L 54.984375 27.6875 
L 70.515625 27.6875 
L 70.515625 20.21875 
L 53.078125 20.21875 
L 48 0 
L 40.1875 0 
L 45.21875 20.21875 
L 30.90625 20.21875 
L 25.875 0 
L 18.015625 0 
L 23.09375 20.21875 
L 7.71875 20.21875 
L 7.71875 27.6875 
L 24.90625 27.6875 
L 29 44 
L 13.28125 44 
L 13.28125 51.515625 
L 30.90625 51.515625 
L 35.890625 71.78125 
z
" id="DejaVuSans-23"/>
      <path id="DejaVuSans-20"/>
      <path d="M 37.109375 75.984375 
L 37.109375 68.5 
L 28.515625 68.5 
Q 23.6875 68.5 21.796875 66.546875 
Q 19.921875 64.59375 19.921875 59.515625 
L 19.921875 54.6875 
L 34.71875 54.6875 
L 34.71875 47.703125 
L 19.921875 47.703125 
L 19.921875 0 
L 10.890625 0 
L 10.890625 47.703125 
L 2.296875 47.703125 
L 2.296875 54.6875 
L 10.890625 54.6875 
L 10.890625 58.5 
Q 10.890625 67.625 15.140625 71.796875 
Q 19.390625 75.984375 28.609375 75.984375 
z
" id="DejaVuSans-66"/>
      <path d="M 4.890625 31.390625 
L 31.203125 31.390625 
L 31.203125 23.390625 
L 4.890625 23.390625 
z
" id="DejaVuSans-2d"/>
      <path d="M 56.203125 29.59375 
L 56.203125 25.203125 
L 14.890625 25.203125 
Q 15.484375 15.921875 20.484375 11.0625 
Q 25.484375 6.203125 34.421875 6.203125 
Q 39.59375 6.203125 44.453125 7.46875 
Q 49.3125 8.734375 54.109375 11.28125 
L 54.109375 2.78125 
Q 49.265625 0.734375 44.1875 -0.34375 
Q 39.109375 -1.421875 33.890625 -1.421875 
Q 20.796875 -1.421875 13.15625 6.1875 
Q 5.515625 13.8125 5.515625 26.8125 
Q 5.515625 40.234375 12.765625 48.109375 
Q 20.015625 56 32.328125 56 
Q 43.359375 56 49.78125 48.890625 
Q 56.203125 41.796875 56.203125 29.59375 
z
M 47.21875 32.234375 
Q 47.125 39.59375 43.09375 43.984375 
Q 39.0625 48.390625 32.421875 48.390625 
Q 24.90625 48.390625 20.390625 44.140625 
Q 15.875 39.890625 15.1875 32.171875 
z
" id="DejaVuSans-65"/>
      <path d="M 2.984375 54.6875 
L 12.5 54.6875 
L 29.59375 8.796875 
L 46.6875 54.6875 
L 56.203125 54.6875 
L 35.6875 0 
L 23.484375 0 
z
" id="DejaVuSans-76"/>
      <path d="M 34.28125 27.484375 
Q 23.390625 27.484375 19.1875 25 
Q 14.984375 22.515625 14.984375 16.5 
Q 14.984375 11.71875 18.140625 8.90625 
Q 21.296875 6.109375 26.703125 6.109375 
Q 34.1875 6.109375 38.703125 11.40625 
Q 43.21875 16.703125 43.21875 25.484375 
L 43.21875 27.484375 
z
M 52.203125 31.203125 
L 52.203125 0 
L 43.21875 0 
L 43.21875 8.296875 
Q 40.140625 3.328125 35.546875 0.953125 
Q 30.953125 -1.421875 24.3125 -1.421875 
Q 15.921875 -1.421875 10.953125 3.296875 
Q 6 8.015625 6 15.921875 
Q 6 25.140625 12.171875 29.828125 
Q 18.359375 34.515625 30.609375 34.515625 
L 43.21875 34.515625 
L 43.21875 35.40625 
Q 43.21875 41.609375 39.140625 45 
Q 35.0625 48.390625 27.6875 48.390625 
Q 23 48.390625 18.546875 47.265625 
Q 14.109375 46.140625 10.015625 43.890625 
L 10.015625 52.203125 
Q 14.9375 54.109375 19.578125 55.046875 
Q 24.21875 56 28.609375 56 
Q 40.484375 56 46.34375 49.84375 
Q 52.203125 43.703125 52.203125 31.203125 
z
" id="DejaVuSans-61"/>
      <path d="M 44.28125 53.078125 
L 44.28125 44.578125 
Q 40.484375 46.53125 36.375 47.5 
Q 32.28125 48.484375 27.875 48.484375 
Q 21.1875 48.484375 17.84375 46.4375 
Q 14.5 44.390625 14.5 40.28125 
Q 14.5 37.15625 16.890625 35.375 
Q 19.28125 33.59375 26.515625 31.984375 
L 29.59375 31.296875 
Q 39.15625 29.25 43.1875 25.515625 
Q 47.21875 21.78125 47.21875 15.09375 
Q 47.21875 7.46875 41.1875 3.015625 
Q 35.15625 -1.421875 24.609375 -1.421875 
Q 20.21875 -1.421875 15.453125 -0.5625 
Q 10.6875 0.296875 5.421875 2 
L 5.421875 11.28125 
Q 10.40625 8.6875 15.234375 7.390625 
Q 20.0625 6.109375 24.8125 6.109375 
Q 31.15625 6.109375 34.5625 8.28125 
Q 37.984375 10.453125 37.984375 14.40625 
Q 37.984375 18.0625 35.515625 20.015625 
Q 33.0625 21.96875 24.703125 23.78125 
L 21.578125 24.515625 
Q 13.234375 26.265625 9.515625 29.90625 
Q 5.8125 33.546875 5.8125 39.890625 
Q 5.8125 47.609375 11.28125 51.796875 
Q 16.75 56 26.8125 56 
Q 31.78125 56 36.171875 55.265625 
Q 40.578125 54.546875 44.28125 53.078125 
z
" id="DejaVuSans-73"/>
      <path d="M 25.390625 72.90625 
L 33.6875 72.90625 
L 8.296875 -9.28125 
L 0 -9.28125 
z
" id="DejaVuSans-2f"/>
      <path d="M 45.40625 46.390625 
L 45.40625 75.984375 
L 54.390625 75.984375 
L 54.390625 0 
L 45.40625 0 
L 45.40625 8.203125 
Q 42.578125 3.328125 38.25 0.953125 
Q 33.9375 -1.421875 27.875 -1.421875 
Q 17.96875 -1.421875 11.734375 6.484375 
Q 5.515625 14.40625 5.515625 27.296875 
Q 5.515625 40.1875 11.734375 48.09375 
Q 17.96875 56 27.875 56 
Q 33.9375 56 38.25 53.625 
Q 42.578125 51.265625 45.40625 46.390625 
z
M 14.796875 27.296875 
Q 14.796875 17.390625 18.875 11.75 
Q 22.953125 6.109375 30.078125 6.109375 
Q 37.203125 6.109375 41.296875 11.75 
Q 45.40625 17.390625 45.40625 27.296875 
Q 45.40625 37.203125 41.296875 42.84375 
Q 37.203125 48.484375 30.078125 48.484375 
Q 22.953125 48.484375 18.875 42.84375 
Q 14.796875 37.203125 14.796875 27.296875 
z
" id="DejaVuSans-64"/>
      <path d="M 9.421875 54.6875 
L 18.40625 54.6875 
L 18.40625 0 
L 9.421875 0 
z
M 9.421875 75.984375 
L 18.40625 75.984375 
L 18.40625 64.59375 
L 9.421875 64.59375 
z
" id="DejaVuSans-69"/>
      <path d="M 52 44.1875 
Q 55.375 50.25 60.0625 53.125 
Q 64.75 56 71.09375 56 
Q 79.640625 56 84.28125 50.015625 
Q 88.921875 44.046875 88.921875 33.015625 
L 88.921875 0 
L 79.890625 0 
L 79.890625 32.71875 
Q 79.890625 40.578125 77.09375 44.375 
Q 74.3125 48.1875 68.609375 48.1875 
Q 61.625 48.1875 57.5625 43.546875 
Q 53.515625 38.921875 53.515625 30.90625 
L 53.515625 0 
L 44.484375 0 
L 44.484375 32.71875 
Q 44.484375 40.625 41.703125 44.40625 
Q 38.921875 48.1875 33.109375 48.1875 
Q 26.21875 48.1875 22.15625 43.53125 
Q 18.109375 38.875 18.109375 30.90625 
L 18.109375 0 
L 9.078125 0 
L 9.078125 54.6875 
L 18.109375 54.6875 
L 18.109375 46.1875 
Q 21.1875 51.21875 25.484375 53.609375 
Q 29.78125 56 35.6875 56 
Q 41.65625 56 45.828125 52.96875 
Q 50 49.953125 52 44.1875 
z
" id="DejaVuSans-6d"/>
      <path d="M 54.890625 33.015625 
L 54.890625 0 
L 45.90625 0 
L 45.90625 32.71875 
Q 45.90625 40.484375 42.875 44.328125 
Q 39.84375 48.1875 33.796875 48.1875 
Q 26.515625 48.1875 22.3125 43.546875 
Q 18.109375 38.921875 18.109375 30.90625 
L 18.109375 0 
L 9.078125 0 
L 9.078125 54.6875 
L 18.109375 54.6875 
L 18.109375 46.1875 
Q 21.34375 51.125 25.703125 53.5625 
Q 30.078125 56 35.796875 56 
Q 45.21875 56 50.046875 50.171875 
Q 54.890625 44.34375 54.890625 33.015625 
z
" id="DejaVuSans-6e"/>
      <path d="M 8.015625 75.875 
L 15.828125 75.875 
Q 23.140625 64.359375 26.78125 53.3125 
Q 30.421875 42.28125 30.421875 31.390625 
Q 30.421875 20.453125 26.78125 9.375 
Q 23.140625 -1.703125 15.828125 -13.1875 
L 8.015625 -13.1875 
Q 14.5 -2 17.703125 9.0625 
Q 20.90625 20.125 20.90625 31.390625 
Q 20.90625 42.671875 17.703125 53.65625 
Q 14.5 64.65625 8.015625 75.875 
z
" id="DejaVuSans-29"/>
     </defs>
     <g transform="translate(73.803219 338.153594)scale(0.17 -0.17)">
      <use xlink:href="#DejaVuSans-6c"/>
      <use x="27.783203" xlink:href="#DejaVuSans-6f"/>
      <use x="88.964844" xlink:href="#DejaVuSans-67"/>
      <use x="152.441406" xlink:href="#DejaVuSans-31"/>
      <use x="216.064453" xlink:href="#DejaVuSans-30"/>
      <use x="279.6875" xlink:href="#DejaVuSans-28"/>
      <use x="318.701172" xlink:href="#DejaVuSans-23"/>
      <use x="402.490234" xlink:href="#DejaVuSans-20"/>
      <use x="434.277344" xlink:href="#DejaVuSans-66"/>
      <use x="469.404297" xlink:href="#DejaVuSans-2d"/>
      <use x="505.488281" xlink:href="#DejaVuSans-65"/>
      <use x="567.011719" xlink:href="#DejaVuSans-76"/>
      <use x="626.191406" xlink:href="#DejaVuSans-61"/>
      <use x="687.470703" xlink:href="#DejaVuSans-6c"/>
      <use x="715.253906" xlink:href="#DejaVuSans-73"/>
      <use x="767.353516" xlink:href="#DejaVuSans-20"/>
      <use x="799.140625" xlink:href="#DejaVuSans-2f"/>
      <use x="832.832031" xlink:href="#DejaVuSans-20"/>
      <use x="864.619141" xlink:href="#DejaVuSans-64"/>
      <use x="928.095703" xlink:href="#DejaVuSans-69"/>
      <use x="955.878906" xlink:href="#DejaVuSans-6d"/>
      <use x="1053.291016" xlink:href="#DejaVuSans-65"/>
      <use x="1114.814453" xlink:href="#DejaVuSans-6e"/>
      <use x="1178.193359" xlink:href="#DejaVuSans-73"/>
      <use x="1230.292969" xlink:href="#DejaVuSans-69"/>
      <use x="1258.076172" xlink:href="#DejaVuSans-6f"/>
      <use x="1319.257812" xlink:href="#DejaVuSans-6e"/>
      <use x="1382.636719" xlink:href="#DejaVuSans-29"/>
     </g>
    </g>
   </g>
   <g id="matplotlib.axis_2">
    <g id="ytick_1">
     <g id="line2d_25">
      <path clip-path="url(#p5a6d4db360)" d="M 56.12 294.88 
L 333.168 294.88 
" style="fill:none;stroke:#b0b0b0;stroke-linecap:square;stroke-width:0.8;"/>
     </g>
     <g id="line2d_26">
      <defs>
       <path d="M 0 0 
L -3.5 0 
" id="m4737bc4d0c" style="stroke:#000000;stroke-width:0.8;"/>
      </defs>
      <g>
       <use style="stroke:#000000;stroke-width:0.8;" x="56.12" xlink:href="#m4737bc4d0c" y="294.88"/>
      </g>
     </g>
     <g id="text_6">
      <!-- 0.0 -->
      <defs>
       <path d="M 10.6875 12.40625 
L 21 12.40625 
L 21 0 
L 10.6875 0 
z
" id="DejaVuSans-2e"/>
      </defs>
      <g transform="translate(23.675 300.95875)scale(0.16 -0.16)">
       <use xlink:href="#DejaVuSans-30"/>
       <use x="63.623047" xlink:href="#DejaVuSans-2e"/>
       <use x="95.410156" xlink:href="#DejaVuSans-30"/>
      </g>
     </g>
    </g>
    <g id="ytick_2">
     <g id="line2d_27">
      <path clip-path="url(#p5a6d4db360)" d="M 56.12 237.843411 
L 333.168 237.843411 
" style="fill:none;stroke:#b0b0b0;stroke-linecap:square;stroke-width:0.8;"/>
     </g>
     <g id="line2d_28">
      <g>
       <use style="stroke:#000000;stroke-width:0.8;" x="56.12" xlink:href="#m4737bc4d0c" y="237.843411"/>
      </g>
     </g>
     <g id="text_7">
      <!-- 0.2 -->
      <g transform="translate(23.675 243.922161)scale(0.16 -0.16)">
       <use xlink:href="#DejaVuSans-30"/>
       <use x="63.623047" xlink:href="#DejaVuSans-2e"/>
       <use x="95.410156" xlink:href="#DejaVuSans-32"/>
      </g>
     </g>
    </g>
    <g id="ytick_3">
     <g id="line2d_29">
      <path clip-path="url(#p5a6d4db360)" d="M 56.12 180.806823 
L 333.168 180.806823 
" style="fill:none;stroke:#b0b0b0;stroke-linecap:square;stroke-width:0.8;"/>
     </g>
     <g id="line2d_30">
      <g>
       <use style="stroke:#000000;stroke-width:0.8;" x="56.12" xlink:href="#m4737bc4d0c" y="180.806823"/>
      </g>
     </g>
     <g id="text_8">
      <!-- 0.4 -->
      <g transform="translate(23.675 186.885573)scale(0.16 -0.16)">
       <use xlink:href="#DejaVuSans-30"/>
       <use x="63.623047" xlink:href="#DejaVuSans-2e"/>
       <use x="95.410156" xlink:href="#DejaVuSans-34"/>
      </g>
     </g>
    </g>
    <g id="ytick_4">
     <g id="line2d_31">
      <path clip-path="url(#p5a6d4db360)" d="M 56.12 123.770234 
L 333.168 123.770234 
" style="fill:none;stroke:#b0b0b0;stroke-linecap:square;stroke-width:0.8;"/>
     </g>
     <g id="line2d_32">
      <g>
       <use style="stroke:#000000;stroke-width:0.8;" x="56.12" xlink:href="#m4737bc4d0c" y="123.770234"/>
      </g>
     </g>
     <g id="text_9">
      <!-- 0.6 -->
      <g transform="translate(23.675 129.848984)scale(0.16 -0.16)">
       <use xlink:href="#DejaVuSans-30"/>
       <use x="63.623047" xlink:href="#DejaVuSans-2e"/>
       <use x="95.410156" xlink:href="#DejaVuSans-36"/>
      </g>
     </g>
    </g>
    <g id="ytick_5">
     <g id="line2d_33">
      <path clip-path="url(#p5a6d4db360)" d="M 56.12 66.733646 
L 333.168 66.733646 
" style="fill:none;stroke:#b0b0b0;stroke-linecap:square;stroke-width:0.8;"/>
     </g>
     <g id="line2d_34">
      <g>
       <use style="stroke:#000000;stroke-width:0.8;" x="56.12" xlink:href="#m4737bc4d0c" y="66.733646"/>
      </g>
     </g>
     <g id="text_10">
      <!-- 0.8 -->
      <defs>
       <path d="M 31.78125 34.625 
Q 24.75 34.625 20.71875 30.859375 
Q 16.703125 27.09375 16.703125 20.515625 
Q 16.703125 13.921875 20.71875 10.15625 
Q 24.75 6.390625 31.78125 6.390625 
Q 38.8125 6.390625 42.859375 10.171875 
Q 46.921875 13.96875 46.921875 20.515625 
Q 46.921875 27.09375 42.890625 30.859375 
Q 38.875 34.625 31.78125 34.625 
z
M 21.921875 38.8125 
Q 15.578125 40.375 12.03125 44.71875 
Q 8.5 49.078125 8.5 55.328125 
Q 8.5 64.0625 14.71875 69.140625 
Q 20.953125 74.21875 31.78125 74.21875 
Q 42.671875 74.21875 48.875 69.140625 
Q 55.078125 64.0625 55.078125 55.328125 
Q 55.078125 49.078125 51.53125 44.71875 
Q 48 40.375 41.703125 38.8125 
Q 48.828125 37.15625 52.796875 32.3125 
Q 56.78125 27.484375 56.78125 20.515625 
Q 56.78125 9.90625 50.3125 4.234375 
Q 43.84375 -1.421875 31.78125 -1.421875 
Q 19.734375 -1.421875 13.25 4.234375 
Q 6.78125 9.90625 6.78125 20.515625 
Q 6.78125 27.484375 10.78125 32.3125 
Q 14.796875 37.15625 21.921875 38.8125 
z
M 18.3125 54.390625 
Q 18.3125 48.734375 21.84375 45.5625 
Q 25.390625 42.390625 31.78125 42.390625 
Q 38.140625 42.390625 41.71875 45.5625 
Q 45.3125 48.734375 45.3125 54.390625 
Q 45.3125 60.0625 41.71875 63.234375 
Q 38.140625 66.40625 31.78125 66.40625 
Q 25.390625 66.40625 21.84375 63.234375 
Q 18.3125 60.0625 18.3125 54.390625 
z
" id="DejaVuSans-38"/>
      </defs>
      <g transform="translate(23.675 72.812396)scale(0.16 -0.16)">
       <use xlink:href="#DejaVuSans-30"/>
       <use x="63.623047" xlink:href="#DejaVuSans-2e"/>
       <use x="95.410156" xlink:href="#DejaVuSans-38"/>
      </g>
     </g>
    </g>
    <g id="ytick_6">
     <g id="line2d_35">
      <path clip-path="url(#p5a6d4db360)" d="M 56.12 9.697057 
L 333.168 9.697057 
" style="fill:none;stroke:#b0b0b0;stroke-linecap:square;stroke-width:0.8;"/>
     </g>
     <g id="line2d_36">
      <g>
       <use style="stroke:#000000;stroke-width:0.8;" x="56.12" xlink:href="#m4737bc4d0c" y="9.697057"/>
      </g>
     </g>
     <g id="text_11">
      <!-- 1.0 -->
      <g transform="translate(23.675 15.775807)scale(0.16 -0.16)">
       <use xlink:href="#DejaVuSans-31"/>
       <use x="63.623047" xlink:href="#DejaVuSans-2e"/>
       <use x="95.410156" xlink:href="#DejaVuSans-30"/>
      </g>
     </g>
    </g>
    <g id="text_12">
     <!-- Fraction of function,target pairs -->
     <defs>
      <path d="M 9.8125 72.90625 
L 51.703125 72.90625 
L 51.703125 64.59375 
L 19.671875 64.59375 
L 19.671875 43.109375 
L 48.578125 43.109375 
L 48.578125 34.8125 
L 19.671875 34.8125 
L 19.671875 0 
L 9.8125 0 
z
" id="DejaVuSans-46"/>
      <path d="M 41.109375 46.296875 
Q 39.59375 47.171875 37.8125 47.578125 
Q 36.03125 48 33.890625 48 
Q 26.265625 48 22.1875 43.046875 
Q 18.109375 38.09375 18.109375 28.8125 
L 18.109375 0 
L 9.078125 0 
L 9.078125 54.6875 
L 18.109375 54.6875 
L 18.109375 46.1875 
Q 20.953125 51.171875 25.484375 53.578125 
Q 30.03125 56 36.53125 56 
Q 37.453125 56 38.578125 55.875 
Q 39.703125 55.765625 41.0625 55.515625 
z
" id="DejaVuSans-72"/>
      <path d="M 48.78125 52.59375 
L 48.78125 44.1875 
Q 44.96875 46.296875 41.140625 47.34375 
Q 37.3125 48.390625 33.40625 48.390625 
Q 24.65625 48.390625 19.8125 42.84375 
Q 14.984375 37.3125 14.984375 27.296875 
Q 14.984375 17.28125 19.8125 11.734375 
Q 24.65625 6.203125 33.40625 6.203125 
Q 37.3125 6.203125 41.140625 7.25 
Q 44.96875 8.296875 48.78125 10.40625 
L 48.78125 2.09375 
Q 45.015625 0.34375 40.984375 -0.53125 
Q 36.96875 -1.421875 32.421875 -1.421875 
Q 20.0625 -1.421875 12.78125 6.34375 
Q 5.515625 14.109375 5.515625 27.296875 
Q 5.515625 40.671875 12.859375 48.328125 
Q 20.21875 56 33.015625 56 
Q 37.15625 56 41.109375 55.140625 
Q 45.0625 54.296875 48.78125 52.59375 
z
" id="DejaVuSans-63"/>
      <path d="M 18.3125 70.21875 
L 18.3125 54.6875 
L 36.8125 54.6875 
L 36.8125 47.703125 
L 18.3125 47.703125 
L 18.3125 18.015625 
Q 18.3125 11.328125 20.140625 9.421875 
Q 21.96875 7.515625 27.59375 7.515625 
L 36.8125 7.515625 
L 36.8125 0 
L 27.59375 0 
Q 17.1875 0 13.234375 3.875 
Q 9.28125 7.765625 9.28125 18.015625 
L 9.28125 47.703125 
L 2.6875 47.703125 
L 2.6875 54.6875 
L 9.28125 54.6875 
L 9.28125 70.21875 
z
" id="DejaVuSans-74"/>
      <path d="M 8.5 21.578125 
L 8.5 54.6875 
L 17.484375 54.6875 
L 17.484375 21.921875 
Q 17.484375 14.15625 20.5 10.265625 
Q 23.53125 6.390625 29.59375 6.390625 
Q 36.859375 6.390625 41.078125 11.03125 
Q 45.3125 15.671875 45.3125 23.6875 
L 45.3125 54.6875 
L 54.296875 54.6875 
L 54.296875 0 
L 45.3125 0 
L 45.3125 8.40625 
Q 42.046875 3.421875 37.71875 1 
Q 33.40625 -1.421875 27.6875 -1.421875 
Q 18.265625 -1.421875 13.375 4.4375 
Q 8.5 10.296875 8.5 21.578125 
z
M 31.109375 56 
z
" id="DejaVuSans-75"/>
      <path d="M 11.71875 12.40625 
L 22.015625 12.40625 
L 22.015625 4 
L 14.015625 -11.625 
L 7.71875 -11.625 
L 11.71875 4 
z
" id="DejaVuSans-2c"/>
      <path d="M 18.109375 8.203125 
L 18.109375 -20.796875 
L 9.078125 -20.796875 
L 9.078125 54.6875 
L 18.109375 54.6875 
L 18.109375 46.390625 
Q 20.953125 51.265625 25.265625 53.625 
Q 29.59375 56 35.59375 56 
Q 45.5625 56 51.78125 48.09375 
Q 58.015625 40.1875 58.015625 27.296875 
Q 58.015625 14.40625 51.78125 6.484375 
Q 45.5625 -1.421875 35.59375 -1.421875 
Q 29.59375 -1.421875 25.265625 0.953125 
Q 20.953125 3.328125 18.109375 8.203125 
z
M 48.6875 27.296875 
Q 48.6875 37.203125 44.609375 42.84375 
Q 40.53125 48.484375 33.40625 48.484375 
Q 26.265625 48.484375 22.1875 42.84375 
Q 18.109375 37.203125 18.109375 27.296875 
Q 18.109375 17.390625 22.1875 11.75 
Q 26.265625 6.109375 33.40625 6.109375 
Q 40.53125 6.109375 44.609375 11.75 
Q 48.6875 17.390625 48.6875 27.296875 
z
" id="DejaVuSans-70"/>
     </defs>
     <g transform="translate(16.139531 286.001989)rotate(-90)scale(0.17 -0.17)">
      <use xlink:href="#DejaVuSans-46"/>
      <use x="57.410156" xlink:href="#DejaVuSans-72"/>
      <use x="98.523438" xlink:href="#DejaVuSans-61"/>
      <use x="159.802734" xlink:href="#DejaVuSans-63"/>
      <use x="214.783203" xlink:href="#DejaVuSans-74"/>
      <use x="253.992188" xlink:href="#DejaVuSans-69"/>
      <use x="281.775391" xlink:href="#DejaVuSans-6f"/>
      <use x="342.957031" xlink:href="#DejaVuSans-6e"/>
      <use x="406.335938" xlink:href="#DejaVuSans-20"/>
      <use x="438.123047" xlink:href="#DejaVuSans-6f"/>
      <use x="499.304688" xlink:href="#DejaVuSans-66"/>
      <use x="534.509766" xlink:href="#DejaVuSans-20"/>
      <use x="566.296875" xlink:href="#DejaVuSans-66"/>
      <use x="601.501953" xlink:href="#DejaVuSans-75"/>
      <use x="664.880859" xlink:href="#DejaVuSans-6e"/>
      <use x="728.259766" xlink:href="#DejaVuSans-63"/>
      <use x="783.240234" xlink:href="#DejaVuSans-74"/>
      <use x="822.449219" xlink:href="#DejaVuSans-69"/>
      <use x="850.232422" xlink:href="#DejaVuSans-6f"/>
      <use x="911.414062" xlink:href="#DejaVuSans-6e"/>
      <use x="974.792969" xlink:href="#DejaVuSans-2c"/>
      <use x="1006.580078" xlink:href="#DejaVuSans-74"/>
      <use x="1045.789062" xlink:href="#DejaVuSans-61"/>
      <use x="1107.068359" xlink:href="#DejaVuSans-72"/>
      <use x="1148.166016" xlink:href="#DejaVuSans-67"/>
      <use x="1211.642578" xlink:href="#DejaVuSans-65"/>
      <use x="1273.166016" xlink:href="#DejaVuSans-74"/>
      <use x="1312.375" xlink:href="#DejaVuSans-20"/>
      <use x="1344.162109" xlink:href="#DejaVuSans-70"/>
      <use x="1407.638672" xlink:href="#DejaVuSans-61"/>
      <use x="1468.917969" xlink:href="#DejaVuSans-69"/>
      <use x="1496.701172" xlink:href="#DejaVuSans-72"/>
      <use x="1537.814453" xlink:href="#DejaVuSans-73"/>
     </g>
    </g>
   </g>
   <g id="line2d_37">
    <defs>
     <path d="M 0 1.5 
C 0.397805 1.5 0.77937 1.341951 1.06066 1.06066 
C 1.341951 0.77937 1.5 0.397805 1.5 0 
C 1.5 -0.397805 1.341951 -0.77937 1.06066 -1.06066 
C 0.77937 -1.341951 0.397805 -1.5 0 -1.5 
C -0.397805 -1.5 -0.77937 -1.341951 -1.06066 -1.06066 
C -1.341951 -0.77937 -1.5 -0.397805 -1.5 0 
C -1.5 0.397805 -1.341951 0.77937 -1.06066 1.06066 
C -0.77937 1.341951 -0.397805 1.5 0 1.5 
z
" id="m57daf97632" style="stroke:#000080;"/>
    </defs>
    <g>
     <use style="fill:#000080;stroke:#000080;" x="181.643778" xlink:href="#m57daf97632" y="9.697057"/>
     <use style="fill:#000080;stroke:#000080;" x="181.643778" xlink:href="#m57daf97632" y="9.697057"/>
    </g>
   </g>
   <g id="line2d_38">
    <path d="M 37.236359 294.88 
L 37.236359 269.157617 
L 49.15061 269.157617 
L 49.15061 268.598435 
L 56.12 268.598435 
L 56.12 266.361706 
L 61.064861 266.361706 
L 61.064861 265.802523 
L 68.034251 265.802523 
L 68.034251 263.565795 
L 75.003641 263.565795 
L 75.003641 262.44743 
L 76.814644 262.44743 
L 76.814644 259.092337 
L 81.324327 259.092337 
L 81.324327 256.296425 
L 82.598142 256.296425 
L 82.598142 255.737243 
L 84.893363 255.737243 
L 84.893363 254.618879 
L 86.917893 254.618879 
L 86.917893 252.38215 
L 87.847234 252.38215 
L 87.847234 251.263785 
L 91.862754 251.263785 
L 91.862754 249.586238 
L 96.807615 249.586238 
L 96.807615 247.908692 
L 100.643147 247.908692 
L 100.643147 246.790327 
L 101.067579 246.790327 
L 101.067579 246.231145 
L 101.88624 246.231145 
L 101.88624 245.112781 
L 102.281398 245.112781 
L 102.281398 244.553598 
L 104.819059 244.553598 
L 104.819059 243.994416 
L 107.029816 243.994416 
L 107.029816 243.435234 
L 107.896653 243.435234 
L 107.896653 242.876052 
L 108.988361 242.876052 
L 108.988361 242.316869 
L 110.505991 242.316869 
L 110.505991 240.639323 
L 114.959714 240.639323 
L 114.959714 240.08014 
L 117.874207 240.08014 
L 117.874207 238.402594 
L 119.237897 238.402594 
L 119.237897 236.725047 
L 119.95122 236.725047 
L 119.95122 236.165865 
L 120.365424 236.165865 
L 120.365424 232.251589 
L 121.804096 232.251589 
L 121.804096 231.692407 
L 126.304124 231.692407 
L 126.304124 231.133225 
L 129.063771 231.133225 
L 129.063771 230.574042 
L 129.470141 230.574042 
L 129.470141 230.01486 
L 129.70943 230.01486 
L 129.788458 228.337313 
L 132.61738 228.337313 
L 132.61738 227.778131 
L 133.592422 227.778131 
L 133.592422 227.218949 
L 134.69385 227.218949 
L 134.69385 225.541402 
L 134.929315 225.541402 
L 134.929315 223.304673 
L 136.115208 223.304673 
L 136.115208 222.186309 
L 138.314671 222.186309 
L 138.314671 221.627126 
L 139.653523 221.627126 
L 139.653523 221.067944 
L 140.854214 221.067944 
L 140.854214 218.831215 
L 141.344185 218.831215 
L 141.344185 215.476122 
L 141.976481 215.476122 
L 141.976481 213.798575 
L 144.498158 213.798575 
L 144.498158 213.239393 
L 144.862829 213.239393 
L 144.862829 211.561846 
L 145.187766 211.561846 
L 145.187766 211.002664 
L 145.85077 211.002664 
L 145.85077 209.884299 
L 146.066208 209.884299 
L 146.066208 209.325117 
L 146.429362 209.325117 
L 146.429362 208.206753 
L 146.726237 208.206753 
L 146.726237 207.64757 
L 147.361855 207.64757 
L 147.361855 205.970024 
L 148.056721 205.970024 
L 148.111115 204.851659 
L 148.513678 204.851659 
L 148.513678 203.174112 
L 148.776908 203.174112 
L 148.776908 202.61493 
L 149.741959 202.61493 
L 149.741959 201.496566 
L 150.108469 201.496566 
L 150.204899 198.700655 
L 150.300791 198.700655 
L 150.300791 198.141472 
L 150.419909 198.141472 
L 150.419909 197.58229 
L 150.561769 197.58229 
L 150.561769 195.904743 
L 150.702468 195.904743 
L 150.772388 194.227197 
L 150.818844 194.227197 
L 150.888293 191.431285 
L 151.117784 191.431285 
L 151.117784 190.872103 
L 151.276624 190.872103 
L 151.276624 189.753739 
L 151.567774 189.753739 
L 151.567774 188.635374 
L 152.114184 188.635374 
L 152.114184 187.51701 
L 152.412754 187.51701 
L 152.518141 184.721099 
L 152.685428 184.721099 
L 152.685428 184.161916 
L 153.137246 184.161916 
L 153.238297 179.129276 
L 153.773935 179.129276 
L 153.773935 178.570094 
L 154.160213 178.570094 
L 154.160213 178.010912 
L 155.885057 178.010912 
L 155.885057 176.892547 
L 156.022705 176.892547 
L 156.022705 176.333365 
L 156.244057 176.333365 
L 156.244057 175.774183 
L 156.429154 175.774183 
L 156.429154 174.096636 
L 156.875208 174.096636 
L 156.875208 172.978271 
L 157.005179 172.978271 
L 157.021357 171.300725 
L 157.26221 171.300725 
L 157.341751 169.623178 
L 157.811415 169.623178 
L 157.826851 166.827267 
L 157.96516 166.827267 
L 157.995745 164.031356 
L 158.743194 164.031356 
L 158.787024 162.912991 
L 158.859827 162.912991 
L 158.859827 162.353809 
L 159.076402 162.353809 
L 159.076402 161.235444 
L 159.724044 161.235444 
L 159.724044 158.998715 
L 159.984587 158.998715 
L 159.984587 157.880351 
L 160.106637 157.880351 
L 160.106637 155.08444 
L 160.782346 155.08444 
L 160.782346 153.966075 
L 160.937549 153.966075 
L 160.937549 152.847711 
L 161.469983 152.847711 
L 161.469983 148.933435 
L 161.668554 148.933435 
L 161.766986 147.255888 
L 161.901416 147.255888 
L 161.974301 141.664066 
L 162.779425 141.664066 
L 162.779425 141.104884 
L 163.224722 141.104884 
L 163.224722 139.986519 
L 163.415273 139.986519 
L 163.493125 138.308973 
L 163.537454 138.308973 
L 163.537454 137.74979 
L 163.97457 137.74979 
L 164.039189 133.276332 
L 164.210328 133.276332 
L 164.210328 132.71715 
L 164.411366 132.71715 
L 164.411366 132.157968 
L 164.919238 132.157968 
L 164.919238 131.598786 
L 165.152548 131.598786 
L 165.263022 127.68451 
L 165.658863 127.68451 
L 165.668643 124.329417 
L 166.264396 124.329417 
L 166.302131 122.65187 
L 166.794463 122.65187 
L 166.794463 120.415141 
L 167.01285 120.415141 
L 167.085033 118.178412 
L 167.326438 118.178412 
L 167.326438 117.060047 
L 167.485511 117.060047 
L 167.494306 114.264136 
L 167.616957 114.264136 
L 167.616957 113.704954 
L 167.996832 113.704954 
L 168.082008 109.231496 
L 168.24269 109.231496 
L 168.24269 108.113132 
L 168.468475 108.113132 
L 168.468475 107.553949 
L 168.838314 107.553949 
L 168.838314 106.994767 
L 169.168487 106.994767 
L 169.168487 105.876403 
L 169.31937 105.876403 
L 169.31937 104.198856 
L 169.554942 104.198856 
L 169.554942 103.639674 
L 169.687014 103.639674 
L 169.687014 101.962127 
L 169.818078 101.962127 
L 169.848772 97.488669 
L 170.016616 97.488669 
L 170.107481 95.811122 
L 170.182837 95.811122 
L 170.182837 95.25194 
L 170.317651 95.25194 
L 170.317651 94.692758 
L 170.488388 94.692758 
L 170.598831 89.100935 
L 171.12642 89.100935 
L 171.12642 88.541753 
L 171.289346 88.541753 
L 171.289346 87.982571 
L 171.720999 87.982571 
L 171.734745 86.864206 
L 171.844314 86.864206 
L 171.844314 86.305024 
L 172.15549 86.305024 
L 172.168893 82.949931 
L 172.513738 82.949931 
L 172.513738 81.272384 
L 172.638033 81.272384 
L 172.638033 79.035655 
L 172.864671 79.035655 
L 172.890383 75.680562 
L 173.189656 75.680562 
L 173.258952 74.562197 
L 173.465181 74.562197 
L 173.465181 72.325468 
L 173.588974 72.325468 
L 173.588974 71.766286 
L 173.80349 71.766286 
L 173.80349 70.088739 
L 173.979226 70.088739 
L 173.979226 69.529557 
L 174.171078 69.529557 
L 174.177039 68.411192 
L 174.472486 68.411192 
L 174.501753 66.733646 
L 174.716795 66.733646 
L 174.716795 66.174463 
L 174.87776 66.174463 
L 174.980447 65.056099 
L 175.01454 65.056099 
L 175.122058 62.81937 
L 175.183999 62.81937 
L 175.183999 61.141823 
L 175.468299 61.141823 
L 175.529008 58.345912 
L 175.715306 58.345912 
L 175.715306 56.109183 
L 176.007104 56.109183 
L 176.113932 53.313272 
L 176.267664 53.313272 
L 176.267664 52.75409 
L 176.409567 52.75409 
L 176.409567 50.517361 
L 176.571062 50.517361 
L 176.607319 48.280632 
L 176.710493 48.280632 
L 176.756719 39.892898 
L 176.884478 39.892898 
L 176.894658 37.656169 
L 177.0214 37.656169 
L 177.112079 35.41944 
L 177.202282 35.41944 
L 177.202282 32.623529 
L 177.825607 32.623529 
L 177.916946 31.505165 
L 178.017339 31.505165 
L 178.121887 29.268436 
L 178.13136 29.268436 
L 178.140828 24.235795 
L 178.380509 24.235795 
L 178.380509 23.117431 
L 178.635298 23.117431 
L 178.635298 22.558249 
L 178.954205 22.558249 
L 179.062197 20.880702 
L 179.156136 20.880702 
L 179.214033 19.762337 
L 179.267304 19.762337 
L 179.267304 18.643973 
L 179.539935 18.643973 
L 179.539935 16.407244 
L 180.013244 16.407244 
L 180.013244 15.848062 
L 180.316135 15.848062 
L 180.316135 15.28888 
L 180.457333 15.28888 
L 180.457333 13.611333 
L 180.918444 13.611333 
L 180.918444 13.052151 
L 181.114614 13.052151 
L 181.114614 11.933786 
L 181.304633 11.933786 
L 181.304633 11.374604 
L 181.492574 11.374604 
L 181.492574 10.256239 
L 181.643778 10.256239 
L 181.643778 9.697057 
L 333.168 9.697057 
L 333.168 9.697057 
" style="fill:none;stroke:#000080;stroke-linecap:square;stroke-width:1.5;"/>
   </g>
   <g id="line2d_39">
    <defs>
     <path d="M 0 6 
C 1.591219 6 3.117479 5.367802 4.242641 4.242641 
C 5.367802 3.117479 6 1.591219 6 0 
C 6 -1.591219 5.367802 -3.117479 4.242641 -4.242641 
C 3.117479 -5.367802 1.591219 -6 0 -6 
C -1.591219 -6 -3.117479 -5.367802 -4.242641 -4.242641 
C -5.367802 -3.117479 -6 -1.591219 -6 0 
C -6 1.591219 -5.367802 3.117479 -4.242641 4.242641 
C -3.117479 5.367802 -1.591219 6 0 6 
z
" id="m8a7522ccb0" style="stroke:#000080;stroke-width:1.5;"/>
    </defs>
    <g>
     <use style="fill-opacity:0;stroke:#000080;stroke-width:1.5;" x="148.056721" xlink:href="#m8a7522ccb0" y="205.410841"/>
     <use style="fill-opacity:0;stroke:#000080;stroke-width:1.5;" x="169.818078" xlink:href="#m8a7522ccb0" y="101.962127"/>
     <use style="fill-opacity:0;stroke:#000080;stroke-width:1.5;" x="181.643778" xlink:href="#m8a7522ccb0" y="10.256239"/>
     <use style="fill-opacity:0;stroke:#000080;stroke-width:1.5;" x="181.643778" xlink:href="#m8a7522ccb0" y="9.697057"/>
     <use style="fill-opacity:0;stroke:#000080;stroke-width:1.5;" x="181.643778" xlink:href="#m8a7522ccb0" y="9.697057"/>
     <use style="fill-opacity:0;stroke:#000080;stroke-width:1.5;" x="333.168" xlink:href="#m8a7522ccb0" y="9.697057"/>
    </g>
   </g>
   <g id="line2d_40">
    <path style="fill:none;stroke:#000080;stroke-linecap:square;stroke-width:1.5;"/>
    <g/>
   </g>
   <g id="line2d_41">
    <defs>
     <path d="M 0 1.5 
C 0.397805 1.5 0.77937 1.341951 1.06066 1.06066 
C 1.341951 0.77937 1.5 0.397805 1.5 0 
C 1.5 -0.397805 1.341951 -0.77937 1.06066 -1.06066 
C 0.77937 -1.341951 0.397805 -1.5 0 -1.5 
C -0.397805 -1.5 -0.77937 -1.341951 -1.06066 -1.06066 
C -1.341951 -0.77937 -1.5 -0.397805 -1.5 0 
C -1.5 0.397805 -1.341951 0.77937 -1.06066 1.06066 
C -0.77937 1.341951 -0.397805 1.5 0 1.5 
z
" id="m479fdddda7" style="stroke:#ff00ff;"/>
    </defs>
    <g>
     <use style="fill:#ff00ff;stroke:#ff00ff;" x="191.079307" xlink:href="#m479fdddda7" y="9.697057"/>
     <use style="fill:#ff00ff;stroke:#ff00ff;" x="191.079307" xlink:href="#m479fdddda7" y="9.697057"/>
    </g>
   </g>
   <g id="line2d_42">
    <path d="M 83.784035 294.88 
L 83.784035 294.320818 
L 141.303883 294.320818 
L 141.303883 293.202453 
L 146.066208 293.202453 
L 146.066208 292.643271 
L 147.333468 292.643271 
L 147.333468 291.524907 
L 151.722528 291.524907 
L 151.722528 290.965724 
L 155.394421 290.965724 
L 155.394421 290.406542 
L 155.971216 290.406542 
L 155.971216 289.288178 
L 156.445883 289.288178 
L 156.445883 288.169813 
L 156.727806 288.169813 
L 156.727806 287.610631 
L 157.873078 287.610631 
L 157.903827 284.255537 
L 158.328634 284.255537 
L 158.4034 279.782079 
L 158.772427 279.782079 
L 158.859827 278.104533 
L 159.162274 278.104533 
L 159.190803 275.867804 
L 159.332741 275.867804 
L 159.332741 275.308622 
L 159.487531 275.308622 
L 159.487531 274.749439 
L 159.834228 274.749439 
L 159.834228 273.071893 
L 160.441186 273.071893 
L 160.441186 271.394346 
L 160.651931 271.394346 
L 160.665017 270.275981 
L 161.155049 270.275981 
L 161.155049 269.157617 
L 161.889239 269.157617 
L 161.889239 267.48007 
L 162.11915 267.48007 
L 162.11915 266.920888 
L 162.790989 266.920888 
L 162.825631 265.802523 
L 163.190875 265.802523 
L 163.190875 264.684159 
L 163.942169 264.684159 
L 163.942169 264.124977 
L 164.231601 264.124977 
L 164.231601 263.565795 
L 164.474367 263.565795 
L 164.474367 263.006612 
L 164.919238 263.006612 
L 164.919238 260.210701 
L 165.707708 260.210701 
L 165.707708 259.651519 
L 166.656549 259.651519 
L 166.656549 258.533154 
L 166.821913 258.533154 
L 166.821913 256.855608 
L 167.273085 256.855608 
L 167.379626 254.618879 
L 167.902647 254.618879 
L 167.971196 253.500514 
L 168.368492 253.500514 
L 168.368492 252.38215 
L 169.287715 252.38215 
L 169.287715 251.263785 
L 169.586109 251.263785 
L 169.632754 249.027056 
L 169.818078 249.027056 
L 169.818078 248.467874 
L 170.092371 248.467874 
L 170.092371 247.34951 
L 170.257864 247.34951 
L 170.347466 245.112781 
L 170.803113 245.112781 
L 170.803113 244.553598 
L 171.492598 244.553598 
L 171.492598 243.994416 
L 171.926035 243.994416 
L 171.926035 243.435234 
L 172.295697 243.435234 
L 172.381922 241.757687 
L 172.592344 241.757687 
L 172.605411 240.08014 
L 172.96729 240.08014 
L 172.96729 239.520958 
L 173.08836 239.520958 
L 173.183342 235.0475 
L 173.396712 235.0475 
L 173.396712 233.929136 
L 173.588974 233.929136 
L 173.588974 233.369954 
L 173.724125 233.369954 
L 173.833918 230.01486 
L 173.894612 230.01486 
L 173.894612 229.455678 
L 174.129293 229.455678 
L 174.129293 227.218949 
L 174.40204 227.218949 
L 174.40204 226.659767 
L 174.693677 226.659767 
L 174.693677 226.100584 
L 174.872037 226.100584 
L 174.872037 225.541402 
L 175.003183 225.541402 
L 175.003183 222.745491 
L 175.279289 222.745491 
L 175.335097 218.272033 
L 175.435095 218.272033 
L 175.46277 216.594486 
L 175.600478 216.594486 
L 175.688036 215.476122 
L 175.796859 215.476122 
L 175.796859 214.91694 
L 175.980293 214.91694 
L 176.055259 212.680211 
L 176.103279 212.680211 
L 176.124579 210.443482 
L 176.534728 210.443482 
L 176.622835 206.529206 
L 176.653824 206.529206 
L 176.653824 205.410841 
L 176.884478 205.410841 
L 176.884478 204.851659 
L 177.016348 204.851659 
L 177.112079 201.496566 
L 177.237233 201.496566 
L 177.237233 200.378201 
L 177.430672 200.378201 
L 177.430672 199.259837 
L 177.54374 199.259837 
L 177.587782 195.904743 
L 177.830426 195.904743 
L 177.940902 190.872103 
L 178.003033 190.872103 
L 178.060186 189.194556 
L 178.126624 189.194556 
L 178.15502 186.957828 
L 178.296297 186.957828 
L 178.296297 185.839463 
L 178.413147 185.839463 
L 178.506059 179.129276 
L 178.524581 179.129276 
L 178.524581 178.010912 
L 178.736165 178.010912 
L 178.736165 177.451729 
L 178.859153 177.451729 
L 178.967741 174.655818 
L 178.990278 174.655818 
L 178.990278 174.096636 
L 179.147212 174.096636 
L 179.245128 171.300725 
L 179.271735 171.300725 
L 179.377757 169.063996 
L 179.390963 169.063996 
L 179.483128 165.14972 
L 179.739452 165.14972 
L 179.786822 162.353809 
L 179.881171 162.353809 
L 179.979258 161.235444 
L 180.093694 161.235444 
L 180.169563 159.557898 
L 180.282743 159.557898 
L 180.282743 157.880351 
L 180.449059 157.880351 
L 180.449059 153.406893 
L 180.671063 153.406893 
L 180.752565 145.019159 
L 180.894269 145.019159 
L 180.894269 142.78243 
L 181.066779 142.78243 
L 181.17422 136.072244 
L 181.186117 136.072244 
L 181.186117 135.513061 
L 181.414515 135.513061 
L 181.484784 133.835515 
L 181.554767 133.835515 
L 181.659211 129.921239 
L 181.84715 129.921239 
L 181.934663 121.533505 
L 182.066986 121.533505 
L 182.100848 119.855959 
L 182.443217 119.855959 
L 182.553401 117.61923 
L 182.814996 117.61923 
L 182.814996 114.823318 
L 183.185963 114.823318 
L 183.185963 114.264136 
L 183.309028 114.264136 
L 183.375468 113.145772 
L 183.54218 113.145772 
L 183.618053 111.468225 
L 183.693593 111.468225 
L 183.796069 108.672314 
L 183.806283 108.672314 
L 183.843683 106.994767 
L 183.98237 106.994767 
L 184.056328 104.758038 
L 184.233205 104.758038 
L 184.233205 103.639674 
L 184.404994 103.639674 
L 184.404994 103.080491 
L 184.539243 103.080491 
L 184.588097 101.962127 
L 184.653021 101.962127 
L 184.74995 98.607033 
L 184.794997 98.607033 
L 184.887934 93.015211 
L 184.910293 93.015211 
L 184.967652 88.541753 
L 185.050168 88.541753 
L 185.113373 82.390748 
L 185.298485 82.390748 
L 185.342119 80.15402 
L 185.530956 80.15402 
L 185.607753 75.680562 
L 185.687259 75.680562 
L 185.687259 74.003015 
L 185.944647 74.003015 
L 186.016629 70.647921 
L 186.147818 70.647921 
L 186.245556 66.174463 
L 186.465644 66.174463 
L 186.532577 62.260188 
L 186.68295 62.260188 
L 186.757645 60.582641 
L 186.834872 60.582641 
L 186.834872 58.905094 
L 186.951483 58.905094 
L 186.951483 57.227548 
L 187.33272 57.227548 
L 187.404651 51.635725 
L 187.498262 51.635725 
L 187.602287 48.280632 
L 187.629557 48.280632 
L 187.730084 44.925538 
L 187.883808 44.925538 
L 187.907955 42.129627 
L 188.030846 42.129627 
L 188.030846 41.011263 
L 188.205647 41.011263 
L 188.315965 38.774534 
L 188.378688 38.774534 
L 188.480127 35.41944 
L 188.518983 35.41944 
L 188.614454 34.301076 
L 188.653008 34.301076 
L 188.74774 28.150071 
L 188.813997 28.150071 
L 188.877466 25.35416 
L 188.950798 25.35416 
L 189.041397 20.32152 
L 189.091524 20.32152 
L 189.146496 19.203155 
L 189.260871 19.203155 
L 189.35725 15.28888 
L 189.751904 15.28888 
L 189.751904 14.170515 
L 189.917284 14.170515 
L 189.917284 11.933786 
L 190.144763 11.933786 
L 190.144763 10.815422 
L 190.482743 10.815422 
L 190.482743 10.256239 
L 191.079307 10.256239 
L 191.079307 9.697057 
L 333.168 9.697057 
L 333.168 9.697057 
" style="fill:none;stroke:#ff00ff;stroke-linecap:square;stroke-width:1.5;"/>
   </g>
   <g id="line2d_43">
    <defs>
     <path d="M -0 8.485281 
L 5.091169 0 
L 0 -8.485281 
L -5.091169 -0 
z
" id="m4fae011f1f" style="stroke:#ff00ff;stroke-linejoin:miter;stroke-width:1.5;"/>
    </defs>
    <g>
     <use style="fill-opacity:0;stroke:#ff00ff;stroke-linejoin:miter;stroke-width:1.5;" x="179.979258" xlink:href="#m4fae011f1f" y="161.794627"/>
     <use style="fill-opacity:0;stroke:#ff00ff;stroke-linejoin:miter;stroke-width:1.5;" x="191.079307" xlink:href="#m4fae011f1f" y="10.256239"/>
     <use style="fill-opacity:0;stroke:#ff00ff;stroke-linejoin:miter;stroke-width:1.5;" x="191.079307" xlink:href="#m4fae011f1f" y="9.697057"/>
     <use style="fill-opacity:0;stroke:#ff00ff;stroke-linejoin:miter;stroke-width:1.5;" x="191.079307" xlink:href="#m4fae011f1f" y="9.697057"/>
     <use style="fill-opacity:0;stroke:#ff00ff;stroke-linejoin:miter;stroke-width:1.5;" x="333.168" xlink:href="#m4fae011f1f" y="9.697057"/>
    </g>
   </g>
   <g id="line2d_44">
    <path style="fill:none;stroke:#ff00ff;stroke-linecap:square;stroke-width:1.5;"/>
    <g/>
   </g>
   <g id="line2d_45">
    <defs>
     <path d="M 0 1.5 
C 0.397805 1.5 0.77937 1.341951 1.06066 1.06066 
C 1.341951 0.77937 1.5 0.397805 1.5 0 
C 1.5 -0.397805 1.341951 -0.77937 1.06066 -1.06066 
C 0.77937 -1.341951 0.397805 -1.5 0 -1.5 
C -0.397805 -1.5 -0.77937 -1.341951 -1.06066 -1.06066 
C -1.341951 -0.77937 -1.5 -0.397805 -1.5 0 
C -1.5 0.397805 -1.341951 0.77937 -1.06066 1.06066 
C -0.77937 1.341951 -0.397805 1.5 0 1.5 
z
" id="m7c5adadbbf" style="stroke:#ffa500;"/>
    </defs>
    <g>
     <use style="fill:#ffa500;stroke:#ffa500;" x="255.632014" xlink:href="#m7c5adadbbf" y="9.697057"/>
     <use style="fill:#ffa500;stroke:#ffa500;" x="255.632014" xlink:href="#m7c5adadbbf" y="9.697057"/>
    </g>
   </g>
   <g id="line2d_46">
    <path d="M 37.236359 294.88 
L 37.236359 288.169813 
L 49.15061 288.169813 
L 49.15061 284.81472 
L 68.034251 284.81472 
L 68.034251 282.577991 
L 70.68389 282.577991 
L 70.68389 282.018808 
L 72.979112 282.018808 
L 72.979112 281.459626 
L 75.003641 281.459626 
L 75.003641 279.782079 
L 85.935418 279.782079 
L 85.935418 279.222897 
L 96.807615 279.222897 
L 96.807615 278.663715 
L 100.643147 278.663715 
L 100.643147 278.104533 
L 108.988361 278.104533 
L 108.988361 277.545351 
L 110.505991 277.545351 
L 110.505991 276.426986 
L 113.800491 276.426986 
L 113.800491 275.867804 
L 119.526788 275.867804 
L 119.526788 275.308622 
L 121.804096 275.308622 
L 121.804096 274.190257 
L 125.714742 274.190257 
L 125.714742 273.071893 
L 126.496178 273.071893 
L 126.496178 272.51271 
L 131.654565 272.51271 
L 131.654565 271.953528 
L 135.673032 271.953528 
L 135.673032 270.275981 
L 136.332102 270.275981 
L 136.332102 269.716799 
L 136.546293 269.716799 
L 136.546293 269.157617 
L 137.326546 269.157617 
L 137.326546 267.48007 
L 138.170025 267.48007 
L 138.170025 265.802523 
L 139.112104 265.802523 
L 139.112104 265.243341 
L 143.533413 265.243341 
L 143.533413 264.124977 
L 144.731115 264.124977 
L 144.731115 263.565795 
L 146.843566 263.565795 
L 146.843566 262.44743 
L 147.190823 262.44743 
L 147.190823 261.888248 
L 148.21939 261.888248 
L 148.21939 260.769883 
L 150.084276 260.769883 
L 150.084276 260.210701 
L 150.842025 260.210701 
L 150.842025 259.092337 
L 151.026355 259.092337 
L 151.026355 256.296425 
L 152.497115 256.296425 
L 152.497115 255.178061 
L 154.312326 255.178061 
L 154.312326 254.059696 
L 154.998849 254.059696 
L 154.998849 252.941332 
L 157.309979 252.941332 
L 157.309979 251.822967 
L 157.452492 251.822967 
L 157.452492 251.263785 
L 158.787024 251.263785 
L 158.787024 250.704603 
L 160.560048 250.704603 
L 160.560048 250.145421 
L 160.88597 250.145421 
L 160.88597 249.586238 
L 161.129603 249.586238 
L 161.129603 249.027056 
L 161.281716 249.027056 
L 161.281716 248.467874 
L 163.942169 248.467874 
L 163.985356 246.790327 
L 164.537137 246.790327 
L 164.537137 245.112781 
L 164.85785 245.112781 
L 164.85785 244.553598 
L 166.217109 244.553598 
L 166.217109 243.435234 
L 168.99211 243.435234 
L 168.99211 242.876052 
L 169.327275 242.876052 
L 169.327275 242.316869 
L 169.539337 242.316869 
L 169.539337 241.757687 
L 171.380757 241.757687 
L 171.380757 241.198505 
L 171.520446 241.198505 
L 171.589867 239.520958 
L 172.215719 239.520958 
L 172.215719 238.961776 
L 172.43477 238.961776 
L 172.43477 238.402594 
L 172.800222 238.402594 
L 172.800222 237.843411 
L 175.076869 237.843411 
L 175.076869 236.725047 
L 175.268106 236.725047 
L 175.268106 236.165865 
L 176.37289 236.165865 
L 176.37289 235.606682 
L 176.524332 235.606682 
L 176.524332 235.0475 
L 176.689907 235.0475 
L 176.689907 233.929136 
L 177.41587 233.929136 
L 177.41587 233.369954 
L 178.436422 233.369954 
L 178.436422 232.810771 
L 178.981267 232.810771 
L 178.981267 232.251589 
L 180.068329 232.251589 
L 180.068329 231.133225 
L 180.662892 231.133225 
L 180.728155 229.455678 
L 181.651496 229.455678 
L 181.651496 228.337313 
L 181.919475 228.337313 
L 181.919475 227.218949 
L 182.782514 227.218949 
L 182.782514 226.659767 
L 182.983637 226.659767 
L 183.022868 223.863855 
L 184.319314 223.863855 
L 184.319314 223.304673 
L 184.717701 223.304673 
L 184.804634 220.508762 
L 185.391851 220.508762 
L 185.391851 218.831215 
L 186.427697 218.831215 
L 186.427697 217.153669 
L 187.092629 217.153669 
L 187.092629 216.035304 
L 187.749037 216.035304 
L 187.749037 215.476122 
L 187.956147 215.476122 
L 187.956147 214.91694 
L 188.930599 214.91694 
L 188.930599 214.357757 
L 189.255914 214.357757 
L 189.255914 210.443482 
L 190.841352 210.443482 
L 190.841352 209.325117 
L 191.384243 209.325117 
L 191.384243 208.206753 
L 192.626114 208.206753 
L 192.626114 207.088388 
L 193.22282 207.088388 
L 193.22282 203.174112 
L 193.615832 203.174112 
L 193.615832 202.61493 
L 195.087859 202.61493 
L 195.089624 201.496566 
L 196.236869 201.496566 
L 196.236869 200.378201 
L 197.259483 200.378201 
L 197.259483 199.819019 
L 198.254056 199.819019 
L 198.254056 199.259837 
L 198.470048 199.259837 
L 198.536632 198.141472 
L 198.95056 198.141472 
L 198.95056 197.023108 
L 199.111984 197.023108 
L 199.216449 195.904743 
L 199.324423 195.904743 
L 199.324423 195.345561 
L 199.483756 195.345561 
L 199.497423 193.668014 
L 199.634851 193.668014 
L 199.667346 190.872103 
L 199.828907 190.872103 
L 199.828907 189.194556 
L 200.024772 189.194556 
L 200.024772 188.635374 
L 200.243303 188.635374 
L 200.287721 186.957828 
L 200.630045 186.957828 
L 200.730792 185.839463 
L 201.228321 185.839463 
L 201.228321 185.280281 
L 201.533181 185.280281 
L 201.533181 184.721099 
L 201.705848 184.721099 
L 201.705848 183.602734 
L 202.002426 183.602734 
L 202.002426 182.48437 
L 202.348455 182.48437 
L 202.356554 181.366005 
L 202.760124 181.366005 
L 202.863765 179.688458 
L 203.000245 179.688458 
L 203.000245 179.129276 
L 203.23596 179.129276 
L 203.23596 178.570094 
L 203.428319 178.570094 
L 203.428319 178.010912 
L 204.108112 178.010912 
L 204.188367 175.215 
L 204.573951 175.215 
L 204.573951 174.655818 
L 204.705627 174.655818 
L 204.705627 172.419089 
L 205.368713 172.419089 
L 205.368713 171.859907 
L 205.603979 171.859907 
L 205.603979 170.741543 
L 206.158043 170.741543 
L 206.158043 169.063996 
L 206.615531 169.063996 
L 206.615531 168.504814 
L 207.322225 168.504814 
L 207.323091 166.827267 
L 209.43932 166.827267 
L 209.43932 166.268085 
L 209.604769 166.268085 
L 209.627517 163.472173 
L 209.746831 163.472173 
L 209.797177 159.557898 
L 210.241582 159.557898 
L 210.322552 156.761987 
L 210.609066 156.761987 
L 210.609066 155.08444 
L 210.752326 155.08444 
L 210.786362 153.966075 
L 210.887361 153.966075 
L 210.887361 153.406893 
L 211.098036 153.406893 
L 211.136948 151.729346 
L 211.26694 151.729346 
L 211.317839 148.933435 
L 211.800684 148.933435 
L 211.800684 148.374253 
L 211.946971 148.374253 
L 212.028878 146.137524 
L 212.203277 146.137524 
L 212.203277 145.578342 
L 212.335838 145.578342 
L 212.385609 143.341613 
L 212.708502 143.341613 
L 212.708502 142.78243 
L 213.127743 142.78243 
L 213.127743 142.223248 
L 213.277916 142.223248 
L 213.277916 141.664066 
L 213.63451 141.664066 
L 213.63451 141.104884 
L 213.812446 141.104884 
L 213.812446 139.427337 
L 213.932022 139.427337 
L 213.932022 138.868155 
L 214.397583 138.868155 
L 214.397583 137.74979 
L 215.208364 137.74979 
L 215.208364 137.190608 
L 215.515055 137.190608 
L 215.515055 136.072244 
L 215.892328 136.072244 
L 215.892328 134.953879 
L 216.02393 134.953879 
L 216.076082 133.835515 
L 216.145199 133.835515 
L 216.145199 132.157968 
L 216.438308 132.157968 
L 216.475488 130.480421 
L 216.643574 130.480421 
L 216.643574 129.921239 
L 216.766067 129.921239 
L 216.766067 129.362057 
L 217.016848 129.362057 
L 217.112713 128.243692 
L 217.140145 128.243692 
L 217.140145 127.125328 
L 217.259162 127.125328 
L 217.259162 126.006963 
L 217.388461 126.006963 
L 217.401482 123.211052 
L 217.575116 123.211052 
L 217.67884 120.415141 
L 218.087588 120.415141 
L 218.147701 117.61923 
L 218.827407 117.61923 
L 218.827407 117.060047 
L 219.047839 117.060047 
L 219.047839 116.500865 
L 219.394325 116.500865 
L 219.394755 115.382501 
L 220.298704 115.382501 
L 220.298704 114.823318 
L 220.47578 114.823318 
L 220.571057 113.145772 
L 220.611901 113.145772 
L 220.717959 110.349861 
L 220.971663 110.349861 
L 220.971663 109.790678 
L 221.101207 109.790678 
L 221.195795 108.672314 
L 221.252916 108.672314 
L 221.348591 107.553949 
L 221.389923 107.553949 
L 221.489782 103.080491 
L 221.678757 103.080491 
L 221.688903 101.402945 
L 221.840748 101.402945 
L 221.905416 99.166216 
L 222.060516 99.166216 
L 222.060516 97.488669 
L 222.273152 97.488669 
L 222.273152 95.811122 
L 222.601866 95.811122 
L 222.601866 94.692758 
L 222.985135 94.692758 
L 222.985135 94.133576 
L 223.261597 94.133576 
L 223.261597 93.574393 
L 223.937527 93.574393 
L 223.937527 92.456029 
L 224.207314 92.456029 
L 224.25106 87.982571 
L 224.326302 87.982571 
L 224.326302 87.423389 
L 224.637633 87.423389 
L 224.721285 85.745842 
L 224.766257 85.745842 
L 224.766257 85.18666 
L 224.954611 85.18666 
L 224.954611 84.627477 
L 225.109242 84.627477 
L 225.109242 83.509113 
L 225.295113 83.509113 
L 225.360773 81.272384 
L 225.570055 81.272384 
L 225.597608 79.594837 
L 226.127991 79.594837 
L 226.186503 77.917291 
L 226.416011 77.917291 
L 226.416011 77.358108 
L 227.234798 77.358108 
L 227.316224 75.680562 
L 227.361114 75.680562 
L 227.441676 74.562197 
L 227.569155 74.562197 
L 227.639717 72.88465 
L 227.739342 72.88465 
L 227.836816 71.207104 
L 227.967666 71.207104 
L 227.974704 70.088739 
L 228.11227 70.088739 
L 228.125191 67.85201 
L 228.233348 67.85201 
L 228.233348 67.292828 
L 228.34899 67.292828 
L 228.382106 65.056099 
L 228.613155 65.056099 
L 228.613155 64.496917 
L 228.8342 64.496917 
L 228.884201 63.378552 
L 229.080807 63.378552 
L 229.080807 62.81937 
L 229.815312 62.81937 
L 229.893103 60.582641 
L 229.996048 60.582641 
L 230.072796 59.464277 
L 230.130133 59.464277 
L 230.220014 57.78673 
L 230.301917 57.78673 
L 230.357362 56.109183 
L 230.417829 56.109183 
L 230.51544 54.990819 
L 230.602886 54.990819 
L 230.665617 53.313272 
L 230.757403 53.313272 
L 230.757403 52.75409 
L 231.387175 52.75409 
L 231.387175 52.194907 
L 231.802625 52.194907 
L 231.802625 51.635725 
L 232.160741 51.635725 
L 232.2577 49.958178 
L 232.307191 49.958178 
L 232.307191 49.398996 
L 232.46184 49.398996 
L 232.46184 48.839814 
L 232.604364 48.839814 
L 232.648103 47.72145 
L 232.718646 47.72145 
L 232.765645 46.043903 
L 232.880039 46.043903 
L 232.880039 45.484721 
L 233.22909 45.484721 
L 233.267822 44.366356 
L 233.797952 44.366356 
L 233.9009 43.247992 
L 233.950486 43.247992 
L 233.950486 42.129627 
L 234.103503 42.129627 
L 234.123742 41.011263 
L 234.243954 41.011263 
L 234.324472 39.892898 
L 234.376445 39.892898 
L 234.376445 39.333716 
L 234.576037 39.333716 
L 234.576037 38.774534 
L 234.752971 38.774534 
L 234.752971 38.215351 
L 235.014831 38.215351 
L 235.014831 37.656169 
L 235.238298 37.656169 
L 235.238298 37.096987 
L 235.738354 37.096987 
L 235.738354 36.537805 
L 235.854085 36.537805 
L 235.854085 35.978622 
L 236.273389 35.978622 
L 236.316109 34.301076 
L 236.679252 34.301076 
L 236.757599 33.182711 
L 237.258633 33.182711 
L 237.352369 32.064347 
L 237.774823 32.064347 
L 237.85949 30.945982 
L 238.196635 30.945982 
L 238.239429 29.827618 
L 238.748291 29.827618 
L 238.816661 28.709253 
L 239.003288 28.709253 
L 239.003288 28.150071 
L 240.024323 28.150071 
L 240.024323 27.590889 
L 240.592443 27.590889 
L 240.694699 25.35416 
L 241.381771 25.35416 
L 241.39789 24.235795 
L 241.625408 24.235795 
L 241.719375 23.117431 
L 241.81551 23.117431 
L 241.81551 22.558249 
L 242.228341 22.558249 
L 242.228341 21.999066 
L 242.521498 21.999066 
L 242.521498 21.439884 
L 243.039071 21.439884 
L 243.039071 20.32152 
L 243.699451 20.32152 
L 243.806018 19.203155 
L 243.846638 19.203155 
L 243.857813 18.084791 
L 245.635799 18.084791 
L 245.64531 16.966426 
L 245.847795 16.966426 
L 245.899951 15.848062 
L 246.626682 15.848062 
L 246.67135 14.729697 
L 246.753438 14.729697 
L 246.753438 14.170515 
L 247.443481 14.170515 
L 247.457497 13.052151 
L 247.644226 13.052151 
L 247.644226 11.933786 
L 248.439137 11.933786 
L 248.541834 10.815422 
L 250.776756 10.815422 
L 250.776756 10.256239 
L 255.632014 10.256239 
L 255.632014 9.697057 
L 333.168 9.697057 
L 333.168 9.697057 
" style="fill:none;stroke:#ffa500;stroke-linecap:square;stroke-width:1.5;"/>
   </g>
   <g id="line2d_47">
    <defs>
     <path d="M 0 -6 
L -1.347084 -1.854102 
L -5.706339 -1.854102 
L -2.179628 0.708204 
L -3.526712 4.854102 
L -0 2.291796 
L 3.526712 4.854102 
L 2.179628 0.708204 
L 5.706339 -1.854102 
L 1.347084 -1.854102 
z
" id="m5b1c90758c" style="stroke:#ffa500;stroke-linejoin:bevel;stroke-width:1.5;"/>
    </defs>
    <g>
     <use style="fill-opacity:0;stroke:#ffa500;stroke-linejoin:bevel;stroke-width:1.5;" x="110.505991" xlink:href="#m5b1c90758c" y="276.426986"/>
     <use style="fill-opacity:0;stroke:#ffa500;stroke-linejoin:bevel;stroke-width:1.5;" x="180.728155" xlink:href="#m5b1c90758c" y="229.455678"/>
     <use style="fill-opacity:0;stroke:#ffa500;stroke-linejoin:bevel;stroke-width:1.5;" x="212.028878" xlink:href="#m5b1c90758c" y="146.137524"/>
     <use style="fill-opacity:0;stroke:#ffa500;stroke-linejoin:bevel;stroke-width:1.5;" x="250.776756" xlink:href="#m5b1c90758c" y="10.256239"/>
     <use style="fill-opacity:0;stroke:#ffa500;stroke-linejoin:bevel;stroke-width:1.5;" x="255.632014" xlink:href="#m5b1c90758c" y="9.697057"/>
     <use style="fill-opacity:0;stroke:#ffa500;stroke-linejoin:bevel;stroke-width:1.5;" x="333.168" xlink:href="#m5b1c90758c" y="9.697057"/>
    </g>
   </g>
   <g id="line2d_48">
    <path style="fill:none;stroke:#ffa500;stroke-linecap:square;stroke-width:1.5;"/>
    <g/>
   </g>
   <g id="line2d_49">
    <path clip-path="url(#p5a6d4db360)" d="M 195.722236 201.496566 
" style="fill:none;stroke:#ffa500;stroke-linecap:square;stroke-width:1.5;"/>
    <defs>
     <path d="M -12 12 
L 12 -12 
M -12 -12 
L 12 12 
" id="m327edd8541" style="stroke:#ffa500;"/>
    </defs>
    <g clip-path="url(#p5a6d4db360)">
     <use style="fill:#ffa500;stroke:#ffa500;" x="195.722236" xlink:href="#m327edd8541" y="201.496566"/>
    </g>
   </g>
   <g id="line2d_50">
    <defs>
     <path d="M 0 1.5 
C 0.397805 1.5 0.77937 1.341951 1.06066 1.06066 
C 1.341951 0.77937 1.5 0.397805 1.5 0 
C 1.5 -0.397805 1.341951 -0.77937 1.06066 -1.06066 
C 0.77937 -1.341951 0.397805 -1.5 0 -1.5 
C -0.397805 -1.5 -0.77937 -1.341951 -1.06066 -1.06066 
C -1.341951 -0.77937 -1.5 -0.397805 -1.5 0 
C -1.5 0.397805 -1.341951 0.77937 -1.06066 1.06066 
C -0.77937 1.341951 -0.397805 1.5 0 1.5 
z
" id="m1ba675a4e1" style="stroke:#6495ed;"/>
    </defs>
    <g>
     <use style="fill:#6495ed;stroke:#6495ed;" x="234.308795" xlink:href="#m1ba675a4e1" y="233.369954"/>
     <use style="fill:#6495ed;stroke:#6495ed;" x="234.308795" xlink:href="#m1ba675a4e1" y="233.369954"/>
    </g>
   </g>
   <g id="line2d_51">
    <path d="M 37.236359 294.88 
L 37.236359 289.288178 
L 56.12 289.288178 
L 56.12 288.728995 
L 61.064861 288.728995 
L 61.064861 288.169813 
L 64.900393 288.169813 
L 64.900393 287.610631 
L 72.979112 287.610631 
L 72.979112 287.051449 
L 76.814644 287.051449 
L 76.814644 286.492266 
L 83.784035 286.492266 
L 83.784035 285.933084 
L 85.935418 285.933084 
L 85.935418 285.373902 
L 86.917893 285.373902 
L 86.917893 284.81472 
L 100.207968 284.81472 
L 100.207968 282.577991 
L 101.481783 282.577991 
L 101.481783 282.018808 
L 110.262176 282.018808 
L 110.262176 280.341262 
L 110.746395 280.341262 
L 110.746395 279.782079 
L 114.195649 279.782079 
L 114.195649 279.222897 
L 119.237897 279.222897 
L 119.237897 278.663715 
L 129.550274 278.663715 
L 129.550274 278.104533 
L 129.788458 278.104533 
L 129.788458 276.986168 
L 130.709498 276.986168 
L 130.709498 275.867804 
L 131.152148 275.867804 
L 131.152148 275.308622 
L 132.142713 275.308622 
L 132.142713 274.749439 
L 133.780965 274.749439 
L 133.780965 273.071893 
L 134.090678 273.071893 
L 134.090678 271.953528 
L 135.895542 271.953528 
L 135.895542 271.394346 
L 136.810332 271.394346 
L 136.810332 270.835164 
L 138.362617 270.835164 
L 138.362617 269.157617 
L 140.178407 269.157617 
L 140.178407 268.598435 
L 142.809574 268.598435 
L 142.809574 268.039252 
L 144.698028 268.039252 
L 144.698028 267.48007 
L 146.188114 267.48007 
L 146.188114 266.920888 
L 146.429362 266.920888 
L 146.429362 266.361706 
L 146.960099 266.361706 
L 146.960099 265.802523 
L 147.671062 265.802523 
L 147.671062 264.684159 
L 151.700505 264.684159 
L 151.700505 264.124977 
L 152.092658 264.124977 
L 152.092658 263.006612 
L 152.34921 263.006612 
L 152.34921 262.44743 
L 153.07633 262.44743 
L 153.07633 261.329066 
L 155.071451 261.329066 
L 155.071451 260.769883 
L 155.798464 260.769883 
L 155.798464 259.092337 
L 156.039833 259.092337 
L 156.039833 258.533154 
L 156.612279 258.533154 
L 156.612279 257.973972 
L 157.499736 257.973972 
L 157.531159 256.855608 
L 160.58635 256.855608 
L 160.58635 256.296425 
L 160.873051 256.296425 
L 160.873051 255.737243 
L 161.693215 255.737243 
L 161.693215 255.178061 
L 162.940606 255.178061 
L 162.940606 254.618879 
L 164.878337 254.618879 
L 164.878337 254.059696 
L 165.382734 254.059696 
L 165.382734 252.941332 
L 166.536121 252.941332 
L 166.536121 251.822967 
L 167.441472 251.822967 
L 167.441472 250.704603 
L 168.642057 250.704603 
L 168.642057 249.586238 
L 171.803307 249.586238 
L 171.803307 249.027056 
L 175.296051 249.027056 
L 175.296051 248.467874 
L 177.699824 248.467874 
L 177.699824 247.908692 
L 178.667456 247.908692 
L 178.667456 247.34951 
L 179.940943 247.34951 
L 179.940943 246.231145 
L 186.494777 246.231145 
L 186.494777 245.671963 
L 188.025521 245.671963 
L 188.025521 244.553598 
L 188.239869 244.553598 
L 188.239869 243.994416 
L 198.438113 243.994416 
L 198.438113 243.435234 
L 199.190044 243.435234 
L 199.190044 242.876052 
L 200.886483 242.876052 
L 200.886483 242.316869 
L 210.411833 242.316869 
L 210.411833 241.757687 
L 211.049969 241.757687 
L 211.049969 240.08014 
L 211.241434 240.08014 
L 211.241434 239.520958 
L 212.044028 239.520958 
L 212.044028 238.961776 
L 215.559652 238.961776 
L 215.559652 238.402594 
L 216.504971 238.402594 
L 216.504971 237.843411 
L 217.962995 237.843411 
L 217.962995 237.284229 
L 221.342076 237.284229 
L 221.447546 235.606682 
L 224.920094 235.606682 
L 224.920094 235.0475 
L 232.201954 235.0475 
L 232.201954 233.929136 
L 234.308795 233.929136 
L 234.308795 233.369954 
L 333.168 233.369954 
L 333.168 233.369954 
" style="fill:none;stroke:#6495ed;stroke-linecap:square;stroke-width:1.5;"/>
   </g>
   <g id="line2d_52">
    <defs>
     <path d="M -0 6 
L 6 -6 
L -6 -6 
z
" id="mcec643ec76" style="stroke:#6495ed;stroke-linejoin:miter;stroke-width:1.5;"/>
    </defs>
    <g>
     <use style="fill-opacity:0;stroke:#6495ed;stroke-linejoin:miter;stroke-width:1.5;" x="129.550274" xlink:href="#mcec643ec76" y="278.104533"/>
     <use style="fill-opacity:0;stroke:#6495ed;stroke-linejoin:miter;stroke-width:1.5;" x="179.940943" xlink:href="#mcec643ec76" y="246.231145"/>
     <use style="fill-opacity:0;stroke:#6495ed;stroke-linejoin:miter;stroke-width:1.5;" x="234.308795" xlink:href="#mcec643ec76" y="233.929136"/>
     <use style="fill-opacity:0;stroke:#6495ed;stroke-linejoin:miter;stroke-width:1.5;" x="234.308795" xlink:href="#mcec643ec76" y="233.369954"/>
     <use style="fill-opacity:0;stroke:#6495ed;stroke-linejoin:miter;stroke-width:1.5;" x="234.308795" xlink:href="#mcec643ec76" y="233.369954"/>
     <use style="fill-opacity:0;stroke:#6495ed;stroke-linejoin:miter;stroke-width:1.5;" x="333.168" xlink:href="#mcec643ec76" y="233.369954"/>
    </g>
   </g>
   <g id="line2d_53">
    <path style="fill:none;stroke:#6495ed;stroke-linecap:square;stroke-width:1.5;"/>
    <g/>
   </g>
   <g id="line2d_54">
    <path clip-path="url(#p5a6d4db360)" d="M 195.722236 243.994416 
" style="fill:none;stroke:#6495ed;stroke-linecap:square;stroke-width:1.5;"/>
    <defs>
     <path d="M -12 12 
L 12 -12 
M -12 -12 
L 12 12 
" id="mdd4d5c795a" style="stroke:#6495ed;"/>
    </defs>
    <g clip-path="url(#p5a6d4db360)">
     <use style="fill:#6495ed;stroke:#6495ed;" x="195.722236" xlink:href="#mdd4d5c795a" y="243.994416"/>
    </g>
   </g>
   <g id="line2d_55">
    <defs>
     <path d="M 0 1.5 
C 0.397805 1.5 0.77937 1.341951 1.06066 1.06066 
C 1.341951 0.77937 1.5 0.397805 1.5 0 
C 1.5 -0.397805 1.341951 -0.77937 1.06066 -1.06066 
C 0.77937 -1.341951 0.397805 -1.5 0 -1.5 
C -0.397805 -1.5 -0.77937 -1.341951 -1.06066 -1.06066 
C -1.341951 -0.77937 -1.5 -0.397805 -1.5 0 
C -1.5 0.397805 -1.341951 0.77937 -1.06066 1.06066 
C -0.77937 1.341951 -0.397805 1.5 0 1.5 
z
" id="m019a41632f" style="stroke:#ff0000;"/>
    </defs>
    <g>
     <use style="fill:#ff0000;stroke:#ff0000;" x="129.867125" xlink:href="#m019a41632f" y="9.697057"/>
     <use style="fill:#ff0000;stroke:#ff0000;" x="129.867125" xlink:href="#m019a41632f" y="9.697057"/>
    </g>
   </g>
   <g id="line2d_56">
    <path d="M 37.236359 294.88 
L 37.236359 289.288178 
L 49.15061 289.288178 
L 49.15061 284.255537 
L 56.12 284.255537 
L 56.12 281.459626 
L 61.064861 281.459626 
L 61.064861 278.663715 
L 64.900393 278.663715 
L 64.900393 276.986168 
L 70.68389 276.986168 
L 70.68389 274.190257 
L 82.598142 274.190257 
L 82.598142 273.631075 
L 84.893363 273.631075 
L 84.893363 273.071893 
L 85.935418 273.071893 
L 85.935418 271.953528 
L 88.728896 271.953528 
L 88.728896 270.835164 
L 89.567532 270.835164 
L 89.567532 270.275981 
L 90.367147 270.275981 
L 90.367147 269.716799 
L 94.512393 269.716799 
L 94.512393 268.598435 
L 96.261898 268.598435 
L 96.261898 267.48007 
L 96.807615 267.48007 
L 96.807615 266.920888 
L 97.849669 266.920888 
L 97.849669 266.361706 
L 101.067579 266.361706 
L 101.067579 265.243341 
L 112.98183 265.243341 
L 112.98183 264.684159 
L 113.396034 264.684159 
L 113.396034 263.565795 
L 113.800491 263.565795 
L 113.800491 262.44743 
L 116.73331 262.44743 
L 116.73331 246.790327 
L 116.901005 246.790327 
L 116.901005 244.553598 
L 117.06708 244.553598 
L 117.06708 227.778131 
L 117.231566 227.778131 
L 117.231566 210.443482 
L 117.394493 210.443482 
L 117.394493 193.668014 
L 117.55589 193.668014 
L 117.55589 174.096636 
L 118.031182 174.096636 
L 118.031182 143.900795 
L 118.340895 143.900795 
L 118.340895 142.78243 
L 118.493684 142.78243 
L 118.493684 120.415141 
L 118.944067 120.415141 
L 118.944067 119.296776 
L 119.09161 119.296776 
L 119.09161 118.737594 
L 119.382949 118.737594 
L 119.382949 103.639674 
L 119.526788 103.639674 
L 119.526788 99.166216 
L 121.16504 99.166216 
L 121.16504 96.929487 
L 121.678171 96.929487 
L 121.678171 68.970375 
L 122.779599 68.970375 
L 122.779599 56.109183 
L 123.015063 56.109183 
L 123.015063 35.41944 
L 128.478214 35.41944 
L 128.478214 24.235795 
L 128.898495 24.235795 
L 128.898495 21.999066 
L 129.867125 21.999066 
L 129.867125 9.697057 
L 333.168 9.697057 
" style="fill:none;stroke:#ff0000;stroke-linecap:square;stroke-width:1.5;"/>
   </g>
   <g id="line2d_57">
    <defs>
     <path d="M 0 -6 
L -5.196152 -3 
L -5.196152 3 
L -0 6 
L 5.196152 3 
L 5.196152 -3 
z
" id="m52a90f13c7" style="stroke:#ff0000;stroke-linejoin:miter;stroke-width:1.5;"/>
    </defs>
    <g>
     <use style="fill-opacity:0;stroke:#ff0000;stroke-linejoin:miter;stroke-width:1.5;" x="117.394493" xlink:href="#m52a90f13c7" y="193.668014"/>
     <use style="fill-opacity:0;stroke:#ff0000;stroke-linejoin:miter;stroke-width:1.5;" x="123.015063" xlink:href="#m52a90f13c7" y="35.41944"/>
     <use style="fill-opacity:0;stroke:#ff0000;stroke-linejoin:miter;stroke-width:1.5;" x="129.867125" xlink:href="#m52a90f13c7" y="21.999066"/>
     <use style="fill-opacity:0;stroke:#ff0000;stroke-linejoin:miter;stroke-width:1.5;" x="129.867125" xlink:href="#m52a90f13c7" y="9.697057"/>
     <use style="fill-opacity:0;stroke:#ff0000;stroke-linejoin:miter;stroke-width:1.5;" x="129.867125" xlink:href="#m52a90f13c7" y="9.697057"/>
     <use style="fill-opacity:0;stroke:#ff0000;stroke-linejoin:miter;stroke-width:1.5;" x="333.168" xlink:href="#m52a90f13c7" y="9.697057"/>
    </g>
   </g>
   <g id="line2d_58">
    <path style="fill:none;stroke:#ff0000;stroke-linecap:square;stroke-width:1.5;"/>
    <g/>
   </g>
   <g id="line2d_59">
    <path d="M 333.168 233.369954 
L 363.64328 289.176341 
" style="fill:none;stroke:#6495ed;stroke-linecap:square;stroke-width:1.5;"/>
    <g>
     <use style="fill-opacity:0;stroke:#6495ed;stroke-linejoin:miter;stroke-width:1.5;" x="333.168" xlink:href="#mcec643ec76" y="233.369954"/>
     <use style="fill-opacity:0;stroke:#6495ed;stroke-linejoin:miter;stroke-width:1.5;" x="363.64328" xlink:href="#mcec643ec76" y="289.176341"/>
    </g>
   </g>
   <g id="line2d_60">
    <path d="M 333.168 9.697057 
L 363.64328 220.732435 
" style="fill:none;stroke:#ffa500;stroke-linecap:square;stroke-width:1.5;"/>
    <g>
     <use style="fill-opacity:0;stroke:#ffa500;stroke-linejoin:bevel;stroke-width:1.5;" x="333.168" xlink:href="#m5b1c90758c" y="9.697057"/>
     <use style="fill-opacity:0;stroke:#ffa500;stroke-linejoin:bevel;stroke-width:1.5;" x="363.64328" xlink:href="#m5b1c90758c" y="220.732435"/>
    </g>
   </g>
   <g id="line2d_61">
    <path d="M 333.168 9.697057 
L 363.64328 152.288529 
" style="fill:none;stroke:#ff00ff;stroke-linecap:square;stroke-width:1.5;"/>
    <g>
     <use style="fill-opacity:0;stroke:#ff00ff;stroke-linejoin:miter;stroke-width:1.5;" x="333.168" xlink:href="#m4fae011f1f" y="9.697057"/>
     <use style="fill-opacity:0;stroke:#ff00ff;stroke-linejoin:miter;stroke-width:1.5;" x="363.64328" xlink:href="#m4fae011f1f" y="152.288529"/>
    </g>
   </g>
   <g id="line2d_62">
    <path d="M 333.168 9.697057 
L 363.64328 83.844622 
" style="fill:none;stroke:#000080;stroke-linecap:square;stroke-width:1.5;"/>
    <g>
     <use style="fill-opacity:0;stroke:#000080;stroke-width:1.5;" x="333.168" xlink:href="#m8a7522ccb0" y="9.697057"/>
     <use style="fill-opacity:0;stroke:#000080;stroke-width:1.5;" x="363.64328" xlink:href="#m8a7522ccb0" y="83.844622"/>
    </g>
   </g>
   <g id="line2d_63">
    <path d="M 333.168 9.697057 
L 363.64328 15.400716 
" style="fill:none;stroke:#ff0000;stroke-linecap:square;stroke-width:1.5;"/>
    <g>
     <use style="fill-opacity:0;stroke:#ff0000;stroke-linejoin:miter;stroke-width:1.5;" x="333.168" xlink:href="#m52a90f13c7" y="9.697057"/>
     <use style="fill-opacity:0;stroke:#ff0000;stroke-linejoin:miter;stroke-width:1.5;" x="363.64328" xlink:href="#m52a90f13c7" y="15.400716"/>
    </g>
   </g>
   <g id="line2d_64">
    <path d="M 333.168 294.88 
L 333.168 9.697057 
" style="fill:none;stroke:#000000;stroke-linecap:square;stroke-width:1.5;"/>
   </g>
   <g id="patch_3">
    <path d="M 56.12 294.88 
L 56.12 6.845228 
" style="fill:none;stroke:#000000;stroke-linecap:square;stroke-linejoin:miter;stroke-width:0.8;"/>
   </g>
   <g id="patch_4">
    <path d="M 333.168 294.88 
L 333.168 6.845228 
" style="fill:none;stroke:#000000;stroke-linecap:square;stroke-linejoin:miter;stroke-width:0.8;"/>
   </g>
   <g id="patch_5">
    <path d="M 56.12 294.88 
L 333.168 294.88 
" style="fill:none;stroke:#000000;stroke-linecap:square;stroke-linejoin:miter;stroke-width:0.8;"/>
   </g>
   <g id="patch_6">
    <path d="M 56.12 6.845228 
L 333.168 6.845228 
" style="fill:none;stroke:#000000;stroke-linecap:square;stroke-linejoin:miter;stroke-width:0.8;"/>
   </g>
   <g id="text_13">
    <!-- f4 -->
    <g transform="translate(369.18424 293.867279)scale(0.17 -0.17)">
     <use xlink:href="#DejaVuSans-66"/>
     <use x="35.205078" xlink:href="#DejaVuSans-34"/>
    </g>
   </g>
   <g id="text_14">
    <!-- f3 -->
    <defs>
     <path d="M 40.578125 39.3125 
Q 47.65625 37.796875 51.625 33 
Q 55.609375 28.21875 55.609375 21.1875 
Q 55.609375 10.40625 48.1875 4.484375 
Q 40.765625 -1.421875 27.09375 -1.421875 
Q 22.515625 -1.421875 17.65625 -0.515625 
Q 12.796875 0.390625 7.625 2.203125 
L 7.625 11.71875 
Q 11.71875 9.328125 16.59375 8.109375 
Q 21.484375 6.890625 26.8125 6.890625 
Q 36.078125 6.890625 40.9375 10.546875 
Q 45.796875 14.203125 45.796875 21.1875 
Q 45.796875 27.640625 41.28125 31.265625 
Q 36.765625 34.90625 28.71875 34.90625 
L 20.21875 34.90625 
L 20.21875 43.015625 
L 29.109375 43.015625 
Q 36.375 43.015625 40.234375 45.921875 
Q 44.09375 48.828125 44.09375 54.296875 
Q 44.09375 59.90625 40.109375 62.90625 
Q 36.140625 65.921875 28.71875 65.921875 
Q 24.65625 65.921875 20.015625 65.03125 
Q 15.375 64.15625 9.8125 62.3125 
L 9.8125 71.09375 
Q 15.4375 72.65625 20.34375 73.4375 
Q 25.25 74.21875 29.59375 74.21875 
Q 40.828125 74.21875 47.359375 69.109375 
Q 53.90625 64.015625 53.90625 55.328125 
Q 53.90625 49.265625 50.4375 45.09375 
Q 46.96875 40.921875 40.578125 39.3125 
z
" id="DejaVuSans-33"/>
    </defs>
    <g transform="translate(369.18424 225.423372)scale(0.17 -0.17)">
     <use xlink:href="#DejaVuSans-66"/>
     <use x="35.205078" xlink:href="#DejaVuSans-33"/>
    </g>
   </g>
   <g id="text_15">
    <!-- f2 -->
    <g transform="translate(369.18424 156.979466)scale(0.17 -0.17)">
     <use xlink:href="#DejaVuSans-66"/>
     <use x="35.205078" xlink:href="#DejaVuSans-32"/>
    </g>
   </g>
   <g id="text_16">
    <!-- f1 -->
    <g transform="translate(369.18424 88.53556)scale(0.17 -0.17)">
     <use xlink:href="#DejaVuSans-66"/>
     <use x="35.205078" xlink:href="#DejaVuSans-31"/>
    </g>
   </g>
   <g id="text_17">
    <!-- f5 -->
    <defs>
     <path d="M 10.796875 72.90625 
L 49.515625 72.90625 
L 49.515625 64.59375 
L 19.828125 64.59375 
L 19.828125 46.734375 
Q 21.96875 47.46875 24.109375 47.828125 
Q 26.265625 48.1875 28.421875 48.1875 
Q 40.625 48.1875 47.75 41.5 
Q 54.890625 34.8125 54.890625 23.390625 
Q 54.890625 11.625 47.5625 5.09375 
Q 40.234375 -1.421875 26.90625 -1.421875 
Q 22.3125 -1.421875 17.546875 -0.640625 
Q 12.796875 0.140625 7.71875 1.703125 
L 7.71875 11.625 
Q 12.109375 9.234375 16.796875 8.0625 
Q 21.484375 6.890625 26.703125 6.890625 
Q 35.15625 6.890625 40.078125 11.328125 
Q 45.015625 15.765625 45.015625 23.390625 
Q 45.015625 31 40.078125 35.4375 
Q 35.15625 39.890625 26.703125 39.890625 
Q 22.75 39.890625 18.8125 39.015625 
Q 14.890625 38.140625 10.796875 36.28125 
z
" id="DejaVuSans-35"/>
    </defs>
    <g transform="translate(369.18424 20.091654)scale(0.17 -0.17)">
     <use xlink:href="#DejaVuSans-66"/>
     <use x="35.205078" xlink:href="#DejaVuSans-35"/>
    </g>
   </g>
   <g id="text_18">
    <!-- bbob -->
    <defs>
     <path d="M 48.6875 27.296875 
Q 48.6875 37.203125 44.609375 42.84375 
Q 40.53125 48.484375 33.40625 48.484375 
Q 26.265625 48.484375 22.1875 42.84375 
Q 18.109375 37.203125 18.109375 27.296875 
Q 18.109375 17.390625 22.1875 11.75 
Q 26.265625 6.109375 33.40625 6.109375 
Q 40.53125 6.109375 44.609375 11.75 
Q 48.6875 17.390625 48.6875 27.296875 
z
M 18.109375 46.390625 
Q 20.953125 51.265625 25.265625 53.625 
Q 29.59375 56 35.59375 56 
Q 45.5625 56 51.78125 48.09375 
Q 58.015625 40.1875 58.015625 27.296875 
Q 58.015625 14.40625 51.78125 6.484375 
Q 45.5625 -1.421875 35.59375 -1.421875 
Q 29.59375 -1.421875 25.265625 0.953125 
Q 20.953125 3.328125 18.109375 8.203125 
L 18.109375 0 
L 9.078125 0 
L 9.078125 75.984375 
L 18.109375 75.984375 
z
" id="DejaVuSans-62"/>
    </defs>
    <g transform="translate(58.89048 17.475982)scale(0.102 -0.102)">
     <use xlink:href="#DejaVuSans-62"/>
     <use x="63.476562" xlink:href="#DejaVuSans-62"/>
     <use x="126.953125" xlink:href="#DejaVuSans-6f"/>
     <use x="188.134766" xlink:href="#DejaVuSans-62"/>
    </g>
    <!-- Separable functions, 3-D -->
    <defs>
     <path d="M 53.515625 70.515625 
L 53.515625 60.890625 
Q 47.90625 63.578125 42.921875 64.890625 
Q 37.9375 66.21875 33.296875 66.21875 
Q 25.25 66.21875 20.875 63.09375 
Q 16.5 59.96875 16.5 54.203125 
Q 16.5 49.359375 19.40625 46.890625 
Q 22.3125 44.4375 30.421875 42.921875 
L 36.375 41.703125 
Q 47.40625 39.59375 52.65625 34.296875 
Q 57.90625 29 57.90625 20.125 
Q 57.90625 9.515625 50.796875 4.046875 
Q 43.703125 -1.421875 29.984375 -1.421875 
Q 24.8125 -1.421875 18.96875 -0.25 
Q 13.140625 0.921875 6.890625 3.21875 
L 6.890625 13.375 
Q 12.890625 10.015625 18.65625 8.296875 
Q 24.421875 6.59375 29.984375 6.59375 
Q 38.421875 6.59375 43.015625 9.90625 
Q 47.609375 13.234375 47.609375 19.390625 
Q 47.609375 24.75 44.3125 27.78125 
Q 41.015625 30.8125 33.5 32.328125 
L 27.484375 33.5 
Q 16.453125 35.6875 11.515625 40.375 
Q 6.59375 45.0625 6.59375 53.421875 
Q 6.59375 63.09375 13.40625 68.65625 
Q 20.21875 74.21875 32.171875 74.21875 
Q 37.3125 74.21875 42.625 73.28125 
Q 47.953125 72.359375 53.515625 70.515625 
z
" id="DejaVuSans-53"/>
     <path d="M 19.671875 64.796875 
L 19.671875 8.109375 
L 31.59375 8.109375 
Q 46.6875 8.109375 53.6875 14.9375 
Q 60.6875 21.78125 60.6875 36.53125 
Q 60.6875 51.171875 53.6875 57.984375 
Q 46.6875 64.796875 31.59375 64.796875 
z
M 9.8125 72.90625 
L 30.078125 72.90625 
Q 51.265625 72.90625 61.171875 64.09375 
Q 71.09375 55.28125 71.09375 36.53125 
Q 71.09375 17.671875 61.125 8.828125 
Q 51.171875 0 30.078125 0 
L 9.8125 0 
z
" id="DejaVuSans-44"/>
    </defs>
    <g transform="translate(58.89048 28.89775)scale(0.102 -0.102)">
     <use xlink:href="#DejaVuSans-53"/>
     <use x="63.476562" xlink:href="#DejaVuSans-65"/>
     <use x="125" xlink:href="#DejaVuSans-70"/>
     <use x="188.476562" xlink:href="#DejaVuSans-61"/>
     <use x="249.755859" xlink:href="#DejaVuSans-72"/>
     <use x="290.869141" xlink:href="#DejaVuSans-61"/>
     <use x="352.148438" xlink:href="#DejaVuSans-62"/>
     <use x="415.625" xlink:href="#DejaVuSans-6c"/>
     <use x="443.408203" xlink:href="#DejaVuSans-65"/>
     <use x="504.931641" xlink:href="#DejaVuSans-20"/>
     <use x="536.71875" xlink:href="#DejaVuSans-66"/>
     <use x="571.923828" xlink:href="#DejaVuSans-75"/>
     <use x="635.302734" xlink:href="#DejaVuSans-6e"/>
     <use x="698.681641" xlink:href="#DejaVuSans-63"/>
     <use x="753.662109" xlink:href="#DejaVuSans-74"/>
     <use x="792.871094" xlink:href="#DejaVuSans-69"/>
     <use x="820.654297" xlink:href="#DejaVuSans-6f"/>
     <use x="881.835938" xlink:href="#DejaVuSans-6e"/>
     <use x="945.214844" xlink:href="#DejaVuSans-73"/>
     <use x="997.314453" xlink:href="#DejaVuSans-2c"/>
     <use x="1029.101562" xlink:href="#DejaVuSans-20"/>
     <use x="1060.888672" xlink:href="#DejaVuSans-33"/>
     <use x="1124.511719" xlink:href="#DejaVuSans-2d"/>
     <use x="1160.595703" xlink:href="#DejaVuSans-44"/>
    </g>
    <!-- 51 targets: 100..1e-08 -->
    <defs>
     <path d="M 11.71875 12.40625 
L 22.015625 12.40625 
L 22.015625 0 
L 11.71875 0 
z
M 11.71875 51.703125 
L 22.015625 51.703125 
L 22.015625 39.3125 
L 11.71875 39.3125 
z
" id="DejaVuSans-3a"/>
    </defs>
    <g transform="translate(58.89048 40.319519)scale(0.102 -0.102)">
     <use xlink:href="#DejaVuSans-35"/>
     <use x="63.623047" xlink:href="#DejaVuSans-31"/>
     <use x="127.246094" xlink:href="#DejaVuSans-20"/>
     <use x="159.033203" xlink:href="#DejaVuSans-74"/>
     <use x="198.242188" xlink:href="#DejaVuSans-61"/>
     <use x="259.521484" xlink:href="#DejaVuSans-72"/>
     <use x="300.619141" xlink:href="#DejaVuSans-67"/>
     <use x="364.095703" xlink:href="#DejaVuSans-65"/>
     <use x="425.619141" xlink:href="#DejaVuSans-74"/>
     <use x="464.828125" xlink:href="#DejaVuSans-73"/>
     <use x="516.927734" xlink:href="#DejaVuSans-3a"/>
     <use x="550.619141" xlink:href="#DejaVuSans-20"/>
     <use x="582.40625" xlink:href="#DejaVuSans-31"/>
     <use x="646.029297" xlink:href="#DejaVuSans-30"/>
     <use x="709.652344" xlink:href="#DejaVuSans-30"/>
     <use x="773.275391" xlink:href="#DejaVuSans-2e"/>
     <use x="805.0625" xlink:href="#DejaVuSans-2e"/>
     <use x="836.849609" xlink:href="#DejaVuSans-31"/>
     <use x="900.472656" xlink:href="#DejaVuSans-65"/>
     <use x="961.996094" xlink:href="#DejaVuSans-2d"/>
     <use x="998.080078" xlink:href="#DejaVuSans-30"/>
     <use x="1061.703125" xlink:href="#DejaVuSans-38"/>
    </g>
    <!-- 15 instances -->
    <g transform="translate(58.89048 51.741288)scale(0.102 -0.102)">
     <use xlink:href="#DejaVuSans-31"/>
     <use x="63.623047" xlink:href="#DejaVuSans-35"/>
     <use x="127.246094" xlink:href="#DejaVuSans-20"/>
     <use x="159.033203" xlink:href="#DejaVuSans-69"/>
     <use x="186.816406" xlink:href="#DejaVuSans-6e"/>
     <use x="250.195312" xlink:href="#DejaVuSans-73"/>
     <use x="302.294922" xlink:href="#DejaVuSans-74"/>
     <use x="341.503906" xlink:href="#DejaVuSans-61"/>
     <use x="402.783203" xlink:href="#DejaVuSans-6e"/>
     <use x="466.162109" xlink:href="#DejaVuSans-63"/>
     <use x="521.142578" xlink:href="#DejaVuSans-65"/>
     <use x="582.666016" xlink:href="#DejaVuSans-73"/>
    </g>
   </g>
   <g id="text_19">
    <!-- v0.0.0 -->
    <g style="fill:#808080;" transform="translate(178.96275 289.919965)scale(0.1 -0.1)">
     <use xlink:href="#DejaVuSans-76"/>
     <use x="59.179688" xlink:href="#DejaVuSans-30"/>
     <use x="122.802734" xlink:href="#DejaVuSans-2e"/>
     <use x="154.589844" xlink:href="#DejaVuSans-30"/>
     <use x="218.212891" xlink:href="#DejaVuSans-2e"/>
     <use x="250" xlink:href="#DejaVuSans-30"/>
    </g>
   </g>
  </g>
 </g>
 <defs>
  <clipPath id="p5a6d4db360">
   <rect height="288.034772" width="277.048" x="56.12" y="6.845228"/>
  </clipPath>
 </defs>
</svg>
