<?xml version="1.0" encoding="utf-8" standalone="no"?>
<!DOCTYPE svg PUBLIC "-//W3C//DTD SVG 1.1//EN"
  "http://www.w3.org/Graphics/SVG/1.1/DTD/svg11.dtd">
<!-- Created with matplotlib (http://matplotlib.org/) -->
<svg height="345.6pt" version="1.1" viewBox="0 0 460.8 345.6" width="460.8pt" xmlns="http://www.w3.org/2000/svg" xmlns:xlink="http://www.w3.org/1999/xlink">
 <defs>
  <style type="text/css">
*{stroke-linecap:butt;stroke-linejoin:round;}
  </style>
 </defs>
 <g id="figure_1">
  <g id="patch_1">
   <path d="M 0 345.6 
L 460.8 345.6 
L 460.8 0 
L 0 0 
z
" style="fill:#ffffff;"/>
  </g>
  <g id="axes_1">
   <g id="patch_2">
    <path d="M 56.12 294.88 
L 333.168 294.88 
L 333.168 6.845228 
L 56.12 6.845228 
z
" style="fill:#ffffff;"/>
   </g>
   <g id="matplotlib.axis_1">
    <g id="xtick_1">
     <g id="line2d_1">
      <path clip-path="url(#p99680a4546)" d="M 56.12 294.88 
L 56.12 6.845228 
" style="fill:none;stroke:#b0b0b0;stroke-linecap:square;stroke-width:0.8;"/>
     </g>
     <g id="line2d_2">
      <defs>
       <path d="M 0 0 
L 0 3.5 
" id="mc06f4976db" style="stroke:#000000;stroke-width:0.8;"/>
      </defs>
      <g>
       <use style="stroke:#000000;stroke-width:0.8;" x="56.12" xlink:href="#mc06f4976db" y="294.88"/>
      </g>
     </g>
     <g id="text_1">
      <!-- 0 -->
      <defs>
       <path d="M 31.78125 66.40625 
Q 24.171875 66.40625 20.328125 58.90625 
Q 16.5 51.421875 16.5 36.375 
Q 16.5 21.390625 20.328125 13.890625 
Q 24.171875 6.390625 31.78125 6.390625 
Q 39.453125 6.390625 43.28125 13.890625 
Q 47.125 21.390625 47.125 36.375 
Q 47.125 51.421875 43.28125 58.90625 
Q 39.453125 66.40625 31.78125 66.40625 
z
M 31.78125 74.21875 
Q 44.046875 74.21875 50.515625 64.515625 
Q 56.984375 54.828125 56.984375 36.375 
Q 56.984375 17.96875 50.515625 8.265625 
Q 44.046875 -1.421875 31.78125 -1.421875 
Q 19.53125 -1.421875 13.0625 8.265625 
Q 6.59375 17.96875 6.59375 36.375 
Q 6.59375 54.828125 13.0625 64.515625 
Q 19.53125 74.21875 31.78125 74.21875 
z
" id="DejaVuSans-30"/>
      </defs>
      <g transform="translate(49.7575 317.076875)scale(0.2 -0.2)">
       <use xlink:href="#DejaVuSans-30"/>
      </g>
     </g>
    </g>
    <g id="xtick_2">
     <g id="line2d_3">
      <path clip-path="url(#p99680a4546)" d="M 135.276571 294.88 
L 135.276571 6.845228 
" style="fill:none;stroke:#b0b0b0;stroke-linecap:square;stroke-width:0.8;"/>
     </g>
     <g id="line2d_4">
      <g>
       <use style="stroke:#000000;stroke-width:0.8;" x="135.276571" xlink:href="#mc06f4976db" y="294.88"/>
      </g>
     </g>
     <g id="text_2">
      <!-- 2 -->
      <defs>
       <path d="M 19.1875 8.296875 
L 53.609375 8.296875 
L 53.609375 0 
L 7.328125 0 
L 7.328125 8.296875 
Q 12.9375 14.109375 22.625 23.890625 
Q 32.328125 33.6875 34.8125 36.53125 
Q 39.546875 41.84375 41.421875 45.53125 
Q 43.3125 49.21875 43.3125 52.78125 
Q 43.3125 58.59375 39.234375 62.25 
Q 35.15625 65.921875 28.609375 65.921875 
Q 23.96875 65.921875 18.8125 64.3125 
Q 13.671875 62.703125 7.8125 59.421875 
L 7.8125 69.390625 
Q 13.765625 71.78125 18.9375 73 
Q 24.125 74.21875 28.421875 74.21875 
Q 39.75 74.21875 46.484375 68.546875 
Q 53.21875 62.890625 53.21875 53.421875 
Q 53.21875 48.921875 51.53125 44.890625 
Q 49.859375 40.875 45.40625 35.40625 
Q 44.1875 33.984375 37.640625 27.21875 
Q 31.109375 20.453125 19.1875 8.296875 
z
" id="DejaVuSans-32"/>
      </defs>
      <g transform="translate(128.914071 317.076875)scale(0.2 -0.2)">
       <use xlink:href="#DejaVuSans-32"/>
      </g>
     </g>
    </g>
    <g id="xtick_3">
     <g id="line2d_5">
      <path clip-path="url(#p99680a4546)" d="M 214.433143 294.88 
L 214.433143 6.845228 
" style="fill:none;stroke:#b0b0b0;stroke-linecap:square;stroke-width:0.8;"/>
     </g>
     <g id="line2d_6">
      <g>
       <use style="stroke:#000000;stroke-width:0.8;" x="214.433143" xlink:href="#mc06f4976db" y="294.88"/>
      </g>
     </g>
     <g id="text_3">
      <!-- 4 -->
      <defs>
       <path d="M 37.796875 64.3125 
L 12.890625 25.390625 
L 37.796875 25.390625 
z
M 35.203125 72.90625 
L 47.609375 72.90625 
L 47.609375 25.390625 
L 58.015625 25.390625 
L 58.015625 17.1875 
L 47.609375 17.1875 
L 47.609375 0 
L 37.796875 0 
L 37.796875 17.1875 
L 4.890625 17.1875 
L 4.890625 26.703125 
z
" id="DejaVuSans-34"/>
      </defs>
      <g transform="translate(208.070643 317.076875)scale(0.2 -0.2)">
       <use xlink:href="#DejaVuSans-34"/>
      </g>
     </g>
    </g>
    <g id="xtick_4">
     <g id="line2d_7">
      <path clip-path="url(#p99680a4546)" d="M 293.589714 294.88 
L 293.589714 6.845228 
" style="fill:none;stroke:#b0b0b0;stroke-linecap:square;stroke-width:0.8;"/>
     </g>
     <g id="line2d_8">
      <g>
       <use style="stroke:#000000;stroke-width:0.8;" x="293.589714" xlink:href="#mc06f4976db" y="294.88"/>
      </g>
     </g>
     <g id="text_4">
      <!-- 6 -->
      <defs>
       <path d="M 33.015625 40.375 
Q 26.375 40.375 22.484375 35.828125 
Q 18.609375 31.296875 18.609375 23.390625 
Q 18.609375 15.53125 22.484375 10.953125 
Q 26.375 6.390625 33.015625 6.390625 
Q 39.65625 6.390625 43.53125 10.953125 
Q 47.40625 15.53125 47.40625 23.390625 
Q 47.40625 31.296875 43.53125 35.828125 
Q 39.65625 40.375 33.015625 40.375 
z
M 52.59375 71.296875 
L 52.59375 62.3125 
Q 48.875 64.0625 45.09375 64.984375 
Q 41.3125 65.921875 37.59375 65.921875 
Q 27.828125 65.921875 22.671875 59.328125 
Q 17.53125 52.734375 16.796875 39.40625 
Q 19.671875 43.65625 24.015625 45.921875 
Q 28.375 48.1875 33.59375 48.1875 
Q 44.578125 48.1875 50.953125 41.515625 
Q 57.328125 34.859375 57.328125 23.390625 
Q 57.328125 12.15625 50.6875 5.359375 
Q 44.046875 -1.421875 33.015625 -1.421875 
Q 20.359375 -1.421875 13.671875 8.265625 
Q 6.984375 17.96875 6.984375 36.375 
Q 6.984375 53.65625 15.1875 63.9375 
Q 23.390625 74.21875 37.203125 74.21875 
Q 40.921875 74.21875 44.703125 73.484375 
Q 48.484375 72.75 52.59375 71.296875 
z
" id="DejaVuSans-36"/>
      </defs>
      <g transform="translate(287.227214 317.076875)scale(0.2 -0.2)">
       <use xlink:href="#DejaVuSans-36"/>
      </g>
     </g>
    </g>
    <g id="xtick_5">
     <g id="line2d_9">
      <path clip-path="url(#p99680a4546)" d="M 56.12 294.88 
L 56.12 6.845228 
" style="fill:none;stroke:#b0b0b0;stroke-linecap:square;stroke-width:0.8;"/>
     </g>
     <g id="line2d_10">
      <defs>
       <path d="M 0 0 
L 0 2 
" id="m94eda63bbf" style="stroke:#000000;stroke-width:0.6;"/>
      </defs>
      <g>
       <use style="stroke:#000000;stroke-width:0.6;" x="56.12" xlink:href="#m94eda63bbf" y="294.88"/>
      </g>
     </g>
    </g>
    <g id="xtick_6">
     <g id="line2d_11">
      <path clip-path="url(#p99680a4546)" d="M 95.698286 294.88 
L 95.698286 6.845228 
" style="fill:none;stroke:#b0b0b0;stroke-linecap:square;stroke-width:0.8;"/>
     </g>
     <g id="line2d_12">
      <g>
       <use style="stroke:#000000;stroke-width:0.6;" x="95.698286" xlink:href="#m94eda63bbf" y="294.88"/>
      </g>
     </g>
    </g>
    <g id="xtick_7">
     <g id="line2d_13">
      <path clip-path="url(#p99680a4546)" d="M 135.276571 294.88 
L 135.276571 6.845228 
" style="fill:none;stroke:#b0b0b0;stroke-linecap:square;stroke-width:0.8;"/>
     </g>
     <g id="line2d_14">
      <g>
       <use style="stroke:#000000;stroke-width:0.6;" x="135.276571" xlink:href="#m94eda63bbf" y="294.88"/>
      </g>
     </g>
    </g>
    <g id="xtick_8">
     <g id="line2d_15">
      <path clip-path="url(#p99680a4546)" d="M 174.854857 294.88 
L 174.854857 6.845228 
" style="fill:none;stroke:#b0b0b0;stroke-linecap:square;stroke-width:0.8;"/>
     </g>
     <g id="line2d_16">
      <g>
       <use style="stroke:#000000;stroke-width:0.6;" x="174.854857" xlink:href="#m94eda63bbf" y="294.88"/>
      </g>
     </g>
    </g>
    <g id="xtick_9">
     <g id="line2d_17">
      <path clip-path="url(#p99680a4546)" d="M 214.433143 294.88 
L 214.433143 6.845228 
" style="fill:none;stroke:#b0b0b0;stroke-linecap:square;stroke-width:0.8;"/>
     </g>
     <g id="line2d_18">
      <g>
       <use style="stroke:#000000;stroke-width:0.6;" x="214.433143" xlink:href="#m94eda63bbf" y="294.88"/>
      </g>
     </g>
    </g>
    <g id="xtick_10">
     <g id="line2d_19">
      <path clip-path="url(#p99680a4546)" d="M 254.011429 294.88 
L 254.011429 6.845228 
" style="fill:none;stroke:#b0b0b0;stroke-linecap:square;stroke-width:0.8;"/>
     </g>
     <g id="line2d_20">
      <g>
       <use style="stroke:#000000;stroke-width:0.6;" x="254.011429" xlink:href="#m94eda63bbf" y="294.88"/>
      </g>
     </g>
    </g>
    <g id="xtick_11">
     <g id="line2d_21">
      <path clip-path="url(#p99680a4546)" d="M 293.589714 294.88 
L 293.589714 6.845228 
" style="fill:none;stroke:#b0b0b0;stroke-linecap:square;stroke-width:0.8;"/>
     </g>
     <g id="line2d_22">
      <g>
       <use style="stroke:#000000;stroke-width:0.6;" x="293.589714" xlink:href="#m94eda63bbf" y="294.88"/>
      </g>
     </g>
    </g>
    <g id="xtick_12">
     <g id="line2d_23">
      <path clip-path="url(#p99680a4546)" d="M 333.168 294.88 
L 333.168 6.845228 
" style="fill:none;stroke:#b0b0b0;stroke-linecap:square;stroke-width:0.8;"/>
     </g>
     <g id="line2d_24">
      <g>
       <use style="stroke:#000000;stroke-width:0.6;" x="333.168" xlink:href="#m94eda63bbf" y="294.88"/>
      </g>
     </g>
    </g>
    <g id="text_5">
     <!-- log10(# f-evals / dimension) -->
     <defs>
      <path d="M 9.421875 75.984375 
L 18.40625 75.984375 
L 18.40625 0 
L 9.421875 0 
z
" id="DejaVuSans-6c"/>
      <path d="M 30.609375 48.390625 
Q 23.390625 48.390625 19.1875 42.75 
Q 14.984375 37.109375 14.984375 27.296875 
Q 14.984375 17.484375 19.15625 11.84375 
Q 23.34375 6.203125 30.609375 6.203125 
Q 37.796875 6.203125 41.984375 11.859375 
Q 46.1875 17.53125 46.1875 27.296875 
Q 46.1875 37.015625 41.984375 42.703125 
Q 37.796875 48.390625 30.609375 48.390625 
z
M 30.609375 56 
Q 42.328125 56 49.015625 48.375 
Q 55.71875 40.765625 55.71875 27.296875 
Q 55.71875 13.875 49.015625 6.21875 
Q 42.328125 -1.421875 30.609375 -1.421875 
Q 18.84375 -1.421875 12.171875 6.21875 
Q 5.515625 13.875 5.515625 27.296875 
Q 5.515625 40.765625 12.171875 48.375 
Q 18.84375 56 30.609375 56 
z
" id="DejaVuSans-6f"/>
      <path d="M 45.40625 27.984375 
Q 45.40625 37.75 41.375 43.109375 
Q 37.359375 48.484375 30.078125 48.484375 
Q 22.859375 48.484375 18.828125 43.109375 
Q 14.796875 37.75 14.796875 27.984375 
Q 14.796875 18.265625 18.828125 12.890625 
Q 22.859375 7.515625 30.078125 7.515625 
Q 37.359375 7.515625 41.375 12.890625 
Q 45.40625 18.265625 45.40625 27.984375 
z
M 54.390625 6.78125 
Q 54.390625 -7.171875 48.1875 -13.984375 
Q 42 -20.796875 29.203125 -20.796875 
Q 24.46875 -20.796875 20.265625 -20.09375 
Q 16.0625 -19.390625 12.109375 -17.921875 
L 12.109375 -9.1875 
Q 16.0625 -11.328125 19.921875 -12.34375 
Q 23.78125 -13.375 27.78125 -13.375 
Q 36.625 -13.375 41.015625 -8.765625 
Q 45.40625 -4.15625 45.40625 5.171875 
L 45.40625 9.625 
Q 42.625 4.78125 38.28125 2.390625 
Q 33.9375 0 27.875 0 
Q 17.828125 0 11.671875 7.65625 
Q 5.515625 15.328125 5.515625 27.984375 
Q 5.515625 40.671875 11.671875 48.328125 
Q 17.828125 56 27.875 56 
Q 33.9375 56 38.28125 53.609375 
Q 42.625 51.21875 45.40625 46.390625 
L 45.40625 54.6875 
L 54.390625 54.6875 
z
" id="DejaVuSans-67"/>
      <path d="M 12.40625 8.296875 
L 28.515625 8.296875 
L 28.515625 63.921875 
L 10.984375 60.40625 
L 10.984375 69.390625 
L 28.421875 72.90625 
L 38.28125 72.90625 
L 38.28125 8.296875 
L 54.390625 8.296875 
L 54.390625 0 
L 12.40625 0 
z
" id="DejaVuSans-31"/>
      <path d="M 31 75.875 
Q 24.46875 64.65625 21.28125 53.65625 
Q 18.109375 42.671875 18.109375 31.390625 
Q 18.109375 20.125 21.3125 9.0625 
Q 24.515625 -2 31 -13.1875 
L 23.1875 -13.1875 
Q 15.875 -1.703125 12.234375 9.375 
Q 8.59375 20.453125 8.59375 31.390625 
Q 8.59375 42.28125 12.203125 53.3125 
Q 15.828125 64.359375 23.1875 75.875 
z
" id="DejaVuSans-28"/>
      <path d="M 51.125 44 
L 36.921875 44 
L 32.8125 27.6875 
L 47.125 27.6875 
z
M 43.796875 71.78125 
L 38.71875 51.515625 
L 52.984375 51.515625 
L 58.109375 71.78125 
L 65.921875 71.78125 
L 60.890625 51.515625 
L 76.125 51.515625 
L 76.125 44 
L 58.984375 44 
L 54.984375 27.6875 
L 70.515625 27.6875 
L 70.515625 20.21875 
L 53.078125 20.21875 
L 48 0 
L 40.1875 0 
L 45.21875 20.21875 
L 30.90625 20.21875 
L 25.875 0 
L 18.015625 0 
L 23.09375 20.21875 
L 7.71875 20.21875 
L 7.71875 27.6875 
L 24.90625 27.6875 
L 29 44 
L 13.28125 44 
L 13.28125 51.515625 
L 30.90625 51.515625 
L 35.890625 71.78125 
z
" id="DejaVuSans-23"/>
      <path id="DejaVuSans-20"/>
      <path d="M 37.109375 75.984375 
L 37.109375 68.5 
L 28.515625 68.5 
Q 23.6875 68.5 21.796875 66.546875 
Q 19.921875 64.59375 19.921875 59.515625 
L 19.921875 54.6875 
L 34.71875 54.6875 
L 34.71875 47.703125 
L 19.921875 47.703125 
L 19.921875 0 
L 10.890625 0 
L 10.890625 47.703125 
L 2.296875 47.703125 
L 2.296875 54.6875 
L 10.890625 54.6875 
L 10.890625 58.5 
Q 10.890625 67.625 15.140625 71.796875 
Q 19.390625 75.984375 28.609375 75.984375 
z
" id="DejaVuSans-66"/>
      <path d="M 4.890625 31.390625 
L 31.203125 31.390625 
L 31.203125 23.390625 
L 4.890625 23.390625 
z
" id="DejaVuSans-2d"/>
      <path d="M 56.203125 29.59375 
L 56.203125 25.203125 
L 14.890625 25.203125 
Q 15.484375 15.921875 20.484375 11.0625 
Q 25.484375 6.203125 34.421875 6.203125 
Q 39.59375 6.203125 44.453125 7.46875 
Q 49.3125 8.734375 54.109375 11.28125 
L 54.109375 2.78125 
Q 49.265625 0.734375 44.1875 -0.34375 
Q 39.109375 -1.421875 33.890625 -1.421875 
Q 20.796875 -1.421875 13.15625 6.1875 
Q 5.515625 13.8125 5.515625 26.8125 
Q 5.515625 40.234375 12.765625 48.109375 
Q 20.015625 56 32.328125 56 
Q 43.359375 56 49.78125 48.890625 
Q 56.203125 41.796875 56.203125 29.59375 
z
M 47.21875 32.234375 
Q 47.125 39.59375 43.09375 43.984375 
Q 39.0625 48.390625 32.421875 48.390625 
Q 24.90625 48.390625 20.390625 44.140625 
Q 15.875 39.890625 15.1875 32.171875 
z
" id="DejaVuSans-65"/>
      <path d="M 2.984375 54.6875 
L 12.5 54.6875 
L 29.59375 8.796875 
L 46.6875 54.6875 
L 56.203125 54.6875 
L 35.6875 0 
L 23.484375 0 
z
" id="DejaVuSans-76"/>
      <path d="M 34.28125 27.484375 
Q 23.390625 27.484375 19.1875 25 
Q 14.984375 22.515625 14.984375 16.5 
Q 14.984375 11.71875 18.140625 8.90625 
Q 21.296875 6.109375 26.703125 6.109375 
Q 34.1875 6.109375 38.703125 11.40625 
Q 43.21875 16.703125 43.21875 25.484375 
L 43.21875 27.484375 
z
M 52.203125 31.203125 
L 52.203125 0 
L 43.21875 0 
L 43.21875 8.296875 
Q 40.140625 3.328125 35.546875 0.953125 
Q 30.953125 -1.421875 24.3125 -1.421875 
Q 15.921875 -1.421875 10.953125 3.296875 
Q 6 8.015625 6 15.921875 
Q 6 25.140625 12.171875 29.828125 
Q 18.359375 34.515625 30.609375 34.515625 
L 43.21875 34.515625 
L 43.21875 35.40625 
Q 43.21875 41.609375 39.140625 45 
Q 35.0625 48.390625 27.6875 48.390625 
Q 23 48.390625 18.546875 47.265625 
Q 14.109375 46.140625 10.015625 43.890625 
L 10.015625 52.203125 
Q 14.9375 54.109375 19.578125 55.046875 
Q 24.21875 56 28.609375 56 
Q 40.484375 56 46.34375 49.84375 
Q 52.203125 43.703125 52.203125 31.203125 
z
" id="DejaVuSans-61"/>
      <path d="M 44.28125 53.078125 
L 44.28125 44.578125 
Q 40.484375 46.53125 36.375 47.5 
Q 32.28125 48.484375 27.875 48.484375 
Q 21.1875 48.484375 17.84375 46.4375 
Q 14.5 44.390625 14.5 40.28125 
Q 14.5 37.15625 16.890625 35.375 
Q 19.28125 33.59375 26.515625 31.984375 
L 29.59375 31.296875 
Q 39.15625 29.25 43.1875 25.515625 
Q 47.21875 21.78125 47.21875 15.09375 
Q 47.21875 7.46875 41.1875 3.015625 
Q 35.15625 -1.421875 24.609375 -1.421875 
Q 20.21875 -1.421875 15.453125 -0.5625 
Q 10.6875 0.296875 5.421875 2 
L 5.421875 11.28125 
Q 10.40625 8.6875 15.234375 7.390625 
Q 20.0625 6.109375 24.8125 6.109375 
Q 31.15625 6.109375 34.5625 8.28125 
Q 37.984375 10.453125 37.984375 14.40625 
Q 37.984375 18.0625 35.515625 20.015625 
Q 33.0625 21.96875 24.703125 23.78125 
L 21.578125 24.515625 
Q 13.234375 26.265625 9.515625 29.90625 
Q 5.8125 33.546875 5.8125 39.890625 
Q 5.8125 47.609375 11.28125 51.796875 
Q 16.75 56 26.8125 56 
Q 31.78125 56 36.171875 55.265625 
Q 40.578125 54.546875 44.28125 53.078125 
z
" id="DejaVuSans-73"/>
      <path d="M 25.390625 72.90625 
L 33.6875 72.90625 
L 8.296875 -9.28125 
L 0 -9.28125 
z
" id="DejaVuSans-2f"/>
      <path d="M 45.40625 46.390625 
L 45.40625 75.984375 
L 54.390625 75.984375 
L 54.390625 0 
L 45.40625 0 
L 45.40625 8.203125 
Q 42.578125 3.328125 38.25 0.953125 
Q 33.9375 -1.421875 27.875 -1.421875 
Q 17.96875 -1.421875 11.734375 6.484375 
Q 5.515625 14.40625 5.515625 27.296875 
Q 5.515625 40.1875 11.734375 48.09375 
Q 17.96875 56 27.875 56 
Q 33.9375 56 38.25 53.625 
Q 42.578125 51.265625 45.40625 46.390625 
z
M 14.796875 27.296875 
Q 14.796875 17.390625 18.875 11.75 
Q 22.953125 6.109375 30.078125 6.109375 
Q 37.203125 6.109375 41.296875 11.75 
Q 45.40625 17.390625 45.40625 27.296875 
Q 45.40625 37.203125 41.296875 42.84375 
Q 37.203125 48.484375 30.078125 48.484375 
Q 22.953125 48.484375 18.875 42.84375 
Q 14.796875 37.203125 14.796875 27.296875 
z
" id="DejaVuSans-64"/>
      <path d="M 9.421875 54.6875 
L 18.40625 54.6875 
L 18.40625 0 
L 9.421875 0 
z
M 9.421875 75.984375 
L 18.40625 75.984375 
L 18.40625 64.59375 
L 9.421875 64.59375 
z
" id="DejaVuSans-69"/>
      <path d="M 52 44.1875 
Q 55.375 50.25 60.0625 53.125 
Q 64.75 56 71.09375 56 
Q 79.640625 56 84.28125 50.015625 
Q 88.921875 44.046875 88.921875 33.015625 
L 88.921875 0 
L 79.890625 0 
L 79.890625 32.71875 
Q 79.890625 40.578125 77.09375 44.375 
Q 74.3125 48.1875 68.609375 48.1875 
Q 61.625 48.1875 57.5625 43.546875 
Q 53.515625 38.921875 53.515625 30.90625 
L 53.515625 0 
L 44.484375 0 
L 44.484375 32.71875 
Q 44.484375 40.625 41.703125 44.40625 
Q 38.921875 48.1875 33.109375 48.1875 
Q 26.21875 48.1875 22.15625 43.53125 
Q 18.109375 38.875 18.109375 30.90625 
L 18.109375 0 
L 9.078125 0 
L 9.078125 54.6875 
L 18.109375 54.6875 
L 18.109375 46.1875 
Q 21.1875 51.21875 25.484375 53.609375 
Q 29.78125 56 35.6875 56 
Q 41.65625 56 45.828125 52.96875 
Q 50 49.953125 52 44.1875 
z
" id="DejaVuSans-6d"/>
      <path d="M 54.890625 33.015625 
L 54.890625 0 
L 45.90625 0 
L 45.90625 32.71875 
Q 45.90625 40.484375 42.875 44.328125 
Q 39.84375 48.1875 33.796875 48.1875 
Q 26.515625 48.1875 22.3125 43.546875 
Q 18.109375 38.921875 18.109375 30.90625 
L 18.109375 0 
L 9.078125 0 
L 9.078125 54.6875 
L 18.109375 54.6875 
L 18.109375 46.1875 
Q 21.34375 51.125 25.703125 53.5625 
Q 30.078125 56 35.796875 56 
Q 45.21875 56 50.046875 50.171875 
Q 54.890625 44.34375 54.890625 33.015625 
z
" id="DejaVuSans-6e"/>
      <path d="M 8.015625 75.875 
L 15.828125 75.875 
Q 23.140625 64.359375 26.78125 53.3125 
Q 30.421875 42.28125 30.421875 31.390625 
Q 30.421875 20.453125 26.78125 9.375 
Q 23.140625 -1.703125 15.828125 -13.1875 
L 8.015625 -13.1875 
Q 14.5 -2 17.703125 9.0625 
Q 20.90625 20.125 20.90625 31.390625 
Q 20.90625 42.671875 17.703125 53.65625 
Q 14.5 64.65625 8.015625 75.875 
z
" id="DejaVuSans-29"/>
     </defs>
     <g transform="translate(73.803219 338.153594)scale(0.17 -0.17)">
      <use xlink:href="#DejaVuSans-6c"/>
      <use x="27.783203" xlink:href="#DejaVuSans-6f"/>
      <use x="88.964844" xlink:href="#DejaVuSans-67"/>
      <use x="152.441406" xlink:href="#DejaVuSans-31"/>
      <use x="216.064453" xlink:href="#DejaVuSans-30"/>
      <use x="279.6875" xlink:href="#DejaVuSans-28"/>
      <use x="318.701172" xlink:href="#DejaVuSans-23"/>
      <use x="402.490234" xlink:href="#DejaVuSans-20"/>
      <use x="434.277344" xlink:href="#DejaVuSans-66"/>
      <use x="469.404297" xlink:href="#DejaVuSans-2d"/>
      <use x="505.488281" xlink:href="#DejaVuSans-65"/>
      <use x="567.011719" xlink:href="#DejaVuSans-76"/>
      <use x="626.191406" xlink:href="#DejaVuSans-61"/>
      <use x="687.470703" xlink:href="#DejaVuSans-6c"/>
      <use x="715.253906" xlink:href="#DejaVuSans-73"/>
      <use x="767.353516" xlink:href="#DejaVuSans-20"/>
      <use x="799.140625" xlink:href="#DejaVuSans-2f"/>
      <use x="832.832031" xlink:href="#DejaVuSans-20"/>
      <use x="864.619141" xlink:href="#DejaVuSans-64"/>
      <use x="928.095703" xlink:href="#DejaVuSans-69"/>
      <use x="955.878906" xlink:href="#DejaVuSans-6d"/>
      <use x="1053.291016" xlink:href="#DejaVuSans-65"/>
      <use x="1114.814453" xlink:href="#DejaVuSans-6e"/>
      <use x="1178.193359" xlink:href="#DejaVuSans-73"/>
      <use x="1230.292969" xlink:href="#DejaVuSans-69"/>
      <use x="1258.076172" xlink:href="#DejaVuSans-6f"/>
      <use x="1319.257812" xlink:href="#DejaVuSans-6e"/>
      <use x="1382.636719" xlink:href="#DejaVuSans-29"/>
     </g>
    </g>
   </g>
   <g id="matplotlib.axis_2">
    <g id="ytick_1">
     <g id="line2d_25">
      <path clip-path="url(#p99680a4546)" d="M 56.12 294.88 
L 333.168 294.88 
" style="fill:none;stroke:#b0b0b0;stroke-linecap:square;stroke-width:0.8;"/>
     </g>
     <g id="line2d_26">
      <defs>
       <path d="M 0 0 
L -3.5 0 
" id="m418f868bac" style="stroke:#000000;stroke-width:0.8;"/>
      </defs>
      <g>
       <use style="stroke:#000000;stroke-width:0.8;" x="56.12" xlink:href="#m418f868bac" y="294.88"/>
      </g>
     </g>
     <g id="text_6">
      <!-- 0.0 -->
      <defs>
       <path d="M 10.6875 12.40625 
L 21 12.40625 
L 21 0 
L 10.6875 0 
z
" id="DejaVuSans-2e"/>
      </defs>
      <g transform="translate(23.675 300.95875)scale(0.16 -0.16)">
       <use xlink:href="#DejaVuSans-30"/>
       <use x="63.623047" xlink:href="#DejaVuSans-2e"/>
       <use x="95.410156" xlink:href="#DejaVuSans-30"/>
      </g>
     </g>
    </g>
    <g id="ytick_2">
     <g id="line2d_27">
      <path clip-path="url(#p99680a4546)" d="M 56.12 237.843411 
L 333.168 237.843411 
" style="fill:none;stroke:#b0b0b0;stroke-linecap:square;stroke-width:0.8;"/>
     </g>
     <g id="line2d_28">
      <g>
       <use style="stroke:#000000;stroke-width:0.8;" x="56.12" xlink:href="#m418f868bac" y="237.843411"/>
      </g>
     </g>
     <g id="text_7">
      <!-- 0.2 -->
      <g transform="translate(23.675 243.922161)scale(0.16 -0.16)">
       <use xlink:href="#DejaVuSans-30"/>
       <use x="63.623047" xlink:href="#DejaVuSans-2e"/>
       <use x="95.410156" xlink:href="#DejaVuSans-32"/>
      </g>
     </g>
    </g>
    <g id="ytick_3">
     <g id="line2d_29">
      <path clip-path="url(#p99680a4546)" d="M 56.12 180.806823 
L 333.168 180.806823 
" style="fill:none;stroke:#b0b0b0;stroke-linecap:square;stroke-width:0.8;"/>
     </g>
     <g id="line2d_30">
      <g>
       <use style="stroke:#000000;stroke-width:0.8;" x="56.12" xlink:href="#m418f868bac" y="180.806823"/>
      </g>
     </g>
     <g id="text_8">
      <!-- 0.4 -->
      <g transform="translate(23.675 186.885573)scale(0.16 -0.16)">
       <use xlink:href="#DejaVuSans-30"/>
       <use x="63.623047" xlink:href="#DejaVuSans-2e"/>
       <use x="95.410156" xlink:href="#DejaVuSans-34"/>
      </g>
     </g>
    </g>
    <g id="ytick_4">
     <g id="line2d_31">
      <path clip-path="url(#p99680a4546)" d="M 56.12 123.770234 
L 333.168 123.770234 
" style="fill:none;stroke:#b0b0b0;stroke-linecap:square;stroke-width:0.8;"/>
     </g>
     <g id="line2d_32">
      <g>
       <use style="stroke:#000000;stroke-width:0.8;" x="56.12" xlink:href="#m418f868bac" y="123.770234"/>
      </g>
     </g>
     <g id="text_9">
      <!-- 0.6 -->
      <g transform="translate(23.675 129.848984)scale(0.16 -0.16)">
       <use xlink:href="#DejaVuSans-30"/>
       <use x="63.623047" xlink:href="#DejaVuSans-2e"/>
       <use x="95.410156" xlink:href="#DejaVuSans-36"/>
      </g>
     </g>
    </g>
    <g id="ytick_5">
     <g id="line2d_33">
      <path clip-path="url(#p99680a4546)" d="M 56.12 66.733646 
L 333.168 66.733646 
" style="fill:none;stroke:#b0b0b0;stroke-linecap:square;stroke-width:0.8;"/>
     </g>
     <g id="line2d_34">
      <g>
       <use style="stroke:#000000;stroke-width:0.8;" x="56.12" xlink:href="#m418f868bac" y="66.733646"/>
      </g>
     </g>
     <g id="text_10">
      <!-- 0.8 -->
      <defs>
       <path d="M 31.78125 34.625 
Q 24.75 34.625 20.71875 30.859375 
Q 16.703125 27.09375 16.703125 20.515625 
Q 16.703125 13.921875 20.71875 10.15625 
Q 24.75 6.390625 31.78125 6.390625 
Q 38.8125 6.390625 42.859375 10.171875 
Q 46.921875 13.96875 46.921875 20.515625 
Q 46.921875 27.09375 42.890625 30.859375 
Q 38.875 34.625 31.78125 34.625 
z
M 21.921875 38.8125 
Q 15.578125 40.375 12.03125 44.71875 
Q 8.5 49.078125 8.5 55.328125 
Q 8.5 64.0625 14.71875 69.140625 
Q 20.953125 74.21875 31.78125 74.21875 
Q 42.671875 74.21875 48.875 69.140625 
Q 55.078125 64.0625 55.078125 55.328125 
Q 55.078125 49.078125 51.53125 44.71875 
Q 48 40.375 41.703125 38.8125 
Q 48.828125 37.15625 52.796875 32.3125 
Q 56.78125 27.484375 56.78125 20.515625 
Q 56.78125 9.90625 50.3125 4.234375 
Q 43.84375 -1.421875 31.78125 -1.421875 
Q 19.734375 -1.421875 13.25 4.234375 
Q 6.78125 9.90625 6.78125 20.515625 
Q 6.78125 27.484375 10.78125 32.3125 
Q 14.796875 37.15625 21.921875 38.8125 
z
M 18.3125 54.390625 
Q 18.3125 48.734375 21.84375 45.5625 
Q 25.390625 42.390625 31.78125 42.390625 
Q 38.140625 42.390625 41.71875 45.5625 
Q 45.3125 48.734375 45.3125 54.390625 
Q 45.3125 60.0625 41.71875 63.234375 
Q 38.140625 66.40625 31.78125 66.40625 
Q 25.390625 66.40625 21.84375 63.234375 
Q 18.3125 60.0625 18.3125 54.390625 
z
" id="DejaVuSans-38"/>
      </defs>
      <g transform="translate(23.675 72.812396)scale(0.16 -0.16)">
       <use xlink:href="#DejaVuSans-30"/>
       <use x="63.623047" xlink:href="#DejaVuSans-2e"/>
       <use x="95.410156" xlink:href="#DejaVuSans-38"/>
      </g>
     </g>
    </g>
    <g id="ytick_6">
     <g id="line2d_35">
      <path clip-path="url(#p99680a4546)" d="M 56.12 9.697057 
L 333.168 9.697057 
" style="fill:none;stroke:#b0b0b0;stroke-linecap:square;stroke-width:0.8;"/>
     </g>
     <g id="line2d_36">
      <g>
       <use style="stroke:#000000;stroke-width:0.8;" x="56.12" xlink:href="#m418f868bac" y="9.697057"/>
      </g>
     </g>
     <g id="text_11">
      <!-- 1.0 -->
      <g transform="translate(23.675 15.775807)scale(0.16 -0.16)">
       <use xlink:href="#DejaVuSans-31"/>
       <use x="63.623047" xlink:href="#DejaVuSans-2e"/>
       <use x="95.410156" xlink:href="#DejaVuSans-30"/>
      </g>
     </g>
    </g>
    <g id="text_12">
     <!-- Fraction of function,target pairs -->
     <defs>
      <path d="M 9.8125 72.90625 
L 51.703125 72.90625 
L 51.703125 64.59375 
L 19.671875 64.59375 
L 19.671875 43.109375 
L 48.578125 43.109375 
L 48.578125 34.8125 
L 19.671875 34.8125 
L 19.671875 0 
L 9.8125 0 
z
" id="DejaVuSans-46"/>
      <path d="M 41.109375 46.296875 
Q 39.59375 47.171875 37.8125 47.578125 
Q 36.03125 48 33.890625 48 
Q 26.265625 48 22.1875 43.046875 
Q 18.109375 38.09375 18.109375 28.8125 
L 18.109375 0 
L 9.078125 0 
L 9.078125 54.6875 
L 18.109375 54.6875 
L 18.109375 46.1875 
Q 20.953125 51.171875 25.484375 53.578125 
Q 30.03125 56 36.53125 56 
Q 37.453125 56 38.578125 55.875 
Q 39.703125 55.765625 41.0625 55.515625 
z
" id="DejaVuSans-72"/>
      <path d="M 48.78125 52.59375 
L 48.78125 44.1875 
Q 44.96875 46.296875 41.140625 47.34375 
Q 37.3125 48.390625 33.40625 48.390625 
Q 24.65625 48.390625 19.8125 42.84375 
Q 14.984375 37.3125 14.984375 27.296875 
Q 14.984375 17.28125 19.8125 11.734375 
Q 24.65625 6.203125 33.40625 6.203125 
Q 37.3125 6.203125 41.140625 7.25 
Q 44.96875 8.296875 48.78125 10.40625 
L 48.78125 2.09375 
Q 45.015625 0.34375 40.984375 -0.53125 
Q 36.96875 -1.421875 32.421875 -1.421875 
Q 20.0625 -1.421875 12.78125 6.34375 
Q 5.515625 14.109375 5.515625 27.296875 
Q 5.515625 40.671875 12.859375 48.328125 
Q 20.21875 56 33.015625 56 
Q 37.15625 56 41.109375 55.140625 
Q 45.0625 54.296875 48.78125 52.59375 
z
" id="DejaVuSans-63"/>
      <path d="M 18.3125 70.21875 
L 18.3125 54.6875 
L 36.8125 54.6875 
L 36.8125 47.703125 
L 18.3125 47.703125 
L 18.3125 18.015625 
Q 18.3125 11.328125 20.140625 9.421875 
Q 21.96875 7.515625 27.59375 7.515625 
L 36.8125 7.515625 
L 36.8125 0 
L 27.59375 0 
Q 17.1875 0 13.234375 3.875 
Q 9.28125 7.765625 9.28125 18.015625 
L 9.28125 47.703125 
L 2.6875 47.703125 
L 2.6875 54.6875 
L 9.28125 54.6875 
L 9.28125 70.21875 
z
" id="DejaVuSans-74"/>
      <path d="M 8.5 21.578125 
L 8.5 54.6875 
L 17.484375 54.6875 
L 17.484375 21.921875 
Q 17.484375 14.15625 20.5 10.265625 
Q 23.53125 6.390625 29.59375 6.390625 
Q 36.859375 6.390625 41.078125 11.03125 
Q 45.3125 15.671875 45.3125 23.6875 
L 45.3125 54.6875 
L 54.296875 54.6875 
L 54.296875 0 
L 45.3125 0 
L 45.3125 8.40625 
Q 42.046875 3.421875 37.71875 1 
Q 33.40625 -1.421875 27.6875 -1.421875 
Q 18.265625 -1.421875 13.375 4.4375 
Q 8.5 10.296875 8.5 21.578125 
z
M 31.109375 56 
z
" id="DejaVuSans-75"/>
      <path d="M 11.71875 12.40625 
L 22.015625 12.40625 
L 22.015625 4 
L 14.015625 -11.625 
L 7.71875 -11.625 
L 11.71875 4 
z
" id="DejaVuSans-2c"/>
      <path d="M 18.109375 8.203125 
L 18.109375 -20.796875 
L 9.078125 -20.796875 
L 9.078125 54.6875 
L 18.109375 54.6875 
L 18.109375 46.390625 
Q 20.953125 51.265625 25.265625 53.625 
Q 29.59375 56 35.59375 56 
Q 45.5625 56 51.78125 48.09375 
Q 58.015625 40.1875 58.015625 27.296875 
Q 58.015625 14.40625 51.78125 6.484375 
Q 45.5625 -1.421875 35.59375 -1.421875 
Q 29.59375 -1.421875 25.265625 0.953125 
Q 20.953125 3.328125 18.109375 8.203125 
z
M 48.6875 27.296875 
Q 48.6875 37.203125 44.609375 42.84375 
Q 40.53125 48.484375 33.40625 48.484375 
Q 26.265625 48.484375 22.1875 42.84375 
Q 18.109375 37.203125 18.109375 27.296875 
Q 18.109375 17.390625 22.1875 11.75 
Q 26.265625 6.109375 33.40625 6.109375 
Q 40.53125 6.109375 44.609375 11.75 
Q 48.6875 17.390625 48.6875 27.296875 
z
" id="DejaVuSans-70"/>
     </defs>
     <g transform="translate(16.139531 286.001989)rotate(-90)scale(0.17 -0.17)">
      <use xlink:href="#DejaVuSans-46"/>
      <use x="57.410156" xlink:href="#DejaVuSans-72"/>
      <use x="98.523438" xlink:href="#DejaVuSans-61"/>
      <use x="159.802734" xlink:href="#DejaVuSans-63"/>
      <use x="214.783203" xlink:href="#DejaVuSans-74"/>
      <use x="253.992188" xlink:href="#DejaVuSans-69"/>
      <use x="281.775391" xlink:href="#DejaVuSans-6f"/>
      <use x="342.957031" xlink:href="#DejaVuSans-6e"/>
      <use x="406.335938" xlink:href="#DejaVuSans-20"/>
      <use x="438.123047" xlink:href="#DejaVuSans-6f"/>
      <use x="499.304688" xlink:href="#DejaVuSans-66"/>
      <use x="534.509766" xlink:href="#DejaVuSans-20"/>
      <use x="566.296875" xlink:href="#DejaVuSans-66"/>
      <use x="601.501953" xlink:href="#DejaVuSans-75"/>
      <use x="664.880859" xlink:href="#DejaVuSans-6e"/>
      <use x="728.259766" xlink:href="#DejaVuSans-63"/>
      <use x="783.240234" xlink:href="#DejaVuSans-74"/>
      <use x="822.449219" xlink:href="#DejaVuSans-69"/>
      <use x="850.232422" xlink:href="#DejaVuSans-6f"/>
      <use x="911.414062" xlink:href="#DejaVuSans-6e"/>
      <use x="974.792969" xlink:href="#DejaVuSans-2c"/>
      <use x="1006.580078" xlink:href="#DejaVuSans-74"/>
      <use x="1045.789062" xlink:href="#DejaVuSans-61"/>
      <use x="1107.068359" xlink:href="#DejaVuSans-72"/>
      <use x="1148.166016" xlink:href="#DejaVuSans-67"/>
      <use x="1211.642578" xlink:href="#DejaVuSans-65"/>
      <use x="1273.166016" xlink:href="#DejaVuSans-74"/>
      <use x="1312.375" xlink:href="#DejaVuSans-20"/>
      <use x="1344.162109" xlink:href="#DejaVuSans-70"/>
      <use x="1407.638672" xlink:href="#DejaVuSans-61"/>
      <use x="1468.917969" xlink:href="#DejaVuSans-69"/>
      <use x="1496.701172" xlink:href="#DejaVuSans-72"/>
      <use x="1537.814453" xlink:href="#DejaVuSans-73"/>
     </g>
    </g>
   </g>
   <g id="line2d_37">
    <defs>
     <path d="M 0 1.5 
C 0.397805 1.5 0.77937 1.341951 1.06066 1.06066 
C 1.341951 0.77937 1.5 0.397805 1.5 0 
C 1.5 -0.397805 1.341951 -0.77937 1.06066 -1.06066 
C 0.77937 -1.341951 0.397805 -1.5 0 -1.5 
C -0.397805 -1.5 -0.77937 -1.341951 -1.06066 -1.06066 
C -1.341951 -0.77937 -1.5 -0.397805 -1.5 0 
C -1.5 0.397805 -1.341951 0.77937 -1.06066 1.06066 
C -0.77937 1.341951 -0.397805 1.5 0 1.5 
z
" id="m0afeb820ea" style="stroke:#000080;"/>
    </defs>
    <g>
     <use style="fill:#000080;stroke:#000080;" x="217.538042" xlink:href="#m0afeb820ea" y="9.697057"/>
     <use style="fill:#000080;stroke:#000080;" x="217.538042" xlink:href="#m0afeb820ea" y="9.697057"/>
    </g>
   </g>
   <g id="line2d_38">
    <path d="M 123.567356 294.88 
L 123.567356 294.320818 
L 125.310285 294.320818 
L 125.310285 293.761636 
L 130.054468 293.761636 
L 130.054468 292.643271 
L 130.604552 292.643271 
L 130.604552 291.524907 
L 130.873129 291.524907 
L 130.873129 290.406542 
L 134.859013 290.406542 
L 134.859013 289.84736 
L 135.413533 289.84736 
L 135.481607 288.169813 
L 136.278134 288.169813 
L 136.278134 285.933084 
L 136.471629 285.933084 
L 136.471629 284.81472 
L 137.132207 284.81472 
L 137.132207 283.137173 
L 139.08458 283.137173 
L 139.08458 280.900444 
L 140.587071 280.900444 
L 140.587071 280.341262 
L 140.762851 280.341262 
L 140.787817 278.663715 
L 141.182408 278.663715 
L 141.182408 276.986168 
L 141.520398 276.986168 
L 141.520398 275.867804 
L 141.66324 275.867804 
L 141.66324 275.308622 
L 142.428336 275.308622 
L 142.428336 274.749439 
L 143.312265 274.749439 
L 143.312265 272.51271 
L 143.779723 272.51271 
L 143.779723 271.953528 
L 144.214377 271.953528 
L 144.214377 270.835164 
L 144.417555 270.835164 
L 144.417555 270.275981 
L 144.558363 270.275981 
L 144.618359 269.157617 
L 144.895601 269.157617 
L 144.895601 268.598435 
L 145.110339 268.598435 
L 145.110339 267.48007 
L 146.090659 267.48007 
L 146.090659 266.361706 
L 146.254795 266.361706 
L 146.254795 265.802523 
L 146.843566 265.802523 
L 146.843566 263.565795 
L 147.276552 263.565795 
L 147.276552 263.006612 
L 147.632016 263.006612 
L 147.632016 262.44743 
L 147.815319 262.44743 
L 147.815319 261.888248 
L 148.143669 261.888248 
L 148.143669 260.769883 
L 148.782132 260.769883 
L 148.782132 260.210701 
L 150.552348 260.210701 
L 150.552348 259.651519 
L 150.693124 259.651519 
L 150.693124 259.092337 
L 151.190579 259.092337 
L 151.190579 258.533154 
L 151.312725 258.533154 
L 151.312725 257.973972 
L 152.361937 257.973972 
L 152.361937 257.41479 
L 152.937447 257.41479 
L 152.937447 256.296425 
L 153.169647 256.296425 
L 153.169647 254.618879 
L 154.308539 254.618879 
L 154.342587 253.500514 
L 154.433054 253.500514 
L 154.433054 252.941332 
L 154.701632 252.941332 
L 154.701632 252.38215 
L 157.246258 252.38215 
L 157.246258 251.263785 
L 158.09629 251.263785 
L 158.09629 250.704603 
L 158.259561 250.704603 
L 158.259561 250.145421 
L 158.448103 250.145421 
L 158.465953 249.027056 
L 158.599233 249.027056 
L 158.599233 248.467874 
L 159.94371 248.467874 
L 159.94371 247.908692 
L 160.89888 247.908692 
L 160.89888 247.34951 
L 161.6488 247.34951 
L 161.6488 246.790327 
L 164.333346 246.790327 
L 164.333346 246.231145 
L 164.472271 246.231145 
L 164.472271 245.112781 
L 165.527269 245.112781 
L 165.58042 243.435234 
L 166.386735 243.435234 
L 166.386735 242.316869 
L 166.654702 242.316869 
L 166.654702 241.757687 
L 167.016466 241.757687 
L 167.016466 241.198505 
L 167.237423 241.198505 
L 167.237423 240.639323 
L 167.780295 240.639323 
L 167.780295 240.08014 
L 169.232178 240.08014 
L 169.236946 238.961776 
L 169.534653 238.961776 
L 169.548702 237.843411 
L 169.781173 237.843411 
L 169.781173 237.284229 
L 170.597363 237.284229 
L 170.597363 236.165865 
L 170.863927 236.165865 
L 170.863927 235.606682 
L 171.5274 235.606682 
L 171.581551 234.488318 
L 171.870234 234.488318 
L 171.90292 232.810771 
L 172.358088 232.810771 
L 172.397794 231.133225 
L 172.708286 231.133225 
L 172.708286 230.574042 
L 173.146678 230.574042 
L 173.146678 229.455678 
L 173.32797 229.455678 
L 173.32797 228.896496 
L 173.518521 228.896496 
L 173.518521 227.778131 
L 173.886128 227.778131 
L 173.907936 226.659767 
L 174.163922 226.659767 
L 174.213952 224.423038 
L 174.521626 224.423038 
L 174.521626 223.863855 
L 175.070081 223.863855 
L 175.151367 220.508762 
L 175.205345 220.508762 
L 175.259154 218.831215 
L 175.594991 218.831215 
L 175.608157 217.712851 
L 175.875868 217.712851 
L 175.875868 217.153669 
L 176.206336 217.153669 
L 176.247598 215.476122 
L 176.518092 215.476122 
L 176.595932 213.239393 
L 177.161248 213.239393 
L 177.161248 212.680211 
L 177.626836 212.680211 
L 177.717295 210.443482 
L 177.7667 210.443482 
L 177.815964 208.206753 
L 178.005895 208.206753 
L 178.005895 207.64757 
L 178.315046 207.64757 
L 178.343132 205.410841 
L 178.521804 205.410841 
L 178.568953 203.733295 
L 178.676633 203.733295 
L 178.761746 200.937384 
L 178.87095 200.937384 
L 178.903576 198.141472 
L 179.073855 198.141472 
L 179.12488 195.345561 
L 179.205139 195.345561 
L 179.210476 193.668014 
L 179.504125 193.668014 
L 179.504125 193.108832 
L 179.639983 193.108832 
L 179.730826 189.194556 
L 179.777358 189.194556 
L 179.849493 187.51701 
L 179.89827 187.51701 
L 179.99286 184.721099 
L 180.157783 184.721099 
L 180.183016 181.925187 
L 180.311131 181.925187 
L 180.311131 180.806823 
L 180.460641 180.806823 
L 180.495341 179.129276 
L 180.59656 179.129276 
L 180.66044 175.774183 
L 180.724083 175.774183 
L 180.819109 172.419089 
L 180.87006 172.419089 
L 180.906361 170.741543 
L 181.07476 170.741543 
L 181.151197 166.827267 
L 181.217801 166.827267 
L 181.260482 165.708902 
L 181.390244 165.708902 
L 181.390244 162.353809 
L 181.591201 162.353809 
L 181.591201 161.794627 
L 181.792132 161.794627 
L 181.792132 160.11708 
L 181.936181 160.11708 
L 181.979389 157.321169 
L 182.142144 157.321169 
L 182.207265 156.202804 
L 182.305601 156.202804 
L 182.407809 153.966075 
L 182.498398 153.966075 
L 182.522621 152.288529 
L 182.625738 152.288529 
L 182.671612 151.170164 
L 182.747798 151.170164 
L 182.823648 148.374253 
L 182.864684 148.374253 
L 182.967919 145.019159 
L 182.982923 145.019159 
L 183.002194 143.341613 
L 183.231775 143.341613 
L 183.326537 140.545702 
L 183.368486 140.545702 
L 183.466665 135.513061 
L 183.634563 135.513061 
L 183.648996 133.835515 
L 183.784485 133.835515 
L 183.806964 132.71715 
L 183.947296 132.71715 
L 184.048276 124.329417 
L 184.084483 124.329417 
L 184.194648 122.092688 
L 184.262398 122.092688 
L 184.262398 120.974323 
L 184.408938 120.974323 
L 184.450297 116.500865 
L 184.587447 116.500865 
L 184.587447 115.941683 
L 184.893047 115.941683 
L 184.971469 113.704954 
L 185.070419 113.704954 
L 185.157479 112.586589 
L 185.217783 112.586589 
L 185.242221 111.468225 
L 185.376947 111.468225 
L 185.429056 109.231496 
L 185.525414 109.231496 
L 185.575233 107.553949 
L 185.657946 107.553949 
L 185.69458 105.31722 
L 185.938034 105.31722 
L 186.022614 103.080491 
L 186.259727 103.080491 
L 186.314527 101.962127 
L 186.566816 101.962127 
L 186.566816 100.843762 
L 186.7777 100.843762 
L 186.808597 99.725398 
L 186.900954 99.725398 
L 186.902659 98.047851 
L 189.332095 98.047851 
L 189.332095 97.488669 
L 191.299933 97.488669 
L 191.299933 96.929487 
L 191.685154 96.929487 
L 191.685154 96.370304 
L 191.817647 96.370304 
L 191.817647 95.811122 
L 191.985965 95.811122 
L 191.985965 95.25194 
L 192.557516 95.25194 
L 192.644442 94.133576 
L 192.821821 94.133576 
L 192.92185 93.015211 
L 193.06664 93.015211 
L 193.06664 91.896847 
L 193.363156 91.896847 
L 193.363156 91.337664 
L 193.859538 91.337664 
L 193.925408 89.660118 
L 193.98086 89.660118 
L 193.98086 89.100935 
L 194.102455 89.100935 
L 194.106942 87.982571 
L 194.475339 87.982571 
L 194.559664 86.305024 
L 194.822025 86.305024 
L 194.910023 82.949931 
L 195.056047 82.949931 
L 195.056047 82.390748 
L 195.242888 82.390748 
L 195.299488 80.713202 
L 195.388205 80.713202 
L 195.495099 79.035655 
L 195.536433 79.035655 
L 195.64754 76.798926 
L 195.730402 76.798926 
L 195.730402 76.239744 
L 195.974604 76.239744 
L 196.057911 73.443833 
L 196.203476 73.443833 
L 196.30346 68.970375 
L 196.412675 68.970375 
L 196.518277 67.85201 
L 196.538736 67.85201 
L 196.56306 66.733646 
L 196.651309 66.733646 
L 196.694781 64.496917 
L 196.853247 64.496917 
L 196.886674 63.378552 
L 196.972332 63.378552 
L 196.995102 61.701006 
L 197.100966 61.701006 
L 197.206182 58.905094 
L 197.275348 58.905094 
L 197.367447 54.990819 
L 197.423951 54.990819 
L 197.496853 51.076543 
L 197.555686 51.076543 
L 197.636255 49.958178 
L 197.700986 49.958178 
L 197.757312 47.72145 
L 197.862204 47.72145 
L 197.934172 45.484721 
L 197.987056 45.484721 
L 198.04513 43.807174 
L 198.402624 43.807174 
L 198.402624 42.129627 
L 198.669603 42.129627 
L 198.669603 41.570445 
L 198.835662 41.570445 
L 198.835662 41.011263 
L 200.369204 41.011263 
L 200.369204 40.45208 
L 201.677711 40.45208 
L 201.677711 39.892898 
L 201.820798 39.892898 
L 201.820798 39.333716 
L 201.971933 39.333716 
L 201.971933 38.774534 
L 202.252127 38.774534 
L 202.252127 38.215351 
L 202.458971 38.215351 
L 202.469317 36.537805 
L 202.728683 36.537805 
L 202.733436 35.41944 
L 203.40918 35.41944 
L 203.495139 33.741894 
L 203.734461 33.741894 
L 203.734461 33.182711 
L 203.847475 33.182711 
L 203.847475 32.623529 
L 204.08323 32.623529 
L 204.166516 31.505165 
L 204.245671 31.505165 
L 204.274251 30.3868 
L 204.413366 30.3868 
L 204.49262 29.268436 
L 204.714907 29.268436 
L 204.787967 27.590889 
L 204.842709 27.590889 
L 204.906255 25.35416 
L 205.0641 25.35416 
L 205.094904 23.676613 
L 205.176976 23.676613 
L 205.224034 22.558249 
L 205.33003 22.558249 
L 205.366189 21.439884 
L 205.499664 21.439884 
L 205.55968 19.203155 
L 205.770944 19.203155 
L 205.812433 18.084791 
L 207.789972 18.084791 
L 207.789972 17.525609 
L 208.577647 17.525609 
L 208.577647 16.966426 
L 209.428131 16.966426 
L 209.428131 16.407244 
L 209.641152 16.407244 
L 209.743971 14.729697 
L 209.862781 14.729697 
L 209.862781 14.170515 
L 210.004366 14.170515 
L 210.004366 13.611333 
L 210.226659 13.611333 
L 210.226659 13.052151 
L 210.545105 13.052151 
L 210.545105 12.492968 
L 213.551119 12.492968 
L 213.551119 11.933786 
L 214.304089 11.933786 
L 214.304089 11.374604 
L 214.425922 11.374604 
L 214.425922 10.815422 
L 217.488614 10.815422 
L 217.538042 9.697057 
L 333.168 9.697057 
L 333.168 9.697057 
" style="fill:none;stroke:#000080;stroke-linecap:square;stroke-width:1.5;"/>
   </g>
   <g id="line2d_39">
    <defs>
     <path d="M 0 6 
C 1.591219 6 3.117479 5.367802 4.242641 4.242641 
C 5.367802 3.117479 6 1.591219 6 0 
C 6 -1.591219 5.367802 -3.117479 4.242641 -4.242641 
C 3.117479 -5.367802 1.591219 -6 0 -6 
C -1.591219 -6 -3.117479 -5.367802 -4.242641 -4.242641 
C -5.367802 -3.117479 -6 -1.591219 -6 0 
C -6 1.591219 -5.367802 3.117479 -4.242641 4.242641 
C -3.117479 5.367802 -1.591219 6 0 6 
z
" id="m091609ef57" style="stroke:#000080;stroke-width:1.5;"/>
    </defs>
    <g>
     <use style="fill-opacity:0;stroke:#000080;stroke-width:1.5;" x="178.005895" xlink:href="#m091609ef57" y="207.64757"/>
     <use style="fill-opacity:0;stroke:#000080;stroke-width:1.5;" x="196.203476" xlink:href="#m091609ef57" y="73.443833"/>
     <use style="fill-opacity:0;stroke:#000080;stroke-width:1.5;" x="217.538042" xlink:href="#m091609ef57" y="10.256239"/>
     <use style="fill-opacity:0;stroke:#000080;stroke-width:1.5;" x="217.538042" xlink:href="#m091609ef57" y="9.697057"/>
     <use style="fill-opacity:0;stroke:#000080;stroke-width:1.5;" x="333.168" xlink:href="#m091609ef57" y="9.697057"/>
    </g>
   </g>
   <g id="line2d_40">
    <path style="fill:none;stroke:#000080;stroke-linecap:square;stroke-width:1.5;"/>
    <g/>
   </g>
   <g id="line2d_41">
    <path clip-path="url(#p99680a4546)" d="M 186.941843 98.047851 
" style="fill:none;stroke:#000080;stroke-linecap:square;stroke-width:1.5;"/>
    <defs>
     <path d="M -12 12 
L 12 -12 
M -12 -12 
L 12 12 
" id="m35b5aad3a9" style="stroke:#000080;"/>
    </defs>
    <g clip-path="url(#p99680a4546)">
     <use style="fill:#000080;stroke:#000080;" x="186.941843" xlink:href="#m35b5aad3a9" y="98.047851"/>
    </g>
   </g>
   <g id="line2d_42">
    <defs>
     <path d="M 0 1.5 
C 0.397805 1.5 0.77937 1.341951 1.06066 1.06066 
C 1.341951 0.77937 1.5 0.397805 1.5 0 
C 1.5 -0.397805 1.341951 -0.77937 1.06066 -1.06066 
C 0.77937 -1.341951 0.397805 -1.5 0 -1.5 
C -0.397805 -1.5 -0.77937 -1.341951 -1.06066 -1.06066 
C -1.341951 -0.77937 -1.5 -0.397805 -1.5 0 
C -1.5 0.397805 -1.341951 0.77937 -1.06066 1.06066 
C -0.77937 1.341951 -0.397805 1.5 0 1.5 
z
" id="m9d17ab0295" style="stroke:#ff00ff;"/>
    </defs>
    <g>
     <use style="fill:#ff00ff;stroke:#ff00ff;" x="217.058504" xlink:href="#m9d17ab0295" y="9.697057"/>
     <use style="fill:#ff00ff;stroke:#ff00ff;" x="217.058504" xlink:href="#m9d17ab0295" y="9.697057"/>
    </g>
   </g>
   <g id="line2d_43">
    <path d="M 28.455965 294.88 
L 28.455965 278.104533 
L 138.834862 278.104533 
L 138.834862 276.986168 
L 138.946296 276.986168 
L 138.946296 275.308622 
L 139.303546 275.308622 
L 139.303546 274.749439 
L 141.303883 274.749439 
L 141.303883 273.631075 
L 141.639516 273.631075 
L 141.66324 272.51271 
L 141.781376 272.51271 
L 141.781376 271.394346 
L 143.988072 271.394346 
L 143.988072 270.275981 
L 144.757539 270.275981 
L 144.757539 269.716799 
L 145.322428 269.716799 
L 145.322428 268.598435 
L 145.475048 268.598435 
L 145.475048 268.039252 
L 145.794933 268.039252 
L 145.794933 267.48007 
L 146.34531 267.48007 
L 146.34531 266.920888 
L 146.489148 266.920888 
L 146.489148 266.361706 
L 147.463664 266.361706 
L 147.463664 265.802523 
L 148.766456 265.802523 
L 148.766456 265.243341 
L 148.922576 265.243341 
L 148.922576 264.684159 
L 149.169454 264.684159 
L 149.169454 263.565795 
L 149.652822 263.565795 
L 149.652822 262.44743 
L 150.424656 262.44743 
L 150.424656 261.329066 
L 150.818844 261.329066 
L 150.818844 260.210701 
L 151.285656 260.210701 
L 151.285656 259.092337 
L 151.501022 259.092337 
L 151.501022 257.41479 
L 152.323726 257.41479 
L 152.323726 256.855608 
L 153.290609 256.855608 
L 153.290609 256.296425 
L 153.470471 256.296425 
L 153.506219 254.059696 
L 153.68385 254.059696 
L 153.68385 253.500514 
L 154.723825 253.500514 
L 154.723825 252.38215 
L 155.387309 252.38215 
L 155.387309 251.263785 
L 156.341902 251.263785 
L 156.341902 249.586238 
L 157.360786 249.586238 
L 157.465103 248.467874 
L 157.857683 248.467874 
L 157.866922 247.34951 
L 159.31011 247.34951 
L 159.31011 246.231145 
L 160.766748 246.231145 
L 160.766748 245.112781 
L 161.781702 245.112781 
L 161.825776 243.435234 
L 162.109531 243.435234 
L 162.109531 242.876052 
L 162.402872 242.876052 
L 162.402872 242.316869 
L 162.995522 242.316869 
L 162.995522 241.757687 
L 163.720208 241.757687 
L 163.805414 240.08014 
L 164.509965 240.08014 
L 164.509965 239.520958 
L 164.980407 239.520958 
L 164.980407 238.961776 
L 165.210886 238.961776 
L 165.210886 238.402594 
L 166.951255 238.402594 
L 166.951255 237.843411 
L 168.124439 237.843411 
L 168.124439 236.725047 
L 169.374626 236.725047 
L 169.374626 236.165865 
L 169.642068 236.165865 
L 169.725666 234.488318 
L 170.331074 234.488318 
L 170.398034 233.369954 
L 170.928847 233.369954 
L 170.928847 232.810771 
L 171.040797 232.810771 
L 171.040797 231.692407 
L 171.972172 231.692407 
L 172.004664 230.574042 
L 172.282393 230.574042 
L 172.282393 229.455678 
L 172.751078 229.455678 
L 172.751078 228.896496 
L 173.051492 228.896496 
L 173.051492 228.337313 
L 173.207321 228.337313 
L 173.260209 227.218949 
L 173.581571 227.218949 
L 173.581571 226.100584 
L 173.820536 226.100584 
L 173.911568 224.423038 
L 174.249598 224.423038 
L 174.249598 223.863855 
L 174.528635 223.863855 
L 174.560138 222.186309 
L 174.744496 222.186309 
L 174.744496 221.067944 
L 174.872037 221.067944 
L 174.906346 219.94958 
L 175.0429 219.94958 
L 175.0429 219.390397 
L 175.238996 219.390397 
L 175.238996 218.272033 
L 175.542224 218.272033 
L 175.585109 216.594486 
L 175.657441 216.594486 
L 175.657441 216.035304 
L 175.875868 216.035304 
L 175.875868 215.476122 
L 176.037083 215.476122 
L 176.037083 214.357757 
L 176.266608 214.357757 
L 176.27927 212.680211 
L 176.499358 212.680211 
L 176.527452 211.002664 
L 176.799752 211.002664 
L 176.900763 208.206753 
L 177.113084 208.206753 
L 177.116098 207.088388 
L 177.307917 207.088388 
L 177.414882 203.733295 
L 177.530015 203.733295 
L 177.530015 203.174112 
L 177.711473 203.174112 
L 177.7667 199.259837 
L 177.893917 199.259837 
L 177.893917 198.700655 
L 178.011618 198.700655 
L 178.011618 198.141472 
L 178.196581 198.141472 
L 178.306612 193.108832 
L 178.345939 193.108832 
L 178.443864 190.872103 
L 178.49679 190.872103 
L 178.571723 189.753739 
L 178.624258 189.753739 
L 178.712377 184.721099 
L 178.846439 184.721099 
L 178.862783 183.602734 
L 179.011885 183.602734 
L 179.114151 181.366005 
L 179.303611 181.366005 
L 179.40416 179.688458 
L 179.441057 179.688458 
L 179.501502 175.215 
L 179.637381 175.215 
L 179.702327 171.859907 
L 179.872615 171.859907 
L 179.921326 170.741543 
L 180.018336 170.741543 
L 180.028516 169.623178 
L 180.162833 169.623178 
L 180.263513 164.590538 
L 180.413437 164.590538 
L 180.465603 158.439533 
L 180.872482 158.439533 
L 180.957054 156.202804 
L 181.084334 156.202804 
L 181.16311 153.406893 
L 181.343171 153.406893 
L 181.451247 147.815071 
L 181.45593 147.815071 
L 181.45593 147.255888 
L 181.577257 147.255888 
L 181.658439 145.019159 
L 181.856303 145.019159 
L 181.883732 140.545702 
L 182.047391 140.545702 
L 182.047391 139.427337 
L 182.318967 139.427337 
L 182.416668 134.953879 
L 182.516018 134.953879 
L 182.516018 133.835515 
L 182.710836 133.835515 
L 182.730414 132.157968 
L 182.843098 132.157968 
L 182.899164 129.362057 
L 183.104609 129.362057 
L 183.16831 125.447781 
L 183.267636 125.447781 
L 183.37477 120.974323 
L 183.412423 120.974323 
L 183.412423 120.415141 
L 183.52489 120.415141 
L 183.587055 118.737594 
L 183.638688 118.737594 
L 183.716874 115.941683 
L 183.792663 115.941683 
L 183.880324 114.823318 
L 183.916887 114.823318 
L 183.916887 113.704954 
L 184.046262 113.704954 
L 184.12663 109.231496 
L 184.228557 109.231496 
L 184.242499 107.553949 
L 184.351659 107.553949 
L 184.39513 104.758038 
L 184.491557 104.758038 
L 184.5933 102.521309 
L 184.624485 102.521309 
L 184.686685 99.725398 
L 184.781495 99.725398 
L 184.781495 99.166216 
L 184.919866 99.166216 
L 185.009594 96.370304 
L 185.049534 96.370304 
L 185.151814 94.692758 
L 185.165028 94.692758 
L 185.212138 93.015211 
L 185.330287 93.015211 
L 185.373219 91.896847 
L 185.460617 91.896847 
L 185.538344 89.660118 
L 185.591807 89.660118 
L 185.687259 84.627477 
L 185.743912 84.627477 
L 185.833081 83.509113 
L 185.865721 83.509113 
L 185.865721 82.390748 
L 186.001058 82.390748 
L 186.112138 80.15402 
L 186.195868 80.15402 
L 186.2898 77.917291 
L 186.449892 77.917291 
L 186.449892 76.239744 
L 186.565076 76.239744 
L 186.651826 74.003015 
L 186.720913 74.003015 
L 186.794872 72.325468 
L 189.848449 72.325468 
L 189.848449 71.766286 
L 190.54127 71.766286 
L 190.54127 71.207104 
L 190.900475 71.207104 
L 190.900475 70.647921 
L 191.167365 70.647921 
L 191.167365 70.088739 
L 191.616578 70.088739 
L 191.616578 69.529557 
L 191.903287 69.529557 
L 191.978349 68.411192 
L 192.318978 68.411192 
L 192.318978 67.85201 
L 192.601646 67.85201 
L 192.650547 66.733646 
L 192.951865 66.733646 
L 192.961459 65.615281 
L 193.435617 65.615281 
L 193.435617 65.056099 
L 193.859538 65.056099 
L 193.937872 63.378552 
L 194.099089 63.378552 
L 194.099089 62.81937 
L 194.294346 62.81937 
L 194.294346 62.260188 
L 194.425866 62.260188 
L 194.527954 60.582641 
L 194.651186 60.582641 
L 194.732492 59.464277 
L 194.819873 59.464277 
L 194.819873 58.345912 
L 195.045431 58.345912 
L 195.147082 57.227548 
L 195.286926 57.227548 
L 195.298442 56.109183 
L 195.535401 56.109183 
L 195.58899 53.872454 
L 195.746723 53.872454 
L 195.839252 52.194907 
L 195.918169 52.194907 
L 195.918169 51.635725 
L 196.111894 51.635725 
L 196.187584 49.958178 
L 196.329104 49.958178 
L 196.329104 49.398996 
L 196.512428 49.398996 
L 196.583465 48.280632 
L 196.83316 48.280632 
L 196.878085 46.043903 
L 196.953334 46.043903 
L 196.953334 45.484721 
L 197.116978 45.484721 
L 197.181814 44.366356 
L 197.260417 44.366356 
L 197.286538 42.688809 
L 197.469205 42.688809 
L 197.469205 42.129627 
L 197.62986 42.129627 
L 197.721903 41.011263 
L 197.741886 41.011263 
L 197.746425 39.892898 
L 197.895527 39.892898 
L 197.990635 37.656169 
L 198.049589 37.656169 
L 198.049589 37.096987 
L 198.194327 37.096987 
L 198.283404 33.741894 
L 198.446247 33.741894 
L 198.446247 33.182711 
L 198.560885 33.182711 
L 198.560885 32.064347 
L 198.782766 32.064347 
L 198.782766 31.505165 
L 200.534365 31.505165 
L 200.534365 30.945982 
L 203.139409 30.945982 
L 203.139409 30.3868 
L 203.636168 30.3868 
L 203.669638 29.268436 
L 203.816263 29.268436 
L 203.816263 28.709253 
L 204.172762 28.709253 
L 204.23323 27.590889 
L 204.296585 27.590889 
L 204.296585 27.031707 
L 204.410903 27.031707 
L 204.410903 26.472524 
L 204.580661 26.472524 
L 204.626337 25.35416 
L 204.795196 25.35416 
L 204.795196 24.794978 
L 204.913434 24.794978 
L 205.01779 23.676613 
L 205.046897 23.676613 
L 205.092537 21.439884 
L 205.198756 21.439884 
L 205.268035 18.643973 
L 205.370266 18.643973 
L 205.388313 16.966426 
L 205.514688 16.966426 
L 205.542389 15.848062 
L 209.355764 15.848062 
L 209.355764 15.28888 
L 209.636608 15.28888 
L 209.738099 14.170515 
L 210.442646 14.170515 
L 210.47427 12.492968 
L 210.602766 12.492968 
L 210.609639 10.815422 
L 214.561918 10.815422 
L 214.561918 10.256239 
L 217.058504 10.256239 
L 217.058504 9.697057 
L 333.168 9.697057 
L 333.168 9.697057 
" style="fill:none;stroke:#ff00ff;stroke-linecap:square;stroke-width:1.5;"/>
   </g>
   <g id="line2d_44">
    <defs>
     <path d="M -0 8.485281 
L 5.091169 0 
L 0 -8.485281 
L -5.091169 -0 
z
" id="m61e77cca9d" style="stroke:#ff00ff;stroke-linejoin:miter;stroke-width:1.5;"/>
    </defs>
    <g>
     <use style="fill-opacity:0;stroke:#ff00ff;stroke-linejoin:miter;stroke-width:1.5;" x="138.834862" xlink:href="#m61e77cca9d" y="278.104533"/>
     <use style="fill-opacity:0;stroke:#ff00ff;stroke-linejoin:miter;stroke-width:1.5;" x="181.874593" xlink:href="#m61e77cca9d" y="142.78243"/>
     <use style="fill-opacity:0;stroke:#ff00ff;stroke-linejoin:miter;stroke-width:1.5;" x="205.542389" xlink:href="#m61e77cca9d" y="16.407244"/>
     <use style="fill-opacity:0;stroke:#ff00ff;stroke-linejoin:miter;stroke-width:1.5;" x="217.058504" xlink:href="#m61e77cca9d" y="9.697057"/>
     <use style="fill-opacity:0;stroke:#ff00ff;stroke-linejoin:miter;stroke-width:1.5;" x="217.058504" xlink:href="#m61e77cca9d" y="9.697057"/>
     <use style="fill-opacity:0;stroke:#ff00ff;stroke-linejoin:miter;stroke-width:1.5;" x="333.168" xlink:href="#m61e77cca9d" y="9.697057"/>
    </g>
   </g>
   <g id="line2d_45">
    <path style="fill:none;stroke:#ff00ff;stroke-linecap:square;stroke-width:1.5;"/>
    <g/>
   </g>
   <g id="line2d_46">
    <path clip-path="url(#p99680a4546)" d="M 186.941843 72.325468 
" style="fill:none;stroke:#ff00ff;stroke-linecap:square;stroke-width:1.5;"/>
    <defs>
     <path d="M -12 12 
L 12 -12 
M -12 -12 
L 12 12 
" id="md430f1224b" style="stroke:#ff00ff;"/>
    </defs>
    <g clip-path="url(#p99680a4546)">
     <use style="fill:#ff00ff;stroke:#ff00ff;" x="186.941843" xlink:href="#md430f1224b" y="72.325468"/>
    </g>
   </g>
   <g id="line2d_47">
    <defs>
     <path d="M 0 1.5 
C 0.397805 1.5 0.77937 1.341951 1.06066 1.06066 
C 1.341951 0.77937 1.5 0.397805 1.5 0 
C 1.5 -0.397805 1.341951 -0.77937 1.06066 -1.06066 
C 0.77937 -1.341951 0.397805 -1.5 0 -1.5 
C -0.397805 -1.5 -0.77937 -1.341951 -1.06066 -1.06066 
C -1.341951 -0.77937 -1.5 -0.397805 -1.5 0 
C -1.5 0.397805 -1.341951 0.77937 -1.06066 1.06066 
C -0.77937 1.341951 -0.397805 1.5 0 1.5 
z
" id="m39cf60a0ad" style="stroke:#ffa500;"/>
    </defs>
    <g>
     <use style="fill:#ffa500;stroke:#ffa500;" x="254.179398" xlink:href="#m39cf60a0ad" y="43.247992"/>
     <use style="fill:#ffa500;stroke:#ffa500;" x="254.179398" xlink:href="#m39cf60a0ad" y="43.247992"/>
    </g>
   </g>
   <g id="line2d_48">
    <path d="M 69.672503 294.88 
L 69.672503 294.320818 
L 98.543252 294.320818 
L 98.543252 293.202453 
L 100.470395 293.202453 
L 100.470395 292.084089 
L 104.615641 292.084089 
L 104.615641 290.406542 
L 112.122219 290.406542 
L 112.122219 289.84736 
L 112.514373 289.84736 
L 112.514373 289.288178 
L 119.003236 289.288178 
L 119.003236 287.051449 
L 120.200938 287.051449 
L 120.200938 286.492266 
L 121.086731 286.492266 
L 121.086731 285.933084 
L 122.660646 285.933084 
L 122.732117 283.696355 
L 124.812029 283.696355 
L 124.812029 283.137173 
L 126.723846 283.137173 
L 126.723846 282.577991 
L 126.836558 282.577991 
L 126.836558 282.018808 
L 127.7659 282.018808 
L 127.7659 281.459626 
L 128.647561 281.459626 
L 128.647561 280.900444 
L 129.772681 280.900444 
L 129.772681 280.341262 
L 132.032353 280.341262 
L 132.032353 279.222897 
L 132.402015 279.222897 
L 132.402015 278.104533 
L 132.922316 278.104533 
L 132.922316 276.986168 
L 133.805948 276.986168 
L 133.805948 276.426986 
L 135.207679 276.426986 
L 135.207679 275.867804 
L 135.481607 275.867804 
L 135.481607 274.190257 
L 135.717765 274.190257 
L 135.717765 273.071893 
L 136.72628 273.071893 
L 136.72628 271.953528 
L 136.883542 271.953528 
L 136.883542 270.275981 
L 138.004608 270.275981 
L 138.063173 269.157617 
L 138.121538 269.157617 
L 138.121538 268.039252 
L 138.638097 268.039252 
L 138.638097 266.920888 
L 139.680151 266.920888 
L 139.680151 265.243341 
L 139.812678 265.243341 
L 139.891706 260.210701 
L 140.383954 260.210701 
L 140.383954 259.651519 
L 140.637478 259.651519 
L 140.637478 259.092337 
L 141.303883 259.092337 
L 141.328075 257.41479 
L 141.639516 257.41479 
L 141.639516 256.855608 
L 142.200064 256.855608 
L 142.200064 255.737243 
L 142.69832 255.737243 
L 142.69832 255.178061 
L 143.590024 255.178061 
L 143.590024 254.618879 
L 144.152952 254.618879 
L 144.152952 253.500514 
L 144.417555 253.500514 
L 144.417555 252.941332 
L 145.475048 252.941332 
L 145.475048 252.38215 
L 146.272936 252.38215 
L 146.272936 251.822967 
L 146.720349 251.822967 
L 146.738006 250.704603 
L 147.25944 250.704603 
L 147.25944 250.145421 
L 147.715578 250.145421 
L 147.715578 249.586238 
L 148.257126 249.586238 
L 148.257126 249.027056 
L 148.984628 249.027056 
L 148.984628 248.467874 
L 149.801129 248.467874 
L 149.801129 247.908692 
L 149.948166 247.908692 
L 149.948166 246.231145 
L 150.777039 246.231145 
L 150.777039 245.112781 
L 150.888293 245.112781 
L 150.888293 244.553598 
L 151.136011 244.553598 
L 151.136011 243.994416 
L 151.700505 243.994416 
L 151.700505 243.435234 
L 152.31097 243.435234 
L 152.31097 242.876052 
L 152.551729 242.876052 
L 152.564308 241.757687 
L 153.108845 241.757687 
L 153.108845 240.08014 
L 153.350772 240.08014 
L 153.350772 239.520958 
L 154.365249 239.520958 
L 154.365249 238.961776 
L 154.87838 238.961776 
L 154.889367 237.843411 
L 155.588844 237.843411 
L 155.599386 236.725047 
L 156.632139 236.725047 
L 156.632139 236.165865 
L 156.849095 236.165865 
L 156.849095 234.488318 
L 156.976021 234.488318 
L 156.976021 233.929136 
L 157.341751 233.929136 
L 157.341751 233.369954 
L 157.502881 233.369954 
L 157.559391 230.574042 
L 157.718503 230.574042 
L 157.718503 229.455678 
L 158.023225 229.455678 
L 158.023225 228.337313 
L 158.492691 228.337313 
L 158.492691 227.778131 
L 158.625765 227.778131 
L 158.625765 227.218949 
L 158.810355 227.218949 
L 158.810355 226.659767 
L 159.173691 226.659767 
L 159.25056 225.541402 
L 159.902736 225.541402 
L 159.902736 224.98222 
L 160.672864 224.98222 
L 160.672864 224.423038 
L 160.99924 224.423038 
L 160.99924 222.745491 
L 162.06618 222.745491 
L 162.06618 221.067944 
L 162.593349 221.067944 
L 162.593349 220.508762 
L 162.823324 220.508762 
L 162.823324 219.94958 
L 163.186357 219.94958 
L 163.186357 219.390397 
L 163.401891 219.390397 
L 163.401891 218.272033 
L 164.20607 218.272033 
L 164.288907 216.594486 
L 165.603991 216.594486 
L 165.686233 215.476122 
L 166.234147 215.476122 
L 166.234147 214.357757 
L 166.721046 214.357757 
L 166.721046 213.798575 
L 167.386705 213.798575 
L 167.481992 212.680211 
L 167.623939 212.680211 
L 167.72313 211.002664 
L 168.431882 211.002664 
L 168.431882 209.884299 
L 168.625601 209.884299 
L 168.625601 209.325117 
L 169.093347 209.325117 
L 169.093347 207.088388 
L 169.464237 207.088388 
L 169.506521 205.970024 
L 169.669979 205.970024 
L 169.669979 204.851659 
L 169.808859 204.851659 
L 169.877881 203.174112 
L 170.348956 203.174112 
L 170.348956 202.61493 
L 170.768265 202.61493 
L 170.863927 200.937384 
L 170.954746 200.937384 
L 170.954746 200.378201 
L 171.092222 200.378201 
L 171.105054 198.700655 
L 171.460518 198.700655 
L 171.460518 198.141472 
L 171.585709 198.141472 
L 171.664528 195.904743 
L 171.976237 195.904743 
L 171.976237 194.227197 
L 172.178268 194.227197 
L 172.238417 191.990468 
L 172.598879 191.990468 
L 172.6849 190.312921 
L 172.789887 190.312921 
L 172.789887 189.753739 
L 172.905792 189.753739 
L 172.905792 189.194556 
L 173.233786 189.194556 
L 173.233786 188.076192 
L 173.429113 188.076192 
L 173.436582 186.957828 
L 173.577869 186.957828 
L 173.577869 186.398645 
L 173.699631 186.398645 
L 173.699631 185.280281 
L 174.095792 185.280281 
L 174.110158 184.161916 
L 174.306479 184.161916 
L 174.412625 182.48437 
L 174.619488 182.48437 
L 174.727188 180.806823 
L 174.796316 180.806823 
L 174.906346 176.892547 
L 174.967929 176.892547 
L 174.967929 175.215 
L 175.097219 175.215 
L 175.097219 174.655818 
L 175.36627 174.655818 
L 175.369606 173.537454 
L 175.535617 173.537454 
L 175.535617 172.978271 
L 175.892057 172.978271 
L 175.892057 171.300725 
L 176.145852 171.300725 
L 176.238084 169.623178 
L 176.430491 169.623178 
L 176.430491 169.063996 
L 176.546155 169.063996 
L 176.602144 167.945631 
L 176.701232 167.945631 
L 176.799752 165.708902 
L 176.857983 165.708902 
L 176.900763 163.472173 
L 177.137183 163.472173 
L 177.137183 162.912991 
L 177.62391 162.912991 
L 177.699824 161.794627 
L 177.740562 161.794627 
L 177.740562 161.235444 
L 177.870856 161.235444 
L 177.870856 160.676262 
L 178.037347 160.676262 
L 178.037347 160.11708 
L 178.300986 160.11708 
L 178.371173 158.439533 
L 178.474525 158.439533 
L 178.499572 157.321169 
L 178.635298 157.321169 
L 178.690389 155.643622 
L 178.797313 155.643622 
L 178.840988 153.966075 
L 178.933429 153.966075 
L 178.933429 152.847711 
L 179.282367 152.847711 
L 179.282367 152.288529 
L 179.443689 152.288529 
L 179.535572 150.610982 
L 179.566962 150.610982 
L 179.566962 150.0518 
L 179.70492 150.0518 
L 179.723058 148.374253 
L 180.122395 148.374253 
L 180.165357 146.137524 
L 180.25096 146.137524 
L 180.343635 144.459977 
L 180.373585 144.459977 
L 180.373585 143.900795 
L 180.670246 143.900795 
L 180.777752 140.545702 
L 180.879748 140.545702 
L 180.94741 138.868155 
L 181.127347 138.868155 
L 181.127347 138.308973 
L 181.291242 138.308973 
L 181.314866 137.190608 
L 181.42781 137.190608 
L 181.47699 136.072244 
L 181.801314 136.072244 
L 181.899711 130.480421 
L 181.915676 130.480421 
L 181.915676 128.802874 
L 182.126388 128.802874 
L 182.126388 128.243692 
L 182.544613 128.243692 
L 182.601659 127.125328 
L 182.771673 127.125328 
L 182.771673 126.566145 
L 182.946463 126.566145 
L 182.946463 126.006963 
L 183.202187 126.006963 
L 183.276063 124.329417 
L 183.313932 124.329417 
L 183.422867 119.855959 
L 183.456247 119.855959 
L 183.456247 119.296776 
L 183.568429 119.296776 
L 183.601528 116.500865 
L 183.84572 116.500865 
L 183.84572 115.382501 
L 184.058341 115.382501 
L 184.058341 114.264136 
L 184.182664 114.264136 
L 184.24449 111.468225 
L 184.940908 111.468225 
L 185.022918 110.349861 
L 185.078007 110.349861 
L 185.168802 108.113132 
L 185.257243 108.113132 
L 185.363895 105.876403 
L 185.429056 105.876403 
L 185.488417 103.080491 
L 185.621234 103.080491 
L 185.621234 102.521309 
L 185.802197 102.521309 
L 185.891065 100.28458 
L 186.054896 100.28458 
L 186.151381 96.370304 
L 186.181645 96.370304 
L 186.291567 95.25194 
L 186.462145 95.25194 
L 186.462145 94.692758 
L 186.61371 94.692758 
L 186.701942 93.015211 
L 186.734697 93.015211 
L 186.801736 91.337664 
L 186.904365 91.337664 
L 186.907775 89.660118 
L 192.249141 89.660118 
L 192.249141 89.100935 
L 192.755215 89.100935 
L 192.755215 88.541753 
L 194.974128 88.541753 
L 194.974128 87.982571 
L 195.314132 87.982571 
L 195.314132 87.423389 
L 195.437065 87.423389 
L 195.437065 86.864206 
L 195.66394 86.864206 
L 195.66394 86.305024 
L 195.871672 86.305024 
L 195.912111 85.18666 
L 196.252056 85.18666 
L 196.252056 84.627477 
L 196.517303 84.627477 
L 196.517303 84.068295 
L 196.822629 84.068295 
L 196.822629 83.509113 
L 197.140498 83.509113 
L 197.140498 82.390748 
L 197.252012 82.390748 
L 197.266951 81.272384 
L 197.42765 81.272384 
L 197.535485 79.035655 
L 197.985266 79.035655 
L 197.992425 77.917291 
L 198.144739 77.917291 
L 198.144739 76.239744 
L 198.256993 76.239744 
L 198.256993 75.680562 
L 198.385143 75.680562 
L 198.410484 74.003015 
L 198.515816 74.003015 
L 198.515816 72.88465 
L 198.636887 72.88465 
L 198.736562 71.207104 
L 198.839069 71.207104 
L 198.839069 70.647921 
L 203.414402 70.647921 
L 203.414402 70.088739 
L 203.547028 70.088739 
L 203.623278 68.970375 
L 204.821074 68.970375 
L 204.886497 67.85201 
L 205.057577 67.85201 
L 205.057577 67.292828 
L 205.184043 67.292828 
L 205.184043 66.733646 
L 205.428413 66.733646 
L 205.534891 65.615281 
L 205.561984 65.615281 
L 205.667068 63.937735 
L 205.716801 63.937735 
L 205.756712 62.260188 
L 210.047014 62.260188 
L 210.047014 61.701006 
L 210.253861 61.701006 
L 210.253861 61.141823 
L 210.466045 61.141823 
L 210.466045 60.582641 
L 214.149262 60.582641 
L 214.260044 59.464277 
L 214.298892 59.464277 
L 214.298892 58.905094 
L 214.468858 58.905094 
L 214.468858 58.345912 
L 217.422007 58.345912 
L 217.484297 57.227548 
L 217.734062 57.227548 
L 217.734062 55.550001 
L 220.117397 55.550001 
L 220.216149 54.431636 
L 220.327029 54.431636 
L 220.355307 52.194907 
L 222.469267 52.194907 
L 222.469267 51.635725 
L 222.654791 51.635725 
L 222.654791 51.076543 
L 224.49796 51.076543 
L 224.539256 49.958178 
L 226.348082 49.958178 
L 226.348082 49.398996 
L 226.496288 49.398996 
L 226.496288 48.839814 
L 228.019521 48.839814 
L 228.019521 48.280632 
L 228.136709 48.280632 
L 228.136709 47.72145 
L 229.526742 47.72145 
L 229.526742 47.162267 
L 235.55118 47.162267 
L 235.55118 46.043903 
L 238.358146 46.043903 
L 238.358146 45.484721 
L 240.826335 45.484721 
L 240.826335 44.925538 
L 245.959695 44.925538 
L 245.959695 44.366356 
L 247.0348 44.366356 
L 247.0348 43.807174 
L 254.179398 43.807174 
L 254.179398 43.247992 
L 333.168 43.247992 
L 333.168 43.247992 
" style="fill:none;stroke:#ffa500;stroke-linecap:square;stroke-width:1.5;"/>
   </g>
   <g id="line2d_49">
    <defs>
     <path d="M 0 -6 
L -1.347084 -1.854102 
L -5.706339 -1.854102 
L -2.179628 0.708204 
L -3.526712 4.854102 
L -0 2.291796 
L 3.526712 4.854102 
L 2.179628 0.708204 
L 5.706339 -1.854102 
L 1.347084 -1.854102 
z
" id="m21deb1631e" style="stroke:#ffa500;stroke-linejoin:bevel;stroke-width:1.5;"/>
    </defs>
    <g>
     <use style="fill-opacity:0;stroke:#ffa500;stroke-linejoin:bevel;stroke-width:1.5;" x="138.004608" xlink:href="#m21deb1631e" y="270.275981"/>
     <use style="fill-opacity:0;stroke:#ffa500;stroke-linejoin:bevel;stroke-width:1.5;" x="180.373585" xlink:href="#m21deb1631e" y="143.900795"/>
     <use style="fill-opacity:0;stroke:#ffa500;stroke-linejoin:bevel;stroke-width:1.5;" x="254.179398" xlink:href="#m21deb1631e" y="43.807174"/>
     <use style="fill-opacity:0;stroke:#ffa500;stroke-linejoin:bevel;stroke-width:1.5;" x="254.179398" xlink:href="#m21deb1631e" y="43.247992"/>
     <use style="fill-opacity:0;stroke:#ffa500;stroke-linejoin:bevel;stroke-width:1.5;" x="333.168" xlink:href="#m21deb1631e" y="43.247992"/>
    </g>
   </g>
   <g id="line2d_50">
    <path style="fill:none;stroke:#ffa500;stroke-linecap:square;stroke-width:1.5;"/>
    <g/>
   </g>
   <g id="line2d_51">
    <path clip-path="url(#p99680a4546)" d="M 186.941843 89.660118 
" style="fill:none;stroke:#ffa500;stroke-linecap:square;stroke-width:1.5;"/>
    <defs>
     <path d="M -12 12 
L 12 -12 
M -12 -12 
L 12 12 
" id="m6a6371eb12" style="stroke:#ffa500;"/>
    </defs>
    <g clip-path="url(#p99680a4546)">
     <use style="fill:#ffa500;stroke:#ffa500;" x="186.941843" xlink:href="#m6a6371eb12" y="89.660118"/>
    </g>
   </g>
   <g id="line2d_52">
    <defs>
     <path d="M 0 1.5 
C 0.397805 1.5 0.77937 1.341951 1.06066 1.06066 
C 1.341951 0.77937 1.5 0.397805 1.5 0 
C 1.5 -0.397805 1.341951 -0.77937 1.06066 -1.06066 
C 0.77937 -1.341951 0.397805 -1.5 0 -1.5 
C -0.397805 -1.5 -0.77937 -1.341951 -1.06066 -1.06066 
C -1.341951 -0.77937 -1.5 -0.397805 -1.5 0 
C -1.5 0.397805 -1.341951 0.77937 -1.06066 1.06066 
C -0.77937 1.341951 -0.397805 1.5 0 1.5 
z
" id="mf206cd803f" style="stroke:#6495ed;"/>
    </defs>
    <g>
     <use style="fill:#6495ed;stroke:#6495ed;" x="219.225294" xlink:href="#mf206cd803f" y="9.697057"/>
     <use style="fill:#6495ed;stroke:#6495ed;" x="219.225294" xlink:href="#mf206cd803f" y="9.697057"/>
    </g>
   </g>
   <g id="line2d_53">
    <path d="M 28.455965 294.88 
L 28.455965 288.728995 
L 40.370217 288.728995 
L 40.370217 287.610631 
L 47.339607 287.610631 
L 47.339607 285.373902 
L 56.12 285.373902 
L 56.12 283.696355 
L 64.198719 283.696355 
L 64.198719 283.137173 
L 69.672503 283.137173 
L 69.672503 282.577991 
L 72.543934 282.577991 
L 72.543934 281.459626 
L 76.11297 281.459626 
L 76.11297 280.900444 
L 80.787138 280.900444 
L 80.787138 280.341262 
L 92.70139 280.341262 
L 92.70139 278.663715 
L 99.11626 278.663715 
L 99.11626 278.104533 
L 99.67078 278.104533 
L 99.67078 276.426986 
L 108.935392 276.426986 
L 108.935392 275.308622 
L 113.396034 275.308622 
L 113.396034 274.190257 
L 114.696138 274.190257 
L 114.696138 273.071893 
L 116.73331 273.071893 
L 116.73331 270.835164 
L 119.867168 270.835164 
L 119.867168 269.157617 
L 120.118102 269.157617 
L 120.118102 268.598435 
L 120.689748 268.598435 
L 120.689748 268.039252 
L 121.627542 268.039252 
L 121.627542 267.48007 
L 123.567356 267.48007 
L 123.567356 266.920888 
L 123.903739 266.920888 
L 123.970233 265.243341 
L 127.115148 265.243341 
L 127.115148 264.684159 
L 129.292521 264.684159 
L 129.292521 263.565795 
L 130.193648 263.565795 
L 130.193648 262.44743 
L 130.468672 262.44743 
L 130.468672 261.888248 
L 131.005861 261.888248 
L 131.005861 260.769883 
L 131.612072 260.769883 
L 131.612072 260.210701 
L 133.079291 260.210701 
L 133.079291 258.533154 
L 133.350594 258.533154 
L 133.350594 257.973972 
L 134.176407 257.973972 
L 134.176407 256.855608 
L 135.616951 256.855608 
L 135.616951 255.737243 
L 135.851269 255.737243 
L 135.851269 254.618879 
L 136.977214 254.618879 
L 136.977214 254.059696 
L 137.255203 254.059696 
L 137.255203 253.500514 
L 137.738571 253.500514 
L 137.738571 252.941332 
L 138.581462 252.941332 
L 138.581462 251.822967 
L 138.974042 251.822967 
L 138.974042 250.145421 
L 139.139583 250.145421 
L 139.139583 249.586238 
L 139.546595 249.586238 
L 139.546595 248.467874 
L 140.383954 248.467874 
L 140.383954 247.908692 
L 140.762851 247.908692 
L 140.762851 247.34951 
L 141.303883 247.34951 
L 141.303883 246.790327 
L 141.804906 246.790327 
L 141.804906 245.671963 
L 142.428336 245.671963 
L 142.428336 245.112781 
L 143.419627 245.112781 
L 143.419627 244.553598 
L 143.547583 244.553598 
L 143.547583 243.435234 
L 143.779723 243.435234 
L 143.779723 242.876052 
L 144.07071 242.876052 
L 144.07071 242.316869 
L 144.954432 242.316869 
L 144.954432 241.757687 
L 145.550852 241.757687 
L 145.550852 240.639323 
L 146.035596 240.639323 
L 146.090659 238.961776 
L 146.649541 238.961776 
L 146.649541 238.402594 
L 146.878609 238.402594 
L 146.878609 237.843411 
L 147.831886 237.843411 
L 147.831886 237.284229 
L 148.401907 237.284229 
L 148.401907 236.725047 
L 149.169454 236.725047 
L 149.169454 235.606682 
L 150.05035 235.606682 
L 150.05035 234.488318 
L 151.217797 234.488318 
L 151.231391 232.251589 
L 151.766488 232.251589 
L 151.766488 231.133225 
L 152.272646 231.133225 
L 152.272646 230.574042 
L 153.530009 230.574042 
L 153.530009 230.01486 
L 153.964296 230.01486 
L 153.975883 227.778131 
L 154.24024 227.778131 
L 154.24024 226.659767 
L 154.489355 226.659767 
L 154.489355 226.100584 
L 154.801276 226.100584 
L 154.801276 224.98222 
L 156.412409 224.98222 
L 156.442538 223.304673 
L 156.632139 223.304673 
L 156.632139 222.745491 
L 156.995466 222.745491 
L 156.995466 221.627126 
L 157.690531 221.627126 
L 157.690531 221.067944 
L 158.385485 221.067944 
L 158.385485 219.94958 
L 158.6346 219.94958 
L 158.6346 217.712851 
L 159.207897 217.712851 
L 159.267595 216.035304 
L 159.704689 216.035304 
L 159.704689 214.91694 
L 160.074175 214.91694 
L 160.074175 214.357757 
L 160.28409 214.357757 
L 160.28409 213.798575 
L 160.483543 213.798575 
L 160.483543 213.239393 
L 160.844596 213.239393 
L 160.914358 207.64757 
L 161.544716 207.64757 
L 161.596837 204.292477 
L 161.825776 204.292477 
L 161.825776 203.174112 
L 162.21026 203.174112 
L 162.21026 202.61493 
L 162.338907 202.61493 
L 162.338907 202.055748 
L 162.621389 202.055748 
L 162.69129 200.378201 
L 162.823324 200.378201 
L 162.823324 199.819019 
L 163.667563 199.819019 
L 163.667563 198.700655 
L 164.21884 198.700655 
L 164.21884 193.668014 
L 164.339686 193.668014 
L 164.358689 183.602734 
L 164.75917 183.602734 
L 164.75917 172.419089 
L 165.126332 172.419089 
L 165.138437 167.386449 
L 165.44426 167.386449 
L 165.462082 160.676262 
L 165.609878 160.676262 
L 165.609878 158.439533 
L 166.097367 158.439533 
L 166.097367 156.761987 
L 166.262507 156.761987 
L 166.262507 155.08444 
L 166.375479 155.08444 
L 166.392361 151.170164 
L 166.765134 151.170164 
L 166.869391 144.459977 
L 167.129994 144.459977 
L 167.129994 143.341613 
L 167.392013 143.341613 
L 167.392013 142.223248 
L 168.180287 142.223248 
L 168.180287 136.631426 
L 168.376846 136.631426 
L 168.451851 127.68451 
L 168.665069 127.68451 
L 168.665069 119.855959 
L 168.822044 119.855959 
L 168.822044 119.296776 
L 168.938842 119.296776 
L 168.938842 118.737594 
L 169.17965 118.737594 
L 169.17965 118.178412 
L 169.426563 118.178412 
L 169.426563 117.060047 
L 170.069679 117.060047 
L 170.069679 116.500865 
L 170.200874 116.500865 
L 170.200874 113.704954 
L 170.500202 113.704954 
L 170.500202 113.145772 
L 170.928847 113.145772 
L 170.963371 112.027407 
L 171.493992 112.027407 
L 171.493992 110.909043 
L 173.90067 110.909043 
L 173.90067 104.758038 
L 174.292276 104.758038 
L 174.292276 103.639674 
L 175.296051 103.639674 
L 175.296051 103.080491 
L 176.01139 103.080491 
L 176.01139 102.521309 
L 176.260274 102.521309 
L 176.260274 99.725398 
L 176.402238 99.725398 
L 176.402238 92.456029 
L 176.518092 92.456029 
L 176.518092 91.337664 
L 178.917152 91.337664 
L 178.917152 90.778482 
L 188.851599 90.778482 
L 188.851599 90.2193 
L 189.688205 90.2193 
L 189.688205 89.660118 
L 189.821126 89.660118 
L 189.93016 87.423389 
L 190.181446 87.423389 
L 190.282622 85.745842 
L 190.411042 85.745842 
L 190.411042 85.18666 
L 191.004236 85.18666 
L 191.033768 79.035655 
L 191.11939 79.035655 
L 191.201932 74.003015 
L 191.269533 74.003015 
L 191.332916 67.85201 
L 191.415753 67.85201 
L 191.481213 64.496917 
L 191.594524 64.496917 
L 191.59712 62.260188 
L 191.868827 62.260188 
L 191.979619 56.668365 
L 192.040441 56.668365 
L 192.08087 51.635725 
L 192.239141 51.635725 
L 192.239141 50.517361 
L 192.530492 50.517361 
L 192.530492 49.958178 
L 192.812149 49.958178 
L 192.812149 49.398996 
L 193.543741 49.398996 
L 193.543741 45.484721 
L 194.332026 45.484721 
L 194.38177 42.129627 
L 194.607665 42.129627 
L 194.607665 41.570445 
L 200.073722 41.570445 
L 200.073722 41.011263 
L 201.007026 41.011263 
L 201.117781 35.978622 
L 201.155782 35.978622 
L 201.155782 34.860258 
L 201.339382 34.860258 
L 201.345272 32.623529 
L 201.523227 32.623529 
L 201.616954 27.590889 
L 201.70801 27.590889 
L 201.70801 27.031707 
L 202.472075 27.031707 
L 202.547058 25.35416 
L 202.975491 25.35416 
L 202.975491 22.558249 
L 207.037034 22.558249 
L 207.086126 21.439884 
L 207.288918 21.439884 
L 207.392271 19.203155 
L 207.648735 19.203155 
L 207.698147 15.848062 
L 208.318588 15.848062 
L 208.318588 15.28888 
L 208.656726 15.28888 
L 208.678361 13.611333 
L 211.879435 13.611333 
L 211.9137 11.374604 
L 212.056796 11.374604 
L 212.056796 10.815422 
L 212.19362 10.815422 
L 212.19362 10.256239 
L 219.225294 10.256239 
L 219.225294 9.697057 
L 333.168 9.697057 
L 333.168 9.697057 
" style="fill:none;stroke:#6495ed;stroke-linecap:square;stroke-width:1.5;"/>
   </g>
   <g id="line2d_54">
    <defs>
     <path d="M -0 6 
L 6 -6 
L -6 -6 
z
" id="m6d3085495e" style="stroke:#6495ed;stroke-linejoin:miter;stroke-width:1.5;"/>
    </defs>
    <g>
     <use style="fill-opacity:0;stroke:#6495ed;stroke-linejoin:miter;stroke-width:1.5;" x="92.70139" xlink:href="#m6d3085495e" y="278.663715"/>
     <use style="fill-opacity:0;stroke:#6495ed;stroke-linejoin:miter;stroke-width:1.5;" x="164.339686" xlink:href="#m6d3085495e" y="192.54965"/>
     <use style="fill-opacity:0;stroke:#6495ed;stroke-linejoin:miter;stroke-width:1.5;" x="193.543741" xlink:href="#m6d3085495e" y="49.398996"/>
     <use style="fill-opacity:0;stroke:#6495ed;stroke-linejoin:miter;stroke-width:1.5;" x="219.225294" xlink:href="#m6d3085495e" y="10.256239"/>
     <use style="fill-opacity:0;stroke:#6495ed;stroke-linejoin:miter;stroke-width:1.5;" x="219.225294" xlink:href="#m6d3085495e" y="9.697057"/>
     <use style="fill-opacity:0;stroke:#6495ed;stroke-linejoin:miter;stroke-width:1.5;" x="333.168" xlink:href="#m6d3085495e" y="9.697057"/>
    </g>
   </g>
   <g id="line2d_55">
    <path style="fill:none;stroke:#6495ed;stroke-linecap:square;stroke-width:1.5;"/>
    <g/>
   </g>
   <g id="line2d_56">
    <path clip-path="url(#p99680a4546)" d="M 186.941843 90.778482 
" style="fill:none;stroke:#6495ed;stroke-linecap:square;stroke-width:1.5;"/>
    <defs>
     <path d="M -12 12 
L 12 -12 
M -12 -12 
L 12 12 
" id="m5c977dae61" style="stroke:#6495ed;"/>
    </defs>
    <g clip-path="url(#p99680a4546)">
     <use style="fill:#6495ed;stroke:#6495ed;" x="186.941843" xlink:href="#m5c977dae61" y="90.778482"/>
    </g>
   </g>
   <g id="line2d_57">
    <path d="M 333.168 43.247992 
L 363.64328 289.176341 
" style="fill:none;stroke:#ffa500;stroke-linecap:square;stroke-width:1.5;"/>
    <g>
     <use style="fill-opacity:0;stroke:#ffa500;stroke-linejoin:bevel;stroke-width:1.5;" x="333.168" xlink:href="#m21deb1631e" y="43.247992"/>
     <use style="fill-opacity:0;stroke:#ffa500;stroke-linejoin:bevel;stroke-width:1.5;" x="363.64328" xlink:href="#m21deb1631e" y="289.176341"/>
    </g>
   </g>
   <g id="line2d_58">
    <path d="M 333.168 9.697057 
L 363.64328 197.917799 
" style="fill:none;stroke:#6495ed;stroke-linecap:square;stroke-width:1.5;"/>
    <g>
     <use style="fill-opacity:0;stroke:#6495ed;stroke-linejoin:miter;stroke-width:1.5;" x="333.168" xlink:href="#m6d3085495e" y="9.697057"/>
     <use style="fill-opacity:0;stroke:#6495ed;stroke-linejoin:miter;stroke-width:1.5;" x="363.64328" xlink:href="#m6d3085495e" y="197.917799"/>
    </g>
   </g>
   <g id="line2d_59">
    <path d="M 333.168 9.697057 
L 363.64328 106.659258 
" style="fill:none;stroke:#000080;stroke-linecap:square;stroke-width:1.5;"/>
    <g>
     <use style="fill-opacity:0;stroke:#000080;stroke-width:1.5;" x="333.168" xlink:href="#m091609ef57" y="9.697057"/>
     <use style="fill-opacity:0;stroke:#000080;stroke-width:1.5;" x="363.64328" xlink:href="#m091609ef57" y="106.659258"/>
    </g>
   </g>
   <g id="line2d_60">
    <path d="M 333.168 9.697057 
L 363.64328 15.400716 
" style="fill:none;stroke:#ff00ff;stroke-linecap:square;stroke-width:1.5;"/>
    <g>
     <use style="fill-opacity:0;stroke:#ff00ff;stroke-linejoin:miter;stroke-width:1.5;" x="333.168" xlink:href="#m61e77cca9d" y="9.697057"/>
     <use style="fill-opacity:0;stroke:#ff00ff;stroke-linejoin:miter;stroke-width:1.5;" x="363.64328" xlink:href="#m61e77cca9d" y="15.400716"/>
    </g>
   </g>
   <g id="line2d_61">
    <path d="M 333.168 294.88 
L 333.168 9.697057 
" style="fill:none;stroke:#000000;stroke-linecap:square;stroke-width:1.5;"/>
   </g>
   <g id="patch_3">
    <path d="M 56.12 294.88 
L 56.12 6.845228 
" style="fill:none;stroke:#000000;stroke-linecap:square;stroke-linejoin:miter;stroke-width:0.8;"/>
   </g>
   <g id="patch_4">
    <path d="M 333.168 294.88 
L 333.168 6.845228 
" style="fill:none;stroke:#000000;stroke-linecap:square;stroke-linejoin:miter;stroke-width:0.8;"/>
   </g>
   <g id="patch_5">
    <path d="M 56.12 294.88 
L 333.168 294.88 
" style="fill:none;stroke:#000000;stroke-linecap:square;stroke-linejoin:miter;stroke-width:0.8;"/>
   </g>
   <g id="patch_6">
    <path d="M 56.12 6.845228 
L 333.168 6.845228 
" style="fill:none;stroke:#000000;stroke-linecap:square;stroke-linejoin:miter;stroke-width:0.8;"/>
   </g>
   <g id="text_13">
    <!-- f6 -->
    <g transform="translate(369.18424 293.867279)scale(0.17 -0.17)">
     <use xlink:href="#DejaVuSans-66"/>
     <use x="35.205078" xlink:href="#DejaVuSans-36"/>
    </g>
   </g>
   <g id="text_14">
    <!-- f7 -->
    <defs>
     <path d="M 8.203125 72.90625 
L 55.078125 72.90625 
L 55.078125 68.703125 
L 28.609375 0 
L 18.3125 0 
L 43.21875 64.59375 
L 8.203125 64.59375 
z
" id="DejaVuSans-37"/>
    </defs>
    <g transform="translate(369.18424 202.608737)scale(0.17 -0.17)">
     <use xlink:href="#DejaVuSans-66"/>
     <use x="35.205078" xlink:href="#DejaVuSans-37"/>
    </g>
   </g>
   <g id="text_15">
    <!-- f8 -->
    <g transform="translate(369.18424 111.350195)scale(0.17 -0.17)">
     <use xlink:href="#DejaVuSans-66"/>
     <use x="35.205078" xlink:href="#DejaVuSans-38"/>
    </g>
   </g>
   <g id="text_16">
    <!-- f9 -->
    <defs>
     <path d="M 10.984375 1.515625 
L 10.984375 10.5 
Q 14.703125 8.734375 18.5 7.8125 
Q 22.3125 6.890625 25.984375 6.890625 
Q 35.75 6.890625 40.890625 13.453125 
Q 46.046875 20.015625 46.78125 33.40625 
Q 43.953125 29.203125 39.59375 26.953125 
Q 35.25 24.703125 29.984375 24.703125 
Q 19.046875 24.703125 12.671875 31.3125 
Q 6.296875 37.9375 6.296875 49.421875 
Q 6.296875 60.640625 12.9375 67.421875 
Q 19.578125 74.21875 30.609375 74.21875 
Q 43.265625 74.21875 49.921875 64.515625 
Q 56.59375 54.828125 56.59375 36.375 
Q 56.59375 19.140625 48.40625 8.859375 
Q 40.234375 -1.421875 26.421875 -1.421875 
Q 22.703125 -1.421875 18.890625 -0.6875 
Q 15.09375 0.046875 10.984375 1.515625 
z
M 30.609375 32.421875 
Q 37.25 32.421875 41.125 36.953125 
Q 45.015625 41.5 45.015625 49.421875 
Q 45.015625 57.28125 41.125 61.84375 
Q 37.25 66.40625 30.609375 66.40625 
Q 23.96875 66.40625 20.09375 61.84375 
Q 16.21875 57.28125 16.21875 49.421875 
Q 16.21875 41.5 20.09375 36.953125 
Q 23.96875 32.421875 30.609375 32.421875 
z
" id="DejaVuSans-39"/>
    </defs>
    <g transform="translate(369.18424 20.091654)scale(0.17 -0.17)">
     <use xlink:href="#DejaVuSans-66"/>
     <use x="35.205078" xlink:href="#DejaVuSans-39"/>
    </g>
   </g>
   <g id="text_17">
    <!-- bbob -->
    <defs>
     <path d="M 48.6875 27.296875 
Q 48.6875 37.203125 44.609375 42.84375 
Q 40.53125 48.484375 33.40625 48.484375 
Q 26.265625 48.484375 22.1875 42.84375 
Q 18.109375 37.203125 18.109375 27.296875 
Q 18.109375 17.390625 22.1875 11.75 
Q 26.265625 6.109375 33.40625 6.109375 
Q 40.53125 6.109375 44.609375 11.75 
Q 48.6875 17.390625 48.6875 27.296875 
z
M 18.109375 46.390625 
Q 20.953125 51.265625 25.265625 53.625 
Q 29.59375 56 35.59375 56 
Q 45.5625 56 51.78125 48.09375 
Q 58.015625 40.1875 58.015625 27.296875 
Q 58.015625 14.40625 51.78125 6.484375 
Q 45.5625 -1.421875 35.59375 -1.421875 
Q 29.59375 -1.421875 25.265625 0.953125 
Q 20.953125 3.328125 18.109375 8.203125 
L 18.109375 0 
L 9.078125 0 
L 9.078125 75.984375 
L 18.109375 75.984375 
z
" id="DejaVuSans-62"/>
    </defs>
    <g transform="translate(58.89048 17.475982)scale(0.102 -0.102)">
     <use xlink:href="#DejaVuSans-62"/>
     <use x="63.476562" xlink:href="#DejaVuSans-62"/>
     <use x="126.953125" xlink:href="#DejaVuSans-6f"/>
     <use x="188.134766" xlink:href="#DejaVuSans-62"/>
    </g>
    <!-- Misc. moderate functions, 5-D -->
    <defs>
     <path d="M 9.8125 72.90625 
L 24.515625 72.90625 
L 43.109375 23.296875 
L 61.8125 72.90625 
L 76.515625 72.90625 
L 76.515625 0 
L 66.890625 0 
L 66.890625 64.015625 
L 48.09375 14.015625 
L 38.1875 14.015625 
L 19.390625 64.015625 
L 19.390625 0 
L 9.8125 0 
z
" id="DejaVuSans-4d"/>
     <path d="M 10.796875 72.90625 
L 49.515625 72.90625 
L 49.515625 64.59375 
L 19.828125 64.59375 
L 19.828125 46.734375 
Q 21.96875 47.46875 24.109375 47.828125 
Q 26.265625 48.1875 28.421875 48.1875 
Q 40.625 48.1875 47.75 41.5 
Q 54.890625 34.8125 54.890625 23.390625 
Q 54.890625 11.625 47.5625 5.09375 
Q 40.234375 -1.421875 26.90625 -1.421875 
Q 22.3125 -1.421875 17.546875 -0.640625 
Q 12.796875 0.140625 7.71875 1.703125 
L 7.71875 11.625 
Q 12.109375 9.234375 16.796875 8.0625 
Q 21.484375 6.890625 26.703125 6.890625 
Q 35.15625 6.890625 40.078125 11.328125 
Q 45.015625 15.765625 45.015625 23.390625 
Q 45.015625 31 40.078125 35.4375 
Q 35.15625 39.890625 26.703125 39.890625 
Q 22.75 39.890625 18.8125 39.015625 
Q 14.890625 38.140625 10.796875 36.28125 
z
" id="DejaVuSans-35"/>
     <path d="M 19.671875 64.796875 
L 19.671875 8.109375 
L 31.59375 8.109375 
Q 46.6875 8.109375 53.6875 14.9375 
Q 60.6875 21.78125 60.6875 36.53125 
Q 60.6875 51.171875 53.6875 57.984375 
Q 46.6875 64.796875 31.59375 64.796875 
z
M 9.8125 72.90625 
L 30.078125 72.90625 
Q 51.265625 72.90625 61.171875 64.09375 
Q 71.09375 55.28125 71.09375 36.53125 
Q 71.09375 17.671875 61.125 8.828125 
Q 51.171875 0 30.078125 0 
L 9.8125 0 
z
" id="DejaVuSans-44"/>
    </defs>
    <g transform="translate(58.89048 28.89775)scale(0.102 -0.102)">
     <use xlink:href="#DejaVuSans-4d"/>
     <use x="86.279297" xlink:href="#DejaVuSans-69"/>
     <use x="114.0625" xlink:href="#DejaVuSans-73"/>
     <use x="166.162109" xlink:href="#DejaVuSans-63"/>
     <use x="221.142578" xlink:href="#DejaVuSans-2e"/>
     <use x="252.929688" xlink:href="#DejaVuSans-20"/>
     <use x="284.716797" xlink:href="#DejaVuSans-6d"/>
     <use x="382.128906" xlink:href="#DejaVuSans-6f"/>
     <use x="443.310547" xlink:href="#DejaVuSans-64"/>
     <use x="506.787109" xlink:href="#DejaVuSans-65"/>
     <use x="568.310547" xlink:href="#DejaVuSans-72"/>
     <use x="609.423828" xlink:href="#DejaVuSans-61"/>
     <use x="670.703125" xlink:href="#DejaVuSans-74"/>
     <use x="709.912109" xlink:href="#DejaVuSans-65"/>
     <use x="771.435547" xlink:href="#DejaVuSans-20"/>
     <use x="803.222656" xlink:href="#DejaVuSans-66"/>
     <use x="838.427734" xlink:href="#DejaVuSans-75"/>
     <use x="901.806641" xlink:href="#DejaVuSans-6e"/>
     <use x="965.185547" xlink:href="#DejaVuSans-63"/>
     <use x="1020.166016" xlink:href="#DejaVuSans-74"/>
     <use x="1059.375" xlink:href="#DejaVuSans-69"/>
     <use x="1087.158203" xlink:href="#DejaVuSans-6f"/>
     <use x="1148.339844" xlink:href="#DejaVuSans-6e"/>
     <use x="1211.71875" xlink:href="#DejaVuSans-73"/>
     <use x="1263.818359" xlink:href="#DejaVuSans-2c"/>
     <use x="1295.605469" xlink:href="#DejaVuSans-20"/>
     <use x="1327.392578" xlink:href="#DejaVuSans-35"/>
     <use x="1391.015625" xlink:href="#DejaVuSans-2d"/>
     <use x="1427.099609" xlink:href="#DejaVuSans-44"/>
    </g>
    <!-- 51 targets: 100..1e-08 -->
    <defs>
     <path d="M 11.71875 12.40625 
L 22.015625 12.40625 
L 22.015625 0 
L 11.71875 0 
z
M 11.71875 51.703125 
L 22.015625 51.703125 
L 22.015625 39.3125 
L 11.71875 39.3125 
z
" id="DejaVuSans-3a"/>
    </defs>
    <g transform="translate(58.89048 40.319519)scale(0.102 -0.102)">
     <use xlink:href="#DejaVuSans-35"/>
     <use x="63.623047" xlink:href="#DejaVuSans-31"/>
     <use x="127.246094" xlink:href="#DejaVuSans-20"/>
     <use x="159.033203" xlink:href="#DejaVuSans-74"/>
     <use x="198.242188" xlink:href="#DejaVuSans-61"/>
     <use x="259.521484" xlink:href="#DejaVuSans-72"/>
     <use x="300.619141" xlink:href="#DejaVuSans-67"/>
     <use x="364.095703" xlink:href="#DejaVuSans-65"/>
     <use x="425.619141" xlink:href="#DejaVuSans-74"/>
     <use x="464.828125" xlink:href="#DejaVuSans-73"/>
     <use x="516.927734" xlink:href="#DejaVuSans-3a"/>
     <use x="550.619141" xlink:href="#DejaVuSans-20"/>
     <use x="582.40625" xlink:href="#DejaVuSans-31"/>
     <use x="646.029297" xlink:href="#DejaVuSans-30"/>
     <use x="709.652344" xlink:href="#DejaVuSans-30"/>
     <use x="773.275391" xlink:href="#DejaVuSans-2e"/>
     <use x="805.0625" xlink:href="#DejaVuSans-2e"/>
     <use x="836.849609" xlink:href="#DejaVuSans-31"/>
     <use x="900.472656" xlink:href="#DejaVuSans-65"/>
     <use x="961.996094" xlink:href="#DejaVuSans-2d"/>
     <use x="998.080078" xlink:href="#DejaVuSans-30"/>
     <use x="1061.703125" xlink:href="#DejaVuSans-38"/>
    </g>
    <!-- 15 instances -->
    <g transform="translate(58.89048 51.741288)scale(0.102 -0.102)">
     <use xlink:href="#DejaVuSans-31"/>
     <use x="63.623047" xlink:href="#DejaVuSans-35"/>
     <use x="127.246094" xlink:href="#DejaVuSans-20"/>
     <use x="159.033203" xlink:href="#DejaVuSans-69"/>
     <use x="186.816406" xlink:href="#DejaVuSans-6e"/>
     <use x="250.195312" xlink:href="#DejaVuSans-73"/>
     <use x="302.294922" xlink:href="#DejaVuSans-74"/>
     <use x="341.503906" xlink:href="#DejaVuSans-61"/>
     <use x="402.783203" xlink:href="#DejaVuSans-6e"/>
     <use x="466.162109" xlink:href="#DejaVuSans-63"/>
     <use x="521.142578" xlink:href="#DejaVuSans-65"/>
     <use x="582.666016" xlink:href="#DejaVuSans-73"/>
    </g>
   </g>
   <g id="text_18">
    <!-- v0.0.0 -->
    <g style="fill:#808080;" transform="translate(178.96275 289.919965)scale(0.1 -0.1)">
     <use xlink:href="#DejaVuSans-76"/>
     <use x="59.179688" xlink:href="#DejaVuSans-30"/>
     <use x="122.802734" xlink:href="#DejaVuSans-2e"/>
     <use x="154.589844" xlink:href="#DejaVuSans-30"/>
     <use x="218.212891" xlink:href="#DejaVuSans-2e"/>
     <use x="250" xlink:href="#DejaVuSans-30"/>
    </g>
   </g>
  </g>
 </g>
 <defs>
  <clipPath id="p99680a4546">
   <rect height="288.034772" width="277.048" x="56.12" y="6.845228"/>
  </clipPath>
 </defs>
</svg>
