<?xml version="1.0" encoding="utf-8" standalone="no"?>
<!DOCTYPE svg PUBLIC "-//W3C//DTD SVG 1.1//EN"
  "http://www.w3.org/Graphics/SVG/1.1/DTD/svg11.dtd">
<!-- Created with matplotlib (http://matplotlib.org/) -->
<svg height="345.6pt" version="1.1" viewBox="0 0 460.8 345.6" width="460.8pt" xmlns="http://www.w3.org/2000/svg" xmlns:xlink="http://www.w3.org/1999/xlink">
 <defs>
  <style type="text/css">
*{stroke-linecap:butt;stroke-linejoin:round;}
  </style>
 </defs>
 <g id="figure_1">
  <g id="patch_1">
   <path d="M 0 345.6 
L 460.8 345.6 
L 460.8 0 
L 0 0 
z
" style="fill:#ffffff;"/>
  </g>
  <g id="axes_1">
   <g id="patch_2">
    <path d="M 25.9 311.24 
L 450.072 311.24 
L 450.072 28.32 
L 25.9 28.32 
z
" style="fill:#ffffff;"/>
   </g>
   <g id="line2d_1">
    <path clip-path="url(#p4f566ae76b)" d="M 39.784034 185.526156 
L 93.214783 174.619733 
L 160.529565 162.104188 
L 251.870034 149.630862 
L 343.210502 139.85846 
L 434.550971 123.644081 
" style="fill:none;stroke:#f5deb3;stroke-linecap:square;stroke-width:10;"/>
    <defs>
     <path d="M -0 17.67767 
L 10.606602 0 
L 0 -17.67767 
L -10.606602 -0 
z
" id="mebbcd13894" style="stroke:#000000;stroke-linejoin:miter;"/>
    </defs>
    <g clip-path="url(#p4f566ae76b)">
     <use style="fill:#f5deb3;stroke:#000000;stroke-linejoin:miter;" x="39.784034" xlink:href="#mebbcd13894" y="185.526156"/>
     <use style="fill:#f5deb3;stroke:#000000;stroke-linejoin:miter;" x="93.214783" xlink:href="#mebbcd13894" y="174.619733"/>
     <use style="fill:#f5deb3;stroke:#000000;stroke-linejoin:miter;" x="160.529565" xlink:href="#mebbcd13894" y="162.104188"/>
     <use style="fill:#f5deb3;stroke:#000000;stroke-linejoin:miter;" x="251.870034" xlink:href="#mebbcd13894" y="149.630862"/>
     <use style="fill:#f5deb3;stroke:#000000;stroke-linejoin:miter;" x="343.210502" xlink:href="#mebbcd13894" y="139.85846"/>
     <use style="fill:#f5deb3;stroke:#000000;stroke-linejoin:miter;" x="434.550971" xlink:href="#mebbcd13894" y="123.644081"/>
    </g>
   </g>
   <g id="line2d_2">
    <defs>
     <path d="M -15 0 
L 15 0 
M 0 15 
L 0 -15 
" id="mbda677cd01" style="stroke:#0000ff;stroke-width:5;"/>
    </defs>
    <g clip-path="url(#p4f566ae76b)">
     <use style="fill:#0000ff;stroke:#0000ff;stroke-width:5;" x="251.870034" xlink:href="#mbda677cd01" y="153.967015"/>
    </g>
   </g>
   <g id="line2d_3">
    <defs>
     <path d="M -15 0 
L 15 0 
M 0 15 
L 0 -15 
" id="m43e42ad088" style="stroke:#ff0000;stroke-width:5;"/>
    </defs>
    <g clip-path="url(#p4f566ae76b)">
     <use style="fill:#ff0000;stroke:#ff0000;stroke-width:5;" x="93.214783" xlink:href="#m43e42ad088" y="140.722094"/>
    </g>
   </g>
   <g id="line2d_4">
    <g clip-path="url(#p4f566ae76b)">
     <use style="fill:#ff0000;stroke:#ff0000;stroke-width:5;" x="160.529565" xlink:href="#m43e42ad088" y="145.814378"/>
    </g>
   </g>
   <g id="matplotlib.axis_1">
    <g id="xtick_1">
     <g id="line2d_5">
      <defs>
       <path d="M 0 0 
L 0 3.5 
" id="m6fd58c7bd3" style="stroke:#000000;stroke-width:0.8;"/>
      </defs>
      <g>
       <use style="stroke:#000000;stroke-width:0.8;" x="39.784034" xlink:href="#m6fd58c7bd3" y="311.24"/>
      </g>
     </g>
     <g id="text_1">
      <!-- 2 -->
      <defs>
       <path d="M 19.1875 8.296875 
L 53.609375 8.296875 
L 53.609375 0 
L 7.328125 0 
L 7.328125 8.296875 
Q 12.9375 14.109375 22.625 23.890625 
Q 32.328125 33.6875 34.8125 36.53125 
Q 39.546875 41.84375 41.421875 45.53125 
Q 43.3125 49.21875 43.3125 52.78125 
Q 43.3125 58.59375 39.234375 62.25 
Q 35.15625 65.921875 28.609375 65.921875 
Q 23.96875 65.921875 18.8125 64.3125 
Q 13.671875 62.703125 7.8125 59.421875 
L 7.8125 69.390625 
Q 13.765625 71.78125 18.9375 73 
Q 24.125 74.21875 28.421875 74.21875 
Q 39.75 74.21875 46.484375 68.546875 
Q 53.21875 62.890625 53.21875 53.421875 
Q 53.21875 48.921875 51.53125 44.890625 
Q 49.859375 40.875 45.40625 35.40625 
Q 44.1875 33.984375 37.640625 27.21875 
Q 31.109375 20.453125 19.1875 8.296875 
z
" id="DejaVuSans-32"/>
      </defs>
      <g transform="translate(32.149034 336.47625)scale(0.24 -0.24)">
       <use xlink:href="#DejaVuSans-32"/>
      </g>
     </g>
    </g>
    <g id="xtick_2">
     <g id="line2d_6">
      <g>
       <use style="stroke:#000000;stroke-width:0.8;" x="93.214783" xlink:href="#m6fd58c7bd3" y="311.24"/>
      </g>
     </g>
     <g id="text_2">
      <!-- 3 -->
      <defs>
       <path d="M 40.578125 39.3125 
Q 47.65625 37.796875 51.625 33 
Q 55.609375 28.21875 55.609375 21.1875 
Q 55.609375 10.40625 48.1875 4.484375 
Q 40.765625 -1.421875 27.09375 -1.421875 
Q 22.515625 -1.421875 17.65625 -0.515625 
Q 12.796875 0.390625 7.625 2.203125 
L 7.625 11.71875 
Q 11.71875 9.328125 16.59375 8.109375 
Q 21.484375 6.890625 26.8125 6.890625 
Q 36.078125 6.890625 40.9375 10.546875 
Q 45.796875 14.203125 45.796875 21.1875 
Q 45.796875 27.640625 41.28125 31.265625 
Q 36.765625 34.90625 28.71875 34.90625 
L 20.21875 34.90625 
L 20.21875 43.015625 
L 29.109375 43.015625 
Q 36.375 43.015625 40.234375 45.921875 
Q 44.09375 48.828125 44.09375 54.296875 
Q 44.09375 59.90625 40.109375 62.90625 
Q 36.140625 65.921875 28.71875 65.921875 
Q 24.65625 65.921875 20.015625 65.03125 
Q 15.375 64.15625 9.8125 62.3125 
L 9.8125 71.09375 
Q 15.4375 72.65625 20.34375 73.4375 
Q 25.25 74.21875 29.59375 74.21875 
Q 40.828125 74.21875 47.359375 69.109375 
Q 53.90625 64.015625 53.90625 55.328125 
Q 53.90625 49.265625 50.4375 45.09375 
Q 46.96875 40.921875 40.578125 39.3125 
z
" id="DejaVuSans-33"/>
      </defs>
      <g transform="translate(85.579783 336.47625)scale(0.24 -0.24)">
       <use xlink:href="#DejaVuSans-33"/>
      </g>
     </g>
    </g>
    <g id="xtick_3">
     <g id="line2d_7">
      <g>
       <use style="stroke:#000000;stroke-width:0.8;" x="160.529565" xlink:href="#m6fd58c7bd3" y="311.24"/>
      </g>
     </g>
     <g id="text_3">
      <!-- 5 -->
      <defs>
       <path d="M 10.796875 72.90625 
L 49.515625 72.90625 
L 49.515625 64.59375 
L 19.828125 64.59375 
L 19.828125 46.734375 
Q 21.96875 47.46875 24.109375 47.828125 
Q 26.265625 48.1875 28.421875 48.1875 
Q 40.625 48.1875 47.75 41.5 
Q 54.890625 34.8125 54.890625 23.390625 
Q 54.890625 11.625 47.5625 5.09375 
Q 40.234375 -1.421875 26.90625 -1.421875 
Q 22.3125 -1.421875 17.546875 -0.640625 
Q 12.796875 0.140625 7.71875 1.703125 
L 7.71875 11.625 
Q 12.109375 9.234375 16.796875 8.0625 
Q 21.484375 6.890625 26.703125 6.890625 
Q 35.15625 6.890625 40.078125 11.328125 
Q 45.015625 15.765625 45.015625 23.390625 
Q 45.015625 31 40.078125 35.4375 
Q 35.15625 39.890625 26.703125 39.890625 
Q 22.75 39.890625 18.8125 39.015625 
Q 14.890625 38.140625 10.796875 36.28125 
z
" id="DejaVuSans-35"/>
      </defs>
      <g transform="translate(152.894565 336.47625)scale(0.24 -0.24)">
       <use xlink:href="#DejaVuSans-35"/>
      </g>
     </g>
    </g>
    <g id="xtick_4">
     <g id="line2d_8">
      <g>
       <use style="stroke:#000000;stroke-width:0.8;" x="251.870034" xlink:href="#m6fd58c7bd3" y="311.24"/>
      </g>
     </g>
     <g id="text_4">
      <!-- 10 -->
      <defs>
       <path d="M 12.40625 8.296875 
L 28.515625 8.296875 
L 28.515625 63.921875 
L 10.984375 60.40625 
L 10.984375 69.390625 
L 28.421875 72.90625 
L 38.28125 72.90625 
L 38.28125 8.296875 
L 54.390625 8.296875 
L 54.390625 0 
L 12.40625 0 
z
" id="DejaVuSans-31"/>
       <path d="M 31.78125 66.40625 
Q 24.171875 66.40625 20.328125 58.90625 
Q 16.5 51.421875 16.5 36.375 
Q 16.5 21.390625 20.328125 13.890625 
Q 24.171875 6.390625 31.78125 6.390625 
Q 39.453125 6.390625 43.28125 13.890625 
Q 47.125 21.390625 47.125 36.375 
Q 47.125 51.421875 43.28125 58.90625 
Q 39.453125 66.40625 31.78125 66.40625 
z
M 31.78125 74.21875 
Q 44.046875 74.21875 50.515625 64.515625 
Q 56.984375 54.828125 56.984375 36.375 
Q 56.984375 17.96875 50.515625 8.265625 
Q 44.046875 -1.421875 31.78125 -1.421875 
Q 19.53125 -1.421875 13.0625 8.265625 
Q 6.59375 17.96875 6.59375 36.375 
Q 6.59375 54.828125 13.0625 64.515625 
Q 19.53125 74.21875 31.78125 74.21875 
z
" id="DejaVuSans-30"/>
      </defs>
      <g transform="translate(236.600034 336.47625)scale(0.24 -0.24)">
       <use xlink:href="#DejaVuSans-31"/>
       <use x="63.623047" xlink:href="#DejaVuSans-30"/>
      </g>
     </g>
    </g>
    <g id="xtick_5">
     <g id="line2d_9">
      <g>
       <use style="stroke:#000000;stroke-width:0.8;" x="343.210502" xlink:href="#m6fd58c7bd3" y="311.24"/>
      </g>
     </g>
     <g id="text_5">
      <!-- 20 -->
      <g transform="translate(327.940502 336.47625)scale(0.24 -0.24)">
       <use xlink:href="#DejaVuSans-32"/>
       <use x="63.623047" xlink:href="#DejaVuSans-30"/>
      </g>
     </g>
    </g>
    <g id="xtick_6">
     <g id="line2d_10">
      <g>
       <use style="stroke:#000000;stroke-width:0.8;" x="434.550971" xlink:href="#m6fd58c7bd3" y="311.24"/>
      </g>
     </g>
     <g id="text_6">
      <!-- 40 -->
      <defs>
       <path d="M 37.796875 64.3125 
L 12.890625 25.390625 
L 37.796875 25.390625 
z
M 35.203125 72.90625 
L 47.609375 72.90625 
L 47.609375 25.390625 
L 58.015625 25.390625 
L 58.015625 17.1875 
L 47.609375 17.1875 
L 47.609375 0 
L 37.796875 0 
L 37.796875 17.1875 
L 4.890625 17.1875 
L 4.890625 26.703125 
z
" id="DejaVuSans-34"/>
      </defs>
      <g transform="translate(419.280971 336.47625)scale(0.24 -0.24)">
       <use xlink:href="#DejaVuSans-34"/>
       <use x="63.623047" xlink:href="#DejaVuSans-30"/>
      </g>
     </g>
    </g>
    <g id="xtick_7">
     <g id="line2d_11">
      <defs>
       <path d="M 0 0 
L 0 2 
" id="mf89928eae6" style="stroke:#000000;stroke-width:0.6;"/>
      </defs>
      <g>
       <use style="stroke:#000000;stroke-width:0.6;" x="39.784034" xlink:href="#mf89928eae6" y="311.24"/>
      </g>
     </g>
    </g>
    <g id="xtick_8">
     <g id="line2d_12">
      <g>
       <use style="stroke:#000000;stroke-width:0.6;" x="93.214783" xlink:href="#mf89928eae6" y="311.24"/>
      </g>
     </g>
    </g>
    <g id="xtick_9">
     <g id="line2d_13">
      <g>
       <use style="stroke:#000000;stroke-width:0.6;" x="131.124502" xlink:href="#mf89928eae6" y="311.24"/>
      </g>
     </g>
    </g>
    <g id="xtick_10">
     <g id="line2d_14">
      <g>
       <use style="stroke:#000000;stroke-width:0.6;" x="160.529565" xlink:href="#mf89928eae6" y="311.24"/>
      </g>
     </g>
    </g>
    <g id="xtick_11">
     <g id="line2d_15">
      <g>
       <use style="stroke:#000000;stroke-width:0.6;" x="184.555251" xlink:href="#mf89928eae6" y="311.24"/>
      </g>
     </g>
    </g>
    <g id="xtick_12">
     <g id="line2d_16">
      <g>
       <use style="stroke:#000000;stroke-width:0.6;" x="204.868679" xlink:href="#mf89928eae6" y="311.24"/>
      </g>
     </g>
    </g>
    <g id="xtick_13">
     <g id="line2d_17">
      <g>
       <use style="stroke:#000000;stroke-width:0.6;" x="222.464971" xlink:href="#mf89928eae6" y="311.24"/>
      </g>
     </g>
    </g>
    <g id="xtick_14">
     <g id="line2d_18">
      <g>
       <use style="stroke:#000000;stroke-width:0.6;" x="237.986" xlink:href="#mf89928eae6" y="311.24"/>
      </g>
     </g>
    </g>
    <g id="xtick_15">
     <g id="line2d_19">
      <g>
       <use style="stroke:#000000;stroke-width:0.6;" x="343.210502" xlink:href="#mf89928eae6" y="311.24"/>
      </g>
     </g>
    </g>
    <g id="xtick_16">
     <g id="line2d_20">
      <g>
       <use style="stroke:#000000;stroke-width:0.6;" x="396.641251" xlink:href="#mf89928eae6" y="311.24"/>
      </g>
     </g>
    </g>
    <g id="xtick_17">
     <g id="line2d_21">
      <g>
       <use style="stroke:#000000;stroke-width:0.6;" x="434.550971" xlink:href="#mf89928eae6" y="311.24"/>
      </g>
     </g>
    </g>
   </g>
   <g id="matplotlib.axis_2">
    <g id="ytick_1">
     <g id="line2d_22">
      <path clip-path="url(#p4f566ae76b)" d="M 25.9 300.358462 
L 450.072 300.358462 
" style="fill:none;stroke:#b0b0b0;stroke-linecap:square;stroke-width:0.8;"/>
     </g>
     <g id="line2d_23">
      <defs>
       <path d="M 0 0 
L -3.5 0 
" id="m566547a2fc" style="stroke:#000000;stroke-width:0.8;"/>
      </defs>
      <g>
       <use style="stroke:#000000;stroke-width:0.8;" x="25.9" xlink:href="#m566547a2fc" y="300.358462"/>
      </g>
     </g>
     <g id="text_7">
      <!-- 0 -->
      <g transform="translate(3.63 309.476587)scale(0.24 -0.24)">
       <use xlink:href="#DejaVuSans-30"/>
      </g>
     </g>
    </g>
    <g id="ytick_2">
     <g id="line2d_24">
      <path clip-path="url(#p4f566ae76b)" d="M 25.9 245.950775 
L 450.072 245.950775 
" style="fill:none;stroke:#b0b0b0;stroke-linecap:square;stroke-width:0.8;"/>
     </g>
     <g id="line2d_25">
      <g>
       <use style="stroke:#000000;stroke-width:0.8;" x="25.9" xlink:href="#m566547a2fc" y="245.950775"/>
      </g>
     </g>
     <g id="text_8">
      <!-- 1 -->
      <g transform="translate(3.63 255.0689)scale(0.24 -0.24)">
       <use xlink:href="#DejaVuSans-31"/>
      </g>
     </g>
    </g>
    <g id="ytick_3">
     <g id="line2d_26">
      <path clip-path="url(#p4f566ae76b)" d="M 25.9 191.543087 
L 450.072 191.543087 
" style="fill:none;stroke:#b0b0b0;stroke-linecap:square;stroke-width:0.8;"/>
     </g>
     <g id="line2d_27">
      <g>
       <use style="stroke:#000000;stroke-width:0.8;" x="25.9" xlink:href="#m566547a2fc" y="191.543087"/>
      </g>
     </g>
     <g id="text_9">
      <!-- 2 -->
      <g transform="translate(3.63 200.661212)scale(0.24 -0.24)">
       <use xlink:href="#DejaVuSans-32"/>
      </g>
     </g>
    </g>
    <g id="ytick_4">
     <g id="line2d_28">
      <path clip-path="url(#p4f566ae76b)" d="M 25.9 137.135399 
L 450.072 137.135399 
" style="fill:none;stroke:#b0b0b0;stroke-linecap:square;stroke-width:0.8;"/>
     </g>
     <g id="line2d_29">
      <g>
       <use style="stroke:#000000;stroke-width:0.8;" x="25.9" xlink:href="#m566547a2fc" y="137.135399"/>
      </g>
     </g>
     <g id="text_10">
      <!-- 3 -->
      <g transform="translate(3.63 146.253524)scale(0.24 -0.24)">
       <use xlink:href="#DejaVuSans-33"/>
      </g>
     </g>
    </g>
    <g id="ytick_5">
     <g id="line2d_30">
      <path clip-path="url(#p4f566ae76b)" d="M 25.9 82.727711 
L 450.072 82.727711 
" style="fill:none;stroke:#b0b0b0;stroke-linecap:square;stroke-width:0.8;"/>
     </g>
     <g id="line2d_31">
      <g>
       <use style="stroke:#000000;stroke-width:0.8;" x="25.9" xlink:href="#m566547a2fc" y="82.727711"/>
      </g>
     </g>
     <g id="text_11">
      <!-- 4 -->
      <g transform="translate(3.63 91.845836)scale(0.24 -0.24)">
       <use xlink:href="#DejaVuSans-34"/>
      </g>
     </g>
    </g>
    <g id="ytick_6">
     <g id="line2d_32">
      <path clip-path="url(#p4f566ae76b)" d="M 25.9 28.320024 
L 450.072 28.320024 
" style="fill:none;stroke:#b0b0b0;stroke-linecap:square;stroke-width:0.8;"/>
     </g>
     <g id="line2d_33">
      <g>
       <use style="stroke:#000000;stroke-width:0.8;" x="25.9" xlink:href="#m566547a2fc" y="28.320024"/>
      </g>
     </g>
     <g id="text_12">
      <!-- 5 -->
      <g transform="translate(3.63 37.438149)scale(0.24 -0.24)">
       <use xlink:href="#DejaVuSans-35"/>
      </g>
     </g>
    </g>
   </g>
   <g id="line2d_34">
    <path clip-path="url(#p4f566ae76b)" d="M 36.644125 262.329121 
L 38.842061 260.07704 
L 36.644125 231.414579 
L 42.923943 231.414579 
L 40.726006 260.07704 
L 42.923943 262.329121 
L 36.644125 262.329121 
" style="fill:none;stroke:#000000;stroke-linecap:square;"/>
   </g>
   <g id="line2d_35">
    <path clip-path="url(#p4f566ae76b)" d="M 36.644125 262.329121 
L 42.923943 262.329121 
L 42.923943 231.414579 
L 36.644125 231.414579 
L 36.644125 262.329121 
" style="fill:none;"/>
    <defs>
     <path d="M 0 3 
C 0.795609 3 1.55874 2.683901 2.12132 2.12132 
C 2.683901 1.55874 3 0.795609 3 0 
C 3 -0.795609 2.683901 -1.55874 2.12132 -2.12132 
C 1.55874 -2.683901 0.795609 -3 0 -3 
C -0.795609 -3 -1.55874 -2.683901 -2.12132 -2.12132 
C -2.683901 -1.55874 -3 -0.795609 -3 0 
C -3 0.795609 -2.683901 1.55874 -2.12132 2.12132 
C -1.55874 2.683901 -0.795609 3 0 3 
z
" id="mfc26426706" style="stroke:#000000;stroke-width:2;"/>
    </defs>
    <g clip-path="url(#p4f566ae76b)">
     <use style="stroke:#000000;stroke-width:2;" x="36.644125" xlink:href="#mfc26426706" y="262.329121"/>
     <use style="stroke:#000000;stroke-width:2;" x="42.923943" xlink:href="#mfc26426706" y="262.329121"/>
     <use style="stroke:#000000;stroke-width:2;" x="42.923943" xlink:href="#mfc26426706" y="231.414579"/>
     <use style="stroke:#000000;stroke-width:2;" x="36.644125" xlink:href="#mfc26426706" y="231.414579"/>
     <use style="stroke:#000000;stroke-width:2;" x="36.644125" xlink:href="#mfc26426706" y="262.329121"/>
    </g>
   </g>
   <g id="line2d_36">
    <path clip-path="url(#p4f566ae76b)" d="M 36.644125 260.07704 
L 42.923943 260.07704 
" style="fill:none;stroke:#000000;stroke-linecap:square;stroke-width:2;"/>
   </g>
   <g id="line2d_37">
    <path clip-path="url(#p4f566ae76b)" d="M 90.074874 227.320348 
L 92.27281 217.384301 
L 90.074874 213.792316 
L 96.354692 213.792316 
L 94.156755 217.384301 
L 96.354692 227.320348 
L 90.074874 227.320348 
" style="fill:none;stroke:#000000;stroke-linecap:square;"/>
   </g>
   <g id="line2d_38">
    <path clip-path="url(#p4f566ae76b)" d="M 90.074874 227.320348 
L 96.354692 227.320348 
L 96.354692 213.792316 
L 90.074874 213.792316 
L 90.074874 227.320348 
" style="fill:none;"/>
    <g clip-path="url(#p4f566ae76b)">
     <use style="stroke:#000000;stroke-width:2;" x="90.074874" xlink:href="#mfc26426706" y="227.320348"/>
     <use style="stroke:#000000;stroke-width:2;" x="96.354692" xlink:href="#mfc26426706" y="227.320348"/>
     <use style="stroke:#000000;stroke-width:2;" x="96.354692" xlink:href="#mfc26426706" y="213.792316"/>
     <use style="stroke:#000000;stroke-width:2;" x="90.074874" xlink:href="#mfc26426706" y="213.792316"/>
     <use style="stroke:#000000;stroke-width:2;" x="90.074874" xlink:href="#mfc26426706" y="227.320348"/>
    </g>
   </g>
   <g id="line2d_39">
    <path clip-path="url(#p4f566ae76b)" d="M 90.074874 217.384301 
L 96.354692 217.384301 
" style="fill:none;stroke:#000000;stroke-linecap:square;stroke-width:2;"/>
   </g>
   <g id="line2d_40">
    <path clip-path="url(#p4f566ae76b)" d="M 157.389656 206.544599 
L 159.587593 202.236531 
L 157.389656 189.334007 
L 163.669474 189.334007 
L 161.471538 202.236531 
L 163.669474 206.544599 
L 157.389656 206.544599 
" style="fill:none;stroke:#000000;stroke-linecap:square;"/>
   </g>
   <g id="line2d_41">
    <path clip-path="url(#p4f566ae76b)" d="M 157.389656 206.544599 
L 163.669474 206.544599 
L 163.669474 189.334007 
L 157.389656 189.334007 
L 157.389656 206.544599 
" style="fill:none;"/>
    <g clip-path="url(#p4f566ae76b)">
     <use style="stroke:#000000;stroke-width:2;" x="157.389656" xlink:href="#mfc26426706" y="206.544599"/>
     <use style="stroke:#000000;stroke-width:2;" x="163.669474" xlink:href="#mfc26426706" y="206.544599"/>
     <use style="stroke:#000000;stroke-width:2;" x="163.669474" xlink:href="#mfc26426706" y="189.334007"/>
     <use style="stroke:#000000;stroke-width:2;" x="157.389656" xlink:href="#mfc26426706" y="189.334007"/>
     <use style="stroke:#000000;stroke-width:2;" x="157.389656" xlink:href="#mfc26426706" y="206.544599"/>
    </g>
   </g>
   <g id="line2d_42">
    <path clip-path="url(#p4f566ae76b)" d="M 157.389656 202.236531 
L 163.669474 202.236531 
" style="fill:none;stroke:#000000;stroke-linecap:square;stroke-width:2;"/>
   </g>
   <g id="line2d_43">
    <path clip-path="url(#p4f566ae76b)" d="M 248.730125 189.944384 
L 250.928061 184.294924 
L 248.730125 174.28348 
L 255.009943 174.28348 
L 252.812006 184.294924 
L 255.009943 189.944384 
L 248.730125 189.944384 
" style="fill:none;stroke:#000000;stroke-linecap:square;"/>
   </g>
   <g id="line2d_44">
    <path clip-path="url(#p4f566ae76b)" d="M 248.730125 189.944384 
L 255.009943 189.944384 
L 255.009943 174.28348 
L 248.730125 174.28348 
L 248.730125 189.944384 
" style="fill:none;"/>
    <g clip-path="url(#p4f566ae76b)">
     <use style="stroke:#000000;stroke-width:2;" x="248.730125" xlink:href="#mfc26426706" y="189.944384"/>
     <use style="stroke:#000000;stroke-width:2;" x="255.009943" xlink:href="#mfc26426706" y="189.944384"/>
     <use style="stroke:#000000;stroke-width:2;" x="255.009943" xlink:href="#mfc26426706" y="174.28348"/>
     <use style="stroke:#000000;stroke-width:2;" x="248.730125" xlink:href="#mfc26426706" y="174.28348"/>
     <use style="stroke:#000000;stroke-width:2;" x="248.730125" xlink:href="#mfc26426706" y="189.944384"/>
    </g>
   </g>
   <g id="line2d_45">
    <path clip-path="url(#p4f566ae76b)" d="M 248.730125 184.294924 
L 255.009943 184.294924 
" style="fill:none;stroke:#000000;stroke-linecap:square;stroke-width:2;"/>
   </g>
   <g id="line2d_46">
    <path clip-path="url(#p4f566ae76b)" d="M 39.784034 251.620559 
L 93.214783 227.632683 
" style="fill:none;stroke:#000000;stroke-linecap:square;stroke-width:4;"/>
   </g>
   <g id="line2d_47">
    <path clip-path="url(#p4f566ae76b)" d="M 93.214783 227.632683 
L 160.529565 200.260763 
" style="fill:none;stroke:#000000;stroke-linecap:square;stroke-width:4;"/>
   </g>
   <g id="line2d_48">
    <path clip-path="url(#p4f566ae76b)" d="M 160.529565 200.260763 
L 251.870034 181.88897 
" style="fill:none;stroke:#000000;stroke-linecap:square;stroke-width:4;"/>
   </g>
   <g id="line2d_49">
    <path clip-path="url(#p4f566ae76b)" d="M 39.784034 251.620559 
L 93.214783 227.632683 
L 160.529565 200.260763 
L 251.870034 181.88897 
" style="fill:none;"/>
    <defs>
     <path d="M 0 10 
C 2.652031 10 5.195799 8.946337 7.071068 7.071068 
C 8.946337 5.195799 10 2.652031 10 0 
C 10 -2.652031 8.946337 -5.195799 7.071068 -7.071068 
C 5.195799 -8.946337 2.652031 -10 0 -10 
C -2.652031 -10 -5.195799 -8.946337 -7.071068 -7.071068 
C -8.946337 -5.195799 -10 -2.652031 -10 0 
C -10 2.652031 -8.946337 5.195799 -7.071068 7.071068 
C -5.195799 8.946337 -2.652031 10 0 10 
z
" id="m08f9546aa7" style="stroke:#000000;stroke-width:2;"/>
    </defs>
    <g clip-path="url(#p4f566ae76b)">
     <use style="stroke:#000000;stroke-width:2;" x="39.784034" xlink:href="#m08f9546aa7" y="251.620559"/>
     <use style="stroke:#000000;stroke-width:2;" x="93.214783" xlink:href="#m08f9546aa7" y="227.632683"/>
     <use style="stroke:#000000;stroke-width:2;" x="160.529565" xlink:href="#m08f9546aa7" y="200.260763"/>
     <use style="stroke:#000000;stroke-width:2;" x="251.870034" xlink:href="#m08f9546aa7" y="181.88897"/>
    </g>
   </g>
   <g id="line2d_50">
    <path clip-path="url(#p4f566ae76b)" d="M 35.597488 231.414579 
L 38.52807 199.305296 
L 35.597488 187.833252 
L 43.970579 187.833252 
L 41.039997 199.305296 
L 43.970579 231.414579 
L 35.597488 231.414579 
" style="fill:none;stroke:#0000ff;stroke-linecap:square;"/>
   </g>
   <g id="line2d_51">
    <path clip-path="url(#p4f566ae76b)" d="M 35.597488 231.414579 
L 43.970579 231.414579 
L 43.970579 187.833252 
L 35.597488 187.833252 
L 35.597488 231.414579 
" style="fill:none;"/>
    <defs>
     <path d="M 0 1.5 
C 0.397805 1.5 0.77937 1.341951 1.06066 1.06066 
C 1.341951 0.77937 1.5 0.397805 1.5 0 
C 1.5 -0.397805 1.341951 -0.77937 1.06066 -1.06066 
C 0.77937 -1.341951 0.397805 -1.5 0 -1.5 
C -0.397805 -1.5 -0.77937 -1.341951 -1.06066 -1.06066 
C -1.341951 -0.77937 -1.5 -0.397805 -1.5 0 
C -1.5 0.397805 -1.341951 0.77937 -1.06066 1.06066 
C -0.77937 1.341951 -0.397805 1.5 0 1.5 
z
" id="mdadc32b5a7" style="stroke:#0000ff;"/>
    </defs>
    <g clip-path="url(#p4f566ae76b)">
     <use style="fill:#0000ff;stroke:#0000ff;" x="35.597488" xlink:href="#mdadc32b5a7" y="231.414579"/>
     <use style="fill:#0000ff;stroke:#0000ff;" x="43.970579" xlink:href="#mdadc32b5a7" y="231.414579"/>
     <use style="fill:#0000ff;stroke:#0000ff;" x="43.970579" xlink:href="#mdadc32b5a7" y="187.833252"/>
     <use style="fill:#0000ff;stroke:#0000ff;" x="35.597488" xlink:href="#mdadc32b5a7" y="187.833252"/>
     <use style="fill:#0000ff;stroke:#0000ff;" x="35.597488" xlink:href="#mdadc32b5a7" y="231.414579"/>
    </g>
   </g>
   <g id="line2d_52">
    <path clip-path="url(#p4f566ae76b)" d="M 35.597488 199.305296 
L 43.970579 199.305296 
" style="fill:none;stroke:#0000ff;stroke-linecap:square;stroke-width:2;"/>
   </g>
   <g id="line2d_53">
    <path clip-path="url(#p4f566ae76b)" d="M 89.028237 193.685155 
L 91.958819 170.498404 
L 89.028237 165.193452 
L 97.401328 165.193452 
L 94.470746 170.498404 
L 97.401328 193.685155 
L 89.028237 193.685155 
" style="fill:none;stroke:#0000ff;stroke-linecap:square;"/>
   </g>
   <g id="line2d_54">
    <path clip-path="url(#p4f566ae76b)" d="M 89.028237 193.685155 
L 97.401328 193.685155 
L 97.401328 165.193452 
L 89.028237 165.193452 
L 89.028237 193.685155 
" style="fill:none;"/>
    <g clip-path="url(#p4f566ae76b)">
     <use style="fill:#0000ff;stroke:#0000ff;" x="89.028237" xlink:href="#mdadc32b5a7" y="193.685155"/>
     <use style="fill:#0000ff;stroke:#0000ff;" x="97.401328" xlink:href="#mdadc32b5a7" y="193.685155"/>
     <use style="fill:#0000ff;stroke:#0000ff;" x="97.401328" xlink:href="#mdadc32b5a7" y="165.193452"/>
     <use style="fill:#0000ff;stroke:#0000ff;" x="89.028237" xlink:href="#mdadc32b5a7" y="165.193452"/>
     <use style="fill:#0000ff;stroke:#0000ff;" x="89.028237" xlink:href="#mdadc32b5a7" y="193.685155"/>
    </g>
   </g>
   <g id="line2d_55">
    <path clip-path="url(#p4f566ae76b)" d="M 89.028237 170.498404 
L 97.401328 170.498404 
" style="fill:none;stroke:#0000ff;stroke-linecap:square;stroke-width:2;"/>
   </g>
   <g id="line2d_56">
    <path clip-path="url(#p4f566ae76b)" d="M 156.34302 179.969475 
L 159.273602 168.506343 
L 156.34302 156.728438 
L 164.716111 156.728438 
L 161.785529 168.506343 
L 164.716111 179.969475 
L 156.34302 179.969475 
" style="fill:none;stroke:#0000ff;stroke-linecap:square;"/>
   </g>
   <g id="line2d_57">
    <path clip-path="url(#p4f566ae76b)" d="M 156.34302 179.969475 
L 164.716111 179.969475 
L 164.716111 156.728438 
L 156.34302 156.728438 
L 156.34302 179.969475 
" style="fill:none;"/>
    <g clip-path="url(#p4f566ae76b)">
     <use style="fill:#0000ff;stroke:#0000ff;" x="156.34302" xlink:href="#mdadc32b5a7" y="179.969475"/>
     <use style="fill:#0000ff;stroke:#0000ff;" x="164.716111" xlink:href="#mdadc32b5a7" y="179.969475"/>
     <use style="fill:#0000ff;stroke:#0000ff;" x="164.716111" xlink:href="#mdadc32b5a7" y="156.728438"/>
     <use style="fill:#0000ff;stroke:#0000ff;" x="156.34302" xlink:href="#mdadc32b5a7" y="156.728438"/>
     <use style="fill:#0000ff;stroke:#0000ff;" x="156.34302" xlink:href="#mdadc32b5a7" y="179.969475"/>
    </g>
   </g>
   <g id="line2d_58">
    <path clip-path="url(#p4f566ae76b)" d="M 156.34302 168.506343 
L 164.716111 168.506343 
" style="fill:none;stroke:#0000ff;stroke-linecap:square;stroke-width:2;"/>
   </g>
   <g id="line2d_59">
    <path clip-path="url(#p4f566ae76b)" d="M 247.683488 101.433919 
L 250.61407 76.317058 
L 247.683488 63.343952 
L 256.056579 63.343952 
L 253.125997 76.317058 
L 256.056579 101.433919 
L 247.683488 101.433919 
" style="fill:none;stroke:#0000ff;stroke-linecap:square;"/>
   </g>
   <g id="line2d_60">
    <path clip-path="url(#p4f566ae76b)" d="M 247.683488 101.433919 
L 256.056579 101.433919 
L 256.056579 63.343952 
L 247.683488 63.343952 
L 247.683488 101.433919 
" style="fill:none;"/>
    <g clip-path="url(#p4f566ae76b)">
     <use style="fill:#0000ff;stroke:#0000ff;" x="247.683488" xlink:href="#mdadc32b5a7" y="101.433919"/>
     <use style="fill:#0000ff;stroke:#0000ff;" x="256.056579" xlink:href="#mdadc32b5a7" y="101.433919"/>
     <use style="fill:#0000ff;stroke:#0000ff;" x="256.056579" xlink:href="#mdadc32b5a7" y="63.343952"/>
     <use style="fill:#0000ff;stroke:#0000ff;" x="247.683488" xlink:href="#mdadc32b5a7" y="63.343952"/>
     <use style="fill:#0000ff;stroke:#0000ff;" x="247.683488" xlink:href="#mdadc32b5a7" y="101.433919"/>
    </g>
   </g>
   <g id="line2d_61">
    <path clip-path="url(#p4f566ae76b)" d="M 247.683488 76.317058 
L 256.056579 76.317058 
" style="fill:none;stroke:#0000ff;stroke-linecap:square;stroke-width:2;"/>
   </g>
   <g id="line2d_62">
    <path clip-path="url(#p4f566ae76b)" d="M 39.784034 212.229501 
L 93.214783 156.711427 
" style="fill:none;stroke:#0000ff;stroke-linecap:square;stroke-width:4;"/>
   </g>
   <g id="line2d_63">
    <path clip-path="url(#p4f566ae76b)" d="M 93.214783 156.711427 
L 160.529565 157.956409 
" style="fill:none;stroke:#0000ff;stroke-linecap:square;stroke-width:4;"/>
   </g>
   <g id="line2d_64">
    <path clip-path="url(#p4f566ae76b)" d="M 160.529565 157.956409 
L 251.870034 73.734081 
" style="fill:none;stroke:#0000ff;stroke-linecap:square;stroke-width:4;"/>
   </g>
   <g id="line2d_65">
    <path clip-path="url(#p4f566ae76b)" d="M 39.784034 212.229501 
L 93.214783 156.711427 
L 160.529565 157.956409 
L 251.870034 73.734081 
" style="fill:none;"/>
    <defs>
     <path d="M 0 5 
C 1.326016 5 2.597899 4.473168 3.535534 3.535534 
C 4.473168 2.597899 5 1.326016 5 0 
C 5 -1.326016 4.473168 -2.597899 3.535534 -3.535534 
C 2.597899 -4.473168 1.326016 -5 0 -5 
C -1.326016 -5 -2.597899 -4.473168 -3.535534 -3.535534 
C -4.473168 -2.597899 -5 -1.326016 -5 0 
C -5 1.326016 -4.473168 2.597899 -3.535534 3.535534 
C -2.597899 4.473168 -1.326016 5 0 5 
z
" id="m0b8f8d490a" style="stroke:#0000ff;"/>
    </defs>
    <g clip-path="url(#p4f566ae76b)">
     <use style="fill:#0000ff;stroke:#0000ff;" x="39.784034" xlink:href="#m0b8f8d490a" y="212.229501"/>
     <use style="fill:#0000ff;stroke:#0000ff;" x="93.214783" xlink:href="#m0b8f8d490a" y="156.711427"/>
     <use style="fill:#0000ff;stroke:#0000ff;" x="160.529565" xlink:href="#m0b8f8d490a" y="157.956409"/>
     <use style="fill:#0000ff;stroke:#0000ff;" x="251.870034" xlink:href="#m0b8f8d490a" y="73.734081"/>
    </g>
   </g>
   <g id="line2d_66">
    <path clip-path="url(#p4f566ae76b)" d="M 34.550852 186.270437 
L 38.214079 177.490777 
L 34.550852 172.752101 
L 45.017216 172.752101 
L 41.353988 177.490777 
L 45.017216 186.270437 
L 34.550852 186.270437 
" style="fill:none;stroke:#00bfbf;stroke-linecap:square;"/>
   </g>
   <g id="line2d_67">
    <path clip-path="url(#p4f566ae76b)" d="M 34.550852 186.270437 
L 45.017216 186.270437 
L 45.017216 172.752101 
L 34.550852 172.752101 
L 34.550852 186.270437 
" style="fill:none;"/>
    <defs>
     <path d="M -0 3 
L 3 -3 
L -3 -3 
z
" id="m84ec66e728" style="stroke:#00bfbf;stroke-linejoin:miter;stroke-width:2;"/>
    </defs>
    <g clip-path="url(#p4f566ae76b)">
     <use style="fill:#00bfbf;stroke:#00bfbf;stroke-linejoin:miter;stroke-width:2;" x="34.550852" xlink:href="#m84ec66e728" y="186.270437"/>
     <use style="fill:#00bfbf;stroke:#00bfbf;stroke-linejoin:miter;stroke-width:2;" x="45.017216" xlink:href="#m84ec66e728" y="186.270437"/>
     <use style="fill:#00bfbf;stroke:#00bfbf;stroke-linejoin:miter;stroke-width:2;" x="45.017216" xlink:href="#m84ec66e728" y="172.752101"/>
     <use style="fill:#00bfbf;stroke:#00bfbf;stroke-linejoin:miter;stroke-width:2;" x="34.550852" xlink:href="#m84ec66e728" y="172.752101"/>
     <use style="fill:#00bfbf;stroke:#00bfbf;stroke-linejoin:miter;stroke-width:2;" x="34.550852" xlink:href="#m84ec66e728" y="186.270437"/>
    </g>
   </g>
   <g id="line2d_68">
    <path clip-path="url(#p4f566ae76b)" d="M 34.550852 177.490777 
L 45.017216 177.490777 
" style="fill:none;stroke:#00bfbf;stroke-linecap:square;stroke-width:2;"/>
   </g>
   <g id="line2d_69">
    <path clip-path="url(#p4f566ae76b)" d="M 87.981601 161.739932 
L 91.644828 158.50259 
L 87.981601 155.211583 
L 98.447964 155.211583 
L 94.784737 158.50259 
L 98.447964 161.739932 
L 87.981601 161.739932 
" style="fill:none;stroke:#00bfbf;stroke-linecap:square;"/>
   </g>
   <g id="line2d_70">
    <path clip-path="url(#p4f566ae76b)" d="M 87.981601 161.739932 
L 98.447964 161.739932 
L 98.447964 155.211583 
L 87.981601 155.211583 
L 87.981601 161.739932 
" style="fill:none;"/>
    <g clip-path="url(#p4f566ae76b)">
     <use style="fill:#00bfbf;stroke:#00bfbf;stroke-linejoin:miter;stroke-width:2;" x="87.981601" xlink:href="#m84ec66e728" y="161.739932"/>
     <use style="fill:#00bfbf;stroke:#00bfbf;stroke-linejoin:miter;stroke-width:2;" x="98.447964" xlink:href="#m84ec66e728" y="161.739932"/>
     <use style="fill:#00bfbf;stroke:#00bfbf;stroke-linejoin:miter;stroke-width:2;" x="98.447964" xlink:href="#m84ec66e728" y="155.211583"/>
     <use style="fill:#00bfbf;stroke:#00bfbf;stroke-linejoin:miter;stroke-width:2;" x="87.981601" xlink:href="#m84ec66e728" y="155.211583"/>
     <use style="fill:#00bfbf;stroke:#00bfbf;stroke-linejoin:miter;stroke-width:2;" x="87.981601" xlink:href="#m84ec66e728" y="161.739932"/>
    </g>
   </g>
   <g id="line2d_71">
    <path clip-path="url(#p4f566ae76b)" d="M 87.981601 158.50259 
L 98.447964 158.50259 
" style="fill:none;stroke:#00bfbf;stroke-linecap:square;stroke-width:2;"/>
   </g>
   <g id="line2d_72">
    <path clip-path="url(#p4f566ae76b)" d="M 155.296383 118.227359 
L 158.959611 115.698027 
L 155.296383 102.152418 
L 165.762747 102.152418 
L 162.09952 115.698027 
L 165.762747 118.227359 
L 155.296383 118.227359 
" style="fill:none;stroke:#00bfbf;stroke-linecap:square;"/>
   </g>
   <g id="line2d_73">
    <path clip-path="url(#p4f566ae76b)" d="M 155.296383 118.227359 
L 165.762747 118.227359 
L 165.762747 102.152418 
L 155.296383 102.152418 
L 155.296383 118.227359 
" style="fill:none;"/>
    <g clip-path="url(#p4f566ae76b)">
     <use style="fill:#00bfbf;stroke:#00bfbf;stroke-linejoin:miter;stroke-width:2;" x="155.296383" xlink:href="#m84ec66e728" y="118.227359"/>
     <use style="fill:#00bfbf;stroke:#00bfbf;stroke-linejoin:miter;stroke-width:2;" x="165.762747" xlink:href="#m84ec66e728" y="118.227359"/>
     <use style="fill:#00bfbf;stroke:#00bfbf;stroke-linejoin:miter;stroke-width:2;" x="165.762747" xlink:href="#m84ec66e728" y="102.152418"/>
     <use style="fill:#00bfbf;stroke:#00bfbf;stroke-linejoin:miter;stroke-width:2;" x="155.296383" xlink:href="#m84ec66e728" y="102.152418"/>
     <use style="fill:#00bfbf;stroke:#00bfbf;stroke-linejoin:miter;stroke-width:2;" x="155.296383" xlink:href="#m84ec66e728" y="118.227359"/>
    </g>
   </g>
   <g id="line2d_74">
    <path clip-path="url(#p4f566ae76b)" d="M 155.296383 115.698027 
L 165.762747 115.698027 
" style="fill:none;stroke:#00bfbf;stroke-linecap:square;stroke-width:2;"/>
   </g>
   <g id="line2d_75">
    <path clip-path="url(#p4f566ae76b)" d="M 39.784034 176.538975 
L 93.214783 144.032252 
" style="fill:none;stroke:#00bfbf;stroke-linecap:square;stroke-width:4;"/>
   </g>
   <g id="line2d_76">
    <path clip-path="url(#p4f566ae76b)" d="M 93.214783 144.032252 
L 160.529565 113.85493 
" style="fill:none;stroke:#00bfbf;stroke-linecap:square;stroke-width:4;"/>
   </g>
   <g id="line2d_77">
    <path clip-path="url(#p4f566ae76b)" d="M 39.784034 176.538975 
L 93.214783 144.032252 
L 160.529565 113.85493 
" style="fill:none;"/>
    <defs>
     <path d="M -0 10 
L 10 -10 
L -10 -10 
z
" id="ma94b73add2" style="stroke:#000000;stroke-linejoin:miter;stroke-width:2;"/>
    </defs>
    <g clip-path="url(#p4f566ae76b)">
     <use style="fill:#00bfbf;stroke:#000000;stroke-linejoin:miter;stroke-width:2;" x="39.784034" xlink:href="#ma94b73add2" y="176.538975"/>
     <use style="fill:#00bfbf;stroke:#000000;stroke-linejoin:miter;stroke-width:2;" x="93.214783" xlink:href="#ma94b73add2" y="144.032252"/>
     <use style="fill:#00bfbf;stroke:#000000;stroke-linejoin:miter;stroke-width:2;" x="160.529565" xlink:href="#ma94b73add2" y="113.85493"/>
    </g>
   </g>
   <g id="line2d_78">
    <path clip-path="url(#p4f566ae76b)" d="M 33.504216 161.341681 
L 37.900088 157.647603 
L 33.504216 148.912145 
L 46.063852 148.912145 
L 41.667979 157.647603 
L 46.063852 161.341681 
L 33.504216 161.341681 
" style="fill:none;stroke:#008000;stroke-linecap:square;"/>
   </g>
   <g id="line2d_79">
    <path clip-path="url(#p4f566ae76b)" d="M 33.504216 161.341681 
L 46.063852 161.341681 
L 46.063852 148.912145 
L 33.504216 148.912145 
L 33.504216 161.341681 
" style="fill:none;"/>
    <defs>
     <path d="M 0 1.5 
C 0.397805 1.5 0.77937 1.341951 1.06066 1.06066 
C 1.341951 0.77937 1.5 0.397805 1.5 0 
C 1.5 -0.397805 1.341951 -0.77937 1.06066 -1.06066 
C 0.77937 -1.341951 0.397805 -1.5 0 -1.5 
C -0.397805 -1.5 -0.77937 -1.341951 -1.06066 -1.06066 
C -1.341951 -0.77937 -1.5 -0.397805 -1.5 0 
C -1.5 0.397805 -1.341951 0.77937 -1.06066 1.06066 
C -0.77937 1.341951 -0.397805 1.5 0 1.5 
z
" id="m487d557e48" style="stroke:#008000;"/>
    </defs>
    <g clip-path="url(#p4f566ae76b)">
     <use style="fill:#008000;stroke:#008000;" x="33.504216" xlink:href="#m487d557e48" y="161.341681"/>
     <use style="fill:#008000;stroke:#008000;" x="46.063852" xlink:href="#m487d557e48" y="161.341681"/>
     <use style="fill:#008000;stroke:#008000;" x="46.063852" xlink:href="#m487d557e48" y="148.912145"/>
     <use style="fill:#008000;stroke:#008000;" x="33.504216" xlink:href="#m487d557e48" y="148.912145"/>
     <use style="fill:#008000;stroke:#008000;" x="33.504216" xlink:href="#m487d557e48" y="161.341681"/>
    </g>
   </g>
   <g id="line2d_80">
    <path clip-path="url(#p4f566ae76b)" d="M 33.504216 157.647603 
L 46.063852 157.647603 
" style="fill:none;stroke:#008000;stroke-linecap:square;stroke-width:2;"/>
   </g>
   <g id="line2d_81">
    <path clip-path="url(#p4f566ae76b)" d="M 86.934964 155.501094 
L 91.330837 155.026124 
L 86.934964 134.826106 
L 99.494601 134.826106 
L 95.098728 155.026124 
L 99.494601 155.501094 
L 86.934964 155.501094 
" style="fill:none;stroke:#008000;stroke-linecap:square;"/>
   </g>
   <g id="line2d_82">
    <path clip-path="url(#p4f566ae76b)" d="M 86.934964 155.501094 
L 99.494601 155.501094 
L 99.494601 134.826106 
L 86.934964 134.826106 
L 86.934964 155.501094 
" style="fill:none;"/>
    <g clip-path="url(#p4f566ae76b)">
     <use style="fill:#008000;stroke:#008000;" x="86.934964" xlink:href="#m487d557e48" y="155.501094"/>
     <use style="fill:#008000;stroke:#008000;" x="99.494601" xlink:href="#m487d557e48" y="155.501094"/>
     <use style="fill:#008000;stroke:#008000;" x="99.494601" xlink:href="#m487d557e48" y="134.826106"/>
     <use style="fill:#008000;stroke:#008000;" x="86.934964" xlink:href="#m487d557e48" y="134.826106"/>
     <use style="fill:#008000;stroke:#008000;" x="86.934964" xlink:href="#m487d557e48" y="155.501094"/>
    </g>
   </g>
   <g id="line2d_83">
    <path clip-path="url(#p4f566ae76b)" d="M 86.934964 155.026124 
L 99.494601 155.026124 
" style="fill:none;stroke:#008000;stroke-linecap:square;stroke-width:2;"/>
   </g>
   <g id="line2d_84">
    <path clip-path="url(#p4f566ae76b)" d="M 154.249747 150.401108 
L 158.64562 115.56393 
L 154.249747 114.555841 
L 166.809383 114.555841 
L 162.413511 115.56393 
L 166.809383 150.401108 
L 154.249747 150.401108 
" style="fill:none;stroke:#008000;stroke-linecap:square;"/>
   </g>
   <g id="line2d_85">
    <path clip-path="url(#p4f566ae76b)" d="M 154.249747 150.401108 
L 166.809383 150.401108 
L 166.809383 114.555841 
L 154.249747 114.555841 
L 154.249747 150.401108 
" style="fill:none;"/>
    <g clip-path="url(#p4f566ae76b)">
     <use style="fill:#008000;stroke:#008000;" x="154.249747" xlink:href="#m487d557e48" y="150.401108"/>
     <use style="fill:#008000;stroke:#008000;" x="166.809383" xlink:href="#m487d557e48" y="150.401108"/>
     <use style="fill:#008000;stroke:#008000;" x="166.809383" xlink:href="#m487d557e48" y="114.555841"/>
     <use style="fill:#008000;stroke:#008000;" x="154.249747" xlink:href="#m487d557e48" y="114.555841"/>
     <use style="fill:#008000;stroke:#008000;" x="154.249747" xlink:href="#m487d557e48" y="150.401108"/>
    </g>
   </g>
   <g id="line2d_86">
    <path clip-path="url(#p4f566ae76b)" d="M 154.249747 115.56393 
L 166.809383 115.56393 
" style="fill:none;stroke:#008000;stroke-linecap:square;stroke-width:2;"/>
   </g>
   <g id="line2d_87">
    <path clip-path="url(#p4f566ae76b)" d="M 39.784034 155.621344 
L 93.214783 140.821836 
" style="fill:none;stroke:#008000;stroke-linecap:square;stroke-width:4;"/>
   </g>
   <g id="line2d_88">
    <path clip-path="url(#p4f566ae76b)" d="M 93.214783 140.821836 
L 160.529565 112.38929 
" style="fill:none;stroke:#008000;stroke-linecap:square;stroke-width:4;"/>
   </g>
   <g id="line2d_89">
    <path clip-path="url(#p4f566ae76b)" d="M 39.784034 155.621344 
L 93.214783 140.821836 
L 160.529565 112.38929 
" style="fill:none;"/>
    <defs>
     <path d="M 0 5 
C 1.326016 5 2.597899 4.473168 3.535534 3.535534 
C 4.473168 2.597899 5 1.326016 5 0 
C 5 -1.326016 4.473168 -2.597899 3.535534 -3.535534 
C 2.597899 -4.473168 1.326016 -5 0 -5 
C -1.326016 -5 -2.597899 -4.473168 -3.535534 -3.535534 
C -4.473168 -2.597899 -5 -1.326016 -5 0 
C -5 1.326016 -4.473168 2.597899 -3.535534 3.535534 
C -2.597899 4.473168 -1.326016 5 0 5 
z
" id="m26293082a0" style="stroke:#008000;"/>
    </defs>
    <g clip-path="url(#p4f566ae76b)">
     <use style="fill:#008000;stroke:#008000;" x="39.784034" xlink:href="#m26293082a0" y="155.621344"/>
     <use style="fill:#008000;stroke:#008000;" x="93.214783" xlink:href="#m26293082a0" y="140.821836"/>
     <use style="fill:#008000;stroke:#008000;" x="160.529565" xlink:href="#m26293082a0" y="112.38929"/>
    </g>
   </g>
   <g id="line2d_90">
    <path clip-path="url(#p4f566ae76b)" d="M 32.457579 153.185234 
L 37.586097 148.999823 
L 32.457579 147.387167 
L 47.110488 147.387167 
L 41.98197 148.999823 
L 47.110488 153.185234 
L 32.457579 153.185234 
" style="fill:none;stroke:#bfbf00;stroke-linecap:square;"/>
   </g>
   <g id="line2d_91">
    <path clip-path="url(#p4f566ae76b)" d="M 32.457579 153.185234 
L 47.110488 153.185234 
L 47.110488 147.387167 
L 32.457579 147.387167 
L 32.457579 153.185234 
" style="fill:none;"/>
    <defs>
     <path d="M 0 -3 
L -3 3 
L 3 3 
z
" id="mf405cbe5e8" style="stroke:#bfbf00;stroke-linejoin:miter;stroke-width:2;"/>
    </defs>
    <g clip-path="url(#p4f566ae76b)">
     <use style="fill:#bfbf00;stroke:#bfbf00;stroke-linejoin:miter;stroke-width:2;" x="32.457579" xlink:href="#mf405cbe5e8" y="153.185234"/>
     <use style="fill:#bfbf00;stroke:#bfbf00;stroke-linejoin:miter;stroke-width:2;" x="47.110488" xlink:href="#mf405cbe5e8" y="153.185234"/>
     <use style="fill:#bfbf00;stroke:#bfbf00;stroke-linejoin:miter;stroke-width:2;" x="47.110488" xlink:href="#mf405cbe5e8" y="147.387167"/>
     <use style="fill:#bfbf00;stroke:#bfbf00;stroke-linejoin:miter;stroke-width:2;" x="32.457579" xlink:href="#mf405cbe5e8" y="147.387167"/>
     <use style="fill:#bfbf00;stroke:#bfbf00;stroke-linejoin:miter;stroke-width:2;" x="32.457579" xlink:href="#mf405cbe5e8" y="153.185234"/>
    </g>
   </g>
   <g id="line2d_92">
    <path clip-path="url(#p4f566ae76b)" d="M 32.457579 148.999823 
L 47.110488 148.999823 
" style="fill:none;stroke:#bfbf00;stroke-linecap:square;stroke-width:2;"/>
   </g>
   <g id="line2d_93">
    <path clip-path="url(#p4f566ae76b)" d="M 85.888328 148.750635 
L 91.016846 147.643807 
L 85.888328 146.375958 
L 100.541237 146.375958 
L 95.412719 147.643807 
L 100.541237 148.750635 
L 85.888328 148.750635 
" style="fill:none;stroke:#bfbf00;stroke-linecap:square;"/>
   </g>
   <g id="line2d_94">
    <path clip-path="url(#p4f566ae76b)" d="M 85.888328 148.750635 
L 100.541237 148.750635 
L 100.541237 146.375958 
L 85.888328 146.375958 
L 85.888328 148.750635 
" style="fill:none;"/>
    <g clip-path="url(#p4f566ae76b)">
     <use style="fill:#bfbf00;stroke:#bfbf00;stroke-linejoin:miter;stroke-width:2;" x="85.888328" xlink:href="#mf405cbe5e8" y="148.750635"/>
     <use style="fill:#bfbf00;stroke:#bfbf00;stroke-linejoin:miter;stroke-width:2;" x="100.541237" xlink:href="#mf405cbe5e8" y="148.750635"/>
     <use style="fill:#bfbf00;stroke:#bfbf00;stroke-linejoin:miter;stroke-width:2;" x="100.541237" xlink:href="#mf405cbe5e8" y="146.375958"/>
     <use style="fill:#bfbf00;stroke:#bfbf00;stroke-linejoin:miter;stroke-width:2;" x="85.888328" xlink:href="#mf405cbe5e8" y="146.375958"/>
     <use style="fill:#bfbf00;stroke:#bfbf00;stroke-linejoin:miter;stroke-width:2;" x="85.888328" xlink:href="#mf405cbe5e8" y="148.750635"/>
    </g>
   </g>
   <g id="line2d_95">
    <path clip-path="url(#p4f566ae76b)" d="M 85.888328 147.643807 
L 100.541237 147.643807 
" style="fill:none;stroke:#bfbf00;stroke-linecap:square;stroke-width:2;"/>
   </g>
   <g id="line2d_96">
    <path clip-path="url(#p4f566ae76b)" d="M 153.203111 148.599175 
L 158.331629 125.637196 
L 153.203111 113.700926 
L 167.85602 113.700926 
L 162.727502 125.637196 
L 167.85602 148.599175 
L 153.203111 148.599175 
" style="fill:none;stroke:#bfbf00;stroke-linecap:square;"/>
   </g>
   <g id="line2d_97">
    <path clip-path="url(#p4f566ae76b)" d="M 153.203111 148.599175 
L 167.85602 148.599175 
L 167.85602 113.700926 
L 153.203111 113.700926 
L 153.203111 148.599175 
" style="fill:none;"/>
    <g clip-path="url(#p4f566ae76b)">
     <use style="fill:#bfbf00;stroke:#bfbf00;stroke-linejoin:miter;stroke-width:2;" x="153.203111" xlink:href="#mf405cbe5e8" y="148.599175"/>
     <use style="fill:#bfbf00;stroke:#bfbf00;stroke-linejoin:miter;stroke-width:2;" x="167.85602" xlink:href="#mf405cbe5e8" y="148.599175"/>
     <use style="fill:#bfbf00;stroke:#bfbf00;stroke-linejoin:miter;stroke-width:2;" x="167.85602" xlink:href="#mf405cbe5e8" y="113.700926"/>
     <use style="fill:#bfbf00;stroke:#bfbf00;stroke-linejoin:miter;stroke-width:2;" x="153.203111" xlink:href="#mf405cbe5e8" y="113.700926"/>
     <use style="fill:#bfbf00;stroke:#bfbf00;stroke-linejoin:miter;stroke-width:2;" x="153.203111" xlink:href="#mf405cbe5e8" y="148.599175"/>
    </g>
   </g>
   <g id="line2d_98">
    <path clip-path="url(#p4f566ae76b)" d="M 153.203111 125.637196 
L 167.85602 125.637196 
" style="fill:none;stroke:#bfbf00;stroke-linecap:square;stroke-width:2;"/>
   </g>
   <g id="line2d_99">
    <path clip-path="url(#p4f566ae76b)" d="M 39.784034 151.806349 
L 93.214783 138.31604 
" style="fill:none;stroke:#bfbf00;stroke-linecap:square;stroke-width:4;"/>
   </g>
   <g id="line2d_100">
    <path clip-path="url(#p4f566ae76b)" d="M 93.214783 138.31604 
L 160.529565 111.143277 
" style="fill:none;stroke:#bfbf00;stroke-linecap:square;stroke-width:4;"/>
   </g>
   <g id="line2d_101">
    <path clip-path="url(#p4f566ae76b)" d="M 39.784034 151.806349 
L 93.214783 138.31604 
L 160.529565 111.143277 
" style="fill:none;"/>
    <defs>
     <path d="M 0 -10 
L -10 10 
L 10 10 
z
" id="m1fbb1bfb23" style="stroke:#000000;stroke-linejoin:miter;stroke-width:2;"/>
    </defs>
    <g clip-path="url(#p4f566ae76b)">
     <use style="fill:#bfbf00;stroke:#000000;stroke-linejoin:miter;stroke-width:2;" x="39.784034" xlink:href="#m1fbb1bfb23" y="151.806349"/>
     <use style="fill:#bfbf00;stroke:#000000;stroke-linejoin:miter;stroke-width:2;" x="93.214783" xlink:href="#m1fbb1bfb23" y="138.31604"/>
     <use style="fill:#bfbf00;stroke:#000000;stroke-linejoin:miter;stroke-width:2;" x="160.529565" xlink:href="#m1fbb1bfb23" y="111.143277"/>
    </g>
   </g>
   <g id="line2d_102">
    <path clip-path="url(#p4f566ae76b)" d="M 31.410943 165.116107 
L 37.272107 150.376266 
L 31.410943 147.387167 
L 48.157125 147.387167 
L 42.295961 150.376266 
L 48.157125 165.116107 
L 31.410943 165.116107 
" style="fill:none;stroke:#bf00bf;stroke-linecap:square;"/>
   </g>
   <g id="line2d_103">
    <path clip-path="url(#p4f566ae76b)" d="M 31.410943 165.116107 
L 48.157125 165.116107 
L 48.157125 147.387167 
L 31.410943 147.387167 
L 31.410943 165.116107 
" style="fill:none;"/>
    <defs>
     <path d="M 0 1.5 
C 0.397805 1.5 0.77937 1.341951 1.06066 1.06066 
C 1.341951 0.77937 1.5 0.397805 1.5 0 
C 1.5 -0.397805 1.341951 -0.77937 1.06066 -1.06066 
C 0.77937 -1.341951 0.397805 -1.5 0 -1.5 
C -0.397805 -1.5 -0.77937 -1.341951 -1.06066 -1.06066 
C -1.341951 -0.77937 -1.5 -0.397805 -1.5 0 
C -1.5 0.397805 -1.341951 0.77937 -1.06066 1.06066 
C -0.77937 1.341951 -0.397805 1.5 0 1.5 
z
" id="madb860d087" style="stroke:#bf00bf;"/>
    </defs>
    <g clip-path="url(#p4f566ae76b)">
     <use style="fill:#bf00bf;stroke:#bf00bf;" x="31.410943" xlink:href="#madb860d087" y="165.116107"/>
     <use style="fill:#bf00bf;stroke:#bf00bf;" x="48.157125" xlink:href="#madb860d087" y="165.116107"/>
     <use style="fill:#bf00bf;stroke:#bf00bf;" x="48.157125" xlink:href="#madb860d087" y="147.387167"/>
     <use style="fill:#bf00bf;stroke:#bf00bf;" x="31.410943" xlink:href="#madb860d087" y="147.387167"/>
     <use style="fill:#bf00bf;stroke:#bf00bf;" x="31.410943" xlink:href="#madb860d087" y="165.116107"/>
    </g>
   </g>
   <g id="line2d_104">
    <path clip-path="url(#p4f566ae76b)" d="M 31.410943 150.376266 
L 48.157125 150.376266 
" style="fill:none;stroke:#bf00bf;stroke-linecap:square;stroke-width:2;"/>
   </g>
   <g id="line2d_105">
    <path clip-path="url(#p4f566ae76b)" d="M 84.841692 153.991114 
L 90.702855 153.325466 
L 84.841692 152.226246 
L 101.587873 152.226246 
L 95.72671 153.325466 
L 101.587873 153.991114 
L 84.841692 153.991114 
" style="fill:none;stroke:#bf00bf;stroke-linecap:square;"/>
   </g>
   <g id="line2d_106">
    <path clip-path="url(#p4f566ae76b)" d="M 84.841692 153.991114 
L 101.587873 153.991114 
L 101.587873 152.226246 
L 84.841692 152.226246 
L 84.841692 153.991114 
" style="fill:none;"/>
    <g clip-path="url(#p4f566ae76b)">
     <use style="fill:#bf00bf;stroke:#bf00bf;" x="84.841692" xlink:href="#madb860d087" y="153.991114"/>
     <use style="fill:#bf00bf;stroke:#bf00bf;" x="101.587873" xlink:href="#madb860d087" y="153.991114"/>
     <use style="fill:#bf00bf;stroke:#bf00bf;" x="101.587873" xlink:href="#madb860d087" y="152.226246"/>
     <use style="fill:#bf00bf;stroke:#bf00bf;" x="84.841692" xlink:href="#madb860d087" y="152.226246"/>
     <use style="fill:#bf00bf;stroke:#bf00bf;" x="84.841692" xlink:href="#madb860d087" y="153.991114"/>
    </g>
   </g>
   <g id="line2d_107">
    <path clip-path="url(#p4f566ae76b)" d="M 84.841692 153.325466 
L 101.587873 153.325466 
" style="fill:none;stroke:#bf00bf;stroke-linecap:square;stroke-width:2;"/>
   </g>
   <g id="line2d_108">
    <path clip-path="url(#p4f566ae76b)" d="M 152.156474 148.514881 
L 158.017638 106.671523 
L 152.156474 100.486804 
L 168.902656 100.486804 
L 163.041493 106.671523 
L 168.902656 148.514881 
L 152.156474 148.514881 
" style="fill:none;stroke:#bf00bf;stroke-linecap:square;"/>
   </g>
   <g id="line2d_109">
    <path clip-path="url(#p4f566ae76b)" d="M 152.156474 148.514881 
L 168.902656 148.514881 
L 168.902656 100.486804 
L 152.156474 100.486804 
L 152.156474 148.514881 
" style="fill:none;"/>
    <g clip-path="url(#p4f566ae76b)">
     <use style="fill:#bf00bf;stroke:#bf00bf;" x="152.156474" xlink:href="#madb860d087" y="148.514881"/>
     <use style="fill:#bf00bf;stroke:#bf00bf;" x="168.902656" xlink:href="#madb860d087" y="148.514881"/>
     <use style="fill:#bf00bf;stroke:#bf00bf;" x="168.902656" xlink:href="#madb860d087" y="100.486804"/>
     <use style="fill:#bf00bf;stroke:#bf00bf;" x="152.156474" xlink:href="#madb860d087" y="100.486804"/>
     <use style="fill:#bf00bf;stroke:#bf00bf;" x="152.156474" xlink:href="#madb860d087" y="148.514881"/>
    </g>
   </g>
   <g id="line2d_110">
    <path clip-path="url(#p4f566ae76b)" d="M 152.156474 106.671523 
L 168.902656 106.671523 
" style="fill:none;stroke:#bf00bf;stroke-linecap:square;stroke-width:2;"/>
   </g>
   <g id="line2d_111">
    <path clip-path="url(#p4f566ae76b)" d="M 39.784034 151.806349 
L 93.214783 138.31604 
" style="fill:none;stroke:#bf00bf;stroke-linecap:square;stroke-width:4;"/>
   </g>
   <g id="line2d_112">
    <path clip-path="url(#p4f566ae76b)" d="M 93.214783 138.31604 
L 160.529565 111.143277 
" style="fill:none;stroke:#bf00bf;stroke-linecap:square;stroke-width:4;"/>
   </g>
   <g id="line2d_113">
    <path clip-path="url(#p4f566ae76b)" d="M 39.784034 151.806349 
L 93.214783 138.31604 
L 160.529565 111.143277 
" style="fill:none;"/>
    <defs>
     <path d="M 0 5 
C 1.326016 5 2.597899 4.473168 3.535534 3.535534 
C 4.473168 2.597899 5 1.326016 5 0 
C 5 -1.326016 4.473168 -2.597899 3.535534 -3.535534 
C 2.597899 -4.473168 1.326016 -5 0 -5 
C -1.326016 -5 -2.597899 -4.473168 -3.535534 -3.535534 
C -4.473168 -2.597899 -5 -1.326016 -5 0 
C -5 1.326016 -4.473168 2.597899 -3.535534 3.535534 
C -2.597899 4.473168 -1.326016 5 0 5 
z
" id="m31898980b0" style="stroke:#bf00bf;"/>
    </defs>
    <g clip-path="url(#p4f566ae76b)">
     <use style="fill:#bf00bf;stroke:#bf00bf;" x="39.784034" xlink:href="#m31898980b0" y="151.806349"/>
     <use style="fill:#bf00bf;stroke:#bf00bf;" x="93.214783" xlink:href="#m31898980b0" y="138.31604"/>
     <use style="fill:#bf00bf;stroke:#bf00bf;" x="160.529565" xlink:href="#m31898980b0" y="111.143277"/>
    </g>
   </g>
   <g id="line2d_114">
    <path clip-path="url(#p4f566ae76b)" d="M 30.364307 138.063089 
L 36.958116 137.612768 
L 30.364307 135.382617 
L 49.203761 135.382617 
L 42.609952 137.612768 
L 49.203761 138.063089 
L 30.364307 138.063089 
" style="fill:none;stroke:#ff0000;stroke-linecap:square;"/>
   </g>
   <g id="line2d_115">
    <path clip-path="url(#p4f566ae76b)" d="M 30.364307 138.063089 
L 49.203761 138.063089 
L 49.203761 135.382617 
L 30.364307 135.382617 
L 30.364307 138.063089 
" style="fill:none;"/>
    <defs>
     <path d="M 0 3 
C 0.795609 3 1.55874 2.683901 2.12132 2.12132 
C 2.683901 1.55874 3 0.795609 3 0 
C 3 -0.795609 2.683901 -1.55874 2.12132 -2.12132 
C 1.55874 -2.683901 0.795609 -3 0 -3 
C -0.795609 -3 -1.55874 -2.683901 -2.12132 -2.12132 
C -2.683901 -1.55874 -3 -0.795609 -3 0 
C -3 0.795609 -2.683901 1.55874 -2.12132 2.12132 
C -1.55874 2.683901 -0.795609 3 0 3 
z
" id="mc2b466c52d" style="stroke:#ff0000;stroke-width:2;"/>
    </defs>
    <g clip-path="url(#p4f566ae76b)">
     <use style="fill:#ff0000;stroke:#ff0000;stroke-width:2;" x="30.364307" xlink:href="#mc2b466c52d" y="138.063089"/>
     <use style="fill:#ff0000;stroke:#ff0000;stroke-width:2;" x="49.203761" xlink:href="#mc2b466c52d" y="138.063089"/>
     <use style="fill:#ff0000;stroke:#ff0000;stroke-width:2;" x="49.203761" xlink:href="#mc2b466c52d" y="135.382617"/>
     <use style="fill:#ff0000;stroke:#ff0000;stroke-width:2;" x="30.364307" xlink:href="#mc2b466c52d" y="135.382617"/>
     <use style="fill:#ff0000;stroke:#ff0000;stroke-width:2;" x="30.364307" xlink:href="#mc2b466c52d" y="138.063089"/>
    </g>
   </g>
   <g id="line2d_116">
    <path clip-path="url(#p4f566ae76b)" d="M 30.364307 137.612768 
L 49.203761 137.612768 
" style="fill:none;stroke:#ff0000;stroke-linecap:square;stroke-width:2;"/>
   </g>
   <g id="line2d_117">
    <path clip-path="url(#p4f566ae76b)" d="M 83.795055 144.144001 
L 90.388864 138.727684 
L 83.795055 103.655424 
L 102.63451 103.655424 
L 96.040701 138.727684 
L 102.63451 144.144001 
L 83.795055 144.144001 
" style="fill:none;stroke:#ff0000;stroke-linecap:square;"/>
   </g>
   <g id="line2d_118">
    <path clip-path="url(#p4f566ae76b)" d="M 83.795055 144.144001 
L 102.63451 144.144001 
L 102.63451 103.655424 
L 83.795055 103.655424 
L 83.795055 144.144001 
" style="fill:none;"/>
    <g clip-path="url(#p4f566ae76b)">
     <use style="fill:#ff0000;stroke:#ff0000;stroke-width:2;" x="83.795055" xlink:href="#mc2b466c52d" y="144.144001"/>
     <use style="fill:#ff0000;stroke:#ff0000;stroke-width:2;" x="102.63451" xlink:href="#mc2b466c52d" y="144.144001"/>
     <use style="fill:#ff0000;stroke:#ff0000;stroke-width:2;" x="102.63451" xlink:href="#mc2b466c52d" y="103.655424"/>
     <use style="fill:#ff0000;stroke:#ff0000;stroke-width:2;" x="83.795055" xlink:href="#mc2b466c52d" y="103.655424"/>
     <use style="fill:#ff0000;stroke:#ff0000;stroke-width:2;" x="83.795055" xlink:href="#mc2b466c52d" y="144.144001"/>
    </g>
   </g>
   <g id="line2d_119">
    <path clip-path="url(#p4f566ae76b)" d="M 83.795055 138.727684 
L 102.63451 138.727684 
" style="fill:none;stroke:#ff0000;stroke-linecap:square;stroke-width:2;"/>
   </g>
   <g id="line2d_120">
    <path clip-path="url(#p4f566ae76b)" d="M 151.109838 145.814378 
L 157.703647 114.234526 
L 151.109838 112.214872 
L 169.949292 112.214872 
L 163.355483 114.234526 
L 169.949292 145.814378 
L 151.109838 145.814378 
" style="fill:none;stroke:#ff0000;stroke-linecap:square;"/>
   </g>
   <g id="line2d_121">
    <path clip-path="url(#p4f566ae76b)" d="M 151.109838 145.814378 
L 169.949292 145.814378 
L 169.949292 112.214872 
L 151.109838 112.214872 
L 151.109838 145.814378 
" style="fill:none;"/>
    <g clip-path="url(#p4f566ae76b)">
     <use style="fill:#ff0000;stroke:#ff0000;stroke-width:2;" x="151.109838" xlink:href="#mc2b466c52d" y="145.814378"/>
     <use style="fill:#ff0000;stroke:#ff0000;stroke-width:2;" x="169.949292" xlink:href="#mc2b466c52d" y="145.814378"/>
     <use style="fill:#ff0000;stroke:#ff0000;stroke-width:2;" x="169.949292" xlink:href="#mc2b466c52d" y="112.214872"/>
     <use style="fill:#ff0000;stroke:#ff0000;stroke-width:2;" x="151.109838" xlink:href="#mc2b466c52d" y="112.214872"/>
     <use style="fill:#ff0000;stroke:#ff0000;stroke-width:2;" x="151.109838" xlink:href="#mc2b466c52d" y="145.814378"/>
    </g>
   </g>
   <g id="line2d_122">
    <path clip-path="url(#p4f566ae76b)" d="M 151.109838 114.234526 
L 169.949292 114.234526 
" style="fill:none;stroke:#ff0000;stroke-linecap:square;stroke-width:2;"/>
   </g>
   <g id="line2d_123">
    <path clip-path="url(#p4f566ae76b)" d="M 39.784034 138.293577 
L 93.214783 133.391929 
" style="fill:none;stroke:#ff0000;stroke-linecap:square;stroke-width:4;"/>
   </g>
   <g id="line2d_124">
    <path clip-path="url(#p4f566ae76b)" d="M 93.214783 133.391929 
L 160.529565 110.46697 
" style="fill:none;stroke:#ff0000;stroke-linecap:square;stroke-width:4;"/>
   </g>
   <g id="line2d_125">
    <path clip-path="url(#p4f566ae76b)" d="M 39.784034 138.293577 
L 93.214783 133.391929 
L 160.529565 110.46697 
" style="fill:none;"/>
    <defs>
     <path d="M 0 10 
C 2.652031 10 5.195799 8.946337 7.071068 7.071068 
C 8.946337 5.195799 10 2.652031 10 0 
C 10 -2.652031 8.946337 -5.195799 7.071068 -7.071068 
C 5.195799 -8.946337 2.652031 -10 0 -10 
C -2.652031 -10 -5.195799 -8.946337 -7.071068 -7.071068 
C -8.946337 -5.195799 -10 -2.652031 -10 0 
C -10 2.652031 -8.946337 5.195799 -7.071068 7.071068 
C -5.195799 8.946337 -2.652031 10 0 10 
z
" id="m66a3acefee" style="stroke:#000000;stroke-width:2;"/>
    </defs>
    <g clip-path="url(#p4f566ae76b)">
     <use style="fill:#ff0000;stroke:#000000;stroke-width:2;" x="39.784034" xlink:href="#m66a3acefee" y="138.293577"/>
     <use style="fill:#ff0000;stroke:#000000;stroke-width:2;" x="93.214783" xlink:href="#m66a3acefee" y="133.391929"/>
     <use style="fill:#ff0000;stroke:#000000;stroke-width:2;" x="160.529565" xlink:href="#m66a3acefee" y="110.46697"/>
    </g>
   </g>
   <g id="line2d_126"/>
   <g id="line2d_127"/>
   <g id="line2d_128"/>
   <g id="line2d_129"/>
   <g id="line2d_130"/>
   <g id="line2d_131"/>
   <g id="line2d_132"/>
   <g id="line2d_133">
    <defs>
     <path d="M -10 10 
L 10 -10 
M -10 -10 
L 10 10 
" id="m85d8a48b57" style="stroke:#ff0000;"/>
    </defs>
    <g clip-path="url(#p4f566ae76b)">
     <use style="fill:#ff0000;stroke:#ff0000;" x="39.784034" xlink:href="#m85d8a48b57" y="131.562218"/>
     <use style="fill:#ff0000;stroke:#ff0000;" x="93.214783" xlink:href="#m85d8a48b57" y="108.44932"/>
     <use style="fill:#ff0000;stroke:#ff0000;" x="160.529565" xlink:href="#m85d8a48b57" y="120.519598"/>
     <use style="fill:#ff0000;stroke:#ff0000;" x="251.870034" xlink:href="#m85d8a48b57" y="136.897944"/>
     <use style="fill:#ff0000;stroke:#ff0000;" x="343.210502" xlink:href="#m85d8a48b57" y="153.27629"/>
     <use style="fill:#ff0000;stroke:#ff0000;" x="434.550971" xlink:href="#m85d8a48b57" y="169.654636"/>
    </g>
   </g>
   <g id="line2d_134">
    <path clip-path="url(#p4f566ae76b)" d="M 85.325872 346.6 
L 461.8 279.094067 
" style="fill:none;stroke:#000000;stroke-dasharray:0.5,0.825;stroke-dashoffset:0;stroke-width:0.5;"/>
   </g>
   <g id="line2d_135">
    <path clip-path="url(#p4f566ae76b)" d="M -1 307.671486 
L 461.8 224.686379 
" style="fill:none;stroke:#000000;stroke-dasharray:0.5,0.825;stroke-dashoffset:0;stroke-width:0.5;"/>
   </g>
   <g id="line2d_136">
    <path clip-path="url(#p4f566ae76b)" d="M -1 253.263798 
L 461.8 170.278692 
" style="fill:none;stroke:#000000;stroke-dasharray:0.5,0.825;stroke-dashoffset:0;stroke-width:0.5;"/>
   </g>
   <g id="line2d_137">
    <path clip-path="url(#p4f566ae76b)" d="M -1 198.856111 
L 461.8 115.871004 
" style="fill:none;stroke:#000000;stroke-dasharray:0.5,0.825;stroke-dashoffset:0;stroke-width:0.5;"/>
   </g>
   <g id="line2d_138">
    <path clip-path="url(#p4f566ae76b)" d="M -1 144.448423 
L 461.8 61.463316 
" style="fill:none;stroke:#000000;stroke-dasharray:0.5,0.825;stroke-dashoffset:0;stroke-width:0.5;"/>
   </g>
   <g id="line2d_139">
    <path clip-path="url(#p4f566ae76b)" d="M -1 90.040735 
L 461.8 7.055628 
" style="fill:none;stroke:#000000;stroke-dasharray:0.5,0.825;stroke-dashoffset:0;stroke-width:0.5;"/>
   </g>
   <g id="line2d_140">
    <path clip-path="url(#p4f566ae76b)" d="M -1 35.633047 
L 203.299 -1 
" style="fill:none;stroke:#000000;stroke-dasharray:0.5,0.825;stroke-dashoffset:0;stroke-width:0.5;"/>
   </g>
   <g id="line2d_141">
    <path clip-path="url(#p4f566ae76b)" style="fill:none;stroke:#000000;stroke-dasharray:0.5,0.825;stroke-dashoffset:0;stroke-width:0.5;"/>
   </g>
   <g id="line2d_142">
    <path clip-path="url(#p4f566ae76b)" style="fill:none;stroke:#000000;stroke-dasharray:0.5,0.825;stroke-dashoffset:0;stroke-width:0.5;"/>
   </g>
   <g id="patch_3">
    <path d="M 25.9 311.24 
L 25.9 28.32 
" style="fill:none;stroke:#000000;stroke-linecap:square;stroke-linejoin:miter;stroke-width:0.8;"/>
   </g>
   <g id="patch_4">
    <path d="M 450.072 311.24 
L 450.072 28.32 
" style="fill:none;stroke:#000000;stroke-linecap:square;stroke-linejoin:miter;stroke-width:0.8;"/>
   </g>
   <g id="patch_5">
    <path d="M 25.9 311.24 
L 450.072 311.24 
" style="fill:none;stroke:#000000;stroke-linecap:square;stroke-linejoin:miter;stroke-width:0.8;"/>
   </g>
   <g id="patch_6">
    <path d="M 25.9 28.32 
L 450.072 28.32 
" style="fill:none;stroke:#000000;stroke-linecap:square;stroke-linejoin:miter;stroke-width:0.8;"/>
   </g>
   <g id="text_13">
    <!-- 1 -->
    <g transform="translate(245.380284 59.9108)scale(0.204 -0.204)">
     <use xlink:href="#DejaVuSans-31"/>
    </g>
   </g>
   <g id="text_14">
    <!-- 14 -->
    <g transform="translate(80.235283 119.568648)scale(0.204 -0.204)">
     <use xlink:href="#DejaVuSans-31"/>
     <use x="63.623047" xlink:href="#DejaVuSans-34"/>
    </g>
   </g>
   <g id="text_15">
    <!-- 7 -->
    <defs>
     <path d="M 8.203125 72.90625 
L 55.078125 72.90625 
L 55.078125 68.703125 
L 28.609375 0 
L 18.3125 0 
L 43.21875 64.59375 
L 8.203125 64.59375 
z
" id="DejaVuSans-37"/>
    </defs>
    <g transform="translate(154.039815 96.643689)scale(0.204 -0.204)">
     <use xlink:href="#DejaVuSans-37"/>
    </g>
   </g>
   <g id="text_16">
    <!-- 15 instances -->
    <defs>
     <path id="DejaVuSans-20"/>
     <path d="M 9.421875 54.6875 
L 18.40625 54.6875 
L 18.40625 0 
L 9.421875 0 
z
M 9.421875 75.984375 
L 18.40625 75.984375 
L 18.40625 64.59375 
L 9.421875 64.59375 
z
" id="DejaVuSans-69"/>
     <path d="M 54.890625 33.015625 
L 54.890625 0 
L 45.90625 0 
L 45.90625 32.71875 
Q 45.90625 40.484375 42.875 44.328125 
Q 39.84375 48.1875 33.796875 48.1875 
Q 26.515625 48.1875 22.3125 43.546875 
Q 18.109375 38.921875 18.109375 30.90625 
L 18.109375 0 
L 9.078125 0 
L 9.078125 54.6875 
L 18.109375 54.6875 
L 18.109375 46.1875 
Q 21.34375 51.125 25.703125 53.5625 
Q 30.078125 56 35.796875 56 
Q 45.21875 56 50.046875 50.171875 
Q 54.890625 44.34375 54.890625 33.015625 
z
" id="DejaVuSans-6e"/>
     <path d="M 44.28125 53.078125 
L 44.28125 44.578125 
Q 40.484375 46.53125 36.375 47.5 
Q 32.28125 48.484375 27.875 48.484375 
Q 21.1875 48.484375 17.84375 46.4375 
Q 14.5 44.390625 14.5 40.28125 
Q 14.5 37.15625 16.890625 35.375 
Q 19.28125 33.59375 26.515625 31.984375 
L 29.59375 31.296875 
Q 39.15625 29.25 43.1875 25.515625 
Q 47.21875 21.78125 47.21875 15.09375 
Q 47.21875 7.46875 41.1875 3.015625 
Q 35.15625 -1.421875 24.609375 -1.421875 
Q 20.21875 -1.421875 15.453125 -0.5625 
Q 10.6875 0.296875 5.421875 2 
L 5.421875 11.28125 
Q 10.40625 8.6875 15.234375 7.390625 
Q 20.0625 6.109375 24.8125 6.109375 
Q 31.15625 6.109375 34.5625 8.28125 
Q 37.984375 10.453125 37.984375 14.40625 
Q 37.984375 18.0625 35.515625 20.015625 
Q 33.0625 21.96875 24.703125 23.78125 
L 21.578125 24.515625 
Q 13.234375 26.265625 9.515625 29.90625 
Q 5.8125 33.546875 5.8125 39.890625 
Q 5.8125 47.609375 11.28125 51.796875 
Q 16.75 56 26.8125 56 
Q 31.78125 56 36.171875 55.265625 
Q 40.578125 54.546875 44.28125 53.078125 
z
" id="DejaVuSans-73"/>
     <path d="M 18.3125 70.21875 
L 18.3125 54.6875 
L 36.8125 54.6875 
L 36.8125 47.703125 
L 18.3125 47.703125 
L 18.3125 18.015625 
Q 18.3125 11.328125 20.140625 9.421875 
Q 21.96875 7.515625 27.59375 7.515625 
L 36.8125 7.515625 
L 36.8125 0 
L 27.59375 0 
Q 17.1875 0 13.234375 3.875 
Q 9.28125 7.765625 9.28125 18.015625 
L 9.28125 47.703125 
L 2.6875 47.703125 
L 2.6875 54.6875 
L 9.28125 54.6875 
L 9.28125 70.21875 
z
" id="DejaVuSans-74"/>
     <path d="M 34.28125 27.484375 
Q 23.390625 27.484375 19.1875 25 
Q 14.984375 22.515625 14.984375 16.5 
Q 14.984375 11.71875 18.140625 8.90625 
Q 21.296875 6.109375 26.703125 6.109375 
Q 34.1875 6.109375 38.703125 11.40625 
Q 43.21875 16.703125 43.21875 25.484375 
L 43.21875 27.484375 
z
M 52.203125 31.203125 
L 52.203125 0 
L 43.21875 0 
L 43.21875 8.296875 
Q 40.140625 3.328125 35.546875 0.953125 
Q 30.953125 -1.421875 24.3125 -1.421875 
Q 15.921875 -1.421875 10.953125 3.296875 
Q 6 8.015625 6 15.921875 
Q 6 25.140625 12.171875 29.828125 
Q 18.359375 34.515625 30.609375 34.515625 
L 43.21875 34.515625 
L 43.21875 35.40625 
Q 43.21875 41.609375 39.140625 45 
Q 35.0625 48.390625 27.6875 48.390625 
Q 23 48.390625 18.546875 47.265625 
Q 14.109375 46.140625 10.015625 43.890625 
L 10.015625 52.203125 
Q 14.9375 54.109375 19.578125 55.046875 
Q 24.21875 56 28.609375 56 
Q 40.484375 56 46.34375 49.84375 
Q 52.203125 43.703125 52.203125 31.203125 
z
" id="DejaVuSans-61"/>
     <path d="M 48.78125 52.59375 
L 48.78125 44.1875 
Q 44.96875 46.296875 41.140625 47.34375 
Q 37.3125 48.390625 33.40625 48.390625 
Q 24.65625 48.390625 19.8125 42.84375 
Q 14.984375 37.3125 14.984375 27.296875 
Q 14.984375 17.28125 19.8125 11.734375 
Q 24.65625 6.203125 33.40625 6.203125 
Q 37.3125 6.203125 41.140625 7.25 
Q 44.96875 8.296875 48.78125 10.40625 
L 48.78125 2.09375 
Q 45.015625 0.34375 40.984375 -0.53125 
Q 36.96875 -1.421875 32.421875 -1.421875 
Q 20.0625 -1.421875 12.78125 6.34375 
Q 5.515625 14.109375 5.515625 27.296875 
Q 5.515625 40.671875 12.859375 48.328125 
Q 20.21875 56 33.015625 56 
Q 37.15625 56 41.109375 55.140625 
Q 45.0625 54.296875 48.78125 52.59375 
z
" id="DejaVuSans-63"/>
     <path d="M 56.203125 29.59375 
L 56.203125 25.203125 
L 14.890625 25.203125 
Q 15.484375 15.921875 20.484375 11.0625 
Q 25.484375 6.203125 34.421875 6.203125 
Q 39.59375 6.203125 44.453125 7.46875 
Q 49.3125 8.734375 54.109375 11.28125 
L 54.109375 2.78125 
Q 49.265625 0.734375 44.1875 -0.34375 
Q 39.109375 -1.421875 33.890625 -1.421875 
Q 20.796875 -1.421875 13.15625 6.1875 
Q 5.515625 13.8125 5.515625 26.8125 
Q 5.515625 40.234375 12.765625 48.109375 
Q 20.015625 56 32.328125 56 
Q 43.359375 56 49.78125 48.890625 
Q 56.203125 41.796875 56.203125 29.59375 
z
M 47.21875 32.234375 
Q 47.125 39.59375 43.09375 43.984375 
Q 39.0625 48.390625 32.421875 48.390625 
Q 24.90625 48.390625 20.390625 44.140625 
Q 15.875 39.890625 15.1875 32.171875 
z
" id="DejaVuSans-65"/>
    </defs>
    <g transform="translate(25.9 292.6515)scale(0.14 -0.14)">
     <use xlink:href="#DejaVuSans-31"/>
     <use x="63.623047" xlink:href="#DejaVuSans-35"/>
     <use x="127.246094" xlink:href="#DejaVuSans-20"/>
     <use x="159.033203" xlink:href="#DejaVuSans-69"/>
     <use x="186.816406" xlink:href="#DejaVuSans-6e"/>
     <use x="250.195312" xlink:href="#DejaVuSans-73"/>
     <use x="302.294922" xlink:href="#DejaVuSans-74"/>
     <use x="341.503906" xlink:href="#DejaVuSans-61"/>
     <use x="402.783203" xlink:href="#DejaVuSans-6e"/>
     <use x="466.162109" xlink:href="#DejaVuSans-63"/>
     <use x="521.142578" xlink:href="#DejaVuSans-65"/>
     <use x="582.666016" xlink:href="#DejaVuSans-73"/>
    </g>
    <!-- absolute targets -->
    <defs>
     <path d="M 48.6875 27.296875 
Q 48.6875 37.203125 44.609375 42.84375 
Q 40.53125 48.484375 33.40625 48.484375 
Q 26.265625 48.484375 22.1875 42.84375 
Q 18.109375 37.203125 18.109375 27.296875 
Q 18.109375 17.390625 22.1875 11.75 
Q 26.265625 6.109375 33.40625 6.109375 
Q 40.53125 6.109375 44.609375 11.75 
Q 48.6875 17.390625 48.6875 27.296875 
z
M 18.109375 46.390625 
Q 20.953125 51.265625 25.265625 53.625 
Q 29.59375 56 35.59375 56 
Q 45.5625 56 51.78125 48.09375 
Q 58.015625 40.1875 58.015625 27.296875 
Q 58.015625 14.40625 51.78125 6.484375 
Q 45.5625 -1.421875 35.59375 -1.421875 
Q 29.59375 -1.421875 25.265625 0.953125 
Q 20.953125 3.328125 18.109375 8.203125 
L 18.109375 0 
L 9.078125 0 
L 9.078125 75.984375 
L 18.109375 75.984375 
z
" id="DejaVuSans-62"/>
     <path d="M 30.609375 48.390625 
Q 23.390625 48.390625 19.1875 42.75 
Q 14.984375 37.109375 14.984375 27.296875 
Q 14.984375 17.484375 19.15625 11.84375 
Q 23.34375 6.203125 30.609375 6.203125 
Q 37.796875 6.203125 41.984375 11.859375 
Q 46.1875 17.53125 46.1875 27.296875 
Q 46.1875 37.015625 41.984375 42.703125 
Q 37.796875 48.390625 30.609375 48.390625 
z
M 30.609375 56 
Q 42.328125 56 49.015625 48.375 
Q 55.71875 40.765625 55.71875 27.296875 
Q 55.71875 13.875 49.015625 6.21875 
Q 42.328125 -1.421875 30.609375 -1.421875 
Q 18.84375 -1.421875 12.171875 6.21875 
Q 5.515625 13.875 5.515625 27.296875 
Q 5.515625 40.765625 12.171875 48.375 
Q 18.84375 56 30.609375 56 
z
" id="DejaVuSans-6f"/>
     <path d="M 9.421875 75.984375 
L 18.40625 75.984375 
L 18.40625 0 
L 9.421875 0 
z
" id="DejaVuSans-6c"/>
     <path d="M 8.5 21.578125 
L 8.5 54.6875 
L 17.484375 54.6875 
L 17.484375 21.921875 
Q 17.484375 14.15625 20.5 10.265625 
Q 23.53125 6.390625 29.59375 6.390625 
Q 36.859375 6.390625 41.078125 11.03125 
Q 45.3125 15.671875 45.3125 23.6875 
L 45.3125 54.6875 
L 54.296875 54.6875 
L 54.296875 0 
L 45.3125 0 
L 45.3125 8.40625 
Q 42.046875 3.421875 37.71875 1 
Q 33.40625 -1.421875 27.6875 -1.421875 
Q 18.265625 -1.421875 13.375 4.4375 
Q 8.5 10.296875 8.5 21.578125 
z
M 31.109375 56 
z
" id="DejaVuSans-75"/>
     <path d="M 41.109375 46.296875 
Q 39.59375 47.171875 37.8125 47.578125 
Q 36.03125 48 33.890625 48 
Q 26.265625 48 22.1875 43.046875 
Q 18.109375 38.09375 18.109375 28.8125 
L 18.109375 0 
L 9.078125 0 
L 9.078125 54.6875 
L 18.109375 54.6875 
L 18.109375 46.1875 
Q 20.953125 51.171875 25.484375 53.578125 
Q 30.03125 56 36.53125 56 
Q 37.453125 56 38.578125 55.875 
Q 39.703125 55.765625 41.0625 55.515625 
z
" id="DejaVuSans-72"/>
     <path d="M 45.40625 27.984375 
Q 45.40625 37.75 41.375 43.109375 
Q 37.359375 48.484375 30.078125 48.484375 
Q 22.859375 48.484375 18.828125 43.109375 
Q 14.796875 37.75 14.796875 27.984375 
Q 14.796875 18.265625 18.828125 12.890625 
Q 22.859375 7.515625 30.078125 7.515625 
Q 37.359375 7.515625 41.375 12.890625 
Q 45.40625 18.265625 45.40625 27.984375 
z
M 54.390625 6.78125 
Q 54.390625 -7.171875 48.1875 -13.984375 
Q 42 -20.796875 29.203125 -20.796875 
Q 24.46875 -20.796875 20.265625 -20.09375 
Q 16.0625 -19.390625 12.109375 -17.921875 
L 12.109375 -9.1875 
Q 16.0625 -11.328125 19.921875 -12.34375 
Q 23.78125 -13.375 27.78125 -13.375 
Q 36.625 -13.375 41.015625 -8.765625 
Q 45.40625 -4.15625 45.40625 5.171875 
L 45.40625 9.625 
Q 42.625 4.78125 38.28125 2.390625 
Q 33.9375 0 27.875 0 
Q 17.828125 0 11.671875 7.65625 
Q 5.515625 15.328125 5.515625 27.984375 
Q 5.515625 40.671875 11.671875 48.328125 
Q 17.828125 56 27.875 56 
Q 33.9375 56 38.28125 53.609375 
Q 42.625 51.21875 45.40625 46.390625 
L 45.40625 54.6875 
L 54.390625 54.6875 
z
" id="DejaVuSans-67"/>
    </defs>
    <g transform="translate(25.9 308.328437)scale(0.14 -0.14)">
     <use xlink:href="#DejaVuSans-61"/>
     <use x="61.279297" xlink:href="#DejaVuSans-62"/>
     <use x="124.755859" xlink:href="#DejaVuSans-73"/>
     <use x="176.855469" xlink:href="#DejaVuSans-6f"/>
     <use x="238.037109" xlink:href="#DejaVuSans-6c"/>
     <use x="265.820312" xlink:href="#DejaVuSans-75"/>
     <use x="329.199219" xlink:href="#DejaVuSans-74"/>
     <use x="368.408203" xlink:href="#DejaVuSans-65"/>
     <use x="429.931641" xlink:href="#DejaVuSans-20"/>
     <use x="461.71875" xlink:href="#DejaVuSans-74"/>
     <use x="500.927734" xlink:href="#DejaVuSans-61"/>
     <use x="562.207031" xlink:href="#DejaVuSans-72"/>
     <use x="603.304688" xlink:href="#DejaVuSans-67"/>
     <use x="666.78125" xlink:href="#DejaVuSans-65"/>
     <use x="728.304688" xlink:href="#DejaVuSans-74"/>
     <use x="767.513672" xlink:href="#DejaVuSans-73"/>
    </g>
   </g>
   <g id="text_17">
    <!-- v0.0.0 -->
    <defs>
     <path d="M 2.984375 54.6875 
L 12.5 54.6875 
L 29.59375 8.796875 
L 46.6875 54.6875 
L 56.203125 54.6875 
L 35.6875 0 
L 23.484375 0 
z
" id="DejaVuSans-76"/>
     <path d="M 10.6875 12.40625 
L 21 12.40625 
L 21 0 
L 10.6875 0 
z
" id="DejaVuSans-2e"/>
    </defs>
    <g style="fill:#808080;" transform="translate(222.30475 306.331112)scale(0.1 -0.1)">
     <use xlink:href="#DejaVuSans-76"/>
     <use x="59.179688" xlink:href="#DejaVuSans-30"/>
     <use x="122.802734" xlink:href="#DejaVuSans-2e"/>
     <use x="154.589844" xlink:href="#DejaVuSans-30"/>
     <use x="218.212891" xlink:href="#DejaVuSans-2e"/>
     <use x="250" xlink:href="#DejaVuSans-30"/>
    </g>
   </g>
   <g id="text_18">
    <!-- 7 Step-ellipsoid -->
    <defs>
     <path d="M 53.515625 70.515625 
L 53.515625 60.890625 
Q 47.90625 63.578125 42.921875 64.890625 
Q 37.9375 66.21875 33.296875 66.21875 
Q 25.25 66.21875 20.875 63.09375 
Q 16.5 59.96875 16.5 54.203125 
Q 16.5 49.359375 19.40625 46.890625 
Q 22.3125 44.4375 30.421875 42.921875 
L 36.375 41.703125 
Q 47.40625 39.59375 52.65625 34.296875 
Q 57.90625 29 57.90625 20.125 
Q 57.90625 9.515625 50.796875 4.046875 
Q 43.703125 -1.421875 29.984375 -1.421875 
Q 24.8125 -1.421875 18.96875 -0.25 
Q 13.140625 0.921875 6.890625 3.21875 
L 6.890625 13.375 
Q 12.890625 10.015625 18.65625 8.296875 
Q 24.421875 6.59375 29.984375 6.59375 
Q 38.421875 6.59375 43.015625 9.90625 
Q 47.609375 13.234375 47.609375 19.390625 
Q 47.609375 24.75 44.3125 27.78125 
Q 41.015625 30.8125 33.5 32.328125 
L 27.484375 33.5 
Q 16.453125 35.6875 11.515625 40.375 
Q 6.59375 45.0625 6.59375 53.421875 
Q 6.59375 63.09375 13.40625 68.65625 
Q 20.21875 74.21875 32.171875 74.21875 
Q 37.3125 74.21875 42.625 73.28125 
Q 47.953125 72.359375 53.515625 70.515625 
z
" id="DejaVuSans-53"/>
     <path d="M 18.109375 8.203125 
L 18.109375 -20.796875 
L 9.078125 -20.796875 
L 9.078125 54.6875 
L 18.109375 54.6875 
L 18.109375 46.390625 
Q 20.953125 51.265625 25.265625 53.625 
Q 29.59375 56 35.59375 56 
Q 45.5625 56 51.78125 48.09375 
Q 58.015625 40.1875 58.015625 27.296875 
Q 58.015625 14.40625 51.78125 6.484375 
Q 45.5625 -1.421875 35.59375 -1.421875 
Q 29.59375 -1.421875 25.265625 0.953125 
Q 20.953125 3.328125 18.109375 8.203125 
z
M 48.6875 27.296875 
Q 48.6875 37.203125 44.609375 42.84375 
Q 40.53125 48.484375 33.40625 48.484375 
Q 26.265625 48.484375 22.1875 42.84375 
Q 18.109375 37.203125 18.109375 27.296875 
Q 18.109375 17.390625 22.1875 11.75 
Q 26.265625 6.109375 33.40625 6.109375 
Q 40.53125 6.109375 44.609375 11.75 
Q 48.6875 17.390625 48.6875 27.296875 
z
" id="DejaVuSans-70"/>
     <path d="M 4.890625 31.390625 
L 31.203125 31.390625 
L 31.203125 23.390625 
L 4.890625 23.390625 
z
" id="DejaVuSans-2d"/>
     <path d="M 45.40625 46.390625 
L 45.40625 75.984375 
L 54.390625 75.984375 
L 54.390625 0 
L 45.40625 0 
L 45.40625 8.203125 
Q 42.578125 3.328125 38.25 0.953125 
Q 33.9375 -1.421875 27.875 -1.421875 
Q 17.96875 -1.421875 11.734375 6.484375 
Q 5.515625 14.40625 5.515625 27.296875 
Q 5.515625 40.1875 11.734375 48.09375 
Q 17.96875 56 27.875 56 
Q 33.9375 56 38.25 53.625 
Q 42.578125 51.265625 45.40625 46.390625 
z
M 14.796875 27.296875 
Q 14.796875 17.390625 18.875 11.75 
Q 22.953125 6.109375 30.078125 6.109375 
Q 37.203125 6.109375 41.296875 11.75 
Q 45.40625 17.390625 45.40625 27.296875 
Q 45.40625 37.203125 41.296875 42.84375 
Q 37.203125 48.484375 30.078125 48.484375 
Q 22.953125 48.484375 18.875 42.84375 
Q 14.796875 37.203125 14.796875 27.296875 
z
" id="DejaVuSans-64"/>
    </defs>
    <g transform="translate(145.33475 22.32)scale(0.24 -0.24)">
     <use xlink:href="#DejaVuSans-37"/>
     <use x="63.623047" xlink:href="#DejaVuSans-20"/>
     <use x="95.410156" xlink:href="#DejaVuSans-53"/>
     <use x="158.886719" xlink:href="#DejaVuSans-74"/>
     <use x="198.095703" xlink:href="#DejaVuSans-65"/>
     <use x="259.619141" xlink:href="#DejaVuSans-70"/>
     <use x="323.095703" xlink:href="#DejaVuSans-2d"/>
     <use x="359.179688" xlink:href="#DejaVuSans-65"/>
     <use x="420.703125" xlink:href="#DejaVuSans-6c"/>
     <use x="448.486328" xlink:href="#DejaVuSans-6c"/>
     <use x="476.269531" xlink:href="#DejaVuSans-69"/>
     <use x="504.052734" xlink:href="#DejaVuSans-70"/>
     <use x="567.529297" xlink:href="#DejaVuSans-73"/>
     <use x="619.628906" xlink:href="#DejaVuSans-6f"/>
     <use x="680.810547" xlink:href="#DejaVuSans-69"/>
     <use x="708.59375" xlink:href="#DejaVuSans-64"/>
    </g>
   </g>
  </g>
 </g>
 <defs>
  <clipPath id="p4f566ae76b">
   <rect height="282.92" width="424.172" x="25.9" y="28.32"/>
  </clipPath>
 </defs>
</svg>
