<?xml version="1.0" encoding="utf-8" standalone="no"?>
<!DOCTYPE svg PUBLIC "-//W3C//DTD SVG 1.1//EN"
  "http://www.w3.org/Graphics/SVG/1.1/DTD/svg11.dtd">
<!-- Created with matplotlib (http://matplotlib.org/) -->
<svg height="345.6pt" version="1.1" viewBox="0 0 460.8 345.6" width="460.8pt" xmlns="http://www.w3.org/2000/svg" xmlns:xlink="http://www.w3.org/1999/xlink">
 <defs>
  <style type="text/css">
*{stroke-linecap:butt;stroke-linejoin:round;}
  </style>
 </defs>
 <g id="figure_1">
  <g id="patch_1">
   <path d="M 0 345.6 
L 460.8 345.6 
L 460.8 0 
L 0 0 
z
" style="fill:#ffffff;"/>
  </g>
  <g id="axes_1">
   <g id="patch_2">
    <path d="M 5.52 291.28 
L 450.672 291.28 
L 450.672 5.52 
L 5.52 5.52 
z
" style="fill:#ffffff;"/>
   </g>
   <g id="matplotlib.axis_1">
    <g id="xtick_1">
     <g id="line2d_1">
      <path clip-path="url(#p17726ac703)" d="M 5.410826 291.28 
L 5.410826 5.52 
" style="fill:none;stroke:#b0b0b0;stroke-linecap:square;stroke-width:0.8;"/>
     </g>
     <g id="line2d_2">
      <defs>
       <path d="M 0 0 
L 0 3.5 
" id="m8c91e25a22" style="stroke:#000000;stroke-width:0.8;"/>
      </defs>
      <g>
       <use style="stroke:#000000;stroke-width:0.8;" x="5.410826" xlink:href="#m8c91e25a22" y="291.28"/>
      </g>
     </g>
    </g>
    <g id="xtick_2">
     <g id="line2d_3">
      <path clip-path="url(#p17726ac703)" d="M 106.465894 291.28 
L 106.465894 5.52 
" style="fill:none;stroke:#b0b0b0;stroke-linecap:square;stroke-width:0.8;"/>
     </g>
     <g id="line2d_4">
      <g>
       <use style="stroke:#000000;stroke-width:0.8;" x="106.465894" xlink:href="#m8c91e25a22" y="291.28"/>
      </g>
     </g>
     <g id="text_1">
      <!-- -4 -->
      <defs>
       <path d="M 4.890625 31.390625 
L 31.203125 31.390625 
L 31.203125 23.390625 
L 4.890625 23.390625 
z
" id="DejaVuSans-2d"/>
       <path d="M 37.796875 64.3125 
L 12.890625 25.390625 
L 37.796875 25.390625 
z
M 35.203125 72.90625 
L 47.609375 72.90625 
L 47.609375 25.390625 
L 58.015625 25.390625 
L 58.015625 17.1875 
L 47.609375 17.1875 
L 47.609375 0 
L 37.796875 0 
L 37.796875 17.1875 
L 4.890625 17.1875 
L 4.890625 26.703125 
z
" id="DejaVuSans-34"/>
      </defs>
      <g transform="translate(96.495582 313.476875)scale(0.2 -0.2)">
       <use xlink:href="#DejaVuSans-2d"/>
       <use x="36.083984" xlink:href="#DejaVuSans-34"/>
      </g>
     </g>
    </g>
    <g id="xtick_3">
     <g id="line2d_5">
      <path clip-path="url(#p17726ac703)" d="M 207.520963 291.28 
L 207.520963 5.52 
" style="fill:none;stroke:#b0b0b0;stroke-linecap:square;stroke-width:0.8;"/>
     </g>
     <g id="line2d_6">
      <g>
       <use style="stroke:#000000;stroke-width:0.8;" x="207.520963" xlink:href="#m8c91e25a22" y="291.28"/>
      </g>
     </g>
     <g id="text_2">
      <!-- 0 -->
      <defs>
       <path d="M 31.78125 66.40625 
Q 24.171875 66.40625 20.328125 58.90625 
Q 16.5 51.421875 16.5 36.375 
Q 16.5 21.390625 20.328125 13.890625 
Q 24.171875 6.390625 31.78125 6.390625 
Q 39.453125 6.390625 43.28125 13.890625 
Q 47.125 21.390625 47.125 36.375 
Q 47.125 51.421875 43.28125 58.90625 
Q 39.453125 66.40625 31.78125 66.40625 
z
M 31.78125 74.21875 
Q 44.046875 74.21875 50.515625 64.515625 
Q 56.984375 54.828125 56.984375 36.375 
Q 56.984375 17.96875 50.515625 8.265625 
Q 44.046875 -1.421875 31.78125 -1.421875 
Q 19.53125 -1.421875 13.0625 8.265625 
Q 6.59375 17.96875 6.59375 36.375 
Q 6.59375 54.828125 13.0625 64.515625 
Q 19.53125 74.21875 31.78125 74.21875 
z
" id="DejaVuSans-30"/>
      </defs>
      <g transform="translate(201.158463 313.476875)scale(0.2 -0.2)">
       <use xlink:href="#DejaVuSans-30"/>
      </g>
     </g>
    </g>
    <g id="xtick_4">
     <g id="line2d_7">
      <path clip-path="url(#p17726ac703)" d="M 308.576031 291.28 
L 308.576031 5.52 
" style="fill:none;stroke:#b0b0b0;stroke-linecap:square;stroke-width:0.8;"/>
     </g>
     <g id="line2d_8">
      <g>
       <use style="stroke:#000000;stroke-width:0.8;" x="308.576031" xlink:href="#m8c91e25a22" y="291.28"/>
      </g>
     </g>
     <g id="text_3">
      <!-- 4 -->
      <g transform="translate(302.213531 313.476875)scale(0.2 -0.2)">
       <use xlink:href="#DejaVuSans-34"/>
      </g>
     </g>
    </g>
    <g id="xtick_5">
     <g id="line2d_9">
      <path clip-path="url(#p17726ac703)" d="M 409.631099 291.28 
L 409.631099 5.52 
" style="fill:none;stroke:#b0b0b0;stroke-linecap:square;stroke-width:0.8;"/>
     </g>
     <g id="line2d_10">
      <g>
       <use style="stroke:#000000;stroke-width:0.8;" x="409.631099" xlink:href="#m8c91e25a22" y="291.28"/>
      </g>
     </g>
     <g id="text_4">
      <!-- 8 -->
      <defs>
       <path d="M 31.78125 34.625 
Q 24.75 34.625 20.71875 30.859375 
Q 16.703125 27.09375 16.703125 20.515625 
Q 16.703125 13.921875 20.71875 10.15625 
Q 24.75 6.390625 31.78125 6.390625 
Q 38.8125 6.390625 42.859375 10.171875 
Q 46.921875 13.96875 46.921875 20.515625 
Q 46.921875 27.09375 42.890625 30.859375 
Q 38.875 34.625 31.78125 34.625 
z
M 21.921875 38.8125 
Q 15.578125 40.375 12.03125 44.71875 
Q 8.5 49.078125 8.5 55.328125 
Q 8.5 64.0625 14.71875 69.140625 
Q 20.953125 74.21875 31.78125 74.21875 
Q 42.671875 74.21875 48.875 69.140625 
Q 55.078125 64.0625 55.078125 55.328125 
Q 55.078125 49.078125 51.53125 44.71875 
Q 48 40.375 41.703125 38.8125 
Q 48.828125 37.15625 52.796875 32.3125 
Q 56.78125 27.484375 56.78125 20.515625 
Q 56.78125 9.90625 50.3125 4.234375 
Q 43.84375 -1.421875 31.78125 -1.421875 
Q 19.734375 -1.421875 13.25 4.234375 
Q 6.78125 9.90625 6.78125 20.515625 
Q 6.78125 27.484375 10.78125 32.3125 
Q 14.796875 37.15625 21.921875 38.8125 
z
M 18.3125 54.390625 
Q 18.3125 48.734375 21.84375 45.5625 
Q 25.390625 42.390625 31.78125 42.390625 
Q 38.140625 42.390625 41.71875 45.5625 
Q 45.3125 48.734375 45.3125 54.390625 
Q 45.3125 60.0625 41.71875 63.234375 
Q 38.140625 66.40625 31.78125 66.40625 
Q 25.390625 66.40625 21.84375 63.234375 
Q 18.3125 60.0625 18.3125 54.390625 
z
" id="DejaVuSans-38"/>
      </defs>
      <g transform="translate(403.268599 313.476875)scale(0.2 -0.2)">
       <use xlink:href="#DejaVuSans-38"/>
      </g>
     </g>
    </g>
    <g id="text_5">
     <!-- log10 of Df -->
     <defs>
      <path d="M 9.421875 75.984375 
L 18.40625 75.984375 
L 18.40625 0 
L 9.421875 0 
z
" id="DejaVuSans-6c"/>
      <path d="M 30.609375 48.390625 
Q 23.390625 48.390625 19.1875 42.75 
Q 14.984375 37.109375 14.984375 27.296875 
Q 14.984375 17.484375 19.15625 11.84375 
Q 23.34375 6.203125 30.609375 6.203125 
Q 37.796875 6.203125 41.984375 11.859375 
Q 46.1875 17.53125 46.1875 27.296875 
Q 46.1875 37.015625 41.984375 42.703125 
Q 37.796875 48.390625 30.609375 48.390625 
z
M 30.609375 56 
Q 42.328125 56 49.015625 48.375 
Q 55.71875 40.765625 55.71875 27.296875 
Q 55.71875 13.875 49.015625 6.21875 
Q 42.328125 -1.421875 30.609375 -1.421875 
Q 18.84375 -1.421875 12.171875 6.21875 
Q 5.515625 13.875 5.515625 27.296875 
Q 5.515625 40.765625 12.171875 48.375 
Q 18.84375 56 30.609375 56 
z
" id="DejaVuSans-6f"/>
      <path d="M 45.40625 27.984375 
Q 45.40625 37.75 41.375 43.109375 
Q 37.359375 48.484375 30.078125 48.484375 
Q 22.859375 48.484375 18.828125 43.109375 
Q 14.796875 37.75 14.796875 27.984375 
Q 14.796875 18.265625 18.828125 12.890625 
Q 22.859375 7.515625 30.078125 7.515625 
Q 37.359375 7.515625 41.375 12.890625 
Q 45.40625 18.265625 45.40625 27.984375 
z
M 54.390625 6.78125 
Q 54.390625 -7.171875 48.1875 -13.984375 
Q 42 -20.796875 29.203125 -20.796875 
Q 24.46875 -20.796875 20.265625 -20.09375 
Q 16.0625 -19.390625 12.109375 -17.921875 
L 12.109375 -9.1875 
Q 16.0625 -11.328125 19.921875 -12.34375 
Q 23.78125 -13.375 27.78125 -13.375 
Q 36.625 -13.375 41.015625 -8.765625 
Q 45.40625 -4.15625 45.40625 5.171875 
L 45.40625 9.625 
Q 42.625 4.78125 38.28125 2.390625 
Q 33.9375 0 27.875 0 
Q 17.828125 0 11.671875 7.65625 
Q 5.515625 15.328125 5.515625 27.984375 
Q 5.515625 40.671875 11.671875 48.328125 
Q 17.828125 56 27.875 56 
Q 33.9375 56 38.28125 53.609375 
Q 42.625 51.21875 45.40625 46.390625 
L 45.40625 54.6875 
L 54.390625 54.6875 
z
" id="DejaVuSans-67"/>
      <path d="M 12.40625 8.296875 
L 28.515625 8.296875 
L 28.515625 63.921875 
L 10.984375 60.40625 
L 10.984375 69.390625 
L 28.421875 72.90625 
L 38.28125 72.90625 
L 38.28125 8.296875 
L 54.390625 8.296875 
L 54.390625 0 
L 12.40625 0 
z
" id="DejaVuSans-31"/>
      <path id="DejaVuSans-20"/>
      <path d="M 37.109375 75.984375 
L 37.109375 68.5 
L 28.515625 68.5 
Q 23.6875 68.5 21.796875 66.546875 
Q 19.921875 64.59375 19.921875 59.515625 
L 19.921875 54.6875 
L 34.71875 54.6875 
L 34.71875 47.703125 
L 19.921875 47.703125 
L 19.921875 0 
L 10.890625 0 
L 10.890625 47.703125 
L 2.296875 47.703125 
L 2.296875 54.6875 
L 10.890625 54.6875 
L 10.890625 58.5 
Q 10.890625 67.625 15.140625 71.796875 
Q 19.390625 75.984375 28.609375 75.984375 
z
" id="DejaVuSans-66"/>
      <path d="M 19.671875 64.796875 
L 19.671875 8.109375 
L 31.59375 8.109375 
Q 46.6875 8.109375 53.6875 14.9375 
Q 60.6875 21.78125 60.6875 36.53125 
Q 60.6875 51.171875 53.6875 57.984375 
Q 46.6875 64.796875 31.59375 64.796875 
z
M 9.8125 72.90625 
L 30.078125 72.90625 
Q 51.265625 72.90625 61.171875 64.09375 
Q 71.09375 55.28125 71.09375 36.53125 
Q 71.09375 17.671875 61.125 8.828125 
Q 51.171875 0 30.078125 0 
L 9.8125 0 
z
" id="DejaVuSans-44"/>
     </defs>
     <g transform="translate(172.910063 336.833125)scale(0.2 -0.2)">
      <use xlink:href="#DejaVuSans-6c"/>
      <use x="27.783203" xlink:href="#DejaVuSans-6f"/>
      <use x="88.964844" xlink:href="#DejaVuSans-67"/>
      <use x="152.441406" xlink:href="#DejaVuSans-31"/>
      <use x="216.064453" xlink:href="#DejaVuSans-30"/>
      <use x="279.6875" xlink:href="#DejaVuSans-20"/>
      <use x="311.474609" xlink:href="#DejaVuSans-6f"/>
      <use x="372.65625" xlink:href="#DejaVuSans-66"/>
      <use x="407.861328" xlink:href="#DejaVuSans-20"/>
      <use x="439.648438" xlink:href="#DejaVuSans-44"/>
      <use x="516.650391" xlink:href="#DejaVuSans-66"/>
     </g>
    </g>
   </g>
   <g id="matplotlib.axis_2">
    <g id="ytick_1">
     <g id="line2d_11">
      <path clip-path="url(#p17726ac703)" d="M 5.52 291.28 
L 450.672 291.28 
" style="fill:none;stroke:#b0b0b0;stroke-linecap:square;stroke-width:0.8;"/>
     </g>
     <g id="line2d_12">
      <defs>
       <path d="M 0 0 
L -3.5 0 
" id="mb07094deb4" style="stroke:#000000;stroke-width:0.8;"/>
      </defs>
      <g>
       <use style="stroke:#000000;stroke-width:0.8;" x="5.52" xlink:href="#mb07094deb4" y="291.28"/>
      </g>
     </g>
    </g>
    <g id="ytick_2">
     <g id="line2d_13">
      <path clip-path="url(#p17726ac703)" d="M 5.52 234.693861 
L 450.672 234.693861 
" style="fill:none;stroke:#b0b0b0;stroke-linecap:square;stroke-width:0.8;"/>
     </g>
     <g id="line2d_14">
      <g>
       <use style="stroke:#000000;stroke-width:0.8;" x="5.52" xlink:href="#mb07094deb4" y="234.693861"/>
      </g>
     </g>
    </g>
    <g id="ytick_3">
     <g id="line2d_15">
      <path clip-path="url(#p17726ac703)" d="M 5.52 178.107723 
L 450.672 178.107723 
" style="fill:none;stroke:#b0b0b0;stroke-linecap:square;stroke-width:0.8;"/>
     </g>
     <g id="line2d_16">
      <g>
       <use style="stroke:#000000;stroke-width:0.8;" x="5.52" xlink:href="#mb07094deb4" y="178.107723"/>
      </g>
     </g>
    </g>
    <g id="ytick_4">
     <g id="line2d_17">
      <path clip-path="url(#p17726ac703)" d="M 5.52 121.521584 
L 450.672 121.521584 
" style="fill:none;stroke:#b0b0b0;stroke-linecap:square;stroke-width:0.8;"/>
     </g>
     <g id="line2d_18">
      <g>
       <use style="stroke:#000000;stroke-width:0.8;" x="5.52" xlink:href="#mb07094deb4" y="121.521584"/>
      </g>
     </g>
    </g>
    <g id="ytick_5">
     <g id="line2d_19">
      <path clip-path="url(#p17726ac703)" d="M 5.52 64.935446 
L 450.672 64.935446 
" style="fill:none;stroke:#b0b0b0;stroke-linecap:square;stroke-width:0.8;"/>
     </g>
     <g id="line2d_20">
      <g>
       <use style="stroke:#000000;stroke-width:0.8;" x="5.52" xlink:href="#mb07094deb4" y="64.935446"/>
      </g>
     </g>
    </g>
    <g id="ytick_6">
     <g id="line2d_21">
      <path clip-path="url(#p17726ac703)" d="M 5.52 8.349307 
L 450.672 8.349307 
" style="fill:none;stroke:#b0b0b0;stroke-linecap:square;stroke-width:0.8;"/>
     </g>
     <g id="line2d_22">
      <g>
       <use style="stroke:#000000;stroke-width:0.8;" x="5.52" xlink:href="#mb07094deb4" y="8.349307"/>
      </g>
     </g>
    </g>
   </g>
   <g id="line2d_23">
    <path clip-path="url(#p17726ac703)" d="M 186.415662 291.28 
L 186.415662 287.507591 
L 196.152157 287.507591 
L 196.152157 283.735182 
L 199.593084 283.735182 
L 199.593084 279.962772 
L 204.388182 279.962772 
L 204.388182 276.190363 
L 204.870193 276.190363 
L 204.870193 272.417954 
L 207.927808 272.417954 
L 207.927808 268.645545 
L 209.114967 268.645545 
L 209.114967 264.873135 
L 209.994423 264.873135 
L 209.994423 261.100726 
L 211.782973 261.100726 
L 211.782973 257.328317 
L 212.211073 257.328317 
L 212.211073 253.555908 
L 213.03468 253.555908 
L 213.03468 249.783498 
L 213.168053 249.783498 
L 213.168053 246.011089 
L 213.302631 246.011089 
L 213.302631 242.23868 
L 214.457799 242.23868 
L 214.457799 238.466271 
L 214.768577 238.466271 
L 214.785942 230.921452 
L 214.888252 230.921452 
L 214.895511 223.376634 
L 215.215791 223.376634 
L 215.307245 212.059406 
L 215.65112 212.059406 
L 215.65112 208.286997 
L 215.903848 208.286997 
L 215.903848 204.514587 
L 216.157099 204.514587 
L 216.157099 200.742178 
L 216.599324 200.742178 
L 216.709151 189.42495 
L 216.730252 189.42495 
L 216.750879 181.880132 
L 216.906797 181.880132 
L 216.982503 170.562904 
L 217.058232 170.562904 
L 217.058232 166.790495 
L 217.35991 166.790495 
L 217.40358 159.245677 
L 218.109172 159.245677 
L 218.109172 155.473267 
L 218.242837 155.473267 
L 218.242837 151.700858 
L 218.668151 151.700858 
L 218.668151 147.928449 
L 219.408822 147.928449 
L 219.408822 144.15604 
L 221.464742 144.15604 
L 221.464742 140.38363 
L 221.646722 140.38363 
L 221.646722 136.611221 
L 224.242802 136.611221 
L 224.242802 132.838812 
L 224.490802 132.838812 
L 224.490802 129.066403 
L 225.275894 129.066403 
L 225.275894 125.293993 
L 226.337593 125.293993 
L 226.337593 121.521584 
L 228.0622 121.521584 
L 228.10287 113.976766 
L 231.183372 113.976766 
L 231.183372 110.204356 
L 231.706949 110.204356 
L 231.706949 106.431947 
L 232.16274 106.431947 
L 232.16274 102.659538 
L 232.287688 102.659538 
L 232.311302 95.114719 
L 233.850107 95.114719 
L 233.850107 91.34231 
L 236.613736 91.34231 
L 236.613736 87.569901 
L 237.607356 87.569901 
L 237.607356 83.797492 
L 242.584247 83.797492 
L 242.584247 80.025083 
L 242.788284 80.025083 
L 242.788284 76.252673 
L 248.172886 76.252673 
L 248.172886 72.480264 
L 249.074377 72.480264 
L 249.074377 68.707855 
L 249.213218 68.707855 
L 249.213218 64.935446 
L 256.593344 64.935446 
L 256.593344 61.163036 
L 256.724204 61.163036 
L 256.724204 57.390627 
L 258.637971 57.390627 
L 258.637971 53.618218 
L 259.20698 53.618218 
L 259.20698 49.845809 
L 259.823089 49.845809 
L 259.823089 46.073399 
L 260.068797 46.073399 
L 260.148832 38.528581 
L 260.366057 38.528581 
L 260.386579 30.983762 
L 260.592882 30.983762 
L 260.592882 27.211353 
L 260.743269 27.211353 
L 260.743269 23.438944 
L 260.89292 23.438944 
L 260.89292 19.666535 
L 261.90447 19.666535 
L 261.90447 15.894125 
L 262.785398 15.894125 
L 262.785398 12.121716 
L 263.288694 12.121716 
L 263.288694 8.349307 
L 263.288694 8.349307 
L 450.672 8.349307 
L 450.672 8.349307 
" style="fill:none;stroke:#ff0000;stroke-linecap:square;stroke-width:3;"/>
   </g>
   <g id="line2d_24">
    <path clip-path="url(#p17726ac703)" d="M 225.857633 291.28 
L 225.857633 287.507591 
L 226.619474 287.507591 
L 226.619474 283.735182 
L 227.961674 283.735182 
L 227.961674 279.962772 
L 229.722878 279.962772 
L 229.722878 276.190363 
L 230.294267 276.190363 
L 230.365863 268.645545 
L 231.083958 268.645545 
L 231.083958 264.873135 
L 231.863022 264.873135 
L 231.863022 261.100726 
L 231.982151 261.100726 
L 231.982151 257.328317 
L 233.389663 257.328317 
L 233.389663 253.555908 
L 233.69807 253.555908 
L 233.69807 249.783498 
L 233.982141 249.783498 
L 233.982141 246.011089 
L 234.930778 246.011089 
L 234.930778 242.23868 
L 235.049902 242.23868 
L 235.127643 234.693861 
L 253.906854 234.693861 
L 253.976191 227.149043 
L 254.59389 227.149043 
L 254.668252 212.059406 
L 254.952113 212.059406 
L 254.965393 204.514587 
L 255.079805 204.514587 
L 255.116245 193.19736 
L 255.202148 193.19736 
L 255.258355 185.652541 
L 255.529578 185.652541 
L 255.630748 170.562904 
L 255.649008 170.562904 
L 255.690954 159.245677 
L 255.76067 159.245677 
L 255.841382 144.15604 
L 255.975077 144.15604 
L 255.987704 132.838812 
L 256.093578 132.838812 
L 256.148113 121.521584 
L 268.783421 121.521584 
L 268.869584 113.976766 
L 269.96267 113.976766 
L 269.96267 110.204356 
L 270.39971 110.204356 
L 270.39971 106.431947 
L 270.571755 106.431947 
L 270.571755 102.659538 
L 270.732372 102.659538 
L 270.732372 98.887129 
L 271.051703 98.887129 
L 271.051703 95.114719 
L 271.358903 95.114719 
L 271.412583 87.569901 
L 271.548212 87.569901 
L 271.61557 80.025083 
L 271.745627 80.025083 
L 271.745627 76.252673 
L 271.879444 76.252673 
L 271.879444 72.480264 
L 272.730791 72.480264 
L 272.730791 68.707855 
L 273.190869 68.707855 
L 273.190869 64.935446 
L 315.21829 64.935446 
L 315.21829 8.349307 
L 315.21829 8.349307 
L 450.672 8.349307 
L 450.672 8.349307 
" style="fill:none;stroke:#00bfbf;stroke-linecap:square;stroke-width:1.5;"/>
   </g>
   <g id="line2d_25">
    <path clip-path="url(#p17726ac703)" d="M 225.857633 291.28 
L 225.857633 287.507591 
L 226.619474 287.507591 
L 226.619474 283.735182 
L 227.473036 283.735182 
L 227.473036 279.962772 
L 227.961674 279.962772 
L 227.961674 276.190363 
L 228.149561 276.190363 
L 228.149561 272.417954 
L 228.776158 272.417954 
L 228.776158 268.645545 
L 229.149737 268.645545 
L 229.149737 264.873135 
L 229.722878 264.873135 
L 229.722878 261.100726 
L 230.365863 261.100726 
L 230.365863 257.328317 
L 231.083958 257.328317 
L 231.121542 249.783498 
L 231.550785 249.783498 
L 231.550785 246.011089 
L 231.960662 246.011089 
L 231.960662 242.23868 
L 232.641417 242.23868 
L 232.641417 238.466271 
L 232.771182 238.466271 
L 232.771182 234.693861 
L 253.906854 234.693861 
L 253.976191 227.149043 
L 254.59389 227.149043 
L 254.668252 212.059406 
L 254.783994 212.059406 
L 254.783994 208.286997 
L 254.952113 208.286997 
L 254.965393 200.742178 
L 255.079805 200.742178 
L 255.116245 189.42495 
L 255.200574 189.42495 
L 255.202148 181.880132 
L 255.374386 181.880132 
L 255.374386 178.107723 
L 255.516059 178.107723 
L 255.529578 170.562904 
L 255.630748 170.562904 
L 255.690954 155.473267 
L 255.76067 155.473267 
L 255.819648 144.15604 
L 255.975077 144.15604 
L 256.083894 125.293993 
L 256.148113 125.293993 
L 256.148113 121.521584 
L 268.783421 121.521584 
L 268.869584 113.976766 
L 269.96267 113.976766 
L 269.96267 110.204356 
L 270.39971 110.204356 
L 270.39971 106.431947 
L 270.571755 106.431947 
L 270.571755 102.659538 
L 270.732372 102.659538 
L 270.732372 98.887129 
L 271.051703 98.887129 
L 271.051703 95.114719 
L 271.358903 95.114719 
L 271.412583 87.569901 
L 271.548212 87.569901 
L 271.61557 80.025083 
L 271.745627 80.025083 
L 271.745627 76.252673 
L 271.879444 76.252673 
L 271.879444 72.480264 
L 272.730791 72.480264 
L 272.730791 68.707855 
L 273.190869 68.707855 
L 273.190869 64.935446 
L 315.21829 64.935446 
L 315.21829 8.349307 
L 315.21829 8.349307 
L 450.672 8.349307 
L 450.672 8.349307 
" style="fill:none;stroke:#bf00bf;stroke-linecap:square;stroke-width:1.5;"/>
   </g>
   <g id="line2d_26">
    <path clip-path="url(#p17726ac703)" d="M 223.594136 291.28 
L 223.594136 287.507591 
L 225.404463 287.507591 
L 225.404463 283.735182 
L 225.670008 283.735182 
L 225.698315 276.190363 
L 225.857633 276.190363 
L 225.857633 272.417954 
L 226.418937 272.417954 
L 226.418937 268.645545 
L 226.619474 268.645545 
L 226.619474 264.873135 
L 227.961674 264.873135 
L 227.961674 261.100726 
L 228.149561 261.100726 
L 228.149561 257.328317 
L 228.550562 257.328317 
L 228.600134 249.783498 
L 228.877416 249.783498 
L 228.877416 246.011089 
L 229.149737 246.011089 
L 229.149737 242.23868 
L 230.156941 242.23868 
L 230.156941 238.466271 
L 230.365863 238.466271 
L 230.365863 234.693861 
L 253.906854 234.693861 
L 253.976191 227.149043 
L 254.493168 227.149043 
L 254.597461 215.831815 
L 254.614346 215.831815 
L 254.668252 204.514587 
L 254.783994 204.514587 
L 254.876124 196.969769 
L 254.963466 196.969769 
L 254.965393 189.42495 
L 255.079805 189.42495 
L 255.118012 178.107723 
L 255.25148 178.107723 
L 255.25148 174.335314 
L 255.377468 174.335314 
L 255.377468 170.562904 
L 255.504806 170.562904 
L 255.529578 159.245677 
L 255.657357 159.245677 
L 255.76067 144.15604 
L 255.812241 144.15604 
L 255.844765 129.066403 
L 255.980739 129.066403 
L 256.083894 121.521584 
L 268.783421 121.521584 
L 268.869584 113.976766 
L 269.96267 113.976766 
L 269.96267 110.204356 
L 270.39971 110.204356 
L 270.39971 106.431947 
L 270.571755 106.431947 
L 270.571755 102.659538 
L 270.732372 102.659538 
L 270.732372 98.887129 
L 271.051703 98.887129 
L 271.051703 95.114719 
L 271.358903 95.114719 
L 271.412583 87.569901 
L 271.548212 87.569901 
L 271.61557 80.025083 
L 271.745627 80.025083 
L 271.745627 76.252673 
L 271.879444 76.252673 
L 271.879444 72.480264 
L 272.730791 72.480264 
L 272.730791 68.707855 
L 273.190869 68.707855 
L 273.190869 64.935446 
L 315.21829 64.935446 
L 315.21829 8.349307 
L 315.21829 8.349307 
L 450.672 8.349307 
L 450.672 8.349307 
" style="fill:none;stroke:#000000;stroke-linecap:square;stroke-width:1.5;"/>
   </g>
   <g id="line2d_27">
    <path clip-path="url(#p17726ac703)" d="M 220.439489 291.28 
L 220.439489 287.507591 
L 221.936648 287.507591 
L 221.936648 283.735182 
L 223.594136 283.735182 
L 223.594136 279.962772 
L 224.255808 279.962772 
L 224.255808 276.190363 
L 225.055956 276.190363 
L 225.055956 272.417954 
L 225.670008 272.417954 
L 225.698315 264.873135 
L 225.857633 264.873135 
L 225.857633 261.100726 
L 226.619474 261.100726 
L 226.619474 257.328317 
L 226.872195 257.328317 
L 226.872195 253.555908 
L 227.355256 253.555908 
L 227.355256 249.783498 
L 227.62437 249.783498 
L 227.62437 246.011089 
L 228.668838 246.011089 
L 228.668838 242.23868 
L 228.877416 242.23868 
L 228.877416 238.466271 
L 229.149737 238.466271 
L 229.149737 234.693861 
L 253.906854 234.693861 
L 253.976191 227.149043 
L 254.432606 227.149043 
L 254.527572 215.831815 
L 254.59389 215.831815 
L 254.668252 193.19736 
L 254.783994 193.19736 
L 254.876124 181.880132 
L 254.965393 181.880132 
L 254.965393 178.107723 
L 255.079805 178.107723 
L 255.146443 163.018086 
L 255.295471 163.018086 
L 255.295471 159.245677 
L 255.504806 159.245677 
L 255.529578 147.928449 
L 255.657357 147.928449 
L 255.768246 129.066403 
L 255.819648 129.066403 
L 255.881875 121.521584 
L 268.783421 121.521584 
L 268.869584 113.976766 
L 269.96267 113.976766 
L 269.96267 110.204356 
L 270.39971 110.204356 
L 270.39971 106.431947 
L 270.571755 106.431947 
L 270.571755 102.659538 
L 270.732372 102.659538 
L 270.732372 98.887129 
L 271.051703 98.887129 
L 271.051703 95.114719 
L 271.358903 95.114719 
L 271.412583 87.569901 
L 271.548212 87.569901 
L 271.61557 80.025083 
L 271.745627 80.025083 
L 271.745627 76.252673 
L 271.879444 76.252673 
L 271.879444 72.480264 
L 272.730791 72.480264 
L 272.730791 68.707855 
L 273.190869 68.707855 
L 273.190869 64.935446 
L 315.21829 64.935446 
L 315.21829 8.349307 
L 315.21829 8.349307 
L 450.672 8.349307 
L 450.672 8.349307 
" style="fill:none;stroke:#00bfbf;stroke-linecap:square;stroke-width:1.5;"/>
   </g>
   <g id="line2d_28">
    <path clip-path="url(#p17726ac703)" d="M 217.710132 291.28 
L 217.710132 287.507591 
L 218.534674 287.507591 
L 218.534674 283.735182 
L 218.890756 283.735182 
L 218.90208 276.190363 
L 219.979009 276.190363 
L 219.979009 272.417954 
L 220.152584 272.417954 
L 220.26343 261.100726 
L 220.334912 261.100726 
L 220.439489 253.555908 
L 220.796262 253.555908 
L 220.851571 246.011089 
L 220.986219 246.011089 
L 220.986219 242.23868 
L 221.146574 242.23868 
L 221.218617 234.693861 
L 221.508851 234.693861 
L 221.591917 227.149043 
L 221.698816 227.149043 
L 221.698816 223.376634 
L 221.843947 223.376634 
L 221.843947 219.604224 
L 222.015989 219.604224 
L 222.015989 215.831815 
L 222.228086 215.831815 
L 222.228086 212.059406 
L 222.417689 212.059406 
L 222.419961 204.514587 
L 222.653218 204.514587 
L 222.69313 196.969769 
L 223.120215 196.969769 
L 223.184124 189.42495 
L 223.473395 189.42495 
L 223.473395 185.652541 
L 223.901995 185.652541 
L 223.901995 181.880132 
L 225.17186 181.880132 
L 225.17186 178.107723 
L 225.805382 178.107723 
L 225.805382 174.335314 
L 226.4881 174.335314 
L 226.4881 170.562904 
L 227.69052 170.562904 
L 227.69052 166.790495 
L 228.408813 166.790495 
L 228.408813 163.018086 
L 228.962902 163.018086 
L 228.962902 159.245677 
L 231.946921 159.245677 
L 232.005567 151.700858 
L 232.311504 151.700858 
L 232.311504 147.928449 
L 232.999724 147.928449 
L 232.999724 144.15604 
L 233.219968 144.15604 
L 233.219968 140.38363 
L 234.128135 140.38363 
L 234.128135 136.611221 
L 234.607237 136.611221 
L 234.607237 132.838812 
L 235.459758 132.838812 
L 235.459758 129.066403 
L 237.863807 129.066403 
L 237.863807 125.293993 
L 240.009495 125.293993 
L 240.009495 121.521584 
L 240.321227 121.521584 
L 240.321227 117.749175 
L 240.70635 117.749175 
L 240.70635 113.976766 
L 240.878998 113.976766 
L 240.878998 110.204356 
L 241.650177 110.204356 
L 241.650177 106.431947 
L 242.870468 106.431947 
L 242.929222 95.114719 
L 243.347066 95.114719 
L 243.347066 91.34231 
L 243.67404 91.34231 
L 243.67404 87.569901 
L 245.416237 87.569901 
L 245.416237 83.797492 
L 250.608525 83.797492 
L 250.608525 80.025083 
L 251.334088 80.025083 
L 251.401325 72.480264 
L 252.610961 72.480264 
L 252.610961 68.707855 
L 252.817804 68.707855 
L 252.817804 64.935446 
L 264.664584 64.935446 
L 264.664584 61.163036 
L 264.87569 61.163036 
L 264.87569 57.390627 
L 265.192921 57.390627 
L 265.192921 53.618218 
L 265.341496 53.618218 
L 265.341496 49.845809 
L 265.745729 49.845809 
L 265.820369 42.30099 
L 265.857123 42.30099 
L 265.857123 38.528581 
L 266.230455 38.528581 
L 266.316122 30.983762 
L 266.35309 30.983762 
L 266.405534 23.438944 
L 266.76927 23.438944 
L 266.76927 19.666535 
L 266.886393 19.666535 
L 266.886393 15.894125 
L 267.373808 15.894125 
L 267.458794 8.349307 
L 267.458794 8.349307 
L 450.672 8.349307 
L 450.672 8.349307 
" style="fill:none;stroke:#bf00bf;stroke-linecap:square;stroke-width:1.5;"/>
   </g>
   <g id="patch_3">
    <path d="M 5.52 291.28 
L 5.52 5.52 
" style="fill:none;stroke:#000000;stroke-linecap:square;stroke-linejoin:miter;stroke-width:0.8;"/>
   </g>
   <g id="patch_4">
    <path d="M 450.672 291.28 
L 450.672 5.52 
" style="fill:none;stroke:#000000;stroke-linecap:square;stroke-linejoin:miter;stroke-width:0.8;"/>
   </g>
   <g id="patch_5">
    <path d="M 5.52 291.28 
L 450.672 291.28 
" style="fill:none;stroke:#000000;stroke-linecap:square;stroke-linejoin:miter;stroke-width:0.8;"/>
   </g>
   <g id="patch_6">
    <path d="M 5.52 5.52 
L 450.672 5.52 
" style="fill:none;stroke:#000000;stroke-linecap:square;stroke-linejoin:miter;stroke-width:0.8;"/>
   </g>
   <g id="text_6">
    <!-- {f20-f24}, 20-D -->
    <defs>
     <path d="M 51.125 -9.28125 
L 51.125 -16.3125 
L 48.09375 -16.3125 
Q 35.9375 -16.3125 31.8125 -12.6875 
Q 27.6875 -9.078125 27.6875 1.703125 
L 27.6875 13.375 
Q 27.6875 20.75 25.046875 23.578125 
Q 22.40625 26.421875 15.484375 26.421875 
L 12.5 26.421875 
L 12.5 33.40625 
L 15.484375 33.40625 
Q 22.46875 33.40625 25.078125 36.203125 
Q 27.6875 39.015625 27.6875 46.296875 
L 27.6875 58.015625 
Q 27.6875 68.796875 31.8125 72.390625 
Q 35.9375 75.984375 48.09375 75.984375 
L 51.125 75.984375 
L 51.125 69 
L 47.796875 69 
Q 40.921875 69 38.8125 66.84375 
Q 36.71875 64.703125 36.71875 57.8125 
L 36.71875 45.703125 
Q 36.71875 38.03125 34.5 34.5625 
Q 32.28125 31.109375 26.90625 29.890625 
Q 32.328125 28.5625 34.515625 25.09375 
Q 36.71875 21.625 36.71875 14.015625 
L 36.71875 1.90625 
Q 36.71875 -4.984375 38.8125 -7.125 
Q 40.921875 -9.28125 47.796875 -9.28125 
z
" id="DejaVuSans-7b"/>
     <path d="M 19.1875 8.296875 
L 53.609375 8.296875 
L 53.609375 0 
L 7.328125 0 
L 7.328125 8.296875 
Q 12.9375 14.109375 22.625 23.890625 
Q 32.328125 33.6875 34.8125 36.53125 
Q 39.546875 41.84375 41.421875 45.53125 
Q 43.3125 49.21875 43.3125 52.78125 
Q 43.3125 58.59375 39.234375 62.25 
Q 35.15625 65.921875 28.609375 65.921875 
Q 23.96875 65.921875 18.8125 64.3125 
Q 13.671875 62.703125 7.8125 59.421875 
L 7.8125 69.390625 
Q 13.765625 71.78125 18.9375 73 
Q 24.125 74.21875 28.421875 74.21875 
Q 39.75 74.21875 46.484375 68.546875 
Q 53.21875 62.890625 53.21875 53.421875 
Q 53.21875 48.921875 51.53125 44.890625 
Q 49.859375 40.875 45.40625 35.40625 
Q 44.1875 33.984375 37.640625 27.21875 
Q 31.109375 20.453125 19.1875 8.296875 
z
" id="DejaVuSans-32"/>
     <path d="M 12.5 -9.28125 
L 15.921875 -9.28125 
Q 22.75 -9.28125 24.828125 -7.171875 
Q 26.90625 -5.078125 26.90625 1.90625 
L 26.90625 14.015625 
Q 26.90625 21.625 29.09375 25.09375 
Q 31.296875 28.5625 36.71875 29.890625 
Q 31.296875 31.109375 29.09375 34.5625 
Q 26.90625 38.03125 26.90625 45.703125 
L 26.90625 57.8125 
Q 26.90625 64.75 24.828125 66.875 
Q 22.75 69 15.921875 69 
L 12.5 69 
L 12.5 75.984375 
L 15.578125 75.984375 
Q 27.734375 75.984375 31.8125 72.390625 
Q 35.890625 68.796875 35.890625 58.015625 
L 35.890625 46.296875 
Q 35.890625 39.015625 38.515625 36.203125 
Q 41.15625 33.40625 48.09375 33.40625 
L 51.125 33.40625 
L 51.125 26.421875 
L 48.09375 26.421875 
Q 41.15625 26.421875 38.515625 23.578125 
Q 35.890625 20.75 35.890625 13.375 
L 35.890625 1.703125 
Q 35.890625 -9.078125 31.8125 -12.6875 
Q 27.734375 -16.3125 15.578125 -16.3125 
L 12.5 -16.3125 
z
" id="DejaVuSans-7d"/>
     <path d="M 11.71875 12.40625 
L 22.015625 12.40625 
L 22.015625 4 
L 14.015625 -11.625 
L 7.71875 -11.625 
L 11.71875 4 
z
" id="DejaVuSans-2c"/>
    </defs>
    <g transform="translate(283.34396 285.5648)scale(0.2 -0.2)">
     <use xlink:href="#DejaVuSans-7b"/>
     <use x="63.623047" xlink:href="#DejaVuSans-66"/>
     <use x="98.828125" xlink:href="#DejaVuSans-32"/>
     <use x="162.451172" xlink:href="#DejaVuSans-30"/>
     <use x="226.074219" xlink:href="#DejaVuSans-2d"/>
     <use x="262.158203" xlink:href="#DejaVuSans-66"/>
     <use x="297.363281" xlink:href="#DejaVuSans-32"/>
     <use x="360.986328" xlink:href="#DejaVuSans-34"/>
     <use x="424.609375" xlink:href="#DejaVuSans-7d"/>
     <use x="488.232422" xlink:href="#DejaVuSans-2c"/>
     <use x="520.019531" xlink:href="#DejaVuSans-20"/>
     <use x="551.806641" xlink:href="#DejaVuSans-32"/>
     <use x="615.429688" xlink:href="#DejaVuSans-30"/>
     <use x="679.052734" xlink:href="#DejaVuSans-2d"/>
     <use x="715.136719" xlink:href="#DejaVuSans-44"/>
    </g>
   </g>
   <g id="text_7">
    <!-- v0.0.0 -->
    <defs>
     <path d="M 2.984375 54.6875 
L 12.5 54.6875 
L 29.59375 8.796875 
L 46.6875 54.6875 
L 56.203125 54.6875 
L 35.6875 0 
L 23.484375 0 
z
" id="DejaVuSans-76"/>
     <path d="M 10.6875 12.40625 
L 21 12.40625 
L 21 0 
L 10.6875 0 
z
" id="DejaVuSans-2e"/>
    </defs>
    <g style="fill:#808080;" transform="translate(212.41475 286.342713)scale(0.1 -0.1)">
     <use xlink:href="#DejaVuSans-76"/>
     <use x="59.179688" xlink:href="#DejaVuSans-30"/>
     <use x="122.802734" xlink:href="#DejaVuSans-2e"/>
     <use x="154.589844" xlink:href="#DejaVuSans-30"/>
     <use x="218.212891" xlink:href="#DejaVuSans-2e"/>
     <use x="250" xlink:href="#DejaVuSans-30"/>
    </g>
   </g>
  </g>
 </g>
 <defs>
  <clipPath id="p17726ac703">
   <rect height="285.76" width="445.152" x="5.52" y="5.52"/>
  </clipPath>
 </defs>
</svg>
