<?xml version="1.0" encoding="utf-8" standalone="no"?>
<!DOCTYPE svg PUBLIC "-//W3C//DTD SVG 1.1//EN"
  "http://www.w3.org/Graphics/SVG/1.1/DTD/svg11.dtd">
<!-- Created with matplotlib (http://matplotlib.org/) -->
<svg height="345.6pt" version="1.1" viewBox="0 0 460.8 345.6" width="460.8pt" xmlns="http://www.w3.org/2000/svg" xmlns:xlink="http://www.w3.org/1999/xlink">
 <defs>
  <style type="text/css">
*{stroke-linecap:butt;stroke-linejoin:round;}
  </style>
 </defs>
 <g id="figure_1">
  <g id="patch_1">
   <path d="M 0 345.6 
L 460.8 345.6 
L 460.8 0 
L 0 0 
z
" style="fill:#ffffff;"/>
  </g>
  <g id="axes_1">
   <g id="patch_2">
    <path d="M 5.52 291.28 
L 450.672 291.28 
L 450.672 5.52 
L 5.52 5.52 
z
" style="fill:#ffffff;"/>
   </g>
   <g id="matplotlib.axis_1">
    <g id="xtick_1">
     <g id="line2d_1">
      <path clip-path="url(#p41cde77507)" d="M 5.410826 291.28 
L 5.410826 5.52 
" style="fill:none;stroke:#b0b0b0;stroke-linecap:square;stroke-width:0.8;"/>
     </g>
     <g id="line2d_2">
      <defs>
       <path d="M 0 0 
L 0 3.5 
" id="m7f832c48de" style="stroke:#000000;stroke-width:0.8;"/>
      </defs>
      <g>
       <use style="stroke:#000000;stroke-width:0.8;" x="5.410826" xlink:href="#m7f832c48de" y="291.28"/>
      </g>
     </g>
    </g>
    <g id="xtick_2">
     <g id="line2d_3">
      <path clip-path="url(#p41cde77507)" d="M 106.465894 291.28 
L 106.465894 5.52 
" style="fill:none;stroke:#b0b0b0;stroke-linecap:square;stroke-width:0.8;"/>
     </g>
     <g id="line2d_4">
      <g>
       <use style="stroke:#000000;stroke-width:0.8;" x="106.465894" xlink:href="#m7f832c48de" y="291.28"/>
      </g>
     </g>
     <g id="text_1">
      <!-- -4 -->
      <defs>
       <path d="M 4.890625 31.390625 
L 31.203125 31.390625 
L 31.203125 23.390625 
L 4.890625 23.390625 
z
" id="DejaVuSans-2d"/>
       <path d="M 37.796875 64.3125 
L 12.890625 25.390625 
L 37.796875 25.390625 
z
M 35.203125 72.90625 
L 47.609375 72.90625 
L 47.609375 25.390625 
L 58.015625 25.390625 
L 58.015625 17.1875 
L 47.609375 17.1875 
L 47.609375 0 
L 37.796875 0 
L 37.796875 17.1875 
L 4.890625 17.1875 
L 4.890625 26.703125 
z
" id="DejaVuSans-34"/>
      </defs>
      <g transform="translate(96.495582 313.476875)scale(0.2 -0.2)">
       <use xlink:href="#DejaVuSans-2d"/>
       <use x="36.083984" xlink:href="#DejaVuSans-34"/>
      </g>
     </g>
    </g>
    <g id="xtick_3">
     <g id="line2d_5">
      <path clip-path="url(#p41cde77507)" d="M 207.520963 291.28 
L 207.520963 5.52 
" style="fill:none;stroke:#b0b0b0;stroke-linecap:square;stroke-width:0.8;"/>
     </g>
     <g id="line2d_6">
      <g>
       <use style="stroke:#000000;stroke-width:0.8;" x="207.520963" xlink:href="#m7f832c48de" y="291.28"/>
      </g>
     </g>
     <g id="text_2">
      <!-- 0 -->
      <defs>
       <path d="M 31.78125 66.40625 
Q 24.171875 66.40625 20.328125 58.90625 
Q 16.5 51.421875 16.5 36.375 
Q 16.5 21.390625 20.328125 13.890625 
Q 24.171875 6.390625 31.78125 6.390625 
Q 39.453125 6.390625 43.28125 13.890625 
Q 47.125 21.390625 47.125 36.375 
Q 47.125 51.421875 43.28125 58.90625 
Q 39.453125 66.40625 31.78125 66.40625 
z
M 31.78125 74.21875 
Q 44.046875 74.21875 50.515625 64.515625 
Q 56.984375 54.828125 56.984375 36.375 
Q 56.984375 17.96875 50.515625 8.265625 
Q 44.046875 -1.421875 31.78125 -1.421875 
Q 19.53125 -1.421875 13.0625 8.265625 
Q 6.59375 17.96875 6.59375 36.375 
Q 6.59375 54.828125 13.0625 64.515625 
Q 19.53125 74.21875 31.78125 74.21875 
z
" id="DejaVuSans-30"/>
      </defs>
      <g transform="translate(201.158463 313.476875)scale(0.2 -0.2)">
       <use xlink:href="#DejaVuSans-30"/>
      </g>
     </g>
    </g>
    <g id="xtick_4">
     <g id="line2d_7">
      <path clip-path="url(#p41cde77507)" d="M 308.576031 291.28 
L 308.576031 5.52 
" style="fill:none;stroke:#b0b0b0;stroke-linecap:square;stroke-width:0.8;"/>
     </g>
     <g id="line2d_8">
      <g>
       <use style="stroke:#000000;stroke-width:0.8;" x="308.576031" xlink:href="#m7f832c48de" y="291.28"/>
      </g>
     </g>
     <g id="text_3">
      <!-- 4 -->
      <g transform="translate(302.213531 313.476875)scale(0.2 -0.2)">
       <use xlink:href="#DejaVuSans-34"/>
      </g>
     </g>
    </g>
    <g id="xtick_5">
     <g id="line2d_9">
      <path clip-path="url(#p41cde77507)" d="M 409.631099 291.28 
L 409.631099 5.52 
" style="fill:none;stroke:#b0b0b0;stroke-linecap:square;stroke-width:0.8;"/>
     </g>
     <g id="line2d_10">
      <g>
       <use style="stroke:#000000;stroke-width:0.8;" x="409.631099" xlink:href="#m7f832c48de" y="291.28"/>
      </g>
     </g>
     <g id="text_4">
      <!-- 8 -->
      <defs>
       <path d="M 31.78125 34.625 
Q 24.75 34.625 20.71875 30.859375 
Q 16.703125 27.09375 16.703125 20.515625 
Q 16.703125 13.921875 20.71875 10.15625 
Q 24.75 6.390625 31.78125 6.390625 
Q 38.8125 6.390625 42.859375 10.171875 
Q 46.921875 13.96875 46.921875 20.515625 
Q 46.921875 27.09375 42.890625 30.859375 
Q 38.875 34.625 31.78125 34.625 
z
M 21.921875 38.8125 
Q 15.578125 40.375 12.03125 44.71875 
Q 8.5 49.078125 8.5 55.328125 
Q 8.5 64.0625 14.71875 69.140625 
Q 20.953125 74.21875 31.78125 74.21875 
Q 42.671875 74.21875 48.875 69.140625 
Q 55.078125 64.0625 55.078125 55.328125 
Q 55.078125 49.078125 51.53125 44.71875 
Q 48 40.375 41.703125 38.8125 
Q 48.828125 37.15625 52.796875 32.3125 
Q 56.78125 27.484375 56.78125 20.515625 
Q 56.78125 9.90625 50.3125 4.234375 
Q 43.84375 -1.421875 31.78125 -1.421875 
Q 19.734375 -1.421875 13.25 4.234375 
Q 6.78125 9.90625 6.78125 20.515625 
Q 6.78125 27.484375 10.78125 32.3125 
Q 14.796875 37.15625 21.921875 38.8125 
z
M 18.3125 54.390625 
Q 18.3125 48.734375 21.84375 45.5625 
Q 25.390625 42.390625 31.78125 42.390625 
Q 38.140625 42.390625 41.71875 45.5625 
Q 45.3125 48.734375 45.3125 54.390625 
Q 45.3125 60.0625 41.71875 63.234375 
Q 38.140625 66.40625 31.78125 66.40625 
Q 25.390625 66.40625 21.84375 63.234375 
Q 18.3125 60.0625 18.3125 54.390625 
z
" id="DejaVuSans-38"/>
      </defs>
      <g transform="translate(403.268599 313.476875)scale(0.2 -0.2)">
       <use xlink:href="#DejaVuSans-38"/>
      </g>
     </g>
    </g>
    <g id="text_5">
     <!-- log10 of Df -->
     <defs>
      <path d="M 9.421875 75.984375 
L 18.40625 75.984375 
L 18.40625 0 
L 9.421875 0 
z
" id="DejaVuSans-6c"/>
      <path d="M 30.609375 48.390625 
Q 23.390625 48.390625 19.1875 42.75 
Q 14.984375 37.109375 14.984375 27.296875 
Q 14.984375 17.484375 19.15625 11.84375 
Q 23.34375 6.203125 30.609375 6.203125 
Q 37.796875 6.203125 41.984375 11.859375 
Q 46.1875 17.53125 46.1875 27.296875 
Q 46.1875 37.015625 41.984375 42.703125 
Q 37.796875 48.390625 30.609375 48.390625 
z
M 30.609375 56 
Q 42.328125 56 49.015625 48.375 
Q 55.71875 40.765625 55.71875 27.296875 
Q 55.71875 13.875 49.015625 6.21875 
Q 42.328125 -1.421875 30.609375 -1.421875 
Q 18.84375 -1.421875 12.171875 6.21875 
Q 5.515625 13.875 5.515625 27.296875 
Q 5.515625 40.765625 12.171875 48.375 
Q 18.84375 56 30.609375 56 
z
" id="DejaVuSans-6f"/>
      <path d="M 45.40625 27.984375 
Q 45.40625 37.75 41.375 43.109375 
Q 37.359375 48.484375 30.078125 48.484375 
Q 22.859375 48.484375 18.828125 43.109375 
Q 14.796875 37.75 14.796875 27.984375 
Q 14.796875 18.265625 18.828125 12.890625 
Q 22.859375 7.515625 30.078125 7.515625 
Q 37.359375 7.515625 41.375 12.890625 
Q 45.40625 18.265625 45.40625 27.984375 
z
M 54.390625 6.78125 
Q 54.390625 -7.171875 48.1875 -13.984375 
Q 42 -20.796875 29.203125 -20.796875 
Q 24.46875 -20.796875 20.265625 -20.09375 
Q 16.0625 -19.390625 12.109375 -17.921875 
L 12.109375 -9.1875 
Q 16.0625 -11.328125 19.921875 -12.34375 
Q 23.78125 -13.375 27.78125 -13.375 
Q 36.625 -13.375 41.015625 -8.765625 
Q 45.40625 -4.15625 45.40625 5.171875 
L 45.40625 9.625 
Q 42.625 4.78125 38.28125 2.390625 
Q 33.9375 0 27.875 0 
Q 17.828125 0 11.671875 7.65625 
Q 5.515625 15.328125 5.515625 27.984375 
Q 5.515625 40.671875 11.671875 48.328125 
Q 17.828125 56 27.875 56 
Q 33.9375 56 38.28125 53.609375 
Q 42.625 51.21875 45.40625 46.390625 
L 45.40625 54.6875 
L 54.390625 54.6875 
z
" id="DejaVuSans-67"/>
      <path d="M 12.40625 8.296875 
L 28.515625 8.296875 
L 28.515625 63.921875 
L 10.984375 60.40625 
L 10.984375 69.390625 
L 28.421875 72.90625 
L 38.28125 72.90625 
L 38.28125 8.296875 
L 54.390625 8.296875 
L 54.390625 0 
L 12.40625 0 
z
" id="DejaVuSans-31"/>
      <path id="DejaVuSans-20"/>
      <path d="M 37.109375 75.984375 
L 37.109375 68.5 
L 28.515625 68.5 
Q 23.6875 68.5 21.796875 66.546875 
Q 19.921875 64.59375 19.921875 59.515625 
L 19.921875 54.6875 
L 34.71875 54.6875 
L 34.71875 47.703125 
L 19.921875 47.703125 
L 19.921875 0 
L 10.890625 0 
L 10.890625 47.703125 
L 2.296875 47.703125 
L 2.296875 54.6875 
L 10.890625 54.6875 
L 10.890625 58.5 
Q 10.890625 67.625 15.140625 71.796875 
Q 19.390625 75.984375 28.609375 75.984375 
z
" id="DejaVuSans-66"/>
      <path d="M 19.671875 64.796875 
L 19.671875 8.109375 
L 31.59375 8.109375 
Q 46.6875 8.109375 53.6875 14.9375 
Q 60.6875 21.78125 60.6875 36.53125 
Q 60.6875 51.171875 53.6875 57.984375 
Q 46.6875 64.796875 31.59375 64.796875 
z
M 9.8125 72.90625 
L 30.078125 72.90625 
Q 51.265625 72.90625 61.171875 64.09375 
Q 71.09375 55.28125 71.09375 36.53125 
Q 71.09375 17.671875 61.125 8.828125 
Q 51.171875 0 30.078125 0 
L 9.8125 0 
z
" id="DejaVuSans-44"/>
     </defs>
     <g transform="translate(172.910063 336.833125)scale(0.2 -0.2)">
      <use xlink:href="#DejaVuSans-6c"/>
      <use x="27.783203" xlink:href="#DejaVuSans-6f"/>
      <use x="88.964844" xlink:href="#DejaVuSans-67"/>
      <use x="152.441406" xlink:href="#DejaVuSans-31"/>
      <use x="216.064453" xlink:href="#DejaVuSans-30"/>
      <use x="279.6875" xlink:href="#DejaVuSans-20"/>
      <use x="311.474609" xlink:href="#DejaVuSans-6f"/>
      <use x="372.65625" xlink:href="#DejaVuSans-66"/>
      <use x="407.861328" xlink:href="#DejaVuSans-20"/>
      <use x="439.648438" xlink:href="#DejaVuSans-44"/>
      <use x="516.650391" xlink:href="#DejaVuSans-66"/>
     </g>
    </g>
   </g>
   <g id="matplotlib.axis_2">
    <g id="ytick_1">
     <g id="line2d_11">
      <path clip-path="url(#p41cde77507)" d="M 5.52 291.28 
L 450.672 291.28 
" style="fill:none;stroke:#b0b0b0;stroke-linecap:square;stroke-width:0.8;"/>
     </g>
     <g id="line2d_12">
      <defs>
       <path d="M 0 0 
L -3.5 0 
" id="mdfe03500e7" style="stroke:#000000;stroke-width:0.8;"/>
      </defs>
      <g>
       <use style="stroke:#000000;stroke-width:0.8;" x="5.52" xlink:href="#mdfe03500e7" y="291.28"/>
      </g>
     </g>
    </g>
    <g id="ytick_2">
     <g id="line2d_13">
      <path clip-path="url(#p41cde77507)" d="M 5.52 234.693861 
L 450.672 234.693861 
" style="fill:none;stroke:#b0b0b0;stroke-linecap:square;stroke-width:0.8;"/>
     </g>
     <g id="line2d_14">
      <g>
       <use style="stroke:#000000;stroke-width:0.8;" x="5.52" xlink:href="#mdfe03500e7" y="234.693861"/>
      </g>
     </g>
    </g>
    <g id="ytick_3">
     <g id="line2d_15">
      <path clip-path="url(#p41cde77507)" d="M 5.52 178.107723 
L 450.672 178.107723 
" style="fill:none;stroke:#b0b0b0;stroke-linecap:square;stroke-width:0.8;"/>
     </g>
     <g id="line2d_16">
      <g>
       <use style="stroke:#000000;stroke-width:0.8;" x="5.52" xlink:href="#mdfe03500e7" y="178.107723"/>
      </g>
     </g>
    </g>
    <g id="ytick_4">
     <g id="line2d_17">
      <path clip-path="url(#p41cde77507)" d="M 5.52 121.521584 
L 450.672 121.521584 
" style="fill:none;stroke:#b0b0b0;stroke-linecap:square;stroke-width:0.8;"/>
     </g>
     <g id="line2d_18">
      <g>
       <use style="stroke:#000000;stroke-width:0.8;" x="5.52" xlink:href="#mdfe03500e7" y="121.521584"/>
      </g>
     </g>
    </g>
    <g id="ytick_5">
     <g id="line2d_19">
      <path clip-path="url(#p41cde77507)" d="M 5.52 64.935446 
L 450.672 64.935446 
" style="fill:none;stroke:#b0b0b0;stroke-linecap:square;stroke-width:0.8;"/>
     </g>
     <g id="line2d_20">
      <g>
       <use style="stroke:#000000;stroke-width:0.8;" x="5.52" xlink:href="#mdfe03500e7" y="64.935446"/>
      </g>
     </g>
    </g>
    <g id="ytick_6">
     <g id="line2d_21">
      <path clip-path="url(#p41cde77507)" d="M 5.52 8.349307 
L 450.672 8.349307 
" style="fill:none;stroke:#b0b0b0;stroke-linecap:square;stroke-width:0.8;"/>
     </g>
     <g id="line2d_22">
      <g>
       <use style="stroke:#000000;stroke-width:0.8;" x="5.52" xlink:href="#mdfe03500e7" y="8.349307"/>
      </g>
     </g>
    </g>
   </g>
   <g id="line2d_23">
    <path clip-path="url(#p41cde77507)" d="M 191.528179 291.28 
L 191.528179 287.507591 
L 204.771941 287.507591 
L 204.771941 283.735182 
L 205.268038 283.735182 
L 205.268038 279.962772 
L 206.938362 279.962772 
L 206.938362 276.190363 
L 208.606594 276.190363 
L 208.606594 272.417954 
L 211.883331 272.417954 
L 211.883331 268.645545 
L 212.98678 268.645545 
L 212.98678 264.873135 
L 213.653751 264.873135 
L 213.653751 261.100726 
L 214.807857 261.100726 
L 214.807857 257.328317 
L 215.759283 257.328317 
L 215.759283 253.555908 
L 218.629253 253.555908 
L 218.629253 249.783498 
L 219.319637 249.783498 
L 219.319637 246.011089 
L 219.733927 246.011089 
L 219.733927 242.23868 
L 220.672594 242.23868 
L 220.672594 238.466271 
L 222.347208 238.466271 
L 222.347208 234.693861 
L 241.904259 234.693861 
L 241.904259 230.921452 
L 244.189953 230.921452 
L 244.189953 227.149043 
L 248.141381 227.149043 
L 248.141381 223.376634 
L 248.401758 223.376634 
L 248.401758 219.604224 
L 249.604745 219.604224 
L 249.604745 215.831815 
L 251.515343 215.831815 
L 251.515343 212.059406 
L 252.387165 212.059406 
L 252.387165 208.286997 
L 252.857199 208.286997 
L 252.857199 204.514587 
L 253.414122 204.514587 
L 253.414122 200.742178 
L 253.727246 200.742178 
L 253.727246 196.969769 
L 254.343409 196.969769 
L 254.343409 193.19736 
L 254.691614 193.19736 
L 254.772003 185.652541 
L 256.727405 185.652541 
L 256.727405 181.880132 
L 257.114728 181.880132 
L 257.114728 178.107723 
L 263.803929 178.107723 
L 263.803929 174.335314 
L 266.20634 174.335314 
L 266.20634 170.562904 
L 266.721122 170.562904 
L 266.798171 155.473267 
L 267.041793 155.473267 
L 267.041793 151.700858 
L 267.307985 151.700858 
L 267.307985 147.928449 
L 267.648811 147.928449 
L 267.648811 144.15604 
L 268.028474 144.15604 
L 268.028474 140.38363 
L 269.419407 140.38363 
L 269.419407 136.611221 
L 269.88481 136.611221 
L 269.88481 132.838812 
L 271.249408 132.838812 
L 271.249408 129.066403 
L 272.720629 129.066403 
L 272.720629 125.293993 
L 272.870883 125.293993 
L 272.870883 121.521584 
L 302.318738 121.521584 
L 302.318738 117.749175 
L 306.217412 117.749175 
L 306.217412 113.976766 
L 307.686472 113.976766 
L 307.686472 110.204356 
L 308.931869 110.204356 
L 308.931869 106.431947 
L 309.407938 106.431947 
L 309.407938 102.659538 
L 310.004038 102.659538 
L 310.004038 98.887129 
L 314.43254 98.887129 
L 314.43254 95.114719 
L 315.114243 95.114719 
L 315.114243 91.34231 
L 315.550052 91.34231 
L 315.550052 87.569901 
L 317.163279 87.569901 
L 317.163279 83.797492 
L 318.31325 83.797492 
L 318.31325 80.025083 
L 319.360306 80.025083 
L 319.360306 76.252673 
L 319.708985 76.252673 
L 319.708985 72.480264 
L 322.774389 72.480264 
L 322.774389 68.707855 
L 327.897286 68.707855 
L 327.897286 64.935446 
L 340.401934 64.935446 
L 340.401934 61.163036 
L 344.383499 61.163036 
L 344.383499 57.390627 
L 345.27207 57.390627 
L 345.27207 53.618218 
L 351.673956 53.618218 
L 351.673956 49.845809 
L 352.710356 49.845809 
L 352.710356 46.073399 
L 356.691481 46.073399 
L 356.691481 42.30099 
L 361.224475 42.30099 
L 361.224475 38.528581 
L 362.50599 38.528581 
L 362.50599 34.756172 
L 364.827106 34.756172 
L 364.827106 30.983762 
L 367.891946 30.983762 
L 367.891946 27.211353 
L 370.140094 27.211353 
L 370.199017 15.894125 
L 370.30707 15.894125 
L 370.30707 12.121716 
L 379.808093 12.121716 
L 379.808093 8.349307 
L 379.808093 8.349307 
L 450.672 8.349307 
L 450.672 8.349307 
" style="fill:none;stroke:#ff0000;stroke-linecap:square;stroke-width:3;"/>
   </g>
   <g id="line2d_24">
    <path clip-path="url(#p41cde77507)" d="M 238.553332 291.28 
L 238.553332 287.507591 
L 242.485122 287.507591 
L 242.485122 283.735182 
L 244.830619 283.735182 
L 244.830619 279.962772 
L 246.046096 279.962772 
L 246.046096 276.190363 
L 247.081121 276.190363 
L 247.081121 272.417954 
L 247.794005 272.417954 
L 247.794005 268.645545 
L 249.960505 268.645545 
L 249.960505 264.873135 
L 250.618506 264.873135 
L 250.618506 261.100726 
L 250.774046 261.100726 
L 250.868389 253.555908 
L 251.036174 253.555908 
L 251.036174 249.783498 
L 251.381401 249.783498 
L 251.381401 246.011089 
L 254.314563 246.011089 
L 254.314563 242.23868 
L 255.402212 242.23868 
L 255.402212 238.466271 
L 256.557079 238.466271 
L 256.557079 234.693861 
L 285.356525 234.693861 
L 285.356525 230.921452 
L 287.565506 230.921452 
L 287.565506 227.149043 
L 289.462309 227.149043 
L 289.462309 223.376634 
L 289.601549 223.376634 
L 289.601549 219.604224 
L 290.11278 219.604224 
L 290.11278 215.831815 
L 290.431344 215.831815 
L 290.505388 208.286997 
L 291.0193 208.286997 
L 291.0193 204.514587 
L 291.284528 204.514587 
L 291.284528 200.742178 
L 291.966507 200.742178 
L 292.006405 193.19736 
L 292.38958 193.19736 
L 292.38958 189.42495 
L 292.826819 189.42495 
L 292.826819 185.652541 
L 293.142475 185.652541 
L 293.18124 178.107723 
L 294.04492 178.107723 
L 294.04492 174.335314 
L 310.917169 174.335314 
L 310.917169 170.562904 
L 312.011699 170.562904 
L 312.011699 166.790495 
L 314.329214 166.790495 
L 314.329214 163.018086 
L 316.580021 163.018086 
L 316.580021 159.245677 
L 324.60808 159.245677 
L 324.60808 155.473267 
L 326.197761 155.473267 
L 326.197761 151.700858 
L 334.366463 151.700858 
L 334.366463 147.928449 
L 336.775897 147.928449 
L 336.775897 144.15604 
L 337.996933 144.15604 
L 337.996933 140.38363 
L 342.921115 140.38363 
L 342.921115 136.611221 
L 349.081516 136.611221 
L 349.081516 132.838812 
L 349.440079 132.838812 
L 349.440079 129.066403 
L 350.731258 129.066403 
L 350.731258 125.293993 
L 363.384483 125.293993 
L 363.384483 121.521584 
L 365.733363 121.521584 
L 365.733363 117.749175 
L 366.621129 117.749175 
L 366.621129 113.976766 
L 368.289945 113.976766 
L 368.289945 110.204356 
L 372.05305 110.204356 
L 372.05305 106.431947 
L 373.695252 106.431947 
L 373.724691 98.887129 
L 376.67409 98.887129 
L 376.67409 95.114719 
L 377.998585 95.114719 
L 377.998585 91.34231 
L 379.117064 91.34231 
L 379.117064 87.569901 
L 380.734789 87.569901 
L 380.734789 83.797492 
L 380.900423 83.797492 
L 380.900423 80.025083 
L 381.079457 80.025083 
L 381.079457 76.252673 
L 381.598005 76.252673 
L 381.598005 72.480264 
L 382.708862 72.480264 
L 382.708862 68.707855 
L 384.880599 68.707855 
L 384.880599 64.935446 
L 408.599409 64.935446 
L 408.599409 61.163036 
L 409.146881 61.163036 
L 409.146881 57.390627 
L 414.986062 57.390627 
L 414.986062 53.618218 
L 415.210142 53.618218 
L 415.210142 49.845809 
L 415.937672 49.845809 
L 415.937672 46.073399 
L 416.116695 46.073399 
L 416.116695 42.30099 
L 417.466357 42.30099 
L 417.466357 38.528581 
L 420.734117 38.528581 
L 420.734117 34.756172 
L 423.063375 34.756172 
L 423.063375 30.983762 
L 425.605715 30.983762 
L 425.605715 27.211353 
L 426.246112 27.211353 
L 426.246112 23.438944 
L 426.913301 23.438944 
L 426.913301 19.666535 
L 428.586748 19.666535 
L 428.586748 15.894125 
L 429.087433 15.894125 
L 429.087433 12.121716 
L 429.469087 12.121716 
L 429.469087 8.349307 
L 429.469087 8.349307 
L 450.672 8.349307 
L 450.672 8.349307 
" style="fill:none;stroke:#00bfbf;stroke-linecap:square;stroke-width:1.5;"/>
   </g>
   <g id="line2d_25">
    <path clip-path="url(#p41cde77507)" d="M 238.553332 291.28 
L 238.553332 287.507591 
L 242.485122 287.507591 
L 242.485122 283.735182 
L 244.830619 283.735182 
L 244.830619 279.962772 
L 246.046096 279.962772 
L 246.046096 276.190363 
L 247.081121 276.190363 
L 247.081121 272.417954 
L 247.794005 272.417954 
L 247.794005 268.645545 
L 249.960505 268.645545 
L 249.960505 264.873135 
L 250.618506 264.873135 
L 250.618506 261.100726 
L 250.774046 261.100726 
L 250.868389 253.555908 
L 251.036174 253.555908 
L 251.036174 249.783498 
L 251.381401 249.783498 
L 251.381401 246.011089 
L 252.22776 246.011089 
L 252.22776 242.23868 
L 254.405662 242.23868 
L 254.405662 238.466271 
L 255.402212 238.466271 
L 255.402212 234.693861 
L 285.356525 234.693861 
L 285.356525 230.921452 
L 287.565506 230.921452 
L 287.565506 227.149043 
L 289.462309 227.149043 
L 289.462309 223.376634 
L 289.601549 223.376634 
L 289.601549 219.604224 
L 290.11278 219.604224 
L 290.11278 215.831815 
L 290.431344 215.831815 
L 290.505388 208.286997 
L 291.0193 208.286997 
L 291.0193 204.514587 
L 291.149135 204.514587 
L 291.149135 200.742178 
L 291.284528 200.742178 
L 291.284528 196.969769 
L 291.966507 196.969769 
L 292.006405 189.42495 
L 292.38958 189.42495 
L 292.38958 185.652541 
L 292.515911 185.652541 
L 292.515911 181.880132 
L 292.826819 181.880132 
L 292.826819 178.107723 
L 293.142475 178.107723 
L 293.18124 170.562904 
L 297.892858 170.562904 
L 297.892858 166.790495 
L 298.226777 166.790495 
L 298.226777 163.018086 
L 300.689626 163.018086 
L 300.689626 159.245677 
L 310.917169 159.245677 
L 310.917169 155.473267 
L 312.011699 155.473267 
L 312.011699 151.700858 
L 312.550204 151.700858 
L 312.550204 147.928449 
L 324.436462 147.928449 
L 324.436462 144.15604 
L 326.197761 144.15604 
L 326.197761 140.38363 
L 329.496341 140.38363 
L 329.496341 136.611221 
L 333.278723 136.611221 
L 333.278723 132.838812 
L 336.775897 132.838812 
L 336.775897 129.066403 
L 337.996933 129.066403 
L 337.996933 125.293993 
L 361.626732 125.293993 
L 361.626732 121.521584 
L 363.384483 121.521584 
L 363.384483 117.749175 
L 365.733363 117.749175 
L 365.733363 113.976766 
L 366.621129 113.976766 
L 366.621129 110.204356 
L 368.289945 110.204356 
L 368.289945 106.431947 
L 371.474743 106.431947 
L 371.474743 102.659538 
L 372.05305 102.659538 
L 372.05305 98.887129 
L 373.055125 98.887129 
L 373.055125 95.114719 
L 373.307022 95.114719 
L 373.307022 91.34231 
L 373.695252 91.34231 
L 373.711626 83.797492 
L 375.357104 83.797492 
L 375.357104 80.025083 
L 377.998585 80.025083 
L 377.998585 76.252673 
L 380.900423 76.252673 
L 380.900423 72.480264 
L 381.079457 72.480264 
L 381.079457 68.707855 
L 381.598005 68.707855 
L 381.598005 64.935446 
L 408.599409 64.935446 
L 408.599409 61.163036 
L 409.146881 61.163036 
L 409.146881 57.390627 
L 411.955253 57.390627 
L 411.955253 53.618218 
L 412.452551 53.618218 
L 412.452551 49.845809 
L 412.971673 49.845809 
L 412.971673 46.073399 
L 415.210142 46.073399 
L 415.210142 42.30099 
L 415.937672 42.30099 
L 415.937672 38.528581 
L 417.466357 38.528581 
L 417.466357 34.756172 
L 420.734117 34.756172 
L 420.734117 30.983762 
L 421.530262 30.983762 
L 421.530262 27.211353 
L 422.33162 27.211353 
L 422.33162 23.438944 
L 423.063375 23.438944 
L 423.063375 19.666535 
L 424.747723 19.666535 
L 424.747723 15.894125 
L 428.369521 15.894125 
L 428.369521 12.121716 
L 428.586748 12.121716 
L 428.586748 8.349307 
L 428.586748 8.349307 
L 450.672 8.349307 
L 450.672 8.349307 
" style="fill:none;stroke:#bf00bf;stroke-linecap:square;stroke-width:1.5;"/>
   </g>
   <g id="line2d_26">
    <path clip-path="url(#p41cde77507)" d="M 238.553332 291.28 
L 238.553332 287.507591 
L 242.485122 287.507591 
L 242.485122 283.735182 
L 244.830619 283.735182 
L 244.830619 279.962772 
L 246.046096 279.962772 
L 246.046096 276.190363 
L 246.660249 276.190363 
L 246.660249 272.417954 
L 247.081121 272.417954 
L 247.10813 264.873135 
L 248.296544 264.873135 
L 248.296544 261.100726 
L 248.561511 261.100726 
L 248.561511 257.328317 
L 250.370329 257.328317 
L 250.370329 253.555908 
L 250.618506 253.555908 
L 250.618506 249.783498 
L 250.868389 249.783498 
L 250.868389 246.011089 
L 251.036174 246.011089 
L 251.036174 242.23868 
L 251.381401 242.23868 
L 251.381401 238.466271 
L 255.402212 238.466271 
L 255.402212 234.693861 
L 268.205555 234.693861 
L 268.205555 230.921452 
L 278.402033 230.921452 
L 278.402033 227.149043 
L 284.760523 227.149043 
L 284.760523 223.376634 
L 285.356525 223.376634 
L 285.356525 219.604224 
L 285.902582 219.604224 
L 285.902582 215.831815 
L 287.565506 215.831815 
L 287.565506 212.059406 
L 289.011332 212.059406 
L 289.011332 208.286997 
L 289.462309 208.286997 
L 289.53376 200.742178 
L 289.712148 200.742178 
L 289.712148 196.969769 
L 289.993176 196.969769 
L 289.993176 193.19736 
L 290.11278 193.19736 
L 290.11278 189.42495 
L 290.431344 189.42495 
L 290.431344 185.652541 
L 290.652807 185.652541 
L 290.731629 178.107723 
L 291.149135 178.107723 
L 291.149135 174.335314 
L 292.026001 174.335314 
L 292.026001 170.562904 
L 292.467513 170.562904 
L 292.515911 163.018086 
L 292.826819 163.018086 
L 292.826819 159.245677 
L 293.142475 159.245677 
L 293.142475 155.473267 
L 297.812257 155.473267 
L 297.812257 151.700858 
L 298.006199 151.700858 
L 298.006199 147.928449 
L 298.226777 147.928449 
L 298.226777 144.15604 
L 300.689626 144.15604 
L 300.689626 140.38363 
L 310.917169 140.38363 
L 310.917169 136.611221 
L 312.882942 136.611221 
L 312.882942 132.838812 
L 316.071579 132.838812 
L 316.071579 129.066403 
L 316.884328 129.066403 
L 316.884328 125.293993 
L 333.794607 125.293993 
L 333.794607 121.521584 
L 361.242565 121.521584 
L 361.242565 117.749175 
L 363.384483 117.749175 
L 363.384483 113.976766 
L 363.719654 113.976766 
L 363.719654 110.204356 
L 365.733363 110.204356 
L 365.733363 106.431947 
L 366.621129 106.431947 
L 366.621129 102.659538 
L 366.815461 102.659538 
L 366.815461 98.887129 
L 367.122683 98.887129 
L 367.122683 95.114719 
L 367.933462 95.114719 
L 367.933462 91.34231 
L 368.289945 91.34231 
L 368.289945 87.569901 
L 369.164726 87.569901 
L 369.164726 83.797492 
L 369.34749 83.797492 
L 369.34749 80.025083 
L 371.452934 80.025083 
L 371.452934 76.252673 
L 372.05305 76.252673 
L 372.05305 72.480264 
L 376.151238 72.480264 
L 376.151238 68.707855 
L 381.598005 68.707855 
L 381.598005 64.935446 
L 408.599409 64.935446 
L 408.599409 61.163036 
L 409.146881 61.163036 
L 409.146881 57.390627 
L 411.955253 57.390627 
L 411.955253 53.618218 
L 412.452551 53.618218 
L 412.452551 49.845809 
L 412.971673 49.845809 
L 412.971673 46.073399 
L 413.444186 46.073399 
L 413.444186 42.30099 
L 415.178826 42.30099 
L 415.210142 34.756172 
L 415.937672 34.756172 
L 415.937672 30.983762 
L 416.813259 30.983762 
L 416.813259 27.211353 
L 417.747138 27.211353 
L 417.747138 23.438944 
L 420.734117 23.438944 
L 420.734117 19.666535 
L 424.088013 19.666535 
L 424.088013 15.894125 
L 427.741237 15.894125 
L 427.741237 12.121716 
L 428.566298 12.121716 
L 428.566298 8.349307 
L 428.566298 8.349307 
L 450.672 8.349307 
L 450.672 8.349307 
" style="fill:none;stroke:#000000;stroke-linecap:square;stroke-width:1.5;"/>
   </g>
   <g id="line2d_27">
    <path clip-path="url(#p41cde77507)" d="M 238.553332 291.28 
L 238.553332 287.507591 
L 242.485122 287.507591 
L 242.485122 283.735182 
L 244.830619 283.735182 
L 244.830619 279.962772 
L 245.294567 279.962772 
L 245.294567 276.190363 
L 245.736183 276.190363 
L 245.736183 272.417954 
L 246.046096 272.417954 
L 246.046096 268.645545 
L 246.660249 268.645545 
L 246.660249 264.873135 
L 247.10813 264.873135 
L 247.10813 261.100726 
L 248.296544 261.100726 
L 248.296544 257.328317 
L 248.561511 257.328317 
L 248.567122 249.783498 
L 249.415343 249.783498 
L 249.415343 246.011089 
L 250.70685 246.011089 
L 250.70685 242.23868 
L 250.868389 242.23868 
L 250.868389 238.466271 
L 251.381401 238.466271 
L 251.381401 234.693861 
L 263.545273 234.693861 
L 263.545273 230.921452 
L 266.559992 230.921452 
L 266.559992 227.149043 
L 268.205555 227.149043 
L 268.205555 223.376634 
L 268.488322 223.376634 
L 268.488322 219.604224 
L 270.740292 219.604224 
L 270.740292 215.831815 
L 271.759037 215.831815 
L 271.759037 212.059406 
L 274.111106 212.059406 
L 274.111106 208.286997 
L 274.704336 208.286997 
L 274.704336 204.514587 
L 278.229703 204.514587 
L 278.229703 200.742178 
L 278.402033 200.742178 
L 278.402033 196.969769 
L 279.430812 196.969769 
L 279.430812 193.19736 
L 282.517891 193.19736 
L 282.517891 189.42495 
L 287.565506 189.42495 
L 287.565506 185.652541 
L 288.186788 185.652541 
L 288.186788 181.880132 
L 289.011332 181.880132 
L 289.011332 178.107723 
L 289.53376 178.107723 
L 289.53376 174.335314 
L 289.712148 174.335314 
L 289.712148 170.562904 
L 289.992649 170.562904 
L 289.993176 163.018086 
L 290.11278 163.018086 
L 290.173592 155.473267 
L 290.284497 155.473267 
L 290.284497 151.700858 
L 290.652807 151.700858 
L 290.761366 140.38363 
L 291.149135 140.38363 
L 291.149135 136.611221 
L 291.833583 136.611221 
L 291.833583 132.838812 
L 292.026001 132.838812 
L 292.117525 125.293993 
L 298.006199 125.293993 
L 298.006199 121.521584 
L 355.848801 121.521584 
L 355.848801 117.749175 
L 359.054256 117.749175 
L 359.054256 113.976766 
L 361.242565 113.976766 
L 361.242565 110.204356 
L 362.622783 110.204356 
L 362.622783 106.431947 
L 363.384483 106.431947 
L 363.384483 102.659538 
L 365.733363 102.659538 
L 365.733363 98.887129 
L 367.122683 98.887129 
L 367.20263 91.34231 
L 367.624876 91.34231 
L 367.624876 87.569901 
L 367.933462 87.569901 
L 368.015697 80.025083 
L 368.289945 80.025083 
L 368.289945 76.252673 
L 368.52027 76.252673 
L 368.52027 72.480264 
L 369.34749 72.480264 
L 369.34749 68.707855 
L 369.888043 68.707855 
L 369.888043 64.935446 
L 407.912212 64.935446 
L 407.912212 61.163036 
L 408.599409 61.163036 
L 408.599409 57.390627 
L 409.146881 57.390627 
L 409.146881 53.618218 
L 410.549452 53.618218 
L 410.549452 49.845809 
L 411.445089 49.845809 
L 411.445089 46.073399 
L 411.594569 46.073399 
L 411.594569 42.30099 
L 411.922815 42.30099 
L 411.955253 34.756172 
L 412.971673 34.756172 
L 412.971673 30.983762 
L 413.444186 30.983762 
L 413.444186 27.211353 
L 415.067112 27.211353 
L 415.067112 23.438944 
L 415.304601 23.438944 
L 415.304601 19.666535 
L 418.487546 19.666535 
L 418.487546 15.894125 
L 420.734117 15.894125 
L 420.734117 12.121716 
L 422.831628 12.121716 
L 422.831628 8.349307 
L 422.831628 8.349307 
L 450.672 8.349307 
L 450.672 8.349307 
" style="fill:none;stroke:#00bfbf;stroke-linecap:square;stroke-width:1.5;"/>
   </g>
   <g id="line2d_28">
    <path clip-path="url(#p41cde77507)" d="M 221.59143 291.28 
L 221.59143 287.507591 
L 221.89233 287.507591 
L 221.89233 283.735182 
L 223.007162 283.735182 
L 223.007162 279.962772 
L 225.303973 279.962772 
L 225.303973 276.190363 
L 226.589894 276.190363 
L 226.627874 268.645545 
L 227.016606 268.645545 
L 227.016606 264.873135 
L 227.356259 264.873135 
L 227.356259 261.100726 
L 227.522081 261.100726 
L 227.522081 257.328317 
L 228.166838 257.328317 
L 228.166838 253.555908 
L 228.526545 253.555908 
L 228.526545 249.783498 
L 228.791036 249.783498 
L 228.867304 242.23868 
L 229.444763 242.23868 
L 229.444763 238.466271 
L 230.363815 238.466271 
L 230.363815 234.693861 
L 251.101129 234.693861 
L 251.101129 230.921452 
L 255.197073 230.921452 
L 255.197073 227.149043 
L 256.787721 227.149043 
L 256.787721 223.376634 
L 261.488693 223.376634 
L 261.488693 219.604224 
L 262.224346 219.604224 
L 262.224346 215.831815 
L 262.694751 215.831815 
L 262.694751 212.059406 
L 263.187816 212.059406 
L 263.187816 208.286997 
L 263.325849 208.286997 
L 263.325849 204.514587 
L 263.483107 204.514587 
L 263.483107 200.742178 
L 263.729568 200.742178 
L 263.729568 196.969769 
L 263.94195 196.969769 
L 263.94195 193.19736 
L 264.391533 193.19736 
L 264.391533 189.42495 
L 264.829084 189.42495 
L 264.829084 185.652541 
L 266.256902 185.652541 
L 266.256902 181.880132 
L 266.471129 181.880132 
L 266.471129 178.107723 
L 273.738012 178.107723 
L 273.738012 174.335314 
L 274.823941 174.335314 
L 274.823941 170.562904 
L 275.156117 170.562904 
L 275.156117 166.790495 
L 275.555703 166.790495 
L 275.555703 163.018086 
L 276.221056 163.018086 
L 276.221056 159.245677 
L 276.585328 159.245677 
L 276.585328 155.473267 
L 277.491953 155.473267 
L 277.491953 151.700858 
L 278.497875 151.700858 
L 278.497875 147.928449 
L 278.624348 147.928449 
L 278.732323 140.38363 
L 279.12718 140.38363 
L 279.12718 136.611221 
L 279.514432 136.611221 
L 279.514432 132.838812 
L 280.94173 132.838812 
L 280.94173 129.066403 
L 281.517508 129.066403 
L 281.517508 125.293993 
L 282.095025 125.293993 
L 282.095025 121.521584 
L 322.688368 121.521584 
L 322.688368 117.749175 
L 325.640583 117.749175 
L 325.749004 110.204356 
L 326.024013 110.204356 
L 326.024013 106.431947 
L 326.893455 106.431947 
L 326.893455 102.659538 
L 327.18504 102.659538 
L 327.18504 98.887129 
L 327.59581 98.887129 
L 327.657843 91.34231 
L 329.619246 91.34231 
L 329.619246 87.569901 
L 331.381129 87.569901 
L 331.381129 83.797492 
L 334.970409 83.797492 
L 334.970409 80.025083 
L 337.946527 80.025083 
L 337.946527 76.252673 
L 338.220001 76.252673 
L 338.220001 72.480264 
L 340.939303 72.480264 
L 340.939303 68.707855 
L 347.194217 68.707855 
L 347.194217 64.935446 
L 368.311627 64.935446 
L 368.311627 61.163036 
L 373.874962 61.163036 
L 373.874962 57.390627 
L 380.184125 57.390627 
L 380.184125 53.618218 
L 382.435412 53.618218 
L 382.435412 49.845809 
L 383.196975 49.845809 
L 383.196975 46.073399 
L 384.247339 46.073399 
L 384.247339 42.30099 
L 385.411876 42.30099 
L 385.411876 38.528581 
L 386.5141 38.528581 
L 386.5141 34.756172 
L 386.644425 34.756172 
L 386.644425 30.983762 
L 386.771157 30.983762 
L 386.771157 27.211353 
L 388.232049 27.211353 
L 388.232049 23.438944 
L 389.064961 23.438944 
L 389.064961 19.666535 
L 389.350102 19.666535 
L 389.350102 15.894125 
L 390.549125 15.894125 
L 390.549125 12.121716 
L 394.161121 12.121716 
L 394.161121 8.349307 
L 394.161121 8.349307 
L 450.672 8.349307 
L 450.672 8.349307 
" style="fill:none;stroke:#bf00bf;stroke-linecap:square;stroke-width:1.5;"/>
   </g>
   <g id="patch_3">
    <path d="M 5.52 291.28 
L 5.52 5.52 
" style="fill:none;stroke:#000000;stroke-linecap:square;stroke-linejoin:miter;stroke-width:0.8;"/>
   </g>
   <g id="patch_4">
    <path d="M 450.672 291.28 
L 450.672 5.52 
" style="fill:none;stroke:#000000;stroke-linecap:square;stroke-linejoin:miter;stroke-width:0.8;"/>
   </g>
   <g id="patch_5">
    <path d="M 5.52 291.28 
L 450.672 291.28 
" style="fill:none;stroke:#000000;stroke-linecap:square;stroke-linejoin:miter;stroke-width:0.8;"/>
   </g>
   <g id="patch_6">
    <path d="M 5.52 5.52 
L 450.672 5.52 
" style="fill:none;stroke:#000000;stroke-linecap:square;stroke-linejoin:miter;stroke-width:0.8;"/>
   </g>
   <g id="text_6">
    <!-- {f10-f14}, 20-D -->
    <defs>
     <path d="M 51.125 -9.28125 
L 51.125 -16.3125 
L 48.09375 -16.3125 
Q 35.9375 -16.3125 31.8125 -12.6875 
Q 27.6875 -9.078125 27.6875 1.703125 
L 27.6875 13.375 
Q 27.6875 20.75 25.046875 23.578125 
Q 22.40625 26.421875 15.484375 26.421875 
L 12.5 26.421875 
L 12.5 33.40625 
L 15.484375 33.40625 
Q 22.46875 33.40625 25.078125 36.203125 
Q 27.6875 39.015625 27.6875 46.296875 
L 27.6875 58.015625 
Q 27.6875 68.796875 31.8125 72.390625 
Q 35.9375 75.984375 48.09375 75.984375 
L 51.125 75.984375 
L 51.125 69 
L 47.796875 69 
Q 40.921875 69 38.8125 66.84375 
Q 36.71875 64.703125 36.71875 57.8125 
L 36.71875 45.703125 
Q 36.71875 38.03125 34.5 34.5625 
Q 32.28125 31.109375 26.90625 29.890625 
Q 32.328125 28.5625 34.515625 25.09375 
Q 36.71875 21.625 36.71875 14.015625 
L 36.71875 1.90625 
Q 36.71875 -4.984375 38.8125 -7.125 
Q 40.921875 -9.28125 47.796875 -9.28125 
z
" id="DejaVuSans-7b"/>
     <path d="M 12.5 -9.28125 
L 15.921875 -9.28125 
Q 22.75 -9.28125 24.828125 -7.171875 
Q 26.90625 -5.078125 26.90625 1.90625 
L 26.90625 14.015625 
Q 26.90625 21.625 29.09375 25.09375 
Q 31.296875 28.5625 36.71875 29.890625 
Q 31.296875 31.109375 29.09375 34.5625 
Q 26.90625 38.03125 26.90625 45.703125 
L 26.90625 57.8125 
Q 26.90625 64.75 24.828125 66.875 
Q 22.75 69 15.921875 69 
L 12.5 69 
L 12.5 75.984375 
L 15.578125 75.984375 
Q 27.734375 75.984375 31.8125 72.390625 
Q 35.890625 68.796875 35.890625 58.015625 
L 35.890625 46.296875 
Q 35.890625 39.015625 38.515625 36.203125 
Q 41.15625 33.40625 48.09375 33.40625 
L 51.125 33.40625 
L 51.125 26.421875 
L 48.09375 26.421875 
Q 41.15625 26.421875 38.515625 23.578125 
Q 35.890625 20.75 35.890625 13.375 
L 35.890625 1.703125 
Q 35.890625 -9.078125 31.8125 -12.6875 
Q 27.734375 -16.3125 15.578125 -16.3125 
L 12.5 -16.3125 
z
" id="DejaVuSans-7d"/>
     <path d="M 11.71875 12.40625 
L 22.015625 12.40625 
L 22.015625 4 
L 14.015625 -11.625 
L 7.71875 -11.625 
L 11.71875 4 
z
" id="DejaVuSans-2c"/>
     <path d="M 19.1875 8.296875 
L 53.609375 8.296875 
L 53.609375 0 
L 7.328125 0 
L 7.328125 8.296875 
Q 12.9375 14.109375 22.625 23.890625 
Q 32.328125 33.6875 34.8125 36.53125 
Q 39.546875 41.84375 41.421875 45.53125 
Q 43.3125 49.21875 43.3125 52.78125 
Q 43.3125 58.59375 39.234375 62.25 
Q 35.15625 65.921875 28.609375 65.921875 
Q 23.96875 65.921875 18.8125 64.3125 
Q 13.671875 62.703125 7.8125 59.421875 
L 7.8125 69.390625 
Q 13.765625 71.78125 18.9375 73 
Q 24.125 74.21875 28.421875 74.21875 
Q 39.75 74.21875 46.484375 68.546875 
Q 53.21875 62.890625 53.21875 53.421875 
Q 53.21875 48.921875 51.53125 44.890625 
Q 49.859375 40.875 45.40625 35.40625 
Q 44.1875 33.984375 37.640625 27.21875 
Q 31.109375 20.453125 19.1875 8.296875 
z
" id="DejaVuSans-32"/>
    </defs>
    <g transform="translate(283.34396 285.5648)scale(0.2 -0.2)">
     <use xlink:href="#DejaVuSans-7b"/>
     <use x="63.623047" xlink:href="#DejaVuSans-66"/>
     <use x="98.828125" xlink:href="#DejaVuSans-31"/>
     <use x="162.451172" xlink:href="#DejaVuSans-30"/>
     <use x="226.074219" xlink:href="#DejaVuSans-2d"/>
     <use x="262.158203" xlink:href="#DejaVuSans-66"/>
     <use x="297.363281" xlink:href="#DejaVuSans-31"/>
     <use x="360.986328" xlink:href="#DejaVuSans-34"/>
     <use x="424.609375" xlink:href="#DejaVuSans-7d"/>
     <use x="488.232422" xlink:href="#DejaVuSans-2c"/>
     <use x="520.019531" xlink:href="#DejaVuSans-20"/>
     <use x="551.806641" xlink:href="#DejaVuSans-32"/>
     <use x="615.429688" xlink:href="#DejaVuSans-30"/>
     <use x="679.052734" xlink:href="#DejaVuSans-2d"/>
     <use x="715.136719" xlink:href="#DejaVuSans-44"/>
    </g>
   </g>
   <g id="text_7">
    <!-- v0.0.0 -->
    <defs>
     <path d="M 2.984375 54.6875 
L 12.5 54.6875 
L 29.59375 8.796875 
L 46.6875 54.6875 
L 56.203125 54.6875 
L 35.6875 0 
L 23.484375 0 
z
" id="DejaVuSans-76"/>
     <path d="M 10.6875 12.40625 
L 21 12.40625 
L 21 0 
L 10.6875 0 
z
" id="DejaVuSans-2e"/>
    </defs>
    <g style="fill:#808080;" transform="translate(212.41475 286.342713)scale(0.1 -0.1)">
     <use xlink:href="#DejaVuSans-76"/>
     <use x="59.179688" xlink:href="#DejaVuSans-30"/>
     <use x="122.802734" xlink:href="#DejaVuSans-2e"/>
     <use x="154.589844" xlink:href="#DejaVuSans-30"/>
     <use x="218.212891" xlink:href="#DejaVuSans-2e"/>
     <use x="250" xlink:href="#DejaVuSans-30"/>
    </g>
   </g>
  </g>
 </g>
 <defs>
  <clipPath id="p41cde77507">
   <rect height="285.76" width="445.152" x="5.52" y="5.52"/>
  </clipPath>
 </defs>
</svg>
