<?xml version="1.0" encoding="utf-8" standalone="no"?>
<!DOCTYPE svg PUBLIC "-//W3C//DTD SVG 1.1//EN"
  "http://www.w3.org/Graphics/SVG/1.1/DTD/svg11.dtd">
<!-- Created with matplotlib (http://matplotlib.org/) -->
<svg height="345.6pt" version="1.1" viewBox="0 0 460.8 345.6" width="460.8pt" xmlns="http://www.w3.org/2000/svg" xmlns:xlink="http://www.w3.org/1999/xlink">
 <defs>
  <style type="text/css">
*{stroke-linecap:butt;stroke-linejoin:round;}
  </style>
 </defs>
 <g id="figure_1">
  <g id="patch_1">
   <path d="M 0 345.6 
L 460.8 345.6 
L 460.8 0 
L 0 0 
z
" style="fill:#ffffff;"/>
  </g>
  <g id="axes_1">
   <g id="patch_2">
    <path d="M 56.12 294.88 
L 333.168 294.88 
L 333.168 6.845228 
L 56.12 6.845228 
z
" style="fill:#ffffff;"/>
   </g>
   <g id="matplotlib.axis_1">
    <g id="xtick_1">
     <g id="line2d_1">
      <path clip-path="url(#pabf079207c)" d="M 56.12 294.88 
L 56.12 6.845228 
" style="fill:none;stroke:#b0b0b0;stroke-linecap:square;stroke-width:0.8;"/>
     </g>
     <g id="line2d_2">
      <defs>
       <path d="M 0 0 
L 0 3.5 
" id="me86227ea22" style="stroke:#000000;stroke-width:0.8;"/>
      </defs>
      <g>
       <use style="stroke:#000000;stroke-width:0.8;" x="56.12" xlink:href="#me86227ea22" y="294.88"/>
      </g>
     </g>
     <g id="text_1">
      <!-- 0 -->
      <defs>
       <path d="M 31.78125 66.40625 
Q 24.171875 66.40625 20.328125 58.90625 
Q 16.5 51.421875 16.5 36.375 
Q 16.5 21.390625 20.328125 13.890625 
Q 24.171875 6.390625 31.78125 6.390625 
Q 39.453125 6.390625 43.28125 13.890625 
Q 47.125 21.390625 47.125 36.375 
Q 47.125 51.421875 43.28125 58.90625 
Q 39.453125 66.40625 31.78125 66.40625 
z
M 31.78125 74.21875 
Q 44.046875 74.21875 50.515625 64.515625 
Q 56.984375 54.828125 56.984375 36.375 
Q 56.984375 17.96875 50.515625 8.265625 
Q 44.046875 -1.421875 31.78125 -1.421875 
Q 19.53125 -1.421875 13.0625 8.265625 
Q 6.59375 17.96875 6.59375 36.375 
Q 6.59375 54.828125 13.0625 64.515625 
Q 19.53125 74.21875 31.78125 74.21875 
z
" id="DejaVuSans-30"/>
      </defs>
      <g transform="translate(49.7575 317.076875)scale(0.2 -0.2)">
       <use xlink:href="#DejaVuSans-30"/>
      </g>
     </g>
    </g>
    <g id="xtick_2">
     <g id="line2d_3">
      <path clip-path="url(#pabf079207c)" d="M 135.276571 294.88 
L 135.276571 6.845228 
" style="fill:none;stroke:#b0b0b0;stroke-linecap:square;stroke-width:0.8;"/>
     </g>
     <g id="line2d_4">
      <g>
       <use style="stroke:#000000;stroke-width:0.8;" x="135.276571" xlink:href="#me86227ea22" y="294.88"/>
      </g>
     </g>
     <g id="text_2">
      <!-- 2 -->
      <defs>
       <path d="M 19.1875 8.296875 
L 53.609375 8.296875 
L 53.609375 0 
L 7.328125 0 
L 7.328125 8.296875 
Q 12.9375 14.109375 22.625 23.890625 
Q 32.328125 33.6875 34.8125 36.53125 
Q 39.546875 41.84375 41.421875 45.53125 
Q 43.3125 49.21875 43.3125 52.78125 
Q 43.3125 58.59375 39.234375 62.25 
Q 35.15625 65.921875 28.609375 65.921875 
Q 23.96875 65.921875 18.8125 64.3125 
Q 13.671875 62.703125 7.8125 59.421875 
L 7.8125 69.390625 
Q 13.765625 71.78125 18.9375 73 
Q 24.125 74.21875 28.421875 74.21875 
Q 39.75 74.21875 46.484375 68.546875 
Q 53.21875 62.890625 53.21875 53.421875 
Q 53.21875 48.921875 51.53125 44.890625 
Q 49.859375 40.875 45.40625 35.40625 
Q 44.1875 33.984375 37.640625 27.21875 
Q 31.109375 20.453125 19.1875 8.296875 
z
" id="DejaVuSans-32"/>
      </defs>
      <g transform="translate(128.914071 317.076875)scale(0.2 -0.2)">
       <use xlink:href="#DejaVuSans-32"/>
      </g>
     </g>
    </g>
    <g id="xtick_3">
     <g id="line2d_5">
      <path clip-path="url(#pabf079207c)" d="M 214.433143 294.88 
L 214.433143 6.845228 
" style="fill:none;stroke:#b0b0b0;stroke-linecap:square;stroke-width:0.8;"/>
     </g>
     <g id="line2d_6">
      <g>
       <use style="stroke:#000000;stroke-width:0.8;" x="214.433143" xlink:href="#me86227ea22" y="294.88"/>
      </g>
     </g>
     <g id="text_3">
      <!-- 4 -->
      <defs>
       <path d="M 37.796875 64.3125 
L 12.890625 25.390625 
L 37.796875 25.390625 
z
M 35.203125 72.90625 
L 47.609375 72.90625 
L 47.609375 25.390625 
L 58.015625 25.390625 
L 58.015625 17.1875 
L 47.609375 17.1875 
L 47.609375 0 
L 37.796875 0 
L 37.796875 17.1875 
L 4.890625 17.1875 
L 4.890625 26.703125 
z
" id="DejaVuSans-34"/>
      </defs>
      <g transform="translate(208.070643 317.076875)scale(0.2 -0.2)">
       <use xlink:href="#DejaVuSans-34"/>
      </g>
     </g>
    </g>
    <g id="xtick_4">
     <g id="line2d_7">
      <path clip-path="url(#pabf079207c)" d="M 293.589714 294.88 
L 293.589714 6.845228 
" style="fill:none;stroke:#b0b0b0;stroke-linecap:square;stroke-width:0.8;"/>
     </g>
     <g id="line2d_8">
      <g>
       <use style="stroke:#000000;stroke-width:0.8;" x="293.589714" xlink:href="#me86227ea22" y="294.88"/>
      </g>
     </g>
     <g id="text_4">
      <!-- 6 -->
      <defs>
       <path d="M 33.015625 40.375 
Q 26.375 40.375 22.484375 35.828125 
Q 18.609375 31.296875 18.609375 23.390625 
Q 18.609375 15.53125 22.484375 10.953125 
Q 26.375 6.390625 33.015625 6.390625 
Q 39.65625 6.390625 43.53125 10.953125 
Q 47.40625 15.53125 47.40625 23.390625 
Q 47.40625 31.296875 43.53125 35.828125 
Q 39.65625 40.375 33.015625 40.375 
z
M 52.59375 71.296875 
L 52.59375 62.3125 
Q 48.875 64.0625 45.09375 64.984375 
Q 41.3125 65.921875 37.59375 65.921875 
Q 27.828125 65.921875 22.671875 59.328125 
Q 17.53125 52.734375 16.796875 39.40625 
Q 19.671875 43.65625 24.015625 45.921875 
Q 28.375 48.1875 33.59375 48.1875 
Q 44.578125 48.1875 50.953125 41.515625 
Q 57.328125 34.859375 57.328125 23.390625 
Q 57.328125 12.15625 50.6875 5.359375 
Q 44.046875 -1.421875 33.015625 -1.421875 
Q 20.359375 -1.421875 13.671875 8.265625 
Q 6.984375 17.96875 6.984375 36.375 
Q 6.984375 53.65625 15.1875 63.9375 
Q 23.390625 74.21875 37.203125 74.21875 
Q 40.921875 74.21875 44.703125 73.484375 
Q 48.484375 72.75 52.59375 71.296875 
z
" id="DejaVuSans-36"/>
      </defs>
      <g transform="translate(287.227214 317.076875)scale(0.2 -0.2)">
       <use xlink:href="#DejaVuSans-36"/>
      </g>
     </g>
    </g>
    <g id="xtick_5">
     <g id="line2d_9">
      <path clip-path="url(#pabf079207c)" d="M 56.12 294.88 
L 56.12 6.845228 
" style="fill:none;stroke:#b0b0b0;stroke-linecap:square;stroke-width:0.8;"/>
     </g>
     <g id="line2d_10">
      <defs>
       <path d="M 0 0 
L 0 2 
" id="m6785ce335a" style="stroke:#000000;stroke-width:0.6;"/>
      </defs>
      <g>
       <use style="stroke:#000000;stroke-width:0.6;" x="56.12" xlink:href="#m6785ce335a" y="294.88"/>
      </g>
     </g>
    </g>
    <g id="xtick_6">
     <g id="line2d_11">
      <path clip-path="url(#pabf079207c)" d="M 95.698286 294.88 
L 95.698286 6.845228 
" style="fill:none;stroke:#b0b0b0;stroke-linecap:square;stroke-width:0.8;"/>
     </g>
     <g id="line2d_12">
      <g>
       <use style="stroke:#000000;stroke-width:0.6;" x="95.698286" xlink:href="#m6785ce335a" y="294.88"/>
      </g>
     </g>
    </g>
    <g id="xtick_7">
     <g id="line2d_13">
      <path clip-path="url(#pabf079207c)" d="M 135.276571 294.88 
L 135.276571 6.845228 
" style="fill:none;stroke:#b0b0b0;stroke-linecap:square;stroke-width:0.8;"/>
     </g>
     <g id="line2d_14">
      <g>
       <use style="stroke:#000000;stroke-width:0.6;" x="135.276571" xlink:href="#m6785ce335a" y="294.88"/>
      </g>
     </g>
    </g>
    <g id="xtick_8">
     <g id="line2d_15">
      <path clip-path="url(#pabf079207c)" d="M 174.854857 294.88 
L 174.854857 6.845228 
" style="fill:none;stroke:#b0b0b0;stroke-linecap:square;stroke-width:0.8;"/>
     </g>
     <g id="line2d_16">
      <g>
       <use style="stroke:#000000;stroke-width:0.6;" x="174.854857" xlink:href="#m6785ce335a" y="294.88"/>
      </g>
     </g>
    </g>
    <g id="xtick_9">
     <g id="line2d_17">
      <path clip-path="url(#pabf079207c)" d="M 214.433143 294.88 
L 214.433143 6.845228 
" style="fill:none;stroke:#b0b0b0;stroke-linecap:square;stroke-width:0.8;"/>
     </g>
     <g id="line2d_18">
      <g>
       <use style="stroke:#000000;stroke-width:0.6;" x="214.433143" xlink:href="#m6785ce335a" y="294.88"/>
      </g>
     </g>
    </g>
    <g id="xtick_10">
     <g id="line2d_19">
      <path clip-path="url(#pabf079207c)" d="M 254.011429 294.88 
L 254.011429 6.845228 
" style="fill:none;stroke:#b0b0b0;stroke-linecap:square;stroke-width:0.8;"/>
     </g>
     <g id="line2d_20">
      <g>
       <use style="stroke:#000000;stroke-width:0.6;" x="254.011429" xlink:href="#m6785ce335a" y="294.88"/>
      </g>
     </g>
    </g>
    <g id="xtick_11">
     <g id="line2d_21">
      <path clip-path="url(#pabf079207c)" d="M 293.589714 294.88 
L 293.589714 6.845228 
" style="fill:none;stroke:#b0b0b0;stroke-linecap:square;stroke-width:0.8;"/>
     </g>
     <g id="line2d_22">
      <g>
       <use style="stroke:#000000;stroke-width:0.6;" x="293.589714" xlink:href="#m6785ce335a" y="294.88"/>
      </g>
     </g>
    </g>
    <g id="xtick_12">
     <g id="line2d_23">
      <path clip-path="url(#pabf079207c)" d="M 333.168 294.88 
L 333.168 6.845228 
" style="fill:none;stroke:#b0b0b0;stroke-linecap:square;stroke-width:0.8;"/>
     </g>
     <g id="line2d_24">
      <g>
       <use style="stroke:#000000;stroke-width:0.6;" x="333.168" xlink:href="#m6785ce335a" y="294.88"/>
      </g>
     </g>
    </g>
    <g id="text_5">
     <!-- log10(# f-evals / dimension) -->
     <defs>
      <path d="M 9.421875 75.984375 
L 18.40625 75.984375 
L 18.40625 0 
L 9.421875 0 
z
" id="DejaVuSans-6c"/>
      <path d="M 30.609375 48.390625 
Q 23.390625 48.390625 19.1875 42.75 
Q 14.984375 37.109375 14.984375 27.296875 
Q 14.984375 17.484375 19.15625 11.84375 
Q 23.34375 6.203125 30.609375 6.203125 
Q 37.796875 6.203125 41.984375 11.859375 
Q 46.1875 17.53125 46.1875 27.296875 
Q 46.1875 37.015625 41.984375 42.703125 
Q 37.796875 48.390625 30.609375 48.390625 
z
M 30.609375 56 
Q 42.328125 56 49.015625 48.375 
Q 55.71875 40.765625 55.71875 27.296875 
Q 55.71875 13.875 49.015625 6.21875 
Q 42.328125 -1.421875 30.609375 -1.421875 
Q 18.84375 -1.421875 12.171875 6.21875 
Q 5.515625 13.875 5.515625 27.296875 
Q 5.515625 40.765625 12.171875 48.375 
Q 18.84375 56 30.609375 56 
z
" id="DejaVuSans-6f"/>
      <path d="M 45.40625 27.984375 
Q 45.40625 37.75 41.375 43.109375 
Q 37.359375 48.484375 30.078125 48.484375 
Q 22.859375 48.484375 18.828125 43.109375 
Q 14.796875 37.75 14.796875 27.984375 
Q 14.796875 18.265625 18.828125 12.890625 
Q 22.859375 7.515625 30.078125 7.515625 
Q 37.359375 7.515625 41.375 12.890625 
Q 45.40625 18.265625 45.40625 27.984375 
z
M 54.390625 6.78125 
Q 54.390625 -7.171875 48.1875 -13.984375 
Q 42 -20.796875 29.203125 -20.796875 
Q 24.46875 -20.796875 20.265625 -20.09375 
Q 16.0625 -19.390625 12.109375 -17.921875 
L 12.109375 -9.1875 
Q 16.0625 -11.328125 19.921875 -12.34375 
Q 23.78125 -13.375 27.78125 -13.375 
Q 36.625 -13.375 41.015625 -8.765625 
Q 45.40625 -4.15625 45.40625 5.171875 
L 45.40625 9.625 
Q 42.625 4.78125 38.28125 2.390625 
Q 33.9375 0 27.875 0 
Q 17.828125 0 11.671875 7.65625 
Q 5.515625 15.328125 5.515625 27.984375 
Q 5.515625 40.671875 11.671875 48.328125 
Q 17.828125 56 27.875 56 
Q 33.9375 56 38.28125 53.609375 
Q 42.625 51.21875 45.40625 46.390625 
L 45.40625 54.6875 
L 54.390625 54.6875 
z
" id="DejaVuSans-67"/>
      <path d="M 12.40625 8.296875 
L 28.515625 8.296875 
L 28.515625 63.921875 
L 10.984375 60.40625 
L 10.984375 69.390625 
L 28.421875 72.90625 
L 38.28125 72.90625 
L 38.28125 8.296875 
L 54.390625 8.296875 
L 54.390625 0 
L 12.40625 0 
z
" id="DejaVuSans-31"/>
      <path d="M 31 75.875 
Q 24.46875 64.65625 21.28125 53.65625 
Q 18.109375 42.671875 18.109375 31.390625 
Q 18.109375 20.125 21.3125 9.0625 
Q 24.515625 -2 31 -13.1875 
L 23.1875 -13.1875 
Q 15.875 -1.703125 12.234375 9.375 
Q 8.59375 20.453125 8.59375 31.390625 
Q 8.59375 42.28125 12.203125 53.3125 
Q 15.828125 64.359375 23.1875 75.875 
z
" id="DejaVuSans-28"/>
      <path d="M 51.125 44 
L 36.921875 44 
L 32.8125 27.6875 
L 47.125 27.6875 
z
M 43.796875 71.78125 
L 38.71875 51.515625 
L 52.984375 51.515625 
L 58.109375 71.78125 
L 65.921875 71.78125 
L 60.890625 51.515625 
L 76.125 51.515625 
L 76.125 44 
L 58.984375 44 
L 54.984375 27.6875 
L 70.515625 27.6875 
L 70.515625 20.21875 
L 53.078125 20.21875 
L 48 0 
L 40.1875 0 
L 45.21875 20.21875 
L 30.90625 20.21875 
L 25.875 0 
L 18.015625 0 
L 23.09375 20.21875 
L 7.71875 20.21875 
L 7.71875 27.6875 
L 24.90625 27.6875 
L 29 44 
L 13.28125 44 
L 13.28125 51.515625 
L 30.90625 51.515625 
L 35.890625 71.78125 
z
" id="DejaVuSans-23"/>
      <path id="DejaVuSans-20"/>
      <path d="M 37.109375 75.984375 
L 37.109375 68.5 
L 28.515625 68.5 
Q 23.6875 68.5 21.796875 66.546875 
Q 19.921875 64.59375 19.921875 59.515625 
L 19.921875 54.6875 
L 34.71875 54.6875 
L 34.71875 47.703125 
L 19.921875 47.703125 
L 19.921875 0 
L 10.890625 0 
L 10.890625 47.703125 
L 2.296875 47.703125 
L 2.296875 54.6875 
L 10.890625 54.6875 
L 10.890625 58.5 
Q 10.890625 67.625 15.140625 71.796875 
Q 19.390625 75.984375 28.609375 75.984375 
z
" id="DejaVuSans-66"/>
      <path d="M 4.890625 31.390625 
L 31.203125 31.390625 
L 31.203125 23.390625 
L 4.890625 23.390625 
z
" id="DejaVuSans-2d"/>
      <path d="M 56.203125 29.59375 
L 56.203125 25.203125 
L 14.890625 25.203125 
Q 15.484375 15.921875 20.484375 11.0625 
Q 25.484375 6.203125 34.421875 6.203125 
Q 39.59375 6.203125 44.453125 7.46875 
Q 49.3125 8.734375 54.109375 11.28125 
L 54.109375 2.78125 
Q 49.265625 0.734375 44.1875 -0.34375 
Q 39.109375 -1.421875 33.890625 -1.421875 
Q 20.796875 -1.421875 13.15625 6.1875 
Q 5.515625 13.8125 5.515625 26.8125 
Q 5.515625 40.234375 12.765625 48.109375 
Q 20.015625 56 32.328125 56 
Q 43.359375 56 49.78125 48.890625 
Q 56.203125 41.796875 56.203125 29.59375 
z
M 47.21875 32.234375 
Q 47.125 39.59375 43.09375 43.984375 
Q 39.0625 48.390625 32.421875 48.390625 
Q 24.90625 48.390625 20.390625 44.140625 
Q 15.875 39.890625 15.1875 32.171875 
z
" id="DejaVuSans-65"/>
      <path d="M 2.984375 54.6875 
L 12.5 54.6875 
L 29.59375 8.796875 
L 46.6875 54.6875 
L 56.203125 54.6875 
L 35.6875 0 
L 23.484375 0 
z
" id="DejaVuSans-76"/>
      <path d="M 34.28125 27.484375 
Q 23.390625 27.484375 19.1875 25 
Q 14.984375 22.515625 14.984375 16.5 
Q 14.984375 11.71875 18.140625 8.90625 
Q 21.296875 6.109375 26.703125 6.109375 
Q 34.1875 6.109375 38.703125 11.40625 
Q 43.21875 16.703125 43.21875 25.484375 
L 43.21875 27.484375 
z
M 52.203125 31.203125 
L 52.203125 0 
L 43.21875 0 
L 43.21875 8.296875 
Q 40.140625 3.328125 35.546875 0.953125 
Q 30.953125 -1.421875 24.3125 -1.421875 
Q 15.921875 -1.421875 10.953125 3.296875 
Q 6 8.015625 6 15.921875 
Q 6 25.140625 12.171875 29.828125 
Q 18.359375 34.515625 30.609375 34.515625 
L 43.21875 34.515625 
L 43.21875 35.40625 
Q 43.21875 41.609375 39.140625 45 
Q 35.0625 48.390625 27.6875 48.390625 
Q 23 48.390625 18.546875 47.265625 
Q 14.109375 46.140625 10.015625 43.890625 
L 10.015625 52.203125 
Q 14.9375 54.109375 19.578125 55.046875 
Q 24.21875 56 28.609375 56 
Q 40.484375 56 46.34375 49.84375 
Q 52.203125 43.703125 52.203125 31.203125 
z
" id="DejaVuSans-61"/>
      <path d="M 44.28125 53.078125 
L 44.28125 44.578125 
Q 40.484375 46.53125 36.375 47.5 
Q 32.28125 48.484375 27.875 48.484375 
Q 21.1875 48.484375 17.84375 46.4375 
Q 14.5 44.390625 14.5 40.28125 
Q 14.5 37.15625 16.890625 35.375 
Q 19.28125 33.59375 26.515625 31.984375 
L 29.59375 31.296875 
Q 39.15625 29.25 43.1875 25.515625 
Q 47.21875 21.78125 47.21875 15.09375 
Q 47.21875 7.46875 41.1875 3.015625 
Q 35.15625 -1.421875 24.609375 -1.421875 
Q 20.21875 -1.421875 15.453125 -0.5625 
Q 10.6875 0.296875 5.421875 2 
L 5.421875 11.28125 
Q 10.40625 8.6875 15.234375 7.390625 
Q 20.0625 6.109375 24.8125 6.109375 
Q 31.15625 6.109375 34.5625 8.28125 
Q 37.984375 10.453125 37.984375 14.40625 
Q 37.984375 18.0625 35.515625 20.015625 
Q 33.0625 21.96875 24.703125 23.78125 
L 21.578125 24.515625 
Q 13.234375 26.265625 9.515625 29.90625 
Q 5.8125 33.546875 5.8125 39.890625 
Q 5.8125 47.609375 11.28125 51.796875 
Q 16.75 56 26.8125 56 
Q 31.78125 56 36.171875 55.265625 
Q 40.578125 54.546875 44.28125 53.078125 
z
" id="DejaVuSans-73"/>
      <path d="M 25.390625 72.90625 
L 33.6875 72.90625 
L 8.296875 -9.28125 
L 0 -9.28125 
z
" id="DejaVuSans-2f"/>
      <path d="M 45.40625 46.390625 
L 45.40625 75.984375 
L 54.390625 75.984375 
L 54.390625 0 
L 45.40625 0 
L 45.40625 8.203125 
Q 42.578125 3.328125 38.25 0.953125 
Q 33.9375 -1.421875 27.875 -1.421875 
Q 17.96875 -1.421875 11.734375 6.484375 
Q 5.515625 14.40625 5.515625 27.296875 
Q 5.515625 40.1875 11.734375 48.09375 
Q 17.96875 56 27.875 56 
Q 33.9375 56 38.25 53.625 
Q 42.578125 51.265625 45.40625 46.390625 
z
M 14.796875 27.296875 
Q 14.796875 17.390625 18.875 11.75 
Q 22.953125 6.109375 30.078125 6.109375 
Q 37.203125 6.109375 41.296875 11.75 
Q 45.40625 17.390625 45.40625 27.296875 
Q 45.40625 37.203125 41.296875 42.84375 
Q 37.203125 48.484375 30.078125 48.484375 
Q 22.953125 48.484375 18.875 42.84375 
Q 14.796875 37.203125 14.796875 27.296875 
z
" id="DejaVuSans-64"/>
      <path d="M 9.421875 54.6875 
L 18.40625 54.6875 
L 18.40625 0 
L 9.421875 0 
z
M 9.421875 75.984375 
L 18.40625 75.984375 
L 18.40625 64.59375 
L 9.421875 64.59375 
z
" id="DejaVuSans-69"/>
      <path d="M 52 44.1875 
Q 55.375 50.25 60.0625 53.125 
Q 64.75 56 71.09375 56 
Q 79.640625 56 84.28125 50.015625 
Q 88.921875 44.046875 88.921875 33.015625 
L 88.921875 0 
L 79.890625 0 
L 79.890625 32.71875 
Q 79.890625 40.578125 77.09375 44.375 
Q 74.3125 48.1875 68.609375 48.1875 
Q 61.625 48.1875 57.5625 43.546875 
Q 53.515625 38.921875 53.515625 30.90625 
L 53.515625 0 
L 44.484375 0 
L 44.484375 32.71875 
Q 44.484375 40.625 41.703125 44.40625 
Q 38.921875 48.1875 33.109375 48.1875 
Q 26.21875 48.1875 22.15625 43.53125 
Q 18.109375 38.875 18.109375 30.90625 
L 18.109375 0 
L 9.078125 0 
L 9.078125 54.6875 
L 18.109375 54.6875 
L 18.109375 46.1875 
Q 21.1875 51.21875 25.484375 53.609375 
Q 29.78125 56 35.6875 56 
Q 41.65625 56 45.828125 52.96875 
Q 50 49.953125 52 44.1875 
z
" id="DejaVuSans-6d"/>
      <path d="M 54.890625 33.015625 
L 54.890625 0 
L 45.90625 0 
L 45.90625 32.71875 
Q 45.90625 40.484375 42.875 44.328125 
Q 39.84375 48.1875 33.796875 48.1875 
Q 26.515625 48.1875 22.3125 43.546875 
Q 18.109375 38.921875 18.109375 30.90625 
L 18.109375 0 
L 9.078125 0 
L 9.078125 54.6875 
L 18.109375 54.6875 
L 18.109375 46.1875 
Q 21.34375 51.125 25.703125 53.5625 
Q 30.078125 56 35.796875 56 
Q 45.21875 56 50.046875 50.171875 
Q 54.890625 44.34375 54.890625 33.015625 
z
" id="DejaVuSans-6e"/>
      <path d="M 8.015625 75.875 
L 15.828125 75.875 
Q 23.140625 64.359375 26.78125 53.3125 
Q 30.421875 42.28125 30.421875 31.390625 
Q 30.421875 20.453125 26.78125 9.375 
Q 23.140625 -1.703125 15.828125 -13.1875 
L 8.015625 -13.1875 
Q 14.5 -2 17.703125 9.0625 
Q 20.90625 20.125 20.90625 31.390625 
Q 20.90625 42.671875 17.703125 53.65625 
Q 14.5 64.65625 8.015625 75.875 
z
" id="DejaVuSans-29"/>
     </defs>
     <g transform="translate(73.803219 338.153594)scale(0.17 -0.17)">
      <use xlink:href="#DejaVuSans-6c"/>
      <use x="27.783203" xlink:href="#DejaVuSans-6f"/>
      <use x="88.964844" xlink:href="#DejaVuSans-67"/>
      <use x="152.441406" xlink:href="#DejaVuSans-31"/>
      <use x="216.064453" xlink:href="#DejaVuSans-30"/>
      <use x="279.6875" xlink:href="#DejaVuSans-28"/>
      <use x="318.701172" xlink:href="#DejaVuSans-23"/>
      <use x="402.490234" xlink:href="#DejaVuSans-20"/>
      <use x="434.277344" xlink:href="#DejaVuSans-66"/>
      <use x="469.404297" xlink:href="#DejaVuSans-2d"/>
      <use x="505.488281" xlink:href="#DejaVuSans-65"/>
      <use x="567.011719" xlink:href="#DejaVuSans-76"/>
      <use x="626.191406" xlink:href="#DejaVuSans-61"/>
      <use x="687.470703" xlink:href="#DejaVuSans-6c"/>
      <use x="715.253906" xlink:href="#DejaVuSans-73"/>
      <use x="767.353516" xlink:href="#DejaVuSans-20"/>
      <use x="799.140625" xlink:href="#DejaVuSans-2f"/>
      <use x="832.832031" xlink:href="#DejaVuSans-20"/>
      <use x="864.619141" xlink:href="#DejaVuSans-64"/>
      <use x="928.095703" xlink:href="#DejaVuSans-69"/>
      <use x="955.878906" xlink:href="#DejaVuSans-6d"/>
      <use x="1053.291016" xlink:href="#DejaVuSans-65"/>
      <use x="1114.814453" xlink:href="#DejaVuSans-6e"/>
      <use x="1178.193359" xlink:href="#DejaVuSans-73"/>
      <use x="1230.292969" xlink:href="#DejaVuSans-69"/>
      <use x="1258.076172" xlink:href="#DejaVuSans-6f"/>
      <use x="1319.257812" xlink:href="#DejaVuSans-6e"/>
      <use x="1382.636719" xlink:href="#DejaVuSans-29"/>
     </g>
    </g>
   </g>
   <g id="matplotlib.axis_2">
    <g id="ytick_1">
     <g id="line2d_25">
      <path clip-path="url(#pabf079207c)" d="M 56.12 294.88 
L 333.168 294.88 
" style="fill:none;stroke:#b0b0b0;stroke-linecap:square;stroke-width:0.8;"/>
     </g>
     <g id="line2d_26">
      <defs>
       <path d="M 0 0 
L -3.5 0 
" id="m8ee1835095" style="stroke:#000000;stroke-width:0.8;"/>
      </defs>
      <g>
       <use style="stroke:#000000;stroke-width:0.8;" x="56.12" xlink:href="#m8ee1835095" y="294.88"/>
      </g>
     </g>
     <g id="text_6">
      <!-- 0.0 -->
      <defs>
       <path d="M 10.6875 12.40625 
L 21 12.40625 
L 21 0 
L 10.6875 0 
z
" id="DejaVuSans-2e"/>
      </defs>
      <g transform="translate(23.675 300.95875)scale(0.16 -0.16)">
       <use xlink:href="#DejaVuSans-30"/>
       <use x="63.623047" xlink:href="#DejaVuSans-2e"/>
       <use x="95.410156" xlink:href="#DejaVuSans-30"/>
      </g>
     </g>
    </g>
    <g id="ytick_2">
     <g id="line2d_27">
      <path clip-path="url(#pabf079207c)" d="M 56.12 237.843411 
L 333.168 237.843411 
" style="fill:none;stroke:#b0b0b0;stroke-linecap:square;stroke-width:0.8;"/>
     </g>
     <g id="line2d_28">
      <g>
       <use style="stroke:#000000;stroke-width:0.8;" x="56.12" xlink:href="#m8ee1835095" y="237.843411"/>
      </g>
     </g>
     <g id="text_7">
      <!-- 0.2 -->
      <g transform="translate(23.675 243.922161)scale(0.16 -0.16)">
       <use xlink:href="#DejaVuSans-30"/>
       <use x="63.623047" xlink:href="#DejaVuSans-2e"/>
       <use x="95.410156" xlink:href="#DejaVuSans-32"/>
      </g>
     </g>
    </g>
    <g id="ytick_3">
     <g id="line2d_29">
      <path clip-path="url(#pabf079207c)" d="M 56.12 180.806823 
L 333.168 180.806823 
" style="fill:none;stroke:#b0b0b0;stroke-linecap:square;stroke-width:0.8;"/>
     </g>
     <g id="line2d_30">
      <g>
       <use style="stroke:#000000;stroke-width:0.8;" x="56.12" xlink:href="#m8ee1835095" y="180.806823"/>
      </g>
     </g>
     <g id="text_8">
      <!-- 0.4 -->
      <g transform="translate(23.675 186.885573)scale(0.16 -0.16)">
       <use xlink:href="#DejaVuSans-30"/>
       <use x="63.623047" xlink:href="#DejaVuSans-2e"/>
       <use x="95.410156" xlink:href="#DejaVuSans-34"/>
      </g>
     </g>
    </g>
    <g id="ytick_4">
     <g id="line2d_31">
      <path clip-path="url(#pabf079207c)" d="M 56.12 123.770234 
L 333.168 123.770234 
" style="fill:none;stroke:#b0b0b0;stroke-linecap:square;stroke-width:0.8;"/>
     </g>
     <g id="line2d_32">
      <g>
       <use style="stroke:#000000;stroke-width:0.8;" x="56.12" xlink:href="#m8ee1835095" y="123.770234"/>
      </g>
     </g>
     <g id="text_9">
      <!-- 0.6 -->
      <g transform="translate(23.675 129.848984)scale(0.16 -0.16)">
       <use xlink:href="#DejaVuSans-30"/>
       <use x="63.623047" xlink:href="#DejaVuSans-2e"/>
       <use x="95.410156" xlink:href="#DejaVuSans-36"/>
      </g>
     </g>
    </g>
    <g id="ytick_5">
     <g id="line2d_33">
      <path clip-path="url(#pabf079207c)" d="M 56.12 66.733646 
L 333.168 66.733646 
" style="fill:none;stroke:#b0b0b0;stroke-linecap:square;stroke-width:0.8;"/>
     </g>
     <g id="line2d_34">
      <g>
       <use style="stroke:#000000;stroke-width:0.8;" x="56.12" xlink:href="#m8ee1835095" y="66.733646"/>
      </g>
     </g>
     <g id="text_10">
      <!-- 0.8 -->
      <defs>
       <path d="M 31.78125 34.625 
Q 24.75 34.625 20.71875 30.859375 
Q 16.703125 27.09375 16.703125 20.515625 
Q 16.703125 13.921875 20.71875 10.15625 
Q 24.75 6.390625 31.78125 6.390625 
Q 38.8125 6.390625 42.859375 10.171875 
Q 46.921875 13.96875 46.921875 20.515625 
Q 46.921875 27.09375 42.890625 30.859375 
Q 38.875 34.625 31.78125 34.625 
z
M 21.921875 38.8125 
Q 15.578125 40.375 12.03125 44.71875 
Q 8.5 49.078125 8.5 55.328125 
Q 8.5 64.0625 14.71875 69.140625 
Q 20.953125 74.21875 31.78125 74.21875 
Q 42.671875 74.21875 48.875 69.140625 
Q 55.078125 64.0625 55.078125 55.328125 
Q 55.078125 49.078125 51.53125 44.71875 
Q 48 40.375 41.703125 38.8125 
Q 48.828125 37.15625 52.796875 32.3125 
Q 56.78125 27.484375 56.78125 20.515625 
Q 56.78125 9.90625 50.3125 4.234375 
Q 43.84375 -1.421875 31.78125 -1.421875 
Q 19.734375 -1.421875 13.25 4.234375 
Q 6.78125 9.90625 6.78125 20.515625 
Q 6.78125 27.484375 10.78125 32.3125 
Q 14.796875 37.15625 21.921875 38.8125 
z
M 18.3125 54.390625 
Q 18.3125 48.734375 21.84375 45.5625 
Q 25.390625 42.390625 31.78125 42.390625 
Q 38.140625 42.390625 41.71875 45.5625 
Q 45.3125 48.734375 45.3125 54.390625 
Q 45.3125 60.0625 41.71875 63.234375 
Q 38.140625 66.40625 31.78125 66.40625 
Q 25.390625 66.40625 21.84375 63.234375 
Q 18.3125 60.0625 18.3125 54.390625 
z
" id="DejaVuSans-38"/>
      </defs>
      <g transform="translate(23.675 72.812396)scale(0.16 -0.16)">
       <use xlink:href="#DejaVuSans-30"/>
       <use x="63.623047" xlink:href="#DejaVuSans-2e"/>
       <use x="95.410156" xlink:href="#DejaVuSans-38"/>
      </g>
     </g>
    </g>
    <g id="ytick_6">
     <g id="line2d_35">
      <path clip-path="url(#pabf079207c)" d="M 56.12 9.697057 
L 333.168 9.697057 
" style="fill:none;stroke:#b0b0b0;stroke-linecap:square;stroke-width:0.8;"/>
     </g>
     <g id="line2d_36">
      <g>
       <use style="stroke:#000000;stroke-width:0.8;" x="56.12" xlink:href="#m8ee1835095" y="9.697057"/>
      </g>
     </g>
     <g id="text_11">
      <!-- 1.0 -->
      <g transform="translate(23.675 15.775807)scale(0.16 -0.16)">
       <use xlink:href="#DejaVuSans-31"/>
       <use x="63.623047" xlink:href="#DejaVuSans-2e"/>
       <use x="95.410156" xlink:href="#DejaVuSans-30"/>
      </g>
     </g>
    </g>
    <g id="text_12">
     <!-- Fraction of function,target pairs -->
     <defs>
      <path d="M 9.8125 72.90625 
L 51.703125 72.90625 
L 51.703125 64.59375 
L 19.671875 64.59375 
L 19.671875 43.109375 
L 48.578125 43.109375 
L 48.578125 34.8125 
L 19.671875 34.8125 
L 19.671875 0 
L 9.8125 0 
z
" id="DejaVuSans-46"/>
      <path d="M 41.109375 46.296875 
Q 39.59375 47.171875 37.8125 47.578125 
Q 36.03125 48 33.890625 48 
Q 26.265625 48 22.1875 43.046875 
Q 18.109375 38.09375 18.109375 28.8125 
L 18.109375 0 
L 9.078125 0 
L 9.078125 54.6875 
L 18.109375 54.6875 
L 18.109375 46.1875 
Q 20.953125 51.171875 25.484375 53.578125 
Q 30.03125 56 36.53125 56 
Q 37.453125 56 38.578125 55.875 
Q 39.703125 55.765625 41.0625 55.515625 
z
" id="DejaVuSans-72"/>
      <path d="M 48.78125 52.59375 
L 48.78125 44.1875 
Q 44.96875 46.296875 41.140625 47.34375 
Q 37.3125 48.390625 33.40625 48.390625 
Q 24.65625 48.390625 19.8125 42.84375 
Q 14.984375 37.3125 14.984375 27.296875 
Q 14.984375 17.28125 19.8125 11.734375 
Q 24.65625 6.203125 33.40625 6.203125 
Q 37.3125 6.203125 41.140625 7.25 
Q 44.96875 8.296875 48.78125 10.40625 
L 48.78125 2.09375 
Q 45.015625 0.34375 40.984375 -0.53125 
Q 36.96875 -1.421875 32.421875 -1.421875 
Q 20.0625 -1.421875 12.78125 6.34375 
Q 5.515625 14.109375 5.515625 27.296875 
Q 5.515625 40.671875 12.859375 48.328125 
Q 20.21875 56 33.015625 56 
Q 37.15625 56 41.109375 55.140625 
Q 45.0625 54.296875 48.78125 52.59375 
z
" id="DejaVuSans-63"/>
      <path d="M 18.3125 70.21875 
L 18.3125 54.6875 
L 36.8125 54.6875 
L 36.8125 47.703125 
L 18.3125 47.703125 
L 18.3125 18.015625 
Q 18.3125 11.328125 20.140625 9.421875 
Q 21.96875 7.515625 27.59375 7.515625 
L 36.8125 7.515625 
L 36.8125 0 
L 27.59375 0 
Q 17.1875 0 13.234375 3.875 
Q 9.28125 7.765625 9.28125 18.015625 
L 9.28125 47.703125 
L 2.6875 47.703125 
L 2.6875 54.6875 
L 9.28125 54.6875 
L 9.28125 70.21875 
z
" id="DejaVuSans-74"/>
      <path d="M 8.5 21.578125 
L 8.5 54.6875 
L 17.484375 54.6875 
L 17.484375 21.921875 
Q 17.484375 14.15625 20.5 10.265625 
Q 23.53125 6.390625 29.59375 6.390625 
Q 36.859375 6.390625 41.078125 11.03125 
Q 45.3125 15.671875 45.3125 23.6875 
L 45.3125 54.6875 
L 54.296875 54.6875 
L 54.296875 0 
L 45.3125 0 
L 45.3125 8.40625 
Q 42.046875 3.421875 37.71875 1 
Q 33.40625 -1.421875 27.6875 -1.421875 
Q 18.265625 -1.421875 13.375 4.4375 
Q 8.5 10.296875 8.5 21.578125 
z
M 31.109375 56 
z
" id="DejaVuSans-75"/>
      <path d="M 11.71875 12.40625 
L 22.015625 12.40625 
L 22.015625 4 
L 14.015625 -11.625 
L 7.71875 -11.625 
L 11.71875 4 
z
" id="DejaVuSans-2c"/>
      <path d="M 18.109375 8.203125 
L 18.109375 -20.796875 
L 9.078125 -20.796875 
L 9.078125 54.6875 
L 18.109375 54.6875 
L 18.109375 46.390625 
Q 20.953125 51.265625 25.265625 53.625 
Q 29.59375 56 35.59375 56 
Q 45.5625 56 51.78125 48.09375 
Q 58.015625 40.1875 58.015625 27.296875 
Q 58.015625 14.40625 51.78125 6.484375 
Q 45.5625 -1.421875 35.59375 -1.421875 
Q 29.59375 -1.421875 25.265625 0.953125 
Q 20.953125 3.328125 18.109375 8.203125 
z
M 48.6875 27.296875 
Q 48.6875 37.203125 44.609375 42.84375 
Q 40.53125 48.484375 33.40625 48.484375 
Q 26.265625 48.484375 22.1875 42.84375 
Q 18.109375 37.203125 18.109375 27.296875 
Q 18.109375 17.390625 22.1875 11.75 
Q 26.265625 6.109375 33.40625 6.109375 
Q 40.53125 6.109375 44.609375 11.75 
Q 48.6875 17.390625 48.6875 27.296875 
z
" id="DejaVuSans-70"/>
     </defs>
     <g transform="translate(16.139531 286.001989)rotate(-90)scale(0.17 -0.17)">
      <use xlink:href="#DejaVuSans-46"/>
      <use x="57.410156" xlink:href="#DejaVuSans-72"/>
      <use x="98.523438" xlink:href="#DejaVuSans-61"/>
      <use x="159.802734" xlink:href="#DejaVuSans-63"/>
      <use x="214.783203" xlink:href="#DejaVuSans-74"/>
      <use x="253.992188" xlink:href="#DejaVuSans-69"/>
      <use x="281.775391" xlink:href="#DejaVuSans-6f"/>
      <use x="342.957031" xlink:href="#DejaVuSans-6e"/>
      <use x="406.335938" xlink:href="#DejaVuSans-20"/>
      <use x="438.123047" xlink:href="#DejaVuSans-6f"/>
      <use x="499.304688" xlink:href="#DejaVuSans-66"/>
      <use x="534.509766" xlink:href="#DejaVuSans-20"/>
      <use x="566.296875" xlink:href="#DejaVuSans-66"/>
      <use x="601.501953" xlink:href="#DejaVuSans-75"/>
      <use x="664.880859" xlink:href="#DejaVuSans-6e"/>
      <use x="728.259766" xlink:href="#DejaVuSans-63"/>
      <use x="783.240234" xlink:href="#DejaVuSans-74"/>
      <use x="822.449219" xlink:href="#DejaVuSans-69"/>
      <use x="850.232422" xlink:href="#DejaVuSans-6f"/>
      <use x="911.414062" xlink:href="#DejaVuSans-6e"/>
      <use x="974.792969" xlink:href="#DejaVuSans-2c"/>
      <use x="1006.580078" xlink:href="#DejaVuSans-74"/>
      <use x="1045.789062" xlink:href="#DejaVuSans-61"/>
      <use x="1107.068359" xlink:href="#DejaVuSans-72"/>
      <use x="1148.166016" xlink:href="#DejaVuSans-67"/>
      <use x="1211.642578" xlink:href="#DejaVuSans-65"/>
      <use x="1273.166016" xlink:href="#DejaVuSans-74"/>
      <use x="1312.375" xlink:href="#DejaVuSans-20"/>
      <use x="1344.162109" xlink:href="#DejaVuSans-70"/>
      <use x="1407.638672" xlink:href="#DejaVuSans-61"/>
      <use x="1468.917969" xlink:href="#DejaVuSans-69"/>
      <use x="1496.701172" xlink:href="#DejaVuSans-72"/>
      <use x="1537.814453" xlink:href="#DejaVuSans-73"/>
     </g>
    </g>
   </g>
   <g id="line2d_37">
    <defs>
     <path d="M 0 1.5 
C 0.397805 1.5 0.77937 1.341951 1.06066 1.06066 
C 1.341951 0.77937 1.5 0.397805 1.5 0 
C 1.5 -0.397805 1.341951 -0.77937 1.06066 -1.06066 
C 0.77937 -1.341951 0.397805 -1.5 0 -1.5 
C -0.397805 -1.5 -0.77937 -1.341951 -1.06066 -1.06066 
C -1.341951 -0.77937 -1.5 -0.397805 -1.5 0 
C -1.5 0.397805 -1.341951 0.77937 -1.06066 1.06066 
C -0.77937 1.341951 -0.397805 1.5 0 1.5 
z
" id="m504316baa6" style="stroke:#000080;"/>
    </defs>
    <g>
     <use style="fill:#000080;stroke:#000080;" x="273.346647" xlink:href="#m504316baa6" y="37.656169"/>
     <use style="fill:#000080;stroke:#000080;" x="273.346647" xlink:href="#m504316baa6" y="37.656169"/>
    </g>
   </g>
   <g id="line2d_38">
    <path d="M 44.205749 294.88 
L 44.205749 279.222897 
L 56.12 279.222897 
L 56.12 275.867804 
L 63.08939 275.867804 
L 63.08939 271.953528 
L 68.034251 271.953528 
L 68.034251 270.275981 
L 71.869783 270.275981 
L 71.869783 269.716799 
L 75.003641 269.716799 
L 75.003641 268.598435 
L 79.948502 268.598435 
L 79.948502 267.48007 
L 83.784035 267.48007 
L 83.784035 266.920888 
L 85.422286 266.920888 
L 85.422286 263.565795 
L 90.753425 263.565795 
L 90.753425 262.44743 
L 98.100602 262.44743 
L 98.100602 261.888248 
L 102.084955 261.888248 
L 102.084955 260.210701 
L 105.317315 260.210701 
L 105.317315 259.651519 
L 108.036969 259.651519 
L 108.036969 258.533154 
L 108.451173 258.533154 
L 108.451173 257.973972 
L 110.746395 257.973972 
L 110.746395 256.855608 
L 111.448069 256.855608 
L 111.448069 255.178061 
L 117.231566 255.178061 
L 117.231566 252.38215 
L 118.645127 252.38215 
L 118.645127 251.822967 
L 119.09161 251.822967 
L 119.09161 250.704603 
L 119.526788 250.704603 
L 119.526788 248.467874 
L 124.843597 248.467874 
L 124.843597 247.908692 
L 126.92061 247.908692 
L 126.92061 247.34951 
L 128.647561 247.34951 
L 128.647561 246.790327 
L 131.865471 246.790327 
L 131.865471 246.231145 
L 136.992776 246.231145 
L 136.992776 245.112781 
L 137.377325 245.112781 
L 137.377325 244.553598 
L 140.113666 244.553598 
L 140.113666 243.994416 
L 141.66324 243.994416 
L 141.66324 243.435234 
L 148.672099 243.435234 
L 148.672099 242.316869 
L 160.507322 242.316869 
L 160.507322 241.757687 
L 162.974949 241.757687 
L 162.974949 240.639323 
L 164.279369 240.639323 
L 164.279369 239.520958 
L 164.641248 239.520958 
L 164.641248 238.961776 
L 164.903911 238.961776 
L 164.903911 238.402594 
L 171.200991 238.402594 
L 171.200991 237.843411 
L 171.662458 237.843411 
L 171.662458 237.284229 
L 175.279289 237.284229 
L 175.279289 236.165865 
L 177.008768 236.165865 
L 177.008768 234.488318 
L 177.916946 234.488318 
L 177.916946 231.133225 
L 179.70492 231.133225 
L 179.70492 230.01486 
L 180.215764 230.01486 
L 180.215764 228.896496 
L 180.341137 228.896496 
L 180.341137 227.778131 
L 180.918444 227.778131 
L 180.918444 226.659767 
L 182.04626 226.659767 
L 182.04626 226.100584 
L 182.831214 226.100584 
L 182.831214 225.541402 
L 183.587055 225.541402 
L 183.607727 222.745491 
L 186.443762 222.745491 
L 186.443762 222.186309 
L 187.410172 222.186309 
L 187.410172 221.627126 
L 188.175317 221.627126 
L 188.175317 221.067944 
L 189.14899 221.067944 
L 189.14899 220.508762 
L 189.301713 220.508762 
L 189.301713 219.94958 
L 189.859941 219.94958 
L 189.859941 219.390397 
L 190.362299 219.390397 
L 190.362299 218.831215 
L 190.504656 218.831215 
L 190.504656 218.272033 
L 190.809676 218.272033 
L 190.809676 217.712851 
L 190.945021 217.712851 
L 190.961864 216.594486 
L 191.146059 216.594486 
L 191.146059 216.035304 
L 191.433452 216.035304 
L 191.511894 213.798575 
L 191.754744 213.798575 
L 191.754744 212.680211 
L 192.117427 212.680211 
L 192.117427 211.561846 
L 192.367448 211.561846 
L 192.460276 208.206753 
L 192.668849 208.206753 
L 192.711478 205.970024 
L 193.276856 205.970024 
L 193.276856 205.410841 
L 193.855555 205.410841 
L 193.960511 204.292477 
L 194.036698 204.292477 
L 194.101333 203.174112 
L 194.420911 203.174112 
L 194.420911 202.61493 
L 194.737358 202.61493 
L 194.737358 202.055748 
L 195.045431 202.055748 
L 195.045431 201.496566 
L 195.389767 201.496566 
L 195.389767 200.937384 
L 195.501306 200.937384 
L 195.529723 199.259837 
L 195.785931 199.259837 
L 195.841787 196.463926 
L 195.98064 196.463926 
L 196.020824 194.786379 
L 196.287165 194.786379 
L 196.287165 192.54965 
L 196.716477 192.54965 
L 196.793394 190.312921 
L 197.210396 190.312921 
L 197.243136 188.635374 
L 197.435969 188.635374 
L 197.50974 185.839463 
L 197.615234 185.839463 
L 197.692794 183.043552 
L 198.478023 183.043552 
L 198.497581 181.925187 
L 198.595041 181.925187 
L 198.640334 178.570094 
L 198.741273 178.570094 
L 198.743415 177.451729 
L 198.928687 177.451729 
L 199.021633 175.215 
L 199.046895 175.215 
L 199.046895 172.419089 
L 199.187262 172.419089 
L 199.258058 171.300725 
L 199.320283 171.300725 
L 199.398779 169.063996 
L 199.562872 169.063996 
L 199.562872 167.945631 
L 199.753701 167.945631 
L 199.830247 165.14972 
L 199.954411 165.14972 
L 200.043972 162.912991 
L 200.323564 162.912991 
L 200.41317 160.676262 
L 200.702158 160.676262 
L 200.774604 157.321169 
L 200.816407 157.321169 
L 200.903486 155.08444 
L 200.929901 155.08444 
L 201.029534 153.406893 
L 201.275197 153.406893 
L 201.323174 151.170164 
L 201.404062 151.170164 
L 201.404062 150.0518 
L 201.524684 150.0518 
L 201.586494 146.696706 
L 201.78137 146.696706 
L 201.847629 144.459977 
L 201.922533 144.459977 
L 201.972288 142.223248 
L 202.043118 142.223248 
L 202.141792 136.072244 
L 202.178649 136.072244 
L 202.178649 134.953879 
L 202.366962 134.953879 
L 202.425822 129.362057 
L 202.633671 129.362057 
L 202.633671 128.802874 
L 206.966318 128.802874 
L 206.966318 128.243692 
L 210.922185 128.243692 
L 210.922185 127.68451 
L 211.204486 127.68451 
L 211.204486 127.125328 
L 211.395273 127.125328 
L 211.395273 126.566145 
L 211.575848 126.566145 
L 211.592078 125.447781 
L 211.881628 125.447781 
L 211.881628 124.888599 
L 212.021628 124.888599 
L 212.082829 123.770234 
L 212.209473 123.770234 
L 212.209473 122.092688 
L 212.67934 122.092688 
L 212.67934 121.533505 
L 212.827176 121.533505 
L 212.879936 119.855959 
L 212.942848 119.855959 
L 213.017667 117.61923 
L 213.120014 117.61923 
L 213.212531 115.382501 
L 213.291699 115.382501 
L 213.291699 114.264136 
L 213.411595 114.264136 
L 213.462595 112.586589 
L 213.617395 112.586589 
L 213.64441 110.349861 
L 213.756517 110.349861 
L 213.823432 109.231496 
L 213.935266 109.231496 
L 214.032307 104.198856 
L 214.298546 104.198856 
L 214.368564 101.402945 
L 214.454615 101.402945 
L 214.531694 100.28458 
L 214.576924 100.28458 
L 214.576924 99.725398 
L 219.247521 99.725398 
L 219.247521 99.166216 
L 220.315192 99.166216 
L 220.315192 98.047851 
L 220.444711 98.047851 
L 220.52449 96.370304 
L 220.594294 96.370304 
L 220.594294 95.25194 
L 220.710405 95.25194 
L 220.788369 93.015211 
L 220.922635 93.015211 
L 220.954421 89.100935 
L 221.122379 89.100935 
L 221.189222 87.423389 
L 221.370992 87.423389 
L 221.436304 85.745842 
L 221.487122 85.745842 
L 221.494532 84.627477 
L 224.804532 84.627477 
L 224.804532 84.068295 
L 225.071794 84.068295 
L 225.071794 83.509113 
L 225.304856 83.509113 
L 225.363655 82.390748 
L 225.569905 82.390748 
L 225.67345 80.713202 
L 225.723875 80.713202 
L 225.723875 80.15402 
L 225.957991 80.15402 
L 226.057483 76.239744 
L 226.188093 76.239744 
L 226.250435 74.003015 
L 226.44039 74.003015 
L 226.454062 72.325468 
L 229.98585 72.325468 
L 230.090547 70.647921 
L 230.105748 70.647921 
L 230.116795 69.529557 
L 230.231673 69.529557 
L 230.307265 66.733646 
L 233.008362 66.733646 
L 233.099412 65.056099 
L 233.181899 65.056099 
L 233.281511 63.378552 
L 233.435832 63.378552 
L 233.479873 62.260188 
L 236.101436 62.260188 
L 236.101436 60.582641 
L 238.210864 60.582641 
L 238.300062 57.227548 
L 238.323413 57.227548 
L 238.323413 56.668365 
L 240.320517 56.668365 
L 240.429577 55.550001 
L 242.086001 55.550001 
L 242.086001 54.990819 
L 242.23772 54.990819 
L 242.243515 53.872454 
L 243.854865 53.872454 
L 243.886182 52.194907 
L 246.754837 52.194907 
L 246.754837 51.635725 
L 247.976784 51.635725 
L 247.976784 51.076543 
L 249.167796 51.076543 
L 249.167796 50.517361 
L 250.233917 50.517361 
L 250.332138 48.839814 
L 252.3585 48.839814 
L 252.3585 48.280632 
L 254.16339 48.280632 
L 254.16339 47.72145 
L 255.010234 47.72145 
L 255.010234 47.162267 
L 255.810421 47.162267 
L 255.810421 46.603085 
L 257.304615 46.603085 
L 257.307027 45.484721 
L 257.946367 45.484721 
L 257.946367 44.925538 
L 258.623343 44.925538 
L 258.623343 44.366356 
L 259.95617 44.366356 
L 259.95617 43.807174 
L 261.092468 43.807174 
L 261.092468 43.247992 
L 262.254637 43.247992 
L 262.254637 42.688809 
L 262.736282 42.688809 
L 262.736282 42.129627 
L 263.295474 42.129627 
L 263.295474 41.570445 
L 263.795655 41.570445 
L 263.795655 41.011263 
L 266.091819 41.011263 
L 266.091819 40.45208 
L 268.460917 40.45208 
L 268.460917 39.892898 
L 268.86478 39.892898 
L 268.86478 39.333716 
L 269.912526 39.333716 
L 269.912526 38.774534 
L 272.167354 38.774534 
L 272.167354 38.215351 
L 273.346647 38.215351 
L 273.346647 37.656169 
L 333.168 37.656169 
L 333.168 37.656169 
" style="fill:none;stroke:#000080;stroke-linecap:square;stroke-width:1.5;"/>
   </g>
   <g id="line2d_39">
    <defs>
     <path d="M 0 6 
C 1.591219 6 3.117479 5.367802 4.242641 4.242641 
C 5.367802 3.117479 6 1.591219 6 0 
C 6 -1.591219 5.367802 -3.117479 4.242641 -4.242641 
C 3.117479 -5.367802 1.591219 -6 0 -6 
C -1.591219 -6 -3.117479 -5.367802 -4.242641 -4.242641 
C -5.367802 -3.117479 -6 -1.591219 -6 0 
C -6 1.591219 -5.367802 3.117479 -4.242641 4.242641 
C -3.117479 5.367802 -1.591219 6 0 6 
z
" id="m6483b9103c" style="stroke:#000080;stroke-width:1.5;"/>
    </defs>
    <g>
     <use style="fill-opacity:0;stroke:#000080;stroke-width:1.5;" x="126.92061" xlink:href="#m6483b9103c" y="247.908692"/>
     <use style="fill-opacity:0;stroke:#000080;stroke-width:1.5;" x="191.511894" xlink:href="#m6483b9103c" y="214.357757"/>
     <use style="fill-opacity:0;stroke:#000080;stroke-width:1.5;" x="221.494532" xlink:href="#m6483b9103c" y="84.627477"/>
     <use style="fill-opacity:0;stroke:#000080;stroke-width:1.5;" x="273.346647" xlink:href="#m6483b9103c" y="38.215351"/>
     <use style="fill-opacity:0;stroke:#000080;stroke-width:1.5;" x="273.346647" xlink:href="#m6483b9103c" y="37.656169"/>
     <use style="fill-opacity:0;stroke:#000080;stroke-width:1.5;" x="333.168" xlink:href="#m6483b9103c" y="37.656169"/>
    </g>
   </g>
   <g id="line2d_40">
    <path style="fill:none;stroke:#000080;stroke-linecap:square;stroke-width:1.5;"/>
    <g/>
   </g>
   <g id="line2d_41">
    <path clip-path="url(#pabf079207c)" d="M 202.691626 128.802874 
" style="fill:none;stroke:#000080;stroke-linecap:square;stroke-width:1.5;"/>
    <defs>
     <path d="M -12 12 
L 12 -12 
M -12 -12 
L 12 12 
" id="m24c45a8a51" style="stroke:#000080;"/>
    </defs>
    <g clip-path="url(#pabf079207c)">
     <use style="fill:#000080;stroke:#000080;" x="202.691626" xlink:href="#m24c45a8a51" y="128.802874"/>
    </g>
   </g>
   <g id="line2d_42">
    <defs>
     <path d="M 0 1.5 
C 0.397805 1.5 0.77937 1.341951 1.06066 1.06066 
C 1.341951 0.77937 1.5 0.397805 1.5 0 
C 1.5 -0.397805 1.341951 -0.77937 1.06066 -1.06066 
C 0.77937 -1.341951 0.397805 -1.5 0 -1.5 
C -0.397805 -1.5 -0.77937 -1.341951 -1.06066 -1.06066 
C -1.341951 -0.77937 -1.5 -0.397805 -1.5 0 
C -1.5 0.397805 -1.341951 0.77937 -1.06066 1.06066 
C -0.77937 1.341951 -0.397805 1.5 0 1.5 
z
" id="md4383d344e" style="stroke:#ff00ff;"/>
    </defs>
    <g>
     <use style="fill:#ff00ff;stroke:#ff00ff;" x="174.682106" xlink:href="#md4383d344e" y="9.697057"/>
     <use style="fill:#ff00ff;stroke:#ff00ff;" x="174.682106" xlink:href="#md4383d344e" y="9.697057"/>
    </g>
   </g>
   <g id="line2d_43">
    <path d="M 44.205749 294.88 
L 44.205749 277.545351 
L 56.12 277.545351 
L 56.12 269.716799 
L 63.08939 269.716799 
L 63.08939 264.684159 
L 71.869783 264.684159 
L 71.869783 261.329066 
L 79.948502 261.329066 
L 79.948502 258.533154 
L 81.973032 258.533154 
L 81.973032 257.41479 
L 83.784035 257.41479 
L 83.784035 253.500514 
L 86.917893 253.500514 
L 86.917893 252.38215 
L 88.293717 252.38215 
L 88.293717 251.263785 
L 89.567532 251.263785 
L 89.567532 250.145421 
L 90.753425 250.145421 
L 90.753425 249.586238 
L 92.904808 249.586238 
L 92.904808 245.671963 
L 94.816624 245.671963 
L 94.816624 244.553598 
L 95.698286 244.553598 
L 95.698286 243.994416 
L 96.536922 243.994416 
L 96.536922 243.435234 
L 98.832144 243.435234 
L 98.832144 241.757687 
L 100.856673 241.757687 
L 100.856673 241.198505 
L 101.481783 241.198505 
L 101.481783 238.402594 
L 105.801534 238.402594 
L 105.801534 237.284229 
L 113.396034 237.284229 
L 113.396034 235.606682 
L 114.581927 235.606682 
L 114.581927 234.488318 
L 115.957752 234.488318 
L 115.957752 231.692407 
L 117.715785 231.692407 
L 117.715785 228.896496 
L 118.186736 228.896496 
L 118.186736 224.98222 
L 122.660646 224.98222 
L 122.660646 223.304673 
L 124.52528 223.304673 
L 124.52528 222.745491 
L 124.685175 222.745491 
L 124.685175 222.186309 
L 127.197852 222.186309 
L 127.197852 221.627126 
L 127.470694 221.627126 
L 127.470694 220.508762 
L 128.13443 220.508762 
L 128.13443 219.390397 
L 130.784069 219.390397 
L 130.784069 218.272033 
L 131.115693 218.272033 
L 131.224827 210.443482 
L 132.073821 210.443482 
L 132.073821 208.765935 
L 132.583907 208.765935 
L 132.583907 208.206753 
L 136.278134 208.206753 
L 136.278134 203.733295 
L 136.519665 203.733295 
L 136.519665 201.496566 
L 136.836515 201.496566 
L 136.836515 199.819019 
L 137.301101 199.819019 
L 137.377325 195.904743 
L 140.498503 195.904743 
L 140.498503 195.345561 
L 140.998571 195.345561 
L 140.998571 194.786379 
L 142.642422 194.786379 
L 142.642422 190.872103 
L 143.193387 190.872103 
L 143.301492 183.602734 
L 144.346715 183.602734 
L 144.397345 180.247641 
L 146.843566 180.247641 
L 146.843566 179.688458 
L 147.615255 179.688458 
L 147.615255 175.774183 
L 147.988485 175.774183 
L 147.988485 172.978271 
L 150.108469 172.978271 
L 150.108469 169.623178 
L 150.538207 169.623178 
L 150.538207 169.063996 
L 150.749113 169.063996 
L 150.749113 168.504814 
L 151.163317 168.504814 
L 151.163317 167.386449 
L 151.434009 167.386449 
L 151.501022 165.14972 
L 151.799385 165.14972 
L 151.864991 160.11708 
L 152.253451 160.11708 
L 152.253451 158.439533 
L 152.758108 158.439533 
L 152.758108 155.08444 
L 153.278551 155.08444 
L 153.278551 151.729346 
L 153.929489 151.729346 
L 153.929489 150.610982 
L 154.245942 150.610982 
L 154.245942 146.696706 
L 155.18878 146.696706 
L 155.18878 143.900795 
L 156.08258 143.900795 
L 156.08258 142.78243 
L 156.210188 142.78243 
L 156.210188 142.223248 
L 156.612279 142.223248 
L 156.612279 141.664066 
L 156.88336 141.664066 
L 156.88336 139.986519 
L 157.341751 139.986519 
L 157.341751 138.308973 
L 157.695196 138.308973 
L 157.695196 134.953879 
L 157.857683 134.953879 
L 157.949847 126.006963 
L 158.064362 126.006963 
L 158.064362 124.329417 
L 158.358579 124.329417 
L 158.4034 122.092688 
L 158.470412 122.092688 
L 158.581522 119.296776 
L 158.713912 119.296776 
L 158.713912 111.468225 
L 159.083575 111.468225 
L 159.083575 110.349861 
L 160.408023 110.349861 
L 160.408023 109.231496 
L 160.546882 109.231496 
L 160.546882 108.672314 
L 160.801823 108.672314 
L 160.89888 106.435585 
L 161.693215 106.435585 
L 161.693215 100.843762 
L 162.203085 100.843762 
L 162.203085 99.725398 
L 162.523048 99.725398 
L 162.523048 97.488669 
L 162.785208 97.488669 
L 162.888963 93.015211 
L 163.04343 93.015211 
L 163.145642 87.982571 
L 163.162618 87.982571 
L 163.162618 87.423389 
L 163.958377 87.423389 
L 164.055305 84.068295 
L 164.327005 84.068295 
L 164.327005 79.035655 
L 164.734412 79.035655 
L 164.734412 74.003015 
L 165.237976 74.003015 
L 165.237976 71.766286 
L 165.565672 71.766286 
L 165.565672 67.85201 
L 165.69795 67.85201 
L 165.800133 62.260188 
L 166.031439 62.260188 
L 166.031439 61.701006 
L 166.245497 61.701006 
L 166.344485 60.582641 
L 166.540769 60.582641 
L 166.540769 59.464277 
L 166.899453 59.464277 
L 166.899453 58.905094 
L 167.357484 58.905094 
L 167.357484 58.345912 
L 167.608225 58.345912 
L 167.608225 57.78673 
L 167.751736 57.78673 
L 167.751736 57.227548 
L 167.906939 57.227548 
L 167.932671 54.990819 
L 168.047988 54.990819 
L 168.047988 54.431636 
L 168.251106 54.431636 
L 168.251106 53.872454 
L 168.401884 53.872454 
L 168.501673 47.162267 
L 168.52653 47.162267 
L 168.52653 44.925538 
L 168.724103 44.925538 
L 168.760896 38.774534 
L 168.980018 38.774534 
L 168.980018 36.537805 
L 169.112563 36.537805 
L 169.220254 30.3868 
L 169.291675 30.3868 
L 169.374626 28.709253 
L 169.818078 28.709253 
L 169.818078 27.590889 
L 170.27283 27.590889 
L 170.27283 24.794978 
L 170.473608 24.794978 
L 170.506844 20.880702 
L 171.179718 20.880702 
L 171.222238 19.203155 
L 171.359705 19.203155 
L 171.359705 18.084791 
L 171.847727 18.084791 
L 171.847727 15.848062 
L 172.182285 15.848062 
L 172.182285 14.729697 
L 172.54981 14.729697 
L 172.54981 13.611333 
L 172.842141 13.611333 
L 172.842141 11.374604 
L 174.647346 11.374604 
L 174.682106 9.697057 
L 333.168 9.697057 
L 333.168 9.697057 
" style="fill:none;stroke:#ff00ff;stroke-linecap:square;stroke-width:1.5;"/>
   </g>
   <g id="line2d_44">
    <defs>
     <path d="M -0 8.485281 
L 5.091169 0 
L 0 -8.485281 
L -5.091169 -0 
z
" id="m36b2b6ae40" style="stroke:#ff00ff;stroke-linejoin:miter;stroke-width:1.5;"/>
    </defs>
    <g>
     <use style="fill-opacity:0;stroke:#ff00ff;stroke-linejoin:miter;stroke-width:1.5;" x="105.801534" xlink:href="#m36b2b6ae40" y="238.402594"/>
     <use style="fill-opacity:0;stroke:#ff00ff;stroke-linejoin:miter;stroke-width:1.5;" x="157.695196" xlink:href="#m36b2b6ae40" y="138.308973"/>
     <use style="fill-opacity:0;stroke:#ff00ff;stroke-linejoin:miter;stroke-width:1.5;" x="174.682106" xlink:href="#m36b2b6ae40" y="10.256239"/>
     <use style="fill-opacity:0;stroke:#ff00ff;stroke-linejoin:miter;stroke-width:1.5;" x="174.682106" xlink:href="#m36b2b6ae40" y="9.697057"/>
     <use style="fill-opacity:0;stroke:#ff00ff;stroke-linejoin:miter;stroke-width:1.5;" x="174.682106" xlink:href="#m36b2b6ae40" y="9.697057"/>
     <use style="fill-opacity:0;stroke:#ff00ff;stroke-linejoin:miter;stroke-width:1.5;" x="333.168" xlink:href="#m36b2b6ae40" y="9.697057"/>
    </g>
   </g>
   <g id="line2d_45">
    <path style="fill:none;stroke:#ff00ff;stroke-linecap:square;stroke-width:1.5;"/>
    <g/>
   </g>
   <g id="line2d_46">
    <defs>
     <path d="M 0 1.5 
C 0.397805 1.5 0.77937 1.341951 1.06066 1.06066 
C 1.341951 0.77937 1.5 0.397805 1.5 0 
C 1.5 -0.397805 1.341951 -0.77937 1.06066 -1.06066 
C 0.77937 -1.341951 0.397805 -1.5 0 -1.5 
C -0.397805 -1.5 -0.77937 -1.341951 -1.06066 -1.06066 
C -1.341951 -0.77937 -1.5 -0.397805 -1.5 0 
C -1.5 0.397805 -1.341951 0.77937 -1.06066 1.06066 
C -0.77937 1.341951 -0.397805 1.5 0 1.5 
z
" id="ma6db65b6cb" style="stroke:#ffa500;"/>
    </defs>
    <g>
     <use style="fill:#ffa500;stroke:#ffa500;" x="172.282393" xlink:href="#ma6db65b6cb" y="9.697057"/>
     <use style="fill:#ffa500;stroke:#ffa500;" x="172.282393" xlink:href="#ma6db65b6cb" y="9.697057"/>
    </g>
   </g>
   <g id="line2d_47">
    <path d="M 44.205749 294.88 
L 44.205749 264.124977 
L 56.12 264.124977 
L 56.12 260.210701 
L 63.08939 260.210701 
L 63.08939 259.651519 
L 68.034251 259.651519 
L 68.034251 257.41479 
L 71.869783 257.41479 
L 71.869783 254.618879 
L 83.784035 254.618879 
L 83.784035 246.790327 
L 85.422286 246.790327 
L 85.422286 245.112781 
L 86.917893 245.112781 
L 86.917893 244.553598 
L 92.904808 244.553598 
L 92.904808 242.316869 
L 93.887283 242.316869 
L 93.887283 240.08014 
L 94.816624 240.08014 
L 94.816624 237.284229 
L 95.698286 237.284229 
L 95.698286 236.725047 
L 96.536922 236.725047 
L 96.536922 233.369954 
L 97.336537 233.369954 
L 97.336537 231.692407 
L 98.832144 231.692407 
L 98.832144 230.01486 
L 102.667676 230.01486 
L 102.667676 226.659767 
L 104.819059 226.659767 
L 104.819059 223.863855 
L 107.612537 223.863855 
L 107.612537 222.186309 
L 111.448069 222.186309 
L 111.448069 221.067944 
L 113.086321 221.067944 
L 113.086321 219.390397 
L 117.952873 219.390397 
L 117.952873 218.831215 
L 120.15957 218.831215 
L 120.15957 216.594486 
L 123.015063 216.594486 
L 123.015063 215.476122 
L 124.200956 215.476122 
L 124.200956 214.357757 
L 124.843597 214.357757 
L 124.843597 209.884299 
L 130.67209 209.884299 
L 130.67209 209.325117 
L 133.6555 209.325117 
L 133.6555 207.088388 
L 135.276571 207.088388 
L 135.276571 205.970024 
L 135.532486 205.970024 
L 135.532486 202.61493 
L 136.033161 202.61493 
L 136.033161 199.819019 
L 137.901638 199.819019 
L 137.901638 197.58229 
L 139.384945 197.58229 
L 139.384945 196.463926 
L 140.242905 196.463926 
L 140.242905 194.786379 
L 140.874911 194.786379 
L 140.874911 190.312921 
L 143.568817 190.312921 
L 143.674593 185.839463 
L 143.727238 185.839463 
L 143.727238 185.280281 
L 143.988072 185.280281 
L 143.988072 184.721099 
L 144.397345 184.721099 
L 144.447825 176.333365 
L 144.548344 176.333365 
L 144.548344 175.774183 
L 144.698028 175.774183 
L 144.698028 174.096636 
L 144.895601 174.096636 
L 144.993542 167.945631 
L 145.187766 167.945631 
L 145.235981 163.472173 
L 146.39939 163.472173 
L 146.39939 162.912991 
L 147.061422 162.912991 
L 147.061422 158.998715 
L 147.276552 158.998715 
L 147.276552 157.321169 
L 147.657127 157.321169 
L 147.657127 156.761987 
L 149.630465 156.761987 
L 149.630465 154.525258 
L 149.889502 154.525258 
L 149.889502 147.255888 
L 150.216915 147.255888 
L 150.216915 145.578342 
L 150.467326 145.578342 
L 150.467326 143.341613 
L 152.507631 143.341613 
L 152.507631 139.427337 
L 152.633326 139.427337 
L 152.633326 134.953879 
L 152.943598 134.953879 
L 152.943598 133.276332 
L 153.398752 133.276332 
L 153.398752 132.71715 
L 154.472484 132.71715 
L 154.472484 131.598786 
L 154.640452 131.598786 
L 154.640452 131.039603 
L 155.18878 131.039603 
L 155.18878 129.921239 
L 155.509573 129.921239 
L 155.509573 127.125328 
L 156.108178 127.125328 
L 156.108178 124.888599 
L 156.5376 124.888599 
L 156.5376 115.382501 
L 156.956555 115.382501 
L 157.053666 108.672314 
L 158.018648 108.672314 
L 158.109956 104.198856 
L 158.223412 104.198856 
L 158.223412 103.080491 
L 158.4034 103.080491 
L 158.4034 97.488669 
L 159.212168 97.488669 
L 159.3186 93.574393 
L 159.550455 93.574393 
L 159.550455 91.896847 
L 159.779224 91.896847 
L 159.779224 89.660118 
L 160.187524 89.660118 
L 160.187524 89.100935 
L 160.408023 89.100935 
L 160.408023 86.305024 
L 160.782346 86.305024 
L 160.879512 80.15402 
L 161.053039 80.15402 
L 161.148691 77.917291 
L 161.281716 77.917291 
L 161.300635 75.121379 
L 162.004579 75.121379 
L 162.095093 72.325468 
L 162.434765 72.325468 
L 162.434765 71.207104 
L 163.026335 71.207104 
L 163.111639 68.970375 
L 163.348261 68.970375 
L 163.348261 68.411192 
L 163.548519 68.411192 
L 163.548519 65.615281 
L 163.795604 65.615281 
L 163.795604 62.81937 
L 164.119622 62.81937 
L 164.199681 58.905094 
L 164.796241 58.905094 
L 164.796241 57.78673 
L 164.919238 57.78673 
L 164.919238 57.227548 
L 165.056564 57.227548 
L 165.056564 52.75409 
L 165.327969 52.75409 
L 165.327969 50.517361 
L 166.045792 50.517361 
L 166.145934 44.366356 
L 166.231309 44.366356 
L 166.231309 37.656169 
L 166.59644 37.656169 
L 166.707246 35.978622 
L 166.762382 35.978622 
L 166.844756 32.064347 
L 167.237423 32.064347 
L 167.317557 29.827618 
L 167.738739 29.827618 
L 167.751736 25.913342 
L 168.086256 25.913342 
L 168.137148 20.880702 
L 168.650279 20.880702 
L 168.650279 19.203155 
L 169.702485 19.203155 
L 169.702485 18.643973 
L 169.978614 18.643973 
L 169.978614 16.407244 
L 170.65013 16.407244 
L 170.65013 14.729697 
L 170.954746 14.729697 
L 171.008579 12.492968 
L 171.370234 12.492968 
L 171.370234 10.815422 
L 172.282393 10.815422 
L 172.282393 9.697057 
L 333.168 9.697057 
L 333.168 9.697057 
" style="fill:none;stroke:#ffa500;stroke-linecap:square;stroke-width:1.5;"/>
   </g>
   <g id="line2d_48">
    <defs>
     <path d="M 0 -6 
L -1.347084 -1.854102 
L -5.706339 -1.854102 
L -2.179628 0.708204 
L -3.526712 4.854102 
L -0 2.291796 
L 3.526712 4.854102 
L 2.179628 0.708204 
L 5.706339 -1.854102 
L 1.347084 -1.854102 
z
" id="mb6dcb16e85" style="stroke:#ffa500;stroke-linejoin:bevel;stroke-width:1.5;"/>
    </defs>
    <g>
     <use style="fill-opacity:0;stroke:#ffa500;stroke-linejoin:bevel;stroke-width:1.5;" x="124.843597" xlink:href="#mb6dcb16e85" y="209.884299"/>
     <use style="fill-opacity:0;stroke:#ffa500;stroke-linejoin:bevel;stroke-width:1.5;" x="163.548519" xlink:href="#mb6dcb16e85" y="68.411192"/>
     <use style="fill-opacity:0;stroke:#ffa500;stroke-linejoin:bevel;stroke-width:1.5;" x="172.282393" xlink:href="#mb6dcb16e85" y="10.815422"/>
     <use style="fill-opacity:0;stroke:#ffa500;stroke-linejoin:bevel;stroke-width:1.5;" x="172.282393" xlink:href="#mb6dcb16e85" y="9.697057"/>
     <use style="fill-opacity:0;stroke:#ffa500;stroke-linejoin:bevel;stroke-width:1.5;" x="172.282393" xlink:href="#mb6dcb16e85" y="9.697057"/>
     <use style="fill-opacity:0;stroke:#ffa500;stroke-linejoin:bevel;stroke-width:1.5;" x="333.168" xlink:href="#mb6dcb16e85" y="9.697057"/>
    </g>
   </g>
   <g id="line2d_49">
    <path style="fill:none;stroke:#ffa500;stroke-linecap:square;stroke-width:1.5;"/>
    <g/>
   </g>
   <g id="line2d_50">
    <defs>
     <path d="M 0 1.5 
C 0.397805 1.5 0.77937 1.341951 1.06066 1.06066 
C 1.341951 0.77937 1.5 0.397805 1.5 0 
C 1.5 -0.397805 1.341951 -0.77937 1.06066 -1.06066 
C 0.77937 -1.341951 0.397805 -1.5 0 -1.5 
C -0.397805 -1.5 -0.77937 -1.341951 -1.06066 -1.06066 
C -1.341951 -0.77937 -1.5 -0.397805 -1.5 0 
C -1.5 0.397805 -1.341951 0.77937 -1.06066 1.06066 
C -0.77937 1.341951 -0.397805 1.5 0 1.5 
z
" id="me9fe9a6594" style="stroke:#6495ed;"/>
    </defs>
    <g>
     <use style="fill:#6495ed;stroke:#6495ed;" x="217.368911" xlink:href="#me9fe9a6594" y="9.697057"/>
     <use style="fill:#6495ed;stroke:#6495ed;" x="217.368911" xlink:href="#me9fe9a6594" y="9.697057"/>
    </g>
   </g>
   <g id="line2d_51">
    <path d="M 56.12 294.88 
L 56.12 288.728995 
L 68.034251 288.728995 
L 68.034251 285.933084 
L 75.003641 285.933084 
L 75.003641 280.341262 
L 77.653281 280.341262 
L 77.653281 275.867804 
L 79.948502 275.867804 
L 79.948502 269.716799 
L 88.293717 269.716799 
L 88.293717 269.157617 
L 89.567532 269.157617 
L 89.567532 266.361706 
L 90.753425 266.361706 
L 90.753425 265.802523 
L 92.904808 265.802523 
L 92.904808 261.888248 
L 93.887283 261.888248 
L 93.887283 260.769883 
L 94.816624 260.769883 
L 94.816624 260.210701 
L 98.832144 260.210701 
L 98.832144 259.651519 
L 100.207968 259.651519 
L 100.207968 255.737243 
L 101.481783 255.737243 
L 101.481783 252.941332 
L 104.819059 252.941332 
L 104.819059 251.263785 
L 105.317315 251.263785 
L 105.317315 250.145421 
L 108.451173 250.145421 
L 108.451173 249.586238 
L 109.250788 249.586238 
L 109.250788 247.908692 
L 118.645127 247.908692 
L 118.645127 247.34951 
L 120.365424 247.34951 
L 120.365424 246.790327 
L 124.200956 246.790327 
L 124.200956 244.553598 
L 124.843597 244.553598 
L 124.843597 243.994416 
L 126.061 243.994416 
L 126.061 242.316869 
L 127.739271 242.316869 
L 127.739271 241.757687 
L 134.39491 241.757687 
L 134.39491 241.198505 
L 135.867885 241.198505 
L 135.867885 240.639323 
L 137.301101 240.639323 
L 137.301101 240.08014 
L 142.07321 240.08014 
L 142.07321 239.520958 
L 143.084598 239.520958 
L 143.084598 238.402594 
L 145.139415 238.402594 
L 145.139415 236.725047 
L 145.757607 236.725047 
L 145.757607 236.165865 
L 146.799661 236.165865 
L 146.799661 235.606682 
L 147.531203 235.606682 
L 147.531203 233.369954 
L 148.473843 233.369954 
L 148.473843 232.810771 
L 149.405283 232.810771 
L 149.405283 231.692407 
L 150.818844 231.692407 
L 150.818844 231.133225 
L 152.027918 231.133225 
L 152.027918 230.574042 
L 153.248369 230.574042 
L 153.248369 229.455678 
L 155.215743 229.455678 
L 155.215743 228.337313 
L 155.536037 228.337313 
L 155.536037 227.778131 
L 157.270181 227.778131 
L 157.270181 226.100584 
L 157.531159 226.100584 
L 157.531159 225.541402 
L 157.671858 225.541402 
L 157.671858 224.98222 
L 157.995745 224.98222 
L 157.995745 223.304673 
L 158.223412 223.304673 
L 158.268586 220.508762 
L 158.470412 220.508762 
L 158.470412 219.390397 
L 159.276106 219.390397 
L 159.276106 218.272033 
L 160.025366 218.272033 
L 160.025366 216.594486 
L 160.167338 216.594486 
L 160.167338 212.121028 
L 160.879512 212.121028 
L 160.879512 210.443482 
L 161.110494 210.443482 
L 161.148691 208.206753 
L 161.338413 208.206753 
L 161.35727 207.088388 
L 162.274704 207.088388 
L 162.274704 205.410841 
L 163.213447 205.410841 
L 163.213447 204.851659 
L 164.578857 204.851659 
L 164.578857 203.733295 
L 164.74989 203.733295 
L 164.74989 200.378201 
L 164.903911 200.378201 
L 164.903911 197.023108 
L 165.37279 197.023108 
L 165.417494 195.345561 
L 166.442907 195.345561 
L 166.442907 191.990468 
L 166.651932 191.990468 
L 166.748614 187.51701 
L 166.776138 187.51701 
L 166.776138 185.839463 
L 167.129994 185.839463 
L 167.129994 184.721099 
L 167.529438 184.721099 
L 167.529438 184.161916 
L 167.816575 184.161916 
L 167.816575 183.602734 
L 168.955809 183.602734 
L 168.955809 181.366005 
L 169.327275 181.366005 
L 169.327275 180.247641 
L 169.748816 180.247641 
L 169.748816 179.688458 
L 169.887063 179.688458 
L 169.887063 179.129276 
L 170.182837 179.129276 
L 170.182837 176.892547 
L 170.528966 176.892547 
L 170.628164 171.859907 
L 171.083662 171.859907 
L 171.147759 169.623178 
L 171.391273 169.623178 
L 171.48563 166.827267 
L 171.631385 166.827267 
L 171.683143 165.14972 
L 171.868189 165.14972 
L 171.868189 164.031356 
L 172.091685 164.031356 
L 172.091685 161.235444 
L 172.401759 161.235444 
L 172.401759 160.676262 
L 172.638033 160.676262 
L 172.638033 159.557898 
L 173.148576 159.557898 
L 173.148576 156.761987 
L 173.280942 156.761987 
L 173.280942 152.847711 
L 173.430981 152.847711 
L 173.430981 150.0518 
L 173.561198 150.0518 
L 173.635168 143.341613 
L 174.278062 143.341613 
L 174.295828 138.868155 
L 175.144608 138.868155 
L 175.203661 131.039603 
L 175.329524 131.039603 
L 175.379612 127.68451 
L 175.783294 127.68451 
L 175.783294 124.329417 
L 175.985658 124.329417 
L 175.985658 123.770234 
L 176.359772 123.770234 
L 176.359772 123.211052 
L 176.578838 123.211052 
L 176.578838 121.533505 
L 176.764412 121.533505 
L 176.764412 120.974323 
L 176.978413 120.974323 
L 176.978413 119.855959 
L 177.129655 119.855959 
L 177.129655 117.61923 
L 177.487299 117.61923 
L 177.487299 115.382501 
L 177.974385 115.382501 
L 178.067316 112.586589 
L 178.138461 112.586589 
L 178.138461 112.027407 
L 178.621497 112.027407 
L 178.655978 109.790678 
L 178.997033 109.790678 
L 178.997033 109.231496 
L 179.138283 109.231496 
L 179.245128 106.435585 
L 179.285024 106.435585 
L 179.351313 104.198856 
L 179.437107 104.198856 
L 179.515924 103.080491 
L 179.568269 103.080491 
L 179.678975 94.692758 
L 179.70492 94.692758 
L 179.743764 93.015211 
L 180.070444 93.015211 
L 180.070444 91.896847 
L 180.328641 91.896847 
L 180.328641 89.660118 
L 180.56453 89.660118 
L 180.56453 88.541753 
L 180.705749 88.541753 
L 180.705749 87.423389 
L 181.152389 87.423389 
L 181.229668 84.068295 
L 181.400818 84.068295 
L 181.494521 80.713202 
L 181.587716 80.713202 
L 181.593524 79.035655 
L 181.755355 79.035655 
L 181.784094 77.358108 
L 181.904274 77.358108 
L 181.904274 75.680562 
L 182.023621 75.680562 
L 182.097088 71.766286 
L 182.360113 71.766286 
L 182.360113 68.970375 
L 182.542415 68.970375 
L 182.542415 68.411192 
L 182.787932 68.411192 
L 182.804176 61.141823 
L 183.008612 61.141823 
L 183.019305 57.227548 
L 183.425999 57.227548 
L 183.425999 54.990819 
L 183.904708 54.990819 
L 183.950334 52.75409 
L 184.166673 52.75409 
L 184.166673 52.194907 
L 184.404994 52.194907 
L 184.498424 47.72145 
L 184.527823 47.72145 
L 184.596226 43.247992 
L 185.053333 43.247992 
L 185.053333 41.570445 
L 185.237524 41.570445 
L 185.237524 40.45208 
L 185.833081 40.45208 
L 185.833081 39.892898 
L 186.134446 39.892898 
L 186.187869 38.774534 
L 186.325113 38.774534 
L 186.364754 36.537805 
L 186.470017 36.537805 
L 186.578986 33.182711 
L 186.68295 33.182711 
L 186.68295 32.064347 
L 187.079973 32.064347 
L 187.079973 30.945982 
L 187.377021 30.945982 
L 187.377021 29.827618 
L 187.762561 29.827618 
L 187.762561 29.268436 
L 187.992203 29.268436 
L 187.992203 28.709253 
L 190.961864 28.709253 
L 190.961864 25.35416 
L 193.170589 25.35416 
L 193.170589 24.235795 
L 203.873548 24.235795 
L 203.955957 22.558249 
L 204.081974 22.558249 
L 204.081974 21.999066 
L 204.255306 21.999066 
L 204.255306 21.439884 
L 204.552586 21.439884 
L 204.660667 20.32152 
L 205.050754 20.32152 
L 205.050754 19.762337 
L 205.546425 19.762337 
L 205.546425 19.203155 
L 205.876176 19.203155 
L 205.943909 18.084791 
L 206.292433 18.084791 
L 206.292433 17.525609 
L 206.604241 17.525609 
L 206.682666 16.407244 
L 206.911825 16.407244 
L 206.911825 15.28888 
L 207.027252 15.28888 
L 207.027252 14.729697 
L 207.30662 14.729697 
L 207.30662 14.170515 
L 207.787695 14.170515 
L 207.836962 12.492968 
L 208.401551 12.492968 
L 208.401551 11.933786 
L 209.722733 11.933786 
L 209.722733 11.374604 
L 215.546231 11.374604 
L 215.546231 10.815422 
L 216.314218 10.815422 
L 216.314218 10.256239 
L 217.368911 10.256239 
L 217.368911 9.697057 
L 333.168 9.697057 
L 333.168 9.697057 
" style="fill:none;stroke:#6495ed;stroke-linecap:square;stroke-width:1.5;"/>
   </g>
   <g id="line2d_52">
    <defs>
     <path d="M -0 6 
L 6 -6 
L -6 -6 
z
" id="m3e1ae5c985" style="stroke:#6495ed;stroke-linejoin:miter;stroke-width:1.5;"/>
    </defs>
    <g>
     <use style="fill-opacity:0;stroke:#6495ed;stroke-linejoin:miter;stroke-width:1.5;" x="145.139415" xlink:href="#m3e1ae5c985" y="236.725047"/>
     <use style="fill-opacity:0;stroke:#6495ed;stroke-linejoin:miter;stroke-width:1.5;" x="193.170589" xlink:href="#m3e1ae5c985" y="25.35416"/>
     <use style="fill-opacity:0;stroke:#6495ed;stroke-linejoin:miter;stroke-width:1.5;" x="217.368911" xlink:href="#m3e1ae5c985" y="9.697057"/>
     <use style="fill-opacity:0;stroke:#6495ed;stroke-linejoin:miter;stroke-width:1.5;" x="217.368911" xlink:href="#m3e1ae5c985" y="9.697057"/>
     <use style="fill-opacity:0;stroke:#6495ed;stroke-linejoin:miter;stroke-width:1.5;" x="333.168" xlink:href="#m3e1ae5c985" y="9.697057"/>
    </g>
   </g>
   <g id="line2d_53">
    <path style="fill:none;stroke:#6495ed;stroke-linecap:square;stroke-width:1.5;"/>
    <g/>
   </g>
   <g id="line2d_54">
    <path clip-path="url(#pabf079207c)" d="M 202.691626 24.235795 
" style="fill:none;stroke:#6495ed;stroke-linecap:square;stroke-width:1.5;"/>
    <defs>
     <path d="M -12 12 
L 12 -12 
M -12 -12 
L 12 12 
" id="mf0a9c476e9" style="stroke:#6495ed;"/>
    </defs>
    <g clip-path="url(#pabf079207c)">
     <use style="fill:#6495ed;stroke:#6495ed;" x="202.691626" xlink:href="#mf0a9c476e9" y="24.235795"/>
    </g>
   </g>
   <g id="line2d_55">
    <defs>
     <path d="M 0 1.5 
C 0.397805 1.5 0.77937 1.341951 1.06066 1.06066 
C 1.341951 0.77937 1.5 0.397805 1.5 0 
C 1.5 -0.397805 1.341951 -0.77937 1.06066 -1.06066 
C 0.77937 -1.341951 0.397805 -1.5 0 -1.5 
C -0.397805 -1.5 -0.77937 -1.341951 -1.06066 -1.06066 
C -1.341951 -0.77937 -1.5 -0.397805 -1.5 0 
C -1.5 0.397805 -1.341951 0.77937 -1.06066 1.06066 
C -0.77937 1.341951 -0.397805 1.5 0 1.5 
z
" id="ma0c6f50cef" style="stroke:#ff0000;"/>
    </defs>
    <g>
     <use style="fill:#ff0000;stroke:#ff0000;" x="267.547594" xlink:href="#ma0c6f50cef" y="9.697057"/>
     <use style="fill:#ff0000;stroke:#ff0000;" x="267.547594" xlink:href="#ma0c6f50cef" y="9.697057"/>
    </g>
   </g>
   <g id="line2d_56">
    <path d="M 44.205749 294.88 
L 44.205749 279.782079 
L 56.12 279.782079 
L 56.12 276.986168 
L 63.08939 276.986168 
L 63.08939 270.835164 
L 68.034251 270.835164 
L 68.034251 267.48007 
L 75.003641 267.48007 
L 75.003641 266.361706 
L 79.948502 266.361706 
L 79.948502 265.802523 
L 85.422286 265.802523 
L 85.422286 264.684159 
L 98.100602 264.684159 
L 98.100602 264.124977 
L 105.317315 264.124977 
L 105.317315 262.44743 
L 107.612537 262.44743 
L 107.612537 261.888248 
L 108.451173 261.888248 
L 108.451173 261.329066 
L 109.637066 261.329066 
L 109.637066 260.769883 
L 110.014853 260.769883 
L 110.014853 260.210701 
L 110.384516 260.210701 
L 110.384516 259.651519 
L 112.449632 259.651519 
L 112.449632 259.092337 
L 116.478659 259.092337 
L 116.478659 258.533154 
L 122.114929 258.533154 
L 122.114929 257.973972 
L 123.533353 257.973972 
L 123.533353 256.855608 
L 123.7027 256.855608 
L 123.7027 256.296425 
L 127.334814 256.296425 
L 127.334814 255.737243 
L 133.273515 255.737243 
L 133.273515 255.178061 
L 135.950722 255.178061 
L 135.950722 254.059696 
L 136.115208 254.059696 
L 136.115208 253.500514 
L 139.519758 253.500514 
L 139.519758 252.941332 
L 144.895601 252.941332 
L 144.895601 252.38215 
L 146.843566 252.38215 
L 146.843566 250.145421 
L 148.789965 250.145421 
L 148.789965 249.586238 
L 149.480672 249.586238 
L 149.480672 248.467874 
L 157.005179 248.467874 
L 157.005179 247.34951 
L 160.665017 247.34951 
L 160.665017 246.790327 
L 165.37279 246.790327 
L 165.37279 246.231145 
L 166.624209 246.231145 
L 166.624209 245.671963 
L 168.238481 245.671963 
L 168.238481 245.112781 
L 168.38937 245.112781 
L 168.38937 244.553598 
L 168.846443 244.553598 
L 168.846443 243.435234 
L 171.652107 243.435234 
L 171.652107 242.876052 
L 173.70882 242.876052 
L 173.70882 241.757687 
L 174.269172 241.757687 
L 174.269172 240.639323 
L 174.716795 240.639323 
L 174.716795 240.08014 
L 177.001184 240.08014 
L 177.001184 239.520958 
L 177.129655 239.520958 
L 177.129655 238.402594 
L 183.818192 238.402594 
L 183.818192 237.284229 
L 186.00016 237.284229 
L 186.00016 236.725047 
L 187.624107 236.725047 
L 187.624107 234.488318 
L 188.562914 234.488318 
L 188.562914 233.369954 
L 188.934388 233.369954 
L 188.934388 232.810771 
L 189.294294 232.810771 
L 189.294294 231.692407 
L 190.404087 231.692407 
L 190.404087 231.133225 
L 191.407225 231.133225 
L 191.407225 230.574042 
L 191.793283 230.574042 
L 191.793283 228.896496 
L 192.136305 228.896496 
L 192.136305 227.778131 
L 193.33561 227.778131 
L 193.33561 227.218949 
L 193.539684 227.218949 
L 193.539684 225.541402 
L 193.912367 225.541402 
L 193.985944 223.863855 
L 194.146153 223.863855 
L 194.146153 222.745491 
L 195.34286 222.745491 
L 195.34286 222.186309 
L 195.547783 222.186309 
L 195.547783 221.627126 
L 196.237695 221.627126 
L 196.237695 221.067944 
L 196.99368 221.067944 
L 196.99368 219.94958 
L 197.118861 219.94958 
L 197.118861 219.390397 
L 197.731443 219.390397 
L 197.731443 217.153669 
L 198.754117 217.153669 
L 198.754117 216.594486 
L 199.082619 216.594486 
L 199.082619 214.91694 
L 200.190242 214.91694 
L 200.190242 214.357757 
L 203.452213 214.357757 
L 203.452213 213.798575 
L 204.937642 213.798575 
L 204.937642 212.680211 
L 205.299645 212.680211 
L 205.330322 211.561846 
L 205.532006 211.561846 
L 205.532006 209.884299 
L 205.701382 209.884299 
L 205.701382 208.206753 
L 206.170557 208.206753 
L 206.170557 207.088388 
L 206.73251 207.088388 
L 206.73251 205.970024 
L 207.212693 205.970024 
L 207.212693 204.851659 
L 208.211294 204.851659 
L 208.211294 204.292477 
L 208.672835 204.292477 
L 208.672835 202.61493 
L 208.995417 202.61493 
L 209.063678 201.496566 
L 209.180735 201.496566 
L 209.180735 200.937384 
L 209.537485 200.937384 
L 209.537485 200.378201 
L 209.765634 200.378201 
L 209.765634 199.819019 
L 209.985228 199.819019 
L 210.006367 198.141472 
L 210.126033 198.141472 
L 210.236097 195.345561 
L 210.418347 195.345561 
L 210.418347 194.227197 
L 210.556739 194.227197 
L 210.660877 191.431285 
L 210.858817 191.431285 
L 210.858817 190.872103 
L 211.40245 190.872103 
L 211.40245 189.753739 
L 211.680061 189.753739 
L 211.680061 188.635374 
L 211.991936 188.635374 
L 211.991936 186.398645 
L 212.225116 186.398645 
L 212.30409 184.721099 
L 212.376893 184.721099 
L 212.376893 184.161916 
L 212.515815 184.161916 
L 212.569539 181.366005 
L 212.749626 181.366005 
L 212.80168 179.688458 
L 212.895921 179.688458 
L 212.895921 176.892547 
L 213.227287 176.892547 
L 213.227287 176.333365 
L 213.400647 176.333365 
L 213.400647 175.215 
L 213.541527 175.215 
L 213.541527 174.655818 
L 214.990377 174.655818 
L 214.990377 173.537454 
L 215.765544 173.537454 
L 215.765544 172.978271 
L 216.176548 172.978271 
L 216.176548 171.300725 
L 216.744793 171.300725 
L 216.744793 170.741543 
L 218.501543 170.741543 
L 218.501543 169.623178 
L 218.63667 169.623178 
L 218.63667 167.945631 
L 218.788762 167.945631 
L 218.788762 166.268085 
L 219.115822 166.268085 
L 219.115822 165.708902 
L 219.456676 165.708902 
L 219.456676 165.14972 
L 219.828618 165.14972 
L 219.877524 163.472173 
L 220.025276 163.472173 
L 220.035205 161.794627 
L 220.2105 161.794627 
L 220.244855 160.676262 
L 220.39375 160.676262 
L 220.454401 158.439533 
L 221.796194 158.439533 
L 221.796194 157.880351 
L 222.330427 157.880351 
L 222.330427 157.321169 
L 222.500578 157.321169 
L 222.500578 156.761987 
L 222.638163 156.761987 
L 222.638163 156.202804 
L 222.814812 156.202804 
L 222.814812 155.643622 
L 223.218005 155.643622 
L 223.218005 155.08444 
L 223.387291 155.08444 
L 223.387291 154.525258 
L 223.808337 154.525258 
L 223.808337 152.847711 
L 224.020713 152.847711 
L 224.020713 152.288529 
L 224.172073 152.288529 
L 224.269821 151.170164 
L 224.31631 151.170164 
L 224.425742 148.933435 
L 224.473729 148.933435 
L 224.473729 145.578342 
L 224.614517 145.578342 
L 224.7216 142.78243 
L 224.956164 142.78243 
L 224.992935 141.664066 
L 225.119399 141.664066 
L 225.227061 139.986519 
L 225.407736 139.986519 
L 225.506846 138.308973 
L 225.617048 138.308973 
L 225.686405 137.190608 
L 227.089586 137.190608 
L 227.089586 136.072244 
L 227.323398 136.072244 
L 227.323398 135.513061 
L 227.622835 135.513061 
L 227.622835 134.953879 
L 228.221535 134.953879 
L 228.312232 132.157968 
L 228.503579 132.157968 
L 228.579601 130.480421 
L 228.615791 130.480421 
L 228.701065 128.802874 
L 228.738497 128.802874 
L 228.848448 127.68451 
L 228.874435 127.68451 
L 228.953269 122.65187 
L 229.244358 122.65187 
L 229.329106 120.415141 
L 229.376368 120.415141 
L 229.376368 119.855959 
L 229.549869 119.855959 
L 229.637032 117.61923 
L 229.691948 117.61923 
L 229.766073 116.500865 
L 231.001251 116.500865 
L 231.001251 115.941683 
L 231.518827 115.941683 
L 231.518827 115.382501 
L 231.729993 115.382501 
L 231.803981 114.264136 
L 231.96031 114.264136 
L 232.052134 112.027407 
L 232.082942 112.027407 
L 232.15267 108.672314 
L 232.27242 108.672314 
L 232.32895 106.994767 
L 232.462843 106.994767 
L 232.568494 104.758038 
L 232.638371 104.758038 
L 232.73673 103.639674 
L 232.755979 103.639674 
L 232.837181 99.725398 
L 232.892767 99.725398 
L 232.892767 99.166216 
L 234.330504 99.166216 
L 234.330504 98.047851 
L 234.729327 98.047851 
L 234.836915 95.25194 
L 234.888496 95.25194 
L 234.945658 94.133576 
L 234.999772 94.133576 
L 235.101296 91.896847 
L 235.283156 91.896847 
L 235.283156 91.337664 
L 235.491912 91.337664 
L 235.512346 89.100935 
L 235.628936 89.100935 
L 235.667707 87.982571 
L 235.756427 87.982571 
L 235.841723 86.864206 
L 236.862493 86.864206 
L 236.862493 86.305024 
L 237.131907 86.305024 
L 237.230062 84.068295 
L 237.300415 84.068295 
L 237.394678 82.390748 
L 237.441616 82.390748 
L 237.52973 79.594837 
L 237.558628 79.594837 
L 237.558628 77.917291 
L 237.670179 77.917291 
L 237.687738 76.798926 
L 237.903642 76.798926 
L 237.935204 75.680562 
L 238.022572 75.680562 
L 238.116218 74.562197 
L 238.840706 74.562197 
L 238.840706 74.003015 
L 238.989426 74.003015 
L 238.989426 73.443833 
L 239.306126 73.443833 
L 239.392648 71.207104 
L 239.51413 71.207104 
L 239.559415 70.088739 
L 239.657159 70.088739 
L 239.682696 68.970375 
L 239.850408 68.970375 
L 239.96073 67.292828 
L 239.973377 67.292828 
L 240.074023 65.056099 
L 240.093348 65.056099 
L 240.161969 63.378552 
L 240.228017 63.378552 
L 240.228017 62.260188 
L 241.024113 62.260188 
L 241.114804 61.141823 
L 241.443243 61.141823 
L 241.53282 59.464277 
L 241.72324 59.464277 
L 241.833555 57.78673 
L 241.941259 57.78673 
L 241.941259 57.227548 
L 243.040752 57.227548 
L 243.122885 56.109183 
L 243.175754 56.109183 
L 243.218802 54.990819 
L 243.355773 54.990819 
L 243.355773 54.431636 
L 243.511936 54.431636 
L 243.609649 51.635725 
L 243.719483 51.635725 
L 243.719483 51.076543 
L 244.204623 51.076543 
L 244.204623 50.517361 
L 244.748339 50.517361 
L 244.748339 49.398996 
L 244.983464 49.398996 
L 245.040913 46.603085 
L 245.115917 46.603085 
L 245.115917 46.043903 
L 246.131086 46.043903 
L 246.228544 44.366356 
L 246.360629 44.366356 
L 246.444923 42.688809 
L 246.506743 42.688809 
L 246.574568 41.570445 
L 247.464626 41.570445 
L 247.54231 39.333716 
L 247.693779 39.333716 
L 247.776862 37.656169 
L 247.863109 37.656169 
L 247.863109 37.096987 
L 248.607514 37.096987 
L 248.716972 35.41944 
L 248.762753 35.41944 
L 248.762753 34.860258 
L 248.876793 34.860258 
L 248.98133 33.182711 
L 249.812627 33.182711 
L 249.902257 30.945982 
L 250.009004 30.945982 
L 250.009004 30.3868 
L 250.79003 30.3868 
L 250.79003 29.827618 
L 250.930636 29.827618 
L 250.930636 29.268436 
L 251.157583 29.268436 
L 251.182424 27.590889 
L 252.153092 27.590889 
L 252.153092 27.031707 
L 252.798104 27.031707 
L 252.891462 24.794978 
L 252.99207 24.794978 
L 253.094086 23.117431 
L 253.13031 23.117431 
L 253.13031 22.558249 
L 253.839198 22.558249 
L 253.839198 21.999066 
L 254.632526 21.999066 
L 254.632526 21.439884 
L 254.809747 21.439884 
L 254.822541 20.32152 
L 255.498933 20.32152 
L 255.498933 19.762337 
L 255.646945 19.762337 
L 255.646945 19.203155 
L 256.925883 19.203155 
L 256.925883 18.643973 
L 257.678584 18.643973 
L 257.778828 17.525609 
L 257.81923 17.525609 
L 257.81923 16.966426 
L 258.48564 16.966426 
L 258.48564 16.407244 
L 259.196151 16.407244 
L 259.21521 15.28888 
L 259.71401 15.28888 
L 259.71401 14.729697 
L 260.333668 14.729697 
L 260.333668 14.170515 
L 260.894372 14.170515 
L 260.911351 12.492968 
L 261.431615 12.492968 
L 261.431615 11.933786 
L 262.020015 11.933786 
L 262.074993 10.815422 
L 263.679645 10.815422 
L 263.679645 10.256239 
L 267.547594 10.256239 
L 267.547594 9.697057 
L 333.168 9.697057 
L 333.168 9.697057 
" style="fill:none;stroke:#ff0000;stroke-linecap:square;stroke-width:1.5;"/>
   </g>
   <g id="line2d_57">
    <defs>
     <path d="M 0 -6 
L -5.196152 -3 
L -5.196152 3 
L -0 6 
L 5.196152 3 
L 5.196152 -3 
z
" id="m253145eabc" style="stroke:#ff0000;stroke-linejoin:miter;stroke-width:1.5;"/>
    </defs>
    <g>
     <use style="fill-opacity:0;stroke:#ff0000;stroke-linejoin:miter;stroke-width:1.5;" x="139.519758" xlink:href="#m253145eabc" y="253.500514"/>
     <use style="fill-opacity:0;stroke:#ff0000;stroke-linejoin:miter;stroke-width:1.5;" x="215.765544" xlink:href="#m253145eabc" y="172.978271"/>
     <use style="fill-opacity:0;stroke:#ff0000;stroke-linejoin:miter;stroke-width:1.5;" x="246.506743" xlink:href="#m253145eabc" y="42.688809"/>
     <use style="fill-opacity:0;stroke:#ff0000;stroke-linejoin:miter;stroke-width:1.5;" x="267.547594" xlink:href="#m253145eabc" y="9.697057"/>
     <use style="fill-opacity:0;stroke:#ff0000;stroke-linejoin:miter;stroke-width:1.5;" x="267.547594" xlink:href="#m253145eabc" y="9.697057"/>
     <use style="fill-opacity:0;stroke:#ff0000;stroke-linejoin:miter;stroke-width:1.5;" x="333.168" xlink:href="#m253145eabc" y="9.697057"/>
    </g>
   </g>
   <g id="line2d_58">
    <path style="fill:none;stroke:#ff0000;stroke-linecap:square;stroke-width:1.5;"/>
    <g/>
   </g>
   <g id="line2d_59">
    <path clip-path="url(#pabf079207c)" d="M 202.691626 214.357757 
" style="fill:none;stroke:#ff0000;stroke-linecap:square;stroke-width:1.5;"/>
    <defs>
     <path d="M -12 12 
L 12 -12 
M -12 -12 
L 12 12 
" id="me4f17e4f91" style="stroke:#ff0000;"/>
    </defs>
    <g clip-path="url(#pabf079207c)">
     <use style="fill:#ff0000;stroke:#ff0000;" x="202.691626" xlink:href="#me4f17e4f91" y="214.357757"/>
    </g>
   </g>
   <g id="line2d_60">
    <path d="M 333.168 37.656169 
L 363.64328 289.176341 
" style="fill:none;stroke:#000080;stroke-linecap:square;stroke-width:1.5;"/>
    <g>
     <use style="fill-opacity:0;stroke:#000080;stroke-width:1.5;" x="333.168" xlink:href="#m6483b9103c" y="37.656169"/>
     <use style="fill-opacity:0;stroke:#000080;stroke-width:1.5;" x="363.64328" xlink:href="#m6483b9103c" y="289.176341"/>
    </g>
   </g>
   <g id="line2d_61">
    <path d="M 333.168 9.697057 
L 363.64328 220.732435 
" style="fill:none;stroke:#ff0000;stroke-linecap:square;stroke-width:1.5;"/>
    <g>
     <use style="fill-opacity:0;stroke:#ff0000;stroke-linejoin:miter;stroke-width:1.5;" x="333.168" xlink:href="#m253145eabc" y="9.697057"/>
     <use style="fill-opacity:0;stroke:#ff0000;stroke-linejoin:miter;stroke-width:1.5;" x="363.64328" xlink:href="#m253145eabc" y="220.732435"/>
    </g>
   </g>
   <g id="line2d_62">
    <path d="M 333.168 9.697057 
L 363.64328 152.288529 
" style="fill:none;stroke:#6495ed;stroke-linecap:square;stroke-width:1.5;"/>
    <g>
     <use style="fill-opacity:0;stroke:#6495ed;stroke-linejoin:miter;stroke-width:1.5;" x="333.168" xlink:href="#m3e1ae5c985" y="9.697057"/>
     <use style="fill-opacity:0;stroke:#6495ed;stroke-linejoin:miter;stroke-width:1.5;" x="363.64328" xlink:href="#m3e1ae5c985" y="152.288529"/>
    </g>
   </g>
   <g id="line2d_63">
    <path d="M 333.168 9.697057 
L 363.64328 83.844622 
" style="fill:none;stroke:#ff00ff;stroke-linecap:square;stroke-width:1.5;"/>
    <g>
     <use style="fill-opacity:0;stroke:#ff00ff;stroke-linejoin:miter;stroke-width:1.5;" x="333.168" xlink:href="#m36b2b6ae40" y="9.697057"/>
     <use style="fill-opacity:0;stroke:#ff00ff;stroke-linejoin:miter;stroke-width:1.5;" x="363.64328" xlink:href="#m36b2b6ae40" y="83.844622"/>
    </g>
   </g>
   <g id="line2d_64">
    <path d="M 333.168 9.697057 
L 363.64328 15.400716 
" style="fill:none;stroke:#ffa500;stroke-linecap:square;stroke-width:1.5;"/>
    <g>
     <use style="fill-opacity:0;stroke:#ffa500;stroke-linejoin:bevel;stroke-width:1.5;" x="333.168" xlink:href="#mb6dcb16e85" y="9.697057"/>
     <use style="fill-opacity:0;stroke:#ffa500;stroke-linejoin:bevel;stroke-width:1.5;" x="363.64328" xlink:href="#mb6dcb16e85" y="15.400716"/>
    </g>
   </g>
   <g id="line2d_65">
    <path d="M 333.168 294.88 
L 333.168 9.697057 
" style="fill:none;stroke:#000000;stroke-linecap:square;stroke-width:1.5;"/>
   </g>
   <g id="patch_3">
    <path d="M 56.12 294.88 
L 56.12 6.845228 
" style="fill:none;stroke:#000000;stroke-linecap:square;stroke-linejoin:miter;stroke-width:0.8;"/>
   </g>
   <g id="patch_4">
    <path d="M 333.168 294.88 
L 333.168 6.845228 
" style="fill:none;stroke:#000000;stroke-linecap:square;stroke-linejoin:miter;stroke-width:0.8;"/>
   </g>
   <g id="patch_5">
    <path d="M 56.12 294.88 
L 333.168 294.88 
" style="fill:none;stroke:#000000;stroke-linecap:square;stroke-linejoin:miter;stroke-width:0.8;"/>
   </g>
   <g id="patch_6">
    <path d="M 56.12 6.845228 
L 333.168 6.845228 
" style="fill:none;stroke:#000000;stroke-linecap:square;stroke-linejoin:miter;stroke-width:0.8;"/>
   </g>
   <g id="text_13">
    <!-- f23 -->
    <defs>
     <path d="M 40.578125 39.3125 
Q 47.65625 37.796875 51.625 33 
Q 55.609375 28.21875 55.609375 21.1875 
Q 55.609375 10.40625 48.1875 4.484375 
Q 40.765625 -1.421875 27.09375 -1.421875 
Q 22.515625 -1.421875 17.65625 -0.515625 
Q 12.796875 0.390625 7.625 2.203125 
L 7.625 11.71875 
Q 11.71875 9.328125 16.59375 8.109375 
Q 21.484375 6.890625 26.8125 6.890625 
Q 36.078125 6.890625 40.9375 10.546875 
Q 45.796875 14.203125 45.796875 21.1875 
Q 45.796875 27.640625 41.28125 31.265625 
Q 36.765625 34.90625 28.71875 34.90625 
L 20.21875 34.90625 
L 20.21875 43.015625 
L 29.109375 43.015625 
Q 36.375 43.015625 40.234375 45.921875 
Q 44.09375 48.828125 44.09375 54.296875 
Q 44.09375 59.90625 40.109375 62.90625 
Q 36.140625 65.921875 28.71875 65.921875 
Q 24.65625 65.921875 20.015625 65.03125 
Q 15.375 64.15625 9.8125 62.3125 
L 9.8125 71.09375 
Q 15.4375 72.65625 20.34375 73.4375 
Q 25.25 74.21875 29.59375 74.21875 
Q 40.828125 74.21875 47.359375 69.109375 
Q 53.90625 64.015625 53.90625 55.328125 
Q 53.90625 49.265625 50.4375 45.09375 
Q 46.96875 40.921875 40.578125 39.3125 
z
" id="DejaVuSans-33"/>
    </defs>
    <g transform="translate(369.18424 293.867279)scale(0.17 -0.17)">
     <use xlink:href="#DejaVuSans-66"/>
     <use x="35.205078" xlink:href="#DejaVuSans-32"/>
     <use x="98.828125" xlink:href="#DejaVuSans-33"/>
    </g>
   </g>
   <g id="text_14">
    <!-- f24 -->
    <g transform="translate(369.18424 225.423372)scale(0.17 -0.17)">
     <use xlink:href="#DejaVuSans-66"/>
     <use x="35.205078" xlink:href="#DejaVuSans-32"/>
     <use x="98.828125" xlink:href="#DejaVuSans-34"/>
    </g>
   </g>
   <g id="text_15">
    <!-- f20 -->
    <g transform="translate(369.18424 156.979466)scale(0.17 -0.17)">
     <use xlink:href="#DejaVuSans-66"/>
     <use x="35.205078" xlink:href="#DejaVuSans-32"/>
     <use x="98.828125" xlink:href="#DejaVuSans-30"/>
    </g>
   </g>
   <g id="text_16">
    <!-- f22 -->
    <g transform="translate(369.18424 88.53556)scale(0.17 -0.17)">
     <use xlink:href="#DejaVuSans-66"/>
     <use x="35.205078" xlink:href="#DejaVuSans-32"/>
     <use x="98.828125" xlink:href="#DejaVuSans-32"/>
    </g>
   </g>
   <g id="text_17">
    <!-- f21 -->
    <g transform="translate(369.18424 20.091654)scale(0.17 -0.17)">
     <use xlink:href="#DejaVuSans-66"/>
     <use x="35.205078" xlink:href="#DejaVuSans-32"/>
     <use x="98.828125" xlink:href="#DejaVuSans-31"/>
    </g>
   </g>
   <g id="text_18">
    <!-- bbob -->
    <defs>
     <path d="M 48.6875 27.296875 
Q 48.6875 37.203125 44.609375 42.84375 
Q 40.53125 48.484375 33.40625 48.484375 
Q 26.265625 48.484375 22.1875 42.84375 
Q 18.109375 37.203125 18.109375 27.296875 
Q 18.109375 17.390625 22.1875 11.75 
Q 26.265625 6.109375 33.40625 6.109375 
Q 40.53125 6.109375 44.609375 11.75 
Q 48.6875 17.390625 48.6875 27.296875 
z
M 18.109375 46.390625 
Q 20.953125 51.265625 25.265625 53.625 
Q 29.59375 56 35.59375 56 
Q 45.5625 56 51.78125 48.09375 
Q 58.015625 40.1875 58.015625 27.296875 
Q 58.015625 14.40625 51.78125 6.484375 
Q 45.5625 -1.421875 35.59375 -1.421875 
Q 29.59375 -1.421875 25.265625 0.953125 
Q 20.953125 3.328125 18.109375 8.203125 
L 18.109375 0 
L 9.078125 0 
L 9.078125 75.984375 
L 18.109375 75.984375 
z
" id="DejaVuSans-62"/>
    </defs>
    <g transform="translate(58.89048 17.475982)scale(0.102 -0.102)">
     <use xlink:href="#DejaVuSans-62"/>
     <use x="63.476562" xlink:href="#DejaVuSans-62"/>
     <use x="126.953125" xlink:href="#DejaVuSans-6f"/>
     <use x="188.134766" xlink:href="#DejaVuSans-62"/>
    </g>
    <!-- Weak structure functions, 2-D -->
    <defs>
     <path d="M 3.328125 72.90625 
L 13.28125 72.90625 
L 28.609375 11.28125 
L 43.890625 72.90625 
L 54.984375 72.90625 
L 70.3125 11.28125 
L 85.59375 72.90625 
L 95.609375 72.90625 
L 77.296875 0 
L 64.890625 0 
L 49.515625 63.28125 
L 33.984375 0 
L 21.578125 0 
z
" id="DejaVuSans-57"/>
     <path d="M 9.078125 75.984375 
L 18.109375 75.984375 
L 18.109375 31.109375 
L 44.921875 54.6875 
L 56.390625 54.6875 
L 27.390625 29.109375 
L 57.625 0 
L 45.90625 0 
L 18.109375 26.703125 
L 18.109375 0 
L 9.078125 0 
z
" id="DejaVuSans-6b"/>
     <path d="M 19.671875 64.796875 
L 19.671875 8.109375 
L 31.59375 8.109375 
Q 46.6875 8.109375 53.6875 14.9375 
Q 60.6875 21.78125 60.6875 36.53125 
Q 60.6875 51.171875 53.6875 57.984375 
Q 46.6875 64.796875 31.59375 64.796875 
z
M 9.8125 72.90625 
L 30.078125 72.90625 
Q 51.265625 72.90625 61.171875 64.09375 
Q 71.09375 55.28125 71.09375 36.53125 
Q 71.09375 17.671875 61.125 8.828125 
Q 51.171875 0 30.078125 0 
L 9.8125 0 
z
" id="DejaVuSans-44"/>
    </defs>
    <g transform="translate(58.89048 28.89775)scale(0.102 -0.102)">
     <use xlink:href="#DejaVuSans-57"/>
     <use x="98.798828" xlink:href="#DejaVuSans-65"/>
     <use x="160.322266" xlink:href="#DejaVuSans-61"/>
     <use x="221.601562" xlink:href="#DejaVuSans-6b"/>
     <use x="279.511719" xlink:href="#DejaVuSans-20"/>
     <use x="311.298828" xlink:href="#DejaVuSans-73"/>
     <use x="363.398438" xlink:href="#DejaVuSans-74"/>
     <use x="402.607422" xlink:href="#DejaVuSans-72"/>
     <use x="443.720703" xlink:href="#DejaVuSans-75"/>
     <use x="507.099609" xlink:href="#DejaVuSans-63"/>
     <use x="562.080078" xlink:href="#DejaVuSans-74"/>
     <use x="601.289062" xlink:href="#DejaVuSans-75"/>
     <use x="664.667969" xlink:href="#DejaVuSans-72"/>
     <use x="705.75" xlink:href="#DejaVuSans-65"/>
     <use x="767.273438" xlink:href="#DejaVuSans-20"/>
     <use x="799.060547" xlink:href="#DejaVuSans-66"/>
     <use x="834.265625" xlink:href="#DejaVuSans-75"/>
     <use x="897.644531" xlink:href="#DejaVuSans-6e"/>
     <use x="961.023438" xlink:href="#DejaVuSans-63"/>
     <use x="1016.003906" xlink:href="#DejaVuSans-74"/>
     <use x="1055.212891" xlink:href="#DejaVuSans-69"/>
     <use x="1082.996094" xlink:href="#DejaVuSans-6f"/>
     <use x="1144.177734" xlink:href="#DejaVuSans-6e"/>
     <use x="1207.556641" xlink:href="#DejaVuSans-73"/>
     <use x="1259.65625" xlink:href="#DejaVuSans-2c"/>
     <use x="1291.443359" xlink:href="#DejaVuSans-20"/>
     <use x="1323.230469" xlink:href="#DejaVuSans-32"/>
     <use x="1386.853516" xlink:href="#DejaVuSans-2d"/>
     <use x="1422.9375" xlink:href="#DejaVuSans-44"/>
    </g>
    <!-- 51 targets: 100..1e-08 -->
    <defs>
     <path d="M 10.796875 72.90625 
L 49.515625 72.90625 
L 49.515625 64.59375 
L 19.828125 64.59375 
L 19.828125 46.734375 
Q 21.96875 47.46875 24.109375 47.828125 
Q 26.265625 48.1875 28.421875 48.1875 
Q 40.625 48.1875 47.75 41.5 
Q 54.890625 34.8125 54.890625 23.390625 
Q 54.890625 11.625 47.5625 5.09375 
Q 40.234375 -1.421875 26.90625 -1.421875 
Q 22.3125 -1.421875 17.546875 -0.640625 
Q 12.796875 0.140625 7.71875 1.703125 
L 7.71875 11.625 
Q 12.109375 9.234375 16.796875 8.0625 
Q 21.484375 6.890625 26.703125 6.890625 
Q 35.15625 6.890625 40.078125 11.328125 
Q 45.015625 15.765625 45.015625 23.390625 
Q 45.015625 31 40.078125 35.4375 
Q 35.15625 39.890625 26.703125 39.890625 
Q 22.75 39.890625 18.8125 39.015625 
Q 14.890625 38.140625 10.796875 36.28125 
z
" id="DejaVuSans-35"/>
     <path d="M 11.71875 12.40625 
L 22.015625 12.40625 
L 22.015625 0 
L 11.71875 0 
z
M 11.71875 51.703125 
L 22.015625 51.703125 
L 22.015625 39.3125 
L 11.71875 39.3125 
z
" id="DejaVuSans-3a"/>
    </defs>
    <g transform="translate(58.89048 40.319519)scale(0.102 -0.102)">
     <use xlink:href="#DejaVuSans-35"/>
     <use x="63.623047" xlink:href="#DejaVuSans-31"/>
     <use x="127.246094" xlink:href="#DejaVuSans-20"/>
     <use x="159.033203" xlink:href="#DejaVuSans-74"/>
     <use x="198.242188" xlink:href="#DejaVuSans-61"/>
     <use x="259.521484" xlink:href="#DejaVuSans-72"/>
     <use x="300.619141" xlink:href="#DejaVuSans-67"/>
     <use x="364.095703" xlink:href="#DejaVuSans-65"/>
     <use x="425.619141" xlink:href="#DejaVuSans-74"/>
     <use x="464.828125" xlink:href="#DejaVuSans-73"/>
     <use x="516.927734" xlink:href="#DejaVuSans-3a"/>
     <use x="550.619141" xlink:href="#DejaVuSans-20"/>
     <use x="582.40625" xlink:href="#DejaVuSans-31"/>
     <use x="646.029297" xlink:href="#DejaVuSans-30"/>
     <use x="709.652344" xlink:href="#DejaVuSans-30"/>
     <use x="773.275391" xlink:href="#DejaVuSans-2e"/>
     <use x="805.0625" xlink:href="#DejaVuSans-2e"/>
     <use x="836.849609" xlink:href="#DejaVuSans-31"/>
     <use x="900.472656" xlink:href="#DejaVuSans-65"/>
     <use x="961.996094" xlink:href="#DejaVuSans-2d"/>
     <use x="998.080078" xlink:href="#DejaVuSans-30"/>
     <use x="1061.703125" xlink:href="#DejaVuSans-38"/>
    </g>
    <!-- 15 instances -->
    <g transform="translate(58.89048 51.741288)scale(0.102 -0.102)">
     <use xlink:href="#DejaVuSans-31"/>
     <use x="63.623047" xlink:href="#DejaVuSans-35"/>
     <use x="127.246094" xlink:href="#DejaVuSans-20"/>
     <use x="159.033203" xlink:href="#DejaVuSans-69"/>
     <use x="186.816406" xlink:href="#DejaVuSans-6e"/>
     <use x="250.195312" xlink:href="#DejaVuSans-73"/>
     <use x="302.294922" xlink:href="#DejaVuSans-74"/>
     <use x="341.503906" xlink:href="#DejaVuSans-61"/>
     <use x="402.783203" xlink:href="#DejaVuSans-6e"/>
     <use x="466.162109" xlink:href="#DejaVuSans-63"/>
     <use x="521.142578" xlink:href="#DejaVuSans-65"/>
     <use x="582.666016" xlink:href="#DejaVuSans-73"/>
    </g>
   </g>
   <g id="text_19">
    <!-- v0.0.0 -->
    <g style="fill:#808080;" transform="translate(178.96275 289.919965)scale(0.1 -0.1)">
     <use xlink:href="#DejaVuSans-76"/>
     <use x="59.179688" xlink:href="#DejaVuSans-30"/>
     <use x="122.802734" xlink:href="#DejaVuSans-2e"/>
     <use x="154.589844" xlink:href="#DejaVuSans-30"/>
     <use x="218.212891" xlink:href="#DejaVuSans-2e"/>
     <use x="250" xlink:href="#DejaVuSans-30"/>
    </g>
   </g>
  </g>
 </g>
 <defs>
  <clipPath id="pabf079207c">
   <rect height="288.034772" width="277.048" x="56.12" y="6.845228"/>
  </clipPath>
 </defs>
</svg>
