<?xml version="1.0" encoding="utf-8" standalone="no"?>
<!DOCTYPE svg PUBLIC "-//W3C//DTD SVG 1.1//EN"
  "http://www.w3.org/Graphics/SVG/1.1/DTD/svg11.dtd">
<!-- Created with matplotlib (http://matplotlib.org/) -->
<svg height="345.6pt" version="1.1" viewBox="0 0 460.8 345.6" width="460.8pt" xmlns="http://www.w3.org/2000/svg" xmlns:xlink="http://www.w3.org/1999/xlink">
 <defs>
  <style type="text/css">
*{stroke-linecap:butt;stroke-linejoin:round;}
  </style>
 </defs>
 <g id="figure_1">
  <g id="patch_1">
   <path d="M 0 345.6 
L 460.8 345.6 
L 460.8 0 
L 0 0 
z
" style="fill:#ffffff;"/>
  </g>
  <g id="axes_1">
   <g id="patch_2">
    <path d="M 56.12 294.88 
L 333.168 294.88 
L 333.168 24.84 
L 56.12 24.84 
z
" style="fill:#ffffff;"/>
   </g>
   <g id="matplotlib.axis_1">
    <g id="xtick_1">
     <g id="line2d_1">
      <path clip-path="url(#p1e45b9e2e2)" d="M 56.12 294.88 
L 56.12 24.84 
" style="fill:none;stroke:#b0b0b0;stroke-linecap:square;stroke-width:0.8;"/>
     </g>
     <g id="line2d_2">
      <defs>
       <path d="M 0 0 
L 0 3.5 
" id="mae13cd1dbe" style="stroke:#000000;stroke-width:0.8;"/>
      </defs>
      <g>
       <use style="stroke:#000000;stroke-width:0.8;" x="56.12" xlink:href="#mae13cd1dbe" y="294.88"/>
      </g>
     </g>
     <g id="text_1">
      <!-- 0 -->
      <defs>
       <path d="M 31.78125 66.40625 
Q 24.171875 66.40625 20.328125 58.90625 
Q 16.5 51.421875 16.5 36.375 
Q 16.5 21.390625 20.328125 13.890625 
Q 24.171875 6.390625 31.78125 6.390625 
Q 39.453125 6.390625 43.28125 13.890625 
Q 47.125 21.390625 47.125 36.375 
Q 47.125 51.421875 43.28125 58.90625 
Q 39.453125 66.40625 31.78125 66.40625 
z
M 31.78125 74.21875 
Q 44.046875 74.21875 50.515625 64.515625 
Q 56.984375 54.828125 56.984375 36.375 
Q 56.984375 17.96875 50.515625 8.265625 
Q 44.046875 -1.421875 31.78125 -1.421875 
Q 19.53125 -1.421875 13.0625 8.265625 
Q 6.59375 17.96875 6.59375 36.375 
Q 6.59375 54.828125 13.0625 64.515625 
Q 19.53125 74.21875 31.78125 74.21875 
z
" id="DejaVuSans-30"/>
      </defs>
      <g transform="translate(49.7575 317.076875)scale(0.2 -0.2)">
       <use xlink:href="#DejaVuSans-30"/>
      </g>
     </g>
    </g>
    <g id="xtick_2">
     <g id="line2d_3">
      <path clip-path="url(#p1e45b9e2e2)" d="M 135.276571 294.88 
L 135.276571 24.84 
" style="fill:none;stroke:#b0b0b0;stroke-linecap:square;stroke-width:0.8;"/>
     </g>
     <g id="line2d_4">
      <g>
       <use style="stroke:#000000;stroke-width:0.8;" x="135.276571" xlink:href="#mae13cd1dbe" y="294.88"/>
      </g>
     </g>
     <g id="text_2">
      <!-- 2 -->
      <defs>
       <path d="M 19.1875 8.296875 
L 53.609375 8.296875 
L 53.609375 0 
L 7.328125 0 
L 7.328125 8.296875 
Q 12.9375 14.109375 22.625 23.890625 
Q 32.328125 33.6875 34.8125 36.53125 
Q 39.546875 41.84375 41.421875 45.53125 
Q 43.3125 49.21875 43.3125 52.78125 
Q 43.3125 58.59375 39.234375 62.25 
Q 35.15625 65.921875 28.609375 65.921875 
Q 23.96875 65.921875 18.8125 64.3125 
Q 13.671875 62.703125 7.8125 59.421875 
L 7.8125 69.390625 
Q 13.765625 71.78125 18.9375 73 
Q 24.125 74.21875 28.421875 74.21875 
Q 39.75 74.21875 46.484375 68.546875 
Q 53.21875 62.890625 53.21875 53.421875 
Q 53.21875 48.921875 51.53125 44.890625 
Q 49.859375 40.875 45.40625 35.40625 
Q 44.1875 33.984375 37.640625 27.21875 
Q 31.109375 20.453125 19.1875 8.296875 
z
" id="DejaVuSans-32"/>
      </defs>
      <g transform="translate(128.914071 317.076875)scale(0.2 -0.2)">
       <use xlink:href="#DejaVuSans-32"/>
      </g>
     </g>
    </g>
    <g id="xtick_3">
     <g id="line2d_5">
      <path clip-path="url(#p1e45b9e2e2)" d="M 214.433143 294.88 
L 214.433143 24.84 
" style="fill:none;stroke:#b0b0b0;stroke-linecap:square;stroke-width:0.8;"/>
     </g>
     <g id="line2d_6">
      <g>
       <use style="stroke:#000000;stroke-width:0.8;" x="214.433143" xlink:href="#mae13cd1dbe" y="294.88"/>
      </g>
     </g>
     <g id="text_3">
      <!-- 4 -->
      <defs>
       <path d="M 37.796875 64.3125 
L 12.890625 25.390625 
L 37.796875 25.390625 
z
M 35.203125 72.90625 
L 47.609375 72.90625 
L 47.609375 25.390625 
L 58.015625 25.390625 
L 58.015625 17.1875 
L 47.609375 17.1875 
L 47.609375 0 
L 37.796875 0 
L 37.796875 17.1875 
L 4.890625 17.1875 
L 4.890625 26.703125 
z
" id="DejaVuSans-34"/>
      </defs>
      <g transform="translate(208.070643 317.076875)scale(0.2 -0.2)">
       <use xlink:href="#DejaVuSans-34"/>
      </g>
     </g>
    </g>
    <g id="xtick_4">
     <g id="line2d_7">
      <path clip-path="url(#p1e45b9e2e2)" d="M 293.589714 294.88 
L 293.589714 24.84 
" style="fill:none;stroke:#b0b0b0;stroke-linecap:square;stroke-width:0.8;"/>
     </g>
     <g id="line2d_8">
      <g>
       <use style="stroke:#000000;stroke-width:0.8;" x="293.589714" xlink:href="#mae13cd1dbe" y="294.88"/>
      </g>
     </g>
     <g id="text_4">
      <!-- 6 -->
      <defs>
       <path d="M 33.015625 40.375 
Q 26.375 40.375 22.484375 35.828125 
Q 18.609375 31.296875 18.609375 23.390625 
Q 18.609375 15.53125 22.484375 10.953125 
Q 26.375 6.390625 33.015625 6.390625 
Q 39.65625 6.390625 43.53125 10.953125 
Q 47.40625 15.53125 47.40625 23.390625 
Q 47.40625 31.296875 43.53125 35.828125 
Q 39.65625 40.375 33.015625 40.375 
z
M 52.59375 71.296875 
L 52.59375 62.3125 
Q 48.875 64.0625 45.09375 64.984375 
Q 41.3125 65.921875 37.59375 65.921875 
Q 27.828125 65.921875 22.671875 59.328125 
Q 17.53125 52.734375 16.796875 39.40625 
Q 19.671875 43.65625 24.015625 45.921875 
Q 28.375 48.1875 33.59375 48.1875 
Q 44.578125 48.1875 50.953125 41.515625 
Q 57.328125 34.859375 57.328125 23.390625 
Q 57.328125 12.15625 50.6875 5.359375 
Q 44.046875 -1.421875 33.015625 -1.421875 
Q 20.359375 -1.421875 13.671875 8.265625 
Q 6.984375 17.96875 6.984375 36.375 
Q 6.984375 53.65625 15.1875 63.9375 
Q 23.390625 74.21875 37.203125 74.21875 
Q 40.921875 74.21875 44.703125 73.484375 
Q 48.484375 72.75 52.59375 71.296875 
z
" id="DejaVuSans-36"/>
      </defs>
      <g transform="translate(287.227214 317.076875)scale(0.2 -0.2)">
       <use xlink:href="#DejaVuSans-36"/>
      </g>
     </g>
    </g>
    <g id="xtick_5">
     <g id="line2d_9">
      <path clip-path="url(#p1e45b9e2e2)" d="M 56.12 294.88 
L 56.12 24.84 
" style="fill:none;stroke:#b0b0b0;stroke-linecap:square;stroke-width:0.8;"/>
     </g>
     <g id="line2d_10">
      <defs>
       <path d="M 0 0 
L 0 2 
" id="m1d3044b886" style="stroke:#000000;stroke-width:0.6;"/>
      </defs>
      <g>
       <use style="stroke:#000000;stroke-width:0.6;" x="56.12" xlink:href="#m1d3044b886" y="294.88"/>
      </g>
     </g>
    </g>
    <g id="xtick_6">
     <g id="line2d_11">
      <path clip-path="url(#p1e45b9e2e2)" d="M 95.698286 294.88 
L 95.698286 24.84 
" style="fill:none;stroke:#b0b0b0;stroke-linecap:square;stroke-width:0.8;"/>
     </g>
     <g id="line2d_12">
      <g>
       <use style="stroke:#000000;stroke-width:0.6;" x="95.698286" xlink:href="#m1d3044b886" y="294.88"/>
      </g>
     </g>
    </g>
    <g id="xtick_7">
     <g id="line2d_13">
      <path clip-path="url(#p1e45b9e2e2)" d="M 135.276571 294.88 
L 135.276571 24.84 
" style="fill:none;stroke:#b0b0b0;stroke-linecap:square;stroke-width:0.8;"/>
     </g>
     <g id="line2d_14">
      <g>
       <use style="stroke:#000000;stroke-width:0.6;" x="135.276571" xlink:href="#m1d3044b886" y="294.88"/>
      </g>
     </g>
    </g>
    <g id="xtick_8">
     <g id="line2d_15">
      <path clip-path="url(#p1e45b9e2e2)" d="M 174.854857 294.88 
L 174.854857 24.84 
" style="fill:none;stroke:#b0b0b0;stroke-linecap:square;stroke-width:0.8;"/>
     </g>
     <g id="line2d_16">
      <g>
       <use style="stroke:#000000;stroke-width:0.6;" x="174.854857" xlink:href="#m1d3044b886" y="294.88"/>
      </g>
     </g>
    </g>
    <g id="xtick_9">
     <g id="line2d_17">
      <path clip-path="url(#p1e45b9e2e2)" d="M 214.433143 294.88 
L 214.433143 24.84 
" style="fill:none;stroke:#b0b0b0;stroke-linecap:square;stroke-width:0.8;"/>
     </g>
     <g id="line2d_18">
      <g>
       <use style="stroke:#000000;stroke-width:0.6;" x="214.433143" xlink:href="#m1d3044b886" y="294.88"/>
      </g>
     </g>
    </g>
    <g id="xtick_10">
     <g id="line2d_19">
      <path clip-path="url(#p1e45b9e2e2)" d="M 254.011429 294.88 
L 254.011429 24.84 
" style="fill:none;stroke:#b0b0b0;stroke-linecap:square;stroke-width:0.8;"/>
     </g>
     <g id="line2d_20">
      <g>
       <use style="stroke:#000000;stroke-width:0.6;" x="254.011429" xlink:href="#m1d3044b886" y="294.88"/>
      </g>
     </g>
    </g>
    <g id="xtick_11">
     <g id="line2d_21">
      <path clip-path="url(#p1e45b9e2e2)" d="M 293.589714 294.88 
L 293.589714 24.84 
" style="fill:none;stroke:#b0b0b0;stroke-linecap:square;stroke-width:0.8;"/>
     </g>
     <g id="line2d_22">
      <g>
       <use style="stroke:#000000;stroke-width:0.6;" x="293.589714" xlink:href="#m1d3044b886" y="294.88"/>
      </g>
     </g>
    </g>
    <g id="xtick_12">
     <g id="line2d_23">
      <path clip-path="url(#p1e45b9e2e2)" d="M 333.168 294.88 
L 333.168 24.84 
" style="fill:none;stroke:#b0b0b0;stroke-linecap:square;stroke-width:0.8;"/>
     </g>
     <g id="line2d_24">
      <g>
       <use style="stroke:#000000;stroke-width:0.6;" x="333.168" xlink:href="#m1d3044b886" y="294.88"/>
      </g>
     </g>
    </g>
    <g id="text_5">
     <!-- log10(# f-evals / dimension) -->
     <defs>
      <path d="M 9.421875 75.984375 
L 18.40625 75.984375 
L 18.40625 0 
L 9.421875 0 
z
" id="DejaVuSans-6c"/>
      <path d="M 30.609375 48.390625 
Q 23.390625 48.390625 19.1875 42.75 
Q 14.984375 37.109375 14.984375 27.296875 
Q 14.984375 17.484375 19.15625 11.84375 
Q 23.34375 6.203125 30.609375 6.203125 
Q 37.796875 6.203125 41.984375 11.859375 
Q 46.1875 17.53125 46.1875 27.296875 
Q 46.1875 37.015625 41.984375 42.703125 
Q 37.796875 48.390625 30.609375 48.390625 
z
M 30.609375 56 
Q 42.328125 56 49.015625 48.375 
Q 55.71875 40.765625 55.71875 27.296875 
Q 55.71875 13.875 49.015625 6.21875 
Q 42.328125 -1.421875 30.609375 -1.421875 
Q 18.84375 -1.421875 12.171875 6.21875 
Q 5.515625 13.875 5.515625 27.296875 
Q 5.515625 40.765625 12.171875 48.375 
Q 18.84375 56 30.609375 56 
z
" id="DejaVuSans-6f"/>
      <path d="M 45.40625 27.984375 
Q 45.40625 37.75 41.375 43.109375 
Q 37.359375 48.484375 30.078125 48.484375 
Q 22.859375 48.484375 18.828125 43.109375 
Q 14.796875 37.75 14.796875 27.984375 
Q 14.796875 18.265625 18.828125 12.890625 
Q 22.859375 7.515625 30.078125 7.515625 
Q 37.359375 7.515625 41.375 12.890625 
Q 45.40625 18.265625 45.40625 27.984375 
z
M 54.390625 6.78125 
Q 54.390625 -7.171875 48.1875 -13.984375 
Q 42 -20.796875 29.203125 -20.796875 
Q 24.46875 -20.796875 20.265625 -20.09375 
Q 16.0625 -19.390625 12.109375 -17.921875 
L 12.109375 -9.1875 
Q 16.0625 -11.328125 19.921875 -12.34375 
Q 23.78125 -13.375 27.78125 -13.375 
Q 36.625 -13.375 41.015625 -8.765625 
Q 45.40625 -4.15625 45.40625 5.171875 
L 45.40625 9.625 
Q 42.625 4.78125 38.28125 2.390625 
Q 33.9375 0 27.875 0 
Q 17.828125 0 11.671875 7.65625 
Q 5.515625 15.328125 5.515625 27.984375 
Q 5.515625 40.671875 11.671875 48.328125 
Q 17.828125 56 27.875 56 
Q 33.9375 56 38.28125 53.609375 
Q 42.625 51.21875 45.40625 46.390625 
L 45.40625 54.6875 
L 54.390625 54.6875 
z
" id="DejaVuSans-67"/>
      <path d="M 12.40625 8.296875 
L 28.515625 8.296875 
L 28.515625 63.921875 
L 10.984375 60.40625 
L 10.984375 69.390625 
L 28.421875 72.90625 
L 38.28125 72.90625 
L 38.28125 8.296875 
L 54.390625 8.296875 
L 54.390625 0 
L 12.40625 0 
z
" id="DejaVuSans-31"/>
      <path d="M 31 75.875 
Q 24.46875 64.65625 21.28125 53.65625 
Q 18.109375 42.671875 18.109375 31.390625 
Q 18.109375 20.125 21.3125 9.0625 
Q 24.515625 -2 31 -13.1875 
L 23.1875 -13.1875 
Q 15.875 -1.703125 12.234375 9.375 
Q 8.59375 20.453125 8.59375 31.390625 
Q 8.59375 42.28125 12.203125 53.3125 
Q 15.828125 64.359375 23.1875 75.875 
z
" id="DejaVuSans-28"/>
      <path d="M 51.125 44 
L 36.921875 44 
L 32.8125 27.6875 
L 47.125 27.6875 
z
M 43.796875 71.78125 
L 38.71875 51.515625 
L 52.984375 51.515625 
L 58.109375 71.78125 
L 65.921875 71.78125 
L 60.890625 51.515625 
L 76.125 51.515625 
L 76.125 44 
L 58.984375 44 
L 54.984375 27.6875 
L 70.515625 27.6875 
L 70.515625 20.21875 
L 53.078125 20.21875 
L 48 0 
L 40.1875 0 
L 45.21875 20.21875 
L 30.90625 20.21875 
L 25.875 0 
L 18.015625 0 
L 23.09375 20.21875 
L 7.71875 20.21875 
L 7.71875 27.6875 
L 24.90625 27.6875 
L 29 44 
L 13.28125 44 
L 13.28125 51.515625 
L 30.90625 51.515625 
L 35.890625 71.78125 
z
" id="DejaVuSans-23"/>
      <path id="DejaVuSans-20"/>
      <path d="M 37.109375 75.984375 
L 37.109375 68.5 
L 28.515625 68.5 
Q 23.6875 68.5 21.796875 66.546875 
Q 19.921875 64.59375 19.921875 59.515625 
L 19.921875 54.6875 
L 34.71875 54.6875 
L 34.71875 47.703125 
L 19.921875 47.703125 
L 19.921875 0 
L 10.890625 0 
L 10.890625 47.703125 
L 2.296875 47.703125 
L 2.296875 54.6875 
L 10.890625 54.6875 
L 10.890625 58.5 
Q 10.890625 67.625 15.140625 71.796875 
Q 19.390625 75.984375 28.609375 75.984375 
z
" id="DejaVuSans-66"/>
      <path d="M 4.890625 31.390625 
L 31.203125 31.390625 
L 31.203125 23.390625 
L 4.890625 23.390625 
z
" id="DejaVuSans-2d"/>
      <path d="M 56.203125 29.59375 
L 56.203125 25.203125 
L 14.890625 25.203125 
Q 15.484375 15.921875 20.484375 11.0625 
Q 25.484375 6.203125 34.421875 6.203125 
Q 39.59375 6.203125 44.453125 7.46875 
Q 49.3125 8.734375 54.109375 11.28125 
L 54.109375 2.78125 
Q 49.265625 0.734375 44.1875 -0.34375 
Q 39.109375 -1.421875 33.890625 -1.421875 
Q 20.796875 -1.421875 13.15625 6.1875 
Q 5.515625 13.8125 5.515625 26.8125 
Q 5.515625 40.234375 12.765625 48.109375 
Q 20.015625 56 32.328125 56 
Q 43.359375 56 49.78125 48.890625 
Q 56.203125 41.796875 56.203125 29.59375 
z
M 47.21875 32.234375 
Q 47.125 39.59375 43.09375 43.984375 
Q 39.0625 48.390625 32.421875 48.390625 
Q 24.90625 48.390625 20.390625 44.140625 
Q 15.875 39.890625 15.1875 32.171875 
z
" id="DejaVuSans-65"/>
      <path d="M 2.984375 54.6875 
L 12.5 54.6875 
L 29.59375 8.796875 
L 46.6875 54.6875 
L 56.203125 54.6875 
L 35.6875 0 
L 23.484375 0 
z
" id="DejaVuSans-76"/>
      <path d="M 34.28125 27.484375 
Q 23.390625 27.484375 19.1875 25 
Q 14.984375 22.515625 14.984375 16.5 
Q 14.984375 11.71875 18.140625 8.90625 
Q 21.296875 6.109375 26.703125 6.109375 
Q 34.1875 6.109375 38.703125 11.40625 
Q 43.21875 16.703125 43.21875 25.484375 
L 43.21875 27.484375 
z
M 52.203125 31.203125 
L 52.203125 0 
L 43.21875 0 
L 43.21875 8.296875 
Q 40.140625 3.328125 35.546875 0.953125 
Q 30.953125 -1.421875 24.3125 -1.421875 
Q 15.921875 -1.421875 10.953125 3.296875 
Q 6 8.015625 6 15.921875 
Q 6 25.140625 12.171875 29.828125 
Q 18.359375 34.515625 30.609375 34.515625 
L 43.21875 34.515625 
L 43.21875 35.40625 
Q 43.21875 41.609375 39.140625 45 
Q 35.0625 48.390625 27.6875 48.390625 
Q 23 48.390625 18.546875 47.265625 
Q 14.109375 46.140625 10.015625 43.890625 
L 10.015625 52.203125 
Q 14.9375 54.109375 19.578125 55.046875 
Q 24.21875 56 28.609375 56 
Q 40.484375 56 46.34375 49.84375 
Q 52.203125 43.703125 52.203125 31.203125 
z
" id="DejaVuSans-61"/>
      <path d="M 44.28125 53.078125 
L 44.28125 44.578125 
Q 40.484375 46.53125 36.375 47.5 
Q 32.28125 48.484375 27.875 48.484375 
Q 21.1875 48.484375 17.84375 46.4375 
Q 14.5 44.390625 14.5 40.28125 
Q 14.5 37.15625 16.890625 35.375 
Q 19.28125 33.59375 26.515625 31.984375 
L 29.59375 31.296875 
Q 39.15625 29.25 43.1875 25.515625 
Q 47.21875 21.78125 47.21875 15.09375 
Q 47.21875 7.46875 41.1875 3.015625 
Q 35.15625 -1.421875 24.609375 -1.421875 
Q 20.21875 -1.421875 15.453125 -0.5625 
Q 10.6875 0.296875 5.421875 2 
L 5.421875 11.28125 
Q 10.40625 8.6875 15.234375 7.390625 
Q 20.0625 6.109375 24.8125 6.109375 
Q 31.15625 6.109375 34.5625 8.28125 
Q 37.984375 10.453125 37.984375 14.40625 
Q 37.984375 18.0625 35.515625 20.015625 
Q 33.0625 21.96875 24.703125 23.78125 
L 21.578125 24.515625 
Q 13.234375 26.265625 9.515625 29.90625 
Q 5.8125 33.546875 5.8125 39.890625 
Q 5.8125 47.609375 11.28125 51.796875 
Q 16.75 56 26.8125 56 
Q 31.78125 56 36.171875 55.265625 
Q 40.578125 54.546875 44.28125 53.078125 
z
" id="DejaVuSans-73"/>
      <path d="M 25.390625 72.90625 
L 33.6875 72.90625 
L 8.296875 -9.28125 
L 0 -9.28125 
z
" id="DejaVuSans-2f"/>
      <path d="M 45.40625 46.390625 
L 45.40625 75.984375 
L 54.390625 75.984375 
L 54.390625 0 
L 45.40625 0 
L 45.40625 8.203125 
Q 42.578125 3.328125 38.25 0.953125 
Q 33.9375 -1.421875 27.875 -1.421875 
Q 17.96875 -1.421875 11.734375 6.484375 
Q 5.515625 14.40625 5.515625 27.296875 
Q 5.515625 40.1875 11.734375 48.09375 
Q 17.96875 56 27.875 56 
Q 33.9375 56 38.25 53.625 
Q 42.578125 51.265625 45.40625 46.390625 
z
M 14.796875 27.296875 
Q 14.796875 17.390625 18.875 11.75 
Q 22.953125 6.109375 30.078125 6.109375 
Q 37.203125 6.109375 41.296875 11.75 
Q 45.40625 17.390625 45.40625 27.296875 
Q 45.40625 37.203125 41.296875 42.84375 
Q 37.203125 48.484375 30.078125 48.484375 
Q 22.953125 48.484375 18.875 42.84375 
Q 14.796875 37.203125 14.796875 27.296875 
z
" id="DejaVuSans-64"/>
      <path d="M 9.421875 54.6875 
L 18.40625 54.6875 
L 18.40625 0 
L 9.421875 0 
z
M 9.421875 75.984375 
L 18.40625 75.984375 
L 18.40625 64.59375 
L 9.421875 64.59375 
z
" id="DejaVuSans-69"/>
      <path d="M 52 44.1875 
Q 55.375 50.25 60.0625 53.125 
Q 64.75 56 71.09375 56 
Q 79.640625 56 84.28125 50.015625 
Q 88.921875 44.046875 88.921875 33.015625 
L 88.921875 0 
L 79.890625 0 
L 79.890625 32.71875 
Q 79.890625 40.578125 77.09375 44.375 
Q 74.3125 48.1875 68.609375 48.1875 
Q 61.625 48.1875 57.5625 43.546875 
Q 53.515625 38.921875 53.515625 30.90625 
L 53.515625 0 
L 44.484375 0 
L 44.484375 32.71875 
Q 44.484375 40.625 41.703125 44.40625 
Q 38.921875 48.1875 33.109375 48.1875 
Q 26.21875 48.1875 22.15625 43.53125 
Q 18.109375 38.875 18.109375 30.90625 
L 18.109375 0 
L 9.078125 0 
L 9.078125 54.6875 
L 18.109375 54.6875 
L 18.109375 46.1875 
Q 21.1875 51.21875 25.484375 53.609375 
Q 29.78125 56 35.6875 56 
Q 41.65625 56 45.828125 52.96875 
Q 50 49.953125 52 44.1875 
z
" id="DejaVuSans-6d"/>
      <path d="M 54.890625 33.015625 
L 54.890625 0 
L 45.90625 0 
L 45.90625 32.71875 
Q 45.90625 40.484375 42.875 44.328125 
Q 39.84375 48.1875 33.796875 48.1875 
Q 26.515625 48.1875 22.3125 43.546875 
Q 18.109375 38.921875 18.109375 30.90625 
L 18.109375 0 
L 9.078125 0 
L 9.078125 54.6875 
L 18.109375 54.6875 
L 18.109375 46.1875 
Q 21.34375 51.125 25.703125 53.5625 
Q 30.078125 56 35.796875 56 
Q 45.21875 56 50.046875 50.171875 
Q 54.890625 44.34375 54.890625 33.015625 
z
" id="DejaVuSans-6e"/>
      <path d="M 8.015625 75.875 
L 15.828125 75.875 
Q 23.140625 64.359375 26.78125 53.3125 
Q 30.421875 42.28125 30.421875 31.390625 
Q 30.421875 20.453125 26.78125 9.375 
Q 23.140625 -1.703125 15.828125 -13.1875 
L 8.015625 -13.1875 
Q 14.5 -2 17.703125 9.0625 
Q 20.90625 20.125 20.90625 31.390625 
Q 20.90625 42.671875 17.703125 53.65625 
Q 14.5 64.65625 8.015625 75.875 
z
" id="DejaVuSans-29"/>
     </defs>
     <g transform="translate(73.803219 338.153594)scale(0.17 -0.17)">
      <use xlink:href="#DejaVuSans-6c"/>
      <use x="27.783203" xlink:href="#DejaVuSans-6f"/>
      <use x="88.964844" xlink:href="#DejaVuSans-67"/>
      <use x="152.441406" xlink:href="#DejaVuSans-31"/>
      <use x="216.064453" xlink:href="#DejaVuSans-30"/>
      <use x="279.6875" xlink:href="#DejaVuSans-28"/>
      <use x="318.701172" xlink:href="#DejaVuSans-23"/>
      <use x="402.490234" xlink:href="#DejaVuSans-20"/>
      <use x="434.277344" xlink:href="#DejaVuSans-66"/>
      <use x="469.404297" xlink:href="#DejaVuSans-2d"/>
      <use x="505.488281" xlink:href="#DejaVuSans-65"/>
      <use x="567.011719" xlink:href="#DejaVuSans-76"/>
      <use x="626.191406" xlink:href="#DejaVuSans-61"/>
      <use x="687.470703" xlink:href="#DejaVuSans-6c"/>
      <use x="715.253906" xlink:href="#DejaVuSans-73"/>
      <use x="767.353516" xlink:href="#DejaVuSans-20"/>
      <use x="799.140625" xlink:href="#DejaVuSans-2f"/>
      <use x="832.832031" xlink:href="#DejaVuSans-20"/>
      <use x="864.619141" xlink:href="#DejaVuSans-64"/>
      <use x="928.095703" xlink:href="#DejaVuSans-69"/>
      <use x="955.878906" xlink:href="#DejaVuSans-6d"/>
      <use x="1053.291016" xlink:href="#DejaVuSans-65"/>
      <use x="1114.814453" xlink:href="#DejaVuSans-6e"/>
      <use x="1178.193359" xlink:href="#DejaVuSans-73"/>
      <use x="1230.292969" xlink:href="#DejaVuSans-69"/>
      <use x="1258.076172" xlink:href="#DejaVuSans-6f"/>
      <use x="1319.257812" xlink:href="#DejaVuSans-6e"/>
      <use x="1382.636719" xlink:href="#DejaVuSans-29"/>
     </g>
    </g>
   </g>
   <g id="matplotlib.axis_2">
    <g id="ytick_1">
     <g id="line2d_25">
      <path clip-path="url(#p1e45b9e2e2)" d="M 56.12 294.88 
L 333.168 294.88 
" style="fill:none;stroke:#b0b0b0;stroke-linecap:square;stroke-width:0.8;"/>
     </g>
     <g id="line2d_26">
      <defs>
       <path d="M 0 0 
L -3.5 0 
" id="m4c56e7e182" style="stroke:#000000;stroke-width:0.8;"/>
      </defs>
      <g>
       <use style="stroke:#000000;stroke-width:0.8;" x="56.12" xlink:href="#m4c56e7e182" y="294.88"/>
      </g>
     </g>
     <g id="text_6">
      <!-- 0.0 -->
      <defs>
       <path d="M 10.6875 12.40625 
L 21 12.40625 
L 21 0 
L 10.6875 0 
z
" id="DejaVuSans-2e"/>
      </defs>
      <g transform="translate(23.675 300.95875)scale(0.16 -0.16)">
       <use xlink:href="#DejaVuSans-30"/>
       <use x="63.623047" xlink:href="#DejaVuSans-2e"/>
       <use x="95.410156" xlink:href="#DejaVuSans-30"/>
      </g>
     </g>
    </g>
    <g id="ytick_2">
     <g id="line2d_27">
      <path clip-path="url(#p1e45b9e2e2)" d="M 56.12 241.406733 
L 333.168 241.406733 
" style="fill:none;stroke:#b0b0b0;stroke-linecap:square;stroke-width:0.8;"/>
     </g>
     <g id="line2d_28">
      <g>
       <use style="stroke:#000000;stroke-width:0.8;" x="56.12" xlink:href="#m4c56e7e182" y="241.406733"/>
      </g>
     </g>
     <g id="text_7">
      <!-- 0.2 -->
      <g transform="translate(23.675 247.485483)scale(0.16 -0.16)">
       <use xlink:href="#DejaVuSans-30"/>
       <use x="63.623047" xlink:href="#DejaVuSans-2e"/>
       <use x="95.410156" xlink:href="#DejaVuSans-32"/>
      </g>
     </g>
    </g>
    <g id="ytick_3">
     <g id="line2d_29">
      <path clip-path="url(#p1e45b9e2e2)" d="M 56.12 187.933465 
L 333.168 187.933465 
" style="fill:none;stroke:#b0b0b0;stroke-linecap:square;stroke-width:0.8;"/>
     </g>
     <g id="line2d_30">
      <g>
       <use style="stroke:#000000;stroke-width:0.8;" x="56.12" xlink:href="#m4c56e7e182" y="187.933465"/>
      </g>
     </g>
     <g id="text_8">
      <!-- 0.4 -->
      <g transform="translate(23.675 194.012215)scale(0.16 -0.16)">
       <use xlink:href="#DejaVuSans-30"/>
       <use x="63.623047" xlink:href="#DejaVuSans-2e"/>
       <use x="95.410156" xlink:href="#DejaVuSans-34"/>
      </g>
     </g>
    </g>
    <g id="ytick_4">
     <g id="line2d_31">
      <path clip-path="url(#p1e45b9e2e2)" d="M 56.12 134.460198 
L 333.168 134.460198 
" style="fill:none;stroke:#b0b0b0;stroke-linecap:square;stroke-width:0.8;"/>
     </g>
     <g id="line2d_32">
      <g>
       <use style="stroke:#000000;stroke-width:0.8;" x="56.12" xlink:href="#m4c56e7e182" y="134.460198"/>
      </g>
     </g>
     <g id="text_9">
      <!-- 0.6 -->
      <g transform="translate(23.675 140.538948)scale(0.16 -0.16)">
       <use xlink:href="#DejaVuSans-30"/>
       <use x="63.623047" xlink:href="#DejaVuSans-2e"/>
       <use x="95.410156" xlink:href="#DejaVuSans-36"/>
      </g>
     </g>
    </g>
    <g id="ytick_5">
     <g id="line2d_33">
      <path clip-path="url(#p1e45b9e2e2)" d="M 56.12 80.986931 
L 333.168 80.986931 
" style="fill:none;stroke:#b0b0b0;stroke-linecap:square;stroke-width:0.8;"/>
     </g>
     <g id="line2d_34">
      <g>
       <use style="stroke:#000000;stroke-width:0.8;" x="56.12" xlink:href="#m4c56e7e182" y="80.986931"/>
      </g>
     </g>
     <g id="text_10">
      <!-- 0.8 -->
      <defs>
       <path d="M 31.78125 34.625 
Q 24.75 34.625 20.71875 30.859375 
Q 16.703125 27.09375 16.703125 20.515625 
Q 16.703125 13.921875 20.71875 10.15625 
Q 24.75 6.390625 31.78125 6.390625 
Q 38.8125 6.390625 42.859375 10.171875 
Q 46.921875 13.96875 46.921875 20.515625 
Q 46.921875 27.09375 42.890625 30.859375 
Q 38.875 34.625 31.78125 34.625 
z
M 21.921875 38.8125 
Q 15.578125 40.375 12.03125 44.71875 
Q 8.5 49.078125 8.5 55.328125 
Q 8.5 64.0625 14.71875 69.140625 
Q 20.953125 74.21875 31.78125 74.21875 
Q 42.671875 74.21875 48.875 69.140625 
Q 55.078125 64.0625 55.078125 55.328125 
Q 55.078125 49.078125 51.53125 44.71875 
Q 48 40.375 41.703125 38.8125 
Q 48.828125 37.15625 52.796875 32.3125 
Q 56.78125 27.484375 56.78125 20.515625 
Q 56.78125 9.90625 50.3125 4.234375 
Q 43.84375 -1.421875 31.78125 -1.421875 
Q 19.734375 -1.421875 13.25 4.234375 
Q 6.78125 9.90625 6.78125 20.515625 
Q 6.78125 27.484375 10.78125 32.3125 
Q 14.796875 37.15625 21.921875 38.8125 
z
M 18.3125 54.390625 
Q 18.3125 48.734375 21.84375 45.5625 
Q 25.390625 42.390625 31.78125 42.390625 
Q 38.140625 42.390625 41.71875 45.5625 
Q 45.3125 48.734375 45.3125 54.390625 
Q 45.3125 60.0625 41.71875 63.234375 
Q 38.140625 66.40625 31.78125 66.40625 
Q 25.390625 66.40625 21.84375 63.234375 
Q 18.3125 60.0625 18.3125 54.390625 
z
" id="DejaVuSans-38"/>
      </defs>
      <g transform="translate(23.675 87.065681)scale(0.16 -0.16)">
       <use xlink:href="#DejaVuSans-30"/>
       <use x="63.623047" xlink:href="#DejaVuSans-2e"/>
       <use x="95.410156" xlink:href="#DejaVuSans-38"/>
      </g>
     </g>
    </g>
    <g id="ytick_6">
     <g id="line2d_35">
      <path clip-path="url(#p1e45b9e2e2)" d="M 56.12 27.513663 
L 333.168 27.513663 
" style="fill:none;stroke:#b0b0b0;stroke-linecap:square;stroke-width:0.8;"/>
     </g>
     <g id="line2d_36">
      <g>
       <use style="stroke:#000000;stroke-width:0.8;" x="56.12" xlink:href="#m4c56e7e182" y="27.513663"/>
      </g>
     </g>
     <g id="text_11">
      <!-- 1.0 -->
      <g transform="translate(23.675 33.592413)scale(0.16 -0.16)">
       <use xlink:href="#DejaVuSans-31"/>
       <use x="63.623047" xlink:href="#DejaVuSans-2e"/>
       <use x="95.410156" xlink:href="#DejaVuSans-30"/>
      </g>
     </g>
    </g>
    <g id="text_12">
     <!-- Fraction of function,target pairs -->
     <defs>
      <path d="M 9.8125 72.90625 
L 51.703125 72.90625 
L 51.703125 64.59375 
L 19.671875 64.59375 
L 19.671875 43.109375 
L 48.578125 43.109375 
L 48.578125 34.8125 
L 19.671875 34.8125 
L 19.671875 0 
L 9.8125 0 
z
" id="DejaVuSans-46"/>
      <path d="M 41.109375 46.296875 
Q 39.59375 47.171875 37.8125 47.578125 
Q 36.03125 48 33.890625 48 
Q 26.265625 48 22.1875 43.046875 
Q 18.109375 38.09375 18.109375 28.8125 
L 18.109375 0 
L 9.078125 0 
L 9.078125 54.6875 
L 18.109375 54.6875 
L 18.109375 46.1875 
Q 20.953125 51.171875 25.484375 53.578125 
Q 30.03125 56 36.53125 56 
Q 37.453125 56 38.578125 55.875 
Q 39.703125 55.765625 41.0625 55.515625 
z
" id="DejaVuSans-72"/>
      <path d="M 48.78125 52.59375 
L 48.78125 44.1875 
Q 44.96875 46.296875 41.140625 47.34375 
Q 37.3125 48.390625 33.40625 48.390625 
Q 24.65625 48.390625 19.8125 42.84375 
Q 14.984375 37.3125 14.984375 27.296875 
Q 14.984375 17.28125 19.8125 11.734375 
Q 24.65625 6.203125 33.40625 6.203125 
Q 37.3125 6.203125 41.140625 7.25 
Q 44.96875 8.296875 48.78125 10.40625 
L 48.78125 2.09375 
Q 45.015625 0.34375 40.984375 -0.53125 
Q 36.96875 -1.421875 32.421875 -1.421875 
Q 20.0625 -1.421875 12.78125 6.34375 
Q 5.515625 14.109375 5.515625 27.296875 
Q 5.515625 40.671875 12.859375 48.328125 
Q 20.21875 56 33.015625 56 
Q 37.15625 56 41.109375 55.140625 
Q 45.0625 54.296875 48.78125 52.59375 
z
" id="DejaVuSans-63"/>
      <path d="M 18.3125 70.21875 
L 18.3125 54.6875 
L 36.8125 54.6875 
L 36.8125 47.703125 
L 18.3125 47.703125 
L 18.3125 18.015625 
Q 18.3125 11.328125 20.140625 9.421875 
Q 21.96875 7.515625 27.59375 7.515625 
L 36.8125 7.515625 
L 36.8125 0 
L 27.59375 0 
Q 17.1875 0 13.234375 3.875 
Q 9.28125 7.765625 9.28125 18.015625 
L 9.28125 47.703125 
L 2.6875 47.703125 
L 2.6875 54.6875 
L 9.28125 54.6875 
L 9.28125 70.21875 
z
" id="DejaVuSans-74"/>
      <path d="M 8.5 21.578125 
L 8.5 54.6875 
L 17.484375 54.6875 
L 17.484375 21.921875 
Q 17.484375 14.15625 20.5 10.265625 
Q 23.53125 6.390625 29.59375 6.390625 
Q 36.859375 6.390625 41.078125 11.03125 
Q 45.3125 15.671875 45.3125 23.6875 
L 45.3125 54.6875 
L 54.296875 54.6875 
L 54.296875 0 
L 45.3125 0 
L 45.3125 8.40625 
Q 42.046875 3.421875 37.71875 1 
Q 33.40625 -1.421875 27.6875 -1.421875 
Q 18.265625 -1.421875 13.375 4.4375 
Q 8.5 10.296875 8.5 21.578125 
z
M 31.109375 56 
z
" id="DejaVuSans-75"/>
      <path d="M 11.71875 12.40625 
L 22.015625 12.40625 
L 22.015625 4 
L 14.015625 -11.625 
L 7.71875 -11.625 
L 11.71875 4 
z
" id="DejaVuSans-2c"/>
      <path d="M 18.109375 8.203125 
L 18.109375 -20.796875 
L 9.078125 -20.796875 
L 9.078125 54.6875 
L 18.109375 54.6875 
L 18.109375 46.390625 
Q 20.953125 51.265625 25.265625 53.625 
Q 29.59375 56 35.59375 56 
Q 45.5625 56 51.78125 48.09375 
Q 58.015625 40.1875 58.015625 27.296875 
Q 58.015625 14.40625 51.78125 6.484375 
Q 45.5625 -1.421875 35.59375 -1.421875 
Q 29.59375 -1.421875 25.265625 0.953125 
Q 20.953125 3.328125 18.109375 8.203125 
z
M 48.6875 27.296875 
Q 48.6875 37.203125 44.609375 42.84375 
Q 40.53125 48.484375 33.40625 48.484375 
Q 26.265625 48.484375 22.1875 42.84375 
Q 18.109375 37.203125 18.109375 27.296875 
Q 18.109375 17.390625 22.1875 11.75 
Q 26.265625 6.109375 33.40625 6.109375 
Q 40.53125 6.109375 44.609375 11.75 
Q 48.6875 17.390625 48.6875 27.296875 
z
" id="DejaVuSans-70"/>
     </defs>
     <g transform="translate(16.139531 294.999375)rotate(-90)scale(0.17 -0.17)">
      <use xlink:href="#DejaVuSans-46"/>
      <use x="57.410156" xlink:href="#DejaVuSans-72"/>
      <use x="98.523438" xlink:href="#DejaVuSans-61"/>
      <use x="159.802734" xlink:href="#DejaVuSans-63"/>
      <use x="214.783203" xlink:href="#DejaVuSans-74"/>
      <use x="253.992188" xlink:href="#DejaVuSans-69"/>
      <use x="281.775391" xlink:href="#DejaVuSans-6f"/>
      <use x="342.957031" xlink:href="#DejaVuSans-6e"/>
      <use x="406.335938" xlink:href="#DejaVuSans-20"/>
      <use x="438.123047" xlink:href="#DejaVuSans-6f"/>
      <use x="499.304688" xlink:href="#DejaVuSans-66"/>
      <use x="534.509766" xlink:href="#DejaVuSans-20"/>
      <use x="566.296875" xlink:href="#DejaVuSans-66"/>
      <use x="601.501953" xlink:href="#DejaVuSans-75"/>
      <use x="664.880859" xlink:href="#DejaVuSans-6e"/>
      <use x="728.259766" xlink:href="#DejaVuSans-63"/>
      <use x="783.240234" xlink:href="#DejaVuSans-74"/>
      <use x="822.449219" xlink:href="#DejaVuSans-69"/>
      <use x="850.232422" xlink:href="#DejaVuSans-6f"/>
      <use x="911.414062" xlink:href="#DejaVuSans-6e"/>
      <use x="974.792969" xlink:href="#DejaVuSans-2c"/>
      <use x="1006.580078" xlink:href="#DejaVuSans-74"/>
      <use x="1045.789062" xlink:href="#DejaVuSans-61"/>
      <use x="1107.068359" xlink:href="#DejaVuSans-72"/>
      <use x="1148.166016" xlink:href="#DejaVuSans-67"/>
      <use x="1211.642578" xlink:href="#DejaVuSans-65"/>
      <use x="1273.166016" xlink:href="#DejaVuSans-74"/>
      <use x="1312.375" xlink:href="#DejaVuSans-20"/>
      <use x="1344.162109" xlink:href="#DejaVuSans-70"/>
      <use x="1407.638672" xlink:href="#DejaVuSans-61"/>
      <use x="1468.917969" xlink:href="#DejaVuSans-69"/>
      <use x="1496.701172" xlink:href="#DejaVuSans-72"/>
      <use x="1537.814453" xlink:href="#DejaVuSans-73"/>
     </g>
    </g>
   </g>
   <g id="line2d_37">
    <defs>
     <path d="M 0 1.5 
C 0.397805 1.5 0.77937 1.341951 1.06066 1.06066 
C 1.341951 0.77937 1.5 0.397805 1.5 0 
C 1.5 -0.397805 1.341951 -0.77937 1.06066 -1.06066 
C 0.77937 -1.341951 0.397805 -1.5 0 -1.5 
C -0.397805 -1.5 -0.77937 -1.341951 -1.06066 -1.06066 
C -1.341951 -0.77937 -1.5 -0.397805 -1.5 0 
C -1.5 0.397805 -1.341951 0.77937 -1.06066 1.06066 
C -0.77937 1.341951 -0.397805 1.5 0 1.5 
z
" id="ma868db7342" style="stroke:#00bfbf;"/>
    </defs>
    <g>
     <use style="fill:#00bfbf;stroke:#00bfbf;" x="197.697345" xlink:href="#ma868db7342" y="27.513663"/>
     <use style="fill:#00bfbf;stroke:#00bfbf;" x="197.697345" xlink:href="#ma868db7342" y="27.513663"/>
    </g>
   </g>
   <g id="line2d_38">
    <path d="M 44.205749 294.88 
L 44.205749 273.910091 
L 56.12 273.910091 
L 56.12 273.385844 
L 63.08939 273.385844 
L 63.08939 270.240357 
L 68.034251 270.240357 
L 68.034251 265.522128 
L 71.869783 265.522128 
L 71.869783 263.425137 
L 79.948502 263.425137 
L 79.948502 262.900889 
L 85.422286 262.900889 
L 85.422286 262.376641 
L 88.293717 262.376641 
L 88.293717 258.706907 
L 90.753425 258.706907 
L 90.753425 258.18266 
L 91.862754 258.18266 
L 91.862754 256.085669 
L 92.904808 256.085669 
L 92.904808 255.561421 
L 93.887283 255.561421 
L 93.887283 254.512926 
L 95.698286 254.512926 
L 95.698286 253.988678 
L 97.336537 253.988678 
L 97.336537 252.415935 
L 105.317315 252.415935 
L 105.317315 251.891687 
L 105.801534 251.891687 
L 105.801534 250.318944 
L 111.100812 250.318944 
L 111.100812 249.270448 
L 111.788449 249.270448 
L 111.788449 248.746201 
L 112.770924 248.746201 
L 112.770924 247.173458 
L 114.293036 247.173458 
L 114.293036 246.64921 
L 117.952873 246.64921 
L 117.952873 245.600714 
L 118.186736 245.600714 
L 118.186736 244.027971 
L 119.310576 244.027971 
L 119.310576 243.503724 
L 119.95122 243.503724 
L 119.95122 242.979476 
L 123.7027 242.979476 
L 123.7027 242.455228 
L 129.748989 242.455228 
L 129.748989 241.93098 
L 129.984454 241.93098 
L 129.984454 241.406733 
L 131.333273 241.406733 
L 131.333273 240.358237 
L 134.213018 240.358237 
L 134.213018 239.309742 
L 135.784647 239.309742 
L 135.784647 238.261246 
L 138.553074 238.261246 
L 138.553074 237.736999 
L 140.113666 237.736999 
L 140.113666 236.164255 
L 140.812746 236.164255 
L 140.812746 235.640008 
L 141.603867 235.640008 
L 141.603867 235.11576 
L 143.408921 235.11576 
L 143.408921 234.591512 
L 143.568817 234.591512 
L 143.674593 232.494521 
L 144.548344 232.494521 
L 144.548344 230.397531 
L 146.444328 230.397531 
L 146.444328 229.349035 
L 146.667271 229.349035 
L 146.667271 227.776292 
L 147.615255 227.776292 
L 147.615255 226.727797 
L 148.070335 226.727797 
L 148.070335 225.155053 
L 149.815889 225.155053 
L 149.815889 224.630806 
L 150.784014 224.630806 
L 150.784014 224.106558 
L 151.026355 224.106558 
L 151.026355 220.436824 
L 152.381011 220.436824 
L 152.381011 219.912576 
L 152.601988 219.912576 
L 152.601988 219.388328 
L 153.842163 219.388328 
L 153.842163 218.864081 
L 155.615187 218.864081 
L 155.615187 218.339833 
L 156.005559 218.339833 
L 156.005559 216.76709 
L 157.625086 216.76709 
L 157.625086 216.242842 
L 157.995745 216.242842 
L 157.995745 215.718594 
L 158.336125 215.718594 
L 158.336125 215.194347 
L 158.80161 215.194347 
L 158.910606 213.621604 
L 159.233507 213.621604 
L 159.233507 213.097356 
L 160.704216 213.097356 
L 160.704216 212.573108 
L 161.637678 212.573108 
L 161.637678 211.000365 
L 162.854447 211.000365 
L 162.854447 209.95187 
L 163.077568 209.95187 
L 163.162618 208.903374 
L 163.515304 208.903374 
L 163.515304 206.806383 
L 163.64778 206.806383 
L 163.64778 205.757888 
L 163.762864 205.757888 
L 163.762864 204.709392 
L 163.877183 204.709392 
L 163.877183 204.185145 
L 164.765354 204.185145 
L 164.765354 203.660897 
L 165.026142 203.660897 
L 165.026142 203.136649 
L 165.432369 203.136649 
L 165.432369 202.088154 
L 165.785573 202.088154 
L 165.785573 201.563906 
L 166.400795 201.563906 
L 166.498896 200.515411 
L 166.721046 200.515411 
L 166.721046 197.894172 
L 167.894059 197.894172 
L 167.894059 197.369924 
L 168.07351 197.369924 
L 168.07351 196.845677 
L 168.263721 196.845677 
L 168.263721 196.321429 
L 168.451851 196.321429 
L 168.451851 195.797181 
L 168.69953 195.797181 
L 168.69953 195.272933 
L 169.244094 195.272933 
L 169.244094 194.748686 
L 169.656029 194.748686 
L 169.737245 193.175943 
L 169.864099 193.175943 
L 169.864099 192.651695 
L 170.137663 192.651695 
L 170.137663 192.127447 
L 170.429193 192.127447 
L 170.429193 191.603199 
L 170.661102 191.603199 
L 170.661102 190.554704 
L 171.506528 190.554704 
L 171.589867 188.981961 
L 171.734745 188.981961 
L 171.734745 188.457713 
L 172.302345 188.457713 
L 172.411669 185.312227 
L 172.589076 185.312227 
L 172.589076 184.263731 
L 172.832476 184.263731 
L 172.900015 182.16674 
L 172.996041 182.16674 
L 172.996041 181.118245 
L 173.205429 181.118245 
L 173.299769 180.06975 
L 173.393594 180.06975 
L 173.4776 179.021254 
L 173.57972 179.021254 
L 173.57972 177.972759 
L 174.269172 177.972759 
L 174.286947 176.924263 
L 174.568879 176.924263 
L 174.638645 174.827272 
L 174.932032 174.827272 
L 175.008863 172.730281 
L 175.153056 172.730281 
L 175.245718 170.109043 
L 175.329524 170.109043 
L 175.329524 169.060547 
L 175.864526 169.060547 
L 175.864526 168.5363 
L 176.065942 168.5363 
L 176.073949 165.915061 
L 176.304566 165.915061 
L 176.304566 164.866566 
L 176.756719 164.866566 
L 176.756719 163.293823 
L 177.023925 163.293823 
L 177.0542 161.721079 
L 177.524129 161.721079 
L 177.524129 160.148336 
L 177.72166 160.148336 
L 177.72166 159.099841 
L 178.524581 159.099841 
L 178.524581 157.00285 
L 179.118175 157.00285 
L 179.118175 155.954354 
L 179.417347 155.954354 
L 179.417347 154.905859 
L 180.159046 154.905859 
L 180.171666 153.333116 
L 180.33489 153.333116 
L 180.428358 148.090639 
L 180.918444 148.090639 
L 180.918444 146.517896 
L 181.610936 146.517896 
L 181.616736 144.945152 
L 181.89857 144.945152 
L 181.89857 144.420905 
L 182.398945 144.420905 
L 182.398945 143.372409 
L 182.72824 143.372409 
L 182.72824 140.751171 
L 182.917454 140.751171 
L 182.917454 139.702675 
L 183.056678 139.702675 
L 183.136489 136.032941 
L 183.20536 136.032941 
L 183.20536 134.984446 
L 183.394652 134.984446 
L 183.457289 132.887455 
L 183.807985 132.887455 
L 183.807985 131.838959 
L 184.000889 131.838959 
L 184.000889 131.314712 
L 184.206623 131.314712 
L 184.231545 129.217721 
L 184.454231 129.217721 
L 184.562059 125.547987 
L 184.838323 125.547987 
L 184.838323 123.450996 
L 185.12441 123.450996 
L 185.12441 122.4025 
L 185.554031 122.4025 
L 185.554031 120.829757 
L 185.801288 120.829757 
L 185.801288 120.30551 
L 186.48313 120.30551 
L 186.48313 119.257014 
L 186.790581 119.257014 
L 186.790581 117.684271 
L 187.377021 117.684271 
L 187.484528 114.014537 
L 187.525698 114.014537 
L 187.525698 111.917546 
L 187.794977 111.917546 
L 187.794977 111.393298 
L 187.944112 111.393298 
L 187.972181 108.77206 
L 188.277959 108.77206 
L 188.277959 105.626573 
L 188.469751 105.626573 
L 188.570655 104.578078 
L 188.628601 104.578078 
L 188.724745 98.811353 
L 188.812725 98.811353 
L 188.885067 97.23861 
L 189.032609 97.23861 
L 189.122779 95.665867 
L 189.190098 95.665867 
L 189.231108 93.044628 
L 189.309128 93.044628 
L 189.309128 92.520381 
L 189.449414 92.520381 
L 189.559363 91.471885 
L 189.650453 91.471885 
L 189.730215 89.899142 
L 189.899385 89.899142 
L 189.978003 87.802151 
L 190.253875 87.802151 
L 190.295927 86.753656 
L 190.49082 86.753656 
L 190.51157 85.70516 
L 190.961864 85.70516 
L 191.072618 83.608169 
L 191.176014 83.608169 
L 191.285401 81.511178 
L 191.377671 81.511178 
L 191.453096 78.88994 
L 191.612688 78.88994 
L 191.625651 75.744454 
L 191.754744 75.744454 
L 191.754744 75.220206 
L 191.99421 75.220206 
L 192.010057 71.026224 
L 192.217872 71.026224 
L 192.217872 69.977729 
L 192.37055 69.977729 
L 192.44175 68.929233 
L 192.561811 68.929233 
L 192.656649 67.35649 
L 192.699309 67.35649 
L 192.699309 66.832242 
L 192.826655 66.832242 
L 192.826655 64.735251 
L 193.318005 64.735251 
L 193.376619 62.638261 
L 193.493252 62.638261 
L 193.493252 61.589765 
L 193.744227 61.589765 
L 193.835626 60.017022 
L 193.903857 60.017022 
L 194.014159 58.444279 
L 194.081687 58.444279 
L 194.179692 56.871536 
L 194.238228 56.871536 
L 194.324275 53.726049 
L 194.536161 53.726049 
L 194.536161 52.677554 
L 194.685924 52.677554 
L 194.794029 50.580563 
L 194.861251 50.580563 
L 194.960259 48.483572 
L 194.984256 48.483572 
L 195.03215 45.862334 
L 195.116967 45.862334 
L 195.169766 44.813838 
L 195.306289 44.813838 
L 195.389767 42.716847 
L 195.454703 42.716847 
L 195.555516 41.144104 
L 195.573549 41.144104 
L 195.573549 40.619856 
L 195.712023 40.619856 
L 195.755387 36.425875 
L 195.85699 36.425875 
L 195.922711 34.328884 
L 196.103408 34.328884 
L 196.103408 33.804636 
L 196.287165 33.804636 
L 196.368482 31.183397 
L 196.644053 31.183397 
L 196.745361 29.610654 
L 197.683687 29.610654 
L 197.697345 27.513663 
L 333.168 27.513663 
L 333.168 27.513663 
" style="fill:none;stroke:#00bfbf;stroke-linecap:square;stroke-width:1.5;"/>
   </g>
   <g id="line2d_39">
    <defs>
     <path d="M -6 0 
L 6 0 
M 0 6 
L 0 -6 
" id="mfadda42bcb" style="stroke:#00bfbf;stroke-width:1.5;"/>
    </defs>
    <g>
     <use style="fill-opacity:0;stroke:#00bfbf;stroke-width:1.5;" x="119.95122" xlink:href="#mfadda42bcb" y="243.503724"/>
     <use style="fill-opacity:0;stroke:#00bfbf;stroke-width:1.5;" x="175.245718" xlink:href="#mfadda42bcb" y="171.681786"/>
     <use style="fill-opacity:0;stroke:#00bfbf;stroke-width:1.5;" x="193.835626" xlink:href="#mfadda42bcb" y="60.017022"/>
     <use style="fill-opacity:0;stroke:#00bfbf;stroke-width:1.5;" x="197.697345" xlink:href="#mfadda42bcb" y="27.513663"/>
     <use style="fill-opacity:0;stroke:#00bfbf;stroke-width:1.5;" x="197.697345" xlink:href="#mfadda42bcb" y="27.513663"/>
     <use style="fill-opacity:0;stroke:#00bfbf;stroke-width:1.5;" x="333.168" xlink:href="#mfadda42bcb" y="27.513663"/>
    </g>
   </g>
   <g id="line2d_40">
    <path style="fill:none;stroke:#00bfbf;stroke-linecap:square;stroke-width:1.5;"/>
    <g/>
   </g>
   <g id="line2d_41">
    <defs>
     <path d="M 0 1.5 
C 0.397805 1.5 0.77937 1.341951 1.06066 1.06066 
C 1.341951 0.77937 1.5 0.397805 1.5 0 
C 1.5 -0.397805 1.341951 -0.77937 1.06066 -1.06066 
C 0.77937 -1.341951 0.397805 -1.5 0 -1.5 
C -0.397805 -1.5 -0.77937 -1.341951 -1.06066 -1.06066 
C -1.341951 -0.77937 -1.5 -0.397805 -1.5 0 
C -1.5 0.397805 -1.341951 0.77937 -1.06066 1.06066 
C -0.77937 1.341951 -0.397805 1.5 0 1.5 
z
" id="m06d04ecd62" style="stroke:#008000;"/>
    </defs>
    <g>
     <use style="fill:#008000;stroke:#008000;" x="212.772991" xlink:href="#m06d04ecd62" y="27.513663"/>
     <use style="fill:#008000;stroke:#008000;" x="212.772991" xlink:href="#m06d04ecd62" y="27.513663"/>
    </g>
   </g>
   <g id="line2d_42">
    <path d="M 37.236359 294.88 
L 37.236359 266.046375 
L 56.12 266.046375 
L 56.12 264.99788 
L 61.064861 264.99788 
L 61.064861 263.425137 
L 70.68389 263.425137 
L 70.68389 262.900889 
L 75.003641 262.900889 
L 75.003641 262.376641 
L 81.324327 262.376641 
L 81.324327 261.852394 
L 91.862754 261.852394 
L 91.862754 261.328146 
L 97.336537 261.328146 
L 97.336537 259.231155 
L 98.347925 259.231155 
L 98.347925 258.18266 
L 99.761485 258.18266 
L 99.761485 255.561421 
L 101.067579 255.561421 
L 101.067579 253.46443 
L 101.88624 253.46443 
L 101.88624 252.940182 
L 104.131422 252.940182 
L 104.131422 252.415935 
L 107.896653 252.415935 
L 107.896653 250.843192 
L 112.341186 250.843192 
L 112.341186 249.794696 
L 118.645127 249.794696 
L 118.645127 249.270448 
L 120.636117 249.270448 
L 120.636117 248.746201 
L 124.146303 248.746201 
L 124.146303 248.221953 
L 132.142713 248.221953 
L 132.142713 247.697705 
L 132.816864 247.697705 
L 132.816864 246.64921 
L 136.223997 246.64921 
L 136.223997 245.600714 
L 136.546293 245.600714 
L 136.599426 241.93098 
L 137.628993 241.93098 
L 137.628993 240.882485 
L 139.786254 240.882485 
L 139.786254 239.83399 
L 140.812746 239.83399 
L 140.812746 239.309742 
L 140.936852 239.309742 
L 140.936852 237.736999 
L 141.424506 237.736999 
L 141.424506 236.164255 
L 142.846499 236.164255 
L 142.846499 235.11576 
L 143.283522 235.11576 
L 143.283522 234.591512 
L 144.125582 234.591512 
L 144.125582 233.018769 
L 145.284061 233.018769 
L 145.284061 232.494521 
L 145.788718 232.494521 
L 145.788718 231.970274 
L 146.369367 231.970274 
L 146.39939 230.921778 
L 146.57844 230.921778 
L 146.637711 229.349035 
L 147.892497 229.349035 
L 147.892497 228.824787 
L 148.380535 228.824787 
L 148.380535 228.30054 
L 149.342206 228.30054 
L 149.342206 227.252044 
L 149.889502 227.252044 
L 149.889502 226.727797 
L 150.06005 226.727797 
L 150.06005 225.155053 
L 151.366735 225.155053 
L 151.366735 224.630806 
L 151.589967 224.630806 
L 151.589967 223.058063 
L 152.370417 223.058063 
L 152.370417 222.533815 
L 152.643759 222.533815 
L 152.643759 222.009567 
L 153.278551 222.009567 
L 153.278551 220.961072 
L 154.083649 220.961072 
L 154.083649 220.436824 
L 155.728875 220.436824 
L 155.728875 219.388328 
L 156.328439 219.388328 
L 156.328439 218.339833 
L 156.562529 218.339833 
L 156.562529 217.291338 
L 156.711349 217.291338 
L 156.760671 216.242842 
L 157.341751 216.242842 
L 157.341751 215.718594 
L 157.718503 215.718594 
L 157.718503 214.670099 
L 157.919181 214.670099 
L 157.919181 214.145851 
L 158.625765 214.145851 
L 158.713912 211.000365 
L 159.473517 211.000365 
L 159.473517 210.476117 
L 160.120144 210.476117 
L 160.120144 209.95187 
L 160.795333 209.95187 
L 160.795333 207.330631 
L 160.937549 207.330631 
L 160.937549 206.806383 
L 161.155049 206.806383 
L 161.155049 206.282136 
L 161.49493 206.282136 
L 161.49493 205.23364 
L 161.705532 205.23364 
L 161.705532 204.709392 
L 162.215042 204.709392 
L 162.215042 204.185145 
L 163.145642 204.185145 
L 163.24725 202.088154 
L 163.920534 202.088154 
L 163.920534 201.563906 
L 164.210328 201.563906 
L 164.210328 201.039658 
L 164.484845 201.039658 
L 164.495316 198.942667 
L 164.693068 198.942667 
L 164.693068 197.894172 
L 165.491743 197.894172 
L 165.541064 196.321429 
L 165.629489 196.321429 
L 165.629489 195.797181 
L 165.88241 195.797181 
L 165.88241 195.272933 
L 166.292705 195.272933 
L 166.292705 194.748686 
L 166.766968 194.748686 
L 166.766968 194.224438 
L 167.210629 194.224438 
L 167.210629 193.70019 
L 167.485511 193.70019 
L 167.485511 192.651695 
L 167.902647 192.651695 
L 167.945522 188.457713 
L 168.335035 188.457713 
L 168.435212 185.836474 
L 168.911336 185.836474 
L 168.935608 183.739484 
L 169.601672 183.739484 
L 169.694751 182.16674 
L 169.963389 182.16674 
L 169.963389 180.06975 
L 170.310189 180.06975 
L 170.325109 178.497006 
L 170.606169 178.497006 
L 170.606169 177.972759 
L 170.744994 177.972759 
L 170.744994 176.400016 
L 170.961934 176.400016 
L 170.961934 175.35152 
L 171.147759 175.35152 
L 171.147759 174.827272 
L 171.457726 174.827272 
L 171.457726 173.778777 
L 171.830656 173.778777 
L 171.830656 172.730281 
L 172.289047 172.730281 
L 172.289047 172.206034 
L 172.49403 172.206034 
L 172.49403 171.157538 
L 172.61194 171.157538 
L 172.709584 169.584795 
L 172.890383 169.584795 
L 172.890383 169.060547 
L 173.126416 169.060547 
L 173.126416 168.012052 
L 173.496213 168.012052 
L 173.496213 167.487804 
L 173.724125 167.487804 
L 173.724125 166.963557 
L 173.973196 166.963557 
L 173.973196 166.439309 
L 174.087406 166.439309 
L 174.087406 165.390813 
L 174.301746 165.390813 
L 174.407922 163.293823 
L 174.466626 163.293823 
L 174.513446 160.148336 
L 174.670527 160.148336 
L 174.711018 159.099841 
L 174.87776 159.099841 
L 174.87776 158.051345 
L 175.301634 158.051345 
L 175.312795 157.00285 
L 175.55103 157.00285 
L 175.55103 155.954354 
L 176.262385 155.954354 
L 176.267664 153.857364 
L 176.456609 153.857364 
L 176.513931 151.760373 
L 176.859002 151.760373 
L 176.884478 150.18763 
L 177.127146 150.18763 
L 177.127146 149.139134 
L 177.24222 149.139134 
L 177.24222 148.090639 
L 177.514316 148.090639 
L 177.60732 145.4694 
L 177.733779 145.4694 
L 177.733779 142.323914 
L 177.859315 142.323914 
L 177.873741 140.751171 
L 178.036395 140.751171 
L 178.036395 139.702675 
L 178.329095 139.702675 
L 178.422461 138.129932 
L 178.909008 138.129932 
L 178.976759 137.081437 
L 179.452461 137.081437 
L 179.452461 136.557189 
L 179.713559 136.557189 
L 179.713559 135.508693 
L 179.940943 135.508693 
L 179.940943 133.93595 
L 180.055633 133.93595 
L 180.055633 133.411703 
L 180.37026 133.411703 
L 180.37026 132.363207 
L 180.75663 132.363207 
L 180.75663 131.838959 
L 181.102667 131.838959 
L 181.154374 128.169225 
L 181.445781 128.169225 
L 181.445781 127.12073 
L 181.566403 127.12073 
L 181.647637 125.023739 
L 181.77835 125.023739 
L 181.885254 122.926748 
L 181.919475 122.926748 
L 182.010401 120.829757 
L 182.209506 120.829757 
L 182.209506 120.30551 
L 182.509412 120.30551 
L 182.509412 119.781262 
L 182.691961 119.781262 
L 182.71011 118.732766 
L 182.822206 118.732766 
L 182.822206 117.684271 
L 182.972922 117.684271 
L 182.972922 116.111528 
L 183.161243 116.111528 
L 183.228256 113.490289 
L 183.295008 113.490289 
L 183.302019 112.441794 
L 183.679883 112.441794 
L 183.744907 109.296308 
L 183.887778 109.296308 
L 183.958771 108.247812 
L 184.378677 108.247812 
L 184.483706 106.150821 
L 184.506596 106.150821 
L 184.506596 105.626573 
L 184.662739 105.626573 
L 184.662739 103.005335 
L 184.913484 103.005335 
L 184.913484 101.956839 
L 185.062827 101.956839 
L 185.062827 100.908344 
L 185.192054 100.908344 
L 185.192054 99.859849 
L 185.432153 99.859849 
L 185.44144 97.762858 
L 185.546343 97.762858 
L 185.656723 93.044628 
L 185.775508 93.044628 
L 185.775508 92.520381 
L 185.953661 92.520381 
L 185.953661 91.996133 
L 186.138905 91.996133 
L 186.233739 86.753656 
L 186.494777 86.753656 
L 186.509326 84.656665 
L 186.631046 84.656665 
L 186.631046 84.132417 
L 186.820597 84.132417 
L 186.820597 83.608169 
L 186.954317 83.608169 
L 187.053224 81.511178 
L 187.229836 81.511178 
L 187.229836 80.986931 
L 187.443259 80.986931 
L 187.45152 79.938435 
L 187.624107 79.938435 
L 187.632282 78.88994 
L 187.865003 78.88994 
L 187.942774 75.744454 
L 188.150221 75.744454 
L 188.250385 73.647463 
L 188.821626 73.647463 
L 188.821626 73.123215 
L 188.960888 73.123215 
L 189.001189 71.026224 
L 189.084014 71.026224 
L 189.084014 69.977729 
L 189.472684 69.977729 
L 189.565451 64.735251 
L 189.64803 64.735251 
L 189.691589 63.162508 
L 189.933973 63.162508 
L 190.000568 60.54127 
L 190.083451 60.54127 
L 190.18943 56.347288 
L 190.362299 56.347288 
L 190.448086 55.298792 
L 190.519633 55.298792 
L 190.554146 53.201802 
L 190.69607 53.201802 
L 190.69607 52.153306 
L 190.913535 52.153306 
L 190.913535 51.629058 
L 191.041366 51.629058 
L 191.14828 49.00782 
L 191.724709 49.00782 
L 191.735442 47.435077 
L 191.876491 47.435077 
L 191.876491 46.386581 
L 192.68307 46.386581 
L 192.68307 45.862334 
L 193.749954 45.862334 
L 193.749954 45.338086 
L 198.309773 45.338086 
L 198.309773 44.813838 
L 198.837365 44.813838 
L 198.837365 44.28959 
L 199.811478 44.28959 
L 199.811478 43.765343 
L 201.227086 43.765343 
L 201.227086 43.241095 
L 201.496736 43.241095 
L 201.496736 42.716847 
L 201.851799 42.716847 
L 201.851799 42.192599 
L 202.175142 42.192599 
L 202.175142 40.619856 
L 202.369274 40.619856 
L 202.369274 39.571361 
L 202.718265 39.571361 
L 202.718265 39.047113 
L 202.88397 39.047113 
L 202.88397 38.522865 
L 203.437012 38.522865 
L 203.437012 37.998618 
L 203.634665 37.998618 
L 203.659347 36.425875 
L 203.909519 36.425875 
L 203.909519 35.901627 
L 204.05894 35.901627 
L 204.05894 34.853131 
L 204.384811 34.853131 
L 204.440235 33.280388 
L 204.635863 33.280388 
L 204.635863 32.756141 
L 205.048282 32.756141 
L 205.158706 30.65915 
L 205.306467 30.65915 
L 205.306467 29.610654 
L 205.482892 29.610654 
L 205.482892 29.086407 
L 205.758421 29.086407 
L 205.758421 28.562159 
L 212.525101 28.562159 
L 212.525101 28.037911 
L 212.772991 28.037911 
L 212.772991 27.513663 
L 333.168 27.513663 
L 333.168 27.513663 
" style="fill:none;stroke:#008000;stroke-linecap:square;stroke-width:1.5;"/>
   </g>
   <g id="line2d_43">
    <defs>
     <path d="M -0 6 
L 6 -6 
L -6 -6 
z
" id="m9d00e23a61" style="stroke:#008000;stroke-linejoin:miter;stroke-width:1.5;"/>
    </defs>
    <g>
     <use style="fill-opacity:0;stroke:#008000;stroke-linejoin:miter;stroke-width:1.5;" x="112.341186" xlink:href="#m9d00e23a61" y="249.794696"/>
     <use style="fill-opacity:0;stroke:#008000;stroke-linejoin:miter;stroke-width:1.5;" x="165.88241" xlink:href="#m9d00e23a61" y="195.797181"/>
     <use style="fill-opacity:0;stroke:#008000;stroke-linejoin:miter;stroke-width:1.5;" x="193.749954" xlink:href="#m9d00e23a61" y="45.338086"/>
     <use style="fill-opacity:0;stroke:#008000;stroke-linejoin:miter;stroke-width:1.5;" x="212.772991" xlink:href="#m9d00e23a61" y="27.513663"/>
     <use style="fill-opacity:0;stroke:#008000;stroke-linejoin:miter;stroke-width:1.5;" x="212.772991" xlink:href="#m9d00e23a61" y="27.513663"/>
     <use style="fill-opacity:0;stroke:#008000;stroke-linejoin:miter;stroke-width:1.5;" x="333.168" xlink:href="#m9d00e23a61" y="27.513663"/>
    </g>
   </g>
   <g id="line2d_44">
    <path style="fill:none;stroke:#008000;stroke-linecap:square;stroke-width:1.5;"/>
    <g/>
   </g>
   <g id="line2d_45">
    <path clip-path="url(#p1e45b9e2e2)" d="M 195.722236 45.338086 
" style="fill:none;stroke:#008000;stroke-linecap:square;stroke-width:1.5;"/>
    <defs>
     <path d="M -12 12 
L 12 -12 
M -12 -12 
L 12 12 
" id="m790a5efc4b" style="stroke:#008000;"/>
    </defs>
    <g clip-path="url(#p1e45b9e2e2)">
     <use style="fill:#008000;stroke:#008000;" x="195.722236" xlink:href="#m790a5efc4b" y="45.338086"/>
    </g>
   </g>
   <g id="line2d_46">
    <defs>
     <path d="M 0 1.5 
C 0.397805 1.5 0.77937 1.341951 1.06066 1.06066 
C 1.341951 0.77937 1.5 0.397805 1.5 0 
C 1.5 -0.397805 1.341951 -0.77937 1.06066 -1.06066 
C 0.77937 -1.341951 0.397805 -1.5 0 -1.5 
C -0.397805 -1.5 -0.77937 -1.341951 -1.06066 -1.06066 
C -1.341951 -0.77937 -1.5 -0.397805 -1.5 0 
C -1.5 0.397805 -1.341951 0.77937 -1.06066 1.06066 
C -0.77937 1.341951 -0.397805 1.5 0 1.5 
z
" id="m4fa78110f8" style="stroke:#0000ff;"/>
    </defs>
    <g>
     <use style="fill:#0000ff;stroke:#0000ff;" x="245.176576" xlink:href="#m4fa78110f8" y="106.150821"/>
     <use style="fill:#0000ff;stroke:#0000ff;" x="245.176576" xlink:href="#m4fa78110f8" y="106.150821"/>
    </g>
   </g>
   <g id="line2d_47">
    <path d="M 28.455965 294.88 
L 28.455965 271.8131 
L 40.370217 271.8131 
L 40.370217 271.288853 
L 47.339607 271.288853 
L 47.339607 270.240357 
L 52.284468 270.240357 
L 52.284468 269.716109 
L 59.253858 269.716109 
L 59.253858 266.046375 
L 66.223248 266.046375 
L 66.223248 265.522128 
L 71.168109 265.522128 
L 71.168109 264.473632 
L 85.732 264.473632 
L 85.732 263.425137 
L 86.335171 263.425137 
L 86.335171 262.900889 
L 89.567532 262.900889 
L 89.567532 262.376641 
L 93.501005 262.376641 
L 93.501005 261.852394 
L 94.26507 261.852394 
L 94.26507 261.328146 
L 94.996612 261.328146 
L 94.996612 260.803898 
L 99.11626 260.803898 
L 99.11626 260.279651 
L 101.966002 260.279651 
L 101.966002 259.231155 
L 106.365146 259.231155 
L 106.365146 258.706907 
L 109.864733 258.706907 
L 109.864733 258.18266 
L 110.457504 258.18266 
L 110.457504 257.658412 
L 119.697821 257.658412 
L 119.697821 257.134164 
L 121.242993 257.134164 
L 121.242993 256.085669 
L 121.397846 256.085669 
L 121.397846 254.512926 
L 122.077925 254.512926 
L 122.077925 253.988678 
L 123.085078 253.988678 
L 123.085078 253.46443 
L 125.614517 253.46443 
L 125.614517 251.891687 
L 125.734717 251.891687 
L 125.734717 251.367439 
L 126.948537 251.367439 
L 127.004254 249.794696 
L 127.28016 249.794696 
L 127.28016 248.746201 
L 127.659138 248.746201 
L 127.659138 248.221953 
L 127.92481 248.221953 
L 127.92481 247.697705 
L 128.082264 247.697705 
L 128.082264 247.173458 
L 128.341524 247.173458 
L 128.341524 246.124962 
L 129.341145 246.124962 
L 129.341145 245.600714 
L 135.345189 245.600714 
L 135.345189 244.552219 
L 137.008324 244.552219 
L 137.008324 244.027971 
L 137.916386 244.027971 
L 137.916386 242.979476 
L 138.918505 242.979476 
L 138.946296 241.406733 
L 139.08458 241.406733 
L 139.167019 239.83399 
L 139.438997 239.83399 
L 139.438997 239.309742 
L 140.230025 239.309742 
L 140.230025 238.261246 
L 141.352234 238.261246 
L 141.352234 236.688503 
L 141.710592 236.688503 
L 141.710592 236.164255 
L 142.268865 236.164255 
L 142.268865 234.591512 
L 142.541345 234.591512 
L 142.541345 233.543017 
L 143.204228 233.543017 
L 143.204228 233.018769 
L 143.333791 233.018769 
L 143.333791 232.494521 
L 144.457904 232.494521 
L 144.457904 231.970274 
L 147.963853 231.970274 
L 147.963853 230.921778 
L 149.108066 230.921778 
L 149.108066 230.397531 
L 149.230624 230.397531 
L 149.230624 229.873283 
L 149.427935 229.873283 
L 149.427935 229.349035 
L 150.021216 229.349035 
L 150.021216 228.824787 
L 150.281655 228.824787 
L 150.281655 228.30054 
L 150.707138 228.30054 
L 150.707138 227.776292 
L 151.567774 227.776292 
L 151.674041 224.630806 
L 152.912822 224.630806 
L 152.912822 224.106558 
L 153.230235 224.106558 
L 153.230235 223.58231 
L 154.353922 223.58231 
L 154.353922 223.058063 
L 155.140141 223.058063 
L 155.140141 222.533815 
L 155.578296 222.533815 
L 155.620451 218.864081 
L 156.077456 218.864081 
L 156.077456 217.815585 
L 156.602341 217.815585 
L 156.602341 217.291338 
L 156.721225 217.291338 
L 156.721225 214.670099 
L 157.034288 214.670099 
L 157.034288 213.621604 
L 158.105402 213.621604 
L 158.105402 213.097356 
L 158.259561 213.097356 
L 158.259561 212.04886 
L 158.519389 212.04886 
L 158.563792 210.476117 
L 159.352519 210.476117 
L 159.352519 209.95187 
L 159.487531 209.95187 
L 159.563012 206.282136 
L 159.746137 206.282136 
L 159.746137 205.757888 
L 160.082296 205.757888 
L 160.114742 204.185145 
L 160.844596 204.185145 
L 160.844596 203.136649 
L 161.559624 203.136649 
L 161.559624 201.563906 
L 161.825776 201.563906 
L 161.825776 201.039658 
L 162.317533 201.039658 
L 162.317533 200.515411 
L 162.452458 200.515411 
L 162.452458 199.991163 
L 163.388499 199.991163 
L 163.388499 199.466915 
L 163.700485 199.466915 
L 163.733345 197.369924 
L 163.948654 197.369924 
L 164.058527 195.797181 
L 164.097139 195.797181 
L 164.097139 194.224438 
L 164.396633 194.224438 
L 164.396633 193.70019 
L 164.851699 193.70019 
L 164.851699 192.651695 
L 165.210886 192.651695 
L 165.318991 191.078952 
L 165.662775 191.078952 
L 165.733053 190.030456 
L 165.901712 190.030456 
L 165.901712 189.506209 
L 166.35858 189.506209 
L 166.35858 188.981961 
L 166.654702 188.981961 
L 166.654702 188.457713 
L 166.847495 188.457713 
L 166.847495 187.933465 
L 167.550483 187.933465 
L 167.58725 186.360722 
L 167.790669 186.360722 
L 167.790669 185.836474 
L 167.924955 185.836474 
L 167.924955 185.312227 
L 168.768246 185.312227 
L 168.768246 184.787979 
L 169.336756 184.787979 
L 169.336756 183.739484 
L 169.711761 183.739484 
L 169.818078 182.690988 
L 171.48563 182.690988 
L 171.48563 181.118245 
L 172.294367 181.118245 
L 172.377952 179.545502 
L 172.630209 179.545502 
L 172.72775 178.497006 
L 172.98263 178.497006 
L 172.98263 177.972759 
L 173.108667 177.972759 
L 173.108667 177.448511 
L 173.514805 177.448511 
L 173.514805 176.924263 
L 173.80958 176.924263 
L 173.80958 176.400016 
L 174.62994 176.400016 
L 174.62994 175.35152 
L 175.598283 175.35152 
L 175.598283 174.303025 
L 175.709856 174.303025 
L 175.709856 173.254529 
L 175.882345 173.254529 
L 175.882345 172.730281 
L 176.075551 172.730281 
L 176.075551 172.206034 
L 176.65176 172.206034 
L 176.65176 171.681786 
L 177.337697 171.681786 
L 177.367424 170.633291 
L 178.334711 170.633291 
L 178.334711 170.109043 
L 179.303611 170.109043 
L 179.303611 169.584795 
L 189.951599 169.584795 
L 189.951599 169.060547 
L 190.21805 169.060547 
L 190.21805 168.5363 
L 190.346952 168.5363 
L 190.346952 167.487804 
L 190.600515 167.487804 
L 190.600515 166.963557 
L 190.763415 166.963557 
L 190.763415 166.439309 
L 190.896419 166.439309 
L 190.970616 164.866566 
L 191.555536 164.866566 
L 191.591928 163.81807 
L 191.82021 163.81807 
L 191.82021 162.245327 
L 191.989771 162.245327 
L 192.007522 161.196832 
L 192.11113 161.196832 
L 192.117427 160.148336 
L 192.343852 160.148336 
L 192.44175 158.575593 
L 192.463979 158.575593 
L 192.463979 158.051345 
L 192.80973 158.051345 
L 192.80973 157.527098 
L 192.978235 157.527098 
L 193.047564 155.954354 
L 193.187754 155.954354 
L 193.295091 152.808868 
L 193.421616 152.808868 
L 193.421616 152.28462 
L 194.200899 152.28462 
L 194.267699 151.236125 
L 194.469849 151.236125 
L 194.469849 150.711877 
L 195.34547 150.711877 
L 195.34547 150.18763 
L 197.474738 150.18763 
L 197.474738 149.663382 
L 200.659693 149.663382 
L 200.659693 149.139134 
L 200.911415 149.139134 
L 200.911415 148.614886 
L 201.116289 148.614886 
L 201.116289 148.090639 
L 201.348216 148.090639 
L 201.348216 147.566391 
L 201.467768 147.566391 
L 201.467768 147.042143 
L 201.57996 147.042143 
L 201.57996 146.517896 
L 202.178649 146.517896 
L 202.238156 145.4694 
L 202.454831 145.4694 
L 202.523704 143.372409 
L 202.906392 143.372409 
L 202.906392 142.848162 
L 203.028969 142.848162 
L 203.028969 141.799666 
L 203.185768 141.799666 
L 203.185768 140.751171 
L 207.60992 140.751171 
L 207.60992 139.702675 
L 207.773267 139.702675 
L 207.820808 138.65418 
L 208.011666 138.65418 
L 208.1073 137.605684 
L 208.213762 137.605684 
L 208.213762 137.081437 
L 208.350939 137.081437 
L 208.350939 136.557189 
L 208.531187 136.557189 
L 208.531187 136.032941 
L 208.988341 136.032941 
L 208.988341 135.508693 
L 209.155051 135.508693 
L 209.155051 134.984446 
L 212.325866 134.984446 
L 212.325866 134.460198 
L 212.544425 134.460198 
L 212.557082 133.411703 
L 212.663724 133.411703 
L 212.663724 132.887455 
L 212.838495 132.887455 
L 212.838495 132.363207 
L 213.067428 132.363207 
L 213.067428 131.838959 
L 213.19536 131.838959 
L 213.292617 130.790464 
L 213.326014 130.790464 
L 213.326014 130.266216 
L 214.066582 130.266216 
L 214.066582 129.741969 
L 215.855657 129.741969 
L 215.855657 129.217721 
L 216.010972 129.217721 
L 216.010972 128.693473 
L 216.2968 128.693473 
L 216.342082 126.072235 
L 216.470501 126.072235 
L 216.470501 125.547987 
L 216.652438 125.547987 
L 216.652438 125.023739 
L 218.655099 125.023739 
L 218.707188 123.450996 
L 218.966609 123.450996 
L 218.966609 122.926748 
L 219.307299 122.926748 
L 219.307299 122.4025 
L 219.46168 122.4025 
L 219.46168 121.878253 
L 221.221909 121.878253 
L 221.23117 120.829757 
L 221.478453 120.829757 
L 221.478453 120.30551 
L 221.875639 120.30551 
L 221.875639 119.781262 
L 223.826558 119.781262 
L 223.826558 119.257014 
L 223.939834 119.257014 
L 223.939834 118.208519 
L 225.66898 118.208519 
L 225.66898 117.684271 
L 227.22854 117.684271 
L 227.238008 116.635776 
L 227.588408 116.635776 
L 227.588408 116.111528 
L 228.710506 116.111528 
L 228.710506 115.58728 
L 228.952678 115.58728 
L 229.029612 114.538785 
L 229.132241 114.538785 
L 229.132241 114.014537 
L 230.423661 114.014537 
L 230.423661 113.490289 
L 230.548767 113.490289 
L 230.548767 112.966042 
L 231.699994 112.966042 
L 231.699994 112.441794 
L 233.06084 112.441794 
L 233.06084 111.917546 
L 233.311627 111.917546 
L 233.311627 111.393298 
L 234.071839 111.393298 
L 234.071839 110.869051 
L 235.045014 110.869051 
L 235.145345 109.820555 
L 236.159031 109.820555 
L 236.210625 108.77206 
L 237.929203 108.77206 
L 237.929203 108.247812 
L 238.123237 108.247812 
L 238.123237 107.723564 
L 238.919012 107.723564 
L 238.919012 107.199317 
L 239.618605 107.199317 
L 239.618605 106.675069 
L 245.176576 106.675069 
L 245.176576 106.150821 
L 333.168 106.150821 
L 333.168 106.150821 
" style="fill:none;stroke:#0000ff;stroke-linecap:square;stroke-width:1.5;"/>
   </g>
   <g id="line2d_48">
    <defs>
     <path d="M 0 -6 
L -1.347084 -1.854102 
L -5.706339 -1.854102 
L -2.179628 0.708204 
L -3.526712 4.854102 
L -0 2.291796 
L 3.526712 4.854102 
L 2.179628 0.708204 
L 5.706339 -1.854102 
L 1.347084 -1.854102 
z
" id="m4c9830bfe3" style="stroke:#0000ff;stroke-linejoin:bevel;stroke-width:1.5;"/>
    </defs>
    <g>
     <use style="fill-opacity:0;stroke:#0000ff;stroke-linejoin:bevel;stroke-width:1.5;" x="127.659138" xlink:href="#m4c9830bfe3" y="248.221953"/>
     <use style="fill-opacity:0;stroke:#0000ff;stroke-linejoin:bevel;stroke-width:1.5;" x="173.80958" xlink:href="#m4c9830bfe3" y="176.400016"/>
     <use style="fill-opacity:0;stroke:#0000ff;stroke-linejoin:bevel;stroke-width:1.5;" x="245.176576" xlink:href="#m4c9830bfe3" y="106.675069"/>
     <use style="fill-opacity:0;stroke:#0000ff;stroke-linejoin:bevel;stroke-width:1.5;" x="245.176576" xlink:href="#m4c9830bfe3" y="106.150821"/>
     <use style="fill-opacity:0;stroke:#0000ff;stroke-linejoin:bevel;stroke-width:1.5;" x="245.176576" xlink:href="#m4c9830bfe3" y="106.150821"/>
     <use style="fill-opacity:0;stroke:#0000ff;stroke-linejoin:bevel;stroke-width:1.5;" x="333.168" xlink:href="#m4c9830bfe3" y="106.150821"/>
    </g>
   </g>
   <g id="line2d_49">
    <path style="fill:none;stroke:#0000ff;stroke-linecap:square;stroke-width:1.5;"/>
    <g/>
   </g>
   <g id="line2d_50">
    <path clip-path="url(#p1e45b9e2e2)" d="M 186.941843 169.584795 
" style="fill:none;stroke:#0000ff;stroke-linecap:square;stroke-width:1.5;"/>
    <defs>
     <path d="M -12 12 
L 12 -12 
M -12 -12 
L 12 12 
" id="mbe9c7875e7" style="stroke:#0000ff;"/>
    </defs>
    <g clip-path="url(#p1e45b9e2e2)">
     <use style="fill:#0000ff;stroke:#0000ff;" x="186.941843" xlink:href="#mbe9c7875e7" y="169.584795"/>
    </g>
   </g>
   <g id="line2d_51">
    <defs>
     <path d="M 0 1.5 
C 0.397805 1.5 0.77937 1.341951 1.06066 1.06066 
C 1.341951 0.77937 1.5 0.397805 1.5 0 
C 1.5 -0.397805 1.341951 -0.77937 1.06066 -1.06066 
C 0.77937 -1.341951 0.397805 -1.5 0 -1.5 
C -0.397805 -1.5 -0.77937 -1.341951 -1.06066 -1.06066 
C -1.341951 -0.77937 -1.5 -0.397805 -1.5 0 
C -1.5 0.397805 -1.341951 0.77937 -1.06066 1.06066 
C -0.77937 1.341951 -0.397805 1.5 0 1.5 
z
" id="ma9188d7b3a" style="stroke:#000000;"/>
    </defs>
    <g>
     <use style="stroke:#000000;" x="237.628856" xlink:href="#ma9188d7b3a" y="226.727797"/>
     <use style="stroke:#000000;" x="237.628856" xlink:href="#ma9188d7b3a" y="226.727797"/>
    </g>
   </g>
   <g id="line2d_52">
    <path d="M 16.541714 294.88 
L 16.541714 273.910091 
L 28.455965 273.910091 
L 28.455965 273.385844 
L 44.205749 273.385844 
L 44.205749 272.337348 
L 49.989246 272.337348 
L 49.989246 271.8131 
L 57.758252 271.8131 
L 57.758252 271.288853 
L 61.903497 271.288853 
L 61.903497 270.240357 
L 64.198719 270.240357 
L 64.198719 269.716109 
L 67.15259 269.716109 
L 67.15259 268.667614 
L 68.872887 268.667614 
L 68.872887 268.143366 
L 76.641893 268.143366 
L 76.641893 267.094871 
L 83.784035 267.094871 
L 83.784035 266.570623 
L 88.556144 266.570623 
L 88.556144 266.046375 
L 91.205783 266.046375 
L 91.205783 265.522128 
L 98.688305 265.522128 
L 98.688305 264.473632 
L 104.615641 264.473632 
L 104.615641 263.425137 
L 110.163674 263.425137 
L 110.163674 262.376641 
L 110.817865 262.376641 
L 110.817865 261.852394 
L 114.922307 261.852394 
L 114.922307 261.328146 
L 115.365909 261.328146 
L 115.365909 260.803898 
L 119.867168 260.803898 
L 119.909246 259.755403 
L 120.076533 259.755403 
L 120.076533 259.231155 
L 120.365424 259.231155 
L 120.365424 258.706907 
L 124.266312 258.706907 
L 124.266312 257.658412 
L 125.031795 257.658412 
L 125.031795 257.134164 
L 126.667211 257.134164 
L 126.667211 256.085669 
L 127.004254 256.085669 
L 127.004254 255.561421 
L 129.292521 255.561421 
L 129.292521 255.037173 
L 129.582224 255.037173 
L 129.582224 252.940182 
L 131.311639 252.940182 
L 131.311639 252.415935 
L 132.238701 252.415935 
L 132.238701 251.891687 
L 135.583215 251.891687 
L 135.616951 250.318944 
L 137.193815 250.318944 
L 137.193815 249.270448 
L 141.303883 249.270448 
L 141.303883 248.746201 
L 141.544287 248.746201 
L 141.544287 248.221953 
L 142.360172 248.221953 
L 142.360172 247.697705 
L 142.50752 247.697705 
L 142.50752 247.173458 
L 142.720629 247.173458 
L 142.720629 246.64921 
L 144.437741 246.64921 
L 144.437741 246.124962 
L 145.417974 246.124962 
L 145.417974 245.600714 
L 149.382602 245.600714 
L 149.382602 244.552219 
L 149.623006 244.552219 
L 149.623006 244.027971 
L 150.524054 244.027971 
L 150.524054 243.503724 
L 152.227825 243.503724 
L 152.227825 242.979476 
L 175.901764 242.979476 
L 175.901764 242.455228 
L 177.309407 242.455228 
L 177.309407 241.93098 
L 177.478448 241.93098 
L 177.478448 241.406733 
L 177.707106 241.406733 
L 177.707106 240.358237 
L 180.037419 240.358237 
L 180.037419 239.83399 
L 187.456476 239.83399 
L 187.456476 239.309742 
L 187.710568 239.309742 
L 187.710568 238.785494 
L 188.120587 238.785494 
L 188.213287 237.212751 
L 188.33376 237.212751 
L 188.412047 236.164255 
L 188.773764 236.164255 
L 188.79822 235.11576 
L 194.517006 235.11576 
L 194.517006 234.067265 
L 194.705975 234.067265 
L 194.705975 233.543017 
L 194.851587 233.543017 
L 194.851587 233.018769 
L 195.153943 233.018769 
L 195.17082 231.970274 
L 199.566138 231.970274 
L 199.566138 231.446026 
L 200.876652 231.446026 
L 200.876652 230.921778 
L 211.095253 230.921778 
L 211.095253 230.397531 
L 216.505733 230.397531 
L 216.505733 229.873283 
L 218.058937 229.873283 
L 218.058937 229.349035 
L 219.410417 229.349035 
L 219.410417 228.824787 
L 220.991314 228.824787 
L 220.991314 228.30054 
L 224.922584 228.30054 
L 224.922584 227.776292 
L 225.17911 227.776292 
L 225.17911 227.252044 
L 237.628856 227.252044 
L 237.628856 226.727797 
L 333.168 226.727797 
L 333.168 226.727797 
" style="fill:none;stroke:#000000;stroke-linecap:square;stroke-width:1.5;"/>
   </g>
   <g id="line2d_53">
    <defs>
     <path d="M 0 6 
C 1.591219 6 3.117479 5.367802 4.242641 4.242641 
C 5.367802 3.117479 6 1.591219 6 0 
C 6 -1.591219 5.367802 -3.117479 4.242641 -4.242641 
C 3.117479 -5.367802 1.591219 -6 0 -6 
C -1.591219 -6 -3.117479 -5.367802 -4.242641 -4.242641 
C -5.367802 -3.117479 -6 -1.591219 -6 0 
C -6 1.591219 -5.367802 3.117479 -4.242641 4.242641 
C -3.117479 5.367802 -1.591219 6 0 6 
z
" id="mc469cae3e1" style="stroke:#000000;stroke-width:1.5;"/>
    </defs>
    <g>
     <use style="fill-opacity:0;stroke:#000000;stroke-width:1.5;" x="115.365909" xlink:href="#mc469cae3e1" y="261.328146"/>
     <use style="fill-opacity:0;stroke:#000000;stroke-width:1.5;" x="188.79822" xlink:href="#mc469cae3e1" y="235.640008"/>
     <use style="fill-opacity:0;stroke:#000000;stroke-width:1.5;" x="237.628856" xlink:href="#mc469cae3e1" y="227.252044"/>
     <use style="fill-opacity:0;stroke:#000000;stroke-width:1.5;" x="237.628856" xlink:href="#mc469cae3e1" y="226.727797"/>
     <use style="fill-opacity:0;stroke:#000000;stroke-width:1.5;" x="237.628856" xlink:href="#mc469cae3e1" y="226.727797"/>
     <use style="fill-opacity:0;stroke:#000000;stroke-width:1.5;" x="333.168" xlink:href="#mc469cae3e1" y="226.727797"/>
    </g>
   </g>
   <g id="line2d_54">
    <path style="fill:none;stroke:#000000;stroke-linecap:square;stroke-width:1.5;"/>
    <g/>
   </g>
   <g id="line2d_55">
    <path clip-path="url(#p1e45b9e2e2)" d="M 175.027591 242.979476 
" style="fill:none;stroke:#000000;stroke-linecap:square;stroke-width:1.5;"/>
    <defs>
     <path d="M -12 12 
L 12 -12 
M -12 -12 
L 12 12 
" id="m3271c0d800" style="stroke:#000000;"/>
    </defs>
    <g clip-path="url(#p1e45b9e2e2)">
     <use style="stroke:#000000;" x="175.027591" xlink:href="#m3271c0d800" y="242.979476"/>
    </g>
   </g>
   <g id="line2d_56">
    <defs>
     <path d="M 0 1.5 
C 0.397805 1.5 0.77937 1.341951 1.06066 1.06066 
C 1.341951 0.77937 1.5 0.397805 1.5 0 
C 1.5 -0.397805 1.341951 -0.77937 1.06066 -1.06066 
C 0.77937 -1.341951 0.397805 -1.5 0 -1.5 
C -0.397805 -1.5 -0.77937 -1.341951 -1.06066 -1.06066 
C -1.341951 -0.77937 -1.5 -0.397805 -1.5 0 
C -1.5 0.397805 -1.341951 0.77937 -1.06066 1.06066 
C -0.77937 1.341951 -0.397805 1.5 0 1.5 
z
" id="mb7a526fa4d" style="stroke:#ff0000;"/>
    </defs>
    <g>
     <use style="fill:#ff0000;stroke:#ff0000;" x="229.035676" xlink:href="#mb7a526fa4d" y="247.697705"/>
     <use style="fill:#ff0000;stroke:#ff0000;" x="229.035676" xlink:href="#mb7a526fa4d" y="247.697705"/>
    </g>
   </g>
   <g id="line2d_57">
    <path d="M 4.627463 294.88 
L 4.627463 272.861596 
L 45.844 272.861596 
L 45.844 271.8131 
L 49.989246 271.8131 
L 49.989246 270.764605 
L 79.948502 270.764605 
L 79.948502 270.240357 
L 95.869318 270.240357 
L 95.869318 269.191862 
L 96.618578 269.191862 
L 96.618578 268.143366 
L 97.258229 268.143366 
L 97.258229 267.619119 
L 97.79904 267.619119 
L 97.79904 267.094871 
L 98.974789 267.094871 
L 98.974789 266.570623 
L 99.464925 266.570623 
L 99.464925 266.046375 
L 100.405163 266.046375 
L 100.405163 265.522128 
L 102.951792 265.522128 
L 102.951792 264.99788 
L 107.826063 264.99788 
L 107.826063 264.473632 
L 108.85563 264.473632 
L 108.85563 263.949385 
L 115.17324 263.949385 
L 115.17324 263.425137 
L 117.402599 263.425137 
L 117.402599 261.852394 
L 119.505289 261.852394 
L 119.505289 261.328146 
L 122.151854 261.328146 
L 122.151854 260.803898 
L 123.937018 260.803898 
L 123.937018 260.279651 
L 125.156126 260.279651 
L 125.156126 259.231155 
L 131.548134 259.231155 
L 131.548134 258.706907 
L 136.583504 258.706907 
L 136.583504 257.134164 
L 139.337509 257.134164 
L 139.337509 256.609917 
L 147.044095 256.609917 
L 147.044095 256.085669 
L 165.502112 256.085669 
L 165.502112 255.561421 
L 165.858252 255.561421 
L 165.858252 254.512926 
L 167.426472 254.512926 
L 167.426472 253.988678 
L 173.567683 253.988678 
L 173.567683 253.46443 
L 177.476235 253.46443 
L 177.476235 252.415935 
L 183.557554 252.415935 
L 183.557554 251.891687 
L 191.361888 251.891687 
L 191.361888 251.367439 
L 209.830235 251.367439 
L 209.830235 250.843192 
L 213.85777 250.843192 
L 213.85777 249.794696 
L 214.866293 249.794696 
L 214.866293 249.270448 
L 218.542802 249.270448 
L 218.542802 248.746201 
L 220.575547 248.746201 
L 220.575547 248.221953 
L 229.035676 248.221953 
L 229.035676 247.697705 
L 333.168 247.697705 
" style="fill:none;stroke:#ff0000;stroke-linecap:square;stroke-width:1.5;"/>
   </g>
   <g id="line2d_58">
    <defs>
     <path d="M -6 6 
L 6 6 
L 6 -6 
L -6 -6 
z
" id="m3d5631f083" style="stroke:#ff0000;stroke-linejoin:miter;stroke-width:1.5;"/>
    </defs>
    <g>
     <use style="fill-opacity:0;stroke:#ff0000;stroke-linejoin:miter;stroke-width:1.5;" x="97.79904" xlink:href="#m3d5631f083" y="267.094871"/>
     <use style="fill-opacity:0;stroke:#ff0000;stroke-linejoin:miter;stroke-width:1.5;" x="177.476235" xlink:href="#m3d5631f083" y="252.415935"/>
     <use style="fill-opacity:0;stroke:#ff0000;stroke-linejoin:miter;stroke-width:1.5;" x="229.035676" xlink:href="#m3d5631f083" y="248.221953"/>
     <use style="fill-opacity:0;stroke:#ff0000;stroke-linejoin:miter;stroke-width:1.5;" x="229.035676" xlink:href="#m3d5631f083" y="247.697705"/>
     <use style="fill-opacity:0;stroke:#ff0000;stroke-linejoin:miter;stroke-width:1.5;" x="229.035676" xlink:href="#m3d5631f083" y="247.697705"/>
     <use style="fill-opacity:0;stroke:#ff0000;stroke-linejoin:miter;stroke-width:1.5;" x="333.168" xlink:href="#m3d5631f083" y="247.697705"/>
    </g>
   </g>
   <g id="line2d_59">
    <path style="fill:none;stroke:#ff0000;stroke-linecap:square;stroke-width:1.5;"/>
    <g/>
   </g>
   <g id="line2d_60">
    <path clip-path="url(#p1e45b9e2e2)" d="M 175.026741 253.46443 
" style="fill:none;stroke:#ff0000;stroke-linecap:square;stroke-width:1.5;"/>
    <defs>
     <path d="M -12 12 
L 12 -12 
M -12 -12 
L 12 12 
" id="m09cf195c20" style="stroke:#ff0000;"/>
    </defs>
    <g clip-path="url(#p1e45b9e2e2)">
     <use style="fill:#ff0000;stroke:#ff0000;" x="175.026741" xlink:href="#m09cf195c20" y="253.46443"/>
    </g>
   </g>
   <g id="line2d_61">
    <defs>
     <path d="M 0 1.5 
C 0.397805 1.5 0.77937 1.341951 1.06066 1.06066 
C 1.341951 0.77937 1.5 0.397805 1.5 0 
C 1.5 -0.397805 1.341951 -0.77937 1.06066 -1.06066 
C 0.77937 -1.341951 0.397805 -1.5 0 -1.5 
C -0.397805 -1.5 -0.77937 -1.341951 -1.06066 -1.06066 
C -1.341951 -0.77937 -1.5 -0.397805 -1.5 0 
C -1.5 0.397805 -1.341951 0.77937 -1.06066 1.06066 
C -0.77937 1.341951 -0.397805 1.5 0 1.5 
z
" id="mecafb5a6a2" style="stroke:#bf00bf;"/>
    </defs>
    <g>
     <use style="fill:#bf00bf;stroke:#bf00bf;" x="227.858685" xlink:href="#mecafb5a6a2" y="252.940182"/>
     <use style="fill:#bf00bf;stroke:#bf00bf;" x="227.858685" xlink:href="#mecafb5a6a2" y="252.940182"/>
    </g>
   </g>
   <g id="line2d_62">
    <path d="M -1 272.861596 
L 30.480495 272.861596 
L 30.480495 272.337348 
L 84.124415 272.337348 
L 84.124415 271.288853 
L 85.732 271.288853 
L 85.732 270.764605 
L 92.33951 270.764605 
L 92.33951 270.240357 
L 93.255098 270.240357 
L 93.255098 269.191862 
L 97.646251 269.191862 
L 97.646251 268.667614 
L 100.920217 268.667614 
L 100.920217 268.143366 
L 102.552701 268.143366 
L 102.552701 267.619119 
L 105.488348 267.619119 
L 105.488348 267.094871 
L 105.705775 267.094871 
L 105.705775 266.046375 
L 106.434316 266.046375 
L 106.434316 265.522128 
L 113.685181 265.522128 
L 113.685181 264.99788 
L 119.025372 264.99788 
L 119.025372 263.949385 
L 119.397387 263.949385 
L 119.397387 263.425137 
L 126.214569 263.425137 
L 126.214569 262.376641 
L 134.494136 262.376641 
L 134.494136 261.852394 
L 137.738571 261.852394 
L 137.738571 261.328146 
L 150.682605 261.328146 
L 150.682605 260.279651 
L 165.090725 260.279651 
L 165.090725 259.231155 
L 165.2026 259.231155 
L 165.2026 258.18266 
L 183.332836 258.18266 
L 183.332836 257.134164 
L 197.145433 257.134164 
L 197.145433 256.085669 
L 201.336712 256.085669 
L 201.336712 255.561421 
L 204.70371 255.561421 
L 204.70371 255.037173 
L 209.935617 255.037173 
L 209.935617 254.512926 
L 215.640743 254.512926 
L 215.640743 253.988678 
L 221.134518 253.988678 
L 221.134518 253.46443 
L 227.858685 253.46443 
L 227.858685 252.940182 
L 333.168 252.940182 
" style="fill:none;stroke:#bf00bf;stroke-linecap:square;stroke-width:1.5;"/>
   </g>
   <g id="line2d_63">
    <defs>
     <path d="M -0 8.485281 
L 8.485281 0 
L 0 -8.485281 
L -8.485281 -0 
z
" id="mbfc751c94c" style="stroke:#bf00bf;stroke-linejoin:miter;stroke-width:1.5;"/>
    </defs>
    <g>
     <use style="fill-opacity:0;stroke:#bf00bf;stroke-linejoin:miter;stroke-width:1.5;" x="102.552701" xlink:href="#mbfc751c94c" y="268.143366"/>
     <use style="fill-opacity:0;stroke:#bf00bf;stroke-linejoin:miter;stroke-width:1.5;" x="150.682605" xlink:href="#mbfc751c94c" y="260.279651"/>
     <use style="fill-opacity:0;stroke:#bf00bf;stroke-linejoin:miter;stroke-width:1.5;" x="227.858685" xlink:href="#mbfc751c94c" y="253.46443"/>
     <use style="fill-opacity:0;stroke:#bf00bf;stroke-linejoin:miter;stroke-width:1.5;" x="227.858685" xlink:href="#mbfc751c94c" y="252.940182"/>
     <use style="fill-opacity:0;stroke:#bf00bf;stroke-linejoin:miter;stroke-width:1.5;" x="227.858685" xlink:href="#mbfc751c94c" y="252.940182"/>
     <use style="fill-opacity:0;stroke:#bf00bf;stroke-linejoin:miter;stroke-width:1.5;" x="333.168" xlink:href="#mbfc751c94c" y="252.940182"/>
    </g>
   </g>
   <g id="line2d_64">
    <path style="fill:none;stroke:#bf00bf;stroke-linecap:square;stroke-width:1.5;"/>
    <g/>
   </g>
   <g id="line2d_65">
    <path clip-path="url(#p1e45b9e2e2)" d="M 175.026315 258.18266 
" style="fill:none;stroke:#bf00bf;stroke-linecap:square;stroke-width:1.5;"/>
    <defs>
     <path d="M -12 12 
L 12 -12 
M -12 -12 
L 12 12 
" id="m76444fe543" style="stroke:#bf00bf;"/>
    </defs>
    <g clip-path="url(#p1e45b9e2e2)">
     <use style="fill:#bf00bf;stroke:#bf00bf;" x="175.026315" xlink:href="#m76444fe543" y="258.18266"/>
    </g>
   </g>
   <g id="line2d_66">
    <path d="M 333.168 252.940182 
L 363.64328 289.532673 
" style="fill:none;stroke:#bf00bf;stroke-linecap:square;stroke-width:1.5;"/>
    <g>
     <use style="fill-opacity:0;stroke:#bf00bf;stroke-linejoin:miter;stroke-width:1.5;" x="333.168" xlink:href="#mbfc751c94c" y="252.940182"/>
     <use style="fill-opacity:0;stroke:#bf00bf;stroke-linejoin:miter;stroke-width:1.5;" x="363.64328" xlink:href="#mbfc751c94c" y="289.532673"/>
    </g>
   </g>
   <g id="line2d_67">
    <path d="M 333.168 247.697705 
L 363.64328 238.198337 
" style="fill:none;stroke:#ff0000;stroke-linecap:square;stroke-width:1.5;"/>
    <g>
     <use style="fill-opacity:0;stroke:#ff0000;stroke-linejoin:miter;stroke-width:1.5;" x="333.168" xlink:href="#m3d5631f083" y="247.697705"/>
     <use style="fill-opacity:0;stroke:#ff0000;stroke-linejoin:miter;stroke-width:1.5;" x="363.64328" xlink:href="#m3d5631f083" y="238.198337"/>
    </g>
   </g>
   <g id="line2d_68">
    <path d="M 333.168 226.727797 
L 363.64328 186.864 
" style="fill:none;stroke:#000000;stroke-linecap:square;stroke-width:1.5;"/>
    <g>
     <use style="fill-opacity:0;stroke:#000000;stroke-width:1.5;" x="333.168" xlink:href="#mc469cae3e1" y="226.727797"/>
     <use style="fill-opacity:0;stroke:#000000;stroke-width:1.5;" x="363.64328" xlink:href="#mc469cae3e1" y="186.864"/>
    </g>
   </g>
   <g id="line2d_69">
    <path d="M 333.168 106.150821 
L 363.64328 135.529663 
" style="fill:none;stroke:#0000ff;stroke-linecap:square;stroke-width:1.5;"/>
    <g>
     <use style="fill-opacity:0;stroke:#0000ff;stroke-linejoin:bevel;stroke-width:1.5;" x="333.168" xlink:href="#m4c9830bfe3" y="106.150821"/>
     <use style="fill-opacity:0;stroke:#0000ff;stroke-linejoin:bevel;stroke-width:1.5;" x="363.64328" xlink:href="#m4c9830bfe3" y="135.529663"/>
    </g>
   </g>
   <g id="line2d_70">
    <path d="M 333.168 27.513663 
L 363.64328 84.195327 
" style="fill:none;stroke:#008000;stroke-linecap:square;stroke-width:1.5;"/>
    <g>
     <use style="fill-opacity:0;stroke:#008000;stroke-linejoin:miter;stroke-width:1.5;" x="333.168" xlink:href="#m9d00e23a61" y="27.513663"/>
     <use style="fill-opacity:0;stroke:#008000;stroke-linejoin:miter;stroke-width:1.5;" x="363.64328" xlink:href="#m9d00e23a61" y="84.195327"/>
    </g>
   </g>
   <g id="line2d_71">
    <path d="M 333.168 27.513663 
L 363.64328 32.86099 
" style="fill:none;stroke:#00bfbf;stroke-linecap:square;stroke-width:1.5;"/>
    <g>
     <use style="fill-opacity:0;stroke:#00bfbf;stroke-width:1.5;" x="333.168" xlink:href="#mfadda42bcb" y="27.513663"/>
     <use style="fill-opacity:0;stroke:#00bfbf;stroke-width:1.5;" x="363.64328" xlink:href="#mfadda42bcb" y="32.86099"/>
    </g>
   </g>
   <g id="line2d_72">
    <path d="M 333.168 294.88 
L 333.168 27.513663 
" style="fill:none;stroke:#000000;stroke-linecap:square;stroke-width:1.5;"/>
   </g>
   <g id="patch_3">
    <path d="M 56.12 294.88 
L 56.12 24.84 
" style="fill:none;stroke:#000000;stroke-linecap:square;stroke-linejoin:miter;stroke-width:0.8;"/>
   </g>
   <g id="patch_4">
    <path d="M 333.168 294.88 
L 333.168 24.84 
" style="fill:none;stroke:#000000;stroke-linecap:square;stroke-linejoin:miter;stroke-width:0.8;"/>
   </g>
   <g id="patch_5">
    <path d="M 56.12 294.88 
L 333.168 294.88 
" style="fill:none;stroke:#000000;stroke-linecap:square;stroke-linejoin:miter;stroke-width:0.8;"/>
   </g>
   <g id="patch_6">
    <path d="M 56.12 24.84 
L 333.168 24.84 
" style="fill:none;stroke:#000000;stroke-linecap:square;stroke-linejoin:miter;stroke-width:0.8;"/>
   </g>
   <g id="text_13">
    <!-- 40-D -->
    <defs>
     <path d="M 19.671875 64.796875 
L 19.671875 8.109375 
L 31.59375 8.109375 
Q 46.6875 8.109375 53.6875 14.9375 
Q 60.6875 21.78125 60.6875 36.53125 
Q 60.6875 51.171875 53.6875 57.984375 
Q 46.6875 64.796875 31.59375 64.796875 
z
M 9.8125 72.90625 
L 30.078125 72.90625 
Q 51.265625 72.90625 61.171875 64.09375 
Q 71.09375 55.28125 71.09375 36.53125 
Q 71.09375 17.671875 61.125 8.828125 
Q 51.171875 0 30.078125 0 
L 9.8125 0 
z
" id="DejaVuSans-44"/>
    </defs>
    <g transform="translate(369.18424 294.223611)scale(0.17 -0.17)">
     <use xlink:href="#DejaVuSans-34"/>
     <use x="63.623047" xlink:href="#DejaVuSans-30"/>
     <use x="127.246094" xlink:href="#DejaVuSans-2d"/>
     <use x="163.330078" xlink:href="#DejaVuSans-44"/>
    </g>
   </g>
   <g id="text_14">
    <!-- 20-D -->
    <g transform="translate(369.18424 242.889274)scale(0.17 -0.17)">
     <use xlink:href="#DejaVuSans-32"/>
     <use x="63.623047" xlink:href="#DejaVuSans-30"/>
     <use x="127.246094" xlink:href="#DejaVuSans-2d"/>
     <use x="163.330078" xlink:href="#DejaVuSans-44"/>
    </g>
   </g>
   <g id="text_15">
    <!-- 10-D -->
    <g transform="translate(369.18424 191.554937)scale(0.17 -0.17)">
     <use xlink:href="#DejaVuSans-31"/>
     <use x="63.623047" xlink:href="#DejaVuSans-30"/>
     <use x="127.246094" xlink:href="#DejaVuSans-2d"/>
     <use x="163.330078" xlink:href="#DejaVuSans-44"/>
    </g>
   </g>
   <g id="text_16">
    <!-- 5-D -->
    <defs>
     <path d="M 10.796875 72.90625 
L 49.515625 72.90625 
L 49.515625 64.59375 
L 19.828125 64.59375 
L 19.828125 46.734375 
Q 21.96875 47.46875 24.109375 47.828125 
Q 26.265625 48.1875 28.421875 48.1875 
Q 40.625 48.1875 47.75 41.5 
Q 54.890625 34.8125 54.890625 23.390625 
Q 54.890625 11.625 47.5625 5.09375 
Q 40.234375 -1.421875 26.90625 -1.421875 
Q 22.3125 -1.421875 17.546875 -0.640625 
Q 12.796875 0.140625 7.71875 1.703125 
L 7.71875 11.625 
Q 12.109375 9.234375 16.796875 8.0625 
Q 21.484375 6.890625 26.703125 6.890625 
Q 35.15625 6.890625 40.078125 11.328125 
Q 45.015625 15.765625 45.015625 23.390625 
Q 45.015625 31 40.078125 35.4375 
Q 35.15625 39.890625 26.703125 39.890625 
Q 22.75 39.890625 18.8125 39.015625 
Q 14.890625 38.140625 10.796875 36.28125 
z
" id="DejaVuSans-35"/>
    </defs>
    <g transform="translate(369.18424 140.220601)scale(0.17 -0.17)">
     <use xlink:href="#DejaVuSans-35"/>
     <use x="63.623047" xlink:href="#DejaVuSans-2d"/>
     <use x="99.707031" xlink:href="#DejaVuSans-44"/>
    </g>
   </g>
   <g id="text_17">
    <!-- 3-D -->
    <defs>
     <path d="M 40.578125 39.3125 
Q 47.65625 37.796875 51.625 33 
Q 55.609375 28.21875 55.609375 21.1875 
Q 55.609375 10.40625 48.1875 4.484375 
Q 40.765625 -1.421875 27.09375 -1.421875 
Q 22.515625 -1.421875 17.65625 -0.515625 
Q 12.796875 0.390625 7.625 2.203125 
L 7.625 11.71875 
Q 11.71875 9.328125 16.59375 8.109375 
Q 21.484375 6.890625 26.8125 6.890625 
Q 36.078125 6.890625 40.9375 10.546875 
Q 45.796875 14.203125 45.796875 21.1875 
Q 45.796875 27.640625 41.28125 31.265625 
Q 36.765625 34.90625 28.71875 34.90625 
L 20.21875 34.90625 
L 20.21875 43.015625 
L 29.109375 43.015625 
Q 36.375 43.015625 40.234375 45.921875 
Q 44.09375 48.828125 44.09375 54.296875 
Q 44.09375 59.90625 40.109375 62.90625 
Q 36.140625 65.921875 28.71875 65.921875 
Q 24.65625 65.921875 20.015625 65.03125 
Q 15.375 64.15625 9.8125 62.3125 
L 9.8125 71.09375 
Q 15.4375 72.65625 20.34375 73.4375 
Q 25.25 74.21875 29.59375 74.21875 
Q 40.828125 74.21875 47.359375 69.109375 
Q 53.90625 64.015625 53.90625 55.328125 
Q 53.90625 49.265625 50.4375 45.09375 
Q 46.96875 40.921875 40.578125 39.3125 
z
" id="DejaVuSans-33"/>
    </defs>
    <g transform="translate(369.18424 88.886264)scale(0.17 -0.17)">
     <use xlink:href="#DejaVuSans-33"/>
     <use x="63.623047" xlink:href="#DejaVuSans-2d"/>
     <use x="99.707031" xlink:href="#DejaVuSans-44"/>
    </g>
   </g>
   <g id="text_18">
    <!-- 2-D -->
    <g transform="translate(369.18424 37.551928)scale(0.17 -0.17)">
     <use xlink:href="#DejaVuSans-32"/>
     <use x="63.623047" xlink:href="#DejaVuSans-2d"/>
     <use x="99.707031" xlink:href="#DejaVuSans-44"/>
    </g>
   </g>
   <g id="text_19">
    <!-- bbob f17 -->
    <defs>
     <path d="M 48.6875 27.296875 
Q 48.6875 37.203125 44.609375 42.84375 
Q 40.53125 48.484375 33.40625 48.484375 
Q 26.265625 48.484375 22.1875 42.84375 
Q 18.109375 37.203125 18.109375 27.296875 
Q 18.109375 17.390625 22.1875 11.75 
Q 26.265625 6.109375 33.40625 6.109375 
Q 40.53125 6.109375 44.609375 11.75 
Q 48.6875 17.390625 48.6875 27.296875 
z
M 18.109375 46.390625 
Q 20.953125 51.265625 25.265625 53.625 
Q 29.59375 56 35.59375 56 
Q 45.5625 56 51.78125 48.09375 
Q 58.015625 40.1875 58.015625 27.296875 
Q 58.015625 14.40625 51.78125 6.484375 
Q 45.5625 -1.421875 35.59375 -1.421875 
Q 29.59375 -1.421875 25.265625 0.953125 
Q 20.953125 3.328125 18.109375 8.203125 
L 18.109375 0 
L 9.078125 0 
L 9.078125 75.984375 
L 18.109375 75.984375 
z
" id="DejaVuSans-62"/>
     <path d="M 8.203125 72.90625 
L 55.078125 72.90625 
L 55.078125 68.703125 
L 28.609375 0 
L 18.3125 0 
L 43.21875 64.59375 
L 8.203125 64.59375 
z
" id="DejaVuSans-37"/>
    </defs>
    <g transform="translate(58.89048 35.290806)scale(0.102 -0.102)">
     <use xlink:href="#DejaVuSans-62"/>
     <use x="63.476562" xlink:href="#DejaVuSans-62"/>
     <use x="126.953125" xlink:href="#DejaVuSans-6f"/>
     <use x="188.134766" xlink:href="#DejaVuSans-62"/>
     <use x="251.611328" xlink:href="#DejaVuSans-20"/>
     <use x="283.398438" xlink:href="#DejaVuSans-66"/>
     <use x="318.603516" xlink:href="#DejaVuSans-31"/>
     <use x="382.226562" xlink:href="#DejaVuSans-37"/>
    </g>
    <!-- 51 targets: 100..1e-08 -->
    <defs>
     <path d="M 11.71875 12.40625 
L 22.015625 12.40625 
L 22.015625 0 
L 11.71875 0 
z
M 11.71875 51.703125 
L 22.015625 51.703125 
L 22.015625 39.3125 
L 11.71875 39.3125 
z
" id="DejaVuSans-3a"/>
    </defs>
    <g transform="translate(58.89048 46.712575)scale(0.102 -0.102)">
     <use xlink:href="#DejaVuSans-35"/>
     <use x="63.623047" xlink:href="#DejaVuSans-31"/>
     <use x="127.246094" xlink:href="#DejaVuSans-20"/>
     <use x="159.033203" xlink:href="#DejaVuSans-74"/>
     <use x="198.242188" xlink:href="#DejaVuSans-61"/>
     <use x="259.521484" xlink:href="#DejaVuSans-72"/>
     <use x="300.619141" xlink:href="#DejaVuSans-67"/>
     <use x="364.095703" xlink:href="#DejaVuSans-65"/>
     <use x="425.619141" xlink:href="#DejaVuSans-74"/>
     <use x="464.828125" xlink:href="#DejaVuSans-73"/>
     <use x="516.927734" xlink:href="#DejaVuSans-3a"/>
     <use x="550.619141" xlink:href="#DejaVuSans-20"/>
     <use x="582.40625" xlink:href="#DejaVuSans-31"/>
     <use x="646.029297" xlink:href="#DejaVuSans-30"/>
     <use x="709.652344" xlink:href="#DejaVuSans-30"/>
     <use x="773.275391" xlink:href="#DejaVuSans-2e"/>
     <use x="805.0625" xlink:href="#DejaVuSans-2e"/>
     <use x="836.849609" xlink:href="#DejaVuSans-31"/>
     <use x="900.472656" xlink:href="#DejaVuSans-65"/>
     <use x="961.996094" xlink:href="#DejaVuSans-2d"/>
     <use x="998.080078" xlink:href="#DejaVuSans-30"/>
     <use x="1061.703125" xlink:href="#DejaVuSans-38"/>
    </g>
    <!-- 15 instances -->
    <g transform="translate(58.89048 58.134344)scale(0.102 -0.102)">
     <use xlink:href="#DejaVuSans-31"/>
     <use x="63.623047" xlink:href="#DejaVuSans-35"/>
     <use x="127.246094" xlink:href="#DejaVuSans-20"/>
     <use x="159.033203" xlink:href="#DejaVuSans-69"/>
     <use x="186.816406" xlink:href="#DejaVuSans-6e"/>
     <use x="250.195312" xlink:href="#DejaVuSans-73"/>
     <use x="302.294922" xlink:href="#DejaVuSans-74"/>
     <use x="341.503906" xlink:href="#DejaVuSans-61"/>
     <use x="402.783203" xlink:href="#DejaVuSans-6e"/>
     <use x="466.162109" xlink:href="#DejaVuSans-63"/>
     <use x="521.142578" xlink:href="#DejaVuSans-65"/>
     <use x="582.666016" xlink:href="#DejaVuSans-73"/>
    </g>
   </g>
   <g id="text_20">
    <!-- v0.0.0 -->
    <g style="fill:#808080;" transform="translate(178.96275 290.099912)scale(0.1 -0.1)">
     <use xlink:href="#DejaVuSans-76"/>
     <use x="59.179688" xlink:href="#DejaVuSans-30"/>
     <use x="122.802734" xlink:href="#DejaVuSans-2e"/>
     <use x="154.589844" xlink:href="#DejaVuSans-30"/>
     <use x="218.212891" xlink:href="#DejaVuSans-2e"/>
     <use x="250" xlink:href="#DejaVuSans-30"/>
    </g>
   </g>
   <g id="text_21">
    <!-- 17 Schaffer F7, condition 10 -->
    <defs>
     <path d="M 53.515625 70.515625 
L 53.515625 60.890625 
Q 47.90625 63.578125 42.921875 64.890625 
Q 37.9375 66.21875 33.296875 66.21875 
Q 25.25 66.21875 20.875 63.09375 
Q 16.5 59.96875 16.5 54.203125 
Q 16.5 49.359375 19.40625 46.890625 
Q 22.3125 44.4375 30.421875 42.921875 
L 36.375 41.703125 
Q 47.40625 39.59375 52.65625 34.296875 
Q 57.90625 29 57.90625 20.125 
Q 57.90625 9.515625 50.796875 4.046875 
Q 43.703125 -1.421875 29.984375 -1.421875 
Q 24.8125 -1.421875 18.96875 -0.25 
Q 13.140625 0.921875 6.890625 3.21875 
L 6.890625 13.375 
Q 12.890625 10.015625 18.65625 8.296875 
Q 24.421875 6.59375 29.984375 6.59375 
Q 38.421875 6.59375 43.015625 9.90625 
Q 47.609375 13.234375 47.609375 19.390625 
Q 47.609375 24.75 44.3125 27.78125 
Q 41.015625 30.8125 33.5 32.328125 
L 27.484375 33.5 
Q 16.453125 35.6875 11.515625 40.375 
Q 6.59375 45.0625 6.59375 53.421875 
Q 6.59375 63.09375 13.40625 68.65625 
Q 20.21875 74.21875 32.171875 74.21875 
Q 37.3125 74.21875 42.625 73.28125 
Q 47.953125 72.359375 53.515625 70.515625 
z
" id="DejaVuSans-53"/>
     <path d="M 54.890625 33.015625 
L 54.890625 0 
L 45.90625 0 
L 45.90625 32.71875 
Q 45.90625 40.484375 42.875 44.328125 
Q 39.84375 48.1875 33.796875 48.1875 
Q 26.515625 48.1875 22.3125 43.546875 
Q 18.109375 38.921875 18.109375 30.90625 
L 18.109375 0 
L 9.078125 0 
L 9.078125 75.984375 
L 18.109375 75.984375 
L 18.109375 46.1875 
Q 21.34375 51.125 25.703125 53.5625 
Q 30.078125 56 35.796875 56 
Q 45.21875 56 50.046875 50.171875 
Q 54.890625 44.34375 54.890625 33.015625 
z
" id="DejaVuSans-68"/>
    </defs>
    <g transform="translate(53.336187 18.84)scale(0.2 -0.2)">
     <use xlink:href="#DejaVuSans-31"/>
     <use x="63.623047" xlink:href="#DejaVuSans-37"/>
     <use x="127.246094" xlink:href="#DejaVuSans-20"/>
     <use x="159.033203" xlink:href="#DejaVuSans-53"/>
     <use x="222.509766" xlink:href="#DejaVuSans-63"/>
     <use x="277.490234" xlink:href="#DejaVuSans-68"/>
     <use x="340.869141" xlink:href="#DejaVuSans-61"/>
     <use x="402.148438" xlink:href="#DejaVuSans-66"/>
     <use x="437.353516" xlink:href="#DejaVuSans-66"/>
     <use x="472.558594" xlink:href="#DejaVuSans-65"/>
     <use x="534.082031" xlink:href="#DejaVuSans-72"/>
     <use x="575.195312" xlink:href="#DejaVuSans-20"/>
     <use x="606.982422" xlink:href="#DejaVuSans-46"/>
     <use x="664.501953" xlink:href="#DejaVuSans-37"/>
     <use x="728.125" xlink:href="#DejaVuSans-2c"/>
     <use x="759.912109" xlink:href="#DejaVuSans-20"/>
     <use x="791.699219" xlink:href="#DejaVuSans-63"/>
     <use x="846.679688" xlink:href="#DejaVuSans-6f"/>
     <use x="907.861328" xlink:href="#DejaVuSans-6e"/>
     <use x="971.240234" xlink:href="#DejaVuSans-64"/>
     <use x="1034.716797" xlink:href="#DejaVuSans-69"/>
     <use x="1062.5" xlink:href="#DejaVuSans-74"/>
     <use x="1101.708984" xlink:href="#DejaVuSans-69"/>
     <use x="1129.492188" xlink:href="#DejaVuSans-6f"/>
     <use x="1190.673828" xlink:href="#DejaVuSans-6e"/>
     <use x="1254.052734" xlink:href="#DejaVuSans-20"/>
     <use x="1285.839844" xlink:href="#DejaVuSans-31"/>
     <use x="1349.462891" xlink:href="#DejaVuSans-30"/>
    </g>
   </g>
  </g>
 </g>
 <defs>
  <clipPath id="p1e45b9e2e2">
   <rect height="270.04" width="277.048" x="56.12" y="24.84"/>
  </clipPath>
 </defs>
</svg>
