<?xml version="1.0" encoding="utf-8" standalone="no"?>
<!DOCTYPE svg PUBLIC "-//W3C//DTD SVG 1.1//EN"
  "http://www.w3.org/Graphics/SVG/1.1/DTD/svg11.dtd">
<!-- Created with matplotlib (http://matplotlib.org/) -->
<svg height="345.6pt" version="1.1" viewBox="0 0 460.8 345.6" width="460.8pt" xmlns="http://www.w3.org/2000/svg" xmlns:xlink="http://www.w3.org/1999/xlink">
 <defs>
  <style type="text/css">
*{stroke-linecap:butt;stroke-linejoin:round;}
  </style>
 </defs>
 <g id="figure_1">
  <g id="patch_1">
   <path d="M 0 345.6 
L 460.8 345.6 
L 460.8 0 
L 0 0 
z
" style="fill:#ffffff;"/>
  </g>
  <g id="axes_1">
   <g id="patch_2">
    <path d="M 56.12 294.88 
L 333.168 294.88 
L 333.168 6.845228 
L 56.12 6.845228 
z
" style="fill:#ffffff;"/>
   </g>
   <g id="matplotlib.axis_1">
    <g id="xtick_1">
     <g id="line2d_1">
      <path clip-path="url(#pc3f4774222)" d="M 56.12 294.88 
L 56.12 6.845228 
" style="fill:none;stroke:#b0b0b0;stroke-linecap:square;stroke-width:0.8;"/>
     </g>
     <g id="line2d_2">
      <defs>
       <path d="M 0 0 
L 0 3.5 
" id="m2ca716131d" style="stroke:#000000;stroke-width:0.8;"/>
      </defs>
      <g>
       <use style="stroke:#000000;stroke-width:0.8;" x="56.12" xlink:href="#m2ca716131d" y="294.88"/>
      </g>
     </g>
     <g id="text_1">
      <!-- 0 -->
      <defs>
       <path d="M 31.78125 66.40625 
Q 24.171875 66.40625 20.328125 58.90625 
Q 16.5 51.421875 16.5 36.375 
Q 16.5 21.390625 20.328125 13.890625 
Q 24.171875 6.390625 31.78125 6.390625 
Q 39.453125 6.390625 43.28125 13.890625 
Q 47.125 21.390625 47.125 36.375 
Q 47.125 51.421875 43.28125 58.90625 
Q 39.453125 66.40625 31.78125 66.40625 
z
M 31.78125 74.21875 
Q 44.046875 74.21875 50.515625 64.515625 
Q 56.984375 54.828125 56.984375 36.375 
Q 56.984375 17.96875 50.515625 8.265625 
Q 44.046875 -1.421875 31.78125 -1.421875 
Q 19.53125 -1.421875 13.0625 8.265625 
Q 6.59375 17.96875 6.59375 36.375 
Q 6.59375 54.828125 13.0625 64.515625 
Q 19.53125 74.21875 31.78125 74.21875 
z
" id="DejaVuSans-30"/>
      </defs>
      <g transform="translate(49.7575 317.076875)scale(0.2 -0.2)">
       <use xlink:href="#DejaVuSans-30"/>
      </g>
     </g>
    </g>
    <g id="xtick_2">
     <g id="line2d_3">
      <path clip-path="url(#pc3f4774222)" d="M 135.276571 294.88 
L 135.276571 6.845228 
" style="fill:none;stroke:#b0b0b0;stroke-linecap:square;stroke-width:0.8;"/>
     </g>
     <g id="line2d_4">
      <g>
       <use style="stroke:#000000;stroke-width:0.8;" x="135.276571" xlink:href="#m2ca716131d" y="294.88"/>
      </g>
     </g>
     <g id="text_2">
      <!-- 2 -->
      <defs>
       <path d="M 19.1875 8.296875 
L 53.609375 8.296875 
L 53.609375 0 
L 7.328125 0 
L 7.328125 8.296875 
Q 12.9375 14.109375 22.625 23.890625 
Q 32.328125 33.6875 34.8125 36.53125 
Q 39.546875 41.84375 41.421875 45.53125 
Q 43.3125 49.21875 43.3125 52.78125 
Q 43.3125 58.59375 39.234375 62.25 
Q 35.15625 65.921875 28.609375 65.921875 
Q 23.96875 65.921875 18.8125 64.3125 
Q 13.671875 62.703125 7.8125 59.421875 
L 7.8125 69.390625 
Q 13.765625 71.78125 18.9375 73 
Q 24.125 74.21875 28.421875 74.21875 
Q 39.75 74.21875 46.484375 68.546875 
Q 53.21875 62.890625 53.21875 53.421875 
Q 53.21875 48.921875 51.53125 44.890625 
Q 49.859375 40.875 45.40625 35.40625 
Q 44.1875 33.984375 37.640625 27.21875 
Q 31.109375 20.453125 19.1875 8.296875 
z
" id="DejaVuSans-32"/>
      </defs>
      <g transform="translate(128.914071 317.076875)scale(0.2 -0.2)">
       <use xlink:href="#DejaVuSans-32"/>
      </g>
     </g>
    </g>
    <g id="xtick_3">
     <g id="line2d_5">
      <path clip-path="url(#pc3f4774222)" d="M 214.433143 294.88 
L 214.433143 6.845228 
" style="fill:none;stroke:#b0b0b0;stroke-linecap:square;stroke-width:0.8;"/>
     </g>
     <g id="line2d_6">
      <g>
       <use style="stroke:#000000;stroke-width:0.8;" x="214.433143" xlink:href="#m2ca716131d" y="294.88"/>
      </g>
     </g>
     <g id="text_3">
      <!-- 4 -->
      <defs>
       <path d="M 37.796875 64.3125 
L 12.890625 25.390625 
L 37.796875 25.390625 
z
M 35.203125 72.90625 
L 47.609375 72.90625 
L 47.609375 25.390625 
L 58.015625 25.390625 
L 58.015625 17.1875 
L 47.609375 17.1875 
L 47.609375 0 
L 37.796875 0 
L 37.796875 17.1875 
L 4.890625 17.1875 
L 4.890625 26.703125 
z
" id="DejaVuSans-34"/>
      </defs>
      <g transform="translate(208.070643 317.076875)scale(0.2 -0.2)">
       <use xlink:href="#DejaVuSans-34"/>
      </g>
     </g>
    </g>
    <g id="xtick_4">
     <g id="line2d_7">
      <path clip-path="url(#pc3f4774222)" d="M 293.589714 294.88 
L 293.589714 6.845228 
" style="fill:none;stroke:#b0b0b0;stroke-linecap:square;stroke-width:0.8;"/>
     </g>
     <g id="line2d_8">
      <g>
       <use style="stroke:#000000;stroke-width:0.8;" x="293.589714" xlink:href="#m2ca716131d" y="294.88"/>
      </g>
     </g>
     <g id="text_4">
      <!-- 6 -->
      <defs>
       <path d="M 33.015625 40.375 
Q 26.375 40.375 22.484375 35.828125 
Q 18.609375 31.296875 18.609375 23.390625 
Q 18.609375 15.53125 22.484375 10.953125 
Q 26.375 6.390625 33.015625 6.390625 
Q 39.65625 6.390625 43.53125 10.953125 
Q 47.40625 15.53125 47.40625 23.390625 
Q 47.40625 31.296875 43.53125 35.828125 
Q 39.65625 40.375 33.015625 40.375 
z
M 52.59375 71.296875 
L 52.59375 62.3125 
Q 48.875 64.0625 45.09375 64.984375 
Q 41.3125 65.921875 37.59375 65.921875 
Q 27.828125 65.921875 22.671875 59.328125 
Q 17.53125 52.734375 16.796875 39.40625 
Q 19.671875 43.65625 24.015625 45.921875 
Q 28.375 48.1875 33.59375 48.1875 
Q 44.578125 48.1875 50.953125 41.515625 
Q 57.328125 34.859375 57.328125 23.390625 
Q 57.328125 12.15625 50.6875 5.359375 
Q 44.046875 -1.421875 33.015625 -1.421875 
Q 20.359375 -1.421875 13.671875 8.265625 
Q 6.984375 17.96875 6.984375 36.375 
Q 6.984375 53.65625 15.1875 63.9375 
Q 23.390625 74.21875 37.203125 74.21875 
Q 40.921875 74.21875 44.703125 73.484375 
Q 48.484375 72.75 52.59375 71.296875 
z
" id="DejaVuSans-36"/>
      </defs>
      <g transform="translate(287.227214 317.076875)scale(0.2 -0.2)">
       <use xlink:href="#DejaVuSans-36"/>
      </g>
     </g>
    </g>
    <g id="xtick_5">
     <g id="line2d_9">
      <path clip-path="url(#pc3f4774222)" d="M 56.12 294.88 
L 56.12 6.845228 
" style="fill:none;stroke:#b0b0b0;stroke-linecap:square;stroke-width:0.8;"/>
     </g>
     <g id="line2d_10">
      <defs>
       <path d="M 0 0 
L 0 2 
" id="m468b415caf" style="stroke:#000000;stroke-width:0.6;"/>
      </defs>
      <g>
       <use style="stroke:#000000;stroke-width:0.6;" x="56.12" xlink:href="#m468b415caf" y="294.88"/>
      </g>
     </g>
    </g>
    <g id="xtick_6">
     <g id="line2d_11">
      <path clip-path="url(#pc3f4774222)" d="M 95.698286 294.88 
L 95.698286 6.845228 
" style="fill:none;stroke:#b0b0b0;stroke-linecap:square;stroke-width:0.8;"/>
     </g>
     <g id="line2d_12">
      <g>
       <use style="stroke:#000000;stroke-width:0.6;" x="95.698286" xlink:href="#m468b415caf" y="294.88"/>
      </g>
     </g>
    </g>
    <g id="xtick_7">
     <g id="line2d_13">
      <path clip-path="url(#pc3f4774222)" d="M 135.276571 294.88 
L 135.276571 6.845228 
" style="fill:none;stroke:#b0b0b0;stroke-linecap:square;stroke-width:0.8;"/>
     </g>
     <g id="line2d_14">
      <g>
       <use style="stroke:#000000;stroke-width:0.6;" x="135.276571" xlink:href="#m468b415caf" y="294.88"/>
      </g>
     </g>
    </g>
    <g id="xtick_8">
     <g id="line2d_15">
      <path clip-path="url(#pc3f4774222)" d="M 174.854857 294.88 
L 174.854857 6.845228 
" style="fill:none;stroke:#b0b0b0;stroke-linecap:square;stroke-width:0.8;"/>
     </g>
     <g id="line2d_16">
      <g>
       <use style="stroke:#000000;stroke-width:0.6;" x="174.854857" xlink:href="#m468b415caf" y="294.88"/>
      </g>
     </g>
    </g>
    <g id="xtick_9">
     <g id="line2d_17">
      <path clip-path="url(#pc3f4774222)" d="M 214.433143 294.88 
L 214.433143 6.845228 
" style="fill:none;stroke:#b0b0b0;stroke-linecap:square;stroke-width:0.8;"/>
     </g>
     <g id="line2d_18">
      <g>
       <use style="stroke:#000000;stroke-width:0.6;" x="214.433143" xlink:href="#m468b415caf" y="294.88"/>
      </g>
     </g>
    </g>
    <g id="xtick_10">
     <g id="line2d_19">
      <path clip-path="url(#pc3f4774222)" d="M 254.011429 294.88 
L 254.011429 6.845228 
" style="fill:none;stroke:#b0b0b0;stroke-linecap:square;stroke-width:0.8;"/>
     </g>
     <g id="line2d_20">
      <g>
       <use style="stroke:#000000;stroke-width:0.6;" x="254.011429" xlink:href="#m468b415caf" y="294.88"/>
      </g>
     </g>
    </g>
    <g id="xtick_11">
     <g id="line2d_21">
      <path clip-path="url(#pc3f4774222)" d="M 293.589714 294.88 
L 293.589714 6.845228 
" style="fill:none;stroke:#b0b0b0;stroke-linecap:square;stroke-width:0.8;"/>
     </g>
     <g id="line2d_22">
      <g>
       <use style="stroke:#000000;stroke-width:0.6;" x="293.589714" xlink:href="#m468b415caf" y="294.88"/>
      </g>
     </g>
    </g>
    <g id="xtick_12">
     <g id="line2d_23">
      <path clip-path="url(#pc3f4774222)" d="M 333.168 294.88 
L 333.168 6.845228 
" style="fill:none;stroke:#b0b0b0;stroke-linecap:square;stroke-width:0.8;"/>
     </g>
     <g id="line2d_24">
      <g>
       <use style="stroke:#000000;stroke-width:0.6;" x="333.168" xlink:href="#m468b415caf" y="294.88"/>
      </g>
     </g>
    </g>
    <g id="text_5">
     <!-- log10(# f-evals / dimension) -->
     <defs>
      <path d="M 9.421875 75.984375 
L 18.40625 75.984375 
L 18.40625 0 
L 9.421875 0 
z
" id="DejaVuSans-6c"/>
      <path d="M 30.609375 48.390625 
Q 23.390625 48.390625 19.1875 42.75 
Q 14.984375 37.109375 14.984375 27.296875 
Q 14.984375 17.484375 19.15625 11.84375 
Q 23.34375 6.203125 30.609375 6.203125 
Q 37.796875 6.203125 41.984375 11.859375 
Q 46.1875 17.53125 46.1875 27.296875 
Q 46.1875 37.015625 41.984375 42.703125 
Q 37.796875 48.390625 30.609375 48.390625 
z
M 30.609375 56 
Q 42.328125 56 49.015625 48.375 
Q 55.71875 40.765625 55.71875 27.296875 
Q 55.71875 13.875 49.015625 6.21875 
Q 42.328125 -1.421875 30.609375 -1.421875 
Q 18.84375 -1.421875 12.171875 6.21875 
Q 5.515625 13.875 5.515625 27.296875 
Q 5.515625 40.765625 12.171875 48.375 
Q 18.84375 56 30.609375 56 
z
" id="DejaVuSans-6f"/>
      <path d="M 45.40625 27.984375 
Q 45.40625 37.75 41.375 43.109375 
Q 37.359375 48.484375 30.078125 48.484375 
Q 22.859375 48.484375 18.828125 43.109375 
Q 14.796875 37.75 14.796875 27.984375 
Q 14.796875 18.265625 18.828125 12.890625 
Q 22.859375 7.515625 30.078125 7.515625 
Q 37.359375 7.515625 41.375 12.890625 
Q 45.40625 18.265625 45.40625 27.984375 
z
M 54.390625 6.78125 
Q 54.390625 -7.171875 48.1875 -13.984375 
Q 42 -20.796875 29.203125 -20.796875 
Q 24.46875 -20.796875 20.265625 -20.09375 
Q 16.0625 -19.390625 12.109375 -17.921875 
L 12.109375 -9.1875 
Q 16.0625 -11.328125 19.921875 -12.34375 
Q 23.78125 -13.375 27.78125 -13.375 
Q 36.625 -13.375 41.015625 -8.765625 
Q 45.40625 -4.15625 45.40625 5.171875 
L 45.40625 9.625 
Q 42.625 4.78125 38.28125 2.390625 
Q 33.9375 0 27.875 0 
Q 17.828125 0 11.671875 7.65625 
Q 5.515625 15.328125 5.515625 27.984375 
Q 5.515625 40.671875 11.671875 48.328125 
Q 17.828125 56 27.875 56 
Q 33.9375 56 38.28125 53.609375 
Q 42.625 51.21875 45.40625 46.390625 
L 45.40625 54.6875 
L 54.390625 54.6875 
z
" id="DejaVuSans-67"/>
      <path d="M 12.40625 8.296875 
L 28.515625 8.296875 
L 28.515625 63.921875 
L 10.984375 60.40625 
L 10.984375 69.390625 
L 28.421875 72.90625 
L 38.28125 72.90625 
L 38.28125 8.296875 
L 54.390625 8.296875 
L 54.390625 0 
L 12.40625 0 
z
" id="DejaVuSans-31"/>
      <path d="M 31 75.875 
Q 24.46875 64.65625 21.28125 53.65625 
Q 18.109375 42.671875 18.109375 31.390625 
Q 18.109375 20.125 21.3125 9.0625 
Q 24.515625 -2 31 -13.1875 
L 23.1875 -13.1875 
Q 15.875 -1.703125 12.234375 9.375 
Q 8.59375 20.453125 8.59375 31.390625 
Q 8.59375 42.28125 12.203125 53.3125 
Q 15.828125 64.359375 23.1875 75.875 
z
" id="DejaVuSans-28"/>
      <path d="M 51.125 44 
L 36.921875 44 
L 32.8125 27.6875 
L 47.125 27.6875 
z
M 43.796875 71.78125 
L 38.71875 51.515625 
L 52.984375 51.515625 
L 58.109375 71.78125 
L 65.921875 71.78125 
L 60.890625 51.515625 
L 76.125 51.515625 
L 76.125 44 
L 58.984375 44 
L 54.984375 27.6875 
L 70.515625 27.6875 
L 70.515625 20.21875 
L 53.078125 20.21875 
L 48 0 
L 40.1875 0 
L 45.21875 20.21875 
L 30.90625 20.21875 
L 25.875 0 
L 18.015625 0 
L 23.09375 20.21875 
L 7.71875 20.21875 
L 7.71875 27.6875 
L 24.90625 27.6875 
L 29 44 
L 13.28125 44 
L 13.28125 51.515625 
L 30.90625 51.515625 
L 35.890625 71.78125 
z
" id="DejaVuSans-23"/>
      <path id="DejaVuSans-20"/>
      <path d="M 37.109375 75.984375 
L 37.109375 68.5 
L 28.515625 68.5 
Q 23.6875 68.5 21.796875 66.546875 
Q 19.921875 64.59375 19.921875 59.515625 
L 19.921875 54.6875 
L 34.71875 54.6875 
L 34.71875 47.703125 
L 19.921875 47.703125 
L 19.921875 0 
L 10.890625 0 
L 10.890625 47.703125 
L 2.296875 47.703125 
L 2.296875 54.6875 
L 10.890625 54.6875 
L 10.890625 58.5 
Q 10.890625 67.625 15.140625 71.796875 
Q 19.390625 75.984375 28.609375 75.984375 
z
" id="DejaVuSans-66"/>
      <path d="M 4.890625 31.390625 
L 31.203125 31.390625 
L 31.203125 23.390625 
L 4.890625 23.390625 
z
" id="DejaVuSans-2d"/>
      <path d="M 56.203125 29.59375 
L 56.203125 25.203125 
L 14.890625 25.203125 
Q 15.484375 15.921875 20.484375 11.0625 
Q 25.484375 6.203125 34.421875 6.203125 
Q 39.59375 6.203125 44.453125 7.46875 
Q 49.3125 8.734375 54.109375 11.28125 
L 54.109375 2.78125 
Q 49.265625 0.734375 44.1875 -0.34375 
Q 39.109375 -1.421875 33.890625 -1.421875 
Q 20.796875 -1.421875 13.15625 6.1875 
Q 5.515625 13.8125 5.515625 26.8125 
Q 5.515625 40.234375 12.765625 48.109375 
Q 20.015625 56 32.328125 56 
Q 43.359375 56 49.78125 48.890625 
Q 56.203125 41.796875 56.203125 29.59375 
z
M 47.21875 32.234375 
Q 47.125 39.59375 43.09375 43.984375 
Q 39.0625 48.390625 32.421875 48.390625 
Q 24.90625 48.390625 20.390625 44.140625 
Q 15.875 39.890625 15.1875 32.171875 
z
" id="DejaVuSans-65"/>
      <path d="M 2.984375 54.6875 
L 12.5 54.6875 
L 29.59375 8.796875 
L 46.6875 54.6875 
L 56.203125 54.6875 
L 35.6875 0 
L 23.484375 0 
z
" id="DejaVuSans-76"/>
      <path d="M 34.28125 27.484375 
Q 23.390625 27.484375 19.1875 25 
Q 14.984375 22.515625 14.984375 16.5 
Q 14.984375 11.71875 18.140625 8.90625 
Q 21.296875 6.109375 26.703125 6.109375 
Q 34.1875 6.109375 38.703125 11.40625 
Q 43.21875 16.703125 43.21875 25.484375 
L 43.21875 27.484375 
z
M 52.203125 31.203125 
L 52.203125 0 
L 43.21875 0 
L 43.21875 8.296875 
Q 40.140625 3.328125 35.546875 0.953125 
Q 30.953125 -1.421875 24.3125 -1.421875 
Q 15.921875 -1.421875 10.953125 3.296875 
Q 6 8.015625 6 15.921875 
Q 6 25.140625 12.171875 29.828125 
Q 18.359375 34.515625 30.609375 34.515625 
L 43.21875 34.515625 
L 43.21875 35.40625 
Q 43.21875 41.609375 39.140625 45 
Q 35.0625 48.390625 27.6875 48.390625 
Q 23 48.390625 18.546875 47.265625 
Q 14.109375 46.140625 10.015625 43.890625 
L 10.015625 52.203125 
Q 14.9375 54.109375 19.578125 55.046875 
Q 24.21875 56 28.609375 56 
Q 40.484375 56 46.34375 49.84375 
Q 52.203125 43.703125 52.203125 31.203125 
z
" id="DejaVuSans-61"/>
      <path d="M 44.28125 53.078125 
L 44.28125 44.578125 
Q 40.484375 46.53125 36.375 47.5 
Q 32.28125 48.484375 27.875 48.484375 
Q 21.1875 48.484375 17.84375 46.4375 
Q 14.5 44.390625 14.5 40.28125 
Q 14.5 37.15625 16.890625 35.375 
Q 19.28125 33.59375 26.515625 31.984375 
L 29.59375 31.296875 
Q 39.15625 29.25 43.1875 25.515625 
Q 47.21875 21.78125 47.21875 15.09375 
Q 47.21875 7.46875 41.1875 3.015625 
Q 35.15625 -1.421875 24.609375 -1.421875 
Q 20.21875 -1.421875 15.453125 -0.5625 
Q 10.6875 0.296875 5.421875 2 
L 5.421875 11.28125 
Q 10.40625 8.6875 15.234375 7.390625 
Q 20.0625 6.109375 24.8125 6.109375 
Q 31.15625 6.109375 34.5625 8.28125 
Q 37.984375 10.453125 37.984375 14.40625 
Q 37.984375 18.0625 35.515625 20.015625 
Q 33.0625 21.96875 24.703125 23.78125 
L 21.578125 24.515625 
Q 13.234375 26.265625 9.515625 29.90625 
Q 5.8125 33.546875 5.8125 39.890625 
Q 5.8125 47.609375 11.28125 51.796875 
Q 16.75 56 26.8125 56 
Q 31.78125 56 36.171875 55.265625 
Q 40.578125 54.546875 44.28125 53.078125 
z
" id="DejaVuSans-73"/>
      <path d="M 25.390625 72.90625 
L 33.6875 72.90625 
L 8.296875 -9.28125 
L 0 -9.28125 
z
" id="DejaVuSans-2f"/>
      <path d="M 45.40625 46.390625 
L 45.40625 75.984375 
L 54.390625 75.984375 
L 54.390625 0 
L 45.40625 0 
L 45.40625 8.203125 
Q 42.578125 3.328125 38.25 0.953125 
Q 33.9375 -1.421875 27.875 -1.421875 
Q 17.96875 -1.421875 11.734375 6.484375 
Q 5.515625 14.40625 5.515625 27.296875 
Q 5.515625 40.1875 11.734375 48.09375 
Q 17.96875 56 27.875 56 
Q 33.9375 56 38.25 53.625 
Q 42.578125 51.265625 45.40625 46.390625 
z
M 14.796875 27.296875 
Q 14.796875 17.390625 18.875 11.75 
Q 22.953125 6.109375 30.078125 6.109375 
Q 37.203125 6.109375 41.296875 11.75 
Q 45.40625 17.390625 45.40625 27.296875 
Q 45.40625 37.203125 41.296875 42.84375 
Q 37.203125 48.484375 30.078125 48.484375 
Q 22.953125 48.484375 18.875 42.84375 
Q 14.796875 37.203125 14.796875 27.296875 
z
" id="DejaVuSans-64"/>
      <path d="M 9.421875 54.6875 
L 18.40625 54.6875 
L 18.40625 0 
L 9.421875 0 
z
M 9.421875 75.984375 
L 18.40625 75.984375 
L 18.40625 64.59375 
L 9.421875 64.59375 
z
" id="DejaVuSans-69"/>
      <path d="M 52 44.1875 
Q 55.375 50.25 60.0625 53.125 
Q 64.75 56 71.09375 56 
Q 79.640625 56 84.28125 50.015625 
Q 88.921875 44.046875 88.921875 33.015625 
L 88.921875 0 
L 79.890625 0 
L 79.890625 32.71875 
Q 79.890625 40.578125 77.09375 44.375 
Q 74.3125 48.1875 68.609375 48.1875 
Q 61.625 48.1875 57.5625 43.546875 
Q 53.515625 38.921875 53.515625 30.90625 
L 53.515625 0 
L 44.484375 0 
L 44.484375 32.71875 
Q 44.484375 40.625 41.703125 44.40625 
Q 38.921875 48.1875 33.109375 48.1875 
Q 26.21875 48.1875 22.15625 43.53125 
Q 18.109375 38.875 18.109375 30.90625 
L 18.109375 0 
L 9.078125 0 
L 9.078125 54.6875 
L 18.109375 54.6875 
L 18.109375 46.1875 
Q 21.1875 51.21875 25.484375 53.609375 
Q 29.78125 56 35.6875 56 
Q 41.65625 56 45.828125 52.96875 
Q 50 49.953125 52 44.1875 
z
" id="DejaVuSans-6d"/>
      <path d="M 54.890625 33.015625 
L 54.890625 0 
L 45.90625 0 
L 45.90625 32.71875 
Q 45.90625 40.484375 42.875 44.328125 
Q 39.84375 48.1875 33.796875 48.1875 
Q 26.515625 48.1875 22.3125 43.546875 
Q 18.109375 38.921875 18.109375 30.90625 
L 18.109375 0 
L 9.078125 0 
L 9.078125 54.6875 
L 18.109375 54.6875 
L 18.109375 46.1875 
Q 21.34375 51.125 25.703125 53.5625 
Q 30.078125 56 35.796875 56 
Q 45.21875 56 50.046875 50.171875 
Q 54.890625 44.34375 54.890625 33.015625 
z
" id="DejaVuSans-6e"/>
      <path d="M 8.015625 75.875 
L 15.828125 75.875 
Q 23.140625 64.359375 26.78125 53.3125 
Q 30.421875 42.28125 30.421875 31.390625 
Q 30.421875 20.453125 26.78125 9.375 
Q 23.140625 -1.703125 15.828125 -13.1875 
L 8.015625 -13.1875 
Q 14.5 -2 17.703125 9.0625 
Q 20.90625 20.125 20.90625 31.390625 
Q 20.90625 42.671875 17.703125 53.65625 
Q 14.5 64.65625 8.015625 75.875 
z
" id="DejaVuSans-29"/>
     </defs>
     <g transform="translate(73.803219 338.153594)scale(0.17 -0.17)">
      <use xlink:href="#DejaVuSans-6c"/>
      <use x="27.783203" xlink:href="#DejaVuSans-6f"/>
      <use x="88.964844" xlink:href="#DejaVuSans-67"/>
      <use x="152.441406" xlink:href="#DejaVuSans-31"/>
      <use x="216.064453" xlink:href="#DejaVuSans-30"/>
      <use x="279.6875" xlink:href="#DejaVuSans-28"/>
      <use x="318.701172" xlink:href="#DejaVuSans-23"/>
      <use x="402.490234" xlink:href="#DejaVuSans-20"/>
      <use x="434.277344" xlink:href="#DejaVuSans-66"/>
      <use x="469.404297" xlink:href="#DejaVuSans-2d"/>
      <use x="505.488281" xlink:href="#DejaVuSans-65"/>
      <use x="567.011719" xlink:href="#DejaVuSans-76"/>
      <use x="626.191406" xlink:href="#DejaVuSans-61"/>
      <use x="687.470703" xlink:href="#DejaVuSans-6c"/>
      <use x="715.253906" xlink:href="#DejaVuSans-73"/>
      <use x="767.353516" xlink:href="#DejaVuSans-20"/>
      <use x="799.140625" xlink:href="#DejaVuSans-2f"/>
      <use x="832.832031" xlink:href="#DejaVuSans-20"/>
      <use x="864.619141" xlink:href="#DejaVuSans-64"/>
      <use x="928.095703" xlink:href="#DejaVuSans-69"/>
      <use x="955.878906" xlink:href="#DejaVuSans-6d"/>
      <use x="1053.291016" xlink:href="#DejaVuSans-65"/>
      <use x="1114.814453" xlink:href="#DejaVuSans-6e"/>
      <use x="1178.193359" xlink:href="#DejaVuSans-73"/>
      <use x="1230.292969" xlink:href="#DejaVuSans-69"/>
      <use x="1258.076172" xlink:href="#DejaVuSans-6f"/>
      <use x="1319.257812" xlink:href="#DejaVuSans-6e"/>
      <use x="1382.636719" xlink:href="#DejaVuSans-29"/>
     </g>
    </g>
   </g>
   <g id="matplotlib.axis_2">
    <g id="ytick_1">
     <g id="line2d_25">
      <path clip-path="url(#pc3f4774222)" d="M 56.12 294.88 
L 333.168 294.88 
" style="fill:none;stroke:#b0b0b0;stroke-linecap:square;stroke-width:0.8;"/>
     </g>
     <g id="line2d_26">
      <defs>
       <path d="M 0 0 
L -3.5 0 
" id="ma4cb42a872" style="stroke:#000000;stroke-width:0.8;"/>
      </defs>
      <g>
       <use style="stroke:#000000;stroke-width:0.8;" x="56.12" xlink:href="#ma4cb42a872" y="294.88"/>
      </g>
     </g>
     <g id="text_6">
      <!-- 0.0 -->
      <defs>
       <path d="M 10.6875 12.40625 
L 21 12.40625 
L 21 0 
L 10.6875 0 
z
" id="DejaVuSans-2e"/>
      </defs>
      <g transform="translate(23.675 300.95875)scale(0.16 -0.16)">
       <use xlink:href="#DejaVuSans-30"/>
       <use x="63.623047" xlink:href="#DejaVuSans-2e"/>
       <use x="95.410156" xlink:href="#DejaVuSans-30"/>
      </g>
     </g>
    </g>
    <g id="ytick_2">
     <g id="line2d_27">
      <path clip-path="url(#pc3f4774222)" d="M 56.12 237.843411 
L 333.168 237.843411 
" style="fill:none;stroke:#b0b0b0;stroke-linecap:square;stroke-width:0.8;"/>
     </g>
     <g id="line2d_28">
      <g>
       <use style="stroke:#000000;stroke-width:0.8;" x="56.12" xlink:href="#ma4cb42a872" y="237.843411"/>
      </g>
     </g>
     <g id="text_7">
      <!-- 0.2 -->
      <g transform="translate(23.675 243.922161)scale(0.16 -0.16)">
       <use xlink:href="#DejaVuSans-30"/>
       <use x="63.623047" xlink:href="#DejaVuSans-2e"/>
       <use x="95.410156" xlink:href="#DejaVuSans-32"/>
      </g>
     </g>
    </g>
    <g id="ytick_3">
     <g id="line2d_29">
      <path clip-path="url(#pc3f4774222)" d="M 56.12 180.806823 
L 333.168 180.806823 
" style="fill:none;stroke:#b0b0b0;stroke-linecap:square;stroke-width:0.8;"/>
     </g>
     <g id="line2d_30">
      <g>
       <use style="stroke:#000000;stroke-width:0.8;" x="56.12" xlink:href="#ma4cb42a872" y="180.806823"/>
      </g>
     </g>
     <g id="text_8">
      <!-- 0.4 -->
      <g transform="translate(23.675 186.885573)scale(0.16 -0.16)">
       <use xlink:href="#DejaVuSans-30"/>
       <use x="63.623047" xlink:href="#DejaVuSans-2e"/>
       <use x="95.410156" xlink:href="#DejaVuSans-34"/>
      </g>
     </g>
    </g>
    <g id="ytick_4">
     <g id="line2d_31">
      <path clip-path="url(#pc3f4774222)" d="M 56.12 123.770234 
L 333.168 123.770234 
" style="fill:none;stroke:#b0b0b0;stroke-linecap:square;stroke-width:0.8;"/>
     </g>
     <g id="line2d_32">
      <g>
       <use style="stroke:#000000;stroke-width:0.8;" x="56.12" xlink:href="#ma4cb42a872" y="123.770234"/>
      </g>
     </g>
     <g id="text_9">
      <!-- 0.6 -->
      <g transform="translate(23.675 129.848984)scale(0.16 -0.16)">
       <use xlink:href="#DejaVuSans-30"/>
       <use x="63.623047" xlink:href="#DejaVuSans-2e"/>
       <use x="95.410156" xlink:href="#DejaVuSans-36"/>
      </g>
     </g>
    </g>
    <g id="ytick_5">
     <g id="line2d_33">
      <path clip-path="url(#pc3f4774222)" d="M 56.12 66.733646 
L 333.168 66.733646 
" style="fill:none;stroke:#b0b0b0;stroke-linecap:square;stroke-width:0.8;"/>
     </g>
     <g id="line2d_34">
      <g>
       <use style="stroke:#000000;stroke-width:0.8;" x="56.12" xlink:href="#ma4cb42a872" y="66.733646"/>
      </g>
     </g>
     <g id="text_10">
      <!-- 0.8 -->
      <defs>
       <path d="M 31.78125 34.625 
Q 24.75 34.625 20.71875 30.859375 
Q 16.703125 27.09375 16.703125 20.515625 
Q 16.703125 13.921875 20.71875 10.15625 
Q 24.75 6.390625 31.78125 6.390625 
Q 38.8125 6.390625 42.859375 10.171875 
Q 46.921875 13.96875 46.921875 20.515625 
Q 46.921875 27.09375 42.890625 30.859375 
Q 38.875 34.625 31.78125 34.625 
z
M 21.921875 38.8125 
Q 15.578125 40.375 12.03125 44.71875 
Q 8.5 49.078125 8.5 55.328125 
Q 8.5 64.0625 14.71875 69.140625 
Q 20.953125 74.21875 31.78125 74.21875 
Q 42.671875 74.21875 48.875 69.140625 
Q 55.078125 64.0625 55.078125 55.328125 
Q 55.078125 49.078125 51.53125 44.71875 
Q 48 40.375 41.703125 38.8125 
Q 48.828125 37.15625 52.796875 32.3125 
Q 56.78125 27.484375 56.78125 20.515625 
Q 56.78125 9.90625 50.3125 4.234375 
Q 43.84375 -1.421875 31.78125 -1.421875 
Q 19.734375 -1.421875 13.25 4.234375 
Q 6.78125 9.90625 6.78125 20.515625 
Q 6.78125 27.484375 10.78125 32.3125 
Q 14.796875 37.15625 21.921875 38.8125 
z
M 18.3125 54.390625 
Q 18.3125 48.734375 21.84375 45.5625 
Q 25.390625 42.390625 31.78125 42.390625 
Q 38.140625 42.390625 41.71875 45.5625 
Q 45.3125 48.734375 45.3125 54.390625 
Q 45.3125 60.0625 41.71875 63.234375 
Q 38.140625 66.40625 31.78125 66.40625 
Q 25.390625 66.40625 21.84375 63.234375 
Q 18.3125 60.0625 18.3125 54.390625 
z
" id="DejaVuSans-38"/>
      </defs>
      <g transform="translate(23.675 72.812396)scale(0.16 -0.16)">
       <use xlink:href="#DejaVuSans-30"/>
       <use x="63.623047" xlink:href="#DejaVuSans-2e"/>
       <use x="95.410156" xlink:href="#DejaVuSans-38"/>
      </g>
     </g>
    </g>
    <g id="ytick_6">
     <g id="line2d_35">
      <path clip-path="url(#pc3f4774222)" d="M 56.12 9.697057 
L 333.168 9.697057 
" style="fill:none;stroke:#b0b0b0;stroke-linecap:square;stroke-width:0.8;"/>
     </g>
     <g id="line2d_36">
      <g>
       <use style="stroke:#000000;stroke-width:0.8;" x="56.12" xlink:href="#ma4cb42a872" y="9.697057"/>
      </g>
     </g>
     <g id="text_11">
      <!-- 1.0 -->
      <g transform="translate(23.675 15.775807)scale(0.16 -0.16)">
       <use xlink:href="#DejaVuSans-31"/>
       <use x="63.623047" xlink:href="#DejaVuSans-2e"/>
       <use x="95.410156" xlink:href="#DejaVuSans-30"/>
      </g>
     </g>
    </g>
    <g id="text_12">
     <!-- Fraction of function,target pairs -->
     <defs>
      <path d="M 9.8125 72.90625 
L 51.703125 72.90625 
L 51.703125 64.59375 
L 19.671875 64.59375 
L 19.671875 43.109375 
L 48.578125 43.109375 
L 48.578125 34.8125 
L 19.671875 34.8125 
L 19.671875 0 
L 9.8125 0 
z
" id="DejaVuSans-46"/>
      <path d="M 41.109375 46.296875 
Q 39.59375 47.171875 37.8125 47.578125 
Q 36.03125 48 33.890625 48 
Q 26.265625 48 22.1875 43.046875 
Q 18.109375 38.09375 18.109375 28.8125 
L 18.109375 0 
L 9.078125 0 
L 9.078125 54.6875 
L 18.109375 54.6875 
L 18.109375 46.1875 
Q 20.953125 51.171875 25.484375 53.578125 
Q 30.03125 56 36.53125 56 
Q 37.453125 56 38.578125 55.875 
Q 39.703125 55.765625 41.0625 55.515625 
z
" id="DejaVuSans-72"/>
      <path d="M 48.78125 52.59375 
L 48.78125 44.1875 
Q 44.96875 46.296875 41.140625 47.34375 
Q 37.3125 48.390625 33.40625 48.390625 
Q 24.65625 48.390625 19.8125 42.84375 
Q 14.984375 37.3125 14.984375 27.296875 
Q 14.984375 17.28125 19.8125 11.734375 
Q 24.65625 6.203125 33.40625 6.203125 
Q 37.3125 6.203125 41.140625 7.25 
Q 44.96875 8.296875 48.78125 10.40625 
L 48.78125 2.09375 
Q 45.015625 0.34375 40.984375 -0.53125 
Q 36.96875 -1.421875 32.421875 -1.421875 
Q 20.0625 -1.421875 12.78125 6.34375 
Q 5.515625 14.109375 5.515625 27.296875 
Q 5.515625 40.671875 12.859375 48.328125 
Q 20.21875 56 33.015625 56 
Q 37.15625 56 41.109375 55.140625 
Q 45.0625 54.296875 48.78125 52.59375 
z
" id="DejaVuSans-63"/>
      <path d="M 18.3125 70.21875 
L 18.3125 54.6875 
L 36.8125 54.6875 
L 36.8125 47.703125 
L 18.3125 47.703125 
L 18.3125 18.015625 
Q 18.3125 11.328125 20.140625 9.421875 
Q 21.96875 7.515625 27.59375 7.515625 
L 36.8125 7.515625 
L 36.8125 0 
L 27.59375 0 
Q 17.1875 0 13.234375 3.875 
Q 9.28125 7.765625 9.28125 18.015625 
L 9.28125 47.703125 
L 2.6875 47.703125 
L 2.6875 54.6875 
L 9.28125 54.6875 
L 9.28125 70.21875 
z
" id="DejaVuSans-74"/>
      <path d="M 8.5 21.578125 
L 8.5 54.6875 
L 17.484375 54.6875 
L 17.484375 21.921875 
Q 17.484375 14.15625 20.5 10.265625 
Q 23.53125 6.390625 29.59375 6.390625 
Q 36.859375 6.390625 41.078125 11.03125 
Q 45.3125 15.671875 45.3125 23.6875 
L 45.3125 54.6875 
L 54.296875 54.6875 
L 54.296875 0 
L 45.3125 0 
L 45.3125 8.40625 
Q 42.046875 3.421875 37.71875 1 
Q 33.40625 -1.421875 27.6875 -1.421875 
Q 18.265625 -1.421875 13.375 4.4375 
Q 8.5 10.296875 8.5 21.578125 
z
M 31.109375 56 
z
" id="DejaVuSans-75"/>
      <path d="M 11.71875 12.40625 
L 22.015625 12.40625 
L 22.015625 4 
L 14.015625 -11.625 
L 7.71875 -11.625 
L 11.71875 4 
z
" id="DejaVuSans-2c"/>
      <path d="M 18.109375 8.203125 
L 18.109375 -20.796875 
L 9.078125 -20.796875 
L 9.078125 54.6875 
L 18.109375 54.6875 
L 18.109375 46.390625 
Q 20.953125 51.265625 25.265625 53.625 
Q 29.59375 56 35.59375 56 
Q 45.5625 56 51.78125 48.09375 
Q 58.015625 40.1875 58.015625 27.296875 
Q 58.015625 14.40625 51.78125 6.484375 
Q 45.5625 -1.421875 35.59375 -1.421875 
Q 29.59375 -1.421875 25.265625 0.953125 
Q 20.953125 3.328125 18.109375 8.203125 
z
M 48.6875 27.296875 
Q 48.6875 37.203125 44.609375 42.84375 
Q 40.53125 48.484375 33.40625 48.484375 
Q 26.265625 48.484375 22.1875 42.84375 
Q 18.109375 37.203125 18.109375 27.296875 
Q 18.109375 17.390625 22.1875 11.75 
Q 26.265625 6.109375 33.40625 6.109375 
Q 40.53125 6.109375 44.609375 11.75 
Q 48.6875 17.390625 48.6875 27.296875 
z
" id="DejaVuSans-70"/>
     </defs>
     <g transform="translate(16.139531 286.001989)rotate(-90)scale(0.17 -0.17)">
      <use xlink:href="#DejaVuSans-46"/>
      <use x="57.410156" xlink:href="#DejaVuSans-72"/>
      <use x="98.523438" xlink:href="#DejaVuSans-61"/>
      <use x="159.802734" xlink:href="#DejaVuSans-63"/>
      <use x="214.783203" xlink:href="#DejaVuSans-74"/>
      <use x="253.992188" xlink:href="#DejaVuSans-69"/>
      <use x="281.775391" xlink:href="#DejaVuSans-6f"/>
      <use x="342.957031" xlink:href="#DejaVuSans-6e"/>
      <use x="406.335938" xlink:href="#DejaVuSans-20"/>
      <use x="438.123047" xlink:href="#DejaVuSans-6f"/>
      <use x="499.304688" xlink:href="#DejaVuSans-66"/>
      <use x="534.509766" xlink:href="#DejaVuSans-20"/>
      <use x="566.296875" xlink:href="#DejaVuSans-66"/>
      <use x="601.501953" xlink:href="#DejaVuSans-75"/>
      <use x="664.880859" xlink:href="#DejaVuSans-6e"/>
      <use x="728.259766" xlink:href="#DejaVuSans-63"/>
      <use x="783.240234" xlink:href="#DejaVuSans-74"/>
      <use x="822.449219" xlink:href="#DejaVuSans-69"/>
      <use x="850.232422" xlink:href="#DejaVuSans-6f"/>
      <use x="911.414062" xlink:href="#DejaVuSans-6e"/>
      <use x="974.792969" xlink:href="#DejaVuSans-2c"/>
      <use x="1006.580078" xlink:href="#DejaVuSans-74"/>
      <use x="1045.789062" xlink:href="#DejaVuSans-61"/>
      <use x="1107.068359" xlink:href="#DejaVuSans-72"/>
      <use x="1148.166016" xlink:href="#DejaVuSans-67"/>
      <use x="1211.642578" xlink:href="#DejaVuSans-65"/>
      <use x="1273.166016" xlink:href="#DejaVuSans-74"/>
      <use x="1312.375" xlink:href="#DejaVuSans-20"/>
      <use x="1344.162109" xlink:href="#DejaVuSans-70"/>
      <use x="1407.638672" xlink:href="#DejaVuSans-61"/>
      <use x="1468.917969" xlink:href="#DejaVuSans-69"/>
      <use x="1496.701172" xlink:href="#DejaVuSans-72"/>
      <use x="1537.814453" xlink:href="#DejaVuSans-73"/>
     </g>
    </g>
   </g>
   <g id="line2d_37">
    <defs>
     <path d="M 0 1.5 
C 0.397805 1.5 0.77937 1.341951 1.06066 1.06066 
C 1.341951 0.77937 1.5 0.397805 1.5 0 
C 1.5 -0.397805 1.341951 -0.77937 1.06066 -1.06066 
C 0.77937 -1.341951 0.397805 -1.5 0 -1.5 
C -0.397805 -1.5 -0.77937 -1.341951 -1.06066 -1.06066 
C -1.341951 -0.77937 -1.5 -0.397805 -1.5 0 
C -1.5 0.397805 -1.341951 0.77937 -1.06066 1.06066 
C -0.77937 1.341951 -0.397805 1.5 0 1.5 
z
" id="m179910f10d" style="stroke:#000080;"/>
    </defs>
    <g>
     <use style="fill:#000080;stroke:#000080;" x="185.320316" xlink:href="#m179910f10d" y="9.697057"/>
     <use style="fill:#000080;stroke:#000080;" x="185.320316" xlink:href="#m179910f10d" y="9.697057"/>
    </g>
   </g>
   <g id="line2d_38">
    <path d="M 82.598142 294.88 
L 82.598142 293.761636 
L 97.336537 293.761636 
L 97.336537 293.202453 
L 102.281398 293.202453 
L 102.281398 292.084089 
L 102.667676 292.084089 
L 102.667676 290.406542 
L 110.262176 290.406542 
L 110.262176 287.051449 
L 110.746395 287.051449 
L 110.746395 286.492266 
L 112.557398 286.492266 
L 112.557398 283.696355 
L 114.959714 283.696355 
L 114.959714 283.137173 
L 120.501303 283.137173 
L 120.501303 282.018808 
L 128.815257 282.018808 
L 128.815257 281.459626 
L 129.945433 281.459626 
L 129.945433 280.900444 
L 130.100987 280.900444 
L 130.100987 280.341262 
L 130.483823 280.341262 
L 130.483823 278.663715 
L 130.932248 278.663715 
L 130.932248 278.104533 
L 131.36927 278.104533 
L 131.36927 276.986168 
L 131.795457 276.986168 
L 131.795457 276.426986 
L 134.090678 276.426986 
L 134.090678 275.867804 
L 134.87075 275.867804 
L 134.87075 274.749439 
L 135.504239 274.749439 
L 135.560688 270.275981 
L 136.169688 270.275981 
L 136.169688 268.598435 
L 136.810332 268.598435 
L 136.810332 266.361706 
L 137.173303 266.361706 
L 137.173303 265.802523 
L 137.377325 265.802523 
L 137.377325 265.243341 
L 137.87703 265.243341 
L 137.87703 264.684159 
L 138.647518 264.684159 
L 138.647518 263.006612 
L 140.477347 263.006612 
L 140.477347 261.888248 
L 141.019094 261.888248 
L 141.100945 259.092337 
L 141.222995 259.092337 
L 141.222995 257.41479 
L 143.35529 257.41479 
L 143.35529 256.296425 
L 144.091308 256.296425 
L 144.193927 251.263785 
L 144.764138 251.263785 
L 144.797098 249.586238 
L 145.943432 249.586238 
L 145.943432 248.467874 
L 147.754435 248.467874 
L 147.782136 245.112781 
L 148.029459 245.112781 
L 148.029459 244.553598 
L 148.540183 244.553598 
L 148.540183 243.994416 
L 148.932933 243.994416 
L 148.932933 242.876052 
L 149.962801 242.876052 
L 150.06005 241.198505 
L 150.538207 241.198505 
L 150.538207 240.639323 
L 150.91138 240.639323 
L 150.91138 240.08014 
L 151.344251 240.08014 
L 151.344251 238.402594 
L 152.768465 238.402594 
L 152.768465 237.843411 
L 153.116965 237.843411 
L 153.116965 236.165865 
L 153.793457 236.165865 
L 153.793457 235.606682 
L 154.121973 235.606682 
L 154.121973 234.488318 
L 154.425533 234.488318 
L 154.500593 233.369954 
L 155.536037 233.369954 
L 155.536037 232.810771 
L 156.159258 232.810771 
L 156.210188 230.574042 
L 156.311596 230.574042 
L 156.311596 230.01486 
L 157.069798 230.01486 
L 157.069798 229.455678 
L 157.278148 229.455678 
L 157.278148 228.337313 
L 157.795964 228.337313 
L 157.795964 227.778131 
L 158.961235 227.778131 
L 158.961235 224.423038 
L 159.957346 224.423038 
L 160.066049 221.627126 
L 160.281415 221.627126 
L 160.281415 221.067944 
L 160.546882 221.067944 
L 160.638835 219.94958 
L 161.36983 219.94958 
L 161.36983 218.272033 
L 161.889239 218.272033 
L 161.889239 217.712851 
L 162.010628 217.712851 
L 162.010628 216.594486 
L 162.940606 216.594486 
L 162.940606 215.476122 
L 163.054817 215.476122 
L 163.054817 214.91694 
L 163.82284 214.91694 
L 163.888031 211.002664 
L 164.199681 211.002664 
L 164.231601 209.884299 
L 164.744732 209.884299 
L 164.744732 208.765935 
L 165.756415 208.765935 
L 165.775859 207.64757 
L 166.254949 207.64757 
L 166.254949 206.529206 
L 166.480253 206.529206 
L 166.480253 205.970024 
L 166.693434 205.970024 
L 166.693434 204.851659 
L 167.076027 204.851659 
L 167.076027 204.292477 
L 167.228497 204.292477 
L 167.228497 203.733295 
L 167.616957 203.733295 
L 167.616957 202.61493 
L 168.175218 202.61493 
L 168.175218 202.055748 
L 168.451851 202.055748 
L 168.543082 199.819019 
L 168.683129 199.819019 
L 168.683129 198.700655 
L 169.000166 198.700655 
L 169.080525 195.345561 
L 169.176462 195.345561 
L 169.176462 194.786379 
L 169.390381 194.786379 
L 169.390381 194.227197 
L 169.741102 194.227197 
L 169.741102 193.668014 
L 170.069679 193.668014 
L 170.069679 193.108832 
L 170.302724 193.108832 
L 170.392093 190.872103 
L 170.451415 190.872103 
L 170.451415 189.753739 
L 170.853806 189.753739 
L 170.853806 189.194556 
L 171.190358 189.194556 
L 171.296395 188.076192 
L 171.513488 188.076192 
L 171.520446 183.602734 
L 171.816987 183.602734 
L 171.892032 180.806823 
L 171.96675 180.806823 
L 171.96675 180.247641 
L 172.081589 180.247641 
L 172.081589 179.688458 
L 172.222398 179.688458 
L 172.222398 178.570094 
L 172.6836 178.570094 
L 172.6836 178.010912 
L 173.11374 178.010912 
L 173.11374 177.451729 
L 173.471391 177.451729 
L 173.490011 174.655818 
L 173.699631 174.655818 
L 173.736359 168.504814 
L 173.90067 168.504814 
L 173.90067 167.386449 
L 174.337211 167.386449 
L 174.337211 166.827267 
L 174.606704 166.827267 
L 174.635744 165.14972 
L 174.883481 165.14972 
L 174.969068 158.998715 
L 175.01454 158.998715 
L 175.099479 156.761987 
L 175.296051 156.761987 
L 175.296051 156.202804 
L 175.435095 156.202804 
L 175.46277 154.525258 
L 175.55103 154.525258 
L 175.660722 150.0518 
L 175.688036 150.0518 
L 175.688036 149.492617 
L 175.991022 149.492617 
L 176.044569 145.578342 
L 176.145852 145.578342 
L 176.167099 143.900795 
L 176.27294 143.900795 
L 176.27294 142.78243 
L 176.534728 142.78243 
L 176.602144 140.545702 
L 176.746457 140.545702 
L 176.746457 139.427337 
L 176.915 139.427337 
L 177.0214 137.74979 
L 177.031499 137.74979 
L 177.086938 133.276332 
L 177.212275 133.276332 
L 177.237233 132.157968 
L 177.34662 132.157968 
L 177.34662 131.598786 
L 177.524129 131.598786 
L 177.617081 121.533505 
L 177.670666 121.533505 
L 177.743468 117.61923 
L 177.801489 117.61923 
L 177.84969 112.027407 
L 177.936114 112.027407 
L 178.031633 104.758038 
L 178.093437 104.758038 
L 178.1692 102.521309 
L 178.254036 102.521309 
L 178.254036 100.843762 
L 178.385176 100.843762 
L 178.468955 99.725398 
L 178.519953 99.725398 
L 178.616894 94.133576 
L 178.704135 94.133576 
L 178.777259 89.660118 
L 178.836443 89.660118 
L 178.940658 86.305024 
L 178.96323 86.305024 
L 179.066682 79.594837 
L 179.156136 79.594837 
L 179.214033 78.476473 
L 179.373352 78.476473 
L 179.474372 73.443833 
L 179.791122 73.443833 
L 179.89827 68.970375 
L 179.992011 68.970375 
L 180.013244 67.85201 
L 180.240912 67.85201 
L 180.240912 66.174463 
L 180.374416 66.174463 
L 180.403483 62.81937 
L 180.502767 62.81937 
L 180.56453 60.023459 
L 180.630167 60.023459 
L 180.695554 54.990819 
L 180.841772 54.990819 
L 180.914418 53.313272 
L 180.966693 53.313272 
L 181.046808 51.076543 
L 181.082738 51.076543 
L 181.154374 46.043903 
L 181.213844 46.043903 
L 181.213844 45.484721 
L 181.496468 45.484721 
L 181.58578 43.247992 
L 181.61287 43.247992 
L 181.693885 41.011263 
L 181.736169 41.011263 
L 181.736169 38.215351 
L 181.866213 38.215351 
L 181.953629 35.978622 
L 182.082044 35.978622 
L 182.082044 34.301076 
L 182.243089 34.301076 
L 182.343444 32.623529 
L 182.380465 32.623529 
L 182.380465 32.064347 
L 182.681063 32.064347 
L 182.768057 28.150071 
L 182.940737 28.150071 
L 183.012177 23.676613 
L 183.24233 23.676613 
L 183.309028 21.439884 
L 183.354514 21.439884 
L 183.445128 18.084791 
L 183.514507 18.084791 
L 183.514507 16.966426 
L 183.789256 16.966426 
L 183.833491 15.28888 
L 184.079794 15.28888 
L 184.119947 13.611333 
L 184.243163 13.611333 
L 184.243163 12.492968 
L 184.372091 12.492968 
L 184.47716 10.256239 
L 185.320316 10.256239 
L 185.320316 9.697057 
L 333.168 9.697057 
L 333.168 9.697057 
" style="fill:none;stroke:#000080;stroke-linecap:square;stroke-width:1.5;"/>
   </g>
   <g id="line2d_39">
    <defs>
     <path d="M 0 6 
C 1.591219 6 3.117479 5.367802 4.242641 4.242641 
C 5.367802 3.117479 6 1.591219 6 0 
C 6 -1.591219 5.367802 -3.117479 4.242641 -4.242641 
C 3.117479 -5.367802 1.591219 -6 0 -6 
C -1.591219 -6 -3.117479 -5.367802 -4.242641 -4.242641 
C -5.367802 -3.117479 -6 -1.591219 -6 0 
C -6 1.591219 -5.367802 3.117479 -4.242641 4.242641 
C -3.117479 5.367802 -1.591219 6 0 6 
z
" id="me587756919" style="stroke:#000080;stroke-width:1.5;"/>
    </defs>
    <g>
     <use style="fill-opacity:0;stroke:#000080;stroke-width:1.5;" x="157.069798" xlink:href="#me587756919" y="229.455678"/>
     <use style="fill-opacity:0;stroke:#000080;stroke-width:1.5;" x="178.022105" xlink:href="#me587756919" y="107.553949"/>
     <use style="fill-opacity:0;stroke:#000080;stroke-width:1.5;" x="185.320316" xlink:href="#me587756919" y="10.256239"/>
     <use style="fill-opacity:0;stroke:#000080;stroke-width:1.5;" x="185.320316" xlink:href="#me587756919" y="9.697057"/>
     <use style="fill-opacity:0;stroke:#000080;stroke-width:1.5;" x="333.168" xlink:href="#me587756919" y="9.697057"/>
    </g>
   </g>
   <g id="line2d_40">
    <path style="fill:none;stroke:#000080;stroke-linecap:square;stroke-width:1.5;"/>
    <g/>
   </g>
   <g id="line2d_41">
    <defs>
     <path d="M 0 1.5 
C 0.397805 1.5 0.77937 1.341951 1.06066 1.06066 
C 1.341951 0.77937 1.5 0.397805 1.5 0 
C 1.5 -0.397805 1.341951 -0.77937 1.06066 -1.06066 
C 0.77937 -1.341951 0.397805 -1.5 0 -1.5 
C -0.397805 -1.5 -0.77937 -1.341951 -1.06066 -1.06066 
C -1.341951 -0.77937 -1.5 -0.397805 -1.5 0 
C -1.5 0.397805 -1.341951 0.77937 -1.06066 1.06066 
C -0.77937 1.341951 -0.397805 1.5 0 1.5 
z
" id="ma76597a200" style="stroke:#ff00ff;"/>
    </defs>
    <g>
     <use style="fill:#ff00ff;stroke:#ff00ff;" x="190.273746" xlink:href="#ma76597a200" y="9.697057"/>
     <use style="fill:#ff00ff;stroke:#ff00ff;" x="190.273746" xlink:href="#ma76597a200" y="9.697057"/>
    </g>
   </g>
   <g id="line2d_42">
    <path d="M 37.236359 294.88 
L 37.236359 266.920888 
L 134.455115 266.920888 
L 134.455115 266.361706 
L 138.266591 266.361706 
L 138.266591 265.802523 
L 140.307161 265.802523 
L 140.392465 264.124977 
L 141.544287 264.124977 
L 141.544287 260.769883 
L 141.781376 260.769883 
L 141.781376 260.210701 
L 142.398074 260.210701 
L 142.398074 259.651519 
L 144.125582 259.651519 
L 144.125582 259.092337 
L 144.295937 259.092337 
L 144.295937 257.973972 
L 144.598384 257.973972 
L 144.598384 256.296425 
L 144.92831 256.296425 
L 144.92831 255.737243 
L 145.284061 255.737243 
L 145.284061 255.178061 
L 145.757607 255.178061 
L 145.757607 254.618879 
L 147.305033 254.618879 
L 147.305033 254.059696 
L 147.531203 254.059696 
L 147.531203 251.822967 
L 147.698898 251.822967 
L 147.698898 250.704603 
L 147.947413 250.704603 
L 147.947413 249.586238 
L 148.273273 249.586238 
L 148.273273 248.467874 
L 149.240798 248.467874 
L 149.240798 246.790327 
L 149.987165 246.790327 
L 149.987165 245.671963 
L 150.561769 245.671963 
L 150.561769 244.553598 
L 151.231391 244.553598 
L 151.231391 243.435234 
L 151.366735 243.435234 
L 151.366735 242.876052 
L 152.092658 242.876052 
L 152.20002 240.639323 
L 153.358778 240.639323 
L 153.358778 239.520958 
L 153.478421 239.520958 
L 153.478421 238.402594 
L 153.851888 238.402594 
L 153.851888 236.725047 
L 155.161776 236.725047 
L 155.161776 236.165865 
L 156.479291 236.165865 
L 156.512635 234.488318 
L 157.468255 234.488318 
L 157.468255 233.929136 
L 158.522353 233.929136 
L 158.581522 232.810771 
L 159.176544 232.810771 
L 159.176544 232.251589 
L 159.445454 232.251589 
L 159.445454 231.692407 
L 160.066049 231.692407 
L 160.066049 230.01486 
L 160.308147 230.01486 
L 160.308147 229.455678 
L 160.717262 229.455678 
L 160.756342 227.218949 
L 160.834236 227.218949 
L 160.834236 226.659767 
L 160.988974 226.659767 
L 161.091363 224.98222 
L 162.11915 224.98222 
L 162.11915 224.423038 
L 162.47602 224.423038 
L 162.47602 223.863855 
L 162.651715 223.863855 
L 162.709883 222.186309 
L 163.482025 222.186309 
L 163.482025 221.067944 
L 163.713637 221.067944 
L 163.713637 219.94958 
L 164.124971 219.94958 
L 164.199681 217.712851 
L 164.316431 217.712851 
L 164.400844 214.91694 
L 164.775656 214.91694 
L 164.775656 213.798575 
L 165.775859 213.798575 
L 165.775859 213.239393 
L 166.35858 213.239393 
L 166.35858 212.121028 
L 167.112024 212.121028 
L 167.121011 211.002664 
L 167.979745 211.002664 
L 168.013901 209.884299 
L 168.293122 209.884299 
L 168.301512 204.851659 
L 168.76498 204.851659 
L 168.76498 204.292477 
L 168.927521 204.292477 
L 168.927521 203.733295 
L 170.325109 203.733295 
L 170.414363 202.61493 
L 170.620835 202.61493 
L 170.628164 201.496566 
L 171.239923 201.496566 
L 171.239923 199.819019 
L 171.76906 199.819019 
L 171.864781 198.141472 
L 172.128654 198.141472 
L 172.128654 197.023108 
L 172.335547 197.023108 
L 172.408366 195.345561 
L 172.461133 195.345561 
L 172.461133 194.786379 
L 172.579268 194.786379 
L 172.6901 193.668014 
L 172.813131 193.668014 
L 172.813131 193.108832 
L 173.082009 193.108832 
L 173.177026 190.872103 
L 173.202276 190.872103 
L 173.202276 190.312921 
L 173.352999 190.312921 
L 173.352999 189.753739 
L 173.718004 189.753739 
L 173.718004 189.194556 
L 173.91883 189.194556 
L 173.91883 188.635374 
L 174.045417 188.635374 
L 174.045417 186.957828 
L 174.283986 186.957828 
L 174.372603 185.839463 
L 174.407922 185.839463 
L 174.407922 185.280281 
L 174.923475 185.280281 
L 174.997502 182.48437 
L 175.093829 182.48437 
L 175.178377 180.806823 
L 175.256916 180.806823 
L 175.301634 178.570094 
L 175.495921 178.570094 
L 175.534516 177.451729 
L 175.644313 177.451729 
L 175.644313 175.215 
L 175.888821 175.215 
L 175.980293 172.978271 
L 176.028523 172.978271 
L 176.09795 167.945631 
L 176.204217 167.945631 
L 176.257105 166.827267 
L 176.493109 166.827267 
L 176.571062 163.472173 
L 176.756719 163.472173 
L 176.756719 162.912991 
L 176.920082 162.912991 
L 177.0214 161.794627 
L 177.102027 161.794627 
L 177.147214 159.557898 
L 177.282067 159.557898 
L 177.376333 157.321169 
L 177.396112 157.321169 
L 177.420805 155.08444 
L 177.509407 155.08444 
L 177.573114 153.406893 
L 177.631711 153.406893 
L 177.724084 150.610982 
L 177.772503 150.610982 
L 177.787002 148.933435 
L 178.012572 148.933435 
L 178.069693 147.255888 
L 178.178647 147.255888 
L 178.178647 146.696706 
L 178.291606 146.696706 
L 178.361831 143.900795 
L 178.427116 143.900795 
L 178.510692 141.664066 
L 178.575415 141.664066 
L 178.584641 138.308973 
L 178.809153 138.308973 
L 178.877298 135.513061 
L 178.972251 135.513061 
L 179.066682 134.394697 
L 179.138283 134.394697 
L 179.227366 132.71715 
L 179.373352 132.71715 
L 179.377757 130.480421 
L 179.539935 130.480421 
L 179.539935 127.68451 
L 179.765306 127.68451 
L 179.846922 121.533505 
L 179.911083 121.533505 
L 179.911083 120.415141 
L 180.203176 120.415141 
L 180.270204 116.500865 
L 180.428358 116.500865 
L 180.535735 114.823318 
L 180.59738 114.823318 
L 180.699633 110.349861 
L 180.752565 110.349861 
L 180.75663 106.435585 
L 180.982746 106.435585 
L 181.090713 103.639674 
L 181.098683 103.639674 
L 181.186117 101.402945 
L 181.37143 101.402945 
L 181.453589 99.166216 
L 181.535356 99.166216 
L 181.535356 98.047851 
L 181.651496 98.047851 
L 181.690035 96.929487 
L 181.793663 96.929487 
L 181.850964 94.692758 
L 181.911877 94.692758 
L 182.017956 88.541753 
L 182.048145 88.541753 
L 182.063219 85.745842 
L 182.198298 85.745842 
L 182.298914 80.15402 
L 182.310058 80.15402 
L 182.417406 77.917291 
L 182.4837 77.917291 
L 182.586319 76.798926 
L 182.6374 76.798926 
L 182.742729 71.766286 
L 182.851016 71.766286 
L 182.851016 71.207104 
L 182.9622 71.207104 
L 182.9622 70.647921 
L 183.132949 70.647921 
L 183.217692 62.260188 
L 183.358008 62.260188 
L 183.358008 61.141823 
L 183.469442 61.141823 
L 183.469442 60.582641 
L 183.593948 60.582641 
L 183.593948 59.464277 
L 183.826693 59.464277 
L 183.864048 58.345912 
L 183.98237 58.345912 
L 184.012664 55.550001 
L 184.173338 55.550001 
L 184.279625 54.431636 
L 184.289556 54.431636 
L 184.38855 52.194907 
L 184.460785 52.194907 
L 184.460785 51.635725 
L 184.811056 51.635725 
L 184.820685 49.958178 
L 185.050168 49.958178 
L 185.091277 48.280632 
L 185.279751 48.280632 
L 185.373219 44.366356 
L 185.481626 44.366356 
L 185.481626 43.807174 
L 185.644494 43.807174 
L 185.751209 41.011263 
L 185.787644 41.011263 
L 185.787644 39.892898 
L 185.899505 39.892898 
L 185.956665 35.41944 
L 186.386737 35.41944 
L 186.494777 33.741894 
L 186.523861 33.741894 
L 186.593463 32.064347 
L 186.803451 32.064347 
L 186.803451 29.827618 
L 186.928792 29.827618 
L 186.928792 28.150071 
L 187.067308 28.150071 
L 187.067308 27.590889 
L 187.321627 27.590889 
L 187.321627 27.031707 
L 187.470783 27.031707 
L 187.470783 25.913342 
L 187.615928 25.913342 
L 187.615928 24.235795 
L 187.89991 24.235795 
L 187.89991 23.676613 
L 188.121117 23.676613 
L 188.218817 22.558249 
L 188.237239 22.558249 
L 188.242498 20.880702 
L 188.467155 20.880702 
L 188.55517 18.643973 
L 188.688914 18.643973 
L 188.691476 15.28888 
L 188.801275 15.28888 
L 188.801275 14.729697 
L 188.953321 14.729697 
L 188.953321 14.170515 
L 189.176406 14.170515 
L 189.176406 11.933786 
L 189.327652 11.933786 
L 189.327652 10.815422 
L 189.657719 10.815422 
L 189.657719 10.256239 
L 190.273746 10.256239 
L 190.273746 9.697057 
L 333.168 9.697057 
L 333.168 9.697057 
" style="fill:none;stroke:#ff00ff;stroke-linecap:square;stroke-width:1.5;"/>
   </g>
   <g id="line2d_43">
    <defs>
     <path d="M -0 8.485281 
L 5.091169 0 
L 0 -8.485281 
L -5.091169 -0 
z
" id="m5a62465fa7" style="stroke:#ff00ff;stroke-linejoin:miter;stroke-width:1.5;"/>
    </defs>
    <g>
     <use style="fill-opacity:0;stroke:#ff00ff;stroke-linejoin:miter;stroke-width:1.5;" x="162.11915" xlink:href="#m5a62465fa7" y="224.423038"/>
     <use style="fill-opacity:0;stroke:#ff00ff;stroke-linejoin:miter;stroke-width:1.5;" x="182.048145" xlink:href="#m5a62465fa7" y="87.982571"/>
     <use style="fill-opacity:0;stroke:#ff00ff;stroke-linejoin:miter;stroke-width:1.5;" x="190.273746" xlink:href="#m5a62465fa7" y="10.256239"/>
     <use style="fill-opacity:0;stroke:#ff00ff;stroke-linejoin:miter;stroke-width:1.5;" x="190.273746" xlink:href="#m5a62465fa7" y="9.697057"/>
     <use style="fill-opacity:0;stroke:#ff00ff;stroke-linejoin:miter;stroke-width:1.5;" x="190.273746" xlink:href="#m5a62465fa7" y="9.697057"/>
     <use style="fill-opacity:0;stroke:#ff00ff;stroke-linejoin:miter;stroke-width:1.5;" x="333.168" xlink:href="#m5a62465fa7" y="9.697057"/>
    </g>
   </g>
   <g id="line2d_44">
    <path style="fill:none;stroke:#ff00ff;stroke-linecap:square;stroke-width:1.5;"/>
    <g/>
   </g>
   <g id="line2d_45">
    <defs>
     <path d="M 0 1.5 
C 0.397805 1.5 0.77937 1.341951 1.06066 1.06066 
C 1.341951 0.77937 1.5 0.397805 1.5 0 
C 1.5 -0.397805 1.341951 -0.77937 1.06066 -1.06066 
C 0.77937 -1.341951 0.397805 -1.5 0 -1.5 
C -0.397805 -1.5 -0.77937 -1.341951 -1.06066 -1.06066 
C -1.341951 -0.77937 -1.5 -0.397805 -1.5 0 
C -1.5 0.397805 -1.341951 0.77937 -1.06066 1.06066 
C -0.77937 1.341951 -0.397805 1.5 0 1.5 
z
" id="m8ce883a026" style="stroke:#ffa500;"/>
    </defs>
    <g>
     <use style="fill:#ffa500;stroke:#ffa500;" x="185.119681" xlink:href="#m8ce883a026" y="9.697057"/>
     <use style="fill:#ffa500;stroke:#ffa500;" x="185.119681" xlink:href="#m8ce883a026" y="9.697057"/>
    </g>
   </g>
   <g id="line2d_46">
    <path d="M 49.15061 294.88 
L 49.15061 294.320818 
L 56.12 294.320818 
L 56.12 293.202453 
L 61.064861 293.202453 
L 61.064861 292.643271 
L 64.900393 292.643271 
L 64.900393 290.406542 
L 68.034251 290.406542 
L 68.034251 288.169813 
L 91.131212 288.169813 
L 91.131212 287.051449 
L 98.347925 287.051449 
L 98.347925 286.492266 
L 98.832144 286.492266 
L 98.832144 285.933084 
L 100.643147 285.933084 
L 100.643147 284.255537 
L 104.131422 284.255537 
L 104.131422 283.696355 
L 105.801534 283.696355 
L 105.801534 282.577991 
L 108.176149 282.577991 
L 108.176149 280.900444 
L 108.451173 280.900444 
L 108.451173 279.782079 
L 110.014853 279.782079 
L 110.014853 279.222897 
L 110.746395 279.222897 
L 110.746395 278.663715 
L 115.329377 278.663715 
L 115.329377 276.986168 
L 115.511269 276.986168 
L 115.511269 276.426986 
L 117.394493 276.426986 
L 117.394493 275.867804 
L 117.55589 275.867804 
L 117.55589 275.308622 
L 123.131597 275.308622 
L 123.131597 273.631075 
L 123.7027 273.631075 
L 123.7027 269.716799 
L 126.591406 269.716799 
L 126.591406 269.157617 
L 127.783629 269.157617 
L 127.783629 267.48007 
L 128.478214 267.48007 
L 128.478214 266.920888 
L 128.647561 266.920888 
L 128.647561 265.243341 
L 128.898495 265.243341 
L 128.981332 261.329066 
L 129.630036 261.329066 
L 129.70943 259.092337 
L 130.932248 259.092337 
L 130.932248 256.855608 
L 132.550368 256.855608 
L 132.550368 256.296425 
L 133.465568 256.296425 
L 133.529112 254.059696 
L 135.276571 254.059696 
L 135.276571 252.941332 
L 135.616951 252.941332 
L 135.673032 250.145421 
L 136.169688 250.145421 
L 136.223997 249.027056 
L 136.492995 249.027056 
L 136.492995 248.467874 
L 136.914823 248.467874 
L 136.914823 247.908692 
L 137.528768 247.908692 
L 137.528768 247.34951 
L 140.978022 247.34951 
L 140.978022 246.231145 
L 143.319443 246.231145 
L 143.319443 243.435234 
L 144.125582 243.435234 
L 144.193927 241.757687 
L 145.284061 241.757687 
L 145.284061 240.639323 
L 146.489148 240.639323 
L 146.489148 240.08014 
L 146.608101 240.08014 
L 146.608101 239.520958 
L 147.075848 239.520958 
L 147.162151 238.402594 
L 147.333468 238.402594 
L 147.333468 237.843411 
L 147.503094 237.843411 
L 147.503094 236.725047 
L 147.974805 236.725047 
L 147.974805 234.488318 
L 148.724584 234.488318 
L 148.724584 233.929136 
L 149.342206 233.929136 
L 149.342206 232.810771 
L 149.642889 232.810771 
L 149.642889 231.692407 
L 150.035789 231.692407 
L 150.132627 228.896496 
L 151.049258 228.896496 
L 151.049258 228.337313 
L 151.389189 228.337313 
L 151.389189 227.778131 
L 151.700505 227.778131 
L 151.700505 227.218949 
L 152.391598 227.218949 
L 152.391598 226.659767 
L 152.539141 226.659767 
L 152.622886 221.067944 
L 153.035598 221.067944 
L 153.035598 220.508762 
L 153.338757 220.508762 
L 153.418704 218.272033 
L 153.754391 218.272033 
L 153.754391 217.712851 
L 154.38788 217.712851 
L 154.481859 216.594486 
L 155.215743 216.594486 
L 155.305314 214.91694 
L 155.588844 214.91694 
L 155.588844 213.798575 
L 155.815818 213.798575 
L 155.815818 213.239393 
L 156.159258 213.239393 
L 156.159258 212.121028 
L 156.294736 212.121028 
L 156.311596 209.884299 
L 156.445883 209.884299 
L 156.445883 208.765935 
L 156.727806 208.765935 
L 156.727806 207.64757 
L 157.26221 207.64757 
L 157.26221 205.410841 
L 157.671858 205.410841 
L 157.671858 204.292477 
L 157.903827 204.292477 
L 157.903827 202.61493 
L 158.04152 202.61493 
L 158.04152 199.259837 
L 158.298636 199.259837 
L 158.313642 197.58229 
L 158.640488 197.58229 
L 158.640488 197.023108 
L 159.190803 197.023108 
L 159.190803 196.463926 
L 159.459491 196.463926 
L 159.459491 195.345561 
L 159.599237 195.345561 
L 159.710221 192.54965 
L 160.507322 192.54965 
L 160.507322 191.431285 
L 160.834236 191.431285 
L 160.834236 189.753739 
L 161.766986 189.753739 
L 161.766986 189.194556 
L 162.179145 189.194556 
L 162.179145 188.635374 
L 162.346026 188.635374 
L 162.346026 186.957828 
L 162.487789 186.957828 
L 162.511303 184.161916 
L 163.020633 184.161916 
L 163.020633 183.602734 
L 163.145642 183.602734 
L 163.145642 183.043552 
L 164.017676 183.043552 
L 164.017676 181.925187 
L 164.242227 181.925187 
L 164.327005 178.010912 
L 164.390315 178.010912 
L 164.390315 176.892547 
L 164.516239 176.892547 
L 164.516239 175.215 
L 164.827073 175.215 
L 164.847597 172.978271 
L 165.061629 172.978271 
L 165.172687 170.18236 
L 165.202851 170.18236 
L 165.202851 169.623178 
L 165.392672 169.623178 
L 165.392672 169.063996 
L 165.872751 169.063996 
L 165.892064 166.827267 
L 166.179186 166.827267 
L 166.179186 165.14972 
L 166.39611 165.14972 
L 166.452251 164.031356 
L 166.894901 164.031356 
L 166.931279 160.676262 
L 167.299782 160.676262 
L 167.326438 158.998715 
L 167.450289 158.998715 
L 167.511881 157.321169 
L 167.669255 157.321169 
L 167.712715 156.202804 
L 167.962642 156.202804 
L 167.962642 155.643622 
L 168.551352 155.643622 
L 168.658498 151.729346 
L 168.666712 151.729346 
L 168.666712 151.170164 
L 169.256002 151.170164 
L 169.335176 150.0518 
L 169.413987 150.0518 
L 169.492438 147.815071 
L 169.562739 147.815071 
L 169.562739 147.255888 
L 169.756525 147.255888 
L 169.756525 145.578342 
L 170.069679 145.578342 
L 170.069679 145.019159 
L 170.287783 145.019159 
L 170.287783 143.900795 
L 170.429193 143.900795 
L 170.495773 139.427337 
L 170.620835 139.427337 
L 170.65013 134.394697 
L 171.062243 134.394697 
L 171.069385 131.598786 
L 171.638295 131.598786 
L 171.659008 130.480421 
L 171.810148 130.480421 
L 171.905641 129.362057 
L 172.39515 129.362057 
L 172.428173 124.888599 
L 172.553086 124.888599 
L 172.64455 122.65187 
L 172.806677 122.65187 
L 172.806677 122.092688 
L 173.158065 122.092688 
L 173.208582 120.415141 
L 173.402948 120.415141 
L 173.402948 119.855959 
L 173.564286 119.855959 
L 173.588974 117.61923 
L 173.7608 117.61923 
L 173.7608 117.060047 
L 173.88249 117.060047 
L 173.88249 115.941683 
L 174.03941 115.941683 
L 174.03941 115.382501 
L 174.390271 115.382501 
L 174.390271 113.704954 
L 174.624134 113.704954 
L 174.72257 108.672314 
L 174.791716 108.672314 
L 174.866312 105.31722 
L 174.951984 105.31722 
L 174.957681 104.198856 
L 175.2233 104.198856 
L 175.2233 103.639674 
L 175.556531 103.639674 
L 175.611447 101.402945 
L 175.677115 101.402945 
L 175.737092 96.929487 
L 175.807704 96.929487 
L 175.807704 96.370304 
L 175.969557 96.370304 
L 176.028523 94.133576 
L 176.108607 94.133576 
L 176.151166 92.456029 
L 176.241256 92.456029 
L 176.241256 91.896847 
L 176.399096 91.896847 
L 176.399096 91.337664 
L 176.513931 91.337664 
L 176.622835 90.2193 
L 176.684757 90.2193 
L 176.684757 88.541753 
L 177.02645 88.541753 
L 177.041592 86.864206 
L 177.167259 86.864206 
L 177.207279 84.627477 
L 177.321821 84.627477 
L 177.386225 81.272384 
L 177.435604 81.272384 
L 177.514316 77.917291 
L 177.69011 77.917291 
L 177.743468 74.562197 
L 177.873741 74.562197 
L 177.888155 72.88465 
L 178.012572 72.88465 
L 178.117149 70.647921 
L 178.408489 70.647921 
L 178.515323 67.292828 
L 178.672045 67.292828 
L 178.731593 63.937735 
L 178.922579 63.937735 
L 179.026275 61.701006 
L 179.240689 61.701006 
L 179.32041 60.023459 
L 179.483128 60.023459 
L 179.592207 56.109183 
L 179.906813 56.109183 
L 180.009 53.872454 
L 180.081016 53.872454 
L 180.081016 52.75409 
L 180.286921 52.75409 
L 180.349463 50.517361 
L 180.469736 50.517361 
L 180.469736 49.398996 
L 180.658805 49.398996 
L 180.658805 45.484721 
L 180.793171 45.484721 
L 180.817489 44.366356 
L 180.946606 44.366356 
L 180.954644 42.688809 
L 181.094699 42.688809 
L 181.150403 38.774534 
L 181.296757 38.774534 
L 181.39886 34.301076 
L 181.457491 34.301076 
L 181.550887 30.3868 
L 181.578032 30.3868 
L 181.578032 29.827618 
L 181.873832 29.827618 
L 181.980146 25.35416 
L 182.123385 25.35416 
L 182.123385 24.794978 
L 182.306344 24.794978 
L 182.306344 24.235795 
L 182.50207 24.235795 
L 182.589973 21.999066 
L 182.72099 21.999066 
L 182.782514 19.762337 
L 182.851016 19.762337 
L 182.897729 16.966426 
L 183.00148 16.966426 
L 183.051344 15.848062 
L 183.203597 15.848062 
L 183.270445 13.052151 
L 183.333536 13.052151 
L 183.333536 12.492968 
L 183.445128 12.492968 
L 183.528349 11.374604 
L 183.666162 11.374604 
L 183.666162 10.815422 
L 184.066389 10.815422 
L 184.066389 10.256239 
L 185.119681 10.256239 
L 185.119681 9.697057 
L 333.168 9.697057 
L 333.168 9.697057 
" style="fill:none;stroke:#ffa500;stroke-linecap:square;stroke-width:1.5;"/>
   </g>
   <g id="line2d_47">
    <defs>
     <path d="M 0 -6 
L -1.347084 -1.854102 
L -5.706339 -1.854102 
L -2.179628 0.708204 
L -3.526712 4.854102 
L -0 2.291796 
L 3.526712 4.854102 
L 2.179628 0.708204 
L 5.706339 -1.854102 
L 1.347084 -1.854102 
z
" id="m1956340d5d" style="stroke:#ffa500;stroke-linejoin:bevel;stroke-width:1.5;"/>
    </defs>
    <g>
     <use style="fill-opacity:0;stroke:#ffa500;stroke-linejoin:bevel;stroke-width:1.5;" x="115.511269" xlink:href="#m1956340d5d" y="276.986168"/>
     <use style="fill-opacity:0;stroke:#ffa500;stroke-linejoin:bevel;stroke-width:1.5;" x="170.495773" xlink:href="#m1956340d5d" y="139.427337"/>
     <use style="fill-opacity:0;stroke:#ffa500;stroke-linejoin:bevel;stroke-width:1.5;" x="185.119681" xlink:href="#m1956340d5d" y="10.256239"/>
     <use style="fill-opacity:0;stroke:#ffa500;stroke-linejoin:bevel;stroke-width:1.5;" x="185.119681" xlink:href="#m1956340d5d" y="9.697057"/>
     <use style="fill-opacity:0;stroke:#ffa500;stroke-linejoin:bevel;stroke-width:1.5;" x="185.119681" xlink:href="#m1956340d5d" y="9.697057"/>
     <use style="fill-opacity:0;stroke:#ffa500;stroke-linejoin:bevel;stroke-width:1.5;" x="333.168" xlink:href="#m1956340d5d" y="9.697057"/>
    </g>
   </g>
   <g id="line2d_48">
    <path style="fill:none;stroke:#ffa500;stroke-linecap:square;stroke-width:1.5;"/>
    <g/>
   </g>
   <g id="line2d_49">
    <defs>
     <path d="M 0 1.5 
C 0.397805 1.5 0.77937 1.341951 1.06066 1.06066 
C 1.341951 0.77937 1.5 0.397805 1.5 0 
C 1.5 -0.397805 1.341951 -0.77937 1.06066 -1.06066 
C 0.77937 -1.341951 0.397805 -1.5 0 -1.5 
C -0.397805 -1.5 -0.77937 -1.341951 -1.06066 -1.06066 
C -1.341951 -0.77937 -1.5 -0.397805 -1.5 0 
C -1.5 0.397805 -1.341951 0.77937 -1.06066 1.06066 
C -0.77937 1.341951 -0.397805 1.5 0 1.5 
z
" id="ma2838a87cc" style="stroke:#6495ed;"/>
    </defs>
    <g>
     <use style="fill:#6495ed;stroke:#6495ed;" x="170.954746" xlink:href="#ma2838a87cc" y="9.697057"/>
     <use style="fill:#6495ed;stroke:#6495ed;" x="170.954746" xlink:href="#ma2838a87cc" y="9.697057"/>
    </g>
   </g>
   <g id="line2d_50">
    <path d="M 37.236359 294.88 
L 37.236359 289.84736 
L 49.15061 289.84736 
L 49.15061 289.288178 
L 56.12 289.288178 
L 56.12 283.137173 
L 64.900393 283.137173 
L 64.900393 280.900444 
L 68.034251 280.900444 
L 68.034251 278.663715 
L 70.68389 278.663715 
L 70.68389 275.867804 
L 72.979112 275.867804 
L 72.979112 274.190257 
L 75.003641 274.190257 
L 75.003641 270.275981 
L 79.948502 270.275981 
L 79.948502 269.716799 
L 81.324327 269.716799 
L 81.324327 269.157617 
L 83.784035 269.157617 
L 83.784035 267.48007 
L 88.728896 267.48007 
L 88.728896 263.565795 
L 95.115564 263.565795 
L 95.115564 263.006612 
L 96.807615 263.006612 
L 96.807615 261.329066 
L 101.067579 261.329066 
L 101.067579 260.769883 
L 104.819059 260.769883 
L 104.819059 258.533154 
L 108.451173 258.533154 
L 108.451173 255.737243 
L 112.122219 255.737243 
L 112.122219 255.178061 
L 113.999206 255.178061 
L 113.999206 252.941332 
L 116.045673 252.941332 
L 116.045673 250.145421 
L 119.09161 250.145421 
L 119.09161 249.586238 
L 129.308744 249.586238 
L 129.308744 247.908692 
L 129.470141 247.908692 
L 129.470141 247.34951 
L 129.70943 247.34951 
L 129.70943 245.671963 
L 130.483823 245.671963 
L 130.483823 243.994416 
L 130.932248 243.994416 
L 130.932248 242.876052 
L 132.073821 242.876052 
L 132.073821 241.198505 
L 136.060554 241.198505 
L 136.060554 240.639323 
L 136.810332 240.639323 
L 136.862657 238.961776 
L 136.966831 238.961776 
L 136.966831 237.843411 
L 137.87703 237.843411 
L 137.87703 236.725047 
L 138.694545 236.725047 
L 138.694545 236.165865 
L 139.020186 236.165865 
L 139.020186 235.606682 
L 139.474938 235.606682 
L 139.474938 234.488318 
L 140.00522 234.488318 
L 140.00522 233.929136 
L 140.392465 233.929136 
L 140.392465 231.692407 
L 141.781376 231.692407 
L 141.781376 230.01486 
L 142.015238 230.01486 
L 142.015238 229.455678 
L 142.207722 229.455678 
L 142.207722 228.337313 
L 143.391063 228.337313 
L 143.391063 227.778131 
L 143.568817 227.778131 
L 143.568817 225.541402 
L 143.849453 225.541402 
L 143.849453 224.423038 
L 143.988072 224.423038 
L 143.988072 223.304673 
L 144.531632 223.304673 
L 144.531632 221.067944 
L 145.881713 221.067944 
L 145.881713 220.508762 
L 146.309161 220.508762 
L 146.309161 218.831215 
L 146.518964 218.831215 
L 146.548728 216.594486 
L 146.93104 216.594486 
L 146.93104 214.91694 
L 147.41849 214.91694 
L 147.41849 214.357757 
L 147.671062 214.357757 
L 147.671062 213.798575 
L 147.809793 213.798575 
L 147.809793 213.239393 
L 148.380535 213.239393 
L 148.380535 202.61493 
L 148.803011 202.61493 
L 148.803011 202.055748 
L 149.938403 202.055748 
L 149.938403 200.937384 
L 150.538207 200.937384 
L 150.538207 200.378201 
L 151.299196 200.378201 
L 151.299196 199.819019 
L 151.722528 199.819019 
L 151.722528 198.700655 
L 152.706225 198.700655 
L 152.706225 198.141472 
L 152.97432 198.141472 
L 152.97432 197.58229 
L 153.378777 197.58229 
L 153.458539 195.904743 
L 153.910122 195.904743 
L 153.968159 193.668014 
L 154.121973 193.668014 
L 154.121973 193.108832 
L 154.312326 193.108832 
L 154.331245 190.312921 
L 154.871052 190.312921 
L 154.871052 187.51701 
L 155.017028 187.51701 
L 155.017028 174.655818 
L 155.358833 174.655818 
L 155.358833 174.096636 
L 156.039833 174.096636 
L 156.091117 172.419089 
L 156.210188 172.419089 
L 156.210188 171.859907 
L 156.429154 171.859907 
L 156.429154 171.300725 
L 156.562529 171.300725 
L 156.645366 167.945631 
L 157.118104 167.945631 
L 157.118104 160.676262 
L 157.420925 160.676262 
L 157.420925 159.557898 
L 157.702969 159.557898 
L 157.7805 157.321169 
L 157.903827 157.321169 
L 157.903827 156.761987 
L 158.087174 156.761987 
L 158.087174 151.170164 
L 158.253541 151.170164 
L 158.253541 150.610982 
L 158.596282 150.610982 
L 158.625765 149.492617 
L 158.80161 149.492617 
L 158.87435 138.308973 
L 159.033305 138.308973 
L 159.033305 136.631426 
L 159.219284 136.631426 
L 159.219284 132.71715 
L 159.998191 132.71715 
L 159.998191 132.157968 
L 160.361486 132.157968 
L 160.361486 130.480421 
L 160.795333 130.480421 
L 160.89888 112.027407 
L 160.924669 112.027407 
L 160.988974 98.607033 
L 161.091363 98.607033 
L 161.091363 97.488669 
L 161.779251 97.488669 
L 161.877052 94.692758 
L 162.095093 94.692758 
L 162.167163 86.864206 
L 162.393411 86.864206 
L 162.393411 85.745842 
L 163.381799 85.745842 
L 163.470918 72.88465 
L 163.724588 72.88465 
L 163.724588 72.325468 
L 164.049935 72.325468 
L 164.157029 70.088739 
L 164.199681 70.088739 
L 164.199681 68.411192 
L 164.316431 68.411192 
L 164.316431 66.174463 
L 164.526692 66.174463 
L 164.526692 65.615281 
L 164.672359 65.615281 
L 164.734412 55.550001 
L 164.888571 55.550001 
L 164.990581 53.872454 
L 165.14247 53.872454 
L 165.182748 52.194907 
L 165.263022 52.194907 
L 165.263022 41.011263 
L 165.462082 41.011263 
L 165.481861 35.978622 
L 165.736948 35.978622 
L 165.736948 28.150071 
L 165.853416 28.150071 
L 165.911355 22.558249 
L 166.188675 22.558249 
L 166.217109 18.643973 
L 166.50821 18.643973 
L 166.50821 17.525609 
L 166.68422 17.525609 
L 166.702643 15.848062 
L 167.370773 15.848062 
L 167.370773 14.729697 
L 167.65184 14.729697 
L 167.65184 13.611333 
L 168.534808 13.611333 
L 168.534808 13.052151 
L 168.870806 13.052151 
L 168.870806 11.933786 
L 169.256002 11.933786 
L 169.256002 11.374604 
L 169.779633 11.374604 
L 169.779633 10.815422 
L 170.954746 10.815422 
L 170.954746 9.697057 
L 333.168 9.697057 
L 333.168 9.697057 
" style="fill:none;stroke:#6495ed;stroke-linecap:square;stroke-width:1.5;"/>
   </g>
   <g id="line2d_51">
    <defs>
     <path d="M -0 6 
L 6 -6 
L -6 -6 
z
" id="m6cc8f5b451" style="stroke:#6495ed;stroke-linejoin:miter;stroke-width:1.5;"/>
    </defs>
    <g>
     <use style="fill-opacity:0;stroke:#6495ed;stroke-linejoin:miter;stroke-width:1.5;" x="119.09161" xlink:href="#m6cc8f5b451" y="250.145421"/>
     <use style="fill-opacity:0;stroke:#6495ed;stroke-linejoin:miter;stroke-width:1.5;" x="157.903827" xlink:href="#m6cc8f5b451" y="156.761987"/>
     <use style="fill-opacity:0;stroke:#6495ed;stroke-linejoin:miter;stroke-width:1.5;" x="170.954746" xlink:href="#m6cc8f5b451" y="10.815422"/>
     <use style="fill-opacity:0;stroke:#6495ed;stroke-linejoin:miter;stroke-width:1.5;" x="170.954746" xlink:href="#m6cc8f5b451" y="9.697057"/>
     <use style="fill-opacity:0;stroke:#6495ed;stroke-linejoin:miter;stroke-width:1.5;" x="170.954746" xlink:href="#m6cc8f5b451" y="9.697057"/>
     <use style="fill-opacity:0;stroke:#6495ed;stroke-linejoin:miter;stroke-width:1.5;" x="333.168" xlink:href="#m6cc8f5b451" y="9.697057"/>
    </g>
   </g>
   <g id="line2d_52">
    <path style="fill:none;stroke:#6495ed;stroke-linecap:square;stroke-width:1.5;"/>
    <g/>
   </g>
   <g id="line2d_53">
    <path d="M 333.168 9.697057 
L 363.64328 289.176341 
" style="fill:none;stroke:#ff00ff;stroke-linecap:square;stroke-width:1.5;"/>
    <g>
     <use style="fill-opacity:0;stroke:#ff00ff;stroke-linejoin:miter;stroke-width:1.5;" x="333.168" xlink:href="#m5a62465fa7" y="9.697057"/>
     <use style="fill-opacity:0;stroke:#ff00ff;stroke-linejoin:miter;stroke-width:1.5;" x="363.64328" xlink:href="#m5a62465fa7" y="289.176341"/>
    </g>
   </g>
   <g id="line2d_54">
    <path d="M 333.168 9.697057 
L 363.64328 197.917799 
" style="fill:none;stroke:#000080;stroke-linecap:square;stroke-width:1.5;"/>
    <g>
     <use style="fill-opacity:0;stroke:#000080;stroke-width:1.5;" x="333.168" xlink:href="#me587756919" y="9.697057"/>
     <use style="fill-opacity:0;stroke:#000080;stroke-width:1.5;" x="363.64328" xlink:href="#me587756919" y="197.917799"/>
    </g>
   </g>
   <g id="line2d_55">
    <path d="M 333.168 9.697057 
L 363.64328 106.659258 
" style="fill:none;stroke:#ffa500;stroke-linecap:square;stroke-width:1.5;"/>
    <g>
     <use style="fill-opacity:0;stroke:#ffa500;stroke-linejoin:bevel;stroke-width:1.5;" x="333.168" xlink:href="#m1956340d5d" y="9.697057"/>
     <use style="fill-opacity:0;stroke:#ffa500;stroke-linejoin:bevel;stroke-width:1.5;" x="363.64328" xlink:href="#m1956340d5d" y="106.659258"/>
    </g>
   </g>
   <g id="line2d_56">
    <path d="M 333.168 9.697057 
L 363.64328 15.400716 
" style="fill:none;stroke:#6495ed;stroke-linecap:square;stroke-width:1.5;"/>
    <g>
     <use style="fill-opacity:0;stroke:#6495ed;stroke-linejoin:miter;stroke-width:1.5;" x="333.168" xlink:href="#m6cc8f5b451" y="9.697057"/>
     <use style="fill-opacity:0;stroke:#6495ed;stroke-linejoin:miter;stroke-width:1.5;" x="363.64328" xlink:href="#m6cc8f5b451" y="15.400716"/>
    </g>
   </g>
   <g id="line2d_57">
    <path d="M 333.168 294.88 
L 333.168 9.697057 
" style="fill:none;stroke:#000000;stroke-linecap:square;stroke-width:1.5;"/>
   </g>
   <g id="patch_3">
    <path d="M 56.12 294.88 
L 56.12 6.845228 
" style="fill:none;stroke:#000000;stroke-linecap:square;stroke-linejoin:miter;stroke-width:0.8;"/>
   </g>
   <g id="patch_4">
    <path d="M 333.168 294.88 
L 333.168 6.845228 
" style="fill:none;stroke:#000000;stroke-linecap:square;stroke-linejoin:miter;stroke-width:0.8;"/>
   </g>
   <g id="patch_5">
    <path d="M 56.12 294.88 
L 333.168 294.88 
" style="fill:none;stroke:#000000;stroke-linecap:square;stroke-linejoin:miter;stroke-width:0.8;"/>
   </g>
   <g id="patch_6">
    <path d="M 56.12 6.845228 
L 333.168 6.845228 
" style="fill:none;stroke:#000000;stroke-linecap:square;stroke-linejoin:miter;stroke-width:0.8;"/>
   </g>
   <g id="text_13">
    <!-- f9 -->
    <defs>
     <path d="M 10.984375 1.515625 
L 10.984375 10.5 
Q 14.703125 8.734375 18.5 7.8125 
Q 22.3125 6.890625 25.984375 6.890625 
Q 35.75 6.890625 40.890625 13.453125 
Q 46.046875 20.015625 46.78125 33.40625 
Q 43.953125 29.203125 39.59375 26.953125 
Q 35.25 24.703125 29.984375 24.703125 
Q 19.046875 24.703125 12.671875 31.3125 
Q 6.296875 37.9375 6.296875 49.421875 
Q 6.296875 60.640625 12.9375 67.421875 
Q 19.578125 74.21875 30.609375 74.21875 
Q 43.265625 74.21875 49.921875 64.515625 
Q 56.59375 54.828125 56.59375 36.375 
Q 56.59375 19.140625 48.40625 8.859375 
Q 40.234375 -1.421875 26.421875 -1.421875 
Q 22.703125 -1.421875 18.890625 -0.6875 
Q 15.09375 0.046875 10.984375 1.515625 
z
M 30.609375 32.421875 
Q 37.25 32.421875 41.125 36.953125 
Q 45.015625 41.5 45.015625 49.421875 
Q 45.015625 57.28125 41.125 61.84375 
Q 37.25 66.40625 30.609375 66.40625 
Q 23.96875 66.40625 20.09375 61.84375 
Q 16.21875 57.28125 16.21875 49.421875 
Q 16.21875 41.5 20.09375 36.953125 
Q 23.96875 32.421875 30.609375 32.421875 
z
" id="DejaVuSans-39"/>
    </defs>
    <g transform="translate(369.18424 293.867279)scale(0.17 -0.17)">
     <use xlink:href="#DejaVuSans-66"/>
     <use x="35.205078" xlink:href="#DejaVuSans-39"/>
    </g>
   </g>
   <g id="text_14">
    <!-- f8 -->
    <g transform="translate(369.18424 202.608737)scale(0.17 -0.17)">
     <use xlink:href="#DejaVuSans-66"/>
     <use x="35.205078" xlink:href="#DejaVuSans-38"/>
    </g>
   </g>
   <g id="text_15">
    <!-- f6 -->
    <g transform="translate(369.18424 111.350195)scale(0.17 -0.17)">
     <use xlink:href="#DejaVuSans-66"/>
     <use x="35.205078" xlink:href="#DejaVuSans-36"/>
    </g>
   </g>
   <g id="text_16">
    <!-- f7 -->
    <defs>
     <path d="M 8.203125 72.90625 
L 55.078125 72.90625 
L 55.078125 68.703125 
L 28.609375 0 
L 18.3125 0 
L 43.21875 64.59375 
L 8.203125 64.59375 
z
" id="DejaVuSans-37"/>
    </defs>
    <g transform="translate(369.18424 20.091654)scale(0.17 -0.17)">
     <use xlink:href="#DejaVuSans-66"/>
     <use x="35.205078" xlink:href="#DejaVuSans-37"/>
    </g>
   </g>
   <g id="text_17">
    <!-- bbob -->
    <defs>
     <path d="M 48.6875 27.296875 
Q 48.6875 37.203125 44.609375 42.84375 
Q 40.53125 48.484375 33.40625 48.484375 
Q 26.265625 48.484375 22.1875 42.84375 
Q 18.109375 37.203125 18.109375 27.296875 
Q 18.109375 17.390625 22.1875 11.75 
Q 26.265625 6.109375 33.40625 6.109375 
Q 40.53125 6.109375 44.609375 11.75 
Q 48.6875 17.390625 48.6875 27.296875 
z
M 18.109375 46.390625 
Q 20.953125 51.265625 25.265625 53.625 
Q 29.59375 56 35.59375 56 
Q 45.5625 56 51.78125 48.09375 
Q 58.015625 40.1875 58.015625 27.296875 
Q 58.015625 14.40625 51.78125 6.484375 
Q 45.5625 -1.421875 35.59375 -1.421875 
Q 29.59375 -1.421875 25.265625 0.953125 
Q 20.953125 3.328125 18.109375 8.203125 
L 18.109375 0 
L 9.078125 0 
L 9.078125 75.984375 
L 18.109375 75.984375 
z
" id="DejaVuSans-62"/>
    </defs>
    <g transform="translate(58.89048 17.475982)scale(0.102 -0.102)">
     <use xlink:href="#DejaVuSans-62"/>
     <use x="63.476562" xlink:href="#DejaVuSans-62"/>
     <use x="126.953125" xlink:href="#DejaVuSans-6f"/>
     <use x="188.134766" xlink:href="#DejaVuSans-62"/>
    </g>
    <!-- Misc. moderate functions, 3-D -->
    <defs>
     <path d="M 9.8125 72.90625 
L 24.515625 72.90625 
L 43.109375 23.296875 
L 61.8125 72.90625 
L 76.515625 72.90625 
L 76.515625 0 
L 66.890625 0 
L 66.890625 64.015625 
L 48.09375 14.015625 
L 38.1875 14.015625 
L 19.390625 64.015625 
L 19.390625 0 
L 9.8125 0 
z
" id="DejaVuSans-4d"/>
     <path d="M 40.578125 39.3125 
Q 47.65625 37.796875 51.625 33 
Q 55.609375 28.21875 55.609375 21.1875 
Q 55.609375 10.40625 48.1875 4.484375 
Q 40.765625 -1.421875 27.09375 -1.421875 
Q 22.515625 -1.421875 17.65625 -0.515625 
Q 12.796875 0.390625 7.625 2.203125 
L 7.625 11.71875 
Q 11.71875 9.328125 16.59375 8.109375 
Q 21.484375 6.890625 26.8125 6.890625 
Q 36.078125 6.890625 40.9375 10.546875 
Q 45.796875 14.203125 45.796875 21.1875 
Q 45.796875 27.640625 41.28125 31.265625 
Q 36.765625 34.90625 28.71875 34.90625 
L 20.21875 34.90625 
L 20.21875 43.015625 
L 29.109375 43.015625 
Q 36.375 43.015625 40.234375 45.921875 
Q 44.09375 48.828125 44.09375 54.296875 
Q 44.09375 59.90625 40.109375 62.90625 
Q 36.140625 65.921875 28.71875 65.921875 
Q 24.65625 65.921875 20.015625 65.03125 
Q 15.375 64.15625 9.8125 62.3125 
L 9.8125 71.09375 
Q 15.4375 72.65625 20.34375 73.4375 
Q 25.25 74.21875 29.59375 74.21875 
Q 40.828125 74.21875 47.359375 69.109375 
Q 53.90625 64.015625 53.90625 55.328125 
Q 53.90625 49.265625 50.4375 45.09375 
Q 46.96875 40.921875 40.578125 39.3125 
z
" id="DejaVuSans-33"/>
     <path d="M 19.671875 64.796875 
L 19.671875 8.109375 
L 31.59375 8.109375 
Q 46.6875 8.109375 53.6875 14.9375 
Q 60.6875 21.78125 60.6875 36.53125 
Q 60.6875 51.171875 53.6875 57.984375 
Q 46.6875 64.796875 31.59375 64.796875 
z
M 9.8125 72.90625 
L 30.078125 72.90625 
Q 51.265625 72.90625 61.171875 64.09375 
Q 71.09375 55.28125 71.09375 36.53125 
Q 71.09375 17.671875 61.125 8.828125 
Q 51.171875 0 30.078125 0 
L 9.8125 0 
z
" id="DejaVuSans-44"/>
    </defs>
    <g transform="translate(58.89048 28.89775)scale(0.102 -0.102)">
     <use xlink:href="#DejaVuSans-4d"/>
     <use x="86.279297" xlink:href="#DejaVuSans-69"/>
     <use x="114.0625" xlink:href="#DejaVuSans-73"/>
     <use x="166.162109" xlink:href="#DejaVuSans-63"/>
     <use x="221.142578" xlink:href="#DejaVuSans-2e"/>
     <use x="252.929688" xlink:href="#DejaVuSans-20"/>
     <use x="284.716797" xlink:href="#DejaVuSans-6d"/>
     <use x="382.128906" xlink:href="#DejaVuSans-6f"/>
     <use x="443.310547" xlink:href="#DejaVuSans-64"/>
     <use x="506.787109" xlink:href="#DejaVuSans-65"/>
     <use x="568.310547" xlink:href="#DejaVuSans-72"/>
     <use x="609.423828" xlink:href="#DejaVuSans-61"/>
     <use x="670.703125" xlink:href="#DejaVuSans-74"/>
     <use x="709.912109" xlink:href="#DejaVuSans-65"/>
     <use x="771.435547" xlink:href="#DejaVuSans-20"/>
     <use x="803.222656" xlink:href="#DejaVuSans-66"/>
     <use x="838.427734" xlink:href="#DejaVuSans-75"/>
     <use x="901.806641" xlink:href="#DejaVuSans-6e"/>
     <use x="965.185547" xlink:href="#DejaVuSans-63"/>
     <use x="1020.166016" xlink:href="#DejaVuSans-74"/>
     <use x="1059.375" xlink:href="#DejaVuSans-69"/>
     <use x="1087.158203" xlink:href="#DejaVuSans-6f"/>
     <use x="1148.339844" xlink:href="#DejaVuSans-6e"/>
     <use x="1211.71875" xlink:href="#DejaVuSans-73"/>
     <use x="1263.818359" xlink:href="#DejaVuSans-2c"/>
     <use x="1295.605469" xlink:href="#DejaVuSans-20"/>
     <use x="1327.392578" xlink:href="#DejaVuSans-33"/>
     <use x="1391.015625" xlink:href="#DejaVuSans-2d"/>
     <use x="1427.099609" xlink:href="#DejaVuSans-44"/>
    </g>
    <!-- 51 targets: 100..1e-08 -->
    <defs>
     <path d="M 10.796875 72.90625 
L 49.515625 72.90625 
L 49.515625 64.59375 
L 19.828125 64.59375 
L 19.828125 46.734375 
Q 21.96875 47.46875 24.109375 47.828125 
Q 26.265625 48.1875 28.421875 48.1875 
Q 40.625 48.1875 47.75 41.5 
Q 54.890625 34.8125 54.890625 23.390625 
Q 54.890625 11.625 47.5625 5.09375 
Q 40.234375 -1.421875 26.90625 -1.421875 
Q 22.3125 -1.421875 17.546875 -0.640625 
Q 12.796875 0.140625 7.71875 1.703125 
L 7.71875 11.625 
Q 12.109375 9.234375 16.796875 8.0625 
Q 21.484375 6.890625 26.703125 6.890625 
Q 35.15625 6.890625 40.078125 11.328125 
Q 45.015625 15.765625 45.015625 23.390625 
Q 45.015625 31 40.078125 35.4375 
Q 35.15625 39.890625 26.703125 39.890625 
Q 22.75 39.890625 18.8125 39.015625 
Q 14.890625 38.140625 10.796875 36.28125 
z
" id="DejaVuSans-35"/>
     <path d="M 11.71875 12.40625 
L 22.015625 12.40625 
L 22.015625 0 
L 11.71875 0 
z
M 11.71875 51.703125 
L 22.015625 51.703125 
L 22.015625 39.3125 
L 11.71875 39.3125 
z
" id="DejaVuSans-3a"/>
    </defs>
    <g transform="translate(58.89048 40.319519)scale(0.102 -0.102)">
     <use xlink:href="#DejaVuSans-35"/>
     <use x="63.623047" xlink:href="#DejaVuSans-31"/>
     <use x="127.246094" xlink:href="#DejaVuSans-20"/>
     <use x="159.033203" xlink:href="#DejaVuSans-74"/>
     <use x="198.242188" xlink:href="#DejaVuSans-61"/>
     <use x="259.521484" xlink:href="#DejaVuSans-72"/>
     <use x="300.619141" xlink:href="#DejaVuSans-67"/>
     <use x="364.095703" xlink:href="#DejaVuSans-65"/>
     <use x="425.619141" xlink:href="#DejaVuSans-74"/>
     <use x="464.828125" xlink:href="#DejaVuSans-73"/>
     <use x="516.927734" xlink:href="#DejaVuSans-3a"/>
     <use x="550.619141" xlink:href="#DejaVuSans-20"/>
     <use x="582.40625" xlink:href="#DejaVuSans-31"/>
     <use x="646.029297" xlink:href="#DejaVuSans-30"/>
     <use x="709.652344" xlink:href="#DejaVuSans-30"/>
     <use x="773.275391" xlink:href="#DejaVuSans-2e"/>
     <use x="805.0625" xlink:href="#DejaVuSans-2e"/>
     <use x="836.849609" xlink:href="#DejaVuSans-31"/>
     <use x="900.472656" xlink:href="#DejaVuSans-65"/>
     <use x="961.996094" xlink:href="#DejaVuSans-2d"/>
     <use x="998.080078" xlink:href="#DejaVuSans-30"/>
     <use x="1061.703125" xlink:href="#DejaVuSans-38"/>
    </g>
    <!-- 15 instances -->
    <g transform="translate(58.89048 51.741288)scale(0.102 -0.102)">
     <use xlink:href="#DejaVuSans-31"/>
     <use x="63.623047" xlink:href="#DejaVuSans-35"/>
     <use x="127.246094" xlink:href="#DejaVuSans-20"/>
     <use x="159.033203" xlink:href="#DejaVuSans-69"/>
     <use x="186.816406" xlink:href="#DejaVuSans-6e"/>
     <use x="250.195312" xlink:href="#DejaVuSans-73"/>
     <use x="302.294922" xlink:href="#DejaVuSans-74"/>
     <use x="341.503906" xlink:href="#DejaVuSans-61"/>
     <use x="402.783203" xlink:href="#DejaVuSans-6e"/>
     <use x="466.162109" xlink:href="#DejaVuSans-63"/>
     <use x="521.142578" xlink:href="#DejaVuSans-65"/>
     <use x="582.666016" xlink:href="#DejaVuSans-73"/>
    </g>
   </g>
   <g id="text_18">
    <!-- v0.0.0 -->
    <g style="fill:#808080;" transform="translate(178.96275 289.919965)scale(0.1 -0.1)">
     <use xlink:href="#DejaVuSans-76"/>
     <use x="59.179688" xlink:href="#DejaVuSans-30"/>
     <use x="122.802734" xlink:href="#DejaVuSans-2e"/>
     <use x="154.589844" xlink:href="#DejaVuSans-30"/>
     <use x="218.212891" xlink:href="#DejaVuSans-2e"/>
     <use x="250" xlink:href="#DejaVuSans-30"/>
    </g>
   </g>
  </g>
 </g>
 <defs>
  <clipPath id="pc3f4774222">
   <rect height="288.034772" width="277.048" x="56.12" y="6.845228"/>
  </clipPath>
 </defs>
</svg>
