<?xml version="1.0" encoding="utf-8" standalone="no"?>
<!DOCTYPE svg PUBLIC "-//W3C//DTD SVG 1.1//EN"
  "http://www.w3.org/Graphics/SVG/1.1/DTD/svg11.dtd">
<!-- Created with matplotlib (http://matplotlib.org/) -->
<svg height="345.6pt" version="1.1" viewBox="0 0 460.8 345.6" width="460.8pt" xmlns="http://www.w3.org/2000/svg" xmlns:xlink="http://www.w3.org/1999/xlink">
 <defs>
  <style type="text/css">
*{stroke-linecap:butt;stroke-linejoin:round;}
  </style>
 </defs>
 <g id="figure_1">
  <g id="patch_1">
   <path d="M 0 345.6 
L 460.8 345.6 
L 460.8 0 
L 0 0 
z
" style="fill:#ffffff;"/>
  </g>
  <g id="axes_1">
   <g id="patch_2">
    <path d="M 56.12 294.88 
L 333.168 294.88 
L 333.168 24.84 
L 56.12 24.84 
z
" style="fill:#ffffff;"/>
   </g>
   <g id="matplotlib.axis_1">
    <g id="xtick_1">
     <g id="line2d_1">
      <path clip-path="url(#p154669f805)" d="M 56.12 294.88 
L 56.12 24.84 
" style="fill:none;stroke:#b0b0b0;stroke-linecap:square;stroke-width:0.8;"/>
     </g>
     <g id="line2d_2">
      <defs>
       <path d="M 0 0 
L 0 3.5 
" id="m85385bb53b" style="stroke:#000000;stroke-width:0.8;"/>
      </defs>
      <g>
       <use style="stroke:#000000;stroke-width:0.8;" x="56.12" xlink:href="#m85385bb53b" y="294.88"/>
      </g>
     </g>
     <g id="text_1">
      <!-- 0 -->
      <defs>
       <path d="M 31.78125 66.40625 
Q 24.171875 66.40625 20.328125 58.90625 
Q 16.5 51.421875 16.5 36.375 
Q 16.5 21.390625 20.328125 13.890625 
Q 24.171875 6.390625 31.78125 6.390625 
Q 39.453125 6.390625 43.28125 13.890625 
Q 47.125 21.390625 47.125 36.375 
Q 47.125 51.421875 43.28125 58.90625 
Q 39.453125 66.40625 31.78125 66.40625 
z
M 31.78125 74.21875 
Q 44.046875 74.21875 50.515625 64.515625 
Q 56.984375 54.828125 56.984375 36.375 
Q 56.984375 17.96875 50.515625 8.265625 
Q 44.046875 -1.421875 31.78125 -1.421875 
Q 19.53125 -1.421875 13.0625 8.265625 
Q 6.59375 17.96875 6.59375 36.375 
Q 6.59375 54.828125 13.0625 64.515625 
Q 19.53125 74.21875 31.78125 74.21875 
z
" id="DejaVuSans-30"/>
      </defs>
      <g transform="translate(49.7575 317.076875)scale(0.2 -0.2)">
       <use xlink:href="#DejaVuSans-30"/>
      </g>
     </g>
    </g>
    <g id="xtick_2">
     <g id="line2d_3">
      <path clip-path="url(#p154669f805)" d="M 135.276571 294.88 
L 135.276571 24.84 
" style="fill:none;stroke:#b0b0b0;stroke-linecap:square;stroke-width:0.8;"/>
     </g>
     <g id="line2d_4">
      <g>
       <use style="stroke:#000000;stroke-width:0.8;" x="135.276571" xlink:href="#m85385bb53b" y="294.88"/>
      </g>
     </g>
     <g id="text_2">
      <!-- 2 -->
      <defs>
       <path d="M 19.1875 8.296875 
L 53.609375 8.296875 
L 53.609375 0 
L 7.328125 0 
L 7.328125 8.296875 
Q 12.9375 14.109375 22.625 23.890625 
Q 32.328125 33.6875 34.8125 36.53125 
Q 39.546875 41.84375 41.421875 45.53125 
Q 43.3125 49.21875 43.3125 52.78125 
Q 43.3125 58.59375 39.234375 62.25 
Q 35.15625 65.921875 28.609375 65.921875 
Q 23.96875 65.921875 18.8125 64.3125 
Q 13.671875 62.703125 7.8125 59.421875 
L 7.8125 69.390625 
Q 13.765625 71.78125 18.9375 73 
Q 24.125 74.21875 28.421875 74.21875 
Q 39.75 74.21875 46.484375 68.546875 
Q 53.21875 62.890625 53.21875 53.421875 
Q 53.21875 48.921875 51.53125 44.890625 
Q 49.859375 40.875 45.40625 35.40625 
Q 44.1875 33.984375 37.640625 27.21875 
Q 31.109375 20.453125 19.1875 8.296875 
z
" id="DejaVuSans-32"/>
      </defs>
      <g transform="translate(128.914071 317.076875)scale(0.2 -0.2)">
       <use xlink:href="#DejaVuSans-32"/>
      </g>
     </g>
    </g>
    <g id="xtick_3">
     <g id="line2d_5">
      <path clip-path="url(#p154669f805)" d="M 214.433143 294.88 
L 214.433143 24.84 
" style="fill:none;stroke:#b0b0b0;stroke-linecap:square;stroke-width:0.8;"/>
     </g>
     <g id="line2d_6">
      <g>
       <use style="stroke:#000000;stroke-width:0.8;" x="214.433143" xlink:href="#m85385bb53b" y="294.88"/>
      </g>
     </g>
     <g id="text_3">
      <!-- 4 -->
      <defs>
       <path d="M 37.796875 64.3125 
L 12.890625 25.390625 
L 37.796875 25.390625 
z
M 35.203125 72.90625 
L 47.609375 72.90625 
L 47.609375 25.390625 
L 58.015625 25.390625 
L 58.015625 17.1875 
L 47.609375 17.1875 
L 47.609375 0 
L 37.796875 0 
L 37.796875 17.1875 
L 4.890625 17.1875 
L 4.890625 26.703125 
z
" id="DejaVuSans-34"/>
      </defs>
      <g transform="translate(208.070643 317.076875)scale(0.2 -0.2)">
       <use xlink:href="#DejaVuSans-34"/>
      </g>
     </g>
    </g>
    <g id="xtick_4">
     <g id="line2d_7">
      <path clip-path="url(#p154669f805)" d="M 293.589714 294.88 
L 293.589714 24.84 
" style="fill:none;stroke:#b0b0b0;stroke-linecap:square;stroke-width:0.8;"/>
     </g>
     <g id="line2d_8">
      <g>
       <use style="stroke:#000000;stroke-width:0.8;" x="293.589714" xlink:href="#m85385bb53b" y="294.88"/>
      </g>
     </g>
     <g id="text_4">
      <!-- 6 -->
      <defs>
       <path d="M 33.015625 40.375 
Q 26.375 40.375 22.484375 35.828125 
Q 18.609375 31.296875 18.609375 23.390625 
Q 18.609375 15.53125 22.484375 10.953125 
Q 26.375 6.390625 33.015625 6.390625 
Q 39.65625 6.390625 43.53125 10.953125 
Q 47.40625 15.53125 47.40625 23.390625 
Q 47.40625 31.296875 43.53125 35.828125 
Q 39.65625 40.375 33.015625 40.375 
z
M 52.59375 71.296875 
L 52.59375 62.3125 
Q 48.875 64.0625 45.09375 64.984375 
Q 41.3125 65.921875 37.59375 65.921875 
Q 27.828125 65.921875 22.671875 59.328125 
Q 17.53125 52.734375 16.796875 39.40625 
Q 19.671875 43.65625 24.015625 45.921875 
Q 28.375 48.1875 33.59375 48.1875 
Q 44.578125 48.1875 50.953125 41.515625 
Q 57.328125 34.859375 57.328125 23.390625 
Q 57.328125 12.15625 50.6875 5.359375 
Q 44.046875 -1.421875 33.015625 -1.421875 
Q 20.359375 -1.421875 13.671875 8.265625 
Q 6.984375 17.96875 6.984375 36.375 
Q 6.984375 53.65625 15.1875 63.9375 
Q 23.390625 74.21875 37.203125 74.21875 
Q 40.921875 74.21875 44.703125 73.484375 
Q 48.484375 72.75 52.59375 71.296875 
z
" id="DejaVuSans-36"/>
      </defs>
      <g transform="translate(287.227214 317.076875)scale(0.2 -0.2)">
       <use xlink:href="#DejaVuSans-36"/>
      </g>
     </g>
    </g>
    <g id="xtick_5">
     <g id="line2d_9">
      <path clip-path="url(#p154669f805)" d="M 56.12 294.88 
L 56.12 24.84 
" style="fill:none;stroke:#b0b0b0;stroke-linecap:square;stroke-width:0.8;"/>
     </g>
     <g id="line2d_10">
      <defs>
       <path d="M 0 0 
L 0 2 
" id="m0b984b2a8c" style="stroke:#000000;stroke-width:0.6;"/>
      </defs>
      <g>
       <use style="stroke:#000000;stroke-width:0.6;" x="56.12" xlink:href="#m0b984b2a8c" y="294.88"/>
      </g>
     </g>
    </g>
    <g id="xtick_6">
     <g id="line2d_11">
      <path clip-path="url(#p154669f805)" d="M 95.698286 294.88 
L 95.698286 24.84 
" style="fill:none;stroke:#b0b0b0;stroke-linecap:square;stroke-width:0.8;"/>
     </g>
     <g id="line2d_12">
      <g>
       <use style="stroke:#000000;stroke-width:0.6;" x="95.698286" xlink:href="#m0b984b2a8c" y="294.88"/>
      </g>
     </g>
    </g>
    <g id="xtick_7">
     <g id="line2d_13">
      <path clip-path="url(#p154669f805)" d="M 135.276571 294.88 
L 135.276571 24.84 
" style="fill:none;stroke:#b0b0b0;stroke-linecap:square;stroke-width:0.8;"/>
     </g>
     <g id="line2d_14">
      <g>
       <use style="stroke:#000000;stroke-width:0.6;" x="135.276571" xlink:href="#m0b984b2a8c" y="294.88"/>
      </g>
     </g>
    </g>
    <g id="xtick_8">
     <g id="line2d_15">
      <path clip-path="url(#p154669f805)" d="M 174.854857 294.88 
L 174.854857 24.84 
" style="fill:none;stroke:#b0b0b0;stroke-linecap:square;stroke-width:0.8;"/>
     </g>
     <g id="line2d_16">
      <g>
       <use style="stroke:#000000;stroke-width:0.6;" x="174.854857" xlink:href="#m0b984b2a8c" y="294.88"/>
      </g>
     </g>
    </g>
    <g id="xtick_9">
     <g id="line2d_17">
      <path clip-path="url(#p154669f805)" d="M 214.433143 294.88 
L 214.433143 24.84 
" style="fill:none;stroke:#b0b0b0;stroke-linecap:square;stroke-width:0.8;"/>
     </g>
     <g id="line2d_18">
      <g>
       <use style="stroke:#000000;stroke-width:0.6;" x="214.433143" xlink:href="#m0b984b2a8c" y="294.88"/>
      </g>
     </g>
    </g>
    <g id="xtick_10">
     <g id="line2d_19">
      <path clip-path="url(#p154669f805)" d="M 254.011429 294.88 
L 254.011429 24.84 
" style="fill:none;stroke:#b0b0b0;stroke-linecap:square;stroke-width:0.8;"/>
     </g>
     <g id="line2d_20">
      <g>
       <use style="stroke:#000000;stroke-width:0.6;" x="254.011429" xlink:href="#m0b984b2a8c" y="294.88"/>
      </g>
     </g>
    </g>
    <g id="xtick_11">
     <g id="line2d_21">
      <path clip-path="url(#p154669f805)" d="M 293.589714 294.88 
L 293.589714 24.84 
" style="fill:none;stroke:#b0b0b0;stroke-linecap:square;stroke-width:0.8;"/>
     </g>
     <g id="line2d_22">
      <g>
       <use style="stroke:#000000;stroke-width:0.6;" x="293.589714" xlink:href="#m0b984b2a8c" y="294.88"/>
      </g>
     </g>
    </g>
    <g id="xtick_12">
     <g id="line2d_23">
      <path clip-path="url(#p154669f805)" d="M 333.168 294.88 
L 333.168 24.84 
" style="fill:none;stroke:#b0b0b0;stroke-linecap:square;stroke-width:0.8;"/>
     </g>
     <g id="line2d_24">
      <g>
       <use style="stroke:#000000;stroke-width:0.6;" x="333.168" xlink:href="#m0b984b2a8c" y="294.88"/>
      </g>
     </g>
    </g>
    <g id="text_5">
     <!-- log10(# f-evals / dimension) -->
     <defs>
      <path d="M 9.421875 75.984375 
L 18.40625 75.984375 
L 18.40625 0 
L 9.421875 0 
z
" id="DejaVuSans-6c"/>
      <path d="M 30.609375 48.390625 
Q 23.390625 48.390625 19.1875 42.75 
Q 14.984375 37.109375 14.984375 27.296875 
Q 14.984375 17.484375 19.15625 11.84375 
Q 23.34375 6.203125 30.609375 6.203125 
Q 37.796875 6.203125 41.984375 11.859375 
Q 46.1875 17.53125 46.1875 27.296875 
Q 46.1875 37.015625 41.984375 42.703125 
Q 37.796875 48.390625 30.609375 48.390625 
z
M 30.609375 56 
Q 42.328125 56 49.015625 48.375 
Q 55.71875 40.765625 55.71875 27.296875 
Q 55.71875 13.875 49.015625 6.21875 
Q 42.328125 -1.421875 30.609375 -1.421875 
Q 18.84375 -1.421875 12.171875 6.21875 
Q 5.515625 13.875 5.515625 27.296875 
Q 5.515625 40.765625 12.171875 48.375 
Q 18.84375 56 30.609375 56 
z
" id="DejaVuSans-6f"/>
      <path d="M 45.40625 27.984375 
Q 45.40625 37.75 41.375 43.109375 
Q 37.359375 48.484375 30.078125 48.484375 
Q 22.859375 48.484375 18.828125 43.109375 
Q 14.796875 37.75 14.796875 27.984375 
Q 14.796875 18.265625 18.828125 12.890625 
Q 22.859375 7.515625 30.078125 7.515625 
Q 37.359375 7.515625 41.375 12.890625 
Q 45.40625 18.265625 45.40625 27.984375 
z
M 54.390625 6.78125 
Q 54.390625 -7.171875 48.1875 -13.984375 
Q 42 -20.796875 29.203125 -20.796875 
Q 24.46875 -20.796875 20.265625 -20.09375 
Q 16.0625 -19.390625 12.109375 -17.921875 
L 12.109375 -9.1875 
Q 16.0625 -11.328125 19.921875 -12.34375 
Q 23.78125 -13.375 27.78125 -13.375 
Q 36.625 -13.375 41.015625 -8.765625 
Q 45.40625 -4.15625 45.40625 5.171875 
L 45.40625 9.625 
Q 42.625 4.78125 38.28125 2.390625 
Q 33.9375 0 27.875 0 
Q 17.828125 0 11.671875 7.65625 
Q 5.515625 15.328125 5.515625 27.984375 
Q 5.515625 40.671875 11.671875 48.328125 
Q 17.828125 56 27.875 56 
Q 33.9375 56 38.28125 53.609375 
Q 42.625 51.21875 45.40625 46.390625 
L 45.40625 54.6875 
L 54.390625 54.6875 
z
" id="DejaVuSans-67"/>
      <path d="M 12.40625 8.296875 
L 28.515625 8.296875 
L 28.515625 63.921875 
L 10.984375 60.40625 
L 10.984375 69.390625 
L 28.421875 72.90625 
L 38.28125 72.90625 
L 38.28125 8.296875 
L 54.390625 8.296875 
L 54.390625 0 
L 12.40625 0 
z
" id="DejaVuSans-31"/>
      <path d="M 31 75.875 
Q 24.46875 64.65625 21.28125 53.65625 
Q 18.109375 42.671875 18.109375 31.390625 
Q 18.109375 20.125 21.3125 9.0625 
Q 24.515625 -2 31 -13.1875 
L 23.1875 -13.1875 
Q 15.875 -1.703125 12.234375 9.375 
Q 8.59375 20.453125 8.59375 31.390625 
Q 8.59375 42.28125 12.203125 53.3125 
Q 15.828125 64.359375 23.1875 75.875 
z
" id="DejaVuSans-28"/>
      <path d="M 51.125 44 
L 36.921875 44 
L 32.8125 27.6875 
L 47.125 27.6875 
z
M 43.796875 71.78125 
L 38.71875 51.515625 
L 52.984375 51.515625 
L 58.109375 71.78125 
L 65.921875 71.78125 
L 60.890625 51.515625 
L 76.125 51.515625 
L 76.125 44 
L 58.984375 44 
L 54.984375 27.6875 
L 70.515625 27.6875 
L 70.515625 20.21875 
L 53.078125 20.21875 
L 48 0 
L 40.1875 0 
L 45.21875 20.21875 
L 30.90625 20.21875 
L 25.875 0 
L 18.015625 0 
L 23.09375 20.21875 
L 7.71875 20.21875 
L 7.71875 27.6875 
L 24.90625 27.6875 
L 29 44 
L 13.28125 44 
L 13.28125 51.515625 
L 30.90625 51.515625 
L 35.890625 71.78125 
z
" id="DejaVuSans-23"/>
      <path id="DejaVuSans-20"/>
      <path d="M 37.109375 75.984375 
L 37.109375 68.5 
L 28.515625 68.5 
Q 23.6875 68.5 21.796875 66.546875 
Q 19.921875 64.59375 19.921875 59.515625 
L 19.921875 54.6875 
L 34.71875 54.6875 
L 34.71875 47.703125 
L 19.921875 47.703125 
L 19.921875 0 
L 10.890625 0 
L 10.890625 47.703125 
L 2.296875 47.703125 
L 2.296875 54.6875 
L 10.890625 54.6875 
L 10.890625 58.5 
Q 10.890625 67.625 15.140625 71.796875 
Q 19.390625 75.984375 28.609375 75.984375 
z
" id="DejaVuSans-66"/>
      <path d="M 4.890625 31.390625 
L 31.203125 31.390625 
L 31.203125 23.390625 
L 4.890625 23.390625 
z
" id="DejaVuSans-2d"/>
      <path d="M 56.203125 29.59375 
L 56.203125 25.203125 
L 14.890625 25.203125 
Q 15.484375 15.921875 20.484375 11.0625 
Q 25.484375 6.203125 34.421875 6.203125 
Q 39.59375 6.203125 44.453125 7.46875 
Q 49.3125 8.734375 54.109375 11.28125 
L 54.109375 2.78125 
Q 49.265625 0.734375 44.1875 -0.34375 
Q 39.109375 -1.421875 33.890625 -1.421875 
Q 20.796875 -1.421875 13.15625 6.1875 
Q 5.515625 13.8125 5.515625 26.8125 
Q 5.515625 40.234375 12.765625 48.109375 
Q 20.015625 56 32.328125 56 
Q 43.359375 56 49.78125 48.890625 
Q 56.203125 41.796875 56.203125 29.59375 
z
M 47.21875 32.234375 
Q 47.125 39.59375 43.09375 43.984375 
Q 39.0625 48.390625 32.421875 48.390625 
Q 24.90625 48.390625 20.390625 44.140625 
Q 15.875 39.890625 15.1875 32.171875 
z
" id="DejaVuSans-65"/>
      <path d="M 2.984375 54.6875 
L 12.5 54.6875 
L 29.59375 8.796875 
L 46.6875 54.6875 
L 56.203125 54.6875 
L 35.6875 0 
L 23.484375 0 
z
" id="DejaVuSans-76"/>
      <path d="M 34.28125 27.484375 
Q 23.390625 27.484375 19.1875 25 
Q 14.984375 22.515625 14.984375 16.5 
Q 14.984375 11.71875 18.140625 8.90625 
Q 21.296875 6.109375 26.703125 6.109375 
Q 34.1875 6.109375 38.703125 11.40625 
Q 43.21875 16.703125 43.21875 25.484375 
L 43.21875 27.484375 
z
M 52.203125 31.203125 
L 52.203125 0 
L 43.21875 0 
L 43.21875 8.296875 
Q 40.140625 3.328125 35.546875 0.953125 
Q 30.953125 -1.421875 24.3125 -1.421875 
Q 15.921875 -1.421875 10.953125 3.296875 
Q 6 8.015625 6 15.921875 
Q 6 25.140625 12.171875 29.828125 
Q 18.359375 34.515625 30.609375 34.515625 
L 43.21875 34.515625 
L 43.21875 35.40625 
Q 43.21875 41.609375 39.140625 45 
Q 35.0625 48.390625 27.6875 48.390625 
Q 23 48.390625 18.546875 47.265625 
Q 14.109375 46.140625 10.015625 43.890625 
L 10.015625 52.203125 
Q 14.9375 54.109375 19.578125 55.046875 
Q 24.21875 56 28.609375 56 
Q 40.484375 56 46.34375 49.84375 
Q 52.203125 43.703125 52.203125 31.203125 
z
" id="DejaVuSans-61"/>
      <path d="M 44.28125 53.078125 
L 44.28125 44.578125 
Q 40.484375 46.53125 36.375 47.5 
Q 32.28125 48.484375 27.875 48.484375 
Q 21.1875 48.484375 17.84375 46.4375 
Q 14.5 44.390625 14.5 40.28125 
Q 14.5 37.15625 16.890625 35.375 
Q 19.28125 33.59375 26.515625 31.984375 
L 29.59375 31.296875 
Q 39.15625 29.25 43.1875 25.515625 
Q 47.21875 21.78125 47.21875 15.09375 
Q 47.21875 7.46875 41.1875 3.015625 
Q 35.15625 -1.421875 24.609375 -1.421875 
Q 20.21875 -1.421875 15.453125 -0.5625 
Q 10.6875 0.296875 5.421875 2 
L 5.421875 11.28125 
Q 10.40625 8.6875 15.234375 7.390625 
Q 20.0625 6.109375 24.8125 6.109375 
Q 31.15625 6.109375 34.5625 8.28125 
Q 37.984375 10.453125 37.984375 14.40625 
Q 37.984375 18.0625 35.515625 20.015625 
Q 33.0625 21.96875 24.703125 23.78125 
L 21.578125 24.515625 
Q 13.234375 26.265625 9.515625 29.90625 
Q 5.8125 33.546875 5.8125 39.890625 
Q 5.8125 47.609375 11.28125 51.796875 
Q 16.75 56 26.8125 56 
Q 31.78125 56 36.171875 55.265625 
Q 40.578125 54.546875 44.28125 53.078125 
z
" id="DejaVuSans-73"/>
      <path d="M 25.390625 72.90625 
L 33.6875 72.90625 
L 8.296875 -9.28125 
L 0 -9.28125 
z
" id="DejaVuSans-2f"/>
      <path d="M 45.40625 46.390625 
L 45.40625 75.984375 
L 54.390625 75.984375 
L 54.390625 0 
L 45.40625 0 
L 45.40625 8.203125 
Q 42.578125 3.328125 38.25 0.953125 
Q 33.9375 -1.421875 27.875 -1.421875 
Q 17.96875 -1.421875 11.734375 6.484375 
Q 5.515625 14.40625 5.515625 27.296875 
Q 5.515625 40.1875 11.734375 48.09375 
Q 17.96875 56 27.875 56 
Q 33.9375 56 38.25 53.625 
Q 42.578125 51.265625 45.40625 46.390625 
z
M 14.796875 27.296875 
Q 14.796875 17.390625 18.875 11.75 
Q 22.953125 6.109375 30.078125 6.109375 
Q 37.203125 6.109375 41.296875 11.75 
Q 45.40625 17.390625 45.40625 27.296875 
Q 45.40625 37.203125 41.296875 42.84375 
Q 37.203125 48.484375 30.078125 48.484375 
Q 22.953125 48.484375 18.875 42.84375 
Q 14.796875 37.203125 14.796875 27.296875 
z
" id="DejaVuSans-64"/>
      <path d="M 9.421875 54.6875 
L 18.40625 54.6875 
L 18.40625 0 
L 9.421875 0 
z
M 9.421875 75.984375 
L 18.40625 75.984375 
L 18.40625 64.59375 
L 9.421875 64.59375 
z
" id="DejaVuSans-69"/>
      <path d="M 52 44.1875 
Q 55.375 50.25 60.0625 53.125 
Q 64.75 56 71.09375 56 
Q 79.640625 56 84.28125 50.015625 
Q 88.921875 44.046875 88.921875 33.015625 
L 88.921875 0 
L 79.890625 0 
L 79.890625 32.71875 
Q 79.890625 40.578125 77.09375 44.375 
Q 74.3125 48.1875 68.609375 48.1875 
Q 61.625 48.1875 57.5625 43.546875 
Q 53.515625 38.921875 53.515625 30.90625 
L 53.515625 0 
L 44.484375 0 
L 44.484375 32.71875 
Q 44.484375 40.625 41.703125 44.40625 
Q 38.921875 48.1875 33.109375 48.1875 
Q 26.21875 48.1875 22.15625 43.53125 
Q 18.109375 38.875 18.109375 30.90625 
L 18.109375 0 
L 9.078125 0 
L 9.078125 54.6875 
L 18.109375 54.6875 
L 18.109375 46.1875 
Q 21.1875 51.21875 25.484375 53.609375 
Q 29.78125 56 35.6875 56 
Q 41.65625 56 45.828125 52.96875 
Q 50 49.953125 52 44.1875 
z
" id="DejaVuSans-6d"/>
      <path d="M 54.890625 33.015625 
L 54.890625 0 
L 45.90625 0 
L 45.90625 32.71875 
Q 45.90625 40.484375 42.875 44.328125 
Q 39.84375 48.1875 33.796875 48.1875 
Q 26.515625 48.1875 22.3125 43.546875 
Q 18.109375 38.921875 18.109375 30.90625 
L 18.109375 0 
L 9.078125 0 
L 9.078125 54.6875 
L 18.109375 54.6875 
L 18.109375 46.1875 
Q 21.34375 51.125 25.703125 53.5625 
Q 30.078125 56 35.796875 56 
Q 45.21875 56 50.046875 50.171875 
Q 54.890625 44.34375 54.890625 33.015625 
z
" id="DejaVuSans-6e"/>
      <path d="M 8.015625 75.875 
L 15.828125 75.875 
Q 23.140625 64.359375 26.78125 53.3125 
Q 30.421875 42.28125 30.421875 31.390625 
Q 30.421875 20.453125 26.78125 9.375 
Q 23.140625 -1.703125 15.828125 -13.1875 
L 8.015625 -13.1875 
Q 14.5 -2 17.703125 9.0625 
Q 20.90625 20.125 20.90625 31.390625 
Q 20.90625 42.671875 17.703125 53.65625 
Q 14.5 64.65625 8.015625 75.875 
z
" id="DejaVuSans-29"/>
     </defs>
     <g transform="translate(73.803219 338.153594)scale(0.17 -0.17)">
      <use xlink:href="#DejaVuSans-6c"/>
      <use x="27.783203" xlink:href="#DejaVuSans-6f"/>
      <use x="88.964844" xlink:href="#DejaVuSans-67"/>
      <use x="152.441406" xlink:href="#DejaVuSans-31"/>
      <use x="216.064453" xlink:href="#DejaVuSans-30"/>
      <use x="279.6875" xlink:href="#DejaVuSans-28"/>
      <use x="318.701172" xlink:href="#DejaVuSans-23"/>
      <use x="402.490234" xlink:href="#DejaVuSans-20"/>
      <use x="434.277344" xlink:href="#DejaVuSans-66"/>
      <use x="469.404297" xlink:href="#DejaVuSans-2d"/>
      <use x="505.488281" xlink:href="#DejaVuSans-65"/>
      <use x="567.011719" xlink:href="#DejaVuSans-76"/>
      <use x="626.191406" xlink:href="#DejaVuSans-61"/>
      <use x="687.470703" xlink:href="#DejaVuSans-6c"/>
      <use x="715.253906" xlink:href="#DejaVuSans-73"/>
      <use x="767.353516" xlink:href="#DejaVuSans-20"/>
      <use x="799.140625" xlink:href="#DejaVuSans-2f"/>
      <use x="832.832031" xlink:href="#DejaVuSans-20"/>
      <use x="864.619141" xlink:href="#DejaVuSans-64"/>
      <use x="928.095703" xlink:href="#DejaVuSans-69"/>
      <use x="955.878906" xlink:href="#DejaVuSans-6d"/>
      <use x="1053.291016" xlink:href="#DejaVuSans-65"/>
      <use x="1114.814453" xlink:href="#DejaVuSans-6e"/>
      <use x="1178.193359" xlink:href="#DejaVuSans-73"/>
      <use x="1230.292969" xlink:href="#DejaVuSans-69"/>
      <use x="1258.076172" xlink:href="#DejaVuSans-6f"/>
      <use x="1319.257812" xlink:href="#DejaVuSans-6e"/>
      <use x="1382.636719" xlink:href="#DejaVuSans-29"/>
     </g>
    </g>
   </g>
   <g id="matplotlib.axis_2">
    <g id="ytick_1">
     <g id="line2d_25">
      <path clip-path="url(#p154669f805)" d="M 56.12 294.88 
L 333.168 294.88 
" style="fill:none;stroke:#b0b0b0;stroke-linecap:square;stroke-width:0.8;"/>
     </g>
     <g id="line2d_26">
      <defs>
       <path d="M 0 0 
L -3.5 0 
" id="m8525514649" style="stroke:#000000;stroke-width:0.8;"/>
      </defs>
      <g>
       <use style="stroke:#000000;stroke-width:0.8;" x="56.12" xlink:href="#m8525514649" y="294.88"/>
      </g>
     </g>
     <g id="text_6">
      <!-- 0.0 -->
      <defs>
       <path d="M 10.6875 12.40625 
L 21 12.40625 
L 21 0 
L 10.6875 0 
z
" id="DejaVuSans-2e"/>
      </defs>
      <g transform="translate(23.675 300.95875)scale(0.16 -0.16)">
       <use xlink:href="#DejaVuSans-30"/>
       <use x="63.623047" xlink:href="#DejaVuSans-2e"/>
       <use x="95.410156" xlink:href="#DejaVuSans-30"/>
      </g>
     </g>
    </g>
    <g id="ytick_2">
     <g id="line2d_27">
      <path clip-path="url(#p154669f805)" d="M 56.12 241.406733 
L 333.168 241.406733 
" style="fill:none;stroke:#b0b0b0;stroke-linecap:square;stroke-width:0.8;"/>
     </g>
     <g id="line2d_28">
      <g>
       <use style="stroke:#000000;stroke-width:0.8;" x="56.12" xlink:href="#m8525514649" y="241.406733"/>
      </g>
     </g>
     <g id="text_7">
      <!-- 0.2 -->
      <g transform="translate(23.675 247.485483)scale(0.16 -0.16)">
       <use xlink:href="#DejaVuSans-30"/>
       <use x="63.623047" xlink:href="#DejaVuSans-2e"/>
       <use x="95.410156" xlink:href="#DejaVuSans-32"/>
      </g>
     </g>
    </g>
    <g id="ytick_3">
     <g id="line2d_29">
      <path clip-path="url(#p154669f805)" d="M 56.12 187.933465 
L 333.168 187.933465 
" style="fill:none;stroke:#b0b0b0;stroke-linecap:square;stroke-width:0.8;"/>
     </g>
     <g id="line2d_30">
      <g>
       <use style="stroke:#000000;stroke-width:0.8;" x="56.12" xlink:href="#m8525514649" y="187.933465"/>
      </g>
     </g>
     <g id="text_8">
      <!-- 0.4 -->
      <g transform="translate(23.675 194.012215)scale(0.16 -0.16)">
       <use xlink:href="#DejaVuSans-30"/>
       <use x="63.623047" xlink:href="#DejaVuSans-2e"/>
       <use x="95.410156" xlink:href="#DejaVuSans-34"/>
      </g>
     </g>
    </g>
    <g id="ytick_4">
     <g id="line2d_31">
      <path clip-path="url(#p154669f805)" d="M 56.12 134.460198 
L 333.168 134.460198 
" style="fill:none;stroke:#b0b0b0;stroke-linecap:square;stroke-width:0.8;"/>
     </g>
     <g id="line2d_32">
      <g>
       <use style="stroke:#000000;stroke-width:0.8;" x="56.12" xlink:href="#m8525514649" y="134.460198"/>
      </g>
     </g>
     <g id="text_9">
      <!-- 0.6 -->
      <g transform="translate(23.675 140.538948)scale(0.16 -0.16)">
       <use xlink:href="#DejaVuSans-30"/>
       <use x="63.623047" xlink:href="#DejaVuSans-2e"/>
       <use x="95.410156" xlink:href="#DejaVuSans-36"/>
      </g>
     </g>
    </g>
    <g id="ytick_5">
     <g id="line2d_33">
      <path clip-path="url(#p154669f805)" d="M 56.12 80.986931 
L 333.168 80.986931 
" style="fill:none;stroke:#b0b0b0;stroke-linecap:square;stroke-width:0.8;"/>
     </g>
     <g id="line2d_34">
      <g>
       <use style="stroke:#000000;stroke-width:0.8;" x="56.12" xlink:href="#m8525514649" y="80.986931"/>
      </g>
     </g>
     <g id="text_10">
      <!-- 0.8 -->
      <defs>
       <path d="M 31.78125 34.625 
Q 24.75 34.625 20.71875 30.859375 
Q 16.703125 27.09375 16.703125 20.515625 
Q 16.703125 13.921875 20.71875 10.15625 
Q 24.75 6.390625 31.78125 6.390625 
Q 38.8125 6.390625 42.859375 10.171875 
Q 46.921875 13.96875 46.921875 20.515625 
Q 46.921875 27.09375 42.890625 30.859375 
Q 38.875 34.625 31.78125 34.625 
z
M 21.921875 38.8125 
Q 15.578125 40.375 12.03125 44.71875 
Q 8.5 49.078125 8.5 55.328125 
Q 8.5 64.0625 14.71875 69.140625 
Q 20.953125 74.21875 31.78125 74.21875 
Q 42.671875 74.21875 48.875 69.140625 
Q 55.078125 64.0625 55.078125 55.328125 
Q 55.078125 49.078125 51.53125 44.71875 
Q 48 40.375 41.703125 38.8125 
Q 48.828125 37.15625 52.796875 32.3125 
Q 56.78125 27.484375 56.78125 20.515625 
Q 56.78125 9.90625 50.3125 4.234375 
Q 43.84375 -1.421875 31.78125 -1.421875 
Q 19.734375 -1.421875 13.25 4.234375 
Q 6.78125 9.90625 6.78125 20.515625 
Q 6.78125 27.484375 10.78125 32.3125 
Q 14.796875 37.15625 21.921875 38.8125 
z
M 18.3125 54.390625 
Q 18.3125 48.734375 21.84375 45.5625 
Q 25.390625 42.390625 31.78125 42.390625 
Q 38.140625 42.390625 41.71875 45.5625 
Q 45.3125 48.734375 45.3125 54.390625 
Q 45.3125 60.0625 41.71875 63.234375 
Q 38.140625 66.40625 31.78125 66.40625 
Q 25.390625 66.40625 21.84375 63.234375 
Q 18.3125 60.0625 18.3125 54.390625 
z
" id="DejaVuSans-38"/>
      </defs>
      <g transform="translate(23.675 87.065681)scale(0.16 -0.16)">
       <use xlink:href="#DejaVuSans-30"/>
       <use x="63.623047" xlink:href="#DejaVuSans-2e"/>
       <use x="95.410156" xlink:href="#DejaVuSans-38"/>
      </g>
     </g>
    </g>
    <g id="ytick_6">
     <g id="line2d_35">
      <path clip-path="url(#p154669f805)" d="M 56.12 27.513663 
L 333.168 27.513663 
" style="fill:none;stroke:#b0b0b0;stroke-linecap:square;stroke-width:0.8;"/>
     </g>
     <g id="line2d_36">
      <g>
       <use style="stroke:#000000;stroke-width:0.8;" x="56.12" xlink:href="#m8525514649" y="27.513663"/>
      </g>
     </g>
     <g id="text_11">
      <!-- 1.0 -->
      <g transform="translate(23.675 33.592413)scale(0.16 -0.16)">
       <use xlink:href="#DejaVuSans-31"/>
       <use x="63.623047" xlink:href="#DejaVuSans-2e"/>
       <use x="95.410156" xlink:href="#DejaVuSans-30"/>
      </g>
     </g>
    </g>
    <g id="text_12">
     <!-- Fraction of function,target pairs -->
     <defs>
      <path d="M 9.8125 72.90625 
L 51.703125 72.90625 
L 51.703125 64.59375 
L 19.671875 64.59375 
L 19.671875 43.109375 
L 48.578125 43.109375 
L 48.578125 34.8125 
L 19.671875 34.8125 
L 19.671875 0 
L 9.8125 0 
z
" id="DejaVuSans-46"/>
      <path d="M 41.109375 46.296875 
Q 39.59375 47.171875 37.8125 47.578125 
Q 36.03125 48 33.890625 48 
Q 26.265625 48 22.1875 43.046875 
Q 18.109375 38.09375 18.109375 28.8125 
L 18.109375 0 
L 9.078125 0 
L 9.078125 54.6875 
L 18.109375 54.6875 
L 18.109375 46.1875 
Q 20.953125 51.171875 25.484375 53.578125 
Q 30.03125 56 36.53125 56 
Q 37.453125 56 38.578125 55.875 
Q 39.703125 55.765625 41.0625 55.515625 
z
" id="DejaVuSans-72"/>
      <path d="M 48.78125 52.59375 
L 48.78125 44.1875 
Q 44.96875 46.296875 41.140625 47.34375 
Q 37.3125 48.390625 33.40625 48.390625 
Q 24.65625 48.390625 19.8125 42.84375 
Q 14.984375 37.3125 14.984375 27.296875 
Q 14.984375 17.28125 19.8125 11.734375 
Q 24.65625 6.203125 33.40625 6.203125 
Q 37.3125 6.203125 41.140625 7.25 
Q 44.96875 8.296875 48.78125 10.40625 
L 48.78125 2.09375 
Q 45.015625 0.34375 40.984375 -0.53125 
Q 36.96875 -1.421875 32.421875 -1.421875 
Q 20.0625 -1.421875 12.78125 6.34375 
Q 5.515625 14.109375 5.515625 27.296875 
Q 5.515625 40.671875 12.859375 48.328125 
Q 20.21875 56 33.015625 56 
Q 37.15625 56 41.109375 55.140625 
Q 45.0625 54.296875 48.78125 52.59375 
z
" id="DejaVuSans-63"/>
      <path d="M 18.3125 70.21875 
L 18.3125 54.6875 
L 36.8125 54.6875 
L 36.8125 47.703125 
L 18.3125 47.703125 
L 18.3125 18.015625 
Q 18.3125 11.328125 20.140625 9.421875 
Q 21.96875 7.515625 27.59375 7.515625 
L 36.8125 7.515625 
L 36.8125 0 
L 27.59375 0 
Q 17.1875 0 13.234375 3.875 
Q 9.28125 7.765625 9.28125 18.015625 
L 9.28125 47.703125 
L 2.6875 47.703125 
L 2.6875 54.6875 
L 9.28125 54.6875 
L 9.28125 70.21875 
z
" id="DejaVuSans-74"/>
      <path d="M 8.5 21.578125 
L 8.5 54.6875 
L 17.484375 54.6875 
L 17.484375 21.921875 
Q 17.484375 14.15625 20.5 10.265625 
Q 23.53125 6.390625 29.59375 6.390625 
Q 36.859375 6.390625 41.078125 11.03125 
Q 45.3125 15.671875 45.3125 23.6875 
L 45.3125 54.6875 
L 54.296875 54.6875 
L 54.296875 0 
L 45.3125 0 
L 45.3125 8.40625 
Q 42.046875 3.421875 37.71875 1 
Q 33.40625 -1.421875 27.6875 -1.421875 
Q 18.265625 -1.421875 13.375 4.4375 
Q 8.5 10.296875 8.5 21.578125 
z
M 31.109375 56 
z
" id="DejaVuSans-75"/>
      <path d="M 11.71875 12.40625 
L 22.015625 12.40625 
L 22.015625 4 
L 14.015625 -11.625 
L 7.71875 -11.625 
L 11.71875 4 
z
" id="DejaVuSans-2c"/>
      <path d="M 18.109375 8.203125 
L 18.109375 -20.796875 
L 9.078125 -20.796875 
L 9.078125 54.6875 
L 18.109375 54.6875 
L 18.109375 46.390625 
Q 20.953125 51.265625 25.265625 53.625 
Q 29.59375 56 35.59375 56 
Q 45.5625 56 51.78125 48.09375 
Q 58.015625 40.1875 58.015625 27.296875 
Q 58.015625 14.40625 51.78125 6.484375 
Q 45.5625 -1.421875 35.59375 -1.421875 
Q 29.59375 -1.421875 25.265625 0.953125 
Q 20.953125 3.328125 18.109375 8.203125 
z
M 48.6875 27.296875 
Q 48.6875 37.203125 44.609375 42.84375 
Q 40.53125 48.484375 33.40625 48.484375 
Q 26.265625 48.484375 22.1875 42.84375 
Q 18.109375 37.203125 18.109375 27.296875 
Q 18.109375 17.390625 22.1875 11.75 
Q 26.265625 6.109375 33.40625 6.109375 
Q 40.53125 6.109375 44.609375 11.75 
Q 48.6875 17.390625 48.6875 27.296875 
z
" id="DejaVuSans-70"/>
     </defs>
     <g transform="translate(16.139531 294.999375)rotate(-90)scale(0.17 -0.17)">
      <use xlink:href="#DejaVuSans-46"/>
      <use x="57.410156" xlink:href="#DejaVuSans-72"/>
      <use x="98.523438" xlink:href="#DejaVuSans-61"/>
      <use x="159.802734" xlink:href="#DejaVuSans-63"/>
      <use x="214.783203" xlink:href="#DejaVuSans-74"/>
      <use x="253.992188" xlink:href="#DejaVuSans-69"/>
      <use x="281.775391" xlink:href="#DejaVuSans-6f"/>
      <use x="342.957031" xlink:href="#DejaVuSans-6e"/>
      <use x="406.335938" xlink:href="#DejaVuSans-20"/>
      <use x="438.123047" xlink:href="#DejaVuSans-6f"/>
      <use x="499.304688" xlink:href="#DejaVuSans-66"/>
      <use x="534.509766" xlink:href="#DejaVuSans-20"/>
      <use x="566.296875" xlink:href="#DejaVuSans-66"/>
      <use x="601.501953" xlink:href="#DejaVuSans-75"/>
      <use x="664.880859" xlink:href="#DejaVuSans-6e"/>
      <use x="728.259766" xlink:href="#DejaVuSans-63"/>
      <use x="783.240234" xlink:href="#DejaVuSans-74"/>
      <use x="822.449219" xlink:href="#DejaVuSans-69"/>
      <use x="850.232422" xlink:href="#DejaVuSans-6f"/>
      <use x="911.414062" xlink:href="#DejaVuSans-6e"/>
      <use x="974.792969" xlink:href="#DejaVuSans-2c"/>
      <use x="1006.580078" xlink:href="#DejaVuSans-74"/>
      <use x="1045.789062" xlink:href="#DejaVuSans-61"/>
      <use x="1107.068359" xlink:href="#DejaVuSans-72"/>
      <use x="1148.166016" xlink:href="#DejaVuSans-67"/>
      <use x="1211.642578" xlink:href="#DejaVuSans-65"/>
      <use x="1273.166016" xlink:href="#DejaVuSans-74"/>
      <use x="1312.375" xlink:href="#DejaVuSans-20"/>
      <use x="1344.162109" xlink:href="#DejaVuSans-70"/>
      <use x="1407.638672" xlink:href="#DejaVuSans-61"/>
      <use x="1468.917969" xlink:href="#DejaVuSans-69"/>
      <use x="1496.701172" xlink:href="#DejaVuSans-72"/>
      <use x="1537.814453" xlink:href="#DejaVuSans-73"/>
     </g>
    </g>
   </g>
   <g id="line2d_37">
    <defs>
     <path d="M 0 1.5 
C 0.397805 1.5 0.77937 1.341951 1.06066 1.06066 
C 1.341951 0.77937 1.5 0.397805 1.5 0 
C 1.5 -0.397805 1.341951 -0.77937 1.06066 -1.06066 
C 0.77937 -1.341951 0.397805 -1.5 0 -1.5 
C -0.397805 -1.5 -0.77937 -1.341951 -1.06066 -1.06066 
C -1.341951 -0.77937 -1.5 -0.397805 -1.5 0 
C -1.5 0.397805 -1.341951 0.77937 -1.06066 1.06066 
C -0.77937 1.341951 -0.397805 1.5 0 1.5 
z
" id="med01667d68" style="stroke:#00bfbf;"/>
    </defs>
    <g>
     <use style="fill:#00bfbf;stroke:#00bfbf;" x="218.296155" xlink:href="#med01667d68" y="27.513663"/>
     <use style="fill:#00bfbf;stroke:#00bfbf;" x="218.296155" xlink:href="#med01667d68" y="27.513663"/>
    </g>
   </g>
   <g id="line2d_38">
    <path d="M 56.12 294.88 
L 56.12 292.783009 
L 68.034251 292.783009 
L 68.034251 287.016284 
L 75.003641 287.016284 
L 75.003641 279.676816 
L 77.653281 279.676816 
L 77.653281 276.007082 
L 79.948502 276.007082 
L 79.948502 271.288853 
L 83.784035 271.288853 
L 83.784035 270.764605 
L 88.293717 270.764605 
L 88.293717 270.240357 
L 89.567532 270.240357 
L 89.567532 268.667614 
L 92.904808 268.667614 
L 92.904808 265.522128 
L 93.887283 265.522128 
L 93.887283 264.99788 
L 98.832144 264.99788 
L 98.832144 263.425137 
L 101.481783 263.425137 
L 101.481783 259.231155 
L 104.819059 259.231155 
L 104.819059 254.512926 
L 105.317315 254.512926 
L 105.317315 252.415935 
L 108.451173 252.415935 
L 108.451173 251.891687 
L 109.250788 251.891687 
L 109.250788 251.367439 
L 118.645127 251.367439 
L 118.645127 250.843192 
L 120.365424 250.843192 
L 120.365424 250.318944 
L 124.200956 250.318944 
L 124.200956 249.270448 
L 124.843597 249.270448 
L 124.843597 248.746201 
L 126.061 248.746201 
L 126.061 247.697705 
L 127.739271 247.697705 
L 127.739271 247.173458 
L 134.753019 247.173458 
L 134.841393 245.600714 
L 135.867885 245.600714 
L 135.867885 245.076467 
L 136.757848 245.076467 
L 136.757848 244.552219 
L 137.301101 244.552219 
L 137.301101 244.027971 
L 142.07321 244.027971 
L 142.07321 243.503724 
L 142.754037 243.503724 
L 142.754037 242.979476 
L 143.084598 242.979476 
L 143.084598 242.455228 
L 143.884213 242.455228 
L 143.884213 241.93098 
L 145.139415 241.93098 
L 145.139415 241.406733 
L 145.4275 241.406733 
L 145.4275 240.882485 
L 146.309161 240.882485 
L 146.309161 239.83399 
L 146.799661 239.83399 
L 146.799661 237.736999 
L 147.531203 237.736999 
L 147.531203 235.11576 
L 148.473843 235.11576 
L 148.473843 234.591512 
L 149.405283 234.591512 
L 149.405283 234.067265 
L 150.818844 234.067265 
L 150.818844 233.543017 
L 155.215743 233.543017 
L 155.215743 232.494521 
L 155.509573 232.494521 
L 155.509573 231.970274 
L 157.053666 231.970274 
L 157.053666 231.446026 
L 157.270181 231.446026 
L 157.270181 230.397531 
L 157.531159 230.397531 
L 157.531159 229.873283 
L 157.995745 229.873283 
L 157.995745 229.349035 
L 158.223412 229.349035 
L 158.268586 226.727797 
L 158.470412 226.727797 
L 158.581522 225.155053 
L 159.276106 225.155053 
L 159.276106 222.009567 
L 160.025366 222.009567 
L 160.025366 220.961072 
L 160.167338 220.961072 
L 160.167338 216.242842 
L 160.507322 216.242842 
L 160.507322 215.194347 
L 160.879512 215.194347 
L 160.879512 214.670099 
L 161.110494 214.670099 
L 161.148691 213.097356 
L 161.338413 213.097356 
L 161.35727 205.23364 
L 162.274704 205.23364 
L 162.274704 203.136649 
L 163.213447 203.136649 
L 163.213447 202.088154 
L 163.779242 202.088154 
L 163.779242 201.039658 
L 164.578857 201.039658 
L 164.578857 200.515411 
L 164.74989 200.515411 
L 164.74989 199.466915 
L 164.903911 199.466915 
L 164.903911 197.894172 
L 165.132385 197.894172 
L 165.132385 197.369924 
L 165.37279 197.369924 
L 165.417494 195.272933 
L 166.442907 195.272933 
L 166.442907 194.224438 
L 166.651932 194.224438 
L 166.748614 190.554704 
L 166.776138 190.554704 
L 166.776138 187.933465 
L 167.129994 187.933465 
L 167.129994 184.263731 
L 168.955809 184.263731 
L 168.955809 181.642493 
L 169.327275 181.642493 
L 169.327275 180.593997 
L 169.748816 180.593997 
L 169.748816 179.545502 
L 170.182837 179.545502 
L 170.284046 177.972759 
L 170.528966 177.972759 
L 170.628164 174.827272 
L 171.083662 174.827272 
L 171.12642 172.730281 
L 171.391273 172.730281 
L 171.391273 168.5363 
L 171.683143 168.5363 
L 171.683143 166.439309 
L 171.868189 166.439309 
L 171.868189 164.866566 
L 172.091685 164.866566 
L 172.091685 162.245327 
L 172.401759 162.245327 
L 172.401759 161.196832 
L 172.638033 161.196832 
L 172.638033 160.672584 
L 173.148576 160.672584 
L 173.148576 159.099841 
L 173.280942 159.099841 
L 173.280942 152.808868 
L 173.430981 152.808868 
L 173.430981 151.236125 
L 173.561198 151.236125 
L 173.635168 146.517896 
L 174.286947 146.517896 
L 174.295828 144.420905 
L 174.647346 144.420905 
L 174.647346 143.372409 
L 175.144608 143.372409 
L 175.203661 134.460198 
L 175.329524 134.460198 
L 175.379612 131.838959 
L 175.783294 131.838959 
L 175.783294 126.072235 
L 176.359772 126.072235 
L 176.359772 125.547987 
L 176.764412 125.547987 
L 176.764412 125.023739 
L 177.129655 125.023739 
L 177.129655 123.450996 
L 177.487299 123.450996 
L 177.487299 121.878253 
L 177.656068 121.878253 
L 177.656068 121.354005 
L 178.067316 121.354005 
L 178.067316 117.160023 
L 178.448048 117.160023 
L 178.448048 115.063032 
L 178.621497 115.063032 
L 178.655978 113.490289 
L 178.997033 113.490289 
L 178.997033 112.966042 
L 179.245128 112.966042 
L 179.285024 107.199317 
L 179.437107 107.199317 
L 179.437107 105.626573 
L 179.626967 105.626573 
L 179.70492 101.956839 
L 179.743764 101.956839 
L 179.743764 101.432592 
L 180.328641 101.432592 
L 180.328641 99.859849 
L 180.56453 99.859849 
L 180.56453 99.335601 
L 180.705749 99.335601 
L 180.711862 96.714362 
L 181.152389 96.714362 
L 181.229668 94.093124 
L 181.400818 94.093124 
L 181.494521 91.471885 
L 181.541182 91.471885 
L 181.587716 90.42339 
L 181.755355 90.42339 
L 181.784094 85.70516 
L 182.023621 85.70516 
L 182.097088 84.132417 
L 182.360113 84.132417 
L 182.448743 82.559674 
L 182.531421 82.559674 
L 182.531421 80.986931 
L 182.668339 80.986931 
L 182.668339 79.938435 
L 182.787932 79.938435 
L 182.804176 72.598967 
L 183.019305 72.598967 
L 183.019305 72.074719 
L 183.904708 72.074719 
L 184.005937 68.404985 
L 184.166673 68.404985 
L 184.166673 67.880738 
L 184.404994 67.880738 
L 184.498424 62.114013 
L 184.522927 62.114013 
L 184.596226 57.920031 
L 184.95333 57.920031 
L 184.95333 56.871536 
L 185.091277 56.871536 
L 185.199902 55.298792 
L 185.237524 55.298792 
L 185.237524 54.774545 
L 185.833081 54.774545 
L 185.833081 53.201802 
L 186.201198 53.201802 
L 186.201198 52.677554 
L 186.364754 52.677554 
L 186.470017 50.580563 
L 186.578986 50.580563 
L 186.68295 48.483572 
L 187.088411 48.483572 
L 187.088411 47.959324 
L 187.762561 47.959324 
L 187.762561 46.910829 
L 187.992203 46.910829 
L 187.992203 46.386581 
L 190.038507 46.386581 
L 190.038507 45.862334 
L 190.961864 45.862334 
L 190.961864 44.813838 
L 193.170589 44.813838 
L 193.229707 43.241095 
L 203.859245 43.241095 
L 203.955957 42.192599 
L 204.070984 42.192599 
L 204.070984 41.668352 
L 204.683414 41.668352 
L 204.683414 41.144104 
L 205.152808 41.144104 
L 205.152808 40.619856 
L 205.270378 40.619856 
L 205.369684 39.571361 
L 205.845042 39.571361 
L 205.854954 37.998618 
L 206.194169 37.998618 
L 206.194169 37.47437 
L 206.40934 37.47437 
L 206.485928 36.425875 
L 206.612371 36.425875 
L 206.706933 33.804636 
L 206.911825 33.804636 
L 207.010053 32.756141 
L 207.086653 32.756141 
L 207.086653 32.231893 
L 207.387093 32.231893 
L 207.473633 31.183397 
L 207.81803 31.183397 
L 207.81803 30.65915 
L 207.966404 30.65915 
L 207.966404 30.134902 
L 208.266747 30.134902 
L 208.372229 29.086407 
L 217.097263 29.086407 
L 217.097263 28.562159 
L 217.342083 28.562159 
L 217.342083 28.037911 
L 218.296155 28.037911 
L 218.296155 27.513663 
L 333.168 27.513663 
L 333.168 27.513663 
" style="fill:none;stroke:#00bfbf;stroke-linecap:square;stroke-width:1.5;"/>
   </g>
   <g id="line2d_39">
    <defs>
     <path d="M -6 0 
L 6 0 
M 0 6 
L 0 -6 
" id="me24134c364" style="stroke:#00bfbf;stroke-width:1.5;"/>
    </defs>
    <g>
     <use style="fill-opacity:0;stroke:#00bfbf;stroke-width:1.5;" x="127.739271" xlink:href="#me24134c364" y="247.173458"/>
     <use style="fill-opacity:0;stroke:#00bfbf;stroke-width:1.5;" x="174.295828" xlink:href="#me24134c364" y="145.993648"/>
     <use style="fill-opacity:0;stroke:#00bfbf;stroke-width:1.5;" x="218.296155" xlink:href="#me24134c364" y="28.037911"/>
     <use style="fill-opacity:0;stroke:#00bfbf;stroke-width:1.5;" x="218.296155" xlink:href="#me24134c364" y="27.513663"/>
     <use style="fill-opacity:0;stroke:#00bfbf;stroke-width:1.5;" x="333.168" xlink:href="#me24134c364" y="27.513663"/>
    </g>
   </g>
   <g id="line2d_40">
    <path style="fill:none;stroke:#00bfbf;stroke-linecap:square;stroke-width:1.5;"/>
    <g/>
   </g>
   <g id="line2d_41">
    <path clip-path="url(#p154669f805)" d="M 202.691626 43.241095 
" style="fill:none;stroke:#00bfbf;stroke-linecap:square;stroke-width:1.5;"/>
    <defs>
     <path d="M -12 12 
L 12 -12 
M -12 -12 
L 12 12 
" id="m54def428e6" style="stroke:#00bfbf;"/>
    </defs>
    <g clip-path="url(#p154669f805)">
     <use style="fill:#00bfbf;stroke:#00bfbf;" x="202.691626" xlink:href="#m54def428e6" y="43.241095"/>
    </g>
   </g>
   <g id="line2d_42">
    <defs>
     <path d="M 0 1.5 
C 0.397805 1.5 0.77937 1.341951 1.06066 1.06066 
C 1.341951 0.77937 1.5 0.397805 1.5 0 
C 1.5 -0.397805 1.341951 -0.77937 1.06066 -1.06066 
C 0.77937 -1.341951 0.397805 -1.5 0 -1.5 
C -0.397805 -1.5 -0.77937 -1.341951 -1.06066 -1.06066 
C -1.341951 -0.77937 -1.5 -0.397805 -1.5 0 
C -1.5 0.397805 -1.341951 0.77937 -1.06066 1.06066 
C -0.77937 1.341951 -0.397805 1.5 0 1.5 
z
" id="mb1f32a37c3" style="stroke:#008000;"/>
    </defs>
    <g>
     <use style="fill:#008000;stroke:#008000;" x="240.135658" xlink:href="#mb1f32a37c3" y="27.513663"/>
     <use style="fill:#008000;stroke:#008000;" x="240.135658" xlink:href="#mb1f32a37c3" y="27.513663"/>
    </g>
   </g>
   <g id="line2d_43">
    <path d="M 82.598142 294.88 
L 82.598142 291.734514 
L 84.893363 291.734514 
L 84.893363 288.589027 
L 90.367147 288.589027 
L 90.367147 284.395046 
L 91.862754 284.395046 
L 91.862754 280.725312 
L 95.115564 280.725312 
L 95.115564 278.628321 
L 98.347925 278.628321 
L 98.347925 277.579825 
L 99.761485 277.579825 
L 99.761485 275.482834 
L 101.067579 275.482834 
L 101.067579 272.861596 
L 103.777005 272.861596 
L 103.777005 269.191862 
L 104.478679 269.191862 
L 104.478679 265.522128 
L 105.152829 265.522128 
L 105.152829 264.473632 
L 106.426644 264.473632 
L 106.426644 261.328146 
L 107.612537 261.328146 
L 107.612537 258.18266 
L 109.250788 258.18266 
L 109.250788 257.658412 
L 110.262176 257.658412 
L 110.262176 256.609917 
L 110.746395 256.609917 
L 110.746395 255.561421 
L 111.448069 255.561421 
L 111.448069 253.46443 
L 113.396034 253.46443 
L 113.396034 252.940182 
L 113.599452 252.940182 
L 113.599452 252.415935 
L 119.09161 252.415935 
L 119.09161 251.891687 
L 121.16504 251.891687 
L 121.16504 250.318944 
L 124.363883 250.318944 
L 124.363883 249.270448 
L 128.478214 249.270448 
L 128.478214 248.746201 
L 131.441039 248.746201 
L 131.441039 247.697705 
L 134.213018 247.697705 
L 134.213018 247.173458 
L 142.207722 247.173458 
L 142.207722 246.64921 
L 144.262 246.64921 
L 144.262 246.124962 
L 145.31604 246.124962 
L 145.31604 245.600714 
L 146.518964 245.600714 
L 146.518964 244.552219 
L 147.333468 244.552219 
L 147.333468 244.027971 
L 148.724584 244.027971 
L 148.724584 242.979476 
L 148.881082 242.979476 
L 148.881082 242.455228 
L 150.204899 242.455228 
L 150.204899 241.93098 
L 150.980457 241.93098 
L 150.980457 241.406733 
L 151.612132 241.406733 
L 151.612132 240.358237 
L 152.518141 240.358237 
L 152.518141 239.83399 
L 153.055976 239.83399 
L 153.055976 239.309742 
L 154.538 239.309742 
L 154.538 238.261246 
L 154.797596 238.261246 
L 154.797596 237.212751 
L 155.071451 237.212751 
L 155.071451 235.640008 
L 155.483068 235.640008 
L 155.483068 233.543017 
L 156.27786 233.543017 
L 156.27786 231.970274 
L 156.429154 231.970274 
L 156.429154 230.921778 
L 157.888459 230.921778 
L 157.888459 230.397531 
L 158.358579 230.397531 
L 158.433215 228.824787 
L 158.655198 228.824787 
L 158.743194 225.155053 
L 159.696387 225.155053 
L 159.696387 224.106558 
L 160.546882 224.106558 
L 160.546882 223.58231 
L 160.678093 223.58231 
L 160.678093 223.058063 
L 161.180457 223.058063 
L 161.180457 222.533815 
L 161.974301 222.533815 
L 161.974301 222.009567 
L 162.167163 222.009567 
L 162.167163 220.436824 
L 163.088932 220.436824 
L 163.088932 219.912576 
L 163.23599 219.912576 
L 163.314656 218.864081 
L 163.359447 218.864081 
L 163.359447 217.815585 
L 163.768325 217.815585 
L 163.768325 216.76709 
L 165.27303 216.76709 
L 165.283032 215.194347 
L 165.422454 215.194347 
L 165.422454 214.145851 
L 166.330379 214.145851 
L 166.405479 212.573108 
L 167.138972 212.573108 
L 167.138972 212.04886 
L 167.414994 212.04886 
L 167.414994 211.524613 
L 167.555741 211.524613 
L 167.555741 211.000365 
L 167.86827 211.000365 
L 167.86827 210.476117 
L 168.0565 210.476117 
L 168.082008 209.427622 
L 168.468475 209.427622 
L 168.468475 208.903374 
L 168.609129 208.903374 
L 168.69953 206.806383 
L 168.740465 206.806383 
L 168.740465 206.282136 
L 168.870806 206.282136 
L 168.911336 204.709392 
L 169.295634 204.709392 
L 169.295634 204.185145 
L 169.825757 204.185145 
L 169.825757 202.088154 
L 170.092371 202.088154 
L 170.092371 201.563906 
L 170.384663 201.563906 
L 170.466214 197.894172 
L 170.525281 197.894172 
L 170.525281 197.369924 
L 170.983478 197.369924 
L 170.983478 196.845677 
L 171.631385 196.845677 
L 171.631385 193.175943 
L 171.789617 193.175943 
L 171.789617 192.651695 
L 171.926035 192.651695 
L 171.926035 192.127447 
L 172.381922 192.127447 
L 172.381922 191.078952 
L 172.618467 191.078952 
L 172.618467 189.506209 
L 173.340489 189.506209 
L 173.340489 188.981961 
L 173.483807 188.981961 
L 173.483807 188.457713 
L 173.711882 188.457713 
L 173.711882 187.933465 
L 173.827836 187.933465 
L 173.930926 182.690988 
L 174.466626 182.690988 
L 174.548477 181.118245 
L 174.589257 181.118245 
L 174.676317 180.06975 
L 174.768698 180.06975 
L 174.768698 179.545502 
L 174.969068 179.545502 
L 175.008863 173.254529 
L 175.256916 173.254529 
L 175.256916 172.730281 
L 175.698949 172.730281 
L 175.698949 171.681786 
L 176.049915 171.681786 
L 176.049915 171.157538 
L 176.214808 171.157538 
L 176.214808 169.060547 
L 176.362396 169.060547 
L 176.362396 168.5363 
L 176.853903 168.5363 
L 176.93024 167.487804 
L 176.991067 167.487804 
L 177.031499 164.866566 
L 177.127146 164.866566 
L 177.222263 161.721079 
L 177.573114 161.721079 
L 177.680391 160.148336 
L 177.704679 160.148336 
L 177.704679 159.624089 
L 178.140828 159.624089 
L 178.21167 157.527098 
L 178.399167 157.527098 
L 178.399167 156.478602 
L 178.850073 156.478602 
L 178.850073 154.381611 
L 178.976759 154.381611 
L 178.976759 153.857364 
L 179.50937 153.857364 
L 179.600904 152.28462 
L 179.73514 152.28462 
L 179.73514 151.760373 
L 180.042927 151.760373 
L 180.042927 150.711877 
L 180.42007 150.711877 
L 180.42007 150.18763 
L 180.728155 150.18763 
L 180.829635 149.139134 
L 181.034815 149.139134 
L 181.034815 148.614886 
L 182.216975 148.614886 
L 182.216975 148.090639 
L 183.012177 148.090639 
L 183.012177 145.4694 
L 183.452078 145.4694 
L 183.452078 144.420905 
L 184.542504 144.420905 
L 184.542504 143.372409 
L 185.799773 143.372409 
L 185.799773 142.848162 
L 196.848467 142.848162 
L 196.848467 141.799666 
L 197.060714 141.799666 
L 197.060714 141.275418 
L 197.265706 141.275418 
L 197.372704 140.226923 
L 197.386611 140.226923 
L 197.386611 139.702675 
L 197.604561 139.702675 
L 197.715539 137.081437 
L 197.810742 137.081437 
L 197.884426 134.984446 
L 197.957796 134.984446 
L 198.057613 133.93595 
L 198.121371 133.93595 
L 198.211414 132.363207 
L 198.299523 132.363207 
L 198.299523 130.790464 
L 198.443923 130.790464 
L 198.443923 130.266216 
L 198.562616 130.266216 
L 198.562616 129.741969 
L 198.706262 129.741969 
L 198.706262 129.217721 
L 198.824584 129.217721 
L 198.860064 127.644978 
L 198.971702 127.644978 
L 199.068619 124.499491 
L 199.212282 124.499491 
L 199.281591 122.926748 
L 199.564233 122.926748 
L 199.564233 122.4025 
L 199.962391 122.4025 
L 199.974354 120.30551 
L 200.086928 120.30551 
L 200.10408 118.732766 
L 200.227598 118.732766 
L 200.227598 117.160023 
L 200.650498 117.160023 
L 200.73969 112.441794 
L 200.76382 112.441794 
L 200.85369 107.723564 
L 200.881442 107.723564 
L 200.887743 106.150821 
L 201.002021 106.150821 
L 201.070723 103.005335 
L 201.145359 103.005335 
L 201.227086 98.811353 
L 201.341591 98.811353 
L 201.341591 98.287105 
L 201.506462 98.287105 
L 201.525898 96.714362 
L 201.725059 96.714362 
L 201.725059 95.665867 
L 202.17748 95.665867 
L 202.17748 94.093124 
L 202.430429 94.093124 
L 202.459201 93.044628 
L 202.800753 93.044628 
L 202.800753 92.520381 
L 202.93997 92.520381 
L 202.93997 91.996133 
L 203.381521 91.996133 
L 203.381521 91.471885 
L 208.088249 91.471885 
L 208.088249 90.947637 
L 208.413347 90.947637 
L 208.488812 88.850646 
L 208.603403 88.850646 
L 208.712441 86.753656 
L 208.790586 86.753656 
L 208.816026 85.70516 
L 209.337894 85.70516 
L 209.44315 83.083922 
L 209.494392 83.083922 
L 209.508133 81.511178 
L 209.886982 81.511178 
L 209.886982 80.986931 
L 210.034142 80.986931 
L 210.036362 79.414188 
L 210.198388 79.414188 
L 210.307991 77.317197 
L 210.313817 77.317197 
L 210.412556 74.17171 
L 210.465323 74.17171 
L 210.47831 73.123215 
L 210.60835 73.123215 
L 210.60835 72.598967 
L 210.782111 72.598967 
L 210.782111 71.026224 
L 210.923942 71.026224 
L 210.923942 70.501976 
L 211.165381 70.501976 
L 211.165381 69.977729 
L 211.315778 69.977729 
L 211.315778 69.453481 
L 211.537579 69.453481 
L 211.621456 67.35649 
L 214.989545 67.35649 
L 215.063716 66.307995 
L 215.178764 66.307995 
L 215.178764 65.259499 
L 215.296317 65.259499 
L 215.383821 63.162508 
L 215.420105 63.162508 
L 215.420105 62.638261 
L 215.553748 62.638261 
L 215.659172 60.017022 
L 215.7151 60.017022 
L 215.795211 58.444279 
L 215.876004 58.444279 
L 215.984189 57.395783 
L 216.046375 57.395783 
L 216.143124 56.347288 
L 216.201121 56.347288 
L 216.201121 55.82304 
L 216.339621 55.82304 
L 216.445954 54.774545 
L 216.455635 54.774545 
L 216.551634 53.726049 
L 216.609785 53.726049 
L 216.628957 52.677554 
L 217.362389 52.677554 
L 217.362389 52.153306 
L 220.040995 52.153306 
L 220.150213 50.056315 
L 220.310918 50.056315 
L 220.310918 49.532068 
L 220.422485 49.532068 
L 220.422485 49.00782 
L 220.716369 49.00782 
L 220.716369 48.483572 
L 220.93834 48.483572 
L 221.036167 46.386581 
L 221.08993 46.386581 
L 221.167551 45.338086 
L 221.405589 45.338086 
L 221.405589 44.813838 
L 221.536084 44.813838 
L 221.536084 44.28959 
L 223.662434 44.28959 
L 223.662434 43.765343 
L 223.879421 43.765343 
L 223.879421 43.241095 
L 224.08194 43.241095 
L 224.131873 42.192599 
L 224.212504 42.192599 
L 224.212504 41.668352 
L 224.36814 41.668352 
L 224.457269 39.047113 
L 224.513776 39.047113 
L 224.579944 37.998618 
L 224.628453 37.998618 
L 224.66672 36.950122 
L 224.766257 36.950122 
L 224.766257 36.425875 
L 225.092609 36.425875 
L 225.092609 35.901627 
L 227.101791 35.901627 
L 227.169106 34.328884 
L 227.33625 34.328884 
L 227.357873 32.756141 
L 229.523456 32.756141 
L 229.523456 32.231893 
L 229.987009 32.231893 
L 230.030766 31.183397 
L 230.174903 31.183397 
L 230.174903 30.65915 
L 232.055834 30.65915 
L 232.055834 29.610654 
L 232.551131 29.610654 
L 232.551131 29.086407 
L 233.811318 29.086407 
L 233.811318 28.562159 
L 237.271383 28.562159 
L 237.271383 28.037911 
L 240.135658 28.037911 
L 240.135658 27.513663 
L 333.168 27.513663 
L 333.168 27.513663 
" style="fill:none;stroke:#008000;stroke-linecap:square;stroke-width:1.5;"/>
   </g>
   <g id="line2d_44">
    <defs>
     <path d="M -0 6 
L 6 -6 
L -6 -6 
z
" id="me476264f59" style="stroke:#008000;stroke-linejoin:miter;stroke-width:1.5;"/>
    </defs>
    <g>
     <use style="fill-opacity:0;stroke:#008000;stroke-linejoin:miter;stroke-width:1.5;" x="146.518964" xlink:href="#me476264f59" y="244.552219"/>
     <use style="fill-opacity:0;stroke:#008000;stroke-linejoin:miter;stroke-width:1.5;" x="200.881442" xlink:href="#me476264f59" y="107.199317"/>
     <use style="fill-opacity:0;stroke:#008000;stroke-linejoin:miter;stroke-width:1.5;" x="240.135658" xlink:href="#me476264f59" y="28.037911"/>
     <use style="fill-opacity:0;stroke:#008000;stroke-linejoin:miter;stroke-width:1.5;" x="240.135658" xlink:href="#me476264f59" y="27.513663"/>
     <use style="fill-opacity:0;stroke:#008000;stroke-linejoin:miter;stroke-width:1.5;" x="333.168" xlink:href="#me476264f59" y="27.513663"/>
    </g>
   </g>
   <g id="line2d_45">
    <path style="fill:none;stroke:#008000;stroke-linecap:square;stroke-width:1.5;"/>
    <g/>
   </g>
   <g id="line2d_46">
    <path clip-path="url(#p154669f805)" d="M 195.722236 142.848162 
" style="fill:none;stroke:#008000;stroke-linecap:square;stroke-width:1.5;"/>
    <defs>
     <path d="M -12 12 
L 12 -12 
M -12 -12 
L 12 12 
" id="m583ab189e6" style="stroke:#008000;"/>
    </defs>
    <g clip-path="url(#p154669f805)">
     <use style="fill:#008000;stroke:#008000;" x="195.722236" xlink:href="#m583ab189e6" y="142.848162"/>
    </g>
   </g>
   <g id="line2d_47">
    <defs>
     <path d="M 0 1.5 
C 0.397805 1.5 0.77937 1.341951 1.06066 1.06066 
C 1.341951 0.77937 1.5 0.397805 1.5 0 
C 1.5 -0.397805 1.341951 -0.77937 1.06066 -1.06066 
C 0.77937 -1.341951 0.397805 -1.5 0 -1.5 
C -0.397805 -1.5 -0.77937 -1.341951 -1.06066 -1.06066 
C -1.341951 -0.77937 -1.5 -0.397805 -1.5 0 
C -1.5 0.397805 -1.341951 0.77937 -1.06066 1.06066 
C -0.77937 1.341951 -0.397805 1.5 0 1.5 
z
" id="m55db7dcdef" style="stroke:#0000ff;"/>
    </defs>
    <g>
     <use style="fill:#0000ff;stroke:#0000ff;" x="229.801117" xlink:href="#m55db7dcdef" y="231.970274"/>
     <use style="fill:#0000ff;stroke:#0000ff;" x="229.801117" xlink:href="#m55db7dcdef" y="231.970274"/>
    </g>
   </g>
   <g id="line2d_48">
    <path d="M 85.106889 294.88 
L 85.106889 293.307257 
L 95.698286 293.307257 
L 95.698286 291.210266 
L 101.23446 291.210266 
L 101.23446 290.161771 
L 111.030511 290.161771 
L 111.030511 287.016284 
L 114.23467 287.016284 
L 114.23467 281.773807 
L 116.220179 281.773807 
L 116.220179 279.676816 
L 117.523731 279.676816 
L 117.523731 279.152568 
L 119.179531 279.152568 
L 119.179531 278.628321 
L 120.034863 278.628321 
L 120.034863 277.579825 
L 120.200938 277.579825 
L 120.200938 276.007082 
L 121.320594 276.007082 
L 121.320594 275.482834 
L 121.474753 275.482834 
L 121.474753 274.958587 
L 121.778985 274.958587 
L 121.778985 272.861596 
L 121.854208 272.861596 
L 121.854208 270.764605 
L 122.660646 270.764605 
L 122.660646 270.240357 
L 123.293428 270.240357 
L 123.293428 269.716109 
L 123.836987 269.716109 
L 123.836987 268.667614 
L 124.937954 268.667614 
L 124.937954 266.570623 
L 125.310285 266.570623 
L 125.310285 264.99788 
L 125.794504 264.99788 
L 125.794504 264.473632 
L 126.207287 264.473632 
L 126.207287 262.900889 
L 126.667211 262.900889 
L 126.667211 260.803898 
L 126.892639 260.803898 
L 126.892639 259.755403 
L 127.05979 259.755403 
L 127.05979 254.512926 
L 129.096637 254.512926 
L 129.096637 253.46443 
L 131.990784 253.46443 
L 131.990784 252.415935 
L 133.617681 252.415935 
L 133.617681 251.891687 
L 137.857318 251.891687 
L 137.857318 251.367439 
L 138.004608 251.367439 
L 138.004608 250.318944 
L 141.010888 250.318944 
L 141.010888 249.794696 
L 141.520398 249.794696 
L 141.520398 248.221953 
L 141.991995 248.221953 
L 141.991995 247.697705 
L 143.441019 247.697705 
L 143.441019 247.173458 
L 143.674593 247.173458 
L 143.674593 246.64921 
L 144.234803 246.64921 
L 144.234803 246.124962 
L 145.738913 246.124962 
L 145.738913 245.600714 
L 147.897996 245.600714 
L 147.897996 245.076467 
L 149.830637 245.076467 
L 149.830637 244.552219 
L 152.986593 244.552219 
L 152.986593 244.027971 
L 156.442538 244.027971 
L 156.442538 243.503724 
L 157.265399 243.503724 
L 157.265399 242.979476 
L 162.28185 242.979476 
L 162.28185 242.455228 
L 162.913082 242.455228 
L 162.913082 240.882485 
L 175.275935 240.882485 
L 175.275935 239.83399 
L 188.461964 239.83399 
L 188.461964 239.309742 
L 188.629372 239.309742 
L 188.629372 238.785494 
L 189.98727 238.785494 
L 189.98727 237.736999 
L 190.614263 237.736999 
L 190.614263 237.212751 
L 190.737509 237.212751 
L 190.737509 236.688503 
L 199.72056 236.688503 
L 199.72056 236.164255 
L 200.255072 236.164255 
L 200.255072 235.640008 
L 211.208012 235.640008 
L 211.208012 235.11576 
L 211.764586 235.11576 
L 211.764586 234.591512 
L 215.290758 234.591512 
L 215.290758 234.067265 
L 215.405817 234.067265 
L 215.405817 233.018769 
L 222.904823 233.018769 
L 222.904823 232.494521 
L 229.801117 232.494521 
L 229.801117 231.970274 
L 333.168 231.970274 
" style="fill:none;stroke:#0000ff;stroke-linecap:square;stroke-width:1.5;"/>
   </g>
   <g id="line2d_49">
    <defs>
     <path d="M 0 -6 
L -1.347084 -1.854102 
L -5.706339 -1.854102 
L -2.179628 0.708204 
L -3.526712 4.854102 
L -0 2.291796 
L 3.526712 4.854102 
L 2.179628 0.708204 
L 5.706339 -1.854102 
L 1.347084 -1.854102 
z
" id="m1664aa964c" style="stroke:#0000ff;stroke-linejoin:bevel;stroke-width:1.5;"/>
    </defs>
    <g>
     <use style="fill-opacity:0;stroke:#0000ff;stroke-linejoin:bevel;stroke-width:1.5;" x="175.275935" xlink:href="#m1664aa964c" y="240.882485"/>
     <use style="fill-opacity:0;stroke:#0000ff;stroke-linejoin:bevel;stroke-width:1.5;" x="229.801117" xlink:href="#m1664aa964c" y="232.494521"/>
     <use style="fill-opacity:0;stroke:#0000ff;stroke-linejoin:bevel;stroke-width:1.5;" x="229.801117" xlink:href="#m1664aa964c" y="231.970274"/>
     <use style="fill-opacity:0;stroke:#0000ff;stroke-linejoin:bevel;stroke-width:1.5;" x="229.801117" xlink:href="#m1664aa964c" y="231.970274"/>
     <use style="fill-opacity:0;stroke:#0000ff;stroke-linejoin:bevel;stroke-width:1.5;" x="333.168" xlink:href="#m1664aa964c" y="231.970274"/>
    </g>
   </g>
   <g id="line2d_50">
    <path style="fill:none;stroke:#0000ff;stroke-linecap:square;stroke-width:1.5;"/>
    <g/>
   </g>
   <g id="line2d_51">
    <path clip-path="url(#p154669f805)" d="M 186.941843 239.83399 
" style="fill:none;stroke:#0000ff;stroke-linecap:square;stroke-width:1.5;"/>
    <defs>
     <path d="M -12 12 
L 12 -12 
M -12 -12 
L 12 12 
" id="m50320bc220" style="stroke:#0000ff;"/>
    </defs>
    <g clip-path="url(#p154669f805)">
     <use style="fill:#0000ff;stroke:#0000ff;" x="186.941843" xlink:href="#m50320bc220" y="239.83399"/>
    </g>
   </g>
   <g id="line2d_52">
    <defs>
     <path d="M 0 1.5 
C 0.397805 1.5 0.77937 1.341951 1.06066 1.06066 
C 1.341951 0.77937 1.5 0.397805 1.5 0 
C 1.5 -0.397805 1.341951 -0.77937 1.06066 -1.06066 
C 0.77937 -1.341951 0.397805 -1.5 0 -1.5 
C -0.397805 -1.5 -0.77937 -1.341951 -1.06066 -1.06066 
C -1.341951 -0.77937 -1.5 -0.397805 -1.5 0 
C -1.5 0.397805 -1.341951 0.77937 -1.06066 1.06066 
C -0.77937 1.341951 -0.397805 1.5 0 1.5 
z
" id="m033072ccfa" style="stroke:#000000;"/>
    </defs>
    <g>
     <use style="stroke:#000000;" x="209.053338" xlink:href="#m033072ccfa" y="242.455228"/>
     <use style="stroke:#000000;" x="209.053338" xlink:href="#m033072ccfa" y="242.455228"/>
    </g>
   </g>
   <g id="line2d_53">
    <path d="M 73.192638 294.88 
L 73.192638 292.783009 
L 110.817865 292.783009 
L 110.817865 291.734514 
L 114.639127 291.734514 
L 114.639127 290.686018 
L 115.034286 290.686018 
L 115.034286 289.113275 
L 116.884309 289.113275 
L 116.884309 287.540532 
L 117.523731 287.540532 
L 117.523731 285.443541 
L 119.483763 285.443541 
L 119.483763 283.34655 
L 119.909246 283.34655 
L 119.909246 277.055578 
L 121.12593 277.055578 
L 121.12593 276.53133 
L 121.20406 276.53133 
L 121.20406 276.007082 
L 122.979949 276.007082 
L 122.979949 274.958587 
L 123.499282 274.958587 
L 123.499282 271.8131 
L 123.601292 271.8131 
L 123.601292 269.716109 
L 123.803514 269.716109 
L 123.803514 268.143366 
L 123.870396 268.143366 
L 123.870396 267.619119 
L 124.036471 267.619119 
L 124.036471 265.522128 
L 124.069494 265.522128 
L 124.069494 264.99788 
L 124.748719 264.99788 
L 124.748719 263.949385 
L 125.125128 263.949385 
L 125.125128 261.852394 
L 125.764637 261.852394 
L 125.764637 261.328146 
L 126.581907 261.328146 
L 126.581907 260.803898 
L 126.638823 260.803898 
L 126.638823 259.755403 
L 126.808449 259.755403 
L 126.808449 257.134164 
L 126.976418 257.134164 
L 126.976418 256.609917 
L 127.004254 256.609917 
L 127.004254 255.561421 
L 127.334814 255.561421 
L 127.334814 255.037173 
L 127.659138 255.037173 
L 127.659138 254.512926 
L 128.082264 254.512926 
L 128.082264 253.46443 
L 128.495224 253.46443 
L 128.495224 252.940182 
L 131.246571 252.940182 
L 131.246571 251.891687 
L 133.693236 251.891687 
L 133.693236 251.367439 
L 137.178434 251.367439 
L 137.178434 249.794696 
L 139.613502 249.794696 
L 139.613502 249.270448 
L 141.388408 249.270448 
L 141.388408 248.746201 
L 143.312265 248.746201 
L 143.312265 248.221953 
L 143.376763 248.221953 
L 143.376763 247.697705 
L 145.4275 247.697705 
L 145.4275 247.173458 
L 146.007999 247.173458 
L 146.007999 246.64921 
L 177.942818 246.64921 
L 177.942818 245.600714 
L 178.717869 245.600714 
L 178.717869 245.076467 
L 188.461185 245.076467 
L 188.461185 244.552219 
L 194.905741 244.552219 
L 194.905741 244.027971 
L 203.295209 244.027971 
L 203.295209 243.503724 
L 203.495789 243.503724 
L 203.495789 242.979476 
L 209.053338 242.979476 
L 209.053338 242.455228 
L 333.168 242.455228 
" style="fill:none;stroke:#000000;stroke-linecap:square;stroke-width:1.5;"/>
   </g>
   <g id="line2d_54">
    <defs>
     <path d="M 0 6 
C 1.591219 6 3.117479 5.367802 4.242641 4.242641 
C 5.367802 3.117479 6 1.591219 6 0 
C 6 -1.591219 5.367802 -3.117479 4.242641 -4.242641 
C 3.117479 -5.367802 1.591219 -6 0 -6 
C -1.591219 -6 -3.117479 -5.367802 -4.242641 -4.242641 
C -5.367802 -3.117479 -6 -1.591219 -6 0 
C -6 1.591219 -5.367802 3.117479 -4.242641 4.242641 
C -3.117479 5.367802 -1.591219 6 0 6 
z
" id="m268a43eafc" style="stroke:#000000;stroke-width:1.5;"/>
    </defs>
    <g>
     <use style="fill-opacity:0;stroke:#000000;stroke-width:1.5;" x="146.007999" xlink:href="#m268a43eafc" y="247.173458"/>
     <use style="fill-opacity:0;stroke:#000000;stroke-width:1.5;" x="209.053338" xlink:href="#m268a43eafc" y="242.979476"/>
     <use style="fill-opacity:0;stroke:#000000;stroke-width:1.5;" x="209.053338" xlink:href="#m268a43eafc" y="242.455228"/>
     <use style="fill-opacity:0;stroke:#000000;stroke-width:1.5;" x="209.053338" xlink:href="#m268a43eafc" y="242.455228"/>
     <use style="fill-opacity:0;stroke:#000000;stroke-width:1.5;" x="333.168" xlink:href="#m268a43eafc" y="242.455228"/>
    </g>
   </g>
   <g id="line2d_55">
    <path style="fill:none;stroke:#000000;stroke-linecap:square;stroke-width:1.5;"/>
    <g/>
   </g>
   <g id="line2d_56">
    <path clip-path="url(#p154669f805)" d="M 175.027591 246.64921 
" style="fill:none;stroke:#000000;stroke-linecap:square;stroke-width:1.5;"/>
    <defs>
     <path d="M -12 12 
L 12 -12 
M -12 -12 
L 12 12 
" id="md57f685c48" style="stroke:#000000;"/>
    </defs>
    <g clip-path="url(#p154669f805)">
     <use style="stroke:#000000;" x="175.027591" xlink:href="#md57f685c48" y="246.64921"/>
    </g>
   </g>
   <g id="line2d_57">
    <defs>
     <path d="M 0 1.5 
C 0.397805 1.5 0.77937 1.341951 1.06066 1.06066 
C 1.341951 0.77937 1.5 0.397805 1.5 0 
C 1.5 -0.397805 1.341951 -0.77937 1.06066 -1.06066 
C 0.77937 -1.341951 0.397805 -1.5 0 -1.5 
C -0.397805 -1.5 -0.77937 -1.341951 -1.06066 -1.06066 
C -1.341951 -0.77937 -1.5 -0.397805 -1.5 0 
C -1.5 0.397805 -1.341951 0.77937 -1.06066 1.06066 
C -0.77937 1.341951 -0.397805 1.5 0 1.5 
z
" id="m331aad64d7" style="stroke:#ff0000;"/>
    </defs>
    <g>
     <use style="fill:#ff0000;stroke:#ff0000;" x="183.580331" xlink:href="#m331aad64d7" y="247.697705"/>
     <use style="fill:#ff0000;stroke:#ff0000;" x="183.580331" xlink:href="#m331aad64d7" y="247.697705"/>
    </g>
   </g>
   <g id="line2d_58">
    <path d="M 116.298132 294.88 
L 116.298132 294.355752 
L 116.73331 294.355752 
L 116.73331 293.831505 
L 117.231566 293.831505 
L 117.231566 293.307257 
L 117.305074 293.307257 
L 117.305074 289.113275 
L 117.523731 289.113275 
L 117.523731 288.06478 
L 117.547856 288.06478 
L 117.547856 287.540532 
L 117.834738 287.540532 
L 117.834738 284.919293 
L 118.645127 284.919293 
L 118.645127 284.395046 
L 118.869818 284.395046 
L 118.869818 283.870798 
L 119.612517 283.870798 
L 119.612517 282.298055 
L 119.655222 282.298055 
L 119.655222 281.773807 
L 119.676534 281.773807 
L 119.676534 279.676816 
L 119.719081 279.676816 
L 119.719081 278.628321 
L 119.761522 278.628321 
L 119.761522 276.007082 
L 119.803858 276.007082 
L 119.803858 274.958587 
L 120.180267 274.958587 
L 120.180267 274.434339 
L 120.365424 274.434339 
L 120.365424 271.288853 
L 121.646545 271.288853 
L 121.646545 270.764605 
L 121.760127 270.764605 
L 121.760127 270.240357 
L 121.816638 270.240357 
L 121.816638 269.716109 
L 122.114929 269.716109 
L 122.114929 268.143366 
L 122.280471 268.143366 
L 122.280471 266.570623 
L 122.749938 266.570623 
L 122.749938 265.522128 
L 122.803291 265.522128 
L 122.803291 264.473632 
L 122.909503 264.473632 
L 122.909503 263.949385 
L 123.448049 263.949385 
L 123.448049 263.425137 
L 123.601292 263.425137 
L 123.601292 262.376641 
L 123.68584 262.376641 
L 123.68584 261.852394 
L 123.753181 261.852394 
L 123.753181 261.328146 
L 124.151776 261.328146 
L 124.151776 260.279651 
L 124.637363 260.279651 
L 124.637363 259.755403 
L 125.062963 259.755403 
L 125.062963 256.609917 
L 125.109607 256.609917 
L 125.109607 255.561421 
L 125.82432 255.561421 
L 125.82432 254.512926 
L 126.481848 254.512926 
L 126.481848 253.988678 
L 126.752093 253.988678 
L 126.752093 252.940182 
L 131.548134 252.940182 
L 131.548134 252.415935 
L 133.147519 252.415935 
L 133.147519 251.891687 
L 138.424747 251.891687 
L 138.424747 251.367439 
L 144.422604 251.367439 
L 144.422604 250.843192 
L 148.980757 250.843192 
L 148.980757 250.318944 
L 167.096284 250.318944 
L 167.096284 249.794696 
L 167.484631 249.794696 
L 167.484631 249.270448 
L 176.957892 249.270448 
L 176.957892 248.746201 
L 179.370489 248.746201 
L 179.370489 248.221953 
L 183.580331 248.221953 
L 183.580331 247.697705 
L 333.168 247.697705 
" style="fill:none;stroke:#ff0000;stroke-linecap:square;stroke-width:1.5;"/>
   </g>
   <g id="line2d_59">
    <defs>
     <path d="M -6 6 
L 6 6 
L 6 -6 
L -6 -6 
z
" id="md3b06afc0e" style="stroke:#ff0000;stroke-linejoin:miter;stroke-width:1.5;"/>
    </defs>
    <g>
     <use style="fill-opacity:0;stroke:#ff0000;stroke-linejoin:miter;stroke-width:1.5;" x="148.980757" xlink:href="#md3b06afc0e" y="250.318944"/>
     <use style="fill-opacity:0;stroke:#ff0000;stroke-linejoin:miter;stroke-width:1.5;" x="183.580331" xlink:href="#md3b06afc0e" y="248.221953"/>
     <use style="fill-opacity:0;stroke:#ff0000;stroke-linejoin:miter;stroke-width:1.5;" x="183.580331" xlink:href="#md3b06afc0e" y="247.697705"/>
     <use style="fill-opacity:0;stroke:#ff0000;stroke-linejoin:miter;stroke-width:1.5;" x="183.580331" xlink:href="#md3b06afc0e" y="247.697705"/>
     <use style="fill-opacity:0;stroke:#ff0000;stroke-linejoin:miter;stroke-width:1.5;" x="333.168" xlink:href="#md3b06afc0e" y="247.697705"/>
    </g>
   </g>
   <g id="line2d_60">
    <path style="fill:none;stroke:#ff0000;stroke-linecap:square;stroke-width:1.5;"/>
    <g/>
   </g>
   <g id="line2d_61">
    <path clip-path="url(#p154669f805)" d="M 175.026741 249.270448 
" style="fill:none;stroke:#ff0000;stroke-linecap:square;stroke-width:1.5;"/>
    <defs>
     <path d="M -12 12 
L 12 -12 
M -12 -12 
L 12 12 
" id="m8b5ef2ca1a" style="stroke:#ff0000;"/>
    </defs>
    <g clip-path="url(#p154669f805)">
     <use style="fill:#ff0000;stroke:#ff0000;" x="175.026741" xlink:href="#m8b5ef2ca1a" y="249.270448"/>
    </g>
   </g>
   <g id="line2d_62">
    <defs>
     <path d="M 0 1.5 
C 0.397805 1.5 0.77937 1.341951 1.06066 1.06066 
C 1.341951 0.77937 1.5 0.397805 1.5 0 
C 1.5 -0.397805 1.341951 -0.77937 1.06066 -1.06066 
C 0.77937 -1.341951 0.397805 -1.5 0 -1.5 
C -0.397805 -1.5 -0.77937 -1.341951 -1.06066 -1.06066 
C -1.341951 -0.77937 -1.5 -0.397805 -1.5 0 
C -1.5 0.397805 -1.341951 0.77937 -1.06066 1.06066 
C -0.77937 1.341951 -0.397805 1.5 0 1.5 
z
" id="m5b705414ad" style="stroke:#bf00bf;"/>
    </defs>
    <g>
     <use style="fill:#bf00bf;stroke:#bf00bf;" x="200.072236" xlink:href="#m5b705414ad" y="252.940182"/>
     <use style="fill:#bf00bf;stroke:#bf00bf;" x="200.072236" xlink:href="#m5b705414ad" y="252.940182"/>
    </g>
   </g>
   <g id="line2d_63">
    <path d="M 113.670084 294.88 
L 113.670084 293.831505 
L 115.637457 293.831505 
L 115.637457 293.307257 
L 116.452985 293.307257 
L 116.452985 292.783009 
L 117.292845 292.783009 
L 117.292845 292.258761 
L 118.394526 292.258761 
L 118.394526 291.734514 
L 120.528351 291.734514 
L 120.528351 290.686018 
L 120.619323 290.686018 
L 120.619323 290.161771 
L 122.298767 290.161771 
L 122.298767 289.637523 
L 124.315167 289.637523 
L 124.315167 288.589027 
L 124.565393 288.589027 
L 124.565393 288.06478 
L 125.787042 288.06478 
L 125.787042 287.540532 
L 125.809418 287.540532 
L 125.809418 287.016284 
L 126.207287 287.016284 
L 126.207287 286.492036 
L 126.510496 286.492036 
L 126.510496 284.395046 
L 127.15655 284.395046 
L 127.15655 283.34655 
L 127.211598 283.34655 
L 127.211598 282.822302 
L 127.457154 282.822302 
L 127.457154 282.298055 
L 127.785844 282.298055 
L 127.785844 281.773807 
L 127.911623 281.773807 
L 127.911623 281.249559 
L 127.918218 281.249559 
L 127.918218 280.725312 
L 128.533435 280.725312 
L 128.533435 279.676816 
L 128.565213 279.676816 
L 128.565213 279.152568 
L 128.873566 279.152568 
L 128.873566 278.628321 
L 129.825869 278.628321 
L 129.825869 278.104073 
L 129.837667 278.104073 
L 129.837667 277.579825 
L 130.383199 277.579825 
L 130.383199 277.055578 
L 130.417439 277.055578 
L 130.417439 276.53133 
L 130.906408 276.53133 
L 130.906408 276.007082 
L 130.923024 276.007082 
L 130.923024 275.482834 
L 130.972774 275.482834 
L 130.972774 274.958587 
L 133.015693 274.958587 
L 133.015693 274.434339 
L 133.040181 274.434339 
L 133.040181 273.910091 
L 133.796584 273.910091 
L 133.796584 273.385844 
L 134.066106 273.385844 
L 134.066106 272.861596 
L 134.45812 272.861596 
L 134.45812 271.8131 
L 136.627256 271.8131 
L 136.627256 271.288853 
L 137.216861 271.288853 
L 137.216861 270.240357 
L 153.541892 270.240357 
L 153.541892 269.716109 
L 153.717687 269.716109 
L 153.717687 269.191862 
L 153.764655 269.191862 
L 153.764655 268.143366 
L 153.959949 268.143366 
L 153.959949 267.094871 
L 154.020707 267.094871 
L 154.020707 266.046375 
L 154.24024 266.046375 
L 154.24024 264.99788 
L 154.736296 264.99788 
L 154.736296 264.473632 
L 154.875632 264.473632 
L 154.875632 263.949385 
L 155.1442 263.949385 
L 155.1442 262.900889 
L 155.281623 262.900889 
L 155.281623 261.328146 
L 155.31112 261.328146 
L 155.31112 260.803898 
L 155.387309 260.803898 
L 155.387309 259.755403 
L 155.680868 259.755403 
L 155.680868 259.231155 
L 155.834886 259.231155 
L 155.834886 258.706907 
L 156.073612 258.706907 
L 156.073612 258.18266 
L 156.086422 258.18266 
L 156.086422 257.658412 
L 156.75205 257.658412 
L 156.75205 257.134164 
L 156.962641 257.134164 
L 156.962641 256.609917 
L 157.320311 256.609917 
L 157.320311 256.085669 
L 158.00491 256.085669 
L 158.00491 255.037173 
L 158.899737 255.037173 
L 158.899737 254.512926 
L 165.160355 254.512926 
L 165.160355 253.988678 
L 171.551373 253.988678 
L 171.551373 253.46443 
L 200.072236 253.46443 
L 200.072236 252.940182 
L 333.168 252.940182 
" style="fill:none;stroke:#bf00bf;stroke-linecap:square;stroke-width:1.5;"/>
   </g>
   <g id="line2d_64">
    <defs>
     <path d="M -0 8.485281 
L 8.485281 0 
L 0 -8.485281 
L -8.485281 -0 
z
" id="me7bd6a75ac" style="stroke:#bf00bf;stroke-linejoin:miter;stroke-width:1.5;"/>
    </defs>
    <g>
     <use style="fill-opacity:0;stroke:#bf00bf;stroke-linejoin:miter;stroke-width:1.5;" x="137.216861" xlink:href="#me7bd6a75ac" y="271.288853"/>
     <use style="fill-opacity:0;stroke:#bf00bf;stroke-linejoin:miter;stroke-width:1.5;" x="171.551373" xlink:href="#me7bd6a75ac" y="253.46443"/>
     <use style="fill-opacity:0;stroke:#bf00bf;stroke-linejoin:miter;stroke-width:1.5;" x="200.072236" xlink:href="#me7bd6a75ac" y="253.46443"/>
     <use style="fill-opacity:0;stroke:#bf00bf;stroke-linejoin:miter;stroke-width:1.5;" x="200.072236" xlink:href="#me7bd6a75ac" y="252.940182"/>
     <use style="fill-opacity:0;stroke:#bf00bf;stroke-linejoin:miter;stroke-width:1.5;" x="333.168" xlink:href="#me7bd6a75ac" y="252.940182"/>
    </g>
   </g>
   <g id="line2d_65">
    <path style="fill:none;stroke:#bf00bf;stroke-linecap:square;stroke-width:1.5;"/>
    <g/>
   </g>
   <g id="line2d_66">
    <path clip-path="url(#p154669f805)" d="M 175.026315 253.46443 
" style="fill:none;stroke:#bf00bf;stroke-linecap:square;stroke-width:1.5;"/>
    <defs>
     <path d="M -12 12 
L 12 -12 
M -12 -12 
L 12 12 
" id="mec08cf93bb" style="stroke:#bf00bf;"/>
    </defs>
    <g clip-path="url(#p154669f805)">
     <use style="fill:#bf00bf;stroke:#bf00bf;" x="175.026315" xlink:href="#mec08cf93bb" y="253.46443"/>
    </g>
   </g>
   <g id="line2d_67">
    <path d="M 333.168 252.940182 
L 363.64328 289.532673 
" style="fill:none;stroke:#bf00bf;stroke-linecap:square;stroke-width:1.5;"/>
    <g>
     <use style="fill-opacity:0;stroke:#bf00bf;stroke-linejoin:miter;stroke-width:1.5;" x="333.168" xlink:href="#me7bd6a75ac" y="252.940182"/>
     <use style="fill-opacity:0;stroke:#bf00bf;stroke-linejoin:miter;stroke-width:1.5;" x="363.64328" xlink:href="#me7bd6a75ac" y="289.532673"/>
    </g>
   </g>
   <g id="line2d_68">
    <path d="M 333.168 247.697705 
L 363.64328 238.198337 
" style="fill:none;stroke:#ff0000;stroke-linecap:square;stroke-width:1.5;"/>
    <g>
     <use style="fill-opacity:0;stroke:#ff0000;stroke-linejoin:miter;stroke-width:1.5;" x="333.168" xlink:href="#md3b06afc0e" y="247.697705"/>
     <use style="fill-opacity:0;stroke:#ff0000;stroke-linejoin:miter;stroke-width:1.5;" x="363.64328" xlink:href="#md3b06afc0e" y="238.198337"/>
    </g>
   </g>
   <g id="line2d_69">
    <path d="M 333.168 242.455228 
L 363.64328 186.864 
" style="fill:none;stroke:#000000;stroke-linecap:square;stroke-width:1.5;"/>
    <g>
     <use style="fill-opacity:0;stroke:#000000;stroke-width:1.5;" x="333.168" xlink:href="#m268a43eafc" y="242.455228"/>
     <use style="fill-opacity:0;stroke:#000000;stroke-width:1.5;" x="363.64328" xlink:href="#m268a43eafc" y="186.864"/>
    </g>
   </g>
   <g id="line2d_70">
    <path d="M 333.168 231.970274 
L 363.64328 135.529663 
" style="fill:none;stroke:#0000ff;stroke-linecap:square;stroke-width:1.5;"/>
    <g>
     <use style="fill-opacity:0;stroke:#0000ff;stroke-linejoin:bevel;stroke-width:1.5;" x="333.168" xlink:href="#m1664aa964c" y="231.970274"/>
     <use style="fill-opacity:0;stroke:#0000ff;stroke-linejoin:bevel;stroke-width:1.5;" x="363.64328" xlink:href="#m1664aa964c" y="135.529663"/>
    </g>
   </g>
   <g id="line2d_71">
    <path d="M 333.168 27.513663 
L 363.64328 84.195327 
" style="fill:none;stroke:#008000;stroke-linecap:square;stroke-width:1.5;"/>
    <g>
     <use style="fill-opacity:0;stroke:#008000;stroke-linejoin:miter;stroke-width:1.5;" x="333.168" xlink:href="#me476264f59" y="27.513663"/>
     <use style="fill-opacity:0;stroke:#008000;stroke-linejoin:miter;stroke-width:1.5;" x="363.64328" xlink:href="#me476264f59" y="84.195327"/>
    </g>
   </g>
   <g id="line2d_72">
    <path d="M 333.168 27.513663 
L 363.64328 32.86099 
" style="fill:none;stroke:#00bfbf;stroke-linecap:square;stroke-width:1.5;"/>
    <g>
     <use style="fill-opacity:0;stroke:#00bfbf;stroke-width:1.5;" x="333.168" xlink:href="#me24134c364" y="27.513663"/>
     <use style="fill-opacity:0;stroke:#00bfbf;stroke-width:1.5;" x="363.64328" xlink:href="#me24134c364" y="32.86099"/>
    </g>
   </g>
   <g id="line2d_73">
    <path d="M 333.168 294.88 
L 333.168 27.513663 
" style="fill:none;stroke:#000000;stroke-linecap:square;stroke-width:1.5;"/>
   </g>
   <g id="patch_3">
    <path d="M 56.12 294.88 
L 56.12 24.84 
" style="fill:none;stroke:#000000;stroke-linecap:square;stroke-linejoin:miter;stroke-width:0.8;"/>
   </g>
   <g id="patch_4">
    <path d="M 333.168 294.88 
L 333.168 24.84 
" style="fill:none;stroke:#000000;stroke-linecap:square;stroke-linejoin:miter;stroke-width:0.8;"/>
   </g>
   <g id="patch_5">
    <path d="M 56.12 294.88 
L 333.168 294.88 
" style="fill:none;stroke:#000000;stroke-linecap:square;stroke-linejoin:miter;stroke-width:0.8;"/>
   </g>
   <g id="patch_6">
    <path d="M 56.12 24.84 
L 333.168 24.84 
" style="fill:none;stroke:#000000;stroke-linecap:square;stroke-linejoin:miter;stroke-width:0.8;"/>
   </g>
   <g id="text_13">
    <!-- 40-D -->
    <defs>
     <path d="M 19.671875 64.796875 
L 19.671875 8.109375 
L 31.59375 8.109375 
Q 46.6875 8.109375 53.6875 14.9375 
Q 60.6875 21.78125 60.6875 36.53125 
Q 60.6875 51.171875 53.6875 57.984375 
Q 46.6875 64.796875 31.59375 64.796875 
z
M 9.8125 72.90625 
L 30.078125 72.90625 
Q 51.265625 72.90625 61.171875 64.09375 
Q 71.09375 55.28125 71.09375 36.53125 
Q 71.09375 17.671875 61.125 8.828125 
Q 51.171875 0 30.078125 0 
L 9.8125 0 
z
" id="DejaVuSans-44"/>
    </defs>
    <g transform="translate(369.18424 294.223611)scale(0.17 -0.17)">
     <use xlink:href="#DejaVuSans-34"/>
     <use x="63.623047" xlink:href="#DejaVuSans-30"/>
     <use x="127.246094" xlink:href="#DejaVuSans-2d"/>
     <use x="163.330078" xlink:href="#DejaVuSans-44"/>
    </g>
   </g>
   <g id="text_14">
    <!-- 20-D -->
    <g transform="translate(369.18424 242.889274)scale(0.17 -0.17)">
     <use xlink:href="#DejaVuSans-32"/>
     <use x="63.623047" xlink:href="#DejaVuSans-30"/>
     <use x="127.246094" xlink:href="#DejaVuSans-2d"/>
     <use x="163.330078" xlink:href="#DejaVuSans-44"/>
    </g>
   </g>
   <g id="text_15">
    <!-- 10-D -->
    <g transform="translate(369.18424 191.554937)scale(0.17 -0.17)">
     <use xlink:href="#DejaVuSans-31"/>
     <use x="63.623047" xlink:href="#DejaVuSans-30"/>
     <use x="127.246094" xlink:href="#DejaVuSans-2d"/>
     <use x="163.330078" xlink:href="#DejaVuSans-44"/>
    </g>
   </g>
   <g id="text_16">
    <!-- 5-D -->
    <defs>
     <path d="M 10.796875 72.90625 
L 49.515625 72.90625 
L 49.515625 64.59375 
L 19.828125 64.59375 
L 19.828125 46.734375 
Q 21.96875 47.46875 24.109375 47.828125 
Q 26.265625 48.1875 28.421875 48.1875 
Q 40.625 48.1875 47.75 41.5 
Q 54.890625 34.8125 54.890625 23.390625 
Q 54.890625 11.625 47.5625 5.09375 
Q 40.234375 -1.421875 26.90625 -1.421875 
Q 22.3125 -1.421875 17.546875 -0.640625 
Q 12.796875 0.140625 7.71875 1.703125 
L 7.71875 11.625 
Q 12.109375 9.234375 16.796875 8.0625 
Q 21.484375 6.890625 26.703125 6.890625 
Q 35.15625 6.890625 40.078125 11.328125 
Q 45.015625 15.765625 45.015625 23.390625 
Q 45.015625 31 40.078125 35.4375 
Q 35.15625 39.890625 26.703125 39.890625 
Q 22.75 39.890625 18.8125 39.015625 
Q 14.890625 38.140625 10.796875 36.28125 
z
" id="DejaVuSans-35"/>
    </defs>
    <g transform="translate(369.18424 140.220601)scale(0.17 -0.17)">
     <use xlink:href="#DejaVuSans-35"/>
     <use x="63.623047" xlink:href="#DejaVuSans-2d"/>
     <use x="99.707031" xlink:href="#DejaVuSans-44"/>
    </g>
   </g>
   <g id="text_17">
    <!-- 3-D -->
    <defs>
     <path d="M 40.578125 39.3125 
Q 47.65625 37.796875 51.625 33 
Q 55.609375 28.21875 55.609375 21.1875 
Q 55.609375 10.40625 48.1875 4.484375 
Q 40.765625 -1.421875 27.09375 -1.421875 
Q 22.515625 -1.421875 17.65625 -0.515625 
Q 12.796875 0.390625 7.625 2.203125 
L 7.625 11.71875 
Q 11.71875 9.328125 16.59375 8.109375 
Q 21.484375 6.890625 26.8125 6.890625 
Q 36.078125 6.890625 40.9375 10.546875 
Q 45.796875 14.203125 45.796875 21.1875 
Q 45.796875 27.640625 41.28125 31.265625 
Q 36.765625 34.90625 28.71875 34.90625 
L 20.21875 34.90625 
L 20.21875 43.015625 
L 29.109375 43.015625 
Q 36.375 43.015625 40.234375 45.921875 
Q 44.09375 48.828125 44.09375 54.296875 
Q 44.09375 59.90625 40.109375 62.90625 
Q 36.140625 65.921875 28.71875 65.921875 
Q 24.65625 65.921875 20.015625 65.03125 
Q 15.375 64.15625 9.8125 62.3125 
L 9.8125 71.09375 
Q 15.4375 72.65625 20.34375 73.4375 
Q 25.25 74.21875 29.59375 74.21875 
Q 40.828125 74.21875 47.359375 69.109375 
Q 53.90625 64.015625 53.90625 55.328125 
Q 53.90625 49.265625 50.4375 45.09375 
Q 46.96875 40.921875 40.578125 39.3125 
z
" id="DejaVuSans-33"/>
    </defs>
    <g transform="translate(369.18424 88.886264)scale(0.17 -0.17)">
     <use xlink:href="#DejaVuSans-33"/>
     <use x="63.623047" xlink:href="#DejaVuSans-2d"/>
     <use x="99.707031" xlink:href="#DejaVuSans-44"/>
    </g>
   </g>
   <g id="text_18">
    <!-- 2-D -->
    <g transform="translate(369.18424 37.551928)scale(0.17 -0.17)">
     <use xlink:href="#DejaVuSans-32"/>
     <use x="63.623047" xlink:href="#DejaVuSans-2d"/>
     <use x="99.707031" xlink:href="#DejaVuSans-44"/>
    </g>
   </g>
   <g id="text_19">
    <!-- bbob f20 -->
    <defs>
     <path d="M 48.6875 27.296875 
Q 48.6875 37.203125 44.609375 42.84375 
Q 40.53125 48.484375 33.40625 48.484375 
Q 26.265625 48.484375 22.1875 42.84375 
Q 18.109375 37.203125 18.109375 27.296875 
Q 18.109375 17.390625 22.1875 11.75 
Q 26.265625 6.109375 33.40625 6.109375 
Q 40.53125 6.109375 44.609375 11.75 
Q 48.6875 17.390625 48.6875 27.296875 
z
M 18.109375 46.390625 
Q 20.953125 51.265625 25.265625 53.625 
Q 29.59375 56 35.59375 56 
Q 45.5625 56 51.78125 48.09375 
Q 58.015625 40.1875 58.015625 27.296875 
Q 58.015625 14.40625 51.78125 6.484375 
Q 45.5625 -1.421875 35.59375 -1.421875 
Q 29.59375 -1.421875 25.265625 0.953125 
Q 20.953125 3.328125 18.109375 8.203125 
L 18.109375 0 
L 9.078125 0 
L 9.078125 75.984375 
L 18.109375 75.984375 
z
" id="DejaVuSans-62"/>
    </defs>
    <g transform="translate(58.89048 35.290806)scale(0.102 -0.102)">
     <use xlink:href="#DejaVuSans-62"/>
     <use x="63.476562" xlink:href="#DejaVuSans-62"/>
     <use x="126.953125" xlink:href="#DejaVuSans-6f"/>
     <use x="188.134766" xlink:href="#DejaVuSans-62"/>
     <use x="251.611328" xlink:href="#DejaVuSans-20"/>
     <use x="283.398438" xlink:href="#DejaVuSans-66"/>
     <use x="318.603516" xlink:href="#DejaVuSans-32"/>
     <use x="382.226562" xlink:href="#DejaVuSans-30"/>
    </g>
    <!-- 51 targets: 100..1e-08 -->
    <defs>
     <path d="M 11.71875 12.40625 
L 22.015625 12.40625 
L 22.015625 0 
L 11.71875 0 
z
M 11.71875 51.703125 
L 22.015625 51.703125 
L 22.015625 39.3125 
L 11.71875 39.3125 
z
" id="DejaVuSans-3a"/>
    </defs>
    <g transform="translate(58.89048 46.712575)scale(0.102 -0.102)">
     <use xlink:href="#DejaVuSans-35"/>
     <use x="63.623047" xlink:href="#DejaVuSans-31"/>
     <use x="127.246094" xlink:href="#DejaVuSans-20"/>
     <use x="159.033203" xlink:href="#DejaVuSans-74"/>
     <use x="198.242188" xlink:href="#DejaVuSans-61"/>
     <use x="259.521484" xlink:href="#DejaVuSans-72"/>
     <use x="300.619141" xlink:href="#DejaVuSans-67"/>
     <use x="364.095703" xlink:href="#DejaVuSans-65"/>
     <use x="425.619141" xlink:href="#DejaVuSans-74"/>
     <use x="464.828125" xlink:href="#DejaVuSans-73"/>
     <use x="516.927734" xlink:href="#DejaVuSans-3a"/>
     <use x="550.619141" xlink:href="#DejaVuSans-20"/>
     <use x="582.40625" xlink:href="#DejaVuSans-31"/>
     <use x="646.029297" xlink:href="#DejaVuSans-30"/>
     <use x="709.652344" xlink:href="#DejaVuSans-30"/>
     <use x="773.275391" xlink:href="#DejaVuSans-2e"/>
     <use x="805.0625" xlink:href="#DejaVuSans-2e"/>
     <use x="836.849609" xlink:href="#DejaVuSans-31"/>
     <use x="900.472656" xlink:href="#DejaVuSans-65"/>
     <use x="961.996094" xlink:href="#DejaVuSans-2d"/>
     <use x="998.080078" xlink:href="#DejaVuSans-30"/>
     <use x="1061.703125" xlink:href="#DejaVuSans-38"/>
    </g>
    <!-- 15 instances -->
    <g transform="translate(58.89048 58.134344)scale(0.102 -0.102)">
     <use xlink:href="#DejaVuSans-31"/>
     <use x="63.623047" xlink:href="#DejaVuSans-35"/>
     <use x="127.246094" xlink:href="#DejaVuSans-20"/>
     <use x="159.033203" xlink:href="#DejaVuSans-69"/>
     <use x="186.816406" xlink:href="#DejaVuSans-6e"/>
     <use x="250.195312" xlink:href="#DejaVuSans-73"/>
     <use x="302.294922" xlink:href="#DejaVuSans-74"/>
     <use x="341.503906" xlink:href="#DejaVuSans-61"/>
     <use x="402.783203" xlink:href="#DejaVuSans-6e"/>
     <use x="466.162109" xlink:href="#DejaVuSans-63"/>
     <use x="521.142578" xlink:href="#DejaVuSans-65"/>
     <use x="582.666016" xlink:href="#DejaVuSans-73"/>
    </g>
   </g>
   <g id="text_20">
    <!-- v0.0.0 -->
    <g style="fill:#808080;" transform="translate(178.96275 290.099912)scale(0.1 -0.1)">
     <use xlink:href="#DejaVuSans-76"/>
     <use x="59.179688" xlink:href="#DejaVuSans-30"/>
     <use x="122.802734" xlink:href="#DejaVuSans-2e"/>
     <use x="154.589844" xlink:href="#DejaVuSans-30"/>
     <use x="218.212891" xlink:href="#DejaVuSans-2e"/>
     <use x="250" xlink:href="#DejaVuSans-30"/>
    </g>
   </g>
   <g id="text_21">
    <!-- 20 Schwefel x*sin(x) -->
    <defs>
     <path d="M 53.515625 70.515625 
L 53.515625 60.890625 
Q 47.90625 63.578125 42.921875 64.890625 
Q 37.9375 66.21875 33.296875 66.21875 
Q 25.25 66.21875 20.875 63.09375 
Q 16.5 59.96875 16.5 54.203125 
Q 16.5 49.359375 19.40625 46.890625 
Q 22.3125 44.4375 30.421875 42.921875 
L 36.375 41.703125 
Q 47.40625 39.59375 52.65625 34.296875 
Q 57.90625 29 57.90625 20.125 
Q 57.90625 9.515625 50.796875 4.046875 
Q 43.703125 -1.421875 29.984375 -1.421875 
Q 24.8125 -1.421875 18.96875 -0.25 
Q 13.140625 0.921875 6.890625 3.21875 
L 6.890625 13.375 
Q 12.890625 10.015625 18.65625 8.296875 
Q 24.421875 6.59375 29.984375 6.59375 
Q 38.421875 6.59375 43.015625 9.90625 
Q 47.609375 13.234375 47.609375 19.390625 
Q 47.609375 24.75 44.3125 27.78125 
Q 41.015625 30.8125 33.5 32.328125 
L 27.484375 33.5 
Q 16.453125 35.6875 11.515625 40.375 
Q 6.59375 45.0625 6.59375 53.421875 
Q 6.59375 63.09375 13.40625 68.65625 
Q 20.21875 74.21875 32.171875 74.21875 
Q 37.3125 74.21875 42.625 73.28125 
Q 47.953125 72.359375 53.515625 70.515625 
z
" id="DejaVuSans-53"/>
     <path d="M 54.890625 33.015625 
L 54.890625 0 
L 45.90625 0 
L 45.90625 32.71875 
Q 45.90625 40.484375 42.875 44.328125 
Q 39.84375 48.1875 33.796875 48.1875 
Q 26.515625 48.1875 22.3125 43.546875 
Q 18.109375 38.921875 18.109375 30.90625 
L 18.109375 0 
L 9.078125 0 
L 9.078125 75.984375 
L 18.109375 75.984375 
L 18.109375 46.1875 
Q 21.34375 51.125 25.703125 53.5625 
Q 30.078125 56 35.796875 56 
Q 45.21875 56 50.046875 50.171875 
Q 54.890625 44.34375 54.890625 33.015625 
z
" id="DejaVuSans-68"/>
     <path d="M 4.203125 54.6875 
L 13.1875 54.6875 
L 24.421875 12.015625 
L 35.59375 54.6875 
L 46.1875 54.6875 
L 57.421875 12.015625 
L 68.609375 54.6875 
L 77.59375 54.6875 
L 63.28125 0 
L 52.6875 0 
L 40.921875 44.828125 
L 29.109375 0 
L 18.5 0 
z
" id="DejaVuSans-77"/>
     <path d="M 54.890625 54.6875 
L 35.109375 28.078125 
L 55.90625 0 
L 45.3125 0 
L 29.390625 21.484375 
L 13.484375 0 
L 2.875 0 
L 24.125 28.609375 
L 4.6875 54.6875 
L 15.28125 54.6875 
L 29.78125 35.203125 
L 44.28125 54.6875 
z
" id="DejaVuSans-78"/>
     <path d="M 47.015625 60.890625 
L 29.5 51.421875 
L 47.015625 41.890625 
L 44.1875 37.109375 
L 27.78125 47.015625 
L 27.78125 28.609375 
L 22.21875 28.609375 
L 22.21875 47.015625 
L 5.8125 37.109375 
L 2.984375 41.890625 
L 20.515625 51.421875 
L 2.984375 60.890625 
L 5.8125 65.71875 
L 22.21875 55.8125 
L 22.21875 74.21875 
L 27.78125 74.21875 
L 27.78125 55.8125 
L 44.1875 65.71875 
z
" id="DejaVuSans-2a"/>
    </defs>
    <g transform="translate(91.629937 18.84)scale(0.2 -0.2)">
     <use xlink:href="#DejaVuSans-32"/>
     <use x="63.623047" xlink:href="#DejaVuSans-30"/>
     <use x="127.246094" xlink:href="#DejaVuSans-20"/>
     <use x="159.033203" xlink:href="#DejaVuSans-53"/>
     <use x="222.509766" xlink:href="#DejaVuSans-63"/>
     <use x="277.490234" xlink:href="#DejaVuSans-68"/>
     <use x="340.869141" xlink:href="#DejaVuSans-77"/>
     <use x="422.65625" xlink:href="#DejaVuSans-65"/>
     <use x="484.179688" xlink:href="#DejaVuSans-66"/>
     <use x="519.384766" xlink:href="#DejaVuSans-65"/>
     <use x="580.908203" xlink:href="#DejaVuSans-6c"/>
     <use x="608.691406" xlink:href="#DejaVuSans-20"/>
     <use x="640.478516" xlink:href="#DejaVuSans-78"/>
     <use x="699.658203" xlink:href="#DejaVuSans-2a"/>
     <use x="749.658203" xlink:href="#DejaVuSans-73"/>
     <use x="801.757812" xlink:href="#DejaVuSans-69"/>
     <use x="829.541016" xlink:href="#DejaVuSans-6e"/>
     <use x="892.919922" xlink:href="#DejaVuSans-28"/>
     <use x="931.933594" xlink:href="#DejaVuSans-78"/>
     <use x="991.113281" xlink:href="#DejaVuSans-29"/>
    </g>
   </g>
  </g>
 </g>
 <defs>
  <clipPath id="p154669f805">
   <rect height="270.04" width="277.048" x="56.12" y="24.84"/>
  </clipPath>
 </defs>
</svg>
