<?xml version="1.0" encoding="utf-8" standalone="no"?>
<!DOCTYPE svg PUBLIC "-//W3C//DTD SVG 1.1//EN"
  "http://www.w3.org/Graphics/SVG/1.1/DTD/svg11.dtd">
<!-- Created with matplotlib (http://matplotlib.org/) -->
<svg height="345.6pt" version="1.1" viewBox="0 0 460.8 345.6" width="460.8pt" xmlns="http://www.w3.org/2000/svg" xmlns:xlink="http://www.w3.org/1999/xlink">
 <defs>
  <style type="text/css">
*{stroke-linecap:butt;stroke-linejoin:round;}
  </style>
 </defs>
 <g id="figure_1">
  <g id="patch_1">
   <path d="M 0 345.6 
L 460.8 345.6 
L 460.8 0 
L 0 0 
z
" style="fill:#ffffff;"/>
  </g>
  <g id="axes_1">
   <g id="patch_2">
    <path d="M 56.12 294.88 
L 333.168 294.88 
L 333.168 6.845228 
L 56.12 6.845228 
z
" style="fill:#ffffff;"/>
   </g>
   <g id="matplotlib.axis_1">
    <g id="xtick_1">
     <g id="line2d_1">
      <path clip-path="url(#p397f0eebfd)" d="M 56.12 294.88 
L 56.12 6.845228 
" style="fill:none;stroke:#b0b0b0;stroke-linecap:square;stroke-width:0.8;"/>
     </g>
     <g id="line2d_2">
      <defs>
       <path d="M 0 0 
L 0 3.5 
" id="m6127c375b9" style="stroke:#000000;stroke-width:0.8;"/>
      </defs>
      <g>
       <use style="stroke:#000000;stroke-width:0.8;" x="56.12" xlink:href="#m6127c375b9" y="294.88"/>
      </g>
     </g>
     <g id="text_1">
      <!-- 0 -->
      <defs>
       <path d="M 31.78125 66.40625 
Q 24.171875 66.40625 20.328125 58.90625 
Q 16.5 51.421875 16.5 36.375 
Q 16.5 21.390625 20.328125 13.890625 
Q 24.171875 6.390625 31.78125 6.390625 
Q 39.453125 6.390625 43.28125 13.890625 
Q 47.125 21.390625 47.125 36.375 
Q 47.125 51.421875 43.28125 58.90625 
Q 39.453125 66.40625 31.78125 66.40625 
z
M 31.78125 74.21875 
Q 44.046875 74.21875 50.515625 64.515625 
Q 56.984375 54.828125 56.984375 36.375 
Q 56.984375 17.96875 50.515625 8.265625 
Q 44.046875 -1.421875 31.78125 -1.421875 
Q 19.53125 -1.421875 13.0625 8.265625 
Q 6.59375 17.96875 6.59375 36.375 
Q 6.59375 54.828125 13.0625 64.515625 
Q 19.53125 74.21875 31.78125 74.21875 
z
" id="DejaVuSans-30"/>
      </defs>
      <g transform="translate(49.7575 317.076875)scale(0.2 -0.2)">
       <use xlink:href="#DejaVuSans-30"/>
      </g>
     </g>
    </g>
    <g id="xtick_2">
     <g id="line2d_3">
      <path clip-path="url(#p397f0eebfd)" d="M 135.276571 294.88 
L 135.276571 6.845228 
" style="fill:none;stroke:#b0b0b0;stroke-linecap:square;stroke-width:0.8;"/>
     </g>
     <g id="line2d_4">
      <g>
       <use style="stroke:#000000;stroke-width:0.8;" x="135.276571" xlink:href="#m6127c375b9" y="294.88"/>
      </g>
     </g>
     <g id="text_2">
      <!-- 2 -->
      <defs>
       <path d="M 19.1875 8.296875 
L 53.609375 8.296875 
L 53.609375 0 
L 7.328125 0 
L 7.328125 8.296875 
Q 12.9375 14.109375 22.625 23.890625 
Q 32.328125 33.6875 34.8125 36.53125 
Q 39.546875 41.84375 41.421875 45.53125 
Q 43.3125 49.21875 43.3125 52.78125 
Q 43.3125 58.59375 39.234375 62.25 
Q 35.15625 65.921875 28.609375 65.921875 
Q 23.96875 65.921875 18.8125 64.3125 
Q 13.671875 62.703125 7.8125 59.421875 
L 7.8125 69.390625 
Q 13.765625 71.78125 18.9375 73 
Q 24.125 74.21875 28.421875 74.21875 
Q 39.75 74.21875 46.484375 68.546875 
Q 53.21875 62.890625 53.21875 53.421875 
Q 53.21875 48.921875 51.53125 44.890625 
Q 49.859375 40.875 45.40625 35.40625 
Q 44.1875 33.984375 37.640625 27.21875 
Q 31.109375 20.453125 19.1875 8.296875 
z
" id="DejaVuSans-32"/>
      </defs>
      <g transform="translate(128.914071 317.076875)scale(0.2 -0.2)">
       <use xlink:href="#DejaVuSans-32"/>
      </g>
     </g>
    </g>
    <g id="xtick_3">
     <g id="line2d_5">
      <path clip-path="url(#p397f0eebfd)" d="M 214.433143 294.88 
L 214.433143 6.845228 
" style="fill:none;stroke:#b0b0b0;stroke-linecap:square;stroke-width:0.8;"/>
     </g>
     <g id="line2d_6">
      <g>
       <use style="stroke:#000000;stroke-width:0.8;" x="214.433143" xlink:href="#m6127c375b9" y="294.88"/>
      </g>
     </g>
     <g id="text_3">
      <!-- 4 -->
      <defs>
       <path d="M 37.796875 64.3125 
L 12.890625 25.390625 
L 37.796875 25.390625 
z
M 35.203125 72.90625 
L 47.609375 72.90625 
L 47.609375 25.390625 
L 58.015625 25.390625 
L 58.015625 17.1875 
L 47.609375 17.1875 
L 47.609375 0 
L 37.796875 0 
L 37.796875 17.1875 
L 4.890625 17.1875 
L 4.890625 26.703125 
z
" id="DejaVuSans-34"/>
      </defs>
      <g transform="translate(208.070643 317.076875)scale(0.2 -0.2)">
       <use xlink:href="#DejaVuSans-34"/>
      </g>
     </g>
    </g>
    <g id="xtick_4">
     <g id="line2d_7">
      <path clip-path="url(#p397f0eebfd)" d="M 293.589714 294.88 
L 293.589714 6.845228 
" style="fill:none;stroke:#b0b0b0;stroke-linecap:square;stroke-width:0.8;"/>
     </g>
     <g id="line2d_8">
      <g>
       <use style="stroke:#000000;stroke-width:0.8;" x="293.589714" xlink:href="#m6127c375b9" y="294.88"/>
      </g>
     </g>
     <g id="text_4">
      <!-- 6 -->
      <defs>
       <path d="M 33.015625 40.375 
Q 26.375 40.375 22.484375 35.828125 
Q 18.609375 31.296875 18.609375 23.390625 
Q 18.609375 15.53125 22.484375 10.953125 
Q 26.375 6.390625 33.015625 6.390625 
Q 39.65625 6.390625 43.53125 10.953125 
Q 47.40625 15.53125 47.40625 23.390625 
Q 47.40625 31.296875 43.53125 35.828125 
Q 39.65625 40.375 33.015625 40.375 
z
M 52.59375 71.296875 
L 52.59375 62.3125 
Q 48.875 64.0625 45.09375 64.984375 
Q 41.3125 65.921875 37.59375 65.921875 
Q 27.828125 65.921875 22.671875 59.328125 
Q 17.53125 52.734375 16.796875 39.40625 
Q 19.671875 43.65625 24.015625 45.921875 
Q 28.375 48.1875 33.59375 48.1875 
Q 44.578125 48.1875 50.953125 41.515625 
Q 57.328125 34.859375 57.328125 23.390625 
Q 57.328125 12.15625 50.6875 5.359375 
Q 44.046875 -1.421875 33.015625 -1.421875 
Q 20.359375 -1.421875 13.671875 8.265625 
Q 6.984375 17.96875 6.984375 36.375 
Q 6.984375 53.65625 15.1875 63.9375 
Q 23.390625 74.21875 37.203125 74.21875 
Q 40.921875 74.21875 44.703125 73.484375 
Q 48.484375 72.75 52.59375 71.296875 
z
" id="DejaVuSans-36"/>
      </defs>
      <g transform="translate(287.227214 317.076875)scale(0.2 -0.2)">
       <use xlink:href="#DejaVuSans-36"/>
      </g>
     </g>
    </g>
    <g id="xtick_5">
     <g id="line2d_9">
      <path clip-path="url(#p397f0eebfd)" d="M 56.12 294.88 
L 56.12 6.845228 
" style="fill:none;stroke:#b0b0b0;stroke-linecap:square;stroke-width:0.8;"/>
     </g>
     <g id="line2d_10">
      <defs>
       <path d="M 0 0 
L 0 2 
" id="m38463ce5f6" style="stroke:#000000;stroke-width:0.6;"/>
      </defs>
      <g>
       <use style="stroke:#000000;stroke-width:0.6;" x="56.12" xlink:href="#m38463ce5f6" y="294.88"/>
      </g>
     </g>
    </g>
    <g id="xtick_6">
     <g id="line2d_11">
      <path clip-path="url(#p397f0eebfd)" d="M 95.698286 294.88 
L 95.698286 6.845228 
" style="fill:none;stroke:#b0b0b0;stroke-linecap:square;stroke-width:0.8;"/>
     </g>
     <g id="line2d_12">
      <g>
       <use style="stroke:#000000;stroke-width:0.6;" x="95.698286" xlink:href="#m38463ce5f6" y="294.88"/>
      </g>
     </g>
    </g>
    <g id="xtick_7">
     <g id="line2d_13">
      <path clip-path="url(#p397f0eebfd)" d="M 135.276571 294.88 
L 135.276571 6.845228 
" style="fill:none;stroke:#b0b0b0;stroke-linecap:square;stroke-width:0.8;"/>
     </g>
     <g id="line2d_14">
      <g>
       <use style="stroke:#000000;stroke-width:0.6;" x="135.276571" xlink:href="#m38463ce5f6" y="294.88"/>
      </g>
     </g>
    </g>
    <g id="xtick_8">
     <g id="line2d_15">
      <path clip-path="url(#p397f0eebfd)" d="M 174.854857 294.88 
L 174.854857 6.845228 
" style="fill:none;stroke:#b0b0b0;stroke-linecap:square;stroke-width:0.8;"/>
     </g>
     <g id="line2d_16">
      <g>
       <use style="stroke:#000000;stroke-width:0.6;" x="174.854857" xlink:href="#m38463ce5f6" y="294.88"/>
      </g>
     </g>
    </g>
    <g id="xtick_9">
     <g id="line2d_17">
      <path clip-path="url(#p397f0eebfd)" d="M 214.433143 294.88 
L 214.433143 6.845228 
" style="fill:none;stroke:#b0b0b0;stroke-linecap:square;stroke-width:0.8;"/>
     </g>
     <g id="line2d_18">
      <g>
       <use style="stroke:#000000;stroke-width:0.6;" x="214.433143" xlink:href="#m38463ce5f6" y="294.88"/>
      </g>
     </g>
    </g>
    <g id="xtick_10">
     <g id="line2d_19">
      <path clip-path="url(#p397f0eebfd)" d="M 254.011429 294.88 
L 254.011429 6.845228 
" style="fill:none;stroke:#b0b0b0;stroke-linecap:square;stroke-width:0.8;"/>
     </g>
     <g id="line2d_20">
      <g>
       <use style="stroke:#000000;stroke-width:0.6;" x="254.011429" xlink:href="#m38463ce5f6" y="294.88"/>
      </g>
     </g>
    </g>
    <g id="xtick_11">
     <g id="line2d_21">
      <path clip-path="url(#p397f0eebfd)" d="M 293.589714 294.88 
L 293.589714 6.845228 
" style="fill:none;stroke:#b0b0b0;stroke-linecap:square;stroke-width:0.8;"/>
     </g>
     <g id="line2d_22">
      <g>
       <use style="stroke:#000000;stroke-width:0.6;" x="293.589714" xlink:href="#m38463ce5f6" y="294.88"/>
      </g>
     </g>
    </g>
    <g id="xtick_12">
     <g id="line2d_23">
      <path clip-path="url(#p397f0eebfd)" d="M 333.168 294.88 
L 333.168 6.845228 
" style="fill:none;stroke:#b0b0b0;stroke-linecap:square;stroke-width:0.8;"/>
     </g>
     <g id="line2d_24">
      <g>
       <use style="stroke:#000000;stroke-width:0.6;" x="333.168" xlink:href="#m38463ce5f6" y="294.88"/>
      </g>
     </g>
    </g>
    <g id="text_5">
     <!-- log10(# f-evals / dimension) -->
     <defs>
      <path d="M 9.421875 75.984375 
L 18.40625 75.984375 
L 18.40625 0 
L 9.421875 0 
z
" id="DejaVuSans-6c"/>
      <path d="M 30.609375 48.390625 
Q 23.390625 48.390625 19.1875 42.75 
Q 14.984375 37.109375 14.984375 27.296875 
Q 14.984375 17.484375 19.15625 11.84375 
Q 23.34375 6.203125 30.609375 6.203125 
Q 37.796875 6.203125 41.984375 11.859375 
Q 46.1875 17.53125 46.1875 27.296875 
Q 46.1875 37.015625 41.984375 42.703125 
Q 37.796875 48.390625 30.609375 48.390625 
z
M 30.609375 56 
Q 42.328125 56 49.015625 48.375 
Q 55.71875 40.765625 55.71875 27.296875 
Q 55.71875 13.875 49.015625 6.21875 
Q 42.328125 -1.421875 30.609375 -1.421875 
Q 18.84375 -1.421875 12.171875 6.21875 
Q 5.515625 13.875 5.515625 27.296875 
Q 5.515625 40.765625 12.171875 48.375 
Q 18.84375 56 30.609375 56 
z
" id="DejaVuSans-6f"/>
      <path d="M 45.40625 27.984375 
Q 45.40625 37.75 41.375 43.109375 
Q 37.359375 48.484375 30.078125 48.484375 
Q 22.859375 48.484375 18.828125 43.109375 
Q 14.796875 37.75 14.796875 27.984375 
Q 14.796875 18.265625 18.828125 12.890625 
Q 22.859375 7.515625 30.078125 7.515625 
Q 37.359375 7.515625 41.375 12.890625 
Q 45.40625 18.265625 45.40625 27.984375 
z
M 54.390625 6.78125 
Q 54.390625 -7.171875 48.1875 -13.984375 
Q 42 -20.796875 29.203125 -20.796875 
Q 24.46875 -20.796875 20.265625 -20.09375 
Q 16.0625 -19.390625 12.109375 -17.921875 
L 12.109375 -9.1875 
Q 16.0625 -11.328125 19.921875 -12.34375 
Q 23.78125 -13.375 27.78125 -13.375 
Q 36.625 -13.375 41.015625 -8.765625 
Q 45.40625 -4.15625 45.40625 5.171875 
L 45.40625 9.625 
Q 42.625 4.78125 38.28125 2.390625 
Q 33.9375 0 27.875 0 
Q 17.828125 0 11.671875 7.65625 
Q 5.515625 15.328125 5.515625 27.984375 
Q 5.515625 40.671875 11.671875 48.328125 
Q 17.828125 56 27.875 56 
Q 33.9375 56 38.28125 53.609375 
Q 42.625 51.21875 45.40625 46.390625 
L 45.40625 54.6875 
L 54.390625 54.6875 
z
" id="DejaVuSans-67"/>
      <path d="M 12.40625 8.296875 
L 28.515625 8.296875 
L 28.515625 63.921875 
L 10.984375 60.40625 
L 10.984375 69.390625 
L 28.421875 72.90625 
L 38.28125 72.90625 
L 38.28125 8.296875 
L 54.390625 8.296875 
L 54.390625 0 
L 12.40625 0 
z
" id="DejaVuSans-31"/>
      <path d="M 31 75.875 
Q 24.46875 64.65625 21.28125 53.65625 
Q 18.109375 42.671875 18.109375 31.390625 
Q 18.109375 20.125 21.3125 9.0625 
Q 24.515625 -2 31 -13.1875 
L 23.1875 -13.1875 
Q 15.875 -1.703125 12.234375 9.375 
Q 8.59375 20.453125 8.59375 31.390625 
Q 8.59375 42.28125 12.203125 53.3125 
Q 15.828125 64.359375 23.1875 75.875 
z
" id="DejaVuSans-28"/>
      <path d="M 51.125 44 
L 36.921875 44 
L 32.8125 27.6875 
L 47.125 27.6875 
z
M 43.796875 71.78125 
L 38.71875 51.515625 
L 52.984375 51.515625 
L 58.109375 71.78125 
L 65.921875 71.78125 
L 60.890625 51.515625 
L 76.125 51.515625 
L 76.125 44 
L 58.984375 44 
L 54.984375 27.6875 
L 70.515625 27.6875 
L 70.515625 20.21875 
L 53.078125 20.21875 
L 48 0 
L 40.1875 0 
L 45.21875 20.21875 
L 30.90625 20.21875 
L 25.875 0 
L 18.015625 0 
L 23.09375 20.21875 
L 7.71875 20.21875 
L 7.71875 27.6875 
L 24.90625 27.6875 
L 29 44 
L 13.28125 44 
L 13.28125 51.515625 
L 30.90625 51.515625 
L 35.890625 71.78125 
z
" id="DejaVuSans-23"/>
      <path id="DejaVuSans-20"/>
      <path d="M 37.109375 75.984375 
L 37.109375 68.5 
L 28.515625 68.5 
Q 23.6875 68.5 21.796875 66.546875 
Q 19.921875 64.59375 19.921875 59.515625 
L 19.921875 54.6875 
L 34.71875 54.6875 
L 34.71875 47.703125 
L 19.921875 47.703125 
L 19.921875 0 
L 10.890625 0 
L 10.890625 47.703125 
L 2.296875 47.703125 
L 2.296875 54.6875 
L 10.890625 54.6875 
L 10.890625 58.5 
Q 10.890625 67.625 15.140625 71.796875 
Q 19.390625 75.984375 28.609375 75.984375 
z
" id="DejaVuSans-66"/>
      <path d="M 4.890625 31.390625 
L 31.203125 31.390625 
L 31.203125 23.390625 
L 4.890625 23.390625 
z
" id="DejaVuSans-2d"/>
      <path d="M 56.203125 29.59375 
L 56.203125 25.203125 
L 14.890625 25.203125 
Q 15.484375 15.921875 20.484375 11.0625 
Q 25.484375 6.203125 34.421875 6.203125 
Q 39.59375 6.203125 44.453125 7.46875 
Q 49.3125 8.734375 54.109375 11.28125 
L 54.109375 2.78125 
Q 49.265625 0.734375 44.1875 -0.34375 
Q 39.109375 -1.421875 33.890625 -1.421875 
Q 20.796875 -1.421875 13.15625 6.1875 
Q 5.515625 13.8125 5.515625 26.8125 
Q 5.515625 40.234375 12.765625 48.109375 
Q 20.015625 56 32.328125 56 
Q 43.359375 56 49.78125 48.890625 
Q 56.203125 41.796875 56.203125 29.59375 
z
M 47.21875 32.234375 
Q 47.125 39.59375 43.09375 43.984375 
Q 39.0625 48.390625 32.421875 48.390625 
Q 24.90625 48.390625 20.390625 44.140625 
Q 15.875 39.890625 15.1875 32.171875 
z
" id="DejaVuSans-65"/>
      <path d="M 2.984375 54.6875 
L 12.5 54.6875 
L 29.59375 8.796875 
L 46.6875 54.6875 
L 56.203125 54.6875 
L 35.6875 0 
L 23.484375 0 
z
" id="DejaVuSans-76"/>
      <path d="M 34.28125 27.484375 
Q 23.390625 27.484375 19.1875 25 
Q 14.984375 22.515625 14.984375 16.5 
Q 14.984375 11.71875 18.140625 8.90625 
Q 21.296875 6.109375 26.703125 6.109375 
Q 34.1875 6.109375 38.703125 11.40625 
Q 43.21875 16.703125 43.21875 25.484375 
L 43.21875 27.484375 
z
M 52.203125 31.203125 
L 52.203125 0 
L 43.21875 0 
L 43.21875 8.296875 
Q 40.140625 3.328125 35.546875 0.953125 
Q 30.953125 -1.421875 24.3125 -1.421875 
Q 15.921875 -1.421875 10.953125 3.296875 
Q 6 8.015625 6 15.921875 
Q 6 25.140625 12.171875 29.828125 
Q 18.359375 34.515625 30.609375 34.515625 
L 43.21875 34.515625 
L 43.21875 35.40625 
Q 43.21875 41.609375 39.140625 45 
Q 35.0625 48.390625 27.6875 48.390625 
Q 23 48.390625 18.546875 47.265625 
Q 14.109375 46.140625 10.015625 43.890625 
L 10.015625 52.203125 
Q 14.9375 54.109375 19.578125 55.046875 
Q 24.21875 56 28.609375 56 
Q 40.484375 56 46.34375 49.84375 
Q 52.203125 43.703125 52.203125 31.203125 
z
" id="DejaVuSans-61"/>
      <path d="M 44.28125 53.078125 
L 44.28125 44.578125 
Q 40.484375 46.53125 36.375 47.5 
Q 32.28125 48.484375 27.875 48.484375 
Q 21.1875 48.484375 17.84375 46.4375 
Q 14.5 44.390625 14.5 40.28125 
Q 14.5 37.15625 16.890625 35.375 
Q 19.28125 33.59375 26.515625 31.984375 
L 29.59375 31.296875 
Q 39.15625 29.25 43.1875 25.515625 
Q 47.21875 21.78125 47.21875 15.09375 
Q 47.21875 7.46875 41.1875 3.015625 
Q 35.15625 -1.421875 24.609375 -1.421875 
Q 20.21875 -1.421875 15.453125 -0.5625 
Q 10.6875 0.296875 5.421875 2 
L 5.421875 11.28125 
Q 10.40625 8.6875 15.234375 7.390625 
Q 20.0625 6.109375 24.8125 6.109375 
Q 31.15625 6.109375 34.5625 8.28125 
Q 37.984375 10.453125 37.984375 14.40625 
Q 37.984375 18.0625 35.515625 20.015625 
Q 33.0625 21.96875 24.703125 23.78125 
L 21.578125 24.515625 
Q 13.234375 26.265625 9.515625 29.90625 
Q 5.8125 33.546875 5.8125 39.890625 
Q 5.8125 47.609375 11.28125 51.796875 
Q 16.75 56 26.8125 56 
Q 31.78125 56 36.171875 55.265625 
Q 40.578125 54.546875 44.28125 53.078125 
z
" id="DejaVuSans-73"/>
      <path d="M 25.390625 72.90625 
L 33.6875 72.90625 
L 8.296875 -9.28125 
L 0 -9.28125 
z
" id="DejaVuSans-2f"/>
      <path d="M 45.40625 46.390625 
L 45.40625 75.984375 
L 54.390625 75.984375 
L 54.390625 0 
L 45.40625 0 
L 45.40625 8.203125 
Q 42.578125 3.328125 38.25 0.953125 
Q 33.9375 -1.421875 27.875 -1.421875 
Q 17.96875 -1.421875 11.734375 6.484375 
Q 5.515625 14.40625 5.515625 27.296875 
Q 5.515625 40.1875 11.734375 48.09375 
Q 17.96875 56 27.875 56 
Q 33.9375 56 38.25 53.625 
Q 42.578125 51.265625 45.40625 46.390625 
z
M 14.796875 27.296875 
Q 14.796875 17.390625 18.875 11.75 
Q 22.953125 6.109375 30.078125 6.109375 
Q 37.203125 6.109375 41.296875 11.75 
Q 45.40625 17.390625 45.40625 27.296875 
Q 45.40625 37.203125 41.296875 42.84375 
Q 37.203125 48.484375 30.078125 48.484375 
Q 22.953125 48.484375 18.875 42.84375 
Q 14.796875 37.203125 14.796875 27.296875 
z
" id="DejaVuSans-64"/>
      <path d="M 9.421875 54.6875 
L 18.40625 54.6875 
L 18.40625 0 
L 9.421875 0 
z
M 9.421875 75.984375 
L 18.40625 75.984375 
L 18.40625 64.59375 
L 9.421875 64.59375 
z
" id="DejaVuSans-69"/>
      <path d="M 52 44.1875 
Q 55.375 50.25 60.0625 53.125 
Q 64.75 56 71.09375 56 
Q 79.640625 56 84.28125 50.015625 
Q 88.921875 44.046875 88.921875 33.015625 
L 88.921875 0 
L 79.890625 0 
L 79.890625 32.71875 
Q 79.890625 40.578125 77.09375 44.375 
Q 74.3125 48.1875 68.609375 48.1875 
Q 61.625 48.1875 57.5625 43.546875 
Q 53.515625 38.921875 53.515625 30.90625 
L 53.515625 0 
L 44.484375 0 
L 44.484375 32.71875 
Q 44.484375 40.625 41.703125 44.40625 
Q 38.921875 48.1875 33.109375 48.1875 
Q 26.21875 48.1875 22.15625 43.53125 
Q 18.109375 38.875 18.109375 30.90625 
L 18.109375 0 
L 9.078125 0 
L 9.078125 54.6875 
L 18.109375 54.6875 
L 18.109375 46.1875 
Q 21.1875 51.21875 25.484375 53.609375 
Q 29.78125 56 35.6875 56 
Q 41.65625 56 45.828125 52.96875 
Q 50 49.953125 52 44.1875 
z
" id="DejaVuSans-6d"/>
      <path d="M 54.890625 33.015625 
L 54.890625 0 
L 45.90625 0 
L 45.90625 32.71875 
Q 45.90625 40.484375 42.875 44.328125 
Q 39.84375 48.1875 33.796875 48.1875 
Q 26.515625 48.1875 22.3125 43.546875 
Q 18.109375 38.921875 18.109375 30.90625 
L 18.109375 0 
L 9.078125 0 
L 9.078125 54.6875 
L 18.109375 54.6875 
L 18.109375 46.1875 
Q 21.34375 51.125 25.703125 53.5625 
Q 30.078125 56 35.796875 56 
Q 45.21875 56 50.046875 50.171875 
Q 54.890625 44.34375 54.890625 33.015625 
z
" id="DejaVuSans-6e"/>
      <path d="M 8.015625 75.875 
L 15.828125 75.875 
Q 23.140625 64.359375 26.78125 53.3125 
Q 30.421875 42.28125 30.421875 31.390625 
Q 30.421875 20.453125 26.78125 9.375 
Q 23.140625 -1.703125 15.828125 -13.1875 
L 8.015625 -13.1875 
Q 14.5 -2 17.703125 9.0625 
Q 20.90625 20.125 20.90625 31.390625 
Q 20.90625 42.671875 17.703125 53.65625 
Q 14.5 64.65625 8.015625 75.875 
z
" id="DejaVuSans-29"/>
     </defs>
     <g transform="translate(73.803219 338.153594)scale(0.17 -0.17)">
      <use xlink:href="#DejaVuSans-6c"/>
      <use x="27.783203" xlink:href="#DejaVuSans-6f"/>
      <use x="88.964844" xlink:href="#DejaVuSans-67"/>
      <use x="152.441406" xlink:href="#DejaVuSans-31"/>
      <use x="216.064453" xlink:href="#DejaVuSans-30"/>
      <use x="279.6875" xlink:href="#DejaVuSans-28"/>
      <use x="318.701172" xlink:href="#DejaVuSans-23"/>
      <use x="402.490234" xlink:href="#DejaVuSans-20"/>
      <use x="434.277344" xlink:href="#DejaVuSans-66"/>
      <use x="469.404297" xlink:href="#DejaVuSans-2d"/>
      <use x="505.488281" xlink:href="#DejaVuSans-65"/>
      <use x="567.011719" xlink:href="#DejaVuSans-76"/>
      <use x="626.191406" xlink:href="#DejaVuSans-61"/>
      <use x="687.470703" xlink:href="#DejaVuSans-6c"/>
      <use x="715.253906" xlink:href="#DejaVuSans-73"/>
      <use x="767.353516" xlink:href="#DejaVuSans-20"/>
      <use x="799.140625" xlink:href="#DejaVuSans-2f"/>
      <use x="832.832031" xlink:href="#DejaVuSans-20"/>
      <use x="864.619141" xlink:href="#DejaVuSans-64"/>
      <use x="928.095703" xlink:href="#DejaVuSans-69"/>
      <use x="955.878906" xlink:href="#DejaVuSans-6d"/>
      <use x="1053.291016" xlink:href="#DejaVuSans-65"/>
      <use x="1114.814453" xlink:href="#DejaVuSans-6e"/>
      <use x="1178.193359" xlink:href="#DejaVuSans-73"/>
      <use x="1230.292969" xlink:href="#DejaVuSans-69"/>
      <use x="1258.076172" xlink:href="#DejaVuSans-6f"/>
      <use x="1319.257812" xlink:href="#DejaVuSans-6e"/>
      <use x="1382.636719" xlink:href="#DejaVuSans-29"/>
     </g>
    </g>
   </g>
   <g id="matplotlib.axis_2">
    <g id="ytick_1">
     <g id="line2d_25">
      <path clip-path="url(#p397f0eebfd)" d="M 56.12 294.88 
L 333.168 294.88 
" style="fill:none;stroke:#b0b0b0;stroke-linecap:square;stroke-width:0.8;"/>
     </g>
     <g id="line2d_26">
      <defs>
       <path d="M 0 0 
L -3.5 0 
" id="mef4009ee64" style="stroke:#000000;stroke-width:0.8;"/>
      </defs>
      <g>
       <use style="stroke:#000000;stroke-width:0.8;" x="56.12" xlink:href="#mef4009ee64" y="294.88"/>
      </g>
     </g>
     <g id="text_6">
      <!-- 0.0 -->
      <defs>
       <path d="M 10.6875 12.40625 
L 21 12.40625 
L 21 0 
L 10.6875 0 
z
" id="DejaVuSans-2e"/>
      </defs>
      <g transform="translate(23.675 300.95875)scale(0.16 -0.16)">
       <use xlink:href="#DejaVuSans-30"/>
       <use x="63.623047" xlink:href="#DejaVuSans-2e"/>
       <use x="95.410156" xlink:href="#DejaVuSans-30"/>
      </g>
     </g>
    </g>
    <g id="ytick_2">
     <g id="line2d_27">
      <path clip-path="url(#p397f0eebfd)" d="M 56.12 237.843411 
L 333.168 237.843411 
" style="fill:none;stroke:#b0b0b0;stroke-linecap:square;stroke-width:0.8;"/>
     </g>
     <g id="line2d_28">
      <g>
       <use style="stroke:#000000;stroke-width:0.8;" x="56.12" xlink:href="#mef4009ee64" y="237.843411"/>
      </g>
     </g>
     <g id="text_7">
      <!-- 0.2 -->
      <g transform="translate(23.675 243.922161)scale(0.16 -0.16)">
       <use xlink:href="#DejaVuSans-30"/>
       <use x="63.623047" xlink:href="#DejaVuSans-2e"/>
       <use x="95.410156" xlink:href="#DejaVuSans-32"/>
      </g>
     </g>
    </g>
    <g id="ytick_3">
     <g id="line2d_29">
      <path clip-path="url(#p397f0eebfd)" d="M 56.12 180.806823 
L 333.168 180.806823 
" style="fill:none;stroke:#b0b0b0;stroke-linecap:square;stroke-width:0.8;"/>
     </g>
     <g id="line2d_30">
      <g>
       <use style="stroke:#000000;stroke-width:0.8;" x="56.12" xlink:href="#mef4009ee64" y="180.806823"/>
      </g>
     </g>
     <g id="text_8">
      <!-- 0.4 -->
      <g transform="translate(23.675 186.885573)scale(0.16 -0.16)">
       <use xlink:href="#DejaVuSans-30"/>
       <use x="63.623047" xlink:href="#DejaVuSans-2e"/>
       <use x="95.410156" xlink:href="#DejaVuSans-34"/>
      </g>
     </g>
    </g>
    <g id="ytick_4">
     <g id="line2d_31">
      <path clip-path="url(#p397f0eebfd)" d="M 56.12 123.770234 
L 333.168 123.770234 
" style="fill:none;stroke:#b0b0b0;stroke-linecap:square;stroke-width:0.8;"/>
     </g>
     <g id="line2d_32">
      <g>
       <use style="stroke:#000000;stroke-width:0.8;" x="56.12" xlink:href="#mef4009ee64" y="123.770234"/>
      </g>
     </g>
     <g id="text_9">
      <!-- 0.6 -->
      <g transform="translate(23.675 129.848984)scale(0.16 -0.16)">
       <use xlink:href="#DejaVuSans-30"/>
       <use x="63.623047" xlink:href="#DejaVuSans-2e"/>
       <use x="95.410156" xlink:href="#DejaVuSans-36"/>
      </g>
     </g>
    </g>
    <g id="ytick_5">
     <g id="line2d_33">
      <path clip-path="url(#p397f0eebfd)" d="M 56.12 66.733646 
L 333.168 66.733646 
" style="fill:none;stroke:#b0b0b0;stroke-linecap:square;stroke-width:0.8;"/>
     </g>
     <g id="line2d_34">
      <g>
       <use style="stroke:#000000;stroke-width:0.8;" x="56.12" xlink:href="#mef4009ee64" y="66.733646"/>
      </g>
     </g>
     <g id="text_10">
      <!-- 0.8 -->
      <defs>
       <path d="M 31.78125 34.625 
Q 24.75 34.625 20.71875 30.859375 
Q 16.703125 27.09375 16.703125 20.515625 
Q 16.703125 13.921875 20.71875 10.15625 
Q 24.75 6.390625 31.78125 6.390625 
Q 38.8125 6.390625 42.859375 10.171875 
Q 46.921875 13.96875 46.921875 20.515625 
Q 46.921875 27.09375 42.890625 30.859375 
Q 38.875 34.625 31.78125 34.625 
z
M 21.921875 38.8125 
Q 15.578125 40.375 12.03125 44.71875 
Q 8.5 49.078125 8.5 55.328125 
Q 8.5 64.0625 14.71875 69.140625 
Q 20.953125 74.21875 31.78125 74.21875 
Q 42.671875 74.21875 48.875 69.140625 
Q 55.078125 64.0625 55.078125 55.328125 
Q 55.078125 49.078125 51.53125 44.71875 
Q 48 40.375 41.703125 38.8125 
Q 48.828125 37.15625 52.796875 32.3125 
Q 56.78125 27.484375 56.78125 20.515625 
Q 56.78125 9.90625 50.3125 4.234375 
Q 43.84375 -1.421875 31.78125 -1.421875 
Q 19.734375 -1.421875 13.25 4.234375 
Q 6.78125 9.90625 6.78125 20.515625 
Q 6.78125 27.484375 10.78125 32.3125 
Q 14.796875 37.15625 21.921875 38.8125 
z
M 18.3125 54.390625 
Q 18.3125 48.734375 21.84375 45.5625 
Q 25.390625 42.390625 31.78125 42.390625 
Q 38.140625 42.390625 41.71875 45.5625 
Q 45.3125 48.734375 45.3125 54.390625 
Q 45.3125 60.0625 41.71875 63.234375 
Q 38.140625 66.40625 31.78125 66.40625 
Q 25.390625 66.40625 21.84375 63.234375 
Q 18.3125 60.0625 18.3125 54.390625 
z
" id="DejaVuSans-38"/>
      </defs>
      <g transform="translate(23.675 72.812396)scale(0.16 -0.16)">
       <use xlink:href="#DejaVuSans-30"/>
       <use x="63.623047" xlink:href="#DejaVuSans-2e"/>
       <use x="95.410156" xlink:href="#DejaVuSans-38"/>
      </g>
     </g>
    </g>
    <g id="ytick_6">
     <g id="line2d_35">
      <path clip-path="url(#p397f0eebfd)" d="M 56.12 9.697057 
L 333.168 9.697057 
" style="fill:none;stroke:#b0b0b0;stroke-linecap:square;stroke-width:0.8;"/>
     </g>
     <g id="line2d_36">
      <g>
       <use style="stroke:#000000;stroke-width:0.8;" x="56.12" xlink:href="#mef4009ee64" y="9.697057"/>
      </g>
     </g>
     <g id="text_11">
      <!-- 1.0 -->
      <g transform="translate(23.675 15.775807)scale(0.16 -0.16)">
       <use xlink:href="#DejaVuSans-31"/>
       <use x="63.623047" xlink:href="#DejaVuSans-2e"/>
       <use x="95.410156" xlink:href="#DejaVuSans-30"/>
      </g>
     </g>
    </g>
    <g id="text_12">
     <!-- Fraction of function,target pairs -->
     <defs>
      <path d="M 9.8125 72.90625 
L 51.703125 72.90625 
L 51.703125 64.59375 
L 19.671875 64.59375 
L 19.671875 43.109375 
L 48.578125 43.109375 
L 48.578125 34.8125 
L 19.671875 34.8125 
L 19.671875 0 
L 9.8125 0 
z
" id="DejaVuSans-46"/>
      <path d="M 41.109375 46.296875 
Q 39.59375 47.171875 37.8125 47.578125 
Q 36.03125 48 33.890625 48 
Q 26.265625 48 22.1875 43.046875 
Q 18.109375 38.09375 18.109375 28.8125 
L 18.109375 0 
L 9.078125 0 
L 9.078125 54.6875 
L 18.109375 54.6875 
L 18.109375 46.1875 
Q 20.953125 51.171875 25.484375 53.578125 
Q 30.03125 56 36.53125 56 
Q 37.453125 56 38.578125 55.875 
Q 39.703125 55.765625 41.0625 55.515625 
z
" id="DejaVuSans-72"/>
      <path d="M 48.78125 52.59375 
L 48.78125 44.1875 
Q 44.96875 46.296875 41.140625 47.34375 
Q 37.3125 48.390625 33.40625 48.390625 
Q 24.65625 48.390625 19.8125 42.84375 
Q 14.984375 37.3125 14.984375 27.296875 
Q 14.984375 17.28125 19.8125 11.734375 
Q 24.65625 6.203125 33.40625 6.203125 
Q 37.3125 6.203125 41.140625 7.25 
Q 44.96875 8.296875 48.78125 10.40625 
L 48.78125 2.09375 
Q 45.015625 0.34375 40.984375 -0.53125 
Q 36.96875 -1.421875 32.421875 -1.421875 
Q 20.0625 -1.421875 12.78125 6.34375 
Q 5.515625 14.109375 5.515625 27.296875 
Q 5.515625 40.671875 12.859375 48.328125 
Q 20.21875 56 33.015625 56 
Q 37.15625 56 41.109375 55.140625 
Q 45.0625 54.296875 48.78125 52.59375 
z
" id="DejaVuSans-63"/>
      <path d="M 18.3125 70.21875 
L 18.3125 54.6875 
L 36.8125 54.6875 
L 36.8125 47.703125 
L 18.3125 47.703125 
L 18.3125 18.015625 
Q 18.3125 11.328125 20.140625 9.421875 
Q 21.96875 7.515625 27.59375 7.515625 
L 36.8125 7.515625 
L 36.8125 0 
L 27.59375 0 
Q 17.1875 0 13.234375 3.875 
Q 9.28125 7.765625 9.28125 18.015625 
L 9.28125 47.703125 
L 2.6875 47.703125 
L 2.6875 54.6875 
L 9.28125 54.6875 
L 9.28125 70.21875 
z
" id="DejaVuSans-74"/>
      <path d="M 8.5 21.578125 
L 8.5 54.6875 
L 17.484375 54.6875 
L 17.484375 21.921875 
Q 17.484375 14.15625 20.5 10.265625 
Q 23.53125 6.390625 29.59375 6.390625 
Q 36.859375 6.390625 41.078125 11.03125 
Q 45.3125 15.671875 45.3125 23.6875 
L 45.3125 54.6875 
L 54.296875 54.6875 
L 54.296875 0 
L 45.3125 0 
L 45.3125 8.40625 
Q 42.046875 3.421875 37.71875 1 
Q 33.40625 -1.421875 27.6875 -1.421875 
Q 18.265625 -1.421875 13.375 4.4375 
Q 8.5 10.296875 8.5 21.578125 
z
M 31.109375 56 
z
" id="DejaVuSans-75"/>
      <path d="M 11.71875 12.40625 
L 22.015625 12.40625 
L 22.015625 4 
L 14.015625 -11.625 
L 7.71875 -11.625 
L 11.71875 4 
z
" id="DejaVuSans-2c"/>
      <path d="M 18.109375 8.203125 
L 18.109375 -20.796875 
L 9.078125 -20.796875 
L 9.078125 54.6875 
L 18.109375 54.6875 
L 18.109375 46.390625 
Q 20.953125 51.265625 25.265625 53.625 
Q 29.59375 56 35.59375 56 
Q 45.5625 56 51.78125 48.09375 
Q 58.015625 40.1875 58.015625 27.296875 
Q 58.015625 14.40625 51.78125 6.484375 
Q 45.5625 -1.421875 35.59375 -1.421875 
Q 29.59375 -1.421875 25.265625 0.953125 
Q 20.953125 3.328125 18.109375 8.203125 
z
M 48.6875 27.296875 
Q 48.6875 37.203125 44.609375 42.84375 
Q 40.53125 48.484375 33.40625 48.484375 
Q 26.265625 48.484375 22.1875 42.84375 
Q 18.109375 37.203125 18.109375 27.296875 
Q 18.109375 17.390625 22.1875 11.75 
Q 26.265625 6.109375 33.40625 6.109375 
Q 40.53125 6.109375 44.609375 11.75 
Q 48.6875 17.390625 48.6875 27.296875 
z
" id="DejaVuSans-70"/>
     </defs>
     <g transform="translate(16.139531 286.001989)rotate(-90)scale(0.17 -0.17)">
      <use xlink:href="#DejaVuSans-46"/>
      <use x="57.410156" xlink:href="#DejaVuSans-72"/>
      <use x="98.523438" xlink:href="#DejaVuSans-61"/>
      <use x="159.802734" xlink:href="#DejaVuSans-63"/>
      <use x="214.783203" xlink:href="#DejaVuSans-74"/>
      <use x="253.992188" xlink:href="#DejaVuSans-69"/>
      <use x="281.775391" xlink:href="#DejaVuSans-6f"/>
      <use x="342.957031" xlink:href="#DejaVuSans-6e"/>
      <use x="406.335938" xlink:href="#DejaVuSans-20"/>
      <use x="438.123047" xlink:href="#DejaVuSans-6f"/>
      <use x="499.304688" xlink:href="#DejaVuSans-66"/>
      <use x="534.509766" xlink:href="#DejaVuSans-20"/>
      <use x="566.296875" xlink:href="#DejaVuSans-66"/>
      <use x="601.501953" xlink:href="#DejaVuSans-75"/>
      <use x="664.880859" xlink:href="#DejaVuSans-6e"/>
      <use x="728.259766" xlink:href="#DejaVuSans-63"/>
      <use x="783.240234" xlink:href="#DejaVuSans-74"/>
      <use x="822.449219" xlink:href="#DejaVuSans-69"/>
      <use x="850.232422" xlink:href="#DejaVuSans-6f"/>
      <use x="911.414062" xlink:href="#DejaVuSans-6e"/>
      <use x="974.792969" xlink:href="#DejaVuSans-2c"/>
      <use x="1006.580078" xlink:href="#DejaVuSans-74"/>
      <use x="1045.789062" xlink:href="#DejaVuSans-61"/>
      <use x="1107.068359" xlink:href="#DejaVuSans-72"/>
      <use x="1148.166016" xlink:href="#DejaVuSans-67"/>
      <use x="1211.642578" xlink:href="#DejaVuSans-65"/>
      <use x="1273.166016" xlink:href="#DejaVuSans-74"/>
      <use x="1312.375" xlink:href="#DejaVuSans-20"/>
      <use x="1344.162109" xlink:href="#DejaVuSans-70"/>
      <use x="1407.638672" xlink:href="#DejaVuSans-61"/>
      <use x="1468.917969" xlink:href="#DejaVuSans-69"/>
      <use x="1496.701172" xlink:href="#DejaVuSans-72"/>
      <use x="1537.814453" xlink:href="#DejaVuSans-73"/>
     </g>
    </g>
   </g>
   <g id="line2d_37">
    <defs>
     <path d="M 0 1.5 
C 0.397805 1.5 0.77937 1.341951 1.06066 1.06066 
C 1.341951 0.77937 1.5 0.397805 1.5 0 
C 1.5 -0.397805 1.341951 -0.77937 1.06066 -1.06066 
C 0.77937 -1.341951 0.397805 -1.5 0 -1.5 
C -0.397805 -1.5 -0.77937 -1.341951 -1.06066 -1.06066 
C -1.341951 -0.77937 -1.5 -0.397805 -1.5 0 
C -1.5 0.397805 -1.341951 0.77937 -1.06066 1.06066 
C -0.77937 1.341951 -0.397805 1.5 0 1.5 
z
" id="mc2d639ff96" style="stroke:#000080;"/>
    </defs>
    <g>
     <use style="fill:#000080;stroke:#000080;" x="258.553448" xlink:href="#mc2d639ff96" y="177.451729"/>
     <use style="fill:#000080;stroke:#000080;" x="258.553448" xlink:href="#mc2d639ff96" y="177.451729"/>
    </g>
   </g>
   <g id="line2d_38">
    <path d="M 126.265455 294.88 
L 126.265455 294.320818 
L 130.739365 294.320818 
L 130.739365 293.202453 
L 131.569473 293.202453 
L 131.569473 292.643271 
L 132.684132 292.643271 
L 132.684132 290.965724 
L 133.079291 290.965724 
L 133.079291 288.728995 
L 133.196088 288.728995 
L 133.196088 287.051449 
L 133.465568 287.051449 
L 133.465568 286.492266 
L 133.805948 286.492266 
L 133.805948 285.933084 
L 135.138509 285.933084 
L 135.138509 283.696355 
L 136.180564 283.696355 
L 136.180564 283.137173 
L 136.439531 283.137173 
L 136.439531 282.577991 
L 136.567566 282.577991 
L 136.567566 282.018808 
L 136.694654 282.018808 
L 136.694654 281.459626 
L 136.82081 281.459626 
L 136.914823 279.782079 
L 137.377325 279.782079 
L 137.377325 279.222897 
L 137.498586 279.222897 
L 137.498586 278.663715 
L 137.738571 278.663715 
L 137.738571 278.104533 
L 138.496158 278.104533 
L 138.496158 276.986168 
L 139.112104 276.986168 
L 139.194412 275.867804 
L 139.626853 275.867804 
L 139.626853 275.308622 
L 139.812678 275.308622 
L 139.812678 274.749439 
L 139.996515 274.749439 
L 139.996515 273.631075 
L 140.612293 273.631075 
L 140.612293 273.071893 
L 140.961566 273.071893 
L 140.961566 271.394346 
L 141.206772 271.394346 
L 141.206772 270.275981 
L 142.337391 270.275981 
L 142.337391 269.716799 
L 142.675983 269.716799 
L 142.675983 269.157617 
L 142.920112 269.157617 
L 143.029944 267.48007 
L 143.737748 267.48007 
L 143.737748 266.920888 
L 144.193927 266.920888 
L 144.193927 266.361706 
L 144.757539 266.361706 
L 144.757539 265.802523 
L 145.245608 265.802523 
L 145.245608 265.243341 
L 145.550852 265.243341 
L 145.550852 264.684159 
L 145.813566 264.684159 
L 145.813566 263.565795 
L 146.035596 263.565795 
L 146.035596 263.006612 
L 146.254795 263.006612 
L 146.254795 262.44743 
L 146.381382 262.44743 
L 146.381382 260.769883 
L 146.738006 260.769883 
L 146.738006 259.651519 
L 147.0007 259.651519 
L 147.0007 259.092337 
L 147.293646 259.092337 
L 147.293646 256.855608 
L 147.980278 256.855608 
L 148.013081 255.737243 
L 148.38588 255.737243 
L 148.38588 252.38215 
L 148.844693 252.38215 
L 148.844693 251.263785 
L 149.45809 251.263785 
L 149.518243 247.908692 
L 152.001953 247.908692 
L 152.001953 246.790327 
L 154.612571 246.790327 
L 154.612571 245.671963 
L 154.812312 245.671963 
L 154.812312 244.553598 
L 158.376521 244.553598 
L 158.376521 243.994416 
L 158.836564 243.994416 
L 158.836564 243.435234 
L 159.242036 243.435234 
L 159.242036 242.876052 
L 160.009066 242.876052 
L 160.009066 242.316869 
L 162.051706 242.316869 
L 162.051706 241.757687 
L 162.317533 241.757687 
L 162.317533 241.198505 
L 163.287725 241.198505 
L 163.287725 240.639323 
L 167.743939 240.639323 
L 167.743939 240.08014 
L 168.235955 240.08014 
L 168.235955 239.520958 
L 170.151228 239.520958 
L 170.151228 238.961776 
L 171.287936 238.961776 
L 171.287936 237.284229 
L 171.45633 237.284229 
L 171.45633 236.725047 
L 172.000606 236.725047 
L 172.000606 235.606682 
L 172.901941 235.606682 
L 172.901941 235.0475 
L 173.429113 235.0475 
L 173.429113 234.488318 
L 173.827836 234.488318 
L 173.827836 233.929136 
L 174.009344 233.929136 
L 174.009344 233.369954 
L 174.373781 233.369954 
L 174.373781 232.251589 
L 176.19044 232.251589 
L 176.19044 231.692407 
L 177.714384 231.692407 
L 177.714384 231.133225 
L 178.599393 231.133225 
L 178.599393 230.01486 
L 184.302127 230.01486 
L 184.302127 229.455678 
L 188.787525 229.455678 
L 188.787525 228.337313 
L 189.664983 228.337313 
L 189.664983 227.778131 
L 189.806728 227.778131 
L 189.806728 227.218949 
L 190.570229 227.218949 
L 190.617012 226.100584 
L 191.162041 226.100584 
L 191.162041 224.98222 
L 192.428152 224.98222 
L 192.434335 223.304673 
L 192.556288 223.304673 
L 192.55997 222.186309 
L 192.689567 222.186309 
L 192.689567 221.627126 
L 192.801261 221.627126 
L 192.801261 221.067944 
L 192.96026 221.067944 
L 192.96026 220.508762 
L 193.394749 220.508762 
L 193.394749 219.94958 
L 193.520546 219.94958 
L 193.520546 219.390397 
L 194.195321 219.390397 
L 194.195321 218.831215 
L 194.307654 218.831215 
L 194.307654 218.272033 
L 194.854272 218.272033 
L 194.854272 217.712851 
L 200.133068 217.712851 
L 200.164636 216.594486 
L 202.127379 216.594486 
L 202.127379 216.035304 
L 202.383602 216.035304 
L 202.458281 214.91694 
L 202.562838 214.91694 
L 202.562838 214.357757 
L 203.263635 214.357757 
L 203.263635 213.798575 
L 206.83444 213.798575 
L 206.879846 212.680211 
L 207.654345 212.680211 
L 207.654345 211.561846 
L 207.857637 211.561846 
L 207.907459 210.443482 
L 208.333301 210.443482 
L 208.383231 209.325117 
L 208.646139 209.325117 
L 208.646139 208.765935 
L 209.625698 208.765935 
L 209.625698 207.64757 
L 211.53256 207.64757 
L 211.53256 207.088388 
L 212.417335 207.088388 
L 212.483693 205.970024 
L 212.928033 205.970024 
L 212.928033 205.410841 
L 213.115004 205.410841 
L 213.115004 204.851659 
L 215.407442 204.851659 
L 215.407442 204.292477 
L 215.853758 204.292477 
L 215.853758 203.733295 
L 216.322074 203.733295 
L 216.322074 203.174112 
L 218.410275 203.174112 
L 218.410275 202.61493 
L 218.785826 202.61493 
L 218.785826 202.055748 
L 218.900728 202.055748 
L 218.900728 201.496566 
L 219.337821 201.496566 
L 219.418264 200.378201 
L 221.289866 200.378201 
L 221.312689 199.259837 
L 222.121799 199.259837 
L 222.121799 198.700655 
L 223.688872 198.700655 
L 223.777126 197.023108 
L 224.209779 197.023108 
L 224.209779 196.463926 
L 225.326576 196.463926 
L 225.413545 195.345561 
L 225.460666 195.345561 
L 225.460666 194.786379 
L 227.31162 194.786379 
L 227.415959 193.668014 
L 227.496694 193.668014 
L 227.496694 193.108832 
L 228.974673 193.108832 
L 228.974673 192.54965 
L 231.575413 192.54965 
L 231.641859 190.872103 
L 231.984287 190.872103 
L 231.984287 190.312921 
L 233.006787 190.312921 
L 233.006787 189.753739 
L 233.191655 189.753739 
L 233.191655 189.194556 
L 233.915625 189.194556 
L 233.915625 188.635374 
L 235.04346 188.635374 
L 235.04346 188.076192 
L 235.164189 188.076192 
L 235.164189 187.51701 
L 235.37835 187.51701 
L 235.37835 186.957828 
L 237.019151 186.957828 
L 237.019151 186.398645 
L 237.973832 186.398645 
L 237.973832 185.839463 
L 238.834681 185.839463 
L 238.88813 184.721099 
L 239.744972 184.721099 
L 239.744972 184.161916 
L 241.115786 184.161916 
L 241.115786 183.602734 
L 242.555785 183.602734 
L 242.590895 182.48437 
L 243.294159 182.48437 
L 243.294159 181.925187 
L 244.573053 181.925187 
L 244.667626 180.806823 
L 245.135258 180.806823 
L 245.135258 180.247641 
L 247.926385 180.247641 
L 247.926385 179.688458 
L 250.237536 179.688458 
L 250.237536 179.129276 
L 251.424865 179.129276 
L 251.424865 178.570094 
L 253.292091 178.570094 
L 253.292091 178.010912 
L 258.553448 178.010912 
L 258.553448 177.451729 
L 333.168 177.451729 
L 333.168 177.451729 
" style="fill:none;stroke:#000080;stroke-linecap:square;stroke-width:1.5;"/>
   </g>
   <g id="line2d_39">
    <defs>
     <path d="M 0 6 
C 1.591219 6 3.117479 5.367802 4.242641 4.242641 
C 5.367802 3.117479 6 1.591219 6 0 
C 6 -1.591219 5.367802 -3.117479 4.242641 -4.242641 
C 3.117479 -5.367802 1.591219 -6 0 -6 
C -1.591219 -6 -3.117479 -5.367802 -4.242641 -4.242641 
C -5.367802 -3.117479 -6 -1.591219 -6 0 
C -6 1.591219 -5.367802 3.117479 -4.242641 4.242641 
C -3.117479 5.367802 -1.591219 6 0 6 
z
" id="m58dd9af711" style="stroke:#000080;stroke-width:1.5;"/>
    </defs>
    <g>
     <use style="fill-opacity:0;stroke:#000080;stroke-width:1.5;" x="142.675983" xlink:href="#m58dd9af711" y="269.157617"/>
     <use style="fill-opacity:0;stroke:#000080;stroke-width:1.5;" x="192.55997" xlink:href="#m58dd9af711" y="222.186309"/>
     <use style="fill-opacity:0;stroke:#000080;stroke-width:1.5;" x="235.04346" xlink:href="#m58dd9af711" y="188.635374"/>
     <use style="fill-opacity:0;stroke:#000080;stroke-width:1.5;" x="258.553448" xlink:href="#m58dd9af711" y="177.451729"/>
     <use style="fill-opacity:0;stroke:#000080;stroke-width:1.5;" x="333.168" xlink:href="#m58dd9af711" y="177.451729"/>
    </g>
   </g>
   <g id="line2d_40">
    <path style="fill:none;stroke:#000080;stroke-linecap:square;stroke-width:1.5;"/>
    <g/>
   </g>
   <g id="line2d_41">
    <path clip-path="url(#p397f0eebfd)" d="M 186.941843 229.455678 
" style="fill:none;stroke:#000080;stroke-linecap:square;stroke-width:1.5;"/>
    <defs>
     <path d="M -12 12 
L 12 -12 
M -12 -12 
L 12 12 
" id="mc683b32e64" style="stroke:#000080;"/>
    </defs>
    <g clip-path="url(#p397f0eebfd)">
     <use style="fill:#000080;stroke:#000080;" x="186.941843" xlink:href="#mc683b32e64" y="229.455678"/>
    </g>
   </g>
   <g id="line2d_42">
    <defs>
     <path d="M 0 1.5 
C 0.397805 1.5 0.77937 1.341951 1.06066 1.06066 
C 1.341951 0.77937 1.5 0.397805 1.5 0 
C 1.5 -0.397805 1.341951 -0.77937 1.06066 -1.06066 
C 0.77937 -1.341951 0.397805 -1.5 0 -1.5 
C -0.397805 -1.5 -0.77937 -1.341951 -1.06066 -1.06066 
C -1.341951 -0.77937 -1.5 -0.397805 -1.5 0 
C -1.5 0.397805 -1.341951 0.77937 -1.06066 1.06066 
C -0.77937 1.341951 -0.397805 1.5 0 1.5 
z
" id="m302f81592f" style="stroke:#ff00ff;"/>
    </defs>
    <g>
     <use style="fill:#ff00ff;stroke:#ff00ff;" x="260.796095" xlink:href="#m302f81592f" y="143.900795"/>
     <use style="fill:#ff00ff;stroke:#ff00ff;" x="260.796095" xlink:href="#m302f81592f" y="143.900795"/>
    </g>
   </g>
   <g id="line2d_43">
    <path d="M 28.455965 294.88 
L 28.455965 278.104533 
L 136.567566 278.104533 
L 136.567566 276.986168 
L 139.46596 276.986168 
L 139.519758 274.749439 
L 141.400449 274.749439 
L 141.400449 272.51271 
L 141.898705 272.51271 
L 141.945413 271.394346 
L 142.1079 271.394346 
L 142.1079 269.157617 
L 142.541345 269.157617 
L 142.541345 268.598435 
L 143.441019 268.598435 
L 143.526323 266.920888 
L 143.590024 266.920888 
L 143.69567 264.684159 
L 143.925832 264.684159 
L 143.925832 263.565795 
L 144.07071 263.565795 
L 144.07071 263.006612 
L 144.578385 263.006612 
L 144.578385 261.888248 
L 144.973998 261.888248 
L 144.973998 260.210701 
L 145.34158 260.210701 
L 145.34158 259.651519 
L 145.85077 259.651519 
L 145.85077 259.092337 
L 145.99879 259.092337 
L 145.99879 258.533154 
L 147.070079 258.533154 
L 147.070079 257.41479 
L 147.514343 257.41479 
L 147.514343 256.296425 
L 148.703609 256.296425 
L 148.735061 255.178061 
L 149.07729 255.178061 
L 149.07729 254.059696 
L 149.230624 254.059696 
L 149.230624 253.500514 
L 150.021216 253.500514 
L 150.093957 251.822967 
L 150.381881 251.822967 
L 150.381881 251.263785 
L 150.524054 251.263785 
L 150.538207 250.145421 
L 151.447433 250.145421 
L 151.501022 249.027056 
L 152.092658 249.027056 
L 152.092658 247.908692 
L 152.639586 247.908692 
L 152.702068 246.790327 
L 153.719157 246.790327 
L 153.719157 246.231145 
L 155.365957 246.231145 
L 155.365957 245.671963 
L 155.714923 245.671963 
L 155.714923 245.112781 
L 156.392294 245.112781 
L 156.392294 244.553598 
L 157.082693 244.553598 
L 157.082693 243.994416 
L 157.521738 243.994416 
L 157.521738 242.876052 
L 159.182249 242.876052 
L 159.276106 241.757687 
L 159.696387 241.757687 
L 159.696387 241.198505 
L 160.122845 241.198505 
L 160.122845 240.639323 
L 162.954351 240.639323 
L 162.954351 240.08014 
L 163.314656 240.08014 
L 163.314656 238.402594 
L 165.01091 238.402594 
L 165.01091 237.843411 
L 165.192802 237.843411 
L 165.192802 237.284229 
L 165.545004 237.284229 
L 165.545004 236.725047 
L 166.364215 236.725047 
L 166.364215 235.606682 
L 167.205265 235.606682 
L 167.205265 234.488318 
L 167.754334 234.488318 
L 167.754334 232.810771 
L 168.241007 232.810771 
L 168.241007 231.692407 
L 169.217869 231.692407 
L 169.289299 230.574042 
L 169.711761 230.574042 
L 169.776554 229.455678 
L 170.051505 229.455678 
L 170.146708 227.778131 
L 170.702735 227.778131 
L 170.702735 226.659767 
L 171.032212 226.659767 
L 171.032212 226.100584 
L 171.82519 226.100584 
L 171.82519 225.541402 
L 172.109843 225.541402 
L 172.109843 224.98222 
L 173.458967 224.98222 
L 173.458967 224.423038 
L 173.798616 224.423038 
L 173.798616 223.863855 
L 175.869388 223.863855 
L 175.869388 223.304673 
L 176.521213 223.304673 
L 176.521213 222.745491 
L 177.125137 222.745491 
L 177.125137 221.627126 
L 178.557871 221.627126 
L 178.563413 220.508762 
L 180.899107 220.508762 
L 180.899107 219.94958 
L 184.845053 219.94958 
L 184.845053 219.390397 
L 189.000183 219.390397 
L 189.000183 218.831215 
L 189.13252 218.831215 
L 189.232597 217.712851 
L 189.641729 217.712851 
L 189.660625 216.594486 
L 191.564641 216.594486 
L 191.564641 216.035304 
L 191.677405 216.035304 
L 191.685154 214.91694 
L 191.811239 214.91694 
L 191.811239 214.357757 
L 192.184038 214.357757 
L 192.202843 213.239393 
L 193.191303 213.239393 
L 193.191303 212.680211 
L 193.369011 212.680211 
L 193.369011 212.121028 
L 194.196437 212.121028 
L 194.196437 211.002664 
L 194.317629 211.002664 
L 194.426967 209.884299 
L 195.170293 209.884299 
L 195.170293 209.325117 
L 195.880779 209.325117 
L 195.880779 208.765935 
L 199.936044 208.765935 
L 199.936044 208.206753 
L 200.258993 208.206753 
L 200.258993 207.64757 
L 202.263297 207.64757 
L 202.263297 206.529206 
L 202.522329 206.529206 
L 202.522329 205.970024 
L 202.947348 205.970024 
L 202.947348 205.410841 
L 203.325412 205.410841 
L 203.329348 203.733295 
L 206.587157 203.733295 
L 206.587157 203.174112 
L 206.73251 203.174112 
L 206.73251 202.055748 
L 207.508385 202.055748 
L 207.508385 201.496566 
L 207.958138 201.496566 
L 208.052575 200.378201 
L 208.248775 200.378201 
L 208.304844 198.141472 
L 208.597933 198.141472 
L 208.69661 197.023108 
L 209.02605 197.023108 
L 209.02605 196.463926 
L 209.346985 196.463926 
L 209.44698 194.227197 
L 210.269636 194.227197 
L 210.269636 193.668014 
L 212.122985 193.668014 
L 212.122985 193.108832 
L 212.27917 193.108832 
L 212.307981 191.990468 
L 212.394126 191.990468 
L 212.394126 191.431285 
L 212.558232 191.431285 
L 212.627487 189.753739 
L 212.672105 189.753739 
L 212.701026 188.635374 
L 212.890469 188.635374 
L 212.890469 188.076192 
L 213.040981 188.076192 
L 213.149859 186.957828 
L 213.22489 186.957828 
L 213.22489 186.398645 
L 214.206484 186.398645 
L 214.206484 185.839463 
L 215.976439 185.839463 
L 216.050756 184.721099 
L 216.107297 184.721099 
L 216.107297 184.161916 
L 216.385404 184.161916 
L 216.44575 183.043552 
L 216.536939 183.043552 
L 216.536939 182.48437 
L 216.804043 182.48437 
L 216.804043 181.925187 
L 218.818886 181.925187 
L 218.818886 181.366005 
L 218.99985 181.366005 
L 219.050643 180.247641 
L 219.235176 180.247641 
L 219.235176 179.688458 
L 219.363645 179.688458 
L 219.414405 178.570094 
L 220.802021 178.570094 
L 220.802021 178.010912 
L 221.37937 178.010912 
L 221.433674 176.892547 
L 221.632688 176.892547 
L 221.723354 175.774183 
L 221.789137 175.774183 
L 221.834566 174.655818 
L 221.987645 174.655818 
L 221.987645 174.096636 
L 223.354181 174.096636 
L 223.354181 173.537454 
L 223.67703 173.537454 
L 223.777326 172.419089 
L 225.409552 172.419089 
L 225.409552 171.300725 
L 225.594076 171.300725 
L 225.594076 170.18236 
L 225.7204 170.18236 
L 225.807532 169.063996 
L 225.8435 169.063996 
L 225.861545 167.386449 
L 227.13964 167.386449 
L 227.13964 166.827267 
L 227.399799 166.827267 
L 227.464671 165.14972 
L 228.853871 165.14972 
L 228.853871 164.590538 
L 228.990156 164.590538 
L 228.990156 164.031356 
L 229.224087 164.031356 
L 229.224087 163.472173 
L 230.270844 163.472173 
L 230.270844 162.912991 
L 230.390136 162.912991 
L 230.484301 161.794627 
L 231.64729 161.794627 
L 231.64729 161.235444 
L 232.833705 161.235444 
L 232.833705 160.676262 
L 234.025937 160.676262 
L 234.025937 160.11708 
L 234.179086 160.11708 
L 234.179086 159.557898 
L 235.08228 159.557898 
L 235.08228 158.998715 
L 235.246118 158.998715 
L 235.246118 158.439533 
L 236.20278 158.439533 
L 236.260616 156.761987 
L 236.317104 156.761987 
L 236.317104 155.643622 
L 237.071547 155.643622 
L 237.181352 153.406893 
L 237.19992 153.406893 
L 237.19992 152.847711 
L 239.752381 152.847711 
L 239.752381 152.288529 
L 240.508413 152.288529 
L 240.508413 151.170164 
L 241.161295 151.170164 
L 241.161295 150.610982 
L 241.274904 150.610982 
L 241.274904 150.0518 
L 241.892032 150.0518 
L 241.954471 148.933435 
L 242.049947 148.933435 
L 242.049947 148.374253 
L 242.580871 148.374253 
L 242.640861 147.255888 
L 243.966756 147.255888 
L 243.966756 146.696706 
L 245.220662 146.696706 
L 245.220662 146.137524 
L 246.803584 146.137524 
L 246.803584 145.578342 
L 247.268903 145.578342 
L 247.276992 144.459977 
L 260.796095 144.459977 
L 260.796095 143.900795 
L 333.168 143.900795 
L 333.168 143.900795 
" style="fill:none;stroke:#ff00ff;stroke-linecap:square;stroke-width:1.5;"/>
   </g>
   <g id="line2d_44">
    <defs>
     <path d="M -0 8.485281 
L 5.091169 0 
L 0 -8.485281 
L -5.091169 -0 
z
" id="m76e0d84e02" style="stroke:#ff00ff;stroke-linejoin:miter;stroke-width:1.5;"/>
    </defs>
    <g>
     <use style="fill-opacity:0;stroke:#ff00ff;stroke-linejoin:miter;stroke-width:1.5;" x="150.021216" xlink:href="#m76e0d84e02" y="252.941332"/>
     <use style="fill-opacity:0;stroke:#ff00ff;stroke-linejoin:miter;stroke-width:1.5;" x="210.269636" xlink:href="#m76e0d84e02" y="193.668014"/>
     <use style="fill-opacity:0;stroke:#ff00ff;stroke-linejoin:miter;stroke-width:1.5;" x="260.796095" xlink:href="#m76e0d84e02" y="144.459977"/>
     <use style="fill-opacity:0;stroke:#ff00ff;stroke-linejoin:miter;stroke-width:1.5;" x="260.796095" xlink:href="#m76e0d84e02" y="143.900795"/>
     <use style="fill-opacity:0;stroke:#ff00ff;stroke-linejoin:miter;stroke-width:1.5;" x="333.168" xlink:href="#m76e0d84e02" y="143.900795"/>
    </g>
   </g>
   <g id="line2d_45">
    <path style="fill:none;stroke:#ff00ff;stroke-linecap:square;stroke-width:1.5;"/>
    <g/>
   </g>
   <g id="line2d_46">
    <path clip-path="url(#p397f0eebfd)" d="M 186.941843 219.390397 
" style="fill:none;stroke:#ff00ff;stroke-linecap:square;stroke-width:1.5;"/>
    <defs>
     <path d="M -12 12 
L 12 -12 
M -12 -12 
L 12 12 
" id="mf1de8f7c27" style="stroke:#ff00ff;"/>
    </defs>
    <g clip-path="url(#p397f0eebfd)">
     <use style="fill:#ff00ff;stroke:#ff00ff;" x="186.941843" xlink:href="#mf1de8f7c27" y="219.390397"/>
    </g>
   </g>
   <g id="line2d_47">
    <defs>
     <path d="M 0 1.5 
C 0.397805 1.5 0.77937 1.341951 1.06066 1.06066 
C 1.341951 0.77937 1.5 0.397805 1.5 0 
C 1.5 -0.397805 1.341951 -0.77937 1.06066 -1.06066 
C 0.77937 -1.341951 0.397805 -1.5 0 -1.5 
C -0.397805 -1.5 -0.77937 -1.341951 -1.06066 -1.06066 
C -1.341951 -0.77937 -1.5 -0.397805 -1.5 0 
C -1.5 0.397805 -1.341951 0.77937 -1.06066 1.06066 
C -0.77937 1.341951 -0.397805 1.5 0 1.5 
z
" id="m417e123c8a" style="stroke:#ffa500;"/>
    </defs>
    <g>
     <use style="fill:#ffa500;stroke:#ffa500;" x="244.023828" xlink:href="#m417e123c8a" y="9.697057"/>
     <use style="fill:#ffa500;stroke:#ffa500;" x="244.023828" xlink:href="#m417e123c8a" y="9.697057"/>
    </g>
   </g>
   <g id="line2d_48">
    <path d="M 52.284468 294.88 
L 52.284468 294.320818 
L 72.543934 294.320818 
L 72.543934 292.643271 
L 73.817748 292.643271 
L 73.817748 292.084089 
L 77.155024 292.084089 
L 77.155024 291.524907 
L 99.941473 291.524907 
L 99.941473 290.965724 
L 107.088985 290.965724 
L 107.088985 290.406542 
L 108.120612 290.406542 
L 108.120612 288.169813 
L 110.746395 288.169813 
L 110.746395 287.610631 
L 114.351204 287.610631 
L 114.351204 287.051449 
L 116.934349 287.051449 
L 116.934349 284.255537 
L 120.283378 284.255537 
L 120.283378 283.696355 
L 120.447081 283.696355 
L 120.447081 283.137173 
L 121.086731 283.137173 
L 121.086731 282.577991 
L 121.70343 282.577991 
L 121.70343 281.459626 
L 123.970233 281.459626 
L 123.970233 280.900444 
L 125.187069 280.900444 
L 125.187069 279.782079 
L 126.496178 279.782079 
L 126.496178 279.222897 
L 128.444143 279.222897 
L 128.444143 276.986168 
L 128.748375 276.986168 
L 128.748375 276.426986 
L 131.696954 276.426986 
L 131.696954 275.867804 
L 131.907344 275.867804 
L 131.907344 273.631075 
L 132.843288 273.631075 
L 132.843288 273.071893 
L 134.029181 273.071893 
L 134.029181 271.953528 
L 134.213018 271.953528 
L 134.213018 270.835164 
L 134.681992 270.835164 
L 134.681992 269.157617 
L 135.684226 269.157617 
L 135.684226 268.039252 
L 135.917635 268.039252 
L 136.016705 265.802523 
L 136.049602 265.802523 
L 136.049602 265.243341 
L 136.245672 265.243341 
L 136.245672 264.684159 
L 136.852205 264.684159 
L 136.852205 264.124977 
L 137.346876 264.124977 
L 137.346876 261.888248 
L 137.558897 261.888248 
L 137.558897 261.329066 
L 137.798047 261.329066 
L 137.798047 260.769883 
L 139.573389 260.769883 
L 139.573389 260.210701 
L 141.328075 260.210701 
L 141.328075 259.651519 
L 142.268865 259.651519 
L 142.268865 259.092337 
L 143.073681 259.092337 
L 143.095508 257.41479 
L 143.716722 257.41479 
L 143.716722 256.296425 
L 143.967351 256.296425 
L 143.967351 255.178061 
L 144.295937 255.178061 
L 144.295937 254.618879 
L 144.558363 254.618879 
L 144.558363 253.500514 
L 144.698028 253.500514 
L 144.698028 252.941332 
L 145.187766 252.941332 
L 145.187766 251.263785 
L 145.36071 251.263785 
L 145.36071 249.586238 
L 145.738913 249.586238 
L 145.738913 249.027056 
L 145.943432 249.027056 
L 145.943432 247.34951 
L 146.808451 247.34951 
L 146.808451 246.790327 
L 147.242311 246.790327 
L 147.276552 245.671963 
L 147.564873 245.671963 
L 147.564873 243.994416 
L 147.782136 243.994416 
L 147.848437 241.757687 
L 148.013081 241.757687 
L 148.013081 240.639323 
L 148.353782 240.639323 
L 148.369839 238.402594 
L 149.061881 238.402594 
L 149.07729 237.284229 
L 150.021216 237.284229 
L 150.021216 236.165865 
L 150.151929 236.165865 
L 150.209706 234.488318 
L 150.367599 234.488318 
L 150.438891 231.133225 
L 151.190579 231.133225 
L 151.190579 230.01486 
L 151.766488 230.01486 
L 151.858442 228.896496 
L 152.298205 228.896496 
L 152.298205 228.337313 
L 153.230235 228.337313 
L 153.230235 227.778131 
L 153.882971 227.778131 
L 153.882971 227.218949 
L 154.183116 227.218949 
L 154.183116 226.659767 
L 154.38788 226.659767 
L 154.38788 226.100584 
L 154.579054 226.100584 
L 154.579054 225.541402 
L 155.291014 225.541402 
L 155.397975 222.745491 
L 155.609922 222.745491 
L 155.641489 221.627126 
L 156.169456 221.627126 
L 156.169456 220.508762 
L 156.67179 220.508762 
L 156.67179 219.390397 
L 156.819671 219.390397 
L 156.819671 218.831215 
L 157.005179 218.831215 
L 157.034288 217.153669 
L 157.255831 217.153669 
L 157.294071 214.91694 
L 157.634451 214.91694 
L 157.634451 214.357757 
L 157.92225 214.357757 
L 157.92225 213.239393 
L 158.766584 213.239393 
L 158.766584 212.680211 
L 158.992983 212.680211 
L 159.087877 210.443482 
L 159.335568 210.443482 
L 159.335568 209.884299 
L 159.495934 209.884299 
L 159.495934 209.325117 
L 160.049788 209.325117 
L 160.049788 208.765935 
L 160.324166 208.765935 
L 160.388094 205.410841 
L 160.633594 205.410841 
L 160.633594 204.851659 
L 160.79014 204.851659 
L 160.875636 202.61493 
L 161.567073 202.61493 
L 161.567073 200.937384 
L 161.744888 200.937384 
L 161.84777 199.819019 
L 162.06618 199.819019 
L 162.145574 197.023108 
L 162.346026 197.023108 
L 162.346026 196.463926 
L 162.480729 196.463926 
L 162.558234 195.345561 
L 162.830245 195.345561 
L 162.830245 194.786379 
L 163.029755 194.786379 
L 163.029755 193.108832 
L 163.186357 193.108832 
L 163.186357 191.990468 
L 163.687324 191.990468 
L 163.687324 191.431285 
L 163.831547 191.431285 
L 163.909707 186.957828 
L 164.276189 186.957828 
L 164.276189 186.398645 
L 164.478559 186.398645 
L 164.553838 185.280281 
L 164.603841 185.280281 
L 164.684787 184.161916 
L 165.21691 184.161916 
L 165.21691 183.043552 
L 165.390685 183.043552 
L 165.390685 182.48437 
L 165.568623 182.48437 
L 165.568623 180.806823 
L 165.849547 180.806823 
L 165.849547 179.688458 
L 166.103088 179.688458 
L 166.103088 179.129276 
L 166.682377 179.129276 
L 166.770637 178.010912 
L 166.858446 178.010912 
L 166.885795 175.774183 
L 167.354825 175.774183 
L 167.407926 174.655818 
L 167.481992 174.655818 
L 167.555741 172.419089 
L 167.681435 172.419089 
L 167.749138 170.741543 
L 167.852778 170.741543 
L 167.852778 170.18236 
L 168.124439 170.18236 
L 168.124439 169.063996 
L 168.256153 169.063996 
L 168.256153 167.945631 
L 168.600887 167.945631 
L 168.600887 167.386449 
L 168.782935 167.386449 
L 168.782935 166.827267 
L 168.943691 166.827267 
L 168.958231 165.708902 
L 169.308298 165.708902 
L 169.308298 165.14972 
L 169.753442 165.14972 
L 169.813469 163.472173 
L 170.151228 163.472173 
L 170.178325 161.794627 
L 170.380204 161.794627 
L 170.380204 160.676262 
L 170.597363 160.676262 
L 170.702735 158.998715 
L 170.898581 158.998715 
L 170.898581 158.439533 
L 171.164811 158.439533 
L 171.164811 157.880351 
L 171.351277 157.880351 
L 171.351277 157.321169 
L 171.464706 157.321169 
L 171.50235 155.08444 
L 171.886585 155.08444 
L 171.886585 154.525258 
L 172.346158 154.525258 
L 172.457181 153.406893 
L 172.681 153.406893 
L 172.758847 152.288529 
L 173.104861 152.288529 
L 173.104861 151.729346 
L 173.324213 151.729346 
L 173.421641 148.374253 
L 173.64808 148.374253 
L 173.64808 146.696706 
L 173.831485 146.696706 
L 173.831485 146.137524 
L 174.023782 146.137524 
L 174.023782 145.578342 
L 174.281617 145.578342 
L 174.281617 143.341613 
L 174.570626 143.341613 
L 174.570626 142.78243 
L 174.926898 142.78243 
L 174.926898 142.223248 
L 175.208713 142.223248 
L 175.316142 140.545702 
L 175.342895 140.545702 
L 175.342895 139.427337 
L 175.581814 139.427337 
L 175.611447 136.072244 
L 175.879107 136.072244 
L 175.963112 133.835515 
L 176.004961 133.835515 
L 176.004961 133.276332 
L 176.187259 133.276332 
L 176.228566 132.157968 
L 176.348745 132.157968 
L 176.348745 131.039603 
L 176.508728 131.039603 
L 176.508728 128.802874 
L 176.728998 128.802874 
L 176.769026 127.68451 
L 176.84574 127.68451 
L 176.922114 125.447781 
L 177.653147 125.447781 
L 177.763798 122.092688 
L 178.03449 122.092688 
L 178.03449 121.533505 
L 178.326286 121.533505 
L 178.385176 120.415141 
L 178.862783 120.415141 
L 178.862783 119.855959 
L 179.19713 119.855959 
L 179.19713 119.296776 
L 179.517235 119.296776 
L 179.517235 118.737594 
L 179.720468 118.737594 
L 179.720468 118.178412 
L 179.905959 118.178412 
L 179.911083 116.500865 
L 180.443265 116.500865 
L 180.443265 115.941683 
L 180.645719 115.941683 
L 180.645719 114.823318 
L 181.11541 114.823318 
L 181.11541 114.264136 
L 181.37143 114.264136 
L 181.472313 112.027407 
L 182.312285 112.027407 
L 182.312285 111.468225 
L 183.042806 111.468225 
L 183.042806 110.349861 
L 183.904708 110.349861 
L 183.99382 108.672314 
L 184.630326 108.672314 
L 184.630326 107.553949 
L 185.894683 107.553949 
L 185.894683 106.994767 
L 191.941495 106.994767 
L 191.941495 106.435585 
L 192.225382 106.435585 
L 192.225382 105.876403 
L 192.412068 105.876403 
L 192.434335 104.758038 
L 192.641999 104.758038 
L 192.641999 104.198856 
L 192.770981 104.198856 
L 192.803681 103.080491 
L 192.926656 103.080491 
L 192.954264 101.962127 
L 193.053527 101.962127 
L 193.164073 100.843762 
L 193.95259 100.843762 
L 194.001186 99.725398 
L 194.198668 99.725398 
L 194.199784 98.607033 
L 194.320952 98.607033 
L 194.320952 98.047851 
L 194.497281 98.047851 
L 194.566218 96.370304 
L 194.645752 96.370304 
L 194.723838 94.692758 
L 194.831705 94.692758 
L 194.872518 93.015211 
L 194.963461 93.015211 
L 195.033745 91.337664 
L 195.082561 91.337664 
L 195.082561 90.778482 
L 195.41629 90.778482 
L 195.490961 89.100935 
L 195.609557 89.100935 
L 195.703848 87.423389 
L 196.043887 87.423389 
L 196.043887 86.864206 
L 196.201491 86.864206 
L 196.295561 85.18666 
L 196.337972 85.18666 
L 196.337972 84.627477 
L 196.492914 84.627477 
L 196.492914 83.509113 
L 196.782358 83.509113 
L 196.871402 82.390748 
L 197.40452 82.390748 
L 197.445207 81.272384 
L 201.689982 81.272384 
L 201.689982 80.713202 
L 201.905084 80.713202 
L 201.905084 80.15402 
L 202.080187 80.15402 
L 202.080187 79.035655 
L 202.247239 79.035655 
L 202.247239 78.476473 
L 202.376671 78.476473 
L 202.416833 77.358108 
L 202.864663 77.358108 
L 202.865337 76.239744 
L 203.005593 76.239744 
L 203.045647 75.121379 
L 203.136093 75.121379 
L 203.136093 74.562197 
L 203.26561 74.562197 
L 203.33066 72.325468 
L 203.403956 72.325468 
L 203.403956 71.766286 
L 203.530181 71.766286 
L 203.627791 69.529557 
L 203.688276 69.529557 
L 203.785633 67.292828 
L 204.093898 67.292828 
L 204.102051 66.174463 
L 204.416445 66.174463 
L 204.471153 64.496917 
L 205.088985 64.496917 
L 205.088985 63.937735 
L 208.040612 63.937735 
L 208.040612 63.378552 
L 208.611927 63.378552 
L 208.699969 62.260188 
L 208.887058 62.260188 
L 208.986925 60.023459 
L 209.078236 60.023459 
L 209.092782 58.905094 
L 209.192863 58.905094 
L 209.266383 54.990819 
L 209.34375 54.990819 
L 209.42169 52.75409 
L 209.629336 52.75409 
L 209.724541 51.635725 
L 212.550179 51.635725 
L 212.550179 51.076543 
L 212.920527 51.076543 
L 212.920527 50.517361 
L 213.177248 50.517361 
L 213.194252 49.398996 
L 213.392249 49.398996 
L 213.488038 48.280632 
L 213.535552 48.280632 
L 213.592685 46.603085 
L 213.839275 46.603085 
L 213.839275 46.043903 
L 216.09981 46.043903 
L 216.126622 44.366356 
L 216.331312 44.366356 
L 216.387552 43.247992 
L 216.734423 43.247992 
L 216.814821 41.011263 
L 216.94066 41.011263 
L 216.94066 40.45208 
L 217.113596 40.45208 
L 217.113596 39.892898 
L 217.269367 39.892898 
L 217.269367 39.333716 
L 219.287871 39.333716 
L 219.338597 37.656169 
L 219.404111 37.656169 
L 219.49321 36.537805 
L 219.599677 36.537805 
L 219.599677 35.978622 
L 219.854092 35.978622 
L 219.854092 34.860258 
L 221.650769 34.860258 
L 221.724704 33.741894 
L 221.887006 33.741894 
L 221.986095 32.623529 
L 222.088799 32.623529 
L 222.088799 32.064347 
L 222.342582 32.064347 
L 222.342582 31.505165 
L 223.819591 31.505165 
L 223.89271 30.3868 
L 223.983674 30.3868 
L 224.045492 28.709253 
L 224.097099 28.709253 
L 224.097099 28.150071 
L 224.287463 28.150071 
L 224.287463 27.590889 
L 225.794401 27.590889 
L 225.885045 26.472524 
L 225.906397 26.472524 
L 225.970294 25.35416 
L 227.443719 25.35416 
L 227.513084 24.235795 
L 227.566646 24.235795 
L 227.617328 22.558249 
L 229.049746 22.558249 
L 229.136918 21.439884 
L 229.188864 21.439884 
L 229.188864 20.880702 
L 230.559667 20.880702 
L 230.625996 19.762337 
L 231.720502 19.762337 
L 231.720502 19.203155 
L 231.965703 19.203155 
L 231.965703 18.643973 
L 232.103613 18.643973 
L 232.103613 18.084791 
L 233.031738 18.084791 
L 233.12052 16.407244 
L 234.147015 16.407244 
L 234.147015 15.848062 
L 235.215979 15.848062 
L 235.282542 14.729697 
L 235.363097 14.729697 
L 235.363097 14.170515 
L 236.314698 14.170515 
L 236.314698 13.611333 
L 237.241557 13.611333 
L 237.241557 13.052151 
L 238.143931 13.052151 
L 238.143931 12.492968 
L 239.013382 12.492968 
L 239.013382 11.933786 
L 243.387598 11.933786 
L 243.387598 11.374604 
L 244.010915 11.374604 
L 244.023828 9.697057 
L 333.168 9.697057 
L 333.168 9.697057 
" style="fill:none;stroke:#ffa500;stroke-linecap:square;stroke-width:1.5;"/>
   </g>
   <g id="line2d_49">
    <defs>
     <path d="M 0 -6 
L -1.347084 -1.854102 
L -5.706339 -1.854102 
L -2.179628 0.708204 
L -3.526712 4.854102 
L -0 2.291796 
L 3.526712 4.854102 
L 2.179628 0.708204 
L 5.706339 -1.854102 
L 1.347084 -1.854102 
z
" id="ma32253bfa1" style="stroke:#ffa500;stroke-linejoin:bevel;stroke-width:1.5;"/>
    </defs>
    <g>
     <use style="fill-opacity:0;stroke:#ffa500;stroke-linejoin:bevel;stroke-width:1.5;" x="107.088985" xlink:href="#ma32253bfa1" y="290.406542"/>
     <use style="fill-opacity:0;stroke:#ffa500;stroke-linejoin:bevel;stroke-width:1.5;" x="158.766584" xlink:href="#ma32253bfa1" y="212.680211"/>
     <use style="fill-opacity:0;stroke:#ffa500;stroke-linejoin:bevel;stroke-width:1.5;" x="203.045647" xlink:href="#ma32253bfa1" y="75.680562"/>
     <use style="fill-opacity:0;stroke:#ffa500;stroke-linejoin:bevel;stroke-width:1.5;" x="244.023828" xlink:href="#ma32253bfa1" y="10.256239"/>
     <use style="fill-opacity:0;stroke:#ffa500;stroke-linejoin:bevel;stroke-width:1.5;" x="244.023828" xlink:href="#ma32253bfa1" y="9.697057"/>
     <use style="fill-opacity:0;stroke:#ffa500;stroke-linejoin:bevel;stroke-width:1.5;" x="333.168" xlink:href="#ma32253bfa1" y="9.697057"/>
    </g>
   </g>
   <g id="line2d_50">
    <path style="fill:none;stroke:#ffa500;stroke-linecap:square;stroke-width:1.5;"/>
    <g/>
   </g>
   <g id="line2d_51">
    <path clip-path="url(#p397f0eebfd)" d="M 186.941843 106.994767 
" style="fill:none;stroke:#ffa500;stroke-linecap:square;stroke-width:1.5;"/>
    <defs>
     <path d="M -12 12 
L 12 -12 
M -12 -12 
L 12 12 
" id="ma98f36531a" style="stroke:#ffa500;"/>
    </defs>
    <g clip-path="url(#p397f0eebfd)">
     <use style="fill:#ffa500;stroke:#ffa500;" x="186.941843" xlink:href="#ma98f36531a" y="106.994767"/>
    </g>
   </g>
   <g id="line2d_52">
    <defs>
     <path d="M 0 1.5 
C 0.397805 1.5 0.77937 1.341951 1.06066 1.06066 
C 1.341951 0.77937 1.5 0.397805 1.5 0 
C 1.5 -0.397805 1.341951 -0.77937 1.06066 -1.06066 
C 0.77937 -1.341951 0.397805 -1.5 0 -1.5 
C -0.397805 -1.5 -0.77937 -1.341951 -1.06066 -1.06066 
C -1.341951 -0.77937 -1.5 -0.397805 -1.5 0 
C -1.5 0.397805 -1.341951 0.77937 -1.06066 1.06066 
C -0.77937 1.341951 -0.397805 1.5 0 1.5 
z
" id="mf590a13a29" style="stroke:#6495ed;"/>
    </defs>
    <g>
     <use style="fill:#6495ed;stroke:#6495ed;" x="234.838383" xlink:href="#mf590a13a29" y="9.697057"/>
     <use style="fill:#6495ed;stroke:#6495ed;" x="234.838383" xlink:href="#mf590a13a29" y="9.697057"/>
    </g>
   </g>
   <g id="line2d_53">
    <path d="M 28.455965 294.88 
L 28.455965 288.728995 
L 47.339607 288.728995 
L 47.339607 287.051449 
L 64.198719 287.051449 
L 64.198719 285.933084 
L 69.672503 285.933084 
L 69.672503 285.373902 
L 71.168109 285.373902 
L 71.168109 284.255537 
L 76.11297 284.255537 
L 76.11297 283.696355 
L 84.458185 283.696355 
L 84.458185 280.900444 
L 87.481505 280.900444 
L 87.481505 278.104533 
L 91.862754 278.104533 
L 91.862754 276.986168 
L 94.634732 276.986168 
L 94.634732 276.426986 
L 102.20309 276.426986 
L 102.20309 275.867804 
L 103.120034 275.867804 
L 103.120034 275.308622 
L 103.777005 275.308622 
L 103.777005 274.749439 
L 105.991465 274.749439 
L 105.991465 273.071893 
L 112.514373 273.071893 
L 112.514373 272.51271 
L 119.782703 272.51271 
L 119.782703 271.394346 
L 120.034863 271.394346 
L 120.034863 270.275981 
L 121.854208 270.275981 
L 121.854208 269.157617 
L 123.970233 269.157617 
L 123.970233 267.48007 
L 125.972626 267.48007 
L 125.972626 266.920888 
L 127.05979 266.920888 
L 127.170329 264.124977 
L 128.596932 264.124977 
L 128.596932 263.565795 
L 128.948245 263.565795 
L 128.948245 263.006612 
L 129.145817 263.006612 
L 129.145817 261.329066 
L 129.677716 261.329066 
L 129.677716 259.651519 
L 131.354881 259.651519 
L 131.441039 257.973972 
L 132.279675 257.973972 
L 132.279675 256.855608 
L 132.483094 256.855608 
L 132.483094 256.296425 
L 135.345189 256.296425 
L 135.345189 255.178061 
L 135.884484 255.178061 
L 135.917635 253.500514 
L 136.883542 253.500514 
L 136.883542 252.941332 
L 137.008324 252.941332 
L 137.008324 252.38215 
L 138.410429 252.38215 
L 138.410429 251.822967 
L 138.581462 251.822967 
L 138.581462 250.145421 
L 138.890669 250.145421 
L 138.890669 249.586238 
L 139.384945 249.586238 
L 139.384945 248.467874 
L 140.15254 248.467874 
L 140.15254 247.34951 
L 141.15801 247.34951 
L 141.182408 245.112781 
L 141.686932 245.112781 
L 141.686932 243.994416 
L 141.828403 243.994416 
L 141.828403 242.876052 
L 143.204228 242.876052 
L 143.204228 242.316869 
L 143.884213 242.316869 
L 143.884213 241.757687 
L 144.498158 241.757687 
L 144.558363 240.08014 
L 144.797098 240.08014 
L 144.797098 239.520958 
L 144.954432 239.520958 
L 144.954432 238.402594 
L 145.43702 238.402594 
L 145.43702 237.843411 
L 145.569751 237.843411 
L 145.569751 237.284229 
L 145.85077 237.284229 
L 145.85077 236.725047 
L 146.090659 236.725047 
L 146.090659 235.0475 
L 146.720349 235.0475 
L 146.720349 233.929136 
L 147.344828 233.929136 
L 147.344828 233.369954 
L 147.682202 233.369954 
L 147.682202 230.574042 
L 147.963853 230.574042 
L 147.963853 230.01486 
L 148.593071 230.01486 
L 148.593071 227.778131 
L 149.786355 227.778131 
L 149.860095 226.659767 
L 150.396151 226.659767 
L 150.396151 226.100584 
L 150.915994 226.100584 
L 150.915994 224.98222 
L 151.567774 224.98222 
L 151.567774 224.423038 
L 152.027918 224.423038 
L 152.066791 221.627126 
L 152.664606 221.627126 
L 152.664606 219.390397 
L 153.035598 219.390397 
L 153.035598 218.831215 
L 153.3147 218.831215 
L 153.422692 217.153669 
L 153.68385 217.153669 
L 153.68385 216.035304 
L 156.462595 216.035304 
L 156.462595 214.357757 
L 157.484002 214.357757 
L 157.484002 212.680211 
L 158.00491 212.680211 
L 158.00491 200.937384 
L 158.581522 200.937384 
L 158.581522 200.378201 
L 159.267595 200.378201 
L 159.267595 198.700655 
L 160.00091 198.700655 
L 160.00091 197.58229 
L 160.155215 197.58229 
L 160.155215 197.023108 
L 160.968422 197.023108 
L 160.968422 184.721099 
L 161.266565 184.721099 
L 161.266565 177.451729 
L 161.424987 177.451729 
L 161.424987 173.537454 
L 161.825776 173.537454 
L 161.825776 172.419089 
L 162.116746 172.419089 
L 162.116746 171.859907 
L 162.381577 171.859907 
L 162.381577 169.623178 
L 162.981809 169.623178 
L 162.981809 168.504814 
L 163.575044 168.504814 
L 163.575044 167.945631 
L 164.314315 167.945631 
L 164.314315 166.827267 
L 164.610081 166.827267 
L 164.610081 165.708902 
L 164.906977 165.708902 
L 164.906977 164.590538 
L 165.42047 164.590538 
L 165.42047 158.998715 
L 167.210629 158.998715 
L 167.264176 157.321169 
L 188.578392 157.321169 
L 188.609307 155.08444 
L 188.795165 155.08444 
L 188.795165 153.966075 
L 189.060462 153.966075 
L 189.060462 152.847711 
L 189.18039 152.847711 
L 189.214715 151.170164 
L 189.428076 151.170164 
L 189.428076 150.610982 
L 189.789434 150.610982 
L 189.86999 136.072244 
L 190.109417 136.072244 
L 190.109417 135.513061 
L 190.369271 135.513061 
L 190.452711 123.211052 
L 190.527462 123.211052 
L 190.633493 120.974323 
L 190.751149 120.974323 
L 190.751149 120.415141 
L 190.870713 120.415141 
L 190.974654 119.296776 
L 191.163373 119.296776 
L 191.26424 113.704954 
L 191.69161 113.704954 
L 191.69161 112.586589 
L 199.664641 112.586589 
L 199.664641 112.027407 
L 199.807722 112.027407 
L 199.807722 110.909043 
L 199.920056 110.909043 
L 200.030071 108.672314 
L 200.25664 108.672314 
L 200.25664 108.113132 
L 200.382445 108.113132 
L 200.493417 103.080491 
L 200.655096 103.080491 
L 200.742232 91.896847 
L 200.802357 91.896847 
L 200.866058 89.100935 
L 200.990502 89.100935 
L 201.096135 86.305024 
L 201.152805 86.305024 
L 201.152805 81.272384 
L 201.394522 81.272384 
L 201.503545 80.15402 
L 206.388492 80.15402 
L 206.492477 79.035655 
L 206.56109 79.035655 
L 206.575757 77.917291 
L 206.771744 77.917291 
L 206.857959 71.207104 
L 206.892112 71.207104 
L 206.89531 68.970375 
L 207.043377 68.970375 
L 207.146112 61.701006 
L 207.29673 61.701006 
L 207.404694 55.550001 
L 207.469768 55.550001 
L 207.558715 54.431636 
L 211.273001 54.431636 
L 211.327039 53.313272 
L 211.527676 53.313272 
L 211.550457 50.517361 
L 211.693371 50.517361 
L 211.770206 46.043903 
L 211.904145 46.043903 
L 211.957032 44.925538 
L 212.086376 44.925538 
L 212.144991 43.807174 
L 214.985884 43.807174 
L 214.985884 43.247992 
L 215.232774 43.247992 
L 215.279635 42.129627 
L 215.346917 42.129627 
L 215.367767 36.537805 
L 215.503646 36.537805 
L 215.561691 35.41944 
L 218.023544 35.41944 
L 218.111473 34.301076 
L 218.140036 34.301076 
L 218.140036 33.741894 
L 218.263724 33.741894 
L 218.36056 29.827618 
L 218.376965 29.827618 
L 218.392263 28.150071 
L 218.539892 28.150071 
L 218.539892 27.590889 
L 220.835215 27.590889 
L 220.93206 26.472524 
L 220.967825 26.472524 
L 221.077478 25.35416 
L 221.113409 25.35416 
L 221.153682 23.676613 
L 223.045576 23.676613 
L 223.152304 20.32152 
L 223.16472 20.32152 
L 223.243556 19.203155 
L 225.12549 19.203155 
L 225.136559 16.966426 
L 225.24668 16.966426 
L 225.24668 16.407244 
L 226.827076 16.407244 
L 226.927078 13.611333 
L 228.44617 13.611333 
L 228.508885 12.492968 
L 229.972631 12.492968 
L 229.972631 11.933786 
L 231.319134 11.933786 
L 231.319134 11.374604 
L 232.579622 11.374604 
L 232.579622 10.815422 
L 234.79722 10.815422 
L 234.838383 9.697057 
L 333.168 9.697057 
L 333.168 9.697057 
" style="fill:none;stroke:#6495ed;stroke-linecap:square;stroke-width:1.5;"/>
   </g>
   <g id="line2d_54">
    <defs>
     <path d="M -0 6 
L 6 -6 
L -6 -6 
z
" id="m5f126d4462" style="stroke:#6495ed;stroke-linejoin:miter;stroke-width:1.5;"/>
    </defs>
    <g>
     <use style="fill-opacity:0;stroke:#6495ed;stroke-linejoin:miter;stroke-width:1.5;" x="103.120034" xlink:href="#m5f126d4462" y="275.308622"/>
     <use style="fill-opacity:0;stroke:#6495ed;stroke-linejoin:miter;stroke-width:1.5;" x="153.68385" xlink:href="#m5f126d4462" y="217.153669"/>
     <use style="fill-opacity:0;stroke:#6495ed;stroke-linejoin:miter;stroke-width:1.5;" x="201.503545" xlink:href="#m5f126d4462" y="80.713202"/>
     <use style="fill-opacity:0;stroke:#6495ed;stroke-linejoin:miter;stroke-width:1.5;" x="234.838383" xlink:href="#m5f126d4462" y="9.697057"/>
     <use style="fill-opacity:0;stroke:#6495ed;stroke-linejoin:miter;stroke-width:1.5;" x="234.838383" xlink:href="#m5f126d4462" y="9.697057"/>
     <use style="fill-opacity:0;stroke:#6495ed;stroke-linejoin:miter;stroke-width:1.5;" x="333.168" xlink:href="#m5f126d4462" y="9.697057"/>
    </g>
   </g>
   <g id="line2d_55">
    <path style="fill:none;stroke:#6495ed;stroke-linecap:square;stroke-width:1.5;"/>
    <g/>
   </g>
   <g id="line2d_56">
    <path clip-path="url(#p397f0eebfd)" d="M 186.941843 157.321169 
" style="fill:none;stroke:#6495ed;stroke-linecap:square;stroke-width:1.5;"/>
    <defs>
     <path d="M -12 12 
L 12 -12 
M -12 -12 
L 12 12 
" id="m737be04c4c" style="stroke:#6495ed;"/>
    </defs>
    <g clip-path="url(#p397f0eebfd)">
     <use style="fill:#6495ed;stroke:#6495ed;" x="186.941843" xlink:href="#m737be04c4c" y="157.321169"/>
    </g>
   </g>
   <g id="line2d_57">
    <path d="M 333.168 177.451729 
L 363.64328 289.176341 
" style="fill:none;stroke:#000080;stroke-linecap:square;stroke-width:1.5;"/>
    <g>
     <use style="fill-opacity:0;stroke:#000080;stroke-width:1.5;" x="333.168" xlink:href="#m58dd9af711" y="177.451729"/>
     <use style="fill-opacity:0;stroke:#000080;stroke-width:1.5;" x="363.64328" xlink:href="#m58dd9af711" y="289.176341"/>
    </g>
   </g>
   <g id="line2d_58">
    <path d="M 333.168 143.900795 
L 363.64328 197.917799 
" style="fill:none;stroke:#ff00ff;stroke-linecap:square;stroke-width:1.5;"/>
    <g>
     <use style="fill-opacity:0;stroke:#ff00ff;stroke-linejoin:miter;stroke-width:1.5;" x="333.168" xlink:href="#m76e0d84e02" y="143.900795"/>
     <use style="fill-opacity:0;stroke:#ff00ff;stroke-linejoin:miter;stroke-width:1.5;" x="363.64328" xlink:href="#m76e0d84e02" y="197.917799"/>
    </g>
   </g>
   <g id="line2d_59">
    <path d="M 333.168 9.697057 
L 363.64328 106.659258 
" style="fill:none;stroke:#ffa500;stroke-linecap:square;stroke-width:1.5;"/>
    <g>
     <use style="fill-opacity:0;stroke:#ffa500;stroke-linejoin:bevel;stroke-width:1.5;" x="333.168" xlink:href="#ma32253bfa1" y="9.697057"/>
     <use style="fill-opacity:0;stroke:#ffa500;stroke-linejoin:bevel;stroke-width:1.5;" x="363.64328" xlink:href="#ma32253bfa1" y="106.659258"/>
    </g>
   </g>
   <g id="line2d_60">
    <path d="M 333.168 9.697057 
L 363.64328 15.400716 
" style="fill:none;stroke:#6495ed;stroke-linecap:square;stroke-width:1.5;"/>
    <g>
     <use style="fill-opacity:0;stroke:#6495ed;stroke-linejoin:miter;stroke-width:1.5;" x="333.168" xlink:href="#m5f126d4462" y="9.697057"/>
     <use style="fill-opacity:0;stroke:#6495ed;stroke-linejoin:miter;stroke-width:1.5;" x="363.64328" xlink:href="#m5f126d4462" y="15.400716"/>
    </g>
   </g>
   <g id="line2d_61">
    <path d="M 333.168 294.88 
L 333.168 9.697057 
" style="fill:none;stroke:#000000;stroke-linecap:square;stroke-width:1.5;"/>
   </g>
   <g id="patch_3">
    <path d="M 56.12 294.88 
L 56.12 6.845228 
" style="fill:none;stroke:#000000;stroke-linecap:square;stroke-linejoin:miter;stroke-width:0.8;"/>
   </g>
   <g id="patch_4">
    <path d="M 333.168 294.88 
L 333.168 6.845228 
" style="fill:none;stroke:#000000;stroke-linecap:square;stroke-linejoin:miter;stroke-width:0.8;"/>
   </g>
   <g id="patch_5">
    <path d="M 56.12 294.88 
L 333.168 294.88 
" style="fill:none;stroke:#000000;stroke-linecap:square;stroke-linejoin:miter;stroke-width:0.8;"/>
   </g>
   <g id="patch_6">
    <path d="M 56.12 6.845228 
L 333.168 6.845228 
" style="fill:none;stroke:#000000;stroke-linecap:square;stroke-linejoin:miter;stroke-width:0.8;"/>
   </g>
   <g id="text_13">
    <!-- f8 -->
    <g transform="translate(369.18424 293.867279)scale(0.17 -0.17)">
     <use xlink:href="#DejaVuSans-66"/>
     <use x="35.205078" xlink:href="#DejaVuSans-38"/>
    </g>
   </g>
   <g id="text_14">
    <!-- f9 -->
    <defs>
     <path d="M 10.984375 1.515625 
L 10.984375 10.5 
Q 14.703125 8.734375 18.5 7.8125 
Q 22.3125 6.890625 25.984375 6.890625 
Q 35.75 6.890625 40.890625 13.453125 
Q 46.046875 20.015625 46.78125 33.40625 
Q 43.953125 29.203125 39.59375 26.953125 
Q 35.25 24.703125 29.984375 24.703125 
Q 19.046875 24.703125 12.671875 31.3125 
Q 6.296875 37.9375 6.296875 49.421875 
Q 6.296875 60.640625 12.9375 67.421875 
Q 19.578125 74.21875 30.609375 74.21875 
Q 43.265625 74.21875 49.921875 64.515625 
Q 56.59375 54.828125 56.59375 36.375 
Q 56.59375 19.140625 48.40625 8.859375 
Q 40.234375 -1.421875 26.421875 -1.421875 
Q 22.703125 -1.421875 18.890625 -0.6875 
Q 15.09375 0.046875 10.984375 1.515625 
z
M 30.609375 32.421875 
Q 37.25 32.421875 41.125 36.953125 
Q 45.015625 41.5 45.015625 49.421875 
Q 45.015625 57.28125 41.125 61.84375 
Q 37.25 66.40625 30.609375 66.40625 
Q 23.96875 66.40625 20.09375 61.84375 
Q 16.21875 57.28125 16.21875 49.421875 
Q 16.21875 41.5 20.09375 36.953125 
Q 23.96875 32.421875 30.609375 32.421875 
z
" id="DejaVuSans-39"/>
    </defs>
    <g transform="translate(369.18424 202.608737)scale(0.17 -0.17)">
     <use xlink:href="#DejaVuSans-66"/>
     <use x="35.205078" xlink:href="#DejaVuSans-39"/>
    </g>
   </g>
   <g id="text_15">
    <!-- f6 -->
    <g transform="translate(369.18424 111.350195)scale(0.17 -0.17)">
     <use xlink:href="#DejaVuSans-66"/>
     <use x="35.205078" xlink:href="#DejaVuSans-36"/>
    </g>
   </g>
   <g id="text_16">
    <!-- f7 -->
    <defs>
     <path d="M 8.203125 72.90625 
L 55.078125 72.90625 
L 55.078125 68.703125 
L 28.609375 0 
L 18.3125 0 
L 43.21875 64.59375 
L 8.203125 64.59375 
z
" id="DejaVuSans-37"/>
    </defs>
    <g transform="translate(369.18424 20.091654)scale(0.17 -0.17)">
     <use xlink:href="#DejaVuSans-66"/>
     <use x="35.205078" xlink:href="#DejaVuSans-37"/>
    </g>
   </g>
   <g id="text_17">
    <!-- bbob -->
    <defs>
     <path d="M 48.6875 27.296875 
Q 48.6875 37.203125 44.609375 42.84375 
Q 40.53125 48.484375 33.40625 48.484375 
Q 26.265625 48.484375 22.1875 42.84375 
Q 18.109375 37.203125 18.109375 27.296875 
Q 18.109375 17.390625 22.1875 11.75 
Q 26.265625 6.109375 33.40625 6.109375 
Q 40.53125 6.109375 44.609375 11.75 
Q 48.6875 17.390625 48.6875 27.296875 
z
M 18.109375 46.390625 
Q 20.953125 51.265625 25.265625 53.625 
Q 29.59375 56 35.59375 56 
Q 45.5625 56 51.78125 48.09375 
Q 58.015625 40.1875 58.015625 27.296875 
Q 58.015625 14.40625 51.78125 6.484375 
Q 45.5625 -1.421875 35.59375 -1.421875 
Q 29.59375 -1.421875 25.265625 0.953125 
Q 20.953125 3.328125 18.109375 8.203125 
L 18.109375 0 
L 9.078125 0 
L 9.078125 75.984375 
L 18.109375 75.984375 
z
" id="DejaVuSans-62"/>
    </defs>
    <g transform="translate(58.89048 17.475982)scale(0.102 -0.102)">
     <use xlink:href="#DejaVuSans-62"/>
     <use x="63.476562" xlink:href="#DejaVuSans-62"/>
     <use x="126.953125" xlink:href="#DejaVuSans-6f"/>
     <use x="188.134766" xlink:href="#DejaVuSans-62"/>
    </g>
    <!-- Misc. moderate functions, 5-D -->
    <defs>
     <path d="M 9.8125 72.90625 
L 24.515625 72.90625 
L 43.109375 23.296875 
L 61.8125 72.90625 
L 76.515625 72.90625 
L 76.515625 0 
L 66.890625 0 
L 66.890625 64.015625 
L 48.09375 14.015625 
L 38.1875 14.015625 
L 19.390625 64.015625 
L 19.390625 0 
L 9.8125 0 
z
" id="DejaVuSans-4d"/>
     <path d="M 10.796875 72.90625 
L 49.515625 72.90625 
L 49.515625 64.59375 
L 19.828125 64.59375 
L 19.828125 46.734375 
Q 21.96875 47.46875 24.109375 47.828125 
Q 26.265625 48.1875 28.421875 48.1875 
Q 40.625 48.1875 47.75 41.5 
Q 54.890625 34.8125 54.890625 23.390625 
Q 54.890625 11.625 47.5625 5.09375 
Q 40.234375 -1.421875 26.90625 -1.421875 
Q 22.3125 -1.421875 17.546875 -0.640625 
Q 12.796875 0.140625 7.71875 1.703125 
L 7.71875 11.625 
Q 12.109375 9.234375 16.796875 8.0625 
Q 21.484375 6.890625 26.703125 6.890625 
Q 35.15625 6.890625 40.078125 11.328125 
Q 45.015625 15.765625 45.015625 23.390625 
Q 45.015625 31 40.078125 35.4375 
Q 35.15625 39.890625 26.703125 39.890625 
Q 22.75 39.890625 18.8125 39.015625 
Q 14.890625 38.140625 10.796875 36.28125 
z
" id="DejaVuSans-35"/>
     <path d="M 19.671875 64.796875 
L 19.671875 8.109375 
L 31.59375 8.109375 
Q 46.6875 8.109375 53.6875 14.9375 
Q 60.6875 21.78125 60.6875 36.53125 
Q 60.6875 51.171875 53.6875 57.984375 
Q 46.6875 64.796875 31.59375 64.796875 
z
M 9.8125 72.90625 
L 30.078125 72.90625 
Q 51.265625 72.90625 61.171875 64.09375 
Q 71.09375 55.28125 71.09375 36.53125 
Q 71.09375 17.671875 61.125 8.828125 
Q 51.171875 0 30.078125 0 
L 9.8125 0 
z
" id="DejaVuSans-44"/>
    </defs>
    <g transform="translate(58.89048 28.89775)scale(0.102 -0.102)">
     <use xlink:href="#DejaVuSans-4d"/>
     <use x="86.279297" xlink:href="#DejaVuSans-69"/>
     <use x="114.0625" xlink:href="#DejaVuSans-73"/>
     <use x="166.162109" xlink:href="#DejaVuSans-63"/>
     <use x="221.142578" xlink:href="#DejaVuSans-2e"/>
     <use x="252.929688" xlink:href="#DejaVuSans-20"/>
     <use x="284.716797" xlink:href="#DejaVuSans-6d"/>
     <use x="382.128906" xlink:href="#DejaVuSans-6f"/>
     <use x="443.310547" xlink:href="#DejaVuSans-64"/>
     <use x="506.787109" xlink:href="#DejaVuSans-65"/>
     <use x="568.310547" xlink:href="#DejaVuSans-72"/>
     <use x="609.423828" xlink:href="#DejaVuSans-61"/>
     <use x="670.703125" xlink:href="#DejaVuSans-74"/>
     <use x="709.912109" xlink:href="#DejaVuSans-65"/>
     <use x="771.435547" xlink:href="#DejaVuSans-20"/>
     <use x="803.222656" xlink:href="#DejaVuSans-66"/>
     <use x="838.427734" xlink:href="#DejaVuSans-75"/>
     <use x="901.806641" xlink:href="#DejaVuSans-6e"/>
     <use x="965.185547" xlink:href="#DejaVuSans-63"/>
     <use x="1020.166016" xlink:href="#DejaVuSans-74"/>
     <use x="1059.375" xlink:href="#DejaVuSans-69"/>
     <use x="1087.158203" xlink:href="#DejaVuSans-6f"/>
     <use x="1148.339844" xlink:href="#DejaVuSans-6e"/>
     <use x="1211.71875" xlink:href="#DejaVuSans-73"/>
     <use x="1263.818359" xlink:href="#DejaVuSans-2c"/>
     <use x="1295.605469" xlink:href="#DejaVuSans-20"/>
     <use x="1327.392578" xlink:href="#DejaVuSans-35"/>
     <use x="1391.015625" xlink:href="#DejaVuSans-2d"/>
     <use x="1427.099609" xlink:href="#DejaVuSans-44"/>
    </g>
    <!-- 51 targets: 100..1e-08 -->
    <defs>
     <path d="M 11.71875 12.40625 
L 22.015625 12.40625 
L 22.015625 0 
L 11.71875 0 
z
M 11.71875 51.703125 
L 22.015625 51.703125 
L 22.015625 39.3125 
L 11.71875 39.3125 
z
" id="DejaVuSans-3a"/>
    </defs>
    <g transform="translate(58.89048 40.319519)scale(0.102 -0.102)">
     <use xlink:href="#DejaVuSans-35"/>
     <use x="63.623047" xlink:href="#DejaVuSans-31"/>
     <use x="127.246094" xlink:href="#DejaVuSans-20"/>
     <use x="159.033203" xlink:href="#DejaVuSans-74"/>
     <use x="198.242188" xlink:href="#DejaVuSans-61"/>
     <use x="259.521484" xlink:href="#DejaVuSans-72"/>
     <use x="300.619141" xlink:href="#DejaVuSans-67"/>
     <use x="364.095703" xlink:href="#DejaVuSans-65"/>
     <use x="425.619141" xlink:href="#DejaVuSans-74"/>
     <use x="464.828125" xlink:href="#DejaVuSans-73"/>
     <use x="516.927734" xlink:href="#DejaVuSans-3a"/>
     <use x="550.619141" xlink:href="#DejaVuSans-20"/>
     <use x="582.40625" xlink:href="#DejaVuSans-31"/>
     <use x="646.029297" xlink:href="#DejaVuSans-30"/>
     <use x="709.652344" xlink:href="#DejaVuSans-30"/>
     <use x="773.275391" xlink:href="#DejaVuSans-2e"/>
     <use x="805.0625" xlink:href="#DejaVuSans-2e"/>
     <use x="836.849609" xlink:href="#DejaVuSans-31"/>
     <use x="900.472656" xlink:href="#DejaVuSans-65"/>
     <use x="961.996094" xlink:href="#DejaVuSans-2d"/>
     <use x="998.080078" xlink:href="#DejaVuSans-30"/>
     <use x="1061.703125" xlink:href="#DejaVuSans-38"/>
    </g>
    <!-- 15 instances -->
    <g transform="translate(58.89048 51.741288)scale(0.102 -0.102)">
     <use xlink:href="#DejaVuSans-31"/>
     <use x="63.623047" xlink:href="#DejaVuSans-35"/>
     <use x="127.246094" xlink:href="#DejaVuSans-20"/>
     <use x="159.033203" xlink:href="#DejaVuSans-69"/>
     <use x="186.816406" xlink:href="#DejaVuSans-6e"/>
     <use x="250.195312" xlink:href="#DejaVuSans-73"/>
     <use x="302.294922" xlink:href="#DejaVuSans-74"/>
     <use x="341.503906" xlink:href="#DejaVuSans-61"/>
     <use x="402.783203" xlink:href="#DejaVuSans-6e"/>
     <use x="466.162109" xlink:href="#DejaVuSans-63"/>
     <use x="521.142578" xlink:href="#DejaVuSans-65"/>
     <use x="582.666016" xlink:href="#DejaVuSans-73"/>
    </g>
   </g>
   <g id="text_18">
    <!-- v0.0.0 -->
    <g style="fill:#808080;" transform="translate(178.96275 289.919965)scale(0.1 -0.1)">
     <use xlink:href="#DejaVuSans-76"/>
     <use x="59.179688" xlink:href="#DejaVuSans-30"/>
     <use x="122.802734" xlink:href="#DejaVuSans-2e"/>
     <use x="154.589844" xlink:href="#DejaVuSans-30"/>
     <use x="218.212891" xlink:href="#DejaVuSans-2e"/>
     <use x="250" xlink:href="#DejaVuSans-30"/>
    </g>
   </g>
  </g>
 </g>
 <defs>
  <clipPath id="p397f0eebfd">
   <rect height="288.034772" width="277.048" x="56.12" y="6.845228"/>
  </clipPath>
 </defs>
</svg>
