<?xml version="1.0" encoding="utf-8" standalone="no"?>
<!DOCTYPE svg PUBLIC "-//W3C//DTD SVG 1.1//EN"
  "http://www.w3.org/Graphics/SVG/1.1/DTD/svg11.dtd">
<!-- Created with matplotlib (http://matplotlib.org/) -->
<svg height="345.6pt" version="1.1" viewBox="0 0 460.8 345.6" width="460.8pt" xmlns="http://www.w3.org/2000/svg" xmlns:xlink="http://www.w3.org/1999/xlink">
 <defs>
  <style type="text/css">
*{stroke-linecap:butt;stroke-linejoin:round;}
  </style>
 </defs>
 <g id="figure_1">
  <g id="patch_1">
   <path d="M 0 345.6 
L 460.8 345.6 
L 460.8 0 
L 0 0 
z
" style="fill:#ffffff;"/>
  </g>
  <g id="axes_1">
   <g id="patch_2">
    <path d="M 56.12 294.88 
L 333.168 294.88 
L 333.168 6.845228 
L 56.12 6.845228 
z
" style="fill:#ffffff;"/>
   </g>
   <g id="matplotlib.axis_1">
    <g id="xtick_1">
     <g id="line2d_1">
      <path clip-path="url(#pb2c9625565)" d="M 56.12 294.88 
L 56.12 6.845228 
" style="fill:none;stroke:#b0b0b0;stroke-linecap:square;stroke-width:0.8;"/>
     </g>
     <g id="line2d_2">
      <defs>
       <path d="M 0 0 
L 0 3.5 
" id="m6edf7e8593" style="stroke:#000000;stroke-width:0.8;"/>
      </defs>
      <g>
       <use style="stroke:#000000;stroke-width:0.8;" x="56.12" xlink:href="#m6edf7e8593" y="294.88"/>
      </g>
     </g>
     <g id="text_1">
      <!-- 0 -->
      <defs>
       <path d="M 31.78125 66.40625 
Q 24.171875 66.40625 20.328125 58.90625 
Q 16.5 51.421875 16.5 36.375 
Q 16.5 21.390625 20.328125 13.890625 
Q 24.171875 6.390625 31.78125 6.390625 
Q 39.453125 6.390625 43.28125 13.890625 
Q 47.125 21.390625 47.125 36.375 
Q 47.125 51.421875 43.28125 58.90625 
Q 39.453125 66.40625 31.78125 66.40625 
z
M 31.78125 74.21875 
Q 44.046875 74.21875 50.515625 64.515625 
Q 56.984375 54.828125 56.984375 36.375 
Q 56.984375 17.96875 50.515625 8.265625 
Q 44.046875 -1.421875 31.78125 -1.421875 
Q 19.53125 -1.421875 13.0625 8.265625 
Q 6.59375 17.96875 6.59375 36.375 
Q 6.59375 54.828125 13.0625 64.515625 
Q 19.53125 74.21875 31.78125 74.21875 
z
" id="DejaVuSans-30"/>
      </defs>
      <g transform="translate(49.7575 317.076875)scale(0.2 -0.2)">
       <use xlink:href="#DejaVuSans-30"/>
      </g>
     </g>
    </g>
    <g id="xtick_2">
     <g id="line2d_3">
      <path clip-path="url(#pb2c9625565)" d="M 135.276571 294.88 
L 135.276571 6.845228 
" style="fill:none;stroke:#b0b0b0;stroke-linecap:square;stroke-width:0.8;"/>
     </g>
     <g id="line2d_4">
      <g>
       <use style="stroke:#000000;stroke-width:0.8;" x="135.276571" xlink:href="#m6edf7e8593" y="294.88"/>
      </g>
     </g>
     <g id="text_2">
      <!-- 2 -->
      <defs>
       <path d="M 19.1875 8.296875 
L 53.609375 8.296875 
L 53.609375 0 
L 7.328125 0 
L 7.328125 8.296875 
Q 12.9375 14.109375 22.625 23.890625 
Q 32.328125 33.6875 34.8125 36.53125 
Q 39.546875 41.84375 41.421875 45.53125 
Q 43.3125 49.21875 43.3125 52.78125 
Q 43.3125 58.59375 39.234375 62.25 
Q 35.15625 65.921875 28.609375 65.921875 
Q 23.96875 65.921875 18.8125 64.3125 
Q 13.671875 62.703125 7.8125 59.421875 
L 7.8125 69.390625 
Q 13.765625 71.78125 18.9375 73 
Q 24.125 74.21875 28.421875 74.21875 
Q 39.75 74.21875 46.484375 68.546875 
Q 53.21875 62.890625 53.21875 53.421875 
Q 53.21875 48.921875 51.53125 44.890625 
Q 49.859375 40.875 45.40625 35.40625 
Q 44.1875 33.984375 37.640625 27.21875 
Q 31.109375 20.453125 19.1875 8.296875 
z
" id="DejaVuSans-32"/>
      </defs>
      <g transform="translate(128.914071 317.076875)scale(0.2 -0.2)">
       <use xlink:href="#DejaVuSans-32"/>
      </g>
     </g>
    </g>
    <g id="xtick_3">
     <g id="line2d_5">
      <path clip-path="url(#pb2c9625565)" d="M 214.433143 294.88 
L 214.433143 6.845228 
" style="fill:none;stroke:#b0b0b0;stroke-linecap:square;stroke-width:0.8;"/>
     </g>
     <g id="line2d_6">
      <g>
       <use style="stroke:#000000;stroke-width:0.8;" x="214.433143" xlink:href="#m6edf7e8593" y="294.88"/>
      </g>
     </g>
     <g id="text_3">
      <!-- 4 -->
      <defs>
       <path d="M 37.796875 64.3125 
L 12.890625 25.390625 
L 37.796875 25.390625 
z
M 35.203125 72.90625 
L 47.609375 72.90625 
L 47.609375 25.390625 
L 58.015625 25.390625 
L 58.015625 17.1875 
L 47.609375 17.1875 
L 47.609375 0 
L 37.796875 0 
L 37.796875 17.1875 
L 4.890625 17.1875 
L 4.890625 26.703125 
z
" id="DejaVuSans-34"/>
      </defs>
      <g transform="translate(208.070643 317.076875)scale(0.2 -0.2)">
       <use xlink:href="#DejaVuSans-34"/>
      </g>
     </g>
    </g>
    <g id="xtick_4">
     <g id="line2d_7">
      <path clip-path="url(#pb2c9625565)" d="M 293.589714 294.88 
L 293.589714 6.845228 
" style="fill:none;stroke:#b0b0b0;stroke-linecap:square;stroke-width:0.8;"/>
     </g>
     <g id="line2d_8">
      <g>
       <use style="stroke:#000000;stroke-width:0.8;" x="293.589714" xlink:href="#m6edf7e8593" y="294.88"/>
      </g>
     </g>
     <g id="text_4">
      <!-- 6 -->
      <defs>
       <path d="M 33.015625 40.375 
Q 26.375 40.375 22.484375 35.828125 
Q 18.609375 31.296875 18.609375 23.390625 
Q 18.609375 15.53125 22.484375 10.953125 
Q 26.375 6.390625 33.015625 6.390625 
Q 39.65625 6.390625 43.53125 10.953125 
Q 47.40625 15.53125 47.40625 23.390625 
Q 47.40625 31.296875 43.53125 35.828125 
Q 39.65625 40.375 33.015625 40.375 
z
M 52.59375 71.296875 
L 52.59375 62.3125 
Q 48.875 64.0625 45.09375 64.984375 
Q 41.3125 65.921875 37.59375 65.921875 
Q 27.828125 65.921875 22.671875 59.328125 
Q 17.53125 52.734375 16.796875 39.40625 
Q 19.671875 43.65625 24.015625 45.921875 
Q 28.375 48.1875 33.59375 48.1875 
Q 44.578125 48.1875 50.953125 41.515625 
Q 57.328125 34.859375 57.328125 23.390625 
Q 57.328125 12.15625 50.6875 5.359375 
Q 44.046875 -1.421875 33.015625 -1.421875 
Q 20.359375 -1.421875 13.671875 8.265625 
Q 6.984375 17.96875 6.984375 36.375 
Q 6.984375 53.65625 15.1875 63.9375 
Q 23.390625 74.21875 37.203125 74.21875 
Q 40.921875 74.21875 44.703125 73.484375 
Q 48.484375 72.75 52.59375 71.296875 
z
" id="DejaVuSans-36"/>
      </defs>
      <g transform="translate(287.227214 317.076875)scale(0.2 -0.2)">
       <use xlink:href="#DejaVuSans-36"/>
      </g>
     </g>
    </g>
    <g id="xtick_5">
     <g id="line2d_9">
      <path clip-path="url(#pb2c9625565)" d="M 56.12 294.88 
L 56.12 6.845228 
" style="fill:none;stroke:#b0b0b0;stroke-linecap:square;stroke-width:0.8;"/>
     </g>
     <g id="line2d_10">
      <defs>
       <path d="M 0 0 
L 0 2 
" id="m44183cb806" style="stroke:#000000;stroke-width:0.6;"/>
      </defs>
      <g>
       <use style="stroke:#000000;stroke-width:0.6;" x="56.12" xlink:href="#m44183cb806" y="294.88"/>
      </g>
     </g>
    </g>
    <g id="xtick_6">
     <g id="line2d_11">
      <path clip-path="url(#pb2c9625565)" d="M 95.698286 294.88 
L 95.698286 6.845228 
" style="fill:none;stroke:#b0b0b0;stroke-linecap:square;stroke-width:0.8;"/>
     </g>
     <g id="line2d_12">
      <g>
       <use style="stroke:#000000;stroke-width:0.6;" x="95.698286" xlink:href="#m44183cb806" y="294.88"/>
      </g>
     </g>
    </g>
    <g id="xtick_7">
     <g id="line2d_13">
      <path clip-path="url(#pb2c9625565)" d="M 135.276571 294.88 
L 135.276571 6.845228 
" style="fill:none;stroke:#b0b0b0;stroke-linecap:square;stroke-width:0.8;"/>
     </g>
     <g id="line2d_14">
      <g>
       <use style="stroke:#000000;stroke-width:0.6;" x="135.276571" xlink:href="#m44183cb806" y="294.88"/>
      </g>
     </g>
    </g>
    <g id="xtick_8">
     <g id="line2d_15">
      <path clip-path="url(#pb2c9625565)" d="M 174.854857 294.88 
L 174.854857 6.845228 
" style="fill:none;stroke:#b0b0b0;stroke-linecap:square;stroke-width:0.8;"/>
     </g>
     <g id="line2d_16">
      <g>
       <use style="stroke:#000000;stroke-width:0.6;" x="174.854857" xlink:href="#m44183cb806" y="294.88"/>
      </g>
     </g>
    </g>
    <g id="xtick_9">
     <g id="line2d_17">
      <path clip-path="url(#pb2c9625565)" d="M 214.433143 294.88 
L 214.433143 6.845228 
" style="fill:none;stroke:#b0b0b0;stroke-linecap:square;stroke-width:0.8;"/>
     </g>
     <g id="line2d_18">
      <g>
       <use style="stroke:#000000;stroke-width:0.6;" x="214.433143" xlink:href="#m44183cb806" y="294.88"/>
      </g>
     </g>
    </g>
    <g id="xtick_10">
     <g id="line2d_19">
      <path clip-path="url(#pb2c9625565)" d="M 254.011429 294.88 
L 254.011429 6.845228 
" style="fill:none;stroke:#b0b0b0;stroke-linecap:square;stroke-width:0.8;"/>
     </g>
     <g id="line2d_20">
      <g>
       <use style="stroke:#000000;stroke-width:0.6;" x="254.011429" xlink:href="#m44183cb806" y="294.88"/>
      </g>
     </g>
    </g>
    <g id="xtick_11">
     <g id="line2d_21">
      <path clip-path="url(#pb2c9625565)" d="M 293.589714 294.88 
L 293.589714 6.845228 
" style="fill:none;stroke:#b0b0b0;stroke-linecap:square;stroke-width:0.8;"/>
     </g>
     <g id="line2d_22">
      <g>
       <use style="stroke:#000000;stroke-width:0.6;" x="293.589714" xlink:href="#m44183cb806" y="294.88"/>
      </g>
     </g>
    </g>
    <g id="xtick_12">
     <g id="line2d_23">
      <path clip-path="url(#pb2c9625565)" d="M 333.168 294.88 
L 333.168 6.845228 
" style="fill:none;stroke:#b0b0b0;stroke-linecap:square;stroke-width:0.8;"/>
     </g>
     <g id="line2d_24">
      <g>
       <use style="stroke:#000000;stroke-width:0.6;" x="333.168" xlink:href="#m44183cb806" y="294.88"/>
      </g>
     </g>
    </g>
    <g id="text_5">
     <!-- log10(# f-evals / dimension) -->
     <defs>
      <path d="M 9.421875 75.984375 
L 18.40625 75.984375 
L 18.40625 0 
L 9.421875 0 
z
" id="DejaVuSans-6c"/>
      <path d="M 30.609375 48.390625 
Q 23.390625 48.390625 19.1875 42.75 
Q 14.984375 37.109375 14.984375 27.296875 
Q 14.984375 17.484375 19.15625 11.84375 
Q 23.34375 6.203125 30.609375 6.203125 
Q 37.796875 6.203125 41.984375 11.859375 
Q 46.1875 17.53125 46.1875 27.296875 
Q 46.1875 37.015625 41.984375 42.703125 
Q 37.796875 48.390625 30.609375 48.390625 
z
M 30.609375 56 
Q 42.328125 56 49.015625 48.375 
Q 55.71875 40.765625 55.71875 27.296875 
Q 55.71875 13.875 49.015625 6.21875 
Q 42.328125 -1.421875 30.609375 -1.421875 
Q 18.84375 -1.421875 12.171875 6.21875 
Q 5.515625 13.875 5.515625 27.296875 
Q 5.515625 40.765625 12.171875 48.375 
Q 18.84375 56 30.609375 56 
z
" id="DejaVuSans-6f"/>
      <path d="M 45.40625 27.984375 
Q 45.40625 37.75 41.375 43.109375 
Q 37.359375 48.484375 30.078125 48.484375 
Q 22.859375 48.484375 18.828125 43.109375 
Q 14.796875 37.75 14.796875 27.984375 
Q 14.796875 18.265625 18.828125 12.890625 
Q 22.859375 7.515625 30.078125 7.515625 
Q 37.359375 7.515625 41.375 12.890625 
Q 45.40625 18.265625 45.40625 27.984375 
z
M 54.390625 6.78125 
Q 54.390625 -7.171875 48.1875 -13.984375 
Q 42 -20.796875 29.203125 -20.796875 
Q 24.46875 -20.796875 20.265625 -20.09375 
Q 16.0625 -19.390625 12.109375 -17.921875 
L 12.109375 -9.1875 
Q 16.0625 -11.328125 19.921875 -12.34375 
Q 23.78125 -13.375 27.78125 -13.375 
Q 36.625 -13.375 41.015625 -8.765625 
Q 45.40625 -4.15625 45.40625 5.171875 
L 45.40625 9.625 
Q 42.625 4.78125 38.28125 2.390625 
Q 33.9375 0 27.875 0 
Q 17.828125 0 11.671875 7.65625 
Q 5.515625 15.328125 5.515625 27.984375 
Q 5.515625 40.671875 11.671875 48.328125 
Q 17.828125 56 27.875 56 
Q 33.9375 56 38.28125 53.609375 
Q 42.625 51.21875 45.40625 46.390625 
L 45.40625 54.6875 
L 54.390625 54.6875 
z
" id="DejaVuSans-67"/>
      <path d="M 12.40625 8.296875 
L 28.515625 8.296875 
L 28.515625 63.921875 
L 10.984375 60.40625 
L 10.984375 69.390625 
L 28.421875 72.90625 
L 38.28125 72.90625 
L 38.28125 8.296875 
L 54.390625 8.296875 
L 54.390625 0 
L 12.40625 0 
z
" id="DejaVuSans-31"/>
      <path d="M 31 75.875 
Q 24.46875 64.65625 21.28125 53.65625 
Q 18.109375 42.671875 18.109375 31.390625 
Q 18.109375 20.125 21.3125 9.0625 
Q 24.515625 -2 31 -13.1875 
L 23.1875 -13.1875 
Q 15.875 -1.703125 12.234375 9.375 
Q 8.59375 20.453125 8.59375 31.390625 
Q 8.59375 42.28125 12.203125 53.3125 
Q 15.828125 64.359375 23.1875 75.875 
z
" id="DejaVuSans-28"/>
      <path d="M 51.125 44 
L 36.921875 44 
L 32.8125 27.6875 
L 47.125 27.6875 
z
M 43.796875 71.78125 
L 38.71875 51.515625 
L 52.984375 51.515625 
L 58.109375 71.78125 
L 65.921875 71.78125 
L 60.890625 51.515625 
L 76.125 51.515625 
L 76.125 44 
L 58.984375 44 
L 54.984375 27.6875 
L 70.515625 27.6875 
L 70.515625 20.21875 
L 53.078125 20.21875 
L 48 0 
L 40.1875 0 
L 45.21875 20.21875 
L 30.90625 20.21875 
L 25.875 0 
L 18.015625 0 
L 23.09375 20.21875 
L 7.71875 20.21875 
L 7.71875 27.6875 
L 24.90625 27.6875 
L 29 44 
L 13.28125 44 
L 13.28125 51.515625 
L 30.90625 51.515625 
L 35.890625 71.78125 
z
" id="DejaVuSans-23"/>
      <path id="DejaVuSans-20"/>
      <path d="M 37.109375 75.984375 
L 37.109375 68.5 
L 28.515625 68.5 
Q 23.6875 68.5 21.796875 66.546875 
Q 19.921875 64.59375 19.921875 59.515625 
L 19.921875 54.6875 
L 34.71875 54.6875 
L 34.71875 47.703125 
L 19.921875 47.703125 
L 19.921875 0 
L 10.890625 0 
L 10.890625 47.703125 
L 2.296875 47.703125 
L 2.296875 54.6875 
L 10.890625 54.6875 
L 10.890625 58.5 
Q 10.890625 67.625 15.140625 71.796875 
Q 19.390625 75.984375 28.609375 75.984375 
z
" id="DejaVuSans-66"/>
      <path d="M 4.890625 31.390625 
L 31.203125 31.390625 
L 31.203125 23.390625 
L 4.890625 23.390625 
z
" id="DejaVuSans-2d"/>
      <path d="M 56.203125 29.59375 
L 56.203125 25.203125 
L 14.890625 25.203125 
Q 15.484375 15.921875 20.484375 11.0625 
Q 25.484375 6.203125 34.421875 6.203125 
Q 39.59375 6.203125 44.453125 7.46875 
Q 49.3125 8.734375 54.109375 11.28125 
L 54.109375 2.78125 
Q 49.265625 0.734375 44.1875 -0.34375 
Q 39.109375 -1.421875 33.890625 -1.421875 
Q 20.796875 -1.421875 13.15625 6.1875 
Q 5.515625 13.8125 5.515625 26.8125 
Q 5.515625 40.234375 12.765625 48.109375 
Q 20.015625 56 32.328125 56 
Q 43.359375 56 49.78125 48.890625 
Q 56.203125 41.796875 56.203125 29.59375 
z
M 47.21875 32.234375 
Q 47.125 39.59375 43.09375 43.984375 
Q 39.0625 48.390625 32.421875 48.390625 
Q 24.90625 48.390625 20.390625 44.140625 
Q 15.875 39.890625 15.1875 32.171875 
z
" id="DejaVuSans-65"/>
      <path d="M 2.984375 54.6875 
L 12.5 54.6875 
L 29.59375 8.796875 
L 46.6875 54.6875 
L 56.203125 54.6875 
L 35.6875 0 
L 23.484375 0 
z
" id="DejaVuSans-76"/>
      <path d="M 34.28125 27.484375 
Q 23.390625 27.484375 19.1875 25 
Q 14.984375 22.515625 14.984375 16.5 
Q 14.984375 11.71875 18.140625 8.90625 
Q 21.296875 6.109375 26.703125 6.109375 
Q 34.1875 6.109375 38.703125 11.40625 
Q 43.21875 16.703125 43.21875 25.484375 
L 43.21875 27.484375 
z
M 52.203125 31.203125 
L 52.203125 0 
L 43.21875 0 
L 43.21875 8.296875 
Q 40.140625 3.328125 35.546875 0.953125 
Q 30.953125 -1.421875 24.3125 -1.421875 
Q 15.921875 -1.421875 10.953125 3.296875 
Q 6 8.015625 6 15.921875 
Q 6 25.140625 12.171875 29.828125 
Q 18.359375 34.515625 30.609375 34.515625 
L 43.21875 34.515625 
L 43.21875 35.40625 
Q 43.21875 41.609375 39.140625 45 
Q 35.0625 48.390625 27.6875 48.390625 
Q 23 48.390625 18.546875 47.265625 
Q 14.109375 46.140625 10.015625 43.890625 
L 10.015625 52.203125 
Q 14.9375 54.109375 19.578125 55.046875 
Q 24.21875 56 28.609375 56 
Q 40.484375 56 46.34375 49.84375 
Q 52.203125 43.703125 52.203125 31.203125 
z
" id="DejaVuSans-61"/>
      <path d="M 44.28125 53.078125 
L 44.28125 44.578125 
Q 40.484375 46.53125 36.375 47.5 
Q 32.28125 48.484375 27.875 48.484375 
Q 21.1875 48.484375 17.84375 46.4375 
Q 14.5 44.390625 14.5 40.28125 
Q 14.5 37.15625 16.890625 35.375 
Q 19.28125 33.59375 26.515625 31.984375 
L 29.59375 31.296875 
Q 39.15625 29.25 43.1875 25.515625 
Q 47.21875 21.78125 47.21875 15.09375 
Q 47.21875 7.46875 41.1875 3.015625 
Q 35.15625 -1.421875 24.609375 -1.421875 
Q 20.21875 -1.421875 15.453125 -0.5625 
Q 10.6875 0.296875 5.421875 2 
L 5.421875 11.28125 
Q 10.40625 8.6875 15.234375 7.390625 
Q 20.0625 6.109375 24.8125 6.109375 
Q 31.15625 6.109375 34.5625 8.28125 
Q 37.984375 10.453125 37.984375 14.40625 
Q 37.984375 18.0625 35.515625 20.015625 
Q 33.0625 21.96875 24.703125 23.78125 
L 21.578125 24.515625 
Q 13.234375 26.265625 9.515625 29.90625 
Q 5.8125 33.546875 5.8125 39.890625 
Q 5.8125 47.609375 11.28125 51.796875 
Q 16.75 56 26.8125 56 
Q 31.78125 56 36.171875 55.265625 
Q 40.578125 54.546875 44.28125 53.078125 
z
" id="DejaVuSans-73"/>
      <path d="M 25.390625 72.90625 
L 33.6875 72.90625 
L 8.296875 -9.28125 
L 0 -9.28125 
z
" id="DejaVuSans-2f"/>
      <path d="M 45.40625 46.390625 
L 45.40625 75.984375 
L 54.390625 75.984375 
L 54.390625 0 
L 45.40625 0 
L 45.40625 8.203125 
Q 42.578125 3.328125 38.25 0.953125 
Q 33.9375 -1.421875 27.875 -1.421875 
Q 17.96875 -1.421875 11.734375 6.484375 
Q 5.515625 14.40625 5.515625 27.296875 
Q 5.515625 40.1875 11.734375 48.09375 
Q 17.96875 56 27.875 56 
Q 33.9375 56 38.25 53.625 
Q 42.578125 51.265625 45.40625 46.390625 
z
M 14.796875 27.296875 
Q 14.796875 17.390625 18.875 11.75 
Q 22.953125 6.109375 30.078125 6.109375 
Q 37.203125 6.109375 41.296875 11.75 
Q 45.40625 17.390625 45.40625 27.296875 
Q 45.40625 37.203125 41.296875 42.84375 
Q 37.203125 48.484375 30.078125 48.484375 
Q 22.953125 48.484375 18.875 42.84375 
Q 14.796875 37.203125 14.796875 27.296875 
z
" id="DejaVuSans-64"/>
      <path d="M 9.421875 54.6875 
L 18.40625 54.6875 
L 18.40625 0 
L 9.421875 0 
z
M 9.421875 75.984375 
L 18.40625 75.984375 
L 18.40625 64.59375 
L 9.421875 64.59375 
z
" id="DejaVuSans-69"/>
      <path d="M 52 44.1875 
Q 55.375 50.25 60.0625 53.125 
Q 64.75 56 71.09375 56 
Q 79.640625 56 84.28125 50.015625 
Q 88.921875 44.046875 88.921875 33.015625 
L 88.921875 0 
L 79.890625 0 
L 79.890625 32.71875 
Q 79.890625 40.578125 77.09375 44.375 
Q 74.3125 48.1875 68.609375 48.1875 
Q 61.625 48.1875 57.5625 43.546875 
Q 53.515625 38.921875 53.515625 30.90625 
L 53.515625 0 
L 44.484375 0 
L 44.484375 32.71875 
Q 44.484375 40.625 41.703125 44.40625 
Q 38.921875 48.1875 33.109375 48.1875 
Q 26.21875 48.1875 22.15625 43.53125 
Q 18.109375 38.875 18.109375 30.90625 
L 18.109375 0 
L 9.078125 0 
L 9.078125 54.6875 
L 18.109375 54.6875 
L 18.109375 46.1875 
Q 21.1875 51.21875 25.484375 53.609375 
Q 29.78125 56 35.6875 56 
Q 41.65625 56 45.828125 52.96875 
Q 50 49.953125 52 44.1875 
z
" id="DejaVuSans-6d"/>
      <path d="M 54.890625 33.015625 
L 54.890625 0 
L 45.90625 0 
L 45.90625 32.71875 
Q 45.90625 40.484375 42.875 44.328125 
Q 39.84375 48.1875 33.796875 48.1875 
Q 26.515625 48.1875 22.3125 43.546875 
Q 18.109375 38.921875 18.109375 30.90625 
L 18.109375 0 
L 9.078125 0 
L 9.078125 54.6875 
L 18.109375 54.6875 
L 18.109375 46.1875 
Q 21.34375 51.125 25.703125 53.5625 
Q 30.078125 56 35.796875 56 
Q 45.21875 56 50.046875 50.171875 
Q 54.890625 44.34375 54.890625 33.015625 
z
" id="DejaVuSans-6e"/>
      <path d="M 8.015625 75.875 
L 15.828125 75.875 
Q 23.140625 64.359375 26.78125 53.3125 
Q 30.421875 42.28125 30.421875 31.390625 
Q 30.421875 20.453125 26.78125 9.375 
Q 23.140625 -1.703125 15.828125 -13.1875 
L 8.015625 -13.1875 
Q 14.5 -2 17.703125 9.0625 
Q 20.90625 20.125 20.90625 31.390625 
Q 20.90625 42.671875 17.703125 53.65625 
Q 14.5 64.65625 8.015625 75.875 
z
" id="DejaVuSans-29"/>
     </defs>
     <g transform="translate(73.803219 338.153594)scale(0.17 -0.17)">
      <use xlink:href="#DejaVuSans-6c"/>
      <use x="27.783203" xlink:href="#DejaVuSans-6f"/>
      <use x="88.964844" xlink:href="#DejaVuSans-67"/>
      <use x="152.441406" xlink:href="#DejaVuSans-31"/>
      <use x="216.064453" xlink:href="#DejaVuSans-30"/>
      <use x="279.6875" xlink:href="#DejaVuSans-28"/>
      <use x="318.701172" xlink:href="#DejaVuSans-23"/>
      <use x="402.490234" xlink:href="#DejaVuSans-20"/>
      <use x="434.277344" xlink:href="#DejaVuSans-66"/>
      <use x="469.404297" xlink:href="#DejaVuSans-2d"/>
      <use x="505.488281" xlink:href="#DejaVuSans-65"/>
      <use x="567.011719" xlink:href="#DejaVuSans-76"/>
      <use x="626.191406" xlink:href="#DejaVuSans-61"/>
      <use x="687.470703" xlink:href="#DejaVuSans-6c"/>
      <use x="715.253906" xlink:href="#DejaVuSans-73"/>
      <use x="767.353516" xlink:href="#DejaVuSans-20"/>
      <use x="799.140625" xlink:href="#DejaVuSans-2f"/>
      <use x="832.832031" xlink:href="#DejaVuSans-20"/>
      <use x="864.619141" xlink:href="#DejaVuSans-64"/>
      <use x="928.095703" xlink:href="#DejaVuSans-69"/>
      <use x="955.878906" xlink:href="#DejaVuSans-6d"/>
      <use x="1053.291016" xlink:href="#DejaVuSans-65"/>
      <use x="1114.814453" xlink:href="#DejaVuSans-6e"/>
      <use x="1178.193359" xlink:href="#DejaVuSans-73"/>
      <use x="1230.292969" xlink:href="#DejaVuSans-69"/>
      <use x="1258.076172" xlink:href="#DejaVuSans-6f"/>
      <use x="1319.257812" xlink:href="#DejaVuSans-6e"/>
      <use x="1382.636719" xlink:href="#DejaVuSans-29"/>
     </g>
    </g>
   </g>
   <g id="matplotlib.axis_2">
    <g id="ytick_1">
     <g id="line2d_25">
      <path clip-path="url(#pb2c9625565)" d="M 56.12 294.88 
L 333.168 294.88 
" style="fill:none;stroke:#b0b0b0;stroke-linecap:square;stroke-width:0.8;"/>
     </g>
     <g id="line2d_26">
      <defs>
       <path d="M 0 0 
L -3.5 0 
" id="m38b3206229" style="stroke:#000000;stroke-width:0.8;"/>
      </defs>
      <g>
       <use style="stroke:#000000;stroke-width:0.8;" x="56.12" xlink:href="#m38b3206229" y="294.88"/>
      </g>
     </g>
     <g id="text_6">
      <!-- 0.0 -->
      <defs>
       <path d="M 10.6875 12.40625 
L 21 12.40625 
L 21 0 
L 10.6875 0 
z
" id="DejaVuSans-2e"/>
      </defs>
      <g transform="translate(23.675 300.95875)scale(0.16 -0.16)">
       <use xlink:href="#DejaVuSans-30"/>
       <use x="63.623047" xlink:href="#DejaVuSans-2e"/>
       <use x="95.410156" xlink:href="#DejaVuSans-30"/>
      </g>
     </g>
    </g>
    <g id="ytick_2">
     <g id="line2d_27">
      <path clip-path="url(#pb2c9625565)" d="M 56.12 237.843411 
L 333.168 237.843411 
" style="fill:none;stroke:#b0b0b0;stroke-linecap:square;stroke-width:0.8;"/>
     </g>
     <g id="line2d_28">
      <g>
       <use style="stroke:#000000;stroke-width:0.8;" x="56.12" xlink:href="#m38b3206229" y="237.843411"/>
      </g>
     </g>
     <g id="text_7">
      <!-- 0.2 -->
      <g transform="translate(23.675 243.922161)scale(0.16 -0.16)">
       <use xlink:href="#DejaVuSans-30"/>
       <use x="63.623047" xlink:href="#DejaVuSans-2e"/>
       <use x="95.410156" xlink:href="#DejaVuSans-32"/>
      </g>
     </g>
    </g>
    <g id="ytick_3">
     <g id="line2d_29">
      <path clip-path="url(#pb2c9625565)" d="M 56.12 180.806823 
L 333.168 180.806823 
" style="fill:none;stroke:#b0b0b0;stroke-linecap:square;stroke-width:0.8;"/>
     </g>
     <g id="line2d_30">
      <g>
       <use style="stroke:#000000;stroke-width:0.8;" x="56.12" xlink:href="#m38b3206229" y="180.806823"/>
      </g>
     </g>
     <g id="text_8">
      <!-- 0.4 -->
      <g transform="translate(23.675 186.885573)scale(0.16 -0.16)">
       <use xlink:href="#DejaVuSans-30"/>
       <use x="63.623047" xlink:href="#DejaVuSans-2e"/>
       <use x="95.410156" xlink:href="#DejaVuSans-34"/>
      </g>
     </g>
    </g>
    <g id="ytick_4">
     <g id="line2d_31">
      <path clip-path="url(#pb2c9625565)" d="M 56.12 123.770234 
L 333.168 123.770234 
" style="fill:none;stroke:#b0b0b0;stroke-linecap:square;stroke-width:0.8;"/>
     </g>
     <g id="line2d_32">
      <g>
       <use style="stroke:#000000;stroke-width:0.8;" x="56.12" xlink:href="#m38b3206229" y="123.770234"/>
      </g>
     </g>
     <g id="text_9">
      <!-- 0.6 -->
      <g transform="translate(23.675 129.848984)scale(0.16 -0.16)">
       <use xlink:href="#DejaVuSans-30"/>
       <use x="63.623047" xlink:href="#DejaVuSans-2e"/>
       <use x="95.410156" xlink:href="#DejaVuSans-36"/>
      </g>
     </g>
    </g>
    <g id="ytick_5">
     <g id="line2d_33">
      <path clip-path="url(#pb2c9625565)" d="M 56.12 66.733646 
L 333.168 66.733646 
" style="fill:none;stroke:#b0b0b0;stroke-linecap:square;stroke-width:0.8;"/>
     </g>
     <g id="line2d_34">
      <g>
       <use style="stroke:#000000;stroke-width:0.8;" x="56.12" xlink:href="#m38b3206229" y="66.733646"/>
      </g>
     </g>
     <g id="text_10">
      <!-- 0.8 -->
      <defs>
       <path d="M 31.78125 34.625 
Q 24.75 34.625 20.71875 30.859375 
Q 16.703125 27.09375 16.703125 20.515625 
Q 16.703125 13.921875 20.71875 10.15625 
Q 24.75 6.390625 31.78125 6.390625 
Q 38.8125 6.390625 42.859375 10.171875 
Q 46.921875 13.96875 46.921875 20.515625 
Q 46.921875 27.09375 42.890625 30.859375 
Q 38.875 34.625 31.78125 34.625 
z
M 21.921875 38.8125 
Q 15.578125 40.375 12.03125 44.71875 
Q 8.5 49.078125 8.5 55.328125 
Q 8.5 64.0625 14.71875 69.140625 
Q 20.953125 74.21875 31.78125 74.21875 
Q 42.671875 74.21875 48.875 69.140625 
Q 55.078125 64.0625 55.078125 55.328125 
Q 55.078125 49.078125 51.53125 44.71875 
Q 48 40.375 41.703125 38.8125 
Q 48.828125 37.15625 52.796875 32.3125 
Q 56.78125 27.484375 56.78125 20.515625 
Q 56.78125 9.90625 50.3125 4.234375 
Q 43.84375 -1.421875 31.78125 -1.421875 
Q 19.734375 -1.421875 13.25 4.234375 
Q 6.78125 9.90625 6.78125 20.515625 
Q 6.78125 27.484375 10.78125 32.3125 
Q 14.796875 37.15625 21.921875 38.8125 
z
M 18.3125 54.390625 
Q 18.3125 48.734375 21.84375 45.5625 
Q 25.390625 42.390625 31.78125 42.390625 
Q 38.140625 42.390625 41.71875 45.5625 
Q 45.3125 48.734375 45.3125 54.390625 
Q 45.3125 60.0625 41.71875 63.234375 
Q 38.140625 66.40625 31.78125 66.40625 
Q 25.390625 66.40625 21.84375 63.234375 
Q 18.3125 60.0625 18.3125 54.390625 
z
" id="DejaVuSans-38"/>
      </defs>
      <g transform="translate(23.675 72.812396)scale(0.16 -0.16)">
       <use xlink:href="#DejaVuSans-30"/>
       <use x="63.623047" xlink:href="#DejaVuSans-2e"/>
       <use x="95.410156" xlink:href="#DejaVuSans-38"/>
      </g>
     </g>
    </g>
    <g id="ytick_6">
     <g id="line2d_35">
      <path clip-path="url(#pb2c9625565)" d="M 56.12 9.697057 
L 333.168 9.697057 
" style="fill:none;stroke:#b0b0b0;stroke-linecap:square;stroke-width:0.8;"/>
     </g>
     <g id="line2d_36">
      <g>
       <use style="stroke:#000000;stroke-width:0.8;" x="56.12" xlink:href="#m38b3206229" y="9.697057"/>
      </g>
     </g>
     <g id="text_11">
      <!-- 1.0 -->
      <g transform="translate(23.675 15.775807)scale(0.16 -0.16)">
       <use xlink:href="#DejaVuSans-31"/>
       <use x="63.623047" xlink:href="#DejaVuSans-2e"/>
       <use x="95.410156" xlink:href="#DejaVuSans-30"/>
      </g>
     </g>
    </g>
    <g id="text_12">
     <!-- Fraction of function,target pairs -->
     <defs>
      <path d="M 9.8125 72.90625 
L 51.703125 72.90625 
L 51.703125 64.59375 
L 19.671875 64.59375 
L 19.671875 43.109375 
L 48.578125 43.109375 
L 48.578125 34.8125 
L 19.671875 34.8125 
L 19.671875 0 
L 9.8125 0 
z
" id="DejaVuSans-46"/>
      <path d="M 41.109375 46.296875 
Q 39.59375 47.171875 37.8125 47.578125 
Q 36.03125 48 33.890625 48 
Q 26.265625 48 22.1875 43.046875 
Q 18.109375 38.09375 18.109375 28.8125 
L 18.109375 0 
L 9.078125 0 
L 9.078125 54.6875 
L 18.109375 54.6875 
L 18.109375 46.1875 
Q 20.953125 51.171875 25.484375 53.578125 
Q 30.03125 56 36.53125 56 
Q 37.453125 56 38.578125 55.875 
Q 39.703125 55.765625 41.0625 55.515625 
z
" id="DejaVuSans-72"/>
      <path d="M 48.78125 52.59375 
L 48.78125 44.1875 
Q 44.96875 46.296875 41.140625 47.34375 
Q 37.3125 48.390625 33.40625 48.390625 
Q 24.65625 48.390625 19.8125 42.84375 
Q 14.984375 37.3125 14.984375 27.296875 
Q 14.984375 17.28125 19.8125 11.734375 
Q 24.65625 6.203125 33.40625 6.203125 
Q 37.3125 6.203125 41.140625 7.25 
Q 44.96875 8.296875 48.78125 10.40625 
L 48.78125 2.09375 
Q 45.015625 0.34375 40.984375 -0.53125 
Q 36.96875 -1.421875 32.421875 -1.421875 
Q 20.0625 -1.421875 12.78125 6.34375 
Q 5.515625 14.109375 5.515625 27.296875 
Q 5.515625 40.671875 12.859375 48.328125 
Q 20.21875 56 33.015625 56 
Q 37.15625 56 41.109375 55.140625 
Q 45.0625 54.296875 48.78125 52.59375 
z
" id="DejaVuSans-63"/>
      <path d="M 18.3125 70.21875 
L 18.3125 54.6875 
L 36.8125 54.6875 
L 36.8125 47.703125 
L 18.3125 47.703125 
L 18.3125 18.015625 
Q 18.3125 11.328125 20.140625 9.421875 
Q 21.96875 7.515625 27.59375 7.515625 
L 36.8125 7.515625 
L 36.8125 0 
L 27.59375 0 
Q 17.1875 0 13.234375 3.875 
Q 9.28125 7.765625 9.28125 18.015625 
L 9.28125 47.703125 
L 2.6875 47.703125 
L 2.6875 54.6875 
L 9.28125 54.6875 
L 9.28125 70.21875 
z
" id="DejaVuSans-74"/>
      <path d="M 8.5 21.578125 
L 8.5 54.6875 
L 17.484375 54.6875 
L 17.484375 21.921875 
Q 17.484375 14.15625 20.5 10.265625 
Q 23.53125 6.390625 29.59375 6.390625 
Q 36.859375 6.390625 41.078125 11.03125 
Q 45.3125 15.671875 45.3125 23.6875 
L 45.3125 54.6875 
L 54.296875 54.6875 
L 54.296875 0 
L 45.3125 0 
L 45.3125 8.40625 
Q 42.046875 3.421875 37.71875 1 
Q 33.40625 -1.421875 27.6875 -1.421875 
Q 18.265625 -1.421875 13.375 4.4375 
Q 8.5 10.296875 8.5 21.578125 
z
M 31.109375 56 
z
" id="DejaVuSans-75"/>
      <path d="M 11.71875 12.40625 
L 22.015625 12.40625 
L 22.015625 4 
L 14.015625 -11.625 
L 7.71875 -11.625 
L 11.71875 4 
z
" id="DejaVuSans-2c"/>
      <path d="M 18.109375 8.203125 
L 18.109375 -20.796875 
L 9.078125 -20.796875 
L 9.078125 54.6875 
L 18.109375 54.6875 
L 18.109375 46.390625 
Q 20.953125 51.265625 25.265625 53.625 
Q 29.59375 56 35.59375 56 
Q 45.5625 56 51.78125 48.09375 
Q 58.015625 40.1875 58.015625 27.296875 
Q 58.015625 14.40625 51.78125 6.484375 
Q 45.5625 -1.421875 35.59375 -1.421875 
Q 29.59375 -1.421875 25.265625 0.953125 
Q 20.953125 3.328125 18.109375 8.203125 
z
M 48.6875 27.296875 
Q 48.6875 37.203125 44.609375 42.84375 
Q 40.53125 48.484375 33.40625 48.484375 
Q 26.265625 48.484375 22.1875 42.84375 
Q 18.109375 37.203125 18.109375 27.296875 
Q 18.109375 17.390625 22.1875 11.75 
Q 26.265625 6.109375 33.40625 6.109375 
Q 40.53125 6.109375 44.609375 11.75 
Q 48.6875 17.390625 48.6875 27.296875 
z
" id="DejaVuSans-70"/>
     </defs>
     <g transform="translate(16.139531 286.001989)rotate(-90)scale(0.17 -0.17)">
      <use xlink:href="#DejaVuSans-46"/>
      <use x="57.410156" xlink:href="#DejaVuSans-72"/>
      <use x="98.523438" xlink:href="#DejaVuSans-61"/>
      <use x="159.802734" xlink:href="#DejaVuSans-63"/>
      <use x="214.783203" xlink:href="#DejaVuSans-74"/>
      <use x="253.992188" xlink:href="#DejaVuSans-69"/>
      <use x="281.775391" xlink:href="#DejaVuSans-6f"/>
      <use x="342.957031" xlink:href="#DejaVuSans-6e"/>
      <use x="406.335938" xlink:href="#DejaVuSans-20"/>
      <use x="438.123047" xlink:href="#DejaVuSans-6f"/>
      <use x="499.304688" xlink:href="#DejaVuSans-66"/>
      <use x="534.509766" xlink:href="#DejaVuSans-20"/>
      <use x="566.296875" xlink:href="#DejaVuSans-66"/>
      <use x="601.501953" xlink:href="#DejaVuSans-75"/>
      <use x="664.880859" xlink:href="#DejaVuSans-6e"/>
      <use x="728.259766" xlink:href="#DejaVuSans-63"/>
      <use x="783.240234" xlink:href="#DejaVuSans-74"/>
      <use x="822.449219" xlink:href="#DejaVuSans-69"/>
      <use x="850.232422" xlink:href="#DejaVuSans-6f"/>
      <use x="911.414062" xlink:href="#DejaVuSans-6e"/>
      <use x="974.792969" xlink:href="#DejaVuSans-2c"/>
      <use x="1006.580078" xlink:href="#DejaVuSans-74"/>
      <use x="1045.789062" xlink:href="#DejaVuSans-61"/>
      <use x="1107.068359" xlink:href="#DejaVuSans-72"/>
      <use x="1148.166016" xlink:href="#DejaVuSans-67"/>
      <use x="1211.642578" xlink:href="#DejaVuSans-65"/>
      <use x="1273.166016" xlink:href="#DejaVuSans-74"/>
      <use x="1312.375" xlink:href="#DejaVuSans-20"/>
      <use x="1344.162109" xlink:href="#DejaVuSans-70"/>
      <use x="1407.638672" xlink:href="#DejaVuSans-61"/>
      <use x="1468.917969" xlink:href="#DejaVuSans-69"/>
      <use x="1496.701172" xlink:href="#DejaVuSans-72"/>
      <use x="1537.814453" xlink:href="#DejaVuSans-73"/>
     </g>
    </g>
   </g>
   <g id="line2d_37">
    <defs>
     <path d="M 0 1.5 
C 0.397805 1.5 0.77937 1.341951 1.06066 1.06066 
C 1.341951 0.77937 1.5 0.397805 1.5 0 
C 1.5 -0.397805 1.341951 -0.77937 1.06066 -1.06066 
C 0.77937 -1.341951 0.397805 -1.5 0 -1.5 
C -0.397805 -1.5 -0.77937 -1.341951 -1.06066 -1.06066 
C -1.341951 -0.77937 -1.5 -0.397805 -1.5 0 
C -1.5 0.397805 -1.341951 0.77937 -1.06066 1.06066 
C -0.77937 1.341951 -0.397805 1.5 0 1.5 
z
" id="meb3cf9a40d" style="stroke:#000080;"/>
    </defs>
    <g>
     <use style="fill:#000080;stroke:#000080;" x="258.671229" xlink:href="#meb3cf9a40d" y="166.268085"/>
     <use style="fill:#000080;stroke:#000080;" x="258.671229" xlink:href="#meb3cf9a40d" y="166.268085"/>
    </g>
   </g>
   <g id="line2d_38">
    <path d="M 96.261898 294.88 
L 96.261898 293.761636 
L 99.303095 293.761636 
L 99.303095 292.643271 
L 107.323646 292.643271 
L 107.323646 290.406542 
L 109.509269 290.406542 
L 109.509269 288.169813 
L 113.599452 288.169813 
L 113.599452 287.610631 
L 114.581927 287.610631 
L 114.581927 285.933084 
L 116.39293 285.933084 
L 116.39293 284.81472 
L 116.73331 284.81472 
L 116.73331 284.255537 
L 129.550274 284.255537 
L 129.550274 283.137173 
L 130.858318 283.137173 
L 130.858318 279.782079 
L 134.151957 279.782079 
L 134.151957 279.222897 
L 136.223997 279.222897 
L 136.332102 278.104533 
L 137.427955 278.104533 
L 137.427955 277.545351 
L 138.121538 277.545351 
L 138.121538 276.986168 
L 142.053908 276.986168 
L 142.053908 275.867804 
L 143.462385 275.867804 
L 143.462385 275.308622 
L 143.849453 275.308622 
L 143.849453 274.749439 
L 144.431015 274.749439 
L 144.431015 274.190257 
L 145.284061 274.190257 
L 145.284061 273.071893 
L 145.475048 273.071893 
L 145.475048 271.953528 
L 146.218456 271.953528 
L 146.218456 271.394346 
L 146.814308 271.394346 
L 146.872773 269.157617 
L 147.587283 269.157617 
L 147.587283 266.920888 
L 147.837405 266.920888 
L 147.837405 266.361706 
L 149.518243 266.361706 
L 149.518243 265.243341 
L 149.815889 265.243341 
L 149.815889 264.684159 
L 150.443634 264.684159 
L 150.443634 263.565795 
L 150.679098 263.565795 
L 150.679098 263.006612 
L 152.34921 263.006612 
L 152.391598 261.329066 
L 153.055976 261.329066 
L 153.055976 260.769883 
L 153.318712 260.769883 
L 153.318712 258.533154 
L 153.557723 258.533154 
L 153.557723 257.41479 
L 154.998849 257.41479 
L 154.998849 256.296425 
L 155.447664 256.296425 
L 155.553658 254.059696 
L 156.362076 254.059696 
L 156.362076 252.941332 
L 158.4034 252.941332 
L 158.4034 251.263785 
L 159.261918 251.263785 
L 159.261918 250.704603 
L 163.111639 250.704603 
L 163.111639 250.145421 
L 163.504218 250.145421 
L 163.504218 249.586238 
L 167.058 249.586238 
L 167.165879 248.467874 
L 168.208987 248.467874 
L 168.293122 245.112781 
L 168.76498 245.112781 
L 168.76498 243.435234 
L 171.190358 243.435234 
L 171.190358 242.876052 
L 172.598879 242.876052 
L 172.598879 240.639323 
L 173.979226 240.639323 
L 173.979226 240.08014 
L 174.618326 240.08014 
L 174.618326 238.961776 
L 176.633171 238.961776 
L 176.633171 237.843411 
L 179.262871 237.843411 
L 179.262871 237.284229 
L 180.366102 237.284229 
L 180.366102 235.606682 
L 181.980146 235.606682 
L 181.980146 235.0475 
L 182.81139 235.0475 
L 182.81139 234.488318 
L 185.279751 234.488318 
L 185.279751 233.369954 
L 187.514729 233.369954 
L 187.577706 231.692407 
L 191.212553 231.692407 
L 191.212553 230.574042 
L 192.648512 230.574042 
L 192.648512 230.01486 
L 193.592734 230.01486 
L 193.592734 229.455678 
L 193.973703 229.455678 
L 193.973703 227.778131 
L 194.140557 227.778131 
L 194.140557 227.218949 
L 194.817362 227.218949 
L 194.817362 225.541402 
L 196.959669 225.541402 
L 196.959669 224.98222 
L 198.881317 224.98222 
L 198.895471 223.304673 
L 199.442691 223.304673 
L 199.442691 222.745491 
L 202.30326 222.745491 
L 202.408531 219.94958 
L 205.506985 219.94958 
L 205.601106 218.272033 
L 206.269877 218.272033 
L 206.269877 217.153669 
L 206.604693 217.153669 
L 206.604693 216.594486 
L 207.190004 216.594486 
L 207.190004 216.035304 
L 212.280079 216.035304 
L 212.280079 214.91694 
L 213.230053 214.91694 
L 213.230053 213.798575 
L 213.539415 213.798575 
L 213.539415 213.239393 
L 213.706981 213.239393 
L 213.706981 212.680211 
L 214.042568 212.680211 
L 214.042568 212.121028 
L 214.309514 212.121028 
L 214.309514 211.561846 
L 215.028331 211.561846 
L 215.028331 211.002664 
L 215.729983 211.002664 
L 215.729983 210.443482 
L 216.507003 210.443482 
L 216.507003 209.884299 
L 217.116635 209.884299 
L 217.116635 209.325117 
L 217.836552 209.325117 
L 217.836552 208.206753 
L 218.518944 208.206753 
L 218.529331 206.529206 
L 219.042582 206.529206 
L 219.129996 204.292477 
L 219.328946 204.292477 
L 219.328946 203.733295 
L 220.396585 203.733295 
L 220.396585 203.174112 
L 222.574058 203.174112 
L 222.574058 202.61493 
L 223.050505 202.61493 
L 223.050505 201.496566 
L 224.551981 201.496566 
L 224.551981 200.937384 
L 225.845978 200.937384 
L 225.845978 200.378201 
L 226.183032 200.378201 
L 226.240781 199.259837 
L 226.372586 199.259837 
L 226.372586 198.700655 
L 227.438719 198.700655 
L 227.438719 197.58229 
L 228.881235 197.58229 
L 228.881235 196.463926 
L 229.04338 196.463926 
L 229.04338 195.904743 
L 231.212789 195.904743 
L 231.212789 195.345561 
L 231.354451 195.345561 
L 231.354451 194.786379 
L 234.107334 194.786379 
L 234.107334 194.227197 
L 235.133459 194.227197 
L 235.212148 192.54965 
L 236.335027 192.54965 
L 236.335027 191.431285 
L 236.858452 191.431285 
L 236.858452 190.312921 
L 238.295273 190.312921 
L 238.295273 189.753739 
L 240.240277 189.753739 
L 240.240277 189.194556 
L 240.940358 189.194556 
L 241.020941 186.398645 
L 242.135866 186.398645 
L 242.211046 185.280281 
L 243.275017 185.280281 
L 243.32406 183.602734 
L 245.311157 183.602734 
L 245.311157 183.043552 
L 246.227372 183.043552 
L 246.286655 181.925187 
L 247.131444 181.925187 
L 247.170643 180.806823 
L 247.974058 180.806823 
L 248.011383 178.570094 
L 248.553802 178.570094 
L 248.553802 178.010912 
L 248.777288 178.010912 
L 248.812911 176.333365 
L 249.578722 176.333365 
L 249.578722 175.774183 
L 250.279218 175.774183 
L 250.279218 175.215 
L 250.983674 175.215 
L 251.01501 173.537454 
L 251.647249 173.537454 
L 251.660392 171.859907 
L 252.938791 171.859907 
L 252.938791 170.741543 
L 253.544017 170.741543 
L 253.571019 169.623178 
L 255.230788 169.623178 
L 255.230788 169.063996 
L 256.786235 169.063996 
L 256.808599 167.945631 
L 257.293518 167.945631 
L 257.293518 167.386449 
L 258.651163 167.386449 
L 258.671229 166.268085 
L 333.168 166.268085 
L 333.168 166.268085 
" style="fill:none;stroke:#000080;stroke-linecap:square;stroke-width:1.5;"/>
   </g>
   <g id="line2d_39">
    <defs>
     <path d="M 0 6 
C 1.591219 6 3.117479 5.367802 4.242641 4.242641 
C 5.367802 3.117479 6 1.591219 6 0 
C 6 -1.591219 5.367802 -3.117479 4.242641 -4.242641 
C 3.117479 -5.367802 1.591219 -6 0 -6 
C -1.591219 -6 -3.117479 -5.367802 -4.242641 -4.242641 
C -5.367802 -3.117479 -6 -1.591219 -6 0 
C -6 1.591219 -5.367802 3.117479 -4.242641 4.242641 
C -3.117479 5.367802 -1.591219 6 0 6 
z
" id="m608923d6dc" style="stroke:#000080;stroke-width:1.5;"/>
    </defs>
    <g>
     <use style="fill-opacity:0;stroke:#000080;stroke-width:1.5;" x="182.81139" xlink:href="#m608923d6dc" y="235.0475"/>
     <use style="fill-opacity:0;stroke:#000080;stroke-width:1.5;" x="231.354451" xlink:href="#m608923d6dc" y="195.345561"/>
     <use style="fill-opacity:0;stroke:#000080;stroke-width:1.5;" x="258.671229" xlink:href="#m608923d6dc" y="166.268085"/>
     <use style="fill-opacity:0;stroke:#000080;stroke-width:1.5;" x="258.671229" xlink:href="#m608923d6dc" y="166.268085"/>
     <use style="fill-opacity:0;stroke:#000080;stroke-width:1.5;" x="333.168" xlink:href="#m608923d6dc" y="166.268085"/>
    </g>
   </g>
   <g id="line2d_40">
    <path style="fill:none;stroke:#000080;stroke-linecap:square;stroke-width:1.5;"/>
    <g/>
   </g>
   <g id="line2d_41">
    <path clip-path="url(#pb2c9625565)" d="M 195.722236 225.541402 
" style="fill:none;stroke:#000080;stroke-linecap:square;stroke-width:1.5;"/>
    <defs>
     <path d="M -12 12 
L 12 -12 
M -12 -12 
L 12 12 
" id="mf9edeebc6e" style="stroke:#000080;"/>
    </defs>
    <g clip-path="url(#pb2c9625565)">
     <use style="fill:#000080;stroke:#000080;" x="195.722236" xlink:href="#mf9edeebc6e" y="225.541402"/>
    </g>
   </g>
   <g id="line2d_42">
    <defs>
     <path d="M 0 1.5 
C 0.397805 1.5 0.77937 1.341951 1.06066 1.06066 
C 1.341951 0.77937 1.5 0.397805 1.5 0 
C 1.5 -0.397805 1.341951 -0.77937 1.06066 -1.06066 
C 0.77937 -1.341951 0.397805 -1.5 0 -1.5 
C -0.397805 -1.5 -0.77937 -1.341951 -1.06066 -1.06066 
C -1.341951 -0.77937 -1.5 -0.397805 -1.5 0 
C -1.5 0.397805 -1.341951 0.77937 -1.06066 1.06066 
C -0.77937 1.341951 -0.397805 1.5 0 1.5 
z
" id="mecd5b9364b" style="stroke:#ff00ff;"/>
    </defs>
    <g>
     <use style="fill:#ff00ff;stroke:#ff00ff;" x="271.667916" xlink:href="#mecd5b9364b" y="183.043552"/>
     <use style="fill:#ff00ff;stroke:#ff00ff;" x="271.667916" xlink:href="#mecd5b9364b" y="183.043552"/>
    </g>
   </g>
   <g id="line2d_43">
    <path d="M 37.236359 294.88 
L 37.236359 266.920888 
L 97.849669 266.920888 
L 97.849669 265.802523 
L 121.804096 265.802523 
L 121.804096 264.124977 
L 130.559378 264.124977 
L 130.559378 262.44743 
L 139.60905 262.44743 
L 139.60905 260.769883 
L 141.424506 260.769883 
L 141.424506 257.973972 
L 143.674593 257.973972 
L 143.674593 256.855608 
L 145.090928 256.855608 
L 145.090928 256.296425 
L 149.342206 256.296425 
L 149.342206 255.178061 
L 151.523301 255.178061 
L 151.523301 253.500514 
L 158.283618 253.500514 
L 158.358579 250.704603 
L 160.147128 250.704603 
L 160.147128 248.467874 
L 164.847597 248.467874 
L 164.847597 247.908692 
L 165.9691 247.908692 
L 165.9691 246.790327 
L 168.854568 246.790327 
L 168.854568 242.316869 
L 169.894711 242.316869 
L 169.894711 241.757687 
L 170.295255 241.757687 
L 170.295255 239.520958 
L 171.762202 239.520958 
L 171.762202 237.843411 
L 174.554309 237.843411 
L 174.554309 237.284229 
L 176.95054 237.284229 
L 176.95054 236.725047 
L 178.954205 236.725047 
L 178.954205 235.606682 
L 181.50036 235.606682 
L 181.50036 235.0475 
L 182.926413 235.0475 
L 182.926413 234.488318 
L 183.319535 234.488318 
L 183.319535 233.929136 
L 183.843683 233.929136 
L 183.843683 233.369954 
L 187.201923 233.369954 
L 187.201923 232.810771 
L 190.501198 232.810771 
L 190.501198 232.251589 
L 192.265795 232.251589 
L 192.265795 231.692407 
L 194.062019 231.692407 
L 194.062019 231.133225 
L 194.813774 231.133225 
L 194.813774 230.574042 
L 194.937119 230.574042 
L 195.033036 228.896496 
L 195.411439 228.896496 
L 195.411439 228.337313 
L 195.779996 228.337313 
L 195.779996 227.778131 
L 197.765473 227.778131 
L 197.765473 227.218949 
L 198.99141 227.218949 
L 198.99141 226.100584 
L 199.249744 226.100584 
L 199.249744 225.541402 
L 202.530347 225.541402 
L 202.530347 224.98222 
L 203.983339 224.98222 
L 203.983339 224.423038 
L 204.602397 224.423038 
L 204.602397 223.863855 
L 206.943744 223.863855 
L 206.943744 223.304673 
L 207.248411 223.304673 
L 207.295341 222.186309 
L 207.481791 222.186309 
L 207.481791 221.627126 
L 208.281094 221.627126 
L 208.281094 221.067944 
L 208.688448 221.067944 
L 208.688448 220.508762 
L 209.646451 220.508762 
L 209.646451 218.831215 
L 212.643771 218.831215 
L 212.643771 218.272033 
L 213.353734 218.272033 
L 213.353734 217.712851 
L 213.529152 217.712851 
L 213.529152 217.153669 
L 214.30836 217.153669 
L 214.379201 216.035304 
L 214.502902 216.035304 
L 214.502902 215.476122 
L 215.245567 215.476122 
L 215.245567 214.91694 
L 218.100553 214.91694 
L 218.100553 214.357757 
L 219.150474 214.357757 
L 219.150474 213.798575 
L 219.381012 213.798575 
L 219.381012 213.239393 
L 220.428145 213.239393 
L 220.428145 212.680211 
L 222.236075 212.680211 
L 222.236075 211.561846 
L 223.250623 211.561846 
L 223.250623 208.765935 
L 226.407164 208.765935 
L 226.407164 207.088388 
L 227.216561 207.088388 
L 227.216561 206.529206 
L 229.072986 206.529206 
L 229.072986 205.970024 
L 231.380336 205.970024 
L 231.380336 204.292477 
L 232.860045 204.292477 
L 232.860045 203.733295 
L 233.414291 203.733295 
L 233.414291 202.055748 
L 235.232832 202.055748 
L 235.232832 200.937384 
L 236.425477 200.937384 
L 236.425477 199.819019 
L 236.877248 199.819019 
L 236.877248 199.259837 
L 238.37799 199.259837 
L 238.37799 198.700655 
L 239.376882 198.700655 
L 239.376882 198.141472 
L 240.682013 198.141472 
L 240.682013 197.58229 
L 242.224815 197.58229 
L 242.224815 196.463926 
L 243.336966 196.463926 
L 243.336966 195.904743 
L 244.38151 195.904743 
L 244.38151 194.227197 
L 245.366197 194.227197 
L 245.366197 193.668014 
L 246.297518 193.668014 
L 246.297518 192.54965 
L 247.180961 192.54965 
L 247.180961 191.990468 
L 248.598292 191.990468 
L 248.598292 191.431285 
L 248.822289 191.431285 
L 248.822289 190.872103 
L 250.115271 190.872103 
L 250.115271 190.312921 
L 250.826341 190.312921 
L 250.826341 189.753739 
L 251.698452 189.753739 
L 251.698452 189.194556 
L 252.348121 189.194556 
L 252.348121 188.076192 
L 252.974126 188.076192 
L 252.974126 187.51701 
L 253.99773 187.51701 
L 253.99773 186.957828 
L 255.801931 186.957828 
L 255.801931 185.839463 
L 257.770704 185.839463 
L 257.770704 185.280281 
L 258.676515 185.280281 
L 258.676515 184.721099 
L 260.356399 184.721099 
L 260.356399 184.161916 
L 266.651127 184.161916 
L 266.651127 183.602734 
L 271.667916 183.602734 
L 271.667916 183.043552 
L 333.168 183.043552 
L 333.168 183.043552 
" style="fill:none;stroke:#ff00ff;stroke-linecap:square;stroke-width:1.5;"/>
   </g>
   <g id="line2d_44">
    <defs>
     <path d="M -0 8.485281 
L 5.091169 0 
L 0 -8.485281 
L -5.091169 -0 
z
" id="m7b0b4f1d8b" style="stroke:#ff00ff;stroke-linejoin:miter;stroke-width:1.5;"/>
    </defs>
    <g>
     <use style="fill-opacity:0;stroke:#ff00ff;stroke-linejoin:miter;stroke-width:1.5;" x="160.147128" xlink:href="#m7b0b4f1d8b" y="248.467874"/>
     <use style="fill-opacity:0;stroke:#ff00ff;stroke-linejoin:miter;stroke-width:1.5;" x="226.407164" xlink:href="#m7b0b4f1d8b" y="207.088388"/>
     <use style="fill-opacity:0;stroke:#ff00ff;stroke-linejoin:miter;stroke-width:1.5;" x="271.667916" xlink:href="#m7b0b4f1d8b" y="183.602734"/>
     <use style="fill-opacity:0;stroke:#ff00ff;stroke-linejoin:miter;stroke-width:1.5;" x="271.667916" xlink:href="#m7b0b4f1d8b" y="183.043552"/>
     <use style="fill-opacity:0;stroke:#ff00ff;stroke-linejoin:miter;stroke-width:1.5;" x="333.168" xlink:href="#m7b0b4f1d8b" y="183.043552"/>
    </g>
   </g>
   <g id="line2d_45">
    <path style="fill:none;stroke:#ff00ff;stroke-linecap:square;stroke-width:1.5;"/>
    <g/>
   </g>
   <g id="line2d_46">
    <path clip-path="url(#pb2c9625565)" d="M 195.722236 228.337313 
" style="fill:none;stroke:#ff00ff;stroke-linecap:square;stroke-width:1.5;"/>
    <defs>
     <path d="M -12 12 
L 12 -12 
M -12 -12 
L 12 12 
" id="mab1ba30a43" style="stroke:#ff00ff;"/>
    </defs>
    <g clip-path="url(#pb2c9625565)">
     <use style="fill:#ff00ff;stroke:#ff00ff;" x="195.722236" xlink:href="#mab1ba30a43" y="228.337313"/>
    </g>
   </g>
   <g id="line2d_47">
    <defs>
     <path d="M 0 1.5 
C 0.397805 1.5 0.77937 1.341951 1.06066 1.06066 
C 1.341951 0.77937 1.5 0.397805 1.5 0 
C 1.5 -0.397805 1.341951 -0.77937 1.06066 -1.06066 
C 0.77937 -1.341951 0.397805 -1.5 0 -1.5 
C -0.397805 -1.5 -0.77937 -1.341951 -1.06066 -1.06066 
C -1.341951 -0.77937 -1.5 -0.397805 -1.5 0 
C -1.5 0.397805 -1.341951 0.77937 -1.06066 1.06066 
C -0.77937 1.341951 -0.397805 1.5 0 1.5 
z
" id="m5b78485959" style="stroke:#ffa500;"/>
    </defs>
    <g>
     <use style="fill:#ffa500;stroke:#ffa500;" x="257.766283" xlink:href="#m5b78485959" y="166.268085"/>
     <use style="fill:#ffa500;stroke:#ffa500;" x="257.766283" xlink:href="#m5b78485959" y="166.268085"/>
    </g>
   </g>
   <g id="line2d_48">
    <path d="M 37.236359 294.88 
L 37.236359 292.643271 
L 49.15061 292.643271 
L 49.15061 291.524907 
L 56.12 291.524907 
L 56.12 290.965724 
L 61.064861 290.965724 
L 61.064861 288.728995 
L 75.003641 288.728995 
L 75.003641 286.492266 
L 76.814644 286.492266 
L 76.814644 282.018808 
L 83.784035 282.018808 
L 83.784035 280.900444 
L 88.728896 280.900444 
L 88.728896 279.222897 
L 99.761485 279.222897 
L 99.761485 277.545351 
L 100.207968 277.545351 
L 100.207968 274.749439 
L 101.481783 274.749439 
L 101.481783 274.190257 
L 105.801534 274.190257 
L 105.801534 273.631075 
L 106.11693 273.631075 
L 106.11693 271.953528 
L 108.988361 271.953528 
L 108.988361 270.835164 
L 111.675736 270.835164 
L 111.675736 270.275981 
L 112.98183 270.275981 
L 112.98183 269.157617 
L 118.031182 269.157617 
L 118.031182 268.598435 
L 118.645127 268.598435 
L 118.645127 268.039252 
L 119.382949 268.039252 
L 119.382949 266.920888 
L 120.769881 266.920888 
L 120.769881 265.243341 
L 120.902613 265.243341 
L 120.902613 264.684159 
L 127.42552 264.684159 
L 127.42552 264.124977 
L 127.959924 264.124977 
L 127.959924 261.888248 
L 129.308744 261.888248 
L 129.308744 261.329066 
L 130.483823 261.329066 
L 130.483823 260.769883 
L 131.224827 260.769883 
L 131.224827 259.092337 
L 131.583684 259.092337 
L 131.583684 257.973972 
L 132.948578 257.973972 
L 132.948578 257.41479 
L 137.018682 257.41479 
L 137.018682 256.855608 
L 140.854214 256.855608 
L 140.854214 256.296425 
L 142.092491 256.296425 
L 142.092491 255.178061 
L 143.139078 255.178061 
L 143.139078 254.618879 
L 144.022553 254.618879 
L 144.022553 253.500514 
L 146.726237 253.500514 
L 146.726237 251.822967 
L 147.615255 251.822967 
L 147.615255 251.263785 
L 148.460544 251.263785 
L 148.460544 250.704603 
L 149.164347 250.704603 
L 149.164347 250.145421 
L 150.035789 250.145421 
L 150.035789 249.027056 
L 151.567774 249.027056 
L 151.567774 246.231145 
L 154.121973 246.231145 
L 154.121973 245.112781 
L 155.500742 245.112781 
L 155.500742 242.876052 
L 156.940317 242.876052 
L 157.021357 241.757687 
L 157.325872 241.757687 
L 157.325872 241.198505 
L 157.7805 241.198505 
L 157.7805 240.639323 
L 158.298636 240.639323 
L 158.298636 240.08014 
L 162.569947 240.08014 
L 162.569947 237.284229 
L 163.570626 237.284229 
L 163.570626 236.725047 
L 164.284668 236.725047 
L 164.284668 235.606682 
L 165.253008 235.606682 
L 165.253008 234.488318 
L 167.414994 234.488318 
L 167.414994 233.929136 
L 168.393542 233.929136 
L 168.393542 231.133225 
L 173.502412 231.133225 
L 173.502412 230.01486 
L 174.009344 230.01486 
L 174.009344 229.455678 
L 174.716795 229.455678 
L 174.716795 228.337313 
L 175.346236 228.337313 
L 175.346236 226.659767 
L 175.473827 226.659767 
L 175.473827 225.541402 
L 177.066799 225.541402 
L 177.066799 224.98222 
L 177.34662 224.98222 
L 177.34662 219.94958 
L 177.504496 219.94958 
L 177.504496 219.390397 
L 179.739452 219.390397 
L 179.739452 218.272033 
L 180.169563 218.272033 
L 180.169563 217.712851 
L 183.93176 217.712851 
L 183.965516 216.035304 
L 184.099882 216.035304 
L 184.099882 215.476122 
L 186.06445 215.476122 
L 186.06445 214.357757 
L 186.322173 214.357757 
L 186.322173 213.239393 
L 186.561597 213.239393 
L 186.561597 212.680211 
L 187.027845 212.680211 
L 187.027845 210.443482 
L 189.134018 210.443482 
L 189.134018 209.884299 
L 190.104699 209.884299 
L 190.104699 207.64757 
L 190.219925 207.64757 
L 190.219925 206.529206 
L 191.208128 206.529206 
L 191.208128 204.851659 
L 191.558571 204.851659 
L 191.558571 204.292477 
L 193.490345 204.292477 
L 193.490345 203.174112 
L 193.667688 203.174112 
L 193.769029 200.937384 
L 193.951081 200.937384 
L 193.951081 199.819019 
L 194.432837 199.819019 
L 194.432837 199.259837 
L 194.698571 199.259837 
L 194.698571 198.700655 
L 194.862145 198.700655 
L 194.862145 197.023108 
L 195.788473 197.023108 
L 195.788473 196.463926 
L 196.991309 196.463926 
L 196.991309 195.904743 
L 198.75055 195.904743 
L 198.75055 195.345561 
L 199.626718 195.345561 
L 199.626718 194.786379 
L 199.891774 194.786379 
L 200.002235 193.108832 
L 200.795518 193.108832 
L 200.836006 189.753739 
L 203.833256 189.753739 
L 203.833256 189.194556 
L 205.056193 189.194556 
L 205.104569 188.076192 
L 206.639892 188.076192 
L 206.639892 187.51701 
L 206.773713 187.51701 
L 206.773713 185.280281 
L 207.211821 185.280281 
L 207.211821 184.161916 
L 209.037818 184.161916 
L 209.037818 183.602734 
L 210.359627 183.602734 
L 210.359627 183.043552 
L 212.166055 183.043552 
L 212.166055 182.48437 
L 212.677436 182.48437 
L 212.677436 181.925187 
L 213.947942 181.925187 
L 214.035533 180.806823 
L 214.323935 180.806823 
L 214.323935 179.688458 
L 215.736358 179.688458 
L 215.736358 179.129276 
L 219.339717 179.129276 
L 219.339717 178.570094 
L 220.6131 178.570094 
L 220.6131 178.010912 
L 220.966179 178.010912 
L 220.966179 176.892547 
L 223.04634 176.892547 
L 223.04634 175.774183 
L 224.241348 175.774183 
L 224.241348 175.215 
L 224.527795 175.215 
L 224.527795 174.655818 
L 225.343471 174.655818 
L 225.343471 174.096636 
L 227.476586 174.096636 
L 227.476586 172.978271 
L 228.868127 172.978271 
L 228.868127 172.419089 
L 231.359802 172.419089 
L 231.359802 171.859907 
L 233.255368 171.859907 
L 233.255368 171.300725 
L 236.862337 171.300725 
L 236.862337 170.741543 
L 241.023991 170.741543 
L 241.023991 170.18236 
L 245.357099 170.18236 
L 245.357099 169.623178 
L 246.222596 169.623178 
L 246.222596 169.063996 
L 248.814849 169.063996 
L 248.814849 168.504814 
L 251.692159 168.504814 
L 251.692159 167.945631 
L 254.156176 167.945631 
L 254.156176 166.827267 
L 257.766283 166.827267 
L 257.766283 166.268085 
L 333.168 166.268085 
L 333.168 166.268085 
" style="fill:none;stroke:#ffa500;stroke-linecap:square;stroke-width:1.5;"/>
   </g>
   <g id="line2d_49">
    <defs>
     <path d="M 0 -6 
L -1.347084 -1.854102 
L -5.706339 -1.854102 
L -2.179628 0.708204 
L -3.526712 4.854102 
L -0 2.291796 
L 3.526712 4.854102 
L 2.179628 0.708204 
L 5.706339 -1.854102 
L 1.347084 -1.854102 
z
" id="mad3f8dd8b7" style="stroke:#ffa500;stroke-linejoin:bevel;stroke-width:1.5;"/>
    </defs>
    <g>
     <use style="fill-opacity:0;stroke:#ffa500;stroke-linejoin:bevel;stroke-width:1.5;" x="111.675736" xlink:href="#mad3f8dd8b7" y="270.275981"/>
     <use style="fill-opacity:0;stroke:#ffa500;stroke-linejoin:bevel;stroke-width:1.5;" x="168.393542" xlink:href="#mad3f8dd8b7" y="231.133225"/>
     <use style="fill-opacity:0;stroke:#ffa500;stroke-linejoin:bevel;stroke-width:1.5;" x="219.339717" xlink:href="#mad3f8dd8b7" y="178.570094"/>
     <use style="fill-opacity:0;stroke:#ffa500;stroke-linejoin:bevel;stroke-width:1.5;" x="257.766283" xlink:href="#mad3f8dd8b7" y="166.827267"/>
     <use style="fill-opacity:0;stroke:#ffa500;stroke-linejoin:bevel;stroke-width:1.5;" x="257.766283" xlink:href="#mad3f8dd8b7" y="166.268085"/>
     <use style="fill-opacity:0;stroke:#ffa500;stroke-linejoin:bevel;stroke-width:1.5;" x="333.168" xlink:href="#mad3f8dd8b7" y="166.268085"/>
    </g>
   </g>
   <g id="line2d_50">
    <path style="fill:none;stroke:#ffa500;stroke-linecap:square;stroke-width:1.5;"/>
    <g/>
   </g>
   <g id="line2d_51">
    <path clip-path="url(#pb2c9625565)" d="M 195.722236 197.023108 
" style="fill:none;stroke:#ffa500;stroke-linecap:square;stroke-width:1.5;"/>
    <defs>
     <path d="M -12 12 
L 12 -12 
M -12 -12 
L 12 12 
" id="mb99b710bc1" style="stroke:#ffa500;"/>
    </defs>
    <g clip-path="url(#pb2c9625565)">
     <use style="fill:#ffa500;stroke:#ffa500;" x="195.722236" xlink:href="#mb99b710bc1" y="197.023108"/>
    </g>
   </g>
   <g id="line2d_52">
    <defs>
     <path d="M 0 1.5 
C 0.397805 1.5 0.77937 1.341951 1.06066 1.06066 
C 1.341951 0.77937 1.5 0.397805 1.5 0 
C 1.5 -0.397805 1.341951 -0.77937 1.06066 -1.06066 
C 0.77937 -1.341951 0.397805 -1.5 0 -1.5 
C -0.397805 -1.5 -0.77937 -1.341951 -1.06066 -1.06066 
C -1.341951 -0.77937 -1.5 -0.397805 -1.5 0 
C -1.5 0.397805 -1.341951 0.77937 -1.06066 1.06066 
C -0.77937 1.341951 -0.397805 1.5 0 1.5 
z
" id="m6a127c7bbe" style="stroke:#6495ed;"/>
    </defs>
    <g>
     <use style="fill:#6495ed;stroke:#6495ed;" x="262.731453" xlink:href="#m6a127c7bbe" y="9.697057"/>
     <use style="fill:#6495ed;stroke:#6495ed;" x="262.731453" xlink:href="#m6a127c7bbe" y="9.697057"/>
    </g>
   </g>
   <g id="line2d_53">
    <path d="M 37.236359 294.88 
L 37.236359 286.492266 
L 49.15061 286.492266 
L 49.15061 284.81472 
L 56.12 284.81472 
L 56.12 283.696355 
L 61.064861 283.696355 
L 61.064861 281.459626 
L 64.900393 281.459626 
L 64.900393 277.545351 
L 68.034251 277.545351 
L 68.034251 276.426986 
L 72.979112 276.426986 
L 72.979112 275.308622 
L 75.003641 275.308622 
L 75.003641 271.953528 
L 78.452896 271.953528 
L 78.452896 270.275981 
L 81.324327 270.275981 
L 81.324327 269.716799 
L 82.598142 269.716799 
L 82.598142 268.598435 
L 83.784035 268.598435 
L 83.784035 268.039252 
L 84.893363 268.039252 
L 84.893363 267.48007 
L 86.917893 267.48007 
L 86.917893 265.243341 
L 89.567532 265.243341 
L 89.567532 264.124977 
L 90.367147 264.124977 
L 90.367147 262.44743 
L 95.698286 262.44743 
L 95.698286 261.888248 
L 96.261898 261.888248 
L 96.261898 260.769883 
L 96.807615 260.769883 
L 96.807615 257.41479 
L 99.761485 257.41479 
L 99.761485 255.737243 
L 103.415125 255.737243 
L 103.415125 255.178061 
L 103.777005 255.178061 
L 103.777005 254.059696 
L 109.250788 254.059696 
L 109.250788 253.500514 
L 112.98183 253.500514 
L 112.98183 252.941332 
L 115.145539 252.941332 
L 115.145539 251.822967 
L 129.630036 251.822967 
L 129.630036 249.027056 
L 132.142713 249.027056 
L 132.142713 247.908692 
L 134.39491 247.908692 
L 134.39491 247.34951 
L 136.546293 247.34951 
L 136.546293 246.790327 
L 138.410429 246.790327 
L 138.410429 246.231145 
L 138.741445 246.231145 
L 138.741445 245.112781 
L 141.019094 245.112781 
L 141.019094 241.757687 
L 142.322186 241.757687 
L 142.322186 241.198505 
L 143.568817 241.198505 
L 143.568817 240.08014 
L 146.93104 240.08014 
L 146.93104 238.961776 
L 147.892497 238.961776 
L 147.892497 237.843411 
L 152.706225 237.843411 
L 152.706225 236.725047 
L 155.623959 236.725047 
L 155.659002 235.0475 
L 156.056945 235.0475 
L 156.056945 234.488318 
L 157.214309 234.488318 
L 157.214309 233.929136 
L 157.842274 233.929136 
L 157.842274 233.369954 
L 158.178119 233.369954 
L 158.178119 232.251589 
L 158.507528 232.251589 
L 158.507528 231.133225 
L 160.769349 231.133225 
L 160.769349 228.896496 
L 161.332122 228.896496 
L 161.332122 227.778131 
L 161.986418 227.778131 
L 161.986418 225.541402 
L 164.785952 225.541402 
L 164.785952 224.98222 
L 168.082008 224.98222 
L 168.082008 222.745491 
L 168.822044 222.745491 
L 168.822044 221.627126 
L 169.327275 221.627126 
L 169.327275 221.067944 
L 172.819582 221.067944 
L 172.819582 220.508762 
L 173.037487 220.508762 
L 173.037487 219.390397 
L 173.189656 219.390397 
L 173.189656 218.272033 
L 173.527189 218.272033 
L 173.527189 216.594486 
L 173.742472 216.594486 
L 173.742472 214.357757 
L 174.757178 214.357757 
L 174.757178 213.798575 
L 175.234513 213.798575 
L 175.234513 212.680211 
L 176.482688 212.680211 
L 176.482688 202.61493 
L 177.282067 202.61493 
L 177.282067 202.055748 
L 177.878547 202.055748 
L 177.878547 200.937384 
L 182.295198 200.937384 
L 182.295198 199.819019 
L 182.461631 199.819019 
L 182.461631 197.023108 
L 184.233205 197.023108 
L 184.233205 196.463926 
L 184.480433 196.463926 
L 184.480433 195.345561 
L 185.122834 195.345561 
L 185.122834 194.227197 
L 186.538385 194.227197 
L 186.538385 190.872103 
L 186.93163 190.872103 
L 186.93163 179.688458 
L 187.37149 179.688458 
L 187.37149 179.129276 
L 188.01753 179.129276 
L 188.01753 178.570094 
L 188.129059 178.570094 
L 188.129059 177.451729 
L 188.562914 177.451729 
L 188.562914 174.655818 
L 190.264398 174.655818 
L 190.264398 172.419089 
L 192.315659 172.419089 
L 192.315659 171.859907 
L 194.691345 171.859907 
L 194.691345 171.300725 
L 194.905027 171.300725 
L 194.905027 170.18236 
L 195.031265 170.18236 
L 195.031265 167.945631 
L 199.943766 167.945631 
L 199.943766 167.386449 
L 200.578809 167.386449 
L 200.679855 162.353809 
L 202.254455 162.353809 
L 202.254455 161.794627 
L 202.533782 161.794627 
L 202.533782 160.11708 
L 202.834538 160.11708 
L 202.918711 158.998715 
L 203.141178 158.998715 
L 203.141178 158.439533 
L 203.797126 158.439533 
L 203.797126 153.966075 
L 204.212267 153.966075 
L 204.212267 152.847711 
L 204.426908 152.847711 
L 204.426908 152.288529 
L 205.12329 152.288529 
L 205.12329 151.729346 
L 205.391028 151.729346 
L 205.391028 151.170164 
L 207.232739 151.170164 
L 207.294473 147.815071 
L 210.235731 147.815071 
L 210.235731 143.341613 
L 211.60863 143.341613 
L 211.60863 141.664066 
L 211.743159 141.664066 
L 211.743159 139.427337 
L 212.143813 139.427337 
L 212.143813 133.276332 
L 212.400447 133.276332 
L 212.400447 132.157968 
L 214.337768 132.157968 
L 214.337768 131.598786 
L 216.381619 131.598786 
L 216.381619 123.770234 
L 217.069517 123.770234 
L 217.069517 122.65187 
L 217.353206 122.65187 
L 217.449623 121.533505 
L 217.738033 121.533505 
L 217.738033 117.060047 
L 217.923757 117.060047 
L 217.923757 115.382501 
L 219.380582 115.382501 
L 219.380582 114.264136 
L 220.899445 114.264136 
L 220.899445 113.145772 
L 221.651296 113.145772 
L 221.726428 112.027407 
L 221.951723 112.027407 
L 221.951723 106.994767 
L 222.424623 106.994767 
L 222.424623 106.435585 
L 223.25028 106.435585 
L 223.25028 105.31722 
L 224.47357 105.31722 
L 224.47357 100.843762 
L 224.906392 100.843762 
L 224.906392 100.28458 
L 225.086752 100.28458 
L 225.148298 98.607033 
L 225.333141 98.607033 
L 225.333141 91.896847 
L 225.452761 91.896847 
L 225.452761 91.337664 
L 226.406878 91.337664 
L 226.406878 90.778482 
L 227.430921 90.778482 
L 227.430921 89.100935 
L 227.948624 89.100935 
L 228.000744 87.982571 
L 228.157452 87.982571 
L 228.258999 82.949931 
L 229.072742 82.949931 
L 229.072742 81.272384 
L 229.953364 81.272384 
L 229.953364 76.798926 
L 230.401318 76.798926 
L 230.401318 76.239744 
L 230.582522 76.239744 
L 230.670742 70.647921 
L 232.152568 70.647921 
L 232.152568 67.85201 
L 232.547336 67.85201 
L 232.547336 66.733646 
L 232.70737 66.733646 
L 232.70737 63.937735 
L 233.414101 63.937735 
L 233.414101 63.378552 
L 234.102044 63.378552 
L 234.102044 60.582641 
L 234.598209 60.582641 
L 234.668086 57.78673 
L 235.232661 57.78673 
L 235.232661 57.227548 
L 235.852767 57.227548 
L 235.852767 54.431636 
L 236.204104 54.431636 
L 236.301506 51.635725 
L 236.364803 51.635725 
L 236.364803 49.958178 
L 236.877093 49.958178 
L 236.877093 49.398996 
L 237.441541 49.398996 
L 237.441541 47.72145 
L 237.732629 47.72145 
L 237.762146 46.603085 
L 237.85113 46.603085 
L 237.85113 43.247992 
L 238.377848 43.247992 
L 238.377848 42.129627 
L 238.895808 42.129627 
L 238.895808 41.570445 
L 239.163463 41.570445 
L 239.272529 39.892898 
L 239.325795 39.892898 
L 239.325795 39.333716 
L 239.758028 39.333716 
L 239.758028 38.774534 
L 240.236574 38.774534 
L 240.236574 35.978622 
L 240.484289 35.978622 
L 240.585312 32.064347 
L 241.035574 32.064347 
L 241.035574 31.505165 
L 241.480282 31.505165 
L 241.480282 30.3868 
L 241.804906 30.3868 
L 241.804906 29.827618 
L 242.943669 29.827618 
L 242.986704 28.150071 
L 243.726468 28.150071 
L 243.726468 27.590889 
L 244.381409 27.590889 
L 244.381409 27.031707 
L 244.74829 27.031707 
L 244.74829 25.913342 
L 245.017144 25.913342 
L 245.017144 25.35416 
L 245.712761 25.35416 
L 245.712761 24.794978 
L 245.967053 24.794978 
L 245.967053 23.117431 
L 246.297429 23.117431 
L 246.297429 22.558249 
L 246.625977 22.558249 
L 246.625977 21.999066 
L 246.867203 21.999066 
L 246.867203 21.439884 
L 248.021128 21.439884 
L 248.021128 20.32152 
L 248.473807 20.32152 
L 248.568435 19.203155 
L 249.106247 19.203155 
L 249.106247 18.643973 
L 250.087938 18.643973 
L 250.087938 18.084791 
L 250.320388 18.084791 
L 250.320388 17.525609 
L 250.772814 17.525609 
L 250.772814 16.966426 
L 252.750725 16.966426 
L 252.750725 16.407244 
L 253.197543 16.407244 
L 253.197543 15.848062 
L 253.362493 15.848062 
L 253.362493 14.729697 
L 253.793882 14.729697 
L 253.793882 14.170515 
L 254.370223 14.170515 
L 254.370223 13.052151 
L 255.991643 13.052151 
L 255.991643 12.492968 
L 256.606272 12.492968 
L 256.606272 11.933786 
L 260.62557 11.933786 
L 260.62557 11.374604 
L 260.894353 11.374604 
L 260.894353 10.815422 
L 262.019997 10.815422 
L 262.019997 10.256239 
L 262.731453 10.256239 
L 262.731453 9.697057 
L 333.168 9.697057 
L 333.168 9.697057 
" style="fill:none;stroke:#6495ed;stroke-linecap:square;stroke-width:1.5;"/>
   </g>
   <g id="line2d_54">
    <defs>
     <path d="M -0 6 
L 6 -6 
L -6 -6 
z
" id="m9451d24069" style="stroke:#6495ed;stroke-linejoin:miter;stroke-width:1.5;"/>
    </defs>
    <g>
     <use style="fill-opacity:0;stroke:#6495ed;stroke-linejoin:miter;stroke-width:1.5;" x="103.777005" xlink:href="#m9451d24069" y="254.059696"/>
     <use style="fill-opacity:0;stroke:#6495ed;stroke-linejoin:miter;stroke-width:1.5;" x="173.527189" xlink:href="#m9451d24069" y="218.272033"/>
     <use style="fill-opacity:0;stroke:#6495ed;stroke-linejoin:miter;stroke-width:1.5;" x="221.651296" xlink:href="#m9451d24069" y="113.145772"/>
     <use style="fill-opacity:0;stroke:#6495ed;stroke-linejoin:miter;stroke-width:1.5;" x="260.894353" xlink:href="#m9451d24069" y="10.815422"/>
     <use style="fill-opacity:0;stroke:#6495ed;stroke-linejoin:miter;stroke-width:1.5;" x="262.731453" xlink:href="#m9451d24069" y="9.697057"/>
     <use style="fill-opacity:0;stroke:#6495ed;stroke-linejoin:miter;stroke-width:1.5;" x="333.168" xlink:href="#m9451d24069" y="9.697057"/>
    </g>
   </g>
   <g id="line2d_55">
    <path style="fill:none;stroke:#6495ed;stroke-linecap:square;stroke-width:1.5;"/>
    <g/>
   </g>
   <g id="line2d_56">
    <path clip-path="url(#pb2c9625565)" d="M 195.722236 167.945631 
" style="fill:none;stroke:#6495ed;stroke-linecap:square;stroke-width:1.5;"/>
    <defs>
     <path d="M -12 12 
L 12 -12 
M -12 -12 
L 12 12 
" id="m6facf5634e" style="stroke:#6495ed;"/>
    </defs>
    <g clip-path="url(#pb2c9625565)">
     <use style="fill:#6495ed;stroke:#6495ed;" x="195.722236" xlink:href="#m6facf5634e" y="167.945631"/>
    </g>
   </g>
   <g id="line2d_57">
    <path d="M 333.168 183.043552 
L 363.64328 289.176341 
" style="fill:none;stroke:#ff00ff;stroke-linecap:square;stroke-width:1.5;"/>
    <g>
     <use style="fill-opacity:0;stroke:#ff00ff;stroke-linejoin:miter;stroke-width:1.5;" x="333.168" xlink:href="#m7b0b4f1d8b" y="183.043552"/>
     <use style="fill-opacity:0;stroke:#ff00ff;stroke-linejoin:miter;stroke-width:1.5;" x="363.64328" xlink:href="#m7b0b4f1d8b" y="289.176341"/>
    </g>
   </g>
   <g id="line2d_58">
    <path d="M 333.168 166.268085 
L 363.64328 197.917799 
" style="fill:none;stroke:#000080;stroke-linecap:square;stroke-width:1.5;"/>
    <g>
     <use style="fill-opacity:0;stroke:#000080;stroke-width:1.5;" x="333.168" xlink:href="#m608923d6dc" y="166.268085"/>
     <use style="fill-opacity:0;stroke:#000080;stroke-width:1.5;" x="363.64328" xlink:href="#m608923d6dc" y="197.917799"/>
    </g>
   </g>
   <g id="line2d_59">
    <path d="M 333.168 166.268085 
L 363.64328 106.659258 
" style="fill:none;stroke:#ffa500;stroke-linecap:square;stroke-width:1.5;"/>
    <g>
     <use style="fill-opacity:0;stroke:#ffa500;stroke-linejoin:bevel;stroke-width:1.5;" x="333.168" xlink:href="#mad3f8dd8b7" y="166.268085"/>
     <use style="fill-opacity:0;stroke:#ffa500;stroke-linejoin:bevel;stroke-width:1.5;" x="363.64328" xlink:href="#mad3f8dd8b7" y="106.659258"/>
    </g>
   </g>
   <g id="line2d_60">
    <path d="M 333.168 9.697057 
L 363.64328 15.400716 
" style="fill:none;stroke:#6495ed;stroke-linecap:square;stroke-width:1.5;"/>
    <g>
     <use style="fill-opacity:0;stroke:#6495ed;stroke-linejoin:miter;stroke-width:1.5;" x="333.168" xlink:href="#m9451d24069" y="9.697057"/>
     <use style="fill-opacity:0;stroke:#6495ed;stroke-linejoin:miter;stroke-width:1.5;" x="363.64328" xlink:href="#m9451d24069" y="15.400716"/>
    </g>
   </g>
   <g id="line2d_61">
    <path d="M 333.168 294.88 
L 333.168 9.697057 
" style="fill:none;stroke:#000000;stroke-linecap:square;stroke-width:1.5;"/>
   </g>
   <g id="patch_3">
    <path d="M 56.12 294.88 
L 56.12 6.845228 
" style="fill:none;stroke:#000000;stroke-linecap:square;stroke-linejoin:miter;stroke-width:0.8;"/>
   </g>
   <g id="patch_4">
    <path d="M 333.168 294.88 
L 333.168 6.845228 
" style="fill:none;stroke:#000000;stroke-linecap:square;stroke-linejoin:miter;stroke-width:0.8;"/>
   </g>
   <g id="patch_5">
    <path d="M 56.12 294.88 
L 333.168 294.88 
" style="fill:none;stroke:#000000;stroke-linecap:square;stroke-linejoin:miter;stroke-width:0.8;"/>
   </g>
   <g id="patch_6">
    <path d="M 56.12 6.845228 
L 333.168 6.845228 
" style="fill:none;stroke:#000000;stroke-linecap:square;stroke-linejoin:miter;stroke-width:0.8;"/>
   </g>
   <g id="text_13">
    <!-- f9 -->
    <defs>
     <path d="M 10.984375 1.515625 
L 10.984375 10.5 
Q 14.703125 8.734375 18.5 7.8125 
Q 22.3125 6.890625 25.984375 6.890625 
Q 35.75 6.890625 40.890625 13.453125 
Q 46.046875 20.015625 46.78125 33.40625 
Q 43.953125 29.203125 39.59375 26.953125 
Q 35.25 24.703125 29.984375 24.703125 
Q 19.046875 24.703125 12.671875 31.3125 
Q 6.296875 37.9375 6.296875 49.421875 
Q 6.296875 60.640625 12.9375 67.421875 
Q 19.578125 74.21875 30.609375 74.21875 
Q 43.265625 74.21875 49.921875 64.515625 
Q 56.59375 54.828125 56.59375 36.375 
Q 56.59375 19.140625 48.40625 8.859375 
Q 40.234375 -1.421875 26.421875 -1.421875 
Q 22.703125 -1.421875 18.890625 -0.6875 
Q 15.09375 0.046875 10.984375 1.515625 
z
M 30.609375 32.421875 
Q 37.25 32.421875 41.125 36.953125 
Q 45.015625 41.5 45.015625 49.421875 
Q 45.015625 57.28125 41.125 61.84375 
Q 37.25 66.40625 30.609375 66.40625 
Q 23.96875 66.40625 20.09375 61.84375 
Q 16.21875 57.28125 16.21875 49.421875 
Q 16.21875 41.5 20.09375 36.953125 
Q 23.96875 32.421875 30.609375 32.421875 
z
" id="DejaVuSans-39"/>
    </defs>
    <g transform="translate(369.18424 293.867279)scale(0.17 -0.17)">
     <use xlink:href="#DejaVuSans-66"/>
     <use x="35.205078" xlink:href="#DejaVuSans-39"/>
    </g>
   </g>
   <g id="text_14">
    <!-- f8 -->
    <g transform="translate(369.18424 202.608737)scale(0.17 -0.17)">
     <use xlink:href="#DejaVuSans-66"/>
     <use x="35.205078" xlink:href="#DejaVuSans-38"/>
    </g>
   </g>
   <g id="text_15">
    <!-- f6 -->
    <g transform="translate(369.18424 111.350195)scale(0.17 -0.17)">
     <use xlink:href="#DejaVuSans-66"/>
     <use x="35.205078" xlink:href="#DejaVuSans-36"/>
    </g>
   </g>
   <g id="text_16">
    <!-- f7 -->
    <defs>
     <path d="M 8.203125 72.90625 
L 55.078125 72.90625 
L 55.078125 68.703125 
L 28.609375 0 
L 18.3125 0 
L 43.21875 64.59375 
L 8.203125 64.59375 
z
" id="DejaVuSans-37"/>
    </defs>
    <g transform="translate(369.18424 20.091654)scale(0.17 -0.17)">
     <use xlink:href="#DejaVuSans-66"/>
     <use x="35.205078" xlink:href="#DejaVuSans-37"/>
    </g>
   </g>
   <g id="text_17">
    <!-- bbob -->
    <defs>
     <path d="M 48.6875 27.296875 
Q 48.6875 37.203125 44.609375 42.84375 
Q 40.53125 48.484375 33.40625 48.484375 
Q 26.265625 48.484375 22.1875 42.84375 
Q 18.109375 37.203125 18.109375 27.296875 
Q 18.109375 17.390625 22.1875 11.75 
Q 26.265625 6.109375 33.40625 6.109375 
Q 40.53125 6.109375 44.609375 11.75 
Q 48.6875 17.390625 48.6875 27.296875 
z
M 18.109375 46.390625 
Q 20.953125 51.265625 25.265625 53.625 
Q 29.59375 56 35.59375 56 
Q 45.5625 56 51.78125 48.09375 
Q 58.015625 40.1875 58.015625 27.296875 
Q 58.015625 14.40625 51.78125 6.484375 
Q 45.5625 -1.421875 35.59375 -1.421875 
Q 29.59375 -1.421875 25.265625 0.953125 
Q 20.953125 3.328125 18.109375 8.203125 
L 18.109375 0 
L 9.078125 0 
L 9.078125 75.984375 
L 18.109375 75.984375 
z
" id="DejaVuSans-62"/>
    </defs>
    <g transform="translate(58.89048 17.475982)scale(0.102 -0.102)">
     <use xlink:href="#DejaVuSans-62"/>
     <use x="63.476562" xlink:href="#DejaVuSans-62"/>
     <use x="126.953125" xlink:href="#DejaVuSans-6f"/>
     <use x="188.134766" xlink:href="#DejaVuSans-62"/>
    </g>
    <!-- Misc. moderate functions, 3-D -->
    <defs>
     <path d="M 9.8125 72.90625 
L 24.515625 72.90625 
L 43.109375 23.296875 
L 61.8125 72.90625 
L 76.515625 72.90625 
L 76.515625 0 
L 66.890625 0 
L 66.890625 64.015625 
L 48.09375 14.015625 
L 38.1875 14.015625 
L 19.390625 64.015625 
L 19.390625 0 
L 9.8125 0 
z
" id="DejaVuSans-4d"/>
     <path d="M 40.578125 39.3125 
Q 47.65625 37.796875 51.625 33 
Q 55.609375 28.21875 55.609375 21.1875 
Q 55.609375 10.40625 48.1875 4.484375 
Q 40.765625 -1.421875 27.09375 -1.421875 
Q 22.515625 -1.421875 17.65625 -0.515625 
Q 12.796875 0.390625 7.625 2.203125 
L 7.625 11.71875 
Q 11.71875 9.328125 16.59375 8.109375 
Q 21.484375 6.890625 26.8125 6.890625 
Q 36.078125 6.890625 40.9375 10.546875 
Q 45.796875 14.203125 45.796875 21.1875 
Q 45.796875 27.640625 41.28125 31.265625 
Q 36.765625 34.90625 28.71875 34.90625 
L 20.21875 34.90625 
L 20.21875 43.015625 
L 29.109375 43.015625 
Q 36.375 43.015625 40.234375 45.921875 
Q 44.09375 48.828125 44.09375 54.296875 
Q 44.09375 59.90625 40.109375 62.90625 
Q 36.140625 65.921875 28.71875 65.921875 
Q 24.65625 65.921875 20.015625 65.03125 
Q 15.375 64.15625 9.8125 62.3125 
L 9.8125 71.09375 
Q 15.4375 72.65625 20.34375 73.4375 
Q 25.25 74.21875 29.59375 74.21875 
Q 40.828125 74.21875 47.359375 69.109375 
Q 53.90625 64.015625 53.90625 55.328125 
Q 53.90625 49.265625 50.4375 45.09375 
Q 46.96875 40.921875 40.578125 39.3125 
z
" id="DejaVuSans-33"/>
     <path d="M 19.671875 64.796875 
L 19.671875 8.109375 
L 31.59375 8.109375 
Q 46.6875 8.109375 53.6875 14.9375 
Q 60.6875 21.78125 60.6875 36.53125 
Q 60.6875 51.171875 53.6875 57.984375 
Q 46.6875 64.796875 31.59375 64.796875 
z
M 9.8125 72.90625 
L 30.078125 72.90625 
Q 51.265625 72.90625 61.171875 64.09375 
Q 71.09375 55.28125 71.09375 36.53125 
Q 71.09375 17.671875 61.125 8.828125 
Q 51.171875 0 30.078125 0 
L 9.8125 0 
z
" id="DejaVuSans-44"/>
    </defs>
    <g transform="translate(58.89048 28.89775)scale(0.102 -0.102)">
     <use xlink:href="#DejaVuSans-4d"/>
     <use x="86.279297" xlink:href="#DejaVuSans-69"/>
     <use x="114.0625" xlink:href="#DejaVuSans-73"/>
     <use x="166.162109" xlink:href="#DejaVuSans-63"/>
     <use x="221.142578" xlink:href="#DejaVuSans-2e"/>
     <use x="252.929688" xlink:href="#DejaVuSans-20"/>
     <use x="284.716797" xlink:href="#DejaVuSans-6d"/>
     <use x="382.128906" xlink:href="#DejaVuSans-6f"/>
     <use x="443.310547" xlink:href="#DejaVuSans-64"/>
     <use x="506.787109" xlink:href="#DejaVuSans-65"/>
     <use x="568.310547" xlink:href="#DejaVuSans-72"/>
     <use x="609.423828" xlink:href="#DejaVuSans-61"/>
     <use x="670.703125" xlink:href="#DejaVuSans-74"/>
     <use x="709.912109" xlink:href="#DejaVuSans-65"/>
     <use x="771.435547" xlink:href="#DejaVuSans-20"/>
     <use x="803.222656" xlink:href="#DejaVuSans-66"/>
     <use x="838.427734" xlink:href="#DejaVuSans-75"/>
     <use x="901.806641" xlink:href="#DejaVuSans-6e"/>
     <use x="965.185547" xlink:href="#DejaVuSans-63"/>
     <use x="1020.166016" xlink:href="#DejaVuSans-74"/>
     <use x="1059.375" xlink:href="#DejaVuSans-69"/>
     <use x="1087.158203" xlink:href="#DejaVuSans-6f"/>
     <use x="1148.339844" xlink:href="#DejaVuSans-6e"/>
     <use x="1211.71875" xlink:href="#DejaVuSans-73"/>
     <use x="1263.818359" xlink:href="#DejaVuSans-2c"/>
     <use x="1295.605469" xlink:href="#DejaVuSans-20"/>
     <use x="1327.392578" xlink:href="#DejaVuSans-33"/>
     <use x="1391.015625" xlink:href="#DejaVuSans-2d"/>
     <use x="1427.099609" xlink:href="#DejaVuSans-44"/>
    </g>
    <!-- 51 targets: 100..1e-08 -->
    <defs>
     <path d="M 10.796875 72.90625 
L 49.515625 72.90625 
L 49.515625 64.59375 
L 19.828125 64.59375 
L 19.828125 46.734375 
Q 21.96875 47.46875 24.109375 47.828125 
Q 26.265625 48.1875 28.421875 48.1875 
Q 40.625 48.1875 47.75 41.5 
Q 54.890625 34.8125 54.890625 23.390625 
Q 54.890625 11.625 47.5625 5.09375 
Q 40.234375 -1.421875 26.90625 -1.421875 
Q 22.3125 -1.421875 17.546875 -0.640625 
Q 12.796875 0.140625 7.71875 1.703125 
L 7.71875 11.625 
Q 12.109375 9.234375 16.796875 8.0625 
Q 21.484375 6.890625 26.703125 6.890625 
Q 35.15625 6.890625 40.078125 11.328125 
Q 45.015625 15.765625 45.015625 23.390625 
Q 45.015625 31 40.078125 35.4375 
Q 35.15625 39.890625 26.703125 39.890625 
Q 22.75 39.890625 18.8125 39.015625 
Q 14.890625 38.140625 10.796875 36.28125 
z
" id="DejaVuSans-35"/>
     <path d="M 11.71875 12.40625 
L 22.015625 12.40625 
L 22.015625 0 
L 11.71875 0 
z
M 11.71875 51.703125 
L 22.015625 51.703125 
L 22.015625 39.3125 
L 11.71875 39.3125 
z
" id="DejaVuSans-3a"/>
    </defs>
    <g transform="translate(58.89048 40.319519)scale(0.102 -0.102)">
     <use xlink:href="#DejaVuSans-35"/>
     <use x="63.623047" xlink:href="#DejaVuSans-31"/>
     <use x="127.246094" xlink:href="#DejaVuSans-20"/>
     <use x="159.033203" xlink:href="#DejaVuSans-74"/>
     <use x="198.242188" xlink:href="#DejaVuSans-61"/>
     <use x="259.521484" xlink:href="#DejaVuSans-72"/>
     <use x="300.619141" xlink:href="#DejaVuSans-67"/>
     <use x="364.095703" xlink:href="#DejaVuSans-65"/>
     <use x="425.619141" xlink:href="#DejaVuSans-74"/>
     <use x="464.828125" xlink:href="#DejaVuSans-73"/>
     <use x="516.927734" xlink:href="#DejaVuSans-3a"/>
     <use x="550.619141" xlink:href="#DejaVuSans-20"/>
     <use x="582.40625" xlink:href="#DejaVuSans-31"/>
     <use x="646.029297" xlink:href="#DejaVuSans-30"/>
     <use x="709.652344" xlink:href="#DejaVuSans-30"/>
     <use x="773.275391" xlink:href="#DejaVuSans-2e"/>
     <use x="805.0625" xlink:href="#DejaVuSans-2e"/>
     <use x="836.849609" xlink:href="#DejaVuSans-31"/>
     <use x="900.472656" xlink:href="#DejaVuSans-65"/>
     <use x="961.996094" xlink:href="#DejaVuSans-2d"/>
     <use x="998.080078" xlink:href="#DejaVuSans-30"/>
     <use x="1061.703125" xlink:href="#DejaVuSans-38"/>
    </g>
    <!-- 15 instances -->
    <g transform="translate(58.89048 51.741288)scale(0.102 -0.102)">
     <use xlink:href="#DejaVuSans-31"/>
     <use x="63.623047" xlink:href="#DejaVuSans-35"/>
     <use x="127.246094" xlink:href="#DejaVuSans-20"/>
     <use x="159.033203" xlink:href="#DejaVuSans-69"/>
     <use x="186.816406" xlink:href="#DejaVuSans-6e"/>
     <use x="250.195312" xlink:href="#DejaVuSans-73"/>
     <use x="302.294922" xlink:href="#DejaVuSans-74"/>
     <use x="341.503906" xlink:href="#DejaVuSans-61"/>
     <use x="402.783203" xlink:href="#DejaVuSans-6e"/>
     <use x="466.162109" xlink:href="#DejaVuSans-63"/>
     <use x="521.142578" xlink:href="#DejaVuSans-65"/>
     <use x="582.666016" xlink:href="#DejaVuSans-73"/>
    </g>
   </g>
   <g id="text_18">
    <!-- v0.0.0 -->
    <g style="fill:#808080;" transform="translate(178.96275 289.919965)scale(0.1 -0.1)">
     <use xlink:href="#DejaVuSans-76"/>
     <use x="59.179688" xlink:href="#DejaVuSans-30"/>
     <use x="122.802734" xlink:href="#DejaVuSans-2e"/>
     <use x="154.589844" xlink:href="#DejaVuSans-30"/>
     <use x="218.212891" xlink:href="#DejaVuSans-2e"/>
     <use x="250" xlink:href="#DejaVuSans-30"/>
    </g>
   </g>
  </g>
 </g>
 <defs>
  <clipPath id="pb2c9625565">
   <rect height="288.034772" width="277.048" x="56.12" y="6.845228"/>
  </clipPath>
 </defs>
</svg>
