<?xml version="1.0" encoding="utf-8" standalone="no"?>
<!DOCTYPE svg PUBLIC "-//W3C//DTD SVG 1.1//EN"
  "http://www.w3.org/Graphics/SVG/1.1/DTD/svg11.dtd">
<!-- Created with matplotlib (http://matplotlib.org/) -->
<svg height="345.6pt" version="1.1" viewBox="0 0 460.8 345.6" width="460.8pt" xmlns="http://www.w3.org/2000/svg" xmlns:xlink="http://www.w3.org/1999/xlink">
 <defs>
  <style type="text/css">
*{stroke-linecap:butt;stroke-linejoin:round;}
  </style>
 </defs>
 <g id="figure_1">
  <g id="patch_1">
   <path d="M 0 345.6 
L 460.8 345.6 
L 460.8 0 
L 0 0 
z
" style="fill:#ffffff;"/>
  </g>
  <g id="axes_1">
   <g id="patch_2">
    <path d="M 56.12 294.88 
L 333.168 294.88 
L 333.168 6.845228 
L 56.12 6.845228 
z
" style="fill:#ffffff;"/>
   </g>
   <g id="matplotlib.axis_1">
    <g id="xtick_1">
     <g id="line2d_1">
      <path clip-path="url(#p63f9e55077)" d="M 56.12 294.88 
L 56.12 6.845228 
" style="fill:none;stroke:#b0b0b0;stroke-linecap:square;stroke-width:0.8;"/>
     </g>
     <g id="line2d_2">
      <defs>
       <path d="M 0 0 
L 0 3.5 
" id="m0fdc73ba68" style="stroke:#000000;stroke-width:0.8;"/>
      </defs>
      <g>
       <use style="stroke:#000000;stroke-width:0.8;" x="56.12" xlink:href="#m0fdc73ba68" y="294.88"/>
      </g>
     </g>
     <g id="text_1">
      <!-- 0 -->
      <defs>
       <path d="M 31.78125 66.40625 
Q 24.171875 66.40625 20.328125 58.90625 
Q 16.5 51.421875 16.5 36.375 
Q 16.5 21.390625 20.328125 13.890625 
Q 24.171875 6.390625 31.78125 6.390625 
Q 39.453125 6.390625 43.28125 13.890625 
Q 47.125 21.390625 47.125 36.375 
Q 47.125 51.421875 43.28125 58.90625 
Q 39.453125 66.40625 31.78125 66.40625 
z
M 31.78125 74.21875 
Q 44.046875 74.21875 50.515625 64.515625 
Q 56.984375 54.828125 56.984375 36.375 
Q 56.984375 17.96875 50.515625 8.265625 
Q 44.046875 -1.421875 31.78125 -1.421875 
Q 19.53125 -1.421875 13.0625 8.265625 
Q 6.59375 17.96875 6.59375 36.375 
Q 6.59375 54.828125 13.0625 64.515625 
Q 19.53125 74.21875 31.78125 74.21875 
z
" id="DejaVuSans-30"/>
      </defs>
      <g transform="translate(49.7575 317.076875)scale(0.2 -0.2)">
       <use xlink:href="#DejaVuSans-30"/>
      </g>
     </g>
    </g>
    <g id="xtick_2">
     <g id="line2d_3">
      <path clip-path="url(#p63f9e55077)" d="M 135.276571 294.88 
L 135.276571 6.845228 
" style="fill:none;stroke:#b0b0b0;stroke-linecap:square;stroke-width:0.8;"/>
     </g>
     <g id="line2d_4">
      <g>
       <use style="stroke:#000000;stroke-width:0.8;" x="135.276571" xlink:href="#m0fdc73ba68" y="294.88"/>
      </g>
     </g>
     <g id="text_2">
      <!-- 2 -->
      <defs>
       <path d="M 19.1875 8.296875 
L 53.609375 8.296875 
L 53.609375 0 
L 7.328125 0 
L 7.328125 8.296875 
Q 12.9375 14.109375 22.625 23.890625 
Q 32.328125 33.6875 34.8125 36.53125 
Q 39.546875 41.84375 41.421875 45.53125 
Q 43.3125 49.21875 43.3125 52.78125 
Q 43.3125 58.59375 39.234375 62.25 
Q 35.15625 65.921875 28.609375 65.921875 
Q 23.96875 65.921875 18.8125 64.3125 
Q 13.671875 62.703125 7.8125 59.421875 
L 7.8125 69.390625 
Q 13.765625 71.78125 18.9375 73 
Q 24.125 74.21875 28.421875 74.21875 
Q 39.75 74.21875 46.484375 68.546875 
Q 53.21875 62.890625 53.21875 53.421875 
Q 53.21875 48.921875 51.53125 44.890625 
Q 49.859375 40.875 45.40625 35.40625 
Q 44.1875 33.984375 37.640625 27.21875 
Q 31.109375 20.453125 19.1875 8.296875 
z
" id="DejaVuSans-32"/>
      </defs>
      <g transform="translate(128.914071 317.076875)scale(0.2 -0.2)">
       <use xlink:href="#DejaVuSans-32"/>
      </g>
     </g>
    </g>
    <g id="xtick_3">
     <g id="line2d_5">
      <path clip-path="url(#p63f9e55077)" d="M 214.433143 294.88 
L 214.433143 6.845228 
" style="fill:none;stroke:#b0b0b0;stroke-linecap:square;stroke-width:0.8;"/>
     </g>
     <g id="line2d_6">
      <g>
       <use style="stroke:#000000;stroke-width:0.8;" x="214.433143" xlink:href="#m0fdc73ba68" y="294.88"/>
      </g>
     </g>
     <g id="text_3">
      <!-- 4 -->
      <defs>
       <path d="M 37.796875 64.3125 
L 12.890625 25.390625 
L 37.796875 25.390625 
z
M 35.203125 72.90625 
L 47.609375 72.90625 
L 47.609375 25.390625 
L 58.015625 25.390625 
L 58.015625 17.1875 
L 47.609375 17.1875 
L 47.609375 0 
L 37.796875 0 
L 37.796875 17.1875 
L 4.890625 17.1875 
L 4.890625 26.703125 
z
" id="DejaVuSans-34"/>
      </defs>
      <g transform="translate(208.070643 317.076875)scale(0.2 -0.2)">
       <use xlink:href="#DejaVuSans-34"/>
      </g>
     </g>
    </g>
    <g id="xtick_4">
     <g id="line2d_7">
      <path clip-path="url(#p63f9e55077)" d="M 293.589714 294.88 
L 293.589714 6.845228 
" style="fill:none;stroke:#b0b0b0;stroke-linecap:square;stroke-width:0.8;"/>
     </g>
     <g id="line2d_8">
      <g>
       <use style="stroke:#000000;stroke-width:0.8;" x="293.589714" xlink:href="#m0fdc73ba68" y="294.88"/>
      </g>
     </g>
     <g id="text_4">
      <!-- 6 -->
      <defs>
       <path d="M 33.015625 40.375 
Q 26.375 40.375 22.484375 35.828125 
Q 18.609375 31.296875 18.609375 23.390625 
Q 18.609375 15.53125 22.484375 10.953125 
Q 26.375 6.390625 33.015625 6.390625 
Q 39.65625 6.390625 43.53125 10.953125 
Q 47.40625 15.53125 47.40625 23.390625 
Q 47.40625 31.296875 43.53125 35.828125 
Q 39.65625 40.375 33.015625 40.375 
z
M 52.59375 71.296875 
L 52.59375 62.3125 
Q 48.875 64.0625 45.09375 64.984375 
Q 41.3125 65.921875 37.59375 65.921875 
Q 27.828125 65.921875 22.671875 59.328125 
Q 17.53125 52.734375 16.796875 39.40625 
Q 19.671875 43.65625 24.015625 45.921875 
Q 28.375 48.1875 33.59375 48.1875 
Q 44.578125 48.1875 50.953125 41.515625 
Q 57.328125 34.859375 57.328125 23.390625 
Q 57.328125 12.15625 50.6875 5.359375 
Q 44.046875 -1.421875 33.015625 -1.421875 
Q 20.359375 -1.421875 13.671875 8.265625 
Q 6.984375 17.96875 6.984375 36.375 
Q 6.984375 53.65625 15.1875 63.9375 
Q 23.390625 74.21875 37.203125 74.21875 
Q 40.921875 74.21875 44.703125 73.484375 
Q 48.484375 72.75 52.59375 71.296875 
z
" id="DejaVuSans-36"/>
      </defs>
      <g transform="translate(287.227214 317.076875)scale(0.2 -0.2)">
       <use xlink:href="#DejaVuSans-36"/>
      </g>
     </g>
    </g>
    <g id="xtick_5">
     <g id="line2d_9">
      <path clip-path="url(#p63f9e55077)" d="M 56.12 294.88 
L 56.12 6.845228 
" style="fill:none;stroke:#b0b0b0;stroke-linecap:square;stroke-width:0.8;"/>
     </g>
     <g id="line2d_10">
      <defs>
       <path d="M 0 0 
L 0 2 
" id="mcc674e45bd" style="stroke:#000000;stroke-width:0.6;"/>
      </defs>
      <g>
       <use style="stroke:#000000;stroke-width:0.6;" x="56.12" xlink:href="#mcc674e45bd" y="294.88"/>
      </g>
     </g>
    </g>
    <g id="xtick_6">
     <g id="line2d_11">
      <path clip-path="url(#p63f9e55077)" d="M 95.698286 294.88 
L 95.698286 6.845228 
" style="fill:none;stroke:#b0b0b0;stroke-linecap:square;stroke-width:0.8;"/>
     </g>
     <g id="line2d_12">
      <g>
       <use style="stroke:#000000;stroke-width:0.6;" x="95.698286" xlink:href="#mcc674e45bd" y="294.88"/>
      </g>
     </g>
    </g>
    <g id="xtick_7">
     <g id="line2d_13">
      <path clip-path="url(#p63f9e55077)" d="M 135.276571 294.88 
L 135.276571 6.845228 
" style="fill:none;stroke:#b0b0b0;stroke-linecap:square;stroke-width:0.8;"/>
     </g>
     <g id="line2d_14">
      <g>
       <use style="stroke:#000000;stroke-width:0.6;" x="135.276571" xlink:href="#mcc674e45bd" y="294.88"/>
      </g>
     </g>
    </g>
    <g id="xtick_8">
     <g id="line2d_15">
      <path clip-path="url(#p63f9e55077)" d="M 174.854857 294.88 
L 174.854857 6.845228 
" style="fill:none;stroke:#b0b0b0;stroke-linecap:square;stroke-width:0.8;"/>
     </g>
     <g id="line2d_16">
      <g>
       <use style="stroke:#000000;stroke-width:0.6;" x="174.854857" xlink:href="#mcc674e45bd" y="294.88"/>
      </g>
     </g>
    </g>
    <g id="xtick_9">
     <g id="line2d_17">
      <path clip-path="url(#p63f9e55077)" d="M 214.433143 294.88 
L 214.433143 6.845228 
" style="fill:none;stroke:#b0b0b0;stroke-linecap:square;stroke-width:0.8;"/>
     </g>
     <g id="line2d_18">
      <g>
       <use style="stroke:#000000;stroke-width:0.6;" x="214.433143" xlink:href="#mcc674e45bd" y="294.88"/>
      </g>
     </g>
    </g>
    <g id="xtick_10">
     <g id="line2d_19">
      <path clip-path="url(#p63f9e55077)" d="M 254.011429 294.88 
L 254.011429 6.845228 
" style="fill:none;stroke:#b0b0b0;stroke-linecap:square;stroke-width:0.8;"/>
     </g>
     <g id="line2d_20">
      <g>
       <use style="stroke:#000000;stroke-width:0.6;" x="254.011429" xlink:href="#mcc674e45bd" y="294.88"/>
      </g>
     </g>
    </g>
    <g id="xtick_11">
     <g id="line2d_21">
      <path clip-path="url(#p63f9e55077)" d="M 293.589714 294.88 
L 293.589714 6.845228 
" style="fill:none;stroke:#b0b0b0;stroke-linecap:square;stroke-width:0.8;"/>
     </g>
     <g id="line2d_22">
      <g>
       <use style="stroke:#000000;stroke-width:0.6;" x="293.589714" xlink:href="#mcc674e45bd" y="294.88"/>
      </g>
     </g>
    </g>
    <g id="xtick_12">
     <g id="line2d_23">
      <path clip-path="url(#p63f9e55077)" d="M 333.168 294.88 
L 333.168 6.845228 
" style="fill:none;stroke:#b0b0b0;stroke-linecap:square;stroke-width:0.8;"/>
     </g>
     <g id="line2d_24">
      <g>
       <use style="stroke:#000000;stroke-width:0.6;" x="333.168" xlink:href="#mcc674e45bd" y="294.88"/>
      </g>
     </g>
    </g>
    <g id="text_5">
     <!-- log10(# f-evals / dimension) -->
     <defs>
      <path d="M 9.421875 75.984375 
L 18.40625 75.984375 
L 18.40625 0 
L 9.421875 0 
z
" id="DejaVuSans-6c"/>
      <path d="M 30.609375 48.390625 
Q 23.390625 48.390625 19.1875 42.75 
Q 14.984375 37.109375 14.984375 27.296875 
Q 14.984375 17.484375 19.15625 11.84375 
Q 23.34375 6.203125 30.609375 6.203125 
Q 37.796875 6.203125 41.984375 11.859375 
Q 46.1875 17.53125 46.1875 27.296875 
Q 46.1875 37.015625 41.984375 42.703125 
Q 37.796875 48.390625 30.609375 48.390625 
z
M 30.609375 56 
Q 42.328125 56 49.015625 48.375 
Q 55.71875 40.765625 55.71875 27.296875 
Q 55.71875 13.875 49.015625 6.21875 
Q 42.328125 -1.421875 30.609375 -1.421875 
Q 18.84375 -1.421875 12.171875 6.21875 
Q 5.515625 13.875 5.515625 27.296875 
Q 5.515625 40.765625 12.171875 48.375 
Q 18.84375 56 30.609375 56 
z
" id="DejaVuSans-6f"/>
      <path d="M 45.40625 27.984375 
Q 45.40625 37.75 41.375 43.109375 
Q 37.359375 48.484375 30.078125 48.484375 
Q 22.859375 48.484375 18.828125 43.109375 
Q 14.796875 37.75 14.796875 27.984375 
Q 14.796875 18.265625 18.828125 12.890625 
Q 22.859375 7.515625 30.078125 7.515625 
Q 37.359375 7.515625 41.375 12.890625 
Q 45.40625 18.265625 45.40625 27.984375 
z
M 54.390625 6.78125 
Q 54.390625 -7.171875 48.1875 -13.984375 
Q 42 -20.796875 29.203125 -20.796875 
Q 24.46875 -20.796875 20.265625 -20.09375 
Q 16.0625 -19.390625 12.109375 -17.921875 
L 12.109375 -9.1875 
Q 16.0625 -11.328125 19.921875 -12.34375 
Q 23.78125 -13.375 27.78125 -13.375 
Q 36.625 -13.375 41.015625 -8.765625 
Q 45.40625 -4.15625 45.40625 5.171875 
L 45.40625 9.625 
Q 42.625 4.78125 38.28125 2.390625 
Q 33.9375 0 27.875 0 
Q 17.828125 0 11.671875 7.65625 
Q 5.515625 15.328125 5.515625 27.984375 
Q 5.515625 40.671875 11.671875 48.328125 
Q 17.828125 56 27.875 56 
Q 33.9375 56 38.28125 53.609375 
Q 42.625 51.21875 45.40625 46.390625 
L 45.40625 54.6875 
L 54.390625 54.6875 
z
" id="DejaVuSans-67"/>
      <path d="M 12.40625 8.296875 
L 28.515625 8.296875 
L 28.515625 63.921875 
L 10.984375 60.40625 
L 10.984375 69.390625 
L 28.421875 72.90625 
L 38.28125 72.90625 
L 38.28125 8.296875 
L 54.390625 8.296875 
L 54.390625 0 
L 12.40625 0 
z
" id="DejaVuSans-31"/>
      <path d="M 31 75.875 
Q 24.46875 64.65625 21.28125 53.65625 
Q 18.109375 42.671875 18.109375 31.390625 
Q 18.109375 20.125 21.3125 9.0625 
Q 24.515625 -2 31 -13.1875 
L 23.1875 -13.1875 
Q 15.875 -1.703125 12.234375 9.375 
Q 8.59375 20.453125 8.59375 31.390625 
Q 8.59375 42.28125 12.203125 53.3125 
Q 15.828125 64.359375 23.1875 75.875 
z
" id="DejaVuSans-28"/>
      <path d="M 51.125 44 
L 36.921875 44 
L 32.8125 27.6875 
L 47.125 27.6875 
z
M 43.796875 71.78125 
L 38.71875 51.515625 
L 52.984375 51.515625 
L 58.109375 71.78125 
L 65.921875 71.78125 
L 60.890625 51.515625 
L 76.125 51.515625 
L 76.125 44 
L 58.984375 44 
L 54.984375 27.6875 
L 70.515625 27.6875 
L 70.515625 20.21875 
L 53.078125 20.21875 
L 48 0 
L 40.1875 0 
L 45.21875 20.21875 
L 30.90625 20.21875 
L 25.875 0 
L 18.015625 0 
L 23.09375 20.21875 
L 7.71875 20.21875 
L 7.71875 27.6875 
L 24.90625 27.6875 
L 29 44 
L 13.28125 44 
L 13.28125 51.515625 
L 30.90625 51.515625 
L 35.890625 71.78125 
z
" id="DejaVuSans-23"/>
      <path id="DejaVuSans-20"/>
      <path d="M 37.109375 75.984375 
L 37.109375 68.5 
L 28.515625 68.5 
Q 23.6875 68.5 21.796875 66.546875 
Q 19.921875 64.59375 19.921875 59.515625 
L 19.921875 54.6875 
L 34.71875 54.6875 
L 34.71875 47.703125 
L 19.921875 47.703125 
L 19.921875 0 
L 10.890625 0 
L 10.890625 47.703125 
L 2.296875 47.703125 
L 2.296875 54.6875 
L 10.890625 54.6875 
L 10.890625 58.5 
Q 10.890625 67.625 15.140625 71.796875 
Q 19.390625 75.984375 28.609375 75.984375 
z
" id="DejaVuSans-66"/>
      <path d="M 4.890625 31.390625 
L 31.203125 31.390625 
L 31.203125 23.390625 
L 4.890625 23.390625 
z
" id="DejaVuSans-2d"/>
      <path d="M 56.203125 29.59375 
L 56.203125 25.203125 
L 14.890625 25.203125 
Q 15.484375 15.921875 20.484375 11.0625 
Q 25.484375 6.203125 34.421875 6.203125 
Q 39.59375 6.203125 44.453125 7.46875 
Q 49.3125 8.734375 54.109375 11.28125 
L 54.109375 2.78125 
Q 49.265625 0.734375 44.1875 -0.34375 
Q 39.109375 -1.421875 33.890625 -1.421875 
Q 20.796875 -1.421875 13.15625 6.1875 
Q 5.515625 13.8125 5.515625 26.8125 
Q 5.515625 40.234375 12.765625 48.109375 
Q 20.015625 56 32.328125 56 
Q 43.359375 56 49.78125 48.890625 
Q 56.203125 41.796875 56.203125 29.59375 
z
M 47.21875 32.234375 
Q 47.125 39.59375 43.09375 43.984375 
Q 39.0625 48.390625 32.421875 48.390625 
Q 24.90625 48.390625 20.390625 44.140625 
Q 15.875 39.890625 15.1875 32.171875 
z
" id="DejaVuSans-65"/>
      <path d="M 2.984375 54.6875 
L 12.5 54.6875 
L 29.59375 8.796875 
L 46.6875 54.6875 
L 56.203125 54.6875 
L 35.6875 0 
L 23.484375 0 
z
" id="DejaVuSans-76"/>
      <path d="M 34.28125 27.484375 
Q 23.390625 27.484375 19.1875 25 
Q 14.984375 22.515625 14.984375 16.5 
Q 14.984375 11.71875 18.140625 8.90625 
Q 21.296875 6.109375 26.703125 6.109375 
Q 34.1875 6.109375 38.703125 11.40625 
Q 43.21875 16.703125 43.21875 25.484375 
L 43.21875 27.484375 
z
M 52.203125 31.203125 
L 52.203125 0 
L 43.21875 0 
L 43.21875 8.296875 
Q 40.140625 3.328125 35.546875 0.953125 
Q 30.953125 -1.421875 24.3125 -1.421875 
Q 15.921875 -1.421875 10.953125 3.296875 
Q 6 8.015625 6 15.921875 
Q 6 25.140625 12.171875 29.828125 
Q 18.359375 34.515625 30.609375 34.515625 
L 43.21875 34.515625 
L 43.21875 35.40625 
Q 43.21875 41.609375 39.140625 45 
Q 35.0625 48.390625 27.6875 48.390625 
Q 23 48.390625 18.546875 47.265625 
Q 14.109375 46.140625 10.015625 43.890625 
L 10.015625 52.203125 
Q 14.9375 54.109375 19.578125 55.046875 
Q 24.21875 56 28.609375 56 
Q 40.484375 56 46.34375 49.84375 
Q 52.203125 43.703125 52.203125 31.203125 
z
" id="DejaVuSans-61"/>
      <path d="M 44.28125 53.078125 
L 44.28125 44.578125 
Q 40.484375 46.53125 36.375 47.5 
Q 32.28125 48.484375 27.875 48.484375 
Q 21.1875 48.484375 17.84375 46.4375 
Q 14.5 44.390625 14.5 40.28125 
Q 14.5 37.15625 16.890625 35.375 
Q 19.28125 33.59375 26.515625 31.984375 
L 29.59375 31.296875 
Q 39.15625 29.25 43.1875 25.515625 
Q 47.21875 21.78125 47.21875 15.09375 
Q 47.21875 7.46875 41.1875 3.015625 
Q 35.15625 -1.421875 24.609375 -1.421875 
Q 20.21875 -1.421875 15.453125 -0.5625 
Q 10.6875 0.296875 5.421875 2 
L 5.421875 11.28125 
Q 10.40625 8.6875 15.234375 7.390625 
Q 20.0625 6.109375 24.8125 6.109375 
Q 31.15625 6.109375 34.5625 8.28125 
Q 37.984375 10.453125 37.984375 14.40625 
Q 37.984375 18.0625 35.515625 20.015625 
Q 33.0625 21.96875 24.703125 23.78125 
L 21.578125 24.515625 
Q 13.234375 26.265625 9.515625 29.90625 
Q 5.8125 33.546875 5.8125 39.890625 
Q 5.8125 47.609375 11.28125 51.796875 
Q 16.75 56 26.8125 56 
Q 31.78125 56 36.171875 55.265625 
Q 40.578125 54.546875 44.28125 53.078125 
z
" id="DejaVuSans-73"/>
      <path d="M 25.390625 72.90625 
L 33.6875 72.90625 
L 8.296875 -9.28125 
L 0 -9.28125 
z
" id="DejaVuSans-2f"/>
      <path d="M 45.40625 46.390625 
L 45.40625 75.984375 
L 54.390625 75.984375 
L 54.390625 0 
L 45.40625 0 
L 45.40625 8.203125 
Q 42.578125 3.328125 38.25 0.953125 
Q 33.9375 -1.421875 27.875 -1.421875 
Q 17.96875 -1.421875 11.734375 6.484375 
Q 5.515625 14.40625 5.515625 27.296875 
Q 5.515625 40.1875 11.734375 48.09375 
Q 17.96875 56 27.875 56 
Q 33.9375 56 38.25 53.625 
Q 42.578125 51.265625 45.40625 46.390625 
z
M 14.796875 27.296875 
Q 14.796875 17.390625 18.875 11.75 
Q 22.953125 6.109375 30.078125 6.109375 
Q 37.203125 6.109375 41.296875 11.75 
Q 45.40625 17.390625 45.40625 27.296875 
Q 45.40625 37.203125 41.296875 42.84375 
Q 37.203125 48.484375 30.078125 48.484375 
Q 22.953125 48.484375 18.875 42.84375 
Q 14.796875 37.203125 14.796875 27.296875 
z
" id="DejaVuSans-64"/>
      <path d="M 9.421875 54.6875 
L 18.40625 54.6875 
L 18.40625 0 
L 9.421875 0 
z
M 9.421875 75.984375 
L 18.40625 75.984375 
L 18.40625 64.59375 
L 9.421875 64.59375 
z
" id="DejaVuSans-69"/>
      <path d="M 52 44.1875 
Q 55.375 50.25 60.0625 53.125 
Q 64.75 56 71.09375 56 
Q 79.640625 56 84.28125 50.015625 
Q 88.921875 44.046875 88.921875 33.015625 
L 88.921875 0 
L 79.890625 0 
L 79.890625 32.71875 
Q 79.890625 40.578125 77.09375 44.375 
Q 74.3125 48.1875 68.609375 48.1875 
Q 61.625 48.1875 57.5625 43.546875 
Q 53.515625 38.921875 53.515625 30.90625 
L 53.515625 0 
L 44.484375 0 
L 44.484375 32.71875 
Q 44.484375 40.625 41.703125 44.40625 
Q 38.921875 48.1875 33.109375 48.1875 
Q 26.21875 48.1875 22.15625 43.53125 
Q 18.109375 38.875 18.109375 30.90625 
L 18.109375 0 
L 9.078125 0 
L 9.078125 54.6875 
L 18.109375 54.6875 
L 18.109375 46.1875 
Q 21.1875 51.21875 25.484375 53.609375 
Q 29.78125 56 35.6875 56 
Q 41.65625 56 45.828125 52.96875 
Q 50 49.953125 52 44.1875 
z
" id="DejaVuSans-6d"/>
      <path d="M 54.890625 33.015625 
L 54.890625 0 
L 45.90625 0 
L 45.90625 32.71875 
Q 45.90625 40.484375 42.875 44.328125 
Q 39.84375 48.1875 33.796875 48.1875 
Q 26.515625 48.1875 22.3125 43.546875 
Q 18.109375 38.921875 18.109375 30.90625 
L 18.109375 0 
L 9.078125 0 
L 9.078125 54.6875 
L 18.109375 54.6875 
L 18.109375 46.1875 
Q 21.34375 51.125 25.703125 53.5625 
Q 30.078125 56 35.796875 56 
Q 45.21875 56 50.046875 50.171875 
Q 54.890625 44.34375 54.890625 33.015625 
z
" id="DejaVuSans-6e"/>
      <path d="M 8.015625 75.875 
L 15.828125 75.875 
Q 23.140625 64.359375 26.78125 53.3125 
Q 30.421875 42.28125 30.421875 31.390625 
Q 30.421875 20.453125 26.78125 9.375 
Q 23.140625 -1.703125 15.828125 -13.1875 
L 8.015625 -13.1875 
Q 14.5 -2 17.703125 9.0625 
Q 20.90625 20.125 20.90625 31.390625 
Q 20.90625 42.671875 17.703125 53.65625 
Q 14.5 64.65625 8.015625 75.875 
z
" id="DejaVuSans-29"/>
     </defs>
     <g transform="translate(73.803219 338.153594)scale(0.17 -0.17)">
      <use xlink:href="#DejaVuSans-6c"/>
      <use x="27.783203" xlink:href="#DejaVuSans-6f"/>
      <use x="88.964844" xlink:href="#DejaVuSans-67"/>
      <use x="152.441406" xlink:href="#DejaVuSans-31"/>
      <use x="216.064453" xlink:href="#DejaVuSans-30"/>
      <use x="279.6875" xlink:href="#DejaVuSans-28"/>
      <use x="318.701172" xlink:href="#DejaVuSans-23"/>
      <use x="402.490234" xlink:href="#DejaVuSans-20"/>
      <use x="434.277344" xlink:href="#DejaVuSans-66"/>
      <use x="469.404297" xlink:href="#DejaVuSans-2d"/>
      <use x="505.488281" xlink:href="#DejaVuSans-65"/>
      <use x="567.011719" xlink:href="#DejaVuSans-76"/>
      <use x="626.191406" xlink:href="#DejaVuSans-61"/>
      <use x="687.470703" xlink:href="#DejaVuSans-6c"/>
      <use x="715.253906" xlink:href="#DejaVuSans-73"/>
      <use x="767.353516" xlink:href="#DejaVuSans-20"/>
      <use x="799.140625" xlink:href="#DejaVuSans-2f"/>
      <use x="832.832031" xlink:href="#DejaVuSans-20"/>
      <use x="864.619141" xlink:href="#DejaVuSans-64"/>
      <use x="928.095703" xlink:href="#DejaVuSans-69"/>
      <use x="955.878906" xlink:href="#DejaVuSans-6d"/>
      <use x="1053.291016" xlink:href="#DejaVuSans-65"/>
      <use x="1114.814453" xlink:href="#DejaVuSans-6e"/>
      <use x="1178.193359" xlink:href="#DejaVuSans-73"/>
      <use x="1230.292969" xlink:href="#DejaVuSans-69"/>
      <use x="1258.076172" xlink:href="#DejaVuSans-6f"/>
      <use x="1319.257812" xlink:href="#DejaVuSans-6e"/>
      <use x="1382.636719" xlink:href="#DejaVuSans-29"/>
     </g>
    </g>
   </g>
   <g id="matplotlib.axis_2">
    <g id="ytick_1">
     <g id="line2d_25">
      <path clip-path="url(#p63f9e55077)" d="M 56.12 294.88 
L 333.168 294.88 
" style="fill:none;stroke:#b0b0b0;stroke-linecap:square;stroke-width:0.8;"/>
     </g>
     <g id="line2d_26">
      <defs>
       <path d="M 0 0 
L -3.5 0 
" id="m13f8b16caf" style="stroke:#000000;stroke-width:0.8;"/>
      </defs>
      <g>
       <use style="stroke:#000000;stroke-width:0.8;" x="56.12" xlink:href="#m13f8b16caf" y="294.88"/>
      </g>
     </g>
     <g id="text_6">
      <!-- 0.0 -->
      <defs>
       <path d="M 10.6875 12.40625 
L 21 12.40625 
L 21 0 
L 10.6875 0 
z
" id="DejaVuSans-2e"/>
      </defs>
      <g transform="translate(23.675 300.95875)scale(0.16 -0.16)">
       <use xlink:href="#DejaVuSans-30"/>
       <use x="63.623047" xlink:href="#DejaVuSans-2e"/>
       <use x="95.410156" xlink:href="#DejaVuSans-30"/>
      </g>
     </g>
    </g>
    <g id="ytick_2">
     <g id="line2d_27">
      <path clip-path="url(#p63f9e55077)" d="M 56.12 237.843411 
L 333.168 237.843411 
" style="fill:none;stroke:#b0b0b0;stroke-linecap:square;stroke-width:0.8;"/>
     </g>
     <g id="line2d_28">
      <g>
       <use style="stroke:#000000;stroke-width:0.8;" x="56.12" xlink:href="#m13f8b16caf" y="237.843411"/>
      </g>
     </g>
     <g id="text_7">
      <!-- 0.2 -->
      <g transform="translate(23.675 243.922161)scale(0.16 -0.16)">
       <use xlink:href="#DejaVuSans-30"/>
       <use x="63.623047" xlink:href="#DejaVuSans-2e"/>
       <use x="95.410156" xlink:href="#DejaVuSans-32"/>
      </g>
     </g>
    </g>
    <g id="ytick_3">
     <g id="line2d_29">
      <path clip-path="url(#p63f9e55077)" d="M 56.12 180.806823 
L 333.168 180.806823 
" style="fill:none;stroke:#b0b0b0;stroke-linecap:square;stroke-width:0.8;"/>
     </g>
     <g id="line2d_30">
      <g>
       <use style="stroke:#000000;stroke-width:0.8;" x="56.12" xlink:href="#m13f8b16caf" y="180.806823"/>
      </g>
     </g>
     <g id="text_8">
      <!-- 0.4 -->
      <g transform="translate(23.675 186.885573)scale(0.16 -0.16)">
       <use xlink:href="#DejaVuSans-30"/>
       <use x="63.623047" xlink:href="#DejaVuSans-2e"/>
       <use x="95.410156" xlink:href="#DejaVuSans-34"/>
      </g>
     </g>
    </g>
    <g id="ytick_4">
     <g id="line2d_31">
      <path clip-path="url(#p63f9e55077)" d="M 56.12 123.770234 
L 333.168 123.770234 
" style="fill:none;stroke:#b0b0b0;stroke-linecap:square;stroke-width:0.8;"/>
     </g>
     <g id="line2d_32">
      <g>
       <use style="stroke:#000000;stroke-width:0.8;" x="56.12" xlink:href="#m13f8b16caf" y="123.770234"/>
      </g>
     </g>
     <g id="text_9">
      <!-- 0.6 -->
      <g transform="translate(23.675 129.848984)scale(0.16 -0.16)">
       <use xlink:href="#DejaVuSans-30"/>
       <use x="63.623047" xlink:href="#DejaVuSans-2e"/>
       <use x="95.410156" xlink:href="#DejaVuSans-36"/>
      </g>
     </g>
    </g>
    <g id="ytick_5">
     <g id="line2d_33">
      <path clip-path="url(#p63f9e55077)" d="M 56.12 66.733646 
L 333.168 66.733646 
" style="fill:none;stroke:#b0b0b0;stroke-linecap:square;stroke-width:0.8;"/>
     </g>
     <g id="line2d_34">
      <g>
       <use style="stroke:#000000;stroke-width:0.8;" x="56.12" xlink:href="#m13f8b16caf" y="66.733646"/>
      </g>
     </g>
     <g id="text_10">
      <!-- 0.8 -->
      <defs>
       <path d="M 31.78125 34.625 
Q 24.75 34.625 20.71875 30.859375 
Q 16.703125 27.09375 16.703125 20.515625 
Q 16.703125 13.921875 20.71875 10.15625 
Q 24.75 6.390625 31.78125 6.390625 
Q 38.8125 6.390625 42.859375 10.171875 
Q 46.921875 13.96875 46.921875 20.515625 
Q 46.921875 27.09375 42.890625 30.859375 
Q 38.875 34.625 31.78125 34.625 
z
M 21.921875 38.8125 
Q 15.578125 40.375 12.03125 44.71875 
Q 8.5 49.078125 8.5 55.328125 
Q 8.5 64.0625 14.71875 69.140625 
Q 20.953125 74.21875 31.78125 74.21875 
Q 42.671875 74.21875 48.875 69.140625 
Q 55.078125 64.0625 55.078125 55.328125 
Q 55.078125 49.078125 51.53125 44.71875 
Q 48 40.375 41.703125 38.8125 
Q 48.828125 37.15625 52.796875 32.3125 
Q 56.78125 27.484375 56.78125 20.515625 
Q 56.78125 9.90625 50.3125 4.234375 
Q 43.84375 -1.421875 31.78125 -1.421875 
Q 19.734375 -1.421875 13.25 4.234375 
Q 6.78125 9.90625 6.78125 20.515625 
Q 6.78125 27.484375 10.78125 32.3125 
Q 14.796875 37.15625 21.921875 38.8125 
z
M 18.3125 54.390625 
Q 18.3125 48.734375 21.84375 45.5625 
Q 25.390625 42.390625 31.78125 42.390625 
Q 38.140625 42.390625 41.71875 45.5625 
Q 45.3125 48.734375 45.3125 54.390625 
Q 45.3125 60.0625 41.71875 63.234375 
Q 38.140625 66.40625 31.78125 66.40625 
Q 25.390625 66.40625 21.84375 63.234375 
Q 18.3125 60.0625 18.3125 54.390625 
z
" id="DejaVuSans-38"/>
      </defs>
      <g transform="translate(23.675 72.812396)scale(0.16 -0.16)">
       <use xlink:href="#DejaVuSans-30"/>
       <use x="63.623047" xlink:href="#DejaVuSans-2e"/>
       <use x="95.410156" xlink:href="#DejaVuSans-38"/>
      </g>
     </g>
    </g>
    <g id="ytick_6">
     <g id="line2d_35">
      <path clip-path="url(#p63f9e55077)" d="M 56.12 9.697057 
L 333.168 9.697057 
" style="fill:none;stroke:#b0b0b0;stroke-linecap:square;stroke-width:0.8;"/>
     </g>
     <g id="line2d_36">
      <g>
       <use style="stroke:#000000;stroke-width:0.8;" x="56.12" xlink:href="#m13f8b16caf" y="9.697057"/>
      </g>
     </g>
     <g id="text_11">
      <!-- 1.0 -->
      <g transform="translate(23.675 15.775807)scale(0.16 -0.16)">
       <use xlink:href="#DejaVuSans-31"/>
       <use x="63.623047" xlink:href="#DejaVuSans-2e"/>
       <use x="95.410156" xlink:href="#DejaVuSans-30"/>
      </g>
     </g>
    </g>
    <g id="text_12">
     <!-- Fraction of function,target pairs -->
     <defs>
      <path d="M 9.8125 72.90625 
L 51.703125 72.90625 
L 51.703125 64.59375 
L 19.671875 64.59375 
L 19.671875 43.109375 
L 48.578125 43.109375 
L 48.578125 34.8125 
L 19.671875 34.8125 
L 19.671875 0 
L 9.8125 0 
z
" id="DejaVuSans-46"/>
      <path d="M 41.109375 46.296875 
Q 39.59375 47.171875 37.8125 47.578125 
Q 36.03125 48 33.890625 48 
Q 26.265625 48 22.1875 43.046875 
Q 18.109375 38.09375 18.109375 28.8125 
L 18.109375 0 
L 9.078125 0 
L 9.078125 54.6875 
L 18.109375 54.6875 
L 18.109375 46.1875 
Q 20.953125 51.171875 25.484375 53.578125 
Q 30.03125 56 36.53125 56 
Q 37.453125 56 38.578125 55.875 
Q 39.703125 55.765625 41.0625 55.515625 
z
" id="DejaVuSans-72"/>
      <path d="M 48.78125 52.59375 
L 48.78125 44.1875 
Q 44.96875 46.296875 41.140625 47.34375 
Q 37.3125 48.390625 33.40625 48.390625 
Q 24.65625 48.390625 19.8125 42.84375 
Q 14.984375 37.3125 14.984375 27.296875 
Q 14.984375 17.28125 19.8125 11.734375 
Q 24.65625 6.203125 33.40625 6.203125 
Q 37.3125 6.203125 41.140625 7.25 
Q 44.96875 8.296875 48.78125 10.40625 
L 48.78125 2.09375 
Q 45.015625 0.34375 40.984375 -0.53125 
Q 36.96875 -1.421875 32.421875 -1.421875 
Q 20.0625 -1.421875 12.78125 6.34375 
Q 5.515625 14.109375 5.515625 27.296875 
Q 5.515625 40.671875 12.859375 48.328125 
Q 20.21875 56 33.015625 56 
Q 37.15625 56 41.109375 55.140625 
Q 45.0625 54.296875 48.78125 52.59375 
z
" id="DejaVuSans-63"/>
      <path d="M 18.3125 70.21875 
L 18.3125 54.6875 
L 36.8125 54.6875 
L 36.8125 47.703125 
L 18.3125 47.703125 
L 18.3125 18.015625 
Q 18.3125 11.328125 20.140625 9.421875 
Q 21.96875 7.515625 27.59375 7.515625 
L 36.8125 7.515625 
L 36.8125 0 
L 27.59375 0 
Q 17.1875 0 13.234375 3.875 
Q 9.28125 7.765625 9.28125 18.015625 
L 9.28125 47.703125 
L 2.6875 47.703125 
L 2.6875 54.6875 
L 9.28125 54.6875 
L 9.28125 70.21875 
z
" id="DejaVuSans-74"/>
      <path d="M 8.5 21.578125 
L 8.5 54.6875 
L 17.484375 54.6875 
L 17.484375 21.921875 
Q 17.484375 14.15625 20.5 10.265625 
Q 23.53125 6.390625 29.59375 6.390625 
Q 36.859375 6.390625 41.078125 11.03125 
Q 45.3125 15.671875 45.3125 23.6875 
L 45.3125 54.6875 
L 54.296875 54.6875 
L 54.296875 0 
L 45.3125 0 
L 45.3125 8.40625 
Q 42.046875 3.421875 37.71875 1 
Q 33.40625 -1.421875 27.6875 -1.421875 
Q 18.265625 -1.421875 13.375 4.4375 
Q 8.5 10.296875 8.5 21.578125 
z
M 31.109375 56 
z
" id="DejaVuSans-75"/>
      <path d="M 11.71875 12.40625 
L 22.015625 12.40625 
L 22.015625 4 
L 14.015625 -11.625 
L 7.71875 -11.625 
L 11.71875 4 
z
" id="DejaVuSans-2c"/>
      <path d="M 18.109375 8.203125 
L 18.109375 -20.796875 
L 9.078125 -20.796875 
L 9.078125 54.6875 
L 18.109375 54.6875 
L 18.109375 46.390625 
Q 20.953125 51.265625 25.265625 53.625 
Q 29.59375 56 35.59375 56 
Q 45.5625 56 51.78125 48.09375 
Q 58.015625 40.1875 58.015625 27.296875 
Q 58.015625 14.40625 51.78125 6.484375 
Q 45.5625 -1.421875 35.59375 -1.421875 
Q 29.59375 -1.421875 25.265625 0.953125 
Q 20.953125 3.328125 18.109375 8.203125 
z
M 48.6875 27.296875 
Q 48.6875 37.203125 44.609375 42.84375 
Q 40.53125 48.484375 33.40625 48.484375 
Q 26.265625 48.484375 22.1875 42.84375 
Q 18.109375 37.203125 18.109375 27.296875 
Q 18.109375 17.390625 22.1875 11.75 
Q 26.265625 6.109375 33.40625 6.109375 
Q 40.53125 6.109375 44.609375 11.75 
Q 48.6875 17.390625 48.6875 27.296875 
z
" id="DejaVuSans-70"/>
     </defs>
     <g transform="translate(16.139531 286.001989)rotate(-90)scale(0.17 -0.17)">
      <use xlink:href="#DejaVuSans-46"/>
      <use x="57.410156" xlink:href="#DejaVuSans-72"/>
      <use x="98.523438" xlink:href="#DejaVuSans-61"/>
      <use x="159.802734" xlink:href="#DejaVuSans-63"/>
      <use x="214.783203" xlink:href="#DejaVuSans-74"/>
      <use x="253.992188" xlink:href="#DejaVuSans-69"/>
      <use x="281.775391" xlink:href="#DejaVuSans-6f"/>
      <use x="342.957031" xlink:href="#DejaVuSans-6e"/>
      <use x="406.335938" xlink:href="#DejaVuSans-20"/>
      <use x="438.123047" xlink:href="#DejaVuSans-6f"/>
      <use x="499.304688" xlink:href="#DejaVuSans-66"/>
      <use x="534.509766" xlink:href="#DejaVuSans-20"/>
      <use x="566.296875" xlink:href="#DejaVuSans-66"/>
      <use x="601.501953" xlink:href="#DejaVuSans-75"/>
      <use x="664.880859" xlink:href="#DejaVuSans-6e"/>
      <use x="728.259766" xlink:href="#DejaVuSans-63"/>
      <use x="783.240234" xlink:href="#DejaVuSans-74"/>
      <use x="822.449219" xlink:href="#DejaVuSans-69"/>
      <use x="850.232422" xlink:href="#DejaVuSans-6f"/>
      <use x="911.414062" xlink:href="#DejaVuSans-6e"/>
      <use x="974.792969" xlink:href="#DejaVuSans-2c"/>
      <use x="1006.580078" xlink:href="#DejaVuSans-74"/>
      <use x="1045.789062" xlink:href="#DejaVuSans-61"/>
      <use x="1107.068359" xlink:href="#DejaVuSans-72"/>
      <use x="1148.166016" xlink:href="#DejaVuSans-67"/>
      <use x="1211.642578" xlink:href="#DejaVuSans-65"/>
      <use x="1273.166016" xlink:href="#DejaVuSans-74"/>
      <use x="1312.375" xlink:href="#DejaVuSans-20"/>
      <use x="1344.162109" xlink:href="#DejaVuSans-70"/>
      <use x="1407.638672" xlink:href="#DejaVuSans-61"/>
      <use x="1468.917969" xlink:href="#DejaVuSans-69"/>
      <use x="1496.701172" xlink:href="#DejaVuSans-72"/>
      <use x="1537.814453" xlink:href="#DejaVuSans-73"/>
     </g>
    </g>
   </g>
   <g id="line2d_37">
    <defs>
     <path d="M 0 1.5 
C 0.397805 1.5 0.77937 1.341951 1.06066 1.06066 
C 1.341951 0.77937 1.5 0.397805 1.5 0 
C 1.5 -0.397805 1.341951 -0.77937 1.06066 -1.06066 
C 0.77937 -1.341951 0.397805 -1.5 0 -1.5 
C -0.397805 -1.5 -0.77937 -1.341951 -1.06066 -1.06066 
C -1.341951 -0.77937 -1.5 -0.397805 -1.5 0 
C -1.5 0.397805 -1.341951 0.77937 -1.06066 1.06066 
C -0.77937 1.341951 -0.397805 1.5 0 1.5 
z
" id="m2623d67674" style="stroke:#000080;"/>
    </defs>
    <g>
     <use style="fill:#000080;stroke:#000080;" x="282.396554" xlink:href="#m2623d67674" y="216.594486"/>
     <use style="fill:#000080;stroke:#000080;" x="282.396554" xlink:href="#m2623d67674" y="216.594486"/>
    </g>
   </g>
   <g id="line2d_38">
    <path d="M 44.205749 294.88 
L 44.205749 280.900444 
L 56.12 280.900444 
L 56.12 279.222897 
L 63.08939 279.222897 
L 63.08939 276.426986 
L 68.034251 276.426986 
L 68.034251 273.071893 
L 71.869783 273.071893 
L 71.869783 269.716799 
L 75.003641 269.716799 
L 75.003641 268.039252 
L 77.653281 268.039252 
L 77.653281 266.920888 
L 79.948502 266.920888 
L 79.948502 265.802523 
L 83.784035 265.802523 
L 83.784035 264.684159 
L 86.917893 264.684159 
L 86.917893 264.124977 
L 88.293717 264.124977 
L 88.293717 263.006612 
L 89.567532 263.006612 
L 89.567532 256.855608 
L 91.862754 256.855608 
L 91.862754 256.296425 
L 98.100602 256.296425 
L 98.100602 254.618879 
L 98.832144 254.618879 
L 98.832144 254.059696 
L 99.533818 254.059696 
L 99.533818 250.704603 
L 109.637066 250.704603 
L 109.637066 250.145421 
L 114.581927 250.145421 
L 114.581927 248.467874 
L 120.568842 248.467874 
L 120.568842 247.34951 
L 139.586771 247.34951 
L 139.586771 246.790327 
L 140.998571 246.790327 
L 140.998571 246.231145 
L 142.864932 246.231145 
L 142.864932 245.112781 
L 144.498158 245.112781 
L 144.498158 244.553598 
L 150.288834 244.553598 
L 150.288834 243.994416 
L 151.094972 243.994416 
L 151.094972 243.435234 
L 154.944195 243.435234 
L 154.944195 242.316869 
L 156.184742 242.316869 
L 156.184742 240.639323 
L 159.737856 240.639323 
L 159.737856 240.08014 
L 163.264126 240.08014 
L 163.264126 237.843411 
L 170.495773 237.843411 
L 170.495773 236.725047 
L 174.063425 236.725047 
L 174.063425 235.606682 
L 177.084422 235.606682 
L 177.084422 233.369954 
L 177.560881 233.369954 
L 177.560881 232.251589 
L 177.909753 232.251589 
L 177.909753 231.692407 
L 178.279874 231.692407 
L 178.279874 228.337313 
L 193.25919 228.337313 
L 193.25919 227.778131 
L 203.487992 227.778131 
L 203.487992 227.218949 
L 204.048984 227.218949 
L 204.048984 226.659767 
L 205.668499 226.659767 
L 205.668499 226.100584 
L 206.185839 226.100584 
L 206.185839 225.541402 
L 206.412081 225.541402 
L 206.412081 224.423038 
L 210.528718 224.423038 
L 210.528718 223.863855 
L 215.451724 223.863855 
L 215.451724 223.304673 
L 216.56657 223.304673 
L 216.56657 222.745491 
L 222.906923 222.745491 
L 222.906923 221.627126 
L 234.140954 221.627126 
L 234.140954 221.067944 
L 238.945916 221.067944 
L 238.945916 219.94958 
L 240.914354 219.94958 
L 240.914354 219.390397 
L 247.096183 219.390397 
L 247.096183 218.831215 
L 250.606302 218.831215 
L 250.606302 218.272033 
L 253.519743 218.272033 
L 253.519743 217.712851 
L 273.136895 217.712851 
L 273.136895 217.153669 
L 282.396554 217.153669 
L 282.396554 216.594486 
L 333.168 216.594486 
" style="fill:none;stroke:#000080;stroke-linecap:square;stroke-width:1.5;"/>
   </g>
   <g id="line2d_39">
    <defs>
     <path d="M 0 6 
C 1.591219 6 3.117479 5.367802 4.242641 4.242641 
C 5.367802 3.117479 6 1.591219 6 0 
C 6 -1.591219 5.367802 -3.117479 4.242641 -4.242641 
C 3.117479 -5.367802 1.591219 -6 0 -6 
C -1.591219 -6 -3.117479 -5.367802 -4.242641 -4.242641 
C -5.367802 -3.117479 -6 -1.591219 -6 0 
C -6 1.591219 -5.367802 3.117479 -4.242641 4.242641 
C -3.117479 5.367802 -1.591219 6 0 6 
z
" id="m78ecb1bbd7" style="stroke:#000080;stroke-width:1.5;"/>
    </defs>
    <g>
     <use style="fill-opacity:0;stroke:#000080;stroke-width:1.5;" x="63.08939" xlink:href="#m78ecb1bbd7" y="279.222897"/>
     <use style="fill-opacity:0;stroke:#000080;stroke-width:1.5;" x="114.581927" xlink:href="#m78ecb1bbd7" y="248.467874"/>
     <use style="fill-opacity:0;stroke:#000080;stroke-width:1.5;" x="174.063425" xlink:href="#m78ecb1bbd7" y="236.725047"/>
     <use style="fill-opacity:0;stroke:#000080;stroke-width:1.5;" x="253.519743" xlink:href="#m78ecb1bbd7" y="217.712851"/>
     <use style="fill-opacity:0;stroke:#000080;stroke-width:1.5;" x="282.396554" xlink:href="#m78ecb1bbd7" y="216.594486"/>
     <use style="fill-opacity:0;stroke:#000080;stroke-width:1.5;" x="333.168" xlink:href="#m78ecb1bbd7" y="216.594486"/>
    </g>
   </g>
   <g id="line2d_40">
    <path style="fill:none;stroke:#000080;stroke-linecap:square;stroke-width:1.5;"/>
    <g/>
   </g>
   <g id="line2d_41">
    <path clip-path="url(#p63f9e55077)" d="M 202.691626 227.778131 
" style="fill:none;stroke:#000080;stroke-linecap:square;stroke-width:1.5;"/>
    <defs>
     <path d="M -12 12 
L 12 -12 
M -12 -12 
L 12 12 
" id="m0b037e7133" style="stroke:#000080;"/>
    </defs>
    <g clip-path="url(#p63f9e55077)">
     <use style="fill:#000080;stroke:#000080;" x="202.691626" xlink:href="#m0b037e7133" y="227.778131"/>
    </g>
   </g>
   <g id="line2d_42">
    <defs>
     <path d="M 0 1.5 
C 0.397805 1.5 0.77937 1.341951 1.06066 1.06066 
C 1.341951 0.77937 1.5 0.397805 1.5 0 
C 1.5 -0.397805 1.341951 -0.77937 1.06066 -1.06066 
C 0.77937 -1.341951 0.397805 -1.5 0 -1.5 
C -0.397805 -1.5 -0.77937 -1.341951 -1.06066 -1.06066 
C -1.341951 -0.77937 -1.5 -0.397805 -1.5 0 
C -1.5 0.397805 -1.341951 0.77937 -1.06066 1.06066 
C -0.77937 1.341951 -0.397805 1.5 0 1.5 
z
" id="mbdb1fdb5cf" style="stroke:#ff00ff;"/>
    </defs>
    <g>
     <use style="fill:#ff00ff;stroke:#ff00ff;" x="253.186126" xlink:href="#mbdb1fdb5cf" y="9.697057"/>
     <use style="fill:#ff00ff;stroke:#ff00ff;" x="253.186126" xlink:href="#mbdb1fdb5cf" y="9.697057"/>
    </g>
   </g>
   <g id="line2d_43">
    <path d="M 44.205749 294.88 
L 44.205749 275.867804 
L 56.12 275.867804 
L 56.12 266.920888 
L 63.08939 266.920888 
L 63.08939 264.124977 
L 68.034251 264.124977 
L 68.034251 263.565795 
L 71.869783 263.565795 
L 71.869783 261.888248 
L 75.003641 261.888248 
L 75.003641 259.092337 
L 79.948502 259.092337 
L 79.948502 256.296425 
L 83.784035 256.296425 
L 83.784035 252.941332 
L 88.293717 252.941332 
L 88.293717 247.34951 
L 89.567532 247.34951 
L 89.567532 245.112781 
L 91.862754 245.112781 
L 91.862754 244.553598 
L 92.904808 244.553598 
L 92.904808 242.876052 
L 96.536922 242.876052 
L 96.536922 242.316869 
L 98.832144 242.316869 
L 98.832144 240.08014 
L 99.533818 240.08014 
L 99.533818 230.574042 
L 100.856673 230.574042 
L 100.856673 227.778131 
L 104.819059 227.778131 
L 104.819059 224.423038 
L 105.317315 224.423038 
L 105.317315 221.627126 
L 105.801534 221.627126 
L 105.801534 221.067944 
L 108.451173 221.067944 
L 108.451173 220.508762 
L 111.100812 220.508762 
L 111.100812 219.390397 
L 113.086321 219.390397 
L 113.086321 218.272033 
L 113.700266 218.272033 
L 113.700266 217.712851 
L 114.581927 217.712851 
L 114.581927 214.357757 
L 117.475381 214.357757 
L 117.475381 212.680211 
L 126.352339 212.680211 
L 126.352339 207.64757 
L 136.914823 207.64757 
L 136.914823 207.088388 
L 137.975251 207.088388 
L 137.975251 203.174112 
L 138.266591 203.174112 
L 138.266591 201.496566 
L 139.917968 201.496566 
L 139.917968 200.937384 
L 140.434959 200.937384 
L 140.434959 200.378201 
L 141.243253 200.378201 
L 141.243253 197.023108 
L 141.898705 197.023108 
L 141.898705 196.463926 
L 143.621786 196.463926 
L 143.621786 195.904743 
L 146.309161 195.904743 
L 146.309161 184.721099 
L 146.974611 184.721099 
L 146.974611 184.161916 
L 147.988485 184.161916 
L 147.988485 183.602734 
L 148.151798 183.602734 
L 148.151798 183.043552 
L 148.984628 183.043552 
L 148.984628 178.010912 
L 150.108469 178.010912 
L 150.108469 176.333365 
L 150.714141 176.333365 
L 150.714141 171.859907 
L 153.127109 171.859907 
L 153.127109 162.912991 
L 155.615187 162.912991 
L 155.615187 162.353809 
L 156.260967 162.353809 
L 156.260967 161.235444 
L 159.276106 161.235444 
L 159.276106 160.676262 
L 160.625729 160.676262 
L 160.625729 160.11708 
L 161.432494 160.11708 
L 161.432494 158.998715 
L 163.026335 158.998715 
L 163.026335 152.847711 
L 164.006909 152.847711 
L 164.006909 151.729346 
L 167.103032 151.729346 
L 167.103032 146.696706 
L 168.137148 146.696706 
L 168.238481 143.341613 
L 168.99211 143.341613 
L 168.99211 142.223248 
L 169.690883 142.223248 
L 169.690883 139.427337 
L 170.01282 139.427337 
L 170.01282 138.868155 
L 170.94396 138.868155 
L 170.94396 132.157968 
L 171.631385 132.157968 
L 171.631385 131.039603 
L 172.01075 131.039603 
L 172.01075 130.480421 
L 173.468286 130.480421 
L 173.468286 122.65187 
L 174.742766 122.65187 
L 174.742766 121.533505 
L 176.609906 121.533505 
L 176.609906 119.296776 
L 177.938508 119.296776 
L 177.938508 118.737594 
L 178.406159 118.737594 
L 178.406159 116.500865 
L 178.800046 116.500865 
L 178.800046 115.941683 
L 179.06444 115.941683 
L 179.06444 115.382501 
L 182.371217 115.382501 
L 182.371217 114.823318 
L 182.895935 114.823318 
L 182.895935 114.264136 
L 183.173607 114.264136 
L 183.173607 112.027407 
L 183.389422 112.027407 
L 183.389422 107.553949 
L 184.281281 107.553949 
L 184.281281 104.198856 
L 184.770879 104.198856 
L 184.770879 101.402945 
L 184.910293 101.402945 
L 184.934216 93.015211 
L 185.242221 93.015211 
L 185.242221 91.896847 
L 185.792194 91.896847 
L 185.873871 89.100935 
L 186.320703 89.100935 
L 186.39113 86.864206 
L 186.739002 86.864206 
L 186.739002 82.390748 
L 190.299427 82.390748 
L 190.323905 79.594837 
L 191.48252 79.594837 
L 191.48252 78.476473 
L 192.095376 78.476473 
L 192.095376 74.562197 
L 192.583272 74.562197 
L 192.583272 72.325468 
L 193.117208 72.325468 
L 193.117208 71.766286 
L 193.772841 71.766286 
L 193.772841 71.207104 
L 194.53069 71.207104 
L 194.588045 63.937735 
L 195.676229 63.937735 
L 195.676229 60.582641 
L 197.676854 60.582641 
L 197.676854 58.345912 
L 199.374029 58.345912 
L 199.374029 55.550001 
L 200.333327 55.550001 
L 200.333327 50.517361 
L 201.714856 50.517361 
L 201.714856 48.280632 
L 205.208754 48.280632 
L 205.208754 47.162267 
L 205.575226 47.162267 
L 205.575226 46.603085 
L 207.480074 46.603085 
L 207.480074 46.043903 
L 207.882315 46.043903 
L 207.918762 44.925538 
L 208.417412 44.925538 
L 208.417412 44.366356 
L 209.899293 44.366356 
L 209.899293 43.807174 
L 210.111673 43.807174 
L 210.111673 43.247992 
L 211.027283 43.247992 
L 211.027283 42.688809 
L 211.453631 42.688809 
L 211.453631 42.129627 
L 212.280728 42.129627 
L 212.280728 40.45208 
L 213.026997 40.45208 
L 213.026997 39.333716 
L 213.467141 39.333716 
L 213.467141 37.096987 
L 215.910477 37.096987 
L 215.910477 35.978622 
L 217.166312 35.978622 
L 217.166312 35.41944 
L 218.351667 35.41944 
L 218.351667 34.860258 
L 219.539248 34.860258 
L 219.539248 34.301076 
L 220.824553 34.301076 
L 220.824553 30.3868 
L 222.455908 30.3868 
L 222.455908 29.827618 
L 223.323876 29.827618 
L 223.323876 29.268436 
L 224.160853 29.268436 
L 224.160853 28.709253 
L 224.32743 28.709253 
L 224.32743 28.150071 
L 224.813931 28.150071 
L 224.813931 27.590889 
L 225.39684 27.590889 
L 225.39684 26.472524 
L 225.960189 26.472524 
L 225.960189 25.913342 
L 227.847977 25.913342 
L 227.847977 25.35416 
L 228.494859 25.35416 
L 228.494859 24.794978 
L 229.462979 24.794978 
L 229.462979 22.558249 
L 229.909177 22.558249 
L 229.909177 21.999066 
L 232.059225 21.999066 
L 232.059225 21.439884 
L 232.748874 21.439884 
L 232.748874 19.762337 
L 233.118259 19.762337 
L 233.118259 18.643973 
L 234.386049 18.643973 
L 234.386049 18.084791 
L 235.506294 18.084791 
L 235.506294 16.407244 
L 236.91044 16.407244 
L 236.91044 15.848062 
L 238.15669 15.848062 
L 238.15669 15.28888 
L 240.212296 15.28888 
L 240.212296 14.729697 
L 242.04812 14.729697 
L 242.04812 14.170515 
L 247.739889 14.170515 
L 247.739889 13.611333 
L 247.895279 13.611333 
L 247.895279 12.492968 
L 248.946863 12.492968 
L 248.946863 11.933786 
L 251.13291 11.933786 
L 251.13291 10.815422 
L 252.129807 10.815422 
L 252.129807 10.256239 
L 253.186126 10.256239 
L 253.186126 9.697057 
L 333.168 9.697057 
L 333.168 9.697057 
" style="fill:none;stroke:#ff00ff;stroke-linecap:square;stroke-width:1.5;"/>
   </g>
   <g id="line2d_44">
    <defs>
     <path d="M -0 8.485281 
L 5.091169 0 
L 0 -8.485281 
L -5.091169 -0 
z
" id="m5d435e6a58" style="stroke:#ff00ff;stroke-linejoin:miter;stroke-width:1.5;"/>
    </defs>
    <g>
     <use style="fill-opacity:0;stroke:#ff00ff;stroke-linejoin:miter;stroke-width:1.5;" x="143.621786" xlink:href="#m5d435e6a58" y="195.904743"/>
     <use style="fill-opacity:0;stroke:#ff00ff;stroke-linejoin:miter;stroke-width:1.5;" x="174.742766" xlink:href="#m5d435e6a58" y="121.533505"/>
     <use style="fill-opacity:0;stroke:#ff00ff;stroke-linejoin:miter;stroke-width:1.5;" x="232.748874" xlink:href="#m5d435e6a58" y="19.762337"/>
     <use style="fill-opacity:0;stroke:#ff00ff;stroke-linejoin:miter;stroke-width:1.5;" x="253.186126" xlink:href="#m5d435e6a58" y="9.697057"/>
     <use style="fill-opacity:0;stroke:#ff00ff;stroke-linejoin:miter;stroke-width:1.5;" x="253.186126" xlink:href="#m5d435e6a58" y="9.697057"/>
     <use style="fill-opacity:0;stroke:#ff00ff;stroke-linejoin:miter;stroke-width:1.5;" x="333.168" xlink:href="#m5d435e6a58" y="9.697057"/>
    </g>
   </g>
   <g id="line2d_45">
    <path style="fill:none;stroke:#ff00ff;stroke-linecap:square;stroke-width:1.5;"/>
    <g/>
   </g>
   <g id="line2d_46">
    <path clip-path="url(#p63f9e55077)" d="M 202.691626 48.280632 
" style="fill:none;stroke:#ff00ff;stroke-linecap:square;stroke-width:1.5;"/>
    <defs>
     <path d="M -12 12 
L 12 -12 
M -12 -12 
L 12 12 
" id="m828df9801f" style="stroke:#ff00ff;"/>
    </defs>
    <g clip-path="url(#p63f9e55077)">
     <use style="fill:#ff00ff;stroke:#ff00ff;" x="202.691626" xlink:href="#m828df9801f" y="48.280632"/>
    </g>
   </g>
   <g id="line2d_47">
    <defs>
     <path d="M 0 1.5 
C 0.397805 1.5 0.77937 1.341951 1.06066 1.06066 
C 1.341951 0.77937 1.5 0.397805 1.5 0 
C 1.5 -0.397805 1.341951 -0.77937 1.06066 -1.06066 
C 0.77937 -1.341951 0.397805 -1.5 0 -1.5 
C -0.397805 -1.5 -0.77937 -1.341951 -1.06066 -1.06066 
C -1.341951 -0.77937 -1.5 -0.397805 -1.5 0 
C -1.5 0.397805 -1.341951 0.77937 -1.06066 1.06066 
C -0.77937 1.341951 -0.397805 1.5 0 1.5 
z
" id="m25103d0114" style="stroke:#ffa500;"/>
    </defs>
    <g>
     <use style="fill:#ffa500;stroke:#ffa500;" x="236.905791" xlink:href="#m25103d0114" y="9.697057"/>
     <use style="fill:#ffa500;stroke:#ffa500;" x="236.905791" xlink:href="#m25103d0114" y="9.697057"/>
    </g>
   </g>
   <g id="line2d_48">
    <path d="M 44.205749 294.88 
L 44.205749 265.802523 
L 56.12 265.802523 
L 56.12 256.296425 
L 63.08939 256.296425 
L 63.08939 252.941332 
L 68.034251 252.941332 
L 68.034251 250.704603 
L 71.869783 250.704603 
L 71.869783 248.467874 
L 75.003641 248.467874 
L 75.003641 247.908692 
L 77.653281 247.908692 
L 77.653281 247.34951 
L 79.948502 247.34951 
L 79.948502 245.112781 
L 81.973032 245.112781 
L 81.973032 241.198505 
L 83.784035 241.198505 
L 83.784035 235.606682 
L 85.422286 235.606682 
L 85.422286 231.133225 
L 89.567532 231.133225 
L 89.567532 230.574042 
L 95.698286 230.574042 
L 95.698286 230.01486 
L 100.207968 230.01486 
L 100.207968 229.455678 
L 100.856673 229.455678 
L 100.856673 228.337313 
L 102.084955 228.337313 
L 102.084955 227.778131 
L 103.231288 227.778131 
L 103.231288 221.067944 
L 103.777005 221.067944 
L 103.777005 214.91694 
L 104.305927 214.91694 
L 104.305927 214.357757 
L 106.272485 214.357757 
L 106.272485 213.798575 
L 113.396034 213.798575 
L 113.396034 212.121028 
L 116.220179 212.121028 
L 116.220179 210.443482 
L 116.984244 210.443482 
L 116.984244 209.884299 
L 120.568842 209.884299 
L 120.568842 204.851659 
L 120.968596 204.851659 
L 120.968596 194.227197 
L 122.660646 194.227197 
L 122.660646 189.753739 
L 126.638823 189.753739 
L 126.638823 189.194556 
L 133.6555 189.194556 
L 133.6555 184.721099 
L 134.485139 184.721099 
L 134.485139 184.161916 
L 136.359022 184.161916 
L 136.359022 183.602734 
L 137.678888 183.602734 
L 137.678888 183.043552 
L 139.180721 183.043552 
L 139.180721 180.806823 
L 139.317139 180.806823 
L 139.317139 177.451729 
L 139.452484 177.451729 
L 139.452484 176.892547 
L 139.786254 176.892547 
L 139.786254 175.774183 
L 143.193387 175.774183 
L 143.193387 172.978271 
L 143.621786 172.978271 
L 143.621786 166.827267 
L 143.884213 166.827267 
L 143.884213 165.14972 
L 144.295937 165.14972 
L 144.295937 164.031356 
L 144.84642 164.031356 
L 144.895601 161.235444 
L 145.897164 161.235444 
L 145.897164 158.439533 
L 150.888293 158.439533 
L 150.888293 154.525258 
L 154.045238 154.525258 
L 154.045238 151.170164 
L 155.615187 151.170164 
L 155.615187 148.374253 
L 156.387261 148.374253 
L 156.387261 144.459977 
L 156.980885 144.459977 
L 156.980885 143.900795 
L 160.227826 143.900795 
L 160.227826 142.78243 
L 160.645384 142.78243 
L 160.645384 141.664066 
L 161.637678 141.664066 
L 161.637678 138.868155 
L 164.006909 138.868155 
L 164.006909 137.190608 
L 164.796241 137.190608 
L 164.796241 136.072244 
L 166.428881 136.072244 
L 166.470924 133.835515 
L 167.463505 133.835515 
L 167.463505 133.276332 
L 168.137148 133.276332 
L 168.137148 130.480421 
L 168.69953 130.480421 
L 168.69953 126.006963 
L 169.279792 126.006963 
L 169.279792 124.888599 
L 169.527625 124.888599 
L 169.527625 119.855959 
L 170.661102 119.855959 
L 170.661102 119.296776 
L 170.997826 119.296776 
L 170.997826 118.178412 
L 173.110569 118.178412 
L 173.110569 115.941683 
L 173.570462 115.941683 
L 173.570462 115.382501 
L 175.815833 115.382501 
L 175.815833 114.823318 
L 177.383753 114.823318 
L 177.383753 113.145772 
L 178.286914 113.145772 
L 178.286914 110.349861 
L 179.769612 110.349861 
L 179.769612 109.790678 
L 180.240912 109.790678 
L 180.240912 109.231496 
L 181.517867 109.231496 
L 181.517867 107.553949 
L 181.909976 107.553949 
L 181.909976 105.876403 
L 182.063219 105.876403 
L 182.063219 105.31722 
L 182.349003 105.31722 
L 182.349003 101.962127 
L 182.917454 101.962127 
L 182.917454 101.402945 
L 183.06734 101.402945 
L 183.06734 97.488669 
L 184.404994 97.488669 
L 184.404994 95.811122 
L 184.62059 95.811122 
L 184.62059 93.015211 
L 184.919866 93.015211 
L 184.919866 90.778482 
L 185.567861 90.778482 
L 185.659779 87.982571 
L 185.787644 87.982571 
L 185.787644 84.068295 
L 186.897542 84.068295 
L 186.897542 79.035655 
L 187.298031 79.035655 
L 187.298031 76.239744 
L 188.586126 76.239744 
L 188.586126 74.562197 
L 188.774528 74.562197 
L 188.774528 73.443833 
L 189.08151 73.443833 
L 189.08151 70.647921 
L 189.349855 70.647921 
L 189.375722 69.529557 
L 189.71212 69.529557 
L 189.71212 67.292828 
L 190.424943 67.292828 
L 190.424943 66.733646 
L 191.58998 66.733646 
L 191.58998 64.496917 
L 192.095376 64.496917 
L 192.095376 59.464277 
L 193.920873 59.464277 
L 193.920873 58.345912 
L 194.277141 58.345912 
L 194.321506 55.550001 
L 194.699474 55.550001 
L 194.699474 54.990819 
L 196.510477 54.990819 
L 196.510477 52.194907 
L 196.838902 52.194907 
L 196.838902 51.076543 
L 197.790386 51.076543 
L 197.790386 49.958178 
L 198.456265 49.958178 
L 198.501925 46.043903 
L 199.493324 46.043903 
L 199.554705 42.688809 
L 200.290331 42.688809 
L 200.385948 39.333716 
L 201.162107 39.333716 
L 201.162107 38.215351 
L 201.711253 38.215351 
L 201.711253 37.096987 
L 202.148818 37.096987 
L 202.148818 35.41944 
L 202.318338 35.41944 
L 202.318338 34.860258 
L 202.501694 34.860258 
L 202.501694 34.301076 
L 207.283186 34.301076 
L 207.283186 33.182711 
L 207.454296 33.182711 
L 207.454296 32.064347 
L 207.843268 32.064347 
L 207.843268 31.505165 
L 208.153184 31.505165 
L 208.153184 30.945982 
L 208.462477 30.945982 
L 208.462477 28.709253 
L 208.961185 28.709253 
L 209.018986 27.590889 
L 210.111673 27.590889 
L 210.111673 25.35416 
L 211.927427 25.35416 
L 211.927427 23.676613 
L 213.081008 23.676613 
L 213.081008 23.117431 
L 213.858125 23.117431 
L 213.858125 22.558249 
L 214.122679 22.558249 
L 214.122679 21.999066 
L 214.336616 21.999066 
L 214.336616 21.439884 
L 214.880199 21.439884 
L 214.880199 20.880702 
L 217.373981 20.880702 
L 217.373981 20.32152 
L 217.73236 20.32152 
L 217.73236 19.203155 
L 219.836779 19.203155 
L 219.836779 18.643973 
L 220.091568 18.643973 
L 220.091568 18.084791 
L 220.840544 18.084791 
L 220.840544 17.525609 
L 221.080398 17.525609 
L 221.080398 16.966426 
L 223.313626 16.966426 
L 223.313626 15.848062 
L 223.469282 15.848062 
L 223.469282 15.28888 
L 223.594817 15.28888 
L 223.594817 14.729697 
L 225.787921 14.729697 
L 225.787921 14.170515 
L 225.964583 14.170515 
L 225.964583 13.611333 
L 228.314532 13.611333 
L 228.314532 13.052151 
L 231.419622 13.052151 
L 231.419622 12.492968 
L 232.763673 12.492968 
L 232.763673 11.933786 
L 233.126082 11.933786 
L 233.126082 11.374604 
L 233.243865 11.374604 
L 233.329957 10.256239 
L 236.905791 10.256239 
L 236.905791 9.697057 
L 333.168 9.697057 
L 333.168 9.697057 
" style="fill:none;stroke:#ffa500;stroke-linecap:square;stroke-width:1.5;"/>
   </g>
   <g id="line2d_49">
    <defs>
     <path d="M 0 -6 
L -1.347084 -1.854102 
L -5.706339 -1.854102 
L -2.179628 0.708204 
L -3.526712 4.854102 
L -0 2.291796 
L 3.526712 4.854102 
L 2.179628 0.708204 
L 5.706339 -1.854102 
L 1.347084 -1.854102 
z
" id="m2b68087b2a" style="stroke:#ffa500;stroke-linejoin:bevel;stroke-width:1.5;"/>
    </defs>
    <g>
     <use style="fill-opacity:0;stroke:#ffa500;stroke-linejoin:bevel;stroke-width:1.5;" x="116.984244" xlink:href="#m2b68087b2a" y="209.884299"/>
     <use style="fill-opacity:0;stroke:#ffa500;stroke-linejoin:bevel;stroke-width:1.5;" x="173.570462" xlink:href="#m2b68087b2a" y="115.941683"/>
     <use style="fill-opacity:0;stroke:#ffa500;stroke-linejoin:bevel;stroke-width:1.5;" x="207.454296" xlink:href="#m2b68087b2a" y="33.182711"/>
     <use style="fill-opacity:0;stroke:#ffa500;stroke-linejoin:bevel;stroke-width:1.5;" x="236.905791" xlink:href="#m2b68087b2a" y="9.697057"/>
     <use style="fill-opacity:0;stroke:#ffa500;stroke-linejoin:bevel;stroke-width:1.5;" x="236.905791" xlink:href="#m2b68087b2a" y="9.697057"/>
     <use style="fill-opacity:0;stroke:#ffa500;stroke-linejoin:bevel;stroke-width:1.5;" x="333.168" xlink:href="#m2b68087b2a" y="9.697057"/>
    </g>
   </g>
   <g id="line2d_50">
    <path style="fill:none;stroke:#ffa500;stroke-linecap:square;stroke-width:1.5;"/>
    <g/>
   </g>
   <g id="line2d_51">
    <path clip-path="url(#p63f9e55077)" d="M 202.691626 34.301076 
" style="fill:none;stroke:#ffa500;stroke-linecap:square;stroke-width:1.5;"/>
    <defs>
     <path d="M -12 12 
L 12 -12 
M -12 -12 
L 12 12 
" id="m7eb1b2549f" style="stroke:#ffa500;"/>
    </defs>
    <g clip-path="url(#p63f9e55077)">
     <use style="fill:#ffa500;stroke:#ffa500;" x="202.691626" xlink:href="#m7eb1b2549f" y="34.301076"/>
    </g>
   </g>
   <g id="line2d_52">
    <defs>
     <path d="M 0 1.5 
C 0.397805 1.5 0.77937 1.341951 1.06066 1.06066 
C 1.341951 0.77937 1.5 0.397805 1.5 0 
C 1.5 -0.397805 1.341951 -0.77937 1.06066 -1.06066 
C 0.77937 -1.341951 0.397805 -1.5 0 -1.5 
C -0.397805 -1.5 -0.77937 -1.341951 -1.06066 -1.06066 
C -1.341951 -0.77937 -1.5 -0.397805 -1.5 0 
C -1.5 0.397805 -1.341951 0.77937 -1.06066 1.06066 
C -0.77937 1.341951 -0.397805 1.5 0 1.5 
z
" id="mc6ba02fd52" style="stroke:#6495ed;"/>
    </defs>
    <g>
     <use style="fill:#6495ed;stroke:#6495ed;" x="251.965637" xlink:href="#mc6ba02fd52" y="155.08444"/>
     <use style="fill:#6495ed;stroke:#6495ed;" x="251.965637" xlink:href="#mc6ba02fd52" y="155.08444"/>
    </g>
   </g>
   <g id="line2d_53">
    <path d="M 63.08939 294.88 
L 63.08939 288.728995 
L 75.003641 288.728995 
L 75.003641 288.169813 
L 79.948502 288.169813 
L 79.948502 284.81472 
L 81.973032 284.81472 
L 81.973032 279.222897 
L 83.784035 279.222897 
L 83.784035 277.545351 
L 85.422286 277.545351 
L 85.422286 274.749439 
L 88.293717 274.749439 
L 88.293717 272.51271 
L 89.567532 272.51271 
L 89.567532 269.157617 
L 91.862754 269.157617 
L 91.862754 266.361706 
L 92.904808 266.361706 
L 92.904808 262.44743 
L 94.816624 262.44743 
L 94.816624 260.769883 
L 96.536922 260.769883 
L 96.536922 255.178061 
L 97.336537 255.178061 
L 97.336537 254.618879 
L 100.856673 254.618879 
L 100.856673 253.500514 
L 101.481783 253.500514 
L 101.481783 252.941332 
L 102.667676 252.941332 
L 102.667676 250.704603 
L 104.305927 250.704603 
L 104.305927 250.145421 
L 104.819059 250.145421 
L 104.819059 249.027056 
L 105.801534 249.027056 
L 105.801534 248.467874 
L 106.272485 248.467874 
L 106.272485 247.908692 
L 111.788449 247.908692 
L 111.788449 247.34951 
L 112.122219 247.34951 
L 112.122219 246.231145 
L 114.866043 246.231145 
L 114.866043 245.112781 
L 123.533353 245.112781 
L 123.533353 244.553598 
L 133.6555 244.553598 
L 133.6555 243.994416 
L 136.115208 243.994416 
L 136.115208 243.435234 
L 138.553074 243.435234 
L 138.553074 242.876052 
L 139.852237 242.876052 
L 139.852237 242.316869 
L 143.462385 242.316869 
L 143.462385 241.757687 
L 143.674593 241.757687 
L 143.674593 241.198505 
L 145.042304 241.198505 
L 145.042304 240.639323 
L 150.360453 240.639323 
L 150.360453 238.961776 
L 154.612571 238.961776 
L 154.612571 238.402594 
L 158.975673 238.402594 
L 158.975673 237.843411 
L 161.748573 237.843411 
L 161.803753 236.165865 
L 162.523048 236.165865 
L 162.523048 235.0475 
L 164.827073 235.0475 
L 164.827073 233.369954 
L 164.980407 233.369954 
L 164.980407 232.810771 
L 165.327969 232.810771 
L 165.327969 232.251589 
L 167.621321 232.251589 
L 167.621321 231.692407 
L 168.162537 231.692407 
L 168.162537 231.133225 
L 170.63915 231.133225 
L 170.63915 229.455678 
L 171.724437 229.455678 
L 171.724437 228.337313 
L 174.454901 228.337313 
L 174.454901 227.218949 
L 175.46277 227.218949 
L 175.46277 225.541402 
L 176.209513 225.541402 
L 176.209513 224.423038 
L 178.088691 224.423038 
L 178.088691 223.863855 
L 179.044245 223.863855 
L 179.044245 222.745491 
L 181.188099 222.745491 
L 181.188099 222.186309 
L 183.120556 222.186309 
L 183.120556 221.627126 
L 186.07191 221.627126 
L 186.07191 219.390397 
L 187.377021 219.390397 
L 187.377021 218.272033 
L 190.088175 218.272033 
L 190.088175 217.153669 
L 190.85378 217.153669 
L 190.85378 216.594486 
L 193.276856 216.594486 
L 193.276856 214.91694 
L 193.778559 214.91694 
L 193.778559 213.239393 
L 193.912367 213.239393 
L 193.912367 212.121028 
L 195.503891 212.121028 
L 195.503891 210.443482 
L 195.755387 210.443482 
L 195.755387 208.765935 
L 196.178141 208.765935 
L 196.178141 208.206753 
L 197.226774 208.206753 
L 197.226774 206.529206 
L 197.373477 206.529206 
L 197.373477 205.410841 
L 197.603799 205.410841 
L 197.603799 204.851659 
L 201.284434 204.851659 
L 201.284434 204.292477 
L 201.858349 204.292477 
L 201.858349 198.700655 
L 203.709139 198.700655 
L 203.709139 198.141472 
L 204.21019 198.141472 
L 204.21019 197.58229 
L 205.731351 197.58229 
L 205.731351 196.463926 
L 206.375038 196.463926 
L 206.375038 194.786379 
L 206.563536 194.786379 
L 206.563536 194.227197 
L 207.017993 194.227197 
L 207.087971 193.108832 
L 210.535189 193.108832 
L 210.535189 191.431285 
L 210.720712 191.431285 
L 210.783528 188.635374 
L 211.655835 188.635374 
L 211.655835 188.076192 
L 212.089725 188.076192 
L 212.151666 186.957828 
L 212.24953 186.957828 
L 212.24953 186.398645 
L 213.008333 186.398645 
L 213.008333 185.839463 
L 214.194288 185.839463 
L 214.194288 184.161916 
L 216.154791 184.161916 
L 216.154791 183.043552 
L 216.650625 183.043552 
L 216.650625 182.48437 
L 218.305762 182.48437 
L 218.305762 181.925187 
L 218.971229 181.925187 
L 218.971229 179.688458 
L 219.085033 179.688458 
L 219.085033 179.129276 
L 219.559032 179.129276 
L 219.559032 178.570094 
L 219.939398 178.570094 
L 219.978656 176.333365 
L 221.118885 176.333365 
L 221.118885 175.774183 
L 221.301972 175.774183 
L 221.301972 174.655818 
L 222.71212 174.655818 
L 222.71212 174.096636 
L 224.112472 174.096636 
L 224.112472 173.537454 
L 224.605008 173.537454 
L 224.605008 172.419089 
L 225.108318 172.419089 
L 225.108318 171.859907 
L 225.336788 171.859907 
L 225.336788 170.741543 
L 226.178983 170.741543 
L 226.178983 170.18236 
L 227.517581 170.18236 
L 227.517581 169.623178 
L 228.841016 169.623178 
L 228.841016 169.063996 
L 229.415595 169.063996 
L 229.415595 168.504814 
L 230.192206 168.504814 
L 230.192206 166.827267 
L 232.000872 166.827267 
L 232.000872 166.268085 
L 232.236766 166.268085 
L 232.236766 165.708902 
L 232.709745 165.708902 
L 232.709745 165.14972 
L 233.353414 165.14972 
L 233.353414 164.031356 
L 236.022563 164.031356 
L 236.022563 163.472173 
L 237.503478 163.472173 
L 237.503478 162.912991 
L 238.332402 162.912991 
L 238.332402 162.353809 
L 239.633966 162.353809 
L 239.633966 161.235444 
L 240.368292 161.235444 
L 240.368292 160.11708 
L 242.188379 160.11708 
L 242.188379 159.557898 
L 243.236185 159.557898 
L 243.236185 158.998715 
L 243.487223 158.998715 
L 243.487223 158.439533 
L 243.834058 158.439533 
L 243.834058 157.880351 
L 244.788804 157.880351 
L 244.788804 157.321169 
L 246.212722 157.321169 
L 246.212722 156.761987 
L 248.749102 156.761987 
L 248.749102 156.202804 
L 249.889481 156.202804 
L 249.889481 155.643622 
L 251.965637 155.643622 
L 251.965637 155.08444 
L 333.168 155.08444 
L 333.168 155.08444 
" style="fill:none;stroke:#6495ed;stroke-linecap:square;stroke-width:1.5;"/>
   </g>
   <g id="line2d_54">
    <defs>
     <path d="M -0 6 
L 6 -6 
L -6 -6 
z
" id="m92cc9ac148" style="stroke:#6495ed;stroke-linejoin:miter;stroke-width:1.5;"/>
    </defs>
    <g>
     <use style="fill-opacity:0;stroke:#6495ed;stroke-linejoin:miter;stroke-width:1.5;" x="145.042304" xlink:href="#m92cc9ac148" y="241.198505"/>
     <use style="fill-opacity:0;stroke:#6495ed;stroke-linejoin:miter;stroke-width:1.5;" x="213.008333" xlink:href="#m92cc9ac148" y="185.839463"/>
     <use style="fill-opacity:0;stroke:#6495ed;stroke-linejoin:miter;stroke-width:1.5;" x="251.965637" xlink:href="#m92cc9ac148" y="155.08444"/>
     <use style="fill-opacity:0;stroke:#6495ed;stroke-linejoin:miter;stroke-width:1.5;" x="251.965637" xlink:href="#m92cc9ac148" y="155.08444"/>
     <use style="fill-opacity:0;stroke:#6495ed;stroke-linejoin:miter;stroke-width:1.5;" x="333.168" xlink:href="#m92cc9ac148" y="155.08444"/>
    </g>
   </g>
   <g id="line2d_55">
    <path style="fill:none;stroke:#6495ed;stroke-linecap:square;stroke-width:1.5;"/>
    <g/>
   </g>
   <g id="line2d_56">
    <path clip-path="url(#p63f9e55077)" d="M 202.691626 198.700655 
" style="fill:none;stroke:#6495ed;stroke-linecap:square;stroke-width:1.5;"/>
    <defs>
     <path d="M -12 12 
L 12 -12 
M -12 -12 
L 12 12 
" id="ma5f51f936a" style="stroke:#6495ed;"/>
    </defs>
    <g clip-path="url(#p63f9e55077)">
     <use style="fill:#6495ed;stroke:#6495ed;" x="202.691626" xlink:href="#ma5f51f936a" y="198.700655"/>
    </g>
   </g>
   <g id="line2d_57">
    <defs>
     <path d="M 0 1.5 
C 0.397805 1.5 0.77937 1.341951 1.06066 1.06066 
C 1.341951 0.77937 1.5 0.397805 1.5 0 
C 1.5 -0.397805 1.341951 -0.77937 1.06066 -1.06066 
C 0.77937 -1.341951 0.397805 -1.5 0 -1.5 
C -0.397805 -1.5 -0.77937 -1.341951 -1.06066 -1.06066 
C -1.341951 -0.77937 -1.5 -0.397805 -1.5 0 
C -1.5 0.397805 -1.341951 0.77937 -1.06066 1.06066 
C -0.77937 1.341951 -0.397805 1.5 0 1.5 
z
" id="m4880b78256" style="stroke:#ff0000;"/>
    </defs>
    <g>
     <use style="fill:#ff0000;stroke:#ff0000;" x="254.616604" xlink:href="#m4880b78256" y="227.778131"/>
     <use style="fill:#ff0000;stroke:#ff0000;" x="254.616604" xlink:href="#m4880b78256" y="227.778131"/>
    </g>
   </g>
   <g id="line2d_58">
    <path d="M 44.205749 294.88 
L 44.205749 279.222897 
L 56.12 279.222897 
L 56.12 277.545351 
L 63.08939 277.545351 
L 63.08939 274.190257 
L 68.034251 274.190257 
L 68.034251 271.953528 
L 71.869783 271.953528 
L 71.869783 270.275981 
L 79.948502 270.275981 
L 79.948502 269.716799 
L 81.973032 269.716799 
L 81.973032 267.48007 
L 85.422286 267.48007 
L 85.422286 266.920888 
L 88.293717 266.920888 
L 88.293717 265.802523 
L 96.536922 265.802523 
L 96.536922 265.243341 
L 98.832144 265.243341 
L 98.832144 264.684159 
L 100.856673 264.684159 
L 100.856673 264.124977 
L 106.730875 264.124977 
L 106.730875 263.565795 
L 108.036969 263.565795 
L 108.036969 263.006612 
L 108.85563 263.006612 
L 108.85563 262.44743 
L 109.637066 262.44743 
L 109.637066 261.888248 
L 112.449632 261.888248 
L 112.449632 261.329066 
L 116.73331 261.329066 
L 116.73331 259.651519 
L 119.09161 259.651519 
L 119.09161 259.092337 
L 120.15957 259.092337 
L 120.15957 258.533154 
L 123.7027 258.533154 
L 123.7027 257.973972 
L 127.05979 257.973972 
L 127.05979 257.41479 
L 128.773486 257.41479 
L 128.773486 256.855608 
L 129.984454 256.855608 
L 129.984454 255.737243 
L 135.3623 255.737243 
L 135.3623 255.178061 
L 142.245962 255.178061 
L 142.245962 252.941332 
L 143.139078 252.941332 
L 143.139078 252.38215 
L 143.884213 252.38215 
L 143.884213 250.145421 
L 147.782136 250.145421 
L 147.782136 249.586238 
L 151.094972 249.586238 
L 151.094972 249.027056 
L 157.02944 249.027056 
L 157.02944 247.908692 
L 157.926853 247.908692 
L 157.926853 246.231145 
L 161.986418 246.231145 
L 161.986418 245.671963 
L 162.399325 245.671963 
L 162.399325 245.112781 
L 175.985658 245.112781 
L 175.985658 243.994416 
L 179.010536 243.994416 
L 179.010536 243.435234 
L 184.076444 243.435234 
L 184.076444 241.757687 
L 191.1027 241.757687 
L 191.1027 240.08014 
L 194.661506 240.08014 
L 194.661506 239.520958 
L 200.087588 239.520958 
L 200.087588 238.961776 
L 202.768031 238.961776 
L 202.768031 238.402594 
L 204.772596 238.402594 
L 204.772596 237.843411 
L 206.556742 237.843411 
L 206.556742 237.284229 
L 209.770144 237.284229 
L 209.770144 236.725047 
L 210.242679 236.725047 
L 210.242679 236.165865 
L 211.055549 236.165865 
L 211.055549 235.0475 
L 212.156573 235.0475 
L 212.156573 233.929136 
L 214.644122 233.929136 
L 214.644122 233.369954 
L 218.506969 233.369954 
L 218.506969 232.810771 
L 219.291629 232.810771 
L 219.291629 232.251589 
L 222.167345 232.251589 
L 222.167345 231.692407 
L 224.836467 231.692407 
L 224.836467 230.574042 
L 229.022184 230.574042 
L 229.022184 230.01486 
L 230.713349 230.01486 
L 230.713349 229.455678 
L 236.951067 229.455678 
L 236.951067 228.896496 
L 246.278886 228.896496 
L 246.278886 228.337313 
L 254.616604 228.337313 
L 254.616604 227.778131 
L 333.168 227.778131 
" style="fill:none;stroke:#ff0000;stroke-linecap:square;stroke-width:1.5;"/>
   </g>
   <g id="line2d_59">
    <defs>
     <path d="M 0 -6 
L -5.196152 -3 
L -5.196152 3 
L -0 6 
L 5.196152 3 
L 5.196152 -3 
z
" id="md4d6289a6c" style="stroke:#ff0000;stroke-linejoin:miter;stroke-width:1.5;"/>
    </defs>
    <g>
     <use style="fill-opacity:0;stroke:#ff0000;stroke-linejoin:miter;stroke-width:1.5;" x="88.293717" xlink:href="#md4d6289a6c" y="265.802523"/>
     <use style="fill-opacity:0;stroke:#ff0000;stroke-linejoin:miter;stroke-width:1.5;" x="157.926853" xlink:href="#md4d6289a6c" y="246.231145"/>
     <use style="fill-opacity:0;stroke:#ff0000;stroke-linejoin:miter;stroke-width:1.5;" x="210.242679" xlink:href="#md4d6289a6c" y="236.165865"/>
     <use style="fill-opacity:0;stroke:#ff0000;stroke-linejoin:miter;stroke-width:1.5;" x="254.616604" xlink:href="#md4d6289a6c" y="228.337313"/>
     <use style="fill-opacity:0;stroke:#ff0000;stroke-linejoin:miter;stroke-width:1.5;" x="254.616604" xlink:href="#md4d6289a6c" y="227.778131"/>
     <use style="fill-opacity:0;stroke:#ff0000;stroke-linejoin:miter;stroke-width:1.5;" x="333.168" xlink:href="#md4d6289a6c" y="227.778131"/>
    </g>
   </g>
   <g id="line2d_60">
    <path style="fill:none;stroke:#ff0000;stroke-linecap:square;stroke-width:1.5;"/>
    <g/>
   </g>
   <g id="line2d_61">
    <path clip-path="url(#p63f9e55077)" d="M 202.691626 238.961776 
" style="fill:none;stroke:#ff0000;stroke-linecap:square;stroke-width:1.5;"/>
    <defs>
     <path d="M -12 12 
L 12 -12 
M -12 -12 
L 12 12 
" id="m3f74a27706" style="stroke:#ff0000;"/>
    </defs>
    <g clip-path="url(#p63f9e55077)">
     <use style="fill:#ff0000;stroke:#ff0000;" x="202.691626" xlink:href="#m3f74a27706" y="238.961776"/>
    </g>
   </g>
   <g id="line2d_62">
    <path d="M 333.168 227.778131 
L 363.64328 289.176341 
" style="fill:none;stroke:#ff0000;stroke-linecap:square;stroke-width:1.5;"/>
    <g>
     <use style="fill-opacity:0;stroke:#ff0000;stroke-linejoin:miter;stroke-width:1.5;" x="333.168" xlink:href="#md4d6289a6c" y="227.778131"/>
     <use style="fill-opacity:0;stroke:#ff0000;stroke-linejoin:miter;stroke-width:1.5;" x="363.64328" xlink:href="#md4d6289a6c" y="289.176341"/>
    </g>
   </g>
   <g id="line2d_63">
    <path d="M 333.168 216.594486 
L 363.64328 220.732435 
" style="fill:none;stroke:#000080;stroke-linecap:square;stroke-width:1.5;"/>
    <g>
     <use style="fill-opacity:0;stroke:#000080;stroke-width:1.5;" x="333.168" xlink:href="#m78ecb1bbd7" y="216.594486"/>
     <use style="fill-opacity:0;stroke:#000080;stroke-width:1.5;" x="363.64328" xlink:href="#m78ecb1bbd7" y="220.732435"/>
    </g>
   </g>
   <g id="line2d_64">
    <path d="M 333.168 155.08444 
L 363.64328 152.288529 
" style="fill:none;stroke:#6495ed;stroke-linecap:square;stroke-width:1.5;"/>
    <g>
     <use style="fill-opacity:0;stroke:#6495ed;stroke-linejoin:miter;stroke-width:1.5;" x="333.168" xlink:href="#m92cc9ac148" y="155.08444"/>
     <use style="fill-opacity:0;stroke:#6495ed;stroke-linejoin:miter;stroke-width:1.5;" x="363.64328" xlink:href="#m92cc9ac148" y="152.288529"/>
    </g>
   </g>
   <g id="line2d_65">
    <path d="M 333.168 9.697057 
L 363.64328 83.844622 
" style="fill:none;stroke:#ff00ff;stroke-linecap:square;stroke-width:1.5;"/>
    <g>
     <use style="fill-opacity:0;stroke:#ff00ff;stroke-linejoin:miter;stroke-width:1.5;" x="333.168" xlink:href="#m5d435e6a58" y="9.697057"/>
     <use style="fill-opacity:0;stroke:#ff00ff;stroke-linejoin:miter;stroke-width:1.5;" x="363.64328" xlink:href="#m5d435e6a58" y="83.844622"/>
    </g>
   </g>
   <g id="line2d_66">
    <path d="M 333.168 9.697057 
L 363.64328 15.400716 
" style="fill:none;stroke:#ffa500;stroke-linecap:square;stroke-width:1.5;"/>
    <g>
     <use style="fill-opacity:0;stroke:#ffa500;stroke-linejoin:bevel;stroke-width:1.5;" x="333.168" xlink:href="#m2b68087b2a" y="9.697057"/>
     <use style="fill-opacity:0;stroke:#ffa500;stroke-linejoin:bevel;stroke-width:1.5;" x="363.64328" xlink:href="#m2b68087b2a" y="15.400716"/>
    </g>
   </g>
   <g id="line2d_67">
    <path d="M 333.168 294.88 
L 333.168 9.697057 
" style="fill:none;stroke:#000000;stroke-linecap:square;stroke-width:1.5;"/>
   </g>
   <g id="patch_3">
    <path d="M 56.12 294.88 
L 56.12 6.845228 
" style="fill:none;stroke:#000000;stroke-linecap:square;stroke-linejoin:miter;stroke-width:0.8;"/>
   </g>
   <g id="patch_4">
    <path d="M 333.168 294.88 
L 333.168 6.845228 
" style="fill:none;stroke:#000000;stroke-linecap:square;stroke-linejoin:miter;stroke-width:0.8;"/>
   </g>
   <g id="patch_5">
    <path d="M 56.12 294.88 
L 333.168 294.88 
" style="fill:none;stroke:#000000;stroke-linecap:square;stroke-linejoin:miter;stroke-width:0.8;"/>
   </g>
   <g id="patch_6">
    <path d="M 56.12 6.845228 
L 333.168 6.845228 
" style="fill:none;stroke:#000000;stroke-linecap:square;stroke-linejoin:miter;stroke-width:0.8;"/>
   </g>
   <g id="text_13">
    <!-- f24 -->
    <g transform="translate(369.18424 293.867279)scale(0.17 -0.17)">
     <use xlink:href="#DejaVuSans-66"/>
     <use x="35.205078" xlink:href="#DejaVuSans-32"/>
     <use x="98.828125" xlink:href="#DejaVuSans-34"/>
    </g>
   </g>
   <g id="text_14">
    <!-- f23 -->
    <defs>
     <path d="M 40.578125 39.3125 
Q 47.65625 37.796875 51.625 33 
Q 55.609375 28.21875 55.609375 21.1875 
Q 55.609375 10.40625 48.1875 4.484375 
Q 40.765625 -1.421875 27.09375 -1.421875 
Q 22.515625 -1.421875 17.65625 -0.515625 
Q 12.796875 0.390625 7.625 2.203125 
L 7.625 11.71875 
Q 11.71875 9.328125 16.59375 8.109375 
Q 21.484375 6.890625 26.8125 6.890625 
Q 36.078125 6.890625 40.9375 10.546875 
Q 45.796875 14.203125 45.796875 21.1875 
Q 45.796875 27.640625 41.28125 31.265625 
Q 36.765625 34.90625 28.71875 34.90625 
L 20.21875 34.90625 
L 20.21875 43.015625 
L 29.109375 43.015625 
Q 36.375 43.015625 40.234375 45.921875 
Q 44.09375 48.828125 44.09375 54.296875 
Q 44.09375 59.90625 40.109375 62.90625 
Q 36.140625 65.921875 28.71875 65.921875 
Q 24.65625 65.921875 20.015625 65.03125 
Q 15.375 64.15625 9.8125 62.3125 
L 9.8125 71.09375 
Q 15.4375 72.65625 20.34375 73.4375 
Q 25.25 74.21875 29.59375 74.21875 
Q 40.828125 74.21875 47.359375 69.109375 
Q 53.90625 64.015625 53.90625 55.328125 
Q 53.90625 49.265625 50.4375 45.09375 
Q 46.96875 40.921875 40.578125 39.3125 
z
" id="DejaVuSans-33"/>
    </defs>
    <g transform="translate(369.18424 225.423372)scale(0.17 -0.17)">
     <use xlink:href="#DejaVuSans-66"/>
     <use x="35.205078" xlink:href="#DejaVuSans-32"/>
     <use x="98.828125" xlink:href="#DejaVuSans-33"/>
    </g>
   </g>
   <g id="text_15">
    <!-- f20 -->
    <g transform="translate(369.18424 156.979466)scale(0.17 -0.17)">
     <use xlink:href="#DejaVuSans-66"/>
     <use x="35.205078" xlink:href="#DejaVuSans-32"/>
     <use x="98.828125" xlink:href="#DejaVuSans-30"/>
    </g>
   </g>
   <g id="text_16">
    <!-- f22 -->
    <g transform="translate(369.18424 88.53556)scale(0.17 -0.17)">
     <use xlink:href="#DejaVuSans-66"/>
     <use x="35.205078" xlink:href="#DejaVuSans-32"/>
     <use x="98.828125" xlink:href="#DejaVuSans-32"/>
    </g>
   </g>
   <g id="text_17">
    <!-- f21 -->
    <g transform="translate(369.18424 20.091654)scale(0.17 -0.17)">
     <use xlink:href="#DejaVuSans-66"/>
     <use x="35.205078" xlink:href="#DejaVuSans-32"/>
     <use x="98.828125" xlink:href="#DejaVuSans-31"/>
    </g>
   </g>
   <g id="text_18">
    <!-- bbob -->
    <defs>
     <path d="M 48.6875 27.296875 
Q 48.6875 37.203125 44.609375 42.84375 
Q 40.53125 48.484375 33.40625 48.484375 
Q 26.265625 48.484375 22.1875 42.84375 
Q 18.109375 37.203125 18.109375 27.296875 
Q 18.109375 17.390625 22.1875 11.75 
Q 26.265625 6.109375 33.40625 6.109375 
Q 40.53125 6.109375 44.609375 11.75 
Q 48.6875 17.390625 48.6875 27.296875 
z
M 18.109375 46.390625 
Q 20.953125 51.265625 25.265625 53.625 
Q 29.59375 56 35.59375 56 
Q 45.5625 56 51.78125 48.09375 
Q 58.015625 40.1875 58.015625 27.296875 
Q 58.015625 14.40625 51.78125 6.484375 
Q 45.5625 -1.421875 35.59375 -1.421875 
Q 29.59375 -1.421875 25.265625 0.953125 
Q 20.953125 3.328125 18.109375 8.203125 
L 18.109375 0 
L 9.078125 0 
L 9.078125 75.984375 
L 18.109375 75.984375 
z
" id="DejaVuSans-62"/>
    </defs>
    <g transform="translate(58.89048 17.475982)scale(0.102 -0.102)">
     <use xlink:href="#DejaVuSans-62"/>
     <use x="63.476562" xlink:href="#DejaVuSans-62"/>
     <use x="126.953125" xlink:href="#DejaVuSans-6f"/>
     <use x="188.134766" xlink:href="#DejaVuSans-62"/>
    </g>
    <!-- Weak structure functions, 2-D -->
    <defs>
     <path d="M 3.328125 72.90625 
L 13.28125 72.90625 
L 28.609375 11.28125 
L 43.890625 72.90625 
L 54.984375 72.90625 
L 70.3125 11.28125 
L 85.59375 72.90625 
L 95.609375 72.90625 
L 77.296875 0 
L 64.890625 0 
L 49.515625 63.28125 
L 33.984375 0 
L 21.578125 0 
z
" id="DejaVuSans-57"/>
     <path d="M 9.078125 75.984375 
L 18.109375 75.984375 
L 18.109375 31.109375 
L 44.921875 54.6875 
L 56.390625 54.6875 
L 27.390625 29.109375 
L 57.625 0 
L 45.90625 0 
L 18.109375 26.703125 
L 18.109375 0 
L 9.078125 0 
z
" id="DejaVuSans-6b"/>
     <path d="M 19.671875 64.796875 
L 19.671875 8.109375 
L 31.59375 8.109375 
Q 46.6875 8.109375 53.6875 14.9375 
Q 60.6875 21.78125 60.6875 36.53125 
Q 60.6875 51.171875 53.6875 57.984375 
Q 46.6875 64.796875 31.59375 64.796875 
z
M 9.8125 72.90625 
L 30.078125 72.90625 
Q 51.265625 72.90625 61.171875 64.09375 
Q 71.09375 55.28125 71.09375 36.53125 
Q 71.09375 17.671875 61.125 8.828125 
Q 51.171875 0 30.078125 0 
L 9.8125 0 
z
" id="DejaVuSans-44"/>
    </defs>
    <g transform="translate(58.89048 28.89775)scale(0.102 -0.102)">
     <use xlink:href="#DejaVuSans-57"/>
     <use x="98.798828" xlink:href="#DejaVuSans-65"/>
     <use x="160.322266" xlink:href="#DejaVuSans-61"/>
     <use x="221.601562" xlink:href="#DejaVuSans-6b"/>
     <use x="279.511719" xlink:href="#DejaVuSans-20"/>
     <use x="311.298828" xlink:href="#DejaVuSans-73"/>
     <use x="363.398438" xlink:href="#DejaVuSans-74"/>
     <use x="402.607422" xlink:href="#DejaVuSans-72"/>
     <use x="443.720703" xlink:href="#DejaVuSans-75"/>
     <use x="507.099609" xlink:href="#DejaVuSans-63"/>
     <use x="562.080078" xlink:href="#DejaVuSans-74"/>
     <use x="601.289062" xlink:href="#DejaVuSans-75"/>
     <use x="664.667969" xlink:href="#DejaVuSans-72"/>
     <use x="705.75" xlink:href="#DejaVuSans-65"/>
     <use x="767.273438" xlink:href="#DejaVuSans-20"/>
     <use x="799.060547" xlink:href="#DejaVuSans-66"/>
     <use x="834.265625" xlink:href="#DejaVuSans-75"/>
     <use x="897.644531" xlink:href="#DejaVuSans-6e"/>
     <use x="961.023438" xlink:href="#DejaVuSans-63"/>
     <use x="1016.003906" xlink:href="#DejaVuSans-74"/>
     <use x="1055.212891" xlink:href="#DejaVuSans-69"/>
     <use x="1082.996094" xlink:href="#DejaVuSans-6f"/>
     <use x="1144.177734" xlink:href="#DejaVuSans-6e"/>
     <use x="1207.556641" xlink:href="#DejaVuSans-73"/>
     <use x="1259.65625" xlink:href="#DejaVuSans-2c"/>
     <use x="1291.443359" xlink:href="#DejaVuSans-20"/>
     <use x="1323.230469" xlink:href="#DejaVuSans-32"/>
     <use x="1386.853516" xlink:href="#DejaVuSans-2d"/>
     <use x="1422.9375" xlink:href="#DejaVuSans-44"/>
    </g>
    <!-- 51 targets: 100..1e-08 -->
    <defs>
     <path d="M 10.796875 72.90625 
L 49.515625 72.90625 
L 49.515625 64.59375 
L 19.828125 64.59375 
L 19.828125 46.734375 
Q 21.96875 47.46875 24.109375 47.828125 
Q 26.265625 48.1875 28.421875 48.1875 
Q 40.625 48.1875 47.75 41.5 
Q 54.890625 34.8125 54.890625 23.390625 
Q 54.890625 11.625 47.5625 5.09375 
Q 40.234375 -1.421875 26.90625 -1.421875 
Q 22.3125 -1.421875 17.546875 -0.640625 
Q 12.796875 0.140625 7.71875 1.703125 
L 7.71875 11.625 
Q 12.109375 9.234375 16.796875 8.0625 
Q 21.484375 6.890625 26.703125 6.890625 
Q 35.15625 6.890625 40.078125 11.328125 
Q 45.015625 15.765625 45.015625 23.390625 
Q 45.015625 31 40.078125 35.4375 
Q 35.15625 39.890625 26.703125 39.890625 
Q 22.75 39.890625 18.8125 39.015625 
Q 14.890625 38.140625 10.796875 36.28125 
z
" id="DejaVuSans-35"/>
     <path d="M 11.71875 12.40625 
L 22.015625 12.40625 
L 22.015625 0 
L 11.71875 0 
z
M 11.71875 51.703125 
L 22.015625 51.703125 
L 22.015625 39.3125 
L 11.71875 39.3125 
z
" id="DejaVuSans-3a"/>
    </defs>
    <g transform="translate(58.89048 40.319519)scale(0.102 -0.102)">
     <use xlink:href="#DejaVuSans-35"/>
     <use x="63.623047" xlink:href="#DejaVuSans-31"/>
     <use x="127.246094" xlink:href="#DejaVuSans-20"/>
     <use x="159.033203" xlink:href="#DejaVuSans-74"/>
     <use x="198.242188" xlink:href="#DejaVuSans-61"/>
     <use x="259.521484" xlink:href="#DejaVuSans-72"/>
     <use x="300.619141" xlink:href="#DejaVuSans-67"/>
     <use x="364.095703" xlink:href="#DejaVuSans-65"/>
     <use x="425.619141" xlink:href="#DejaVuSans-74"/>
     <use x="464.828125" xlink:href="#DejaVuSans-73"/>
     <use x="516.927734" xlink:href="#DejaVuSans-3a"/>
     <use x="550.619141" xlink:href="#DejaVuSans-20"/>
     <use x="582.40625" xlink:href="#DejaVuSans-31"/>
     <use x="646.029297" xlink:href="#DejaVuSans-30"/>
     <use x="709.652344" xlink:href="#DejaVuSans-30"/>
     <use x="773.275391" xlink:href="#DejaVuSans-2e"/>
     <use x="805.0625" xlink:href="#DejaVuSans-2e"/>
     <use x="836.849609" xlink:href="#DejaVuSans-31"/>
     <use x="900.472656" xlink:href="#DejaVuSans-65"/>
     <use x="961.996094" xlink:href="#DejaVuSans-2d"/>
     <use x="998.080078" xlink:href="#DejaVuSans-30"/>
     <use x="1061.703125" xlink:href="#DejaVuSans-38"/>
    </g>
    <!-- 15 instances -->
    <g transform="translate(58.89048 51.741288)scale(0.102 -0.102)">
     <use xlink:href="#DejaVuSans-31"/>
     <use x="63.623047" xlink:href="#DejaVuSans-35"/>
     <use x="127.246094" xlink:href="#DejaVuSans-20"/>
     <use x="159.033203" xlink:href="#DejaVuSans-69"/>
     <use x="186.816406" xlink:href="#DejaVuSans-6e"/>
     <use x="250.195312" xlink:href="#DejaVuSans-73"/>
     <use x="302.294922" xlink:href="#DejaVuSans-74"/>
     <use x="341.503906" xlink:href="#DejaVuSans-61"/>
     <use x="402.783203" xlink:href="#DejaVuSans-6e"/>
     <use x="466.162109" xlink:href="#DejaVuSans-63"/>
     <use x="521.142578" xlink:href="#DejaVuSans-65"/>
     <use x="582.666016" xlink:href="#DejaVuSans-73"/>
    </g>
   </g>
   <g id="text_19">
    <!-- v0.0.0 -->
    <g style="fill:#808080;" transform="translate(178.96275 289.919965)scale(0.1 -0.1)">
     <use xlink:href="#DejaVuSans-76"/>
     <use x="59.179688" xlink:href="#DejaVuSans-30"/>
     <use x="122.802734" xlink:href="#DejaVuSans-2e"/>
     <use x="154.589844" xlink:href="#DejaVuSans-30"/>
     <use x="218.212891" xlink:href="#DejaVuSans-2e"/>
     <use x="250" xlink:href="#DejaVuSans-30"/>
    </g>
   </g>
  </g>
 </g>
 <defs>
  <clipPath id="p63f9e55077">
   <rect height="288.034772" width="277.048" x="56.12" y="6.845228"/>
  </clipPath>
 </defs>
</svg>
