<?xml version="1.0" encoding="utf-8" standalone="no"?>
<!DOCTYPE svg PUBLIC "-//W3C//DTD SVG 1.1//EN"
  "http://www.w3.org/Graphics/SVG/1.1/DTD/svg11.dtd">
<!-- Created with matplotlib (http://matplotlib.org/) -->
<svg height="345.6pt" version="1.1" viewBox="0 0 460.8 345.6" width="460.8pt" xmlns="http://www.w3.org/2000/svg" xmlns:xlink="http://www.w3.org/1999/xlink">
 <defs>
  <style type="text/css">
*{stroke-linecap:butt;stroke-linejoin:round;}
  </style>
 </defs>
 <g id="figure_1">
  <g id="patch_1">
   <path d="M 0 345.6 
L 460.8 345.6 
L 460.8 0 
L 0 0 
z
" style="fill:#ffffff;"/>
  </g>
  <g id="axes_1">
   <g id="patch_2">
    <path d="M 56.12 294.88 
L 333.168 294.88 
L 333.168 24.84 
L 56.12 24.84 
z
" style="fill:#ffffff;"/>
   </g>
   <g id="matplotlib.axis_1">
    <g id="xtick_1">
     <g id="line2d_1">
      <path clip-path="url(#pf32cb6f86d)" d="M 56.12 294.88 
L 56.12 24.84 
" style="fill:none;stroke:#b0b0b0;stroke-linecap:square;stroke-width:0.8;"/>
     </g>
     <g id="line2d_2">
      <defs>
       <path d="M 0 0 
L 0 3.5 
" id="m16ca22354d" style="stroke:#000000;stroke-width:0.8;"/>
      </defs>
      <g>
       <use style="stroke:#000000;stroke-width:0.8;" x="56.12" xlink:href="#m16ca22354d" y="294.88"/>
      </g>
     </g>
     <g id="text_1">
      <!-- 0 -->
      <defs>
       <path d="M 31.78125 66.40625 
Q 24.171875 66.40625 20.328125 58.90625 
Q 16.5 51.421875 16.5 36.375 
Q 16.5 21.390625 20.328125 13.890625 
Q 24.171875 6.390625 31.78125 6.390625 
Q 39.453125 6.390625 43.28125 13.890625 
Q 47.125 21.390625 47.125 36.375 
Q 47.125 51.421875 43.28125 58.90625 
Q 39.453125 66.40625 31.78125 66.40625 
z
M 31.78125 74.21875 
Q 44.046875 74.21875 50.515625 64.515625 
Q 56.984375 54.828125 56.984375 36.375 
Q 56.984375 17.96875 50.515625 8.265625 
Q 44.046875 -1.421875 31.78125 -1.421875 
Q 19.53125 -1.421875 13.0625 8.265625 
Q 6.59375 17.96875 6.59375 36.375 
Q 6.59375 54.828125 13.0625 64.515625 
Q 19.53125 74.21875 31.78125 74.21875 
z
" id="DejaVuSans-30"/>
      </defs>
      <g transform="translate(49.7575 317.076875)scale(0.2 -0.2)">
       <use xlink:href="#DejaVuSans-30"/>
      </g>
     </g>
    </g>
    <g id="xtick_2">
     <g id="line2d_3">
      <path clip-path="url(#pf32cb6f86d)" d="M 135.276571 294.88 
L 135.276571 24.84 
" style="fill:none;stroke:#b0b0b0;stroke-linecap:square;stroke-width:0.8;"/>
     </g>
     <g id="line2d_4">
      <g>
       <use style="stroke:#000000;stroke-width:0.8;" x="135.276571" xlink:href="#m16ca22354d" y="294.88"/>
      </g>
     </g>
     <g id="text_2">
      <!-- 2 -->
      <defs>
       <path d="M 19.1875 8.296875 
L 53.609375 8.296875 
L 53.609375 0 
L 7.328125 0 
L 7.328125 8.296875 
Q 12.9375 14.109375 22.625 23.890625 
Q 32.328125 33.6875 34.8125 36.53125 
Q 39.546875 41.84375 41.421875 45.53125 
Q 43.3125 49.21875 43.3125 52.78125 
Q 43.3125 58.59375 39.234375 62.25 
Q 35.15625 65.921875 28.609375 65.921875 
Q 23.96875 65.921875 18.8125 64.3125 
Q 13.671875 62.703125 7.8125 59.421875 
L 7.8125 69.390625 
Q 13.765625 71.78125 18.9375 73 
Q 24.125 74.21875 28.421875 74.21875 
Q 39.75 74.21875 46.484375 68.546875 
Q 53.21875 62.890625 53.21875 53.421875 
Q 53.21875 48.921875 51.53125 44.890625 
Q 49.859375 40.875 45.40625 35.40625 
Q 44.1875 33.984375 37.640625 27.21875 
Q 31.109375 20.453125 19.1875 8.296875 
z
" id="DejaVuSans-32"/>
      </defs>
      <g transform="translate(128.914071 317.076875)scale(0.2 -0.2)">
       <use xlink:href="#DejaVuSans-32"/>
      </g>
     </g>
    </g>
    <g id="xtick_3">
     <g id="line2d_5">
      <path clip-path="url(#pf32cb6f86d)" d="M 214.433143 294.88 
L 214.433143 24.84 
" style="fill:none;stroke:#b0b0b0;stroke-linecap:square;stroke-width:0.8;"/>
     </g>
     <g id="line2d_6">
      <g>
       <use style="stroke:#000000;stroke-width:0.8;" x="214.433143" xlink:href="#m16ca22354d" y="294.88"/>
      </g>
     </g>
     <g id="text_3">
      <!-- 4 -->
      <defs>
       <path d="M 37.796875 64.3125 
L 12.890625 25.390625 
L 37.796875 25.390625 
z
M 35.203125 72.90625 
L 47.609375 72.90625 
L 47.609375 25.390625 
L 58.015625 25.390625 
L 58.015625 17.1875 
L 47.609375 17.1875 
L 47.609375 0 
L 37.796875 0 
L 37.796875 17.1875 
L 4.890625 17.1875 
L 4.890625 26.703125 
z
" id="DejaVuSans-34"/>
      </defs>
      <g transform="translate(208.070643 317.076875)scale(0.2 -0.2)">
       <use xlink:href="#DejaVuSans-34"/>
      </g>
     </g>
    </g>
    <g id="xtick_4">
     <g id="line2d_7">
      <path clip-path="url(#pf32cb6f86d)" d="M 293.589714 294.88 
L 293.589714 24.84 
" style="fill:none;stroke:#b0b0b0;stroke-linecap:square;stroke-width:0.8;"/>
     </g>
     <g id="line2d_8">
      <g>
       <use style="stroke:#000000;stroke-width:0.8;" x="293.589714" xlink:href="#m16ca22354d" y="294.88"/>
      </g>
     </g>
     <g id="text_4">
      <!-- 6 -->
      <defs>
       <path d="M 33.015625 40.375 
Q 26.375 40.375 22.484375 35.828125 
Q 18.609375 31.296875 18.609375 23.390625 
Q 18.609375 15.53125 22.484375 10.953125 
Q 26.375 6.390625 33.015625 6.390625 
Q 39.65625 6.390625 43.53125 10.953125 
Q 47.40625 15.53125 47.40625 23.390625 
Q 47.40625 31.296875 43.53125 35.828125 
Q 39.65625 40.375 33.015625 40.375 
z
M 52.59375 71.296875 
L 52.59375 62.3125 
Q 48.875 64.0625 45.09375 64.984375 
Q 41.3125 65.921875 37.59375 65.921875 
Q 27.828125 65.921875 22.671875 59.328125 
Q 17.53125 52.734375 16.796875 39.40625 
Q 19.671875 43.65625 24.015625 45.921875 
Q 28.375 48.1875 33.59375 48.1875 
Q 44.578125 48.1875 50.953125 41.515625 
Q 57.328125 34.859375 57.328125 23.390625 
Q 57.328125 12.15625 50.6875 5.359375 
Q 44.046875 -1.421875 33.015625 -1.421875 
Q 20.359375 -1.421875 13.671875 8.265625 
Q 6.984375 17.96875 6.984375 36.375 
Q 6.984375 53.65625 15.1875 63.9375 
Q 23.390625 74.21875 37.203125 74.21875 
Q 40.921875 74.21875 44.703125 73.484375 
Q 48.484375 72.75 52.59375 71.296875 
z
" id="DejaVuSans-36"/>
      </defs>
      <g transform="translate(287.227214 317.076875)scale(0.2 -0.2)">
       <use xlink:href="#DejaVuSans-36"/>
      </g>
     </g>
    </g>
    <g id="xtick_5">
     <g id="line2d_9">
      <path clip-path="url(#pf32cb6f86d)" d="M 56.12 294.88 
L 56.12 24.84 
" style="fill:none;stroke:#b0b0b0;stroke-linecap:square;stroke-width:0.8;"/>
     </g>
     <g id="line2d_10">
      <defs>
       <path d="M 0 0 
L 0 2 
" id="mdaaa008af4" style="stroke:#000000;stroke-width:0.6;"/>
      </defs>
      <g>
       <use style="stroke:#000000;stroke-width:0.6;" x="56.12" xlink:href="#mdaaa008af4" y="294.88"/>
      </g>
     </g>
    </g>
    <g id="xtick_6">
     <g id="line2d_11">
      <path clip-path="url(#pf32cb6f86d)" d="M 95.698286 294.88 
L 95.698286 24.84 
" style="fill:none;stroke:#b0b0b0;stroke-linecap:square;stroke-width:0.8;"/>
     </g>
     <g id="line2d_12">
      <g>
       <use style="stroke:#000000;stroke-width:0.6;" x="95.698286" xlink:href="#mdaaa008af4" y="294.88"/>
      </g>
     </g>
    </g>
    <g id="xtick_7">
     <g id="line2d_13">
      <path clip-path="url(#pf32cb6f86d)" d="M 135.276571 294.88 
L 135.276571 24.84 
" style="fill:none;stroke:#b0b0b0;stroke-linecap:square;stroke-width:0.8;"/>
     </g>
     <g id="line2d_14">
      <g>
       <use style="stroke:#000000;stroke-width:0.6;" x="135.276571" xlink:href="#mdaaa008af4" y="294.88"/>
      </g>
     </g>
    </g>
    <g id="xtick_8">
     <g id="line2d_15">
      <path clip-path="url(#pf32cb6f86d)" d="M 174.854857 294.88 
L 174.854857 24.84 
" style="fill:none;stroke:#b0b0b0;stroke-linecap:square;stroke-width:0.8;"/>
     </g>
     <g id="line2d_16">
      <g>
       <use style="stroke:#000000;stroke-width:0.6;" x="174.854857" xlink:href="#mdaaa008af4" y="294.88"/>
      </g>
     </g>
    </g>
    <g id="xtick_9">
     <g id="line2d_17">
      <path clip-path="url(#pf32cb6f86d)" d="M 214.433143 294.88 
L 214.433143 24.84 
" style="fill:none;stroke:#b0b0b0;stroke-linecap:square;stroke-width:0.8;"/>
     </g>
     <g id="line2d_18">
      <g>
       <use style="stroke:#000000;stroke-width:0.6;" x="214.433143" xlink:href="#mdaaa008af4" y="294.88"/>
      </g>
     </g>
    </g>
    <g id="xtick_10">
     <g id="line2d_19">
      <path clip-path="url(#pf32cb6f86d)" d="M 254.011429 294.88 
L 254.011429 24.84 
" style="fill:none;stroke:#b0b0b0;stroke-linecap:square;stroke-width:0.8;"/>
     </g>
     <g id="line2d_20">
      <g>
       <use style="stroke:#000000;stroke-width:0.6;" x="254.011429" xlink:href="#mdaaa008af4" y="294.88"/>
      </g>
     </g>
    </g>
    <g id="xtick_11">
     <g id="line2d_21">
      <path clip-path="url(#pf32cb6f86d)" d="M 293.589714 294.88 
L 293.589714 24.84 
" style="fill:none;stroke:#b0b0b0;stroke-linecap:square;stroke-width:0.8;"/>
     </g>
     <g id="line2d_22">
      <g>
       <use style="stroke:#000000;stroke-width:0.6;" x="293.589714" xlink:href="#mdaaa008af4" y="294.88"/>
      </g>
     </g>
    </g>
    <g id="xtick_12">
     <g id="line2d_23">
      <path clip-path="url(#pf32cb6f86d)" d="M 333.168 294.88 
L 333.168 24.84 
" style="fill:none;stroke:#b0b0b0;stroke-linecap:square;stroke-width:0.8;"/>
     </g>
     <g id="line2d_24">
      <g>
       <use style="stroke:#000000;stroke-width:0.6;" x="333.168" xlink:href="#mdaaa008af4" y="294.88"/>
      </g>
     </g>
    </g>
    <g id="text_5">
     <!-- log10(# f-evals / dimension) -->
     <defs>
      <path d="M 9.421875 75.984375 
L 18.40625 75.984375 
L 18.40625 0 
L 9.421875 0 
z
" id="DejaVuSans-6c"/>
      <path d="M 30.609375 48.390625 
Q 23.390625 48.390625 19.1875 42.75 
Q 14.984375 37.109375 14.984375 27.296875 
Q 14.984375 17.484375 19.15625 11.84375 
Q 23.34375 6.203125 30.609375 6.203125 
Q 37.796875 6.203125 41.984375 11.859375 
Q 46.1875 17.53125 46.1875 27.296875 
Q 46.1875 37.015625 41.984375 42.703125 
Q 37.796875 48.390625 30.609375 48.390625 
z
M 30.609375 56 
Q 42.328125 56 49.015625 48.375 
Q 55.71875 40.765625 55.71875 27.296875 
Q 55.71875 13.875 49.015625 6.21875 
Q 42.328125 -1.421875 30.609375 -1.421875 
Q 18.84375 -1.421875 12.171875 6.21875 
Q 5.515625 13.875 5.515625 27.296875 
Q 5.515625 40.765625 12.171875 48.375 
Q 18.84375 56 30.609375 56 
z
" id="DejaVuSans-6f"/>
      <path d="M 45.40625 27.984375 
Q 45.40625 37.75 41.375 43.109375 
Q 37.359375 48.484375 30.078125 48.484375 
Q 22.859375 48.484375 18.828125 43.109375 
Q 14.796875 37.75 14.796875 27.984375 
Q 14.796875 18.265625 18.828125 12.890625 
Q 22.859375 7.515625 30.078125 7.515625 
Q 37.359375 7.515625 41.375 12.890625 
Q 45.40625 18.265625 45.40625 27.984375 
z
M 54.390625 6.78125 
Q 54.390625 -7.171875 48.1875 -13.984375 
Q 42 -20.796875 29.203125 -20.796875 
Q 24.46875 -20.796875 20.265625 -20.09375 
Q 16.0625 -19.390625 12.109375 -17.921875 
L 12.109375 -9.1875 
Q 16.0625 -11.328125 19.921875 -12.34375 
Q 23.78125 -13.375 27.78125 -13.375 
Q 36.625 -13.375 41.015625 -8.765625 
Q 45.40625 -4.15625 45.40625 5.171875 
L 45.40625 9.625 
Q 42.625 4.78125 38.28125 2.390625 
Q 33.9375 0 27.875 0 
Q 17.828125 0 11.671875 7.65625 
Q 5.515625 15.328125 5.515625 27.984375 
Q 5.515625 40.671875 11.671875 48.328125 
Q 17.828125 56 27.875 56 
Q 33.9375 56 38.28125 53.609375 
Q 42.625 51.21875 45.40625 46.390625 
L 45.40625 54.6875 
L 54.390625 54.6875 
z
" id="DejaVuSans-67"/>
      <path d="M 12.40625 8.296875 
L 28.515625 8.296875 
L 28.515625 63.921875 
L 10.984375 60.40625 
L 10.984375 69.390625 
L 28.421875 72.90625 
L 38.28125 72.90625 
L 38.28125 8.296875 
L 54.390625 8.296875 
L 54.390625 0 
L 12.40625 0 
z
" id="DejaVuSans-31"/>
      <path d="M 31 75.875 
Q 24.46875 64.65625 21.28125 53.65625 
Q 18.109375 42.671875 18.109375 31.390625 
Q 18.109375 20.125 21.3125 9.0625 
Q 24.515625 -2 31 -13.1875 
L 23.1875 -13.1875 
Q 15.875 -1.703125 12.234375 9.375 
Q 8.59375 20.453125 8.59375 31.390625 
Q 8.59375 42.28125 12.203125 53.3125 
Q 15.828125 64.359375 23.1875 75.875 
z
" id="DejaVuSans-28"/>
      <path d="M 51.125 44 
L 36.921875 44 
L 32.8125 27.6875 
L 47.125 27.6875 
z
M 43.796875 71.78125 
L 38.71875 51.515625 
L 52.984375 51.515625 
L 58.109375 71.78125 
L 65.921875 71.78125 
L 60.890625 51.515625 
L 76.125 51.515625 
L 76.125 44 
L 58.984375 44 
L 54.984375 27.6875 
L 70.515625 27.6875 
L 70.515625 20.21875 
L 53.078125 20.21875 
L 48 0 
L 40.1875 0 
L 45.21875 20.21875 
L 30.90625 20.21875 
L 25.875 0 
L 18.015625 0 
L 23.09375 20.21875 
L 7.71875 20.21875 
L 7.71875 27.6875 
L 24.90625 27.6875 
L 29 44 
L 13.28125 44 
L 13.28125 51.515625 
L 30.90625 51.515625 
L 35.890625 71.78125 
z
" id="DejaVuSans-23"/>
      <path id="DejaVuSans-20"/>
      <path d="M 37.109375 75.984375 
L 37.109375 68.5 
L 28.515625 68.5 
Q 23.6875 68.5 21.796875 66.546875 
Q 19.921875 64.59375 19.921875 59.515625 
L 19.921875 54.6875 
L 34.71875 54.6875 
L 34.71875 47.703125 
L 19.921875 47.703125 
L 19.921875 0 
L 10.890625 0 
L 10.890625 47.703125 
L 2.296875 47.703125 
L 2.296875 54.6875 
L 10.890625 54.6875 
L 10.890625 58.5 
Q 10.890625 67.625 15.140625 71.796875 
Q 19.390625 75.984375 28.609375 75.984375 
z
" id="DejaVuSans-66"/>
      <path d="M 4.890625 31.390625 
L 31.203125 31.390625 
L 31.203125 23.390625 
L 4.890625 23.390625 
z
" id="DejaVuSans-2d"/>
      <path d="M 56.203125 29.59375 
L 56.203125 25.203125 
L 14.890625 25.203125 
Q 15.484375 15.921875 20.484375 11.0625 
Q 25.484375 6.203125 34.421875 6.203125 
Q 39.59375 6.203125 44.453125 7.46875 
Q 49.3125 8.734375 54.109375 11.28125 
L 54.109375 2.78125 
Q 49.265625 0.734375 44.1875 -0.34375 
Q 39.109375 -1.421875 33.890625 -1.421875 
Q 20.796875 -1.421875 13.15625 6.1875 
Q 5.515625 13.8125 5.515625 26.8125 
Q 5.515625 40.234375 12.765625 48.109375 
Q 20.015625 56 32.328125 56 
Q 43.359375 56 49.78125 48.890625 
Q 56.203125 41.796875 56.203125 29.59375 
z
M 47.21875 32.234375 
Q 47.125 39.59375 43.09375 43.984375 
Q 39.0625 48.390625 32.421875 48.390625 
Q 24.90625 48.390625 20.390625 44.140625 
Q 15.875 39.890625 15.1875 32.171875 
z
" id="DejaVuSans-65"/>
      <path d="M 2.984375 54.6875 
L 12.5 54.6875 
L 29.59375 8.796875 
L 46.6875 54.6875 
L 56.203125 54.6875 
L 35.6875 0 
L 23.484375 0 
z
" id="DejaVuSans-76"/>
      <path d="M 34.28125 27.484375 
Q 23.390625 27.484375 19.1875 25 
Q 14.984375 22.515625 14.984375 16.5 
Q 14.984375 11.71875 18.140625 8.90625 
Q 21.296875 6.109375 26.703125 6.109375 
Q 34.1875 6.109375 38.703125 11.40625 
Q 43.21875 16.703125 43.21875 25.484375 
L 43.21875 27.484375 
z
M 52.203125 31.203125 
L 52.203125 0 
L 43.21875 0 
L 43.21875 8.296875 
Q 40.140625 3.328125 35.546875 0.953125 
Q 30.953125 -1.421875 24.3125 -1.421875 
Q 15.921875 -1.421875 10.953125 3.296875 
Q 6 8.015625 6 15.921875 
Q 6 25.140625 12.171875 29.828125 
Q 18.359375 34.515625 30.609375 34.515625 
L 43.21875 34.515625 
L 43.21875 35.40625 
Q 43.21875 41.609375 39.140625 45 
Q 35.0625 48.390625 27.6875 48.390625 
Q 23 48.390625 18.546875 47.265625 
Q 14.109375 46.140625 10.015625 43.890625 
L 10.015625 52.203125 
Q 14.9375 54.109375 19.578125 55.046875 
Q 24.21875 56 28.609375 56 
Q 40.484375 56 46.34375 49.84375 
Q 52.203125 43.703125 52.203125 31.203125 
z
" id="DejaVuSans-61"/>
      <path d="M 44.28125 53.078125 
L 44.28125 44.578125 
Q 40.484375 46.53125 36.375 47.5 
Q 32.28125 48.484375 27.875 48.484375 
Q 21.1875 48.484375 17.84375 46.4375 
Q 14.5 44.390625 14.5 40.28125 
Q 14.5 37.15625 16.890625 35.375 
Q 19.28125 33.59375 26.515625 31.984375 
L 29.59375 31.296875 
Q 39.15625 29.25 43.1875 25.515625 
Q 47.21875 21.78125 47.21875 15.09375 
Q 47.21875 7.46875 41.1875 3.015625 
Q 35.15625 -1.421875 24.609375 -1.421875 
Q 20.21875 -1.421875 15.453125 -0.5625 
Q 10.6875 0.296875 5.421875 2 
L 5.421875 11.28125 
Q 10.40625 8.6875 15.234375 7.390625 
Q 20.0625 6.109375 24.8125 6.109375 
Q 31.15625 6.109375 34.5625 8.28125 
Q 37.984375 10.453125 37.984375 14.40625 
Q 37.984375 18.0625 35.515625 20.015625 
Q 33.0625 21.96875 24.703125 23.78125 
L 21.578125 24.515625 
Q 13.234375 26.265625 9.515625 29.90625 
Q 5.8125 33.546875 5.8125 39.890625 
Q 5.8125 47.609375 11.28125 51.796875 
Q 16.75 56 26.8125 56 
Q 31.78125 56 36.171875 55.265625 
Q 40.578125 54.546875 44.28125 53.078125 
z
" id="DejaVuSans-73"/>
      <path d="M 25.390625 72.90625 
L 33.6875 72.90625 
L 8.296875 -9.28125 
L 0 -9.28125 
z
" id="DejaVuSans-2f"/>
      <path d="M 45.40625 46.390625 
L 45.40625 75.984375 
L 54.390625 75.984375 
L 54.390625 0 
L 45.40625 0 
L 45.40625 8.203125 
Q 42.578125 3.328125 38.25 0.953125 
Q 33.9375 -1.421875 27.875 -1.421875 
Q 17.96875 -1.421875 11.734375 6.484375 
Q 5.515625 14.40625 5.515625 27.296875 
Q 5.515625 40.1875 11.734375 48.09375 
Q 17.96875 56 27.875 56 
Q 33.9375 56 38.25 53.625 
Q 42.578125 51.265625 45.40625 46.390625 
z
M 14.796875 27.296875 
Q 14.796875 17.390625 18.875 11.75 
Q 22.953125 6.109375 30.078125 6.109375 
Q 37.203125 6.109375 41.296875 11.75 
Q 45.40625 17.390625 45.40625 27.296875 
Q 45.40625 37.203125 41.296875 42.84375 
Q 37.203125 48.484375 30.078125 48.484375 
Q 22.953125 48.484375 18.875 42.84375 
Q 14.796875 37.203125 14.796875 27.296875 
z
" id="DejaVuSans-64"/>
      <path d="M 9.421875 54.6875 
L 18.40625 54.6875 
L 18.40625 0 
L 9.421875 0 
z
M 9.421875 75.984375 
L 18.40625 75.984375 
L 18.40625 64.59375 
L 9.421875 64.59375 
z
" id="DejaVuSans-69"/>
      <path d="M 52 44.1875 
Q 55.375 50.25 60.0625 53.125 
Q 64.75 56 71.09375 56 
Q 79.640625 56 84.28125 50.015625 
Q 88.921875 44.046875 88.921875 33.015625 
L 88.921875 0 
L 79.890625 0 
L 79.890625 32.71875 
Q 79.890625 40.578125 77.09375 44.375 
Q 74.3125 48.1875 68.609375 48.1875 
Q 61.625 48.1875 57.5625 43.546875 
Q 53.515625 38.921875 53.515625 30.90625 
L 53.515625 0 
L 44.484375 0 
L 44.484375 32.71875 
Q 44.484375 40.625 41.703125 44.40625 
Q 38.921875 48.1875 33.109375 48.1875 
Q 26.21875 48.1875 22.15625 43.53125 
Q 18.109375 38.875 18.109375 30.90625 
L 18.109375 0 
L 9.078125 0 
L 9.078125 54.6875 
L 18.109375 54.6875 
L 18.109375 46.1875 
Q 21.1875 51.21875 25.484375 53.609375 
Q 29.78125 56 35.6875 56 
Q 41.65625 56 45.828125 52.96875 
Q 50 49.953125 52 44.1875 
z
" id="DejaVuSans-6d"/>
      <path d="M 54.890625 33.015625 
L 54.890625 0 
L 45.90625 0 
L 45.90625 32.71875 
Q 45.90625 40.484375 42.875 44.328125 
Q 39.84375 48.1875 33.796875 48.1875 
Q 26.515625 48.1875 22.3125 43.546875 
Q 18.109375 38.921875 18.109375 30.90625 
L 18.109375 0 
L 9.078125 0 
L 9.078125 54.6875 
L 18.109375 54.6875 
L 18.109375 46.1875 
Q 21.34375 51.125 25.703125 53.5625 
Q 30.078125 56 35.796875 56 
Q 45.21875 56 50.046875 50.171875 
Q 54.890625 44.34375 54.890625 33.015625 
z
" id="DejaVuSans-6e"/>
      <path d="M 8.015625 75.875 
L 15.828125 75.875 
Q 23.140625 64.359375 26.78125 53.3125 
Q 30.421875 42.28125 30.421875 31.390625 
Q 30.421875 20.453125 26.78125 9.375 
Q 23.140625 -1.703125 15.828125 -13.1875 
L 8.015625 -13.1875 
Q 14.5 -2 17.703125 9.0625 
Q 20.90625 20.125 20.90625 31.390625 
Q 20.90625 42.671875 17.703125 53.65625 
Q 14.5 64.65625 8.015625 75.875 
z
" id="DejaVuSans-29"/>
     </defs>
     <g transform="translate(73.803219 338.153594)scale(0.17 -0.17)">
      <use xlink:href="#DejaVuSans-6c"/>
      <use x="27.783203" xlink:href="#DejaVuSans-6f"/>
      <use x="88.964844" xlink:href="#DejaVuSans-67"/>
      <use x="152.441406" xlink:href="#DejaVuSans-31"/>
      <use x="216.064453" xlink:href="#DejaVuSans-30"/>
      <use x="279.6875" xlink:href="#DejaVuSans-28"/>
      <use x="318.701172" xlink:href="#DejaVuSans-23"/>
      <use x="402.490234" xlink:href="#DejaVuSans-20"/>
      <use x="434.277344" xlink:href="#DejaVuSans-66"/>
      <use x="469.404297" xlink:href="#DejaVuSans-2d"/>
      <use x="505.488281" xlink:href="#DejaVuSans-65"/>
      <use x="567.011719" xlink:href="#DejaVuSans-76"/>
      <use x="626.191406" xlink:href="#DejaVuSans-61"/>
      <use x="687.470703" xlink:href="#DejaVuSans-6c"/>
      <use x="715.253906" xlink:href="#DejaVuSans-73"/>
      <use x="767.353516" xlink:href="#DejaVuSans-20"/>
      <use x="799.140625" xlink:href="#DejaVuSans-2f"/>
      <use x="832.832031" xlink:href="#DejaVuSans-20"/>
      <use x="864.619141" xlink:href="#DejaVuSans-64"/>
      <use x="928.095703" xlink:href="#DejaVuSans-69"/>
      <use x="955.878906" xlink:href="#DejaVuSans-6d"/>
      <use x="1053.291016" xlink:href="#DejaVuSans-65"/>
      <use x="1114.814453" xlink:href="#DejaVuSans-6e"/>
      <use x="1178.193359" xlink:href="#DejaVuSans-73"/>
      <use x="1230.292969" xlink:href="#DejaVuSans-69"/>
      <use x="1258.076172" xlink:href="#DejaVuSans-6f"/>
      <use x="1319.257812" xlink:href="#DejaVuSans-6e"/>
      <use x="1382.636719" xlink:href="#DejaVuSans-29"/>
     </g>
    </g>
   </g>
   <g id="matplotlib.axis_2">
    <g id="ytick_1">
     <g id="line2d_25">
      <path clip-path="url(#pf32cb6f86d)" d="M 56.12 294.88 
L 333.168 294.88 
" style="fill:none;stroke:#b0b0b0;stroke-linecap:square;stroke-width:0.8;"/>
     </g>
     <g id="line2d_26">
      <defs>
       <path d="M 0 0 
L -3.5 0 
" id="m4ee332f832" style="stroke:#000000;stroke-width:0.8;"/>
      </defs>
      <g>
       <use style="stroke:#000000;stroke-width:0.8;" x="56.12" xlink:href="#m4ee332f832" y="294.88"/>
      </g>
     </g>
     <g id="text_6">
      <!-- 0.0 -->
      <defs>
       <path d="M 10.6875 12.40625 
L 21 12.40625 
L 21 0 
L 10.6875 0 
z
" id="DejaVuSans-2e"/>
      </defs>
      <g transform="translate(23.675 300.95875)scale(0.16 -0.16)">
       <use xlink:href="#DejaVuSans-30"/>
       <use x="63.623047" xlink:href="#DejaVuSans-2e"/>
       <use x="95.410156" xlink:href="#DejaVuSans-30"/>
      </g>
     </g>
    </g>
    <g id="ytick_2">
     <g id="line2d_27">
      <path clip-path="url(#pf32cb6f86d)" d="M 56.12 241.406733 
L 333.168 241.406733 
" style="fill:none;stroke:#b0b0b0;stroke-linecap:square;stroke-width:0.8;"/>
     </g>
     <g id="line2d_28">
      <g>
       <use style="stroke:#000000;stroke-width:0.8;" x="56.12" xlink:href="#m4ee332f832" y="241.406733"/>
      </g>
     </g>
     <g id="text_7">
      <!-- 0.2 -->
      <g transform="translate(23.675 247.485483)scale(0.16 -0.16)">
       <use xlink:href="#DejaVuSans-30"/>
       <use x="63.623047" xlink:href="#DejaVuSans-2e"/>
       <use x="95.410156" xlink:href="#DejaVuSans-32"/>
      </g>
     </g>
    </g>
    <g id="ytick_3">
     <g id="line2d_29">
      <path clip-path="url(#pf32cb6f86d)" d="M 56.12 187.933465 
L 333.168 187.933465 
" style="fill:none;stroke:#b0b0b0;stroke-linecap:square;stroke-width:0.8;"/>
     </g>
     <g id="line2d_30">
      <g>
       <use style="stroke:#000000;stroke-width:0.8;" x="56.12" xlink:href="#m4ee332f832" y="187.933465"/>
      </g>
     </g>
     <g id="text_8">
      <!-- 0.4 -->
      <g transform="translate(23.675 194.012215)scale(0.16 -0.16)">
       <use xlink:href="#DejaVuSans-30"/>
       <use x="63.623047" xlink:href="#DejaVuSans-2e"/>
       <use x="95.410156" xlink:href="#DejaVuSans-34"/>
      </g>
     </g>
    </g>
    <g id="ytick_4">
     <g id="line2d_31">
      <path clip-path="url(#pf32cb6f86d)" d="M 56.12 134.460198 
L 333.168 134.460198 
" style="fill:none;stroke:#b0b0b0;stroke-linecap:square;stroke-width:0.8;"/>
     </g>
     <g id="line2d_32">
      <g>
       <use style="stroke:#000000;stroke-width:0.8;" x="56.12" xlink:href="#m4ee332f832" y="134.460198"/>
      </g>
     </g>
     <g id="text_9">
      <!-- 0.6 -->
      <g transform="translate(23.675 140.538948)scale(0.16 -0.16)">
       <use xlink:href="#DejaVuSans-30"/>
       <use x="63.623047" xlink:href="#DejaVuSans-2e"/>
       <use x="95.410156" xlink:href="#DejaVuSans-36"/>
      </g>
     </g>
    </g>
    <g id="ytick_5">
     <g id="line2d_33">
      <path clip-path="url(#pf32cb6f86d)" d="M 56.12 80.986931 
L 333.168 80.986931 
" style="fill:none;stroke:#b0b0b0;stroke-linecap:square;stroke-width:0.8;"/>
     </g>
     <g id="line2d_34">
      <g>
       <use style="stroke:#000000;stroke-width:0.8;" x="56.12" xlink:href="#m4ee332f832" y="80.986931"/>
      </g>
     </g>
     <g id="text_10">
      <!-- 0.8 -->
      <defs>
       <path d="M 31.78125 34.625 
Q 24.75 34.625 20.71875 30.859375 
Q 16.703125 27.09375 16.703125 20.515625 
Q 16.703125 13.921875 20.71875 10.15625 
Q 24.75 6.390625 31.78125 6.390625 
Q 38.8125 6.390625 42.859375 10.171875 
Q 46.921875 13.96875 46.921875 20.515625 
Q 46.921875 27.09375 42.890625 30.859375 
Q 38.875 34.625 31.78125 34.625 
z
M 21.921875 38.8125 
Q 15.578125 40.375 12.03125 44.71875 
Q 8.5 49.078125 8.5 55.328125 
Q 8.5 64.0625 14.71875 69.140625 
Q 20.953125 74.21875 31.78125 74.21875 
Q 42.671875 74.21875 48.875 69.140625 
Q 55.078125 64.0625 55.078125 55.328125 
Q 55.078125 49.078125 51.53125 44.71875 
Q 48 40.375 41.703125 38.8125 
Q 48.828125 37.15625 52.796875 32.3125 
Q 56.78125 27.484375 56.78125 20.515625 
Q 56.78125 9.90625 50.3125 4.234375 
Q 43.84375 -1.421875 31.78125 -1.421875 
Q 19.734375 -1.421875 13.25 4.234375 
Q 6.78125 9.90625 6.78125 20.515625 
Q 6.78125 27.484375 10.78125 32.3125 
Q 14.796875 37.15625 21.921875 38.8125 
z
M 18.3125 54.390625 
Q 18.3125 48.734375 21.84375 45.5625 
Q 25.390625 42.390625 31.78125 42.390625 
Q 38.140625 42.390625 41.71875 45.5625 
Q 45.3125 48.734375 45.3125 54.390625 
Q 45.3125 60.0625 41.71875 63.234375 
Q 38.140625 66.40625 31.78125 66.40625 
Q 25.390625 66.40625 21.84375 63.234375 
Q 18.3125 60.0625 18.3125 54.390625 
z
" id="DejaVuSans-38"/>
      </defs>
      <g transform="translate(23.675 87.065681)scale(0.16 -0.16)">
       <use xlink:href="#DejaVuSans-30"/>
       <use x="63.623047" xlink:href="#DejaVuSans-2e"/>
       <use x="95.410156" xlink:href="#DejaVuSans-38"/>
      </g>
     </g>
    </g>
    <g id="ytick_6">
     <g id="line2d_35">
      <path clip-path="url(#pf32cb6f86d)" d="M 56.12 27.513663 
L 333.168 27.513663 
" style="fill:none;stroke:#b0b0b0;stroke-linecap:square;stroke-width:0.8;"/>
     </g>
     <g id="line2d_36">
      <g>
       <use style="stroke:#000000;stroke-width:0.8;" x="56.12" xlink:href="#m4ee332f832" y="27.513663"/>
      </g>
     </g>
     <g id="text_11">
      <!-- 1.0 -->
      <g transform="translate(23.675 33.592413)scale(0.16 -0.16)">
       <use xlink:href="#DejaVuSans-31"/>
       <use x="63.623047" xlink:href="#DejaVuSans-2e"/>
       <use x="95.410156" xlink:href="#DejaVuSans-30"/>
      </g>
     </g>
    </g>
    <g id="text_12">
     <!-- Fraction of function,target pairs -->
     <defs>
      <path d="M 9.8125 72.90625 
L 51.703125 72.90625 
L 51.703125 64.59375 
L 19.671875 64.59375 
L 19.671875 43.109375 
L 48.578125 43.109375 
L 48.578125 34.8125 
L 19.671875 34.8125 
L 19.671875 0 
L 9.8125 0 
z
" id="DejaVuSans-46"/>
      <path d="M 41.109375 46.296875 
Q 39.59375 47.171875 37.8125 47.578125 
Q 36.03125 48 33.890625 48 
Q 26.265625 48 22.1875 43.046875 
Q 18.109375 38.09375 18.109375 28.8125 
L 18.109375 0 
L 9.078125 0 
L 9.078125 54.6875 
L 18.109375 54.6875 
L 18.109375 46.1875 
Q 20.953125 51.171875 25.484375 53.578125 
Q 30.03125 56 36.53125 56 
Q 37.453125 56 38.578125 55.875 
Q 39.703125 55.765625 41.0625 55.515625 
z
" id="DejaVuSans-72"/>
      <path d="M 48.78125 52.59375 
L 48.78125 44.1875 
Q 44.96875 46.296875 41.140625 47.34375 
Q 37.3125 48.390625 33.40625 48.390625 
Q 24.65625 48.390625 19.8125 42.84375 
Q 14.984375 37.3125 14.984375 27.296875 
Q 14.984375 17.28125 19.8125 11.734375 
Q 24.65625 6.203125 33.40625 6.203125 
Q 37.3125 6.203125 41.140625 7.25 
Q 44.96875 8.296875 48.78125 10.40625 
L 48.78125 2.09375 
Q 45.015625 0.34375 40.984375 -0.53125 
Q 36.96875 -1.421875 32.421875 -1.421875 
Q 20.0625 -1.421875 12.78125 6.34375 
Q 5.515625 14.109375 5.515625 27.296875 
Q 5.515625 40.671875 12.859375 48.328125 
Q 20.21875 56 33.015625 56 
Q 37.15625 56 41.109375 55.140625 
Q 45.0625 54.296875 48.78125 52.59375 
z
" id="DejaVuSans-63"/>
      <path d="M 18.3125 70.21875 
L 18.3125 54.6875 
L 36.8125 54.6875 
L 36.8125 47.703125 
L 18.3125 47.703125 
L 18.3125 18.015625 
Q 18.3125 11.328125 20.140625 9.421875 
Q 21.96875 7.515625 27.59375 7.515625 
L 36.8125 7.515625 
L 36.8125 0 
L 27.59375 0 
Q 17.1875 0 13.234375 3.875 
Q 9.28125 7.765625 9.28125 18.015625 
L 9.28125 47.703125 
L 2.6875 47.703125 
L 2.6875 54.6875 
L 9.28125 54.6875 
L 9.28125 70.21875 
z
" id="DejaVuSans-74"/>
      <path d="M 8.5 21.578125 
L 8.5 54.6875 
L 17.484375 54.6875 
L 17.484375 21.921875 
Q 17.484375 14.15625 20.5 10.265625 
Q 23.53125 6.390625 29.59375 6.390625 
Q 36.859375 6.390625 41.078125 11.03125 
Q 45.3125 15.671875 45.3125 23.6875 
L 45.3125 54.6875 
L 54.296875 54.6875 
L 54.296875 0 
L 45.3125 0 
L 45.3125 8.40625 
Q 42.046875 3.421875 37.71875 1 
Q 33.40625 -1.421875 27.6875 -1.421875 
Q 18.265625 -1.421875 13.375 4.4375 
Q 8.5 10.296875 8.5 21.578125 
z
M 31.109375 56 
z
" id="DejaVuSans-75"/>
      <path d="M 11.71875 12.40625 
L 22.015625 12.40625 
L 22.015625 4 
L 14.015625 -11.625 
L 7.71875 -11.625 
L 11.71875 4 
z
" id="DejaVuSans-2c"/>
      <path d="M 18.109375 8.203125 
L 18.109375 -20.796875 
L 9.078125 -20.796875 
L 9.078125 54.6875 
L 18.109375 54.6875 
L 18.109375 46.390625 
Q 20.953125 51.265625 25.265625 53.625 
Q 29.59375 56 35.59375 56 
Q 45.5625 56 51.78125 48.09375 
Q 58.015625 40.1875 58.015625 27.296875 
Q 58.015625 14.40625 51.78125 6.484375 
Q 45.5625 -1.421875 35.59375 -1.421875 
Q 29.59375 -1.421875 25.265625 0.953125 
Q 20.953125 3.328125 18.109375 8.203125 
z
M 48.6875 27.296875 
Q 48.6875 37.203125 44.609375 42.84375 
Q 40.53125 48.484375 33.40625 48.484375 
Q 26.265625 48.484375 22.1875 42.84375 
Q 18.109375 37.203125 18.109375 27.296875 
Q 18.109375 17.390625 22.1875 11.75 
Q 26.265625 6.109375 33.40625 6.109375 
Q 40.53125 6.109375 44.609375 11.75 
Q 48.6875 17.390625 48.6875 27.296875 
z
" id="DejaVuSans-70"/>
     </defs>
     <g transform="translate(16.139531 294.999375)rotate(-90)scale(0.17 -0.17)">
      <use xlink:href="#DejaVuSans-46"/>
      <use x="57.410156" xlink:href="#DejaVuSans-72"/>
      <use x="98.523438" xlink:href="#DejaVuSans-61"/>
      <use x="159.802734" xlink:href="#DejaVuSans-63"/>
      <use x="214.783203" xlink:href="#DejaVuSans-74"/>
      <use x="253.992188" xlink:href="#DejaVuSans-69"/>
      <use x="281.775391" xlink:href="#DejaVuSans-6f"/>
      <use x="342.957031" xlink:href="#DejaVuSans-6e"/>
      <use x="406.335938" xlink:href="#DejaVuSans-20"/>
      <use x="438.123047" xlink:href="#DejaVuSans-6f"/>
      <use x="499.304688" xlink:href="#DejaVuSans-66"/>
      <use x="534.509766" xlink:href="#DejaVuSans-20"/>
      <use x="566.296875" xlink:href="#DejaVuSans-66"/>
      <use x="601.501953" xlink:href="#DejaVuSans-75"/>
      <use x="664.880859" xlink:href="#DejaVuSans-6e"/>
      <use x="728.259766" xlink:href="#DejaVuSans-63"/>
      <use x="783.240234" xlink:href="#DejaVuSans-74"/>
      <use x="822.449219" xlink:href="#DejaVuSans-69"/>
      <use x="850.232422" xlink:href="#DejaVuSans-6f"/>
      <use x="911.414062" xlink:href="#DejaVuSans-6e"/>
      <use x="974.792969" xlink:href="#DejaVuSans-2c"/>
      <use x="1006.580078" xlink:href="#DejaVuSans-74"/>
      <use x="1045.789062" xlink:href="#DejaVuSans-61"/>
      <use x="1107.068359" xlink:href="#DejaVuSans-72"/>
      <use x="1148.166016" xlink:href="#DejaVuSans-67"/>
      <use x="1211.642578" xlink:href="#DejaVuSans-65"/>
      <use x="1273.166016" xlink:href="#DejaVuSans-74"/>
      <use x="1312.375" xlink:href="#DejaVuSans-20"/>
      <use x="1344.162109" xlink:href="#DejaVuSans-70"/>
      <use x="1407.638672" xlink:href="#DejaVuSans-61"/>
      <use x="1468.917969" xlink:href="#DejaVuSans-69"/>
      <use x="1496.701172" xlink:href="#DejaVuSans-72"/>
      <use x="1537.814453" xlink:href="#DejaVuSans-73"/>
     </g>
    </g>
   </g>
   <g id="line2d_37">
    <defs>
     <path d="M 0 1.5 
C 0.397805 1.5 0.77937 1.341951 1.06066 1.06066 
C 1.341951 0.77937 1.5 0.397805 1.5 0 
C 1.5 -0.397805 1.341951 -0.77937 1.06066 -1.06066 
C 0.77937 -1.341951 0.397805 -1.5 0 -1.5 
C -0.397805 -1.5 -0.77937 -1.341951 -1.06066 -1.06066 
C -1.341951 -0.77937 -1.5 -0.397805 -1.5 0 
C -1.5 0.397805 -1.341951 0.77937 -1.06066 1.06066 
C -0.77937 1.341951 -0.397805 1.5 0 1.5 
z
" id="mbf25858d79" style="stroke:#00bfbf;"/>
    </defs>
    <g>
     <use style="fill:#00bfbf;stroke:#00bfbf;" x="258.525738" xlink:href="#mbf25858d79" y="27.513663"/>
     <use style="fill:#00bfbf;stroke:#00bfbf;" x="258.525738" xlink:href="#mbf25858d79" y="27.513663"/>
    </g>
   </g>
   <g id="line2d_38">
    <path d="M 44.205749 294.88 
L 44.205749 271.8131 
L 56.12 271.8131 
L 56.12 263.425137 
L 63.08939 263.425137 
L 63.08939 260.803898 
L 68.034251 260.803898 
L 68.034251 260.279651 
L 71.869783 260.279651 
L 71.869783 258.18266 
L 75.003641 258.18266 
L 75.003641 257.134164 
L 79.948502 257.134164 
L 79.948502 256.609917 
L 83.784035 256.609917 
L 83.784035 254.512926 
L 88.293717 254.512926 
L 88.293717 248.746201 
L 89.567532 248.746201 
L 89.567532 248.221953 
L 90.753425 248.221953 
L 90.753425 245.076467 
L 91.862754 245.076467 
L 91.862754 242.979476 
L 92.904808 242.979476 
L 92.904808 242.455228 
L 95.698286 242.455228 
L 95.698286 241.93098 
L 98.832144 241.93098 
L 98.832144 238.785494 
L 99.533818 238.785494 
L 99.533818 231.446026 
L 100.856673 231.446026 
L 100.856673 227.776292 
L 104.819059 227.776292 
L 104.819059 227.252044 
L 105.317315 227.252044 
L 105.317315 224.630806 
L 105.801534 224.630806 
L 105.801534 223.58231 
L 111.100812 223.58231 
L 111.100812 223.058063 
L 113.086321 223.058063 
L 113.086321 221.485319 
L 113.700266 221.485319 
L 113.700266 220.961072 
L 114.581927 220.961072 
L 114.581927 217.815585 
L 115.420563 217.815585 
L 115.420563 217.291338 
L 117.475381 217.291338 
L 117.475381 212.573108 
L 119.526788 212.573108 
L 119.526788 211.000365 
L 126.352339 211.000365 
L 126.352339 209.427622 
L 136.914823 209.427622 
L 136.914823 208.903374 
L 137.975251 208.903374 
L 137.975251 203.660897 
L 138.266591 203.660897 
L 138.266591 201.563906 
L 140.434959 201.563906 
L 140.434959 201.039658 
L 141.243253 201.039658 
L 141.243253 197.894172 
L 146.309161 197.894172 
L 146.309161 190.030456 
L 147.988485 190.030456 
L 147.988485 189.506209 
L 148.151798 189.506209 
L 148.151798 188.981961 
L 148.984628 188.981961 
L 148.984628 184.263731 
L 150.108469 184.263731 
L 150.108469 183.215236 
L 150.714141 183.215236 
L 150.714141 181.118245 
L 153.127109 181.118245 
L 153.127109 176.400016 
L 155.615187 176.400016 
L 155.615187 175.35152 
L 156.260967 175.35152 
L 156.260967 172.206034 
L 159.276106 172.206034 
L 159.382144 170.633291 
L 161.432494 170.633291 
L 161.432494 169.060547 
L 163.026335 169.060547 
L 163.026335 165.390813 
L 164.006909 165.390813 
L 164.006909 164.342318 
L 167.103032 164.342318 
L 167.210629 159.624089 
L 168.137148 159.624089 
L 168.238481 153.857364 
L 168.99211 153.857364 
L 168.99211 152.28462 
L 169.690883 152.28462 
L 169.690883 148.614886 
L 170.01282 148.614886 
L 170.01282 147.566391 
L 170.94396 147.566391 
L 170.94396 140.751171 
L 172.01075 140.751171 
L 172.01075 140.226923 
L 172.716074 140.226923 
L 172.716074 139.702675 
L 173.468286 139.702675 
L 173.468286 134.984446 
L 173.891582 134.984446 
L 173.891582 134.460198 
L 176.609906 134.460198 
L 176.609906 128.693473 
L 177.502041 128.693473 
L 177.502041 127.644978 
L 177.938508 127.644978 
L 177.938508 127.12073 
L 178.406159 127.12073 
L 178.406159 125.547987 
L 178.800046 125.547987 
L 178.800046 123.975244 
L 179.06444 123.975244 
L 179.06444 122.926748 
L 182.371217 122.926748 
L 182.371217 119.781262 
L 183.173607 119.781262 
L 183.173607 116.111528 
L 183.389422 116.111528 
L 183.389422 114.014537 
L 184.281281 114.014537 
L 184.281281 112.441794 
L 184.537612 112.441794 
L 184.537612 111.917546 
L 184.770879 111.917546 
L 184.770879 108.247812 
L 184.910293 108.247812 
L 184.934216 101.956839 
L 185.242221 101.956839 
L 185.242221 100.384096 
L 185.792194 100.384096 
L 185.873871 98.287105 
L 186.320703 98.287105 
L 186.39113 96.714362 
L 186.739002 96.714362 
L 186.739002 93.568876 
L 188.877466 93.568876 
L 188.877466 92.520381 
L 190.299427 92.520381 
L 190.323905 90.42339 
L 191.48252 90.42339 
L 191.48252 88.850646 
L 192.095376 88.850646 
L 192.095376 86.753656 
L 192.583272 86.753656 
L 192.583272 83.083922 
L 193.117208 83.083922 
L 193.117208 82.035426 
L 194.53069 82.035426 
L 194.588045 78.365692 
L 195.676229 78.365692 
L 195.676229 76.792949 
L 196.336494 76.792949 
L 196.336494 74.695958 
L 197.676854 74.695958 
L 197.676854 72.598967 
L 200.333327 72.598967 
L 200.333327 67.880738 
L 201.714856 67.880738 
L 201.714856 65.783747 
L 205.208754 65.783747 
L 205.208754 64.735251 
L 207.480074 64.735251 
L 207.480074 62.114013 
L 209.511185 62.114013 
L 209.511185 60.017022 
L 210.111673 60.017022 
L 210.111673 59.492774 
L 210.284303 59.492774 
L 210.284303 58.968526 
L 212.280728 58.968526 
L 212.280728 57.920031 
L 213.026997 57.920031 
L 213.026997 54.774545 
L 213.467141 54.774545 
L 213.467141 52.153306 
L 215.910477 52.153306 
L 215.910477 50.580563 
L 217.166312 50.580563 
L 217.166312 50.056315 
L 217.706094 50.056315 
L 217.706094 49.00782 
L 218.713219 49.00782 
L 218.713219 48.483572 
L 220.060623 48.483572 
L 220.060623 46.386581 
L 220.824553 46.386581 
L 220.824553 45.338086 
L 221.255805 45.338086 
L 221.255805 44.813838 
L 222.455908 44.813838 
L 222.455908 43.765343 
L 225.016166 43.765343 
L 225.016166 43.241095 
L 225.960189 43.241095 
L 225.960189 42.192599 
L 229.909177 42.192599 
L 229.909177 40.619856 
L 231.426019 40.619856 
L 231.426019 40.095609 
L 231.953178 40.095609 
L 231.953178 39.571361 
L 233.118259 39.571361 
L 233.118259 37.998618 
L 234.830882 37.998618 
L 234.830882 37.47437 
L 235.506294 37.47437 
L 235.506294 36.425875 
L 237.88191 36.425875 
L 237.88191 34.853131 
L 239.968709 34.853131 
L 239.968709 34.328884 
L 240.212296 34.328884 
L 240.212296 33.280388 
L 241.829366 33.280388 
L 241.829366 32.756141 
L 242.04812 32.756141 
L 242.04812 32.231893 
L 243.508137 32.231893 
L 243.508137 31.183397 
L 243.706653 31.183397 
L 243.706653 30.65915 
L 246.60924 30.65915 
L 246.60924 30.134902 
L 248.946863 30.134902 
L 248.946863 29.610654 
L 249.091759 29.610654 
L 249.091759 29.086407 
L 256.4904 29.086407 
L 256.4904 28.562159 
L 257.225955 28.562159 
L 257.225955 28.037911 
L 258.525738 28.037911 
L 258.525738 27.513663 
L 333.168 27.513663 
L 333.168 27.513663 
" style="fill:none;stroke:#00bfbf;stroke-linecap:square;stroke-width:1.5;"/>
   </g>
   <g id="line2d_39">
    <defs>
     <path d="M -6 0 
L 6 0 
M 0 6 
L 0 -6 
" id="md9f511027a" style="stroke:#00bfbf;stroke-width:1.5;"/>
    </defs>
    <g>
     <use style="fill-opacity:0;stroke:#00bfbf;stroke-width:1.5;" x="115.420563" xlink:href="#md9f511027a" y="217.815585"/>
     <use style="fill-opacity:0;stroke:#00bfbf;stroke-width:1.5;" x="173.891582" xlink:href="#md9f511027a" y="134.460198"/>
     <use style="fill-opacity:0;stroke:#00bfbf;stroke-width:1.5;" x="212.280728" xlink:href="#md9f511027a" y="58.968526"/>
     <use style="fill-opacity:0;stroke:#00bfbf;stroke-width:1.5;" x="258.525738" xlink:href="#md9f511027a" y="28.037911"/>
     <use style="fill-opacity:0;stroke:#00bfbf;stroke-width:1.5;" x="258.525738" xlink:href="#md9f511027a" y="27.513663"/>
     <use style="fill-opacity:0;stroke:#00bfbf;stroke-width:1.5;" x="333.168" xlink:href="#md9f511027a" y="27.513663"/>
    </g>
   </g>
   <g id="line2d_40">
    <path style="fill:none;stroke:#00bfbf;stroke-linecap:square;stroke-width:1.5;"/>
    <g/>
   </g>
   <g id="line2d_41">
    <path clip-path="url(#pf32cb6f86d)" d="M 202.691626 65.783747 
" style="fill:none;stroke:#00bfbf;stroke-linecap:square;stroke-width:1.5;"/>
    <defs>
     <path d="M -12 12 
L 12 -12 
M -12 -12 
L 12 12 
" id="m9dbc016292" style="stroke:#00bfbf;"/>
    </defs>
    <g clip-path="url(#pf32cb6f86d)">
     <use style="fill:#00bfbf;stroke:#00bfbf;" x="202.691626" xlink:href="#m9dbc016292" y="65.783747"/>
    </g>
   </g>
   <g id="line2d_42">
    <defs>
     <path d="M 0 1.5 
C 0.397805 1.5 0.77937 1.341951 1.06066 1.06066 
C 1.341951 0.77937 1.5 0.397805 1.5 0 
C 1.5 -0.397805 1.341951 -0.77937 1.06066 -1.06066 
C 0.77937 -1.341951 0.397805 -1.5 0 -1.5 
C -0.397805 -1.5 -0.77937 -1.341951 -1.06066 -1.06066 
C -1.341951 -0.77937 -1.5 -0.397805 -1.5 0 
C -1.5 0.397805 -1.341951 0.77937 -1.06066 1.06066 
C -0.77937 1.341951 -0.397805 1.5 0 1.5 
z
" id="m851cd962d4" style="stroke:#008000;"/>
    </defs>
    <g>
     <use style="fill:#008000;stroke:#008000;" x="271.192627" xlink:href="#m851cd962d4" y="27.513663"/>
     <use style="fill:#008000;stroke:#008000;" x="271.192627" xlink:href="#m851cd962d4" y="27.513663"/>
    </g>
   </g>
   <g id="line2d_43">
    <path d="M 37.236359 294.88 
L 37.236359 286.492036 
L 49.15061 286.492036 
L 49.15061 284.395046 
L 56.12 284.395046 
L 56.12 282.298055 
L 61.064861 282.298055 
L 61.064861 276.53133 
L 68.034251 276.53133 
L 68.034251 274.958587 
L 70.68389 274.958587 
L 70.68389 271.8131 
L 76.814644 271.8131 
L 76.814644 270.764605 
L 79.948502 270.764605 
L 79.948502 269.716109 
L 82.598142 269.716109 
L 82.598142 268.667614 
L 83.784035 268.667614 
L 83.784035 266.046375 
L 85.935418 266.046375 
L 85.935418 265.522128 
L 86.917893 265.522128 
L 86.917893 264.99788 
L 87.847234 264.99788 
L 87.847234 263.949385 
L 90.367147 263.949385 
L 90.367147 262.900889 
L 91.131212 262.900889 
L 91.131212 259.755403 
L 91.862754 259.755403 
L 91.862754 258.706907 
L 96.261898 258.706907 
L 96.261898 256.609917 
L 98.347925 256.609917 
L 98.347925 256.085669 
L 100.207968 256.085669 
L 100.207968 254.512926 
L 107.323646 254.512926 
L 107.323646 253.46443 
L 110.262176 253.46443 
L 110.262176 250.843192 
L 110.746395 250.843192 
L 110.746395 249.270448 
L 115.329377 249.270448 
L 115.329377 248.746201 
L 117.874207 248.746201 
L 117.874207 246.64921 
L 129.867125 246.64921 
L 129.867125 246.124962 
L 130.178239 246.124962 
L 130.178239 241.406733 
L 133.905521 241.406733 
L 133.905521 240.358237 
L 135.840184 240.358237 
L 135.840184 238.785494 
L 136.705203 238.785494 
L 136.705203 238.261246 
L 137.275617 238.261246 
L 137.275617 236.688503 
L 141.66324 236.688503 
L 141.66324 236.164255 
L 142.735485 236.164255 
L 142.735485 234.067265 
L 147.754435 234.067265 
L 147.754435 233.543017 
L 147.974805 233.543017 
L 147.974805 230.921778 
L 148.513678 230.921778 
L 148.513678 230.397531 
L 149.518243 230.397531 
L 149.593139 220.436824 
L 149.692496 220.436824 
L 149.692496 219.912576 
L 155.125703 219.912576 
L 155.125703 216.242842 
L 157.888459 216.242842 
L 157.888459 214.670099 
L 159.682542 214.670099 
L 159.682542 213.621604 
L 159.930063 213.621604 
L 159.930063 213.097356 
L 160.093118 213.097356 
L 160.093118 209.427622 
L 160.730299 209.427622 
L 160.730299 208.379126 
L 161.091363 208.379126 
L 161.091363 205.757888 
L 161.35727 205.757888 
L 161.35727 205.23364 
L 162.605038 205.23364 
L 162.605038 203.660897 
L 165.152548 203.660897 
L 165.152548 203.136649 
L 165.442279 203.136649 
L 165.442279 202.612401 
L 166.73943 202.612401 
L 166.73943 202.088154 
L 167.192743 202.088154 
L 167.192743 201.039658 
L 167.406159 201.039658 
L 167.441472 197.894172 
L 167.634407 197.894172 
L 167.634407 196.845677 
L 169.492438 196.845677 
L 169.492438 196.321429 
L 170.42178 196.321429 
L 170.42178 194.224438 
L 171.665907 194.224438 
L 171.665907 193.175943 
L 172.664086 193.175943 
L 172.664086 192.127447 
L 173.024745 192.127447 
L 173.024745 191.603199 
L 173.390474 191.603199 
L 173.390474 190.030456 
L 174.425554 190.030456 
L 174.437299 187.409218 
L 174.536808 187.409218 
L 174.536808 184.787979 
L 174.849127 184.787979 
L 174.849127 184.263731 
L 175.200853 184.263731 
L 175.200853 183.215236 
L 177.112079 183.215236 
L 177.112079 182.16674 
L 177.277091 182.16674 
L 177.277091 181.118245 
L 177.757992 181.118245 
L 177.757992 180.06975 
L 178.121887 180.06975 
L 178.13136 179.021254 
L 178.913533 179.021254 
L 178.913533 178.497006 
L 181.14643 178.497006 
L 181.14643 174.827272 
L 183.469442 174.827272 
L 183.469442 173.254529 
L 185.012133 173.254529 
L 185.012133 171.681786 
L 186.103207 171.681786 
L 186.103207 168.012052 
L 188.352582 168.012052 
L 188.352582 166.963557 
L 189.545963 166.963557 
L 189.545963 161.196832 
L 191.247912 161.196832 
L 191.247912 159.099841 
L 195.456431 159.099841 
L 195.456431 158.051345 
L 196.097581 158.051345 
L 196.097581 157.527098 
L 196.758984 157.527098 
L 196.858027 155.430107 
L 197.270372 155.430107 
L 197.270372 154.905859 
L 197.577086 154.905859 
L 197.577086 154.381611 
L 197.741281 154.381611 
L 197.741281 153.857364 
L 197.873919 153.857364 
L 197.873919 151.760373 
L 198.059098 151.760373 
L 198.059098 151.236125 
L 198.643206 151.236125 
L 198.643206 150.711877 
L 198.927981 150.711877 
L 198.927981 149.663382 
L 199.273289 149.663382 
L 199.273289 148.614886 
L 199.714625 148.614886 
L 199.714625 147.042143 
L 199.867725 147.042143 
L 199.867725 146.517896 
L 200.094847 146.517896 
L 200.094847 145.4694 
L 200.735877 145.4694 
L 200.777774 143.896657 
L 200.901598 143.896657 
L 200.901598 142.848162 
L 201.849416 142.848162 
L 201.849416 142.323914 
L 202.579518 142.323914 
L 202.579518 140.751171 
L 203.102453 140.751171 
L 203.102453 138.129932 
L 203.491241 138.129932 
L 203.491241 137.605684 
L 204.82428 137.605684 
L 204.82428 129.217721 
L 205.544503 129.217721 
L 205.544503 127.12073 
L 208.025979 127.12073 
L 208.025979 126.596482 
L 208.675638 126.596482 
L 208.745975 125.023739 
L 208.844601 125.023739 
L 208.844601 124.499491 
L 209.748336 124.499491 
L 209.790422 123.450996 
L 209.961462 123.450996 
L 209.975577 121.354005 
L 210.596178 121.354005 
L 210.596178 120.829757 
L 211.404842 120.829757 
L 211.404842 120.30551 
L 211.719692 120.30551 
L 211.719692 119.781262 
L 211.956238 119.781262 
L 211.956238 117.684271 
L 212.783084 117.684271 
L 212.783084 113.490289 
L 213.239882 113.490289 
L 213.239882 111.917546 
L 213.424967 111.917546 
L 213.424967 111.393298 
L 215.353435 111.393298 
L 215.353435 110.344803 
L 216.200087 110.344803 
L 216.200087 109.296308 
L 217.207559 109.296308 
L 217.207559 108.247812 
L 218.202084 108.247812 
L 218.202084 103.005335 
L 218.536553 103.005335 
L 218.536553 102.481087 
L 218.672748 102.481087 
L 218.672748 101.956839 
L 220.114433 101.956839 
L 220.114433 100.908344 
L 221.537979 100.908344 
L 221.537979 100.384096 
L 221.84596 100.384096 
L 221.84596 99.859849 
L 222.315945 99.859849 
L 222.315945 94.617371 
L 222.579766 94.617371 
L 222.579766 93.568876 
L 223.879751 93.568876 
L 223.879751 93.044628 
L 224.077037 93.044628 
L 224.077037 92.520381 
L 224.523335 92.520381 
L 224.578674 91.471885 
L 224.994019 91.471885 
L 224.994019 90.42339 
L 225.246314 90.42339 
L 225.246314 89.899142 
L 225.632883 89.899142 
L 225.632883 86.753656 
L 227.330569 86.753656 
L 227.330569 85.70516 
L 228.41211 85.70516 
L 228.41211 80.462683 
L 229.132046 80.462683 
L 229.132046 79.938435 
L 229.494139 79.938435 
L 229.494139 79.414188 
L 229.765133 79.414188 
L 229.871179 78.365692 
L 230.333297 78.365692 
L 230.333297 77.841444 
L 230.803886 77.841444 
L 230.803886 75.744454 
L 230.965376 75.744454 
L 231.0316 74.695958 
L 232.903139 74.695958 
L 232.903139 73.123215 
L 233.04614 73.123215 
L 233.04614 72.598967 
L 234.162149 72.598967 
L 234.162149 72.074719 
L 234.773689 72.074719 
L 234.773689 69.977729 
L 236.123187 69.977729 
L 236.123187 69.453481 
L 236.460507 69.453481 
L 236.460507 63.686756 
L 237.996481 63.686756 
L 238.102922 61.065517 
L 239.406389 61.065517 
L 239.406389 60.017022 
L 240.709364 60.017022 
L 240.709364 56.347288 
L 241.92049 56.347288 
L 241.92049 54.250297 
L 242.598688 54.250297 
L 242.598688 53.726049 
L 243.051867 53.726049 
L 243.051867 52.677554 
L 244.113352 52.677554 
L 244.113352 51.629058 
L 245.11308 51.629058 
L 245.18351 49.00782 
L 246.057845 49.00782 
L 246.124515 47.435077 
L 246.953375 47.435077 
L 246.953375 45.338086 
L 247.804549 45.338086 
L 247.864788 44.28959 
L 248.615555 44.28959 
L 248.615555 43.241095 
L 249.390013 43.241095 
L 249.390013 41.668352 
L 250.131076 41.668352 
L 250.131076 41.144104 
L 250.841505 41.144104 
L 250.841505 40.619856 
L 251.523734 40.619856 
L 251.523734 39.571361 
L 252.179914 39.571361 
L 252.179914 38.522865 
L 254.01034 38.522865 
L 254.01034 37.47437 
L 254.579587 37.47437 
L 254.579587 36.425875 
L 255.130584 36.425875 
L 255.130584 35.901627 
L 255.664466 35.901627 
L 255.664466 34.853131 
L 257.173291 34.853131 
L 257.173291 33.280388 
L 258.560292 33.280388 
L 258.560292 32.231893 
L 258.998822 32.231893 
L 258.998822 31.183397 
L 260.251031 31.183397 
L 260.251031 30.65915 
L 262.511086 30.65915 
L 262.511086 30.134902 
L 262.860473 30.134902 
L 262.860473 29.610654 
L 264.19106 29.610654 
L 264.19106 29.086407 
L 265.125486 29.086407 
L 265.125486 28.562159 
L 267.126482 28.562159 
L 267.126482 28.037911 
L 271.192627 28.037911 
L 271.192627 27.513663 
L 333.168 27.513663 
L 333.168 27.513663 
" style="fill:none;stroke:#008000;stroke-linecap:square;stroke-width:1.5;"/>
   </g>
   <g id="line2d_44">
    <defs>
     <path d="M -0 6 
L 6 -6 
L -6 -6 
z
" id="m17aa1747a8" style="stroke:#008000;stroke-linejoin:miter;stroke-width:1.5;"/>
    </defs>
    <g>
     <use style="fill-opacity:0;stroke:#008000;stroke-linejoin:miter;stroke-width:1.5;" x="70.68389" xlink:href="#m17aa1747a8" y="274.958587"/>
     <use style="fill-opacity:0;stroke:#008000;stroke-linejoin:miter;stroke-width:1.5;" x="149.593139" xlink:href="#m17aa1747a8" y="225.155053"/>
     <use style="fill-opacity:0;stroke:#008000;stroke-linejoin:miter;stroke-width:1.5;" x="211.404842" xlink:href="#m17aa1747a8" y="120.30551"/>
     <use style="fill-opacity:0;stroke:#008000;stroke-linejoin:miter;stroke-width:1.5;" x="257.173291" xlink:href="#m17aa1747a8" y="33.280388"/>
     <use style="fill-opacity:0;stroke:#008000;stroke-linejoin:miter;stroke-width:1.5;" x="271.192627" xlink:href="#m17aa1747a8" y="27.513663"/>
     <use style="fill-opacity:0;stroke:#008000;stroke-linejoin:miter;stroke-width:1.5;" x="333.168" xlink:href="#m17aa1747a8" y="27.513663"/>
    </g>
   </g>
   <g id="line2d_45">
    <path style="fill:none;stroke:#008000;stroke-linecap:square;stroke-width:1.5;"/>
    <g/>
   </g>
   <g id="line2d_46">
    <path clip-path="url(#pf32cb6f86d)" d="M 195.722236 158.051345 
" style="fill:none;stroke:#008000;stroke-linecap:square;stroke-width:1.5;"/>
    <defs>
     <path d="M -12 12 
L 12 -12 
M -12 -12 
L 12 12 
" id="m11472d5615" style="stroke:#008000;"/>
    </defs>
    <g clip-path="url(#pf32cb6f86d)">
     <use style="fill:#008000;stroke:#008000;" x="195.722236" xlink:href="#m11472d5615" y="158.051345"/>
    </g>
   </g>
   <g id="line2d_47">
    <defs>
     <path d="M 0 1.5 
C 0.397805 1.5 0.77937 1.341951 1.06066 1.06066 
C 1.341951 0.77937 1.5 0.397805 1.5 0 
C 1.5 -0.397805 1.341951 -0.77937 1.06066 -1.06066 
C 0.77937 -1.341951 0.397805 -1.5 0 -1.5 
C -0.397805 -1.5 -0.77937 -1.341951 -1.06066 -1.06066 
C -1.341951 -0.77937 -1.5 -0.397805 -1.5 0 
C -1.5 0.397805 -1.341951 0.77937 -1.06066 1.06066 
C -0.77937 1.341951 -0.397805 1.5 0 1.5 
z
" id="m6d9d0a908f" style="stroke:#0000ff;"/>
    </defs>
    <g>
     <use style="fill:#0000ff;stroke:#0000ff;" x="253.421332" xlink:href="#m6d9d0a908f" y="174.303025"/>
     <use style="fill:#0000ff;stroke:#0000ff;" x="253.421332" xlink:href="#m6d9d0a908f" y="174.303025"/>
    </g>
   </g>
   <g id="line2d_48">
    <path d="M 28.455965 294.88 
L 28.455965 287.540532 
L 40.370217 287.540532 
L 40.370217 284.395046 
L 47.339607 284.395046 
L 47.339607 282.822302 
L 52.284468 282.822302 
L 52.284468 282.298055 
L 56.12 282.298055 
L 56.12 280.725312 
L 59.253858 280.725312 
L 59.253858 279.676816 
L 61.903497 279.676816 
L 61.903497 279.152568 
L 69.672503 279.152568 
L 69.672503 278.628321 
L 71.168109 278.628321 
L 71.168109 278.104073 
L 77.155024 278.104073 
L 77.155024 277.579825 
L 79.948502 277.579825 
L 79.948502 275.482834 
L 82.350819 275.482834 
L 82.350819 274.434339 
L 83.08236 274.434339 
L 83.08236 273.910091 
L 83.784035 273.910091 
L 83.784035 273.385844 
L 85.732 273.385844 
L 85.732 271.8131 
L 89.069276 271.8131 
L 89.069276 270.764605 
L 103.560793 270.764605 
L 103.560793 269.716109 
L 107.612537 269.716109 
L 107.612537 269.191862 
L 120.849643 269.191862 
L 120.849643 268.667614 
L 121.008065 268.667614 
L 121.008065 267.094871 
L 121.70343 267.094871 
L 121.70343 266.570623 
L 123.293428 266.570623 
L 123.293428 265.522128 
L 124.102454 265.522128 
L 124.102454 264.99788 
L 125.5541 264.99788 
L 125.5541 263.425137 
L 129.867125 263.425137 
L 129.867125 262.376641 
L 135.983745 262.376641 
L 135.983745 261.852394 
L 139.384945 261.852394 
L 139.384945 261.328146 
L 139.546595 261.328146 
L 139.546595 260.279651 
L 139.970373 260.279651 
L 139.970373 259.231155 
L 147.748889 259.231155 
L 147.782136 258.18266 
L 150.929828 258.18266 
L 150.929828 257.658412 
L 152.247048 257.658412 
L 152.247048 256.609917 
L 155.204963 256.609917 
L 155.204963 256.085669 
L 155.871232 256.085669 
L 155.871232 255.561421 
L 156.372155 255.561421 
L 156.372155 254.512926 
L 156.64206 254.512926 
L 156.64206 253.988678 
L 159.437026 253.988678 
L 159.437026 252.940182 
L 160.033511 252.940182 
L 160.033511 251.891687 
L 160.89888 251.891687 
L 160.89888 250.843192 
L 161.409962 250.843192 
L 161.409962 250.318944 
L 161.574519 250.318944 
L 161.574519 249.794696 
L 162.628392 249.794696 
L 162.628392 248.746201 
L 162.850992 248.746201 
L 162.850992 248.221953 
L 163.548519 248.221953 
L 163.548519 247.697705 
L 164.307966 247.697705 
L 164.307966 246.64921 
L 166.273837 246.64921 
L 166.273837 246.124962 
L 167.681435 246.124962 
L 167.681435 245.600714 
L 169.213096 245.600714 
L 169.213096 244.027971 
L 171.040797 244.027971 
L 171.040797 243.503724 
L 177.12815 243.503724 
L 177.12815 242.455228 
L 178.933429 242.455228 
L 178.933429 241.93098 
L 182.363445 241.93098 
L 182.363445 241.406733 
L 183.729187 241.406733 
L 183.729187 239.309742 
L 187.308862 239.309742 
L 187.308862 238.785494 
L 187.806309 238.785494 
L 187.806309 238.261246 
L 189.552786 238.261246 
L 189.552786 237.736999 
L 190.085341 237.736999 
L 190.10234 236.164255 
L 190.954455 236.164255 
L 191.023035 234.591512 
L 192.456572 234.591512 
L 192.456572 234.067265 
L 192.91584 234.067265 
L 192.91584 233.543017 
L 194.470947 233.543017 
L 194.470947 233.018769 
L 194.640316 233.018769 
L 194.640316 231.970274 
L 196.718886 231.970274 
L 196.718886 230.921778 
L 197.324715 230.921778 
L 197.324715 229.873283 
L 198.074539 229.873283 
L 198.074539 228.30054 
L 200.812231 228.30054 
L 200.812231 227.252044 
L 200.979226 227.252044 
L 200.979226 226.727797 
L 201.675545 226.727797 
L 201.675545 226.203549 
L 201.833682 226.203549 
L 201.833682 225.155053 
L 203.132776 225.155053 
L 203.132776 224.630806 
L 203.547028 224.630806 
L 203.547028 224.106558 
L 204.4306 224.106558 
L 204.4306 223.058063 
L 204.819871 223.058063 
L 204.819871 222.533815 
L 205.308416 222.533815 
L 205.308416 222.009567 
L 206.185283 222.009567 
L 206.185283 221.485319 
L 206.938428 221.485319 
L 207.040734 220.436824 
L 207.296209 220.436824 
L 207.296209 219.912576 
L 207.755531 219.912576 
L 207.755531 218.864081 
L 208.717236 218.864081 
L 208.717236 218.339833 
L 209.352992 218.339833 
L 209.352992 217.815585 
L 210.021704 217.815585 
L 210.021704 216.242842 
L 210.384009 216.242842 
L 210.384009 215.194347 
L 211.776226 215.194347 
L 211.885017 213.097356 
L 212.237815 213.097356 
L 212.237815 212.573108 
L 214.009596 212.573108 
L 214.009596 210.476117 
L 215.503323 210.476117 
L 215.608949 209.427622 
L 215.789705 209.427622 
L 215.789705 208.903374 
L 217.056439 208.903374 
L 217.056439 208.379126 
L 217.244282 208.379126 
L 217.244282 207.854879 
L 217.483145 207.854879 
L 217.483145 207.330631 
L 218.305214 207.330631 
L 218.305214 206.806383 
L 218.579641 206.806383 
L 218.579641 205.757888 
L 218.731834 205.757888 
L 218.731834 205.23364 
L 219.96558 205.23364 
L 219.96558 204.709392 
L 221.111777 204.709392 
L 221.111777 204.185145 
L 222.174687 204.185145 
L 222.174687 203.136649 
L 222.314351 203.136649 
L 222.314351 202.088154 
L 222.492514 202.088154 
L 222.492514 201.039658 
L 223.194893 201.039658 
L 223.194893 200.515411 
L 223.433987 200.515411 
L 223.433987 199.991163 
L 224.256626 199.991163 
L 224.256626 199.466915 
L 224.380415 199.466915 
L 224.380415 197.894172 
L 224.538492 197.894172 
L 224.538492 197.369924 
L 225.213479 197.369924 
L 225.213479 196.845677 
L 225.376846 196.845677 
L 225.376846 195.797181 
L 226.224573 195.797181 
L 226.224573 195.272933 
L 226.929571 195.272933 
L 226.929571 194.224438 
L 227.122232 194.224438 
L 227.122232 193.70019 
L 227.656397 193.70019 
L 227.656397 192.651695 
L 228.70661 192.651695 
L 228.70661 191.603199 
L 229.315733 191.603199 
L 229.315733 191.078952 
L 230.079069 191.078952 
L 230.157193 190.030456 
L 230.911861 190.030456 
L 230.911861 189.506209 
L 231.761069 189.506209 
L 231.761069 188.981961 
L 232.194127 188.981961 
L 232.194127 188.457713 
L 232.597076 188.457713 
L 232.597076 187.933465 
L 232.735841 187.933465 
L 232.735841 187.409218 
L 233.293048 187.409218 
L 233.293048 186.88497 
L 234.345784 186.88497 
L 234.414722 185.312227 
L 234.503074 185.312227 
L 234.503074 184.787979 
L 235.997629 184.787979 
L 236.019185 183.739484 
L 236.960479 183.739484 
L 236.960479 183.215236 
L 237.154608 183.215236 
L 237.154608 182.690988 
L 238.160105 182.690988 
L 238.232227 181.642493 
L 238.287237 181.642493 
L 238.287237 181.118245 
L 238.64032 181.118245 
L 238.738068 180.06975 
L 239.938917 180.06975 
L 239.938917 179.021254 
L 240.556083 179.021254 
L 240.556083 178.497006 
L 241.035818 178.497006 
L 241.035818 177.972759 
L 242.108381 177.972759 
L 242.152299 176.924263 
L 243.483893 176.924263 
L 243.483893 176.400016 
L 244.719706 176.400016 
L 244.719706 175.875768 
L 246.995653 175.875768 
L 246.995653 175.35152 
L 250.921874 175.35152 
L 250.921874 174.827272 
L 253.421332 174.827272 
L 253.421332 174.303025 
L 333.168 174.303025 
L 333.168 174.303025 
" style="fill:none;stroke:#0000ff;stroke-linecap:square;stroke-width:1.5;"/>
   </g>
   <g id="line2d_49">
    <defs>
     <path d="M 0 -6 
L -1.347084 -1.854102 
L -5.706339 -1.854102 
L -2.179628 0.708204 
L -3.526712 4.854102 
L -0 2.291796 
L 3.526712 4.854102 
L 2.179628 0.708204 
L 5.706339 -1.854102 
L 1.347084 -1.854102 
z
" id="m39ce8302d9" style="stroke:#0000ff;stroke-linejoin:bevel;stroke-width:1.5;"/>
    </defs>
    <g>
     <use style="fill-opacity:0;stroke:#0000ff;stroke-linejoin:bevel;stroke-width:1.5;" x="89.069276" xlink:href="#m39ce8302d9" y="270.764605"/>
     <use style="fill-opacity:0;stroke:#0000ff;stroke-linejoin:bevel;stroke-width:1.5;" x="171.040797" xlink:href="#m39ce8302d9" y="243.503724"/>
     <use style="fill-opacity:0;stroke:#0000ff;stroke-linejoin:bevel;stroke-width:1.5;" x="224.538492" xlink:href="#m39ce8302d9" y="197.369924"/>
     <use style="fill-opacity:0;stroke:#0000ff;stroke-linejoin:bevel;stroke-width:1.5;" x="253.421332" xlink:href="#m39ce8302d9" y="174.303025"/>
     <use style="fill-opacity:0;stroke:#0000ff;stroke-linejoin:bevel;stroke-width:1.5;" x="253.421332" xlink:href="#m39ce8302d9" y="174.303025"/>
     <use style="fill-opacity:0;stroke:#0000ff;stroke-linejoin:bevel;stroke-width:1.5;" x="333.168" xlink:href="#m39ce8302d9" y="174.303025"/>
    </g>
   </g>
   <g id="line2d_50">
    <path style="fill:none;stroke:#0000ff;stroke-linecap:square;stroke-width:1.5;"/>
    <g/>
   </g>
   <g id="line2d_51">
    <path clip-path="url(#pf32cb6f86d)" d="M 186.941843 239.309742 
" style="fill:none;stroke:#0000ff;stroke-linecap:square;stroke-width:1.5;"/>
    <defs>
     <path d="M -12 12 
L 12 -12 
M -12 -12 
L 12 12 
" id="m5a1fdbbeb1" style="stroke:#0000ff;"/>
    </defs>
    <g clip-path="url(#pf32cb6f86d)">
     <use style="fill:#0000ff;stroke:#0000ff;" x="186.941843" xlink:href="#m5a1fdbbeb1" y="239.309742"/>
    </g>
   </g>
   <g id="line2d_52">
    <defs>
     <path d="M 0 1.5 
C 0.397805 1.5 0.77937 1.341951 1.06066 1.06066 
C 1.341951 0.77937 1.5 0.397805 1.5 0 
C 1.5 -0.397805 1.341951 -0.77937 1.06066 -1.06066 
C 0.77937 -1.341951 0.397805 -1.5 0 -1.5 
C -0.397805 -1.5 -0.77937 -1.341951 -1.06066 -1.06066 
C -1.341951 -0.77937 -1.5 -0.397805 -1.5 0 
C -1.5 0.397805 -1.341951 0.77937 -1.06066 1.06066 
C -0.77937 1.341951 -0.397805 1.5 0 1.5 
z
" id="meb5bb5bb90" style="stroke:#000000;"/>
    </defs>
    <g>
     <use style="stroke:#000000;" x="242.070377" xlink:href="#meb5bb5bb90" y="242.455228"/>
     <use style="stroke:#000000;" x="242.070377" xlink:href="#meb5bb5bb90" y="242.455228"/>
    </g>
   </g>
   <g id="line2d_53">
    <path d="M 16.541714 294.88 
L 16.541714 289.637523 
L 44.205749 289.637523 
L 44.205749 288.589027 
L 78.60845 288.589027 
L 78.60845 288.06478 
L 82.350819 288.06478 
L 82.350819 287.016284 
L 86.036231 287.016284 
L 86.036231 286.492036 
L 94.450895 286.492036 
L 94.450895 285.967789 
L 107.952917 285.967789 
L 107.952917 284.919293 
L 110.530183 284.919293 
L 110.530183 284.395046 
L 113.457313 284.395046 
L 113.457313 283.870798 
L 115.034286 283.870798 
L 115.034286 283.34655 
L 117.280607 283.34655 
L 117.280607 282.822302 
L 121.816638 282.822302 
L 121.816638 282.298055 
L 124.266312 282.298055 
L 124.266312 281.773807 
L 125.402121 281.773807 
L 125.402121 281.249559 
L 125.734717 281.249559 
L 125.734717 280.201064 
L 127.225332 280.201064 
L 127.225332 279.152568 
L 131.071844 279.152568 
L 131.071844 278.628321 
L 132.46286 278.628321 
L 132.46286 277.579825 
L 136.082436 277.579825 
L 136.082436 277.055578 
L 142.21155 277.055578 
L 142.21155 276.53133 
L 144.306104 276.53133 
L 144.306104 276.007082 
L 145.729559 276.007082 
L 145.729559 274.958587 
L 148.313575 274.958587 
L 148.313575 274.434339 
L 150.173618 274.434339 
L 150.173618 273.910091 
L 150.566477 273.910091 
L 150.566477 273.385844 
L 151.115504 273.385844 
L 151.115504 272.861596 
L 152.770536 272.861596 
L 152.770536 272.337348 
L 153.175716 272.337348 
L 153.175716 271.288853 
L 153.41671 271.288853 
L 153.41671 270.240357 
L 156.220355 270.240357 
L 156.220355 269.716109 
L 157.685865 269.716109 
L 157.685865 269.191862 
L 159.203625 269.191862 
L 159.203625 268.667614 
L 160.235875 268.667614 
L 160.235875 268.143366 
L 162.029971 268.143366 
L 162.120352 266.570623 
L 163.478693 266.570623 
L 163.478693 266.046375 
L 167.888904 266.046375 
L 167.888904 265.522128 
L 173.827836 265.522128 
L 173.827836 264.99788 
L 174.796316 264.99788 
L 174.796316 263.949385 
L 176.767488 263.949385 
L 176.767488 263.425137 
L 179.189117 263.425137 
L 179.189117 262.900889 
L 180.789926 262.900889 
L 180.789926 261.852394 
L 181.090314 261.852394 
L 181.090314 261.328146 
L 181.643391 261.328146 
L 181.643391 260.803898 
L 182.417775 260.803898 
L 182.417775 259.755403 
L 184.359571 259.755403 
L 184.359571 259.231155 
L 186.352431 259.231155 
L 186.352431 258.18266 
L 187.326343 258.18266 
L 187.326343 257.658412 
L 188.289763 257.658412 
L 188.289763 257.134164 
L 189.602418 257.134164 
L 189.602418 256.609917 
L 190.239133 256.609917 
L 190.239133 256.085669 
L 192.233514 256.085669 
L 192.294692 255.037173 
L 195.962527 255.037173 
L 195.962527 254.512926 
L 197.658163 254.512926 
L 197.658163 253.46443 
L 201.005149 253.46443 
L 201.005149 252.940182 
L 201.704766 252.940182 
L 201.740054 251.891687 
L 202.458281 251.891687 
L 202.458281 251.367439 
L 206.610745 251.367439 
L 206.610745 250.843192 
L 207.800846 250.843192 
L 207.800846 250.318944 
L 208.986453 250.318944 
L 208.986453 249.794696 
L 209.483468 249.794696 
L 209.483468 249.270448 
L 211.655835 249.270448 
L 211.655835 248.746201 
L 212.665629 248.746201 
L 212.665629 248.221953 
L 214.136675 248.221953 
L 214.136675 247.697705 
L 216.89261 247.697705 
L 216.89261 247.173458 
L 218.127702 247.173458 
L 218.127702 246.64921 
L 220.90094 246.64921 
L 220.90094 246.124962 
L 222.053198 246.124962 
L 222.053198 245.600714 
L 224.197317 245.600714 
L 224.197317 245.076467 
L 225.153979 245.076467 
L 225.153979 244.552219 
L 228.485678 244.552219 
L 228.485678 244.027971 
L 235.34666 244.027971 
L 235.34666 243.503724 
L 238.615164 243.503724 
L 238.615164 242.979476 
L 242.070377 242.979476 
L 242.070377 242.455228 
L 333.168 242.455228 
L 333.168 242.455228 
" style="fill:none;stroke:#000000;stroke-linecap:square;stroke-width:1.5;"/>
   </g>
   <g id="line2d_54">
    <defs>
     <path d="M 0 6 
C 1.591219 6 3.117479 5.367802 4.242641 4.242641 
C 5.367802 3.117479 6 1.591219 6 0 
C 6 -1.591219 5.367802 -3.117479 4.242641 -4.242641 
C 3.117479 -5.367802 1.591219 -6 0 -6 
C -1.591219 -6 -3.117479 -5.367802 -4.242641 -4.242641 
C -5.367802 -3.117479 -6 -1.591219 -6 0 
C -6 1.591219 -5.367802 3.117479 -4.242641 4.242641 
C -3.117479 5.367802 -1.591219 6 0 6 
z
" id="mba4aeb3c49" style="stroke:#000000;stroke-width:1.5;"/>
    </defs>
    <g>
     <use style="fill-opacity:0;stroke:#000000;stroke-width:1.5;" x="86.036231" xlink:href="#mba4aeb3c49" y="286.492036"/>
     <use style="fill-opacity:0;stroke:#000000;stroke-width:1.5;" x="144.306104" xlink:href="#mba4aeb3c49" y="276.007082"/>
     <use style="fill-opacity:0;stroke:#000000;stroke-width:1.5;" x="228.485678" xlink:href="#mba4aeb3c49" y="244.552219"/>
     <use style="fill-opacity:0;stroke:#000000;stroke-width:1.5;" x="242.070377" xlink:href="#mba4aeb3c49" y="242.979476"/>
     <use style="fill-opacity:0;stroke:#000000;stroke-width:1.5;" x="242.070377" xlink:href="#mba4aeb3c49" y="242.455228"/>
     <use style="fill-opacity:0;stroke:#000000;stroke-width:1.5;" x="333.168" xlink:href="#mba4aeb3c49" y="242.455228"/>
    </g>
   </g>
   <g id="line2d_55">
    <path style="fill:none;stroke:#000000;stroke-linecap:square;stroke-width:1.5;"/>
    <g/>
   </g>
   <g id="line2d_56">
    <path clip-path="url(#pf32cb6f86d)" d="M 175.027591 263.949385 
" style="fill:none;stroke:#000000;stroke-linecap:square;stroke-width:1.5;"/>
    <defs>
     <path d="M -12 12 
L 12 -12 
M -12 -12 
L 12 12 
" id="m7ec351e855" style="stroke:#000000;"/>
    </defs>
    <g clip-path="url(#pf32cb6f86d)">
     <use style="stroke:#000000;" x="175.027591" xlink:href="#m7ec351e855" y="263.949385"/>
    </g>
   </g>
   <g id="line2d_57">
    <defs>
     <path d="M 0 1.5 
C 0.397805 1.5 0.77937 1.341951 1.06066 1.06066 
C 1.341951 0.77937 1.5 0.397805 1.5 0 
C 1.5 -0.397805 1.341951 -0.77937 1.06066 -1.06066 
C 0.77937 -1.341951 0.397805 -1.5 0 -1.5 
C -0.397805 -1.5 -0.77937 -1.341951 -1.06066 -1.06066 
C -1.341951 -0.77937 -1.5 -0.397805 -1.5 0 
C -1.5 0.397805 -1.341951 0.77937 -1.06066 1.06066 
C -0.77937 1.341951 -0.397805 1.5 0 1.5 
z
" id="mf75af9c611" style="stroke:#ff0000;"/>
    </defs>
    <g>
     <use style="fill:#ff0000;stroke:#ff0000;" x="215.972039" xlink:href="#mf75af9c611" y="268.667614"/>
     <use style="fill:#ff0000;stroke:#ff0000;" x="215.972039" xlink:href="#mf75af9c611" y="268.667614"/>
    </g>
   </g>
   <g id="line2d_58">
    <path d="M 4.627463 294.88 
L 4.627463 289.637523 
L 129.725264 289.637523 
L 129.725264 289.113275 
L 138.503283 289.113275 
L 138.503283 288.589027 
L 143.435674 288.589027 
L 143.435674 287.540532 
L 146.309161 287.540532 
L 146.309161 286.492036 
L 148.489788 286.492036 
L 148.489788 285.967789 
L 155.827088 285.967789 
L 155.827088 285.443541 
L 159.278234 285.443541 
L 159.278234 284.919293 
L 163.834811 284.919293 
L 163.834811 284.395046 
L 164.374509 284.395046 
L 164.374509 283.870798 
L 165.436829 283.870798 
L 165.436829 283.34655 
L 167.766022 283.34655 
L 167.766022 282.822302 
L 167.863107 282.822302 
L 167.863107 282.298055 
L 169.853755 282.298055 
L 169.853755 281.773807 
L 170.448084 281.773807 
L 170.448084 281.249559 
L 179.083266 281.249559 
L 179.083266 280.725312 
L 183.691708 280.725312 
L 183.691708 279.676816 
L 184.043241 279.676816 
L 184.043241 278.628321 
L 189.546572 278.628321 
L 189.546572 277.579825 
L 191.579589 277.579825 
L 191.579589 277.055578 
L 192.034116 277.055578 
L 192.034116 276.53133 
L 192.891782 276.53133 
L 192.891782 276.007082 
L 193.32857 276.007082 
L 193.32857 275.482834 
L 195.690811 275.482834 
L 195.690811 274.434339 
L 198.769516 274.434339 
L 198.769516 273.910091 
L 203.781321 273.910091 
L 203.781321 273.385844 
L 205.323315 273.385844 
L 205.323315 272.861596 
L 206.360336 272.861596 
L 206.360336 272.337348 
L 208.045597 272.337348 
L 208.045597 271.8131 
L 208.227825 271.8131 
L 208.227825 271.288853 
L 209.054749 271.288853 
L 209.054749 270.764605 
L 212.46173 270.764605 
L 212.46173 269.716109 
L 213.542342 269.716109 
L 213.542342 269.191862 
L 215.972039 269.191862 
L 215.972039 268.667614 
L 333.168 268.667614 
" style="fill:none;stroke:#ff0000;stroke-linecap:square;stroke-width:1.5;"/>
   </g>
   <g id="line2d_59">
    <defs>
     <path d="M -6 6 
L 6 6 
L 6 -6 
L -6 -6 
z
" id="md4b04e6c40" style="stroke:#ff0000;stroke-linejoin:miter;stroke-width:1.5;"/>
    </defs>
    <g>
     <use style="fill-opacity:0;stroke:#ff0000;stroke-linejoin:miter;stroke-width:1.5;" x="143.435674" xlink:href="#md4b04e6c40" y="287.540532"/>
     <use style="fill-opacity:0;stroke:#ff0000;stroke-linejoin:miter;stroke-width:1.5;" x="213.542342" xlink:href="#md4b04e6c40" y="269.716109"/>
     <use style="fill-opacity:0;stroke:#ff0000;stroke-linejoin:miter;stroke-width:1.5;" x="215.972039" xlink:href="#md4b04e6c40" y="268.667614"/>
     <use style="fill-opacity:0;stroke:#ff0000;stroke-linejoin:miter;stroke-width:1.5;" x="215.972039" xlink:href="#md4b04e6c40" y="268.667614"/>
     <use style="fill-opacity:0;stroke:#ff0000;stroke-linejoin:miter;stroke-width:1.5;" x="333.168" xlink:href="#md4b04e6c40" y="268.667614"/>
    </g>
   </g>
   <g id="line2d_60">
    <path style="fill:none;stroke:#ff0000;stroke-linecap:square;stroke-width:1.5;"/>
    <g/>
   </g>
   <g id="line2d_61">
    <path clip-path="url(#pf32cb6f86d)" d="M 163.11334 284.919293 
" style="fill:none;stroke:#ff0000;stroke-linecap:square;stroke-width:1.5;"/>
    <defs>
     <path d="M -12 12 
L 12 -12 
M -12 -12 
L 12 12 
" id="m4dd6995b13" style="stroke:#ff0000;"/>
    </defs>
    <g clip-path="url(#pf32cb6f86d)">
     <use style="fill:#ff0000;stroke:#ff0000;" x="163.11334" xlink:href="#m4dd6995b13" y="284.919293"/>
    </g>
   </g>
   <g id="line2d_62">
    <defs>
     <path d="M 0 1.5 
C 0.397805 1.5 0.77937 1.341951 1.06066 1.06066 
C 1.341951 0.77937 1.5 0.397805 1.5 0 
C 1.5 -0.397805 1.341951 -0.77937 1.06066 -1.06066 
C 0.77937 -1.341951 0.397805 -1.5 0 -1.5 
C -0.397805 -1.5 -0.77937 -1.341951 -1.06066 -1.06066 
C -1.341951 -0.77937 -1.5 -0.397805 -1.5 0 
C -1.5 0.397805 -1.341951 0.77937 -1.06066 1.06066 
C -0.77937 1.341951 -0.397805 1.5 0 1.5 
z
" id="m883a054425" style="stroke:#bf00bf;"/>
    </defs>
    <g>
     <use style="fill:#bf00bf;stroke:#bf00bf;" x="206.259971" xlink:href="#m883a054425" y="284.395046"/>
     <use style="fill:#bf00bf;stroke:#bf00bf;" x="206.259971" xlink:href="#m883a054425" y="284.395046"/>
    </g>
   </g>
   <g id="line2d_63">
    <path d="M -1 289.637523 
L 142.8262 289.637523 
L 142.8262 289.113275 
L 159.431756 289.113275 
L 159.431756 288.589027 
L 167.717923 288.589027 
L 167.717923 288.06478 
L 173.28518 288.06478 
L 173.28518 287.016284 
L 190.101455 287.016284 
L 190.101455 286.492036 
L 191.802264 286.492036 
L 191.802264 285.967789 
L 193.349828 285.967789 
L 193.349828 285.443541 
L 204.025932 285.443541 
L 204.025932 284.919293 
L 206.259971 284.919293 
L 206.259971 284.395046 
L 333.168 284.395046 
" style="fill:none;stroke:#bf00bf;stroke-linecap:square;stroke-width:1.5;"/>
   </g>
   <g id="line2d_64">
    <defs>
     <path d="M -0 8.485281 
L 8.485281 0 
L 0 -8.485281 
L -8.485281 -0 
z
" id="m31bf42b51f" style="stroke:#bf00bf;stroke-linejoin:miter;stroke-width:1.5;"/>
    </defs>
    <g>
     <use style="fill-opacity:0;stroke:#bf00bf;stroke-linejoin:miter;stroke-width:1.5;" x="142.8262" xlink:href="#m31bf42b51f" y="289.637523"/>
     <use style="fill-opacity:0;stroke:#bf00bf;stroke-linejoin:miter;stroke-width:1.5;" x="206.259971" xlink:href="#m31bf42b51f" y="284.919293"/>
     <use style="fill-opacity:0;stroke:#bf00bf;stroke-linejoin:miter;stroke-width:1.5;" x="206.259971" xlink:href="#m31bf42b51f" y="284.395046"/>
     <use style="fill-opacity:0;stroke:#bf00bf;stroke-linejoin:miter;stroke-width:1.5;" x="206.259971" xlink:href="#m31bf42b51f" y="284.395046"/>
     <use style="fill-opacity:0;stroke:#bf00bf;stroke-linejoin:miter;stroke-width:1.5;" x="333.168" xlink:href="#m31bf42b51f" y="284.395046"/>
    </g>
   </g>
   <g id="line2d_65">
    <path style="fill:none;stroke:#bf00bf;stroke-linecap:square;stroke-width:1.5;"/>
    <g/>
   </g>
   <g id="line2d_66">
    <path clip-path="url(#pf32cb6f86d)" d="M 151.199089 289.113275 
" style="fill:none;stroke:#bf00bf;stroke-linecap:square;stroke-width:1.5;"/>
    <defs>
     <path d="M -12 12 
L 12 -12 
M -12 -12 
L 12 12 
" id="m4b8740a298" style="stroke:#bf00bf;"/>
    </defs>
    <g clip-path="url(#pf32cb6f86d)">
     <use style="fill:#bf00bf;stroke:#bf00bf;" x="151.199089" xlink:href="#m4b8740a298" y="289.113275"/>
    </g>
   </g>
   <g id="line2d_67">
    <path d="M 333.168 284.395046 
L 363.64328 289.532673 
" style="fill:none;stroke:#bf00bf;stroke-linecap:square;stroke-width:1.5;"/>
    <g>
     <use style="fill-opacity:0;stroke:#bf00bf;stroke-linejoin:miter;stroke-width:1.5;" x="333.168" xlink:href="#m31bf42b51f" y="284.395046"/>
     <use style="fill-opacity:0;stroke:#bf00bf;stroke-linejoin:miter;stroke-width:1.5;" x="363.64328" xlink:href="#m31bf42b51f" y="289.532673"/>
    </g>
   </g>
   <g id="line2d_68">
    <path d="M 333.168 268.667614 
L 363.64328 238.198337 
" style="fill:none;stroke:#ff0000;stroke-linecap:square;stroke-width:1.5;"/>
    <g>
     <use style="fill-opacity:0;stroke:#ff0000;stroke-linejoin:miter;stroke-width:1.5;" x="333.168" xlink:href="#md4b04e6c40" y="268.667614"/>
     <use style="fill-opacity:0;stroke:#ff0000;stroke-linejoin:miter;stroke-width:1.5;" x="363.64328" xlink:href="#md4b04e6c40" y="238.198337"/>
    </g>
   </g>
   <g id="line2d_69">
    <path d="M 333.168 242.455228 
L 363.64328 186.864 
" style="fill:none;stroke:#000000;stroke-linecap:square;stroke-width:1.5;"/>
    <g>
     <use style="fill-opacity:0;stroke:#000000;stroke-width:1.5;" x="333.168" xlink:href="#mba4aeb3c49" y="242.455228"/>
     <use style="fill-opacity:0;stroke:#000000;stroke-width:1.5;" x="363.64328" xlink:href="#mba4aeb3c49" y="186.864"/>
    </g>
   </g>
   <g id="line2d_70">
    <path d="M 333.168 174.303025 
L 363.64328 135.529663 
" style="fill:none;stroke:#0000ff;stroke-linecap:square;stroke-width:1.5;"/>
    <g>
     <use style="fill-opacity:0;stroke:#0000ff;stroke-linejoin:bevel;stroke-width:1.5;" x="333.168" xlink:href="#m39ce8302d9" y="174.303025"/>
     <use style="fill-opacity:0;stroke:#0000ff;stroke-linejoin:bevel;stroke-width:1.5;" x="363.64328" xlink:href="#m39ce8302d9" y="135.529663"/>
    </g>
   </g>
   <g id="line2d_71">
    <path d="M 333.168 27.513663 
L 363.64328 84.195327 
" style="fill:none;stroke:#008000;stroke-linecap:square;stroke-width:1.5;"/>
    <g>
     <use style="fill-opacity:0;stroke:#008000;stroke-linejoin:miter;stroke-width:1.5;" x="333.168" xlink:href="#m17aa1747a8" y="27.513663"/>
     <use style="fill-opacity:0;stroke:#008000;stroke-linejoin:miter;stroke-width:1.5;" x="363.64328" xlink:href="#m17aa1747a8" y="84.195327"/>
    </g>
   </g>
   <g id="line2d_72">
    <path d="M 333.168 27.513663 
L 363.64328 32.86099 
" style="fill:none;stroke:#00bfbf;stroke-linecap:square;stroke-width:1.5;"/>
    <g>
     <use style="fill-opacity:0;stroke:#00bfbf;stroke-width:1.5;" x="333.168" xlink:href="#md9f511027a" y="27.513663"/>
     <use style="fill-opacity:0;stroke:#00bfbf;stroke-width:1.5;" x="363.64328" xlink:href="#md9f511027a" y="32.86099"/>
    </g>
   </g>
   <g id="line2d_73">
    <path d="M 333.168 294.88 
L 333.168 27.513663 
" style="fill:none;stroke:#000000;stroke-linecap:square;stroke-width:1.5;"/>
   </g>
   <g id="patch_3">
    <path d="M 56.12 294.88 
L 56.12 24.84 
" style="fill:none;stroke:#000000;stroke-linecap:square;stroke-linejoin:miter;stroke-width:0.8;"/>
   </g>
   <g id="patch_4">
    <path d="M 333.168 294.88 
L 333.168 24.84 
" style="fill:none;stroke:#000000;stroke-linecap:square;stroke-linejoin:miter;stroke-width:0.8;"/>
   </g>
   <g id="patch_5">
    <path d="M 56.12 294.88 
L 333.168 294.88 
" style="fill:none;stroke:#000000;stroke-linecap:square;stroke-linejoin:miter;stroke-width:0.8;"/>
   </g>
   <g id="patch_6">
    <path d="M 56.12 24.84 
L 333.168 24.84 
" style="fill:none;stroke:#000000;stroke-linecap:square;stroke-linejoin:miter;stroke-width:0.8;"/>
   </g>
   <g id="text_13">
    <!-- 40-D -->
    <defs>
     <path d="M 19.671875 64.796875 
L 19.671875 8.109375 
L 31.59375 8.109375 
Q 46.6875 8.109375 53.6875 14.9375 
Q 60.6875 21.78125 60.6875 36.53125 
Q 60.6875 51.171875 53.6875 57.984375 
Q 46.6875 64.796875 31.59375 64.796875 
z
M 9.8125 72.90625 
L 30.078125 72.90625 
Q 51.265625 72.90625 61.171875 64.09375 
Q 71.09375 55.28125 71.09375 36.53125 
Q 71.09375 17.671875 61.125 8.828125 
Q 51.171875 0 30.078125 0 
L 9.8125 0 
z
" id="DejaVuSans-44"/>
    </defs>
    <g transform="translate(369.18424 294.223611)scale(0.17 -0.17)">
     <use xlink:href="#DejaVuSans-34"/>
     <use x="63.623047" xlink:href="#DejaVuSans-30"/>
     <use x="127.246094" xlink:href="#DejaVuSans-2d"/>
     <use x="163.330078" xlink:href="#DejaVuSans-44"/>
    </g>
   </g>
   <g id="text_14">
    <!-- 20-D -->
    <g transform="translate(369.18424 242.889274)scale(0.17 -0.17)">
     <use xlink:href="#DejaVuSans-32"/>
     <use x="63.623047" xlink:href="#DejaVuSans-30"/>
     <use x="127.246094" xlink:href="#DejaVuSans-2d"/>
     <use x="163.330078" xlink:href="#DejaVuSans-44"/>
    </g>
   </g>
   <g id="text_15">
    <!-- 10-D -->
    <g transform="translate(369.18424 191.554937)scale(0.17 -0.17)">
     <use xlink:href="#DejaVuSans-31"/>
     <use x="63.623047" xlink:href="#DejaVuSans-30"/>
     <use x="127.246094" xlink:href="#DejaVuSans-2d"/>
     <use x="163.330078" xlink:href="#DejaVuSans-44"/>
    </g>
   </g>
   <g id="text_16">
    <!-- 5-D -->
    <defs>
     <path d="M 10.796875 72.90625 
L 49.515625 72.90625 
L 49.515625 64.59375 
L 19.828125 64.59375 
L 19.828125 46.734375 
Q 21.96875 47.46875 24.109375 47.828125 
Q 26.265625 48.1875 28.421875 48.1875 
Q 40.625 48.1875 47.75 41.5 
Q 54.890625 34.8125 54.890625 23.390625 
Q 54.890625 11.625 47.5625 5.09375 
Q 40.234375 -1.421875 26.90625 -1.421875 
Q 22.3125 -1.421875 17.546875 -0.640625 
Q 12.796875 0.140625 7.71875 1.703125 
L 7.71875 11.625 
Q 12.109375 9.234375 16.796875 8.0625 
Q 21.484375 6.890625 26.703125 6.890625 
Q 35.15625 6.890625 40.078125 11.328125 
Q 45.015625 15.765625 45.015625 23.390625 
Q 45.015625 31 40.078125 35.4375 
Q 35.15625 39.890625 26.703125 39.890625 
Q 22.75 39.890625 18.8125 39.015625 
Q 14.890625 38.140625 10.796875 36.28125 
z
" id="DejaVuSans-35"/>
    </defs>
    <g transform="translate(369.18424 140.220601)scale(0.17 -0.17)">
     <use xlink:href="#DejaVuSans-35"/>
     <use x="63.623047" xlink:href="#DejaVuSans-2d"/>
     <use x="99.707031" xlink:href="#DejaVuSans-44"/>
    </g>
   </g>
   <g id="text_17">
    <!-- 3-D -->
    <defs>
     <path d="M 40.578125 39.3125 
Q 47.65625 37.796875 51.625 33 
Q 55.609375 28.21875 55.609375 21.1875 
Q 55.609375 10.40625 48.1875 4.484375 
Q 40.765625 -1.421875 27.09375 -1.421875 
Q 22.515625 -1.421875 17.65625 -0.515625 
Q 12.796875 0.390625 7.625 2.203125 
L 7.625 11.71875 
Q 11.71875 9.328125 16.59375 8.109375 
Q 21.484375 6.890625 26.8125 6.890625 
Q 36.078125 6.890625 40.9375 10.546875 
Q 45.796875 14.203125 45.796875 21.1875 
Q 45.796875 27.640625 41.28125 31.265625 
Q 36.765625 34.90625 28.71875 34.90625 
L 20.21875 34.90625 
L 20.21875 43.015625 
L 29.109375 43.015625 
Q 36.375 43.015625 40.234375 45.921875 
Q 44.09375 48.828125 44.09375 54.296875 
Q 44.09375 59.90625 40.109375 62.90625 
Q 36.140625 65.921875 28.71875 65.921875 
Q 24.65625 65.921875 20.015625 65.03125 
Q 15.375 64.15625 9.8125 62.3125 
L 9.8125 71.09375 
Q 15.4375 72.65625 20.34375 73.4375 
Q 25.25 74.21875 29.59375 74.21875 
Q 40.828125 74.21875 47.359375 69.109375 
Q 53.90625 64.015625 53.90625 55.328125 
Q 53.90625 49.265625 50.4375 45.09375 
Q 46.96875 40.921875 40.578125 39.3125 
z
" id="DejaVuSans-33"/>
    </defs>
    <g transform="translate(369.18424 88.886264)scale(0.17 -0.17)">
     <use xlink:href="#DejaVuSans-33"/>
     <use x="63.623047" xlink:href="#DejaVuSans-2d"/>
     <use x="99.707031" xlink:href="#DejaVuSans-44"/>
    </g>
   </g>
   <g id="text_18">
    <!-- 2-D -->
    <g transform="translate(369.18424 37.551928)scale(0.17 -0.17)">
     <use xlink:href="#DejaVuSans-32"/>
     <use x="63.623047" xlink:href="#DejaVuSans-2d"/>
     <use x="99.707031" xlink:href="#DejaVuSans-44"/>
    </g>
   </g>
   <g id="text_19">
    <!-- bbob f22 -->
    <defs>
     <path d="M 48.6875 27.296875 
Q 48.6875 37.203125 44.609375 42.84375 
Q 40.53125 48.484375 33.40625 48.484375 
Q 26.265625 48.484375 22.1875 42.84375 
Q 18.109375 37.203125 18.109375 27.296875 
Q 18.109375 17.390625 22.1875 11.75 
Q 26.265625 6.109375 33.40625 6.109375 
Q 40.53125 6.109375 44.609375 11.75 
Q 48.6875 17.390625 48.6875 27.296875 
z
M 18.109375 46.390625 
Q 20.953125 51.265625 25.265625 53.625 
Q 29.59375 56 35.59375 56 
Q 45.5625 56 51.78125 48.09375 
Q 58.015625 40.1875 58.015625 27.296875 
Q 58.015625 14.40625 51.78125 6.484375 
Q 45.5625 -1.421875 35.59375 -1.421875 
Q 29.59375 -1.421875 25.265625 0.953125 
Q 20.953125 3.328125 18.109375 8.203125 
L 18.109375 0 
L 9.078125 0 
L 9.078125 75.984375 
L 18.109375 75.984375 
z
" id="DejaVuSans-62"/>
    </defs>
    <g transform="translate(58.89048 35.290806)scale(0.102 -0.102)">
     <use xlink:href="#DejaVuSans-62"/>
     <use x="63.476562" xlink:href="#DejaVuSans-62"/>
     <use x="126.953125" xlink:href="#DejaVuSans-6f"/>
     <use x="188.134766" xlink:href="#DejaVuSans-62"/>
     <use x="251.611328" xlink:href="#DejaVuSans-20"/>
     <use x="283.398438" xlink:href="#DejaVuSans-66"/>
     <use x="318.603516" xlink:href="#DejaVuSans-32"/>
     <use x="382.226562" xlink:href="#DejaVuSans-32"/>
    </g>
    <!-- 51 targets: 100..1e-08 -->
    <defs>
     <path d="M 11.71875 12.40625 
L 22.015625 12.40625 
L 22.015625 0 
L 11.71875 0 
z
M 11.71875 51.703125 
L 22.015625 51.703125 
L 22.015625 39.3125 
L 11.71875 39.3125 
z
" id="DejaVuSans-3a"/>
    </defs>
    <g transform="translate(58.89048 46.712575)scale(0.102 -0.102)">
     <use xlink:href="#DejaVuSans-35"/>
     <use x="63.623047" xlink:href="#DejaVuSans-31"/>
     <use x="127.246094" xlink:href="#DejaVuSans-20"/>
     <use x="159.033203" xlink:href="#DejaVuSans-74"/>
     <use x="198.242188" xlink:href="#DejaVuSans-61"/>
     <use x="259.521484" xlink:href="#DejaVuSans-72"/>
     <use x="300.619141" xlink:href="#DejaVuSans-67"/>
     <use x="364.095703" xlink:href="#DejaVuSans-65"/>
     <use x="425.619141" xlink:href="#DejaVuSans-74"/>
     <use x="464.828125" xlink:href="#DejaVuSans-73"/>
     <use x="516.927734" xlink:href="#DejaVuSans-3a"/>
     <use x="550.619141" xlink:href="#DejaVuSans-20"/>
     <use x="582.40625" xlink:href="#DejaVuSans-31"/>
     <use x="646.029297" xlink:href="#DejaVuSans-30"/>
     <use x="709.652344" xlink:href="#DejaVuSans-30"/>
     <use x="773.275391" xlink:href="#DejaVuSans-2e"/>
     <use x="805.0625" xlink:href="#DejaVuSans-2e"/>
     <use x="836.849609" xlink:href="#DejaVuSans-31"/>
     <use x="900.472656" xlink:href="#DejaVuSans-65"/>
     <use x="961.996094" xlink:href="#DejaVuSans-2d"/>
     <use x="998.080078" xlink:href="#DejaVuSans-30"/>
     <use x="1061.703125" xlink:href="#DejaVuSans-38"/>
    </g>
    <!-- 15 instances -->
    <g transform="translate(58.89048 58.134344)scale(0.102 -0.102)">
     <use xlink:href="#DejaVuSans-31"/>
     <use x="63.623047" xlink:href="#DejaVuSans-35"/>
     <use x="127.246094" xlink:href="#DejaVuSans-20"/>
     <use x="159.033203" xlink:href="#DejaVuSans-69"/>
     <use x="186.816406" xlink:href="#DejaVuSans-6e"/>
     <use x="250.195312" xlink:href="#DejaVuSans-73"/>
     <use x="302.294922" xlink:href="#DejaVuSans-74"/>
     <use x="341.503906" xlink:href="#DejaVuSans-61"/>
     <use x="402.783203" xlink:href="#DejaVuSans-6e"/>
     <use x="466.162109" xlink:href="#DejaVuSans-63"/>
     <use x="521.142578" xlink:href="#DejaVuSans-65"/>
     <use x="582.666016" xlink:href="#DejaVuSans-73"/>
    </g>
   </g>
   <g id="text_20">
    <!-- v0.0.0 -->
    <g style="fill:#808080;" transform="translate(178.96275 290.099912)scale(0.1 -0.1)">
     <use xlink:href="#DejaVuSans-76"/>
     <use x="59.179688" xlink:href="#DejaVuSans-30"/>
     <use x="122.802734" xlink:href="#DejaVuSans-2e"/>
     <use x="154.589844" xlink:href="#DejaVuSans-30"/>
     <use x="218.212891" xlink:href="#DejaVuSans-2e"/>
     <use x="250" xlink:href="#DejaVuSans-30"/>
    </g>
   </g>
   <g id="text_21">
    <!-- 22 Gallagher 21 peaks -->
    <defs>
     <path d="M 59.515625 10.40625 
L 59.515625 29.984375 
L 43.40625 29.984375 
L 43.40625 38.09375 
L 69.28125 38.09375 
L 69.28125 6.78125 
Q 63.578125 2.734375 56.6875 0.65625 
Q 49.8125 -1.421875 42 -1.421875 
Q 24.90625 -1.421875 15.25 8.5625 
Q 5.609375 18.5625 5.609375 36.375 
Q 5.609375 54.25 15.25 64.234375 
Q 24.90625 74.21875 42 74.21875 
Q 49.125 74.21875 55.546875 72.453125 
Q 61.96875 70.703125 67.390625 67.28125 
L 67.390625 56.78125 
Q 61.921875 61.421875 55.765625 63.765625 
Q 49.609375 66.109375 42.828125 66.109375 
Q 29.4375 66.109375 22.71875 58.640625 
Q 16.015625 51.171875 16.015625 36.375 
Q 16.015625 21.625 22.71875 14.15625 
Q 29.4375 6.6875 42.828125 6.6875 
Q 48.046875 6.6875 52.140625 7.59375 
Q 56.25 8.5 59.515625 10.40625 
z
" id="DejaVuSans-47"/>
     <path d="M 54.890625 33.015625 
L 54.890625 0 
L 45.90625 0 
L 45.90625 32.71875 
Q 45.90625 40.484375 42.875 44.328125 
Q 39.84375 48.1875 33.796875 48.1875 
Q 26.515625 48.1875 22.3125 43.546875 
Q 18.109375 38.921875 18.109375 30.90625 
L 18.109375 0 
L 9.078125 0 
L 9.078125 75.984375 
L 18.109375 75.984375 
L 18.109375 46.1875 
Q 21.34375 51.125 25.703125 53.5625 
Q 30.078125 56 35.796875 56 
Q 45.21875 56 50.046875 50.171875 
Q 54.890625 44.34375 54.890625 33.015625 
z
" id="DejaVuSans-68"/>
     <path d="M 9.078125 75.984375 
L 18.109375 75.984375 
L 18.109375 31.109375 
L 44.921875 54.6875 
L 56.390625 54.6875 
L 27.390625 29.109375 
L 57.625 0 
L 45.90625 0 
L 18.109375 26.703125 
L 18.109375 0 
L 9.078125 0 
z
" id="DejaVuSans-6b"/>
    </defs>
    <g transform="translate(81.519 18.84)scale(0.2 -0.2)">
     <use xlink:href="#DejaVuSans-32"/>
     <use x="63.623047" xlink:href="#DejaVuSans-32"/>
     <use x="127.246094" xlink:href="#DejaVuSans-20"/>
     <use x="159.033203" xlink:href="#DejaVuSans-47"/>
     <use x="236.523438" xlink:href="#DejaVuSans-61"/>
     <use x="297.802734" xlink:href="#DejaVuSans-6c"/>
     <use x="325.585938" xlink:href="#DejaVuSans-6c"/>
     <use x="353.369141" xlink:href="#DejaVuSans-61"/>
     <use x="414.648438" xlink:href="#DejaVuSans-67"/>
     <use x="478.125" xlink:href="#DejaVuSans-68"/>
     <use x="541.503906" xlink:href="#DejaVuSans-65"/>
     <use x="603.027344" xlink:href="#DejaVuSans-72"/>
     <use x="644.140625" xlink:href="#DejaVuSans-20"/>
     <use x="675.927734" xlink:href="#DejaVuSans-32"/>
     <use x="739.550781" xlink:href="#DejaVuSans-31"/>
     <use x="803.173828" xlink:href="#DejaVuSans-20"/>
     <use x="834.960938" xlink:href="#DejaVuSans-70"/>
     <use x="898.4375" xlink:href="#DejaVuSans-65"/>
     <use x="959.960938" xlink:href="#DejaVuSans-61"/>
     <use x="1021.240234" xlink:href="#DejaVuSans-6b"/>
     <use x="1079.150391" xlink:href="#DejaVuSans-73"/>
    </g>
   </g>
  </g>
 </g>
 <defs>
  <clipPath id="pf32cb6f86d">
   <rect height="270.04" width="277.048" x="56.12" y="24.84"/>
  </clipPath>
 </defs>
</svg>
